version 1
nodes
0 "ValveBiped.Bip01_Spine4" -1
1 "ValveBiped.Bip01_L_Clavicle" 0
2 "ValveBiped.Bip01_L_UpperArm" 1
3 "ValveBiped.Bip01_L_Forearm" 2
4 "ValveBiped.Bip01_L_Hand" 3
5 "ValveBiped.Bip01_L_Finger4" 4
6 "ValveBiped.Bip01_L_Finger41" 5
7 "ValveBiped.Bip01_L_Finger42" 6
8 "ValveBiped.Bip01_L_Finger3" 4
9 "ValveBiped.Bip01_L_Finger31" 8
10 "ValveBiped.Bip01_L_Finger32" 9
11 "ValveBiped.Bip01_L_Finger2" 4
12 "ValveBiped.Bip01_L_Finger21" 11
13 "ValveBiped.Bip01_L_Finger22" 12
14 "ValveBiped.Bip01_L_Finger1" 4
15 "ValveBiped.Bip01_L_Finger11" 14
16 "ValveBiped.Bip01_L_Finger12" 15
17 "ValveBiped.Bip01_L_Finger0" 4
18 "ValveBiped.Bip01_L_Finger01" 17
19 "ValveBiped.Bip01_L_Finger02" 18
20 "ValveBiped.Bip01_L_Ulna" 3
21 "ValveBiped.Bip01_L_Wrist" 3
22 "rig_l_upperarm" 1
23 "rig_l_forearm" 22
24 "rig_d_l_forearm" 23
25 "rig_d_l_upperarm" 22
26 "ValveBiped.Bip01_R_Clavicle" 0
27 "ValveBiped.Bip01_R_UpperArm" 26
28 "ValveBiped.Bip01_R_Forearm" 27
29 "ValveBiped.Bip01_R_Hand" 28
30 "ValveBiped.Bip01_R_Finger4" 29
31 "ValveBiped.Bip01_R_Finger41" 30
32 "ValveBiped.Bip01_R_Finger42" 31
33 "ValveBiped.Bip01_R_Finger3" 29
34 "ValveBiped.Bip01_R_Finger31" 33
35 "ValveBiped.Bip01_R_Finger32" 34
36 "ValveBiped.Bip01_R_Finger2" 29
37 "ValveBiped.Bip01_R_Finger21" 36
38 "ValveBiped.Bip01_R_Finger22" 37
39 "ValveBiped.Bip01_R_Finger1" 29
40 "ValveBiped.Bip01_R_Finger11" 39
41 "ValveBiped.Bip01_R_Finger12" 40
42 "ValveBiped.Bip01_R_Finger0" 29
43 "ValveBiped.Bip01_R_Finger01" 42
44 "ValveBiped.Bip01_R_Finger02" 43
45 "ValveBiped.Bip01_R_Ulna" 28
46 "ValveBiped.Bip01_R_Wrist" 28
47 "rig_r_upperarm" 26
48 "rig_r_forearm" 47
49 "rig_d_r_forearm" 48
50 "rig_d_r_upperarm" 47
51 "rig_r_hand" -1
52 "rig_d_r_hand" 51
53 "rig_d_r_wrist" 52
54 "rig_l_hand" -1
55 "rig_d_l_hand" 54
56 "rig_d_l_wrist" 54
57 "rig_l_pole" -1
58 "rig_r_pole" -1
59 "rig_l_clavicle" -1
60 "rig_d_l_clavicle" 59
61 "rig_r_clavicle" -1
62 "rig_d_r_clavicle" 61
63 "Camera" -1
64 "body" -1
65 "trigger" 64
66 "barrel" 64
67 "bulletdoor" 64
68 "pump" 64
69 "bolt" 68
70 "bullet2" 64
71 "bullet1" -1
end
skeleton
time 0
0  0.000006 0.000000 0.000000  -1.570800 -1.391899 -1.570792
1  -4.327822 -0.845730 -0.674796  -1.544956 -1.855077 -0.198630
2  6.027522 -0.000325 0.000193  -1.077969 -1.092223 -1.034963
3  11.692110 0.000644 -0.000740  -1.361396 -0.000016 -1.396426
4  11.479884 0.000600 -0.000694  1.243137 -0.641762 0.128734
5  3.859508 -0.142880 -1.192049  -0.550885 -0.255832 -1.866282
6  1.312590 0.000012 0.000009  -0.134281 -0.007565 -0.192402
7  0.729356 0.000053 0.000048  -0.007819 -0.009377 -0.049785
8  3.942141 0.046272 -0.431512  -0.463378 0.160456 -1.247694
9  1.539111 0.000084 0.000004  -0.004274 -0.078040 -1.047896
10  1.196334 0.000145 0.000030  0.008873 0.001422 -0.157248
11  3.883503 -0.047270 0.431381  -0.162351 0.500530 -0.533043
12  1.719572 -0.000026 0.000014  0.063764 -0.114983 -1.565865
13  1.209180 0.000091 0.000011  -0.006409 0.000350 -0.056241
14  4.085221 -0.082716 1.151040  0.170123 0.692306 0.093057
15  1.719449 -0.000012 0.000023  0.018421 -0.005135 -1.015982
16  1.099675 0.000050 0.000006  -0.080608 0.037327 -1.435667
17  0.971586 -1.283500 0.847609  -0.978328 -0.625346 -0.310208
18  1.789819 -0.000003 -0.000018  0.000998 -0.014468 0.721477
19  1.207015 -0.000012 -0.000043  0.001593 -0.000026 -0.111145
20  5.740637 0.000410 -0.000703  -0.109676 0.000003 0.000071
21  11.480985 0.000332 -0.000796  -0.048215 -0.111001 -0.006497
22  6.027525 -0.000329 0.000203  1.759115 -0.442716 1.687994
23  0.000002 11.692100 -0.000007  -0.967735 -0.419756 -0.770112
24  0.000003 0.000009 -0.000001  -0.492302 -0.000031 1.570739
25  -0.000000 -0.000012 -0.000001  0.868957 0.000002 1.570712
26  -3.286773 -12.103185 2.073871  1.473120 1.855075 -0.198639
27  6.027505 -0.000260 -0.000229  1.592803 0.555538 -0.377494
28  11.691994 0.000241 0.000857  0.245671 0.000078 -1.913604
29  11.478683 -0.001179 0.001144  -0.981534 0.193836 0.939741
30  3.452861 -0.227595 1.051755  0.877464 -0.056173 -2.075854
31  1.312558 0.000026 0.000000  -0.015677 -0.060057 -0.392348
32  0.729345 0.000065 -0.000027  0.007919 -0.008125 -0.675163
33  3.942046 0.050109 0.430997  0.524085 -0.097015 -1.851522
34  1.539096 0.000010 0.000000  -0.012992 -0.051146 -0.650980
35  1.196299 0.000075 -0.000004  0.004319 -0.002068 -0.950552
36  3.883411 -0.050502 -0.431086  0.271728 -0.277378 -1.402722
37  1.719563 -0.000079 -0.000004  -0.025734 -0.006032 -1.456462
38  1.209196 0.000036 0.000011  0.000939 -0.002812 -0.276849
39  3.806436 -0.112148 -1.295329  0.005430 -0.274335 -0.317401
40  1.719413 -0.000099 -0.000035  0.051682 0.009641 -0.119353
41  1.099674 0.000024 0.000007  -0.003174 -0.004103 -1.062644
42  0.866372 -0.355430 -1.353142  1.308181 0.166838 -0.740879
43  1.789779 -0.000009 -0.000042  0.032550 0.123016 0.037179
44  1.206996 -0.000006 0.000005  0.000293 -0.001887 1.285959
45  5.740571 0.000055 0.000723  0.169040 -0.000014 0.000021
46  11.480680 -0.000200 0.000977  0.101487 0.063397 0.158435
47  6.027514 -0.000273 -0.000237  -0.673649 -0.563519 -1.545340
48  -0.000001 11.691974 -0.000008  -1.272974 0.719180 0.941050
49  0.000004 -0.000002 -0.000000  2.518198 -0.000041 1.570856
50  -0.000006 -0.000015 0.000006  2.272644 -0.000030 1.570865
51  -4.246439 -0.805276 -4.154619  2.966364 0.097861 -1.594472
52  0.000000 -0.000000 0.000001  0.008153 -0.000259 0.000009
53  -0.000000 -0.000000 0.000001  1.565115 0.043565 -0.106862
54  -0.823980 -15.126455 -4.756344  -0.977156 -0.115470 -1.927258
55  -0.000001 -0.000000 -0.000000  -0.000000 -0.000000 -0.000002
56  0.000030 0.000029 0.000001  -1.571902 -0.044449 -0.106509
57  8.694838 -16.141689 -16.416052  1.570796 -0.000000 0.000000
58  -19.213562 7.451548 -15.500427  1.570796 -0.000000 0.000000
59  -0.670483 1.601972 -4.109488  1.570796 -0.000000 0.000000
60  -0.004311 0.001230 -0.000371  0.006898 -0.005534 -0.284229
61  2.073871 12.494887 -1.080626  1.570796 -0.000000 0.000000
62  0.000000 0.000000 0.000000  -0.078727 -3.136056 0.284226
63  0.000000 0.000000 0.000000  1.570796 -0.000000 0.000000
64  -2.535900 -8.566546 -1.996421  1.549086 0.053723 0.014481
65  -0.200448 -1.761559 -1.306031  0.000000 0.000000 0.000000
66  -0.200449 0.213337 26.427572  0.000000 0.000000 0.000000
67  -0.200449 -0.895508 -0.420852  0.000000 0.000000 0.000000
68  -0.104047 -4.495923 7.879276  0.000000 0.000000 0.000000
69  -0.195264 4.332631 -6.347185  0.000000 0.000000 0.000000
70  -0.194973 -1.133607 6.156296  0.000000 0.000000 0.000000
71  -2.727063 -12.680481 -3.025791  1.549086 0.053723 0.014481
time 1
0  0.000006 0.000000 0.000000  -1.570800 -1.391899 -1.570792
1  -4.409623 -0.706214 -0.616880  -1.544956 -1.855077 -0.198630
2  6.027523 -0.000327 0.000192  -0.960108 -1.235770 -1.239423
3  11.692114 0.000644 -0.000741  -1.351694 0.000002 -0.952492
4  11.480888 0.000722 -0.000127  1.420621 -0.486055 0.151942
5  3.859508 -0.142879 -1.192049  -0.568251 0.047372 -1.225168
6  1.312589 0.000013 0.000009  -0.067242 -0.002035 -0.141270
7  0.729355 0.000051 0.000049  -0.004080 -0.004529 0.027867
8  3.942141 0.046273 -0.431513  -0.286507 0.174748 -0.852953
9  1.539110 0.000084 0.000005  -0.013701 -0.038443 -0.472918
10  1.196332 0.000144 0.000030  0.004459 0.000634 -0.119083
11  3.883504 -0.047269 0.431381  -0.013666 0.254921 -0.364475
12  1.719569 -0.000027 0.000013  0.008260 -0.067589 -0.789579
13  1.209179 0.000089 0.000012  -0.002733 0.001804 0.038587
14  4.085223 -0.082714 1.151041  0.217105 0.258604 -0.034750
15  1.719448 -0.000013 0.000022  0.008792 -0.002848 -0.514807
16  1.099676 0.000049 0.000006  -0.032839 0.036440 -0.665279
17  0.971586 -1.283499 0.847609  -1.243808 -0.574786 -0.417491
18  1.789819 -0.000002 -0.000019  0.002108 -0.004496 0.324272
19  1.207018 -0.000012 -0.000044  0.000504 -0.000138 -0.065201
20  5.740636 0.000410 -0.000703  -0.040088 0.000003 0.000071
21  11.481189 0.000356 -0.000682  -0.018053 -0.078003 0.011861
22  6.027524 -0.000330 0.000203  1.659488 -0.323587 1.629414
23  0.000001 11.692098 -0.000007  -0.689472 -0.208807 -0.567754
24  0.000002 0.000008 -0.000003  -0.482625 -0.000031 1.570739
25  -0.000001 -0.000011 0.000000  0.868957 0.000002 1.570712
26  -3.399987 -11.968000 1.984940  1.473120 1.855075 -0.198639
27  6.027507 -0.000261 -0.000229  1.696791 0.724159 -0.308204
28  11.691991 0.000243 0.000856  0.243359 0.000045 -1.490314
29  11.480361 -0.000186 0.000896  -1.029967 0.076623 0.703087
30  3.452862 -0.227595 1.051754  0.406972 -0.281773 -0.608989
31  1.312558 0.000025 0.000001  -0.000002 -0.000045 -0.148961
32  0.729345 0.000066 -0.000027  -0.000028 -0.000012 0.046463
33  3.942047 0.050109 0.430996  0.121277 -0.118787 -0.520714
34  1.539097 0.000010 0.000000  0.000007 -0.000010 0.042929
35  1.196299 0.000076 -0.000003  -0.000009 -0.000006 -0.140034
36  3.883411 -0.050502 -0.431087  -0.089865 -0.000690 -0.298025
37  1.719563 -0.000079 -0.000003  -0.002289 -0.007626 -0.075726
38  1.209196 0.000035 0.000012  -0.001276 -0.004274 0.074338
39  3.806436 -0.112148 -1.295329  -0.330197 0.136798 -0.257131
40  1.719412 -0.000100 -0.000034  -0.001915 -0.006300 -0.072277
41  1.099672 0.000024 0.000006  -0.001196 -0.004013 0.046405
42  0.866373 -0.355431 -1.353142  1.211236 0.410628 -0.806114
43  1.789779 -0.000009 -0.000042  0.019983 0.062664 -0.037355
44  1.206997 -0.000006 0.000005  0.003999 0.000883 0.646642
45  5.740572 0.000056 0.000724  0.140028 -0.000014 0.000021
46  11.481017 -0.000001 0.000929  0.104671 0.027724 0.118974
47  6.027515 -0.000273 -0.000239  -0.811937 -0.420202 -1.472837
48  -0.000002 11.691973 -0.000005  -1.023674 0.470590 0.806668
49  0.000003 0.000000 0.000000  2.515888 -0.000041 1.570856
50  -0.000007 -0.000014 0.000006  2.272644 -0.000030 1.570865
51  -5.740036 -4.534184 -4.040102  2.966364 0.097861 -1.594472
52  0.000000 -0.000000 -0.000000  0.008153 -0.000259 0.000009
53  0.000000 -0.000000 0.000000  1.565115 0.043565 -0.106862
54  -0.391388 -18.365303 -5.054409  -0.839159 -0.003517 -1.853197
55  -0.000000 -0.000001 -0.000000  0.000000 -0.000000 -0.000002
56  0.000029 0.000029 0.000001  -1.571902 -0.044449 -0.106509
57  8.813835 -16.069267 -16.772230  1.570796 -0.000000 0.000000
58  -19.864311 7.355041 -15.624046  1.570796 -0.000000 0.000000
59  -0.612567 1.479239 -4.214810  1.570796 -0.000000 0.000000
60  -0.004311 0.001230 -0.000371  0.006898 -0.005534 -0.284229
61  1.984940 12.382006 -1.216089  1.570796 -0.000000 0.000000
62  0.000000 0.000000 0.000000  -0.078727 -3.136056 0.284226
63  0.000000 0.000000 0.000000  1.568900 0.001131 -0.001158
64  -2.541439 -9.474968 -1.878387  1.549696 0.052219 0.058090
65  -0.200448 -1.761558 -1.306032  0.000000 0.000000 0.000000
66  -0.200449 0.213337 26.427572  0.000000 0.000000 0.000000
67  -0.200449 -0.895508 -0.420852  0.000000 0.000000 0.000000
68  -0.104047 -4.495923 7.879276  0.000000 0.000000 0.000000
69  -0.195264 4.332630 -6.347189  0.000000 0.000000 0.000000
70  -0.194972 -1.133607 6.156298  0.000000 0.000000 0.000000
71  -2.551697 -13.592607 -2.910636  1.549696 0.052219 0.058090
time 2
0  0.000006 0.000000 0.000000  -1.570800 -1.391899 -1.570792
1  -4.655810 -0.286328 -0.442577  -1.544956 -1.855077 -0.198630
2  6.027521 -0.000327 0.000193  -1.164001 -1.072192 -1.051174
3  11.692111 0.000644 -0.000740  -1.322124 -0.000004 -1.124169
4  11.480642 0.000683 -0.000280  1.731542 -0.524002 0.017085
5  3.859509 -0.142880 -1.192049  -0.394539 0.299157 -0.554440
6  1.312590 0.000012 0.000008  -0.000009 0.000051 -0.089883
7  0.729355 0.000054 0.000051  0.000023 0.000013 0.105537
8  3.942143 0.046273 -0.431512  -0.117741 0.120704 -0.462798
9  1.539111 0.000082 0.000004  0.000001 0.000022 0.102014
10  1.196334 0.000145 0.000028  0.000017 0.000014 -0.080915
11  3.883504 -0.047269 0.431381  0.088183 -0.008874 -0.239400
12  1.719572 -0.000026 0.000015  0.001905 0.005179 -0.016672
13  1.209178 0.000091 0.000012  0.001063 0.002903 0.133420
14  4.085223 -0.082715 1.151040  0.320600 -0.159664 -0.200164
15  1.719449 -0.000012 0.000022  0.001423 0.003814 -0.013163
16  1.099675 0.000048 0.000005  0.000887 0.002421 0.105475
17  0.971588 -1.283499 0.847609  -1.424527 -0.738760 -0.480418
18  1.789820 -0.000004 -0.000018  -0.000740 0.005137 -0.073161
19  1.207016 -0.000011 -0.000044  -0.000595 -0.000176 0.013480
20  5.740637 0.000409 -0.000702  0.010168 0.000003 0.000071
21  11.481137 0.000345 -0.000713  0.037030 -0.082221 0.001903
22  6.027524 -0.000331 0.000203  1.808980 -0.442397 1.574445
23  0.000001 11.692099 -0.000007  -0.800220 -0.283925 -0.651693
24  0.000004 0.000008 -0.000003  -0.453044 -0.000031 1.570739
25  -0.000000 -0.000011 -0.000001  0.868957 0.000002 1.570712
26  -3.740715 -11.561150 1.717296  1.473120 1.855075 -0.198639
27  6.027505 -0.000262 -0.000228  1.749243 0.526421 -0.284659
28  11.691993 0.000243 0.000857  0.236410 0.000053 -1.604900
29  11.479496 -0.000695 0.001014  -1.009417 0.004814 0.623940
30  3.452861 -0.227595 1.051754  0.406972 -0.281773 -0.608989
31  1.312558 0.000026 -0.000000  -0.000002 -0.000045 -0.148961
32  0.729344 0.000065 -0.000027  -0.000028 -0.000012 0.046463
33  3.942046 0.050109 0.430997  0.121277 -0.118787 -0.520714
34  1.539096 0.000010 0.000000  0.000007 -0.000010 0.042929
35  1.196299 0.000075 -0.000004  -0.000009 -0.000006 -0.140034
36  3.883411 -0.050502 -0.431087  -0.089865 -0.000690 -0.298025
37  1.719563 -0.000080 -0.000003  -0.002289 -0.007626 -0.075726
38  1.209197 0.000035 0.000011  -0.001276 -0.004274 0.074338
39  3.806436 -0.112148 -1.295330  -0.330197 0.136798 -0.257131
40  1.719412 -0.000099 -0.000035  -0.001915 -0.006300 -0.072277
41  1.099673 0.000025 0.000007  -0.001196 -0.004013 0.046405
42  0.866372 -0.355431 -1.353142  1.079795 0.646453 -0.910435
43  1.789779 -0.000009 -0.000043  0.011965 0.001552 -0.110981
44  1.206997 -0.000006 0.000006  0.005321 0.005317 0.007332
45  5.740571 0.000056 0.000725  0.142201 -0.000014 0.000021
46  11.480842 -0.000104 0.000953  0.113467 0.011818 0.106024
47  6.027514 -0.000273 -0.000236  -0.590959 -0.446922 -1.573305
48  -0.000002 11.691976 -0.000006  -1.091239 0.535021 0.848109
49  0.000004 -0.000001 -0.000002  2.508936 -0.000041 1.570856
50  -0.000007 -0.000015 0.000006  2.272644 -0.000030 1.570865
51  -8.192936 -3.470681 -4.950344  2.979600 0.083508 -1.591121
52  -0.000000 -0.000000 0.000001  0.008153 -0.000259 0.000009
53  -0.000000 0.000000 0.000000  1.565115 0.043565 -0.106862
54  1.128565 -18.060606 -6.896401  -0.605407 -0.070630 -1.726132
55  0.000002 0.000001 -0.000001  0.000000 -0.000000 -0.000002
56  0.000031 0.000029 0.000001  -1.571902 -0.044449 -0.106509
57  9.171970 -15.851300 -17.844177  1.570796 -0.000000 0.000000
58  -21.256834 7.049613 -16.055128  1.570796 -0.000000 0.000000
59  -0.438264 1.109862 -4.531785  1.570796 -0.000000 0.000000
60  -0.004311 0.001230 -0.000371  0.006898 -0.005534 -0.284229
61  1.717296 12.042279 -1.623775  1.570796 -0.000000 0.000000
62  0.000000 0.000000 0.000000  -0.078727 -3.136056 0.284226
63  0.000000 0.000000 0.000000  1.565375 0.003226 -0.003314
64  -2.556472 -11.940683 -1.558010  1.551350 0.048138 0.176447
65  -0.200448 -1.761559 -1.306031  -0.000000 0.000000 -0.000000
66  -0.200448 0.213337 26.427572  -0.000000 0.000000 -0.000000
67  -0.200449 -0.895509 -0.420853  -0.000000 0.000000 -0.000000
68  -0.104048 -4.495923 7.879278  -0.000000 0.000000 -0.000000
69  -0.195264 4.332631 -6.347186  -0.000000 0.000000 -0.000000
70  -0.194972 -1.133608 6.156297  -0.000000 0.000000 -0.000000
71  -2.076921 -16.028339 -2.598056  1.551350 0.048138 0.176447
time 3
0  0.000006 0.000000 0.000000  -1.570800 -1.391899 -1.570792
1  -5.056097 0.396382 -0.159171  -1.544956 -1.855077 -0.198630
2  6.027520 -0.000325 0.000194  -1.309257 -0.873846 -0.969969
3  11.692110 0.000644 -0.000740  -1.272545 -0.000009 -1.266846
4  11.480766 0.000679 -0.000279  2.234796 -0.405506 -0.134297
5  3.859508 -0.142880 -1.192049  -0.399397 0.292475 -0.571101
6  1.312590 0.000014 0.000008  -0.000010 0.000051 -0.105683
7  0.729355 0.000053 0.000051  0.000023 0.000014 0.089737
8  3.942142 0.046272 -0.431511  -0.119799 0.118662 -0.480036
9  1.539111 0.000082 0.000004  0.000000 0.000022 0.084733
10  1.196334 0.000145 0.000030  0.000017 0.000014 -0.096716
11  3.883505 -0.047269 0.431381  0.088323 -0.007350 -0.256615
12  1.719573 -0.000026 0.000016  0.001816 0.005211 -0.033954
13  1.209179 0.000092 0.000011  0.001017 0.002919 0.117620
14  4.085222 -0.082716 1.151041  0.327051 -0.145587 -0.242589
15  1.719448 -0.000012 0.000021  0.001356 0.003838 -0.030444
16  1.099674 0.000048 0.000006  0.000845 0.002436 0.088194
17  0.971586 -1.283499 0.847609  -1.399595 -0.734358 -0.517531
18  1.789819 -0.000003 -0.000019  -0.000675 0.004893 -0.058568
19  1.207016 -0.000010 -0.000042  -0.000576 -0.000133 0.074107
20  5.740637 0.000410 -0.000704  0.108120 0.000003 0.000071
21  11.481163 0.000342 -0.000715  0.130039 -0.062780 -0.005826
22  6.027525 -0.000330 0.000203  2.016525 -0.555220 1.435206
23  0.000002 11.692100 -0.000007  -0.889102 -0.352788 -0.716041
24  0.000002 0.000008 -0.000001  -0.403456 -0.000030 1.570739
25  -0.000000 -0.000012 -0.000000  0.868957 0.000002 1.570712
26  -4.294719 -10.899635 1.282121  1.473120 1.855075 -0.198639
27  6.027504 -0.000260 -0.000230  1.757287 0.352425 -0.307503
28  11.691993 0.000242 0.000855  0.225104 0.000050 -1.554690
29  11.479859 -0.000503 0.000960  -0.988425 -0.052549 0.389791
30  3.452861 -0.227595 1.051756  0.406972 -0.281773 -0.608989
31  1.312558 0.000025 -0.000000  -0.000002 -0.000045 -0.148961
32  0.729344 0.000066 -0.000026  -0.000028 -0.000012 0.046463
33  3.942046 0.050109 0.430997  0.121277 -0.118787 -0.520714
34  1.539097 0.000009 0.000001  0.000007 -0.000010 0.042929
35  1.196299 0.000075 -0.000003  -0.000009 -0.000006 -0.140034
36  3.883412 -0.050502 -0.431087  -0.089865 -0.000690 -0.298025
37  1.719564 -0.000080 -0.000003  -0.002289 -0.007626 -0.075726
38  1.209197 0.000035 0.000011  -0.001276 -0.004274 0.074338
39  3.806436 -0.112147 -1.295329  -0.330197 0.136798 -0.257130
40  1.719411 -0.000100 -0.000033  -0.001915 -0.006300 -0.072277
41  1.099672 0.000024 0.000007  -0.001196 -0.004013 0.046405
42  0.866372 -0.355429 -1.353142  1.079795 0.646453 -0.910435
43  1.789779 -0.000009 -0.000042  0.011965 0.001552 -0.110981
44  1.206997 -0.000006 0.000006  0.005321 0.005317 0.007332
45  5.740572 0.000055 0.000725  0.128466 -0.000014 0.000021
46  11.480916 -0.000066 0.000943  0.119632 -0.009192 0.062045
47  6.027514 -0.000272 -0.000237  -0.399900 -0.480900 -1.685294
48  -0.000003 11.691976 -0.000007  -1.061712 0.506487 0.830381
49  0.000003 -0.000000 -0.000000  2.497632 -0.000041 1.570856
50  -0.000007 -0.000015 0.000004  2.272644 -0.000030 1.570865
51  -11.308042 -3.212031 -7.342668  3.013801 0.060043 -1.588844
52  -0.000000 -0.000001 0.000000  0.008153 -0.000259 0.000009
53  0.000000 0.000000 0.000000  1.565115 0.043565 -0.106862
54  3.297575 -17.887194 -9.229440  -0.200755 -0.224582 -1.625083
55  -0.000000 -0.000000 0.000002  0.000000 -0.000000 -0.000002
56  0.000031 0.000029 0.000003  -1.571901 -0.044449 -0.106509
57  9.754276 -15.496902 -19.587105  1.570796 -0.000000 0.000000
58  -21.907583 6.648198 -16.692142  1.570796 -0.000000 0.000000
59  -0.154858 0.509276 -5.047168  1.570796 -0.000000 0.000000
60  -0.004311 0.001230 -0.000371  0.006898 -0.005534 -0.284229
61  1.282120 11.489903 -2.286650  1.570796 -0.000000 0.000000
62  0.000000 0.000000 0.000000  -0.078727 -3.136056 0.284226
63  0.000000 0.000000 0.000000  1.563475 0.004351 -0.004479
64  -2.578627 -15.574369 -1.085875  1.553785 0.042122 0.350843
65  -0.200449 -1.761558 -1.306032  0.000000 -0.000000 -0.000000
66  -0.200451 0.213337 26.427572  0.000000 -0.000000 -0.000000
67  -0.200449 -0.895508 -0.420853  0.000000 -0.000000 -0.000000
68  -0.104048 -4.495923 7.879275  0.000000 -0.000000 -0.000000
69  -0.195264 4.332631 -6.347185  0.000000 -0.000000 -0.000000
70  -0.194972 -1.133607 6.156293  0.000000 -0.000000 -0.000000
71  -1.392485 -19.512394 -2.137372  1.553785 0.042122 0.350843
time 4
0  0.000006 0.000000 0.000000  -1.570800 -1.391899 -1.570792
1  -5.579652 1.289335 0.211511  -1.544956 -1.855077 -0.198630
2  6.027518 -0.000323 0.000196  -1.426779 -0.671232 -0.957287
3  11.692108 0.000643 -0.000739  -1.204838 -0.000015 -1.356361
4  11.480129 0.000534 -0.000654  2.726073 -0.122527 -0.182680
5  3.859508 -0.142880 -1.192049  -0.412031 0.273824 -0.616315
6  1.312589 0.000011 0.000009  -0.000012 0.000051 -0.152536
7  0.729354 0.000054 0.000050  0.000022 0.000015 0.042884
8  3.942143 0.046272 -0.431510  -0.125253 0.112887 -0.527235
9  1.539112 0.000085 0.000004  -0.000001 0.000022 0.037484
10  1.196333 0.000144 0.000029  0.000016 0.000015 -0.143568
11  3.883506 -0.047269 0.431383  0.088570 -0.003176 -0.303680
12  1.719574 -0.000027 0.000014  0.001567 0.005291 -0.081204
13  1.209181 0.000092 0.000011  0.000879 0.002964 0.070767
14  4.085223 -0.082716 1.151041  0.334829 -0.126033 -0.300016
15  1.719451 -0.000012 0.000023  0.001174 0.003898 -0.077694
16  1.099675 0.000049 0.000007  0.000729 0.002474 0.040944
17  0.971589 -1.283499 0.847610  -1.360905 -0.726021 -0.575527
18  1.789818 -0.000005 -0.000019  -0.000497 0.004211 -0.017890
19  1.207016 -0.000011 -0.000044  -0.000500 -0.000088 0.142194
20  5.740636 0.000410 -0.000704  0.223133 0.000003 0.000070
21  11.481035 0.000310 -0.000793  0.232555 -0.016590 -0.017150
22  6.027524 -0.000330 0.000203  2.266471 -0.626361 1.225576
23  0.000001 11.692099 -0.000007  -0.943607 -0.398633 -0.753846
24  0.000004 0.000009 -0.000003  -0.335746 -0.000031 1.570739
25  -0.000000 -0.000011 -0.000001  0.868957 0.000002 1.570712
26  -5.019329 -10.034404 0.712933  1.473120 1.855075 -0.198639
27  6.027503 -0.000260 -0.000232  1.720408 0.285800 -0.345536
28  11.691992 0.000242 0.000857  0.210313 0.000051 -1.549956
29  11.479897 -0.000496 0.000950  -0.943325 -0.031990 0.289781
30  3.452862 -0.227597 1.051755  0.406972 -0.281773 -0.608989
31  1.312557 0.000024 -0.000000  -0.000002 -0.000045 -0.148961
32  0.729346 0.000065 -0.000026  -0.000028 -0.000012 0.046463
33  3.942046 0.050107 0.430996  0.121277 -0.118787 -0.520714
34  1.539097 0.000010 -0.000001  0.000007 -0.000010 0.042929
35  1.196299 0.000076 -0.000005  -0.000009 -0.000006 -0.140034
36  3.883412 -0.050503 -0.431087  -0.089865 -0.000690 -0.298025
37  1.719565 -0.000079 -0.000004  -0.002289 -0.007626 -0.075726
38  1.209196 0.000036 0.000012  -0.001276 -0.004274 0.074338
39  3.806436 -0.112149 -1.295330  -0.330197 0.136798 -0.257131
40  1.719412 -0.000100 -0.000035  -0.001915 -0.006300 -0.072277
41  1.099674 0.000026 0.000006  -0.001196 -0.004013 0.046405
42  0.866372 -0.355432 -1.353142  1.079795 0.646453 -0.910435
43  1.789779 -0.000008 -0.000042  0.011965 0.001552 -0.110981
44  1.206996 -0.000007 0.000005  0.005321 0.005317 0.007332
45  5.740573 0.000055 0.000725  0.131147 -0.000014 0.000021
46  11.480925 -0.000063 0.000941  0.127170 -0.008475 0.040917
47  6.027514 -0.000273 -0.000237  -0.332340 -0.527451 -1.744405
48  -0.000001 11.691975 -0.000006  -1.058921 0.503821 0.828676
49  0.000004 -0.000000 -0.000001  2.482842 -0.000041 1.570856
50  -0.000007 -0.000015 0.000004  2.272644 -0.000030 1.570865
51  -12.355975 -3.427085 -9.369952  3.064264 0.038408 -1.583327
52  -0.000000 0.000000 -0.000002  0.008153 -0.000259 0.000009
53  -0.000000 -0.000002 -0.000001  1.565115 0.043565 -0.106862
54  5.692549 -17.768084 -11.960706  0.298210 -0.408105 -1.641711
55  0.000000 -0.000000 -0.000002  0.000000 -0.000000 -0.000002
56  0.000031 0.000028 0.000000  -1.571902 -0.044449 -0.106509
57  10.515904 -15.033360 -21.866768  1.570796 -0.000000 0.000000
58  -21.613197 6.160607 -17.530170  1.570796 -0.000000 0.000000
59  0.215825 -0.276262 -5.721264  1.570796 -0.000000 0.000000
60  -0.004311 0.001230 -0.000371  0.006898 -0.005534 -0.284229
61  0.712932 10.767422 -3.153658  1.570796 -0.000000 0.000000
62  0.000000 0.000000 0.000000  -0.078727 -3.136056 0.284226
63  0.000000 0.000000 0.000000  1.563882 0.004111 -0.004230
64  -2.605529 -19.986702 -0.512568  1.556740 0.034817 0.562570
65  -0.200448 -1.761558 -1.306032  0.000000 -0.000000 0.000000
66  -0.200449 0.213337 26.427572  0.000000 -0.000000 0.000000
67  -0.200448 -0.895508 -0.420854  0.000000 -0.000000 0.000000
68  -0.104046 -4.495923 7.879274  0.000000 -0.000000 0.000000
69  -0.195265 4.332630 -6.347191  0.000000 -0.000000 0.000000
70  -0.194972 -1.133607 6.156296  0.000000 -0.000000 0.000000
71  -0.613839 -23.580978 -1.577908  1.556740 0.034817 0.562570
time 5
0  0.000006 0.000000 0.000000  -1.570800 -1.391899 -1.570792
1  -6.172757 2.300905 0.631433  -1.544956 -1.855077 -0.198630
2  6.027518 -0.000322 0.000197  -1.508607 -0.493616 -0.972667
3  11.692109 0.000644 -0.000741  -1.124141 -0.000016 -1.399353
4  11.479867 0.000414 -0.000826  3.032158 0.153563 -0.145219
5  3.859510 -0.142879 -1.192050  -0.429258 0.244773 -0.683473
6  1.312590 0.000012 0.000008  -0.000016 0.000050 -0.224142
7  0.729356 0.000054 0.000052  0.000021 0.000016 -0.028722
8  3.942143 0.046273 -0.431513  -0.132925 0.103727 -0.598188
9  1.539110 0.000083 0.000005  -0.000002 0.000022 -0.033630
10  1.196336 0.000146 0.000030  0.000015 0.000016 -0.215175
11  3.883504 -0.047269 0.431381  0.088572 0.003117 -0.374515
12  1.719573 -0.000027 0.000013  0.001188 0.005389 -0.152319
13  1.209179 0.000092 0.000010  0.000665 0.003019 -0.000840
14  4.085222 -0.082716 1.151039  0.342467 -0.102602 -0.366950
15  1.719448 -0.000012 0.000023  0.000894 0.003971 -0.148808
16  1.099675 0.000048 0.000009  0.000551 0.002519 -0.030170
17  0.971588 -1.283499 0.847608  -1.318666 -0.714701 -0.639545
18  1.789819 -0.000002 -0.000017  -0.000275 0.003169 0.043524
19  1.207015 -0.000013 -0.000043  -0.000377 -0.000048 0.212304
20  5.740637 0.000409 -0.000703  0.299029 0.000003 0.000070
21  11.480987 0.000286 -0.000832  0.298421 0.033131 -0.034129
22  6.027525 -0.000330 0.000203  2.501255 -0.655163 1.024206
23  0.000002 11.692101 -0.000008  -0.969491 -0.421313 -0.771285
24  0.000004 0.000009 -0.000003  -0.255046 -0.000031 1.570739
25  -0.000000 -0.000012 -0.000001  0.868957 0.000002 1.570712
26  -5.840195 -9.054238 0.068136  1.473120 1.855075 -0.198639
27  6.027505 -0.000261 -0.000235  1.599040 0.259716 -0.405486
28  11.691994 0.000243 0.000856  0.193557 0.000051 -1.557593
29  11.479838 -0.000548 0.000945  -0.899967 0.066505 0.230937
30  3.452861 -0.227594 1.051752  0.406972 -0.281773 -0.608989
31  1.312559 0.000024 0.000001  -0.000002 -0.000045 -0.148961
32  0.729345 0.000066 -0.000028  -0.000028 -0.000012 0.046463
33  3.942046 0.050109 0.430995  0.121277 -0.118787 -0.520714
34  1.539096 0.000012 -0.000000  0.000007 -0.000010 0.042929
35  1.196299 0.000076 -0.000004  -0.000009 -0.000006 -0.140034
36  3.883412 -0.050501 -0.431088  -0.089865 -0.000690 -0.298025
37  1.719563 -0.000078 -0.000005  -0.002289 -0.007626 -0.075726
38  1.209197 0.000035 0.000012  -0.001276 -0.004274 0.074338
39  3.806436 -0.112147 -1.295331  -0.330197 0.136798 -0.257131
40  1.719411 -0.000098 -0.000034  -0.001915 -0.006300 -0.072277
41  1.099673 0.000025 0.000006  -0.001196 -0.004013 0.046405
42  0.866372 -0.355430 -1.353144  1.079795 0.646453 -0.910435
43  1.789778 -0.000010 -0.000043  0.011965 0.001552 -0.110981
44  1.206997 -0.000007 0.000005  0.005321 0.005317 0.007332
45  5.740571 0.000055 0.000724  0.134567 -0.000014 0.000021
46  11.480911 -0.000073 0.000939  0.132504 0.008903 0.023685
47  6.027515 -0.000274 -0.000239  -0.327698 -0.647135 -1.774196
48  -0.000001 11.691974 -0.000006  -1.063421 0.508124 0.831426
49  0.000004 -0.000000 -0.000001  2.466086 -0.000041 1.570856
50  -0.000007 -0.000016 0.000005  2.272644 -0.000030 1.570865
51  -12.096684 -3.974830 -12.021243  -0.023322 3.109869 1.572646
52  -0.000001 0.000000 -0.000000  0.008153 -0.000259 0.000009
53  -0.000000 0.000000 -0.000002  1.565115 0.043565 -0.106862
54  7.688425 -17.584524 -14.820431  0.710147 -0.490897 -1.753127
55  0.000002 0.000001 -0.000000  0.000000 -0.000000 -0.000002
56  0.000032 0.000030 0.000000  -1.571901 -0.044449 -0.106509
57  11.378706 -14.508248 -24.449259  1.570796 -0.000000 0.000000
58  -20.742279 5.511540 -18.673447  1.570796 -0.000000 0.000000
59  0.635747 -1.166148 -6.484907  1.570796 -0.000000 0.000000
60  -0.004311 0.001230 -0.000371  0.006898 -0.005534 -0.284229
61  0.068134 9.948967 -4.135839  1.570796 -0.000000 0.000000
62  0.000000 0.000000 0.000000  -0.078727 -3.136056 0.284226
63  0.000000 0.000000 0.000000  1.564928 0.003491 -0.003588
64  -2.634805 -24.788359 0.111324  1.559953 0.026866 0.792930
65  -0.200448 -1.761558 -1.306032  0.000000 0.000000 0.000000
66  -0.200450 0.213337 26.427574  0.000000 0.000000 0.000000
67  -0.200450 -0.895508 -0.420853  0.000000 0.000000 0.000000
68  -0.104046 -4.495924 7.879275  0.000000 0.000000 0.000000
69  -0.195262 4.332630 -6.347187  0.000000 0.000000 0.000000
70  -0.194973 -1.133607 6.156296  0.000000 0.000000 0.000000
71  0.128178 -27.824709 -0.969001  1.559953 0.026866 0.792930
time 6
0  0.000006 0.000000 0.000000  -1.570800 -1.391899 -1.570792
1  -6.765861 3.312476 1.051356  -1.544956 -1.855077 -0.198630
2  6.027518 -0.000321 0.000199  -1.529054 -0.344170 -0.982123
3  11.692109 0.000645 -0.000740  -1.039122 -0.000019 -1.419729
4  11.479753 0.000313 -0.000912  3.117380 0.312713 -0.130828
5  3.859509 -0.142881 -1.192048  -0.446179 0.210600 -0.758389
6  1.312590 0.000011 0.000005  -0.000020 0.000048 -0.305479
7  0.729352 0.000053 0.000050  0.000020 0.000018 -0.110059
8  3.942142 0.046272 -0.431510  -0.140799 0.092724 -0.678426
9  1.539110 0.000084 0.000005  -0.000004 0.000022 -0.114213
10  1.196334 0.000145 0.000031  0.000014 0.000017 -0.296511
11  3.883507 -0.047271 0.431383  0.088036 0.010227 -0.454786
12  1.719572 -0.000028 0.000014  0.000750 0.005468 -0.232903
13  1.209178 0.000092 0.000012  0.000418 0.003063 -0.082177
14  4.085223 -0.082715 1.151043  0.348472 -0.078850 -0.433193
15  1.719448 -0.000014 0.000022  0.000571 0.004030 -0.229392
16  1.099673 0.000049 0.000009  0.000347 0.002555 -0.110753
17  0.971586 -1.283500 0.847610  -1.279946 -0.702119 -0.699045
18  1.789819 -0.000003 -0.000017  -0.000099 0.001974 0.113134
19  1.207015 -0.000013 -0.000044  -0.000235 -0.000023 0.275920
20  5.740638 0.000410 -0.000702  0.319864 0.000003 0.000071
21  11.480964 0.000266 -0.000850  0.315537 0.061853 -0.051256
22  6.027525 -0.000331 0.000203  2.688487 -0.690936 0.889467
23  0.000002 11.692099 -0.000007  -0.981698 -0.432205 -0.779388
24  0.000003 0.000009 -0.000001  -0.170027 -0.000031 1.570739
25  0.000000 -0.000012 -0.000001  0.868957 0.000002 1.570712
26  -6.661060 -8.074073 -0.576661  1.473120 1.855075 -0.198639
27  6.027505 -0.000258 -0.000235  1.476444 0.214888 -0.484507
28  11.691990 0.000243 0.000857  0.176801 0.000051 -1.553401
29  11.479869 -0.000542 0.000934  -0.895843 0.142097 0.156197
30  3.452862 -0.227595 1.051755  0.406972 -0.281773 -0.608989
31  1.312559 0.000025 -0.000000  -0.000002 -0.000045 -0.148961
32  0.729345 0.000065 -0.000027  -0.000028 -0.000012 0.046463
33  3.942046 0.050110 0.430997  0.121277 -0.118787 -0.520714
34  1.539096 0.000008 -0.000001  0.000007 -0.000010 0.042929
35  1.196300 0.000075 -0.000004  -0.000009 -0.000006 -0.140034
36  3.883411 -0.050500 -0.431087  -0.089865 -0.000690 -0.298025
37  1.719563 -0.000079 -0.000003  -0.002289 -0.007626 -0.075726
38  1.209196 0.000033 0.000012  -0.001276 -0.004274 0.074338
39  3.806436 -0.112147 -1.295330  -0.330197 0.136798 -0.257131
40  1.719412 -0.000101 -0.000036  -0.001915 -0.006300 -0.072277
41  1.099673 0.000025 0.000006  -0.001196 -0.004013 0.046405
42  0.866373 -0.355428 -1.353142  1.079795 0.646453 -0.910435
43  1.789780 -0.000010 -0.000043  0.011965 0.001552 -0.110981
44  1.206995 -0.000006 0.000006  0.005321 0.005317 0.007332
45  5.740571 0.000058 0.000724  0.131417 -0.000014 0.000021
46  11.480917 -0.000070 0.000935  0.131470 0.019714 0.004864
47  6.027514 -0.000273 -0.000237  -0.302444 -0.772992 -1.840852
48  -0.000002 11.691975 -0.000006  -1.060951 0.505761 0.829918
49  0.000004 0.000000 0.000000  2.449330 -0.000041 1.570856
50  -0.000007 -0.000014 0.000006  2.272644 -0.000030 1.570865
51  -11.840666 -4.190535 -14.967320  -3.118416 0.045339 -1.542856
52  0.000001 0.000000 -0.000000  0.008153 -0.000259 0.000009
53  -0.000000 0.000001 -0.000000  1.565115 0.043565 -0.106862
54  8.913805 -17.262558 -17.558533  0.903905 -0.464152 -1.845428
55  0.000000 -0.000001 0.000002  0.000000 -0.000000 -0.000002
56  0.000031 0.000027 0.000004  -1.571902 -0.044449 -0.106509
57  12.241508 -13.983134 -27.031748  1.570796 -0.000000 0.000000
58  -19.415333 4.762676 -20.011150  1.570796 -0.000000 0.000000
59  1.055670 -2.056035 -7.248549  1.570796 -0.000000 0.000000
60  -0.004311 0.001230 -0.000371  0.006898 -0.005534 -0.284229
61  -0.576664 9.130513 -5.118018  1.570796 -0.000000 0.000000
62  0.000000 0.000000 0.000000  -0.078727 -3.136056 0.284226
63  0.000000 0.000000 0.000000  1.566359 0.002643 -0.002712
64  -2.664081 -29.590017 0.735216  1.563164 0.018914 1.023239
65  -0.200448 -1.761558 -1.306032  0.000000 -0.000000 0.000000
66  -0.200450 0.213337 26.427568  0.000000 -0.000000 0.000000
67  -0.200450 -0.895508 -0.420854  0.000000 -0.000000 0.000000
68  -0.104051 -4.495923 7.879276  0.000000 -0.000000 0.000000
69  -0.195265 4.332630 -6.347187  0.000000 -0.000000 0.000000
70  -0.194972 -1.133607 6.156294  0.000000 -0.000000 0.000000
71  0.720432 -31.906511 -0.360011  1.563164 0.018914 1.023239
time 7
0  0.000006 0.000000 0.000000  -1.570800 -1.391899 -1.570792
1  -7.289417 4.205430 1.422038  -1.544956 -1.855077 -0.198630
2  6.027517 -0.000321 0.000201  -1.430411 -0.209324 -0.954857
3  11.692109 0.000643 -0.000740  -0.960463 -0.000015 -1.381472
4  11.479970 0.000308 -0.000836  2.985586 0.250881 -0.184554
5  3.859508 -0.142880 -1.192048  -0.458822 0.179490 -0.823593
6  1.312591 0.000010 0.000007  -0.000023 0.000047 -0.377085
7  0.729356 0.000052 0.000048  0.000018 0.000019 -0.181665
8  3.942145 0.046273 -0.431512  -0.146986 0.082518 -0.749104
9  1.539109 0.000083 0.000004  -0.000006 0.000021 -0.185341
10  1.196331 0.000144 0.000030  0.000013 0.000018 -0.368118
11  3.883506 -0.047269 0.431381  0.087091 0.016450 -0.525647
12  1.719572 -0.000029 0.000014  0.000359 0.005507 -0.304031
13  1.209178 0.000092 0.000012  0.000197 0.003085 -0.153783
14  4.085223 -0.082716 1.151041  0.352191 -0.059190 -0.487111
15  1.719448 -0.000012 0.000023  0.000283 0.004061 -0.300520
16  1.099677 0.000049 0.000005  0.000164 0.002573 -0.181881
17  0.971589 -1.283499 0.847609  -1.249321 -0.690539 -0.746786
18  1.789820 -0.000002 -0.000020  -0.000011 0.000912 0.174557
19  1.207016 -0.000011 -0.000042  -0.000109 -0.000011 0.324578
20  5.740637 0.000410 -0.000702  0.291956 0.000003 0.000071
21  11.481007 0.000267 -0.000832  0.290685 0.047403 -0.052631
22  6.027524 -0.000330 0.000203  2.832825 -0.818112 0.844613
23  0.000002 11.692099 -0.000007  -0.958747 -0.411830 -0.764088
24  0.000002 0.000009 -0.000003  -0.091368 -0.000031 1.570739
25  0.000000 -0.000012 -0.000001  0.868957 0.000002 1.570712
26  -7.385672 -7.208842 -1.145849  1.473120 1.855075 -0.198639
27  6.027506 -0.000259 -0.000237  1.330328 0.153939 -0.558627
28  11.691996 0.000243 0.000858  0.162009 0.000045 -1.459983
29  11.480610 -0.000113 0.000848  -0.877327 0.176824 0.042980
30  3.452862 -0.227595 1.051751  0.406972 -0.281773 -0.608989
31  1.312557 0.000026 -0.000003  -0.000002 -0.000045 -0.148961
32  0.729346 0.000063 -0.000027  -0.000028 -0.000012 0.046463
33  3.942047 0.050109 0.430997  0.121277 -0.118787 -0.520714
34  1.539096 0.000011 -0.000000  0.000007 -0.000010 0.042929
35  1.196300 0.000076 -0.000004  -0.000009 -0.000006 -0.140034
36  3.883411 -0.050501 -0.431089  -0.089865 -0.000690 -0.298025
37  1.719565 -0.000079 -0.000003  -0.002289 -0.007626 -0.075726
38  1.209197 0.000035 0.000012  -0.001276 -0.004274 0.074338
39  3.806437 -0.112148 -1.295331  -0.330197 0.136798 -0.257131
40  1.719412 -0.000098 -0.000035  -0.001915 -0.006300 -0.072277
41  1.099674 0.000025 0.000006  -0.001196 -0.004013 0.046405
42  0.866373 -0.355430 -1.353142  1.079795 0.646453 -0.910435
43  1.789780 -0.000010 -0.000044  0.011965 0.001552 -0.110981
44  1.206995 -0.000005 0.000006  0.005321 0.005317 0.007332
45  5.740572 0.000054 0.000724  0.134179 -0.000014 0.000021
46  11.481067 0.000013 0.000919  0.135269 0.020699 -0.019703
47  6.027514 -0.000273 -0.000237  -0.257984 -0.926241 -1.921611
48  0.000000 11.691978 -0.000006  -1.005659 0.453960 0.795121
49  0.000003 0.000001 0.000000  2.434541 -0.000041 1.570856
50  -0.000006 -0.000015 0.000005  2.272644 -0.000030 1.570865
51  -11.949609 -3.922851 -18.710773  -3.057879 0.138871 -1.508723
52  -0.000001 -0.000002 -0.000005  0.008153 -0.000259 0.000009
53  0.000000 0.000000 -0.000001  1.565115 0.043565 -0.106862
54  9.272340 -16.631447 -20.813728  0.846878 -0.258785 -1.821605
55  0.000001 0.000000 0.000002  0.000000 -0.000000 -0.000002
56  0.000032 0.000028 0.000002  -1.571901 -0.044449 -0.106509
57  13.003136 -13.519597 -29.311415  1.570796 -0.000000 0.000000
58  -17.910236 4.026718 -21.337431  1.570796 -0.000000 0.000000
59  1.426353 -2.841573 -7.922645  1.570796 -0.000000 0.000000
60  -0.004311 0.001230 -0.000371  0.006898 -0.005534 -0.284229
61  -1.145853 8.408031 -5.985027  1.570796 -0.000000 0.000000
62  0.000000 0.000000 0.000000  -0.078727 -3.136056 0.284226
63  0.000000 0.000000 0.000000  1.567917 0.001717 -0.001759
64  -2.690983 -34.002350 1.308523  1.566113 0.011607 1.234830
65  -0.200449 -1.761559 -1.306031  0.000000 -0.000000 0.000000
66  -0.200450 0.213337 26.427572  0.000000 -0.000000 0.000000
67  -0.200451 -0.895508 -0.420853  0.000000 -0.000000 0.000000
68  -0.104050 -4.495924 7.879277  0.000000 -0.000000 0.000000
69  -0.195264 4.332630 -6.347187  0.000000 -0.000000 0.000000
70  -0.194972 -1.133607 6.156296  0.000000 -0.000000 0.000000
71  1.104065 -35.547882 0.199673  1.566113 0.011607 1.234830
time 8
0  0.000006 0.000000 0.000000  -1.570800 -1.391899 -1.570792
1  -7.689703 4.888140 1.705444  -1.544956 -1.855077 -0.198630
2  6.027517 -0.000319 0.000200  -1.128662 -0.172702 -0.872222
3  11.692110 0.000643 -0.000739  -0.898046 -0.000008 -1.205634
4  11.480175 0.000368 -0.000717  2.565305 -0.072540 -0.207729
5  3.859509 -0.142878 -1.192050  -0.465959 0.158650 -0.866002
6  1.312590 0.000010 0.000008  -0.000025 0.000046 -0.423938
7  0.729354 0.000053 0.000051  0.000017 0.000020 -0.228518
8  3.942145 0.046274 -0.431513  -0.150647 0.075590 -0.795447
9  1.539110 0.000087 0.000008  -0.000007 0.000021 -0.232051
10  1.196337 0.000144 0.000033  0.000012 0.000019 -0.414971
11  3.883504 -0.047268 0.431382  0.086231 0.020494 -0.572190
12  1.719574 -0.000027 0.000020  0.000102 0.005518 -0.350743
13  1.209178 0.000091 0.000013  0.000053 0.003091 -0.200637
14  4.085225 -0.082715 1.151040  0.353974 -0.046801 -0.520772
15  1.719450 -0.000010 0.000021  0.000093 0.004069 -0.347231
16  1.099674 0.000048 0.000004  0.000044 0.002578 -0.228592
17  0.971589 -1.283499 0.847608  -1.229612 -0.682263 -0.777883
18  1.789820 -0.000005 -0.000019  0.000011 0.000212 0.214889
19  1.207016 -0.000009 -0.000042  -0.000026 -0.000008 0.353625
20  5.740638 0.000412 -0.000704  0.208601 0.000003 0.000071
21  11.481047 0.000279 -0.000806  0.201933 -0.006741 -0.030437
22  6.027525 -0.000328 0.000203  -0.398633 -2.029203 -2.081916
23  0.000002 11.692100 -0.000006  -0.851292 -0.322581 -0.689046
24  0.000004 0.000009 -0.000003  -0.028961 -0.000031 1.570739
25  -0.000000 -0.000012 -0.000001  0.868957 0.000002 1.570712
26  -7.939675 -6.547327 -1.581024  1.473120 1.855075 -0.198639
27  6.027505 -0.000258 -0.000237  1.097651 0.178162 -0.622636
28  11.691991 0.000244 0.000855  0.150695 0.000023 -1.170704
29  11.480260 -0.000218 0.000861  -0.752223 0.209126 -0.089192
30  3.452861 -0.227595 1.051756  0.406972 -0.281773 -0.608989
31  1.312558 0.000029 0.000000  -0.000002 -0.000045 -0.148961
32  0.729347 0.000066 -0.000025  -0.000028 -0.000012 0.046463
33  3.942046 0.050110 0.431000  0.121277 -0.118787 -0.520714
34  1.539096 0.000011 0.000001  0.000007 -0.000010 0.042929
35  1.196297 0.000077 -0.000004  -0.000009 -0.000006 -0.140034
36  3.883411 -0.050502 -0.431084  -0.089865 -0.000690 -0.298025
37  1.719563 -0.000079 -0.000003  -0.002289 -0.007626 -0.075726
38  1.209196 0.000033 0.000012  -0.001276 -0.004274 0.074338
39  3.806436 -0.112147 -1.295325  -0.330197 0.136798 -0.257130
40  1.719412 -0.000099 -0.000037  -0.001915 -0.006300 -0.072277
41  1.099673 0.000025 0.000005  -0.001196 -0.004013 0.046405
42  0.866372 -0.355430 -1.353138  1.079795 0.646453 -0.910435
43  1.789781 -0.000009 -0.000042  0.011965 0.001552 -0.110981
44  1.206996 -0.000008 0.000004  0.005321 0.005317 0.007332
45  5.740572 0.000057 0.000725  0.167628 -0.000014 0.000021
46  11.480997 -0.000007 0.000923  0.160872 0.019828 -0.050699
47  6.027514 -0.000273 -0.000235  -0.436838 -1.138710 -1.792454
48  -0.000003 11.691974 -0.000004  -0.829462 0.305757 0.673252
49  0.000003 0.000000 0.000000  2.423236 -0.000041 1.570856
50  -0.000007 -0.000016 0.000005  2.272644 -0.000030 1.570865
51  -12.029458 -3.354428 -23.384712  0.178962 2.799847 1.680663
52  -0.000000 0.000002 0.000002  0.008153 -0.000259 0.000009
53  -0.000000 0.000001 0.000004  1.565115 0.043565 -0.106862
54  8.794210 -15.671653 -24.752493  0.608534 0.199629 -1.731189
55  0.000001 0.000000 -0.000002  0.000000 -0.000000 -0.000002
56  0.000031 0.000028 -0.000002  -1.571901 -0.044449 -0.106509
57  13.585442 -13.165195 -31.054340  1.570796 -0.000000 0.000000
58  -16.583290 3.430680 -22.417812  1.570796 -0.000000 0.000000
59  1.709759 -3.442159 -8.438027  1.570796 -0.000000 0.000000
60  -0.004311 0.001229 -0.000371  0.006898 -0.005534 -0.284229
61  -1.581028 7.855655 -6.647902  1.570796 -0.000000 0.000000
62  0.000000 0.000000 0.000000  -0.078727 -3.136056 0.284226
63  0.000000 0.000000 0.000000  1.569347 0.000865 -0.000885
64  -2.713138 -37.636040 1.780658  1.568542 0.005588 1.409048
65  -0.200443 -1.761558 -1.306031  0.000000 0.000000 -0.000000
66  -0.200445 0.213337 26.427572  0.000000 0.000000 -0.000000
67  -0.200444 -0.895508 -0.420853  0.000000 0.000000 -0.000000
68  -0.104043 -4.495924 7.879276  0.000000 0.000000 -0.000000
69  -0.195267 4.332630 -6.347187  0.000000 0.000000 -0.000000
70  -0.194973 -1.133607 6.156298  0.000000 0.000000 -0.000000
71  1.290755 -38.493374 0.660642  1.568542 0.005588 1.409048
time 9
0  0.000006 0.000000 0.000000  -1.570800 -1.391899 -1.570792
1  -7.935892 5.308025 1.879746  -1.544956 -1.855077 -0.198630
2  6.027516 -0.000323 0.000199  -0.776999 -0.261164 -0.863074
3  11.692110 0.000643 -0.000739  -0.858685 0.000003 -0.957943
4  11.480854 0.000567 -0.000460  1.995537 -0.250328 -0.077323
5  3.859509 -0.142880 -1.192050  -0.468164 0.151540 -0.880272
6  1.312589 0.000013 0.000008  -0.000026 0.000045 -0.439738
7  0.729354 0.000050 0.000051  0.000017 0.000021 -0.244318
8  3.942143 0.046273 -0.431510  -0.151810 0.073212 -0.811101
9  1.539108 0.000087 0.000005  -0.000007 0.000021 -0.247841
10  1.196334 0.000148 0.000027  0.000011 0.000019 -0.430771
11  3.883505 -0.047268 0.431382  0.085898 0.021851 -0.587925
12  1.719570 -0.000025 0.000014  0.000015 0.005519 -0.366533
13  1.209176 0.000090 0.000012  0.000004 0.003092 -0.216437
14  4.085227 -0.082715 1.151040  0.354468 -0.042725 -0.531804
15  1.719446 -0.000010 0.000022  0.000029 0.004070 -0.363021
16  1.099675 0.000047 0.000008  0.000003 0.002579 -0.244381
17  0.971588 -1.283500 0.847609  -1.222687 -0.679194 -0.788886
18  1.789819 -0.000003 -0.000017  0.000012 -0.000024 0.228522
19  1.207015 -0.000009 -0.000045  0.000002 -0.000008 0.362858
20  5.740639 0.000411 -0.000703  0.110942 0.000003 0.000071
21  11.481186 0.000321 -0.000751  0.087094 -0.029066 -0.011345
22  6.027524 -0.000330 0.000202  -1.296823 -1.842241 -1.146924
23  0.000003 11.692098 -0.000005  -0.693057 -0.211050 -0.570525
24  0.000002 0.000009 0.000001  0.010384 -0.000030 1.570739
25  -0.000001 -0.000011 -0.000000  0.868957 0.000002 1.570712
26  -8.280402 -6.140478 -1.848668  1.473120 1.855075 -0.198639
27  6.027506 -0.000258 -0.000238  0.865089 0.288770 -0.734294
28  11.691994 0.000245 0.000857  0.143719 0.000007 -0.767050
29  11.480732 0.000061 0.000815  -0.578867 0.212224 -0.228635
30  3.452861 -0.227595 1.051757  0.406972 -0.281773 -0.608989
31  1.312561 0.000026 0.000001  -0.000002 -0.000045 -0.148961
32  0.729344 0.000064 -0.000028  -0.000028 -0.000012 0.046463
33  3.942045 0.050109 0.431000  0.121277 -0.118787 -0.520714
34  1.539097 0.000009 0.000000  0.000007 -0.000010 0.042929
35  1.196302 0.000078 -0.000004  -0.000009 -0.000006 -0.140034
36  3.883411 -0.050500 -0.431084  -0.089865 -0.000690 -0.298026
37  1.719564 -0.000081 -0.000005  -0.002289 -0.007626 -0.075726
38  1.209199 0.000037 0.000012  -0.001276 -0.004274 0.074338
39  3.806435 -0.112147 -1.295327  -0.330197 0.136798 -0.257131
40  1.719411 -0.000099 -0.000036  -0.001915 -0.006300 -0.072277
41  1.099673 0.000024 0.000009  -0.001196 -0.004013 0.046405
42  0.866372 -0.355429 -1.353138  1.079795 0.646453 -0.910435
43  1.789779 -0.000010 -0.000041  0.011965 0.001552 -0.110981
44  1.206995 -0.000006 0.000005  0.005321 0.005317 0.007332
45  5.740571 0.000054 0.000725  0.245170 -0.000014 0.000021
46  11.481088 0.000047 0.000911  0.196762 0.009415 -0.082189
47  6.027514 -0.000274 -0.000236  -1.070147 -1.240265 -1.258765
48  -0.000000 11.691976 -0.000007  -0.564659 0.138536 0.469448
49  0.000001 0.000001 0.000001  2.416285 -0.000041 1.570856
50  -0.000007 -0.000015 0.000005  2.272644 -0.000030 1.570865
51  -12.070109 -2.811187 -27.080578  0.274508 2.609991 1.737724
52  -0.000001 0.000000 -0.000000  0.008153 -0.000259 0.000009
53  0.000000 0.000000 0.000004  1.565115 0.043565 -0.106862
54  8.045480 -14.843918 -27.816753  0.363012 0.624343 -1.733838
55  -0.000002 -0.000001 -0.000002  0.000000 -0.000000 -0.000002
56  0.000030 0.000028 -0.000002  -1.571902 -0.044449 -0.106509
57  13.943576 -12.947230 -32.126289  1.570796 -0.000000 0.000000
58  -15.712370 3.059972 -23.092396  1.570796 -0.000000 0.000000
59  1.884062 -3.811535 -8.755003  1.570796 -0.000000 0.000000
60  -0.004311 0.001229 -0.000371  0.006898 -0.005534 -0.284229
61  -1.848672 7.515929 -7.055588  1.570796 -0.000000 0.000000
62  0.000000 0.000000 0.000000  -0.078727 -3.136056 0.284226
63  0.000000 0.000000 0.000000  1.570391 0.000242 -0.000247
64  -2.728171 -40.101753 2.101034  1.570189 0.001505 1.527251
65  -0.200452 -1.761558 -1.306031  -0.000000 0.000000 -0.000000
66  -0.200449 0.213337 26.427574  -0.000000 0.000000 -0.000000
67  -0.200454 -0.895508 -0.420853  -0.000000 0.000000 -0.000000
68  -0.104050 -4.495924 7.879276  -0.000000 0.000000 -0.000000
69  -0.195259 4.332630 -6.347187  -0.000000 0.000000 -0.000000
70  -0.194980 -1.133607 6.156297  -0.000000 0.000000 -0.000000
71  1.347234 -40.476295 0.973469  1.570189 0.001505 1.527251
time 10
0  0.000006 0.000000 0.000000  -1.570800 -1.391899 -1.570792
1  -8.017693 5.447542 1.937662  -1.544956 -1.855077 -0.198630
2  6.027517 -0.000322 0.000199  -0.644297 -0.302593 -0.898167
3  11.692116 0.000644 -0.000739  -0.845444 0.000006 -0.841812
4  11.480869 0.000574 -0.000451  1.773616 -0.242546 -0.016129
5  3.859513 -0.142878 -1.192046  -0.468164 0.151540 -0.880272
6  1.312589 0.000010 0.000008  -0.000026 0.000045 -0.439738
7  0.729353 0.000051 0.000052  0.000017 0.000021 -0.244318
8  3.942147 0.046273 -0.431509  -0.151810 0.073212 -0.811101
9  1.539111 0.000085 0.000007  -0.000007 0.000021 -0.247841
10  1.196336 0.000144 0.000025  0.000011 0.000019 -0.430771
11  3.883511 -0.047268 0.431383  0.085898 0.021851 -0.587925
12  1.719572 -0.000028 0.000016  0.000015 0.005519 -0.366533
13  1.209180 0.000089 0.000010  0.000004 0.003092 -0.216437
14  4.085225 -0.082715 1.151042  0.354468 -0.042725 -0.531804
15  1.719450 -0.000012 0.000022  0.000029 0.004070 -0.363021
16  1.099671 0.000048 0.000006  0.000003 0.002579 -0.244381
17  0.971590 -1.283498 0.847611  -1.222687 -0.679194 -0.788886
18  1.789819 -0.000005 -0.000019  0.000012 -0.000024 0.228522
19  1.207016 -0.000013 -0.000045  0.000002 -0.000008 0.362858
20  5.740638 0.000408 -0.000703  0.070095 0.000003 0.000071
21  11.481186 0.000324 -0.000748  0.044190 -0.026250 -0.006789
22  6.027524 -0.000331 0.000202  -1.753023 -1.878564 -0.707161
23  0.000002 11.692101 -0.000009  -0.615659 -0.165421 -0.509997
24  0.000003 0.000007 -0.000002  0.023617 -0.000031 1.570738
25  -0.000000 -0.000012 -0.000001  0.868957 0.000002 1.570712
26  -8.393617 -6.005292 -1.937599  1.473120 1.855075 -0.198639
27  6.027507 -0.000257 -0.000237  0.763165 0.350920 -0.816794
28  11.691991 0.000244 0.000857  0.141395 -0.000000 -0.547392
29  11.480382 0.000018 0.000821  -0.503860 0.202454 -0.309882
30  3.452858 -0.227595 1.051750  0.406972 -0.281772 -0.608989
31  1.312559 0.000028 -0.000000  -0.000002 -0.000045 -0.148961
32  0.729346 0.000064 -0.000028  -0.000028 -0.000012 0.046463
33  3.942044 0.050108 0.430993  0.121277 -0.118787 -0.520714
34  1.539099 0.000011 0.000000  0.000007 -0.000010 0.042929
35  1.196301 0.000077 -0.000003  -0.000009 -0.000006 -0.140034
36  3.883410 -0.050502 -0.431090  -0.089865 -0.000690 -0.298025
37  1.719564 -0.000077 -0.000001  -0.002289 -0.007626 -0.075726
38  1.209198 0.000034 0.000011  -0.001276 -0.004274 0.074338
39  3.806434 -0.112148 -1.295333  -0.330197 0.136798 -0.257131
40  1.719411 -0.000101 -0.000035  -0.001915 -0.006300 -0.072277
41  1.099674 0.000025 0.000006  -0.001196 -0.004013 0.046405
42  0.866370 -0.355430 -1.353145  1.079795 0.646453 -0.910435
43  1.789778 -0.000010 -0.000042  0.011965 0.001552 -0.110981
44  1.206997 -0.000008 0.000005  0.005321 0.005317 0.007332
45  5.740575 0.000055 0.000723  0.308055 -0.000014 0.000021
46  11.481024 0.000039 0.000914  0.212454 -0.000311 -0.098592
47  6.027514 -0.000273 -0.000236  -1.404938 -1.214845 -0.993559
48  -0.000000 11.691975 -0.000005  -0.409884 0.072127 0.343613
49  0.000004 0.000002 -0.000001  2.413975 -0.000041 1.570856
50  -0.000006 -0.000015 0.000005  2.272644 -0.000030 1.570865
51  -12.080094 -2.607073 -28.354927  0.313880 2.540827 1.764035
52  0.000004 -0.000001 -0.000001  0.008153 -0.000259 0.000009
53  -0.000003 0.000000 -0.000002  1.565115 0.043565 -0.106862
54  7.720896 -14.546185 -28.864317  0.255881 0.766400 -1.766008
55  0.000002 0.000000 -0.000003  0.000000 -0.000000 -0.000002
56  0.000033 0.000029 -0.000001  -1.571901 -0.044449 -0.106509
57  14.062574 -12.874806 -32.482468  1.570796 -0.000000 0.000000
58  -15.417985 2.938832 -23.313402  1.570796 -0.000000 0.000000
59  1.941978 -3.934269 -8.860325  1.570796 -0.000000 0.000000
60  -0.004311 0.001229 -0.000371  0.006898 -0.005534 -0.284229
61  -1.937603 7.403047 -7.191051  1.570796 -0.000000 0.000000
62  0.000000 0.000000 0.000000  -0.078727 -3.136056 0.284226
63  0.000000 0.000000 0.000000  1.570796 -0.000000 0.000000
64  -2.733710 -41.010178 2.219069  1.570796 -0.000000 1.570796
65  -0.200447 -1.761558 -1.306031  0.000000 -0.000000 0.000000
66  -0.200453 0.213337 26.427572  0.000000 -0.000000 0.000000
67  -0.200447 -0.895508 -0.420853  0.000000 -0.000000 0.000000
68  -0.104045 -4.495923 7.879276  0.000000 -0.000000 0.000000
69  -0.195263 4.332630 -6.347187  0.000000 -0.000000 0.000000
70  -0.194973 -1.133607 6.156297  0.000000 -0.000000 0.000000
71  1.353451 -41.205261 1.088728  1.570796 -0.000000 1.570796
end
