version 1
nodes
0 "ValveBiped.Bip01_Spine4" -1
1 "ValveBiped.Bip01_L_Clavicle" 0
2 "ValveBiped.Bip01_L_UpperArm" 1
3 "ValveBiped.Bip01_L_Forearm" 2
4 "ValveBiped.Bip01_L_Hand" 3
5 "ValveBiped.Bip01_L_Finger4" 4
6 "ValveBiped.Bip01_L_Finger41" 5
7 "ValveBiped.Bip01_L_Finger42" 6
8 "ValveBiped.Bip01_L_Finger3" 4
9 "ValveBiped.Bip01_L_Finger31" 8
10 "ValveBiped.Bip01_L_Finger32" 9
11 "ValveBiped.Bip01_L_Finger2" 4
12 "ValveBiped.Bip01_L_Finger21" 11
13 "ValveBiped.Bip01_L_Finger22" 12
14 "ValveBiped.Bip01_L_Finger1" 4
15 "ValveBiped.Bip01_L_Finger11" 14
16 "ValveBiped.Bip01_L_Finger12" 15
17 "ValveBiped.Bip01_L_Finger0" 4
18 "ValveBiped.Bip01_L_Finger01" 17
19 "ValveBiped.Bip01_L_Finger02" 18
20 "ValveBiped.Bip01_L_Ulna" 3
21 "ValveBiped.Bip01_L_Wrist" 3
22 "rig_l_upperarm" 1
23 "rig_l_forearm" 22
24 "rig_d_l_forearm" 23
25 "rig_d_l_upperarm" 22
26 "ValveBiped.Bip01_R_Clavicle" 0
27 "ValveBiped.Bip01_R_UpperArm" 26
28 "ValveBiped.Bip01_R_Forearm" 27
29 "ValveBiped.Bip01_R_Hand" 28
30 "ValveBiped.Bip01_R_Finger4" 29
31 "ValveBiped.Bip01_R_Finger41" 30
32 "ValveBiped.Bip01_R_Finger42" 31
33 "ValveBiped.Bip01_R_Finger3" 29
34 "ValveBiped.Bip01_R_Finger31" 33
35 "ValveBiped.Bip01_R_Finger32" 34
36 "ValveBiped.Bip01_R_Finger2" 29
37 "ValveBiped.Bip01_R_Finger21" 36
38 "ValveBiped.Bip01_R_Finger22" 37
39 "ValveBiped.Bip01_R_Finger1" 29
40 "ValveBiped.Bip01_R_Finger11" 39
41 "ValveBiped.Bip01_R_Finger12" 40
42 "ValveBiped.Bip01_R_Finger0" 29
43 "ValveBiped.Bip01_R_Finger01" 42
44 "ValveBiped.Bip01_R_Finger02" 43
45 "ValveBiped.Bip01_R_Ulna" 28
46 "ValveBiped.Bip01_R_Wrist" 28
47 "rig_r_upperarm" 26
48 "rig_r_forearm" 47
49 "rig_d_r_forearm" 48
50 "rig_d_r_upperarm" 47
51 "rig_r_hand" -1
52 "rig_d_r_hand" 51
53 "rig_d_r_wrist" 52
54 "rig_l_hand" -1
55 "rig_d_l_hand" 54
56 "rig_d_l_wrist" 54
57 "rig_l_pole" -1
58 "rig_r_pole" -1
59 "rig_l_clavicle" -1
60 "rig_d_l_clavicle" 59
61 "rig_r_clavicle" -1
62 "rig_d_r_clavicle" 61
63 "Camera" -1
64 "body" -1
65 "trigger" 64
66 "barrel" 64
67 "bulletdoor" 64
68 "pump" 64
69 "bolt" 68
70 "bullet2" 64
71 "bullet1" -1
end
skeleton
time 0
0  0.000006 0.000000 0.000000  -1.570800 -1.391899 -1.570792
1  -4.327822 -0.845730 -0.674796  -1.544956 -1.855077 -0.198630
2  6.027522 -0.000325 0.000193  -1.083976 -1.086123 -1.027963
3  11.692108 0.000643 -0.000739  -1.361397 -0.000017 -1.403543
4  11.479845 0.000598 -0.000715  1.250847 -0.650183 0.182922
5  3.859507 -0.142880 -1.192050  -0.550885 -0.255832 -1.866282
6  1.312589 0.000011 0.000008  -0.134281 -0.007565 -0.192402
7  0.729355 0.000053 0.000049  -0.007819 -0.009377 -0.049785
8  3.942143 0.046273 -0.431512  -0.463378 0.160456 -1.247694
9  1.539111 0.000084 0.000004  -0.004274 -0.078040 -1.047896
10  1.196334 0.000145 0.000031  0.008873 0.001422 -0.157248
11  3.883504 -0.047270 0.431381  -0.162351 0.500530 -0.533043
12  1.719573 -0.000026 0.000016  0.063764 -0.114983 -1.565865
13  1.209177 0.000092 0.000011  -0.006409 0.000351 -0.056241
14  4.085222 -0.082717 1.151040  0.170123 0.692306 0.093057
15  1.719448 -0.000012 0.000022  0.018421 -0.005135 -1.015982
16  1.099674 0.000049 0.000006  -0.080608 0.037327 -1.435666
17  0.971586 -1.283500 0.847609  -0.978328 -0.625346 -0.310208
18  1.789819 -0.000003 -0.000018  0.000998 -0.014468 0.721477
19  1.207016 -0.000012 -0.000044  0.001593 -0.000026 -0.111145
20  5.740637 0.000410 -0.000703  -0.102302 0.000003 0.000070
21  11.480977 0.000331 -0.000801  -0.044067 -0.113656 0.004137
22  6.027525 -0.000329 0.000203  1.764698 -0.447139 1.687268
23  0.000003 11.692097 -0.000007  -0.972005 -0.423545 -0.772959
24  0.000002 0.000008 -0.000002  -0.492302 -0.000030 1.570739
25  -0.000000 -0.000012 -0.000001  0.868957 0.000002 1.570712
26  -3.286773 -12.103185 2.073871  1.473120 1.855075 -0.198639
27  6.027505 -0.000261 -0.000229  1.585709 0.568278 -0.379382
28  11.691992 0.000241 0.000857  0.245671 0.000078 -1.922706
29  11.478601 -0.001216 0.001154  -0.916342 0.193138 0.984729
30  3.452862 -0.227595 1.051754  0.877464 -0.056173 -2.075854
31  1.312559 0.000025 0.000000  -0.015677 -0.060057 -0.392348
32  0.729344 0.000065 -0.000027  0.007919 -0.008125 -0.675163
33  3.942046 0.050109 0.430997  0.524085 -0.097015 -1.851522
34  1.539097 0.000010 -0.000000  -0.012992 -0.051146 -0.650980
35  1.196299 0.000076 -0.000004  0.004319 -0.002068 -0.950551
36  3.883411 -0.050502 -0.431087  0.271728 -0.277378 -1.402722
37  1.719564 -0.000079 -0.000003  -0.025734 -0.006032 -1.456462
38  1.209197 0.000036 0.000011  0.000939 -0.002812 -0.276849
39  3.806436 -0.112147 -1.295330  -0.020304 -0.262237 -0.309884
40  1.719412 -0.000099 -0.000035  0.041180 0.008050 -0.151253
41  1.099674 0.000025 0.000007  -0.002414 -0.004342 -1.231569
42  0.866372 -0.355430 -1.353142  1.308181 0.166838 -0.740879
43  1.789780 -0.000009 -0.000042  0.032550 0.123016 0.037179
44  1.206996 -0.000006 0.000005  0.000293 -0.001887 1.285959
45  5.740571 0.000054 0.000723  0.185397 -0.000014 0.000021
46  11.480663 -0.000208 0.000980  0.112610 0.070813 0.164810
47  6.027514 -0.000273 -0.000237  -0.690303 -0.563956 -1.534549
48  -0.000001 11.691975 -0.000008  -1.278420 0.724802 0.943328
49  0.000004 -0.000001 -0.000000  2.518198 -0.000041 1.570856
50  -0.000006 -0.000015 0.000005  2.272644 -0.000030 1.570865
51  -4.015676 -0.734508 -4.067778  -0.121995 3.020127 1.537884
52  0.000000 -0.000000 0.000000  0.008153 -0.000259 0.000009
53  0.000000 0.000000 -0.000001  1.565115 0.043565 -0.106862
54  -0.773287 -15.091065 -4.807849  -0.934859 -0.075665 -1.946360
55  -0.000002 -0.000001 0.000000  0.000000 -0.000000 -0.000002
56  0.000029 0.000028 0.000001  -1.571901 -0.044449 -0.106509
57  8.694838 -16.141689 -16.416052  1.570796 -0.000000 0.000000
58  -19.213562 7.451548 -15.500427  1.570796 -0.000000 0.000000
59  -0.670483 1.601972 -4.109488  1.570796 -0.000000 0.000000
60  -0.004311 0.001230 -0.000371  0.006898 -0.005534 -0.284229
61  2.073871 12.494887 -1.080626  1.570796 -0.000000 0.000000
62  0.000000 0.000000 0.000000  -0.078727 -3.136056 0.284226
63  -2.746032 -1.210788 -1.134430  1.570796 -0.000000 0.000000
64  -2.535900 -8.566546 -1.996421  1.570796 -0.000000 0.000000
65  -0.200448 -1.761558 -1.306031  0.156716 -0.009504 -0.001907
66  -0.200449 0.213337 26.427570  0.000000 -0.000000 0.000000
67  -0.200449 -0.895508 -0.420853  0.000000 -0.000000 0.000000
68  -0.104048 -4.495923 7.879277  0.000000 -0.000000 0.000000
69  -0.195264 4.332630 -6.347187  0.000000 -0.000000 0.000000
70  -0.194973 -1.133607 6.156297  0.000000 -0.000000 0.000000
71  -2.730981 -12.653707 -3.126761  1.570796 -0.000000 0.000000
time 1
0  0.000006 0.000000 0.000000  -1.570800 -1.391899 -1.570792
1  -4.327822 -0.845730 -0.674796  -1.544956 -1.855077 -0.198630
2  6.027522 -0.000325 0.000193  -1.027626 -1.082346 -1.034466
3  11.692108 0.000643 -0.000738  -1.361402 -0.000024 -1.524051
4  11.480268 0.000634 -0.000547  1.123801 -0.701048 0.113254
5  3.859508 -0.142880 -1.192049  -0.550886 -0.255832 -1.866282
6  1.312590 0.000012 0.000009  -0.134281 -0.007565 -0.192402
7  0.729354 0.000054 0.000051  -0.007819 -0.009377 -0.049785
8  3.942142 0.046273 -0.431512  -0.463378 0.160456 -1.247694
9  1.539111 0.000085 0.000005  -0.004274 -0.078040 -1.047896
10  1.196334 0.000144 0.000028  0.008873 0.001422 -0.157248
11  3.883505 -0.047269 0.431382  -0.162351 0.500530 -0.533043
12  1.719572 -0.000027 0.000015  0.063764 -0.114983 -1.565865
13  1.209179 0.000092 0.000011  -0.006409 0.000351 -0.056241
14  4.085221 -0.082716 1.151040  0.170123 0.692306 0.093057
15  1.719450 -0.000012 0.000022  0.018421 -0.005135 -1.015982
16  1.099675 0.000048 0.000006  -0.080608 0.037327 -1.435666
17  0.971588 -1.283499 0.847609  -0.949434 -0.683200 -0.354152
18  1.789819 -0.000003 -0.000018  -0.001353 -0.019676 0.890297
19  1.207015 -0.000012 -0.000044  0.002147 -0.000104 -0.069767
20  5.740637 0.000410 -0.000702  -0.151415 0.000003 0.000071
21  11.481062 0.000339 -0.000766  -0.068998 -0.123587 -0.019510
22  6.027525 -0.000329 0.000203  1.739270 -0.460783 1.741730
23  0.000003 11.692098 -0.000006  -1.043695 -0.489326 -0.819188
24  0.000004 0.000009 -0.000000  -0.492302 -0.000031 1.570739
25  -0.000000 -0.000011 -0.000001  0.868957 0.000002 1.570712
26  -3.286773 -12.103185 2.073871  1.473120 1.855075 -0.198639
27  6.027505 -0.000260 -0.000230  1.598001 0.514041 -0.377104
28  11.691993 0.000240 0.000856  0.245670 0.000090 -2.075236
29  11.479876 -0.000500 0.000976  -1.041545 0.264349 1.108801
30  3.452862 -0.227595 1.051754  0.877464 -0.056173 -2.075854
31  1.312558 0.000025 -0.000000  -0.015677 -0.060057 -0.392348
32  0.729345 0.000065 -0.000027  0.007919 -0.008125 -0.675163
33  3.942046 0.050109 0.430997  0.524085 -0.097015 -1.851522
34  1.539097 0.000010 0.000000  -0.012992 -0.051146 -0.650980
35  1.196300 0.000075 -0.000004  0.004319 -0.002069 -0.950552
36  3.883411 -0.050502 -0.431087  0.271728 -0.277378 -1.402722
37  1.719563 -0.000080 -0.000004  -0.025734 -0.006032 -1.456462
38  1.209197 0.000035 0.000011  0.000939 -0.002812 -0.276849
39  3.806436 -0.112148 -1.295330  -0.020304 -0.262237 -0.309884
40  1.719412 -0.000099 -0.000034  0.041180 0.008049 -0.151253
41  1.099674 0.000024 0.000007  -0.002414 -0.004342 -1.231569
42  0.866372 -0.355430 -1.353142  1.308181 0.166838 -0.740879
43  1.789779 -0.000009 -0.000043  0.032550 0.123016 0.037179
44  1.206996 -0.000006 0.000005  0.000293 -0.001887 1.285959
45  5.740572 0.000055 0.000724  0.175649 -0.000014 0.000021
46  11.480920 -0.000064 0.000945  0.079927 0.077790 0.190198
47  6.027514 -0.000273 -0.000237  -0.626044 -0.575112 -1.573266
48  -0.000001 11.691975 -0.000007  -1.371642 0.820273 0.976751
49  0.000004 -0.000001 -0.000000  2.518198 -0.000041 1.570856
50  -0.000007 -0.000015 0.000005  2.272644 -0.000030 1.570865
51  -3.880338 0.719256 -3.677853  2.864966 0.087698 -1.669120
52  0.000000 -0.000000 0.000000  0.008153 -0.000259 0.000009
53  0.000000 0.000000 0.000000  1.565115 0.043565 -0.106862
54  -1.472122 -13.795082 -4.518122  -1.070587 -0.157059 -1.979800
55  -0.000000 0.000000 -0.000000  0.000000 -0.000000 -0.000002
56  0.000029 0.000029 0.000001  -1.571901 -0.044449 -0.106509
57  8.694838 -16.141689 -16.416052  1.570796 -0.000000 0.000000
58  -19.213562 7.451548 -15.500427  1.570796 -0.000000 0.000000
59  -0.670483 1.601972 -4.109488  1.570796 -0.000000 0.000000
60  -0.004311 0.001230 -0.000371  0.006898 -0.005534 -0.284229
61  2.073871 12.494887 -1.080626  1.570796 -0.000000 0.000000
62  0.000000 0.000000 0.000000  -0.078727 -3.136056 0.284226
63  -2.746032 -1.210788 -1.134430  1.570796 -0.006383 0.000000
64  -2.466767 -7.135622 -1.647137  1.543207 0.155025 -0.051378
65  -0.200449 -1.761558 -1.306032  0.156716 -0.009504 -0.001907
66  -0.205811 0.213337 21.764090  -0.000000 -0.000000 -0.000000
67  -0.200449 -0.895508 -0.420853  -0.000000 -0.000000 -0.000000
68  -0.104047 -4.495923 7.879276  -0.000000 -0.000000 -0.000000
69  -0.195264 4.332630 -9.795807  -0.000000 0.000000 0.087266
70  -0.194972 -1.133607 6.156297  -0.000000 -0.000000 -0.000000
71  -3.027522 -11.229012 -2.621979  1.543207 0.155025 -0.051378
time 2
0  0.000006 0.000000 0.000000  -1.570800 -1.391899 -1.570792
1  -4.327822 -0.845730 -0.674796  -1.544956 -1.855077 -0.198630
2  6.027522 -0.000325 0.000193  -1.074419 -1.080359 -1.024312
3  11.692107 0.000645 -0.000739  -1.361402 -0.000024 -1.526132
4  11.480253 0.000632 -0.000556  1.217752 -0.707194 0.139401
5  3.859509 -0.142880 -1.192049  -0.550886 -0.255832 -1.866282
6  1.312590 0.000013 0.000007  -0.134281 -0.007565 -0.192402
7  0.729353 0.000053 0.000047  -0.007819 -0.009377 -0.049785
8  3.942142 0.046273 -0.431512  -0.463378 0.160456 -1.247694
9  1.539111 0.000082 0.000004  -0.004274 -0.078040 -1.047896
10  1.196332 0.000146 0.000031  0.008873 0.001422 -0.157248
11  3.883503 -0.047269 0.431381  -0.162351 0.500530 -0.533043
12  1.719573 -0.000026 0.000016  0.063764 -0.114983 -1.565865
13  1.209178 0.000092 0.000013  -0.006409 0.000350 -0.056241
14  4.085222 -0.082715 1.151041  0.170122 0.692306 0.093057
15  1.719448 -0.000011 0.000021  0.018421 -0.005135 -1.015982
16  1.099675 0.000049 0.000004  -0.080608 0.037327 -1.435667
17  0.971586 -1.283499 0.847609  -0.956306 -0.670771 -0.343836
18  1.789820 -0.000003 -0.000018  -0.000723 -0.018619 0.851063
19  1.207016 -0.000012 -0.000044  0.002032 -0.000085 -0.078755
20  5.740638 0.000410 -0.000704  -0.132440 0.000003 0.000070
21  11.481059 0.000338 -0.000769  -0.050369 -0.124414 -0.008250
22  6.027525 -0.000329 0.000203  1.762781 -0.454230 1.700197
23  0.000002 11.692099 -0.000006  -1.044924 -0.490487 -0.819954
24  0.000004 0.000009 -0.000001  -0.492302 -0.000030 1.570739
25  -0.000000 -0.000011 -0.000001  0.868957 0.000002 1.570712
26  -3.286773 -12.103185 2.073871  1.473120 1.855075 -0.198639
27  6.027505 -0.000260 -0.000230  1.577103 0.498794 -0.382443
28  11.691991 0.000241 0.000856  0.245670 0.000088 -2.053353
29  11.480096 -0.000360 0.000941  -0.977905 0.268108 1.024211
30  3.452862 -0.227595 1.051755  0.877464 -0.056173 -2.075854
31  1.312558 0.000025 0.000000  -0.015677 -0.060057 -0.392348
32  0.729344 0.000065 -0.000027  0.007919 -0.008126 -0.675163
33  3.942046 0.050108 0.430997  0.524085 -0.097015 -1.851522
34  1.539097 0.000010 0.000000  -0.012992 -0.051146 -0.650980
35  1.196299 0.000076 -0.000004  0.004319 -0.002069 -0.950552
36  3.883411 -0.050502 -0.431087  0.271728 -0.277378 -1.402722
37  1.719564 -0.000078 -0.000004  -0.025734 -0.006032 -1.456462
38  1.209197 0.000036 0.000011  0.000939 -0.002812 -0.276849
39  3.806436 -0.112148 -1.295330  -0.020304 -0.262237 -0.309884
40  1.719412 -0.000100 -0.000034  0.041180 0.008049 -0.151253
41  1.099673 0.000025 0.000007  -0.002414 -0.004342 -1.231569
42  0.866372 -0.355431 -1.353142  1.308181 0.166838 -0.740879
43  1.789779 -0.000009 -0.000042  0.032551 0.123016 0.037179
44  1.206997 -0.000006 0.000005  0.000293 -0.001887 1.285959
45  5.740571 0.000056 0.000724  0.176690 -0.000014 0.000021
46  11.480963 -0.000036 0.000937  0.093155 0.080690 0.170666
47  6.027514 -0.000273 -0.000237  -0.617108 -0.597719 -1.573412
48  -0.000002 11.691975 -0.000008  -1.357985 0.806444 0.972546
49  0.000003 -0.000002 0.000001  2.518198 -0.000041 1.570856
50  -0.000007 -0.000015 0.000004  2.272644 -0.000030 1.570865
51  -3.993009 0.537374 -4.054008  2.945298 0.064142 -1.631891
52  0.000000 -0.000000 -0.000000  0.008153 -0.000259 0.000009
53  -0.000000 -0.000000 0.000000  1.565115 0.043565 -0.106862
54  -1.093324 -13.909879 -4.254687  -0.986124 -0.154184 -1.961767
55  0.000000 -0.000000 0.000000  0.000000 -0.000000 -0.000002
56  0.000031 0.000029 0.000001  -1.571901 -0.044449 -0.106509
57  8.694838 -16.141689 -16.416052  1.570796 -0.000000 0.000000
58  -19.213562 7.451548 -15.500427  1.570796 -0.000000 0.000000
59  -0.670483 1.601972 -4.109488  1.570796 -0.000000 0.000000
60  -0.004311 0.001230 -0.000371  0.006898 -0.005534 -0.284229
61  2.073871 12.494887 -1.080626  1.570796 -0.000000 0.000000
62  0.000000 0.000000 0.000000  -0.078727 -3.136056 0.284226
63  -2.746032 -1.210788 -1.134430  1.570796 -0.004099 0.000000
64  -2.508559 -7.206570 -1.677278  1.516121 0.075986 -0.023370
65  -0.200448 -1.761558 -1.306032  0.156716 -0.009504 -0.001907
66  -0.205810 0.213337 21.764093  0.000000 -0.000000 -0.000000
67  -0.200448 -0.895508 -0.420853  0.000000 -0.000000 -0.000000
68  -0.104047 -4.495924 7.879276  0.000000 -0.000000 -0.000000
69  -0.195264 4.332630 -9.795806  0.000000 -0.000000 -0.000000
70  -0.194972 -1.133607 6.156297  0.000000 -0.000000 -0.000000
71  -2.868537 -11.342110 -2.565154  1.516121 0.075986 -0.023370
time 3
0  0.000006 0.000000 0.000000  -1.570800 -1.391899 -1.570792
1  -4.327822 -0.845730 -0.674796  -1.544956 -1.855077 -0.198630
2  6.027522 -0.000325 0.000193  -1.115427 -1.066566 -1.005172
3  11.692107 0.000643 -0.000739  -1.361402 -0.000024 -1.529673
4  11.480223 0.000627 -0.000575  1.279417 -0.729329 0.181278
5  3.859509 -0.142879 -1.192049  -0.550886 -0.255832 -1.866282
6  1.312589 0.000011 0.000006  -0.134281 -0.007565 -0.192402
7  0.729355 0.000054 0.000049  -0.007819 -0.009377 -0.049785
8  3.942142 0.046273 -0.431512  -0.463378 0.160456 -1.247694
9  1.539111 0.000085 0.000005  -0.004274 -0.078040 -1.047896
10  1.196332 0.000145 0.000030  0.008873 0.001422 -0.157248
11  3.883505 -0.047269 0.431381  -0.162351 0.500530 -0.533043
12  1.719573 -0.000027 0.000015  0.063764 -0.114983 -1.565865
13  1.209181 0.000092 0.000011  -0.006409 0.000351 -0.056241
14  4.085222 -0.082715 1.151040  0.170123 0.692306 0.093057
15  1.719450 -0.000011 0.000021  0.018421 -0.005135 -1.015982
16  1.099675 0.000048 0.000007  -0.080608 0.037327 -1.435666
17  0.971588 -1.283499 0.847609  -0.965679 -0.652608 -0.329542
18  1.789818 -0.000004 -0.000018  0.000097 -0.017043 0.795896
19  1.207017 -0.000012 -0.000043  0.001864 -0.000060 -0.091775
20  5.740637 0.000411 -0.000703  -0.116375 0.000003 0.000071
21  11.481052 0.000337 -0.000772  -0.036320 -0.128720 0.003362
22  6.027525 -0.000329 0.000203  1.789045 -0.458353 1.671722
23  0.000002 11.692099 -0.000007  -1.047016 -0.492466 -0.821253
24  0.000003 0.000009 -0.000002  -0.492302 -0.000031 1.570739
25  -0.000001 -0.000011 -0.000001  0.868957 0.000002 1.570712
26  -3.286773 -12.103185 2.073871  1.473120 1.855075 -0.198639
27  6.027505 -0.000260 -0.000230  1.574509 0.498634 -0.383054
28  11.691993 0.000240 0.000857  0.245670 0.000086 -2.030006
29  11.480332 -0.000203 0.000900  -0.910646 0.232357 0.981663
30  3.452862 -0.227594 1.051755  0.877464 -0.056173 -2.075854
31  1.312558 0.000026 -0.000000  -0.015677 -0.060057 -0.392348
32  0.729345 0.000066 -0.000027  0.007919 -0.008125 -0.675163
33  3.942046 0.050109 0.430997  0.524085 -0.097016 -1.851522
34  1.539097 0.000010 0.000000  -0.012992 -0.051146 -0.650980
35  1.196299 0.000075 -0.000003  0.004319 -0.002068 -0.950551
36  3.883412 -0.050501 -0.431087  0.271728 -0.277378 -1.402722
37  1.719564 -0.000079 -0.000003  -0.025734 -0.006032 -1.456462
38  1.209197 0.000036 0.000012  0.000939 -0.002812 -0.276849
39  3.806436 -0.112147 -1.295330  -0.020304 -0.262237 -0.309884
40  1.719413 -0.000099 -0.000035  0.041180 0.008049 -0.151253
41  1.099674 0.000025 0.000007  -0.002414 -0.004342 -1.231569
42  0.866372 -0.355430 -1.353142  1.308181 0.166838 -0.740879
43  1.789779 -0.000009 -0.000042  0.032550 0.123016 0.037179
44  1.206996 -0.000006 0.000005  0.000293 -0.001887 1.285959
45  5.740572 0.000056 0.000723  0.187213 -0.000014 0.000021
46  11.481011 -0.000006 0.000929  0.109935 0.078099 0.161619
47  6.027514 -0.000273 -0.000237  -0.617953 -0.599894 -1.572306
48  -0.000001 11.691975 -0.000007  -1.343537 0.791735 0.967829
49  0.000002 0.000001 -0.000000  2.518198 -0.000041 1.570856
50  -0.000007 -0.000015 0.000005  2.272644 -0.000030 1.570865
51  -4.091227 0.322477 -4.185793  3.023993 0.075945 -1.594523
52  0.000000 -0.000000 0.000000  0.008153 -0.000259 0.000009
53  0.000000 0.000000 0.000000  1.565115 0.043565 -0.106862
54  -0.721972 -14.023740 -4.260747  -0.915308 -0.117048 -1.939489
55  0.000002 -0.000000 -0.000000  0.000000 -0.000000 -0.000002
56  0.000032 0.000029 0.000001  -1.571901 -0.044449 -0.106509
57  8.694838 -16.141689 -16.416052  1.570796 -0.000000 0.000000
58  -19.213562 7.451548 -15.500427  1.570796 -0.000000 0.000000
59  -0.670483 1.601972 -4.109488  1.570796 -0.000000 0.000000
60  -0.004311 0.001230 -0.000371  0.006898 -0.005534 -0.284229
61  2.073871 12.494887 -1.080626  1.570796 -0.000000 0.000000
62  0.000000 0.000000 0.000000  -0.078727 -3.136056 0.284226
63  -2.746032 -1.210788 -1.134430  1.570796 0.000143 0.000000
64  -2.550351 -7.393615 -1.755011  1.525157 -0.002882 0.008818
65  -0.200448 -1.761559 -1.306032  0.156716 -0.009504 -0.001907
66  -0.205253 0.213337 24.095831  -0.000000 0.000000 0.000000
67  -0.200449 -0.895508 -0.420853  -0.000000 0.000000 0.000000
68  -0.104047 -4.495923 7.879276  -0.000000 0.000000 0.000000
69  -0.195264 4.332631 -9.795806  0.000000 0.000000 -0.087266
70  -0.194973 -1.133607 6.156297  -0.000000 0.000000 0.000000
71  -2.706249 -11.529624 -2.698261  1.525157 -0.002882 0.008818
time 4
0  0.000006 0.000000 0.000000  -1.570800 -1.391899 -1.570792
1  -4.327822 -0.845730 -0.674796  -1.544956 -1.855077 -0.198630
2  6.027522 -0.000325 0.000193  -1.093968 -1.067409 -1.008751
3  11.692107 0.000644 -0.000739  -1.361401 -0.000022 -1.500359
4  11.480463 0.000660 -0.000429  1.242330 -0.706898 0.170764
5  3.859509 -0.142879 -1.192050  -0.550886 -0.255832 -1.866282
6  1.312589 0.000011 0.000008  -0.134281 -0.007565 -0.192402
7  0.729355 0.000053 0.000048  -0.007819 -0.009377 -0.049785
8  3.942144 0.046273 -0.431513  -0.463378 0.160456 -1.247694
9  1.539110 0.000085 0.000005  -0.004274 -0.078040 -1.047896
10  1.196331 0.000147 0.000030  0.008873 0.001422 -0.157248
11  3.883505 -0.047269 0.431381  -0.162351 0.500530 -0.533043
12  1.719573 -0.000027 0.000014  0.063764 -0.114983 -1.565865
13  1.209179 0.000091 0.000011  -0.006409 0.000350 -0.056241
14  4.085223 -0.082716 1.151040  0.170123 0.692306 0.093057
15  1.719450 -0.000011 0.000023  0.018421 -0.005135 -1.015982
16  1.099675 0.000047 0.000005  -0.080608 0.037327 -1.435667
17  0.971588 -1.283499 0.847609  -0.969927 -0.643593 -0.322996
18  1.789820 -0.000003 -0.000018  0.000442 -0.016244 0.770719
19  1.207014 -0.000012 -0.000044  0.001780 -0.000048 -0.098166
20  5.740638 0.000411 -0.000702  -0.118460 0.000003 0.000070
21  11.481099 0.000345 -0.000744  -0.044324 -0.124678 -0.000565
22  6.027525 -0.000329 0.000203  1.778236 -0.462128 1.691738
23  0.000003 11.692098 -0.000007  -1.029682 -0.476161 -0.810398
24  0.000004 0.000009 -0.000001  -0.492302 -0.000031 1.570739
25  -0.000000 -0.000011 -0.000001  0.868957 0.000002 1.570712
26  -3.286773 -12.103185 2.073871  1.473120 1.855075 -0.198639
27  6.027505 -0.000260 -0.000230  1.581203 0.515853 -0.381299
28  11.691992 0.000242 0.000857  0.245671 0.000085 -2.011000
29  11.480509 -0.000080 0.000871  -0.931613 0.221312 1.004551
30  3.452861 -0.227595 1.051754  0.877464 -0.056173 -2.075854
31  1.312558 0.000025 -0.000000  -0.015677 -0.060057 -0.392348
32  0.729345 0.000065 -0.000027  0.007919 -0.008125 -0.675163
33  3.942046 0.050110 0.430997  0.524085 -0.097015 -1.851522
34  1.539097 0.000009 0.000000  -0.012992 -0.051146 -0.650980
35  1.196299 0.000076 -0.000004  0.004319 -0.002069 -0.950552
36  3.883412 -0.050501 -0.431087  0.271728 -0.277378 -1.402722
37  1.719564 -0.000079 -0.000004  -0.025734 -0.006032 -1.456462
38  1.209197 0.000036 0.000011  0.000939 -0.002812 -0.276849
39  3.806436 -0.112147 -1.295329  -0.020304 -0.262237 -0.309884
40  1.719412 -0.000099 -0.000034  0.041180 0.008049 -0.151253
41  1.099673 0.000024 0.000007  -0.002414 -0.004342 -1.231569
42  0.866372 -0.355430 -1.353142  1.308181 0.166838 -0.740879
43  1.789779 -0.000009 -0.000042  0.032550 0.123016 0.037179
44  1.206997 -0.000006 0.000006  0.000293 -0.001887 1.285959
45  5.740571 0.000055 0.000724  0.185252 -0.000014 0.000021
46  11.481045 0.000020 0.000924  0.106657 0.075485 0.167606
47  6.027514 -0.000273 -0.000237  -0.634565 -0.588010 -1.564506
48  -0.000002 11.691975 -0.000008  -1.331859 0.779797 0.963819
49  0.000004 0.000000 -0.000000  2.518198 -0.000041 1.570856
50  -0.000008 -0.000015 0.000005  2.272644 -0.000030 1.570865
51  -4.062370 0.123118 -4.091126  2.998659 0.096271 -1.607147
52  0.000000 -0.000000 -0.000000  0.008153 -0.000259 0.000009
53  0.000000 0.000000 0.000000  1.565115 0.043565 -0.106862
54  -0.849686 -14.251854 -4.549765  -0.946096 -0.106370 -1.946502
55  0.000000 0.000000 0.000000  0.000000 -0.000000 -0.000002
56  0.000030 0.000029 0.000001  -1.571901 -0.044449 -0.106509
57  8.694838 -16.141689 -16.416052  1.570796 -0.000000 0.000000
58  -19.213562 7.451548 -15.500427  1.570796 -0.000000 0.000000
59  -0.670483 1.601972 -4.109488  1.570796 -0.000000 0.000000
60  -0.004311 0.001230 -0.000371  0.006898 -0.005534 -0.284229
61  2.073871 12.494887 -1.080626  1.570796 -0.000000 0.000000
62  0.000000 0.000000 0.000000  -0.078727 -3.136056 0.284226
63  -2.746032 -1.210788 -1.134430  1.570796 0.002427 0.000000
64  -2.545056 -7.658058 -1.861298  1.546321 0.021659 -0.001428
65  -0.200448 -1.761558 -1.306031  0.156716 -0.009504 -0.001907
66  -0.203923 0.213337 26.427576  -0.000000 -0.000000 -0.000000
67  -0.200449 -0.895508 -0.420853  -0.000000 -0.000000 -0.000000
68  -0.104047 -4.495924 7.879277  -0.000000 -0.000000 -0.000000
69  -0.195264 4.332631 -9.795805  0.000000 -0.000000 -0.043633
70  -0.194973 -1.133607 6.156296  -0.000000 -0.000000 -0.000000
71  -2.768274 -11.771339 -2.886811  1.546321 0.021659 -0.001428
time 5
0  0.000006 0.000000 0.000000  -1.570800 -1.391899 -1.570792
1  -4.327822 -0.845730 -0.674796  -1.544956 -1.855077 -0.198630
2  6.027522 -0.000325 0.000193  -1.063824 -1.069617 -1.015059
3  11.692108 0.000643 -0.000738  -1.361399 -0.000020 -1.465467
4  11.480758 0.000700 -0.000245  1.187515 -0.681570 0.148084
5  3.859509 -0.142881 -1.192048  -0.550885 -0.255832 -1.866282
6  1.312591 0.000010 0.000007  -0.134281 -0.007565 -0.192402
7  0.729354 0.000055 0.000049  -0.007819 -0.009377 -0.049785
8  3.942143 0.046272 -0.431512  -0.463378 0.160456 -1.247694
9  1.539110 0.000084 0.000005  -0.004274 -0.078040 -1.047896
10  1.196333 0.000146 0.000032  0.008873 0.001422 -0.157248
11  3.883503 -0.047270 0.431381  -0.162351 0.500530 -0.533043
12  1.719573 -0.000027 0.000015  0.063764 -0.114983 -1.565865
13  1.209180 0.000092 0.000011  -0.006409 0.000350 -0.056241
14  4.085221 -0.082716 1.151041  0.170123 0.692306 0.093057
15  1.719450 -0.000011 0.000022  0.018421 -0.005135 -1.015982
16  1.099675 0.000049 0.000006  -0.080608 0.037327 -1.435666
17  0.971587 -1.283500 0.847610  -0.973324 -0.636241 -0.317753
18  1.789820 -0.000003 -0.000018  0.000700 -0.015572 0.750402
19  1.207015 -0.000012 -0.000043  0.001709 -0.000039 -0.103377
20  5.740636 0.000411 -0.000703  -0.124942 0.000003 0.000071
21  11.481159 0.000353 -0.000707  -0.056285 -0.119968 -0.007789
22  6.027525 -0.000329 0.000203  1.762431 -0.466092 1.718925
23  0.000003 11.692098 -0.000006  -1.008977 -0.456976 -0.797184
24  0.000001 0.000009 -0.000001  -0.492302 -0.000031 1.570739
25  -0.000001 -0.000011 -0.000000  0.868957 0.000002 1.570712
26  -3.286773 -12.103185 2.073871  1.473120 1.855075 -0.198639
27  6.027505 -0.000260 -0.000229  1.594226 0.535451 -0.377548
28  11.691991 0.000239 0.000856  0.245671 0.000083 -1.988651
29  11.480548 -0.000064 0.000867  -0.975048 0.204547 1.031199
30  3.452861 -0.227595 1.051753  0.877464 -0.056173 -2.075854
31  1.312558 0.000026 0.000000  -0.015677 -0.060057 -0.392348
32  0.729345 0.000065 -0.000027  0.007919 -0.008126 -0.675163
33  3.942046 0.050109 0.430996  0.524085 -0.097015 -1.851522
34  1.539097 0.000010 -0.000000  -0.012992 -0.051146 -0.650980
35  1.196299 0.000076 -0.000003  0.004319 -0.002068 -0.950552
36  3.883411 -0.050501 -0.431088  0.271728 -0.277378 -1.402722
37  1.719563 -0.000079 -0.000004  -0.025734 -0.006032 -1.456462
38  1.209197 0.000035 0.000012  0.000939 -0.002812 -0.276849
39  3.806436 -0.112147 -1.295330  -0.020304 -0.262237 -0.309884
40  1.719411 -0.000100 -0.000034  0.041180 0.008049 -0.151253
41  1.099674 0.000024 0.000007  -0.002414 -0.004342 -1.231569
42  0.866372 -0.355430 -1.353143  1.308181 0.166838 -0.740879
43  1.789779 -0.000009 -0.000042  0.032551 0.123016 0.037179
44  1.206996 -0.000007 0.000005  0.000293 -0.001887 1.285959
45  5.740572 0.000056 0.000724  0.180095 -0.000014 0.000021
46  11.481054 0.000024 0.000923  0.099826 0.069981 0.175503
47  6.027514 -0.000273 -0.000237  -0.651128 -0.570155 -1.558225
48  -0.000001 11.691974 -0.000007  -1.318214 0.765802 0.958916
49  0.000003 -0.000001 0.000000  2.518198 -0.000041 1.570856
50  -0.000006 -0.000016 0.000006  2.272644 -0.000030 1.570865
51  -4.066847 -0.111087 -3.938069  2.951861 0.119776 -1.622318
52  0.000000 -0.000000 0.000000  0.008153 -0.000259 0.000009
53  -0.000000 0.000000 -0.000001  1.565115 0.043565 -0.106862
54  -1.032195 -14.499477 -4.905849  -0.998031 -0.099427 -1.951291
55  0.000001 -0.000001 0.000000  0.000000 -0.000000 -0.000002
56  0.000031 0.000029 0.000001  -1.571901 -0.044449 -0.106509
57  8.694838 -16.141689 -16.416052  1.570796 -0.000000 0.000000
58  -19.213562 7.451548 -15.500427  1.570796 -0.000000 0.000000
59  -0.670483 1.601972 -4.109488  1.570796 -0.000000 0.000000
60  -0.004311 0.001230 -0.000371  0.006898 -0.005534 -0.284229
61  2.073871 12.494887 -1.080626  1.570796 -0.000000 0.000000
62  0.000000 0.000000 0.000000  -0.078727 -3.136056 0.284226
63  -2.746032 -1.210788 -1.134430  1.570796 0.001798 0.000000
64  -2.533409 -7.961200 -1.977104  1.571596 0.067261 -0.010429
65  -0.200448 -1.761558 -1.306031  0.078355 -0.004789 -0.000767
66  -0.202336 0.213337 25.976641  0.000000 -0.000000 0.000000
67  -0.200449 -0.895508 -0.420852  0.000000 -0.000000 0.000000
68  -0.104048 -4.495923 7.879277  0.000000 -0.000000 0.000000
69  -0.195263 4.332629 -9.795806  0.000000 -0.000000 0.000000
70  -0.194972 -1.133607 6.156297  0.000000 -0.000000 0.000000
71  -2.846840 -12.044407 -3.095040  1.571596 0.067261 -0.010429
time 6
0  0.000006 0.000000 0.000000  -1.570800 -1.391899 -1.570792
1  -4.327822 -0.845730 -0.674796  -1.544956 -1.855077 -0.198630
2  6.027522 -0.000325 0.000193  -1.048746 -1.069631 -1.017194
3  11.692108 0.000643 -0.000738  -1.361398 -0.000018 -1.435746
4  11.479664 0.000579 -0.000807  1.155878 -0.665698 0.134980
5  3.859508 -0.142880 -1.192050  -0.550885 -0.255832 -1.866282
6  1.312589 0.000013 0.000008  -0.134281 -0.007565 -0.192402
7  0.729353 0.000053 0.000048  -0.007819 -0.009377 -0.049785
8  3.942145 0.046273 -0.431512  -0.463378 0.160456 -1.247694
9  1.539111 0.000084 0.000006  -0.004274 -0.078040 -1.047896
10  1.196333 0.000144 0.000029  0.008873 0.001422 -0.157248
11  3.883503 -0.047269 0.431381  -0.162351 0.500530 -0.533043
12  1.719573 -0.000026 0.000014  0.063764 -0.114983 -1.565865
13  1.209179 0.000091 0.000012  -0.006409 0.000351 -0.056241
14  4.085224 -0.082715 1.151041  0.170123 0.692306 0.093057
15  1.719448 -0.000012 0.000022  0.018421 -0.005135 -1.015982
16  1.099675 0.000049 0.000004  -0.080608 0.037327 -1.435667
17  0.971587 -1.283499 0.847609  -0.975767 -0.630894 -0.314000
18  1.789818 -0.000002 -0.000019  0.000869 -0.015063 0.735840
19  1.207013 -0.000012 -0.000044  0.001656 -0.000033 -0.107172
20  5.740635 0.000410 -0.000702  -0.127572 0.000003 0.000071
21  11.480939 0.000328 -0.000818  -0.063240 -0.116921 -0.011822
22  6.027525 -0.000329 0.000203  1.754949 -0.468895 1.733386
23  0.000003 11.692098 -0.000007  -0.991271 -0.440829 -0.785680
24  0.000001 0.000008 -0.000001  -0.492302 -0.000030 1.570738
25  -0.000001 -0.000011 -0.000001  0.868957 0.000002 1.570712
26  -3.286773 -12.103185 2.073871  1.473120 1.855075 -0.198639
27  6.027505 -0.000260 -0.000229  1.605636 0.552214 -0.373856
28  11.691992 0.000242 0.000857  0.245671 0.000081 -1.961828
29  11.478259 -0.001360 0.001191  -1.002814 0.181438 1.038315
30  3.452861 -0.227595 1.051754  0.877464 -0.056173 -2.075854
31  1.312558 0.000026 0.000001  -0.015677 -0.060057 -0.392348
32  0.729345 0.000065 -0.000027  0.007919 -0.008126 -0.675163
33  3.942046 0.050109 0.430997  0.524085 -0.097016 -1.851522
34  1.539097 0.000009 -0.000000  -0.012992 -0.051146 -0.650980
35  1.196299 0.000076 -0.000004  0.004319 -0.002068 -0.950552
36  3.883412 -0.050502 -0.431087  0.271728 -0.277378 -1.402722
37  1.719564 -0.000080 -0.000003  -0.025734 -0.006032 -1.456462
38  1.209197 0.000035 0.000011  0.000939 -0.002812 -0.276849
39  3.806436 -0.112147 -1.295329  -0.014577 -0.262852 -0.310762
40  1.719412 -0.000099 -0.000034  0.043961 0.006655 -0.123705
41  1.099673 0.000024 0.000007  -0.002644 -0.004150 -1.136467
42  0.866372 -0.355430 -1.353142  1.308181 0.166838 -0.740878
43  1.789780 -0.000009 -0.000042  0.032550 0.123016 0.037179
44  1.206996 -0.000006 0.000005  0.000293 -0.001887 1.285959
45  5.740572 0.000054 0.000724  0.176481 -0.000014 0.000021
46  11.480596 -0.000236 0.000987  0.096912 0.063719 0.179186
47  6.027514 -0.000273 -0.000237  -0.665052 -0.554741 -1.553012
48  -0.000001 11.691973 -0.000008  -1.301950 0.749071 0.952773
49  0.000004 -0.000000 0.000001  2.518198 -0.000041 1.570856
50  -0.000007 -0.000015 0.000004  2.272644 -0.000030 1.570865
51  -4.111629 -0.376675 -3.837846  2.926217 0.139883 -1.624214
52  0.000000 -0.000000 0.000000  0.008153 -0.000259 0.000009
53  0.000000 0.000000 0.000000  1.565115 0.043565 -0.106862
54  -1.084700 -14.735938 -5.187189  -1.028693 -0.088519 -1.946989
55  -0.000000 0.000000 -0.000001  0.000000 -0.000000 -0.000002
56  0.000030 0.000029 0.000001  -1.571901 -0.044449 -0.106509
57  8.694838 -16.141689 -16.416052  1.570796 -0.000000 0.000000
58  -19.213562 7.451548 -15.500427  1.570796 -0.000000 0.000000
59  -0.670483 1.601972 -4.109488  1.570796 -0.000000 0.000000
60  -0.004311 0.001230 -0.000371  0.006898 -0.005534 -0.284229
61  2.073871 12.494887 -1.080626  1.570796 -0.000000 0.000000
62  0.000000 0.000000 0.000000  -0.078727 -3.136056 0.284226
63  -2.746032 -1.210788 -1.134430  1.570796 0.000629 0.000000
64  -2.521761 -8.264342 -2.083392  1.592858 0.091790 -0.007315
65  -0.200448 -1.761559 -1.306031  -0.000000 0.000000 0.000000
66  -0.201006 0.213337 26.202108  -0.000000 0.000000 0.000000
67  -0.200449 -0.895508 -0.420853  -0.000000 0.000000 0.000000
68  -0.104048 -4.495923 7.879276  -0.000000 0.000000 0.000000
69  -0.195264 4.332631 -9.795807  -0.000000 0.000000 0.000000
70  -0.194972 -1.133607 6.156297  -0.000000 0.000000 0.000000
71  -2.857570 -12.323226 -3.280600  1.592858 0.091790 -0.007315
time 7
0  0.000006 0.000000 0.000000  -1.570800 -1.391899 -1.570792
1  -4.327822 -0.845730 -0.674796  -1.544956 -1.855077 -0.198630
2  6.027522 -0.000325 0.000193  -1.048355 -1.071719 -1.019374
3  11.692108 0.000645 -0.000740  -1.361397 -0.000017 -1.409944
4  11.479810 0.000594 -0.000736  1.159946 -0.651221 0.139948
5  3.859509 -0.142879 -1.192049  -0.550886 -0.255832 -1.866282
6  1.312590 0.000011 0.000007  -0.134281 -0.007565 -0.192402
7  0.729355 0.000053 0.000048  -0.007819 -0.009377 -0.049785
8  3.942143 0.046273 -0.431512  -0.463378 0.160456 -1.247694
9  1.539110 0.000085 0.000005  -0.004274 -0.078040 -1.047896
10  1.196332 0.000146 0.000028  0.008873 0.001422 -0.157248
11  3.883506 -0.047268 0.431381  -0.162351 0.500530 -0.533043
12  1.719573 -0.000027 0.000017  0.063764 -0.114983 -1.565865
13  1.209179 0.000091 0.000011  -0.006408 0.000351 -0.056241
14  4.085223 -0.082715 1.151041  0.170123 0.692306 0.093057
15  1.719450 -0.000011 0.000023  0.018421 -0.005135 -1.015982
16  1.099675 0.000048 0.000004  -0.080608 0.037327 -1.435666
17  0.971588 -1.283499 0.847610  -0.977270 -0.627600 -0.311722
18  1.789818 -0.000005 -0.000019  0.000959 -0.014732 0.727071
19  1.207016 -0.000012 -0.000043  0.001621 -0.000029 -0.109517
20  5.740637 0.000411 -0.000702  -0.122718 0.000003 0.000071
21  11.480970 0.000331 -0.000805  -0.062737 -0.114169 -0.010059
22  6.027525 -0.000329 0.000203  1.753864 -0.467036 1.732038
23  0.000002 11.692098 -0.000007  -0.975842 -0.426963 -0.775509
24  0.000003 0.000007 -0.000001  -0.492302 -0.000030 1.570738
25  -0.000000 -0.000011 -0.000001  0.868957 0.000002 1.570712
26  -3.286773 -12.103185 2.073871  1.473120 1.855075 -0.198639
27  6.027505 -0.000261 -0.000229  1.605057 0.565529 -0.373570
28  11.691992 0.000241 0.000857  0.245671 0.000079 -1.935309
29  11.478492 -0.001262 0.001166  -0.995267 0.171133 1.028852
30  3.452861 -0.227594 1.051754  0.877464 -0.056173 -2.075854
31  1.312558 0.000025 -0.000000  -0.015677 -0.060057 -0.392348
32  0.729345 0.000065 -0.000027  0.007919 -0.008126 -0.675163
33  3.942047 0.050110 0.430996  0.524085 -0.097015 -1.851522
34  1.539096 0.000010 -0.000000  -0.012992 -0.051146 -0.650980
35  1.196299 0.000076 -0.000003  0.004319 -0.002068 -0.950552
36  3.883411 -0.050502 -0.431088  0.271728 -0.277378 -1.402722
37  1.719564 -0.000079 -0.000003  -0.025734 -0.006032 -1.456462
38  1.209197 0.000035 0.000011  0.000939 -0.002812 -0.276849
39  3.806436 -0.112147 -1.295330  -0.002031 -0.264281 -0.312711
40  1.719412 -0.000099 -0.000034  0.049779 0.003416 -0.064745
41  1.099673 0.000024 0.000006  -0.003072 -0.003669 -0.931953
42  0.866373 -0.355430 -1.353142  1.308181 0.166838 -0.740879
43  1.789779 -0.000008 -0.000042  0.032551 0.123016 0.037179
44  1.206996 -0.000006 0.000005  0.000293 -0.001887 1.285959
45  5.740571 0.000055 0.000724  0.176399 -0.000014 0.000021
46  11.480641 -0.000217 0.000983  0.099470 0.062129 0.177591
47  6.027514 -0.000273 -0.000237  -0.679707 -0.550062 -1.544729
48  -0.000002 11.691975 -0.000009  -1.285978 0.732602 0.946432
49  0.000002 -0.000001 -0.000001  2.518198 -0.000041 1.570856
50  -0.000006 -0.000016 0.000004  2.272644 -0.000030 1.570865
51  -4.108923 -0.630042 -3.862598  2.936195 0.149199 -1.620186
52  0.000000 -0.000000 -0.000000  0.008153 -0.000259 0.000009
53  0.000000 0.000000 -0.000000  1.565115 0.043565 -0.106862
54  -1.030369 -14.969111 -5.306599  -1.022274 -0.076546 -1.944927
55  -0.000001 0.000000 -0.000001  0.000000 -0.000000 -0.000002
56  0.000030 0.000030 0.000001  -1.571902 -0.044449 -0.106509
57  8.694838 -16.141689 -16.416052  1.570796 -0.000000 0.000000
58  -19.213562 7.451548 -15.500427  1.570796 -0.000000 0.000000
59  -0.670483 1.601972 -4.109488  1.570796 -0.000000 0.000000
60  -0.004311 0.001230 -0.000371  0.006898 -0.005534 -0.284229
61  2.073871 12.494887 -1.080626  1.570796 -0.000000 0.000000
62  0.000000 0.000000 0.000000  -0.078727 -3.136056 0.284226
63  -2.746032 -1.210788 -1.134430  1.570796 -0.000000 0.000000
64  -2.516467 -8.528786 -2.161125  1.601745 0.081500 -0.003955
65  -0.200448 -1.761558 -1.306031  -0.000000 -0.000000 0.000000
66  -0.200449 0.213337 26.427570  -0.000000 -0.000000 0.000000
67  -0.200449 -0.895508 -0.420852  -0.000000 -0.000000 0.000000
68  -0.104047 -4.495923 7.879276  -0.000000 -0.000000 0.000000
69  -0.195264 4.332630 -9.795806  -0.000000 -0.000000 0.000000
70  -0.194972 -1.133607 6.156297  -0.000000 -0.000000 0.000000
71  -2.829190 -12.577805 -3.397346  1.601745 0.081500 -0.003955
time 8
0  0.000006 0.000000 0.000000  -1.570800 -1.391899 -1.570792
1  -4.327822 -0.845730 -0.674796  -1.544956 -1.855077 -0.198630
2  6.027522 -0.000325 0.000193  -1.055577 -1.075948 -1.022594
3  11.692108 0.000644 -0.000739  -1.361396 -0.000016 -1.390715
4  11.479919 0.000606 -0.000679  1.183453 -0.640393 0.151053
5  3.859509 -0.142879 -1.192050  -0.550885 -0.255832 -1.866282
6  1.312590 0.000012 0.000007  -0.134281 -0.007565 -0.192402
7  0.729354 0.000054 0.000049  -0.007819 -0.009377 -0.049785
8  3.942144 0.046273 -0.431512  -0.463378 0.160456 -1.247694
9  1.539110 0.000086 0.000005  -0.004274 -0.078040 -1.047896
10  1.196333 0.000145 0.000028  0.008873 0.001422 -0.157248
11  3.883507 -0.047269 0.431381  -0.162351 0.500530 -0.533043
12  1.719572 -0.000026 0.000013  0.063764 -0.114983 -1.565865
13  1.209179 0.000092 0.000012  -0.006409 0.000350 -0.056241
14  4.085224 -0.082716 1.151040  0.170123 0.692306 0.093057
15  1.719449 -0.000012 0.000023  0.018421 -0.005135 -1.015982
16  1.099675 0.000047 0.000006  -0.080608 0.037327 -1.435667
17  0.971589 -1.283499 0.847609  -0.978016 -0.625988 -0.310627
18  1.789820 -0.000003 -0.000018  0.000994 -0.014554 0.722944
19  1.207017 -0.000012 -0.000044  0.001603 -0.000027 -0.110674
20  5.740638 0.000411 -0.000703  -0.114969 0.000003 0.000071
21  11.480993 0.000334 -0.000794  -0.058253 -0.112026 -0.006012
22  6.027525 -0.000329 0.000203  1.755605 -0.461809 1.721690
23  0.000002 11.692099 -0.000007  -0.964305 -0.416723 -0.767819
24  0.000003 0.000007 -0.000000  -0.492302 -0.000031 1.570739
25  -0.000001 -0.000011 -0.000001  0.868957 0.000002 1.570712
26  -3.286773 -12.103185 2.073871  1.473120 1.855075 -0.198639
27  6.027505 -0.000261 -0.000229  1.599444 0.574121 -0.375025
28  11.691993 0.000242 0.000858  0.245671 0.000078 -1.914310
29  11.478679 -0.001179 0.001144  -0.973178 0.169678 1.010772
30  3.452862 -0.227595 1.051754  0.877464 -0.056173 -2.075854
31  1.312558 0.000026 0.000000  -0.015677 -0.060057 -0.392348
32  0.729345 0.000065 -0.000027  0.007919 -0.008125 -0.675163
33  3.942046 0.050109 0.430998  0.524085 -0.097016 -1.851522
34  1.539097 0.000010 0.000000  -0.012992 -0.051146 -0.650980
35  1.196299 0.000076 -0.000004  0.004319 -0.002068 -0.950551
36  3.883411 -0.050501 -0.431086  0.271728 -0.277378 -1.402722
37  1.719564 -0.000079 -0.000004  -0.025734 -0.006032 -1.456462
38  1.209196 0.000036 0.000012  0.000939 -0.002812 -0.276849
39  3.806436 -0.112147 -1.295329  0.004587 -0.265284 -0.313779
40  1.719412 -0.000099 -0.000035  0.052430 0.001787 -0.037211
41  1.099673 0.000025 0.000007  -0.003236 -0.003418 -0.836852
42  0.866372 -0.355430 -1.353141  1.308181 0.166838 -0.740879
43  1.789779 -0.000009 -0.000042  0.032550 0.123016 0.037179
44  1.206997 -0.000006 0.000005  0.000293 -0.001887 1.285959
45  5.740572 0.000056 0.000723  0.177850 -0.000014 0.000021
46  11.480680 -0.000200 0.000978  0.103971 0.062990 0.173332
47  6.027514 -0.000273 -0.000237  -0.691157 -0.551029 -1.537165
48  -0.000002 11.691977 -0.000006  -1.273396 0.719616 0.941228
49  0.000003 -0.000001 -0.000001  2.518198 -0.000041 1.570856
50  -0.000008 -0.000015 0.000005  2.272644 -0.000030 1.570865
51  -4.092138 -0.824259 -3.942706  -0.180604 2.992685 1.528071
52  0.000000 -0.000000 -0.000000  0.008153 -0.000259 0.000009
53  -0.000000 0.000000 0.000000  1.565115 0.043565 -0.106862
54  -0.936669 -15.156015 -5.290044  -0.998903 -0.068936 -1.943643
55  -0.000000 -0.000000 -0.000001  0.000000 -0.000000 -0.000002
56  0.000030 0.000029 0.000000  -1.571901 -0.044449 -0.106509
57  8.694838 -16.141689 -16.416052  1.570796 -0.000000 0.000000
58  -19.213562 7.451548 -15.500427  1.570796 -0.000000 0.000000
59  -0.670483 1.601972 -4.109488  1.570796 -0.000000 0.000000
60  -0.004311 0.001230 -0.000371  0.006898 -0.005534 -0.284229
61  2.073871 12.494887 -1.080626  1.570796 -0.000000 0.000000
62  0.000000 0.000000 0.000000  -0.078727 -3.136056 0.284226
63  -2.746032 -1.210788 -1.134430  1.570796 -0.000000 0.000000
64  -2.518403 -8.715830 -2.191266  1.600384 0.057018 -0.001067
65  -0.200448 -1.761558 -1.306033  -0.000000 -0.000000 -0.000000
66  -0.200449 0.213337 26.427574  -0.000000 -0.000000 -0.000000
67  -0.200448 -0.895508 -0.420855  -0.000000 -0.000000 -0.000000
68  -0.104047 -4.495923 7.879274  -0.000000 -0.000000 -0.000000
69  -0.195264 4.332631 -9.795808  -0.000000 -0.000000 -0.000000
70  -0.194972 -1.133607 6.156296  -0.000000 -0.000000 -0.000000
71  -2.788767 -12.767477 -3.428873  1.600384 0.057018 -0.001067
time 9
0  0.000006 0.000000 0.000000  -1.570800 -1.391899 -1.570792
1  -4.327822 -0.845730 -0.674796  -1.544956 -1.855077 -0.198630
2  6.027522 -0.000325 0.000193  -1.067327 -1.077740 -1.022507
3  11.692107 0.000643 -0.000738  -1.361396 -0.000016 -1.385349
4  11.479950 0.000609 -0.000659  1.210694 -0.639625 0.166861
5  3.859510 -0.142880 -1.192049  -0.550886 -0.255832 -1.866282
6  1.312589 0.000012 0.000008  -0.134281 -0.007565 -0.192402
7  0.729355 0.000053 0.000050  -0.007819 -0.009377 -0.049785
8  3.942142 0.046273 -0.431512  -0.463378 0.160456 -1.247694
9  1.539111 0.000087 0.000007  -0.004274 -0.078040 -1.047896
10  1.196330 0.000145 0.000029  0.008873 0.001422 -0.157248
11  3.883503 -0.047269 0.431381  -0.162351 0.500530 -0.533043
12  1.719573 -0.000027 0.000015  0.063764 -0.114983 -1.565865
13  1.209179 0.000090 0.000010  -0.006409 0.000350 -0.056241
14  4.085222 -0.082716 1.151041  0.170123 0.692306 0.093057
15  1.719449 -0.000011 0.000024  0.018421 -0.005135 -1.015982
16  1.099675 0.000048 0.000004  -0.080608 0.037327 -1.435666
17  0.971587 -1.283499 0.847609  -0.978283 -0.625432 -0.310260
18  1.789818 -0.000005 -0.000018  0.001000 -0.014483 0.721635
19  1.207013 -0.000012 -0.000044  0.001595 -0.000026 -0.111080
20  5.740636 0.000411 -0.000703  -0.107778 0.000003 0.000071
21  11.480997 0.000334 -0.000788  -0.052539 -0.111865 -0.001202
22  6.027525 -0.000329 0.000203  1.760537 -0.457974 1.709242
23  0.000002 11.692098 -0.000007  -0.961079 -0.413880 -0.765655
24  0.000002 0.000008 -0.000001  -0.492302 -0.000031 1.570739
25  -0.000001 -0.000011 -0.000001  0.868957 0.000002 1.570712
26  -3.286773 -12.103185 2.073871  1.473120 1.855075 -0.198639
27  6.027505 -0.000261 -0.000229  1.594004 0.577536 -0.376638
28  11.691993 0.000242 0.000857  0.245671 0.000077 -1.905188
29  11.478757 -0.001143 0.001136  -0.945320 0.169763 0.997590
30  3.452861 -0.227595 1.051755  0.877464 -0.056173 -2.075854
31  1.312558 0.000027 0.000000  -0.015677 -0.060057 -0.392348
32  0.729346 0.000065 -0.000028  0.007919 -0.008125 -0.675163
33  3.942046 0.050109 0.430997  0.524085 -0.097016 -1.851522
34  1.539096 0.000010 -0.000001  -0.012992 -0.051146 -0.650980
35  1.196299 0.000076 -0.000003  0.004319 -0.002068 -0.950552
36  3.883411 -0.050501 -0.431086  0.271728 -0.277378 -1.402722
37  1.719563 -0.000079 -0.000004  -0.025734 -0.006032 -1.456462
38  1.209197 0.000036 0.000011  0.000939 -0.002812 -0.276849
39  3.806436 -0.112148 -1.295329  0.005392 -0.267745 -0.314774
40  1.719412 -0.000099 -0.000034  0.052308 0.003689 -0.057050
41  1.099673 0.000025 0.000007  -0.003235 -0.003584 -0.891347
42  0.866372 -0.355430 -1.353141  1.308181 0.166838 -0.740879
43  1.789779 -0.000009 -0.000042  0.032550 0.123016 0.037179
44  1.206996 -0.000006 0.000005  0.000293 -0.001887 1.285959
45  5.740572 0.000054 0.000723  0.181482 -0.000014 0.000021
46  11.480695 -0.000194 0.000976  0.109300 0.064798 0.169745
47  6.027514 -0.000273 -0.000237  -0.696979 -0.553844 -1.532762
48  -0.000001 11.691975 -0.000007  -1.267947 0.713990 0.938919
49  0.000005 -0.000002 -0.000000  2.518198 -0.000041 1.570856
50  -0.000006 -0.000014 0.000005  2.272644 -0.000030 1.570865
51  -4.067660 -0.905883 -4.006557  -0.150946 2.994976 1.535346
52  0.000000 -0.000000 -0.000000  0.008153 -0.000259 0.000009
53  -0.000000 0.000000 0.000001  1.565115 0.043565 -0.106862
54  -0.833232 -15.232731 -5.211288  -0.970371 -0.061505 -1.942595
55  -0.000000 -0.000000 0.000000  0.000000 -0.000000 -0.000002
56  0.000030 0.000029 0.000001  -1.571902 -0.044449 -0.106509
57  8.694838 -16.141689 -16.416052  1.570796 -0.000000 0.000000
58  -19.213562 7.451548 -15.500427  1.570796 -0.000000 0.000000
59  -0.670483 1.601972 -4.109488  1.570796 -0.000000 0.000000
60  -0.004311 0.001230 -0.000371  0.006898 -0.005534 -0.284229
61  2.073871 12.494887 -1.080626  1.570796 -0.000000 0.000000
62  0.000000 0.000000 0.000000  -0.078727 -3.136056 0.284226
63  -2.746032 -1.210788 -1.134430  1.570796 -0.000000 0.000000
64  -2.523242 -8.786778 -2.182456  1.596936 0.027795 0.001694
65  -0.200448 -1.761558 -1.306032  0.000000 0.000000 0.000000
66  -0.200449 0.213338 26.427572  0.000000 0.000000 0.000000
67  -0.200449 -0.895508 -0.420853  0.000000 0.000000 0.000000
68  -0.104047 -4.495923 7.879274  0.000000 0.000000 0.000000
69  -0.195264 4.332630 -9.795806  0.000000 0.000000 0.000000
70  -0.194973 -1.133607 6.156295  0.000000 0.000000 0.000000
71  -2.745747 -12.843383 -3.413336  1.596936 0.027795 0.001694
time 10
0  0.000006 0.000000 0.000000  -1.570800 -1.391899 -1.570792
1  -4.327822 -0.845730 -0.674796  -1.544956 -1.855077 -0.198630
2  6.027522 -0.000325 0.000193  -1.078667 -1.077610 -1.020561
3  11.692107 0.000644 -0.000740  -1.361396 -0.000016 -1.389627
4  11.479926 0.000606 -0.000669  1.233793 -0.644690 0.180533
5  3.859510 -0.142880 -1.192049  -0.550885 -0.255832 -1.866282
6  1.312591 0.000011 0.000007  -0.134281 -0.007565 -0.192402
7  0.729354 0.000053 0.000049  -0.007819 -0.009377 -0.049785
8  3.942145 0.046273 -0.431511  -0.463378 0.160456 -1.247694
9  1.539111 0.000084 0.000004  -0.004274 -0.078040 -1.047896
10  1.196333 0.000145 0.000029  0.008873 0.001422 -0.157248
11  3.883505 -0.047270 0.431381  -0.162351 0.500530 -0.533043
12  1.719573 -0.000026 0.000013  0.063764 -0.114983 -1.565865
13  1.209180 0.000092 0.000010  -0.006409 0.000350 -0.056241
14  4.085224 -0.082716 1.151042  0.170123 0.692306 0.093057
15  1.719449 -0.000010 0.000023  0.018421 -0.005135 -1.015982
16  1.099675 0.000050 0.000006  -0.080608 0.037327 -1.435667
17  0.971588 -1.283500 0.847609  -0.978328 -0.625346 -0.310207
18  1.789819 -0.000003 -0.000018  0.000998 -0.014468 0.721477
19  1.207016 -0.000012 -0.000044  0.001593 -0.000026 -0.111145
20  5.740637 0.000410 -0.000702  -0.102647 0.000003 0.000071
21  11.480993 0.000333 -0.000790  -0.047495 -0.112804 0.002744
22  6.027525 -0.000329 0.000203  1.766067 -0.455923 1.698760
23  0.000001 11.692099 -0.000008  -0.963651 -0.416146 -0.767381
24  0.000003 0.000009 -0.000001  -0.492302 -0.000030 1.570738
25  -0.000000 -0.000011 -0.000001  0.868957 0.000002 1.570712
26  -3.286773 -12.103185 2.073871  1.473120 1.855075 -0.198639
27  6.027505 -0.000261 -0.000229  1.589130 0.576298 -0.378193
28  11.691992 0.000241 0.000857  0.245672 0.000077 -1.905409
29  11.478755 -0.001145 0.001136  -0.921273 0.172049 0.989017
30  3.452862 -0.227595 1.051753  0.877464 -0.056173 -2.075854
31  1.312558 0.000025 -0.000000  -0.015677 -0.060057 -0.392348
32  0.729345 0.000066 -0.000027  0.007919 -0.008125 -0.675163
33  3.942046 0.050109 0.430997  0.524085 -0.097015 -1.851522
34  1.539096 0.000010 0.000000  -0.012992 -0.051146 -0.650980
35  1.196299 0.000076 -0.000004  0.004319 -0.002069 -0.950551
36  3.883411 -0.050502 -0.431087  0.271728 -0.277378 -1.402722
37  1.719563 -0.000080 -0.000003  -0.025734 -0.006032 -1.456462
38  1.209197 0.000035 0.000011  0.000939 -0.002812 -0.276849
39  3.806436 -0.112147 -1.295330  0.005508 -0.272278 -0.316582
40  1.719411 -0.000100 -0.000034  0.051921 0.007750 -0.099513
41  1.099674 0.000025 0.000007  -0.003203 -0.003939 -1.008149
42  0.866372 -0.355430 -1.353142  1.308181 0.166838 -0.740879
43  1.789780 -0.000009 -0.000042  0.032550 0.123016 0.037179
44  1.206996 -0.000006 0.000005  0.000293 -0.001887 1.285959
45  5.740571 0.000055 0.000723  0.185073 -0.000014 0.000021
46  11.480694 -0.000193 0.000976  0.113642 0.066851 0.167066
47  6.027514 -0.000273 -0.000237  -0.697589 -0.558081 -1.531336
48  -0.000002 11.691975 -0.000007  -1.268079 0.714126 0.938975
49  0.000005 -0.000001 -0.000001  2.518198 -0.000041 1.570856
50  -0.000008 -0.000015 0.000005  2.272644 -0.000030 1.570865
51  -4.046306 -0.899488 -4.057940  -0.126045 2.998863 1.541216
52  -0.000000 -0.000000 0.000000  0.008153 -0.000259 0.000009
53  -0.000000 0.000000 -0.000000  1.565115 0.043565 -0.106862
54  -0.751487 -15.224191 -5.115547  -0.945797 -0.056979 -1.941769
55  0.000000 -0.000000 0.000000  0.000000 -0.000000 -0.000002
56  0.000030 0.000029 0.000001  -1.571901 -0.044449 -0.106509
57  8.694838 -16.141689 -16.416052  1.570796 -0.000000 0.000000
58  -19.213562 7.451548 -15.500427  1.570796 -0.000000 0.000000
59  -0.670483 1.601972 -4.109488  1.570796 -0.000000 0.000000
60  -0.004311 0.001230 -0.000371  0.006898 -0.005534 -0.284229
61  2.073871 12.494887 -1.080626  1.570796 -0.000000 0.000000
62  0.000000 0.000000 0.000000  -0.078727 -3.136056 0.284226
63  -2.746032 -1.210788 -1.134430  1.570796 -0.000000 0.000000
64  -2.529534 -8.768171 -2.159434  1.592181 0.003307 0.003901
65  -0.200448 -1.761559 -1.306032  0.000000 0.000000 0.000000
66  -0.200449 0.213337 26.427572  0.000000 0.000000 0.000000
67  -0.200449 -0.895508 -0.420853  0.000000 0.000000 0.000000
68  -0.104047 -4.495924 7.879274  0.000000 0.000000 0.000000
69  -0.195264 4.332631 -9.795804  0.000000 0.000000 0.000000
70  -0.194972 -1.133607 6.156296  0.000000 0.000000 0.000000
71  -2.712792 -12.830973 -3.376261  1.592181 0.003307 0.003901
time 11
0  0.000006 0.000000 0.000000  -1.570800 -1.391899 -1.570792
1  -4.327822 -0.845730 -0.674796  -1.544956 -1.855077 -0.198630
2  6.027522 -0.000325 0.000193  -1.084259 -1.078457 -1.020497
3  11.692109 0.000644 -0.000739  -1.361396 -0.000016 -1.394481
4  11.479897 0.000603 -0.000690  1.245900 -0.648600 0.185851
5  3.859511 -0.142880 -1.192050  -0.550885 -0.255832 -1.866282
6  1.312590 0.000012 0.000008  -0.134281 -0.007565 -0.192402
7  0.729354 0.000054 0.000049  -0.007819 -0.009377 -0.049785
8  3.942147 0.046273 -0.431513  -0.463378 0.160456 -1.247694
9  1.539110 0.000085 0.000003  -0.004274 -0.078040 -1.047896
10  1.196333 0.000144 0.000029  0.008873 0.001422 -0.157248
11  3.883508 -0.047269 0.431381  -0.162351 0.500530 -0.533043
12  1.719573 -0.000026 0.000016  0.063764 -0.114983 -1.565865
13  1.209180 0.000091 0.000011  -0.006409 0.000350 -0.056241
14  4.085225 -0.082716 1.151040  0.170123 0.692306 0.093057
15  1.719450 -0.000012 0.000023  0.018421 -0.005135 -1.015982
16  1.099675 0.000049 0.000005  -0.080608 0.037327 -1.435666
17  0.971590 -1.283499 0.847609  -0.978328 -0.625346 -0.310207
18  1.789820 -0.000004 -0.000019  0.000998 -0.014468 0.721477
19  1.207016 -0.000012 -0.000044  0.001593 -0.000026 -0.111145
20  5.740638 0.000411 -0.000703  -0.100639 0.000003 0.000071
21  11.480988 0.000333 -0.000796  -0.044895 -0.113485 0.004425
22  6.027525 -0.000329 0.000203  1.768361 -0.454060 1.692889
23  0.000001 11.692099 -0.000007  -0.966567 -0.418722 -0.769332
24  0.000002 0.000008 -0.000002  -0.492302 -0.000031 1.570739
25  -0.000001 -0.000011 -0.000001  0.868957 0.000002 1.570712
26  -3.286773 -12.103185 2.073871  1.473120 1.855075 -0.198639
27  6.027505 -0.000261 -0.000229  1.586825 0.573718 -0.378955
28  11.691992 0.000241 0.000858  0.245672 0.000077 -1.908704
29  11.478728 -0.001160 0.001138  -0.911205 0.175703 0.984121
30  3.452861 -0.227595 1.051755  0.877464 -0.056173 -2.075854
31  1.312559 0.000026 -0.000000  -0.015677 -0.060057 -0.392348
32  0.729345 0.000065 -0.000028  0.007919 -0.008125 -0.675163
33  3.942045 0.050109 0.430997  0.524085 -0.097015 -1.851522
34  1.539097 0.000010 -0.000000  -0.012992 -0.051146 -0.650980
35  1.196299 0.000075 -0.000004  0.004319 -0.002069 -0.950552
36  3.883411 -0.050501 -0.431087  0.271728 -0.277378 -1.402722
37  1.719563 -0.000079 -0.000003  -0.025734 -0.006032 -1.456462
38  1.209197 0.000035 0.000011  0.000939 -0.002812 -0.276849
39  3.806436 -0.112147 -1.295330  0.005430 -0.274335 -0.317401
40  1.719411 -0.000100 -0.000034  0.051682 0.009641 -0.119353
41  1.099673 0.000025 0.000007  -0.003174 -0.004103 -1.062644
42  0.866372 -0.355430 -1.353142  1.308181 0.166838 -0.740879
43  1.789780 -0.000009 -0.000042  0.032550 0.123016 0.037179
44  1.206996 -0.000006 0.000005  0.000293 -0.001887 1.285959
45  5.740573 0.000054 0.000722  0.186483 -0.000014 0.000021
46  11.480690 -0.000197 0.000976  0.115230 0.068115 0.165527
47  6.027514 -0.000273 -0.000237  -0.695734 -0.560896 -1.531829
48  -0.000001 11.691976 -0.000008  -1.270046 0.716157 0.939812
49  0.000003 -0.000001 0.000001  2.518198 -0.000041 1.570856
50  -0.000007 -0.000014 0.000005  2.272644 -0.000030 1.570865
51  -4.040251 -0.865911 -4.082779  -0.115502 3.003837 1.543643
52  0.000000 0.000000 0.000000  0.008153 -0.000259 0.000009
53  -0.000000 -0.000000 -0.000000  1.565115 0.043565 -0.106862
54  -0.721461 -15.192748 -5.030886  -0.934274 -0.058158 -1.941480
55  -0.000001 0.000000 0.000000  0.000000 -0.000000 -0.000002
56  0.000029 0.000029 0.000001  -1.571901 -0.044449 -0.106509
57  8.694838 -16.141689 -16.416052  1.570796 -0.000000 0.000000
58  -19.213562 7.451548 -15.500427  1.570796 -0.000000 0.000000
59  -0.670483 1.601972 -4.109488  1.570796 -0.000000 0.000000
60  -0.004311 0.001230 -0.000371  0.006898 -0.005534 -0.284229
61  2.073871 12.494887 -1.080626  1.570796 -0.000000 0.000000
62  0.000000 0.000000 0.000000  -0.078727 -3.136056 0.284226
63  -2.746032 -1.210788 -1.134430  1.570796 -0.000000 0.000000
64  -2.535825 -8.723005 -2.127306  1.586869 -0.006964 0.004864
65  -0.200448 -1.761559 -1.306031  0.000000 -0.000000 -0.000000
66  -0.200449 0.213337 26.427570  0.000000 -0.000000 -0.000000
67  -0.200449 -0.895508 -0.420853  0.000000 -0.000000 -0.000000
68  -0.104047 -4.495923 7.879274  0.000000 -0.000000 -0.000000
69  -0.195263 4.332631 -9.795803  0.000000 -0.000000 -0.000000
70  -0.194972 -1.133607 6.156297  0.000000 -0.000000 -0.000000
71  -2.702784 -12.792332 -3.324518  1.586869 -0.006964 0.004864
time 12
0  0.000006 0.000000 0.000000  -1.570800 -1.391899 -1.570792
1  -4.327822 -0.845730 -0.674796  -1.544956 -1.855077 -0.198630
2  6.027522 -0.000325 0.000193  -1.083931 -1.080397 -1.022435
3  11.692108 0.000643 -0.000739  -1.361396 -0.000016 -1.398197
4  11.479875 0.000600 -0.000701  1.247177 -0.649900 0.183745
5  3.859509 -0.142880 -1.192050  -0.550886 -0.255832 -1.866282
6  1.312589 0.000011 0.000008  -0.134281 -0.007565 -0.192402
7  0.729355 0.000053 0.000050  -0.007819 -0.009377 -0.049785
8  3.942142 0.046273 -0.431513  -0.463378 0.160456 -1.247694
9  1.539111 0.000085 0.000006  -0.004274 -0.078040 -1.047896
10  1.196332 0.000146 0.000028  0.008873 0.001422 -0.157248
11  3.883503 -0.047269 0.431381  -0.162351 0.500530 -0.533043
12  1.719572 -0.000028 0.000014  0.063764 -0.114983 -1.565865
13  1.209179 0.000091 0.000012  -0.006409 0.000351 -0.056241
14  4.085222 -0.082715 1.151040  0.170123 0.692306 0.093057
15  1.719449 -0.000011 0.000021  0.018421 -0.005135 -1.015982
16  1.099676 0.000049 0.000006  -0.080608 0.037327 -1.435666
17  0.971587 -1.283499 0.847609  -0.978328 -0.625346 -0.310208
18  1.789819 -0.000003 -0.000019  0.000998 -0.014468 0.721477
19  1.207017 -0.000012 -0.000044  0.001593 -0.000026 -0.111145
20  5.740638 0.000409 -0.000703  -0.101404 0.000003 0.000071
21  11.480985 0.000332 -0.000798  -0.044713 -0.113677 0.004064
22  6.027525 -0.000329 0.000203  1.767309 -0.452359 1.691701
23  0.000002 11.692099 -0.000007  -0.968798 -0.420698 -0.770822
24  0.000003 0.000009 -0.000001  -0.492302 -0.000031 1.570738
25  -0.000000 -0.000011 0.000000  0.868957 0.000002 1.570712
26  -3.286773 -12.103185 2.073871  1.473120 1.855075 -0.198639
27  6.027505 -0.000261 -0.000229  1.586709 0.570874 -0.379036
28  11.691992 0.000243 0.000858  0.245671 0.000078 -1.913643
29  11.478683 -0.001178 0.001143  -0.913819 0.180616 0.983342
30  3.452862 -0.227595 1.051754  0.877464 -0.056173 -2.075854
31  1.312558 0.000026 -0.000000  -0.015677 -0.060057 -0.392348
32  0.729345 0.000065 -0.000027  0.007919 -0.008125 -0.675163
33  3.942047 0.050109 0.430997  0.524085 -0.097015 -1.851522
34  1.539097 0.000010 0.000000  -0.012992 -0.051146 -0.650980
35  1.196300 0.000075 -0.000004  0.004319 -0.002068 -0.950551
36  3.883412 -0.050501 -0.431087  0.271728 -0.277378 -1.402722
37  1.719564 -0.000080 -0.000004  -0.025734 -0.006032 -1.456462
38  1.209196 0.000036 0.000011  0.000939 -0.002812 -0.276849
39  3.806437 -0.112148 -1.295329  0.005430 -0.274335 -0.317401
40  1.719412 -0.000099 -0.000034  0.051682 0.009641 -0.119353
41  1.099674 0.000024 0.000007  -0.003174 -0.004103 -1.062644
42  0.866373 -0.355430 -1.353142  1.308181 0.166838 -0.740879
43  1.789779 -0.000009 -0.000042  0.032550 0.123016 0.037179
44  1.206996 -0.000006 0.000005  0.000293 -0.001887 1.285959
45  5.740571 0.000056 0.000724  0.185897 -0.000014 0.000021
46  11.480680 -0.000199 0.000979  0.114298 0.068728 0.165183
47  6.027514 -0.000273 -0.000237  -0.692708 -0.562137 -1.533458
48  -0.000001 11.691977 -0.000007  -1.272997 0.719205 0.941060
49  0.000003 -0.000001 0.000000  2.518198 -0.000041 1.570856
50  -0.000007 -0.000014 0.000006  2.272644 -0.000030 1.570865
51  -4.043174 -0.818844 -4.082610  -0.118241 3.009040 1.542312
52  0.000000 0.000000 -0.000000  0.008153 -0.000259 0.000009
53  0.000000 -0.000000 -0.000000  1.565115 0.043565 -0.106862
54  -0.740790 -15.153565 -4.966719  -0.935080 -0.063971 -1.942393
55  0.000000 -0.000000 -0.000000  0.000000 -0.000000 -0.000002
56  0.000030 0.000029 0.000001  -1.571902 -0.044449 -0.106509
57  8.694838 -16.141689 -16.416052  1.570796 -0.000000 0.000000
58  -19.213562 7.451548 -15.500427  1.570796 -0.000000 0.000000
59  -0.670483 1.601972 -4.109488  1.570796 -0.000000 0.000000
60  -0.004311 0.001230 -0.000371  0.006898 -0.005534 -0.284229
61  2.073871 12.494887 -1.080626  1.570796 -0.000000 0.000000
62  0.000000 0.000000 0.000000  -0.078727 -3.136056 0.284226
63  -2.746032 -1.210788 -1.134430  1.570796 -0.000000 0.000000
64  -2.540665 -8.667270 -2.091181  1.581755 -0.004084 0.003930
65  -0.200448 -1.761558 -1.306032  -0.000000 0.000000 -0.000000
66  -0.200449 0.213337 26.427572  -0.000000 0.000000 -0.000000
67  -0.200449 -0.895508 -0.420853  -0.000000 0.000000 -0.000000
68  -0.104047 -4.495923 7.879277  -0.000000 0.000000 -0.000000
69  -0.195264 4.332631 -9.795810  -0.000000 0.000000 -0.000000
70  -0.194972 -1.133607 6.156297  -0.000000 0.000000 -0.000000
71  -2.714933 -12.742513 -3.267031  1.581755 -0.004084 0.003930
time 13
0  0.000006 0.000000 0.000000  -1.570800 -1.391899 -1.570792
1  -4.327822 -0.845730 -0.674796  -1.544956 -1.855077 -0.198630
2  6.027522 -0.000325 0.000193  -1.081541 -1.082661 -1.025035
3  11.692110 0.000643 -0.000739  -1.361397 -0.000017 -1.400722
4  11.479862 0.000600 -0.000707  1.244567 -0.649758 0.180380
5  3.859509 -0.142880 -1.192049  -0.550885 -0.255832 -1.866282
6  1.312588 0.000012 0.000007  -0.134281 -0.007565 -0.192402
7  0.729353 0.000053 0.000049  -0.007819 -0.009377 -0.049785
8  3.942145 0.046273 -0.431511  -0.463378 0.160456 -1.247694
9  1.539111 0.000085 0.000005  -0.004274 -0.078040 -1.047896
10  1.196332 0.000145 0.000029  0.008873 0.001422 -0.157248
11  3.883506 -0.047269 0.431382  -0.162351 0.500530 -0.533043
12  1.719573 -0.000026 0.000016  0.063764 -0.114983 -1.565865
13  1.209179 0.000091 0.000011  -0.006409 0.000350 -0.056241
14  4.085223 -0.082716 1.151041  0.170123 0.692306 0.093057
15  1.719450 -0.000011 0.000024  0.018421 -0.005135 -1.015982
16  1.099675 0.000049 0.000006  -0.080608 0.037327 -1.435667
17  0.971588 -1.283500 0.847609  -0.978328 -0.625346 -0.310208
18  1.789818 -0.000003 -0.000017  0.000998 -0.014468 0.721477
19  1.207013 -0.000012 -0.000044  0.001593 -0.000026 -0.111145
20  5.740638 0.000410 -0.000702  -0.102882 0.000003 0.000071
21  11.480981 0.000332 -0.000800  -0.045352 -0.113623 0.003253
22  6.027525 -0.000329 0.000203  1.765133 -0.450762 1.692160
23  0.000002 11.692099 -0.000007  -0.970313 -0.422042 -0.771832
24  0.000001 0.000009 0.000001  -0.492302 -0.000030 1.570738
25  -0.000001 -0.000011 -0.000001  0.868957 0.000002 1.570712
26  -3.286773 -12.103185 2.073871  1.473120 1.855075 -0.198639
27  6.027505 -0.000261 -0.000229  1.587149 0.568914 -0.378932
28  11.691993 0.000242 0.000858  0.245671 0.000078 -1.918512
29  11.478640 -0.001197 0.001149  -0.919416 0.185767 0.985216
30  3.452862 -0.227595 1.051754  0.877464 -0.056173 -2.075854
31  1.312558 0.000026 0.000000  -0.015677 -0.060057 -0.392348
32  0.729345 0.000065 -0.000027  0.007919 -0.008125 -0.675163
33  3.942046 0.050109 0.430997  0.524085 -0.097015 -1.851522
34  1.539097 0.000010 -0.000000  -0.012992 -0.051146 -0.650980
35  1.196299 0.000076 -0.000004  0.004319 -0.002068 -0.950551
36  3.883412 -0.050502 -0.431087  0.271728 -0.277378 -1.402722
37  1.719563 -0.000079 -0.000003  -0.025734 -0.006032 -1.456462
38  1.209197 0.000036 0.000011  0.000939 -0.002812 -0.276849
39  3.806436 -0.112148 -1.295330  0.005430 -0.274335 -0.317401
40  1.719412 -0.000100 -0.000035  0.051682 0.009641 -0.119353
41  1.099673 0.000025 0.000007  -0.003174 -0.004103 -1.062644
42  0.866372 -0.355430 -1.353142  1.308181 0.166838 -0.740879
43  1.789780 -0.000010 -0.000042  0.032550 0.123016 0.037179
44  1.206997 -0.000006 0.000005  0.000293 -0.001887 1.285959
45  5.740571 0.000056 0.000724  0.184973 -0.000014 0.000021
46  11.480671 -0.000203 0.000980  0.112744 0.069264 0.165456
47  6.027514 -0.000273 -0.000237  -0.690411 -0.562589 -1.534817
48  -0.000000 11.691974 -0.000008  -1.275909 0.722211 0.942282
49  0.000003 -0.000002 -0.000000  2.518198 -0.000041 1.570856
50  -0.000007 -0.000016 0.000004  2.272644 -0.000030 1.570865
51  -4.040942 -0.773645 -4.070774  -0.124491 3.013392 1.539353
52  0.000000 0.000000 -0.000001  0.008153 -0.000259 0.000009
53  -0.000000 -0.000000 -0.000000  1.565115 0.043565 -0.106862
54  -0.774801 -15.119012 -4.915944  -0.939465 -0.070152 -1.944245
55  -0.000000 0.000000 -0.000000  0.000000 -0.000000 -0.000002
56  0.000030 0.000029 0.000001  -1.571902 -0.044449 -0.106509
57  8.694838 -16.141689 -16.416052  1.570796 -0.000000 0.000000
58  -19.213562 7.451548 -15.500427  1.570796 -0.000000 0.000000
59  -0.670483 1.601972 -4.109488  1.570796 -0.000000 0.000000
60  -0.004311 0.001230 -0.000371  0.006898 -0.005534 -0.284229
61  2.073871 12.494887 -1.080626  1.570796 -0.000000 0.000000
62  0.000000 0.000000 0.000000  -0.078727 -3.136056 0.284226
63  -2.746032 -1.210788 -1.134430  1.570796 -0.000000 0.000000
64  -2.542601 -8.616948 -2.056165  1.577609 0.002253 0.001788
65  -0.200448 -1.761558 -1.306031  -0.000000 0.000000 0.000000
66  -0.200449 0.213337 26.427576  -0.000000 0.000000 0.000000
67  -0.200448 -0.895508 -0.420852  -0.000000 0.000000 0.000000
68  -0.104047 -4.495923 7.879276  -0.000000 0.000000 0.000000
69  -0.195264 4.332631 -9.795805  -0.000000 0.000000 0.000000
70  -0.194972 -1.133607 6.156297  -0.000000 0.000000 0.000000
71  -2.732999 -12.696659 -3.213883  1.577609 0.002253 0.001788
time 14
0  0.000006 0.000000 0.000000  -1.570800 -1.391899 -1.570792
1  -4.327822 -0.845730 -0.674796  -1.544956 -1.855077 -0.198630
2  6.027522 -0.000325 0.000193  -1.078771 -1.084970 -1.027763
3  11.692109 0.000643 -0.000739  -1.361397 -0.000016 -1.401191
4  11.479858 0.000599 -0.000710  1.241158 -0.648463 0.177298
5  3.859507 -0.142879 -1.192049  -0.550885 -0.255832 -1.866282
6  1.312589 0.000012 0.000009  -0.134281 -0.007565 -0.192402
7  0.729355 0.000054 0.000049  -0.007819 -0.009377 -0.049785
8  3.942143 0.046273 -0.431511  -0.463378 0.160456 -1.247694
9  1.539111 0.000085 0.000005  -0.004274 -0.078040 -1.047896
10  1.196333 0.000145 0.000031  0.008873 0.001422 -0.157248
11  3.883504 -0.047269 0.431381  -0.162351 0.500530 -0.533043
12  1.719572 -0.000028 0.000014  0.063764 -0.114983 -1.565865
13  1.209178 0.000092 0.000012  -0.006409 0.000350 -0.056241
14  4.085221 -0.082716 1.151041  0.170123 0.692306 0.093057
15  1.719448 -0.000011 0.000023  0.018421 -0.005135 -1.015982
16  1.099676 0.000047 0.000005  -0.080608 0.037327 -1.435667
17  0.971588 -1.283499 0.847610  -0.978328 -0.625346 -0.310208
18  1.789819 -0.000003 -0.000018  0.000998 -0.014468 0.721477
19  1.207015 -0.000012 -0.000043  0.001594 -0.000026 -0.111145
20  5.740636 0.000410 -0.000703  -0.104192 0.000003 0.000071
21  11.480980 0.000332 -0.000800  -0.046163 -0.113360 0.002481
22  6.027525 -0.000329 0.000203  1.762768 -0.449188 1.692909
23  0.000003 11.692099 -0.000007  -0.970594 -0.422292 -0.772020
24  0.000002 0.000008 -0.000000  -0.492302 -0.000031 1.570739
25  -0.000000 -0.000012 -0.000001  0.868957 0.000002 1.570712
26  -3.286773 -12.103185 2.073871  1.473120 1.855075 -0.198639
27  6.027505 -0.000261 -0.000229  1.587848 0.568335 -0.378728
28  11.691993 0.000243 0.000857  0.245671 0.000078 -1.921446
29  11.478616 -0.001209 0.001153  -0.925070 0.189766 0.987501
30  3.452862 -0.227594 1.051753  0.877464 -0.056173 -2.075854
31  1.312558 0.000025 -0.000000  -0.015677 -0.060057 -0.392348
32  0.729345 0.000065 -0.000027  0.007919 -0.008125 -0.675163
33  3.942046 0.050109 0.430996  0.524085 -0.097015 -1.851522
34  1.539097 0.000010 0.000000  -0.012992 -0.051146 -0.650980
35  1.196300 0.000076 -0.000003  0.004319 -0.002068 -0.950551
36  3.883411 -0.050502 -0.431088  0.271728 -0.277378 -1.402722
37  1.719564 -0.000079 -0.000004  -0.025734 -0.006032 -1.456462
38  1.209196 0.000035 0.000011  0.000939 -0.002812 -0.276849
39  3.806437 -0.112148 -1.295329  0.005430 -0.274335 -0.317401
40  1.719412 -0.000099 -0.000034  0.051682 0.009641 -0.119353
41  1.099673 0.000024 0.000007  -0.003174 -0.004103 -1.062644
42  0.866373 -0.355430 -1.353142  1.308181 0.166838 -0.740879
43  1.789779 -0.000009 -0.000042  0.032551 0.123016 0.037179
44  1.206996 -0.000006 0.000005  0.000293 -0.001886 1.285959
45  5.740572 0.000054 0.000724  0.184087 -0.000014 0.000021
46  11.480667 -0.000206 0.000980  0.111281 0.069609 0.165882
47  6.027514 -0.000273 -0.000237  -0.689505 -0.562283 -1.535472
48  -0.000001 11.691975 -0.000008  -1.277666 0.724024 0.943014
49  0.000005 -0.000002 0.000000  2.518198 -0.000041 1.570856
50  -0.000006 -0.000015 0.000005  2.272644 -0.000030 1.570865
51  -4.036246 -0.747292 -4.055040  -0.130779 3.016473 1.536391
52  0.000000 0.000000 -0.000000  0.008153 -0.000259 0.000009
53  0.000000 -0.000000 -0.000000  1.565115 0.043565 -0.106862
54  -0.806510 -15.102097 -4.879537  -0.944324 -0.075144 -1.946061
55  -0.000000 -0.000000 -0.000000  0.000000 -0.000000 -0.000002
56  0.000030 0.000029 0.000001  -1.571901 -0.044449 -0.106509
57  8.694838 -16.141689 -16.416052  1.570796 -0.000000 0.000000
58  -19.213562 7.451548 -15.500427  1.570796 -0.000000 0.000000
59  -0.670483 1.601972 -4.109488  1.570796 -0.000000 0.000000
60  -0.004311 0.001230 -0.000371  0.006898 -0.005534 -0.284229
61  2.073871 12.494887 -1.080626  1.570796 -0.000000 0.000000
62  0.000000 0.000000 0.000000  -0.078727 -3.136056 0.284226
63  -2.746032 -1.210788 -1.134430  1.570796 -0.000000 0.000000
64  -2.542105 -8.588029 -2.027367  1.574739 0.008591 -0.000396
65  -0.200448 -1.761558 -1.306031  0.000000 -0.000000 -0.000000
66  -0.200449 0.213337 26.427568  0.000000 -0.000000 -0.000000
67  -0.200449 -0.895508 -0.420853  0.000000 -0.000000 -0.000000
68  -0.104047 -4.495923 7.879276  0.000000 -0.000000 -0.000000
69  -0.195264 4.332630 -9.795807  0.000000 -0.000000 -0.000000
70  -0.194972 -1.133607 6.156296  0.000000 -0.000000 -0.000000
71  -2.748646 -12.670618 -3.172096  1.574739 0.008591 -0.000396
time 15
0  0.000006 0.000000 0.000000  -1.570800 -1.391899 -1.570792
1  -4.327822 -0.845730 -0.674796  -1.544956 -1.855077 -0.198630
2  6.027522 -0.000325 0.000193  -1.077645 -1.086535 -1.029490
3  11.692107 0.000643 -0.000739  -1.361397 -0.000017 -1.400828
4  11.479861 0.000599 -0.000708  1.240268 -0.647406 0.175817
5  3.859509 -0.142880 -1.192050  -0.550885 -0.255832 -1.866282
6  1.312590 0.000012 0.000008  -0.134281 -0.007565 -0.192402
7  0.729353 0.000054 0.000047  -0.007819 -0.009377 -0.049785
8  3.942143 0.046273 -0.431512  -0.463378 0.160456 -1.247694
9  1.539111 0.000087 0.000006  -0.004274 -0.078040 -1.047896
10  1.196333 0.000146 0.000030  0.008873 0.001422 -0.157248
11  3.883505 -0.047269 0.431381  -0.162351 0.500530 -0.533043
12  1.719574 -0.000027 0.000014  0.063764 -0.114983 -1.565865
13  1.209180 0.000092 0.000012  -0.006409 0.000350 -0.056241
14  4.085221 -0.082716 1.151040  0.170123 0.692306 0.093057
15  1.719451 -0.000011 0.000023  0.018421 -0.005135 -1.015982
16  1.099675 0.000048 0.000005  -0.080608 0.037327 -1.435667
17  0.971586 -1.283500 0.847609  -0.978328 -0.625346 -0.310208
18  1.789819 -0.000002 -0.000018  0.000998 -0.014468 0.721477
19  1.207015 -0.000011 -0.000043  0.001593 -0.000026 -0.111145
20  5.740637 0.000410 -0.000703  -0.104658 0.000003 0.000070
21  11.480981 0.000331 -0.000799  -0.046430 -0.113135 0.002173
22  6.027525 -0.000329 0.000203  1.761527 -0.447973 1.692716
23  0.000002 11.692098 -0.000007  -0.970377 -0.422099 -0.771875
24  0.000002 0.000008 -0.000001  -0.492302 -0.000030 1.570738
25  0.000000 -0.000011 -0.000001  0.868957 0.000002 1.570712
26  -3.286773 -12.103185 2.073871  1.473120 1.855075 -0.198639
27  6.027505 -0.000261 -0.000229  1.588102 0.568338 -0.378651
28  11.691993 0.000241 0.000857  0.245671 0.000078 -1.922366
29  11.478608 -0.001212 0.001153  -0.927720 0.192048 0.987927
30  3.452861 -0.227595 1.051754  0.877464 -0.056173 -2.075854
31  1.312558 0.000025 0.000000  -0.015677 -0.060057 -0.392348
32  0.729345 0.000066 -0.000027  0.007919 -0.008125 -0.675163
33  3.942046 0.050109 0.430997  0.524085 -0.097016 -1.851522
34  1.539097 0.000010 -0.000000  -0.012992 -0.051146 -0.650980
35  1.196299 0.000075 -0.000004  0.004319 -0.002069 -0.950552
36  3.883411 -0.050502 -0.431087  0.271728 -0.277378 -1.402722
37  1.719564 -0.000079 -0.000003  -0.025734 -0.006032 -1.456462
38  1.209197 0.000035 0.000011  0.000939 -0.002812 -0.276849
39  3.806436 -0.112147 -1.295329  0.005430 -0.274335 -0.317401
40  1.719411 -0.000100 -0.000034  0.051682 0.009641 -0.119353
41  1.099673 0.000024 0.000007  -0.003174 -0.004103 -1.062644
42  0.866373 -0.355430 -1.353142  1.308181 0.166838 -0.740879
43  1.789779 -0.000009 -0.000042  0.032550 0.123016 0.037179
44  1.206997 -0.000006 0.000005  0.000293 -0.001887 1.285959
45  5.740574 0.000054 0.000725  0.183593 -0.000014 0.000021
46  11.480667 -0.000207 0.000981  0.110569 0.069811 0.165933
47  6.027514 -0.000273 -0.000237  -0.689407 -0.562086 -1.535584
48  -0.000002 11.691976 -0.000008  -1.278216 0.724593 0.943243
49  0.000004 -0.000001 0.000000  2.518198 -0.000041 1.570856
50  -0.000007 -0.000015 0.000005  2.272644 -0.000030 1.570865
51  -4.033085 -0.739232 -4.048327  -0.133614 3.018495 1.535047
52  0.000000 -0.000000 -0.000001  0.008153 -0.000259 0.000009
53  -0.000000 0.000000 -0.000000  1.565115 0.043565 -0.106862
54  -0.819949 -15.098806 -4.854523  -0.946306 -0.077989 -1.946901
55  -0.000001 0.000000 -0.000000  -0.000000 -0.000000 -0.000002
56  0.000030 0.000029 0.000001  -1.571901 -0.044449 -0.106509
57  8.694838 -16.141689 -16.416052  1.570796 -0.000000 0.000000
58  -19.213562 7.451548 -15.500427  1.570796 -0.000000 0.000000
59  -0.670483 1.601972 -4.109488  1.570796 -0.000000 0.000000
60  -0.004311 0.001230 -0.000371  0.006898 -0.005534 -0.284229
61  2.073871 12.494887 -1.080626  1.570796 -0.000000 0.000000
62  0.000000 0.000000 0.000000  -0.078727 -3.136056 0.284226
63  -2.746032 -1.210788 -1.134430  1.570796 -0.000000 0.000000
64  -2.540864 -8.577545 -2.009896  1.572815 0.011471 -0.001408
65  -0.200448 -1.761559 -1.306031  -0.000000 0.000000 0.000000
66  -0.200449 0.213337 26.427572  -0.000000 0.000000 0.000000
67  -0.200449 -0.895508 -0.420853  -0.000000 0.000000 0.000000
68  -0.104047 -4.495923 7.879278  -0.000000 0.000000 0.000000
69  -0.195264 4.332630 -9.795809  -0.000000 0.000000 0.000000
70  -0.194973 -1.133608 6.156298  -0.000000 0.000000 0.000000
71  -2.754745 -12.662117 -3.146173  1.572815 0.011471 -0.001408
time 16
0  0.000006 0.000000 0.000000  -1.570800 -1.391899 -1.570792
1  -4.327822 -0.845730 -0.674796  -1.544956 -1.855077 -0.198630
2  6.027522 -0.000325 0.000193  -1.078951 -1.086827 -1.029541
3  11.692108 0.000644 -0.000739  -1.361397 -0.000016 -1.401490
4  11.479857 0.000598 -0.000709  1.242665 -0.647843 0.176851
5  3.859508 -0.142880 -1.192049  -0.550885 -0.255832 -1.866282
6  1.312591 0.000012 0.000006  -0.134281 -0.007565 -0.192402
7  0.729354 0.000054 0.000051  -0.007819 -0.009377 -0.049785
8  3.942142 0.046272 -0.431511  -0.463378 0.160456 -1.247694
9  1.539111 0.000085 0.000006  -0.004274 -0.078040 -1.047896
10  1.196332 0.000144 0.000028  0.008873 0.001422 -0.157248
11  3.883504 -0.047270 0.431382  -0.162351 0.500530 -0.533043
12  1.719573 -0.000027 0.000013  0.063764 -0.114983 -1.565865
13  1.209178 0.000091 0.000012  -0.006409 0.000351 -0.056241
14  4.085221 -0.082716 1.151041  0.170123 0.692306 0.093057
15  1.719450 -0.000011 0.000022  0.018421 -0.005135 -1.015982
16  1.099675 0.000049 0.000007  -0.080608 0.037327 -1.435666
17  0.971586 -1.283500 0.847609  -0.978328 -0.625346 -0.310207
18  1.789821 -0.000002 -0.000018  0.000998 -0.014468 0.721477
19  1.207018 -0.000011 -0.000044  0.001593 -0.000026 -0.111145
20  5.740638 0.000409 -0.000702  -0.104245 0.000003 0.000071
21  11.480980 0.000331 -0.000799  -0.045927 -0.113205 0.002513
22  6.027525 -0.000329 0.000203  1.762011 -0.447458 1.691299
23  0.000002 11.692098 -0.000007  -0.970773 -0.422451 -0.772139
24  0.000002 0.000008 -0.000000  -0.492302 -0.000031 1.570739
25  -0.000001 -0.000012 -0.000001  0.868957 0.000002 1.570712
26  -3.286773 -12.103185 2.073871  1.473120 1.855075 -0.198639
27  6.027505 -0.000261 -0.000229  1.587592 0.568170 -0.378809
28  11.691993 0.000241 0.000857  0.245671 0.000078 -1.922715
29  11.478601 -0.001214 0.001152  -0.925967 0.192934 0.986925
30  3.452861 -0.227595 1.051754  0.877464 -0.056173 -2.075854
31  1.312559 0.000026 0.000000  -0.015677 -0.060057 -0.392348
32  0.729345 0.000065 -0.000027  0.007919 -0.008125 -0.675163
33  3.942046 0.050109 0.430997  0.524085 -0.097016 -1.851522
34  1.539097 0.000010 0.000000  -0.012992 -0.051146 -0.650980
35  1.196299 0.000076 -0.000004  0.004319 -0.002069 -0.950552
36  3.883411 -0.050502 -0.431087  0.271728 -0.277378 -1.402722
37  1.719563 -0.000079 -0.000003  -0.025734 -0.006032 -1.456462
38  1.209197 0.000035 0.000011  0.000939 -0.002812 -0.276849
39  3.806436 -0.112148 -1.295329  0.005430 -0.274335 -0.317401
40  1.719412 -0.000100 -0.000034  0.051682 0.009641 -0.119353
41  1.099673 0.000025 0.000007  -0.003174 -0.004103 -1.062644
42  0.866372 -0.355430 -1.353142  1.308181 0.166838 -0.740879
43  1.789779 -0.000009 -0.000042  0.032550 0.123016 0.037179
44  1.206996 -0.000006 0.000005  0.000293 -0.001887 1.285959
45  5.740572 0.000055 0.000724  0.183810 -0.000014 0.000021
46  11.480664 -0.000207 0.000980  0.110825 0.070069 0.165619
47  6.027514 -0.000273 -0.000237  -0.689429 -0.562547 -1.535456
48  -0.000002 11.691977 -0.000007  -1.278425 0.724808 0.943330
49  0.000004 -0.000000 -0.000000  2.518197 -0.000041 1.570856
50  -0.000007 -0.000015 0.000005  2.272644 -0.000030 1.570865
51  -4.029543 -0.735593 -4.052372  -0.131769 3.019600 1.535494
52  0.000000 -0.000000 -0.000000  0.008153 -0.000259 0.000009
53  -0.000000 -0.000000 0.000000  1.565115 0.043565 -0.106862
54  -0.811808 -15.095387 -4.836017  -0.944204 -0.078419 -1.946844
55  -0.000000 -0.000001 -0.000000  0.000000 -0.000000 -0.000002
56  0.000030 0.000028 0.000001  -1.571901 -0.044449 -0.106509
57  8.694838 -16.141689 -16.416052  1.570796 -0.000000 0.000000
58  -19.213562 7.451548 -15.500427  1.570796 -0.000000 0.000000
59  -0.670483 1.601972 -4.109488  1.570796 -0.000000 0.000000
60  -0.004311 0.001230 -0.000371  0.006898 -0.005534 -0.284229
61  2.073871 12.494887 -1.080626  1.570796 -0.000000 0.000000
62  0.000000 0.000000 0.000000  -0.078727 -3.136056 0.284226
63  -2.746032 -1.210788 -1.134430  1.570796 -0.000000 0.000000
64  -2.539251 -8.571187 -2.002105  1.571648 0.009679 -0.001199
65  -0.200448 -1.761558 -1.306031  -0.000000 0.000000 0.000000
66  -0.200449 0.213337 26.427570  -0.000000 0.000000 0.000000
67  -0.200449 -0.895508 -0.420854  -0.000000 0.000000 0.000000
68  -0.104047 -4.495923 7.879276  -0.000000 0.000000 0.000000
69  -0.195264 4.332630 -9.795808  -0.000000 0.000000 0.000000
70  -0.194972 -1.133607 6.156297  -0.000000 0.000000 0.000000
71  -2.750197 -12.657133 -3.133986  1.571648 0.009679 -0.001199
time 17
0  0.000006 0.000000 0.000000  -1.570800 -1.391899 -1.570792
1  -4.327822 -0.845730 -0.674796  -1.544956 -1.855077 -0.198630
2  6.027522 -0.000325 0.000193  -1.081095 -1.086644 -1.028979
3  11.692109 0.000645 -0.000740  -1.361397 -0.000017 -1.402398
4  11.479854 0.000599 -0.000711  1.246219 -0.648793 0.179301
5  3.859509 -0.142880 -1.192049  -0.550885 -0.255832 -1.866282
6  1.312590 0.000012 0.000007  -0.134281 -0.007565 -0.192402
7  0.729354 0.000054 0.000052  -0.007819 -0.009377 -0.049785
8  3.942145 0.046273 -0.431512  -0.463378 0.160456 -1.247694
9  1.539111 0.000085 0.000006  -0.004274 -0.078040 -1.047896
10  1.196332 0.000145 0.000031  0.008873 0.001422 -0.157248
11  3.883504 -0.047269 0.431381  -0.162351 0.500530 -0.533043
12  1.719572 -0.000028 0.000015  0.063764 -0.114983 -1.565865
13  1.209179 0.000090 0.000011  -0.006409 0.000350 -0.056241
14  4.085222 -0.082716 1.151040  0.170123 0.692306 0.093057
15  1.719449 -0.000011 0.000022  0.018421 -0.005135 -1.015982
16  1.099675 0.000051 0.000006  -0.080608 0.037327 -1.435666
17  0.971589 -1.283498 0.847609  -0.978328 -0.625346 -0.310208
18  1.789819 -0.000003 -0.000018  0.000998 -0.014468 0.721477
19  1.207014 -0.000012 -0.000044  0.001593 -0.000026 -0.111145
20  5.740638 0.000410 -0.000701  -0.103441 0.000003 0.000071
21  11.480979 0.000332 -0.000798  -0.045130 -0.113385 0.003184
22  6.027525 -0.000329 0.000203  1.763104 -0.447216 1.689490
23  0.000001 11.692098 -0.000007  -0.971318 -0.422935 -0.772502
24  0.000004 0.000010 -0.000001  -0.492302 -0.000030 1.570739
25  -0.000001 -0.000011 -0.000001  0.868957 0.000002 1.570712
26  -3.286773 -12.103185 2.073871  1.473120 1.855075 -0.198639
27  6.027505 -0.000261 -0.000229  1.586784 0.568166 -0.379055
28  11.691992 0.000241 0.000857  0.245671 0.000078 -1.922799
29  11.478603 -0.001214 0.001154  -0.922053 0.193229 0.985880
30  3.452861 -0.227595 1.051754  0.877464 -0.056173 -2.075854
31  1.312558 0.000025 0.000000  -0.015677 -0.060057 -0.392348
32  0.729346 0.000065 -0.000028  0.007919 -0.008125 -0.675163
33  3.942046 0.050109 0.430996  0.524085 -0.097015 -1.851522
34  1.539096 0.000009 0.000000  -0.012992 -0.051146 -0.650980
35  1.196299 0.000075 -0.000003  0.004319 -0.002068 -0.950551
36  3.883411 -0.050502 -0.431087  0.271728 -0.277378 -1.402722
37  1.719563 -0.000079 -0.000004  -0.025734 -0.006032 -1.456462
38  1.209197 0.000036 0.000011  0.000939 -0.002812 -0.276849
39  3.806436 -0.112148 -1.295329  0.005430 -0.274335 -0.317401
40  1.719412 -0.000100 -0.000035  0.051681 0.009641 -0.119353
41  1.099672 0.000025 0.000007  -0.003174 -0.004103 -1.062644
42  0.866372 -0.355431 -1.353142  1.308181 0.166838 -0.740879
43  1.789780 -0.000009 -0.000042  0.032551 0.123016 0.037179
44  1.206996 -0.000006 0.000005  0.000293 -0.001887 1.285959
45  5.740572 0.000056 0.000723  0.184437 -0.000014 0.000021
46  11.480664 -0.000207 0.000980  0.111533 0.070402 0.165248
47  6.027514 -0.000273 -0.000237  -0.689749 -0.563172 -1.535097
48  -0.000001 11.691974 -0.000008  -1.278475 0.724860 0.943351
49  0.000005 -0.000003 0.000000  2.518198 -0.000041 1.570856
50  -0.000007 -0.000016 0.000004  2.272644 -0.000030 1.570865
51  -4.023663 -0.734297 -4.058964  -0.127778 3.020065 1.536468
52  0.000000 -0.000000 -0.000000  0.008153 -0.000259 0.000009
53  0.000000 -0.000000 -0.000000  1.565115 0.043565 -0.106862
54  -0.795848 -15.092976 -4.821242  -0.940304 -0.077533 -1.946658
55  0.000000 -0.000000 -0.000000  0.000000 -0.000000 -0.000002
56  0.000030 0.000029 0.000001  -1.571901 -0.044449 -0.106509
57  8.694838 -16.141689 -16.416052  1.570796 -0.000000 0.000000
58  -19.213562 7.451548 -15.500427  1.570796 -0.000000 0.000000
59  -0.670483 1.601972 -4.109488  1.570796 -0.000000 0.000000
60  -0.004311 0.001230 -0.000371  0.006898 -0.005534 -0.284229
61  2.073871 12.494887 -1.080626  1.570796 -0.000000 0.000000
62  0.000000 0.000000 0.000000  -0.078727 -3.136056 0.284226
63  -2.746032 -1.210788 -1.134430  1.570796 -0.000000 0.000000
64  -2.537637 -8.567921 -1.998105  1.571049 0.005736 -0.000714
65  -0.200448 -1.761558 -1.306031  0.000000 0.000000 -0.000000
66  -0.200449 0.213337 26.427574  0.000000 0.000000 -0.000000
67  -0.200449 -0.895508 -0.420852  0.000000 0.000000 -0.000000
68  -0.104048 -4.495923 7.879279  0.000000 0.000000 -0.000000
69  -0.195264 4.332631 -9.795806  0.000000 0.000000 -0.000000
70  -0.194973 -1.133607 6.156297  0.000000 0.000000 -0.000000
71  -2.742123 -12.654650 -3.128340  1.571049 0.005736 -0.000714
time 18
0  0.000006 0.000000 0.000000  -1.570800 -1.391899 -1.570792
1  -4.327822 -0.845730 -0.674796  -1.544956 -1.855077 -0.198630
2  6.027522 -0.000325 0.000193  -1.083094 -1.086305 -1.028295
3  11.692108 0.000643 -0.000740  -1.361397 -0.000017 -1.403198
4  11.479846 0.000599 -0.000715  1.249443 -0.649747 0.181786
5  3.859510 -0.142881 -1.192050  -0.550885 -0.255832 -1.866282
6  1.312589 0.000013 0.000007  -0.134281 -0.007565 -0.192402
7  0.729355 0.000054 0.000051  -0.007819 -0.009376 -0.049785
8  3.942145 0.046273 -0.431513  -0.463378 0.160456 -1.247694
9  1.539110 0.000084 0.000005  -0.004274 -0.078040 -1.047896
10  1.196333 0.000146 0.000029  0.008873 0.001422 -0.157248
11  3.883504 -0.047270 0.431381  -0.162351 0.500530 -0.533043
12  1.719574 -0.000027 0.000014  0.063764 -0.114983 -1.565865
13  1.209179 0.000092 0.000010  -0.006409 0.000351 -0.056241
14  4.085223 -0.082715 1.151040  0.170123 0.692306 0.093057
15  1.719449 -0.000011 0.000023  0.018421 -0.005135 -1.015982
16  1.099675 0.000048 0.000004  -0.080608 0.037327 -1.435666
17  0.971588 -1.283499 0.847608  -0.978328 -0.625346 -0.310207
18  1.789821 -0.000003 -0.000017  0.000998 -0.014468 0.721477
19  1.207015 -0.000012 -0.000044  0.001593 -0.000026 -0.111145
20  5.740637 0.000410 -0.000702  -0.102655 0.000003 0.000071
21  11.480977 0.000332 -0.000801  -0.044392 -0.113571 0.003841
22  6.027525 -0.000329 0.000203  1.764199 -0.447142 1.687931
23  0.000002 11.692099 -0.000006  -0.971798 -0.423362 -0.772822
24  0.000002 0.000008 -0.000002  -0.492302 -0.000031 1.570739
25  -0.000001 -0.000011 -0.000000  0.868957 0.000002 1.570712
26  -3.286773 -12.103185 2.073871  1.473120 1.855075 -0.198639
27  6.027505 -0.000261 -0.000229  1.586037 0.568234 -0.379282
28  11.691993 0.000241 0.000857  0.245671 0.000078 -1.922751
29  11.478601 -0.001214 0.001156  -0.918128 0.193206 0.985061
30  3.452862 -0.227594 1.051754  0.877464 -0.056173 -2.075854
31  1.312558 0.000026 0.000000  -0.015677 -0.060057 -0.392348
32  0.729345 0.000066 -0.000027  0.007919 -0.008125 -0.675163
33  3.942046 0.050110 0.430997  0.524085 -0.097015 -1.851522
34  1.539096 0.000009 -0.000000  -0.012992 -0.051146 -0.650980
35  1.196299 0.000076 -0.000004  0.004319 -0.002068 -0.950552
36  3.883412 -0.050501 -0.431087  0.271728 -0.277378 -1.402722
37  1.719563 -0.000078 -0.000004  -0.025734 -0.006032 -1.456462
38  1.209197 0.000035 0.000011  0.000939 -0.002812 -0.276849
39  3.806436 -0.112147 -1.295330  0.005430 -0.274335 -0.317401
40  1.719412 -0.000100 -0.000034  0.051682 0.009641 -0.119353
41  1.099673 0.000025 0.000007  -0.003174 -0.004103 -1.062644
42  0.866372 -0.355430 -1.353142  1.308181 0.166838 -0.740879
43  1.789779 -0.000009 -0.000042  0.032550 0.123016 0.037179
44  1.206996 -0.000006 0.000005  0.000293 -0.001887 1.285959
45  5.740571 0.000056 0.000725  0.185093 -0.000014 0.000021
46  11.480663 -0.000207 0.000981  0.112270 0.070690 0.164939
47  6.027514 -0.000273 -0.000237  -0.690123 -0.563721 -1.534722
48  -0.000001 11.691977 -0.000007  -1.278447 0.724830 0.943339
49  0.000004 -0.000001 -0.000000  2.518198 -0.000041 1.570856
50  -0.000007 -0.000015 0.000005  2.272644 -0.000030 1.570865
51  -4.018130 -0.734282 -4.065086  -0.123801 3.020154 1.537442
52  0.000000 0.000000 -0.000000  0.008153 -0.000259 0.000009
53  0.000000 0.000000 -0.000000  1.565115 0.043565 -0.106862
54  -0.780284 -15.091542 -4.811420  -0.936543 -0.076293 -1.946456
55  0.000000 -0.000000 -0.000001  0.000000 -0.000000 -0.000002
56  0.000030 0.000029 0.000000  -1.571902 -0.044449 -0.106509
57  8.694838 -16.141689 -16.416052  1.570796 -0.000000 0.000000
58  -19.213562 7.451548 -15.500427  1.570796 -0.000000 0.000000
59  -0.670483 1.601972 -4.109488  1.570796 -0.000000 0.000000
60  -0.004311 0.001230 -0.000371  0.006898 -0.005534 -0.284229
61  2.073871 12.494887 -1.080626  1.570796 -0.000000 0.000000
62  0.000000 0.000000 0.000000  -0.078727 -3.136056 0.284226
63  -2.746032 -1.210788 -1.134430  1.570796 -0.000000 0.000000
64  -2.536397 -8.566718 -1.996631  1.570828 0.001792 -0.000224
65  -0.200449 -1.761558 -1.306032  -0.000000 -0.000000 -0.000000
66  -0.200449 0.213337 26.427572  -0.000000 -0.000000 -0.000000
67  -0.200449 -0.895508 -0.420854  -0.000000 -0.000000 -0.000000
68  -0.104048 -4.495923 7.879277  -0.000000 -0.000000 -0.000000
69  -0.195264 4.332630 -9.795807  -0.000000 -0.000000 -0.000000
70  -0.194973 -1.133607 6.156296  -0.000000 -0.000000 -0.000000
71  -2.734417 -12.653799 -3.126750  1.570828 0.001792 -0.000224
time 19
0  0.000006 0.000000 0.000000  -1.570800 -1.391899 -1.570792
1  -4.327822 -0.845730 -0.674796  -1.544956 -1.855077 -0.198630
2  6.027522 -0.000325 0.000193  -1.083976 -1.086123 -1.027963
3  11.692108 0.000643 -0.000739  -1.361397 -0.000017 -1.403543
4  11.479845 0.000598 -0.000715  1.250847 -0.650183 0.182922
5  3.859507 -0.142880 -1.192050  -0.550885 -0.255832 -1.866282
6  1.312589 0.000011 0.000008  -0.134281 -0.007565 -0.192402
7  0.729355 0.000053 0.000049  -0.007819 -0.009377 -0.049785
8  3.942143 0.046273 -0.431512  -0.463378 0.160456 -1.247694
9  1.539111 0.000084 0.000004  -0.004274 -0.078040 -1.047896
10  1.196334 0.000145 0.000031  0.008873 0.001422 -0.157248
11  3.883504 -0.047270 0.431381  -0.162351 0.500530 -0.533043
12  1.719573 -0.000026 0.000016  0.063764 -0.114983 -1.565865
13  1.209177 0.000092 0.000011  -0.006409 0.000351 -0.056241
14  4.085222 -0.082717 1.151040  0.170123 0.692306 0.093057
15  1.719448 -0.000012 0.000022  0.018421 -0.005135 -1.015982
16  1.099674 0.000049 0.000006  -0.080608 0.037327 -1.435666
17  0.971586 -1.283500 0.847609  -0.978328 -0.625346 -0.310208
18  1.789819 -0.000003 -0.000018  0.000998 -0.014468 0.721477
19  1.207016 -0.000012 -0.000044  0.001593 -0.000026 -0.111145
20  5.740637 0.000410 -0.000703  -0.102302 0.000003 0.000070
21  11.480977 0.000331 -0.000801  -0.044067 -0.113656 0.004137
22  6.027525 -0.000329 0.000203  1.764698 -0.447139 1.687268
23  0.000003 11.692097 -0.000007  -0.972005 -0.423545 -0.772959
24  0.000002 0.000008 -0.000002  -0.492302 -0.000030 1.570739
25  -0.000000 -0.000012 -0.000001  0.868957 0.000002 1.570712
26  -3.286773 -12.103185 2.073871  1.473120 1.855075 -0.198639
27  6.027505 -0.000261 -0.000229  1.585709 0.568278 -0.379382
28  11.691992 0.000241 0.000857  0.245671 0.000078 -1.922706
29  11.478601 -0.001216 0.001154  -0.916342 0.193138 0.984729
30  3.452862 -0.227595 1.051754  0.877464 -0.056173 -2.075854
31  1.312559 0.000025 0.000000  -0.015677 -0.060057 -0.392348
32  0.729344 0.000065 -0.000027  0.007919 -0.008125 -0.675163
33  3.942046 0.050109 0.430997  0.524085 -0.097015 -1.851522
34  1.539097 0.000010 -0.000000  -0.012992 -0.051146 -0.650980
35  1.196299 0.000076 -0.000004  0.004319 -0.002068 -0.950551
36  3.883411 -0.050502 -0.431087  0.271728 -0.277378 -1.402722
37  1.719564 -0.000079 -0.000003  -0.025734 -0.006032 -1.456462
38  1.209197 0.000036 0.000011  0.000939 -0.002812 -0.276849
39  3.806436 -0.112147 -1.295330  0.005430 -0.274335 -0.317401
40  1.719412 -0.000099 -0.000035  0.051681 0.009641 -0.119353
41  1.099673 0.000025 0.000007  -0.003174 -0.004103 -1.062644
42  0.866372 -0.355430 -1.353142  1.308181 0.166838 -0.740879
43  1.789780 -0.000009 -0.000042  0.032550 0.123016 0.037179
44  1.206996 -0.000006 0.000005  0.000293 -0.001887 1.285959
45  5.740571 0.000054 0.000723  0.185397 -0.000014 0.000021
46  11.480663 -0.000208 0.000980  0.112610 0.070813 0.164810
47  6.027514 -0.000273 -0.000237  -0.690303 -0.563956 -1.534549
48  -0.000001 11.691975 -0.000008  -1.278420 0.724802 0.943328
49  0.000004 -0.000001 -0.000000  2.518198 -0.000041 1.570856
50  -0.000006 -0.000015 0.000005  2.272644 -0.000030 1.570865
51  -4.015676 -0.734508 -4.067778  -0.121995 3.020127 1.537884
52  0.000000 -0.000000 0.000000  0.008153 -0.000259 0.000009
53  0.000000 0.000000 -0.000001  1.565115 0.043565 -0.106862
54  -0.773287 -15.091065 -4.807849  -0.934859 -0.075665 -1.946360
55  -0.000002 -0.000001 0.000000  0.000000 -0.000000 -0.000002
56  0.000029 0.000028 0.000001  -1.571901 -0.044449 -0.106509
57  8.694838 -16.141689 -16.416052  1.570796 -0.000000 0.000000
58  -19.213562 7.451548 -15.500427  1.570796 -0.000000 0.000000
59  -0.670483 1.601972 -4.109488  1.570796 -0.000000 0.000000
60  -0.004311 0.001230 -0.000371  0.006898 -0.005534 -0.284229
61  2.073871 12.494887 -1.080626  1.570796 -0.000000 0.000000
62  0.000000 0.000000 0.000000  -0.078727 -3.136056 0.284226
63  -2.746032 -1.210788 -1.134430  1.570796 -0.000000 0.000000
64  -2.535900 -8.566546 -1.996421  1.570796 -0.000000 0.000000
65  -0.200448 -1.761558 -1.306031  0.000000 -0.000000 0.000000
66  -0.200449 0.213337 26.427570  0.000000 -0.000000 0.000000
67  -0.200449 -0.895508 -0.420853  0.000000 -0.000000 0.000000
68  -0.104048 -4.495923 7.879277  0.000000 -0.000000 0.000000
69  -0.195264 4.332630 -9.795806  0.000000 -0.000000 0.000000
70  -0.194973 -1.133607 6.156297  0.000000 -0.000000 0.000000
71  -2.730981 -12.653707 -3.126761  1.570796 -0.000000 0.000000
end
