version 1
nodes
0 "ValveBiped.Bip01_Spine4" -1
1 "ValveBiped.Bip01_L_Clavicle" 0
2 "ValveBiped.Bip01_L_UpperArm" 1
3 "ValveBiped.Bip01_L_Forearm" 2
4 "ValveBiped.Bip01_L_Hand" 3
5 "ValveBiped.Bip01_L_Finger4" 4
6 "ValveBiped.Bip01_L_Finger41" 5
7 "ValveBiped.Bip01_L_Finger42" 6
8 "ValveBiped.Bip01_L_Finger3" 4
9 "ValveBiped.Bip01_L_Finger31" 8
10 "ValveBiped.Bip01_L_Finger32" 9
11 "ValveBiped.Bip01_L_Finger2" 4
12 "ValveBiped.Bip01_L_Finger21" 11
13 "ValveBiped.Bip01_L_Finger22" 12
14 "ValveBiped.Bip01_L_Finger1" 4
15 "ValveBiped.Bip01_L_Finger11" 14
16 "ValveBiped.Bip01_L_Finger12" 15
17 "ValveBiped.Bip01_L_Finger0" 4
18 "ValveBiped.Bip01_L_Finger01" 17
19 "ValveBiped.Bip01_L_Finger02" 18
20 "ValveBiped.Bip01_L_Ulna" 3
21 "ValveBiped.Bip01_L_Wrist" 3
22 "rig_l_upperarm" 1
23 "rig_l_forearm" 22
24 "rig_d_l_forearm" 23
25 "rig_d_l_upperarm" 22
26 "ValveBiped.Bip01_R_Clavicle" 0
27 "ValveBiped.Bip01_R_UpperArm" 26
28 "ValveBiped.Bip01_R_Forearm" 27
29 "ValveBiped.Bip01_R_Hand" 28
30 "ValveBiped.Bip01_R_Finger4" 29
31 "ValveBiped.Bip01_R_Finger41" 30
32 "ValveBiped.Bip01_R_Finger42" 31
33 "ValveBiped.Bip01_R_Finger3" 29
34 "ValveBiped.Bip01_R_Finger31" 33
35 "ValveBiped.Bip01_R_Finger32" 34
36 "ValveBiped.Bip01_R_Finger2" 29
37 "ValveBiped.Bip01_R_Finger21" 36
38 "ValveBiped.Bip01_R_Finger22" 37
39 "ValveBiped.Bip01_R_Finger1" 29
40 "ValveBiped.Bip01_R_Finger11" 39
41 "ValveBiped.Bip01_R_Finger12" 40
42 "ValveBiped.Bip01_R_Finger0" 29
43 "ValveBiped.Bip01_R_Finger01" 42
44 "ValveBiped.Bip01_R_Finger02" 43
45 "ValveBiped.Bip01_R_Ulna" 28
46 "ValveBiped.Bip01_R_Wrist" 28
47 "rig_r_upperarm" 26
48 "rig_r_forearm" 47
49 "rig_d_r_forearm" 48
50 "rig_d_r_upperarm" 47
51 "rig_r_hand" -1
52 "rig_d_r_hand" 51
53 "rig_d_r_wrist" 52
54 "rig_l_hand" -1
55 "rig_d_l_hand" 54
56 "rig_d_l_wrist" 54
57 "rig_l_pole" -1
58 "rig_r_pole" -1
59 "rig_l_clavicle" -1
60 "rig_d_l_clavicle" 59
61 "rig_r_clavicle" -1
62 "rig_d_r_clavicle" 61
63 "Camera" -1
64 "body" -1
65 "trigger" 64
66 "barrel" 64
67 "bulletdoor" 64
68 "pump" 64
69 "bolt" 68
70 "bullet2" 64
71 "bullet1" -1
end
skeleton
time 0
0  0.000006 0.000000 0.000000  -1.570800 -1.391899 -1.570792
1  -4.327822 -0.845730 -0.674796  -1.544956 -1.855077 -0.198630
2  6.027522 -0.000325 0.000193  -1.083976 -1.086123 -1.027963
3  11.692108 0.000643 -0.000739  -1.361397 -0.000017 -1.403543
4  11.479845 0.000598 -0.000715  1.250847 -0.650183 0.182922
5  3.859507 -0.142880 -1.192050  -0.550885 -0.255832 -1.866282
6  1.312592 0.000011 0.000007  -0.134281 -0.007565 -0.192402
7  0.729355 0.000055 0.000048  -0.007819 -0.009377 -0.049785
8  3.942143 0.046273 -0.431512  -0.463378 0.160456 -1.247694
9  1.539110 0.000082 0.000006  -0.004274 -0.078040 -1.047896
10  1.196335 0.000145 0.000030  0.008873 0.001422 -0.157248
11  3.883504 -0.047270 0.431381  -0.162351 0.500530 -0.533043
12  1.719573 -0.000026 0.000016  0.063764 -0.114983 -1.565865
13  1.209179 0.000091 0.000012  -0.006409 0.000350 -0.056241
14  4.085222 -0.082717 1.151040  0.170123 0.692306 0.093057
15  1.719449 -0.000011 0.000023  0.018421 -0.005135 -1.015982
16  1.099675 0.000048 0.000003  -0.080608 0.037327 -1.435667
17  0.971586 -1.283500 0.847609  -0.978328 -0.625346 -0.310207
18  1.789819 -0.000003 -0.000018  0.000998 -0.014468 0.721477
19  1.207013 -0.000012 -0.000044  0.001593 -0.000026 -0.111145
20  5.740637 0.000410 -0.000703  -0.102302 0.000003 0.000070
21  11.480977 0.000331 -0.000801  -0.044067 -0.113656 0.004137
22  6.027525 -0.000329 0.000203  1.764698 -0.447139 1.687268
23  0.000003 11.692097 -0.000007  -0.972005 -0.423545 -0.772959
24  0.000002 0.000008 -0.000002  -0.492302 -0.000030 1.570739
25  -0.000000 -0.000012 -0.000001  0.868957 0.000002 1.570712
26  -2.472767 -7.601693 2.073868  1.473120 1.855075 -0.198639
27  6.027504 -0.000258 -0.000234  1.550707 0.312591 -0.406325
28  11.691992 0.000243 0.000856  0.245661 0.000110 -2.369785
29  11.480261 -0.000168 0.000894  -0.885456 0.247394 1.175792
30  3.452862 -0.227595 1.051754  0.877464 -0.056173 -2.075854
31  1.312558 0.000025 -0.000000  -0.015677 -0.060057 -0.392348
32  0.729345 0.000065 -0.000027  0.007919 -0.008125 -0.675163
33  3.942046 0.050109 0.430997  0.524085 -0.097015 -1.851522
34  1.539097 0.000010 -0.000000  -0.012992 -0.051146 -0.650980
35  1.196300 0.000076 -0.000004  0.004319 -0.002068 -0.950552
36  3.883411 -0.050502 -0.431087  0.271728 -0.277378 -1.402722
37  1.719564 -0.000079 -0.000003  -0.025734 -0.006032 -1.456462
38  1.209197 0.000035 0.000010  0.000939 -0.002812 -0.276849
39  3.806436 -0.112147 -1.295330  0.005430 -0.274335 -0.317401
40  1.719412 -0.000099 -0.000034  0.051682 0.009641 -0.119353
41  1.099674 0.000025 0.000006  -0.003174 -0.004103 -1.062644
42  0.866372 -0.355430 -1.353142  1.308181 0.166838 -0.740879
43  1.789780 -0.000009 -0.000042  0.032551 0.123016 0.037179
44  1.206996 -0.000006 0.000005  0.000293 -0.001887 1.285959
45  5.740572 0.000056 0.000725  0.218790 -0.000014 0.000021
46  11.480997 0.000003 0.000928  0.107720 0.092720 0.197159
47  6.027514 -0.000272 -0.000237  -0.406595 -0.680056 -1.712767
48  0.000000 11.691975 -0.000006  -1.572948 1.009130 1.007298
49  0.000004 0.000000 -0.000000  2.518198 -0.000041 1.570856
50  -0.000007 -0.000015 0.000005  2.272644 -0.000030 1.570865
51  -4.015676 -0.734508 -4.067778  -0.121995 3.020127 1.537884
52  0.000000 -0.000000 0.000000  0.008153 -0.000259 0.000009
53  0.000000 0.000000 -0.000001  1.565115 0.043565 -0.106862
54  -0.773287 -15.091065 -4.807849  -0.934859 -0.075665 -1.946360
55  -0.000002 -0.000001 0.000000  0.000000 -0.000000 -0.000002
56  0.000029 0.000028 0.000001  -1.571901 -0.044449 -0.106509
57  8.694838 -16.141689 -16.416052  1.570796 -0.000000 0.000000
58  -19.213562 7.451548 -15.500427  1.570796 -0.000000 0.000000
59  -0.670483 1.601972 -4.109488  1.570796 -0.000000 0.000000
60  -0.004311 0.001230 -0.000371  0.006898 -0.005534 -0.284229
61  2.073871 7.920389 -1.080626  1.570796 -0.000000 0.000000
62  0.000000 0.000000 0.000000  -0.078727 -3.136056 0.284226
63  -2.746032 -1.210788 -1.134430  1.570796 -0.000000 0.000000
64  -2.535900 -8.566546 -1.996421  1.570796 -0.000000 0.000000
65  -0.200448 -1.761558 -1.306031  0.000000 -0.000000 0.000000
66  -0.200449 0.213337 26.427570  0.000000 -0.000000 0.000000
67  -0.200449 -0.895508 -0.420853  0.000000 -0.000000 0.000000
68  -0.104048 -4.495923 7.879277  0.000000 -0.000000 0.000000
69  -0.195264 4.332630 -9.735163  0.000000 -0.000000 0.000000
70  -0.194973 -1.133607 6.156297  0.000000 -0.000000 0.000000
71  -2.730981 -12.653707 -3.126761  1.570796 -0.000000 0.000000
end
