version 1
nodes
0 "ValveBiped.Bip01_Spine4" -1
1 "ValveBiped.Bip01_L_Clavicle" 0
2 "ValveBiped.Bip01_L_UpperArm" 1
3 "ValveBiped.Bip01_L_Forearm" 2
4 "ValveBiped.Bip01_L_Hand" 3
5 "ValveBiped.Bip01_L_Finger4" 4
6 "ValveBiped.Bip01_L_Finger41" 5
7 "ValveBiped.Bip01_L_Finger42" 6
8 "ValveBiped.Bip01_L_Finger3" 4
9 "ValveBiped.Bip01_L_Finger31" 8
10 "ValveBiped.Bip01_L_Finger32" 9
11 "ValveBiped.Bip01_L_Finger2" 4
12 "ValveBiped.Bip01_L_Finger21" 11
13 "ValveBiped.Bip01_L_Finger22" 12
14 "ValveBiped.Bip01_L_Finger1" 4
15 "ValveBiped.Bip01_L_Finger11" 14
16 "ValveBiped.Bip01_L_Finger12" 15
17 "ValveBiped.Bip01_L_Finger0" 4
18 "ValveBiped.Bip01_L_Finger01" 17
19 "ValveBiped.Bip01_L_Finger02" 18
20 "ValveBiped.Bip01_L_Ulna" 3
21 "ValveBiped.Bip01_L_Wrist" 3
22 "rig_l_upperarm" 1
23 "rig_l_forearm" 22
24 "rig_d_l_forearm" 23
25 "rig_d_l_upperarm" 22
26 "ValveBiped.Bip01_R_Clavicle" 0
27 "ValveBiped.Bip01_R_UpperArm" 26
28 "ValveBiped.Bip01_R_Forearm" 27
29 "ValveBiped.Bip01_R_Hand" 28
30 "ValveBiped.Bip01_R_Finger4" 29
31 "ValveBiped.Bip01_R_Finger41" 30
32 "ValveBiped.Bip01_R_Finger42" 31
33 "ValveBiped.Bip01_R_Finger3" 29
34 "ValveBiped.Bip01_R_Finger31" 33
35 "ValveBiped.Bip01_R_Finger32" 34
36 "ValveBiped.Bip01_R_Finger2" 29
37 "ValveBiped.Bip01_R_Finger21" 36
38 "ValveBiped.Bip01_R_Finger22" 37
39 "ValveBiped.Bip01_R_Finger1" 29
40 "ValveBiped.Bip01_R_Finger11" 39
41 "ValveBiped.Bip01_R_Finger12" 40
42 "ValveBiped.Bip01_R_Finger0" 29
43 "ValveBiped.Bip01_R_Finger01" 42
44 "ValveBiped.Bip01_R_Finger02" 43
45 "ValveBiped.Bip01_R_Ulna" 28
46 "ValveBiped.Bip01_R_Wrist" 28
47 "rig_r_upperarm" 26
48 "rig_r_forearm" 47
49 "rig_d_r_forearm" 48
50 "rig_d_r_upperarm" 47
51 "rig_r_hand" -1
52 "rig_d_r_hand" 51
53 "rig_d_r_wrist" 52
54 "rig_l_hand" -1
55 "rig_d_l_hand" 54
56 "rig_d_l_wrist" 54
57 "rig_l_pole" -1
58 "rig_r_pole" -1
59 "rig_l_clavicle" -1
60 "rig_d_l_clavicle" 59
61 "rig_r_clavicle" -1
62 "rig_d_r_clavicle" 61
63 "Camera" -1
64 "body" -1
65 "trigger" 64
66 "barrel" 64
67 "bulletdoor" 64
68 "pump" 64
69 "bolt" 68
70 "bullet2" 64
71 "bullet1" -1
end
skeleton
time 0
0  0.000006 0.000000 0.000000  -1.570800 -1.391899 -1.570792
1  -3.791962 -4.492373 -0.637369  -1.544956 -1.855077 -0.198630
2  6.027519 -0.000327 0.000193  -1.293308 -0.991184 -0.585568
3  11.692111 0.000643 -0.000740  0.317679 -0.000024 -1.523772
4  11.480269 -0.000613 -0.000570  1.263098 -0.471864 0.358665
5  3.756486 -0.428445 -1.137744  -0.183722 -0.010726 -0.734966
6  1.312591 0.000013 0.000007  -0.052793 -0.066402 -0.457461
7  0.729356 0.000054 0.000049  0.006399 -0.001561 -0.956459
8  4.000557 0.055695 -0.426795  -0.155914 -0.071417 -0.392779
9  1.539113 0.000084 0.000005  -0.029431 -0.137488 -0.700326
10  1.196332 0.000144 0.000030  0.012599 0.004869 -1.093791
11  3.926747 -0.043147 0.433995  -0.377995 -0.085522 -0.162295
12  1.719572 -0.000027 0.000015  0.013635 0.021510 -0.709165
13  1.209178 0.000091 0.000012  -0.003564 0.002488 -0.369890
14  4.085223 -0.082715 1.151041  -0.166729 -0.164169 0.030978
15  1.719449 -0.000012 0.000023  0.024233 0.023234 -0.507360
16  1.099674 0.000049 0.000006  -0.003350 0.002242 -0.620629
17  0.513960 -0.536467 0.902808  -0.879064 -0.518438 -0.773456
18  1.789819 -0.000003 -0.000018  -0.008423 -0.007423 -0.105580
19  1.207016 -0.000012 -0.000044  -0.001007 -0.001906 0.669912
20  5.740638 0.000410 -0.000703  -0.070093 0.000003 0.000071
21  11.481063 0.000090 -0.000772  -0.041775 -0.082026 0.044558
22  6.027524 -0.000330 0.000204  1.920789 -0.472067 1.879545
23  0.000002 11.692101 -0.000007  -1.043530 -0.489170 -0.819086
24  0.000002 0.000009 -0.000002  1.186780 -0.000031 1.570739
25  -0.000000 -0.000012 0.000000  0.868957 0.000002 1.570712
26  -3.286773 -12.103185 2.073871  1.473120 1.855075 -0.198639
27  6.027511 -0.000257 -0.000230  1.505489 0.536482 -0.788176
28  11.691992 0.000242 0.000857  1.102373 0.000067 -1.764984
29  11.479994 0.000430 0.000976  -1.085097 0.448400 0.195929
30  3.452861 -0.227594 1.051754  0.877464 -0.056173 -2.075854
31  1.312559 0.000026 0.000000  -0.015677 -0.060057 -0.392348
32  0.729345 0.000065 -0.000027  0.007919 -0.008125 -0.675163
33  3.942047 0.050109 0.430997  0.524085 -0.097015 -1.851522
34  1.539097 0.000010 0.000000  -0.012992 -0.051146 -0.650980
35  1.196300 0.000075 -0.000004  0.004319 -0.002068 -0.950552
36  3.883412 -0.050502 -0.431087  0.271728 -0.277377 -1.402722
37  1.719564 -0.000078 -0.000004  -0.025734 -0.006032 -1.456462
38  1.209197 0.000036 0.000011  0.000939 -0.002812 -0.276849
39  3.806436 -0.112147 -1.295329  0.110240 -0.062858 -0.119458
40  1.719412 -0.000099 -0.000035  0.120126 0.024136 -0.199374
41  1.099673 0.000023 0.000007  -0.007217 0.004190 0.131746
42  0.866372 -0.355431 -1.353141  1.308181 0.166838 -0.740879
43  1.789779 -0.000009 -0.000042  0.032550 0.123016 0.037179
44  1.206996 -0.000007 0.000005  0.000293 -0.001887 1.285959
45  5.740574 0.000055 0.000724  0.119827 -0.000014 0.000021
46  11.480944 0.000121 0.000945  0.084225 0.077373 0.004950
47  6.027514 -0.000273 -0.000237  -0.690411 -0.639275 -1.901167
48  -0.000002 11.691975 -0.000006  -1.185082 0.628814 0.899928
49  0.000003 -0.000000 -0.000000  -2.908287 -0.000041 1.570856
50  -0.000007 -0.000015 0.000006  2.272644 -0.000030 1.570865
51  -3.818495 -1.829458 -6.297021  -2.119865 -0.130741 -1.405467
52  -0.000000 0.000000 0.000000  0.008153 -0.000259 0.000009
53  0.000000 -0.000000 0.000000  1.565115 0.043565 -0.106862
54  0.998552 -11.181475 -4.800194  0.819455 -0.773197 -1.893499
55  -0.000000 -0.000000 -0.000001  0.000000 -0.000000 -0.000002
56  0.000029 0.000029 0.000000  -1.571901 -0.044449 -0.106509
57  13.024888 -6.380027 -12.650742  1.570796 -0.000000 0.000000
58  -11.057709 7.474050 -16.538038  1.570796 -0.000000 0.000000
59  -0.633057 5.095064 -2.933281  1.570796 -0.000000 0.000000
60  -0.004311 0.001230 -0.000371  0.006898 -0.005534 -0.284229
61  2.073871 12.494887 -1.080626  1.570796 -0.000000 0.000000
62  0.000000 0.000000 0.000000  -0.078727 -3.136056 0.284226
63  0.000000 0.000000 0.000000  1.570796 -0.005015 0.000000
64  -4.642601 -9.103315 -2.524364  1.081278 -1.110744 0.511783
65  -0.200448 -1.761559 -1.306032  -0.000000 -0.000000 -0.000000
66  -0.200450 0.213337 26.427572  -0.000000 -0.000000 -0.000000
67  -0.200449 -0.895508 -0.420853  -0.239319 -0.000000 -0.000000
68  -0.104047 -4.495923 7.879275  -0.000000 -0.000000 -0.000000
69  -0.195263 4.332630 -6.347187  -0.000000 -0.000000 -0.000000
70  -0.200448 -1.085799 4.180390  -0.000000 -0.000000 -0.000000
71  -4.583270 7.433416 -13.666655  1.570796 -0.000000 0.000000
time 1
0  0.000006 0.000000 0.000000  -1.570800 -1.391899 -1.570792
1  -3.909278 -4.471193 -0.369715  -1.544956 -1.855077 -0.198630
2  6.027519 -0.000326 0.000193  -1.259207 -0.988762 -0.647958
3  11.692109 0.000643 -0.000739  0.226073 -0.000023 -1.512789
4  11.480360 -0.000503 -0.000637  1.340707 -0.510276 0.360097
5  3.753448 -0.429758 -1.137439  -0.194287 -0.020708 -0.794521
6  1.312590 0.000012 0.000007  -0.047033 -0.061534 -0.495758
7  0.729355 0.000055 0.000049  0.005858 -0.001538 -0.947163
8  3.995365 0.054857 -0.427217  -0.160479 -0.081800 -0.477651
9  1.539112 0.000084 0.000005  -0.025940 -0.128164 -0.706906
10  1.196331 0.000144 0.000031  0.011776 0.004523 -1.091154
11  3.922904 -0.043515 0.433761  -0.346083 -0.108306 -0.249036
12  1.719573 -0.000027 0.000014  0.012065 0.020144 -0.724751
13  1.209179 0.000091 0.000011  -0.003372 0.002483 -0.398622
14  4.065868 -0.087500 1.166602  -0.104709 -0.182402 0.007236
15  1.719449 -0.000012 0.000021  0.024531 0.014323 -0.505285
16  1.099675 0.000049 0.000006  -0.002022 0.001856 -0.618064
17  0.523599 -0.542812 0.896758  -0.884180 -0.530961 -0.798924
18  1.789819 -0.000004 -0.000018  -0.007989 -0.004535 -0.073129
19  1.207016 -0.000011 -0.000045  0.001796 -0.001748 0.667906
20  5.740638 0.000410 -0.000703  -0.061414 0.000003 0.000071
21  11.481081 0.000110 -0.000786  -0.025501 -0.087122 0.047865
22  6.027525 -0.000330 0.000203  1.905789 -0.485436 1.852575
23  0.000002 11.692099 -0.000007  -1.037038 -0.483054 -0.815028
24  0.000003 0.000009 -0.000002  1.095173 -0.000031 1.570739
25  -0.000000 -0.000012 -0.000000  0.868957 0.000002 1.570712
26  -3.286773 -12.103185 2.073871  1.473120 1.855075 -0.198639
27  6.027511 -0.000257 -0.000230  1.505130 0.539060 -0.788421
28  11.691993 0.000241 0.000857  1.102373 0.000065 -1.745586
29  11.480167 0.000481 0.000871  -1.114196 0.429663 0.177848
30  3.452861 -0.227595 1.051754  0.877464 -0.056173 -2.075854
31  1.312558 0.000025 -0.000000  -0.015677 -0.060057 -0.392348
32  0.729345 0.000066 -0.000027  0.007919 -0.008125 -0.675163
33  3.942046 0.050109 0.430996  0.524085 -0.097015 -1.851522
34  1.539097 0.000010 0.000000  -0.012992 -0.051146 -0.650980
35  1.196299 0.000076 -0.000005  0.004319 -0.002069 -0.950551
36  3.883411 -0.050502 -0.431087  0.271728 -0.277378 -1.402722
37  1.719563 -0.000078 -0.000003  -0.025734 -0.006032 -1.456462
38  1.209196 0.000036 0.000011  0.000939 -0.002812 -0.276849
39  3.806436 -0.112148 -1.295330  0.110240 -0.062858 -0.119458
40  1.719411 -0.000099 -0.000034  0.120126 0.024136 -0.199374
41  1.099672 0.000024 0.000007  -0.007217 0.004190 0.131746
42  0.866373 -0.355431 -1.353142  1.308181 0.166838 -0.740879
43  1.789780 -0.000009 -0.000042  0.032551 0.123016 0.037179
44  1.206996 -0.000006 0.000006  0.000293 -0.001887 1.285959
45  5.740571 0.000056 0.000723  0.112517 -0.000014 0.000021
46  11.480977 0.000132 0.000923  0.079854 0.072573 0.003584
47  6.027514 -0.000273 -0.000237  -0.693460 -0.638410 -1.899410
48  -0.000002 11.691977 -0.000008  -1.173701 0.617239 0.894046
49  0.000002 -0.000001 0.000000  -2.908287 -0.000041 1.570856
50  -0.000008 -0.000015 0.000005  2.272644 -0.000030 1.570865
51  -3.869841 -1.975302 -6.425327  -2.141913 -0.139805 -1.406180
52  0.000000 0.000000 0.000000  0.008153 -0.000259 0.000009
53  0.000000 -0.000000 -0.000000  1.565115 0.043565 -0.106862
54  1.093391 -11.224957 -5.057508  0.734637 -0.746942 -1.809221
55  0.000000 -0.000000 -0.000001  0.000000 -0.000000 -0.000002
56  0.000030 0.000029 0.000001  -1.571902 -0.044449 -0.106509
57  13.143633 -6.702322 -13.481962  1.570796 -0.000000 0.000000
58  -11.057709 7.474050 -16.538038  1.570796 -0.000000 0.000000
59  -0.365403 5.095098 -3.052495  1.570796 -0.000000 0.000000
60  -0.004311 0.001230 -0.000371  0.006898 -0.005534 -0.284229
61  2.073871 12.494887 -1.080626  1.570796 -0.000000 0.000000
62  0.000000 0.000000 0.000000  -0.078727 -3.136056 0.284226
63  0.000000 0.000000 0.000000  1.570156 -0.005171 0.000068
64  -4.643910 -9.198275 -2.545822  1.078822 -1.087118 0.510284
65  -0.200447 -1.761558 -1.306031  0.000000 -0.000000 -0.000000
66  -0.200448 0.213337 26.427570  0.000000 -0.000000 -0.000000
67  -0.200448 -0.895508 -0.420853  -0.239319 -0.000000 -0.000000
68  -0.104047 -4.495923 7.879275  0.000000 -0.000000 -0.000000
69  -0.195264 4.332630 -6.347188  0.000000 -0.000000 -0.000000
70  -0.200448 -1.085799 4.180392  0.000000 -0.000000 -0.000000
71  -4.583270 7.433416 -13.666655  1.570796 -0.000000 0.000000
time 2
0  0.000006 0.000000 0.000000  -1.570800 -1.391899 -1.570792
1  -4.239724 -4.411538 0.384185  -1.544956 -1.855077 -0.198630
2  6.027518 -0.000325 0.000195  -1.238777 -0.843584 -0.717402
3  11.692107 0.000644 -0.000741  -0.035863 -0.000031 -1.619558
4  11.479542 -0.000809 -0.000763  1.565968 -0.473894 0.158487
5  3.744892 -0.433456 -1.136576  -0.221988 -0.051330 -0.964562
6  1.312590 0.000013 0.000008  -0.031646 -0.046695 -0.610232
7  0.729355 0.000053 0.000050  0.004320 -0.001407 -0.920970
8  3.980740 0.052498 -0.428397  -0.168924 -0.112482 -0.724384
9  1.539111 0.000083 0.000004  -0.016513 -0.100602 -0.728462
10  1.196332 0.000145 0.000030  0.009326 0.003511 -1.082724
11  3.912078 -0.044546 0.433107  -0.242672 -0.157842 -0.507142
12  1.719573 -0.000027 0.000015  0.007723 0.016176 -0.772135
13  1.209179 0.000092 0.000013  -0.002843 0.002488 -0.484836
14  4.011355 -0.100977 1.210436  0.064811 -0.218141 -0.086413
15  1.719449 -0.000012 0.000023  0.025442 -0.012195 -0.499913
16  1.099674 0.000048 0.000005  0.001836 0.000900 -0.599294
17  0.552177 -0.562120 0.881355  -0.892852 -0.561553 -0.871864
18  1.789820 -0.000002 -0.000018  -0.006409 0.002951 0.011930
19  1.207016 -0.000011 -0.000044  0.009997 -0.001206 0.658006
20  5.740636 0.000410 -0.000703  -0.022576 0.000003 0.000070
21  11.480917 0.000048 -0.000811  0.009520 -0.073201 0.020706
22  6.027524 -0.000329 0.000203  1.997989 -0.608093 1.751328
23  0.000001 11.692099 -0.000009  -1.099902 -0.543457 -0.853108
24  0.000002 0.000007 -0.000001  0.833239 -0.000031 1.570738
25  -0.000000 -0.000011 -0.000000  0.868957 0.000002 1.570712
26  -3.286773 -12.103185 2.073871  1.473120 1.855075 -0.198639
27  6.027511 -0.000257 -0.000230  1.511116 0.531036 -0.786779
28  11.691992 0.000243 0.000857  1.102372 0.000065 -1.742397
29  11.480197 0.000489 0.000854  -1.162675 0.422648 0.181882
30  3.452862 -0.227595 1.051754  0.877464 -0.056173 -2.075854
31  1.312558 0.000026 0.000001  -0.015677 -0.060057 -0.392348
32  0.729345 0.000066 -0.000027  0.007919 -0.008125 -0.675163
33  3.942046 0.050109 0.430997  0.524085 -0.097016 -1.851522
34  1.539097 0.000010 -0.000001  -0.012992 -0.051146 -0.650980
35  1.196299 0.000076 -0.000004  0.004319 -0.002069 -0.950552
36  3.883411 -0.050502 -0.431087  0.271728 -0.277378 -1.402722
37  1.719563 -0.000079 -0.000003  -0.025734 -0.006032 -1.456462
38  1.209196 0.000035 0.000011  0.000939 -0.002812 -0.276849
39  3.806437 -0.112148 -1.295330  0.110240 -0.062858 -0.119458
40  1.719413 -0.000100 -0.000034  0.120126 0.024136 -0.199374
41  1.099673 0.000024 0.000007  -0.007217 0.004190 0.131746
42  0.866372 -0.355431 -1.353142  1.308181 0.166838 -0.740879
43  1.789780 -0.000009 -0.000042  0.032551 0.123016 0.037179
44  1.206996 -0.000006 0.000005  0.000293 -0.001887 1.285959
45  5.740572 0.000056 0.000724  0.100771 -0.000014 0.000021
46  11.480984 0.000133 0.000920  0.070695 0.070433 0.006921
47  6.027514 -0.000273 -0.000237  -0.681671 -0.637309 -1.907840
48  -0.000001 11.691975 -0.000008  -1.171831 0.615340 0.893068
49  0.000003 -0.000000 0.000000  -2.908287 -0.000041 1.570856
50  -0.000007 -0.000015 0.000005  2.272644 -0.000030 1.570865
51  -4.001567 -1.978663 -6.518329  -2.191642 -0.133154 -1.408435
52  -0.000000 0.000000 -0.000000  0.008153 -0.000259 0.000009
53  -0.000000 -0.000001 -0.000000  1.565115 0.043565 -0.106862
54  2.533108 -10.425798 -6.584100  0.623540 -0.676436 -1.889865
55  0.000000 0.000001 -0.000000  -0.000000 -0.000000 -0.000002
56  0.000030 0.000029 0.000001  -1.571901 -0.044449 -0.106509
57  13.501016 -7.610128 -15.823256  1.570796 -0.000000 0.000000
58  -11.057709 7.474050 -16.538038  1.570796 -0.000000 0.000000
59  0.388497 5.095195 -3.388282  1.570796 -0.000000 0.000000
60  -0.004311 0.001230 -0.000371  0.006898 -0.005534 -0.284229
61  2.073871 12.494887 -1.080626  1.570796 -0.000000 0.000000
62  0.000000 0.000000 0.000000  -0.078727 -3.136056 0.284226
63  0.000000 0.000000 0.000000  1.568629 -0.005544 0.000231
64  -4.646791 -9.189543 -2.593029  1.124050 -1.042488 0.461690
65  -0.200449 -1.761559 -1.306031  -0.000000 -0.000000 -0.000000
66  -0.200450 0.213337 26.427574  -0.000000 -0.000000 -0.000000
67  -0.200449 -0.895509 -0.420853  -0.119659 -0.000000 -0.000000
68  -0.104047 -4.495924 7.879277  -0.000000 -0.000000 -0.000000
69  -0.195264 4.332630 -6.347187  -0.000000 -0.000000 -0.000000
70  -0.200449 -1.085799 4.180392  -0.000000 -0.000000 -0.000000
71  -4.583270 7.433416 -13.666655  1.570796 -0.000000 0.000000
time 3
0  0.000006 0.000000 0.000000  -1.570800 -1.391899 -1.570792
1  -4.664013 -4.334939 1.352186  -1.544956 -1.855077 -0.198630
2  6.027516 -0.000324 0.000198  -1.255393 -0.524594 -0.705898
3  11.692106 0.000645 -0.000740  -0.369194 -0.000043 -1.791229
4  11.479993 -0.000319 -0.000909  1.696523 -0.250362 -0.100574
5  3.733906 -0.438206 -1.135468  -0.252511 -0.094451 -1.185069
6  1.312590 0.000012 0.000008  -0.014270 -0.025244 -0.774135
7  0.729355 0.000054 0.000050  0.002315 -0.001072 -0.887331
8  3.961961 0.049470 -0.429912  -0.169634 -0.151166 -1.048960
9  1.539111 0.000084 0.000007  -0.005671 -0.061701 -0.764350
10  1.196332 0.000146 0.000029  0.005828 0.002121 -1.069204
11  3.898176 -0.045871 0.432267  -0.092814 -0.179818 -0.853825
12  1.719573 -0.000027 0.000015  0.002359 0.010786 -0.842312
13  1.209179 0.000090 0.000012  -0.002204 0.002539 -0.609393
14  3.941360 -0.118280 1.266719  0.249300 -0.218129 -0.254729
15  1.719448 -0.000013 0.000022  0.026784 -0.047352 -0.494694
16  1.099675 0.000048 0.000004  0.006752 -0.000051 -0.547897
17  0.592697 -0.590767 0.865965  -0.890626 -0.584878 -0.960979
18  1.789820 -0.000003 -0.000018  -0.004198 0.010276 0.097004
19  1.207016 -0.000012 -0.000043  0.020539 -0.000226 0.635550
20  5.740636 0.000410 -0.000703  0.020746 0.000003 0.000071
21  11.481009 0.000145 -0.000840  0.028089 -0.028912 -0.026061
22  6.027524 -0.000330 0.000203  2.308336 -0.827605 1.545895
23  0.000000 11.692100 -0.000008  -1.200573 -0.644581 -0.907647
24  0.000003 0.000010 -0.000002  0.499913 -0.000031 1.570739
25  -0.000001 -0.000011 -0.000001  0.868957 0.000002 1.570712
26  -3.286773 -12.103185 2.073871  1.473120 1.855075 -0.198639
27  6.027511 -0.000257 -0.000230  1.519846 0.521404 -0.784678
28  11.691992 0.000241 0.000858  1.102372 0.000065 -1.741867
29  11.480202 0.000492 0.000851  -1.218708 0.417878 0.191854
30  3.452862 -0.227595 1.051754  0.877464 -0.056173 -2.075854
31  1.312558 0.000026 -0.000000  -0.015677 -0.060057 -0.392348
32  0.729345 0.000065 -0.000027  0.007919 -0.008125 -0.675163
33  3.942046 0.050109 0.430997  0.524085 -0.097016 -1.851522
34  1.539097 0.000010 0.000001  -0.012992 -0.051146 -0.650980
35  1.196299 0.000076 -0.000003  0.004319 -0.002068 -0.950551
36  3.883412 -0.050502 -0.431087  0.271728 -0.277377 -1.402722
37  1.719564 -0.000078 -0.000003  -0.025734 -0.006032 -1.456462
38  1.209197 0.000036 0.000012  0.000939 -0.002812 -0.276849
39  3.806436 -0.112147 -1.295329  0.110240 -0.062858 -0.119458
40  1.719412 -0.000099 -0.000034  0.120126 0.024136 -0.199374
41  1.099673 0.000025 0.000007  -0.007217 0.004190 0.131746
42  0.866372 -0.355430 -1.353142  1.308181 0.166838 -0.740879
43  1.789779 -0.000010 -0.000042  0.032550 0.123016 0.037179
44  1.206997 -0.000007 0.000005  0.000293 -0.001887 1.285959
45  5.740571 0.000056 0.000724  0.087294 -0.000014 0.000021
46  11.480984 0.000134 0.000920  0.059845 0.068697 0.011651
47  6.027514 -0.000273 -0.000237  -0.666833 -0.634618 -1.918937
48  -0.000001 11.691974 -0.000009  -1.171520 0.615025 0.892905
49  0.000003 -0.000001 0.000000  -2.908287 -0.000041 1.570856
50  -0.000008 -0.000016 0.000005  2.272644 -0.000030 1.570865
51  -4.162908 -1.959669 -6.593493  -2.250770 -0.122828 -1.411450
52  0.000000 -0.000000 -0.000000  0.008153 -0.000259 0.000009
53  -0.000000 0.000000 0.000000  1.565115 0.043565 -0.106862
54  5.565416 -8.721143 -9.670313  0.417514 -0.567399 -2.073951
55  -0.000001 0.000000 0.000000  0.000000 -0.000000 -0.000002
56  0.000029 0.000029 0.000001  -1.571901 -0.044449 -0.106509
57  14.021406 -8.775744 -18.829460  1.570796 -0.000000 0.000000
58  -11.057709 7.474050 -16.538038  1.570796 -0.000000 0.000000
59  1.356499 5.095319 -3.819431  1.570796 -0.000000 0.000000
60  -0.004311 0.001230 -0.000371  0.006898 -0.005534 -0.284229
61  2.073871 12.494887 -1.080626  1.570796 -0.000000 0.000000
62  0.000000 0.000000 0.000000  -0.078727 -3.136056 0.284226
63  0.000000 0.000000 0.000000  1.566807 -0.005989 0.000426
64  -4.649672 -9.167714 -2.640236  1.173083 -0.988829 0.409438
65  -0.200448 -1.761559 -1.306032  -0.000000 -0.000000 0.000000
66  -0.200449 0.213337 26.427572  -0.000000 -0.000000 0.000000
67  -0.200449 -0.895508 -0.420854  -0.000000 -0.000000 0.000000
68  -0.104047 -4.495924 7.879275  -0.000000 -0.000000 0.000000
69  -0.195264 4.332630 -6.347186  -0.000000 -0.000000 0.000000
70  -0.200449 -1.085799 4.180391  -0.000000 -0.000000 0.000000
71  -4.583270 7.433416 -13.666655  1.570796 -0.000000 0.000000
time 4
0  0.000006 0.000000 0.000000  -1.570800 -1.391899 -1.570792
1  -4.994458 -4.275283 2.106086  -1.544956 -1.855077 -0.198630
2  6.027516 -0.000325 0.000199  -1.244395 -0.308200 -0.685610
3  11.692104 0.000643 -0.000739  -0.616102 -0.000042 -1.779137
4  11.480103 -0.000026 -0.000917  1.726232 0.016438 -0.283464
5  3.725347 -0.441904 -1.134606  -0.275332 -0.126952 -1.356647
6  1.312589 0.000011 0.000008  -0.003223 -0.006845 -0.933244
7  0.729354 0.000054 0.000050  0.000695 -0.000553 -0.861139
8  3.947335 0.047111 -0.431093  -0.165152 -0.174567 -1.298612
9  1.539110 0.000084 0.000006  0.000686 -0.024776 -0.808844
10  1.196332 0.000145 0.000029  0.002426 0.000848 -1.053429
11  3.887348 -0.046902 0.431614  0.021262 -0.161907 -1.117612
12  1.719572 -0.000026 0.000016  -0.001646 0.006300 -0.915124
13  1.209179 0.000091 0.000011  -0.001785 0.002591 -0.732610
14  3.886844 -0.131755 1.310554  0.338184 -0.163079 -0.456628
15  1.719448 -0.000014 0.000022  0.028385 -0.078046 -0.493002
16  1.099674 0.000050 0.000005  0.010821 -0.000529 -0.462243
17  0.631705 -0.620580 0.862516  -0.873092 -0.577636 -1.024548
18  1.789820 -0.000002 -0.000019  -0.003192 0.013017 0.129469
19  1.207016 -0.000013 -0.000044  0.029242 0.001087 0.601831
20  5.740638 0.000411 -0.000702  0.044330 0.000003 0.000071
21  11.481034 0.000202 -0.000844  0.036970 0.022134 -0.064737
22  6.027524 -0.000331 0.000202  -0.552400 -2.187023 -1.790379
23  0.000002 11.692098 -0.000007  -1.193465 -0.637314 -0.904091
24  0.000000 0.000009 0.000000  0.253005 -0.000031 1.570738
25  0.000000 -0.000012 -0.000001  0.868957 0.000002 1.570712
26  -3.286773 -12.103185 2.073871  1.473120 1.855075 -0.198639
27  6.027510 -0.000257 -0.000230  1.528995 0.513672 -0.782772
28  11.691993 0.000242 0.000857  1.102372 0.000065 -1.744832
29  11.480177 0.000485 0.000867  -1.263648 0.417730 0.205936
30  3.452861 -0.227594 1.051755  0.877464 -0.056173 -2.075854
31  1.312558 0.000025 -0.000000  -0.015677 -0.060057 -0.392348
32  0.729345 0.000065 -0.000028  0.007919 -0.008126 -0.675163
33  3.942046 0.050110 0.430997  0.524085 -0.097015 -1.851522
34  1.539097 0.000010 -0.000000  -0.012992 -0.051146 -0.650980
35  1.196299 0.000076 -0.000004  0.004319 -0.002069 -0.950551
36  3.883412 -0.050501 -0.431086  0.271728 -0.277377 -1.402722
37  1.719564 -0.000079 -0.000003  -0.025734 -0.006032 -1.456462
38  1.209196 0.000035 0.000011  0.000939 -0.002812 -0.276849
39  3.806436 -0.112147 -1.295329  0.110240 -0.062858 -0.119458
40  1.719412 -0.000100 -0.000034  0.120126 0.024136 -0.199374
41  1.099673 0.000025 0.000007  -0.007217 0.004190 0.131746
42  0.866372 -0.355430 -1.353142  1.308181 0.166838 -0.740879
43  1.789779 -0.000009 -0.000042  0.032550 0.123016 0.037179
44  1.206997 -0.000006 0.000006  0.000293 -0.001887 1.285959
45  5.740573 0.000055 0.000724  0.076514 -0.000014 0.000021
46  11.480980 0.000133 0.000923  0.050868 0.068088 0.016514
47  6.027514 -0.000273 -0.000237  -0.654006 -0.630620 -1.929142
48  -0.000001 11.691975 -0.000007  -1.173258 0.616789 0.893814
49  0.000003 -0.000001 0.000000  -2.908287 -0.000041 1.570856
50  -0.000007 -0.000015 0.000005  2.272644 -0.000030 1.570865
51  -4.300735 -1.922265 -6.612936  -2.300127 -0.111789 -1.414227
52  0.000000 0.000000 0.000000  0.008153 -0.000259 0.000009
53  -0.000000 0.000001 0.000000  1.565116 0.043565 -0.106862
54  8.022294 -7.867760 -12.607866  0.235166 -0.496146 -2.189192
55  0.000000 0.000000 -0.000000  0.000000 -0.000000 -0.000002
56  0.000030 0.000030 0.000001  -1.571901 -0.044449 -0.106509
57  14.546428 -9.683551 -21.170753  1.570796 -0.000000 0.000000
58  -11.057709 7.474050 -16.538038  1.570796 -0.000000 0.000000
59  2.110399 5.095417 -4.155219  1.570796 -0.000000 0.000000
60  -0.004311 0.001230 -0.000371  0.006898 -0.005534 -0.284229
61  2.073871 12.494887 -1.080626  1.570796 -0.000000 0.000000
62  0.000000 0.000000 0.000000  -0.078727 -3.136056 0.284226
63  0.000000 0.000000 0.000000  1.565280 -0.006362 0.000590
64  -4.650980 -9.139336 -2.661694  1.211751 -0.943638 0.369060
65  -0.200449 -1.761559 -1.306031  0.000000 0.000000 0.000000
66  -0.200450 0.213337 26.427572  0.000000 0.000000 0.000000
67  -0.200449 -0.895509 -0.420853  -0.050804 0.000000 0.000000
68  -0.104048 -4.495924 7.879276  0.000000 0.000000 0.000000
69  -0.195264 4.332630 -6.347188  0.000000 0.000000 0.000000
70  -0.200449 -1.085799 4.180390  0.000000 0.000000 0.000000
71  -4.583270 7.433416 -13.666655  1.570796 -0.000000 0.000000
time 5
0  0.000006 0.000000 0.000000  -1.570800 -1.391899 -1.570792
1  -5.111775 -4.254103 2.373740  -1.544956 -1.855077 -0.198630
2  6.027514 -0.000324 0.000198  -1.063813 -0.401191 -0.646045
3  11.692107 0.000645 -0.000741  -0.699687 -0.000038 -1.741688
4  11.480447 0.000226 -0.000765  1.794882 -0.311633 -0.530233
5  3.722309 -0.443218 -1.134299  -0.293301 -0.131064 -1.419905
6  1.312589 0.000012 0.000007  -0.000047 0.000022 -1.047263
7  0.729356 0.000054 0.000050  0.000002 0.000027 -0.851844
8  3.942142 0.046272 -0.431512  -0.168911 -0.173339 -1.385853
9  1.539111 0.000084 0.000007  -0.000018 0.000013 -0.855366
10  1.196332 0.000144 0.000029  -0.000001 0.000022 -1.038296
11  3.883504 -0.047270 0.431381  0.058635 -0.149075 -1.207054
12  1.719573 -0.000026 0.000015  -0.003138 0.004540 -0.974065
13  1.209180 0.000091 0.000011  -0.001762 0.002541 -0.823965
14  3.867491 -0.136542 1.326114  0.199811 -0.042321 -0.754397
15  1.719447 -0.000015 0.000022  0.052828 -0.101481 -0.577244
16  1.099674 0.000047 0.000004  0.015974 0.008285 0.081032
17  0.659097 -0.644801 0.876804  -0.843343 -0.385698 -0.947550
18  1.789819 -0.000003 -0.000019  -0.004080 0.003637 -0.105695
19  1.207017 -0.000012 -0.000042  0.035697 0.003083 0.543203
20  5.740637 0.000409 -0.000702  0.029806 0.000003 0.000071
21  11.481099 0.000251 -0.000811  0.039589 -0.048523 -0.106951
22  6.027524 -0.000329 0.000203  -0.875099 -2.104410 -1.416134
23  0.000001 11.692099 -0.000007  -1.171485 -0.614938 -0.892793
24  0.000003 0.000011 -0.000001  0.169420 -0.000031 1.570739
25  -0.000001 -0.000012 -0.000002  0.868957 0.000002 1.570712
26  -3.286773 -12.103185 2.073871  1.473120 1.855075 -0.198639
27  6.027510 -0.000257 -0.000230  1.534744 0.510497 -0.781716
28  11.691993 0.000241 0.000856  1.102373 0.000065 -1.751441
29  11.480116 0.000466 0.000904  -1.278906 0.423896 0.220634
30  3.452862 -0.227595 1.051754  0.877464 -0.056173 -2.075854
31  1.312558 0.000026 0.000000  -0.015677 -0.060057 -0.392348
32  0.729344 0.000065 -0.000027  0.007919 -0.008126 -0.675163
33  3.942047 0.050108 0.430996  0.524085 -0.097016 -1.851522
34  1.539096 0.000010 0.000000  -0.012992 -0.051146 -0.650980
35  1.196299 0.000076 -0.000004  0.004319 -0.002068 -0.950552
36  3.883412 -0.050503 -0.431088  0.271728 -0.277378 -1.402722
37  1.719563 -0.000079 -0.000004  -0.025734 -0.006032 -1.456462
38  1.209197 0.000036 0.000011  0.000939 -0.002812 -0.276849
39  3.806437 -0.112149 -1.295330  0.110240 -0.062858 -0.119458
40  1.719412 -0.000099 -0.000034  0.120126 0.024136 -0.199374
41  1.099674 0.000025 0.000006  -0.007217 0.004190 0.131746
42  0.866373 -0.355431 -1.353143  1.308181 0.166838 -0.740879
43  1.789779 -0.000009 -0.000042  0.032550 0.123016 0.037179
44  1.206997 -0.000006 0.000005  0.000293 -0.001887 1.285959
45  5.740572 0.000055 0.000724  0.072802 -0.000014 0.000021
46  11.480968 0.000129 0.000931  0.047361 0.069279 0.019954
47  6.027514 -0.000273 -0.000237  -0.647888 -0.627344 -1.934502
48  -0.000002 11.691975 -0.000008  -1.177135 0.620727 0.895833
49  0.000003 -0.000000 0.000000  -2.908287 -0.000041 1.570856
50  -0.000007 -0.000015 0.000005  2.272644 -0.000030 1.570865
51  -4.355851 -1.871884 -6.564506  -2.320475 -0.102662 -1.415487
52  0.000000 -0.000000 0.000000  0.008153 -0.000259 0.000009
53  0.000000 -0.000001 -0.000001  1.565115 0.043565 -0.106862
54  6.711711 -7.797232 -13.404623  0.049561 -0.616268 -1.970724
55  0.000000 -0.000000 -0.000000  0.000000 -0.000000 -0.000002
56  0.000031 0.000028 0.000001  -1.571901 -0.044449 -0.106509
57  14.950396 -10.005847 -22.001976  1.570796 -0.000000 0.000000
58  -11.057709 7.474050 -16.538038  1.570796 -0.000000 0.000000
59  2.378054 5.095451 -4.274432  1.570796 -0.000000 0.000000
60  -0.004311 0.001230 -0.000371  0.006898 -0.005534 -0.284229
61  2.073871 12.494887 -1.080626  1.570796 -0.000000 0.000000
62  0.000000 0.000000 0.000000  -0.078727 -3.136056 0.284226
63  0.000000 0.000000 0.000000  1.564639 -0.006518 0.000659
64  -4.646754 -9.110958 -2.648862  1.233651 -0.925657 0.348005
65  -0.200447 -1.761558 -1.306032  0.000000 -0.000000 -0.000000
66  -0.200449 0.213337 26.427572  0.000000 -0.000000 -0.000000
67  -0.200448 -0.895508 -0.420854  -0.025402 0.000000 0.000000
68  -0.104047 -4.495923 7.879275  0.000000 -0.000000 -0.000000
69  -0.195264 4.332631 -6.347186  0.000000 -0.000000 -0.000000
70  -0.200449 -1.085799 4.180391  0.000000 -0.000000 -0.000000
71  2.685006 -8.278296 -9.707029  1.014223 -0.932389 0.156266
time 6
0  0.000006 0.000000 0.000000  -1.570800 -1.391899 -1.570792
1  -5.091489 -4.257766 2.327457  -1.544956 -1.855077 -0.198630
2  6.027516 -0.000323 0.000197  -1.155983 -0.535615 -0.748571
3  11.692108 0.000646 -0.000740  -0.653901 -0.000029 -1.603984
4  11.479656 -0.000169 -0.001054  1.743809 -0.133515 -0.428828
5  3.722834 -0.442991 -1.134351  -0.309989 -0.114025 -1.410091
6  1.312589 0.000012 0.000007  0.000062 -0.001020 -1.134397
7  0.729354 0.000053 0.000047  0.000013 0.000523 -0.852505
8  3.943042 0.046418 -0.431439  -0.181182 -0.151359 -1.358546
9  1.539110 0.000084 0.000004  -0.004525 0.016762 -0.906844
10  1.196332 0.000145 0.000028  -0.001816 -0.000437 -1.024367
11  3.884171 -0.047206 0.431422  0.051533 -0.139192 -1.177877
12  1.719572 -0.000027 0.000015  -0.004222 0.010231 -1.029068
13  1.209180 0.000091 0.000012  -0.002649 0.002126 -0.897942
14  3.867491 -0.136541 1.326116  0.199811 -0.042321 -0.754397
15  1.719447 -0.000015 0.000022  0.052828 -0.101481 -0.577244
16  1.099674 0.000048 0.000004  0.015974 0.008285 0.081032
17  0.692403 -0.616987 0.953150  -0.754933 -0.319000 -0.970078
18  1.789820 -0.000006 -0.000017  -0.003060 0.000025 -0.127573
19  1.207016 -0.000011 -0.000043  0.034577 0.002289 0.564879
20  5.740636 0.000410 -0.000704  0.035661 0.000003 0.000071
21  11.480942 0.000171 -0.000871  0.037216 -0.010058 -0.091656
22  6.027524 -0.000329 0.000203  -0.934192 -2.258304 -1.511824
23  0.000003 11.692100 -0.000005  -1.090762 -0.534518 -0.847744
24  0.000002 0.000010 -0.000000  0.215203 -0.000031 1.570738
25  0.000000 -0.000012 -0.000001  0.868957 0.000002 1.570712
26  -3.286773 -12.103185 2.073871  1.473120 1.855075 -0.198639
27  6.027510 -0.000257 -0.000230  1.535405 0.511793 -0.781660
28  11.691992 0.000241 0.000857  1.102373 0.000066 -1.759103
29  11.480045 0.000445 0.000943  -1.274444 0.437767 0.230627
30  3.452861 -0.227595 1.051755  0.877464 -0.056173 -2.075854
31  1.312558 0.000026 0.000001  -0.015677 -0.060057 -0.392348
32  0.729345 0.000065 -0.000027  0.007919 -0.008125 -0.675163
33  3.942046 0.050109 0.430996  0.524085 -0.097015 -1.851522
34  1.539096 0.000009 -0.000000  -0.012992 -0.051146 -0.650980
35  1.196299 0.000076 -0.000004  0.004319 -0.002068 -0.950552
36  3.883411 -0.050501 -0.431087  0.271728 -0.277378 -1.402722
37  1.719563 -0.000079 -0.000004  -0.025734 -0.006032 -1.456462
38  1.209197 0.000036 0.000011  0.000939 -0.002812 -0.276849
39  3.806436 -0.112147 -1.295329  0.110240 -0.062858 -0.119458
40  1.719411 -0.000100 -0.000034  0.120126 0.024136 -0.199374
41  1.099674 0.000024 0.000007  -0.007217 0.004190 0.131746
42  0.866372 -0.355430 -1.353142  1.308181 0.166838 -0.740879
43  1.789779 -0.000009 -0.000042  0.032550 0.123016 0.037179
44  1.206997 -0.000007 0.000005  0.000293 -0.001887 1.285959
45  5.740573 0.000055 0.000723  0.074350 -0.000014 0.000021
46  11.480954 0.000124 0.000938  0.047491 0.072302 0.021335
47  6.027514 -0.000273 -0.000237  -0.649062 -0.626290 -1.934081
48  -0.000001 11.691975 -0.000009  -1.181630 0.625299 0.898157
49  0.000002 -0.000000 -0.000001  -2.908287 -0.000041 1.570856
50  -0.000006 -0.000016 0.000005  2.272644 -0.000030 1.570865
51  -4.322566 -1.824464 -6.481177  -2.319688 -0.095864 -1.418908
52  0.000000 -0.000000 0.000000  0.008153 -0.000259 0.000009
53  0.000000 0.000000 0.000000  1.565115 0.043565 -0.106862
54  6.272751 -9.694929 -12.138787  0.152660 -0.648550 -2.106268
55  -0.000001 -0.000002 -0.000001  0.000000 -0.000000 -0.000002
56  0.000030 0.000027 0.000000  -1.571901 -0.044449 -0.106509
57  15.300691 -9.656308 -21.551733  1.570796 -0.000000 0.000000
58  -11.057709 7.474050 -16.538038  1.570796 -0.000000 0.000000
59  2.331771 5.095445 -4.253818  1.570796 -0.000000 0.000000
60  -0.004311 0.001230 -0.000371  0.006898 -0.005534 -0.284229
61  2.073871 12.494887 -1.080626  1.570796 -0.000000 0.000000
62  0.000000 0.000000 0.000000  -0.078727 -3.136056 0.284226
63  0.000000 0.000000 0.000000  1.564782 -0.006005 0.000454
64  -4.636676 -9.089129 -2.615034  1.244526 -0.927698 0.335965
65  -0.200449 -1.761558 -1.306032  0.000000 -0.000000 -0.000000
66  -0.200450 0.213337 26.427568  0.000000 -0.000000 -0.000000
67  -0.200449 -0.895508 -0.420853  0.000000 -0.000000 -0.000000
68  -0.104048 -4.495923 7.879276  0.000000 -0.000000 -0.000000
69  -0.195264 4.332631 -6.347188  0.000000 -0.000000 -0.000000
70  -0.200449 -1.085799 4.180390  0.000000 -0.000000 -0.000000
71  2.016548 -9.629436 -8.674911  0.883188 -0.979897 0.188839
time 7
0  0.000006 0.000000 0.000000  -1.570800 -1.391899 -1.570792
1  -5.030248 -4.268822 2.187737  -1.544956 -1.855077 -0.198630
2  6.027518 -0.000325 0.000196  -1.171951 -0.702978 -0.790610
3  11.692107 0.000643 -0.000741  -0.514812 -0.000028 -1.574680
4  11.479872 -0.000202 -0.000955  1.677451 -0.148682 -0.265436
5  3.724421 -0.442304 -1.134511  -0.325205 -0.086542 -1.369394
6  1.312589 0.000012 0.000009  0.000554 -0.004019 -1.219373
7  0.729354 0.000054 0.000050  0.000379 0.000898 -0.858090
8  3.945751 0.046856 -0.431220  -0.195940 -0.111884 -1.272496
9  1.539110 0.000085 0.000004  -0.009754 0.031610 -0.968949
10  1.196332 0.000145 0.000028  -0.003542 -0.000660 -1.010527
11  3.886014 -0.047029 0.431538  0.032330 -0.109547 -1.087261
12  1.719573 -0.000026 0.000016  -0.007556 0.027376 -1.092594
13  1.209179 0.000091 0.000011  -0.004833 0.001059 -0.974075
14  3.867491 -0.136540 1.326117  0.199811 -0.042321 -0.754397
15  1.719448 -0.000014 0.000023  0.052828 -0.101481 -0.577244
16  1.099674 0.000049 0.000004  0.015974 0.008285 0.081032
17  0.744381 -0.508842 1.112590  -0.660185 -0.252973 -1.001407
18  1.789819 -0.000004 -0.000018  -0.001878 -0.000479 -0.140507
19  1.207015 -0.000013 -0.000042  0.031032 0.000300 0.621630
20  5.740636 0.000410 -0.000704  0.026326 0.000003 0.000071
21  11.480986 0.000167 -0.000850  0.024227 -0.009840 -0.060506
22  6.027524 -0.000331 0.000203  2.061751 -0.748051 1.684819
23  0.000000 11.692100 -0.000008  -1.073538 -0.517815 -0.837476
24  0.000003 0.000008 -0.000001  0.354289 -0.000031 1.570738
25  -0.000001 -0.000010 -0.000001  0.868957 0.000002 1.570712
26  -3.286773 -12.103185 2.073871  1.473120 1.855075 -0.198639
27  6.027510 -0.000257 -0.000230  1.533295 0.516021 -0.782167
28  11.691993 0.000241 0.000856  1.102373 0.000066 -1.764574
29  11.479995 0.000429 0.000971  -1.271333 0.456414 0.234349
30  3.452862 -0.227595 1.051754  0.877464 -0.056173 -2.075854
31  1.312559 0.000026 -0.000000  -0.015677 -0.060057 -0.392348
32  0.729345 0.000065 -0.000027  0.007919 -0.008125 -0.675163
33  3.942046 0.050108 0.430997  0.524085 -0.097016 -1.851522
34  1.539097 0.000010 0.000000  -0.012992 -0.051146 -0.650980
35  1.196300 0.000075 -0.000004  0.004319 -0.002069 -0.950551
36  3.883411 -0.050502 -0.431087  0.271728 -0.277378 -1.402722
37  1.719563 -0.000078 -0.000003  -0.025734 -0.006032 -1.456462
38  1.209197 0.000036 0.000011  0.000939 -0.002812 -0.276849
39  3.806436 -0.112148 -1.295329  0.110240 -0.062858 -0.119458
40  1.719412 -0.000100 -0.000034  0.120126 0.024136 -0.199374
41  1.099674 0.000025 0.000007  -0.007217 0.004190 0.131746
42  0.866372 -0.355431 -1.353142  1.308181 0.166838 -0.740879
43  1.789780 -0.000009 -0.000043  0.032550 0.123016 0.037179
44  1.206996 -0.000006 0.000006  0.000293 -0.001886 1.285959
45  5.740571 0.000054 0.000723  0.076410 -0.000014 0.000021
46  11.480943 0.000121 0.000943  0.047364 0.076112 0.021404
47  6.027514 -0.000273 -0.000237  -0.654751 -0.626242 -1.930216
48  -0.000002 11.691976 -0.000007  -1.184841 0.628569 0.899805
49  0.000002 -0.000001 0.000000  -2.908287 -0.000041 1.570856
50  -0.000007 -0.000015 0.000006  2.272644 -0.000030 1.570865
51  -4.249045 -1.798788 -6.395806  -2.317642 -0.091011 -1.426867
52  0.000000 -0.000000 0.000000  0.008153 -0.000259 0.000009
53  0.000000 -0.000000 0.000000  1.565115 0.043565 -0.106862
54  4.912870 -10.495461 -9.882418  0.300446 -0.636646 -2.210933
55  -0.000000 -0.000001 0.000000  0.000000 -0.000000 -0.000002
56  0.000030 0.000028 0.000002  -1.571901 -0.044449 -0.106509
57  15.674533 -8.671765 -20.223053  1.570796 -0.000000 0.000000
58  -11.057709 7.474050 -16.538038  1.570796 -0.000000 0.000000
59  2.192051 5.095427 -4.191586  1.570796 -0.000000 0.000000
60  -0.004311 0.001230 -0.000371  0.006898 -0.005534 -0.284229
61  2.073871 12.494887 -1.080626  1.570796 -0.000000 0.000000
62  0.000000 0.000000 0.000000  -0.078727 -3.136056 0.284226
63  0.000000 0.000000 0.000000  1.565187 -0.004654 0.000003
64  -4.624648 -9.080399 -2.567207  1.251888 -0.930577 0.322300
65  -0.200448 -1.761558 -1.306032  -0.000000 0.000000 -0.000000
66  -0.200448 0.213337 26.427567  -0.000000 0.000000 -0.000000
67  -0.200449 -0.895508 -0.420854  -0.000000 0.000000 -0.000000
68  -0.104047 -4.495923 7.879276  -0.000000 0.000000 -0.000000
69  -0.195264 4.332630 -6.347188  -0.000000 0.000000 -0.000000
70  -0.200449 -1.085799 4.180390  -0.000000 0.000000 -0.000000
71  0.320557 -10.179294 -6.894326  0.729941 -1.068384 0.303955
time 8
0  0.000006 0.000000 0.000000  -1.570800 -1.391899 -1.570792
1  -4.929266 -4.287052 1.957350  -1.544956 -1.855077 -0.198630
2  6.027519 -0.000324 0.000195  -1.163247 -0.867684 -0.798797
3  11.692105 0.000643 -0.000739  -0.310834 -0.000026 -1.568480
4  11.479921 -0.000361 -0.000885  1.515551 -0.195733 -0.074481
5  3.727037 -0.441174 -1.134776  -0.337017 -0.050279 -1.301436
6  1.312590 0.000012 0.000008  0.001512 -0.008288 -1.294099
7  0.729355 0.000054 0.000049  0.000956 0.001259 -0.875701
8  3.950222 0.047576 -0.430859  -0.207691 -0.059334 -1.138285
9  1.539111 0.000084 0.000005  -0.015218 0.043188 -1.038539
10  1.196334 0.000145 0.000029  -0.005010 -0.000659 -0.995604
11  3.888834 -0.046762 0.431718  0.009350 -0.064644 -0.941983
12  1.719573 -0.000026 0.000016  -0.013246 0.052892 -1.156710
13  1.209178 0.000091 0.000012  -0.007803 -0.000566 -1.044222
14  3.867492 -0.136541 1.326117  0.199811 -0.042321 -0.754397
15  1.719448 -0.000015 0.000024  0.052828 -0.101481 -0.577244
16  1.099674 0.000049 0.000004  0.015974 0.008285 0.081032
17  0.789642 -0.393937 1.264333  -0.592269 -0.206693 -1.026547
18  1.789819 -0.000003 -0.000018  -0.000681 -0.001030 -0.144973
19  1.207015 -0.000011 -0.000043  0.025938 -0.001517 0.678388
20  5.740636 0.000411 -0.000703  -0.007718 0.000003 0.000070
21  11.480996 0.000138 -0.000835  -0.007226 -0.017625 -0.026561
22  6.027524 -0.000329 0.000204  1.931666 -0.617554 1.765132
23  0.000001 11.692099 -0.000006  -1.069891 -0.514301 -0.835272
24  0.000002 0.000008 -0.000002  0.558268 -0.000031 1.570738
25  -0.000001 -0.000011 -0.000000  0.868957 0.000002 1.570712
26  -3.286773 -12.103185 2.073871  1.473120 1.855075 -0.198639
27  6.027511 -0.000257 -0.000230  1.529552 0.522277 -0.783059
28  11.691992 0.000242 0.000856  1.102373 0.000067 -1.766582
29  11.479980 0.000425 0.000983  -1.268189 0.473962 0.232043
30  3.452861 -0.227595 1.051754  0.877464 -0.056173 -2.075854
31  1.312560 0.000025 -0.000000  -0.015677 -0.060057 -0.392348
32  0.729345 0.000065 -0.000027  0.007919 -0.008125 -0.675163
33  3.942046 0.050109 0.430996  0.524085 -0.097015 -1.851522
34  1.539098 0.000010 0.000000  -0.012992 -0.051146 -0.650980
35  1.196299 0.000076 -0.000004  0.004319 -0.002068 -0.950551
36  3.883412 -0.050502 -0.431087  0.271728 -0.277378 -1.402722
37  1.719564 -0.000078 -0.000004  -0.025734 -0.006032 -1.456462
38  1.209197 0.000036 0.000011  0.000939 -0.002812 -0.276849
39  3.806435 -0.112148 -1.295330  0.110240 -0.062858 -0.119458
40  1.719412 -0.000100 -0.000034  0.120126 0.024136 -0.199374
41  1.099673 0.000025 0.000007  -0.007217 0.004190 0.131746
42  0.866372 -0.355430 -1.353142  1.308181 0.166838 -0.740879
43  1.789779 -0.000009 -0.000042  0.032550 0.123016 0.037179
44  1.206997 -0.000006 0.000005  0.000293 -0.001886 1.285959
45  5.740573 0.000055 0.000724  0.078826 -0.000014 0.000021
46  11.480941 0.000121 0.000946  0.047450 0.079585 0.020306
47  6.027514 -0.000273 -0.000237  -0.663441 -0.626614 -1.924156
48  -0.000001 11.691977 -0.000007  -1.186020 0.629771 0.900408
49  0.000004 -0.000000 0.000000  -2.908287 -0.000041 1.570856
50  -0.000007 -0.000015 0.000005  2.272644 -0.000030 1.570865
51  -4.158283 -1.801629 -6.323174  -2.313026 -0.089437 -1.436086
52  0.000000 0.000000 0.000000  0.008153 -0.000259 0.000009
53  0.000000 0.000000 -0.000000  1.565115 0.043565 -0.106862
54  3.391948 -10.650857 -7.582558  0.429528 -0.605813 -2.273998
55  -0.000001 0.000000 -0.000001  0.000000 -0.000000 -0.000002
56  0.000029 0.000029 0.000001  -1.571901 -0.044449 -0.106510
57  16.000813 -7.407618 -18.354664  1.570796 -0.000000 0.000000
58  -11.057709 7.474050 -16.538038  1.570796 -0.000000 0.000000
59  1.961664 5.095397 -4.088972  1.570796 -0.000000 0.000000
60  -0.004311 0.001230 -0.000371  0.006898 -0.005534 -0.284229
61  2.073871 12.494887 -1.080626  1.570796 -0.000000 0.000000
62  0.000000 0.000000 0.000000  -0.078727 -3.136056 0.284226
63  0.000000 0.000000 0.000000  1.565822 -0.002742 -0.000450
64  -4.614570 -9.087969 -2.512381  1.253122 -0.935381 0.312506
65  -0.200448 -1.761558 -1.306031  0.000000 -0.000000 0.000000
66  -0.200450 0.213337 26.427572  0.000000 -0.000000 0.000000
67  -0.200449 -0.895508 -0.420853  0.000000 -0.000000 0.000000
68  -0.104048 -4.495923 7.879279  0.000000 -0.000000 0.000000
69  -0.195263 4.332630 -6.347188  0.000000 -0.000000 0.000000
70  -0.200449 -1.085799 4.180391  0.000000 -0.000000 0.000000
71  -1.482499 -10.279098 -5.088654  0.558881 -1.146939 0.469330
time 9
0  0.000006 0.000000 0.000000  -1.570800 -1.391899 -1.570792
1  -4.792971 -4.311658 1.646397  -1.544956 -1.855077 -0.198630
2  6.027520 -0.000326 0.000194  -1.179390 -0.968084 -0.753352
3  11.692111 0.000642 -0.000739  -0.111654 -0.000026 -1.554993
4  11.480022 -0.000469 -0.000790  1.297343 -0.205114 0.041079
5  3.730566 -0.439649 -1.135132  -0.344272 -0.010737 -1.219150
6  1.312589 0.000012 0.000007  0.002671 -0.012525 -1.349609
7  0.729355 0.000054 0.000049  0.001469 0.001769 -0.911915
8  3.956253 0.048548 -0.430373  -0.212316 -0.005713 -0.985055
9  1.539111 0.000084 0.000006  -0.020079 0.050574 -1.108910
10  1.196332 0.000145 0.000029  -0.006062 -0.000510 -0.978251
11  3.892468 -0.046418 0.431956  -0.006692 -0.017998 -0.767379
12  1.719573 -0.000026 0.000015  -0.019687 0.080141 -1.209820
13  1.209179 0.000091 0.000012  -0.010676 -0.002301 -1.098350
14  3.867491 -0.136541 1.326115  0.199811 -0.042321 -0.754397
15  1.719448 -0.000015 0.000023  0.052828 -0.101481 -0.577244
16  1.099674 0.000048 0.000004  0.015974 0.008285 0.081032
17  0.805994 -0.349050 1.321253  -0.570088 -0.191759 -1.035372
18  1.789820 -0.000003 -0.000017  0.000441 -0.004754 -0.145483
19  1.207015 -0.000010 -0.000043  0.021082 -0.002168 0.700073
20  5.740636 0.000410 -0.000703  -0.052955 0.000003 0.000070
21  11.481015 0.000118 -0.000816  -0.049316 -0.021990 -0.009819
22  6.027525 -0.000330 0.000204  1.877126 -0.527677 1.827324
23  0.000002 11.692101 -0.000008  -1.061949 -0.506680 -0.830445
24  0.000003 0.000010 -0.000003  0.757448 -0.000031 1.570738
25  -0.000001 -0.000012 -0.000001  0.868957 0.000002 1.570712
26  -3.286773 -12.103185 2.073871  1.473120 1.855075 -0.198639
27  6.027511 -0.000257 -0.000230  1.523761 0.528563 -0.784366
28  11.691992 0.000241 0.000855  1.102373 0.000066 -1.761837
29  11.480021 0.000436 0.000959  -1.267525 0.479709 0.215660
30  3.452861 -0.227595 1.051754  0.877464 -0.056173 -2.075854
31  1.312558 0.000026 0.000000  -0.015677 -0.060057 -0.392348
32  0.729345 0.000065 -0.000027  0.007919 -0.008125 -0.675163
33  3.942046 0.050109 0.430997  0.524085 -0.097015 -1.851522
34  1.539097 0.000010 0.000000  -0.012992 -0.051146 -0.650980
35  1.196299 0.000075 -0.000003  0.004319 -0.002068 -0.950551
36  3.883411 -0.050501 -0.431087  0.271728 -0.277377 -1.402722
37  1.719564 -0.000079 -0.000003  -0.025734 -0.006032 -1.456462
38  1.209197 0.000035 0.000012  0.000939 -0.002812 -0.276849
39  3.806436 -0.112147 -1.295330  0.110240 -0.062858 -0.119458
40  1.719412 -0.000099 -0.000034  0.120126 0.024136 -0.199374
41  1.099674 0.000025 0.000006  -0.007217 0.004190 0.131746
42  0.866373 -0.355430 -1.353142  1.308181 0.166838 -0.740879
43  1.789779 -0.000009 -0.000042  0.032550 0.123016 0.037179
44  1.206997 -0.000007 0.000005  0.000293 -0.001887 1.285959
45  5.740572 0.000055 0.000724  0.080690 -0.000014 0.000021
46  11.480948 0.000123 0.000941  0.047911 0.080406 0.016905
47  6.027514 -0.000273 -0.000237  -0.673088 -0.628517 -1.916894
48  -0.000002 11.691977 -0.000007  -1.183235 0.626933 0.898981
49  0.000003 -0.000001 -0.000000  -2.908287 -0.000041 1.570856
50  -0.000007 -0.000015 0.000006  2.272644 -0.000030 1.570865
51  -4.072734 -1.849422 -6.316843  -2.304975 -0.097846 -1.443252
52  0.000000 -0.000001 0.000000  0.008153 -0.000259 0.000009
53  0.000000 0.000000 0.000000  1.565115 0.043565 -0.106862
54  2.524340 -10.695212 -6.215529  0.495769 -0.590297 -2.302769
55  0.000000 0.000000 -0.000000  0.000000 -0.000000 -0.000002
56  0.000030 0.000029 0.000001  -1.571901 -0.044449 -0.106510
57  16.207016 -6.423075 -16.583483  1.570796 -0.000000 0.000000
58  -11.057709 7.474050 -16.538038  1.570796 -0.000000 0.000000
59  1.650710 5.095357 -3.950473  1.570796 -0.000000 0.000000
60  -0.004311 0.001230 -0.000371  0.006898 -0.005534 -0.284229
61  2.073871 12.494887 -1.080626  1.570796 -0.000000 0.000000
62  0.000000 0.000000 0.000000  -0.078727 -3.136056 0.284226
63  0.000000 0.000000 0.000000  1.566657 -0.000549 -0.000658
64  -4.610343 -9.104624 -2.457556  1.236643 -0.941715 0.319386
65  -0.200449 -1.761558 -1.306030  -0.000000 0.000000 -0.000000
66  -0.200450 0.213337 26.427572  -0.000000 0.000000 -0.000000
67  -0.200449 -0.895508 -0.420852  -0.000000 0.000000 -0.000000
68  -0.104048 -4.495923 7.879278  -0.000000 0.000000 -0.000000
69  -0.195264 4.332630 -6.347187  -0.000000 0.000000 -0.000000
70  -0.200449 -1.085799 4.180392  -0.000000 0.000000 -0.000000
71  -2.474895 -10.308149 -3.984878  0.440516 -1.179182 0.586562
time 10
0  0.000006 0.000000 0.000000  -1.570800 -1.391899 -1.570792
1  -4.629757 -4.341123 1.274031  -1.544956 -1.855077 -0.198630
2  6.027520 -0.000326 0.000193  -1.212888 -0.988346 -0.675326
3  11.692108 0.000643 -0.000740  0.024491 -0.000025 -1.541263
4  11.480131 -0.000506 -0.000720  1.093261 -0.245567 0.073107
5  3.734793 -0.437822 -1.135558  -0.348065 0.025562 -1.138966
6  1.312590 0.000012 0.000007  0.003567 -0.015461 -1.381418
7  0.729355 0.000053 0.000049  0.001636 0.002543 -0.968638
8  3.963477 0.049714 -0.429790  -0.212010 0.036094 -0.846581
9  1.539111 0.000082 0.000006  -0.023626 0.053968 -1.173134
10  1.196332 0.000146 0.000029  -0.006644 -0.000327 -0.957728
11  3.896773 -0.046009 0.432240  -0.011950 0.013679 -0.595656
12  1.719573 -0.000026 0.000016  -0.024145 0.102304 -1.242895
13  1.209179 0.000093 0.000012  -0.012646 -0.003568 -1.130296
14  3.876831 -0.134819 1.318003  0.144724 0.011493 -0.698528
15  1.719448 -0.000015 0.000025  0.058346 -0.088697 -0.607491
16  1.099674 0.000048 0.000007  0.010356 0.015898 -0.326780
17  0.793068 -0.356708 1.303490  -0.617931 -0.213337 -1.031129
18  1.789820 -0.000000 -0.000018  -0.002209 -0.011928 -0.128209
19  1.207015 -0.000011 -0.000044  0.014918 -0.000827 0.613029
20  5.740636 0.000410 -0.000702  -0.091978 0.000003 0.000070
21  11.481037 0.000111 -0.000803  -0.088411 -0.033114 -0.010877
22  6.027525 -0.000330 0.000203  1.882468 -0.500496 1.874934
23  0.000002 11.692100 -0.000008  -1.053855 -0.498957 -0.825482
24  0.000003 0.000008 -0.000001  0.893593 -0.000031 1.570739
25  -0.000001 -0.000012 0.000000  0.868957 0.000002 1.570712
26  -3.286773 -12.103185 2.073871  1.473120 1.855075 -0.198639
27  6.027511 -0.000257 -0.000230  1.517596 0.533204 -0.785727
28  11.691992 0.000241 0.000856  1.102373 0.000065 -1.751508
29  11.480113 0.000464 0.000905  -1.266015 0.469601 0.188752
30  3.452861 -0.227595 1.051754  0.877464 -0.056173 -2.075854
31  1.312557 0.000026 0.000000  -0.015677 -0.060057 -0.392348
32  0.729345 0.000065 -0.000027  0.007919 -0.008125 -0.675163
33  3.942046 0.050109 0.430997  0.524085 -0.097016 -1.851522
34  1.539097 0.000009 0.000000  -0.012992 -0.051146 -0.650980
35  1.196300 0.000076 -0.000004  0.004319 -0.002068 -0.950552
36  3.883411 -0.050502 -0.431087  0.271728 -0.277378 -1.402722
37  1.719564 -0.000079 -0.000004  -0.025734 -0.006032 -1.456462
38  1.209197 0.000036 0.000011  0.000939 -0.002812 -0.276849
39  3.806436 -0.112147 -1.295330  0.110240 -0.062858 -0.119458
40  1.719412 -0.000101 -0.000035  0.120126 0.024136 -0.199374
41  1.099674 0.000025 0.000007  -0.007217 0.004190 0.131746
42  0.866372 -0.355431 -1.353142  1.308181 0.166838 -0.740878
43  1.789780 -0.000009 -0.000042  0.032551 0.123016 0.037179
44  1.206996 -0.000006 0.000006  0.000293 -0.001886 1.285959
45  5.740572 0.000054 0.000723  0.082089 -0.000014 0.000021
46  11.480968 0.000127 0.000931  0.049359 0.077908 0.011839
47  6.027514 -0.000273 -0.000237  -0.681095 -0.631336 -1.910417
48  -0.000002 11.691976 -0.000006  -1.177174 0.620767 0.895853
49  0.000004 -0.000001 0.000000  -2.908287 -0.000041 1.570856
50  -0.000007 -0.000015 0.000006  2.272644 -0.000030 1.570865
51  -4.016487 -1.930370 -6.378654  -2.292089 -0.115968 -1.445086
52  -0.000000 0.000000 -0.000000  0.008153 -0.000259 0.000009
53  -0.000000 -0.000001 -0.000000  1.565115 0.043565 -0.106862
54  2.298443 -10.860251 -5.931845  0.472904 -0.605483 -2.284776
55  0.000000 0.000000 -0.000000  0.000000 -0.000000 -0.000002
56  0.000031 0.000029 0.000002  -1.571901 -0.044449 -0.106509
57  16.272089 -6.073536 -15.380364  1.570796 -0.000000 0.000000
58  -11.057709 7.474050 -16.538038  1.570796 -0.000000 0.000000
59  1.278344 5.095309 -3.784621  1.570796 -0.000000 0.000000
60  -0.004311 0.001230 -0.000371  0.006898 -0.005534 -0.284229
61  2.073871 12.494887 -1.080626  1.570796 -0.000000 0.000000
62  0.000000 0.000000 0.000000  -0.078727 -3.136056 0.284226
63  0.000000 0.000000 0.000000  1.567661 0.001645 -0.000531
64  -4.616115 -9.121279 -2.409729  1.201819 -0.950537 0.347176
65  -0.200448 -1.761558 -1.306030  0.000000 -0.000000 -0.000000
66  -0.200449 0.213337 26.427574  0.000000 -0.000000 -0.000000
67  -0.200448 -0.895508 -0.420852  0.000000 -0.000000 -0.000000
68  -0.104047 -4.495923 7.879277  0.000000 -0.000000 -0.000000
69  -0.195264 4.332630 -6.347188  0.000000 -0.000000 -0.000000
70  -0.200448 -1.085798 4.180392  0.000000 -0.000000 -0.000000
71  -2.647215 -10.501211 -3.580347  0.476494 -1.159428 0.558564
time 11
0  0.000006 0.000000 0.000000  -1.570800 -1.391899 -1.570792
1  -4.451869 -4.373238 0.868185  -1.544956 -1.855077 -0.198630
2  6.027519 -0.000327 0.000194  -1.247933 -0.983778 -0.609254
3  11.692108 0.000644 -0.000740  0.115090 -0.000025 -1.531327
4  11.480211 -0.000521 -0.000679  1.062539 -0.335885 0.059711
5  3.739397 -0.435832 -1.136020  -0.350855 0.054864 -1.071944
6  1.312590 0.000012 0.000007  0.003887 -0.016470 -1.391067
7  0.729354 0.000054 0.000050  0.001299 0.003574 -1.042896
8  3.971349 0.050984 -0.429153  -0.212586 0.060419 -0.742904
9  1.539112 0.000085 0.000004  -0.025654 0.054380 -1.227599
10  1.196332 0.000144 0.000029  -0.006817 -0.000198 -0.934160
11  3.901610 -0.045551 0.432556  -0.010655 0.021204 -0.448111
12  1.719573 -0.000026 0.000015  -0.024657 0.115750 -1.253554
13  1.209180 0.000093 0.000013  -0.013346 -0.004025 -1.140198
14  3.903012 -0.129541 1.295726  0.065343 0.042095 -0.532606
15  1.719448 -0.000016 0.000024  0.065958 -0.073687 -0.705992
16  1.099673 0.000048 0.000004  -0.000124 0.020429 -0.929923
17  0.759151 -0.379112 1.254136  -0.711821 -0.279405 -1.004973
18  1.789819 -0.000002 -0.000017  -0.004363 -0.043949 -0.110864
19  1.207016 -0.000011 -0.000044  0.011157 -0.000180 0.525977
20  5.740636 0.000409 -0.000703  -0.094524 0.000003 0.000071
21  11.481052 0.000108 -0.000795  -0.092717 -0.050726 -0.018261
22  6.027524 -0.000330 0.000204  1.903471 -0.493141 1.901771
23  0.000000 11.692099 -0.000007  -1.047990 -0.493390 -0.821860
24  0.000002 0.000010 -0.000002  0.984190 -0.000031 1.570739
25  -0.000001 -0.000011 -0.000001  0.868957 0.000002 1.570712
26  -3.286773 -12.103185 2.073871  1.473120 1.855075 -0.198639
27  6.027511 -0.000257 -0.000230  1.515138 0.534861 -0.786275
28  11.691992 0.000243 0.000857  1.102373 0.000065 -1.742468
29  11.480196 0.000491 0.000856  -1.253049 0.447867 0.169429
30  3.452861 -0.227594 1.051754  0.877464 -0.056173 -2.075854
31  1.312559 0.000026 -0.000000  -0.015677 -0.060057 -0.392348
32  0.729345 0.000065 -0.000027  0.007919 -0.008125 -0.675163
33  3.942046 0.050110 0.430997  0.524085 -0.097016 -1.851522
34  1.539096 0.000010 -0.000000  -0.012992 -0.051146 -0.650980
35  1.196299 0.000076 -0.000003  0.004319 -0.002068 -0.950551
36  3.883412 -0.050501 -0.431087  0.271728 -0.277378 -1.402722
37  1.719563 -0.000079 -0.000004  -0.025734 -0.006032 -1.456462
38  1.209197 0.000035 0.000011  0.000939 -0.002812 -0.276849
39  3.806435 -0.112147 -1.295330  0.110240 -0.062858 -0.119458
40  1.719412 -0.000100 -0.000034  0.120126 0.024136 -0.199374
41  1.099673 0.000025 0.000006  -0.007217 0.004190 0.131746
42  0.866372 -0.355430 -1.353142  1.308181 0.166838 -0.740879
43  1.789780 -0.000009 -0.000041  0.032550 0.123016 0.037179
44  1.206997 -0.000006 0.000005  0.000293 -0.001887 1.285959
45  5.740572 0.000056 0.000725  0.084479 -0.000014 0.000021
46  11.480983 0.000134 0.000921  0.053041 0.073455 0.008006
47  6.027514 -0.000273 -0.000237  -0.684082 -0.632526 -1.907950
48  -0.000001 11.691975 -0.000008  -1.171872 0.615383 0.893089
49  0.000002 -0.000001 -0.000000  -2.908287 -0.000041 1.570856
50  -0.000007 -0.000015 0.000005  2.272644 -0.000030 1.570865
51  -4.014489 -1.996241 -6.446314  -2.272244 -0.134700 -1.437450
52  0.000000 0.000001 -0.000000  0.008153 -0.000259 0.000009
53  -0.000000 0.000000 0.000000  1.565115 0.043565 -0.106862
54  2.239770 -11.040284 -5.840875  0.549883 -0.684322 -2.258677
55  -0.000001 0.000000 0.000001  0.000000 -0.000000 -0.000002
56  0.000029 0.000029 0.000002  -1.571901 -0.044449 -0.106509
57  16.124786 -6.087440 -14.570303  1.570796 -0.000000 0.000000
58  -11.057709 7.474050 -16.538038  1.570796 -0.000000 0.000000
59  0.872498 5.095257 -3.603857  1.570796 -0.000000 0.000000
60  -0.004311 0.001230 -0.000371  0.006898 -0.005534 -0.284229
61  2.073871 12.494887 -1.080626  1.570796 -0.000000 0.000000
62  0.000000 0.000000 0.000000  -0.078727 -3.136056 0.284226
63  0.000000 0.000000 0.000000  1.568791 0.003559 -0.000205
64  -4.629879 -9.128850 -2.375900  1.162079 -0.965237 0.389802
65  -0.200449 -1.761559 -1.306032  0.000000 0.000000 0.000000
66  -0.200451 0.213337 26.427576  0.000000 0.000000 0.000000
67  -0.200449 -0.895508 -0.420853  -0.040104 0.000000 0.000000
68  -0.104048 -4.495924 7.879276  0.000000 0.000000 0.000000
69  -0.195264 4.332630 -6.347187  0.000000 0.000000 0.000000
70  -0.200449 -1.085799 4.180390  0.000000 0.000000 0.000000
71  -2.674138 -10.734393 -3.336038  0.575812 -1.123005 0.491343
time 12
0  0.000006 0.000000 0.000000  -1.570800 -1.391899 -1.570792
1  -4.273980 -4.405353 0.462339  -1.544956 -1.855077 -0.198630
2  6.027519 -0.000327 0.000194  -1.309759 -0.967873 -0.549029
3  11.692107 0.000642 -0.000739  0.190959 -0.000024 -1.532538
4  11.480202 -0.000576 -0.000635  1.255203 -0.403603 -0.020586
5  3.744004 -0.433840 -1.136484  -0.354105 0.078373 -1.009329
6  1.312590 0.000012 0.000009  -0.004457 0.000126 -1.279018
7  0.729356 0.000054 0.000049  -0.003159 0.004932 -1.256571
8  3.979224 0.052254 -0.428518  -0.247892 0.020340 -0.647546
9  1.539111 0.000084 0.000005  -0.005023 0.008216 -1.278252
10  1.196333 0.000144 0.000031  -0.001043 -0.000288 -0.894390
11  3.906838 -0.045054 0.432885  0.040279 -0.002217 -0.280357
12  1.719574 -0.000027 0.000014  -0.011115 0.124956 -1.110069
13  1.209180 0.000092 0.000012  -0.013977 -0.002782 -1.133459
14  3.941858 -0.121039 1.263366  -0.006087 -0.035132 -0.188590
15  1.719449 -0.000015 0.000024  0.086100 -0.160281 -0.918559
16  1.099673 0.000047 0.000006  0.006175 0.024003 -1.178434
17  0.709776 -0.413962 1.183403  -0.775232 -0.443788 -0.987305
18  1.789820 -0.000001 -0.000018  0.005579 -0.120713 -0.168853
19  1.207015 -0.000010 -0.000044  0.011140 -0.002034 0.667872
20  5.740638 0.000410 -0.000702  -0.052715 0.000003 0.000071
21  11.481050 0.000097 -0.000784  -0.056046 -0.060347 -0.028343
22  6.027524 -0.000330 0.000203  1.945453 -0.484231 1.891074
23  0.000001 11.692099 -0.000008  -1.048707 -0.494068 -0.822301
24  0.000003 0.000008 -0.000002  1.060060 -0.000031 1.570739
25  -0.000001 -0.000011 -0.000001  0.868957 0.000002 1.570712
26  -3.286773 -12.103185 2.073871  1.473120 1.855075 -0.198639
27  6.027511 -0.000257 -0.000230  1.516694 0.533069 -0.785884
28  11.691993 0.000242 0.000857  1.102373 0.000065 -1.742581
29  11.480196 0.000489 0.000856  -1.222320 0.427868 0.168822
30  3.452862 -0.227595 1.051754  0.877464 -0.056173 -2.075854
31  1.312559 0.000026 0.000000  -0.015677 -0.060057 -0.392348
32  0.729345 0.000065 -0.000027  0.007919 -0.008126 -0.675163
33  3.942046 0.050108 0.430997  0.524085 -0.097015 -1.851522
34  1.539097 0.000010 -0.000000  -0.012992 -0.051146 -0.650980
35  1.196300 0.000076 -0.000004  0.004319 -0.002069 -0.950552
36  3.883411 -0.050502 -0.431087  0.271728 -0.277378 -1.402722
37  1.719564 -0.000079 -0.000004  -0.025734 -0.006032 -1.456462
38  1.209196 0.000035 0.000011  0.000939 -0.002812 -0.276849
39  3.806436 -0.112148 -1.295329  0.110240 -0.062858 -0.119458
40  1.719413 -0.000099 -0.000034  0.120126 0.024136 -0.199374
41  1.099674 0.000024 0.000007  -0.007217 0.004190 0.131746
42  0.866372 -0.355431 -1.353142  1.308181 0.166838 -0.740879
43  1.789779 -0.000009 -0.000041  0.032550 0.123016 0.037179
44  1.206996 -0.000007 0.000005  0.000293 -0.001887 1.285959
45  5.740573 0.000056 0.000725  0.089717 -0.000014 0.000021
46  11.480985 0.000134 0.000921  0.059496 0.070039 0.006993
47  6.027514 -0.000273 -0.000237  -0.681360 -0.632095 -1.909960
48  -0.000000 11.691974 -0.000008  -1.171938 0.615450 0.893124
49  0.000003 -0.000001 0.000000  -2.908287 -0.000041 1.570856
50  -0.000006 -0.000015 0.000005  2.272644 -0.000030 1.570865
51  -4.042984 -1.991352 -6.459002  -2.243241 -0.144966 -1.422678
52  -0.000000 -0.000000 0.000000  0.008153 -0.000259 0.000009
53  0.000000 -0.000000 0.000000  1.565115 0.043565 -0.106862
54  2.425321 -11.184954 -5.521636  0.859661 -0.793977 -2.319174
55  0.000000 -0.000000 0.000000  0.000000 -0.000000 -0.000002
56  0.000030 0.000028 0.000000  -1.571901 -0.044449 -0.106509
57  15.689006 -6.128571 -13.878916  1.570796 -0.000000 0.000000
58  -11.057709 7.474050 -16.538038  1.570796 -0.000000 0.000000
59  0.466651 5.095205 -3.423092  1.570796 -0.000000 0.000000
60  -0.004311 0.001230 -0.000371  0.006898 -0.005534 -0.284229
61  2.073871 12.494887 -1.080626  1.570796 -0.000000 0.000000
62  0.000000 0.000000 0.000000  -0.078727 -3.136056 0.284226
63  0.000000 0.000000 0.000000  1.569955 0.004912 0.000221
64  -4.646306 -9.110371 -2.363069  1.130605 -0.990154 0.434718
65  -0.200448 -1.761558 -1.306030  0.000000 -0.000000 0.000000
66  -0.200448 0.213337 26.427576  0.000000 -0.000000 0.000000
67  -0.200448 -0.895508 -0.420852  -0.108786 -0.000000 0.000000
68  -0.104047 -4.495924 7.879278  0.000000 -0.000000 0.000000
69  -0.195264 4.332630 -6.347188  0.000000 -0.000000 0.000000
70  -0.200448 -1.085799 4.180392  0.000000 -0.000000 0.000000
71  -2.669117 -10.874497 -3.172857  0.622002 -1.119130 0.484937
time 13
0  0.000006 0.000000 0.000000  -1.570800 -1.391899 -1.570792
1  -4.110767 -4.434818 0.089974  -1.544956 -1.855077 -0.198630
2  6.027518 -0.000327 0.000194  -1.370342 -0.942308 -0.510785
3  11.692107 0.000641 -0.000740  0.248431 -0.000026 -1.561583
4  11.479975 -0.000746 -0.000567  1.356801 -0.360205 -0.046114
5  3.748231 -0.432013 -1.136912  -0.355060 0.091412 -0.942273
6  1.312590 0.000012 0.000008  -0.015154 0.038687 -1.001372
7  0.729355 0.000053 0.000050  -0.011966 0.004053 -1.605856
8  3.986447 0.053419 -0.427935  -0.284145 -0.027255 -0.599540
9  1.539112 0.000085 0.000004  0.017393 -0.037077 -1.301074
10  1.196332 0.000144 0.000030  0.004728 -0.000573 -0.869208
11  3.912285 -0.044534 0.433211  0.085049 -0.039944 -0.162849
12  1.719574 -0.000027 0.000016  0.001895 0.127236 -0.966451
13  1.209179 0.000092 0.000013  -0.014565 -0.001196 -1.088166
14  3.983682 -0.110229 1.230218  -0.065875 -0.096466 0.064461
15  1.719449 -0.000014 0.000024  0.117165 -0.245608 -1.066892
16  1.099674 0.000046 0.000005  0.015370 0.027055 -1.244176
17  0.647422 -0.450495 1.090458  -0.960677 -0.570909 -0.857846
18  1.789819 -0.000002 -0.000018  -0.003245 -0.063196 -0.133141
19  1.207016 -0.000010 -0.000043  0.002993 -0.001354 0.510697
20  5.740637 0.000409 -0.000703  -0.030450 0.000003 0.000071
21  11.481005 0.000061 -0.000771  -0.037369 -0.050925 -0.028149
22  6.027524 -0.000330 0.000203  1.994070 -0.479618 1.857316
23  0.000002 11.692098 -0.000008  -1.065830 -0.510399 -0.832810
24  0.000003 0.000009 -0.000003  1.117533 -0.000031 1.570739
25  -0.000001 -0.000011 -0.000001  0.868957 0.000002 1.570712
26  -3.286773 -12.103185 2.073871  1.473120 1.855075 -0.198639
27  6.027511 -0.000257 -0.000230  1.516915 0.529333 -0.785632
28  11.691992 0.000241 0.000856  1.102373 0.000066 -1.754925
29  11.480083 0.000457 0.000922  -1.161739 0.422972 0.185374
30  3.452862 -0.227595 1.051754  0.877464 -0.056173 -2.075854
31  1.312558 0.000026 -0.000000  -0.015677 -0.060057 -0.392348
32  0.729345 0.000065 -0.000027  0.007919 -0.008125 -0.675163
33  3.942046 0.050109 0.430997  0.524085 -0.097015 -1.851522
34  1.539098 0.000010 0.000000  -0.012992 -0.051146 -0.650980
35  1.196300 0.000076 -0.000004  0.004319 -0.002068 -0.950552
36  3.883412 -0.050501 -0.431087  0.271728 -0.277378 -1.402722
37  1.719564 -0.000079 -0.000004  -0.025734 -0.006032 -1.456462
38  1.209197 0.000035 0.000011  0.000939 -0.002812 -0.276849
39  3.806436 -0.112148 -1.295329  0.110240 -0.062858 -0.119458
40  1.719413 -0.000100 -0.000035  0.120126 0.024136 -0.199374
41  1.099674 0.000024 0.000007  -0.007217 0.004190 0.131746
42  0.866373 -0.355430 -1.353142  1.308181 0.166838 -0.740879
43  1.789780 -0.000009 -0.000042  0.032550 0.123016 0.037179
44  1.206997 -0.000007 0.000006  0.000293 -0.001887 1.285959
45  5.740573 0.000055 0.000725  0.101644 -0.000014 0.000021
46  11.480962 0.000127 0.000934  0.070765 0.070614 0.007550
47  6.027514 -0.000273 -0.000237  -0.677077 -0.633533 -1.912352
48  -0.000002 11.691977 -0.000007  -1.179179 0.622805 0.896892
49  0.000003 0.000000 -0.000000  -2.908287 -0.000041 1.570856
50  -0.000007 -0.000015 0.000006  2.272644 -0.000030 1.570865
51  -4.024322 -1.892637 -6.403060  -2.191459 -0.142207 -1.406235
52  0.000000 -0.000000 -0.000000  0.008153 -0.000259 0.000009
53  0.000000 -0.000000 -0.000000  1.565115 0.043565 -0.106862
54  2.611039 -11.070733 -5.085382  1.070653 -0.792734 -2.386642
55  -0.000000 0.000000 0.000000  0.000000 -0.000000 -0.000002
56  0.000030 0.000029 0.000001  -1.571901 -0.044449 -0.106509
57  15.025042 -6.191240 -13.341413  1.570796 -0.000000 0.000000
58  -11.057709 7.474050 -16.538038  1.570796 -0.000000 0.000000
59  0.094286 5.095157 -3.257241  1.570796 -0.000000 0.000000
60  -0.004311 0.001230 -0.000371  0.006898 -0.005534 -0.284229
61  2.073871 12.494887 -1.080626  1.570796 -0.000000 0.000000
62  0.000000 0.000000 0.000000  -0.078727 -3.136056 0.284226
63  0.000000 0.000000 0.000000  1.571045 0.005425 0.000649
64  -4.660069 -9.069715 -2.414770  1.106858 -1.039927 0.478752
65  -0.200448 -1.761559 -1.306032  0.000000 -0.000000 0.000000
66  -0.200449 0.213337 26.427572  0.000000 -0.000000 0.000000
67  -0.200449 -0.895509 -0.420853  -0.146853 -0.000000 0.000000
68  -0.104047 -4.495924 7.879277  0.000000 -0.000000 0.000000
69  -0.195264 4.332630 -6.347187  0.000000 -0.000000 0.000000
70  -0.200449 -1.085799 4.180391  0.000000 -0.000000 0.000000
71  -2.692848 -10.853329 -3.091623  0.593560 -1.168394 0.542297
time 14
0  0.000006 0.000000 0.000000  -1.570800 -1.391899 -1.570792
1  -3.974471 -4.459424 -0.220979  -1.544956 -1.855077 -0.198630
2  6.027518 -0.000327 0.000194  -1.396869 -0.905407 -0.500746
3  11.692106 0.000645 -0.000740  0.286267 -0.000031 -1.633930
4  11.479443 -0.001060 -0.000453  1.353249 -0.285113 0.024374
5  3.751760 -0.430487 -1.137267  -0.350585 0.088933 -0.879911
6  1.312589 0.000013 0.000006  -0.013609 0.058079 -0.774724
7  0.729355 0.000055 0.000049  -0.015728 0.002606 -1.758053
8  3.992479 0.054392 -0.427447  -0.274326 -0.004605 -0.639495
9  1.539112 0.000084 0.000006  0.005693 -0.014362 -1.098132
10  1.196332 0.000144 0.000031  0.001339 0.000947 -1.008147
11  3.917707 -0.044016 0.433518  -0.027078 -0.031118 -0.126601
12  1.719574 -0.000026 0.000017  -0.009065 0.123347 -1.101033
13  1.209179 0.000092 0.000015  -0.014308 -0.000482 -1.011472
14  4.020061 -0.098974 1.203286  0.013626 -0.156872 0.083572
15  1.719449 -0.000013 0.000024  0.077191 -0.123397 -1.049735
16  1.099674 0.000047 0.000007  0.009144 0.013142 -1.075829
17  0.583206 -0.486658 0.996604  -1.151652 -0.587887 -0.755345
18  1.789819 -0.000001 -0.000018  -0.005158 -0.047109 -0.107639
19  1.207016 -0.000011 -0.000043  0.002718 -0.001839 0.616557
20  5.740637 0.000410 -0.000703  -0.034748 0.000003 0.000070
21  11.480900 -0.000001 -0.000749  -0.037510 -0.037132 -0.012980
22  6.027524 -0.000330 0.000203  2.036526 -0.494083 1.826318
23  0.000002 11.692098 -0.000006  -1.108334 -0.551743 -0.857996
24  0.000003 0.000010 -0.000001  1.155372 -0.000031 1.570739
25  0.000000 -0.000011 -0.000001  0.868957 0.000002 1.570712
26  -3.286773 -12.103185 2.073871  1.473120 1.855075 -0.198639
27  6.027511 -0.000257 -0.000230  1.511745 0.527797 -0.786464
28  11.691994 0.000242 0.000856  1.102373 0.000067 -1.771284
29  11.479936 0.000412 0.001007  -1.084249 0.432681 0.201639
30  3.452861 -0.227596 1.051754  0.877464 -0.056173 -2.075854
31  1.312558 0.000026 0.000000  -0.015677 -0.060057 -0.392348
32  0.729346 0.000065 -0.000028  0.007919 -0.008125 -0.675163
33  3.942046 0.050108 0.430997  0.524085 -0.097015 -1.851522
34  1.539096 0.000009 -0.000000  -0.012992 -0.051146 -0.650980
35  1.196300 0.000076 -0.000004  0.004319 -0.002068 -0.950552
36  3.883411 -0.050502 -0.431087  0.271728 -0.277378 -1.402722
37  1.719563 -0.000079 -0.000003  -0.025734 -0.006032 -1.456462
38  1.209197 0.000035 0.000011  0.000939 -0.002812 -0.276849
39  3.806435 -0.112148 -1.295329  0.110240 -0.062858 -0.119458
40  1.719412 -0.000100 -0.000034  0.120126 0.024136 -0.199374
41  1.099673 0.000024 0.000007  -0.007217 0.004190 0.131746
42  0.866372 -0.355431 -1.353142  1.308181 0.166838 -0.740879
43  1.789779 -0.000009 -0.000043  0.032551 0.123016 0.037179
44  1.206997 -0.000006 0.000005  0.000293 -0.001886 1.285959
45  5.740572 0.000055 0.000725  0.118545 -0.000014 0.000021
46  11.480932 0.000118 0.000951  0.084767 0.074520 0.006681
47  6.027514 -0.000273 -0.000237  -0.677746 -0.638224 -1.910180
48  -0.000003 11.691976 -0.000008  -1.188781 0.632586 0.901814
49  0.000003 -0.000000 0.000000  -2.908287 -0.000041 1.570856
50  -0.000008 -0.000015 0.000004  2.272644 -0.000030 1.570865
51  -3.920305 -1.764853 -6.318220  -2.122288 -0.135002 -1.395194
52  0.000000 -0.000000 -0.000000  0.008153 -0.000259 0.000009
53  -0.000000 -0.000001 0.000000  1.565115 0.043565 -0.106862
54  2.560288 -10.510017 -4.802210  1.102865 -0.738802 -2.367581
55  0.000000 0.000000 -0.000001  0.000000 -0.000000 -0.000002
56  0.000031 0.000029 0.000001  -1.571901 -0.044449 -0.106509
57  14.271936 -6.262322 -12.975546  1.570796 -0.000000 0.000000
58  -11.057709 7.474050 -16.538038  1.570796 -0.000000 0.000000
59  -0.216667 5.095117 -3.118742  1.570796 -0.000000 0.000000
60  -0.004311 0.001230 -0.000371  0.006898 -0.005534 -0.284229
61  2.073871 12.494887 -1.080626  1.570796 -0.000000 0.000000
62  0.000000 0.000000 0.000000  -0.078727 -3.136056 0.284226
63  0.000000 0.000000 0.000000  1.571954 0.003793 0.000978
64  -4.665841 -9.029060 -2.510785  1.074140 -1.107028 0.528125
65  -0.200448 -1.761558 -1.306031  -0.000000 0.000000 -0.000000
66  -0.200449 0.213337 26.427570  -0.000000 0.000000 -0.000000
67  -0.200449 -0.895508 -0.420853  -0.168292 0.000000 -0.000000
68  -0.104047 -4.495923 7.879277  -0.000000 0.000000 -0.000000
69  -0.195264 4.332630 -6.347186  -0.000000 0.000000 -0.000000
70  -0.200449 -1.085799 4.180391  -0.000000 0.000000 -0.000000
71  -2.732302 -10.875547 -3.034010  0.556847 -1.233852 0.616440
time 15
0  0.000006 0.000000 0.000000  -1.570800 -1.391899 -1.570792
1  -3.873490 -4.477655 -0.451367  -1.544956 -1.855077 -0.198630
2  6.027517 -0.000327 0.000193  -1.299202 -0.929016 -0.542880
3  11.692107 0.000645 -0.000740  0.306985 -0.000035 -1.672328
4  11.479180 -0.001203 -0.000390  1.329270 -0.452925 0.393393
5  3.754375 -0.429357 -1.137531  -0.305819 0.061821 -0.813259
6  1.312590 0.000012 0.000007  -0.018301 0.027727 -0.619945
7  0.729355 0.000054 0.000050  -0.010248 0.003261 -1.566473
8  3.996950 0.055113 -0.427088  -0.246218 0.017113 -0.679678
9  1.539113 0.000084 0.000005  -0.000753 0.010227 -0.813609
10  1.196332 0.000145 0.000031  -0.002228 0.001983 -1.147090
11  3.922678 -0.043539 0.433780  -0.215154 -0.017690 -0.118109
12  1.719574 -0.000027 0.000017  -0.015914 0.101636 -1.235065
13  1.209179 0.000093 0.000013  -0.012770 0.001121 -0.855884
14  4.054558 -0.090114 1.175887  0.097152 -0.213248 0.077464
15  1.719449 -0.000012 0.000023  0.034742 0.013177 -1.001263
16  1.099675 0.000047 0.000005  -0.001449 0.001977 -0.816177
17  0.533884 -0.519957 0.927701  -1.243705 -0.546433 -0.712132
18  1.789819 -0.000001 -0.000019  -0.005981 -0.036897 -0.090912
19  1.207016 -0.000010 -0.000043  0.002411 -0.002197 0.722417
20  5.740636 0.000409 -0.000703  -0.061564 0.000003 0.000070
21  11.480844 -0.000029 -0.000736  -0.029053 -0.076786 0.055293
22  6.027524 -0.000330 0.000203  1.968732 -0.517860 1.894619
23  0.000002 11.692099 -0.000007  -1.130838 -0.574050 -0.870777
24  0.000003 0.000010 -0.000002  1.176090 -0.000031 1.570739
25  -0.000000 -0.000012 -0.000001  0.868957 0.000002 1.570712
26  -3.286773 -12.103185 2.073871  1.473120 1.855075 -0.198639
27  6.027511 -0.000257 -0.000230  1.503260 0.531813 -0.788261
28  11.691993 0.000242 0.000857  1.102373 0.000068 -1.781280
29  11.479844 0.000386 0.001059  -1.022424 0.447800 0.204227
30  3.452862 -0.227595 1.051754  0.877464 -0.056173 -2.075854
31  1.312559 0.000026 0.000000  -0.015677 -0.060057 -0.392348
32  0.729345 0.000065 -0.000027  0.007919 -0.008125 -0.675163
33  3.942046 0.050108 0.430997  0.524085 -0.097015 -1.851522
34  1.539096 0.000010 0.000000  -0.012992 -0.051146 -0.650980
35  1.196299 0.000076 -0.000003  0.004319 -0.002068 -0.950552
36  3.883412 -0.050502 -0.431087  0.271728 -0.277377 -1.402722
37  1.719564 -0.000079 -0.000004  -0.025734 -0.006032 -1.456462
38  1.209197 0.000036 0.000011  0.000939 -0.002812 -0.276849
39  3.806437 -0.112149 -1.295330  0.110240 -0.062858 -0.119458
40  1.719412 -0.000099 -0.000034  0.120126 0.024136 -0.199374
41  1.099674 0.000025 0.000007  -0.007217 0.004190 0.131746
42  0.866373 -0.355431 -1.353142  1.308181 0.166838 -0.740879
43  1.789779 -0.000009 -0.000042  0.032550 0.123016 0.037179
44  1.206997 -0.000006 0.000006  0.000293 -0.001886 1.285959
45  5.740570 0.000055 0.000723  0.133458 -0.000014 0.000021
46  11.480911 0.000113 0.000962  0.095911 0.078776 0.003506
47  6.027514 -0.000273 -0.000237  -0.686240 -0.643057 -1.902612
48  -0.000002 11.691976 -0.000008  -1.194653 0.638581 0.904782
49  0.000003 -0.000001 0.000000  -2.908287 -0.000041 1.570856
50  -0.000007 -0.000015 0.000005  2.272644 -0.000030 1.570865
51  -3.768650 -1.693956 -6.235893  -2.062220 -0.133608 -1.393266
52  0.000000 -0.000000 0.000000  0.008153 -0.000259 0.000009
53  0.000000 -0.000001 0.000000  1.565115 0.043565 -0.106862
54  1.270993 -9.925734 -5.009171  0.908673 -0.771183 -1.964463
55  -0.000000 -0.000000 -0.000000  0.000000 -0.000000 -0.000002
56  0.000030 0.000029 0.000001  -1.571901 -0.044449 -0.106509
57  13.607971 -6.324992 -12.766472  1.570796 -0.000000 0.000000
58  -11.057709 7.474050 -16.538038  1.570796 -0.000000 0.000000
59  -0.447055 5.095088 -3.016127  1.570796 -0.000000 0.000000
60  -0.004311 0.001230 -0.000371  0.006898 -0.005534 -0.284229
61  2.073871 12.494887 -1.080626  1.570796 -0.000000 0.000000
62  0.000000 0.000000 0.000000  -0.078727 -3.136056 0.284226
63  0.000000 0.000000 0.000000  1.572575 0.000204 0.001106
64  -4.659816 -9.010581 -2.562486  1.025068 -1.162866 0.582602
65  -0.200447 -1.761559 -1.306031  -0.000000 0.000000 -0.000000
66  -0.200448 0.213337 26.427570  -0.000000 0.000000 -0.000000
67  -0.200448 -0.895508 -0.420853  -0.197312 0.000000 -0.000000
68  -0.104047 -4.495924 7.879277  -0.000000 0.000000 -0.000000
69  -0.195264 4.332630 -6.347185  -0.000000 0.000000 -0.000000
70  -0.200448 -1.085799 5.176029  -0.000000 0.000000 -0.000000
71  -3.234603 -12.044923 -2.593066  0.878828 -1.163726 0.586516
time 16
0  0.000006 0.000000 0.000000  -1.570800 -1.391899 -1.570792
1  -3.812248 -4.488710 -0.591086  -1.544956 -1.855077 -0.198630
2  6.027519 -0.000327 0.000193  -1.306993 -0.988030 -0.575373
3  11.692107 0.000642 -0.000739  0.315714 -0.000028 -1.575464
4  11.479864 -0.000845 -0.000498  1.329470 -0.434969 0.433661
5  3.755961 -0.428672 -1.137690  -0.221628 0.012378 -0.754392
6  1.312591 0.000011 0.000009  -0.040343 -0.036814 -0.497692
7  0.729355 0.000054 0.000049  0.001532 0.001042 -1.148021
8  3.999660 0.055549 -0.426868  -0.188326 -0.025248 -0.535751
9  1.539114 0.000084 0.000005  -0.014302 -0.063795 -0.715959
10  1.196331 0.000145 0.000031  0.005167 0.003525 -1.120445
11  3.926087 -0.043212 0.433955  -0.338092 -0.061111 -0.109865
12  1.719573 -0.000027 0.000016  0.011021 0.043833 -0.867292
13  1.209179 0.000092 0.000013  -0.006191 0.002621 -0.567795
14  4.077797 -0.084595 1.156970  -0.036759 -0.193999 0.054954
15  1.719448 -0.000012 0.000022  0.027578 0.024534 -0.736828
16  1.099675 0.000048 0.000006  -0.003138 0.001960 -0.673258
17  0.513960 -0.536467 0.902808  -0.896995 -0.474666 -0.736055
18  1.789819 -0.000002 -0.000018  -0.008929 -0.003191 -0.085677
19  1.207016 -0.000013 -0.000043  -0.001604 -0.002074 0.545964
20  5.740636 0.000410 -0.000703  -0.066615 0.000003 0.000071
21  11.480980 0.000042 -0.000757  -0.028649 -0.073900 0.063691
22  6.027524 -0.000330 0.000203  1.929559 -0.469762 1.874323
23  0.000003 11.692099 -0.000006  -1.073999 -0.518260 -0.837754
24  0.000003 0.000008 -0.000001  1.184816 -0.000031 1.570739
25  -0.000001 -0.000012 0.000000  0.868957 0.000002 1.570712
26  -3.286773 -12.103185 2.073871  1.473120 1.855075 -0.198639
27  6.027511 -0.000257 -0.000230  1.497862 0.540304 -0.789899
28  11.691992 0.000242 0.000857  1.102373 0.000067 -1.777647
29  11.479879 0.000397 0.001040  -1.000532 0.454854 0.196772
30  3.452861 -0.227595 1.051754  0.877464 -0.056173 -2.075854
31  1.312559 0.000026 -0.000000  -0.015677 -0.060057 -0.392348
32  0.729345 0.000066 -0.000027  0.007919 -0.008125 -0.675163
33  3.942046 0.050109 0.430997  0.524085 -0.097015 -1.851522
34  1.539097 0.000010 0.000000  -0.012992 -0.051146 -0.650980
35  1.196300 0.000076 -0.000004  0.004319 -0.002068 -0.950552
36  3.883411 -0.050502 -0.431087  0.271728 -0.277378 -1.402722
37  1.719563 -0.000079 -0.000003  -0.025734 -0.006032 -1.456462
38  1.209197 0.000035 0.000011  0.000939 -0.002812 -0.276849
39  3.806436 -0.112148 -1.295330  0.110240 -0.062858 -0.119458
40  1.719412 -0.000100 -0.000034  0.120126 0.024136 -0.199373
41  1.099674 0.000025 0.000007  -0.007217 0.004190 0.131746
42  0.866372 -0.355430 -1.353142  1.308181 0.166838 -0.740879
43  1.789779 -0.000009 -0.000043  0.032550 0.123016 0.037179
44  1.206997 -0.000006 0.000005  0.000293 -0.001887 1.285959
45  5.740572 0.000056 0.000723  0.139462 -0.000014 0.000021
46  11.480920 0.000116 0.000957  0.100046 0.080272 0.000635
47  6.027514 -0.000273 -0.000237  -0.698323 -0.643432 -1.894246
48  -0.000002 11.691975 -0.000008  -1.192518 0.636400 0.903707
49  0.000004 -0.000001 -0.000000  -2.908287 -0.000041 1.570856
50  -0.000007 -0.000015 0.000005  2.272644 -0.000030 1.570865
51  -3.667220 -1.738702 -6.190508  -2.036967 -0.137699 -1.396332
52  0.000000 0.000001 -0.000000  0.008153 -0.000259 0.000009
53  -0.000000 -0.000000 0.000000  1.565115 0.043565 -0.106862
54  0.952564 -10.724229 -4.520411  0.875881 -0.743763 -1.865721
55  0.000000 0.000000 -0.000000  0.000000 -0.000000 -0.000002
56  0.000030 0.000029 0.000001  -1.571901 -0.044449 -0.106509
57  13.172190 -6.366123 -12.673286  1.570796 -0.000000 0.000000
58  -11.057709 7.474050 -16.538038  1.570796 -0.000000 0.000000
59  -0.586774 5.095069 -2.953896  1.570796 -0.000000 0.000000
60  -0.004311 0.001230 -0.000371  0.006898 -0.005534 -0.284229
61  2.073871 12.494887 -1.080626  1.570796 -0.000000 0.000000
62  0.000000 0.000000 0.000000  -0.078727 -3.136056 0.284226
63  0.000000 0.000000 0.000000  1.572806 -0.003384 0.000550
64  -4.648626 -9.056949 -2.543425  0.988860 -1.184000 0.616340
65  -0.200448 -1.761559 -1.306031  0.000000 -0.000000 0.000000
66  -0.200450 0.213337 26.427574  0.000000 -0.000000 0.000000
67  -0.200449 -0.895508 -0.420854  -0.226210 -0.000000 0.000000
68  -0.104048 -4.495923 7.879276  0.000000 -0.000000 0.000000
69  -0.195264 4.332630 -6.347188  0.000000 -0.000000 0.000000
70  -0.200449 -1.085799 6.245183  0.000000 -0.000000 0.000000
71  -3.397552 -13.181710 -2.204509  0.988860 -1.184000 0.616340
time 17
0  0.000006 0.000000 0.000000  -1.570800 -1.391899 -1.570792
1  -3.791962 -4.492373 -0.637369  -1.544956 -1.855077 -0.198630
2  6.027519 -0.000327 0.000193  -1.300846 -0.992580 -0.583866
3  11.692108 0.000642 -0.000739  0.317679 -0.000024 -1.524551
4  11.480262 -0.000616 -0.000569  1.264593 -0.465485 0.357841
5  3.756488 -0.428445 -1.137745  -0.183722 -0.010726 -0.734966
6  1.312591 0.000012 0.000007  -0.052792 -0.066402 -0.457461
7  0.729355 0.000055 0.000049  0.006399 -0.001561 -0.956459
8  4.000557 0.055695 -0.426796  -0.155914 -0.071417 -0.392779
9  1.539113 0.000085 0.000005  -0.029431 -0.137488 -0.700326
10  1.196332 0.000144 0.000031  0.012600 0.004869 -1.093791
11  3.926749 -0.043149 0.433994  -0.377995 -0.085522 -0.162295
12  1.719573 -0.000027 0.000015  0.013635 0.021510 -0.709165
13  1.209179 0.000091 0.000013  -0.003564 0.002488 -0.369890
14  4.085223 -0.082716 1.151040  -0.166729 -0.164169 0.030978
15  1.719449 -0.000012 0.000022  0.024233 0.023234 -0.507360
16  1.099675 0.000049 0.000005  -0.003350 0.002242 -0.620629
17  0.513960 -0.536467 0.902808  -0.879064 -0.518438 -0.773456
18  1.789819 -0.000004 -0.000018  -0.008423 -0.007423 -0.105580
19  1.207015 -0.000012 -0.000043  -0.001007 -0.001905 0.669912
20  5.740637 0.000410 -0.000703  -0.070485 0.000003 0.000071
21  11.481061 0.000089 -0.000771  -0.041798 -0.080721 0.044674
22  6.027524 -0.000330 0.000204  1.923401 -0.468388 1.873754
23  0.000002 11.692101 -0.000007  -1.043990 -0.489605 -0.819372
24  0.000003 0.000009 -0.000001  1.186779 -0.000030 1.570739
25  -0.000001 -0.000012 -0.000001  0.868957 0.000002 1.570712
26  -3.286773 -12.103185 2.073871  1.473120 1.855075 -0.198639
27  6.027511 -0.000257 -0.000230  1.501478 0.540236 -0.789202
28  11.691991 0.000242 0.000857  1.102373 0.000067 -1.768003
29  11.479965 0.000423 0.000989  -1.049091 0.451735 0.194390
30  3.452862 -0.227596 1.051754  0.877464 -0.056173 -2.075854
31  1.312559 0.000026 -0.000000  -0.015677 -0.060057 -0.392348
32  0.729345 0.000065 -0.000027  0.007919 -0.008125 -0.675163
33  3.942046 0.050109 0.430997  0.524085 -0.097015 -1.851522
34  1.539097 0.000010 0.000001  -0.012992 -0.051146 -0.650980
35  1.196300 0.000075 -0.000004  0.004319 -0.002068 -0.950552
36  3.883411 -0.050502 -0.431087  0.271728 -0.277378 -1.402722
37  1.719563 -0.000079 -0.000004  -0.025734 -0.006032 -1.456462
38  1.209196 0.000035 0.000011  0.000939 -0.002812 -0.276849
39  3.806436 -0.112148 -1.295329  0.110240 -0.062858 -0.119458
40  1.719412 -0.000100 -0.000035  0.120126 0.024136 -0.199374
41  1.099673 0.000025 0.000007  -0.007217 0.004190 0.131746
42  0.866372 -0.355431 -1.353142  1.308181 0.166838 -0.740879
43  1.789779 -0.000009 -0.000043  0.032550 0.123016 0.037179
44  1.206997 -0.000006 0.000005  0.000293 -0.001887 1.285959
45  5.740572 0.000056 0.000724  0.128318 -0.000014 0.000021
46  11.480937 0.000121 0.000947  0.091005 0.078655 0.002729
47  6.027514 -0.000273 -0.000237  -0.696511 -0.640691 -1.896493
48  -0.000001 11.691975 -0.000007  -1.186854 0.630621 0.900833
49  0.000003 -0.000001 -0.000000  -2.908287 -0.000041 1.570856
50  -0.000006 -0.000015 0.000006  2.272644 -0.000030 1.570865
51  -3.739720 -1.813852 -6.248558  -2.083694 -0.134353 -1.402555
52  0.000000 0.000000 -0.000000  0.008153 -0.000259 0.000009
53  0.000000 -0.000001 0.000000  1.565115 0.043565 -0.106862
54  1.031424 -11.184095 -4.717113  0.819455 -0.773197 -1.893499
55  -0.000001 -0.000000 -0.000000  0.000000 -0.000000 -0.000002
56  0.000029 0.000029 0.000001  -1.571901 -0.044449 -0.106509
57  13.024888 -6.380027 -12.650742  1.570796 -0.000000 0.000000
58  -11.057709 7.474050 -16.538038  1.570796 -0.000000 0.000000
59  -0.633057 5.095064 -2.933281  1.570796 -0.000000 0.000000
60  -0.004311 0.001230 -0.000371  0.006898 -0.005534 -0.284229
61  2.073871 12.494887 -1.080626  1.570796 -0.000000 0.000000
62  0.000000 0.000000 0.000000  -0.078727 -3.136056 0.284226
63  0.000000 0.000000 0.000000  1.570796 -0.005015 0.000000
64  -4.642601 -9.103315 -2.524364  1.043561 -1.142938 0.553542
65  -0.200448 -1.761559 -1.306031  0.000000 -0.000000 0.000000
66  -0.200450 0.213337 26.427572  0.000000 -0.000000 0.000000
67  -0.200449 -0.895508 -0.420852  -0.239319 -0.000000 0.000000
68  -0.104047 -4.495923 7.879275  0.000000 -0.000000 0.000000
69  -0.195263 4.332630 -6.347187  0.000000 -0.000000 0.000000
70  -0.200449 -1.085798 6.245183  0.000000 -0.000000 0.000000
71  -3.428642 -13.242086 -2.223387  1.043561 -1.142938 0.553542
end
