version 1
nodes
0 "ValveBiped.Bip01_Spine4" -1
1 "ValveBiped.Bip01_L_Clavicle" 0
2 "ValveBiped.Bip01_L_UpperArm" 1
3 "ValveBiped.Bip01_L_Forearm" 2
4 "ValveBiped.Bip01_L_Hand" 3
5 "ValveBiped.Bip01_L_Finger4" 4
6 "ValveBiped.Bip01_L_Finger41" 5
7 "ValveBiped.Bip01_L_Finger42" 6
8 "ValveBiped.Bip01_L_Finger3" 4
9 "ValveBiped.Bip01_L_Finger31" 8
10 "ValveBiped.Bip01_L_Finger32" 9
11 "ValveBiped.Bip01_L_Finger2" 4
12 "ValveBiped.Bip01_L_Finger21" 11
13 "ValveBiped.Bip01_L_Finger22" 12
14 "ValveBiped.Bip01_L_Finger1" 4
15 "ValveBiped.Bip01_L_Finger11" 14
16 "ValveBiped.Bip01_L_Finger12" 15
17 "ValveBiped.Bip01_L_Finger0" 4
18 "ValveBiped.Bip01_L_Finger01" 17
19 "ValveBiped.Bip01_L_Finger02" 18
20 "ValveBiped.Bip01_L_Ulna" 3
21 "ValveBiped.Bip01_L_Wrist" 3
22 "rig_l_upperarm" 1
23 "rig_l_forearm" 22
24 "rig_d_l_forearm" 23
25 "rig_d_l_upperarm" 22
26 "ValveBiped.Bip01_R_Clavicle" 0
27 "ValveBiped.Bip01_R_UpperArm" 26
28 "ValveBiped.Bip01_R_Forearm" 27
29 "ValveBiped.Bip01_R_Hand" 28
30 "ValveBiped.Bip01_R_Finger4" 29
31 "ValveBiped.Bip01_R_Finger41" 30
32 "ValveBiped.Bip01_R_Finger42" 31
33 "ValveBiped.Bip01_R_Finger3" 29
34 "ValveBiped.Bip01_R_Finger31" 33
35 "ValveBiped.Bip01_R_Finger32" 34
36 "ValveBiped.Bip01_R_Finger2" 29
37 "ValveBiped.Bip01_R_Finger21" 36
38 "ValveBiped.Bip01_R_Finger22" 37
39 "ValveBiped.Bip01_R_Finger1" 29
40 "ValveBiped.Bip01_R_Finger11" 39
41 "ValveBiped.Bip01_R_Finger12" 40
42 "ValveBiped.Bip01_R_Finger0" 29
43 "ValveBiped.Bip01_R_Finger01" 42
44 "ValveBiped.Bip01_R_Finger02" 43
45 "ValveBiped.Bip01_R_Ulna" 28
46 "ValveBiped.Bip01_R_Wrist" 28
47 "rig_r_upperarm" 26
48 "rig_r_forearm" 47
49 "rig_d_r_forearm" 48
50 "rig_d_r_upperarm" 47
51 "rig_r_hand" -1
52 "rig_d_r_hand" 51
53 "rig_d_r_wrist" 52
54 "rig_l_hand" -1
55 "rig_d_l_hand" 54
56 "rig_d_l_wrist" 54
57 "rig_l_pole" -1
58 "rig_r_pole" -1
59 "rig_l_clavicle" -1
60 "rig_d_l_clavicle" 59
61 "rig_r_clavicle" -1
62 "rig_d_r_clavicle" 61
63 "Camera" -1
64 "body" -1
65 "trigger" 64
66 "bullet1" 64
67 "slide" 64
68 "hammer" 64
69 "sliderelease" 64
70 "barrel" 64
71 "mag" -1
72 "bullet2" 71
73 "bullet3" 71
end
skeleton
time 0
0  0.000006 0.000000 0.000000  -1.570800 -1.391899 -1.570792
1  -10.134789 -9.257131 1.937670  -1.544956 -1.855077 -0.198630
2  6.027517 -0.000323 0.000196  -1.102417 -0.522637 -0.800844
3  11.692114 0.000647 -0.000738  -0.990396 0.000004 -0.839860
4  11.480887 0.000635 -0.000361  2.066853 -0.103504 0.363078
5  3.666625 -0.163903 -1.204800  -0.468169 0.151546 -0.880257
6  1.312589 0.000009 0.000008  -0.000027 0.000044 -0.439740
7  0.729357 0.000054 0.000049  0.000017 0.000021 -0.244317
8  3.942138 0.046333 -0.431542  -0.151817 0.073216 -0.811086
9  1.539112 0.000084 0.000003  -0.000007 0.000021 -0.247842
10  1.196331 0.000145 0.000031  0.000011 0.000019 -0.430770
11  3.883508 -0.047211 0.431351  0.085894 0.021858 -0.587909
12  1.719571 -0.000029 0.000016  0.000015 0.005518 -0.366533
13  1.209180 0.000090 0.000010  0.000004 0.003091 -0.216438
14  3.859673 -0.138417 1.332381  0.354466 -0.042717 -0.531784
15  1.719448 -0.000018 0.000031  0.000028 0.004066 -0.363025
16  1.099675 0.000048 0.000004  0.000003 0.002578 -0.244381
17  0.806008 -0.349036 1.321249  -1.222694 -0.679188 -0.788867
18  1.789819 -0.000002 -0.000019  0.000011 -0.000024 0.228523
19  1.207015 -0.000016 -0.000045  0.000002 -0.000008 0.362856
20  5.740635 0.000386 -0.000701  0.084660 0.000003 0.000063
21  11.481190 0.000300 -0.000727  0.101467 0.017100 0.072554
22  6.027524 -0.000329 0.000202  -0.975663 -2.217705 -1.504468
23  0.000000 11.692100 -0.000006  -0.614340 -0.164694 -0.508954
24  0.000006 0.000008 -0.000000  -0.121332 -0.000031 1.570739
25  0.000001 -0.000012 -0.000001  0.868960 0.000002 1.570712
26  -8.393617 -6.005292 -1.937599  1.473120 1.855075 -0.198639
27  6.027509 -0.000257 -0.000230  0.763168 0.350915 -0.816788
28  11.691992 0.000162 0.000858  0.636696 0.000001 -0.547406
29  11.480382 0.000475 0.000664  -1.666802 0.295139 -0.142130
30  3.859437 -0.132759 1.193063  0.406970 -0.281773 -0.608981
31  1.312560 0.000027 -0.000002  -0.000000 -0.000045 -0.148960
32  0.729348 0.000063 -0.000027  -0.000028 -0.000012 0.046463
33  3.942049 0.050138 0.430999  0.121278 -0.118788 -0.520704
34  1.539098 0.000006 0.000001  0.000007 -0.000009 0.042924
35  1.196307 0.000077 -0.000004  -0.000009 -0.000007 -0.140033
36  3.883414 -0.050473 -0.431086  -0.089865 -0.000691 -0.298015
37  1.719563 -0.000085 -0.000005  -0.002289 -0.007626 -0.075729
38  1.209196 0.000036 0.000011  -0.001277 -0.004274 0.074338
39  3.859590 -0.149082 -1.331322  -0.330196 0.136796 -0.257123
40  1.719414 -0.000098 -0.000035  -0.001916 -0.006299 -0.072275
41  1.099673 0.000023 0.000006  -0.001196 -0.004014 0.046404
42  0.805983 -0.359849 -1.318339  1.079795 0.646453 -0.910428
43  1.789780 -0.000008 -0.000043  0.011966 0.001552 -0.110980
44  1.206997 -0.000003 0.000005  0.005321 0.005317 0.007331
45  5.740572 0.000077 0.000719  -0.049002 -0.000014 0.000028
46  11.481021 0.000167 0.000878  -0.018802 0.038256 -0.034820
47  6.027515 -0.000271 -0.000228  -1.404939 -1.214846 -0.993557
48  -0.000001 11.691975 -0.000008  -0.409884 0.072127 0.343615
49  0.000003 0.000001 0.000001  2.909278 -0.000036 1.570860
50  -0.000007 -0.000015 0.000004  2.272645 -0.000036 1.570861
51  -12.080094 -2.607073 -28.354927  -0.668265 2.441716 1.352336
52  -0.000000 0.000001 -0.000000  0.008153 -0.000259 0.000009
53  0.000000 0.000000 -0.000000  1.565115 0.043565 -0.106862
54  10.245171 -5.342162 -23.366718  0.255881 0.766400 -1.766008
55  0.000002 0.000000 0.000001  0.000000 -0.000001 -0.000002
56  0.000032 0.000029 0.000001  -1.571901 -0.044449 -0.106509
57  14.062574 -12.874806 -32.482468  1.570796 -0.000000 0.000000
58  -15.417985 2.938832 -23.313402  1.570796 -0.000000 0.000000
59  1.941978 10.912449 -8.327020  1.570796 -0.000000 0.000000
60  -0.004311 0.001229 -0.000372  0.006898 -0.005534 -0.284229
61  -1.937603 7.403047 -7.191051  1.570796 -0.000000 0.000000
62  0.000000 0.000000 0.000000  -0.078727 -3.136056 0.284226
63  -1.923794 -1.699245 -0.667801  1.570796 -0.000000 0.000000
64  -2.762233 -32.432926 -0.819312  1.570796 -0.000000 1.570796
65  -0.000004 1.459181 2.741114  0.000000 -0.000000 0.000000
66  -0.000004 1.699923 0.973997  0.000000 -0.000000 0.000000
67  -0.000004 2.151127 1.118580  0.000000 -0.000000 0.000000
68  -0.000004 1.691831 -0.423392  -0.876616 0.001126 0.000617
69  -0.190811 1.634964 3.156577  0.029475 0.000000 -0.000000
70  -0.000003 2.606070 7.210410  -0.035921 -0.000000 0.000000
71  -1.788236 -32.432922 0.880611  1.570796 -0.000000 1.570796
72  -0.068592 -0.065953 -0.011620  0.000000 -0.000000 0.000000
73  -0.137665 -0.609178 -0.193564  0.000000 -0.000000 0.000000
time 1
0  0.000006 0.000000 0.000000  -1.570800 -1.391899 -1.570792
1  -10.128283 -9.221152 1.937670  -1.544956 -1.855077 -0.198630
2  6.027518 -0.000322 0.000196  -1.232031 -0.485950 -0.827535
3  11.692114 0.000643 -0.000739  -0.990403 0.000002 -0.949650
4  11.479644 0.000365 -0.000777  2.134501 -0.083703 0.447518
5  3.666627 -0.163905 -1.204802  -0.463242 0.154191 -0.881602
6  1.312591 0.000013 0.000009  -0.000029 0.000078 -0.423578
7  0.729356 0.000058 0.000049  0.000012 0.000055 -0.230667
8  3.942140 0.046331 -0.431542  -0.148547 0.073944 -0.811197
9  1.539111 0.000086 0.000006  0.000018 0.000100 -0.238610
10  1.196332 0.000146 0.000031  0.000003 0.000019 -0.423363
11  3.883512 -0.047213 0.431348  0.087081 0.023799 -0.587741
12  1.719573 -0.000029 0.000016  0.000037 0.005514 -0.357386
13  1.209180 0.000090 0.000012  0.000004 0.003090 -0.216585
14  3.859675 -0.138418 1.332380  0.350856 -0.042513 -0.531709
15  1.719447 -0.000019 0.000028  0.000116 0.003970 -0.342552
16  1.099675 0.000050 0.000007  0.000003 0.002578 -0.244484
17  0.791732 -0.350832 1.324934  -1.222694 -0.679188 -0.788867
18  1.789819 -0.000001 -0.000018  0.000011 -0.000024 0.228523
19  1.207015 -0.000014 -0.000042  0.000002 -0.000008 0.362856
20  5.740635 0.000390 -0.000699  0.094090 0.000003 0.000063
21  11.480941 0.000248 -0.000809  0.113745 0.026947 0.089609
22  6.027524 -0.000330 0.000202  2.334510 -0.867745 1.415940
23  0.000000 11.692099 -0.000008  -0.687601 -0.207641 -0.566305
24  0.000005 0.000009 0.000000  -0.121333 -0.000031 1.570739
25  -0.000001 -0.000013 -0.000001  0.868960 0.000002 1.570712
26  -8.360491 -6.110139 -1.876315  1.473120 1.855075 -0.198639
27  6.027510 -0.000258 -0.000231  0.963774 0.242871 -0.720300
28  11.691993 0.000161 0.000858  0.625805 0.000009 -0.810423
29  11.480063 0.000313 0.000785  -1.742097 0.289462 -0.086601
30  3.856139 -0.139443 1.190932  0.406970 -0.281773 -0.608982
31  1.312557 0.000026 0.000001  -0.000000 -0.000045 -0.148960
32  0.729345 0.000064 -0.000026  -0.000027 -0.000012 0.046463
33  3.939359 0.045598 0.428716  0.121278 -0.118788 -0.520704
34  1.539095 0.000006 0.000001  0.000007 -0.000009 0.042924
35  1.196303 0.000077 -0.000001  -0.000009 -0.000007 -0.140032
36  3.883391 -0.053164 -0.430767  -0.089865 -0.000691 -0.298015
37  1.719566 -0.000084 -0.000002  -0.002289 -0.007626 -0.075729
38  1.209197 0.000036 0.000011  -0.001277 -0.004274 0.074338
39  3.859588 -0.149082 -1.331320  -0.330385 0.134846 -0.256449
40  1.719411 -0.000100 -0.000034  -0.001916 -0.006299 -0.072275
41  1.099673 0.000023 0.000008  -0.001196 -0.004014 0.046404
42  0.786011 -0.375296 -1.310307  1.081260 0.640679 -0.901767
43  1.789781 -0.000009 -0.000042  0.009220 0.001062 -0.110890
44  1.206997 -0.000005 0.000006  0.004523 0.005045 0.007347
45  5.740572 0.000081 0.000721  -0.065445 -0.000014 0.000028
46  11.480956 0.000138 0.000901  -0.034397 0.036788 -0.021079
47  6.027515 -0.000272 -0.000229  -0.763250 -1.215551 -1.560034
48  -0.000001 11.691977 -0.000005  -0.594323 0.153864 0.493123
49  0.000003 -0.000002 -0.000000  2.898369 -0.000036 1.570860
50  -0.000007 -0.000013 0.000006  2.272645 -0.000036 1.570861
51  -12.692557 -2.715822 -26.844372  -0.590744 2.511604 1.364155
52  -0.000000 -0.000001 0.000002  0.008153 -0.000259 0.000009
53  -0.000001 0.000000 0.000001  1.565115 0.043565 -0.106862
54  10.198836 -5.478943 -22.351908  0.154595 0.713102 -1.865405
55  -0.000002 -0.000000 -0.000003  0.000000 -0.000001 -0.000002
56  0.000029 0.000030 -0.000004  -1.571902 -0.044449 -0.106509
57  14.297110 -13.022662 -32.144703  1.570796 -0.000000 0.000000
58  -15.417985 2.962374 -23.298515  1.570796 -0.000000 0.000000
59  1.941978 10.875887 -8.327020  1.570796 -0.000000 0.000000
60  -0.004311 0.001229 -0.000372  0.006898 -0.005534 -0.284229
61  -1.876319 7.500325 -7.139796  1.570796 -0.000000 0.000000
62  0.000000 0.000000 0.000000  -0.078727 -3.136056 0.284226
63  -1.923794 -1.699245 -0.667801  1.570808 0.000845 0.000004
64  -2.738532 -31.843948 -0.904493  1.570796 -0.000000 1.532519
65  0.000001 1.459181 2.741115  -0.000000 0.000000 -0.000000
66  0.000002 1.699923 0.973997  -0.000000 0.000000 -0.000000
67  0.000001 2.151127 1.118581  -0.000000 0.000000 -0.000000
68  0.000002 1.691831 -0.423391  -0.876616 0.001126 0.000617
69  -0.190804 1.634964 3.156577  0.029475 0.000000 -0.000000
70  0.000002 2.606070 7.210410  -0.035921 0.000000 0.000000
71  -1.765248 -31.881220 0.795430  1.570796 -0.000000 1.532519
72  -0.068588 -0.065953 -0.011620  -0.000000 0.000000 -0.000000
73  -0.137660 -0.609178 -0.193563  -0.000000 0.000000 -0.000000
time 2
0  0.000006 0.000000 0.000000  -1.570800 -1.391899 -1.570792
1  -10.108702 -9.112871 1.937670  -1.544956 -1.855077 -0.198630
2  6.027518 -0.000322 0.000197  -1.406462 -0.473802 -0.864701
3  11.692111 0.000644 -0.000739  -0.990417 -0.000007 -1.181441
4  11.480304 0.000460 -0.000626  2.085319 -0.000801 0.612710
5  3.666629 -0.163902 -1.204801  -0.443799 0.177130 -0.856585
6  1.312591 0.000011 0.000007  -0.000041 0.000347 -0.375172
7  0.729355 0.000050 0.000049  -0.000024 0.000158 -0.189823
8  3.942142 0.046332 -0.431541  -0.136375 0.081490 -0.780503
9  1.539110 0.000080 0.000001  0.000095 0.000373 -0.211024
10  1.196332 0.000143 0.000030  -0.000025 0.000023 -0.401255
11  3.883512 -0.047211 0.431350  0.091305 0.027929 -0.560036
12  1.719572 -0.000029 0.000018  0.000102 0.005488 -0.330053
13  1.209179 0.000089 0.000013  0.000003 0.003089 -0.217781
14  3.859677 -0.138417 1.332380  0.338715 -0.046388 -0.515768
15  1.719448 -0.000019 0.000030  0.000371 0.003670 -0.281108
16  1.099674 0.000049 0.000008  0.000000 0.002578 -0.245321
17  0.754081 -0.355557 1.334658  -1.250434 -0.664055 -0.743962
18  1.789819 -0.000002 -0.000018  -0.000298 -0.000099 0.203924
19  1.207015 -0.000013 -0.000043  -0.000874 -0.000478 0.344470
20  5.740636 0.000387 -0.000701  0.092383 0.000003 0.000064
21  11.481074 0.000268 -0.000781  0.098698 0.047872 0.117817
22  6.027524 -0.000329 0.000202  2.472057 -0.744992 1.198542
23  0.000001 11.692100 -0.000007  -0.836219 -0.310912 -0.678121
24  0.000003 0.000009 0.000001  -0.121333 -0.000030 1.570739
25  0.000001 -0.000011 -0.000001  0.868960 0.000002 1.570712
26  -8.260792 -6.425684 -1.691874  1.473120 1.855075 -0.198639
27  6.027511 -0.000258 -0.000228  1.492525 0.056234 -0.746953
28  11.691991 0.000162 0.000857  0.592914 0.000029 -1.234295
29  11.479620 -0.000041 0.001012  -1.919768 0.135687 0.077964
30  3.846223 -0.159556 1.184513  0.406971 -0.281773 -0.608982
31  1.312559 0.000025 -0.000002  -0.000000 -0.000045 -0.148960
32  0.729347 0.000065 -0.000027  -0.000028 -0.000012 0.046463
33  3.931270 0.031939 0.421838  0.121278 -0.118788 -0.520704
34  1.539097 0.000005 -0.000002  0.000007 -0.000009 0.042924
35  1.196302 0.000078 -0.000002  -0.000009 -0.000007 -0.140032
36  3.883327 -0.061263 -0.429814  -0.089865 -0.000691 -0.298015
37  1.719563 -0.000082 -0.000006  -0.002288 -0.007626 -0.075729
38  1.209198 0.000034 0.000011  -0.001277 -0.004274 0.074338
39  3.859589 -0.149082 -1.331321  -0.330856 0.129156 -0.254479
40  1.719413 -0.000098 -0.000037  -0.001916 -0.006299 -0.072275
41  1.099674 0.000023 0.000005  -0.001196 -0.004014 0.046404
42  0.726404 -0.421412 -1.286333  1.085297 0.623578 -0.875580
43  1.789781 -0.000007 -0.000042  0.000948 -0.000508 -0.110121
44  1.206997 -0.000009 0.000005  0.002256 0.003595 0.007492
45  5.740573 0.000080 0.000722  -0.071269 -0.000014 0.000028
46  11.480869 0.000068 0.000946  -0.070656 0.001865 0.013799
47  6.027516 -0.000274 -0.000228  -0.079001 -0.778563 -2.262282
48  0.000000 11.691976 -0.000005  -0.868997 0.336572 0.701826
49  0.000002 -0.000001 0.000000  2.865455 -0.000036 1.570860
50  -0.000006 -0.000014 0.000006  2.272645 -0.000036 1.570861
51  -14.074357 -3.074516 -22.683357  -0.398044 2.712433 1.366864
52  0.000001 -0.000001 0.000003  0.008153 -0.000259 0.000009
53  0.000001 0.000001 -0.000000  1.565115 0.043565 -0.106862
54  9.906859 -5.881890 -19.480747  -0.071698 0.525029 -2.072363
55  -0.000001 0.000001 -0.000001  0.000000 -0.000001 -0.000002
56  0.000030 0.000030 0.000001  -1.571901 -0.044449 -0.106509
57  14.910593 -13.467643 -31.128174  1.570796 -0.000000 0.000000
58  -15.417985 3.033225 -23.253716  1.570796 -0.000000 0.000000
59  1.941978 10.765850 -8.327020  1.570796 -0.000000 0.000000
60  -0.004311 0.001229 -0.000372  0.006898 -0.005534 -0.284229
61  -1.691878 7.793094 -6.985539  1.570796 -0.000000 0.000000
62  0.000000 0.000000 0.000000  -0.078727 -3.136056 0.284226
63  -1.923794 -1.699245 -0.667801  1.570840 0.002861 0.000016
64  -2.674201 -30.243034 -1.135698  1.570797 -0.000001 1.425678
65  -0.000000 1.459181 2.741115  0.000000 0.000000 -0.000000
66  0.000004 1.699923 0.973997  0.000000 0.000000 -0.000000
67  -0.000000 2.151127 1.118581  0.000000 0.000000 -0.000000
68  -0.000000 1.691831 -0.423391  -0.876616 0.001126 0.000617
69  -0.190805 1.634965 3.156577  0.029475 0.000000 -0.000000
70  0.000002 2.606070 7.210411  -0.035921 0.000000 0.000000
71  -1.710440 -30.383883 0.564224  1.570797 -0.000001 1.425678
72  -0.068592 -0.065953 -0.011620  0.000000 0.000000 -0.000000
73  -0.137661 -0.609178 -0.193564  0.000000 0.000000 -0.000000
time 3
0  0.000006 0.000000 0.000000  -1.570800 -1.391899 -1.570792
1  -10.076865 -8.936813 1.937670  -1.544956 -1.855077 -0.198630
2  6.027518 -0.000323 0.000195  -1.473600 -0.561702 -0.851101
3  11.692107 0.000645 -0.000737  -0.990426 -0.000016 -1.355570
4  11.480132 0.000381 -0.000750  1.833026 0.078684 0.646637
5  3.666627 -0.163903 -1.204802  -0.407056 0.224749 -0.793737
6  1.312590 0.000009 0.000008  -0.000040 0.001194 -0.298581
7  0.729356 0.000052 0.000050  -0.000138 0.000328 -0.125292
8  3.942140 0.046330 -0.431542  -0.114441 0.097865 -0.708243
9  1.539111 0.000082 0.000006  0.000237 0.000892 -0.167525
10  1.196333 0.000145 0.000029  -0.000076 0.000035 -0.366454
11  3.883510 -0.047213 0.431351  0.098779 0.034102 -0.495466
12  1.719573 -0.000027 0.000014  0.000201 0.005406 -0.286954
13  1.209180 0.000090 0.000013  0.000003 0.003086 -0.221525
14  3.859676 -0.138419 1.332380  0.317195 -0.053545 -0.477919
15  1.719448 -0.000019 0.000029  0.000746 0.003164 -0.183582
16  1.099675 0.000050 0.000005  -0.000006 0.002578 -0.247938
17  0.700852 -0.362241 1.348403  -1.310940 -0.624431 -0.642477
18  1.789819 -0.000004 -0.000019  -0.001027 -0.000305 0.146305
19  1.207016 -0.000013 -0.000044  -0.002886 -0.001638 0.301528
20  5.740634 0.000389 -0.000697  0.063987 0.000003 0.000064
21  11.481037 0.000254 -0.000804  0.044396 0.050724 0.120120
22  6.027524 -0.000329 0.000201  2.407511 -0.651788 1.220428
23  0.000000 11.692099 -0.000005  -0.943131 -0.398219 -0.753519
24  0.000003 0.000008 0.000000  -0.121332 -0.000031 1.570739
25  0.000000 -0.000011 0.000001  0.868960 0.000002 1.570712
26  -8.098690 -6.938742 -1.391983  1.473120 1.855075 -0.198639
27  6.027511 -0.000257 -0.000226  1.873289 0.117336 -0.831931
28  11.691994 0.000162 0.000856  0.539174 0.000048 -1.487723
29  11.480379 0.000160 0.000863  -1.882319 0.039681 0.280319
30  3.830096 -0.192262 1.174076  0.406971 -0.281773 -0.608982
31  1.312560 0.000028 -0.000001  -0.000000 -0.000045 -0.148960
32  0.729346 0.000067 -0.000026  -0.000028 -0.000012 0.046463
33  3.918117 0.009728 0.410652  0.121278 -0.118788 -0.520704
34  1.539097 0.000005 0.000001  0.000007 -0.000009 0.042924
35  1.196299 0.000079 -0.000004  -0.000009 -0.000007 -0.140032
36  3.883222 -0.074437 -0.428263  -0.089865 -0.000691 -0.298015
37  1.719564 -0.000084 -0.000002  -0.002289 -0.007626 -0.075729
38  1.209195 0.000034 0.000007  -0.001277 -0.004274 0.074338
39  3.859587 -0.149081 -1.331320  -0.331473 0.119876 -0.251264
40  1.719412 -0.000097 -0.000037  -0.001916 -0.006299 -0.072275
41  1.099675 0.000023 0.000008  -0.001196 -0.004014 0.046404
42  0.632560 -0.494015 -1.248590  1.090603 0.596964 -0.833652
43  1.789781 -0.000007 -0.000041  -0.012269 -0.003229 -0.107679
44  1.206998 -0.000006 0.000006  -0.001031 -0.000261 0.007967
45  5.740573 0.000082 0.000722  -0.062214 -0.000014 0.000028
46  11.481021 0.000107 0.000918  -0.061070 -0.021920 0.050739
47  6.027514 -0.000273 -0.000229  -0.127263 -0.396465 -2.353429
48  -0.000003 11.691977 -0.000006  -1.022123 0.469155 0.805691
49  0.000002 -0.000001 -0.000001  2.811708 -0.000036 1.570860
50  -0.000008 -0.000014 0.000004  2.272645 -0.000036 1.570861
51  -14.861933 -3.633515 -17.956284  -0.208373 2.944195 1.333160
52  0.000000 0.000001 0.000001  0.008153 -0.000259 0.000009
53  0.000000 0.000001 0.000001  1.565115 0.043565 -0.106862
54  9.154095 -6.406693 -16.024946  -0.252222 0.272908 -2.188857
55  0.000001 -0.000001 0.000001  0.000000 -0.000001 -0.000002
56  0.000031 0.000027 0.000003  -1.571901 -0.044449 -0.106509
57  15.524076 -14.191157 -29.475353  1.570796 -0.000000 0.000000
58  -15.417985 3.148425 -23.180872  1.570796 -0.000000 0.000000
59  1.941978 10.586937 -8.327020  1.570796 -0.000000 0.000000
60  -0.004311 0.001229 -0.000372  0.006898 -0.005534 -0.284229
61  -1.391987 8.269119 -6.734729  1.570796 -0.000000 0.000000
62  0.000000 0.000000 0.000000  -0.078727 -3.136056 0.284226
63  -1.923794 -1.699245 -0.667801  1.570886 0.005267 0.000034
64  -2.579397 -27.879208 -1.476421  1.570800 -0.000003 1.261177
65  0.000000 1.459181 2.741114  0.000000 0.000000 0.000000
66  0.000001 1.699923 0.973996  0.000000 0.000000 0.000000
67  0.000002 2.151127 1.118580  0.000000 0.000000 0.000000
68  -0.000000 1.691831 -0.423392  -0.876616 0.001126 0.000617
69  -0.190806 1.634964 3.156577  0.029475 0.000000 -0.000000
70  0.000001 2.606070 7.210409  -0.035921 0.000000 0.000000
71  -1.651709 -28.175987 0.223497  1.570800 -0.000003 1.261177
72  -0.068588 -0.065953 -0.011620  0.000000 0.000000 0.000000
73  -0.137658 -0.609178 -0.193565  0.000000 0.000000 0.000000
time 4
0  0.000006 0.000000 0.000000  -1.570800 -1.391899 -1.570792
1  -10.035225 -8.706539 1.937670  -1.544956 -1.855077 -0.198630
2  6.027518 -0.000322 0.000193  -1.455124 -0.685707 -0.795749
3  11.692109 0.000642 -0.000740  -0.990429 -0.000020 -1.425741
4  11.479720 0.000255 -0.000938  1.580276 0.001577 0.563618
5  3.666627 -0.163904 -1.204803  -0.356992 0.284025 -0.713596
6  1.312590 0.000007 0.000008  0.000072 0.003017 -0.204928
7  0.729355 0.000054 0.000049  -0.000382 0.000556 -0.046473
8  3.942140 0.046331 -0.431544  -0.085602 0.119789 -0.618586
9  1.539111 0.000083 0.000005  0.000451 0.001694 -0.114472
10  1.196333 0.000146 0.000029  -0.000153 0.000063 -0.324076
11  3.883510 -0.047213 0.431349  0.108746 0.044291 -0.415240
12  1.719574 -0.000027 0.000018  0.000313 0.005229 -0.234390
13  1.209179 0.000090 0.000012  0.000001 0.003080 -0.229599
14  3.859676 -0.138418 1.332379  0.287658 -0.056285 -0.429333
15  1.719448 -0.000018 0.000029  0.001155 0.002494 -0.064053
16  1.099675 0.000049 0.000005  -0.000021 0.002578 -0.253583
17  0.639835 -0.369900 1.364156  -1.376706 -0.568124 -0.524356
18  1.789820 -0.000003 -0.000017  -0.001932 -0.000620 0.074967
19  1.207017 -0.000012 -0.000044  -0.005299 -0.003187 0.248527
20  5.740637 0.000389 -0.000698  0.020282 0.000003 0.000063
21  11.480957 0.000231 -0.000841  0.000155 0.021533 0.102659
22  6.027524 -0.000329 0.000201  2.267198 -0.599975 1.368904
23  -0.000000 11.692099 -0.000009  -0.985295 -0.435436 -0.781756
24  0.000002 0.000009 0.000000  -0.121332 -0.000031 1.570739
25  -0.000000 -0.000012 -0.000000  0.868960 0.000002 1.570712
26  -7.886667 -7.609799 -0.999740  1.473120 1.855075 -0.198639
27  6.027513 -0.000258 -0.000224  1.905908 0.244740 -0.786111
28  11.691993 0.000160 0.000859  0.468560 0.000051 -1.560131
29  11.479815 -0.000209 0.001022  -1.710905 0.102505 0.331726
30  3.809001 -0.235039 1.160424  0.406970 -0.281773 -0.608982
31  1.312559 0.000028 -0.000001  -0.000000 -0.000045 -0.148960
32  0.729347 0.000065 -0.000029  -0.000027 -0.000012 0.046463
33  3.900913 -0.019324 0.396022  0.121278 -0.118788 -0.520704
34  1.539095 0.000006 -0.000002  0.000007 -0.000009 0.042924
35  1.196301 0.000079 -0.000005  -0.000009 -0.000007 -0.140032
36  3.883085 -0.091665 -0.426239  -0.089865 -0.000691 -0.298015
37  1.719563 -0.000086 -0.000004  -0.002289 -0.007626 -0.075729
38  1.209196 0.000035 0.000010  -0.001277 -0.004274 0.074338
39  3.859587 -0.149083 -1.331321  -0.332104 0.107044 -0.246818
40  1.719412 -0.000098 -0.000038  -0.001916 -0.006299 -0.072275
41  1.099673 0.000024 0.000007  -0.001196 -0.004014 0.046404
42  0.518243 -0.582457 -1.202616  1.095400 0.565253 -0.781040
43  1.789779 -0.000007 -0.000042  -0.028744 -0.006974 -0.102375
44  1.206996 -0.000008 0.000006  -0.004508 -0.007922 0.009016
45  5.740573 0.000081 0.000721  -0.030389 -0.000014 0.000028
46  11.480907 0.000034 0.000949  -0.028637 -0.005473 0.059136
47  6.027515 -0.000273 -0.000229  -0.261428 -0.355332 -2.264167
48  -0.000000 11.691975 -0.000007  -1.064904 0.509550 0.832333
49  0.000003 -0.000001 0.000002  2.741090 -0.000036 1.570860
50  -0.000007 -0.000014 0.000005  2.272645 -0.000036 1.570861
51  -13.974303 -4.247921 -15.016747  -0.121642 3.091568 1.313502
52  0.000000 0.000000 -0.000000  0.008153 -0.000259 0.000009
53  -0.000001 0.000001 0.000000  1.565115 0.043565 -0.106862
54  7.944530 -6.851090 -13.534251  -0.335907 0.125933 -2.157472
55  0.000000 0.000001 -0.000001  0.000000 -0.000001 -0.000002
56  0.000031 0.000030 0.000000  -1.571901 -0.044449 -0.106509
57  15.758612 -15.137479 -27.313545  1.570796 -0.000000 0.000000
58  -15.417985 3.299099 -23.085596  1.570796 -0.000000 0.000000
59  1.941978 10.352928 -8.327020  1.570796 -0.000000 0.000000
60  -0.004311 0.001229 -0.000372  0.006898 -0.005534 -0.284229
61  -0.999744 8.891738 -6.406679  1.570796 -0.000000 0.000000
62  0.000000 0.000000 0.000000  -0.078727 -3.136056 0.284226
63  -1.923794 -1.699245 -0.667801  1.570940 0.007282 0.000058
64  -2.464278 -25.001495 -1.890157  1.570807 -0.000006 1.052291
65  0.000002 1.459181 2.741113  -0.000000 0.000000 -0.000000
66  0.000004 1.699923 0.973996  -0.000000 0.000000 -0.000000
67  0.000004 2.151127 1.118580  -0.000000 0.000000 -0.000000
68  0.000004 1.691831 -0.423392  -0.876616 0.001126 0.000617
69  -0.190802 1.634965 3.156575  0.029475 0.000000 -0.000000
70  0.000004 2.606070 7.210408  -0.035921 0.000000 0.000000
71  -1.618292 -25.484209 -0.190244  1.570807 -0.000006 1.052291
72  -0.068586 -0.065953 -0.011620  -0.000000 0.000000 -0.000000
73  -0.137656 -0.609178 -0.193564  -0.000000 0.000000 -0.000000
time 5
0  0.000006 0.000000 0.000000  -1.570800 -1.391899 -1.570792
1  -9.988052 -8.445676 1.937670  -1.544956 -1.855077 -0.198630
2  6.027517 -0.000324 0.000193  -1.407583 -0.812548 -0.733933
3  11.692112 0.000645 -0.000739  -0.990430 -0.000022 -1.456128
4  11.479319 0.000128 -0.001137  1.371739 -0.237420 0.488406
5  3.666627 -0.163904 -1.204803  -0.301112 0.345087 -0.632106
6  1.312590 0.000010 0.000007  0.000454 0.006131 -0.111272
7  0.729354 0.000053 0.000048  -0.000806 0.000831 0.032345
8  3.942141 0.046330 -0.431543  -0.054046 0.145575 -0.529570
9  1.539109 0.000082 0.000003  0.000735 0.002775 -0.061419
10  1.196333 0.000147 0.000028  -0.000253 0.000111 -0.281710
11  3.883509 -0.047213 0.431350  0.120229 0.059398 -0.335053
12  1.719573 -0.000027 0.000018  0.000405 0.004929 -0.181827
13  1.209179 0.000090 0.000012  -0.000002 0.003068 -0.243498
14  3.859676 -0.138419 1.332379  0.253428 -0.048885 -0.378541
15  1.719448 -0.000019 0.000029  0.001511 0.001773 0.055475
16  1.099676 0.000047 0.000005  -0.000046 0.002577 -0.263300
17  0.578817 -0.377562 1.379912  -1.431688 -0.505371 -0.415500
18  1.789819 -0.000003 -0.000016  -0.002838 -0.000997 0.004325
19  1.207016 -0.000012 -0.000044  -0.007601 -0.004843 0.196102
20  5.740636 0.000390 -0.000699  -0.034355 0.000003 0.000063
21  11.480874 0.000204 -0.000880  -0.028868 -0.034515 0.080867
22  6.027523 -0.000330 0.000201  2.121698 -0.550896 1.542468
23  -0.000001 11.692101 -0.000008  -1.003421 -0.451882 -0.793594
24  0.000002 0.000007 0.000000  -0.121332 -0.000030 1.570739
25  -0.000002 -0.000011 -0.000001  0.868960 0.000002 1.570712
26  -7.646480 -8.369997 -0.555393  1.473120 1.855075 -0.198639
27  6.027513 -0.000258 -0.000224  1.806619 0.381061 -0.726679
28  11.691996 0.000160 0.000857  0.388328 0.000055 -1.585695
29  11.479629 -0.000391 0.001047  -1.562137 0.237114 0.372290
30  3.785106 -0.283497 1.144956  0.406971 -0.281773 -0.608982
31  1.312559 0.000030 0.000001  -0.000000 -0.000045 -0.148960
32  0.729347 0.000063 -0.000027  -0.000028 -0.000012 0.046463
33  3.881427 -0.052235 0.379449  0.121278 -0.118788 -0.520704
34  1.539096 0.000003 -0.000002  0.000007 -0.000009 0.042924
35  1.196302 0.000079 -0.000003  -0.000009 -0.000007 -0.140032
36  3.882928 -0.111183 -0.423946  -0.089865 -0.000691 -0.298015
37  1.719566 -0.000083 -0.000004  -0.002289 -0.007626 -0.075729
38  1.209195 0.000034 0.000010  -0.001277 -0.004274 0.074338
39  3.859586 -0.149083 -1.331322  -0.332599 0.090565 -0.241114
40  1.719412 -0.000097 -0.000037  -0.001916 -0.006299 -0.072275
41  1.099673 0.000025 0.000008  -0.001196 -0.004014 0.046404
42  0.403927 -0.670898 -1.156641  1.098535 0.534959 -0.725215
43  1.789780 -0.000008 -0.000042  -0.045857 -0.011383 -0.093223
44  1.206995 -0.000007 0.000005  -0.007125 -0.020499 0.010847
45  5.740572 0.000078 0.000720  0.007471 -0.000014 0.000028
46  11.480868 -0.000006 0.000954  -0.004040 0.025841 0.063981
47  6.027516 -0.000272 -0.000229  -0.421588 -0.430289 -2.112616
48  -0.000000 11.691978 -0.000006  -1.079941 0.524046 0.841409
49  0.000003 -0.000001 0.000001  2.660860 -0.000036 1.570860
50  -0.000007 -0.000013 0.000005  2.272645 -0.000036 1.570861
51  -11.689735 -4.888181 -12.921982  -0.110525 -3.099714 1.317648
52  0.000000 -0.000001 -0.000001  0.008153 -0.000259 0.000009
53  0.000000 -0.000000 -0.000001  1.565115 0.043565 -0.106862
54  6.426678 -7.107041 -11.735036  -0.392841 0.057575 -2.004515
55  0.000000 -0.000000 0.000001  0.000000 -0.000001 -0.000002
56  0.000030 0.000029 0.000002  -1.571901 -0.044449 -0.106509
57  15.526468 -16.209511 -24.864563  1.570796 -0.000000 0.000000
58  -15.417984 3.469790 -22.977665  1.570796 -0.000000 0.000000
59  1.941978 10.087833 -8.327020  1.570796 -0.000000 0.000000
60  -0.004311 0.001229 -0.000372  0.006898 -0.005534 -0.284229
61  -0.555397 9.597063 -6.035052  1.570796 -0.000000 0.000000
62  0.000000 0.000000 0.000000  -0.078727 -3.136056 0.284226
63  -1.923794 -1.699245 -0.667801  1.570997 0.008128 0.000085
64  -2.339002 -21.858925 -2.340399  1.570817 -0.000009 0.817703
65  0.000001 1.459181 2.741113  0.000000 0.000000 0.000000
66  0.000002 1.699923 0.973995  0.000000 0.000000 0.000000
67  0.000000 2.151126 1.118580  0.000000 0.000000 0.000000
68  -0.000000 1.691831 -0.423392  -0.876616 0.001126 0.000617
69  -0.190807 1.634964 3.156577  0.029475 0.000000 -0.000000
70  0.000000 2.606070 7.210409  -0.035921 0.000000 0.000000
71  -1.628380 -22.525074 -0.640497  1.570817 -0.000009 0.817703
72  -0.068590 -0.065953 -0.011618  0.000000 0.000000 0.000000
73  -0.137660 -0.609178 -0.193562  0.000000 0.000000 0.000000
time 6
0  0.000006 0.000000 0.000000  -1.570800 -1.391899 -1.570792
1  -9.940881 -8.184812 1.937670  -1.544956 -1.855077 -0.198630
2  6.027519 -0.000325 0.000193  -1.366406 -0.965488 -0.699092
3  11.692107 0.000644 -0.000738  -0.990430 -0.000021 -1.443646
4  11.479628 0.000233 -0.000980  1.202018 -0.530444 0.472694
5  3.666628 -0.163903 -1.204802  -0.249359 0.401670 -0.562987
6  1.312589 0.000010 0.000007  0.001212 0.010634 -0.034670
7  0.729355 0.000054 0.000050  -0.001438 0.001132 0.096876
8  3.942140 0.046332 -0.431543  -0.024421 0.174747 -0.454664
9  1.539109 0.000083 0.000004  0.001063 0.004096 -0.017918
10  1.196332 0.000146 0.000030  -0.000369 0.000179 -0.246893
11  3.883510 -0.047211 0.431350  0.132054 0.079544 -0.266537
12  1.719572 -0.000028 0.000017  0.000447 0.004501 -0.138729
13  1.209180 0.000090 0.000013  -0.000005 0.003051 -0.263835
14  3.859677 -0.138417 1.332380  0.218811 -0.028421 -0.332518
15  1.719448 -0.000019 0.000029  0.001780 0.001146 0.153000
16  1.099675 0.000049 0.000006  -0.000083 0.002576 -0.277516
17  0.525589 -0.384243 1.393658  -1.470021 -0.447558 -0.330116
18  1.789819 -0.000003 -0.000017  -0.003625 -0.001370 -0.054827
19  1.207016 -0.000013 -0.000044  -0.009464 -0.006325 0.152091
20  5.740637 0.000390 -0.000699  -0.089756 0.000003 0.000063
21  11.480934 0.000224 -0.000848  -0.046230 -0.097940 0.061306
22  6.027524 -0.000330 0.000202  1.974163 -0.464514 1.681271
23  -0.000000 11.692099 -0.000007  -0.995985 -0.445103 -0.788760
24  0.000004 0.000009 0.000000  -0.121332 -0.000031 1.570739
25  0.000000 -0.000012 -0.000001  0.868960 0.000002 1.570712
26  -7.406291 -9.130193 -0.111046  1.473120 1.855075 -0.198639
27  6.027512 -0.000258 -0.000223  1.713722 0.601181 -0.680387
28  11.691993 0.000160 0.000857  0.308097 0.000054 -1.571562
29  11.479733 -0.000415 0.000996  -1.446408 0.380701 0.490558
30  3.761211 -0.331955 1.129490  0.406970 -0.281773 -0.608982
31  1.312560 0.000030 0.000000  -0.000000 -0.000045 -0.148960
32  0.729346 0.000065 -0.000027  -0.000028 -0.000012 0.046463
33  3.861939 -0.085145 0.362877  0.121278 -0.118788 -0.520704
34  1.539096 0.000005 -0.000001  0.000007 -0.000009 0.042924
35  1.196303 0.000079 -0.000004  -0.000009 -0.000007 -0.140032
36  3.882773 -0.130699 -0.421649  -0.089865 -0.000691 -0.298015
37  1.719565 -0.000083 -0.000005  -0.002289 -0.007626 -0.075729
38  1.209194 0.000034 0.000013  -0.001277 -0.004274 0.074338
39  3.859586 -0.149081 -1.331322  -0.332767 0.070163 -0.234072
40  1.719412 -0.000098 -0.000036  -0.001916 -0.006299 -0.072275
41  1.099673 0.000023 0.000006  -0.001196 -0.004014 0.046404
42  0.310083 -0.743500 -1.118897  1.100163 0.512459 -0.673549
43  1.789780 -0.000008 -0.000043  -0.060903 -0.015988 -0.079839
44  1.206995 -0.000007 0.000005  -0.007979 -0.038358 0.013525
45  5.740574 0.000079 0.000721  0.048274 -0.000014 0.000028
46  11.480891 -0.000009 0.000944  0.010278 0.058884 0.081797
47  6.027515 -0.000272 -0.000230  -0.680203 -0.452634 -1.911212
48  -0.000002 11.691977 -0.000008  -1.071630 0.516017 0.836415
49  0.000004 -0.000001 0.000000  2.580629 -0.000036 1.570860
50  -0.000008 -0.000013 0.000004  2.272645 -0.000036 1.570861
51  -8.630670 -5.620422 -10.238024  -0.121068 -3.016133 1.318956
52  0.000000 -0.000001 -0.000001  0.008153 -0.000259 0.000009
53  -0.000000 0.000000 -0.000000  1.565115 0.043565 -0.106862
54  4.739092 -7.344940 -9.980490  -0.460113 0.006038 -1.805281
55  -0.000000 0.000000 0.000000  0.000000 -0.000001 -0.000002
56  0.000030 0.000030 0.000001  -1.571901 -0.044449 -0.106509
57  14.850840 -17.281540 -22.415585  1.570796 -0.000000 0.000000
58  -15.417984 3.640481 -22.869732  1.570796 -0.000000 0.000000
59  1.941978 9.822739 -8.327020  1.570796 -0.000000 0.000000
60  -0.004311 0.001229 -0.000372  0.006898 -0.005534 -0.284229
61  -0.111050 10.302387 -5.663425  1.570796 -0.000000 0.000000
62  0.000000 0.000000 0.000000  -0.078727 -3.136056 0.284226
63  -1.923794 -1.699245 -0.667801  1.571052 0.008041 0.000116
64  -2.213726 -18.700523 -2.790641  1.570834 -0.000011 0.580797
65  0.000000 1.459181 2.741112  0.000000 0.000000 0.000000
66  0.000001 1.699923 0.973997  0.000000 0.000000 0.000000
67  0.000001 2.151127 1.118581  0.000000 0.000000 0.000000
68  -0.000001 1.691831 -0.423392  -0.876616 0.001126 0.000617
69  -0.190806 1.634965 3.156577  0.029475 0.000000 -0.000000
70  0.000001 2.606070 7.210407  -0.035921 0.000000 0.000000
71  -1.679282 -19.514874 -1.090755  1.570834 -0.000011 0.580797
72  -0.068590 -0.065953 -0.011619  0.000000 0.000000 0.000000
73  -0.137660 -0.609178 -0.193565  0.000000 0.000000 0.000000
time 7
0  0.000006 0.000000 0.000000  -1.570800 -1.391899 -1.570792
1  -9.899240 -7.954538 1.937669  -1.544956 -1.855077 -0.198630
2  6.027521 -0.000326 0.000191  -1.315461 -1.136058 -0.710822
3  11.692109 0.000645 -0.000737  -0.990425 -0.000015 -1.342825
4  11.480218 0.000406 -0.000717  1.123757 -0.655907 0.484135
5  3.666628 -0.163903 -1.204802  -0.211484 0.450813 -0.518421
6  1.312590 0.000010 0.000008  0.002287 0.016438 0.013754
7  0.729355 0.000053 0.000048  -0.002282 0.001431 0.137719
8  3.942141 0.046332 -0.431542  -0.000761 0.207432 -0.403894
9  1.539110 0.000083 0.000004  0.001387 0.005598 0.009669
10  1.196334 0.000145 0.000029  -0.000498 0.000266 -0.224644
11  3.883511 -0.047211 0.431351  0.142984 0.104620 -0.218275
12  1.719572 -0.000030 0.000017  0.000430 0.003958 -0.111396
13  1.209178 0.000089 0.000012  -0.000009 0.003028 -0.290241
14  3.859677 -0.138417 1.332380  0.187360 0.005451 -0.296944
15  1.719448 -0.000019 0.000029  0.001985 0.000718 0.214444
16  1.099674 0.000048 0.000005  -0.000130 0.002574 -0.295973
17  0.487940 -0.388970 1.403380  -1.491613 -0.404595 -0.275377
18  1.789820 -0.000004 -0.000016  -0.004218 -0.001658 -0.094500
19  1.207017 -0.000013 -0.000044  -0.010689 -0.007375 0.122286
20  5.740636 0.000389 -0.000699  -0.115496 0.000003 0.000064
21  11.481050 0.000260 -0.000795  -0.052582 -0.124996 0.052906
22  6.027525 -0.000330 0.000201  1.832092 -0.351614 1.770464
23  -0.000001 11.692099 -0.000007  -0.935421 -0.391578 -0.748257
24  0.000003 0.000009 -0.000000  -0.121332 -0.000031 1.570739
25  -0.000001 -0.000011 0.000000  0.868960 0.000002 1.570712
26  -7.194269 -9.801250 0.281197  1.473120 1.855075 -0.198639
27  6.027514 -0.000261 -0.000216  1.644476 0.871324 -0.663552
28  11.691992 0.000160 0.000858  0.237478 0.000044 -1.448780
29  11.480706 0.000094 0.000822  -1.376813 0.473420 0.592933
30  3.740116 -0.374732 1.115840  0.406970 -0.281773 -0.608982
31  1.312560 0.000031 0.000000  -0.000000 -0.000045 -0.148960
32  0.729348 0.000065 -0.000029  -0.000027 -0.000012 0.046463
33  3.844734 -0.114197 0.348249  0.121278 -0.118788 -0.520704
34  1.539095 0.000004 -0.000002  0.000007 -0.000009 0.042924
35  1.196301 0.000079 -0.000003  -0.000009 -0.000007 -0.140032
36  3.882636 -0.147927 -0.419621  -0.089865 -0.000691 -0.298015
37  1.719566 -0.000083 -0.000005  -0.002289 -0.007626 -0.075729
38  1.209195 0.000034 0.000011  -0.001277 -0.004274 0.074338
39  3.859584 -0.149082 -1.331321  -0.332328 0.045272 -0.225528
40  1.719411 -0.000097 -0.000038  -0.001916 -0.006299 -0.072275
41  1.099673 0.000023 0.000007  -0.001196 -0.004014 0.046404
42  0.250473 -0.789617 -1.094923  1.101343 0.501788 -0.631029
43  1.789779 -0.000009 -0.000043  -0.071988 -0.020416 -0.062501
44  1.206995 -0.000008 0.000005  -0.006598 -0.061096 0.016949
45  5.740574 0.000079 0.000721  0.079917 -0.000014 0.000028
46  11.481085 0.000093 0.000909  0.015580 0.080884 0.096666
47  6.027515 -0.000273 -0.000227  -0.973115 -0.388062 -1.727129
48  -0.000001 11.691976 -0.000005  -0.998978 0.447857 0.790792
49  0.000002 0.000000 0.000001  2.510011 -0.000036 1.570860
50  -0.000008 -0.000013 0.000006  2.272645 -0.000036 1.570861
51  -5.552635 -6.453419 -7.602720  -0.144308 -2.950357 1.315038
52  -0.000000 0.000000 -0.000000  0.008153 -0.000259 0.000009
53  -0.000001 -0.000000 0.000001  1.565115 0.043565 -0.106862
54  3.159256 -7.934329 -8.459302  -0.479476 -0.025172 -1.725535
55  0.000001 0.000000 -0.000000  0.000000 -0.000001 -0.000002
56  0.000031 0.000029 0.000001  -1.571901 -0.044449 -0.106509
57  13.879580 -18.227863 -20.253773  1.570796 -0.000000 0.000000
58  -15.417984 3.791156 -22.774456  1.570796 -0.000000 0.000000
59  1.941978 9.588730 -8.327020  1.570796 -0.000000 0.000000
60  -0.004311 0.001229 -0.000372  0.006898 -0.005534 -0.284229
61  0.281193 10.925006 -5.335376  1.570796 -0.000000 0.000000
62  0.000000 0.000000 0.000000  -0.078727 -3.136056 0.284226
63  -1.923794 -1.699245 -0.667801  1.571097 0.007634 0.000148
64  -2.098607 -15.775312 -3.204377  1.570857 -0.000011 0.365214
65  -0.000001 1.459181 2.741115  0.000000 0.000000 0.000000
66  0.000001 1.699923 0.973998  0.000000 0.000000 0.000000
67  -0.000001 2.151126 1.118582  0.000000 0.000000 0.000000
68  -0.000001 1.691831 -0.423391  -0.876616 0.001126 0.000617
69  -0.190807 1.634964 3.156576  0.029475 0.000000 -0.000000
70  -0.000001 2.606070 7.210409  -0.035921 0.000000 0.000000
71  -1.750725 -16.685175 -1.504513  1.570857 -0.000011 0.365214
72  -0.068591 -0.065953 -0.011620  0.000000 0.000000 0.000000
73  -0.137660 -0.609178 -0.193564  0.000000 0.000000 0.000000
time 8
0  0.000006 0.000000 0.000000  -1.570800 -1.391899 -1.570792
1  -9.867403 -7.778480 1.937669  -1.544956 -1.855077 -0.198630
2  6.027522 -0.000327 0.000191  -1.154540 -1.330456 -0.853840
3  11.692112 0.000645 -0.000737  -0.990416 -0.000007 -1.165214
4  11.480394 0.000487 -0.000592  1.136605 -0.552379 0.338379
5  3.666627 -0.163903 -1.204802  -0.195405 0.491327 -0.509025
6  1.312591 0.000009 0.000008  0.003452 0.023389 0.029939
7  0.729356 0.000055 0.000049  -0.003324 0.001692 0.151368
8  3.942140 0.046331 -0.431543  0.013687 0.243856 -0.385053
9  1.539109 0.000084 0.000004  0.001656 0.007230 0.018903
10  1.196332 0.000146 0.000029  -0.000633 0.000366 -0.216925
11  3.883511 -0.047212 0.431351  0.151743 0.134740 -0.196750
12  1.719574 -0.000029 0.000017  0.000361 0.003323 -0.102249
13  1.209179 0.000090 0.000012  -0.000013 0.003001 -0.321759
14  3.859676 -0.138418 1.332380  0.160803 0.051647 -0.276220
15  1.719447 -0.000018 0.000029  0.002160 0.000538 0.234916
16  1.099675 0.000048 0.000006  -0.000187 0.002571 -0.318007
17  0.473658 -0.390763 1.407067  -1.497860 -0.383762 -0.255632
18  1.789819 -0.000004 -0.000016  -0.004573 -0.001792 -0.108784
19  1.207016 -0.000013 -0.000043  -0.011142 -0.007779 0.111060
20  5.740638 0.000388 -0.000699  -0.116799 0.000003 0.000063
21  11.481088 0.000276 -0.000770  -0.062473 -0.100893 0.030606
22  6.027524 -0.000330 0.000202  1.677589 -0.215808 1.823468
23  0.000000 11.692101 -0.000005  -0.826065 -0.303173 -0.670714
24  0.000003 0.000009 0.000001  -0.121332 -0.000030 1.570738
25  -0.000000 -0.000011 0.000001  0.868960 0.000002 1.570712
26  -7.032166 -10.314308 0.581087  1.473120 1.855075 -0.198639
27  6.027515 -0.000262 -0.000216  1.601019 1.097026 -0.669190
28  11.691992 0.000161 0.000858  0.183724 0.000031 -1.243253
29  11.479261 -0.000630 0.000953  -1.345487 0.509897 0.597205
30  3.723989 -0.407437 1.105402  0.406971 -0.281773 -0.608982
31  1.312560 0.000030 -0.000001  -0.000000 -0.000045 -0.148960
32  0.729348 0.000066 -0.000027  -0.000028 -0.000012 0.046463
33  3.831583 -0.136409 0.337065  0.121278 -0.118788 -0.520704
34  1.539096 0.000005 -0.000001  0.000007 -0.000009 0.042924
35  1.196301 0.000080 -0.000003  -0.000009 -0.000007 -0.140033
36  3.882532 -0.161099 -0.418073  -0.089865 -0.000691 -0.298015
37  1.719566 -0.000083 -0.000006  -0.002288 -0.007626 -0.075729
38  1.209192 0.000034 0.000012  -0.001277 -0.004274 0.074338
39  3.859585 -0.149082 -1.331321  -0.330792 0.014752 -0.215165
40  1.719411 -0.000097 -0.000037  -0.001916 -0.006299 -0.072275
41  1.099674 0.000023 0.000007  -0.001196 -0.004014 0.046404
42  0.230504 -0.805067 -1.086892  1.103146 0.504242 -0.599796
43  1.789779 -0.000007 -0.000042  -0.078285 -0.024497 -0.041865
44  1.206995 -0.000007 0.000005  -0.002936 -0.087882 0.020909
45  5.740572 0.000079 0.000720  0.088598 -0.000014 0.000028
46  11.480797 -0.000052 0.000935  0.019055 0.089473 0.094791
47  6.027515 -0.000272 -0.000227  -1.189146 -0.287921 -1.624368
48  -0.000002 11.691976 -0.000006  -0.874526 0.341000 0.705773
49  0.000003 -0.000001 0.000001  2.456264 -0.000036 1.570860
50  -0.000007 -0.000013 0.000006  2.272645 -0.000036 1.570861
51  -3.425497 -7.360023 -5.810277  -0.163941 -2.907168 1.302193
52  0.000000 -0.000000 -0.000000  0.008153 -0.000259 0.000009
53  0.000000 0.000000 0.000001  1.565115 0.043565 -0.106862
54  1.409193 -8.645757 -6.896144  -0.508138 -0.168379 -1.836678
55  -0.000000 -0.000001 -0.000000  0.000000 -0.000001 -0.000002
56  0.000030 0.000028 0.000001  -1.571902 -0.044449 -0.106509
57  12.908321 -18.951378 -18.600954  1.570796 -0.000000 0.000000
58  -15.417984 3.906355 -22.701614  1.570796 -0.000000 0.000000
59  1.941978 9.409817 -8.327020  1.570796 -0.000000 0.000000
60  -0.004311 0.001229 -0.000372  0.006898 -0.005534 -0.284229
61  0.581084 11.401031 -5.084565  1.570796 -0.000000 0.000000
62  0.000000 0.000000 0.000000  -0.078727 -3.136056 0.284226
63  -1.923794 -1.699245 -0.667801  1.571129 0.006685 0.000181
64  -2.003803 -13.332321 -3.545100  1.570886 -0.000009 0.190127
65  -0.000000 1.459181 2.741115  0.000000 0.000000 0.000000
66  0.000001 1.699923 0.973997  0.000000 0.000000 0.000000
67  0.000001 2.151127 1.118580  0.000000 0.000000 0.000000
68  0.000000 1.691831 -0.423392  -0.876616 0.001126 0.000617
69  -0.190806 1.634964 3.156576  0.029475 0.000000 -0.000000
70  0.000000 2.606070 7.210409  -0.035921 0.000000 0.000000
71  -1.819718 -14.288919 -1.845265  1.570886 -0.000009 0.190127
72  -0.068591 -0.065953 -0.011619  0.000000 0.000000 0.000000
73  -0.137660 -0.609177 -0.193564  0.000000 0.000000 0.000000
time 9
0  0.000006 0.000000 0.000000  -1.570800 -1.391899 -1.570792
1  -9.847823 -7.670199 1.937669  -1.544956 -1.855077 -0.198630
2  6.027524 -0.000329 0.000191  -0.035939 -1.474574 -1.943271
3  11.692115 0.000645 -0.000739  -0.990391 0.000006 -0.773049
4  11.480782 0.000623 -0.000379  1.129632 -0.256064 0.093695
5  3.666627 -0.163904 -1.204802  -0.272456 0.491894 -0.722487
6  1.312589 0.000009 0.000007  -0.015459 0.041178 -0.107367
7  0.729355 0.000054 0.000048  -0.019143 -0.004195 0.010918
8  3.942141 0.046332 -0.431543  -0.018915 0.297998 -0.608954
9  1.539111 0.000084 0.000004  0.000511 0.010079 -0.050515
10  1.196331 0.000146 0.000028  -0.000903 0.000466 -0.396914
11  3.883511 -0.047212 0.431351  0.142670 0.213656 -0.394704
12  1.719573 -0.000027 0.000017  0.000336 0.001510 -0.226526
13  1.209179 0.000090 0.000012  0.000240 0.002834 -0.397877
14  3.859678 -0.138418 1.332380  0.123316 0.194337 -0.421272
15  1.719449 -0.000017 0.000028  0.002142 0.000848 0.083845
16  1.099675 0.000048 0.000006  -0.000407 0.002547 -0.400980
17  0.473658 -0.390763 1.407068  -1.497242 -0.377214 -0.255257
18  1.789819 -0.000004 -0.000016  -0.004789 -0.001695 -0.077222
19  1.207017 -0.000012 -0.000044  -0.010663 -0.005419 0.332835
20  5.740636 0.000388 -0.000699  -0.095950 0.000003 0.000063
21  11.481166 0.000302 -0.000728  -0.080766 -0.035462 -0.006033
22  6.027524 -0.000330 0.000202  1.511242 -0.075705 1.866475
23  0.000000 11.692099 -0.000008  -0.568817 -0.140641 -0.472736
24  0.000002 0.000009 -0.000001  -0.121333 -0.000030 1.570739
25  -0.000000 -0.000012 0.000000  0.868960 0.000002 1.570712
26  -6.932469 -10.629853 0.765528  1.473120 1.855075 -0.198639
27  6.027517 -0.000263 -0.000216  1.596132 1.225376 -0.664357
28  11.691991 0.000162 0.000858  0.150800 0.000018 -1.035313
29  11.480370 -0.000045 0.000838  -1.331077 0.517289 0.517620
30  3.714070 -0.427551 1.098981  0.406970 -0.281773 -0.608982
31  1.312558 0.000031 -0.000000  -0.000000 -0.000045 -0.148960
32  0.729348 0.000065 -0.000027  -0.000028 -0.000012 0.046463
33  3.823493 -0.150070 0.330185  0.121278 -0.118788 -0.520704
34  1.539095 0.000004 -0.000002  0.000007 -0.000009 0.042924
35  1.196302 0.000080 -0.000003  -0.000009 -0.000007 -0.140032
36  3.882467 -0.169200 -0.417121  -0.089865 -0.000691 -0.298015
37  1.719566 -0.000083 -0.000005  -0.002288 -0.007626 -0.075729
38  1.209193 0.000034 0.000011  -0.001277 -0.004274 0.074338
39  3.859585 -0.149082 -1.331322  -0.327093 -0.023997 -0.202277
40  1.719411 -0.000097 -0.000037  -0.001916 -0.006299 -0.072275
41  1.099672 0.000023 0.000006  -0.001196 -0.004014 0.046404
42  0.230504 -0.805067 -1.086893  1.107963 0.551754 -0.581681
43  1.789779 -0.000007 -0.000042  -0.082757 -0.048980 0.169535
44  1.206997 -0.000005 0.000005  0.005174 -0.159496 0.198934
45  5.740573 0.000080 0.000721  0.081537 -0.000013 0.000028
46  11.481018 0.000065 0.000912  0.024122 0.090611 0.078241
47  6.027516 -0.000273 -0.000228  -1.297269 -0.213667 -1.588166
48  -0.000002 11.691973 -0.000007  -0.743400 0.243887 0.609138
49  0.000003 -0.000000 0.000000  2.423350 -0.000036 1.570860
50  -0.000008 -0.000013 0.000004  2.272645 -0.000036 1.570861
51  -2.726528 -8.296952 -5.232354  -0.168279 -2.883627 1.279129
52  0.000000 0.000000 -0.000000  0.008153 -0.000259 0.000009
53  0.000000 -0.000000 -0.000000  1.565115 0.043565 -0.106862
54  0.240589 -10.543035 -6.514959  -0.530461 -0.291664 -1.991271
55  -0.000001 -0.000000 0.000000  0.000000 -0.000001 -0.000002
56  0.000029 0.000029 0.000001  -1.571902 -0.044449 -0.106509
57  12.232693 -19.396362 -17.584425  1.570796 -0.000000 0.000000
58  -15.417984 3.977206 -22.656813  1.570796 -0.000000 0.000000
59  1.941978 9.299780 -8.327020  1.570796 -0.000000 0.000000
60  -0.004311 0.001229 -0.000372  0.006898 -0.005534 -0.284229
61  0.765525 11.693800 -4.930309  1.570796 -0.000000 0.000000
62  0.000000 0.000000 0.000000  -0.078727 -3.136056 0.284226
63  -1.923794 -1.699245 -0.667801  1.571141 0.004973 0.000213
64  -1.939472 -11.620577 -3.776306  1.570922 -0.000004 0.068992
65  -0.000000 1.459181 2.741114  -0.000000 0.000000 -0.000000
66  0.000001 1.699923 0.973996  -0.000000 0.000000 -0.000000
67  0.000001 2.151127 1.118580  -0.000000 0.000000 -0.000000
68  -0.000000 1.691831 -0.423392  -0.876616 0.001126 0.000617
69  -0.190806 1.634964 3.156576  0.029475 0.000000 -0.000000
70  0.000000 2.606070 7.210409  -0.035921 0.000000 0.000000
71  -1.872318 -12.592471 -2.076507  1.570922 -0.000004 0.068992
72  -0.068590 -0.065952 -0.011619  -0.000000 0.000000 -0.000000
73  -0.137660 -0.609178 -0.193563  -0.000000 0.000000 -0.000000
time 10
0  0.000006 0.000000 0.000000  -1.570800 -1.391899 -1.570792
1  -9.841317 -7.634221 1.937669  -1.544956 -1.855077 -0.198630
2  6.027525 -0.000329 0.000190  -0.390345 -1.474009 -1.596197
3  11.692113 0.000644 -0.000738  -0.990398 0.000004 -0.870036
4  11.480737 0.000605 -0.000411  1.101858 -0.272419 0.192956
5  3.666628 -0.163903 -1.204803  -0.413610 0.398181 -1.150589
6  1.312590 0.000010 0.000008  -0.062851 0.059300 -0.405312
7  0.729355 0.000055 0.000049  -0.048015 -0.024056 -0.292609
8  3.942141 0.046332 -0.431543  -0.121617 0.329135 -1.109983
9  1.539110 0.000084 0.000004  -0.002654 0.013522 -0.199466
10  1.196333 0.000146 0.000028  -0.001297 0.000424 -0.789344
11  3.883511 -0.047212 0.431350  0.071706 0.322797 -0.850957
12  1.719573 -0.000028 0.000017  0.000984 -0.001382 -0.494727
13  1.209179 0.000089 0.000011  0.000813 0.002564 -0.514187
14  3.859678 -0.138417 1.332379  0.012637 0.411406 -0.781795
15  1.719448 -0.000019 0.000028  0.001701 0.001502 -0.243528
16  1.099675 0.000048 0.000006  -0.000788 0.002463 -0.546184
17  0.473660 -0.390762 1.407068  -1.497606 -0.374295 -0.255723
18  1.789819 -0.000004 -0.000018  -0.004932 -0.001428 -0.009646
19  1.207016 -0.000013 -0.000046  -0.007840 -0.000936 0.821266
20  5.740636 0.000386 -0.000700  -0.103861 0.000003 0.000064
21  11.481156 0.000299 -0.000736  -0.084214 -0.042643 0.012012
22  6.027524 -0.000329 0.000201  1.541051 -0.092200 1.858260
23  -0.000000 11.692098 -0.000007  -0.634667 -0.176084 -0.524989
24  0.000004 0.000009 -0.000000  -0.121333 -0.000030 1.570739
25  0.000000 -0.000012 0.000000  0.868960 0.000002 1.570712
26  -6.899342 -10.734701 0.826813  1.473120 1.855075 -0.198639
27  6.027517 -0.000263 -0.000216  1.587797 1.245981 -0.668816
28  11.691991 0.000161 0.000859  0.139889 0.000016 -0.995477
29  11.480553 0.000025 0.000827  -1.301536 0.532269 0.509118
30  3.710774 -0.434234 1.096848  0.954920 0.085663 -2.021677
31  1.312561 0.000032 -0.000000  0.002280 -0.063315 -0.206753
32  0.729348 0.000064 -0.000027  -0.115515 -0.145586 -1.178526
33  3.820805 -0.154608 0.327898  0.699185 -0.148327 -1.609172
34  1.539095 0.000005 -0.000001  0.047757 -0.047307 -0.905096
35  1.196301 0.000079 -0.000002  -0.020793 -0.009974 -1.281773
36  3.882446 -0.171892 -0.416805  0.585365 -0.256752 -1.273775
37  1.719566 -0.000082 -0.000005  0.009232 -0.075542 -1.265579
38  1.209194 0.000035 0.000011  0.002862 -0.003398 -0.994103
39  3.859585 -0.149082 -1.331323  0.072539 -0.193981 -0.456630
40  1.719413 -0.000097 -0.000037  0.032241 0.022754 -0.917972
41  1.099673 0.000022 0.000006  -0.008001 -0.008222 -0.721166
42  0.230504 -0.805067 -1.086894  1.111612 0.594062 -0.578210
43  1.789780 -0.000007 -0.000041  -0.089312 -0.070323 0.368341
44  1.206996 -0.000006 0.000005  0.000678 -0.214508 0.376132
45  5.740574 0.000080 0.000721  0.085240 -0.000014 0.000028
46  11.481055 0.000079 0.000911  0.029073 0.094630 0.074449
47  6.027515 -0.000273 -0.000229  -1.315700 -0.203329 -1.580938
48  -0.000001 11.691976 -0.000007  -0.717569 0.226727 0.589440
49  0.000004 -0.000000 0.000001  2.412441 -0.000036 1.570860
50  -0.000007 -0.000013 0.000005  2.272645 -0.000036 1.570861
51  -2.568298 -8.415771 -5.192586  -0.148590 -2.880026 1.259157
52  -0.000000 0.000000 0.000000  0.008153 -0.000259 0.000009
53  -0.000000 0.000000 -0.000001  1.565115 0.043565 -0.106862
54  0.303778 -10.064148 -6.235252  -0.529031 -0.242674 -2.027455
55  -0.000001 0.000000 0.000000  0.000000 -0.000001 -0.000002
56  0.000030 0.000029 0.000001  -1.571902 -0.044449 -0.106509
57  12.000549 -19.544212 -17.246658  1.570796 -0.000000 0.000000
58  -15.417984 4.000748 -22.641926  1.570796 -0.000000 0.000000
59  1.941978 9.263218 -8.327020  1.570796 -0.000000 0.000000
60  -0.004311 0.001229 -0.000372  0.006898 -0.005534 -0.284229
61  0.826810 11.791080 -4.879054  1.570796 -0.000000 0.000000
62  0.000000 0.000000 0.000000  -0.078727 -3.136056 0.284226
63  -1.923794 -1.699245 -0.667801  1.570024 0.002276 0.000241
64  -1.915771 -10.889102 -3.861487  1.570968 -0.000001 0.012229
65  -0.000000 1.459181 2.741115  -0.000000 0.000000 -0.000000
66  0.000001 1.699923 0.973997  -0.000000 0.000000 -0.000000
67  0.000001 2.151127 1.118581  -0.000000 0.000000 -0.000000
68  -0.000000 1.691831 -0.423391  -0.876616 0.001126 0.000617
69  -0.190806 1.634964 3.156577  0.029475 0.000000 -0.000000
70  0.000000 2.606070 7.210411  -0.035921 -0.000000 0.000000
71  -1.903857 -11.863318 -2.161731  1.570968 -0.000001 0.012229
72  -0.068590 -0.065953 -0.011620  -0.000000 0.000000 -0.000000
73  -0.137659 -0.609178 -0.193563  -0.000000 0.000000 -0.000000
time 11
0  0.000006 0.000000 0.000000  -1.570800 -1.391899 -1.570792
1  -9.841317 -7.634221 1.937669  -1.544956 -1.855077 -0.198630
2  6.027525 -0.000329 0.000190  -0.450557 -1.470250 -1.532062
3  11.692113 0.000644 -0.000740  -0.990399 0.000003 -0.889747
4  11.480655 0.000589 -0.000437  1.075215 -0.276930 0.203142
5  3.666628 -0.163903 -1.204802  -0.458263 0.335584 -1.333198
6  1.312590 0.000009 0.000007  -0.086019 0.061891 -0.543338
7  0.729355 0.000054 0.000048  -0.058916 -0.035969 -0.432747
8  3.942141 0.046331 -0.431543  -0.169699 0.322144 -1.337740
9  1.539111 0.000083 0.000004  -0.004294 0.014762 -0.268897
10  1.196332 0.000145 0.000029  -0.001447 0.000349 -0.969204
11  3.883512 -0.047212 0.431351  0.023790 0.355799 -1.066066
12  1.719572 -0.000029 0.000017  0.001531 -0.002562 -0.619004
13  1.209179 0.000091 0.000013  0.001090 0.002463 -0.564593
14  3.859677 -0.138418 1.332379  -0.064236 0.489541 -0.966403
15  1.719448 -0.000016 0.000028  0.001411 0.001748 -0.394599
16  1.099675 0.000049 0.000005  -0.000954 0.002407 -0.611174
17  0.473658 -0.390763 1.407067  -1.497918 -0.373857 -0.256047
18  1.789819 -0.000003 -0.000016  -0.004966 -0.001297 0.021916
19  1.207016 -0.000012 -0.000043  -0.005914 0.000538 1.042760
20  5.740636 0.000388 -0.000699  -0.109790 0.000003 0.000063
21  11.481140 0.000297 -0.000741  -0.089084 -0.044473 0.012900
22  6.027524 -0.000329 0.000201  1.545719 -0.097462 1.862035
23  -0.000001 11.692098 -0.000008  -0.647867 -0.183696 -0.535353
24  0.000005 0.000009 -0.000000  -0.121332 -0.000031 1.570739
25  -0.000001 -0.000012 -0.000000  0.868960 0.000002 1.570712
26  -6.899342 -10.734701 0.826813  1.473120 1.855075 -0.198639
27  6.027517 -0.000263 -0.000216  1.588886 1.237026 -0.668066
28  11.691991 0.000162 0.000859  0.139890 0.000017 -1.018852
29  11.480441 -0.000022 0.000831  -1.315400 0.537278 0.534908
30  3.710775 -0.434234 1.096849  0.954920 0.085663 -2.021677
31  1.312561 0.000032 -0.000000  0.002280 -0.063315 -0.206753
32  0.729347 0.000066 -0.000027  -0.115514 -0.145586 -1.178526
33  3.820806 -0.154609 0.327899  0.699185 -0.148327 -1.609172
34  1.539094 0.000004 -0.000002  0.047757 -0.047307 -0.905096
35  1.196303 0.000080 -0.000003  -0.020793 -0.009974 -1.281773
36  3.882445 -0.171892 -0.416804  0.585365 -0.256752 -1.273775
37  1.719566 -0.000084 -0.000005  0.009232 -0.075542 -1.265579
38  1.209193 0.000033 0.000011  0.002862 -0.003398 -0.994103
39  3.859585 -0.149082 -1.331322  0.072539 -0.193981 -0.456630
40  1.719413 -0.000097 -0.000037  0.032241 0.022754 -0.917972
41  1.099672 0.000023 0.000006  -0.008001 -0.008222 -0.721166
42  0.230505 -0.805067 -1.086892  1.111612 0.594062 -0.578210
43  1.789780 -0.000008 -0.000042  -0.089312 -0.070323 0.368341
44  1.206995 -0.000007 0.000005  0.000678 -0.214508 0.376132
45  5.740574 0.000080 0.000720  0.084345 -0.000014 0.000028
46  11.481032 0.000070 0.000912  0.025265 0.095362 0.080106
47  6.027515 -0.000273 -0.000229  -1.308239 -0.208522 -1.582744
48  -0.000002 11.691975 -0.000008  -0.732755 0.236736 0.601043
49  0.000003 -0.000001 0.000001  2.412441 -0.000036 1.570860
50  -0.000008 -0.000013 0.000004  2.272645 -0.000036 1.570861
51  -2.563360 -8.280334 -5.152101  -0.167107 -2.887121 1.251677
52  -0.000000 -0.000000 -0.000000  0.008153 -0.000259 0.000009
53  0.000001 -0.000000 0.000000  1.565115 0.043565 -0.106862
54  0.272548 -9.950335 -6.257473  -0.548328 -0.238243 -2.035065
55  0.000000 -0.000001 0.000000  0.000000 -0.000001 -0.000002
56  0.000031 0.000028 0.000001  -1.571901 -0.044449 -0.106509
57  12.000549 -19.544212 -17.246658  1.570796 -0.000000 0.000000
58  -15.417984 4.000748 -22.641926  1.570796 -0.000000 0.000000
59  1.941978 9.263218 -8.327020  1.570796 -0.000000 0.000000
60  -0.004311 0.001229 -0.000372  0.006898 -0.005534 -0.284229
61  0.826810 11.791080 -4.879054  1.570796 -0.000000 0.000000
62  0.000000 0.000000 0.000000  -0.078727 -3.136056 0.284226
63  -1.923794 -1.699245 -0.667801  1.568907 -0.001118 0.000270
64  -1.921736 -10.777686 -3.861159  1.583357 0.014743 0.000115
65  -0.000000 1.459181 2.741115  0.000000 -0.000000 -0.000000
66  0.000001 1.699923 0.973998  0.000000 -0.000000 -0.000000
67  0.000000 2.151127 1.118582  0.000000 -0.000000 -0.000000
68  -0.000000 1.691831 -0.423391  -0.876616 0.001126 0.000617
69  -0.190807 1.634965 3.156578  0.029475 0.000000 -0.000000
70  -0.000000 2.606070 7.210412  -0.035921 -0.000000 0.000000
71  -1.896740 -11.772956 -2.173788  1.583357 0.014743 0.000115
72  -0.068590 -0.065953 -0.011618  0.000000 -0.000000 -0.000000
73  -0.137660 -0.609178 -0.193563  0.000000 -0.000000 -0.000000
time 12
0  0.000006 0.000000 0.000000  -1.570800 -1.391899 -1.570792
1  -9.841317 -7.634221 1.937669  -1.544956 -1.855077 -0.198630
2  6.027525 -0.000329 0.000190  -0.461983 -1.469587 -1.520270
3  11.692113 0.000644 -0.000738  -0.990399 0.000003 -0.893918
4  11.480641 0.000587 -0.000443  1.078955 -0.276569 0.200974
5  3.666626 -0.163903 -1.204801  -0.458263 0.335584 -1.333198
6  1.312590 0.000010 0.000008  -0.086019 0.061891 -0.543338
7  0.729354 0.000052 0.000049  -0.058916 -0.035969 -0.432747
8  3.942140 0.046331 -0.431542  -0.169699 0.322144 -1.337740
9  1.539111 0.000083 0.000004  -0.004294 0.014762 -0.268897
10  1.196333 0.000147 0.000029  -0.001447 0.000349 -0.969204
11  3.883510 -0.047212 0.431351  0.023790 0.355799 -1.066067
12  1.719573 -0.000027 0.000017  0.001531 -0.002562 -0.619004
13  1.209179 0.000091 0.000012  0.001090 0.002463 -0.564593
14  3.859676 -0.138417 1.332380  -0.064236 0.489541 -0.966403
15  1.719448 -0.000019 0.000028  0.001411 0.001748 -0.394599
16  1.099675 0.000049 0.000005  -0.000954 0.002407 -0.611174
17  0.473658 -0.390763 1.407068  -1.497918 -0.373857 -0.256047
18  1.789818 -0.000004 -0.000018  -0.004966 -0.001297 0.021916
19  1.207016 -0.000012 -0.000044  -0.005914 0.000538 1.042760
20  5.740636 0.000389 -0.000700  -0.109094 0.000003 0.000063
21  11.481139 0.000296 -0.000742  -0.088406 -0.044239 0.012620
22  6.027524 -0.000329 0.000201  1.546678 -0.098386 1.862365
23  0.000001 11.692100 -0.000008  -0.650652 -0.185324 -0.537535
24  0.000003 0.000008 0.000000  -0.121332 -0.000030 1.570739
25  -0.000000 -0.000011 -0.000000  0.868960 0.000002 1.570712
26  -6.899342 -10.734701 0.826813  1.473120 1.855075 -0.198639
27  6.027517 -0.000263 -0.000216  1.588008 1.233475 -0.668810
28  11.691990 0.000162 0.000859  0.139890 0.000018 -1.025305
29  11.480414 -0.000034 0.000834  -1.313964 0.541849 0.534616
30  3.710776 -0.434235 1.096849  0.954920 0.085663 -2.021677
31  1.312560 0.000032 -0.000001  0.002279 -0.063315 -0.206754
32  0.729347 0.000066 -0.000028  -0.115515 -0.145586 -1.178526
33  3.820806 -0.154609 0.327900  0.699185 -0.148327 -1.609172
34  1.539095 0.000003 -0.000002  0.047757 -0.047307 -0.905096
35  1.196302 0.000081 -0.000003  -0.020793 -0.009974 -1.281773
36  3.882445 -0.171893 -0.416804  0.585365 -0.256752 -1.273775
37  1.719565 -0.000083 -0.000005  0.009232 -0.075542 -1.265579
38  1.209193 0.000035 0.000011  0.002862 -0.003398 -0.994103
39  3.859585 -0.149082 -1.331322  0.072539 -0.193981 -0.456630
40  1.719413 -0.000098 -0.000037  0.032241 0.022754 -0.917972
41  1.099674 0.000023 0.000006  -0.008001 -0.008222 -0.721166
42  0.230503 -0.805067 -1.086893  1.111612 0.594062 -0.578210
43  1.789780 -0.000007 -0.000042  -0.089312 -0.070323 0.368341
44  1.206995 -0.000007 0.000005  0.000678 -0.214508 0.376132
45  5.740573 0.000078 0.000721  0.085074 -0.000014 0.000028
46  11.481028 0.000067 0.000911  0.025280 0.096300 0.079821
47  6.027515 -0.000273 -0.000229  -1.305543 -0.210918 -1.583220
48  -0.000001 11.691976 -0.000007  -0.736933 0.239529 0.604224
49  0.000003 -0.000000 -0.000001  2.412441 -0.000036 1.570860
50  -0.000007 -0.000012 0.000005  2.272645 -0.000036 1.570861
51  -2.567732 -8.244717 -5.163540  -0.163641 -2.882934 1.249079
52  -0.000000 0.000000 0.000000  0.008153 -0.000259 0.000009
53  0.000000 0.000000 0.000000  1.565115 0.043565 -0.106862
54  0.267344 -9.925115 -6.255203  -0.544289 -0.241900 -2.037743
55  -0.000001 -0.000000 0.000001  0.000000 -0.000001 -0.000002
56  0.000030 0.000029 0.000002  -1.571901 -0.044449 -0.106509
57  12.000549 -19.544212 -17.246658  1.570796 -0.000000 0.000000
58  -15.417984 4.000748 -22.641926  1.570796 -0.000000 0.000000
59  1.941978 9.263218 -8.327020  1.570796 -0.000000 0.000000
60  -0.004311 0.001229 -0.000372  0.006898 -0.005534 -0.284229
61  0.826810 11.791080 -4.879054  1.570796 -0.000000 0.000000
62  0.000000 0.000000 0.000000  -0.078727 -3.136056 0.284226
63  -1.923794 -1.699245 -0.667801  1.569293 -0.002880 0.000295
64  -1.932813 -10.736638 -3.858862  1.578329 0.012876 -0.001672
65  -0.000000 1.459181 2.741113  -0.000000 0.000000 -0.000000
66  0.000001 1.699923 0.973995  -0.000000 0.000000 -0.000000
67  0.000000 2.151127 1.118580  -0.000000 0.000000 -0.000000
68  -0.000000 1.691831 -0.423393  -0.876616 0.001126 0.000617
69  -0.190807 1.634964 3.156576  0.029475 0.000000 -0.000000
70  0.000000 2.606070 7.210409  -0.035921 -0.000000 0.000000
71  -1.912670 -11.723448 -2.166465  1.578329 0.012876 -0.001672
72  -0.068590 -0.065953 -0.011620  -0.000000 0.000000 -0.000000
73  -0.137660 -0.609178 -0.193563  -0.000000 0.000000 -0.000000
time 13
0  0.000006 0.000000 0.000000  -1.570800 -1.391899 -1.570792
1  -9.841317 -7.634221 1.937669  -1.544956 -1.855077 -0.198630
2  6.027525 -0.000329 0.000190  -0.454130 -1.470202 -1.528896
3  11.692112 0.000643 -0.000738  -0.990399 0.000003 -0.891667
4  11.480649 0.000589 -0.000440  1.089794 -0.275008 0.194173
5  3.666627 -0.163904 -1.204802  -0.458263 0.335584 -1.333198
6  1.312589 0.000009 0.000008  -0.086019 0.061891 -0.543338
7  0.729354 0.000054 0.000049  -0.058916 -0.035969 -0.432747
8  3.942140 0.046331 -0.431543  -0.169699 0.322144 -1.337740
9  1.539110 0.000082 0.000004  -0.004294 0.014762 -0.268897
10  1.196334 0.000146 0.000028  -0.001447 0.000349 -0.969204
11  3.883510 -0.047212 0.431351  0.023790 0.355799 -1.066066
12  1.719573 -0.000027 0.000017  0.001531 -0.002562 -0.619004
13  1.209180 0.000091 0.000012  0.001090 0.002463 -0.564593
14  3.859676 -0.138418 1.332379  -0.064236 0.489541 -0.966403
15  1.719448 -0.000019 0.000028  0.001411 0.001748 -0.394599
16  1.099675 0.000050 0.000005  -0.000954 0.002407 -0.611174
17  0.473658 -0.390763 1.407067  -1.497918 -0.373857 -0.256047
18  1.789819 -0.000004 -0.000018  -0.004966 -0.001297 0.021916
19  1.207016 -0.000013 -0.000044  -0.005914 0.000538 1.042760
20  5.740636 0.000389 -0.000700  -0.106813 0.000003 0.000064
21  11.481139 0.000297 -0.000742  -0.086463 -0.043448 0.011726
22  6.027524 -0.000329 0.000201  1.546056 -0.097598 1.861612
23  -0.000001 11.692098 -0.000008  -0.649149 -0.184445 -0.536358
24  0.000003 0.000008 -0.000001  -0.121332 -0.000031 1.570739
25  -0.000001 -0.000013 -0.000000  0.868960 0.000002 1.570712
26  -6.899342 -10.734701 0.826813  1.473120 1.855075 -0.198639
27  6.027517 -0.000263 -0.000216  1.587098 1.232975 -0.669536
28  11.691990 0.000162 0.000858  0.139890 0.000018 -1.024307
29  11.480417 -0.000034 0.000833  -1.310655 0.544776 0.525049
30  3.710774 -0.434234 1.096848  0.954920 0.085663 -2.021677
31  1.312560 0.000031 0.000000  0.002280 -0.063315 -0.206753
32  0.729347 0.000065 -0.000028  -0.115514 -0.145586 -1.178526
33  3.820806 -0.154609 0.327898  0.699185 -0.148327 -1.609172
34  1.539094 0.000004 -0.000002  0.047757 -0.047307 -0.905096
35  1.196301 0.000082 -0.000004  -0.020793 -0.009974 -1.281773
36  3.882446 -0.171892 -0.416804  0.585365 -0.256752 -1.273775
37  1.719567 -0.000083 -0.000004  0.009232 -0.075542 -1.265579
38  1.209194 0.000033 0.000011  0.002862 -0.003398 -0.994103
39  3.859584 -0.149081 -1.331323  0.072539 -0.193981 -0.456630
40  1.719414 -0.000097 -0.000037  0.032241 0.022754 -0.917972
41  1.099672 0.000022 0.000006  -0.008001 -0.008222 -0.721166
42  0.230503 -0.805067 -1.086893  1.111612 0.594062 -0.578210
43  1.789780 -0.000007 -0.000042  -0.089312 -0.070323 0.368341
44  1.206995 -0.000006 0.000005  0.000678 -0.214508 0.376132
45  5.740573 0.000078 0.000720  0.085619 -0.000014 0.000028
46  11.481028 0.000067 0.000911  0.026088 0.096876 0.077675
47  6.027515 -0.000273 -0.000229  -1.305326 -0.211462 -1.583133
48  -0.000001 11.691975 -0.000009  -0.736288 0.239097 0.603734
49  0.000004 0.000000 0.000000  2.412441 -0.000036 1.570860
50  -0.000007 -0.000012 0.000003  2.272645 -0.000036 1.570861
51  -2.573041 -8.252449 -5.183268  -0.156206 -2.875518 1.249256
52  0.000000 0.000000 -0.000000  0.008153 -0.000259 0.000009
53  -0.000000 0.000000 -0.000000  1.565115 0.043565 -0.106862
54  0.270391 -9.936897 -6.246588  -0.535859 -0.248198 -2.037683
55  0.000000 0.000000 0.000000  0.000000 -0.000001 -0.000002
56  0.000031 0.000029 0.000001  -1.571901 -0.044449 -0.106509
57  12.000549 -19.544212 -17.246658  1.570796 -0.000000 0.000000
58  -15.417984 4.000748 -22.641926  1.570796 -0.000000 0.000000
59  1.941978 9.263218 -8.327020  1.570796 -0.000000 0.000000
60  -0.004311 0.001229 -0.000372  0.006898 -0.005534 -0.284229
61  0.826810 11.791080 -4.879054  1.570796 -0.000000 0.000000
62  0.000000 0.000000 0.000000  -0.078727 -3.136056 0.284226
63  -1.923794 -1.699245 -0.667801  1.570142 -0.001568 0.000311
64  -1.938778 -10.730774 -3.852628  1.569026 0.008402 0.000334
65  -0.000001 1.459180 2.741113  -0.000000 0.000000 -0.000000
66  0.000001 1.699922 0.973995  -0.000000 0.000000 -0.000000
67  0.000001 2.151126 1.118580  -0.000000 0.000000 -0.000000
68  -0.000000 1.691831 -0.423393  -0.876616 0.001126 0.000617
69  -0.190807 1.634964 3.156576  0.029475 0.000000 -0.000000
70  0.000000 2.606069 7.210409  -0.035921 -0.000000 -0.000000
71  -1.924157 -11.701755 -2.151044  1.569026 0.008402 0.000334
72  -0.068590 -0.065953 -0.011620  -0.000000 0.000000 -0.000000
73  -0.137660 -0.609178 -0.193563  -0.000000 0.000000 -0.000000
time 14
0  0.000006 0.000000 0.000000  -1.570800 -1.391899 -1.570792
1  -9.841317 -7.634221 1.937669  -1.544956 -1.855077 -0.198630
2  6.027525 -0.000329 0.000190  -0.440054 -1.471476 -1.545011
3  11.692111 0.000643 -0.000739  -0.990399 0.000003 -0.886614
4  11.480668 0.000590 -0.000433  1.099753 -0.273587 0.191309
5  3.666628 -0.163904 -1.204802  -0.458263 0.335584 -1.333198
6  1.312589 0.000010 0.000009  -0.086019 0.061891 -0.543338
7  0.729355 0.000054 0.000049  -0.058916 -0.035969 -0.432747
8  3.942142 0.046331 -0.431543  -0.169699 0.322144 -1.337741
9  1.539111 0.000084 0.000004  -0.004294 0.014762 -0.268897
10  1.196332 0.000146 0.000030  -0.001447 0.000349 -0.969204
11  3.883511 -0.047212 0.431350  0.023790 0.355799 -1.066066
12  1.719573 -0.000028 0.000017  0.001531 -0.002562 -0.619004
13  1.209180 0.000090 0.000012  0.001090 0.002463 -0.564593
14  3.859679 -0.138418 1.332379  -0.064236 0.489541 -0.966403
15  1.719448 -0.000018 0.000028  0.001411 0.001748 -0.394599
16  1.099675 0.000050 0.000006  -0.000954 0.002407 -0.611174
17  0.473660 -0.390764 1.407067  -1.497918 -0.373857 -0.256047
18  1.789819 -0.000004 -0.000017  -0.004966 -0.001297 0.021916
19  1.207017 -0.000012 -0.000044  -0.005914 0.000538 1.042760
20  5.740635 0.000388 -0.000700  -0.104675 0.000003 0.000063
21  11.481144 0.000296 -0.000740  -0.084616 -0.042857 0.011567
22  6.027524 -0.000329 0.000201  1.545015 -0.096010 1.859604
23  0.000001 11.692098 -0.000008  -0.645773 -0.182477 -0.533712
24  0.000001 0.000008 0.000001  -0.121332 -0.000031 1.570738
25  0.000001 -0.000012 -0.000000  0.868960 0.000002 1.570712
26  -6.899342 -10.734701 0.826813  1.473120 1.855075 -0.198639
27  6.027517 -0.000263 -0.000216  1.586751 1.235657 -0.669778
28  11.691991 0.000160 0.000858  0.139890 0.000017 -1.018127
29  11.480443 -0.000022 0.000832  -1.305645 0.543925 0.517240
30  3.710774 -0.434234 1.096848  0.954920 0.085663 -2.021677
31  1.312561 0.000031 -0.000002  0.002280 -0.063315 -0.206753
32  0.729346 0.000066 -0.000027  -0.115515 -0.145586 -1.178526
33  3.820805 -0.154609 0.327899  0.699185 -0.148327 -1.609172
34  1.539095 0.000003 -0.000001  0.047757 -0.047307 -0.905096
35  1.196302 0.000080 -0.000003  -0.020793 -0.009974 -1.281773
36  3.882445 -0.171892 -0.416805  0.585365 -0.256752 -1.273775
37  1.719566 -0.000083 -0.000005  0.009232 -0.075542 -1.265579
38  1.209194 0.000032 0.000010  0.002862 -0.003398 -0.994103
39  3.859584 -0.149082 -1.331322  0.072539 -0.193981 -0.456630
40  1.719413 -0.000097 -0.000037  0.032241 0.022754 -0.917972
41  1.099672 0.000023 0.000006  -0.008001 -0.008222 -0.721166
42  0.230503 -0.805067 -1.086893  1.111612 0.594062 -0.578210
43  1.789779 -0.000007 -0.000042  -0.089312 -0.070323 0.368341
44  1.206995 -0.000007 0.000005  0.000678 -0.214508 0.376132
45  5.740572 0.000079 0.000720  0.086163 -0.000014 0.000028
46  11.481031 0.000069 0.000911  0.027358 0.096817 0.075893
47  6.027515 -0.000273 -0.000229  -1.307568 -0.209913 -1.582579
48  -0.000002 11.691976 -0.000008  -0.732286 0.236423 0.600686
49  0.000003 -0.000001 -0.000001  2.412441 -0.000036 1.570860
50  -0.000008 -0.000012 0.000005  2.272645 -0.000036 1.570861
51  -2.570342 -8.287872 -5.188957  -0.149328 -2.872454 1.251292
52  -0.000000 -0.000000 0.000000  0.008153 -0.000259 0.000009
53  -0.000001 -0.000000 -0.000000  1.565115 0.043565 -0.106862
54  0.285177 -9.966593 -6.228685  -0.528628 -0.250270 -2.035612
55  0.000001 -0.000001 0.000000  0.000000 -0.000001 -0.000002
56  0.000031 0.000029 0.000001  -1.571901 -0.044449 -0.106509
57  12.000549 -19.544212 -17.246658  1.570796 -0.000000 0.000000
58  -15.417984 4.000748 -22.641926  1.570796 -0.000000 0.000000
59  1.941978 9.263218 -8.327020  1.570796 -0.000000 0.000000
60  -0.004311 0.001229 -0.000372  0.006898 -0.005534 -0.284229
61  0.826810 11.791080 -4.879054  1.570796 -0.000000 0.000000
62  0.000000 0.000000 0.000000  -0.078727 -3.136056 0.284226
63  -1.923794 -1.699245 -0.667801  1.570992 0.000868 0.000323
64  -1.933677 -10.757057 -3.842566  1.564016 0.003083 0.004160
65  -0.000001 1.459181 2.741116  -0.000000 0.000000 -0.000000
66  0.000001 1.699923 0.973998  -0.000000 0.000000 -0.000000
67  0.000000 2.151127 1.118582  -0.000000 0.000000 -0.000000
68  -0.000000 1.691831 -0.423390  -0.876616 0.001126 0.000617
69  -0.190806 1.634965 3.156578  0.029475 0.000000 -0.000000
70  -0.000000 2.606070 7.210412  -0.035921 -0.000000 0.000000
71  -1.924411 -11.719475 -2.136086  1.564016 0.003083 0.004160
72  -0.068590 -0.065953 -0.011619  -0.000000 0.000000 -0.000000
73  -0.137660 -0.609178 -0.193562  -0.000000 0.000000 -0.000000
time 15
0  0.000006 0.000000 0.000000  -1.570800 -1.391899 -1.570792
1  -9.841317 -7.634221 1.937669  -1.544956 -1.855077 -0.198630
2  6.027525 -0.000329 0.000190  -0.421429 -1.472797 -1.565290
3  11.692114 0.000644 -0.000739  -0.990398 0.000003 -0.878940
4  11.480700 0.000599 -0.000421  1.103979 -0.270060 0.192971
5  3.666628 -0.163903 -1.204802  -0.458263 0.335584 -1.333198
6  1.312590 0.000010 0.000008  -0.086019 0.061891 -0.543338
7  0.729353 0.000054 0.000049  -0.058916 -0.035969 -0.432747
8  3.942140 0.046331 -0.431543  -0.169699 0.322144 -1.337741
9  1.539110 0.000082 0.000004  -0.004294 0.014762 -0.268897
10  1.196332 0.000146 0.000028  -0.001447 0.000349 -0.969204
11  3.883510 -0.047211 0.431351  0.023790 0.355799 -1.066066
12  1.719573 -0.000030 0.000017  0.001531 -0.002562 -0.619004
13  1.209179 0.000091 0.000013  0.001090 0.002463 -0.564593
14  3.859677 -0.138417 1.332379  -0.064236 0.489541 -0.966403
15  1.719448 -0.000019 0.000029  0.001411 0.001748 -0.394599
16  1.099675 0.000049 0.000005  -0.000954 0.002407 -0.611174
17  0.473659 -0.390763 1.407067  -1.497918 -0.373857 -0.256047
18  1.789820 -0.000005 -0.000017  -0.004966 -0.001297 0.021916
19  1.207016 -0.000012 -0.000044  -0.005914 0.000538 1.042760
20  5.740635 0.000389 -0.000699  -0.103463 0.000003 0.000063
21  11.481151 0.000298 -0.000736  -0.083873 -0.042138 0.012182
22  6.027524 -0.000329 0.000201  1.543597 -0.094244 1.857993
23  -0.000001 11.692101 -0.000008  -0.640637 -0.179506 -0.529681
24  0.000003 0.000010 -0.000000  -0.121332 -0.000030 1.570739
25  -0.000001 -0.000011 -0.000000  0.868960 0.000002 1.570712
26  -6.899342 -10.734701 0.826813  1.473120 1.855075 -0.198639
27  6.027517 -0.000263 -0.000216  1.585594 1.240437 -0.670643
28  11.691992 0.000163 0.000859  0.139890 0.000017 -1.007997
29  11.480490 -0.000003 0.000830  -1.300328 0.541480 0.514775
30  3.710775 -0.434234 1.096848  0.954920 0.085663 -2.021677
31  1.312561 0.000032 -0.000000  0.002279 -0.063315 -0.206754
32  0.729347 0.000065 -0.000026  -0.115514 -0.145586 -1.178526
33  3.820806 -0.154608 0.327899  0.699185 -0.148327 -1.609172
34  1.539094 0.000004 -0.000002  0.047757 -0.047307 -0.905096
35  1.196302 0.000080 -0.000003  -0.020793 -0.009974 -1.281773
36  3.882446 -0.171891 -0.416805  0.585365 -0.256752 -1.273775
37  1.719566 -0.000083 -0.000005  0.009232 -0.075542 -1.265579
38  1.209193 0.000033 0.000010  0.002862 -0.003398 -0.994103
39  3.859586 -0.149081 -1.331322  0.072539 -0.193981 -0.456630
40  1.719411 -0.000097 -0.000038  0.032241 0.022754 -0.917972
41  1.099673 0.000023 0.000006  -0.008001 -0.008222 -0.721166
42  0.230504 -0.805067 -1.086893  1.111612 0.594062 -0.578210
43  1.789780 -0.000006 -0.000042  -0.089312 -0.070323 0.368341
44  1.206996 -0.000007 0.000005  0.000678 -0.214508 0.376132
45  5.740572 0.000080 0.000720  0.086448 -0.000014 0.000028
46  11.481041 0.000074 0.000911  0.028570 0.096536 0.075182
47  6.027515 -0.000273 -0.000229  -1.311668 -0.207285 -1.581501
48  -0.000001 11.691975 -0.000007  -0.725713 0.232066 0.595671
49  0.000003 -0.000000 0.000001  2.412441 -0.000036 1.570860
50  -0.000007 -0.000013 0.000005  2.272645 -0.000036 1.570861
51  -2.558245 -8.344325 -5.194341  -0.145591 -2.875749 1.252378
52  -0.000000 0.000000 0.000000  0.008153 -0.000259 0.000009
53  0.000000 0.000001 -0.000001  1.565115 0.043565 -0.106862
54  0.305358 -10.015045 -6.224674  -0.525441 -0.246488 -2.034322
55  -0.000001 -0.000001 0.000000  0.000000 -0.000001 -0.000002
56  0.000030 0.000028 0.000002  -1.571901 -0.044449 -0.106509
57  12.000549 -19.544212 -17.246658  1.570796 -0.000000 0.000000
58  -15.417984 4.000748 -22.641926  1.570796 -0.000000 0.000000
59  1.941978 9.263218 -8.327020  1.570796 -0.000000 0.000000
60  -0.004311 0.001229 -0.000372  0.006898 -0.005534 -0.284229
61  0.826810 11.791080 -4.879054  1.570796 -0.000000 0.000000
62  0.000000 0.000000 0.000000  -0.078727 -3.136056 0.284226
63  -1.923794 -1.699245 -0.667801  1.571378 0.002180 0.000327
64  -1.922454 -10.814879 -3.850052  1.565991 -0.001383 0.006235
65  -0.000001 1.459181 2.741116  0.000000 0.000000 0.000000
66  0.000001 1.699922 0.973997  0.000000 0.000000 0.000000
67  0.000000 2.151126 1.118581  0.000000 0.000000 0.000000
68  -0.000000 1.691831 -0.423392  -0.876616 0.001126 0.000617
69  -0.190807 1.634964 3.156578  0.029475 0.000000 -0.000000
70  0.000000 2.606070 7.210409  -0.035921 -0.000000 0.000000
71  -1.918789 -11.780693 -2.145471  1.565991 -0.001383 0.006235
72  -0.068590 -0.065952 -0.011618  0.000000 0.000000 0.000000
73  -0.137660 -0.609178 -0.193562  0.000000 0.000000 0.000000
time 16
0  0.000006 0.000000 0.000000  -1.570800 -1.391899 -1.570792
1  -9.841317 -7.634221 1.937669  -1.544956 -1.855077 -0.198630
2  6.027525 -0.000329 0.000190  -0.401127 -1.473896 -1.586456
3  11.692114 0.000645 -0.000739  -0.990398 0.000004 -0.870887
4  11.480735 0.000606 -0.000412  1.104061 -0.264595 0.194379
5  3.666628 -0.163903 -1.204802  -0.458263 0.335584 -1.333198
6  1.312590 0.000010 0.000008  -0.086019 0.061891 -0.543338
7  0.729357 0.000055 0.000049  -0.058916 -0.035969 -0.432747
8  3.942140 0.046331 -0.431543  -0.169699 0.322144 -1.337740
9  1.539110 0.000083 0.000004  -0.004294 0.014762 -0.268897
10  1.196334 0.000147 0.000028  -0.001447 0.000349 -0.969204
11  3.883510 -0.047212 0.431351  0.023790 0.355799 -1.066066
12  1.719573 -0.000029 0.000016  0.001531 -0.002562 -0.619004
13  1.209179 0.000090 0.000012  0.001090 0.002463 -0.564593
14  3.859677 -0.138418 1.332380  -0.064236 0.489541 -0.966403
15  1.719448 -0.000018 0.000029  0.001411 0.001748 -0.394599
16  1.099675 0.000049 0.000005  -0.000954 0.002407 -0.611174
17  0.473658 -0.390764 1.407068  -1.497918 -0.373857 -0.256047
18  1.789819 -0.000004 -0.000017  -0.004966 -0.001297 0.021916
19  1.207016 -0.000012 -0.000044  -0.005914 0.000538 1.042760
20  5.740636 0.000389 -0.000700  -0.102951 0.000003 0.000063
21  11.481157 0.000300 -0.000736  -0.084001 -0.041116 0.012678
22  6.027524 -0.000329 0.000201  1.542015 -0.092623 1.857182
23  0.000000 11.692099 -0.000008  -0.635238 -0.176410 -0.525438
24  0.000003 0.000009 0.000000  -0.121332 -0.000031 1.570738
25  -0.000001 -0.000011 -0.000000  0.868960 0.000002 1.570712
26  -6.899342 -10.734701 0.826813  1.473120 1.855075 -0.198639
27  6.027517 -0.000263 -0.000216  1.583919 1.245038 -0.671932
28  11.691991 0.000161 0.000859  0.139889 0.000017 -0.998427
29  11.480537 0.000017 0.000828  -1.297660 0.540661 0.514434
30  3.710775 -0.434235 1.096848  0.954920 0.085663 -2.021677
31  1.312560 0.000030 -0.000000  0.002280 -0.063315 -0.206753
32  0.729348 0.000064 -0.000027  -0.115514 -0.145586 -1.178526
33  3.820806 -0.154609 0.327899  0.699185 -0.148327 -1.609172
34  1.539095 0.000004 -0.000002  0.047757 -0.047307 -0.905096
35  1.196302 0.000080 -0.000003  -0.020793 -0.009974 -1.281773
36  3.882446 -0.171893 -0.416804  0.585365 -0.256752 -1.273775
37  1.719566 -0.000084 -0.000005  0.009232 -0.075542 -1.265579
38  1.209193 0.000034 0.000011  0.002862 -0.003398 -0.994103
39  3.859586 -0.149082 -1.331322  0.072539 -0.193981 -0.456630
40  1.719413 -0.000097 -0.000037  0.032241 0.022754 -0.917972
41  1.099673 0.000025 0.000006  -0.008001 -0.008222 -0.721166
42  0.230504 -0.805067 -1.086893  1.111612 0.594062 -0.578210
43  1.789780 -0.000007 -0.000042  -0.089312 -0.070323 0.368341
44  1.206995 -0.000007 0.000005  0.000678 -0.214508 0.376132
45  5.740573 0.000078 0.000720  0.086283 -0.000014 0.000028
46  11.481051 0.000077 0.000910  0.029121 0.096485 0.074987
47  6.027515 -0.000273 -0.000229  -1.315716 -0.204886 -1.580376
48  -0.000001 11.691975 -0.000007  -0.719490 0.227980 0.590911
49  0.000003 -0.000000 0.000001  2.412441 -0.000036 1.570860
50  -0.000008 -0.000013 0.000005  2.272645 -0.000036 1.570861
51  -2.542751 -8.396741 -5.200287  -0.144958 -2.879842 1.251496
52  0.000001 -0.000000 -0.000000  0.008153 -0.000259 0.000009
53  0.000001 -0.000000 -0.000000  1.565115 0.043565 -0.106862
54  0.321576 -10.065706 -6.231454  -0.525427 -0.242350 -2.035043
55  -0.000001 0.000001 -0.000000  0.000000 -0.000001 -0.000002
56  0.000030 0.000029 0.000001  -1.571901 -0.044449 -0.106509
57  12.000549 -19.544212 -17.246658  1.570796 -0.000000 0.000000
58  -15.417984 4.000748 -22.641926  1.570796 -0.000000 0.000000
59  1.941978 9.263218 -8.327020  1.570796 -0.000000 0.000000
60  -0.004311 0.001229 -0.000372  0.006898 -0.005534 -0.284229
61  0.826810 11.791080 -4.879054  1.570796 -0.000000 0.000000
62  0.000000 0.000000 0.000000  -0.078727 -3.136056 0.284226
63  -1.923794 -1.699245 -0.667801  1.571317 0.001545 0.000293
64  -1.911231 -10.872702 -3.863956  1.569675 -0.003268 0.005510
65  -0.000001 1.459181 2.741116  0.000000 0.000000 -0.000000
66  0.000001 1.699923 0.973999  0.000000 0.000000 -0.000000
67  0.000000 2.151127 1.118582  0.000000 0.000000 -0.000000
68  -0.000000 1.691831 -0.423390  -0.876616 0.001126 0.000617
69  -0.190807 1.634965 3.156580  0.029475 0.000000 -0.000000
70  -0.000000 2.606070 7.210413  -0.035921 -0.000000 0.000000
71  -1.911434 -11.844808 -2.162952  1.569675 -0.003268 0.005510
72  -0.068590 -0.065952 -0.011618  0.000000 0.000000 -0.000000
73  -0.137660 -0.609178 -0.193563  0.000000 0.000000 -0.000000
time 17
0  0.000006 0.000000 0.000000  -1.570800 -1.391899 -1.570792
1  -9.841317 -7.634221 1.937669  -1.544956 -1.855077 -0.198630
2  6.027525 -0.000329 0.000190  -0.389773 -1.474368 -1.597896
3  11.692112 0.000645 -0.000739  -0.990397 0.000004 -0.866760
4  11.480753 0.000611 -0.000404  1.102419 -0.260973 0.194346
5  3.666628 -0.163903 -1.204802  -0.458263 0.335584 -1.333198
6  1.312589 0.000010 0.000007  -0.086019 0.061891 -0.543338
7  0.729355 0.000054 0.000049  -0.058916 -0.035969 -0.432747
8  3.942142 0.046331 -0.431542  -0.169699 0.322144 -1.337740
9  1.539111 0.000083 0.000004  -0.004294 0.014762 -0.268897
10  1.196333 0.000145 0.000029  -0.001447 0.000349 -0.969204
11  3.883512 -0.047212 0.431352  0.023790 0.355799 -1.066066
12  1.719573 -0.000028 0.000018  0.001531 -0.002562 -0.619004
13  1.209179 0.000089 0.000012  0.001090 0.002463 -0.564593
14  3.859677 -0.138419 1.332380  -0.064236 0.489541 -0.966403
15  1.719448 -0.000020 0.000028  0.001411 0.001748 -0.394599
16  1.099676 0.000049 0.000006  -0.000954 0.002407 -0.611174
17  0.473660 -0.390763 1.407068  -1.497917 -0.373857 -0.256047
18  1.789819 -0.000004 -0.000017  -0.004966 -0.001297 0.021916
19  1.207017 -0.000013 -0.000045  -0.005914 0.000538 1.042760
20  5.740635 0.000389 -0.000699  -0.102983 0.000003 0.000064
21  11.481160 0.000301 -0.000733  -0.084432 -0.040440 0.012759
22  6.027524 -0.000329 0.000201  1.541110 -0.091841 1.857125
23  0.000001 11.692099 -0.000007  -0.632468 -0.174832 -0.523258
24  0.000002 0.000008 0.000000  -0.121332 -0.000031 1.570739
25  0.000002 -0.000010 0.000000  0.868960 0.000002 1.570712
26  -6.899342 -10.734701 0.826813  1.473120 1.855075 -0.198639
27  6.027517 -0.000263 -0.000216  1.582992 1.247120 -0.672655
28  11.691991 0.000162 0.000858  0.139889 0.000016 -0.994234
29  11.480556 0.000027 0.000826  -1.297960 0.541271 0.514725
30  3.710772 -0.434234 1.096848  0.954920 0.085663 -2.021677
31  1.312560 0.000029 -0.000000  0.002280 -0.063315 -0.206753
32  0.729347 0.000066 -0.000027  -0.115514 -0.145586 -1.178526
33  3.820805 -0.154608 0.327899  0.699185 -0.148327 -1.609172
34  1.539095 0.000003 -0.000002  0.047757 -0.047307 -0.905096
35  1.196303 0.000079 -0.000003  -0.020793 -0.009974 -1.281773
36  3.882445 -0.171892 -0.416804  0.585365 -0.256752 -1.273775
37  1.719565 -0.000082 -0.000005  0.009232 -0.075542 -1.265579
38  1.209193 0.000033 0.000011  0.002862 -0.003398 -0.994103
39  3.859584 -0.149081 -1.331322  0.072539 -0.193981 -0.456630
40  1.719413 -0.000097 -0.000037  0.032241 0.022754 -0.917972
41  1.099673 0.000024 0.000006  -0.008001 -0.008222 -0.721166
42  0.230502 -0.805067 -1.086893  1.111612 0.594062 -0.578210
43  1.789780 -0.000006 -0.000042  -0.089312 -0.070323 0.368341
44  1.206996 -0.000006 0.000005  0.000678 -0.214508 0.376132
45  5.740573 0.000079 0.000721  0.085948 -0.000014 0.000028
46  11.481055 0.000079 0.000910  0.029020 0.096594 0.075041
47  6.027515 -0.000273 -0.000229  -1.317578 -0.203838 -1.579843
48  -0.000002 11.691975 -0.000007  -0.716759 0.226199 0.588819
49  0.000004 -0.000001 0.000001  2.412441 -0.000036 1.570860
50  -0.000007 -0.000014 0.000004  2.272645 -0.000036 1.570861
51  -2.534195 -8.419320 -5.202524  -0.146112 -2.881566 1.250122
52  -0.000001 0.000000 0.000001  0.008153 -0.000259 0.000009
53  -0.000001 0.000000 0.000000  1.565115 0.043565 -0.106862
54  0.326806 -10.091019 -6.238489  -0.526820 -0.240804 -2.036381
55  0.000001 -0.000000 0.000001  0.000000 -0.000001 -0.000002
56  0.000031 0.000029 0.000002  -1.571901 -0.044449 -0.106509
57  12.000549 -19.544212 -17.246658  1.570796 -0.000000 0.000000
58  -15.417984 4.000748 -22.641926  1.570796 -0.000000 0.000000
59  1.941978 9.263218 -8.327020  1.570796 -0.000000 0.000000
60  -0.004311 0.001229 -0.000372  0.006898 -0.005534 -0.284229
61  0.826810 11.791080 -4.879054  1.570796 -0.000000 0.000000
62  0.000000 0.000000 0.000000  -0.078727 -3.136056 0.284226
63  -1.923794 -1.699245 -0.667801  1.571173 0.000365 0.000212
64  -1.906130 -10.898985 -3.871443  1.571665 -0.002762 0.003832
65  -0.000000 1.459181 2.741116  -0.000000 0.000000 -0.000000
66  0.000001 1.699923 0.973998  -0.000000 0.000000 -0.000000
67  0.000000 2.151126 1.118581  -0.000000 0.000000 -0.000000
68  -0.000000 1.691831 -0.423391  -0.876616 0.001126 0.000617
69  -0.190807 1.634964 3.156578  0.029475 0.000000 -0.000000
70  0.000000 2.606070 7.210411  -0.035921 -0.000000 0.000000
71  -1.907083 -11.874470 -2.172374  1.571665 -0.002762 0.003832
72  -0.068590 -0.065953 -0.011619  -0.000000 0.000000 -0.000000
73  -0.137660 -0.609178 -0.193561  -0.000000 0.000000 -0.000000
time 18
0  0.000006 0.000000 0.000000  -1.570800 -1.391899 -1.570792
1  -9.841317 -7.634221 1.937669  -1.544956 -1.855077 -0.198630
2  6.027525 -0.000329 0.000190  -0.383748 -1.474561 -1.603800
3  11.692112 0.000644 -0.000739  -0.990397 0.000004 -0.865607
4  11.480760 0.000611 -0.000402  1.101264 -0.258929 0.193293
5  3.666627 -0.163904 -1.204803  -0.458263 0.335584 -1.333198
6  1.312589 0.000008 0.000008  -0.086019 0.061891 -0.543338
7  0.729356 0.000053 0.000049  -0.058916 -0.035969 -0.432747
8  3.942141 0.046332 -0.431543  -0.169699 0.322144 -1.337741
9  1.539111 0.000083 0.000004  -0.004294 0.014762 -0.268897
10  1.196332 0.000146 0.000029  -0.001447 0.000349 -0.969204
11  3.883511 -0.047212 0.431351  0.023790 0.355799 -1.066067
12  1.719573 -0.000028 0.000016  0.001531 -0.002562 -0.619004
13  1.209178 0.000091 0.000012  0.001090 0.002463 -0.564593
14  3.859677 -0.138418 1.332379  -0.064236 0.489541 -0.966403
15  1.719448 -0.000019 0.000028  0.001411 0.001748 -0.394599
16  1.099675 0.000050 0.000006  -0.000954 0.002407 -0.611174
17  0.473659 -0.390763 1.407067  -1.497917 -0.373857 -0.256047
18  1.789820 -0.000004 -0.000016  -0.004966 -0.001297 0.021916
19  1.207016 -0.000013 -0.000045  -0.005914 0.000538 1.042760
20  5.740636 0.000388 -0.000699  -0.103085 0.000003 0.000063
21  11.481161 0.000301 -0.000733  -0.084736 -0.040026 0.012592
22  6.027524 -0.000329 0.000201  1.540617 -0.091477 1.857263
23  0.000000 11.692099 -0.000008  -0.631693 -0.174392 -0.522648
24  0.000003 0.000008 0.000000  -0.121332 -0.000031 1.570739
25  0.000000 -0.000012 -0.000000  0.868960 0.000002 1.570712
26  -6.899342 -10.734701 0.826813  1.473120 1.855075 -0.198639
27  6.027517 -0.000263 -0.000216  1.583131 1.247199 -0.672543
28  11.691992 0.000162 0.000859  0.139889 0.000016 -0.994343
29  11.480556 0.000027 0.000825  -1.299345 0.542907 0.515035
30  3.710775 -0.434235 1.096849  0.954920 0.085663 -2.021677
31  1.312560 0.000030 -0.000001  0.002279 -0.063315 -0.206753
32  0.729347 0.000066 -0.000027  -0.115514 -0.145586 -1.178526
33  3.820806 -0.154609 0.327899  0.699185 -0.148327 -1.609172
34  1.539094 0.000004 -0.000001  0.047757 -0.047307 -0.905096
35  1.196303 0.000079 -0.000003  -0.020793 -0.009974 -1.281773
36  3.882445 -0.171893 -0.416804  0.585365 -0.256752 -1.273775
37  1.719567 -0.000083 -0.000005  0.009232 -0.075542 -1.265579
38  1.209193 0.000033 0.000011  0.002862 -0.003398 -0.994103
39  3.859585 -0.149082 -1.331322  0.072539 -0.193981 -0.456630
40  1.719412 -0.000097 -0.000038  0.032241 0.022754 -0.917972
41  1.099672 0.000023 0.000006  -0.008001 -0.008222 -0.721166
42  0.230503 -0.805067 -1.086893  1.111612 0.594062 -0.578210
43  1.789780 -0.000007 -0.000042  -0.089312 -0.070323 0.368341
44  1.206996 -0.000007 0.000005  0.000678 -0.214508 0.376132
45  5.740572 0.000079 0.000720  0.085740 -0.000014 0.000028
46  11.481056 0.000080 0.000910  0.028661 0.096855 0.075129
47  6.027515 -0.000273 -0.000229  -1.317614 -0.203755 -1.579855
48  -0.000001 11.691975 -0.000008  -0.716830 0.226246 0.588874
49  0.000004 -0.000000 -0.000000  2.412441 -0.000036 1.570860
50  -0.000008 -0.000013 0.000004  2.272645 -0.000036 1.570861
51  -2.533530 -8.418444 -5.199800  -0.147142 -2.880996 1.248507
52  -0.000001 0.000000 0.000000  0.008153 -0.000259 0.000009
53  -0.000000 0.000000 0.000000  1.565115 0.043565 -0.106862
54  0.323157 -10.095753 -6.238601  -0.527750 -0.241512 -2.038039
55  -0.000000 0.000000 -0.000000  0.000000 -0.000001 -0.000002
56  0.000031 0.000030 0.000001  -1.571901 -0.044449 -0.106509
57  12.000549 -19.544212 -17.246658  1.570796 -0.000000 0.000000
58  -15.417984 4.000748 -22.641926  1.570796 -0.000000 0.000000
59  1.941978 9.263218 -8.327020  1.570796 -0.000000 0.000000
60  -0.004311 0.001229 -0.000372  0.006898 -0.005534 -0.284229
61  0.826810 11.791080 -4.879054  1.570796 -0.000000 0.000000
62  0.000000 0.000000 0.000000  -0.078727 -3.136056 0.284226
63  -1.923794 -1.699245 -0.667801  1.571001 -0.000270 0.000115
64  -1.908629 -10.898985 -3.868862  1.571442 -0.001636 0.001952
65  -0.000000 1.459181 2.741116  0.000000 -0.000000 -0.000000
66  0.000001 1.699923 0.973998  0.000000 -0.000000 -0.000000
67  0.000001 2.151127 1.118582  0.000000 -0.000000 -0.000000
68  -0.000000 1.691831 -0.423390  -0.876616 0.001126 0.000617
69  -0.190807 1.634965 3.156579  0.029475 0.000000 -0.000000
70  0.000000 2.606070 7.210412  -0.035921 -0.000000 0.000000
71  -1.909505 -11.874084 -2.169571  1.571442 -0.001636 0.001952
72  -0.068590 -0.065952 -0.011621  0.000000 -0.000000 -0.000000
73  -0.137660 -0.609178 -0.193564  0.000000 -0.000000 -0.000000
time 19
0  0.000006 0.000000 0.000000  -1.570800 -1.391899 -1.570792
1  -9.841317 -7.634221 1.937669  -1.544956 -1.855077 -0.198630
2  6.027525 -0.000329 0.000190  -0.379008 -1.474687 -1.608370
3  11.692113 0.000645 -0.000738  -0.990397 0.000004 -0.865240
4  11.480762 0.000611 -0.000401  1.100227 -0.257855 0.192383
5  3.666627 -0.163905 -1.204803  -0.458263 0.335584 -1.333198
6  1.312589 0.000010 0.000008  -0.086019 0.061891 -0.543338
7  0.729356 0.000054 0.000049  -0.058916 -0.035969 -0.432747
8  3.942140 0.046330 -0.431543  -0.169699 0.322144 -1.337741
9  1.539110 0.000082 0.000004  -0.004294 0.014762 -0.268897
10  1.196332 0.000147 0.000029  -0.001447 0.000349 -0.969204
11  3.883510 -0.047212 0.431350  0.023790 0.355799 -1.066066
12  1.719573 -0.000030 0.000018  0.001531 -0.002562 -0.619004
13  1.209179 0.000089 0.000013  0.001090 0.002463 -0.564593
14  3.859676 -0.138418 1.332379  -0.064236 0.489541 -0.966403
15  1.719448 -0.000017 0.000028  0.001411 0.001748 -0.394599
16  1.099675 0.000048 0.000006  -0.000954 0.002407 -0.611174
17  0.473658 -0.390764 1.407067  -1.497918 -0.373857 -0.256047
18  1.789819 -0.000004 -0.000017  -0.004966 -0.001297 0.021916
19  1.207018 -0.000012 -0.000044  -0.005914 0.000538 1.042760
20  5.740636 0.000387 -0.000699  -0.103236 0.000003 0.000063
21  11.481163 0.000300 -0.000733  -0.084985 -0.039805 0.012420
22  6.027524 -0.000329 0.000201  1.540223 -0.091214 1.857448
23  0.000001 11.692098 -0.000007  -0.631446 -0.174252 -0.522454
24  0.000003 0.000009 -0.000001  -0.121333 -0.000031 1.570739
25  0.000000 -0.000012 0.000001  0.868960 0.000002 1.570712
26  -6.899342 -10.734701 0.826813  1.473120 1.855075 -0.198639
27  6.027517 -0.000263 -0.000216  1.583753 1.246869 -0.672047
28  11.691993 0.000163 0.000859  0.139889 0.000016 -0.995288
29  11.480552 0.000024 0.000826  -1.300778 0.544100 0.515379
30  3.710775 -0.434235 1.096849  0.954920 0.085663 -2.021677
31  1.312560 0.000032 0.000000  0.002280 -0.063315 -0.206753
32  0.729347 0.000064 -0.000026  -0.115514 -0.145586 -1.178526
33  3.820807 -0.154609 0.327900  0.699185 -0.148327 -1.609172
34  1.539095 0.000003 -0.000002  0.047757 -0.047307 -0.905096
35  1.196303 0.000080 -0.000003  -0.020793 -0.009974 -1.281773
36  3.882447 -0.171893 -0.416804  0.585365 -0.256752 -1.273775
37  1.719566 -0.000083 -0.000004  0.009232 -0.075542 -1.265579
38  1.209193 0.000033 0.000010  0.002862 -0.003398 -0.994103
39  3.859586 -0.149082 -1.331322  0.072539 -0.193981 -0.456630
40  1.719413 -0.000097 -0.000037  0.032241 0.022754 -0.917972
41  1.099674 0.000022 0.000006  -0.008001 -0.008222 -0.721166
42  0.230504 -0.805067 -1.086892  1.111612 0.594062 -0.578210
43  1.789780 -0.000007 -0.000042  -0.089312 -0.070323 0.368341
44  1.206995 -0.000007 0.000005  0.000678 -0.214508 0.376132
45  5.740573 0.000078 0.000721  0.085581 -0.000014 0.000028
46  11.481054 0.000078 0.000911  0.028316 0.097029 0.075241
47  6.027515 -0.000273 -0.000229  -1.317224 -0.203801 -1.580028
48  -0.000000 11.691974 -0.000008  -0.717446 0.226646 0.589345
49  0.000002 -0.000001 0.000000  2.412441 -0.000036 1.570860
50  -0.000007 -0.000014 0.000004  2.272645 -0.000036 1.570861
51  -2.536170 -8.413182 -5.195348  -0.148108 -2.880240 1.247346
52  0.000000 0.000000 -0.000001  0.008153 -0.000259 0.000009
53  0.000001 0.000000 0.000000  1.565115 0.043565 -0.106862
54  0.316978 -10.094953 -6.236653  -0.528588 -0.242395 -2.039248
55  -0.000000 -0.000001 0.000000  0.000000 -0.000001 -0.000002
56  0.000030 0.000029 0.000001  -1.571902 -0.044449 -0.106509
57  12.000549 -19.544212 -17.246658  1.570796 -0.000000 0.000000
58  -15.417984 4.000748 -22.641926  1.570796 -0.000000 0.000000
59  1.941978 9.263218 -8.327020  1.570796 -0.000000 0.000000
60  -0.004311 0.001229 -0.000372  0.006898 -0.005534 -0.284229
61  0.826810 11.791080 -4.879054  1.570796 -0.000000 0.000000
62  0.000000 0.000000 0.000000  -0.078727 -3.136056 0.284226
63  -1.923794 -1.699245 -0.667801  1.570857 -0.000135 0.000034
64  -1.913271 -10.894043 -3.864068  1.571023 -0.000511 0.000543
65  -0.000000 1.459181 2.741112  -0.000000 -0.000000 0.000000
66  0.000001 1.699923 0.973996  -0.000000 -0.000000 0.000000
67  0.000000 2.151127 1.118580  -0.000000 -0.000000 0.000000
68  -0.000000 1.691831 -0.423393  -0.876616 0.001126 0.000617
69  -0.190807 1.634964 3.156575  0.029475 0.000000 -0.000000
70  0.000000 2.606070 7.210407  -0.035921 -0.000000 0.000000
71  -1.913610 -11.868425 -2.164366  1.571023 -0.000511 0.000543
72  -0.068590 -0.065953 -0.011620  -0.000000 -0.000000 0.000000
73  -0.137660 -0.609178 -0.193564  -0.000000 -0.000000 0.000000
time 20
0  0.000006 0.000000 0.000000  -1.570800 -1.391899 -1.570792
1  -9.841317 -7.634221 1.937669  -1.544956 -1.855077 -0.198630
2  6.027525 -0.000329 0.000190  -0.378372 -1.474678 -1.608899
3  11.692113 0.000645 -0.000738  -0.990397 0.000004 -0.865558
4  11.480761 0.000611 -0.000404  1.099739 -0.257730 0.192109
5  3.666627 -0.163903 -1.204802  -0.458263 0.335584 -1.333198
6  1.312590 0.000012 0.000008  -0.086019 0.061891 -0.543338
7  0.729356 0.000055 0.000049  -0.058916 -0.035969 -0.432747
8  3.942139 0.046331 -0.431543  -0.169699 0.322144 -1.337740
9  1.539110 0.000082 0.000004  -0.004294 0.014762 -0.268897
10  1.196333 0.000145 0.000030  -0.001447 0.000349 -0.969204
11  3.883509 -0.047212 0.431352  0.023791 0.355799 -1.066067
12  1.719573 -0.000029 0.000017  0.001531 -0.002562 -0.619004
13  1.209179 0.000089 0.000012  0.001090 0.002463 -0.564593
14  3.859676 -0.138417 1.332380  -0.064236 0.489541 -0.966403
15  1.719448 -0.000018 0.000029  0.001411 0.001748 -0.394599
16  1.099675 0.000048 0.000006  -0.000954 0.002407 -0.611174
17  0.473659 -0.390763 1.407068  -1.497918 -0.373857 -0.256047
18  1.789819 -0.000004 -0.000017  -0.004966 -0.001297 0.021916
19  1.207016 -0.000013 -0.000044  -0.005914 0.000538 1.042760
20  5.740636 0.000389 -0.000700  -0.103338 0.000003 0.000063
21  11.481163 0.000301 -0.000734  -0.085088 -0.039781 0.012354
22  6.027524 -0.000329 0.000201  1.540162 -0.091203 1.857557
23  0.000000 11.692100 -0.000008  -0.631660 -0.174374 -0.522622
24  0.000002 0.000008 0.000000  -0.121332 -0.000030 1.570739
25  -0.000000 -0.000012 -0.000000  0.868960 0.000002 1.570712
26  -6.899342 -10.734701 0.826813  1.473120 1.855075 -0.198639
27  6.027517 -0.000263 -0.000216  1.584105 1.246497 -0.671768
28  11.691990 0.000161 0.000858  0.139889 0.000016 -0.996189
29  11.480548 0.000021 0.000827  -1.301423 0.544575 0.515713
30  3.710775 -0.434235 1.096849  0.954920 0.085663 -2.021677
31  1.312560 0.000032 -0.000001  0.002279 -0.063315 -0.206754
32  0.729348 0.000066 -0.000027  -0.115514 -0.145586 -1.178526
33  3.820806 -0.154608 0.327900  0.699185 -0.148327 -1.609172
34  1.539095 0.000003 -0.000002  0.047757 -0.047307 -0.905096
35  1.196303 0.000080 -0.000003  -0.020793 -0.009974 -1.281773
36  3.882445 -0.171892 -0.416803  0.585365 -0.256752 -1.273775
37  1.719565 -0.000083 -0.000005  0.009232 -0.075542 -1.265579
38  1.209193 0.000034 0.000010  0.002862 -0.003398 -0.994103
39  3.859585 -0.149081 -1.331321  0.072539 -0.193981 -0.456630
40  1.719413 -0.000097 -0.000038  0.032241 0.022754 -0.917972
41  1.099674 0.000025 0.000006  -0.008001 -0.008222 -0.721166
42  0.230504 -0.805067 -1.086892  1.111612 0.594062 -0.578210
43  1.789780 -0.000007 -0.000042  -0.089312 -0.070323 0.368341
44  1.206995 -0.000007 0.000005  0.000678 -0.214508 0.376132
45  5.740573 0.000080 0.000721  0.085541 -0.000014 0.000028
46  11.481053 0.000078 0.000910  0.028158 0.097099 0.075328
47  6.027515 -0.000273 -0.000229  -1.316854 -0.203942 -1.580158
48  -0.000001 11.691975 -0.000007  -0.718033 0.227029 0.589795
49  0.000002 -0.000000 0.000000  2.412441 -0.000036 1.570860
50  -0.000007 -0.000014 0.000005  2.272645 -0.000036 1.570861
51  -2.538004 -8.408205 -5.193011  -0.148535 -2.879863 1.246914
52  0.000001 0.000000 -0.000000  0.008153 -0.000259 0.000009
53  -0.000000 0.000000 0.000001  1.565115 0.043565 -0.106862
54  0.313698 -10.091760 -6.235392  -0.528952 -0.242828 -2.039704
55  0.000001 -0.000001 0.000000  0.000000 -0.000001 -0.000002
56  0.000031 0.000029 0.000001  -1.571901 -0.044449 -0.106509
57  12.000549 -19.544212 -17.246658  1.570796 -0.000000 0.000000
58  -15.417984 4.000748 -22.641926  1.570796 -0.000000 0.000000
59  1.941978 9.263218 -8.327020  1.570796 -0.000000 0.000000
60  -0.004311 0.001229 -0.000372  0.006898 -0.005534 -0.284229
61  0.826810 11.791080 -4.879054  1.570796 -0.000000 0.000000
62  0.000000 0.000000 0.000000  -0.078727 -3.136056 0.284226
63  -1.923794 -1.699245 -0.667801  1.570796 -0.000000 0.000000
64  -1.915771 -10.889102 -3.861487  1.570796 -0.000000 0.000000
65  -0.000000 1.459181 2.741115  0.000000 -0.000000 0.000000
66  0.000001 1.699923 0.973997  0.000000 -0.000000 0.000000
67  0.000000 2.151127 1.118581  0.000000 -0.000000 0.000000
68  -0.000000 1.691831 -0.423391  -0.876616 0.001126 0.000617
69  -0.190807 1.634964 3.156577  0.029475 0.000000 -0.000000
70  0.000000 2.606070 7.210410  -0.035921 -0.000000 0.000000
71  -1.915770 -11.863099 -2.161564  1.570796 -0.000000 0.000000
72  -0.068590 -0.065953 -0.011620  0.000000 -0.000000 0.000000
73  -0.137660 -0.609178 -0.193563  0.000000 -0.000000 0.000000
end
