version 1
nodes
0 "ValveBiped.Bip01_Spine4" -1
1 "ValveBiped.Bip01_L_Clavicle" 0
2 "ValveBiped.Bip01_L_UpperArm" 1
3 "ValveBiped.Bip01_L_Forearm" 2
4 "ValveBiped.Bip01_L_Hand" 3
5 "ValveBiped.Bip01_L_Finger4" 4
6 "ValveBiped.Bip01_L_Finger41" 5
7 "ValveBiped.Bip01_L_Finger42" 6
8 "ValveBiped.Bip01_L_Finger3" 4
9 "ValveBiped.Bip01_L_Finger31" 8
10 "ValveBiped.Bip01_L_Finger32" 9
11 "ValveBiped.Bip01_L_Finger2" 4
12 "ValveBiped.Bip01_L_Finger21" 11
13 "ValveBiped.Bip01_L_Finger22" 12
14 "ValveBiped.Bip01_L_Finger1" 4
15 "ValveBiped.Bip01_L_Finger11" 14
16 "ValveBiped.Bip01_L_Finger12" 15
17 "ValveBiped.Bip01_L_Finger0" 4
18 "ValveBiped.Bip01_L_Finger01" 17
19 "ValveBiped.Bip01_L_Finger02" 18
20 "ValveBiped.Bip01_L_Ulna" 3
21 "ValveBiped.Bip01_L_Wrist" 3
22 "rig_l_upperarm" 1
23 "rig_l_forearm" 22
24 "rig_d_l_forearm" 23
25 "rig_d_l_upperarm" 22
26 "ValveBiped.Bip01_R_Clavicle" 0
27 "ValveBiped.Bip01_R_UpperArm" 26
28 "ValveBiped.Bip01_R_Forearm" 27
29 "ValveBiped.Bip01_R_Hand" 28
30 "ValveBiped.Bip01_R_Finger4" 29
31 "ValveBiped.Bip01_R_Finger41" 30
32 "ValveBiped.Bip01_R_Finger42" 31
33 "ValveBiped.Bip01_R_Finger3" 29
34 "ValveBiped.Bip01_R_Finger31" 33
35 "ValveBiped.Bip01_R_Finger32" 34
36 "ValveBiped.Bip01_R_Finger2" 29
37 "ValveBiped.Bip01_R_Finger21" 36
38 "ValveBiped.Bip01_R_Finger22" 37
39 "ValveBiped.Bip01_R_Finger1" 29
40 "ValveBiped.Bip01_R_Finger11" 39
41 "ValveBiped.Bip01_R_Finger12" 40
42 "ValveBiped.Bip01_R_Finger0" 29
43 "ValveBiped.Bip01_R_Finger01" 42
44 "ValveBiped.Bip01_R_Finger02" 43
45 "ValveBiped.Bip01_R_Ulna" 28
46 "ValveBiped.Bip01_R_Wrist" 28
47 "rig_r_upperarm" 26
48 "rig_r_forearm" 47
49 "rig_d_r_forearm" 48
50 "rig_d_r_upperarm" 47
51 "rig_r_hand" -1
52 "rig_d_r_hand" 51
53 "rig_d_r_wrist" 52
54 "rig_l_hand" -1
55 "rig_d_l_hand" 54
56 "rig_d_l_wrist" 54
57 "rig_l_pole" -1
58 "rig_r_pole" -1
59 "rig_l_clavicle" -1
60 "rig_d_l_clavicle" 59
61 "rig_r_clavicle" -1
62 "rig_d_r_clavicle" 61
63 "Camera" -1
64 "body" -1
65 "trigger" 64
66 "bullet1" 64
67 "slide" 64
68 "hammer" 64
69 "sliderelease" 64
70 "barrel" 64
71 "mag" -1
72 "bullet2" 71
73 "bullet3" 71
end
skeleton
time 0
0  0.000006 0.000000 0.000000  -1.570800 -1.391899 -1.570792
1  -10.134789 -9.257131 1.937670  -1.544956 -1.855077 -0.198630
2  6.027517 -0.000323 0.000196  -1.102417 -0.522637 -0.800844
3  11.692114 0.000647 -0.000738  -0.990396 0.000004 -0.839860
4  11.480887 0.000635 -0.000361  2.066853 -0.103504 0.363078
5  3.666625 -0.163903 -1.204800  -0.468169 0.151546 -0.880257
6  1.312589 0.000009 0.000008  -0.000027 0.000044 -0.439740
7  0.729357 0.000054 0.000049  0.000017 0.000021 -0.244317
8  3.942138 0.046333 -0.431542  -0.151817 0.073216 -0.811086
9  1.539112 0.000084 0.000003  -0.000007 0.000021 -0.247842
10  1.196331 0.000145 0.000031  0.000011 0.000019 -0.430770
11  3.883508 -0.047211 0.431351  0.085894 0.021858 -0.587909
12  1.719571 -0.000029 0.000016  0.000015 0.005518 -0.366533
13  1.209180 0.000090 0.000010  0.000004 0.003091 -0.216438
14  3.859673 -0.138417 1.332381  0.354466 -0.042717 -0.531784
15  1.719448 -0.000018 0.000031  0.000028 0.004066 -0.363025
16  1.099675 0.000048 0.000004  0.000003 0.002578 -0.244381
17  0.806008 -0.349036 1.321249  -1.222694 -0.679188 -0.788867
18  1.789819 -0.000002 -0.000019  0.000011 -0.000024 0.228523
19  1.207015 -0.000016 -0.000045  0.000002 -0.000008 0.362856
20  5.740635 0.000386 -0.000701  0.084660 0.000003 0.000063
21  11.481190 0.000300 -0.000727  0.101467 0.017100 0.072554
22  6.027524 -0.000329 0.000202  -0.975663 -2.217705 -1.504468
23  0.000000 11.692100 -0.000006  -0.614340 -0.164694 -0.508954
24  0.000006 0.000008 -0.000000  -0.121332 -0.000031 1.570739
25  0.000001 -0.000012 -0.000001  0.868960 0.000002 1.570712
26  -8.393617 -6.005292 -1.937599  1.473120 1.855075 -0.198639
27  6.027509 -0.000257 -0.000230  0.763168 0.350915 -0.816788
28  11.691992 0.000162 0.000858  0.636696 0.000001 -0.547406
29  11.480382 0.000475 0.000664  -1.666802 0.295139 -0.142130
30  3.859437 -0.132759 1.193063  0.406970 -0.281773 -0.608981
31  1.312560 0.000027 -0.000002  -0.000000 -0.000045 -0.148960
32  0.729348 0.000063 -0.000027  -0.000028 -0.000012 0.046463
33  3.942049 0.050138 0.430999  0.121278 -0.118788 -0.520704
34  1.539098 0.000006 0.000001  0.000007 -0.000009 0.042924
35  1.196307 0.000077 -0.000004  -0.000009 -0.000007 -0.140033
36  3.883414 -0.050473 -0.431086  -0.089865 -0.000691 -0.298015
37  1.719563 -0.000085 -0.000005  -0.002289 -0.007626 -0.075729
38  1.209196 0.000036 0.000011  -0.001277 -0.004274 0.074338
39  3.859590 -0.149082 -1.331322  -0.330196 0.136796 -0.257123
40  1.719414 -0.000098 -0.000035  -0.001916 -0.006299 -0.072275
41  1.099673 0.000023 0.000006  -0.001196 -0.004014 0.046404
42  0.805983 -0.359849 -1.318339  1.079795 0.646453 -0.910428
43  1.789780 -0.000008 -0.000043  0.011966 0.001552 -0.110980
44  1.206997 -0.000003 0.000005  0.005321 0.005317 0.007331
45  5.740572 0.000077 0.000719  -0.049002 -0.000014 0.000028
46  11.481021 0.000167 0.000878  -0.018802 0.038256 -0.034820
47  6.027515 -0.000271 -0.000228  -1.404939 -1.214846 -0.993557
48  -0.000001 11.691975 -0.000008  -0.409884 0.072127 0.343615
49  0.000003 0.000001 0.000001  2.909278 -0.000036 1.570860
50  -0.000007 -0.000015 0.000004  2.272645 -0.000036 1.570861
51  -12.080094 -2.607073 -28.354927  -0.668265 2.441716 1.352336
52  -0.000000 0.000001 -0.000000  0.008153 -0.000259 0.000009
53  0.000000 0.000000 -0.000000  1.565115 0.043565 -0.106862
54  10.245171 -5.342162 -23.366718  0.255881 0.766400 -1.766008
55  0.000002 0.000000 0.000001  0.000000 -0.000001 -0.000002
56  0.000032 0.000029 0.000001  -1.571901 -0.044449 -0.106509
57  14.062574 -12.874806 -32.482468  1.570796 -0.000000 0.000000
58  -15.417985 2.938832 -23.313402  1.570796 -0.000000 0.000000
59  1.941978 10.912449 -8.327020  1.570796 -0.000000 0.000000
60  -0.004311 0.001229 -0.000372  0.006898 -0.005534 -0.284229
61  -1.937603 7.403047 -7.191051  1.570796 -0.000000 0.000000
62  0.000000 0.000000 0.000000  -0.078727 -3.136056 0.284226
63  0.000000 0.000000 0.000000  1.570796 -0.000000 0.000000
64  -2.762233 -32.432926 -0.819312  1.570796 -0.000000 1.570796
65  -0.000004 1.459181 2.741114  0.000000 -0.000000 0.000000
66  -0.000004 1.699923 0.973997  0.000000 -0.000000 0.000000
67  -0.000004 2.151127 1.118580  0.000000 -0.000000 0.000000
68  -0.000004 1.691831 -0.423392  -0.876616 0.001126 0.000617
69  -0.190811 1.634964 3.156577  0.029475 0.000000 -0.000000
70  -0.000003 2.606070 7.210410  -0.035921 -0.000000 0.000000
71  -1.788236 -32.432922 0.880611  1.570796 -0.000000 1.570796
72  -0.068592 -0.065953 -0.011620  0.000000 -0.000000 0.000000
73  -0.137665 -0.609178 -0.193564  0.000000 -0.000000 0.000000
time 1
0  0.000006 0.000000 0.000000  -1.570800 -1.391899 -1.570792
1  -10.128283 -9.221152 1.937670  -1.544956 -1.855077 -0.198630
2  6.027518 -0.000322 0.000196  -1.232031 -0.485950 -0.827535
3  11.692114 0.000643 -0.000739  -0.990403 0.000002 -0.949650
4  11.479644 0.000365 -0.000777  2.134501 -0.083703 0.447518
5  3.666627 -0.163905 -1.204802  -0.464177 0.152311 -0.880646
6  1.312588 0.000012 0.000009  -0.000028 0.000067 -0.426984
7  0.729356 0.000054 0.000050  0.000014 0.000048 -0.233543
8  3.942140 0.046331 -0.431542  -0.149230 0.073347 -0.811106
9  1.539111 0.000085 0.000003  0.000012 0.000028 -0.240555
10  1.196331 0.000146 0.000031  0.000011 0.000019 -0.424923
11  3.883512 -0.047213 0.431348  0.086828 0.022046 -0.587893
12  1.719572 -0.000030 0.000018  0.000032 0.005516 -0.359312
13  1.209178 0.000089 0.000012  0.000004 0.003091 -0.216540
14  3.859675 -0.138418 1.332380  0.352627 -0.042576 -0.531732
15  1.719447 -0.000018 0.000027  0.000094 0.003990 -0.346869
16  1.099676 0.000049 0.000009  0.000003 0.002578 -0.244453
17  0.796907 -0.350182 1.323596  -1.222694 -0.679188 -0.788867
18  1.789818 -0.000001 -0.000017  0.000011 -0.000024 0.228523
19  1.207016 -0.000015 -0.000043  0.000002 -0.000008 0.362856
20  5.740635 0.000390 -0.000699  0.094090 0.000003 0.000063
21  11.480941 0.000248 -0.000809  0.113745 0.026947 0.089609
22  6.027524 -0.000330 0.000202  2.334510 -0.867745 1.415940
23  0.000000 11.692099 -0.000008  -0.687601 -0.207641 -0.566305
24  0.000005 0.000009 0.000000  -0.121333 -0.000031 1.570739
25  -0.000001 -0.000013 -0.000001  0.868960 0.000002 1.570712
26  -8.360491 -6.110139 -1.876315  1.473120 1.855075 -0.198639
27  6.027510 -0.000258 -0.000231  0.963998 0.243160 -0.720540
28  11.691989 0.000163 0.000856  0.625805 0.000009 -0.809634
29  11.480088 0.000321 0.000779  -1.741337 0.289543 -0.087044
30  3.856142 -0.139442 1.190932  0.406970 -0.281773 -0.608982
31  1.312557 0.000025 -0.000002  -0.000000 -0.000045 -0.148960
32  0.729345 0.000063 -0.000028  -0.000028 -0.000012 0.046463
33  3.939360 0.045599 0.428713  0.121278 -0.118788 -0.520704
34  1.539097 0.000005 0.000002  0.000007 -0.000009 0.042924
35  1.196300 0.000078 -0.000002  -0.000009 -0.000007 -0.140032
36  3.883391 -0.053163 -0.430768  -0.089865 -0.000691 -0.298015
37  1.719564 -0.000085 -0.000006  -0.002288 -0.007626 -0.075728
38  1.209198 0.000034 0.000012  -0.001277 -0.004274 0.074338
39  3.859590 -0.149081 -1.331320  -0.330196 0.136796 -0.257123
40  1.719414 -0.000099 -0.000033  -0.001916 -0.006299 -0.072275
41  1.099675 0.000023 0.000004  -0.001196 -0.004014 0.046404
42  0.786012 -0.375296 -1.310308  1.081260 0.640679 -0.901767
43  1.789781 -0.000006 -0.000041  0.009220 0.001062 -0.110890
44  1.206997 -0.000006 0.000004  0.004523 0.005045 0.007347
45  5.740573 0.000081 0.000721  -0.065282 -0.000014 0.000028
46  11.480963 0.000141 0.000900  -0.034242 0.036809 -0.021194
47  6.027515 -0.000272 -0.000229  -0.763452 -1.215196 -1.560139
48  -0.000001 11.691975 -0.000006  -0.593786 0.153579 0.492696
49  0.000002 -0.000000 -0.000001  2.898369 -0.000036 1.570860
50  -0.000007 -0.000014 0.000005  2.272645 -0.000036 1.570861
51  -12.694833 -2.718401 -26.846565  -0.590038 2.511942 1.363671
52  0.000003 -0.000000 -0.000001  0.008153 -0.000259 0.000009
53  0.000000 0.000001 -0.000001  1.565115 0.043565 -0.106862
54  10.198836 -5.478943 -22.351908  0.154595 0.713102 -1.865405
55  -0.000002 -0.000000 -0.000003  0.000000 -0.000001 -0.000002
56  0.000029 0.000030 -0.000004  -1.571902 -0.044449 -0.106509
57  14.297110 -13.022662 -32.144703  1.570796 -0.000000 0.000000
58  -15.417985 2.962374 -23.298515  1.570796 -0.000000 0.000000
59  1.941978 10.875887 -8.327020  1.570796 -0.000000 0.000000
60  -0.004311 0.001229 -0.000372  0.006898 -0.005534 -0.284229
61  -1.876319 7.500325 -7.139796  1.570796 -0.000000 0.000000
62  0.000000 0.000000 0.000000  -0.078727 -3.136056 0.284226
63  0.000000 0.000000 0.000000  1.570808 0.000845 0.000004
64  -2.738532 -31.863605 -0.894803  1.570801 0.000004 1.531152
65  -0.000000 1.459181 2.741115  0.000000 -0.000000 0.000000
66  0.000002 1.699923 0.973997  0.000000 -0.000000 0.000000
67  -0.000000 2.151127 1.118581  0.000000 -0.000000 0.000000
68  0.000000 1.691831 -0.423392  -0.876616 0.001126 0.000617
69  -0.190806 1.634965 3.156577  0.029475 0.000000 -0.000000
70  0.000003 2.606070 7.210410  -0.035921 -0.000000 0.000000
71  -1.765293 -31.902201 0.805116  1.570801 0.000004 1.531152
72  -0.068590 -0.065953 -0.011620  0.000000 -0.000000 0.000000
73  -0.137662 -0.609178 -0.193563  0.000000 -0.000000 0.000000
time 2
0  0.000006 0.000000 0.000000  -1.570800 -1.391899 -1.570792
1  -10.108702 -9.112871 1.937670  -1.544956 -1.855077 -0.198630
2  6.027518 -0.000322 0.000197  -1.406462 -0.473802 -0.864701
3  11.692111 0.000644 -0.000739  -0.990417 -0.000007 -1.181441
4  11.480304 0.000460 -0.000626  2.085319 -0.000801 0.612710
5  3.666629 -0.163902 -1.204801  -0.447926 0.168547 -0.855139
6  1.312590 0.000011 0.000006  -0.000037 0.000251 -0.388607
7  0.729355 0.000052 0.000049  -0.000011 0.000129 -0.201153
8  3.942142 0.046332 -0.431541  -0.139292 0.078600 -0.782534
9  1.539109 0.000083 0.000005  0.000070 0.000084 -0.218672
10  1.196333 0.000146 0.000028  0.000006 0.000021 -0.407381
11  3.883512 -0.047211 0.431350  0.090171 0.021146 -0.562748
12  1.719571 -0.000028 0.000021  0.000084 0.005498 -0.337630
13  1.209179 0.000090 0.000013  0.000003 0.003090 -0.217355
14  3.859677 -0.138417 1.332380  0.345833 -0.046607 -0.517171
15  1.719447 -0.000018 0.000031  0.000288 0.003755 -0.298179
16  1.099675 0.000047 0.000006  0.000001 0.002578 -0.245023
17  0.769590 -0.353609 1.330652  -1.248107 -0.666208 -0.747782
18  1.789820 -0.000002 -0.000018  -0.000246 -0.000093 0.205811
19  1.207015 -0.000013 -0.000044  -0.000807 -0.000441 0.345879
20  5.740636 0.000387 -0.000701  0.092383 0.000003 0.000064
21  11.481074 0.000268 -0.000781  0.098698 0.047872 0.117817
22  6.027524 -0.000329 0.000202  2.472057 -0.744992 1.198542
23  0.000001 11.692100 -0.000007  -0.836219 -0.310912 -0.678121
24  0.000003 0.000009 0.000001  -0.121333 -0.000030 1.570739
25  0.000001 -0.000011 -0.000001  0.868960 0.000002 1.570712
26  -8.260792 -6.425684 -1.691874  1.473120 1.855075 -0.198639
27  6.027511 -0.000258 -0.000228  1.493055 0.057105 -0.747174
28  11.691990 0.000161 0.000858  0.592914 0.000029 -1.232568
29  11.479693 -0.000006 0.000989  -1.917393 0.136477 0.076630
30  3.846222 -0.159556 1.184515  0.406970 -0.281773 -0.608982
31  1.312560 0.000026 -0.000001  -0.000000 -0.000045 -0.148960
32  0.729345 0.000065 -0.000027  -0.000027 -0.000012 0.046463
33  3.931268 0.031940 0.421837  0.121278 -0.118788 -0.520704
34  1.539096 0.000006 -0.000004  0.000007 -0.000009 0.042924
35  1.196302 0.000077 -0.000004  -0.000009 -0.000007 -0.140033
36  3.883326 -0.061265 -0.429814  -0.089865 -0.000691 -0.298015
37  1.719565 -0.000086 -0.000006  -0.002288 -0.007626 -0.075729
38  1.209199 0.000035 0.000013  -0.001277 -0.004274 0.074338
39  3.859586 -0.149082 -1.331320  -0.330196 0.136796 -0.257123
40  1.719413 -0.000098 -0.000035  -0.001916 -0.006299 -0.072275
41  1.099673 0.000023 0.000005  -0.001196 -0.004013 0.046404
42  0.726403 -0.421414 -1.286330  1.085297 0.623578 -0.875580
43  1.789781 -0.000009 -0.000042  0.000948 -0.000508 -0.110121
44  1.206996 -0.000008 0.000005  0.002256 0.003595 0.007492
45  5.740574 0.000080 0.000720  -0.070889 -0.000014 0.000028
46  11.480885 0.000076 0.000942  -0.070189 0.002084 0.013498
47  6.027516 -0.000274 -0.000228  -0.080181 -0.777986 -2.261704
48  -0.000000 11.691972 -0.000004  -0.867930 0.335722 0.701063
49  0.000001 0.000000 0.000001  2.865455 -0.000036 1.570860
50  -0.000006 -0.000014 0.000006  2.272645 -0.000036 1.570861
51  -14.081156 -3.082222 -22.689911  -0.395887 2.713333 1.365126
52  0.000000 -0.000000 -0.000000  0.008153 -0.000259 0.000009
53  -0.000001 0.000001 0.000002  1.565115 0.043565 -0.106862
54  9.906859 -5.881890 -19.480747  -0.071698 0.525029 -2.072363
55  -0.000001 0.000001 -0.000001  0.000000 -0.000001 -0.000002
56  0.000030 0.000030 0.000001  -1.571901 -0.044449 -0.106509
57  14.910593 -13.467643 -31.128174  1.570796 -0.000000 0.000000
58  -15.417985 3.033225 -23.253716  1.570796 -0.000000 0.000000
59  1.941978 10.765850 -8.327020  1.570796 -0.000000 0.000000
60  -0.004311 0.001229 -0.000372  0.006898 -0.005534 -0.284229
61  -1.691878 7.793094 -6.985539  1.570796 -0.000000 0.000000
62  0.000000 0.000000 0.000000  -0.078727 -3.136056 0.284226
63  0.000000 0.000000 0.000000  1.570840 0.002861 0.000016
64  -2.674201 -30.312923 -1.101246  1.570830 0.000037 1.420472
65  0.000002 1.459181 2.741115  -0.000000 -0.000000 -0.000000
66  0.000003 1.699923 0.973997  -0.000000 -0.000000 -0.000000
67  0.000003 2.151127 1.118581  -0.000000 -0.000000 -0.000000
68  0.000001 1.691831 -0.423391  -0.876616 0.001126 0.000617
69  -0.190806 1.634964 3.156577  0.029475 0.000000 -0.000000
70  0.000002 2.606070 7.210410  -0.035921 -0.000000 0.000000
71  -1.711123 -30.458733 0.598644  1.570830 0.000037 1.420472
72  -0.068588 -0.065953 -0.011620  -0.000000 -0.000000 -0.000000
73  -0.137659 -0.609178 -0.193563  -0.000000 -0.000000 -0.000000
time 3
0  0.000006 0.000000 0.000000  -1.570800 -1.391899 -1.570792
1  -10.076865 -8.936813 1.937670  -1.544956 -1.855077 -0.198630
2  6.027518 -0.000323 0.000195  -1.473600 -0.561702 -0.851101
3  11.692107 0.000645 -0.000737  -0.990426 -0.000016 -1.355570
4  11.480132 0.000381 -0.000750  1.833026 0.078684 0.646637
5  3.666627 -0.163903 -1.204802  -0.417617 0.203260 -0.797687
6  1.312590 0.000009 0.000008  -0.000046 0.000823 -0.326713
7  0.729356 0.000053 0.000048  -0.000088 0.000264 -0.148983
8  3.942140 0.046330 -0.431542  -0.121456 0.090322 -0.719533
9  1.539111 0.000082 0.000004  0.000168 0.000257 -0.183485
10  1.196332 0.000144 0.000028  -0.000010 0.000028 -0.379215
11  3.883510 -0.047213 0.431351  0.095819 0.019944 -0.507358
12  1.719572 -0.000029 0.000017  0.000166 0.005442 -0.302767
13  1.209179 0.000092 0.000013  0.000003 0.003088 -0.219885
14  3.859676 -0.138419 1.332380  0.332824 -0.054149 -0.484683
15  1.719448 -0.000019 0.000029  0.000584 0.003356 -0.219437
16  1.099675 0.000048 0.000005  -0.000003 0.002578 -0.246792
17  0.725730 -0.359117 1.341978  -1.301004 -0.634191 -0.659738
18  1.789819 -0.000004 -0.000017  -0.000824 -0.000265 0.155735
19  1.207015 -0.000011 -0.000043  -0.002561 -0.001442 0.308545
20  5.740634 0.000389 -0.000697  0.063987 0.000003 0.000064
21  11.481037 0.000254 -0.000804  0.044396 0.050724 0.120120
22  6.027524 -0.000329 0.000201  2.407511 -0.651788 1.220428
23  0.000000 11.692099 -0.000005  -0.943131 -0.398219 -0.753519
24  0.000003 0.000008 0.000000  -0.121332 -0.000031 1.570739
25  0.000000 -0.000011 0.000001  0.868960 0.000002 1.570712
26  -8.098690 -6.938742 -1.391983  1.473120 1.855075 -0.198639
27  6.027511 -0.000257 -0.000226  1.873500 0.118110 -0.831736
28  11.691993 0.000162 0.000856  0.539174 0.000048 -1.486032
29  11.480394 0.000164 0.000855  -1.879677 0.041166 0.278680
30  3.830096 -0.192261 1.174075  0.406971 -0.281773 -0.608982
31  1.312558 0.000027 -0.000002  -0.000000 -0.000045 -0.148960
32  0.729349 0.000065 -0.000026  -0.000027 -0.000012 0.046463
33  3.918118 0.009727 0.410652  0.121278 -0.118788 -0.520704
34  1.539099 0.000006 -0.000002  0.000007 -0.000009 0.042924
35  1.196299 0.000077 -0.000003  -0.000009 -0.000007 -0.140033
36  3.883222 -0.074438 -0.428266  -0.089865 -0.000691 -0.298015
37  1.719563 -0.000084 -0.000003  -0.002289 -0.007626 -0.075729
38  1.209196 0.000035 0.000010  -0.001277 -0.004274 0.074338
39  3.859588 -0.149082 -1.331320  -0.330196 0.136796 -0.257123
40  1.719414 -0.000099 -0.000035  -0.001916 -0.006299 -0.072275
41  1.099673 0.000023 0.000009  -0.001196 -0.004014 0.046404
42  0.632560 -0.494016 -1.248590  1.090603 0.596964 -0.833652
43  1.789780 -0.000006 -0.000042  -0.012269 -0.003229 -0.107679
44  1.206997 -0.000008 0.000005  -0.001031 -0.000261 0.007967
45  5.740572 0.000080 0.000719  -0.061709 -0.000014 0.000028
46  11.481022 0.000106 0.000914  -0.060595 -0.021516 0.050412
47  6.027514 -0.000273 -0.000229  -0.128090 -0.396216 -2.352940
48  -0.000000 11.691979 -0.000006  -1.021120 0.468224 0.805052
49  0.000001 -0.000000 0.000002  2.811707 -0.000036 1.570860
50  -0.000007 -0.000013 0.000004  2.272645 -0.000036 1.570861
51  -14.869396 -3.641974 -17.963478  -0.205894 2.944917 1.330962
52  -0.000000 0.000001 -0.000003  0.008153 -0.000259 0.000009
53  0.000000 0.000000 0.000000  1.565115 0.043565 -0.106862
54  9.154095 -6.406693 -16.024946  -0.252222 0.272908 -2.188857
55  0.000001 -0.000001 0.000001  0.000000 -0.000001 -0.000002
56  0.000031 0.000027 0.000003  -1.571901 -0.044449 -0.106509
57  15.524076 -14.191157 -29.475353  1.570796 -0.000000 0.000000
58  -15.417985 3.148425 -23.180872  1.570796 -0.000000 0.000000
59  1.941978 10.586937 -8.327020  1.570796 -0.000000 0.000000
60  -0.004311 0.001229 -0.000372  0.006898 -0.005534 -0.284229
61  -1.391987 8.269119 -6.734729  1.570796 -0.000000 0.000000
62  0.000000 0.000000 0.000000  -0.078727 -3.136056 0.284226
63  0.000000 0.000000 0.000000  1.570886 0.005267 0.000034
64  -2.579397 -28.016806 -1.408595  1.570901 0.000137 1.249971
65  0.000002 1.459181 2.741115  0.000000 0.000000 0.000000
66  0.000001 1.699923 0.973998  0.000000 0.000000 0.000000
67  -0.000000 2.151127 1.118582  0.000000 0.000000 0.000000
68  0.000000 1.691831 -0.423391  -0.876616 0.001126 0.000617
69  -0.190807 1.634964 3.156578  0.029475 0.000000 -0.000000
70  -0.000001 2.606070 7.210411  -0.035921 0.000000 0.000000
71  -1.654857 -28.323792 0.291226  1.570901 0.000137 1.249971
72  -0.068591 -0.065953 -0.011619  0.000000 0.000000 0.000000
73  -0.137660 -0.609178 -0.193563  0.000000 0.000000 0.000000
time 4
0  0.000006 0.000000 0.000000  -1.570800 -1.391899 -1.570792
1  -10.035225 -8.706539 1.937670  -1.544956 -1.855077 -0.198630
2  6.027518 -0.000322 0.000193  -1.455124 -0.685707 -0.795749
3  11.692109 0.000642 -0.000740  -0.990429 -0.000020 -1.425741
4  11.479720 0.000255 -0.000938  1.580276 0.001577 0.563618
5  3.666627 -0.163904 -1.204803  -0.376479 0.246960 -0.727248
6  1.312590 0.000011 0.000008  -0.000001 0.002062 -0.247651
7  0.729355 0.000053 0.000050  -0.000254 0.000448 -0.082422
8  3.942140 0.046331 -0.431544  -0.097859 0.106065 -0.643071
9  1.539111 0.000082 0.000005  0.000310 0.000631 -0.138664
10  1.196333 0.000145 0.000031  -0.000044 0.000044 -0.343394
11  3.883510 -0.047213 0.431349  0.103098 0.021574 -0.439922
12  1.719573 -0.000029 0.000018  0.000264 0.005322 -0.258359
13  1.209179 0.000090 0.000012  0.000002 0.003083 -0.225365
14  3.859676 -0.138418 1.332379  0.313331 -0.059203 -0.443955
15  1.719449 -0.000017 0.000028  0.000931 0.002811 -0.118598
16  1.099675 0.000048 0.000006  -0.000013 0.002578 -0.250623
17  0.669934 -0.366122 1.356383  -1.359012 -0.589534 -0.557855
18  1.789818 -0.000003 -0.000017  -0.001540 -0.000516 0.094891
19  1.207016 -0.000013 -0.000045  -0.004634 -0.002742 0.263317
20  5.740637 0.000389 -0.000698  0.020282 0.000003 0.000063
21  11.480957 0.000231 -0.000841  0.000155 0.021533 0.102659
22  6.027524 -0.000329 0.000201  2.267198 -0.599975 1.368904
23  -0.000000 11.692099 -0.000009  -0.985295 -0.435436 -0.781756
24  0.000002 0.000009 0.000000  -0.121332 -0.000031 1.570739
25  -0.000000 -0.000012 -0.000000  0.868960 0.000002 1.570712
26  -7.886667 -7.609799 -0.999740  1.473120 1.855075 -0.198639
27  6.027513 -0.000258 -0.000224  1.905908 0.244740 -0.786111
28  11.691993 0.000160 0.000859  0.468560 0.000051 -1.560131
29  11.479815 -0.000209 0.001022  -1.710905 0.102505 0.331726
30  3.809001 -0.235039 1.160424  0.406970 -0.281773 -0.608982
31  1.312559 0.000028 -0.000001  -0.000000 -0.000045 -0.148960
32  0.729347 0.000065 -0.000029  -0.000027 -0.000012 0.046463
33  3.900913 -0.019324 0.396022  0.121278 -0.118788 -0.520704
34  1.539095 0.000006 -0.000002  0.000007 -0.000009 0.042924
35  1.196301 0.000079 -0.000005  -0.000009 -0.000007 -0.140032
36  3.883085 -0.091665 -0.426239  -0.089865 -0.000691 -0.298015
37  1.719563 -0.000086 -0.000004  -0.002289 -0.007626 -0.075729
38  1.209196 0.000035 0.000010  -0.001277 -0.004274 0.074338
39  3.859587 -0.149083 -1.331321  -0.330196 0.136796 -0.257123
40  1.719413 -0.000097 -0.000036  -0.001916 -0.006299 -0.072275
41  1.099674 0.000024 0.000007  -0.001196 -0.004014 0.046404
42  0.518243 -0.582457 -1.202616  1.095400 0.565253 -0.781040
43  1.789779 -0.000007 -0.000042  -0.028744 -0.006974 -0.102375
44  1.206996 -0.000008 0.000006  -0.004508 -0.007922 0.009016
45  5.740573 0.000081 0.000721  -0.030389 -0.000014 0.000028
46  11.480907 0.000034 0.000949  -0.028637 -0.005473 0.059136
47  6.027515 -0.000273 -0.000229  -0.261428 -0.355332 -2.264167
48  -0.000000 11.691975 -0.000007  -1.064904 0.509550 0.832333
49  0.000003 -0.000001 0.000002  2.741090 -0.000036 1.570860
50  -0.000007 -0.000014 0.000005  2.272645 -0.000036 1.570861
51  -13.974303 -4.247921 -15.016747  -0.121642 3.091568 1.313502
52  0.000000 0.000000 -0.000000  0.008153 -0.000259 0.000009
53  -0.000001 0.000001 0.000000  1.565115 0.043565 -0.106862
54  7.944530 -6.851090 -13.534251  -0.335907 0.125933 -2.157472
55  0.000000 0.000001 -0.000001  0.000000 -0.000001 -0.000002
56  0.000031 0.000030 0.000000  -1.571901 -0.044449 -0.106509
57  15.758612 -15.137479 -27.313545  1.570796 -0.000000 0.000000
58  -15.417985 3.299099 -23.085596  1.570796 -0.000000 0.000000
59  1.941978 10.352928 -8.327020  1.570796 -0.000000 0.000000
60  -0.004311 0.001229 -0.000372  0.006898 -0.005534 -0.284229
61  -0.999744 8.891738 -6.406679  1.570796 -0.000000 0.000000
62  0.000000 0.000000 0.000000  -0.078727 -3.136056 0.284226
63  0.000000 0.000000 0.000000  1.570940 0.007282 0.000058
64  -2.464278 -25.211166 -1.786803  1.571012 0.000355 1.033651
65  -0.000002 1.459181 2.741115  -0.000000 -0.000000 0.000000
66  0.000000 1.699923 0.973998  -0.000000 -0.000000 0.000000
67  -0.000001 2.151127 1.118581  -0.000000 -0.000000 0.000000
68  -0.000001 1.691831 -0.423391  -0.876616 0.001126 0.000617
69  -0.190805 1.634964 3.156576  0.029475 -0.000000 -0.000000
70  -0.000001 2.606070 7.210410  -0.035921 -0.000000 0.000000
71  -1.626822 -25.709213 -0.087090  1.571012 0.000355 1.033651
72  -0.068589 -0.065953 -0.011619  -0.000000 -0.000000 0.000000
73  -0.137660 -0.609178 -0.193563  -0.000000 -0.000000 0.000000
time 5
0  0.000006 0.000000 0.000000  -1.570800 -1.391899 -1.570792
1  -9.988052 -8.445676 1.937670  -1.544956 -1.855077 -0.198630
2  6.027517 -0.000324 0.000193  -1.407012 -0.814829 -0.734427
3  11.692108 0.000645 -0.000737  -0.990430 -0.000022 -1.454475
4  11.479395 0.000154 -0.001098  1.371365 -0.237974 0.488678
5  3.666628 -0.163903 -1.204803  -0.329132 0.294770 -0.655376
6  1.312590 0.000012 0.000008  0.000200 0.004231 -0.162206
7  0.729356 0.000055 0.000048  -0.000546 0.000673 -0.010525
8  3.942140 0.046331 -0.431543  -0.071092 0.125272 -0.565473
9  1.539111 0.000082 0.000004  0.000503 0.001287 -0.090281
10  1.196333 0.000145 0.000029  -0.000103 0.000073 -0.304761
11  3.883511 -0.047211 0.431351  0.111598 0.028582 -0.370908
12  1.719574 -0.000029 0.000017  0.000358 0.005112 -0.210422
13  1.209180 0.000090 0.000012  -0.000000 0.003075 -0.234996
14  3.859678 -0.138417 1.332380  0.287916 -0.057462 -0.400562
15  1.719449 -0.000018 0.000028  0.001267 0.002181 -0.009508
16  1.099675 0.000048 0.000006  -0.000031 0.002577 -0.257357
17  0.609736 -0.373679 1.371929  -1.410560 -0.538167 -0.460225
18  1.789819 -0.000004 -0.000016  -0.002287 -0.000818 0.033083
19  1.207017 -0.000013 -0.000043  -0.006674 -0.004154 0.217448
20  5.740635 0.000389 -0.000699  -0.034463 0.000003 0.000063
21  11.480888 0.000209 -0.000872  -0.028910 -0.034643 0.080898
22  6.027523 -0.000330 0.000201  2.119364 -0.549714 1.543610
23  -0.000001 11.692100 -0.000007  -1.002437 -0.450983 -0.792956
24  0.000002 0.000008 0.000000  -0.121332 -0.000030 1.570739
25  -0.000002 -0.000011 -0.000000  0.868960 0.000002 1.570712
26  -7.646480 -8.369997 -0.555393  1.473120 1.855075 -0.198639
27  6.027513 -0.000258 -0.000224  1.806839 0.379544 -0.727072
28  11.691993 0.000159 0.000858  0.388328 0.000055 -1.590360
29  11.479594 -0.000408 0.001054  -1.571790 0.239146 0.373042
30  3.785106 -0.283497 1.144956  0.406971 -0.281773 -0.608982
31  1.312560 0.000029 -0.000000  -0.000000 -0.000045 -0.148960
32  0.729346 0.000065 -0.000029  -0.000028 -0.000012 0.046463
33  3.881426 -0.052235 0.379448  0.121278 -0.118788 -0.520704
34  1.539095 0.000004 -0.000001  0.000007 -0.000009 0.042924
35  1.196301 0.000078 -0.000004  -0.000009 -0.000007 -0.140032
36  3.882928 -0.111182 -0.423945  -0.089865 -0.000691 -0.298015
37  1.719564 -0.000083 -0.000004  -0.002289 -0.007626 -0.075729
38  1.209196 0.000036 0.000011  -0.001277 -0.004274 0.074338
39  3.859586 -0.149083 -1.331323  -0.330196 0.136796 -0.257123
40  1.719413 -0.000097 -0.000037  -0.001916 -0.006299 -0.072275
41  1.099672 0.000024 0.000007  -0.001196 -0.004014 0.046404
42  0.403927 -0.670898 -1.156640  1.098535 0.534959 -0.725216
43  1.789779 -0.000007 -0.000041  -0.045857 -0.011383 -0.093223
44  1.206995 -0.000005 0.000006  -0.007125 -0.020499 0.010847
45  5.740573 0.000077 0.000721  0.005661 -0.000014 0.000028
46  11.480864 -0.000009 0.000957  -0.005998 0.025909 0.064434
47  6.027516 -0.000272 -0.000229  -0.419906 -0.430366 -2.113792
48  -0.000002 11.691979 -0.000008  -1.082683 0.526705 0.843046
49  0.000003 -0.000002 -0.000000  2.660860 -0.000036 1.570860
50  -0.000007 -0.000012 0.000004  2.272645 -0.000036 1.570861
51  -11.676528 -4.858294 -12.897934  -0.119905 -3.097320 1.316653
52  -0.000000 -0.000002 -0.000000  0.008153 -0.000259 0.000009
53  0.000000 -0.000000 -0.000000  1.565115 0.043565 -0.106862
54  6.408049 -7.120312 -11.717345  -0.392841 0.057575 -2.004515
55  -0.000000 -0.000000 -0.000001  0.000000 -0.000001 -0.000002
56  0.000030 0.000028 0.000001  -1.571901 -0.044449 -0.106509
57  15.526468 -16.209511 -24.864563  1.570796 -0.000000 0.000000
58  -15.417984 3.469790 -22.977665  1.570796 -0.000000 0.000000
59  1.941978 10.087833 -8.327020  1.570796 -0.000000 0.000000
60  -0.004311 0.001229 -0.000372  0.006898 -0.005534 -0.284229
61  -0.555397 9.597063 -6.035052  1.570796 -0.000000 0.000000
62  0.000000 0.000000 0.000000  -0.078727 -3.136056 0.284226
63  0.000000 0.000000 0.000000  1.570997 0.008128 0.000085
64  -2.339002 -22.131935 -2.205823  1.571133 0.000745 0.791758
65  0.000000 1.459181 2.741115  -0.000000 -0.000000 -0.000000
66  0.000003 1.699923 0.973999  -0.000000 -0.000000 -0.000000
67  0.000001 2.151127 1.118583  -0.000000 -0.000000 -0.000000
68  0.000001 1.691831 -0.423391  -0.876616 0.001126 0.000617
69  -0.190807 1.634964 3.156578  0.029475 -0.000000 -0.000000
70  0.000001 2.606070 7.210412  -0.035921 -0.000000 0.000000
71  -1.644618 -22.815762 -0.506229  1.571133 0.000745 0.791758
72  -0.068590 -0.065953 -0.011620  -0.000000 -0.000000 -0.000000
73  -0.137659 -0.609178 -0.193563  -0.000000 -0.000000 -0.000000
time 6
0  0.000006 0.000000 0.000000  -1.570800 -1.391899 -1.570792
1  -9.940881 -8.184812 1.937670  -1.544956 -1.855077 -0.198630
2  6.027519 -0.000325 0.000193  -1.364926 -0.970522 -0.700970
3  11.692110 0.000644 -0.000738  -0.990430 -0.000021 -1.439106
4  11.479649 0.000239 -0.000969  1.201795 -0.530875 0.473192
5  3.666627 -0.163903 -1.204803  -0.281503 0.344220 -0.590625
6  1.312589 0.000010 0.000009  0.000664 0.007479 -0.083137
7  0.729356 0.000054 0.000049  -0.000993 0.000929 0.056036
8  3.942139 0.046332 -0.431543  -0.044056 0.148265 -0.495069
9  1.539111 0.000083 0.000004  0.000749 0.002278 -0.045459
10  1.196332 0.000145 0.000028  -0.000192 0.000121 -0.268952
11  3.883509 -0.047211 0.431351  0.121049 0.042777 -0.307273
12  1.719573 -0.000028 0.000017  0.000425 0.004800 -0.166014
13  1.209178 0.000090 0.000012  -0.000003 0.003063 -0.249563
14  3.859676 -0.138417 1.332379  0.258096 -0.046130 -0.358602
15  1.719448 -0.000018 0.000028  0.001551 0.001561 0.091331
16  1.099676 0.000048 0.000006  -0.000057 0.002577 -0.267539
17  0.553939 -0.380683 1.386337  -1.450718 -0.486364 -0.376668
18  1.789820 -0.000003 -0.000017  -0.003001 -0.001138 -0.022946
19  1.207016 -0.000013 -0.000043  -0.008467 -0.005515 0.175839
20  5.740636 0.000389 -0.000699  -0.089849 0.000003 0.000063
21  11.480936 0.000226 -0.000845  -0.046229 -0.098043 0.061372
22  6.027524 -0.000330 0.000202  1.969608 -0.461442 1.682646
23  0.000001 11.692099 -0.000006  -0.993276 -0.442645 -0.786992
24  0.000005 0.000008 -0.000000  -0.121332 -0.000030 1.570739
25  0.000001 -0.000012 0.000001  0.868960 0.000002 1.570712
26  -7.406291 -9.130193 -0.111046  1.473120 1.855075 -0.198639
27  6.027512 -0.000258 -0.000223  1.714770 0.598481 -0.680568
28  11.691994 0.000160 0.000857  0.308097 0.000055 -1.583706
29  11.479643 -0.000465 0.001009  -1.475930 0.393224 0.491648
30  3.761209 -0.331956 1.129491  0.406971 -0.281773 -0.608982
31  1.312559 0.000029 -0.000000  -0.000000 -0.000045 -0.148960
32  0.729344 0.000065 -0.000027  -0.000028 -0.000012 0.046463
33  3.861938 -0.085145 0.362877  0.121278 -0.118788 -0.520704
34  1.539095 0.000005 -0.000003  0.000007 -0.000009 0.042924
35  1.196303 0.000080 -0.000004  -0.000009 -0.000007 -0.140032
36  3.882774 -0.130699 -0.421651  -0.089865 -0.000691 -0.298015
37  1.719565 -0.000084 -0.000004  -0.002288 -0.007626 -0.075729
38  1.209194 0.000033 0.000010  -0.001277 -0.004274 0.074338
39  3.859586 -0.149083 -1.331322  -0.330196 0.136796 -0.257123
40  1.719412 -0.000097 -0.000037  -0.001916 -0.006299 -0.072275
41  1.099673 0.000023 0.000007  -0.001196 -0.004014 0.046404
42  0.310083 -0.743501 -1.118900  1.100163 0.512459 -0.673549
43  1.789780 -0.000007 -0.000042  -0.060903 -0.015988 -0.079839
44  1.206995 -0.000006 0.000005  -0.007979 -0.038358 0.013525
45  5.740572 0.000081 0.000721  0.043614 -0.000014 0.000028
46  11.480872 -0.000018 0.000947  0.004050 0.060079 0.083142
47  6.027515 -0.000272 -0.000230  -0.677051 -0.452717 -1.913363
48  -0.000001 11.691976 -0.000007  -1.078772 0.522914 0.840710
49  0.000004 -0.000001 0.000000  2.580629 -0.000036 1.570860
50  -0.000007 -0.000013 0.000005  2.272645 -0.000036 1.570861
51  -8.602241 -5.535030 -10.167452  -0.147280 -3.005721 1.309995
52  -0.000001 0.000000 0.000000  0.008153 -0.000259 0.000009
53  0.000000 -0.000000 -0.000001  1.565115 0.043565 -0.106862
54  4.699488 -7.373151 -9.942883  -0.460113 0.006038 -1.805281
55  -0.000000 0.000000 0.000000  0.000000 -0.000001 -0.000002
56  0.000030 0.000030 0.000001  -1.571901 -0.044449 -0.106509
57  14.850840 -17.281540 -22.415585  1.570796 -0.000000 0.000000
58  -15.417984 3.640481 -22.869732  1.570796 -0.000000 0.000000
59  1.941978 9.822739 -8.327020  1.570796 -0.000000 0.000000
60  -0.004311 0.001229 -0.000372  0.006898 -0.005534 -0.284229
61  -0.111050 10.302387 -5.663425  1.570796 -0.000000 0.000000
62  0.000000 0.000000 0.000000  -0.078727 -3.136056 0.284226
63  0.000000 0.000000 0.000000  1.571052 0.008041 0.000116
64  -2.213726 -19.015030 -2.635610  1.571215 0.001339 0.549813
65  -0.000000 1.459181 2.741114  0.000000 0.000000 0.000000
66  0.000000 1.699923 0.973999  0.000000 0.000000 0.000000
67  -0.000000 2.151127 1.118581  0.000000 0.000000 0.000000
68  -0.000000 1.691831 -0.423391  -0.876616 0.001126 0.000617
69  -0.190807 1.634964 3.156576  0.029475 0.000000 -0.000000
70  -0.000001 2.606070 7.210410  -0.035921 0.000000 0.000000
71  -1.702472 -19.844898 -0.936097  1.571215 0.001339 0.549813
72  -0.068591 -0.065953 -0.011620  0.000000 0.000000 0.000000
73  -0.137662 -0.609178 -0.193561  0.000000 0.000000 0.000000
time 7
0  0.000006 0.000000 0.000000  -1.570800 -1.391899 -1.570792
1  -9.899240 -7.954538 1.937669  -1.544956 -1.855077 -0.198630
2  6.027521 -0.000326 0.000191  -1.315461 -1.136058 -0.710822
3  11.692109 0.000645 -0.000737  -0.990425 -0.000015 -1.342825
4  11.480218 0.000406 -0.000717  1.123757 -0.655907 0.484135
5  3.666628 -0.163903 -1.204802  -0.239708 0.394059 -0.540169
6  1.312590 0.000010 0.000008  0.001429 0.011816 -0.021231
7  0.729356 0.000054 0.000049  -0.001608 0.001200 0.108206
8  3.942141 0.046332 -0.431542  -0.019447 0.175530 -0.438082
9  1.539110 0.000083 0.000004  0.001041 0.003617 -0.010271
10  1.196332 0.000145 0.000029  -0.000311 0.000187 -0.240750
11  3.883511 -0.047211 0.431351  0.131201 0.065071 -0.254196
12  1.719572 -0.000029 0.000016  0.000449 0.004389 -0.131151
13  1.209179 0.000091 0.000012  -0.000006 0.003046 -0.269207
14  3.859677 -0.138417 1.332380  0.225892 -0.023996 -0.321679
15  1.719449 -0.000019 0.000029  0.001779 0.001045 0.170072
16  1.099675 0.000049 0.000006  -0.000092 0.002576 -0.281270
17  0.510079 -0.386190 1.397663  -1.478335 -0.440077 -0.312515
18  1.789819 -0.000004 -0.000018  -0.003637 -0.001435 -0.068054
19  1.207017 -0.000012 -0.000045  -0.009874 -0.006669 0.142203
20  5.740636 0.000389 -0.000699  -0.115496 0.000003 0.000064
21  11.481050 0.000260 -0.000795  -0.052582 -0.124996 0.052906
22  6.027525 -0.000330 0.000201  1.832092 -0.351614 1.770464
23  -0.000001 11.692099 -0.000007  -0.935421 -0.391578 -0.748257
24  0.000003 0.000009 -0.000000  -0.121332 -0.000031 1.570739
25  -0.000001 -0.000011 0.000000  0.868960 0.000002 1.570712
26  -7.194269 -9.801250 0.281197  1.473120 1.855075 -0.198639
27  6.027514 -0.000261 -0.000216  1.646906 0.869307 -0.662523
28  11.691993 0.000161 0.000857  0.237478 0.000045 -1.467391
29  11.480550 -0.000003 0.000844  -1.427265 0.497758 0.595152
30  3.740116 -0.374732 1.115839  0.406970 -0.281773 -0.608982
31  1.312560 0.000029 -0.000000  -0.000000 -0.000045 -0.148960
32  0.729346 0.000064 -0.000027  -0.000028 -0.000012 0.046463
33  3.844735 -0.114198 0.348248  0.121278 -0.118788 -0.520704
34  1.539095 0.000006 -0.000001  0.000007 -0.000009 0.042924
35  1.196300 0.000079 -0.000004  -0.000009 -0.000007 -0.140032
36  3.882636 -0.147927 -0.419622  -0.089865 -0.000691 -0.298015
37  1.719563 -0.000083 -0.000005  -0.002289 -0.007626 -0.075729
38  1.209195 0.000034 0.000011  -0.001277 -0.004274 0.074338
39  3.859584 -0.149082 -1.331322  -0.330196 0.136796 -0.257123
40  1.719412 -0.000097 -0.000037  -0.001916 -0.006299 -0.072275
41  1.099673 0.000023 0.000006  -0.001197 -0.004014 0.046404
42  0.250473 -0.789617 -1.094924  1.101343 0.501788 -0.631029
43  1.789779 -0.000008 -0.000042  -0.071988 -0.020416 -0.062501
44  1.206995 -0.000008 0.000005  -0.006598 -0.061096 0.016949
45  5.740573 0.000079 0.000721  0.073018 -0.000014 0.000028
46  11.481055 0.000073 0.000914  0.004718 0.083121 0.099212
47  6.027515 -0.000273 -0.000227  -0.970389 -0.387669 -1.728989
48  0.000000 11.691976 -0.000005  -1.010054 0.457997 0.797961
49  0.000003 -0.000000 0.000000  2.510011 -0.000036 1.570860
50  -0.000006 -0.000014 0.000005  2.272645 -0.000036 1.570861
51  -5.510344 -6.313323 -7.477970  -0.186094 -2.930230 1.297396
52  -0.000000 0.000000 -0.000001  0.008153 -0.000259 0.000009
53  -0.000001 0.000000 0.000000  1.565115 0.043565 -0.106862
54  3.159256 -7.934329 -8.459302  -0.479476 -0.025172 -1.725535
55  0.000001 0.000000 -0.000000  0.000000 -0.000001 -0.000002
56  0.000031 0.000029 0.000001  -1.571901 -0.044449 -0.106509
57  13.879580 -18.227863 -20.253773  1.570796 -0.000000 0.000000
58  -15.417984 3.791156 -22.774456  1.570796 -0.000000 0.000000
59  1.941978 9.588730 -8.327020  1.570796 -0.000000 0.000000
60  -0.004311 0.001229 -0.000372  0.006898 -0.005534 -0.284229
61  0.281193 10.925006 -5.335376  1.570796 -0.000000 0.000000
62  0.000000 0.000000 0.000000  -0.078727 -3.136056 0.284226
63  0.000000 0.000000 0.000000  1.571097 0.007634 0.000148
64  -2.098607 -16.096371 -3.046116  1.571220 0.002144 0.333365
65  -0.000001 1.459181 2.741114  0.000000 -0.000000 -0.000000
66  0.000002 1.699923 0.973996  0.000000 -0.000000 -0.000000
67  0.000001 2.151127 1.118578  0.000000 -0.000000 -0.000000
68  -0.000000 1.691831 -0.423393  -0.876616 0.001126 0.000617
69  -0.190806 1.634964 3.156575  0.029475 -0.000000 -0.000000
70  0.000000 2.606070 7.210409  -0.035921 -0.000000 0.000000
71  -1.776212 -17.016233 -1.346609  1.571220 0.002144 0.333365
72  -0.068590 -0.065952 -0.011621  0.000000 -0.000000 -0.000000
73  -0.137659 -0.609178 -0.193565  0.000000 -0.000000 -0.000000
time 8
0  0.000006 0.000000 0.000000  -1.570800 -1.391899 -1.570792
1  -9.867403 -7.778480 1.937669  -1.544956 -1.855077 -0.198630
2  6.027521 -0.000327 0.000191  -1.195268 -1.305243 -0.811669
3  11.692111 0.000646 -0.000737  -0.990418 -0.000008 -1.203211
4  11.480186 0.000433 -0.000676  1.125404 -0.574962 0.395230
5  3.666628 -0.163903 -1.204802  -0.209316 0.443450 -0.510681
6  1.312590 0.000011 0.000009  0.002417 0.017157 0.017162
7  0.729355 0.000055 0.000049  -0.002389 0.001463 0.140595
8  3.942141 0.046332 -0.431543  0.000481 0.207369 -0.399722
9  1.539109 0.000082 0.000004  0.001356 0.005281 0.011614
10  1.196332 0.000144 0.000029  -0.000459 0.000270 -0.223058
11  3.883511 -0.047211 0.431351  0.141671 0.095710 -0.215991
12  1.719571 -0.000030 0.000017  0.000425 0.003892 -0.109469
13  1.209178 0.000090 0.000011  -0.000010 0.003025 -0.293510
14  3.859678 -0.138417 1.332380  0.193111 0.008859 -0.293159
15  1.719449 -0.000019 0.000028  0.001975 0.000695 0.218760
16  1.099673 0.000048 0.000006  -0.000136 0.002574 -0.298258
17  0.482765 -0.389619 1.404717  -1.493870 -0.404453 -0.271138
18  1.789820 -0.000003 -0.000016  -0.004168 -0.001668 -0.097963
19  1.207016 -0.000013 -0.000045  -0.010796 -0.007469 0.119648
20  5.740636 0.000390 -0.000699  -0.118516 0.000003 0.000064
21  11.481043 0.000266 -0.000787  -0.061061 -0.107170 0.039885
22  6.027524 -0.000330 0.000202  1.698917 -0.233329 1.821455
23  0.000001 11.692101 -0.000004  -0.849787 -0.321405 -0.687957
24  0.000004 0.000009 -0.000000  -0.121332 -0.000030 1.570739
25  -0.000000 -0.000012 0.000001  0.868960 0.000002 1.570712
26  -7.032166 -10.314308 0.581087  1.473120 1.855075 -0.198639
27  6.027515 -0.000262 -0.000216  1.605514 1.095935 -0.666143
28  11.691991 0.000160 0.000856  0.183725 0.000032 -1.264886
29  11.480629 0.000033 0.000830  -1.404492 0.538554 0.599891
30  3.723990 -0.407437 1.105402  0.406971 -0.281773 -0.608982
31  1.312561 0.000030 -0.000001  -0.000000 -0.000045 -0.148960
32  0.729348 0.000065 -0.000027  -0.000028 -0.000012 0.046463
33  3.831583 -0.136409 0.337065  0.121278 -0.118788 -0.520704
34  1.539095 0.000005 -0.000002  0.000007 -0.000009 0.042924
35  1.196302 0.000080 -0.000003  -0.000009 -0.000007 -0.140033
36  3.882532 -0.161099 -0.418072  -0.089865 -0.000691 -0.298015
37  1.719565 -0.000083 -0.000004  -0.002288 -0.007626 -0.075729
38  1.209193 0.000034 0.000011  -0.001277 -0.004274 0.074338
39  3.859585 -0.149082 -1.331321  -0.330196 0.136796 -0.257123
40  1.719411 -0.000097 -0.000037  -0.001916 -0.006299 -0.072275
41  1.099673 0.000023 0.000006  -0.001196 -0.004014 0.046404
42  0.230503 -0.805067 -1.086892  1.103146 0.504242 -0.599796
43  1.789779 -0.000008 -0.000042  -0.078285 -0.024497 -0.041865
44  1.206995 -0.000007 0.000005  -0.002936 -0.087882 0.020909
45  5.740573 0.000078 0.000721  0.080957 -0.000014 0.000028
46  11.481070 0.000079 0.000911  0.006361 0.092135 0.097881
47  6.027515 -0.000272 -0.000227  -1.186983 -0.286871 -1.625933
48  -0.000003 11.691975 -0.000007  -0.887839 0.351775 0.715220
49  0.000001 0.000001 -0.000000  2.456264 -0.000036 1.570860
50  -0.000008 -0.000012 0.000004  2.272645 -0.000036 1.570861
51  -3.374491 -7.199375 -5.645489  -0.210347 -2.881816 1.281753
52  -0.000000 -0.000000 -0.000000  0.008153 -0.000259 0.000009
53  0.000000 -0.000000 0.000001  1.565115 0.043565 -0.106862
54  1.599276 -8.473115 -7.043686  -0.491022 -0.126176 -1.824831
55  0.000001 -0.000000 -0.000000  0.000000 -0.000001 -0.000002
56  0.000031 0.000029 0.000001  -1.571901 -0.044449 -0.106509
57  12.908321 -18.951378 -18.600954  1.570796 -0.000000 0.000000
58  -15.417984 3.906355 -22.701614  1.570796 -0.000000 0.000000
59  1.941978 9.409817 -8.327020  1.570796 -0.000000 0.000000
60  -0.004311 0.001229 -0.000372  0.006898 -0.005534 -0.284229
61  0.581084 11.401031 -5.084565  1.570796 -0.000000 0.000000
62  0.000000 0.000000 0.000000  -0.078727 -3.136056 0.284226
63  0.000000 0.000000 0.000000  1.571129 0.006685 0.000181
64  -2.003803 -13.611883 -3.407295  1.571145 0.003166 0.162713
65  -0.000000 1.459181 2.741114  0.000000 -0.000000 -0.000000
66  0.000001 1.699923 0.973997  0.000000 -0.000000 -0.000000
67  0.000000 2.151127 1.118581  0.000000 -0.000000 -0.000000
68  -0.000000 1.691831 -0.423392  -0.876616 0.001126 0.000617
69  -0.190807 1.634964 3.156576  0.029475 0.000000 -0.000000
70  -0.000000 2.606070 7.210410  -0.035921 -0.000000 0.000000
71  -1.840613 -14.572728 -1.707720  1.571145 0.003166 0.162713
72  -0.068589 -0.065953 -0.011621  0.000000 -0.000000 -0.000000
73  -0.137659 -0.609178 -0.193564  0.000000 -0.000000 -0.000000
time 9
0  0.000006 0.000000 0.000000  -1.570800 -1.391899 -1.570792
1  -9.847823 -7.670199 1.937669  -1.544956 -1.855077 -0.198630
2  6.027523 -0.000330 0.000191  -0.632155 -1.454961 -1.353471
3  11.692114 0.000645 -0.000739  -0.990398 0.000004 -0.877369
4  11.480705 0.000598 -0.000419  1.134376 -0.305384 0.178646
5  3.666627 -0.163903 -1.204802  -0.195405 0.491327 -0.509025
6  1.312590 0.000010 0.000007  0.003452 0.023389 0.029939
7  0.729355 0.000053 0.000049  -0.003324 0.001692 0.151368
8  3.942139 0.046331 -0.431543  0.013687 0.243856 -0.385053
9  1.539112 0.000083 0.000004  0.001656 0.007231 0.018903
10  1.196333 0.000145 0.000028  -0.000633 0.000366 -0.216925
11  3.883511 -0.047212 0.431351  0.151743 0.134740 -0.196750
12  1.719572 -0.000028 0.000017  0.000361 0.003323 -0.102249
13  1.209179 0.000088 0.000012  -0.000013 0.003001 -0.321759
14  3.859676 -0.138418 1.332380  0.160803 0.051647 -0.276220
15  1.719448 -0.000018 0.000028  0.002160 0.000538 0.234916
16  1.099677 0.000049 0.000006  -0.000187 0.002571 -0.318007
17  0.473658 -0.390763 1.407067  -1.497860 -0.383762 -0.255632
18  1.789819 -0.000004 -0.000017  -0.004572 -0.001792 -0.108784
19  1.207016 -0.000012 -0.000044  -0.011142 -0.007779 0.111060
20  5.740636 0.000388 -0.000699  -0.098455 0.000003 0.000063
21  11.481151 0.000298 -0.000736  -0.077155 -0.047953 0.009101
22  6.027524 -0.000330 0.000202  1.562697 -0.115637 1.858274
23  0.000000 11.692100 -0.000007  -0.639585 -0.178900 -0.528855
24  0.000002 0.000009 -0.000000  -0.121332 -0.000030 1.570739
25  0.000000 -0.000011 0.000000  0.868960 0.000002 1.570712
26  -6.932469 -10.629853 0.765528  1.473120 1.855075 -0.198639
27  6.027517 -0.000263 -0.000216  1.602887 1.225461 -0.659044
28  11.691991 0.000161 0.000857  0.150801 0.000019 -1.054433
29  11.480298 -0.000076 0.000844  -1.378941 0.538817 0.519906
30  3.714071 -0.427551 1.098981  0.406971 -0.281773 -0.608982
31  1.312561 0.000030 -0.000000  -0.000000 -0.000045 -0.148960
32  0.729347 0.000065 -0.000028  -0.000028 -0.000012 0.046463
33  3.823493 -0.150070 0.330185  0.121278 -0.118788 -0.520704
34  1.539095 0.000004 -0.000002  0.000007 -0.000009 0.042924
35  1.196302 0.000080 -0.000003  -0.000009 -0.000007 -0.140032
36  3.882467 -0.169201 -0.417121  -0.089865 -0.000691 -0.298015
37  1.719566 -0.000083 -0.000004  -0.002289 -0.007626 -0.075729
38  1.209193 0.000034 0.000011  -0.001277 -0.004274 0.074338
39  3.859585 -0.149082 -1.331321  -0.330196 0.136796 -0.257123
40  1.719412 -0.000097 -0.000037  -0.001916 -0.006299 -0.072275
41  1.099673 0.000023 0.000007  -0.001196 -0.004014 0.046404
42  0.230503 -0.805066 -1.086893  1.107963 0.551754 -0.581681
43  1.789779 -0.000007 -0.000042  -0.082757 -0.048980 0.169535
44  1.206996 -0.000006 0.000005  0.005174 -0.159496 0.198934
45  5.740573 0.000079 0.000721  0.075381 -0.000014 0.000028
46  11.481004 0.000058 0.000914  0.014009 0.092755 0.080815
47  6.027516 -0.000273 -0.000228  -1.295934 -0.211787 -1.589491
48  -0.000002 11.691975 -0.000007  -0.755713 0.252297 0.618459
49  0.000003 0.000000 -0.000000  2.423350 -0.000036 1.570860
50  -0.000007 -0.000013 0.000004  2.272645 -0.000036 1.570861
51  -2.673384 -8.165880 -5.054546  -0.204397 -2.861367 1.264670
52  0.000000 -0.000000 0.000001  0.008153 -0.000259 0.000009
53  0.000000 0.000000 0.000000  1.565115 0.043565 -0.106862
54  0.673599 -10.205628 -6.664557  -0.515175 -0.236380 -1.975101
55  -0.000001 -0.000001 -0.000000  0.000000 -0.000001 -0.000002
56  0.000029 0.000029 0.000001  -1.571902 -0.044449 -0.106509
57  12.232693 -19.396362 -17.584425  1.570796 -0.000000 0.000000
58  -15.417984 3.977206 -22.656813  1.570796 -0.000000 0.000000
59  1.941978 9.299780 -8.327020  1.570796 -0.000000 0.000000
60  -0.004311 0.001229 -0.000372  0.006898 -0.005534 -0.284229
61  0.765525 11.693800 -4.930309  1.570796 -0.000000 0.000000
62  0.000000 0.000000 0.000000  -0.078727 -3.136056 0.284226
63  0.000000 0.000000 0.000000  1.571141 0.004973 0.000213
64  -1.939472 -11.797487 -3.689101  1.571038 0.004440 0.051918
65  -0.000000 1.459181 2.741113  -0.000000 0.000000 -0.000000
66  0.000001 1.699923 0.973996  -0.000000 0.000000 -0.000000
67  0.000001 2.151127 1.118579  -0.000000 0.000000 -0.000000
68  -0.000000 1.691831 -0.423392  -0.876616 0.001126 0.000617
69  -0.190806 1.634964 3.156576  0.029475 0.000000 -0.000000
70  0.000000 2.606070 7.210410  -0.035921 0.000000 0.000000
71  -1.881368 -12.770190 -1.989430  1.571038 0.004440 0.051918
72  -0.068590 -0.065953 -0.011620  -0.000000 0.000000 -0.000000
73  -0.137660 -0.609178 -0.193565  -0.000000 0.000000 -0.000000
time 10
0  0.000006 0.000000 0.000000  -1.570800 -1.391899 -1.570792
1  -9.841317 -7.634221 1.937669  -1.544956 -1.855077 -0.198630
2  6.027525 -0.000329 0.000190  -0.384239 -1.473818 -1.600865
3  11.692112 0.000644 -0.000738  -0.990397 0.000004 -0.869471
4  11.480742 0.000609 -0.000409  1.096583 -0.273976 0.189055
5  3.666627 -0.163903 -1.204802  -0.349390 0.451821 -0.940719
6  1.312590 0.000009 0.000008  -0.038476 0.051075 -0.256179
7  0.729355 0.000055 0.000050  -0.034190 -0.013035 -0.140908
8  3.942141 0.046332 -0.431543  -0.067942 0.316285 -0.858104
9  1.539110 0.000084 0.000004  -0.001010 0.011825 -0.124988
10  1.196333 0.000145 0.000028  -0.001102 0.000454 -0.593143
11  3.883511 -0.047211 0.431351  0.113927 0.272320 -0.620198
12  1.719573 -0.000029 0.000017  0.000563 0.000126 -0.360626
13  1.209179 0.000089 0.000012  0.000523 0.002693 -0.451931
14  3.859677 -0.138417 1.332380  0.079902 0.301500 -0.596537
15  1.719448 -0.000020 0.000029  0.001938 0.001194 -0.079841
16  1.099675 0.000049 0.000006  -0.000592 0.002514 -0.470715
17  0.473659 -0.390762 1.407067  -1.497355 -0.375299 -0.255438
18  1.789819 -0.000004 -0.000016  -0.004875 -0.001564 -0.043434
19  1.207018 -0.000012 -0.000044  -0.009522 -0.003002 0.577072
20  5.740637 0.000387 -0.000699  -0.105022 0.000003 0.000064
21  11.481160 0.000300 -0.000735  -0.085259 -0.042917 0.010996
22  6.027524 -0.000329 0.000201  1.540428 -0.092198 1.859727
23  -0.000001 11.692100 -0.000008  -0.634288 -0.175868 -0.524691
24  0.000004 0.000009 0.000000  -0.121332 -0.000030 1.570738
25  -0.000002 -0.000012 -0.000001  0.868960 0.000002 1.570712
26  -6.899342 -10.734701 0.826813  1.473120 1.855075 -0.198639
27  6.027517 -0.000263 -0.000216  1.589067 1.245856 -0.667800
28  11.691990 0.000161 0.000859  0.139889 0.000016 -0.995590
29  11.480551 0.000023 0.000826  -1.308588 0.531223 0.506411
30  3.710774 -0.434234 1.096848  0.954920 0.085663 -2.021677
31  1.312560 0.000030 -0.000001  0.002280 -0.063315 -0.206753
32  0.729347 0.000065 -0.000027  -0.115514 -0.145586 -1.178526
33  3.820805 -0.154608 0.327899  0.699185 -0.148327 -1.609172
34  1.539094 0.000003 -0.000001  0.047757 -0.047307 -0.905096
35  1.196302 0.000079 -0.000003  -0.020793 -0.009974 -1.281773
36  3.882445 -0.171892 -0.416805  0.585365 -0.256752 -1.273775
37  1.719565 -0.000084 -0.000005  0.009232 -0.075542 -1.265579
38  1.209194 0.000033 0.000011  0.002862 -0.003398 -0.994103
39  3.859584 -0.149081 -1.331322  0.072539 -0.193981 -0.456630
40  1.719414 -0.000097 -0.000037  0.032241 0.022754 -0.917972
41  1.099672 0.000025 0.000007  -0.008001 -0.008222 -0.721166
42  0.230503 -0.805066 -1.086893  1.111612 0.594062 -0.578210
43  1.789779 -0.000007 -0.000042  -0.089312 -0.070323 0.368341
44  1.206995 -0.000007 0.000005  0.000678 -0.214508 0.376132
45  5.740573 0.000078 0.000722  0.083891 -0.000013 0.000028
46  11.481054 0.000078 0.000911  0.027928 0.094096 0.074360
47  6.027515 -0.000273 -0.000229  -1.315346 -0.203084 -1.581197
48  -0.000000 11.691974 -0.000008  -0.717643 0.226775 0.589496
49  0.000003 -0.000000 0.000001  2.412441 -0.000036 1.570860
50  -0.000007 -0.000013 0.000004  2.272645 -0.000036 1.570861
51  -2.576338 -8.415821 -5.188706  -0.154541 -2.878141 1.260702
52  -0.000000 0.000000 0.000000  0.008153 -0.000259 0.000009
53  -0.000000 0.000000 -0.000000  1.565115 0.043565 -0.106862
54  0.289381 -10.064236 -6.248663  -0.534610 -0.245371 -2.026107
55  -0.000000 -0.000000 -0.000000  0.000000 -0.000001 -0.000002
56  0.000029 0.000029 0.000000  -1.571902 -0.044449 -0.106509
57  12.000549 -19.544212 -17.246658  1.570796 -0.000000 0.000000
58  -15.417984 4.000748 -22.641926  1.570796 -0.000000 0.000000
59  1.941978 9.263218 -8.327020  1.570796 -0.000000 0.000000
60  -0.004311 0.001229 -0.000372  0.006898 -0.005534 -0.284229
61  0.826810 11.791080 -4.879054  1.570796 -0.000000 0.000000
62  0.000000 0.000000 0.000000  -0.078727 -3.136056 0.284226
63  0.000000 0.000000 0.000000  1.570024 0.002276 0.000241
64  -1.915771 -10.889102 -3.861487  1.571005 0.006047 0.012230
65  -0.000000 1.459181 2.741116  -0.000000 -0.000000 0.000000
66  0.000002 1.699923 0.973998  -0.000000 -0.000000 0.000000
67  0.000001 2.151127 1.118583  -0.000000 -0.000000 0.000000
68  0.000000 1.691831 -0.423391  -0.876616 0.001126 0.000617
69  -0.190806 1.634965 3.156578  0.029475 0.000000 -0.000000
70  0.000000 2.606070 7.210410  -0.035921 -0.000000 0.000000
71  -1.893576 -11.863256 -2.161799  1.571005 0.006047 0.012230
72  -0.068590 -0.065953 -0.011621  -0.000000 -0.000000 0.000000
73  -0.137660 -0.609178 -0.193564  -0.000000 -0.000000 0.000000
time 11
0  0.000006 0.000000 0.000000  -1.570800 -1.391899 -1.570792
1  -9.841317 -7.634221 1.937669  -1.544956 -1.855077 -0.198630
2  6.027525 -0.000329 0.000190  -0.512911 -1.464326 -1.461112
3  11.692110 0.000643 -0.000738  -0.990400 0.000003 -0.910579
4  11.480577 0.000573 -0.000461  1.055072 -0.295833 0.196922
5  3.666628 -0.163903 -1.204802  -0.458263 0.335584 -1.333198
6  1.312589 0.000011 0.000008  -0.086019 0.061891 -0.543338
7  0.729356 0.000052 0.000048  -0.058916 -0.035969 -0.432747
8  3.942141 0.046331 -0.431543  -0.169699 0.322144 -1.337741
9  1.539111 0.000083 0.000004  -0.004294 0.014762 -0.268897
10  1.196332 0.000148 0.000029  -0.001447 0.000349 -0.969204
11  3.883510 -0.047212 0.431351  0.023790 0.355799 -1.066067
12  1.719573 -0.000028 0.000017  0.001531 -0.002562 -0.619004
13  1.209180 0.000088 0.000012  0.001090 0.002463 -0.564593
14  3.859676 -0.138418 1.332379  -0.064236 0.489541 -0.966403
15  1.719448 -0.000018 0.000028  0.001411 0.001748 -0.394599
16  1.099675 0.000049 0.000006  -0.000954 0.002407 -0.611174
17  0.473660 -0.390763 1.407067  -1.497918 -0.373857 -0.256047
18  1.789819 -0.000003 -0.000017  -0.004966 -0.001297 0.021916
19  1.207017 -0.000012 -0.000045  -0.005914 0.000538 1.042760
20  5.740636 0.000388 -0.000699  -0.115191 0.000003 0.000063
21  11.481126 0.000293 -0.000745  -0.092502 -0.048355 0.010138
22  6.027524 -0.000329 0.000201  1.550730 -0.104653 1.870458
23  0.000001 11.692097 -0.000008  -0.661749 -0.191886 -0.546210
24  0.000004 0.000008 -0.000001  -0.121332 -0.000031 1.570739
25  0.000001 -0.000013 0.000000  0.868960 0.000002 1.570712
26  -6.899342 -10.734701 0.826813  1.473120 1.855075 -0.198639
27  6.027516 -0.000263 -0.000216  1.588140 1.225696 -0.668808
28  11.691992 0.000160 0.000858  0.139891 0.000019 -1.038614
29  11.480356 -0.000059 0.000838  -1.335605 0.534008 0.535148
30  3.710774 -0.434235 1.096848  0.954920 0.085663 -2.021677
31  1.312560 0.000031 -0.000001  0.002279 -0.063315 -0.206753
32  0.729347 0.000065 -0.000028  -0.115515 -0.145586 -1.178526
33  3.820807 -0.154609 0.327899  0.699185 -0.148327 -1.609172
34  1.539095 0.000003 -0.000001  0.047757 -0.047307 -0.905096
35  1.196302 0.000080 -0.000003  -0.020793 -0.009974 -1.281773
36  3.882446 -0.171893 -0.416804  0.585365 -0.256752 -1.273775
37  1.719566 -0.000083 -0.000005  0.009232 -0.075542 -1.265579
38  1.209194 0.000034 0.000012  0.002862 -0.003398 -0.994103
39  3.859586 -0.149082 -1.331322  0.072539 -0.193981 -0.456630
40  1.719411 -0.000097 -0.000038  0.032241 0.022754 -0.917972
41  1.099673 0.000023 0.000006  -0.008001 -0.008221 -0.721166
42  0.230504 -0.805067 -1.086893  1.111612 0.594062 -0.578210
43  1.789781 -0.000006 -0.000042  -0.089312 -0.070323 0.368341
44  1.206994 -0.000007 0.000005  0.000678 -0.214508 0.376132
45  5.740573 0.000080 0.000721  0.081364 -0.000014 0.000028
46  11.481016 0.000062 0.000913  0.021714 0.093854 0.081420
47  6.027515 -0.000273 -0.000229  -1.299206 -0.215626 -1.584684
48  -0.000001 11.691975 -0.000008  -0.745530 0.245331 0.610753
49  0.000002 0.000001 -0.000000  2.412441 -0.000036 1.570860
50  -0.000007 -0.000013 0.000003  2.272645 -0.000036 1.570861
51  -2.593200 -8.172510 -5.186716  -0.185522 -2.882201 1.258817
52  0.000001 -0.000000 -0.000000  0.008153 -0.000259 0.000009
53  0.000000 -0.000000 -0.000000  1.565115 0.043565 -0.106862
54  0.225909 -9.834589 -6.345695  -0.565745 -0.245691 -2.028431
55  0.000000 -0.000000 -0.000000  0.000000 -0.000001 -0.000002
56  0.000030 0.000029 0.000001  -1.571901 -0.044449 -0.106509
57  12.000549 -19.544212 -17.246658  1.570796 -0.000000 0.000000
58  -15.417984 4.000748 -22.641926  1.570796 -0.000000 0.000000
59  1.941978 9.263218 -8.327020  1.570796 -0.000000 0.000000
60  -0.004311 0.001229 -0.000372  0.006898 -0.005534 -0.284229
61  0.826810 11.791080 -4.879054  1.570796 -0.000000 0.000000
62  0.000000 0.000000 0.000000  -0.078727 -3.136056 0.284226
63  0.000000 0.000000 0.000000  1.568907 -0.001118 0.000270
64  -1.921736 -10.669339 -3.910017  1.584234 0.033200 0.002597
65  -0.000000 1.459181 2.741113  -0.000000 -0.000000 0.000000
66  0.000001 1.699923 0.973996  -0.000000 -0.000000 0.000000
67  0.000001 2.151127 1.118581  -0.000000 -0.000000 0.000000
68  -0.000000 1.691831 -0.423392  -0.876616 0.001126 0.000617
69  -0.190807 1.634964 3.156578  0.029475 0.000000 -0.000000
70  -0.000000 2.606070 7.210411  -0.035921 -0.000000 0.000000
71  -1.863159 -11.665941 -2.224264  1.584234 0.033200 0.002597
72  -0.068590 -0.065953 -0.011621  -0.000000 -0.000000 0.000000
73  -0.137660 -0.609178 -0.193564  -0.000000 -0.000000 0.000000
time 12
0  0.000006 0.000000 0.000000  -1.570800 -1.391899 -1.570792
1  -9.841317 -7.634221 1.937669  -1.544956 -1.855077 -0.198630
2  6.027525 -0.000329 0.000190  -0.508161 -1.464980 -1.467083
3  11.692112 0.000643 -0.000739  -0.990400 0.000003 -0.908974
4  11.480583 0.000574 -0.000461  1.059949 -0.282389 0.193235
5  3.666626 -0.163904 -1.204803  -0.458263 0.335584 -1.333198
6  1.312589 0.000010 0.000008  -0.086019 0.061891 -0.543338
7  0.729356 0.000054 0.000050  -0.058916 -0.035969 -0.432747
8  3.942140 0.046332 -0.431543  -0.169699 0.322144 -1.337741
9  1.539110 0.000085 0.000004  -0.004294 0.014762 -0.268897
10  1.196333 0.000146 0.000029  -0.001447 0.000349 -0.969204
11  3.883510 -0.047211 0.431350  0.023790 0.355799 -1.066067
12  1.719573 -0.000030 0.000017  0.001531 -0.002562 -0.619004
13  1.209179 0.000091 0.000012  0.001090 0.002463 -0.564593
14  3.859677 -0.138418 1.332379  -0.064236 0.489541 -0.966403
15  1.719448 -0.000018 0.000028  0.001411 0.001748 -0.394599
16  1.099675 0.000049 0.000005  -0.000954 0.002407 -0.611174
17  0.473659 -0.390763 1.407067  -1.497918 -0.373857 -0.256047
18  1.789819 -0.000004 -0.000018  -0.004966 -0.001297 0.021916
19  1.207017 -0.000012 -0.000044  -0.005914 0.000538 1.042760
20  5.740636 0.000388 -0.000700  -0.113426 0.000003 0.000063
21  11.481127 0.000293 -0.000745  -0.092054 -0.045484 0.010173
22  6.027524 -0.000329 0.000201  1.550359 -0.103914 1.869249
23  0.000001 11.692099 -0.000008  -0.660682 -0.191250 -0.545377
24  0.000004 0.000008 -0.000000  -0.121332 -0.000031 1.570739
25  0.000002 -0.000012 0.000000  0.868960 0.000002 1.570712
26  -6.899342 -10.734701 0.826813  1.473120 1.855075 -0.198639
27  6.027516 -0.000263 -0.000216  1.585014 1.223844 -0.671284
28  11.691992 0.000161 0.000859  0.139891 0.000019 -1.043444
29  11.480337 -0.000067 0.000840  -1.332888 0.548542 0.538253
30  3.710774 -0.434233 1.096848  0.954920 0.085663 -2.021677
31  1.312560 0.000029 -0.000002  0.002279 -0.063315 -0.206753
32  0.729347 0.000065 -0.000028  -0.115515 -0.145586 -1.178526
33  3.820805 -0.154608 0.327898  0.699185 -0.148327 -1.609172
34  1.539094 0.000004 -0.000002  0.047757 -0.047307 -0.905096
35  1.196301 0.000080 -0.000004  -0.020793 -0.009974 -1.281773
36  3.882446 -0.171892 -0.416804  0.585365 -0.256752 -1.273775
37  1.719566 -0.000082 -0.000006  0.009232 -0.075542 -1.265579
38  1.209192 0.000034 0.000011  0.002862 -0.003398 -0.994103
39  3.859584 -0.149081 -1.331322  0.072539 -0.193981 -0.456630
40  1.719413 -0.000097 -0.000037  0.032241 0.022754 -0.917972
41  1.099672 0.000023 0.000006  -0.008001 -0.008222 -0.721166
42  0.230503 -0.805066 -1.086894  1.111612 0.594062 -0.578210
43  1.789779 -0.000007 -0.000042  -0.089312 -0.070323 0.368341
44  1.206996 -0.000007 0.000005  0.000678 -0.214508 0.376132
45  5.740574 0.000079 0.000721  0.082513 -0.000014 0.000028
46  11.481012 0.000061 0.000913  0.021274 0.096809 0.081429
47  6.027515 -0.000273 -0.000229  -1.298366 -0.217596 -1.584400
48  -0.000001 11.691975 -0.000008  -0.748643 0.247450 0.613113
49  0.000003 -0.000001 0.000000  2.412441 -0.000036 1.570860
50  -0.000007 -0.000013 0.000004  2.272645 -0.000036 1.570861
51  -2.572505 -8.142322 -5.192461  -0.180192 -2.876978 1.246385
52  0.000001 -0.000000 -0.000000  0.008153 -0.000259 0.000009
53  0.000000 0.000000 -0.000000  1.565115 0.043565 -0.106862
54  0.231764 -9.843025 -6.331235  -0.559708 -0.250112 -2.040963
55  -0.000000 0.000001 -0.000000  0.000000 -0.000001 -0.000002
56  0.000030 0.000030 0.000001  -1.571902 -0.044449 -0.106509
57  12.000549 -19.544212 -17.246658  1.570796 -0.000000 0.000000
58  -15.417984 4.000748 -22.641926  1.570796 -0.000000 0.000000
59  1.941978 9.263218 -8.327020  1.570796 -0.000000 0.000000
60  -0.004311 0.001229 -0.000372  0.006898 -0.005534 -0.284229
61  0.826810 11.791080 -4.879054  1.570796 -0.000000 0.000000
62  0.000000 0.000000 0.000000  -0.078727 -3.136056 0.284226
63  0.000000 0.000000 0.000000  1.569293 -0.002880 0.000295
64  -1.932813 -10.637944 -3.897221  1.577668 0.029924 -0.008661
65  -0.000001 1.459181 2.741115  0.000000 -0.000000 -0.000000
66  0.000001 1.699923 0.973998  0.000000 -0.000000 -0.000000
67  0.000000 2.151127 1.118582  0.000000 -0.000000 -0.000000
68  -0.000000 1.691831 -0.423391  -0.876616 0.001126 0.000617
69  -0.190807 1.634965 3.156578  0.029475 0.000000 -0.000000
70  -0.000000 2.606070 7.210413  -0.035921 -0.000000 0.000000
71  -1.890692 -11.624002 -2.204790  1.577668 0.029924 -0.008661
72  -0.068590 -0.065953 -0.011620  0.000000 -0.000000 -0.000000
73  -0.137659 -0.609178 -0.193564  0.000000 -0.000000 -0.000000
time 13
0  0.000006 0.000000 0.000000  -1.570800 -1.391899 -1.570792
1  -9.841317 -7.634221 1.937669  -1.544956 -1.855077 -0.198630
2  6.027525 -0.000329 0.000190  -0.483841 -1.467225 -1.494332
3  11.692112 0.000645 -0.000737  -0.990400 0.000003 -0.902001
4  11.480607 0.000580 -0.000451  1.077506 -0.280434 0.185569
5  3.666626 -0.163904 -1.204802  -0.458263 0.335584 -1.333198
6  1.312590 0.000009 0.000007  -0.086019 0.061891 -0.543338
7  0.729354 0.000053 0.000049  -0.058916 -0.035969 -0.432747
8  3.942140 0.046331 -0.431542  -0.169699 0.322144 -1.337741
9  1.539111 0.000083 0.000004  -0.004294 0.014761 -0.268897
10  1.196332 0.000145 0.000028  -0.001447 0.000349 -0.969204
11  3.883510 -0.047212 0.431351  0.023790 0.355799 -1.066067
12  1.719572 -0.000027 0.000017  0.001531 -0.002562 -0.619004
13  1.209180 0.000089 0.000011  0.001090 0.002463 -0.564593
14  3.859676 -0.138418 1.332380  -0.064236 0.489541 -0.966403
15  1.719448 -0.000020 0.000028  0.001411 0.001748 -0.394599
16  1.099675 0.000049 0.000006  -0.000954 0.002407 -0.611174
17  0.473659 -0.390763 1.407067  -1.497917 -0.373857 -0.256047
18  1.789819 -0.000005 -0.000018  -0.004966 -0.001297 0.021916
19  1.207016 -0.000012 -0.000045  -0.005914 0.000538 1.042760
20  5.740636 0.000389 -0.000699  -0.109758 0.000003 0.000063
21  11.481131 0.000295 -0.000744  -0.088835 -0.044443 0.009372
22  6.027524 -0.000329 0.000201  1.548322 -0.101195 1.866396
23  0.000000 11.692098 -0.000008  -0.656041 -0.188496 -0.541751
24  0.000005 0.000009 -0.000000  -0.121333 -0.000031 1.570739
25  0.000000 -0.000012 0.000000  0.868960 0.000002 1.570712
26  -6.899342 -10.734701 0.826813  1.473120 1.855075 -0.198639
27  6.027516 -0.000263 -0.000216  1.586018 1.226155 -0.670469
28  11.691992 0.000162 0.000859  0.139891 0.000019 -1.037229
29  11.480361 -0.000057 0.000838  -1.326435 0.548944 0.523719
30  3.710775 -0.434235 1.096848  0.954920 0.085663 -2.021677
31  1.312560 0.000031 -0.000000  0.002280 -0.063315 -0.206753
32  0.729347 0.000065 -0.000027  -0.115514 -0.145586 -1.178526
33  3.820807 -0.154609 0.327899  0.699185 -0.148327 -1.609172
34  1.539094 0.000003 -0.000001  0.047757 -0.047307 -0.905096
35  1.196302 0.000079 -0.000003  -0.020793 -0.009974 -1.281773
36  3.882446 -0.171893 -0.416804  0.585365 -0.256752 -1.273775
37  1.719564 -0.000083 -0.000005  0.009232 -0.075542 -1.265579
38  1.209194 0.000034 0.000011  0.002862 -0.003398 -0.994103
39  3.859584 -0.149082 -1.331322  0.072539 -0.193981 -0.456630
40  1.719411 -0.000097 -0.000037  0.032241 0.022754 -0.917972
41  1.099673 0.000023 0.000006  -0.008001 -0.008222 -0.721166
42  0.230503 -0.805067 -1.086893  1.111612 0.594062 -0.578210
43  1.789780 -0.000008 -0.000042  -0.089312 -0.070323 0.368341
44  1.206996 -0.000007 0.000005  0.000678 -0.214508 0.376132
45  5.740573 0.000079 0.000720  0.083393 -0.000014 0.000028
46  11.481017 0.000063 0.000912  0.022997 0.096989 0.078213
47  6.027515 -0.000273 -0.000229  -1.300027 -0.215914 -1.584173
48  0.000000 11.691974 -0.000007  -0.744636 0.244724 0.610076
49  0.000002 -0.000000 -0.000001  2.412441 -0.000036 1.570860
50  -0.000006 -0.000014 0.000004  2.272645 -0.000036 1.570861
51  -2.582109 -8.180061 -5.198778  -0.168513 -2.868281 1.248924
52  0.000000 0.000000 -0.000000  0.008153 -0.000259 0.000009
53  -0.000000 -0.000000 -0.000000  1.565115 0.043565 -0.106862
54  0.240593 -9.878103 -6.295195  -0.546895 -0.257080 -2.038536
55  -0.000000 -0.000000 -0.000000  0.000000 -0.000001 -0.000002
56  0.000030 0.000029 0.000001  -1.571901 -0.044449 -0.106509
57  12.000549 -19.544212 -17.246658  1.570796 -0.000000 0.000000
58  -15.417984 4.000748 -22.641926  1.570796 -0.000000 0.000000
59  1.941978 9.263218 -8.327020  1.570796 -0.000000 0.000000
60  -0.004311 0.001229 -0.000372  0.006898 -0.005534 -0.284229
61  0.826810 11.791080 -4.879054  1.570796 -0.000000 0.000000
62  0.000000 0.000000 0.000000  -0.078727 -3.136056 0.284226
63  0.000000 0.000000 0.000000  1.570142 -0.001568 0.000311
64  -1.938778 -10.656549 -3.869071  1.565890 0.021939 -0.003324
65  -0.000001 1.459181 2.741112  0.000000 -0.000000 0.000000
66  0.000001 1.699923 0.973995  0.000000 -0.000000 0.000000
67  0.000000 2.151126 1.118578  0.000000 -0.000000 0.000000
68  -0.000000 1.691831 -0.423393  -0.876616 0.001126 0.000617
69  -0.190807 1.634964 3.156575  0.029475 0.000000 -0.000000
70  -0.000000 2.606069 7.210410  -0.035921 -0.000000 0.000000
71  -1.904593 -11.622314 -2.164801  1.565890 0.021939 -0.003324
72  -0.068590 -0.065953 -0.011619  0.000000 -0.000000 0.000000
73  -0.137660 -0.609178 -0.193562  0.000000 -0.000000 0.000000
time 14
0  0.000006 0.000000 0.000000  -1.570800 -1.391899 -1.570792
1  -9.841317 -7.634221 1.937669  -1.544956 -1.855077 -0.198630
2  6.027525 -0.000329 0.000190  -0.461878 -1.469567 -1.520295
3  11.692113 0.000644 -0.000739  -0.990399 0.000003 -0.894818
4  11.480637 0.000588 -0.000444  1.094326 -0.282720 0.183897
5  3.666628 -0.163904 -1.204802  -0.458263 0.335584 -1.333198
6  1.312590 0.000010 0.000007  -0.086019 0.061891 -0.543338
7  0.729357 0.000053 0.000049  -0.058916 -0.035969 -0.432747
8  3.942141 0.046331 -0.431543  -0.169699 0.322144 -1.337740
9  1.539111 0.000082 0.000004  -0.004294 0.014762 -0.268897
10  1.196332 0.000144 0.000028  -0.001447 0.000349 -0.969204
11  3.883511 -0.047211 0.431351  0.023790 0.355799 -1.066066
12  1.719573 -0.000029 0.000017  0.001531 -0.002562 -0.619004
13  1.209179 0.000089 0.000012  0.001090 0.002463 -0.564593
14  3.859677 -0.138418 1.332380  -0.064236 0.489541 -0.966403
15  1.719448 -0.000017 0.000028  0.001411 0.001748 -0.394599
16  1.099675 0.000049 0.000006  -0.000954 0.002407 -0.611174
17  0.473658 -0.390763 1.407067  -1.497918 -0.373857 -0.256047
18  1.789820 -0.000004 -0.000018  -0.004966 -0.001297 0.021916
19  1.207017 -0.000012 -0.000045  -0.005914 0.000538 1.042760
20  5.740636 0.000391 -0.000700  -0.106491 0.000003 0.000063
21  11.481137 0.000298 -0.000742  -0.085522 -0.044488 0.009548
22  6.027524 -0.000329 0.000201  1.546662 -0.098403 1.862446
23  -0.000001 11.692098 -0.000008  -0.651252 -0.185676 -0.538005
24  0.000004 0.000008 -0.000000  -0.121332 -0.000031 1.570739
25  -0.000001 -0.000011 -0.000000  0.868960 0.000002 1.570712
26  -6.899342 -10.734701 0.826813  1.473120 1.855075 -0.198639
27  6.027516 -0.000263 -0.000216  1.587964 1.231112 -0.668875
28  11.691992 0.000161 0.000859  0.139890 0.000018 -1.026605
29  11.480409 -0.000037 0.000835  -1.317021 0.542460 0.511456
30  3.710774 -0.434235 1.096847  0.954920 0.085663 -2.021677
31  1.312560 0.000031 -0.000001  0.002280 -0.063315 -0.206753
32  0.729347 0.000065 -0.000029  -0.115515 -0.145587 -1.178526
33  3.820805 -0.154609 0.327899  0.699185 -0.148327 -1.609172
34  1.539094 0.000003 -0.000001  0.047757 -0.047306 -0.905096
35  1.196304 0.000079 -0.000003  -0.020793 -0.009974 -1.281773
36  3.882446 -0.171893 -0.416805  0.585365 -0.256752 -1.273775
37  1.719565 -0.000084 -0.000005  0.009232 -0.075542 -1.265579
38  1.209194 0.000033 0.000011  0.002862 -0.003398 -0.994103
39  3.859585 -0.149082 -1.331322  0.072539 -0.193981 -0.456630
40  1.719412 -0.000097 -0.000037  0.032241 0.022754 -0.917972
41  1.099673 0.000023 0.000006  -0.008001 -0.008222 -0.721166
42  0.230504 -0.805067 -1.086893  1.111612 0.594062 -0.578210
43  1.789780 -0.000007 -0.000042  -0.089312 -0.070323 0.368341
44  1.206995 -0.000007 0.000005  0.000678 -0.214508 0.376132
45  5.740573 0.000078 0.000720  0.084470 -0.000014 0.000028
46  11.481026 0.000066 0.000912  0.025561 0.095980 0.075479
47  6.027515 -0.000273 -0.000229  -1.303637 -0.212371 -1.583644
48  -0.000001 11.691975 -0.000007  -0.737774 0.240094 0.604864
49  0.000003 -0.000001 0.000000  2.412441 -0.000036 1.570860
50  -0.000007 -0.000013 0.000005  2.272645 -0.000036 1.570861
51  -2.588295 -8.241698 -5.192349  -0.157079 -2.865280 1.256115
52  -0.000000 0.000000 -0.000000  0.008153 -0.000259 0.000009
53  0.000001 -0.000000 -0.000001  1.565115 0.043565 -0.106862
54  0.262022 -9.917324 -6.251165  -0.535185 -0.258451 -2.031227
55  -0.000000 0.000000 0.000000  0.000000 -0.000001 -0.000002
56  0.000031 0.000029 0.000001  -1.571901 -0.044449 -0.106509
57  12.000549 -19.544212 -17.246658  1.570796 -0.000000 0.000000
58  -15.417984 4.000748 -22.641926  1.570796 -0.000000 0.000000
59  1.941978 9.263218 -8.327020  1.570796 -0.000000 0.000000
60  -0.004311 0.001229 -0.000372  0.006898 -0.005534 -0.284229
61  0.826810 11.791080 -4.879054  1.570796 -0.000000 0.000000
62  0.000000 0.000000 0.000000  -0.078727 -3.136056 0.284226
63  0.000000 0.000000 0.000000  1.570992 0.000868 0.000323
64  -1.932303 -10.703059 -3.840922  1.559578 0.012437 0.006861
65  -0.000001 1.459181 2.741115  -0.000000 0.000000 -0.000000
66  0.000001 1.699923 0.973998  -0.000000 0.000000 -0.000000
67  0.000000 2.151127 1.118580  -0.000000 0.000000 -0.000000
68  -0.000000 1.691831 -0.423391  -0.876616 0.001126 0.000617
69  -0.190807 1.634965 3.156577  0.029475 0.000000 -0.000000
70  0.000000 2.606070 7.210411  -0.035921 -0.000000 0.000000
71  -1.904475 -11.657758 -2.130313  1.559578 0.012437 0.006861
72  -0.068590 -0.065953 -0.011619  -0.000000 0.000000 -0.000000
73  -0.137660 -0.609178 -0.193564  -0.000000 0.000000 -0.000000
time 15
0  0.000006 0.000000 0.000000  -1.570800 -1.391899 -1.570792
1  -9.841317 -7.634221 1.937669  -1.544956 -1.855077 -0.198630
2  6.027525 -0.000329 0.000190  -0.446695 -1.471417 -1.539187
3  11.692114 0.000644 -0.000739  -0.990399 0.000003 -0.888300
4  11.480661 0.000590 -0.000434  1.102144 -0.282197 0.190315
5  3.666628 -0.163904 -1.204802  -0.458263 0.335584 -1.333198
6  1.312590 0.000011 0.000007  -0.086019 0.061891 -0.543338
7  0.729356 0.000053 0.000049  -0.058916 -0.035969 -0.432747
8  3.942141 0.046331 -0.431543  -0.169699 0.322144 -1.337740
9  1.539111 0.000084 0.000004  -0.004294 0.014762 -0.268897
10  1.196332 0.000145 0.000029  -0.001447 0.000349 -0.969204
11  3.883512 -0.047212 0.431351  0.023790 0.355799 -1.066066
12  1.719573 -0.000029 0.000016  0.001531 -0.002562 -0.619004
13  1.209179 0.000091 0.000012  0.001090 0.002463 -0.564593
14  3.859677 -0.138418 1.332380  -0.064236 0.489541 -0.966403
15  1.719448 -0.000019 0.000028  0.001411 0.001748 -0.394599
16  1.099675 0.000049 0.000006  -0.000954 0.002407 -0.611174
17  0.473660 -0.390763 1.407067  -1.497918 -0.373857 -0.256047
18  1.789819 -0.000004 -0.000017  -0.004966 -0.001297 0.021916
19  1.207016 -0.000012 -0.000045  -0.005914 0.000538 1.042760
20  5.740636 0.000388 -0.000699  -0.104799 0.000003 0.000063
21  11.481142 0.000296 -0.000740  -0.083905 -0.044458 0.011114
22  6.027524 -0.000329 0.000201  1.545640 -0.096236 1.858759
23  -0.000002 11.692099 -0.000009  -0.646900 -0.183133 -0.534595
24  0.000003 0.000008 0.000000  -0.121332 -0.000030 1.570739
25  -0.000001 -0.000012 -0.000001  0.868960 0.000002 1.570712
26  -6.899342 -10.734701 0.826813  1.473120 1.855075 -0.198639
27  6.027517 -0.000263 -0.000216  1.588655 1.237063 -0.668249
28  11.691992 0.000161 0.000860  0.139890 0.000017 -1.015753
29  11.480454 -0.000018 0.000832  -1.307262 0.536278 0.510842
30  3.710776 -0.434235 1.096848  0.954920 0.085663 -2.021677
31  1.312560 0.000030 -0.000001  0.002279 -0.063315 -0.206753
32  0.729348 0.000065 -0.000027  -0.115515 -0.145586 -1.178526
33  3.820807 -0.154610 0.327899  0.699185 -0.148327 -1.609172
34  1.539094 0.000003 -0.000001  0.047757 -0.047307 -0.905096
35  1.196303 0.000080 -0.000003  -0.020793 -0.009974 -1.281773
36  3.882447 -0.171892 -0.416804  0.585365 -0.256752 -1.273775
37  1.719566 -0.000083 -0.000005  0.009232 -0.075542 -1.265579
38  1.209194 0.000033 0.000011  0.002862 -0.003398 -0.994103
39  3.859586 -0.149082 -1.331322  0.072539 -0.193981 -0.456630
40  1.719412 -0.000097 -0.000038  0.032241 0.022754 -0.917972
41  1.099674 0.000023 0.000006  -0.008001 -0.008222 -0.721166
42  0.230504 -0.805067 -1.086893  1.111612 0.594062 -0.578210
43  1.789780 -0.000007 -0.000042  -0.089312 -0.070323 0.368341
44  1.206996 -0.000006 0.000005  0.000678 -0.214508 0.376132
45  5.740573 0.000079 0.000721  0.085629 -0.000014 0.000028
46  11.481036 0.000070 0.000912  0.027729 0.095188 0.074986
47  6.027515 -0.000273 -0.000229  -1.308316 -0.208560 -1.582693
48  -0.000001 11.691975 -0.000007  -0.730747 0.235399 0.599513
49  0.000003 -0.000001 0.000001  2.412441 -0.000036 1.570860
50  -0.000008 -0.000013 0.000004  2.272645 -0.000036 1.570861
51  -2.576719 -8.301311 -5.176701  -0.150153 -2.870923 1.259762
52  0.000001 -0.000000 -0.000000  0.008153 -0.000259 0.000009
53  0.000001 -0.000000 -0.000000  1.565115 0.043565 -0.106862
54  0.291277 -9.957679 -6.217933  -0.529211 -0.251899 -2.027218
55  0.000000 -0.000000 -0.000000  0.000000 -0.000001 -0.000002
56  0.000032 0.000029 0.000000  -1.571902 -0.044449 -0.106509
57  12.000549 -19.544212 -17.246658  1.570796 -0.000000 0.000000
58  -15.417984 4.000748 -22.641926  1.570796 -0.000000 0.000000
59  1.941978 9.263218 -8.327020  1.570796 -0.000000 0.000000
60  -0.004311 0.001229 -0.000372  0.006898 -0.005534 -0.284229
61  0.826810 11.791080 -4.879054  1.570796 -0.000000 0.000000
62  0.000000 0.000000 0.000000  -0.078727 -3.136056 0.284226
63  0.000000 0.000000 0.000000  1.571378 0.002180 0.000327
64  -1.918056 -10.763523 -3.828126  1.562817 0.004323 0.012405
65  -0.000000 1.459180 2.741115  -0.000000 0.000000 -0.000000
66  0.000001 1.699923 0.973997  -0.000000 0.000000 -0.000000
67  0.000001 2.151126 1.118581  -0.000000 0.000000 -0.000000
68  -0.000000 1.691831 -0.423392  -0.876616 0.001126 0.000617
69  -0.190807 1.634964 3.156578  0.029475 0.000000 -0.000000
70  0.000000 2.606070 7.210410  -0.035921 -0.000000 0.000000
71  -1.898759 -11.723761 -2.120502  1.562817 0.004323 0.012405
72  -0.068590 -0.065952 -0.011620  -0.000000 0.000000 -0.000000
73  -0.137660 -0.609177 -0.193565  -0.000000 0.000000 -0.000000
time 16
0  0.000006 0.000000 0.000000  -1.570800 -1.391899 -1.570792
1  -9.841317 -7.634221 1.937669  -1.544956 -1.855077 -0.198630
2  6.027525 -0.000329 0.000190  -0.428478 -1.472896 -1.559587
3  11.692113 0.000644 -0.000739  -0.990398 0.000003 -0.880469
4  11.480694 0.000599 -0.000425  1.102316 -0.275511 0.195835
5  3.666627 -0.163904 -1.204801  -0.458263 0.335584 -1.333198
6  1.312589 0.000009 0.000008  -0.086019 0.061891 -0.543338
7  0.729354 0.000054 0.000049  -0.058916 -0.035969 -0.432747
8  3.942140 0.046331 -0.431542  -0.169699 0.322144 -1.337740
9  1.539110 0.000081 0.000004  -0.004294 0.014762 -0.268897
10  1.196333 0.000146 0.000028  -0.001447 0.000349 -0.969204
11  3.883511 -0.047212 0.431352  0.023790 0.355799 -1.066067
12  1.719573 -0.000028 0.000018  0.001531 -0.002562 -0.619004
13  1.209179 0.000091 0.000013  0.001090 0.002463 -0.564593
14  3.859677 -0.138418 1.332380  -0.064236 0.489541 -0.966403
15  1.719448 -0.000017 0.000029  0.001411 0.001748 -0.394599
16  1.099675 0.000049 0.000006  -0.000954 0.002407 -0.611174
17  0.473659 -0.390764 1.407068  -1.497918 -0.373857 -0.256047
18  1.789819 -0.000003 -0.000018  -0.004966 -0.001297 0.021916
19  1.207016 -0.000012 -0.000044  -0.005914 0.000538 1.042760
20  5.740636 0.000390 -0.000699  -0.104199 0.000003 0.000063
21  11.481149 0.000299 -0.000738  -0.083981 -0.043343 0.012474
22  6.027524 -0.000329 0.000201  1.544290 -0.094338 1.856616
23  0.000000 11.692099 -0.000008  -0.641661 -0.180096 -0.530485
24  0.000004 0.000007 -0.000000  -0.121332 -0.000031 1.570739
25  0.000000 -0.000012 0.000000  0.868960 0.000002 1.570712
26  -6.899342 -10.734701 0.826813  1.473120 1.855075 -0.198639
27  6.027517 -0.000263 -0.000216  1.587334 1.242529 -0.669230
28  11.691991 0.000161 0.000859  0.139889 0.000017 -1.006118
29  11.480497 0.000002 0.000830  -1.302080 0.535527 0.514878
30  3.710774 -0.434235 1.096849  0.954920 0.085663 -2.021677
31  1.312560 0.000032 -0.000001  0.002279 -0.063315 -0.206753
32  0.729347 0.000065 -0.000027  -0.115515 -0.145586 -1.178526
33  3.820806 -0.154609 0.327899  0.699185 -0.148327 -1.609172
34  1.539094 0.000003 -0.000002  0.047757 -0.047307 -0.905096
35  1.196303 0.000079 -0.000002  -0.020793 -0.009974 -1.281773
36  3.882445 -0.171892 -0.416804  0.585365 -0.256752 -1.273775
37  1.719564 -0.000083 -0.000004  0.009232 -0.075542 -1.265579
38  1.209193 0.000033 0.000011  0.002862 -0.003398 -0.994103
39  3.859585 -0.149082 -1.331322  0.072539 -0.193981 -0.456630
40  1.719413 -0.000097 -0.000037  0.032241 0.022754 -0.917972
41  1.099673 0.000023 0.000006  -0.008001 -0.008222 -0.721166
42  0.230503 -0.805067 -1.086893  1.111612 0.594062 -0.578210
43  1.789780 -0.000007 -0.000042  -0.089312 -0.070323 0.368341
44  1.206995 -0.000007 0.000005  0.000678 -0.214508 0.376132
45  5.740573 0.000079 0.000721  0.086044 -0.000014 0.000028
46  11.481045 0.000075 0.000911  0.028576 0.095318 0.075496
47  6.027515 -0.000273 -0.000229  -1.313005 -0.205559 -1.581460
48  -0.000002 11.691976 -0.000008  -0.724493 0.231262 0.594738
49  0.000003 -0.000001 0.000001  2.412441 -0.000036 1.570860
50  -0.000008 -0.000013 0.000004  2.272645 -0.000036 1.570861
51  -2.553261 -8.352492 -5.167600  -0.148484 -2.877813 1.257572
52  0.000000 -0.000000 0.000000  0.008153 -0.000259 0.000009
53  -0.000000 -0.000000 0.000000  1.565115 0.043565 -0.106862
54  0.315636 -10.007565 -6.208408  -0.528597 -0.244849 -2.029118
55  0.000000 0.000001 -0.000000  0.000000 -0.000001 -0.000002
56  0.000030 0.000030 0.000001  -1.571901 -0.044449 -0.106509
57  12.000549 -19.544212 -17.246658  1.570796 -0.000000 0.000000
58  -15.417984 4.000748 -22.641926  1.570796 -0.000000 0.000000
59  1.941978 9.263218 -8.327020  1.570796 -0.000000 0.000000
60  -0.004311 0.001229 -0.000372  0.006898 -0.005534 -0.284229
61  0.826810 11.791080 -4.879054  1.570796 -0.000000 0.000000
62  0.000000 0.000000 0.000000  -0.078727 -3.136056 0.284226
63  0.000000 0.000000 0.000000  1.571317 0.001545 0.000293
64  -1.903809 -10.823987 -3.831596  1.568838 0.000606 0.010671
65  -0.000000 1.459181 2.741115  -0.000000 -0.000000 -0.000000
66  0.000001 1.699922 0.973997  -0.000000 -0.000000 -0.000000
67  0.000001 2.151126 1.118582  -0.000000 -0.000000 -0.000000
68  -0.000000 1.691831 -0.423391  -0.876616 0.001126 0.000617
69  -0.190807 1.634964 3.156577  0.029475 0.000000 -0.000000
70  0.000000 2.606070 7.210411  -0.035921 -0.000000 0.000000
71  -1.892419 -11.794586 -2.129769  1.568838 0.000606 0.010671
72  -0.068590 -0.065953 -0.011619  -0.000000 -0.000000 -0.000000
73  -0.137660 -0.609178 -0.193563  -0.000000 -0.000000 -0.000000
time 17
0  0.000006 0.000000 0.000000  -1.570800 -1.391899 -1.570792
1  -9.841317 -7.634221 1.937669  -1.544956 -1.855077 -0.198630
2  6.027525 -0.000329 0.000190  -0.405643 -1.474058 -1.583101
3  11.692112 0.000644 -0.000738  -0.990398 0.000004 -0.872560
4  11.480726 0.000605 -0.000413  1.100585 -0.267608 0.196401
5  3.666627 -0.163904 -1.204803  -0.458263 0.335584 -1.333198
6  1.312589 0.000011 0.000008  -0.086019 0.061891 -0.543338
7  0.729354 0.000054 0.000050  -0.058916 -0.035969 -0.432747
8  3.942141 0.046331 -0.431543  -0.169699 0.322144 -1.337740
9  1.539110 0.000083 0.000003  -0.004294 0.014762 -0.268897
10  1.196333 0.000145 0.000028  -0.001447 0.000349 -0.969204
11  3.883510 -0.047212 0.431351  0.023790 0.355799 -1.066066
12  1.719573 -0.000029 0.000018  0.001531 -0.002562 -0.619004
13  1.209179 0.000090 0.000012  0.001090 0.002463 -0.564593
14  3.859678 -0.138418 1.332379  -0.064236 0.489541 -0.966403
15  1.719448 -0.000020 0.000028  0.001411 0.001748 -0.394599
16  1.099675 0.000049 0.000006  -0.000954 0.002407 -0.611174
17  0.473660 -0.390763 1.407067  -1.497918 -0.373857 -0.256047
18  1.789819 -0.000004 -0.000018  -0.004966 -0.001297 0.021916
19  1.207016 -0.000012 -0.000045  -0.005914 0.000538 1.042760
20  5.740636 0.000389 -0.000699  -0.103918 0.000003 0.000063
21  11.481155 0.000299 -0.000736  -0.084553 -0.041853 0.012838
22  6.027524 -0.000329 0.000201  1.542482 -0.092597 1.855998
23  0.000000 11.692098 -0.000007  -0.636361 -0.177051 -0.526321
24  0.000003 0.000009 0.000000  -0.121332 -0.000030 1.570738
25  -0.000001 -0.000012 0.000001  0.868960 0.000002 1.570712
26  -6.899342 -10.734701 0.826813  1.473120 1.855075 -0.198639
27  6.027517 -0.000263 -0.000216  1.585860 1.246382 -0.670363
28  11.691991 0.000159 0.000859  0.139889 0.000017 -0.998718
29  11.480535 0.000018 0.000827  -1.301271 0.537637 0.516285
30  3.710775 -0.434235 1.096848  0.954920 0.085663 -2.021677
31  1.312561 0.000031 -0.000000  0.002280 -0.063315 -0.206754
32  0.729347 0.000063 -0.000027  -0.115515 -0.145586 -1.178526
33  3.820807 -0.154609 0.327899  0.699185 -0.148327 -1.609172
34  1.539094 0.000005 -0.000002  0.047757 -0.047307 -0.905096
35  1.196302 0.000080 -0.000003  -0.020793 -0.009974 -1.281773
36  3.882446 -0.171892 -0.416805  0.585365 -0.256752 -1.273775
37  1.719566 -0.000083 -0.000005  0.009232 -0.075542 -1.265579
38  1.209193 0.000034 0.000011  0.002862 -0.003398 -0.994103
39  3.859585 -0.149082 -1.331322  0.072539 -0.193981 -0.456630
40  1.719413 -0.000097 -0.000037  0.032241 0.022754 -0.917972
41  1.099673 0.000022 0.000006  -0.008001 -0.008222 -0.721166
42  0.230504 -0.805067 -1.086893  1.111612 0.594062 -0.578210
43  1.789780 -0.000008 -0.000042  -0.089312 -0.070323 0.368341
44  1.206996 -0.000007 0.000005  0.000678 -0.214508 0.376132
45  5.740573 0.000079 0.000721  0.085759 -0.000014 0.000028
46  11.481050 0.000077 0.000911  0.028554 0.095779 0.075655
47  6.027515 -0.000273 -0.000229  -1.316411 -0.203571 -1.580506
48  -0.000001 11.691974 -0.000008  -0.719680 0.228104 0.591056
49  0.000003 0.000000 -0.000000  2.412441 -0.000036 1.570860
50  -0.000007 -0.000013 0.000004  2.272645 -0.000036 1.570861
51  -2.536782 -8.392177 -5.168030  -0.149203 -2.881011 1.253894
52  0.000001 -0.000000 0.000000  0.008153 -0.000259 0.000009
53  0.000000 -0.000000 0.000000  1.565115 0.043565 -0.106862
54  0.326050 -10.054931 -6.213292  -0.529781 -0.241786 -2.032697
55  -0.000000 -0.000000 0.000000  0.000000 -0.000001 -0.000002
56  0.000031 0.000029 0.000001  -1.571901 -0.044449 -0.106509
57  12.000549 -19.544212 -17.246658  1.570796 -0.000000 0.000000
58  -15.417984 4.000748 -22.641926  1.570796 -0.000000 0.000000
59  1.941978 9.263218 -8.327020  1.570796 -0.000000 0.000000
60  -0.004311 0.001229 -0.000372  0.006898 -0.005534 -0.284229
61  0.826810 11.791080 -4.879054  1.570796 -0.000000 0.000000
62  0.000000 0.000000 0.000000  -0.078727 -3.136056 0.284226
63  0.000000 0.000000 0.000000  1.571173 0.000365 0.000212
64  -1.897333 -10.870498 -3.839869  1.572090 0.000247 0.006808
65  -0.000000 1.459181 2.741115  -0.000000 0.000000 -0.000000
66  0.000001 1.699923 0.973998  -0.000000 0.000000 -0.000000
67  0.000000 2.151127 1.118582  -0.000000 0.000000 -0.000000
68  -0.000000 1.691831 -0.423390  -0.876616 0.001126 0.000617
69  -0.190807 1.634965 3.156578  0.029475 0.000000 -0.000000
70  0.000000 2.606070 7.210410  -0.035921 -0.000000 0.000000
71  -1.890267 -11.846668 -2.141208  1.572090 0.000247 0.006808
72  -0.068590 -0.065953 -0.011619  -0.000000 0.000000 -0.000000
73  -0.137660 -0.609178 -0.193563  -0.000000 0.000000 -0.000000
time 18
0  0.000006 0.000000 0.000000  -1.570800 -1.391899 -1.570792
1  -9.841317 -7.634221 1.937669  -1.544956 -1.855077 -0.198630
2  6.027525 -0.000329 0.000190  -0.388566 -1.474631 -1.599843
3  11.692113 0.000645 -0.000738  -0.990397 0.000004 -0.867562
4  11.480751 0.000611 -0.000406  1.100263 -0.261214 0.194206
5  3.666627 -0.163904 -1.204802  -0.458263 0.335584 -1.333198
6  1.312589 0.000011 0.000008  -0.086019 0.061891 -0.543338
7  0.729355 0.000054 0.000049  -0.058916 -0.035969 -0.432747
8  3.942141 0.046332 -0.431542  -0.169699 0.322144 -1.337740
9  1.539110 0.000082 0.000005  -0.004294 0.014762 -0.268897
10  1.196332 0.000147 0.000028  -0.001447 0.000349 -0.969204
11  3.883511 -0.047212 0.431351  0.023790 0.355799 -1.066066
12  1.719573 -0.000029 0.000017  0.001531 -0.002562 -0.619004
13  1.209179 0.000089 0.000012  0.001090 0.002463 -0.564593
14  3.859677 -0.138418 1.332380  -0.064236 0.489541 -0.966403
15  1.719448 -0.000018 0.000028  0.001411 0.001748 -0.394599
16  1.099675 0.000049 0.000006  -0.000954 0.002407 -0.611174
17  0.473659 -0.390763 1.407067  -1.497918 -0.373857 -0.256047
18  1.789819 -0.000004 -0.000017  -0.004966 -0.001297 0.021916
19  1.207016 -0.000012 -0.000044  -0.005914 0.000538 1.042760
20  5.740637 0.000389 -0.000699  -0.103499 0.000003 0.000063
21  11.481161 0.000302 -0.000734  -0.084847 -0.040528 0.012648
22  6.027524 -0.000329 0.000201  1.541080 -0.091556 1.856383
23  0.000001 11.692099 -0.000008  -0.633006 -0.175138 -0.523682
24  0.000005 0.000009 -0.000000  -0.121332 -0.000030 1.570738
25  0.000001 -0.000011 0.000000  0.868960 0.000002 1.570712
26  -6.899342 -10.734701 0.826813  1.473120 1.855075 -0.198639
27  6.027517 -0.000263 -0.000216  1.584553 1.247439 -0.671400
28  11.691992 0.000161 0.000858  0.139889 0.000016 -0.995781
29  11.480551 0.000023 0.000827  -1.301245 0.541480 0.515853
30  3.710775 -0.434234 1.096849  0.954920 0.085663 -2.021677
31  1.312560 0.000030 -0.000001  0.002280 -0.063315 -0.206753
32  0.729348 0.000066 -0.000027  -0.115514 -0.145586 -1.178526
33  3.820806 -0.154608 0.327899  0.699185 -0.148327 -1.609172
34  1.539095 0.000004 -0.000002  0.047757 -0.047307 -0.905096
35  1.196301 0.000080 -0.000003  -0.020793 -0.009974 -1.281773
36  3.882447 -0.171892 -0.416804  0.585365 -0.256752 -1.273775
37  1.719566 -0.000082 -0.000005  0.009232 -0.075542 -1.265579
38  1.209193 0.000034 0.000010  0.002862 -0.003398 -0.994103
39  3.859586 -0.149081 -1.331322  0.072539 -0.193981 -0.456630
40  1.719413 -0.000097 -0.000037  0.032241 0.022754 -0.917972
41  1.099673 0.000024 0.000006  -0.008001 -0.008222 -0.721166
42  0.230504 -0.805067 -1.086893  1.111612 0.594062 -0.578210
43  1.789780 -0.000006 -0.000042  -0.089312 -0.070323 0.368341
44  1.206996 -0.000006 0.000005  0.000678 -0.214508 0.376132
45  5.740573 0.000079 0.000721  0.085582 -0.000014 0.000028
46  11.481053 0.000078 0.000910  0.028359 0.096513 0.075445
47  6.027515 -0.000273 -0.000229  -1.317523 -0.203250 -1.580079
48  -0.000000 11.691975 -0.000007  -0.717767 0.226856 0.589592
49  0.000004 -0.000000 -0.000001  2.412441 -0.000036 1.570860
50  -0.000007 -0.000013 0.000005  2.272645 -0.000036 1.570861
51  -2.531677 -8.408755 -5.178846  -0.148922 -2.880748 1.249928
52  0.000000 0.000000 0.000001  0.008153 -0.000259 0.000009
53  0.000000 0.000000 0.000000  1.565115 0.043565 -0.106862
54  0.324842 -10.082991 -6.223046  -0.529465 -0.242007 -2.036665
55  0.000000 -0.000000 0.000000  0.000000 -0.000001 -0.000002
56  0.000030 0.000029 0.000001  -1.571902 -0.044449 -0.106509
57  12.000549 -19.544212 -17.246658  1.570796 -0.000000 0.000000
58  -15.417984 4.000748 -22.641926  1.570796 -0.000000 0.000000
59  1.941978 9.263218 -8.327020  1.570796 -0.000000 0.000000
60  -0.004311 0.001229 -0.000372  0.006898 -0.005534 -0.284229
61  0.826810 11.791080 -4.879054  1.570796 -0.000000 0.000000
62  0.000000 0.000000 0.000000  -0.078727 -3.136056 0.284226
63  0.000000 0.000000 0.000000  1.571001 -0.000270 0.000115
64  -1.902113 -10.889102 -3.849744  1.571754 0.000073 0.002915
65  -0.000000 1.459181 2.741114  0.000000 -0.000000 0.000000
66  0.000001 1.699923 0.973996  0.000000 -0.000000 0.000000
67  0.000000 2.151127 1.118581  0.000000 -0.000000 0.000000
68  -0.000000 1.691831 -0.423392  -0.876616 0.001126 0.000617
69  -0.190807 1.634964 3.156577  0.029475 0.000000 -0.000000
70  0.000000 2.606070 7.210408  -0.035921 -0.000000 0.000000
71  -1.899144 -11.864721 -2.150755  1.571754 0.000073 0.002915
72  -0.068590 -0.065953 -0.011618  0.000000 -0.000000 0.000000
73  -0.137660 -0.609178 -0.193563  0.000000 -0.000000 0.000000
time 19
0  0.000006 0.000000 0.000000  -1.570800 -1.391899 -1.570792
1  -9.841317 -7.634221 1.937669  -1.544956 -1.855077 -0.198630
2  6.027525 -0.000329 0.000190  -0.381832 -1.474663 -1.605825
3  11.692113 0.000645 -0.000739  -0.990397 0.000004 -0.866153
4  11.480756 0.000611 -0.000404  1.099850 -0.258517 0.192807
5  3.666627 -0.163904 -1.204803  -0.458263 0.335584 -1.333198
6  1.312589 0.000010 0.000008  -0.086019 0.061891 -0.543338
7  0.729355 0.000053 0.000049  -0.058916 -0.035969 -0.432747
8  3.942140 0.046331 -0.431543  -0.169699 0.322144 -1.337740
9  1.539111 0.000082 0.000004  -0.004294 0.014762 -0.268897
10  1.196334 0.000144 0.000029  -0.001447 0.000349 -0.969204
11  3.883511 -0.047212 0.431350  0.023790 0.355799 -1.066067
12  1.719573 -0.000028 0.000017  0.001531 -0.002562 -0.619004
13  1.209179 0.000089 0.000013  0.001090 0.002463 -0.564593
14  3.859676 -0.138418 1.332379  -0.064236 0.489541 -0.966403
15  1.719448 -0.000018 0.000028  0.001411 0.001748 -0.394599
16  1.099675 0.000049 0.000006  -0.000954 0.002407 -0.611174
17  0.473659 -0.390763 1.407067  -1.497918 -0.373857 -0.256047
18  1.789819 -0.000004 -0.000016  -0.004966 -0.001297 0.021916
19  1.207016 -0.000012 -0.000044  -0.005914 0.000538 1.042760
20  5.740636 0.000388 -0.000699  -0.103380 0.000003 0.000063
21  11.481161 0.000300 -0.000733  -0.085032 -0.039958 0.012465
22  6.027524 -0.000329 0.000201  1.540474 -0.091322 1.857159
23  0.000000 11.692101 -0.000008  -0.632060 -0.174600 -0.522937
24  0.000004 0.000009 -0.000000  -0.121332 -0.000030 1.570739
25  0.000000 -0.000012 0.000000  0.868960 0.000002 1.570712
26  -6.899342 -10.734701 0.826813  1.473120 1.855075 -0.198639
27  6.027517 -0.000263 -0.000216  1.584095 1.246813 -0.671774
28  11.691993 0.000160 0.000858  0.139889 0.000016 -0.996075
29  11.480549 0.000023 0.000827  -1.301332 0.543875 0.515952
30  3.710775 -0.434234 1.096848  0.954920 0.085663 -2.021677
31  1.312560 0.000031 -0.000001  0.002280 -0.063315 -0.206753
32  0.729348 0.000065 -0.000028  -0.115515 -0.145586 -1.178526
33  3.820806 -0.154608 0.327899  0.699185 -0.148327 -1.609172
34  1.539095 0.000003 -0.000001  0.047757 -0.047307 -0.905096
35  1.196303 0.000079 -0.000003  -0.020793 -0.009974 -1.281773
36  3.882446 -0.171892 -0.416804  0.585365 -0.256752 -1.273775
37  1.719564 -0.000083 -0.000005  0.009232 -0.075542 -1.265579
38  1.209192 0.000035 0.000011  0.002862 -0.003398 -0.994103
39  3.859585 -0.149081 -1.331322  0.072539 -0.193981 -0.456630
40  1.719413 -0.000097 -0.000037  0.032241 0.022754 -0.917972
41  1.099673 0.000022 0.000006  -0.008001 -0.008222 -0.721166
42  0.230505 -0.805067 -1.086893  1.111612 0.594062 -0.578210
43  1.789780 -0.000007 -0.000042  -0.089312 -0.070323 0.368341
44  1.206996 -0.000007 0.000005  0.000678 -0.214508 0.376132
45  5.740573 0.000078 0.000721  0.085565 -0.000014 0.000028
46  11.481054 0.000078 0.000910  0.028205 0.096971 0.075392
47  6.027515 -0.000273 -0.000229  -1.317111 -0.203750 -1.580101
48  -0.000002 11.691975 -0.000008  -0.717959 0.226981 0.589739
49  0.000002 -0.000000 0.000001  2.412441 -0.000036 1.570860
50  -0.000008 -0.000012 0.000005  2.272645 -0.000036 1.570861
51  -2.534860 -8.408167 -5.188704  -0.148654 -2.880178 1.247599
52  0.000000 0.000000 -0.000000  0.008153 -0.000259 0.000009
53  0.000000 0.000000 0.000000  1.565115 0.043565 -0.106862
54  0.317934 -10.089507 -6.231676  -0.529117 -0.242533 -2.039010
55  -0.000000 -0.000000 -0.000000  0.000000 -0.000001 -0.000002
56  0.000030 0.000029 0.000001  -1.571901 -0.044449 -0.106509
57  12.000549 -19.544212 -17.246658  1.570796 -0.000000 0.000000
58  -15.417984 4.000748 -22.641926  1.570796 -0.000000 0.000000
59  1.941978 9.263218 -8.327020  1.570796 -0.000000 0.000000
60  -0.004311 0.001229 -0.000372  0.006898 -0.005534 -0.284229
61  0.826810 11.791080 -4.879054  1.570796 -0.000000 0.000000
62  0.000000 0.000000 0.000000  -0.078727 -3.136056 0.284226
63  0.000000 0.000000 0.000000  1.570857 -0.000135 0.000034
64  -1.910991 -10.889102 -3.858017  1.571131 0.000009 0.000654
65  -0.000001 1.459181 2.741115  -0.000000 0.000000 0.000000
66  0.000001 1.699923 0.973997  -0.000000 0.000000 0.000000
67  0.000001 2.151127 1.118580  -0.000000 0.000000 0.000000
68  -0.000000 1.691831 -0.423391  -0.876616 0.001126 0.000617
69  -0.190806 1.634965 3.156576  0.029475 0.000000 -0.000000
70  -0.000000 2.606070 7.210409  -0.035921 -0.000000 0.000000
71  -1.910336 -11.863669 -2.158421  1.571131 0.000009 0.000654
72  -0.068590 -0.065952 -0.011620  -0.000000 0.000000 0.000000
73  -0.137660 -0.609177 -0.193565  -0.000000 0.000000 0.000000
time 20
0  0.000006 0.000000 0.000000  -1.570800 -1.391899 -1.570792
1  -9.841317 -7.634221 1.937669  -1.544956 -1.855077 -0.198630
2  6.027525 -0.000329 0.000190  -0.378372 -1.474678 -1.608899
3  11.692113 0.000645 -0.000738  -0.990397 0.000004 -0.865558
4  11.480761 0.000611 -0.000404  1.099739 -0.257730 0.192109
5  3.666627 -0.163903 -1.204802  -0.458263 0.335584 -1.333198
6  1.312590 0.000012 0.000008  -0.086019 0.061891 -0.543338
7  0.729356 0.000055 0.000049  -0.058916 -0.035969 -0.432747
8  3.942139 0.046331 -0.431543  -0.169699 0.322144 -1.337740
9  1.539110 0.000082 0.000004  -0.004294 0.014762 -0.268897
10  1.196333 0.000145 0.000030  -0.001447 0.000349 -0.969204
11  3.883509 -0.047212 0.431352  0.023791 0.355799 -1.066067
12  1.719573 -0.000029 0.000017  0.001531 -0.002562 -0.619004
13  1.209179 0.000089 0.000012  0.001090 0.002463 -0.564593
14  3.859676 -0.138417 1.332380  -0.064236 0.489541 -0.966403
15  1.719448 -0.000018 0.000029  0.001411 0.001748 -0.394599
16  1.099675 0.000048 0.000006  -0.000954 0.002407 -0.611174
17  0.473659 -0.390763 1.407068  -1.497918 -0.373857 -0.256047
18  1.789819 -0.000004 -0.000017  -0.004966 -0.001297 0.021916
19  1.207016 -0.000013 -0.000044  -0.005914 0.000538 1.042760
20  5.740636 0.000389 -0.000700  -0.103338 0.000003 0.000063
21  11.481163 0.000301 -0.000734  -0.085088 -0.039781 0.012354
22  6.027524 -0.000329 0.000201  1.540162 -0.091203 1.857557
23  0.000000 11.692100 -0.000008  -0.631660 -0.174374 -0.522622
24  0.000002 0.000008 0.000000  -0.121332 -0.000030 1.570739
25  -0.000000 -0.000012 -0.000000  0.868960 0.000002 1.570712
26  -6.899342 -10.734701 0.826813  1.473120 1.855075 -0.198639
27  6.027517 -0.000263 -0.000216  1.584105 1.246497 -0.671768
28  11.691990 0.000161 0.000858  0.139889 0.000016 -0.996189
29  11.480548 0.000021 0.000827  -1.301423 0.544575 0.515713
30  3.710775 -0.434235 1.096849  0.954920 0.085663 -2.021677
31  1.312560 0.000032 -0.000001  0.002279 -0.063315 -0.206754
32  0.729348 0.000066 -0.000027  -0.115514 -0.145586 -1.178526
33  3.820806 -0.154608 0.327900  0.699185 -0.148327 -1.609172
34  1.539095 0.000003 -0.000002  0.047757 -0.047307 -0.905096
35  1.196303 0.000080 -0.000003  -0.020793 -0.009974 -1.281773
36  3.882445 -0.171892 -0.416803  0.585365 -0.256752 -1.273775
37  1.719565 -0.000083 -0.000005  0.009232 -0.075542 -1.265579
38  1.209193 0.000034 0.000010  0.002862 -0.003398 -0.994103
39  3.859585 -0.149081 -1.331321  0.072539 -0.193981 -0.456630
40  1.719413 -0.000097 -0.000038  0.032241 0.022754 -0.917972
41  1.099674 0.000025 0.000006  -0.008001 -0.008222 -0.721166
42  0.230504 -0.805067 -1.086892  1.111612 0.594062 -0.578210
43  1.789780 -0.000007 -0.000042  -0.089312 -0.070323 0.368341
44  1.206995 -0.000007 0.000005  0.000678 -0.214508 0.376132
45  5.740573 0.000080 0.000721  0.085541 -0.000014 0.000028
46  11.481053 0.000078 0.000910  0.028158 0.097099 0.075328
47  6.027515 -0.000273 -0.000229  -1.316854 -0.203942 -1.580158
48  -0.000001 11.691975 -0.000007  -0.718033 0.227029 0.589795
49  0.000002 -0.000000 0.000000  2.412441 -0.000036 1.570860
50  -0.000007 -0.000014 0.000005  2.272645 -0.000036 1.570861
51  -2.538004 -8.408205 -5.193011  -0.148535 -2.879863 1.246914
52  0.000001 0.000000 -0.000000  0.008153 -0.000259 0.000009
53  -0.000000 0.000000 0.000001  1.565115 0.043565 -0.106862
54  0.313698 -10.091760 -6.235392  -0.528952 -0.242828 -2.039704
55  0.000001 -0.000001 0.000000  0.000000 -0.000001 -0.000002
56  0.000031 0.000029 0.000001  -1.571901 -0.044449 -0.106509
57  12.000549 -19.544212 -17.246658  1.570796 -0.000000 0.000000
58  -15.417984 4.000748 -22.641926  1.570796 -0.000000 0.000000
59  1.941978 9.263218 -8.327020  1.570796 -0.000000 0.000000
60  -0.004311 0.001229 -0.000372  0.006898 -0.005534 -0.284229
61  0.826810 11.791080 -4.879054  1.570796 -0.000000 0.000000
62  0.000000 0.000000 0.000000  -0.078727 -3.136056 0.284226
63  0.000000 0.000000 0.000000  1.570796 -0.000000 0.000000
64  -1.915771 -10.889102 -3.861487  1.570796 -0.000000 0.000000
65  -0.000000 1.459181 2.741115  0.000000 -0.000000 0.000000
66  0.000001 1.699923 0.973997  0.000000 -0.000000 0.000000
67  0.000000 2.151127 1.118581  0.000000 -0.000000 0.000000
68  -0.000000 1.691831 -0.423391  -0.876616 0.001126 0.000617
69  -0.190807 1.634964 3.156577  0.029475 0.000000 -0.000000
70  0.000000 2.606070 7.210410  -0.035921 -0.000000 0.000000
71  -1.915770 -11.863099 -2.161564  1.570796 -0.000000 0.000000
72  -0.068590 -0.065953 -0.011620  0.000000 -0.000000 0.000000
73  -0.137660 -0.609178 -0.193563  0.000000 -0.000000 0.000000
end
