version 1
nodes
0 "ValveBiped.Bip01_Spine4" -1
1 "ValveBiped.Bip01_L_Clavicle" 0
2 "ValveBiped.Bip01_L_UpperArm" 1
3 "ValveBiped.Bip01_L_Forearm" 2
4 "ValveBiped.Bip01_L_Hand" 3
5 "ValveBiped.Bip01_L_Finger4" 4
6 "ValveBiped.Bip01_L_Finger41" 5
7 "ValveBiped.Bip01_L_Finger42" 6
8 "ValveBiped.Bip01_L_Finger3" 4
9 "ValveBiped.Bip01_L_Finger31" 8
10 "ValveBiped.Bip01_L_Finger32" 9
11 "ValveBiped.Bip01_L_Finger2" 4
12 "ValveBiped.Bip01_L_Finger21" 11
13 "ValveBiped.Bip01_L_Finger22" 12
14 "ValveBiped.Bip01_L_Finger1" 4
15 "ValveBiped.Bip01_L_Finger11" 14
16 "ValveBiped.Bip01_L_Finger12" 15
17 "ValveBiped.Bip01_L_Finger0" 4
18 "ValveBiped.Bip01_L_Finger01" 17
19 "ValveBiped.Bip01_L_Finger02" 18
20 "ValveBiped.Bip01_L_Ulna" 3
21 "ValveBiped.Bip01_L_Wrist" 3
22 "rig_l_upperarm" 1
23 "rig_l_forearm" 22
24 "rig_d_l_forearm" 23
25 "rig_d_l_upperarm" 22
26 "ValveBiped.Bip01_R_Clavicle" 0
27 "ValveBiped.Bip01_R_UpperArm" 26
28 "ValveBiped.Bip01_R_Forearm" 27
29 "ValveBiped.Bip01_R_Hand" 28
30 "ValveBiped.Bip01_R_Finger4" 29
31 "ValveBiped.Bip01_R_Finger41" 30
32 "ValveBiped.Bip01_R_Finger42" 31
33 "ValveBiped.Bip01_R_Finger3" 29
34 "ValveBiped.Bip01_R_Finger31" 33
35 "ValveBiped.Bip01_R_Finger32" 34
36 "ValveBiped.Bip01_R_Finger2" 29
37 "ValveBiped.Bip01_R_Finger21" 36
38 "ValveBiped.Bip01_R_Finger22" 37
39 "ValveBiped.Bip01_R_Finger1" 29
40 "ValveBiped.Bip01_R_Finger11" 39
41 "ValveBiped.Bip01_R_Finger12" 40
42 "ValveBiped.Bip01_R_Finger0" 29
43 "ValveBiped.Bip01_R_Finger01" 42
44 "ValveBiped.Bip01_R_Finger02" 43
45 "ValveBiped.Bip01_R_Ulna" 28
46 "ValveBiped.Bip01_R_Wrist" 28
47 "rig_r_upperarm" 26
48 "rig_r_forearm" 47
49 "rig_d_r_forearm" 48
50 "rig_d_r_upperarm" 47
51 "rig_r_hand" -1
52 "rig_d_r_hand" 51
53 "rig_d_r_wrist" 52
54 "rig_l_hand" -1
55 "rig_d_l_hand" 54
56 "rig_d_l_wrist" 54
57 "rig_l_pole" -1
58 "rig_r_pole" -1
59 "rig_l_clavicle" -1
60 "rig_d_l_clavicle" 59
61 "rig_r_clavicle" -1
62 "rig_d_r_clavicle" 61
63 "Camera" -1
64 "body" -1
65 "trigger" 64
66 "bullet1" 64
67 "slide" 64
68 "hammer" 64
69 "sliderelease" 64
70 "barrel" 64
71 "mag" -1
72 "bullet2" 71
73 "bullet3" 71
end
skeleton
time 0
0  0.000006 0.000000 0.000000  -1.570800 -1.391899 -1.570792
1  -9.841317 -7.634221 1.937669  -1.544956 -1.855077 -0.198630
2  6.027525 -0.000329 0.000190  -0.378372 -1.474678 -1.608899
3  11.692113 0.000645 -0.000738  -0.990397 0.000004 -0.865558
4  11.480761 0.000611 -0.000404  1.099739 -0.257730 0.192109
5  3.666627 -0.163903 -1.204802  -0.458263 0.335584 -1.333198
6  1.312590 0.000012 0.000008  -0.086019 0.061891 -0.543338
7  0.729356 0.000055 0.000049  -0.058916 -0.035969 -0.432747
8  3.942139 0.046331 -0.431543  -0.169699 0.322144 -1.337740
9  1.539110 0.000082 0.000004  -0.004294 0.014762 -0.268897
10  1.196333 0.000145 0.000030  -0.001447 0.000349 -0.969204
11  3.883509 -0.047212 0.431352  0.023791 0.355799 -1.066067
12  1.719573 -0.000029 0.000017  0.001531 -0.002562 -0.619004
13  1.209179 0.000089 0.000012  0.001090 0.002463 -0.564593
14  3.859676 -0.138417 1.332380  -0.064236 0.489541 -0.966403
15  1.719448 -0.000018 0.000029  0.001411 0.001748 -0.394599
16  1.099675 0.000048 0.000006  -0.000954 0.002407 -0.611174
17  0.473659 -0.390763 1.407068  -1.497918 -0.373857 -0.256047
18  1.789819 -0.000004 -0.000017  -0.004966 -0.001297 0.021916
19  1.207016 -0.000013 -0.000044  -0.005914 0.000538 1.042760
20  5.740636 0.000389 -0.000700  -0.103338 0.000003 0.000063
21  11.481163 0.000301 -0.000734  -0.085088 -0.039781 0.012354
22  6.027524 -0.000329 0.000201  1.540162 -0.091203 1.857557
23  0.000000 11.692100 -0.000008  -0.631660 -0.174374 -0.522622
24  0.000002 0.000008 0.000000  -0.121332 -0.000030 1.570739
25  -0.000000 -0.000012 -0.000000  0.868960 0.000002 1.570712
26  -6.899342 -10.734701 0.826813  1.473120 1.855075 -0.198639
27  6.027517 -0.000263 -0.000216  1.584105 1.246497 -0.671768
28  11.691990 0.000161 0.000858  0.139889 0.000016 -0.996189
29  11.480548 0.000021 0.000827  -1.301423 0.544575 0.515713
30  3.710775 -0.434235 1.096849  0.954920 0.085663 -2.021677
31  1.312560 0.000032 -0.000001  0.002279 -0.063315 -0.206754
32  0.729348 0.000066 -0.000027  -0.115514 -0.145586 -1.178526
33  3.820806 -0.154608 0.327900  0.699185 -0.148327 -1.609172
34  1.539095 0.000003 -0.000002  0.047757 -0.047307 -0.905096
35  1.196303 0.000080 -0.000003  -0.020793 -0.009974 -1.281773
36  3.882445 -0.171892 -0.416803  0.585365 -0.256752 -1.273775
37  1.719565 -0.000083 -0.000005  0.009232 -0.075542 -1.265579
38  1.209193 0.000034 0.000010  0.002862 -0.003398 -0.994103
39  3.859585 -0.149081 -1.331321  0.074740 -0.191325 -0.464905
40  1.719413 -0.000097 -0.000037  0.025543 0.027311 -1.183333
41  1.099673 0.000023 0.000006  -0.008063 -0.008109 -0.707229
42  0.230504 -0.805067 -1.086892  1.111612 0.594062 -0.578210
43  1.789780 -0.000007 -0.000042  -0.089312 -0.070323 0.368341
44  1.206995 -0.000007 0.000005  0.000678 -0.214508 0.376132
45  5.740573 0.000080 0.000721  0.085541 -0.000014 0.000028
46  11.481053 0.000078 0.000910  0.028158 0.097099 0.075328
47  6.027515 -0.000273 -0.000229  -1.316854 -0.203942 -1.580158
48  -0.000001 11.691975 -0.000007  -0.718033 0.227029 0.589795
49  0.000002 -0.000000 0.000000  2.412441 -0.000036 1.570860
50  -0.000007 -0.000014 0.000005  2.272645 -0.000036 1.570861
51  -2.538004 -8.408205 -5.193011  -0.148535 -2.879863 1.246914
52  0.000001 0.000000 -0.000000  0.008153 -0.000259 0.000009
53  -0.000000 0.000000 0.000001  1.565115 0.043565 -0.106862
54  0.313698 -10.091760 -6.235392  -0.528952 -0.242828 -2.039704
55  0.000001 -0.000001 0.000000  0.000000 -0.000001 -0.000002
56  0.000031 0.000029 0.000001  -1.571901 -0.044449 -0.106509
57  12.000549 -19.544212 -17.246658  1.570796 -0.000000 0.000000
58  -15.417984 4.000748 -22.641926  1.570796 -0.000000 0.000000
59  1.941978 9.263218 -8.327020  1.570796 -0.000000 0.000000
60  -0.004311 0.001229 -0.000372  0.006898 -0.005534 -0.284229
61  0.826810 11.791080 -4.879054  1.570796 -0.000000 0.000000
62  0.000000 0.000000 0.000000  -0.078727 -3.136056 0.284226
63  -1.923794 -1.699245 -0.667801  1.570796 -0.000000 0.000000
64  -1.915771 -10.889102 -3.861487  1.570796 -0.000000 0.000000
65  -0.000000 1.459181 2.741115  0.436332 -0.000000 0.000000
66  -0.000001 2.036820 2.816265  0.049949 -0.000000 0.000000
67  0.000000 2.151127 2.901127  0.000000 -0.000000 0.000000
68  -0.000000 1.691831 -0.423391  0.000000 -0.000000 0.000000
69  -0.190807 1.634964 3.156577  0.000000 -0.000000 0.000000
70  0.000000 2.534226 7.414033  0.000000 -0.000000 0.000000
71  -1.915770 -11.863099 -2.161564  1.570796 -0.000000 0.000000
72  -0.068590 -0.065953 -0.011620  0.000000 -0.000000 0.000000
73  -0.137660 -0.609178 -0.193563  0.000000 -0.000000 0.000000
time 1
0  0.000006 0.000000 0.000000  -1.570800 -1.391899 -1.570792
1  -9.841317 -7.634221 1.937669  -1.544956 -1.855077 -0.198630
2  6.027524 -0.000329 0.000190  -0.697511 -1.452997 -1.284765
3  11.692113 0.000645 -0.000738  -0.990404 0.000001 -0.968106
4  11.480795 0.000610 -0.000406  1.097924 -0.315180 0.220638
5  3.666628 -0.163904 -1.204802  -0.458263 0.335584 -1.333198
6  1.312589 0.000009 0.000008  -0.086019 0.061891 -0.543338
7  0.729357 0.000054 0.000049  -0.058916 -0.035969 -0.432747
8  3.942141 0.046331 -0.431543  -0.169699 0.322144 -1.337740
9  1.539111 0.000083 0.000005  -0.004294 0.014762 -0.268897
10  1.196333 0.000144 0.000028  -0.001447 0.000349 -0.969204
11  3.883511 -0.047212 0.431351  0.023790 0.355800 -1.066066
12  1.719573 -0.000027 0.000017  0.001531 -0.002562 -0.619004
13  1.209180 0.000090 0.000012  0.001090 0.002463 -0.564593
14  3.859677 -0.138418 1.332380  -0.064236 0.489541 -0.966403
15  1.719448 -0.000018 0.000029  0.001411 0.001748 -0.394599
16  1.099675 0.000049 0.000006  -0.000954 0.002407 -0.611174
17  0.473660 -0.390763 1.407068  -1.497917 -0.373857 -0.256047
18  1.789818 -0.000004 -0.000016  -0.004966 -0.001297 0.021916
19  1.207017 -0.000012 -0.000044  -0.005914 0.000538 1.042760
20  5.740636 0.000388 -0.000699  -0.108962 0.000003 0.000063
21  11.481170 0.000300 -0.000734  -0.083083 -0.052083 0.015608
22  6.027524 -0.000329 0.000201  1.570287 -0.117882 1.861185
23  0.000001 11.692098 -0.000008  -0.699730 -0.215259 -0.575675
24  0.000004 0.000008 -0.000000  -0.121332 -0.000031 1.570739
25  0.000001 -0.000012 -0.000000  0.868960 0.000002 1.570712
26  -6.899342 -10.734701 0.826813  1.473120 1.855075 -0.198639
27  6.027516 -0.000262 -0.000217  1.576478 1.201880 -0.678074
28  11.691991 0.000162 0.000859  0.139894 0.000021 -1.091573
29  11.480740 0.000082 0.000819  -1.293486 0.550462 0.557945
30  3.710776 -0.434235 1.096850  0.954920 0.085663 -2.021677
31  1.312561 0.000031 -0.000000  0.002280 -0.063315 -0.206753
32  0.729347 0.000065 -0.000028  -0.115515 -0.145586 -1.178526
33  3.820806 -0.154608 0.327899  0.699185 -0.148327 -1.609172
34  1.539094 0.000003 -0.000001  0.047757 -0.047307 -0.905096
35  1.196303 0.000080 -0.000003  -0.020793 -0.009974 -1.281773
36  3.882445 -0.171892 -0.416804  0.585365 -0.256752 -1.273775
37  1.719565 -0.000083 -0.000005  0.009232 -0.075542 -1.265579
38  1.209193 0.000034 0.000011  0.002862 -0.003398 -0.994103
39  3.859585 -0.149082 -1.331321  0.074740 -0.191325 -0.464905
40  1.719413 -0.000096 -0.000037  0.025543 0.027311 -1.183333
41  1.099673 0.000021 0.000006  -0.008063 -0.008109 -0.707229
42  0.230504 -0.805067 -1.086893  1.111612 0.594062 -0.578210
43  1.789781 -0.000006 -0.000042  -0.089312 -0.070323 0.368341
44  1.206994 -0.000007 0.000005  0.000678 -0.214508 0.376132
45  5.740573 0.000080 0.000721  0.093294 -0.000014 0.000028
46  11.481093 0.000091 0.000909  0.027642 0.099180 0.082862
47  6.027515 -0.000273 -0.000229  -1.282444 -0.233423 -1.586755
48  -0.000001 11.691974 -0.000008  -0.779476 0.268947 0.636315
49  0.000004 0.000001 0.000000  2.412441 -0.000036 1.570860
50  -0.000007 -0.000013 0.000004  2.272645 -0.000036 1.570861
51  -2.538237 -7.853760 -5.215931  -0.141788 -2.872805 1.252915
52  0.000000 -0.000000 0.000000  0.008153 -0.000259 0.000009
53  0.000000 0.000000 0.000001  1.565115 0.043565 -0.106862
54  0.330565 -9.524097 -6.232330  -0.521258 -0.248870 -2.033806
55  0.000000 0.000001 -0.000000  0.000000 -0.000001 -0.000002
56  0.000030 0.000030 0.000001  -1.571901 -0.044449 -0.106509
57  12.000549 -19.544212 -17.246658  1.570796 -0.000000 0.000000
58  -15.417984 4.000748 -22.641926  1.570796 -0.000000 0.000000
59  1.941978 9.263218 -8.327020  1.570796 -0.000000 0.000000
60  -0.004311 0.001229 -0.000372  0.006898 -0.005534 -0.284229
61  0.826810 11.791080 -4.879054  1.570796 -0.000000 0.000000
62  0.000000 0.000000 0.000000  -0.078727 -3.136056 0.284226
63  -1.923794 -1.699245 -0.667801  1.570796 -0.000000 0.000000
64  -1.902102 -10.318010 -3.860282  1.562030 -0.003919 0.007788
65  -0.000001 1.459181 2.741114  0.436332 0.000000 0.000000
66  -0.000002 2.036820 2.816265  0.049949 0.000000 0.000000
67  0.000000 2.151127 1.118581  -0.000000 0.000000 0.000000
68  -0.000000 1.691831 -0.423392  -0.876616 0.001126 0.000617
69  -0.190807 1.634964 3.156576  0.029475 0.000000 -0.000000
70  -0.000000 2.606070 7.210409  -0.035921 -0.000000 0.000000
71  -1.901326 -11.277091 -2.151900  1.562030 -0.003919 0.007788
72  -0.068590 -0.065953 -0.011621  -0.000000 0.000000 0.000000
73  -0.137660 -0.609178 -0.193564  -0.000000 0.000000 0.000000
time 2
0  0.000006 0.000000 0.000000  -1.570800 -1.391899 -1.570792
1  -9.841317 -7.634221 1.937669  -1.544956 -1.855077 -0.198630
2  6.027524 -0.000328 0.000190  -0.728921 -1.449472 -1.252413
3  11.692111 0.000644 -0.000739  -0.990405 0.000000 -0.980439
4  11.480723 0.000594 -0.000433  1.115404 -0.306209 0.202473
5  3.666628 -0.163903 -1.204802  -0.458263 0.335584 -1.333198
6  1.312590 0.000008 0.000007  -0.086019 0.061891 -0.543338
7  0.729356 0.000055 0.000048  -0.058916 -0.035969 -0.432747
8  3.942141 0.046331 -0.431543  -0.169699 0.322144 -1.337741
9  1.539110 0.000083 0.000004  -0.004294 0.014762 -0.268897
10  1.196333 0.000144 0.000028  -0.001447 0.000349 -0.969204
11  3.883511 -0.047212 0.431351  0.023790 0.355799 -1.066067
12  1.719573 -0.000030 0.000017  0.001531 -0.002562 -0.619004
13  1.209179 0.000089 0.000012  0.001090 0.002463 -0.564593
14  3.859678 -0.138417 1.332379  -0.064236 0.489541 -0.966403
15  1.719448 -0.000019 0.000029  0.001411 0.001748 -0.394599
16  1.099675 0.000049 0.000005  -0.000954 0.002407 -0.611174
17  0.473660 -0.390763 1.407067  -1.497917 -0.373857 -0.256047
18  1.789820 -0.000004 -0.000016  -0.004966 -0.001297 0.021916
19  1.207016 -0.000012 -0.000044  -0.005914 0.000538 1.042760
20  5.740636 0.000390 -0.000699  -0.105197 0.000003 0.000063
21  11.481154 0.000298 -0.000740  -0.080354 -0.049308 0.013054
22  6.027524 -0.000329 0.000201  1.574100 -0.121363 1.861897
23  -0.000000 11.692099 -0.000007  -0.707806 -0.220411 -0.581892
24  0.000003 0.000008 0.000000  -0.121333 -0.000031 1.570738
25  -0.000001 -0.000012 0.000000  0.868960 0.000002 1.570712
26  -6.899342 -10.734701 0.826813  1.473120 1.855075 -0.198639
27  6.027516 -0.000262 -0.000217  1.568500 1.190308 -0.684172
28  11.691990 0.000163 0.000859  0.139895 0.000023 -1.112260
29  11.480601 0.000016 0.000826  -1.293239 0.576239 0.547910
30  3.710775 -0.434234 1.096849  0.954920 0.085663 -2.021677
31  1.312560 0.000031 0.000000  0.002279 -0.063315 -0.206753
32  0.729347 0.000065 -0.000028  -0.115514 -0.145586 -1.178526
33  3.820806 -0.154609 0.327900  0.699185 -0.148327 -1.609172
34  1.539094 0.000004 -0.000002  0.047757 -0.047307 -0.905096
35  1.196302 0.000079 -0.000003  -0.020793 -0.009974 -1.281773
36  3.882446 -0.171892 -0.416804  0.585365 -0.256752 -1.273775
37  1.719565 -0.000083 -0.000004  0.009232 -0.075542 -1.265579
38  1.209193 0.000033 0.000011  0.002862 -0.003398 -0.994103
39  3.859584 -0.149081 -1.331322  0.074740 -0.191325 -0.464905
40  1.719412 -0.000097 -0.000038  0.025543 0.027311 -1.183333
41  1.099673 0.000023 0.000006  -0.008063 -0.008109 -0.707229
42  0.230503 -0.805067 -1.086893  1.111612 0.594062 -0.578210
43  1.789780 -0.000007 -0.000042  -0.089312 -0.070323 0.368341
44  1.206996 -0.000007 0.000005  0.000678 -0.214508 0.376132
45  5.740572 0.000079 0.000720  0.094934 -0.000014 0.000028
46  11.481064 0.000077 0.000910  0.026550 0.103983 0.080016
47  6.027515 -0.000273 -0.000229  -1.274927 -0.242861 -1.587201
48  -0.000001 11.691976 -0.000008  -0.792625 0.278397 0.646117
49  0.000004 -0.000000 0.000000  2.412441 -0.000036 1.570860
50  -0.000008 -0.000013 0.000005  2.272645 -0.000036 1.570861
51  -2.518562 -7.728838 -5.280908  -0.128974 -2.849091 1.238994
52  0.000000 -0.000000 0.000000  0.008153 -0.000259 0.000009
53  -0.000000 -0.000000 0.000000  1.565115 0.043565 -0.106862
54  0.336678 -9.454954 -6.240730  -0.505097 -0.270550 -2.048328
55  -0.000000 0.000001 -0.000000  0.000000 -0.000001 -0.000002
56  0.000029 0.000030 0.000001  -1.571902 -0.044449 -0.106509
57  12.000549 -19.544212 -17.246658  1.570796 -0.000000 0.000000
58  -15.417984 4.000748 -22.641926  1.570796 -0.000000 0.000000
59  1.941978 9.263218 -8.327020  1.570796 -0.000000 0.000000
60  -0.004311 0.001229 -0.000372  0.006898 -0.005534 -0.284229
61  0.826810 11.791080 -4.879054  1.570796 -0.000000 0.000000
62  0.000000 0.000000 0.000000  -0.078727 -3.136056 0.284226
63  -1.923794 -1.699245 -0.667801  1.570796 -0.000000 0.000000
64  -1.913526 -10.162842 -3.858045  1.535615 -0.007948 -0.002428
65  -0.000001 1.459181 2.741114  0.436332 0.000000 -0.000000
66  -0.000001 2.036821 2.816264  0.049949 0.000000 -0.000000
67  0.000000 2.151127 1.118580  0.000000 0.000000 -0.000000
68  -0.000000 1.691832 -0.423393  -0.876616 0.001126 0.000617
69  -0.190807 1.634965 3.156577  0.029475 0.000000 -0.000000
70  -0.000000 2.606070 7.210409  -0.035921 -0.000000 0.000000
71  -1.929519 -11.076408 -2.124969  1.535615 -0.007948 -0.002428
72  -0.068590 -0.065953 -0.011619  0.000000 0.000000 -0.000000
73  -0.137660 -0.609178 -0.193564  0.000000 0.000000 -0.000000
time 3
0  0.000006 0.000000 0.000000  -1.570800 -1.391899 -1.570792
1  -9.841317 -7.634221 1.937669  -1.544956 -1.855077 -0.198630
2  6.027524 -0.000329 0.000190  -0.666071 -1.455188 -1.314114
3  11.692112 0.000644 -0.000738  -0.990403 0.000001 -0.957659
4  11.480856 0.000623 -0.000385  1.101892 -0.289011 0.194322
5  3.666627 -0.163904 -1.204802  -0.458263 0.335584 -1.333198
6  1.312590 0.000010 0.000008  -0.086019 0.061891 -0.543338
7  0.729356 0.000053 0.000050  -0.058916 -0.035969 -0.432747
8  3.942141 0.046331 -0.431543  -0.169699 0.322144 -1.337740
9  1.539110 0.000084 0.000004  -0.004294 0.014762 -0.268897
10  1.196333 0.000146 0.000028  -0.001447 0.000349 -0.969204
11  3.883512 -0.047212 0.431351  0.023790 0.355799 -1.066067
12  1.719573 -0.000026 0.000017  0.001531 -0.002562 -0.619004
13  1.209179 0.000090 0.000011  0.001090 0.002463 -0.564593
14  3.859678 -0.138418 1.332380  -0.064236 0.489541 -0.966403
15  1.719448 -0.000019 0.000029  0.001411 0.001748 -0.394599
16  1.099675 0.000050 0.000006  -0.000954 0.002407 -0.611174
17  0.473658 -0.390764 1.407068  -1.497917 -0.373857 -0.256047
18  1.789819 -0.000004 -0.000016  -0.004966 -0.001297 0.021916
19  1.207017 -0.000012 -0.000044  -0.005914 0.000538 1.042760
20  5.740635 0.000389 -0.000699  -0.106379 0.000003 0.000064
21  11.481180 0.000303 -0.000730  -0.083672 -0.045940 0.011625
22  6.027524 -0.000329 0.000201  1.566646 -0.115618 1.863487
23  -0.000001 11.692099 -0.000007  -0.692871 -0.210933 -0.570381
24  0.000001 0.000008 -0.000000  -0.121332 -0.000031 1.570738
25  -0.000002 -0.000011 0.000000  0.868960 0.000002 1.570712
26  -6.899342 -10.734701 0.826813  1.473120 1.855075 -0.198639
27  6.027516 -0.000262 -0.000217  1.571121 1.198969 -0.682184
28  11.691992 0.000162 0.000859  0.139894 0.000022 -1.095282
29  11.480714 0.000070 0.000820  -1.305863 0.579361 0.544888
30  3.710774 -0.434234 1.096849  0.954920 0.085663 -2.021677
31  1.312560 0.000031 -0.000001  0.002279 -0.063315 -0.206753
32  0.729347 0.000065 -0.000027  -0.115515 -0.145586 -1.178526
33  3.820806 -0.154608 0.327900  0.699185 -0.148327 -1.609172
34  1.539095 0.000005 -0.000002  0.047757 -0.047307 -0.905096
35  1.196302 0.000081 -0.000004  -0.020793 -0.009974 -1.281773
36  3.882444 -0.171891 -0.416804  0.585365 -0.256752 -1.273775
37  1.719564 -0.000083 -0.000004  0.009232 -0.075542 -1.265579
38  1.209193 0.000033 0.000011  0.002862 -0.003398 -0.994103
39  3.859585 -0.149081 -1.331322  0.074740 -0.191325 -0.464905
40  1.719412 -0.000097 -0.000037  0.025543 0.027311 -1.183333
41  1.099672 0.000022 0.000006  -0.008063 -0.008109 -0.707229
42  0.230504 -0.805067 -1.086893  1.111612 0.594062 -0.578210
43  1.789780 -0.000007 -0.000042  -0.089312 -0.070323 0.368341
44  1.206995 -0.000007 0.000005  0.000678 -0.214508 0.376132
45  5.740573 0.000079 0.000721  0.091564 -0.000014 0.000028
46  11.481087 0.000088 0.000909  0.024181 0.103990 0.080101
47  6.027515 -0.000273 -0.000229  -1.281317 -0.236745 -1.586133
48  -0.000001 11.691974 -0.000008  -0.781838 0.270632 0.638080
49  0.000004 -0.000000 -0.000001  2.412441 -0.000036 1.570860
50  -0.000007 -0.000013 0.000004  2.272645 -0.000036 1.570861
51  -2.519479 -7.831709 -5.258066  -0.141681 -2.851447 1.232140
52  0.000000 0.000000 0.000000  0.008153 -0.000259 0.000009
53  -0.000000 0.000000 0.000000  1.565115 0.043565 -0.106862
54  0.306997 -9.581553 -6.259165  -0.517948 -0.269988 -2.055400
55  -0.000000 -0.000000 -0.000000  0.000000 -0.000001 -0.000002
56  0.000030 0.000028 0.000001  -1.571902 -0.044449 -0.106509
57  12.000549 -19.544212 -17.246658  1.570796 -0.000000 0.000000
58  -15.417984 4.000748 -22.641926  1.570796 -0.000000 0.000000
59  1.941978 9.263218 -8.327020  1.570796 -0.000000 0.000000
60  -0.004311 0.001229 -0.000372  0.006898 -0.005534 -0.284229
61  0.826810 11.791080 -4.879054  1.570796 -0.000000 0.000000
62  0.000000 0.000000 0.000000  -0.078727 -3.136056 0.284226
63  -1.923794 -1.699245 -0.667801  1.570796 -0.000000 0.000000
64  -1.924950 -10.280807 -3.856840  1.541761 0.002818 -0.012947
65  -0.000001 1.459181 2.741117  0.436332 0.000000 -0.000000
66  -0.000002 2.036821 2.816266  0.049949 0.000000 -0.000000
67  0.000000 2.151127 1.118581  -0.000000 0.000000 -0.000000
68  -0.000001 1.691831 -0.423390  -0.876616 0.001126 0.000617
69  -0.190807 1.634965 3.156579  0.029475 0.000000 -0.000000
70  -0.000000 2.606070 7.210409  -0.035921 -0.000000 0.000000
71  -1.932047 -11.205029 -2.129364  1.541761 0.002818 -0.012947
72  -0.068590 -0.065953 -0.011619  -0.000000 0.000000 -0.000000
73  -0.137660 -0.609178 -0.193564  -0.000000 0.000000 -0.000000
time 4
0  0.000006 0.000000 0.000000  -1.570800 -1.391899 -1.570792
1  -9.841317 -7.634221 1.937669  -1.544956 -1.855077 -0.198630
2  6.027525 -0.000329 0.000190  -0.562947 -1.463110 -1.417113
3  11.692111 0.000644 -0.000738  -0.990401 0.000002 -0.922773
4  11.480536 0.000565 -0.000475  1.088652 -0.280548 0.188330
5  3.666628 -0.163903 -1.204801  -0.458263 0.335584 -1.333198
6  1.312590 0.000009 0.000008  -0.086019 0.061891 -0.543338
7  0.729357 0.000053 0.000049  -0.058916 -0.035969 -0.432747
8  3.942141 0.046331 -0.431542  -0.169699 0.322144 -1.337740
9  1.539111 0.000083 0.000004  -0.004294 0.014762 -0.268897
10  1.196332 0.000148 0.000028  -0.001447 0.000349 -0.969204
11  3.883511 -0.047212 0.431352  0.023790 0.355799 -1.066066
12  1.719573 -0.000029 0.000016  0.001531 -0.002562 -0.619004
13  1.209179 0.000091 0.000012  0.001090 0.002463 -0.564593
14  3.859678 -0.138418 1.332380  -0.064236 0.489541 -0.966403
15  1.719448 -0.000019 0.000029  0.001411 0.001748 -0.394599
16  1.099675 0.000048 0.000006  -0.000954 0.002407 -0.611174
17  0.473660 -0.390763 1.407068  -1.497918 -0.373857 -0.256047
18  1.789819 -0.000004 -0.000017  -0.004966 -0.001297 0.021916
19  1.207016 -0.000012 -0.000044  -0.005914 0.000538 1.042760
20  5.740636 0.000389 -0.000699  -0.107903 0.000003 0.000063
21  11.481117 0.000292 -0.000748  -0.086615 -0.044341 0.010308
22  6.027524 -0.000329 0.000201  1.555833 -0.106729 1.864170
23  0.000000 11.692100 -0.000008  -0.669843 -0.196749 -0.552520
24  0.000002 0.000009 -0.000001  -0.121332 -0.000031 1.570739
25  -0.000001 -0.000011 -0.000000  0.868960 0.000002 1.570712
26  -6.899342 -10.734701 0.826813  1.473120 1.855075 -0.198639
27  6.027516 -0.000262 -0.000216  1.578302 1.216588 -0.676590
28  11.691993 0.000161 0.000859  0.139892 0.000020 -1.058797
29  11.480152 -0.000152 0.000852  -1.317788 0.563472 0.531788
30  3.710774 -0.434234 1.096849  0.954920 0.085663 -2.021677
31  1.312560 0.000032 0.000000  0.002280 -0.063315 -0.206754
32  0.729347 0.000066 -0.000028  -0.115515 -0.145586 -1.178526
33  3.820805 -0.154609 0.327900  0.699185 -0.148327 -1.609172
34  1.539094 0.000003 -0.000001  0.047757 -0.047307 -0.905096
35  1.196301 0.000080 -0.000004  -0.020793 -0.009974 -1.281773
36  3.882446 -0.171893 -0.416804  0.585365 -0.256752 -1.273775
37  1.719566 -0.000083 -0.000004  0.009232 -0.075542 -1.265579
38  1.209194 0.000034 0.000011  0.002862 -0.003398 -0.994103
39  3.859584 -0.149082 -1.331321  0.075983 -0.190232 -0.470699
40  1.719413 -0.000097 -0.000037  0.028054 0.026398 -1.083676
41  1.099673 0.000023 0.000006  -0.008515 -0.007721 -0.660574
42  0.230504 -0.805067 -1.086892  1.111612 0.594062 -0.578210
43  1.789780 -0.000006 -0.000042  -0.089312 -0.070323 0.368341
44  1.206996 -0.000006 0.000005  0.000678 -0.214508 0.376132
45  5.740573 0.000079 0.000720  0.086677 -0.000014 0.000028
46  11.480975 0.000045 0.000916  0.023449 0.100255 0.078811
47  6.027515 -0.000273 -0.000229  -1.293943 -0.223867 -1.584370
48  0.000000 11.691976 -0.000007  -0.758515 0.254232 0.620574
49  0.000003 -0.000001 0.000000  2.412441 -0.000036 1.570860
50  -0.000007 -0.000013 0.000005  2.272645 -0.000036 1.570861
51  -2.540677 -8.050089 -5.220343  -0.157068 -2.860778 1.240486
52  0.000000 -0.000000 0.000000  0.008153 -0.000259 0.000009
53  0.000001 -0.000000 0.000000  1.565115 0.043565 -0.106862
54  0.281577 -9.774555 -6.275913  -0.534497 -0.262903 -2.047031
55  0.000001 -0.000000 0.000000  0.000000 -0.000001 -0.000002
56  0.000031 0.000029 0.000002  -1.571901 -0.044449 -0.106509
57  12.000549 -19.544212 -17.246658  1.570796 -0.000000 0.000000
58  -15.417984 4.000748 -22.641926  1.570796 -0.000000 0.000000
59  1.941978 9.263218 -8.327020  1.570796 -0.000000 0.000000
60  -0.004311 0.001229 -0.000372  0.006898 -0.005534 -0.284229
61  0.826810 11.791080 -4.879054  1.570796 -0.000000 0.000000
62  0.000000 0.000000 0.000000  -0.078727 -3.136056 0.284226
63  -1.923794 -1.699245 -0.667801  1.570796 -0.000000 0.000000
64  -1.921258 -10.515620 -3.859292  1.555303 0.013850 -0.008822
65  -0.000001 1.459181 2.741113  0.218166 0.000000 -0.000000
66  -0.000002 2.036821 2.816266  0.049949 0.000000 -0.000000
67  0.000000 2.151127 1.118580  0.000000 0.000000 -0.000000
68  -0.000000 1.691831 -0.423392  -0.876616 0.001126 0.000617
69  -0.190807 1.634965 3.156577  0.029475 0.000000 -0.000000
70  -0.000000 2.606070 7.210409  -0.035921 -0.000000 0.000000
71  -1.905868 -11.463337 -2.144648  1.555303 0.013850 -0.008822
72  -0.068590 -0.065953 -0.011620  0.000000 0.000000 -0.000000
73  -0.137660 -0.609178 -0.193563  0.000000 0.000000 -0.000000
time 5
0  0.000006 0.000000 0.000000  -1.570800 -1.391899 -1.570792
1  -9.841317 -7.634221 1.937669  -1.544956 -1.855077 -0.198630
2  6.027525 -0.000329 0.000190  -0.449602 -1.470600 -1.534010
3  11.692113 0.000643 -0.000739  -0.990399 0.000003 -0.886457
4  11.480670 0.000593 -0.000432  1.089928 -0.269950 0.191379
5  3.666629 -0.163903 -1.204803  -0.458263 0.335584 -1.333198
6  1.312590 0.000009 0.000008  -0.086019 0.061891 -0.543338
7  0.729354 0.000054 0.000049  -0.058916 -0.035969 -0.432747
8  3.942142 0.046331 -0.431543  -0.169699 0.322144 -1.337741
9  1.539111 0.000083 0.000003  -0.004294 0.014762 -0.268897
10  1.196332 0.000147 0.000029  -0.001447 0.000349 -0.969204
11  3.883512 -0.047212 0.431351  0.023790 0.355799 -1.066067
12  1.719573 -0.000028 0.000017  0.001531 -0.002562 -0.619004
13  1.209179 0.000090 0.000013  0.001090 0.002463 -0.564593
14  3.859677 -0.138418 1.332379  -0.064236 0.489541 -0.966403
15  1.719448 -0.000018 0.000028  0.001411 0.001748 -0.394599
16  1.099676 0.000048 0.000006  -0.000954 0.002407 -0.611174
17  0.473660 -0.390763 1.407067  -1.497917 -0.373857 -0.256047
18  1.789819 -0.000004 -0.000016  -0.004966 -0.001297 0.021916
19  1.207016 -0.000012 -0.000044  -0.005914 0.000538 1.042760
20  5.740636 0.000387 -0.000700  -0.106376 0.000003 0.000063
21  11.481144 0.000297 -0.000739  -0.086640 -0.042353 0.011384
22  6.027524 -0.000329 0.000201  1.545714 -0.097099 1.861036
23  0.000000 11.692099 -0.000007  -0.645668 -0.182416 -0.533629
24  0.000005 0.000009 0.000000  -0.121332 -0.000031 1.570739
25  0.000001 -0.000012 0.000001  0.868960 0.000002 1.570712
26  -6.899342 -10.734701 0.826813  1.473120 1.855075 -0.198639
27  6.027517 -0.000263 -0.000216  1.583497 1.236339 -0.672353
28  11.691992 0.000161 0.000858  0.139890 0.000017 -1.017514
29  11.480446 -0.000021 0.000834  -1.311606 0.546729 0.521610
30  3.710775 -0.434234 1.096848  0.954920 0.085663 -2.021677
31  1.312560 0.000031 0.000001  0.002280 -0.063315 -0.206753
32  0.729347 0.000066 -0.000028  -0.115515 -0.145587 -1.178526
33  3.820807 -0.154609 0.327899  0.699185 -0.148327 -1.609172
34  1.539094 0.000005 -0.000002  0.047757 -0.047307 -0.905096
35  1.196302 0.000078 -0.000003  -0.020793 -0.009974 -1.281773
36  3.882445 -0.171892 -0.416805  0.585365 -0.256752 -1.273775
37  1.719566 -0.000082 -0.000005  0.009232 -0.075542 -1.265579
38  1.209193 0.000032 0.000012  0.002862 -0.003398 -0.994103
39  3.859584 -0.149081 -1.331322  0.078620 -0.187870 -0.483088
40  1.719413 -0.000098 -0.000037  0.033091 0.023555 -0.869283
41  1.099674 0.000023 0.000006  -0.009418 -0.006821 -0.560623
42  0.230504 -0.805067 -1.086893  1.111612 0.594063 -0.578210
43  1.789779 -0.000006 -0.000042  -0.089312 -0.070323 0.368341
44  1.206995 -0.000007 0.000005  0.000678 -0.214508 0.376132
45  5.740572 0.000080 0.000722  0.084945 -0.000014 0.000028
46  11.481032 0.000070 0.000912  0.025934 0.097165 0.077002
47  6.027515 -0.000273 -0.000229  -1.308790 -0.210340 -1.581826
48  -0.000002 11.691974 -0.000008  -0.731889 0.236159 0.600383
49  0.000004 0.000000 0.000001  2.412441 -0.000036 1.570860
50  -0.000007 -0.000013 0.000004  2.272645 -0.000036 1.570861
51  -2.546700 -8.289000 -5.195693  -0.157060 -2.875159 1.248208
52  -0.000001 -0.000000 -0.000000  0.008153 -0.000259 0.000009
53  0.000000 0.000000 -0.000000  1.565115 0.043565 -0.106862
54  0.293634 -9.977150 -6.261423  -0.536646 -0.248673 -2.038763
55  -0.000001 -0.000001 0.000000  0.000000 -0.000001 -0.000002
56  0.000030 0.000028 0.000001  -1.571901 -0.044449 -0.106509
57  12.000549 -19.544212 -17.246658  1.570796 -0.000000 0.000000
58  -15.417984 4.000748 -22.641926  1.570796 -0.000000 0.000000
59  1.941978 9.263218 -8.327020  1.570796 -0.000000 0.000000
60  -0.004311 0.001229 -0.000372  0.006898 -0.005534 -0.284229
61  0.826810 11.791080 -4.879054  1.570796 -0.000000 0.000000
62  0.000000 0.000000 0.000000  -0.078727 -3.136056 0.284226
63  -1.923794 -1.699245 -0.667801  1.570796 -0.000000 0.000000
64  -1.914401 -10.768023 -3.865423  1.568946 0.009296 -0.000939
65  -0.000000 1.459181 2.741114  0.000000 0.000000 -0.000000
66  -0.000001 2.036821 2.816263  0.049949 0.000000 -0.000000
67  0.000001 2.151127 1.118579  0.000000 0.000000 -0.000000
68  -0.000000 1.691831 -0.423392  -0.876616 0.001126 0.000617
69  -0.190807 1.634964 3.156576  0.029475 0.000000 -0.000000
70  -0.000000 2.606070 7.210408  -0.035921 -0.000000 0.000000
71  -1.899492 -11.738889 -2.163775  1.568946 0.009296 -0.000939
72  -0.068590 -0.065953 -0.011620  0.000000 0.000000 -0.000000
73  -0.137660 -0.609178 -0.193563  0.000000 0.000000 -0.000000
time 6
0  0.000006 0.000000 0.000000  -1.570800 -1.391899 -1.570792
1  -9.841317 -7.634221 1.937669  -1.544956 -1.855077 -0.198630
2  6.027525 -0.000329 0.000190  -0.334286 -1.476236 -1.653129
3  11.692116 0.000645 -0.000739  -0.990396 0.000004 -0.853402
4  11.480819 0.000624 -0.000385  1.098359 -0.255441 0.190981
5  3.666628 -0.163904 -1.204802  -0.458263 0.335584 -1.333198
6  1.312590 0.000010 0.000007  -0.086019 0.061891 -0.543338
7  0.729357 0.000053 0.000049  -0.058916 -0.035969 -0.432747
8  3.942141 0.046331 -0.431543  -0.169699 0.322144 -1.337740
9  1.539111 0.000083 0.000004  -0.004294 0.014762 -0.268897
10  1.196333 0.000145 0.000029  -0.001447 0.000349 -0.969204
11  3.883511 -0.047212 0.431351  0.023790 0.355799 -1.066066
12  1.719573 -0.000029 0.000018  0.001531 -0.002562 -0.619004
13  1.209179 0.000090 0.000013  0.001090 0.002463 -0.564593
14  3.859677 -0.138418 1.332380  -0.064236 0.489541 -0.966403
15  1.719448 -0.000019 0.000028  0.001411 0.001748 -0.394599
16  1.099675 0.000050 0.000005  -0.000954 0.002407 -0.611174
17  0.473659 -0.390763 1.407068  -1.497918 -0.373857 -0.256047
18  1.789819 -0.000004 -0.000016  -0.004966 -0.001297 0.021916
19  1.207017 -0.000013 -0.000044  -0.005914 0.000538 1.042760
20  5.740636 0.000389 -0.000699  -0.103272 0.000003 0.000063
21  11.481174 0.000304 -0.000730  -0.085444 -0.039320 0.012176
22  6.027524 -0.000329 0.000201  1.536732 -0.088311 1.857520
23  0.000000 11.692100 -0.000007  -0.623480 -0.169766 -0.516175
24  0.000003 0.000009 0.000000  -0.121332 -0.000030 1.570739
25  0.000000 -0.000011 0.000000  0.868960 0.000002 1.570712
26  -6.899342 -10.734701 0.826813  1.473120 1.855075 -0.198639
27  6.027517 -0.000263 -0.000216  1.585500 1.252944 -0.670580
28  11.691992 0.000161 0.000858  0.139888 0.000016 -0.981883
29  11.480619 0.000055 0.000822  -1.302057 0.538329 0.510042
30  3.710774 -0.434234 1.096849  0.954920 0.085663 -2.021677
31  1.312560 0.000030 -0.000001  0.002280 -0.063315 -0.206753
32  0.729348 0.000065 -0.000027  -0.115514 -0.145586 -1.178526
33  3.820806 -0.154608 0.327900  0.699185 -0.148327 -1.609172
34  1.539095 0.000004 -0.000002  0.047757 -0.047307 -0.905096
35  1.196302 0.000080 -0.000002  -0.020793 -0.009974 -1.281773
36  3.882446 -0.171892 -0.416804  0.585365 -0.256752 -1.273775
37  1.719565 -0.000085 -0.000005  0.009232 -0.075542 -1.265579
38  1.209193 0.000033 0.000011  0.002862 -0.003398 -0.994103
39  3.859586 -0.149082 -1.331322  0.079842 -0.186755 -0.488874
40  1.719413 -0.000097 -0.000037  0.035233 0.021718 -0.769648
41  1.099673 0.000023 0.000006  -0.009808 -0.006371 -0.513970
42  0.230504 -0.805067 -1.086893  1.111612 0.594062 -0.578210
43  1.789781 -0.000007 -0.000042  -0.089312 -0.070323 0.368341
44  1.206996 -0.000007 0.000005  0.000678 -0.214508 0.376132
45  5.740572 0.000080 0.000721  0.084393 -0.000014 0.000028
46  11.481068 0.000085 0.000910  0.028606 0.095788 0.074464
47  6.027515 -0.000273 -0.000229  -1.321767 -0.199631 -1.579308
48  -0.000001 11.691975 -0.000008  -0.708699 0.220985 0.582632
49  0.000004 -0.000000 0.000000  2.412441 -0.000036 1.570860
50  -0.000007 -0.000014 0.000004  2.272645 -0.000036 1.570861
51  -2.541985 -8.488215 -5.193719  -0.150655 -2.883744 1.250718
52  -0.000000 -0.000000 -0.000000  0.008153 -0.000259 0.000009
53  0.000000 0.000000 0.000000  1.565115 0.043565 -0.106862
54  0.314435 -10.157930 -6.245401  -0.531617 -0.239284 -2.035807
55  0.000000 0.000000 0.000001  0.000000 -0.000001 -0.000002
56  0.000031 0.000029 0.000002  -1.571902 -0.044449 -0.106509
57  12.000549 -19.544212 -17.246658  1.570796 -0.000000 0.000000
58  -15.417984 4.000748 -22.641926  1.570796 -0.000000 0.000000
59  1.941978 9.263218 -8.327020  1.570796 -0.000000 0.000000
60  -0.004311 0.001229 -0.000372  0.006898 -0.005534 -0.284229
61  0.826810 11.791080 -4.879054  1.570796 -0.000000 0.000000
62  0.000000 0.000000 0.000000  -0.078727 -3.136056 0.284226
63  -1.923794 -1.699245 -0.667801  1.570796 -0.000000 0.000000
64  -1.910708 -10.972809 -3.873393  1.575127 0.000709 0.003262
65  -0.000000 1.459181 2.741116  0.000000 0.000000 0.000000
66  -0.000001 2.036821 2.816266  0.049949 0.000000 0.000000
67  0.000001 2.151127 1.118582  0.000000 0.000000 0.000000
68  -0.000000 1.691831 -0.423391  -0.876616 0.001126 0.000617
69  -0.190807 1.634965 3.156578  0.029475 0.000000 -0.000000
70  -0.000000 2.606070 7.210411  -0.035921 -0.000000 0.000000
71  -1.906304 -11.954150 -2.177705  1.575127 0.000709 0.003262
72  -0.068590 -0.065953 -0.011620  0.000000 0.000000 0.000000
73  -0.137660 -0.609178 -0.193563  0.000000 0.000000 0.000000
time 7
0  0.000006 0.000000 0.000000  -1.570800 -1.391899 -1.570792
1  -9.841317 -7.634221 1.937669  -1.544956 -1.855077 -0.198630
2  6.027525 -0.000329 0.000190  -0.269307 -1.478499 -1.719650
3  11.692114 0.000645 -0.000740  -0.990395 0.000005 -0.836054
4  11.480908 0.000641 -0.000357  1.104880 -0.244094 0.186540
5  3.666629 -0.163904 -1.204802  -0.458263 0.335584 -1.333198
6  1.312589 0.000010 0.000008  -0.086019 0.061891 -0.543338
7  0.729357 0.000053 0.000049  -0.058916 -0.035969 -0.432747
8  3.942140 0.046330 -0.431543  -0.169699 0.322144 -1.337740
9  1.539110 0.000082 0.000003  -0.004294 0.014762 -0.268897
10  1.196332 0.000147 0.000028  -0.001447 0.000349 -0.969204
11  3.883510 -0.047212 0.431351  0.023790 0.355799 -1.066066
12  1.719573 -0.000028 0.000017  0.001531 -0.002562 -0.619004
13  1.209178 0.000091 0.000012  0.001090 0.002463 -0.564593
14  3.859677 -0.138419 1.332380  -0.064236 0.489541 -0.966403
15  1.719448 -0.000018 0.000029  0.001411 0.001748 -0.394599
16  1.099674 0.000050 0.000006  -0.000954 0.002407 -0.611174
17  0.473660 -0.390763 1.407067  -1.497917 -0.373857 -0.256047
18  1.789819 -0.000004 -0.000017  -0.004966 -0.001297 0.021916
19  1.207017 -0.000012 -0.000044  -0.005914 0.000538 1.042760
20  5.740636 0.000388 -0.000700  -0.101021 0.000003 0.000063
21  11.481193 0.000307 -0.000725  -0.084575 -0.036799 0.011961
22  6.027524 -0.000329 0.000201  1.532020 -0.083860 1.856099
23  -0.000000 11.692099 -0.000007  -0.611766 -0.163280 -0.506917
24  0.000003 0.000008 -0.000001  -0.121332 -0.000031 1.570739
25  -0.000001 -0.000011 0.000001  0.868960 0.000002 1.570712
26  -6.899342 -10.734701 0.826813  1.473120 1.855075 -0.198639
27  6.027517 -0.000263 -0.000216  1.584544 1.260102 -0.671277
28  11.691990 0.000162 0.000858  0.139887 0.000015 -0.965593
29  11.480711 0.000092 0.000818  -1.297604 0.539515 0.501928
30  3.710773 -0.434234 1.096848  0.954920 0.085663 -2.021677
31  1.312560 0.000030 0.000001  0.002280 -0.063315 -0.206754
32  0.729348 0.000065 -0.000027  -0.115515 -0.145586 -1.178526
33  3.820805 -0.154609 0.327899  0.699185 -0.148327 -1.609172
34  1.539094 0.000004 -0.000002  0.047757 -0.047307 -0.905096
35  1.196303 0.000079 -0.000003  -0.020793 -0.009974 -1.281773
36  3.882446 -0.171892 -0.416804  0.585365 -0.256752 -1.273775
37  1.719565 -0.000083 -0.000005  0.009232 -0.075542 -1.265579
38  1.209194 0.000034 0.000011  0.002862 -0.003398 -0.994103
39  3.859584 -0.149082 -1.331322  0.076222 -0.190397 -0.472764
40  1.719411 -0.000097 -0.000037  0.033774 0.022218 -0.843810
41  1.099672 0.000023 0.000006  -0.008952 -0.007343 -0.617567
42  0.230503 -0.805066 -1.086893  1.111612 0.594062 -0.578210
43  1.789780 -0.000008 -0.000042  -0.089312 -0.070323 0.368341
44  1.206996 -0.000007 0.000005  0.000678 -0.214508 0.376132
45  5.740573 0.000079 0.000720  0.084210 -0.000014 0.000028
46  11.481087 0.000093 0.000909  0.029669 0.096083 0.072591
47  6.027515 -0.000273 -0.000229  -1.327706 -0.195458 -1.577932
48  -0.000001 11.691974 -0.000006  -0.698032 0.214183 0.574418
49  0.000002 0.000000 0.000000  2.412441 -0.000036 1.570860
50  -0.000008 -0.000013 0.000005  2.272645 -0.000036 1.570861
51  -2.534692 -8.577511 -5.207723  -0.145709 -2.884004 1.248469
52  0.000000 0.000000 -0.000000  0.008153 -0.000259 0.000009
53  -0.000000 0.000000 0.000000  1.565115 0.043565 -0.106862
54  0.324898 -10.251369 -6.244089  -0.526785 -0.238336 -2.037939
55  0.000000 -0.000001 0.000000  0.000000 -0.000001 -0.000002
56  0.000030 0.000029 0.000001  -1.571901 -0.044449 -0.106509
57  12.000549 -19.544212 -17.246658  1.570796 -0.000000 0.000000
58  -15.417984 4.000748 -22.641926  1.570796 -0.000000 0.000000
59  1.941978 9.263218 -8.327020  1.570796 -0.000000 0.000000
60  -0.004311 0.001229 -0.000372  0.006898 -0.005534 -0.284229
61  0.826810 11.791080 -4.879054  1.570796 -0.000000 0.000000
62  0.000000 0.000000 0.000000  -0.078727 -3.136056 0.284226
63  -1.923794 -1.699245 -0.667801  1.570796 -0.000000 0.000000
64  -1.911986 -11.061054 -3.881363  1.573852 -0.003909 0.002275
65  -0.000000 1.459181 2.741116  -0.000000 0.000000 -0.000000
66  -0.000001 2.036821 2.816265  0.049949 0.000000 -0.000000
67  0.000000 2.151127 1.118581  -0.000000 0.000000 -0.000000
68  -0.000000 1.691831 -0.423391  -0.876616 0.001126 0.000617
69  -0.190807 1.634965 3.156579  0.029475 0.000000 -0.000000
70  -0.000000 2.606070 7.210409  -0.035921 -0.000000 0.000000
71  -1.916390 -12.040253 -2.184438  1.573852 -0.003909 0.002275
72  -0.068590 -0.065953 -0.011620  -0.000000 0.000000 -0.000000
73  -0.137660 -0.609178 -0.193562  -0.000000 0.000000 -0.000000
time 8
0  0.000006 0.000000 0.000000  -1.570800 -1.391899 -1.570792
1  -9.841317 -7.634221 1.937669  -1.544956 -1.855077 -0.198630
2  6.027525 -0.000329 0.000190  -0.277875 -1.478039 -1.710211
3  11.692113 0.000646 -0.000740  -0.990395 0.000005 -0.837894
4  11.480898 0.000638 -0.000361  1.104986 -0.242742 0.183459
5  3.666627 -0.163904 -1.204801  -0.458263 0.335584 -1.333198
6  1.312590 0.000010 0.000008  -0.086019 0.061891 -0.543338
7  0.729355 0.000055 0.000050  -0.058916 -0.035969 -0.432747
8  3.942141 0.046331 -0.431542  -0.169699 0.322144 -1.337741
9  1.539111 0.000084 0.000004  -0.004294 0.014762 -0.268897
10  1.196332 0.000146 0.000029  -0.001447 0.000349 -0.969204
11  3.883510 -0.047212 0.431351  0.023790 0.355799 -1.066066
12  1.719573 -0.000030 0.000017  0.001531 -0.002562 -0.619004
13  1.209179 0.000090 0.000012  0.001090 0.002463 -0.564593
14  3.859677 -0.138418 1.332380  -0.064236 0.489541 -0.966403
15  1.719448 -0.000019 0.000028  0.001411 0.001748 -0.394599
16  1.099674 0.000049 0.000005  -0.000954 0.002407 -0.611174
17  0.473658 -0.390764 1.407067  -1.497918 -0.373857 -0.256047
18  1.789819 -0.000004 -0.000017  -0.004966 -0.001297 0.021916
19  1.207017 -0.000012 -0.000045  -0.005914 0.000538 1.042760
20  5.740636 0.000387 -0.000699  -0.100938 0.000003 0.000063
21  11.481191 0.000306 -0.000725  -0.084638 -0.036421 0.011409
22  6.027524 -0.000329 0.000201  1.532550 -0.084608 1.856962
23  0.000002 11.692100 -0.000007  -0.613011 -0.163963 -0.507902
24  0.000003 0.000008 -0.000001  -0.121332 -0.000030 1.570739
25  0.000002 -0.000011 0.000000  0.868960 0.000002 1.570712
26  -6.899342 -10.734701 0.826813  1.473120 1.855075 -0.198639
27  6.027517 -0.000263 -0.000216  1.583039 1.258031 -0.672518
28  11.691992 0.000162 0.000859  0.139887 0.000015 -0.969018
29  11.480690 0.000082 0.000819  -1.299089 0.543329 0.500916
30  3.710775 -0.434234 1.096848  0.954920 0.085663 -2.021677
31  1.312560 0.000031 -0.000001  0.002280 -0.063315 -0.206753
32  0.729347 0.000065 -0.000027  -0.115514 -0.145586 -1.178526
33  3.820806 -0.154609 0.327899  0.699185 -0.148327 -1.609172
34  1.539094 0.000002 -0.000001  0.047757 -0.047307 -0.905096
35  1.196302 0.000079 -0.000003  -0.020793 -0.009974 -1.281773
36  3.882445 -0.171893 -0.416805  0.585365 -0.256752 -1.273775
37  1.719567 -0.000082 -0.000005  0.009232 -0.075542 -1.265579
38  1.209193 0.000033 0.000010  0.002862 -0.003398 -0.994103
39  3.859584 -0.149082 -1.331323  0.072539 -0.193981 -0.456630
40  1.719412 -0.000097 -0.000037  0.032241 0.022754 -0.917972
41  1.099673 0.000023 0.000006  -0.008001 -0.008222 -0.721166
42  0.230502 -0.805067 -1.086893  1.111612 0.594062 -0.578210
43  1.789781 -0.000007 -0.000042  -0.089312 -0.070323 0.368341
44  1.206995 -0.000007 0.000006  0.000678 -0.214508 0.376132
45  5.740573 0.000078 0.000721  0.084132 -0.000014 0.000028
46  11.481082 0.000089 0.000908  0.029224 0.096742 0.072358
47  6.027515 -0.000273 -0.000229  -1.326334 -0.197098 -1.578007
48  -0.000001 11.691978 -0.000008  -0.700278 0.215606 0.576150
49  0.000003 0.000000 -0.000000  2.412441 -0.000036 1.570860
50  -0.000008 -0.000011 0.000004  2.272645 -0.000036 1.570861
51  -2.533412 -8.559583 -5.220772  -0.145648 -2.880834 1.246295
52  -0.000001 0.000000 -0.000000  0.008153 -0.000259 0.000009
53  0.000000 -0.000000 -0.000001  1.565115 0.043565 -0.106862
54  0.321570 -10.242743 -6.254781  -0.526254 -0.241464 -2.040224
55  -0.000001 -0.000000 0.000001  0.000000 -0.000001 -0.000002
56  0.000031 0.000029 0.000002  -1.571901 -0.044449 -0.106509
57  12.000549 -19.544212 -17.246658  1.570796 -0.000000 0.000000
58  -15.417984 4.000748 -22.641926  1.570796 -0.000000 0.000000
59  1.941978 9.263218 -8.327020  1.570796 -0.000000 0.000000
60  -0.004311 0.001229 -0.000372  0.006898 -0.005534 -0.284229
61  0.826810 11.791080 -4.879054  1.570796 -0.000000 0.000000
62  0.000000 0.000000 0.000000  -0.078727 -3.136056 0.284226
63  -1.923794 -1.699245 -0.667801  1.570796 -0.000000 0.000000
64  -1.914798 -11.040444 -3.887495  1.570828 -0.002953 0.000127
65  -0.000001 1.459181 2.741113  -0.000000 -0.000000 -0.000000
66  -0.000001 2.036821 2.816263  0.049949 -0.000000 -0.000000
67  0.000000 2.151127 1.118580  -0.000000 -0.000000 -0.000000
68  -0.000000 1.691831 -0.423393  -0.876616 0.001126 0.000617
69  -0.190806 1.634964 3.156576  0.029475 0.000000 -0.000000
70  -0.000000 2.606070 7.210409  -0.035921 -0.000000 0.000000
71  -1.919693 -12.014496 -2.187610  1.570828 -0.002953 0.000127
72  -0.068590 -0.065953 -0.011620  -0.000000 -0.000000 -0.000000
73  -0.137660 -0.609178 -0.193564  -0.000000 -0.000000 -0.000000
time 9
0  0.000006 0.000000 0.000000  -1.570800 -1.391899 -1.570792
1  -9.841317 -7.634221 1.937669  -1.544956 -1.855077 -0.198630
2  6.027525 -0.000329 0.000190  -0.306948 -1.476891 -1.679870
3  11.692112 0.000645 -0.000739  -0.990396 0.000004 -0.845223
4  11.480858 0.000630 -0.000371  1.103916 -0.244445 0.181105
5  3.666628 -0.163903 -1.204802  -0.458263 0.335584 -1.333198
6  1.312590 0.000009 0.000007  -0.086019 0.061891 -0.543338
7  0.729355 0.000054 0.000049  -0.058916 -0.035969 -0.432747
8  3.942141 0.046331 -0.431543  -0.169699 0.322144 -1.337741
9  1.539111 0.000082 0.000003  -0.004294 0.014762 -0.268897
10  1.196332 0.000145 0.000029  -0.001447 0.000349 -0.969204
11  3.883510 -0.047212 0.431350  0.023790 0.355799 -1.066066
12  1.719573 -0.000030 0.000017  0.001531 -0.002562 -0.619004
13  1.209180 0.000090 0.000012  0.001090 0.002463 -0.564593
14  3.859678 -0.138418 1.332379  -0.064236 0.489541 -0.966403
15  1.719448 -0.000020 0.000029  0.001411 0.001748 -0.394599
16  1.099675 0.000049 0.000005  -0.000954 0.002407 -0.611174
17  0.473659 -0.390764 1.407068  -1.497918 -0.373857 -0.256047
18  1.789820 -0.000004 -0.000017  -0.004966 -0.001297 0.021916
19  1.207017 -0.000012 -0.000046  -0.005914 0.000538 1.042760
20  5.740635 0.000387 -0.000698  -0.101357 0.000003 0.000064
21  11.481182 0.000304 -0.000726  -0.084831 -0.036691 0.010842
22  6.027524 -0.000329 0.000201  1.534582 -0.086743 1.858183
23  0.000001 11.692099 -0.000007  -0.617963 -0.166695 -0.511818
24  0.000003 0.000008 -0.000001  -0.121332 -0.000031 1.570739
25  0.000000 -0.000012 0.000000  0.868960 0.000002 1.570712
26  -6.899342 -10.734701 0.826813  1.473120 1.855075 -0.198639
27  6.027517 -0.000263 -0.000216  1.581629 1.253507 -0.673697
28  11.691992 0.000162 0.000859  0.139888 0.000015 -0.977918
29  11.480643 0.000064 0.000820  -1.301805 0.547611 0.501910
30  3.710775 -0.434235 1.096848  0.954920 0.085663 -2.021677
31  1.312560 0.000031 -0.000001  0.002280 -0.063315 -0.206754
32  0.729348 0.000065 -0.000027  -0.115514 -0.145586 -1.178526
33  3.820807 -0.154609 0.327899  0.699185 -0.148327 -1.609172
34  1.539094 0.000003 -0.000001  0.047757 -0.047307 -0.905096
35  1.196303 0.000080 -0.000004  -0.020793 -0.009974 -1.281773
36  3.882445 -0.171892 -0.416805  0.585365 -0.256752 -1.273775
37  1.719565 -0.000083 -0.000005  0.009232 -0.075542 -1.265579
38  1.209193 0.000034 0.000011  0.002862 -0.003398 -0.994103
39  3.859585 -0.149082 -1.331322  0.072539 -0.193981 -0.456630
40  1.719413 -0.000097 -0.000037  0.032240 0.022754 -0.917972
41  1.099672 0.000022 0.000006  -0.008001 -0.008222 -0.721166
42  0.230505 -0.805067 -1.086893  1.111612 0.594062 -0.578210
43  1.789781 -0.000007 -0.000042  -0.089312 -0.070323 0.368341
44  1.206995 -0.000007 0.000005  0.000678 -0.214508 0.376132
45  5.740572 0.000079 0.000721  0.084179 -0.000013 0.000028
46  11.481072 0.000086 0.000909  0.028449 0.097470 0.072572
47  6.027515 -0.000273 -0.000229  -1.322980 -0.200235 -1.578507
48  -0.000001 11.691975 -0.000008  -0.706106 0.219322 0.580639
49  0.000003 -0.000000 0.000001  2.412441 -0.000036 1.570860
50  -0.000007 -0.000012 0.000004  2.272645 -0.000036 1.570861
51  -2.533670 -8.511552 -5.230882  -0.146508 -2.876743 1.244359
52  0.000000 -0.000000 0.000000  0.008153 -0.000259 0.000009
53  0.000000 -0.000000 -0.000000  1.565115 0.043565 -0.106862
54  0.315500 -10.204605 -6.264770  -0.526492 -0.245632 -2.042326
55  -0.000001 0.000000 -0.000000  0.000000 -0.000001 -0.000002
56  0.000030 0.000029 0.000001  -1.571901 -0.044449 -0.106509
57  12.000549 -19.544212 -17.246658  1.570796 -0.000000 0.000000
58  -15.417984 4.000748 -22.641926  1.570796 -0.000000 0.000000
59  1.941978 9.263218 -8.327020  1.570796 -0.000000 0.000000
60  -0.004311 0.001229 -0.000372  0.006898 -0.005534 -0.284229
61  0.826810 11.791080 -4.879054  1.570796 -0.000000 0.000000
62  0.000000 0.000000 0.000000  -0.078727 -3.136056 0.284226
63  -1.923794 -1.699245 -0.667801  1.570796 -0.000000 0.000000
64  -1.917610 -10.988918 -3.889947  1.567215 -0.000862 -0.002026
65  -0.000001 1.459181 2.741114  -0.000000 0.000000 -0.000000
66  -0.000001 2.036820 2.816265  0.049949 0.000000 -0.000000
67  0.000000 2.151127 1.118581  -0.000000 0.000000 -0.000000
68  -0.000000 1.691831 -0.423392  -0.876616 0.001126 0.000617
69  -0.190807 1.634964 3.156577  0.029475 0.000000 -0.000000
70  0.000000 2.606070 7.210409  -0.035921 -0.000000 0.000000
71  -1.921037 -11.956818 -2.186548  1.567215 -0.000862 -0.002026
72  -0.068590 -0.065953 -0.011620  -0.000000 0.000000 -0.000000
73  -0.137659 -0.609178 -0.193564  -0.000000 0.000000 -0.000000
time 10
0  0.000006 0.000000 0.000000  -1.570800 -1.391899 -1.570792
1  -9.841317 -7.634221 1.937669  -1.544956 -1.855077 -0.198630
2  6.027525 -0.000329 0.000190  -0.347986 -1.475281 -1.637671
3  11.692114 0.000644 -0.000738  -0.990397 0.000004 -0.856071
4  11.480804 0.000621 -0.000389  1.102530 -0.249182 0.180634
5  3.666628 -0.163904 -1.204801  -0.458263 0.335584 -1.333198
6  1.312590 0.000009 0.000008  -0.086019 0.061891 -0.543338
7  0.729355 0.000054 0.000049  -0.058916 -0.035969 -0.432747
8  3.942141 0.046331 -0.431543  -0.169699 0.322144 -1.337741
9  1.539111 0.000083 0.000004  -0.004294 0.014762 -0.268897
10  1.196333 0.000146 0.000028  -0.001447 0.000349 -0.969204
11  3.883511 -0.047212 0.431351  0.023790 0.355799 -1.066066
12  1.719573 -0.000030 0.000017  0.001531 -0.002562 -0.619004
13  1.209180 0.000090 0.000012  0.001090 0.002463 -0.564593
14  3.859677 -0.138418 1.332380  -0.064236 0.489541 -0.966403
15  1.719448 -0.000018 0.000029  0.001411 0.001748 -0.394599
16  1.099675 0.000048 0.000006  -0.000954 0.002407 -0.611174
17  0.473660 -0.390763 1.407067  -1.497918 -0.373857 -0.256047
18  1.789820 -0.000004 -0.000017  -0.004966 -0.001297 0.021916
19  1.207018 -0.000013 -0.000044  -0.005914 0.000538 1.042760
20  5.740635 0.000388 -0.000699  -0.102080 0.000003 0.000064
21  11.481170 0.000302 -0.000732  -0.084971 -0.037631 0.010518
22  6.027524 -0.000329 0.000201  1.537613 -0.089665 1.859261
23  -0.000000 11.692098 -0.000008  -0.625278 -0.170773 -0.517593
24  0.000003 0.000009 -0.000000  -0.121332 -0.000031 1.570739
25  0.000000 -0.000011 -0.000001  0.868960 0.000002 1.570712
26  -6.899342 -10.734701 0.826813  1.473120 1.855075 -0.198639
27  6.027517 -0.000263 -0.000216  1.580736 1.247950 -0.674458
28  11.691991 0.000162 0.000858  0.139888 0.000016 -0.989495
29  11.480583 0.000037 0.000824  -1.304315 0.550610 0.504630
30  3.710775 -0.434235 1.096848  0.954920 0.085663 -2.021677
31  1.312560 0.000030 -0.000001  0.002279 -0.063315 -0.206753
32  0.729348 0.000065 -0.000028  -0.115515 -0.145586 -1.178526
33  3.820806 -0.154609 0.327899  0.699185 -0.148327 -1.609172
34  1.539094 0.000001 -0.000002  0.047757 -0.047307 -0.905096
35  1.196302 0.000081 -0.000002  -0.020793 -0.009974 -1.281773
36  3.882446 -0.171893 -0.416804  0.585365 -0.256752 -1.273775
37  1.719566 -0.000083 -0.000004  0.009232 -0.075542 -1.265579
38  1.209193 0.000034 0.000011  0.002862 -0.003398 -0.994103
39  3.859585 -0.149082 -1.331322  0.072539 -0.193981 -0.456630
40  1.719413 -0.000097 -0.000037  0.032241 0.022754 -0.917972
41  1.099673 0.000024 0.000006  -0.008001 -0.008222 -0.721166
42  0.230504 -0.805067 -1.086893  1.111612 0.594062 -0.578210
43  1.789780 -0.000007 -0.000042  -0.089312 -0.070323 0.368341
44  1.206995 -0.000007 0.000005  0.000678 -0.214508 0.376132
45  5.740574 0.000079 0.000721  0.084446 -0.000014 0.000028
46  11.481063 0.000082 0.000910  0.027716 0.097983 0.073152
47  6.027515 -0.000273 -0.000229  -1.318697 -0.203890 -1.579280
48  -0.000002 11.691976 -0.000008  -0.713670 0.224193 0.586450
49  0.000004 -0.000000 -0.000000  2.412441 -0.000036 1.570860
50  -0.000007 -0.000013 0.000004  2.272645 -0.000036 1.570861
51  -2.535329 -8.448030 -5.235094  -0.147559 -2.873205 1.243651
52  0.000001 0.000000 -0.000000  0.008153 -0.000259 0.000009
53  0.000000 -0.000000 -0.000001  1.565115 0.043565 -0.106862
54  0.310003 -10.147013 -6.269820  -0.526999 -0.249280 -2.043186
55  0.000000 -0.000000 0.000001  0.000000 -0.000001 -0.000002
56  0.000031 0.000028 0.000002  -1.571901 -0.044449 -0.106509
57  12.000549 -19.544212 -17.246658  1.570796 -0.000000 0.000000
58  -15.417984 4.000748 -22.641926  1.570796 -0.000000 0.000000
59  1.941978 9.263218 -8.327020  1.570796 -0.000000 0.000000
60  -0.004311 0.001229 -0.000372  0.006898 -0.005534 -0.284229
61  0.826810 11.791080 -4.879054  1.570796 -0.000000 0.000000
62  0.000000 0.000000 0.000000  -0.078727 -3.136056 0.284226
63  -1.923794 -1.699245 -0.667801  1.570796 -0.000000 0.000000
64  -1.918888 -10.921936 -3.887961  1.564185 0.001227 -0.003011
65  -0.000001 1.459181 2.741116  -0.000000 0.000000 -0.000000
66  -0.000001 2.036821 2.816267  0.049949 0.000000 -0.000000
67  0.000000 2.151127 1.118582  -0.000000 0.000000 -0.000000
68  -0.000000 1.691831 -0.423390  -0.876616 0.001126 0.000617
69  -0.190806 1.634964 3.156578  0.029475 0.000000 -0.000000
70  -0.000000 2.606070 7.210411  -0.035921 -0.000000 0.000000
71  -1.919692 -11.884674 -2.181637  1.564185 0.001227 -0.003011
72  -0.068590 -0.065953 -0.011620  -0.000000 0.000000 -0.000000
73  -0.137660 -0.609178 -0.193563  -0.000000 0.000000 -0.000000
time 11
0  0.000006 0.000000 0.000000  -1.570800 -1.391899 -1.570792
1  -9.841317 -7.634221 1.937669  -1.544956 -1.855077 -0.198630
2  6.027525 -0.000329 0.000190  -0.392371 -1.473474 -1.592610
3  11.692113 0.000644 -0.000739  -0.990397 0.000004 -0.868199
4  11.480746 0.000609 -0.000408  1.101376 -0.255947 0.183060
5  3.666625 -0.163904 -1.204802  -0.458263 0.335584 -1.333198
6  1.312590 0.000010 0.000007  -0.086019 0.061891 -0.543338
7  0.729355 0.000055 0.000049  -0.058916 -0.035969 -0.432747
8  3.942139 0.046331 -0.431542  -0.169699 0.322144 -1.337741
9  1.539111 0.000082 0.000005  -0.004294 0.014762 -0.268897
10  1.196332 0.000145 0.000028  -0.001447 0.000349 -0.969204
11  3.883508 -0.047213 0.431351  0.023791 0.355799 -1.066066
12  1.719573 -0.000028 0.000017  0.001531 -0.002562 -0.619004
13  1.209179 0.000090 0.000012  0.001090 0.002463 -0.564593
14  3.859674 -0.138419 1.332379  -0.064236 0.489541 -0.966403
15  1.719448 -0.000019 0.000029  0.001411 0.001748 -0.394599
16  1.099675 0.000050 0.000006  -0.000954 0.002407 -0.611174
17  0.473657 -0.390764 1.407067  -1.497918 -0.373857 -0.256047
18  1.789819 -0.000004 -0.000016  -0.004966 -0.001297 0.021916
19  1.207016 -0.000012 -0.000043  -0.005914 0.000538 1.042760
20  5.740635 0.000389 -0.000699  -0.102908 0.000003 0.000063
21  11.481159 0.000300 -0.000734  -0.084962 -0.039069 0.010693
22  6.027524 -0.000329 0.000201  1.541074 -0.092769 1.859828
23  0.000000 11.692101 -0.000008  -0.633434 -0.175381 -0.524018
24  0.000003 0.000009 -0.000000  -0.121332 -0.000031 1.570739
25  0.000001 -0.000012 -0.000000  0.868960 0.000002 1.570712
26  -6.899342 -10.734701 0.826813  1.473120 1.855075 -0.198639
27  6.027517 -0.000263 -0.000216  1.580419 1.242635 -0.674751
28  11.691990 0.000160 0.000858  0.139889 0.000017 -1.001132
29  11.480522 0.000011 0.000827  -1.305144 0.551465 0.509242
30  3.710775 -0.434234 1.096848  0.954920 0.085663 -2.021677
31  1.312560 0.000031 -0.000001  0.002280 -0.063315 -0.206753
32  0.729348 0.000065 -0.000027  -0.115515 -0.145586 -1.178526
33  3.820806 -0.154608 0.327899  0.699185 -0.148327 -1.609172
34  1.539094 0.000003 -0.000001  0.047757 -0.047307 -0.905096
35  1.196302 0.000080 -0.000003  -0.020793 -0.009974 -1.281773
36  3.882446 -0.171892 -0.416804  0.585365 -0.256752 -1.273775
37  1.719565 -0.000082 -0.000004  0.009232 -0.075542 -1.265579
38  1.209193 0.000033 0.000012  0.002862 -0.003398 -0.994103
39  3.859586 -0.149082 -1.331322  0.072539 -0.193981 -0.456630
40  1.719414 -0.000097 -0.000038  0.032241 0.022754 -0.917972
41  1.099672 0.000021 0.000006  -0.008001 -0.008222 -0.721166
42  0.230504 -0.805067 -1.086894  1.111612 0.594062 -0.578210
43  1.789780 -0.000006 -0.000042  -0.089312 -0.070323 0.368341
44  1.206996 -0.000006 0.000005  0.000678 -0.214508 0.376132
45  5.740573 0.000078 0.000720  0.085038 -0.000014 0.000028
46  11.481049 0.000075 0.000910  0.027337 0.098178 0.074068
47  6.027515 -0.000273 -0.000229  -1.314490 -0.207252 -1.580131
48  -0.000000 11.691974 -0.000007  -0.721251 0.229133 0.592259
49  0.000004 0.000000 0.000000  2.412441 -0.000036 1.570860
50  -0.000007 -0.000013 0.000005  2.272645 -0.000036 1.570861
51  -2.537168 -8.383066 -5.232703  -0.148076 -2.871697 1.244290
52  0.000000 -0.000000 0.000001  0.008153 -0.000259 0.000009
53  0.000001 -0.000000 0.000000  1.565115 0.043565 -0.106862
54  0.308026 -10.081936 -6.267994  -0.527282 -0.250844 -2.042615
55  0.000000 0.000000 -0.000001  0.000000 -0.000001 -0.000002
56  0.000032 0.000029 0.000001  -1.571901 -0.044449 -0.106509
57  12.000549 -19.544212 -17.246658  1.570796 -0.000000 0.000000
58  -15.417984 4.000748 -22.641926  1.570796 -0.000000 0.000000
59  1.941978 9.263218 -8.327020  1.570796 -0.000000 0.000000
60  -0.004311 0.001229 -0.000372  0.006898 -0.005534 -0.284229
61  0.826810 11.791080 -4.879054  1.570796 -0.000000 0.000000
62  0.000000 0.000000 0.000000  -0.078727 -3.136056 0.284226
63  -1.923794 -1.699245 -0.667801  1.570796 -0.000000 0.000000
64  -1.918199 -10.854953 -3.883025  1.562914 0.002179 -0.002512
65  -0.000001 1.459181 2.741115  -0.000000 0.000000 -0.000000
66  -0.000002 2.036821 2.816265  0.049949 0.000000 -0.000000
67  0.000000 2.151127 1.118581  -0.000000 0.000000 -0.000000
68  -0.000000 1.691831 -0.423391  -0.876616 0.001126 0.000617
69  -0.190807 1.634965 3.156578  0.029475 0.000000 -0.000000
70  0.000000 2.606070 7.210410  -0.035921 -0.000000 0.000000
71  -1.916890 -11.815527 -2.175482  1.562914 0.002179 -0.002512
72  -0.068590 -0.065953 -0.011620  -0.000000 0.000000 -0.000000
73  -0.137660 -0.609178 -0.193564  -0.000000 0.000000 -0.000000
time 12
0  0.000006 0.000000 0.000000  -1.570800 -1.391899 -1.570792
1  -9.841317 -7.634221 1.937669  -1.544956 -1.855077 -0.198630
2  6.027525 -0.000329 0.000190  -0.429831 -1.471905 -1.555112
3  11.692113 0.000645 -0.000739  -0.990398 0.000003 -0.878809
4  11.480701 0.000598 -0.000423  1.099940 -0.262576 0.188595
5  3.666628 -0.163903 -1.204802  -0.458263 0.335584 -1.333198
6  1.312589 0.000010 0.000008  -0.086019 0.061891 -0.543338
7  0.729355 0.000055 0.000049  -0.058916 -0.035969 -0.432747
8  3.942141 0.046332 -0.431543  -0.169699 0.322144 -1.337740
9  1.539111 0.000082 0.000004  -0.004294 0.014762 -0.268897
10  1.196332 0.000145 0.000029  -0.001447 0.000349 -0.969204
11  3.883510 -0.047211 0.431351  0.023790 0.355799 -1.066066
12  1.719573 -0.000028 0.000017  0.001531 -0.002562 -0.619004
13  1.209179 0.000089 0.000012  0.001090 0.002463 -0.564593
14  3.859677 -0.138418 1.332380  -0.064236 0.489541 -0.966403
15  1.719448 -0.000019 0.000028  0.001411 0.001748 -0.394599
16  1.099675 0.000050 0.000006  -0.000954 0.002407 -0.611174
17  0.473658 -0.390763 1.407068  -1.497918 -0.373857 -0.256047
18  1.789819 -0.000003 -0.000018  -0.004966 -0.001297 0.021916
19  1.207017 -0.000012 -0.000046  -0.005914 0.000538 1.042760
20  5.740636 0.000387 -0.000699  -0.103767 0.000003 0.000064
21  11.481151 0.000297 -0.000738  -0.084958 -0.040598 0.011475
22  6.027524 -0.000329 0.000201  1.544149 -0.095328 1.859759
23  -0.000000 11.692099 -0.000008  -0.640549 -0.179455 -0.529612
24  0.000003 0.000009 0.000000  -0.121332 -0.000031 1.570739
25  -0.000000 -0.000012 0.000000  0.868960 0.000002 1.570712
26  -6.899342 -10.734701 0.826813  1.473120 1.855075 -0.198639
27  6.027517 -0.000263 -0.000216  1.580727 1.238751 -0.674533
28  11.691992 0.000161 0.000859  0.139890 0.000017 -1.010413
29  11.480480 -0.000007 0.000830  -1.303939 0.550336 0.516027
30  3.710776 -0.434234 1.096849  0.954920 0.085663 -2.021677
31  1.312560 0.000032 0.000000  0.002280 -0.063315 -0.206754
32  0.729348 0.000064 -0.000027  -0.115515 -0.145586 -1.178526
33  3.820806 -0.154609 0.327900  0.699185 -0.148327 -1.609172
34  1.539094 0.000002 -0.000001  0.047757 -0.047307 -0.905096
35  1.196302 0.000080 -0.000003  -0.020793 -0.009974 -1.281773
36  3.882447 -0.171892 -0.416804  0.585365 -0.256752 -1.273775
37  1.719565 -0.000083 -0.000005  0.009232 -0.075542 -1.265579
38  1.209194 0.000034 0.000011  0.002862 -0.003398 -0.994103
39  3.859585 -0.149082 -1.331321  0.072539 -0.193981 -0.456630
40  1.719413 -0.000097 -0.000037  0.032241 0.022754 -0.917972
41  1.099673 0.000024 0.000006  -0.008001 -0.008222 -0.721166
42  0.230503 -0.805067 -1.086892  1.111612 0.594062 -0.578210
43  1.789779 -0.000007 -0.000042  -0.089312 -0.070323 0.368341
44  1.206997 -0.000007 0.000005  0.000678 -0.214508 0.376132
45  5.740573 0.000078 0.000721  0.085879 -0.000014 0.000028
46  11.481041 0.000071 0.000911  0.027359 0.098106 0.075351
47  6.027515 -0.000273 -0.000229  -1.311303 -0.209570 -1.580865
48  -0.000000 11.691974 -0.000008  -0.727283 0.233103 0.596869
49  0.000002 -0.000000 0.000001  2.412441 -0.000036 1.570860
50  -0.000007 -0.000014 0.000004  2.272645 -0.000036 1.570861
51  -2.537848 -8.330131 -5.222753  -0.148198 -2.873299 1.245429
52  -0.000000 0.000000 0.000000  0.008153 -0.000259 0.000009
53  0.000000 0.000000 0.000000  1.565115 0.043565 -0.106862
54  0.309639 -10.024237 -6.259539  -0.527642 -0.249276 -2.041419
55  -0.000000 0.000000 -0.000000  0.000000 -0.000001 -0.000002
56  0.000030 0.000029 0.000001  -1.571902 -0.044449 -0.106509
57  12.000549 -19.544212 -17.246658  1.570796 -0.000000 0.000000
58  -15.417984 4.000748 -22.641926  1.570796 -0.000000 0.000000
59  1.941978 9.263218 -8.327020  1.570796 -0.000000 0.000000
60  -0.004311 0.001229 -0.000372  0.006898 -0.005534 -0.284229
61  0.826810 11.791080 -4.879054  1.570796 -0.000000 0.000000
62  0.000000 0.000000 0.000000  -0.078727 -3.136056 0.284226
63  -1.923794 -1.699245 -0.667801  1.570796 -0.000000 0.000000
64  -1.916684 -10.803427 -3.876670  1.564470 0.001781 -0.001402
65  -0.000000 1.459181 2.741115  0.000000 -0.000000 -0.000000
66  -0.000001 2.036821 2.816266  0.049949 -0.000000 -0.000000
67  0.000001 2.151127 1.118581  0.000000 -0.000000 -0.000000
68  -0.000000 1.691831 -0.423391  -0.876616 0.001126 0.000617
69  -0.190806 1.634965 3.156578  0.029475 0.000000 -0.000000
70  0.000000 2.606070 7.210411  -0.035921 -0.000000 0.000000
71  -1.914994 -11.766652 -2.170622  1.564470 0.001781 -0.001402
72  -0.068590 -0.065953 -0.011619  0.000000 -0.000000 -0.000000
73  -0.137660 -0.609178 -0.193564  0.000000 -0.000000 -0.000000
time 13
0  0.000006 0.000000 0.000000  -1.570800 -1.391899 -1.570792
1  -9.841317 -7.634221 1.937669  -1.544956 -1.855077 -0.198630
2  6.027525 -0.000329 0.000190  -0.448678 -1.471181 -1.536705
3  11.692112 0.000643 -0.000738  -0.990399 0.000003 -0.884402
4  11.480678 0.000597 -0.000429  1.098264 -0.266795 0.194569
5  3.666628 -0.163903 -1.204802  -0.458263 0.335584 -1.333198
6  1.312589 0.000010 0.000008  -0.086019 0.061891 -0.543338
7  0.729354 0.000055 0.000048  -0.058916 -0.035969 -0.432747
8  3.942142 0.046332 -0.431543  -0.169699 0.322144 -1.337740
9  1.539110 0.000083 0.000004  -0.004294 0.014762 -0.268897
10  1.196333 0.000145 0.000029  -0.001447 0.000349 -0.969204
11  3.883511 -0.047211 0.431351  0.023790 0.355799 -1.066066
12  1.719573 -0.000029 0.000018  0.001531 -0.002562 -0.619004
13  1.209180 0.000091 0.000012  0.001090 0.002463 -0.564593
14  3.859676 -0.138418 1.332380  -0.064236 0.489541 -0.966403
15  1.719448 -0.000019 0.000028  0.001411 0.001748 -0.394599
16  1.099675 0.000050 0.000006  -0.000954 0.002407 -0.611174
17  0.473659 -0.390763 1.407067  -1.497918 -0.373857 -0.256047
18  1.789820 -0.000004 -0.000016  -0.004966 -0.001297 0.021916
19  1.207017 -0.000012 -0.000045  -0.005914 0.000538 1.042760
20  5.740635 0.000390 -0.000699  -0.104451 0.000003 0.000063
21  11.481146 0.000299 -0.000739  -0.085060 -0.041677 0.012429
22  6.027524 -0.000329 0.000201  1.545771 -0.096514 1.859256
23  0.000001 11.692100 -0.000008  -0.644293 -0.181619 -0.532551
24  0.000005 0.000009 0.000000  -0.121332 -0.000030 1.570739
25  0.000001 -0.000011 -0.000001  0.868960 0.000002 1.570712
26  -6.899342 -10.734701 0.826813  1.473120 1.855075 -0.198639
27  6.027517 -0.000263 -0.000216  1.581614 1.237419 -0.673838
28  11.691992 0.000162 0.000858  0.139890 0.000017 -1.014564
29  11.480461 -0.000014 0.000833  -1.302059 0.547920 0.522197
30  3.710774 -0.434234 1.096848  0.954920 0.085663 -2.021677
31  1.312561 0.000031 0.000002  0.002280 -0.063315 -0.206753
32  0.729347 0.000065 -0.000027  -0.115514 -0.145586 -1.178526
33  3.820806 -0.154609 0.327900  0.699185 -0.148327 -1.609172
34  1.539094 0.000001 -0.000001  0.047757 -0.047307 -0.905096
35  1.196302 0.000081 -0.000003  -0.020793 -0.009974 -1.281773
36  3.882445 -0.171892 -0.416804  0.585365 -0.256752 -1.273775
37  1.719567 -0.000083 -0.000005  0.009232 -0.075542 -1.265579
38  1.209193 0.000033 0.000011  0.002862 -0.003398 -0.994103
39  3.859583 -0.149081 -1.331322  0.072539 -0.193981 -0.456630
40  1.719412 -0.000097 -0.000037  0.032241 0.022754 -0.917972
41  1.099673 0.000024 0.000006  -0.008001 -0.008222 -0.721166
42  0.230504 -0.805067 -1.086893  1.111612 0.594062 -0.578210
43  1.789780 -0.000006 -0.000042  -0.089312 -0.070323 0.368341
44  1.206996 -0.000007 0.000005  0.000678 -0.214508 0.376132
45  5.740574 0.000079 0.000721  0.086532 -0.000014 0.000028
46  11.481036 0.000070 0.000912  0.027603 0.097807 0.076516
47  6.027515 -0.000273 -0.000229  -1.310048 -0.210162 -1.581270
48  -0.000001 11.691975 -0.000007  -0.729976 0.234887 0.598925
49  0.000004 0.000000 -0.000000  2.412441 -0.000036 1.570860
50  -0.000008 -0.000014 0.000005  2.272645 -0.000036 1.570861
51  -2.537882 -8.305619 -5.208599  -0.148457 -2.876823 1.246604
52  -0.000000 0.000000 -0.000000  0.008153 -0.000259 0.000009
53  -0.000000 0.000000 0.000000  1.565115 0.043565 -0.106862
54  0.312399 -9.993021 -6.248639  -0.528423 -0.245825 -2.040121
55  0.000000 0.000001 0.000000  0.000000 -0.000001 -0.000002
56  0.000031 0.000030 0.000001  -1.571902 -0.044449 -0.106509
57  12.000549 -19.544212 -17.246658  1.570796 -0.000000 0.000000
58  -15.417984 4.000748 -22.641926  1.570796 -0.000000 0.000000
59  1.941978 9.263218 -8.327020  1.570796 -0.000000 0.000000
60  -0.004311 0.001229 -0.000372  0.006898 -0.005534 -0.284229
61  0.826810 11.791080 -4.879054  1.570796 -0.000000 0.000000
62  0.000000 0.000000 0.000000  -0.078727 -3.136056 0.284226
63  -1.923794 -1.699245 -0.667801  1.570796 -0.000000 0.000000
64  -1.915168 -10.782817 -3.870430  1.567891 0.000897 -0.000290
65  -0.000001 1.459181 2.741115  0.000000 0.000000 0.000000
66  -0.000001 2.036820 2.816266  0.049949 0.000000 0.000000
67  0.000001 2.151127 1.118581  0.000000 0.000000 0.000000
68  -0.000000 1.691831 -0.423391  -0.876616 0.001126 0.000617
69  -0.190807 1.634965 3.156578  0.029475 0.000000 -0.000000
70  -0.000000 2.606070 7.210409  -0.035921 -0.000000 0.000000
71  -1.913922 -11.751869 -2.167685  1.567891 0.000897 -0.000290
72  -0.068590 -0.065953 -0.011620  0.000000 0.000000 0.000000
73  -0.137660 -0.609178 -0.193563  0.000000 0.000000 0.000000
time 14
0  0.000006 0.000000 0.000000  -1.570800 -1.391899 -1.570792
1  -9.841317 -7.634221 1.937669  -1.544956 -1.855077 -0.198630
2  6.027525 -0.000329 0.000190  -0.446269 -1.471498 -1.539792
3  11.692112 0.000644 -0.000739  -0.990399 0.000003 -0.883901
4  11.480679 0.000595 -0.000428  1.097112 -0.267315 0.198462
5  3.666627 -0.163903 -1.204802  -0.458263 0.335584 -1.333198
6  1.312590 0.000009 0.000007  -0.086019 0.061891 -0.543338
7  0.729355 0.000056 0.000049  -0.058916 -0.035969 -0.432747
8  3.942142 0.046331 -0.431542  -0.169699 0.322144 -1.337740
9  1.539110 0.000082 0.000004  -0.004294 0.014762 -0.268897
10  1.196332 0.000146 0.000029  -0.001447 0.000349 -0.969204
11  3.883511 -0.047212 0.431351  0.023790 0.355799 -1.066066
12  1.719573 -0.000030 0.000018  0.001531 -0.002562 -0.619004
13  1.209180 0.000089 0.000012  0.001090 0.002463 -0.564593
14  3.859678 -0.138418 1.332380  -0.064236 0.489541 -0.966403
15  1.719448 -0.000019 0.000029  0.001411 0.001748 -0.394599
16  1.099675 0.000049 0.000005  -0.000954 0.002407 -0.611174
17  0.473660 -0.390763 1.407067  -1.497917 -0.373857 -0.256047
18  1.789819 -0.000004 -0.000016  -0.004966 -0.001297 0.021916
19  1.207016 -0.000012 -0.000044  -0.005914 0.000538 1.042760
20  5.740636 0.000388 -0.000700  -0.104708 0.000003 0.000063
21  11.481146 0.000298 -0.000740  -0.085205 -0.041945 0.013137
22  6.027524 -0.000329 0.000201  1.545619 -0.096147 1.858580
23  -0.000000 11.692100 -0.000008  -0.643958 -0.181424 -0.532288
24  0.000004 0.000010 -0.000001  -0.121332 -0.000031 1.570739
25  0.000000 -0.000011 -0.000000  0.868960 0.000002 1.570712
26  -6.899342 -10.734701 0.826813  1.473120 1.855075 -0.198639
27  6.027517 -0.000263 -0.000216  1.582643 1.238573 -0.673011
28  11.691992 0.000161 0.000859  0.139890 0.000017 -1.013203
29  11.480467 -0.000013 0.000830  -1.300460 0.545647 0.525505
30  3.710775 -0.434234 1.096848  0.954920 0.085663 -2.021677
31  1.312561 0.000032 -0.000001  0.002280 -0.063315 -0.206753
32  0.729348 0.000066 -0.000028  -0.115515 -0.145586 -1.178526
33  3.820806 -0.154609 0.327899  0.699185 -0.148327 -1.609172
34  1.539094 0.000004 -0.000002  0.047757 -0.047307 -0.905096
35  1.196303 0.000079 -0.000003  -0.020793 -0.009974 -1.281773
36  3.882445 -0.171892 -0.416805  0.585365 -0.256752 -1.273775
37  1.719567 -0.000084 -0.000005  0.009232 -0.075542 -1.265579
38  1.209193 0.000035 0.000011  0.002862 -0.003398 -0.994103
39  3.859584 -0.149081 -1.331322  0.072539 -0.193981 -0.456630
40  1.719414 -0.000097 -0.000037  0.032241 0.022754 -0.917972
41  1.099672 0.000023 0.000006  -0.008001 -0.008222 -0.721166
42  0.230504 -0.805067 -1.086894  1.111612 0.594062 -0.578210
43  1.789780 -0.000007 -0.000042  -0.089312 -0.070323 0.368341
44  1.206996 -0.000006 0.000005  0.000678 -0.214508 0.376132
45  5.740573 0.000078 0.000720  0.086779 -0.000014 0.000028
46  11.481037 0.000071 0.000911  0.027899 0.097485 0.077138
47  6.027515 -0.000273 -0.000229  -1.310767 -0.209188 -1.581265
48  -0.000001 11.691975 -0.000008  -0.729093 0.234302 0.598251
49  0.000003 -0.000000 0.000001  2.412441 -0.000036 1.570860
50  -0.000007 -0.000013 0.000005  2.272645 -0.000036 1.570861
51  -2.537255 -8.312423 -5.196079  -0.148712 -2.880347 1.247173
52  -0.000000 0.000000 0.000000  0.008153 -0.000259 0.000009
53  -0.000000 0.000000 -0.000000  1.565115 0.043565 -0.106862
54  0.314799 -9.994831 -6.239349  -0.529199 -0.242373 -2.039430
55  0.000000 0.000000 -0.000000  0.000000 -0.000001 -0.000002
56  0.000031 0.000030 0.000001  -1.571901 -0.044449 -0.106509
57  12.000549 -19.544212 -17.246658  1.570796 -0.000000 0.000000
58  -15.417984 4.000748 -22.641926  1.570796 -0.000000 0.000000
59  1.941978 9.263218 -8.327020  1.570796 -0.000000 0.000000
60  -0.004311 0.001229 -0.000372  0.006898 -0.005534 -0.284229
61  0.826810 11.791080 -4.879054  1.570796 -0.000000 0.000000
62  0.000000 0.000000 0.000000  -0.078727 -3.136056 0.284226
63  -1.923794 -1.699245 -0.667801  1.570796 -0.000000 0.000000
64  -1.914479 -10.793870 -3.865835  1.571310 0.000008 0.000214
65  -0.000001 1.459181 2.741115  0.000000 -0.000000 -0.000000
66  -0.000001 2.036821 2.816265  0.049949 -0.000000 -0.000000
67  0.000001 2.151127 1.118580  0.000000 -0.000000 -0.000000
68  -0.000000 1.691831 -0.423391  -0.876616 0.001126 0.000617
69  -0.190807 1.634964 3.156578  0.029475 0.000000 -0.000000
70  -0.000000 2.606070 7.210412  -0.035921 -0.000000 0.000000
71  -1.914255 -11.768741 -2.166413  1.571310 0.000008 0.000214
72  -0.068590 -0.065953 -0.011619  0.000000 -0.000000 -0.000000
73  -0.137660 -0.609178 -0.193564  0.000000 -0.000000 -0.000000
time 15
0  0.000006 0.000000 0.000000  -1.570800 -1.391899 -1.570792
1  -9.841317 -7.634221 1.937669  -1.544956 -1.855077 -0.198630
2  6.027525 -0.000329 0.000190  -0.430431 -1.472378 -1.556182
3  11.692113 0.000645 -0.000738  -0.990398 0.000003 -0.879567
4  11.480700 0.000599 -0.000422  1.097039 -0.265216 0.198896
5  3.666628 -0.163904 -1.204802  -0.458263 0.335584 -1.333198
6  1.312590 0.000010 0.000008  -0.086019 0.061891 -0.543338
7  0.729354 0.000055 0.000049  -0.058916 -0.035969 -0.432747
8  3.942140 0.046331 -0.431543  -0.169699 0.322144 -1.337740
9  1.539110 0.000083 0.000004  -0.004294 0.014762 -0.268897
10  1.196332 0.000145 0.000028  -0.001447 0.000349 -0.969204
11  3.883511 -0.047212 0.431351  0.023790 0.355799 -1.066067
12  1.719573 -0.000029 0.000017  0.001531 -0.002562 -0.619004
13  1.209180 0.000089 0.000013  0.001090 0.002463 -0.564593
14  3.859677 -0.138418 1.332380  -0.064236 0.489541 -0.966403
15  1.719448 -0.000018 0.000029  0.001411 0.001748 -0.394599
16  1.099675 0.000049 0.000005  -0.000954 0.002407 -0.611174
17  0.473659 -0.390763 1.407068  -1.497918 -0.373857 -0.256047
18  1.789819 -0.000004 -0.000017  -0.004966 -0.001297 0.021916
19  1.207017 -0.000012 -0.000045  -0.005914 0.000538 1.042760
20  5.740635 0.000389 -0.000701  -0.104532 0.000003 0.000064
21  11.481150 0.000298 -0.000739  -0.085277 -0.041551 0.013304
22  6.027524 -0.000329 0.000201  1.544335 -0.094889 1.858074
23  -0.000001 11.692099 -0.000008  -0.641057 -0.179748 -0.530011
24  0.000002 0.000009 -0.000000  -0.121332 -0.000030 1.570738
25  -0.000001 -0.000011 0.000000  0.868960 0.000002 1.570712
26  -6.899342 -10.734701 0.826813  1.473120 1.855075 -0.198639
27  6.027517 -0.000263 -0.000216  1.583377 1.240839 -0.672405
28  11.691993 0.000160 0.000858  0.139889 0.000017 -1.008838
29  11.480484 -0.000003 0.000830  -1.299929 0.544534 0.525052
30  3.710775 -0.434234 1.096848  0.954920 0.085663 -2.021677
31  1.312561 0.000032 -0.000000  0.002279 -0.063315 -0.206753
32  0.729347 0.000066 -0.000028  -0.115514 -0.145586 -1.178526
33  3.820805 -0.154608 0.327900  0.699185 -0.148327 -1.609172
34  1.539095 0.000005 -0.000002  0.047757 -0.047307 -0.905096
35  1.196302 0.000078 -0.000003  -0.020793 -0.009974 -1.281773
36  3.882445 -0.171892 -0.416804  0.585365 -0.256752 -1.273775
37  1.719566 -0.000084 -0.000005  0.009232 -0.075542 -1.265579
38  1.209193 0.000035 0.000011  0.002862 -0.003398 -0.994103
39  3.859585 -0.149082 -1.331322  0.072539 -0.193981 -0.456630
40  1.719411 -0.000097 -0.000037  0.032241 0.022754 -0.917972
41  1.099672 0.000023 0.000006  -0.008001 -0.008222 -0.721166
42  0.230503 -0.805066 -1.086893  1.111612 0.594062 -0.578210
43  1.789780 -0.000006 -0.000042  -0.089312 -0.070323 0.368341
44  1.206996 -0.000006 0.000005  0.000678 -0.214508 0.376132
45  5.740572 0.000078 0.000720  0.086620 -0.000014 0.000028
46  11.481041 0.000073 0.000911  0.028077 0.097287 0.077056
47  6.027515 -0.000273 -0.000229  -1.312443 -0.207606 -1.581007
48  -0.000001 11.691974 -0.000008  -0.726260 0.232427 0.596088
49  0.000003 -0.000001 -0.000001  2.412441 -0.000036 1.570860
50  -0.000007 -0.000013 0.000005  2.272645 -0.000036 1.570861
51  -2.536838 -8.336697 -5.189958  -0.148828 -2.881949 1.247170
52  -0.000000 0.000000 -0.000000  0.008153 -0.000259 0.000009
53  -0.000000 0.000000 0.000000  1.565115 0.043565 -0.106862
54  0.315581 -10.017579 -6.234690  -0.529551 -0.240804 -2.039379
55  0.000001 0.000000 -0.000000  0.000000 -0.000001 -0.000002
56  0.000031 0.000029 0.000001  -1.571901 -0.044449 -0.106509
57  12.000549 -19.544212 -17.246658  1.570796 -0.000000 0.000000
58  -15.417984 4.000748 -22.641926  1.570796 -0.000000 0.000000
59  1.941978 9.263218 -8.327020  1.570796 -0.000000 0.000000
60  -0.004311 0.001229 -0.000372  0.006898 -0.005534 -0.284229
61  0.826810 11.791080 -4.879054  1.570796 -0.000000 0.000000
62  0.000000 0.000000 0.000000  -0.078727 -3.136056 0.284226
63  -1.923794 -1.699245 -0.667801  1.570796 -0.000000 0.000000
64  -1.914681 -10.820230 -3.863321  1.572865 -0.000396 0.000180
65  -0.000000 1.459181 2.741115  0.000000 -0.000000 0.000000
66  -0.000001 2.036821 2.816265  0.049949 -0.000000 0.000000
67  0.000001 2.151127 1.118580  0.000000 -0.000000 0.000000
68  -0.000000 1.691831 -0.423391  -0.876616 0.001126 0.000617
69  -0.190806 1.634964 3.156578  0.029475 0.000000 -0.000000
70  0.000000 2.606070 7.210410  -0.035921 -0.000000 0.000000
71  -1.915176 -11.797741 -2.165416  1.572865 -0.000396 0.000180
72  -0.068590 -0.065953 -0.011620  0.000000 -0.000000 0.000000
73  -0.137660 -0.609178 -0.193563  0.000000 -0.000000 0.000000
time 16
0  0.000006 0.000000 0.000000  -1.570800 -1.391899 -1.570792
1  -9.841317 -7.634221 1.937669  -1.544956 -1.855077 -0.198630
2  6.027525 -0.000329 0.000190  -0.407618 -1.473451 -1.579351
3  11.692112 0.000644 -0.000739  -0.990398 0.000004 -0.873362
4  11.480723 0.000605 -0.000413  1.098075 -0.261945 0.196320
5  3.666628 -0.163902 -1.204801  -0.458263 0.335584 -1.333198
6  1.312590 0.000009 0.000008  -0.086019 0.061891 -0.543338
7  0.729356 0.000053 0.000049  -0.058916 -0.035969 -0.432747
8  3.942141 0.046333 -0.431543  -0.169699 0.322144 -1.337741
9  1.539111 0.000083 0.000004  -0.004294 0.014762 -0.268897
10  1.196333 0.000145 0.000029  -0.001447 0.000349 -0.969204
11  3.883511 -0.047210 0.431351  0.023790 0.355799 -1.066067
12  1.719573 -0.000029 0.000017  0.001531 -0.002562 -0.619004
13  1.209180 0.000090 0.000013  0.001090 0.002463 -0.564593
14  3.859678 -0.138416 1.332380  -0.064236 0.489541 -0.966403
15  1.719448 -0.000020 0.000029  0.001411 0.001748 -0.394599
16  1.099675 0.000050 0.000006  -0.000954 0.002407 -0.611174
17  0.473660 -0.390762 1.407068  -1.497918 -0.373857 -0.256047
18  1.789819 -0.000004 -0.000017  -0.004966 -0.001297 0.021916
19  1.207016 -0.000013 -0.000043  -0.005914 0.000538 1.042760
20  5.740635 0.000387 -0.000699  -0.104037 0.000003 0.000063
21  11.481153 0.000300 -0.000736  -0.085217 -0.040795 0.012962
22  6.027524 -0.000329 0.000201  1.542487 -0.093234 1.857781
23  -0.000000 11.692099 -0.000008  -0.636899 -0.177359 -0.526744
24  0.000003 0.000009 0.000000  -0.121332 -0.000030 1.570739
25  0.000000 -0.000012 -0.000000  0.868960 0.000002 1.570712
26  -6.899342 -10.734701 0.826813  1.473120 1.855075 -0.198639
27  6.027517 -0.000263 -0.000216  1.583802 1.243441 -0.672041
28  11.691991 0.000161 0.000859  0.139889 0.000017 -1.003154
29  11.480513 0.000009 0.000828  -1.300443 0.544349 0.521331
30  3.710775 -0.434235 1.096848  0.954920 0.085663 -2.021677
31  1.312560 0.000029 0.000000  0.002280 -0.063315 -0.206753
32  0.729348 0.000065 -0.000026  -0.115514 -0.145586 -1.178526
33  3.820807 -0.154609 0.327899  0.699185 -0.148327 -1.609172
34  1.539094 0.000003 -0.000001  0.047757 -0.047307 -0.905096
35  1.196303 0.000081 -0.000003  -0.020793 -0.009974 -1.281773
36  3.882446 -0.171892 -0.416804  0.585365 -0.256752 -1.273775
37  1.719565 -0.000083 -0.000005  0.009232 -0.075542 -1.265579
38  1.209193 0.000034 0.000010  0.002862 -0.003398 -0.994103
39  3.859585 -0.149082 -1.331322  0.072539 -0.193981 -0.456630
40  1.719412 -0.000097 -0.000037  0.032241 0.022754 -0.917972
41  1.099672 0.000023 0.000006  -0.008001 -0.008222 -0.721166
42  0.230504 -0.805067 -1.086893  1.111612 0.594062 -0.578210
43  1.789780 -0.000007 -0.000042  -0.089312 -0.070323 0.368341
44  1.206995 -0.000007 0.000005  0.000678 -0.214508 0.376132
45  5.740573 0.000080 0.000721  0.086167 -0.000014 0.000028
46  11.481047 0.000076 0.000910  0.028136 0.097177 0.076369
47  6.027515 -0.000273 -0.000229  -1.314453 -0.205898 -1.580632
48  -0.000001 11.691975 -0.000007  -0.722566 0.229995 0.593265
49  0.000004 0.000000 0.000001  2.412441 -0.000036 1.570860
50  -0.000008 -0.000014 0.000005  2.272645 -0.000036 1.570861
51  -2.537235 -8.368822 -5.189935  -0.148752 -2.881408 1.247077
52  0.000001 -0.000000 -0.000000  0.008153 -0.000259 0.000009
53  0.000000 -0.000000 -0.000001  1.565115 0.043565 -0.106862
54  0.314953 -10.050472 -6.234058  -0.529396 -0.241329 -2.039490
55  -0.000001 0.000000 -0.000000  0.000000 -0.000001 -0.000002
56  0.000031 0.000030 0.000001  -1.571902 -0.044449 -0.106509
57  12.000549 -19.544212 -17.246658  1.570796 -0.000000 0.000000
58  -15.417984 4.000748 -22.641926  1.570796 -0.000000 0.000000
59  1.941978 9.263218 -8.327020  1.570796 -0.000000 0.000000
60  -0.004311 0.001229 -0.000372  0.006898 -0.005534 -0.284229
61  0.826810 11.791080 -4.879054  1.570796 -0.000000 0.000000
62  0.000000 0.000000 0.000000  -0.078727 -3.136056 0.284226
63  -1.923794 -1.699245 -0.667801  1.570796 -0.000000 0.000000
64  -1.915125 -10.851689 -3.862031  1.572328 -0.000293 0.000107
65  -0.000000 1.459181 2.741115  0.000000 -0.000000 -0.000000
66  -0.000001 2.036821 2.816267  0.049949 -0.000000 -0.000000
67  0.000001 2.151127 1.118582  0.000000 -0.000000 -0.000000
68  -0.000000 1.691831 -0.423390  -0.876616 0.001126 0.000617
69  -0.190807 1.634964 3.156578  0.029475 0.000000 -0.000000
70  0.000000 2.606070 7.210411  -0.035921 -0.000000 0.000000
71  -1.915517 -11.828290 -2.163602  1.572328 -0.000293 0.000107
72  -0.068590 -0.065953 -0.011619  0.000000 -0.000000 -0.000000
73  -0.137660 -0.609178 -0.193564  0.000000 -0.000000 -0.000000
time 17
0  0.000006 0.000000 0.000000  -1.570800 -1.391899 -1.570792
1  -9.841317 -7.634221 1.937669  -1.544956 -1.855077 -0.198630
2  6.027525 -0.000329 0.000190  -0.387238 -1.474322 -1.599955
3  11.692112 0.000644 -0.000739  -0.990398 0.000004 -0.867906
4  11.480749 0.000610 -0.000406  1.099208 -0.259007 0.193460
5  3.666627 -0.163903 -1.204802  -0.458263 0.335584 -1.333198
6  1.312590 0.000009 0.000007  -0.086019 0.061891 -0.543338
7  0.729355 0.000055 0.000049  -0.058916 -0.035969 -0.432747
8  3.942141 0.046331 -0.431543  -0.169699 0.322144 -1.337740
9  1.539111 0.000082 0.000004  -0.004294 0.014762 -0.268897
10  1.196332 0.000146 0.000029  -0.001447 0.000349 -0.969204
11  3.883511 -0.047212 0.431351  0.023790 0.355799 -1.066066
12  1.719573 -0.000028 0.000017  0.001531 -0.002562 -0.619004
13  1.209179 0.000088 0.000012  0.001090 0.002463 -0.564593
14  3.859677 -0.138417 1.332380  -0.064236 0.489541 -0.966403
15  1.719448 -0.000021 0.000029  0.001411 0.001748 -0.394599
16  1.099676 0.000049 0.000005  -0.000954 0.002407 -0.611174
17  0.473659 -0.390763 1.407068  -1.497918 -0.373857 -0.256047
18  1.789819 -0.000004 -0.000017  -0.004966 -0.001297 0.021916
19  1.207017 -0.000012 -0.000044  -0.005914 0.000538 1.042760
20  5.740636 0.000390 -0.000699  -0.103555 0.000003 0.000064
21  11.481161 0.000300 -0.000734  -0.085132 -0.040091 0.012552
22  6.027524 -0.000329 0.000201  1.540862 -0.091809 1.857612
23  0.000001 11.692099 -0.000008  -0.633237 -0.175270 -0.523864
24  0.000003 0.000009 0.000000  -0.121332 -0.000031 1.570739
25  -0.000000 -0.000012 0.000000  0.868960 0.000002 1.570712
26  -6.899342 -10.734701 0.826813  1.473120 1.855075 -0.198639
27  6.027517 -0.000263 -0.000216  1.584035 1.245597 -0.671834
28  11.691992 0.000162 0.000859  0.139889 0.000016 -0.998267
29  11.480537 0.000018 0.000827  -1.301099 0.544467 0.517485
30  3.710775 -0.434235 1.096849  0.954920 0.085663 -2.021677
31  1.312561 0.000031 0.000000  0.002279 -0.063315 -0.206753
32  0.729347 0.000064 -0.000027  -0.115515 -0.145586 -1.178526
33  3.820805 -0.154608 0.327899  0.699185 -0.148327 -1.609172
34  1.539095 0.000003 -0.000002  0.047757 -0.047307 -0.905096
35  1.196303 0.000082 -0.000003  -0.020793 -0.009974 -1.281773
36  3.882444 -0.171891 -0.416804  0.585365 -0.256752 -1.273775
37  1.719565 -0.000084 -0.000005  0.009232 -0.075542 -1.265579
38  1.209194 0.000034 0.000011  0.002862 -0.003398 -0.994103
39  3.859584 -0.149082 -1.331322  0.072539 -0.193981 -0.456630
40  1.719413 -0.000097 -0.000037  0.032241 0.022754 -0.917972
41  1.099673 0.000024 0.000006  -0.008001 -0.008222 -0.721166
42  0.230503 -0.805067 -1.086893  1.111612 0.594062 -0.578210
43  1.789781 -0.000007 -0.000042  -0.089312 -0.070323 0.368341
44  1.206995 -0.000007 0.000005  0.000678 -0.214508 0.376132
45  5.740573 0.000078 0.000720  0.085734 -0.000014 0.000028
46  11.481051 0.000076 0.000911  0.028156 0.097117 0.075657
47  6.027515 -0.000273 -0.000229  -1.316143 -0.204513 -1.580301
48  -0.000001 11.691976 -0.000007  -0.719387 0.227913 0.590832
49  0.000003 0.000001 0.000000  2.412441 -0.000036 1.570860
50  -0.000008 -0.000014 0.000005  2.272645 -0.000036 1.570861
51  -2.537749 -8.396458 -5.191813  -0.148611 -2.880404 1.246967
52  -0.000001 0.000000 0.000000  0.008153 -0.000259 0.000009
53  -0.000001 0.000000 -0.000000  1.565115 0.043565 -0.106862
54  0.314117 -10.079359 -6.234805  -0.529108 -0.242303 -2.039633
55  -0.000000 -0.000000 0.000000  0.000000 -0.000001 -0.000002
56  0.000031 0.000029 0.000001  -1.571902 -0.044449 -0.106509
57  12.000549 -19.544212 -17.246658  1.570796 -0.000000 0.000000
58  -15.417984 4.000748 -22.641926  1.570796 -0.000000 0.000000
59  1.941978 9.263218 -8.327020  1.570796 -0.000000 0.000000
60  -0.004311 0.001229 -0.000372  0.006898 -0.005534 -0.284229
61  0.826810 11.791080 -4.879054  1.570796 -0.000000 0.000000
62  0.000000 0.000000 0.000000  -0.078727 -3.136056 0.284226
63  -1.923794 -1.699245 -0.667801  1.570796 -0.000000 0.000000
64  -1.915569 -10.878048 -3.861555  1.571333 -0.000103 0.000033
65  -0.000000 1.459181 2.741114  0.000000 -0.000000 -0.000000
66  -0.000001 2.036821 2.816265  0.049949 -0.000000 -0.000000
67  0.000001 2.151127 1.118581  0.000000 -0.000000 -0.000000
68  -0.000000 1.691831 -0.423392  -0.876616 0.001126 0.000617
69  -0.190807 1.634964 3.156576  0.029475 0.000000 -0.000000
70  0.000000 2.606070 7.210411  -0.035921 -0.000000 0.000000
71  -1.915709 -11.852957 -2.162155  1.571333 -0.000103 0.000033
72  -0.068590 -0.065953 -0.011620  0.000000 -0.000000 -0.000000
73  -0.137660 -0.609178 -0.193564  0.000000 -0.000000 -0.000000
time 18
0  0.000006 0.000000 0.000000  -1.570800 -1.391899 -1.570792
1  -9.841317 -7.634221 1.937669  -1.544956 -1.855077 -0.198630
2  6.027525 -0.000329 0.000190  -0.378372 -1.474678 -1.608899
3  11.692113 0.000645 -0.000738  -0.990397 0.000004 -0.865558
4  11.480761 0.000611 -0.000404  1.099739 -0.257730 0.192109
5  3.666627 -0.163903 -1.204802  -0.458263 0.335584 -1.333198
6  1.312590 0.000012 0.000008  -0.086019 0.061891 -0.543338
7  0.729356 0.000055 0.000049  -0.058916 -0.035969 -0.432747
8  3.942139 0.046331 -0.431543  -0.169699 0.322144 -1.337740
9  1.539110 0.000082 0.000004  -0.004294 0.014762 -0.268897
10  1.196333 0.000145 0.000030  -0.001447 0.000349 -0.969204
11  3.883509 -0.047212 0.431352  0.023791 0.355799 -1.066067
12  1.719573 -0.000029 0.000017  0.001531 -0.002562 -0.619004
13  1.209179 0.000089 0.000012  0.001090 0.002463 -0.564593
14  3.859676 -0.138417 1.332380  -0.064236 0.489541 -0.966403
15  1.719448 -0.000018 0.000029  0.001411 0.001748 -0.394599
16  1.099675 0.000048 0.000006  -0.000954 0.002407 -0.611174
17  0.473659 -0.390763 1.407068  -1.497918 -0.373857 -0.256047
18  1.789819 -0.000004 -0.000017  -0.004966 -0.001297 0.021916
19  1.207016 -0.000013 -0.000044  -0.005914 0.000538 1.042760
20  5.740636 0.000389 -0.000700  -0.103338 0.000003 0.000063
21  11.481163 0.000301 -0.000734  -0.085088 -0.039781 0.012354
22  6.027524 -0.000329 0.000201  1.540162 -0.091203 1.857557
23  0.000000 11.692100 -0.000008  -0.631660 -0.174374 -0.522622
24  0.000002 0.000008 0.000000  -0.121332 -0.000030 1.570739
25  -0.000000 -0.000012 -0.000000  0.868960 0.000002 1.570712
26  -6.899342 -10.734701 0.826813  1.473120 1.855075 -0.198639
27  6.027517 -0.000263 -0.000216  1.584105 1.246497 -0.671768
28  11.691990 0.000161 0.000858  0.139889 0.000016 -0.996189
29  11.480548 0.000021 0.000827  -1.301423 0.544575 0.515713
30  3.710775 -0.434235 1.096849  0.954920 0.085663 -2.021677
31  1.312560 0.000032 -0.000001  0.002279 -0.063315 -0.206754
32  0.729348 0.000066 -0.000027  -0.115514 -0.145586 -1.178526
33  3.820806 -0.154608 0.327900  0.699185 -0.148327 -1.609172
34  1.539095 0.000003 -0.000002  0.047757 -0.047307 -0.905096
35  1.196303 0.000080 -0.000003  -0.020793 -0.009974 -1.281773
36  3.882445 -0.171892 -0.416803  0.585365 -0.256752 -1.273775
37  1.719565 -0.000083 -0.000005  0.009232 -0.075542 -1.265579
38  1.209193 0.000034 0.000010  0.002862 -0.003398 -0.994103
39  3.859585 -0.149081 -1.331321  0.072539 -0.193981 -0.456630
40  1.719413 -0.000097 -0.000038  0.032241 0.022754 -0.917972
41  1.099674 0.000025 0.000006  -0.008001 -0.008222 -0.721166
42  0.230504 -0.805067 -1.086892  1.111612 0.594062 -0.578210
43  1.789780 -0.000007 -0.000042  -0.089312 -0.070323 0.368341
44  1.206995 -0.000007 0.000005  0.000678 -0.214508 0.376132
45  5.740573 0.000080 0.000721  0.085541 -0.000014 0.000028
46  11.481053 0.000078 0.000910  0.028158 0.097099 0.075328
47  6.027515 -0.000273 -0.000229  -1.316854 -0.203942 -1.580158
48  -0.000001 11.691975 -0.000007  -0.718033 0.227029 0.589795
49  0.000002 -0.000000 0.000000  2.412441 -0.000036 1.570860
50  -0.000007 -0.000014 0.000005  2.272645 -0.000036 1.570861
51  -2.538004 -8.408205 -5.193011  -0.148535 -2.879863 1.246914
52  0.000001 0.000000 -0.000000  0.008153 -0.000259 0.000009
53  -0.000000 0.000000 0.000001  1.565115 0.043565 -0.106862
54  0.313698 -10.091760 -6.235392  -0.528952 -0.242828 -2.039704
55  0.000001 -0.000001 0.000000  0.000000 -0.000001 -0.000002
56  0.000031 0.000029 0.000001  -1.571901 -0.044449 -0.106509
57  12.000549 -19.544212 -17.246658  1.570796 -0.000000 0.000000
58  -15.417984 4.000748 -22.641926  1.570796 -0.000000 0.000000
59  1.941978 9.263218 -8.327020  1.570796 -0.000000 0.000000
60  -0.004311 0.001229 -0.000372  0.006898 -0.005534 -0.284229
61  0.826810 11.791080 -4.879054  1.570796 -0.000000 0.000000
62  0.000000 0.000000 0.000000  -0.078727 -3.136056 0.284226
63  -1.923794 -1.699245 -0.667801  1.570796 -0.000000 0.000000
64  -1.915771 -10.889102 -3.861487  1.570796 -0.000000 0.000000
65  -0.000000 1.459181 2.741115  0.000000 -0.000000 0.000000
66  -0.000001 2.036820 2.816265  0.049949 -0.000000 0.000000
67  0.000000 2.151127 1.118581  0.000000 -0.000000 0.000000
68  -0.000000 1.691831 -0.423391  -0.876616 0.001126 0.000617
69  -0.190807 1.634964 3.156577  0.029475 0.000000 -0.000000
70  0.000000 2.606070 7.210410  -0.035921 -0.000000 0.000000
71  -1.915770 -11.863099 -2.161564  1.570796 -0.000000 0.000000
72  -0.068590 -0.065953 -0.011620  0.000000 -0.000000 0.000000
73  -0.137660 -0.609178 -0.193563  0.000000 -0.000000 0.000000
end
