version 1
nodes
0 "ValveBiped.Bip01_Spine4" -1
1 "ValveBiped.Bip01_L_Clavicle" 0
2 "ValveBiped.Bip01_L_UpperArm" 1
3 "ValveBiped.Bip01_L_Forearm" 2
4 "ValveBiped.Bip01_L_Hand" 3
5 "ValveBiped.Bip01_L_Finger4" 4
6 "ValveBiped.Bip01_L_Finger41" 5
7 "ValveBiped.Bip01_L_Finger42" 6
8 "ValveBiped.Bip01_L_Finger3" 4
9 "ValveBiped.Bip01_L_Finger31" 8
10 "ValveBiped.Bip01_L_Finger32" 9
11 "ValveBiped.Bip01_L_Finger2" 4
12 "ValveBiped.Bip01_L_Finger21" 11
13 "ValveBiped.Bip01_L_Finger22" 12
14 "ValveBiped.Bip01_L_Finger1" 4
15 "ValveBiped.Bip01_L_Finger11" 14
16 "ValveBiped.Bip01_L_Finger12" 15
17 "ValveBiped.Bip01_L_Finger0" 4
18 "ValveBiped.Bip01_L_Finger01" 17
19 "ValveBiped.Bip01_L_Finger02" 18
20 "ValveBiped.Bip01_L_Ulna" 3
21 "ValveBiped.Bip01_L_Wrist" 3
22 "rig_l_upperarm" 1
23 "rig_l_forearm" 22
24 "rig_d_l_forearm" 23
25 "rig_d_l_upperarm" 22
26 "ValveBiped.Bip01_R_Clavicle" 0
27 "ValveBiped.Bip01_R_UpperArm" 26
28 "ValveBiped.Bip01_R_Forearm" 27
29 "ValveBiped.Bip01_R_Hand" 28
30 "ValveBiped.Bip01_R_Finger4" 29
31 "ValveBiped.Bip01_R_Finger41" 30
32 "ValveBiped.Bip01_R_Finger42" 31
33 "ValveBiped.Bip01_R_Finger3" 29
34 "ValveBiped.Bip01_R_Finger31" 33
35 "ValveBiped.Bip01_R_Finger32" 34
36 "ValveBiped.Bip01_R_Finger2" 29
37 "ValveBiped.Bip01_R_Finger21" 36
38 "ValveBiped.Bip01_R_Finger22" 37
39 "ValveBiped.Bip01_R_Finger1" 29
40 "ValveBiped.Bip01_R_Finger11" 39
41 "ValveBiped.Bip01_R_Finger12" 40
42 "ValveBiped.Bip01_R_Finger0" 29
43 "ValveBiped.Bip01_R_Finger01" 42
44 "ValveBiped.Bip01_R_Finger02" 43
45 "ValveBiped.Bip01_R_Ulna" 28
46 "ValveBiped.Bip01_R_Wrist" 28
47 "rig_r_upperarm" 26
48 "rig_r_forearm" 47
49 "rig_d_r_forearm" 48
50 "rig_d_r_upperarm" 47
51 "rig_r_hand" -1
52 "rig_d_r_hand" 51
53 "rig_d_r_wrist" 52
54 "rig_l_hand" -1
55 "rig_d_l_hand" 54
56 "rig_d_l_wrist" 54
57 "rig_l_pole" -1
58 "rig_r_pole" -1
59 "rig_l_clavicle" -1
60 "rig_d_l_clavicle" 59
61 "rig_r_clavicle" -1
62 "rig_d_r_clavicle" 61
63 "Camera" -1
64 "body" -1
65 "trigger" 64
66 "bullet1" 64
67 "slide" 64
68 "hammer" 64
69 "sliderelease" 64
70 "barrel" 64
71 "mag" -1
72 "bullet2" 71
73 "bullet3" 71
end
skeleton
time 0
0  0.000006 0.000000 0.000000  -1.570800 -1.391899 -1.570792
1  -9.841317 -7.634221 1.937669  -1.544956 -1.855077 -0.198630
2  6.027525 -0.000329 0.000190  -0.378372 -1.474678 -1.608899
3  11.692113 0.000645 -0.000738  -0.990397 0.000004 -0.865558
4  11.480761 0.000611 -0.000404  1.099739 -0.257730 0.192109
5  3.666627 -0.163903 -1.204802  -0.458263 0.335584 -1.333198
6  1.312589 0.000012 0.000009  -0.086019 0.061891 -0.543338
7  0.729355 0.000054 0.000049  -0.058916 -0.035969 -0.432747
8  3.942139 0.046331 -0.431543  -0.169699 0.322144 -1.337740
9  1.539110 0.000083 0.000004  -0.004294 0.014762 -0.268897
10  1.196333 0.000145 0.000029  -0.001447 0.000349 -0.969204
11  3.883509 -0.047212 0.431352  0.023791 0.355799 -1.066067
12  1.719573 -0.000028 0.000017  0.001531 -0.002562 -0.619004
13  1.209179 0.000089 0.000012  0.001090 0.002463 -0.564593
14  3.859676 -0.138417 1.332380  -0.064236 0.489541 -0.966403
15  1.719448 -0.000017 0.000029  0.001411 0.001748 -0.394599
16  1.099675 0.000048 0.000005  -0.000954 0.002407 -0.611174
17  0.473659 -0.390763 1.407068  -1.497918 -0.373857 -0.256047
18  1.789819 -0.000004 -0.000018  -0.004966 -0.001297 0.021916
19  1.207017 -0.000012 -0.000042  -0.005914 0.000538 1.042760
20  5.740636 0.000389 -0.000700  -0.103338 0.000003 0.000063
21  11.481163 0.000301 -0.000734  -0.085088 -0.039781 0.012354
22  6.027524 -0.000329 0.000201  1.540162 -0.091203 1.857557
23  0.000000 11.692100 -0.000008  -0.631660 -0.174374 -0.522622
24  0.000002 0.000008 0.000000  -0.121332 -0.000030 1.570739
25  -0.000000 -0.000012 -0.000000  0.868960 0.000002 1.570712
26  -6.899342 -10.734701 0.826813  1.473120 1.855075 -0.198639
27  6.027517 -0.000263 -0.000216  1.584105 1.246497 -0.671768
28  11.691990 0.000161 0.000858  0.139889 0.000016 -0.996189
29  11.480548 0.000021 0.000827  -1.301423 0.544575 0.515713
30  3.710775 -0.434235 1.096849  0.954920 0.085663 -2.021677
31  1.312561 0.000030 -0.000002  0.002279 -0.063315 -0.206753
32  0.729347 0.000063 -0.000027  -0.115514 -0.145586 -1.178526
33  3.820806 -0.154608 0.327900  0.699185 -0.148327 -1.609172
34  1.539095 0.000003 -0.000002  0.047757 -0.047307 -0.905096
35  1.196302 0.000080 -0.000003  -0.020793 -0.009974 -1.281773
36  3.882445 -0.171892 -0.416803  0.585365 -0.256752 -1.273775
37  1.719566 -0.000083 -0.000006  0.009232 -0.075542 -1.265579
38  1.209193 0.000033 0.000010  0.002862 -0.003398 -0.994103
39  3.859585 -0.149081 -1.331321  0.072539 -0.193981 -0.456630
40  1.719412 -0.000097 -0.000038  0.032241 0.022754 -0.917972
41  1.099674 0.000023 0.000006  -0.008001 -0.008222 -0.721166
42  0.230504 -0.805067 -1.086892  1.111612 0.594062 -0.578210
43  1.789780 -0.000008 -0.000042  -0.089312 -0.070323 0.368341
44  1.206996 -0.000007 0.000005  0.000678 -0.214508 0.376132
45  5.740573 0.000080 0.000721  0.085541 -0.000014 0.000028
46  11.481053 0.000078 0.000910  0.028158 0.097099 0.075328
47  6.027515 -0.000273 -0.000229  -1.316854 -0.203942 -1.580158
48  -0.000001 11.691975 -0.000007  -0.718033 0.227029 0.589795
49  0.000002 -0.000000 0.000000  2.412441 -0.000036 1.570860
50  -0.000007 -0.000014 0.000005  2.272645 -0.000036 1.570861
51  -2.538004 -8.408205 -5.193011  -0.148535 -2.879863 1.246914
52  0.000001 0.000000 -0.000000  0.008153 -0.000259 0.000009
53  -0.000000 0.000000 0.000001  1.565115 0.043565 -0.106862
54  0.313698 -10.091760 -6.235392  -0.528952 -0.242828 -2.039704
55  0.000001 -0.000001 0.000000  0.000000 -0.000001 -0.000002
56  0.000031 0.000029 0.000001  -1.571901 -0.044449 -0.106509
57  12.000549 -19.544212 -17.246658  1.570796 -0.000000 0.000000
58  -15.417984 4.000748 -22.641926  1.570796 -0.000000 0.000000
59  1.941978 9.263218 -8.327020  1.570796 -0.000000 0.000000
60  -0.004311 0.001229 -0.000372  0.006898 -0.005534 -0.284229
61  0.826810 11.791080 -4.879054  1.570796 -0.000000 0.000000
62  0.000000 0.000000 0.000000  -0.078727 -3.136056 0.284226
63  0.000000 0.000000 0.000000  1.570796 -0.000000 0.000000
64  -1.915771 -10.889102 -3.861487  1.570796 -0.000000 0.000000
65  -0.000000 1.459181 2.741115  0.000000 -0.000000 0.000000
66  -0.000001 2.513705 2.840104  0.145166 -0.000000 0.000000
67  0.000000 2.151127 2.901127  0.000000 -0.000000 0.000000
68  -0.000000 1.691831 -0.423391  -0.876616 0.001126 0.000617
69  -0.190807 1.634964 3.156577  0.000000 -0.000000 0.000000
70  0.000000 2.534226 7.414033  0.000000 -0.000000 0.000000
71  -1.915770 -11.863099 -2.161564  1.570796 -0.000000 0.000000
72  0.000000 0.000000 0.000000  -0.224489 -0.000000 0.000000
73  -0.068590 -0.567718 -0.158981  -0.206057 -0.000000 0.000000
end
