version 1
nodes
0 "ValveBiped.Bip01_Spine4" -1
1 "ValveBiped.Bip01_L_Clavicle" 0
2 "ValveBiped.Bip01_L_UpperArm" 1
3 "ValveBiped.Bip01_L_Forearm" 2
4 "ValveBiped.Bip01_L_Hand" 3
5 "ValveBiped.Bip01_L_Finger4" 4
6 "ValveBiped.Bip01_L_Finger41" 5
7 "ValveBiped.Bip01_L_Finger42" 6
8 "ValveBiped.Bip01_L_Finger3" 4
9 "ValveBiped.Bip01_L_Finger31" 8
10 "ValveBiped.Bip01_L_Finger32" 9
11 "ValveBiped.Bip01_L_Finger2" 4
12 "ValveBiped.Bip01_L_Finger21" 11
13 "ValveBiped.Bip01_L_Finger22" 12
14 "ValveBiped.Bip01_L_Finger1" 4
15 "ValveBiped.Bip01_L_Finger11" 14
16 "ValveBiped.Bip01_L_Finger12" 15
17 "ValveBiped.Bip01_L_Finger0" 4
18 "ValveBiped.Bip01_L_Finger01" 17
19 "ValveBiped.Bip01_L_Finger02" 18
20 "ValveBiped.Bip01_L_Ulna" 3
21 "ValveBiped.Bip01_L_Wrist" 3
22 "rig_l_upperarm" 1
23 "rig_l_forearm" 22
24 "rig_d_l_forearm" 23
25 "rig_d_l_upperarm" 22
26 "ValveBiped.Bip01_R_Clavicle" 0
27 "ValveBiped.Bip01_R_UpperArm" 26
28 "ValveBiped.Bip01_R_Forearm" 27
29 "ValveBiped.Bip01_R_Hand" 28
30 "ValveBiped.Bip01_R_Finger4" 29
31 "ValveBiped.Bip01_R_Finger41" 30
32 "ValveBiped.Bip01_R_Finger42" 31
33 "ValveBiped.Bip01_R_Finger3" 29
34 "ValveBiped.Bip01_R_Finger31" 33
35 "ValveBiped.Bip01_R_Finger32" 34
36 "ValveBiped.Bip01_R_Finger2" 29
37 "ValveBiped.Bip01_R_Finger21" 36
38 "ValveBiped.Bip01_R_Finger22" 37
39 "ValveBiped.Bip01_R_Finger1" 29
40 "ValveBiped.Bip01_R_Finger11" 39
41 "ValveBiped.Bip01_R_Finger12" 40
42 "ValveBiped.Bip01_R_Finger0" 29
43 "ValveBiped.Bip01_R_Finger01" 42
44 "ValveBiped.Bip01_R_Finger02" 43
45 "ValveBiped.Bip01_R_Ulna" 28
46 "ValveBiped.Bip01_R_Wrist" 28
47 "rig_r_upperarm" 26
48 "rig_r_forearm" 47
49 "rig_d_r_forearm" 48
50 "rig_d_r_upperarm" 47
51 "rig_r_hand" -1
52 "rig_d_r_hand" 51
53 "rig_d_r_wrist" 52
54 "rig_l_hand" -1
55 "rig_d_l_hand" 54
56 "rig_d_l_wrist" 54
57 "rig_l_pole" -1
58 "rig_r_pole" -1
59 "rig_l_clavicle" -1
60 "rig_d_l_clavicle" 59
61 "rig_r_clavicle" -1
62 "rig_d_r_clavicle" 61
63 "Camera" -1
64 "body" -1
65 "trigger" 64
66 "bolt" 64
67 "chandle" 66
68 "barrel" 64
69 "magrel" 64
70 "boltrelease" 64
71 "mag" -1
72 "bullet1" 71
73 "bullet2" 71
74 "bullet3" 71
end
skeleton
time 0
0  0.000006 0.000000 0.000000  -1.570800 -1.391899 -1.570792
1  -4.005264 0.938027 -0.674797  -1.544956 -1.855077 -0.198630
2  6.027520 -0.000324 0.000194  -1.068234 -0.921412 -1.042461
3  11.692105 0.000644 -0.000739  -1.000169 -0.000030 -1.624993
4  11.479503 0.000154 -0.001116  0.923060 -0.660417 0.387033
5  3.859509 -0.142881 -1.192048  -0.832801 -0.004856 -1.898297
6  1.312590 0.000011 0.000008  -0.131461 -0.009191 -0.247243
7  0.729355 0.000053 0.000049  -0.005879 0.003193 -0.240629
8  3.942143 0.046272 -0.431511  -0.599048 0.209358 -1.511441
9  1.539112 0.000084 0.000005  -0.021882 -0.009207 -0.444880
10  1.196333 0.000145 0.000029  0.001886 0.006857 -0.720336
11  3.883506 -0.047270 0.431382  -0.255169 0.584126 -0.785235
12  1.719573 -0.000029 0.000017  0.039464 -0.052308 -1.096938
13  1.209178 0.000090 0.000011  -0.013101 -0.005611 -0.608919
14  4.085222 -0.082717 1.151041  0.066979 0.663140 -0.072524
15  1.719449 -0.000012 0.000023  -0.099918 0.246022 -0.769882
16  1.099675 0.000046 0.000005  -0.113949 0.032047 -1.389438
17  1.103133 -1.206770 0.707297  -0.713360 -0.747177 -0.600299
18  1.789819 -0.000002 -0.000018  -0.001117 -0.015804 0.871874
19  1.207013 -0.000012 -0.000044  0.001699 -0.000303 0.062698
20  5.740635 0.000410 -0.000702  -0.175778 0.000003 0.000071
21  11.480906 0.000244 -0.000881  -0.093401 -0.129127 0.020480
22  6.027524 -0.000330 0.000203  1.836386 -0.599981 1.650135
23  0.000003 11.692101 -0.000007  -1.103093 -0.546587 -0.854962
24  0.000003 0.000009 -0.000001  -0.131065 -0.000031 1.570739
25  -0.000000 -0.000010 -0.000001  0.868957 0.000002 1.570712
26  -3.662932 -4.026425 0.376266  1.473120 1.855075 -0.198639
27  6.027504 -0.000261 -0.000230  1.430913 0.595677 -0.276962
28  11.691991 0.000242 0.000857  0.970530 0.000073 -1.858029
29  11.479177 0.000019 0.001433  -1.632311 0.635486 0.142370
30  3.452863 -0.227594 1.051756  0.554395 -0.249329 -1.600262
31  1.312558 0.000023 -0.000001  -0.098769 0.190475 -0.745635
32  0.729343 0.000064 -0.000027  -0.040117 -0.002456 -0.806801
33  3.942045 0.050111 0.430998  0.413054 -0.141259 -1.490445
34  1.539093 0.000009 -0.000001  -0.021081 0.020361 -1.007904
35  1.196299 0.000074 -0.000004  -0.004516 -0.001755 -0.733348
36  3.883411 -0.050497 -0.431087  0.224817 -0.215783 -1.187556
37  1.719562 -0.000073 -0.000003  -0.039730 0.066729 -1.510271
38  1.209198 0.000033 0.000011  -0.006946 -0.002847 -0.369175
39  3.806437 -0.112148 -1.295331  -0.054051 -0.227834 0.117305
40  1.719414 -0.000101 -0.000035  -0.097692 0.144287 -1.589631
41  1.099674 0.000023 0.000008  -0.022826 0.002293 -0.615702
42  0.943593 -0.180488 -1.592590  1.077226 0.106495 -0.817774
43  1.789780 -0.000008 -0.000042  0.023056 0.021409 -0.019466
44  1.206997 -0.000003 0.000003  0.206835 0.095578 1.319988
45  5.740574 0.000054 0.000724  0.004321 -0.000014 0.000021
46  11.480781 0.000039 0.001036  -0.021396 0.104327 0.021603
47  6.027515 -0.000273 -0.000237  -0.794049 -0.665416 -1.286971
48  -0.000001 11.691974 -0.000005  -1.239913 0.685062 0.926522
49  0.000004 -0.000002 0.000000  -3.040130 -0.000041 1.570856
50  -0.000006 -0.000015 0.000006  2.272644 -0.000030 1.570865
51  -4.953862 -9.002222 -7.353677  3.026248 -0.171014 -1.363878
52  0.000000 -0.000000 -0.000001  0.008153 -0.000259 0.000009
53  0.000000 -0.000000 -0.000001  1.565115 0.043565 -0.106862
54  -0.670903 -15.091816 -5.941463  -0.927484 -0.099021 -1.920094
55  0.000001 -0.000000 -0.000000  0.000000 -0.000000 -0.000002
56  0.000030 0.000029 0.000001  -1.571902 -0.044449 -0.106509
57  8.174561 -15.372293 -17.467022  1.570796 -0.000000 0.000000
58  -21.089123 6.899941 -12.297750  1.570796 -0.000000 0.000000
59  -0.670483 -0.210714 -4.109488  1.570796 -0.000000 0.000000
60  -0.004311 0.001230 -0.000371  0.006898 -0.005534 -0.284229
61  0.376268 4.613964 -2.887995  1.570796 -0.000000 0.000000
62  0.000000 0.000000 0.000000  -0.078727 -3.136056 0.284226
63  0.000000 0.000000 0.000000  1.570796 -0.000000 0.000000
64  -2.808394 -6.592330 -4.111191  1.564420 0.007764 0.002128
65  0.032837 -0.689314 7.041598  0.174533 -0.000000 -0.000000
66  0.000003 0.704706 2.258055  0.000000 -0.000000 -0.000000
67  -1.069343 0.255757 -1.438860  0.000000 -0.000000 -0.000000
68  0.000004 0.704705 21.133165  0.000000 -0.000000 -0.000000
69  0.675334 -0.627302 0.013842  0.000000 -0.000000 -0.000000
70  0.799381 0.018980 -2.766580  0.000000 -0.000000 -0.000000
71  -2.779884 -7.345072 -4.752341  1.564420 0.007764 0.002128
72  0.116050 0.879029 -1.115068  0.000000 -0.000000 -0.000000
73  -0.179815 0.692454 -1.115068  0.000000 -0.000000 -0.000000
74  0.116050 0.505896 -1.115068  0.000000 -0.000000 -0.000000
time 1
0  0.000006 0.000000 0.000000  -1.570800 -1.391899 -1.570792
1  -4.005264 0.938027 -0.674797  -1.544956 -1.855077 -0.198630
2  6.027520 -0.000324 0.000194  -1.059447 -0.882108 -1.007548
3  11.692106 0.000646 -0.000740  -1.000173 -0.000040 -1.763121
4  11.480251 0.000371 -0.000779  0.872861 -0.743368 0.414884
5  3.859510 -0.142880 -1.192050  -0.832801 -0.004856 -1.898297
6  1.312591 0.000012 0.000008  -0.131461 -0.009191 -0.247243
7  0.729354 0.000054 0.000050  -0.005879 0.003194 -0.240629
8  3.942145 0.046273 -0.431512  -0.599048 0.209359 -1.511441
9  1.539111 0.000084 0.000006  -0.021882 -0.009207 -0.444880
10  1.196332 0.000145 0.000030  0.001886 0.006857 -0.720336
11  3.883505 -0.047269 0.431381  -0.255169 0.584126 -0.785235
12  1.719573 -0.000028 0.000016  0.039464 -0.052308 -1.096938
13  1.209180 0.000092 0.000013  -0.013101 -0.005610 -0.608919
14  4.085223 -0.082716 1.151041  0.066979 0.663140 -0.072524
15  1.719450 -0.000012 0.000023  -0.099918 0.246022 -0.769882
16  1.099675 0.000049 0.000007  -0.113949 0.032047 -1.389438
17  1.103133 -1.206769 0.707296  -0.685140 -0.771227 -0.641301
18  1.789819 -0.000003 -0.000018  -0.002178 -0.016625 0.943103
19  1.207015 -0.000012 -0.000044  0.001789 -0.000330 0.078116
20  5.740637 0.000410 -0.000704  -0.200813 0.000003 0.000070
21  11.481057 0.000287 -0.000815  -0.095316 -0.146986 0.016437
22  6.027524 -0.000330 0.000203  1.851342 -0.637744 1.683265
23  0.000000 11.692098 -0.000006  -1.184060 -0.627720 -0.899310
24  0.000004 0.000009 -0.000001  -0.131065 -0.000031 1.570739
25  -0.000001 -0.000011 -0.000000  0.868957 0.000002 1.570712
26  -3.662932 -4.026425 0.376266  1.473120 1.855075 -0.198639
27  6.027503 -0.000261 -0.000231  1.422216 0.521589 -0.274206
28  11.691991 0.000243 0.000856  0.970529 0.000084 -1.996490
29  11.480537 0.000524 0.000697  -1.665568 0.695992 0.165068
30  3.452864 -0.227594 1.051757  0.554395 -0.249329 -1.600262
31  1.312558 0.000024 -0.000000  -0.098769 0.190475 -0.745635
32  0.729343 0.000065 -0.000026  -0.040117 -0.002456 -0.806801
33  3.942044 0.050111 0.430999  0.413054 -0.141259 -1.490445
34  1.539093 0.000007 -0.000002  -0.021081 0.020361 -1.007904
35  1.196300 0.000075 -0.000004  -0.004516 -0.001755 -0.733348
36  3.883412 -0.050497 -0.431086  0.224817 -0.215783 -1.187556
37  1.719563 -0.000072 -0.000003  -0.039731 0.066729 -1.510271
38  1.209198 0.000034 0.000010  -0.006946 -0.002847 -0.369175
39  3.806437 -0.112148 -1.295330  -0.054051 -0.227834 0.117305
40  1.719415 -0.000102 -0.000035  -0.097692 0.144287 -1.589631
41  1.099674 0.000021 0.000008  -0.022826 0.002293 -0.615702
42  0.943594 -0.180488 -1.592590  1.077226 0.106495 -0.817774
43  1.789780 -0.000008 -0.000043  0.023056 0.021409 -0.019466
44  1.206996 -0.000003 0.000003  0.206835 0.095578 1.319988
45  5.740572 0.000056 0.000724  0.001415 -0.000014 0.000021
46  11.481052 0.000141 0.000889  -0.029413 0.115651 0.028347
47  6.027515 -0.000273 -0.000237  -0.716640 -0.709772 -1.328759
48  -0.000001 11.691974 -0.000005  -1.322990 0.770705 0.960658
49  0.000004 -0.000001 -0.000000  -3.040130 -0.000041 1.570856
50  -0.000006 -0.000015 0.000005  2.272644 -0.000030 1.570865
51  -4.992623 -7.676025 -7.269111  3.000515 -0.176238 -1.365929
52  -0.000001 -0.000001 -0.000000  0.008153 -0.000259 0.000009
53  -0.000000 0.000000 -0.000000  1.565115 0.043565 -0.106862
54  -0.716196 -13.779076 -5.895744  -0.946339 -0.116864 -1.924559
55  -0.000001 -0.000000 0.000000  0.000000 -0.000000 -0.000002
56  0.000029 0.000029 0.000001  -1.571902 -0.044449 -0.106509
57  8.174561 -15.372293 -17.467022  1.570796 -0.000000 0.000000
58  -21.089123 6.899941 -12.297750  1.570796 -0.000000 0.000000
59  -0.670483 -0.210714 -4.109488  1.570796 -0.000000 0.000000
60  -0.004311 0.001230 -0.000371  0.006898 -0.005534 -0.284229
61  0.376268 4.613964 -2.887995  1.570796 -0.000000 0.000000
62  0.000000 0.000000 0.000000  -0.078727 -3.136056 0.284226
63  0.000000 0.000000 0.000000  1.570796 -0.000000 0.000000
64  -2.755362 -5.247378 -4.103566  1.554094 0.031494 -0.004571
65  0.032837 -0.689314 7.041598  0.174533 0.000000 0.000000
66  0.000003 0.704706 -1.522920  0.000000 0.000000 0.000000
67  -1.069343 0.255757 -1.438860  0.000000 0.000000 0.000000
68  0.000003 0.704705 21.133163  0.000000 0.000000 0.000000
69  0.675334 -0.627302 0.013841  0.000000 0.000000 0.000000
70  0.799380 0.018981 -2.766580  0.000000 0.000000 0.000000
71  -2.746900 -6.006803 -4.737370  1.554094 0.031494 -0.004571
72  0.116050 0.879029 -1.115068  0.000000 0.000000 0.000000
73  -0.179815 0.692454 -1.115069  0.000000 0.000000 0.000000
74  0.116050 0.505895 -1.115068  0.000000 0.000000 0.000000
time 2
0  0.000006 0.000000 0.000000  -1.570800 -1.391899 -1.570792
1  -4.005264 0.938027 -0.674797  -1.544956 -1.855077 -0.198630
2  6.027520 -0.000324 0.000194  -1.046647 -0.897936 -1.021864
3  11.692105 0.000645 -0.000740  -1.000173 -0.000038 -1.737244
4  11.480492 0.000460 -0.000641  0.871295 -0.729644 0.385387
5  3.859509 -0.142879 -1.192049  -0.832801 -0.004856 -1.898297
6  1.312590 0.000012 0.000009  -0.131461 -0.009191 -0.247243
7  0.729354 0.000053 0.000050  -0.005879 0.003193 -0.240629
8  3.942144 0.046273 -0.431512  -0.599048 0.209358 -1.511441
9  1.539111 0.000086 0.000005  -0.021882 -0.009207 -0.444880
10  1.196335 0.000144 0.000028  0.001886 0.006857 -0.720336
11  3.883505 -0.047269 0.431381  -0.255169 0.584126 -0.785235
12  1.719573 -0.000025 0.000017  0.039464 -0.052308 -1.096938
13  1.209179 0.000089 0.000012  -0.013101 -0.005611 -0.608919
14  4.085223 -0.082716 1.151040  0.066979 0.663140 -0.072523
15  1.719448 -0.000012 0.000023  -0.099918 0.246022 -0.769882
16  1.099675 0.000047 0.000006  -0.113949 0.032047 -1.389438
17  1.103132 -1.206769 0.707296  -0.710001 -0.750175 -0.605236
18  1.789819 -0.000002 -0.000017  -0.001237 -0.015903 0.880110
19  1.207015 -0.000011 -0.000043  0.001709 -0.000306 0.064353
20  5.740638 0.000410 -0.000704  -0.201098 0.000003 0.000070
21  11.481105 0.000306 -0.000787  -0.098269 -0.143280 0.011822
22  6.027524 -0.000330 0.000203  1.833940 -0.626865 1.689180
23  0.000003 11.692099 -0.000007  -1.168880 -0.612297 -0.891425
24  0.000003 0.000008 0.000001  -0.131065 -0.000031 1.570739
25  0.000000 -0.000012 -0.000001  0.868957 0.000002 1.570712
26  -3.662932 -4.026425 0.376266  1.473120 1.855075 -0.198639
27  6.027503 -0.000262 -0.000230  1.438354 0.524464 -0.264593
28  11.691992 0.000243 0.000855  0.970529 0.000083 -1.981455
29  11.478087 -0.000270 0.001853  -1.683048 0.681599 0.164808
30  3.452864 -0.227594 1.051756  0.554395 -0.249329 -1.600262
31  1.312558 0.000024 0.000001  -0.098769 0.190475 -0.745635
32  0.729344 0.000064 -0.000027  -0.040117 -0.002456 -0.806801
33  3.942045 0.050110 0.430998  0.413054 -0.141259 -1.490445
34  1.539093 0.000010 -0.000001  -0.021081 0.020361 -1.007904
35  1.196301 0.000074 -0.000004  -0.004516 -0.001755 -0.733348
36  3.883412 -0.050498 -0.431086  0.224817 -0.215783 -1.187556
37  1.719562 -0.000073 -0.000003  -0.039730 0.066729 -1.510271
38  1.209197 0.000035 0.000010  -0.006946 -0.002847 -0.369175
39  3.806437 -0.112148 -1.295331  -0.054051 -0.227834 0.117305
40  1.719415 -0.000101 -0.000035  -0.097692 0.144287 -1.589631
41  1.099674 0.000023 0.000009  -0.022826 0.002293 -0.615702
42  0.943593 -0.180488 -1.592590  1.077226 0.106495 -0.817774
43  1.789779 -0.000007 -0.000042  0.023056 0.021409 -0.019466
44  1.206996 -0.000004 0.000004  0.206835 0.095578 1.319988
45  5.740571 0.000056 0.000725  -0.002349 -0.000014 0.000021
46  11.480560 -0.000018 0.001119  -0.032384 0.112477 0.029425
47  6.027515 -0.000273 -0.000237  -0.710976 -0.696168 -1.330869
48  -0.000002 11.691974 -0.000006  -1.313840 0.761307 0.957295
49  0.000003 -0.000002 0.000000  -3.040130 -0.000041 1.570856
50  -0.000007 -0.000015 0.000005  2.272644 -0.000030 1.570865
51  -5.134838 -7.846833 -7.175884  2.974740 -0.181359 -1.368086
52  -0.000000 0.000001 -0.000000  0.008153 -0.000259 0.000009
53  0.000000 -0.000000 -0.000000  1.565115 0.043565 -0.106862
54  -0.867384 -13.964947 -5.842194  -0.965263 -0.134671 -1.928926
55  0.000000 0.000000 -0.000000  0.000000 -0.000000 -0.000002
56  0.000031 0.000029 0.000001  -1.571901 -0.044449 -0.106509
57  8.174561 -15.372293 -17.467022  1.570796 -0.000000 0.000000
58  -21.089123 6.899941 -12.297750  1.570796 -0.000000 0.000000
59  -0.670483 -0.210714 -4.109488  1.570796 -0.000000 0.000000
60  -0.004311 0.001230 -0.000371  0.006898 -0.005534 -0.284229
61  0.376268 4.613964 -2.887995  1.570796 -0.000000 0.000000
62  0.000000 0.000000 0.000000  -0.078727 -3.136056 0.284226
63  0.000000 0.000000 0.000000  1.570796 -0.000000 0.000000
64  -2.806739 -5.401850 -4.089407  1.543742 0.055213 -0.011761
65  0.032837 -0.689314 7.041598  0.174533 0.000000 0.000000
66  0.000003 0.704706 0.367568  0.000000 0.000000 0.000000
67  -1.069343 0.255757 -1.438859  0.000000 0.000000 0.000000
68  0.000004 0.704704 21.133165  0.000000 0.000000 0.000000
69  0.675334 -0.627303 0.013841  0.000000 0.000000 0.000000
70  0.799380 0.018980 -2.766580  0.000000 0.000000 0.000000
71  -2.818412 -6.167656 -4.715434  1.543742 0.055213 -0.011761
72  0.007280 1.258147 0.574209  -0.159017 -0.052843 0.008470
73  -0.031883 0.785740 -1.115067  0.000000 0.000000 0.000000
74  -0.031883 0.599173 -1.115066  0.000000 0.000000 0.000000
time 3
0  0.000006 0.000000 0.000000  -1.570800 -1.391899 -1.570792
1  -4.005264 0.938027 -0.674797  -1.544956 -1.855077 -0.198630
2  6.027520 -0.000324 0.000194  -1.057000 -0.907931 -1.030926
3  11.692107 0.000646 -0.000740  -1.000172 -0.000035 -1.703731
4  11.478970 0.000006 -0.001345  0.905857 -0.708668 0.405006
5  3.859509 -0.142880 -1.192049  -0.832801 -0.004856 -1.898297
6  1.312591 0.000011 0.000007  -0.131461 -0.009191 -0.247243
7  0.729353 0.000053 0.000050  -0.005879 0.003193 -0.240629
8  3.942142 0.046272 -0.431512  -0.599048 0.209358 -1.511441
9  1.539110 0.000084 0.000006  -0.021882 -0.009207 -0.444880
10  1.196333 0.000144 0.000029  0.001886 0.006857 -0.720336
11  3.883504 -0.047270 0.431381  -0.255169 0.584126 -0.785235
12  1.719573 -0.000028 0.000016  0.039464 -0.052308 -1.096938
13  1.209180 0.000091 0.000012  -0.013101 -0.005611 -0.608919
14  4.085223 -0.082716 1.151041  0.066979 0.663140 -0.072524
15  1.719448 -0.000013 0.000022  -0.099918 0.246022 -0.769882
16  1.099675 0.000046 0.000006  -0.113949 0.032047 -1.389438
17  1.103132 -1.206770 0.707297  -0.733349 -0.728501 -0.570578
18  1.789820 -0.000004 -0.000019  -0.000343 -0.015123 0.817119
19  1.207016 -0.000012 -0.000044  0.001628 -0.000283 0.050590
20  5.740636 0.000410 -0.000703  -0.188990 0.000003 0.000071
21  11.480800 0.000215 -0.000928  -0.092400 -0.139284 0.019464
22  6.027524 -0.000330 0.000203  1.835908 -0.615099 1.670845
23  0.000002 11.692100 -0.000006  -1.149238 -0.592470 -0.880917
24  0.000002 0.000009 -0.000000  -0.131065 -0.000031 1.570739
25  0.000000 -0.000012 -0.000001  0.868957 0.000002 1.570712
26  -3.662932 -4.026425 0.376266  1.473120 1.855075 -0.198639
27  6.027503 -0.000262 -0.000230  1.430926 0.548495 -0.271849
28  11.691993 0.000243 0.000856  0.970530 0.000080 -1.941662
29  11.478439 -0.000186 0.001729  -1.650432 0.673593 0.143932
30  3.452865 -0.227594 1.051756  0.554395 -0.249329 -1.600262
31  1.312559 0.000023 0.000000  -0.098769 0.190475 -0.745635
32  0.729345 0.000065 -0.000026  -0.040117 -0.002456 -0.806801
33  3.942045 0.050110 0.430998  0.413054 -0.141259 -1.490445
34  1.539094 0.000009 -0.000001  -0.021081 0.020361 -1.007904
35  1.196300 0.000075 -0.000004  -0.004516 -0.001755 -0.733348
36  3.883412 -0.050498 -0.431087  0.224817 -0.215783 -1.187556
37  1.719562 -0.000073 -0.000003  -0.039730 0.066729 -1.510271
38  1.209197 0.000034 0.000010  -0.006946 -0.002847 -0.369175
39  3.806437 -0.112148 -1.295331  -0.054051 -0.227834 0.117305
40  1.719415 -0.000101 -0.000035  -0.097692 0.144287 -1.589631
41  1.099674 0.000022 0.000008  -0.022826 0.002293 -0.615702
42  0.943594 -0.180488 -1.592590  1.077226 0.106495 -0.817774
43  1.789779 -0.000007 -0.000043  0.023056 0.021409 -0.019466
44  1.206996 -0.000005 0.000003  0.206835 0.095578 1.319988
45  5.740571 0.000055 0.000724  0.003830 -0.000014 0.000021
46  11.480632 -0.000001 0.001095  -0.025344 0.111635 0.023187
47  6.027515 -0.000273 -0.000237  -0.742237 -0.689855 -1.314356
48  -0.000002 11.691974 -0.000007  -1.289795 0.736541 0.947975
49  0.000003 -0.000002 0.000000  -3.040130 -0.000041 1.570856
50  -0.000007 -0.000015 0.000005  2.272644 -0.000030 1.570865
51  -5.035918 -8.215039 -7.276198  3.018796 -0.185934 -1.370356
52  0.000000 0.000001 -0.000001  0.008153 -0.000259 0.000009
53  -0.000000 0.000000 -0.000001  1.565115 0.043565 -0.106862
54  -0.794448 -14.314501 -5.783636  -0.925812 -0.115563 -1.928073
55  0.000001 -0.000001 -0.000000  0.000000 -0.000000 -0.000002
56  0.000030 0.000028 0.000001  -1.571902 -0.044449 -0.106509
57  8.174561 -15.372293 -17.467022  1.570796 -0.000000 0.000000
58  -21.089123 6.899941 -12.297750  1.570796 -0.000000 0.000000
59  -0.670483 -0.210714 -4.109488  1.570796 -0.000000 0.000000
60  -0.004311 0.001230 -0.000371  0.006898 -0.005534 -0.284229
61  0.376268 4.613964 -2.887995  1.570796 -0.000000 0.000000
62  0.000000 0.000000 0.000000  -0.078727 -3.136056 0.284226
63  0.000000 0.000000 0.000000  1.570796 -0.000000 0.000000
64  -2.858115 -5.770205 -4.081782  1.548317 0.011898 -0.005830
65  0.032837 -0.689314 7.041598  0.174533 -0.000000 -0.000000
66  0.000003 0.704706 2.258058  0.000000 -0.000000 -0.000000
67  -1.069343 0.255757 -1.438860  0.000000 -0.000000 -0.000000
68  0.000004 0.704705 21.133165  0.000000 -0.000000 -0.000000
69  0.675334 -0.627302 0.013843  0.000000 -0.000000 -0.000000
70  0.799381 0.018980 -2.766579  0.000000 -0.000000 -0.000000
71  -2.838162 -6.533357 -4.710834  1.548317 0.011898 -0.005830
72  -0.031882 1.350415 2.379174  0.000000 -0.000000 -0.000000
73  0.116050 0.879027 -1.115067  0.000000 -0.000000 -0.000000
74  -0.179815 0.692452 -1.115066  0.000000 -0.000000 -0.000000
time 4
0  0.000006 0.000000 0.000000  -1.570800 -1.391899 -1.570792
1  -4.005264 0.938027 -0.674797  -1.544956 -1.855077 -0.198630
2  6.027520 -0.000324 0.000194  -1.074886 -0.913255 -1.035166
3  11.692106 0.000646 -0.000740  -1.000171 -0.000033 -1.667838
4  11.479207 0.000069 -0.001248  0.941318 -0.685745 0.425094
5  3.859509 -0.142880 -1.192049  -0.832801 -0.004856 -1.898297
6  1.312591 0.000011 0.000007  -0.131461 -0.009191 -0.247243
7  0.729354 0.000054 0.000048  -0.005879 0.003193 -0.240629
8  3.942142 0.046272 -0.431512  -0.599048 0.209358 -1.511441
9  1.539110 0.000084 0.000005  -0.021882 -0.009207 -0.444880
10  1.196331 0.000145 0.000029  0.001886 0.006857 -0.720336
11  3.883504 -0.047271 0.431381  -0.255169 0.584126 -0.785235
12  1.719574 -0.000026 0.000016  0.039464 -0.052308 -1.096938
13  1.209180 0.000093 0.000012  -0.013101 -0.005610 -0.608919
14  4.085222 -0.082717 1.151040  0.066979 0.663140 -0.072524
15  1.719447 -0.000010 0.000022  -0.099918 0.246022 -0.769882
16  1.099675 0.000048 0.000006  -0.113949 0.032047 -1.389438
17  1.103131 -1.206770 0.707296  -0.723491 -0.737894 -0.585312
18  1.789820 -0.000003 -0.000019  -0.000725 -0.015469 0.844496
19  1.207015 -0.000012 -0.000043  0.001663 -0.000293 0.056644
20  5.740636 0.000409 -0.000703  -0.175527 0.000003 0.000071
21  11.480846 0.000227 -0.000908  -0.086477 -0.134793 0.027286
22  6.027524 -0.000330 0.000203  1.845140 -0.605537 1.647186
23  0.000001 11.692099 -0.000006  -1.128209 -0.571429 -0.869303
24  0.000003 0.000009 -0.000001  -0.131065 -0.000031 1.570739
25  -0.000000 -0.000012 -0.000000  0.868957 0.000002 1.570712
26  -3.662932 -4.026425 0.376266  1.473120 1.855075 -0.198639
27  6.027504 -0.000261 -0.000230  1.419018 0.579892 -0.283142
28  11.691992 0.000243 0.000856  0.970530 0.000076 -1.894307
29  11.478858 -0.000076 0.001571  -1.614235 0.663276 0.127414
30  3.452865 -0.227594 1.051756  0.554395 -0.249329 -1.600262
31  1.312558 0.000023 -0.000000  -0.098769 0.190475 -0.745635
32  0.729344 0.000065 -0.000027  -0.040117 -0.002456 -0.806801
33  3.942045 0.050110 0.430998  0.413054 -0.141259 -1.490445
34  1.539093 0.000010 -0.000003  -0.021081 0.020361 -1.007904
35  1.196301 0.000074 -0.000004  -0.004516 -0.001755 -0.733348
36  3.883413 -0.050498 -0.431086  0.224817 -0.215783 -1.187556
37  1.719561 -0.000072 -0.000003  -0.039730 0.066729 -1.510271
38  1.209196 0.000035 0.000009  -0.006946 -0.002847 -0.369175
39  3.806438 -0.112148 -1.295330  -0.054051 -0.227834 0.117305
40  1.719414 -0.000101 -0.000035  -0.097692 0.144287 -1.589631
41  1.099674 0.000021 0.000008  -0.022826 0.002293 -0.615702
42  0.943595 -0.180488 -1.592590  1.077226 0.106495 -0.817774
43  1.789780 -0.000008 -0.000043  0.023056 0.021409 -0.019466
44  1.206996 -0.000005 0.000003  0.206835 0.095578 1.319988
45  5.740574 0.000054 0.000723  0.010173 -0.000014 0.000021
46  11.480718 0.000020 0.001063  -0.017810 0.110249 0.017582
47  6.027515 -0.000273 -0.000237  -0.783682 -0.682195 -1.293024
48  -0.000002 11.691975 -0.000005  -1.261459 0.707292 0.936126
49  0.000003 -0.000000 0.000001  -3.040130 -0.000041 1.570856
50  -0.000007 -0.000015 0.000005  2.272644 -0.000030 1.570865
51  -4.862360 -8.642314 -7.400241  3.064018 -0.184864 -1.369198
52  -0.000001 0.000000 0.000000  0.008153 -0.000259 0.000009
53  -0.000000 0.000000 -0.000000  1.565115 0.043565 -0.106862
54  -0.630460 -14.716970 -5.784449  -0.888414 -0.091212 -1.922438
55  -0.000000 -0.000001 -0.000000  0.000000 -0.000000 -0.000002
56  0.000029 0.000028 0.000001  -1.571901 -0.044449 -0.106509
57  8.174561 -15.372293 -17.467022  1.570796 -0.000000 0.000000
58  -21.089123 6.899941 -12.297750  1.570796 -0.000000 0.000000
59  -0.670483 -0.210714 -4.109488  1.570796 -0.000000 0.000000
60  -0.004311 0.001230 -0.000371  0.006898 -0.005534 -0.284229
61  0.376268 4.613964 -2.887995  1.570796 -0.000000 0.000000
62  0.000000 0.000000 0.000000  -0.078727 -3.136056 0.284226
63  0.000000 0.000000 0.000000  1.570796 -0.000000 0.000000
64  -2.848670 -6.209854 -4.090781  1.558288 -0.031430 0.003567
65  0.032837 -0.689314 7.041600  0.174533 0.000000 -0.000000
66  0.000003 0.704706 2.057356  -0.000000 0.000000 -0.028844
67  -1.069343 0.255757 -1.438860  0.000000 -0.000000 0.000000
68  0.000004 0.704705 21.133169  -0.000000 0.000000 -0.000000
69  0.675334 -0.627302 0.013843  -0.000000 0.000000 -0.000000
70  0.799380 0.018980 -2.766579  -0.000000 0.000000 -0.000000
71  -2.794108 -6.966380 -4.725760  1.558288 -0.031430 0.003567
72  -0.031882 1.350415 2.379174  -0.000000 0.000000 -0.000000
73  0.116050 0.879027 -1.115067  -0.000000 0.000000 -0.000000
74  -0.179815 0.692453 -1.115066  -0.000000 0.000000 -0.000000
time 5
0  0.000006 0.000000 0.000000  -1.570800 -1.391899 -1.570792
1  -4.005264 0.938027 -0.674797  -1.544956 -1.855077 -0.198630
2  6.027520 -0.000324 0.000194  -1.077514 -0.917516 -1.038695
3  11.692106 0.000645 -0.000739  -1.000170 -0.000031 -1.632477
4  11.479453 0.000138 -0.001141  0.940855 -0.666431 0.410278
5  3.859509 -0.142879 -1.192050  -0.832801 -0.004856 -1.898297
6  1.312591 0.000011 0.000009  -0.131461 -0.009191 -0.247243
7  0.729355 0.000054 0.000051  -0.005879 0.003194 -0.240629
8  3.942144 0.046273 -0.431512  -0.599048 0.209358 -1.511441
9  1.539110 0.000084 0.000005  -0.021882 -0.009207 -0.444880
10  1.196332 0.000146 0.000029  0.001886 0.006857 -0.720336
11  3.883506 -0.047269 0.431381  -0.255169 0.584126 -0.785235
12  1.719573 -0.000028 0.000014  0.039464 -0.052308 -1.096938
13  1.209179 0.000091 0.000012  -0.013101 -0.005611 -0.608919
14  4.085222 -0.082716 1.151040  0.066979 0.663140 -0.072524
15  1.719449 -0.000012 0.000022  -0.099918 0.246022 -0.769882
16  1.099675 0.000047 0.000004  -0.113949 0.032047 -1.389438
17  1.103133 -1.206769 0.707296  -0.713360 -0.747177 -0.600299
18  1.789818 -0.000005 -0.000019  -0.001117 -0.015804 0.871874
19  1.207016 -0.000012 -0.000043  0.001698 -0.000303 0.062698
20  5.740637 0.000410 -0.000703  -0.171434 0.000003 0.000071
21  11.480899 0.000241 -0.000887  -0.088603 -0.130652 0.025702
22  6.027524 -0.000330 0.000203  1.844586 -0.601008 1.641887
23  0.000001 11.692101 -0.000007  -1.107482 -0.550903 -0.857504
24  0.000003 0.000008 -0.000002  -0.131065 -0.000031 1.570739
25  -0.000001 -0.000011 -0.000001  0.868957 0.000002 1.570712
26  -3.662932 -4.026425 0.376266  1.473120 1.855075 -0.198639
27  6.027504 -0.000261 -0.000230  1.420910 0.598669 -0.284034
28  11.691992 0.000242 0.000857  0.970530 0.000073 -1.857608
29  11.479178 0.000020 0.001430  -1.610191 0.641216 0.133245
30  3.452865 -0.227595 1.051756  0.554395 -0.249329 -1.600262
31  1.312558 0.000025 0.000000  -0.098769 0.190475 -0.745635
32  0.729345 0.000063 -0.000026  -0.040117 -0.002457 -0.806801
33  3.942045 0.050109 0.430998  0.413054 -0.141259 -1.490445
34  1.539093 0.000009 -0.000001  -0.021081 0.020361 -1.007904
35  1.196298 0.000075 -0.000005  -0.004516 -0.001755 -0.733348
36  3.883413 -0.050498 -0.431086  0.224817 -0.215783 -1.187556
37  1.719562 -0.000072 -0.000003  -0.039730 0.066729 -1.510271
38  1.209197 0.000034 0.000009  -0.006946 -0.002847 -0.369175
39  3.806437 -0.112149 -1.295330  -0.035444 -0.191288 0.129310
40  1.719414 -0.000102 -0.000035  -0.075727 0.165001 -1.455394
41  1.099674 0.000022 0.000009  -0.022847 0.005440 -0.480259
42  0.943595 -0.180489 -1.592589  1.077226 0.106495 -0.817774
43  1.789779 -0.000007 -0.000042  0.023056 0.021409 -0.019466
44  1.206996 -0.000005 0.000003  0.206835 0.095578 1.319988
45  5.740573 0.000056 0.000725  0.009033 -0.000014 0.000021
46  11.480782 0.000039 0.001035  -0.017004 0.105871 0.018431
47  6.027515 -0.000273 -0.000237  -0.802919 -0.670791 -1.282923
48  -0.000000 11.691974 -0.000007  -1.239663 0.684804 0.926408
49  0.000003 -0.000002 -0.000001  -3.040130 -0.000041 1.570856
50  -0.000006 -0.000015 0.000005  2.272644 -0.000030 1.570865
51  -4.858413 -8.987161 -7.428604  3.057637 -0.173421 -1.363420
52  -0.000000 -0.000000 -0.000001  0.008153 -0.000259 0.000009
53  0.000001 -0.000000 -0.000000  1.565115 0.043565 -0.106862
54  -0.585047 -15.057642 -5.909138  -0.899813 -0.084776 -1.916795
55  -0.000000 0.000000 0.000000  0.000000 -0.000000 -0.000002
56  0.000030 0.000029 0.000001  -1.571902 -0.044449 -0.106509
57  8.174561 -15.372293 -17.467022  1.570796 -0.000000 0.000000
58  -21.089123 6.899941 -12.297750  1.570796 -0.000000 0.000000
59  -0.670483 -0.210714 -4.109488  1.570796 -0.000000 0.000000
60  -0.004311 0.001230 -0.000371  0.006898 -0.005534 -0.284229
61  0.376268 4.613964 -2.887995  1.570796 -0.000000 0.000000
62  0.000000 0.000000 0.000000  -0.078727 -3.136056 0.284226
63  0.000000 0.000000 0.000000  1.570796 -0.000000 0.000000
64  -2.827891 -6.578208 -4.112239  1.568270 -0.023015 0.007937
65  0.032837 -0.689313 7.041600  0.087266 -0.000000 0.000000
66  0.000003 0.704706 2.157707  0.000000 -0.000000 -0.021737
67  -1.069343 0.255757 -1.438858  0.000000 -0.000000 0.000000
68  0.000004 0.704705 21.133169  -0.000000 -0.000000 0.000000
69  0.675334 -0.627302 0.013842  -0.000000 -0.000000 0.000000
70  0.799381 0.018981 -2.766579  -0.000000 -0.000000 0.000000
71  -2.775246 -7.328142 -4.755149  1.568270 -0.023015 0.007937
72  -0.031882 1.350416 2.379173  -0.000000 -0.000000 0.000000
73  0.116051 0.879028 -1.115067  -0.000000 -0.000000 0.000000
74  -0.179814 0.692453 -1.115067  -0.000000 -0.000000 0.000000
time 6
0  0.000006 0.000000 0.000000  -1.570800 -1.391899 -1.570792
1  -4.005264 0.938027 -0.674797  -1.544956 -1.855077 -0.198630
2  6.027520 -0.000324 0.000194  -1.072980 -0.919582 -1.040627
3  11.692106 0.000645 -0.000739  -1.000169 -0.000029 -1.614701
4  11.479580 0.000176 -0.001083  0.929384 -0.655729 0.393137
5  3.859510 -0.142879 -1.192049  -0.832801 -0.004856 -1.898297
6  1.312588 0.000012 0.000009  -0.131461 -0.009191 -0.247243
7  0.729356 0.000054 0.000051  -0.005879 0.003193 -0.240629
8  3.942144 0.046273 -0.431512  -0.599048 0.209358 -1.511441
9  1.539110 0.000084 0.000005  -0.021882 -0.009207 -0.444880
10  1.196332 0.000146 0.000029  0.001886 0.006857 -0.720336
11  3.883506 -0.047269 0.431382  -0.255169 0.584126 -0.785235
12  1.719574 -0.000027 0.000017  0.039464 -0.052308 -1.096938
13  1.209177 0.000092 0.000012  -0.013101 -0.005611 -0.608919
14  4.085223 -0.082714 1.151041  0.066979 0.663140 -0.072524
15  1.719448 -0.000011 0.000022  -0.099918 0.246022 -0.769882
16  1.099675 0.000049 0.000005  -0.113949 0.032047 -1.389438
17  1.103134 -1.206769 0.707297  -0.713360 -0.747177 -0.600299
18  1.789818 -0.000003 -0.000019  -0.001117 -0.015804 0.871874
19  1.207015 -0.000011 -0.000043  0.001698 -0.000303 0.062698
20  5.740637 0.000409 -0.000704  -0.172094 0.000003 0.000071
21  11.480924 0.000249 -0.000875  -0.092239 -0.128320 0.022362
22  6.027524 -0.000330 0.000203  1.840486 -0.600372 1.645876
23  0.000002 11.692100 -0.000007  -1.097053 -0.540665 -0.851441
24  0.000003 0.000009 -0.000002  -0.131065 -0.000031 1.570739
25  -0.000001 -0.000011 -0.000001  0.868957 0.000002 1.570712
26  -3.662932 -4.026425 0.376266  1.473120 1.855075 -0.198639
27  6.027504 -0.000261 -0.000230  1.424650 0.603774 -0.282069
28  11.691992 0.000243 0.000855  0.970530 0.000072 -1.843357
29  11.479304 0.000059 0.001373  -1.619283 0.630171 0.140783
30  3.452864 -0.227593 1.051756  0.554395 -0.249329 -1.600262
31  1.312558 0.000023 -0.000000  -0.098769 0.190475 -0.745635
32  0.729345 0.000064 -0.000026  -0.040117 -0.002456 -0.806801
33  3.942044 0.050110 0.430998  0.413054 -0.141259 -1.490445
34  1.539093 0.000008 -0.000001  -0.021081 0.020361 -1.007904
35  1.196299 0.000075 -0.000004  -0.004516 -0.001755 -0.733348
36  3.883412 -0.050497 -0.431086  0.224817 -0.215783 -1.187556
37  1.719562 -0.000073 -0.000003  -0.039730 0.066729 -1.510271
38  1.209198 0.000034 0.000010  -0.006946 -0.002847 -0.369175
39  3.806437 -0.112147 -1.295330  -0.016512 -0.154969 0.141925
40  1.719415 -0.000102 -0.000035  -0.051066 0.182614 -1.320276
41  1.099674 0.000021 0.000008  -0.022442 0.008561 -0.344812
42  0.943593 -0.180488 -1.592589  1.077226 0.106495 -0.817774
43  1.789780 -0.000007 -0.000044  0.023056 0.021409 -0.019466
44  1.206997 -0.000003 0.000003  0.206835 0.095578 1.319988
45  5.740574 0.000055 0.000724  0.006173 -0.000014 0.000021
46  11.480806 0.000047 0.001024  -0.018842 0.103481 0.020461
47  6.027515 -0.000273 -0.000237  -0.806260 -0.665434 -1.281004
48  -0.000002 11.691975 -0.000006  -1.231231 0.676116 0.922512
49  0.000005 -0.000002 -0.000001  -3.040130 -0.000041 1.570856
50  -0.000007 -0.000015 0.000005  2.272644 -0.000030 1.570865
51  -4.902211 -9.124244 -7.426513  3.040147 -0.165281 -1.361853
52  0.000001 0.000000 -0.000001  0.008153 -0.000259 0.000009
53  -0.000001 0.000000 -0.000000  1.565115 0.043565 -0.106862
54  -0.610039 -15.207097 -6.013238  -0.918826 -0.086925 -1.916546
55  0.000001 -0.000001 0.000000  0.000000 -0.000000 -0.000002
56  0.000030 0.000029 0.000001  -1.571901 -0.044449 -0.106509
57  8.174561 -15.372293 -17.467022  1.570796 -0.000000 0.000000
58  -21.089123 6.899941 -12.297750  1.570796 -0.000000 0.000000
59  -0.670483 -0.210714 -4.109488  1.570796 -0.000000 0.000000
60  -0.004311 0.001230 -0.000371  0.006898 -0.005534 -0.284229
61  0.376268 4.613964 -2.887995  1.570796 -0.000000 0.000000
62  0.000000 0.000000 0.000000  -0.078727 -3.136056 0.284226
63  0.000000 0.000000 0.000000  1.570796 -0.000000 0.000000
64  -2.807113 -6.732680 -4.137849  1.572805 -0.004498 0.006493
65  0.032837 -0.689314 7.041599  0.000000 -0.000000 -0.000000
66  0.000003 0.704706 2.258057  0.000000 -0.000000 -0.000000
67  -1.069343 0.255757 -1.438859  0.000000 -0.000000 -0.000000
68  0.000003 0.704705 21.133165  0.000000 -0.000000 -0.000000
69  0.675334 -0.627302 0.013842  0.000000 -0.000000 -0.000000
70  0.799380 0.018980 -2.766579  0.000000 -0.000000 -0.000000
71  -2.767466 -7.479837 -4.784911  1.572805 -0.004498 0.006493
72  -0.031882 1.350415 2.379174  0.000000 -0.000000 -0.000000
73  0.116050 0.879027 -1.115066  0.000000 -0.000000 -0.000000
74  -0.179815 0.692454 -1.115066  0.000000 -0.000000 -0.000000
time 7
0  0.000006 0.000000 0.000000  -1.570800 -1.391899 -1.570792
1  -4.005264 0.938027 -0.674797  -1.544956 -1.855077 -0.198630
2  6.027520 -0.000324 0.000194  -1.067267 -0.919410 -1.040717
3  11.692106 0.000645 -0.000739  -1.000169 -0.000030 -1.616315
4  11.479567 0.000173 -0.001087  0.918392 -0.655664 0.378804
5  3.859508 -0.142880 -1.192049  -0.832801 -0.004856 -1.898297
6  1.312590 0.000011 0.000008  -0.131461 -0.009191 -0.247243
7  0.729356 0.000053 0.000050  -0.005879 0.003193 -0.240629
8  3.942141 0.046272 -0.431512  -0.599048 0.209358 -1.511441
9  1.539110 0.000084 0.000006  -0.021882 -0.009207 -0.444880
10  1.196330 0.000145 0.000030  0.001886 0.006857 -0.720336
11  3.883503 -0.047269 0.431381  -0.255169 0.584126 -0.785235
12  1.719573 -0.000030 0.000015  0.039464 -0.052309 -1.096938
13  1.209179 0.000091 0.000011  -0.013101 -0.005611 -0.608919
14  4.085221 -0.082716 1.151041  0.066979 0.663140 -0.072524
15  1.719449 -0.000011 0.000021  -0.099918 0.246022 -0.769882
16  1.099675 0.000048 0.000006  -0.113949 0.032047 -1.389438
17  1.103131 -1.206770 0.707297  -0.713360 -0.747177 -0.600299
18  1.789819 -0.000004 -0.000019  -0.001117 -0.015804 0.871874
19  1.207016 -0.000012 -0.000043  0.001699 -0.000303 0.062698
20  5.740638 0.000409 -0.000704  -0.175325 0.000003 0.000071
21  11.480922 0.000248 -0.000877  -0.094966 -0.128037 0.018915
22  6.027524 -0.000330 0.000203  1.836799 -0.602039 1.652416
23  0.000002 11.692098 -0.000007  -1.098001 -0.541592 -0.851995
24  0.000002 0.000010 -0.000003  -0.131065 -0.000031 1.570738
25  -0.000000 -0.000011 -0.000001  0.868957 0.000002 1.570712
26  -3.662932 -4.026425 0.376266  1.473120 1.855075 -0.198639
27  6.027504 -0.000261 -0.000230  1.428777 0.598525 -0.278705
28  11.691990 0.000243 0.000856  0.970530 0.000073 -1.848644
29  11.479253 0.000044 0.001396  -1.635403 0.628547 0.143820
30  3.452864 -0.227594 1.051756  0.554395 -0.249329 -1.600262
31  1.312557 0.000023 -0.000001  -0.098769 0.190475 -0.745635
32  0.729344 0.000065 -0.000026  -0.040117 -0.002456 -0.806801
33  3.942044 0.050109 0.430998  0.413054 -0.141259 -1.490445
34  1.539093 0.000008 -0.000001  -0.021081 0.020361 -1.007904
35  1.196300 0.000075 -0.000005  -0.004516 -0.001755 -0.733348
36  3.883413 -0.050497 -0.431086  0.224817 -0.215783 -1.187556
37  1.719562 -0.000073 -0.000003  -0.039730 0.066729 -1.510271
38  1.209197 0.000034 0.000010  -0.006946 -0.002847 -0.369175
39  3.806438 -0.112148 -1.295330  -0.018325 -0.158553 0.140138
40  1.719414 -0.000101 -0.000035  -0.053589 0.181072 -1.334643
41  1.099674 0.000022 0.000008  -0.022703 0.007717 -0.382273
42  0.943593 -0.180489 -1.592590  1.077226 0.106495 -0.817774
43  1.789780 -0.000008 -0.000042  0.023056 0.021409 -0.019466
44  1.206996 -0.000005 0.000003  0.206835 0.095578 1.319988
45  5.740571 0.000055 0.000727  0.002982 -0.000014 0.000021
46  11.480794 0.000044 0.001031  -0.021928 0.102882 0.022066
47  6.027515 -0.000273 -0.000237  -0.798309 -0.665390 -1.284883
48  -0.000001 11.691974 -0.000006  -1.234357 0.679336 0.923965
49  0.000004 0.000000 0.000001  -3.040130 -0.000041 1.570856
50  -0.000007 -0.000015 0.000005  2.272644 -0.000030 1.570865
51  -4.960402 -9.081902 -7.399585  3.021010 -0.165121 -1.361731
52  0.000000 -0.000001 -0.000000  0.008153 -0.000259 0.000009
53  -0.000001 -0.000000 -0.000000  1.565115 0.043565 -0.106862
54  -0.661022 -15.172544 -6.042896  -0.935017 -0.096743 -1.918087
55  0.000000 0.000000 0.000000  0.000000 -0.000000 -0.000002
56  0.000031 0.000030 0.000001  -1.571902 -0.044449 -0.106509
57  8.174561 -15.372293 -17.467022  1.570796 -0.000000 0.000000
58  -21.089123 6.899941 -12.297750  1.570796 -0.000000 0.000000
59  -0.670483 -0.210714 -4.109488  1.570796 -0.000000 0.000000
60  -0.004311 0.001230 -0.000371  0.006898 -0.005534 -0.284229
61  0.376268 4.613964 -2.887995  1.570796 -0.000000 0.000000
62  0.000000 0.000000 0.000000  -0.078727 -3.136056 0.284226
63  0.000000 0.000000 0.000000  1.570796 -0.000000 0.000000
64  -2.797668 -6.684503 -4.159307  1.569138 0.014020 0.003451
65  0.032837 -0.689314 7.041600  -0.000000 -0.000000 0.000000
66  0.000003 0.704706 2.218398  0.000000 -0.000000 0.022051
67  -1.069343 0.255757 -1.438860  0.000000 -0.000000 0.000000
68  0.000003 0.704705 21.133167  -0.000000 -0.000000 0.000000
69  0.675334 -0.627302 0.013842  -0.000000 -0.000000 0.000000
70  0.799380 0.018980 -2.766579  -0.000000 -0.000000 0.000000
71  -2.772234 -7.434188 -4.804156  1.569138 0.014020 0.003451
72  -0.031882 1.350416 2.379174  -0.000000 -0.000000 0.000000
73  0.116051 0.879028 -1.115067  -0.000000 -0.000000 0.000000
74  -0.179815 0.692454 -1.115066  -0.000000 -0.000000 0.000000
time 8
0  0.000006 0.000000 0.000000  -1.570800 -1.391899 -1.570792
1  -4.005264 0.938027 -0.674797  -1.544956 -1.855077 -0.198630
2  6.027520 -0.000324 0.000194  -1.063331 -0.919743 -1.041196
3  11.692106 0.000645 -0.000739  -1.000169 -0.000030 -1.624053
4  11.479513 0.000157 -0.001110  0.915128 -0.658948 0.372149
5  3.859508 -0.142880 -1.192049  -0.832801 -0.004856 -1.898297
6  1.312591 0.000012 0.000009  -0.131461 -0.009191 -0.247243
7  0.729354 0.000054 0.000050  -0.005879 0.003193 -0.240629
8  3.942142 0.046272 -0.431512  -0.599048 0.209359 -1.511441
9  1.539109 0.000085 0.000007  -0.021882 -0.009207 -0.444880
10  1.196331 0.000147 0.000030  0.001886 0.006857 -0.720336
11  3.883504 -0.047269 0.431382  -0.255169 0.584126 -0.785235
12  1.719573 -0.000029 0.000015  0.039464 -0.052308 -1.096938
13  1.209179 0.000092 0.000012  -0.013101 -0.005611 -0.608919
14  4.085221 -0.082716 1.151041  0.066979 0.663140 -0.072524
15  1.719449 -0.000012 0.000022  -0.099918 0.246022 -0.769882
16  1.099675 0.000049 0.000006  -0.113949 0.032047 -1.389438
17  1.103132 -1.206770 0.707297  -0.713360 -0.747177 -0.600299
18  1.789819 -0.000002 -0.000018  -0.001117 -0.015804 0.871874
19  1.207013 -0.000012 -0.000044  0.001698 -0.000303 0.062698
20  5.740639 0.000410 -0.000701  -0.177615 0.000003 0.000070
21  11.480911 0.000245 -0.000880  -0.095696 -0.128465 0.017230
22  6.027524 -0.000330 0.000203  1.834012 -0.602767 1.656647
23  0.000002 11.692098 -0.000006  -1.102540 -0.546045 -0.854641
24  0.000002 0.000007 -0.000001  -0.131065 -0.000031 1.570739
25  -0.000001 -0.000012 -0.000000  0.868957 0.000002 1.570712
26  -3.662932 -4.026425 0.376266  1.473120 1.855075 -0.198639
27  6.027504 -0.000261 -0.000230  1.431332 0.591750 -0.276264
28  11.691993 0.000244 0.000858  0.970530 0.000074 -1.858902
29  11.479170 0.000018 0.001436  -1.646935 0.632205 0.141534
30  3.452864 -0.227594 1.051755  0.554395 -0.249329 -1.600262
31  1.312558 0.000022 -0.000001  -0.098769 0.190475 -0.745635
32  0.729344 0.000065 -0.000026  -0.040117 -0.002456 -0.806801
33  3.942045 0.050111 0.430998  0.413054 -0.141259 -1.490445
34  1.539093 0.000009 -0.000000  -0.021081 0.020361 -1.007904
35  1.196300 0.000075 -0.000006  -0.004516 -0.001755 -0.733348
36  3.883412 -0.050496 -0.431086  0.224817 -0.215783 -1.187556
37  1.719563 -0.000073 -0.000003  -0.039730 0.066729 -1.510271
38  1.209196 0.000034 0.000010  -0.006946 -0.002847 -0.369175
39  3.806437 -0.112147 -1.295330  -0.023044 -0.167944 0.135490
40  1.719414 -0.000102 -0.000035  -0.060078 0.176872 -1.372200
41  1.099674 0.000023 0.000008  -0.023234 0.005460 -0.480517
42  0.943594 -0.180488 -1.592590  1.077226 0.106495 -0.817774
43  1.789779 -0.000007 -0.000043  0.023056 0.021409 -0.019466
44  1.206996 -0.000004 0.000004  0.206835 0.095578 1.319988
45  5.740573 0.000055 0.000724  0.001269 -0.000014 0.000021
46  11.480780 0.000040 0.001037  -0.024019 0.103450 0.022364
47  6.027515 -0.000273 -0.000237  -0.789580 -0.667205 -1.289271
48  -0.000001 11.691975 -0.000005  -1.240430 0.685594 0.926758
49  0.000005 -0.000001 0.000001  -3.040130 -0.000041 1.570856
50  -0.000006 -0.000015 0.000006  2.272644 -0.000030 1.570865
51  -4.998075 -8.991219 -7.373845  3.011240 -0.170062 -1.363173
52  0.000000 0.000000 0.000000  0.008153 -0.000259 0.000009
53  0.000001 0.000001 -0.000000  1.565115 0.043565 -0.106862
54  -0.705983 -15.085774 -6.011662  -0.940612 -0.106030 -1.920591
55  0.000001 -0.000002 0.000000  0.000000 -0.000000 -0.000002
56  0.000030 0.000028 0.000001  -1.571901 -0.044449 -0.106509
57  8.174561 -15.372293 -17.467022  1.570796 -0.000000 0.000000
58  -21.089123 6.899941 -12.297750  1.570796 -0.000000 0.000000
59  -0.670483 -0.210714 -4.109488  1.570796 -0.000000 0.000000
60  -0.004311 0.001230 -0.000371  0.006898 -0.005534 -0.284229
61  0.376268 4.613964 -2.887995  1.570796 -0.000000 0.000000
62  0.000000 0.000000 0.000000  -0.078727 -3.136056 0.284226
63  0.000000 0.000000 0.000000  1.570796 -0.000000 0.000000
64  -2.800871 -6.578514 -4.168305  1.562325 0.022436 0.000255
65  0.032837 -0.689314 7.041599  -0.000000 -0.000000 -0.000000
66  0.000003 0.704705 2.238228  -0.000000 0.000000 0.011025
67  -1.069343 0.255757 -1.438859  0.000000 0.000000 0.000000
68  0.000004 0.704705 21.133169  -0.000000 -0.000000 -0.000000
69  0.675334 -0.627303 0.013842  -0.000000 -0.000000 -0.000000
70  0.799381 0.018980 -2.766579  -0.000000 -0.000000 -0.000000
71  -2.783145 -7.332650 -4.808203  1.562325 0.022436 0.000255
72  -0.031882 1.350415 2.379174  -0.000000 -0.000000 -0.000000
73  0.116051 0.879027 -1.115066  -0.000000 -0.000000 -0.000000
74  -0.179815 0.692453 -1.115065  -0.000000 -0.000000 -0.000000
time 9
0  0.000006 0.000000 0.000000  -1.570800 -1.391899 -1.570792
1  -4.005264 0.938027 -0.674797  -1.544956 -1.855077 -0.198630
2  6.027520 -0.000324 0.000194  -1.062725 -0.918675 -1.040289
3  11.692106 0.000646 -0.000739  -1.000170 -0.000031 -1.634176
4  11.479441 0.000134 -0.001146  0.916697 -0.664264 0.375740
5  3.859509 -0.142880 -1.192049  -0.832801 -0.004856 -1.898297
6  1.312591 0.000012 0.000010  -0.131461 -0.009191 -0.247243
7  0.729355 0.000054 0.000050  -0.005879 0.003193 -0.240629
8  3.942142 0.046273 -0.431512  -0.599048 0.209359 -1.511441
9  1.539110 0.000086 0.000005  -0.021882 -0.009207 -0.444880
10  1.196333 0.000146 0.000028  0.001886 0.006857 -0.720336
11  3.883506 -0.047269 0.431381  -0.255169 0.584126 -0.785235
12  1.719573 -0.000026 0.000015  0.039464 -0.052308 -1.096938
13  1.209178 0.000092 0.000011  -0.013101 -0.005610 -0.608919
14  4.085222 -0.082716 1.151041  0.066979 0.663140 -0.072524
15  1.719450 -0.000013 0.000022  -0.099918 0.246022 -0.769882
16  1.099675 0.000049 0.000006  -0.113949 0.032047 -1.389438
17  1.103132 -1.206769 0.707297  -0.713360 -0.747177 -0.600299
18  1.789820 -0.000003 -0.000018  -0.001117 -0.015804 0.871874
19  1.207014 -0.000012 -0.000044  0.001699 -0.000303 0.062698
20  5.740637 0.000409 -0.000700  -0.178507 0.000003 0.000070
21  11.480895 0.000240 -0.000887  -0.094897 -0.129560 0.017672
22  6.027524 -0.000330 0.000203  1.834166 -0.603890 1.657947
23  0.000001 11.692100 -0.000007  -1.108478 -0.551885 -0.858079
24  0.000004 0.000008 -0.000001  -0.131065 -0.000031 1.570739
25  -0.000000 -0.000011 -0.000001  0.868957 0.000002 1.570712
26  -3.662932 -4.026425 0.376266  1.473120 1.855075 -0.198639
27  6.027504 -0.000261 -0.000230  1.430684 0.586323 -0.276119
28  11.691991 0.000242 0.000856  0.970530 0.000074 -1.869249
29  11.479076 -0.000011 0.001477  -1.648418 0.638517 0.138670
30  3.452863 -0.227593 1.051756  0.554395 -0.249329 -1.600262
31  1.312558 0.000022 -0.000000  -0.098769 0.190475 -0.745635
32  0.729344 0.000065 -0.000026  -0.040117 -0.002456 -0.806801
33  3.942045 0.050111 0.430999  0.413054 -0.141259 -1.490445
34  1.539093 0.000008 -0.000002  -0.021081 0.020361 -1.007904
35  1.196301 0.000074 -0.000004  -0.004516 -0.001755 -0.733348
36  3.883414 -0.050496 -0.431085  0.224817 -0.215783 -1.187556
37  1.719562 -0.000072 -0.000002  -0.039730 0.066728 -1.510271
38  1.209197 0.000035 0.000010  -0.006946 -0.002847 -0.369175
39  3.806437 -0.112148 -1.295330  -0.027726 -0.177356 0.130879
40  1.719412 -0.000102 -0.000036  -0.066397 0.172434 -1.409701
41  1.099673 0.000021 0.000008  -0.023542 0.003163 -0.578760
42  0.943595 -0.180487 -1.592589  1.077226 0.106495 -0.817774
43  1.789780 -0.000006 -0.000043  0.023056 0.021409 -0.019466
44  1.206996 -0.000005 0.000003  0.206835 0.095578 1.319988
45  5.740572 0.000056 0.000723  0.001570 -0.000014 0.000021
46  11.480761 0.000035 0.001045  -0.024259 0.104711 0.021926
47  6.027515 -0.000273 -0.000237  -0.784068 -0.670528 -1.292183
48  -0.000002 11.691974 -0.000006  -1.246564 0.691920 0.929540
49  0.000005 -0.000001 -0.000000  -3.040130 -0.000041 1.570856
50  -0.000007 -0.000015 0.000005  2.272644 -0.000030 1.570865
51  -4.999207 -8.894026 -7.368168  3.013319 -0.174239 -1.364876
52  0.000000 0.000000 -0.000000  0.008153 -0.000259 0.000009
53  0.000000 0.000001 0.000000  1.565115 0.043565 -0.106862
54  -0.719273 -14.989297 -5.971361  -0.936641 -0.108491 -1.922364
55  -0.000001 -0.000001 -0.000000  0.000000 -0.000000 -0.000002
56  0.000028 0.000028 0.000001  -1.571901 -0.044449 -0.106509
57  8.174561 -15.372293 -17.467022  1.570796 -0.000000 0.000000
58  -21.089123 6.899941 -12.297750  1.570796 -0.000000 0.000000
59  -0.670483 -0.210714 -4.109488  1.570796 -0.000000 0.000000
60  -0.004311 0.001230 -0.000371  0.006898 -0.005534 -0.284229
61  0.376268 4.613964 -2.887995  1.570796 -0.000000 0.000000
62  0.000000 0.000000 0.000000  -0.078727 -3.136056 0.284226
63  0.000000 0.000000 0.000000  1.570796 -0.000000 0.000000
64  -2.807918 -6.472525 -4.165213  1.558658 0.019572 -0.001169
65  0.032837 -0.689314 7.041600  0.000000 -0.000000 0.000000
66  0.000002 0.704705 2.258058  0.000000 -0.000000 0.000000
67  -1.069343 0.255757 -1.438859  0.000000 -0.000000 0.000000
68  0.000003 0.704704 21.133165  0.000000 -0.000000 0.000000
69  0.675334 -0.627302 0.013842  0.000000 -0.000000 0.000000
70  0.799380 0.018980 -2.766579  0.000000 -0.000000 0.000000
71  -2.789382 -7.229028 -4.802289  1.558658 0.019572 -0.001169
72  -0.031882 1.350415 2.379174  0.000000 -0.000000 0.000000
73  0.116051 0.879028 -1.115066  0.000000 -0.000000 0.000000
74  -0.179815 0.692454 -1.115066  0.000000 -0.000000 0.000000
time 10
0  0.000006 0.000000 0.000000  -1.570800 -1.391899 -1.570792
1  -4.005264 0.938027 -0.674797  -1.544956 -1.855077 -0.198630
2  6.027520 -0.000324 0.000194  -1.063835 -0.916870 -1.038649
3  11.692106 0.000644 -0.000740  -1.000170 -0.000031 -1.640253
4  11.479399 0.000123 -0.001164  0.918125 -0.668409 0.382775
5  3.859509 -0.142879 -1.192049  -0.832801 -0.004856 -1.898297
6  1.312591 0.000011 0.000006  -0.131461 -0.009191 -0.247243
7  0.729354 0.000054 0.000049  -0.005879 0.003194 -0.240629
8  3.942145 0.046273 -0.431512  -0.599048 0.209358 -1.511441
9  1.539112 0.000082 0.000005  -0.021882 -0.009207 -0.444880
10  1.196334 0.000142 0.000027  0.001886 0.006857 -0.720336
11  3.883506 -0.047268 0.431381  -0.255169 0.584126 -0.785235
12  1.719573 -0.000028 0.000015  0.039464 -0.052308 -1.096938
13  1.209180 0.000092 0.000012  -0.013101 -0.005611 -0.608919
14  4.085224 -0.082715 1.151041  0.066979 0.663140 -0.072524
15  1.719452 -0.000012 0.000023  -0.099918 0.246022 -0.769882
16  1.099675 0.000047 0.000004  -0.113949 0.032047 -1.389438
17  1.103133 -1.206769 0.707296  -0.713360 -0.747177 -0.600299
18  1.789820 -0.000002 -0.000018  -0.001117 -0.015804 0.871874
19  1.207014 -0.000012 -0.000044  0.001698 -0.000303 0.062698
20  5.740637 0.000412 -0.000702  -0.178481 0.000003 0.000071
21  11.480886 0.000239 -0.000890  -0.094012 -0.130579 0.018826
22  6.027524 -0.000330 0.000203  1.835849 -0.605229 1.657748
23  0.000002 11.692099 -0.000007  -1.112042 -0.555399 -0.860128
24  0.000004 0.000008 -0.000003  -0.131065 -0.000031 1.570739
25  -0.000000 -0.000011 -0.000001  0.868957 0.000002 1.570712
26  -3.662932 -4.026425 0.376266  1.473120 1.855075 -0.198639
27  6.027504 -0.000261 -0.000230  1.428794 0.584121 -0.277138
28  11.691991 0.000243 0.000856  0.970530 0.000075 -1.874332
29  11.479033 -0.000025 0.001498  -1.643397 0.642254 0.138703
30  3.452864 -0.227595 1.051756  0.554395 -0.249329 -1.600262
31  1.312558 0.000023 -0.000000  -0.098769 0.190475 -0.745635
32  0.729344 0.000066 -0.000025  -0.040117 -0.002456 -0.806801
33  3.942045 0.050110 0.430999  0.413054 -0.141259 -1.490445
34  1.539094 0.000007 -0.000001  -0.021081 0.020361 -1.007904
35  1.196299 0.000073 -0.000005  -0.004516 -0.001755 -0.733348
36  3.883413 -0.050498 -0.431087  0.224817 -0.215783 -1.187556
37  1.719562 -0.000074 -0.000003  -0.039730 0.066729 -1.510271
38  1.209197 0.000034 0.000011  -0.006946 -0.002847 -0.369175
39  3.806436 -0.112149 -1.295331  -0.029507 -0.180960 0.129126
40  1.719416 -0.000101 -0.000035  -0.068765 0.170678 -1.424016
41  1.099674 0.000022 0.000009  -0.023599 0.002280 -0.616218
42  0.943594 -0.180489 -1.592590  1.077226 0.106495 -0.817774
43  1.789779 -0.000008 -0.000042  0.023056 0.021409 -0.019466
44  1.206996 -0.000004 0.000003  0.206835 0.095578 1.319988
45  5.740573 0.000055 0.000725  0.002723 -0.000014 0.000021
46  11.480752 0.000031 0.001051  -0.023384 0.105535 0.021622
47  6.027515 -0.000273 -0.000237  -0.782737 -0.673027 -1.292986
48  -0.000001 11.691972 -0.000005  -1.249580 0.695032 0.930893
49  0.000004 -0.000002 0.000000  -3.040130 -0.000041 1.570856
50  -0.000006 -0.000015 0.000005  2.272644 -0.000030 1.570865
51  -4.984615 -8.843280 -7.376867  3.019829 -0.174356 -1.365424
52  -0.000001 0.000000 -0.000001  0.008153 -0.000259 0.000009
53  0.000000 -0.000001 -0.000000  1.565115 0.043565 -0.106862
54  -0.710004 -14.937748 -5.960391  -0.931106 -0.105200 -1.922373
55  -0.000001 0.000001 0.000000  0.000000 -0.000000 -0.000002
56  0.000029 0.000030 0.000001  -1.571901 -0.044449 -0.106509
57  8.174561 -15.372293 -17.467022  1.570796 -0.000000 0.000000
58  -21.089123 6.899941 -12.297750  1.570796 -0.000000 0.000000
59  -0.670483 -0.210714 -4.109488  1.570796 -0.000000 0.000000
60  -0.004311 0.001230 -0.000371  0.006898 -0.005534 -0.284229
61  0.376268 4.613964 -2.887995  1.570796 -0.000000 0.000000
62  0.000000 0.000000 0.000000  -0.078727 -3.136056 0.284226
63  0.000000 0.000000 0.000000  1.570796 -0.000000 0.000000
64  -2.814965 -6.424348 -4.157284  1.559858 0.013272 -0.000568
65  0.032837 -0.689314 7.041598  -0.000000 0.000000 -0.000000
66  0.000003 0.704706 2.258057  -0.000000 0.000000 -0.000000
67  -1.069343 0.255757 -1.438859  -0.000000 0.000000 -0.000000
68  0.000004 0.704705 21.133167  -0.000000 0.000000 -0.000000
69  0.675334 -0.627302 0.013842  -0.000000 0.000000 -0.000000
70  0.799380 0.018981 -2.766580  -0.000000 0.000000 -0.000000
71  -2.791973 -7.180078 -4.795132  1.559858 0.013272 -0.000568
72  -0.031882 1.350415 2.379173  -0.000000 0.000000 -0.000000
73  0.116051 0.879028 -1.115067  -0.000000 0.000000 -0.000000
74  -0.179815 0.692453 -1.115066  -0.000000 0.000000 -0.000000
time 11
0  0.000006 0.000000 0.000000  -1.570800 -1.391899 -1.570792
1  -4.005264 0.938027 -0.674797  -1.544956 -1.855077 -0.198630
2  6.027520 -0.000324 0.000194  -1.065812 -0.916862 -1.038566
3  11.692105 0.000645 -0.000739  -1.000170 -0.000031 -1.638518
4  11.479410 0.000128 -0.001161  0.920876 -0.668008 0.388229
5  3.859509 -0.142880 -1.192050  -0.832801 -0.004856 -1.898297
6  1.312590 0.000012 0.000008  -0.131461 -0.009191 -0.247243
7  0.729356 0.000053 0.000051  -0.005879 0.003193 -0.240629
8  3.942143 0.046272 -0.431513  -0.599048 0.209358 -1.511441
9  1.539111 0.000084 0.000005  -0.021882 -0.009207 -0.444880
10  1.196333 0.000145 0.000030  0.001886 0.006857 -0.720336
11  3.883506 -0.047269 0.431381  -0.255169 0.584126 -0.785235
12  1.719573 -0.000028 0.000014  0.039464 -0.052308 -1.096938
13  1.209180 0.000091 0.000013  -0.013101 -0.005611 -0.608919
14  4.085223 -0.082715 1.151040  0.066979 0.663140 -0.072524
15  1.719450 -0.000012 0.000020  -0.099918 0.246022 -0.769882
16  1.099675 0.000050 0.000005  -0.113949 0.032047 -1.389438
17  1.103134 -1.206769 0.707297  -0.713360 -0.747177 -0.600299
18  1.789820 -0.000003 -0.000018  -0.001117 -0.015804 0.871874
19  1.207016 -0.000012 -0.000044  0.001698 -0.000303 0.062698
20  5.740636 0.000411 -0.000705  -0.177343 0.000003 0.000071
21  11.480888 0.000240 -0.000891  -0.093256 -0.130650 0.020067
22  6.027524 -0.000330 0.000203  1.837173 -0.604718 1.655510
23  0.000000 11.692098 -0.000007  -1.111025 -0.554396 -0.859544
24  0.000003 0.000008 -0.000002  -0.131065 -0.000031 1.570739
25  -0.000001 -0.000011 -0.000001  0.868957 0.000002 1.570712
26  -3.662932 -4.026425 0.376266  1.473120 1.855075 -0.198639
27  6.027504 -0.000261 -0.000230  1.427489 0.586543 -0.278269
28  11.691992 0.000243 0.000858  0.970530 0.000075 -1.871440
29  11.479058 -0.000015 0.001486  -1.636557 0.642181 0.139154
30  3.452864 -0.227594 1.051758  0.554395 -0.249329 -1.600262
31  1.312558 0.000024 0.000000  -0.098769 0.190475 -0.745635
32  0.729343 0.000064 -0.000026  -0.040117 -0.002456 -0.806801
33  3.942044 0.050110 0.430999  0.413054 -0.141259 -1.490445
34  1.539093 0.000009 -0.000002  -0.021081 0.020361 -1.007904
35  1.196300 0.000075 -0.000005  -0.004516 -0.001755 -0.733348
36  3.883411 -0.050497 -0.431085  0.224817 -0.215783 -1.187556
37  1.719562 -0.000073 -0.000003  -0.039730 0.066729 -1.510271
38  1.209197 0.000034 0.000009  -0.006946 -0.002847 -0.369175
39  3.806436 -0.112148 -1.295329  -0.029507 -0.180960 0.129126
40  1.719415 -0.000102 -0.000035  -0.068765 0.170678 -1.424016
41  1.099673 0.000021 0.000008  -0.023599 0.002280 -0.616218
42  0.943593 -0.180488 -1.592588  1.077226 0.106495 -0.817774
43  1.789779 -0.000009 -0.000042  0.023056 0.021409 -0.019466
44  1.206996 -0.000005 0.000003  0.206835 0.095578 1.319988
45  5.740573 0.000057 0.000725  0.003943 -0.000014 0.000021
46  11.480757 0.000034 0.001048  -0.022140 0.105622 0.021268
47  6.027515 -0.000273 -0.000237  -0.786102 -0.672672 -1.291300
48  -0.000000 11.691974 -0.000006  -1.247864 0.693261 0.930124
49  0.000004 -0.000002 0.000001  -3.040130 -0.000041 1.570856
50  -0.000006 -0.000015 0.000005  2.272644 -0.000030 1.570865
51  -4.964400 -8.868307 -7.386087  3.026636 -0.173059 -1.365328
52  -0.000000 -0.000000 -0.000001  0.008153 -0.000259 0.000009
53  -0.000001 -0.000000 0.000001  1.565115 0.043565 -0.106862
54  -0.690992 -14.961088 -5.958762  -0.926072 -0.100556 -1.921618
55  0.000002 -0.000000 0.000000  0.000000 -0.000000 -0.000002
56  0.000032 0.000029 0.000001  -1.571901 -0.044449 -0.106509
57  8.174561 -15.372293 -17.467022  1.570796 -0.000000 0.000000
58  -21.089123 6.899941 -12.297750  1.570796 -0.000000 0.000000
59  -0.670483 -0.210714 -4.109488  1.570796 -0.000000 0.000000
60  -0.004311 0.001230 -0.000371  0.006898 -0.005534 -0.284229
61  0.376268 4.613964 -2.887995  1.570796 -0.000000 0.000000
62  0.000000 0.000000 0.000000  -0.078727 -3.136056 0.284226
63  0.000000 0.000000 0.000000  1.570796 -0.000000 0.000000
64  -2.818168 -6.455151 -4.146537  1.562496 0.006973 0.000731
65  0.032836 -0.689314 7.041600  -0.000000 0.000000 -0.000000
66  0.000003 0.704706 2.258059  -0.000000 0.000000 -0.000000
67  -1.069344 0.255757 -1.438859  -0.000000 0.000000 -0.000000
68  0.000003 0.704705 21.133167  -0.000000 0.000000 -0.000000
69  0.675334 -0.627302 0.013843  -0.000000 0.000000 -0.000000
70  0.799380 0.018981 -2.766578  -0.000000 0.000000 -0.000000
71  -2.790193 -7.209163 -4.786215  1.562496 0.006973 0.000731
72  -0.031882 1.350415 2.379174  -0.000000 0.000000 -0.000000
73  0.116050 0.879027 -1.115067  -0.000000 0.000000 -0.000000
74  -0.179814 0.692453 -1.115066  -0.000000 0.000000 -0.000000
time 12
0  0.000006 0.000000 0.000000  -1.570800 -1.391899 -1.570792
1  -4.005264 0.938027 -0.674797  -1.544956 -1.855077 -0.198630
2  6.027520 -0.000324 0.000194  -1.067709 -0.917878 -1.039382
3  11.692106 0.000644 -0.000740  -1.000170 -0.000031 -1.632764
4  11.479451 0.000141 -0.001139  0.922727 -0.665235 0.390248
5  3.859508 -0.142881 -1.192049  -0.832801 -0.004856 -1.898297
6  1.312590 0.000013 0.000007  -0.131461 -0.009191 -0.247243
7  0.729355 0.000054 0.000050  -0.005879 0.003194 -0.240629
8  3.942143 0.046272 -0.431512  -0.599048 0.209358 -1.511441
9  1.539111 0.000085 0.000006  -0.021882 -0.009207 -0.444880
10  1.196333 0.000147 0.000030  0.001886 0.006857 -0.720336
11  3.883503 -0.047270 0.431381  -0.255169 0.584126 -0.785235
12  1.719574 -0.000026 0.000015  0.039464 -0.052308 -1.096938
13  1.209179 0.000091 0.000013  -0.013101 -0.005611 -0.608919
14  4.085222 -0.082717 1.151041  0.066979 0.663140 -0.072524
15  1.719451 -0.000011 0.000022  -0.099919 0.246022 -0.769882
16  1.099674 0.000048 0.000004  -0.113949 0.032047 -1.389438
17  1.103131 -1.206770 0.707296  -0.713360 -0.747177 -0.600299
18  1.789819 -0.000003 -0.000019  -0.001117 -0.015804 0.871874
19  1.207012 -0.000012 -0.000044  0.001699 -0.000303 0.062698
20  5.740637 0.000411 -0.000703  -0.176165 0.000003 0.000071
21  11.480898 0.000242 -0.000885  -0.092991 -0.130163 0.020753
22  6.027524 -0.000330 0.000203  1.837899 -0.603302 1.652775
23  0.000002 11.692098 -0.000007  -1.107650 -0.551069 -0.857601
24  0.000002 0.000008 -0.000003  -0.131065 -0.000030 1.570739
25  -0.000001 -0.000011 -0.000001  0.868957 0.000002 1.570712
26  -3.662932 -4.026425 0.376266  1.473120 1.855075 -0.198639
27  6.027504 -0.000261 -0.000230  1.427486 0.590941 -0.278752
28  11.691993 0.000244 0.000856  0.970530 0.000074 -1.864827
29  11.479115 0.000002 0.001460  -1.631518 0.639278 0.140531
30  3.452863 -0.227594 1.051756  0.554395 -0.249329 -1.600262
31  1.312558 0.000024 0.000000  -0.098769 0.190475 -0.745635
32  0.729345 0.000065 -0.000027  -0.040117 -0.002456 -0.806801
33  3.942045 0.050110 0.430999  0.413054 -0.141259 -1.490445
34  1.539093 0.000008 -0.000000  -0.021081 0.020361 -1.007904
35  1.196299 0.000075 -0.000005  -0.004516 -0.001755 -0.733348
36  3.883412 -0.050497 -0.431086  0.224817 -0.215783 -1.187556
37  1.719562 -0.000073 -0.000003  -0.039730 0.066729 -1.510271
38  1.209199 0.000034 0.000011  -0.006946 -0.002847 -0.369175
39  3.806437 -0.112148 -1.295330  -0.029507 -0.180960 0.129126
40  1.719413 -0.000101 -0.000035  -0.068765 0.170678 -1.424016
41  1.099674 0.000020 0.000008  -0.023599 0.002280 -0.616218
42  0.943593 -0.180488 -1.592589  1.077226 0.106495 -0.817774
43  1.789779 -0.000007 -0.000043  0.023056 0.021409 -0.019466
44  1.206996 -0.000005 0.000004  0.206835 0.095578 1.319988
45  5.740572 0.000056 0.000724  0.004640 -0.000014 0.000021
46  11.480769 0.000036 0.001042  -0.021227 0.105110 0.021205
47  6.027515 -0.000273 -0.000237  -0.790865 -0.670341 -1.288817
48  -0.000001 11.691975 -0.000007  -1.243941 0.689215 0.928355
49  0.000005 -0.000002 0.000000  -3.040130 -0.000041 1.570856
50  -0.000006 -0.000015 0.000005  2.272644 -0.000030 1.570865
51  -4.949992 -8.930643 -7.387026  3.030025 -0.171058 -1.364442
52  -0.000001 0.000000 0.000001  0.008153 -0.000259 0.000009
53  0.000001 -0.000000 -0.000000  1.565115 0.043565 -0.106862
54  -0.671727 -15.020915 -5.963564  -0.924284 -0.097094 -1.920328
55  0.000001 -0.000000 0.000000  0.000000 -0.000000 -0.000002
56  0.000031 0.000028 0.000001  -1.571901 -0.044449 -0.106509
57  8.174561 -15.372293 -17.467022  1.570796 -0.000000 0.000000
58  -21.089123 6.899941 -12.297750  1.570796 -0.000000 0.000000
59  -0.670483 -0.210714 -4.109488  1.570796 -0.000000 0.000000
60  -0.004311 0.001230 -0.000371  0.006898 -0.005534 -0.284229
61  0.376268 4.613964 -2.887995  1.570796 -0.000000 0.000000
62  0.000000 0.000000 0.000000  -0.078727 -3.136056 0.284226
63  0.000000 0.000000 0.000000  1.570796 -0.000000 0.000000
64  -2.816576 -6.522918 -4.134991  1.565133 0.004110 0.002212
65  0.032837 -0.689314 7.041598  0.000000 0.000000 0.000000
66  0.000003 0.704706 2.258056  0.000000 0.000000 0.000000
67  -1.069343 0.255756 -1.438860  0.000000 0.000000 0.000000
68  0.000004 0.704705 21.133167  0.000000 0.000000 0.000000
69  0.675334 -0.627302 0.013842  0.000000 0.000000 0.000000
70  0.799380 0.018980 -2.766580  0.000000 0.000000 0.000000
71  -2.785665 -7.275195 -4.776575  1.565133 0.004110 0.002212
72  -0.031882 1.350415 2.379174  0.000000 0.000000 0.000000
73  0.116051 0.879027 -1.115067  0.000000 0.000000 0.000000
74  -0.179815 0.692453 -1.115066  0.000000 0.000000 0.000000
time 13
0  0.000006 0.000000 0.000000  -1.570800 -1.391899 -1.570792
1  -4.005264 0.938027 -0.674797  -1.544956 -1.855077 -0.198630
2  6.027520 -0.000324 0.000194  -1.068957 -0.919515 -1.040762
3  11.692106 0.000646 -0.000740  -1.000169 -0.000030 -1.626343
4  11.479496 0.000154 -0.001119  0.923613 -0.661924 0.388969
5  3.859509 -0.142881 -1.192049  -0.832801 -0.004856 -1.898297
6  1.312592 0.000012 0.000008  -0.131461 -0.009191 -0.247243
7  0.729355 0.000054 0.000051  -0.005879 0.003193 -0.240629
8  3.942144 0.046272 -0.431511  -0.599048 0.209358 -1.511441
9  1.539111 0.000083 0.000005  -0.021882 -0.009207 -0.444880
10  1.196333 0.000144 0.000030  0.001886 0.006857 -0.720337
11  3.883505 -0.047270 0.431382  -0.255169 0.584126 -0.785235
12  1.719573 -0.000028 0.000015  0.039464 -0.052308 -1.096938
13  1.209180 0.000092 0.000012  -0.013101 -0.005611 -0.608919
14  4.085223 -0.082717 1.151041  0.066979 0.663140 -0.072524
15  1.719448 -0.000012 0.000023  -0.099918 0.246022 -0.769882
16  1.099675 0.000047 0.000005  -0.113949 0.032047 -1.389438
17  1.103133 -1.206770 0.707297  -0.713360 -0.747177 -0.600299
18  1.789819 -0.000004 -0.000018  -0.001117 -0.015804 0.871874
19  1.207013 -0.000012 -0.000044  0.001698 -0.000303 0.062698
20  5.740637 0.000411 -0.000703  -0.175421 0.000003 0.000071
21  11.480906 0.000244 -0.000882  -0.093106 -0.129470 0.020786
22  6.027524 -0.000330 0.000203  1.837863 -0.601498 1.650423
23  0.000000 11.692097 -0.000006  -1.103884 -0.547364 -0.855421
24  0.000003 0.000009 -0.000001  -0.131065 -0.000030 1.570739
25  -0.000001 -0.000011 -0.000001  0.868957 0.000002 1.570712
26  -3.662932 -4.026425 0.376266  1.473120 1.855075 -0.198639
27  6.027504 -0.000261 -0.000230  1.428724 0.595201 -0.278383
28  11.691991 0.000244 0.000857  0.970530 0.000073 -1.858016
29  11.479173 0.000017 0.001433  -1.629862 0.635225 0.141801
30  3.452864 -0.227594 1.051758  0.554395 -0.249329 -1.600262
31  1.312558 0.000023 0.000000  -0.098769 0.190475 -0.745635
32  0.729343 0.000065 -0.000027  -0.040117 -0.002456 -0.806801
33  3.942045 0.050110 0.430999  0.413054 -0.141259 -1.490445
34  1.539094 0.000009 -0.000002  -0.021081 0.020361 -1.007904
35  1.196299 0.000074 -0.000005  -0.004516 -0.001755 -0.733348
36  3.883413 -0.050497 -0.431085  0.224817 -0.215783 -1.187556
37  1.719562 -0.000073 -0.000003  -0.039730 0.066729 -1.510271
38  1.209197 0.000034 0.000010  -0.006946 -0.002847 -0.369175
39  3.806437 -0.112148 -1.295329  -0.029507 -0.180960 0.129126
40  1.719415 -0.000101 -0.000035  -0.068765 0.170678 -1.424017
41  1.099674 0.000021 0.000008  -0.023599 0.002280 -0.616218
42  0.943594 -0.180489 -1.592588  1.077226 0.106495 -0.817774
43  1.789779 -0.000009 -0.000042  0.023056 0.021409 -0.019466
44  1.206996 -0.000005 0.000003  0.206835 0.095578 1.319988
45  5.740571 0.000054 0.000724  0.004692 -0.000014 0.000021
46  11.480779 0.000038 0.001036  -0.020916 0.104318 0.021337
47  6.027515 -0.000273 -0.000237  -0.794765 -0.667203 -1.286722
48  -0.000002 11.691973 -0.000006  -1.239905 0.685053 0.926518
49  0.000003 -0.000001 0.000000  -3.040130 -0.000041 1.570856
50  -0.000007 -0.000015 0.000005  2.272644 -0.000030 1.570865
51  -4.945979 -8.997095 -7.378008  3.029543 -0.169736 -1.363152
52  0.000000 -0.000000 -0.000000  0.008153 -0.000259 0.000009
53  0.000000 -0.000000 0.000001  1.565115 0.043565 -0.106862
54  -0.659312 -15.083891 -5.964988  -0.925391 -0.096222 -1.919013
55  -0.000001 0.000000 -0.000000  0.000000 -0.000000 -0.000002
56  0.000030 0.000029 0.000001  -1.571901 -0.044449 -0.106509
57  8.174561 -15.372293 -17.467022  1.570796 -0.000000 0.000000
58  -21.089123 6.899941 -12.297750  1.570796 -0.000000 0.000000
59  -0.670483 -0.210714 -4.109488  1.570796 -0.000000 0.000000
60  -0.004311 0.001230 -0.000371  0.006898 -0.005534 -0.284229
61  0.376268 4.613964 -2.887995  1.570796 -0.000000 0.000000
62  0.000000 0.000000 0.000000  -0.078727 -3.136056 0.284226
63  0.000000 0.000000 0.000000  1.570796 -0.000000 0.000000
64  -2.813074 -6.590685 -4.124665  1.566331 0.004843 0.003425
65  0.032837 -0.689314 7.041598  0.000000 -0.000000 0.000000
66  0.000003 0.704706 2.258057  0.000000 -0.000000 0.000000
67  -1.069343 0.255757 -1.438860  0.000000 -0.000000 0.000000
68  0.000004 0.704705 21.133167  0.000000 -0.000000 0.000000
69  0.675334 -0.627302 0.013843  0.000000 -0.000000 0.000000
70  0.799380 0.018980 -2.766579  0.000000 -0.000000 0.000000
71  -2.781727 -7.342155 -4.767172  1.566331 0.004843 0.003425
72  -0.031882 1.350416 2.379175  0.000000 -0.000000 0.000000
73  0.116050 0.879028 -1.115067  0.000000 -0.000000 0.000000
74  -0.179815 0.692454 -1.115065  0.000000 -0.000000 0.000000
time 14
0  0.000006 0.000000 0.000000  -1.570800 -1.391899 -1.570792
1  -4.005264 0.938027 -0.674797  -1.544956 -1.855077 -0.198630
2  6.027520 -0.000324 0.000194  -1.069545 -0.920631 -1.041712
3  11.692107 0.000645 -0.000740  -1.000169 -0.000030 -1.623222
4  11.479520 0.000159 -0.001109  0.923890 -0.660170 0.387362
5  3.859507 -0.142880 -1.192050  -0.832801 -0.004856 -1.898297
6  1.312591 0.000013 0.000006  -0.131461 -0.009191 -0.247243
7  0.729355 0.000054 0.000049  -0.005879 0.003193 -0.240629
8  3.942141 0.046272 -0.431513  -0.599048 0.209358 -1.511441
9  1.539109 0.000083 0.000006  -0.021882 -0.009207 -0.444880
10  1.196332 0.000146 0.000028  0.001886 0.006857 -0.720336
11  3.883505 -0.047269 0.431381  -0.255169 0.584126 -0.785235
12  1.719573 -0.000026 0.000015  0.039464 -0.052308 -1.096938
13  1.209180 0.000093 0.000012  -0.013101 -0.005610 -0.608919
14  4.085224 -0.082716 1.151041  0.066979 0.663140 -0.072524
15  1.719449 -0.000013 0.000022  -0.099918 0.246022 -0.769882
16  1.099675 0.000048 0.000007  -0.113949 0.032047 -1.389438
17  1.103131 -1.206770 0.707296  -0.713360 -0.747177 -0.600299
18  1.789820 -0.000003 -0.000018  -0.001117 -0.015804 0.871874
19  1.207013 -0.000012 -0.000045  0.001698 -0.000303 0.062698
20  5.740636 0.000410 -0.000703  -0.175240 0.000003 0.000071
21  11.480911 0.000245 -0.000880  -0.093250 -0.129071 0.020615
22  6.027524 -0.000330 0.000203  1.837663 -0.600339 1.649119
23  0.000001 11.692100 -0.000007  -1.102053 -0.545566 -0.854358
24  0.000003 0.000009 -0.000001  -0.131065 -0.000031 1.570739
25  -0.000001 -0.000011 -0.000001  0.868957 0.000002 1.570712
26  -3.662932 -4.026425 0.376266  1.473120 1.855075 -0.198639
27  6.027504 -0.000261 -0.000230  1.429920 0.597316 -0.277804
28  11.691992 0.000243 0.000856  0.970530 0.000073 -1.854825
29  11.479200 0.000028 0.001419  -1.630321 0.633016 0.142358
30  3.452863 -0.227594 1.051756  0.554395 -0.249329 -1.600262
31  1.312558 0.000024 -0.000001  -0.098769 0.190475 -0.745635
32  0.729344 0.000064 -0.000026  -0.040117 -0.002456 -0.806801
33  3.942044 0.050109 0.430998  0.413054 -0.141259 -1.490445
34  1.539093 0.000009 -0.000001  -0.021081 0.020361 -1.007904
35  1.196298 0.000074 -0.000005  -0.004516 -0.001755 -0.733348
36  3.883412 -0.050497 -0.431086  0.224817 -0.215783 -1.187556
37  1.719562 -0.000073 -0.000003  -0.039730 0.066729 -1.510271
38  1.209197 0.000035 0.000010  -0.006946 -0.002847 -0.369175
39  3.806436 -0.112148 -1.295330  -0.029507 -0.180960 0.129126
40  1.719413 -0.000102 -0.000035  -0.068765 0.170678 -1.424016
41  1.099674 0.000022 0.000008  -0.023599 0.002280 -0.616218
42  0.943594 -0.180489 -1.592590  1.077226 0.106495 -0.817774
43  1.789779 -0.000008 -0.000041  0.023056 0.021409 -0.019466
44  1.206997 -0.000004 0.000004  0.206835 0.095578 1.319988
45  5.740572 0.000055 0.000724  0.004504 -0.000014 0.000021
46  11.480783 0.000041 0.001032  -0.020992 0.103865 0.021470
47  6.027515 -0.000273 -0.000237  -0.796368 -0.665238 -1.285824
48  -0.000002 11.691974 -0.000006  -1.238016 0.683106 0.925652
49  0.000003 -0.000001 -0.000001  -3.040130 -0.000041 1.570856
50  -0.000007 -0.000015 0.000005  2.272644 -0.000030 1.570865
51  -4.946518 -9.029632 -7.366986  3.027898 -0.169603 -1.362373
52  -0.000001 0.000000 -0.000001  0.008153 -0.000259 0.000009
53  -0.000001 -0.000000 -0.000000  1.565115 0.043565 -0.106862
54  -0.654527 -15.113989 -5.959640  -0.926844 -0.096964 -1.918372
55  0.000000 -0.000001 0.000000  0.000000 -0.000000 -0.000002
56  0.000031 0.000028 0.000001  -1.571901 -0.044449 -0.106509
57  8.174561 -15.372293 -17.467022  1.570796 -0.000000 0.000000
58  -21.089123 6.899941 -12.297750  1.570796 -0.000000 0.000000
59  -0.670483 -0.210714 -4.109488  1.570796 -0.000000 0.000000
60  -0.004311 0.001230 -0.000371  0.006898 -0.005534 -0.284229
61  0.376268 4.613964 -2.887995  1.570796 -0.000000 0.000000
62  0.000000 0.000000 0.000000  -0.078727 -3.136056 0.284226
63  0.000000 0.000000 0.000000  1.570796 -0.000000 0.000000
64  -2.809572 -6.621488 -4.117580  1.566132 0.006458 0.003925
65  0.032837 -0.689314 7.041600  -0.000000 0.000000 0.000000
66  0.000003 0.704705 2.258057  -0.000000 0.000000 0.000000
67  -1.069343 0.255757 -1.438859  -0.000000 0.000000 0.000000
68  0.000004 0.704705 21.133169  -0.000000 0.000000 0.000000
69  0.675334 -0.627302 0.013842  -0.000000 0.000000 0.000000
70  0.799380 0.018980 -2.766580  -0.000000 0.000000 0.000000
71  -2.778885 -7.373075 -4.759983  1.566132 0.006458 0.003925
72  -0.031882 1.350415 2.379173  -0.000000 0.000000 0.000000
73  0.116051 0.879028 -1.115066  -0.000000 0.000000 0.000000
74  -0.179814 0.692453 -1.115065  -0.000000 0.000000 0.000000
time 15
0  0.000006 0.000000 0.000000  -1.570800 -1.391899 -1.570792
1  -4.005264 0.938027 -0.674797  -1.544956 -1.855077 -0.198630
2  6.027520 -0.000324 0.000194  -1.069243 -0.920892 -1.041955
3  11.692106 0.000644 -0.000739  -1.000169 -0.000030 -1.623402
4  11.479515 0.000158 -0.001110  0.923020 -0.660178 0.386494
5  3.859509 -0.142880 -1.192049  -0.832801 -0.004856 -1.898297
6  1.312591 0.000011 0.000007  -0.131461 -0.009191 -0.247243
7  0.729355 0.000054 0.000050  -0.005879 0.003193 -0.240629
8  3.942143 0.046272 -0.431512  -0.599048 0.209358 -1.511441
9  1.539109 0.000083 0.000006  -0.021882 -0.009207 -0.444880
10  1.196332 0.000144 0.000030  0.001886 0.006857 -0.720336
11  3.883506 -0.047269 0.431382  -0.255169 0.584126 -0.785235
12  1.719573 -0.000028 0.000015  0.039464 -0.052308 -1.096938
13  1.209177 0.000091 0.000012  -0.013101 -0.005611 -0.608919
14  4.085221 -0.082716 1.151041  0.066979 0.663140 -0.072524
15  1.719447 -0.000011 0.000020  -0.099919 0.246022 -0.769882
16  1.099675 0.000048 0.000005  -0.113949 0.032047 -1.389438
17  1.103133 -1.206770 0.707297  -0.713360 -0.747177 -0.600299
18  1.789820 -0.000004 -0.000018  -0.001117 -0.015804 0.871874
19  1.207015 -0.000012 -0.000044  0.001699 -0.000303 0.062698
20  5.740637 0.000411 -0.000702  -0.175562 0.000003 0.000071
21  11.480909 0.000245 -0.000881  -0.093452 -0.129062 0.020391
22  6.027524 -0.000330 0.000203  1.837325 -0.600183 1.649308
23  0.000001 11.692099 -0.000007  -1.102159 -0.545670 -0.854419
24  0.000003 0.000008 -0.000001  -0.131065 -0.000031 1.570739
25  -0.000001 -0.000012 -0.000001  0.868957 0.000002 1.570712
26  -3.662932 -4.026425 0.376266  1.473120 1.855075 -0.198639
27  6.027504 -0.000261 -0.000230  1.430681 0.597073 -0.277266
28  11.691991 0.000243 0.000857  0.970530 0.000073 -1.855401
29  11.479198 0.000025 0.001423  -1.631478 0.632988 0.142993
30  3.452864 -0.227595 1.051757  0.554395 -0.249329 -1.600262
31  1.312557 0.000024 0.000000  -0.098769 0.190475 -0.745635
32  0.729344 0.000065 -0.000026  -0.040117 -0.002456 -0.806801
33  3.942045 0.050110 0.430999  0.413054 -0.141259 -1.490445
34  1.539093 0.000010 -0.000001  -0.021081 0.020361 -1.007904
35  1.196299 0.000074 -0.000005  -0.004516 -0.001755 -0.733348
36  3.883412 -0.050498 -0.431086  0.224817 -0.215783 -1.187556
37  1.719562 -0.000072 -0.000004  -0.039730 0.066729 -1.510271
38  1.209198 0.000034 0.000010  -0.006946 -0.002847 -0.369175
39  3.806438 -0.112148 -1.295329  -0.029507 -0.180960 0.129126
40  1.719414 -0.000102 -0.000035  -0.068765 0.170678 -1.424016
41  1.099674 0.000023 0.000008  -0.023599 0.002280 -0.616218
42  0.943594 -0.180488 -1.592589  1.077226 0.106495 -0.817774
43  1.789779 -0.000008 -0.000042  0.023056 0.021409 -0.019466
44  1.206996 -0.000004 0.000003  0.206835 0.095578 1.319988
45  5.740573 0.000055 0.000726  0.004293 -0.000014 0.000021
46  11.480784 0.000040 0.001035  -0.021232 0.103837 0.021666
47  6.027515 -0.000273 -0.000237  -0.795681 -0.664835 -1.286138
48  -0.000001 11.691974 -0.000006  -1.238356 0.683457 0.925808
49  0.000005 -0.000002 0.000000  -3.040130 -0.000041 1.570856
50  -0.000006 -0.000015 0.000005  2.272644 -0.000030 1.570865
51  -4.950850 -9.026024 -7.358686  3.026197 -0.169739 -1.362372
52  -0.000000 -0.000000 -0.000000  0.008153 -0.000259 0.000009
53  0.000001 -0.000000 -0.000000  1.565115 0.043565 -0.106862
54  -0.658331 -15.110935 -5.955341  -0.928203 -0.097965 -1.918525
55  0.000000 -0.000001 0.000000  0.000000 -0.000000 -0.000002
56  0.000030 0.000028 0.000001  -1.571901 -0.044449 -0.106509
57  8.174561 -15.372293 -17.467022  1.570796 -0.000000 0.000000
58  -21.089123 6.899941 -12.297750  1.570796 -0.000000 0.000000
59  -0.670483 -0.210714 -4.109488  1.570796 -0.000000 0.000000
60  -0.004311 0.001230 -0.000371  0.006898 -0.005534 -0.284229
61  0.376268 4.613964 -2.887995  1.570796 -0.000000 0.000000
62  0.000000 0.000000 0.000000  -0.078727 -3.136056 0.284226
63  0.000000 0.000000 0.000000  1.570796 -0.000000 0.000000
64  -2.807980 -6.616932 -4.113886  1.565658 0.008072 0.003636
65  0.032837 -0.689314 7.041600  -0.000000 0.000000 -0.000000
66  0.000003 0.704705 2.258058  -0.000000 0.000000 -0.000000
67  -1.069344 0.255757 -1.438858  -0.000000 0.000000 -0.000000
68  0.000004 0.704705 21.133167  -0.000000 0.000000 -0.000000
69  0.675334 -0.627302 0.013842  -0.000000 0.000000 -0.000000
70  0.799380 0.018980 -2.766579  -0.000000 0.000000 -0.000000
71  -2.778543 -7.368836 -4.755977  1.565658 0.008072 0.003636
72  -0.031882 1.350416 2.379175  -0.000000 0.000000 -0.000000
73  0.116050 0.879028 -1.115066  -0.000000 0.000000 -0.000000
74  -0.179815 0.692454 -1.115065  -0.000000 0.000000 -0.000000
time 16
0  0.000006 0.000000 0.000000  -1.570800 -1.391899 -1.570792
1  -4.005264 0.938027 -0.674797  -1.544956 -1.855077 -0.198630
2  6.027520 -0.000324 0.000194  -1.068665 -0.921160 -1.042218
3  11.692104 0.000644 -0.000739  -1.000169 -0.000030 -1.623969
4  11.479512 0.000157 -0.001111  0.922519 -0.660300 0.386156
5  3.859508 -0.142880 -1.192050  -0.832801 -0.004856 -1.898297
6  1.312590 0.000012 0.000007  -0.131461 -0.009191 -0.247243
7  0.729355 0.000054 0.000050  -0.005879 0.003193 -0.240629
8  3.942142 0.046272 -0.431512  -0.599048 0.209358 -1.511441
9  1.539111 0.000085 0.000006  -0.021882 -0.009207 -0.444880
10  1.196330 0.000146 0.000029  0.001886 0.006857 -0.720336
11  3.883503 -0.047270 0.431381  -0.255169 0.584126 -0.785235
12  1.719573 -0.000027 0.000017  0.039464 -0.052309 -1.096938
13  1.209179 0.000091 0.000010  -0.013101 -0.005611 -0.608919
14  4.085222 -0.082716 1.151041  0.066979 0.663140 -0.072524
15  1.719451 -0.000012 0.000022  -0.099918 0.246022 -0.769882
16  1.099675 0.000049 0.000006  -0.113949 0.032047 -1.389438
17  1.103131 -1.206770 0.707296  -0.713360 -0.747177 -0.600299
18  1.789819 -0.000003 -0.000018  -0.001117 -0.015804 0.871874
19  1.207012 -0.000012 -0.000044  0.001698 -0.000303 0.062698
20  5.740637 0.000411 -0.000702  -0.175797 0.000003 0.000070
21  11.480909 0.000246 -0.000879  -0.093552 -0.129085 0.020286
22  6.027524 -0.000330 0.000203  1.836802 -0.600094 1.649800
23  0.000002 11.692100 -0.000007  -1.102491 -0.545996 -0.854613
24  0.000004 0.000009 -0.000002  -0.131065 -0.000030 1.570739
25  -0.000001 -0.000011 -0.000001  0.868957 0.000002 1.570712
26  -3.662932 -4.026425 0.376266  1.473120 1.855075 -0.198639
27  6.027504 -0.000261 -0.000230  1.431106 0.596423 -0.276911
28  11.691992 0.000243 0.000855  0.970530 0.000073 -1.856521
29  11.479188 0.000024 0.001426  -1.632323 0.633703 0.143111
30  3.452866 -0.227594 1.051756  0.554395 -0.249329 -1.600262
31  1.312559 0.000024 0.000000  -0.098769 0.190475 -0.745635
32  0.729344 0.000065 -0.000027  -0.040117 -0.002456 -0.806801
33  3.942045 0.050110 0.430998  0.413054 -0.141259 -1.490445
34  1.539093 0.000010 -0.000001  -0.021081 0.020361 -1.007904
35  1.196300 0.000074 -0.000005  -0.004516 -0.001755 -0.733348
36  3.883415 -0.050497 -0.431086  0.224817 -0.215783 -1.187556
37  1.719562 -0.000073 -0.000002  -0.039730 0.066729 -1.510271
38  1.209197 0.000034 0.000010  -0.006946 -0.002847 -0.369175
39  3.806438 -0.112147 -1.295330  -0.029507 -0.180960 0.129126
40  1.719415 -0.000102 -0.000035  -0.068765 0.170678 -1.424016
41  1.099674 0.000022 0.000009  -0.023599 0.002280 -0.616218
42  0.943595 -0.180487 -1.592589  1.077226 0.106495 -0.817774
43  1.789779 -0.000006 -0.000042  0.023056 0.021409 -0.019466
44  1.206996 -0.000004 0.000002  0.206835 0.095578 1.319988
45  5.740572 0.000055 0.000724  0.004187 -0.000014 0.000021
46  11.480783 0.000041 0.001034  -0.021404 0.103965 0.021744
47  6.027515 -0.000273 -0.000237  -0.794744 -0.664884 -1.286600
48  -0.000001 11.691975 -0.000005  -1.239019 0.684141 0.926113
49  0.000004 -0.000001 -0.000000  -3.040130 -0.000041 1.570856
50  -0.000006 -0.000015 0.000005  2.272644 -0.000030 1.570865
51  -4.954813 -9.016524 -7.353850  3.025351 -0.170143 -1.362844
52  -0.000001 -0.000001 -0.000001  0.008153 -0.000259 0.000009
53  0.000001 0.000000 -0.000000  1.565115 0.043565 -0.106862
54  -0.665011 -15.103276 -5.950188  -0.928700 -0.098749 -1.919091
55  -0.000001 -0.000001 -0.000000  0.000000 -0.000000 -0.000002
56  0.000030 0.000028 0.000001  -1.571901 -0.044449 -0.106509
57  8.174561 -15.372293 -17.467022  1.570796 -0.000000 0.000000
58  -21.089123 6.899941 -12.297750  1.570796 -0.000000 0.000000
59  -0.670483 -0.210714 -4.109488  1.570796 -0.000000 0.000000
60  -0.004311 0.001230 -0.000371  0.006898 -0.005534 -0.284229
61  0.376268 4.613964 -2.887995  1.570796 -0.000000 0.000000
62  0.000000 0.000000 0.000000  -0.078727 -3.136056 0.284226
63  0.000000 0.000000 0.000000  1.570796 -0.000000 0.000000
64  -2.808087 -6.606909 -4.111989  1.565093 0.008806 0.003016
65  0.032837 -0.689314 7.041600  -0.000000 0.000000 0.000000
66  0.000003 0.704706 2.258057  -0.000000 0.000000 0.000000
67  -1.069343 0.255757 -1.438860  -0.000000 0.000000 0.000000
68  0.000004 0.704704 21.133167  -0.000000 0.000000 0.000000
69  0.675334 -0.627302 0.013842  -0.000000 0.000000 0.000000
70  0.799380 0.018980 -2.766579  -0.000000 0.000000 0.000000
71  -2.779583 -7.359196 -4.753674  1.565093 0.008806 0.003016
72  -0.031882 1.350415 2.379173  -0.000000 0.000000 0.000000
73  0.116051 0.879027 -1.115067  -0.000000 0.000000 0.000000
74  -0.179815 0.692453 -1.115066  -0.000000 0.000000 0.000000
time 17
0  0.000006 0.000000 0.000000  -1.570800 -1.391899 -1.570792
1  -4.005264 0.938027 -0.674797  -1.544956 -1.855077 -0.198630
2  6.027520 -0.000324 0.000194  -1.068330 -0.921343 -1.042396
3  11.692106 0.000646 -0.000739  -1.000169 -0.000030 -1.624655
4  11.479509 0.000155 -0.001114  0.922771 -0.660386 0.386631
5  3.859511 -0.142880 -1.192049  -0.832801 -0.004856 -1.898297
6  1.312590 0.000012 0.000007  -0.131461 -0.009191 -0.247243
7  0.729355 0.000053 0.000049  -0.005879 0.003193 -0.240629
8  3.942144 0.046272 -0.431512  -0.599048 0.209358 -1.511441
9  1.539110 0.000082 0.000005  -0.021882 -0.009207 -0.444880
10  1.196331 0.000146 0.000030  0.001886 0.006857 -0.720336
11  3.883504 -0.047269 0.431382  -0.255169 0.584126 -0.785235
12  1.719573 -0.000027 0.000017  0.039464 -0.052308 -1.096938
13  1.209180 0.000092 0.000012  -0.013101 -0.005611 -0.608919
14  4.085222 -0.082716 1.151041  0.066979 0.663140 -0.072524
15  1.719448 -0.000010 0.000021  -0.099918 0.246022 -0.769882
16  1.099675 0.000048 0.000005  -0.113949 0.032047 -1.389438
17  1.103133 -1.206769 0.707297  -0.713360 -0.747177 -0.600299
18  1.789820 -0.000005 -0.000019  -0.001117 -0.015804 0.871874
19  1.207015 -0.000012 -0.000044  0.001698 -0.000303 0.062698
20  5.740636 0.000411 -0.000702  -0.175817 0.000003 0.000071
21  11.480909 0.000244 -0.000880  -0.093476 -0.129113 0.020386
22  6.027524 -0.000330 0.000203  1.836485 -0.600018 1.650068
23  0.000002 11.692101 -0.000007  -1.102894 -0.546392 -0.854847
24  0.000003 0.000009 -0.000002  -0.131065 -0.000030 1.570739
25  -0.000001 -0.000011 -0.000001  0.868957 0.000002 1.570712
26  -3.662932 -4.026425 0.376266  1.473120 1.855075 -0.198639
27  6.027504 -0.000261 -0.000230  1.431046 0.595890 -0.276895
28  11.691993 0.000243 0.000856  0.970530 0.000073 -1.857570
29  11.479181 0.000021 0.001432  -1.632430 0.634860 0.142686
30  3.452865 -0.227595 1.051757  0.554395 -0.249329 -1.600262
31  1.312558 0.000024 -0.000001  -0.098769 0.190475 -0.745635
32  0.729345 0.000064 -0.000026  -0.040117 -0.002456 -0.806801
33  3.942045 0.050110 0.430999  0.413054 -0.141259 -1.490445
34  1.539093 0.000009 -0.000001  -0.021081 0.020361 -1.007904
35  1.196298 0.000075 -0.000005  -0.004516 -0.001755 -0.733348
36  3.883412 -0.050497 -0.431085  0.224817 -0.215783 -1.187556
37  1.719562 -0.000074 -0.000003  -0.039730 0.066729 -1.510271
38  1.209199 0.000035 0.000010  -0.006946 -0.002847 -0.369175
39  3.806437 -0.112148 -1.295329  -0.029507 -0.180960 0.129126
40  1.719412 -0.000101 -0.000036  -0.068765 0.170678 -1.424016
41  1.099674 0.000022 0.000008  -0.023599 0.002280 -0.616218
42  0.943594 -0.180488 -1.592589  1.077226 0.106495 -0.817774
43  1.789779 -0.000009 -0.000042  0.023056 0.021409 -0.019466
44  1.206996 -0.000006 0.000003  0.206835 0.095578 1.319988
45  5.740573 0.000055 0.000724  0.004252 -0.000014 0.000021
46  11.480782 0.000041 0.001036  -0.021423 0.104198 0.021671
47  6.027515 -0.000273 -0.000237  -0.794204 -0.665209 -1.286883
48  -0.000002 11.691974 -0.000006  -1.239641 0.684781 0.926397
49  0.000003 -0.000002 0.000001  -3.040130 -0.000041 1.570856
50  -0.000007 -0.000015 0.000005  2.272644 -0.000030 1.570865
51  -4.954784 -9.006727 -7.353135  3.025771 -0.170713 -1.363523
52  -0.000001 0.000000 -0.000000  0.008153 -0.000259 0.000009
53  -0.000000 0.000000 0.000001  1.565115 0.043565 -0.106862
54  -0.669418 -15.095421 -5.944357  -0.928045 -0.099014 -1.919764
55  0.000002 -0.000000 -0.000000  0.000000 -0.000000 -0.000002
56  0.000031 0.000028 0.000000  -1.571901 -0.044449 -0.106509
57  8.174561 -15.372293 -17.467022  1.570796 -0.000000 0.000000
58  -21.089123 6.899941 -12.297750  1.570796 -0.000000 0.000000
59  -0.670483 -0.210714 -4.109488  1.570796 -0.000000 0.000000
60  -0.004311 0.001230 -0.000371  0.006898 -0.005534 -0.284229
61  0.376268 4.613964 -2.887995  1.570796 -0.000000 0.000000
62  0.000000 0.000000 0.000000  -0.078727 -3.136056 0.284226
63  0.000000 0.000000 0.000000  1.570796 -0.000000 0.000000
64  -2.808287 -6.596887 -4.111291  1.564619 0.008285 0.002404
65  0.032837 -0.689314 7.041600  0.000000 -0.000000 -0.000000
66  0.000002 0.704705 2.258059  0.000000 -0.000000 -0.000000
67  -1.069343 0.255757 -1.438859  0.000000 -0.000000 -0.000000
68  0.000003 0.704704 21.133167  0.000000 -0.000000 -0.000000
69  0.675334 -0.627303 0.013843  0.000000 -0.000000 -0.000000
70  0.799380 0.018979 -2.766579  0.000000 -0.000000 -0.000000
71  -2.779905 -7.349493 -4.752604  1.564619 0.008285 0.002404
72  -0.031882 1.350415 2.379174  0.000000 -0.000000 -0.000000
73  0.116051 0.879028 -1.115067  0.000000 -0.000000 -0.000000
74  -0.179815 0.692453 -1.115066  0.000000 -0.000000 -0.000000
time 18
0  0.000006 0.000000 0.000000  -1.570800 -1.391899 -1.570792
1  -4.005264 0.938027 -0.674797  -1.544956 -1.855077 -0.198630
2  6.027520 -0.000324 0.000194  -1.068234 -0.921412 -1.042461
3  11.692105 0.000644 -0.000739  -1.000169 -0.000030 -1.624993
4  11.479503 0.000154 -0.001116  0.923060 -0.660417 0.387033
5  3.859509 -0.142881 -1.192048  -0.832801 -0.004856 -1.898297
6  1.312590 0.000011 0.000008  -0.131461 -0.009191 -0.247243
7  0.729355 0.000053 0.000049  -0.005879 0.003193 -0.240629
8  3.942143 0.046272 -0.431511  -0.599048 0.209358 -1.511441
9  1.539112 0.000084 0.000005  -0.021882 -0.009207 -0.444880
10  1.196333 0.000145 0.000029  0.001886 0.006857 -0.720336
11  3.883506 -0.047270 0.431382  -0.255169 0.584126 -0.785235
12  1.719573 -0.000029 0.000017  0.039464 -0.052308 -1.096938
13  1.209178 0.000090 0.000011  -0.013101 -0.005611 -0.608919
14  4.085222 -0.082717 1.151041  0.066979 0.663140 -0.072524
15  1.719449 -0.000012 0.000023  -0.099918 0.246022 -0.769882
16  1.099675 0.000046 0.000005  -0.113949 0.032047 -1.389438
17  1.103133 -1.206770 0.707297  -0.713360 -0.747177 -0.600299
18  1.789819 -0.000002 -0.000018  -0.001117 -0.015804 0.871874
19  1.207013 -0.000012 -0.000044  0.001699 -0.000303 0.062698
20  5.740635 0.000410 -0.000702  -0.175778 0.000003 0.000071
21  11.480906 0.000244 -0.000881  -0.093401 -0.129127 0.020480
22  6.027524 -0.000330 0.000203  1.836386 -0.599981 1.650135
23  0.000003 11.692101 -0.000007  -1.103093 -0.546587 -0.854962
24  0.000003 0.000009 -0.000001  -0.131065 -0.000031 1.570739
25  -0.000000 -0.000010 -0.000001  0.868957 0.000002 1.570712
26  -3.662932 -4.026425 0.376266  1.473120 1.855075 -0.198639
27  6.027504 -0.000261 -0.000230  1.430913 0.595677 -0.276962
28  11.691991 0.000242 0.000857  0.970530 0.000073 -1.858029
29  11.479177 0.000019 0.001433  -1.632311 0.635486 0.142370
30  3.452863 -0.227594 1.051756  0.554395 -0.249329 -1.600262
31  1.312558 0.000023 -0.000001  -0.098769 0.190475 -0.745635
32  0.729343 0.000064 -0.000027  -0.040117 -0.002456 -0.806801
33  3.942045 0.050111 0.430998  0.413054 -0.141259 -1.490445
34  1.539093 0.000009 -0.000001  -0.021081 0.020361 -1.007904
35  1.196299 0.000074 -0.000004  -0.004516 -0.001755 -0.733348
36  3.883411 -0.050497 -0.431087  0.224817 -0.215783 -1.187556
37  1.719562 -0.000073 -0.000003  -0.039730 0.066729 -1.510271
38  1.209198 0.000033 0.000011  -0.006946 -0.002847 -0.369175
39  3.806437 -0.112148 -1.295331  -0.029507 -0.180960 0.129126
40  1.719415 -0.000101 -0.000036  -0.068765 0.170678 -1.424016
41  1.099674 0.000021 0.000008  -0.023599 0.002280 -0.616218
42  0.943593 -0.180488 -1.592590  1.077226 0.106495 -0.817774
43  1.789780 -0.000008 -0.000042  0.023056 0.021409 -0.019466
44  1.206997 -0.000003 0.000003  0.206835 0.095578 1.319988
45  5.740574 0.000054 0.000724  0.004321 -0.000014 0.000021
46  11.480781 0.000039 0.001036  -0.021396 0.104327 0.021603
47  6.027515 -0.000273 -0.000237  -0.794049 -0.665416 -1.286971
48  -0.000001 11.691974 -0.000005  -1.239913 0.685062 0.926522
49  0.000004 -0.000002 0.000000  -3.040130 -0.000041 1.570856
50  -0.000006 -0.000015 0.000006  2.272644 -0.000030 1.570865
51  -4.953862 -9.002222 -7.353677  3.026248 -0.171014 -1.363878
52  0.000000 -0.000000 -0.000001  0.008153 -0.000259 0.000009
53  0.000000 -0.000000 -0.000001  1.565115 0.043565 -0.106862
54  -0.670903 -15.091816 -5.941463  -0.927484 -0.099021 -1.920094
55  0.000001 -0.000000 -0.000000  0.000000 -0.000000 -0.000002
56  0.000030 0.000029 0.000001  -1.571902 -0.044449 -0.106509
57  8.174561 -15.372293 -17.467022  1.570796 -0.000000 0.000000
58  -21.089123 6.899941 -12.297750  1.570796 -0.000000 0.000000
59  -0.670483 -0.210714 -4.109488  1.570796 -0.000000 0.000000
60  -0.004311 0.001230 -0.000371  0.006898 -0.005534 -0.284229
61  0.376268 4.613964 -2.887995  1.570796 -0.000000 0.000000
62  0.000000 0.000000 0.000000  -0.078727 -3.136056 0.284226
63  0.000000 0.000000 0.000000  1.570796 -0.000000 0.000000
64  -2.808394 -6.592330 -4.111191  1.564420 0.007764 0.002128
65  0.032837 -0.689314 7.041598  0.000000 -0.000000 -0.000000
66  0.000003 0.704706 2.258055  0.000000 -0.000000 -0.000000
67  -1.069343 0.255757 -1.438860  0.000000 -0.000000 -0.000000
68  0.000004 0.704705 21.133165  0.000000 -0.000000 -0.000000
69  0.675334 -0.627302 0.013842  0.000000 -0.000000 -0.000000
70  0.799381 0.018980 -2.766580  0.000000 -0.000000 -0.000000
71  -2.779884 -7.345072 -4.752341  1.564420 0.007764 0.002128
72  -0.031882 1.350415 2.379174  0.000000 -0.000000 -0.000000
73  0.116050 0.879028 -1.115067  0.000000 -0.000000 -0.000000
74  -0.179815 0.692453 -1.115066  0.000000 -0.000000 -0.000000
end
