version 1
nodes
0 "ValveBiped.Bip01_Spine4" -1
1 "ValveBiped.Bip01_L_Clavicle" 0
2 "ValveBiped.Bip01_L_UpperArm" 1
3 "ValveBiped.Bip01_L_Forearm" 2
4 "ValveBiped.Bip01_L_Hand" 3
5 "ValveBiped.Bip01_L_Finger4" 4
6 "ValveBiped.Bip01_L_Finger41" 5
7 "ValveBiped.Bip01_L_Finger42" 6
8 "ValveBiped.Bip01_L_Finger3" 4
9 "ValveBiped.Bip01_L_Finger31" 8
10 "ValveBiped.Bip01_L_Finger32" 9
11 "ValveBiped.Bip01_L_Finger2" 4
12 "ValveBiped.Bip01_L_Finger21" 11
13 "ValveBiped.Bip01_L_Finger22" 12
14 "ValveBiped.Bip01_L_Finger1" 4
15 "ValveBiped.Bip01_L_Finger11" 14
16 "ValveBiped.Bip01_L_Finger12" 15
17 "ValveBiped.Bip01_L_Finger0" 4
18 "ValveBiped.Bip01_L_Finger01" 17
19 "ValveBiped.Bip01_L_Finger02" 18
20 "ValveBiped.Bip01_L_Ulna" 3
21 "ValveBiped.Bip01_L_Wrist" 3
22 "rig_l_upperarm" 1
23 "rig_l_forearm" 22
24 "rig_d_l_forearm" 23
25 "rig_d_l_upperarm" 22
26 "ValveBiped.Bip01_R_Clavicle" 0
27 "ValveBiped.Bip01_R_UpperArm" 26
28 "ValveBiped.Bip01_R_Forearm" 27
29 "ValveBiped.Bip01_R_Hand" 28
30 "ValveBiped.Bip01_R_Finger4" 29
31 "ValveBiped.Bip01_R_Finger41" 30
32 "ValveBiped.Bip01_R_Finger42" 31
33 "ValveBiped.Bip01_R_Finger3" 29
34 "ValveBiped.Bip01_R_Finger31" 33
35 "ValveBiped.Bip01_R_Finger32" 34
36 "ValveBiped.Bip01_R_Finger2" 29
37 "ValveBiped.Bip01_R_Finger21" 36
38 "ValveBiped.Bip01_R_Finger22" 37
39 "ValveBiped.Bip01_R_Finger1" 29
40 "ValveBiped.Bip01_R_Finger11" 39
41 "ValveBiped.Bip01_R_Finger12" 40
42 "ValveBiped.Bip01_R_Finger0" 29
43 "ValveBiped.Bip01_R_Finger01" 42
44 "ValveBiped.Bip01_R_Finger02" 43
45 "ValveBiped.Bip01_R_Ulna" 28
46 "ValveBiped.Bip01_R_Wrist" 28
47 "rig_r_upperarm" 26
48 "rig_r_forearm" 47
49 "rig_d_r_forearm" 48
50 "rig_d_r_upperarm" 47
51 "rig_r_hand" -1
52 "rig_d_r_hand" 51
53 "rig_d_r_wrist" 52
54 "rig_l_hand" -1
55 "rig_d_l_hand" 54
56 "rig_d_l_wrist" 54
57 "rig_l_pole" -1
58 "rig_r_pole" -1
59 "rig_l_clavicle" -1
60 "rig_d_l_clavicle" 59
61 "rig_r_clavicle" -1
62 "rig_d_r_clavicle" 61
63 "Camera" -1
64 "body" -1
65 "trigger" 64
66 "bolt" 64
67 "chandle" 64
68 "barrel" 64
69 "magrel" 64
70 "boltrelease" 64
71 "bullet1" 64
72 "mag" -1
73 "bullet2" 72
74 "bullet3" 72
end
skeleton
time 0
0  0.031807 0.000000 -0.000718  -1.570800 -1.391899 -1.570792
1  -4.751105 -3.100100 -0.425092  -1.544956 -1.855077 -0.198630
2  6.027519 -0.000326 0.000201  -1.102153 -0.931529 -1.189188
3  11.692103 0.000483 -0.000739  -0.221922 -0.000030 -1.443957
4  11.479630 -0.000510 -0.000867  0.951806 -0.242819 0.496915
5  3.859503 -0.142876 -1.192065  -0.376675 0.158898 -1.805694
6  1.312589 0.000015 0.000005  -0.181175 0.146992 -0.778420
7  0.729353 0.000053 0.000049  -0.031171 -0.017918 -1.149194
8  3.942141 0.046276 -0.431529  -0.395402 0.284279 -1.632068
9  1.539109 0.000083 -0.000001  -0.017908 0.024319 -0.997324
10  1.196333 0.000145 0.000025  -0.007633 0.005851 -1.269758
11  3.883506 -0.047266 0.431365  -0.227106 0.389700 -1.453903
12  1.719572 -0.000027 0.000010  0.003588 -0.071161 -1.113298
13  1.209180 0.000091 0.000008  -0.007485 -0.004716 -1.374143
14  4.166035 -0.119654 1.216740  -0.208528 0.343239 -1.539092
15  1.719449 -0.000012 0.000021  0.005905 0.032644 -0.879292
16  1.099674 0.000048 0.000003  -0.070425 0.040686 -1.377946
17  0.806986 -1.173642 1.039816  -0.968936 -1.008553 -0.468477
18  1.789819 -0.000006 -0.000016  0.032221 0.034033 0.959261
19  1.207016 -0.000014 -0.000042  -0.004769 -0.003056 -0.025745
20  5.740634 0.000365 -0.000698  -0.158055 0.000003 0.000060
21  11.480933 0.000040 -0.000827  -0.109142 -0.054575 0.067843
22  6.027522 -0.000329 0.000206  1.852798 -0.581762 1.467133
23  0.000001 11.692097 -0.000006  -0.996160 -0.445265 -0.788877
24  0.000002 0.000006 0.000000  0.647175 -0.000031 1.570738
25  -0.000002 -0.000007 -0.000002  0.868967 -0.000009 1.570721
26  -5.244507 -9.426861 0.826811  1.473120 1.855074 -0.198639
27  6.027512 -0.000266 -0.000220  1.549517 0.935913 -0.459860
28  11.691998 0.000244 0.000862  0.437593 0.000040 -1.452850
29  11.480678 0.000234 0.000798  -1.256143 0.585833 0.635696
30  3.859439 -0.132762 1.193064  0.470066 -0.067999 -1.665317
31  1.312559 0.000028 -0.000002  0.021695 -0.123985 -0.527511
32  0.729346 0.000064 -0.000028  -0.138732 -0.127376 -1.011820
33  3.942047 0.050135 0.430998  0.197841 -0.127871 -1.406840
34  1.539097 0.000009 -0.000005  0.037568 -0.059890 -1.033472
35  1.196301 0.000077 -0.000009  -0.020769 -0.003050 -1.085867
36  3.883414 -0.050476 -0.431086  0.186732 -0.275469 -1.223438
37  1.719564 -0.000082 -0.000014  0.010321 -0.108736 -1.387818
38  1.209199 0.000034 0.000006  -0.015858 0.069226 -0.718582
39  3.859588 -0.149086 -1.331322  0.001621 -0.040764 -0.203696
40  1.719414 -0.000095 -0.000049  -0.007420 0.024092 -1.258573
41  1.099674 0.000025 -0.000001  -0.008239 -0.008789 -0.736351
42  0.805983 -0.359849 -1.318339  1.335945 0.239302 -0.765945
43  1.789779 -0.000009 -0.000030  -0.001000 0.011568 0.269127
44  1.206996 -0.000004 0.000014  -0.001432 -0.000153 1.276797
45  5.740574 0.000118 0.000726  0.087780 -0.000013 0.000032
46  11.481083 0.000183 0.000913  0.029005 0.108851 0.094310
47  6.027517 -0.000277 -0.000231  -1.066226 -0.403369 -1.412864
48  -0.000001 11.691979 -0.000008  -1.001411 0.450072 0.792364
49  0.000004 -0.000002 -0.000000  2.710123 -0.000036 1.570861
50  -0.000005 -0.000015 0.000004  2.272646 -0.000031 1.570865
51  -3.228538 -7.056912 -5.655094  -0.161604 -2.988785 1.426852
52  -0.000000 -0.000000 -0.000000  0.008153 -0.000259 0.000009
53  0.000000 0.000000 -0.000000  1.565115 0.043565 -0.106862
54  0.121869 -12.707531 -6.089507  -0.369490 -0.218560 -1.845342
55  -0.000001 -0.000001 -0.000000  0.000000 -0.000000 -0.000002
56  0.000030 0.000028 0.000000  -1.571901 -0.044449 -0.106509
57  7.241026 -5.571117 -15.133753  1.570796 -0.000000 0.000000
58  -17.141647 7.639411 -16.354797  1.570796 -0.000000 0.000000
59  -0.388980 3.895684 -4.125583  1.570796 -0.000000 0.000000
60  -0.004311 0.001230 -0.000371  0.006898 -0.005534 -0.284228
61  0.858610 10.209643 -3.484070  1.570796 -0.000000 0.000000
62  0.000000 0.000000 0.000000  -0.078728 -3.136056 0.284225
63  0.031801 0.000000 -0.000718  1.570796 -0.000000 0.000000
64  -2.262835 -10.749999 -1.708216  1.571103 0.041360 0.006551
65  0.084987 -1.430222 1.369412  -0.000000 -0.000000 -0.000000
66  -0.078505 -0.217140 -0.284104  -0.000000 -0.000000 -0.000000
67  0.084987 0.706513 -3.480916  -0.000000 -0.000000 -0.000000
68  0.084988 -0.512604 7.072140  -0.000000 -0.000000 -0.000000
69  -0.109108 -2.470345 0.230350  -0.000000 -0.000000 -0.000000
70  0.664584 -0.478699 -0.445295  -0.000000 -0.000000 -0.000000
71  0.204886 -0.846613 -0.665132  -0.000000 -0.000000 -0.000000
72  -2.350455 -10.297424 -5.809082  1.571103 0.041360 0.006551
73  -0.166807 3.093656 -0.213254  -0.000000 -0.000000 -0.000000
74  0.105926 2.911775 -0.304607  -0.000000 -0.000000 -0.000000
time 1
0  0.031807 0.000000 -0.000718  -1.570800 -1.391899 -1.570792
1  -4.751105 -3.100100 -0.425092  -1.544956 -1.855077 -0.198630
2  6.027519 -0.000326 0.000201  -1.106601 -0.897936 -1.156832
3  11.692104 0.000484 -0.000738  -0.221922 -0.000031 -1.460695
4  11.479124 -0.000817 -0.000939  0.739634 -0.333059 0.538509
5  3.859504 -0.142876 -1.192067  -0.415369 0.194875 -1.245867
6  1.312590 0.000013 0.000004  -0.084086 0.081176 -0.605253
7  0.729355 0.000054 0.000048  -0.017641 -0.005360 -0.696812
8  3.942142 0.046276 -0.431529  -0.238428 0.228143 -1.103203
9  1.539110 0.000081 -0.000000  -0.006653 0.013866 -0.622498
10  1.196332 0.000145 0.000024  -0.003191 0.003749 -0.850257
11  3.883508 -0.047266 0.431364  -0.010916 0.238469 -0.885876
12  1.719573 -0.000025 0.000010  -0.005447 -0.033158 -0.739642
13  1.209178 0.000091 0.000007  -0.004904 0.000303 -0.795298
14  4.166037 -0.119654 1.216740  0.142650 0.196836 -0.890313
15  1.719449 -0.000012 0.000020  0.004821 0.017974 -0.621144
16  1.099675 0.000049 0.000001  -0.029651 0.031883 -0.810679
17  0.806987 -1.173642 1.039815  -1.112386 -0.818225 -0.587018
18  1.789819 -0.000006 -0.000016  0.012289 0.014672 0.531377
19  1.207014 -0.000013 -0.000042  -0.001841 -0.001273 0.129844
20  5.740635 0.000364 -0.000699  -0.205068 0.000003 0.000060
21  11.480832 -0.000022 -0.000841  -0.142683 -0.083472 0.061470
22  6.027522 -0.000329 0.000206  1.874903 -0.610068 1.483556
23  0.000002 11.692097 -0.000006  -1.006129 -0.454364 -0.795349
24  0.000002 0.000006 0.000001  0.647175 -0.000031 1.570738
25  -0.000001 -0.000007 -0.000002  0.868967 -0.000009 1.570721
26  -5.314320 -9.351008 0.765527  1.473120 1.855074 -0.198639
27  6.027512 -0.000266 -0.000219  1.535850 0.908627 -0.475712
28  11.691997 0.000245 0.000861  0.442001 0.000045 -1.500187
29  11.480288 0.000020 0.000903  -1.262688 0.602959 0.649578
30  3.859439 -0.132762 1.193064  0.406970 -0.281773 -0.608983
31  1.312557 0.000026 -0.000002  -0.000001 -0.000045 -0.148960
32  0.729345 0.000064 -0.000027  -0.000028 -0.000012 0.046463
33  3.942048 0.050135 0.430999  0.121277 -0.118791 -0.520706
34  1.539095 0.000007 -0.000005  0.000006 -0.000010 0.042926
35  1.196299 0.000077 -0.000007  -0.000010 -0.000007 -0.140033
36  3.883414 -0.050477 -0.431085  -0.089867 -0.000697 -0.298017
37  1.719565 -0.000081 -0.000014  -0.002290 -0.007625 -0.075727
38  1.209196 0.000035 0.000005  -0.001278 -0.004275 0.074338
39  3.859589 -0.149086 -1.331322  -0.330199 0.136789 -0.257124
40  1.719414 -0.000096 -0.000049  -0.001918 -0.006299 -0.072274
41  1.099675 0.000024 -0.000001  -0.001198 -0.004013 0.046406
42  0.805984 -0.359849 -1.318338  1.222458 0.446678 -0.820061
43  1.789780 -0.000008 -0.000030  0.005005 0.005942 0.079085
44  1.206998 -0.000004 0.000013  0.002842 0.001473 0.642062
45  5.740575 0.000119 0.000726  0.087784 -0.000013 0.000032
46  11.481007 0.000142 0.000934  0.026041 0.111969 0.096712
47  6.027516 -0.000277 -0.000230  -1.047189 -0.425932 -1.425494
48  -0.000001 11.691980 -0.000007  -1.029517 0.476039 0.810374
49  0.000003 -0.000002 0.000000  2.714531 -0.000036 1.570861
50  -0.000007 -0.000014 0.000004  2.272646 -0.000031 1.570865
51  -3.278389 -6.741992 -5.874969  -0.161604 -2.988784 1.426852
52  -0.000000 0.000000 -0.000001  0.008153 -0.000259 0.000009
53  0.000001 -0.000000 0.000000  1.565115 0.043565 -0.106862
54  0.219082 -12.583543 -6.652937  -0.569534 -0.179000 -1.751171
55  -0.000001 0.000001 -0.000000  0.000000 -0.000000 -0.000002
56  0.000029 0.000029 0.000001  -1.571901 -0.044449 -0.106509
57  7.609339 -5.427415 -15.552460  1.570796 -0.000000 0.000000
58  -17.102730 7.535203 -16.509079  1.570796 -0.000000 0.000000
59  -0.388980 3.895684 -4.125583  1.570796 -0.000000 0.000000
60  -0.004311 0.001230 -0.000371  0.006898 -0.005534 -0.284228
61  0.797326 10.147424 -3.566266  1.570796 -0.000000 0.000000
62  0.000000 0.000000 0.000000  -0.078728 -3.136056 0.284225
63  0.031801 0.000000 -0.000718  1.568900 0.001131 -0.001158
64  -2.217095 -11.381620 -1.612556  1.571904 0.040510 0.046368
65  0.084987 -1.430222 1.369412  -0.000000 -0.000000 0.000000
66  -0.078505 -0.217140 -0.284106  -0.000000 -0.000000 0.000000
67  0.084987 0.706513 -3.480917  -0.000000 -0.000000 0.000000
68  0.084988 -0.512604 7.072135  -0.000000 -0.000000 0.000000
69  -0.109108 -2.470345 0.230349  -0.000000 -0.000000 0.000000
70  0.664583 -0.478699 -0.445295  -0.000000 -0.000000 0.000000
71  0.204886 -0.846613 -0.665134  -0.000000 -0.000000 0.000000
72  -2.319315 -10.929450 -5.713128  1.571904 0.040510 0.046368
73  -0.166808 3.093656 -0.213253  -0.000000 -0.000000 0.000000
74  0.105926 2.911774 -0.304606  -0.000000 -0.000000 0.000000
time 2
0  0.031807 0.000000 -0.000718  -1.570800 -1.391899 -1.570792
1  -4.751105 -3.100100 -0.425092  -1.544956 -1.855077 -0.198630
2  6.027518 -0.000326 0.000202  -1.211874 -0.658408 -0.988576
3  11.692102 0.000485 -0.000739  -0.221930 -0.000059 -1.881452
4  11.479187 -0.000919 -0.000961  0.692355 -0.364838 0.793156
5  3.859503 -0.142876 -1.192067  -0.428827 0.245566 -0.681687
6  1.312588 0.000013 0.000004  -0.000028 0.000045 -0.439736
7  0.729355 0.000053 0.000048  0.000017 0.000021 -0.244319
8  3.942140 0.046276 -0.431529  -0.132737 0.103975 -0.596328
9  1.539110 0.000082 -0.000000  -0.000007 0.000021 -0.247842
10  1.196333 0.000147 0.000024  0.000010 0.000019 -0.430771
11  3.883505 -0.047266 0.431364  0.088576 0.002950 -0.372617
12  1.719573 -0.000025 0.000010  0.000014 0.005518 -0.366532
13  1.209179 0.000091 0.000007  0.000003 0.003092 -0.216438
14  4.166036 -0.119654 1.216740  0.338202 -0.116340 -0.327918
15  1.719448 -0.000011 0.000021  0.000028 0.004067 -0.363021
16  1.099675 0.000049 0.000002  0.000002 0.002578 -0.244381
17  0.806986 -1.173642 1.039816  -1.256601 -0.638331 -0.728353
18  1.789820 -0.000006 -0.000018  0.001924 -0.011232 0.103834
19  1.207016 -0.000013 -0.000043  0.001328 0.000027 0.299079
20  5.740637 0.000364 -0.000698  -0.249001 0.000003 0.000060
21  11.480844 -0.000042 -0.000845  -0.140234 -0.107681 0.105148
22  6.027522 -0.000329 0.000206  2.133822 -0.761961 1.412307
23  0.000002 11.692097 -0.000006  -1.253879 -0.699405 -0.932706
24  0.000002 0.000007 0.000001  0.647175 -0.000031 1.570738
25  -0.000001 -0.000006 -0.000002  0.868967 -0.000009 1.570721
26  -5.524427 -9.122721 0.581086  1.473120 1.855074 -0.198639
27  6.027511 -0.000266 -0.000222  1.538715 0.813845 -0.492710
28  11.691999 0.000243 0.000862  0.455277 0.000053 -1.630076
29  11.479330 -0.000471 0.001148  -1.278219 0.622469 0.689121
30  3.859438 -0.132762 1.193065  0.406970 -0.281773 -0.608983
31  1.312558 0.000025 -0.000002  -0.000001 -0.000044 -0.148960
32  0.729346 0.000065 -0.000029  -0.000028 -0.000012 0.046463
33  3.942047 0.050135 0.431000  0.121277 -0.118791 -0.520706
34  1.539097 0.000006 -0.000006  0.000006 -0.000010 0.042926
35  1.196301 0.000078 -0.000008  -0.000010 -0.000007 -0.140033
36  3.883414 -0.050476 -0.431085  -0.089867 -0.000697 -0.298017
37  1.719565 -0.000081 -0.000015  -0.002290 -0.007625 -0.075727
38  1.209197 0.000035 0.000005  -0.001278 -0.004275 0.074338
39  3.859588 -0.149086 -1.331321  -0.330199 0.136789 -0.257124
40  1.719412 -0.000096 -0.000049  -0.001918 -0.006299 -0.072274
41  1.099674 0.000024 -0.000001  -0.001198 -0.004013 0.046406
42  0.805983 -0.359849 -1.318338  1.079799 0.646456 -0.910421
43  1.789780 -0.000007 -0.000030  0.011964 0.001551 -0.110982
44  1.206996 -0.000004 0.000014  0.005319 0.005316 0.007333
45  5.740575 0.000118 0.000727  0.089319 -0.000013 0.000032
46  11.480814 0.000043 0.000984  0.020084 0.115392 0.104534
47  6.027517 -0.000277 -0.000232  -0.959102 -0.478000 -1.483171
48  -0.000002 11.691981 -0.000007  -1.106006 0.549492 0.856737
49  0.000003 -0.000002 -0.000000  2.727803 -0.000036 1.570861
50  -0.000007 -0.000014 0.000004  2.272646 -0.000031 1.570865
51  -3.935186 -5.891271 -6.404708  -0.159487 -2.999500 1.420032
52  -0.000001 0.000000 -0.000000  0.008153 -0.000259 0.000009
53  0.000000 0.000000 0.000000  1.565115 0.043565 -0.106862
54  1.688940 -9.203678 -7.210402  -0.545871 -0.095720 -1.723759
55  -0.000000 0.000000 -0.000001  0.000000 -0.000000 -0.000002
56  0.000030 0.000029 0.000000  -1.571902 -0.044449 -0.106509
57  8.733871 -4.994926 -16.812595  1.570796 -0.000000 0.000000
58  -16.985605 7.221582 -16.973404  1.570796 -0.000000 0.000000
59  -0.388980 3.895684 -4.125583  1.570796 -0.000000 0.000000
60  -0.004311 0.001230 -0.000371  0.006898 -0.005534 -0.284228
61  0.612885 9.960168 -3.813643  1.570796 -0.000000 0.000000
62  0.000000 0.000000 0.000000  -0.078728 -3.136056 0.284225
63  0.031801 0.000000 -0.000718  1.565375 0.003226 -0.003314
64  -2.092946 -13.096019 -1.352906  1.573953 0.037975 0.157530
65  0.084987 -1.430221 1.369412  0.000000 -0.000000 -0.000000
66  -0.078505 -0.217140 -0.284105  0.000000 -0.000000 -0.000000
67  0.084987 0.706513 -3.480915  0.000000 -0.000000 -0.000000
68  0.084988 -0.512603 7.072137  0.000000 -0.000000 -0.000000
69  -0.109109 -2.470345 0.230350  0.000000 -0.000000 -0.000000
70  0.664583 -0.478699 -0.445294  0.000000 -0.000000 -0.000000
71  0.204886 -0.846612 -0.665132  0.000000 -0.000000 -0.000000
72  -2.235712 -12.648046 -5.452729  1.573953 0.037975 0.157530
73  -0.166807 3.093657 -0.213253  0.000000 -0.000000 -0.000000
74  0.105926 2.911775 -0.304606  0.000000 -0.000000 -0.000000
time 3
0  0.031807 0.000000 -0.000718  -1.570800 -1.391899 -1.570792
1  -4.751105 -3.100100 -0.425092  -1.544956 -1.855077 -0.198630
2  6.027517 -0.000325 0.000203  -1.280917 -0.461530 -0.889265
3  11.692100 0.000484 -0.000737  -0.221930 -0.000069 -2.023755
4  11.480559 -0.000039 -0.000762  0.737406 -0.307126 0.794902
5  3.859503 -0.142876 -1.192066  -0.431116 0.241340 -0.691182
6  1.312590 0.000013 0.000004  -0.000028 0.000045 -0.439736
7  0.729355 0.000053 0.000048  0.000017 0.000021 -0.244319
8  3.942141 0.046277 -0.431529  -0.133779 0.102628 -0.606431
9  1.539110 0.000081 -0.000001  -0.000007 0.000020 -0.247842
10  1.196333 0.000142 0.000025  0.000010 0.000019 -0.430771
11  3.883507 -0.047266 0.431364  0.088542 0.003846 -0.382716
12  1.719572 -0.000026 0.000010  0.000014 0.005518 -0.366532
13  1.209178 0.000090 0.000008  0.000003 0.003092 -0.216438
14  4.166036 -0.119654 1.216740  0.339304 -0.112970 -0.337544
15  1.719447 -0.000012 0.000021  0.000028 0.004067 -0.363021
16  1.099676 0.000049 0.000003  0.000002 0.002578 -0.244381
17  0.806987 -1.173642 1.039816  -1.249209 -0.637284 -0.742133
18  1.789820 -0.000005 -0.000016  0.001453 -0.010744 0.109558
19  1.207015 -0.000013 -0.000042  0.001268 0.000014 0.320656
20  5.740636 0.000363 -0.000699  -0.226518 0.000003 0.000060
21  11.481116 0.000134 -0.000806  -0.137158 -0.094740 0.112385
22  6.027522 -0.000329 0.000206  2.403986 -0.847195 1.279346
23  0.000002 11.692096 -0.000005  -1.339768 -0.787811 -0.966447
24  0.000005 0.000006 -0.000001  0.647175 -0.000031 1.570738
25  -0.000002 -0.000007 -0.000001  0.868967 -0.000009 1.570721
26  -5.866051 -8.751540 0.281196  1.473120 1.855074 -0.198639
27  6.027511 -0.000264 -0.000221  1.561978 0.629752 -0.512860
28  11.691997 0.000241 0.000864  0.476873 0.000060 -1.722942
29  11.480385 0.000078 0.000886  -1.341592 0.590565 0.604844
30  3.859439 -0.132762 1.193065  0.406970 -0.281773 -0.608983
31  1.312558 0.000026 -0.000003  -0.000001 -0.000044 -0.148960
32  0.729345 0.000065 -0.000029  -0.000028 -0.000012 0.046463
33  3.942048 0.050135 0.431000  0.121277 -0.118791 -0.520706
34  1.539097 0.000006 -0.000005  0.000006 -0.000010 0.042926
35  1.196299 0.000078 -0.000007  -0.000010 -0.000007 -0.140033
36  3.883415 -0.050477 -0.431084  -0.089867 -0.000697 -0.298017
37  1.719564 -0.000080 -0.000015  -0.002290 -0.007625 -0.075727
38  1.209198 0.000035 0.000006  -0.001278 -0.004275 0.074338
39  3.859590 -0.149086 -1.331321  -0.330199 0.136789 -0.257124
40  1.719414 -0.000096 -0.000049  -0.001918 -0.006299 -0.072274
41  1.099674 0.000024 -0.000001  -0.001198 -0.004013 0.046406
42  0.805983 -0.359849 -1.318337  1.079799 0.646456 -0.910421
43  1.789781 -0.000007 -0.000029  0.011964 0.001551 -0.110982
44  1.206996 -0.000005 0.000014  0.005319 0.005316 0.007332
45  5.740575 0.000119 0.000725  0.071769 -0.000013 0.000032
46  11.481026 0.000153 0.000929  0.014496 0.105192 0.093554
47  6.027517 -0.000277 -0.000230  -0.765765 -0.555355 -1.614562
48  0.000000 11.691979 -0.000009  -1.160423 0.603791 0.887033
49  0.000003 -0.000001 0.000000  2.749398 -0.000036 1.570860
50  -0.000005 -0.000015 0.000005  2.272646 -0.000031 1.570865
51  -5.940361 -5.309317 -8.059029  -0.148162 -3.020788 1.404212
52  -0.000000 0.000000 -0.000002  0.008153 -0.000259 0.000009
53  0.000000 0.000000 0.000001  1.565115 0.043565 -0.106862
54  3.191057 -7.934329 -8.460021  -0.479476 -0.025172 -1.725535
55  0.000000 -0.000000 0.000000  0.000000 -0.000000 -0.000002
56  0.000031 0.000029 0.000001  -1.571901 -0.044449 -0.106509
57  10.487963 -4.291727 -18.861506  1.570796 -0.000000 0.000000
58  -16.795168 6.711651 -17.728369  1.570796 -0.000000 0.000000
59  -0.388980 3.895684 -4.125583  1.570796 -0.000000 0.000000
60  -0.004311 0.001230 -0.000371  0.006898 -0.005534 -0.284228
61  0.312994 9.655701 -4.215864  1.570796 -0.000000 0.000000
62  0.000000 0.000000 0.000000  -0.078728 -3.136056 0.284225
63  0.031801 0.000000 -0.000718  1.563475 0.004351 -0.004479
64  -1.909989 -15.622501 -0.970265  1.576525 0.033667 0.328779
65  0.084986 -1.430222 1.369412  0.000000 0.000000 -0.000000
66  -0.078506 -0.217140 -0.284106  0.000000 0.000000 -0.000000
67  0.084987 0.706513 -3.480918  0.000000 0.000000 -0.000000
68  0.084987 -0.512604 7.072136  0.000000 0.000000 -0.000000
69  -0.109109 -2.470345 0.230349  0.000000 0.000000 -0.000000
70  0.664583 -0.478699 -0.445295  0.000000 0.000000 -0.000000
71  0.204886 -0.846613 -0.665134  0.000000 0.000000 -0.000000
72  -2.113657 -15.189714 -5.069146  1.576525 0.033667 0.328779
73  -0.166807 3.093657 -0.213254  0.000000 0.000000 -0.000000
74  0.105927 2.911776 -0.304606  0.000000 0.000000 -0.000000
time 4
0  0.031807 0.000000 -0.000718  -1.570800 -1.391899 -1.570792
1  -4.751105 -3.100100 -0.425092  -1.544956 -1.855077 -0.198630
2  6.027516 -0.000326 0.000204  -1.342545 -0.272020 -0.829261
3  11.692101 0.000485 -0.000739  -0.221930 -0.000071 -2.055696
4  11.480412 -0.000130 -0.000784  0.806725 -0.127871 0.631542
5  3.859503 -0.142874 -1.192066  -0.437437 0.229106 -0.718304
6  1.312589 0.000014 0.000005  -0.000028 0.000045 -0.439735
7  0.729354 0.000052 0.000049  0.000017 0.000021 -0.244319
8  3.942141 0.046279 -0.431530  -0.136689 0.098707 -0.635386
9  1.539110 0.000083 -0.000000  -0.000007 0.000021 -0.247842
10  1.196332 0.000144 0.000025  0.000010 0.000019 -0.430771
11  3.883505 -0.047264 0.431363  0.088393 0.006415 -0.411676
12  1.719574 -0.000026 0.000011  0.000014 0.005518 -0.366532
13  1.209179 0.000090 0.000008  0.000003 0.003092 -0.216438
14  4.166036 -0.119652 1.216739  0.342278 -0.103252 -0.365106
15  1.719450 -0.000011 0.000022  0.000028 0.004067 -0.363021
16  1.099674 0.000050 0.000002  0.000002 0.002578 -0.244381
17  0.806986 -1.173640 1.039816  -1.242034 -0.641384 -0.755353
18  1.789819 -0.000006 -0.000016  0.000956 -0.009258 0.126307
19  1.207016 -0.000013 -0.000041  0.001090 0.000003 0.338067
20  5.740635 0.000365 -0.000698  -0.183374 0.000003 0.000060
21  11.481091 0.000117 -0.000811  -0.141854 -0.047893 0.096192
22  6.027522 -0.000329 0.000206  2.705074 -0.882314 1.087271
23  0.000001 11.692097 -0.000006  -1.359525 -0.807928 -0.972925
24  0.000003 0.000007 0.000002  0.647175 -0.000031 1.570738
25  -0.000002 -0.000006 -0.000002  0.868967 -0.000009 1.570721
26  -6.312879 -8.266054 -0.111047  1.473120 1.855074 -0.198639
27  6.027510 -0.000264 -0.000228  1.611963 0.412950 -0.548531
28  11.691999 0.000243 0.000862  0.505139 0.000061 -1.729213
29  11.480326 0.000066 0.000906  -1.440643 0.483946 0.433001
30  3.859438 -0.132762 1.193063  0.406970 -0.281773 -0.608983
31  1.312559 0.000026 -0.000002  -0.000001 -0.000045 -0.148960
32  0.729346 0.000066 -0.000028  -0.000028 -0.000012 0.046463
33  3.942047 0.050135 0.430997  0.121277 -0.118791 -0.520706
34  1.539097 0.000007 -0.000002  0.000006 -0.000010 0.042926
35  1.196299 0.000077 -0.000009  -0.000010 -0.000007 -0.140033
36  3.883414 -0.050477 -0.431086  -0.089867 -0.000697 -0.298017
37  1.719564 -0.000081 -0.000014  -0.002290 -0.007625 -0.075727
38  1.209198 0.000034 0.000006  -0.001278 -0.004275 0.074338
39  3.859590 -0.149086 -1.331324  -0.330199 0.136789 -0.257124
40  1.719413 -0.000095 -0.000050  -0.001918 -0.006299 -0.072274
41  1.099674 0.000024 -0.000000  -0.001198 -0.004013 0.046406
42  0.805984 -0.359849 -1.318340  1.079799 0.646456 -0.910421
43  1.789782 -0.000008 -0.000031  0.011964 0.001551 -0.110982
44  1.206997 -0.000003 0.000014  0.005319 0.005316 0.007332
45  5.740574 0.000118 0.000726  0.039920 -0.000013 0.000032
46  11.481012 0.000151 0.000935  0.008187 0.078980 0.068428
47  6.027516 -0.000277 -0.000232  -0.506596 -0.596924 -1.817060
48  -0.000002 11.691981 -0.000008  -1.164098 0.607506 0.888989
49  0.000003 -0.000002 -0.000000  2.777663 -0.000036 1.570860
50  -0.000007 -0.000014 0.000004  2.272646 -0.000031 1.570865
51  -8.850160 -4.940394 -10.506229  -0.132643 -3.059765 1.378960
52  -0.000000 0.000001 -0.000000  0.008153 -0.000259 0.000009
53  0.000001 0.000000 -0.000002  1.565115 0.043565 -0.106862
54  4.771488 -7.344915 -9.981775  -0.438068 0.009559 -1.832373
55  -0.000000 -0.000001 0.000000  0.000000 -0.000000 -0.000002
56  0.000030 0.000028 0.000002  -1.571902 -0.044449 -0.106509
57  12.508699 -3.371975 -21.541378  1.570796 -0.000000 0.000000
58  -16.546085 6.044685 -18.715828  1.570796 -0.000000 0.000000
59  -0.388980 3.895684 -4.125583  1.570796 -0.000000 0.000000
60  -0.004311 0.001230 -0.000371  0.006898 -0.005534 -0.284228
61  -0.079249 9.257473 -4.741950  1.570796 -0.000000 0.000000
62  0.000000 0.000000 0.000000  -0.078728 -3.136056 0.284225
63  0.031801 0.000000 -0.000718  1.563882 0.004111 -0.004230
64  -1.687828 -18.690372 -0.505629  1.578671 0.027678 0.546028
65  0.084988 -1.430222 1.369412  0.000000 -0.000000 0.000000
66  -0.078505 -0.217140 -0.284105  0.000000 -0.000000 0.000000
67  0.084988 0.706513 -3.480916  0.000000 -0.000000 0.000000
68  0.084989 -0.512603 7.072137  0.000000 -0.000000 0.000000
69  -0.109108 -2.470345 0.230350  0.000000 -0.000000 0.000000
70  0.664584 -0.478699 -0.445295  0.000000 -0.000000 0.000000
71  0.204886 -0.846613 -0.665131  0.000000 -0.000000 0.000000
72  -1.963554 -18.291384 -4.603724  1.578671 0.027678 0.546028
73  -0.166807 3.093657 -0.213254  0.000000 -0.000000 0.000000
74  0.105927 2.911776 -0.304608  0.000000 -0.000000 0.000000
time 5
0  0.031807 0.000000 -0.000718  -1.570800 -1.391899 -1.570792
1  -4.751105 -3.100100 -0.425092  -1.544956 -1.855077 -0.198630
2  6.027516 -0.000326 0.000205  -1.409880 -0.109667 -0.810037
3  11.692099 0.000485 -0.000738  -0.221930 -0.000067 -2.000751
4  11.478116 -0.001409 -0.001072  0.909298 0.166288 0.427019
5  3.859504 -0.142875 -1.192066  -0.446338 0.210249 -0.759139
6  1.312589 0.000014 0.000002  -0.000028 0.000045 -0.439735
7  0.729354 0.000055 0.000048  0.000017 0.000021 -0.244319
8  3.942140 0.046277 -0.431530  -0.140879 0.092607 -0.679252
9  1.539110 0.000081 -0.000000  -0.000007 0.000020 -0.247842
10  1.196332 0.000145 0.000024  0.000010 0.000019 -0.430771
11  3.883506 -0.047265 0.431364  0.088026 0.010300 -0.455596
12  1.719573 -0.000027 0.000009  0.000014 0.005518 -0.366532
13  1.209178 0.000089 0.000008  0.000003 0.003092 -0.216438
14  4.166035 -0.119653 1.216740  0.346267 -0.088370 -0.406799
15  1.719449 -0.000011 0.000022  0.000028 0.004067 -0.363021
16  1.099674 0.000049 0.000002  0.000002 0.002578 -0.244381
17  0.806987 -1.173641 1.039816  -1.235400 -0.649815 -0.767289
18  1.789820 -0.000005 -0.000016  0.000513 -0.006971 0.151783
19  1.207014 -0.000013 -0.000042  0.000819 -0.000004 0.350546
20  5.740636 0.000363 -0.000698  -0.137856 0.000003 0.000060
21  11.480635 -0.000139 -0.000869  -0.137541 0.025528 0.074383
22  6.027522 -0.000329 0.000206  -0.167638 -2.285823 -2.253798
23  0.000002 11.692096 -0.000005  -1.325669 -0.773380 -0.961518
24  0.000004 0.000008 -0.000000  0.647175 -0.000031 1.570738
25  -0.000001 -0.000007 -0.000001  0.868967 -0.000009 1.570721
26  -6.819062 -7.716076 -0.555393  1.473120 1.855074 -0.198639
27  6.027509 -0.000264 -0.000227  1.694524 0.251920 -0.610256
28  11.691998 0.000245 0.000863  0.537172 0.000056 -1.657194
29  11.479150 -0.000456 0.001229  -1.550328 0.328629 0.291668
30  3.859439 -0.132762 1.193065  0.406970 -0.281773 -0.608983
31  1.312560 0.000026 -0.000004  -0.000001 -0.000044 -0.148960
32  0.729346 0.000065 -0.000028  -0.000028 -0.000012 0.046463
33  3.942049 0.050135 0.431000  0.121277 -0.118791 -0.520706
34  1.539099 0.000008 -0.000004  0.000006 -0.000010 0.042926
35  1.196301 0.000078 -0.000007  -0.000010 -0.000007 -0.140033
36  3.883415 -0.050476 -0.431085  -0.089867 -0.000697 -0.298017
37  1.719564 -0.000079 -0.000015  -0.002290 -0.007625 -0.075727
38  1.209198 0.000036 0.000006  -0.001278 -0.004275 0.074338
39  3.859590 -0.149086 -1.331321  -0.330199 0.136789 -0.257124
40  1.719414 -0.000097 -0.000049  -0.001918 -0.006299 -0.072274
41  1.099674 0.000024 -0.000003  -0.001198 -0.004013 0.046406
42  0.805984 -0.359848 -1.318336  1.079799 0.646456 -0.910421
43  1.789780 -0.000008 -0.000029  0.011964 0.001551 -0.110982
44  1.206997 -0.000004 0.000014  0.005319 0.005316 0.007333
45  5.740575 0.000118 0.000727  0.008085 -0.000013 0.000032
46  11.480778 0.000046 0.001000  -0.003553 0.044394 0.047195
47  6.027516 -0.000278 -0.000231  -0.298160 -0.557682 -2.019899
48  0.000000 11.691981 -0.000006  -1.121903 0.565204 0.865836
49  0.000004 -0.000002 0.000001  2.809697 -0.000036 1.570861
50  -0.000005 -0.000014 0.000005  2.272646 -0.000031 1.570865
51  -11.755000 -4.632445 -13.022016  -0.121711 -3.118479 1.347378
52  0.000001 0.000001 -0.000000  0.008153 -0.000259 0.000009
53  0.000001 0.000001 0.000001  1.565115 0.043565 -0.106862
54  6.458757 -7.107029 -11.736021  -0.382822 0.060706 -2.017365
55  -0.000001 0.000001 0.000000  0.000000 -0.000000 -0.000002
56  0.000029 0.000030 0.000002  -1.571901 -0.044449 -0.106509
57  14.366141 -2.330046 -24.577244  1.570796 -0.000000 0.000000
58  -16.263916 5.289122 -19.834457  1.570796 -0.000000 0.000000
59  -0.388980 3.895684 -4.125583  1.570796 -0.000000 0.000000
60  -0.004311 0.001230 -0.000371  0.006898 -0.005534 -0.284228
61  -0.523596 8.806345 -5.337919  1.570796 -0.000000 0.000000
62  0.000000 0.000000 0.000000  -0.078728 -3.136056 0.284225
63  0.031801 0.000000 -0.000718  1.564928 0.003491 -0.003588
64  -1.446063 -22.028938 0.000005  1.579478 0.020614 0.788902
65  0.084988 -1.430222 1.369411  0.000000 -0.000000 -0.000000
66  -0.078503 -0.217140 -0.284108  0.000000 -0.000000 -0.000000
67  0.084990 0.706513 -3.480917  0.000000 -0.000000 -0.000000
68  0.084988 -0.512603 7.072135  0.000000 -0.000000 -0.000000
69  -0.109106 -2.470345 0.230347  0.000000 -0.000000 -0.000000
70  0.664585 -0.478699 -0.445297  0.000000 -0.000000 -0.000000
71  0.204889 -0.846612 -0.665135  0.000000 -0.000000 -0.000000
72  -1.791597 -21.685091 -4.097797  1.579478 0.020614 0.788902
73  -0.166807 3.093657 -0.213254  0.000000 -0.000000 -0.000000
74  0.105927 2.911775 -0.304608  0.000000 -0.000000 -0.000000
time 6
0  0.031807 0.000000 -0.000718  -1.570800 -1.391899 -1.570792
1  -4.751105 -3.100100 -0.425092  -1.544956 -1.855077 -0.198630
2  6.027516 -0.000325 0.000207  -1.471958 0.008290 -0.819918
3  11.692101 0.000484 -0.000739  -0.221930 -0.000061 -1.902352
4  11.479000 -0.001014 -0.000983  1.018754 0.423438 0.274931
5  3.859505 -0.142876 -1.192067  -0.455430 0.188461 -0.805042
6  1.312589 0.000013 0.000003  -0.000028 0.000045 -0.439736
7  0.729354 0.000051 0.000049  0.000017 0.000021 -0.244319
8  3.942142 0.046277 -0.431529  -0.145297 0.085477 -0.728928
9  1.539110 0.000081 -0.000001  -0.000007 0.000020 -0.247842
10  1.196333 0.000145 0.000023  0.000010 0.000019 -0.430771
11  3.883507 -0.047266 0.431365  0.087404 0.014680 -0.505398
12  1.719573 -0.000025 0.000010  0.000014 0.005518 -0.366532
13  1.209179 0.000091 0.000007  0.000003 0.003092 -0.216438
14  4.166036 -0.119654 1.216740  0.350028 -0.071312 -0.453940
15  1.719448 -0.000012 0.000021  0.000028 0.004067 -0.363021
16  1.099675 0.000049 0.000002  0.000002 0.002578 -0.244381
17  0.806987 -1.173642 1.039816  -1.229811 -0.660418 -0.777032
18  1.789819 -0.000005 -0.000016  0.000207 -0.004362 0.180674
19  1.207014 -0.000013 -0.000043  0.000511 -0.000007 0.358062
20  5.740635 0.000366 -0.000699  -0.107630 0.000003 0.000060
21  11.480812 -0.000061 -0.000855  -0.119693 0.088296 0.055172
22  6.027522 -0.000329 0.000206  -3.129616 -0.800632 0.742224
23  0.000002 11.692096 -0.000006  -1.266325 -0.712251 -0.938125
24  0.000001 0.000006 0.000001  0.647175 -0.000031 1.570738
25  -0.000001 -0.000007 -0.000001  0.868967 -0.000009 1.570721
26  -7.325244 -7.166101 -0.999740  1.473120 1.855074 -0.198639
27  6.027511 -0.000262 -0.000229  1.801978 0.161645 -0.692025
28  11.691997 0.000244 0.000861  0.569206 0.000049 -1.586169
29  11.479632 -0.000198 0.001101  -1.673308 0.188310 0.251806
30  3.859438 -0.132763 1.193062  0.406970 -0.281773 -0.608983
31  1.312559 0.000028 -0.000002  -0.000001 -0.000044 -0.148960
32  0.729345 0.000066 -0.000027  -0.000028 -0.000012 0.046463
33  3.942047 0.050136 0.430999  0.121277 -0.118791 -0.520706
34  1.539097 0.000009 -0.000005  0.000006 -0.000010 0.042926
35  1.196301 0.000077 -0.000006  -0.000010 -0.000007 -0.140033
36  3.883415 -0.050476 -0.431086  -0.089867 -0.000697 -0.298017
37  1.719563 -0.000081 -0.000015  -0.002290 -0.007625 -0.075727
38  1.209198 0.000036 0.000006  -0.001278 -0.004275 0.074338
39  3.859589 -0.149087 -1.331323  -0.330199 0.136789 -0.257124
40  1.719412 -0.000095 -0.000051  -0.001918 -0.006299 -0.072274
41  1.099674 0.000023 0.000000  -0.001198 -0.004013 0.046406
42  0.805982 -0.359849 -1.318340  1.079799 0.646456 -0.910421
43  1.789781 -0.000009 -0.000031  0.011964 0.001551 -0.110982
44  1.206998 -0.000004 0.000013  0.005319 0.005316 0.007332
45  5.740574 0.000119 0.000726  -0.021219 -0.000013 0.000032
46  11.480874 0.000098 0.000974  -0.023366 0.013452 0.043102
47  6.027517 -0.000277 -0.000232  -0.180957 -0.464059 -2.181190
48  0.000000 11.691978 -0.000007  -1.080231 0.524320 0.841571
49  0.000003 -0.000002 0.000001  2.841732 -0.000036 1.570861
50  -0.000006 -0.000014 0.000005  2.272646 -0.000031 1.570865
51  -13.942502 -4.247921 -15.017467  -0.121642 3.091568 1.313502
52  0.000000 -0.000000 -0.000003  0.008153 -0.000259 0.000009
53  -0.000000 -0.000000 -0.000001  1.565115 0.043565 -0.106862
54  7.976331 -6.851090 -13.534970  -0.335907 0.125933 -2.157472
55  -0.000001 0.000001 -0.000001  0.000000 -0.000000 -0.000002
56  0.000029 0.000030 -0.000000  -1.571901 -0.044449 -0.106509
57  15.790411 -1.288116 -27.613106  1.570796 -0.000000 0.000000
58  -15.981746 4.533558 -20.953087  1.570796 -0.000000 0.000000
59  -0.388980 3.895684 -4.125583  1.570796 -0.000000 0.000000
60  -0.004311 0.001230 -0.000371  0.006898 -0.005534 -0.284228
61  -0.967943 8.355218 -5.933888  1.570796 -0.000000 0.000000
62  0.000000 0.000000 0.000000  -0.078728 -3.136056 0.284225
63  0.031801 0.000000 -0.000718  1.566359 0.002643 -0.002712
64  -1.204299 -25.367504 0.505638  1.578563 0.013564 1.031730
65  0.084988 -1.430222 1.369410  0.000000 -0.000000 0.000000
66  -0.078505 -0.217140 -0.284108  0.000000 -0.000000 0.000000
67  0.084988 0.706513 -3.480918  0.000000 -0.000000 0.000000
68  0.084990 -0.512603 7.072135  0.000000 -0.000000 0.000000
69  -0.109108 -2.470345 0.230348  0.000000 -0.000000 0.000000
70  0.664583 -0.478699 -0.445297  0.000000 -0.000000 0.000000
71  0.204886 -0.846612 -0.665135  0.000000 -0.000000 0.000000
72  -1.604328 -25.093966 -3.592503  1.578563 0.013564 1.031730
73  -0.166807 3.093657 -0.213255  0.000000 -0.000000 0.000000
74  0.105926 2.911775 -0.304605  0.000000 -0.000000 0.000000
time 7
0  0.031807 0.000000 -0.000718  -1.570800 -1.391899 -1.570792
1  -4.751105 -3.100100 -0.425092  -1.544956 -1.855077 -0.198630
2  6.027516 -0.000325 0.000207  -1.469743 0.094193 -0.817410
3  11.692102 0.000483 -0.000739  -0.221928 -0.000049 -1.736873
4  11.480496 -0.000117 -0.000779  1.202498 0.530061 0.197025
5  3.859504 -0.142875 -1.192064  -0.462571 0.168923 -0.845211
6  1.312589 0.000013 0.000003  -0.000028 0.000045 -0.439735
7  0.729354 0.000055 0.000049  0.000017 0.000021 -0.244319
8  3.942140 0.046277 -0.431529  -0.148894 0.079014 -0.772693
9  1.539110 0.000081 -0.000000  -0.000007 0.000020 -0.247842
10  1.196333 0.000143 0.000025  0.000010 0.000019 -0.430771
11  3.883507 -0.047265 0.431364  0.086675 0.018514 -0.549330
12  1.719573 -0.000026 0.000012  0.000014 0.005518 -0.366532
13  1.209178 0.000090 0.000009  0.000003 0.003092 -0.216438
14  4.166036 -0.119653 1.216741  0.352670 -0.056134 -0.495424
15  1.719449 -0.000012 0.000023  0.000028 0.004067 -0.363021
16  1.099675 0.000048 0.000002  0.000002 0.002578 -0.244381
17  0.806987 -1.173642 1.039816  -1.225747 -0.670253 -0.783892
18  1.789819 -0.000007 -0.000017  0.000059 -0.002054 0.206149
19  1.207014 -0.000013 -0.000043  0.000240 -0.000008 0.361599
20  5.740636 0.000363 -0.000698  -0.086284 0.000003 0.000060
21  11.481113 0.000115 -0.000813  -0.082057 0.118164 0.038982
22  6.027522 -0.000329 0.000206  -3.006351 -0.798292 0.656184
23  0.000002 11.692099 -0.000006  -1.168652 -0.612068 -0.891307
24  0.000002 0.000007 0.000001  0.647175 -0.000031 1.570738
25  -0.000001 -0.000006 -0.000002  0.868967 -0.000009 1.570721
26  -7.772072 -6.680613 -1.391983  1.473120 1.855074 -0.198639
27  6.027512 -0.000262 -0.000227  1.785036 0.078279 -0.760946
28  11.691998 0.000245 0.000861  0.597467 0.000044 -1.491567
29  11.480352 0.000190 0.000865  -1.827602 0.113259 0.209976
30  3.859439 -0.132761 1.193065  0.406970 -0.281773 -0.608983
31  1.312556 0.000030 -0.000003  -0.000001 -0.000044 -0.148960
32  0.729344 0.000067 -0.000028  -0.000028 -0.000012 0.046463
33  3.942048 0.050135 0.431001  0.121277 -0.118791 -0.520706
34  1.539098 0.000007 -0.000002  0.000006 -0.000010 0.042926
35  1.196300 0.000077 -0.000011  -0.000010 -0.000007 -0.140033
36  3.883415 -0.050475 -0.431084  -0.089867 -0.000696 -0.298017
37  1.719564 -0.000079 -0.000011  -0.002290 -0.007625 -0.075727
38  1.209198 0.000036 0.000005  -0.001278 -0.004275 0.074338
39  3.859589 -0.149085 -1.331321  -0.330199 0.136789 -0.257124
40  1.719415 -0.000096 -0.000051  -0.001918 -0.006299 -0.072274
41  1.099674 0.000025 -0.000001  -0.001198 -0.004013 0.046406
42  0.805984 -0.359847 -1.318337  1.079799 0.646456 -0.910421
43  1.789779 -0.000007 -0.000029  0.011964 0.001551 -0.110982
44  1.206996 -0.000002 0.000014  0.005319 0.005316 0.007332
45  5.740575 0.000120 0.000726  -0.052131 -0.000013 0.000032
46  11.481018 0.000176 0.000926  -0.052116 -0.004406 0.037466
47  6.027517 -0.000277 -0.000230  -0.088549 -0.485994 -2.290372
48  0.000001 11.691983 -0.000006  -1.024411 0.471278 0.807138
49  0.000001 -0.000001 0.000001  2.869997 -0.000036 1.570861
50  -0.000005 -0.000014 0.000005  2.272646 -0.000031 1.570865
51  -14.789514 -3.733457 -17.918976  -0.198875 2.955289 1.315578
52  -0.000000 0.000001 0.000002  0.008153 -0.000259 0.000009
53  0.000000 0.000000 0.000002  1.565115 0.043565 -0.106862
54  9.185896 -6.406693 -16.025667  -0.252222 0.272908 -2.188857
55  0.000000 -0.000000 -0.000002  0.000000 -0.000000 -0.000002
56  0.000031 0.000028 0.000000  -1.571901 -0.044449 -0.106509
57  17.048765 -0.368363 -30.292984  1.570796 -0.000000 0.000000
58  -15.732663 3.866592 -21.940548  1.570796 -0.000000 0.000000
59  -0.388980 3.895684 -4.125583  1.570796 -0.000000 0.000000
60  -0.004311 0.001230 -0.000371  0.006898 -0.005534 -0.284228
61  -1.360187 7.956989 -6.459974  1.570796 -0.000000 0.000000
62  0.000000 0.000000 0.000000  -0.078728 -3.136056 0.284225
63  0.031801 0.000000 -0.000718  1.567917 0.001717 -0.001759
64  -0.982137 -28.435375 0.970274  1.576328 0.007610 1.248862
65  0.084989 -1.430221 1.369412  -0.000000 -0.000000 0.000000
66  -0.078504 -0.217140 -0.284105  -0.000000 -0.000000 0.000000
67  0.084989 0.706513 -3.480916  -0.000000 -0.000000 0.000000
68  0.084989 -0.512603 7.072136  -0.000000 -0.000000 0.000000
69  -0.109108 -2.470345 0.230350  -0.000000 -0.000000 0.000000
70  0.664583 -0.478699 -0.445293  -0.000000 -0.000000 0.000000
71  0.204887 -0.846612 -0.665132  -0.000000 -0.000000 0.000000
72  -1.415294 -28.234194 -3.128689  1.576328 0.007610 1.248862
73  -0.166807 3.093656 -0.213254  -0.000000 -0.000000 0.000000
74  0.105928 2.911775 -0.304607  -0.000000 -0.000000 0.000000
time 8
0  0.031807 0.000000 -0.000718  -1.570800 -1.391899 -1.570792
1  -4.751105 -3.100100 -0.425092  -1.544956 -1.855077 -0.198630
2  6.027516 -0.000326 0.000207  -1.350175 0.097384 -0.785417
3  11.692102 0.000483 -0.000740  -0.221921 -0.000031 -1.444027
4  11.479627 -0.000511 -0.000866  1.428183 0.402885 0.151284
5  3.859502 -0.142874 -1.192066  -0.466812 0.155950 -0.871433
6  1.312588 0.000015 0.000004  -0.000028 0.000045 -0.439735
7  0.729355 0.000052 0.000047  0.000017 0.000021 -0.244319
8  3.942139 0.046278 -0.431527  -0.151098 0.074688 -0.801399
9  1.539110 0.000081 -0.000001  -0.000007 0.000020 -0.247842
10  1.196332 0.000144 0.000023  0.000010 0.000019 -0.430771
11  3.883506 -0.047264 0.431363  0.086105 0.021012 -0.578174
12  1.719574 -0.000026 0.000010  0.000014 0.005518 -0.366532
13  1.209178 0.000092 0.000008  0.000003 0.003092 -0.216438
14  4.166037 -0.119653 1.216739  0.354060 -0.046117 -0.522617
15  1.719448 -0.000012 0.000019  0.000028 0.004067 -0.363021
16  1.099674 0.000049 0.000002  0.000002 0.002578 -0.244381
17  0.806986 -1.173639 1.039816  -1.223410 -0.676902 -0.787726
18  1.789820 -0.000007 -0.000016  0.000016 -0.000537 0.222870
19  1.207015 -0.000016 -0.000041  0.000062 -0.000008 0.362721
20  5.740636 0.000364 -0.000698  -0.065569 0.000003 0.000060
21  11.480939 0.000036 -0.000831  -0.033502 0.099023 0.022342
22  6.027522 -0.000329 0.000206  -2.981115 -0.916210 0.657616
23  0.000002 11.692097 -0.000007  -0.996202 -0.445302 -0.788904
24  0.000003 0.000007 -0.000000  0.647175 -0.000031 1.570738
25  -0.000001 -0.000007 -0.000002  0.868967 -0.000009 1.570721
26  -8.113696 -6.309432 -1.691873  1.473120 1.855074 -0.198639
27  6.027511 -0.000263 -0.000231  1.441956 0.058028 -0.715890
28  11.691999 0.000244 0.000862  0.619052 0.000027 -1.230541
29  11.479777 0.000053 0.000970  -1.885594 0.177501 0.043736
30  3.859437 -0.132762 1.193065  0.406970 -0.281773 -0.608983
31  1.312558 0.000026 -0.000001  -0.000000 -0.000045 -0.148960
32  0.729346 0.000067 -0.000027  -0.000028 -0.000012 0.046463
33  3.942047 0.050135 0.431000  0.121277 -0.118791 -0.520706
34  1.539095 0.000007 -0.000007  0.000006 -0.000010 0.042926
35  1.196299 0.000078 -0.000008  -0.000010 -0.000007 -0.140033
36  3.883413 -0.050476 -0.431085  -0.089867 -0.000697 -0.298017
37  1.719565 -0.000081 -0.000014  -0.002290 -0.007625 -0.075727
38  1.209196 0.000037 0.000004  -0.001278 -0.004275 0.074338
39  3.859588 -0.149086 -1.331321  -0.330199 0.136789 -0.257124
40  1.719415 -0.000097 -0.000049  -0.001918 -0.006299 -0.072274
41  1.099673 0.000024 -0.000003  -0.001198 -0.004013 0.046406
42  0.805982 -0.359849 -1.318337  1.079799 0.646456 -0.910421
43  1.789781 -0.000010 -0.000030  0.011964 0.001551 -0.110982
44  1.206997 -0.000002 0.000014  0.005319 0.005316 0.007332
45  5.740574 0.000118 0.000727  -0.068613 -0.000013 0.000032
46  11.480903 0.000148 0.000950  -0.063999 0.011420 0.007237
47  6.027516 -0.000278 -0.000230  -0.085888 -0.828855 -2.223370
48  0.000000 11.691980 -0.000008  -0.866682 0.334727 0.700168
49  0.000002 -0.000003 -0.000002  2.891592 -0.000036 1.570860
50  -0.000007 -0.000015 0.000005  2.272646 -0.000031 1.570865
51  -14.005558 -3.165555 -22.649435  -0.390655 2.724271 1.352244
52  -0.000001 -0.000001 -0.000002  0.008153 -0.000259 0.000009
53  -0.000001 0.000001 0.000001  1.565115 0.043565 -0.106862
54  9.938661 -5.881890 -19.481466  -0.071698 0.525029 -2.072363
55  0.000001 -0.000001 0.000001  0.000000 -0.000000 -0.000002
56  0.000032 0.000028 0.000000  -1.571902 -0.044449 -0.106509
57  18.305777 0.334836 -32.341888  1.570796 -0.000000 0.000000
58  -15.542226 3.356662 -22.695513  1.570796 -0.000000 0.000000
59  -0.388980 3.895684 -4.125583  1.570796 -0.000000 0.000000
60  -0.004311 0.001230 -0.000371  0.006898 -0.005534 -0.284228
61  -1.660077 7.652522 -6.862196  1.570796 -0.000000 0.000000
62  0.000000 0.000000 0.000000  -0.078728 -3.136056 0.284225
63  0.031801 0.000000 -0.000718  1.569347 0.000865 -0.000885
64  -0.799180 -30.961857 1.352916  1.573693 0.003342 1.419971
65  0.084986 -1.430222 1.369412  0.000000 -0.000000 0.000000
66  -0.078505 -0.217140 -0.284106  0.000000 -0.000000 0.000000
67  0.084986 0.706513 -3.480916  0.000000 -0.000000 0.000000
68  0.084988 -0.512603 7.072137  0.000000 -0.000000 0.000000
69  -0.109109 -2.470345 0.230349  0.000000 -0.000000 0.000000
70  0.664583 -0.478699 -0.445295  0.000000 -0.000000 0.000000
71  0.204885 -0.846613 -0.665133  0.000000 -0.000000 0.000000
72  -1.246962 -30.821703 -2.747017  1.573693 0.003342 1.419971
73  -0.166808 3.093656 -0.213254  0.000000 -0.000000 0.000000
74  0.105924 2.911775 -0.304607  0.000000 -0.000000 0.000000
time 9
0  0.031807 0.000000 -0.000718  -1.570800 -1.391899 -1.570792
1  -4.751105 -3.100100 -0.425092  -1.544956 -1.855077 -0.198630
2  6.027516 -0.000326 0.000206  -1.207633 0.017572 -0.781757
3  11.692106 0.000483 -0.000738  -0.221908 -0.000014 -1.125347
4  11.480639 0.000060 -0.000735  1.520840 0.196242 0.081563
5  3.859505 -0.142875 -1.192062  -0.468166 0.151540 -0.880272
6  1.312591 0.000012 0.000003  -0.000028 0.000045 -0.439736
7  0.729354 0.000052 0.000047  0.000017 0.000021 -0.244319
8  3.942142 0.046277 -0.431525  -0.151814 0.073211 -0.811098
9  1.539111 0.000084 0.000001  -0.000007 0.000020 -0.247842
10  1.196331 0.000146 0.000025  0.000010 0.000019 -0.430771
11  3.883506 -0.047265 0.431368  0.085896 0.021852 -0.587925
12  1.719571 -0.000027 0.000011  0.000014 0.005517 -0.366532
13  1.209177 0.000091 0.000008  0.000003 0.003092 -0.216438
14  4.166036 -0.119653 1.216743  0.354467 -0.042722 -0.531803
15  1.719450 -0.000012 0.000021  0.000028 0.004067 -0.363021
16  1.099674 0.000050 0.000003  0.000002 0.002578 -0.244381
17  0.806986 -1.173640 1.039820  -1.222691 -0.679189 -0.788883
18  1.789818 -0.000005 -0.000016  0.000011 -0.000024 0.228522
19  1.207016 -0.000015 -0.000042  0.000002 -0.000008 0.362857
20  5.740635 0.000365 -0.000698  -0.047168 0.000003 0.000060
21  11.481141 0.000151 -0.000803  -0.009874 0.059965 0.006356
22  6.027522 -0.000329 0.000206  0.036384 -2.076882 -2.384423
23  0.000002 11.692098 -0.000005  -0.800956 -0.284464 -0.652238
24  0.000004 0.000006 0.000001  0.647175 -0.000031 1.570738
25  -0.000002 -0.000007 -0.000002  0.868967 -0.000009 1.570721
26  -8.323803 -6.081145 -1.876314  1.473120 1.855074 -0.198639
27  6.027509 -0.000263 -0.000231  0.959210 0.244532 -0.720365
28  11.691996 0.000247 0.000862  0.632301 0.000006 -0.807964
29  11.480138 0.000335 0.000767  -1.741029 0.295674 -0.092486
30  3.859438 -0.132761 1.193063  0.406970 -0.281773 -0.608983
31  1.312557 0.000027 -0.000002  -0.000001 -0.000044 -0.148960
32  0.729345 0.000064 -0.000027  -0.000028 -0.000012 0.046463
33  3.942048 0.050137 0.430998  0.121277 -0.118791 -0.520706
34  1.539096 0.000007 -0.000006  0.000006 -0.000010 0.042926
35  1.196298 0.000077 -0.000008  -0.000010 -0.000007 -0.140033
36  3.883415 -0.050476 -0.431085  -0.089867 -0.000697 -0.298017
37  1.719566 -0.000082 -0.000010  -0.002290 -0.007625 -0.075727
38  1.209200 0.000036 0.000004  -0.001278 -0.004275 0.074338
39  3.859587 -0.149085 -1.331322  -0.330199 0.136789 -0.257124
40  1.719413 -0.000095 -0.000049  -0.001918 -0.006299 -0.072274
41  1.099674 0.000023 0.000000  -0.001198 -0.004013 0.046406
42  0.805983 -0.359847 -1.318338  1.079799 0.646456 -0.910421
43  1.789780 -0.000008 -0.000031  0.011964 0.001551 -0.110982
44  1.206997 -0.000005 0.000013  0.005319 0.005316 0.007333
45  5.740573 0.000118 0.000728  -0.066357 -0.000013 0.000032
46  11.480975 0.000204 0.000907  -0.034064 0.038110 -0.022185
47  6.027517 -0.000277 -0.000229  -0.775372 -1.217717 -1.547624
48  -0.000001 11.691982 -0.000007  -0.592655 0.152979 0.491793
49  0.000001 -0.000005 -0.000001  2.904864 -0.000036 1.570861
50  -0.000007 -0.000014 0.000004  2.272646 -0.000031 1.570865
51  -12.648371 -2.746295 -26.833494  -0.588525 2.515853 1.359806
52  0.000000 0.000000 -0.000002  0.008153 -0.000259 0.000009
53  0.000000 0.000001 0.000001  1.565115 0.043565 -0.106862
54  10.230638 -5.478944 -22.352627  0.154595 0.713102 -1.865405
55  -0.000002 0.000000 0.000001  0.000000 -0.000000 -0.000002
56  0.000029 0.000029 0.000002  -1.571902 -0.044449 -0.106509
57  19.173979 0.767322 -33.602028  1.570796 -0.000000 0.000000
58  -15.425101 3.043040 -23.159840  1.570796 -0.000000 0.000000
59  -0.388980 3.895684 -4.125583  1.570796 -0.000000 0.000000
60  -0.004311 0.001230 -0.000371  0.006898 -0.005534 -0.284228
61  -1.844518 7.465266 -7.109571  1.570796 -0.000000 0.000000
62  0.000000 0.000000 0.000000  -0.078728 -3.136056 0.284225
63  0.031801 0.000000 -0.000718  1.570391 0.000242 -0.000247
64  -0.675030 -32.676258 1.612565  1.571609 0.000838 1.531023
65  0.084982 -1.430221 1.369412  0.000000 0.000000 -0.000000
66  -0.078512 -0.217140 -0.284105  0.000000 0.000000 -0.000000
67  0.084981 0.706513 -3.480915  0.000000 0.000000 -0.000000
68  0.084982 -0.512603 7.072137  0.000000 0.000000 -0.000000
69  -0.109114 -2.470345 0.230350  0.000000 0.000000 -0.000000
70  0.664580 -0.478699 -0.445294  0.000000 0.000000 -0.000000
71  0.204877 -0.846612 -0.665132  0.000000 0.000000 -0.000000
72  -1.126638 -32.576675 -2.488135  1.571609 0.000838 1.531023
73  -0.166808 3.093656 -0.213254  0.000000 0.000000 -0.000000
74  0.105928 2.911775 -0.304606  0.000000 0.000000 -0.000000
time 10
0  0.031807 0.000000 -0.000718  -1.570800 -1.391899 -1.570792
1  -4.751105 -3.100100 -0.425092  -1.544956 -1.855077 -0.198630
2  6.027516 -0.000325 0.000206  -1.152423 -0.028547 -0.795411
3  11.692106 0.000484 -0.000739  -0.221900 -0.000008 -0.986107
4  11.480696 0.000118 -0.000725  1.532644 0.115955 0.047790
5  3.859501 -0.142875 -1.192064  -0.468166 0.151540 -0.880272
6  1.312592 0.000014 0.000004  -0.000028 0.000045 -0.439736
7  0.729355 0.000053 0.000049  0.000017 0.000021 -0.244319
8  3.942140 0.046277 -0.431529  -0.151814 0.073211 -0.811098
9  1.539109 0.000082 0.000001  -0.000007 0.000020 -0.247842
10  1.196334 0.000145 0.000025  0.000010 0.000019 -0.430771
11  3.883504 -0.047265 0.431366  0.085896 0.021852 -0.587925
12  1.719571 -0.000027 0.000005  0.000014 0.005518 -0.366532
13  1.209180 0.000091 0.000007  0.000003 0.003092 -0.216438
14  4.166034 -0.119654 1.216741  0.354467 -0.042722 -0.531803
15  1.719450 -0.000012 0.000023  0.000028 0.004067 -0.363021
16  1.099673 0.000050 0.000001  0.000002 0.002578 -0.244381
17  0.806985 -1.173641 1.039817  -1.222691 -0.679189 -0.788883
18  1.789819 -0.000002 -0.000017  0.000011 -0.000024 0.228522
19  1.207013 -0.000012 -0.000043  0.000002 -0.000008 0.362857
20  5.740636 0.000368 -0.000698  -0.040305 0.000003 0.000060
21  11.481151 0.000163 -0.000799  -0.005957 0.044231 -0.000603
22  6.027522 -0.000329 0.000206  -0.065326 -2.022227 -2.307448
23  0.000002 11.692097 -0.000006  -0.711498 -0.222789 -0.584731
24  0.000002 0.000006 -0.000000  0.647175 -0.000031 1.570738
25  -0.000001 -0.000007 -0.000002  0.868967 -0.000009 1.570721
26  -8.393617 -6.005292 -1.937599  1.473120 1.855074 -0.198639
27  6.027510 -0.000262 -0.000231  0.763167 0.350921 -0.816794
28  11.691994 0.000244 0.000861  0.636691 -0.000003 -0.547398
29  11.480383 0.000474 0.000664  -1.666797 0.295141 -0.142130
30  3.859437 -0.132762 1.193062  0.406970 -0.281773 -0.608983
31  1.312561 0.000025 -0.000001  -0.000001 -0.000044 -0.148960
32  0.729344 0.000063 -0.000028  -0.000028 -0.000012 0.046463
33  3.942049 0.050135 0.430998  0.121277 -0.118791 -0.520706
34  1.539097 0.000006 -0.000007  0.000006 -0.000010 0.042926
35  1.196300 0.000078 -0.000006  -0.000010 -0.000007 -0.140033
36  3.883413 -0.050477 -0.431087  -0.089867 -0.000696 -0.298017
37  1.719566 -0.000082 -0.000014  -0.002290 -0.007625 -0.075727
38  1.209200 0.000035 0.000005  -0.001278 -0.004275 0.074338
39  3.859588 -0.149087 -1.331323  -0.330199 0.136789 -0.257124
40  1.719414 -0.000095 -0.000051  -0.001918 -0.006299 -0.072274
41  1.099674 0.000026 -0.000001  -0.001198 -0.004013 0.046406
42  0.805983 -0.359848 -1.318340  1.079799 0.646456 -0.910421
43  1.789780 -0.000010 -0.000030  0.011964 0.001551 -0.110982
44  1.206997 -0.000004 0.000014  0.005319 0.005316 0.007332
45  5.740574 0.000119 0.000727  -0.049003 -0.000013 0.000032
46  11.481023 0.000232 0.000887  -0.018798 0.038257 -0.034809
47  6.027517 -0.000277 -0.000230  -1.404939 -1.214844 -0.993558
48  -0.000001 11.691978 -0.000007  -0.409884 0.072127 0.343612
49  0.000004 -0.000001 -0.000001  2.909272 -0.000036 1.570860
50  -0.000005 -0.000015 0.000004  2.272646 -0.000031 1.570865
51  -12.048293 -2.607073 -28.355648  -0.668265 2.441716 1.352336
52  0.000002 -0.000000 -0.000003  0.008153 -0.000259 0.000009
53  -0.000000 -0.000001 -0.000001  1.565115 0.043565 -0.106862
54  10.276972 -5.342162 -23.367439  0.255881 0.766400 -1.766008
55  0.000002 -0.000000 0.000002  0.000000 -0.000000 -0.000002
56  0.000034 0.000029 0.000004  -1.571901 -0.044449 -0.106509
57  19.450802 0.911026 -34.020737  1.570796 -0.000000 0.000000
58  -15.386185 2.938832 -23.314121  1.570796 -0.000000 0.000000
59  -0.388980 3.895684 -4.125583  1.570796 -0.000000 0.000000
60  -0.004311 0.001230 -0.000371  0.006898 -0.005534 -0.284228
61  -1.905803 7.403047 -7.191769  1.570796 -0.000000 0.000000
62  0.000000 0.000000 0.000000  -0.078728 -3.136056 0.284225
63  0.031801 0.000000 -0.000718  1.570796 -0.000000 0.000000
64  -0.629292 -33.307880 1.708226  1.570796 -0.000000 1.570796
65  0.084984 -1.430222 1.369412  0.000000 -0.000000 0.000000
66  -0.078510 -0.217140 -0.284105  0.000000 -0.000000 0.000000
67  0.084983 0.706513 -3.480917  0.000000 -0.000000 0.000000
68  0.084985 -0.512603 7.072137  0.000000 -0.000000 0.000000
69  -0.109112 -2.470345 0.230349  0.000000 -0.000000 0.000000
70  0.664577 -0.478699 -0.445294  0.000000 -0.000000 0.000000
71  0.204883 -0.846612 -0.665133  0.000000 -0.000000 0.000000
72  -1.081171 -33.222897 -2.392773  1.570796 -0.000000 1.570796
73  -0.166813 3.093656 -0.213254  0.000000 -0.000000 0.000000
74  0.105922 2.911775 -0.304607  0.000000 -0.000000 0.000000
end
