version 1
nodes
0 "ValveBiped.Bip01_Spine4" -1
1 "ValveBiped.Bip01_L_Clavicle" 0
2 "ValveBiped.Bip01_L_UpperArm" 1
3 "ValveBiped.Bip01_L_Forearm" 2
4 "ValveBiped.Bip01_L_Hand" 3
5 "ValveBiped.Bip01_L_Finger4" 4
6 "ValveBiped.Bip01_L_Finger41" 5
7 "ValveBiped.Bip01_L_Finger42" 6
8 "ValveBiped.Bip01_L_Finger3" 4
9 "ValveBiped.Bip01_L_Finger31" 8
10 "ValveBiped.Bip01_L_Finger32" 9
11 "ValveBiped.Bip01_L_Finger2" 4
12 "ValveBiped.Bip01_L_Finger21" 11
13 "ValveBiped.Bip01_L_Finger22" 12
14 "ValveBiped.Bip01_L_Finger1" 4
15 "ValveBiped.Bip01_L_Finger11" 14
16 "ValveBiped.Bip01_L_Finger12" 15
17 "ValveBiped.Bip01_L_Finger0" 4
18 "ValveBiped.Bip01_L_Finger01" 17
19 "ValveBiped.Bip01_L_Finger02" 18
20 "ValveBiped.Bip01_L_Ulna" 3
21 "ValveBiped.Bip01_L_Wrist" 3
22 "rig_l_upperarm" 1
23 "rig_l_forearm" 22
24 "rig_d_l_forearm" 23
25 "rig_d_l_upperarm" 22
26 "ValveBiped.Bip01_R_Clavicle" 0
27 "ValveBiped.Bip01_R_UpperArm" 26
28 "ValveBiped.Bip01_R_Forearm" 27
29 "ValveBiped.Bip01_R_Hand" 28
30 "ValveBiped.Bip01_R_Finger4" 29
31 "ValveBiped.Bip01_R_Finger41" 30
32 "ValveBiped.Bip01_R_Finger42" 31
33 "ValveBiped.Bip01_R_Finger3" 29
34 "ValveBiped.Bip01_R_Finger31" 33
35 "ValveBiped.Bip01_R_Finger32" 34
36 "ValveBiped.Bip01_R_Finger2" 29
37 "ValveBiped.Bip01_R_Finger21" 36
38 "ValveBiped.Bip01_R_Finger22" 37
39 "ValveBiped.Bip01_R_Finger1" 29
40 "ValveBiped.Bip01_R_Finger11" 39
41 "ValveBiped.Bip01_R_Finger12" 40
42 "ValveBiped.Bip01_R_Finger0" 29
43 "ValveBiped.Bip01_R_Finger01" 42
44 "ValveBiped.Bip01_R_Finger02" 43
45 "ValveBiped.Bip01_R_Ulna" 28
46 "ValveBiped.Bip01_R_Wrist" 28
47 "rig_r_upperarm" 26
48 "rig_r_forearm" 47
49 "rig_d_r_forearm" 48
50 "rig_d_r_upperarm" 47
51 "rig_r_hand" -1
52 "rig_d_r_hand" 51
53 "rig_d_r_wrist" 52
54 "rig_l_hand" -1
55 "rig_d_l_hand" 54
56 "rig_d_l_wrist" 54
57 "rig_l_pole" -1
58 "rig_r_pole" -1
59 "rig_l_clavicle" -1
60 "rig_d_l_clavicle" 59
61 "rig_r_clavicle" -1
62 "rig_d_r_clavicle" 61
63 "Camera" -1
64 "body" -1
65 "trigger" 64
66 "bolt" 64
67 "chandle" 64
68 "barrel" 64
69 "magrel" 64
70 "boltrelease" 64
71 "bullet1" 64
72 "mag" -1
73 "bullet2" 72
74 "bullet3" 72
end
skeleton
time 0
0  0.031807 0.000000 -0.000718  -1.570800 -1.391899 -1.570792
1  -4.751105 -3.100100 -0.425092  -1.544956 -1.855077 -0.198630
2  6.027519 -0.000326 0.000201  -1.102153 -0.931529 -1.189188
3  11.692103 0.000483 -0.000739  -0.221922 -0.000030 -1.443957
4  11.479630 -0.000510 -0.000867  0.951806 -0.242819 0.496915
5  3.859503 -0.142876 -1.192065  -0.376675 0.158898 -1.805694
6  1.312589 0.000015 0.000005  -0.181175 0.146992 -0.778420
7  0.729353 0.000053 0.000049  -0.031171 -0.017918 -1.149194
8  3.942141 0.046276 -0.431529  -0.395402 0.284279 -1.632068
9  1.539109 0.000083 -0.000001  -0.017908 0.024319 -0.997324
10  1.196333 0.000145 0.000025  -0.007633 0.005851 -1.269758
11  3.883506 -0.047266 0.431365  -0.227106 0.389700 -1.453903
12  1.719572 -0.000027 0.000010  0.003588 -0.071161 -1.113298
13  1.209180 0.000091 0.000008  -0.007485 -0.004716 -1.374143
14  4.166035 -0.119654 1.216740  -0.208528 0.343239 -1.539092
15  1.719449 -0.000012 0.000021  0.005905 0.032644 -0.879292
16  1.099674 0.000048 0.000003  -0.070425 0.040686 -1.377946
17  0.806986 -1.173642 1.039816  -0.968936 -1.008553 -0.468477
18  1.789819 -0.000006 -0.000016  0.032221 0.034033 0.959261
19  1.207016 -0.000014 -0.000042  -0.004769 -0.003056 -0.025745
20  5.740634 0.000365 -0.000698  -0.158055 0.000003 0.000060
21  11.480933 0.000040 -0.000827  -0.109142 -0.054575 0.067843
22  6.027522 -0.000329 0.000206  1.852798 -0.581762 1.467133
23  0.000001 11.692097 -0.000006  -0.996160 -0.445265 -0.788877
24  0.000002 0.000006 0.000000  0.647175 -0.000031 1.570738
25  -0.000002 -0.000007 -0.000002  0.868967 -0.000009 1.570721
26  -5.244507 -9.426861 0.826811  1.473120 1.855074 -0.198639
27  6.027512 -0.000266 -0.000220  1.549517 0.935913 -0.459860
28  11.691998 0.000244 0.000862  0.437593 0.000040 -1.452850
29  11.480678 0.000234 0.000798  -1.256143 0.585833 0.635696
30  3.859439 -0.132762 1.193064  0.470066 -0.067999 -1.665317
31  1.312559 0.000027 -0.000001  0.021695 -0.123985 -0.527511
32  0.729346 0.000065 -0.000028  -0.138732 -0.127376 -1.011820
33  3.942047 0.050135 0.430998  0.197841 -0.127871 -1.406840
34  1.539098 0.000009 -0.000006  0.037568 -0.059890 -1.033472
35  1.196301 0.000077 -0.000008  -0.020769 -0.003050 -1.085867
36  3.883415 -0.050476 -0.431086  0.186732 -0.275469 -1.223439
37  1.719565 -0.000080 -0.000014  0.010321 -0.108736 -1.387818
38  1.209199 0.000035 0.000005  -0.015858 0.069226 -0.718581
39  3.859588 -0.149086 -1.331322  -0.000139 -0.044902 -0.191257
40  1.719413 -0.000095 -0.000049  -0.013749 0.023858 -1.522278
41  1.099675 0.000024 -0.000001  -0.008875 -0.008774 -0.734475
42  0.805983 -0.359849 -1.318339  1.335945 0.239302 -0.765945
43  1.789780 -0.000008 -0.000029  -0.000999 0.011568 0.269127
44  1.206996 -0.000004 0.000014  -0.001432 -0.000153 1.276797
45  5.740574 0.000118 0.000726  0.087780 -0.000013 0.000032
46  11.481083 0.000183 0.000913  0.029005 0.108851 0.094310
47  6.027517 -0.000277 -0.000231  -1.066226 -0.403369 -1.412864
48  -0.000001 11.691979 -0.000008  -1.001411 0.450072 0.792364
49  0.000004 -0.000002 -0.000000  2.710123 -0.000036 1.570861
50  -0.000005 -0.000015 0.000004  2.272646 -0.000031 1.570865
51  -3.228538 -7.056912 -5.655094  -0.161604 -2.988785 1.426852
52  0.000000 -0.000000 0.000000  0.008153 -0.000259 0.000009
53  0.000000 0.000000 -0.000000  1.565115 0.043565 -0.106862
54  0.121869 -12.707531 -6.089507  -0.369490 -0.218560 -1.845342
55  -0.000001 -0.000001 -0.000000  0.000000 -0.000000 -0.000002
56  0.000030 0.000028 0.000000  -1.571901 -0.044449 -0.106509
57  7.241026 -5.571117 -15.133753  1.570796 -0.000000 0.000000
58  -17.141647 7.639411 -16.354797  1.570796 -0.000000 0.000000
59  -0.388980 3.895684 -4.125583  1.570796 -0.000000 0.000000
60  -0.004311 0.001230 -0.000371  0.006898 -0.005534 -0.284228
61  0.858610 10.209643 -3.484070  1.570796 -0.000000 0.000000
62  0.000000 0.000000 0.000000  -0.078728 -3.136056 0.284225
63  0.031801 0.000000 -0.000718  1.570796 -0.000000 0.000000
64  -2.262835 -10.749999 -1.708216  1.571103 0.041360 0.006551
65  0.084987 -1.430222 1.369412  0.362766 -0.000000 -0.000000
66  -0.078505 -0.217140 -0.284104  -0.000000 -0.000000 -0.000000
67  0.084987 0.706513 -3.480916  -0.000000 -0.000000 -0.000000
68  0.084988 -0.512604 7.072140  -0.000000 -0.000000 -0.000000
69  -0.109108 -2.470345 0.230350  -0.000000 -0.000000 -0.000000
70  0.664584 -0.478699 -0.445295  -0.000000 -0.000000 -0.000000
71  0.204886 -0.846613 -0.665132  -0.000000 -0.000000 -0.000000
72  -2.350455 -10.297424 -5.809082  1.571103 0.041360 0.006551
73  -0.166807 3.093656 -0.213254  -0.000000 -0.000000 -0.000000
74  0.105926 2.911775 -0.304607  -0.000000 -0.000000 -0.000000
time 1
0  0.031807 0.000000 -0.000718  -1.570800 -1.391899 -1.570792
1  -4.751105 -3.100100 -0.425092  -1.544956 -1.855077 -0.198630
2  6.027519 -0.000326 0.000201  -1.100295 -0.893834 -1.163699
3  11.692101 0.000483 -0.000738  -0.221925 -0.000036 -1.543329
4  11.480118 -0.000321 -0.000827  0.918422 -0.288794 0.532812
5  3.859504 -0.142875 -1.192065  -0.376675 0.158898 -1.805694
6  1.312590 0.000015 0.000004  -0.181175 0.146992 -0.778420
7  0.729357 0.000052 0.000048  -0.031171 -0.017918 -1.149194
8  3.942141 0.046277 -0.431528  -0.395402 0.284279 -1.632068
9  1.539110 0.000083 -0.000001  -0.017908 0.024319 -0.997324
10  1.196333 0.000145 0.000024  -0.007633 0.005851 -1.269758
11  3.883507 -0.047265 0.431365  -0.227106 0.389700 -1.453903
12  1.719573 -0.000025 0.000011  0.003588 -0.071161 -1.113298
13  1.209179 0.000091 0.000007  -0.007485 -0.004716 -1.374143
14  4.166037 -0.119653 1.216741  -0.208528 0.343239 -1.539092
15  1.719449 -0.000009 0.000021  0.005905 0.032644 -0.879292
16  1.099675 0.000048 0.000002  -0.070425 0.040686 -1.377946
17  0.806987 -1.173641 1.039817  -0.945431 -1.028391 -0.496982
18  1.789819 -0.000006 -0.000016  0.033897 0.036047 1.018812
19  1.207015 -0.000013 -0.000042  -0.005182 -0.002998 -0.014191
20  5.740635 0.000365 -0.000699  -0.174748 0.000003 0.000060
21  11.481031 0.000078 -0.000817  -0.111988 -0.066509 0.070991
22  6.027522 -0.000329 0.000206  1.873068 -0.615554 1.482668
23  0.000001 11.692097 -0.000006  -1.055064 -0.500109 -0.826228
24  0.000003 0.000008 -0.000001  0.647175 -0.000031 1.570738
25  -0.000002 -0.000007 -0.000002  0.868967 -0.000009 1.570721
26  -5.244507 -9.426861 0.826811  1.473120 1.855074 -0.198639
27  6.027511 -0.000266 -0.000221  1.549669 0.883889 -0.458916
28  11.691998 0.000245 0.000861  0.437596 0.000047 -1.558684
29  11.479836 -0.000233 0.001019  -1.280028 0.606074 0.667408
30  3.859440 -0.132762 1.193064  0.470066 -0.067999 -1.665317
31  1.312559 0.000027 -0.000003  0.021695 -0.123985 -0.527511
32  0.729346 0.000064 -0.000028  -0.138732 -0.127376 -1.011820
33  3.942049 0.050135 0.430999  0.197841 -0.127871 -1.406840
34  1.539098 0.000008 -0.000005  0.037568 -0.059890 -1.033472
35  1.196300 0.000078 -0.000008  -0.020769 -0.003050 -1.085867
36  3.883414 -0.050476 -0.431085  0.186732 -0.275469 -1.223438
37  1.719564 -0.000081 -0.000014  0.010321 -0.108736 -1.387818
38  1.209198 0.000036 0.000005  -0.015858 0.069226 -0.718582
39  3.859589 -0.149086 -1.331322  -0.000139 -0.044901 -0.191257
40  1.719412 -0.000096 -0.000049  -0.013749 0.023858 -1.522278
41  1.099674 0.000024 -0.000001  -0.008875 -0.008774 -0.734475
42  0.805984 -0.359849 -1.318339  1.335945 0.239302 -0.765945
43  1.789780 -0.000008 -0.000030  -0.001000 0.011568 0.269127
44  1.206997 -0.000004 0.000014  -0.001431 -0.000153 1.276797
45  5.740574 0.000119 0.000727  0.088310 -0.000013 0.000032
46  11.480913 0.000090 0.000957  0.021907 0.111926 0.101139
47  6.027517 -0.000277 -0.000231  -1.019448 -0.433026 -1.431043
48  -0.000002 11.691981 -0.000007  -1.064061 0.508736 0.831813
49  0.000005 -0.000003 -0.000001  2.710123 -0.000036 1.570861
50  -0.000006 -0.000014 0.000004  2.272646 -0.000031 1.570865
51  -3.302592 -6.220983 -5.641760  -0.188884 -2.968899 1.435535
52  -0.000000 -0.000000 0.000000  0.008153 -0.000259 0.000009
53  0.000000 0.000000 0.000000  1.565115 0.043565 -0.106862
54  0.058970 -11.864294 -6.084883  -0.394259 -0.241768 -1.835429
55  0.000001 0.000000 -0.000000  0.000000 -0.000000 -0.000002
56  0.000033 0.000029 0.000001  -1.571902 -0.044449 -0.106509
57  7.241026 -5.571117 -15.133753  1.570796 -0.000000 0.000000
58  -17.141647 7.639411 -16.354797  1.570796 -0.000000 0.000000
59  -0.388980 3.895684 -4.125583  1.570796 -0.000000 0.000000
60  -0.004311 0.001230 -0.000371  0.006898 -0.005534 -0.284228
61  0.858610 10.209643 -3.484070  1.570796 -0.000000 0.000000
62  0.000000 0.000000 0.000000  -0.078728 -3.136056 0.284225
63  0.031801 0.000000 -0.000718  1.570796 -0.000000 0.000000
64  -2.204731 -9.846508 -1.666891  1.555377 0.070917 0.009931
65  0.084987 -1.430222 1.369412  0.362766 -0.000000 0.000000
66  -0.078505 -0.217140 -2.724285  0.000000 -0.000000 0.000000
67  0.084987 0.706513 -3.480916  0.000000 -0.000000 0.000000
68  0.084988 -0.512603 7.072136  0.000000 -0.000000 0.000000
69  -0.109108 -2.470345 0.230350  0.000000 -0.000000 0.000000
70  0.664583 -0.478699 -0.445294  0.000000 -0.000000 0.000000
71  0.204886 -0.846613 -0.665132  0.000000 -0.000000 0.000000
72  -2.414855 -9.459982 -5.770067  1.555377 0.070917 0.009931
73  -0.166808 3.093657 -0.213254  0.000000 -0.000000 0.000000
74  0.105926 2.911775 -0.304606  0.000000 -0.000000 0.000000
time 2
0  0.031807 0.000000 -0.000718  -1.570800 -1.391899 -1.570792
1  -4.751105 -3.100100 -0.425092  -1.544956 -1.855077 -0.198630
2  6.027519 -0.000326 0.000201  -1.106434 -0.909247 -1.173090
3  11.692104 0.000484 -0.000739  -0.221924 -0.000035 -1.519562
4  11.480309 -0.000208 -0.000801  0.949100 -0.277510 0.515800
5  3.859504 -0.142876 -1.192066  -0.376675 0.158899 -1.805694
6  1.312589 0.000012 0.000005  -0.181175 0.146992 -0.778420
7  0.729355 0.000052 0.000048  -0.031171 -0.017918 -1.149194
8  3.942142 0.046276 -0.431529  -0.395402 0.284279 -1.632068
9  1.539111 0.000081 -0.000000  -0.017908 0.024319 -0.997324
10  1.196333 0.000144 0.000024  -0.007633 0.005851 -1.269758
11  3.883507 -0.047266 0.431364  -0.227106 0.389700 -1.453903
12  1.719573 -0.000025 0.000011  0.003588 -0.071161 -1.113298
13  1.209179 0.000091 0.000007  -0.007485 -0.004716 -1.374143
14  4.166037 -0.119654 1.216740  -0.208528 0.343239 -1.539092
15  1.719449 -0.000012 0.000021  0.005905 0.032644 -0.879292
16  1.099674 0.000048 0.000002  -0.070425 0.040686 -1.377946
17  0.806987 -1.173642 1.039816  -0.951278 -1.023631 -0.489929
18  1.789820 -0.000005 -0.000016  0.033481 0.035570 1.004427
19  1.207014 -0.000013 -0.000042  -0.005083 -0.003013 -0.016982
20  5.740634 0.000364 -0.000699  -0.166645 0.000003 0.000060
21  11.481069 0.000101 -0.000813  -0.107236 -0.062137 0.069536
22  6.027522 -0.000329 0.000206  1.868209 -0.600187 1.471238
23  0.000002 11.692099 -0.000005  -1.041032 -0.486815 -0.817530
24  0.000004 0.000007 -0.000000  0.647175 -0.000031 1.570738
25  -0.000001 -0.000006 -0.000001  0.868967 -0.000009 1.570721
26  -5.244507 -9.426861 0.826811  1.473120 1.855074 -0.198639
27  6.027511 -0.000266 -0.000221  1.550023 0.898234 -0.458915
28  11.691996 0.000246 0.000862  0.437596 0.000045 -1.530026
29  11.480052 -0.000115 0.000964  -1.273634 0.605713 0.636982
30  3.859438 -0.132762 1.193064  0.470066 -0.067999 -1.665317
31  1.312560 0.000027 -0.000002  0.021695 -0.123985 -0.527511
32  0.729346 0.000065 -0.000027  -0.138732 -0.127376 -1.011820
33  3.942047 0.050135 0.430999  0.197841 -0.127871 -1.406840
34  1.539097 0.000007 -0.000005  0.037568 -0.059890 -1.033472
35  1.196299 0.000076 -0.000008  -0.020769 -0.003050 -1.085867
36  3.883414 -0.050477 -0.431086  0.186732 -0.275469 -1.223438
37  1.719563 -0.000080 -0.000014  0.010321 -0.108736 -1.387818
38  1.209197 0.000035 0.000004  -0.015858 0.069226 -0.718581
39  3.859588 -0.149086 -1.331322  -0.000139 -0.044901 -0.191257
40  1.719415 -0.000096 -0.000049  -0.013749 0.023858 -1.522278
41  1.099674 0.000025 -0.000001  -0.008875 -0.008774 -0.734475
42  0.805983 -0.359849 -1.318338  1.335945 0.239302 -0.765945
43  1.789780 -0.000008 -0.000030  -0.001000 0.011568 0.269127
44  1.206997 -0.000004 0.000013  -0.001432 -0.000153 1.276797
45  5.740575 0.000119 0.000727  0.088607 -0.000013 0.000032
46  11.480959 0.000115 0.000947  0.024434 0.111761 0.094886
47  6.027517 -0.000277 -0.000231  -1.032318 -0.424728 -1.425965
48  -0.000000 11.691978 -0.000006  -1.047163 0.492636 0.821422
49  0.000002 -0.000002 -0.000000  2.710123 -0.000036 1.570861
50  -0.000006 -0.000015 0.000004  2.272646 -0.000031 1.570865
51  -3.281474 -6.452054 -5.639557  -0.169679 -2.955619 1.436734
52  -0.000000 -0.000000 0.000000  0.008153 -0.000259 0.000009
53  -0.000000 0.000000 -0.000000  1.565115 0.043565 -0.106862
54  0.112442 -12.085552 -5.936941  -0.373156 -0.252481 -1.835966
55  0.000000 0.000001 -0.000000  0.000000 -0.000000 -0.000002
56  0.000030 0.000030 0.000001  -1.571901 -0.044449 -0.106509
57  7.241026 -5.571117 -15.133753  1.570796 -0.000000 0.000000
58  -17.141647 7.639411 -16.354797  1.570796 -0.000000 0.000000
59  -0.388980 3.895684 -4.125583  1.570796 -0.000000 0.000000
60  -0.004311 0.001230 -0.000371  0.006898 -0.005534 -0.284228
61  0.858610 10.209643 -3.484070  1.570796 -0.000000 0.000000
62  0.000000 0.000000 0.000000  -0.078728 -3.136056 0.284225
63  0.031801 0.000000 -0.000718  1.570796 -0.000000 0.000000
64  -2.234984 -10.009642 -1.590145  1.539452 0.054158 0.013561
65  0.084987 -1.430222 1.369414  0.362766 -0.000000 0.000000
66  -0.078505 -0.217140 -1.504193  0.000000 -0.000000 0.000000
67  0.084988 0.706512 -3.480916  0.000000 -0.000000 0.000000
68  0.084988 -0.512603 7.072137  0.000000 -0.000000 0.000000
69  -0.109109 -2.470345 0.230350  0.000000 -0.000000 0.000000
70  0.664583 -0.478700 -0.445294  0.000000 -0.000000 0.000000
71  0.198855 -0.631774 -0.200124  -0.181984 -0.171402 0.026952
72  -2.377146 -9.688404 -5.701859  1.539452 0.054158 0.013561
73  0.119904 3.254386 -0.213254  0.000000 -0.000000 0.000000
74  -0.166807 3.093657 -0.213254  0.000000 -0.000000 0.000000
time 3
0  0.031807 0.000000 -0.000718  -1.570800 -1.391899 -1.570792
1  -4.751105 -3.100100 -0.425092  -1.544956 -1.855077 -0.198630
2  6.027519 -0.000326 0.000201  -1.112899 -0.927912 -1.184200
3  11.692102 0.000484 -0.000738  -0.221923 -0.000033 -1.481457
4  11.480626 -0.000014 -0.000759  0.981720 -0.247021 0.510660
5  3.859504 -0.142875 -1.192065  -0.376675 0.158899 -1.805694
6  1.312590 0.000014 0.000005  -0.181175 0.146992 -0.778420
7  0.729355 0.000053 0.000049  -0.031171 -0.017918 -1.149194
8  3.942142 0.046277 -0.431528  -0.395402 0.284279 -1.632068
9  1.539110 0.000082 -0.000001  -0.017908 0.024319 -0.997324
10  1.196333 0.000145 0.000024  -0.007633 0.005851 -1.269758
11  3.883507 -0.047265 0.431365  -0.227106 0.389700 -1.453903
12  1.719573 -0.000026 0.000011  0.003588 -0.071161 -1.113298
13  1.209180 0.000091 0.000008  -0.007485 -0.004716 -1.374143
14  4.166037 -0.119653 1.216741  -0.208528 0.343239 -1.539092
15  1.719448 -0.000013 0.000021  0.005905 0.032644 -0.879292
16  1.099675 0.000048 0.000002  -0.070425 0.040686 -1.377946
17  0.806988 -1.173641 1.039817  -0.963425 -1.013376 -0.475198
18  1.789820 -0.000003 -0.000016  0.032615 0.034528 0.973644
19  1.207014 -0.000012 -0.000042  -0.004869 -0.003042 -0.022954
20  5.740635 0.000363 -0.000699  -0.156210 0.000003 0.000060
21  11.481133 0.000139 -0.000805  -0.102918 -0.054631 0.071396
22  6.027522 -0.000329 0.000206  1.861623 -0.581914 1.458659
23  0.000001 11.692097 -0.000005  -1.018466 -0.465730 -0.803275
24  0.000002 0.000007 -0.000001  0.647175 -0.000031 1.570738
25  -0.000001 -0.000007 -0.000001  0.868967 -0.000009 1.570721
26  -5.244507 -9.426861 0.826811  1.473120 1.855074 -0.198639
27  6.027512 -0.000266 -0.000220  1.549120 0.922868 -0.459925
28  11.691999 0.000245 0.000862  0.437594 0.000042 -1.487585
29  11.480390 0.000071 0.000876  -1.240894 0.602977 0.633548
30  3.859438 -0.132762 1.193063  0.470066 -0.067999 -1.665317
31  1.312559 0.000027 -0.000002  0.021695 -0.123985 -0.527511
32  0.729346 0.000065 -0.000029  -0.138732 -0.127376 -1.011820
33  3.942048 0.050135 0.430998  0.197841 -0.127871 -1.406840
34  1.539097 0.000007 -0.000005  0.037568 -0.059890 -1.033472
35  1.196300 0.000076 -0.000008  -0.020769 -0.003050 -1.085867
36  3.883414 -0.050476 -0.431086  0.186732 -0.275469 -1.223438
37  1.719564 -0.000081 -0.000015  0.010321 -0.108736 -1.387818
38  1.209199 0.000035 0.000005  -0.015858 0.069226 -0.718582
39  3.859589 -0.149086 -1.331322  -0.000139 -0.044901 -0.191257
40  1.719412 -0.000095 -0.000049  -0.013749 0.023858 -1.522278
41  1.099674 0.000025 -0.000001  -0.008875 -0.008774 -0.734475
42  0.805983 -0.359848 -1.318339  1.335945 0.239302 -0.765945
43  1.789781 -0.000008 -0.000030  -0.001000 0.011568 0.269127
44  1.206996 -0.000004 0.000013  -0.001431 -0.000153 1.276797
45  5.740575 0.000118 0.000727  0.093086 -0.000013 0.000032
46  11.481026 0.000151 0.000929  0.030683 0.112803 0.092220
47  6.027517 -0.000277 -0.000231  -1.054777 -0.411097 -1.417145
48  -0.000000 11.691980 -0.000006  -1.022052 0.469082 0.805635
49  0.000003 -0.000002 0.000000  2.710123 -0.000036 1.570861
50  -0.000006 -0.000014 0.000005  2.272646 -0.000031 1.570865
51  -3.198703 -6.783520 -5.607560  -0.138905 -2.965874 1.427935
52  0.000001 0.000000 -0.000000  0.008153 -0.000259 0.000009
53  -0.000000 0.000000 -0.000001  1.565115 0.043565 -0.106862
54  0.185009 -12.426517 -5.832242  -0.343610 -0.238332 -1.846408
55  -0.000001 0.000000 0.000000  0.000000 -0.000000 -0.000002
56  0.000031 0.000030 0.000001  -1.571901 -0.044449 -0.106509
57  7.241026 -5.571117 -15.133753  1.570796 -0.000000 0.000000
58  -17.141647 7.639411 -16.354797  1.570796 -0.000000 0.000000
59  -0.388980 3.895684 -4.125583  1.570796 -0.000000 0.000000
60  -0.004311 0.001230 -0.000371  0.006898 -0.005534 -0.284228
61  0.858610 10.209643 -3.484070  1.570796 -0.000000 0.000000
62  0.000000 0.000000 0.000000  -0.078728 -3.136056 0.284225
63  0.031801 0.000000 -0.000718  1.570796 -0.000000 0.000000
64  -2.291169 -10.368536 -1.548820  1.545056 0.022690 0.010513
65  0.084987 -1.430222 1.369411  0.362766 -0.000000 -0.000000
66  -0.078505 -0.217140 -0.284107  0.000000 -0.000000 -0.000000
67  0.084988 0.706513 -3.480917  0.000000 -0.000000 -0.000000
68  0.084988 -0.512603 7.072136  0.000000 -0.000000 -0.000000
69  -0.109108 -2.470345 0.230348  0.000000 -0.000000 -0.000000
70  0.664583 -0.478699 -0.445296  0.000000 -0.000000 -0.000000
71  0.069632 -0.519683 0.933203  0.000000 -0.000000 -0.000000
72  -2.303125 -10.022463 -5.660960  1.545056 0.022690 0.010513
73  0.119903 3.254385 -0.213255  0.000000 -0.000000 -0.000000
74  -0.166807 3.093657 -0.213255  0.000000 -0.000000 -0.000000
time 4
0  0.031807 0.000000 -0.000718  -1.570800 -1.391899 -1.570792
1  -4.751105 -3.100100 -0.425092  -1.544956 -1.855077 -0.198630
2  6.027519 -0.000326 0.000201  -1.113318 -0.942930 -1.194042
3  11.692103 0.000482 -0.000739  -0.221921 -0.000030 -1.442936
4  11.479637 -0.000505 -0.000870  0.995304 -0.222064 0.503865
5  3.859503 -0.142876 -1.192066  -0.376676 0.158898 -1.805694
6  1.312589 0.000014 0.000004  -0.181175 0.146992 -0.778420
7  0.729355 0.000052 0.000049  -0.031171 -0.017918 -1.149194
8  3.942142 0.046277 -0.431529  -0.395402 0.284279 -1.632068
9  1.539109 0.000084 -0.000000  -0.017908 0.024319 -0.997324
10  1.196332 0.000145 0.000024  -0.007633 0.005851 -1.269758
11  3.883507 -0.047265 0.431364  -0.227106 0.389700 -1.453903
12  1.719573 -0.000028 0.000011  0.003588 -0.071161 -1.113298
13  1.209178 0.000091 0.000007  -0.007485 -0.004716 -1.374143
14  4.166037 -0.119654 1.216740  -0.208528 0.343239 -1.539092
15  1.719448 -0.000011 0.000021  0.005905 0.032644 -0.879292
16  1.099675 0.000050 0.000002  -0.070425 0.040686 -1.377946
17  0.806987 -1.173642 1.039816  -0.968936 -1.008553 -0.468477
18  1.789818 -0.000004 -0.000016  0.032221 0.034033 0.959261
19  1.207015 -0.000012 -0.000042  -0.004769 -0.003056 -0.025745
20  5.740638 0.000364 -0.000698  -0.149462 0.000003 0.000060
21  11.480937 0.000041 -0.000827  -0.101867 -0.048964 0.071814
22  6.027522 -0.000329 0.000206  1.853355 -0.568592 1.452978
23  0.000003 11.692098 -0.000006  -0.995551 -0.444711 -0.788480
24  0.000005 0.000007 -0.000000  0.647175 -0.000031 1.570738
25  -0.000001 -0.000006 -0.000002  0.868967 -0.000009 1.570721
26  -5.244507 -9.426861 0.826811  1.473120 1.855074 -0.198639
27  6.027512 -0.000266 -0.000220  1.548481 0.944601 -0.460724
28  11.691997 0.000244 0.000862  0.437593 0.000039 -1.448296
29  11.480719 0.000258 0.000788  -1.220614 0.598235 0.636031
30  3.859439 -0.132762 1.193064  0.470066 -0.067999 -1.665317
31  1.312559 0.000026 -0.000002  0.021695 -0.123985 -0.527511
32  0.729345 0.000067 -0.000028  -0.138732 -0.127376 -1.011820
33  3.942048 0.050135 0.430999  0.197841 -0.127871 -1.406840
34  1.539097 0.000006 -0.000005  0.037568 -0.059890 -1.033472
35  1.196301 0.000077 -0.000008  -0.020769 -0.003050 -1.085867
36  3.883414 -0.050476 -0.431085  0.186732 -0.275469 -1.223438
37  1.719564 -0.000081 -0.000014  0.010321 -0.108736 -1.387818
38  1.209199 0.000035 0.000004  -0.015858 0.069226 -0.718581
39  3.859589 -0.149086 -1.331322  -0.000139 -0.044901 -0.191257
40  1.719414 -0.000096 -0.000049  -0.013749 0.023858 -1.522278
41  1.099674 0.000024 -0.000001  -0.008875 -0.008774 -0.734475
42  0.805983 -0.359849 -1.318338  1.335945 0.239302 -0.765945
43  1.789781 -0.000008 -0.000030  -0.001000 0.011568 0.269127
44  1.206997 -0.000005 0.000014  -0.001431 -0.000153 1.276797
45  5.740574 0.000118 0.000726  0.095089 -0.000013 0.000032
46  11.481091 0.000188 0.000911  0.034562 0.112949 0.091590
47  6.027517 -0.000277 -0.000231  -1.074293 -0.398819 -1.409743
48  -0.000000 11.691980 -0.000008  -0.998698 0.447598 0.790602
49  0.000005 -0.000003 -0.000001  2.710123 -0.000036 1.570861
50  -0.000006 -0.000014 0.000004  2.272646 -0.000031 1.570865
51  -3.136617 -7.084607 -5.587153  -0.123847 -2.981109 1.418796
52  -0.000001 0.000000 -0.000000  0.008153 -0.000259 0.000009
53  -0.000000 0.000000 0.000000  1.565115 0.043565 -0.106862
54  0.213612 -12.746897 -5.827710  -0.330573 -0.221264 -1.855998
55  0.000001 -0.000001 0.000000  0.000000 -0.000000 -0.000002
56  0.000031 0.000028 0.000002  -1.571901 -0.044449 -0.106509
57  7.241026 -5.571117 -15.133753  1.570796 -0.000000 0.000000
58  -17.141647 7.639411 -16.354797  1.570796 -0.000000 0.000000
59  -0.388980 3.895684 -4.125583  1.570796 -0.000000 0.000000
60  -0.004311 0.001230 -0.000371  0.006898 -0.005534 -0.284228
61  0.858610 10.209643 -3.484070  1.570796 -0.000000 0.000000
62  0.000000 0.000000 0.000000  -0.078728 -3.136056 0.284225
63  0.031801 0.000000 -0.000718  1.570796 -0.000000 0.000000
64  -2.321423 -10.727431 -1.560415  1.557821 0.005674 0.004074
65  0.084987 -1.430222 1.369413  0.362766 -0.000000 -0.000000
66  -0.078505 -0.217140 -0.284104  -0.000000 0.000000 0.000000
67  0.084988 0.706513 -3.480916  -0.000000 0.000000 0.000000
68  0.084988 -0.512603 7.072138  -0.000000 0.000000 0.000000
69  -0.109108 -2.470345 0.230350  -0.000000 0.000000 0.000000
70  0.664583 -0.478699 -0.445294  -0.000000 0.000000 0.000000
71  0.204886 -0.846613 -0.665132  -0.000000 0.000000 0.000000
72  -2.261366 -10.328551 -5.667347  1.557821 0.005674 0.004074
73  -0.166807 3.093657 -0.213255  -0.000000 0.000000 0.000000
74  0.105926 2.911775 -0.304607  -0.000000 0.000000 0.000000
time 5
0  0.031807 0.000000 -0.000718  -1.570800 -1.391899 -1.570792
1  -4.751105 -3.100100 -0.425092  -1.544956 -1.855077 -0.198630
2  6.027519 -0.000326 0.000201  -1.106470 -0.946286 -1.198075
3  11.692102 0.000484 -0.000738  -0.221921 -0.000029 -1.426270
4  11.479723 -0.000462 -0.000859  0.977085 -0.220392 0.499500
5  3.859504 -0.142876 -1.192065  -0.376675 0.158899 -1.805694
6  1.312590 0.000015 0.000004  -0.181175 0.146992 -0.778420
7  0.729354 0.000052 0.000048  -0.031171 -0.017918 -1.149194
8  3.942142 0.046277 -0.431528  -0.395402 0.284279 -1.632068
9  1.539110 0.000083 -0.000000  -0.017908 0.024319 -0.997324
10  1.196334 0.000144 0.000024  -0.007633 0.005851 -1.269758
11  3.883509 -0.047265 0.431365  -0.227106 0.389700 -1.453903
12  1.719573 -0.000026 0.000010  0.003588 -0.071161 -1.113298
13  1.209178 0.000090 0.000008  -0.007485 -0.004716 -1.374143
14  4.166037 -0.119654 1.216741  -0.208528 0.343239 -1.539092
15  1.719449 -0.000012 0.000021  0.005905 0.032644 -0.879292
16  1.099675 0.000048 0.000002  -0.070425 0.040686 -1.377946
17  0.806987 -1.173641 1.039816  -0.968936 -1.008553 -0.468477
18  1.789819 -0.000006 -0.000016  0.032221 0.034033 0.959261
19  1.207015 -0.000013 -0.000042  -0.004769 -0.003056 -0.025745
20  5.740635 0.000366 -0.000699  -0.151730 0.000003 0.000060
21  11.480953 0.000050 -0.000825  -0.105529 -0.049290 0.070421
22  6.027522 -0.000329 0.000206  1.847280 -0.567521 1.457763
23  0.000003 11.692096 -0.000006  -0.985601 -0.435713 -0.781960
24  0.000003 0.000007 -0.000000  0.647175 -0.000031 1.570738
25  -0.000001 -0.000007 -0.000002  0.868967 -0.000009 1.570721
26  -5.244507 -9.426861 0.826811  1.473120 1.855074 -0.198639
27  6.027512 -0.000266 -0.000220  1.552793 0.951129 -0.457781
28  11.691997 0.000243 0.000863  0.437593 0.000038 -1.434385
29  11.479446 -0.000354 0.001073  -1.230509 0.589652 0.641445
30  3.859439 -0.132762 1.193063  0.470066 -0.067999 -1.665317
31  1.312559 0.000026 -0.000003  0.021695 -0.123985 -0.527511
32  0.729345 0.000066 -0.000028  -0.138732 -0.127376 -1.011820
33  3.942047 0.050135 0.430998  0.197841 -0.127871 -1.406840
34  1.539097 0.000007 -0.000005  0.037568 -0.059890 -1.033472
35  1.196300 0.000077 -0.000008  -0.020769 -0.003050 -1.085867
36  3.883415 -0.050476 -0.431085  0.186732 -0.275469 -1.223438
37  1.719564 -0.000081 -0.000014  0.010321 -0.108736 -1.387818
38  1.209198 0.000034 0.000005  -0.015858 0.069226 -0.718581
39  3.859589 -0.149086 -1.331322  0.000326 -0.043902 -0.195512
40  1.719414 -0.000095 -0.000049  -0.012072 0.024029 -1.452881
41  1.099674 0.000023 -0.000001  -0.008908 -0.008578 -0.711542
42  0.805983 -0.359849 -1.318338  1.335945 0.239302 -0.765945
43  1.789781 -0.000008 -0.000030  -0.001000 0.011568 0.269126
44  1.206998 -0.000004 0.000013  -0.001432 -0.000153 1.276797
45  5.740575 0.000118 0.000726  0.092583 -0.000013 0.000032
46  11.480837 0.000066 0.000969  0.033133 0.110941 0.093634
47  6.027517 -0.000277 -0.000231  -1.078462 -0.392976 -1.408693
48  -0.000000 11.691979 -0.000008  -0.990401 0.440067 0.785183
49  0.000003 -0.000002 0.000001  2.710123 -0.000036 1.570861
50  -0.000005 -0.000015 0.000005  2.272646 -0.000031 1.570865
51  -3.161333 -7.193312 -5.559511  -0.138339 -2.991894 1.417312
52  0.000000 -0.000000 0.000000  0.008153 -0.000259 0.000009
53  -0.000000 0.000000 -0.000000  1.565115 0.043565 -0.106862
54  0.164077 -12.864202 -5.914578  -0.346566 -0.212466 -1.856279
55  0.000001 -0.000001 0.000000  0.000000 -0.000000 -0.000002
56  0.000031 0.000029 0.000001  -1.571902 -0.044449 -0.106509
57  7.241026 -5.571117 -15.133753  1.570796 -0.000000 0.000000
58  -17.141647 7.639411 -16.354797  1.570796 -0.000000 0.000000
59  -0.388980 3.895684 -4.125583  1.570796 -0.000000 0.000000
60  -0.004311 0.001230 -0.000371  0.006898 -0.005534 -0.284228
61  0.858610 10.209643 -3.484070  1.570796 -0.000000 0.000000
62  0.000000 0.000000 0.000000  -0.078728 -3.136056 0.284225
63  0.031801 0.000000 -0.000718  1.570796 -0.000000 0.000000
64  -2.309782 -10.890565 -1.590317  1.570689 0.018155 0.000505
65  0.084988 -1.430222 1.369412  0.181383 -0.000000 0.000000
66  -0.078505 -0.217140 -0.284105  0.000000 -0.000000 0.000000
67  0.084988 0.706513 -3.480916  0.000000 -0.000000 0.000000
68  0.084988 -0.512603 7.072137  0.000000 -0.000000 0.000000
69  -0.109108 -2.470345 0.230350  0.000000 -0.000000 0.000000
70  0.664584 -0.478699 -0.445294  0.000000 -0.000000 0.000000
71  0.204887 -0.846613 -0.665132  0.000000 -0.000000 0.000000
72  -2.299492 -10.439121 -5.692232  1.570689 0.018155 0.000505
73  -0.166807 3.093657 -0.213253  0.000000 -0.000000 0.000000
74  0.105926 2.911776 -0.304605  0.000000 -0.000000 0.000000
time 6
0  0.031807 0.000000 -0.000718  -1.570800 -1.391899 -1.570792
1  -4.751105 -3.100100 -0.425092  -1.544956 -1.855077 -0.198630
2  6.027519 -0.000326 0.000201  -1.098539 -0.941146 -1.196682
3  11.692102 0.000483 -0.000738  -0.221921 -0.000030 -1.429358
4  11.479707 -0.000472 -0.000859  0.949821 -0.234200 0.497249
5  3.859502 -0.142877 -1.192066  -0.376676 0.158898 -1.805694
6  1.312591 0.000013 0.000004  -0.181175 0.146992 -0.778420
7  0.729357 0.000053 0.000049  -0.031171 -0.017918 -1.149194
8  3.942140 0.046276 -0.431529  -0.395402 0.284279 -1.632068
9  1.539110 0.000083 -0.000001  -0.017908 0.024319 -0.997324
10  1.196333 0.000144 0.000025  -0.007633 0.005851 -1.269758
11  3.883504 -0.047267 0.431365  -0.227106 0.389700 -1.453903
12  1.719572 -0.000026 0.000010  0.003588 -0.071161 -1.113298
13  1.209180 0.000090 0.000007  -0.007485 -0.004716 -1.374143
14  4.166037 -0.119654 1.216740  -0.208528 0.343239 -1.539092
15  1.719449 -0.000011 0.000020  0.005905 0.032644 -0.879292
16  1.099676 0.000048 0.000002  -0.070425 0.040686 -1.377946
17  0.806985 -1.173643 1.039816  -0.968936 -1.008553 -0.468476
18  1.789819 -0.000004 -0.000016  0.032221 0.034033 0.959261
19  1.207016 -0.000013 -0.000042  -0.004769 -0.003056 -0.025745
20  5.740636 0.000364 -0.000698  -0.157726 0.000003 0.000060
21  11.480949 0.000047 -0.000825  -0.110009 -0.053051 0.068304
22  6.027522 -0.000329 0.000206  1.845212 -0.574232 1.466695
23  0.000003 11.692097 -0.000005  -0.987446 -0.437376 -0.783174
24  0.000003 0.000007 -0.000001  0.647175 -0.000031 1.570738
25  -0.000001 -0.000007 -0.000002  0.868967 -0.000009 1.570721
26  -5.244507 -9.426861 0.826811  1.473120 1.855074 -0.198639
27  6.027512 -0.000266 -0.000220  1.557229 0.945220 -0.454582
28  11.691998 0.000245 0.000863  0.437593 0.000039 -1.440823
29  11.479163 -0.000509 0.001149  -1.253696 0.582272 0.642854
30  3.859438 -0.132762 1.193064  0.470066 -0.067999 -1.665317
31  1.312559 0.000028 -0.000002  0.021695 -0.123985 -0.527511
32  0.729345 0.000066 -0.000028  -0.138732 -0.127376 -1.011820
33  3.942048 0.050135 0.430999  0.197841 -0.127871 -1.406840
34  1.539098 0.000008 -0.000005  0.037568 -0.059890 -1.033472
35  1.196299 0.000077 -0.000009  -0.020769 -0.003050 -1.085867
36  3.883415 -0.050476 -0.431085  0.186732 -0.275469 -1.223438
37  1.719565 -0.000080 -0.000014  0.010321 -0.108736 -1.387818
38  1.209198 0.000034 0.000005  -0.015858 0.069226 -0.718581
39  3.859589 -0.149086 -1.331321  0.001308 -0.041758 -0.204614
40  1.719413 -0.000095 -0.000050  -0.008458 0.024000 -1.303988
41  1.099674 0.000024 -0.000001  -0.008961 -0.008156 -0.662455
42  0.805983 -0.359849 -1.318338  1.335945 0.239302 -0.765945
43  1.789780 -0.000008 -0.000029  -0.001000 0.011568 0.269127
44  1.206997 -0.000005 0.000013  -0.001431 -0.000153 1.276797
45  5.740574 0.000121 0.000726  0.088393 -0.000013 0.000032
46  11.480780 0.000037 0.000984  0.029386 0.108415 0.095679
47  6.027517 -0.000277 -0.000231  -1.071623 -0.394284 -1.411721
48  -0.000000 11.691979 -0.000007  -0.994243 0.443547 0.787697
49  0.000002 -0.000002 0.000000  2.710123 -0.000036 1.570860
50  -0.000006 -0.000014 0.000005  2.272646 -0.000031 1.570865
51  -3.231515 -7.150653 -5.557793  -0.162447 -2.994186 1.421985
52  0.000000 0.000000 0.000000  0.008153 -0.000259 0.000009
53  0.000000 -0.000000 0.000000  1.565115 0.043565 -0.106862
54  0.090625 -12.815468 -6.023250  -0.371056 -0.213313 -1.850000
55  0.000001 -0.000000 0.000000  0.000000 -0.000000 -0.000002
56  0.000031 0.000028 0.000001  -1.571901 -0.044449 -0.106509
57  7.241026 -5.571117 -15.133753  1.570796 -0.000000 0.000000
58  -17.141647 7.639411 -16.354797  1.570796 -0.000000 0.000000
59  -0.388980 3.895684 -4.125583  1.570796 -0.000000 0.000000
60  -0.004311 0.001230 -0.000371  0.006898 -0.005534 -0.284228
61  0.858610 10.209643 -3.484070  1.570796 -0.000000 0.000000
62  0.000000 0.000000 0.000000  -0.078728 -3.136056 0.284225
63  0.031801 0.000000 -0.000718  1.570796 -0.000000 0.000000
64  -2.284172 -10.870030 -1.631205  1.576573 0.041374 0.001785
65  0.084987 -1.430222 1.369413  0.000000 0.000000 -0.000000
66  -0.078505 -0.217140 -0.284105  0.000000 0.000000 -0.000000
67  0.084988 0.706513 -3.480916  0.000000 0.000000 -0.000000
68  0.084988 -0.512603 7.072140  0.000000 0.000000 -0.000000
69  -0.109108 -2.470345 0.230351  0.000000 0.000000 -0.000000
70  0.664584 -0.478699 -0.445293  0.000000 0.000000 -0.000000
71  0.204886 -0.846612 -0.665131  0.000000 0.000000 -0.000000
72  -2.369627 -10.394618 -5.729533  1.576573 0.041374 0.001785
73  -0.166807 3.093656 -0.213253  0.000000 0.000000 -0.000000
74  0.105926 2.911775 -0.304606  0.000000 0.000000 -0.000000
time 7
0  0.031807 0.000000 -0.000718  -1.570800 -1.391899 -1.570792
1  -4.751105 -3.100100 -0.425092  -1.544956 -1.855077 -0.198630
2  6.027519 -0.000326 0.000201  -1.095913 -0.936106 -1.193889
3  11.692103 0.000483 -0.000738  -0.221921 -0.000030 -1.434489
4  11.479678 -0.000488 -0.000863  0.937516 -0.244518 0.493316
5  3.859502 -0.142876 -1.192066  -0.376675 0.158898 -1.805694
6  1.312588 0.000014 0.000004  -0.181175 0.146992 -0.778420
7  0.729356 0.000053 0.000048  -0.031171 -0.017918 -1.149195
8  3.942139 0.046276 -0.431529  -0.395402 0.284279 -1.632068
9  1.539111 0.000080 -0.000001  -0.017908 0.024319 -0.997324
10  1.196332 0.000145 0.000023  -0.007633 0.005851 -1.269758
11  3.883506 -0.047265 0.431364  -0.227106 0.389700 -1.453903
12  1.719573 -0.000028 0.000011  0.003588 -0.071161 -1.113298
13  1.209179 0.000091 0.000007  -0.007485 -0.004716 -1.374143
14  4.166035 -0.119654 1.216740  -0.208528 0.343239 -1.539092
15  1.719448 -0.000011 0.000021  0.005905 0.032644 -0.879292
16  1.099673 0.000049 0.000002  -0.070425 0.040686 -1.377946
17  0.806985 -1.173641 1.039816  -0.968936 -1.008553 -0.468477
18  1.789819 -0.000006 -0.000016  0.032221 0.034033 0.959261
19  1.207015 -0.000012 -0.000042  -0.004769 -0.003056 -0.025745
20  5.740635 0.000363 -0.000698  -0.160542 0.000003 0.000060
21  11.480945 0.000044 -0.000825  -0.111847 -0.055372 0.066530
22  6.027522 -0.000329 0.000206  1.846330 -0.579421 1.470997
23  0.000002 11.692097 -0.000005  -0.990511 -0.440143 -0.785185
24  0.000002 0.000007 -0.000001  0.647175 -0.000031 1.570738
25  -0.000001 -0.000006 -0.000001  0.868967 -0.000009 1.570721
26  -5.244507 -9.426861 0.826811  1.473120 1.855074 -0.198639
27  6.027512 -0.000266 -0.000220  1.556486 0.939573 -0.455044
28  11.691997 0.000244 0.000862  0.437593 0.000039 -1.446778
29  11.480732 0.000268 0.000784  -1.268357 0.580310 0.637413
30  3.859439 -0.132762 1.193065  0.470066 -0.067999 -1.665317
31  1.312559 0.000027 -0.000002  0.021695 -0.123985 -0.527511
32  0.729346 0.000064 -0.000028  -0.138732 -0.127376 -1.011820
33  3.942048 0.050135 0.431000  0.197841 -0.127871 -1.406840
34  1.539097 0.000008 -0.000005  0.037568 -0.059890 -1.033472
35  1.196301 0.000078 -0.000008  -0.020769 -0.003050 -1.085867
36  3.883415 -0.050476 -0.431085  0.186732 -0.275469 -1.223438
37  1.719564 -0.000080 -0.000014  0.010321 -0.108736 -1.387818
38  1.209199 0.000035 0.000006  -0.015858 0.069226 -0.718582
39  3.859590 -0.149086 -1.331321  0.001760 -0.040752 -0.208867
40  1.719415 -0.000096 -0.000049  -0.006783 0.023804 -1.234590
41  1.099674 0.000025 -0.000001  -0.008968 -0.007956 -0.639523
42  0.805984 -0.359849 -1.318338  1.335945 0.239302 -0.765945
43  1.789780 -0.000007 -0.000029  -0.001000 0.011568 0.269127
44  1.206997 -0.000004 0.000014  -0.001431 -0.000153 1.276797
45  5.740575 0.000120 0.000727  0.085607 -0.000013 0.000032
46  11.481093 0.000192 0.000910  0.027094 0.107226 0.095627
47  6.027517 -0.000277 -0.000231  -1.066889 -0.397890 -1.413409
48  -0.000000 11.691979 -0.000008  -0.997794 0.446774 0.790013
49  0.000003 -0.000002 0.000001  2.710123 -0.000036 1.570860
50  -0.000006 -0.000015 0.000005  2.272646 -0.000031 1.570865
51  -3.264609 -7.108941 -5.594594  -0.174767 -2.991175 1.426423
52  0.000000 -0.000000 0.000000  0.008153 -0.000259 0.000009
53  0.000001 -0.000000 0.000001  1.565115 0.043565 -0.106862
54  0.066274 -12.765654 -6.094822  -0.383024 -0.217878 -1.844830
55  0.000000 0.000000 -0.000000  0.000000 -0.000000 -0.000002
56  0.000031 0.000029 0.000000  -1.571902 -0.044449 -0.106509
57  7.241026 -5.571117 -15.133753  1.570796 -0.000000 0.000000
58  -17.141647 7.639411 -16.354797  1.570796 -0.000000 0.000000
59  -0.388980 3.895684 -4.125583  1.570796 -0.000000 0.000000
60  -0.004311 0.001230 -0.000371  0.006898 -0.005534 -0.284228
61  0.858610 10.209643 -3.484070  1.570796 -0.000000 0.000000
62  0.000000 0.000000 0.000000  -0.078728 -3.136056 0.284225
63  0.031801 0.000000 -0.000718  1.570796 -0.000000 0.000000
64  -2.258562 -10.821065 -1.675754  1.575411 0.053871 0.004339
65  0.084987 -1.430221 1.369412  0.000000 0.000000 0.000000
66  -0.078505 -0.217139 -0.284105  0.000000 0.000000 0.000000
67  0.084988 0.706513 -3.480917  0.000000 0.000000 0.000000
68  0.084988 -0.512603 7.072134  0.000000 0.000000 0.000000
69  -0.109108 -2.470345 0.230349  0.000000 0.000000 0.000000
70  0.664583 -0.478699 -0.445295  0.000000 0.000000 0.000000
71  0.204887 -0.846612 -0.665133  0.000000 0.000000 0.000000
72  -2.396446 -10.350858 -5.773253  1.575411 0.053871 0.004339
73  -0.166807 3.093657 -0.213254  0.000000 0.000000 0.000000
74  0.105927 2.911776 -0.304606  0.000000 0.000000 0.000000
time 8
0  0.031807 0.000000 -0.000718  -1.570800 -1.391899 -1.570792
1  -4.751105 -3.100100 -0.425092  -1.544956 -1.855077 -0.198630
2  6.027519 -0.000326 0.000201  -1.099167 -0.931078 -1.189610
3  11.692103 0.000483 -0.000738  -0.221921 -0.000030 -1.442198
4  11.479639 -0.000506 -0.000869  0.941557 -0.247244 0.494066
5  3.859503 -0.142875 -1.192066  -0.376675 0.158899 -1.805694
6  1.312590 0.000015 0.000004  -0.181175 0.146992 -0.778420
7  0.729356 0.000053 0.000048  -0.031171 -0.017918 -1.149194
8  3.942140 0.046277 -0.431528  -0.395402 0.284279 -1.632068
9  1.539110 0.000081 -0.000000  -0.017908 0.024319 -0.997324
10  1.196332 0.000145 0.000024  -0.007633 0.005851 -1.269758
11  3.883506 -0.047265 0.431365  -0.227106 0.389700 -1.453903
12  1.719573 -0.000026 0.000011  0.003588 -0.071161 -1.113298
13  1.209178 0.000091 0.000008  -0.007485 -0.004716 -1.374143
14  4.166035 -0.119653 1.216740  -0.208528 0.343239 -1.539092
15  1.719449 -0.000012 0.000021  0.005905 0.032644 -0.879291
16  1.099675 0.000048 0.000002  -0.070425 0.040686 -1.377946
17  0.806987 -1.173641 1.039816  -0.968936 -1.008553 -0.468477
18  1.789819 -0.000005 -0.000016  0.032221 0.034033 0.959261
19  1.207015 -0.000013 -0.000042  -0.004769 -0.003056 -0.025745
20  5.740636 0.000363 -0.000698  -0.160053 0.000003 0.000060
21  11.480935 0.000040 -0.000827  -0.110903 -0.055740 0.066673
22  6.027522 -0.000329 0.000206  1.851160 -0.582990 1.470008
23  0.000002 11.692095 -0.000006  -0.995111 -0.444311 -0.788193
24  0.000003 0.000006 -0.000001  0.647175 -0.000031 1.570738
25  -0.000001 -0.000007 -0.000002  0.868967 -0.000009 1.570721
26  -5.244507 -9.426861 0.826811  1.473120 1.855074 -0.198639
27  6.027512 -0.000266 -0.000220  1.551510 0.935474 -0.458465
28  11.691998 0.000242 0.000862  0.437593 0.000040 -1.452302
29  11.480681 0.000240 0.000796  -1.266346 0.582804 0.634361
30  3.859438 -0.132763 1.193065  0.470066 -0.067999 -1.665317
31  1.312559 0.000027 -0.000001  0.021695 -0.123985 -0.527511
32  0.729345 0.000066 -0.000028  -0.138732 -0.127376 -1.011820
33  3.942048 0.050135 0.430999  0.197841 -0.127871 -1.406840
34  1.539097 0.000008 -0.000005  0.037568 -0.059890 -1.033472
35  1.196300 0.000076 -0.000007  -0.020769 -0.003050 -1.085867
36  3.883414 -0.050477 -0.431085  0.186732 -0.275469 -1.223438
37  1.719565 -0.000079 -0.000015  0.010321 -0.108736 -1.387818
38  1.209198 0.000036 0.000005  -0.015858 0.069226 -0.718582
39  3.859589 -0.149087 -1.331321  0.001741 -0.040754 -0.208152
40  1.719413 -0.000095 -0.000049  -0.006871 0.023844 -1.237906
41  1.099674 0.000026 -0.000001  -0.008862 -0.008073 -0.652909
42  0.805983 -0.359849 -1.318338  1.335945 0.239302 -0.765945
43  1.789780 -0.000008 -0.000030  -0.000999 0.011568 0.269127
44  1.206996 -0.000004 0.000015  -0.001431 -0.000153 1.276797
45  5.740573 0.000118 0.000726  0.085850 -0.000013 0.000032
46  11.481083 0.000185 0.000912  0.027419 0.107751 0.094815
47  6.027517 -0.000277 -0.000231  -1.065094 -0.402658 -1.413518
48  -0.000002 11.691980 -0.000009  -1.001085 0.449774 0.792153
49  0.000003 -0.000003 -0.000000  2.710123 -0.000036 1.570861
50  -0.000007 -0.000014 0.000003  2.272646 -0.000031 1.570865
51  -3.251110 -7.063549 -5.648280  -0.171437 -2.988967 1.428535
52  0.000000 -0.000000 0.000000  0.008153 -0.000259 0.000009
53  0.000000 -0.000000 0.000000  1.565115 0.043565 -0.106862
54  0.095991 -12.712826 -6.123671  -0.379387 -0.219642 -1.843004
55  -0.000000 -0.000000 0.000000  0.000000 -0.000000 -0.000002
56  0.000030 0.000028 0.000001  -1.571901 -0.044449 -0.106509
57  7.241026 -5.571117 -15.133753  1.570796 -0.000000 0.000000
58  -17.141647 7.639411 -16.354797  1.570796 -0.000000 0.000000
59  -0.388980 3.895684 -4.125583  1.570796 -0.000000 0.000000
60  -0.004311 0.001230 -0.000371  0.006898 -0.005534 -0.284228
61  0.858610 10.209643 -3.484070  1.570796 -0.000000 0.000000
62  0.000000 0.000000 0.000000  -0.078728 -3.136056 0.284225
63  0.031801 0.000000 -0.000718  1.570796 -0.000000 0.000000
64  -2.246921 -10.762621 -1.716641  1.572736 0.050943 0.006814
65  0.084987 -1.430222 1.369412  0.000000 0.000000 -0.000000
66  -0.078505 -0.217140 -0.284106  0.000000 0.000000 -0.000000
67  0.084987 0.706513 -3.480917  0.000000 0.000000 -0.000000
68  0.084988 -0.512603 7.072137  0.000000 0.000000 -0.000000
69  -0.109109 -2.470345 0.230348  0.000000 0.000000 -0.000000
70  0.664583 -0.478699 -0.445295  0.000000 0.000000 -0.000000
71  0.204886 -0.846613 -0.665134  0.000000 0.000000 -0.000000
72  -2.373962 -10.303644 -5.815763  1.572736 0.050943 0.006814
73  -0.166808 3.093657 -0.213253  0.000000 0.000000 -0.000000
74  0.105926 2.911775 -0.304604  0.000000 0.000000 -0.000000
time 9
0  0.031807 0.000000 -0.000718  -1.570800 -1.391899 -1.570792
1  -4.751105 -3.100100 -0.425092  -1.544956 -1.855077 -0.198630
2  6.027519 -0.000326 0.000201  -1.102425 -0.927605 -1.186440
3  11.692104 0.000483 -0.000738  -0.221922 -0.000031 -1.448327
4  11.479608 -0.000518 -0.000871  0.948913 -0.246924 0.495400
5  3.859507 -0.142875 -1.192066  -0.376675 0.158899 -1.805694
6  1.312590 0.000013 0.000004  -0.181175 0.146992 -0.778420
7  0.729356 0.000053 0.000049  -0.031171 -0.017918 -1.149194
8  3.942144 0.046276 -0.431529  -0.395402 0.284279 -1.632068
9  1.539110 0.000082 -0.000000  -0.017908 0.024319 -0.997324
10  1.196333 0.000145 0.000024  -0.007633 0.005851 -1.269758
11  3.883508 -0.047266 0.431365  -0.227106 0.389700 -1.453903
12  1.719573 -0.000025 0.000011  0.003588 -0.071161 -1.113298
13  1.209180 0.000091 0.000008  -0.007485 -0.004716 -1.374143
14  4.166038 -0.119654 1.216740  -0.208528 0.343239 -1.539092
15  1.719449 -0.000013 0.000022  0.005905 0.032644 -0.879292
16  1.099676 0.000048 0.000002  -0.070425 0.040686 -1.377946
17  0.806989 -1.173641 1.039817  -0.968936 -1.008553 -0.468477
18  1.789819 -0.000007 -0.000017  0.032221 0.034033 0.959261
19  1.207015 -0.000014 -0.000042  -0.004769 -0.003056 -0.025745
20  5.740636 0.000365 -0.000699  -0.158767 0.000003 0.000060
21  11.480929 0.000038 -0.000828  -0.109489 -0.055411 0.067220
22  6.027522 -0.000329 0.000206  1.855167 -0.585156 1.468358
23  0.000002 11.692097 -0.000005  -0.998764 -0.447634 -0.790574
24  0.000003 0.000006 0.000001  0.647175 -0.000031 1.570738
25  -0.000001 -0.000006 -0.000002  0.868967 -0.000009 1.570721
26  -5.244507 -9.426861 0.826811  1.473120 1.855074 -0.198639
27  6.027512 -0.000266 -0.000220  1.546732 0.932458 -0.461738
28  11.691997 0.000244 0.000862  0.437593 0.000040 -1.456679
29  11.480648 0.000218 0.000808  -1.260290 0.586673 0.632815
30  3.859439 -0.132762 1.193064  0.470066 -0.067999 -1.665317
31  1.312559 0.000026 -0.000002  0.021695 -0.123985 -0.527511
32  0.729346 0.000065 -0.000028  -0.138732 -0.127376 -1.011820
33  3.942048 0.050135 0.430999  0.197841 -0.127871 -1.406840
34  1.539098 0.000008 -0.000005  0.037568 -0.059890 -1.033472
35  1.196299 0.000078 -0.000009  -0.020769 -0.003050 -1.085867
36  3.883414 -0.050477 -0.431085  0.186732 -0.275469 -1.223438
37  1.719565 -0.000081 -0.000014  0.010321 -0.108736 -1.387818
38  1.209200 0.000034 0.000005  -0.015858 0.069226 -0.718581
39  3.859589 -0.149086 -1.331321  0.001690 -0.040758 -0.206281
40  1.719414 -0.000095 -0.000049  -0.007101 0.023950 -1.246582
41  1.099674 0.000024 -0.000001  -0.008604 -0.008379 -0.687937
42  0.805983 -0.359849 -1.318338  1.335945 0.239302 -0.765945
43  1.789780 -0.000007 -0.000030  -0.000999 0.011568 0.269127
44  1.206996 -0.000004 0.000014  -0.001431 -0.000153 1.276797
45  5.740576 0.000120 0.000727  0.086863 -0.000013 0.000032
46  11.481078 0.000182 0.000915  0.028321 0.108759 0.093983
47  6.027517 -0.000277 -0.000231  -1.064208 -0.406722 -1.413298
48  -0.000001 11.691980 -0.000008  -1.003691 0.452155 0.793843
49  0.000004 -0.000002 0.000001  2.710123 -0.000036 1.570861
50  -0.000005 -0.000014 0.000004  2.272646 -0.000031 1.570865
51  -3.231357 -7.026353 -5.694497  -0.164584 -2.987229 1.428710
52  -0.000000 0.000000 0.000000  0.008153 -0.000259 0.000009
53  0.000001 -0.000000 0.000000  1.565115 0.043565 -0.106862
54  0.125599 -12.672759 -6.133105  -0.372275 -0.220485 -1.843334
55  -0.000000 0.000000 -0.000000  0.000000 -0.000000 -0.000002
56  0.000031 0.000029 0.000000  -1.571902 -0.044449 -0.106509
57  7.241026 -5.571117 -15.133753  1.570796 -0.000000 0.000000
58  -17.141647 7.639411 -16.354797  1.570796 -0.000000 0.000000
59  -0.388980 3.895684 -4.125583  1.570796 -0.000000 0.000000
60  -0.004311 0.001230 -0.000371  0.006898 -0.005534 -0.284228
61  0.858610 10.209643 -3.484070  1.570796 -0.000000 0.000000
62  0.000000 0.000000 0.000000  -0.078728 -3.136056 0.284225
63  0.031801 0.000000 -0.000718  1.570796 -0.000000 0.000000
64  -2.248099 -10.713655 -1.746543  1.570006 0.044504 0.007906
65  0.084987 -1.430222 1.369411  0.000000 -0.000000 0.000000
66  -0.078505 -0.217140 -0.284106  0.000000 -0.000000 0.000000
67  0.084987 0.706513 -3.480916  0.000000 -0.000000 0.000000
68  0.084988 -0.512603 7.072136  0.000000 -0.000000 0.000000
69  -0.109108 -2.470345 0.230349  0.000000 -0.000000 0.000000
70  0.664583 -0.478699 -0.445295  0.000000 -0.000000 0.000000
71  0.204886 -0.846612 -0.665133  0.000000 -0.000000 0.000000
72  -2.349214 -10.265803 -5.847618  1.570006 0.044504 0.007906
73  -0.166807 3.093656 -0.213254  0.000000 -0.000000 0.000000
74  0.105926 2.911774 -0.304606  0.000000 -0.000000 0.000000
time 10
0  0.031807 0.000000 -0.000718  -1.570800 -1.391899 -1.570792
1  -4.751105 -3.100100 -0.425092  -1.544956 -1.855077 -0.198630
2  6.027519 -0.000326 0.000201  -1.105144 -0.926282 -1.184892
3  11.692104 0.000482 -0.000739  -0.221922 -0.000031 -1.451173
4  11.479547 -0.000556 -0.000880  0.955765 -0.244222 0.496992
5  3.859503 -0.142875 -1.192066  -0.376676 0.158899 -1.805694
6  1.312590 0.000013 0.000004  -0.181175 0.146992 -0.778420
7  0.729355 0.000052 0.000049  -0.031171 -0.017918 -1.149194
8  3.942140 0.046277 -0.431528  -0.395402 0.284279 -1.632068
9  1.539111 0.000082 -0.000001  -0.017908 0.024319 -0.997324
10  1.196333 0.000144 0.000025  -0.007633 0.005851 -1.269757
11  3.883506 -0.047266 0.431365  -0.227106 0.389701 -1.453903
12  1.719573 -0.000028 0.000011  0.003588 -0.071161 -1.113298
13  1.209178 0.000091 0.000007  -0.007485 -0.004716 -1.374143
14  4.166036 -0.119653 1.216741  -0.208528 0.343239 -1.539092
15  1.719449 -0.000013 0.000021  0.005905 0.032644 -0.879292
16  1.099674 0.000048 0.000002  -0.070425 0.040686 -1.377946
17  0.806987 -1.173642 1.039816  -0.968936 -1.008553 -0.468476
18  1.789819 -0.000005 -0.000016  0.032221 0.034033 0.959261
19  1.207016 -0.000013 -0.000042  -0.004769 -0.003056 -0.025745
20  5.740636 0.000363 -0.000699  -0.157407 0.000003 0.000060
21  11.480916 0.000030 -0.000829  -0.108302 -0.054664 0.067926
22  6.027522 -0.000329 0.000206  1.857641 -0.585558 1.466365
23  0.000003 11.692097 -0.000006  -1.000461 -0.449180 -0.791676
24  0.000004 0.000007 -0.000002  0.647175 -0.000031 1.570738
25  -0.000001 -0.000006 -0.000001  0.868967 -0.000009 1.570721
26  -5.244507 -9.426861 0.826811  1.473120 1.855074 -0.198639
27  6.027512 -0.000266 -0.000220  1.543565 0.931783 -0.463922
28  11.691998 0.000243 0.000862  0.437593 0.000040 -1.458333
29  11.480628 0.000209 0.000812  -1.253468 0.589964 0.633477
30  3.859439 -0.132762 1.193064  0.470066 -0.067999 -1.665317
31  1.312559 0.000026 -0.000002  0.021695 -0.123985 -0.527511
32  0.729345 0.000066 -0.000028  -0.138732 -0.127376 -1.011820
33  3.942048 0.050135 0.430998  0.197841 -0.127871 -1.406840
34  1.539098 0.000008 -0.000005  0.037568 -0.059890 -1.033472
35  1.196301 0.000076 -0.000007  -0.020769 -0.003050 -1.085867
36  3.883415 -0.050477 -0.431085  0.186732 -0.275469 -1.223438
37  1.719565 -0.000080 -0.000014  0.010321 -0.108736 -1.387818
38  1.209198 0.000035 0.000005  -0.015858 0.069226 -0.718581
39  3.859589 -0.149086 -1.331322  0.001640 -0.040762 -0.204411
40  1.719413 -0.000096 -0.000049  -0.007332 0.024053 -1.255257
41  1.099674 0.000024 -0.000001  -0.008341 -0.008678 -0.722965
42  0.805983 -0.359849 -1.318339  1.335945 0.239302 -0.765945
43  1.789780 -0.000008 -0.000030  -0.001000 0.011568 0.269127
44  1.206996 -0.000004 0.000014  -0.001431 -0.000153 1.276797
45  5.740573 0.000120 0.000727  0.088059 -0.000013 0.000032
46  11.481071 0.000180 0.000916  0.029304 0.109728 0.093547
47  6.027517 -0.000277 -0.000231  -1.064806 -0.408650 -1.412702
48  0.000000 11.691980 -0.000008  -1.004676 0.453057 0.794480
49  0.000003 -0.000002 -0.000000  2.710123 -0.000036 1.570861
50  -0.000005 -0.000014 0.000004  2.272646 -0.000031 1.570865
51  -3.208373 -7.010530 -5.716846  -0.157942 -2.986940 1.427575
52  -0.000000 0.000000 -0.000000  0.008153 -0.000259 0.000009
53  0.000000 -0.000000 -0.000000  1.565115 0.043565 -0.106862
54  0.150687 -12.657831 -6.126896  -0.365569 -0.219917 -1.844911
55  0.000001 -0.000000 0.000000  0.000000 -0.000000 -0.000002
56  0.000032 0.000029 0.000001  -1.571901 -0.044449 -0.106509
57  7.241026 -5.571117 -15.133753  1.570796 -0.000000 0.000000
58  -17.141647 7.639411 -16.354797  1.570796 -0.000000 0.000000
59  -0.388980 3.895684 -4.125583  1.570796 -0.000000 0.000000
60  -0.004311 0.001230 -0.000371  0.006898 -0.005534 -0.284228
61  0.858610 10.209643 -3.484070  1.570796 -0.000000 0.000000
62  0.000000 0.000000 0.000000  -0.078728 -3.136056 0.284225
63  0.031801 0.000000 -0.000718  1.570796 -0.000000 0.000000
64  -2.251046 -10.693121 -1.758138  1.568735 0.038060 0.007741
65  0.084987 -1.430221 1.369412  0.000000 -0.000000 0.000000
66  -0.078505 -0.217140 -0.284107  0.000000 -0.000000 0.000000
67  0.084988 0.706513 -3.480917  0.000000 -0.000000 0.000000
68  0.084988 -0.512603 7.072135  0.000000 -0.000000 0.000000
69  -0.109108 -2.470345 0.230348  0.000000 -0.000000 0.000000
70  0.664583 -0.478699 -0.445296  0.000000 -0.000000 0.000000
71  0.204886 -0.846612 -0.665133  0.000000 -0.000000 0.000000
72  -2.325637 -10.250260 -5.860322  1.568735 0.038060 0.007741
73  -0.166807 3.093657 -0.213254  0.000000 -0.000000 0.000000
74  0.105927 2.911776 -0.304606  0.000000 -0.000000 0.000000
time 11
0  0.031807 0.000000 -0.000718  -1.570800 -1.391899 -1.570792
1  -4.751105 -3.100100 -0.425092  -1.544956 -1.855077 -0.198630
2  6.027519 -0.000326 0.000201  -1.106053 -0.927062 -1.185206
3  11.692102 0.000483 -0.000739  -0.221922 -0.000031 -1.450534
4  11.479577 -0.000539 -0.000874  0.958632 -0.242038 0.498186
5  3.859504 -0.142875 -1.192065  -0.376675 0.158899 -1.805694
6  1.312589 0.000014 0.000004  -0.181175 0.146992 -0.778420
7  0.729355 0.000053 0.000049  -0.031171 -0.017918 -1.149194
8  3.942142 0.046277 -0.431529  -0.395402 0.284279 -1.632068
9  1.539111 0.000082 -0.000001  -0.017908 0.024319 -0.997324
10  1.196333 0.000145 0.000024  -0.007633 0.005851 -1.269758
11  3.883509 -0.047265 0.431365  -0.227106 0.389700 -1.453903
12  1.719573 -0.000025 0.000010  0.003588 -0.071161 -1.113298
13  1.209180 0.000090 0.000007  -0.007485 -0.004716 -1.374143
14  4.166038 -0.119653 1.216741  -0.208528 0.343239 -1.539092
15  1.719449 -0.000013 0.000020  0.005905 0.032644 -0.879292
16  1.099676 0.000048 0.000002  -0.070425 0.040686 -1.377946
17  0.806988 -1.173641 1.039817  -0.968936 -1.008553 -0.468476
18  1.789819 -0.000004 -0.000016  0.032221 0.034033 0.959261
19  1.207014 -0.000014 -0.000042  -0.004769 -0.003056 -0.025745
20  5.740636 0.000363 -0.000698  -0.156784 0.000003 0.000060
21  11.480924 0.000033 -0.000828  -0.107856 -0.054176 0.068380
22  6.027522 -0.000329 0.000206  1.857777 -0.584612 1.465249
23  0.000001 11.692095 -0.000005  -1.000080 -0.448833 -0.791429
24  0.000004 0.000006 0.000001  0.647175 -0.000031 1.570738
25  -0.000001 -0.000007 -0.000002  0.868967 -0.000009 1.570721
26  -5.244507 -9.426861 0.826811  1.473120 1.855074 -0.198639
27  6.027512 -0.000266 -0.000220  1.543467 0.932888 -0.464012
28  11.691997 0.000243 0.000863  0.437593 0.000040 -1.457333
29  11.480640 0.000215 0.000809  -1.249970 0.590370 0.634850
30  3.859438 -0.132762 1.193064  0.470066 -0.067999 -1.665317
31  1.312560 0.000027 -0.000002  0.021695 -0.123985 -0.527511
32  0.729345 0.000066 -0.000028  -0.138732 -0.127376 -1.011820
33  3.942047 0.050136 0.430999  0.197841 -0.127871 -1.406840
34  1.539097 0.000008 -0.000005  0.037568 -0.059890 -1.033472
35  1.196300 0.000077 -0.000008  -0.020769 -0.003050 -1.085867
36  3.883414 -0.050476 -0.431085  0.186732 -0.275469 -1.223438
37  1.719564 -0.000082 -0.000014  0.010321 -0.108736 -1.387818
38  1.209197 0.000036 0.000005  -0.015858 0.069226 -0.718581
39  3.859588 -0.149086 -1.331322  0.001621 -0.040764 -0.203696
40  1.719412 -0.000095 -0.000049  -0.007420 0.024092 -1.258573
41  1.099674 0.000024 -0.000002  -0.008239 -0.008789 -0.736351
42  0.805983 -0.359848 -1.318338  1.335945 0.239302 -0.765945
43  1.789781 -0.000008 -0.000031  -0.001000 0.011568 0.269127
44  1.206998 -0.000004 0.000014  -0.001432 -0.000153 1.276797
45  5.740575 0.000120 0.000726  0.088719 -0.000013 0.000032
46  11.481075 0.000181 0.000916  0.029850 0.110000 0.093573
47  6.027517 -0.000277 -0.000231  -1.065821 -0.408053 -1.412311
48  -0.000000 11.691978 -0.000007  -1.004080 0.452512 0.794095
49  0.000005 -0.000003 -0.000001  2.710123 -0.000036 1.570861
50  -0.000006 -0.000015 0.000006  2.272646 -0.000031 1.570865
51  -3.199327 -7.017598 -5.710444  -0.155062 -2.987732 1.426787
52  0.000000 -0.000000 -0.000001  0.008153 -0.000259 0.000009
53  0.000000 0.000000 0.000000  1.565115 0.043565 -0.106862
54  0.158970 -12.665907 -6.112779  -0.362783 -0.218760 -1.845863
55  0.000002 -0.000000 0.000000  0.000000 -0.000000 -0.000002
56  0.000032 0.000029 0.000002  -1.571901 -0.044449 -0.106509
57  7.241026 -5.571117 -15.133753  1.570796 -0.000000 0.000000
58  -17.141647 7.639411 -16.354797  1.570796 -0.000000 0.000000
59  -0.388980 3.895684 -4.125583  1.570796 -0.000000 0.000000
60  -0.004311 0.001230 -0.000371  0.006898 -0.005534 -0.284228
61  0.858610 10.209643 -3.484070  1.570796 -0.000000 0.000000
62  0.000000 0.000000 0.000000  -0.078728 -3.136056 0.284225
63  0.031801 0.000000 -0.000718  1.570796 -0.000000 0.000000
64  -2.254878 -10.702008 -1.750338  1.569090 0.035126 0.007409
65  0.084987 -1.430222 1.369413  0.000000 -0.000000 0.000000
66  -0.078505 -0.217140 -0.284105  0.000000 -0.000000 0.000000
67  0.084988 0.706513 -3.480916  0.000000 -0.000000 0.000000
68  0.084988 -0.512603 7.072138  0.000000 -0.000000 0.000000
69  -0.109108 -2.470345 0.230351  0.000000 -0.000000 0.000000
70  0.664583 -0.478699 -0.445293  0.000000 -0.000000 0.000000
71  0.204886 -0.846612 -0.665133  0.000000 -0.000000 0.000000
72  -2.317292 -10.257579 -5.852556  1.569090 0.035126 0.007409
73  -0.166807 3.093656 -0.213253  0.000000 -0.000000 0.000000
74  0.105926 2.911775 -0.304606  0.000000 -0.000000 0.000000
time 12
0  0.031807 0.000000 -0.000718  -1.570800 -1.391899 -1.570792
1  -4.751105 -3.100100 -0.425092  -1.544956 -1.855077 -0.198630
2  6.027519 -0.000326 0.000201  -1.104834 -0.928873 -1.186727
3  11.692102 0.000484 -0.000738  -0.221922 -0.000031 -1.447986
4  11.479610 -0.000519 -0.000870  0.956783 -0.241831 0.497990
5  3.859505 -0.142876 -1.192066  -0.376675 0.158899 -1.805694
6  1.312591 0.000012 0.000004  -0.181175 0.146992 -0.778420
7  0.729356 0.000053 0.000048  -0.031171 -0.017918 -1.149194
8  3.942141 0.046276 -0.431528  -0.395402 0.284279 -1.632068
9  1.539111 0.000080 -0.000000  -0.017908 0.024319 -0.997324
10  1.196332 0.000145 0.000024  -0.007633 0.005851 -1.269758
11  3.883507 -0.047266 0.431365  -0.227106 0.389700 -1.453903
12  1.719573 -0.000027 0.000010  0.003588 -0.071161 -1.113298
13  1.209179 0.000091 0.000007  -0.007485 -0.004716 -1.374143
14  4.166036 -0.119654 1.216740  -0.208528 0.343239 -1.539092
15  1.719448 -0.000011 0.000021  0.005905 0.032644 -0.879292
16  1.099676 0.000048 0.000001  -0.070425 0.040686 -1.377946
17  0.806988 -1.173642 1.039816  -0.968936 -1.008553 -0.468477
18  1.789818 -0.000005 -0.000016  0.032221 0.034033 0.959261
19  1.207015 -0.000013 -0.000042  -0.004769 -0.003056 -0.025745
20  5.740635 0.000364 -0.000698  -0.157108 0.000003 0.000060
21  11.480930 0.000038 -0.000826  -0.108226 -0.054212 0.068286
22  6.027522 -0.000329 0.000206  1.855982 -0.583359 1.465693
23  0.000002 11.692095 -0.000006  -0.998561 -0.447449 -0.790442
24  0.000003 0.000007 -0.000001  0.647175 -0.000031 1.570738
25  -0.000002 -0.000007 -0.000002  0.868967 -0.000009 1.570721
26  -5.244507 -9.426861 0.826811  1.473120 1.855074 -0.198639
27  6.027512 -0.000266 -0.000220  1.545656 0.934240 -0.462518
28  11.691997 0.000244 0.000863  0.437593 0.000040 -1.455474
29  11.480658 0.000224 0.000803  -1.251433 0.588804 0.635474
30  3.859438 -0.132762 1.193064  0.470066 -0.067999 -1.665317
31  1.312560 0.000027 -0.000002  0.021695 -0.123985 -0.527511
32  0.729345 0.000066 -0.000028  -0.138732 -0.127376 -1.011820
33  3.942048 0.050135 0.430999  0.197841 -0.127871 -1.406840
34  1.539098 0.000008 -0.000005  0.037568 -0.059890 -1.033472
35  1.196300 0.000077 -0.000009  -0.020769 -0.003050 -1.085867
36  3.883415 -0.050476 -0.431085  0.186732 -0.275469 -1.223438
37  1.719565 -0.000081 -0.000014  0.010321 -0.108736 -1.387818
38  1.209198 0.000035 0.000005  -0.015858 0.069226 -0.718581
39  3.859589 -0.149086 -1.331321  0.001621 -0.040764 -0.203696
40  1.719413 -0.000096 -0.000049  -0.007420 0.024092 -1.258573
41  1.099674 0.000024 -0.000001  -0.008239 -0.008789 -0.736351
42  0.805983 -0.359848 -1.318338  1.335945 0.239302 -0.765945
43  1.789780 -0.000007 -0.000030  -0.001000 0.011568 0.269127
44  1.206997 -0.000004 0.000013  -0.001431 -0.000153 1.276797
45  5.740573 0.000119 0.000725  0.088527 -0.000013 0.000032
46  11.481077 0.000183 0.000914  0.029665 0.109642 0.093849
47  6.027517 -0.000277 -0.000231  -1.066192 -0.406207 -1.412429
48  0.000001 11.691979 -0.000008  -1.002973 0.451499 0.793378
49  0.000003 -0.000002 0.000000  2.710123 -0.000036 1.570861
50  -0.000004 -0.000014 0.000004  2.272646 -0.000031 1.570865
51  -3.208010 -7.033562 -5.688783  -0.156802 -2.988296 1.426629
52  0.000000 -0.000000 -0.000000  0.008153 -0.000259 0.000009
53  0.000000 0.000000 0.000000  1.565115 0.043565 -0.106862
54  0.147233 -12.682966 -6.101104  -0.364605 -0.218425 -1.845892
55  -0.000000 -0.000000 0.000000  0.000000 -0.000000 -0.000002
56  0.000031 0.000029 0.000002  -1.571901 -0.044449 -0.106509
57  7.241026 -5.571117 -15.133753  1.570796 -0.000000 0.000000
58  -17.141647 7.639411 -16.354797  1.570796 -0.000000 0.000000
59  -0.388980 3.895684 -4.125583  1.570796 -0.000000 0.000000
60  -0.004311 0.001230 -0.000371  0.006898 -0.005534 -0.284228
61  0.858610 10.209643 -3.484070  1.570796 -0.000000 0.000000
62  0.000000 0.000000 0.000000  -0.078728 -3.136056 0.284225
63  0.031801 0.000000 -0.000718  1.570796 -0.000000 0.000000
64  -2.258709 -10.721560 -1.733177  1.569907 0.036741 0.007014
65  0.084987 -1.430222 1.369413  -0.000000 -0.000000 -0.000000
66  -0.078505 -0.217140 -0.284105  -0.000000 -0.000000 -0.000000
67  0.084988 0.706513 -3.480916  -0.000000 -0.000000 -0.000000
68  0.084988 -0.512603 7.072138  -0.000000 -0.000000 -0.000000
69  -0.109108 -2.470346 0.230350  -0.000000 -0.000000 -0.000000
70  0.664583 -0.478699 -0.445295  -0.000000 -0.000000 -0.000000
71  0.204886 -0.846613 -0.665132  -0.000000 -0.000000 -0.000000
72  -2.327583 -10.273801 -5.834929  1.569907 0.036741 0.007014
73  -0.166807 3.093656 -0.213254  -0.000000 -0.000000 -0.000000
74  0.105926 2.911775 -0.304606  -0.000000 -0.000000 -0.000000
time 13
0  0.031807 0.000000 -0.000718  -1.570800 -1.391899 -1.570792
1  -4.751105 -3.100100 -0.425092  -1.544956 -1.855077 -0.198630
2  6.027519 -0.000326 0.000201  -1.103062 -0.930697 -1.188398
3  11.692102 0.000483 -0.000739  -0.221922 -0.000030 -1.445241
4  11.479625 -0.000513 -0.000868  0.953536 -0.242412 0.497311
5  3.859504 -0.142875 -1.192066  -0.376676 0.158899 -1.805694
6  1.312588 0.000014 0.000004  -0.181175 0.146992 -0.778420
7  0.729356 0.000052 0.000048  -0.031171 -0.017918 -1.149194
8  3.942142 0.046277 -0.431530  -0.395402 0.284279 -1.632068
9  1.539110 0.000083 -0.000000  -0.017908 0.024319 -0.997324
10  1.196332 0.000145 0.000024  -0.007633 0.005851 -1.269758
11  3.883507 -0.047266 0.431364  -0.227106 0.389700 -1.453903
12  1.719573 -0.000027 0.000011  0.003588 -0.071161 -1.113298
13  1.209178 0.000091 0.000007  -0.007485 -0.004716 -1.374143
14  4.166036 -0.119654 1.216740  -0.208528 0.343239 -1.539092
15  1.719449 -0.000015 0.000021  0.005905 0.032644 -0.879292
16  1.099675 0.000049 0.000002  -0.070425 0.040686 -1.377946
17  0.806987 -1.173642 1.039816  -0.968936 -1.008553 -0.468476
18  1.789818 -0.000006 -0.000016  0.032221 0.034033 0.959261
19  1.207013 -0.000013 -0.000042  -0.004769 -0.003056 -0.025745
20  5.740636 0.000364 -0.000699  -0.157723 0.000003 0.000060
21  11.480933 0.000039 -0.000827  -0.108827 -0.054438 0.068005
22  6.027522 -0.000329 0.000206  1.853837 -0.582245 1.466623
23  0.000001 11.692096 -0.000005  -0.996925 -0.445961 -0.789376
24  0.000003 0.000006 0.000001  0.647175 -0.000031 1.570738
25  -0.000001 -0.000007 -0.000001  0.868967 -0.000009 1.570721
26  -5.244507 -9.426861 0.826811  1.473120 1.855074 -0.198639
27  6.027512 -0.000266 -0.000220  1.548258 0.935412 -0.460728
28  11.691997 0.000244 0.000862  0.437593 0.000040 -1.453664
29  11.480671 0.000232 0.000801  -1.254474 0.586814 0.635679
30  3.859438 -0.132762 1.193063  0.470066 -0.067999 -1.665317
31  1.312559 0.000028 -0.000003  0.021695 -0.123985 -0.527511
32  0.729346 0.000064 -0.000029  -0.138732 -0.127376 -1.011820
33  3.942048 0.050135 0.430999  0.197841 -0.127871 -1.406840
34  1.539097 0.000006 -0.000005  0.037568 -0.059890 -1.033472
35  1.196300 0.000077 -0.000008  -0.020769 -0.003050 -1.085867
36  3.883414 -0.050476 -0.431085  0.186732 -0.275469 -1.223438
37  1.719565 -0.000080 -0.000014  0.010321 -0.108736 -1.387818
38  1.209198 0.000034 0.000004  -0.015858 0.069226 -0.718581
39  3.859590 -0.149086 -1.331322  0.001621 -0.040764 -0.203696
40  1.719414 -0.000095 -0.000049  -0.007420 0.024092 -1.258573
41  1.099674 0.000025 -0.000001  -0.008239 -0.008789 -0.736351
42  0.805984 -0.359849 -1.318338  1.335945 0.239302 -0.765945
43  1.789781 -0.000008 -0.000030  -0.001000 0.011568 0.269126
44  1.206996 -0.000005 0.000014  -0.001432 -0.000153 1.276797
45  5.740574 0.000119 0.000727  0.088050 -0.000013 0.000032
46  11.481081 0.000184 0.000914  0.029242 0.109119 0.094162
47  6.027517 -0.000277 -0.000231  -1.066253 -0.404268 -1.412708
48  -0.000000 11.691979 -0.000008  -1.001896 0.450515 0.792679
49  0.000002 -0.000002 0.000001  2.710123 -0.000036 1.570861
50  -0.000006 -0.000014 0.000004  2.272646 -0.000031 1.570865
51  -3.221523 -7.049606 -5.665795  -0.159930 -2.988657 1.426748
52  0.000000 0.000000 0.000001  0.008153 -0.000259 0.000009
53  0.000001 0.000000 -0.000000  1.565115 0.043565 -0.106862
54  0.130433 -12.699872 -6.092729  -0.367793 -0.218471 -1.845559
55  0.000002 -0.000001 0.000000  0.000000 -0.000000 -0.000002
56  0.000032 0.000028 0.000001  -1.571902 -0.044449 -0.106509
57  7.241026 -5.571117 -15.133753  1.570796 -0.000000 0.000000
58  -17.141647 7.639411 -16.354797  1.570796 -0.000000 0.000000
59  -0.388980 3.895684 -4.125583  1.570796 -0.000000 0.000000
60  -0.004311 0.001230 -0.000371  0.006898 -0.005534 -0.284228
61  0.858610 10.209643 -3.484070  1.570796 -0.000000 0.000000
62  0.000000 0.000000 0.000000  -0.078728 -3.136056 0.284225
63  0.031801 0.000000 -0.000718  1.570796 -0.000000 0.000000
64  -2.261656 -10.741112 -1.716016  1.570729 0.039743 0.006687
65  0.084987 -1.430222 1.369413  0.000000 0.000000 0.000000
66  -0.078505 -0.217140 -0.284104  0.000000 0.000000 0.000000
67  0.084988 0.706513 -3.480916  0.000000 0.000000 0.000000
68  0.084988 -0.512603 7.072138  0.000000 0.000000 0.000000
69  -0.109108 -2.470345 0.230350  0.000000 0.000000 0.000000
70  0.664583 -0.478699 -0.445294  0.000000 0.000000 0.000000
71  0.204886 -0.846612 -0.665132  0.000000 0.000000 0.000000
72  -2.342704 -10.290039 -5.817183  1.570729 0.039743 0.006687
73  -0.166808 3.093657 -0.213254  0.000000 0.000000 0.000000
74  0.105926 2.911775 -0.304607  0.000000 0.000000 0.000000
time 14
0  0.031807 0.000000 -0.000718  -1.570800 -1.391899 -1.570792
1  -4.751105 -3.100100 -0.425092  -1.544956 -1.855077 -0.198630
2  6.027519 -0.000326 0.000201  -1.102153 -0.931529 -1.189188
3  11.692103 0.000483 -0.000739  -0.221922 -0.000030 -1.443957
4  11.479630 -0.000510 -0.000867  0.951806 -0.242819 0.496915
5  3.859503 -0.142876 -1.192065  -0.376675 0.158898 -1.805694
6  1.312589 0.000015 0.000005  -0.181175 0.146992 -0.778420
7  0.729353 0.000053 0.000049  -0.031171 -0.017918 -1.149194
8  3.942141 0.046276 -0.431529  -0.395402 0.284279 -1.632068
9  1.539109 0.000083 -0.000001  -0.017908 0.024319 -0.997324
10  1.196333 0.000145 0.000025  -0.007633 0.005851 -1.269758
11  3.883506 -0.047266 0.431365  -0.227106 0.389700 -1.453903
12  1.719572 -0.000027 0.000010  0.003588 -0.071161 -1.113298
13  1.209180 0.000091 0.000008  -0.007485 -0.004716 -1.374143
14  4.166035 -0.119654 1.216740  -0.208528 0.343239 -1.539092
15  1.719449 -0.000012 0.000021  0.005905 0.032644 -0.879292
16  1.099674 0.000048 0.000003  -0.070425 0.040686 -1.377946
17  0.806986 -1.173642 1.039816  -0.968936 -1.008553 -0.468477
18  1.789819 -0.000006 -0.000016  0.032221 0.034033 0.959261
19  1.207016 -0.000014 -0.000042  -0.004769 -0.003056 -0.025745
20  5.740634 0.000365 -0.000698  -0.158055 0.000003 0.000060
21  11.480933 0.000040 -0.000827  -0.109142 -0.054575 0.067843
22  6.027522 -0.000329 0.000206  1.852798 -0.581762 1.467133
23  0.000001 11.692097 -0.000006  -0.996160 -0.445265 -0.788877
24  0.000002 0.000006 0.000000  0.647175 -0.000031 1.570738
25  -0.000002 -0.000007 -0.000002  0.868967 -0.000009 1.570721
26  -5.244507 -9.426861 0.826811  1.473120 1.855074 -0.198639
27  6.027512 -0.000266 -0.000220  1.549517 0.935913 -0.459860
28  11.691998 0.000244 0.000862  0.437593 0.000040 -1.452850
29  11.480678 0.000234 0.000798  -1.256143 0.585833 0.635696
30  3.859439 -0.132762 1.193064  0.470066 -0.067999 -1.665317
31  1.312559 0.000027 -0.000001  0.021695 -0.123985 -0.527511
32  0.729346 0.000065 -0.000028  -0.138732 -0.127376 -1.011820
33  3.942047 0.050135 0.430998  0.197841 -0.127871 -1.406840
34  1.539098 0.000009 -0.000006  0.037568 -0.059890 -1.033472
35  1.196301 0.000077 -0.000008  -0.020769 -0.003050 -1.085867
36  3.883415 -0.050476 -0.431086  0.186732 -0.275469 -1.223439
37  1.719565 -0.000080 -0.000014  0.010321 -0.108736 -1.387818
38  1.209199 0.000035 0.000005  -0.015858 0.069226 -0.718581
39  3.859588 -0.149086 -1.331322  0.001621 -0.040764 -0.203696
40  1.719413 -0.000096 -0.000049  -0.007420 0.024092 -1.258573
41  1.099674 0.000025 -0.000002  -0.008239 -0.008789 -0.736351
42  0.805983 -0.359849 -1.318339  1.335945 0.239302 -0.765945
43  1.789780 -0.000008 -0.000029  -0.000999 0.011568 0.269127
44  1.206996 -0.000004 0.000014  -0.001432 -0.000153 1.276797
45  5.740574 0.000118 0.000726  0.087780 -0.000013 0.000032
46  11.481083 0.000183 0.000913  0.029005 0.108851 0.094310
47  6.027517 -0.000277 -0.000231  -1.066226 -0.403369 -1.412864
48  -0.000001 11.691979 -0.000008  -1.001411 0.450072 0.792364
49  0.000004 -0.000002 -0.000000  2.710123 -0.000036 1.570861
50  -0.000005 -0.000015 0.000004  2.272646 -0.000031 1.570865
51  -3.228538 -7.056912 -5.655094  -0.161604 -2.988785 1.426852
52  0.000000 -0.000000 0.000000  0.008153 -0.000259 0.000009
53  0.000000 0.000000 -0.000000  1.565115 0.043565 -0.106862
54  0.121869 -12.707531 -6.089507  -0.369490 -0.218560 -1.845342
55  -0.000001 -0.000001 -0.000000  0.000000 -0.000000 -0.000002
56  0.000030 0.000028 0.000000  -1.571901 -0.044449 -0.106509
57  7.241026 -5.571117 -15.133753  1.570796 -0.000000 0.000000
58  -17.141647 7.639411 -16.354797  1.570796 -0.000000 0.000000
59  -0.388980 3.895684 -4.125583  1.570796 -0.000000 0.000000
60  -0.004311 0.001230 -0.000371  0.006898 -0.005534 -0.284228
61  0.858610 10.209643 -3.484070  1.570796 -0.000000 0.000000
62  0.000000 0.000000 0.000000  -0.078728 -3.136056 0.284225
63  0.031801 0.000000 -0.000718  1.570796 -0.000000 0.000000
64  -2.262835 -10.749999 -1.708216  1.571103 0.041360 0.006551
65  0.084987 -1.430222 1.369412  -0.000000 -0.000000 -0.000000
66  -0.078505 -0.217140 -0.284104  -0.000000 -0.000000 -0.000000
67  0.084987 0.706513 -3.480916  -0.000000 -0.000000 -0.000000
68  0.084988 -0.512604 7.072140  -0.000000 -0.000000 -0.000000
69  -0.109108 -2.470345 0.230350  -0.000000 -0.000000 -0.000000
70  0.664584 -0.478699 -0.445295  -0.000000 -0.000000 -0.000000
71  0.204886 -0.846613 -0.665132  -0.000000 -0.000000 -0.000000
72  -2.350455 -10.297424 -5.809082  1.571103 0.041360 0.006551
73  -0.166807 3.093656 -0.213254  -0.000000 -0.000000 -0.000000
74  0.105926 2.911775 -0.304607  -0.000000 -0.000000 -0.000000
end
