version 1
nodes
0 "ValveBiped.Bip01_Spine4" -1
1 "ValveBiped.Bip01_L_Clavicle" 0
2 "ValveBiped.Bip01_L_UpperArm" 1
3 "ValveBiped.Bip01_L_Forearm" 2
4 "ValveBiped.Bip01_L_Hand" 3
5 "ValveBiped.Bip01_L_Finger4" 4
6 "ValveBiped.Bip01_L_Finger41" 5
7 "ValveBiped.Bip01_L_Finger42" 6
8 "ValveBiped.Bip01_L_Finger3" 4
9 "ValveBiped.Bip01_L_Finger31" 8
10 "ValveBiped.Bip01_L_Finger32" 9
11 "ValveBiped.Bip01_L_Finger2" 4
12 "ValveBiped.Bip01_L_Finger21" 11
13 "ValveBiped.Bip01_L_Finger22" 12
14 "ValveBiped.Bip01_L_Finger1" 4
15 "ValveBiped.Bip01_L_Finger11" 14
16 "ValveBiped.Bip01_L_Finger12" 15
17 "ValveBiped.Bip01_L_Finger0" 4
18 "ValveBiped.Bip01_L_Finger01" 17
19 "ValveBiped.Bip01_L_Finger02" 18
20 "ValveBiped.Bip01_L_Ulna" 3
21 "ValveBiped.Bip01_L_Wrist" 3
22 "rig_l_upperarm" 1
23 "rig_l_forearm" 22
24 "rig_d_l_forearm" 23
25 "rig_d_l_upperarm" 22
26 "ValveBiped.Bip01_R_Clavicle" 0
27 "ValveBiped.Bip01_R_UpperArm" 26
28 "ValveBiped.Bip01_R_Forearm" 27
29 "ValveBiped.Bip01_R_Hand" 28
30 "ValveBiped.Bip01_R_Finger4" 29
31 "ValveBiped.Bip01_R_Finger41" 30
32 "ValveBiped.Bip01_R_Finger42" 31
33 "ValveBiped.Bip01_R_Finger3" 29
34 "ValveBiped.Bip01_R_Finger31" 33
35 "ValveBiped.Bip01_R_Finger32" 34
36 "ValveBiped.Bip01_R_Finger2" 29
37 "ValveBiped.Bip01_R_Finger21" 36
38 "ValveBiped.Bip01_R_Finger22" 37
39 "ValveBiped.Bip01_R_Finger1" 29
40 "ValveBiped.Bip01_R_Finger11" 39
41 "ValveBiped.Bip01_R_Finger12" 40
42 "ValveBiped.Bip01_R_Finger0" 29
43 "ValveBiped.Bip01_R_Finger01" 42
44 "ValveBiped.Bip01_R_Finger02" 43
45 "ValveBiped.Bip01_R_Ulna" 28
46 "ValveBiped.Bip01_R_Wrist" 28
47 "rig_r_upperarm" 26
48 "rig_r_forearm" 47
49 "rig_d_r_forearm" 48
50 "rig_d_r_upperarm" 47
51 "rig_r_hand" -1
52 "rig_d_r_hand" 51
53 "rig_d_r_wrist" 52
54 "rig_l_hand" -1
55 "rig_d_l_hand" 54
56 "rig_d_l_wrist" 54
57 "rig_l_pole" -1
58 "rig_r_pole" -1
59 "rig_l_clavicle" -1
60 "rig_d_l_clavicle" 59
61 "rig_r_clavicle" -1
62 "rig_d_r_clavicle" 61
63 "Camera" -1
64 "body" -1
65 "trigger" 64
66 "bolt" 64
67 "chandle" 64
68 "barrel" 64
69 "magrel" 64
70 "boltrelease" 64
71 "bullet1" 64
72 "mag" -1
73 "bullet2" 72
74 "bullet3" 72
end
skeleton
time 0
0  0.031807 0.000000 -0.000718  -1.570800 -1.391899 -1.570792
1  -4.751105 -3.100100 -0.425092  -1.544956 -1.855077 -0.198630
2  6.027519 -0.000326 0.000201  -1.102153 -0.931529 -1.189188
3  11.692103 0.000483 -0.000739  -0.221922 -0.000030 -1.443957
4  11.479630 -0.000510 -0.000867  0.951806 -0.242819 0.496915
5  3.859503 -0.142876 -1.192065  -0.376675 0.158898 -1.805694
6  1.312589 0.000015 0.000005  -0.181175 0.146992 -0.778420
7  0.729353 0.000053 0.000049  -0.031171 -0.017918 -1.149194
8  3.942141 0.046276 -0.431529  -0.395402 0.284279 -1.632068
9  1.539109 0.000083 -0.000001  -0.017908 0.024319 -0.997324
10  1.196333 0.000145 0.000025  -0.007633 0.005851 -1.269758
11  3.883506 -0.047266 0.431365  -0.227106 0.389700 -1.453903
12  1.719572 -0.000027 0.000010  0.003588 -0.071161 -1.113298
13  1.209180 0.000091 0.000008  -0.007485 -0.004716 -1.374143
14  4.166035 -0.119654 1.216740  -0.208528 0.343239 -1.539092
15  1.719449 -0.000012 0.000021  0.005905 0.032644 -0.879292
16  1.099674 0.000048 0.000003  -0.070425 0.040686 -1.377946
17  0.806986 -1.173642 1.039816  -0.968936 -1.008553 -0.468477
18  1.789819 -0.000006 -0.000016  0.032221 0.034033 0.959261
19  1.207016 -0.000014 -0.000042  -0.004769 -0.003056 -0.025745
20  5.740634 0.000365 -0.000698  -0.158055 0.000003 0.000060
21  11.480933 0.000040 -0.000827  -0.109142 -0.054575 0.067843
22  6.027522 -0.000329 0.000206  1.852798 -0.581762 1.467133
23  0.000001 11.692097 -0.000006  -0.996160 -0.445265 -0.788877
24  0.000002 0.000006 0.000000  0.647175 -0.000031 1.570738
25  -0.000002 -0.000007 -0.000002  0.868967 -0.000009 1.570721
26  -5.244507 -9.426861 0.826811  1.473120 1.855074 -0.198639
27  6.027512 -0.000266 -0.000220  1.549517 0.935913 -0.459860
28  11.691998 0.000244 0.000862  0.437593 0.000040 -1.452850
29  11.480678 0.000234 0.000798  -1.256143 0.585833 0.635696
30  3.859439 -0.132762 1.193064  0.470066 -0.067999 -1.665317
31  1.312559 0.000027 -0.000001  0.021695 -0.123985 -0.527511
32  0.729346 0.000065 -0.000028  -0.138732 -0.127376 -1.011820
33  3.942047 0.050135 0.430998  0.197841 -0.127871 -1.406840
34  1.539098 0.000009 -0.000006  0.037568 -0.059890 -1.033472
35  1.196301 0.000077 -0.000008  -0.020769 -0.003050 -1.085867
36  3.883415 -0.050476 -0.431086  0.186732 -0.275469 -1.223439
37  1.719565 -0.000080 -0.000014  0.010321 -0.108736 -1.387818
38  1.209199 0.000035 0.000005  -0.015858 0.069226 -0.718581
39  3.859588 -0.149086 -1.331322  0.001621 -0.040764 -0.203696
40  1.719413 -0.000096 -0.000049  -0.007420 0.024092 -1.258573
41  1.099674 0.000025 -0.000002  -0.008239 -0.008789 -0.736351
42  0.805983 -0.359849 -1.318339  1.335945 0.239302 -0.765945
43  1.789780 -0.000008 -0.000029  -0.000999 0.011568 0.269127
44  1.206996 -0.000004 0.000014  -0.001432 -0.000153 1.276797
45  5.740574 0.000118 0.000726  0.087780 -0.000013 0.000032
46  11.481083 0.000183 0.000913  0.029005 0.108851 0.094310
47  6.027517 -0.000277 -0.000231  -1.066226 -0.403369 -1.412864
48  -0.000001 11.691979 -0.000008  -1.001411 0.450072 0.792364
49  0.000004 -0.000002 -0.000000  2.710123 -0.000036 1.570861
50  -0.000005 -0.000015 0.000004  2.272646 -0.000031 1.570865
51  -3.228538 -7.056912 -5.655094  -0.161604 -2.988785 1.426852
52  0.000000 -0.000000 0.000000  0.008153 -0.000259 0.000009
53  0.000000 0.000000 -0.000000  1.565115 0.043565 -0.106862
54  0.121869 -12.707531 -6.089507  -0.369490 -0.218560 -1.845342
55  -0.000001 -0.000001 -0.000000  0.000000 -0.000000 -0.000002
56  0.000030 0.000028 0.000000  -1.571901 -0.044449 -0.106509
57  7.241026 -5.571117 -15.133753  1.570796 -0.000000 0.000000
58  -17.141647 7.639411 -16.354797  1.570796 -0.000000 0.000000
59  -0.388980 3.895684 -4.125583  1.570796 -0.000000 0.000000
60  -0.004311 0.001230 -0.000371  0.006898 -0.005534 -0.284228
61  0.858610 10.209643 -3.484070  1.570796 -0.000000 0.000000
62  0.000000 0.000000 0.000000  -0.078728 -3.136056 0.284225
63  0.031801 0.000000 -0.000718  1.570796 -0.000000 0.000000
64  -2.262835 -10.749999 -1.708216  1.571103 0.041360 0.006551
65  0.084987 -1.430222 1.369412  -0.000000 -0.000000 -0.000000
66  -0.078505 -0.217140 -0.284104  -0.000000 -0.000000 -0.000000
67  0.084987 0.706513 -3.480916  -0.000000 -0.000000 -0.000000
68  0.084988 -0.512604 7.072140  -0.000000 -0.000000 -0.000000
69  -0.109108 -2.470345 0.230350  -0.000000 -0.000000 -0.000000
70  0.664584 -0.478699 -0.445295  -0.000000 -0.000000 -0.000000
71  0.204886 -0.846613 -0.665132  -0.000000 -0.000000 -0.000000
72  -2.350455 -10.297424 -5.809082  1.571103 0.041360 0.006551
73  -0.166807 3.093656 -0.213254  -0.000000 -0.000000 -0.000000
74  0.105926 2.911775 -0.304607  -0.000000 -0.000000 -0.000000
end
