version 1
nodes
0 "ValveBiped.Bip01_Spine4" -1
1 "ValveBiped.Bip01_L_Clavicle" 0
2 "ValveBiped.Bip01_L_UpperArm" 1
3 "ValveBiped.Bip01_L_Forearm" 2
4 "ValveBiped.Bip01_L_Hand" 3
5 "ValveBiped.Bip01_L_Finger4" 4
6 "ValveBiped.Bip01_L_Finger41" 5
7 "ValveBiped.Bip01_L_Finger42" 6
8 "ValveBiped.Bip01_L_Finger3" 4
9 "ValveBiped.Bip01_L_Finger31" 8
10 "ValveBiped.Bip01_L_Finger32" 9
11 "ValveBiped.Bip01_L_Finger2" 4
12 "ValveBiped.Bip01_L_Finger21" 11
13 "ValveBiped.Bip01_L_Finger22" 12
14 "ValveBiped.Bip01_L_Finger1" 4
15 "ValveBiped.Bip01_L_Finger11" 14
16 "ValveBiped.Bip01_L_Finger12" 15
17 "ValveBiped.Bip01_L_Finger0" 4
18 "ValveBiped.Bip01_L_Finger01" 17
19 "ValveBiped.Bip01_L_Finger02" 18
20 "ValveBiped.Bip01_L_Ulna" 3
21 "ValveBiped.Bip01_L_Wrist" 3
22 "rig_l_upperarm" 1
23 "rig_l_forearm" 22
24 "rig_d_l_forearm" 23
25 "rig_d_l_upperarm" 22
26 "ValveBiped.Bip01_R_Clavicle" 0
27 "ValveBiped.Bip01_R_UpperArm" 26
28 "ValveBiped.Bip01_R_Forearm" 27
29 "ValveBiped.Bip01_R_Hand" 28
30 "ValveBiped.Bip01_R_Finger4" 29
31 "ValveBiped.Bip01_R_Finger41" 30
32 "ValveBiped.Bip01_R_Finger42" 31
33 "ValveBiped.Bip01_R_Finger3" 29
34 "ValveBiped.Bip01_R_Finger31" 33
35 "ValveBiped.Bip01_R_Finger32" 34
36 "ValveBiped.Bip01_R_Finger2" 29
37 "ValveBiped.Bip01_R_Finger21" 36
38 "ValveBiped.Bip01_R_Finger22" 37
39 "ValveBiped.Bip01_R_Finger1" 29
40 "ValveBiped.Bip01_R_Finger11" 39
41 "ValveBiped.Bip01_R_Finger12" 40
42 "ValveBiped.Bip01_R_Finger0" 29
43 "ValveBiped.Bip01_R_Finger01" 42
44 "ValveBiped.Bip01_R_Finger02" 43
45 "ValveBiped.Bip01_R_Ulna" 28
46 "ValveBiped.Bip01_R_Wrist" 28
47 "rig_r_upperarm" 26
48 "rig_r_forearm" 47
49 "rig_d_r_forearm" 48
50 "rig_d_r_upperarm" 47
51 "rig_r_hand" -1
52 "rig_d_r_hand" 51
53 "rig_d_r_wrist" 52
54 "rig_l_hand" -1
55 "rig_d_l_hand" 54
56 "rig_d_l_wrist" 54
57 "rig_l_pole" -1
58 "rig_r_pole" -1
59 "rig_l_clavicle" -1
60 "rig_d_l_clavicle" 59
61 "rig_r_clavicle" -1
62 "rig_d_r_clavicle" 61
63 "Camera" -1
64 "body" -1
65 "trigger" 64
66 "bolt" 64
67 "chandle" 64
68 "barrel" 64
69 "magrel" 64
70 "boltrelease" 64
71 "bullet1" 64
72 "mag" -1
73 "bullet2" 72
74 "bullet3" 72
end
skeleton
time 0
0  0.031807 0.000000 -0.000718  -1.570800 -1.391899 -1.570792
1  -4.751105 -3.100100 -0.425092  -1.544956 -1.855077 -0.198630
2  6.027519 -0.000326 0.000201  -1.119805 -0.931535 -1.184882
3  11.692102 0.000485 -0.000739  -0.221922 -0.000031 -1.448498
4  11.479606 -0.000519 -0.000870  0.993690 -0.213799 0.509571
5  3.859504 -0.142876 -1.192065  -0.376675 0.158899 -1.805694
6  1.312588 0.000015 0.000004  -0.181175 0.146992 -0.778420
7  0.729354 0.000053 0.000049  -0.031171 -0.017918 -1.149194
8  3.942141 0.046277 -0.431528  -0.395402 0.284279 -1.632068
9  1.539110 0.000080 -0.000001  -0.017908 0.024319 -0.997324
10  1.196332 0.000145 0.000025  -0.007633 0.005851 -1.269758
11  3.883508 -0.047265 0.431366  -0.227106 0.389700 -1.453903
12  1.719573 -0.000028 0.000010  0.003588 -0.071161 -1.113298
13  1.209179 0.000090 0.000008  -0.007485 -0.004716 -1.374143
14  4.166035 -0.119654 1.216741  -0.208528 0.343239 -1.539092
15  1.719449 -0.000013 0.000021  0.005905 0.032644 -0.879291
16  1.099674 0.000049 0.000002  -0.070425 0.040686 -1.377946
17  0.806988 -1.173641 1.039816  -0.968936 -1.008553 -0.468477
18  1.789819 -0.000003 -0.000016  0.032221 0.034033 0.959261
19  1.207014 -0.000013 -0.000042  -0.004769 -0.003056 -0.025745
20  5.740636 0.000365 -0.000698  -0.148845 0.000003 0.000060
21  11.480928 0.000038 -0.000827  -0.102551 -0.047723 0.073295
22  6.027522 -0.000329 0.000206  1.863866 -0.576751 1.451214
23  0.000002 11.692096 -0.000006  -0.998867 -0.447728 -0.790640
24  0.000001 0.000005 -0.000000  0.647175 -0.000031 1.570738
25  -0.000001 -0.000007 -0.000001  0.868967 -0.000009 1.570721
26  -5.244507 -9.426861 0.826811  1.473120 1.855074 -0.198639
27  6.027512 -0.000266 -0.000220  1.534495 0.943389 -0.470525
28  11.691997 0.000243 0.000861  0.437593 0.000039 -1.450833
29  11.480696 0.000246 0.000794  -1.207862 0.604503 0.651903
30  3.859438 -0.132762 1.193063  0.470066 -0.067999 -1.665317
31  1.312559 0.000028 -0.000002  0.021695 -0.123985 -0.527511
32  0.729346 0.000064 -0.000027  -0.138732 -0.127376 -1.011820
33  3.942047 0.050135 0.430999  0.197841 -0.127871 -1.406840
34  1.539098 0.000008 -0.000006  0.037568 -0.059890 -1.033472
35  1.196300 0.000078 -0.000007  -0.020769 -0.003050 -1.085867
36  3.883414 -0.050476 -0.431086  0.186732 -0.275469 -1.223438
37  1.719565 -0.000079 -0.000014  0.010321 -0.108736 -1.387818
38  1.209198 0.000035 0.000005  -0.015858 0.069226 -0.718581
39  3.859589 -0.149086 -1.331322  0.001621 -0.040764 -0.203696
40  1.719413 -0.000095 -0.000049  -0.007420 0.024092 -1.258573
41  1.099674 0.000024 -0.000001  -0.008239 -0.008789 -0.736351
42  0.805983 -0.359849 -1.318339  1.335945 0.239302 -0.765945
43  1.789780 -0.000007 -0.000029  -0.001000 0.011568 0.269127
44  1.206997 -0.000004 0.000013  -0.001431 -0.000153 1.276797
45  5.740574 0.000118 0.000728  0.096352 -0.000013 0.000032
46  11.481086 0.000187 0.000913  0.035707 0.115050 0.093534
47  6.027517 -0.000277 -0.000231  -1.078468 -0.406169 -1.406580
48  0.000001 11.691979 -0.000007  -1.000210 0.448976 0.791584
49  0.000003 -0.000002 -0.000000  2.710123 -0.000036 1.570860
50  -0.000005 -0.000014 0.000005  2.272646 -0.000031 1.570865
51  -3.040321 -7.051888 -5.691783  -0.120220 -2.994809 1.414130
52  0.000000 -0.000000 -0.000000  0.008153 -0.000259 0.000009
53  -0.000000 -0.000000 -0.000000  1.565115 0.043565 -0.106862
54  0.288123 -12.724425 -5.987083  -0.328798 -0.207209 -1.860486
55  0.000001 -0.000000 0.000000  0.000000 -0.000000 -0.000002
56  0.000031 0.000028 0.000001  -1.571901 -0.044449 -0.106509
57  7.241026 -5.571117 -15.133753  1.570796 -0.000000 0.000000
58  -17.141647 7.639411 -16.354797  1.570796 -0.000000 0.000000
59  -0.388980 3.895684 -4.125583  1.570796 -0.000000 0.000000
60  -0.004311 0.001230 -0.000371  0.006898 -0.005534 -0.284228
61  0.858610 10.209643 -3.484070  1.570796 -0.000000 0.000000
62  0.000000 0.000000 0.000000  -0.078728 -3.136056 0.284225
63  -2.177847 -2.242621 -0.706502  1.570796 -0.000000 0.000000
64  -2.262835 -10.749999 -1.708216  1.570796 -0.000000 0.000000
65  0.084987 -1.430222 1.369412  0.000000 -0.000000 0.000000
66  -0.078505 -0.217140 -0.284105  0.000000 -0.000000 0.000000
67  0.084987 0.706513 -3.480916  0.000000 -0.000000 0.000000
68  0.084988 -0.512603 7.072137  0.000000 -0.000000 0.000000
69  -0.109108 -2.470345 0.230350  0.000000 -0.000000 0.000000
70  0.664583 -0.478699 -0.445294  0.000000 -0.000000 0.000000
71  0.204886 -0.846612 -0.665133  0.000000 -0.000000 0.000000
72  -2.177852 -10.298120 -5.809215  1.570796 -0.000000 0.000000
73  -0.166807 3.093657 -0.213254  0.000000 -0.000000 0.000000
74  0.105926 2.911775 -0.304606  0.000000 -0.000000 0.000000
end
