version 1
nodes
0 "ValveBiped.Bip01_Spine4" -1
1 "ValveBiped.Bip01_L_Clavicle" 0
2 "ValveBiped.Bip01_L_UpperArm" 1
3 "ValveBiped.Bip01_L_Forearm" 2
4 "ValveBiped.Bip01_L_Hand" 3
5 "ValveBiped.Bip01_L_Finger4" 4
6 "ValveBiped.Bip01_L_Finger41" 5
7 "ValveBiped.Bip01_L_Finger42" 6
8 "ValveBiped.Bip01_L_Finger3" 4
9 "ValveBiped.Bip01_L_Finger31" 8
10 "ValveBiped.Bip01_L_Finger32" 9
11 "ValveBiped.Bip01_L_Finger2" 4
12 "ValveBiped.Bip01_L_Finger21" 11
13 "ValveBiped.Bip01_L_Finger22" 12
14 "ValveBiped.Bip01_L_Finger1" 4
15 "ValveBiped.Bip01_L_Finger11" 14
16 "ValveBiped.Bip01_L_Finger12" 15
17 "ValveBiped.Bip01_L_Finger0" 4
18 "ValveBiped.Bip01_L_Finger01" 17
19 "ValveBiped.Bip01_L_Finger02" 18
20 "ValveBiped.Bip01_L_Ulna" 3
21 "ValveBiped.Bip01_L_Wrist" 3
22 "rig_l_upperarm" 1
23 "rig_l_forearm" 22
24 "rig_d_l_forearm" 23
25 "rig_d_l_upperarm" 22
26 "ValveBiped.Bip01_R_Clavicle" 0
27 "ValveBiped.Bip01_R_UpperArm" 26
28 "ValveBiped.Bip01_R_Forearm" 27
29 "ValveBiped.Bip01_R_Hand" 28
30 "ValveBiped.Bip01_R_Finger4" 29
31 "ValveBiped.Bip01_R_Finger41" 30
32 "ValveBiped.Bip01_R_Finger42" 31
33 "ValveBiped.Bip01_R_Finger3" 29
34 "ValveBiped.Bip01_R_Finger31" 33
35 "ValveBiped.Bip01_R_Finger32" 34
36 "ValveBiped.Bip01_R_Finger2" 29
37 "ValveBiped.Bip01_R_Finger21" 36
38 "ValveBiped.Bip01_R_Finger22" 37
39 "ValveBiped.Bip01_R_Finger1" 29
40 "ValveBiped.Bip01_R_Finger11" 39
41 "ValveBiped.Bip01_R_Finger12" 40
42 "ValveBiped.Bip01_R_Finger0" 29
43 "ValveBiped.Bip01_R_Finger01" 42
44 "ValveBiped.Bip01_R_Finger02" 43
45 "ValveBiped.Bip01_R_Ulna" 28
46 "ValveBiped.Bip01_R_Wrist" 28
47 "rig_r_upperarm" 26
48 "rig_r_forearm" 47
49 "rig_d_r_forearm" 48
50 "rig_d_r_upperarm" 47
51 "rig_r_hand" -1
52 "rig_d_r_hand" 51
53 "rig_d_r_wrist" 52
54 "rig_l_hand" -1
55 "rig_d_l_hand" 54
56 "rig_d_l_wrist" 54
57 "rig_l_pole" -1
58 "rig_r_pole" -1
59 "rig_l_clavicle" -1
60 "rig_d_l_clavicle" 59
61 "rig_r_clavicle" -1
62 "rig_d_r_clavicle" 61
63 "Camera" -1
64 "body" -1
65 "trigger" 64
66 "bolt" 64
67 "chandle" 66
68 "barrel" 64
69 "magrel" 64
70 "boltrelease" 64
71 "mag" -1
72 "bullet1" 71
73 "bullet2" 71
74 "bullet3" 71
end
skeleton
time 0
0  0.000006 0.000000 0.000000  -1.570800 -1.391899 -1.570792
1  -4.005264 0.938027 -0.674797  -1.544956 -1.855077 -0.198630
2  6.027520 -0.000324 0.000194  -1.115746 -0.925528 -0.915578
3  11.692106 0.000646 -0.000740  -1.320269 -0.000032 -1.647165
4  11.479353 0.000478 -0.001090  1.202590 -0.677378 0.165280
5  3.859509 -0.142880 -1.192050  -0.808216 0.180883 -1.766569
6  1.312590 0.000011 0.000009  -0.134119 0.018600 -0.222836
7  0.729355 0.000053 0.000049  -0.010622 0.003162 -0.217259
8  3.942143 0.046272 -0.431512  -0.538224 0.377343 -1.371180
9  1.539111 0.000086 0.000006  -0.021913 0.026158 -0.368911
10  1.196332 0.000145 0.000031  -0.003283 0.005640 -0.955971
11  3.883505 -0.047270 0.431381  -0.260797 0.647751 -0.838050
12  1.719573 -0.000028 0.000016  0.020427 -0.004375 -0.655133
13  1.209181 0.000091 0.000012  -0.014836 -0.011036 -1.011941
14  4.085223 -0.082716 1.151041  -0.077716 0.789856 -0.318308
15  1.719449 -0.000010 0.000023  -0.021301 0.141559 -0.357422
16  1.099675 0.000049 0.000006  -0.073264 0.059305 -1.155833
17  0.686691 -1.660587 0.827510  -0.980456 -0.615764 -0.268880
18  1.789819 -0.000003 -0.000018  0.000998 -0.014468 0.721478
19  1.207014 -0.000011 -0.000043  0.001593 -0.000026 -0.111145
20  5.740638 0.000411 -0.000701  -0.120392 0.000003 0.000070
21  11.480879 0.000308 -0.000875  -0.052833 -0.119348 -0.003344
22  6.027524 -0.000330 0.000203  1.864796 -0.583196 1.723270
23  0.000002 11.692099 -0.000007  -1.116094 -0.559404 -0.862448
24  0.000003 0.000008 -0.000001  -0.451164 -0.000031 1.570739
25  -0.000000 -0.000012 -0.000001  0.868957 0.000002 1.570712
26  -3.662932 -4.026425 0.376266  1.473120 1.855075 -0.198639
27  6.027504 -0.000261 -0.000230  1.430913 0.595677 -0.276962
28  11.691991 0.000242 0.000857  0.970530 0.000073 -1.858029
29  11.479177 0.000019 0.001433  -1.632311 0.635486 0.142370
30  3.452863 -0.227594 1.051756  0.554395 -0.249329 -1.600262
31  1.312558 0.000023 -0.000001  -0.098769 0.190475 -0.745635
32  0.729344 0.000064 -0.000027  -0.040117 -0.002456 -0.806801
33  3.942045 0.050111 0.430998  0.413054 -0.141259 -1.490445
34  1.539093 0.000009 -0.000001  -0.021081 0.020361 -1.007904
35  1.196300 0.000074 -0.000005  -0.004516 -0.001755 -0.733348
36  3.883411 -0.050497 -0.431087  0.224817 -0.215783 -1.187556
37  1.719562 -0.000074 -0.000002  -0.039730 0.066729 -1.510271
38  1.209198 0.000034 0.000011  -0.006946 -0.002847 -0.369176
39  3.806437 -0.112148 -1.295331  -0.029507 -0.180960 0.129126
40  1.719416 -0.000101 -0.000036  -0.068765 0.170678 -1.424016
41  1.099674 0.000021 0.000008  -0.023599 0.002280 -0.616218
42  0.943593 -0.180488 -1.592590  1.077226 0.106495 -0.817774
43  1.789780 -0.000008 -0.000043  0.023056 0.021409 -0.019466
44  1.206996 -0.000005 0.000004  0.206835 0.095578 1.319988
45  5.740574 0.000054 0.000724  0.004321 -0.000014 0.000021
46  11.480781 0.000039 0.001036  -0.021396 0.104327 0.021603
47  6.027515 -0.000273 -0.000237  -0.794049 -0.665416 -1.286971
48  -0.000001 11.691974 -0.000005  -1.239913 0.685062 0.926522
49  0.000004 -0.000002 0.000000  -3.040130 -0.000041 1.570856
50  -0.000006 -0.000015 0.000006  2.272644 -0.000030 1.570865
51  -4.953862 -9.002222 -7.353677  3.026248 -0.171014 -1.363878
52  0.000000 -0.000000 -0.000001  0.008153 -0.000259 0.000009
53  0.000000 -0.000000 -0.000001  1.565115 0.043565 -0.106862
54  -0.304954 -15.027008 -6.105566  -0.930861 -0.107007 -1.989509
55  0.000000 0.000001 -0.000000  0.000000 -0.000000 -0.000002
56  0.000030 0.000030 0.000001  -1.571902 -0.044449 -0.106509
57  8.838223 -16.138317 -16.427357  1.570796 -0.000000 0.000000
58  -21.089123 6.899941 -12.297750  1.570796 -0.000000 0.000000
59  -0.670483 -0.210714 -4.109488  1.570796 -0.000000 0.000000
60  -0.004311 0.001230 -0.000371  0.006898 -0.005534 -0.284229
61  0.376268 4.613964 -2.887995  1.570796 -0.000000 0.000000
62  0.000000 0.000000 0.000000  -0.078727 -3.136056 0.284226
63  0.000000 0.000000 0.000000  1.570796 -0.000000 0.000000
64  -2.808394 -6.592330 -4.111191  1.564420 0.007764 0.002128
65  0.032837 -0.689314 7.041598  0.000000 -0.000000 -0.000000
66  0.000003 0.704706 -1.522920  0.000000 0.000000 -0.000000
67  -1.069343 0.255757 -1.438859  0.000000 -0.000000 -0.000000
68  0.000004 0.704705 21.133165  0.000000 -0.000000 -0.000000
69  0.675334 -0.627302 0.013842  0.000000 -0.000000 -0.000000
70  0.799380 0.098867 -2.766580  0.000000 -0.000000 -0.000000
71  -2.779884 -7.345072 -4.752341  1.564420 0.007764 0.002128
72  0.116050 0.879029 -1.115068  0.000000 -0.000000 -0.000000
73  0.104799 0.966620 -1.115068  0.000000 -0.000000 -0.000000
74  -0.158464 0.667166 -1.115067  0.000000 -0.000000 -0.000000
time 1
0  0.000006 0.000000 0.000000  -1.570800 -1.391899 -1.570792
1  -4.094216 1.037999 -0.616881  -1.544956 -1.855077 -0.198630
2  6.027520 -0.000325 0.000194  -1.147498 -0.910256 -0.920912
3  11.692105 0.000643 -0.000741  -1.311204 -0.000034 -1.659168
4  11.479265 0.000457 -0.001140  1.167543 -0.686726 0.153867
5  3.859511 -0.142880 -1.192049  -0.622600 0.302661 -1.172556
6  1.312590 0.000010 0.000008  -0.066752 0.011556 -0.156045
7  0.729355 0.000054 0.000050  -0.005172 0.002018 -0.055857
8  3.942145 0.046272 -0.431512  -0.293620 0.295983 -0.894784
9  1.539112 0.000084 0.000007  -0.009409 0.014386 -0.133356
10  1.196332 0.000146 0.000029  -0.001009 0.003199 -0.518586
11  3.883507 -0.047269 0.431382  -0.023694 0.343508 -0.490769
12  1.719574 -0.000027 0.000014  0.010397 -0.001089 -0.335880
13  1.209179 0.000092 0.000011  -0.008952 -0.001736 -0.439662
14  4.085225 -0.082715 1.151041  0.152128 0.320542 -0.203154
15  1.719449 -0.000011 0.000023  -0.003950 0.073662 -0.184464
16  1.099675 0.000049 0.000005  -0.026940 0.043009 -0.524790
17  0.686694 -1.660587 0.827511  -1.103310 -0.584786 -0.524796
18  1.789818 -0.000003 -0.000018  0.002108 -0.004496 0.324272
19  1.207015 -0.000012 -0.000044  0.000504 -0.000138 -0.065201
20  5.740636 0.000410 -0.000704  -0.133867 0.000003 0.000070
21  11.480861 0.000304 -0.000885  -0.059472 -0.121383 -0.008236
22  6.027524 -0.000330 0.000203  1.893989 -0.586781 1.676593
23  0.000000 11.692099 -0.000008  -1.123127 -0.566377 -0.866444
24  0.000003 0.000009 -0.000001  -0.442100 -0.000030 1.570739
25  -0.000001 -0.000011 -0.000000  0.868957 0.000002 1.570712
26  -3.767807 -4.070295 0.324970  1.473120 1.855075 -0.198639
27  6.027504 -0.000261 -0.000229  1.422297 0.617132 -0.295584
28  11.691991 0.000243 0.000856  0.951979 0.000069 -1.803675
29  11.479655 0.000154 0.001205  -1.902985 0.770139 0.149030
30  3.452863 -0.227595 1.051757  0.406972 -0.281773 -0.608989
31  1.312558 0.000023 -0.000000  -0.000002 -0.000045 -0.148961
32  0.729342 0.000065 -0.000026  -0.000028 -0.000012 0.046463
33  3.942044 0.050110 0.430999  0.121277 -0.118787 -0.520714
34  1.539093 0.000009 -0.000002  0.000007 -0.000010 0.042929
35  1.196301 0.000075 -0.000006  -0.000009 -0.000006 -0.140034
36  3.883411 -0.050498 -0.431086  -0.089865 -0.000690 -0.298026
37  1.719560 -0.000073 -0.000003  -0.002289 -0.007626 -0.075726
38  1.209197 0.000035 0.000010  -0.001276 -0.004274 0.074338
39  3.806436 -0.112148 -1.295330  -0.330197 0.136798 -0.257131
40  1.719413 -0.000101 -0.000034  -0.001915 -0.006300 -0.072277
41  1.099672 0.000021 0.000008  -0.001196 -0.004013 0.046405
42  0.943592 -0.180488 -1.592589  1.079795 0.646453 -0.910435
43  1.789779 -0.000006 -0.000042  0.011965 0.001552 -0.110981
44  1.206995 -0.000006 0.000003  0.005321 0.005317 0.007332
45  5.740572 0.000055 0.000724  -0.044454 -0.000014 0.000021
46  11.480876 0.000067 0.000991  -0.072219 0.126584 0.043345
47  6.027515 -0.000273 -0.000236  -0.821793 -0.659760 -1.283615
48  -0.000001 11.691974 -0.000005  -1.207824 0.652063 0.911319
49  0.000004 -0.000002 0.000000  -3.058681 -0.000041 1.570856
50  -0.000007 -0.000015 0.000005  2.272644 -0.000030 1.570865
51  -4.988689 -9.410301 -7.642509  2.767732 -0.164096 -1.530200
52  -0.000001 -0.000000 0.000000  0.008153 -0.000259 0.000009
53  -0.000001 -0.000000 0.000000  1.565115 0.043565 -0.106862
54  0.073494 -15.116828 -6.089920  -0.998852 -0.127374 -1.952862
55  0.000000 0.000000 0.000000  0.000000 -0.000000 -0.000002
56  0.000030 0.000029 0.000001  -1.571902 -0.044449 -0.106509
57  8.954042 -16.065968 -16.783283  1.570796 -0.000000 0.000000
58  -20.963398 6.812127 -12.541958  1.570796 -0.000000 0.000000
59  -0.612567 -0.293262 -4.214810  1.570796 -0.000000 0.000000
60  -0.004311 0.001230 -0.000371  0.006898 -0.005534 -0.284229
61  0.324972 4.675795 -2.983389  1.570796 -0.000000 0.000000
62  0.000000 0.000000 0.000000  -0.078727 -3.136056 0.284226
63  0.000000 0.000000 0.000000  1.568900 0.001131 -0.001158
64  -2.921561 -7.518825 -3.992667  1.564599 0.007546 0.046052
65  0.032837 -0.689314 7.041599  -0.000000 0.000000 -0.000000
66  0.000002 0.704706 -1.522918  -0.000000 0.000000 -0.000000
67  -1.069343 0.255757 -1.438859  -0.000000 0.000000 -0.000000
68  0.000003 0.704705 21.133167  -0.000000 0.000000 -0.000000
69  0.675333 -0.627302 0.013842  -0.000000 0.000000 -0.000000
70  0.799380 0.098867 -2.766579  -0.000000 0.000000 -0.000000
71  -2.859893 -8.269467 -4.633946  1.564599 0.007546 0.046052
72  0.116050 0.879029 -1.115069  -0.000000 0.000000 -0.000000
73  0.104800 0.966620 -1.115067  -0.000000 0.000000 -0.000000
74  -0.158464 0.667166 -1.115067  -0.000000 0.000000 -0.000000
time 2
0  0.000006 0.000000 0.000000  -1.570800 -1.391899 -1.570792
1  -4.361925 1.338873 -0.442578  -1.544956 -1.855077 -0.198630
2  6.027520 -0.000325 0.000194  -1.176466 -0.860605 -0.928932
3  11.692105 0.000645 -0.000740  -1.283543 -0.000035 -1.680349
4  11.479126 0.000405 -0.001219  1.326597 -0.674504 0.132233
5  3.859508 -0.142879 -1.192050  -0.394539 0.299157 -0.554440
6  1.312590 0.000010 0.000007  -0.000009 0.000051 -0.089883
7  0.729354 0.000054 0.000049  0.000023 0.000013 0.105537
8  3.942143 0.046274 -0.431512  -0.117741 0.120704 -0.462798
9  1.539110 0.000083 0.000005  0.000001 0.000022 0.102014
10  1.196332 0.000145 0.000030  0.000017 0.000014 -0.080915
11  3.883504 -0.047269 0.431381  0.088183 -0.008874 -0.239400
12  1.719571 -0.000027 0.000015  0.001905 0.005179 -0.016672
13  1.209179 0.000092 0.000013  0.001063 0.002903 0.133420
14  4.085221 -0.082715 1.151040  0.320600 -0.159664 -0.200164
15  1.719449 -0.000010 0.000022  0.001422 0.003814 -0.013163
16  1.099674 0.000048 0.000005  0.000887 0.002421 0.105475
17  0.686692 -1.660586 0.827511  -1.226120 -0.596311 -0.787079
18  1.789820 -0.000003 -0.000017  -0.000740 0.005137 -0.073161
19  1.207015 -0.000011 -0.000043  -0.000595 -0.000176 0.013480
20  5.740638 0.000410 -0.000703  -0.101551 0.000003 0.000071
21  11.480834 0.000292 -0.000900  -0.031805 -0.116474 -0.001239
22  6.027525 -0.000330 0.000203  1.945245 -0.618698 1.617072
23  0.000001 11.692097 -0.000006  -1.135537 -0.578740 -0.873394
24  0.000002 0.000010 -0.000000  -0.414439 -0.000030 1.570738
25  -0.000001 -0.000012 -0.000001  0.868957 0.000002 1.570712
26  -4.083437 -4.202324 0.170589  1.473120 1.855075 -0.198639
27  6.027503 -0.000260 -0.000234  1.261014 0.394710 -0.378840
28  11.691992 0.000242 0.000856  0.895932 0.000082 -1.966896
29  11.478217 -0.000374 0.001787  -1.928341 0.821929 0.081946
30  3.452864 -0.227594 1.051755  0.406972 -0.281773 -0.608989
31  1.312557 0.000024 0.000002  -0.000002 -0.000045 -0.148961
32  0.729343 0.000063 -0.000026  -0.000028 -0.000012 0.046463
33  3.942046 0.050110 0.430997  0.121277 -0.118787 -0.520714
34  1.539093 0.000008 -0.000002  0.000007 -0.000010 0.042929
35  1.196300 0.000075 -0.000003  -0.000009 -0.000006 -0.140034
36  3.883412 -0.050498 -0.431087  -0.089865 -0.000690 -0.298025
37  1.719561 -0.000072 -0.000002  -0.002289 -0.007626 -0.075726
38  1.209199 0.000035 0.000011  -0.001276 -0.004274 0.074338
39  3.806436 -0.112148 -1.295331  -0.330197 0.136798 -0.257131
40  1.719415 -0.000102 -0.000035  -0.001915 -0.006300 -0.072277
41  1.099675 0.000022 0.000009  -0.001196 -0.004013 0.046405
42  0.943594 -0.180488 -1.592590  1.079795 0.646453 -0.910435
43  1.789780 -0.000009 -0.000042  0.011965 0.001552 -0.110981
44  1.206996 -0.000004 0.000004  0.005321 0.005317 0.007332
45  5.740571 0.000056 0.000724  -0.055219 -0.000014 0.000021
46  11.480587 -0.000037 0.001106  -0.072974 0.138322 0.034003
47  6.027515 -0.000273 -0.000237  -0.665660 -0.898740 -1.398717
48  -0.000001 11.691973 -0.000007  -1.305014 0.752226 0.953954
49  0.000003 -0.000002 -0.000001  -3.114727 -0.000041 1.570856
50  -0.000006 -0.000016 0.000005  2.272644 -0.000030 1.570865
51  -5.528696 -6.925327 -10.128077  2.799579 -0.085612 -1.555131
52  -0.000000 -0.000000 0.000001  0.008153 -0.000259 0.000009
53  0.000000 0.000000 -0.000001  1.565115 0.043565 -0.106862
54  0.714886 -15.319964 -6.722813  -0.876139 -0.149776 -1.912135
55  -0.000000 0.000001 0.000001  0.000000 -0.000000 -0.000002
56  0.000030 0.000029 0.000001  -1.571901 -0.044449 -0.106509
57  9.302610 -15.848229 -17.854477  1.570796 -0.000000 0.000000
58  -20.585022 6.547843 -13.276920  1.570796 -0.000000 0.000000
59  -0.438264 -0.541697 -4.531785  1.570796 -0.000000 0.000000
60  -0.004311 0.001230 -0.000371  0.006898 -0.005534 -0.284229
61  0.170591 4.861882 -3.270488  1.570796 -0.000000 0.000000
62  0.000000 0.000000 0.000000  -0.078727 -3.136056 0.284226
63  0.000000 0.000000 0.000000  1.565375 0.003226 -0.003314
64  -3.228729 -10.033596 -3.670961  1.565084 0.006956 0.165274
65  0.032837 -0.689314 7.041600  0.000000 -0.000000 0.000000
66  0.000003 0.704706 -1.522920  -0.000000 -0.000000 -0.000000
67  -1.069344 0.255757 -1.438860  -0.000000 -0.000000 0.000000
68  0.000004 0.704704 21.133165  0.000000 -0.000000 0.000000
69  0.675334 -0.627303 0.013842  0.000000 -0.000000 0.000000
70  0.799380 0.098866 -2.766580  0.000000 -0.000000 0.000000
71  -3.077898 -10.771208 -4.312589  1.565084 0.006956 0.165274
72  0.116050 0.879028 -1.115069  0.000000 -0.000000 0.000000
73  0.104800 0.966619 -1.115069  0.000000 -0.000000 0.000000
74  -0.158464 0.667165 -1.115069  0.000000 -0.000000 0.000000
time 3
0  0.000006 0.000000 0.000000  -1.570800 -1.391899 -1.570792
1  -4.797203 1.828077 -0.159172  -1.544956 -1.855077 -0.198630
2  6.027519 -0.000323 0.000195  -1.266691 -0.713159 -0.911783
3  11.692108 0.000645 -0.000740  -1.237320 -0.000035 -1.694722
4  11.479027 0.000332 -0.001282  1.838440 -0.543270 0.004812
5  3.859508 -0.142879 -1.192050  -0.399397 0.292475 -0.571101
6  1.312592 0.000012 0.000008  -0.000010 0.000051 -0.105683
7  0.729357 0.000054 0.000049  0.000023 0.000014 0.089737
8  3.942142 0.046273 -0.431513  -0.119805 0.118656 -0.480081
9  1.539111 0.000081 0.000004  0.000000 0.000022 0.086214
10  1.196332 0.000144 0.000029  0.000017 0.000014 -0.098196
11  3.883504 -0.047269 0.431381  0.088322 -0.007350 -0.256615
12  1.719572 -0.000027 0.000015  0.001823 0.005209 -0.032473
13  1.209179 0.000093 0.000011  0.001013 0.002921 0.116139
14  4.085221 -0.082715 1.151040  0.323194 -0.154196 -0.216761
15  1.719449 -0.000011 0.000022  0.001362 0.003836 -0.028963
16  1.099673 0.000048 0.000006  0.000845 0.002436 0.088194
17  0.686691 -1.660587 0.827510  -1.220182 -0.621670 -0.796733
18  1.789820 -0.000002 -0.000020  -0.000675 0.004893 -0.058568
19  1.207015 -0.000012 -0.000043  -0.000576 -0.000133 0.074107
20  5.740636 0.000411 -0.000701  0.013907 0.000003 0.000071
21  11.480815 0.000274 -0.000912  0.056786 -0.085561 0.005802
22  6.027525 -0.000329 0.000203  2.124969 -0.693037 1.460268
23  0.000001 11.692100 -0.000007  -1.143960 -0.587170 -0.878037
24  0.000001 0.000010 -0.000001  -0.368213 -0.000031 1.570739
25  0.000000 -0.000011 -0.000001  0.868957 0.000002 1.570712
26  -4.596634 -4.416997 -0.080425  1.473120 1.855075 -0.198639
27  6.027503 -0.000260 -0.000238  1.110235 0.222422 -0.419355
28  11.691991 0.000245 0.000856  0.804286 0.000080 -1.940229
29  11.478449 -0.000465 0.001671  -1.820024 0.767737 0.002511
30  3.452864 -0.227594 1.051756  0.406972 -0.281773 -0.608989
31  1.312557 0.000023 -0.000000  -0.000002 -0.000045 -0.148961
32  0.729344 0.000064 -0.000025  -0.000028 -0.000012 0.046463
33  3.942044 0.050110 0.430998  0.121277 -0.118787 -0.520714
34  1.539092 0.000009 -0.000002  0.000007 -0.000010 0.042929
35  1.196301 0.000074 -0.000005  -0.000009 -0.000006 -0.140034
36  3.883413 -0.050497 -0.431086  -0.089865 -0.000690 -0.298025
37  1.719562 -0.000072 -0.000003  -0.002289 -0.007626 -0.075726
38  1.209197 0.000035 0.000010  -0.001276 -0.004274 0.074338
39  3.806437 -0.112148 -1.295332  -0.330197 0.136798 -0.257131
40  1.719415 -0.000102 -0.000033  -0.001915 -0.006300 -0.072277
41  1.099673 0.000022 0.000008  -0.001196 -0.004012 0.046405
42  0.943594 -0.180488 -1.592589  1.079795 0.646453 -0.910435
43  1.789779 -0.000007 -0.000043  0.011965 0.001552 -0.110981
44  1.206997 -0.000005 0.000003  0.005321 0.005317 0.007332
45  5.740571 0.000055 0.000723  -0.053848 -0.000014 0.000021
46  11.480633 -0.000056 0.001082  -0.049561 0.130513 0.009363
47  6.027514 -0.000272 -0.000237  -0.517600 -1.108811 -1.518837
48  -0.000000 11.691973 -0.000006  -1.288934 0.735652 0.947628
49  0.000002 -0.000001 0.000000  3.076811 -0.000041 1.570856
50  -0.000007 -0.000016 0.000005  2.272644 -0.000030 1.570865
51  -6.494349 -5.356961 -13.244999  2.875009 0.026082 -1.567148
52  0.000000 -0.000000 0.000000  0.008153 -0.000259 0.000009
53  0.000000 0.000000 -0.000000  1.565115 0.043565 -0.106862
54  2.584629 -15.886712 -8.674479  -0.474635 -0.246837 -1.808271
55  -0.000000 0.000001 -0.000000  0.000000 -0.000000 -0.000002
56  0.000031 0.000030 0.000001  -1.571902 -0.044449 -0.106509
57  9.869361 -15.494195 -19.596178  1.570796 -0.000000 0.000000
58  -19.969803 6.118132 -14.471927  1.570796 -0.000000 0.000000
59  -0.154858 -0.945638 -5.047168  1.570796 -0.000000 0.000000
60  -0.004311 0.001230 -0.000371  0.006898 -0.005534 -0.284229
61  -0.080424 5.164449 -3.737295  1.570796 -0.000000 0.000000
62  0.000000 0.000000 0.000000  -0.078727 -3.136056 0.284226
63  0.000000 0.000000 0.000000  1.563475 0.004351 -0.004479
64  -3.681397 -13.739574 -3.196867  1.565798 0.006087 0.340969
65  0.032837 -0.689314 7.041598  0.000000 -0.000000 -0.000000
66  0.000003 0.704706 -1.522919  0.000000 -0.000000 -0.000000
67  -1.069343 0.255757 -1.438858  -0.000000 -0.000000 -0.000000
68  0.000004 0.704705 21.133165  0.000000 -0.000000 -0.000000
69  0.675334 -0.627302 0.013842  0.000000 -0.000000 -0.000000
70  0.799381 0.098867 -2.766580  0.000000 -0.000000 -0.000000
71  -3.403590 -14.438848 -3.839008  1.565798 0.006087 0.340969
72  0.116050 0.879028 -1.115068  0.000000 -0.000000 -0.000000
73  0.104800 0.966620 -1.115068  0.000000 -0.000000 -0.000000
74  -0.158464 0.667165 -1.115067  0.000000 -0.000000 -0.000000
time 4
0  0.000006 0.000000 0.000000  -1.570800 -1.391899 -1.570792
1  -5.366526 2.467932 0.211510  -1.544956 -1.855077 -0.198630
2  6.027518 -0.000323 0.000197  -1.380367 -0.528803 -0.921120
3  11.692108 0.000644 -0.000742  -1.174479 -0.000033 -1.653241
4  11.479307 0.000302 -0.001172  2.502998 -0.211345 -0.119488
5  3.859506 -0.142881 -1.192047  -0.412031 0.273824 -0.616315
6  1.312589 0.000013 0.000008  -0.000012 0.000051 -0.152536
7  0.729353 0.000052 0.000050  0.000022 0.000015 0.042884
8  3.942142 0.046272 -0.431511  -0.125259 0.112880 -0.527292
9  1.539110 0.000083 0.000005  -0.000001 0.000022 0.039361
10  1.196333 0.000146 0.000029  0.000016 0.000015 -0.145446
11  3.883504 -0.047270 0.431381  0.088570 -0.003176 -0.303680
12  1.719572 -0.000027 0.000015  0.001577 0.005288 -0.079326
13  1.209177 0.000092 0.000012  0.000874 0.002966 0.068889
14  4.085221 -0.082717 1.151042  0.329804 -0.139039 -0.262000
15  1.719451 -0.000011 0.000021  0.001181 0.003895 -0.075816
16  1.099675 0.000049 0.000006  0.000729 0.002474 0.040944
17  0.686691 -1.660588 0.827511  -1.216733 -0.643006 -0.801728
18  1.789819 -0.000002 -0.000018  -0.000497 0.004211 -0.017890
19  1.207016 -0.000012 -0.000043  -0.000500 -0.000088 0.142194
20  5.740636 0.000410 -0.000703  0.175200 0.000003 0.000071
21  11.480873 0.000265 -0.000895  0.186941 -0.025788 -0.004535
22  6.027524 -0.000331 0.000203  2.391996 -0.737185 1.208734
23  0.000000 11.692101 -0.000008  -1.119653 -0.562931 -0.864476
24  0.000004 0.000009 -0.000002  -0.305376 -0.000031 1.570739
25  0.000000 -0.000010 -0.000001  0.868957 0.000002 1.570712
26  -5.267871 -4.697779 -0.408739  1.473120 1.855075 -0.198639
27  6.027502 -0.000261 -0.000239  0.995354 0.137711 -0.446923
28  11.691989 0.000243 0.000854  0.684013 0.000069 -1.797829
29  11.479702 -0.000148 0.001184  -1.582693 0.680197 -0.017700
30  3.452864 -0.227595 1.051758  0.406972 -0.281773 -0.608989
31  1.312557 0.000023 -0.000002  -0.000002 -0.000045 -0.148961
32  0.729345 0.000064 -0.000025  -0.000028 -0.000012 0.046463
33  3.942045 0.050109 0.430999  0.121277 -0.118787 -0.520714
34  1.539094 0.000008 0.000000  0.000007 -0.000010 0.042929
35  1.196299 0.000074 -0.000005  -0.000009 -0.000006 -0.140034
36  3.883413 -0.050498 -0.431085  -0.089865 -0.000690 -0.298025
37  1.719561 -0.000071 -0.000006  -0.002289 -0.007626 -0.075726
38  1.209196 0.000034 0.000012  -0.001276 -0.004274 0.074338
39  3.806437 -0.112149 -1.295330  -0.330197 0.136798 -0.257131
40  1.719415 -0.000102 -0.000034  -0.001915 -0.006300 -0.072277
41  1.099672 0.000021 0.000008  -0.001196 -0.004013 0.046405
42  0.943594 -0.180488 -1.592590  1.079795 0.646453 -0.910435
43  1.789779 -0.000008 -0.000042  0.011965 0.001552 -0.110981
44  1.206997 -0.000004 0.000003  0.005321 0.005317 0.007332
45  5.740572 0.000055 0.000726  -0.030536 -0.000014 0.000021
46  11.480885 0.000006 0.000986  -0.005552 0.114571 -0.012403
47  6.027514 -0.000274 -0.000236  -0.446578 -1.247465 -1.591568
48  -0.000002 11.691974 -0.000005  -1.204384 0.648537 0.909627
49  0.000004 -0.000000 0.000001  2.956538 -0.000041 1.570856
50  -0.000006 -0.000015 0.000005  2.272644 -0.000030 1.570865
51  -7.608818 -4.314343 -16.487852  2.969848 0.149857 -1.563488
52  0.000001 -0.000000 -0.000000  0.008153 -0.000259 0.000009
53  -0.000000 -0.000001 -0.000001  1.565115 0.043565 -0.106862
54  5.154860 -16.599852 -11.634077  0.146549 -0.423041 -1.753495
55  -0.000002 -0.000000 0.000000  0.000000 -0.000000 -0.000002
56  0.000028 0.000029 0.000001  -1.571901 -0.044449 -0.106509
57  10.610645 -15.031135 -21.874239  1.570796 -0.000000 0.000000
58  -19.165123 5.556089 -16.034939  1.570796 -0.000000 0.000000
59  0.215825 -1.473974 -5.721264  1.570796 -0.000000 0.000000
60  -0.004311 0.001230 -0.000371  0.006898 -0.005534 -0.284229
61  -0.408740 5.560192 -4.347856  1.570796 -0.000000 0.000000
62  0.000000 0.000000 0.000000  -0.078727 -3.136056 0.284226
63  0.000000 0.000000 0.000000  1.563882 0.004111 -0.004230
64  -4.231065 -18.239693 -2.621181  1.566665 0.005031 0.554310
65  0.032836 -0.689314 7.041599  0.000000 -0.000000 0.000000
66  0.000002 0.704706 -1.522920  0.000000 -0.000000 -0.000000
67  -1.069343 0.255757 -1.438861  0.000000 -0.000000 0.000000
68  0.000004 0.704705 21.133162  0.000000 -0.000000 0.000000
69  0.675332 -0.627302 0.013844  0.000000 -0.000000 0.000000
70  0.799379 0.098867 -2.766579  0.000000 -0.000000 0.000000
71  -3.811221 -18.863466 -3.263945  1.566665 0.005031 0.554310
72  0.116050 0.879028 -1.115068  0.000000 -0.000000 0.000000
73  0.104800 0.966619 -1.115068  0.000000 -0.000000 0.000000
74  -0.158464 0.667165 -1.115067  0.000000 -0.000000 0.000000
time 5
0  0.000006 0.000000 0.000000  -1.570800 -1.391899 -1.570792
1  -6.011478 3.192785 0.631433  -1.544956 -1.855077 -0.198630
2  6.027518 -0.000322 0.000198  -1.482168 -0.387830 -0.956193
3  11.692108 0.000644 -0.000740  -1.099978 -0.000026 -1.561447
4  11.479972 0.000386 -0.000854  2.956325 0.138530 -0.140538
5  3.859508 -0.142879 -1.192050  -0.429258 0.244773 -0.683473
6  1.312590 0.000013 0.000007  -0.000016 0.000050 -0.224142
7  0.729353 0.000052 0.000051  0.000021 0.000016 -0.028722
8  3.942142 0.046273 -0.431512  -0.132930 0.103722 -0.598230
9  1.539113 0.000083 0.000007  -0.000002 0.000022 -0.032245
10  1.196332 0.000146 0.000026  0.000015 0.000016 -0.216560
11  3.883503 -0.047268 0.431382  0.088572 0.003117 -0.374515
12  1.719574 -0.000027 0.000012  0.001195 0.005388 -0.150934
13  1.209181 0.000091 0.000008  0.000661 0.003020 -0.002225
14  4.085222 -0.082716 1.151041  0.338412 -0.115710 -0.329728
15  1.719449 -0.000012 0.000021  0.000899 0.003970 -0.147423
16  1.099673 0.000049 0.000005  0.000551 0.002519 -0.030170
17  0.686693 -1.660586 0.827510  -1.216015 -0.659301 -0.801978
18  1.789820 -0.000002 -0.000018  -0.000275 0.003169 0.043524
19  1.207015 -0.000013 -0.000044  -0.000377 -0.000048 0.212304
20  5.740637 0.000410 -0.000704  0.284766 0.000003 0.000071
21  11.481007 0.000280 -0.000836  0.283023 0.032446 -0.031967
22  6.027525 -0.000330 0.000203  2.615561 -0.718071 0.979431
23  0.000001 11.692097 -0.000007  -1.065750 -0.510323 -0.832761
24  0.000004 0.000009 -0.000001  -0.230876 -0.000030 1.570739
25  -0.000001 -0.000013 -0.000001  0.868957 0.000002 1.570712
26  -6.028274 -5.015859 -0.780666  1.473120 1.855075 -0.198639
27  6.027503 -0.000261 -0.000241  0.917935 0.123319 -0.489464
28  11.691990 0.000243 0.000857  0.548218 0.000053 -1.593334
29  11.479576 -0.000312 0.001153  -1.294752 0.575514 -0.009683
30  3.452865 -0.227593 1.051756  0.406972 -0.281773 -0.608989
31  1.312558 0.000024 -0.000001  -0.000002 -0.000045 -0.148961
32  0.729343 0.000067 -0.000026  -0.000028 -0.000012 0.046463
33  3.942046 0.050110 0.430998  0.121277 -0.118787 -0.520714
34  1.539094 0.000008 -0.000002  0.000007 -0.000010 0.042929
35  1.196301 0.000075 -0.000005  -0.000009 -0.000006 -0.140034
36  3.883412 -0.050497 -0.431089  -0.089865 -0.000690 -0.298025
37  1.719563 -0.000072 -0.000002  -0.002289 -0.007626 -0.075726
38  1.209199 0.000035 0.000011  -0.001276 -0.004274 0.074338
39  3.806437 -0.112148 -1.295331  -0.330197 0.136798 -0.257131
40  1.719414 -0.000101 -0.000036  -0.001915 -0.006300 -0.072277
41  1.099674 0.000022 0.000005  -0.001196 -0.004013 0.046405
42  0.943594 -0.180488 -1.592589  1.079795 0.646452 -0.910435
43  1.789780 -0.000009 -0.000043  0.011965 0.001552 -0.110981
44  1.206996 -0.000006 0.000004  0.005321 0.005317 0.007332
45  5.740572 0.000055 0.000726  0.012105 -0.000014 0.000021
46  11.480859 -0.000026 0.000981  0.048529 0.094757 -0.027900
47  6.027514 -0.000274 -0.000237  -0.523949 -1.322509 -1.549741
48  -0.000000 11.691972 -0.000008  -1.084446 0.528408 0.844085
49  0.000003 -0.000001 0.000000  2.820745 -0.000041 1.570856
50  -0.000007 -0.000015 0.000004  2.272644 -0.000030 1.570865
51  -8.736015 -3.615006 -19.603704  -0.067503 2.869203 1.597957
52  0.000000 -0.000001 -0.000000  0.008153 -0.000259 0.000009
53  -0.000000 -0.000000 -0.000001  1.565115 0.043565 -0.106862
54  7.486511 -17.126926 -14.822093  0.683947 -0.516719 -1.808442
55  0.000001 0.000000 0.000002  0.000000 -0.000000 -0.000002
56  0.000032 0.000029 0.000002  -1.571902 -0.044449 -0.106509
57  11.450398 -14.506562 -24.454910  1.570796 -0.000000 0.000000
58  -18.253555 4.919387 -17.805576  1.570796 -0.000000 0.000000
59  0.635747 -2.072492 -6.484907  1.570796 -0.000000 0.000000
60  -0.004311 0.001230 -0.000371  0.006898 -0.005534 -0.284229
61  -0.780668 6.008505 -5.039522  1.570796 -0.000000 0.000000
62  0.000000 0.000000 0.000000  -0.078727 -3.136056 0.284226
63  0.000000 0.000000 0.000000  1.564928 0.003491 -0.003588
64  -4.829234 -23.136875 -1.994700  1.567608 0.003882 0.786474
65  0.032839 -0.689314 7.041600  -0.000000 -0.000000 -0.000000
66  0.000003 0.704706 -1.522918  -0.000000 -0.000000 -0.000000
67  -1.069342 0.255757 -1.438859  -0.000000 -0.000000 -0.000000
68  0.000005 0.704705 21.133169  -0.000000 -0.000000 -0.000000
69  0.675336 -0.627302 0.013843  -0.000000 -0.000000 -0.000000
70  0.799382 0.098867 -2.766580  -0.000000 -0.000000 -0.000000
71  -4.277044 -23.646362 -2.638138  1.567608 0.003882 0.786474
72  0.116049 0.879028 -1.115068  -0.000000 -0.000000 -0.000000
73  0.104798 0.966620 -1.115066  -0.000000 -0.000000 -0.000000
74  -0.158465 0.667165 -1.115066  -0.000000 -0.000000 -0.000000
time 6
0  0.000006 0.000000 0.000000  -1.570800 -1.391899 -1.570792
1  -6.656430 3.917637 1.051355  -1.544956 -1.855077 -0.198630
2  6.027517 -0.000321 0.000200  -1.525646 -0.292377 -0.977856
3  11.692108 0.000644 -0.000739  -1.021912 -0.000023 -1.488430
4  11.480560 0.000512 -0.000570  3.099361 0.293594 -0.131431
5  3.859509 -0.142881 -1.192048  -0.446179 0.210600 -0.758389
6  1.312590 0.000011 0.000005  -0.000020 0.000048 -0.305479
7  0.729352 0.000053 0.000050  0.000020 0.000018 -0.110059
8  3.942142 0.046272 -0.431510  -0.140800 0.092721 -0.678445
9  1.539111 0.000083 0.000003  -0.000004 0.000022 -0.113581
10  1.196333 0.000144 0.000029  0.000014 0.000017 -0.297143
11  3.883507 -0.047271 0.431383  0.088036 0.010227 -0.454786
12  1.719572 -0.000028 0.000014  0.000753 0.005467 -0.232271
13  1.209177 0.000092 0.000013  0.000416 0.003064 -0.082808
14  4.085223 -0.082715 1.151043  0.346199 -0.088649 -0.406032
15  1.719448 -0.000011 0.000019  0.000574 0.004030 -0.228760
16  1.099676 0.000048 0.000003  0.000347 0.002555 -0.110753
17  0.686691 -1.660587 0.827512  -1.217490 -0.670124 -0.798654
18  1.789819 -0.000006 -0.000021  -0.000099 0.001974 0.113134
19  1.207016 -0.000013 -0.000045  -0.000235 -0.000023 0.275920
20  5.740636 0.000412 -0.000704  0.316557 0.000003 0.000071
21  11.481123 0.000307 -0.000782  0.312016 0.058766 -0.048800
22  6.027524 -0.000330 0.000203  2.752365 -0.708405 0.853656
23  0.000004 11.692098 -0.000007  -1.022611 -0.469575 -0.805918
24  0.000003 0.000009 -0.000001  -0.152814 -0.000031 1.570739
25  -0.000000 -0.000011 -0.000001  0.868957 0.000002 1.570712
26  -6.788676 -5.333938 -1.152593  1.473120 1.855075 -0.198639
27  6.027505 -0.000260 -0.000240  0.867738 0.150573 -0.550654
28  11.691990 0.000243 0.000856  0.414088 0.000036 -1.358362
29  11.479990 -0.000175 0.000973  -1.023410 0.460616 -0.022455
30  3.452864 -0.227594 1.051755  0.406972 -0.281773 -0.608989
31  1.312558 0.000021 -0.000000  -0.000002 -0.000045 -0.148961
32  0.729343 0.000068 -0.000026  -0.000028 -0.000012 0.046463
33  3.942046 0.050110 0.431000  0.121277 -0.118787 -0.520714
34  1.539093 0.000011 -0.000003  0.000007 -0.000010 0.042929
35  1.196300 0.000075 -0.000004  -0.000009 -0.000006 -0.140034
36  3.883414 -0.050498 -0.431085  -0.089865 -0.000690 -0.298025
37  1.719563 -0.000072 -0.000003  -0.002289 -0.007626 -0.075726
38  1.209196 0.000035 0.000010  -0.001276 -0.004274 0.074338
39  3.806437 -0.112149 -1.295330  -0.330197 0.136798 -0.257131
40  1.719413 -0.000102 -0.000033  -0.001915 -0.006300 -0.072277
41  1.099674 0.000022 0.000008  -0.001196 -0.004013 0.046405
42  0.943595 -0.180488 -1.592590  1.079795 0.646453 -0.910435
43  1.789781 -0.000008 -0.000042  0.011965 0.001552 -0.110981
44  1.206995 -0.000005 0.000002  0.005321 0.005317 0.007332
45  5.740572 0.000056 0.000725  0.068650 -0.000014 0.000021
46  11.480944 0.000001 0.000945  0.102442 0.072364 -0.041113
47  6.027516 -0.000274 -0.000237  -0.742913 -1.347273 -1.391114
48  -0.000002 11.691971 -0.000006  -0.944767 0.399655 0.754701
49  0.000003 -0.000001 0.000000  2.686621 -0.000041 1.570856
50  -0.000007 -0.000015 0.000005  2.272644 -0.000030 1.570865
51  -9.790236 -3.154894 -22.428272  0.039360 2.758194 1.631813
52  -0.000001 0.000000 0.000000  0.008153 -0.000259 0.000009
53  0.000001 0.000000 -0.000001  1.565115 0.043565 -0.106862
54  8.913805 -17.262558 -17.558533  0.903905 -0.464152 -1.845428
55  0.000000 -0.000001 0.000002  0.000000 -0.000000 -0.000002
56  0.000031 0.000027 0.000004  -1.571902 -0.044449 -0.106509
57  12.290152 -13.981990 -27.035585  1.570796 -0.000000 0.000000
58  -17.341984 4.282685 -19.576214  1.570796 -0.000000 0.000000
59  1.055670 -2.671010 -7.248549  1.570796 -0.000000 0.000000
60  -0.004311 0.001230 -0.000371  0.006898 -0.005534 -0.284229
61  -1.152596 6.456817 -5.731188  1.570796 -0.000000 0.000000
62  0.000000 0.000000 0.000000  -0.078727 -3.136056 0.284226
63  0.000000 0.000000 0.000000  1.566359 0.002643 -0.002712
64  -5.427402 -28.034061 -1.368218  1.568552 0.002733 1.018636
65  0.032834 -0.689314 7.041600  0.000000 -0.000000 0.000000
66  0.000001 0.704706 -1.522919  0.000000 -0.000000 -0.000000
67  -1.069347 0.255757 -1.438858  0.000000 -0.000000 0.000000
68  0.000004 0.704705 21.133169  0.000000 -0.000000 0.000000
69  0.675331 -0.627302 0.013843  0.000000 -0.000000 0.000000
70  0.799379 0.098866 -2.766579  0.000000 -0.000000 0.000000
71  -4.772933 -28.401886 -2.012330  1.568552 0.002733 1.018636
72  0.116048 0.879028 -1.115069  0.000000 -0.000000 0.000000
73  0.104797 0.966620 -1.115066  0.000000 -0.000000 0.000000
74  -0.158465 0.667165 -1.115067  0.000000 -0.000000 0.000000
time 7
0  0.000006 0.000000 0.000000  -1.570800 -1.391899 -1.570792
1  -7.225753 4.557492 1.422038  -1.544956 -1.855077 -0.198630
2  6.027518 -0.000321 0.000200  -1.442608 -0.194836 -0.957743
3  11.692112 0.000643 -0.000739  -0.950033 -0.000017 -1.409143
4  11.479810 0.000247 -0.000910  2.984499 0.202783 -0.160497
5  3.859508 -0.142881 -1.192052  -0.458822 0.179490 -0.823593
6  1.312591 0.000011 0.000007  -0.000023 0.000047 -0.377085
7  0.729354 0.000052 0.000052  0.000018 0.000020 -0.181665
8  3.942142 0.046272 -0.431514  -0.146987 0.082517 -0.749109
9  1.539110 0.000087 0.000005  -0.000006 0.000021 -0.185188
10  1.196334 0.000147 0.000032  0.000013 0.000018 -0.368270
11  3.883503 -0.047269 0.431379  0.087091 0.016450 -0.525647
12  1.719571 -0.000027 0.000014  0.000360 0.005507 -0.303879
13  1.209177 0.000093 0.000012  0.000197 0.003085 -0.153936
14  4.085221 -0.082716 1.151039  0.351325 -0.064333 -0.473072
15  1.719450 -0.000014 0.000023  0.000284 0.004061 -0.300367
16  1.099675 0.000047 0.000006  0.000164 0.002573 -0.181881
17  0.686693 -1.660586 0.827508  -1.219902 -0.676094 -0.794002
18  1.789819 -0.000003 -0.000017  -0.000011 0.000912 0.174557
19  1.207016 -0.000014 -0.000043  -0.000109 -0.000011 0.324578
20  5.740636 0.000411 -0.000702  0.290604 0.000003 0.000071
21  11.480972 0.000252 -0.000848  0.289583 0.041381 -0.042774
22  6.027525 -0.000330 0.000202  2.857195 -0.809589 0.821562
23  0.000004 11.692100 -0.000008  -0.975361 -0.426535 -0.775190
24  0.000004 0.000008 -0.000002  -0.080938 -0.000031 1.570739
25  0.000000 -0.000012 -0.000001  0.868957 0.000002 1.570712
26  -7.459915 -5.614720 -1.480908  1.473120 1.855075 -0.198639
27  6.027504 -0.000259 -0.000241  0.832708 0.200851 -0.625203
28  11.691992 0.000244 0.000857  0.297983 0.000021 -1.109814
29  11.480611 0.000074 0.000834  -0.801382 0.353502 -0.077373
30  3.452863 -0.227593 1.051754  0.406972 -0.281772 -0.608989
31  1.312559 0.000026 -0.000001  -0.000002 -0.000045 -0.148961
32  0.729345 0.000064 -0.000026  -0.000028 -0.000012 0.046463
33  3.942044 0.050111 0.430996  0.121277 -0.118787 -0.520714
34  1.539095 0.000009 -0.000000  0.000007 -0.000010 0.042929
35  1.196299 0.000077 -0.000003  -0.000009 -0.000006 -0.140034
36  3.883411 -0.050497 -0.431088  -0.089865 -0.000690 -0.298025
37  1.719562 -0.000072 -0.000003  -0.002289 -0.007626 -0.075726
38  1.209195 0.000034 0.000008  -0.001276 -0.004274 0.074338
39  3.806435 -0.112147 -1.295333  -0.330197 0.136798 -0.257131
40  1.719414 -0.000101 -0.000035  -0.001915 -0.006300 -0.072277
41  1.099675 0.000022 0.000010  -0.001196 -0.004013 0.046405
42  0.943592 -0.180487 -1.592593  1.079795 0.646453 -0.910435
43  1.789779 -0.000010 -0.000042  0.011965 0.001552 -0.110981
44  1.206997 -0.000002 0.000004  0.005321 0.005317 0.007332
45  5.740572 0.000056 0.000725  0.134544 -0.000014 0.000021
46  11.481065 0.000051 0.000917  0.148877 0.048762 -0.055869
47  6.027514 -0.000273 -0.000238  -1.000714 -1.331617 -1.208525
48  -0.000002 11.691972 -0.000006  -0.791085 0.277279 0.644967
49  0.000005 0.000000 0.000001  2.570527 -0.000041 1.570856
50  -0.000007 -0.000017 0.000005  2.272644 -0.000030 1.570865
51  -10.707062 -2.866746 -24.832994  0.141422 2.666231 1.674442
52  0.000000 -0.000000 0.000001  0.008153 -0.000259 0.000009
53  -0.000001 0.000001 -0.000002  1.565115 0.043565 -0.106862
54  9.324059 -16.837519 -20.661568  0.838865 -0.229550 -1.788089
55  -0.000001 -0.000001 -0.000002  0.000000 -0.000000 -0.000002
56  0.000030 0.000028 -0.000002  -1.571901 -0.044449 -0.106509
57  13.031437 -13.518931 -29.313646  1.570796 -0.000000 0.000000
58  -16.537306 3.720643 -21.139227  1.570796 -0.000000 0.000000
59  1.426353 -3.199346 -7.922645  1.570796 -0.000000 0.000000
60  -0.004311 0.001230 -0.000371  0.006898 -0.005534 -0.284229
61  -1.480911 6.852561 -6.341750  1.570796 -0.000000 0.000000
62  0.000000 0.000000 0.000000  -0.078727 -3.136056 0.284226
63  0.000000 0.000000 0.000000  1.567917 0.001717 -0.001759
64  -5.977071 -32.534180 -0.792532  1.569419 0.001677 1.231972
65  0.032840 -0.689314 7.041599  0.000000 0.000000 0.000000
66  0.000009 0.704706 -1.522920  0.000000 0.000000 -0.000000
67  -1.069341 0.255757 -1.438860  0.000000 0.000000 0.000000
68  0.000010 0.704705 21.133165  0.000000 0.000000 0.000000
69  0.675339 -0.627302 0.013842  0.000000 0.000000 0.000000
70  0.799383 0.098867 -2.766579  0.000000 0.000000 0.000000
71  -5.259862 -32.754272 -1.437263  1.569419 0.001677 1.231972
72  0.116053 0.879028 -1.115068  0.000000 0.000000 0.000000
73  0.104805 0.966619 -1.115069  0.000000 0.000000 0.000000
74  -0.158460 0.667165 -1.115067  0.000000 0.000000 0.000000
time 8
0  0.000006 0.000000 0.000000  -1.570800 -1.391899 -1.570792
1  -7.661031 5.046696 1.705443  -1.544956 -1.855077 -0.198630
2  6.027517 -0.000321 0.000201  -1.150956 -0.165741 -0.879235
3  11.692109 0.000643 -0.000739  -0.893207 -0.000008 -1.218596
4  11.480111 0.000346 -0.000738  2.573819 -0.098028 -0.176408
5  3.859512 -0.142878 -1.192048  -0.465959 0.158650 -0.866002
6  1.312591 0.000012 0.000007  -0.000025 0.000045 -0.423938
7  0.729355 0.000053 0.000049  0.000017 0.000020 -0.228518
8  3.942143 0.046274 -0.431510  -0.150647 0.075590 -0.795448
9  1.539113 0.000082 0.000005  -0.000007 0.000021 -0.232041
10  1.196332 0.000144 0.000027  0.000012 0.000019 -0.414981
11  3.883504 -0.047268 0.431383  0.086231 0.020494 -0.572190
12  1.719573 -0.000026 0.000016  0.000102 0.005518 -0.350732
13  1.209177 0.000090 0.000012  0.000053 0.003091 -0.200647
14  4.085224 -0.082714 1.151042  0.353794 -0.048201 -0.516979
15  1.719449 -0.000013 0.000023  0.000093 0.004070 -0.347221
16  1.099674 0.000048 0.000010  0.000044 0.002578 -0.228592
17  0.686693 -1.660585 0.827513  -1.221919 -0.678622 -0.790279
18  1.789820 -0.000004 -0.000017  0.000011 0.000213 0.214889
19  1.207015 -0.000011 -0.000044  -0.000026 -0.000008 0.353625
20  5.740638 0.000411 -0.000703  0.209141 0.000003 0.000071
21  11.481034 0.000274 -0.000808  0.203072 -0.009225 -0.022182
22  6.027525 -0.000330 0.000203  -0.367594 -2.047527 -2.120392
23  0.000002 11.692100 -0.000007  -0.859337 -0.328897 -0.694840
24  0.000002 0.000009 -0.000003  -0.024122 -0.000030 1.570739
25  -0.000001 -0.000012 -0.000000  0.868957 0.000002 1.570712
26  -7.973111 -5.829392 -1.731922  1.473120 1.855075 -0.198639
27  6.027506 -0.000258 -0.000239  0.803627 0.262523 -0.706058
28  11.691990 0.000244 0.000855  0.211124 0.000010 -0.862372
29  11.480690 0.000087 0.000818  -0.638954 0.270937 -0.166698
30  3.452864 -0.227595 1.051757  0.406972 -0.281772 -0.608989
31  1.312558 0.000023 0.000000  -0.000002 -0.000045 -0.148961
32  0.729346 0.000064 -0.000026  -0.000028 -0.000012 0.046463
33  3.942045 0.050109 0.430998  0.121277 -0.118787 -0.520714
34  1.539093 0.000007 -0.000001  0.000007 -0.000010 0.042929
35  1.196300 0.000077 -0.000005  -0.000009 -0.000006 -0.140034
36  3.883413 -0.050498 -0.431086  -0.089865 -0.000690 -0.298025
37  1.719563 -0.000073 -0.000004  -0.002289 -0.007626 -0.075726
38  1.209198 0.000035 0.000010  -0.001276 -0.004274 0.074338
39  3.806438 -0.112150 -1.295330  -0.330197 0.136798 -0.257131
40  1.719415 -0.000101 -0.000033  -0.001915 -0.006300 -0.072277
41  1.099675 0.000023 0.000006  -0.001196 -0.004013 0.046405
42  0.943594 -0.180489 -1.592589  1.079795 0.646453 -0.910435
43  1.789782 -0.000011 -0.000041  0.011965 0.001552 -0.110981
44  1.206997 -0.000000 0.000003  0.005321 0.005317 0.007332
45  5.740571 0.000057 0.000724  0.206076 -0.000014 0.000021
46  11.481084 0.000054 0.000914  0.183657 0.026095 -0.073147
47  6.027515 -0.000273 -0.000237  -1.209260 -1.289723 -1.081077
48  -0.000001 11.691975 -0.000004  -0.629482 0.173134 0.520950
49  0.000005 -0.000000 0.000000  2.483683 -0.000041 1.570856
50  -0.000007 -0.000014 0.000005  2.272644 -0.000030 1.570865
51  -11.430770 -2.702815 -26.701855  0.229098 2.597924 1.717592
52  0.000001 -0.000000 0.000000  0.008153 -0.000259 0.000009
53  0.000000 -0.000001 0.000001  1.565115 0.043565 -0.106862
54  8.841321 -15.859365 -24.613888  0.612436 0.222499 -1.705411
55  0.000000 0.000001 0.000001  0.000000 -0.000000 -0.000002
56  0.000031 0.000030 0.000002  -1.571902 -0.044449 -0.106509
57  13.598187 -13.164895 -31.055346  1.570796 -0.000000 0.000000
58  -15.922087 3.290931 -22.334232  1.570796 -0.000000 0.000000
59  1.709759 -3.603286 -8.438027  1.570796 -0.000000 0.000000
60  -0.004311 0.001229 -0.000371  0.006898 -0.005534 -0.284229
61  -1.731926 7.155128 -6.808557  1.570796 -0.000000 0.000000
62  0.000000 0.000000 0.000000  -0.078727 -3.136056 0.284226
63  0.000000 0.000000 0.000000  1.569347 0.000865 -0.000885
64  -6.429739 -36.240162 -0.318439  1.570133 0.000807 1.407659
65  0.032836 -0.689314 7.041599  -0.000000 0.000000 0.000000
66  -0.000001 0.704706 -1.522919  -0.000000 0.000000 -0.000000
67  -1.069340 0.255757 -1.438860  0.000000 0.000000 -0.000000
68  0.000002 0.704705 21.133167  -0.000000 0.000000 0.000000
69  0.675333 -0.627302 0.013842  -0.000000 0.000000 0.000000
70  0.799379 0.098867 -2.766581  -0.000000 0.000000 0.000000
71  -5.685466 -36.330887 -0.963676  1.570133 0.000807 1.407659
72  0.116047 0.879028 -1.115067  -0.000000 0.000000 0.000000
73  0.104797 0.966619 -1.115067  -0.000000 0.000000 0.000000
74  -0.158465 0.667165 -1.115067  -0.000000 0.000000 0.000000
time 9
0  0.000006 0.000000 0.000000  -1.570800 -1.391899 -1.570792
1  -7.928741 5.347570 1.879746  -1.544956 -1.855077 -0.198630
2  6.027518 -0.000323 0.000199  -0.787616 -0.257624 -0.863920
3  11.692110 0.000644 -0.000738  -0.857458 0.000003 -0.962932
4  11.480821 0.000560 -0.000472  2.001052 -0.254918 -0.066339
5  3.859508 -0.142881 -1.192050  -0.468164 0.151540 -0.880272
6  1.312588 0.000014 0.000005  -0.000026 0.000045 -0.439738
7  0.729354 0.000054 0.000048  0.000017 0.000021 -0.244318
8  3.942142 0.046272 -0.431511  -0.151810 0.073212 -0.811101
9  1.539111 0.000085 0.000007  -0.000007 0.000021 -0.247841
10  1.196331 0.000146 0.000025  0.000011 0.000019 -0.430771
11  3.883504 -0.047270 0.431380  0.085898 0.021851 -0.587925
12  1.719573 -0.000028 0.000014  0.000015 0.005519 -0.366533
13  1.209179 0.000091 0.000013  0.000004 0.003092 -0.216437
14  4.085221 -0.082715 1.151043  0.354468 -0.042725 -0.531804
15  1.719448 -0.000011 0.000025  0.000029 0.004070 -0.363021
16  1.099673 0.000049 0.000006  0.000003 0.002579 -0.244381
17  0.686691 -1.660587 0.827511  -1.222687 -0.679194 -0.788886
18  1.789819 -0.000002 -0.000020  0.000012 -0.000024 0.228522
19  1.207015 -0.000011 -0.000045  0.000002 -0.000008 0.362858
20  5.740637 0.000410 -0.000703  0.111852 0.000003 0.000071
21  11.481176 0.000320 -0.000754  0.088263 -0.029617 -0.008823
22  6.027525 -0.000331 0.000203  -1.256329 -1.841944 -1.189506
23  0.000003 11.692097 -0.000008  -0.696335 -0.213112 -0.573056
24  0.000001 0.000009 -0.000003  0.011612 -0.000031 1.570739
25  -0.000001 -0.000012 -0.000000  0.868957 0.000002 1.570712
26  -8.288741 -5.961421 -1.886303  1.473120 1.855075 -0.198639
27  6.027507 -0.000258 -0.000238  0.777079 0.321967 -0.780684
28  11.691989 0.000246 0.000856  0.158657 0.000001 -0.647357
29  11.480900 0.000134 0.000807  -0.538748 0.220104 -0.262115
30  3.452865 -0.227594 1.051757  0.406972 -0.281772 -0.608989
31  1.312558 0.000024 0.000000  -0.000002 -0.000045 -0.148961
32  0.729345 0.000067 -0.000026  -0.000028 -0.000012 0.046463
33  3.942045 0.050108 0.430997  0.121277 -0.118787 -0.520714
34  1.539093 0.000010 -0.000002  0.000007 -0.000010 0.042929
35  1.196302 0.000079 -0.000001  -0.000009 -0.000006 -0.140034
36  3.883413 -0.050498 -0.431087  -0.089865 -0.000690 -0.298025
37  1.719562 -0.000072 -0.000002  -0.002289 -0.007626 -0.075726
38  1.209198 0.000038 0.000009  -0.001276 -0.004274 0.074338
39  3.806439 -0.112148 -1.295329  -0.330197 0.136798 -0.257131
40  1.719414 -0.000102 -0.000037  -0.001915 -0.006300 -0.072277
41  1.099674 0.000021 0.000009  -0.001196 -0.004013 0.046405
42  0.943597 -0.180488 -1.592587  1.079795 0.646453 -0.910435
43  1.789778 -0.000008 -0.000041  0.011965 0.001552 -0.110981
44  1.206996 -0.000008 0.000003  0.005321 0.005317 0.007332
45  5.740572 0.000057 0.000725  0.274246 -0.000014 0.000021
46  11.481124 0.000064 0.000911  0.205076 0.007704 -0.090174
47  6.027515 -0.000273 -0.000237  -1.349166 -1.240521 -1.014570
48  -0.000001 11.691975 -0.000005  -0.481229 0.099941 0.402049
49  0.000003 0.000001 -0.000000  2.431230 -0.000041 1.570856
50  -0.000007 -0.000014 0.000005  2.272644 -0.000030 1.570865
51  -11.907439 -2.626400 -27.918209  0.290719 2.555563 1.750933
52  0.000001 -0.000002 -0.000002  0.008153 -0.000259 0.000009
53  0.000002 -0.000001 -0.000000  1.565115 0.043565 -0.106862
54  8.061250 -14.906753 -27.770357  0.367481 0.630108 -1.725068
55  0.000002 0.000000 0.000002  0.000000 -0.000000 -0.000002
56  0.000034 0.000030 0.000002  -1.571901 -0.044449 -0.106509
57  13.946754 -12.947156 -32.126537  1.570796 -0.000000 0.000000
58  -15.543710 3.026647 -23.069195  1.570796 -0.000000 0.000000
59  1.884062 -3.851722 -8.755003  1.570796 -0.000000 0.000000
60  -0.004311 0.001229 -0.000371  0.006898 -0.005534 -0.284229
61  -1.886307 7.341214 -7.095655  1.570796 -0.000000 0.000000
62  0.000000 0.000000 0.000000  -0.078727 -3.136056 0.284226
63  0.000000 0.000000 0.000000  1.570391 0.000242 -0.000247
64  -6.736907 -38.754929 0.003268  1.570618 0.000217 1.526875
65  0.032836 -0.689314 7.041599  0.000000 -0.000000 -0.000000
66  -0.000000 0.704706 -1.522919  0.000000 -0.000000 -0.000000
67  -1.069343 0.255757 -1.438858  -0.000000 -0.000000 -0.000000
68  0.000002 0.704705 21.133167  0.000000 -0.000000 -0.000000
69  0.675331 -0.627302 0.013842  0.000000 -0.000000 -0.000000
70  0.799381 0.098867 -2.766579  0.000000 -0.000000 -0.000000
71  -5.987422 -38.756092 -0.642314  1.570618 0.000217 1.526875
72  0.116049 0.879028 -1.115067  0.000000 -0.000000 -0.000000
73  0.104800 0.966619 -1.115068  0.000000 -0.000000 -0.000000
74  -0.158461 0.667165 -1.115067  0.000000 -0.000000 -0.000000
time 10
0  0.000006 0.000000 0.000000  -1.570800 -1.391899 -1.570792
1  -8.017693 5.447542 1.937662  -1.544956 -1.855077 -0.198630
2  6.027517 -0.000322 0.000199  -0.644297 -0.302593 -0.898167
3  11.692116 0.000644 -0.000739  -0.845444 0.000006 -0.841812
4  11.480869 0.000574 -0.000451  1.773616 -0.242546 -0.016129
5  3.859513 -0.142878 -1.192046  -0.468164 0.151540 -0.880272
6  1.312589 0.000010 0.000008  -0.000026 0.000045 -0.439738
7  0.729353 0.000051 0.000052  0.000017 0.000021 -0.244318
8  3.942147 0.046273 -0.431509  -0.151810 0.073212 -0.811101
9  1.539111 0.000085 0.000007  -0.000007 0.000021 -0.247841
10  1.196336 0.000144 0.000025  0.000011 0.000019 -0.430771
11  3.883511 -0.047268 0.431383  0.085898 0.021851 -0.587925
12  1.719572 -0.000028 0.000016  0.000015 0.005519 -0.366533
13  1.209180 0.000089 0.000010  0.000004 0.003092 -0.216437
14  4.085225 -0.082715 1.151042  0.354468 -0.042725 -0.531804
15  1.719450 -0.000012 0.000022  0.000029 0.004070 -0.363021
16  1.099671 0.000048 0.000006  0.000003 0.002579 -0.244381
17  0.686696 -1.660587 0.827513  -1.222687 -0.679194 -0.788886
18  1.789819 -0.000005 -0.000019  0.000012 -0.000024 0.228522
19  1.207016 -0.000012 -0.000043  0.000002 -0.000008 0.362858
20  5.740638 0.000408 -0.000703  0.070095 0.000003 0.000071
21  11.481186 0.000324 -0.000748  0.044190 -0.026250 -0.006789
22  6.027524 -0.000331 0.000202  -1.753023 -1.878564 -0.707161
23  0.000002 11.692101 -0.000009  -0.615659 -0.165421 -0.509997
24  0.000003 0.000007 -0.000002  0.023617 -0.000031 1.570738
25  -0.000000 -0.000012 -0.000001  0.868957 0.000002 1.570712
26  -8.393617 -6.005292 -1.937599  1.473120 1.855075 -0.198639
27  6.027507 -0.000257 -0.000237  0.763165 0.350920 -0.816794
28  11.691991 0.000244 0.000857  0.141395 -0.000000 -0.547392
29  11.480382 0.000018 0.000821  -0.503860 0.202454 -0.309882
30  3.452863 -0.227594 1.051754  0.406972 -0.281772 -0.608989
31  1.312559 0.000024 0.000000  -0.000002 -0.000045 -0.148961
32  0.729346 0.000063 -0.000025  -0.000028 -0.000012 0.046463
33  3.942042 0.050109 0.430994  0.121277 -0.118787 -0.520714
34  1.539093 0.000009 -0.000000  0.000007 -0.000010 0.042929
35  1.196299 0.000072 -0.000002  -0.000009 -0.000006 -0.140034
36  3.883411 -0.050498 -0.431089  -0.089865 -0.000690 -0.298025
37  1.719564 -0.000072 -0.000001  -0.002289 -0.007626 -0.075726
38  1.209198 0.000033 0.000011  -0.001276 -0.004274 0.074338
39  3.806435 -0.112149 -1.295333  -0.330197 0.136798 -0.257131
40  1.719415 -0.000102 -0.000036  -0.001915 -0.006300 -0.072277
41  1.099675 0.000021 0.000009  -0.001196 -0.004013 0.046405
42  0.943592 -0.180487 -1.592591  1.079795 0.646453 -0.910435
43  1.789779 -0.000009 -0.000041  0.011965 0.001552 -0.110981
44  1.206997 -0.000002 0.000005  0.005321 0.005317 0.007332
45  5.740575 0.000055 0.000723  0.308055 -0.000014 0.000021
46  11.481024 0.000039 0.000914  0.212454 -0.000311 -0.098592
47  6.027514 -0.000273 -0.000236  -1.404938 -1.214845 -0.993559
48  -0.000000 11.691975 -0.000005  -0.409884 0.072127 0.343613
49  0.000004 0.000002 -0.000001  2.413975 -0.000041 1.570856
50  -0.000006 -0.000015 0.000005  2.272644 -0.000030 1.570865
51  -12.080094 -2.607073 -28.354927  0.313880 2.540827 1.764035
52  0.000004 -0.000001 -0.000001  0.008153 -0.000259 0.000009
53  -0.000003 0.000000 -0.000002  1.565115 0.043565 -0.106862
54  7.720896 -14.546185 -28.864317  0.255881 0.766400 -1.766008
55  0.000002 0.000000 -0.000003  0.000000 -0.000000 -0.000002
56  0.000033 0.000029 -0.000001  -1.571901 -0.044449 -0.106509
57  14.062574 -12.874806 -32.482468  1.570796 -0.000000 0.000000
58  -15.417985 2.938832 -23.313402  1.570796 -0.000000 0.000000
59  1.941978 -3.934269 -8.860325  1.570796 -0.000000 0.000000
60  -0.004311 0.001229 -0.000371  0.006898 -0.005534 -0.284229
61  -1.937603 7.403047 -7.191051  1.570796 -0.000000 0.000000
62  0.000000 0.000000 0.000000  -0.078727 -3.136056 0.284226
63  0.000000 0.000000 0.000000  1.570796 -0.000000 0.000000
64  -6.850074 -39.681427 0.121791  1.570796 -0.000000 1.570796
65  0.032837 -0.689314 7.041599  0.000000 -0.000000 0.000000
66  0.000003 0.704706 -1.522919  -0.000000 0.000000 -0.000000
67  -1.069344 0.255757 -1.438859  0.000000 -0.000000 0.000000
68  0.000005 0.704705 21.133167  0.000000 -0.000000 0.000000
69  0.675334 -0.627302 0.013842  0.000000 -0.000000 0.000000
70  0.799381 0.098867 -2.766579  0.000000 -0.000000 0.000000
71  -6.101376 -39.649544 -0.523918  1.570796 -0.000000 1.570796
72  0.116050 0.879028 -1.115067  0.000000 -0.000000 0.000000
73  0.104801 0.966619 -1.115067  0.000000 -0.000000 0.000000
74  -0.158463 0.667165 -1.115067  0.000000 -0.000000 0.000000
end
