version 1
nodes
0 "ValveBiped.Bip01_Spine4" -1
1 "ValveBiped.Bip01_L_Clavicle" 0
2 "ValveBiped.Bip01_L_UpperArm" 1
3 "ValveBiped.Bip01_L_Forearm" 2
4 "ValveBiped.Bip01_L_Hand" 3
5 "ValveBiped.Bip01_L_Finger4" 4
6 "ValveBiped.Bip01_L_Finger41" 5
7 "ValveBiped.Bip01_L_Finger42" 6
8 "ValveBiped.Bip01_L_Finger3" 4
9 "ValveBiped.Bip01_L_Finger31" 8
10 "ValveBiped.Bip01_L_Finger32" 9
11 "ValveBiped.Bip01_L_Finger2" 4
12 "ValveBiped.Bip01_L_Finger21" 11
13 "ValveBiped.Bip01_L_Finger22" 12
14 "ValveBiped.Bip01_L_Finger1" 4
15 "ValveBiped.Bip01_L_Finger11" 14
16 "ValveBiped.Bip01_L_Finger12" 15
17 "ValveBiped.Bip01_L_Finger0" 4
18 "ValveBiped.Bip01_L_Finger01" 17
19 "ValveBiped.Bip01_L_Finger02" 18
20 "ValveBiped.Bip01_L_Ulna" 3
21 "ValveBiped.Bip01_L_Wrist" 3
22 "rig_l_upperarm" 1
23 "rig_l_forearm" 22
24 "rig_d_l_forearm" 23
25 "rig_d_l_upperarm" 22
26 "ValveBiped.Bip01_R_Clavicle" 0
27 "ValveBiped.Bip01_R_UpperArm" 26
28 "ValveBiped.Bip01_R_Forearm" 27
29 "ValveBiped.Bip01_R_Hand" 28
30 "ValveBiped.Bip01_R_Finger4" 29
31 "ValveBiped.Bip01_R_Finger41" 30
32 "ValveBiped.Bip01_R_Finger42" 31
33 "ValveBiped.Bip01_R_Finger3" 29
34 "ValveBiped.Bip01_R_Finger31" 33
35 "ValveBiped.Bip01_R_Finger32" 34
36 "ValveBiped.Bip01_R_Finger2" 29
37 "ValveBiped.Bip01_R_Finger21" 36
38 "ValveBiped.Bip01_R_Finger22" 37
39 "ValveBiped.Bip01_R_Finger1" 29
40 "ValveBiped.Bip01_R_Finger11" 39
41 "ValveBiped.Bip01_R_Finger12" 40
42 "ValveBiped.Bip01_R_Finger0" 29
43 "ValveBiped.Bip01_R_Finger01" 42
44 "ValveBiped.Bip01_R_Finger02" 43
45 "ValveBiped.Bip01_R_Ulna" 28
46 "ValveBiped.Bip01_R_Wrist" 28
47 "rig_r_upperarm" 26
48 "rig_r_forearm" 47
49 "rig_d_r_forearm" 48
50 "rig_d_r_upperarm" 47
51 "rig_r_hand" -1
52 "rig_d_r_hand" 51
53 "rig_d_r_wrist" 52
54 "rig_l_hand" -1
55 "rig_d_l_hand" 54
56 "rig_d_l_wrist" 54
57 "rig_l_pole" -1
58 "rig_r_pole" -1
59 "rig_l_clavicle" -1
60 "rig_d_l_clavicle" 59
61 "rig_r_clavicle" -1
62 "rig_d_r_clavicle" 61
63 "Camera" -1
64 "body" -1
65 "trigger" 64
66 "bolt" 64
67 "chandle" 66
68 "barrel" 64
69 "magrel" 64
70 "boltrelease" 64
71 "mag" -1
72 "bullet1" 71
73 "bullet2" 71
74 "bullet3" 71
end
skeleton
time 0
0  0.000006 0.000000 0.000000  -1.570800 -1.391899 -1.570792
1  -4.005264 0.938027 -0.674797  -1.544956 -1.855077 -0.198630
2  6.027520 -0.000324 0.000194  -1.114503 -0.923977 -0.914157
3  11.692106 0.000645 -0.000741  -1.320269 -0.000032 -1.647802
4  11.479349 0.000475 -0.001094  1.199802 -0.679459 0.174113
5  3.859508 -0.142881 -1.192049  -0.808216 0.180883 -1.766569
6  1.312589 0.000011 0.000007  -0.134119 0.018600 -0.222836
7  0.729355 0.000054 0.000049  -0.010622 0.003162 -0.217260
8  3.942143 0.046271 -0.431512  -0.538224 0.377343 -1.371180
9  1.539111 0.000084 0.000004  -0.021913 0.026158 -0.368911
10  1.196333 0.000145 0.000028  -0.003283 0.005639 -0.955971
11  3.883503 -0.047271 0.431382  -0.260797 0.647751 -0.838050
12  1.719573 -0.000028 0.000015  0.020427 -0.004375 -0.655133
13  1.209179 0.000090 0.000012  -0.014836 -0.011036 -1.011941
14  4.085223 -0.082717 1.151041  -0.077716 0.789856 -0.318308
15  1.719449 -0.000011 0.000020  -0.021301 0.141559 -0.357422
16  1.099675 0.000049 0.000007  -0.073264 0.059305 -1.155833
17  0.686691 -1.660589 0.827511  -0.980456 -0.615764 -0.268880
18  1.789820 -0.000002 -0.000018  0.000998 -0.014468 0.721478
19  1.207015 -0.000012 -0.000044  0.001593 -0.000026 -0.111145
20  5.740637 0.000410 -0.000702  -0.119810 0.000003 0.000070
21  11.480878 0.000307 -0.000876  -0.052841 -0.120000 -0.001922
22  6.027524 -0.000330 0.000203  1.864905 -0.584916 1.725623
23  0.000002 11.692099 -0.000006  -1.116467 -0.559774 -0.862660
24  0.000002 0.000008 -0.000002  -0.451164 -0.000031 1.570739
25  -0.000000 -0.000011 -0.000000  0.868957 0.000002 1.570712
26  -3.662932 -4.026425 0.376266  1.473120 1.855075 -0.198639
27  6.027504 -0.000261 -0.000230  1.427384 0.594605 -0.279219
28  11.691993 0.000244 0.000857  0.970530 0.000074 -1.859942
29  11.479158 0.000013 0.001440  -1.623151 0.641056 0.146006
30  3.452863 -0.227594 1.051755  0.554395 -0.249329 -1.600262
31  1.312558 0.000024 -0.000001  -0.098769 0.190475 -0.745635
32  0.729344 0.000065 -0.000026  -0.040117 -0.002456 -0.806801
33  3.942044 0.050110 0.430997  0.413054 -0.141259 -1.490445
34  1.539093 0.000009 -0.000002  -0.021081 0.020361 -1.007904
35  1.196299 0.000074 -0.000005  -0.004516 -0.001755 -0.733348
36  3.883411 -0.050498 -0.431087  0.224817 -0.215783 -1.187556
37  1.719562 -0.000074 -0.000003  -0.039730 0.066729 -1.510271
38  1.209198 0.000035 0.000011  -0.006946 -0.002847 -0.369175
39  3.806436 -0.112148 -1.295331  -0.054051 -0.227834 0.117305
40  1.719414 -0.000101 -0.000035  -0.097692 0.144287 -1.589631
41  1.099674 0.000020 0.000007  -0.022826 0.002293 -0.615702
42  0.943594 -0.180489 -1.592590  1.077226 0.106495 -0.817774
43  1.789779 -0.000009 -0.000042  0.023056 0.021409 -0.019466
44  1.206996 -0.000003 0.000003  0.206835 0.095578 1.319988
45  5.740573 0.000056 0.000725  0.005944 -0.000014 0.000021
46  11.480777 0.000038 0.001038  -0.019942 0.105557 0.021729
47  6.027515 -0.000273 -0.000237  -0.794876 -0.668460 -1.286738
48  -0.000002 11.691974 -0.000006  -1.241046 0.686230 0.927039
49  0.000003 -0.000003 0.000000  -3.040130 -0.000041 1.570856
50  -0.000007 -0.000015 0.000005  2.272644 -0.000030 1.570865
51  -4.933747 -8.976824 -7.385546  3.035270 -0.166343 -1.367546
52  -0.000001 0.000000 -0.000001  0.008153 -0.000259 0.000009
53  -0.000001 -0.000000 -0.000001  1.565115 0.043565 -0.106862
54  -0.307500 -15.019550 -6.139982  -0.926358 -0.098015 -1.992123
55  -0.000001 -0.000002 -0.000000  0.000000 -0.000000 -0.000002
56  0.000029 0.000027 0.000000  -1.571901 -0.044449 -0.106509
57  8.838223 -16.138317 -16.427357  1.570796 -0.000000 0.000000
58  -21.089123 6.899941 -12.297750  1.570796 -0.000000 0.000000
59  -0.670483 -0.210714 -4.109488  1.570796 -0.000000 0.000000
60  -0.004311 0.001230 -0.000371  0.006898 -0.005534 -0.284229
61  0.376268 4.613964 -2.887995  1.570796 -0.000000 0.000000
62  0.000000 0.000000 0.000000  -0.078727 -3.136056 0.284226
63  -2.808390 -1.771285 0.065070  1.570796 -0.000000 0.000000
64  -2.808394 -6.592330 -4.111191  1.570796 -0.000000 0.000000
65  0.032837 -0.689314 7.041600  0.174533 0.000000 -0.000000
66  0.000003 0.704706 2.258057  0.000000 -0.000000 0.000000
67  -1.069343 0.255757 -1.438859  0.000000 -0.000000 0.000000
68  0.000004 0.704705 21.133167  0.000000 -0.000000 0.000000
69  0.675334 -0.627302 0.013842  0.000000 -0.000000 0.000000
70  0.799380 0.018980 -2.766579  0.000000 -0.000000 0.000000
71  -2.776510 -7.341029 -4.756900  1.570796 -0.000000 0.000000
72  0.116050 0.879028 -1.115068  0.000000 -0.000000 0.000000
73  -0.179815 0.692453 -1.115067  0.000000 -0.000000 0.000000
74  0.116050 0.505895 -1.115067  0.000000 -0.000000 0.000000
time 1
0  0.000006 0.000000 0.000000  -1.570800 -1.391899 -1.570792
1  -4.005264 0.938027 -0.674797  -1.544956 -1.855077 -0.198630
2  6.027520 -0.000324 0.000194  -1.115299 -0.906715 -0.899428
3  11.692107 0.000646 -0.000739  -1.320271 -0.000036 -1.710625
4  11.478808 0.000404 -0.001380  1.195648 -0.718409 0.171782
5  3.859510 -0.142880 -1.192050  -0.808216 0.180883 -1.766569
6  1.312592 0.000012 0.000007  -0.134119 0.018600 -0.222836
7  0.729355 0.000054 0.000049  -0.010622 0.003162 -0.217260
8  3.942143 0.046272 -0.431512  -0.538224 0.377343 -1.371180
9  1.539110 0.000083 0.000006  -0.021912 0.026158 -0.368911
10  1.196332 0.000144 0.000029  -0.003283 0.005640 -0.955971
11  3.883504 -0.047270 0.431381  -0.260797 0.647751 -0.838050
12  1.719573 -0.000025 0.000015  0.020427 -0.004375 -0.655133
13  1.209179 0.000090 0.000013  -0.014836 -0.011036 -1.011941
14  4.085222 -0.082717 1.151040  -0.077716 0.789856 -0.318308
15  1.719449 -0.000012 0.000023  -0.021301 0.141559 -0.357422
16  1.099675 0.000049 0.000005  -0.073264 0.059305 -1.155833
17  0.686692 -1.660588 0.827511  -0.980456 -0.615764 -0.268880
18  1.789820 -0.000003 -0.000018  0.000998 -0.014468 0.721478
19  1.207018 -0.000012 -0.000043  0.001593 -0.000026 -0.111145
20  5.740638 0.000411 -0.000704  -0.128037 0.000003 0.000071
21  11.480769 0.000294 -0.000933  -0.052338 -0.127627 -0.004054
22  6.027524 -0.000330 0.000203  1.875484 -0.599788 1.733814
23  0.000001 11.692100 -0.000007  -1.153278 -0.596535 -0.883106
24  0.000003 0.000010 -0.000001  -0.451164 -0.000031 1.570738
25  -0.000000 -0.000011 -0.000001  0.868957 0.000002 1.570712
26  -3.662932 -4.026425 0.376266  1.473120 1.855075 -0.198639
27  6.027504 -0.000261 -0.000230  1.423170 0.563451 -0.278517
28  11.691991 0.000242 0.000856  0.970530 0.000078 -1.920519
29  11.478625 -0.000138 0.001662  -1.634878 0.668268 0.151092
30  3.452864 -0.227594 1.051757  0.554395 -0.249329 -1.600262
31  1.312558 0.000024 -0.000001  -0.098769 0.190475 -0.745635
32  0.729344 0.000066 -0.000027  -0.040117 -0.002456 -0.806801
33  3.942044 0.050111 0.430998  0.413054 -0.141259 -1.490445
34  1.539093 0.000008 -0.000002  -0.021081 0.020361 -1.007904
35  1.196301 0.000075 -0.000004  -0.004516 -0.001755 -0.733348
36  3.883411 -0.050497 -0.431087  0.224817 -0.215783 -1.187556
37  1.719562 -0.000072 -0.000003  -0.039730 0.066729 -1.510271
38  1.209198 0.000035 0.000010  -0.006946 -0.002847 -0.369175
39  3.806435 -0.112148 -1.295330  -0.054051 -0.227834 0.117305
40  1.719414 -0.000102 -0.000034  -0.097692 0.144287 -1.589631
41  1.099674 0.000022 0.000008  -0.022826 0.002293 -0.615702
42  0.943594 -0.180488 -1.592589  1.077226 0.106495 -0.817774
43  1.789780 -0.000008 -0.000042  0.023056 0.021409 -0.019466
44  1.206995 -0.000005 0.000003  0.206835 0.095578 1.319988
45  5.740572 0.000055 0.000724  0.005540 -0.000014 0.000021
46  11.480670 0.000008 0.001082  -0.022737 0.110761 0.023514
47  6.027515 -0.000273 -0.000237  -0.763250 -0.687864 -1.303573
48  -0.000001 11.691974 -0.000006  -1.277110 0.723450 0.942783
49  0.000003 -0.000001 -0.000000  -3.040130 -0.000041 1.570856
50  -0.000006 -0.000015 0.000005  2.272644 -0.000030 1.570865
51  -4.933865 -8.402530 -7.348482  3.030100 -0.172815 -1.367762
52  0.000000 0.000000 -0.000001  0.008153 -0.000259 0.000009
53  -0.000001 0.000000 -0.000000  1.565115 0.043565 -0.106862
54  -0.309551 -14.441013 -6.075463  -0.926705 -0.106245 -1.993176
55  0.000000 0.000000 0.000000  0.000000 -0.000000 -0.000002
56  0.000031 0.000030 0.000001  -1.571901 -0.044449 -0.106509
57  8.838223 -16.138317 -16.427357  1.570796 -0.000000 0.000000
58  -21.089123 6.899941 -12.297750  1.570796 -0.000000 0.000000
59  -0.670483 -0.210714 -4.109488  1.570796 -0.000000 0.000000
60  -0.004311 0.001230 -0.000371  0.006898 -0.005534 -0.284229
61  0.376268 4.613964 -2.887995  1.570796 -0.000000 0.000000
62  0.000000 0.000000 0.000000  -0.078727 -3.136056 0.284226
63  -2.808390 -1.771285 0.065070  1.570796 -0.000000 0.000000
64  -2.793883 -5.996327 -4.099635  1.563427 0.003681 -0.001102
65  0.032836 -0.689314 7.041599  0.174533 0.000000 -0.000000
66  0.000002 0.704707 -1.522919  -0.000000 0.000000 -0.000000
67  -1.069344 0.255757 -1.438859  -0.000000 -0.000000 -0.000000
68  0.000003 0.704705 21.133169  -0.000000 -0.000000 -0.000000
69  0.675334 -0.627302 0.013842  -0.000000 -0.000000 -0.000000
70  0.799380 0.098867 -2.766579  -0.000000 -0.000000 -0.000000
71  -2.765186 -6.749796 -4.739923  1.563427 0.003681 -0.001102
72  0.116050 0.879028 -1.115067  -0.000000 -0.000000 -0.000000
73  -0.179815 0.692453 -1.115067  -0.000000 -0.000000 -0.000000
74  0.116050 0.505895 -1.115067  -0.000000 -0.000000 -0.000000
time 2
0  0.000006 0.000000 0.000000  -1.570800 -1.391899 -1.570792
1  -4.005264 0.938027 -0.674797  -1.544956 -1.855077 -0.198630
2  6.027520 -0.000324 0.000194  -1.113657 -0.907945 -0.900314
3  11.692105 0.000645 -0.000739  -1.320270 -0.000036 -1.706887
4  11.478951 0.000430 -0.001284  1.192751 -0.717188 0.174234
5  3.859508 -0.142880 -1.192049  -0.808216 0.180883 -1.766569
6  1.312589 0.000013 0.000008  -0.134119 0.018600 -0.222836
7  0.729356 0.000053 0.000049  -0.010622 0.003162 -0.217260
8  3.942143 0.046272 -0.431512  -0.538224 0.377343 -1.371180
9  1.539112 0.000084 0.000006  -0.021913 0.026158 -0.368911
10  1.196332 0.000143 0.000028  -0.003283 0.005640 -0.955971
11  3.883504 -0.047269 0.431381  -0.260797 0.647751 -0.838050
12  1.719573 -0.000029 0.000013  0.020427 -0.004375 -0.655133
13  1.209178 0.000092 0.000011  -0.014836 -0.011036 -1.011941
14  4.085222 -0.082716 1.151040  -0.077716 0.789856 -0.318308
15  1.719449 -0.000012 0.000022  -0.021301 0.141559 -0.357422
16  1.099675 0.000047 0.000005  -0.073264 0.059305 -1.155833
17  0.686691 -1.660587 0.827510  -0.980456 -0.615764 -0.268880
18  1.789819 -0.000004 -0.000018  0.000998 -0.014468 0.721478
19  1.207017 -0.000012 -0.000044  0.001593 -0.000026 -0.111145
20  5.740638 0.000410 -0.000702  -0.127883 0.000003 0.000071
21  11.480798 0.000299 -0.000914  -0.052779 -0.127486 -0.003750
22  6.027524 -0.000330 0.000203  1.873690 -0.599204 1.735235
23  0.000002 11.692100 -0.000007  -1.151087 -0.594330 -0.881921
24  0.000003 0.000010 -0.000000  -0.451164 -0.000031 1.570739
25  0.000000 -0.000011 -0.000001  0.868957 0.000002 1.570712
26  -3.662932 -4.026425 0.376266  1.473120 1.855075 -0.198639
27  6.027504 -0.000261 -0.000230  1.423907 0.564220 -0.278127
28  11.691992 0.000243 0.000856  0.970530 0.000078 -1.918481
29  11.478642 -0.000133 0.001654  -1.630785 0.668089 0.154706
30  3.452865 -0.227595 1.051756  0.554395 -0.249329 -1.600262
31  1.312558 0.000023 0.000000  -0.098769 0.190475 -0.745635
32  0.729345 0.000065 -0.000027  -0.040117 -0.002456 -0.806801
33  3.942044 0.050110 0.430998  0.413054 -0.141259 -1.490445
34  1.539093 0.000008 -0.000001  -0.021081 0.020361 -1.007904
35  1.196301 0.000074 -0.000005  -0.004516 -0.001755 -0.733348
36  3.883411 -0.050497 -0.431087  0.224817 -0.215783 -1.187556
37  1.719562 -0.000072 -0.000003  -0.039730 0.066729 -1.510271
38  1.209198 0.000034 0.000010  -0.006946 -0.002847 -0.369175
39  3.806436 -0.112149 -1.295331  -0.054051 -0.227834 0.117305
40  1.719412 -0.000101 -0.000035  -0.097692 0.144287 -1.589631
41  1.099674 0.000022 0.000008  -0.022826 0.002293 -0.615702
42  0.943593 -0.180489 -1.592590  1.077226 0.106495 -0.817774
43  1.789780 -0.000007 -0.000042  0.023056 0.021409 -0.019466
44  1.206996 -0.000003 0.000003  0.206835 0.095578 1.319988
45  5.740571 0.000056 0.000723  0.006067 -0.000014 0.000021
46  11.480671 0.000010 0.001079  -0.022146 0.110763 0.023937
47  6.027515 -0.000273 -0.000237  -0.763682 -0.686932 -1.303302
48  -0.000001 11.691974 -0.000006  -1.275891 0.722192 0.942274
49  0.000004 -0.000001 0.000001  -3.040130 -0.000041 1.570856
50  -0.000007 -0.000015 0.000005  2.272644 -0.000030 1.570865
51  -4.940612 -8.423036 -7.346290  3.031588 -0.169908 -1.369086
52  -0.000000 -0.000000 -0.000000  0.008153 -0.000259 0.000009
53  -0.000000 -0.000000 -0.000001  1.565115 0.043565 -0.106862
54  -0.323842 -14.470444 -6.088326  -0.927222 -0.103030 -1.994192
55  -0.000001 0.000000 -0.000000  0.000000 -0.000000 -0.000002
56  0.000030 0.000029 0.000001  -1.571901 -0.044449 -0.106509
57  8.838223 -16.138317 -16.427357  1.570796 -0.000000 0.000000
58  -21.089123 6.899941 -12.297750  1.570796 -0.000000 0.000000
59  -0.670483 -0.210714 -4.109488  1.570796 -0.000000 0.000000
60  -0.004311 0.001230 -0.000371  0.006898 -0.005534 -0.284229
61  0.376268 4.613964 -2.887995  1.570796 -0.000000 0.000000
62  0.000000 0.000000 0.000000  -0.078727 -3.136056 0.284226
63  -2.808390 -1.771285 0.065070  1.570796 -0.000000 0.000000
64  -2.800832 -6.029351 -4.088078  1.566571 0.002835 -0.002162
65  0.032837 -0.689314 7.041599  0.174533 0.000000 0.000000
66  0.000003 0.704706 -1.522920  0.000000 0.000000 0.000000
67  -1.069343 0.255757 -1.438859  0.000000 0.000000 0.000000
68  0.000004 0.704705 21.133165  0.000000 0.000000 0.000000
69  0.675334 -0.627302 0.013842  0.000000 0.000000 0.000000
70  0.799380 0.098866 -2.766580  0.000000 0.000000 0.000000
71  -2.772394 -6.780834 -4.730706  1.566571 0.002835 -0.002162
72  0.116050 0.879028 -1.115068  0.000000 0.000000 0.000000
73  -0.179815 0.692453 -1.115068  0.000000 0.000000 0.000000
74  0.116050 0.505894 -1.115068  0.000000 0.000000 0.000000
time 3
0  0.000006 0.000000 0.000000  -1.570800 -1.391899 -1.570792
1  -4.005264 0.938027 -0.674797  -1.544956 -1.855077 -0.198630
2  6.027520 -0.000324 0.000194  -1.112678 -0.908167 -0.900386
3  11.692107 0.000646 -0.000741  -1.320270 -0.000035 -1.699390
4  11.478997 0.000433 -0.001262  1.189997 -0.714888 0.176337
5  3.859509 -0.142881 -1.192049  -0.808216 0.180883 -1.766569
6  1.312590 0.000012 0.000007  -0.134119 0.018600 -0.222836
7  0.729356 0.000054 0.000047  -0.010622 0.003162 -0.217260
8  3.942143 0.046271 -0.431512  -0.538224 0.377343 -1.371180
9  1.539110 0.000084 0.000006  -0.021913 0.026158 -0.368911
10  1.196333 0.000145 0.000029  -0.003283 0.005640 -0.955971
11  3.883504 -0.047270 0.431382  -0.260797 0.647751 -0.838050
12  1.719573 -0.000028 0.000014  0.020427 -0.004375 -0.655133
13  1.209179 0.000090 0.000011  -0.014836 -0.011036 -1.011941
14  4.085223 -0.082716 1.151042  -0.077716 0.789856 -0.318308
15  1.719449 -0.000011 0.000022  -0.021301 0.141559 -0.357422
16  1.099675 0.000050 0.000007  -0.073264 0.059305 -1.155833
17  0.686692 -1.660587 0.827511  -0.980456 -0.615764 -0.268880
18  1.789821 -0.000002 -0.000018  0.000998 -0.014468 0.721478
19  1.207017 -0.000012 -0.000044  0.001593 -0.000026 -0.111145
20  5.740637 0.000410 -0.000701  -0.127072 0.000003 0.000070
21  11.480807 0.000299 -0.000910  -0.053252 -0.127125 -0.003462
22  6.027524 -0.000330 0.000203  1.872922 -0.599302 1.736368
23  0.000000 11.692099 -0.000008  -1.146694 -0.589915 -0.879532
24  0.000003 0.000008 -0.000000  -0.451164 -0.000031 1.570739
25  -0.000001 -0.000011 -0.000001  0.868957 0.000002 1.570712
26  -3.662932 -4.026425 0.376266  1.473120 1.855075 -0.198639
27  6.027504 -0.000261 -0.000230  1.423398 0.567239 -0.278803
28  11.691991 0.000243 0.000857  0.970530 0.000077 -1.910918
29  11.478709 -0.000117 0.001631  -1.624362 0.663409 0.158250
30  3.452865 -0.227594 1.051757  0.554395 -0.249329 -1.600262
31  1.312558 0.000024 -0.000001  -0.098769 0.190475 -0.745635
32  0.729343 0.000064 -0.000027  -0.040117 -0.002456 -0.806801
33  3.942045 0.050110 0.430999  0.413054 -0.141259 -1.490445
34  1.539093 0.000009 -0.000002  -0.021081 0.020361 -1.007904
35  1.196300 0.000074 -0.000005  -0.004516 -0.001755 -0.733348
36  3.883412 -0.050497 -0.431086  0.224817 -0.215783 -1.187556
37  1.719562 -0.000072 -0.000003  -0.039730 0.066729 -1.510271
38  1.209199 0.000034 0.000010  -0.006946 -0.002847 -0.369175
39  3.806437 -0.112148 -1.295330  -0.054051 -0.227834 0.117305
40  1.719414 -0.000102 -0.000034  -0.097692 0.144287 -1.589631
41  1.099674 0.000021 0.000007  -0.022826 0.002293 -0.615702
42  0.943594 -0.180487 -1.592590  1.077226 0.106495 -0.817774
43  1.789779 -0.000008 -0.000041  0.023056 0.021409 -0.019466
44  1.206996 -0.000003 0.000004  0.206835 0.095578 1.319988
45  5.740571 0.000056 0.000725  0.006664 -0.000014 0.000021
46  11.480686 0.000012 0.001077  -0.021051 0.109910 0.024189
47  6.027515 -0.000273 -0.000237  -0.767304 -0.685730 -1.301411
48  -0.000001 11.691975 -0.000006  -1.271368 0.717523 0.940373
49  0.000004 -0.000003 -0.000000  -3.040130 -0.000041 1.570856
50  -0.000007 -0.000014 0.000005  2.272644 -0.000030 1.570865
51  -4.944106 -8.492087 -7.367084  3.034634 -0.164566 -1.368209
52  -0.000001 -0.000000 -0.000001  0.008153 -0.000259 0.000009
53  0.000001 0.000000 -0.000000  1.565115 0.043565 -0.106862
54  -0.321297 -14.540365 -6.135777  -0.927913 -0.096940 -1.992740
55  0.000000 -0.000000 -0.000000  0.000000 -0.000000 -0.000002
56  0.000030 0.000029 0.000001  -1.571902 -0.044449 -0.106509
57  8.838223 -16.138317 -16.427357  1.570796 -0.000000 0.000000
58  -21.089123 6.899941 -12.297750  1.570796 -0.000000 0.000000
59  -0.670483 -0.210714 -4.109488  1.570796 -0.000000 0.000000
60  -0.004311 0.001230 -0.000371  0.006898 -0.005534 -0.284229
61  0.376268 4.613964 -2.887995  1.570796 -0.000000 0.000000
62  0.000000 0.000000 0.000000  -0.078727 -3.136056 0.284226
63  -2.808390 -1.771285 0.065070  1.570796 -0.000000 0.000000
64  -2.813737 -6.114515 -4.090956  1.572410 0.000974 -0.000767
65  0.032837 -0.689314 7.041600  0.174533 0.000000 -0.000000
66  0.000003 0.704706 -1.522918  0.000000 -0.000000 -0.028844
67  -1.069343 0.255757 -1.438859  -0.000000 0.000000 -0.000000
68  0.000004 0.704705 21.133165  0.000000 -0.000000 -0.000000
69  0.675334 -0.627302 0.013842  0.000000 -0.000000 -0.000000
70  0.799380 0.098867 -2.766579  0.000000 -0.000000 -0.000000
71  -2.783056 -6.862194 -4.737903  1.572410 0.000974 -0.000767
72  0.116050 0.879028 -1.115068  0.000000 -0.000000 -0.000000
73  -0.179815 0.692453 -1.115067  0.000000 -0.000000 -0.000000
74  0.116050 0.505895 -1.115067  0.000000 -0.000000 -0.000000
time 4
0  0.000006 0.000000 0.000000  -1.570800 -1.391899 -1.570792
1  -4.005264 0.938027 -0.674797  -1.544956 -1.855077 -0.198630
2  6.027520 -0.000324 0.000194  -1.113803 -0.909462 -0.901605
3  11.692106 0.000644 -0.000741  -1.320270 -0.000034 -1.688913
4  11.479070 0.000441 -0.001230  1.191038 -0.709815 0.177233
5  3.859508 -0.142880 -1.192050  -0.808216 0.180883 -1.766569
6  1.312590 0.000012 0.000007  -0.134119 0.018600 -0.222836
7  0.729357 0.000054 0.000049  -0.010622 0.003162 -0.217260
8  3.942143 0.046273 -0.431512  -0.538224 0.377343 -1.371180
9  1.539110 0.000084 0.000007  -0.021913 0.026158 -0.368911
10  1.196331 0.000145 0.000030  -0.003283 0.005640 -0.955971
11  3.883506 -0.047269 0.431381  -0.260797 0.647751 -0.838050
12  1.719573 -0.000025 0.000016  0.020427 -0.004375 -0.655133
13  1.209179 0.000088 0.000012  -0.014836 -0.011036 -1.011941
14  4.085222 -0.082716 1.151040  -0.077716 0.789856 -0.318308
15  1.719449 -0.000014 0.000022  -0.021301 0.141559 -0.357422
16  1.099674 0.000050 0.000007  -0.073264 0.059305 -1.155833
17  0.686691 -1.660587 0.827510  -0.980456 -0.615764 -0.268880
18  1.789820 -0.000003 -0.000018  0.000998 -0.014468 0.721478
19  1.207013 -0.000012 -0.000044  0.001593 -0.000026 -0.111145
20  5.740636 0.000410 -0.000702  -0.125500 0.000003 0.000070
21  11.480822 0.000301 -0.000902  -0.053201 -0.126139 -0.003032
22  6.027524 -0.000330 0.000203  1.872896 -0.597834 1.734276
23  0.000001 11.692098 -0.000007  -1.140556 -0.583759 -0.876167
24  0.000002 0.000009 -0.000002  -0.451164 -0.000030 1.570739
25  -0.000001 -0.000012 -0.000001  0.868957 0.000002 1.570712
26  -3.662932 -4.026425 0.376266  1.473120 1.855075 -0.198639
27  6.027504 -0.000261 -0.000230  1.423167 0.573276 -0.279644
28  11.691991 0.000242 0.000856  0.970530 0.000077 -1.898945
29  11.478815 -0.000086 0.001589  -1.620176 0.656233 0.157924
30  3.452865 -0.227594 1.051757  0.554395 -0.249329 -1.600262
31  1.312558 0.000023 0.000000  -0.098769 0.190475 -0.745635
32  0.729344 0.000064 -0.000026  -0.040117 -0.002456 -0.806801
33  3.942044 0.050110 0.430998  0.413054 -0.141259 -1.490445
34  1.539093 0.000008 -0.000001  -0.021081 0.020361 -1.007904
35  1.196299 0.000075 -0.000005  -0.004516 -0.001755 -0.733348
36  3.883413 -0.050497 -0.431086  0.224817 -0.215783 -1.187556
37  1.719562 -0.000072 -0.000002  -0.039730 0.066729 -1.510271
38  1.209197 0.000034 0.000010  -0.006946 -0.002847 -0.369175
39  3.806437 -0.112148 -1.295331  -0.054051 -0.227834 0.117305
40  1.719415 -0.000102 -0.000035  -0.097692 0.144287 -1.589631
41  1.099674 0.000022 0.000008  -0.022826 0.002293 -0.615703
42  0.943593 -0.180488 -1.592590  1.077226 0.106495 -0.817774
43  1.789780 -0.000008 -0.000042  0.023056 0.021409 -0.019466
44  1.206995 -0.000004 0.000004  0.206835 0.095578 1.319988
45  5.740573 0.000056 0.000724  0.006947 -0.000014 0.000021
46  11.480709 0.000018 0.001068  -0.020151 0.108550 0.023847
47  6.027515 -0.000273 -0.000237  -0.774075 -0.682738 -1.297847
48  -0.000002 11.691973 -0.000007  -1.264223 0.710146 0.937322
49  0.000003 -0.000001 0.000002  -3.040130 -0.000041 1.570856
50  -0.000007 -0.000015 0.000005  2.272644 -0.000030 1.570865
51  -4.938873 -8.603653 -7.385700  3.037125 -0.161862 -1.366055
52  -0.000001 0.000000 0.000000  0.008153 -0.000259 0.000009
53  0.000000 0.000000 -0.000001  1.565115 0.043565 -0.106862
54  -0.302880 -14.643943 -6.164790  -0.927498 -0.093310 -1.990220
55  -0.000001 0.000000 -0.000000  0.000000 -0.000000 -0.000002
56  0.000028 0.000029 0.000001  -1.571902 -0.044449 -0.106509
57  8.838223 -16.138317 -16.427357  1.570796 -0.000000 0.000000
58  -21.089123 6.899941 -12.297750  1.570796 -0.000000 0.000000
59  -0.670483 -0.210714 -4.109488  1.570796 -0.000000 0.000000
60  -0.004311 0.001230 -0.000371  0.006898 -0.005534 -0.284229
61  0.376268 4.613964 -2.887995  1.570796 -0.000000 0.000000
62  0.000000 0.000000 0.000000  -0.078727 -3.136056 0.284226
63  -2.808390 -1.771285 0.065070  1.570796 -0.000000 0.000000
64  -2.820685 -6.230966 -4.098151  1.575554 -0.000888 0.001791
65  0.032837 -0.689313 7.041599  0.174533 0.000000 -0.000000
66  0.000003 0.704706 -1.522918  -0.000000 -0.000000 -0.021737
67  -1.069344 0.255757 -1.438859  -0.000000 0.000000 -0.000000
68  0.000004 0.704705 21.133167  0.000000 -0.000000 0.000000
69  0.675334 -0.627302 0.013843  0.000000 -0.000000 0.000000
70  0.799380 0.098867 -2.766578  0.000000 -0.000000 0.000000
71  -2.786889 -6.976525 -4.747386  1.575554 -0.000888 0.001791
72  0.116050 0.879028 -1.115068  0.000000 -0.000000 0.000000
73  -0.179815 0.692453 -1.115067  0.000000 -0.000000 0.000000
74  0.116050 0.505895 -1.115068  0.000000 -0.000000 0.000000
time 5
0  0.000006 0.000000 0.000000  -1.570800 -1.391899 -1.570792
1  -4.005264 0.938027 -0.674797  -1.544956 -1.855077 -0.198630
2  6.027520 -0.000324 0.000194  -1.115361 -0.912897 -0.904707
3  11.692106 0.000645 -0.000741  -1.320269 -0.000034 -1.675988
4  11.479153 0.000451 -0.001190  1.194845 -0.701172 0.176504
5  3.859509 -0.142880 -1.192050  -0.808216 0.180883 -1.766569
6  1.312590 0.000013 0.000007  -0.134119 0.018600 -0.222836
7  0.729356 0.000054 0.000047  -0.010622 0.003162 -0.217260
8  3.942142 0.046273 -0.431512  -0.538225 0.377343 -1.371180
9  1.539110 0.000085 0.000005  -0.021913 0.026158 -0.368911
10  1.196330 0.000146 0.000029  -0.003283 0.005640 -0.955971
11  3.883506 -0.047269 0.431382  -0.260797 0.647751 -0.838050
12  1.719573 -0.000025 0.000015  0.020427 -0.004375 -0.655133
13  1.209180 0.000090 0.000011  -0.014836 -0.011036 -1.011941
14  4.085223 -0.082716 1.151041  -0.077716 0.789856 -0.318308
15  1.719449 -0.000011 0.000022  -0.021301 0.141559 -0.357422
16  1.099675 0.000048 0.000003  -0.073264 0.059305 -1.155833
17  0.686691 -1.660588 0.827510  -0.980456 -0.615764 -0.268880
18  1.789820 -0.000003 -0.000019  0.000998 -0.014468 0.721478
19  1.207014 -0.000012 -0.000044  0.001593 -0.000026 -0.111145
20  5.740636 0.000411 -0.000704  -0.123446 0.000003 0.000071
21  11.480837 0.000303 -0.000896  -0.052858 -0.124377 -0.002588
22  6.027524 -0.000330 0.000203  1.871893 -0.594367 1.730506
23  0.000000 11.692098 -0.000006  -1.132985 -0.576189 -0.871972
24  0.000003 0.000008 -0.000002  -0.451164 -0.000030 1.570738
25  -0.000001 -0.000011 -0.000000  0.868957 0.000002 1.570712
26  -3.662932 -4.026425 0.376266  1.473120 1.855075 -0.198639
27  6.027504 -0.000261 -0.000230  1.423725 0.580865 -0.280137
28  11.691992 0.000244 0.000856  0.970530 0.000075 -1.884997
29  11.478939 -0.000054 0.001536  -1.619844 0.649366 0.153755
30  3.452865 -0.227595 1.051757  0.554395 -0.249329 -1.600262
31  1.312558 0.000024 -0.000001  -0.098769 0.190475 -0.745635
32  0.729343 0.000064 -0.000025  -0.040117 -0.002456 -0.806801
33  3.942045 0.050109 0.430999  0.413054 -0.141259 -1.490445
34  1.539093 0.000008 -0.000002  -0.021081 0.020361 -1.007904
35  1.196299 0.000075 -0.000005  -0.004516 -0.001755 -0.733348
36  3.883413 -0.050498 -0.431086  0.224817 -0.215783 -1.187556
37  1.719562 -0.000073 -0.000002  -0.039730 0.066729 -1.510271
38  1.209199 0.000034 0.000010  -0.006946 -0.002847 -0.369175
39  3.806437 -0.112149 -1.295330  -0.035444 -0.191288 0.129310
40  1.719413 -0.000102 -0.000034  -0.075727 0.165001 -1.455394
41  1.099674 0.000022 0.000008  -0.022847 0.005440 -0.480259
42  0.943595 -0.180489 -1.592589  1.077226 0.106495 -0.817774
43  1.789780 -0.000007 -0.000042  0.023056 0.021409 -0.019466
44  1.206995 -0.000003 0.000004  0.206835 0.095578 1.319988
45  5.740571 0.000054 0.000724  0.006758 -0.000014 0.000021
46  11.480731 0.000024 0.001057  -0.019796 0.107214 0.023018
47  6.027515 -0.000273 -0.000237  -0.782057 -0.678341 -1.293622
48  -0.000001 11.691974 -0.000005  -1.255918 0.701572 0.933704
49  0.000003 -0.000003 0.000002  -3.040130 -0.000041 1.570856
50  -0.000007 -0.000015 0.000005  2.272644 -0.000030 1.570865
51  -4.931530 -8.735524 -7.395346  3.037835 -0.162654 -1.364793
52  -0.000001 0.000000 0.000001  0.008153 -0.000259 0.000009
53  0.000001 -0.000001 0.000000  1.565115 0.043565 -0.106862
54  -0.288263 -14.768646 -6.166686  -0.926462 -0.093543 -1.988940
55  -0.000001 -0.000000 -0.000000  0.000000 -0.000000 -0.000002
56  0.000030 0.000029 0.000001  -1.571901 -0.044449 -0.106509
57  8.838223 -16.138317 -16.427357  1.570796 -0.000000 0.000000
58  -21.089123 6.899941 -12.297750  1.570796 -0.000000 0.000000
59  -0.670483 -0.210714 -4.109488  1.570796 -0.000000 0.000000
60  -0.004311 0.001230 -0.000371  0.006898 -0.005534 -0.284229
61  0.376268 4.613964 -2.887995  1.570796 -0.000000 0.000000
62  0.000000 0.000000 0.000000  -0.078727 -3.136056 0.284226
63  -2.808390 -1.771285 0.065070  1.570796 -0.000000 0.000000
64  -2.819402 -6.357844 -4.107505  1.574920 -0.001734 0.003169
65  0.032837 -0.689314 7.041599  0.087266 0.000000 -0.000000
66  0.000003 0.704705 -1.522917  0.000000 0.000000 0.000000
67  -1.069343 0.255757 -1.438859  0.000000 0.000000 0.000000
68  0.000003 0.704704 21.133165  0.000000 0.000000 0.000000
69  0.675334 -0.627303 0.013843  0.000000 0.000000 0.000000
70  0.799380 0.098866 -2.766578  0.000000 0.000000 0.000000
71  -2.784028 -7.103765 -4.756239  1.574920 -0.001734 0.003169
72  0.116050 0.879028 -1.115068  0.000000 0.000000 0.000000
73  -0.179815 0.692454 -1.115068  0.000000 0.000000 0.000000
74  0.116050 0.505895 -1.115067  0.000000 0.000000 0.000000
time 6
0  0.000006 0.000000 0.000000  -1.570800 -1.391899 -1.570792
1  -4.005264 0.938027 -0.674797  -1.544956 -1.855077 -0.198630
2  6.027520 -0.000324 0.000194  -1.114833 -0.917728 -0.908810
3  11.692108 0.000645 -0.000740  -1.320269 -0.000033 -1.662316
4  11.479247 0.000462 -0.001145  1.197272 -0.690791 0.174989
5  3.859509 -0.142880 -1.192050  -0.808216 0.180883 -1.766569
6  1.312589 0.000012 0.000007  -0.134119 0.018600 -0.222836
7  0.729355 0.000054 0.000047  -0.010622 0.003162 -0.217260
8  3.942144 0.046273 -0.431512  -0.538224 0.377343 -1.371180
9  1.539109 0.000085 0.000004  -0.021913 0.026158 -0.368911
10  1.196333 0.000146 0.000030  -0.003283 0.005640 -0.955971
11  3.883506 -0.047269 0.431381  -0.260797 0.647751 -0.838050
12  1.719573 -0.000025 0.000016  0.020427 -0.004375 -0.655133
13  1.209179 0.000090 0.000013  -0.014835 -0.011036 -1.011941
14  4.085222 -0.082716 1.151040  -0.077716 0.789856 -0.318308
15  1.719449 -0.000012 0.000022  -0.021301 0.141559 -0.357422
16  1.099675 0.000049 0.000005  -0.073264 0.059305 -1.155833
17  0.686693 -1.660587 0.827510  -0.980456 -0.615764 -0.268880
18  1.789819 -0.000003 -0.000018  0.000998 -0.014468 0.721478
19  1.207013 -0.000012 -0.000044  0.001593 -0.000026 -0.111145
20  5.740636 0.000410 -0.000703  -0.121604 0.000003 0.000070
21  11.480857 0.000304 -0.000887  -0.052861 -0.122275 -0.002334
22  6.027524 -0.000330 0.000203  1.868734 -0.590295 1.728585
23  0.000000 11.692099 -0.000006  -1.124973 -0.568210 -0.867483
24  0.000004 0.000009 -0.000002  -0.451164 -0.000031 1.570739
25  -0.000000 -0.000012 -0.000000  0.868957 0.000002 1.570712
26  -3.662932 -4.026425 0.376266  1.473120 1.855075 -0.198639
27  6.027504 -0.000261 -0.000230  1.424863 0.587349 -0.280108
28  11.691993 0.000244 0.000856  0.970530 0.000075 -1.872470
29  11.479047 -0.000019 0.001491  -1.621317 0.644835 0.149596
30  3.452864 -0.227594 1.051756  0.554395 -0.249329 -1.600262
31  1.312558 0.000024 0.000000  -0.098769 0.190475 -0.745635
32  0.729345 0.000064 -0.000027  -0.040117 -0.002456 -0.806801
33  3.942045 0.050109 0.430998  0.413054 -0.141259 -1.490445
34  1.539093 0.000008 -0.000002  -0.021081 0.020361 -1.007904
35  1.196300 0.000074 -0.000004  -0.004516 -0.001755 -0.733348
36  3.883411 -0.050498 -0.431086  0.224817 -0.215783 -1.187556
37  1.719561 -0.000073 -0.000002  -0.039730 0.066729 -1.510271
38  1.209200 0.000034 0.000010  -0.006946 -0.002847 -0.369175
39  3.806437 -0.112149 -1.295330  -0.016512 -0.154969 0.141925
40  1.719415 -0.000101 -0.000035  -0.051066 0.182614 -1.320276
41  1.099674 0.000022 0.000009  -0.022442 0.008561 -0.344812
42  0.943594 -0.180488 -1.592589  1.077226 0.106495 -0.817774
43  1.789780 -0.000007 -0.000043  0.023056 0.021409 -0.019466
44  1.206996 -0.000003 0.000004  0.206835 0.095578 1.319988
45  5.740572 0.000056 0.000726  0.006336 -0.000014 0.000021
46  11.480754 0.000032 0.001048  -0.019816 0.106315 0.022308
47  6.027515 -0.000273 -0.000237  -0.788460 -0.674097 -1.290214
48  -0.000000 11.691974 -0.000006  -1.248475 0.693892 0.930398
49  0.000005 -0.000002 0.000001  -3.040130 -0.000041 1.570856
50  -0.000006 -0.000015 0.000005  2.272644 -0.000030 1.570865
51  -4.932819 -8.854479 -7.399991  3.037002 -0.164029 -1.365824
52  0.000000 0.000000 -0.000000  0.008153 -0.000259 0.000009
53  0.000000 -0.000000 -0.000000  1.565115 0.043565 -0.106862
54  -0.295947 -14.891153 -6.164629  -0.926325 -0.095139 -1.990120
55  0.000000 -0.000000 0.000001  0.000000 -0.000000 -0.000002
56  0.000029 0.000029 0.000001  -1.571901 -0.044449 -0.106509
57  8.838223 -16.138317 -16.427357  1.570796 -0.000000 0.000000
58  -21.089123 6.899941 -12.297750  1.570796 -0.000000 0.000000
59  -0.670483 -0.210714 -4.109488  1.570796 -0.000000 0.000000
60  -0.004311 0.001230 -0.000371  0.006898 -0.005534 -0.284229
61  0.376268 4.613964 -2.887995  1.570796 -0.000000 0.000000
62  0.000000 0.000000 0.000000  -0.078727 -3.136056 0.284226
63  -2.808390 -1.771285 0.065070  1.570796 -0.000000 0.000000
64  -2.816192 -6.474295 -4.116858  1.573407 -0.001206 0.002005
65  0.032837 -0.689314 7.041599  -0.000000 -0.000000 -0.000000
66  0.000003 0.704706 -1.522920  -0.000000 -0.000000 0.022051
67  -1.069343 0.255757 -1.438860  0.000000 0.000000 0.000000
68  0.000004 0.704705 21.133167  -0.000000 -0.000000 -0.000000
69  0.675334 -0.627302 0.013842  -0.000000 -0.000000 -0.000000
70  0.799381 0.098867 -2.766580  -0.000000 -0.000000 -0.000000
71  -2.782029 -7.221238 -4.764482  1.573407 -0.001206 0.002005
72  0.116050 0.879029 -1.115068  -0.000000 -0.000000 -0.000000
73  -0.179815 0.692454 -1.115068  -0.000000 -0.000000 -0.000000
74  0.116050 0.505896 -1.115068  -0.000000 -0.000000 -0.000000
time 7
0  0.000006 0.000000 0.000000  -1.570800 -1.391899 -1.570792
1  -4.005264 0.938027 -0.674797  -1.544956 -1.855077 -0.198630
2  6.027520 -0.000324 0.000194  -1.113460 -0.922210 -0.912561
3  11.692108 0.000647 -0.000741  -1.320269 -0.000032 -1.651311
4  11.479321 0.000474 -0.001106  1.198597 -0.681753 0.173361
5  3.859507 -0.142881 -1.192049  -0.808216 0.180883 -1.766569
6  1.312590 0.000012 0.000007  -0.134119 0.018600 -0.222836
7  0.729355 0.000054 0.000049  -0.010622 0.003162 -0.217260
8  3.942142 0.046272 -0.431511  -0.538224 0.377344 -1.371180
9  1.539111 0.000086 0.000004  -0.021913 0.026158 -0.368911
10  1.196331 0.000147 0.000029  -0.003283 0.005640 -0.955971
11  3.883502 -0.047270 0.431382  -0.260797 0.647751 -0.838050
12  1.719573 -0.000025 0.000015  0.020427 -0.004375 -0.655133
13  1.209179 0.000091 0.000011  -0.014836 -0.011036 -1.011941
14  4.085222 -0.082716 1.151042  -0.077716 0.789856 -0.318308
15  1.719449 -0.000013 0.000021  -0.021301 0.141559 -0.357422
16  1.099675 0.000048 0.000006  -0.073264 0.059305 -1.155833
17  0.686691 -1.660587 0.827511  -0.980456 -0.615764 -0.268880
18  1.789820 -0.000004 -0.000018  0.000998 -0.014468 0.721478
19  1.207016 -0.000012 -0.000043  0.001593 -0.000026 -0.111145
20  5.740637 0.000410 -0.000702  -0.120272 0.000003 0.000071
21  11.480872 0.000307 -0.000878  -0.053018 -0.120449 -0.002229
22  6.027524 -0.000330 0.000203  1.865262 -0.586768 1.727854
23  0.000001 11.692097 -0.000006  -1.118524 -0.561810 -0.863832
24  0.000003 0.000008 -0.000001  -0.451164 -0.000030 1.570739
25  -0.000001 -0.000012 0.000000  0.868957 0.000002 1.570712
26  -3.662932 -4.026425 0.376266  1.473120 1.855075 -0.198639
27  6.027504 -0.000261 -0.000230  1.426064 0.591922 -0.279812
28  11.691991 0.000243 0.000857  0.970530 0.000074 -1.863403
29  11.479127 0.000005 0.001454  -1.623563 0.642482 0.146205
30  3.452865 -0.227594 1.051756  0.554395 -0.249329 -1.600262
31  1.312558 0.000024 -0.000001  -0.098769 0.190475 -0.745635
32  0.729345 0.000064 -0.000026  -0.040117 -0.002457 -0.806801
33  3.942045 0.050110 0.430999  0.413054 -0.141259 -1.490445
34  1.539093 0.000010 -0.000001  -0.021081 0.020361 -1.007904
35  1.196299 0.000075 -0.000005  -0.004516 -0.001755 -0.733348
36  3.883413 -0.050497 -0.431086  0.224817 -0.215783 -1.187556
37  1.719562 -0.000073 -0.000003  -0.039730 0.066729 -1.510271
38  1.209199 0.000033 0.000010  -0.006946 -0.002847 -0.369175
39  3.806438 -0.112148 -1.295330  -0.018325 -0.158553 0.140138
40  1.719414 -0.000102 -0.000035  -0.053589 0.181072 -1.334643
41  1.099674 0.000022 0.000008  -0.022703 0.007717 -0.382273
42  0.943595 -0.180488 -1.592590  1.077226 0.106495 -0.817774
43  1.789779 -0.000008 -0.000043  0.023056 0.021409 -0.019466
44  1.206995 -0.000004 0.000004  0.206835 0.095578 1.319988
45  5.740572 0.000056 0.000723  0.005867 -0.000014 0.000021
46  11.480770 0.000037 0.001041  -0.020048 0.105833 0.021795
47  6.027515 -0.000273 -0.000237  -0.792728 -0.670817 -1.287926
48  -0.000002 11.691974 -0.000005  -1.243097 0.688344 0.927972
49  0.000004 -0.000002 -0.000000  -3.040130 -0.000041 1.570856
50  -0.000007 -0.000015 0.000005  2.272644 -0.000030 1.570865
51  -4.937613 -8.940969 -7.400424  3.035480 -0.165563 -1.367743
52  -0.000001 0.000000 -0.000001  0.008153 -0.000259 0.000009
53  0.000001 0.000000 -0.000000  1.565115 0.043565 -0.106862
54  -0.312402 -14.985449 -6.159523  -0.926648 -0.097261 -1.992257
55  0.000001 0.000001 -0.000000  0.000000 -0.000000 -0.000002
56  0.000030 0.000030 0.000001  -1.571902 -0.044449 -0.106509
57  8.838223 -16.138317 -16.427357  1.570796 -0.000000 0.000000
58  -21.089123 6.899941 -12.297750  1.570796 -0.000000 0.000000
59  -0.670483 -0.210714 -4.109488  1.570796 -0.000000 0.000000
60  -0.004311 0.001230 -0.000371  0.006898 -0.005534 -0.284229
61  0.376268 4.613964 -2.887995  1.570796 -0.000000 0.000000
62  0.000000 0.000000 0.000000  -0.078727 -3.136056 0.284226
63  -2.808390 -1.771285 0.065070  1.570796 -0.000000 0.000000
64  -2.812020 -6.559460 -4.124053  1.571602 -0.000045 -0.000162
65  0.032837 -0.689313 7.041600  -0.000000 -0.000000 -0.000000
66  0.000003 0.704706 -1.522918  -0.000000 0.000000 0.011025
67  -1.069343 0.255757 -1.438859  -0.000000 0.000000 -0.000000
68  0.000004 0.704705 21.133169  -0.000000 -0.000000 -0.000000
69  0.675334 -0.627302 0.013842  -0.000000 -0.000000 -0.000000
70  0.799380 0.098867 -2.766580  -0.000000 -0.000000 -0.000000
71  -2.780228 -7.307642 -4.770363  1.571602 -0.000045 -0.000162
72  0.116050 0.879029 -1.115068  -0.000000 -0.000000 -0.000000
73  -0.179815 0.692454 -1.115067  -0.000000 -0.000000 -0.000000
74  0.116050 0.505895 -1.115067  -0.000000 -0.000000 -0.000000
time 8
0  0.000006 0.000000 0.000000  -1.570800 -1.391899 -1.570792
1  -4.005264 0.938027 -0.674797  -1.544956 -1.855077 -0.198630
2  6.027520 -0.000324 0.000194  -1.112897 -0.924338 -0.914357
3  11.692106 0.000645 -0.000740  -1.320269 -0.000032 -1.646704
4  11.479352 0.000479 -0.001091  1.199316 -0.677489 0.172086
5  3.859510 -0.142879 -1.192050  -0.808216 0.180883 -1.766569
6  1.312589 0.000013 0.000009  -0.134119 0.018600 -0.222836
7  0.729356 0.000053 0.000049  -0.010622 0.003162 -0.217260
8  3.942143 0.046274 -0.431513  -0.538224 0.377343 -1.371180
9  1.539110 0.000085 0.000006  -0.021913 0.026158 -0.368911
10  1.196331 0.000146 0.000029  -0.003283 0.005640 -0.955971
11  3.883505 -0.047268 0.431381  -0.260797 0.647751 -0.838050
12  1.719572 -0.000025 0.000015  0.020427 -0.004375 -0.655133
13  1.209179 0.000092 0.000011  -0.014836 -0.011036 -1.011941
14  4.085222 -0.082714 1.151040  -0.077716 0.789856 -0.318308
15  1.719448 -0.000010 0.000024  -0.021301 0.141559 -0.357422
16  1.099675 0.000049 0.000007  -0.073264 0.059305 -1.155833
17  0.686691 -1.660586 0.827509  -0.980456 -0.615764 -0.268880
18  1.789820 -0.000003 -0.000019  0.000998 -0.014468 0.721478
19  1.207016 -0.000012 -0.000044  0.001593 -0.000026 -0.111145
20  5.740636 0.000411 -0.000704  -0.119760 0.000003 0.000071
21  11.480878 0.000308 -0.000876  -0.053097 -0.119574 -0.002272
22  6.027524 -0.000330 0.000203  1.863679 -0.585064 1.727382
23  0.000001 11.692098 -0.000006  -1.115824 -0.559137 -0.862293
24  0.000002 0.000008 -0.000003  -0.451164 -0.000030 1.570739
25  -0.000001 -0.000011 -0.000000  0.868957 0.000002 1.570712
26  -3.662932 -4.026425 0.376266  1.473120 1.855075 -0.198639
27  6.027504 -0.000261 -0.000230  1.426817 0.593868 -0.279520
28  11.691993 0.000243 0.000856  0.970530 0.000074 -1.859749
29  11.479162 0.000016 0.001441  -1.625561 0.641683 0.144360
30  3.452866 -0.227595 1.051756  0.554395 -0.249329 -1.600262
31  1.312558 0.000024 -0.000001  -0.098769 0.190475 -0.745635
32  0.729344 0.000064 -0.000027  -0.040117 -0.002456 -0.806801
33  3.942045 0.050110 0.430999  0.413054 -0.141259 -1.490445
34  1.539093 0.000007 -0.000001  -0.021081 0.020361 -1.007904
35  1.196300 0.000075 -0.000005  -0.004516 -0.001755 -0.733348
36  3.883413 -0.050498 -0.431086  0.224817 -0.215783 -1.187556
37  1.719562 -0.000073 -0.000003  -0.039730 0.066729 -1.510271
38  1.209198 0.000034 0.000009  -0.006946 -0.002847 -0.369175
39  3.806437 -0.112148 -1.295330  -0.023044 -0.167944 0.135490
40  1.719414 -0.000101 -0.000036  -0.060078 0.176872 -1.372200
41  1.099674 0.000022 0.000008  -0.023234 0.005460 -0.480517
42  0.943594 -0.180489 -1.592590  1.077226 0.106495 -0.817774
43  1.789779 -0.000007 -0.000042  0.023056 0.021409 -0.019466
44  1.206996 -0.000004 0.000003  0.206835 0.095578 1.319988
45  5.740573 0.000056 0.000725  0.005518 -0.000014 0.000021
46  11.480779 0.000040 0.001038  -0.020326 0.105655 0.021566
47  6.027515 -0.000273 -0.000237  -0.794402 -0.669250 -1.287016
48  -0.000001 11.691975 -0.000005  -1.240932 0.686112 0.926987
49  0.000003 -0.000001 0.000001  -3.040130 -0.000041 1.570856
50  -0.000006 -0.000015 0.000005  2.272644 -0.000030 1.570865
51  -4.940033 -8.976452 -7.397225  3.034016 -0.166809 -1.368669
52  0.000001 -0.000001 -0.000000  0.008153 -0.000259 0.000009
53  0.000001 -0.000000 -0.000000  1.565115 0.043565 -0.106862
54  -0.320440 -15.024452 -6.152561  -0.927092 -0.099116 -1.993382
55  -0.000001 0.000000 0.000000  0.000000 -0.000000 -0.000002
56  0.000029 0.000028 0.000001  -1.571901 -0.044449 -0.106509
57  8.838223 -16.138317 -16.427357  1.570796 -0.000000 0.000000
58  -21.089123 6.899941 -12.297750  1.570796 -0.000000 0.000000
59  -0.670483 -0.210714 -4.109488  1.570796 -0.000000 0.000000
60  -0.004311 0.001230 -0.000371  0.006898 -0.005534 -0.284229
61  0.376268 4.613964 -2.887995  1.570796 -0.000000 0.000000
62  0.000000 0.000000 0.000000  -0.078727 -3.136056 0.284226
63  -2.808390 -1.771285 0.065070  1.570796 -0.000000 0.000000
64  -2.807848 -6.592483 -4.126931  1.570090 0.001117 -0.001332
65  0.032837 -0.689314 7.041599  -0.000000 0.000000 -0.000000
66  0.000003 0.704706 -1.522918  -0.000000 0.000000 -0.000000
67  -1.069343 0.255757 -1.438859  -0.000000 0.000000 -0.000000
68  0.000004 0.704705 21.133169  -0.000000 0.000000 -0.000000
69  0.675334 -0.627302 0.013842  -0.000000 0.000000 -0.000000
70  0.799380 0.098867 -2.766580  -0.000000 0.000000 -0.000000
71  -2.777682 -7.341678 -4.772146  1.570090 0.001117 -0.001332
72  0.116050 0.879028 -1.115068  -0.000000 0.000000 -0.000000
73  -0.179815 0.692453 -1.115068  -0.000000 0.000000 -0.000000
74  0.116050 0.505895 -1.115068  -0.000000 0.000000 -0.000000
time 9
0  0.000006 0.000000 0.000000  -1.570800 -1.391899 -1.570792
1  -4.005264 0.938027 -0.674797  -1.544956 -1.855077 -0.198630
2  6.027520 -0.000324 0.000194  -1.113411 -0.923916 -0.914030
3  11.692106 0.000646 -0.000740  -1.320269 -0.000032 -1.648198
4  11.479345 0.000475 -0.001094  1.199531 -0.678169 0.171711
5  3.859508 -0.142879 -1.192050  -0.808216 0.180883 -1.766569
6  1.312588 0.000013 0.000009  -0.134119 0.018600 -0.222836
7  0.729356 0.000054 0.000049  -0.010622 0.003162 -0.217260
8  3.942144 0.046273 -0.431512  -0.538224 0.377343 -1.371180
9  1.539110 0.000084 0.000006  -0.021913 0.026158 -0.368911
10  1.196333 0.000144 0.000027  -0.003283 0.005640 -0.955971
11  3.883506 -0.047269 0.431381  -0.260797 0.647751 -0.838050
12  1.719573 -0.000026 0.000014  0.020427 -0.004375 -0.655133
13  1.209179 0.000092 0.000013  -0.014836 -0.011036 -1.011941
14  4.085222 -0.082716 1.151040  -0.077716 0.789856 -0.318308
15  1.719448 -0.000011 0.000022  -0.021301 0.141559 -0.357422
16  1.099675 0.000049 0.000006  -0.073264 0.059305 -1.155833
17  0.686692 -1.660586 0.827510  -0.980456 -0.615764 -0.268880
18  1.789819 -0.000004 -0.000019  0.000998 -0.014468 0.721478
19  1.207017 -0.000012 -0.000043  0.001593 -0.000026 -0.111145
20  5.740637 0.000410 -0.000702  -0.119949 0.000003 0.000071
21  11.480877 0.000308 -0.000875  -0.053053 -0.119696 -0.002353
22  6.027524 -0.000330 0.000203  1.864248 -0.585286 1.726985
23  0.000000 11.692098 -0.000007  -1.116700 -0.560004 -0.862793
24  0.000002 0.000008 -0.000000  -0.451164 -0.000031 1.570738
25  -0.000000 -0.000012 -0.000001  0.868957 0.000002 1.570712
26  -3.662932 -4.026425 0.376266  1.473120 1.855075 -0.198639
27  6.027504 -0.000261 -0.000230  1.426892 0.593510 -0.279430
28  11.691992 0.000243 0.000856  0.970530 0.000074 -1.860918
29  11.479148 0.000012 0.001443  -1.626408 0.642052 0.144262
30  3.452863 -0.227594 1.051756  0.554395 -0.249329 -1.600262
31  1.312558 0.000024 -0.000001  -0.098769 0.190475 -0.745635
32  0.729345 0.000064 -0.000025  -0.040117 -0.002456 -0.806801
33  3.942045 0.050110 0.430998  0.413054 -0.141259 -1.490445
34  1.539093 0.000008 -0.000001  -0.021081 0.020361 -1.007904
35  1.196299 0.000075 -0.000005  -0.004516 -0.001755 -0.733348
36  3.883413 -0.050497 -0.431086  0.224817 -0.215783 -1.187556
37  1.719562 -0.000074 -0.000003  -0.039730 0.066729 -1.510271
38  1.209197 0.000034 0.000010  -0.006946 -0.002847 -0.369175
39  3.806436 -0.112148 -1.295330  -0.027726 -0.177356 0.130879
40  1.719415 -0.000102 -0.000035  -0.066397 0.172435 -1.409701
41  1.099674 0.000020 0.000009  -0.023542 0.003163 -0.578760
42  0.943593 -0.180488 -1.592589  1.077226 0.106495 -0.817774
43  1.789780 -0.000008 -0.000043  0.023056 0.021409 -0.019466
44  1.206997 -0.000004 0.000003  0.206835 0.095578 1.319988
45  5.740572 0.000055 0.000724  0.005418 -0.000014 0.000021
46  11.480774 0.000038 0.001038  -0.020483 0.105716 0.021602
47  6.027515 -0.000273 -0.000237  -0.793974 -0.669389 -1.287233
48  -0.000002 11.691973 -0.000005  -1.241624 0.686826 0.927303
49  0.000003 -0.000002 -0.000000  -3.040130 -0.000041 1.570856
50  -0.000007 -0.000015 0.000005  2.272644 -0.000030 1.570865
51  -4.938093 -8.966090 -7.393336  3.033362 -0.167323 -1.368368
52  -0.000001 -0.000001 -0.000001  0.008153 -0.000259 0.000009
53  -0.000000 0.000000 0.000000  1.565115 0.043565 -0.106862
54  -0.316681 -15.012416 -6.147286  -0.927316 -0.099911 -1.993167
55  -0.000001 -0.000001 -0.000001  0.000000 -0.000000 -0.000002
56  0.000028 0.000029 0.000000  -1.571902 -0.044449 -0.106509
57  8.838223 -16.138317 -16.427357  1.570796 -0.000000 0.000000
58  -21.089123 6.899941 -12.297750  1.570796 -0.000000 0.000000
59  -0.670483 -0.210714 -4.109488  1.570796 -0.000000 0.000000
60  -0.004311 0.001230 -0.000371  0.006898 -0.005534 -0.284229
61  0.376268 4.613964 -2.887995  1.570796 -0.000000 0.000000
62  0.000000 0.000000 0.000000  -0.078727 -3.136056 0.284226
63  -2.808390 -1.771285 0.065070  1.570796 -0.000000 0.000000
64  -2.804638 -6.579640 -4.125682  1.569456 0.001645 -0.001140
65  0.032837 -0.689314 7.041600  0.000000 0.000000 -0.000000
66  0.000003 0.704706 -1.522918  0.000000 0.000000 -0.000000
67  -1.069343 0.255757 -1.438859  0.000000 0.000000 -0.000000
68  0.000003 0.704705 21.133167  0.000000 0.000000 -0.000000
69  0.675334 -0.627302 0.013842  0.000000 0.000000 -0.000000
70  0.799381 0.098867 -2.766579  0.000000 0.000000 -0.000000
71  -2.774669 -7.329238 -4.770439  1.569456 0.001645 -0.001140
72  0.116050 0.879029 -1.115067  0.000000 0.000000 -0.000000
73  -0.179815 0.692454 -1.115068  0.000000 0.000000 -0.000000
74  0.116050 0.505895 -1.115068  0.000000 0.000000 -0.000000
time 10
0  0.000006 0.000000 0.000000  -1.570800 -1.391899 -1.570792
1  -4.005264 0.938027 -0.674797  -1.544956 -1.855077 -0.198630
2  6.027520 -0.000324 0.000194  -1.114012 -0.922563 -0.912909
3  11.692108 0.000645 -0.000741  -1.320269 -0.000032 -1.651957
4  11.479317 0.000472 -0.001110  1.199283 -0.680866 0.172192
5  3.859509 -0.142880 -1.192049  -0.808216 0.180883 -1.766569
6  1.312589 0.000013 0.000008  -0.134119 0.018600 -0.222836
7  0.729355 0.000053 0.000047  -0.010622 0.003162 -0.217259
8  3.942142 0.046273 -0.431511  -0.538224 0.377343 -1.371180
9  1.539110 0.000086 0.000006  -0.021913 0.026158 -0.368911
10  1.196332 0.000146 0.000028  -0.003283 0.005640 -0.955971
11  3.883505 -0.047269 0.431382  -0.260797 0.647751 -0.838050
12  1.719573 -0.000027 0.000013  0.020427 -0.004375 -0.655133
13  1.209180 0.000088 0.000012  -0.014836 -0.011036 -1.011941
14  4.085222 -0.082715 1.151041  -0.077716 0.789856 -0.318308
15  1.719449 -0.000011 0.000021  -0.021301 0.141559 -0.357422
16  1.099675 0.000049 0.000005  -0.073264 0.059305 -1.155833
17  0.686693 -1.660587 0.827511  -0.980456 -0.615764 -0.268880
18  1.789819 -0.000003 -0.000019  0.000998 -0.014468 0.721478
19  1.207016 -0.000012 -0.000044  0.001593 -0.000026 -0.111145
20  5.740637 0.000410 -0.000703  -0.120385 0.000003 0.000070
21  11.480869 0.000307 -0.000881  -0.052981 -0.120239 -0.002374
22  6.027524 -0.000330 0.000203  1.865409 -0.586298 1.726985
23  0.000002 11.692099 -0.000008  -1.118903 -0.562185 -0.864047
24  0.000002 0.000008 -0.000001  -0.451164 -0.000031 1.570739
25  0.000000 -0.000011 -0.000001  0.868957 0.000002 1.570712
26  -3.662932 -4.026425 0.376266  1.473120 1.855075 -0.198639
27  6.027504 -0.000261 -0.000230  1.426577 0.592065 -0.279483
28  11.691992 0.000244 0.000857  0.970530 0.000074 -1.864118
29  11.479118 0.000001 0.001457  -1.626187 0.643240 0.145109
30  3.452865 -0.227594 1.051755  0.554395 -0.249329 -1.600262
31  1.312559 0.000023 -0.000001  -0.098769 0.190475 -0.745635
32  0.729344 0.000066 -0.000027  -0.040117 -0.002456 -0.806801
33  3.942045 0.050110 0.430997  0.413054 -0.141259 -1.490445
34  1.539093 0.000008 -0.000002  -0.021081 0.020361 -1.007904
35  1.196299 0.000075 -0.000005  -0.004516 -0.001755 -0.733348
36  3.883412 -0.050497 -0.431086  0.224817 -0.215783 -1.187556
37  1.719562 -0.000073 -0.000003  -0.039730 0.066729 -1.510271
38  1.209198 0.000035 0.000010  -0.006946 -0.002847 -0.369175
39  3.806437 -0.112147 -1.295330  -0.029507 -0.180960 0.129126
40  1.719414 -0.000102 -0.000035  -0.068765 0.170678 -1.424016
41  1.099674 0.000021 0.000008  -0.023599 0.002280 -0.616218
42  0.943594 -0.180488 -1.592590  1.077226 0.106495 -0.817774
43  1.789779 -0.000007 -0.000041  0.023056 0.021409 -0.019466
44  1.206996 -0.000004 0.000004  0.206835 0.095578 1.319988
45  5.740572 0.000056 0.000723  0.005520 -0.000014 0.000021
46  11.480766 0.000036 0.001041  -0.020497 0.105951 0.021753
47  6.027515 -0.000273 -0.000237  -0.792592 -0.670381 -1.287969
48  -0.000002 11.691975 -0.000006  -1.243521 0.688781 0.928164
49  0.000004 -0.000002 -0.000001  -3.040130 -0.000041 1.570856
50  -0.000007 -0.000015 0.000005  2.272644 -0.000030 1.570865
51  -4.935078 -8.936043 -7.390993  3.033580 -0.167242 -1.367945
52  -0.000000 0.000000 -0.000000  0.008153 -0.000259 0.000009
53  0.000001 0.000000 -0.000001  1.565115 0.043565 -0.106862
54  -0.311128 -14.980395 -6.144792  -0.927189 -0.099719 -1.992720
55  -0.000000 -0.000000 0.000001  0.000000 -0.000000 -0.000002
56  0.000029 0.000028 0.000001  -1.571901 -0.044449 -0.106509
57  8.838223 -16.138317 -16.427357  1.570796 -0.000000 0.000000
58  -21.089123 6.899941 -12.297750  1.570796 -0.000000 0.000000
59  -0.670483 -0.210714 -4.109488  1.570796 -0.000000 0.000000
60  -0.004311 0.001230 -0.000371  0.006898 -0.005534 -0.284229
61  0.376268 4.613964 -2.887995  1.570796 -0.000000 0.000000
62  0.000000 0.000000 0.000000  -0.078727 -3.136056 0.284226
63  -2.808390 -1.771285 0.065070  1.570796 -0.000000 0.000000
64  -2.803355 -6.549016 -4.122630  1.569579 0.001451 -0.000680
65  0.032837 -0.689314 7.041599  0.000000 0.000000 -0.000000
66  0.000002 0.704706 -1.522919  0.000000 0.000000 -0.000000
67  -1.069343 0.255757 -1.438859  0.000000 0.000000 -0.000000
68  0.000003 0.704705 21.133167  0.000000 0.000000 -0.000000
69  0.675334 -0.627302 0.013842  0.000000 0.000000 -0.000000
70  0.799380 0.098867 -2.766579  0.000000 0.000000 -0.000000
71  -2.772916 -7.298520 -4.767473  1.569579 0.001451 -0.000680
72  0.116050 0.879028 -1.115068  0.000000 0.000000 -0.000000
73  -0.179815 0.692453 -1.115068  0.000000 0.000000 -0.000000
74  0.116050 0.505895 -1.115068  0.000000 0.000000 -0.000000
time 11
0  0.000006 0.000000 0.000000  -1.570800 -1.391899 -1.570792
1  -4.005264 0.938027 -0.674797  -1.544956 -1.855077 -0.198630
2  6.027520 -0.000324 0.000194  -1.114532 -0.921013 -0.911616
3  11.692107 0.000645 -0.000741  -1.320269 -0.000032 -1.656398
4  11.479286 0.000468 -0.001123  1.198951 -0.684263 0.172897
5  3.859508 -0.142881 -1.192049  -0.808216 0.180883 -1.766569
6  1.312589 0.000012 0.000008  -0.134119 0.018600 -0.222836
7  0.729356 0.000054 0.000047  -0.010622 0.003162 -0.217260
8  3.942143 0.046273 -0.431512  -0.538224 0.377343 -1.371180
9  1.539109 0.000086 0.000004  -0.021913 0.026158 -0.368911
10  1.196332 0.000147 0.000030  -0.003283 0.005640 -0.955971
11  3.883503 -0.047269 0.431382  -0.260797 0.647751 -0.838050
12  1.719573 -0.000025 0.000016  0.020427 -0.004375 -0.655133
13  1.209179 0.000089 0.000012  -0.014836 -0.011036 -1.011942
14  4.085221 -0.082716 1.151041  -0.077716 0.789856 -0.318308
15  1.719449 -0.000011 0.000023  -0.021301 0.141559 -0.357422
16  1.099675 0.000046 0.000003  -0.073264 0.059305 -1.155833
17  0.686692 -1.660587 0.827511  -0.980456 -0.615764 -0.268880
18  1.789821 -0.000002 -0.000017  0.000998 -0.014468 0.721478
19  1.207016 -0.000012 -0.000044  0.001593 -0.000026 -0.111145
20  5.740636 0.000411 -0.000703  -0.120902 0.000003 0.000071
21  11.480864 0.000305 -0.000881  -0.052888 -0.120925 -0.002383
22  6.027524 -0.000330 0.000203  1.866637 -0.587506 1.727183
23  0.000001 11.692100 -0.000008  -1.121505 -0.564766 -0.865524
24  0.000003 0.000008 0.000001  -0.451164 -0.000031 1.570739
25  -0.000000 -0.000011 -0.000001  0.868957 0.000002 1.570712
26  -3.662932 -4.026425 0.376266  1.473120 1.855075 -0.198639
27  6.027504 -0.000261 -0.000230  1.426209 0.590200 -0.279525
28  11.691992 0.000242 0.000856  0.970530 0.000074 -1.867978
29  11.479087 -0.000008 0.001472  -1.625602 0.644615 0.146193
30  3.452864 -0.227594 1.051755  0.554395 -0.249329 -1.600262
31  1.312558 0.000022 -0.000000  -0.098769 0.190475 -0.745635
32  0.729343 0.000064 -0.000027  -0.040117 -0.002456 -0.806801
33  3.942045 0.050110 0.430998  0.413054 -0.141259 -1.490445
34  1.539093 0.000008 -0.000001  -0.021081 0.020361 -1.007904
35  1.196300 0.000075 -0.000004  -0.004516 -0.001755 -0.733348
36  3.883413 -0.050496 -0.431086  0.224817 -0.215783 -1.187556
37  1.719562 -0.000074 -0.000002  -0.039730 0.066729 -1.510271
38  1.209199 0.000034 0.000010  -0.006946 -0.002847 -0.369175
39  3.806437 -0.112148 -1.295331  -0.029507 -0.180960 0.129126
40  1.719412 -0.000102 -0.000035  -0.068765 0.170678 -1.424016
41  1.099674 0.000022 0.000008  -0.023599 0.002280 -0.616218
42  0.943594 -0.180488 -1.592589  1.077226 0.106495 -0.817774
43  1.789779 -0.000009 -0.000042  0.023056 0.021409 -0.019466
44  1.206996 -0.000004 0.000003  0.206835 0.095578 1.319988
45  5.740573 0.000055 0.000724  0.005694 -0.000014 0.000021
46  11.480762 0.000034 0.001044  -0.020457 0.106227 0.021926
47  6.027515 -0.000273 -0.000237  -0.790785 -0.671634 -1.288929
48  -0.000001 11.691975 -0.000005  -1.245810 0.691142 0.929200
49  0.000004 -0.000001 -0.000000  -3.040130 -0.000041 1.570856
50  -0.000006 -0.000015 0.000006  2.272644 -0.000030 1.570865
51  -4.932968 -8.899652 -7.388908  3.034102 -0.167033 -1.367483
52  0.000000 0.000000 -0.000000  0.008153 -0.000259 0.000009
53  -0.000000 0.000001 -0.000001  1.565115 0.043565 -0.106862
54  -0.306276 -14.941852 -6.142433  -0.926892 -0.099248 -1.992201
55  -0.000000 -0.000001 0.000000  0.000000 -0.000000 -0.000002
56  0.000030 0.000028 0.000000  -1.571901 -0.044449 -0.106509
57  8.838223 -16.138317 -16.427357  1.570796 -0.000000 0.000000
58  -21.089123 6.899941 -12.297750  1.570796 -0.000000 0.000000
59  -0.670483 -0.210714 -4.109488  1.570796 -0.000000 0.000000
60  -0.004311 0.001230 -0.000371  0.006898 -0.005534 -0.284229
61  0.376268 4.613964 -2.887995  1.570796 -0.000000 0.000000
62  0.000000 0.000000 0.000000  -0.078727 -3.136056 0.284226
63  -2.808390 -1.771285 0.065070  1.570796 -0.000000 0.000000
64  -2.804066 -6.512465 -4.118824  1.569888 0.000989 -0.000131
65  0.032837 -0.689314 7.041599  0.000000 0.000000 -0.000000
66  0.000003 0.704706 -1.522918  0.000000 0.000000 -0.000000
67  -1.069343 0.255757 -1.438859  0.000000 0.000000 -0.000000
68  0.000003 0.704705 21.133165  0.000000 0.000000 -0.000000
69  0.675334 -0.627303 0.013842  0.000000 0.000000 -0.000000
70  0.799380 0.098867 -2.766579  0.000000 0.000000 -0.000000
71  -2.772918 -7.261753 -4.763884  1.569888 0.000989 -0.000131
72  0.116050 0.879028 -1.115068  0.000000 0.000000 -0.000000
73  -0.179815 0.692453 -1.115068  0.000000 0.000000 -0.000000
74  0.116050 0.505895 -1.115068  0.000000 0.000000 -0.000000
time 12
0  0.000006 0.000000 0.000000  -1.570800 -1.391899 -1.570792
1  -4.005264 0.938027 -0.674797  -1.544956 -1.855077 -0.198630
2  6.027520 -0.000324 0.000194  -1.114874 -0.919731 -0.910542
3  11.692107 0.000645 -0.000741  -1.320269 -0.000033 -1.660110
4  11.479262 0.000467 -0.001137  1.198619 -0.687237 0.173634
5  3.859507 -0.142881 -1.192050  -0.808216 0.180883 -1.766569
6  1.312588 0.000013 0.000009  -0.134119 0.018600 -0.222836
7  0.729355 0.000054 0.000050  -0.010622 0.003162 -0.217260
8  3.942145 0.046272 -0.431512  -0.538224 0.377344 -1.371180
9  1.539111 0.000084 0.000006  -0.021913 0.026158 -0.368911
10  1.196332 0.000144 0.000029  -0.003283 0.005640 -0.955971
11  3.883506 -0.047270 0.431381  -0.260797 0.647751 -0.838050
12  1.719573 -0.000027 0.000014  0.020427 -0.004375 -0.655133
13  1.209179 0.000092 0.000011  -0.014835 -0.011036 -1.011941
14  4.085223 -0.082717 1.151040  -0.077716 0.789856 -0.318308
15  1.719449 -0.000013 0.000021  -0.021301 0.141559 -0.357422
16  1.099675 0.000047 0.000005  -0.073264 0.059305 -1.155833
17  0.686692 -1.660588 0.827510  -0.980456 -0.615764 -0.268880
18  1.789819 -0.000003 -0.000018  0.000998 -0.014468 0.721478
19  1.207017 -0.000012 -0.000044  0.001593 -0.000026 -0.111145
20  5.740637 0.000411 -0.000704  -0.121334 0.000003 0.000070
21  11.480861 0.000306 -0.000884  -0.052808 -0.121528 -0.002372
22  6.027524 -0.000330 0.000203  1.867597 -0.588529 1.727452
23  0.000001 11.692098 -0.000007  -1.123681 -0.566926 -0.866754
24  0.000003 0.000009 -0.000000  -0.451164 -0.000030 1.570738
25  -0.000001 -0.000012 -0.000001  0.868957 0.000002 1.570712
26  -3.662932 -4.026425 0.376266  1.473120 1.855075 -0.198639
27  6.027504 -0.000261 -0.000230  1.425892 0.588567 -0.279557
28  11.691993 0.000243 0.000858  0.970530 0.000074 -1.871251
29  11.479056 -0.000017 0.001485  -1.624859 0.645775 0.147204
30  3.452865 -0.227594 1.051756  0.554395 -0.249329 -1.600262
31  1.312558 0.000023 -0.000000  -0.098769 0.190475 -0.745635
32  0.729344 0.000065 -0.000026  -0.040117 -0.002456 -0.806801
33  3.942045 0.050111 0.430999  0.413054 -0.141259 -1.490445
34  1.539093 0.000009 -0.000002  -0.021081 0.020361 -1.007904
35  1.196300 0.000074 -0.000005  -0.004516 -0.001755 -0.733348
36  3.883412 -0.050496 -0.431085  0.224817 -0.215783 -1.187556
37  1.719562 -0.000073 -0.000003  -0.039730 0.066729 -1.510271
38  1.209199 0.000034 0.000010  -0.006946 -0.002847 -0.369175
39  3.806437 -0.112147 -1.295329  -0.029507 -0.180960 0.129126
40  1.719414 -0.000101 -0.000036  -0.068765 0.170678 -1.424017
41  1.099674 0.000023 0.000008  -0.023599 0.002280 -0.616218
42  0.943593 -0.180487 -1.592589  1.077226 0.106495 -0.817774
43  1.789779 -0.000008 -0.000042  0.023056 0.021409 -0.019466
44  1.206996 -0.000004 0.000003  0.206835 0.095578 1.319988
45  5.740572 0.000056 0.000724  0.005880 -0.000014 0.000021
46  11.480755 0.000033 0.001047  -0.020381 0.106463 0.022075
47  6.027515 -0.000273 -0.000237  -0.789197 -0.672725 -1.289773
48  -0.000002 11.691973 -0.000006  -1.247751 0.693145 0.930073
49  0.000004 -0.000001 -0.000000  -3.040130 -0.000041 1.570856
50  -0.000007 -0.000016 0.000005  2.272644 -0.000030 1.570865
51  -4.931763 -8.868693 -7.387524  3.034732 -0.166751 -1.367127
52  0.000000 -0.000000 -0.000001  0.008153 -0.000259 0.000009
53  0.000000 0.000001 0.000001  1.565115 0.043565 -0.106862
54  -0.302979 -14.909264 -6.140922  -0.926551 -0.098656 -1.991774
55  0.000001 -0.000001 -0.000000  0.000000 -0.000000 -0.000002
56  0.000030 0.000028 0.000000  -1.571901 -0.044449 -0.106509
57  8.838223 -16.138317 -16.427357  1.570796 -0.000000 0.000000
58  -21.089123 6.899941 -12.297750  1.570796 -0.000000 0.000000
59  -0.670483 -0.210714 -4.109488  1.570796 -0.000000 0.000000
60  -0.004311 0.001230 -0.000371  0.006898 -0.005534 -0.284229
61  0.376268 4.613964 -2.887995  1.570796 -0.000000 0.000000
62  0.000000 0.000000 0.000000  -0.078727 -3.136056 0.284226
63  -2.808390 -1.771285 0.065070  1.570796 -0.000000 0.000000
64  -2.805763 -6.481840 -4.115307  1.570290 0.000437 0.000329
65  0.032837 -0.689314 7.041598  0.000000 -0.000000 -0.000000
66  0.000003 0.704706 -1.522919  0.000000 -0.000000 -0.000000
67  -1.069343 0.255757 -1.438860  0.000000 -0.000000 -0.000000
68  0.000004 0.704705 21.133167  0.000000 -0.000000 -0.000000
69  0.675334 -0.627302 0.013842  0.000000 -0.000000 -0.000000
70  0.799381 0.098867 -2.766580  0.000000 -0.000000 -0.000000
71  -2.773915 -7.230855 -4.760651  1.570290 0.000437 0.000329
72  0.116050 0.879028 -1.115068  0.000000 -0.000000 -0.000000
73  -0.179815 0.692454 -1.115068  0.000000 -0.000000 -0.000000
74  0.116050 0.505895 -1.115068  0.000000 -0.000000 -0.000000
time 13
0  0.000006 0.000000 0.000000  -1.570800 -1.391899 -1.570792
1  -4.005264 0.938027 -0.674797  -1.544956 -1.855077 -0.198630
2  6.027520 -0.000324 0.000194  -1.114915 -0.919196 -0.910086
3  11.692105 0.000645 -0.000740  -1.320269 -0.000033 -1.661681
4  11.479252 0.000464 -0.001142  1.198371 -0.688677 0.174192
5  3.859508 -0.142881 -1.192049  -0.808216 0.180883 -1.766569
6  1.312588 0.000013 0.000007  -0.134119 0.018600 -0.222836
7  0.729354 0.000054 0.000048  -0.010622 0.003162 -0.217260
8  3.942143 0.046273 -0.431511  -0.538224 0.377343 -1.371180
9  1.539110 0.000085 0.000006  -0.021913 0.026158 -0.368911
10  1.196332 0.000145 0.000030  -0.003283 0.005640 -0.955971
11  3.883502 -0.047270 0.431382  -0.260797 0.647751 -0.838050
12  1.719573 -0.000026 0.000016  0.020427 -0.004375 -0.655133
13  1.209179 0.000091 0.000010  -0.014836 -0.011036 -1.011941
14  4.085220 -0.082716 1.151041  -0.077716 0.789856 -0.318308
15  1.719449 -0.000012 0.000021  -0.021301 0.141559 -0.357422
16  1.099675 0.000049 0.000004  -0.073264 0.059305 -1.155833
17  0.686692 -1.660587 0.827511  -0.980456 -0.615764 -0.268880
18  1.789819 -0.000002 -0.000018  0.000998 -0.014468 0.721478
19  1.207014 -0.000012 -0.000045  0.001593 -0.000026 -0.111145
20  5.740638 0.000410 -0.000704  -0.121516 0.000003 0.000071
21  11.480858 0.000305 -0.000885  -0.052775 -0.121827 -0.002334
22  6.027524 -0.000330 0.000203  1.867933 -0.588985 1.727689
23  0.000002 11.692100 -0.000007  -1.124601 -0.567840 -0.867274
24  0.000002 0.000008 -0.000002  -0.451164 -0.000031 1.570739
25  0.000000 -0.000011 -0.000000  0.868957 0.000002 1.570712
26  -3.662932 -4.026425 0.376266  1.473120 1.855075 -0.198639
27  6.027504 -0.000261 -0.000230  1.425750 0.587796 -0.279566
28  11.691992 0.000243 0.000856  0.970530 0.000075 -1.872697
29  11.479044 -0.000019 0.001491  -1.624156 0.646294 0.147834
30  3.452865 -0.227595 1.051756  0.554395 -0.249329 -1.600262
31  1.312558 0.000022 -0.000000  -0.098769 0.190475 -0.745635
32  0.729344 0.000064 -0.000027  -0.040117 -0.002456 -0.806801
33  3.942044 0.050110 0.430999  0.413054 -0.141259 -1.490445
34  1.539093 0.000009 -0.000002  -0.021081 0.020361 -1.007904
35  1.196301 0.000074 -0.000005  -0.004516 -0.001755 -0.733348
36  3.883412 -0.050497 -0.431085  0.224817 -0.215783 -1.187556
37  1.719562 -0.000073 -0.000002  -0.039730 0.066729 -1.510271
38  1.209198 0.000034 0.000010  -0.006946 -0.002847 -0.369175
39  3.806437 -0.112148 -1.295330  -0.029507 -0.180960 0.129126
40  1.719414 -0.000101 -0.000036  -0.068765 0.170678 -1.424017
41  1.099674 0.000021 0.000008  -0.023599 0.002280 -0.616218
42  0.943594 -0.180488 -1.592590  1.077226 0.106495 -0.817774
43  1.789780 -0.000009 -0.000042  0.023056 0.021409 -0.019466
44  1.206996 -0.000004 0.000004  0.206835 0.095578 1.319988
45  5.740571 0.000056 0.000723  0.006021 -0.000014 0.000021
46  11.480752 0.000034 0.001047  -0.020286 0.106573 0.022152
47  6.027515 -0.000273 -0.000237  -0.788442 -0.673235 -1.290174
48  -0.000001 11.691975 -0.000005  -1.248610 0.694030 0.930458
49  0.000004 -0.000001 0.000001  -3.040130 -0.000041 1.570856
50  -0.000007 -0.000015 0.000005  2.272644 -0.000030 1.570865
51  -4.931815 -8.854945 -7.387284  3.035273 -0.166451 -1.367024
52  0.000000 -0.000000 -0.000000  0.008153 -0.000259 0.000009
53  -0.000000 0.000000 0.000000  1.565115 0.043565 -0.106862
54  -0.302442 -14.895124 -6.140970  -0.926292 -0.098101 -1.991607
55  -0.000000 -0.000001 0.000000  0.000000 -0.000000 -0.000002
56  0.000030 0.000028 0.000001  -1.571901 -0.044449 -0.106509
57  8.838223 -16.138317 -16.427357  1.570796 -0.000000 0.000000
58  -21.089123 6.899941 -12.297750  1.570796 -0.000000 0.000000
59  -0.670483 -0.210714 -4.109488  1.570796 -0.000000 0.000000
60  -0.004311 0.001230 -0.000371  0.006898 -0.005534 -0.284229
61  0.376268 4.613964 -2.887995  1.570796 -0.000000 0.000000
62  0.000000 0.000000 0.000000  -0.078727 -3.136056 0.284226
63  -2.808390 -1.771285 0.065070  1.570796 -0.000000 0.000000
64  -2.807788 -6.468997 -4.113128  1.570691 -0.000025 0.000522
65  0.032837 -0.689314 7.041599  0.000000 0.000000 0.000000
66  0.000003 0.704706 -1.522918  0.000000 0.000000 0.000000
67  -1.069343 0.255757 -1.438859  0.000000 0.000000 0.000000
68  0.000004 0.704705 21.133169  0.000000 0.000000 0.000000
69  0.675334 -0.627302 0.013842  0.000000 0.000000 0.000000
70  0.799380 0.098866 -2.766579  0.000000 0.000000 0.000000
71  -2.775496 -7.217747 -4.758757  1.570691 -0.000025 0.000522
72  0.116050 0.879029 -1.115068  0.000000 0.000000 0.000000
73  -0.179815 0.692454 -1.115068  0.000000 0.000000 0.000000
74  0.116050 0.505895 -1.115068  0.000000 0.000000 0.000000
time 14
0  0.000006 0.000000 0.000000  -1.570800 -1.391899 -1.570792
1  -4.005264 0.938027 -0.674797  -1.544956 -1.855077 -0.198630
2  6.027520 -0.000324 0.000194  -1.114720 -0.919684 -0.910489
3  11.692106 0.000645 -0.000740  -1.320269 -0.000033 -1.660255
4  11.479260 0.000464 -0.001138  1.198328 -0.687944 0.174413
5  3.859510 -0.142881 -1.192050  -0.808216 0.180883 -1.766569
6  1.312589 0.000013 0.000008  -0.134119 0.018600 -0.222836
7  0.729357 0.000053 0.000048  -0.010622 0.003162 -0.217260
8  3.942143 0.046272 -0.431513  -0.538224 0.377343 -1.371180
9  1.539110 0.000085 0.000005  -0.021913 0.026158 -0.368911
10  1.196333 0.000146 0.000028  -0.003283 0.005640 -0.955971
11  3.883505 -0.047270 0.431381  -0.260797 0.647751 -0.838050
12  1.719573 -0.000026 0.000014  0.020427 -0.004375 -0.655133
13  1.209180 0.000089 0.000012  -0.014835 -0.011036 -1.011941
14  4.085222 -0.082717 1.151040  -0.077716 0.789856 -0.318308
15  1.719450 -0.000011 0.000022  -0.021301 0.141559 -0.357422
16  1.099675 0.000048 0.000005  -0.073264 0.059305 -1.155833
17  0.686692 -1.660588 0.827510  -0.980456 -0.615764 -0.268880
18  1.789819 -0.000003 -0.000018  0.000998 -0.014468 0.721478
19  1.207016 -0.000012 -0.000044  0.001593 -0.000026 -0.111145
20  5.740636 0.000409 -0.000704  -0.121355 0.000003 0.000071
21  11.480860 0.000304 -0.000886  -0.052798 -0.121689 -0.002269
22  6.027524 -0.000330 0.000203  1.867527 -0.588615 1.727667
23  0.000002 11.692099 -0.000007  -1.123766 -0.567010 -0.866802
24  0.000002 0.000009 -0.000002  -0.451164 -0.000030 1.570738
25  -0.000000 -0.000012 -0.000001  0.868957 0.000002 1.570712
26  -3.662932 -4.026425 0.376266  1.473120 1.855075 -0.198639
27  6.027504 -0.000261 -0.000230  1.425928 0.588375 -0.279512
28  11.691992 0.000243 0.000855  0.970530 0.000074 -1.871471
29  11.479057 -0.000018 0.001486  -1.623619 0.645757 0.147938
30  3.452863 -0.227595 1.051757  0.554395 -0.249329 -1.600262
31  1.312558 0.000024 -0.000001  -0.098769 0.190475 -0.745635
32  0.729344 0.000065 -0.000026  -0.040117 -0.002456 -0.806801
33  3.942044 0.050110 0.430998  0.413054 -0.141259 -1.490445
34  1.539093 0.000008 -0.000001  -0.021081 0.020361 -1.007904
35  1.196300 0.000074 -0.000006  -0.004516 -0.001755 -0.733348
36  3.883411 -0.050498 -0.431086  0.224817 -0.215783 -1.187556
37  1.719562 -0.000074 -0.000002  -0.039730 0.066729 -1.510271
38  1.209197 0.000034 0.000010  -0.006946 -0.002847 -0.369175
39  3.806436 -0.112149 -1.295330  -0.029507 -0.180960 0.129126
40  1.719415 -0.000101 -0.000036  -0.068765 0.170678 -1.424016
41  1.099675 0.000021 0.000009  -0.023599 0.002280 -0.616218
42  0.943594 -0.180489 -1.592589  1.077226 0.106495 -0.817774
43  1.789780 -0.000008 -0.000042  0.023056 0.021409 -0.019466
44  1.206996 -0.000003 0.000003  0.206835 0.095578 1.319988
45  5.740573 0.000054 0.000723  0.006077 -0.000014 0.000021
46  11.480757 0.000032 0.001047  -0.020183 0.106474 0.022137
47  6.027515 -0.000273 -0.000237  -0.788969 -0.672802 -1.289890
48  -0.000001 11.691974 -0.000006  -1.247882 0.693280 0.930132
49  0.000004 -0.000001 0.000002  -3.040130 -0.000041 1.570856
50  -0.000007 -0.000015 0.000005  2.272644 -0.000030 1.570865
51  -4.933008 -8.866646 -7.387487  3.035529 -0.166188 -1.367121
52  -0.000000 -0.000000 -0.000000  0.008153 -0.000259 0.000009
53  -0.000000 -0.000001 0.000000  1.565115 0.043565 -0.106862
54  -0.304205 -14.907461 -6.142141  -0.926241 -0.097740 -1.991666
55  -0.000001 -0.000001 0.000000  0.000000 -0.000000 -0.000002
56  0.000028 0.000027 0.000000  -1.571901 -0.044449 -0.106509
57  8.838223 -16.138317 -16.427357  1.570796 -0.000000 0.000000
58  -21.089123 6.899941 -12.297750  1.570796 -0.000000 0.000000
59  -0.670483 -0.210714 -4.109488  1.570796 -0.000000 0.000000
60  -0.004311 0.001230 -0.000371  0.006898 -0.005534 -0.284229
61  0.376268 4.613964 -2.887995  1.570796 -0.000000 0.000000
62  0.000000 0.000000 0.000000  -0.078727 -3.136056 0.284226
63  -2.808390 -1.771285 0.065070  1.570796 -0.000000 0.000000
64  -2.809485 -6.481824 -4.112183  1.571000 -0.000219 0.000468
65  0.032837 -0.689314 7.041599  0.000000 0.000000 0.000000
66  0.000003 0.704705 -1.522918  0.000000 0.000000 0.000000
67  -1.069343 0.255757 -1.438859  0.000000 0.000000 0.000000
68  0.000003 0.704704 21.133169  0.000000 0.000000 0.000000
69  0.675334 -0.627302 0.013842  0.000000 0.000000 0.000000
70  0.799380 0.098866 -2.766579  0.000000 0.000000 0.000000
71  -2.777110 -7.230376 -4.758037  1.571000 -0.000219 0.000468
72  0.116050 0.879029 -1.115068  0.000000 0.000000 0.000000
73  -0.179815 0.692454 -1.115068  0.000000 0.000000 0.000000
74  0.116050 0.505895 -1.115068  0.000000 0.000000 0.000000
time 15
0  0.000006 0.000000 0.000000  -1.570800 -1.391899 -1.570792
1  -4.005264 0.938027 -0.674797  -1.544956 -1.855077 -0.198630
2  6.027520 -0.000324 0.000194  -1.114542 -0.920858 -0.911483
3  11.692107 0.000645 -0.000740  -1.320269 -0.000032 -1.656815
4  11.479284 0.000469 -0.001127  1.198569 -0.685714 0.174382
5  3.859509 -0.142881 -1.192049  -0.808216 0.180883 -1.766569
6  1.312589 0.000012 0.000006  -0.134119 0.018600 -0.222836
7  0.729357 0.000053 0.000050  -0.010622 0.003162 -0.217260
8  3.942141 0.046272 -0.431512  -0.538224 0.377343 -1.371180
9  1.539111 0.000086 0.000005  -0.021913 0.026158 -0.368911
10  1.196332 0.000145 0.000029  -0.003283 0.005640 -0.955971
11  3.883503 -0.047270 0.431381  -0.260797 0.647751 -0.838050
12  1.719573 -0.000024 0.000014  0.020427 -0.004375 -0.655133
13  1.209179 0.000090 0.000012  -0.014836 -0.011036 -1.011941
14  4.085221 -0.082716 1.151040  -0.077716 0.789856 -0.318308
15  1.719449 -0.000012 0.000023  -0.021301 0.141559 -0.357422
16  1.099675 0.000048 0.000004  -0.073264 0.059305 -1.155833
17  0.686692 -1.660588 0.827510  -0.980456 -0.615764 -0.268880
18  1.789819 -0.000004 -0.000018  0.000998 -0.014468 0.721478
19  1.207016 -0.000012 -0.000044  0.001593 -0.000026 -0.111145
20  5.740637 0.000410 -0.000703  -0.120951 0.000003 0.000071
21  11.480865 0.000306 -0.000881  -0.052834 -0.121249 -0.002179
22  6.027524 -0.000330 0.000203  1.866733 -0.587639 1.727255
23  0.000003 11.692098 -0.000007  -1.121750 -0.565008 -0.865662
24  0.000002 0.000008 -0.000001  -0.451164 -0.000031 1.570738
25  0.000000 -0.000012 -0.000001  0.868957 0.000002 1.570712
26  -3.662932 -4.026425 0.376266  1.473120 1.855075 -0.198639
27  6.027504 -0.000261 -0.000230  1.426355 0.590001 -0.279405
28  11.691990 0.000242 0.000858  0.970530 0.000074 -1.868346
29  11.479084 -0.000009 0.001473  -1.623292 0.644425 0.147609
30  3.452863 -0.227595 1.051756  0.554395 -0.249329 -1.600262
31  1.312558 0.000023 -0.000001  -0.098769 0.190475 -0.745635
32  0.729345 0.000065 -0.000026  -0.040117 -0.002456 -0.806801
33  3.942044 0.050110 0.430999  0.413054 -0.141259 -1.490445
34  1.539093 0.000006 -0.000001  -0.021081 0.020361 -1.007904
35  1.196301 0.000074 -0.000004  -0.004516 -0.001755 -0.733348
36  3.883412 -0.050498 -0.431086  0.224817 -0.215783 -1.187556
37  1.719562 -0.000072 -0.000003  -0.039730 0.066729 -1.510271
38  1.209197 0.000034 0.000010  -0.006946 -0.002847 -0.369175
39  3.806437 -0.112148 -1.295330  -0.029507 -0.180960 0.129126
40  1.719415 -0.000101 -0.000035  -0.068765 0.170678 -1.424016
41  1.099674 0.000022 0.000008  -0.023599 0.002280 -0.616218
42  0.943594 -0.180489 -1.592590  1.077226 0.106495 -0.817774
43  1.789780 -0.000007 -0.000043  0.023056 0.021409 -0.019466
44  1.206995 -0.000005 0.000003  0.206835 0.095578 1.319988
45  5.740573 0.000055 0.000724  0.006064 -0.000014 0.000021
46  11.480762 0.000034 0.001044  -0.020088 0.106215 0.022051
47  6.027515 -0.000273 -0.000237  -0.790487 -0.671636 -1.289076
48  -0.000001 11.691975 -0.000007  -1.246028 0.691367 0.929298
49  0.000003 -0.000002 -0.000000  -3.040130 -0.000041 1.570856
50  -0.000007 -0.000015 0.000005  2.272644 -0.000030 1.570865
51  -4.934140 -8.896552 -7.387136  3.035520 -0.166060 -1.367249
52  -0.000000 -0.000000 0.000000  0.008153 -0.000259 0.000009
53  -0.000000 -0.000000 0.000000  1.565115 0.043565 -0.106862
54  -0.306077 -14.938120 -6.142694  -0.926323 -0.097641 -1.991788
55  -0.000000 -0.000001 -0.000000  0.000000 -0.000000 -0.000002
56  0.000029 0.000028 0.000001  -1.571901 -0.044449 -0.106509
57  8.838223 -16.138317 -16.427357  1.570796 -0.000000 0.000000
58  -21.089123 6.899941 -12.297750  1.570796 -0.000000 0.000000
59  -0.670483 -0.210714 -4.109488  1.570796 -0.000000 0.000000
60  -0.004311 0.001230 -0.000371  0.006898 -0.005534 -0.284229
61  0.376268 4.613964 -2.887995  1.570796 -0.000000 0.000000
62  0.000000 0.000000 0.000000  -0.078727 -3.136056 0.284226
63  -2.808390 -1.771285 0.065070  1.570796 -0.000000 0.000000
64  -2.810197 -6.512411 -4.111609  1.571123 -0.000184 0.000338
65  0.032837 -0.689314 7.041600  0.000000 0.000000 0.000000
66  0.000003 0.704705 -1.522918  0.000000 0.000000 0.000000
67  -1.069343 0.255757 -1.438859  0.000000 0.000000 0.000000
68  0.000004 0.704705 21.133169  0.000000 0.000000 0.000000
69  0.675334 -0.627302 0.013842  0.000000 0.000000 0.000000
70  0.799381 0.098866 -2.766579  0.000000 0.000000 0.000000
71  -2.777940 -7.260887 -4.757557  1.571123 -0.000184 0.000338
72  0.116050 0.879029 -1.115067  0.000000 0.000000 0.000000
73  -0.179815 0.692454 -1.115067  0.000000 0.000000 0.000000
74  0.116050 0.505896 -1.115067  0.000000 0.000000 0.000000
time 16
0  0.000006 0.000000 0.000000  -1.570800 -1.391899 -1.570792
1  -4.005264 0.938027 -0.674797  -1.544956 -1.855077 -0.198630
2  6.027520 -0.000324 0.000194  -1.114485 -0.922275 -0.912696
3  11.692106 0.000645 -0.000741  -1.320269 -0.000032 -1.652703
4  11.479314 0.000471 -0.001113  1.199072 -0.682899 0.174278
5  3.859508 -0.142880 -1.192050  -0.808216 0.180883 -1.766569
6  1.312588 0.000014 0.000009  -0.134119 0.018600 -0.222836
7  0.729356 0.000054 0.000050  -0.010622 0.003162 -0.217260
8  3.942141 0.046272 -0.431512  -0.538224 0.377343 -1.371180
9  1.539110 0.000084 0.000007  -0.021913 0.026159 -0.368911
10  1.196332 0.000145 0.000028  -0.003283 0.005640 -0.955971
11  3.883504 -0.047270 0.431381  -0.260797 0.647751 -0.838050
12  1.719573 -0.000026 0.000014  0.020427 -0.004375 -0.655133
13  1.209179 0.000089 0.000013  -0.014836 -0.011036 -1.011941
14  4.085221 -0.082716 1.151040  -0.077716 0.789856 -0.318308
15  1.719450 -0.000012 0.000022  -0.021301 0.141559 -0.357422
16  1.099674 0.000048 0.000005  -0.073264 0.059305 -1.155833
17  0.686691 -1.660587 0.827510  -0.980456 -0.615764 -0.268880
18  1.789819 -0.000004 -0.000018  0.000999 -0.014468 0.721478
19  1.207016 -0.000012 -0.000044  0.001593 -0.000026 -0.111145
20  5.740637 0.000411 -0.000705  -0.120438 0.000003 0.000070
21  11.480870 0.000307 -0.000881  -0.052846 -0.120688 -0.002063
22  6.027524 -0.000330 0.000203  1.865876 -0.586413 1.726563
23  0.000001 11.692099 -0.000007  -1.119340 -0.562619 -0.864296
24  0.000001 0.000008 -0.000000  -0.451164 -0.000031 1.570739
25  0.000000 -0.000011 -0.000000  0.868957 0.000002 1.570712
26  -3.662932 -4.026425 0.376266  1.473120 1.855075 -0.198639
27  6.027504 -0.000261 -0.000230  1.426834 0.592069 -0.279311
28  11.691992 0.000243 0.000858  0.970530 0.000074 -1.864533
29  11.479117 0.000000 0.001458  -1.623157 0.642876 0.146951
30  3.452863 -0.227594 1.051756  0.554395 -0.249329 -1.600262
31  1.312558 0.000024 -0.000001  -0.098769 0.190475 -0.745635
32  0.729345 0.000063 -0.000026  -0.040117 -0.002456 -0.806801
33  3.942044 0.050110 0.430997  0.413054 -0.141259 -1.490445
34  1.539093 0.000008 -0.000001  -0.021081 0.020361 -1.007904
35  1.196300 0.000073 -0.000005  -0.004516 -0.001755 -0.733348
36  3.883412 -0.050497 -0.431087  0.224817 -0.215783 -1.187556
37  1.719562 -0.000073 -0.000003  -0.039730 0.066729 -1.510271
38  1.209197 0.000034 0.000011  -0.006946 -0.002847 -0.369175
39  3.806437 -0.112148 -1.295331  -0.029507 -0.180960 0.129126
40  1.719415 -0.000101 -0.000036  -0.068765 0.170678 -1.424016
41  1.099674 0.000022 0.000007  -0.023599 0.002280 -0.616218
42  0.943593 -0.180488 -1.592591  1.077226 0.106495 -0.817774
43  1.789780 -0.000007 -0.000041  0.023056 0.021409 -0.019466
44  1.206996 -0.000003 0.000003  0.206835 0.095578 1.319988
45  5.740574 0.000055 0.000724  0.006018 -0.000014 0.000021
46  11.480768 0.000036 0.001041  -0.020011 0.105913 0.021913
47  6.027515 -0.000273 -0.000237  -0.792451 -0.670198 -1.288028
48  -0.000001 11.691974 -0.000006  -1.243767 0.689035 0.928276
49  0.000004 -0.000001 0.000000  -3.040130 -0.000041 1.570856
50  -0.000007 -0.000015 0.000005  2.272644 -0.000030 1.570865
51  -4.934288 -8.933008 -7.386480  3.035428 -0.166128 -1.367388
52  -0.000001 -0.000000 -0.000001  0.008153 -0.000259 0.000009
53  -0.000001 0.000000 -0.000001  1.565115 0.043565 -0.106862
54  -0.307064 -14.975185 -6.141873  -0.926357 -0.097749 -1.991939
55  -0.000002 -0.000000 -0.000001  0.000000 -0.000000 -0.000002
56  0.000028 0.000028 0.000000  -1.571902 -0.044449 -0.106509
57  8.838223 -16.138317 -16.427357  1.570796 -0.000000 0.000000
58  -21.089123 6.899941 -12.297750  1.570796 -0.000000 0.000000
59  -0.670483 -0.210714 -4.109488  1.570796 -0.000000 0.000000
60  -0.004311 0.001230 -0.000371  0.006898 -0.005534 -0.284229
61  0.376268 4.613964 -2.887995  1.570796 -0.000000 0.000000
62  0.000000 0.000000 0.000000  -0.078727 -3.136056 0.284226
63  -2.808390 -1.771285 0.065070  1.570796 -0.000000 0.000000
64  -2.809730 -6.548917 -4.111315  1.571039 -0.000109 0.000184
65  0.032837 -0.689314 7.041599  -0.000000 0.000000 0.000000
66  0.000002 0.704706 -1.522919  -0.000000 0.000000 0.000000
67  -1.069344 0.255757 -1.438859  -0.000000 0.000000 0.000000
68  0.000003 0.704705 21.133167  -0.000000 0.000000 0.000000
69  0.675334 -0.627302 0.013842  -0.000000 0.000000 0.000000
70  0.799380 0.098866 -2.766579  -0.000000 0.000000 0.000000
71  -2.777637 -7.297453 -4.757201  1.571039 -0.000109 0.000184
72  0.116050 0.879028 -1.115068  -0.000000 0.000000 0.000000
73  -0.179815 0.692453 -1.115068  -0.000000 0.000000 0.000000
74  0.116050 0.505895 -1.115068  -0.000000 0.000000 0.000000
time 17
0  0.000006 0.000000 0.000000  -1.570800 -1.391899 -1.570792
1  -4.005264 0.938027 -0.674797  -1.544956 -1.855077 -0.198630
2  6.027520 -0.000324 0.000194  -1.114490 -0.923473 -0.913724
3  11.692108 0.000646 -0.000740  -1.320269 -0.000032 -1.649251
4  11.479337 0.000474 -0.001101  1.199574 -0.680484 0.174166
5  3.859511 -0.142879 -1.192049  -0.808216 0.180883 -1.766569
6  1.312589 0.000013 0.000009  -0.134119 0.018600 -0.222836
7  0.729354 0.000055 0.000049  -0.010622 0.003162 -0.217260
8  3.942143 0.046273 -0.431512  -0.538224 0.377343 -1.371180
9  1.539110 0.000085 0.000006  -0.021913 0.026158 -0.368911
10  1.196333 0.000146 0.000027  -0.003283 0.005640 -0.955971
11  3.883505 -0.047268 0.431381  -0.260797 0.647751 -0.838050
12  1.719573 -0.000028 0.000015  0.020427 -0.004375 -0.655133
13  1.209178 0.000091 0.000013  -0.014836 -0.011036 -1.011941
14  4.085223 -0.082715 1.151041  -0.077716 0.789856 -0.318308
15  1.719448 -0.000014 0.000022  -0.021301 0.141559 -0.357422
16  1.099675 0.000049 0.000005  -0.073264 0.059305 -1.155833
17  0.686692 -1.660586 0.827510  -0.980456 -0.615764 -0.268880
18  1.789820 -0.000004 -0.000018  0.000998 -0.014468 0.721478
19  1.207014 -0.000011 -0.000044  0.001593 -0.000026 -0.111145
20  5.740636 0.000410 -0.000702  -0.119997 0.000003 0.000071
21  11.480873 0.000307 -0.000877  -0.052845 -0.120205 -0.001964
22  6.027524 -0.000330 0.000203  1.865187 -0.585362 1.725912
23  0.000001 11.692099 -0.000007  -1.117317 -0.560614 -0.863145
24  0.000003 0.000009 -0.000002  -0.451164 -0.000030 1.570739
25  -0.000000 -0.000012 -0.000000  0.868957 0.000002 1.570712
26  -3.662932 -4.026425 0.376266  1.473120 1.855075 -0.198639
27  6.027504 -0.000261 -0.000230  1.427223 0.593848 -0.279245
28  11.691992 0.000243 0.000856  0.970530 0.000074 -1.861304
29  11.479146 0.000011 0.001446  -1.623138 0.641592 0.146301
30  3.452864 -0.227594 1.051755  0.554395 -0.249329 -1.600262
31  1.312558 0.000023 -0.000001  -0.098769 0.190475 -0.745635
32  0.729344 0.000063 -0.000026  -0.040117 -0.002456 -0.806801
33  3.942045 0.050110 0.430997  0.413054 -0.141259 -1.490445
34  1.539093 0.000009 -0.000001  -0.021081 0.020361 -1.007904
35  1.196299 0.000075 -0.000004  -0.004516 -0.001755 -0.733348
36  3.883412 -0.050497 -0.431087  0.224817 -0.215783 -1.187556
37  1.719562 -0.000073 -0.000003  -0.039730 0.066729 -1.510271
38  1.209199 0.000034 0.000010  -0.006946 -0.002847 -0.369175
39  3.806436 -0.112148 -1.295331  -0.029507 -0.180960 0.129126
40  1.719414 -0.000102 -0.000035  -0.068765 0.170678 -1.424016
41  1.099673 0.000021 0.000008  -0.023599 0.002280 -0.616218
42  0.943595 -0.180488 -1.592590  1.077226 0.106495 -0.817774
43  1.789779 -0.000008 -0.000042  0.023056 0.021409 -0.019466
44  1.206996 -0.000004 0.000003  0.206835 0.095578 1.319988
45  5.740573 0.000056 0.000725  0.005968 -0.000014 0.000021
46  11.480774 0.000039 0.001040  -0.019961 0.105662 0.021785
47  6.027515 -0.000273 -0.000237  -0.794151 -0.668976 -1.287123
48  -0.000002 11.691974 -0.000006  -1.241853 0.687061 0.927407
49  0.000004 -0.000002 0.000000  -3.040130 -0.000041 1.570856
50  -0.000007 -0.000015 0.000005  2.272644 -0.000030 1.570865
51  -4.933974 -8.963835 -7.385836  3.035321 -0.166267 -1.367500
52  -0.000000 -0.000000 -0.000001  0.008153 -0.000259 0.000009
53  -0.000000 0.000000 -0.000001  1.565115 0.043565 -0.106862
54  -0.307440 -15.006416 -6.140626  -0.926361 -0.097923 -1.992068
55  -0.000000 0.000000 0.000000  0.000000 -0.000000 -0.000002
56  0.000030 0.000029 0.000001  -1.571901 -0.044449 -0.106509
57  8.838223 -16.138317 -16.427357  1.570796 -0.000000 0.000000
58  -21.089123 6.899941 -12.297750  1.570796 -0.000000 0.000000
59  -0.670483 -0.210714 -4.109488  1.570796 -0.000000 0.000000
60  -0.004311 0.001230 -0.000371  0.006898 -0.005534 -0.284229
61  0.376268 4.613964 -2.887995  1.570796 -0.000000 0.000000
62  0.000000 0.000000 0.000000  -0.078727 -3.136056 0.284226
63  -2.808390 -1.771285 0.065070  1.570796 -0.000000 0.000000
64  -2.808861 -6.579504 -4.111206  1.570881 -0.000034 0.000054
65  0.032837 -0.689314 7.041599  0.000000 -0.000000 0.000000
66  0.000003 0.704706 -1.522918  0.000000 -0.000000 0.000000
67  -1.069343 0.255757 -1.438859  0.000000 -0.000000 0.000000
68  0.000004 0.704705 21.133167  0.000000 -0.000000 0.000000
69  0.675334 -0.627302 0.013843  0.000000 -0.000000 0.000000
70  0.799380 0.098866 -2.766579  0.000000 -0.000000 0.000000
71  -2.776914 -7.328146 -4.756978  1.570881 -0.000034 0.000054
72  0.116050 0.879028 -1.115068  0.000000 -0.000000 0.000000
73  -0.179815 0.692453 -1.115068  0.000000 -0.000000 0.000000
74  0.116050 0.505895 -1.115068  0.000000 -0.000000 0.000000
time 18
0  0.000006 0.000000 0.000000  -1.570800 -1.391899 -1.570792
1  -4.005264 0.938027 -0.674797  -1.544956 -1.855077 -0.198630
2  6.027520 -0.000324 0.000194  -1.114503 -0.923977 -0.914157
3  11.692106 0.000645 -0.000741  -1.320269 -0.000032 -1.647802
4  11.479349 0.000475 -0.001094  1.199802 -0.679459 0.174113
5  3.859508 -0.142881 -1.192049  -0.808216 0.180883 -1.766569
6  1.312589 0.000011 0.000007  -0.134119 0.018600 -0.222836
7  0.729355 0.000054 0.000049  -0.010622 0.003162 -0.217260
8  3.942143 0.046271 -0.431512  -0.538224 0.377343 -1.371180
9  1.539111 0.000084 0.000004  -0.021913 0.026158 -0.368911
10  1.196333 0.000145 0.000028  -0.003283 0.005639 -0.955971
11  3.883503 -0.047271 0.431382  -0.260797 0.647751 -0.838050
12  1.719573 -0.000028 0.000015  0.020427 -0.004375 -0.655133
13  1.209179 0.000090 0.000012  -0.014836 -0.011036 -1.011941
14  4.085223 -0.082717 1.151041  -0.077716 0.789856 -0.318308
15  1.719449 -0.000011 0.000020  -0.021301 0.141559 -0.357422
16  1.099675 0.000049 0.000007  -0.073264 0.059305 -1.155833
17  0.686691 -1.660589 0.827511  -0.980456 -0.615764 -0.268880
18  1.789820 -0.000002 -0.000018  0.000998 -0.014468 0.721478
19  1.207015 -0.000012 -0.000044  0.001593 -0.000026 -0.111145
20  5.740637 0.000410 -0.000702  -0.119810 0.000003 0.000070
21  11.480878 0.000307 -0.000876  -0.052841 -0.120000 -0.001922
22  6.027524 -0.000330 0.000203  1.864905 -0.584916 1.725623
23  0.000002 11.692099 -0.000006  -1.116467 -0.559774 -0.862660
24  0.000002 0.000008 -0.000002  -0.451164 -0.000031 1.570739
25  -0.000000 -0.000011 -0.000000  0.868957 0.000002 1.570712
26  -3.662932 -4.026425 0.376266  1.473120 1.855075 -0.198639
27  6.027504 -0.000261 -0.000230  1.427384 0.594605 -0.279219
28  11.691993 0.000244 0.000857  0.970530 0.000074 -1.859942
29  11.479158 0.000013 0.001440  -1.623151 0.641056 0.146006
30  3.452863 -0.227594 1.051755  0.554395 -0.249329 -1.600262
31  1.312558 0.000024 -0.000001  -0.098769 0.190475 -0.745635
32  0.729344 0.000065 -0.000026  -0.040117 -0.002456 -0.806801
33  3.942044 0.050110 0.430997  0.413054 -0.141259 -1.490445
34  1.539093 0.000009 -0.000002  -0.021081 0.020361 -1.007904
35  1.196299 0.000074 -0.000005  -0.004516 -0.001755 -0.733348
36  3.883411 -0.050498 -0.431087  0.224817 -0.215783 -1.187556
37  1.719562 -0.000074 -0.000003  -0.039730 0.066729 -1.510271
38  1.209198 0.000035 0.000011  -0.006946 -0.002847 -0.369175
39  3.806436 -0.112148 -1.295331  -0.029507 -0.180960 0.129126
40  1.719415 -0.000102 -0.000035  -0.068765 0.170678 -1.424016
41  1.099674 0.000023 0.000008  -0.023599 0.002280 -0.616218
42  0.943594 -0.180489 -1.592590  1.077226 0.106495 -0.817774
43  1.789779 -0.000009 -0.000042  0.023056 0.021409 -0.019466
44  1.206996 -0.000003 0.000003  0.206835 0.095578 1.319988
45  5.740573 0.000056 0.000725  0.005944 -0.000014 0.000021
46  11.480777 0.000038 0.001038  -0.019942 0.105557 0.021729
47  6.027515 -0.000273 -0.000237  -0.794876 -0.668460 -1.286738
48  -0.000002 11.691974 -0.000006  -1.241046 0.686230 0.927039
49  0.000003 -0.000003 0.000000  -3.040130 -0.000041 1.570856
50  -0.000007 -0.000015 0.000005  2.272644 -0.000030 1.570865
51  -4.933747 -8.976824 -7.385546  3.035270 -0.166343 -1.367546
52  -0.000001 0.000000 -0.000001  0.008153 -0.000259 0.000009
53  -0.000001 -0.000000 -0.000001  1.565115 0.043565 -0.106862
54  -0.307500 -15.019550 -6.139982  -0.926358 -0.098015 -1.992123
55  -0.000001 -0.000002 -0.000000  0.000000 -0.000000 -0.000002
56  0.000029 0.000027 0.000000  -1.571901 -0.044449 -0.106509
57  8.838223 -16.138317 -16.427357  1.570796 -0.000000 0.000000
58  -21.089123 6.899941 -12.297750  1.570796 -0.000000 0.000000
59  -0.670483 -0.210714 -4.109488  1.570796 -0.000000 0.000000
60  -0.004311 0.001230 -0.000371  0.006898 -0.005534 -0.284229
61  0.376268 4.613964 -2.887995  1.570796 -0.000000 0.000000
62  0.000000 0.000000 0.000000  -0.078727 -3.136056 0.284226
63  -2.808390 -1.771285 0.065070  1.570796 -0.000000 0.000000
64  -2.808394 -6.592330 -4.111191  1.570796 -0.000000 0.000000
65  0.032837 -0.689314 7.041600  0.000000 -0.000000 0.000000
66  0.000003 0.704706 -1.522919  0.000000 -0.000000 0.000000
67  -1.069343 0.255757 -1.438859  0.000000 -0.000000 0.000000
68  0.000004 0.704705 21.133167  0.000000 -0.000000 0.000000
69  0.675334 -0.627302 0.013842  0.000000 -0.000000 0.000000
70  0.799380 0.098866 -2.766579  0.000000 -0.000000 0.000000
71  -2.776510 -7.341029 -4.756900  1.570796 -0.000000 0.000000
72  0.116050 0.879028 -1.115068  0.000000 -0.000000 0.000000
73  -0.179815 0.692453 -1.115067  0.000000 -0.000000 0.000000
74  0.116050 0.505895 -1.115067  0.000000 -0.000000 0.000000
end
