version 1
nodes
0 "ValveBiped.Bip01_Spine4" -1
1 "ValveBiped.Bip01_L_Clavicle" 0
2 "ValveBiped.Bip01_L_UpperArm" 1
3 "ValveBiped.Bip01_L_Forearm" 2
4 "ValveBiped.Bip01_L_Hand" 3
5 "ValveBiped.Bip01_L_Finger4" 4
6 "ValveBiped.Bip01_L_Finger41" 5
7 "ValveBiped.Bip01_L_Finger42" 6
8 "ValveBiped.Bip01_L_Finger3" 4
9 "ValveBiped.Bip01_L_Finger31" 8
10 "ValveBiped.Bip01_L_Finger32" 9
11 "ValveBiped.Bip01_L_Finger2" 4
12 "ValveBiped.Bip01_L_Finger21" 11
13 "ValveBiped.Bip01_L_Finger22" 12
14 "ValveBiped.Bip01_L_Finger1" 4
15 "ValveBiped.Bip01_L_Finger11" 14
16 "ValveBiped.Bip01_L_Finger12" 15
17 "ValveBiped.Bip01_L_Finger0" 4
18 "ValveBiped.Bip01_L_Finger01" 17
19 "ValveBiped.Bip01_L_Finger02" 18
20 "ValveBiped.Bip01_L_Ulna" 3
21 "ValveBiped.Bip01_L_Wrist" 3
22 "rig_l_upperarm" 1
23 "rig_l_forearm" 22
24 "rig_d_l_forearm" 23
25 "rig_d_l_upperarm" 22
26 "ValveBiped.Bip01_R_Clavicle" 0
27 "ValveBiped.Bip01_R_UpperArm" 26
28 "ValveBiped.Bip01_R_Forearm" 27
29 "ValveBiped.Bip01_R_Hand" 28
30 "ValveBiped.Bip01_R_Finger4" 29
31 "ValveBiped.Bip01_R_Finger41" 30
32 "ValveBiped.Bip01_R_Finger42" 31
33 "ValveBiped.Bip01_R_Finger3" 29
34 "ValveBiped.Bip01_R_Finger31" 33
35 "ValveBiped.Bip01_R_Finger32" 34
36 "ValveBiped.Bip01_R_Finger2" 29
37 "ValveBiped.Bip01_R_Finger21" 36
38 "ValveBiped.Bip01_R_Finger22" 37
39 "ValveBiped.Bip01_R_Finger1" 29
40 "ValveBiped.Bip01_R_Finger11" 39
41 "ValveBiped.Bip01_R_Finger12" 40
42 "ValveBiped.Bip01_R_Finger0" 29
43 "ValveBiped.Bip01_R_Finger01" 42
44 "ValveBiped.Bip01_R_Finger02" 43
45 "ValveBiped.Bip01_R_Ulna" 28
46 "ValveBiped.Bip01_R_Wrist" 28
47 "rig_r_upperarm" 26
48 "rig_r_forearm" 47
49 "rig_d_r_forearm" 48
50 "rig_d_r_upperarm" 47
51 "rig_r_hand" -1
52 "rig_d_r_hand" 51
53 "rig_d_r_wrist" 52
54 "rig_l_hand" -1
55 "rig_d_l_hand" 54
56 "rig_d_l_wrist" 54
57 "rig_l_pole" -1
58 "rig_r_pole" -1
59 "rig_l_clavicle" -1
60 "rig_d_l_clavicle" 59
61 "rig_r_clavicle" -1
62 "rig_d_r_clavicle" 61
63 "Camera" -1
64 "body" -1
65 "trigger" 64
66 "barrel" 64
67 "bullet1" 64
68 "slide" 64
69 "hammer" 64
70 "sliderelease" 64
71 "mag" -1
72 "bullet2" 71
73 "bullet3" 71
74 "bullet4" 73
75 "bullet5" 73
76 "bullet6" 73
77 "bullet7" 73
78 "bullet8" 73
79 "bullet9" 73
80 "bullet10" 73
81 "bullet11" 73
82 "bullet12" 73
83 "bullet13" 73
84 "bullet14" 73
85 "bullet15" 73
end
skeleton
time 0
0  0.000006 0.000000 0.000000  -1.570800 -1.391899 -1.570792
1  -9.841317 -7.634221 1.937669  -1.544956 -1.855077 -0.198630
2  6.027525 -0.000329 0.000190  -0.046636 -1.482824 -1.947293
3  11.692115 0.000646 -0.000738  -1.166849 0.000005 -0.817278
4  11.480167 0.000598 -0.000463  1.196547 -0.396391 0.369157
5  3.666628 -0.163903 -1.204802  -0.519250 0.086737 -1.532179
6  1.312589 0.000010 0.000009  -0.003664 0.023357 -0.272237
7  0.729356 0.000055 0.000049  -0.003677 0.000626 -0.150723
8  3.942140 0.046332 -0.431543  -0.205965 0.132196 -1.449654
9  1.539111 0.000083 0.000003  -0.000570 0.007396 -0.283198
10  1.196333 0.000148 0.000028  -0.000713 0.000161 -0.519018
11  3.883510 -0.047211 0.431350  -0.042690 0.198097 -1.260493
12  1.719573 -0.000029 0.000017  -0.000644 0.003280 -0.404344
13  1.209179 0.000091 0.000012  -0.000905 0.002861 -0.623854
14  3.859676 -0.138417 1.332380  -0.235831 0.317274 -1.342437
15  1.719448 -0.000018 0.000029  0.001902 0.001157 -0.067177
16  1.099675 0.000048 0.000005  -0.000943 0.002399 -0.620101
17  0.459534 -0.272515 1.494839  -0.958772 -0.540282 -0.503031
18  1.789820 -0.000003 -0.000016  -0.001964 0.000104 0.251441
19  1.207017 -0.000012 -0.000044  -0.002235 -0.004014 0.005434
20  5.740635 0.000389 -0.000700  -0.081630 0.000003 0.000063
21  11.481042 0.000297 -0.000746  -0.057418 -0.069746 0.045894
22  6.027524 -0.000329 0.000201  1.517109 -0.069806 1.851374
23  0.000001 11.692100 -0.000007  -0.599033 -0.156382 -0.496821
24  0.000003 0.000010 -0.000000  -0.297787 -0.000030 1.570739
25  0.000001 -0.000011 0.000000  0.868960 0.000002 1.570712
26  -6.899342 -10.734701 0.826813  1.473120 1.855075 -0.198639
27  6.027517 -0.000263 -0.000216  1.601807 1.271994 -0.656994
28  11.691991 0.000161 0.000858  0.139886 0.000014 -0.955354
29  11.480767 0.000116 0.000813  -1.291989 0.505002 0.568681
30  3.710774 -0.434234 1.096848  0.993888 -0.012218 -1.809834
31  1.312560 0.000032 0.000001  0.020203 -0.123005 -0.386412
32  0.729347 0.000066 -0.000027  -0.108189 -0.157445 -1.274631
33  3.820805 -0.154608 0.327899  0.537772 -0.140330 -1.379350
34  1.539094 0.000004 -0.000001  0.051518 -0.088117 -0.970563
35  1.196301 0.000080 -0.000004  -0.015776 -0.011842 -1.377306
36  3.882445 -0.171892 -0.416804  0.487414 -0.287319 -1.107696
37  1.719566 -0.000082 -0.000005  0.016291 -0.133111 -1.287091
38  1.209194 0.000033 0.000011  0.009145 -0.002831 -1.083848
39  3.859585 -0.149082 -1.331322  -0.012968 -0.157199 -0.475480
40  1.719411 -0.000097 -0.000037  0.037125 0.029514 -0.700561
41  1.099673 0.000022 0.000006  -0.009064 -0.008454 -0.749561
42  0.230504 -0.805067 -1.086893  1.041508 0.527250 -0.600682
43  1.789779 -0.000009 -0.000043  -0.081444 -0.068283 0.252588
44  1.206994 -0.000007 0.000005  0.073274 0.023224 0.166518
45  5.740573 0.000078 0.000721  0.084972 -0.000014 0.000028
46  11.481097 0.000097 0.000907  0.030246 0.090704 0.086394
47  6.027515 -0.000273 -0.000229  -1.334078 -0.184096 -1.578913
48  -0.000001 11.691974 -0.000008  -0.691306 0.209952 0.569223
49  0.000002 -0.000000 0.000001  2.412441 -0.000036 1.570860
50  -0.000007 -0.000014 0.000004  2.272645 -0.000036 1.570861
51  -2.538006 -8.620331 -5.026038  -0.171689 -2.947656 1.252147
52  -0.000000 -0.000000 0.000000  0.008153 -0.000259 0.000009
53  0.000000 0.000000 -0.000000  1.565115 0.043565 -0.106862
54  0.162817 -10.241511 -6.033255  -0.551979 -0.004725 -1.962449
55  0.000001 -0.000001 0.000000  0.000000 -0.000001 -0.000002
56  0.000030 0.000028 0.000001  -1.571901 -0.044449 -0.106509
57  12.000549 -19.544212 -17.246658  1.570796 -0.000000 0.000000
58  -15.417984 4.000748 -22.641926  1.570796 -0.000000 0.000000
59  1.941978 9.263218 -8.327020  1.570796 -0.000000 0.000000
60  -0.004311 0.001229 -0.000372  0.006898 -0.005534 -0.284229
61  0.826810 11.791080 -4.879054  1.570796 -0.000000 0.000000
62  0.000000 0.000000 0.000000  -0.078727 -3.136056 0.284226
63  0.000000 0.000000 0.000000  1.570796 -0.000000 0.000000
64  -1.915771 -11.101227 -3.861487  1.570796 -0.000000 0.000000
65  0.001799 1.281290 2.949712  0.000000 -0.000000 0.000000
66  0.001798 2.205654 7.371571  0.000000 -0.000000 0.000000
67  0.001802 2.009157 1.913910  0.000000 -0.000000 0.000000
68  0.000000 2.151127 2.689002  0.000000 -0.000000 0.000000
69  0.001800 1.549859 -0.186521  -1.396263 -0.000000 -0.000000
70  0.394440 1.435772 1.872449  0.000000 -0.000000 0.000000
71  -1.915770 -11.617895 -1.911009  1.570796 -0.000000 0.000000
72  0.001801 -0.243604 1.309227  0.000000 0.000000 0.000000
73  0.001801 -0.505257 1.231033  0.000000 0.000000 0.000000
74  -0.000000 -0.261652 -0.078195  0.000000 0.000000 0.000000
75  -0.000000 -0.523305 -0.156385  0.000000 0.000000 0.000000
76  -0.000000 -0.784957 -0.234577  0.000000 0.000000 0.000000
77  -0.000000 -1.046609 -0.312776  0.000000 0.000000 0.000000
78  -0.000000 -1.308262 -0.390967  0.000000 0.000000 0.000000
79  -0.000000 -1.569914 -0.469162  0.000000 0.000000 0.000000
80  -0.000000 -1.831567 -0.547356  0.000000 0.000000 0.000000
81  -0.000000 -2.093219 -0.625546  0.000000 0.000000 0.000000
82  -0.000000 -2.354872 -0.703742  0.000000 0.000000 0.000000
83  -0.000000 -2.616524 -0.781936  0.000000 0.000000 0.000000
84  -0.000000 -2.878177 -0.860128  0.000000 0.000000 0.000000
85  -0.000000 -3.139828 -0.938323  0.000000 0.000000 0.000000
time 1
0  0.000006 0.000000 0.000000  -1.570800 -1.391899 -1.570792
1  -9.841317 -7.634221 1.937669  -1.544956 -1.855077 -0.198630
2  6.027525 -0.000329 0.000190  -0.237105 -1.479517 -1.767493
3  11.692113 0.000645 -0.000739  -1.166850 0.000004 -0.837313
4  11.480903 0.000693 -0.000240  1.257179 -0.548858 0.330623
5  3.666625 -0.163904 -1.204803  -0.408393 0.331080 -0.783081
6  1.312589 0.000007 0.000008  -0.002334 0.011624 -0.355984
7  0.729355 0.000053 0.000049  -0.001837 0.000280 -0.197520
8  3.942140 0.046331 -0.431543  -0.121031 0.169884 -0.718077
9  1.539111 0.000083 0.000004  -0.000256 0.003711 -0.265519
10  1.196333 0.000144 0.000028  -0.000349 0.000098 -0.474894
11  3.883510 -0.047212 0.431350  0.072380 0.100579 -0.562091
12  1.719572 -0.000029 0.000017  -0.000325 0.004402 -0.385439
13  1.209179 0.000091 0.000012  -0.000463 0.003022 -0.420146
14  3.859675 -0.138418 1.332379  0.147454 0.145062 -0.575300
15  1.719448 -0.000018 0.000028  0.001073 0.002681 -0.215100
16  1.099676 0.000049 0.000006  -0.000479 0.002533 -0.432241
17  0.459532 -0.272516 1.494838  -1.111668 -0.578042 -0.611947
18  1.789819 -0.000004 -0.000017  -0.000229 -0.005635 0.177644
19  1.207017 -0.000013 -0.000043  -0.000595 -0.001865 0.145432
20  5.740636 0.000388 -0.000699  -0.077456 0.000003 0.000063
21  11.481188 0.000316 -0.000699  -0.040525 -0.096626 0.036276
22  6.027524 -0.000329 0.000201  1.529798 -0.081659 1.840506
23  -0.000002 11.692100 -0.000008  -0.612618 -0.163747 -0.507591
24  0.000004 0.000008 -0.000000  -0.297787 -0.000030 1.570739
25  -0.000001 -0.000011 -0.000000  0.868960 0.000002 1.570712
26  -6.932469 -10.629854 0.765528  1.473120 1.855075 -0.198639
27  6.027517 -0.000263 -0.000217  1.594764 1.261442 -0.664784
28  11.691993 0.000162 0.000858  0.150796 0.000015 -0.963841
29  11.480721 0.000104 0.000815  -1.229072 0.497641 0.541310
30  3.710774 -0.434234 1.096848  0.406971 -0.281773 -0.608981
31  1.312559 0.000030 0.000000  -0.000000 -0.000045 -0.148960
32  0.729347 0.000065 -0.000027  -0.000028 -0.000012 0.046463
33  3.820806 -0.154608 0.327899  0.121278 -0.118788 -0.520704
34  1.539096 0.000004 -0.000000  0.000007 -0.000009 0.042924
35  1.196302 0.000080 -0.000003  -0.000009 -0.000007 -0.140032
36  3.882445 -0.171892 -0.416804  -0.089865 -0.000691 -0.298015
37  1.719566 -0.000083 -0.000005  -0.002289 -0.007626 -0.075729
38  1.209194 0.000034 0.000012  -0.001277 -0.004274 0.074338
39  3.859583 -0.149081 -1.331323  -0.330196 0.136796 -0.257123
40  1.719411 -0.000097 -0.000037  -0.001916 -0.006299 -0.072275
41  1.099673 0.000023 0.000006  -0.001196 -0.004014 0.046404
42  0.230503 -0.805067 -1.086893  1.065800 0.585531 -0.752967
43  1.789780 -0.000006 -0.000042  -0.031525 -0.037619 0.069875
44  1.206995 -0.000007 0.000005  0.038939 0.015623 0.086767
45  5.740573 0.000079 0.000721  0.096763 -0.000014 0.000028
46  11.481089 0.000094 0.000908  0.043305 0.091668 0.077828
47  6.027516 -0.000273 -0.000229  -1.326840 -0.192172 -1.581337
48  -0.000000 11.691975 -0.000006  -0.696883 0.213457 0.573531
49  0.000002 -0.000000 -0.000000  2.423350 -0.000036 1.570860
50  -0.000007 -0.000014 0.000005  2.272645 -0.000036 1.570861
51  -2.649807 -8.687174 -5.208138  -0.091475 -2.938386 1.272872
52  -0.000001 0.000000 -0.000000  0.008153 -0.000259 0.000009
53  -0.000001 0.000000 -0.000001  1.565115 0.043565 -0.106862
54  0.337725 -10.217119 -6.079138  -0.521239 -0.013840 -1.808627
55  -0.000002 -0.000000 0.000000  0.000000 -0.000001 -0.000002
56  0.000028 0.000029 0.000001  -1.571901 -0.044449 -0.106509
57  12.232693 -19.396358 -17.584423  1.570796 -0.000000 0.000000
58  -15.417984 3.977206 -22.656813  1.570796 -0.000000 0.000000
59  1.941978 9.263218 -8.327020  1.570796 -0.000000 0.000000
60  -0.004311 0.001229 -0.000372  0.006898 -0.005534 -0.284229
61  0.765525 11.693801 -4.930309  1.570796 -0.000000 0.000000
62  0.000000 0.000000 0.000000  -0.078727 -3.136056 0.284226
63  0.000000 0.000000 0.000000  1.568900 0.001131 -0.001158
64  -1.939472 -11.704454 -3.776306  1.570796 -0.000000 0.039920
65  0.001799 1.281289 2.949711  0.000000 -0.000000 0.000000
66  0.001798 2.205654 7.371568  0.000000 -0.000000 0.000000
67  0.001802 2.009157 1.913909  0.000000 -0.000000 0.000000
68  0.000000 2.151127 2.689002  0.000000 -0.000000 0.000000
69  0.001800 1.549859 -0.186520  -1.396263 -0.000000 -0.000000
70  0.394440 1.435772 1.872448  0.000000 -0.000000 0.000000
71  -1.918851 -12.220712 -1.825828  1.570796 -0.000000 0.039920
72  0.001801 -0.243604 1.309228  0.000000 0.000000 0.000000
73  0.001801 -0.505257 1.231034  0.000000 0.000000 0.000000
74  0.000000 -0.261652 -0.078195  0.000000 0.000000 0.000000
75  0.000000 -0.523305 -0.156385  0.000000 0.000000 0.000000
76  0.000000 -0.784957 -0.234577  0.000000 0.000000 0.000000
77  0.000000 -1.046609 -0.312776  0.000000 0.000000 0.000000
78  0.000000 -1.308262 -0.390967  0.000000 0.000000 0.000000
79  0.000000 -1.569914 -0.469162  0.000000 0.000000 0.000000
80  0.000000 -1.831567 -0.547356  0.000000 0.000000 0.000000
81  0.000000 -2.093219 -0.625546  0.000000 0.000000 0.000000
82  0.000000 -2.354871 -0.703742  0.000000 0.000000 0.000000
83  0.000000 -2.616524 -0.781936  0.000000 0.000000 0.000000
84  0.000000 -2.878177 -0.860129  0.000000 0.000000 0.000000
85  0.000000 -3.139829 -0.938323  0.000000 0.000000 0.000000
time 2
0  0.000006 0.000000 0.000000  -1.570800 -1.391899 -1.570792
1  -9.841317 -7.634221 1.937669  -1.544956 -1.855077 -0.198630
2  6.027523 -0.000327 0.000190  -1.166424 -1.324221 -0.843961
3  11.692110 0.000643 -0.000739  -1.166873 -0.000009 -1.203307
4  11.480188 0.000545 -0.000590  1.257878 -0.753332 0.402331
5  3.666627 -0.163904 -1.204803  -0.428829 0.245572 -0.681672
6  1.312589 0.000010 0.000008  -0.000027 0.000044 -0.439740
7  0.729355 0.000053 0.000050  0.000017 0.000021 -0.244317
8  3.942141 0.046331 -0.431544  -0.132738 0.103980 -0.596316
9  1.539110 0.000082 0.000004  -0.000007 0.000021 -0.247842
10  1.196333 0.000146 0.000028  0.000011 0.000018 -0.430770
11  3.883511 -0.047212 0.431350  0.088575 0.002956 -0.372601
12  1.719571 -0.000028 0.000017  0.000015 0.005518 -0.366533
13  1.209180 0.000090 0.000012  0.000004 0.003091 -0.216438
14  3.859677 -0.138418 1.332379  0.338202 -0.116334 -0.327899
15  1.719447 -0.000019 0.000029  0.000028 0.004066 -0.363025
16  1.099676 0.000049 0.000006  0.000003 0.002578 -0.244381
17  0.459534 -0.272515 1.494838  -1.256604 -0.638330 -0.728336
18  1.789819 -0.000003 -0.000017  0.001924 -0.011232 0.103835
19  1.207017 -0.000012 -0.000044  0.001328 0.000027 0.299078
20  5.740635 0.000388 -0.000700  -0.095554 0.000003 0.000064
21  11.481044 0.000286 -0.000769  -0.027255 -0.137428 0.042726
22  6.027524 -0.000329 0.000201  1.683100 -0.220066 1.820623
23  -0.000000 11.692097 -0.000008  -0.849847 -0.321451 -0.688000
24  0.000003 0.000008 -0.000001  -0.297787 -0.000031 1.570739
25  -0.000000 -0.000012 -0.000000  0.868960 0.000002 1.570712
26  -7.032167 -10.314309 0.581087  1.473120 1.855075 -0.198639
27  6.027515 -0.000261 -0.000215  1.600788 1.133390 -0.668431
28  11.691996 0.000162 0.000857  0.183720 0.000026 -1.170507
29  11.480261 -0.000113 0.000857  -1.229634 0.493646 0.617208
30  3.710775 -0.434235 1.096849  0.406971 -0.281773 -0.608982
31  1.312559 0.000030 -0.000001  -0.000000 -0.000045 -0.148960
32  0.729347 0.000065 -0.000027  -0.000028 -0.000012 0.046463
33  3.820806 -0.154609 0.327901  0.121278 -0.118788 -0.520704
34  1.539096 0.000004 -0.000002  0.000007 -0.000009 0.042924
35  1.196303 0.000080 -0.000003  -0.000009 -0.000007 -0.140032
36  3.882445 -0.171892 -0.416804  -0.089865 -0.000691 -0.298015
37  1.719565 -0.000082 -0.000006  -0.002289 -0.007626 -0.075728
38  1.209193 0.000034 0.000011  -0.001277 -0.004274 0.074338
39  3.859583 -0.149082 -1.331322  -0.330196 0.136796 -0.257123
40  1.719411 -0.000097 -0.000037  -0.001916 -0.006299 -0.072275
41  1.099672 0.000023 0.000006  -0.001196 -0.004014 0.046404
42  0.230503 -0.805067 -1.086893  1.079795 0.646453 -0.910428
43  1.789781 -0.000007 -0.000042  0.011966 0.001552 -0.110980
44  1.206996 -0.000006 0.000005  0.005321 0.005317 0.007331
45  5.740571 0.000080 0.000721  0.106332 -0.000014 0.000028
46  11.480995 0.000051 0.000917  0.040745 0.092403 0.092786
47  6.027515 -0.000271 -0.000227  -1.219980 -0.266876 -1.614956
48  -0.000000 11.691976 -0.000006  -0.829325 0.305658 0.673161
49  0.000004 0.000001 0.000000  2.456264 -0.000036 1.570860
50  -0.000006 -0.000014 0.000004  2.272645 -0.000036 1.570861
51  -3.356770 -7.834588 -5.790254  -0.070194 -2.958620 1.293598
52  0.000000 -0.000000 -0.000001  0.008153 -0.000259 0.000009
53  -0.000000 -0.000000 0.000001  1.565115 0.043565 -0.106862
54  1.347563 -8.482750 -6.770245  -0.491330 -0.023227 -1.742619
55  -0.000001 -0.000001 0.000000  0.000000 -0.000001 -0.000002
56  0.000029 0.000028 0.000002  -1.571901 -0.044449 -0.106509
57  12.908321 -18.951378 -18.600952  1.570796 -0.000000 0.000000
58  -15.417984 3.906356 -22.701614  1.570796 -0.000000 0.000000
59  1.941978 9.263218 -8.327020  1.570796 -0.000000 0.000000
60  -0.004311 0.001229 -0.000372  0.006898 -0.005534 -0.284229
61  0.581084 11.401032 -5.084565  1.570796 -0.000000 0.000000
62  0.000000 0.000000 0.000000  -0.078727 -3.136056 0.284226
63  0.000000 0.000000 0.000000  1.565375 0.003226 -0.003314
64  -2.003803 -13.341784 -3.545101  1.570796 -0.000000 0.151409
65  0.001800 1.281290 2.949711  0.000000 -0.000000 0.000000
66  0.001798 2.205654 7.371572  0.000000 -0.000000 0.000000
67  0.001802 2.009157 1.913910  0.000000 -0.000000 0.000000
68  0.000001 2.151127 2.689002  0.000000 -0.000000 0.000000
69  0.001800 1.549859 -0.186520  -1.396263 -0.000000 -0.000000
70  0.394440 1.435772 1.872449  0.000000 -0.000000 0.000000
71  -1.925872 -13.852542 -1.594623  1.570796 -0.000000 0.151409
72  0.001801 -0.243604 1.309227  0.000000 -0.000000 -0.000000
73  0.001801 -0.505257 1.231033  0.000000 -0.000000 -0.000000
74  -0.000000 -0.261652 -0.078195  0.000000 -0.000000 -0.000000
75  0.000000 -0.523304 -0.156386  0.000000 -0.000000 -0.000000
76  -0.000000 -0.784957 -0.234577  0.000000 -0.000000 -0.000000
77  -0.000000 -1.046609 -0.312776  0.000000 -0.000000 -0.000000
78  0.000000 -1.308262 -0.390968  0.000000 -0.000000 -0.000000
79  0.000000 -1.569914 -0.469162  0.000000 -0.000000 -0.000000
80  -0.000000 -1.831567 -0.547356  0.000000 -0.000000 -0.000000
81  0.000000 -2.093219 -0.625547  0.000000 -0.000000 -0.000000
82  0.000000 -2.354871 -0.703743  0.000000 -0.000000 -0.000000
83  0.000000 -2.616524 -0.781936  0.000000 -0.000000 -0.000000
84  0.000000 -2.878177 -0.860129  0.000000 -0.000000 -0.000000
85  0.000000 -3.139829 -0.938324  0.000000 -0.000000 -0.000000
time 3
0  0.000006 0.000000 0.000000  -1.570800 -1.391899 -1.570792
1  -9.841317 -7.634221 1.937669  -1.544956 -1.855077 -0.198630
2  6.027521 -0.000327 0.000191  -1.319994 -1.119551 -0.703732
3  11.692108 0.000643 -0.000739  -1.166882 -0.000018 -1.385718
4  11.479946 0.000467 -0.000768  1.322567 -0.751268 0.365692
5  3.666628 -0.163903 -1.204802  -0.432465 0.238810 -0.696834
6  1.312589 0.000007 0.000009  -0.000027 0.000044 -0.439740
7  0.729355 0.000055 0.000049  0.000017 0.000021 -0.244317
8  3.942141 0.046332 -0.431542  -0.134396 0.101822 -0.612456
9  1.539111 0.000083 0.000004  -0.000007 0.000021 -0.247842
10  1.196332 0.000146 0.000028  0.000011 0.000018 -0.430770
11  3.883511 -0.047211 0.431351  0.088516 0.004389 -0.388736
12  1.719573 -0.000028 0.000017  0.000015 0.005518 -0.366533
13  1.209179 0.000090 0.000011  0.000004 0.003091 -0.216438
14  3.859677 -0.138417 1.332380  0.339946 -0.110946 -0.343275
15  1.719449 -0.000017 0.000028  0.000028 0.004066 -0.363025
16  1.099677 0.000050 0.000005  0.000003 0.002578 -0.244381
17  0.459533 -0.272515 1.494839  -1.245600 -0.652333 -0.748406
18  1.789819 -0.000005 -0.000017  0.001807 -0.010729 0.109488
19  1.207016 -0.000012 -0.000044  0.001268 0.000014 0.320655
20  5.740636 0.000389 -0.000699  -0.083059 0.000003 0.000064
21  11.480994 0.000270 -0.000805  -0.017866 -0.134672 0.040731
22  6.027524 -0.000329 0.000201  1.844592 -0.363410 1.769083
23  -0.000001 11.692099 -0.000009  -0.961302 -0.414075 -0.765804
24  0.000002 0.000008 0.000000  -0.297787 -0.000031 1.570739
25  -0.000001 -0.000011 -0.000001  0.868960 0.000002 1.570712
26  -7.194269 -9.801250 0.281197  1.473120 1.855075 -0.198639
27  6.027514 -0.000261 -0.000217  1.644656 0.901157 -0.661328
28  11.691993 0.000163 0.000857  0.237476 0.000040 -1.394151
29  11.479788 -0.000372 0.000933  -1.276231 0.467810 0.611576
30  3.710774 -0.434234 1.096848  0.406971 -0.281773 -0.608982
31  1.312560 0.000030 -0.000001  -0.000000 -0.000045 -0.148960
32  0.729345 0.000064 -0.000027  -0.000027 -0.000012 0.046463
33  3.820806 -0.154609 0.327899  0.121278 -0.118788 -0.520704
34  1.539096 0.000004 -0.000002  0.000007 -0.000009 0.042924
35  1.196302 0.000081 -0.000004  -0.000009 -0.000007 -0.140033
36  3.882445 -0.171892 -0.416804  -0.089865 -0.000691 -0.298015
37  1.719566 -0.000083 -0.000005  -0.002289 -0.007626 -0.075729
38  1.209192 0.000034 0.000012  -0.001277 -0.004274 0.074338
39  3.859583 -0.149082 -1.331323  -0.330196 0.136796 -0.257123
40  1.719411 -0.000097 -0.000037  -0.001916 -0.006299 -0.072275
41  1.099673 0.000023 0.000006  -0.001196 -0.004014 0.046404
42  0.230504 -0.805067 -1.086893  1.079795 0.646453 -0.910428
43  1.789780 -0.000006 -0.000043  0.011966 0.001552 -0.110980
44  1.206996 -0.000006 0.000005  0.005321 0.005317 0.007331
45  5.740574 0.000080 0.000721  0.096832 -0.000014 0.000028
46  11.480903 0.000001 0.000932  0.033993 0.085050 0.095166
47  6.027515 -0.000273 -0.000227  -1.001062 -0.373337 -1.714659
48  -0.000000 11.691977 -0.000005  -0.966305 0.418516 0.769235
49  0.000003 0.000000 0.000001  2.510011 -0.000036 1.570860
50  -0.000007 -0.000013 0.000005  2.272645 -0.000036 1.570861
51  -5.501427 -6.866060 -7.587422  -0.058844 -2.988634 1.303998
52  0.000000 0.000000 -0.000000  0.008153 -0.000259 0.000009
53  0.000000 -0.000000 -0.000000  1.565115 0.043565 -0.106862
54  3.159256 -7.934329 -8.459302  -0.479476 -0.025172 -1.725535
55  0.000001 0.000000 -0.000000  0.000000 -0.000001 -0.000002
56  0.000031 0.000029 0.000001  -1.571901 -0.044449 -0.106509
57  13.879580 -18.227863 -20.253773  1.570796 -0.000000 0.000000
58  -15.417984 3.791156 -22.774456  1.570796 -0.000000 0.000000
59  1.941978 9.263218 -8.327020  1.570796 -0.000000 0.000000
60  -0.004311 0.001229 -0.000372  0.006898 -0.005534 -0.284229
61  0.281193 10.925007 -5.335376  1.570796 -0.000000 0.000000
62  0.000000 0.000000 0.000000  -0.078727 -3.136056 0.284226
63  0.000000 0.000000 0.000000  1.563475 0.004351 -0.004479
64  -2.098607 -15.754692 -3.204377  1.570796 -0.000000 0.323256
65  0.001800 1.281289 2.949710  0.000000 -0.000000 0.000000
66  0.001798 2.205654 7.371570  0.000000 -0.000000 0.000000
67  0.001802 2.009157 1.913911  0.000000 -0.000000 0.000000
68  0.000000 2.151127 2.689003  0.000000 -0.000000 0.000000
69  0.001800 1.549859 -0.186520  -1.396263 -0.000000 -0.000000
70  0.394440 1.435772 1.872448  0.000000 -0.000000 0.000000
71  -1.934483 -16.244598 -1.253899  1.570796 -0.000000 0.323256
72  0.001802 -0.243604 1.309227  -0.000000 0.000000 -0.000000
73  0.001802 -0.505257 1.231032  -0.000000 0.000000 -0.000000
74  0.000000 -0.261652 -0.078192  -0.000000 0.000000 -0.000000
75  -0.000000 -0.523305 -0.156383  -0.000000 0.000000 -0.000000
76  0.000000 -0.784957 -0.234576  -0.000000 0.000000 -0.000000
77  -0.000000 -1.046609 -0.312774  -0.000000 0.000000 -0.000000
78  0.000000 -1.308262 -0.390967  -0.000000 0.000000 -0.000000
79  0.000000 -1.569914 -0.469162  -0.000000 0.000000 -0.000000
80  0.000000 -1.831567 -0.547355  -0.000000 0.000000 -0.000000
81  0.000000 -2.093219 -0.625546  -0.000000 0.000000 -0.000000
82  -0.000000 -2.354871 -0.703740  -0.000000 0.000000 -0.000000
83  -0.000000 -2.616524 -0.781934  -0.000000 0.000000 -0.000000
84  0.000000 -2.878177 -0.860126  -0.000000 0.000000 -0.000000
85  -0.000001 -3.139829 -0.938321  -0.000000 0.000000 -0.000000
time 4
0  0.000006 0.000000 0.000000  -1.570800 -1.391899 -1.570792
1  -9.841317 -7.634221 1.937669  -1.544956 -1.855077 -0.198630
2  6.027519 -0.000325 0.000192  -1.369022 -0.934410 -0.691322
3  11.692108 0.000644 -0.000739  -1.166887 -0.000025 -1.511467
4  11.480368 0.000540 -0.000602  1.395018 -0.631367 0.374683
5  3.666628 -0.163903 -1.204802  -0.440344 0.223186 -0.731242
6  1.312590 0.000009 0.000007  -0.000027 0.000044 -0.439740
7  0.729355 0.000053 0.000050  0.000017 0.000021 -0.244317
8  3.942140 0.046332 -0.431543  -0.138045 0.096803 -0.649253
9  1.539110 0.000082 0.000004  -0.000007 0.000021 -0.247842
10  1.196333 0.000146 0.000029  0.000011 0.000018 -0.430770
11  3.883510 -0.047211 0.431351  0.088294 0.007652 -0.425551
12  1.719573 -0.000027 0.000018  0.000015 0.005518 -0.366533
13  1.209180 0.000088 0.000013  0.000004 0.003091 -0.216438
14  3.859676 -0.138418 1.332380  0.343607 -0.098558 -0.378287
15  1.719449 -0.000019 0.000029  0.000028 0.004066 -0.363025
16  1.099675 0.000051 0.000006  0.000003 0.002578 -0.244381
17  0.459533 -0.272515 1.494839  -1.236376 -0.663501 -0.764901
18  1.789819 -0.000002 -0.000016  0.001478 -0.009239 0.126219
19  1.207017 -0.000012 -0.000044  0.001090 0.000003 0.338066
20  5.740635 0.000389 -0.000699  -0.055865 0.000003 0.000063
21  11.481080 0.000285 -0.000771  -0.009708 -0.109269 0.050878
22  6.027524 -0.000329 0.000201  1.999676 -0.485809 1.675239
23  0.000000 11.692100 -0.000007  -1.036257 -0.482320 -0.814538
24  0.000002 0.000010 -0.000000  -0.297787 -0.000031 1.570739
25  -0.000001 -0.000011 0.000001  0.868960 0.000002 1.570712
26  -7.406292 -9.130194 -0.111046  1.473120 1.855075 -0.198639
27  6.027512 -0.000259 -0.000223  1.712865 0.620295 -0.677690
28  11.691992 0.000162 0.000857  0.308096 0.000052 -1.542410
29  11.479952 -0.000292 0.000956  -1.381993 0.386749 0.504304
30  3.710776 -0.434235 1.096848  0.406970 -0.281773 -0.608982
31  1.312559 0.000031 -0.000000  -0.000000 -0.000045 -0.148960
32  0.729346 0.000066 -0.000027  -0.000028 -0.000012 0.046463
33  3.820807 -0.154608 0.327899  0.121278 -0.118788 -0.520704
34  1.539096 0.000004 -0.000002  0.000007 -0.000009 0.042924
35  1.196302 0.000080 -0.000003  -0.000009 -0.000007 -0.140032
36  3.882446 -0.171893 -0.416805  -0.089865 -0.000691 -0.298015
37  1.719567 -0.000084 -0.000004  -0.002289 -0.007626 -0.075729
38  1.209194 0.000033 0.000011  -0.001277 -0.004274 0.074338
39  3.859586 -0.149082 -1.331322  -0.330196 0.136796 -0.257124
40  1.719412 -0.000096 -0.000039  -0.001916 -0.006299 -0.072275
41  1.099672 0.000023 0.000007  -0.001196 -0.004014 0.046404
42  0.230505 -0.805066 -1.086894  1.079795 0.646453 -0.910428
43  1.789780 -0.000007 -0.000042  0.011966 0.001552 -0.110980
44  1.206995 -0.000006 0.000006  0.005321 0.005317 0.007331
45  5.740575 0.000080 0.000722  0.060637 -0.000014 0.000028
46  11.480936 0.000016 0.000937  0.021870 0.062959 0.081524
47  6.027514 -0.000273 -0.000230  -0.700442 -0.446838 -1.899224
48  -0.000001 11.691975 -0.000006  -1.054459 0.499572 0.825943
49  0.000004 -0.000000 0.000000  2.580629 -0.000036 1.570860
50  -0.000007 -0.000014 0.000005  2.272645 -0.000036 1.570861
51  -8.601633 -5.871723 -10.227851  -0.063553 -3.036426 1.307255
52  0.000000 0.000000 -0.000001  0.008153 -0.000259 0.000009
53  0.000001 0.000000 -0.000001  1.565115 0.043565 -0.106862
54  4.760328 -7.371799 -10.000984  -0.452237 -0.006304 -1.806614
55  -0.000001 -0.000000 -0.000000  0.000000 -0.000001 -0.000002
56  0.000030 0.000028 0.000001  -1.571901 -0.044449 -0.106509
57  14.850840 -17.281540 -22.415585  1.570796 -0.000000 0.000000
58  -15.417984 3.640481 -22.869732  1.570796 -0.000000 0.000000
59  1.941978 9.263218 -8.327020  1.570796 -0.000000 0.000000
60  -0.004311 0.001229 -0.000372  0.006898 -0.005534 -0.284229
61  -0.111049 10.302388 -5.663425  1.570796 -0.000000 0.000000
62  0.000000 0.000000 0.000000  -0.078727 -3.136056 0.284226
63  0.000000 0.000000 0.000000  1.563882 0.004111 -0.004230
64  -2.213725 -18.684650 -2.790642  1.570796 -0.000000 0.541401
65  0.001799 1.281290 2.949712  0.000000 -0.000000 0.000000
66  0.001799 2.205654 7.371568  0.000000 -0.000000 0.000000
67  0.001802 2.009157 1.913909  0.000000 -0.000000 0.000000
68  0.000001 2.151127 2.689000  0.000000 -0.000000 0.000000
69  0.001800 1.549859 -0.186520  -1.396263 -0.000000 -0.000000
70  0.394440 1.435772 1.872448  0.000000 -0.000000 0.000000
71  -1.947467 -19.127428 -0.840163  1.570796 -0.000000 0.541401
72  0.001801 -0.243604 1.309226  0.000000 0.000000 0.000000
73  0.001801 -0.505257 1.231034  0.000000 0.000000 0.000000
74  -0.000000 -0.261652 -0.078194  0.000000 0.000000 0.000000
75  -0.000001 -0.523305 -0.156384  0.000000 0.000000 0.000000
76  -0.000000 -0.784957 -0.234576  0.000000 0.000000 0.000000
77  0.000000 -1.046609 -0.312776  0.000000 0.000000 0.000000
78  0.000001 -1.308262 -0.390968  0.000000 0.000000 0.000000
79  -0.000000 -1.569914 -0.469161  0.000000 0.000000 0.000000
80  -0.000000 -1.831567 -0.547355  0.000000 0.000000 0.000000
81  0.000000 -2.093219 -0.625547  0.000000 0.000000 0.000000
82  -0.000000 -2.354871 -0.703742  0.000000 0.000000 0.000000
83  -0.000000 -2.616524 -0.781934  0.000000 0.000000 0.000000
84  0.000000 -2.878177 -0.860129  0.000000 0.000000 0.000000
85  0.000000 -3.139829 -0.938323  0.000000 0.000000 0.000000
time 5
0  0.000006 0.000000 0.000000  -1.570800 -1.391899 -1.570792
1  -9.841317 -7.634221 1.937669  -1.544956 -1.855077 -0.198630
2  6.027519 -0.000324 0.000193  -1.407687 -0.760599 -0.724666
3  11.692106 0.000643 -0.000739  -1.166889 -0.000028 -1.557804
4  11.480000 0.000448 -0.000808  1.520957 -0.358570 0.458174
5  3.666628 -0.163904 -1.204803  -0.449248 0.203600 -0.773279
6  1.312590 0.000007 0.000009  -0.000027 0.000044 -0.439740
7  0.729355 0.000053 0.000049  0.000017 0.000021 -0.244317
8  3.942140 0.046331 -0.431544  -0.142277 0.090444 -0.694518
9  1.539111 0.000082 0.000005  -0.000007 0.000021 -0.247842
10  1.196332 0.000146 0.000028  0.000011 0.000019 -0.430770
11  3.883510 -0.047212 0.431350  0.087857 0.011656 -0.470889
12  1.719573 -0.000029 0.000018  0.000015 0.005518 -0.366533
13  1.209179 0.000089 0.000012  0.000004 0.003091 -0.216438
14  3.859676 -0.138418 1.332378  0.347509 -0.083139 -0.421286
15  1.719448 -0.000017 0.000028  0.000028 0.004066 -0.363025
16  1.099676 0.000049 0.000007  0.000003 0.002578 -0.244381
17  0.459533 -0.272516 1.494838  -1.229570 -0.671430 -0.776894
18  1.789819 -0.000004 -0.000016  0.001025 -0.006957 0.151719
19  1.207016 -0.000010 -0.000044  0.000819 -0.000004 0.350545
20  5.740633 0.000387 -0.000698  -0.001922 0.000003 0.000064
21  11.481007 0.000266 -0.000812  0.004867 -0.051701 0.078657
22  6.027524 -0.000329 0.000201  2.169154 -0.584026 1.526147
23  0.000001 11.692099 -0.000007  -1.063605 -0.508266 -0.831455
24  0.000004 0.000007 0.000000  -0.297787 -0.000031 1.570739
25  -0.000000 -0.000011 0.000001  0.868960 0.000002 1.570712
26  -7.646480 -8.369997 -0.555393  1.473120 1.855075 -0.198639
27  6.027513 -0.000258 -0.000223  1.805502 0.388027 -0.724889
28  11.691994 0.000162 0.000857  0.388328 0.000054 -1.576792
29  11.479693 -0.000354 0.001034  -1.535941 0.245838 0.376772
30  3.710775 -0.434235 1.096849  0.406970 -0.281773 -0.608982
31  1.312560 0.000030 0.000001  -0.000000 -0.000045 -0.148960
32  0.729347 0.000065 -0.000027  -0.000027 -0.000012 0.046463
33  3.820807 -0.154610 0.327900  0.121278 -0.118788 -0.520704
34  1.539096 0.000004 -0.000002  0.000007 -0.000009 0.042924
35  1.196301 0.000080 -0.000002  -0.000009 -0.000007 -0.140032
36  3.882446 -0.171893 -0.416805  -0.089865 -0.000691 -0.298015
37  1.719565 -0.000084 -0.000004  -0.002289 -0.007626 -0.075729
38  1.209192 0.000033 0.000011  -0.001277 -0.004274 0.074338
39  3.859584 -0.149083 -1.331323  -0.330196 0.136796 -0.257123
40  1.719412 -0.000097 -0.000039  -0.001916 -0.006299 -0.072275
41  1.099673 0.000021 0.000008  -0.001196 -0.004014 0.046404
42  0.230504 -0.805067 -1.086894  1.079795 0.646453 -0.910428
43  1.789781 -0.000008 -0.000043  0.011966 0.001552 -0.110980
44  1.206995 -0.000007 0.000006  0.005321 0.005317 0.007331
45  5.740573 0.000079 0.000721  0.012991 -0.000014 0.000028
46  11.480883 0.000003 0.000953  0.000694 0.028475 0.063999
47  6.027516 -0.000271 -0.000229  -0.429330 -0.430013 -2.107178
48  -0.000000 11.691978 -0.000006  -1.074707 0.518985 0.838270
49  0.000003 0.000001 -0.000001  2.660860 -0.000036 1.570860
50  -0.000006 -0.000012 0.000005  2.272645 -0.000036 1.570861
51  -11.679523 -4.976236 -12.917002  -0.085948 -3.105298 1.309173
52  0.000000 -0.000000 0.000000  0.008153 -0.000259 0.000009
53  0.000000 -0.000001 -0.000000  1.565115 0.043565 -0.106862
54  6.436668 -7.119675 -11.744678  -0.388673 0.051985 -2.004787
55  0.000000 0.000000 0.000000  0.000000 -0.000001 -0.000002
56  0.000030 0.000030 0.000001  -1.571901 -0.044449 -0.106509
57  15.526468 -16.209511 -24.864563  1.570796 -0.000000 0.000000
58  -15.417984 3.469790 -22.977665  1.570796 -0.000000 0.000000
59  1.941978 9.263218 -8.327020  1.570796 -0.000000 0.000000
60  -0.004311 0.001229 -0.000372  0.006898 -0.005534 -0.284229
61  -0.555397 9.597063 -6.035052  1.570796 -0.000000 0.000000
62  0.000000 0.000000 0.000000  -0.078727 -3.136056 0.284226
63  0.000000 0.000000 0.000000  1.564928 0.003491 -0.003588
64  -2.339002 -21.873137 -2.340400  1.570796 -0.000000 0.785398
65  0.001797 1.281290 2.949713  0.000000 -0.000000 0.000000
66  0.001798 2.205654 7.371572  0.000000 -0.000000 0.000000
67  0.001802 2.009157 1.913910  0.000000 -0.000000 0.000000
68  0.000001 2.151127 2.689004  0.000000 -0.000000 0.000000
69  0.001798 1.549859 -0.186518  -1.396263 -0.000000 -0.000000
70  0.394439 1.435772 1.872450  0.000000 -0.000000 0.000000
71  -1.973661 -22.238476 -0.389921  1.570796 -0.000000 0.785398
72  0.001801 -0.243604 1.309227  0.000000 0.000000 0.000000
73  0.001801 -0.505257 1.231033  0.000000 0.000000 0.000000
74  0.000002 -0.261652 -0.078194  0.000000 0.000000 0.000000
75  -0.000000 -0.523305 -0.156385  0.000000 0.000000 0.000000
76  0.000001 -0.784957 -0.234577  0.000000 0.000000 0.000000
77  0.000002 -1.046609 -0.312777  0.000000 0.000000 0.000000
78  0.000001 -1.308262 -0.390968  0.000000 0.000000 0.000000
79  0.000001 -1.569914 -0.469162  0.000000 0.000000 0.000000
80  0.000001 -1.831567 -0.547356  0.000000 0.000000 0.000000
81  0.000000 -2.093219 -0.625546  0.000000 0.000000 0.000000
82  0.000001 -2.354871 -0.703743  0.000000 0.000000 0.000000
83  0.000001 -2.616524 -0.781935  0.000000 0.000000 0.000000
84  0.000001 -2.878177 -0.860128  0.000000 0.000000 0.000000
85  0.000000 -3.139829 -0.938323  0.000000 0.000000 0.000000
time 6
0  0.000006 0.000000 0.000000  -1.570800 -1.391899 -1.570792
1  -9.841317 -7.634221 1.937669  -1.544956 -1.855077 -0.198630
2  6.027518 -0.000323 0.000194  -1.452771 -0.607873 -0.785997
3  11.692106 0.000644 -0.000739  -1.166889 -0.000028 -1.561257
4  11.479975 0.000442 -0.000825  1.700255 -0.139975 0.575135
5  3.666627 -0.163904 -1.204803  -0.457196 0.183872 -0.814551
6  1.312590 0.000010 0.000007  -0.000027 0.000044 -0.439740
7  0.729356 0.000053 0.000049  0.000017 0.000021 -0.244317
8  3.942140 0.046331 -0.431544  -0.146176 0.083968 -0.739269
9  1.539112 0.000083 0.000004  -0.000007 0.000021 -0.247842
10  1.196332 0.000147 0.000028  0.000011 0.000018 -0.430770
11  3.883510 -0.047213 0.431349  0.087245 0.015596 -0.515770
12  1.719573 -0.000029 0.000018  0.000015 0.005518 -0.366533
13  1.209179 0.000091 0.000012  0.000004 0.003091 -0.216438
14  3.859676 -0.138418 1.332379  0.350709 -0.067728 -0.463738
15  1.719449 -0.000019 0.000029  0.000028 0.004066 -0.363025
16  1.099676 0.000048 0.000006  0.000003 0.002578 -0.244381
17  0.459534 -0.272515 1.494838  -1.225391 -0.676175 -0.784187
18  1.789818 -0.000004 -0.000017  0.000581 -0.004355 0.180646
19  1.207017 -0.000014 -0.000045  0.000512 -0.000007 0.358062
20  5.740636 0.000388 -0.000700  0.053201 0.000003 0.000063
21  11.481005 0.000265 -0.000819  0.030638 -0.000083 0.107974
22  6.027524 -0.000329 0.000201  2.346492 -0.643679 1.333858
23  -0.000001 11.692099 -0.000007  -1.065639 -0.510215 -0.832693
24  0.000002 0.000008 0.000000  -0.297787 -0.000031 1.570739
25  0.000000 -0.000011 0.000001  0.868960 0.000002 1.570712
26  -7.886666 -7.609800 -0.999740  1.473120 1.855075 -0.198639
27  6.027513 -0.000258 -0.000223  1.905908 0.244740 -0.786111
28  11.691991 0.000161 0.000857  0.468560 0.000051 -1.560131
29  11.479819 -0.000208 0.001022  -1.710905 0.102504 0.331726
30  3.710774 -0.434235 1.096851  0.406970 -0.281773 -0.608982
31  1.312560 0.000030 0.000000  -0.000000 -0.000045 -0.148960
32  0.729346 0.000064 -0.000029  -0.000027 -0.000012 0.046463
33  3.820805 -0.154608 0.327900  0.121278 -0.118788 -0.520704
34  1.539095 0.000005 -0.000002  0.000007 -0.000009 0.042924
35  1.196303 0.000081 -0.000002  -0.000009 -0.000007 -0.140032
36  3.882446 -0.171892 -0.416803  -0.089865 -0.000691 -0.298015
37  1.719566 -0.000085 -0.000005  -0.002289 -0.007626 -0.075729
38  1.209194 0.000033 0.000010  -0.001277 -0.004274 0.074338
39  3.859584 -0.149082 -1.331322  -0.330196 0.136796 -0.257123
40  1.719412 -0.000096 -0.000036  -0.001916 -0.006299 -0.072275
41  1.099673 0.000022 0.000007  -0.001196 -0.004014 0.046404
42  0.230503 -0.805067 -1.086893  1.079795 0.646453 -0.910428
43  1.789780 -0.000007 -0.000042  0.011966 0.001552 -0.110980
44  1.206995 -0.000006 0.000006  0.005321 0.005317 0.007331
45  5.740573 0.000079 0.000721  -0.030389 -0.000014 0.000028
46  11.480907 0.000033 0.000949  -0.028636 -0.005474 0.059136
47  6.027515 -0.000273 -0.000228  -0.261428 -0.355332 -2.264167
48  -0.000000 11.691976 -0.000007  -1.064904 0.509550 0.832333
49  0.000004 -0.000000 0.000001  2.741090 -0.000036 1.570860
50  -0.000007 -0.000013 0.000005  2.272645 -0.000036 1.570861
51  -13.974303 -4.247921 -15.016747  -0.121642 3.091568 1.313502
52  0.000000 0.000000 -0.000000  0.008153 -0.000259 0.000009
53  -0.000001 0.000001 0.000000  1.565115 0.043565 -0.106862
54  7.944530 -6.851090 -13.534251  -0.335907 0.125933 -2.157472
55  0.000000 0.000001 -0.000001  0.000000 -0.000001 -0.000002
56  0.000031 0.000030 0.000000  -1.571901 -0.044449 -0.106509
57  15.758612 -15.137481 -27.313540  1.570796 -0.000000 0.000000
58  -15.417985 3.299099 -23.085596  1.570796 -0.000000 0.000000
59  1.941978 9.263218 -8.327020  1.570796 -0.000000 0.000000
60  -0.004311 0.001229 -0.000372  0.006898 -0.005534 -0.284229
61  -0.999744 8.891739 -6.406678  1.570796 -0.000000 0.000000
62  0.000000 0.000000 0.000000  -0.078727 -3.136056 0.284226
63  0.000000 0.000000 0.000000  1.566359 0.002643 -0.002712
64  -2.464278 -25.061625 -1.890157  1.570796 -0.000000 1.029395
65  0.001798 1.281290 2.949711  0.000000 -0.000000 0.000000
66  0.001800 2.205654 7.371569  0.000000 -0.000000 0.000000
67  0.001804 2.009157 1.913909  0.000000 -0.000000 0.000000
68  0.000000 2.151127 2.689001  0.000000 -0.000000 0.000000
69  0.001800 1.549859 -0.186522  -1.396263 -0.000000 -0.000000
70  0.394441 1.435772 1.872448  0.000000 -0.000000 0.000000
71  -2.021501 -25.327881 0.060321  1.570796 -0.000000 1.029395
72  0.001801 -0.243604 1.309227  -0.000000 0.000000 -0.000000
73  0.001803 -0.505257 1.231033  -0.000000 0.000000 -0.000000
74  -0.000001 -0.261652 -0.078195  -0.000000 0.000000 -0.000000
75  -0.000001 -0.523305 -0.156385  -0.000000 0.000000 -0.000000
76  -0.000002 -0.784957 -0.234577  -0.000000 0.000000 -0.000000
77  -0.000001 -1.046609 -0.312775  -0.000000 0.000000 -0.000000
78  -0.000001 -1.308262 -0.390967  -0.000000 0.000000 -0.000000
79  -0.000001 -1.569914 -0.469162  -0.000000 0.000000 -0.000000
80  -0.000001 -1.831567 -0.547355  -0.000000 0.000000 -0.000000
81  -0.000001 -2.093219 -0.625547  -0.000000 0.000000 -0.000000
82  -0.000000 -2.354871 -0.703743  -0.000000 0.000000 -0.000000
83  -0.000001 -2.616524 -0.781936  -0.000000 0.000000 -0.000000
84  -0.000001 -2.878177 -0.860129  -0.000000 0.000000 -0.000000
85  -0.000001 -3.139829 -0.938323  -0.000000 0.000000 -0.000000
time 7
0  0.000006 0.000000 0.000000  -1.570800 -1.391899 -1.570792
1  -9.841317 -7.634221 1.937669  -1.544956 -1.855077 -0.198630
2  6.027518 -0.000322 0.000196  -1.468454 -0.456375 -0.839273
3  11.692108 0.000644 -0.000738  -1.166888 -0.000026 -1.517955
4  11.480316 0.000525 -0.000629  1.938253 -0.071841 0.664251
5  3.666626 -0.163903 -1.204803  -0.463201 0.167083 -0.848947
6  1.312590 0.000013 0.000008  -0.000027 0.000044 -0.439740
7  0.729355 0.000054 0.000051  0.000017 0.000021 -0.244317
8  3.942140 0.046331 -0.431542  -0.149218 0.078404 -0.776781
9  1.539110 0.000081 0.000004  -0.000007 0.000021 -0.247842
10  1.196333 0.000144 0.000027  0.000011 0.000018 -0.430770
11  3.883510 -0.047212 0.431351  0.086596 0.018878 -0.553433
12  1.719572 -0.000028 0.000015  0.000015 0.005518 -0.366533
13  1.209179 0.000091 0.000011  0.000004 0.003091 -0.216438
14  3.859676 -0.138419 1.332379  0.352884 -0.054701 -0.499290
15  1.719449 -0.000018 0.000029  0.000028 0.004066 -0.363025
16  1.099676 0.000047 0.000007  0.000003 0.002578 -0.244381
17  0.459532 -0.272515 1.494840  -1.223404 -0.678399 -0.787637
18  1.789820 -0.000003 -0.000016  0.000252 -0.002052 0.206143
19  1.207017 -0.000013 -0.000043  0.000240 -0.000008 0.361598
20  5.740636 0.000390 -0.000699  0.098215 0.000003 0.000063
21  11.481075 0.000280 -0.000781  0.073138 0.027802 0.128974
22  6.027524 -0.000329 0.000201  2.525770 -0.703097 1.160565
23  0.000001 11.692101 -0.000008  -1.040093 -0.485928 -0.816940
24  0.000004 0.000009 0.000001  -0.297787 -0.000030 1.570739
25  0.000001 -0.000010 -0.000000  0.868960 0.000002 1.570712
26  -8.098690 -6.938742 -1.391983  1.473120 1.855075 -0.198639
27  6.027511 -0.000257 -0.000226  1.874130 0.115454 -0.832763
28  11.691994 0.000161 0.000858  0.539174 0.000048 -1.489525
29  11.480366 0.000145 0.000866  -1.895446 0.032560 0.281805
30  3.710775 -0.434235 1.096851  0.406970 -0.281773 -0.608981
31  1.312562 0.000032 0.000000  -0.000000 -0.000045 -0.148960
32  0.729350 0.000067 -0.000025  -0.000028 -0.000012 0.046463
33  3.820807 -0.154610 0.327901  0.121278 -0.118788 -0.520704
34  1.539094 0.000005 -0.000004  0.000007 -0.000009 0.042924
35  1.196299 0.000081 -0.000002  -0.000009 -0.000007 -0.140032
36  3.882446 -0.171893 -0.416805  -0.089865 -0.000691 -0.298015
37  1.719566 -0.000083 -0.000004  -0.002288 -0.007626 -0.075729
38  1.209193 0.000034 0.000008  -0.001277 -0.004274 0.074338
39  3.859585 -0.149082 -1.331321  -0.330196 0.136796 -0.257124
40  1.719413 -0.000096 -0.000038  -0.001916 -0.006299 -0.072275
41  1.099672 0.000022 0.000006  -0.001197 -0.004014 0.046404
42  0.230503 -0.805067 -1.086894  1.079795 0.646453 -0.910428
43  1.789780 -0.000008 -0.000042  0.011966 0.001552 -0.110980
44  1.206996 -0.000006 0.000005  0.005321 0.005317 0.007331
45  5.740573 0.000076 0.000720  -0.064698 -0.000014 0.000028
46  11.481017 0.000100 0.000919  -0.063487 -0.023713 0.051038
47  6.027514 -0.000273 -0.000229  -0.125181 -0.395722 -2.355163
48  -0.000002 11.691978 -0.000007  -1.023192 0.470148 0.806371
49  0.000003 0.000000 0.000000  2.811707 -0.000036 1.570860
50  -0.000008 -0.000014 0.000004  2.272645 -0.000036 1.570861
51  -14.865385 -3.608417 -17.959389  -0.219710 2.943671 1.339721
52  -0.000001 -0.000000 0.000000  0.008153 -0.000259 0.000009
53  0.000000 -0.000000 0.000000  1.565115 0.043565 -0.106862
54  9.154095 -6.406693 -16.024948  -0.252222 0.272908 -2.188857
55  0.000001 0.000000 -0.000001  0.000000 -0.000001 -0.000002
56  0.000031 0.000029 0.000001  -1.571901 -0.044449 -0.106509
57  15.524076 -14.191155 -29.475355  1.570796 -0.000000 0.000000
58  -15.417985 3.148425 -23.180872  1.570796 -0.000000 0.000000
59  1.941978 9.263218 -8.327020  1.570796 -0.000000 0.000000
60  -0.004311 0.001229 -0.000372  0.006898 -0.005534 -0.284229
61  -1.391987 8.269119 -6.734729  1.570796 -0.000000 0.000000
62  0.000000 0.000000 0.000000  -0.078727 -3.136056 0.284226
63  0.000000 0.000000 0.000000  1.567917 0.001717 -0.001759
64  -2.579397 -27.991585 -1.476422  1.570796 -0.000000 1.247540
65  0.001798 1.281290 2.949712  0.000000 0.000000 0.000000
66  0.001797 2.205655 7.371570  0.000000 0.000000 0.000000
67  0.001800 2.009157 1.913910  0.000000 0.000000 0.000000
68  -0.000000 2.151127 2.689003  0.000000 0.000000 0.000000
69  0.001799 1.549859 -0.186521  -1.396263 0.000000 -0.000000
70  0.394438 1.435772 1.872450  0.000000 0.000000 0.000000
71  -2.089490 -28.155708 0.474056  1.570796 -0.000000 1.247540
72  0.001800 -0.243604 1.309228  -0.000000 0.000000 -0.000000
73  0.001801 -0.505257 1.231035  -0.000000 0.000000 -0.000000
74  0.000000 -0.261652 -0.078194  -0.000000 0.000000 -0.000000
75  0.000001 -0.523305 -0.156385  -0.000000 0.000000 -0.000000
76  -0.000001 -0.784957 -0.234576  -0.000000 0.000000 -0.000000
77  0.000001 -1.046609 -0.312776  -0.000000 0.000000 -0.000000
78  -0.000000 -1.308262 -0.390967  -0.000000 0.000000 -0.000000
79  0.000001 -1.569914 -0.469161  -0.000000 0.000000 -0.000000
80  -0.000001 -1.831567 -0.547354  -0.000000 0.000000 -0.000000
81  0.000001 -2.093219 -0.625546  -0.000000 0.000000 -0.000000
82  -0.000001 -2.354871 -0.703741  -0.000000 0.000000 -0.000000
83  0.000000 -2.616524 -0.781935  -0.000000 0.000000 -0.000000
84  0.000000 -2.878177 -0.860128  -0.000000 0.000000 -0.000000
85  -0.000000 -3.139829 -0.938322  -0.000000 0.000000 -0.000000
time 8
0  0.000006 0.000000 0.000000  -1.570800 -1.391899 -1.570792
1  -9.841317 -7.634221 1.937669  -1.544956 -1.855077 -0.198630
2  6.027518 -0.000322 0.000197  -1.389781 -0.344763 -0.835855
3  11.692105 0.000643 -0.000737  -1.166881 -0.000017 -1.367340
4  11.480062 0.000488 -0.000704  2.185831 -0.144378 0.608335
5  3.666627 -0.163903 -1.204800  -0.466901 0.155680 -0.871971
6  1.312589 0.000012 0.000009  -0.000027 0.000044 -0.439740
7  0.729355 0.000053 0.000051  0.000017 0.000021 -0.244317
8  3.942141 0.046330 -0.431543  -0.151145 0.074600 -0.801994
9  1.539110 0.000084 0.000001  -0.000007 0.000021 -0.247842
10  1.196333 0.000146 0.000028  0.000011 0.000019 -0.430770
11  3.883510 -0.047212 0.431353  0.086090 0.021071 -0.578769
12  1.719572 -0.000029 0.000018  0.000015 0.005518 -0.366533
13  1.209179 0.000088 0.000013  0.000004 0.003091 -0.216438
14  3.859677 -0.138419 1.332381  0.354085 -0.045899 -0.523173
15  1.719448 -0.000018 0.000029  0.000028 0.004066 -0.363025
16  1.099675 0.000049 0.000006  0.000003 0.002578 -0.244381
17  0.459532 -0.272516 1.494841  -1.222771 -0.679103 -0.788734
18  1.789819 -0.000004 -0.000017  0.000068 -0.000537 0.222871
19  1.207016 -0.000013 -0.000044  0.000062 -0.000008 0.362720
20  5.740636 0.000389 -0.000695  0.123745 0.000003 0.000063
21  11.481025 0.000274 -0.000791  0.125451 0.025015 0.125109
22  6.027524 -0.000329 0.000201  2.626959 -0.814118 1.124975
23  -0.000000 11.692098 -0.000009  -0.950235 -0.404385 -0.758343
24  0.000005 0.000009 0.000002  -0.297788 -0.000031 1.570739
25  -0.000001 -0.000011 -0.000000  0.868960 0.000002 1.570712
26  -8.260793 -6.425683 -1.691873  1.473120 1.855075 -0.198639
27  6.027512 -0.000257 -0.000228  1.492236 0.054415 -0.746725
28  11.691992 0.000161 0.000857  0.592914 0.000029 -1.235761
29  11.479560 -0.000071 0.001032  -1.931732 0.131205 0.078744
30  3.710775 -0.434236 1.096845  0.406970 -0.281773 -0.608981
31  1.312560 0.000029 -0.000001  -0.000000 -0.000045 -0.148960
32  0.729345 0.000063 -0.000027  -0.000028 -0.000012 0.046463
33  3.820807 -0.154611 0.327897  0.121278 -0.118788 -0.520704
34  1.539095 0.000006 -0.000002  0.000007 -0.000009 0.042924
35  1.196304 0.000080 -0.000003  -0.000009 -0.000007 -0.140032
36  3.882445 -0.171892 -0.416810  -0.089865 -0.000691 -0.298015
37  1.719566 -0.000084 -0.000011  -0.002289 -0.007626 -0.075729
38  1.209191 0.000034 0.000010  -0.001277 -0.004274 0.074338
39  3.859584 -0.149083 -1.331328  -0.330196 0.136796 -0.257123
40  1.719412 -0.000097 -0.000039  -0.001916 -0.006299 -0.072275
41  1.099672 0.000022 0.000004  -0.001196 -0.004014 0.046404
42  0.230504 -0.805068 -1.086897  1.079795 0.646453 -0.910428
43  1.789780 -0.000006 -0.000042  0.011966 0.001552 -0.110980
44  1.206995 -0.000007 0.000005  0.005321 0.005317 0.007331
45  5.740572 0.000078 0.000721  -0.073214 -0.000014 0.000028
46  11.480857 0.000060 0.000950  -0.073000 0.000828 0.014110
47  6.027516 -0.000273 -0.000228  -0.076471 -0.778950 -2.263814
48  0.000000 11.691977 -0.000006  -0.869902 0.337296 0.702473
49  0.000002 -0.000001 0.000001  2.865455 -0.000036 1.570860
50  -0.000006 -0.000014 0.000005  2.272645 -0.000036 1.570861
51  -14.077504 -3.051653 -22.686184  -0.408319 2.711061 1.371734
52  0.000000 -0.000001 -0.000000  0.008153 -0.000259 0.000009
53  0.000001 -0.000001 -0.000004  1.565115 0.043565 -0.106862
54  9.906859 -5.881890 -19.480747  -0.071698 0.525029 -2.072363
55  -0.000000 0.000000 0.000000  0.000000 -0.000001 -0.000002
56  0.000030 0.000029 -0.000000  -1.571902 -0.044449 -0.106509
57  14.910593 -13.467643 -31.128174  1.570796 -0.000000 0.000000
58  -15.417985 3.033225 -23.253716  1.570796 -0.000000 0.000000
59  1.941978 9.263218 -8.327020  1.570796 -0.000000 0.000000
60  -0.004311 0.001229 -0.000372  0.006898 -0.005534 -0.284229
61  -1.691877 7.793094 -6.985540  1.570796 -0.000000 0.000000
62  0.000000 0.000000 0.000000  -0.078727 -3.136056 0.284226
63  0.000000 0.000000 0.000000  1.569347 0.000865 -0.000885
64  -2.674201 -30.404491 -1.135698  1.570796 -0.000000 1.419387
65  0.001801 1.281290 2.949712  0.000000 -0.000000 0.000000
66  0.001798 2.205655 7.371570  0.000000 -0.000000 0.000000
67  0.001804 2.009157 1.913910  0.000000 -0.000000 0.000000
68  0.000001 2.151127 2.689002  0.000000 -0.000000 0.000000
69  0.001800 1.549859 -0.186521  -1.396263 -0.000000 -0.000000
70  0.394439 1.435772 1.872449  0.000000 -0.000000 0.000000
71  -2.163443 -30.482422 0.814780  1.570796 -0.000000 1.419387
72  0.001801 -0.243604 1.309227  -0.000000 0.000000 -0.000000
73  0.001802 -0.505257 1.231033  -0.000000 0.000000 -0.000000
74  0.000001 -0.261652 -0.078195  -0.000000 0.000000 -0.000000
75  0.000000 -0.523305 -0.156385  -0.000000 0.000000 -0.000000
76  -0.000001 -0.784957 -0.234577  -0.000000 0.000000 -0.000000
77  -0.000001 -1.046609 -0.312775  -0.000000 0.000000 -0.000000
78  -0.000000 -1.308262 -0.390967  -0.000000 0.000000 -0.000000
79  0.000000 -1.569914 -0.469162  -0.000000 0.000000 -0.000000
80  -0.000001 -1.831567 -0.547355  -0.000000 0.000000 -0.000000
81  -0.000000 -2.093219 -0.625546  -0.000000 0.000000 -0.000000
82  -0.000000 -2.354871 -0.703742  -0.000000 0.000000 -0.000000
83  0.000000 -2.616524 -0.781935  -0.000000 0.000000 -0.000000
84  -0.000001 -2.878177 -0.860128  -0.000000 0.000000 -0.000000
85  -0.000001 -3.139829 -0.938323  -0.000000 0.000000 -0.000000
time 9
0  0.000006 0.000000 0.000000  -1.570800 -1.391899 -1.570792
1  -9.841317 -7.634221 1.937669  -1.544956 -1.855077 -0.198630
2  6.027517 -0.000323 0.000197  -1.175735 -0.353854 -0.749077
3  11.692109 0.000645 -0.000740  -1.166871 -0.000007 -1.164235
4  11.480401 0.000582 -0.000492  2.203593 -0.213275 0.408964
5  3.666626 -0.163903 -1.204800  -0.468169 0.151546 -0.880257
6  1.312588 0.000010 0.000007  -0.000027 0.000044 -0.439740
7  0.729355 0.000057 0.000048  0.000017 0.000021 -0.244317
8  3.942140 0.046331 -0.431542  -0.151817 0.073216 -0.811086
9  1.539110 0.000082 0.000005  -0.000007 0.000021 -0.247842
10  1.196333 0.000146 0.000027  0.000011 0.000019 -0.430770
11  3.883511 -0.047211 0.431351  0.085894 0.021858 -0.587909
12  1.719571 -0.000028 0.000016  0.000015 0.005518 -0.366533
13  1.209179 0.000089 0.000014  0.000004 0.003091 -0.216438
14  3.859675 -0.138418 1.332383  0.354466 -0.042717 -0.531784
15  1.719448 -0.000018 0.000026  0.000028 0.004066 -0.363025
16  1.099676 0.000048 0.000005  0.000003 0.002578 -0.244381
17  0.459534 -0.272515 1.494840  -1.222694 -0.679188 -0.788867
18  1.789819 -0.000004 -0.000018  0.000011 -0.000024 0.228523
19  1.207017 -0.000015 -0.000045  0.000002 -0.000008 0.362856
20  5.740637 0.000388 -0.000701  0.117239 0.000003 0.000063
21  11.481093 0.000291 -0.000754  0.131475 0.002263 0.089647
22  6.027524 -0.000329 0.000201  -0.680379 -2.154010 -1.725810
23  -0.000000 11.692097 -0.000008  -0.825451 -0.302709 -0.670265
24  0.000002 0.000009 0.000001  -0.297787 -0.000031 1.570739
25  0.000000 -0.000012 0.000000  0.868960 0.000002 1.570712
26  -8.360491 -6.110139 -1.876314  1.473120 1.855075 -0.198639
27  6.027510 -0.000258 -0.000231  0.963167 0.242456 -0.719920
28  11.691991 0.000160 0.000859  0.625805 0.000009 -0.810990
29  11.480047 0.000310 0.000788  -1.745734 0.288748 -0.086565
30  3.710776 -0.434235 1.096845  0.406971 -0.281773 -0.608982
31  1.312560 0.000030 0.000000  -0.000000 -0.000045 -0.148960
32  0.729348 0.000065 -0.000027  -0.000028 -0.000012 0.046463
33  3.820809 -0.154611 0.327896  0.121278 -0.118788 -0.520704
34  1.539094 0.000005 -0.000000  0.000007 -0.000009 0.042924
35  1.196303 0.000080 -0.000003  -0.000009 -0.000007 -0.140032
36  3.882447 -0.171893 -0.416807  -0.089865 -0.000691 -0.298015
37  1.719565 -0.000081 -0.000003  -0.002288 -0.007626 -0.075728
38  1.209191 0.000032 0.000013  -0.001277 -0.004274 0.074338
39  3.859587 -0.149083 -1.331323  -0.330196 0.136796 -0.257123
40  1.719414 -0.000097 -0.000037  -0.001916 -0.006299 -0.072275
41  1.099672 0.000026 0.000006  -0.001196 -0.004014 0.046404
42  0.230506 -0.805069 -1.086895  1.079795 0.646453 -0.910428
43  1.789780 -0.000007 -0.000043  0.011966 0.001552 -0.110980
44  1.206995 -0.000006 0.000004  0.005321 0.005317 0.007331
45  5.740571 0.000080 0.000721  -0.066080 -0.000014 0.000028
46  11.480954 0.000139 0.000902  -0.035114 0.036651 -0.020951
47  6.027515 -0.000272 -0.000229  -0.763494 -1.216267 -1.559279
48  -0.000002 11.691976 -0.000006  -0.594709 0.154069 0.493430
49  0.000001 -0.000002 0.000001  2.898369 -0.000036 1.570860
50  -0.000008 -0.000014 0.000005  2.272645 -0.000036 1.570861
51  -12.693609 -2.708169 -26.845318  -0.594215 2.511019 1.365383
52  0.000001 0.000001 0.000003  0.008153 -0.000259 0.000009
53  0.000002 -0.000002 -0.000003  1.565115 0.043565 -0.106862
54  10.198836 -5.478944 -22.351908  0.154595 0.713102 -1.865405
55  -0.000002 0.000000 -0.000001  0.000000 -0.000001 -0.000002
56  0.000029 0.000029 -0.000001  -1.571902 -0.044449 -0.106509
57  14.297110 -13.022662 -32.144703  1.570796 -0.000000 0.000000
58  -15.417985 2.962374 -23.298515  1.570796 -0.000000 0.000000
59  1.941978 9.263218 -8.327020  1.570796 -0.000000 0.000000
60  -0.004311 0.001229 -0.000372  0.006898 -0.005534 -0.284229
61  -1.876318 7.500325 -7.139796  1.570796 -0.000000 0.000000
62  0.000000 0.000000 0.000000  -0.078727 -3.136056 0.284226
63  0.000000 0.000000 0.000000  1.570391 0.000242 -0.000247
64  -2.738532 -32.041824 -0.904493  1.570796 -0.000000 1.530876
65  0.001803 1.281290 2.949712  0.000000 -0.000000 0.000000
66  0.001803 2.205654 7.371570  0.000000 -0.000000 0.000000
67  0.001806 2.009157 1.913910  0.000000 -0.000000 0.000000
68  0.000002 2.151127 2.689002  0.000000 -0.000000 0.000000
69  0.001801 1.549859 -0.186520  -1.396263 -0.000000 -0.000000
70  0.394442 1.435772 1.872449  0.000000 -0.000000 0.000000
71  -2.222276 -32.062443 1.045986  1.570796 -0.000000 1.530876
72  0.001806 -0.243604 1.309227  0.000000 0.000000 0.000000
73  0.001804 -0.505257 1.231033  0.000000 0.000000 0.000000
74  0.000002 -0.261652 -0.078195  0.000000 0.000000 0.000000
75  0.000005 -0.523305 -0.156385  0.000000 0.000000 0.000000
76  0.000003 -0.784957 -0.234577  0.000000 0.000000 0.000000
77  0.000001 -1.046610 -0.312776  0.000000 0.000000 0.000000
78  0.000004 -1.308262 -0.390967  0.000000 0.000000 0.000000
79  0.000002 -1.569914 -0.469162  0.000000 0.000000 0.000000
80  0.000000 -1.831567 -0.547355  0.000000 0.000000 0.000000
81  0.000007 -2.093219 -0.625546  0.000000 0.000000 0.000000
82  0.000005 -2.354871 -0.703742  0.000000 0.000000 0.000000
83  0.000003 -2.616524 -0.781936  0.000000 0.000000 0.000000
84  0.000006 -2.878177 -0.860128  0.000000 0.000000 0.000000
85  0.000004 -3.139829 -0.938323  0.000000 0.000000 0.000000
time 10
0  0.000006 0.000000 0.000000  -1.570800 -1.391899 -1.570792
1  -9.841317 -7.634221 1.937669  -1.544956 -1.855077 -0.198630
2  6.027517 -0.000324 0.000196  -1.011205 -0.404917 -0.684623
3  11.692110 0.000643 -0.000737  -1.166865 -0.000003 -1.071824
4  11.480172 0.000559 -0.000544  2.092578 -0.234037 0.309269
5  3.666625 -0.163903 -1.204800  -0.468169 0.151546 -0.880257
6  1.312589 0.000009 0.000008  -0.000027 0.000044 -0.439740
7  0.729357 0.000054 0.000049  0.000017 0.000021 -0.244317
8  3.942138 0.046333 -0.431542  -0.151817 0.073216 -0.811086
9  1.539112 0.000084 0.000003  -0.000007 0.000021 -0.247842
10  1.196331 0.000145 0.000031  0.000011 0.000019 -0.430770
11  3.883508 -0.047211 0.431351  0.085894 0.021858 -0.587909
12  1.719571 -0.000029 0.000016  0.000015 0.005518 -0.366533
13  1.209180 0.000090 0.000010  0.000004 0.003091 -0.216438
14  3.859673 -0.138417 1.332381  0.354466 -0.042717 -0.531784
15  1.719448 -0.000018 0.000031  0.000028 0.004066 -0.363025
16  1.099675 0.000048 0.000004  0.000003 0.002578 -0.244381
17  0.459530 -0.272514 1.494841  -1.222694 -0.679188 -0.788867
18  1.789819 -0.000005 -0.000018  0.000011 -0.000024 0.228523
19  1.207016 -0.000015 -0.000045  0.000002 -0.000008 0.362856
20  5.740636 0.000390 -0.000699  0.102499 0.000003 0.000063
21  11.481046 0.000285 -0.000761  0.109666 -0.010078 0.067711
22  6.027524 -0.000329 0.000201  -0.953067 -2.075055 -1.366355
23  -0.000000 11.692100 -0.000007  -0.766918 -0.260074 -0.626842
24  0.000002 0.000009 -0.000001  -0.297787 -0.000030 1.570739
25  -0.000000 -0.000011 0.000000  0.868960 0.000002 1.570712
26  -8.393617 -6.005292 -1.937599  1.473120 1.855075 -0.198639
27  6.027509 -0.000257 -0.000230  0.763168 0.350915 -0.816788
28  11.691992 0.000162 0.000858  0.636696 0.000001 -0.547406
29  11.480382 0.000475 0.000664  -1.666802 0.295139 -0.142130
30  3.710777 -0.434235 1.096848  0.406970 -0.281773 -0.608981
31  1.312563 0.000031 -0.000001  -0.000000 -0.000045 -0.148960
32  0.729343 0.000065 -0.000028  -0.000028 -0.000012 0.046463
33  3.820808 -0.154610 0.327899  0.121278 -0.118788 -0.520704
34  1.539093 0.000005 -0.000002  0.000007 -0.000009 0.042924
35  1.196306 0.000079 -0.000003  -0.000009 -0.000007 -0.140033
36  3.882446 -0.171892 -0.416806  -0.089865 -0.000691 -0.298015
37  1.719565 -0.000084 -0.000004  -0.002289 -0.007626 -0.075729
38  1.209192 0.000036 0.000011  -0.001277 -0.004274 0.074338
39  3.859584 -0.149081 -1.331323  -0.330196 0.136796 -0.257123
40  1.719413 -0.000098 -0.000036  -0.001916 -0.006299 -0.072275
41  1.099673 0.000021 0.000009  -0.001196 -0.004014 0.046404
42  0.230505 -0.805067 -1.086894  1.079795 0.646453 -0.910428
43  1.789779 -0.000008 -0.000043  0.011966 0.001552 -0.110980
44  1.206996 -0.000003 0.000005  0.005321 0.005317 0.007331
45  5.740572 0.000077 0.000719  -0.049002 -0.000014 0.000028
46  11.481021 0.000167 0.000878  -0.018802 0.038256 -0.034820
47  6.027515 -0.000271 -0.000228  -1.404939 -1.214846 -0.993557
48  -0.000001 11.691975 -0.000008  -0.409884 0.072127 0.343615
49  0.000003 0.000001 0.000001  2.909278 -0.000036 1.570860
50  -0.000007 -0.000015 0.000004  2.272645 -0.000036 1.570861
51  -12.080094 -2.607073 -28.354927  -0.668265 2.441716 1.352336
52  -0.000000 0.000001 -0.000000  0.008153 -0.000259 0.000009
53  0.000000 0.000000 -0.000000  1.565115 0.043565 -0.106862
54  10.245171 -5.342162 -23.366718  0.255881 0.766400 -1.766008
55  0.000002 0.000000 0.000001  0.000000 -0.000001 -0.000002
56  0.000032 0.000029 0.000001  -1.571901 -0.044449 -0.106509
57  14.062574 -12.874806 -32.482468  1.570796 -0.000000 0.000000
58  -15.417985 2.938832 -23.313402  1.570796 -0.000000 0.000000
59  1.941978 9.263218 -8.327020  1.570796 -0.000000 0.000000
60  -0.004311 0.001229 -0.000372  0.006898 -0.005534 -0.284229
61  -1.937603 7.403047 -7.191051  1.570796 -0.000000 0.000000
62  0.000000 0.000000 0.000000  -0.078727 -3.136056 0.284226
63  0.000000 0.000000 0.000000  1.570796 -0.000000 0.000000
64  -2.762233 -32.645050 -0.819312  1.570796 -0.000000 1.570796
65  0.001797 1.281290 2.949712  0.000000 -0.000000 0.000000
66  0.001794 2.205654 7.371570  0.000000 -0.000000 0.000000
67  0.001797 2.009157 1.913910  0.000000 -0.000000 0.000000
68  -0.000004 2.151127 2.689002  0.000000 -0.000000 0.000000
69  0.001796 1.549859 -0.186521  -1.396263 -0.000000 -0.000000
70  0.394436 1.435772 1.872449  0.000000 -0.000000 0.000000
71  -2.245564 -32.645046 1.131167  1.570796 -0.000000 1.570796
72  0.001797 -0.243604 1.309227  0.000000 -0.000000 -0.000000
73  0.001797 -0.505257 1.231033  0.000000 -0.000000 -0.000000
74  -0.000004 -0.261652 -0.078195  0.000000 -0.000000 -0.000000
75  -0.000004 -0.523305 -0.156385  0.000000 -0.000000 -0.000000
76  -0.000004 -0.784957 -0.234577  0.000000 -0.000000 -0.000000
77  -0.000004 -1.046609 -0.312776  0.000000 -0.000000 -0.000000
78  -0.000004 -1.308262 -0.390967  0.000000 -0.000000 -0.000000
79  -0.000004 -1.569914 -0.469162  0.000000 -0.000000 -0.000000
80  -0.000004 -1.831567 -0.547356  0.000000 -0.000000 -0.000000
81  -0.000004 -2.093219 -0.625547  0.000000 -0.000000 -0.000000
82  -0.000004 -2.354871 -0.703742  0.000000 -0.000000 -0.000000
83  -0.000004 -2.616524 -0.781936  0.000000 -0.000000 -0.000000
84  -0.000004 -2.878177 -0.860128  0.000000 -0.000000 -0.000000
85  -0.000004 -3.139829 -0.938323  0.000000 -0.000000 -0.000000
end
