version 1
nodes
0 "ValveBiped.Bip01_Spine4" -1
1 "ValveBiped.Bip01_L_Clavicle" 0
2 "ValveBiped.Bip01_L_UpperArm" 1
3 "ValveBiped.Bip01_L_Forearm" 2
4 "ValveBiped.Bip01_L_Hand" 3
5 "ValveBiped.Bip01_L_Finger4" 4
6 "ValveBiped.Bip01_L_Finger41" 5
7 "ValveBiped.Bip01_L_Finger42" 6
8 "ValveBiped.Bip01_L_Finger3" 4
9 "ValveBiped.Bip01_L_Finger31" 8
10 "ValveBiped.Bip01_L_Finger32" 9
11 "ValveBiped.Bip01_L_Finger2" 4
12 "ValveBiped.Bip01_L_Finger21" 11
13 "ValveBiped.Bip01_L_Finger22" 12
14 "ValveBiped.Bip01_L_Finger1" 4
15 "ValveBiped.Bip01_L_Finger11" 14
16 "ValveBiped.Bip01_L_Finger12" 15
17 "ValveBiped.Bip01_L_Finger0" 4
18 "ValveBiped.Bip01_L_Finger01" 17
19 "ValveBiped.Bip01_L_Finger02" 18
20 "ValveBiped.Bip01_L_Ulna" 3
21 "ValveBiped.Bip01_L_Wrist" 3
22 "rig_l_upperarm" 1
23 "rig_l_forearm" 22
24 "rig_d_l_forearm" 23
25 "rig_d_l_upperarm" 22
26 "ValveBiped.Bip01_R_Clavicle" 0
27 "ValveBiped.Bip01_R_UpperArm" 26
28 "ValveBiped.Bip01_R_Forearm" 27
29 "ValveBiped.Bip01_R_Hand" 28
30 "ValveBiped.Bip01_R_Finger4" 29
31 "ValveBiped.Bip01_R_Finger41" 30
32 "ValveBiped.Bip01_R_Finger42" 31
33 "ValveBiped.Bip01_R_Finger3" 29
34 "ValveBiped.Bip01_R_Finger31" 33
35 "ValveBiped.Bip01_R_Finger32" 34
36 "ValveBiped.Bip01_R_Finger2" 29
37 "ValveBiped.Bip01_R_Finger21" 36
38 "ValveBiped.Bip01_R_Finger22" 37
39 "ValveBiped.Bip01_R_Finger1" 29
40 "ValveBiped.Bip01_R_Finger11" 39
41 "ValveBiped.Bip01_R_Finger12" 40
42 "ValveBiped.Bip01_R_Finger0" 29
43 "ValveBiped.Bip01_R_Finger01" 42
44 "ValveBiped.Bip01_R_Finger02" 43
45 "ValveBiped.Bip01_R_Ulna" 28
46 "ValveBiped.Bip01_R_Wrist" 28
47 "rig_r_upperarm" 26
48 "rig_r_forearm" 47
49 "rig_d_r_forearm" 48
50 "rig_d_r_upperarm" 47
51 "rig_r_hand" -1
52 "rig_d_r_hand" 51
53 "rig_d_r_wrist" 52
54 "rig_l_hand" -1
55 "rig_d_l_hand" 54
56 "rig_d_l_wrist" 54
57 "rig_l_pole" -1
58 "rig_r_pole" -1
59 "rig_l_clavicle" -1
60 "rig_d_l_clavicle" 59
61 "rig_r_clavicle" -1
62 "rig_d_r_clavicle" 61
63 "Camera" -1
64 "body" -1
65 "trigger" 64
66 "barrel" 64
67 "bullet1" 64
68 "slide" 64
69 "hammer" 64
70 "sliderelease" 64
71 "mag" -1
72 "bullet2" 71
73 "bullet3" 71
74 "bullet4" 73
75 "bullet5" 73
76 "bullet6" 73
77 "bullet7" 73
78 "bullet8" 73
79 "bullet9" 73
80 "bullet10" 73
81 "bullet11" 73
82 "bullet12" 73
83 "bullet13" 73
84 "bullet14" 73
85 "bullet15" 73
end
skeleton
time 0
0  0.000006 0.000000 0.000000  -1.570800 -1.391899 -1.570792
1  -9.841317 -7.634221 1.937669  -1.544956 -1.855077 -0.198630
2  6.027525 -0.000329 0.000190  -0.046636 -1.482824 -1.947293
3  11.692115 0.000646 -0.000738  -1.166849 0.000005 -0.817278
4  11.480167 0.000598 -0.000463  1.196547 -0.396391 0.369157
5  3.666628 -0.163903 -1.204802  -0.519250 0.086737 -1.532179
6  1.312589 0.000010 0.000009  -0.003664 0.023357 -0.272237
7  0.729356 0.000055 0.000049  -0.003677 0.000626 -0.150723
8  3.942140 0.046332 -0.431543  -0.205965 0.132196 -1.449654
9  1.539111 0.000083 0.000003  -0.000570 0.007396 -0.283198
10  1.196333 0.000148 0.000028  -0.000713 0.000161 -0.519018
11  3.883510 -0.047211 0.431350  -0.042690 0.198097 -1.260493
12  1.719573 -0.000029 0.000017  -0.000644 0.003280 -0.404344
13  1.209179 0.000091 0.000012  -0.000905 0.002861 -0.623854
14  3.859676 -0.138417 1.332380  -0.235831 0.317274 -1.342437
15  1.719448 -0.000018 0.000029  0.001902 0.001157 -0.067177
16  1.099675 0.000048 0.000005  -0.000943 0.002399 -0.620101
17  0.459534 -0.272515 1.494839  -0.958772 -0.540282 -0.503031
18  1.789820 -0.000003 -0.000016  -0.001964 0.000104 0.251441
19  1.207017 -0.000012 -0.000044  -0.002235 -0.004014 0.005434
20  5.740635 0.000389 -0.000700  -0.081630 0.000003 0.000063
21  11.481042 0.000297 -0.000746  -0.057418 -0.069746 0.045894
22  6.027524 -0.000329 0.000201  1.517109 -0.069806 1.851374
23  0.000001 11.692100 -0.000007  -0.599033 -0.156382 -0.496821
24  0.000003 0.000010 -0.000000  -0.297787 -0.000030 1.570739
25  0.000001 -0.000011 0.000000  0.868960 0.000002 1.570712
26  -6.899342 -10.734701 0.826813  1.473120 1.855075 -0.198639
27  6.027517 -0.000263 -0.000216  1.601807 1.271994 -0.656994
28  11.691991 0.000161 0.000858  0.139886 0.000014 -0.955354
29  11.480767 0.000116 0.000813  -1.291989 0.505002 0.568681
30  3.710774 -0.434234 1.096848  0.993888 -0.012218 -1.809834
31  1.312560 0.000032 0.000001  0.020203 -0.123005 -0.386412
32  0.729347 0.000066 -0.000027  -0.108189 -0.157445 -1.274631
33  3.820805 -0.154608 0.327899  0.537772 -0.140330 -1.379350
34  1.539094 0.000004 -0.000001  0.051518 -0.088117 -0.970563
35  1.196301 0.000080 -0.000004  -0.015776 -0.011842 -1.377306
36  3.882445 -0.171892 -0.416804  0.487414 -0.287319 -1.107696
37  1.719566 -0.000082 -0.000005  0.016291 -0.133111 -1.287091
38  1.209194 0.000033 0.000011  0.009145 -0.002831 -1.083848
39  3.859585 -0.149082 -1.331322  -0.012968 -0.157199 -0.475480
40  1.719411 -0.000097 -0.000037  0.037125 0.029514 -0.700561
41  1.099673 0.000022 0.000006  -0.009064 -0.008454 -0.749561
42  0.230504 -0.805067 -1.086893  1.041508 0.527250 -0.600682
43  1.789779 -0.000009 -0.000043  -0.081444 -0.068283 0.252588
44  1.206994 -0.000007 0.000005  0.073274 0.023224 0.166518
45  5.740573 0.000078 0.000721  0.084972 -0.000014 0.000028
46  11.481097 0.000097 0.000907  0.030246 0.090704 0.086394
47  6.027515 -0.000273 -0.000229  -1.334078 -0.184096 -1.578913
48  -0.000001 11.691974 -0.000008  -0.691306 0.209952 0.569223
49  0.000002 -0.000000 0.000001  2.412441 -0.000036 1.570860
50  -0.000007 -0.000014 0.000004  2.272645 -0.000036 1.570861
51  -2.538006 -8.620331 -5.026038  -0.171689 -2.947656 1.252147
52  -0.000000 -0.000000 0.000000  0.008153 -0.000259 0.000009
53  0.000000 0.000000 -0.000000  1.565115 0.043565 -0.106862
54  0.162817 -10.241511 -6.033255  -0.551979 -0.004725 -1.962449
55  0.000001 -0.000001 0.000000  0.000000 -0.000001 -0.000002
56  0.000030 0.000028 0.000001  -1.571901 -0.044449 -0.106509
57  12.000549 -19.544212 -17.246658  1.570796 -0.000000 0.000000
58  -15.417984 4.000748 -22.641926  1.570796 -0.000000 0.000000
59  1.941978 9.263218 -8.327020  1.570796 -0.000000 0.000000
60  -0.004311 0.001229 -0.000372  0.006898 -0.005534 -0.284229
61  0.826810 11.791080 -4.879054  1.570796 -0.000000 0.000000
62  0.000000 0.000000 0.000000  -0.078727 -3.136056 0.284226
63  0.000000 0.000000 0.000000  1.570796 -0.000000 0.000000
64  -1.915771 -11.101227 -3.861487  1.570796 -0.000000 0.000000
65  0.001799 1.281290 2.949712  0.000000 -0.000000 0.000000
66  0.001798 2.358249 7.369196  -0.065995 -0.000000 -0.000000
67  0.001802 2.009157 1.913910  0.000000 -0.000000 0.000000
68  0.000000 2.151127 1.200256  0.000000 -0.000000 0.000000
69  0.001800 1.549859 -0.186521  -1.396263 -0.000000 -0.000000
70  0.394440 1.435772 1.872449  0.256521 -0.000000 0.000000
71  -1.915770 -11.617895 -1.911009  1.570796 -0.000000 0.000000
72  0.001801 -0.243604 1.309227  0.000000 0.000000 0.000000
73  0.001801 -0.505257 1.231033  0.000000 0.000000 0.000000
74  -0.000000 -0.261652 -0.078195  0.000000 0.000000 0.000000
75  -0.000000 -0.523305 -0.156385  0.000000 0.000000 0.000000
76  -0.000000 -0.784957 -0.234577  0.000000 0.000000 0.000000
77  -0.000000 -1.046609 -0.312776  0.000000 0.000000 0.000000
78  -0.000000 -1.308262 -0.390967  0.000000 0.000000 0.000000
79  -0.000000 -1.569914 -0.469162  0.000000 0.000000 0.000000
80  -0.000000 -1.831567 -0.547356  0.000000 0.000000 0.000000
81  -0.000000 -2.093219 -0.625546  0.000000 0.000000 0.000000
82  -0.000000 -2.354872 -0.703742  0.000000 0.000000 0.000000
83  -0.000000 -2.616524 -0.781936  0.000000 0.000000 0.000000
84  -0.000000 -2.878177 -0.860128  0.000000 0.000000 0.000000
85  -0.000000 -3.139828 -0.938323  0.000000 0.000000 0.000000
end
