version 1
nodes
0 "ValveBiped.Bip01_Spine4" -1
1 "ValveBiped.Bip01_L_Clavicle" 0
2 "ValveBiped.Bip01_L_UpperArm" 1
3 "ValveBiped.Bip01_L_Forearm" 2
4 "ValveBiped.Bip01_L_Hand" 3
5 "ValveBiped.Bip01_L_Finger4" 4
6 "ValveBiped.Bip01_L_Finger41" 5
7 "ValveBiped.Bip01_L_Finger42" 6
8 "ValveBiped.Bip01_L_Finger3" 4
9 "ValveBiped.Bip01_L_Finger31" 8
10 "ValveBiped.Bip01_L_Finger32" 9
11 "ValveBiped.Bip01_L_Finger2" 4
12 "ValveBiped.Bip01_L_Finger21" 11
13 "ValveBiped.Bip01_L_Finger22" 12
14 "ValveBiped.Bip01_L_Finger1" 4
15 "ValveBiped.Bip01_L_Finger11" 14
16 "ValveBiped.Bip01_L_Finger12" 15
17 "ValveBiped.Bip01_L_Finger0" 4
18 "ValveBiped.Bip01_L_Finger01" 17
19 "ValveBiped.Bip01_L_Finger02" 18
20 "ValveBiped.Bip01_L_Ulna" 3
21 "ValveBiped.Bip01_L_Wrist" 3
22 "rig_l_upperarm" 1
23 "rig_l_forearm" 22
24 "rig_d_l_forearm" 23
25 "rig_d_l_upperarm" 22
26 "ValveBiped.Bip01_R_Clavicle" 0
27 "ValveBiped.Bip01_R_UpperArm" 26
28 "ValveBiped.Bip01_R_Forearm" 27
29 "ValveBiped.Bip01_R_Hand" 28
30 "ValveBiped.Bip01_R_Finger4" 29
31 "ValveBiped.Bip01_R_Finger41" 30
32 "ValveBiped.Bip01_R_Finger42" 31
33 "ValveBiped.Bip01_R_Finger3" 29
34 "ValveBiped.Bip01_R_Finger31" 33
35 "ValveBiped.Bip01_R_Finger32" 34
36 "ValveBiped.Bip01_R_Finger2" 29
37 "ValveBiped.Bip01_R_Finger21" 36
38 "ValveBiped.Bip01_R_Finger22" 37
39 "ValveBiped.Bip01_R_Finger1" 29
40 "ValveBiped.Bip01_R_Finger11" 39
41 "ValveBiped.Bip01_R_Finger12" 40
42 "ValveBiped.Bip01_R_Finger0" 29
43 "ValveBiped.Bip01_R_Finger01" 42
44 "ValveBiped.Bip01_R_Finger02" 43
45 "ValveBiped.Bip01_R_Ulna" 28
46 "ValveBiped.Bip01_R_Wrist" 28
47 "rig_r_upperarm" 26
48 "rig_r_forearm" 47
49 "rig_d_r_forearm" 48
50 "rig_d_r_upperarm" 47
51 "rig_r_hand" -1
52 "rig_d_r_hand" 51
53 "rig_d_r_wrist" 52
54 "rig_l_hand" -1
55 "rig_d_l_hand" 54
56 "rig_d_l_wrist" 54
57 "rig_l_pole" -1
58 "rig_r_pole" -1
59 "rig_l_clavicle" -1
60 "rig_d_l_clavicle" 59
61 "rig_r_clavicle" -1
62 "rig_d_r_clavicle" 61
63 "Camera" -1
64 "body" -1
65 "trigger" 64
66 "bolt" 64
67 "chandle" 66
68 "barrel" 64
69 "magrel" 64
70 "bullet1" 64
71 "hammer" 64
72 "mag" -1
73 "fakerounds" 72
74 "fakemag" -1
75 "follower" 74
76 "bullet2" 74
77 "bullet3" 74
end
skeleton
time 0
0  0.000006 0.000000 0.000000  -1.570800 -1.391899 -1.570792
1  -3.555402 -0.696245 2.232071  -1.544956 -1.855077 -0.198630
2  6.027523 -0.000324 0.000193  -0.769626 -0.986347 -1.508284
3  11.692109 0.000644 -0.000739  -0.724729 -0.000013 -1.327746
4  11.480318 0.000249 -0.000758  1.240103 -0.592705 0.216267
5  3.859511 -0.142877 -1.192049  -0.693220 -0.260786 -1.751999
6  1.312589 0.000010 0.000009  -0.130694 -0.020597 -0.185341
7  0.729354 0.000054 0.000048  -0.002885 -0.009924 -0.270976
8  3.942146 0.046275 -0.431512  -0.646338 0.227547 -1.213105
9  1.539111 0.000088 0.000007  -0.012276 -0.115833 -0.827518
10  1.196332 0.000147 0.000029  0.010387 0.006894 -0.878352
11  3.883508 -0.047267 0.431382  -0.304339 0.626302 -0.484785
12  1.719573 -0.000027 0.000016  0.059045 -0.147749 -1.350884
13  1.209178 0.000092 0.000013  -0.002068 -0.004929 -0.707412
14  4.085223 -0.082713 1.151041  -0.145033 0.787002 -0.125619
15  1.719449 -0.000016 0.000026  0.018460 -0.011882 -0.616138
16  1.099675 0.000050 0.000005  -0.074391 0.045651 -1.382362
17  0.869885 -1.205877 1.100799  -0.989661 -0.590677 -0.346373
18  1.789819 -0.000004 -0.000018  0.000124 -0.000928 0.770007
19  1.207016 -0.000013 -0.000043  0.000107 -0.000006 -0.103766
20  5.740637 0.000410 -0.000703  -0.112153 0.000003 0.000067
21  11.481071 0.000261 -0.000810  -0.046558 -0.103258 0.011704
22  6.027524 -0.000330 0.000203  1.615580 -0.583014 1.552083
23  0.000001 11.692100 -0.000008  -0.926279 -0.383771 -0.741979
24  0.000003 0.000008 -0.000000  0.144362 -0.000031 1.570739
25  -0.000000 -0.000011 -0.000002  0.868957 0.000002 1.570712
26  -4.048488 -9.938416 0.826810  1.473120 1.855075 -0.198639
27  6.027509 -0.000259 -0.000228  1.440773 0.664400 -0.701227
28  11.691991 0.000241 0.000858  -0.008105 0.000071 -1.822329
29  11.479482 -0.001080 0.000816  -1.039059 0.326750 0.815646
30  3.859445 -0.132765 1.193036  0.469561 0.024446 -2.027518
31  1.312559 0.000025 -0.000006  0.012739 -0.118546 -0.457170
32  0.729345 0.000066 -0.000030  -0.160543 -0.094833 -0.794827
33  3.942049 0.050132 0.430970  0.239759 -0.046947 -1.686225
34  1.539096 0.000004 -0.000008  0.033634 -0.037983 -0.965277
35  1.196300 0.000076 -0.000010  -0.022665 -0.001268 -0.998653
36  3.883409 -0.050479 -0.431114  0.254832 -0.208796 -1.406922
37  1.719564 -0.000075 -0.000012  0.020717 -0.083409 -1.505713
38  1.209197 0.000035 0.000006  -0.007976 0.070582 -0.580400
39  3.859577 -0.149088 -1.331350  -0.086511 -0.085442 -0.327389
40  1.719411 -0.000097 -0.000045  -0.016671 0.024412 -1.388510
41  1.099673 0.000025 0.000001  -0.007296 -0.008999 -0.930362
42  0.805973 -0.359849 -1.318344  0.989321 0.173207 -0.818040
43  1.789779 -0.000006 -0.000039  0.000102 -0.007478 0.163490
44  1.206997 -0.000004 0.000007  0.000962 -0.000151 1.276280
45  5.740572 0.000096 0.000725  0.167490 -0.000014 0.000028
46  11.480840 -0.000116 0.000917  0.082167 0.078182 0.129515
47  6.027514 -0.000273 -0.000237  -0.860553 -0.621185 -1.677138
48  -0.000002 11.691975 -0.000007  -1.218819 0.663348 0.916646
49  0.000004 -0.000001 0.000001  2.264421 -0.000047 1.570851
50  -0.000007 -0.000014 0.000006  2.272644 -0.000030 1.570865
51  -3.458755 -3.515954 -5.875190  -0.119636 -2.992809 1.478372
52  0.000000 -0.000000 -0.000001  0.008153 -0.000259 0.000009
53  0.000000 -0.000000 -0.000000  1.565115 0.043565 -0.106862
54  -0.239624 -14.990480 -4.860672  -0.680378 -0.240592 -1.807275
55  0.000001 0.000000 0.000000  0.000000 -0.000000 -0.000002
56  0.000031 0.000029 0.000001  -1.571902 -0.044449 -0.106509
57  6.729595 -14.640883 -17.523485  1.570796 -0.000000 0.000000
58  -16.642132 4.602435 -20.579788  1.570796 -0.000000 0.000000
59  2.236387 1.317426 -3.375998  1.570796 -0.000000 0.000000
60  -0.004311 0.001230 -0.000371  0.006898 -0.005534 -0.284229
61  0.826810 10.500209 -2.215392  1.570796 -0.000000 0.000000
62  0.000000 0.000000 0.000000  -0.078727 -3.136056 0.284226
63  0.000000 0.000000 0.000000  1.570796 -0.000000 0.000000
64  -2.177108 -8.249631 -0.894027  1.571103 0.041360 0.006551
65  0.681869 -2.524548 0.071071  0.000000 -0.000000 -0.000000
66  -0.040579 -0.596186 4.712709  0.000000 -0.000000 -0.000000
67  -1.210912 -0.465220 1.116576  0.000000 -0.000000 -0.000000
68  -0.001710 -1.449898 22.825073  0.000000 -0.000000 -0.000000
69  -0.001714 -3.424314 2.035806  0.000000 -0.000000 -0.000000
70  0.149986 -1.844875 3.287589  0.000000 -0.000000 -0.000000
71  -0.001714 -2.267052 1.587404  0.000000 -0.000000 -0.000000
72  -3.588360 -1.097282 -23.660017  1.570796 -0.000000 0.000000
73  0.136241 2.066845 -1.396211  0.000000 -0.000000 0.000000
74  -2.404870 -12.956352 -4.985460  1.571103 0.041360 0.006551
75  0.087484 2.020056 -0.139910  0.000000 -0.000000 -0.000000
76  0.239183 2.252305 -1.418798  0.000000 -0.000000 -0.000000
77  -0.064221 2.062772 -1.408012  0.000000 -0.000000 -0.000000
time 1
0  0.000006 0.000000 0.000000  -1.570800 -1.391899 -1.570792
1  -3.663698 -0.611870 2.225544  -1.544956 -1.855077 -0.198630
2  6.027522 -0.000323 0.000193  -0.843017 -0.950938 -1.443212
3  11.692110 0.000644 -0.000740  -0.727475 -0.000017 -1.409207
4  11.479811 0.000042 -0.000943  1.244065 -0.599037 0.249904
5  3.859510 -0.142877 -1.192049  -0.691480 -0.181595 -1.614071
6  1.312588 0.000013 0.000009  -0.112409 -0.019739 -0.220579
7  0.729353 0.000054 0.000050  -0.002500 -0.008544 -0.267292
8  3.942144 0.046275 -0.431511  -0.572895 0.229802 -1.125972
9  1.539111 0.000082 0.000006  -0.014622 -0.099817 -0.747828
10  1.196333 0.000147 0.000028  0.009157 0.005682 -0.816785
11  3.883506 -0.047268 0.431382  -0.238577 0.544799 -0.450500
12  1.719572 -0.000025 0.000014  0.042501 -0.131591 -1.216830
13  1.209179 0.000090 0.000011  -0.002021 -0.003780 -0.639944
14  4.085223 -0.082714 1.151042  -0.074633 0.661156 -0.119846
15  1.719449 -0.000016 0.000027  0.015684 -0.009965 -0.581176
16  1.099676 0.000048 0.000005  -0.062274 0.045265 -1.230121
17  0.869884 -1.205877 1.100799  -1.029416 -0.588163 -0.393120
18  1.789820 -0.000003 -0.000018  -0.000042 -0.002375 0.679041
19  1.207013 -0.000013 -0.000044  0.000273 0.000029 -0.054595
20  5.740637 0.000411 -0.000703  -0.114307 0.000003 0.000067
21  11.480970 0.000221 -0.000847  -0.044184 -0.105117 0.018230
22  6.027524 -0.000329 0.000203  1.670892 -0.612859 1.525507
23  0.000001 11.692101 -0.000008  -0.975400 -0.426570 -0.775216
24  0.000004 0.000010 -0.000001  0.141621 -0.000031 1.570739
25  -0.000001 -0.000011 -0.000001  0.868957 0.000002 1.570712
26  -4.144815 -9.851222 0.765526  1.473120 1.855075 -0.198639
27  6.027510 -0.000258 -0.000228  1.476278 0.638739 -0.688412
28  11.691990 0.000241 0.000858  0.005960 0.000066 -1.758809
29  11.480052 -0.000713 0.000829  -1.085430 0.281776 0.608809
30  3.859447 -0.132764 1.193036  0.495894 -0.139860 -1.328346
31  1.312558 0.000024 -0.000006  0.001773 -0.059785 -0.302604
32  0.729345 0.000065 -0.000030  -0.090342 -0.030300 -0.375694
33  3.942050 0.050133 0.430971  0.191433 -0.100555 -1.105525
34  1.539096 0.000003 -0.000008  0.011926 -0.023324 -0.460913
35  1.196299 0.000075 -0.000009  -0.011475 0.001832 -0.569347
36  3.883410 -0.050478 -0.431113  0.051423 -0.153304 -0.839549
37  1.719563 -0.000076 -0.000012  -0.004969 -0.049804 -0.789825
38  1.209196 0.000036 0.000005  0.001561 0.033706 -0.252762
39  3.859578 -0.149088 -1.331350  -0.210142 0.023541 -0.285517
40  1.719412 -0.000097 -0.000045  -0.004050 0.011575 -0.730282
41  1.099673 0.000024 0.000001  -0.004868 -0.005747 -0.441978
42  0.805973 -0.359849 -1.318344  1.039299 0.425338 -0.860448
43  1.789779 -0.000007 -0.000039  0.005758 0.002664 -0.063788
44  1.206996 -0.000004 0.000008  0.003484 0.002414 0.401300
45  5.740572 0.000095 0.000725  0.138876 -0.000014 0.000028
46  11.480953 -0.000043 0.000919  0.081777 0.059523 0.093115
47  6.027514 -0.000273 -0.000236  -0.815400 -0.611300 -1.711957
48  -0.000001 11.691973 -0.000006  -1.181462 0.625128 0.898070
49  0.000003 0.000000 0.000000  2.278486 -0.000047 1.570851
50  -0.000007 -0.000015 0.000005  2.272644 -0.000031 1.570865
51  -4.285753 -4.147927 -6.501059  -0.130043 -2.922135 1.563210
52  -0.000000 0.000000 0.000000  0.008153 -0.000259 0.000009
53  0.000000 -0.000000 0.000000  1.565115 0.043565 -0.106862
54  0.297579 -14.658390 -5.059606  -0.680378 -0.240592 -1.807275
55  -0.000001 -0.000001 0.000000  0.000000 -0.000000 -0.000002
56  0.000030 0.000029 0.000001  -1.571902 -0.044449 -0.106509
57  6.892161 -14.601731 -17.855112  1.570796 -0.000000 0.000000
58  -16.614994 4.565555 -20.640388  1.570796 -0.000000 0.000000
59  2.229860 1.253668 -3.497581  1.570796 -0.000000 0.000000
60  -0.004311 0.001230 -0.000371  0.006898 -0.005534 -0.284229
61  0.765525 10.431548 -2.325698  1.570796 -0.000000 0.000000
62  0.000000 0.000000 0.000000  -0.078727 -3.136056 0.284226
63  0.000000 0.000000 0.000000  1.568900 0.001131 -0.001158
64  -2.252856 -8.859798 -0.817444  1.571904 0.040510 0.046368
65  0.681869 -2.524549 0.071073  0.000000 -0.000000 0.000000
66  -0.040579 -0.596186 4.712710  0.000000 -0.000000 0.000000
67  -1.210912 -0.465220 1.116575  0.000000 -0.000000 0.000000
68  -0.001710 -1.449898 22.825077  0.000000 -0.000000 0.000000
69  -0.001714 -3.424314 2.035808  0.000000 -0.000000 0.000000
70  0.149986 -1.844876 3.287592  0.000000 -0.000000 0.000000
71  -0.001715 -2.267051 1.587406  0.000000 -0.000000 0.000000
72  -3.588360 -1.097282 -23.660017  1.570796 -0.000000 0.000000
73  0.136241 2.066845 -1.396211  0.000000 -0.000000 0.000000
74  -2.289912 -13.568422 -4.912857  1.571904 0.040510 0.046368
75  0.087483 2.020057 -0.139911  0.000000 -0.000000 0.000000
76  0.239183 2.252305 -1.418797  0.000000 -0.000000 0.000000
77  -0.064221 2.062772 -1.408011  0.000000 -0.000000 0.000000
time 2
0  0.000006 0.000000 0.000000  -1.570800 -1.391899 -1.570792
1  -3.989627 -0.357935 2.205901  -1.544956 -1.855077 -0.198630
2  6.027523 -0.000324 0.000194  -0.955667 -0.894731 -1.358917
3  11.692107 0.000645 -0.000738  -0.735709 -0.000021 -1.456352
4  11.479309 -0.000164 -0.001140  1.296151 -0.560711 0.232924
5  3.859509 -0.142877 -1.192048  -0.631216 0.027797 -1.235033
6  1.312589 0.000009 0.000007  -0.064699 -0.014438 -0.312885
7  0.729355 0.000052 0.000050  -0.001467 -0.004942 -0.257651
8  3.942143 0.046276 -0.431511  -0.378679 0.205371 -0.894971
9  1.539111 0.000084 0.000006  -0.014601 -0.057011 -0.537372
10  1.196333 0.000148 0.000028  0.005585 0.002873 -0.654568
11  3.883504 -0.047267 0.431382  -0.088710 0.320104 -0.392911
12  1.719574 -0.000026 0.000016  0.010134 -0.078483 -0.856130
13  1.209179 0.000091 0.000012  -0.001527 -0.000791 -0.461926
14  4.085221 -0.082712 1.151042  0.092586 0.320068 -0.156576
15  1.719451 -0.000013 0.000027  0.008739 -0.004491 -0.489541
16  1.099675 0.000048 0.000005  -0.030881 0.034987 -0.812784
17  0.869882 -1.205877 1.100800  -1.132989 -0.591600 -0.520406
18  1.789819 -0.000003 -0.000018  0.000158 -0.006235 0.437052
19  1.207016 -0.000012 -0.000044  0.000714 0.000078 0.078579
20  5.740637 0.000411 -0.000704  -0.098474 0.000003 0.000067
21  11.480870 0.000179 -0.000886  -0.036564 -0.096174 0.019228
22  6.027525 -0.000330 0.000203  1.769586 -0.650701 1.461586
23  0.000002 11.692100 -0.000008  -1.003553 -0.452005 -0.793682
24  0.000003 0.000009 -0.000001  0.133387 -0.000030 1.570739
25  -0.000000 -0.000011 -0.000002  0.868957 0.000002 1.570712
26  -4.434721 -9.588805 0.581085  1.473120 1.855075 -0.198639
27  6.027510 -0.000259 -0.000229  1.489192 0.610357 -0.688631
28  11.691990 0.000241 0.000860  0.048471 0.000068 -1.778896
29  11.479868 -0.000797 0.000865  -1.112437 0.274384 0.593117
30  3.859445 -0.132764 1.193035  0.406966 -0.281771 -0.608983
31  1.312559 0.000026 -0.000006  -0.000003 -0.000045 -0.148961
32  0.729346 0.000065 -0.000031  -0.000028 -0.000011 0.046463
33  3.942048 0.050132 0.430970  0.121272 -0.118787 -0.520704
34  1.539096 0.000003 -0.000009  0.000006 -0.000009 0.042924
35  1.196300 0.000077 -0.000010  -0.000011 -0.000007 -0.140034
36  3.883409 -0.050478 -0.431114  -0.089868 -0.000689 -0.298021
37  1.719563 -0.000076 -0.000011  -0.002290 -0.007625 -0.075723
38  1.209197 0.000035 0.000005  -0.001278 -0.004275 0.074338
39  3.859577 -0.149088 -1.331350  -0.330198 0.136798 -0.257124
40  1.719413 -0.000097 -0.000044  -0.001918 -0.006299 -0.072275
41  1.099673 0.000024 0.000001  -0.001198 -0.004013 0.046405
42  0.805973 -0.359849 -1.318344  1.079788 0.646459 -0.910432
43  1.789780 -0.000006 -0.000040  0.011965 0.001552 -0.110981
44  1.206996 -0.000005 0.000007  0.005320 0.005317 0.007333
45  5.740573 0.000094 0.000725  0.131793 -0.000014 0.000028
46  11.480918 -0.000060 0.000927  0.077444 0.056165 0.091394
47  6.027514 -0.000274 -0.000237  -0.778980 -0.616698 -1.740713
48  -0.000002 11.691974 -0.000006  -1.193256 0.637154 0.904079
49  0.000004 -0.000001 -0.000000  2.320997 -0.000047 1.570851
50  -0.000007 -0.000015 0.000006  2.272644 -0.000031 1.570865
51  -4.738998 -4.163472 -6.941866  -0.116905 -2.936838 1.578134
52  -0.000000 -0.000000 -0.000001  0.008153 -0.000259 0.000009
53  -0.000000 0.000000 -0.000001  1.565115 0.043565 -0.106862
54  1.248442 -14.890119 -6.027216  -0.664482 -0.245881 -1.793191
55  -0.000001 0.000000 -0.000000  0.000000 -0.000000 -0.000002
56  0.000030 0.000029 0.000001  -1.571902 -0.044449 -0.106509
57  7.381415 -14.483899 -18.853172  1.570796 -0.000000 0.000000
58  -16.533319 4.454559 -20.822777  1.570796 -0.000000 0.000000
59  2.210217 1.061784 -3.863493  1.570796 -0.000000 0.000000
60  -0.004311 0.001230 -0.000371  0.006898 -0.005534 -0.284229
61  0.581084 10.224906 -2.657673  1.570796 -0.000000 0.000000
62  0.000000 0.000000 0.000000  -0.078727 -3.136056 0.284226
63  0.000000 0.000000 0.000000  1.565375 0.003226 -0.003314
64  -2.458459 -10.515969 -0.609576  1.573953 0.037975 0.157530
65  0.681868 -2.524548 0.071072  0.000000 -0.000000 -0.000000
66  -0.040579 -0.596186 4.712709  0.000000 -0.000000 -0.000000
67  -1.210912 -0.465220 1.116574  0.000000 -0.000000 -0.000000
68  -0.001710 -1.449898 22.825077  0.000000 -0.000000 -0.000000
69  -0.001714 -3.424314 2.035807  0.000000 -0.000000 -0.000000
70  0.149986 -1.844875 3.287591  0.000000 -0.000000 -0.000000
71  -0.001715 -2.267051 1.587405  0.000000 -0.000000 -0.000000
72  -3.588360 -1.097282 -23.660017  1.570796 -0.000000 0.000000
73  0.136241 2.066845 -1.396211  0.000000 -0.000000 0.000000
74  -1.964367 -15.189760 -4.715239  1.573953 0.037975 0.157530
75  0.087483 2.020056 -0.139909  0.000000 -0.000000 -0.000000
76  0.239183 2.252304 -1.418796  0.000000 -0.000000 -0.000000
77  -0.064221 2.062772 -1.408012  0.000000 -0.000000 -0.000000
time 3
0  0.000006 0.000000 0.000000  -1.570800 -1.391899 -1.570792
1  -4.519568 0.054948 2.173963  -1.544956 -1.855077 -0.198630
2  6.027521 -0.000322 0.000195  -1.144078 -0.777464 -1.243447
3  11.692108 0.000643 -0.000740  -0.749043 -0.000021 -1.482352
4  11.480610 0.000362 -0.000665  1.421912 -0.442504 0.158078
5  3.859508 -0.142879 -1.192049  -0.494954 0.199210 -0.834912
6  1.312591 0.000013 0.000008  -0.017683 -0.004770 -0.404827
7  0.729356 0.000052 0.000050  -0.000400 -0.001349 -0.248007
8  3.942145 0.046274 -0.431511  -0.196188 0.138757 -0.674363
9  1.539111 0.000085 0.000006  -0.005640 -0.015152 -0.327237
10  1.196333 0.000147 0.000028  0.001606 0.000678 -0.492344
11  3.883505 -0.047268 0.431382  0.041499 0.089736 -0.372151
12  1.719574 -0.000026 0.000015  -0.001344 -0.017451 -0.498275
13  1.209180 0.000092 0.000011  -0.000511 0.002064 -0.283907
14  4.085223 -0.082713 1.151041  0.264261 -0.008112 -0.256985
15  1.719449 -0.000015 0.000025  0.002324 0.001595 -0.397948
16  1.099677 0.000049 0.000006  -0.006358 0.012884 -0.396120
17  0.869883 -1.205877 1.100800  -1.230851 -0.613107 -0.657059
18  1.789819 -0.000004 -0.000019  0.001279 -0.009934 0.194874
19  1.207016 -0.000014 -0.000042  0.001159 0.000062 0.222583
20  5.740637 0.000410 -0.000703  -0.056166 0.000003 0.000067
21  11.481131 0.000282 -0.000792  -0.018611 -0.069394 0.013790
22  6.027524 -0.000329 0.000203  1.980977 -0.699963 1.304330
23  0.000004 11.692098 -0.000007  -1.019007 -0.466230 -0.803618
24  0.000003 0.000009 -0.000000  0.120056 -0.000031 1.570739
25  0.000000 -0.000012 -0.000001  0.868957 0.000002 1.570712
26  -4.906092 -9.162128 0.281195  1.473120 1.855075 -0.198639
27  6.027509 -0.000258 -0.000231  1.523579 0.511564 -0.685003
28  11.691992 0.000241 0.000859  0.118096 0.000067 -1.791259
29  11.479761 -0.000803 0.000924  -1.145621 0.240492 0.511299
30  3.859445 -0.132765 1.193035  0.406966 -0.281771 -0.608983
31  1.312560 0.000028 -0.000005  -0.000003 -0.000045 -0.148961
32  0.729345 0.000066 -0.000030  -0.000028 -0.000011 0.046463
33  3.942049 0.050132 0.430970  0.121272 -0.118787 -0.520704
34  1.539096 0.000004 -0.000009  0.000006 -0.000009 0.042924
35  1.196299 0.000076 -0.000010  -0.000011 -0.000007 -0.140035
36  3.883409 -0.050478 -0.431113  -0.089868 -0.000689 -0.298021
37  1.719564 -0.000075 -0.000013  -0.002290 -0.007625 -0.075723
38  1.209196 0.000035 0.000006  -0.001277 -0.004274 0.074338
39  3.859577 -0.149088 -1.331350  -0.330198 0.136798 -0.257124
40  1.719413 -0.000097 -0.000043  -0.001918 -0.006299 -0.072275
41  1.099673 0.000025 0.000000  -0.001198 -0.004013 0.046405
42  0.805973 -0.359849 -1.318344  1.079788 0.646459 -0.910432
43  1.789779 -0.000007 -0.000039  0.011966 0.001552 -0.110981
44  1.206997 -0.000004 0.000007  0.005320 0.005317 0.007333
45  5.740574 0.000095 0.000725  0.113428 -0.000014 0.000028
46  11.480897 -0.000062 0.000938  0.074544 0.045418 0.077795
47  6.027514 -0.000273 -0.000238  -0.654043 -0.635789 -1.828695
48  -0.000002 11.691975 -0.000005  -1.200525 0.644584 0.907714
49  0.000004 -0.000001 0.000000  2.390620 -0.000047 1.570851
50  -0.000006 -0.000015 0.000006  2.272644 -0.000031 1.570865
51  -6.111088 -4.202116 -8.319784  -0.079889 -2.972742 1.597745
52  -0.000000 0.000000 0.000000  0.008153 -0.000259 0.000009
53  -0.000000 -0.000000 -0.000000  1.565115 0.043565 -0.106862
54  3.187380 -15.570628 -8.186634  -0.616546 -0.262307 -1.752544
55  -0.000000 -0.000001 -0.000000  0.000000 -0.000000 -0.000002
56  0.000030 0.000028 0.000001  -1.571902 -0.044449 -0.106509
57  8.176916 -14.292310 -20.475962  1.570796 -0.000000 0.000000
58  -16.400520 4.274087 -21.119326  1.570796 -0.000000 0.000000
59  2.178279 0.749790 -4.458447  1.570796 -0.000000 0.000000
60  -0.004311 0.001230 -0.000371  0.006898 -0.005534 -0.284229
61  0.281193 9.888917 -3.197445  1.570796 -0.000000 0.000000
62  0.000000 0.000000 0.000000  -0.078727 -3.136056 0.284226
63  0.000000 0.000000 0.000000  1.563475 0.004351 -0.004479
64  -2.761454 -12.956642 -0.303243  1.576525 0.033667 0.328779
65  0.681868 -2.524548 0.071072  0.000000 0.000000 -0.000000
66  -0.040579 -0.596186 4.712710  0.000000 0.000000 -0.000000
67  -1.210912 -0.465220 1.116575  0.000000 0.000000 -0.000000
68  -0.001711 -1.449898 22.825081  0.000000 0.000000 -0.000000
69  -0.001713 -3.424315 2.035806  0.000000 0.000000 -0.000000
70  0.149986 -1.844876 3.287591  0.000000 0.000000 -0.000000
71  -0.001714 -2.267051 1.587405  0.000000 0.000000 -0.000000
72  -3.588360 -1.097282 -23.660017  1.570796 -0.000000 0.000000
73  0.136241 2.066845 -1.396211  0.000000 -0.000000 0.000000
74  -1.465179 -17.462259 -4.421980  1.576525 0.033667 0.328779
75  0.087483 2.020056 -0.139910  0.000000 0.000000 -0.000000
76  0.239183 2.252305 -1.418798  0.000000 0.000000 -0.000000
77  -0.064221 2.062772 -1.408013  0.000000 0.000000 -0.000000
time 4
0  0.000006 0.000000 0.000000  -1.570800 -1.391899 -1.570792
1  -5.212706 0.594979 2.132190  -1.544956 -1.855077 -0.198630
2  6.027520 -0.000321 0.000196  -1.333208 -0.642765 -1.166291
3  11.692109 0.000645 -0.000740  -0.766372 -0.000019 -1.435556
4  11.479666 0.000022 -0.000993  1.571685 -0.245791 0.046038
5  3.859511 -0.142878 -1.192047  -0.428823 0.245566 -0.681685
6  1.312588 0.000010 0.000006  -0.000027 0.000045 -0.439738
7  0.729355 0.000053 0.000051  0.000017 0.000021 -0.244319
8  3.942143 0.046274 -0.431510  -0.132734 0.103974 -0.596331
9  1.539112 0.000083 0.000005  -0.000006 0.000020 -0.247842
10  1.196334 0.000147 0.000028  0.000011 0.000018 -0.430769
11  3.883504 -0.047268 0.431383  0.088578 0.002948 -0.372616
12  1.719573 -0.000026 0.000014  0.000015 0.005519 -0.366533
13  1.209180 0.000092 0.000012  0.000004 0.003091 -0.216437
14  4.085224 -0.082713 1.151042  0.338205 -0.116341 -0.327916
15  1.719450 -0.000015 0.000028  0.000028 0.004067 -0.363023
16  1.099675 0.000049 0.000006  0.000003 0.002578 -0.244381
17  0.869883 -1.205877 1.100800  -1.256598 -0.638336 -0.728355
18  1.789820 -0.000003 -0.000019  0.001925 -0.011232 0.103835
19  1.207014 -0.000015 -0.000046  0.001328 0.000027 0.299079
20  5.740638 0.000409 -0.000703  -0.006650 0.000003 0.000067
21  11.480944 0.000213 -0.000859  0.005187 -0.027673 -0.000924
22  6.027524 -0.000329 0.000203  2.238353 -0.702573 1.091105
23  0.000003 11.692099 -0.000006  -0.991156 -0.440727 -0.785607
24  0.000001 0.000009 -0.000001  0.102724 -0.000031 1.570739
25  -0.000000 -0.000012 -0.000001  0.868957 0.000002 1.570712
26  -5.522623 -8.604058 -0.111048  1.473120 1.855075 -0.198639
27  6.027509 -0.000257 -0.000233  1.571503 0.374199 -0.691374
28  11.691991 0.000241 0.000859  0.209859 0.000066 -1.771159
29  11.479939 -0.000602 0.000971  -1.201566 0.171270 0.387022
30  3.859446 -0.132765 1.193036  0.406966 -0.281771 -0.608983
31  1.312558 0.000025 -0.000006  -0.000003 -0.000045 -0.148961
32  0.729346 0.000066 -0.000031  -0.000028 -0.000011 0.046463
33  3.942049 0.050131 0.430971  0.121272 -0.118787 -0.520704
34  1.539096 0.000004 -0.000009  0.000006 -0.000009 0.042924
35  1.196300 0.000077 -0.000008  -0.000011 -0.000007 -0.140035
36  3.883410 -0.050479 -0.431112  -0.089868 -0.000689 -0.298021
37  1.719564 -0.000075 -0.000012  -0.002290 -0.007625 -0.075723
38  1.209196 0.000035 0.000006  -0.001277 -0.004275 0.074338
39  3.859578 -0.149089 -1.331349  -0.330198 0.136798 -0.257124
40  1.719411 -0.000098 -0.000044  -0.001918 -0.006299 -0.072275
41  1.099673 0.000024 0.000000  -0.001198 -0.004013 0.046405
42  0.805973 -0.359849 -1.318344  1.079788 0.646459 -0.910432
43  1.789778 -0.000005 -0.000040  0.011965 0.001552 -0.110981
44  1.206996 -0.000005 0.000007  0.005320 0.005317 0.007333
45  5.740573 0.000096 0.000727  0.086695 -0.000014 0.000028
46  11.480932 -0.000020 0.000948  0.068599 0.025980 0.057251
47  6.027515 -0.000273 -0.000239  -0.474719 -0.644096 -1.962925
48  -0.000002 11.691975 -0.000006  -1.188714 0.632515 0.901778
49  0.000001 -0.000000 0.000000  2.482383 -0.000047 1.570851
50  -0.000006 -0.000015 0.000005  2.272644 -0.000031 1.570865
51  -8.129066 -4.237936 -10.454918  -0.031194 -3.030743 1.613817
52  -0.000000 0.000001 0.000000  0.008153 -0.000259 0.000009
53  0.000000 -0.000001 0.000000  1.565115 0.043565 -0.106862
54  5.613859 -16.437580 -11.274667  -0.546353 -0.287414 -1.697937
55  -0.000000 -0.000001 -0.000000  0.000000 -0.000000 -0.000002
56  0.000030 0.000029 0.000001  -1.571901 -0.044449 -0.106509
57  9.217394 -14.041722 -22.598494  1.570796 -0.000000 0.000000
58  -16.226826 4.038039 -21.507198  1.570796 -0.000000 0.000000
59  2.136505 0.341717 -5.236619  1.570796 -0.000000 0.000000
60  -0.004311 0.001230 -0.000371  0.006898 -0.005534 -0.284229
61  -0.111049 9.449461 -3.903441  1.570796 -0.000000 0.000000
62  0.000000 0.000000 0.000000  -0.078727 -3.136056 0.284226
63  0.000000 0.000000 0.000000  1.563882 0.004111 -0.004230
64  -3.129375 -15.920317 0.068732  1.578671 0.027678 0.546028
65  0.681869 -2.524548 0.071071  -0.000000 -0.000000 -0.000000
66  -0.040578 -0.596186 4.712709  -0.000000 -0.000000 -0.000000
67  -1.210913 -0.465220 1.116574  -0.000000 -0.000000 -0.000000
68  -0.001709 -1.449898 22.825075  -0.000000 -0.000000 -0.000000
69  -0.001714 -3.424315 2.035806  -0.000000 -0.000000 -0.000000
70  0.149987 -1.844876 3.287590  -0.000000 -0.000000 -0.000000
71  -0.001714 -2.267051 1.587403  -0.000000 -0.000000 -0.000000
72  -3.588360 -1.097282 -23.660017  1.570796 -0.000000 0.000000
73  0.136241 2.066845 -1.396211  0.000000 -0.000000 0.000000
74  -0.876166 -20.020384 -4.061329  1.578671 0.027678 0.546028
75  0.087483 2.020056 -0.139909  -0.000000 -0.000000 -0.000000
76  0.239183 2.252305 -1.418797  -0.000000 -0.000000 -0.000000
77  -0.064221 2.062772 -1.408012  -0.000000 -0.000000 -0.000000
time 5
0  0.000006 0.000000 0.000000  -1.570800 -1.391899 -1.570792
1  -5.997920 1.206747 2.084867  -1.544956 -1.855077 -0.198630
2  6.027520 -0.000323 0.000197  -1.467449 -0.544825 -1.120582
3  11.692112 0.000646 -0.000740  -0.785856 -0.000014 -1.328488
4  11.480317 0.000292 -0.000744  1.679193 -0.043909 -0.074096
5  3.859511 -0.142879 -1.192049  -0.433210 0.237376 -0.700027
6  1.312591 0.000012 0.000008  -0.000027 0.000045 -0.439738
7  0.729354 0.000052 0.000047  0.000017 0.000021 -0.244319
8  3.942144 0.046274 -0.431511  -0.134735 0.101360 -0.615861
9  1.539113 0.000082 0.000007  -0.000006 0.000020 -0.247842
10  1.196333 0.000142 0.000029  0.000011 0.000018 -0.430769
11  3.883507 -0.047268 0.431382  0.088504 0.004682 -0.392143
12  1.719574 -0.000025 0.000017  0.000015 0.005519 -0.366533
13  1.209179 0.000090 0.000011  0.000004 0.003091 -0.216437
14  4.085224 -0.082714 1.151042  0.342523 -0.102414 -0.367472
15  1.719447 -0.000016 0.000027  0.000028 0.004067 -0.363023
16  1.099674 0.000049 0.000007  0.000003 0.002578 -0.244381
17  0.869885 -1.205877 1.100800  -1.241649 -0.657174 -0.755513
18  1.789818 -0.000003 -0.000019  0.001697 -0.010239 0.114995
19  1.207016 -0.000013 -0.000046  0.001210 0.000008 0.328172
20  5.740636 0.000412 -0.000701  0.025097 0.000003 0.000067
21  11.481076 0.000269 -0.000807  0.025409 0.012643 -0.023067
22  6.027525 -0.000331 0.000203  2.423099 -0.664444 0.944645
23  0.000002 11.692100 -0.000005  -0.926728 -0.384153 -0.742290
24  0.000002 0.000008 -0.000002  0.083235 -0.000030 1.570739
25  0.000000 -0.000011 -0.000000  0.868957 0.000002 1.570712
26  -6.221053 -7.971854 -0.555394  1.473120 1.855075 -0.198639
27  6.027509 -0.000257 -0.000234  1.623515 0.252562 -0.714262
28  11.691994 0.000242 0.000859  0.314324 0.000062 -1.716833
29  11.480432 -0.000185 0.000927  -1.294692 0.082917 0.284450
30  3.859446 -0.132766 1.193038  0.406966 -0.281771 -0.608983
31  1.312558 0.000025 -0.000006  -0.000003 -0.000045 -0.148961
32  0.729345 0.000065 -0.000031  -0.000028 -0.000011 0.046463
33  3.942049 0.050132 0.430971  0.121272 -0.118787 -0.520704
34  1.539096 0.000004 -0.000009  0.000006 -0.000009 0.042924
35  1.196299 0.000076 -0.000010  -0.000011 -0.000007 -0.140034
36  3.883409 -0.050480 -0.431112  -0.089868 -0.000689 -0.298021
37  1.719564 -0.000076 -0.000012  -0.002290 -0.007625 -0.075723
38  1.209197 0.000034 0.000004  -0.001277 -0.004275 0.074338
39  3.859577 -0.149090 -1.331348  -0.330198 0.136798 -0.257124
40  1.719413 -0.000096 -0.000044  -0.001918 -0.006299 -0.072275
41  1.099675 0.000022 0.000000  -0.001198 -0.004013 0.046405
42  0.805973 -0.359850 -1.318343  1.079788 0.646459 -0.910432
43  1.789780 -0.000007 -0.000041  0.011965 0.001552 -0.110981
44  1.206998 -0.000005 0.000007  0.005320 0.005317 0.007333
45  5.740573 0.000094 0.000727  0.057843 -0.000014 0.000028
46  11.481030 0.000064 0.000939  0.054041 0.002982 0.041341
47  6.027514 -0.000274 -0.000238  -0.313277 -0.625291 -2.097742
48  -0.000002 11.691973 -0.000005  -1.156852 0.600185 0.885120
49  0.000005 -0.000000 0.000001  2.586849 -0.000047 1.570851
50  -0.000007 -0.000016 0.000005  2.272644 -0.000031 1.570865
51  -10.199407 -4.238974 -12.829971  -3.133343 -0.036577 -1.525418
52  0.000000 -0.000001 0.000001  0.008153 -0.000259 0.000009
53  0.000000 -0.000002 0.000002  1.565115 0.043565 -0.106862
54  7.704623 -17.085787 -14.602671  -0.475378 -0.311806 -1.651478
55  0.000001 0.000000 0.000000  0.000000 -0.000000 -0.000002
56  0.000030 0.000029 0.000001  -1.571901 -0.044449 -0.106509
57  10.396085 -13.757844 -25.002975  1.570796 -0.000000 0.000000
58  -16.030058 3.770634 -21.946594  1.570796 -0.000000 0.000000
59  2.089183 -0.120563 -6.118162  1.570796 -0.000000 0.000000
60  -0.004311 0.001230 -0.000371  0.006898 -0.005534 -0.284229
61  -0.555397 8.951628 -4.703221  1.570796 -0.000000 0.000000
62  0.000000 0.000000 0.000000  -0.078727 -3.136056 0.284226
63  0.000000 0.000000 0.000000  1.564928 0.003491 -0.003588
64  -3.529760 -19.145491 0.473528  1.579478 0.020614 0.788902
65  0.681867 -2.524549 0.071071  0.000000 -0.000000 -0.000000
66  -0.040582 -0.596186 4.712710  0.000000 -0.000000 -0.000000
67  -1.210912 -0.465220 1.116572  0.000000 -0.000000 -0.000000
68  -0.001713 -1.449898 22.825079  0.000000 -0.000000 -0.000000
69  -0.001716 -3.424314 2.035807  0.000000 -0.000000 -0.000000
70  0.149984 -1.844876 3.287590  0.000000 -0.000000 -0.000000
71  -0.001717 -2.267052 1.587404  0.000000 -0.000000 -0.000000
72  -3.588360 -1.097282 -23.660017  1.570796 -0.000000 0.000000
73  0.136241 2.066845 -1.396211  0.000000 -0.000000 0.000000
74  -0.338506 -22.560341 -3.661639  1.579478 0.020614 0.788902
75  0.087486 2.020056 -0.139910  0.000000 -0.000000 -0.000000
76  0.239184 2.252305 -1.418796  0.000000 -0.000000 -0.000000
77  -0.064219 2.062772 -1.408013  0.000000 -0.000000 -0.000000
time 6
0  0.000006 0.000000 0.000000  -1.570800 -1.391899 -1.570792
1  -6.783133 1.818515 2.037544  -1.544956 -1.855077 -0.198630
2  6.027520 -0.000322 0.000198  -1.511118 -0.473229 -1.076436
3  11.692114 0.000645 -0.000740  -0.805184 -0.000009 -1.234878
4  11.480042 0.000247 -0.000795  1.715537 0.084109 -0.193552
5  3.859511 -0.142875 -1.192050  -0.444457 0.214407 -0.750229
6  1.312590 0.000012 0.000006  -0.000027 0.000045 -0.439738
7  0.729355 0.000053 0.000048  0.000017 0.000021 -0.244319
8  3.942143 0.046277 -0.431511  -0.139982 0.093958 -0.669657
9  1.539113 0.000083 0.000005  -0.000006 0.000020 -0.247842
10  1.196332 0.000145 0.000027  0.000011 0.000018 -0.430769
11  3.883505 -0.047265 0.431381  0.088123 0.009450 -0.445982
12  1.719575 -0.000026 0.000016  0.000015 0.005519 -0.366533
13  1.209178 0.000092 0.000013  0.000004 0.003091 -0.216437
14  4.085224 -0.082710 1.151041  0.347609 -0.082725 -0.422469
15  1.719449 -0.000016 0.000023  0.000028 0.004067 -0.363023
16  1.099677 0.000051 0.000005  0.000003 0.002578 -0.244381
17  0.869883 -1.205875 1.100798  -1.230711 -0.670115 -0.774899
18  1.789819 -0.000004 -0.000018  0.001119 -0.007451 0.146204
19  1.207014 -0.000013 -0.000043  0.000878 -0.000004 0.348461
20  5.740638 0.000409 -0.000703  0.036396 0.000003 0.000067
21  11.481020 0.000257 -0.000819  0.034694 0.036879 -0.047581
22  6.027525 -0.000330 0.000203  2.525949 -0.661406 0.904163
23  0.000001 11.692101 -0.000006  -0.869413 -0.336892 -0.702059
24  0.000004 0.000009 0.000003  0.063902 -0.000030 1.570739
25  -0.000000 -0.000012 -0.000000  0.868957 0.000002 1.570712
26  -6.919481 -7.339650 -0.999741  1.473120 1.855075 -0.198639
27  6.027509 -0.000258 -0.000233  1.669588 0.168175 -0.746659
28  11.691992 0.000241 0.000858  0.418789 0.000058 -1.658152
29  11.479135 -0.000750 0.001233  -1.421745 0.016571 0.245243
30  3.859445 -0.132763 1.193037  0.406966 -0.281771 -0.608983
31  1.312559 0.000026 -0.000007  -0.000003 -0.000045 -0.148961
32  0.729345 0.000063 -0.000031  -0.000028 -0.000011 0.046463
33  3.942049 0.050134 0.430971  0.121272 -0.118787 -0.520704
34  1.539095 0.000003 -0.000009  0.000006 -0.000009 0.042924
35  1.196299 0.000076 -0.000010  -0.000011 -0.000007 -0.140034
36  3.883410 -0.050476 -0.431112  -0.089868 -0.000689 -0.298021
37  1.719563 -0.000076 -0.000012  -0.002290 -0.007625 -0.075723
38  1.209196 0.000034 0.000005  -0.001277 -0.004275 0.074338
39  3.859577 -0.149086 -1.331349  -0.330198 0.136798 -0.257124
40  1.719413 -0.000099 -0.000046  -0.001918 -0.006299 -0.072275
41  1.099674 0.000025 0.000001  -0.001198 -0.004013 0.046405
42  0.805973 -0.359847 -1.318343  1.079788 0.646459 -0.910432
43  1.789781 -0.000007 -0.000040  0.011965 0.001552 -0.110981
44  1.206998 -0.000005 0.000008  0.005320 0.005317 0.007333
45  5.740574 0.000092 0.000727  0.029201 -0.000014 0.000028
46  11.480772 -0.000050 0.001001  0.030692 -0.014319 0.036743
47  6.027514 -0.000274 -0.000237  -0.203278 -0.593387 -2.202777
48  -0.000002 11.691974 -0.000005  -1.122473 0.565769 0.866158
49  0.000003 0.000000 0.000000  2.691314 -0.000047 1.570851
50  -0.000007 -0.000015 0.000006  2.272644 -0.000031 1.570865
51  -11.840666 -4.190535 -14.967320  -3.118416 0.045339 -1.542856
52  0.000001 0.000000 -0.000000  0.008153 -0.000259 0.000009
53  0.000000 0.000002 -0.000000  1.565115 0.043565 -0.106862
54  8.913805 -17.262558 -17.558533  -0.421333 -0.324863 -1.628351
55  0.000001 0.000000 0.000000  0.000000 -0.000000 -0.000002
56  0.000031 0.000031 -0.000000  -1.571901 -0.044449 -0.106509
57  11.574776 -13.473968 -27.407459  1.570796 -0.000000 0.000000
58  -15.833291 3.503229 -22.385990  1.570796 -0.000000 0.000000
59  2.041860 -0.582843 -6.999703  1.570796 -0.000000 0.000000
60  -0.004311 0.001230 -0.000371  0.006898 -0.005534 -0.284229
61  -0.999744 8.453794 -5.503001  1.570796 -0.000000 0.000000
62  0.000000 0.000000 0.000000  -0.078727 -3.136056 0.284226
63  0.000000 0.000000 0.000000  1.566359 0.002643 -0.002712
64  -3.930145 -22.370665 0.878324  1.578563 0.013564 1.031730
65  0.681871 -2.524548 0.071071  0.000000 -0.000000 0.000000
66  -0.040578 -0.596186 4.712709  0.000000 -0.000000 0.000000
67  -1.210913 -0.465220 1.116574  0.000000 -0.000000 0.000000
68  -0.001707 -1.449898 22.825077  0.000000 -0.000000 0.000000
69  -0.001713 -3.424315 2.035806  0.000000 -0.000000 0.000000
70  0.149989 -1.844876 3.287589  0.000000 -0.000000 0.000000
71  -0.001714 -2.267051 1.587404  0.000000 -0.000000 0.000000
72  -3.588360 -1.097282 -23.660017  1.570796 -0.000000 0.000000
73  0.136241 2.066845 -1.396211  0.000000 -0.000000 0.000000
74  0.006825 -24.894867 -3.253695  1.578563 0.013564 1.031730
75  0.087480 2.020056 -0.139909  0.000000 -0.000000 0.000000
76  0.239182 2.252305 -1.418797  0.000000 -0.000000 0.000000
77  -0.064222 2.062772 -1.408013  0.000000 -0.000000 0.000000
time 7
0  0.000006 0.000000 0.000000  -1.570800 -1.391899 -1.570792
1  -7.476271 2.358547 1.995771  -1.544956 -1.855077 -0.198630
2  6.027519 -0.000322 0.000199  -1.431558 -0.393263 -1.023540
3  11.692112 0.000643 -0.000740  -0.822113 -0.000003 -1.137414
4  11.480556 0.000435 -0.000602  1.779039 0.123786 -0.231026
5  3.859509 -0.142877 -1.192049  -0.457061 0.184208 -0.813860
6  1.312587 0.000010 0.000006  -0.000027 0.000045 -0.439738
7  0.729355 0.000056 0.000047  0.000017 0.000021 -0.244319
8  3.942143 0.046275 -0.431509  -0.146106 0.084075 -0.738517
9  1.539112 0.000088 0.000005  -0.000006 0.000020 -0.247842
10  1.196332 0.000145 0.000028  0.000011 0.000018 -0.430769
11  3.883503 -0.047268 0.431381  0.087261 0.015521 -0.515016
12  1.719572 -0.000025 0.000017  0.000015 0.005519 -0.366533
13  1.209179 0.000090 0.000011  0.000004 0.003091 -0.216437
14  4.085223 -0.082713 1.151043  0.351697 -0.062186 -0.478931
15  1.719448 -0.000015 0.000028  0.000028 0.004067 -0.363023
16  1.099675 0.000048 0.000007  0.000003 0.002578 -0.244381
17  0.869883 -1.205876 1.100802  -1.224835 -0.676796 -0.785160
18  1.789818 -0.000005 -0.000020  0.000504 -0.003850 0.186253
19  1.207013 -0.000013 -0.000042  0.000452 -0.000008 0.359041
20  5.740636 0.000409 -0.000704  0.049241 0.000003 0.000067
21  11.481124 0.000292 -0.000783  0.048546 0.043465 -0.055134
22  6.027525 -0.000331 0.000203  2.584995 -0.759413 0.951941
23  0.000002 11.692101 -0.000007  -0.808586 -0.290084 -0.657875
24  0.000003 0.000009 -0.000003  0.046967 -0.000031 1.570739
25  -0.000000 -0.000011 -0.000001  0.868957 0.000002 1.570712
26  -7.536012 -6.781579 -1.391984  1.473120 1.855075 -0.198639
27  6.027509 -0.000256 -0.000235  1.609116 0.087029 -0.759403
28  11.691991 0.000242 0.000858  0.510549 0.000050 -1.542877
29  11.479944 -0.000242 0.001077  -1.602942 0.017355 0.192451
30  3.859445 -0.132764 1.193035  0.406966 -0.281771 -0.608983
31  1.312558 0.000024 -0.000005  -0.000003 -0.000045 -0.148961
32  0.729343 0.000065 -0.000031  -0.000028 -0.000012 0.046463
33  3.942048 0.050134 0.430968  0.121272 -0.118787 -0.520704
34  1.539096 0.000004 -0.000004  0.000006 -0.000009 0.042924
35  1.196299 0.000076 -0.000009  -0.000011 -0.000007 -0.140034
36  3.883409 -0.050478 -0.431114  -0.089868 -0.000689 -0.298021
37  1.719565 -0.000077 -0.000014  -0.002290 -0.007625 -0.075723
38  1.209197 0.000034 0.000005  -0.001277 -0.004274 0.074338
39  3.859578 -0.149087 -1.331350  -0.330198 0.136798 -0.257124
40  1.719413 -0.000097 -0.000043  -0.001918 -0.006299 -0.072275
41  1.099674 0.000022 -0.000001  -0.001198 -0.004013 0.046405
42  0.805972 -0.359848 -1.318345  1.079788 0.646459 -0.910432
43  1.789778 -0.000005 -0.000040  0.011965 0.001552 -0.110981
44  1.206997 -0.000004 0.000008  0.005320 0.005317 0.007333
45  5.740573 0.000093 0.000727  -0.005087 -0.000014 0.000028
46  11.480933 0.000049 0.000970  -0.005687 -0.018624 0.028762
47  6.027514 -0.000272 -0.000236  -0.110275 -0.660580 -2.262438
48  -0.000001 11.691974 -0.000005  -1.054752 0.499845 0.826116
49  0.000003 -0.000000 0.000001  2.783077 -0.000047 1.570851
50  -0.000006 -0.000016 0.000005  2.272644 -0.000031 1.570865
51  -12.743303 -3.924736 -18.060345  -0.057761 2.946027 1.574371
52  0.000000 -0.000000 0.000001  0.008153 -0.000259 0.000009
53  -0.000000 0.000001 -0.000001  1.565115 0.043565 -0.106862
54  9.206896 -16.835300 -20.834017  -0.285300 -0.181725 -1.686301
55  0.000001 -0.000000 0.000000  0.000000 -0.000000 -0.000002
56  0.000033 0.000028 0.000003  -1.571901 -0.044449 -0.106509
57  12.615253 -13.223380 -29.529991  1.570796 -0.000000 0.000000
58  -15.659596 3.267180 -22.773865  1.570796 -0.000000 0.000000
59  2.000086 -0.990916 -7.777875  1.570796 -0.000000 0.000000
60  -0.004311 0.001230 -0.000371  0.006898 -0.005534 -0.284229
61  -1.391987 8.014338 -6.208997  1.570796 -0.000000 0.000000
62  0.000000 0.000000 0.000000  -0.078727 -3.136056 0.284226
63  0.000000 0.000000 0.000000  1.567917 0.001717 -0.001759
64  -4.298066 -25.334341 1.250299  1.576328 0.007610 1.248862
65  0.681868 -2.524548 0.071072  -0.000000 -0.000000 0.000000
66  -0.040581 -0.596186 4.712710  -0.000000 -0.000000 0.000000
67  -1.210913 -0.465220 1.116576  -0.000000 -0.000000 0.000000
68  -0.001712 -1.449898 22.825077  -0.000000 -0.000000 0.000000
69  -0.001714 -3.424314 2.035807  -0.000000 -0.000000 0.000000
70  0.149984 -1.844876 3.287592  -0.000000 -0.000000 0.000000
71  -0.001714 -2.267051 1.587405  -0.000000 -0.000000 0.000000
72  -3.588360 -1.097282 -23.660017  1.570796 -0.000000 0.000000
73  0.136241 2.066845 -1.396211  0.000000 -0.000000 0.000000
74  0.106813 -26.930634 -2.872055  1.576328 0.007610 1.248862
75  0.087482 2.020056 -0.139910  -0.000000 -0.000000 0.000000
76  0.239179 2.252304 -1.418796  -0.000000 -0.000000 0.000000
77  -0.064222 2.062772 -1.408012  -0.000000 -0.000000 0.000000
time 8
0  0.000006 0.000000 0.000000  -1.570800 -1.391899 -1.570792
1  -8.006210 2.771429 1.963833  -1.544956 -1.855077 -0.198630
2  6.027517 -0.000322 0.000199  -1.162184 -0.369750 -0.959602
3  11.692113 0.000643 -0.000740  -0.834964 0.000003 -0.933652
4  11.480164 0.000385 -0.000664  1.871795 0.030666 -0.156307
5  3.859512 -0.142878 -1.192049  -0.465472 0.160170 -0.862939
6  1.312593 0.000016 0.000006  -0.000027 0.000045 -0.439738
7  0.729355 0.000049 0.000050  0.000017 0.000021 -0.244319
8  3.942144 0.046274 -0.431512  -0.150393 0.076098 -0.792093
9  1.539111 0.000085 0.000003  -0.000006 0.000020 -0.247842
10  1.196333 0.000146 0.000032  0.000011 0.000018 -0.430769
11  3.883508 -0.047267 0.431384  0.086300 0.020202 -0.568818
12  1.719571 -0.000031 0.000018  0.000015 0.005519 -0.366533
13  1.209179 0.000090 0.000013  0.000004 0.003091 -0.216437
14  4.085225 -0.082713 1.151042  0.353869 -0.047637 -0.518498
15  1.719450 -0.000013 0.000028  0.000028 0.004067 -0.363023
16  1.099675 0.000047 0.000006  0.000003 0.002578 -0.244381
17  0.869887 -1.205877 1.100801  -1.222910 -0.678945 -0.788499
18  1.789819 -0.000003 -0.000017  0.000126 -0.001028 0.217448
19  1.207016 -0.000012 -0.000044  0.000120 -0.000008 0.362461
20  5.740636 0.000410 -0.000704  0.061426 0.000003 0.000067
21  11.481045 0.000286 -0.000794  0.064995 0.025259 -0.037864
22  6.027524 -0.000330 0.000203  2.424328 -0.988829 1.240856
23  0.000002 11.692097 -0.000008  -0.677044 -0.201129 -0.558120
24  0.000004 0.000008 0.000001  0.034103 -0.000031 1.570738
25  -0.000001 -0.000012 -0.000001  0.868957 0.000002 1.570712
26  -8.007383 -6.354903 -1.691873  1.473120 1.855075 -0.198639
27  6.027508 -0.000257 -0.000238  1.313101 0.092380 -0.703701
28  11.691993 0.000243 0.000860  0.580163 0.000028 -1.243069
29  11.479267 -0.000353 0.001205  -1.745540 0.141710 0.041834
30  3.859444 -0.132764 1.193037  0.406966 -0.281771 -0.608983
31  1.312560 0.000027 -0.000008  -0.000003 -0.000044 -0.148961
32  0.729344 0.000065 -0.000033  -0.000028 -0.000011 0.046463
33  3.942049 0.050133 0.430971  0.121272 -0.118787 -0.520704
34  1.539095 0.000005 -0.000008  0.000006 -0.000009 0.042924
35  1.196298 0.000075 -0.000009  -0.000011 -0.000007 -0.140035
36  3.883408 -0.050478 -0.431114  -0.089868 -0.000689 -0.298021
37  1.719563 -0.000074 -0.000014  -0.002290 -0.007625 -0.075723
38  1.209196 0.000036 0.000006  -0.001277 -0.004275 0.074338
39  3.859577 -0.149088 -1.331349  -0.330198 0.136798 -0.257124
40  1.719413 -0.000096 -0.000042  -0.001918 -0.006299 -0.072275
41  1.099675 0.000024 0.000002  -0.001198 -0.004013 0.046405
42  0.805973 -0.359849 -1.318342  1.079788 0.646459 -0.910432
43  1.789780 -0.000008 -0.000039  0.011965 0.001552 -0.110981
44  1.206995 -0.000003 0.000008  0.005320 0.005317 0.007333
45  5.740573 0.000095 0.000725  -0.038509 -0.000014 0.000028
46  11.480799 0.000031 0.000994  -0.036089 0.005431 0.002512
47  6.027514 -0.000273 -0.000236  -0.159984 -0.953495 -2.143730
48  -0.000001 11.691975 -0.000007  -0.874430 0.340919 0.705697
49  0.000005 -0.000000 0.000002  2.852700 -0.000047 1.570851
50  -0.000007 -0.000015 0.000005  2.272644 -0.000031 1.570865
51  -12.752446 -3.356145 -22.792231  -0.288660 2.700327 1.518157
52  -0.000000 -0.000000 0.000002  0.008153 -0.000259 0.000009
53  -0.000000 -0.000000 -0.000000  1.565115 0.043565 -0.106862
54  8.734595 -15.857345 -24.770973  -0.041607 0.232438 -1.781280
55  -0.000001 0.000000 0.000002  0.000000 -0.000000 -0.000002
56  0.000029 0.000028 0.000004  -1.571901 -0.044449 -0.106509
57  13.410753 -13.031791 -31.152779  1.570796 -0.000000 0.000000
58  -15.526798 3.086708 -23.070414  1.570796 -0.000000 0.000000
59  1.968148 -1.302909 -8.372828  1.570796 -0.000000 0.000000
60  -0.004311 0.001229 -0.000371  0.006898 -0.005534 -0.284229
61  -1.691877 7.678350 -6.748770  1.570796 -0.000000 0.000000
62  0.000000 0.000000 0.000000  -0.078727 -3.136056 0.284226
63  0.000000 0.000000 0.000000  1.569347 0.000865 -0.000885
64  -4.601060 -27.775013 1.556632  1.573693 0.003342 1.419971
65  0.681868 -2.524548 0.071071  0.000000 -0.000000 -0.000000
66  -0.040579 -0.596186 4.712709  0.000000 -0.000000 -0.000000
67  -1.210911 -0.465220 1.116575  0.000000 -0.000000 -0.000000
68  -0.001713 -1.449898 22.825077  0.000000 -0.000000 -0.000000
69  -0.001714 -3.424314 2.035806  0.000000 -0.000000 -0.000000
70  0.149985 -1.844875 3.287591  0.000000 -0.000000 -0.000000
71  -0.001714 -2.267051 1.587404  0.000000 -0.000000 -0.000000
72  -3.588360 -1.097282 -23.660017  1.570796 -0.000000 0.000000
73  0.136241 2.066845 -1.396211  0.000000 -0.000000 0.000000
74  0.024678 -28.582146 -2.553842  1.573693 0.003342 1.419971
75  0.087482 2.020056 -0.139910  0.000000 -0.000000 -0.000000
76  0.239184 2.252304 -1.418797  0.000000 -0.000000 -0.000000
77  -0.064222 2.062772 -1.408011  0.000000 -0.000000 -0.000000
time 9
0  0.000006 0.000000 0.000000  -1.570800 -1.391899 -1.570792
1  -8.332141 3.025364 1.944190  -1.544956 -1.855077 -0.198630
2  6.027519 -0.000320 0.000197  -0.799472 -0.444438 -0.979242
3  11.692119 0.000645 -0.000739  -0.842820 0.000009 -0.653641
4  11.480942 0.000608 -0.000419  1.814013 -0.081479 -0.068514
5  3.859506 -0.142877 -1.192046  -0.468162 0.151541 -0.880271
6  1.312591 0.000012 0.000008  -0.000027 0.000045 -0.439738
7  0.729356 0.000054 0.000050  0.000017 0.000021 -0.244319
8  3.942141 0.046275 -0.431509  -0.151811 0.073212 -0.811101
9  1.539113 0.000084 0.000005  -0.000006 0.000020 -0.247842
10  1.196332 0.000142 0.000027  0.000011 0.000018 -0.430769
11  3.883502 -0.047267 0.431383  0.085898 0.021851 -0.587924
12  1.719574 -0.000030 0.000015  0.000015 0.005519 -0.366533
13  1.209179 0.000091 0.000013  0.000004 0.003091 -0.216437
14  4.085219 -0.082712 1.151046  0.354470 -0.042724 -0.531801
15  1.719446 -0.000016 0.000028  0.000028 0.004067 -0.363023
16  1.099676 0.000049 0.000005  0.000003 0.002578 -0.244381
17  0.869881 -1.205876 1.100804  -1.222687 -0.679193 -0.788886
18  1.789820 -0.000005 -0.000019  0.000012 -0.000024 0.228523
19  1.207016 -0.000014 -0.000043  0.000002 -0.000008 0.362857
20  5.740637 0.000412 -0.000704  0.050341 0.000003 0.000067
21  11.481202 0.000330 -0.000745  0.052193 0.005050 -0.018970
22  6.027524 -0.000328 0.000203  -1.368856 -2.025050 -1.203261
23  0.000003 11.692099 -0.000007  -0.485696 -0.101854 -0.405654
24  0.000004 0.000008 -0.000000  0.026228 -0.000031 1.570738
25  -0.000000 -0.000011 -0.000001  0.868957 0.000002 1.570712
26  -8.297289 -6.092486 -1.876314  1.473120 1.855075 -0.198639
27  6.027506 -0.000257 -0.000238  0.929275 0.258568 -0.729818
28  11.691991 0.000244 0.000859  0.622650 0.000008 -0.804285
29  11.480243 0.000227 0.000847  -1.710237 0.279786 -0.089938
30  3.859448 -0.132765 1.193035  0.406966 -0.281771 -0.608983
31  1.312559 0.000027 -0.000007  -0.000003 -0.000045 -0.148961
32  0.729344 0.000064 -0.000031  -0.000028 -0.000011 0.046463
33  3.942050 0.050132 0.430969  0.121272 -0.118787 -0.520704
34  1.539094 0.000004 -0.000010  0.000006 -0.000009 0.042924
35  1.196301 0.000076 -0.000009  -0.000011 -0.000007 -0.140035
36  3.883412 -0.050477 -0.431114  -0.089868 -0.000689 -0.298021
37  1.719565 -0.000075 -0.000010  -0.002290 -0.007626 -0.075723
38  1.209195 0.000034 0.000004  -0.001278 -0.004275 0.074338
39  3.859581 -0.149088 -1.331349  -0.330198 0.136798 -0.257124
40  1.719413 -0.000097 -0.000044  -0.001919 -0.006299 -0.072275
41  1.099673 0.000024 -0.000001  -0.001198 -0.004013 0.046405
42  0.805977 -0.359850 -1.318344  1.079788 0.646459 -0.910432
43  1.789779 -0.000008 -0.000039  0.011965 0.001552 -0.110981
44  1.206997 -0.000007 0.000008  0.005320 0.005317 0.007333
45  5.740574 0.000095 0.000727  -0.057268 -0.000014 0.000028
46  11.480994 0.000146 0.000925  -0.028158 0.034843 -0.023019
47  6.027514 -0.000273 -0.000237  -0.864771 -1.228184 -1.465575
48  -0.000001 11.691971 -0.000005  -0.590158 0.151660 0.489806
49  0.000004 0.000000 -0.000001  2.895212 -0.000047 1.570851
50  -0.000007 -0.000017 0.000005  2.272644 -0.000031 1.570865
51  -12.312120 -2.811762 -26.882252  -0.555259 2.503362 1.409539
52  0.000002 0.000001 0.000001  0.008153 -0.000259 0.000009
53  0.000002 0.000000 -0.000002  1.565115 0.043565 -0.106862
54  8.025526 -14.906075 -27.822941  0.170355 0.630318 -1.788102
55  -0.000001 -0.000001 0.000000  0.000000 -0.000000 -0.000002
56  0.000029 0.000028 0.000002  -1.571901 -0.044449 -0.106509
57  13.900007 -12.913959 -32.150841  1.570796 -0.000000 0.000000
58  -15.445124 2.975713 -23.252800  1.570796 -0.000000 0.000000
59  1.948505 -1.494794 -8.738742  1.570796 -0.000000 0.000000
60  -0.004311 0.001229 -0.000371  0.006898 -0.005534 -0.284229
61  -1.876318 7.471708 -7.080745  1.570796 -0.000000 0.000000
62  0.000000 0.000000 0.000000  -0.078727 -3.136056 0.284226
63  0.000000 0.000000 0.000000  1.570391 0.000242 -0.000247
64  -4.806664 -29.431181 1.764500  1.571609 0.000838 1.531023
65  0.681869 -2.524548 0.071071  0.000000 0.000000 -0.000000
66  -0.040579 -0.596186 4.712708  0.000000 0.000000 -0.000000
67  -1.210913 -0.465220 1.116575  0.000000 0.000000 -0.000000
68  -0.001710 -1.449898 22.825073  0.000000 0.000000 -0.000000
69  -0.001712 -3.424314 2.035806  0.000000 0.000000 -0.000000
70  0.149986 -1.844875 3.287590  0.000000 0.000000 -0.000000
71  -0.001713 -2.267051 1.587404  0.000000 0.000000 -0.000000
72  -3.588360 -1.097282 -23.660017  1.570796 -0.000000 0.000000
73  0.136241 2.066845 -1.396211  0.000000 -0.000000 0.000000
74  -0.111010 -29.710749 -2.336425  1.571609 0.000838 1.531023
75  0.087483 2.020056 -0.139910  0.000000 0.000000 -0.000000
76  0.239181 2.252305 -1.418796  0.000000 0.000000 -0.000000
77  -0.064223 2.062772 -1.408011  0.000000 0.000000 -0.000000
time 10
0  0.000006 0.000000 0.000000  -1.570800 -1.391899 -1.570792
1  -8.440438 3.109739 1.937664  -1.544956 -1.855077 -0.198630
2  6.027519 -0.000322 0.000197  -0.641613 -0.483141 -1.034395
3  11.692118 0.000646 -0.000740  -0.845420 0.000010 -0.506769
4  11.481028 0.000632 -0.000389  1.765449 -0.092430 -0.035092
5  3.859510 -0.142878 -1.192048  -0.468162 0.151541 -0.880271
6  1.312588 0.000010 0.000007  -0.000027 0.000045 -0.439738
7  0.729354 0.000051 0.000051  0.000017 0.000021 -0.244319
8  3.942143 0.046273 -0.431513  -0.151811 0.073212 -0.811101
9  1.539112 0.000084 0.000010  -0.000006 0.000020 -0.247842
10  1.196337 0.000148 0.000027  0.000011 0.000018 -0.430769
11  3.883506 -0.047268 0.431380  0.085898 0.021851 -0.587924
12  1.719571 -0.000027 0.000017  0.000015 0.005519 -0.366533
13  1.209179 0.000092 0.000010  0.000004 0.003091 -0.216437
14  4.085220 -0.082712 1.151043  0.354470 -0.042724 -0.531801
15  1.719447 -0.000015 0.000026  0.000028 0.004067 -0.363023
16  1.099678 0.000054 0.000001  0.000003 0.002578 -0.244381
17  0.869884 -1.205877 1.100798  -1.222687 -0.679193 -0.788886
18  1.789819 -0.000004 -0.000017  0.000012 -0.000024 0.228523
19  1.207016 -0.000014 -0.000042  0.000002 -0.000008 0.362857
20  5.740636 0.000411 -0.000703  0.039389 0.000003 0.000067
21  11.481217 0.000334 -0.000738  0.042445 0.003419 -0.013104
22  6.027524 -0.000331 0.000203  -1.685047 -2.057299 -0.905297
23  0.000001 11.692099 -0.000007  -0.380515 -0.062057 -0.319355
24  0.000002 0.000009 -0.000001  0.023617 -0.000031 1.570739
25  -0.000000 -0.000011 -0.000001  0.868957 0.000002 1.570712
26  -8.393617 -6.005292 -1.937599  1.473120 1.855075 -0.198639
27  6.027507 -0.000257 -0.000237  0.763165 0.350920 -0.816793
28  11.691990 0.000245 0.000859  0.636698 -0.000000 -0.547385
29  11.480382 0.000343 0.000763  -1.666801 0.295131 -0.142142
30  3.859446 -0.132766 1.193034  0.406966 -0.281771 -0.608983
31  1.312559 0.000025 -0.000006  -0.000003 -0.000045 -0.148961
32  0.729344 0.000067 -0.000031  -0.000028 -0.000011 0.046463
33  3.942049 0.050133 0.430968  0.121272 -0.118787 -0.520704
34  1.539098 0.000005 -0.000009  0.000006 -0.000009 0.042924
35  1.196301 0.000077 -0.000009  -0.000011 -0.000007 -0.140035
36  3.883409 -0.050479 -0.431114  -0.089868 -0.000689 -0.298021
37  1.719564 -0.000075 -0.000011  -0.002290 -0.007625 -0.075723
38  1.209198 0.000035 0.000008  -0.001278 -0.004275 0.074338
39  3.859577 -0.149088 -1.331350  -0.330198 0.136798 -0.257124
40  1.719414 -0.000097 -0.000044  -0.001918 -0.006299 -0.072275
41  1.099672 0.000025 0.000001  -0.001198 -0.004013 0.046405
42  0.805973 -0.359850 -1.318344  1.079788 0.646459 -0.910432
43  1.789780 -0.000007 -0.000040  0.011965 0.001552 -0.110981
44  1.206996 -0.000006 0.000007  0.005320 0.005317 0.007333
45  5.740573 0.000096 0.000727  -0.048998 -0.000014 0.000028
46  11.481022 0.000169 0.000907  -0.018799 0.038255 -0.034816
47  6.027514 -0.000273 -0.000236  -1.404938 -1.214845 -0.993559
48  -0.000000 11.691975 -0.000007  -0.409884 0.072127 0.343614
49  0.000005 0.000003 0.000000  2.909277 -0.000047 1.570851
50  -0.000006 -0.000016 0.000004  2.272644 -0.000030 1.570865
51  -12.080094 -2.607073 -28.354927  -0.668265 2.441716 1.352336
52  -0.000000 0.000001 -0.000000  0.008153 -0.000259 0.000009
53  0.000000 0.000000 -0.000000  1.565115 0.043565 -0.106862
54  7.720897 -14.546185 -28.864317  0.255881 0.766400 -1.766008
55  0.000002 0.000000 0.000000  0.000000 -0.000000 -0.000002
56  0.000033 0.000029 0.000002  -1.571901 -0.044449 -0.106509
57  14.062574 -12.874806 -32.482468  1.570796 -0.000000 0.000000
58  -15.417985 2.938832 -23.313402  1.570796 -0.000000 0.000000
59  1.941978 -1.558552 -8.860325  1.570796 -0.000000 0.000000
60  -0.004311 0.001229 -0.000371  0.006898 -0.005534 -0.284229
61  -1.937603 7.403047 -7.191051  1.570796 -0.000000 0.000000
62  0.000000 0.000000 0.000000  -0.078727 -3.136056 0.284226
63  0.000000 0.000000 0.000000  1.570796 -0.000000 0.000000
64  -4.882412 -30.041351 1.841083  1.570796 -0.000000 1.570796
65  0.681867 -2.524548 0.071071  0.000000 -0.000000 0.000000
66  -0.040581 -0.596186 4.712709  0.000000 -0.000000 0.000000
67  -1.210914 -0.465220 1.116575  0.000000 -0.000000 0.000000
68  -0.001709 -1.449898 22.825077  0.000000 -0.000000 0.000000
69  -0.001713 -3.424314 2.035806  0.000000 -0.000000 0.000000
70  0.149986 -1.844876 3.287590  0.000000 -0.000000 0.000000
71  -0.001715 -2.267051 1.587404  0.000000 -0.000000 0.000000
72  -3.588360 -1.097282 -23.660017  1.570796 -0.000000 0.000000
73  0.136241 2.066845 -1.396211  0.000000 -0.000000 0.000000
74  -0.176027 -30.130550 -2.256097  1.570796 -0.000000 1.570796
75  0.087482 2.020056 -0.139910  0.000000 -0.000000 0.000000
76  0.239181 2.252304 -1.418797  0.000000 -0.000000 0.000000
77  -0.064223 2.062772 -1.408012  0.000000 -0.000000 0.000000
end
