version 1
nodes
0 "ValveBiped.Bip01_Spine4" -1
1 "ValveBiped.Bip01_L_Clavicle" 0
2 "ValveBiped.Bip01_L_UpperArm" 1
3 "ValveBiped.Bip01_L_Forearm" 2
4 "ValveBiped.Bip01_L_Hand" 3
5 "ValveBiped.Bip01_L_Finger4" 4
6 "ValveBiped.Bip01_L_Finger41" 5
7 "ValveBiped.Bip01_L_Finger42" 6
8 "ValveBiped.Bip01_L_Finger3" 4
9 "ValveBiped.Bip01_L_Finger31" 8
10 "ValveBiped.Bip01_L_Finger32" 9
11 "ValveBiped.Bip01_L_Finger2" 4
12 "ValveBiped.Bip01_L_Finger21" 11
13 "ValveBiped.Bip01_L_Finger22" 12
14 "ValveBiped.Bip01_L_Finger1" 4
15 "ValveBiped.Bip01_L_Finger11" 14
16 "ValveBiped.Bip01_L_Finger12" 15
17 "ValveBiped.Bip01_L_Finger0" 4
18 "ValveBiped.Bip01_L_Finger01" 17
19 "ValveBiped.Bip01_L_Finger02" 18
20 "ValveBiped.Bip01_L_Ulna" 3
21 "ValveBiped.Bip01_L_Wrist" 3
22 "rig_l_upperarm" 1
23 "rig_l_forearm" 22
24 "rig_d_l_forearm" 23
25 "rig_d_l_upperarm" 22
26 "ValveBiped.Bip01_R_Clavicle" 0
27 "ValveBiped.Bip01_R_UpperArm" 26
28 "ValveBiped.Bip01_R_Forearm" 27
29 "ValveBiped.Bip01_R_Hand" 28
30 "ValveBiped.Bip01_R_Finger4" 29
31 "ValveBiped.Bip01_R_Finger41" 30
32 "ValveBiped.Bip01_R_Finger42" 31
33 "ValveBiped.Bip01_R_Finger3" 29
34 "ValveBiped.Bip01_R_Finger31" 33
35 "ValveBiped.Bip01_R_Finger32" 34
36 "ValveBiped.Bip01_R_Finger2" 29
37 "ValveBiped.Bip01_R_Finger21" 36
38 "ValveBiped.Bip01_R_Finger22" 37
39 "ValveBiped.Bip01_R_Finger1" 29
40 "ValveBiped.Bip01_R_Finger11" 39
41 "ValveBiped.Bip01_R_Finger12" 40
42 "ValveBiped.Bip01_R_Finger0" 29
43 "ValveBiped.Bip01_R_Finger01" 42
44 "ValveBiped.Bip01_R_Finger02" 43
45 "ValveBiped.Bip01_R_Ulna" 28
46 "ValveBiped.Bip01_R_Wrist" 28
47 "rig_r_upperarm" 26
48 "rig_r_forearm" 47
49 "rig_d_r_forearm" 48
50 "rig_d_r_upperarm" 47
51 "rig_r_hand" -1
52 "rig_d_r_hand" 51
53 "rig_d_r_wrist" 52
54 "rig_l_hand" -1
55 "rig_d_l_hand" 54
56 "rig_d_l_wrist" 54
57 "rig_l_pole" -1
58 "rig_r_pole" -1
59 "rig_l_clavicle" -1
60 "rig_d_l_clavicle" 59
61 "rig_r_clavicle" -1
62 "rig_d_r_clavicle" 61
63 "Camera" -1
64 "body" -1
65 "trigger" 64
66 "bolt" 64
67 "chandle" 66
68 "barrel" 64
69 "magrel" 64
70 "bullet1" 64
71 "hammer" 64
72 "mag" -1
73 "fakerounds" 72
74 "fakemag" -1
75 "follower" 74
76 "bullet2" 74
77 "bullet3" 74
end
skeleton
time 0
0  0.000006 0.000000 0.000000  -1.570800 -1.391899 -1.570792
1  -3.555402 -0.696245 2.232071  -1.544956 -1.855077 -0.198630
2  6.027523 -0.000324 0.000193  -0.789729 -0.984805 -1.501553
3  11.692108 0.000644 -0.000740  -0.724730 -0.000013 -1.336420
4  11.480262 0.000227 -0.000781  1.271237 -0.566841 0.250246
5  3.859510 -0.142877 -1.192049  -0.693220 -0.260786 -1.751999
6  1.312590 0.000011 0.000007  -0.130694 -0.020596 -0.185342
7  0.729353 0.000053 0.000051  -0.002885 -0.009924 -0.270976
8  3.942145 0.046276 -0.431512  -0.646338 0.227547 -1.213105
9  1.539111 0.000085 0.000006  -0.012276 -0.115833 -0.827518
10  1.196331 0.000148 0.000028  0.010387 0.006894 -0.878352
11  3.883505 -0.047267 0.431382  -0.304339 0.626302 -0.484785
12  1.719573 -0.000026 0.000016  0.059045 -0.147749 -1.350884
13  1.209177 0.000091 0.000012  -0.002068 -0.004929 -0.707412
14  4.085224 -0.082712 1.151041  -0.145033 0.787002 -0.125620
15  1.719450 -0.000016 0.000026  0.018460 -0.011882 -0.616138
16  1.099675 0.000049 0.000005  -0.074391 0.045651 -1.382362
17  0.869883 -1.205877 1.100799  -0.981934 -0.609389 -0.358913
18  1.789819 -0.000002 -0.000018  0.000132 -0.001818 0.837254
19  1.207016 -0.000013 -0.000043  0.000204 -0.000008 -0.087917
20  5.740637 0.000410 -0.000703  -0.101708 0.000003 0.000067
21  11.481062 0.000257 -0.000815  -0.040320 -0.098230 0.020951
22  6.027524 -0.000330 0.000203  1.628999 -0.583516 1.534664
23  -0.000000 11.692099 -0.000008  -0.931541 -0.388256 -0.745597
24  0.000002 0.000009 -0.000002  0.144362 -0.000030 1.570738
25  -0.000001 -0.000011 -0.000002  0.868957 0.000002 1.570712
26  -4.048488 -9.938416 0.826810  1.473120 1.855075 -0.198639
27  6.027509 -0.000259 -0.000228  1.420458 0.672681 -0.709715
28  11.691990 0.000242 0.000858  -0.008105 0.000071 -1.819343
29  11.479512 -0.001066 0.000815  -0.991735 0.349926 0.834441
30  3.859445 -0.132765 1.193036  0.469561 0.024446 -2.027518
31  1.312558 0.000025 -0.000007  0.012739 -0.118546 -0.457170
32  0.729345 0.000065 -0.000031  -0.160543 -0.094833 -0.794827
33  3.942048 0.050132 0.430970  0.239759 -0.046947 -1.686225
34  1.539096 0.000003 -0.000008  0.033634 -0.037983 -0.965277
35  1.196300 0.000076 -0.000009  -0.022665 -0.001268 -0.998653
36  3.883409 -0.050479 -0.431113  0.254832 -0.208796 -1.406922
37  1.719564 -0.000076 -0.000012  0.020717 -0.083409 -1.505713
38  1.209196 0.000035 0.000006  -0.007976 0.070582 -0.580400
39  3.859577 -0.149089 -1.331349  -0.106751 -0.125451 -0.348121
40  1.719411 -0.000097 -0.000045  -0.016074 0.001595 -1.445127
41  1.099674 0.000023 0.000001  -0.004896 -0.009018 -0.933420
42  0.805973 -0.359849 -1.318344  0.989321 0.173207 -0.818040
43  1.789779 -0.000007 -0.000039  0.000102 -0.007479 0.163490
44  1.206997 -0.000004 0.000007  0.000962 -0.000151 1.276281
45  5.740573 0.000095 0.000725  0.176281 -0.000014 0.000028
46  11.480847 -0.000114 0.000916  0.088356 0.086373 0.129674
47  6.027514 -0.000273 -0.000237  -0.880158 -0.629557 -1.661556
48  -0.000001 11.691973 -0.000006  -1.217059 0.661540 0.915801
49  0.000002 -0.000001 0.000001  2.264421 -0.000046 1.570851
50  -0.000006 -0.000016 0.000006  2.272644 -0.000031 1.570865
51  -3.220684 -3.509204 -5.924097  -0.078012 -2.996716 1.465737
52  0.000000 -0.000000 -0.000000  0.008153 -0.000259 0.000009
53  -0.000000 -0.000000 0.000000  1.565115 0.043565 -0.106862
54  -0.066476 -15.006505 -4.774646  -0.635121 -0.228777 -1.832332
55  0.000000 0.000000 -0.000000  0.000000 -0.000000 -0.000002
56  0.000031 0.000029 0.000001  -1.571901 -0.044449 -0.106509
57  6.729595 -14.640883 -17.523485  1.570796 -0.000000 0.000000
58  -16.642132 4.602435 -20.579788  1.570796 -0.000000 0.000000
59  2.236387 1.317426 -3.375998  1.570796 -0.000000 0.000000
60  -0.004311 0.001230 -0.000371  0.006898 -0.005534 -0.284229
61  0.826810 10.500209 -2.215392  1.570796 -0.000000 0.000000
62  0.000000 0.000000 0.000000  -0.078727 -3.136056 0.284226
63  -2.178818 -2.356640 -0.359107  1.570796 -0.000000 0.000000
64  -2.177108 -8.249631 -0.894027  1.570796 -0.000000 0.000000
65  0.681869 -2.524548 0.071072  0.261799 0.000000 0.000000
66  -0.040579 -0.596186 4.712709  0.000000 -0.000000 0.000000
67  -1.210912 -0.465220 1.116575  0.000000 -0.000000 0.000000
68  -0.001710 -1.449898 22.825077  0.000000 -0.000000 0.000000
69  -0.001714 -3.424314 2.035807  0.000000 -0.000000 0.000000
70  0.149986 -1.844876 3.287591  0.000000 -0.000000 0.000000
71  -0.001714 -2.267051 1.587404  1.570796 -0.000000 0.000000
72  -3.588360 -1.097282 -23.660017  1.570796 -0.000000 0.000000
73  0.136241 2.066845 -1.396211  0.000000 -0.000000 0.000000
74  -2.266305 -12.956017 -4.991207  1.570796 -0.000000 0.000000
75  -0.075660 2.020056 -0.303053  0.000000 -0.000000 0.000000
76  0.239006 2.332643 -1.422237  0.000000 -0.000000 0.000000
77  -0.037276 2.055116 -1.384614  0.000000 -0.000000 0.000000
time 1
0  0.000006 0.000000 0.000000  -1.570800 -1.391899 -1.570792
1  -3.555402 -0.696245 2.232071  -1.544956 -1.855077 -0.198630
2  6.027523 -0.000324 0.000193  -0.817468 -0.946498 -1.440879
3  11.692108 0.000644 -0.000740  -0.724736 -0.000020 -1.464146
4  11.478964 -0.000340 -0.001279  1.266279 -0.625600 0.317489
5  3.859511 -0.142877 -1.192049  -0.693220 -0.260786 -1.751999
6  1.312590 0.000010 0.000008  -0.130694 -0.020597 -0.185341
7  0.729355 0.000053 0.000049  -0.002885 -0.009924 -0.270976
8  3.942145 0.046276 -0.431512  -0.646338 0.227547 -1.213105
9  1.539111 0.000085 0.000005  -0.012276 -0.115833 -0.827518
10  1.196332 0.000147 0.000030  0.010387 0.006894 -0.878352
11  3.883507 -0.047266 0.431381  -0.304339 0.626302 -0.484785
12  1.719572 -0.000026 0.000016  0.059045 -0.147749 -1.350884
13  1.209179 0.000090 0.000011  -0.002068 -0.004929 -0.707412
14  4.085225 -0.082711 1.151041  -0.145033 0.787002 -0.125619
15  1.719449 -0.000014 0.000025  0.018460 -0.011882 -0.616138
16  1.099675 0.000047 0.000005  -0.074391 0.045651 -1.382362
17  0.869886 -1.205876 1.100799  -0.981934 -0.609389 -0.358913
18  1.789819 -0.000003 -0.000018  0.000132 -0.001818 0.837254
19  1.207017 -0.000013 -0.000044  0.000204 -0.000008 -0.087917
20  5.740637 0.000410 -0.000703  -0.112698 0.000003 0.000067
21  11.480801 0.000144 -0.000913  -0.036088 -0.111066 0.031761
22  6.027524 -0.000330 0.000203  1.653728 -0.619580 1.558523
23  0.000000 11.692099 -0.000006  -1.008191 -0.456254 -0.796678
24  0.000003 0.000009 -0.000002  0.144362 -0.000031 1.570739
25  -0.000001 -0.000012 -0.000001  0.868957 0.000002 1.570712
26  -4.048488 -9.938416 0.826810  1.473120 1.855075 -0.198639
27  6.027509 -0.000258 -0.000229  1.392458 0.625433 -0.711525
28  11.691990 0.000240 0.000859  -0.008105 0.000078 -1.921726
29  11.478606 -0.001541 0.000810  -0.955439 0.380118 0.898803
30  3.859445 -0.132765 1.193036  0.469561 0.024446 -2.027518
31  1.312558 0.000025 -0.000006  0.012739 -0.118546 -0.457170
32  0.729345 0.000065 -0.000030  -0.160543 -0.094833 -0.794827
33  3.942049 0.050132 0.430971  0.239759 -0.046947 -1.686225
34  1.539096 0.000004 -0.000009  0.033634 -0.037983 -0.965277
35  1.196299 0.000076 -0.000008  -0.022665 -0.001268 -0.998653
36  3.883409 -0.050478 -0.431113  0.254832 -0.208796 -1.406922
37  1.719564 -0.000075 -0.000013  0.020717 -0.083409 -1.505713
38  1.209197 0.000035 0.000005  -0.007976 0.070582 -0.580400
39  3.859577 -0.149088 -1.331350  -0.106751 -0.125451 -0.348121
40  1.719412 -0.000097 -0.000044  -0.016074 0.001595 -1.445126
41  1.099674 0.000024 0.000001  -0.004896 -0.009018 -0.933420
42  0.805973 -0.359849 -1.318343  0.989321 0.173207 -0.818040
43  1.789780 -0.000006 -0.000040  0.000102 -0.007479 0.163490
44  1.206996 -0.000004 0.000007  0.000961 -0.000151 1.276281
45  5.740571 0.000097 0.000725  0.191195 -0.000014 0.000028
46  11.480663 -0.000207 0.000916  0.090174 0.096996 0.138497
47  6.027514 -0.000273 -0.000237  -0.847949 -0.675108 -1.665995
48  -0.000003 11.691972 -0.000006  -1.277837 0.724201 0.943086
49  0.000004 -0.000001 0.000000  2.264421 -0.000047 1.570851
50  -0.000007 -0.000016 0.000006  2.272644 -0.000031 1.570865
51  -3.033591 -2.501767 -5.970588  -0.049782 -2.999225 1.460124
52  -0.000000 0.000000 -0.000001  0.008153 -0.000259 0.000009
53  0.000000 0.000000 0.000000  1.565115 0.043565 -0.106862
54  0.068992 -14.003369 -4.727479  -0.607215 -0.221915 -1.840140
55  0.000000 -0.000000 0.000000  0.000000 -0.000000 -0.000002
56  0.000030 0.000029 0.000001  -1.571901 -0.044449 -0.106509
57  6.729595 -14.640883 -17.523485  1.570796 -0.000000 0.000000
58  -16.642132 4.602435 -20.579788  1.570796 -0.000000 0.000000
59  2.236387 1.317426 -3.375998  1.570796 -0.000000 0.000000
60  -0.004311 0.001230 -0.000371  0.006898 -0.005534 -0.284229
61  0.826810 10.500209 -2.215392  1.570796 -0.000000 0.000000
62  0.000000 0.000000 0.000000  -0.078727 -3.136056 0.284226
63  -2.178818 -2.356640 -0.359107  1.570796 -0.008127 0.000000
64  -2.138968 -7.241125 -0.910901  1.570304 -0.028048 -0.001565
65  0.681869 -2.524548 0.071071  0.261799 0.000000 0.000000
66  -0.040579 -0.596186 0.186276  -0.000000 -0.000000 -0.009570
67  -1.210912 -0.465220 1.116575  0.000000 0.000000 0.000000
68  -0.001710 -1.449898 22.825077  0.000000 -0.000000 0.000000
69  -0.001714 -3.424314 2.035806  0.000000 -0.000000 0.000000
70  0.149986 -1.844876 3.287591  0.000000 -0.000000 0.000000
71  -0.001714 -2.267051 1.587403  0.000000 -0.000000 0.000000
72  -3.588360 -1.097282 -23.660017  1.570796 -0.000000 0.000000
73  0.136241 2.066845 -1.396211  0.000000 -0.000000 0.000000
74  -2.120660 -11.949560 -5.006657  1.570304 -0.028048 -0.001565
75  -0.075660 2.020056 -0.303054  0.000000 -0.000000 0.000000
76  0.239006 2.332643 -1.422238  0.000000 -0.000000 0.000000
77  -0.037276 2.055116 -1.384615  0.000000 -0.000000 0.000000
time 2
0  0.000006 0.000000 0.000000  -1.570800 -1.391899 -1.570792
1  -3.555402 -0.696245 2.232071  -1.544956 -1.855077 -0.198630
2  6.027523 -0.000324 0.000193  -0.804965 -0.952253 -1.450839
3  11.692108 0.000644 -0.000739  -0.724735 -0.000019 -1.446801
4  11.479611 -0.000035 -0.001012  1.256988 -0.624439 0.293764
5  3.859509 -0.142877 -1.192049  -0.693220 -0.260786 -1.751999
6  1.312588 0.000012 0.000009  -0.130694 -0.020596 -0.185342
7  0.729356 0.000053 0.000049  -0.002885 -0.009924 -0.270976
8  3.942142 0.046275 -0.431511  -0.646338 0.227547 -1.213105
9  1.539111 0.000084 0.000006  -0.012276 -0.115833 -0.827518
10  1.196332 0.000148 0.000028  0.010387 0.006894 -0.878352
11  3.883506 -0.047267 0.431381  -0.304339 0.626302 -0.484785
12  1.719574 -0.000027 0.000016  0.059045 -0.147749 -1.350884
13  1.209178 0.000092 0.000014  -0.002068 -0.004929 -0.707412
14  4.085223 -0.082712 1.151041  -0.145034 0.787002 -0.125620
15  1.719448 -0.000015 0.000026  0.018460 -0.011882 -0.616138
16  1.099675 0.000050 0.000006  -0.074391 0.045651 -1.382362
17  0.869884 -1.205877 1.100799  -0.981934 -0.609389 -0.358913
18  1.789819 -0.000003 -0.000018  0.000132 -0.001818 0.837254
19  1.207017 -0.000013 -0.000043  0.000204 -0.000008 -0.087917
20  5.740637 0.000411 -0.000704  -0.114903 0.000003 0.000067
21  11.480931 0.000205 -0.000861  -0.038896 -0.110639 0.026644
22  6.027524 -0.000330 0.000203  1.643938 -0.614852 1.564395
23  0.000001 11.692100 -0.000007  -0.997865 -0.446814 -0.789986
24  0.000003 0.000009 -0.000001  0.144362 -0.000031 1.570739
25  -0.000001 -0.000011 -0.000001  0.868957 0.000002 1.570712
26  -4.048488 -9.938416 0.826810  1.473120 1.855075 -0.198639
27  6.027509 -0.000258 -0.000229  1.403471 0.623351 -0.707648
28  11.691991 0.000241 0.000857  -0.008105 0.000078 -1.912464
29  11.478691 -0.001502 0.000813  -0.980281 0.372676 0.877839
30  3.859445 -0.132765 1.193036  0.469561 0.024446 -2.027518
31  1.312559 0.000026 -0.000006  0.012739 -0.118546 -0.457170
32  0.729345 0.000066 -0.000031  -0.160543 -0.094833 -0.794827
33  3.942049 0.050132 0.430970  0.239759 -0.046947 -1.686225
34  1.539096 0.000004 -0.000009  0.033634 -0.037983 -0.965277
35  1.196300 0.000077 -0.000009  -0.022665 -0.001268 -0.998653
36  3.883409 -0.050479 -0.431113  0.254832 -0.208796 -1.406922
37  1.719564 -0.000076 -0.000013  0.020717 -0.083409 -1.505713
38  1.209197 0.000035 0.000006  -0.007976 0.070582 -0.580400
39  3.859578 -0.149088 -1.331349  -0.106751 -0.125451 -0.348121
40  1.719413 -0.000097 -0.000044  -0.016074 0.001595 -1.445127
41  1.099674 0.000024 0.000002  -0.004896 -0.009018 -0.933420
42  0.805973 -0.359849 -1.318344  0.989321 0.173207 -0.818040
43  1.789780 -0.000006 -0.000039  0.000102 -0.007478 0.163490
44  1.206996 -0.000004 0.000007  0.000962 -0.000151 1.276281
45  5.740572 0.000097 0.000726  0.184738 -0.000014 0.000028
46  11.480682 -0.000199 0.000916  0.087062 0.093012 0.136186
47  6.027514 -0.000273 -0.000237  -0.839225 -0.668980 -1.673989
48  -0.000001 11.691972 -0.000006  -1.272297 0.718481 0.940765
49  0.000001 -0.000000 0.000001  2.264421 -0.000047 1.570851
50  -0.000006 -0.000016 0.000004  2.272644 -0.000031 1.570865
51  -3.169275 -2.608346 -5.987182  -0.069874 -2.992301 1.463711
52  0.000000 -0.000000 -0.000000  0.008153 -0.000259 0.000009
53  0.000000 -0.000000 -0.000000  1.565115 0.043565 -0.106862
54  -0.033627 -14.102023 -4.753766  -0.626245 -0.231880 -1.835192
55  -0.000001 0.000000 0.000000  0.000000 -0.000000 -0.000002
56  0.000030 0.000029 0.000001  -1.571901 -0.044449 -0.106509
57  6.729595 -14.640883 -17.523485  1.570796 -0.000000 0.000000
58  -16.642132 4.602435 -20.579788  1.570796 -0.000000 0.000000
59  2.236387 1.317426 -3.375998  1.570796 -0.000000 0.000000
60  -0.004311 0.001230 -0.000371  0.006898 -0.005534 -0.284229
61  0.826810 10.500209 -2.215392  1.570796 -0.000000 0.000000
62  0.000000 0.000000 0.000000  -0.078727 -3.136056 0.284226
63  -2.178818 -2.356640 -0.359107  1.570796 0.003019 0.000000
64  -2.167675 -7.323172 -0.924622  1.565557 -0.007540 -0.000814
65  0.681869 -2.524549 0.071071  0.261799 0.000000 0.000000
66  -0.040579 -0.596203 2.449493  -0.000000 -0.000000 -0.027345
67  -1.210912 -0.465220 1.116575  -0.000000 -0.000000 0.000000
68  -0.001710 -1.449898 22.825077  -0.000000 0.000000 0.000000
69  -0.001714 -3.424315 2.035806  -0.000000 0.000000 0.000000
70  0.042376 -1.666965 4.386596  -0.000000 0.000000 0.000000
71  -0.001714 -2.267051 1.587404  -0.000000 0.000000 0.000000
72  -3.588360 -1.097282 -23.660017  1.570796 -0.000000 0.000000
73  0.136241 2.066845 -1.396211  0.000000 -0.000000 0.000000
74  -2.230013 -12.050909 -4.997646  1.565557 -0.007540 -0.000814
75  -0.075660 2.020056 -0.303054  -0.000000 0.000000 0.000000
76  0.239006 2.332643 -1.422238  -0.000000 0.000000 0.000000
77  -0.037276 2.055115 -1.384615  -0.000000 0.000000 0.000000
time 3
0  0.000006 0.000000 0.000000  -1.570800 -1.391899 -1.570792
1  -3.555402 -0.696245 2.232071  -1.544956 -1.855077 -0.198630
2  6.027523 -0.000324 0.000193  -0.792461 -0.958905 -1.462500
3  11.692107 0.000644 -0.000741  -0.724734 -0.000018 -1.419368
4  11.479755 0.000020 -0.000962  1.242050 -0.620570 0.272974
5  3.859509 -0.142878 -1.192049  -0.693220 -0.260786 -1.751999
6  1.312590 0.000011 0.000009  -0.130694 -0.020596 -0.185342
7  0.729356 0.000052 0.000048  -0.002885 -0.009924 -0.270976
8  3.942144 0.046275 -0.431511  -0.646338 0.227547 -1.213105
9  1.539111 0.000084 0.000006  -0.012276 -0.115833 -0.827518
10  1.196333 0.000147 0.000028  0.010387 0.006894 -0.878352
11  3.883504 -0.047268 0.431382  -0.304339 0.626302 -0.484785
12  1.719574 -0.000028 0.000016  0.059045 -0.147749 -1.350884
13  1.209179 0.000092 0.000012  -0.002068 -0.004929 -0.707412
14  4.085222 -0.082713 1.151041  -0.145033 0.787002 -0.125620
15  1.719448 -0.000017 0.000027  0.018460 -0.011882 -0.616138
16  1.099675 0.000051 0.000006  -0.074391 0.045651 -1.382362
17  0.869884 -1.205877 1.100799  -0.981934 -0.609389 -0.358913
18  1.789820 -0.000003 -0.000018  0.000132 -0.001818 0.837254
19  1.207015 -0.000013 -0.000043  0.000204 -0.000008 -0.087917
20  5.740637 0.000410 -0.000704  -0.116597 0.000003 0.000067
21  11.480958 0.000216 -0.000852  -0.042721 -0.109834 0.021826
22  6.027524 -0.000330 0.000203  1.634223 -0.609099 1.568528
23  0.000001 11.692099 -0.000006  -0.981484 -0.432012 -0.779244
24  0.000004 0.000009 0.000000  0.144362 -0.000031 1.570739
25  -0.000001 -0.000012 -0.000001  0.868957 0.000002 1.570712
26  -4.048488 -9.938416 0.826810  1.473120 1.855075 -0.198639
27  6.027509 -0.000258 -0.000229  1.418238 0.628375 -0.703747
28  11.691990 0.000241 0.000859  -0.008105 0.000076 -1.895850
29  11.478837 -0.001433 0.000813  -1.004205 0.355170 0.863518
30  3.859446 -0.132765 1.193035  0.469561 0.024446 -2.027518
31  1.312558 0.000025 -0.000007  0.012739 -0.118546 -0.457170
32  0.729345 0.000065 -0.000031  -0.160543 -0.094833 -0.794827
33  3.942049 0.050133 0.430970  0.239759 -0.046947 -1.686225
34  1.539096 0.000004 -0.000009  0.033634 -0.037983 -0.965277
35  1.196299 0.000076 -0.000009  -0.022665 -0.001268 -0.998653
36  3.883410 -0.050478 -0.431114  0.254832 -0.208796 -1.406922
37  1.719564 -0.000074 -0.000012  0.020717 -0.083409 -1.505713
38  1.209197 0.000035 0.000005  -0.007976 0.070582 -0.580400
39  3.859577 -0.149088 -1.331350  -0.106751 -0.125451 -0.348121
40  1.719413 -0.000097 -0.000044  -0.016074 0.001595 -1.445127
41  1.099674 0.000024 0.000002  -0.004896 -0.009018 -0.933420
42  0.805973 -0.359849 -1.318344  0.989321 0.173207 -0.818040
43  1.789779 -0.000006 -0.000040  0.000102 -0.007478 0.163490
44  1.206996 -0.000005 0.000007  0.000962 -0.000151 1.276280
45  5.740571 0.000097 0.000727  0.179488 -0.000014 0.000028
46  11.480711 -0.000186 0.000916  0.084733 0.087592 0.135632
47  6.027514 -0.000273 -0.000237  -0.835927 -0.656263 -1.680766
48  -0.000001 11.691972 -0.000007  -1.262382 0.708245 0.936527
49  0.000004 -0.000001 0.000001  2.264421 -0.000047 1.570851
50  -0.000007 -0.000015 0.000005  2.272644 -0.000031 1.570865
51  -3.307702 -2.792735 -5.947931  -0.090965 -2.994522 1.468158
52  0.000000 -0.000001 -0.000000  0.008153 -0.000259 0.000009
53  -0.000000 0.000000 -0.000001  1.565115 0.043565 -0.106862
54  -0.132607 -14.287367 -4.829722  -0.647775 -0.232935 -1.828900
55  -0.000001 -0.000000 -0.000000  0.000000 -0.000000 -0.000002
56  0.000028 0.000029 0.000001  -1.571902 -0.044449 -0.106509
57  6.729595 -14.640883 -17.523485  1.570796 -0.000000 0.000000
58  -16.642132 4.602435 -20.579788  1.570796 -0.000000 0.000000
59  2.236387 1.317426 -3.375998  1.570796 -0.000000 0.000000
60  -0.004311 0.001230 -0.000371  0.006898 -0.005534 -0.284229
61  0.826810 10.500209 -2.215392  1.570796 -0.000000 0.000000
62  0.000000 0.000000 0.000000  -0.078727 -3.136056 0.284226
63  -2.178818 -2.356640 -0.359107  1.570796 0.000707 0.000000
64  -2.196384 -7.528291 -0.927795  1.569946 0.012974 0.000532
65  0.681868 -2.524548 0.071071  0.261799 0.000000 -0.000000
66  -0.040580 -0.596219 4.712709  0.000000 0.000000 -0.036915
67  -1.210912 -0.465220 1.116575  -0.000000 -0.000000 -0.000000
68  -0.001710 -1.449898 22.825075  0.000000 0.000000 -0.000000
69  -0.001714 -3.424314 2.035806  0.000000 0.000000 -0.000000
70  0.002738 -1.395035 6.042379  0.000000 0.000000 -0.000000
71  -0.001714 -2.267051 1.587403  0.000000 0.000000 -0.000000
72  -3.588360 -1.097282 -23.660017  1.570796 -0.000000 0.000000
73  0.136241 2.066845 -1.396211  0.000000 -0.000000 0.000000
74  -2.336174 -12.238234 -5.019469  1.569946 0.012974 0.000532
75  -0.075659 2.020056 -0.303053  0.000000 0.000000 -0.000000
76  0.239006 2.332644 -1.422237  0.000000 0.000000 -0.000000
77  -0.037276 2.055116 -1.384613  0.000000 0.000000 -0.000000
time 4
0  0.000006 0.000000 0.000000  -1.570800 -1.391899 -1.570792
1  -3.555402 -0.696245 2.232071  -1.544956 -1.855077 -0.198630
2  6.027523 -0.000324 0.000193  -0.794175 -0.966201 -1.473154
3  11.692108 0.000644 -0.000741  -0.724732 -0.000016 -1.392211
4  11.479912 0.000081 -0.000904  1.250858 -0.603373 0.269456
5  3.859508 -0.142878 -1.192049  -0.693220 -0.260786 -1.751999
6  1.312589 0.000011 0.000008  -0.130694 -0.020596 -0.185342
7  0.729355 0.000052 0.000049  -0.002885 -0.009924 -0.270976
8  3.942142 0.046274 -0.431511  -0.646338 0.227547 -1.213105
9  1.539111 0.000083 0.000004  -0.012276 -0.115833 -0.827518
10  1.196332 0.000149 0.000028  0.010387 0.006894 -0.878352
11  3.883504 -0.047268 0.431382  -0.304339 0.626302 -0.484785
12  1.719574 -0.000027 0.000016  0.059045 -0.147749 -1.350884
13  1.209178 0.000092 0.000013  -0.002068 -0.004929 -0.707412
14  4.085220 -0.082714 1.151042  -0.145033 0.787002 -0.125620
15  1.719451 -0.000016 0.000027  0.018460 -0.011882 -0.616138
16  1.099676 0.000049 0.000008  -0.074391 0.045651 -1.382362
17  0.869882 -1.205877 1.100799  -0.983025 -0.606807 -0.357159
18  1.789821 -0.000003 -0.000018  0.000135 -0.001695 0.827956
19  1.207016 -0.000013 -0.000043  0.000191 -0.000007 -0.090109
20  5.740636 0.000411 -0.000702  -0.111353 0.000003 0.000067
21  11.480989 0.000228 -0.000838  -0.041933 -0.106207 0.022277
22  6.027524 -0.000330 0.000203  1.634421 -0.601739 1.556353
23  0.000001 11.692099 -0.000006  -0.965203 -0.417517 -0.768420
24  0.000003 0.000008 -0.000002  0.144362 -0.000030 1.570739
25  -0.000001 -0.000011 -0.000001  0.868957 0.000002 1.570712
26  -4.048488 -9.938416 0.826810  1.473120 1.855075 -0.198639
27  6.027509 -0.000258 -0.000229  1.419591 0.644672 -0.705797
28  11.691990 0.000242 0.000858  -0.008105 0.000074 -1.870116
29  11.479065 -0.001315 0.000813  -0.997027 0.349680 0.858331
30  3.859446 -0.132765 1.193037  0.469561 0.024446 -2.027518
31  1.312559 0.000025 -0.000007  0.012739 -0.118546 -0.457170
32  0.729344 0.000065 -0.000031  -0.160543 -0.094833 -0.794827
33  3.942049 0.050132 0.430971  0.239759 -0.046947 -1.686225
34  1.539096 0.000005 -0.000008  0.033634 -0.037983 -0.965277
35  1.196299 0.000076 -0.000009  -0.022665 -0.001268 -0.998653
36  3.883409 -0.050479 -0.431113  0.254832 -0.208796 -1.406922
37  1.719564 -0.000075 -0.000012  0.020717 -0.083409 -1.505713
38  1.209197 0.000035 0.000006  -0.007976 0.070582 -0.580400
39  3.859577 -0.149088 -1.331349  -0.106751 -0.125451 -0.348121
40  1.719413 -0.000097 -0.000045  -0.016074 0.001595 -1.445126
41  1.099674 0.000025 0.000001  -0.004896 -0.009018 -0.933420
42  0.805973 -0.359849 -1.318343  0.989321 0.173207 -0.818040
43  1.789780 -0.000006 -0.000039  0.000102 -0.007478 0.163490
44  1.206996 -0.000004 0.000008  0.000961 -0.000151 1.276281
45  5.740574 0.000095 0.000726  0.179599 -0.000014 0.000028
46  11.480758 -0.000163 0.000917  0.086687 0.086909 0.134587
47  6.027514 -0.000273 -0.000237  -0.852088 -0.646185 -1.673823
48  -0.000001 11.691973 -0.000005  -1.247082 0.692455 0.929773
49  0.000004 -0.000002 0.000000  2.264421 -0.000047 1.570851
50  -0.000007 -0.000015 0.000005  2.272644 -0.000031 1.570865
51  -3.272460 -3.038137 -5.921734  -0.084678 -2.999581 1.467965
52  -0.000000 -0.000000 0.000000  0.008153 -0.000259 0.000009
53  -0.000000 0.000000 0.000000  1.565115 0.043565 -0.106862
54  -0.096578 -14.535357 -4.832746  -0.642268 -0.226973 -1.829443
55  -0.000001 0.000000 -0.000000  0.000000 -0.000000 -0.000002
56  0.000029 0.000029 0.000001  -1.571901 -0.044449 -0.106509
57  6.729595 -14.640883 -17.523485  1.570796 -0.000000 0.000000
58  -16.642132 4.602435 -20.579788  1.570796 -0.000000 0.000000
59  2.236387 1.317426 -3.375998  1.570796 -0.000000 0.000000
60  -0.004311 0.001230 -0.000371  0.006898 -0.005534 -0.284229
61  0.826810 10.500209 -2.215392  1.570796 -0.000000 0.000000
62  0.000000 0.000000 0.000000  -0.078727 -3.136056 0.284226
63  -2.178818 -2.356640 -0.359107  1.570796 -0.001605 0.000000
64  -2.191391 -7.794945 -0.915103  1.574335 0.006262 0.001286
65  0.681869 -2.524548 0.071071  0.261799 0.000000 0.000000
66  -0.040579 -0.596210 4.579052  0.000000 -0.000000 0.011655
67  -1.210912 -0.465220 1.116576  -0.000000 -0.000000 -0.000000
68  -0.001710 -1.449898 22.825077  -0.000000 0.000000 0.000000
69  -0.001714 -3.424314 2.035807  -0.000000 0.000000 0.000000
70  0.002738 -1.395035 6.042379  -0.000000 0.000000 0.000000
71  -0.001714 -2.267051 1.587403  -0.000000 0.000000 0.000000
72  -3.588360 -1.097282 -23.660017  1.570796 -0.000000 0.000000
73  0.136241 2.066845 -1.396211  0.000000 -0.000000 0.000000
74  -2.300312 -12.486950 -5.028270  1.574335 0.006262 0.001286
75  -0.075660 2.020056 -0.303054  -0.000000 0.000000 0.000000
76  0.239006 2.332643 -1.422238  -0.000000 0.000000 0.000000
77  -0.037276 2.055115 -1.384615  -0.000000 0.000000 0.000000
time 5
0  0.000006 0.000000 0.000000  -1.570800 -1.391899 -1.570792
1  -3.555402 -0.696245 2.232071  -1.544956 -1.855077 -0.198630
2  6.027523 -0.000324 0.000193  -0.796493 -0.976136 -1.487440
3  11.692109 0.000643 -0.000740  -0.724731 -0.000014 -1.362997
4  11.480087 0.000153 -0.000843  1.268566 -0.580935 0.266277
5  3.859508 -0.142878 -1.192049  -0.693220 -0.260786 -1.751999
6  1.312588 0.000013 0.000007  -0.130694 -0.020597 -0.185342
7  0.729354 0.000051 0.000050  -0.002885 -0.009924 -0.270976
8  3.942142 0.046275 -0.431511  -0.646338 0.227547 -1.213105
9  1.539111 0.000085 0.000005  -0.012276 -0.115833 -0.827518
10  1.196333 0.000147 0.000029  0.010387 0.006894 -0.878352
11  3.883503 -0.047267 0.431382  -0.304339 0.626302 -0.484785
12  1.719573 -0.000027 0.000016  0.059045 -0.147749 -1.350884
13  1.209180 0.000091 0.000013  -0.002068 -0.004929 -0.707412
14  4.085222 -0.082713 1.151041  -0.145033 0.787002 -0.125620
15  1.719448 -0.000016 0.000027  0.018460 -0.011882 -0.616138
16  1.099675 0.000050 0.000005  -0.074391 0.045651 -1.382362
17  0.869883 -1.205877 1.100799  -0.985845 -0.600043 -0.352601
18  1.789820 -0.000002 -0.000017  0.000136 -0.001372 0.803630
19  1.207017 -0.000013 -0.000044  0.000155 -0.000006 -0.095842
20  5.740636 0.000411 -0.000703  -0.104079 0.000003 0.000067
21  11.481027 0.000242 -0.000825  -0.039652 -0.101353 0.023463
22  6.027524 -0.000330 0.000203  1.634637 -0.591720 1.540033
23  0.000002 11.692101 -0.000007  -0.947615 -0.402106 -0.756567
24  0.000003 0.000009 -0.000001  0.144362 -0.000031 1.570739
25  -0.000001 -0.000011 -0.000001  0.868957 0.000002 1.570712
26  -4.048488 -9.938416 0.826810  1.473120 1.855075 -0.198639
27  6.027509 -0.000259 -0.000228  1.417112 0.663278 -0.709499
28  11.691992 0.000241 0.000858  -0.008105 0.000072 -1.840963
29  11.479320 -0.001174 0.000814  -0.983870 0.351180 0.850433
30  3.859445 -0.132765 1.193036  0.469561 0.024446 -2.027518
31  1.312558 0.000025 -0.000006  0.012739 -0.118546 -0.457170
32  0.729346 0.000066 -0.000030  -0.160543 -0.094833 -0.794827
33  3.942049 0.050133 0.430970  0.239759 -0.046947 -1.686225
34  1.539096 0.000004 -0.000009  0.033634 -0.037983 -0.965277
35  1.196299 0.000076 -0.000009  -0.022665 -0.001268 -0.998653
36  3.883408 -0.050478 -0.431113  0.254832 -0.208796 -1.406922
37  1.719564 -0.000075 -0.000012  0.020717 -0.083409 -1.505713
38  1.209197 0.000035 0.000005  -0.007976 0.070582 -0.580400
39  3.859577 -0.149088 -1.331349  -0.095157 -0.102366 -0.337045
40  1.719412 -0.000097 -0.000044  -0.015417 0.014399 -1.359595
41  1.099674 0.000023 0.000002  -0.006689 -0.008515 -0.861363
42  0.805973 -0.359849 -1.318344  0.989321 0.173207 -0.818040
43  1.789779 -0.000006 -0.000039  0.000102 -0.007479 0.163490
44  1.206996 -0.000004 0.000007  0.000962 -0.000151 1.276281
45  5.740572 0.000097 0.000726  0.180070 -0.000014 0.000028
46  11.480808 -0.000134 0.000917  0.089199 0.087792 0.132324
47  6.027514 -0.000273 -0.000237  -0.872535 -0.637144 -1.663779
48  -0.000001 11.691972 -0.000007  -1.229819 0.674664 0.921853
49  0.000003 -0.000001 -0.000001  2.264421 -0.000047 1.570851
50  -0.000006 -0.000016 0.000005  2.272644 -0.000031 1.570865
51  -3.196289 -3.305472 -5.912442  -0.072134 -3.000621 1.465625
52  -0.000000 -0.000000 -0.000000  0.008153 -0.000259 0.000009
53  -0.000000 0.000000 -0.000000  1.565115 0.043565 -0.106862
54  -0.040807 -14.804218 -4.781074  -0.629848 -0.224012 -1.832791
55  -0.000000 0.000000 -0.000000  0.000000 -0.000000 -0.000002
56  0.000030 0.000029 0.000001  -1.571901 -0.044449 -0.106509
57  6.729595 -14.640883 -17.523485  1.570796 -0.000000 0.000000
58  -16.642132 4.602435 -20.579788  1.570796 -0.000000 0.000000
59  2.236387 1.317426 -3.375998  1.570796 -0.000000 0.000000
60  -0.004311 0.001230 -0.000371  0.006898 -0.005534 -0.284229
61  0.826810 10.500209 -2.215392  1.570796 -0.000000 0.000000
62  0.000000 0.000000 0.000000  -0.078727 -3.136056 0.284226
63  -2.178818 -2.356640 -0.359107  1.570796 -0.000840 0.000000
64  -2.180407 -8.061600 -0.891532  1.574067 -0.006197 0.000715
65  0.681868 -2.524548 0.071071  0.130900 0.000000 -0.000000
66  -0.040579 -0.596195 4.645880  0.000000 -0.000000 0.012109
67  -1.210912 -0.465220 1.116576  -0.000000 -0.000000 -0.000000
68  -0.001710 -1.449898 22.825073  0.000000 0.000000 -0.000000
69  -0.001714 -3.424314 2.035806  0.000000 0.000000 -0.000000
70  0.002738 -1.395035 6.042378  0.000000 0.000000 -0.000000
71  -0.001714 -2.267051 1.587404  0.000000 0.000000 -0.000000
72  -3.588360 -1.097282 -23.660017  1.570796 -0.000000 0.000000
73  0.136241 2.066845 -1.396211  0.000000 -0.000000 0.000000
74  -2.240761 -12.754604 -5.004557  1.574067 -0.006197 0.000715
75  -0.075660 2.020056 -0.303054  0.000000 0.000000 -0.000000
76  0.239006 2.332643 -1.422238  0.000000 0.000000 -0.000000
77  -0.037276 2.055116 -1.384615  0.000000 0.000000 -0.000000
time 6
0  0.000006 0.000000 0.000000  -1.570800 -1.391899 -1.570792
1  -3.555402 -0.696245 2.232071  -1.544956 -1.855077 -0.198630
2  6.027523 -0.000324 0.000193  -0.796129 -0.984324 -1.499485
3  11.692108 0.000644 -0.000740  -0.724730 -0.000013 -1.338841
4  11.480245 0.000220 -0.000784  1.280032 -0.563595 0.261187
5  3.859509 -0.142877 -1.192049  -0.693220 -0.260786 -1.751999
6  1.312590 0.000012 0.000009  -0.130694 -0.020597 -0.185342
7  0.729356 0.000051 0.000049  -0.002885 -0.009924 -0.270976
8  3.942143 0.046275 -0.431511  -0.646338 0.227547 -1.213105
9  1.539111 0.000086 0.000007  -0.012276 -0.115833 -0.827518
10  1.196332 0.000147 0.000028  0.010387 0.006894 -0.878352
11  3.883504 -0.047267 0.431382  -0.304339 0.626302 -0.484785
12  1.719573 -0.000029 0.000015  0.059045 -0.147749 -1.350884
13  1.209179 0.000092 0.000012  -0.002068 -0.004929 -0.707412
14  4.085222 -0.082712 1.151042  -0.145034 0.787002 -0.125620
15  1.719448 -0.000017 0.000026  0.018460 -0.011882 -0.616138
16  1.099675 0.000049 0.000005  -0.074391 0.045651 -1.382362
17  0.869882 -1.205876 1.100799  -0.988615 -0.593270 -0.348087
18  1.789820 -0.000002 -0.000018  0.000129 -0.001051 0.779305
19  1.207015 -0.000013 -0.000044  0.000120 -0.000006 -0.101575
20  5.740637 0.000410 -0.000704  -0.099015 0.000003 0.000067
21  11.481057 0.000256 -0.000817  -0.038372 -0.097600 0.023686
22  6.027524 -0.000330 0.000203  1.633279 -0.583607 1.529043
23  0.000001 11.692098 -0.000008  -0.933008 -0.389511 -0.746604
24  0.000003 0.000009 -0.000001  0.144362 -0.000031 1.570739
25  -0.000001 -0.000011 -0.000001  0.868957 0.000002 1.570712
26  -4.048488 -9.938416 0.826810  1.473120 1.855075 -0.198639
27  6.027509 -0.000259 -0.000228  1.415614 0.677058 -0.712164
28  11.691990 0.000241 0.000859  -0.008105 0.000070 -1.818160
29  11.479521 -0.001057 0.000814  -0.976872 0.352605 0.842883
30  3.859445 -0.132764 1.193035  0.469561 0.024446 -2.027518
31  1.312559 0.000026 -0.000007  0.012739 -0.118546 -0.457170
32  0.729345 0.000065 -0.000030  -0.160543 -0.094833 -0.794827
33  3.942048 0.050132 0.430970  0.239759 -0.046947 -1.686225
34  1.539096 0.000003 -0.000009  0.033634 -0.037983 -0.965277
35  1.196300 0.000077 -0.000009  -0.022665 -0.001268 -0.998653
36  3.883409 -0.050478 -0.431113  0.254832 -0.208796 -1.406922
37  1.719564 -0.000075 -0.000013  0.020717 -0.083409 -1.505713
38  1.209196 0.000035 0.000005  -0.007976 0.070582 -0.580400
39  3.859577 -0.149088 -1.331349  -0.083331 -0.079411 -0.325725
40  1.719412 -0.000097 -0.000045  -0.013668 0.027100 -1.274032
41  1.099674 0.000023 0.000001  -0.008441 -0.007884 -0.789307
42  0.805973 -0.359849 -1.318344  0.989321 0.173207 -0.818040
43  1.789779 -0.000006 -0.000039  0.000102 -0.007478 0.163490
44  1.206996 -0.000005 0.000008  0.000962 -0.000151 1.276281
45  5.740573 0.000095 0.000726  0.179654 -0.000014 0.000028
46  11.480848 -0.000111 0.000917  0.090585 0.088231 0.130433
47  6.027514 -0.000273 -0.000237  -0.887287 -0.630077 -1.656779
48  -0.000001 11.691972 -0.000007  -1.216361 0.660823 0.915465
49  0.000003 0.000001 0.000001  2.264421 -0.000046 1.570851
50  -0.000007 -0.000015 0.000005  2.272644 -0.000031 1.570865
51  -3.146672 -3.512920 -5.909614  -0.065325 -3.000667 1.463634
52  -0.000000 0.000000 0.000000  0.008153 -0.000259 0.000009
53  -0.000000 -0.000000 -0.000000  1.565115 0.043565 -0.106862
54  -0.010774 -15.014154 -4.749456  -0.623028 -0.222912 -1.835337
55  -0.000002 -0.000000 -0.000000  0.000000 -0.000000 -0.000002
56  0.000029 0.000029 0.000001  -1.571902 -0.044449 -0.106509
57  6.729595 -14.640883 -17.523485  1.570796 -0.000000 0.000000
58  -16.642132 4.602435 -20.579788  1.570796 -0.000000 0.000000
59  2.236387 1.317426 -3.375998  1.570796 -0.000000 0.000000
60  -0.004311 0.001230 -0.000371  0.006898 -0.005534 -0.284229
61  0.826810 10.500209 -2.215392  1.570796 -0.000000 0.000000
62  0.000000 0.000000 0.000000  -0.078727 -3.136056 0.284226
63  -2.178818 -2.356640 -0.359107  1.570796 0.000580 0.000000
64  -2.169423 -8.266718 -0.878840  1.573397 -0.012905 -0.000313
65  0.681869 -2.524548 0.071071  -0.000000 0.000000 -0.000000
66  -0.040579 -0.596186 4.712708  -0.000000 -0.000000 0.012174
67  -1.210912 -0.465220 1.116576  -0.000000 0.000000 0.000000
68  -0.001710 -1.449898 22.825077  -0.000000 0.000000 -0.000000
69  -0.001714 -3.424314 2.035807  -0.000000 0.000000 -0.000000
70  0.002738 -1.395035 6.042378  -0.000000 0.000000 -0.000000
71  -0.001714 -2.267051 1.587403  -0.000000 0.000000 -0.000000
72  -3.588360 -1.097282 -23.660017  1.570796 -0.000000 0.000000
73  0.136241 2.066845 -1.396211  0.000000 -0.000000 0.000000
74  -2.207052 -12.962421 -4.989055  1.573397 -0.012905 -0.000313
75  -0.075660 2.020055 -0.303053  -0.000000 0.000000 -0.000000
76  0.239006 2.332643 -1.422237  -0.000000 0.000000 -0.000000
77  -0.037276 2.055115 -1.384614  -0.000000 0.000000 -0.000000
time 7
0  0.000006 0.000000 0.000000  -1.570800 -1.391899 -1.570792
1  -3.555402 -0.696245 2.232071  -1.544956 -1.855077 -0.198630
2  6.027523 -0.000324 0.000193  -0.793469 -0.987918 -1.505293
3  11.692109 0.000645 -0.000739  -0.724729 -0.000012 -1.327487
4  11.480321 0.000250 -0.000757  1.280893 -0.557330 0.254938
5  3.859508 -0.142878 -1.192049  -0.693220 -0.260786 -1.751999
6  1.312590 0.000012 0.000009  -0.130694 -0.020597 -0.185342
7  0.729356 0.000053 0.000049  -0.002885 -0.009924 -0.270976
8  3.942142 0.046275 -0.431511  -0.646338 0.227547 -1.213105
9  1.539111 0.000086 0.000006  -0.012276 -0.115833 -0.827518
10  1.196333 0.000148 0.000027  0.010387 0.006894 -0.878352
11  3.883505 -0.047268 0.431382  -0.304339 0.626302 -0.484785
12  1.719574 -0.000029 0.000016  0.059045 -0.147749 -1.350884
13  1.209180 0.000090 0.000012  -0.002068 -0.004929 -0.707412
14  4.085223 -0.082713 1.151042  -0.145033 0.787002 -0.125620
15  1.719448 -0.000015 0.000025  0.018460 -0.011882 -0.616138
16  1.099675 0.000052 0.000007  -0.074391 0.045651 -1.382362
17  0.869883 -1.205877 1.100799  -0.989661 -0.590677 -0.346373
18  1.789820 -0.000002 -0.000018  0.000124 -0.000928 0.770007
19  1.207014 -0.000013 -0.000044  0.000107 -0.000006 -0.103766
20  5.740637 0.000410 -0.000704  -0.097995 0.000003 0.000067
21  11.481072 0.000262 -0.000809  -0.038683 -0.096238 0.022709
22  6.027524 -0.000330 0.000203  1.631054 -0.580199 1.526677
23  0.000001 11.692099 -0.000005  -0.926121 -0.383637 -0.741870
24  0.000003 0.000009 -0.000000  0.144362 -0.000031 1.570739
25  -0.000001 -0.000011 -0.000001  0.868957 0.000002 1.570712
26  -4.048488 -9.938416 0.826810  1.473120 1.855075 -0.198639
27  6.027509 -0.000259 -0.000228  1.416657 0.681413 -0.712443
28  11.691990 0.000240 0.000858  -0.008105 0.000070 -1.808914
29  11.479601 -0.001008 0.000817  -0.979806 0.352255 0.837016
30  3.859445 -0.132765 1.193036  0.469561 0.024446 -2.027518
31  1.312558 0.000025 -0.000006  0.012739 -0.118546 -0.457170
32  0.729344 0.000065 -0.000030  -0.160543 -0.094833 -0.794827
33  3.942049 0.050133 0.430970  0.239759 -0.046947 -1.686225
34  1.539096 0.000004 -0.000008  0.033634 -0.037983 -0.965277
35  1.196299 0.000077 -0.000009  -0.022665 -0.001268 -0.998653
36  3.883409 -0.050478 -0.431113  0.254832 -0.208796 -1.406922
37  1.719564 -0.000075 -0.000012  0.020717 -0.083409 -1.505713
38  1.209196 0.000035 0.000005  -0.007976 0.070582 -0.580400
39  3.859577 -0.149088 -1.331349  -0.084100 -0.080867 -0.326129
40  1.719411 -0.000097 -0.000044  -0.014421 0.026483 -1.301680
41  1.099674 0.000024 0.000002  -0.008179 -0.008168 -0.823368
42  0.805973 -0.359849 -1.318343  0.989321 0.173207 -0.818040
43  1.789780 -0.000007 -0.000039  0.000102 -0.007479 0.163490
44  1.206997 -0.000004 0.000007  0.000962 -0.000151 1.276281
45  5.740572 0.000097 0.000727  0.178191 -0.000014 0.000028
46  11.480864 -0.000100 0.000917  0.090259 0.087723 0.129458
47  6.027514 -0.000273 -0.000237  -0.891058 -0.626865 -1.655498
48  -0.000002 11.691972 -0.000007  -1.210914 0.655231 0.912828
49  0.000003 -0.000001 0.000001  2.264421 -0.000047 1.570851
50  -0.000007 -0.000016 0.000005  2.272644 -0.000031 1.570865
51  -3.151142 -3.599042 -5.912686  -0.067639 -2.999497 1.463407
52  0.000000 -0.000000 0.000000  0.008153 -0.000259 0.000009
53  -0.000000 0.000000 -0.000000  1.565115 0.043565 -0.106862
54  -0.018812 -15.100942 -4.749502  -0.625160 -0.224426 -1.835417
55  0.000000 0.000001 0.000000  0.000000 -0.000000 -0.000002
56  0.000030 0.000030 0.000001  -1.571901 -0.044449 -0.106509
57  6.729595 -14.640883 -17.523485  1.570796 -0.000000 0.000000
58  -16.642132 4.602435 -20.579788  1.570796 -0.000000 0.000000
59  2.236387 1.317426 -3.375998  1.570796 -0.000000 0.000000
60  -0.004311 0.001230 -0.000371  0.006898 -0.005534 -0.284229
61  0.826810 10.500209 -2.215392  1.570796 -0.000000 0.000000
62  0.000000 0.000000 0.000000  -0.078727 -3.136056 0.284226
63  -2.178818 -2.356640 -0.359107  1.570796 0.001345 0.000000
64  -2.164431 -8.348765 -0.879910  1.572478 -0.010503 -0.000855
65  0.681869 -2.524548 0.071071  -0.000000 0.000000 -0.000000
66  -0.040579 -0.596186 4.712708  -0.000000 0.000000 -0.000000
67  -1.210912 -0.465220 1.116575  -0.000000 0.000000 -0.000000
68  -0.001710 -1.449898 22.825077  -0.000000 0.000000 -0.000000
69  -0.001714 -3.424314 2.035806  -0.000000 0.000000 -0.000000
70  0.002739 -1.395035 6.042379  -0.000000 0.000000 -0.000000
71  -0.001714 -2.267052 1.587404  -0.000000 0.000000 -0.000000
72  -3.588360 -1.097282 -23.660017  1.570796 -0.000000 0.000000
73  0.136241 2.066845 -1.396211  0.000000 -0.000000 0.000000
74  -2.214527 -13.048214 -4.985708  1.572478 -0.010503 -0.000855
75  -0.075660 2.020055 -0.303052  -0.000000 0.000000 -0.000000
76  0.239006 2.332643 -1.422236  -0.000000 0.000000 -0.000000
77  -0.037276 2.055116 -1.384614  -0.000000 0.000000 -0.000000
time 8
0  0.000006 0.000000 0.000000  -1.570800 -1.391899 -1.570792
1  -3.555402 -0.696245 2.232071  -1.544956 -1.855077 -0.198630
2  6.027523 -0.000324 0.000193  -0.791160 -0.987708 -1.505498
3  11.692108 0.000644 -0.000739  -0.724729 -0.000012 -1.328128
4  11.480320 0.000249 -0.000759  1.276970 -0.559638 0.251315
5  3.859509 -0.142877 -1.192049  -0.693220 -0.260786 -1.751999
6  1.312589 0.000011 0.000008  -0.130694 -0.020597 -0.185342
7  0.729356 0.000052 0.000049  -0.002885 -0.009924 -0.270976
8  3.942142 0.046275 -0.431511  -0.646338 0.227547 -1.213105
9  1.539111 0.000087 0.000006  -0.012276 -0.115833 -0.827518
10  1.196332 0.000148 0.000029  0.010387 0.006894 -0.878352
11  3.883505 -0.047268 0.431382  -0.304339 0.626302 -0.484785
12  1.719575 -0.000024 0.000017  0.059045 -0.147749 -1.350884
13  1.209179 0.000090 0.000012  -0.002068 -0.004929 -0.707412
14  4.085222 -0.082713 1.151041  -0.145033 0.787002 -0.125620
15  1.719449 -0.000016 0.000027  0.018460 -0.011882 -0.616138
16  1.099675 0.000048 0.000006  -0.074391 0.045651 -1.382362
17  0.869883 -1.205877 1.100800  -0.989661 -0.590677 -0.346373
18  1.789818 -0.000003 -0.000017  0.000124 -0.000928 0.770007
19  1.207014 -0.000013 -0.000044  0.000107 -0.000005 -0.103766
20  5.740638 0.000410 -0.000703  -0.099320 0.000003 0.000067
21  11.481073 0.000261 -0.000811  -0.039471 -0.096711 0.021710
22  6.027524 -0.000330 0.000203  1.629571 -0.580545 1.529212
23  0.000001 11.692100 -0.000007  -0.926511 -0.383968 -0.742138
24  0.000003 0.000010 -0.000002  0.144362 -0.000030 1.570738
25  -0.000001 -0.000011 -0.000002  0.868957 0.000002 1.570712
26  -4.048488 -9.938416 0.826810  1.473120 1.855075 -0.198639
27  6.027509 -0.000259 -0.000228  1.418733 0.679117 -0.711319
28  11.691990 0.000241 0.000859  -0.008105 0.000070 -1.810786
29  11.479586 -0.001021 0.000815  -0.985902 0.351010 0.834400
30  3.859446 -0.132765 1.193035  0.469561 0.024446 -2.027518
31  1.312559 0.000024 -0.000006  0.012739 -0.118546 -0.457170
32  0.729345 0.000065 -0.000030  -0.160543 -0.094833 -0.794827
33  3.942049 0.050132 0.430970  0.239759 -0.046947 -1.686225
34  1.539096 0.000003 -0.000009  0.033634 -0.037983 -0.965277
35  1.196300 0.000077 -0.000009  -0.022665 -0.001268 -0.998653
36  3.883409 -0.050478 -0.431113  0.254832 -0.208796 -1.406922
37  1.719564 -0.000075 -0.000012  0.020717 -0.083409 -1.505713
38  1.209197 0.000034 0.000005  -0.007976 0.070582 -0.580400
39  3.859577 -0.149088 -1.331349  -0.085743 -0.083985 -0.326989
40  1.719413 -0.000097 -0.000045  -0.015974 0.025092 -1.360865
41  1.099674 0.000023 0.000001  -0.007587 -0.008745 -0.896300
42  0.805973 -0.359849 -1.318344  0.989320 0.173207 -0.818040
43  1.789780 -0.000007 -0.000039  0.000102 -0.007478 0.163490
44  1.206997 -0.000004 0.000007  0.000962 -0.000151 1.276280
45  5.740574 0.000096 0.000726  0.176994 -0.000014 0.000028
46  11.480863 -0.000104 0.000917  0.089332 0.086971 0.129320
47  6.027514 -0.000273 -0.000237  -0.887593 -0.626903 -1.657711
48  -0.000002 11.691973 -0.000008  -1.212016 0.656362 0.913364
49  0.000005 -0.000002 0.000001  2.264421 -0.000047 1.570851
50  -0.000007 -0.000016 0.000005  2.272644 -0.000031 1.570865
51  -3.181893 -3.585269 -5.914920  -0.072839 -2.997936 1.464390
52  0.000000 -0.000000 -0.000000  0.008153 -0.000259 0.000009
53  -0.000000 0.000000 -0.000000  1.565115 0.043565 -0.106862
54  -0.040643 -15.085245 -4.756773  -0.630125 -0.226774 -1.834064
55  -0.000002 0.000000 -0.000000  0.000000 -0.000000 -0.000002
56  0.000029 0.000029 0.000001  -1.571902 -0.044449 -0.106509
57  6.729595 -14.640883 -17.523485  1.570796 -0.000000 0.000000
58  -16.642132 4.602435 -20.579788  1.570796 -0.000000 0.000000
59  2.236387 1.317426 -3.375998  1.570796 -0.000000 0.000000
60  -0.004311 0.001230 -0.000371  0.006898 -0.005534 -0.284229
61  0.826810 10.500209 -2.215392  1.570796 -0.000000 0.000000
62  0.000000 0.000000 0.000000  -0.078727 -3.136056 0.284226
63  -2.178818 -2.356640 -0.359107  1.570796 0.000996 0.000000
64  -2.167437 -8.329700 -0.882669  1.571470 -0.005219 -0.000605
65  0.681869 -2.524548 0.071072  -0.000000 -0.000000 -0.000000
66  -0.040579 -0.596186 4.712709  -0.000000 -0.000000 -0.000000
67  -1.210912 -0.465220 1.116577  -0.000000 -0.000000 -0.000000
68  -0.001710 -1.449898 22.825075  -0.000000 -0.000000 -0.000000
69  -0.001714 -3.424315 2.035806  -0.000000 -0.000000 -0.000000
70  0.002738 -1.395035 6.042379  -0.000000 -0.000000 -0.000000
71  -0.001714 -2.267051 1.587404  -0.000000 -0.000000 -0.000000
72  -3.588360 -1.097282 -23.660017  1.570796 -0.000000 0.000000
73  0.136241 2.066845 -1.396211  0.000000 -0.000000 0.000000
74  -2.238079 -13.033281 -4.983429  1.571470 -0.005219 -0.000605
75  -0.075660 2.020056 -0.303053  -0.000000 -0.000000 -0.000000
76  0.239006 2.332643 -1.422237  -0.000000 -0.000000 -0.000000
77  -0.037276 2.055116 -1.384613  -0.000000 -0.000000 -0.000000
time 9
0  0.000006 0.000000 0.000000  -1.570800 -1.391899 -1.570792
1  -3.555402 -0.696245 2.232071  -1.544956 -1.855077 -0.198630
2  6.027523 -0.000324 0.000193  -0.789192 -0.986448 -1.504087
3  11.692109 0.000644 -0.000740  -0.724729 -0.000013 -1.332086
4  11.480288 0.000239 -0.000769  1.272371 -0.564204 0.248850
5  3.859511 -0.142878 -1.192049  -0.693220 -0.260786 -1.751999
6  1.312588 0.000012 0.000009  -0.130694 -0.020597 -0.185341
7  0.729353 0.000053 0.000051  -0.002885 -0.009924 -0.270976
8  3.942144 0.046274 -0.431511  -0.646338 0.227547 -1.213105
9  1.539111 0.000085 0.000005  -0.012276 -0.115833 -0.827518
10  1.196332 0.000148 0.000029  0.010387 0.006894 -0.878352
11  3.883506 -0.047268 0.431382  -0.304339 0.626302 -0.484785
12  1.719573 -0.000026 0.000016  0.059045 -0.147749 -1.350884
13  1.209180 0.000092 0.000012  -0.002068 -0.004929 -0.707412
14  4.085221 -0.082713 1.151041  -0.145033 0.787002 -0.125620
15  1.719447 -0.000016 0.000026  0.018460 -0.011882 -0.616138
16  1.099676 0.000052 0.000007  -0.074391 0.045651 -1.382362
17  0.869884 -1.205878 1.100800  -0.989661 -0.590677 -0.346373
18  1.789818 -0.000005 -0.000018  0.000124 -0.000928 0.770007
19  1.207015 -0.000013 -0.000044  0.000107 -0.000005 -0.103766
20  5.740636 0.000411 -0.000703  -0.101113 0.000003 0.000067
21  11.481066 0.000259 -0.000813  -0.040259 -0.097662 0.020827
22  6.027524 -0.000330 0.000203  1.628439 -0.581913 1.532887
23  0.000001 11.692099 -0.000007  -0.928912 -0.386012 -0.743791
24  0.000003 0.000009 -0.000002  0.144362 -0.000031 1.570738
25  -0.000001 -0.000011 -0.000002  0.868957 0.000002 1.570712
26  -4.048488 -9.938416 0.826810  1.473120 1.855075 -0.198639
27  6.027509 -0.000259 -0.000228  1.420897 0.675108 -0.709916
28  11.691990 0.000240 0.000858  -0.008105 0.000070 -1.815559
29  11.479543 -0.001044 0.000816  -0.991983 0.349552 0.832851
30  3.859444 -0.132765 1.193036  0.469561 0.024446 -2.027518
31  1.312559 0.000025 -0.000006  0.012739 -0.118546 -0.457170
32  0.729346 0.000066 -0.000030  -0.160543 -0.094833 -0.794827
33  3.942048 0.050132 0.430971  0.239759 -0.046947 -1.686225
34  1.539096 0.000003 -0.000008  0.033634 -0.037983 -0.965277
35  1.196299 0.000076 -0.000009  -0.022665 -0.001268 -0.998653
36  3.883409 -0.050479 -0.431113  0.254832 -0.208796 -1.406922
37  1.719564 -0.000074 -0.000012  0.020717 -0.083409 -1.505713
38  1.209197 0.000035 0.000006  -0.007976 0.070582 -0.580400
39  3.859576 -0.149088 -1.331348  -0.086511 -0.085442 -0.327389
40  1.719412 -0.000097 -0.000044  -0.016671 0.024412 -1.388510
41  1.099674 0.000024 0.000002  -0.007296 -0.008999 -0.930362
42  0.805973 -0.359849 -1.318343  0.989321 0.173207 -0.818040
43  1.789780 -0.000006 -0.000039  0.000102 -0.007479 0.163490
44  1.206997 -0.000005 0.000007  0.000962 -0.000151 1.276280
45  5.740573 0.000095 0.000725  0.176028 -0.000014 0.000028
46  11.480852 -0.000108 0.000917  0.088391 0.086225 0.129399
47  6.027514 -0.000273 -0.000237  -0.882355 -0.627868 -1.660740
48  -0.000002 11.691973 -0.000005  -1.214828 0.659249 0.914726
49  0.000003 -0.000001 0.000000  2.264421 -0.000047 1.570851
50  -0.000007 -0.000015 0.000006  2.272644 -0.000031 1.570865
51  -3.217629 -3.544990 -5.917624  -0.078051 -2.996461 1.465674
52  -0.000000 -0.000000 0.000001  0.008153 -0.000259 0.000009
53  -0.000000 -0.000000 0.000001  1.565115 0.043565 -0.106862
54  -0.064134 -15.042218 -4.765512  -0.635119 -0.229035 -1.832401
55  0.000002 0.000001 0.000000  0.000000 -0.000000 -0.000002
56  0.000031 0.000030 0.000001  -1.571901 -0.044449 -0.106509
57  6.729595 -14.640883 -17.523485  1.570796 -0.000000 0.000000
58  -16.642132 4.602435 -20.579788  1.570796 -0.000000 0.000000
59  2.236387 1.317426 -3.375998  1.570796 -0.000000 0.000000
60  -0.004311 0.001230 -0.000371  0.006898 -0.005534 -0.284229
61  0.826810 10.500209 -2.215392  1.570796 -0.000000 0.000000
62  0.000000 0.000000 0.000000  -0.078727 -3.136056 0.284226
63  -2.178818 -2.356640 -0.359107  1.570796 0.000349 0.000000
64  -2.174051 -8.284233 -0.886441  1.570547 0.000065 -0.000069
65  0.681868 -2.524548 0.071072  -0.000000 -0.000000 0.000000
66  -0.040580 -0.596186 4.712710  -0.000000 -0.000000 0.000000
67  -1.210912 -0.465220 1.116576  -0.000000 -0.000000 0.000000
68  -0.001710 -1.449898 22.825077  -0.000000 -0.000000 0.000000
69  -0.001714 -3.424314 2.035807  -0.000000 -0.000000 0.000000
70  0.002738 -1.395035 6.042380  -0.000000 -0.000000 0.000000
71  -0.001714 -2.267051 1.587404  -0.000000 -0.000000 0.000000
72  -3.588360 -1.097282 -23.660017  1.570796 -0.000000 0.000000
73  0.136241 2.066845 -1.396211  0.000000 -0.000000 0.000000
74  -2.263837 -12.991634 -4.982441  1.570547 0.000065 -0.000069
75  -0.075660 2.020055 -0.303053  -0.000000 -0.000000 0.000000
76  0.239006 2.332643 -1.422239  -0.000000 -0.000000 0.000000
77  -0.037276 2.055115 -1.384615  -0.000000 -0.000000 0.000000
time 10
0  0.000006 0.000000 0.000000  -1.570800 -1.391899 -1.570792
1  -3.555402 -0.696245 2.232071  -1.544956 -1.855077 -0.198630
2  6.027523 -0.000324 0.000193  -0.788714 -0.984643 -1.501536
3  11.692108 0.000644 -0.000740  -0.724730 -0.000013 -1.337918
4  11.480253 0.000222 -0.000782  1.269728 -0.568821 0.248863
5  3.859511 -0.142878 -1.192049  -0.693220 -0.260786 -1.751999
6  1.312589 0.000013 0.000008  -0.130694 -0.020597 -0.185342
7  0.729355 0.000053 0.000049  -0.002885 -0.009924 -0.270976
8  3.942143 0.046274 -0.431511  -0.646338 0.227547 -1.213105
9  1.539111 0.000085 0.000005  -0.012276 -0.115833 -0.827518
10  1.196331 0.000147 0.000029  0.010387 0.006894 -0.878352
11  3.883504 -0.047268 0.431382  -0.304339 0.626302 -0.484785
12  1.719574 -0.000027 0.000016  0.059045 -0.147749 -1.350884
13  1.209178 0.000091 0.000011  -0.002068 -0.004929 -0.707412
14  4.085223 -0.082713 1.151042  -0.145033 0.787002 -0.125619
15  1.719449 -0.000015 0.000027  0.018460 -0.011882 -0.616138
16  1.099675 0.000049 0.000006  -0.074391 0.045651 -1.382362
17  0.869883 -1.205877 1.100800  -0.989661 -0.590677 -0.346373
18  1.789819 -0.000003 -0.000018  0.000124 -0.000928 0.770007
19  1.207015 -0.000013 -0.000045  0.000107 -0.000005 -0.103766
20  5.740637 0.000410 -0.000703  -0.102456 0.000003 0.000067
21  11.481060 0.000256 -0.000814  -0.040584 -0.098625 0.020534
22  6.027524 -0.000330 0.000203  1.628350 -0.583735 1.535884
23  0.000001 11.692100 -0.000008  -0.932448 -0.389032 -0.746220
24  0.000003 0.000008 -0.000001  0.144362 -0.000031 1.570739
25  -0.000001 -0.000011 -0.000003  0.868957 0.000002 1.570712
26  -4.048488 -9.938416 0.826810  1.473120 1.855075 -0.198639
27  6.027509 -0.000259 -0.000228  1.421765 0.671118 -0.709005
28  11.691990 0.000240 0.000857  -0.008105 0.000071 -1.821170
29  11.479492 -0.001073 0.000817  -0.994747 0.349100 0.833040
30  3.859445 -0.132765 1.193036  0.469561 0.024446 -2.027518
31  1.312558 0.000026 -0.000006  0.012739 -0.118546 -0.457170
32  0.729345 0.000065 -0.000030  -0.160543 -0.094833 -0.794827
33  3.942049 0.050133 0.430970  0.239759 -0.046947 -1.686225
34  1.539096 0.000004 -0.000008  0.033634 -0.037983 -0.965277
35  1.196300 0.000076 -0.000009  -0.022665 -0.001268 -0.998653
36  3.883408 -0.050478 -0.431113  0.254832 -0.208796 -1.406922
37  1.719563 -0.000075 -0.000013  0.020717 -0.083409 -1.505713
38  1.209197 0.000035 0.000006  -0.007976 0.070582 -0.580400
39  3.859577 -0.149088 -1.331349  -0.086511 -0.085442 -0.327389
40  1.719413 -0.000097 -0.000044  -0.016671 0.024412 -1.388510
41  1.099674 0.000024 0.000002  -0.007296 -0.008999 -0.930362
42  0.805973 -0.359849 -1.318344  0.989320 0.173207 -0.818039
43  1.789780 -0.000006 -0.000039  0.000102 -0.007479 0.163490
44  1.206996 -0.000005 0.000007  0.000961 -0.000151 1.276281
45  5.740571 0.000096 0.000727  0.175787 -0.000014 0.000028
46  11.480841 -0.000114 0.000918  0.087919 0.085960 0.129595
47  6.027514 -0.000273 -0.000237  -0.877848 -0.629628 -1.663020
48  0.000000 11.691973 -0.000007  -1.218136 0.662646 0.916318
49  0.000003 -0.000000 0.000001  2.264421 -0.000046 1.570851
50  -0.000005 -0.000016 0.000005  2.272644 -0.000031 1.570865
51  -3.238862 -3.494678 -5.922403  -0.080394 -2.995540 1.466548
52  -0.000000 -0.000000 0.000000  0.008153 -0.000259 0.000009
53  -0.000000 0.000000 0.000000  1.565115 0.043565 -0.106862
54  -0.076455 -14.989445 -4.770127  -0.637323 -0.230306 -1.831365
55  -0.000000 0.000000 0.000000  0.000000 -0.000000 -0.000002
56  0.000029 0.000029 0.000001  -1.571902 -0.044449 -0.106509
57  6.729595 -14.640883 -17.523485  1.570796 -0.000000 0.000000
58  -16.642132 4.602435 -20.579788  1.570796 -0.000000 0.000000
59  2.236387 1.317426 -3.375998  1.570796 -0.000000 0.000000
60  -0.004311 0.001230 -0.000371  0.006898 -0.005534 -0.284229
61  0.826810 10.500209 -2.215392  1.570796 -0.000000 0.000000
62  0.000000 0.000000 0.000000  -0.078727 -3.136056 0.284226
63  -2.178818 -2.356640 -0.359107  1.570796 -0.000000 0.000000
64  -2.180665 -8.229968 -0.890550  1.569873 0.002467 0.000465
65  0.681868 -2.524548 0.071072  0.000000 -0.000000 0.000000
66  -0.040579 -0.596186 4.712709  0.000000 -0.000000 0.000000
67  -1.210913 -0.465220 1.116575  0.000000 -0.000000 0.000000
68  -0.001710 -1.449898 22.825079  0.000000 -0.000000 0.000000
69  -0.001714 -3.424315 2.035807  0.000000 -0.000000 0.000000
70  0.002739 -1.395035 6.042379  0.000000 -0.000000 0.000000
71  -0.001714 -2.267051 1.587403  0.000000 -0.000000 0.000000
72  -3.588360 -1.097282 -23.660017  1.570796 -0.000000 0.000000
73  0.136241 2.066845 -1.396211  0.000000 -0.000000 0.000000
74  -2.277770 -12.940180 -4.983153  1.569873 0.002467 0.000465
75  -0.075660 2.020055 -0.303052  0.000000 -0.000000 0.000000
76  0.239006 2.332643 -1.422236  0.000000 -0.000000 0.000000
77  -0.037276 2.055115 -1.384614  0.000000 -0.000000 0.000000
time 11
0  0.000006 0.000000 0.000000  -1.570800 -1.391899 -1.570792
1  -3.555402 -0.696245 2.232071  -1.544956 -1.855077 -0.198630
2  6.027523 -0.000324 0.000193  -0.789690 -0.982880 -1.498731
3  11.692109 0.000644 -0.000741  -0.724730 -0.000013 -1.343579
4  11.480211 0.000204 -0.000794  1.269392 -0.571936 0.250943
5  3.859511 -0.142877 -1.192049  -0.693220 -0.260786 -1.751999
6  1.312591 0.000012 0.000008  -0.130694 -0.020596 -0.185342
7  0.729355 0.000054 0.000050  -0.002885 -0.009924 -0.270976
8  3.942144 0.046275 -0.431511  -0.646338 0.227547 -1.213105
9  1.539111 0.000086 0.000007  -0.012276 -0.115833 -0.827518
10  1.196334 0.000147 0.000028  0.010387 0.006894 -0.878352
11  3.883504 -0.047268 0.431382  -0.304339 0.626302 -0.484785
12  1.719574 -0.000025 0.000017  0.059045 -0.147749 -1.350884
13  1.209179 0.000092 0.000013  -0.002068 -0.004929 -0.707412
14  4.085224 -0.082712 1.151042  -0.145034 0.787002 -0.125620
15  1.719449 -0.000016 0.000026  0.018460 -0.011882 -0.616138
16  1.099676 0.000047 0.000004  -0.074391 0.045651 -1.382362
17  0.869884 -1.205877 1.100800  -0.989661 -0.590677 -0.346373
18  1.789819 -0.000002 -0.000017  0.000124 -0.000928 0.770007
19  1.207013 -0.000013 -0.000044  0.000107 -0.000006 -0.103766
20  5.740636 0.000410 -0.000703  -0.103027 0.000003 0.000067
21  11.481050 0.000253 -0.000817  -0.040450 -0.099282 0.020822
22  6.027524 -0.000330 0.000203  1.629216 -0.585432 1.537399
23  0.000002 11.692101 -0.000008  -0.935878 -0.391971 -0.748570
24  0.000003 0.000007 -0.000001  0.144362 -0.000030 1.570739
25  -0.000000 -0.000011 -0.000002  0.868957 0.000002 1.570712
26  -4.048488 -9.938416 0.826810  1.473120 1.855075 -0.198639
27  6.027509 -0.000259 -0.000228  1.421111 0.668388 -0.708836
28  11.691990 0.000241 0.000858  -0.008105 0.000071 -1.825796
29  11.479453 -0.001097 0.000815  -0.993935 0.349877 0.834762
30  3.859445 -0.132765 1.193036  0.469561 0.024446 -2.027518
31  1.312558 0.000025 -0.000006  0.012739 -0.118546 -0.457170
32  0.729346 0.000065 -0.000031  -0.160543 -0.094833 -0.794827
33  3.942048 0.050132 0.430970  0.239759 -0.046947 -1.686225
34  1.539096 0.000004 -0.000009  0.033634 -0.037983 -0.965277
35  1.196300 0.000076 -0.000009  -0.022665 -0.001268 -0.998653
36  3.883409 -0.050479 -0.431113  0.254832 -0.208796 -1.406922
37  1.719564 -0.000075 -0.000012  0.020717 -0.083409 -1.505713
38  1.209198 0.000035 0.000005  -0.007976 0.070582 -0.580400
39  3.859577 -0.149088 -1.331349  -0.086511 -0.085442 -0.327389
40  1.719412 -0.000097 -0.000045  -0.016671 0.024412 -1.388510
41  1.099674 0.000023 0.000001  -0.007296 -0.008999 -0.930362
42  0.805973 -0.359849 -1.318343  0.989320 0.173207 -0.818039
43  1.789780 -0.000006 -0.000039  0.000102 -0.007478 0.163490
44  1.206997 -0.000004 0.000007  0.000962 -0.000151 1.276281
45  5.740572 0.000096 0.000726  0.176211 -0.000014 0.000028
46  11.480834 -0.000119 0.000917  0.087948 0.086225 0.129846
47  6.027514 -0.000273 -0.000237  -0.875457 -0.631625 -1.663856
48  -0.000001 11.691972 -0.000006  -1.220864 0.665450 0.917623
49  0.000003 0.000000 0.000001  2.264421 -0.000046 1.570851
50  -0.000006 -0.000016 0.000005  2.272644 -0.000031 1.570865
51  -3.239696 -3.450783 -5.928109  -0.079703 -2.995349 1.466691
52  -0.000000 0.000000 0.000000  0.008153 -0.000259 0.000009
53  -0.000000 -0.000000 0.000000  1.565115 0.043565 -0.106862
54  -0.075252 -14.944477 -4.770744  -0.636599 -0.230388 -1.831287
55  0.000001 -0.000001 -0.000000  0.000000 -0.000000 -0.000002
56  0.000031 0.000028 0.000001  -1.571901 -0.044449 -0.106509
57  6.729595 -14.640883 -17.523485  1.570796 -0.000000 0.000000
58  -16.642132 4.602435 -20.579788  1.570796 -0.000000 0.000000
59  2.236387 1.317426 -3.375998  1.570796 -0.000000 0.000000
60  -0.004311 0.001230 -0.000371  0.006898 -0.005534 -0.284229
61  0.826810 10.500209 -2.215392  1.570796 -0.000000 0.000000
62  0.000000 0.000000 0.000000  -0.078727 -3.136056 0.284226
63  -2.178818 -2.356640 -0.359107  1.570796 -0.000000 0.000000
64  -2.183672 -8.184503 -0.894323  1.569612 0.001807 0.000708
65  0.681869 -2.524548 0.071072  0.000000 -0.000000 0.000000
66  -0.040579 -0.596186 4.712709  0.000000 -0.000000 0.000000
67  -1.210912 -0.465220 1.116575  0.000000 -0.000000 0.000000
68  -0.001710 -1.449898 22.825079  0.000000 -0.000000 0.000000
69  -0.001714 -3.424314 2.035807  0.000000 -0.000000 0.000000
70  0.002738 -1.395035 6.042380  0.000000 -0.000000 0.000000
71  -0.001714 -2.267051 1.587403  0.000000 -0.000000 0.000000
72  -3.588360 -1.097282 -23.660017  1.570796 -0.000000 0.000000
73  0.136241 2.066845 -1.396211  0.000000 -0.000000 0.000000
74  -2.276925 -12.895805 -4.985759  1.569612 0.001807 0.000708
75  -0.075660 2.020056 -0.303053  0.000000 -0.000000 0.000000
76  0.239006 2.332643 -1.422236  0.000000 -0.000000 0.000000
77  -0.037276 2.055115 -1.384615  0.000000 -0.000000 0.000000
time 12
0  0.000006 0.000000 0.000000  -1.570800 -1.391899 -1.570792
1  -3.555402 -0.696245 2.232071  -1.544956 -1.855077 -0.198630
2  6.027523 -0.000324 0.000193  -0.790774 -0.981968 -1.497162
3  11.692109 0.000645 -0.000739  -0.724730 -0.000013 -1.346307
4  11.480197 0.000198 -0.000804  1.269983 -0.572757 0.252761
5  3.859508 -0.142878 -1.192049  -0.693220 -0.260786 -1.751999
6  1.312589 0.000011 0.000009  -0.130694 -0.020596 -0.185342
7  0.729356 0.000053 0.000048  -0.002885 -0.009924 -0.270976
8  3.942143 0.046275 -0.431511  -0.646338 0.227547 -1.213105
9  1.539111 0.000086 0.000005  -0.012276 -0.115833 -0.827518
10  1.196332 0.000147 0.000028  0.010387 0.006894 -0.878352
11  3.883505 -0.047268 0.431382  -0.304339 0.626303 -0.484785
12  1.719573 -0.000027 0.000015  0.059045 -0.147749 -1.350884
13  1.209180 0.000090 0.000013  -0.002068 -0.004929 -0.707412
14  4.085223 -0.082713 1.151041  -0.145033 0.787002 -0.125620
15  1.719448 -0.000016 0.000027  0.018460 -0.011882 -0.616138
16  1.099675 0.000049 0.000005  -0.074391 0.045651 -1.382362
17  0.869884 -1.205877 1.100800  -0.989661 -0.590677 -0.346373
18  1.789820 -0.000004 -0.000018  0.000124 -0.000928 0.770007
19  1.207013 -0.000013 -0.000043  0.000107 -0.000006 -0.103766
20  5.740637 0.000410 -0.000704  -0.103015 0.000003 0.000067
21  11.481049 0.000251 -0.000820  -0.040238 -0.099464 0.021184
22  6.027524 -0.000330 0.000203  1.630050 -0.586275 1.537606
23  0.000002 11.692099 -0.000008  -0.937529 -0.393389 -0.749699
24  0.000004 0.000009 -0.000002  0.144362 -0.000031 1.570739
25  -0.000001 -0.000011 -0.000002  0.868957 0.000002 1.570712
26  -4.048488 -9.938416 0.826810  1.473120 1.855075 -0.198639
27  6.027509 -0.000259 -0.000228  1.420032 0.667549 -0.709100
28  11.691990 0.000242 0.000859  -0.008105 0.000071 -1.827703
29  11.479435 -0.001107 0.000816  -0.992160 0.350957 0.836359
30  3.859445 -0.132765 1.193036  0.469561 0.024446 -2.027518
31  1.312559 0.000026 -0.000005  0.012739 -0.118546 -0.457170
32  0.729345 0.000065 -0.000030  -0.160543 -0.094833 -0.794827
33  3.942049 0.050132 0.430970  0.239759 -0.046947 -1.686225
34  1.539096 0.000003 -0.000009  0.033634 -0.037983 -0.965277
35  1.196299 0.000076 -0.000009  -0.022665 -0.001268 -0.998653
36  3.883409 -0.050478 -0.431113  0.254832 -0.208796 -1.406922
37  1.719563 -0.000074 -0.000012  0.020717 -0.083409 -1.505713
38  1.209197 0.000035 0.000005  -0.007976 0.070582 -0.580400
39  3.859576 -0.149088 -1.331350  -0.086511 -0.085442 -0.327389
40  1.719411 -0.000097 -0.000045  -0.016671 0.024412 -1.388510
41  1.099674 0.000023 0.000001  -0.007296 -0.008999 -0.930362
42  0.805972 -0.359849 -1.318344  0.989321 0.173207 -0.818040
43  1.789780 -0.000006 -0.000040  0.000102 -0.007478 0.163490
44  1.206996 -0.000004 0.000007  0.000962 -0.000151 1.276280
45  5.740572 0.000096 0.000726  0.176665 -0.000014 0.000028
46  11.480831 -0.000121 0.000918  0.088132 0.086607 0.130008
47  6.027514 -0.000273 -0.000237  -0.875215 -0.632801 -1.663594
48  -0.000002 11.691972 -0.000006  -1.221989 0.666607 0.918159
49  0.000002 -0.000001 -0.000000  2.264421 -0.000047 1.570851
50  -0.000007 -0.000015 0.000006  2.272644 -0.000031 1.570865
51  -3.230558 -3.431247 -5.932084  -0.078248 -2.995566 1.466349
52  -0.000000 0.000000 0.000000  0.008153 -0.000259 0.000009
53  -0.000000 0.000000 -0.000000  1.565115 0.043565 -0.106862
54  -0.069293 -14.925427 -4.770881  -0.635173 -0.229949 -1.831742
55  0.000001 0.000001 0.000000  0.000000 -0.000000 -0.000002
56  0.000032 0.000030 0.000001  -1.571901 -0.044449 -0.106509
57  6.729595 -14.640883 -17.523485  1.570796 -0.000000 0.000000
58  -16.642132 4.602435 -20.579788  1.570796 -0.000000 0.000000
59  2.236387 1.317426 -3.375998  1.570796 -0.000000 0.000000
60  -0.004311 0.001230 -0.000371  0.006898 -0.005534 -0.284229
61  0.826810 10.500209 -2.215392  1.570796 -0.000000 0.000000
62  0.000000 0.000000 0.000000  -0.078727 -3.136056 0.284226
63  -2.178818 -2.356640 -0.359107  1.570796 -0.000000 0.000000
64  -2.182467 -8.165436 -0.897081  1.569677 0.000353 0.000578
65  0.681868 -2.524549 0.071072  0.000000 0.000000 0.000000
66  -0.040579 -0.596186 4.712709  0.000000 0.000000 0.000000
67  -1.210912 -0.465220 1.116575  0.000000 0.000000 0.000000
68  -0.001710 -1.449898 22.825075  0.000000 0.000000 0.000000
69  -0.001714 -3.424314 2.035806  0.000000 0.000000 0.000000
70  0.002738 -1.395035 6.042379  0.000000 0.000000 0.000000
71  -0.001714 -2.267051 1.587404  0.000000 0.000000 0.000000
72  -3.588360 -1.097282 -23.660017  1.570796 -0.000000 0.000000
73  0.136241 2.066845 -1.396211  0.000000 -0.000000 0.000000
74  -2.270384 -12.876456 -4.988960  1.569677 0.000353 0.000578
75  -0.075660 2.020055 -0.303053  0.000000 0.000000 0.000000
76  0.239006 2.332642 -1.422237  0.000000 0.000000 0.000000
77  -0.037276 2.055115 -1.384615  0.000000 0.000000 0.000000
time 13
0  0.000006 0.000000 0.000000  -1.570800 -1.391899 -1.570792
1  -3.555402 -0.696245 2.232071  -1.544956 -1.855077 -0.198630
2  6.027523 -0.000324 0.000193  -0.791147 -0.982669 -1.498114
3  11.692108 0.000643 -0.000739  -0.724730 -0.000013 -1.343846
4  11.480210 0.000206 -0.000798  1.271531 -0.570551 0.252775
5  3.859509 -0.142877 -1.192049  -0.693220 -0.260786 -1.751999
6  1.312589 0.000012 0.000008  -0.130694 -0.020597 -0.185341
7  0.729353 0.000053 0.000050  -0.002885 -0.009924 -0.270976
8  3.942142 0.046275 -0.431511  -0.646338 0.227547 -1.213105
9  1.539111 0.000085 0.000007  -0.012276 -0.115833 -0.827518
10  1.196332 0.000147 0.000028  0.010387 0.006894 -0.878352
11  3.883504 -0.047267 0.431382  -0.304339 0.626302 -0.484785
12  1.719573 -0.000027 0.000014  0.059045 -0.147749 -1.350884
13  1.209179 0.000093 0.000011  -0.002068 -0.004929 -0.707412
14  4.085222 -0.082713 1.151041  -0.145034 0.787002 -0.125620
15  1.719447 -0.000016 0.000027  0.018460 -0.011882 -0.616138
16  1.099675 0.000048 0.000005  -0.074391 0.045651 -1.382362
17  0.869883 -1.205877 1.100800  -0.989661 -0.590677 -0.346373
18  1.789819 -0.000004 -0.000018  0.000124 -0.000928 0.770007
19  1.207013 -0.000013 -0.000044  0.000107 -0.000005 -0.103766
20  5.740637 0.000409 -0.000704  -0.102317 0.000003 0.000067
21  11.481050 0.000253 -0.000818  -0.040030 -0.098998 0.021345
22  6.027524 -0.000330 0.000203  1.630207 -0.585556 1.536257
23  0.000001 11.692099 -0.000008  -0.936039 -0.392109 -0.748680
24  0.000004 0.000010 -0.000000  0.144362 -0.000031 1.570738
25  -0.000001 -0.000011 -0.000001  0.868957 0.000002 1.570712
26  -4.048488 -9.938416 0.826810  1.473120 1.855075 -0.198639
27  6.027509 -0.000259 -0.000228  1.419311 0.669193 -0.709609
28  11.691991 0.000241 0.000859  -0.008105 0.000071 -1.825180
29  11.479457 -0.001095 0.000814  -0.990475 0.351578 0.836150
30  3.859445 -0.132765 1.193035  0.469561 0.024446 -2.027518
31  1.312559 0.000026 -0.000006  0.012739 -0.118546 -0.457170
32  0.729345 0.000066 -0.000030  -0.160543 -0.094833 -0.794827
33  3.942049 0.050132 0.430970  0.239759 -0.046947 -1.686225
34  1.539096 0.000003 -0.000008  0.033634 -0.037983 -0.965277
35  1.196300 0.000077 -0.000010  -0.022665 -0.001268 -0.998653
36  3.883409 -0.050478 -0.431113  0.254832 -0.208796 -1.406922
37  1.719564 -0.000074 -0.000012  0.020717 -0.083409 -1.505713
38  1.209197 0.000035 0.000006  -0.007976 0.070582 -0.580400
39  3.859578 -0.149088 -1.331350  -0.086511 -0.085442 -0.327389
40  1.719413 -0.000097 -0.000045  -0.016671 0.024412 -1.388510
41  1.099674 0.000023 0.000001  -0.007296 -0.008999 -0.930362
42  0.805973 -0.359849 -1.318343  0.989320 0.173207 -0.818040
43  1.789780 -0.000006 -0.000039  0.000102 -0.007479 0.163490
44  1.206997 -0.000005 0.000007  0.000962 -0.000151 1.276280
45  5.740572 0.000097 0.000726  0.176785 -0.000014 0.000028
46  11.480835 -0.000118 0.000917  0.088393 0.086828 0.129850
47  6.027514 -0.000273 -0.000237  -0.877283 -0.632311 -1.662433
48  -0.000002 11.691973 -0.000006  -1.220500 0.665077 0.917450
49  0.000004 -0.000000 -0.000000  2.264421 -0.000047 1.570851
50  -0.000007 -0.000015 0.000006  2.272644 -0.000031 1.570865
51  -3.219230 -3.453157 -5.933867  -0.076805 -2.995887 1.465853
52  0.000000 -0.000000 -0.000000  0.008153 -0.000259 0.000009
53  0.000000 0.000000 0.000000  1.565115 0.043565 -0.106862
54  -0.062952 -14.948441 -4.770022  -0.633776 -0.229410 -1.832347
55  0.000001 -0.000001 -0.000000  0.000000 -0.000000 -0.000002
56  0.000030 0.000028 0.000001  -1.571901 -0.044449 -0.106509
57  6.729595 -14.640883 -17.523485  1.570796 -0.000000 0.000000
58  -16.642132 4.602435 -20.579788  1.570796 -0.000000 0.000000
59  2.236387 1.317426 -3.375998  1.570796 -0.000000 0.000000
60  -0.004311 0.001230 -0.000371  0.006898 -0.005534 -0.284229
61  0.826810 10.500209 -2.215392  1.570796 -0.000000 0.000000
62  0.000000 0.000000 0.000000  -0.078727 -3.136056 0.284226
63  -2.178818 -2.356640 -0.359107  1.570796 -0.000000 0.000000
64  -2.179817 -8.188499 -0.898151  1.569846 -0.001101 0.000291
65  0.681869 -2.524548 0.071071  -0.000000 -0.000000 -0.000000
66  -0.040579 -0.596186 4.712709  -0.000000 -0.000000 -0.000000
67  -1.210912 -0.465220 1.116576  -0.000000 -0.000000 -0.000000
68  -0.001710 -1.449898 22.825075  -0.000000 -0.000000 -0.000000
69  -0.001714 -3.424315 2.035806  -0.000000 -0.000000 -0.000000
70  0.002739 -1.395035 6.042379  -0.000000 -0.000000 -0.000000
71  -0.001714 -2.267051 1.587402  -0.000000 -0.000000 -0.000000
72  -3.588360 -1.097282 -23.660017  1.570796 -0.000000 0.000000
73  0.136241 2.066845 -1.396211  0.000000 -0.000000 0.000000
74  -2.263137 -12.898802 -4.990953  1.569846 -0.001101 0.000291
75  -0.075659 2.020056 -0.303053  -0.000000 -0.000000 -0.000000
76  0.239006 2.332643 -1.422237  -0.000000 -0.000000 -0.000000
77  -0.037276 2.055116 -1.384614  -0.000000 -0.000000 -0.000000
time 14
0  0.000006 0.000000 0.000000  -1.570800 -1.391899 -1.570792
1  -3.555402 -0.696245 2.232071  -1.544956 -1.855077 -0.198630
2  6.027523 -0.000324 0.000193  -0.790783 -0.984189 -1.500424
3  11.692108 0.000643 -0.000739  -0.724730 -0.000013 -1.338762
4  11.480244 0.000220 -0.000785  1.272888 -0.567223 0.251448
5  3.859510 -0.142876 -1.192048  -0.693220 -0.260786 -1.751999
6  1.312590 0.000012 0.000009  -0.130694 -0.020597 -0.185341
7  0.729356 0.000052 0.000049  -0.002885 -0.009924 -0.270976
8  3.942142 0.046276 -0.431511  -0.646338 0.227547 -1.213105
9  1.539111 0.000083 0.000004  -0.012276 -0.115833 -0.827518
10  1.196332 0.000148 0.000029  0.010387 0.006894 -0.878352
11  3.883507 -0.047266 0.431382  -0.304339 0.626302 -0.484785
12  1.719573 -0.000026 0.000018  0.059045 -0.147749 -1.350884
13  1.209178 0.000091 0.000012  -0.002068 -0.004929 -0.707412
14  4.085225 -0.082711 1.151042  -0.145033 0.787002 -0.125620
15  1.719447 -0.000017 0.000025  0.018460 -0.011882 -0.616138
16  1.099676 0.000048 0.000005  -0.074391 0.045651 -1.382362
17  0.869884 -1.205876 1.100800  -0.989661 -0.590677 -0.346373
18  1.789818 -0.000003 -0.000018  0.000124 -0.000928 0.770007
19  1.207014 -0.000013 -0.000044  0.000107 -0.000005 -0.103766
20  5.740637 0.000410 -0.000704  -0.101485 0.000003 0.000067
21  11.481058 0.000256 -0.000816  -0.039951 -0.098291 0.021269
22  6.027524 -0.000330 0.000203  1.629772 -0.584066 1.534489
23  0.000001 11.692097 -0.000007  -0.932960 -0.389470 -0.746571
24  0.000002 0.000009 -0.000001  0.144362 -0.000031 1.570739
25  -0.000001 -0.000011 -0.000001  0.868957 0.000002 1.570712
26  -4.048488 -9.938416 0.826810  1.473120 1.855075 -0.198639
27  6.027509 -0.000259 -0.000228  1.419214 0.671847 -0.710044
28  11.691991 0.000242 0.000859  -0.008105 0.000071 -1.820662
29  11.479499 -0.001071 0.000815  -0.989753 0.351527 0.834792
30  3.859445 -0.132765 1.193036  0.469561 0.024446 -2.027518
31  1.312558 0.000026 -0.000006  0.012739 -0.118546 -0.457170
32  0.729345 0.000065 -0.000031  -0.160543 -0.094833 -0.794827
33  3.942048 0.050132 0.430971  0.239759 -0.046947 -1.686225
34  1.539096 0.000003 -0.000009  0.033634 -0.037983 -0.965277
35  1.196300 0.000077 -0.000010  -0.022665 -0.001268 -0.998653
36  3.883409 -0.050478 -0.431113  0.254832 -0.208796 -1.406922
37  1.719564 -0.000076 -0.000012  0.020717 -0.083409 -1.505713
38  1.209197 0.000035 0.000006  -0.007976 0.070582 -0.580400
39  3.859577 -0.149089 -1.331349  -0.086511 -0.085442 -0.327389
40  1.719412 -0.000097 -0.000044  -0.016671 0.024412 -1.388510
41  1.099674 0.000024 0.000001  -0.007296 -0.008999 -0.930362
42  0.805973 -0.359849 -1.318344  0.989321 0.173207 -0.818039
43  1.789779 -0.000006 -0.000039  0.000102 -0.007479 0.163490
44  1.206997 -0.000005 0.000007  0.000962 -0.000151 1.276280
45  5.740573 0.000096 0.000726  0.176596 -0.000014 0.000028
46  11.480844 -0.000113 0.000917  0.088570 0.086814 0.129554
47  6.027514 -0.000273 -0.000237  -0.880016 -0.630834 -1.661194
48  -0.000000 11.691973 -0.000005  -1.217836 0.662339 0.916174
49  0.000003 -0.000001 0.000000  2.264421 -0.000047 1.570851
50  -0.000006 -0.000016 0.000006  2.272644 -0.000030 1.570865
51  -3.211891 -3.494525 -5.933027  -0.076165 -2.996186 1.465473
52  -0.000000 -0.000000 0.000000  0.008153 -0.000259 0.000009
53  -0.000000 -0.000000 0.000000  1.565115 0.043565 -0.106862
54  -0.059684 -14.990987 -4.769761  -0.633182 -0.229015 -1.832769
55  -0.000000 -0.000000 0.000000  0.000000 -0.000000 -0.000002
56  0.000030 0.000029 0.000001  -1.571901 -0.044449 -0.106509
57  6.729595 -14.640883 -17.523485  1.570796 -0.000000 0.000000
58  -16.642132 4.602435 -20.579788  1.570796 -0.000000 0.000000
59  2.236387 1.317426 -3.375998  1.570796 -0.000000 0.000000
60  -0.004311 0.001230 -0.000371  0.006898 -0.005534 -0.284229
61  0.826810 10.500209 -2.215392  1.570796 -0.000000 0.000000
62  0.000000 0.000000 0.000000  -0.078727 -3.136056 0.284226
63  -2.178818 -2.356640 -0.359107  1.570796 -0.000000 0.000000
64  -2.177166 -8.231333 -0.897722  1.570078 -0.001762 0.000004
65  0.681869 -2.524548 0.071070  0.000000 -0.000000 0.000000
66  -0.040579 -0.596186 4.712708  0.000000 -0.000000 0.000000
67  -1.210912 -0.465220 1.116576  0.000000 -0.000000 0.000000
68  -0.001710 -1.449898 22.825073  0.000000 -0.000000 0.000000
69  -0.001714 -3.424314 2.035806  0.000000 -0.000000 0.000000
70  0.002739 -1.395035 6.042379  0.000000 -0.000000 0.000000
71  -0.001714 -2.267051 1.587403  0.000000 -0.000000 0.000000
72  -3.588360 -1.097282 -23.660017  1.570796 -0.000000 0.000000
73  0.136241 2.066845 -1.396211  0.000000 -0.000000 0.000000
74  -2.259134 -12.940662 -4.991670  1.570078 -0.001762 0.000004
75  -0.075659 2.020056 -0.303052  0.000000 -0.000000 0.000000
76  0.239006 2.332643 -1.422236  0.000000 -0.000000 0.000000
77  -0.037276 2.055116 -1.384614  0.000000 -0.000000 0.000000
time 15
0  0.000006 0.000000 0.000000  -1.570800 -1.391899 -1.570792
1  -3.555402 -0.696245 2.232071  -1.544956 -1.855077 -0.198630
2  6.027523 -0.000324 0.000193  -0.790298 -0.985016 -1.501741
3  11.692110 0.000643 -0.000739  -0.724730 -0.000013 -1.335933
4  11.480262 0.000225 -0.000780  1.272985 -0.565698 0.250468
5  3.859510 -0.142877 -1.192048  -0.693220 -0.260786 -1.751999
6  1.312589 0.000011 0.000009  -0.130694 -0.020596 -0.185342
7  0.729354 0.000053 0.000050  -0.002885 -0.009924 -0.270976
8  3.942143 0.046275 -0.431511  -0.646338 0.227547 -1.213105
9  1.539111 0.000086 0.000006  -0.012276 -0.115833 -0.827518
10  1.196333 0.000147 0.000027  0.010387 0.006894 -0.878352
11  3.883506 -0.047267 0.431382  -0.304339 0.626302 -0.484785
12  1.719574 -0.000026 0.000015  0.059045 -0.147749 -1.350884
13  1.209179 0.000091 0.000012  -0.002068 -0.004929 -0.707412
14  4.085224 -0.082712 1.151042  -0.145033 0.787002 -0.125620
15  1.719448 -0.000016 0.000026  0.018460 -0.011882 -0.616138
16  1.099675 0.000049 0.000006  -0.074391 0.045651 -1.382362
17  0.869883 -1.205877 1.100800  -0.989661 -0.590677 -0.346373
18  1.789820 -0.000002 -0.000018  0.000124 -0.000928 0.770007
19  1.207013 -0.000013 -0.000045  0.000107 -0.000005 -0.103766
20  5.740636 0.000410 -0.000705  -0.101203 0.000003 0.000067
21  11.481061 0.000257 -0.000815  -0.040027 -0.097972 0.021131
22  6.027524 -0.000330 0.000203  1.629347 -0.583273 1.533811
23  0.000002 11.692100 -0.000006  -0.931245 -0.388003 -0.745394
24  0.000003 0.000011 -0.000002  0.144362 -0.000031 1.570739
25  -0.000001 -0.000011 -0.000000  0.868957 0.000002 1.570712
26  -4.048488 -9.938416 0.826810  1.473120 1.855075 -0.198639
27  6.027509 -0.000259 -0.000228  1.419519 0.673180 -0.710134
28  11.691991 0.000241 0.000857  -0.008105 0.000071 -1.818371
29  11.479520 -0.001059 0.000816  -0.990074 0.351093 0.834039
30  3.859445 -0.132765 1.193037  0.469561 0.024446 -2.027518
31  1.312559 0.000025 -0.000006  0.012739 -0.118546 -0.457170
32  0.729345 0.000065 -0.000030  -0.160543 -0.094833 -0.794827
33  3.942049 0.050132 0.430970  0.239759 -0.046947 -1.686225
34  1.539097 0.000003 -0.000009  0.033634 -0.037983 -0.965277
35  1.196300 0.000077 -0.000008  -0.022665 -0.001268 -0.998653
36  3.883409 -0.050478 -0.431113  0.254832 -0.208796 -1.406922
37  1.719564 -0.000075 -0.000012  0.020717 -0.083409 -1.505713
38  1.209197 0.000035 0.000005  -0.007976 0.070582 -0.580400
39  3.859578 -0.149088 -1.331349  -0.086511 -0.085442 -0.327389
40  1.719413 -0.000097 -0.000045  -0.016671 0.024412 -1.388510
41  1.099674 0.000023 0.000001  -0.007296 -0.008999 -0.930362
42  0.805973 -0.359849 -1.318343  0.989321 0.173207 -0.818040
43  1.789779 -0.000006 -0.000039  0.000102 -0.007478 0.163490
44  1.206996 -0.000005 0.000007  0.000962 -0.000151 1.276281
45  5.740574 0.000096 0.000726  0.176403 -0.000014 0.000028
46  11.480849 -0.000111 0.000917  0.088572 0.086683 0.129448
47  6.027514 -0.000273 -0.000237  -0.881187 -0.629865 -1.660783
48  -0.000001 11.691973 -0.000007  -1.216486 0.660951 0.915525
49  0.000004 0.000000 -0.000000  2.264421 -0.000047 1.570851
50  -0.000006 -0.000015 0.000005  2.272644 -0.000031 1.570865
51  -3.211453 -3.516183 -5.930524  -0.076469 -2.996408 1.465386
52  -0.000000 -0.000000 0.000000  0.008153 -0.000259 0.000009
53  0.000000 -0.000000 0.000000  1.565115 0.043565 -0.106862
54  -0.060429 -15.013348 -4.771026  -0.633522 -0.228843 -1.832823
55  0.000001 0.000001 0.000000  0.000000 -0.000000 -0.000002
56  0.000031 0.000030 0.000001  -1.571902 -0.044449 -0.106509
57  6.729595 -14.640883 -17.523485  1.570796 -0.000000 0.000000
58  -16.642132 4.602435 -20.579788  1.570796 -0.000000 0.000000
59  2.236387 1.317426 -3.375998  1.570796 -0.000000 0.000000
60  -0.004311 0.001230 -0.000371  0.006898 -0.005534 -0.284229
61  0.826810 10.500209 -2.215392  1.570796 -0.000000 0.000000
62  0.000000 0.000000 0.000000  -0.078727 -3.136056 0.284226
63  -2.178818 -2.356640 -0.359107  1.570796 -0.000000 0.000000
64  -2.175961 -8.254396 -0.896699  1.570330 -0.001486 -0.000127
65  0.681868 -2.524548 0.071072  0.000000 0.000000 -0.000000
66  -0.040579 -0.596186 4.712709  0.000000 0.000000 -0.000000
67  -1.210912 -0.465220 1.116574  0.000000 0.000000 -0.000000
68  -0.001710 -1.449898 22.825077  0.000000 0.000000 -0.000000
69  -0.001714 -3.424315 2.035807  0.000000 0.000000 -0.000000
70  0.002738 -1.395035 6.042379  0.000000 0.000000 -0.000000
71  -0.001714 -2.267051 1.587405  0.000000 0.000000 -0.000000
72  -3.588360 -1.097282 -23.660017  1.570796 -0.000000 0.000000
73  0.136241 2.066845 -1.396211  0.000000 -0.000000 0.000000
74  -2.259671 -12.962681 -4.991813  1.570330 -0.001486 -0.000127
75  -0.075660 2.020056 -0.303055  0.000000 0.000000 -0.000000
76  0.239006 2.332643 -1.422238  0.000000 0.000000 -0.000000
77  -0.037276 2.055115 -1.384615  0.000000 0.000000 -0.000000
time 16
0  0.000006 0.000000 0.000000  -1.570800 -1.391899 -1.570792
1  -3.555402 -0.696245 2.232071  -1.544956 -1.855077 -0.198630
2  6.027523 -0.000324 0.000193  -0.790063 -0.984945 -1.501687
3  11.692109 0.000644 -0.000738  -0.724730 -0.000013 -1.336062
4  11.480265 0.000227 -0.000777  1.272246 -0.566118 0.250393
5  3.859507 -0.142878 -1.192048  -0.693220 -0.260786 -1.751999
6  1.312587 0.000012 0.000009  -0.130694 -0.020596 -0.185342
7  0.729355 0.000053 0.000049  -0.002885 -0.009924 -0.270976
8  3.942142 0.046275 -0.431510  -0.646338 0.227547 -1.213105
9  1.539111 0.000086 0.000006  -0.012276 -0.115833 -0.827518
10  1.196333 0.000148 0.000028  0.010387 0.006894 -0.878352
11  3.883504 -0.047267 0.431382  -0.304339 0.626302 -0.484785
12  1.719575 -0.000026 0.000017  0.059045 -0.147749 -1.350884
13  1.209179 0.000090 0.000011  -0.002068 -0.004929 -0.707412
14  4.085222 -0.082712 1.151042  -0.145033 0.787002 -0.125620
15  1.719450 -0.000016 0.000027  0.018460 -0.011882 -0.616138
16  1.099675 0.000048 0.000004  -0.074391 0.045651 -1.382362
17  0.869883 -1.205877 1.100800  -0.989661 -0.590677 -0.346373
18  1.789819 -0.000003 -0.000018  0.000124 -0.000928 0.770007
19  1.207014 -0.000013 -0.000044  0.000107 -0.000006 -0.103766
20  5.740636 0.000411 -0.000702  -0.101403 0.000003 0.000067
21  11.481061 0.000257 -0.000813  -0.040152 -0.098069 0.021061
22  6.027524 -0.000330 0.000203  1.629202 -0.583357 1.534140
23  0.000002 11.692098 -0.000008  -0.931323 -0.388070 -0.745448
24  0.000003 0.000009 -0.000002  0.144362 -0.000030 1.570739
25  -0.000001 -0.000011 -0.000002  0.868957 0.000002 1.570712
26  -4.048488 -9.938416 0.826810  1.473120 1.855075 -0.198639
27  6.027509 -0.000259 -0.000228  1.419903 0.673031 -0.709971
28  11.691990 0.000241 0.000858  -0.008105 0.000071 -1.818718
29  11.479518 -0.001060 0.000815  -0.990743 0.350601 0.834254
30  3.859445 -0.132765 1.193035  0.469561 0.024446 -2.027518
31  1.312559 0.000025 -0.000006  0.012739 -0.118546 -0.457170
32  0.729345 0.000065 -0.000031  -0.160543 -0.094833 -0.794827
33  3.942049 0.050132 0.430970  0.239759 -0.046947 -1.686225
34  1.539096 0.000004 -0.000009  0.033634 -0.037983 -0.965277
35  1.196299 0.000076 -0.000009  -0.022665 -0.001268 -0.998653
36  3.883409 -0.050478 -0.431113  0.254832 -0.208796 -1.406922
37  1.719564 -0.000074 -0.000012  0.020717 -0.083409 -1.505713
38  1.209196 0.000035 0.000005  -0.007976 0.070582 -0.580400
39  3.859577 -0.149088 -1.331349  -0.086511 -0.085442 -0.327389
40  1.719411 -0.000097 -0.000044  -0.016671 0.024412 -1.388510
41  1.099674 0.000025 0.000002  -0.007296 -0.008999 -0.930362
42  0.805973 -0.359849 -1.318344  0.989321 0.173207 -0.818040
43  1.789780 -0.000006 -0.000039  0.000102 -0.007478 0.163490
44  1.206997 -0.000004 0.000008  0.000962 -0.000151 1.276281
45  5.740573 0.000095 0.000726  0.176360 -0.000014 0.000028
46  11.480848 -0.000111 0.000917  0.088486 0.086556 0.129551
47  6.027514 -0.000273 -0.000237  -0.880822 -0.629707 -1.661075
48  -0.000002 11.691974 -0.000007  -1.216690 0.661161 0.915623
49  0.000004 0.000000 0.000001  2.264421 -0.000047 1.570851
50  -0.000006 -0.000016 0.000005  2.272644 -0.000030 1.570865
51  -3.214955 -3.513819 -5.927578  -0.077102 -2.996575 1.465511
52  0.000000 -0.000000 0.000000  0.008153 -0.000259 0.000009
53  -0.000000 0.000000 -0.000000  1.565115 0.043565 -0.106862
54  -0.062849 -15.011145 -4.772650  -0.634185 -0.228776 -1.832639
55  0.000000 0.000000 0.000000  0.000000 -0.000000 -0.000002
56  0.000030 0.000029 0.000001  -1.571901 -0.044449 -0.106509
57  6.729595 -14.640883 -17.523485  1.570796 -0.000000 0.000000
58  -16.642132 4.602435 -20.579788  1.570796 -0.000000 0.000000
59  2.236387 1.317426 -3.375998  1.570796 -0.000000 0.000000
60  -0.004311 0.001230 -0.000371  0.006898 -0.005534 -0.284229
61  0.826810 10.500209 -2.215392  1.570796 -0.000000 0.000000
62  0.000000 0.000000 0.000000  -0.078727 -3.136056 0.284226
63  -2.178818 -2.356640 -0.359107  1.570796 -0.000000 0.000000
64  -2.176259 -8.253161 -0.895479  1.570562 -0.000881 -0.000094
65  0.681868 -2.524549 0.071072  -0.000000 0.000000 -0.000000
66  -0.040579 -0.596186 4.712709  -0.000000 0.000000 -0.000000
67  -1.210912 -0.465220 1.116576  -0.000000 0.000000 -0.000000
68  -0.001710 -1.449898 22.825077  -0.000000 0.000000 -0.000000
69  -0.001714 -3.424314 2.035807  -0.000000 0.000000 -0.000000
70  0.002739 -1.395035 6.042380  -0.000000 0.000000 -0.000000
71  -0.001714 -2.267051 1.587404  -0.000000 0.000000 -0.000000
72  -3.588360 -1.097282 -23.660017  1.570796 -0.000000 0.000000
73  0.136241 2.066845 -1.396211  0.000000 -0.000000 0.000000
74  -2.262292 -12.960501 -4.991631  1.570562 -0.000881 -0.000094
75  -0.075659 2.020056 -0.303053  -0.000000 0.000000 -0.000000
76  0.239006 2.332643 -1.422237  -0.000000 0.000000 -0.000000
77  -0.037276 2.055115 -1.384614  -0.000000 0.000000 -0.000000
time 17
0  0.000006 0.000000 0.000000  -1.570800 -1.391899 -1.570792
1  -3.555402 -0.696245 2.232071  -1.544956 -1.855077 -0.198630
2  6.027523 -0.000324 0.000193  -0.789833 -0.984851 -1.501599
3  11.692109 0.000644 -0.000739  -0.724730 -0.000013 -1.336295
4  11.480262 0.000226 -0.000776  1.271548 -0.566607 0.250295
5  3.859510 -0.142877 -1.192049  -0.693220 -0.260786 -1.751999
6  1.312590 0.000011 0.000008  -0.130694 -0.020596 -0.185342
7  0.729354 0.000053 0.000048  -0.002885 -0.009924 -0.270976
8  3.942146 0.046276 -0.431511  -0.646338 0.227547 -1.213105
9  1.539111 0.000086 0.000006  -0.012276 -0.115833 -0.827518
10  1.196332 0.000147 0.000028  0.010387 0.006894 -0.878352
11  3.883506 -0.047266 0.431382  -0.304339 0.626302 -0.484785
12  1.719572 -0.000025 0.000015  0.059045 -0.147749 -1.350884
13  1.209179 0.000090 0.000012  -0.002068 -0.004929 -0.707412
14  4.085223 -0.082712 1.151041  -0.145034 0.787002 -0.125619
15  1.719448 -0.000013 0.000027  0.018460 -0.011882 -0.616138
16  1.099675 0.000051 0.000008  -0.074391 0.045651 -1.382362
17  0.869885 -1.205876 1.100799  -0.989661 -0.590677 -0.346373
18  1.789820 -0.000002 -0.000018  0.000124 -0.000928 0.770007
19  1.207014 -0.000013 -0.000044  0.000107 -0.000006 -0.103766
20  5.740637 0.000410 -0.000702  -0.101611 0.000003 0.000067
21  11.481060 0.000257 -0.000812  -0.040269 -0.098178 0.020985
22  6.027524 -0.000330 0.000203  1.629062 -0.583463 1.534497
23  0.000001 11.692098 -0.000007  -0.931465 -0.388191 -0.745545
24  0.000002 0.000008 -0.000000  0.144362 -0.000031 1.570738
25  -0.000001 -0.000011 -0.000001  0.868957 0.000002 1.570712
26  -4.048488 -9.938416 0.826810  1.473120 1.855075 -0.198639
27  6.027509 -0.000259 -0.000228  1.420285 0.672801 -0.709797
28  11.691991 0.000242 0.000858  -0.008105 0.000071 -1.819139
29  11.479512 -0.001064 0.000817  -0.991424 0.350134 0.834392
30  3.859445 -0.132765 1.193036  0.469561 0.024446 -2.027518
31  1.312559 0.000025 -0.000007  0.012739 -0.118546 -0.457170
32  0.729345 0.000065 -0.000031  -0.160543 -0.094833 -0.794827
33  3.942049 0.050132 0.430971  0.239759 -0.046947 -1.686225
34  1.539096 0.000004 -0.000009  0.033634 -0.037983 -0.965277
35  1.196299 0.000077 -0.000009  -0.022665 -0.001268 -0.998653
36  3.883409 -0.050478 -0.431113  0.254832 -0.208796 -1.406922
37  1.719564 -0.000075 -0.000012  0.020717 -0.083409 -1.505713
38  1.209197 0.000035 0.000005  -0.007976 0.070582 -0.580400
39  3.859577 -0.149088 -1.331349  -0.086511 -0.085442 -0.327389
40  1.719412 -0.000097 -0.000044  -0.016671 0.024412 -1.388510
41  1.099674 0.000024 0.000002  -0.007296 -0.008999 -0.930362
42  0.805973 -0.359849 -1.318343  0.989321 0.173207 -0.818039
43  1.789779 -0.000006 -0.000039  0.000102 -0.007479 0.163490
44  1.206997 -0.000005 0.000008  0.000962 -0.000151 1.276281
45  5.740573 0.000096 0.000726  0.176307 -0.000014 0.000028
46  11.480847 -0.000112 0.000917  0.088397 0.086431 0.129637
47  6.027514 -0.000273 -0.000237  -0.880376 -0.629598 -1.661401
48  -0.000003 11.691973 -0.000006  -1.216938 0.661416 0.915743
49  0.000005 -0.000001 0.000001  2.264421 -0.000047 1.570851
50  -0.000007 -0.000015 0.000005  2.272644 -0.000030 1.570865
51  -3.218845 -3.510735 -5.925123  -0.077729 -2.996680 1.465663
52  -0.000000 -0.000000 -0.000000  0.008153 -0.000259 0.000009
53  -0.000000 0.000000 0.000001  1.565115 0.043565 -0.106862
54  -0.065334 -15.008064 -4.774050  -0.634830 -0.228769 -1.832431
55  -0.000000 0.000000 -0.000001  0.000000 -0.000000 -0.000002
56  0.000031 0.000029 0.000000  -1.571902 -0.044449 -0.106509
57  6.729595 -14.640883 -17.523485  1.570796 -0.000000 0.000000
58  -16.642132 4.602435 -20.579788  1.570796 -0.000000 0.000000
59  2.236387 1.317426 -3.375998  1.570796 -0.000000 0.000000
60  -0.004311 0.001230 -0.000371  0.006898 -0.005534 -0.284229
61  0.826810 10.500209 -2.215392  1.570796 -0.000000 0.000000
62  0.000000 0.000000 0.000000  -0.078727 -3.136056 0.284226
63  -2.178818 -2.356640 -0.359107  1.570796 -0.000000 0.000000
64  -2.176811 -8.250866 -0.894456  1.570731 -0.000275 -0.000033
65  0.681868 -2.524548 0.071071  -0.000000 -0.000000 0.000000
66  -0.040579 -0.596186 4.712710  -0.000000 -0.000000 0.000000
67  -1.210912 -0.465220 1.116576  -0.000000 -0.000000 0.000000
68  -0.001710 -1.449898 22.825077  -0.000000 -0.000000 0.000000
69  -0.001714 -3.424314 2.035807  -0.000000 -0.000000 0.000000
70  0.002738 -1.395035 6.042379  -0.000000 -0.000000 0.000000
71  -0.001714 -2.267051 1.587404  -0.000000 -0.000000 0.000000
72  -3.588360 -1.097282 -23.660017  1.570796 -0.000000 0.000000
73  0.136241 2.066845 -1.396211  0.000000 -0.000000 0.000000
74  -2.265036 -12.957519 -4.991351  1.570731 -0.000275 -0.000033
75  -0.075660 2.020056 -0.303052  -0.000000 -0.000000 0.000000
76  0.239006 2.332643 -1.422237  -0.000000 -0.000000 0.000000
77  -0.037276 2.055116 -1.384614  -0.000000 -0.000000 0.000000
time 18
0  0.000006 0.000000 0.000000  -1.570800 -1.391899 -1.570792
1  -3.555402 -0.696245 2.232071  -1.544956 -1.855077 -0.198630
2  6.027523 -0.000324 0.000193  -0.789729 -0.984805 -1.501553
3  11.692108 0.000644 -0.000740  -0.724730 -0.000013 -1.336420
4  11.480262 0.000227 -0.000781  1.271237 -0.566841 0.250246
5  3.859510 -0.142877 -1.192049  -0.693220 -0.260786 -1.751999
6  1.312590 0.000011 0.000007  -0.130694 -0.020596 -0.185342
7  0.729353 0.000053 0.000051  -0.002885 -0.009924 -0.270976
8  3.942145 0.046276 -0.431512  -0.646338 0.227547 -1.213105
9  1.539111 0.000085 0.000006  -0.012276 -0.115833 -0.827518
10  1.196331 0.000148 0.000028  0.010387 0.006894 -0.878352
11  3.883505 -0.047267 0.431382  -0.304339 0.626302 -0.484785
12  1.719573 -0.000026 0.000016  0.059045 -0.147749 -1.350884
13  1.209177 0.000091 0.000012  -0.002068 -0.004929 -0.707412
14  4.085224 -0.082712 1.151041  -0.145033 0.787002 -0.125620
15  1.719450 -0.000016 0.000026  0.018460 -0.011882 -0.616138
16  1.099675 0.000049 0.000005  -0.074391 0.045651 -1.382362
17  0.869883 -1.205877 1.100799  -0.989661 -0.590677 -0.346373
18  1.789820 -0.000003 -0.000018  0.000124 -0.000928 0.770007
19  1.207014 -0.000013 -0.000044  0.000107 -0.000006 -0.103766
20  5.740637 0.000410 -0.000703  -0.101708 0.000003 0.000067
21  11.481062 0.000257 -0.000815  -0.040320 -0.098230 0.020951
22  6.027524 -0.000330 0.000203  1.628999 -0.583516 1.534664
23  -0.000000 11.692099 -0.000008  -0.931541 -0.388256 -0.745597
24  0.000002 0.000009 -0.000002  0.144362 -0.000030 1.570738
25  -0.000001 -0.000011 -0.000002  0.868957 0.000002 1.570712
26  -4.048488 -9.938416 0.826810  1.473120 1.855075 -0.198639
27  6.027509 -0.000259 -0.000228  1.420458 0.672681 -0.709715
28  11.691990 0.000242 0.000858  -0.008105 0.000071 -1.819343
29  11.479512 -0.001066 0.000815  -0.991735 0.349926 0.834441
30  3.859445 -0.132765 1.193036  0.469561 0.024446 -2.027518
31  1.312558 0.000025 -0.000007  0.012739 -0.118546 -0.457170
32  0.729345 0.000065 -0.000031  -0.160543 -0.094833 -0.794827
33  3.942048 0.050132 0.430970  0.239759 -0.046947 -1.686225
34  1.539096 0.000003 -0.000008  0.033634 -0.037983 -0.965277
35  1.196300 0.000076 -0.000009  -0.022665 -0.001268 -0.998653
36  3.883409 -0.050479 -0.431113  0.254832 -0.208796 -1.406922
37  1.719564 -0.000076 -0.000012  0.020717 -0.083409 -1.505713
38  1.209196 0.000035 0.000006  -0.007976 0.070582 -0.580400
39  3.859577 -0.149089 -1.331349  -0.086511 -0.085442 -0.327389
40  1.719412 -0.000097 -0.000044  -0.016671 0.024412 -1.388510
41  1.099674 0.000025 0.000002  -0.007296 -0.008999 -0.930362
42  0.805973 -0.359849 -1.318344  0.989321 0.173207 -0.818040
43  1.789779 -0.000007 -0.000039  0.000102 -0.007479 0.163490
44  1.206997 -0.000004 0.000007  0.000962 -0.000151 1.276281
45  5.740573 0.000095 0.000725  0.176281 -0.000014 0.000028
46  11.480847 -0.000114 0.000916  0.088356 0.086373 0.129674
47  6.027514 -0.000273 -0.000237  -0.880158 -0.629557 -1.661556
48  -0.000001 11.691973 -0.000006  -1.217059 0.661540 0.915801
49  0.000002 -0.000001 0.000001  2.264421 -0.000046 1.570851
50  -0.000006 -0.000016 0.000006  2.272644 -0.000031 1.570865
51  -3.220684 -3.509204 -5.924097  -0.078012 -2.996716 1.465737
52  0.000000 -0.000000 -0.000000  0.008153 -0.000259 0.000009
53  -0.000000 -0.000000 0.000000  1.565115 0.043565 -0.106862
54  -0.066476 -15.006505 -4.774646  -0.635121 -0.228777 -1.832332
55  0.000000 0.000000 -0.000000  0.000000 -0.000000 -0.000002
56  0.000031 0.000029 0.000001  -1.571901 -0.044449 -0.106509
57  6.729595 -14.640883 -17.523485  1.570796 -0.000000 0.000000
58  -16.642132 4.602435 -20.579788  1.570796 -0.000000 0.000000
59  2.236387 1.317426 -3.375998  1.570796 -0.000000 0.000000
60  -0.004311 0.001230 -0.000371  0.006898 -0.005534 -0.284229
61  0.826810 10.500209 -2.215392  1.570796 -0.000000 0.000000
62  0.000000 0.000000 0.000000  -0.078727 -3.136056 0.284226
63  -2.178818 -2.356640 -0.359107  1.570796 -0.000000 0.000000
64  -2.177108 -8.249631 -0.894027  1.570796 -0.000000 0.000000
65  0.681869 -2.524548 0.071072  0.000000 -0.000000 0.000000
66  -0.040579 -0.596186 4.712709  0.000000 -0.000000 0.000000
67  -1.210912 -0.465220 1.116575  0.000000 -0.000000 0.000000
68  -0.001710 -1.449898 22.825077  0.000000 -0.000000 0.000000
69  -0.001714 -3.424314 2.035807  0.000000 -0.000000 0.000000
70  0.002738 -1.395035 6.042380  0.000000 -0.000000 0.000000
71  -0.001714 -2.267051 1.587404  0.000000 -0.000000 0.000000
72  -3.588360 -1.097282 -23.660017  1.570796 -0.000000 0.000000
73  0.136241 2.066845 -1.396211  0.000000 -0.000000 0.000000
74  -2.266305 -12.956017 -4.991207  1.570796 -0.000000 0.000000
75  -0.075660 2.020056 -0.303053  0.000000 -0.000000 0.000000
76  0.239006 2.332643 -1.422237  0.000000 -0.000000 0.000000
77  -0.037276 2.055116 -1.384614  0.000000 -0.000000 0.000000
end
