version 1
nodes
0 "ValveBiped.Bip01_Spine4" -1
1 "ValveBiped.Bip01_L_Clavicle" 0
2 "ValveBiped.Bip01_L_UpperArm" 1
3 "ValveBiped.Bip01_L_Forearm" 2
4 "ValveBiped.Bip01_L_Hand" 3
5 "ValveBiped.Bip01_L_Finger4" 4
6 "ValveBiped.Bip01_L_Finger41" 5
7 "ValveBiped.Bip01_L_Finger42" 6
8 "ValveBiped.Bip01_L_Finger3" 4
9 "ValveBiped.Bip01_L_Finger31" 8
10 "ValveBiped.Bip01_L_Finger32" 9
11 "ValveBiped.Bip01_L_Finger2" 4
12 "ValveBiped.Bip01_L_Finger21" 11
13 "ValveBiped.Bip01_L_Finger22" 12
14 "ValveBiped.Bip01_L_Finger1" 4
15 "ValveBiped.Bip01_L_Finger11" 14
16 "ValveBiped.Bip01_L_Finger12" 15
17 "ValveBiped.Bip01_L_Finger0" 4
18 "ValveBiped.Bip01_L_Finger01" 17
19 "ValveBiped.Bip01_L_Finger02" 18
20 "ValveBiped.Bip01_L_Ulna" 3
21 "ValveBiped.Bip01_L_Wrist" 3
22 "rig_l_upperarm" 1
23 "rig_l_forearm" 22
24 "rig_d_l_forearm" 23
25 "rig_d_l_upperarm" 22
26 "ValveBiped.Bip01_R_Clavicle" 0
27 "ValveBiped.Bip01_R_UpperArm" 26
28 "ValveBiped.Bip01_R_Forearm" 27
29 "ValveBiped.Bip01_R_Hand" 28
30 "ValveBiped.Bip01_R_Finger4" 29
31 "ValveBiped.Bip01_R_Finger41" 30
32 "ValveBiped.Bip01_R_Finger42" 31
33 "ValveBiped.Bip01_R_Finger3" 29
34 "ValveBiped.Bip01_R_Finger31" 33
35 "ValveBiped.Bip01_R_Finger32" 34
36 "ValveBiped.Bip01_R_Finger2" 29
37 "ValveBiped.Bip01_R_Finger21" 36
38 "ValveBiped.Bip01_R_Finger22" 37
39 "ValveBiped.Bip01_R_Finger1" 29
40 "ValveBiped.Bip01_R_Finger11" 39
41 "ValveBiped.Bip01_R_Finger12" 40
42 "ValveBiped.Bip01_R_Finger0" 29
43 "ValveBiped.Bip01_R_Finger01" 42
44 "ValveBiped.Bip01_R_Finger02" 43
45 "ValveBiped.Bip01_R_Ulna" 28
46 "ValveBiped.Bip01_R_Wrist" 28
47 "rig_r_upperarm" 26
48 "rig_r_forearm" 47
49 "rig_d_r_forearm" 48
50 "rig_d_r_upperarm" 47
51 "rig_r_hand" -1
52 "rig_d_r_hand" 51
53 "rig_d_r_wrist" 52
54 "rig_l_hand" -1
55 "rig_d_l_hand" 54
56 "rig_d_l_wrist" 54
57 "rig_l_pole" -1
58 "rig_r_pole" -1
59 "rig_l_clavicle" -1
60 "rig_d_l_clavicle" 59
61 "rig_r_clavicle" -1
62 "rig_d_r_clavicle" 61
63 "Camera" -1
64 "body" -1
65 "trigger" 64
66 "barrel" 64
67 "magrel" 64
68 "bullet1" 64
69 "magrel2" 64
70 "chandle2" 64
71 "chandle" 70
72 "bolt" 64
73 "boltrelease" 64
74 "mag" -1
75 "bullet2" 74
76 "bullet3" 74
end
skeleton
time 0
0  0.031807 0.000000 -0.000718  -1.570800 -1.391899 -1.570792
1  -3.676403 -0.238821 2.232071  -1.544956 -1.855077 -0.198630
2  6.027521 -0.000327 0.000200  -0.751162 -0.920453 -1.491485
3  11.692104 0.000484 -0.000740  -0.887084 -0.000031 -1.449426
4  11.479601 0.000123 -0.001008  1.179587 -0.704954 0.215058
5  3.859505 -0.142875 -1.192066  -0.598621 -0.264961 -1.712884
6  1.312590 0.000016 0.000004  -0.134462 -0.003724 -0.161308
7  0.729355 0.000052 0.000046  -0.005670 -0.010354 -0.210237
8  3.942142 0.046277 -0.431529  -0.482643 0.151393 -1.222371
9  1.539111 0.000083 0.000001  -0.025938 -0.070135 -0.753602
10  1.196333 0.000146 0.000025  0.006041 0.002733 -0.689806
11  3.883508 -0.047265 0.431365  -0.291473 0.426599 -0.690306
12  1.719573 -0.000026 0.000010  0.002873 -0.110645 -1.064509
13  1.209180 0.000090 0.000008  -0.006934 -0.005858 -0.745304
14  4.085228 -0.082712 1.151023  -0.152788 0.511631 -0.407825
15  1.719449 -0.000013 0.000022  -0.018931 -0.027158 -0.352872
16  1.099676 0.000049 0.000003  -0.067217 0.033277 -1.489989
17  1.004895 -1.429781 1.158624  -1.212091 -0.479780 -0.146517
18  1.789817 -0.000006 -0.000016  0.000001 -0.000027 0.636396
19  1.207016 -0.000013 -0.000042  0.000006 -0.000006 -0.137934
20  5.740635 0.000364 -0.000697  -0.136983 0.000003 0.000060
21  11.480925 0.000162 -0.000852  -0.053518 -0.126261 0.003509
22  6.027523 -0.000330 0.000207  1.608286 -0.649493 1.588149
23  0.000001 11.692096 -0.000007  -0.999420 -0.448231 -0.791000
24  0.000003 0.000006 0.000001  -0.017987 -0.000031 1.570738
25  -0.000002 -0.000007 -0.000002  0.868967 -0.000009 1.570721
26  -3.991760 -9.653395 0.826810  1.473120 1.855074 -0.198639
27  6.027513 -0.000263 -0.000225  1.391166 0.649850 -0.769438
28  11.691999 0.000245 0.000862  -0.063525 0.000058 -1.693961
29  11.480650 -0.000207 0.000812  -1.002261 0.387106 0.777171
30  3.859438 -0.132762 1.193064  0.467771 0.012166 -2.080742
31  1.312559 0.000027 -0.000002  -0.002591 -0.086818 -0.325533
32  0.729345 0.000065 -0.000028  -0.149107 -0.099773 -0.829530
33  3.942047 0.050135 0.430999  0.236316 -0.061191 -1.662361
34  1.539097 0.000006 -0.000005  0.035034 -0.043250 -1.002024
35  1.196300 0.000078 -0.000008  -0.022154 0.002073 -0.844399
36  3.883414 -0.050477 -0.431085  0.224120 -0.254107 -1.343752
37  1.719564 -0.000081 -0.000015  0.017488 -0.103675 -1.461475
38  1.209199 0.000035 0.000006  -0.001906 0.071048 -0.519937
39  3.859588 -0.149085 -1.331321  -0.228052 -0.068101 -0.339217
40  1.719410 -0.000097 -0.000049  -0.018416 0.003886 -1.114011
41  1.099673 0.000025 -0.000001  -0.048482 0.059604 -0.690076
42  0.805983 -0.359849 -1.318339  0.991673 0.166770 -0.799523
43  1.789780 -0.000008 -0.000030  0.000056 -0.002451 0.133096
44  1.206997 -0.000004 0.000013  0.000370 -0.000069 1.058782
45  5.740574 0.000120 0.000728  0.151996 -0.000013 0.000032
46  11.481076 0.000097 0.000917  0.085077 0.090171 0.116956
47  6.027516 -0.000277 -0.000232  -0.873959 -0.661669 -1.707017
48  0.000000 11.691980 -0.000007  -1.143443 0.586698 0.877843
49  0.000003 -0.000002 0.000000  2.209001 -0.000036 1.570861
50  -0.000006 -0.000015 0.000004  2.272646 -0.000031 1.570865
51  -3.439117 -4.728687 -7.240910  -0.104132 -3.028496 1.376915
52  0.000000 -0.000000 -0.000000  0.008153 -0.000259 0.000009
53  -0.000000 -0.000000 -0.000000  1.565115 0.043565 -0.106862
54  -0.567169 -14.201214 -5.343502  -0.885153 -0.161290 -1.849666
55  0.000000 -0.000000 0.000000  0.000000 -0.000000 -0.000002
56  0.000030 0.000029 0.000001  -1.571902 -0.044449 -0.106509
57  10.502192 -7.472973 -18.384617  1.570796 -0.000000 0.000000
58  -15.744420 4.745377 -21.059811  1.570796 -0.000000 0.000000
59  2.268188 0.888834 -3.577183  1.570796 -0.000000 0.000000
60  -0.004311 0.001230 -0.000371  0.006898 -0.005534 -0.284228
61  0.858610 10.209643 -2.211006  1.570796 -0.000000 0.000000
62  0.000000 0.000000 0.000000  -0.078728 -3.136056 0.284225
63  0.031801 0.000000 -0.000718  1.570796 -0.000000 0.000000
64  -2.283938 -8.962564 -1.827213  1.571103 0.041360 0.006551
65  -0.039397 -3.107036 0.976860  -0.000000 -0.000000 -0.000000
66  -0.039395 -0.914783 14.099497  -0.000000 -0.000000 -0.000000
67  -0.039396 -3.172347 3.170215  -0.000000 -0.000000 -0.000000
68  -0.039397 -1.229303 3.715101  -0.000000 -0.000000 -0.000000
69  0.408671 -2.529140 3.193419  -0.000000 -0.000000 -0.000000
70  -0.039396 0.091155 10.882012  -0.000000 -0.000000 -0.000000
71  0.872713 0.008025 -1.510462  -0.000000 -0.000000 -0.000000
72  -0.039397 -0.788819 2.900786  -0.000000 -0.000000 -0.000000
73  0.595149 -1.458825 1.529926  -0.000000 -0.000000 -0.000000
74  -2.420103 -13.668686 -5.922430  1.571103 0.041360 0.006551
75  -0.075784 2.864367 -0.991288  -0.000000 -0.000000 -0.000000
76  -0.163939 2.611657 -0.991287  -0.000000 -0.000000 -0.000000
time 1
0  0.031807 0.000000 -0.000718  -1.570800 -1.391899 -1.570792
1  -3.676403 -0.238821 2.232071  -1.544956 -1.855077 -0.198630
2  6.027520 -0.000327 0.000200  -0.792657 -0.907292 -1.466140
3  11.692104 0.000484 -0.000739  -0.887084 -0.000030 -1.437844
4  11.479663 0.000142 -0.000987  1.191585 -0.667846 0.203940
5  3.859505 -0.142876 -1.192066  -0.581447 0.012228 -1.208483
6  1.312589 0.000014 0.000003  -0.067113 -0.006527 -0.300586
7  0.729355 0.000052 0.000048  -0.002783 -0.005191 -0.227286
8  3.942142 0.046277 -0.431529  -0.303713 0.155129 -0.906781
9  1.539110 0.000082 -0.000001  -0.017427 -0.033411 -0.500797
10  1.196332 0.000147 0.000025  0.003114 0.001181 -0.560290
11  3.883509 -0.047265 0.431364  -0.079627 0.229443 -0.506828
12  1.719573 -0.000025 0.000010  -0.008815 -0.052812 -0.714939
13  1.209178 0.000089 0.000007  -0.004061 -0.000922 -0.480878
14  4.085229 -0.082712 1.151023  0.106932 0.202358 -0.326632
15  1.719449 -0.000012 0.000020  -0.009411 -0.011569 -0.358021
16  1.099675 0.000047 0.000002  -0.028659 0.028743 -0.866811
17  0.813416 -1.094494 1.058672  -0.969979 -0.699057 -0.444746
18  1.789821 -0.000004 -0.000016  0.026296 -0.001435 0.756896
19  1.207014 -0.000014 -0.000043  -0.000661 -0.003292 -0.130149
20  5.740637 0.000365 -0.000699  -0.128248 0.000003 0.000060
21  11.480941 0.000166 -0.000849  -0.053316 -0.118558 0.003621
22  6.027523 -0.000330 0.000207  1.641578 -0.660361 1.560352
23  0.000002 11.692099 -0.000007  -0.992513 -0.441956 -0.786496
24  0.000002 0.000007 -0.000000  -0.017987 -0.000031 1.570738
25  -0.000002 -0.000006 -0.000003  0.868967 -0.000009 1.570721
26  -4.089345 -9.572520 0.765526  1.473120 1.855074 -0.198639
27  6.027513 -0.000263 -0.000223  1.428264 0.616962 -0.752780
28  11.691998 0.000244 0.000861  -0.048295 0.000060 -1.723235
29  11.480378 -0.000381 0.000808  -1.150028 0.351832 0.757901
30  3.859439 -0.132763 1.193064  0.406970 -0.281773 -0.608983
31  1.312559 0.000026 -0.000003  -0.000001 -0.000044 -0.148960
32  0.729346 0.000064 -0.000029  -0.000028 -0.000012 0.046463
33  3.942049 0.050135 0.430998  0.121277 -0.118791 -0.520706
34  1.539097 0.000007 -0.000005  0.000006 -0.000010 0.042926
35  1.196300 0.000077 -0.000008  -0.000010 -0.000007 -0.140033
36  3.883415 -0.050477 -0.431086  -0.089867 -0.000697 -0.298017
37  1.719565 -0.000081 -0.000015  -0.002290 -0.007625 -0.075727
38  1.209198 0.000035 0.000004  -0.001278 -0.004275 0.074338
39  3.859587 -0.149085 -1.331321  -0.330199 0.136789 -0.257124
40  1.719410 -0.000097 -0.000048  -0.001918 -0.006299 -0.072274
41  1.099673 0.000024 -0.000002  -0.001198 -0.004013 0.046406
42  0.805983 -0.359849 -1.318339  1.079799 0.646456 -0.910421
43  1.789780 -0.000007 -0.000030  0.011964 0.001552 -0.110982
44  1.206997 -0.000003 0.000014  0.005319 0.005316 0.007332
45  5.740574 0.000120 0.000727  0.124779 -0.000013 0.000032
46  11.481022 0.000061 0.000915  0.061191 0.073630 0.122105
47  6.027517 -0.000277 -0.000230  -0.818245 -0.655784 -1.746431
48  -0.000002 11.691979 -0.000005  -1.160594 0.603964 0.887124
49  0.000003 -0.000002 0.000000  2.224230 -0.000036 1.570861
50  -0.000006 -0.000015 0.000005  2.272646 -0.000031 1.570865
51  -4.016914 -4.577477 -7.320202  -0.230412 -3.036869 1.395058
52  0.000000 -0.000000 0.000000  0.008153 -0.000259 0.000009
53  0.000000 -0.000000 -0.000001  1.565115 0.043565 -0.106862
54  -0.234461 -14.483255 -5.643719  -0.885153 -0.161290 -1.849666
55  0.000001 -0.000001 -0.000000  0.000000 -0.000000 -0.000002
56  0.000031 0.000028 0.000001  -1.571902 -0.044449 -0.106509
57  10.577036 -7.365824 -18.718616  1.570796 -0.000000 0.000000
58  -15.736478 4.705328 -21.109787  1.570796 -0.000000 0.000000
59  2.268188 0.888834 -3.577183  1.570796 -0.000000 0.000000
60  -0.004311 0.001230 -0.000371  0.006898 -0.005534 -0.284228
61  0.797326 10.147424 -2.321425  1.570796 -0.000000 0.000000
62  0.000000 0.000000 0.000000  -0.078728 -3.136056 0.284225
63  0.031801 0.000000 -0.000718  1.568900 0.001131 -0.001158
64  -2.242935 -9.670942 -1.690984  1.571904 0.040510 0.046368
65  -0.039397 -3.107037 0.976859  -0.000000 -0.000000 0.000000
66  -0.039395 -0.914784 14.099494  -0.000000 -0.000000 0.000000
67  -0.039396 -3.172347 3.170214  -0.000000 -0.000000 0.000000
68  -0.039396 -1.229303 3.715100  -0.000000 -0.000000 0.000000
69  0.408672 -2.529140 3.193418  -0.000000 -0.000000 0.000000
70  -0.039395 0.091155 10.882012  -0.000000 -0.000000 0.000000
71  0.872713 0.008025 -1.510462  -0.000000 -0.000000 0.000000
72  -0.039397 -0.788819 2.900785  -0.000000 -0.000000 0.000000
73  0.595149 -1.458825 1.529925  -0.000000 -0.000000 0.000000
74  -2.188486 -14.375321 -5.790103  1.571904 0.040510 0.046368
75  -0.075783 2.864367 -0.991287  -0.000000 -0.000000 0.000000
76  -0.163938 2.611657 -0.991285  -0.000000 -0.000000 0.000000
time 2
0  0.031807 0.000000 -0.000718  -1.570800 -1.391899 -1.570792
1  -3.676403 -0.238821 2.232071  -1.544956 -1.855077 -0.198630
2  6.027519 -0.000326 0.000202  -1.023039 -0.616759 -1.180327
3  11.692103 0.000483 -0.000738  -0.887091 -0.000049 -1.734489
4  11.480518 0.000397 -0.000674  1.506197 -0.711666 0.060444
5  3.859504 -0.142876 -1.192066  -0.428827 0.245566 -0.681687
6  1.312590 0.000014 0.000004  -0.000028 0.000045 -0.439736
7  0.729356 0.000052 0.000049  0.000017 0.000021 -0.244319
8  3.942143 0.046276 -0.431528  -0.132737 0.103975 -0.596328
9  1.539111 0.000084 -0.000000  -0.000007 0.000020 -0.247842
10  1.196333 0.000145 0.000025  0.000010 0.000019 -0.430771
11  3.883507 -0.047266 0.431365  0.088576 0.002950 -0.372617
12  1.719574 -0.000027 0.000009  0.000014 0.005518 -0.366532
13  1.209179 0.000092 0.000008  0.000003 0.003092 -0.216438
14  4.085227 -0.082712 1.151024  0.338202 -0.116340 -0.327918
15  1.719448 -0.000013 0.000021  0.000028 0.004067 -0.363021
16  1.099676 0.000049 0.000002  0.000002 0.002578 -0.244381
17  0.813416 -1.094496 1.058673  -0.923232 -0.699838 -0.572782
18  1.789821 -0.000006 -0.000016  0.024593 -0.000908 0.721521
19  1.207012 -0.000013 -0.000043  -0.000688 -0.003061 -0.083985
20  5.740635 0.000364 -0.000697  -0.073265 0.000003 0.000060
21  11.481110 0.000217 -0.000784  -0.001706 -0.121309 -0.003289
22  6.027523 -0.000330 0.000207  1.989745 -0.885257 1.439181
23  0.000001 11.692098 -0.000008  -1.167254 -0.610652 -0.890570
24  0.000002 0.000006 0.000001  -0.017987 -0.000031 1.570738
25  -0.000002 -0.000007 -0.000002  0.868967 -0.000009 1.570721
26  -4.383036 -9.329119 0.581085  1.473120 1.855074 -0.198639
27  6.027512 -0.000262 -0.000224  1.441258 0.588696 -0.748869
28  11.691997 0.000243 0.000860  -0.002229 0.000061 -1.747537
29  11.480154 -0.000495 0.000823  -1.175844 0.349954 0.734425
30  3.859437 -0.132762 1.193065  0.406970 -0.281773 -0.608983
31  1.312558 0.000026 -0.000003  -0.000001 -0.000045 -0.148960
32  0.729344 0.000065 -0.000030  -0.000028 -0.000012 0.046463
33  3.942048 0.050135 0.430999  0.121277 -0.118791 -0.520706
34  1.539098 0.000007 -0.000004  0.000006 -0.000010 0.042926
35  1.196302 0.000077 -0.000007  -0.000010 -0.000007 -0.140033
36  3.883414 -0.050476 -0.431085  -0.089867 -0.000697 -0.298017
37  1.719565 -0.000081 -0.000016  -0.002290 -0.007625 -0.075727
38  1.209198 0.000034 0.000006  -0.001278 -0.004275 0.074338
39  3.859587 -0.149085 -1.331321  -0.330199 0.136789 -0.257124
40  1.719411 -0.000097 -0.000047  -0.001918 -0.006299 -0.072274
41  1.099673 0.000025 -0.000000  -0.001198 -0.004013 0.046406
42  0.805983 -0.359848 -1.318338  1.079799 0.646456 -0.910421
43  1.789780 -0.000008 -0.000030  0.011964 0.001551 -0.110982
44  1.206996 -0.000005 0.000014  0.005319 0.005316 0.007333
45  5.740573 0.000119 0.000726  0.117888 -0.000013 0.000032
46  11.480976 0.000038 0.000918  0.057150 0.071027 0.118752
47  6.027517 -0.000276 -0.000231  -0.780783 -0.661789 -1.772822
48  -0.000002 11.691979 -0.000007  -1.174843 0.618396 0.894637
49  0.000001 -0.000003 0.000000  2.270295 -0.000036 1.570860
50  -0.000006 -0.000015 0.000005  2.272646 -0.000031 1.570865
51  -4.452375 -4.538856 -7.737144  -0.214133 -3.047871 1.417512
52  -0.000000 -0.000000 -0.000001  0.008153 -0.000259 0.000009
53  -0.000000 0.000000 0.000000  1.565115 0.043565 -0.106862
54  2.341770 -12.655673 -8.366203  -0.693540 -0.177655 -1.712419
55  -0.000000 0.000000 0.000000  0.000000 -0.000000 -0.000002
56  0.000030 0.000029 0.000001  -1.571901 -0.044449 -0.106509
57  10.802288 -7.043348 -19.723816  1.570796 -0.000000 0.000000
58  -15.712577 4.584795 -21.260193  1.570796 -0.000000 0.000000
59  2.268188 0.888834 -3.577183  1.570796 -0.000000 0.000000
60  -0.004311 0.001230 -0.000371  0.006898 -0.005534 -0.284228
61  0.612885 9.960168 -2.653740  1.570796 -0.000000 0.000000
62  0.000000 0.000000 0.000000  -0.078728 -3.136056 0.284225
63  0.031801 0.000000 -0.000718  1.565375 0.003226 -0.003314
64  -2.131639 -11.593681 -1.321220  1.573953 0.037975 0.157530
65  -0.039397 -3.107035 0.976860  0.000000 -0.000000 -0.000000
66  -0.039395 -0.914783 14.099492  0.000000 -0.000000 -0.000000
67  -0.039396 -3.172346 3.170214  0.000000 -0.000000 -0.000000
68  -0.039397 -1.229303 3.715099  0.000000 -0.000000 -0.000000
69  0.408671 -2.529139 3.193418  0.000000 -0.000000 -0.000000
70  -0.039395 0.091155 10.882008  0.000000 -0.000000 -0.000000
71  0.872713 0.008025 -1.510464  0.000000 -0.000000 -0.000000
72  -0.039397 -0.788819 2.900786  0.000000 -0.000000 -0.000000
73  0.595149 -1.458825 1.529925  0.000000 -0.000000 -0.000000
74  -1.547070 -16.253099 -5.430358  1.573953 0.037975 0.157530
75  -0.075783 2.864366 -0.991288  0.000000 -0.000000 -0.000000
76  -0.163939 2.611657 -0.991286  0.000000 -0.000000 -0.000000
time 3
0  0.031807 0.000000 -0.000718  -1.570800 -1.391899 -1.570792
1  -3.676403 -0.238821 2.232071  -1.544956 -1.855077 -0.198630
2  6.027518 -0.000325 0.000204  -1.145911 -0.257887 -1.010584
3  11.692098 0.000484 -0.000738  -0.887092 -0.000059 -1.875238
4  11.479238 -0.000111 -0.001302  2.231218 -0.604557 -0.387130
5  3.859504 -0.142875 -1.192065  -0.431116 0.241340 -0.691182
6  1.312590 0.000013 0.000005  -0.000028 0.000045 -0.439735
7  0.729355 0.000053 0.000048  0.000017 0.000021 -0.244319
8  3.942142 0.046277 -0.431529  -0.133779 0.102628 -0.606431
9  1.539109 0.000082 -0.000001  -0.000007 0.000020 -0.247842
10  1.196333 0.000146 0.000025  0.000010 0.000019 -0.430771
11  3.883507 -0.047265 0.431365  0.088542 0.003847 -0.382716
12  1.719572 -0.000027 0.000012  0.000014 0.005518 -0.366532
13  1.209178 0.000089 0.000009  0.000003 0.003092 -0.216438
14  4.085227 -0.082711 1.151025  0.339304 -0.112970 -0.337544
15  1.719449 -0.000011 0.000020  0.000028 0.004067 -0.363021
16  1.099675 0.000049 0.000003  0.000002 0.002578 -0.244381
17  0.813415 -1.094495 1.058674  -0.940985 -0.693972 -0.655482
18  1.789820 -0.000007 -0.000016  0.020764 0.000043 0.643238
19  1.207011 -0.000014 -0.000043  -0.000679 -0.002557 -0.006828
20  5.740635 0.000364 -0.000699  0.062705 0.000003 0.000060
21  11.480854 0.000110 -0.000912  0.113133 -0.113248 -0.043136
22  6.027523 -0.000330 0.000207  2.591102 -1.061655 1.052148
23  0.000002 11.692097 -0.000006  -1.250187 -0.695596 -0.931065
24  0.000004 0.000007 -0.000002  -0.017986 -0.000031 1.570738
25  -0.000001 -0.000007 -0.000001  0.868967 -0.000009 1.570721
26  -4.860561 -8.933363 0.281195  1.473120 1.855074 -0.198639
27  6.027513 -0.000262 -0.000223  1.480641 0.493920 -0.735328
28  11.691998 0.000244 0.000862  0.073309 0.000065 -1.767473
29  11.479979 -0.000549 0.000867  -1.194878 0.306347 0.628705
30  3.859438 -0.132762 1.193064  0.406970 -0.281773 -0.608983
31  1.312559 0.000026 -0.000001  -0.000001 -0.000044 -0.148960
32  0.729347 0.000066 -0.000028  -0.000028 -0.000012 0.046463
33  3.942047 0.050135 0.430999  0.121277 -0.118791 -0.520706
34  1.539099 0.000007 -0.000005  0.000006 -0.000010 0.042926
35  1.196301 0.000077 -0.000008  -0.000010 -0.000007 -0.140033
36  3.883414 -0.050476 -0.431085  -0.089867 -0.000697 -0.298017
37  1.719564 -0.000080 -0.000014  -0.002290 -0.007625 -0.075727
38  1.209197 0.000035 0.000005  -0.001278 -0.004275 0.074338
39  3.859588 -0.149085 -1.331321  -0.330199 0.136789 -0.257124
40  1.719411 -0.000097 -0.000048  -0.001918 -0.006299 -0.072274
41  1.099673 0.000024 -0.000002  -0.001198 -0.004013 0.046406
42  0.805983 -0.359848 -1.318338  1.079799 0.646456 -0.910421
43  1.789780 -0.000009 -0.000030  0.011964 0.001551 -0.110982
44  1.206997 -0.000003 0.000014  0.005319 0.005316 0.007333
45  5.740574 0.000119 0.000727  0.103003 -0.000013 0.000032
46  11.480944 0.000027 0.000928  0.059076 0.058914 0.100429
47  6.027517 -0.000277 -0.000229  -0.653991 -0.677346 -1.858359
48  -0.000001 11.691982 -0.000007  -1.186539 0.630300 0.900673
49  0.000003 -0.000002 0.000001  2.345835 -0.000036 1.570861
50  -0.000006 -0.000013 0.000005  2.272646 -0.000031 1.570865
51  -5.792158 -4.475688 -9.027564  -0.156671 -3.075196 1.471390
52  -0.000000 -0.000000 0.000000  0.008153 -0.000259 0.000009
53  -0.000000 0.000001 -0.000000  1.565115 0.043565 -0.106862
54  5.101076 -10.841132 -11.783436  -0.224021 -0.293519 -1.429178
55  0.000001 0.000000 0.000001  0.000000 -0.000000 -0.000002
56  0.000031 0.000029 0.000002  -1.571901 -0.044449 -0.106509
57  11.168533 -6.519023 -21.358215  1.570796 -0.000000 0.000000
58  -15.673715 4.388817 -21.504745  1.570796 -0.000000 0.000000
59  2.268188 0.888834 -3.577183  1.570796 -0.000000 0.000000
60  -0.004311 0.001230 -0.000371  0.006898 -0.005534 -0.284228
61  0.312994 9.655701 -3.194066  1.570796 -0.000000 0.000000
62  0.000000 0.000000 0.000000  -0.078728 -3.136056 0.284225
63  0.031801 0.000000 -0.000718  1.563475 0.004351 -0.004479
64  -1.967625 -14.427191 -0.776304  1.576525 0.033667 0.328779
65  -0.039397 -3.107036 0.976859  0.000000 0.000000 -0.000000
66  -0.039396 -0.914784 14.099493  0.000000 0.000000 -0.000000
67  -0.039396 -3.172347 3.170213  0.000000 0.000000 -0.000000
68  -0.039397 -1.229303 3.715099  0.000000 0.000000 -0.000000
69  0.408672 -2.529140 3.193416  0.000000 0.000000 -0.000000
70  -0.039396 0.091155 10.882010  0.000000 0.000000 -0.000000
71  0.872713 0.008025 -1.510462  0.000000 0.000000 -0.000000
72  -0.039397 -0.788819 2.900784  0.000000 0.000000 -0.000000
73  0.595149 -1.458825 1.529924  0.000000 0.000000 -0.000000
74  -0.584633 -18.903225 -4.898120  1.576525 0.033667 0.328779
75  -0.075784 2.864367 -0.991288  0.000000 0.000000 -0.000000
76  -0.163938 2.611658 -0.991285  0.000000 0.000000 -0.000000
time 4
0  0.031807 0.000000 -0.000718  -1.570800 -1.391899 -1.570792
1  -3.676403 -0.238821 2.232071  -1.544956 -1.855077 -0.198630
2  6.027518 -0.000325 0.000206  -1.198578 -0.003726 -0.949752
3  11.692101 0.000483 -0.000740  -0.887092 -0.000057 -1.854321
4  11.479425 -0.000046 -0.001219  2.484479 -0.383484 -0.562829
5  3.859505 -0.142875 -1.192065  -0.437437 0.229106 -0.718304
6  1.312587 0.000014 0.000005  -0.000028 0.000045 -0.439736
7  0.729354 0.000051 0.000049  0.000017 0.000021 -0.244319
8  3.942141 0.046277 -0.431527  -0.136689 0.098707 -0.635386
9  1.539109 0.000082 0.000001  -0.000007 0.000021 -0.247842
10  1.196333 0.000145 0.000025  0.000010 0.000019 -0.430771
11  3.883506 -0.047265 0.431366  0.088393 0.006416 -0.411676
12  1.719573 -0.000026 0.000010  0.000014 0.005518 -0.366532
13  1.209179 0.000091 0.000008  0.000003 0.003092 -0.216438
14  4.085227 -0.082711 1.151024  0.342278 -0.103252 -0.365106
15  1.719448 -0.000012 0.000022  0.000028 0.004067 -0.363021
16  1.099675 0.000049 0.000003  0.000002 0.002578 -0.244381
17  0.813414 -1.094495 1.058674  -0.990810 -0.688410 -0.710021
18  1.789820 -0.000004 -0.000015  0.016013 0.000792 0.547759
19  1.207014 -0.000014 -0.000043  -0.000609 -0.001950 0.081340
20  5.740636 0.000364 -0.000698  0.144779 0.000003 0.000060
21  11.480892 0.000121 -0.000897  0.166569 -0.089240 -0.077117
22  6.027523 -0.000330 0.000207  -0.007686 -2.067558 -2.513833
23  0.000002 11.692098 -0.000007  -1.237784 -0.682808 -0.925448
24  0.000003 0.000006 0.000000  -0.017986 -0.000031 1.570738
25  -0.000001 -0.000006 -0.000001  0.868967 -0.000009 1.570721
26  -5.485140 -8.415734 -0.111047  1.473120 1.855074 -0.198639
27  6.027512 -0.000262 -0.000228  1.540186 0.360972 -0.728917
28  11.691998 0.000245 0.000859  0.173009 0.000063 -1.758831
29  11.480055 -0.000412 0.000911  -1.231240 0.215517 0.466392
30  3.859438 -0.132762 1.193064  0.406970 -0.281773 -0.608983
31  1.312560 0.000026 -0.000003  -0.000001 -0.000044 -0.148960
32  0.729346 0.000065 -0.000027  -0.000028 -0.000012 0.046463
33  3.942048 0.050136 0.430998  0.121277 -0.118791 -0.520706
34  1.539098 0.000007 -0.000005  0.000006 -0.000010 0.042926
35  1.196299 0.000077 -0.000008  -0.000010 -0.000007 -0.140033
36  3.883414 -0.050476 -0.431086  -0.089867 -0.000697 -0.298017
37  1.719565 -0.000080 -0.000014  -0.002290 -0.007625 -0.075727
38  1.209197 0.000035 0.000004  -0.001278 -0.004275 0.074338
39  3.859588 -0.149086 -1.331321  -0.330199 0.136789 -0.257124
40  1.719411 -0.000097 -0.000049  -0.001918 -0.006299 -0.072274
41  1.099673 0.000023 -0.000001  -0.001198 -0.004013 0.046406
42  0.805983 -0.359849 -1.318339  1.079799 0.646456 -0.910421
43  1.789779 -0.000008 -0.000030  0.011964 0.001551 -0.110982
44  1.206998 -0.000004 0.000013  0.005319 0.005316 0.007333
45  5.740575 0.000117 0.000725  0.081148 -0.000013 0.000032
46  11.480959 0.000053 0.000936  0.059983 0.035518 0.072583
47  6.027517 -0.000277 -0.000232  -0.469794 -0.675940 -1.992232
48  -0.000002 11.691980 -0.000004  -1.181467 0.625132 0.898071
49  0.000003 -0.000003 0.000000  2.445534 -0.000036 1.570861
50  -0.000007 -0.000015 0.000006  2.272646 -0.000031 1.570865
51  -7.814067 -4.389305 -10.992719  3.064391 -0.030278 -1.603832
52  0.000000 -0.000000 0.000001  0.008153 -0.000259 0.000009
53  0.000000 -0.000000 -0.000001  1.565115 0.043565 -0.106862
54  6.981523 -9.386584 -14.610625  0.065785 -0.333292 -1.356099
55  -0.000001 0.000000 0.000000  0.000000 -0.000000 -0.000002
56  0.000030 0.000029 0.000002  -1.571901 -0.044449 -0.106509
57  11.647564 -5.833228 -23.495930  1.570796 -0.000000 0.000000
58  -15.622885 4.132485 -21.824612  1.570796 -0.000000 0.000000
59  2.268188 0.888834 -3.577183  1.570796 -0.000000 0.000000
60  -0.004311 0.001230 -0.000371  0.006898 -0.005534 -0.284228
61  -0.079249 9.257473 -3.900787  1.570796 -0.000000 0.000000
62  0.000000 0.000000 0.000000  -0.078728 -3.136056 0.284225
63  0.031801 0.000000 -0.000718  1.563882 0.004111 -0.004230
64  -1.768465 -17.867884 -0.114621  1.578671 0.027678 0.546028
65  -0.039397 -3.107036 0.976859  0.000000 -0.000000 0.000000
66  -0.039396 -0.914783 14.099496  0.000000 -0.000000 0.000000
67  -0.039396 -3.172347 3.170213  0.000000 -0.000000 0.000000
68  -0.039397 -1.229303 3.715098  0.000000 -0.000000 0.000000
69  0.408672 -2.529140 3.193418  0.000000 -0.000000 0.000000
70  -0.039396 0.091155 10.882010  0.000000 -0.000000 0.000000
71  0.872713 0.008025 -1.510460  0.000000 -0.000000 0.000000
72  -0.039397 -0.788819 2.900785  0.000000 -0.000000 0.000000
73  0.595148 -1.458825 1.529924  0.000000 -0.000000 0.000000
74  0.563062 -21.920364 -4.247213  1.578671 0.027678 0.546028
75  -0.075785 2.864367 -0.991287  0.000000 -0.000000 0.000000
76  -0.163940 2.611658 -0.991288  0.000000 -0.000000 0.000000
time 5
0  0.031807 0.000000 -0.000718  -1.570800 -1.391899 -1.570792
1  -3.676403 -0.238821 2.232071  -1.544956 -1.855077 -0.198630
2  6.027518 -0.000325 0.000207  -1.185852 0.123850 -0.923576
3  11.692100 0.000483 -0.000738  -0.887091 -0.000051 -1.759124
4  11.480288 0.000300 -0.000796  2.450003 -0.274092 -0.532629
5  3.859504 -0.142875 -1.192065  -0.446338 0.210249 -0.759139
6  1.312588 0.000014 0.000005  -0.000028 0.000045 -0.439736
7  0.729353 0.000053 0.000047  0.000017 0.000021 -0.244319
8  3.942141 0.046276 -0.431529  -0.140879 0.092607 -0.679252
9  1.539111 0.000082 0.000000  -0.000007 0.000020 -0.247842
10  1.196334 0.000144 0.000024  0.000010 0.000019 -0.430771
11  3.883506 -0.047266 0.431364  0.088026 0.010300 -0.455596
12  1.719572 -0.000025 0.000009  0.000014 0.005518 -0.366532
13  1.209179 0.000092 0.000008  0.000003 0.003092 -0.216438
14  4.085228 -0.082711 1.151023  0.346267 -0.088370 -0.406799
15  1.719450 -0.000013 0.000023  0.000028 0.004067 -0.363021
16  1.099675 0.000048 0.000002  0.000002 0.002578 -0.244381
17  0.813416 -1.094495 1.058673  -1.053734 -0.684478 -0.745714
18  1.789821 -0.000005 -0.000016  0.011127 0.001086 0.450612
19  1.207014 -0.000014 -0.000043  -0.000483 -0.001342 0.168445
20  5.740636 0.000365 -0.000698  0.170094 0.000003 0.000060
21  11.481065 0.000191 -0.000812  0.167564 -0.065687 -0.081540
22  6.027523 -0.000330 0.000207  -2.880071 -1.072381 0.416282
23  0.000002 11.692095 -0.000007  -1.181704 -0.625322 -0.898102
24  0.000002 0.000006 0.000001  -0.017987 -0.000031 1.570738
25  -0.000001 -0.000007 -0.000002  0.868967 -0.000008 1.570721
26  -6.192688 -7.829344 -0.555394  1.473120 1.855074 -0.198639
27  6.027512 -0.000262 -0.000228  1.611664 0.242148 -0.741596
28  11.691998 0.000243 0.000863  0.286611 0.000060 -1.716969
29  11.480436 -0.000062 0.000875  -1.307567 0.097511 0.323343
30  3.859439 -0.132764 1.193064  0.406970 -0.281773 -0.608983
31  1.312561 0.000027 -0.000002  -0.000001 -0.000044 -0.148960
32  0.729346 0.000065 -0.000027  -0.000028 -0.000012 0.046463
33  3.942048 0.050133 0.430998  0.121277 -0.118791 -0.520706
34  1.539098 0.000007 -0.000004  0.000006 -0.000010 0.042926
35  1.196301 0.000075 -0.000008  -0.000010 -0.000007 -0.140033
36  3.883415 -0.050477 -0.431085  -0.089867 -0.000697 -0.298017
37  1.719565 -0.000080 -0.000015  -0.002290 -0.007625 -0.075727
38  1.209197 0.000034 0.000005  -0.001278 -0.004275 0.074338
39  3.859588 -0.149086 -1.331322  -0.330199 0.136789 -0.257124
40  1.719410 -0.000095 -0.000046  -0.001918 -0.006299 -0.072274
41  1.099674 0.000026 -0.000001  -0.001198 -0.004013 0.046405
42  0.805983 -0.359849 -1.318338  1.079799 0.646456 -0.910421
43  1.789779 -0.000007 -0.000031  0.011964 0.001551 -0.110982
44  1.206996 -0.000004 0.000014  0.005319 0.005316 0.007332
45  5.740574 0.000120 0.000726  0.055861 -0.000013 0.000032
46  11.481034 0.000124 0.000928  0.050990 0.006285 0.049061
47  6.027516 -0.000277 -0.000231  -0.303225 -0.638510 -2.128112
48  -0.000002 11.691980 -0.000007  -1.156923 0.600258 0.885159
49  0.000002 -0.000001 0.000001  2.559136 -0.000036 1.570861
50  -0.000008 -0.000014 0.000004  2.272646 -0.000031 1.570865
51  -9.975476 -4.290236 -13.122684  3.132308 0.007333 -1.554801
52  -0.000000 0.000001 0.000000  0.008153 -0.000259 0.000009
53  -0.000000 -0.000002 -0.000001  1.565115 0.043565 -0.106862
54  7.844579 -8.276675 -16.875973  0.169768 -0.196338 -1.424985
55  -0.000000 -0.000000 0.000000  0.000000 -0.000000 -0.000002
56  0.000030 0.000029 0.000001  -1.571902 -0.044449 -0.106509
57  12.190229 -5.056335 -25.917614  1.570796 -0.000000 0.000000
58  -15.565302 3.842105 -22.186966  1.570796 -0.000000 0.000000
59  2.268188 0.888834 -3.577183  1.570796 -0.000000 0.000000
60  -0.004311 0.001230 -0.000371  0.006898 -0.005534 -0.284228
61  -0.523596 8.806345 -4.701387  1.570796 -0.000000 0.000000
62  0.000000 0.000000 0.000000  -0.078728 -3.136056 0.284225
63  0.031801 0.000000 -0.000718  1.564928 0.003491 -0.003588
64  -1.551731 -21.612164 0.605446  1.579478 0.020614 0.788902
65  -0.039397 -3.107036 0.976859  0.000000 -0.000000 -0.000000
66  -0.039395 -0.914783 14.099495  0.000000 -0.000000 -0.000000
67  -0.039397 -3.172347 3.170215  0.000000 -0.000000 -0.000000
68  -0.039396 -1.229303 3.715099  0.000000 -0.000000 -0.000000
69  0.408671 -2.529140 3.193417  0.000000 -0.000000 -0.000000
70  -0.039395 0.091155 10.882010  0.000000 -0.000000 -0.000000
71  0.872714 0.008025 -1.510463  0.000000 -0.000000 -0.000000
72  -0.039397 -0.788819 2.900786  0.000000 -0.000000 -0.000000
73  0.595149 -1.458825 1.529924  0.000000 -0.000000 -0.000000
74  1.704108 -24.961975 -3.531605  1.579478 0.020614 0.788902
75  -0.075784 2.864367 -0.991290  0.000000 -0.000000 -0.000000
76  -0.163938 2.611657 -0.991288  0.000000 -0.000000 -0.000000
time 6
0  0.031807 0.000000 -0.000718  -1.570800 -1.391899 -1.570792
1  -3.676403 -0.238821 2.232071  -1.544956 -1.855077 -0.198630
2  6.027518 -0.000325 0.000207  -1.096201 0.164200 -0.889934
3  11.692103 0.000482 -0.000738  -0.887089 -0.000041 -1.610732
4  11.479607 0.000063 -0.001084  2.406130 -0.258917 -0.470951
5  3.859504 -0.142876 -1.192065  -0.455430 0.188461 -0.805042
6  1.312590 0.000016 0.000007  -0.000028 0.000045 -0.439735
7  0.729354 0.000051 0.000046  0.000017 0.000021 -0.244319
8  3.942140 0.046277 -0.431527  -0.145297 0.085477 -0.728928
9  1.539111 0.000081 0.000000  -0.000007 0.000020 -0.247842
10  1.196332 0.000145 0.000028  0.000010 0.000019 -0.430771
11  3.883506 -0.047266 0.431368  0.087404 0.014680 -0.505398
12  1.719574 -0.000026 0.000012  0.000014 0.005518 -0.366532
13  1.209178 0.000092 0.000010  0.000003 0.003092 -0.216438
14  4.085227 -0.082712 1.151024  0.350028 -0.071312 -0.453940
15  1.719450 -0.000012 0.000021  0.000028 0.004067 -0.363021
16  1.099675 0.000049 0.000002  0.000002 0.002578 -0.244381
17  0.813414 -1.094496 1.058675  -1.117046 -0.681977 -0.768144
18  1.789822 -0.000009 -0.000016  0.006697 0.000942 0.362642
19  1.207015 -0.000015 -0.000044  -0.000322 -0.000803 0.246057
20  5.740636 0.000365 -0.000698  0.183266 0.000003 0.000060
21  11.480929 0.000143 -0.000870  0.161200 -0.057177 -0.072645
22  6.027523 -0.000330 0.000207  -2.734309 -1.145236 0.306432
23  0.000003 11.692098 -0.000006  -1.094714 -0.538378 -0.850072
24  0.000003 0.000008 0.000001  -0.017987 -0.000031 1.570738
25  -0.000001 -0.000006 -0.000001  0.868967 -0.000009 1.570721
26  -6.900235 -7.242955 -0.999741  1.473120 1.855074 -0.198639
27  6.027512 -0.000264 -0.000228  1.686044 0.162193 -0.769022
28  11.691998 0.000244 0.000863  0.400212 0.000057 -1.667323
29  11.479081 -0.000649 0.001168  -1.427407 -0.002457 0.254758
30  3.859438 -0.132761 1.193064  0.406970 -0.281773 -0.608983
31  1.312559 0.000025 -0.000001  -0.000001 -0.000044 -0.148960
32  0.729345 0.000064 -0.000028  -0.000028 -0.000012 0.046463
33  3.942048 0.050136 0.430999  0.121277 -0.118791 -0.520706
34  1.539097 0.000005 -0.000004  0.000006 -0.000010 0.042926
35  1.196301 0.000078 -0.000008  -0.000010 -0.000007 -0.140033
36  3.883414 -0.050476 -0.431085  -0.089867 -0.000697 -0.298017
37  1.719563 -0.000083 -0.000015  -0.002290 -0.007625 -0.075727
38  1.209196 0.000037 0.000007  -0.001278 -0.004275 0.074338
39  3.859587 -0.149084 -1.331321  -0.330199 0.136789 -0.257124
40  1.719411 -0.000095 -0.000048  -0.001918 -0.006299 -0.072274
41  1.099673 0.000026 -0.000002  -0.001198 -0.004013 0.046406
42  0.805983 -0.359848 -1.318337  1.079799 0.646456 -0.910421
43  1.789779 -0.000007 -0.000031  0.011964 0.001551 -0.110982
44  1.206998 -0.000004 0.000014  0.005319 0.005316 0.007332
45  5.740574 0.000121 0.000726  0.027931 -0.000013 0.000032
46  11.480762 0.000007 0.000986  0.030140 -0.018130 0.038917
47  6.027517 -0.000279 -0.000231  -0.193992 -0.577918 -2.232979
48  -0.000000 11.691980 -0.000006  -1.127837 0.571104 0.869184
49  0.000004 -0.000002 0.000003  2.672739 -0.000036 1.570861
50  -0.000006 -0.000015 0.000005  2.272646 -0.000031 1.570865
51  -11.808865 -4.190535 -14.968040  -3.118416 0.045339 -1.542856
52  0.000000 0.000002 0.000001  0.008153 -0.000259 0.000009
53  0.000000 0.000000 -0.000000  1.565115 0.043565 -0.106862
54  8.080192 -7.303195 -19.092953  0.249795 0.030882 -1.508121
55  -0.000000 -0.000000 -0.000000  0.000000 -0.000000 -0.000002
56  0.000030 0.000029 0.000001  -1.571901 -0.044449 -0.106509
57  12.732894 -4.279442 -28.339298  1.570796 -0.000000 0.000000
58  -15.507720 3.551723 -22.549320  1.570796 -0.000000 0.000000
59  2.268188 0.888834 -3.577183  1.570796 -0.000000 0.000000
60  -0.004311 0.001230 -0.000371  0.006898 -0.005534 -0.284228
61  -0.967943 8.355218 -5.501987  1.570796 -0.000000 0.000000
62  0.000000 0.000000 0.000000  -0.078728 -3.136056 0.284225
63  0.031801 0.000000 -0.000718  1.566359 0.002643 -0.002712
64  -1.334998 -25.356445 1.325513  1.578563 0.013564 1.031730
65  -0.039396 -3.107036 0.976860  0.000000 -0.000000 0.000000
66  -0.039395 -0.914783 14.099495  0.000000 -0.000000 0.000000
67  -0.039396 -3.172347 3.170216  0.000000 -0.000000 0.000000
68  -0.039396 -1.229303 3.715100  0.000000 -0.000000 0.000000
69  0.408671 -2.529140 3.193419  0.000000 -0.000000 0.000000
70  -0.039395 0.091155 10.882011  0.000000 -0.000000 0.000000
71  0.872710 0.008025 -1.510463  0.000000 -0.000000 0.000000
72  -0.039398 -0.788819 2.900786  0.000000 -0.000000 0.000000
73  0.595149 -1.458825 1.529925  0.000000 -0.000000 0.000000
74  2.649028 -27.801979 -2.807744  1.578563 0.013564 1.031730
75  -0.075786 2.864367 -0.991289  0.000000 -0.000000 0.000000
76  -0.163941 2.611657 -0.991288  0.000000 -0.000000 0.000000
time 7
0  0.031807 0.000000 -0.000718  -1.570800 -1.391899 -1.570792
1  -3.676403 -0.238821 2.232071  -1.544956 -1.855077 -0.198630
2  6.027517 -0.000325 0.000206  -0.952843 0.130356 -0.868294
3  11.692104 0.000483 -0.000739  -0.887084 -0.000030 -1.439634
4  11.479645 0.000139 -0.000989  2.323727 -0.312697 -0.364993
5  3.859503 -0.142876 -1.192065  -0.462571 0.168923 -0.845211
6  1.312587 0.000014 0.000006  -0.000028 0.000045 -0.439735
7  0.729355 0.000051 0.000049  0.000017 0.000021 -0.244319
8  3.942140 0.046276 -0.431529  -0.148893 0.079014 -0.772693
9  1.539110 0.000082 -0.000002  -0.000007 0.000021 -0.247842
10  1.196335 0.000146 0.000023  0.000010 0.000019 -0.430771
11  3.883505 -0.047266 0.431365  0.086675 0.018514 -0.549330
12  1.719572 -0.000026 0.000012  0.000014 0.005518 -0.366532
13  1.209179 0.000092 0.000006  0.000003 0.003092 -0.216438
14  4.085226 -0.082712 1.151024  0.352670 -0.056134 -0.495424
15  1.719449 -0.000012 0.000019  0.000028 0.004067 -0.363021
16  1.099674 0.000048 -0.000000  0.000002 0.002578 -0.244381
17  0.813414 -1.094496 1.058672  -1.171279 -0.680434 -0.781064
18  1.789820 -0.000006 -0.000015  0.003161 0.000545 0.292030
19  1.207014 -0.000014 -0.000043  -0.000163 -0.000380 0.307762
20  5.740635 0.000364 -0.000696  0.182050 0.000003 0.000060
21  11.480937 0.000158 -0.000851  0.144917 -0.058545 -0.052066
22  6.027523 -0.000330 0.000207  -2.655726 -1.288553 0.233090
23  0.000003 11.692098 -0.000007  -0.993582 -0.442924 -0.787194
24  0.000003 0.000007 -0.000001  -0.017987 -0.000031 1.570738
25  -0.000001 -0.000007 -0.000002  0.868967 -0.000009 1.570721
26  -7.524816 -6.725325 -1.391983  1.473120 1.855074 -0.198639
27  6.027511 -0.000262 -0.000228  1.649467 0.082111 -0.781155
28  11.691998 0.000245 0.000862  0.499910 0.000049 -1.557570
29  11.479839 -0.000169 0.001030  -1.615111 -0.025835 0.192603
30  3.859439 -0.132762 1.193068  0.406970 -0.281773 -0.608983
31  1.312559 0.000025 -0.000001  -0.000001 -0.000045 -0.148960
32  0.729346 0.000068 -0.000028  -0.000028 -0.000012 0.046463
33  3.942048 0.050134 0.431000  0.121277 -0.118791 -0.520706
34  1.539097 0.000008 -0.000005  0.000006 -0.000010 0.042926
35  1.196300 0.000079 -0.000007  -0.000010 -0.000007 -0.140033
36  3.883415 -0.050477 -0.431082  -0.089867 -0.000697 -0.298017
37  1.719565 -0.000081 -0.000016  -0.002290 -0.007625 -0.075727
38  1.209198 0.000034 0.000005  -0.001278 -0.004275 0.074338
39  3.859588 -0.149086 -1.331319  -0.330199 0.136789 -0.257124
40  1.719410 -0.000096 -0.000048  -0.001918 -0.006299 -0.072274
41  1.099673 0.000026 -0.000001  -0.001198 -0.004013 0.046406
42  0.805983 -0.359850 -1.318337  1.079799 0.646456 -0.910421
43  1.789781 -0.000008 -0.000029  0.011964 0.001551 -0.110982
44  1.206997 -0.000004 0.000014  0.005319 0.005316 0.007332
45  5.740575 0.000117 0.000726  -0.007097 -0.000013 0.000032
46  11.480915 0.000102 0.000958  -0.007222 -0.027474 0.028753
47  6.027516 -0.000278 -0.000229  -0.100983 -0.620767 -2.293155
48  -0.000001 11.691983 -0.000008  -1.063402 0.508108 0.831415
49  0.000005 -0.000002 0.000001  2.772438 -0.000036 1.570861
50  -0.000006 -0.000013 0.000004  2.272646 -0.000031 1.570865
51  -12.864817 -3.908982 -17.864368  -0.049943 2.973495 1.588403
52  -0.000000 0.000001 0.000001  0.008153 -0.000259 0.000009
53  0.000000 -0.000001 0.000003  1.565115 0.043565 -0.106862
54  7.772721 -6.544418 -21.037706  0.290339 0.308140 -1.594669
55  0.000001 0.000001 -0.000001  0.000000 -0.000000 -0.000002
56  0.000032 0.000030 0.000000  -1.571901 -0.044449 -0.106509
57  13.211926 -3.593648 -30.477013  1.570796 -0.000000 0.000000
58  -15.456890 3.295393 -22.869183  1.570796 -0.000000 0.000000
59  2.268188 0.888834 -3.577183  1.570796 -0.000000 0.000000
60  -0.004311 0.001230 -0.000371  0.006898 -0.005534 -0.284228
61  -1.360187 7.956989 -6.208708  1.570796 -0.000000 0.000000
62  0.000000 0.000000 0.000000  -0.078728 -3.136056 0.284225
63  0.031801 0.000000 -0.000718  1.567917 0.001717 -0.001759
64  -1.135838 -28.797140 1.987196  1.576328 0.007610 1.248862
65  -0.039399 -3.107036 0.976861  -0.000000 -0.000000 0.000000
66  -0.039397 -0.914783 14.099495  -0.000000 -0.000000 0.000000
67  -0.039397 -3.172347 3.170215  -0.000000 -0.000000 0.000000
68  -0.039399 -1.229303 3.715101  -0.000000 -0.000000 0.000000
69  0.408668 -2.529140 3.193419  -0.000000 -0.000000 0.000000
70  -0.039399 0.091155 10.882012  -0.000000 -0.000000 0.000000
71  0.872716 0.008025 -1.510463  -0.000000 -0.000000 0.000000
72  -0.039399 -0.788819 2.900787  -0.000000 -0.000000 0.000000
73  0.595147 -1.458825 1.529925  -0.000000 -0.000000 0.000000
74  3.298049 -30.306467 -2.135848  1.576328 0.007610 1.248862
75  -0.075784 2.864367 -0.991286  -0.000000 -0.000000 0.000000
76  -0.163938 2.611657 -0.991286  -0.000000 -0.000000 0.000000
time 8
0  0.031807 0.000000 -0.000718  -1.570800 -1.391899 -1.570792
1  -3.676403 -0.238821 2.232071  -1.544956 -1.855077 -0.198630
2  6.027517 -0.000325 0.000206  -0.823501 0.070916 -0.882568
3  11.692105 0.000483 -0.000738  -0.887078 -0.000021 -1.284018
4  11.480629 0.000478 -0.000573  2.213274 -0.358078 -0.231659
5  3.859504 -0.142875 -1.192064  -0.466812 0.155950 -0.871433
6  1.312590 0.000016 0.000002  -0.000028 0.000045 -0.439735
7  0.729354 0.000050 0.000046  0.000017 0.000021 -0.244319
8  3.942142 0.046278 -0.431526  -0.151097 0.074688 -0.801399
9  1.539111 0.000083 -0.000000  -0.000007 0.000021 -0.247842
10  1.196334 0.000150 0.000022  0.000010 0.000019 -0.430771
11  3.883507 -0.047265 0.431366  0.086105 0.021012 -0.578174
12  1.719573 -0.000025 0.000010  0.000014 0.005518 -0.366532
13  1.209178 0.000091 0.000006  0.000003 0.003092 -0.216438
14  4.085228 -0.082711 1.151025  0.354060 -0.046116 -0.522617
15  1.719450 -0.000012 0.000020  0.000028 0.004067 -0.363021
16  1.099674 0.000048 0.000005  0.000002 0.002578 -0.244381
17  0.813417 -1.094494 1.058674  -1.208753 -0.679524 -0.787246
18  1.789821 -0.000008 -0.000016  0.000843 0.000146 0.245367
19  1.207013 -0.000014 -0.000044  -0.000044 -0.000106 0.348289
20  5.740636 0.000363 -0.000698  0.168454 0.000003 0.000060
21  11.481135 0.000228 -0.000767  0.124854 -0.058185 -0.028381
22  6.027523 -0.000330 0.000207  -2.611621 -1.430017 0.162570
23  0.000002 11.692099 -0.000006  -0.899617 -0.361426 -0.723443
24  0.000003 0.000006 0.000001  -0.017986 -0.000031 1.570738
25  -0.000002 -0.000007 -0.000002  0.868967 -0.000009 1.570721
26  -8.002340 -6.329568 -1.691873  1.473120 1.855074 -0.198639
27  6.027510 -0.000263 -0.000231  1.351057 0.078335 -0.715920
28  11.691997 0.000245 0.000864  0.575440 0.000029 -1.260914
29  11.480660 0.000360 0.000742  -1.769660 0.105994 0.040178
30  3.859437 -0.132761 1.193065  0.406970 -0.281773 -0.608983
31  1.312560 0.000025 -0.000002  -0.000001 -0.000044 -0.148960
32  0.729346 0.000065 -0.000028  -0.000028 -0.000012 0.046463
33  3.942047 0.050135 0.431000  0.121277 -0.118791 -0.520706
34  1.539095 0.000008 -0.000004  0.000006 -0.000010 0.042926
35  1.196301 0.000077 -0.000004  -0.000010 -0.000007 -0.140033
36  3.883413 -0.050476 -0.431084  -0.089867 -0.000696 -0.298017
37  1.719563 -0.000081 -0.000015  -0.002290 -0.007625 -0.075727
38  1.209198 0.000035 0.000005  -0.001278 -0.004275 0.074338
39  3.859587 -0.149086 -1.331321  -0.330199 0.136789 -0.257124
40  1.719409 -0.000097 -0.000049  -0.001918 -0.006299 -0.072274
41  1.099672 0.000024 -0.000002  -0.001198 -0.004013 0.046406
42  0.805983 -0.359848 -1.318338  1.079799 0.646456 -0.910421
43  1.789780 -0.000005 -0.000031  0.011964 0.001552 -0.110982
44  1.206997 -0.000001 0.000014  0.005319 0.005316 0.007332
45  5.740575 0.000120 0.000725  -0.039924 -0.000013 0.000032
46  11.481079 0.000210 0.000901  -0.040658 -0.001863 0.002194
47  6.027515 -0.000278 -0.000230  -0.129059 -0.917568 -2.184082
48  -0.000001 11.691978 -0.000007  -0.885405 0.349790 0.713494
49  0.000004 -0.000002 0.000001  2.847979 -0.000036 1.570861
50  -0.000006 -0.000014 0.000005  2.272646 -0.000031 1.570865
51  -12.860301 -3.341794 -22.613777  -0.279952 2.721239 1.535079
52  -0.000000 -0.000000 0.000000  0.008153 -0.000259 0.000009
53  -0.000001 0.000000 -0.000000  1.565115 0.043565 -0.106862
54  7.199949 -6.048679 -22.472408  0.289915 0.557251 -1.677157
55  0.000001 0.000000 0.000003  -0.000000 -0.000000 -0.000002
56  0.000031 0.000028 0.000003  -1.571902 -0.044449 -0.106509
57  13.578171 -3.069322 -32.111412  1.570796 -0.000000 0.000000
58  -15.418028 3.099414 -23.113739  1.570796 -0.000000 0.000000
59  2.268188 0.888834 -3.577183  1.570796 -0.000000 0.000000
60  -0.004311 0.001230 -0.000371  0.006898 -0.005534 -0.284228
61  -1.660077 7.652522 -6.749034  1.570796 -0.000000 0.000000
62  0.000000 0.000000 0.000000  -0.078728 -3.136056 0.284225
63  0.031801 0.000000 -0.000718  1.569347 0.000865 -0.000885
64  -0.971823 -31.630651 2.532111  1.573693 0.003342 1.419971
65  -0.039399 -3.107036 0.976860  0.000000 -0.000000 0.000000
66  -0.039397 -0.914784 14.099496  0.000000 -0.000000 0.000000
67  -0.039400 -3.172347 3.170215  0.000000 -0.000000 0.000000
68  -0.039398 -1.229303 3.715101  0.000000 -0.000000 0.000000
69  0.408668 -2.529140 3.193419  0.000000 -0.000000 0.000000
70  -0.039396 0.091155 10.882012  0.000000 -0.000000 0.000000
71  0.872711 0.008025 -1.510462  0.000000 -0.000000 0.000000
72  -0.039400 -0.788819 2.900786  0.000000 -0.000000 0.000000
73  0.595147 -1.458825 1.529925  0.000000 -0.000000 0.000000
74  3.667690 -32.347149 -1.578663  1.573693 0.003342 1.419971
75  -0.075788 2.864367 -0.991286  0.000000 -0.000000 0.000000
76  -0.163938 2.611657 -0.991286  0.000000 -0.000000 0.000000
time 9
0  0.031807 0.000000 -0.000718  -1.570800 -1.391899 -1.570792
1  -3.676403 -0.238821 2.232071  -1.544956 -1.855077 -0.198630
2  6.027517 -0.000325 0.000205  -0.747568 0.028427 -0.912132
3  11.692104 0.000483 -0.000740  -0.887073 -0.000016 -1.179661
4  11.480305 0.000399 -0.000668  2.130719 -0.368042 -0.129034
5  3.859503 -0.142877 -1.192067  -0.468166 0.151540 -0.880272
6  1.312590 0.000017 0.000005  -0.000028 0.000045 -0.439735
7  0.729355 0.000054 0.000048  0.000017 0.000021 -0.244319
8  3.942140 0.046276 -0.431531  -0.151814 0.073211 -0.811098
9  1.539109 0.000084 -0.000001  -0.000007 0.000020 -0.247842
10  1.196332 0.000146 0.000023  0.000010 0.000019 -0.430771
11  3.883506 -0.047266 0.431363  0.085896 0.021852 -0.587925
12  1.719573 -0.000025 0.000010  0.000014 0.005518 -0.366532
13  1.209178 0.000089 0.000005  0.000003 0.003092 -0.216438
14  4.085227 -0.082712 1.151022  0.354467 -0.042722 -0.531803
15  1.719448 -0.000012 0.000020  0.000028 0.004067 -0.363021
16  1.099673 0.000049 0.000001  0.000002 0.002578 -0.244381
17  0.813414 -1.094496 1.058672  -1.222691 -0.679189 -0.788883
18  1.789821 -0.000002 -0.000016  0.000011 -0.000024 0.228522
19  1.207012 -0.000012 -0.000046  0.000002 -0.000008 0.362857
20  5.740635 0.000363 -0.000701  0.153024 0.000003 0.000060
21  11.481070 0.000212 -0.000787  0.110920 -0.054716 -0.011528
22  6.027523 -0.000330 0.000207  -2.584040 -1.516909 0.101765
23  0.000002 11.692099 -0.000007  -0.835097 -0.310053 -0.677306
24  0.000002 0.000006 -0.000001  -0.017987 -0.000031 1.570738
25  -0.000001 -0.000007 -0.000002  0.868967 -0.000009 1.570721
26  -8.296031 -6.086167 -1.876314  1.473120 1.855074 -0.198639
27  6.027508 -0.000261 -0.000230  0.941160 0.251964 -0.727620
28  11.691993 0.000246 0.000859  0.621480 0.000005 -0.814310
29  11.479956 0.000280 0.000810  -1.720916 0.272453 -0.092764
30  3.859438 -0.132764 1.193064  0.406970 -0.281773 -0.608983
31  1.312560 0.000028 -0.000001  -0.000001 -0.000044 -0.148960
32  0.729346 0.000066 -0.000027  -0.000028 -0.000012 0.046463
33  3.942048 0.050134 0.430997  0.121277 -0.118791 -0.520706
34  1.539095 0.000008 -0.000007  0.000006 -0.000010 0.042926
35  1.196300 0.000077 -0.000008  -0.000010 -0.000007 -0.140033
36  3.883416 -0.050478 -0.431084  -0.089867 -0.000696 -0.298017
37  1.719566 -0.000080 -0.000014  -0.002290 -0.007625 -0.075727
38  1.209197 0.000033 0.000005  -0.001278 -0.004275 0.074338
39  3.859587 -0.149086 -1.331320  -0.330199 0.136789 -0.257124
40  1.719411 -0.000094 -0.000047  -0.001918 -0.006299 -0.072274
41  1.099672 0.000022 -0.000001  -0.001198 -0.004013 0.046405
42  0.805984 -0.359849 -1.318338  1.079799 0.646456 -0.910421
43  1.789780 -0.000010 -0.000029  0.011964 0.001551 -0.110982
44  1.206997 -0.000003 0.000014  0.005319 0.005316 0.007332
45  5.740574 0.000121 0.000729  -0.057720 -0.000013 0.000032
46  11.480938 0.000193 0.000917  -0.030250 0.033432 -0.023292
47  6.027516 -0.000276 -0.000229  -0.826539 -1.225111 -1.502366
48  -0.000003 11.691978 -0.000005  -0.596975 0.155274 0.495226
49  -0.000000 -0.000003 -0.000001  2.894043 -0.000036 1.570861
50  -0.000007 -0.000015 0.000005  2.272646 -0.000031 1.570865
51  -12.327066 -2.806958 -26.822996  -0.551569 2.508569 1.416569
52  -0.000000 -0.000000 -0.000002  0.008153 -0.000259 0.000009
53  0.000000 -0.000001 -0.000001  1.565115 0.043565 -0.106862
54  6.706347 -5.798189 -23.287457  0.268163 0.715292 -1.741352
55  -0.000002 -0.000000 0.000000  0.000000 -0.000000 -0.000002
56  0.000028 0.000028 0.000001  -1.571901 -0.044449 -0.106509
57  13.803421 -2.746846 -33.116608  1.570796 -0.000000 0.000000
58  -15.394127 2.978882 -23.264145  1.570796 -0.000000 0.000000
59  2.268188 0.888834 -3.577183  1.570796 -0.000000 0.000000
60  -0.004311 0.001230 -0.000371  0.006898 -0.005534 -0.284228
61  -1.844518 7.465266 -7.081349  1.570796 -0.000000 0.000000
62  0.000000 0.000000 0.000000  -0.078728 -3.136056 0.284225
63  0.031801 0.000000 -0.000718  1.570391 0.000242 -0.000247
64  -0.860528 -33.553391 2.901876  1.571609 0.000838 1.531023
65  -0.039398 -3.107035 0.976860  0.000000 0.000000 -0.000000
66  -0.039394 -0.914783 14.099494  0.000000 0.000000 -0.000000
67  -0.039396 -3.172346 3.170214  0.000000 0.000000 -0.000000
68  -0.039398 -1.229303 3.715100  0.000000 0.000000 -0.000000
69  0.408670 -2.529140 3.193418  0.000000 0.000000 -0.000000
70  -0.039397 0.091155 10.882010  0.000000 0.000000 -0.000000
71  0.872712 0.008025 -1.510463  0.000000 0.000000 -0.000000
72  -0.039399 -0.788819 2.900786  0.000000 0.000000 -0.000000
73  0.595146 -1.458825 1.529925  0.000000 0.000000 -0.000000
74  3.838770 -33.741352 -1.199120  1.571609 0.000838 1.531023
75  -0.075788 2.864367 -0.991287  0.000000 0.000000 -0.000000
76  -0.163942 2.611657 -0.991287  0.000000 0.000000 -0.000000
time 10
0  0.031807 0.000000 -0.000718  -1.570800 -1.391899 -1.570792
1  -3.676403 -0.238821 2.232071  -1.544956 -1.855077 -0.198630
2  6.027517 -0.000325 0.000205  -0.724582 0.014551 -0.925441
3  11.692104 0.000484 -0.000739  -0.887071 -0.000014 -1.145019
4  11.480506 0.000464 -0.000590  2.103189 -0.367223 -0.092942
5  3.859503 -0.142876 -1.192067  -0.468166 0.151540 -0.880272
6  1.312589 0.000013 0.000005  -0.000028 0.000045 -0.439736
7  0.729353 0.000053 0.000048  0.000017 0.000021 -0.244319
8  3.942141 0.046275 -0.431529  -0.151814 0.073211 -0.811098
9  1.539110 0.000083 0.000000  -0.000007 0.000020 -0.247842
10  1.196333 0.000146 0.000026  0.000010 0.000019 -0.430771
11  3.883506 -0.047266 0.431365  0.085896 0.021852 -0.587925
12  1.719573 -0.000026 0.000009  0.000014 0.005518 -0.366532
13  1.209178 0.000091 0.000004  0.000003 0.003092 -0.216438
14  4.085228 -0.082712 1.151021  0.354467 -0.042722 -0.531803
15  1.719448 -0.000011 0.000023  0.000028 0.004067 -0.363021
16  1.099673 0.000048 0.000004  0.000002 0.002578 -0.244381
17  0.813415 -1.094496 1.058672  -1.222691 -0.679189 -0.788883
18  1.789821 -0.000003 -0.000016  0.000011 -0.000024 0.228522
19  1.207011 -0.000012 -0.000044  0.000002 -0.000008 0.362857
20  5.740634 0.000363 -0.000696  0.146665 0.000003 0.000060
21  11.481109 0.000226 -0.000769  0.106385 -0.052957 -0.005709
22  6.027523 -0.000330 0.000207  -2.570186 -1.543749 0.074129
23  0.000002 11.692098 -0.000006  -0.813368 -0.293637 -0.661400
24  0.000003 0.000006 0.000000  -0.017987 -0.000031 1.570738
25  -0.000002 -0.000007 -0.000002  0.868967 -0.000009 1.570721
26  -8.393617 -6.005292 -1.937599  1.473120 1.855074 -0.198639
27  6.027510 -0.000262 -0.000231  0.763167 0.350921 -0.816794
28  11.691994 0.000244 0.000861  0.636691 -0.000003 -0.547398
29  11.480383 0.000474 0.000664  -1.666797 0.295141 -0.142130
30  3.859439 -0.132762 1.193064  0.406970 -0.281773 -0.608983
31  1.312562 0.000025 -0.000002  -0.000001 -0.000044 -0.148960
32  0.729347 0.000065 -0.000027  -0.000028 -0.000012 0.046463
33  3.942051 0.050135 0.430999  0.121277 -0.118791 -0.520706
34  1.539097 0.000008 -0.000009  0.000006 -0.000010 0.042926
35  1.196302 0.000078 -0.000006  -0.000010 -0.000007 -0.140033
36  3.883415 -0.050476 -0.431085  -0.089867 -0.000697 -0.298017
37  1.719566 -0.000083 -0.000017  -0.002290 -0.007625 -0.075727
38  1.209199 0.000035 0.000005  -0.001278 -0.004275 0.074338
39  3.859590 -0.149086 -1.331321  -0.330199 0.136789 -0.257124
40  1.719411 -0.000098 -0.000049  -0.001918 -0.006299 -0.072274
41  1.099676 0.000022 -0.000003  -0.001198 -0.004013 0.046406
42  0.805984 -0.359848 -1.318338  1.079799 0.646456 -0.910421
43  1.789780 -0.000008 -0.000030  0.011964 0.001551 -0.110982
44  1.206997 -0.000005 0.000014  0.005319 0.005316 0.007332
45  5.740574 0.000119 0.000727  -0.049003 -0.000013 0.000032
46  11.481023 0.000232 0.000887  -0.018798 0.038257 -0.034809
47  6.027517 -0.000277 -0.000230  -1.404939 -1.214844 -0.993558
48  -0.000001 11.691978 -0.000007  -0.409884 0.072127 0.343612
49  0.000004 -0.000001 -0.000001  2.909272 -0.000036 1.570860
50  -0.000005 -0.000015 0.000004  2.272646 -0.000031 1.570865
51  -12.048293 -2.607073 -28.355648  -0.668265 2.441716 1.352336
52  0.000002 0.000001 -0.000004  0.008153 -0.000259 0.000009
53  0.000002 0.000001 0.000000  1.565115 0.043565 -0.106862
54  6.518768 -5.729949 -23.532936  0.255881 0.766400 -1.766008
55  0.000001 -0.000001 0.000000  0.000000 -0.000000 -0.000002
56  0.000030 0.000028 0.000000  -1.571901 -0.044449 -0.106509
57  13.878266 -2.639697 -33.450611  1.570796 -0.000000 0.000000
58  -15.386185 2.938832 -23.314121  1.570796 -0.000000 0.000000
59  2.268188 0.888834 -3.577183  1.570796 -0.000000 0.000000
60  -0.004311 0.001230 -0.000371  0.006898 -0.005534 -0.284228
61  -1.905803 7.403047 -7.191769  1.570796 -0.000000 0.000000
62  0.000000 0.000000 0.000000  -0.078728 -3.136056 0.284225
63  0.031801 0.000000 -0.000718  1.570796 -0.000000 0.000000
64  -0.819524 -34.261765 3.038105  1.570796 -0.000000 1.570796
65  -0.039402 -3.107036 0.976860  0.000000 -0.000000 0.000000
66  -0.039399 -0.914783 14.099496  0.000000 -0.000000 0.000000
67  -0.039398 -3.172347 3.170215  0.000000 -0.000000 0.000000
68  -0.039401 -1.229303 3.715100  0.000000 -0.000000 0.000000
69  0.408669 -2.529140 3.193419  0.000000 -0.000000 0.000000
70  -0.039400 0.091155 10.882011  0.000000 -0.000000 0.000000
71  0.872709 0.008025 -1.510461  0.000000 -0.000000 0.000000
72  -0.039402 -0.788819 2.900786  0.000000 -0.000000 0.000000
73  0.595146 -1.458825 1.529925  0.000000 -0.000000 0.000000
74  3.886863 -34.259285 -1.059069  1.570796 -0.000000 1.570796
75  -0.075786 2.864367 -0.991287  0.000000 -0.000000 0.000000
76  -0.163940 2.611657 -0.991286  0.000000 -0.000000 0.000000
end
