version 1
nodes
0 "ValveBiped.Bip01_Spine4" -1
1 "ValveBiped.Bip01_L_Clavicle" 0
2 "ValveBiped.Bip01_L_UpperArm" 1
3 "ValveBiped.Bip01_L_Forearm" 2
4 "ValveBiped.Bip01_L_Hand" 3
5 "ValveBiped.Bip01_L_Finger4" 4
6 "ValveBiped.Bip01_L_Finger41" 5
7 "ValveBiped.Bip01_L_Finger42" 6
8 "ValveBiped.Bip01_L_Finger3" 4
9 "ValveBiped.Bip01_L_Finger31" 8
10 "ValveBiped.Bip01_L_Finger32" 9
11 "ValveBiped.Bip01_L_Finger2" 4
12 "ValveBiped.Bip01_L_Finger21" 11
13 "ValveBiped.Bip01_L_Finger22" 12
14 "ValveBiped.Bip01_L_Finger1" 4
15 "ValveBiped.Bip01_L_Finger11" 14
16 "ValveBiped.Bip01_L_Finger12" 15
17 "ValveBiped.Bip01_L_Finger0" 4
18 "ValveBiped.Bip01_L_Finger01" 17
19 "ValveBiped.Bip01_L_Finger02" 18
20 "ValveBiped.Bip01_L_Ulna" 3
21 "ValveBiped.Bip01_L_Wrist" 3
22 "rig_l_upperarm" 1
23 "rig_l_forearm" 22
24 "rig_d_l_forearm" 23
25 "rig_d_l_upperarm" 22
26 "ValveBiped.Bip01_R_Clavicle" 0
27 "ValveBiped.Bip01_R_UpperArm" 26
28 "ValveBiped.Bip01_R_Forearm" 27
29 "ValveBiped.Bip01_R_Hand" 28
30 "ValveBiped.Bip01_R_Finger4" 29
31 "ValveBiped.Bip01_R_Finger41" 30
32 "ValveBiped.Bip01_R_Finger42" 31
33 "ValveBiped.Bip01_R_Finger3" 29
34 "ValveBiped.Bip01_R_Finger31" 33
35 "ValveBiped.Bip01_R_Finger32" 34
36 "ValveBiped.Bip01_R_Finger2" 29
37 "ValveBiped.Bip01_R_Finger21" 36
38 "ValveBiped.Bip01_R_Finger22" 37
39 "ValveBiped.Bip01_R_Finger1" 29
40 "ValveBiped.Bip01_R_Finger11" 39
41 "ValveBiped.Bip01_R_Finger12" 40
42 "ValveBiped.Bip01_R_Finger0" 29
43 "ValveBiped.Bip01_R_Finger01" 42
44 "ValveBiped.Bip01_R_Finger02" 43
45 "ValveBiped.Bip01_R_Ulna" 28
46 "ValveBiped.Bip01_R_Wrist" 28
47 "rig_r_upperarm" 26
48 "rig_r_forearm" 47
49 "rig_d_r_forearm" 48
50 "rig_d_r_upperarm" 47
51 "rig_r_hand" -1
52 "rig_d_r_hand" 51
53 "rig_d_r_wrist" 52
54 "rig_l_hand" -1
55 "rig_d_l_hand" 54
56 "rig_d_l_wrist" 54
57 "rig_l_pole" -1
58 "rig_r_pole" -1
59 "rig_l_clavicle" -1
60 "rig_d_l_clavicle" 59
61 "rig_r_clavicle" -1
62 "rig_d_r_clavicle" 61
63 "Camera" -1
64 "body" -1
65 "trigger" 64
66 "barrel" 64
67 "magrel" 64
68 "bullet1" 64
69 "magrel2" 64
70 "chandle2" 64
71 "chandle" 70
72 "bolt" 64
73 "boltrelease" 64
74 "mag" -1
75 "bullet2" 74
76 "bullet3" 74
end
skeleton
time 0
0  0.031807 0.000000 -0.000718  -1.570800 -1.391899 -1.570792
1  -3.676403 -0.238821 2.232071  -1.544956 -1.855077 -0.198630
2  6.027521 -0.000327 0.000200  -0.762501 -0.921961 -1.485931
3  11.692101 0.000482 -0.000739  -0.887084 -0.000031 -1.455076
4  11.479372 0.000035 -0.001120  1.201420 -0.697278 0.246214
5  3.859502 -0.142876 -1.192065  -0.598621 -0.264961 -1.712884
6  1.312590 0.000014 0.000005  -0.134462 -0.003724 -0.161308
7  0.729354 0.000052 0.000047  -0.005670 -0.010354 -0.210237
8  3.942141 0.046276 -0.431528  -0.482643 0.151393 -1.222371
9  1.539110 0.000082 -0.000000  -0.025938 -0.070135 -0.753602
10  1.196333 0.000144 0.000024  0.006041 0.002733 -0.689806
11  3.883505 -0.047266 0.431365  -0.291473 0.426599 -0.690305
12  1.719573 -0.000025 0.000010  0.002873 -0.110645 -1.064509
13  1.209178 0.000090 0.000007  -0.006934 -0.005858 -0.745304
14  4.085227 -0.082712 1.151024  -0.152788 0.511631 -0.407825
15  1.719448 -0.000013 0.000018  -0.018931 -0.027158 -0.352872
16  1.099675 0.000048 0.000003  -0.067217 0.033277 -1.489989
17  1.004893 -1.429782 1.158624  -1.212091 -0.479780 -0.146517
18  1.789818 -0.000004 -0.000017  0.000001 -0.000027 0.636396
19  1.207014 -0.000013 -0.000043  0.000006 -0.000006 -0.137934
20  5.740635 0.000365 -0.000700  -0.129248 0.000003 0.000060
21  11.480880 0.000145 -0.000875  -0.048285 -0.125074 0.011242
22  6.027523 -0.000330 0.000207  1.616741 -0.647515 1.579566
23  0.000001 11.692097 -0.000007  -1.002785 -0.451303 -0.793184
24  0.000004 0.000008 0.000000  -0.017987 -0.000031 1.570738
25  -0.000001 -0.000007 -0.000002  0.868967 -0.000009 1.570721
26  -3.991760 -9.653395 0.826810  1.473120 1.855074 -0.198639
27  6.027513 -0.000263 -0.000225  1.370750 0.658094 -0.778435
28  11.691998 0.000244 0.000862  -0.063525 0.000058 -1.690209
29  11.478688 -0.001356 0.000740  -0.952093 0.405527 0.799875
30  3.859438 -0.132763 1.193064  0.467771 0.012166 -2.080742
31  1.312559 0.000026 -0.000002  -0.002591 -0.086818 -0.325533
32  0.729345 0.000065 -0.000028  -0.149107 -0.099773 -0.829530
33  3.942048 0.050135 0.430999  0.236316 -0.061191 -1.662361
34  1.539097 0.000007 -0.000005  0.035034 -0.043250 -1.002024
35  1.196300 0.000077 -0.000007  -0.022154 0.002073 -0.844399
36  3.883413 -0.050476 -0.431085  0.224120 -0.254107 -1.343752
37  1.719564 -0.000081 -0.000014  0.017488 -0.103675 -1.461475
38  1.209198 0.000036 0.000005  -0.001906 0.071048 -0.519937
39  3.859587 -0.149085 -1.331321  -0.234739 -0.085619 -0.328881
40  1.719411 -0.000096 -0.000048  -0.017561 -0.003272 -1.414777
41  1.099673 0.000025 -0.000002  -0.050784 0.060036 -0.681196
42  0.805983 -0.359849 -1.318338  0.991673 0.166770 -0.799523
43  1.789781 -0.000008 -0.000030  0.000056 -0.002451 0.133096
44  1.206997 -0.000004 0.000014  0.000370 -0.000069 1.058782
45  5.740575 0.000118 0.000727  0.160909 -0.000013 0.000032
46  11.480684 -0.000134 0.000902  0.091921 0.097645 0.117644
47  6.027516 -0.000277 -0.000232  -0.894729 -0.669648 -1.690767
48  0.000000 11.691981 -0.000007  -1.141245 0.584495 0.876635
49  0.000004 -0.000004 0.000000  2.209001 -0.000036 1.570861
50  -0.000006 -0.000014 0.000004  2.272646 -0.000031 1.570865
51  -3.186544 -4.722886 -7.284200  -0.063314 -3.036520 1.365925
52  -0.000001 0.000000 0.000000  0.008153 -0.000259 0.000009
53  -0.000000 -0.000000 0.000000  1.565115 0.043565 -0.106862
54  -0.457573 -14.213406 -5.269318  -0.844930 -0.149814 -1.862444
55  -0.000001 -0.000000 0.000000  0.000000 -0.000000 -0.000002
56  0.000029 0.000029 0.000001  -1.571902 -0.044449 -0.106509
57  10.502192 -7.472973 -18.384617  1.570796 -0.000000 0.000000
58  -15.744420 4.745377 -21.059811  1.570796 -0.000000 0.000000
59  2.268188 0.888834 -3.577183  1.570796 -0.000000 0.000000
60  -0.004311 0.001230 -0.000371  0.006898 -0.005534 -0.284228
61  0.858610 10.209643 -2.211006  1.570796 -0.000000 0.000000
62  0.000000 0.000000 0.000000  -0.078728 -3.136056 0.284225
63  -2.323334 -2.221693 -0.426911  1.570796 -0.000000 0.000000
64  -2.283938 -8.962564 -1.827213  1.570796 -0.000000 0.000000
65  -0.039397 -3.107036 0.976860  0.398200 -0.000000 0.000000
66  -0.039395 -0.914783 14.099495  0.000000 -0.000000 0.000000
67  -0.039396 -3.172346 3.170215  0.000000 -0.000000 0.000000
68  -0.039397 -1.229303 3.715100  0.000000 -0.000000 0.000000
69  0.408672 -2.529140 3.193419  0.000000 -0.000000 0.000000
70  -0.039396 0.091155 10.882011  0.000000 -0.000000 0.000000
71  0.872713 0.008025 -1.510462  0.000000 -0.000000 0.000000
72  -0.039397 -0.788819 2.900786  0.000000 -0.000000 0.000000
73  0.595149 -1.458825 1.529925  0.000000 -0.000000 0.000000
74  -2.281458 -13.668951 -5.924387  1.570796 -0.000000 0.000000
75  -0.168163 2.614667 -0.991286  0.000000 -0.000000 0.000000
76  0.085124 2.434092 -0.991286  0.000000 -0.000000 0.000000
time 1
0  0.031807 0.000000 -0.000718  -1.570800 -1.391899 -1.570792
1  -3.676403 -0.238821 2.232071  -1.544956 -1.855077 -0.198630
2  6.027521 -0.000327 0.000200  -0.761159 -0.903411 -1.469995
3  11.692103 0.000481 -0.000739  -0.887086 -0.000035 -1.510650
4  11.480383 0.000359 -0.000724  1.193805 -0.731874 0.253746
5  3.859503 -0.142875 -1.192066  -0.598621 -0.264961 -1.712884
6  1.312588 0.000015 0.000006  -0.134462 -0.003724 -0.161308
7  0.729354 0.000052 0.000047  -0.005670 -0.010354 -0.210237
8  3.942140 0.046277 -0.431528  -0.482643 0.151393 -1.222371
9  1.539111 0.000080 -0.000001  -0.025938 -0.070135 -0.753602
10  1.196332 0.000146 0.000026  0.006041 0.002733 -0.689806
11  3.883505 -0.047265 0.431364  -0.291473 0.426599 -0.690306
12  1.719573 -0.000026 0.000011  0.002873 -0.110645 -1.064509
13  1.209179 0.000090 0.000005  -0.006934 -0.005858 -0.745304
14  4.085226 -0.082711 1.151023  -0.152788 0.511631 -0.407825
15  1.719447 -0.000012 0.000020  -0.018931 -0.027158 -0.352872
16  1.099675 0.000049 0.000003  -0.067217 0.033278 -1.489989
17  1.004893 -1.429781 1.158624  -1.212091 -0.479780 -0.146517
18  1.789820 -0.000005 -0.000016  0.000001 -0.000027 0.636397
19  1.207017 -0.000013 -0.000042  0.000006 -0.000006 -0.137934
20  5.740636 0.000364 -0.000699  -0.138332 0.000003 0.000060
21  11.481083 0.000210 -0.000796  -0.047816 -0.132110 0.010797
22  6.027523 -0.000330 0.000207  1.617481 -0.666075 1.596112
23  0.000003 11.692097 -0.000006  -1.035763 -0.481858 -0.814231
24  0.000002 0.000006 0.000000  -0.017987 -0.000031 1.570738
25  -0.000001 -0.000007 -0.000001  0.868967 -0.000009 1.570721
26  -3.991760 -9.653395 0.826810  1.473120 1.855074 -0.198639
27  6.027513 -0.000263 -0.000225  1.368158 0.625516 -0.772805
28  11.691998 0.000243 0.000862  -0.063524 0.000062 -1.746893
29  11.480164 -0.000543 0.000792  -0.960597 0.413733 0.819937
30  3.859438 -0.132762 1.193063  0.467771 0.012166 -2.080742
31  1.312559 0.000026 -0.000002  -0.002591 -0.086818 -0.325533
32  0.729346 0.000064 -0.000029  -0.149107 -0.099773 -0.829530
33  3.942047 0.050135 0.430998  0.236316 -0.061191 -1.662361
34  1.539097 0.000007 -0.000005  0.035034 -0.043250 -1.002024
35  1.196301 0.000077 -0.000008  -0.022154 0.002073 -0.844399
36  3.883414 -0.050476 -0.431086  0.224120 -0.254107 -1.343752
37  1.719564 -0.000082 -0.000014  0.017488 -0.103675 -1.461475
38  1.209197 0.000035 0.000005  -0.001906 0.071048 -0.519937
39  3.859588 -0.149085 -1.331321  -0.234739 -0.085619 -0.328881
40  1.719410 -0.000097 -0.000048  -0.017561 -0.003272 -1.414777
41  1.099673 0.000023 -0.000002  -0.050784 0.060037 -0.681195
42  0.805982 -0.359849 -1.318339  0.991673 0.166770 -0.799523
43  1.789780 -0.000008 -0.000030  0.000056 -0.002451 0.133096
44  1.206996 -0.000004 0.000014  0.000370 -0.000069 1.058782
45  5.740575 0.000118 0.000726  0.162377 -0.000013 0.000032
46  11.480980 0.000028 0.000912  0.088949 0.099384 0.121458
47  6.027516 -0.000277 -0.000232  -0.862963 -0.691000 -1.703569
48  -0.000001 11.691981 -0.000007  -1.174464 0.618013 0.894442
49  0.000002 -0.000004 0.000000  2.209001 -0.000036 1.570861
50  -0.000006 -0.000014 0.000004  2.272646 -0.000031 1.570865
51  -3.218911 -4.214553 -7.284229  -0.071014 -3.031257 1.365946
52  0.000000 0.000000 -0.000001  0.008153 -0.000259 0.000009
53  0.000000 -0.000000 -0.000001  1.565115 0.043565 -0.106862
54  -0.480288 -13.700013 -5.258641  -0.852185 -0.155720 -1.862146
55  0.000001 0.000000 0.000000  0.000000 -0.000000 -0.000002
56  0.000031 0.000029 0.000001  -1.571901 -0.044449 -0.106509
57  10.502192 -7.472973 -18.384617  1.570796 -0.000000 0.000000
58  -15.744420 4.745377 -21.059811  1.570796 -0.000000 0.000000
59  2.268188 0.888834 -3.577183  1.570796 -0.000000 0.000000
60  -0.004311 0.001230 -0.000371  0.006898 -0.005534 -0.284228
61  0.858610 10.209643 -2.211006  1.570796 -0.000000 0.000000
62  0.000000 0.000000 0.000000  -0.078728 -3.136056 0.284225
63  -2.323334 -2.221693 -0.426911  1.570796 -0.000000 0.000000
64  -2.272943 -8.435339 -1.819946  1.567196 0.008564 -0.000822
65  -0.039397 -3.107037 0.976858  0.398200 0.000000 0.000000
66  -0.039395 -0.914784 14.099494  0.000000 0.000000 0.000000
67  -0.039396 -3.172347 3.170213  0.000000 0.000000 0.000000
68  -0.039396 -1.229303 3.715098  0.000000 0.000000 0.000000
69  0.408672 -2.529140 3.193417  0.000000 0.000000 0.000000
70  -0.039395 0.091155 10.882010  0.000000 0.000000 0.000000
71  0.872714 0.008025 -1.510465  0.000000 0.000000 0.000000
72  -0.039397 -0.788819 -0.099214  0.000000 0.000000 0.000000
73  0.595149 -1.458825 1.529925  0.000000 0.000000 0.000000
74  -2.309287 -13.156416 -5.900023  1.567196 0.008564 -0.000822
75  -0.168163 2.614667 -0.991287  0.000000 0.000000 0.000000
76  0.085124 2.434091 -0.991288  0.000000 0.000000 0.000000
time 2
0  0.031807 0.000000 -0.000718  -1.570800 -1.391899 -1.570792
1  -3.676403 -0.238821 2.232071  -1.544956 -1.855077 -0.198630
2  6.027521 -0.000327 0.000200  -0.762803 -0.906006 -1.471387
3  11.692103 0.000481 -0.000739  -0.887086 -0.000034 -1.505658
4  11.480420 0.000375 -0.000703  1.196736 -0.727898 0.259694
5  3.859503 -0.142876 -1.192065  -0.598621 -0.264961 -1.712883
6  1.312590 0.000014 0.000004  -0.134462 -0.003724 -0.161308
7  0.729355 0.000052 0.000047  -0.005670 -0.010354 -0.210237
8  3.942140 0.046277 -0.431529  -0.482643 0.151393 -1.222371
9  1.539110 0.000082 -0.000001  -0.025938 -0.070135 -0.753602
10  1.196332 0.000145 0.000025  0.006041 0.002733 -0.689806
11  3.883505 -0.047266 0.431365  -0.291473 0.426599 -0.690305
12  1.719573 -0.000024 0.000010  0.002873 -0.110645 -1.064509
13  1.209179 0.000091 0.000006  -0.006934 -0.005858 -0.745304
14  4.085228 -0.082711 1.151024  -0.152788 0.511631 -0.407825
15  1.719447 -0.000012 0.000021  -0.018931 -0.027158 -0.352872
16  1.099674 0.000050 0.000004  -0.067217 0.033278 -1.489989
17  1.004893 -1.429782 1.158625  -1.212091 -0.479780 -0.146517
18  1.789819 -0.000006 -0.000017  0.000001 -0.000027 0.636397
19  1.207016 -0.000013 -0.000042  0.000006 -0.000006 -0.137934
20  5.740635 0.000364 -0.000698  -0.136390 0.000003 0.000060
21  11.481089 0.000213 -0.000792  -0.047142 -0.131409 0.012288
22  6.027523 -0.000330 0.000207  1.618516 -0.663410 1.592788
23  0.000002 11.692098 -0.000007  -1.032809 -0.479088 -0.812373
24  0.000003 0.000006 -0.000000  -0.017987 -0.000031 1.570738
25  -0.000001 -0.000007 -0.000001  0.868967 -0.000009 1.570721
26  -3.991760 -9.653395 0.826810  1.473120 1.855074 -0.198639
27  6.027513 -0.000263 -0.000225  1.366258 0.630811 -0.774533
28  11.691999 0.000243 0.000861  -0.063524 0.000062 -1.741142
29  11.480213 -0.000507 0.000794  -0.951875 0.414049 0.823373
30  3.859438 -0.132763 1.193064  0.467771 0.012166 -2.080742
31  1.312559 0.000026 -0.000002  -0.002591 -0.086818 -0.325533
32  0.729346 0.000065 -0.000028  -0.149107 -0.099773 -0.829530
33  3.942047 0.050135 0.430999  0.236316 -0.061191 -1.662361
34  1.539097 0.000007 -0.000006  0.035034 -0.043250 -1.002024
35  1.196300 0.000077 -0.000008  -0.022154 0.002073 -0.844399
36  3.883414 -0.050477 -0.431085  0.224120 -0.254107 -1.343752
37  1.719564 -0.000079 -0.000014  0.017488 -0.103675 -1.461474
38  1.209197 0.000035 0.000005  -0.001906 0.071048 -0.519937
39  3.859588 -0.149085 -1.331321  -0.234739 -0.085619 -0.328881
40  1.719410 -0.000097 -0.000048  -0.017561 -0.003272 -1.414777
41  1.099673 0.000025 -0.000001  -0.050784 0.060037 -0.681196
42  0.805982 -0.359849 -1.318338  0.991673 0.166770 -0.799523
43  1.789780 -0.000007 -0.000029  0.000056 -0.002451 0.133096
44  1.206996 -0.000004 0.000014  0.000370 -0.000069 1.058782
45  5.740575 0.000119 0.000727  0.163992 -0.000013 0.000032
46  11.480991 0.000037 0.000912  0.090380 0.100161 0.121629
47  6.027516 -0.000277 -0.000232  -0.869654 -0.689058 -1.699921
48  -0.000000 11.691981 -0.000007  -1.171091 0.614590 0.892678
49  0.000004 -0.000003 0.000000  2.209001 -0.000036 1.570861
50  -0.000006 -0.000015 0.000004  2.272646 -0.000031 1.570865
51  -3.178926 -4.265467 -7.271862  -0.063879 -3.034146 1.364372
52  -0.000000 -0.000000 0.000000  0.008153 -0.000259 0.000009
53  -0.000000 -0.000000 -0.000000  1.565115 0.043565 -0.106862
54  -0.463171 -13.755906 -5.238822  -0.845288 -0.152228 -1.864003
55  0.000001 -0.000000 -0.000000  0.000000 -0.000000 -0.000002
56  0.000031 0.000029 0.000001  -1.571902 -0.044449 -0.106509
57  10.502192 -7.472973 -18.384617  1.570796 -0.000000 0.000000
58  -15.744420 4.745377 -21.059811  1.570796 -0.000000 0.000000
59  2.268188 0.888834 -3.577183  1.570796 -0.000000 0.000000
60  -0.004311 0.001230 -0.000371  0.006898 -0.005534 -0.284228
61  0.858610 10.209643 -2.211006  1.570796 -0.000000 0.000000
62  0.000000 0.000000 0.000000  -0.078728 -3.136056 0.284225
63  -2.323334 -2.221693 -0.426911  1.570796 -0.000000 0.000000
64  -2.277502 -8.494532 -1.806450  1.568586 0.001033 -0.001614
65  -0.039397 -3.107036 0.976860  0.398200 -0.000000 0.000000
66  -0.039395 -0.914783 14.099495  -0.000000 -0.000000 0.000000
67  -0.039396 -3.172347 3.170214  -0.000000 -0.000000 0.000000
68  -0.039396 -1.229303 3.715100  -0.000000 -0.000000 0.000000
69  0.408672 -2.529140 3.193419  -0.000000 -0.000000 0.000000
70  -0.039396 0.091155 10.882011  -0.000000 -0.000000 0.000000
71  0.872713 0.008025 -1.510461  -0.000000 -0.000000 0.000000
72  -0.039397 -0.788819 1.400787  -0.000000 -0.000000 0.000000
73  0.595149 -1.458825 1.529926  -0.000000 -0.000000 0.000000
74  -2.286854 -13.209955 -5.893210  1.568586 0.001033 -0.001614
75  -0.168163 2.614667 -0.991286  -0.000000 -0.000000 0.000000
76  0.085124 2.434091 -0.991286  -0.000000 -0.000000 0.000000
time 3
0  0.031807 0.000000 -0.000718  -1.570800 -1.391899 -1.570792
1  -3.676403 -0.238821 2.232071  -1.544956 -1.855077 -0.198630
2  6.027521 -0.000327 0.000200  -0.765004 -0.910765 -1.474386
3  11.692102 0.000482 -0.000738  -0.887085 -0.000033 -1.492702
4  11.480530 0.000418 -0.000651  1.200425 -0.720265 0.263106
5  3.859505 -0.142875 -1.192065  -0.598621 -0.264961 -1.712884
6  1.312589 0.000015 0.000005  -0.134462 -0.003724 -0.161308
7  0.729355 0.000053 0.000046  -0.005670 -0.010354 -0.210237
8  3.942142 0.046277 -0.431528  -0.482643 0.151393 -1.222371
9  1.539110 0.000081 -0.000001  -0.025938 -0.070135 -0.753602
10  1.196332 0.000144 0.000024  0.006041 0.002733 -0.689806
11  3.883507 -0.047265 0.431365  -0.291473 0.426599 -0.690305
12  1.719573 -0.000025 0.000010  0.002873 -0.110645 -1.064509
13  1.209179 0.000090 0.000007  -0.006934 -0.005858 -0.745304
14  4.085228 -0.082711 1.151024  -0.152788 0.511631 -0.407825
15  1.719448 -0.000011 0.000022  -0.018931 -0.027158 -0.352872
16  1.099674 0.000049 0.000003  -0.067217 0.033278 -1.489989
17  1.004895 -1.429781 1.158625  -1.212090 -0.479780 -0.146517
18  1.789820 -0.000005 -0.000017  0.000001 -0.000027 0.636396
19  1.207016 -0.000013 -0.000042  0.000006 -0.000006 -0.137934
20  5.740635 0.000365 -0.000698  -0.133376 0.000003 0.000060
21  11.481111 0.000222 -0.000782  -0.046626 -0.129926 0.013496
22  6.027523 -0.000330 0.000207  1.619752 -0.658559 1.587296
23  0.000001 11.692097 -0.000007  -1.025136 -0.471923 -0.807521
24  0.000003 0.000007 0.000000  -0.017987 -0.000031 1.570738
25  -0.000002 -0.000007 -0.000001  0.868967 -0.000009 1.570721
26  -3.991760 -9.653395 0.826810  1.473120 1.855074 -0.198639
27  6.027513 -0.000263 -0.000225  1.365889 0.640276 -0.776600
28  11.691998 0.000244 0.000861  -0.063524 0.000061 -1.727060
29  11.480341 -0.000421 0.000799  -0.943710 0.410779 0.822217
30  3.859438 -0.132762 1.193065  0.467771 0.012166 -2.080742
31  1.312559 0.000027 -0.000002  -0.002591 -0.086818 -0.325533
32  0.729345 0.000066 -0.000028  -0.149107 -0.099773 -0.829530
33  3.942048 0.050135 0.430999  0.236316 -0.061191 -1.662361
34  1.539097 0.000008 -0.000004  0.035034 -0.043250 -1.002024
35  1.196300 0.000077 -0.000008  -0.022154 0.002073 -0.844399
36  3.883414 -0.050476 -0.431086  0.224120 -0.254107 -1.343752
37  1.719563 -0.000081 -0.000014  0.017488 -0.103675 -1.461475
38  1.209197 0.000035 0.000004  -0.001906 0.071048 -0.519937
39  3.859589 -0.149086 -1.331321  -0.234739 -0.085619 -0.328881
40  1.719411 -0.000097 -0.000048  -0.017561 -0.003272 -1.414777
41  1.099673 0.000025 -0.000001  -0.050784 0.060036 -0.681196
42  0.805983 -0.359849 -1.318339  0.991673 0.166770 -0.799523
43  1.789780 -0.000008 -0.000029  0.000056 -0.002451 0.133096
44  1.206997 -0.000004 0.000014  0.000370 -0.000069 1.058782
45  5.740573 0.000119 0.000726  0.165070 -0.000013 0.000032
46  11.481014 0.000054 0.000914  0.092192 0.100072 0.121172
47  6.027516 -0.000277 -0.000232  -0.879635 -0.683576 -1.695444
48  -0.000001 11.691982 -0.000006  -1.162836 0.606230 0.888319
49  0.000002 -0.000002 0.000000  2.209001 -0.000036 1.570861
50  -0.000006 -0.000014 0.000005  2.272646 -0.000031 1.570865
51  -3.149676 -4.393301 -7.260362  -0.056995 -3.038204 1.364458
52  -0.000000 -0.000000 -0.000001  0.008153 -0.000259 0.000009
53  0.000000 -0.000000 -0.000000  1.565115 0.043565 -0.106862
54  -0.441524 -13.886757 -5.231279  -0.838747 -0.147591 -1.864169
55  0.000000 -0.000000 0.000000  0.000000 -0.000000 -0.000002
56  0.000031 0.000029 0.000001  -1.571901 -0.044449 -0.106509
57  10.502192 -7.472973 -18.384617  1.570796 -0.000000 0.000000
58  -15.744420 4.745377 -21.059811  1.570796 -0.000000 0.000000
59  2.268188 0.888834 -3.577183  1.570796 -0.000000 0.000000
60  -0.004311 0.001230 -0.000371  0.006898 -0.005534 -0.284228
61  0.858610 10.209643 -2.211006  1.570796 -0.000000 0.000000
62  0.000000 0.000000 0.000000  -0.078728 -3.136056 0.284225
63  -2.323334 -2.221693 -0.426911  1.570796 -0.000000 0.000000
64  -2.285967 -8.635685 -1.799184  1.571164 -0.006496 -0.000811
65  -0.039397 -3.107036 0.976859  0.398200 0.000000 0.000000
66  -0.039395 -0.914783 14.099496  0.000000 0.000000 0.000000
67  -0.039396 -3.172346 3.170214  0.000000 0.000000 0.000000
68  -0.039395 -0.914783 4.985529  0.000000 -0.000000 0.000000
69  0.408672 -2.529140 3.193417  0.000000 0.000000 0.000000
70  -0.039395 0.091155 10.882011  0.000000 0.000000 0.000000
71  0.872713 0.008025 -1.510462  0.000000 0.000000 0.000000
72  -0.039397 -0.788819 2.900786  0.000000 0.000000 0.000000
73  0.595149 -1.458825 1.529924  0.000000 0.000000 0.000000
74  -2.260674 -13.340587 -5.897983  1.571164 -0.006496 -0.000811
75  -0.075784 2.864368 -0.991288  0.000000 0.000000 0.000000
76  -0.163939 2.611658 -0.991288  0.000000 0.000000 0.000000
time 4
0  0.031807 0.000000 -0.000718  -1.570800 -1.391899 -1.570792
1  -3.676403 -0.238821 2.232071  -1.544956 -1.855077 -0.198630
2  6.027521 -0.000327 0.000200  -0.764590 -0.916179 -1.479497
3  11.692103 0.000481 -0.000740  -0.887085 -0.000032 -1.474751
4  11.480684 0.000478 -0.000576  1.200919 -0.710610 0.257042
5  3.859503 -0.142875 -1.192066  -0.598621 -0.264961 -1.712884
6  1.312590 0.000014 0.000005  -0.134462 -0.003724 -0.161308
7  0.729354 0.000051 0.000047  -0.005670 -0.010354 -0.210237
8  3.942139 0.046277 -0.431528  -0.482643 0.151393 -1.222371
9  1.539110 0.000082 -0.000000  -0.025938 -0.070135 -0.753602
10  1.196332 0.000145 0.000024  0.006041 0.002733 -0.689806
11  3.883506 -0.047265 0.431365  -0.291472 0.426599 -0.690305
12  1.719573 -0.000024 0.000009  0.002873 -0.110645 -1.064509
13  1.209179 0.000091 0.000007  -0.006934 -0.005858 -0.745304
14  4.085228 -0.082710 1.151023  -0.152788 0.511631 -0.407825
15  1.719448 -0.000012 0.000020  -0.018931 -0.027158 -0.352872
16  1.099675 0.000049 0.000003  -0.067217 0.033278 -1.489989
17  1.004894 -1.429781 1.158625  -1.212091 -0.479780 -0.146517
18  1.789819 -0.000006 -0.000017  0.000001 -0.000027 0.636397
19  1.207012 -0.000013 -0.000042  0.000006 -0.000006 -0.137934
20  5.740635 0.000364 -0.000699  -0.131296 0.000003 0.000060
21  11.481142 0.000234 -0.000766  -0.047266 -0.127912 0.012754
22  6.027523 -0.000330 0.000207  1.618891 -0.653182 1.583037
23  0.000001 11.692098 -0.000008  -1.014485 -0.462049 -0.800727
24  0.000005 0.000008 -0.000000  -0.017987 -0.000031 1.570738
25  -0.000002 -0.000007 -0.000002  0.868967 -0.000009 1.570721
26  -3.991760 -9.653395 0.826810  1.473120 1.855074 -0.198639
27  6.027513 -0.000263 -0.000225  1.368984 0.649403 -0.777346
28  11.691998 0.000243 0.000860  -0.063525 0.000059 -1.709473
29  11.480506 -0.000309 0.000806  -0.946367 0.405642 0.812879
30  3.859437 -0.132762 1.193063  0.467771 0.012166 -2.080742
31  1.312558 0.000027 -0.000002  -0.002591 -0.086818 -0.325533
32  0.729346 0.000065 -0.000028  -0.149107 -0.099773 -0.829530
33  3.942047 0.050135 0.430999  0.236316 -0.061191 -1.662361
34  1.539097 0.000006 -0.000004  0.035034 -0.043250 -1.002024
35  1.196301 0.000076 -0.000009  -0.022154 0.002073 -0.844399
36  3.883414 -0.050477 -0.431086  0.224120 -0.254107 -1.343752
37  1.719564 -0.000081 -0.000014  0.017488 -0.103675 -1.461475
38  1.209198 0.000035 0.000005  -0.001906 0.071048 -0.519937
39  3.859588 -0.149085 -1.331321  -0.234739 -0.085619 -0.328881
40  1.719410 -0.000097 -0.000049  -0.017561 -0.003272 -1.414777
41  1.099673 0.000024 -0.000002  -0.050784 0.060036 -0.681196
42  0.805983 -0.359849 -1.318339  0.991673 0.166770 -0.799523
43  1.789780 -0.000008 -0.000030  0.000056 -0.002451 0.133096
44  1.206997 -0.000004 0.000013  0.000370 -0.000069 1.058782
45  5.740575 0.000120 0.000727  0.163622 -0.000013 0.000032
46  11.481049 0.000076 0.000915  0.092495 0.098584 0.119840
47  6.027516 -0.000277 -0.000232  -0.887022 -0.676064 -1.693407
48  -0.000002 11.691981 -0.000006  -1.152530 0.595831 0.882792
49  0.000003 -0.000003 0.000001  2.209001 -0.000036 1.570861
50  -0.000007 -0.000015 0.000005  2.272646 -0.000031 1.570865
51  -3.169214 -4.555535 -7.259060  -0.058834 -3.039234 1.366144
52  -0.000001 -0.000000 -0.000000  0.008153 -0.000259 0.000009
53  -0.000000 -0.000000 -0.000000  1.565115 0.043565 -0.106862
54  -0.443657 -14.047716 -5.247389  -0.840679 -0.146724 -1.862389
55  0.000001 0.000000 -0.000000  0.000000 -0.000000 -0.000002
56  0.000031 0.000029 0.000001  -1.571901 -0.044449 -0.106509
57  10.502192 -7.472973 -18.384617  1.570796 -0.000000 0.000000
58  -15.744420 4.745377 -21.059811  1.570796 -0.000000 0.000000
59  2.268188 0.888834 -3.577183  1.570796 -0.000000 0.000000
60  -0.004311 0.001230 -0.000371  0.006898 -0.005534 -0.284228
61  0.858610 10.209643 -2.211006  1.570796 -0.000000 0.000000
62  0.000000 0.000000 0.000000  -0.078728 -3.136056 0.284225
63  -2.323334 -2.221693 -0.426911  1.570796 -0.000000 0.000000
64  -2.290526 -8.804157 -1.805126  1.572546 -0.004916 0.000679
65  -0.039397 -3.107036 0.976859  0.398200 -0.000000 -0.000000
66  -0.039395 -0.914784 14.099494  -0.000000 -0.000000 -0.000000
67  -0.039396 -3.172347 3.170214  -0.000000 -0.000000 -0.000000
68  -0.039396 -0.914783 4.985530  0.000000 -0.000000 0.000000
69  0.408672 -2.529140 3.193417  -0.000000 -0.000000 -0.000000
70  -0.039395 0.091155 10.882011  -0.000000 -0.000000 -0.000000
71  0.872713 0.008025 -1.510466  -0.000000 -0.000000 -0.000000
72  -0.039397 -0.788819 2.900786  -0.000000 -0.000000 -0.000000
73  0.595149 -1.458825 1.529925  -0.000000 -0.000000 -0.000000
74  -2.264675 -13.503351 -5.910464  1.572546 -0.004916 0.000679
75  -0.075783 2.864367 -0.991289  -0.000000 -0.000000 -0.000000
76  -0.163938 2.611657 -0.991287  -0.000000 -0.000000 -0.000000
time 5
0  0.031807 0.000000 -0.000718  -1.570800 -1.391899 -1.570792
1  -3.676403 -0.238821 2.232071  -1.544956 -1.855077 -0.198630
2  6.027521 -0.000327 0.000200  -0.763430 -0.921073 -1.484574
3  11.692102 0.000482 -0.000739  -0.887084 -0.000031 -1.458311
4  11.479225 -0.000024 -0.001190  1.201440 -0.700846 0.248805
5  3.859506 -0.142875 -1.192065  -0.598621 -0.264961 -1.712884
6  1.312590 0.000014 0.000005  -0.134462 -0.003724 -0.161308
7  0.729354 0.000053 0.000049  -0.005670 -0.010354 -0.210237
8  3.942143 0.046277 -0.431528  -0.482643 0.151393 -1.222371
9  1.539110 0.000082 -0.000001  -0.025938 -0.070135 -0.753602
10  1.196333 0.000144 0.000023  0.006041 0.002733 -0.689806
11  3.883508 -0.047265 0.431365  -0.291473 0.426599 -0.690306
12  1.719573 -0.000024 0.000011  0.002873 -0.110645 -1.064509
13  1.209179 0.000092 0.000007  -0.006934 -0.005858 -0.745304
14  4.085229 -0.082711 1.151024  -0.152788 0.511631 -0.407825
15  1.719448 -0.000013 0.000021  -0.018931 -0.027158 -0.352872
16  1.099675 0.000048 0.000003  -0.067217 0.033278 -1.489989
17  1.004895 -1.429781 1.158625  -1.212091 -0.479780 -0.146517
18  1.789819 -0.000005 -0.000017  0.000001 -0.000027 0.636396
19  1.207014 -0.000013 -0.000042  0.000006 -0.000006 -0.137934
20  5.740635 0.000364 -0.000698  -0.129613 0.000003 0.000060
21  11.480849 0.000134 -0.000889  -0.048003 -0.125825 0.011600
22  6.027523 -0.000330 0.000207  1.617529 -0.648358 1.579708
23  0.000002 11.692096 -0.000007  -1.004710 -0.453064 -0.794431
24  0.000004 0.000008 0.000000  -0.017986 -0.000031 1.570738
25  -0.000001 -0.000007 -0.000001  0.868967 -0.000009 1.570721
26  -3.991760 -9.653395 0.826810  1.473120 1.855074 -0.198639
27  6.027513 -0.000263 -0.000225  1.371374 0.656913 -0.777971
28  11.691998 0.000243 0.000861  -0.063525 0.000058 -1.693408
29  11.480657 -0.000205 0.000813  -0.950864 0.403060 0.802137
30  3.859439 -0.132762 1.193065  0.467771 0.012166 -2.080742
31  1.312559 0.000026 -0.000003  -0.002591 -0.086818 -0.325533
32  0.729345 0.000065 -0.000028  -0.149107 -0.099773 -0.829530
33  3.942048 0.050135 0.430999  0.236316 -0.061191 -1.662361
34  1.539097 0.000006 -0.000004  0.035034 -0.043250 -1.002024
35  1.196300 0.000077 -0.000008  -0.022154 0.002073 -0.844399
36  3.883415 -0.050476 -0.431085  0.224120 -0.254107 -1.343752
37  1.719565 -0.000080 -0.000014  0.017488 -0.103675 -1.461475
38  1.209197 0.000036 0.000006  -0.001906 0.071048 -0.519938
39  3.859588 -0.149085 -1.331321  -0.229283 -0.077523 -0.348587
40  1.719411 -0.000097 -0.000048  -0.017916 0.001212 -1.214458
41  1.099673 0.000025 -0.000001  -0.047218 0.061234 -0.656367
42  0.805983 -0.359849 -1.318339  0.991673 0.166770 -0.799523
43  1.789780 -0.000007 -0.000030  0.000056 -0.002451 0.133096
44  1.206996 -0.000005 0.000014  0.000370 -0.000069 1.058782
45  5.740575 0.000118 0.000727  0.161613 -0.000013 0.000032
46  11.481079 0.000096 0.000917  0.092279 0.097376 0.118169
47  6.027516 -0.000277 -0.000232  -0.893152 -0.669980 -1.691663
48  -0.000001 11.691982 -0.000007  -1.143119 0.586374 0.877665
49  0.000003 -0.000001 -0.000000  2.209001 -0.000036 1.570861
50  -0.000007 -0.000014 0.000004  2.272646 -0.000031 1.570865
51  -3.189994 -4.699888 -7.270972  -0.062164 -3.038084 1.367292
52  -0.000000 -0.000000 0.000001  0.008153 -0.000259 0.000009
53  0.000000 0.000000 -0.000000  1.565115 0.043565 -0.106862
54  -0.449805 -14.188952 -5.264484  -0.843915 -0.148157 -1.861108
55  0.000000 -0.000000 0.000000  0.000000 -0.000000 -0.000002
56  0.000030 0.000029 0.000001  -1.571901 -0.044449 -0.106509
57  10.502192 -7.472973 -18.384617  1.570796 -0.000000 0.000000
58  -15.744420 4.745377 -21.059811  1.570796 -0.000000 0.000000
59  2.268188 0.888834 -3.577183  1.570796 -0.000000 0.000000
60  -0.004311 0.001230 -0.000371  0.006898 -0.005534 -0.284228
61  0.858610 10.209643 -2.211006  1.570796 -0.000000 0.000000
62  0.000000 0.000000 0.000000  -0.078728 -3.136056 0.284225
63  -2.323334 -2.221693 -0.426911  1.570796 -0.000000 0.000000
64  -2.288922 -8.945310 -1.818199  1.572094 -0.001438 0.001486
65  -0.039397 -3.107036 0.976860  0.199100 0.000000 -0.000000
66  -0.039395 -0.914783 14.099495  0.000000 0.000000 -0.000000
67  -0.039396 -3.172346 3.170216  0.000000 0.000000 -0.000000
68  -0.039396 -0.914783 4.985530  0.000000 -0.000000 0.000000
69  0.408672 -2.529140 3.193418  0.000000 0.000000 -0.000000
70  -0.039396 0.091155 10.882013  0.000000 0.000000 -0.000000
71  0.872714 0.008025 -1.510461  0.000000 0.000000 -0.000000
72  -0.039397 -0.788819 2.900786  0.000000 0.000000 -0.000000
73  0.595149 -1.458825 1.529926  0.000000 0.000000 -0.000000
74  -2.273556 -13.646358 -5.921469  1.572094 -0.001438 0.001486
75  -0.075784 2.864367 -0.991287  0.000000 0.000000 -0.000000
76  -0.163939 2.611658 -0.991286  0.000000 0.000000 -0.000000
time 6
0  0.031807 0.000000 -0.000718  -1.570800 -1.391899 -1.570792
1  -3.676403 -0.238821 2.232071  -1.544956 -1.855077 -0.198630
2  6.027521 -0.000327 0.000200  -0.762239 -0.923074 -1.487083
3  11.692104 0.000482 -0.000739  -0.887084 -0.000031 -1.450623
4  11.479571 0.000115 -0.001025  1.201012 -0.695653 0.243078
5  3.859504 -0.142876 -1.192066  -0.598621 -0.264961 -1.712884
6  1.312589 0.000015 0.000004  -0.134462 -0.003724 -0.161308
7  0.729355 0.000053 0.000049  -0.005670 -0.010354 -0.210237
8  3.942141 0.046276 -0.431528  -0.482643 0.151393 -1.222371
9  1.539110 0.000082 -0.000001  -0.025938 -0.070136 -0.753602
10  1.196334 0.000144 0.000024  0.006041 0.002733 -0.689806
11  3.883506 -0.047266 0.431365  -0.291473 0.426599 -0.690305
12  1.719573 -0.000026 0.000011  0.002873 -0.110645 -1.064509
13  1.209180 0.000089 0.000007  -0.006934 -0.005858 -0.745304
14  4.085227 -0.082712 1.151023  -0.152788 0.511631 -0.407825
15  1.719448 -0.000013 0.000018  -0.018931 -0.027158 -0.352872
16  1.099675 0.000048 0.000002  -0.067217 0.033277 -1.489989
17  1.004893 -1.429782 1.158624  -1.212091 -0.479780 -0.146517
18  1.789821 -0.000005 -0.000016  0.000001 -0.000027 0.636397
19  1.207015 -0.000013 -0.000042  0.000006 -0.000006 -0.137934
20  5.740634 0.000365 -0.000700  -0.129070 0.000003 0.000060
21  11.480920 0.000162 -0.000857  -0.048584 -0.124698 0.010679
22  6.027523 -0.000330 0.000207  1.616438 -0.646417 1.578806
23  0.000002 11.692097 -0.000006  -1.000132 -0.448881 -0.791463
24  0.000003 0.000008 -0.000000  -0.017986 -0.000031 1.570738
25  -0.000001 -0.000007 -0.000001  0.868967 -0.000009 1.570721
26  -3.991760 -9.653395 0.826810  1.473120 1.855074 -0.198639
27  6.027513 -0.000263 -0.000225  1.372413 0.659869 -0.778169
28  11.691998 0.000244 0.000860  -0.063525 0.000058 -1.685810
29  11.478894 -0.001208 0.000750  -0.954861 0.403051 0.795824
30  3.859438 -0.132762 1.193064  0.467771 0.012166 -2.080742
31  1.312559 0.000028 -0.000002  -0.002591 -0.086818 -0.325533
32  0.729345 0.000065 -0.000028  -0.149107 -0.099773 -0.829530
33  3.942047 0.050135 0.430999  0.236316 -0.061191 -1.662361
34  1.539097 0.000008 -0.000005  0.035034 -0.043250 -1.002024
35  1.196301 0.000077 -0.000008  -0.022154 0.002073 -0.844399
36  3.883414 -0.050476 -0.431085  0.224120 -0.254107 -1.343752
37  1.719564 -0.000081 -0.000014  0.017488 -0.103675 -1.461475
38  1.209197 0.000035 0.000005  -0.001906 0.071048 -0.519937
39  3.859587 -0.149085 -1.331321  -0.223991 -0.069322 -0.368236
40  1.719411 -0.000097 -0.000048  -0.017372 0.005677 -1.014137
41  1.099674 0.000025 -0.000002  -0.043613 0.062291 -0.631531
42  0.805983 -0.359849 -1.318338  0.991674 0.166770 -0.799523
43  1.789780 -0.000007 -0.000029  0.000056 -0.002451 0.133096
44  1.206996 -0.000004 0.000014  0.000370 -0.000069 1.058782
45  5.740574 0.000120 0.000727  0.160133 -0.000013 0.000032
46  11.480725 -0.000104 0.000905  0.091772 0.096852 0.117163
47  6.027516 -0.000277 -0.000232  -0.895494 -0.667522 -1.691045
48  -0.000000 11.691981 -0.000007  -1.138668 0.581914 0.875214
49  0.000002 -0.000002 -0.000000  2.209001 -0.000036 1.570861
50  -0.000006 -0.000014 0.000003  2.272646 -0.000031 1.570865
51  -3.204510 -4.764320 -7.285110  -0.065386 -3.036404 1.367411
52  -0.000000 0.000000 0.000000  0.008153 -0.000259 0.000009
53  0.000000 -0.000000 -0.000000  1.565115 0.043565 -0.106862
54  -0.459398 -14.251980 -5.278699  -0.846996 -0.150108 -1.860867
55  0.000001 0.000000 -0.000000  0.000000 -0.000000 -0.000002
56  0.000031 0.000030 0.000001  -1.571902 -0.044449 -0.106509
57  10.502192 -7.472973 -18.384617  1.570796 -0.000000 0.000000
58  -15.744420 4.745377 -21.059811  1.570796 -0.000000 0.000000
59  2.268188 0.888834 -3.577183  1.570796 -0.000000 0.000000
60  -0.004311 0.001230 -0.000371  0.006898 -0.005534 -0.284228
61  0.858610 10.209643 -2.211006  1.570796 -0.000000 0.000000
62  0.000000 0.000000 0.000000  -0.078728 -3.136056 0.284225
63  -2.323334 -2.221693 -0.426911  1.570796 -0.000000 0.000000
64  -2.285392 -9.004502 -1.831272  1.571102 0.002041 0.001269
65  -0.039397 -3.107036 0.976859  0.000000 -0.000000 0.000000
66  -0.039395 -0.914784 14.099494  0.000000 -0.000000 0.000000
67  -0.039396 -3.172347 3.170214  0.000000 -0.000000 0.000000
68  -0.039396 -0.914783 4.985530  0.000000 -0.000000 0.000000
69  0.408672 -2.529140 3.193418  0.000000 -0.000000 0.000000
70  -0.039395 0.091155 10.882011  0.000000 -0.000000 0.000000
71  0.872713 0.008025 -1.510461  0.000000 -0.000000 0.000000
72  -0.039397 -0.788819 2.900787  0.000000 -0.000000 0.000000
73  0.595149 -1.458825 1.529925  0.000000 -0.000000 0.000000
74  -2.285306 -13.709642 -5.929879  1.571102 0.002041 0.001269
75  -0.075784 2.864367 -0.991287  0.000000 -0.000000 0.000000
76  -0.163939 2.611657 -0.991286  0.000000 -0.000000 0.000000
time 7
0  0.031807 0.000000 -0.000718  -1.570800 -1.391899 -1.570792
1  -3.676403 -0.238821 2.232071  -1.544956 -1.855077 -0.198630
2  6.027521 -0.000327 0.000200  -0.761823 -0.922568 -1.486884
3  11.692103 0.000481 -0.000739  -0.887084 -0.000031 -1.451613
4  11.479527 0.000095 -0.001046  1.200652 -0.695553 0.241517
5  3.859505 -0.142876 -1.192065  -0.598621 -0.264961 -1.712884
6  1.312590 0.000015 0.000005  -0.134462 -0.003724 -0.161308
7  0.729355 0.000052 0.000047  -0.005670 -0.010354 -0.210237
8  3.942142 0.046277 -0.431529  -0.482643 0.151393 -1.222371
9  1.539111 0.000082 0.000002  -0.025938 -0.070135 -0.753602
10  1.196332 0.000145 0.000025  0.006041 0.002733 -0.689806
11  3.883507 -0.047266 0.431365  -0.291472 0.426599 -0.690305
12  1.719574 -0.000026 0.000011  0.002873 -0.110645 -1.064509
13  1.209178 0.000090 0.000008  -0.006934 -0.005858 -0.745304
14  4.085228 -0.082712 1.151024  -0.152788 0.511631 -0.407825
15  1.719449 -0.000012 0.000021  -0.018931 -0.027158 -0.352872
16  1.099674 0.000048 0.000001  -0.067217 0.033277 -1.489989
17  1.004895 -1.429781 1.158625  -1.212091 -0.479780 -0.146517
18  1.789819 -0.000005 -0.000016  0.000001 -0.000027 0.636396
19  1.207014 -0.000013 -0.000043  0.000006 -0.000006 -0.137934
20  5.740637 0.000363 -0.000700  -0.129356 0.000003 0.000060
21  11.480912 0.000157 -0.000862  -0.048732 -0.124651 0.010361
22  6.027523 -0.000330 0.000207  1.616172 -0.646942 1.579497
23  0.000003 11.692096 -0.000008  -1.000722 -0.449419 -0.791846
24  0.000004 0.000008 0.000000  -0.017987 -0.000031 1.570738
25  -0.000001 -0.000007 -0.000002  0.868967 -0.000009 1.570721
26  -3.991760 -9.653395 0.826810  1.473120 1.855074 -0.198639
27  6.027513 -0.000263 -0.000225  1.372163 0.658729 -0.778038
28  11.691999 0.000244 0.000862  -0.063525 0.000058 -1.686833
29  11.478846 -0.001244 0.000745  -0.956460 0.404490 0.794931
30  3.859438 -0.132762 1.193065  0.467771 0.012166 -2.080742
31  1.312559 0.000026 -0.000003  -0.002591 -0.086818 -0.325533
32  0.729346 0.000066 -0.000029  -0.149107 -0.099773 -0.829530
33  3.942047 0.050135 0.431000  0.236316 -0.061191 -1.662361
34  1.539097 0.000008 -0.000005  0.035034 -0.043250 -1.002024
35  1.196299 0.000078 -0.000007  -0.022154 0.002073 -0.844399
36  3.883413 -0.050476 -0.431085  0.224120 -0.254107 -1.343752
37  1.719564 -0.000081 -0.000015  0.017488 -0.103675 -1.461475
38  1.209199 0.000035 0.000005  -0.001906 0.071048 -0.519937
39  3.859587 -0.149085 -1.331320  -0.226026 -0.068726 -0.353725
40  1.719410 -0.000097 -0.000047  -0.017916 0.004795 -1.064074
41  1.099673 0.000025 -0.000002  -0.046062 0.060958 -0.660806
42  0.805983 -0.359849 -1.318338  0.991673 0.166770 -0.799523
43  1.789780 -0.000008 -0.000030  0.000056 -0.002451 0.133096
44  1.206997 -0.000005 0.000014  0.000370 -0.000069 1.058782
45  5.740574 0.000119 0.000726  0.159701 -0.000013 0.000032
46  11.480717 -0.000111 0.000903  0.091388 0.096970 0.116986
47  6.027516 -0.000277 -0.000232  -0.894499 -0.668375 -1.691376
48  0.000000 11.691981 -0.000006  -1.139267 0.582514 0.875545
49  0.000002 -0.000002 0.000000  2.209001 -0.000036 1.570861
50  -0.000006 -0.000014 0.000005  2.272646 -0.000031 1.570865
51  -3.207403 -4.753488 -7.293818  -0.066740 -3.035109 1.367035
52  -0.000000 0.000000 -0.000001  0.008153 -0.000259 0.000009
53  -0.000000 0.000000 0.000000  1.565115 0.043565 -0.106862
54  -0.464040 -14.240568 -5.282290  -0.848239 -0.151515 -1.861199
55  -0.000001 0.000000 -0.000000  0.000000 -0.000000 -0.000002
56  0.000029 0.000029 0.000001  -1.571901 -0.044449 -0.106509
57  10.502192 -7.472973 -18.384617  1.570796 -0.000000 0.000000
58  -15.744420 4.745377 -21.059811  1.570796 -0.000000 0.000000
59  2.268188 0.888834 -3.577183  1.570796 -0.000000 0.000000
60  -0.004311 0.001230 -0.000371  0.006898 -0.005534 -0.284228
61  0.858610 10.209643 -2.211006  1.570796 -0.000000 0.000000
62  0.000000 0.000000 0.000000  -0.078728 -3.136056 0.284225
63  -2.323334 -2.221693 -0.426911  1.570796 -0.000000 0.000000
64  -2.281863 -8.988712 -1.837214  1.570107 0.003622 0.000747
65  -0.039397 -3.107036 0.976859  0.000000 -0.000000 0.000000
66  -0.039395 -0.914783 14.099493  0.000000 -0.000000 0.000000
67  -0.039396 -3.172347 3.170213  0.000000 -0.000000 0.000000
68  -0.039395 -0.914783 4.985529  0.000000 -0.000000 0.000000
69  0.408672 -2.529140 3.193417  0.000000 -0.000000 0.000000
70  -0.039395 0.091155 10.882010  0.000000 -0.000000 0.000000
71  0.872714 0.008025 -1.510466  0.000000 -0.000000 0.000000
72  -0.039397 -0.788819 2.900785  0.000000 -0.000000 0.000000
73  0.595149 -1.458825 1.529925  0.000000 -0.000000 0.000000
74  -2.290693 -13.697930 -5.931124  1.570107 0.003622 0.000747
75  -0.075784 2.864367 -0.991286  0.000000 -0.000000 0.000000
76  -0.163939 2.611658 -0.991285  0.000000 -0.000000 0.000000
time 8
0  0.031807 0.000000 -0.000718  -1.570800 -1.391899 -1.570792
1  -3.676403 -0.238821 2.232071  -1.544956 -1.855077 -0.198630
2  6.027521 -0.000327 0.000200  -0.761900 -0.921522 -1.485903
3  11.692102 0.000484 -0.000739  -0.887084 -0.000031 -1.455205
4  11.479367 0.000032 -0.001124  1.200655 -0.697147 0.242803
5  3.859504 -0.142875 -1.192065  -0.598621 -0.264961 -1.712884
6  1.312590 0.000013 0.000004  -0.134462 -0.003724 -0.161308
7  0.729354 0.000053 0.000047  -0.005670 -0.010354 -0.210237
8  3.942141 0.046278 -0.431529  -0.482643 0.151393 -1.222371
9  1.539110 0.000082 -0.000000  -0.025938 -0.070135 -0.753602
10  1.196332 0.000144 0.000024  0.006041 0.002733 -0.689806
11  3.883506 -0.047265 0.431365  -0.291473 0.426599 -0.690306
12  1.719573 -0.000026 0.000009  0.002873 -0.110645 -1.064508
13  1.209178 0.000091 0.000007  -0.006934 -0.005858 -0.745304
14  4.085227 -0.082711 1.151023  -0.152788 0.511631 -0.407825
15  1.719449 -0.000013 0.000021  -0.018931 -0.027158 -0.352872
16  1.099675 0.000050 0.000002  -0.067217 0.033277 -1.489989
17  1.004893 -1.429781 1.158624  -1.212091 -0.479780 -0.146517
18  1.789820 -0.000005 -0.000016  0.000001 -0.000027 0.636396
19  1.207012 -0.000013 -0.000043  0.000006 -0.000006 -0.137934
20  5.740636 0.000364 -0.000699  -0.129702 0.000003 0.000060
21  11.480880 0.000145 -0.000876  -0.048602 -0.124989 0.010546
22  6.027523 -0.000330 0.000207  1.616328 -0.647981 1.580322
23  0.000003 11.692096 -0.000007  -1.002861 -0.451372 -0.793234
24  0.000003 0.000007 -0.000000  -0.017986 -0.000031 1.570738
25  -0.000001 -0.000007 -0.000002  0.868967 -0.000009 1.570721
26  -3.991760 -9.653395 0.826810  1.473120 1.855074 -0.198639
27  6.027513 -0.000263 -0.000225  1.371326 0.656932 -0.777992
28  11.691998 0.000243 0.000860  -0.063525 0.000058 -1.690369
29  11.478679 -0.001359 0.000738  -0.955723 0.406031 0.796990
30  3.859438 -0.132762 1.193064  0.467771 0.012166 -2.080742
31  1.312560 0.000025 -0.000002  -0.002591 -0.086818 -0.325533
32  0.729345 0.000065 -0.000027  -0.149107 -0.099773 -0.829530
33  3.942047 0.050135 0.430999  0.236316 -0.061191 -1.662361
34  1.539097 0.000008 -0.000005  0.035034 -0.043250 -1.002024
35  1.196301 0.000076 -0.000007  -0.022154 0.002073 -0.844399
36  3.883414 -0.050476 -0.431085  0.224120 -0.254107 -1.343752
37  1.719563 -0.000081 -0.000014  0.017488 -0.103675 -1.461475
38  1.209198 0.000035 0.000004  -0.001906 0.071048 -0.519937
39  3.859587 -0.149085 -1.331321  -0.228052 -0.068101 -0.339217
40  1.719410 -0.000097 -0.000048  -0.018416 0.003886 -1.114011
41  1.099672 0.000024 -0.000002  -0.048482 0.059604 -0.690076
42  0.805983 -0.359849 -1.318337  0.991673 0.166770 -0.799523
43  1.789780 -0.000008 -0.000030  0.000056 -0.002451 0.133096
44  1.206997 -0.000004 0.000014  0.000370 -0.000069 1.058782
45  5.740573 0.000121 0.000726  0.160004 -0.000013 0.000032
46  11.480681 -0.000133 0.000901  0.091318 0.097381 0.117249
47  6.027516 -0.000277 -0.000232  -0.893201 -0.669997 -1.691624
48  -0.000002 11.691979 -0.000005  -1.141339 0.584589 0.876687
49  0.000003 -0.000003 -0.000000  2.209001 -0.000036 1.570861
50  -0.000006 -0.000015 0.000005  2.272646 -0.000031 1.570865
51  -3.200808 -4.720652 -7.295012  -0.066221 -3.034753 1.366360
52  0.000000 -0.000000 0.000000  0.008153 -0.000259 0.000009
53  -0.000000 0.000000 -0.000000  1.565115 0.043565 -0.106862
54  -0.464199 -14.208517 -5.277997  -0.847688 -0.151825 -1.861902
55  -0.000001 -0.000000 -0.000000  0.000000 -0.000000 -0.000002
56  0.000029 0.000028 0.000001  -1.571901 -0.044449 -0.106509
57  10.502192 -7.472973 -18.384617  1.570796 -0.000000 0.000000
58  -15.744420 4.745377 -21.059811  1.570796 -0.000000 0.000000
59  2.268188 0.888834 -3.577183  1.570796 -0.000000 0.000000
60  -0.004311 0.001230 -0.000371  0.006898 -0.005534 -0.284228
61  0.858610 10.209643 -2.211006  1.570796 -0.000000 0.000000
62  0.000000 0.000000 0.000000  -0.078728 -3.136056 0.284225
63  -2.323334 -2.221693 -0.426911  1.570796 -0.000000 0.000000
64  -2.280258 -8.953976 -1.836090  1.569654 0.003189 0.000126
65  -0.039397 -3.107036 0.976861  0.000000 0.000000 0.000000
66  -0.039395 -0.914783 14.099497  0.000000 0.000000 0.000000
67  -0.039396 -3.172347 3.170216  0.000000 0.000000 0.000000
68  -0.039395 -0.914783 4.985531  0.000000 -0.000000 0.000000
69  0.408672 -2.529140 3.193420  0.000000 0.000000 0.000000
70  -0.039396 0.091155 10.882013  0.000000 0.000000 0.000000
71  0.872713 0.008025 -1.510460  0.000000 0.000000 0.000000
72  -0.039397 -0.788819 2.900788  0.000000 0.000000 0.000000
73  0.595149 -1.458825 1.529926  0.000000 0.000000 0.000000
74  -2.290234 -13.665041 -5.927870  1.569654 0.003189 0.000126
75  -0.075783 2.864367 -0.991286  0.000000 0.000000 0.000000
76  -0.163939 2.611658 -0.991286  0.000000 0.000000 0.000000
time 9
0  0.031807 0.000000 -0.000718  -1.570800 -1.391899 -1.570792
1  -3.676403 -0.238821 2.232071  -1.544956 -1.855077 -0.198630
2  6.027521 -0.000327 0.000200  -0.762085 -0.920262 -1.484663
3  11.692103 0.000481 -0.000739  -0.887084 -0.000031 -1.459193
4  11.479188 -0.000038 -0.001209  1.200268 -0.699428 0.245280
5  3.859504 -0.142875 -1.192065  -0.598621 -0.264961 -1.712884
6  1.312590 0.000014 0.000003  -0.134462 -0.003724 -0.161308
7  0.729355 0.000052 0.000049  -0.005670 -0.010354 -0.210237
8  3.942141 0.046277 -0.431528  -0.482643 0.151393 -1.222371
9  1.539110 0.000082 -0.000000  -0.025938 -0.070135 -0.753602
10  1.196332 0.000145 0.000026  0.006041 0.002733 -0.689806
11  3.883506 -0.047265 0.431365  -0.291473 0.426599 -0.690305
12  1.719572 -0.000026 0.000010  0.002873 -0.110645 -1.064508
13  1.209178 0.000090 0.000007  -0.006934 -0.005858 -0.745304
14  4.085228 -0.082711 1.151024  -0.152788 0.511631 -0.407825
15  1.719449 -0.000012 0.000019  -0.018931 -0.027158 -0.352872
16  1.099676 0.000050 0.000003  -0.067217 0.033277 -1.489989
17  1.004893 -1.429781 1.158624  -1.212090 -0.479780 -0.146517
18  1.789820 -0.000006 -0.000016  0.000001 -0.000027 0.636396
19  1.207013 -0.000013 -0.000043  0.000006 -0.000006 -0.137934
20  5.740635 0.000364 -0.000700  -0.130084 0.000003 0.000060
21  11.480844 0.000131 -0.000894  -0.048453 -0.125495 0.010903
22  6.027523 -0.000330 0.000207  1.616588 -0.649228 1.581258
23  0.000002 11.692097 -0.000007  -1.005235 -0.453544 -0.794771
24  0.000004 0.000008 -0.000001  -0.017987 -0.000031 1.570738
25  -0.000002 -0.000007 -0.000002  0.868967 -0.000009 1.570721
26  -3.991760 -9.653395 0.826810  1.473120 1.855074 -0.198639
27  6.027513 -0.000263 -0.000225  1.370597 0.654908 -0.777859
28  11.691998 0.000245 0.000861  -0.063525 0.000058 -1.694808
29  11.480640 -0.000216 0.000811  -0.954250 0.406822 0.800509
30  3.859437 -0.132762 1.193063  0.467771 0.012166 -2.080742
31  1.312560 0.000027 -0.000002  -0.002591 -0.086818 -0.325533
32  0.729345 0.000065 -0.000029  -0.149107 -0.099773 -0.829530
33  3.942047 0.050135 0.430999  0.236316 -0.061191 -1.662361
34  1.539097 0.000007 -0.000004  0.035034 -0.043250 -1.002024
35  1.196300 0.000077 -0.000008  -0.022154 0.002073 -0.844399
36  3.883413 -0.050476 -0.431085  0.224120 -0.254107 -1.343752
37  1.719563 -0.000080 -0.000014  0.017488 -0.103675 -1.461475
38  1.209198 0.000035 0.000006  -0.001906 0.071048 -0.519937
39  3.859587 -0.149085 -1.331321  -0.228052 -0.068101 -0.339217
40  1.719411 -0.000097 -0.000047  -0.018416 0.003886 -1.114011
41  1.099673 0.000025 -0.000000  -0.048482 0.059604 -0.690076
42  0.805983 -0.359849 -1.318338  0.991673 0.166770 -0.799523
43  1.789780 -0.000007 -0.000030  0.000056 -0.002451 0.133096
44  1.206996 -0.000005 0.000013  0.000370 -0.000069 1.058782
45  5.740574 0.000118 0.000726  0.160610 -0.000013 0.000032
46  11.481075 0.000093 0.000916  0.091394 0.097764 0.117801
47  6.027516 -0.000277 -0.000232  -0.891605 -0.671691 -1.692039
48  -0.000001 11.691981 -0.000008  -1.143939 0.587196 0.878115
49  0.000004 -0.000002 0.000000  2.209001 -0.000036 1.570861
50  -0.000006 -0.000014 0.000004  2.272646 -0.000031 1.570865
51  -3.193172 -4.683066 -7.291354  -0.065243 -3.035399 1.365736
52  0.000000 0.000000 0.000000  0.008153 -0.000259 0.000009
53  -0.000000 0.000000 0.000000  1.565115 0.043565 -0.106862
54  -0.463683 -14.173229 -5.275502  -0.846765 -0.151097 -1.862561
55  0.000000 0.000000 -0.000000  0.000000 -0.000000 -0.000002
56  0.000031 0.000029 0.000001  -1.571901 -0.044449 -0.106509
57  10.502192 -7.472973 -18.384617  1.570796 -0.000000 0.000000
58  -15.744420 4.745377 -21.059811  1.570796 -0.000000 0.000000
59  2.268188 0.888834 -3.577183  1.570796 -0.000000 0.000000
60  -0.004311 0.001230 -0.000371  0.006898 -0.005534 -0.284228
61  0.858610 10.209643 -2.211006  1.570796 -0.000000 0.000000
62  0.000000 0.000000 0.000000  -0.078728 -3.136056 0.284225
63  -2.323334 -2.221693 -0.426911  1.570796 -0.000000 0.000000
64  -2.280736 -8.919238 -1.833279  1.570088 0.002106 -0.000393
65  -0.039397 -3.107037 0.976861  -0.000000 0.000000 -0.000000
66  -0.039395 -0.914784 14.099497  -0.000000 0.000000 -0.000000
67  -0.039396 -3.172347 3.170215  -0.000000 0.000000 -0.000000
68  -0.039396 -0.914783 4.985532  0.000000 -0.000000 0.000000
69  0.408672 -2.529141 3.193419  -0.000000 0.000000 -0.000000
70  -0.039395 0.091155 10.882011  -0.000000 0.000000 -0.000000
71  0.872713 0.008025 -1.510464  -0.000000 0.000000 -0.000000
72  -0.039397 -0.788819 2.900787  -0.000000 0.000000 -0.000000
73  0.595149 -1.458825 1.529926  -0.000000 0.000000 -0.000000
74  -2.288730 -13.628521 -5.927114  1.570088 0.002106 -0.000393
75  -0.075784 2.864367 -0.991288  -0.000000 0.000000 -0.000000
76  -0.163939 2.611657 -0.991287  -0.000000 0.000000 -0.000000
time 10
0  0.031807 0.000000 -0.000718  -1.570800 -1.391899 -1.570792
1  -3.676403 -0.238821 2.232071  -1.544956 -1.855077 -0.198630
2  6.027521 -0.000327 0.000200  -0.762426 -0.919599 -1.483863
3  11.692103 0.000482 -0.000739  -0.887084 -0.000031 -1.461387
4  11.479091 -0.000077 -0.001257  1.200044 -0.700886 0.247685
5  3.859503 -0.142875 -1.192065  -0.598621 -0.264961 -1.712884
6  1.312591 0.000015 0.000005  -0.134462 -0.003724 -0.161308
7  0.729356 0.000052 0.000047  -0.005670 -0.010354 -0.210237
8  3.942140 0.046276 -0.431529  -0.482643 0.151393 -1.222371
9  1.539111 0.000082 -0.000000  -0.025938 -0.070135 -0.753602
10  1.196330 0.000146 0.000025  0.006041 0.002733 -0.689806
11  3.883507 -0.047265 0.431365  -0.291472 0.426599 -0.690306
12  1.719574 -0.000026 0.000012  0.002873 -0.110645 -1.064509
13  1.209179 0.000092 0.000006  -0.006934 -0.005858 -0.745304
14  4.085228 -0.082711 1.151024  -0.152788 0.511631 -0.407825
15  1.719450 -0.000011 0.000019  -0.018931 -0.027158 -0.352872
16  1.099675 0.000048 0.000001  -0.067217 0.033277 -1.489989
17  1.004894 -1.429781 1.158624  -1.212091 -0.479780 -0.146517
18  1.789819 -0.000005 -0.000017  0.000001 -0.000027 0.636396
19  1.207014 -0.000013 -0.000042  0.000006 -0.000006 -0.137934
20  5.740635 0.000365 -0.000698  -0.130208 0.000003 0.000060
21  11.480824 0.000124 -0.000902  -0.048311 -0.125836 0.011288
22  6.027523 -0.000330 0.000207  1.616910 -0.649874 1.581592
23  0.000002 11.692099 -0.000007  -1.006541 -0.454741 -0.795615
24  0.000005 0.000007 0.000000  -0.017987 -0.000031 1.570738
25  -0.000002 -0.000007 -0.000002  0.868967 -0.000009 1.570721
26  -3.991760 -9.653395 0.826810  1.473120 1.855074 -0.198639
27  6.027513 -0.000263 -0.000225  1.370101 0.654197 -0.777899
28  11.691998 0.000243 0.000861  -0.063525 0.000059 -1.697129
29  11.480619 -0.000229 0.000813  -0.952518 0.406823 0.803352
30  3.859438 -0.132762 1.193065  0.467771 0.012166 -2.080742
31  1.312560 0.000026 -0.000002  -0.002591 -0.086818 -0.325533
32  0.729346 0.000067 -0.000028  -0.149107 -0.099773 -0.829530
33  3.942048 0.050136 0.430999  0.236316 -0.061191 -1.662361
34  1.539097 0.000007 -0.000006  0.035034 -0.043250 -1.002024
35  1.196301 0.000078 -0.000007  -0.022154 0.002073 -0.844399
36  3.883414 -0.050476 -0.431085  0.224120 -0.254107 -1.343752
37  1.719565 -0.000081 -0.000015  0.017488 -0.103675 -1.461475
38  1.209198 0.000035 0.000005  -0.001906 0.071048 -0.519937
39  3.859589 -0.149085 -1.331321  -0.228052 -0.068101 -0.339217
40  1.719411 -0.000097 -0.000048  -0.018416 0.003886 -1.114011
41  1.099673 0.000025 -0.000002  -0.048482 0.059604 -0.690076
42  0.805982 -0.359849 -1.318338  0.991673 0.166770 -0.799523
43  1.789780 -0.000007 -0.000030  0.000056 -0.002451 0.133096
44  1.206996 -0.000005 0.000013  0.000370 -0.000069 1.058782
45  5.740573 0.000119 0.000727  0.161198 -0.000013 0.000032
46  11.481071 0.000092 0.000916  0.091610 0.097995 0.118257
47  6.027516 -0.000277 -0.000232  -0.891192 -0.672437 -1.692034
48  0.000000 11.691980 -0.000006  -1.145299 0.588561 0.878859
49  0.000005 -0.000003 -0.000000  2.209001 -0.000036 1.570861
50  -0.000005 -0.000015 0.000004  2.272646 -0.000031 1.570865
51  -3.185703 -4.662671 -7.285555  -0.064023 -3.036476 1.365389
52  -0.000000 -0.000000 -0.000001  0.008153 -0.000259 0.000009
53  -0.000000 0.000000 0.000000  1.565115 0.043565 -0.106862
54  -0.461122 -14.155057 -5.273529  -0.845636 -0.149919 -1.862949
55  -0.000000 0.000000 0.000000  0.000000 -0.000000 -0.000002
56  0.000030 0.000030 0.000001  -1.571902 -0.044449 -0.106509
57  10.502192 -7.472973 -18.384617  1.570796 -0.000000 0.000000
58  -15.744420 4.745377 -21.059811  1.570796 -0.000000 0.000000
59  2.268188 0.888834 -3.577183  1.570796 -0.000000 0.000000
60  -0.004311 0.001230 -0.000371  0.006898 -0.005534 -0.284228
61  0.858610 10.209643 -2.211006  1.570796 -0.000000 0.000000
62  0.000000 0.000000 0.000000  -0.078728 -3.136056 0.284225
63  -2.323334 -2.221693 -0.426911  1.570796 -0.000000 0.000000
64  -2.281874 -8.903448 -1.829624  1.570896 0.000699 -0.000611
65  -0.039397 -3.107036 0.976860  -0.000000 0.000000 -0.000000
66  -0.039395 -0.914783 14.099496  -0.000000 0.000000 -0.000000
67  -0.039396 -3.172346 3.170215  -0.000000 0.000000 -0.000000
68  -0.039395 -0.914783 4.985529  0.000000 -0.000000 0.000000
69  0.408672 -2.529140 3.193419  -0.000000 0.000000 -0.000000
70  -0.039396 0.091155 10.882010  -0.000000 0.000000 -0.000000
71  0.872714 0.008025 -1.510465  -0.000000 0.000000 -0.000000
72  -0.039397 -0.788819 2.900786  -0.000000 0.000000 -0.000000
73  0.595149 -1.458825 1.529925  -0.000000 0.000000 -0.000000
74  -2.285131 -13.609423 -5.927269  1.570896 0.000699 -0.000611
75  -0.075783 2.864367 -0.991288  -0.000000 0.000000 -0.000000
76  -0.163938 2.611658 -0.991287  -0.000000 0.000000 -0.000000
time 11
0  0.031807 0.000000 -0.000718  -1.570800 -1.391899 -1.570792
1  -3.676403 -0.238821 2.232071  -1.544956 -1.855077 -0.198630
2  6.027521 -0.000327 0.000200  -0.762754 -0.919937 -1.483968
3  11.692102 0.000481 -0.000739  -0.887084 -0.000031 -1.460927
4  11.479112 -0.000069 -0.001249  1.200516 -0.700685 0.248996
5  3.859502 -0.142876 -1.192066  -0.598621 -0.264961 -1.712884
6  1.312590 0.000015 0.000005  -0.134462 -0.003724 -0.161308
7  0.729356 0.000052 0.000047  -0.005670 -0.010354 -0.210237
8  3.942141 0.046278 -0.431528  -0.482643 0.151393 -1.222371
9  1.539111 0.000082 -0.000001  -0.025938 -0.070135 -0.753602
10  1.196332 0.000145 0.000023  0.006041 0.002733 -0.689806
11  3.883505 -0.047266 0.431365  -0.291473 0.426599 -0.690306
12  1.719573 -0.000023 0.000012  0.002873 -0.110645 -1.064509
13  1.209179 0.000090 0.000006  -0.006934 -0.005858 -0.745304
14  4.085226 -0.082711 1.151023  -0.152788 0.511631 -0.407825
15  1.719449 -0.000013 0.000022  -0.018931 -0.027158 -0.352872
16  1.099675 0.000050 0.000001  -0.067217 0.033278 -1.489989
17  1.004893 -1.429781 1.158624  -1.212091 -0.479780 -0.146517
18  1.789818 -0.000004 -0.000017  0.000001 -0.000027 0.636397
19  1.207015 -0.000013 -0.000043  0.000006 -0.000006 -0.137934
20  5.740635 0.000364 -0.000699  -0.129942 0.000003 0.000060
21  11.480827 0.000125 -0.000901  -0.048167 -0.125816 0.011578
22  6.027523 -0.000330 0.000207  1.617126 -0.649522 1.581096
23  0.000002 11.692098 -0.000007  -1.006267 -0.454490 -0.795438
24  0.000004 0.000007 -0.000001  -0.017987 -0.000031 1.570738
25  -0.000001 -0.000007 -0.000002  0.868967 -0.000009 1.570721
26  -3.991760 -9.653395 0.826810  1.473120 1.855074 -0.198639
27  6.027513 -0.000263 -0.000225  1.369871 0.654955 -0.778134
28  11.691998 0.000245 0.000861  -0.063525 0.000058 -1.696558
29  11.480626 -0.000225 0.000811  -0.950942 0.406541 0.804255
30  3.859438 -0.132762 1.193064  0.467771 0.012166 -2.080742
31  1.312559 0.000026 -0.000001  -0.002591 -0.086818 -0.325533
32  0.729344 0.000066 -0.000028  -0.149107 -0.099773 -0.829530
33  3.942048 0.050135 0.430999  0.236316 -0.061191 -1.662361
34  1.539097 0.000009 -0.000005  0.035034 -0.043250 -1.002024
35  1.196299 0.000077 -0.000007  -0.022154 0.002073 -0.844399
36  3.883414 -0.050476 -0.431085  0.224120 -0.254107 -1.343752
37  1.719564 -0.000081 -0.000014  0.017488 -0.103675 -1.461475
38  1.209197 0.000035 0.000006  -0.001906 0.071048 -0.519937
39  3.859588 -0.149085 -1.331321  -0.228052 -0.068101 -0.339217
40  1.719410 -0.000097 -0.000049  -0.018416 0.003886 -1.114011
41  1.099674 0.000024 -0.000002  -0.048482 0.059604 -0.690076
42  0.805983 -0.359849 -1.318338  0.991673 0.166770 -0.799523
43  1.789780 -0.000008 -0.000030  0.000056 -0.002451 0.133096
44  1.206996 -0.000004 0.000014  0.000370 -0.000069 1.058782
45  5.740575 0.000120 0.000726  0.161555 -0.000013 0.000032
46  11.481072 0.000093 0.000916  0.091889 0.098085 0.118365
47  6.027516 -0.000277 -0.000232  -0.892102 -0.672118 -1.691563
48  -0.000001 11.691981 -0.000005  -1.144964 0.588225 0.878676
49  0.000001 -0.000002 0.000000  2.209001 -0.000036 1.570861
50  -0.000007 -0.000014 0.000004  2.272646 -0.000031 1.570865
51  -3.179493 -4.668038 -7.281322  -0.062726 -3.037189 1.365279
52  0.000000 0.000000 -0.000000  0.008153 -0.000259 0.000009
53  -0.000000 -0.000000 0.000000  1.565115 0.043565 -0.106862
54  -0.457497 -14.161228 -5.269590  -0.844400 -0.149097 -1.863107
55  0.000001 0.000000 0.000000  0.000000 -0.000000 -0.000002
56  0.000031 0.000029 0.000001  -1.571901 -0.044449 -0.106509
57  10.502192 -7.472973 -18.384617  1.570796 -0.000000 0.000000
58  -15.744420 4.745377 -21.059811  1.570796 -0.000000 0.000000
59  2.268188 0.888834 -3.577183  1.570796 -0.000000 0.000000
60  -0.004311 0.001230 -0.000371  0.006898 -0.005534 -0.284228
61  0.858610 10.209643 -2.211006  1.570796 -0.000000 0.000000
62  0.000000 0.000000 0.000000  -0.078728 -3.136056 0.284225
63  -2.323334 -2.221693 -0.426911  1.570796 -0.000000 0.000000
64  -2.283233 -8.911163 -1.825969  1.571332 -0.000709 -0.000585
65  -0.039397 -3.107036 0.976859  0.000000 0.000000 0.000000
66  -0.039395 -0.914784 14.099494  0.000000 0.000000 0.000000
67  -0.039396 -3.172347 3.170213  0.000000 0.000000 0.000000
68  -0.039396 -0.914783 4.985529  0.000000 -0.000000 0.000000
69  0.408672 -2.529140 3.193417  0.000000 0.000000 0.000000
70  -0.039396 0.091155 10.882009  0.000000 0.000000 0.000000
71  0.872713 0.008025 -1.510462  0.000000 0.000000 0.000000
72  -0.039397 -0.788819 2.900786  0.000000 0.000000 0.000000
73  0.595149 -1.458825 1.529924  0.000000 0.000000 0.000000
74  -2.280599 -13.615357 -5.925660  1.571332 -0.000709 -0.000585
75  -0.075784 2.864367 -0.991288  0.000000 0.000000 0.000000
76  -0.163939 2.611658 -0.991287  0.000000 0.000000 0.000000
time 12
0  0.031807 0.000000 -0.000718  -1.570800 -1.391899 -1.570792
1  -3.676403 -0.238821 2.232071  -1.544956 -1.855077 -0.198630
2  6.027521 -0.000327 0.000200  -0.762927 -0.920834 -1.484666
3  11.692102 0.000482 -0.000739  -0.887084 -0.000031 -1.459027
4  11.479198 -0.000035 -0.001207  1.201447 -0.699430 0.249230
5  3.859505 -0.142876 -1.192066  -0.598621 -0.264961 -1.712884
6  1.312589 0.000014 0.000005  -0.134462 -0.003724 -0.161308
7  0.729355 0.000053 0.000048  -0.005670 -0.010354 -0.210237
8  3.942143 0.046277 -0.431528  -0.482643 0.151393 -1.222371
9  1.539110 0.000081 -0.000001  -0.025938 -0.070135 -0.753602
10  1.196333 0.000145 0.000025  0.006041 0.002733 -0.689806
11  3.883508 -0.047265 0.431365  -0.291473 0.426599 -0.690306
12  1.719573 -0.000025 0.000010  0.002873 -0.110645 -1.064509
13  1.209178 0.000093 0.000008  -0.006934 -0.005858 -0.745304
14  4.085229 -0.082711 1.151024  -0.152788 0.511631 -0.407825
15  1.719449 -0.000012 0.000020  -0.018931 -0.027158 -0.352872
16  1.099675 0.000049 0.000001  -0.067217 0.033277 -1.489989
17  1.004895 -1.429781 1.158624  -1.212091 -0.479780 -0.146517
18  1.789819 -0.000006 -0.000016  0.000001 -0.000027 0.636396
19  1.207015 -0.000013 -0.000042  0.000006 -0.000006 -0.137934
20  5.740636 0.000365 -0.000697  -0.129491 0.000003 0.000060
21  11.480846 0.000132 -0.000893  -0.048038 -0.125559 0.011735
22  6.027523 -0.000330 0.000207  1.617171 -0.648620 1.580234
23  0.000001 11.692097 -0.000007  -1.005136 -0.453454 -0.794707
24  0.000003 0.000007 0.000001  -0.017987 -0.000031 1.570738
25  -0.000001 -0.000007 -0.000002  0.868967 -0.000009 1.570721
26  -3.991760 -9.653395 0.826810  1.473120 1.855074 -0.198639
27  6.027513 -0.000263 -0.000225  1.369776 0.656367 -0.778451
28  11.691998 0.000244 0.000861  -0.063525 0.000058 -1.694410
29  11.480643 -0.000212 0.000814  -0.949810 0.406438 0.803661
30  3.859438 -0.132762 1.193065  0.467771 0.012166 -2.080742
31  1.312559 0.000025 -0.000002  -0.002591 -0.086818 -0.325533
32  0.729345 0.000065 -0.000029  -0.149107 -0.099773 -0.829530
33  3.942047 0.050135 0.430999  0.236316 -0.061191 -1.662361
34  1.539097 0.000007 -0.000005  0.035034 -0.043250 -1.002024
35  1.196301 0.000077 -0.000008  -0.022154 0.002073 -0.844399
36  3.883414 -0.050476 -0.431085  0.224120 -0.254107 -1.343752
37  1.719564 -0.000082 -0.000014  0.017488 -0.103675 -1.461475
38  1.209196 0.000035 0.000004  -0.001906 0.071048 -0.519937
39  3.859587 -0.149085 -1.331321  -0.228052 -0.068101 -0.339217
40  1.719410 -0.000097 -0.000048  -0.018416 0.003886 -1.114011
41  1.099674 0.000026 -0.000002  -0.048482 0.059604 -0.690076
42  0.805982 -0.359848 -1.318338  0.991673 0.166770 -0.799523
43  1.789780 -0.000006 -0.000030  0.000056 -0.002451 0.133096
44  1.206997 -0.000005 0.000014  0.000370 -0.000069 1.058782
45  5.740574 0.000120 0.000727  0.161670 -0.000013 0.000032
46  11.481075 0.000095 0.000917  0.092125 0.098115 0.118196
47  6.027516 -0.000277 -0.000232  -0.893588 -0.671314 -1.690897
48  -0.000001 11.691980 -0.000007  -1.143706 0.586962 0.877987
49  0.000004 -0.000002 -0.000000  2.209001 -0.000036 1.570861
50  -0.000007 -0.000014 0.000003  2.272646 -0.000031 1.570865
51  -3.175017 -4.687105 -7.279951  -0.061638 -3.037301 1.365235
52  -0.000000 -0.000000 -0.000000  0.008153 -0.000259 0.000009
53  -0.000000 0.000000 0.000000  1.565115 0.043565 -0.106862
54  -0.454547 -14.179884 -5.264216  -0.843319 -0.148892 -1.863199
55  0.000001 0.000000 0.000000  0.000000 -0.000000 -0.000002
56  0.000031 0.000029 0.000001  -1.571902 -0.044449 -0.106509
57  10.502192 -7.472973 -18.384617  1.570796 -0.000000 0.000000
58  -15.744420 4.745377 -21.059811  1.570796 -0.000000 0.000000
59  2.268188 0.888834 -3.577183  1.570796 -0.000000 0.000000
60  -0.004311 0.001230 -0.000371  0.006898 -0.005534 -0.284228
61  0.858610 10.209643 -2.211006  1.570796 -0.000000 0.000000
62  0.000000 0.000000 0.000000  -0.078728 -3.136056 0.284225
63  -2.323334 -2.221693 -0.426911  1.570796 -0.000000 0.000000
64  -2.284372 -8.929562 -1.823158  1.571221 -0.001791 -0.000516
65  -0.039397 -3.107036 0.976861  -0.000000 0.000000 -0.000000
66  -0.039395 -0.914783 14.099496  -0.000000 0.000000 -0.000000
67  -0.039396 -3.172346 3.170216  -0.000000 0.000000 -0.000000
68  -0.039395 -0.914783 4.985531  0.000000 -0.000000 0.000000
69  0.408672 -2.529140 3.193420  -0.000000 0.000000 -0.000000
70  -0.039396 0.091155 10.882012  -0.000000 0.000000 -0.000000
71  0.872713 0.008025 -1.510463  -0.000000 0.000000 -0.000000
72  -0.039397 -0.788819 2.900787  -0.000000 0.000000 -0.000000
73  0.595149 -1.458825 1.529926  -0.000000 0.000000 -0.000000
74  -2.276975 -13.634211 -5.922320  1.571221 -0.001791 -0.000516
75  -0.075783 2.864367 -0.991286  -0.000000 0.000000 -0.000000
76  -0.163938 2.611658 -0.991285  -0.000000 0.000000 -0.000000
time 13
0  0.031807 0.000000 -0.000718  -1.570800 -1.391899 -1.570792
1  -3.676403 -0.238821 2.232071  -1.544956 -1.855077 -0.198630
2  6.027521 -0.000327 0.000200  -0.762947 -0.921817 -1.485532
3  11.692101 0.000481 -0.000739  -0.887084 -0.000031 -1.456588
4  11.479304 0.000007 -0.001157  1.202191 -0.697843 0.248692
5  3.859504 -0.142876 -1.192065  -0.598621 -0.264961 -1.712884
6  1.312590 0.000017 0.000005  -0.134462 -0.003724 -0.161308
7  0.729355 0.000051 0.000046  -0.005670 -0.010354 -0.210237
8  3.942140 0.046276 -0.431528  -0.482643 0.151393 -1.222371
9  1.539110 0.000082 0.000000  -0.025938 -0.070135 -0.753602
10  1.196334 0.000144 0.000025  0.006041 0.002733 -0.689806
11  3.883505 -0.047265 0.431365  -0.291473 0.426599 -0.690305
12  1.719573 -0.000025 0.000011  0.002873 -0.110645 -1.064509
13  1.209178 0.000090 0.000007  -0.006934 -0.005858 -0.745304
14  4.085227 -0.082711 1.151024  -0.152788 0.511631 -0.407825
15  1.719448 -0.000011 0.000021  -0.018931 -0.027158 -0.352872
16  1.099675 0.000050 0.000004  -0.067217 0.033278 -1.489989
17  1.004893 -1.429782 1.158625  -1.212091 -0.479780 -0.146517
18  1.789822 -0.000004 -0.000016  0.000001 -0.000027 0.636396
19  1.207013 -0.000013 -0.000043  0.000006 -0.000006 -0.137934
20  5.740637 0.000363 -0.000700  -0.129068 0.000003 0.000060
21  11.480867 0.000140 -0.000883  -0.047997 -0.125224 0.011745
22  6.027523 -0.000330 0.000207  1.617092 -0.647639 1.579398
23  0.000002 11.692097 -0.000008  -1.003685 -0.452125 -0.793767
24  0.000005 0.000007 0.000000  -0.017987 -0.000031 1.570738
25  -0.000001 -0.000006 -0.000002  0.868967 -0.000009 1.570721
26  -3.991760 -9.653395 0.826810  1.473120 1.855074 -0.198639
27  6.027513 -0.000263 -0.000225  1.369844 0.658026 -0.778756
28  11.691998 0.000244 0.000862  -0.063525 0.000058 -1.691517
29  11.478625 -0.001400 0.000737  -0.949426 0.406292 0.802254
30  3.859437 -0.132762 1.193064  0.467771 0.012166 -2.080742
31  1.312560 0.000027 -0.000002  -0.002591 -0.086818 -0.325533
32  0.729345 0.000065 -0.000028  -0.149107 -0.099773 -0.829530
33  3.942048 0.050135 0.430999  0.236316 -0.061191 -1.662361
34  1.539097 0.000007 -0.000005  0.035034 -0.043250 -1.002024
35  1.196300 0.000077 -0.000007  -0.022154 0.002073 -0.844399
36  3.883414 -0.050477 -0.431085  0.224120 -0.254107 -1.343752
37  1.719564 -0.000081 -0.000014  0.017488 -0.103675 -1.461475
38  1.209198 0.000035 0.000004  -0.001906 0.071048 -0.519938
39  3.859587 -0.149085 -1.331321  -0.228052 -0.068101 -0.339217
40  1.719411 -0.000097 -0.000048  -0.018416 0.003886 -1.114011
41  1.099673 0.000024 -0.000002  -0.048482 0.059604 -0.690076
42  0.805983 -0.359849 -1.318339  0.991673 0.166770 -0.799523
43  1.789780 -0.000008 -0.000030  0.000056 -0.002451 0.133096
44  1.206998 -0.000004 0.000014  0.000370 -0.000069 1.058782
45  5.740575 0.000118 0.000727  0.161566 -0.000013 0.000032
46  11.480673 -0.000143 0.000901  0.092257 0.098055 0.117914
47  6.027516 -0.000277 -0.000232  -0.895220 -0.670256 -1.690229
48  -0.000000 11.691981 -0.000006  -1.142011 0.585263 0.877057
49  0.000003 -0.000001 -0.000001  2.209001 -0.000036 1.570861
50  -0.000006 -0.000014 0.000004  2.272646 -0.000031 1.570865
51  -3.173545 -4.710485 -7.280249  -0.061161 -3.037150 1.365283
52  0.000000 0.000000 -0.000000  0.008153 -0.000259 0.000009
53  -0.000000 -0.000000 -0.000000  1.565115 0.043565 -0.106862
54  -0.453023 -14.202505 -5.261016  -0.842828 -0.149001 -1.863174
55  0.000000 0.000000 -0.000000  0.000000 -0.000000 -0.000002
56  0.000031 0.000029 0.000001  -1.571901 -0.044449 -0.106509
57  10.502192 -7.472973 -18.384617  1.570796 -0.000000 0.000000
58  -15.744420 4.745377 -21.059811  1.570796 -0.000000 0.000000
59  2.268188 0.888834 -3.577183  1.570796 -0.000000 0.000000
60  -0.004311 0.001230 -0.000371  0.006898 -0.005534 -0.284228
61  0.858610 10.209643 -2.211006  1.570796 -0.000000 0.000000
62  0.000000 0.000000 0.000000  -0.078728 -3.136056 0.284225
63  -2.323334 -2.221693 -0.426911  1.570796 -0.000000 0.000000
64  -2.284849 -8.951520 -1.822034  1.570977 -0.002224 -0.000418
65  -0.039397 -3.107036 0.976860  0.000000 0.000000 -0.000000
66  -0.039395 -0.914784 14.099496  0.000000 0.000000 -0.000000
67  -0.039396 -3.172347 3.170214  0.000000 0.000000 -0.000000
68  -0.039395 -0.914783 4.985529  0.000000 -0.000000 0.000000
69  0.408671 -2.529140 3.193417  0.000000 0.000000 -0.000000
70  -0.039395 0.091155 10.882011  0.000000 0.000000 -0.000000
71  0.872713 0.008025 -1.510461  0.000000 0.000000 -0.000000
72  -0.039397 -0.788819 2.900787  0.000000 0.000000 -0.000000
73  0.595149 -1.458825 1.529926  0.000000 0.000000 -0.000000
74  -2.275220 -13.657170 -5.920042  1.570977 -0.002224 -0.000418
75  -0.075784 2.864367 -0.991286  0.000000 0.000000 -0.000000
76  -0.163939 2.611657 -0.991286  0.000000 0.000000 -0.000000
time 14
0  0.031807 0.000000 -0.000718  -1.570800 -1.391899 -1.570792
1  -3.676403 -0.238821 2.232071  -1.544956 -1.855077 -0.198630
2  6.027521 -0.000327 0.000200  -0.762837 -0.922569 -1.486271
3  11.692103 0.000483 -0.000739  -0.887084 -0.000031 -1.454444
4  11.479400 0.000046 -0.001107  1.202532 -0.696495 0.247703
5  3.859502 -0.142875 -1.192066  -0.598621 -0.264961 -1.712884
6  1.312590 0.000013 0.000005  -0.134462 -0.003724 -0.161308
7  0.729355 0.000052 0.000048  -0.005670 -0.010353 -0.210237
8  3.942139 0.046276 -0.431529  -0.482643 0.151393 -1.222371
9  1.539110 0.000082 0.000000  -0.025938 -0.070135 -0.753602
10  1.196332 0.000146 0.000025  0.006041 0.002733 -0.689806
11  3.883506 -0.047266 0.431364  -0.291473 0.426599 -0.690305
12  1.719572 -0.000025 0.000009  0.002873 -0.110645 -1.064509
13  1.209179 0.000091 0.000007  -0.006934 -0.005858 -0.745304
14  4.085226 -0.082711 1.151023  -0.152788 0.511631 -0.407825
15  1.719448 -0.000014 0.000019  -0.018931 -0.027158 -0.352872
16  1.099674 0.000050 0.000002  -0.067217 0.033277 -1.489989
17  1.004893 -1.429781 1.158624  -1.212091 -0.479780 -0.146517
18  1.789819 -0.000005 -0.000016  0.000001 -0.000027 0.636396
19  1.207014 -0.000013 -0.000042  0.000006 -0.000006 -0.137934
20  5.740636 0.000364 -0.000699  -0.128801 0.000003 0.000060
21  11.480886 0.000148 -0.000872  -0.048041 -0.124933 0.011632
22  6.027523 -0.000330 0.000207  1.616936 -0.646894 1.578842
23  0.000001 11.692097 -0.000007  -1.002408 -0.450959 -0.792940
24  0.000003 0.000007 -0.000002  -0.017986 -0.000031 1.570738
25  -0.000002 -0.000007 -0.000002  0.868967 -0.000009 1.570721
26  -3.991760 -9.653395 0.826810  1.473120 1.855074 -0.198639
27  6.027513 -0.000263 -0.000225  1.370091 0.659117 -0.778882
28  11.691999 0.000244 0.000861  -0.063525 0.000058 -1.689301
29  11.478728 -0.001326 0.000742  -0.949785 0.406093 0.800753
30  3.859439 -0.132763 1.193064  0.467771 0.012166 -2.080742
31  1.312559 0.000025 -0.000003  -0.002591 -0.086818 -0.325533
32  0.729346 0.000065 -0.000028  -0.149107 -0.099773 -0.829530
33  3.942048 0.050135 0.430999  0.236316 -0.061191 -1.662361
34  1.539097 0.000007 -0.000005  0.035034 -0.043250 -1.002024
35  1.196301 0.000078 -0.000008  -0.022154 0.002073 -0.844399
36  3.883414 -0.050477 -0.431085  0.224120 -0.254107 -1.343752
37  1.719564 -0.000082 -0.000014  0.017488 -0.103675 -1.461475
38  1.209197 0.000035 0.000005  -0.001906 0.071048 -0.519937
39  3.859588 -0.149085 -1.331321  -0.228052 -0.068101 -0.339217
40  1.719410 -0.000097 -0.000048  -0.018416 0.003886 -1.114011
41  1.099673 0.000025 -0.000001  -0.048482 0.059604 -0.690076
42  0.805983 -0.359849 -1.318338  0.991673 0.166770 -0.799523
43  1.789780 -0.000008 -0.000030  0.000056 -0.002451 0.133096
44  1.206997 -0.000004 0.000014  0.000370 -0.000069 1.058782
45  5.740573 0.000119 0.000727  0.161339 -0.000013 0.000032
46  11.480693 -0.000128 0.000901  0.092262 0.097934 0.117656
47  6.027516 -0.000277 -0.000232  -0.896167 -0.669434 -1.689918
48  -0.000000 11.691981 -0.000007  -1.140713 0.583962 0.876342
49  0.000004 -0.000003 0.000000  2.209001 -0.000036 1.570861
50  -0.000006 -0.000014 0.000004  2.272646 -0.000031 1.570865
51  -3.175188 -4.730316 -7.281618  -0.061339 -3.036864 1.365413
52  0.000000 -0.000000 -0.000000  0.008153 -0.000259 0.000009
53  0.000000 0.000000 0.000000  1.565115 0.043565 -0.106862
54  -0.453136 -14.221539 -5.260695  -0.842981 -0.149302 -1.863039
55  -0.000001 0.000001 -0.000000  0.000000 -0.000000 -0.000002
56  0.000029 0.000030 0.000001  -1.571902 -0.044449 -0.106509
57  10.502192 -7.472973 -18.384617  1.570796 -0.000000 0.000000
58  -15.744420 4.745377 -21.059811  1.570796 -0.000000 0.000000
59  2.268188 0.888834 -3.577183  1.570796 -0.000000 0.000000
60  -0.004311 0.001230 -0.000371  0.006898 -0.005534 -0.284228
61  0.858610 10.209643 -2.211006  1.570796 -0.000000 0.000000
62  0.000000 0.000000 0.000000  -0.078728 -3.136056 0.284225
63  -2.323334 -2.221693 -0.426911  1.570796 -0.000000 0.000000
64  -2.284755 -8.969918 -1.822572  1.570733 -0.001993 -0.000305
65  -0.039397 -3.107037 0.976860  -0.000000 -0.000000 0.000000
66  -0.039395 -0.914783 14.099496  -0.000000 -0.000000 0.000000
67  -0.039396 -3.172346 3.170214  -0.000000 -0.000000 0.000000
68  -0.039396 -0.914783 4.985530  0.000000 -0.000000 0.000000
69  0.408672 -2.529140 3.193419  -0.000000 -0.000000 0.000000
70  -0.039396 0.091155 10.882012  -0.000000 -0.000000 0.000000
71  0.872713 0.008025 -1.510465  -0.000000 -0.000000 0.000000
72  -0.039397 -0.788819 2.900787  -0.000000 -0.000000 0.000000
73  0.595149 -1.458825 1.529925  -0.000000 -0.000000 0.000000
74  -2.275546 -13.676569 -5.919433  1.570733 -0.001993 -0.000305
75  -0.075784 2.864366 -0.991287  -0.000000 -0.000000 0.000000
76  -0.163939 2.611657 -0.991287  -0.000000 -0.000000 0.000000
time 15
0  0.031807 0.000000 -0.000718  -1.570800 -1.391899 -1.570792
1  -3.676403 -0.238821 2.232071  -1.544956 -1.855077 -0.198630
2  6.027521 -0.000327 0.000200  -0.762699 -0.922820 -1.486578
3  11.692103 0.000482 -0.000740  -0.887084 -0.000031 -1.453489
4  11.479444 0.000062 -0.001085  1.202457 -0.695972 0.246880
5  3.859504 -0.142876 -1.192066  -0.598621 -0.264961 -1.712884
6  1.312589 0.000016 0.000004  -0.134462 -0.003724 -0.161308
7  0.729355 0.000054 0.000049  -0.005670 -0.010354 -0.210237
8  3.942139 0.046276 -0.431529  -0.482643 0.151393 -1.222371
9  1.539111 0.000082 -0.000000  -0.025938 -0.070135 -0.753602
10  1.196333 0.000145 0.000025  0.006041 0.002733 -0.689806
11  3.883506 -0.047266 0.431365  -0.291472 0.426599 -0.690306
12  1.719573 -0.000025 0.000012  0.002873 -0.110645 -1.064509
13  1.209177 0.000091 0.000007  -0.006934 -0.005858 -0.745304
14  4.085227 -0.082712 1.151023  -0.152788 0.511631 -0.407825
15  1.719448 -0.000014 0.000021  -0.018931 -0.027158 -0.352872
16  1.099674 0.000050 0.000004  -0.067217 0.033277 -1.489989
17  1.004893 -1.429782 1.158624  -1.212090 -0.479780 -0.146517
18  1.789819 -0.000004 -0.000016  0.000001 -0.000027 0.636396
19  1.207014 -0.000013 -0.000042  0.000006 -0.000006 -0.137934
20  5.740636 0.000364 -0.000699  -0.128763 0.000003 0.000060
21  11.480895 0.000151 -0.000868  -0.048117 -0.124815 0.011490
22  6.027523 -0.000330 0.000207  1.616809 -0.646650 1.578721
23  0.000001 11.692097 -0.000006  -1.001840 -0.450439 -0.792571
24  0.000004 0.000009 -0.000000  -0.017987 -0.000031 1.570738
25  -0.000002 -0.000007 -0.000001  0.868967 -0.000009 1.570721
26  -3.991760 -9.653395 0.826810  1.473120 1.855074 -0.198639
27  6.027513 -0.000263 -0.000225  1.370356 0.659448 -0.778850
28  11.691998 0.000245 0.000862  -0.063525 0.000058 -1.688375
29  11.478773 -0.001295 0.000743  -0.950467 0.405881 0.799809
30  3.859438 -0.132762 1.193065  0.467771 0.012166 -2.080742
31  1.312559 0.000026 -0.000003  -0.002591 -0.086818 -0.325533
32  0.729345 0.000066 -0.000029  -0.149107 -0.099773 -0.829530
33  3.942047 0.050135 0.430999  0.236316 -0.061191 -1.662361
34  1.539097 0.000007 -0.000004  0.035034 -0.043250 -1.002024
35  1.196301 0.000077 -0.000007  -0.022154 0.002073 -0.844399
36  3.883413 -0.050477 -0.431085  0.224120 -0.254107 -1.343752
37  1.719564 -0.000080 -0.000014  0.017488 -0.103675 -1.461475
38  1.209198 0.000035 0.000005  -0.001906 0.071048 -0.519937
39  3.859588 -0.149085 -1.331321  -0.228052 -0.068101 -0.339217
40  1.719411 -0.000097 -0.000048  -0.018416 0.003886 -1.114011
41  1.099674 0.000025 -0.000001  -0.048482 0.059604 -0.690076
42  0.805983 -0.359849 -1.318338  0.991674 0.166770 -0.799523
43  1.789780 -0.000008 -0.000030  0.000056 -0.002451 0.133096
44  1.206996 -0.000004 0.000014  0.000370 -0.000069 1.058782
45  5.740575 0.000118 0.000726  0.161131 -0.000013 0.000032
46  11.480702 -0.000122 0.000902  0.092189 0.097812 0.117523
47  6.027516 -0.000277 -0.000232  -0.896338 -0.669065 -1.689942
48  -0.000001 11.691982 -0.000008  -1.140171 0.583419 0.876044
49  0.000003 -0.000002 0.000000  2.209001 -0.000036 1.570861
50  -0.000007 -0.000014 0.000003  2.272646 -0.000031 1.570865
51  -3.178449 -4.738737 -7.282881  -0.061859 -3.036643 1.365579
52  0.000000 -0.000000 0.000000  0.008153 -0.000259 0.000009
53  -0.000000 -0.000000 0.000000  1.565115 0.043565 -0.106862
54  -0.454219 -14.229429 -5.262407  -0.843483 -0.149567 -1.862853
55  0.000001 0.000000 0.000000  0.000000 -0.000000 -0.000002
56  0.000031 0.000029 0.000001  -1.571901 -0.044449 -0.106509
57  10.502192 -7.472973 -18.384617  1.570796 -0.000000 0.000000
58  -15.744420 4.745377 -21.059811  1.570796 -0.000000 0.000000
59  2.268188 0.888834 -3.577183  1.570796 -0.000000 0.000000
60  -0.004311 0.001230 -0.000371  0.006898 -0.005534 -0.284228
61  0.858610 10.209643 -2.211006  1.570796 -0.000000 0.000000
62  0.000000 0.000000 0.000000  -0.078728 -3.136056 0.284225
63  -2.323334 -2.221693 -0.426911  1.570796 -0.000000 0.000000
64  -2.284529 -8.977633 -1.823857  1.570621 -0.001441 -0.000193
65  -0.039397 -3.107036 0.976860  0.000000 0.000000 0.000000
66  -0.039396 -0.914784 14.099494  0.000000 0.000000 0.000000
67  -0.039396 -3.172346 3.170215  0.000000 0.000000 0.000000
68  -0.039396 -0.914783 4.985530  0.000000 -0.000000 0.000000
69  0.408671 -2.529140 3.193418  0.000000 0.000000 0.000000
70  -0.039396 0.091155 10.882010  0.000000 0.000000 0.000000
71  0.872713 0.008025 -1.510463  0.000000 0.000000 0.000000
72  -0.039397 -0.788819 2.900786  0.000000 0.000000 0.000000
73  0.595149 -1.458825 1.529926  0.000000 0.000000 0.000000
74  -2.277053 -13.684738 -5.920199  1.570621 -0.001441 -0.000193
75  -0.075783 2.864367 -0.991287  0.000000 0.000000 0.000000
76  -0.163938 2.611657 -0.991286  0.000000 0.000000 0.000000
time 16
0  0.031807 0.000000 -0.000718  -1.570800 -1.391899 -1.570792
1  -3.676403 -0.238821 2.232071  -1.544956 -1.855077 -0.198630
2  6.027521 -0.000327 0.000200  -0.762597 -0.922554 -1.486402
3  11.692103 0.000481 -0.000738  -0.887084 -0.000031 -1.453872
4  11.479425 0.000057 -0.001095  1.202050 -0.696346 0.246454
5  3.859504 -0.142876 -1.192065  -0.598621 -0.264961 -1.712884
6  1.312590 0.000014 0.000005  -0.134462 -0.003724 -0.161308
7  0.729354 0.000052 0.000047  -0.005670 -0.010354 -0.210237
8  3.942142 0.046277 -0.431528  -0.482643 0.151393 -1.222371
9  1.539111 0.000082 0.000001  -0.025938 -0.070135 -0.753602
10  1.196332 0.000145 0.000024  0.006041 0.002733 -0.689806
11  3.883506 -0.047266 0.431365  -0.291472 0.426599 -0.690306
12  1.719572 -0.000026 0.000011  0.002873 -0.110645 -1.064509
13  1.209179 0.000091 0.000009  -0.006934 -0.005858 -0.745304
14  4.085228 -0.082712 1.151024  -0.152788 0.511631 -0.407825
15  1.719448 -0.000012 0.000021  -0.018931 -0.027158 -0.352872
16  1.099675 0.000050 0.000002  -0.067217 0.033278 -1.489989
17  1.004894 -1.429782 1.158625  -1.212091 -0.479780 -0.146517
18  1.789818 -0.000005 -0.000017  0.000001 -0.000027 0.636396
19  1.207015 -0.000013 -0.000042  0.000006 -0.000006 -0.137934
20  5.740636 0.000365 -0.000699  -0.128936 0.000003 0.000060
21  11.480890 0.000150 -0.000871  -0.048197 -0.124886 0.011367
22  6.027523 -0.000330 0.000207  1.616757 -0.646920 1.579009
23  0.000003 11.692098 -0.000006  -1.002068 -0.450647 -0.792719
24  0.000003 0.000007 0.000000  -0.017986 -0.000031 1.570738
25  -0.000001 -0.000006 -0.000001  0.868967 -0.000009 1.570721
26  -3.991760 -9.653395 0.826810  1.473120 1.855074 -0.198639
27  6.027513 -0.000263 -0.000225  1.370562 0.659016 -0.778688
28  11.691999 0.000244 0.000863  -0.063525 0.000058 -1.688857
29  11.478750 -0.001309 0.000741  -0.951223 0.405698 0.799631
30  3.859437 -0.132762 1.193064  0.467771 0.012166 -2.080742
31  1.312559 0.000027 -0.000001  -0.002591 -0.086818 -0.325533
32  0.729346 0.000066 -0.000028  -0.149107 -0.099773 -0.829530
33  3.942047 0.050135 0.430999  0.236316 -0.061191 -1.662361
34  1.539097 0.000007 -0.000006  0.035034 -0.043250 -1.002024
35  1.196300 0.000077 -0.000009  -0.022154 0.002073 -0.844399
36  3.883413 -0.050477 -0.431085  0.224120 -0.254107 -1.343752
37  1.719564 -0.000081 -0.000014  0.017488 -0.103675 -1.461475
38  1.209198 0.000035 0.000004  -0.001906 0.071048 -0.519937
39  3.859587 -0.149085 -1.331321  -0.228052 -0.068101 -0.339217
40  1.719409 -0.000097 -0.000048  -0.018416 0.003886 -1.114011
41  1.099673 0.000025 -0.000002  -0.048482 0.059604 -0.690076
42  0.805983 -0.359849 -1.318338  0.991674 0.166770 -0.799523
43  1.789780 -0.000008 -0.000030  0.000056 -0.002451 0.133096
44  1.206998 -0.000005 0.000014  0.000371 -0.000069 1.058782
45  5.740573 0.000120 0.000726  0.161003 -0.000013 0.000032
46  11.480696 -0.000124 0.000902  0.092074 0.097722 0.117540
47  6.027516 -0.000277 -0.000232  -0.895775 -0.669201 -1.690255
48  0.000001 11.691980 -0.000006  -1.140453 0.583702 0.876199
49  0.000003 -0.000004 -0.000000  2.209001 -0.000036 1.570861
50  -0.000007 -0.000014 0.000004  2.272646 -0.000031 1.570865
51  -3.182187 -4.734670 -7.283631  -0.062517 -3.036553 1.365746
52  -0.000000 -0.000000 -0.000001  0.008153 -0.000259 0.000009
53  -0.000000 -0.000000 -0.000000  1.565115 0.043565 -0.106862
54  -0.455700 -14.225188 -5.265383  -0.844134 -0.149713 -1.862658
55  -0.000001 -0.000000 0.000000  0.000000 -0.000000 -0.000002
56  0.000029 0.000029 0.000001  -1.571901 -0.044449 -0.106509
57  10.502192 -7.472973 -18.384617  1.570796 -0.000000 0.000000
58  -15.744420 4.745377 -21.059811  1.570796 -0.000000 0.000000
59  2.268188 0.888834 -3.577183  1.570796 -0.000000 0.000000
60  -0.004311 0.001230 -0.000371  0.006898 -0.005534 -0.284228
61  0.858610 10.209643 -2.211006  1.570796 -0.000000 0.000000
62  0.000000 0.000000 0.000000  -0.078728 -3.136056 0.284225
63  -2.323334 -2.221693 -0.426911  1.570796 -0.000000 0.000000
64  -2.284259 -8.973726 -1.825390  1.570667 -0.000783 -0.000095
65  -0.039397 -3.107036 0.976860  -0.000000 0.000000 -0.000000
66  -0.039395 -0.914784 14.099494  -0.000000 0.000000 -0.000000
67  -0.039396 -3.172347 3.170215  -0.000000 0.000000 -0.000000
68  -0.039396 -0.914783 4.985529  0.000000 -0.000000 0.000000
69  0.408672 -2.529140 3.193418  -0.000000 0.000000 -0.000000
70  -0.039395 0.091155 10.882011  -0.000000 0.000000 -0.000000
71  0.872713 0.008025 -1.510463  -0.000000 0.000000 -0.000000
72  -0.039397 -0.788819 2.900786  -0.000000 0.000000 -0.000000
73  0.595149 -1.458825 1.529925  -0.000000 0.000000 -0.000000
74  -2.279020 -13.680644 -5.921951  1.570667 -0.000783 -0.000095
75  -0.075784 2.864367 -0.991288  -0.000000 0.000000 -0.000000
76  -0.163939 2.611658 -0.991287  -0.000000 0.000000 -0.000000
time 17
0  0.031807 0.000000 -0.000718  -1.570800 -1.391899 -1.570792
1  -3.676403 -0.238821 2.232071  -1.544956 -1.855077 -0.198630
2  6.027521 -0.000327 0.000200  -0.762527 -0.922162 -1.486094
3  11.692102 0.000483 -0.000739  -0.887084 -0.000031 -1.454650
4  11.479391 0.000041 -0.001111  1.201620 -0.696957 0.246260
5  3.859504 -0.142876 -1.192066  -0.598621 -0.264961 -1.712884
6  1.312590 0.000016 0.000007  -0.134462 -0.003724 -0.161308
7  0.729355 0.000053 0.000048  -0.005670 -0.010354 -0.210237
8  3.942139 0.046276 -0.431529  -0.482643 0.151393 -1.222371
9  1.539109 0.000082 -0.000001  -0.025938 -0.070135 -0.753602
10  1.196335 0.000145 0.000023  0.006041 0.002733 -0.689806
11  3.883506 -0.047266 0.431364  -0.291473 0.426599 -0.690305
12  1.719573 -0.000025 0.000011  0.002873 -0.110645 -1.064509
13  1.209178 0.000090 0.000005  -0.006934 -0.005858 -0.745304
14  4.085228 -0.082711 1.151023  -0.152788 0.511631 -0.407825
15  1.719448 -0.000012 0.000019  -0.018931 -0.027158 -0.352872
16  1.099675 0.000049 0.000003  -0.067217 0.033278 -1.489989
17  1.004893 -1.429781 1.158624  -1.212091 -0.479780 -0.146517
18  1.789819 -0.000005 -0.000016  0.000001 -0.000027 0.636397
19  1.207014 -0.000013 -0.000043  0.000006 -0.000006 -0.137934
20  5.740636 0.000364 -0.000698  -0.129146 0.000003 0.000060
21  11.480884 0.000147 -0.000873  -0.048260 -0.125009 0.011277
22  6.027523 -0.000330 0.000207  1.616742 -0.647314 1.579382
23  0.000002 11.692098 -0.000007  -1.002531 -0.451071 -0.793020
24  0.000003 0.000007 -0.000000  -0.017987 -0.000031 1.570738
25  -0.000001 -0.000007 -0.000002  0.868967 -0.000009 1.570721
26  -3.991760 -9.653395 0.826810  1.473120 1.855074 -0.198639
27  6.027513 -0.000263 -0.000225  1.370700 0.658405 -0.778515
28  11.691998 0.000244 0.000861  -0.063525 0.000058 -1.689737
29  11.478706 -0.001337 0.000740  -0.951838 0.405574 0.799760
30  3.859438 -0.132762 1.193064  0.467771 0.012166 -2.080742
31  1.312559 0.000028 -0.000001  -0.002591 -0.086818 -0.325533
32  0.729346 0.000065 -0.000029  -0.149107 -0.099773 -0.829530
33  3.942048 0.050135 0.430999  0.236316 -0.061191 -1.662361
34  1.539097 0.000008 -0.000005  0.035034 -0.043250 -1.002024
35  1.196302 0.000077 -0.000008  -0.022154 0.002073 -0.844399
36  3.883414 -0.050477 -0.431085  0.224120 -0.254107 -1.343752
37  1.719565 -0.000081 -0.000014  0.017488 -0.103675 -1.461475
38  1.209197 0.000034 0.000005  -0.001906 0.071048 -0.519937
39  3.859588 -0.149086 -1.331321  -0.228052 -0.068101 -0.339217
40  1.719409 -0.000097 -0.000048  -0.018416 0.003886 -1.114011
41  1.099673 0.000024 -0.000002  -0.048482 0.059604 -0.690076
42  0.805983 -0.359849 -1.318338  0.991674 0.166770 -0.799523
43  1.789780 -0.000008 -0.000030  0.000056 -0.002451 0.133096
44  1.206997 -0.000004 0.000013  0.000370 -0.000069 1.058782
45  5.740572 0.000120 0.000727  0.160932 -0.000013 0.000032
46  11.480686 -0.000129 0.000902  0.091968 0.097665 0.117606
47  6.027516 -0.000277 -0.000232  -0.895073 -0.669489 -1.690602
48  -0.000000 11.691981 -0.000006  -1.140969 0.584218 0.876483
49  0.000003 -0.000002 -0.000000  2.209001 -0.000036 1.570861
50  -0.000006 -0.000013 0.000005  2.272646 -0.000031 1.570865
51  -3.185265 -4.727017 -7.284062  -0.063077 -3.036523 1.365874
52  -0.000000 0.000000 -0.000000  0.008153 -0.000259 0.000009
53  0.000000 -0.000000 0.000000  1.565115 0.043565 -0.106862
54  -0.457009 -14.217518 -5.268118  -0.844693 -0.149791 -1.862505
55  0.000000 0.000000 0.000000  0.000000 -0.000000 -0.000002
56  0.000030 0.000029 0.000001  -1.571902 -0.044449 -0.106509
57  10.502192 -7.472973 -18.384617  1.570796 -0.000000 0.000000
58  -15.744420 4.745377 -21.059811  1.570796 -0.000000 0.000000
59  2.268188 0.888834 -3.577183  1.570796 -0.000000 0.000000
60  -0.004311 0.001230 -0.000371  0.006898 -0.005534 -0.284228
61  0.858610 10.209643 -2.211006  1.570796 -0.000000 0.000000
62  0.000000 0.000000 0.000000  -0.078728 -3.136056 0.284225
63  -2.323334 -2.221693 -0.426911  1.570796 -0.000000 0.000000
64  -2.284033 -8.966472 -1.826674  1.570751 -0.000231 -0.000026
65  -0.039397 -3.107036 0.976859  0.000000 0.000000 0.000000
66  -0.039395 -0.914784 14.099495  0.000000 0.000000 0.000000
67  -0.039396 -3.172347 3.170214  0.000000 0.000000 0.000000
68  -0.039395 -0.914783 4.985528  0.000000 -0.000000 0.000000
69  0.408672 -2.529140 3.193418  0.000000 0.000000 0.000000
70  -0.039395 0.091155 10.882010  0.000000 0.000000 0.000000
71  0.872713 0.008025 -1.510464  0.000000 0.000000 0.000000
72  -0.039397 -0.788819 2.900785  0.000000 0.000000 0.000000
73  0.595149 -1.458825 1.529925  0.000000 0.000000 0.000000
74  -2.280729 -13.673044 -5.923634  1.570751 -0.000231 -0.000026
75  -0.075783 2.864367 -0.991288  0.000000 0.000000 0.000000
76  -0.163939 2.611658 -0.991288  0.000000 0.000000 0.000000
time 18
0  0.031807 0.000000 -0.000718  -1.570800 -1.391899 -1.570792
1  -3.676403 -0.238821 2.232071  -1.544956 -1.855077 -0.198630
2  6.027521 -0.000327 0.000200  -0.762501 -0.921961 -1.485931
3  11.692101 0.000482 -0.000739  -0.887084 -0.000031 -1.455076
4  11.479372 0.000035 -0.001120  1.201420 -0.697278 0.246214
5  3.859502 -0.142876 -1.192065  -0.598621 -0.264961 -1.712884
6  1.312590 0.000014 0.000005  -0.134462 -0.003724 -0.161308
7  0.729354 0.000052 0.000047  -0.005670 -0.010354 -0.210237
8  3.942141 0.046276 -0.431528  -0.482643 0.151393 -1.222371
9  1.539110 0.000082 -0.000000  -0.025938 -0.070135 -0.753602
10  1.196333 0.000144 0.000024  0.006041 0.002733 -0.689806
11  3.883505 -0.047266 0.431365  -0.291473 0.426599 -0.690305
12  1.719573 -0.000025 0.000010  0.002873 -0.110645 -1.064509
13  1.209178 0.000090 0.000007  -0.006934 -0.005858 -0.745304
14  4.085227 -0.082712 1.151024  -0.152788 0.511631 -0.407825
15  1.719448 -0.000013 0.000018  -0.018931 -0.027158 -0.352872
16  1.099675 0.000048 0.000003  -0.067217 0.033277 -1.489989
17  1.004893 -1.429782 1.158624  -1.212091 -0.479780 -0.146517
18  1.789818 -0.000004 -0.000017  0.000001 -0.000027 0.636396
19  1.207014 -0.000013 -0.000043  0.000006 -0.000006 -0.137934
20  5.740635 0.000365 -0.000700  -0.129248 0.000003 0.000060
21  11.480880 0.000145 -0.000875  -0.048285 -0.125074 0.011242
22  6.027523 -0.000330 0.000207  1.616741 -0.647515 1.579566
23  0.000001 11.692097 -0.000007  -1.002785 -0.451303 -0.793184
24  0.000004 0.000008 0.000000  -0.017987 -0.000031 1.570738
25  -0.000001 -0.000007 -0.000002  0.868967 -0.000009 1.570721
26  -3.991760 -9.653395 0.826810  1.473120 1.855074 -0.198639
27  6.027513 -0.000263 -0.000225  1.370750 0.658094 -0.778435
28  11.691998 0.000244 0.000862  -0.063525 0.000058 -1.690209
29  11.478688 -0.001356 0.000740  -0.952093 0.405527 0.799875
30  3.859438 -0.132763 1.193064  0.467771 0.012166 -2.080742
31  1.312559 0.000026 -0.000002  -0.002591 -0.086818 -0.325533
32  0.729345 0.000065 -0.000028  -0.149107 -0.099773 -0.829530
33  3.942048 0.050135 0.430999  0.236316 -0.061191 -1.662361
34  1.539097 0.000007 -0.000005  0.035034 -0.043250 -1.002024
35  1.196300 0.000077 -0.000007  -0.022154 0.002073 -0.844399
36  3.883413 -0.050476 -0.431085  0.224120 -0.254107 -1.343752
37  1.719564 -0.000081 -0.000014  0.017488 -0.103675 -1.461475
38  1.209198 0.000036 0.000005  -0.001906 0.071048 -0.519937
39  3.859587 -0.149085 -1.331321  -0.228052 -0.068101 -0.339217
40  1.719410 -0.000097 -0.000048  -0.018416 0.003886 -1.114011
41  1.099674 0.000025 -0.000001  -0.048482 0.059604 -0.690076
42  0.805983 -0.359849 -1.318338  0.991673 0.166770 -0.799523
43  1.789781 -0.000008 -0.000030  0.000056 -0.002451 0.133096
44  1.206997 -0.000004 0.000014  0.000370 -0.000069 1.058782
45  5.740575 0.000118 0.000727  0.160909 -0.000013 0.000032
46  11.480684 -0.000134 0.000902  0.091921 0.097645 0.117644
47  6.027516 -0.000277 -0.000232  -0.894729 -0.669648 -1.690767
48  0.000000 11.691981 -0.000007  -1.141245 0.584495 0.876635
49  0.000004 -0.000004 0.000000  2.209001 -0.000036 1.570861
50  -0.000006 -0.000014 0.000004  2.272646 -0.000031 1.570865
51  -3.186544 -4.722886 -7.284200  -0.063314 -3.036520 1.365925
52  -0.000001 0.000000 0.000000  0.008153 -0.000259 0.000009
53  -0.000000 -0.000000 0.000000  1.565115 0.043565 -0.106862
54  -0.457573 -14.213406 -5.269318  -0.844930 -0.149814 -1.862444
55  -0.000001 -0.000000 0.000000  0.000000 -0.000000 -0.000002
56  0.000029 0.000029 0.000001  -1.571902 -0.044449 -0.106509
57  10.502192 -7.472973 -18.384617  1.570796 -0.000000 0.000000
58  -15.744420 4.745377 -21.059811  1.570796 -0.000000 0.000000
59  2.268188 0.888834 -3.577183  1.570796 -0.000000 0.000000
60  -0.004311 0.001230 -0.000371  0.006898 -0.005534 -0.284228
61  0.858610 10.209643 -2.211006  1.570796 -0.000000 0.000000
62  0.000000 0.000000 0.000000  -0.078728 -3.136056 0.284225
63  -2.323334 -2.221693 -0.426911  1.570796 -0.000000 0.000000
64  -2.283938 -8.962564 -1.827213  1.570796 -0.000000 0.000000
65  -0.039397 -3.107036 0.976860  0.000000 -0.000000 0.000000
66  -0.039395 -0.914783 14.099495  0.000000 -0.000000 0.000000
67  -0.039396 -3.172346 3.170215  0.000000 -0.000000 0.000000
68  -0.039396 -0.914783 4.985530  0.000000 -0.000000 0.000000
69  0.408672 -2.529140 3.193419  0.000000 -0.000000 0.000000
70  -0.039396 0.091155 10.882011  0.000000 -0.000000 0.000000
71  0.872713 0.008025 -1.510462  0.000000 -0.000000 0.000000
72  -0.039397 -0.788819 2.900786  0.000000 -0.000000 0.000000
73  0.595149 -1.458825 1.529925  0.000000 -0.000000 0.000000
74  -2.281458 -13.668951 -5.924387  1.570796 -0.000000 0.000000
75  -0.075783 2.864367 -0.991287  0.000000 -0.000000 0.000000
76  -0.163939 2.611657 -0.991286  0.000000 -0.000000 0.000000
end
