version 1
nodes
0 "ValveBiped.Bip01_Spine4" -1
1 "ValveBiped.Bip01_L_Clavicle" 0
2 "ValveBiped.Bip01_L_UpperArm" 1
3 "ValveBiped.Bip01_L_Forearm" 2
4 "ValveBiped.Bip01_L_Hand" 3
5 "ValveBiped.Bip01_L_Finger4" 4
6 "ValveBiped.Bip01_L_Finger41" 5
7 "ValveBiped.Bip01_L_Finger42" 6
8 "ValveBiped.Bip01_L_Finger3" 4
9 "ValveBiped.Bip01_L_Finger31" 8
10 "ValveBiped.Bip01_L_Finger32" 9
11 "ValveBiped.Bip01_L_Finger2" 4
12 "ValveBiped.Bip01_L_Finger21" 11
13 "ValveBiped.Bip01_L_Finger22" 12
14 "ValveBiped.Bip01_L_Finger1" 4
15 "ValveBiped.Bip01_L_Finger11" 14
16 "ValveBiped.Bip01_L_Finger12" 15
17 "ValveBiped.Bip01_L_Finger0" 4
18 "ValveBiped.Bip01_L_Finger01" 17
19 "ValveBiped.Bip01_L_Finger02" 18
20 "ValveBiped.Bip01_L_Ulna" 3
21 "ValveBiped.Bip01_L_Wrist" 3
22 "rig_l_upperarm" 1
23 "rig_l_forearm" 22
24 "rig_d_l_forearm" 23
25 "rig_d_l_upperarm" 22
26 "ValveBiped.Bip01_R_Clavicle" 0
27 "ValveBiped.Bip01_R_UpperArm" 26
28 "ValveBiped.Bip01_R_Forearm" 27
29 "ValveBiped.Bip01_R_Hand" 28
30 "ValveBiped.Bip01_R_Finger4" 29
31 "ValveBiped.Bip01_R_Finger41" 30
32 "ValveBiped.Bip01_R_Finger42" 31
33 "ValveBiped.Bip01_R_Finger3" 29
34 "ValveBiped.Bip01_R_Finger31" 33
35 "ValveBiped.Bip01_R_Finger32" 34
36 "ValveBiped.Bip01_R_Finger2" 29
37 "ValveBiped.Bip01_R_Finger21" 36
38 "ValveBiped.Bip01_R_Finger22" 37
39 "ValveBiped.Bip01_R_Finger1" 29
40 "ValveBiped.Bip01_R_Finger11" 39
41 "ValveBiped.Bip01_R_Finger12" 40
42 "ValveBiped.Bip01_R_Finger0" 29
43 "ValveBiped.Bip01_R_Finger01" 42
44 "ValveBiped.Bip01_R_Finger02" 43
45 "ValveBiped.Bip01_R_Ulna" 28
46 "ValveBiped.Bip01_R_Wrist" 28
47 "rig_r_upperarm" 26
48 "rig_r_forearm" 47
49 "rig_d_r_forearm" 48
50 "rig_d_r_upperarm" 47
51 "rig_r_hand" -1
52 "rig_d_r_hand" 51
53 "rig_d_r_wrist" 52
54 "rig_l_hand" -1
55 "rig_d_l_hand" 54
56 "rig_d_l_wrist" 54
57 "rig_l_pole" -1
58 "rig_r_pole" -1
59 "rig_l_clavicle" -1
60 "rig_d_l_clavicle" 59
61 "rig_r_clavicle" -1
62 "rig_d_r_clavicle" 61
63 "Camera" -1
64 "body" -1
65 "trigger" 64
66 "barrel" 64
67 "magrel" 64
68 "bullet1" 64
69 "magrel2" 64
70 "chandle2" 64
71 "chandle" 70
72 "bolt" 64
73 "boltrelease" 64
74 "mag" -1
75 "bullet2" 74
76 "bullet3" 74
end
skeleton
time 0
0  0.031807 0.000000 -0.000718  -1.570800 -1.391899 -1.570792
1  -3.676403 -0.238821 2.232071  -1.544956 -1.855077 -0.198630
2  6.027521 -0.000327 0.000200  -0.751162 -0.920453 -1.491485
3  11.692104 0.000484 -0.000740  -0.887084 -0.000031 -1.449426
4  11.479601 0.000123 -0.001008  1.179587 -0.704954 0.215058
5  3.859505 -0.142875 -1.192066  -0.598621 -0.264961 -1.712884
6  1.312590 0.000016 0.000004  -0.134462 -0.003724 -0.161308
7  0.729355 0.000052 0.000046  -0.005670 -0.010354 -0.210237
8  3.942142 0.046277 -0.431529  -0.482643 0.151393 -1.222371
9  1.539111 0.000083 0.000001  -0.025938 -0.070135 -0.753602
10  1.196333 0.000146 0.000025  0.006041 0.002733 -0.689806
11  3.883508 -0.047265 0.431365  -0.291473 0.426599 -0.690306
12  1.719573 -0.000026 0.000010  0.002873 -0.110645 -1.064509
13  1.209180 0.000090 0.000008  -0.006934 -0.005858 -0.745304
14  4.085228 -0.082712 1.151023  -0.152788 0.511631 -0.407825
15  1.719449 -0.000013 0.000022  -0.018931 -0.027158 -0.352872
16  1.099676 0.000049 0.000003  -0.067217 0.033277 -1.489989
17  1.004895 -1.429781 1.158624  -1.212091 -0.479780 -0.146517
18  1.789817 -0.000006 -0.000016  0.000001 -0.000027 0.636396
19  1.207016 -0.000013 -0.000042  0.000006 -0.000006 -0.137934
20  5.740635 0.000364 -0.000697  -0.136983 0.000003 0.000060
21  11.480925 0.000162 -0.000852  -0.053518 -0.126261 0.003509
22  6.027523 -0.000330 0.000207  1.608286 -0.649493 1.588149
23  0.000001 11.692096 -0.000007  -0.999420 -0.448231 -0.791000
24  0.000003 0.000006 0.000001  -0.017987 -0.000031 1.570738
25  -0.000002 -0.000007 -0.000002  0.868967 -0.000009 1.570721
26  -3.991760 -9.653395 0.826810  1.473120 1.855074 -0.198639
27  6.027513 -0.000263 -0.000225  1.391166 0.649850 -0.769438
28  11.691999 0.000245 0.000862  -0.063525 0.000058 -1.693961
29  11.480650 -0.000207 0.000812  -1.002261 0.387106 0.777171
30  3.859438 -0.132762 1.193064  0.467771 0.012166 -2.080742
31  1.312559 0.000027 -0.000002  -0.002591 -0.086818 -0.325533
32  0.729345 0.000065 -0.000028  -0.149107 -0.099773 -0.829530
33  3.942047 0.050135 0.430999  0.236316 -0.061191 -1.662361
34  1.539097 0.000006 -0.000005  0.035034 -0.043250 -1.002024
35  1.196300 0.000078 -0.000008  -0.022154 0.002073 -0.844399
36  3.883414 -0.050477 -0.431085  0.224120 -0.254107 -1.343752
37  1.719564 -0.000081 -0.000015  0.017488 -0.103675 -1.461475
38  1.209199 0.000035 0.000006  -0.001906 0.071048 -0.519937
39  3.859588 -0.149085 -1.331321  -0.228052 -0.068101 -0.339217
40  1.719410 -0.000097 -0.000049  -0.018416 0.003886 -1.114011
41  1.099673 0.000025 -0.000001  -0.048482 0.059604 -0.690076
42  0.805983 -0.359849 -1.318339  0.991673 0.166770 -0.799523
43  1.789780 -0.000008 -0.000030  0.000056 -0.002451 0.133096
44  1.206997 -0.000004 0.000013  0.000370 -0.000069 1.058782
45  5.740574 0.000120 0.000728  0.151996 -0.000013 0.000032
46  11.481076 0.000097 0.000917  0.085077 0.090171 0.116956
47  6.027516 -0.000277 -0.000232  -0.873959 -0.661669 -1.707017
48  0.000000 11.691980 -0.000007  -1.143443 0.586698 0.877843
49  0.000003 -0.000002 0.000000  2.209001 -0.000036 1.570861
50  -0.000006 -0.000015 0.000004  2.272646 -0.000031 1.570865
51  -3.439117 -4.728687 -7.240910  -0.104132 -3.028496 1.376915
52  0.000000 -0.000000 -0.000000  0.008153 -0.000259 0.000009
53  -0.000000 -0.000000 -0.000000  1.565115 0.043565 -0.106862
54  -0.567169 -14.201214 -5.343502  -0.885153 -0.161290 -1.849666
55  0.000000 -0.000000 0.000000  0.000000 -0.000000 -0.000002
56  0.000030 0.000029 0.000001  -1.571902 -0.044449 -0.106509
57  10.502192 -7.472973 -18.384617  1.570796 -0.000000 0.000000
58  -15.744420 4.745377 -21.059811  1.570796 -0.000000 0.000000
59  2.268188 0.888834 -3.577183  1.570796 -0.000000 0.000000
60  -0.004311 0.001230 -0.000371  0.006898 -0.005534 -0.284228
61  0.858610 10.209643 -2.211006  1.570796 -0.000000 0.000000
62  0.000000 0.000000 0.000000  -0.078728 -3.136056 0.284225
63  0.031801 0.000000 -0.000718  1.570796 -0.000000 0.000000
64  -2.283938 -8.962564 -1.827213  1.571103 0.041360 0.006551
65  -0.039397 -3.107036 0.976860  -0.000000 -0.000000 -0.000000
66  -0.039395 -0.914783 14.099497  -0.000000 -0.000000 -0.000000
67  -0.039396 -3.172347 3.170215  -0.000000 -0.000000 -0.000000
68  -0.039397 -1.229303 3.715101  -0.000000 -0.000000 -0.000000
69  0.408671 -2.529140 3.193419  -0.000000 -0.000000 -0.000000
70  -0.039396 0.091155 10.882012  -0.000000 -0.000000 -0.000000
71  0.872713 0.008025 -1.510462  -0.000000 -0.000000 -0.000000
72  -0.039397 -0.788819 2.900786  -0.000000 -0.000000 -0.000000
73  0.595149 -1.458825 1.529926  -0.000000 -0.000000 -0.000000
74  -2.420103 -13.668686 -5.922430  1.571103 0.041360 0.006551
75  -0.075784 2.864367 -0.991288  -0.000000 -0.000000 -0.000000
76  -0.163939 2.611657 -0.991287  -0.000000 -0.000000 -0.000000
end
