version 1
nodes
0 "ValveBiped.Bip01_Spine4" -1
1 "ValveBiped.Bip01_L_Clavicle" 0
2 "ValveBiped.Bip01_L_UpperArm" 1
3 "ValveBiped.Bip01_L_Forearm" 2
4 "ValveBiped.Bip01_L_Hand" 3
5 "ValveBiped.Bip01_L_Finger4" 4
6 "ValveBiped.Bip01_L_Finger41" 5
7 "ValveBiped.Bip01_L_Finger42" 6
8 "ValveBiped.Bip01_L_Finger3" 4
9 "ValveBiped.Bip01_L_Finger31" 8
10 "ValveBiped.Bip01_L_Finger32" 9
11 "ValveBiped.Bip01_L_Finger2" 4
12 "ValveBiped.Bip01_L_Finger21" 11
13 "ValveBiped.Bip01_L_Finger22" 12
14 "ValveBiped.Bip01_L_Finger1" 4
15 "ValveBiped.Bip01_L_Finger11" 14
16 "ValveBiped.Bip01_L_Finger12" 15
17 "ValveBiped.Bip01_L_Finger0" 4
18 "ValveBiped.Bip01_L_Finger01" 17
19 "ValveBiped.Bip01_L_Finger02" 18
20 "ValveBiped.Bip01_L_Ulna" 3
21 "ValveBiped.Bip01_L_Wrist" 3
22 "rig_l_upperarm" 1
23 "rig_l_forearm" 22
24 "rig_d_l_forearm" 23
25 "rig_d_l_upperarm" 22
26 "ValveBiped.Bip01_R_Clavicle" 0
27 "ValveBiped.Bip01_R_UpperArm" 26
28 "ValveBiped.Bip01_R_Forearm" 27
29 "ValveBiped.Bip01_R_Hand" 28
30 "ValveBiped.Bip01_R_Finger4" 29
31 "ValveBiped.Bip01_R_Finger41" 30
32 "ValveBiped.Bip01_R_Finger42" 31
33 "ValveBiped.Bip01_R_Finger3" 29
34 "ValveBiped.Bip01_R_Finger31" 33
35 "ValveBiped.Bip01_R_Finger32" 34
36 "ValveBiped.Bip01_R_Finger2" 29
37 "ValveBiped.Bip01_R_Finger21" 36
38 "ValveBiped.Bip01_R_Finger22" 37
39 "ValveBiped.Bip01_R_Finger1" 29
40 "ValveBiped.Bip01_R_Finger11" 39
41 "ValveBiped.Bip01_R_Finger12" 40
42 "ValveBiped.Bip01_R_Finger0" 29
43 "ValveBiped.Bip01_R_Finger01" 42
44 "ValveBiped.Bip01_R_Finger02" 43
45 "ValveBiped.Bip01_R_Ulna" 28
46 "ValveBiped.Bip01_R_Wrist" 28
47 "rig_r_upperarm" 26
48 "rig_r_forearm" 47
49 "rig_d_r_forearm" 48
50 "rig_d_r_upperarm" 47
51 "rig_r_hand" -1
52 "rig_d_r_hand" 51
53 "rig_d_r_wrist" 52
54 "rig_l_hand" -1
55 "rig_d_l_hand" 54
56 "rig_d_l_wrist" 54
57 "rig_l_pole" -1
58 "rig_r_pole" -1
59 "rig_l_clavicle" -1
60 "rig_d_l_clavicle" 59
61 "rig_r_clavicle" -1
62 "rig_d_r_clavicle" 61
63 "Camera" -1
64 "body" -1
65 "trigger" 64
66 "bolt" 64
67 "chandle" 64
68 "barrel" 64
69 "magrel" 64
70 "boltrelease" 64
71 "dustcover" 64
72 "bullet1" 64
73 "boltrelease2" 64
74 "mag" -1
75 "bullet2" 74
76 "bullet3" 74
end
skeleton
time 0
0  0.031807 0.000000 -0.000718  -1.570800 -1.391899 -1.570792
1  -5.657975 -1.130751 0.473652  -1.544956 -1.855077 -0.198630
2  6.027520 -0.000327 0.000200  -0.975018 -1.179474 -1.174942
3  11.692108 0.000483 -0.000738  -1.036606 -0.000022 -1.298466
4  11.480536 0.000534 -0.000547  0.885268 -0.589649 0.382552
5  3.859503 -0.142875 -1.192066  -0.591513 -0.244986 -1.715913
6  1.312591 0.000014 0.000004  -0.138361 0.022702 -0.167530
7  0.729352 0.000053 0.000050  -0.006010 -0.011187 -0.305177
8  3.942141 0.046277 -0.431529  -0.453243 0.214176 -1.185459
9  1.539111 0.000082 0.000000  -0.023117 -0.057795 -0.837865
10  1.196331 0.000147 0.000024  0.004421 0.004482 -0.789021
11  3.883506 -0.047265 0.431365  -0.222043 0.495953 -0.574103
12  1.719571 -0.000024 0.000009  0.022568 -0.106450 -1.215841
13  1.209178 0.000092 0.000008  -0.007618 -0.005051 -0.644654
14  4.085229 -0.082711 1.151023  0.018831 0.669274 -0.140521
15  1.719450 -0.000011 0.000021  0.013611 -0.012523 -0.864224
16  1.099675 0.000048 0.000003  -0.073892 0.044385 -1.348765
17  1.011592 -1.510481 0.955645  -0.983865 -0.562229 -0.317947
18  1.789819 -0.000006 -0.000017  0.000998 -0.014467 0.721478
19  1.207013 -0.000014 -0.000042  0.001593 -0.000026 -0.111146
20  5.740636 0.000363 -0.000699  -0.174407 0.000003 0.000060
21  11.481112 0.000247 -0.000761  -0.104878 -0.116858 0.021691
22  6.027523 -0.000328 0.000207  1.681655 -0.376143 1.672339
23  0.000001 11.692100 -0.000006  -0.908447 -0.368755 -0.729619
24  0.000002 0.000007 0.000000  -0.167514 -0.000031 1.570738
25  -0.000001 -0.000007 -0.000001  0.868967 -0.000009 1.570721
26  -5.244507 -9.426861 0.826811  1.473120 1.855074 -0.198639
27  6.027510 -0.000265 -0.000223  1.455618 0.695503 -0.502776
28  11.691997 0.000243 0.000863  0.437600 0.000066 -1.813304
29  11.479570 -0.000437 0.001116  -1.156610 0.740717 0.764158
30  3.859438 -0.132763 1.193063  0.469647 -0.013262 -1.872396
31  1.312559 0.000026 -0.000002  0.024059 -0.138695 -0.550183
32  0.729345 0.000065 -0.000030  -0.166197 -0.081571 -0.714273
33  3.942049 0.050135 0.431000  0.225311 -0.086239 -1.592715
34  1.539097 0.000007 -0.000004  0.035254 -0.050374 -0.994348
35  1.196299 0.000077 -0.000007  -0.021522 0.002174 -0.839739
36  3.883413 -0.050477 -0.431086  0.184827 -0.271742 -1.204033
37  1.719564 -0.000081 -0.000015  0.022857 -0.107188 -1.509106
38  1.209196 0.000036 0.000004  0.000661 0.071070 -0.480462
39  3.859590 -0.149085 -1.331321  -0.091492 -0.176961 -0.361377
40  1.719416 -0.000096 -0.000050  -0.008604 0.012487 -1.199016
41  1.099672 0.000023 -0.000002  -0.006805 -0.008849 -0.748987
42  0.805983 -0.359849 -1.318339  0.990813 0.193174 -0.878529
43  1.789780 -0.000008 -0.000030  0.000056 -0.002451 0.133096
44  1.206997 -0.000004 0.000013  0.000357 -0.000121 1.202167
45  5.740575 0.000119 0.000727  0.106658 -0.000013 0.000032
46  11.480863 0.000051 0.000977  0.028277 0.144873 0.104187
47  6.027517 -0.000277 -0.000231  -0.883984 -0.594155 -1.474642
48  -0.000001 11.691978 -0.000009  -1.213493 0.657876 0.914076
49  0.000002 -0.000003 -0.000001  2.710123 -0.000036 1.570861
50  -0.000006 -0.000014 0.000004  2.272646 -0.000031 1.570865
51  -3.466634 -3.918831 -6.962642  -0.104800 -2.982050 1.381830
52  0.000000 -0.000000 0.000000  0.008153 -0.000259 0.000009
53  -0.000000 -0.000000 0.000000  1.565115 0.043565 -0.106862
54  -0.314712 -15.030171 -5.031220  -0.957142 -0.092919 -1.905430
55  -0.000000 0.000000 -0.000000  0.000000 -0.000000 -0.000002
56  0.000029 0.000030 0.000000  -1.571902 -0.044449 -0.106509
57  10.357533 -8.808360 -16.097330  1.570796 -0.000000 0.000000
58  -17.141647 7.639411 -16.354797  1.570796 -0.000000 0.000000
59  0.509765 2.119138 -5.368414  1.570796 -0.000000 0.000000
60  -0.004311 0.001230 -0.000371  0.006898 -0.005534 -0.284228
61  0.858610 10.209643 -3.484070  1.570796 -0.000000 0.000000
62  0.000000 0.000000 0.000000  -0.078728 -3.136056 0.284225
63  0.031801 0.000000 -0.000718  1.570796 -0.000000 0.000000
64  -2.255823 -8.249615 -1.855160  1.571103 0.041360 0.006551
65  -0.072224 -2.976049 0.670851  0.000000 -0.000000 -0.000000
66  0.048105 -1.112259 5.803837  0.000000 -0.000000 -0.000000
67  -0.006013 0.427654 -2.540381  0.000000 -0.000000 -0.000000
68  -0.072223 -1.058419 21.753904  0.000000 -0.000000 -0.000000
69  -0.035008 -2.531005 1.950345  0.000000 -0.000000 -0.000000
70  0.605054 -2.016784 1.875399  0.000000 -0.000000 -0.000000
71  -0.856945 -1.296706 3.359793  0.000000 -0.000000 -0.000000
72  0.003667 -1.485967 2.771742  0.000000 -0.000000 -0.000000
73  -0.658479 -1.974145 1.949295  0.000000 -0.000000 -0.000000
74  -2.360245 -12.955528 -5.952410  1.571103 0.041360 0.006551
75  -0.030614 2.611925 -1.934644  0.000000 -0.000000 -0.000000
76  -0.223143 2.260915 -1.934643  0.000000 -0.000000 -0.000000
end
