version 1
nodes
0 "ValveBiped.Bip01_Spine4" -1
1 "ValveBiped.Bip01_L_Clavicle" 0
2 "ValveBiped.Bip01_L_UpperArm" 1
3 "ValveBiped.Bip01_L_Forearm" 2
4 "ValveBiped.Bip01_L_Hand" 3
5 "ValveBiped.Bip01_L_Finger4" 4
6 "ValveBiped.Bip01_L_Finger41" 5
7 "ValveBiped.Bip01_L_Finger42" 6
8 "ValveBiped.Bip01_L_Finger3" 4
9 "ValveBiped.Bip01_L_Finger31" 8
10 "ValveBiped.Bip01_L_Finger32" 9
11 "ValveBiped.Bip01_L_Finger2" 4
12 "ValveBiped.Bip01_L_Finger21" 11
13 "ValveBiped.Bip01_L_Finger22" 12
14 "ValveBiped.Bip01_L_Finger1" 4
15 "ValveBiped.Bip01_L_Finger11" 14
16 "ValveBiped.Bip01_L_Finger12" 15
17 "ValveBiped.Bip01_L_Finger0" 4
18 "ValveBiped.Bip01_L_Finger01" 17
19 "ValveBiped.Bip01_L_Finger02" 18
20 "ValveBiped.Bip01_L_Ulna" 3
21 "ValveBiped.Bip01_L_Wrist" 3
22 "rig_l_upperarm" 1
23 "rig_l_forearm" 22
24 "rig_d_l_forearm" 23
25 "rig_d_l_upperarm" 22
26 "ValveBiped.Bip01_R_Clavicle" 0
27 "ValveBiped.Bip01_R_UpperArm" 26
28 "ValveBiped.Bip01_R_Forearm" 27
29 "ValveBiped.Bip01_R_Hand" 28
30 "ValveBiped.Bip01_R_Finger4" 29
31 "ValveBiped.Bip01_R_Finger41" 30
32 "ValveBiped.Bip01_R_Finger42" 31
33 "ValveBiped.Bip01_R_Finger3" 29
34 "ValveBiped.Bip01_R_Finger31" 33
35 "ValveBiped.Bip01_R_Finger32" 34
36 "ValveBiped.Bip01_R_Finger2" 29
37 "ValveBiped.Bip01_R_Finger21" 36
38 "ValveBiped.Bip01_R_Finger22" 37
39 "ValveBiped.Bip01_R_Finger1" 29
40 "ValveBiped.Bip01_R_Finger11" 39
41 "ValveBiped.Bip01_R_Finger12" 40
42 "ValveBiped.Bip01_R_Finger0" 29
43 "ValveBiped.Bip01_R_Finger01" 42
44 "ValveBiped.Bip01_R_Finger02" 43
45 "ValveBiped.Bip01_R_Ulna" 28
46 "ValveBiped.Bip01_R_Wrist" 28
47 "rig_r_upperarm" 26
48 "rig_r_forearm" 47
49 "rig_d_r_forearm" 48
50 "rig_d_r_upperarm" 47
51 "rig_r_hand" -1
52 "rig_d_r_hand" 51
53 "rig_d_r_wrist" 52
54 "rig_l_hand" -1
55 "rig_d_l_hand" 54
56 "rig_d_l_wrist" 54
57 "rig_l_pole" -1
58 "rig_r_pole" -1
59 "rig_l_clavicle" -1
60 "rig_d_l_clavicle" 59
61 "rig_r_clavicle" -1
62 "rig_d_r_clavicle" 61
63 "Camera" -1
64 "body" -1
65 "trigger" 64
66 "barrel" 64
67 "magrel" 64
68 "boltfollower" 64
69 "bolt" 68
70 "hammer" 68
71 "mag" -1
72 "bullet1" 71
73 "bullet2" 71
74 "bullet3" 71
end
skeleton
time 0
0  0.000006 0.000000 0.000000  -1.570800 -1.391899 -1.570792
1  -5.155481 -0.406902 2.232072  -1.544956 -1.855077 -0.198630
2  6.027525 -0.000325 0.000192  -0.520628 -1.083410 -1.985153
3  11.692112 0.000647 -0.000739  -0.740909 0.000005 -0.908457
4  11.480587 0.000447 -0.000585  1.181063 -0.394025 0.290922
5  3.859509 -0.142880 -1.192050  -0.607029 -0.350722 -1.679330
6  1.312589 0.000013 0.000006  -0.128755 -0.033176 -0.206565
7  0.729355 0.000053 0.000049  -0.001491 -0.009458 -0.077672
8  3.942142 0.046272 -0.431512  -0.503470 0.034205 -1.229486
9  1.539110 0.000084 0.000006  -0.035480 -0.105821 -0.637953
10  1.196334 0.000144 0.000030  0.010437 0.004807 -0.680797
11  3.883506 -0.047269 0.431381  -0.279063 0.378040 -0.587390
12  1.719574 -0.000027 0.000014  0.024174 -0.159655 -1.136903
13  1.209180 0.000091 0.000013  -0.002356 -0.004690 -0.598312
14  4.085225 -0.082716 1.151041  -0.117217 0.475091 -0.312811
15  1.719450 -0.000012 0.000022  0.004228 -0.075291 -0.656339
16  1.099675 0.000048 0.000005  -0.070556 0.035611 -1.503402
17  0.823855 -0.939653 1.255375  -0.882143 -0.661299 -0.378652
18  1.789818 -0.000005 -0.000019  0.000124 -0.000927 0.770006
19  1.207016 -0.000012 -0.000043  0.000107 -0.000005 -0.103765
20  5.740636 0.000410 -0.000702  -0.086260 0.000003 0.000070
21  11.481125 0.000302 -0.000776  -0.062561 -0.067630 0.029914
22  6.027524 -0.000330 0.000203  1.475560 -0.478811 1.360918
23  0.000001 11.692099 -0.000006  -0.660338 -0.191045 -0.545109
24  0.000003 0.000008 -0.000001  0.128157 -0.000031 1.570739
25  -0.000001 -0.000011 -0.000002  0.868957 0.000002 1.570712
26  -4.011518 -5.954122 0.376267  1.473120 1.855075 -0.198639
27  6.027503 -0.000261 -0.000230  1.338919 0.535818 -0.296817
28  11.691993 0.000243 0.000854  0.667113 0.000087 -2.040487
29  11.480230 0.000125 0.000951  -1.197265 1.038763 0.601260
30  3.452862 -0.227594 1.051755  0.752818 -0.012796 -1.923965
31  1.312560 0.000025 0.000000  0.051599 -0.145635 -0.917911
32  0.729342 0.000066 -0.000026  0.025633 -0.013330 -0.626491
33  3.942045 0.050110 0.430997  0.522693 -0.004600 -1.816063
34  1.539098 0.000013 0.000000  -0.004179 -0.042387 -0.795903
35  1.196301 0.000075 -0.000005  0.004014 -0.001890 -1.160447
36  3.883413 -0.050503 -0.431087  0.413145 -0.251603 -1.375238
37  1.719564 -0.000080 -0.000004  -0.025665 0.010851 -1.498977
38  1.209193 0.000037 0.000012  0.000108 -0.003369 -0.635246
39  3.806437 -0.112149 -1.295330  0.087146 -0.161783 -0.278009
40  1.719410 -0.000102 -0.000033  -0.001820 0.168296 -1.232677
41  1.099674 0.000023 0.000007  -0.021324 -0.002727 -0.836734
42  0.444469 -0.201854 -1.632531  1.382918 0.159901 -0.734494
43  1.789780 -0.000011 -0.000043  0.023063 0.001101 -0.035978
44  1.206997 -0.000005 0.000004  0.002330 0.000422 1.217527
45  5.740572 0.000054 0.000723  0.056715 -0.000014 0.000021
46  11.480991 0.000060 0.000940  0.008297 0.195284 0.060702
47  6.027514 -0.000272 -0.000236  -0.784470 -0.763174 -1.263749
48  -0.000002 11.691974 -0.000005  -1.350008 0.798332 0.969975
49  0.000004 -0.000002 -0.000001  2.939640 -0.000041 1.570856
50  -0.000007 -0.000015 0.000005  2.272644 -0.000030 1.570865
51  -4.212735 -5.116506 -7.690983  -0.119944 -2.944591 1.413340
52  -0.000000 0.000000 -0.000001  0.008153 -0.000259 0.000009
53  0.000000 -0.000000 0.000001  1.565115 0.043565 -0.106862
54  -1.221646 -17.332890 -5.414036  -0.835107 -0.073491 -1.925946
55  -0.000001 0.000000 0.000000  0.000000 -0.000000 -0.000002
56  0.000029 0.000029 0.000001  -1.571901 -0.044449 -0.106509
57  7.726634 -9.972512 -23.078238  1.570796 -0.000000 0.000000
58  -21.599098 7.001666 -12.508070  1.570796 -0.000000 0.000000
59  2.236387 1.317426 -5.002028  1.570796 -0.000000 0.000000
60  -0.004311 0.001230 -0.000371  0.006898 -0.005534 -0.284229
61  0.376268 6.572924 -2.887995  1.570796 -0.000000 0.000000
62  0.000000 0.000000 0.000000  -0.078727 -3.136056 0.284226
63  0.000000 0.000000 0.000000  1.570796 -0.000000 0.000000
64  -3.007873 -11.868127 -1.228170  1.549086 0.053723 0.014481
65  -0.072954 -3.580058 -1.661983  0.000000 0.000000 0.000000
66  -0.072953 -1.658653 21.597475  0.000000 0.000000 0.000000
67  -0.072955 -3.912773 -0.207297  -0.025521 0.000000 0.000000
68  -0.072955 -1.351941 -1.708408  0.000000 0.000000 0.000000
69  0.000000 -0.073451 5.668876  0.000000 0.000000 0.000000
70  -0.000036 -0.237455 -0.352044  0.000000 0.000000 0.000000
71  -3.199552 -15.009216 -4.279518  1.549086 0.053723 0.014481
72  0.049819 1.176757 -2.121259  0.000000 0.000000 0.000000
73  0.097437 0.527678 -2.121259  0.000000 0.000000 0.000000
74  -0.111872 0.119885 -2.121260  0.000000 0.000000 0.000000
time 1
0  0.000006 0.000000 0.000000  -1.570800 -1.391899 -1.570792
1  -5.218934 -0.277114 2.225545  -1.544956 -1.855077 -0.198630
2  6.027526 -0.000325 0.000192  -0.399356 -1.139237 -2.139916
3  11.692115 0.000645 -0.000738  -0.743256 0.000009 -0.622483
4  11.480464 0.000476 -0.000558  1.133185 -0.367837 0.127191
5  3.859509 -0.142880 -1.192049  -0.595430 0.003882 -1.133713
6  1.312590 0.000013 0.000009  -0.064858 -0.014684 -0.148751
7  0.729354 0.000055 0.000049  -0.000951 -0.004687 0.013932
8  3.942145 0.046273 -0.431512  -0.319726 0.114868 -0.851229
9  1.539113 0.000084 0.000004  -0.027654 -0.049620 -0.267946
10  1.196333 0.000146 0.000029  0.005590 0.001623 -0.380862
11  3.883506 -0.047269 0.431381  -0.074944 0.200432 -0.391606
12  1.719572 -0.000027 0.000016  -0.010791 -0.080550 -0.574808
13  1.209178 0.000090 0.000012  -0.001349 -0.000579 -0.232457
14  4.085224 -0.082715 1.151041  0.116182 0.163952 -0.218918
15  1.719449 -0.000014 0.000022  -0.003596 -0.035965 -0.334493
16  1.099675 0.000048 0.000006  -0.027825 0.034251 -0.699281
17  0.823851 -0.939652 1.255375  -1.053651 -0.606526 -0.578038
18  1.789821 -0.000003 -0.000017  0.000344 0.002200 0.348574
19  1.207015 -0.000012 -0.000044  -0.000241 -0.000103 -0.060972
20  5.740636 0.000410 -0.000702  -0.093738 0.000003 0.000071
21  11.481103 0.000308 -0.000769  -0.076730 -0.058546 -0.003396
22  6.027524 -0.000329 0.000203  1.434463 -0.410834 1.332614
23  0.000003 11.692099 -0.000008  -0.463645 -0.092660 -0.387679
24  0.000004 0.000009 -0.000000  0.125790 -0.000031 1.570739
25  -0.000001 -0.000011 -0.000002  0.868957 0.000002 1.570712
26  -4.108665 -5.955256 0.324971  1.473120 1.855075 -0.198639
27  6.027503 -0.000262 -0.000230  1.428736 0.524022 -0.257411
28  11.691992 0.000243 0.000856  0.655162 0.000074 -1.867541
29  11.479091 -0.000462 0.001394  -1.359549 0.691610 0.567438
30  3.452861 -0.227594 1.051756  0.406972 -0.281773 -0.608989
31  1.312560 0.000025 0.000001  -0.000002 -0.000045 -0.148961
32  0.729343 0.000065 -0.000029  -0.000028 -0.000012 0.046463
33  3.942045 0.050110 0.430997  0.121277 -0.118787 -0.520714
34  1.539097 0.000013 -0.000000  0.000007 -0.000010 0.042929
35  1.196300 0.000075 -0.000005  -0.000009 -0.000006 -0.140034
36  3.883412 -0.050502 -0.431088  -0.089865 -0.000690 -0.298025
37  1.719565 -0.000080 -0.000003  -0.002289 -0.007626 -0.075726
38  1.209195 0.000036 0.000011  -0.001276 -0.004274 0.074338
39  3.806437 -0.112149 -1.295331  -0.330197 0.136798 -0.257131
40  1.719411 -0.000103 -0.000033  -0.001915 -0.006300 -0.072277
41  1.099673 0.000025 0.000008  -0.001196 -0.004013 0.046405
42  0.444469 -0.201854 -1.632531  1.079795 0.646452 -0.910435
43  1.789780 -0.000012 -0.000042  0.011965 0.001552 -0.110981
44  1.206996 -0.000005 0.000005  0.005321 0.005317 0.007332
45  5.740572 0.000054 0.000724  0.031182 -0.000014 0.000021
46  11.480762 -0.000057 0.001029  0.006742 0.123401 0.084243
47  6.027514 -0.000273 -0.000236  -0.715771 -0.703656 -1.315783
48  -0.000000 11.691974 -0.000005  -1.245550 0.690875 0.929083
49  0.000003 -0.000003 -0.000000  2.927687 -0.000041 1.570856
50  -0.000006 -0.000015 0.000005  2.272644 -0.000030 1.570865
51  -5.814262 -6.831627 -7.921725  2.801957 -0.041063 -1.611943
52  -0.000000 0.000000 0.000000  0.008153 -0.000259 0.000009
53  0.000000 -0.000000 0.000000  1.565115 0.043565 -0.106862
54  -1.034153 -18.949051 -6.459579  -0.933141 -0.033982 -1.806332
55  -0.000000 0.000000 0.000000  0.000000 -0.000000 -0.000002
56  0.000029 0.000029 0.000001  -1.571901 -0.044449 -0.106509
57  7.867096 -10.036853 -23.286720  1.570796 -0.000000 0.000000
58  -21.462067 6.911597 -12.747615  1.570796 -0.000000 0.000000
59  2.229860 1.201001 -5.087563  1.570796 -0.000000 0.000000
60  -0.004311 0.001230 -0.000371  0.006898 -0.005534 -0.284229
61  0.324972 6.591327 -2.983389  1.570796 -0.000000 0.000000
62  0.000000 0.000000 0.000000  -0.078727 -3.136056 0.284226
63  0.000000 0.000000 0.000000  1.568900 0.001131 -0.001158
64  -3.133780 -12.844788 -1.152900  1.549696 0.052219 0.058090
65  -0.072954 -3.580058 -1.661984  0.000000 0.000000 0.000000
66  -0.072953 -1.658653 21.597473  0.000000 0.000000 0.000000
67  -0.072955 -3.912773 -0.207299  -0.025521 0.000000 0.000000
68  -0.072955 -1.351940 -1.708409  0.000000 0.000000 0.000000
69  -0.000000 -0.073451 5.668876  0.000000 0.000000 0.000000
70  -0.000037 -0.237455 -0.352043  0.000000 0.000000 0.000000
71  -3.183969 -15.989124 -4.206511  1.549696 0.052219 0.058090
72  0.049819 1.176757 -2.121261  0.000000 0.000000 0.000000
73  0.097437 0.527678 -2.121262  0.000000 0.000000 0.000000
74  -0.111873 0.119885 -2.121261  0.000000 0.000000 0.000000
time 2
0  0.000006 0.000000 0.000000  -1.570800 -1.391899 -1.570792
1  -5.409899 0.113493 2.205902  -1.544956 -1.855077 -0.198630
2  6.027526 -0.000325 0.000192  -0.609124 -1.102759 -1.909035
3  11.692114 0.000645 -0.000740  -0.750377 0.000007 -0.788550
4  11.480733 0.000509 -0.000527  1.288031 -0.435257 0.125787
5  3.859506 -0.142879 -1.192050  -0.394539 0.299157 -0.554440
6  1.312590 0.000012 0.000008  -0.000009 0.000051 -0.089883
7  0.729354 0.000053 0.000050  0.000023 0.000014 0.105537
8  3.942141 0.046274 -0.431512  -0.117741 0.120704 -0.462798
9  1.539110 0.000084 0.000005  0.000000 0.000022 0.102014
10  1.196334 0.000144 0.000028  0.000017 0.000014 -0.080915
11  3.883504 -0.047268 0.431382  0.088183 -0.008874 -0.239400
12  1.719576 -0.000026 0.000016  0.001905 0.005179 -0.016672
13  1.209180 0.000091 0.000012  0.001063 0.002903 0.133420
14  4.085221 -0.082714 1.151041  0.320600 -0.159664 -0.200164
15  1.719449 -0.000012 0.000021  0.001422 0.003814 -0.013163
16  1.099674 0.000048 0.000007  0.000887 0.002421 0.105475
17  0.823852 -0.939651 1.255375  -1.226120 -0.596311 -0.787079
18  1.789820 -0.000003 -0.000016  -0.000740 0.005137 -0.073161
19  1.207014 -0.000012 -0.000044  -0.000595 -0.000176 0.013480
20  5.740637 0.000410 -0.000702  -0.068542 0.000003 0.000070
21  11.481155 0.000313 -0.000763  -0.045283 -0.069558 0.001169
22  6.027525 -0.000330 0.000203  1.524030 -0.465951 1.336375
23  0.000002 11.692100 -0.000007  -0.579441 -0.146076 -0.481226
24  0.000003 0.000009 -0.000002  0.118680 -0.000031 1.570739
25  0.000000 -0.000011 -0.000001  0.868957 0.000002 1.570712
26  -4.401038 -5.958671 0.170590  1.473120 1.855075 -0.198639
27  6.027503 -0.000260 -0.000234  1.353542 0.394886 -0.302209
28  11.691991 0.000243 0.000856  0.619204 0.000080 -1.942264
29  11.478433 -0.000771 0.001563  -1.326731 0.689345 0.565136
30  3.452860 -0.227594 1.051755  0.406972 -0.281773 -0.608989
31  1.312560 0.000026 -0.000001  -0.000002 -0.000045 -0.148961
32  0.729341 0.000064 -0.000028  -0.000028 -0.000012 0.046463
33  3.942045 0.050110 0.430996  0.121277 -0.118787 -0.520714
34  1.539097 0.000012 0.000001  0.000007 -0.000010 0.042929
35  1.196300 0.000076 -0.000005  -0.000009 -0.000006 -0.140034
36  3.883412 -0.050503 -0.431088  -0.089865 -0.000690 -0.298025
37  1.719566 -0.000079 -0.000003  -0.002289 -0.007626 -0.075726
38  1.209195 0.000036 0.000012  -0.001276 -0.004274 0.074338
39  3.806437 -0.112149 -1.295330  -0.330197 0.136798 -0.257131
40  1.719411 -0.000102 -0.000032  -0.001915 -0.006300 -0.072277
41  1.099675 0.000026 0.000008  -0.001196 -0.004013 0.046405
42  0.444469 -0.201854 -1.632531  1.079795 0.646453 -0.910435
43  1.789780 -0.000011 -0.000042  0.011965 0.001552 -0.110981
44  1.206997 -0.000006 0.000004  0.005321 0.005317 0.007332
45  5.740572 0.000056 0.000725  0.029437 -0.000014 0.000021
46  11.480631 -0.000118 0.001062  0.012856 0.124363 0.081565
47  6.027515 -0.000272 -0.000238  -0.602017 -0.824041 -1.406026
48  -0.000002 11.691972 -0.000007  -1.290157 0.736914 0.948120
49  0.000005 -0.000000 -0.000001  2.891729 -0.000041 1.570856
50  -0.000007 -0.000016 0.000005  2.272644 -0.000030 1.570865
51  -6.438257 -5.651885 -9.419744  2.828704 0.025138 -1.625080
52  -0.000000 -0.000000 0.000001  0.008153 -0.000259 0.000009
53  -0.000000 0.000000 0.000001  1.565115 0.043565 -0.106862
54  -0.358498 -18.880575 -7.114402  -0.796906 -0.063009 -1.748248
55  0.000000 -0.000001 -0.000001  0.000000 -0.000000 -0.000002
56  0.000031 0.000028 0.000001  -1.571902 -0.044449 -0.106509
57  8.289829 -10.230493 -23.914169  1.570796 -0.000000 0.000000
58  -21.049665 6.640525 -13.468544  1.570796 -0.000000 0.000000
59  2.210217 0.850609 -5.344987  1.570796 -0.000000 0.000000
60  -0.004311 0.001230 -0.000371  0.006898 -0.005534 -0.284229
61  0.170591 6.646713 -3.270488  1.570796 -0.000000 0.000000
62  0.000000 0.000000 0.000000  -0.078727 -3.136056 0.284226
63  0.000000 0.000000 0.000000  1.565375 0.003226 -0.003314
64  -3.475528 -15.495725 -0.948595  1.551350 0.048138 0.176447
65  -0.072954 -3.580058 -1.661982  -0.000000 0.000000 -0.000000
66  -0.072953 -1.658653 21.597477  -0.000000 0.000000 -0.000000
67  -0.072954 -3.912773 -0.207297  -0.025521 0.000000 -0.000000
68  -0.072954 -1.351941 -1.708408  -0.000000 0.000000 -0.000000
69  0.000001 -0.073451 5.668874  -0.000000 0.000000 -0.000000
70  -0.000036 -0.237455 -0.352042  -0.000000 0.000000 -0.000000
71  -3.142944 -18.616856 -4.008307  1.551350 0.048138 0.176447
72  0.049819 1.176756 -2.121258  -0.000000 0.000000 -0.000000
73  0.097437 0.527677 -2.121256  -0.000000 0.000000 -0.000000
74  -0.111872 0.119885 -2.121255  -0.000000 0.000000 -0.000000
time 3
0  0.000006 0.000000 0.000000  -1.570800 -1.391899 -1.570792
1  -5.720399 0.748598 2.173964  -1.544956 -1.855077 -0.198630
2  6.027524 -0.000324 0.000193  -0.972949 -0.968613 -1.527962
3  11.692113 0.000644 -0.000739  -0.761913 -0.000000 -1.059198
4  11.480347 0.000360 -0.000666  1.761945 -0.436459 0.021910
5  3.859509 -0.142880 -1.192049  -0.399397 0.292475 -0.571101
6  1.312589 0.000011 0.000008  -0.000010 0.000051 -0.105683
7  0.729354 0.000054 0.000049  0.000023 0.000014 0.089737
8  3.942144 0.046273 -0.431512  -0.119804 0.118656 -0.480081
9  1.539110 0.000082 0.000005  0.000000 0.000022 0.085565
10  1.196330 0.000143 0.000028  0.000017 0.000014 -0.096715
11  3.883503 -0.047269 0.431381  0.088322 -0.007357 -0.256544
12  1.719574 -0.000026 0.000016  0.001816 0.005211 -0.033954
13  1.209179 0.000091 0.000013  0.001016 0.002920 0.117136
14  4.085223 -0.082715 1.151041  0.323194 -0.154196 -0.216761
15  1.719450 -0.000011 0.000021  0.001362 0.003836 -0.028963
16  1.099676 0.000048 0.000006  0.000845 0.002436 0.088194
17  0.823854 -0.939652 1.255376  -1.220182 -0.621670 -0.796733
18  1.789820 -0.000004 -0.000019  -0.000675 0.004893 -0.058568
19  1.207015 -0.000012 -0.000043  -0.000573 -0.000152 0.072635
20  5.740638 0.000408 -0.000701  0.018399 0.000003 0.000071
21  11.481079 0.000280 -0.000790  0.042815 -0.064453 0.003242
22  6.027525 -0.000331 0.000203  1.752843 -0.577371 1.288314
23  0.000003 11.692100 -0.000005  -0.758825 -0.254442 -0.620750
24  0.000004 0.000008 -0.000002  0.107163 -0.000031 1.570739
25  0.000000 -0.000012 0.000001  0.868957 0.000002 1.570712
26  -4.876419 -5.964221 -0.080424  1.473120 1.855075 -0.198639
27  6.027503 -0.000260 -0.000237  1.227539 0.265373 -0.356593
28  11.691992 0.000242 0.000857  0.560835 0.000077 -1.906300
29  11.478749 -0.000740 0.001436  -1.273404 0.646896 0.457577
30  3.452861 -0.227594 1.051756  0.406972 -0.281773 -0.608989
31  1.312561 0.000025 0.000002  -0.000002 -0.000045 -0.148961
32  0.729342 0.000064 -0.000027  -0.000028 -0.000012 0.046463
33  3.942046 0.050110 0.430997  0.121277 -0.118787 -0.520714
34  1.539098 0.000011 0.000000  0.000007 -0.000010 0.042929
35  1.196299 0.000076 -0.000004  -0.000009 -0.000006 -0.140034
36  3.883413 -0.050502 -0.431087  -0.089865 -0.000690 -0.298025
37  1.719564 -0.000080 -0.000003  -0.002289 -0.007626 -0.075726
38  1.209194 0.000036 0.000012  -0.001276 -0.004274 0.074338
39  3.806438 -0.112149 -1.295329  -0.330197 0.136798 -0.257131
40  1.719411 -0.000103 -0.000032  -0.001915 -0.006300 -0.072277
41  1.099675 0.000025 0.000007  -0.001196 -0.004013 0.046405
42  0.444470 -0.201853 -1.632531  1.079795 0.646453 -0.910435
43  1.789780 -0.000010 -0.000043  0.011965 0.001552 -0.110981
44  1.206997 -0.000005 0.000005  0.005321 0.005317 0.007332
45  5.740572 0.000056 0.000724  0.027893 -0.000014 0.000021
46  11.480695 -0.000111 0.001036  0.030108 0.117022 0.058862
47  6.027515 -0.000273 -0.000237  -0.496315 -0.987618 -1.502918
48  -0.000001 11.691973 -0.000005  -1.268611 0.714675 0.939202
49  0.000003 -0.000001 0.000001  2.833361 -0.000041 1.570856
50  -0.000007 -0.000016 0.000006  2.272644 -0.000030 1.570865
51  -7.339422 -4.796571 -12.183270  2.897730 0.121542 -1.621564
52  -0.000000 -0.000000 0.000000  0.008153 -0.000259 0.000009
53  0.000001 0.000000 0.000002  1.565115 0.043565 -0.106862
54  1.635828 -18.652094 -9.103885  -0.404385 -0.188723 -1.654442
55  -0.000001 -0.000000 -0.000000  0.000000 -0.000000 -0.000002
56  0.000030 0.000029 0.000001  -1.571902 -0.044449 -0.106509
57  8.977168 -10.545342 -24.934364  1.570796 -0.000000 0.000000
58  -20.379122 6.199779 -14.640735  1.570796 -0.000000 0.000000
59  2.178279 0.280891 -5.763546  1.570796 -0.000000 0.000000
60  -0.004311 0.001230 -0.000371  0.006898 -0.005534 -0.284229
61  -0.080424 6.736767 -3.737295  1.570796 -0.000000 0.000000
62  0.000000 0.000000 0.000000  -0.078727 -3.136056 0.284226
63  0.000000 0.000000 0.000000  1.563475 0.004351 -0.004479
64  -3.979155 -19.402369 -0.647515  1.553785 0.042122 0.350843
65  -0.072955 -3.580058 -1.661983  0.000000 -0.000000 -0.000000
66  -0.072954 -1.658653 21.597475  0.000000 -0.000000 -0.000000
67  -0.072954 -3.912773 -0.207298  -0.025521 -0.000000 -0.000000
68  -0.072955 -1.351941 -1.708407  0.000000 -0.000000 -0.000000
69  0.000001 -0.073451 5.668875  0.000000 -0.000000 -0.000000
70  -0.000036 -0.237455 -0.352043  0.000000 -0.000000 -0.000000
71  -3.095642 -22.405210 -3.716108  1.553785 0.042122 0.350843
72  0.049819 1.176756 -2.121260  0.000000 -0.000000 -0.000000
73  0.097438 0.527677 -2.121261  0.000000 -0.000000 -0.000000
74  -0.111872 0.119885 -2.121260  0.000000 -0.000000 -0.000000
time 4
0  0.000006 0.000000 0.000000  -1.570800 -1.391899 -1.570792
1  -6.126519 1.579286 2.132190  -1.544956 -1.855077 -0.198630
2  6.027520 -0.000322 0.000195  -1.252976 -0.745176 -1.262033
3  11.692111 0.000643 -0.000739  -0.776910 -0.000011 -1.285359
4  11.480627 0.000409 -0.000623  2.383590 -0.224135 -0.123220
5  3.859505 -0.142880 -1.192048  -0.412031 0.273824 -0.616315
6  1.312589 0.000013 0.000009  -0.000012 0.000051 -0.152536
7  0.729353 0.000052 0.000049  0.000022 0.000015 0.042884
8  3.942141 0.046272 -0.431511  -0.125259 0.112880 -0.527292
9  1.539111 0.000084 0.000006  -0.000001 0.000022 0.038537
10  1.196329 0.000143 0.000029  0.000016 0.000015 -0.143568
11  3.883503 -0.047269 0.431383  0.088570 -0.003184 -0.303591
12  1.719575 -0.000025 0.000017  0.001567 0.005291 -0.081204
13  1.209180 0.000090 0.000013  0.000877 0.002965 0.070152
14  4.085220 -0.082716 1.151042  0.329804 -0.139039 -0.262000
15  1.719449 -0.000011 0.000021  0.001181 0.003895 -0.075816
16  1.099676 0.000048 0.000006  0.000729 0.002474 0.040944
17  0.823850 -0.939653 1.255376  -1.216733 -0.643006 -0.801728
18  1.789819 -0.000003 -0.000019  -0.000497 0.004211 -0.017890
19  1.207015 -0.000013 -0.000044  -0.000497 -0.000115 0.140031
20  5.740638 0.000410 -0.000701  0.150877 0.000003 0.000071
21  11.481138 0.000288 -0.000782  0.163178 -0.027710 -0.008407
22  6.027524 -0.000330 0.000203  2.087065 -0.676668 1.143135
23  0.000002 11.692100 -0.000007  -0.900447 -0.362111 -0.724025
24  0.000004 0.000009 0.000000  0.092179 -0.000031 1.570739
25  -0.000001 -0.000012 -0.000002  0.868957 0.000002 1.570712
26  -5.498195 -5.971482 -0.408739  1.473120 1.855075 -0.198639
27  6.027502 -0.000261 -0.000239  1.106656 0.183579 -0.405476
28  11.691993 0.000244 0.000856  0.484817 0.000068 -1.781518
29  11.479848 -0.000299 0.001088  -1.168801 0.571529 0.335285
30  3.452861 -0.227595 1.051757  0.406972 -0.281773 -0.608989
31  1.312560 0.000026 0.000001  -0.000002 -0.000045 -0.148961
32  0.729342 0.000064 -0.000027  -0.000028 -0.000012 0.046463
33  3.942046 0.050109 0.430997  0.121277 -0.118787 -0.520714
34  1.539098 0.000011 0.000001  0.000007 -0.000010 0.042929
35  1.196299 0.000076 -0.000005  -0.000009 -0.000006 -0.140034
36  3.883412 -0.050503 -0.431087  -0.089865 -0.000690 -0.298026
37  1.719564 -0.000080 -0.000005  -0.002289 -0.007626 -0.075726
38  1.209195 0.000036 0.000013  -0.001276 -0.004274 0.074338
39  3.806437 -0.112149 -1.295330  -0.330197 0.136798 -0.257131
40  1.719411 -0.000102 -0.000032  -0.001915 -0.006300 -0.072277
41  1.099674 0.000023 0.000007  -0.001196 -0.004013 0.046405
42  0.444469 -0.201854 -1.632532  1.079795 0.646453 -0.910435
43  1.789780 -0.000011 -0.000042  0.011965 0.001552 -0.110981
44  1.206997 -0.000007 0.000005  0.005321 0.005317 0.007332
45  5.740571 0.000055 0.000724  0.038853 -0.000014 0.000021
46  11.480913 -0.000023 0.000966  0.058439 0.103401 0.031556
47  6.027514 -0.000273 -0.000238  -0.440432 -1.128439 -1.573659
48  -0.000001 11.691976 -0.000005  -1.194793 0.638724 0.904852
49  0.000002 -0.000002 -0.000001  2.757343 -0.000041 1.570856
50  -0.000006 -0.000015 0.000004  2.272644 -0.000030 1.570865
51  -8.322164 -4.144237 -15.395292  -0.154431 2.913969 1.539063
52  0.000000 0.000000 0.000001  0.008153 -0.000259 0.000009
53  0.000000 0.000000 0.000001  1.565115 0.043565 -0.106862
54  4.441366 -18.263145 -12.047734  0.171622 -0.390553 -1.646272
55  -0.000002 0.000001 0.000003  0.000000 -0.000000 -0.000002
56  0.000030 0.000030 0.000003  -1.571902 -0.044449 -0.106509
57  9.876175 -10.957149 -26.268730  1.570796 -0.000000 0.000000
58  -19.502083 5.623302 -16.173904  1.570796 -0.000000 0.000000
59  2.136505 -0.464272 -6.310999  1.570796 -0.000000 0.000000
60  -0.004311 0.001230 -0.000371  0.006898 -0.005534 -0.284229
61  -0.408740 6.854553 -4.347856  1.570796 -0.000000 0.000000
62  0.000000 0.000000 0.000000  -0.078727 -3.136056 0.284226
63  0.000000 0.000000 0.000000  1.563882 0.004111 -0.004230
64  -4.590703 -24.146152 -0.281918  1.556740 0.034817 0.562570
65  -0.072954 -3.580058 -1.661985  0.000000 -0.000000 0.000000
66  -0.072954 -1.658653 21.597473  0.000000 -0.000000 0.000000
67  -0.072954 -3.912773 -0.207299  -0.025521 -0.000000 0.000000
68  -0.072953 -1.351941 -1.708411  0.000000 -0.000000 0.000000
69  0.000003 -0.073451 5.668872  0.000000 -0.000000 0.000000
70  -0.000035 -0.237455 -0.352044  0.000000 -0.000000 0.000000
71  -3.082033 -26.876785 -3.361118  1.556740 0.034817 0.562570
72  0.049820 1.176756 -2.121264  0.000000 -0.000000 0.000000
73  0.097438 0.527677 -2.121264  0.000000 -0.000000 0.000000
74  -0.111871 0.119885 -2.121264  0.000000 -0.000000 0.000000
time 5
0  0.000006 0.000000 0.000000  -1.570800 -1.391899 -1.570792
1  -6.586586 2.520319 2.084867  -1.544956 -1.855077 -0.198630
2  6.027520 -0.000323 0.000197  -1.428275 -0.519505 -1.134491
3  11.692111 0.000642 -0.000738  -0.793780 -0.000018 -1.405703
4  11.479829 0.000113 -0.000929  2.810683 0.077637 -0.163309
5  3.859509 -0.142879 -1.192050  -0.429258 0.244773 -0.683473
6  1.312589 0.000014 0.000007  -0.000016 0.000050 -0.224142
7  0.729357 0.000055 0.000052  0.000021 0.000016 -0.028722
8  3.942144 0.046273 -0.431514  -0.132930 0.103722 -0.598230
9  1.539109 0.000083 0.000004  -0.000002 0.000022 -0.032853
10  1.196334 0.000144 0.000029  0.000015 0.000016 -0.215175
11  3.883505 -0.047269 0.431381  0.088573 0.003111 -0.374449
12  1.719575 -0.000027 0.000014  0.001188 0.005389 -0.152319
13  1.209179 0.000092 0.000011  0.000664 0.003019 -0.001293
14  4.085222 -0.082715 1.151040  0.338412 -0.115710 -0.329728
15  1.719448 -0.000012 0.000022  0.000899 0.003970 -0.147423
16  1.099676 0.000049 0.000005  0.000551 0.002519 -0.030170
17  0.823852 -0.939653 1.255373  -1.216015 -0.659301 -0.801978
18  1.789819 -0.000007 -0.000018  -0.000275 0.003169 0.043524
19  1.207016 -0.000007 -0.000044  -0.000375 -0.000075 0.210195
20  5.740636 0.000410 -0.000703  0.254369 0.000003 0.000071
21  11.480976 0.000225 -0.000851  0.253482 0.021407 -0.031035
22  6.027525 -0.000331 0.000203  2.430786 -0.706217 0.945750
23  0.000002 11.692099 -0.000007  -0.973298 -0.424698 -0.773822
24  0.000003 0.000008 -0.000001  0.075315 -0.000030 1.570739
25  -0.000001 -0.000012 -0.000000  0.868957 0.000002 1.570712
26  -6.202567 -5.979706 -0.780666  1.473120 1.855075 -0.198639
27  6.027503 -0.000261 -0.000240  1.009442 0.155946 -0.461765
28  11.691990 0.000244 0.000857  0.399397 0.000053 -1.595452
29  11.479564 -0.000485 0.001095  -1.024539 0.479075 0.223153
30  3.452860 -0.227594 1.051753  0.406972 -0.281773 -0.608989
31  1.312559 0.000026 0.000002  -0.000002 -0.000045 -0.148961
32  0.729342 0.000066 -0.000027  -0.000028 -0.000012 0.046463
33  3.942044 0.050109 0.430996  0.121277 -0.118787 -0.520714
34  1.539098 0.000012 0.000002  0.000007 -0.000010 0.042929
35  1.196299 0.000077 -0.000006  -0.000009 -0.000006 -0.140034
36  3.883411 -0.050503 -0.431090  -0.089865 -0.000690 -0.298025
37  1.719563 -0.000080 -0.000005  -0.002289 -0.007626 -0.075726
38  1.209192 0.000037 0.000013  -0.001276 -0.004274 0.074338
39  3.806435 -0.112149 -1.295331  -0.330197 0.136798 -0.257131
40  1.719410 -0.000104 -0.000034  -0.001915 -0.006300 -0.072277
41  1.099674 0.000026 0.000005  -0.001196 -0.004013 0.046405
42  0.444468 -0.201853 -1.632534  1.079795 0.646453 -0.910435
43  1.789779 -0.000011 -0.000043  0.011965 0.001552 -0.110981
44  1.206997 -0.000006 0.000004  0.005321 0.005317 0.007332
45  5.740573 0.000055 0.000723  0.064347 -0.000014 0.000021
46  11.480860 -0.000059 0.000968  0.093672 0.085516 0.005805
47  6.027514 -0.000274 -0.000237  -0.478816 -1.227083 -1.578008
48  -0.000001 11.691971 -0.000006  -1.085690 0.529617 0.844825
49  0.000002 -0.000001 0.000000  2.671924 -0.000041 1.570856
50  -0.000007 -0.000016 0.000005  2.272644 -0.000030 1.570865
51  -9.289607 -3.639400 -18.654453  -0.054324 2.810310 1.572469
52  -0.000000 0.000000 -0.000000  0.008153 -0.000259 0.000009
53  -0.000001 -0.000001 -0.000002  1.565115 0.043565 -0.106862
54  7.102913 -17.774197 -15.098322  0.675785 -0.496893 -1.756282
55  0.000001 0.000001 -0.000001  0.000000 -0.000000 -0.000002
56  0.000031 0.000030 0.000002  -1.571901 -0.044449 -0.106509
57  10.894604 -11.423659 -27.780352  1.570796 -0.000000 0.000000
58  -18.508541 4.970249 -17.910736  1.570796 -0.000000 0.000000
59  2.089183 -1.308421 -6.931176  1.570796 -0.000000 0.000000
60  -0.004311 0.001230 -0.000371  0.006898 -0.005534 -0.284229
61  -0.780668 6.987985 -5.039522  1.570796 -0.000000 0.000000
62  0.000000 0.000000 0.000000  -0.078727 -3.136056 0.284226
63  0.000000 0.000000 0.000000  1.564928 0.003491 -0.003588
64  -5.256212 -29.308502 0.115938  1.559953 0.026866 0.792930
65  -0.072952 -3.580058 -1.661983  -0.000000 0.000000 0.000000
66  -0.072951 -1.658653 21.597473  -0.000000 0.000000 0.000000
67  -0.072953 -3.912773 -0.207298  -0.025521 0.000000 0.000000
68  -0.072953 -1.351941 -1.708408  -0.000000 0.000000 0.000000
69  0.000001 -0.073451 5.668876  -0.000000 0.000000 0.000000
70  -0.000035 -0.237455 -0.352044  -0.000000 0.000000 0.000000
71  -3.153989 -31.598312 -2.974585  1.559953 0.026866 0.792930
72  0.049821 1.176756 -2.121261  -0.000000 0.000000 0.000000
73  0.097439 0.527677 -2.121262  -0.000000 0.000000 0.000000
74  -0.111869 0.119885 -2.121263  -0.000000 0.000000 0.000000
time 6
0  0.000006 0.000000 0.000000  -1.570800 -1.391899 -1.570792
1  -7.046654 3.461354 2.037544  -1.544956 -1.855077 -0.198630
2  6.027517 -0.000320 0.000199  -1.524714 -0.345860 -1.078678
3  11.692109 0.000643 -0.000739  -0.810528 -0.000021 -1.461608
4  11.479074 -0.000181 -0.001254  2.981554 0.267327 -0.128020
5  3.859509 -0.142881 -1.192048  -0.446179 0.210600 -0.758389
6  1.312592 0.000011 0.000009  -0.000020 0.000048 -0.305479
7  0.729354 0.000052 0.000050  0.000020 0.000018 -0.110059
8  3.942142 0.046272 -0.431510  -0.140800 0.092721 -0.678445
9  1.539111 0.000084 0.000004  -0.000004 0.000022 -0.113859
10  1.196332 0.000146 0.000029  0.000014 0.000017 -0.296511
11  3.883507 -0.047271 0.431383  0.088037 0.010225 -0.454756
12  1.719571 -0.000027 0.000016  0.000750 0.005467 -0.232903
13  1.209176 0.000091 0.000010  0.000417 0.003063 -0.082383
14  4.085223 -0.082715 1.151043  0.346199 -0.088649 -0.406032
15  1.719448 -0.000012 0.000023  0.000574 0.004030 -0.228760
16  1.099673 0.000049 0.000003  0.000346 0.002555 -0.110753
17  0.823853 -0.939653 1.255376  -1.217490 -0.670124 -0.798654
18  1.789819 -0.000002 -0.000019  -0.000099 0.001974 0.113134
19  1.207015 -0.000010 -0.000044  -0.000234 -0.000042 0.274390
20  5.740637 0.000411 -0.000703  0.295674 0.000003 0.000071
21  11.480826 0.000167 -0.000917  0.288376 0.057091 -0.044269
22  6.027523 -0.000330 0.000203  2.684808 -0.694331 0.796729
23  0.000002 11.692098 -0.000007  -1.006680 -0.454869 -0.795705
24  0.000001 0.000009 0.000001  0.058569 -0.000031 1.570739
25  -0.000000 -0.000012 -0.000001  0.868957 0.000002 1.570712
26  -6.906938 -5.987932 -1.152593  1.473120 1.855075 -0.198639
27  6.027504 -0.000260 -0.000239  0.936151 0.168582 -0.531172
28  11.691991 0.000243 0.000855  0.314997 0.000037 -1.371843
29  11.479909 -0.000312 0.000965  -0.869945 0.385825 0.111438
30  3.452861 -0.227595 1.051754  0.406972 -0.281773 -0.608989
31  1.312560 0.000028 0.000001  -0.000002 -0.000045 -0.148961
32  0.729342 0.000065 -0.000029  -0.000028 -0.000012 0.046463
33  3.942046 0.050109 0.430997  0.121277 -0.118787 -0.520714
34  1.539097 0.000012 0.000002  0.000007 -0.000010 0.042929
35  1.196298 0.000076 -0.000003  -0.000009 -0.000006 -0.140034
36  3.883413 -0.050504 -0.431086  -0.089865 -0.000690 -0.298025
37  1.719564 -0.000080 -0.000005  -0.002289 -0.007626 -0.075726
38  1.209195 0.000037 0.000010  -0.001276 -0.004274 0.074338
39  3.806436 -0.112150 -1.295333  -0.330197 0.136798 -0.257131
40  1.719412 -0.000102 -0.000034  -0.001915 -0.006300 -0.072277
41  1.099674 0.000025 0.000006  -0.001196 -0.004013 0.046405
42  0.444469 -0.201855 -1.632533  1.079795 0.646453 -0.910435
43  1.789781 -0.000014 -0.000042  0.011965 0.001552 -0.110981
44  1.206996 -0.000005 0.000004  0.005321 0.005317 0.007332
45  5.740571 0.000057 0.000724  0.102239 -0.000014 0.000021
46  11.480926 -0.000026 0.000942  0.130016 0.065086 -0.018351
47  6.027515 -0.000273 -0.000237  -0.632434 -1.283095 -1.489459
48  -0.000002 11.691975 -0.000006  -0.952899 0.406728 0.760213
49  0.000002 -0.000002 0.000000  2.587529 -0.000041 1.570856
50  -0.000006 -0.000015 0.000004  2.272644 -0.000030 1.570865
51  -10.179938 -3.251856 -21.708334  0.049196 2.717726 1.617139
52  -0.000000 0.000000 -0.000002  0.008153 -0.000259 0.000009
53  0.000001 -0.000001 0.000000  1.565115 0.043565 -0.106862
54  8.913805 -17.262558 -17.558533  0.903905 -0.464152 -1.845428
55  0.000000 -0.000001 0.000002  0.000000 -0.000000 -0.000002
56  0.000031 0.000027 0.000004  -1.571902 -0.044449 -0.106509
57  11.913033 -11.890168 -29.291973  1.570796 -0.000000 0.000000
58  -17.514999 4.317196 -19.647568  1.570796 -0.000000 0.000000
59  2.041860 -2.152570 -7.551353  1.570796 -0.000000 0.000000
60  -0.004311 0.001230 -0.000371  0.006898 -0.005534 -0.284229
61  -1.152596 7.121418 -5.731188  1.570796 -0.000000 0.000000
62  0.000000 0.000000 0.000000  -0.078727 -3.136056 0.284226
63  0.000000 0.000000 0.000000  1.566359 0.002643 -0.002712
64  -5.921721 -34.470856 0.513795  1.563164 0.018914 1.023239
65  -0.072957 -3.580058 -1.661982  0.000000 -0.000000 0.000000
66  -0.072955 -1.658653 21.597467  0.000000 -0.000000 0.000000
67  -0.072956 -3.912773 -0.207298  -0.025521 -0.000000 0.000000
68  -0.072957 -1.351941 -1.708410  0.000000 -0.000000 0.000000
69  0.000006 -0.073451 5.668874  0.000000 -0.000000 -0.000000
70  -0.000033 -0.237455 -0.352043  0.000000 -0.000000 0.000000
71  -3.348085 -36.194309 -2.587822  1.563164 0.018914 1.023239
72  0.049818 1.176756 -2.121260  0.000000 -0.000000 0.000000
73  0.097438 0.527677 -2.121262  0.000000 -0.000000 0.000000
74  -0.111871 0.119885 -2.121261  0.000000 -0.000000 0.000000
time 7
0  0.000006 0.000000 0.000000  -1.570800 -1.391899 -1.570792
1  -7.452774 4.292042 1.995770  -1.544956 -1.855077 -0.198630
2  6.027518 -0.000321 0.000200  -1.495961 -0.193610 -1.029882
3  11.692108 0.000644 -0.000737  -0.825211 -0.000019 -1.443295
4  11.479626 0.000069 -0.001002  2.940923 0.233291 -0.102706
5  3.859510 -0.142881 -1.192051  -0.458822 0.179490 -0.823593
6  1.312587 0.000011 0.000009  -0.000023 0.000047 -0.377085
7  0.729354 0.000057 0.000050  0.000018 0.000019 -0.181665
8  3.942142 0.046272 -0.431512  -0.146987 0.082517 -0.749109
9  1.539112 0.000082 0.000005  -0.000006 0.000021 -0.185255
10  1.196334 0.000146 0.000028  0.000013 0.000018 -0.368118
11  3.883505 -0.047270 0.431380  0.087091 0.016450 -0.525640
12  1.719573 -0.000028 0.000013  0.000359 0.005507 -0.304031
13  1.209178 0.000090 0.000008  0.000197 0.003085 -0.153833
14  4.085223 -0.082715 1.151040  0.351325 -0.064333 -0.473072
15  1.719450 -0.000009 0.000022  0.000284 0.004061 -0.300367
16  1.099672 0.000047 0.000007  0.000164 0.002573 -0.181881
17  0.823856 -0.939653 1.255375  -1.219902 -0.676094 -0.794002
18  1.789819 -0.000004 -0.000016  -0.000011 0.000912 0.174557
19  1.207015 -0.000013 -0.000046  -0.000109 -0.000021 0.323790
20  5.740636 0.000411 -0.000703  0.282428 0.000003 0.000071
21  11.480939 0.000217 -0.000866  0.279549 0.054498 -0.035660
22  6.027525 -0.000330 0.000202  2.873407 -0.758498 0.727671
23  0.000002 11.692098 -0.000006  -0.995775 -0.444913 -0.788624
24  0.000002 0.000009 0.000002  0.043886 -0.000031 1.570739
25  -0.000000 -0.000012 -0.000001  0.868957 0.000002 1.570712
26  -7.528716 -5.995193 -1.480908  1.473120 1.855075 -0.198639
27  6.027504 -0.000257 -0.000239  0.878924 0.208113 -0.611475
28  11.691990 0.000245 0.000856  0.241560 0.000022 -1.126870
29  11.480505 -0.000022 0.000851  -0.727970 0.305744 -0.009722
30  3.452862 -0.227595 1.051757  0.406972 -0.281773 -0.608989
31  1.312560 0.000026 0.000000  -0.000002 -0.000045 -0.148961
32  0.729342 0.000064 -0.000028  -0.000028 -0.000012 0.046463
33  3.942046 0.050110 0.430998  0.121277 -0.118787 -0.520714
34  1.539097 0.000013 -0.000001  0.000007 -0.000010 0.042929
35  1.196300 0.000079 -0.000006  -0.000009 -0.000006 -0.140034
36  3.883412 -0.050503 -0.431088  -0.089865 -0.000690 -0.298025
37  1.719563 -0.000078 -0.000005  -0.002289 -0.007626 -0.075726
38  1.209195 0.000036 0.000010  -0.001276 -0.004274 0.074338
39  3.806437 -0.112150 -1.295330  -0.330197 0.136798 -0.257131
40  1.719410 -0.000101 -0.000031  -0.001915 -0.006300 -0.072277
41  1.099674 0.000024 0.000007  -0.001196 -0.004013 0.046405
42  0.444468 -0.201855 -1.632530  1.079795 0.646453 -0.910435
43  1.789781 -0.000011 -0.000043  0.011965 0.001552 -0.110981
44  1.206998 -0.000004 0.000004  0.005321 0.005317 0.007332
45  5.740571 0.000057 0.000724  0.150979 -0.000014 0.000021
46  11.481043 0.000032 0.000919  0.162710 0.043809 -0.042415
47  6.027514 -0.000272 -0.000237  -0.875438 -1.298429 -1.325410
48  -0.000001 11.691974 -0.000007  -0.801887 0.285151 0.652981
49  0.000005 -0.000001 0.000000  2.514103 -0.000041 1.570856
50  -0.000006 -0.000016 0.000004  2.272644 -0.000030 1.570865
51  -10.945870 -2.963677 -24.367506  0.148128 2.642093 1.667375
52  -0.000001 0.000000 0.000000  0.008153 -0.000259 0.000009
53  -0.000000 -0.000001 0.000002  1.565115 0.043565 -0.106862
54  9.579740 -16.562569 -20.443338  0.848585 -0.247187 -1.815547
55  -0.000000 -0.000000 -0.000002  0.000000 -0.000000 -0.000002
56  0.000031 0.000029 -0.000001  -1.571901 -0.044449 -0.106509
57  12.812040 -12.301976 -30.626341  1.570796 -0.000000 0.000000
58  -16.637960 3.740720 -21.180738  1.570796 -0.000000 0.000000
59  2.000086 -2.897735 -8.098807  1.570796 -0.000000 0.000000
60  -0.004311 0.001229 -0.000371  0.006898 -0.005534 -0.284229
61  -1.480911 7.239204 -6.341750  1.570796 -0.000000 0.000000
62  0.000000 0.000000 0.000000  -0.078727 -3.136056 0.284226
63  0.000000 0.000000 0.000000  1.567917 0.001717 -0.001759
64  -6.533269 -39.214638 0.879392  1.566113 0.011607 1.234830
65  -0.072952 -3.580058 -1.661985  0.000000 -0.000000 0.000000
66  -0.072952 -1.658653 21.597471  0.000000 -0.000000 0.000000
67  -0.072953 -3.912773 -0.207300  -0.025521 -0.000000 0.000000
68  -0.072953 -1.351941 -1.708409  0.000000 -0.000000 0.000000
69  -0.000002 -0.073451 5.668876  0.000000 -0.000000 -0.000000
70  -0.000041 -0.237455 -0.352042  0.000000 -0.000000 0.000000
71  -3.656296 -40.334827 -2.232217  1.566113 0.011607 1.234830
72  0.049818 1.176756 -2.121260  0.000000 -0.000000 0.000000
73  0.097438 0.527677 -2.121261  0.000000 -0.000000 0.000000
74  -0.111874 0.119884 -2.121261  0.000000 -0.000000 0.000000
time 8
0  0.000006 0.000000 0.000000  -1.570800 -1.391899 -1.570792
1  -7.763275 4.927146 1.963832  -1.544956 -1.855077 -0.198630
2  6.027517 -0.000320 0.000201  -1.220530 -0.131271 -0.919862
3  11.692108 0.000643 -0.000739  -0.836364 -0.000010 -1.261395
4  11.480805 0.000515 -0.000522  2.591676 -0.055433 -0.123256
5  3.859509 -0.142878 -1.192049  -0.465959 0.158650 -0.866002
6  1.312593 0.000012 0.000010  -0.000025 0.000045 -0.423938
7  0.729354 0.000055 0.000052  0.000017 0.000020 -0.228518
8  3.942143 0.046275 -0.431510  -0.150647 0.075590 -0.795448
9  1.539113 0.000083 0.000003  -0.000007 0.000021 -0.232046
10  1.196331 0.000146 0.000028  0.000012 0.000019 -0.414971
11  3.883503 -0.047267 0.431381  0.086231 0.020494 -0.572190
12  1.719574 -0.000026 0.000016  0.000102 0.005518 -0.350743
13  1.209179 0.000090 0.000016  0.000053 0.003091 -0.200640
14  4.085223 -0.082714 1.151042  0.353794 -0.048201 -0.516979
15  1.719452 -0.000013 0.000022  0.000093 0.004069 -0.347221
16  1.099676 0.000048 0.000007  0.000044 0.002578 -0.228592
17  0.823854 -0.939650 1.255374  -1.221919 -0.678622 -0.790279
18  1.789820 -0.000004 -0.000016  0.000011 0.000212 0.214889
19  1.207016 -0.000014 -0.000042  -0.000026 -0.000011 0.353413
20  5.740637 0.000413 -0.000705  0.208530 0.000003 0.000071
21  11.481173 0.000309 -0.000769  0.207439 0.003010 -0.015014
22  6.027524 -0.000329 0.000203  -0.260145 -2.104344 -2.265408
23  0.000001 11.692098 -0.000007  -0.885752 -0.350059 -0.713676
24  0.000001 0.000010 0.000001  0.032723 -0.000031 1.570739
25  -0.000001 -0.000012 -0.000001  0.868957 0.000002 1.570712
26  -8.004097 -6.000743 -1.731922  1.473120 1.855075 -0.198639
27  6.027506 -0.000258 -0.000238  0.829236 0.264005 -0.697360
28  11.691992 0.000246 0.000855  0.186199 0.000011 -0.876274
29  11.480631 0.000045 0.000824  -0.612509 0.247666 -0.138026
30  3.452864 -0.227596 1.051754  0.406972 -0.281772 -0.608989
31  1.312562 0.000023 0.000001  -0.000002 -0.000045 -0.148961
32  0.729340 0.000063 -0.000027  -0.000028 -0.000012 0.046463
33  3.942050 0.050109 0.430996  0.121277 -0.118787 -0.520714
34  1.539098 0.000011 0.000001  0.000007 -0.000010 0.042929
35  1.196299 0.000078 -0.000004  -0.000009 -0.000006 -0.140034
36  3.883415 -0.050505 -0.431091  -0.089865 -0.000690 -0.298025
37  1.719564 -0.000077 -0.000002  -0.002289 -0.007626 -0.075726
38  1.209195 0.000039 0.000014  -0.001276 -0.004274 0.074338
39  3.806439 -0.112151 -1.295333  -0.330197 0.136798 -0.257131
40  1.719411 -0.000103 -0.000031  -0.001915 -0.006300 -0.072277
41  1.099673 0.000024 0.000004  -0.001196 -0.004013 0.046405
42  0.444471 -0.201856 -1.632534  1.079795 0.646453 -0.910435
43  1.789781 -0.000012 -0.000044  0.011965 0.001552 -0.110981
44  1.206997 -0.000005 0.000004  0.005321 0.005317 0.007332
45  5.740572 0.000057 0.000724  0.210152 -0.000014 0.000021
46  11.481071 0.000047 0.000915  0.188697 0.023573 -0.066656
47  6.027515 -0.000274 -0.000236  -1.131379 -1.278373 -1.153749
48  -0.000001 11.691973 -0.000006  -0.638814 0.178452 0.528293
49  0.000005 -0.000002 0.000001  2.458757 -0.000041 1.570856
50  -0.000006 -0.000015 0.000006  2.272644 -0.000030 1.570865
51  -11.545723 -2.763911 -26.468426  0.232713 2.586632 1.715010
52  0.000000 0.000001 -0.000003  0.008153 -0.000259 0.000009
53  0.000003 -0.000002 -0.000002  1.565115 0.043565 -0.106862
54  9.074225 -15.608910 -24.415096  0.612736 0.208712 -1.726608
55  0.000001 0.000000 0.000002  0.000000 -0.000000 -0.000002
56  0.000031 0.000029 0.000002  -1.571902 -0.044449 -0.106509
57  13.499379 -12.616826 -31.646536  1.570796 -0.000000 0.000000
58  -15.967418 3.299973 -22.352928  1.570796 -0.000000 0.000000
59  1.968148 -3.467452 -8.517365  1.570796 -0.000000 0.000000
60  -0.004311 0.001229 -0.000371  0.006898 -0.005534 -0.284229
61  -1.731926 7.329258 -6.808557  1.570796 -0.000000 0.000000
62  0.000000 0.000000 0.000000  -0.078727 -3.136056 0.284226
63  0.000000 0.000000 0.000000  1.569347 0.000865 -0.000885
64  -7.036898 -43.121284 1.180472  1.568542 0.005588 1.409048
65  -0.072954 -3.580058 -1.661982  0.000000 0.000000 -0.000000
66  -0.072946 -1.658653 21.597471  0.000000 0.000000 -0.000000
67  -0.072952 -3.912773 -0.207298  -0.025521 0.000000 -0.000000
68  -0.072953 -1.351941 -1.708409  0.000000 0.000000 -0.000000
69  0.000003 -0.073451 5.668877  0.000000 0.000000 -0.000000
70  -0.000031 -0.237455 -0.352042  0.000000 0.000000 -0.000000
71  -4.013762 -43.706165 -1.939220  1.568542 0.005588 1.409048
72  0.049821 1.176756 -2.121260  0.000000 0.000000 -0.000000
73  0.097437 0.527677 -2.121260  0.000000 0.000000 -0.000000
74  -0.111873 0.119885 -2.121260  0.000000 0.000000 -0.000000
time 9
0  0.000006 0.000000 0.000000  -1.570800 -1.391899 -1.570792
1  -7.954239 5.317754 1.944189  -1.544956 -1.855077 -0.198630
2  6.027517 -0.000321 0.000200  -0.811562 -0.242343 -0.865989
3  11.692114 0.000643 -0.000740  -0.843186 0.000002 -0.981270
4  11.480714 0.000520 -0.000511  2.013285 -0.246104 -0.055972
5  3.859508 -0.142878 -1.192048  -0.468164 0.151540 -0.880272
6  1.312588 0.000012 0.000006  -0.000026 0.000045 -0.439738
7  0.729355 0.000059 0.000048  0.000017 0.000021 -0.244318
8  3.942140 0.046273 -0.431510  -0.151810 0.073212 -0.811101
9  1.539110 0.000086 0.000006  -0.000007 0.000021 -0.247841
10  1.196329 0.000145 0.000030  0.000012 0.000019 -0.430771
11  3.883503 -0.047269 0.431383  0.085898 0.021851 -0.587925
12  1.719571 -0.000028 0.000012  0.000015 0.005519 -0.366533
13  1.209179 0.000092 0.000012  0.000004 0.003092 -0.216437
14  4.085223 -0.082715 1.151042  0.354468 -0.042725 -0.531804
15  1.719450 -0.000014 0.000022  0.000029 0.004070 -0.363021
16  1.099675 0.000049 0.000004  0.000003 0.002579 -0.244381
17  0.823853 -0.939651 1.255378  -1.222687 -0.679194 -0.788886
18  1.789820 -0.000004 -0.000018  0.000012 -0.000024 0.228522
19  1.207016 -0.000012 -0.000043  0.000002 -0.000008 0.362858
20  5.740641 0.000411 -0.000703  0.111903 0.000003 0.000071
21  11.481158 0.000314 -0.000761  0.090854 -0.027521 -0.006657
22  6.027525 -0.000329 0.000203  -1.153676 -1.836299 -1.296486
23  0.000003 11.692098 -0.000009  -0.708348 -0.220760 -0.582310
24  0.000001 0.000010 0.000000  0.025885 -0.000031 1.570739
25  0.000000 -0.000012 -0.000001  0.868957 0.000002 1.570712
26  -8.296470 -6.004158 -1.886303  1.473120 1.855075 -0.198639
27  6.027507 -0.000259 -0.000239  0.785190 0.321757 -0.777329
28  11.691990 0.000246 0.000855  0.152521 0.000001 -0.653280
29  11.480874 0.000127 0.000804  -0.533674 0.213761 -0.254481
30  3.452859 -0.227595 1.051753  0.406972 -0.281773 -0.608989
31  1.312560 0.000023 0.000002  -0.000002 -0.000045 -0.148961
32  0.729341 0.000063 -0.000028  -0.000028 -0.000012 0.046463
33  3.942045 0.050109 0.430996  0.121277 -0.118787 -0.520714
34  1.539098 0.000012 0.000000  0.000007 -0.000010 0.042929
35  1.196301 0.000074 -0.000005  -0.000009 -0.000006 -0.140034
36  3.883411 -0.050503 -0.431089  -0.089865 -0.000690 -0.298025
37  1.719566 -0.000079 -0.000000  -0.002289 -0.007626 -0.075726
38  1.209194 0.000036 0.000011  -0.001276 -0.004274 0.074338
39  3.806436 -0.112150 -1.295331  -0.330197 0.136798 -0.257131
40  1.719411 -0.000101 -0.000033  -0.001915 -0.006300 -0.072277
41  1.099674 0.000025 0.000003  -0.001196 -0.004013 0.046405
42  0.444467 -0.201854 -1.632535  1.079795 0.646453 -0.910435
43  1.789781 -0.000011 -0.000041  0.011965 0.001552 -0.110981
44  1.206995 -0.000006 0.000003  0.005321 0.005317 0.007332
45  5.740573 0.000059 0.000725  0.273663 -0.000014 0.000021
46  11.481119 0.000065 0.000910  0.206014 0.007043 -0.088310
47  6.027515 -0.000275 -0.000238  -1.326053 -1.238850 -1.035639
48  -0.000001 11.691975 -0.000005  -0.485410 0.101718 0.405453
49  0.000004 0.000001 0.000000  2.425094 -0.000041 1.570856
50  -0.000006 -0.000014 0.000005  2.272644 -0.000030 1.570865
51  -11.938464 -2.646101 -27.853130  0.291780 2.552594 1.750397
52  -0.000000 -0.000001 -0.000001  0.008153 -0.000259 0.000009
53  -0.000001 -0.000000 -0.000001  1.565115 0.043565 -0.106862
54  8.139212 -14.822915 -27.703815  0.365105 0.626697 -1.732205
55  0.000001 0.000000 -0.000000  0.000000 -0.000000 -0.000002
56  0.000032 0.000031 0.000001  -1.571901 -0.044449 -0.106509
57  13.922112 -12.810466 -32.273979  1.570796 -0.000000 0.000000
58  -15.555015 3.028902 -23.073856  1.570796 -0.000000 0.000000
59  1.948505 -3.817844 -8.774789  1.570796 -0.000000 0.000000
60  -0.004311 0.001229 -0.000371  0.006898 -0.005534 -0.284229
61  -1.886307 7.384644 -7.095655  1.570796 -0.000000 0.000000
62  0.000000 0.000000 0.000000  -0.078727 -3.136056 0.284226
63  0.000000 0.000000 0.000000  1.570391 0.000242 -0.000247
64  -7.378645 -45.772217 1.384777  1.570189 0.001505 1.527251
65  -0.072956 -3.580058 -1.661983  -0.000000 0.000000 0.000000
66  -0.072953 -1.658653 21.597471  -0.000000 0.000000 0.000000
67  -0.072952 -3.912773 -0.207299  -0.025521 0.000000 0.000000
68  -0.072960 -1.351941 -1.708410  -0.000000 0.000000 0.000000
69  0.000002 -0.073451 5.668876  -0.000000 0.000000 -0.000000
70  -0.000039 -0.237455 -0.352044  -0.000000 0.000000 0.000000
71  -4.312218 -45.983562 -1.740325  1.570189 0.001505 1.527251
72  0.049817 1.176756 -2.121261  -0.000000 0.000000 0.000000
73  0.097435 0.527677 -2.121261  -0.000000 0.000000 0.000000
74  -0.111873 0.119884 -2.121260  -0.000000 0.000000 0.000000
time 10
0  0.000006 0.000000 0.000000  -1.570800 -1.391899 -1.570792
1  -8.017693 5.447542 1.937662  -1.544956 -1.855077 -0.198630
2  6.027517 -0.000322 0.000199  -0.644297 -0.302593 -0.898167
3  11.692116 0.000644 -0.000739  -0.845444 0.000006 -0.841812
4  11.480869 0.000574 -0.000451  1.773616 -0.242546 -0.016129
5  3.859513 -0.142878 -1.192046  -0.468164 0.151540 -0.880272
6  1.312591 0.000009 0.000008  -0.000026 0.000045 -0.439738
7  0.729353 0.000054 0.000051  0.000017 0.000021 -0.244318
8  3.942147 0.046273 -0.431509  -0.151810 0.073212 -0.811101
9  1.539111 0.000084 0.000009  -0.000007 0.000021 -0.247841
10  1.196336 0.000147 0.000028  0.000011 0.000019 -0.430771
11  3.883511 -0.047268 0.431383  0.085898 0.021851 -0.587925
12  1.719572 -0.000027 0.000016  0.000015 0.005519 -0.366533
13  1.209180 0.000092 0.000010  0.000004 0.003092 -0.216437
14  4.085225 -0.082715 1.151042  0.354468 -0.042725 -0.531804
15  1.719450 -0.000012 0.000018  0.000029 0.004070 -0.363021
16  1.099675 0.000047 0.000006  0.000003 0.002579 -0.244381
17  0.823856 -0.939651 1.255378  -1.222687 -0.679194 -0.788886
18  1.789820 -0.000002 -0.000022  0.000012 -0.000024 0.228522
19  1.207015 -0.000014 -0.000043  0.000002 -0.000008 0.362858
20  5.740638 0.000408 -0.000703  0.070095 0.000003 0.000071
21  11.481186 0.000324 -0.000748  0.044190 -0.026250 -0.006789
22  6.027524 -0.000331 0.000202  -1.753023 -1.878564 -0.707161
23  0.000002 11.692101 -0.000009  -0.615659 -0.165421 -0.509997
24  0.000003 0.000007 -0.000002  0.023617 -0.000031 1.570738
25  -0.000000 -0.000012 -0.000001  0.868957 0.000002 1.570712
26  -8.393617 -6.005292 -1.937599  1.473120 1.855075 -0.198639
27  6.027507 -0.000257 -0.000237  0.763165 0.350920 -0.816794
28  11.691991 0.000244 0.000857  0.141395 -0.000000 -0.547392
29  11.480382 0.000018 0.000821  -0.503860 0.202454 -0.309882
30  3.452858 -0.227594 1.051752  0.406972 -0.281772 -0.608989
31  1.312562 0.000026 0.000001  -0.000002 -0.000045 -0.148961
32  0.729342 0.000064 -0.000028  -0.000028 -0.000012 0.046463
33  3.942044 0.050109 0.430995  0.121277 -0.118787 -0.520714
34  1.539100 0.000014 0.000000  0.000007 -0.000010 0.042929
35  1.196300 0.000077 -0.000004  -0.000009 -0.000006 -0.140034
36  3.883411 -0.050503 -0.431088  -0.089865 -0.000690 -0.298025
37  1.719567 -0.000077 -0.000002  -0.002289 -0.007626 -0.075726
38  1.209194 0.000040 0.000013  -0.001276 -0.004274 0.074338
39  3.806435 -0.112150 -1.295333  -0.330197 0.136798 -0.257131
40  1.719410 -0.000102 -0.000035  -0.001915 -0.006300 -0.072277
41  1.099676 0.000024 0.000005  -0.001196 -0.004013 0.046405
42  0.444467 -0.201854 -1.632533  1.079794 0.646453 -0.910435
43  1.789780 -0.000015 -0.000042  0.011965 0.001552 -0.110981
44  1.206995 -0.000005 0.000003  0.005321 0.005317 0.007332
45  5.740575 0.000055 0.000723  0.308055 -0.000014 0.000021
46  11.481024 0.000039 0.000914  0.212454 -0.000311 -0.098592
47  6.027514 -0.000273 -0.000236  -1.404938 -1.214845 -0.993559
48  -0.000000 11.691975 -0.000005  -0.409884 0.072127 0.343613
49  0.000004 0.000002 -0.000001  2.413975 -0.000041 1.570856
50  -0.000006 -0.000015 0.000005  2.272644 -0.000030 1.570865
51  -12.080094 -2.607073 -28.354927  0.313880 2.540827 1.764035
52  0.000004 -0.000000 -0.000002  0.008153 -0.000259 0.000009
53  -0.000002 0.000000 0.000000  1.565115 0.043565 -0.106862
54  7.720896 -14.546185 -28.864317  0.255881 0.766400 -1.766008
55  0.000002 0.000000 -0.000003  0.000000 -0.000000 -0.000002
56  0.000033 0.000029 -0.000001  -1.571901 -0.044449 -0.106509
57  14.062574 -12.874806 -32.482468  1.570796 -0.000000 0.000000
58  -15.417985 2.938832 -23.313402  1.570796 -0.000000 0.000000
59  1.941978 -3.934269 -8.860325  1.570796 -0.000000 0.000000
60  -0.004311 0.001229 -0.000371  0.006898 -0.005534 -0.284229
61  -1.937603 7.403047 -7.191051  1.570796 -0.000000 0.000000
62  0.000000 0.000000 0.000000  -0.078727 -3.136056 0.284226
63  0.000000 0.000000 0.000000  1.570796 -0.000000 0.000000
64  -7.504552 -46.748878 1.460047  1.570796 -0.000000 1.570796
65  -0.072957 -3.580058 -1.661983  0.000000 -0.000000 0.000000
66  -0.072951 -1.658653 21.597471  0.000000 -0.000000 0.000000
67  -0.072957 -3.912773 -0.207298  -0.025521 -0.000000 0.000000
68  -0.072957 -1.351941 -1.708409  0.000000 -0.000000 0.000000
69  -0.000000 -0.073451 5.668875  -0.000000 0.000000 -0.000000
70  -0.000039 -0.237455 -0.352044  0.000000 -0.000000 0.000000
71  -4.433729 -46.821835 -1.667034  1.570796 -0.000000 1.570796
72  0.049819 1.176756 -2.121260  0.000000 -0.000000 0.000000
73  0.097438 0.527677 -2.121260  0.000000 -0.000000 0.000000
74  -0.111874 0.119885 -2.121260  0.000000 -0.000000 0.000000
end
