version 1
nodes
0 "ValveBiped.Bip01_Spine4" -1
1 "ValveBiped.Bip01_L_Clavicle" 0
2 "ValveBiped.Bip01_L_UpperArm" 1
3 "ValveBiped.Bip01_L_Forearm" 2
4 "ValveBiped.Bip01_L_Hand" 3
5 "ValveBiped.Bip01_L_Finger4" 4
6 "ValveBiped.Bip01_L_Finger41" 5
7 "ValveBiped.Bip01_L_Finger42" 6
8 "ValveBiped.Bip01_L_Finger3" 4
9 "ValveBiped.Bip01_L_Finger31" 8
10 "ValveBiped.Bip01_L_Finger32" 9
11 "ValveBiped.Bip01_L_Finger2" 4
12 "ValveBiped.Bip01_L_Finger21" 11
13 "ValveBiped.Bip01_L_Finger22" 12
14 "ValveBiped.Bip01_L_Finger1" 4
15 "ValveBiped.Bip01_L_Finger11" 14
16 "ValveBiped.Bip01_L_Finger12" 15
17 "ValveBiped.Bip01_L_Finger0" 4
18 "ValveBiped.Bip01_L_Finger01" 17
19 "ValveBiped.Bip01_L_Finger02" 18
20 "ValveBiped.Bip01_L_Ulna" 3
21 "ValveBiped.Bip01_L_Wrist" 3
22 "rig_l_upperarm" 1
23 "rig_l_forearm" 22
24 "rig_d_l_forearm" 23
25 "rig_d_l_upperarm" 22
26 "ValveBiped.Bip01_R_Clavicle" 0
27 "ValveBiped.Bip01_R_UpperArm" 26
28 "ValveBiped.Bip01_R_Forearm" 27
29 "ValveBiped.Bip01_R_Hand" 28
30 "ValveBiped.Bip01_R_Finger4" 29
31 "ValveBiped.Bip01_R_Finger41" 30
32 "ValveBiped.Bip01_R_Finger42" 31
33 "ValveBiped.Bip01_R_Finger3" 29
34 "ValveBiped.Bip01_R_Finger31" 33
35 "ValveBiped.Bip01_R_Finger32" 34
36 "ValveBiped.Bip01_R_Finger2" 29
37 "ValveBiped.Bip01_R_Finger21" 36
38 "ValveBiped.Bip01_R_Finger22" 37
39 "ValveBiped.Bip01_R_Finger1" 29
40 "ValveBiped.Bip01_R_Finger11" 39
41 "ValveBiped.Bip01_R_Finger12" 40
42 "ValveBiped.Bip01_R_Finger0" 29
43 "ValveBiped.Bip01_R_Finger01" 42
44 "ValveBiped.Bip01_R_Finger02" 43
45 "ValveBiped.Bip01_R_Ulna" 28
46 "ValveBiped.Bip01_R_Wrist" 28
47 "rig_r_upperarm" 26
48 "rig_r_forearm" 47
49 "rig_d_r_forearm" 48
50 "rig_d_r_upperarm" 47
51 "rig_r_hand" -1
52 "rig_d_r_hand" 51
53 "rig_d_r_wrist" 52
54 "rig_l_hand" -1
55 "rig_d_l_hand" 54
56 "rig_d_l_wrist" 54
57 "rig_l_pole" -1
58 "rig_r_pole" -1
59 "rig_l_clavicle" -1
60 "rig_d_l_clavicle" 59
61 "rig_r_clavicle" -1
62 "rig_d_r_clavicle" 61
63 "Camera" -1
64 "body" -1
65 "trigger" 64
66 "barrel" 64
67 "magrel" 64
68 "bullet1" 64
69 "magrel2" 64
70 "chandle2" 64
71 "chandle" 70
72 "bolt" 64
73 "boltrelease" 64
74 "mag" -1
75 "bullet2" 74
76 "bullet3" 74
end
skeleton
time 0
0  0.031807 0.000000 -0.000718  -1.570800 -1.391899 -1.570792
1  2.033349 1.000767 1.937657  -1.544956 -1.855077 -0.198630
2  6.027516 -0.000328 0.000207  -1.584530 0.021395 -0.583842
3  11.692114 0.000488 -0.000740  -0.000016 -0.000000 -0.007121
4  11.493144 0.000196 -0.000731  1.578187 -0.105563 0.016833
5  3.859502 -0.142878 -1.192066  -0.468166 0.151540 -0.880272
6  1.312588 0.000014 0.000005  -0.000028 0.000045 -0.439735
7  0.729355 0.000056 0.000049  0.000017 0.000021 -0.244319
8  3.942139 0.046272 -0.431529  -0.151814 0.073211 -0.811098
9  1.539107 0.000083 -0.000001  -0.000007 0.000020 -0.247842
10  1.196333 0.000144 0.000024  0.000010 0.000019 -0.430771
11  3.883504 -0.047268 0.431364  0.085896 0.021852 -0.587925
12  1.719571 -0.000025 0.000010  0.000014 0.005518 -0.366532
13  1.209180 0.000091 0.000007  0.000003 0.003092 -0.216438
14  3.859666 -0.138475 1.332393  0.354468 -0.042722 -0.531803
15  1.719447 -0.000013 0.000021  0.000028 0.004067 -0.363021
16  1.099675 0.000048 0.000002  0.000002 0.002578 -0.244381
17  0.805999 -0.349052 1.321250  -1.222690 -0.679189 -0.788883
18  1.789817 -0.000006 -0.000015  0.000011 -0.000024 0.228522
19  1.207015 -0.000013 -0.000041  0.000002 -0.000008 0.362857
20  5.740635 0.000364 -0.000699  -0.002606 0.000003 0.000060
21  11.483640 0.000175 -0.000799  0.005205 0.000379 -0.006561
22  6.027523 -0.000330 0.000206  0.027748 -2.453687 -2.172322
23  -0.000000 11.692099 -0.000006  -0.005460 -0.000058 -0.004615
24  0.000002 0.000006 -0.000001  0.868996 -0.000031 1.570738
25  -0.000002 -0.000007 -0.000002  0.868967 -0.000009 1.570721
26  2.033355 1.000772 -1.937610  1.473120 1.855074 -0.198639
27  6.027509 -0.000263 -0.000230  1.638349 -0.027674 -0.589111
28  11.691992 0.000245 0.000862  -0.000050 -0.000003 -0.100160
29  11.481182 0.000157 0.000814  -1.563733 0.107560 0.064391
30  3.859439 -0.132763 1.193064  0.466290 -0.158049 -0.878824
31  1.312559 0.000026 -0.000002  0.000012 -0.000043 -0.439709
32  0.729344 0.000065 -0.000029  -0.000023 -0.000020 -0.244285
33  3.942045 0.050134 0.430999  0.150091 -0.079183 -0.810191
34  1.539097 0.000009 -0.000005  0.000008 -0.000008 -0.247823
35  1.196298 0.000079 -0.000008  -0.000008 -0.000009 -0.430782
36  3.883411 -0.050480 -0.431085  -0.085915 -0.026398 -0.587662
37  1.719563 -0.000082 -0.000015  -0.000008 -0.007961 -0.366484
38  1.209197 0.000034 0.000005  0.000001 -0.004462 -0.216413
39  3.859586 -0.149087 -1.331322  -0.354446 0.038570 -0.531955
40  1.719415 -0.000093 -0.000048  -0.000032 -0.006584 -0.363029
41  1.099673 0.000024 -0.000000  0.000003 -0.004188 -0.244346
42  0.805981 -0.359852 -1.318338  1.221449 0.673634 -0.793551
43  1.789779 -0.000006 -0.000029  -0.000030 0.000031 0.228551
44  1.206997 -0.000003 0.000014  -0.000019 0.000020 0.362912
45  5.740574 0.000119 0.000726  -0.002831 -0.000013 0.000032
46  11.481184 0.000168 0.000915  0.000245 0.000119 0.002626
47  6.027517 -0.000277 -0.000229  0.034372 -0.634013 -2.180346
48  0.000000 11.691981 -0.000006  -0.076441 0.002495 0.064604
49  0.000003 -0.000001 -0.000000  2.272566 -0.000036 1.570861
50  -0.000006 -0.000014 0.000005  2.272646 -0.000031 1.570865
51  -22.612965 -0.984331 -17.555550  -1.605366 2.379717 -0.041994
52  0.000002 0.000001 0.000000  0.008153 -0.000259 0.000009
53  -0.000003 -0.000002 0.000000  1.565115 0.043565 -0.106862
54  22.740120 -0.984221 -17.555637  1.605712 0.761853 0.042358
55  0.000000 -0.000002 -0.000000  0.000000 -0.000000 -0.000002
56  0.000031 0.000028 0.000001  -1.571901 -0.044449 -0.106509
57  15.296824 8.339654 -8.788257  1.570796 -0.000000 0.000000
58  -15.233200 8.339654 -8.788257  1.570796 -0.000000 0.000000
59  1.973778 -1.346989 1.820868  1.570796 -0.000000 0.000000
60  -0.004311 0.001230 -0.000371  0.006898 -0.005534 -0.284228
61  -1.905803 -1.346625 1.822105  1.570796 -0.000000 0.000000
62  0.000000 0.000000 0.000000  -0.078728 -3.136056 0.284225
63  0.031801 0.000000 -0.000718  1.570796 -0.000000 0.000000
64  -3.559040 -11.939873 -2.852651  1.570796 -0.000000 0.000000
65  -0.039397 -3.107036 0.976860  0.000000 -0.000000 0.000000
66  -0.039396 -0.914783 9.564856  0.000000 -0.000000 0.000000
67  -0.039396 -3.172347 3.170215  0.000000 -0.000000 0.000000
68  -0.039397 -1.229303 3.715100  0.000000 -0.000000 0.000000
69  0.408672 -2.529140 3.193419  0.000000 -0.000000 0.000000
70  -0.039396 0.091155 10.882011  0.000000 -0.000000 0.000000
71  0.872713 0.008025 -1.510462  0.000000 -0.000000 0.000000
72  -0.039397 -0.788819 2.900786  0.000000 -0.000000 0.000000
73  0.595149 -1.458825 1.529925  0.000000 -0.000000 0.000000
74  -3.556560 -16.646259 -6.949824  1.570796 -0.000000 0.000000
75  -0.168163 2.614667 -0.991286  0.000000 -0.000000 0.000000
76  0.085124 2.434092 -0.991286  0.000000 -0.000000 0.000000
end
triangles
gun_tex
0  -3.387543 -15.444597 -5.296703  0.000000 0.999648 -0.026549  0.392709 0.509617 1 74 1.000000
0  -3.176651 -15.416576 -4.241643  0.000000 0.999648 -0.026549  0.392940 0.509675 1 74 1.000000
0  -3.176651 -15.444597 -5.296703  0.000000 0.999648 -0.026549  0.392709 0.509675 1 74 1.000000
gun_tex
0  -3.176651 -16.631649 -4.241643  1.000000 0.000003 0.000000  0.392940 0.509890 1 74 1.000000
0  -3.176651 -16.721542 -5.094790  1.000000 0.000003 0.000000  0.392709 0.509905 1 74 1.000000
0  -3.176651 -16.633579 -5.108698  1.000000 0.000003 0.000000  0.392709 0.509890 1 74 1.000000
gun_tex
0  -4.020219 -16.173260 -5.181485  -1.000000 0.000000 0.000000  0.392709 0.510236 1 74 1.000000
0  -4.020219 -15.416576 -4.241643  -1.000000 0.000000 0.000000  0.392940 0.510367 1 74 1.000000
0  -4.020219 -15.444597 -5.296703  -1.000000 0.000000 0.000000  0.392709 0.510367 1 74 1.000000
gun_tex
0  -4.020219 -15.444597 -5.296703  -1.000000 0.000000 0.000000  0.392709 0.510367 1 74 1.000000
0  -4.020219 -16.527925 -6.940312  -1.000000 0.000000 0.000000  0.392709 0.510236 1 74 1.000000
0  -4.020219 -16.173260 -5.181485  -1.000000 0.000000 0.000000  0.392709 0.510236 1 74 1.000000
gun_tex
0  -3.176651 -16.633579 -5.108698  1.000000 0.000003 0.000000  0.392709 0.509890 1 74 1.000000
0  -3.176651 -17.066566 -6.806160  1.000000 0.000003 0.000000  0.392709 0.509905 1 74 1.000000
0  -3.176651 -16.980152 -6.827683  1.000000 0.000003 0.000000  0.392709 0.509890 1 74 1.000000
gun_tex
0  -3.176651 -15.444597 -5.296703  0.000000 0.980259 -0.197720  0.392709 0.509675 1 74 1.000000
0  -3.387543 -15.812078 -7.118599  0.000000 0.980259 -0.197720  0.392709 0.509617 1 74 1.000000
0  -3.387543 -15.444597 -5.296703  0.000000 0.980259 -0.197720  0.392709 0.509617 1 74 1.000000
gun_tex
0  -3.387543 -15.812078 -7.118599  0.000000 0.948709 -0.316150  0.392709 0.509617 1 74 1.000000
0  -3.176651 -16.461107 -9.066223  0.000000 0.948709 -0.316150  0.392709 0.509675 1 74 1.000000
0  -3.387543 -16.461107 -9.066223  0.000000 0.948709 -0.316150  0.392709 0.509617 1 74 1.000000
gun_tex
0  -4.020219 -15.812078 -7.118599  -1.000000 0.000000 0.000000  0.392709 0.510367 1 74 1.000000
0  -4.020219 -17.135120 -8.766340  -1.000000 0.000000 0.000000  0.392709 0.510236 1 74 1.000000
0  -4.020219 -16.527925 -6.940312  -1.000000 0.000000 0.000000  0.392709 0.510236 1 74 1.000000
gun_tex
0  -3.176651 -16.980152 -6.827683  1.000000 0.000004 0.000000  0.392709 0.509890 1 74 1.000000
0  -3.176651 -17.642282 -8.540692  1.000000 0.000004 0.000000  0.392709 0.509905 1 74 1.000000
0  -3.176651 -17.560917 -8.576894  1.000000 0.000004 0.000000  0.392709 0.509890 1 74 1.000000
gun_tex
0  -4.020218 -16.721542 -5.094790  0.000000 -0.980277 0.197630  0.392709 0.510136 1 74 1.000000
0  -3.809326 -17.066566 -6.806160  0.000000 -0.980277 0.197630  0.392709 0.510079 1 74 1.000000
0  -3.809327 -16.721542 -5.094790  0.000000 -0.980277 0.197630  0.392709 0.510079 1 74 1.000000
gun_tex
0  -3.809326 -17.066566 -6.806160  0.000000 -0.949087 0.315015  0.392709 0.510079 1 74 1.000000
0  -4.020218 -17.642282 -8.540691  0.000000 -0.949087 0.315015  0.392709 0.510136 1 74 1.000000
0  -3.809327 -17.642282 -8.540691  0.000000 -0.949087 0.315015  0.392709 0.510079 1 74 1.000000
gun_tex
0  -3.382249 -16.394230 -4.241643  -0.921066 -0.389400 -0.002395  0.392996 0.509927 1 74 1.000000
0  -3.292330 -16.600746 -5.245512  -0.921084 -0.389357 -0.002405  0.392953 0.509916 1 74 1.000000
0  -3.292330 -16.610779 -4.241643  -0.921084 -0.389357 -0.002405  0.392953 0.509916 1 74 1.000000
gun_tex
0  -3.809327 -16.721542 -4.241643  0.000000 -1.000000 0.000000  0.392940 0.510079 1 74 1.000000
0  -4.020218 -16.721542 -5.094790  0.000000 -1.000000 0.000000  0.392709 0.510136 1 74 1.000000
0  -3.809327 -16.721542 -5.094790  0.000000 -1.000000 0.000000  0.392709 0.510079 1 74 1.000000
gun_tex
0  -3.387543 -16.721542 -4.241643  0.000000 -1.000000 0.000000  0.392940 0.509963 1 74 1.000000
0  -3.598435 -16.721542 -5.094790  0.000000 -1.000000 0.000000  0.392709 0.510021 1 74 1.000000
0  -3.387543 -16.721542 -5.094790  0.000000 -1.000000 0.000000  0.392709 0.509963 1 74 1.000000
gun_tex
0  -3.763798 -15.555705 -4.241643  0.000000 -0.999794 0.020292  0.393163 0.510079 1 74 1.000000
0  -3.598435 -15.581622 -5.518585  0.000000 -0.999794 0.020292  0.393163 0.510021 1 74 1.000000
0  -3.598435 -15.555705 -4.241643  0.000000 -0.999794 0.020292  0.393163 0.510021 1 74 1.000000
gun_tex
0  -3.598435 -17.066566 -6.806160  0.000000 -0.949087 0.315015  0.392709 0.510021 1 74 1.000000
0  -3.387543 -17.642282 -8.540692  0.000000 -0.949087 0.315015  0.392709 0.509963 1 74 1.000000
0  -3.387543 -17.066566 -6.806160  0.000000 -0.949087 0.315015  0.392709 0.509963 1 74 1.000000
gun_tex
0  -3.598435 -16.721542 -5.094790  0.000000 -0.980277 0.197629  0.392709 0.510021 1 74 1.000000
0  -3.387543 -17.066566 -6.806160  0.000000 -0.980277 0.197629  0.392709 0.509963 1 74 1.000000
0  -3.387543 -16.721542 -5.094790  0.000000 -0.980277 0.197629  0.392709 0.509963 1 74 1.000000
gun_tex
0  -3.598435 -15.812078 -7.118599  0.000000 0.948710 -0.316149  0.392709 0.509559 1 74 1.000000
0  -3.809327 -16.461105 -9.066223  0.000000 0.948710 -0.316149  0.392709 0.509501 1 74 1.000000
0  -3.809327 -15.812078 -7.118599  0.000000 0.948710 -0.316149  0.392709 0.509501 1 74 1.000000
gun_tex
0  -3.598435 -15.444597 -5.296703  0.000000 0.980259 -0.197720  0.392709 0.509559 1 74 1.000000
0  -3.809327 -15.812078 -7.118599  0.000000 0.980259 -0.197720  0.392709 0.509501 1 74 1.000000
0  -3.809327 -15.444597 -5.296703  0.000000 0.980259 -0.197720  0.392709 0.509501 1 74 1.000000
gun_tex
0  -3.809327 -15.444597 -5.296703  0.000000 0.999647 -0.026550  0.392709 0.509501 1 74 1.000000
0  -3.598435 -15.416576 -4.241643  0.000000 0.999647 -0.026550  0.392940 0.509559 1 74 1.000000
0  -3.598435 -15.444597 -5.296703  0.000000 0.999647 -0.026550  0.392709 0.509559 1 74 1.000000
gun_tex
0  -3.387543 -16.721542 -5.094790  0.000000 -0.980277 0.197630  0.392709 0.509963 1 74 1.000000
0  -3.176651 -17.066566 -6.806160  0.000000 -0.980277 0.197630  0.392709 0.509905 1 74 1.000000
0  -3.176651 -16.721542 -5.094790  0.000000 -0.980277 0.197630  0.392709 0.509905 1 74 1.000000
gun_tex
0  -3.387543 -17.066566 -6.806160  0.000000 -0.949087 0.315015  0.392709 0.509963 1 74 1.000000
0  -3.176651 -17.642282 -8.540692  0.000000 -0.949087 0.315015  0.392709 0.509905 1 74 1.000000
0  -3.176651 -17.066566 -6.806160  0.000000 -0.949087 0.315015  0.392709 0.509905 1 74 1.000000
gun_tex
0  -3.292330 -15.555705 -4.241643  -1.000000 0.000000 0.000000  0.393163 0.509914 1 74 1.000000
0  -3.292330 -16.170494 -5.360797  -1.000000 0.000000 0.000000  0.393042 0.509914 1 74 1.000000
0  -3.292330 -16.165352 -4.241643  -1.000000 0.000000 0.000000  0.393042 0.509914 1 74 1.000000
gun_tex
0  -3.176651 -16.721542 -4.241643  0.000000 -1.000000 0.000000  0.392940 0.509905 1 74 1.000000
0  -3.387543 -16.721542 -5.094790  0.000000 -1.000000 0.000000  0.392709 0.509963 1 74 1.000000
0  -3.176651 -16.721542 -5.094790  0.000000 -1.000000 0.000000  0.392709 0.509905 1 74 1.000000
gun_tex
0  -3.387543 -15.812078 -7.118599  0.000000 0.948710 -0.316148  0.392709 0.509617 1 74 1.000000
0  -3.598435 -16.461105 -9.066223  0.000000 0.948710 -0.316148  0.392709 0.509559 1 74 1.000000
0  -3.598435 -15.812078 -7.118599  0.000000 0.948710 -0.316148  0.392709 0.509559 1 74 1.000000
gun_tex
0  -3.387543 -15.444597 -5.296703  0.000000 0.980258 -0.197721  0.392709 0.509617 1 74 1.000000
0  -3.598435 -15.812078 -7.118599  0.000000 0.980258 -0.197721  0.392709 0.509559 1 74 1.000000
0  -3.598435 -15.444597 -5.296703  0.000000 0.980258 -0.197721  0.392709 0.509559 1 74 1.000000
gun_tex
0  -3.598435 -15.444597 -5.296703  0.000000 0.999648 -0.026549  0.392709 0.509559 1 74 1.000000
0  -3.387543 -15.416576 -4.241643  0.000000 0.999648 -0.026549  0.392940 0.509617 1 74 1.000000
0  -3.387543 -15.444597 -5.296703  0.000000 0.999648 -0.026549  0.392709 0.509617 1 74 1.000000
gun_tex
0  -4.020219 -15.416576 -4.241643  0.000000 0.999648 -0.026549  0.392940 0.509444 1 74 1.000000
0  -3.809327 -15.444597 -5.296703  0.000000 0.999648 -0.026549  0.392709 0.509501 1 74 1.000000
0  -4.020219 -15.444597 -5.296703  0.000000 0.999648 -0.026549  0.392709 0.509444 1 74 1.000000
gun_tex
0  -3.809327 -15.444597 -5.296703  0.000000 0.980259 -0.197720  0.392709 0.509501 1 74 1.000000
0  -4.020219 -15.812078 -7.118599  0.000000 0.980259 -0.197720  0.392709 0.509444 1 74 1.000000
0  -4.020219 -15.444597 -5.296703  0.000000 0.980259 -0.197720  0.392709 0.509444 1 74 1.000000
gun_tex
0  -3.809327 -15.812078 -7.118599  0.000000 0.948709 -0.316149  0.392709 0.509501 1 74 1.000000
0  -4.020219 -16.461105 -9.066223  0.000000 0.948709 -0.316149  0.392709 0.509444 1 74 1.000000
0  -4.020219 -15.812078 -7.118599  0.000000 0.948709 -0.316149  0.392709 0.509444 1 74 1.000000
gun_tex
0  -3.598435 -16.721542 -4.241643  0.000000 -1.000000 0.000000  0.392940 0.510021 1 74 1.000000
0  -3.809327 -16.721542 -5.094790  0.000000 -1.000000 0.000000  0.392709 0.510079 1 74 1.000000
0  -3.598435 -16.721542 -5.094790  0.000000 -1.000000 0.000000  0.392709 0.510021 1 74 1.000000
gun_tex
0  -3.763798 -16.635914 -4.241643  0.000000 0.999940 0.010919  0.392949 0.510079 1 74 1.000000
0  -3.904540 -16.625023 -5.239006  0.000000 0.999940 0.010919  0.392949 0.510128 1 74 1.000000
0  -3.904540 -16.635914 -4.241643  0.000000 0.999940 0.010919  0.392949 0.510128 1 74 1.000000
gun_tex
0  -3.809326 -17.066566 -6.806160  0.000000 -0.949087 0.315015  0.392709 0.510079 1 74 1.000000
0  -3.598435 -17.642282 -8.540691  0.000000 -0.949087 0.315015  0.392709 0.510021 1 74 1.000000
0  -3.598435 -17.066566 -6.806160  0.000000 -0.949087 0.315015  0.392709 0.510021 1 74 1.000000
gun_tex
0  -3.809327 -16.721542 -5.094790  0.000000 -0.980277 0.197630  0.392709 0.510079 1 74 1.000000
0  -3.598435 -17.066566 -6.806160  0.000000 -0.980277 0.197630  0.392709 0.510021 1 74 1.000000
0  -3.598435 -16.721542 -5.094790  0.000000 -0.980277 0.197630  0.392709 0.510021 1 74 1.000000
gun_tex
0  -3.814621 -16.394230 -4.241643  0.921067 -0.389396 -0.002397  0.392996 0.510115 1 74 1.000000
0  -3.904541 -16.600744 -5.245512  0.921067 -0.389396 -0.002397  0.392953 0.510128 1 74 1.000000
0  -3.814621 -16.391575 -5.301558  0.921067 -0.389396 -0.002397  0.392996 0.510115 1 74 1.000000
gun_tex
0  -3.292330 -16.610779 -4.241643  -1.000000 0.000000 0.000000  0.392953 0.509916 1 74 1.000000
0  -3.292330 -16.625023 -5.239006  -1.000000 0.000000 0.000000  0.392949 0.509914 1 74 1.000000
0  -3.292330 -16.635914 -4.241643  -1.000000 0.000000 0.000000  0.392949 0.509914 1 74 1.000000
gun_tex
0  -3.292330 -16.165352 -4.241643  -0.928595 0.371094 -0.000425  0.393042 0.509914 1 74 1.000000
0  -3.382249 -16.391575 -5.301558  -0.928595 0.371094 -0.000424  0.392996 0.509927 1 74 1.000000
0  -3.382249 -16.394230 -4.241643  -0.928595 0.371094 -0.000423  0.392996 0.509927 1 74 1.000000
gun_tex
0  -3.904540 -16.165352 -4.241643  0.928605 0.371070 -0.000420  0.393042 0.510126 1 74 1.000000
0  -3.814621 -16.391575 -5.301558  0.928605 0.371070 -0.000420  0.392996 0.510115 1 74 1.000000
0  -3.904540 -16.170494 -5.360797  0.928605 0.371070 -0.000420  0.393042 0.510126 1 74 1.000000
gun_tex
0  -3.176651 -16.527925 -6.940312  0.911729 -0.389916 0.129293  0.392709 0.509806 1 74 1.000000
0  -3.284659 -17.353910 -8.668995  0.911754 -0.389833 0.129365  0.392709 0.509849 1 74 1.000000
0  -3.176651 -17.135120 -8.766340  0.911730 -0.389904 0.129318  0.392709 0.509806 1 74 1.000000
gun_tex
0  -3.912211 -16.760296 -6.882439  -0.901366 0.410922 -0.136683  0.392709 0.510193 1 74 1.000000
0  -4.020219 -17.560917 -8.576894  -0.901244 0.411140 -0.136829  0.392709 0.510152 1 74 1.000000
0  -4.020219 -16.980152 -6.827683  -0.901241 0.411167 -0.136773  0.392709 0.510152 1 74 1.000000
gun_tex
0  -3.176651 -16.173260 -5.181485  0.911412 -0.403375 0.081341  0.392709 0.509806 1 74 1.000000
0  -3.284659 -16.760296 -6.882439  0.911412 -0.403375 0.081341  0.392709 0.509849 1 74 1.000000
0  -3.176651 -16.527925 -6.940312  0.911412 -0.403375 0.081341  0.392709 0.509806 1 74 1.000000
gun_tex
0  -3.912211 -16.409790 -5.144084  -0.902530 0.422133 -0.085108  0.392709 0.510193 1 74 1.000000
0  -4.020219 -16.980152 -6.827683  -0.902530 0.422133 -0.085108  0.392709 0.510152 1 74 1.000000
0  -4.020219 -16.633579 -5.108698  -0.902530 0.422133 -0.085108  0.392709 0.510152 1 74 1.000000
gun_tex
0  -4.020219 -16.633579 -5.108698  -0.902488 0.430710 -0.002142  0.392709 0.510152 1 74 1.000000
0  -3.912211 -16.402950 -4.241643  -0.902468 0.430752 -0.002156  0.392940 0.510193 1 74 1.000000
0  -3.912211 -16.409790 -5.144084  -0.902448 0.430793 -0.002170  0.392709 0.510193 1 74 1.000000
gun_tex
0  -3.176651 -16.161228 -4.241643  0.911455 -0.411377 0.004219  0.392940 0.509806 1 74 1.000000
0  -3.284660 -16.409790 -5.144084  0.911456 -0.411377 0.004219  0.392709 0.509849 1 74 1.000000
0  -3.176651 -16.173260 -5.181485  0.911455 -0.411377 0.004219  0.392709 0.509806 1 74 1.000000
gun_tex
0  -3.176651 -15.416576 -4.241643  1.000000 0.000000 0.000000  0.392940 0.509675 1 74 1.000000
0  -3.176651 -16.173260 -5.181485  1.000000 0.000000 0.000000  0.392709 0.509806 1 74 1.000000
0  -3.176651 -15.444597 -5.296703  1.000000 0.000000 0.000000  0.392709 0.509675 1 74 1.000000
gun_tex
0  -3.176651 -15.444597 -5.296703  1.000000 0.000000 0.000000  0.392709 0.509675 1 74 1.000000
0  -3.176651 -16.527925 -6.940312  1.000000 0.000000 0.000000  0.392709 0.509806 1 74 1.000000
0  -3.176651 -15.812078 -7.118599  1.000000 0.000000 0.000000  0.392709 0.509675 1 74 1.000000
gun_tex
0  -3.176651 -15.812078 -7.118599  1.000000 0.000000 0.000000  0.392709 0.509675 1 74 1.000000
0  -3.176651 -17.135120 -8.766340  1.000000 0.000000 0.000000  0.392709 0.509806 1 74 1.000000
0  -3.176651 -16.461107 -9.066223  1.000000 0.000000 0.000000  0.392709 0.509675 1 74 1.000000
gun_tex
0  -3.433072 -15.555705 -4.241643  0.000000 -0.999794 0.020293  0.393163 0.509963 1 74 1.000000
0  -3.292330 -15.581622 -5.518585  0.000000 -0.999794 0.020293  0.393163 0.509914 1 74 1.000000
0  -3.292330 -15.555705 -4.241643  0.000000 -0.999794 0.020293  0.393163 0.509914 1 74 1.000000
gun_tex
0  -3.598435 -16.635914 -4.241643  0.000000 0.999940 0.010919  0.392949 0.510021 1 74 1.000000
0  -3.763798 -16.625023 -5.239006  0.000000 0.999940 0.010919  0.392949 0.510079 1 74 1.000000
0  -3.763798 -16.635914 -4.241643  0.000000 0.999940 0.010919  0.392949 0.510079 1 74 1.000000
gun_tex
0  -3.904541 -15.555705 -4.241643  0.000000 -0.999794 0.020290  0.393163 0.510128 1 74 1.000000
0  -3.763798 -15.581622 -5.518585  0.000000 -0.999794 0.020290  0.393163 0.510079 1 74 1.000000
0  -3.763798 -15.555705 -4.241643  0.000000 -0.999794 0.020290  0.393163 0.510079 1 74 1.000000
gun_tex
0  -3.433072 -16.635914 -4.241643  0.000000 0.999940 0.010917  0.392949 0.509963 1 74 1.000000
0  -3.292330 -16.625023 -5.239006  0.000000 0.999940 0.010917  0.392949 0.509914 1 74 1.000000
0  -3.433072 -16.625023 -5.239006  0.000000 0.999940 0.010917  0.392949 0.509963 1 74 1.000000
gun_tex
0  -4.020219 -16.527925 -6.940312  -0.910169 -0.393024 0.130859  0.392709 0.510236 1 74 1.000000
0  -3.912211 -17.353910 -8.668995  -0.910175 -0.392979 0.130954  0.392709 0.510193 1 74 1.000000
0  -3.912211 -16.760296 -6.882439  -0.910193 -0.392954 0.130906  0.392709 0.510193 1 74 1.000000
gun_tex
0  -4.020219 -16.173260 -5.181485  -0.911433 -0.403332 0.081324  0.392709 0.510236 1 74 1.000000
0  -3.912211 -16.760296 -6.882439  -0.911433 -0.403332 0.081324  0.392709 0.510193 1 74 1.000000
0  -3.912211 -16.409790 -5.144084  -0.911433 -0.403332 0.081324  0.392709 0.510193 1 74 1.000000
gun_tex
0  -3.912211 -16.409790 -5.144084  -0.911418 -0.411459 0.004248  0.392709 0.510193 1 74 1.000000
0  -4.020218 -16.161228 -4.241643  -0.911437 -0.411418 0.004234  0.392940 0.510236 1 74 1.000000
0  -4.020219 -16.173260 -5.181485  -0.911380 -0.411543 0.004276  0.392709 0.510236 1 74 1.000000
gun_tex
0  -4.020218 -16.721542 -5.094790  -1.000000 -0.000012 0.000000  0.392709 0.510136 1 74 1.000000
0  -4.020219 -16.631649 -4.241643  -1.000000 -0.000012 0.000000  0.392940 0.510152 1 74 1.000000
0  -4.020219 -16.633579 -5.108698  -1.000000 -0.000012 0.000000  0.392709 0.510152 1 74 1.000000
gun_tex
0  -4.020219 -16.633579 -5.108698  -1.000000 -0.000006 0.000003  0.392709 0.510152 1 74 1.000000
0  -4.020219 -17.066566 -6.806160  -1.000000 -0.000006 0.000003  0.392709 0.510136 1 74 1.000000
0  -4.020218 -16.721542 -5.094790  -1.000000 -0.000006 0.000003  0.392709 0.510136 1 74 1.000000
gun_tex
0  -4.020219 -16.980152 -6.827683  -1.000000 0.000000 -0.000001  0.392709 0.510152 1 74 1.000000
0  -4.020218 -17.642282 -8.540691  -1.000000 0.000000 -0.000001  0.392709 0.510136 1 74 1.000000
0  -4.020219 -17.066566 -6.806160  -1.000000 0.000000 -0.000001  0.392709 0.510136 1 74 1.000000
gun_tex
0  -3.904541 -16.610779 -4.241643  1.000000 0.000018 0.000000  0.392953 0.510128 1 74 1.000000
0  -3.904540 -16.625023 -5.239006  1.000000 0.000018 0.000000  0.392949 0.510128 1 74 1.000000
0  -3.904541 -16.600744 -5.245512  1.000000 0.000018 0.000000  0.392953 0.510128 1 74 1.000000
gun_tex
0  -3.598435 -15.555705 -4.241643  0.000000 -0.999794 0.020292  0.393163 0.510021 1 74 1.000000
0  -3.433072 -15.581622 -5.518585  0.000000 -0.999794 0.020292  0.393163 0.509963 1 74 1.000000
0  -3.433072 -15.555705 -4.241643  0.000000 -0.999794 0.020292  0.393163 0.509963 1 74 1.000000
gun_tex
0  -3.904541 -15.555705 -4.241643  1.000000 0.000002 -0.000000  0.393163 0.510128 1 74 1.000000
0  -3.904540 -16.170494 -5.360797  1.000000 0.000002 -0.000000  0.393042 0.510126 1 74 1.000000
0  -3.904541 -15.581622 -5.518585  1.000000 0.000002 -0.000000  0.393163 0.510128 1 74 1.000000
gun_tex
0  -3.433072 -16.635914 -4.241643  0.000000 0.999940 0.010919  0.392949 0.509963 1 74 1.000000
0  -3.598435 -16.625023 -5.239006  0.000000 0.999940 0.010919  0.392949 0.510021 1 74 1.000000
0  -3.598435 -16.635914 -4.241643  0.000000 0.999940 0.010919  0.392949 0.510021 1 74 1.000000
gun_tex
0  -3.284659 -16.760296 -6.882439  0.902897 0.408034 -0.135222  0.392709 0.509849 1 74 1.000000
0  -3.176651 -17.560917 -8.576894  0.902879 0.408057 -0.135275  0.392709 0.509890 1 74 1.000000
0  -3.284659 -17.353910 -8.668995  0.902901 0.408001 -0.135295  0.392709 0.509849 1 74 1.000000
gun_tex
0  -3.284660 -16.409790 -5.144084  0.902510 0.422173 -0.085123  0.392709 0.509849 1 74 1.000000
0  -3.176651 -16.980152 -6.827683  0.902510 0.422173 -0.085123  0.392709 0.509890 1 74 1.000000
0  -3.284659 -16.760296 -6.882439  0.902510 0.422173 -0.085123  0.392709 0.509849 1 74 1.000000
gun_tex
0  -3.284659 -16.402950 -4.241643  0.902488 0.430710 -0.002142  0.392940 0.509849 1 74 1.000000
0  -3.176651 -16.633579 -5.108698  0.902488 0.430710 -0.002142  0.392709 0.509890 1 74 1.000000
0  -3.284660 -16.409790 -5.144084  0.902488 0.430710 -0.002141  0.392709 0.509849 1 74 1.000000
gun_tex
0  -3.292330 -15.555705 -4.241643  0.000000 0.000000 1.000000  0.393163 0.509914 1 74 1.000000
0  -3.387543 -15.416576 -4.241643  0.000000 0.000000 1.000000  0.393171 0.509963 1 74 1.000000
0  -3.433072 -15.555705 -4.241643  0.000000 0.000000 1.000000  0.393163 0.509963 1 74 1.000000
gun_tex
0  -3.292330 -16.635914 -4.241643  0.000000 0.000000 1.000000  0.392949 0.509914 1 74 1.000000
0  -3.176651 -16.631649 -4.241643  0.000000 0.000000 1.000000  0.392956 0.509905 1 74 1.000000
0  -3.292330 -16.610779 -4.241643  0.000000 0.000000 1.000000  0.392953 0.509916 1 74 1.000000
gun_tex
0  -3.904540 -16.635914 -4.241643  0.000000 0.000000 1.000000  0.392949 0.510128 1 74 1.000000
0  -3.809327 -16.721542 -4.241643  0.000000 0.000000 1.000000  0.392940 0.510079 1 74 1.000000
0  -3.763798 -16.635914 -4.241643  0.000000 0.000000 1.000000  0.392949 0.510079 1 74 1.000000
gun_tex
0  -3.763798 -15.555705 -4.241643  0.000000 0.000000 1.000000  0.393163 0.510079 1 74 1.000000
0  -3.598435 -15.416576 -4.241643  0.000000 0.000000 1.000000  0.393171 0.510021 1 74 1.000000
0  -3.809327 -15.416576 -4.241643  0.000000 0.000000 1.000000  0.393171 0.510079 1 74 1.000000
gun_tex
0  -3.433072 -16.635914 -4.241643  0.000000 0.000000 1.000000  0.392949 0.509963 1 74 1.000000
0  -3.598435 -16.721542 -4.241643  0.000000 0.000000 1.000000  0.392940 0.510021 1 74 1.000000
0  -3.387543 -16.721542 -4.241643  0.000000 0.000000 1.000000  0.392940 0.509963 1 74 1.000000
gun_tex
0  -3.433072 -15.555705 -4.241643  0.000000 0.000000 1.000000  0.393163 0.509963 1 74 1.000000
0  -3.598435 -15.416576 -4.241643  0.000000 0.000000 1.000000  0.393171 0.510021 1 74 1.000000
0  -3.598435 -15.555705 -4.241643  0.000000 0.000000 1.000000  0.393163 0.510021 1 74 1.000000
gun_tex
0  -3.292330 -16.635914 -4.241643  0.000000 0.000000 1.000000  0.392949 0.509914 1 74 1.000000
0  -3.387543 -16.721542 -4.241643  0.000000 0.000000 1.000000  0.392940 0.509963 1 74 1.000000
0  -3.176651 -16.721542 -4.241643  0.000000 0.000000 1.000000  0.392940 0.509905 1 74 1.000000
gun_tex
0  -3.763798 -16.635914 -4.241643  0.000000 0.000000 1.000000  0.392949 0.510079 1 74 1.000000
0  -3.598435 -16.721542 -4.241643  0.000000 0.000000 1.000000  0.392940 0.510021 1 74 1.000000
0  -3.598435 -16.635914 -4.241643  0.000000 0.000000 1.000000  0.392949 0.510021 1 74 1.000000
gun_tex
0  -3.292330 -16.165352 -4.241643  0.000000 0.000000 1.000000  0.393042 0.509914 1 74 1.000000
0  -3.284659 -16.402950 -4.241643  0.000000 0.000000 1.000000  0.392997 0.509905 1 74 1.000000
0  -3.176651 -16.161228 -4.241643  0.000000 0.000000 1.000000  0.393039 0.509905 1 74 1.000000
gun_tex
0  -3.904541 -16.610779 -4.241643  0.000000 0.000000 1.000000  0.392953 0.510128 1 74 1.000000
0  -3.912211 -16.402950 -4.241643  0.000000 0.000000 1.000000  0.392997 0.510136 1 74 1.000000
0  -4.020219 -16.631649 -4.241643  0.000000 0.000000 1.000000  0.392956 0.510136 1 74 1.000000
gun_tex
0  -3.904541 -15.555705 -4.241643  0.420018 0.836172 -0.352704  0.393163 0.510128 1 74 1.000000
0  -3.948214 -15.464979 -4.078541  0.420003 0.836200 -0.352656  0.393171 0.510136 1 74 1.000000
0  -3.832535 -15.441975 -4.078541  0.420012 0.836181 -0.352692  0.393163 0.510128 1 74 1.000000
gun_tex
0  -3.292330 -16.610779 -4.241643  0.000002 0.000000 1.000000  0.392953 0.509916 1 74 1.000000
0  -3.284659 -16.402950 -4.241643  0.000002 0.000000 1.000000  0.392997 0.509905 1 74 1.000000
0  -3.382249 -16.394230 -4.241643  0.000002 0.000000 1.000000  0.392996 0.509927 1 74 1.000000
gun_tex
0  -4.020218 -16.161228 -4.241643  -0.914816 -0.000002 0.403870  0.392940 0.510236 1 74 1.000000
0  -3.948214 -15.464979 -4.078541  -0.914816 -0.000002 0.403870  0.392940 0.510367 1 74 1.000000
0  -4.020219 -15.416576 -4.241643  -0.914816 -0.000002 0.403870  0.392940 0.510367 1 74 1.000000
gun_tex
0  -3.904540 -16.635914 -4.241643  0.000000 0.000000 1.000000  0.392949 0.510128 1 74 1.000000
0  -4.020219 -16.631649 -4.241643  0.000000 0.000000 1.000000  0.392956 0.510136 1 74 1.000000
0  -4.020218 -16.721542 -4.241643  0.000000 0.000000 1.000000  0.392940 0.510136 1 74 1.000000
gun_tex
0  -3.904541 -15.555705 -4.241643  0.000000 0.000000 1.000000  0.393163 0.510128 1 74 1.000000
0  -3.809327 -15.416576 -4.241643  0.000000 0.000000 1.000000  0.393171 0.510079 1 74 1.000000
0  -4.020219 -15.416576 -4.241643  0.000000 0.000000 1.000000  0.393171 0.510136 1 74 1.000000
gun_tex
0  -3.904540 -16.165352 -4.241643  0.000002 0.000000 1.000000  0.393042 0.510126 1 74 1.000000
0  -3.912211 -16.402950 -4.241643  0.000002 0.000000 1.000000  0.392997 0.510136 1 74 1.000000
0  -3.814621 -16.394230 -4.241643  0.000002 0.000000 1.000000  0.392996 0.510115 1 74 1.000000
gun_tex
0  -3.364336 -15.441975 -4.078541  0.191438 0.962654 0.191437  0.393163 0.509914 1 74 1.000000
0  -3.450507 -15.464979 -3.876691  0.191438 0.962654 0.191437  0.393171 0.509905 1 74 1.000000
0  -3.248657 -15.464979 -4.078541  0.191438 0.962654 0.191437  0.393171 0.509905 1 74 1.000000
gun_tex
0  -3.948214 -15.464979 -4.078541  -0.707109 -0.000001 0.707104  0.392940 0.510367 1 74 1.000000
0  -3.746363 -16.017218 -3.876691  -0.707109 -0.000001 0.707104  0.392940 0.510236 1 74 1.000000
0  -3.746363 -15.464979 -3.876690  -0.707109 -0.000001 0.707104  0.392940 0.510367 1 74 1.000000
gun_tex
0  -3.176651 -16.161228 -4.241643  0.914817 0.000000 0.403870  0.392940 0.509806 1 74 1.000000
0  -3.248657 -15.464979 -4.078541  0.914817 0.000000 0.403870  0.392940 0.509675 1 74 1.000000
0  -3.248657 -16.161228 -4.078541  0.914817 0.000000 0.403870  0.392940 0.509806 1 74 1.000000
gun_tex
0  -3.904541 -15.555705 -4.241643  0.914817 0.000001 -0.403869  0.393163 0.510128 1 74 1.000000
0  -3.832534 -16.165352 -4.078541  0.914817 0.000001 -0.403869  0.393042 0.510126 1 74 1.000000
0  -3.904540 -16.165352 -4.241643  0.914817 0.000001 -0.403869  0.393042 0.510126 1 74 1.000000
gun_tex
0  -3.292330 -15.555705 -4.241643  -0.914817 -0.000001 -0.403869  0.393163 0.509914 1 74 1.000000
0  -3.364335 -16.165352 -4.078541  -0.914817 -0.000001 -0.403869  0.393042 0.509914 1 74 1.000000
0  -3.364336 -15.441975 -4.078541  -0.914817 -0.000001 -0.403869  0.393163 0.509914 1 74 1.000000
gun_tex
0  -3.904540 -16.165352 -4.241643  -0.035620 -0.999242 0.015733  0.393042 0.510126 1 74 1.000000
0  -3.948213 -16.161228 -4.078541  -0.035620 -0.999242 0.015733  0.393039 0.510136 1 74 1.000000
0  -4.020218 -16.161228 -4.241643  -0.035620 -0.999242 0.015733  0.393039 0.510136 1 74 1.000000
gun_tex
0  -3.292330 -15.555705 -4.241643  -0.419730 0.836289 -0.352771  0.393163 0.509914 1 74 1.000000
0  -3.248657 -15.464979 -4.078541  -0.419736 0.836282 -0.352782  0.393171 0.509905 1 74 1.000000
0  -3.176651 -15.416576 -4.241643  -0.419742 0.836264 -0.352816  0.393171 0.509905 1 74 1.000000
gun_tex
0  -3.292330 -16.165352 -4.241643  0.035621 -0.999242 0.015733  0.393042 0.509914 1 74 1.000000
0  -3.248657 -16.161228 -4.078541  0.035621 -0.999242 0.015733  0.393039 0.509905 1 74 1.000000
0  -3.364335 -16.165352 -4.078541  0.035621 -0.999242 0.015733  0.393042 0.509914 1 74 1.000000
gun_tex
0  -3.746363 -15.441975 -3.992369  1.000000 0.000001 -0.000000  0.393163 0.510128 1 74 1.000000
0  -3.746363 -16.017218 -3.876691  1.000000 0.000001 -0.000000  0.393039 0.510136 1 74 1.000000
0  -3.746363 -16.165352 -3.992370  1.000000 0.000001 -0.000000  0.393042 0.510126 1 74 1.000000
gun_tex
0  -3.832534 -16.165352 -4.078541  -0.288960 -0.708789 0.643522  0.393042 0.510126 1 74 1.000000
0  -3.746363 -16.017218 -3.876691  -0.288963 -0.708789 0.643520  0.393039 0.510136 1 74 1.000000
0  -3.948213 -16.161228 -4.078541  -0.288951 -0.708772 0.643544  0.393039 0.510136 1 74 1.000000
gun_tex
0  -3.832535 -15.441975 -4.078541  -0.191438 0.962657 0.191425  0.393163 0.510128 1 74 1.000000
0  -3.746363 -15.464979 -3.876690  -0.191438 0.962657 0.191425  0.393171 0.510136 1 74 1.000000
0  -3.746363 -15.441975 -3.992369  -0.191438 0.962657 0.191425  0.393163 0.510128 1 74 1.000000
gun_tex
0  -3.832535 -15.441975 -4.078541  0.707105 0.000001 -0.707108  0.393163 0.510128 1 74 1.000000
0  -3.746363 -16.165352 -3.992370  0.707105 0.000001 -0.707108  0.393042 0.510126 1 74 1.000000
0  -3.832534 -16.165352 -4.078541  0.707105 0.000001 -0.707108  0.393042 0.510126 1 74 1.000000
gun_tex
0  -3.450507 -15.441975 -3.992369  -1.000000 0.000000 0.000000  0.393163 0.509914 1 74 1.000000
0  -3.450507 -16.017218 -3.876691  -1.000000 0.000000 0.000000  0.393039 0.509905 1 74 1.000000
0  -3.450507 -15.464979 -3.876691  -1.000000 0.000000 0.000000  0.393171 0.509905 1 74 1.000000
gun_tex
0  -3.364335 -16.165352 -4.078541  -0.707110 -0.000001 -0.707104  0.393042 0.509914 1 74 1.000000
0  -3.450507 -15.441975 -3.992369  -0.707110 -0.000001 -0.707104  0.393163 0.509914 1 74 1.000000
0  -3.364336 -15.441975 -4.078541  -0.707110 -0.000001 -0.707104  0.393163 0.509914 1 74 1.000000
gun_tex
0  -3.248657 -15.464979 -4.078541  0.707109 0.000000 0.707105  0.392940 0.509675 1 74 1.000000
0  -3.450507 -16.017218 -3.876691  0.707109 0.000000 0.707105  0.392940 0.509806 1 74 1.000000
0  -3.248657 -16.161228 -4.078541  0.707109 0.000000 0.707105  0.392940 0.509806 1 74 1.000000
gun_tex
0  -3.364335 -16.165352 -4.078541  0.289475 -0.708560 0.643543  0.393042 0.509914 1 74 1.000000
0  -3.450507 -16.017218 -3.876691  0.289462 -0.708535 0.643576  0.393039 0.509905 1 74 1.000000
0  -3.450507 -16.165352 -3.992369  0.289473 -0.708554 0.643550  0.393042 0.509914 1 74 1.000000
gun_tex
0  -3.433072 -16.625023 -5.239006  0.000000 0.977421 -0.211301  0.392949 0.509963 1 74 1.000000
0  -3.598435 -16.925745 -6.630046  0.000000 0.977421 -0.211301  0.392949 0.510021 1 74 1.000000
0  -3.598435 -16.625023 -5.239006  0.000000 0.977421 -0.211301  0.392949 0.510021 1 74 1.000000
gun_tex
0  -3.382249 -16.391575 -5.301558  -0.923383 -0.375212 0.081116  0.392996 0.509927 1 74 1.000000
0  -3.292330 -16.901468 -6.636551  -0.923383 -0.375212 0.081116  0.392953 0.509916 1 74 1.000000
0  -3.292330 -16.600746 -5.245512  -0.923383 -0.375212 0.081116  0.392953 0.509916 1 74 1.000000
gun_tex
0  -3.763798 -15.581622 -5.518585  0.000000 -0.977420 0.211303  0.393163 0.510079 1 74 1.000000
0  -3.598435 -15.882345 -6.909625  0.000000 -0.977420 0.211303  0.393163 0.510021 1 74 1.000000
0  -3.598435 -15.581622 -5.518585  0.000000 -0.977420 0.211303  0.393163 0.510021 1 74 1.000000
gun_tex
0  -3.292330 -15.581622 -5.518585  -1.000000 0.000000 0.000000  0.393163 0.509914 1 74 1.000000
0  -3.292330 -16.471218 -6.751837  -1.000000 0.000000 0.000000  0.393042 0.509914 1 74 1.000000
0  -3.292330 -16.170494 -5.360797  -1.000000 0.000000 0.000000  0.393042 0.509914 1 74 1.000000
gun_tex
0  -3.763798 -16.625023 -5.239006  0.000000 0.977421 -0.211302  0.392949 0.510079 1 74 1.000000
0  -3.904540 -16.925745 -6.630046  0.000000 0.977421 -0.211302  0.392949 0.510128 1 74 1.000000
0  -3.904540 -16.625023 -5.239006  0.000000 0.977421 -0.211302  0.392949 0.510128 1 74 1.000000
gun_tex
0  -3.814621 -16.391575 -5.301558  0.923384 -0.375210 0.081115  0.392996 0.510115 1 74 1.000000
0  -3.904541 -16.901468 -6.636551  0.923384 -0.375210 0.081115  0.392953 0.510128 1 74 1.000000
0  -3.814621 -16.692297 -6.692598  0.923384 -0.375210 0.081115  0.392996 0.510115 1 74 1.000000
gun_tex
0  -3.292330 -16.600746 -5.245512  -1.000000 0.000000 0.000000  0.392953 0.509916 1 74 1.000000
0  -3.292330 -16.925745 -6.630046  -1.000000 0.000000 0.000000  0.392949 0.509914 1 74 1.000000
0  -3.292330 -16.625023 -5.239006  -1.000000 0.000000 0.000000  0.392949 0.509914 1 74 1.000000
gun_tex
0  -3.292330 -16.170494 -5.360797  -0.930599 0.357776 -0.077346  0.393042 0.509914 1 74 1.000000
0  -3.382249 -16.692297 -6.692598  -0.930599 0.357776 -0.077346  0.392996 0.509927 1 74 1.000000
0  -3.382249 -16.391575 -5.301558  -0.930599 0.357776 -0.077346  0.392996 0.509927 1 74 1.000000
gun_tex
0  -3.904540 -16.170494 -5.360797  0.930600 0.357773 -0.077345  0.393042 0.510126 1 74 1.000000
0  -3.814621 -16.692297 -6.692598  0.930600 0.357773 -0.077345  0.392996 0.510115 1 74 1.000000
0  -3.904540 -16.471218 -6.751837  0.930600 0.357773 -0.077345  0.393042 0.510126 1 74 1.000000
gun_tex
0  -3.433072 -15.581622 -5.518585  0.000000 -0.977420 0.211304  0.393163 0.509963 1 74 1.000000
0  -3.292330 -15.882345 -6.909625  0.000000 -0.977420 0.211304  0.393163 0.509914 1 74 1.000000
0  -3.292330 -15.581622 -5.518585  0.000000 -0.977420 0.211304  0.393163 0.509914 1 74 1.000000
gun_tex
0  -3.598435 -16.625023 -5.239006  0.000000 0.977421 -0.211301  0.392949 0.510021 1 74 1.000000
0  -3.763798 -16.925745 -6.630046  0.000000 0.977421 -0.211301  0.392949 0.510079 1 74 1.000000
0  -3.763798 -16.625023 -5.239006  0.000000 0.977421 -0.211301  0.392949 0.510079 1 74 1.000000
gun_tex
0  -3.904541 -15.581622 -5.518585  0.000000 -0.977421 0.211303  0.393163 0.510128 1 74 1.000000
0  -3.763798 -15.882345 -6.909625  0.000000 -0.977421 0.211303  0.393163 0.510079 1 74 1.000000
0  -3.763798 -15.581622 -5.518585  0.000000 -0.977421 0.211303  0.393163 0.510079 1 74 1.000000
gun_tex
0  -3.292330 -16.625023 -5.239006  0.000000 0.977421 -0.211302  0.392949 0.509914 1 74 1.000000
0  -3.433071 -16.925745 -6.630046  0.000000 0.977421 -0.211302  0.392949 0.509963 1 74 1.000000
0  -3.433072 -16.625023 -5.239006  0.000000 0.977421 -0.211302  0.392949 0.509963 1 74 1.000000
gun_tex
0  -3.904541 -16.600744 -5.245512  1.000000 0.000007 -0.000002  0.392953 0.510128 1 74 1.000000
0  -3.904540 -16.925745 -6.630046  1.000000 0.000007 -0.000002  0.392949 0.510128 1 74 1.000000
0  -3.904541 -16.901468 -6.636551  1.000000 0.000007 -0.000002  0.392953 0.510128 1 74 1.000000
gun_tex
0  -3.598435 -15.581622 -5.518585  0.000000 -0.977420 0.211304  0.393163 0.510021 1 74 1.000000
0  -3.433072 -15.882345 -6.909625  0.000000 -0.977420 0.211304  0.393163 0.509963 1 74 1.000000
0  -3.433072 -15.581622 -5.518585  0.000000 -0.977420 0.211304  0.393163 0.509963 1 74 1.000000
gun_tex
0  -3.904541 -15.581622 -5.518585  1.000000 0.000002 -0.000000  0.393163 0.510128 1 74 1.000000
0  -3.904540 -16.471218 -6.751837  1.000000 0.000002 -0.000000  0.393042 0.510126 1 74 1.000000
0  -3.904541 -15.882345 -6.909625  1.000000 0.000002 -0.000000  0.393163 0.510128 1 74 1.000000
gun_tex
0  -3.763798 -15.882345 -6.909625  -0.000001 0.258818 0.965926  0.393163 0.510079 1 74 1.000000
0  -3.904540 -16.471218 -6.751837  -0.000001 0.258818 0.965926  0.393042 0.510126 1 74 1.000000
0  -3.763798 -16.483440 -6.748561  -0.000001 0.258818 0.965926  0.393039 0.510079 1 74 1.000000
gun_tex
0  -3.433072 -15.882345 -6.909625  0.000000 0.258817 0.965926  0.393163 0.509963 1 74 1.000000
0  -3.598435 -16.483440 -6.748561  0.000000 0.258817 0.965926  0.393039 0.510021 1 74 1.000000
0  -3.433072 -16.483440 -6.748561  0.000000 0.258817 0.965926  0.393039 0.509963 1 74 1.000000
gun_tex
0  -3.292330 -16.471218 -6.751837  0.000000 0.258819 0.965926  0.393042 0.509914 1 74 1.000000
0  -3.433072 -15.882345 -6.909625  0.000000 0.258819 0.965926  0.393163 0.509963 1 74 1.000000
0  -3.433072 -16.483440 -6.748561  0.000000 0.258819 0.965926  0.393039 0.509963 1 74 1.000000
gun_tex
0  -3.598435 -15.882345 -6.909625  0.000000 0.258819 0.965926  0.393163 0.510021 1 74 1.000000
0  -3.763798 -16.483440 -6.748561  0.000000 0.258819 0.965926  0.393039 0.510079 1 74 1.000000
0  -3.598435 -16.483440 -6.748561  0.000000 0.258819 0.965926  0.393039 0.510021 1 74 1.000000
gun_tex
0  -3.598435 -16.691666 -6.692768  0.000000 0.258817 0.965926  0.392997 0.510021 1 74 1.000000
0  -3.763798 -16.888674 -6.639979  0.000000 0.258817 0.965926  0.392956 0.510079 1 74 1.000000
0  -3.598435 -16.888674 -6.639979  0.000000 0.258817 0.965926  0.392956 0.510021 1 74 1.000000
gun_tex
0  -3.382249 -16.692297 -6.692598  0.000002 0.258818 0.965926  0.392996 0.509927 1 74 1.000000
0  -3.433071 -16.888674 -6.639979  0.000002 0.258818 0.965926  0.392956 0.509963 1 74 1.000000
0  -3.292330 -16.901468 -6.636551  0.000002 0.258818 0.965926  0.392953 0.509916 1 74 1.000000
gun_tex
0  -3.433072 -16.691666 -6.692768  0.000000 0.258821 0.965925  0.392997 0.509963 1 74 1.000000
0  -3.598435 -16.888674 -6.639979  0.000000 0.258821 0.965925  0.392956 0.510021 1 74 1.000000
0  -3.433071 -16.888674 -6.639979  0.000000 0.258821 0.965925  0.392956 0.509963 1 74 1.000000
gun_tex
0  -3.763798 -16.888674 -6.639979  0.000000 0.258816 0.965927  0.392956 0.510079 1 74 1.000000
0  -3.814621 -16.692297 -6.692598  0.000000 0.258816 0.965927  0.392996 0.510115 1 74 1.000000
0  -3.904541 -16.901468 -6.636551  0.000000 0.258816 0.965927  0.392953 0.510128 1 74 1.000000
gun_tex
0  -3.598435 -16.483440 -6.748561  0.000000 0.258820 0.965926  0.393039 0.510021 1 74 1.000000
0  -3.763798 -16.691666 -6.692768  0.000000 0.258820 0.965926  0.392997 0.510079 1 74 1.000000
0  -3.598435 -16.691666 -6.692768  0.000000 0.258820 0.965926  0.392997 0.510021 1 74 1.000000
gun_tex
0  -3.382249 -16.692297 -6.692598  0.000000 0.258810 0.965928  0.392996 0.509927 1 74 1.000000
0  -3.433072 -16.483440 -6.748561  0.000000 0.258810 0.965928  0.393039 0.509963 1 74 1.000000
0  -3.433072 -16.691666 -6.692768  0.000000 0.258810 0.965928  0.392997 0.509963 1 74 1.000000
gun_tex
0  -3.433072 -16.483440 -6.748561  0.000000 0.258817 0.965926  0.393039 0.509963 1 74 1.000000
0  -3.598435 -16.691666 -6.692768  0.000000 0.258817 0.965926  0.392997 0.510021 1 74 1.000000
0  -3.433072 -16.691666 -6.692768  0.000000 0.258817 0.965926  0.392997 0.509963 1 74 1.000000
gun_tex
0  -3.763798 -16.483440 -6.748561  0.000010 0.258807 0.965929  0.393039 0.510079 1 74 1.000000
0  -3.814621 -16.692297 -6.692598  0.000010 0.258807 0.965929  0.392996 0.510115 1 74 1.000000
0  -3.763798 -16.691666 -6.692768  0.000010 0.258807 0.965929  0.392997 0.510079 1 74 1.000000
gun_tex
0  -3.763798 -16.925745 -6.630046  0.000000 0.258841 0.965920  0.392949 0.510079 1 74 1.000000
0  -3.904541 -16.901468 -6.636551  0.000000 0.258841 0.965920  0.392953 0.510128 1 74 1.000000
0  -3.904540 -16.925745 -6.630046  0.000000 0.258841 0.965920  0.392949 0.510128 1 74 1.000000
gun_tex
0  -3.433071 -16.888674 -6.639979  0.000000 0.258825 0.965924  0.392956 0.509963 1 74 1.000000
0  -3.598435 -16.925745 -6.630046  0.000000 0.258825 0.965924  0.392949 0.510021 1 74 1.000000
0  -3.433071 -16.925745 -6.630046  0.000000 0.258825 0.965924  0.392949 0.509963 1 74 1.000000
gun_tex
0  -3.292330 -16.901468 -6.636551  0.000000 0.258836 0.965921  0.392953 0.509916 1 74 1.000000
0  -3.433071 -16.925745 -6.630046  0.000000 0.258836 0.965921  0.392949 0.509963 1 74 1.000000
0  -3.292330 -16.925745 -6.630046  0.000000 0.258836 0.965921  0.392949 0.509914 1 74 1.000000
gun_tex
0  -3.598435 -16.888674 -6.639979  0.000000 0.258825 0.965924  0.392956 0.510021 1 74 1.000000
0  -3.763798 -16.925745 -6.630046  0.000000 0.258825 0.965924  0.392949 0.510079 1 74 1.000000
0  -3.598435 -16.925745 -6.630046  0.000000 0.258825 0.965924  0.392949 0.510021 1 74 1.000000
gun_tex
0  -3.387543 -15.444597 -5.296703  0.000000 0.999648 -0.026547  0.392709 0.509617 1 74 1.000000
0  -3.387543 -15.416576 -4.241643  0.000000 0.999648 -0.026547  0.392940 0.509617 1 74 1.000000
0  -3.176651 -15.416576 -4.241643  0.000000 0.999648 -0.026547  0.392940 0.509675 1 74 1.000000
gun_tex
0  -3.176651 -16.631649 -4.241643  1.000000 0.000000 0.000000  0.392940 0.509890 1 74 1.000000
0  -3.176651 -16.721542 -4.241643  1.000000 0.000000 0.000000  0.392940 0.509905 1 74 1.000000
0  -3.176651 -16.721542 -5.094790  1.000000 0.000000 0.000000  0.392709 0.509905 1 74 1.000000
gun_tex
0  -4.020219 -16.173260 -5.181485  -1.000000 -0.000001 0.000001  0.392709 0.510236 1 74 1.000000
0  -4.020218 -16.161228 -4.241643  -1.000000 -0.000001 0.000001  0.392940 0.510236 1 74 1.000000
0  -4.020219 -15.416576 -4.241643  -1.000000 -0.000001 0.000001  0.392940 0.510367 1 74 1.000000
gun_tex
0  -4.020219 -15.444597 -5.296703  -1.000000 -0.000000 0.000000  0.392709 0.510367 1 74 1.000000
0  -4.020219 -15.812078 -7.118599  -1.000000 -0.000000 0.000000  0.392709 0.510367 1 74 1.000000
0  -4.020219 -16.527925 -6.940312  -1.000000 -0.000000 0.000000  0.392709 0.510236 1 74 1.000000
gun_tex
0  -3.176651 -16.633579 -5.108698  1.000000 0.000000 0.000000  0.392709 0.509890 1 74 1.000000
0  -3.176651 -16.721542 -5.094790  1.000000 0.000000 0.000000  0.392709 0.509905 1 74 1.000000
0  -3.176651 -17.066566 -6.806160  1.000000 0.000000 0.000000  0.392709 0.509905 1 74 1.000000
gun_tex
0  -3.176651 -15.444597 -5.296703  0.000000 0.980258 -0.197721  0.392709 0.509675 1 74 1.000000
0  -3.176651 -15.812078 -7.118599  0.000000 0.980258 -0.197721  0.392709 0.509675 1 74 1.000000
0  -3.387543 -15.812078 -7.118599  0.000000 0.980258 -0.197721  0.392709 0.509617 1 74 1.000000
gun_tex
0  -3.387543 -15.812078 -7.118599  0.000000 0.948709 -0.316149  0.392709 0.509617 1 74 1.000000
0  -3.176651 -15.812078 -7.118599  0.000000 0.948709 -0.316149  0.392709 0.509675 1 74 1.000000
0  -3.176651 -16.461107 -9.066223  0.000000 0.948709 -0.316149  0.392709 0.509675 1 74 1.000000
gun_tex
0  -4.020219 -15.812078 -7.118599  -1.000000 0.000000 0.000000  0.392709 0.510367 1 74 1.000000
0  -4.020219 -16.461105 -9.066223  -1.000000 0.000000 0.000000  0.392709 0.510367 1 74 1.000000
0  -4.020219 -17.135120 -8.766340  -1.000000 0.000000 0.000000  0.392709 0.510236 1 74 1.000000
gun_tex
0  -3.176651 -16.980152 -6.827683  1.000000 -0.000006 0.000000  0.392709 0.509890 1 74 1.000000
0  -3.176651 -17.066566 -6.806160  1.000000 -0.000006 0.000000  0.392709 0.509905 1 74 1.000000
0  -3.176651 -17.642282 -8.540692  1.000000 -0.000006 0.000000  0.392709 0.509905 1 74 1.000000
gun_tex
0  -4.020218 -16.721542 -5.094790  0.000000 -0.980277 0.197630  0.392709 0.510136 1 74 1.000000
0  -4.020219 -17.066566 -6.806160  0.000000 -0.980277 0.197630  0.392709 0.510136 1 74 1.000000
0  -3.809326 -17.066566 -6.806160  0.000000 -0.980277 0.197630  0.392709 0.510079 1 74 1.000000
gun_tex
0  -3.809326 -17.066566 -6.806160  0.000000 -0.949086 0.315016  0.392709 0.510079 1 74 1.000000
0  -4.020219 -17.066566 -6.806160  0.000000 -0.949086 0.315016  0.392709 0.510136 1 74 1.000000
0  -4.020218 -17.642282 -8.540691  0.000000 -0.949086 0.315016  0.392709 0.510136 1 74 1.000000
gun_tex
0  -3.382249 -16.394230 -4.241643  -0.921067 -0.389396 -0.002396  0.392996 0.509927 1 74 1.000000
0  -3.382249 -16.391575 -5.301558  -0.921067 -0.389396 -0.002396  0.392996 0.509927 1 74 1.000000
0  -3.292330 -16.600746 -5.245512  -0.921067 -0.389396 -0.002396  0.392953 0.509916 1 74 1.000000
gun_tex
0  -3.809327 -16.721542 -4.241643  0.000000 -1.000000 0.000000  0.392940 0.510079 1 74 1.000000
0  -4.020218 -16.721542 -4.241643  0.000000 -1.000000 0.000000  0.392940 0.510136 1 74 1.000000
0  -4.020218 -16.721542 -5.094790  0.000000 -1.000000 0.000000  0.392709 0.510136 1 74 1.000000
gun_tex
0  -3.387543 -16.721542 -4.241643  0.000000 -1.000000 0.000001  0.392940 0.509963 1 74 1.000000
0  -3.598435 -16.721542 -4.241643  0.000000 -1.000000 0.000001  0.392940 0.510021 1 74 1.000000
0  -3.598435 -16.721542 -5.094790  0.000000 -1.000000 0.000001  0.392709 0.510021 1 74 1.000000
gun_tex
0  -3.763798 -15.555705 -4.241643  0.000000 -0.999794 0.020292  0.393163 0.510079 1 74 1.000000
0  -3.763798 -15.581622 -5.518585  0.000000 -0.999794 0.020292  0.393163 0.510079 1 74 1.000000
0  -3.598435 -15.581622 -5.518585  0.000000 -0.999794 0.020292  0.393163 0.510021 1 74 1.000000
gun_tex
0  -3.598435 -17.066566 -6.806160  0.000000 -0.949086 0.315016  0.392709 0.510021 1 74 1.000000
0  -3.598435 -17.642282 -8.540691  0.000000 -0.949086 0.315016  0.392709 0.510021 1 74 1.000000
0  -3.387543 -17.642282 -8.540692  0.000000 -0.949086 0.315016  0.392709 0.509963 1 74 1.000000
gun_tex
0  -3.598435 -16.721542 -5.094790  0.000000 -0.980276 0.197631  0.392709 0.510021 1 74 1.000000
0  -3.598435 -17.066566 -6.806160  0.000000 -0.980276 0.197631  0.392709 0.510021 1 74 1.000000
0  -3.387543 -17.066566 -6.806160  0.000000 -0.980276 0.197631  0.392709 0.509963 1 74 1.000000
gun_tex
0  -3.598435 -15.812078 -7.118599  0.000000 0.948710 -0.316148  0.392709 0.509559 1 74 1.000000
0  -3.598435 -16.461105 -9.066223  0.000000 0.948710 -0.316148  0.392709 0.509559 1 74 1.000000
0  -3.809327 -16.461105 -9.066223  0.000000 0.948710 -0.316148  0.392709 0.509501 1 74 1.000000
gun_tex
0  -3.598435 -15.444597 -5.296703  0.000000 0.980258 -0.197721  0.392709 0.509559 1 74 1.000000
0  -3.598435 -15.812078 -7.118599  0.000000 0.980258 -0.197721  0.392709 0.509559 1 74 1.000000
0  -3.809327 -15.812078 -7.118599  0.000000 0.980258 -0.197721  0.392709 0.509501 1 74 1.000000
gun_tex
0  -3.809327 -15.444597 -5.296703  0.000000 0.999648 -0.026549  0.392709 0.509501 1 74 1.000000
0  -3.809327 -15.416576 -4.241643  0.000000 0.999648 -0.026549  0.392940 0.509501 1 74 1.000000
0  -3.598435 -15.416576 -4.241643  0.000000 0.999648 -0.026549  0.392940 0.509559 1 74 1.000000
gun_tex
0  -3.387543 -16.721542 -5.094790  0.000000 -0.980276 0.197631  0.392709 0.509963 1 74 1.000000
0  -3.387543 -17.066566 -6.806160  0.000000 -0.980276 0.197631  0.392709 0.509963 1 74 1.000000
0  -3.176651 -17.066566 -6.806160  0.000000 -0.980276 0.197631  0.392709 0.509905 1 74 1.000000
gun_tex
0  -3.387543 -17.066566 -6.806160  0.000000 -0.949086 0.315016  0.392709 0.509963 1 74 1.000000
0  -3.387543 -17.642282 -8.540692  0.000000 -0.949086 0.315016  0.392709 0.509963 1 74 1.000000
0  -3.176651 -17.642282 -8.540692  0.000000 -0.949086 0.315016  0.392709 0.509905 1 74 1.000000
gun_tex
0  -3.292330 -15.555705 -4.241643  -1.000000 0.000000 0.000000  0.393163 0.509914 1 74 1.000000
0  -3.292330 -15.581622 -5.518585  -1.000000 0.000000 0.000000  0.393163 0.509914 1 74 1.000000
0  -3.292330 -16.170494 -5.360797  -1.000000 0.000000 0.000000  0.393042 0.509914 1 74 1.000000
gun_tex
0  -3.176651 -16.721542 -4.241643  0.000000 -1.000000 0.000000  0.392940 0.509905 1 74 1.000000
0  -3.387543 -16.721542 -4.241643  0.000000 -1.000000 0.000000  0.392940 0.509963 1 74 1.000000
0  -3.387543 -16.721542 -5.094790  0.000000 -1.000000 0.000000  0.392709 0.509963 1 74 1.000000
gun_tex
0  -3.387543 -15.812078 -7.118599  0.000007 0.948710 -0.316148  0.392709 0.509617 1 74 1.000000
0  -3.387543 -16.461107 -9.066223  0.000007 0.948710 -0.316148  0.392709 0.509617 1 74 1.000000
0  -3.598435 -16.461105 -9.066223  0.000007 0.948710 -0.316148  0.392709 0.509559 1 74 1.000000
gun_tex
0  -3.387543 -15.444597 -5.296703  0.000000 0.980258 -0.197721  0.392709 0.509617 1 74 1.000000
0  -3.387543 -15.812078 -7.118599  0.000000 0.980258 -0.197721  0.392709 0.509617 1 74 1.000000
0  -3.598435 -15.812078 -7.118599  0.000000 0.980258 -0.197721  0.392709 0.509559 1 74 1.000000
gun_tex
0  -3.598435 -15.444597 -5.296703  0.000000 0.999648 -0.026549  0.392709 0.509559 1 74 1.000000
0  -3.598435 -15.416576 -4.241643  0.000000 0.999648 -0.026549  0.392940 0.509559 1 74 1.000000
0  -3.387543 -15.416576 -4.241643  0.000000 0.999648 -0.026549  0.392940 0.509617 1 74 1.000000
gun_tex
0  -4.020219 -15.416576 -4.241643  0.000000 0.999648 -0.026549  0.392940 0.509444 1 74 1.000000
0  -3.809327 -15.416576 -4.241643  0.000000 0.999648 -0.026549  0.392940 0.509501 1 74 1.000000
0  -3.809327 -15.444597 -5.296703  0.000000 0.999648 -0.026549  0.392709 0.509501 1 74 1.000000
gun_tex
0  -3.809327 -15.444597 -5.296703  0.000000 0.980258 -0.197721  0.392709 0.509501 1 74 1.000000
0  -3.809327 -15.812078 -7.118599  0.000000 0.980258 -0.197721  0.392709 0.509501 1 74 1.000000
0  -4.020219 -15.812078 -7.118599  0.000000 0.980258 -0.197721  0.392709 0.509444 1 74 1.000000
gun_tex
0  -3.809327 -15.812078 -7.118599  0.000000 0.948710 -0.316148  0.392709 0.509501 1 74 1.000000
0  -3.809327 -16.461105 -9.066223  0.000000 0.948710 -0.316148  0.392709 0.509501 1 74 1.000000
0  -4.020219 -16.461105 -9.066223  0.000000 0.948710 -0.316148  0.392709 0.509444 1 74 1.000000
gun_tex
0  -3.598435 -16.721542 -4.241643  0.000000 -1.000000 0.000000  0.392940 0.510021 1 74 1.000000
0  -3.809327 -16.721542 -4.241643  0.000000 -1.000000 0.000000  0.392940 0.510079 1 74 1.000000
0  -3.809327 -16.721542 -5.094790  0.000000 -1.000000 0.000000  0.392709 0.510079 1 74 1.000000
gun_tex
0  -3.763798 -16.635914 -4.241643  0.000000 0.999940 0.010917  0.392949 0.510079 1 74 1.000000
0  -3.763798 -16.625023 -5.239006  0.000000 0.999940 0.010917  0.392949 0.510079 1 74 1.000000
0  -3.904540 -16.625023 -5.239006  0.000000 0.999940 0.010917  0.392949 0.510128 1 74 1.000000
gun_tex
0  -3.809326 -17.066566 -6.806160  0.000000 -0.949086 0.315017  0.392709 0.510079 1 74 1.000000
0  -3.809327 -17.642282 -8.540691  0.000000 -0.949086 0.315017  0.392709 0.510079 1 74 1.000000
0  -3.598435 -17.642282 -8.540691  0.000000 -0.949086 0.315017  0.392709 0.510021 1 74 1.000000
gun_tex
0  -3.809327 -16.721542 -5.094790  0.000000 -0.980276 0.197631  0.392709 0.510079 1 74 1.000000
0  -3.809326 -17.066566 -6.806160  0.000000 -0.980276 0.197631  0.392709 0.510079 1 74 1.000000
0  -3.598435 -17.066566 -6.806160  0.000000 -0.980276 0.197631  0.392709 0.510021 1 74 1.000000
gun_tex
0  -3.814621 -16.394230 -4.241643  0.921066 -0.389400 -0.002396  0.392996 0.510115 1 74 1.000000
0  -3.904541 -16.610779 -4.241643  0.921102 -0.389314 -0.002417  0.392953 0.510128 1 74 1.000000
0  -3.904541 -16.600744 -5.245512  0.921084 -0.389357 -0.002406  0.392953 0.510128 1 74 1.000000
gun_tex
0  -3.292330 -16.610779 -4.241643  -1.000000 0.000010 0.000000  0.392953 0.509916 1 74 1.000000
0  -3.292330 -16.600746 -5.245512  -1.000000 0.000010 0.000000  0.392953 0.509916 1 74 1.000000
0  -3.292330 -16.625023 -5.239006  -1.000000 0.000010 0.000000  0.392949 0.509914 1 74 1.000000
gun_tex
0  -3.292330 -16.165352 -4.241643  -0.928605 0.371070 -0.000421  0.393042 0.509914 1 74 1.000000
0  -3.292330 -16.170494 -5.360797  -0.928605 0.371070 -0.000421  0.393042 0.509914 1 74 1.000000
0  -3.382249 -16.391575 -5.301558  -0.928605 0.371070 -0.000421  0.392996 0.509927 1 74 1.000000
gun_tex
0  -3.904540 -16.165352 -4.241643  0.928598 0.371087 -0.000426  0.393042 0.510126 1 74 1.000000
0  -3.814621 -16.394230 -4.241643  0.928598 0.371087 -0.000426  0.392996 0.510115 1 74 1.000000
0  -3.814621 -16.391575 -5.301558  0.928598 0.371087 -0.000425  0.392996 0.510115 1 74 1.000000
gun_tex
0  -3.176651 -16.527925 -6.940312  0.910208 -0.392947 0.130821  0.392709 0.509806 1 74 1.000000
0  -3.284659 -16.760296 -6.882439  0.910212 -0.392916 0.130886  0.392709 0.509849 1 74 1.000000
0  -3.284659 -17.353910 -8.668995  0.910214 -0.392903 0.130913  0.392709 0.509849 1 74 1.000000
gun_tex
0  -3.912211 -16.760296 -6.882439  -0.902817 0.408186 -0.135302  0.392709 0.510193 1 74 1.000000
0  -3.912211 -17.353910 -8.668995  -0.902862 0.408077 -0.135331  0.392709 0.510193 1 74 1.000000
0  -4.020219 -17.560917 -8.576894  -0.902839 0.408132 -0.135314  0.392709 0.510152 1 74 1.000000
gun_tex
0  -3.176651 -16.173260 -5.181485  0.911432 -0.403333 0.081325  0.392709 0.509806 1 74 1.000000
0  -3.284660 -16.409790 -5.144084  0.911432 -0.403333 0.081325  0.392709 0.509849 1 74 1.000000
0  -3.284659 -16.760296 -6.882439  0.911432 -0.403333 0.081325  0.392709 0.509849 1 74 1.000000
gun_tex
0  -3.912211 -16.409790 -5.144084  -0.902510 0.422172 -0.085123  0.392709 0.510193 1 74 1.000000
0  -3.912211 -16.760296 -6.882439  -0.902510 0.422172 -0.085123  0.392709 0.510193 1 74 1.000000
0  -4.020219 -16.980152 -6.827683  -0.902510 0.422172 -0.085123  0.392709 0.510152 1 74 1.000000
gun_tex
0  -4.020219 -16.633579 -5.108698  -0.902492 0.430700 -0.002140  0.392709 0.510152 1 74 1.000000
0  -4.020219 -16.631649 -4.241643  -0.902492 0.430700 -0.002139  0.392940 0.510152 1 74 1.000000
0  -3.912211 -16.402950 -4.241643  -0.902492 0.430700 -0.002140  0.392940 0.510193 1 74 1.000000
gun_tex
0  -3.176651 -16.161228 -4.241643  0.911471 -0.411343 0.004208  0.392940 0.509806 1 74 1.000000
0  -3.284659 -16.402950 -4.241643  0.911471 -0.411343 0.004209  0.392940 0.509849 1 74 1.000000
0  -3.284660 -16.409790 -5.144084  0.911471 -0.411343 0.004208  0.392709 0.509849 1 74 1.000000
gun_tex
0  -3.176651 -15.416576 -4.241643  1.000000 0.000000 0.000000  0.392940 0.509675 1 74 1.000000
0  -3.176651 -16.161228 -4.241643  1.000000 0.000000 0.000000  0.392940 0.509806 1 74 1.000000
0  -3.176651 -16.173260 -5.181485  1.000000 0.000000 0.000000  0.392709 0.509806 1 74 1.000000
gun_tex
0  -3.176651 -15.444597 -5.296703  1.000000 0.000000 0.000000  0.392709 0.509675 1 74 1.000000
0  -3.176651 -16.173260 -5.181485  1.000000 0.000000 0.000000  0.392709 0.509806 1 74 1.000000
0  -3.176651 -16.527925 -6.940312  1.000000 0.000000 0.000000  0.392709 0.509806 1 74 1.000000
gun_tex
0  -3.176651 -15.812078 -7.118599  1.000000 0.000000 0.000000  0.392709 0.509675 1 74 1.000000
0  -3.176651 -16.527925 -6.940312  1.000000 0.000000 0.000000  0.392709 0.509806 1 74 1.000000
0  -3.176651 -17.135120 -8.766340  1.000000 0.000000 0.000000  0.392709 0.509806 1 74 1.000000
gun_tex
0  -3.433072 -15.555705 -4.241643  0.000000 -0.999794 0.020293  0.393163 0.509963 1 74 1.000000
0  -3.433072 -15.581622 -5.518585  0.000000 -0.999794 0.020293  0.393163 0.509963 1 74 1.000000
0  -3.292330 -15.581622 -5.518585  0.000000 -0.999794 0.020293  0.393163 0.509914 1 74 1.000000
gun_tex
0  -3.598435 -16.635914 -4.241643  0.000000 0.999940 0.010919  0.392949 0.510021 1 74 1.000000
0  -3.598435 -16.625023 -5.239006  0.000000 0.999940 0.010919  0.392949 0.510021 1 74 1.000000
0  -3.763798 -16.625023 -5.239006  0.000000 0.999940 0.010919  0.392949 0.510079 1 74 1.000000
gun_tex
0  -3.904541 -15.555705 -4.241643  0.000000 -0.999794 0.020293  0.393163 0.510128 1 74 1.000000
0  -3.904541 -15.581622 -5.518585  0.000000 -0.999794 0.020293  0.393163 0.510128 1 74 1.000000
0  -3.763798 -15.581622 -5.518585  0.000000 -0.999794 0.020293  0.393163 0.510079 1 74 1.000000
gun_tex
0  -3.433072 -16.635914 -4.241643  0.000000 0.999940 0.010921  0.392949 0.509963 1 74 1.000000
0  -3.292330 -16.635914 -4.241643  0.000000 0.999940 0.010921  0.392949 0.509914 1 74 1.000000
0  -3.292330 -16.625023 -5.239006  0.000000 0.999940 0.010921  0.392949 0.509914 1 74 1.000000
gun_tex
0  -4.020219 -16.527925 -6.940312  -0.911747 -0.389879 0.129272  0.392709 0.510236 1 74 1.000000
0  -4.020219 -17.135120 -8.766340  -0.911690 -0.389984 0.129358  0.392709 0.510236 1 74 1.000000
0  -3.912211 -17.353910 -8.668995  -0.911733 -0.389875 0.129384  0.392709 0.510193 1 74 1.000000
gun_tex
0  -4.020219 -16.173260 -5.181485  -0.911411 -0.403377 0.081341  0.392709 0.510236 1 74 1.000000
0  -4.020219 -16.527925 -6.940312  -0.911411 -0.403377 0.081341  0.392709 0.510236 1 74 1.000000
0  -3.912211 -16.760296 -6.882439  -0.911411 -0.403377 0.081341  0.392709 0.510193 1 74 1.000000
gun_tex
0  -3.912211 -16.409790 -5.144084  -0.911491 -0.411300 0.004195  0.392709 0.510193 1 74 1.000000
0  -3.912211 -16.402950 -4.241643  -0.911472 -0.411341 0.004209  0.392940 0.510193 1 74 1.000000
0  -4.020218 -16.161228 -4.241643  -0.911472 -0.411341 0.004209  0.392940 0.510236 1 74 1.000000
gun_tex
0  -4.020218 -16.721542 -5.094790  -1.000000 -0.000006 0.000000  0.392709 0.510136 1 74 1.000000
0  -4.020218 -16.721542 -4.241643  -1.000000 -0.000006 0.000000  0.392940 0.510136 1 74 1.000000
0  -4.020219 -16.631649 -4.241643  -1.000000 -0.000006 0.000000  0.392940 0.510152 1 74 1.000000
gun_tex
0  -4.020219 -16.633579 -5.108698  -1.000000 -0.000002 0.000000  0.392709 0.510152 1 74 1.000000
0  -4.020219 -16.980152 -6.827683  -1.000000 -0.000002 0.000000  0.392709 0.510152 1 74 1.000000
0  -4.020219 -17.066566 -6.806160  -1.000000 -0.000002 0.000000  0.392709 0.510136 1 74 1.000000
gun_tex
0  -4.020219 -16.980152 -6.827683  -1.000000 -0.000011 0.000003  0.392709 0.510152 1 74 1.000000
0  -4.020219 -17.560917 -8.576894  -1.000000 -0.000011 0.000003  0.392709 0.510152 1 74 1.000000
0  -4.020218 -17.642282 -8.540691  -1.000000 -0.000011 0.000003  0.392709 0.510136 1 74 1.000000
gun_tex
0  -3.904541 -16.610779 -4.241643  1.000000 0.000019 0.000000  0.392953 0.510128 1 74 1.000000
0  -3.904540 -16.635914 -4.241643  1.000000 0.000019 0.000000  0.392949 0.510128 1 74 1.000000
0  -3.904540 -16.625023 -5.239006  1.000000 0.000019 0.000000  0.392949 0.510128 1 74 1.000000
gun_tex
0  -3.598435 -15.555705 -4.241643  0.000000 -0.999794 0.020292  0.393163 0.510021 1 74 1.000000
0  -3.598435 -15.581622 -5.518585  0.000000 -0.999794 0.020292  0.393163 0.510021 1 74 1.000000
0  -3.433072 -15.581622 -5.518585  0.000000 -0.999794 0.020292  0.393163 0.509963 1 74 1.000000
gun_tex
0  -3.904541 -15.555705 -4.241643  1.000000 0.000000 -0.000000  0.393163 0.510128 1 74 1.000000
0  -3.904540 -16.165352 -4.241643  1.000000 0.000000 -0.000000  0.393042 0.510126 1 74 1.000000
0  -3.904540 -16.170494 -5.360797  1.000000 0.000000 -0.000000  0.393042 0.510126 1 74 1.000000
gun_tex
0  -3.433072 -16.635914 -4.241643  0.000000 0.999940 0.010919  0.392949 0.509963 1 74 1.000000
0  -3.433072 -16.625023 -5.239006  0.000000 0.999940 0.010919  0.392949 0.509963 1 74 1.000000
0  -3.598435 -16.625023 -5.239006  0.000000 0.999940 0.010919  0.392949 0.510021 1 74 1.000000
gun_tex
0  -3.284659 -16.760296 -6.882439  0.901162 0.411305 -0.136876  0.392709 0.509849 1 74 1.000000
0  -3.176651 -16.980152 -6.827683  0.901161 0.411318 -0.136848  0.392709 0.509890 1 74 1.000000
0  -3.176651 -17.560917 -8.576894  0.901164 0.411289 -0.136909  0.392709 0.509890 1 74 1.000000
gun_tex
0  -3.284660 -16.409790 -5.144084  0.902530 0.422133 -0.085109  0.392709 0.509849 1 74 1.000000
0  -3.176651 -16.633579 -5.108698  0.902530 0.422133 -0.085109  0.392709 0.509890 1 74 1.000000
0  -3.176651 -16.980152 -6.827683  0.902530 0.422133 -0.085109  0.392709 0.509890 1 74 1.000000
gun_tex
0  -3.284659 -16.402950 -4.241643  0.902494 0.430697 -0.002140  0.392940 0.509849 1 74 1.000000
0  -3.176651 -16.631649 -4.241643  0.902494 0.430697 -0.002141  0.392940 0.509890 1 74 1.000000
0  -3.176651 -16.633579 -5.108698  0.902494 0.430697 -0.002140  0.392709 0.509890 1 74 1.000000
gun_tex
0  -3.292330 -15.555705 -4.241643  0.000000 0.000000 1.000000  0.393163 0.509914 1 74 1.000000
0  -3.176651 -15.416576 -4.241643  0.000000 0.000000 1.000000  0.393171 0.509905 1 74 1.000000
0  -3.387543 -15.416576 -4.241643  0.000000 0.000000 1.000000  0.393171 0.509963 1 74 1.000000
gun_tex
0  -3.292330 -16.635914 -4.241643  0.000000 0.000000 1.000000  0.392949 0.509914 1 74 1.000000
0  -3.176651 -16.721542 -4.241643  0.000000 0.000000 1.000000  0.392940 0.509905 1 74 1.000000
0  -3.176651 -16.631649 -4.241643  0.000000 0.000000 1.000000  0.392956 0.509905 1 74 1.000000
gun_tex
0  -3.904540 -16.635914 -4.241643  0.000000 0.000000 1.000000  0.392949 0.510128 1 74 1.000000
0  -4.020218 -16.721542 -4.241643  0.000000 0.000000 1.000000  0.392940 0.510136 1 74 1.000000
0  -3.809327 -16.721542 -4.241643  0.000000 0.000000 1.000000  0.392940 0.510079 1 74 1.000000
gun_tex
0  -3.763798 -15.555705 -4.241643  0.000000 0.000000 1.000000  0.393163 0.510079 1 74 1.000000
0  -3.598435 -15.555705 -4.241643  0.000000 0.000000 1.000000  0.393163 0.510021 1 74 1.000000
0  -3.598435 -15.416576 -4.241643  0.000000 0.000000 1.000000  0.393171 0.510021 1 74 1.000000
gun_tex
0  -3.433072 -16.635914 -4.241643  0.000000 0.000000 1.000000  0.392949 0.509963 1 74 1.000000
0  -3.598435 -16.635914 -4.241643  0.000000 0.000000 1.000000  0.392949 0.510021 1 74 1.000000
0  -3.598435 -16.721542 -4.241643  0.000000 0.000000 1.000000  0.392940 0.510021 1 74 1.000000
gun_tex
0  -3.433072 -15.555705 -4.241643  0.000000 0.000000 1.000000  0.393163 0.509963 1 74 1.000000
0  -3.387543 -15.416576 -4.241643  0.000000 0.000000 1.000000  0.393171 0.509963 1 74 1.000000
0  -3.598435 -15.416576 -4.241643  0.000000 0.000000 1.000000  0.393171 0.510021 1 74 1.000000
gun_tex
0  -3.292330 -16.635914 -4.241643  0.000000 0.000000 1.000000  0.392949 0.509914 1 74 1.000000
0  -3.433072 -16.635914 -4.241643  0.000000 0.000000 1.000000  0.392949 0.509963 1 74 1.000000
0  -3.387543 -16.721542 -4.241643  0.000000 0.000000 1.000000  0.392940 0.509963 1 74 1.000000
gun_tex
0  -3.763798 -16.635914 -4.241643  0.000000 0.000000 1.000000  0.392949 0.510079 1 74 1.000000
0  -3.809327 -16.721542 -4.241643  0.000000 0.000000 1.000000  0.392940 0.510079 1 74 1.000000
0  -3.598435 -16.721542 -4.241643  0.000000 0.000000 1.000000  0.392940 0.510021 1 74 1.000000
gun_tex
0  -3.292330 -16.165352 -4.241643  -0.000002 0.000000 1.000000  0.393042 0.509914 1 74 1.000000
0  -3.382249 -16.394230 -4.241643  -0.000002 0.000000 1.000000  0.392996 0.509927 1 74 1.000000
0  -3.284659 -16.402950 -4.241643  -0.000002 0.000000 1.000000  0.392997 0.509905 1 74 1.000000
gun_tex
0  -3.904541 -16.610779 -4.241643  -0.000002 0.000000 1.000000  0.392953 0.510128 1 74 1.000000
0  -3.814621 -16.394230 -4.241643  -0.000002 0.000000 1.000000  0.392996 0.510115 1 74 1.000000
0  -3.912211 -16.402950 -4.241643  -0.000002 0.000000 1.000000  0.392997 0.510136 1 74 1.000000
gun_tex
0  -3.904541 -15.555705 -4.241643  0.419729 0.836287 -0.352775  0.393163 0.510128 1 74 1.000000
0  -4.020219 -15.416576 -4.241643  0.419742 0.836259 -0.352829  0.393171 0.510136 1 74 1.000000
0  -3.948214 -15.464979 -4.078541  0.419734 0.836282 -0.352782  0.393171 0.510136 1 74 1.000000
gun_tex
0  -3.292330 -16.610779 -4.241643  0.000000 0.000000 1.000000  0.392953 0.509916 1 74 1.000000
0  -3.176651 -16.631649 -4.241643  0.000000 0.000000 1.000000  0.392956 0.509905 1 74 1.000000
0  -3.284659 -16.402950 -4.241643  0.000000 0.000000 1.000000  0.392997 0.509905 1 74 1.000000
gun_tex
0  -4.020218 -16.161228 -4.241643  -0.914817 -0.000001 0.403870  0.392940 0.510236 1 74 1.000000
0  -3.948213 -16.161228 -4.078541  -0.914817 -0.000001 0.403870  0.392940 0.510236 1 74 1.000000
0  -3.948214 -15.464979 -4.078541  -0.914817 -0.000001 0.403870  0.392940 0.510367 1 74 1.000000
gun_tex
0  -3.904540 -16.635914 -4.241643  0.000000 0.000000 1.000000  0.392949 0.510128 1 74 1.000000
0  -3.904541 -16.610779 -4.241643  0.000000 0.000000 1.000000  0.392953 0.510128 1 74 1.000000
0  -4.020219 -16.631649 -4.241643  0.000000 0.000000 1.000000  0.392956 0.510136 1 74 1.000000
gun_tex
0  -3.904541 -15.555705 -4.241643  0.000000 0.000000 1.000000  0.393163 0.510128 1 74 1.000000
0  -3.763798 -15.555705 -4.241643  0.000000 0.000000 1.000000  0.393163 0.510079 1 74 1.000000
0  -3.809327 -15.416576 -4.241643  0.000000 0.000000 1.000000  0.393171 0.510079 1 74 1.000000
gun_tex
0  -3.904540 -16.165352 -4.241643  0.000000 0.000000 1.000000  0.393042 0.510126 1 74 1.000000
0  -4.020218 -16.161228 -4.241643  0.000000 0.000000 1.000000  0.393039 0.510136 1 74 1.000000
0  -3.912211 -16.402950 -4.241643  0.000000 0.000000 1.000000  0.392997 0.510136 1 74 1.000000
gun_tex
0  -3.364336 -15.441975 -4.078541  0.191441 0.962655 0.191428  0.393163 0.509914 1 74 1.000000
0  -3.450507 -15.441975 -3.992369  0.191441 0.962655 0.191428  0.393163 0.509914 1 74 1.000000
0  -3.450507 -15.464979 -3.876691  0.191441 0.962655 0.191428  0.393171 0.509905 1 74 1.000000
gun_tex
0  -3.948214 -15.464979 -4.078541  -0.707107 -0.000001 0.707106  0.392940 0.510367 1 74 1.000000
0  -3.948213 -16.161228 -4.078541  -0.707107 -0.000001 0.707106  0.392940 0.510236 1 74 1.000000
0  -3.746363 -16.017218 -3.876691  -0.707107 -0.000001 0.707106  0.392940 0.510236 1 74 1.000000
gun_tex
0  -3.176651 -16.161228 -4.241643  0.914816 0.000000 0.403871  0.392940 0.509806 1 74 1.000000
0  -3.176651 -15.416576 -4.241643  0.914816 0.000000 0.403871  0.392940 0.509675 1 74 1.000000
0  -3.248657 -15.464979 -4.078541  0.914816 0.000000 0.403871  0.392940 0.509675 1 74 1.000000
gun_tex
0  -3.904541 -15.555705 -4.241643  0.914817 0.000001 -0.403868  0.393163 0.510128 1 74 1.000000
0  -3.832535 -15.441975 -4.078541  0.914817 0.000001 -0.403868  0.393163 0.510128 1 74 1.000000
0  -3.832534 -16.165352 -4.078541  0.914817 0.000001 -0.403868  0.393042 0.510126 1 74 1.000000
gun_tex
0  -3.292330 -15.555705 -4.241643  -0.914817 0.000000 -0.403869  0.393163 0.509914 1 74 1.000000
0  -3.292330 -16.165352 -4.241643  -0.914817 0.000000 -0.403869  0.393042 0.509914 1 74 1.000000
0  -3.364335 -16.165352 -4.078541  -0.914817 0.000000 -0.403869  0.393042 0.509914 1 74 1.000000
gun_tex
0  -3.904540 -16.165352 -4.241643  -0.035621 -0.999242 0.015733  0.393042 0.510126 1 74 1.000000
0  -3.832534 -16.165352 -4.078541  -0.035621 -0.999242 0.015733  0.393042 0.510126 1 74 1.000000
0  -3.948213 -16.161228 -4.078541  -0.035621 -0.999242 0.015733  0.393039 0.510136 1 74 1.000000
gun_tex
0  -3.292330 -15.555705 -4.241643  -0.420013 0.836181 -0.352691  0.393163 0.509914 1 74 1.000000
0  -3.364336 -15.441975 -4.078541  -0.420018 0.836173 -0.352703  0.393163 0.509914 1 74 1.000000
0  -3.248657 -15.464979 -4.078541  -0.419999 0.836213 -0.352632  0.393171 0.509905 1 74 1.000000
gun_tex
0  -3.292330 -16.165352 -4.241643  0.035620 -0.999242 0.015733  0.393042 0.509914 1 74 1.000000
0  -3.176651 -16.161228 -4.241643  0.035620 -0.999242 0.015733  0.393039 0.509905 1 74 1.000000
0  -3.248657 -16.161228 -4.078541  0.035620 -0.999242 0.015733  0.393039 0.509905 1 74 1.000000
gun_tex
0  -3.746363 -15.441975 -3.992369  1.000000 -0.000001 0.000000  0.393163 0.510128 1 74 1.000000
0  -3.746363 -15.464979 -3.876690  1.000000 -0.000001 0.000000  0.393171 0.510136 1 74 1.000000
0  -3.746363 -16.017218 -3.876691  1.000000 -0.000001 0.000000  0.393039 0.510136 1 74 1.000000
gun_tex
0  -3.832534 -16.165352 -4.078541  -0.289472 -0.708553 0.643552  0.393042 0.510126 1 74 1.000000
0  -3.746363 -16.165352 -3.992370  -0.289471 -0.708547 0.643559  0.393042 0.510126 1 74 1.000000
0  -3.746363 -16.017218 -3.876691  -0.289469 -0.708541 0.643566  0.393039 0.510136 1 74 1.000000
gun_tex
0  -3.832535 -15.441975 -4.078541  -0.191439 0.962650 0.191457  0.393163 0.510128 1 74 1.000000
0  -3.948214 -15.464979 -4.078541  -0.191439 0.962650 0.191457  0.393171 0.510136 1 74 1.000000
0  -3.746363 -15.464979 -3.876690  -0.191439 0.962650 0.191457  0.393171 0.510136 1 74 1.000000
gun_tex
0  -3.832535 -15.441975 -4.078541  0.707110 0.000001 -0.707103  0.393163 0.510128 1 74 1.000000
0  -3.746363 -15.441975 -3.992369  0.707110 0.000001 -0.707103  0.393163 0.510128 1 74 1.000000
0  -3.746363 -16.165352 -3.992370  0.707110 0.000001 -0.707103  0.393042 0.510126 1 74 1.000000
gun_tex
0  -3.450507 -15.441975 -3.992369  -1.000000 0.000000 0.000000  0.393163 0.509914 1 74 1.000000
0  -3.450507 -16.165352 -3.992369  -1.000000 0.000000 0.000000  0.393042 0.509914 1 74 1.000000
0  -3.450507 -16.017218 -3.876691  -1.000000 0.000000 0.000000  0.393039 0.509905 1 74 1.000000
gun_tex
0  -3.364335 -16.165352 -4.078541  -0.707105 0.000000 -0.707108  0.393042 0.509914 1 74 1.000000
0  -3.450507 -16.165352 -3.992369  -0.707105 0.000000 -0.707108  0.393042 0.509914 1 74 1.000000
0  -3.450507 -15.441975 -3.992369  -0.707105 0.000000 -0.707108  0.393163 0.509914 1 74 1.000000
gun_tex
0  -3.248657 -15.464979 -4.078541  0.707108 0.000000 0.707105  0.392940 0.509675 1 74 1.000000
0  -3.450507 -15.464979 -3.876691  0.707108 0.000000 0.707105  0.392940 0.509675 1 74 1.000000
0  -3.450507 -16.017218 -3.876691  0.707108 0.000000 0.707105  0.392940 0.509806 1 74 1.000000
gun_tex
0  -3.364335 -16.165352 -4.078541  0.288984 -0.708837 0.643458  0.393042 0.509914 1 74 1.000000
0  -3.248657 -16.161228 -4.078541  0.288944 -0.708770 0.643550  0.393039 0.509905 1 74 1.000000
0  -3.450507 -16.017218 -3.876691  0.288963 -0.708796 0.643513  0.393039 0.509905 1 74 1.000000
gun_tex
0  -3.433072 -16.625023 -5.239006  0.000000 0.977420 -0.211305  0.392949 0.509963 1 74 1.000000
0  -3.433071 -16.925745 -6.630046  0.000000 0.977420 -0.211305  0.392949 0.509963 1 74 1.000000
0  -3.598435 -16.925745 -6.630046  0.000000 0.977420 -0.211305  0.392949 0.510021 1 74 1.000000
gun_tex
0  -3.382249 -16.391575 -5.301558  -0.923382 -0.375214 0.081115  0.392996 0.509927 1 74 1.000000
0  -3.382249 -16.692297 -6.692598  -0.923382 -0.375214 0.081115  0.392996 0.509927 1 74 1.000000
0  -3.292330 -16.901468 -6.636551  -0.923382 -0.375214 0.081115  0.392953 0.509916 1 74 1.000000
gun_tex
0  -3.763798 -15.581622 -5.518585  0.000000 -0.977420 0.211306  0.393163 0.510079 1 74 1.000000
0  -3.763798 -15.882345 -6.909625  0.000000 -0.977420 0.211306  0.393163 0.510079 1 74 1.000000
0  -3.598435 -15.882345 -6.909625  0.000000 -0.977420 0.211306  0.393163 0.510021 1 74 1.000000
gun_tex
0  -3.292330 -15.581622 -5.518585  -1.000000 -0.000001 0.000000  0.393163 0.509914 1 74 1.000000
0  -3.292330 -15.882345 -6.909625  -1.000000 -0.000001 0.000000  0.393163 0.509914 1 74 1.000000
0  -3.292330 -16.471218 -6.751837  -1.000000 -0.000001 0.000000  0.393042 0.509914 1 74 1.000000
gun_tex
0  -3.763798 -16.625023 -5.239006  0.000000 0.977420 -0.211305  0.392949 0.510079 1 74 1.000000
0  -3.763798 -16.925745 -6.630046  0.000000 0.977420 -0.211305  0.392949 0.510079 1 74 1.000000
0  -3.904540 -16.925745 -6.630046  0.000000 0.977420 -0.211305  0.392949 0.510128 1 74 1.000000
gun_tex
0  -3.814621 -16.391575 -5.301558  0.923381 -0.375217 0.081117  0.392996 0.510115 1 74 1.000000
0  -3.904541 -16.600744 -5.245512  0.923381 -0.375217 0.081117  0.392953 0.510128 1 74 1.000000
0  -3.904541 -16.901468 -6.636551  0.923381 -0.375217 0.081117  0.392953 0.510128 1 74 1.000000
gun_tex
0  -3.292330 -16.600746 -5.245512  -1.000000 -0.000001 0.000000  0.392953 0.509916 1 74 1.000000
0  -3.292330 -16.901468 -6.636551  -1.000000 -0.000001 0.000000  0.392953 0.509916 1 74 1.000000
0  -3.292330 -16.925745 -6.630046  -1.000000 -0.000001 0.000000  0.392949 0.509914 1 74 1.000000
gun_tex
0  -3.292330 -16.170494 -5.360797  -0.930599 0.357776 -0.077345  0.393042 0.509914 1 74 1.000000
0  -3.292330 -16.471218 -6.751837  -0.930599 0.357776 -0.077345  0.393042 0.509914 1 74 1.000000
0  -3.382249 -16.692297 -6.692598  -0.930599 0.357776 -0.077345  0.392996 0.509927 1 74 1.000000
gun_tex
0  -3.904540 -16.170494 -5.360797  0.930601 0.357769 -0.077346  0.393042 0.510126 1 74 1.000000
0  -3.814621 -16.391575 -5.301558  0.930601 0.357769 -0.077346  0.392996 0.510115 1 74 1.000000
0  -3.814621 -16.692297 -6.692598  0.930601 0.357769 -0.077346  0.392996 0.510115 1 74 1.000000
gun_tex
0  -3.433072 -15.581622 -5.518585  0.000000 -0.977420 0.211305  0.393163 0.509963 1 74 1.000000
0  -3.433072 -15.882345 -6.909625  0.000000 -0.977420 0.211305  0.393163 0.509963 1 74 1.000000
0  -3.292330 -15.882345 -6.909625  0.000000 -0.977420 0.211305  0.393163 0.509914 1 74 1.000000
gun_tex
0  -3.598435 -16.625023 -5.239006  0.000000 0.977420 -0.211306  0.392949 0.510021 1 74 1.000000
0  -3.598435 -16.925745 -6.630046  0.000000 0.977420 -0.211306  0.392949 0.510021 1 74 1.000000
0  -3.763798 -16.925745 -6.630046  0.000000 0.977420 -0.211306  0.392949 0.510079 1 74 1.000000
gun_tex
0  -3.904541 -15.581622 -5.518585  0.000000 -0.977420 0.211304  0.393163 0.510128 1 74 1.000000
0  -3.904541 -15.882345 -6.909625  0.000000 -0.977420 0.211304  0.393163 0.510128 1 74 1.000000
0  -3.763798 -15.882345 -6.909625  0.000000 -0.977420 0.211304  0.393163 0.510079 1 74 1.000000
gun_tex
0  -3.292330 -16.625023 -5.239006  0.000000 0.977420 -0.211304  0.392949 0.509914 1 74 1.000000
0  -3.292330 -16.925745 -6.630046  0.000000 0.977420 -0.211304  0.392949 0.509914 1 74 1.000000
0  -3.433071 -16.925745 -6.630046  0.000000 0.977420 -0.211304  0.392949 0.509963 1 74 1.000000
gun_tex
0  -3.904541 -16.600744 -5.245512  1.000000 0.000053 -0.000004  0.392953 0.510128 1 74 1.000000
0  -3.904540 -16.625023 -5.239006  1.000000 0.000053 -0.000004  0.392949 0.510128 1 74 1.000000
0  -3.904540 -16.925745 -6.630046  1.000000 0.000053 -0.000004  0.392949 0.510128 1 74 1.000000
gun_tex
0  -3.598435 -15.581622 -5.518585  0.000000 -0.977420 0.211305  0.393163 0.510021 1 74 1.000000
0  -3.598435 -15.882345 -6.909625  0.000000 -0.977420 0.211305  0.393163 0.510021 1 74 1.000000
0  -3.433072 -15.882345 -6.909625  0.000000 -0.977420 0.211305  0.393163 0.509963 1 74 1.000000
gun_tex
0  -3.904541 -15.581622 -5.518585  1.000000 0.000001 -0.000000  0.393163 0.510128 1 74 1.000000
0  -3.904540 -16.170494 -5.360797  1.000000 0.000001 -0.000000  0.393042 0.510126 1 74 1.000000
0  -3.904540 -16.471218 -6.751837  1.000000 0.000001 -0.000000  0.393042 0.510126 1 74 1.000000
gun_tex
0  -3.763798 -15.882345 -6.909625  0.000000 0.258820 0.965926  0.393163 0.510079 1 74 1.000000
0  -3.904541 -15.882345 -6.909625  0.000000 0.258820 0.965926  0.393163 0.510128 1 74 1.000000
0  -3.904540 -16.471218 -6.751837  0.000000 0.258820 0.965926  0.393042 0.510126 1 74 1.000000
gun_tex
0  -3.433072 -15.882345 -6.909625  0.000000 0.258821 0.965925  0.393163 0.509963 1 74 1.000000
0  -3.598435 -15.882345 -6.909625  0.000000 0.258821 0.965925  0.393163 0.510021 1 74 1.000000
0  -3.598435 -16.483440 -6.748561  0.000000 0.258821 0.965925  0.393039 0.510021 1 74 1.000000
gun_tex
0  -3.292330 -16.471218 -6.751837  0.000000 0.258820 0.965925  0.393042 0.509914 1 74 1.000000
0  -3.292330 -15.882345 -6.909625  0.000000 0.258820 0.965925  0.393163 0.509914 1 74 1.000000
0  -3.433072 -15.882345 -6.909625  0.000000 0.258820 0.965925  0.393163 0.509963 1 74 1.000000
gun_tex
0  -3.598435 -15.882345 -6.909625  0.000000 0.258820 0.965926  0.393163 0.510021 1 74 1.000000
0  -3.763798 -15.882345 -6.909625  0.000000 0.258820 0.965926  0.393163 0.510079 1 74 1.000000
0  -3.763798 -16.483440 -6.748561  0.000000 0.258820 0.965926  0.393039 0.510079 1 74 1.000000
gun_tex
0  -3.598435 -16.691666 -6.692768  0.000000 0.258825 0.965924  0.392997 0.510021 1 74 1.000000
0  -3.763798 -16.691666 -6.692768  0.000000 0.258825 0.965924  0.392997 0.510079 1 74 1.000000
0  -3.763798 -16.888674 -6.639979  0.000000 0.258825 0.965924  0.392956 0.510079 1 74 1.000000
gun_tex
0  -3.382249 -16.692297 -6.692598  -0.000023 0.258826 0.965924  0.392996 0.509927 1 74 1.000000
0  -3.433072 -16.691666 -6.692768  -0.000023 0.258826 0.965924  0.392997 0.509963 1 74 1.000000
0  -3.433071 -16.888674 -6.639979  -0.000023 0.258826 0.965924  0.392956 0.509963 1 74 1.000000
gun_tex
0  -3.433072 -16.691666 -6.692768  0.000000 0.258824 0.965924  0.392997 0.509963 1 74 1.000000
0  -3.598435 -16.691666 -6.692768  0.000000 0.258824 0.965924  0.392997 0.510021 1 74 1.000000
0  -3.598435 -16.888674 -6.639979  0.000000 0.258824 0.965924  0.392956 0.510021 1 74 1.000000
gun_tex
0  -3.763798 -16.888674 -6.639979  0.000013 0.258825 0.965924  0.392956 0.510079 1 74 1.000000
0  -3.763798 -16.691666 -6.692768  0.000013 0.258825 0.965924  0.392997 0.510079 1 74 1.000000
0  -3.814621 -16.692297 -6.692598  0.000013 0.258825 0.965924  0.392996 0.510115 1 74 1.000000
gun_tex
0  -3.598435 -16.483440 -6.748561  0.000000 0.258818 0.965926  0.393039 0.510021 1 74 1.000000
0  -3.763798 -16.483440 -6.748561  0.000000 0.258818 0.965926  0.393039 0.510079 1 74 1.000000
0  -3.763798 -16.691666 -6.692768  0.000000 0.258818 0.965926  0.392997 0.510079 1 74 1.000000
gun_tex
0  -3.382249 -16.692297 -6.692598  -0.000003 0.258821 0.965925  0.392996 0.509927 1 74 1.000000
0  -3.292330 -16.471218 -6.751837  -0.000003 0.258821 0.965925  0.393042 0.509914 1 74 1.000000
0  -3.433072 -16.483440 -6.748561  -0.000003 0.258821 0.965925  0.393039 0.509963 1 74 1.000000
gun_tex
0  -3.433072 -16.483440 -6.748561  0.000000 0.258817 0.965926  0.393039 0.509963 1 74 1.000000
0  -3.598435 -16.483440 -6.748561  0.000000 0.258817 0.965926  0.393039 0.510021 1 74 1.000000
0  -3.598435 -16.691666 -6.692768  0.000000 0.258817 0.965926  0.392997 0.510021 1 74 1.000000
gun_tex
0  -3.763798 -16.483440 -6.748561  0.000000 0.258824 0.965925  0.393039 0.510079 1 74 1.000000
0  -3.904540 -16.471218 -6.751837  0.000000 0.258824 0.965925  0.393042 0.510126 1 74 1.000000
0  -3.814621 -16.692297 -6.692598  0.000000 0.258824 0.965925  0.392996 0.510115 1 74 1.000000
gun_tex
0  -3.763798 -16.925745 -6.630046  -0.000006 0.258824 0.965925  0.392949 0.510079 1 74 1.000000
0  -3.763798 -16.888674 -6.639979  -0.000006 0.258824 0.965925  0.392956 0.510079 1 74 1.000000
0  -3.904541 -16.901468 -6.636551  -0.000006 0.258824 0.965925  0.392953 0.510128 1 74 1.000000
gun_tex
0  -3.433071 -16.888674 -6.639979  0.000000 0.258826 0.965924  0.392956 0.509963 1 74 1.000000
0  -3.598435 -16.888674 -6.639979  0.000000 0.258826 0.965924  0.392956 0.510021 1 74 1.000000
0  -3.598435 -16.925745 -6.630046  0.000000 0.258826 0.965924  0.392949 0.510021 1 74 1.000000
gun_tex
0  -3.292330 -16.901468 -6.636551  0.000006 0.258821 0.965925  0.392953 0.509916 1 74 1.000000
0  -3.433071 -16.888674 -6.639979  0.000006 0.258821 0.965925  0.392956 0.509963 1 74 1.000000
0  -3.433071 -16.925745 -6.630046  0.000006 0.258821 0.965925  0.392949 0.509963 1 74 1.000000
gun_tex
0  -3.598435 -16.888674 -6.639979  0.000000 0.258825 0.965924  0.392956 0.510021 1 74 1.000000
0  -3.763798 -16.888674 -6.639979  0.000000 0.258825 0.965924  0.392956 0.510079 1 74 1.000000
0  -3.763798 -16.925745 -6.630046  0.000000 0.258825 0.965924  0.392949 0.510079 1 74 1.000000
gun_tex
0  -4.075021 -16.461107 -9.066223  0.000000 0.925353 -0.379107  0.392940 0.509444 1 74 1.000000
0  -3.121849 -16.496492 -9.152592  0.000000 0.925353 -0.379107  0.392709 0.509675 1 74 1.000000
0  -4.075021 -16.496492 -9.152593  0.000000 0.925353 -0.379107  0.392709 0.509444 1 74 1.000000
gun_tex
0  -3.121849 -16.496492 -9.152592  1.000000 -0.000001 -0.000000  0.392709 0.509675 1 74 1.000000
0  -3.121849 -17.642282 -8.540691  1.000000 -0.000001 -0.000000  0.392940 0.509905 1 74 1.000000
0  -3.121849 -17.678391 -8.625302  1.000000 -0.000001 -0.000000  0.392709 0.509905 1 74 1.000000
gun_tex
0  -3.121849 -17.642282 -8.540691  0.000000 -0.919753 0.392497  0.392940 0.509905 1 74 1.000000
0  -4.075021 -17.678391 -8.625302  0.000000 -0.919753 0.392497  0.392709 0.510136 1 74 1.000000
0  -3.121849 -17.678391 -8.625302  0.000000 -0.919753 0.392497  0.392709 0.509905 1 74 1.000000
gun_tex
0  -4.075021 -17.642282 -8.540691  -1.000000 0.000004 0.000005  0.392940 0.510136 1 74 1.000000
0  -4.075021 -16.496492 -9.152593  -1.000000 0.000004 0.000005  0.392709 0.510367 1 74 1.000000
0  -4.075021 -17.678391 -8.625302  -1.000000 0.000004 0.000005  0.392709 0.510136 1 74 1.000000
gun_tex
0  -3.121849 -17.678391 -8.625302  0.000003 -0.407430 -0.913236  0.392709 0.509905 1 74 1.000000
0  -4.075021 -16.496492 -9.152593  0.000003 -0.407430 -0.913236  0.392478 0.510136 1 74 1.000000
0  -3.121849 -16.496492 -9.152592  0.000003 -0.407430 -0.913236  0.392478 0.509905 1 74 1.000000
gun_tex
0  -3.121849 -17.642282 -8.540691  0.000000 0.406503 0.913649  0.392940 0.509905 1 74 1.000000
0  -4.075021 -16.461107 -9.066223  0.000000 0.406503 0.913649  0.393171 0.510136 1 74 1.000000
0  -4.075021 -17.642282 -8.540691  0.000000 0.406503 0.913649  0.392940 0.510136 1 74 1.000000
gun_tex
0  -4.075021 -16.461107 -9.066223  0.000000 0.925344 -0.379129  0.392940 0.509444 1 74 1.000000
0  -3.121849 -16.461107 -9.066223  0.000000 0.925344 -0.379129  0.392940 0.509675 1 74 1.000000
0  -3.121849 -16.496492 -9.152592  0.000000 0.925344 -0.379129  0.392709 0.509675 1 74 1.000000
gun_tex
0  -3.121849 -16.496492 -9.152592  1.000000 0.000000 -0.000000  0.392709 0.509675 1 74 1.000000
0  -3.121849 -16.461107 -9.066223  1.000000 0.000000 -0.000000  0.392940 0.509675 1 74 1.000000
0  -3.121849 -17.642282 -8.540691  1.000000 0.000000 -0.000000  0.392940 0.509905 1 74 1.000000
gun_tex
0  -3.121849 -17.642282 -8.540691  0.000000 -0.919760 0.392482  0.392940 0.509905 1 74 1.000000
0  -4.075021 -17.642282 -8.540691  0.000000 -0.919760 0.392482  0.392940 0.510136 1 74 1.000000
0  -4.075021 -17.678391 -8.625302  0.000000 -0.919760 0.392482  0.392709 0.510136 1 74 1.000000
gun_tex
0  -4.075021 -17.642282 -8.540691  -1.000000 -0.000001 0.000000  0.392940 0.510136 1 74 1.000000
0  -4.075021 -16.461107 -9.066223  -1.000000 -0.000001 0.000000  0.392940 0.510367 1 74 1.000000
0  -4.075021 -16.496492 -9.152593  -1.000000 -0.000001 0.000000  0.392709 0.510367 1 74 1.000000
gun_tex
0  -3.121849 -17.678391 -8.625302  0.000000 -0.407430 -0.913236  0.392709 0.509905 1 74 1.000000
0  -4.075021 -17.678391 -8.625302  0.000000 -0.407430 -0.913236  0.392709 0.510136 1 74 1.000000
0  -4.075021 -16.496492 -9.152593  0.000000 -0.407430 -0.913236  0.392478 0.510136 1 74 1.000000
gun_tex
0  -3.121849 -17.642282 -8.540691  0.000000 0.406503 0.913650  0.392940 0.509905 1 74 1.000000
0  -3.121849 -16.461107 -9.066223  0.000000 0.406503 0.913650  0.393171 0.509905 1 74 1.000000
0  -4.075021 -16.461107 -9.066223  0.000000 0.406503 0.913650  0.393171 0.510136 1 74 1.000000
end
