version 1
nodes
0 "ValveBiped.Bip01_Spine4" -1
1 "ValveBiped.Bip01_L_Clavicle" 0
2 "ValveBiped.Bip01_L_UpperArm" 1
3 "ValveBiped.Bip01_L_Forearm" 2
4 "ValveBiped.Bip01_L_Hand" 3
5 "ValveBiped.Bip01_L_Finger4" 4
6 "ValveBiped.Bip01_L_Finger41" 5
7 "ValveBiped.Bip01_L_Finger42" 6
8 "ValveBiped.Bip01_L_Finger3" 4
9 "ValveBiped.Bip01_L_Finger31" 8
10 "ValveBiped.Bip01_L_Finger32" 9
11 "ValveBiped.Bip01_L_Finger2" 4
12 "ValveBiped.Bip01_L_Finger21" 11
13 "ValveBiped.Bip01_L_Finger22" 12
14 "ValveBiped.Bip01_L_Finger1" 4
15 "ValveBiped.Bip01_L_Finger11" 14
16 "ValveBiped.Bip01_L_Finger12" 15
17 "ValveBiped.Bip01_L_Finger0" 4
18 "ValveBiped.Bip01_L_Finger01" 17
19 "ValveBiped.Bip01_L_Finger02" 18
20 "ValveBiped.Bip01_L_Ulna" 3
21 "ValveBiped.Bip01_L_Wrist" 3
22 "rig_l_upperarm" 1
23 "rig_l_forearm" 22
24 "rig_d_l_forearm" 23
25 "rig_d_l_upperarm" 22
26 "ValveBiped.Bip01_R_Clavicle" 0
27 "ValveBiped.Bip01_R_UpperArm" 26
28 "ValveBiped.Bip01_R_Forearm" 27
29 "ValveBiped.Bip01_R_Hand" 28
30 "ValveBiped.Bip01_R_Finger4" 29
31 "ValveBiped.Bip01_R_Finger41" 30
32 "ValveBiped.Bip01_R_Finger42" 31
33 "ValveBiped.Bip01_R_Finger3" 29
34 "ValveBiped.Bip01_R_Finger31" 33
35 "ValveBiped.Bip01_R_Finger32" 34
36 "ValveBiped.Bip01_R_Finger2" 29
37 "ValveBiped.Bip01_R_Finger21" 36
38 "ValveBiped.Bip01_R_Finger22" 37
39 "ValveBiped.Bip01_R_Finger1" 29
40 "ValveBiped.Bip01_R_Finger11" 39
41 "ValveBiped.Bip01_R_Finger12" 40
42 "ValveBiped.Bip01_R_Finger0" 29
43 "ValveBiped.Bip01_R_Finger01" 42
44 "ValveBiped.Bip01_R_Finger02" 43
45 "ValveBiped.Bip01_R_Ulna" 28
46 "ValveBiped.Bip01_R_Wrist" 28
47 "rig_r_upperarm" 26
48 "rig_r_forearm" 47
49 "rig_d_r_forearm" 48
50 "rig_d_r_upperarm" 47
51 "rig_r_hand" -1
52 "rig_d_r_hand" 51
53 "rig_d_r_wrist" 52
54 "rig_l_hand" -1
55 "rig_d_l_hand" 54
56 "rig_d_l_wrist" 54
57 "rig_l_pole" -1
58 "rig_r_pole" -1
59 "rig_l_clavicle" -1
60 "rig_d_l_clavicle" 59
61 "rig_r_clavicle" -1
62 "rig_d_r_clavicle" 61
63 "Camera" -1
64 "body" -1
65 "trigger" 64
66 "bullet1" 64
67 "slide" 64
68 "hammer" 64
69 "sliderelease" 64
70 "barrel" 64
71 "mag" -1
72 "bullet2" 71
73 "bullet3" 71
end
skeleton
time 0
0  0.000006 0.000000 0.000000  -1.570800 -1.391899 -1.570792
1  -10.134789 -9.257131 1.937670  -1.544956 -1.855077 -0.198630
2  6.027517 -0.000323 0.000196  -1.102417 -0.522637 -0.800844
3  11.692114 0.000647 -0.000738  -0.990396 0.000004 -0.839860
4  11.480887 0.000635 -0.000361  2.066853 -0.103504 0.363078
5  3.666625 -0.163903 -1.204800  -0.468169 0.151546 -0.880257
6  1.312589 0.000009 0.000008  -0.000027 0.000044 -0.439740
7  0.729357 0.000054 0.000049  0.000017 0.000021 -0.244317
8  3.942138 0.046333 -0.431542  -0.151817 0.073216 -0.811086
9  1.539112 0.000084 0.000003  -0.000007 0.000021 -0.247842
10  1.196331 0.000145 0.000031  0.000011 0.000019 -0.430770
11  3.883508 -0.047211 0.431351  0.085894 0.021858 -0.587909
12  1.719571 -0.000029 0.000016  0.000015 0.005518 -0.366533
13  1.209180 0.000090 0.000010  0.000004 0.003091 -0.216438
14  3.859673 -0.138417 1.332381  0.354466 -0.042717 -0.531784
15  1.719448 -0.000018 0.000031  0.000028 0.004066 -0.363025
16  1.099675 0.000048 0.000004  0.000003 0.002578 -0.244381
17  0.806008 -0.349036 1.321249  -1.222694 -0.679188 -0.788867
18  1.789819 -0.000002 -0.000019  0.000011 -0.000024 0.228523
19  1.207015 -0.000016 -0.000045  0.000002 -0.000008 0.362856
20  5.740635 0.000386 -0.000701  0.084660 0.000003 0.000063
21  11.481190 0.000300 -0.000727  0.101467 0.017100 0.072554
22  6.027524 -0.000329 0.000202  -0.975663 -2.217705 -1.504468
23  0.000000 11.692100 -0.000006  -0.614340 -0.164694 -0.508954
24  0.000006 0.000008 -0.000000  -0.121332 -0.000031 1.570739
25  0.000001 -0.000012 -0.000001  0.868960 0.000002 1.570712
26  -8.393617 -6.005292 -1.937599  1.473120 1.855075 -0.198639
27  6.027509 -0.000257 -0.000230  0.763168 0.350915 -0.816788
28  11.691992 0.000162 0.000858  0.636696 0.000001 -0.547406
29  11.480382 0.000475 0.000664  -1.666802 0.295139 -0.142130
30  3.859434 -0.132758 1.193063  0.406970 -0.281773 -0.608982
31  1.312557 0.000028 -0.000000  -0.000000 -0.000045 -0.148960
32  0.729347 0.000065 -0.000027  -0.000028 -0.000012 0.046463
33  3.942045 0.050138 0.430999  0.121278 -0.118788 -0.520704
34  1.539099 0.000006 0.000000  0.000007 -0.000009 0.042924
35  1.196301 0.000077 -0.000004  -0.000009 -0.000007 -0.140033
36  3.883410 -0.050472 -0.431086  -0.089865 -0.000691 -0.298015
37  1.719565 -0.000086 -0.000004  -0.002289 -0.007626 -0.075729
38  1.209196 0.000035 0.000011  -0.001277 -0.004274 0.074338
39  3.859586 -0.149082 -1.331322  -0.330196 0.136796 -0.257123
40  1.719411 -0.000098 -0.000037  -0.001916 -0.006299 -0.072275
41  1.099672 0.000023 0.000006  -0.001196 -0.004014 0.046404
42  0.805980 -0.359848 -1.318341  1.079795 0.646453 -0.910428
43  1.789781 -0.000009 -0.000042  0.011966 0.001552 -0.110980
44  1.206997 -0.000005 0.000005  0.005321 0.005317 0.007331
45  5.740572 0.000077 0.000719  -0.049002 -0.000014 0.000028
46  11.481021 0.000167 0.000878  -0.018802 0.038256 -0.034820
47  6.027515 -0.000271 -0.000228  -1.404939 -1.214846 -0.993557
48  -0.000001 11.691975 -0.000008  -0.409884 0.072127 0.343615
49  0.000003 0.000001 0.000001  2.909278 -0.000036 1.570860
50  -0.000007 -0.000015 0.000004  2.272645 -0.000036 1.570861
51  -12.080094 -2.607073 -28.354927  -0.668265 2.441716 1.352336
52  0.000001 -0.000001 0.000001  0.008153 -0.000259 0.000009
53  -0.000002 -0.000001 -0.000001  1.565115 0.043565 -0.106862
54  10.245171 -5.342162 -23.366718  0.255881 0.766400 -1.766008
55  0.000002 0.000000 0.000001  0.000000 -0.000001 -0.000002
56  0.000032 0.000029 0.000001  -1.571901 -0.044449 -0.106509
57  14.062574 -12.874806 -32.482468  1.570796 -0.000000 0.000000
58  -15.417985 2.938832 -23.313402  1.570796 -0.000000 0.000000
59  1.941978 10.912449 -8.327020  1.570796 -0.000000 0.000000
60  -0.004311 0.001229 -0.000372  0.006898 -0.005534 -0.284229
61  -1.937603 7.403047 -7.191051  1.570796 -0.000000 0.000000
62  0.000000 0.000000 0.000000  -0.078727 -3.136056 0.284226
63  0.000000 0.000000 0.000000  1.570796 -0.000000 0.000000
64  -2.762233 -32.432926 -0.819312  1.570796 -0.000000 1.570796
65  0.028725 1.510940 2.466706  0.000000 -0.000000 0.000000
66  0.072467 2.040766 1.219715  0.000000 -0.000000 0.000000
67  -0.000004 2.151127 1.221219  0.000000 -0.000000 0.000000
68  0.028724 1.768277 -0.467551  -1.134464 -0.000000 -0.000000
69  0.073132 1.528050 2.605549  0.087266 -0.000000 0.000000
70  0.028726 2.472564 7.771824  0.000000 -0.000000 0.000000
71  -2.033440 -32.432922 1.131167  1.570796 -0.000000 1.570796
72  -0.066941 -0.212759 0.439182  0.000000 -0.000000 -0.000000
73  0.134960 -0.491842 0.368117  0.000000 -0.000000 -0.000000
time 1
0  0.000006 0.000000 0.000000  -1.570800 -1.391899 -1.570792
1  -10.128283 -9.221152 1.937670  -1.544956 -1.855077 -0.198630
2  6.027518 -0.000322 0.000196  -1.232031 -0.485950 -0.827535
3  11.692114 0.000643 -0.000739  -0.990403 0.000002 -0.949650
4  11.479644 0.000365 -0.000777  2.134501 -0.083703 0.447518
5  3.666627 -0.163905 -1.204802  -0.468169 0.151546 -0.880257
6  1.312592 0.000010 0.000008  -0.000027 0.000044 -0.439740
7  0.729354 0.000053 0.000049  0.000017 0.000021 -0.244317
8  3.942140 0.046331 -0.431542  -0.151817 0.073216 -0.811086
9  1.539109 0.000084 0.000005  -0.000007 0.000021 -0.247842
10  1.196332 0.000150 0.000027  0.000011 0.000019 -0.430770
11  3.883512 -0.047213 0.431348  0.085894 0.021858 -0.587909
12  1.719570 -0.000028 0.000017  0.000015 0.005518 -0.366533
13  1.209179 0.000089 0.000013  0.000004 0.003091 -0.216438
14  3.859675 -0.138418 1.332380  0.354466 -0.042717 -0.531784
15  1.719449 -0.000019 0.000029  0.000028 0.004066 -0.363025
16  1.099676 0.000051 0.000005  0.000003 0.002578 -0.244381
17  0.798330 -0.347342 1.325095  -1.222694 -0.679188 -0.788867
18  1.789818 -0.000000 -0.000018  0.000011 -0.000024 0.228523
19  1.207015 -0.000014 -0.000042  0.000002 -0.000008 0.362856
20  5.740635 0.000390 -0.000699  0.094090 0.000003 0.000063
21  11.480941 0.000248 -0.000809  0.113745 0.026947 0.089609
22  6.027524 -0.000330 0.000202  2.334510 -0.867745 1.415940
23  0.000000 11.692099 -0.000008  -0.687601 -0.207641 -0.566305
24  0.000005 0.000009 0.000000  -0.121333 -0.000031 1.570739
25  -0.000001 -0.000013 -0.000001  0.868960 0.000002 1.570712
26  -8.360491 -6.110139 -1.876315  1.473120 1.855075 -0.198639
27  6.027510 -0.000258 -0.000231  0.963778 0.242881 -0.720308
28  11.691994 0.000162 0.000859  0.620381 0.000009 -0.810390
29  11.480063 0.000309 0.000785  -1.731197 0.293079 -0.086945
30  3.856140 -0.139440 1.190933  0.406971 -0.281773 -0.608982
31  1.312561 0.000027 -0.000002  -0.000000 -0.000045 -0.148960
32  0.729344 0.000062 -0.000029  -0.000028 -0.000012 0.046463
33  3.939356 0.045600 0.428714  0.121278 -0.118788 -0.520704
34  1.539098 0.000006 0.000001  0.000007 -0.000009 0.042924
35  1.196301 0.000079 -0.000003  -0.000009 -0.000007 -0.140032
36  3.883389 -0.053163 -0.430766  -0.089865 -0.000691 -0.298015
37  1.719563 -0.000084 -0.000001  -0.002288 -0.007626 -0.075729
38  1.209195 0.000035 0.000014  -0.001277 -0.004274 0.074338
39  3.859586 -0.149081 -1.331321  -0.330196 0.136796 -0.257123
40  1.719414 -0.000098 -0.000038  -0.001916 -0.006299 -0.072275
41  1.099675 0.000024 0.000005  -0.001196 -0.004014 0.046404
42  0.805981 -0.359847 -1.318337  1.079795 0.646453 -0.910428
43  1.789779 -0.000006 -0.000043  0.011966 0.001552 -0.110980
44  1.206996 -0.000009 0.000005  0.005321 0.005317 0.007331
45  5.740572 0.000080 0.000722  -0.063689 -0.000014 0.000028
46  11.480956 0.000136 0.000902  -0.032241 0.037498 -0.021495
47  6.027515 -0.000272 -0.000229  -0.763263 -1.215541 -1.560031
48  -0.000000 11.691977 -0.000008  -0.594300 0.153852 0.493105
49  0.000003 0.000001 -0.000000  2.892945 -0.000036 1.570860
50  -0.000007 -0.000014 0.000004  2.272645 -0.000036 1.570861
51  -12.692686 -2.715861 -26.844494  -0.586482 2.514588 1.361505
52  -0.000001 0.000001 -0.000003  0.008153 -0.000259 0.000009
53  -0.000001 0.000001 0.000001  1.565115 0.043565 -0.106862
54  10.198836 -5.478943 -22.351908  0.154595 0.713102 -1.865405
55  -0.000002 -0.000000 -0.000003  0.000000 -0.000001 -0.000002
56  0.000029 0.000030 -0.000004  -1.571902 -0.044449 -0.106509
57  14.297110 -13.022662 -32.144703  1.570796 -0.000000 0.000000
58  -15.417985 2.962374 -23.298515  1.570796 -0.000000 0.000000
59  1.941978 10.875887 -8.327020  1.570796 -0.000000 0.000000
60  -0.004311 0.001229 -0.000372  0.006898 -0.005534 -0.284229
61  -1.876319 7.500325 -7.139796  1.570796 -0.000000 0.000000
62  0.000000 0.000000 0.000000  -0.078727 -3.136056 0.284226
63  0.000000 0.000000 0.000000  1.570808 0.000845 0.000004
64  -2.738532 -31.863605 -0.894803  1.570801 0.000004 1.531148
65  0.028727 1.510940 2.466707  -0.000000 0.000000 -0.000000
66  0.072473 2.040766 1.219715  -0.000000 0.000000 -0.000000
67  0.000002 2.151127 1.221220  -0.000000 0.000000 -0.000000
68  0.028725 1.768277 -0.467550  -1.134464 -0.000000 -0.000000
69  0.073137 1.528050 2.605549  0.087266 0.000000 -0.000000
70  0.028726 2.472564 7.771824  -0.000000 0.000000 -0.000000
71  -2.010303 -31.892485 1.055672  1.570801 0.000004 1.531148
72  -0.066938 -0.212760 0.439182  -0.000000 0.000000 -0.000000
73  0.134964 -0.491843 0.368117  -0.000000 0.000000 -0.000000
time 2
0  0.000006 0.000000 0.000000  -1.570800 -1.391899 -1.570792
1  -10.108702 -9.112871 1.937670  -1.544956 -1.855077 -0.198630
2  6.027518 -0.000322 0.000197  -1.406462 -0.473802 -0.864701
3  11.692111 0.000644 -0.000739  -0.990417 -0.000007 -1.181441
4  11.480304 0.000460 -0.000626  2.085319 -0.000801 0.612710
5  3.666629 -0.163902 -1.204801  -0.465964 0.158655 -0.865987
6  1.312589 0.000010 0.000008  -0.000027 0.000044 -0.439740
7  0.729356 0.000055 0.000047  0.000017 0.000021 -0.244317
8  3.942142 0.046332 -0.431541  -0.150653 0.075595 -0.795433
9  1.539110 0.000082 0.000006  -0.000007 0.000021 -0.247842
10  1.196333 0.000148 0.000028  0.000011 0.000019 -0.430770
11  3.883512 -0.047211 0.431350  0.086227 0.020501 -0.572175
12  1.719573 -0.000031 0.000019  0.000015 0.005518 -0.366533
13  1.209179 0.000092 0.000011  0.000004 0.003091 -0.216438
14  3.859677 -0.138417 1.332380  0.353792 -0.048192 -0.516959
15  1.719448 -0.000018 0.000032  0.000028 0.004066 -0.363025
16  1.099676 0.000049 0.000003  0.000003 0.002578 -0.244381
17  0.775213 -0.342234 1.336680  -1.222858 -0.679007 -0.788583
18  1.789820 -0.000005 -0.000018  0.000104 -0.000851 0.219401
19  1.207014 -0.000015 -0.000044  0.000099 -0.000008 0.362566
20  5.740636 0.000387 -0.000701  0.092383 0.000003 0.000064
21  11.481074 0.000268 -0.000781  0.098698 0.047872 0.117817
22  6.027524 -0.000329 0.000202  2.472057 -0.744992 1.198542
23  0.000001 11.692100 -0.000007  -0.836219 -0.310912 -0.678121
24  0.000003 0.000009 0.000001  -0.121333 -0.000030 1.570739
25  0.000001 -0.000011 -0.000001  0.868960 0.000002 1.570712
26  -8.260792 -6.425684 -1.691874  1.473120 1.855075 -0.198639
27  6.027511 -0.000258 -0.000228  1.492549 0.056256 -0.746962
28  11.691991 0.000162 0.000857  0.570965 0.000029 -1.234224
29  11.479624 -0.000061 0.001010  -1.881843 0.143555 0.073098
30  3.846223 -0.159557 1.184515  0.406971 -0.281773 -0.608982
31  1.312559 0.000027 -0.000001  -0.000000 -0.000045 -0.148960
32  0.729345 0.000066 -0.000027  -0.000028 -0.000012 0.046463
33  3.931270 0.031937 0.421839  0.121278 -0.118788 -0.520704
34  1.539096 0.000004 0.000002  0.000007 -0.000009 0.042924
35  1.196300 0.000079 -0.000000  -0.000009 -0.000007 -0.140033
36  3.883327 -0.061266 -0.429810  -0.089865 -0.000691 -0.298015
37  1.719565 -0.000085 -0.000005  -0.002289 -0.007626 -0.075729
38  1.209197 0.000035 0.000011  -0.001277 -0.004274 0.074338
39  3.859587 -0.149082 -1.331318  -0.330196 0.136796 -0.257123
40  1.719413 -0.000098 -0.000038  -0.001916 -0.006299 -0.072275
41  1.099675 0.000022 0.000010  -0.001196 -0.004014 0.046404
42  0.805983 -0.359847 -1.318335  1.079795 0.646453 -0.910428
43  1.789779 -0.000006 -0.000041  0.011966 0.001552 -0.110980
44  1.206996 -0.000005 0.000005  0.005321 0.005317 0.007331
45  5.740572 0.000077 0.000721  -0.064702 -0.000014 0.000028
46  11.480869 0.000061 0.000946  -0.063183 0.003946 0.012118
47  6.027516 -0.000274 -0.000228  -0.079031 -0.778538 -2.262271
48  -0.000001 11.691974 -0.000004  -0.868953 0.336538 0.701795
49  0.000002 -0.000001 -0.000000  2.843505 -0.000036 1.570860
50  -0.000006 -0.000013 0.000005  2.272645 -0.000036 1.570861
51  -14.074742 -3.074635 -22.683725  -0.385241 2.720769 1.356834
52  0.000000 0.000001 -0.000001  0.008153 -0.000259 0.000009
53  0.000000 0.000000 0.000002  1.565115 0.043565 -0.106862
54  9.906859 -5.881890 -19.480747  -0.071698 0.525029 -2.072363
55  -0.000001 0.000001 -0.000001  0.000000 -0.000001 -0.000002
56  0.000030 0.000030 0.000001  -1.571901 -0.044449 -0.106509
57  14.910593 -13.467643 -31.128174  1.570796 -0.000000 0.000000
58  -15.417985 3.033225 -23.253716  1.570796 -0.000000 0.000000
59  1.941978 10.765850 -8.327020  1.570796 -0.000000 0.000000
60  -0.004311 0.001229 -0.000372  0.006898 -0.005534 -0.284229
61  -1.691878 7.793094 -6.985539  1.570796 -0.000000 0.000000
62  0.000000 0.000000 0.000000  -0.078727 -3.136056 0.284226
63  0.000000 0.000000 0.000000  1.570840 0.002861 0.000016
64  -2.674201 -30.312923 -1.101246  1.570830 0.000037 1.420458
65  0.028728 1.510940 2.466707  -0.000000 -0.000000 -0.000000
66  0.072470 2.040766 1.219715  -0.000000 -0.000000 -0.000000
67  0.000002 2.151127 1.221219  -0.000000 -0.000000 -0.000000
68  0.028727 1.768277 -0.467550  -1.134464 -0.000000 -0.000000
69  0.073135 1.528050 2.605549  0.087266 -0.000000 -0.000000
70  0.028726 2.472564 7.771824  -0.000000 -0.000000 -0.000000
71  -1.953554 -30.422012 0.849208  1.570830 0.000037 1.420458
72  -0.066937 -0.212760 0.439183  -0.000000 -0.000000 0.000000
73  0.134963 -0.491843 0.368117  -0.000000 -0.000000 0.000000
time 3
0  0.000006 0.000000 0.000000  -1.570800 -1.391899 -1.570792
1  -10.076865 -8.936813 1.937670  -1.544956 -1.855077 -0.198630
2  6.027518 -0.000323 0.000195  -1.473600 -0.561702 -0.851101
3  11.692107 0.000645 -0.000737  -0.990426 -0.000016 -1.355570
4  11.480132 0.000381 -0.000750  1.833026 0.078684 0.646637
5  3.666627 -0.163903 -1.204802  -0.460405 0.175135 -0.832528
6  1.312590 0.000007 0.000010  -0.000027 0.000044 -0.439740
7  0.729356 0.000054 0.000050  0.000017 0.000021 -0.244317
8  3.942140 0.046330 -0.431542  -0.147790 0.081078 -0.758851
9  1.539111 0.000086 0.000006  -0.000007 0.000021 -0.247842
10  1.196333 0.000147 0.000029  0.000011 0.000018 -0.430770
11  3.883510 -0.047213 0.431351  0.086922 0.017312 -0.535426
12  1.719572 -0.000028 0.000017  0.000015 0.005518 -0.366533
13  1.209179 0.000089 0.000013  0.000004 0.003091 -0.216438
14  3.859676 -0.138419 1.332380  0.351902 -0.060938 -0.482300
15  1.719448 -0.000018 0.000031  0.000028 0.004066 -0.363025
16  1.099675 0.000048 0.000005  0.000003 0.002578 -0.244381
17  0.737626 -0.333935 1.355510  -1.223894 -0.677852 -0.786787
18  1.789821 -0.000006 -0.000017  0.000349 -0.002781 0.198085
19  1.207015 -0.000013 -0.000045  0.000326 -0.000008 0.360728
20  5.740634 0.000389 -0.000697  0.063987 0.000003 0.000064
21  11.481037 0.000254 -0.000804  0.044396 0.050724 0.120120
22  6.027524 -0.000329 0.000201  2.407511 -0.651788 1.220428
23  0.000000 11.692099 -0.000005  -0.943131 -0.398219 -0.753519
24  0.000003 0.000008 0.000000  -0.121332 -0.000031 1.570739
25  0.000000 -0.000011 0.000001  0.868960 0.000002 1.570712
26  -8.098690 -6.938742 -1.391983  1.473120 1.855075 -0.198639
27  6.027511 -0.000257 -0.000226  1.873309 0.117353 -0.831931
28  11.691995 0.000161 0.000857  0.489787 0.000048 -1.487658
29  11.480380 0.000117 0.000870  -1.817989 0.038233 0.273525
30  3.830094 -0.192262 1.174077  0.406970 -0.281773 -0.608982
31  1.312559 0.000028 -0.000000  -0.000000 -0.000045 -0.148960
32  0.729345 0.000064 -0.000028  -0.000028 -0.000012 0.046463
33  3.918116 0.009728 0.410651  0.121278 -0.118788 -0.520704
34  1.539097 0.000004 -0.000003  0.000007 -0.000009 0.042924
35  1.196301 0.000080 -0.000004  -0.000009 -0.000007 -0.140033
36  3.883220 -0.074436 -0.428266  -0.089865 -0.000691 -0.298015
37  1.719564 -0.000084 -0.000003  -0.002289 -0.007626 -0.075729
38  1.209196 0.000035 0.000007  -0.001277 -0.004274 0.074338
39  3.859586 -0.149083 -1.331321  -0.330196 0.136796 -0.257124
40  1.719412 -0.000099 -0.000038  -0.001916 -0.006299 -0.072275
41  1.099674 0.000025 0.000009  -0.001196 -0.004014 0.046404
42  0.805982 -0.359846 -1.318336  1.079795 0.646453 -0.910428
43  1.789780 -0.000010 -0.000042  0.011966 0.001552 -0.110980
44  1.206997 -0.000008 0.000006  0.005321 0.005317 0.007331
45  5.740572 0.000080 0.000720  -0.049280 -0.000014 0.000028
46  11.481020 0.000098 0.000919  -0.048314 -0.020377 0.048372
47  6.027514 -0.000273 -0.000229  -0.127280 -0.396443 -2.353425
48  -0.000001 11.691978 -0.000005  -1.022085 0.469119 0.805666
49  0.000002 0.000000 -0.000001  2.762321 -0.000036 1.570860
50  -0.000007 -0.000014 0.000005  2.272645 -0.000036 1.570861
51  -14.862355 -3.633646 -17.956688  -0.193745 2.951724 1.320122
52  -0.000000 -0.000002 0.000001  0.008153 -0.000259 0.000009
53  -0.000001 0.000000 0.000001  1.565115 0.043565 -0.106862
54  9.154095 -6.406693 -16.024946  -0.252222 0.272908 -2.188857
55  0.000001 -0.000001 0.000001  0.000000 -0.000001 -0.000002
56  0.000031 0.000027 0.000003  -1.571901 -0.044449 -0.106509
57  15.524076 -14.191157 -29.475353  1.570796 -0.000000 0.000000
58  -15.417985 3.148425 -23.180872  1.570796 -0.000000 0.000000
59  1.941978 10.586937 -8.327020  1.570796 -0.000000 0.000000
60  -0.004311 0.001229 -0.000372  0.006898 -0.005534 -0.284229
61  -1.391987 8.269119 -6.734729  1.570796 -0.000000 0.000000
62  0.000000 0.000000 0.000000  -0.078727 -3.136056 0.284226
63  0.000000 0.000000 0.000000  1.570886 0.005267 0.000034
64  -2.579397 -28.016806 -1.408595  1.570901 0.000137 1.249946
65  0.028727 1.510939 2.466706  0.000000 -0.000000 0.000000
66  0.072470 2.040766 1.219715  0.000000 -0.000000 0.000000
67  -0.000001 2.151127 1.221220  0.000000 -0.000000 0.000000
68  0.028725 1.768277 -0.467550  -1.134464 -0.000000 -0.000000
69  0.073136 1.528050 2.605549  0.087266 -0.000000 0.000000
70  0.028726 2.472564 7.771824  0.000000 -0.000000 0.000000
71  -1.887518 -28.246458 0.541807  1.570901 0.000137 1.249946
72  -0.066935 -0.212760 0.439183  -0.000000 -0.000000 0.000000
73  0.134965 -0.491843 0.368118  -0.000000 -0.000000 0.000000
time 4
0  0.000006 0.000000 0.000000  -1.570800 -1.391899 -1.570792
1  -10.035225 -8.706539 1.937670  -1.544956 -1.855077 -0.198630
2  6.027518 -0.000322 0.000193  -1.455124 -0.685707 -0.795749
3  11.692109 0.000642 -0.000740  -0.990429 -0.000020 -1.425741
4  11.479720 0.000255 -0.000938  1.580276 0.001577 0.563618
5  3.666627 -0.163904 -1.204803  -0.452750 0.195210 -0.790955
6  1.312590 0.000012 0.000008  -0.000027 0.000044 -0.439740
7  0.729356 0.000054 0.000050  0.000017 0.000021 -0.244317
8  3.942140 0.046331 -0.431544  -0.143979 0.087698 -0.713647
9  1.539111 0.000081 0.000004  -0.000007 0.000021 -0.247842
10  1.196332 0.000146 0.000029  0.000011 0.000018 -0.430770
11  3.883510 -0.047213 0.431349  0.087617 0.013343 -0.490067
12  1.719573 -0.000028 0.000018  0.000015 0.005518 -0.366533
13  1.209179 0.000091 0.000011  0.000004 0.003091 -0.216438
14  3.859676 -0.138418 1.332379  0.348957 -0.076570 -0.439439
15  1.719448 -0.000017 0.000030  0.000028 0.004066 -0.363025
16  1.099675 0.000050 0.000006  0.000003 0.002578 -0.244381
17  0.688464 -0.323076 1.380140  -1.226417 -0.675019 -0.782402
18  1.789820 -0.000005 -0.000017  0.000709 -0.005156 0.171752
19  1.207016 -0.000013 -0.000043  0.000606 -0.000007 0.356227
20  5.740637 0.000389 -0.000698  0.020282 0.000003 0.000063
21  11.480957 0.000231 -0.000841  0.000155 0.021533 0.102659
22  6.027524 -0.000329 0.000201  2.267198 -0.599975 1.368904
23  -0.000000 11.692099 -0.000009  -0.985295 -0.435436 -0.781756
24  0.000002 0.000009 0.000000  -0.121332 -0.000031 1.570739
25  -0.000000 -0.000012 -0.000000  0.868960 0.000002 1.570712
26  -7.886667 -7.609799 -0.999740  1.473120 1.855075 -0.198639
27  6.027513 -0.000258 -0.000224  1.905908 0.244740 -0.786111
28  11.691993 0.000160 0.000859  0.382488 0.000051 -1.560131
29  11.479815 -0.000300 0.001000  -1.629311 0.074164 0.338928
30  3.809002 -0.235038 1.160423  0.406971 -0.281773 -0.608982
31  1.312559 0.000029 -0.000002  -0.000000 -0.000045 -0.148960
32  0.729344 0.000067 -0.000031  -0.000028 -0.000012 0.046463
33  3.900915 -0.019323 0.396021  0.121278 -0.118788 -0.520704
34  1.539096 0.000005 -0.000000  0.000007 -0.000009 0.042924
35  1.196301 0.000078 -0.000005  -0.000009 -0.000007 -0.140032
36  3.883085 -0.091665 -0.426239  -0.089865 -0.000691 -0.298015
37  1.719565 -0.000084 -0.000005  -0.002289 -0.007626 -0.075729
38  1.209196 0.000034 0.000011  -0.001277 -0.004274 0.074338
39  3.859588 -0.149082 -1.331322  -0.330196 0.136796 -0.257123
40  1.719414 -0.000098 -0.000036  -0.001916 -0.006299 -0.072275
41  1.099674 0.000024 0.000007  -0.001196 -0.004014 0.046404
42  0.805983 -0.359848 -1.318339  1.079795 0.646453 -0.910428
43  1.789781 -0.000008 -0.000041  0.011966 0.001552 -0.110980
44  1.206995 -0.000006 0.000005  0.005321 0.005317 0.007331
45  5.740572 0.000078 0.000721  -0.012789 -0.000014 0.000028
46  11.480907 0.000013 0.000944  -0.011639 -0.008568 0.058737
47  6.027515 -0.000273 -0.000229  -0.261428 -0.355332 -2.264167
48  -0.000000 11.691975 -0.000007  -1.064904 0.509550 0.832333
49  0.000003 -0.000001 0.000002  2.655018 -0.000036 1.570860
50  -0.000007 -0.000014 0.000005  2.272645 -0.000036 1.570861
51  -13.974303 -4.247921 -15.016747  -0.121642 3.091568 1.313502
52  0.000000 0.000001 0.000000  0.008153 -0.000259 0.000009
53  0.000000 0.000001 -0.000000  1.565115 0.043565 -0.106862
54  7.944530 -6.851090 -13.534251  -0.335907 0.125933 -2.157472
55  0.000000 0.000001 -0.000001  0.000000 -0.000001 -0.000002
56  0.000031 0.000030 0.000000  -1.571901 -0.044449 -0.106509
57  15.758612 -15.137479 -27.313545  1.570796 -0.000000 0.000000
58  -15.417985 3.299099 -23.085596  1.570796 -0.000000 0.000000
59  1.941978 10.352928 -8.327020  1.570796 -0.000000 0.000000
60  -0.004311 0.001229 -0.000372  0.006898 -0.005534 -0.284229
61  -0.999744 8.891738 -6.406679  1.570796 -0.000000 0.000000
62  0.000000 0.000000 0.000000  -0.078727 -3.136056 0.284226
63  0.000000 0.000000 0.000000  1.570940 0.007282 0.000058
64  -2.464278 -25.211166 -1.786803  1.571012 0.000355 1.033619
65  0.028730 1.510940 2.466705  0.000000 -0.000000 0.000000
66  0.072474 2.040765 1.219714  0.000000 -0.000000 0.000000
67  0.000002 2.151126 1.221219  0.000000 -0.000000 0.000000
68  0.028728 1.768277 -0.467551  -1.134464 -0.000000 -0.000000
69  0.073138 1.528050 2.605549  0.087266 -0.000000 0.000000
70  0.028730 2.472564 7.771822  0.000000 -0.000000 0.000000
71  -1.837415 -25.583719 0.163518  1.571012 0.000355 1.033619
72  -0.066934 -0.212759 0.439181  -0.000000 -0.000000 -0.000000
73  0.134966 -0.491843 0.368116  -0.000000 -0.000000 -0.000000
time 5
0  0.000006 0.000000 0.000000  -1.570800 -1.391899 -1.570792
1  -9.988052 -8.445676 1.937670  -1.544956 -1.855077 -0.198630
2  6.027518 -0.000324 0.000193  -1.407448 -0.816009 -0.734936
3  11.692108 0.000644 -0.000738  -0.990430 -0.000021 -1.449625
4  11.479595 0.000222 -0.000993  1.384967 -0.211509 0.492234
5  3.666629 -0.163904 -1.204803  -0.444311 0.214744 -0.749502
6  1.312589 0.000010 0.000009  -0.000027 0.000044 -0.439740
7  0.729355 0.000053 0.000048  0.000017 0.000021 -0.244317
8  3.942142 0.046332 -0.431543  -0.139915 0.094071 -0.668875
9  1.539111 0.000084 0.000004  -0.000007 0.000021 -0.247842
10  1.196333 0.000146 0.000027  0.000011 0.000018 -0.430770
11  3.883512 -0.047211 0.431350  0.088127 0.009390 -0.445198
12  1.719573 -0.000030 0.000017  0.000015 0.005518 -0.366533
13  1.209179 0.000090 0.000012  0.000004 0.003091 -0.216438
14  3.859677 -0.138418 1.332379  0.345380 -0.091897 -0.396935
15  1.719447 -0.000019 0.000028  0.000028 0.004066 -0.363025
16  1.099676 0.000049 0.000006  0.000003 0.002578 -0.244381
17  0.632774 -0.310776 1.408043  -1.230816 -0.669997 -0.774708
18  1.789820 -0.000002 -0.000016  0.001127 -0.007498 0.145688
19  1.207015 -0.000013 -0.000044  0.000883 -0.000003 0.348282
20  5.740635 0.000388 -0.000700  -0.030551 0.000003 0.000064
21  11.480927 0.000223 -0.000853  -0.027519 -0.028929 0.082541
22  6.027523 -0.000330 0.000201  2.118539 -0.548719 1.543213
23  -0.000000 11.692099 -0.000006  -0.999548 -0.448346 -0.791081
24  0.000002 0.000008 0.000000  -0.121332 -0.000031 1.570739
25  -0.000001 -0.000012 0.000001  0.868960 0.000002 1.570712
26  -7.646480 -8.369997 -0.555393  1.473120 1.855075 -0.198639
27  6.027513 -0.000258 -0.000224  1.810330 0.380325 -0.726867
28  11.691995 0.000159 0.000858  0.260107 0.000055 -1.582866
29  11.479650 -0.000509 0.000985  -1.459766 0.160213 0.400594
30  3.785105 -0.283499 1.144958  0.406971 -0.281773 -0.608982
31  1.312559 0.000026 -0.000000  -0.000000 -0.000045 -0.148960
32  0.729345 0.000065 -0.000027  -0.000028 -0.000012 0.046463
33  3.881426 -0.052237 0.379450  0.121278 -0.118788 -0.520704
34  1.539096 0.000005 -0.000001  0.000007 -0.000009 0.042924
35  1.196301 0.000080 -0.000003  -0.000009 -0.000007 -0.140032
36  3.882929 -0.111184 -0.423943  -0.089865 -0.000691 -0.298015
37  1.719564 -0.000082 -0.000003  -0.002288 -0.007626 -0.075728
38  1.209195 0.000035 0.000012  -0.001277 -0.004274 0.074338
39  3.859586 -0.149083 -1.331320  -0.330196 0.136796 -0.257123
40  1.719412 -0.000098 -0.000038  -0.001916 -0.006299 -0.072275
41  1.099673 0.000024 0.000004  -0.001196 -0.004014 0.046404
42  0.805983 -0.359849 -1.318337  1.079795 0.646453 -0.910428
43  1.789781 -0.000009 -0.000042  0.011966 0.001552 -0.110980
44  1.206997 -0.000007 0.000006  0.005321 0.005317 0.007331
45  5.740573 0.000081 0.000721  0.029277 -0.000014 0.000028
46  11.480873 -0.000027 0.000941  0.018567 0.014439 0.067137
47  6.027516 -0.000272 -0.000229  -0.420100 -0.427036 -2.114801
48  -0.000001 11.691978 -0.000006  -1.078279 0.522436 0.840414
49  0.000003 -0.000000 -0.000000  2.532638 -0.000036 1.570860
50  -0.000008 -0.000014 0.000006  2.272645 -0.000036 1.570861
51  -11.747808 -4.886877 -12.938608  -0.129716 -3.110489 1.340221
52  -0.000000 -0.000000 -0.000000  0.008153 -0.000259 0.000009
53  0.000000 -0.000001 0.000001  1.565115 0.043565 -0.106862
54  6.423391 -7.157824 -11.732294  -0.381347 0.058111 -2.028638
55  0.000000 0.000000 -0.000000  0.000000 -0.000001 -0.000002
56  0.000030 0.000029 0.000001  -1.571901 -0.044449 -0.106509
57  15.526468 -16.209511 -24.864563  1.570796 -0.000000 0.000000
58  -15.417984 3.469790 -22.977665  1.570796 -0.000000 0.000000
59  1.941978 10.087833 -8.327020  1.570796 -0.000000 0.000000
60  -0.004311 0.001229 -0.000372  0.006898 -0.005534 -0.284229
61  -0.555397 9.597063 -6.035052  1.570796 -0.000000 0.000000
62  0.000000 0.000000 0.000000  -0.078727 -3.136056 0.284226
63  0.000000 0.000000 0.000000  1.570997 0.008128 0.000085
64  -2.339002 -22.131935 -2.205823  1.571133 0.000745 0.791724
65  0.028728 1.510939 2.466706  0.000000 -0.000000 -0.000000
66  0.072473 2.040766 1.219716  0.000000 -0.000000 -0.000000
67  0.000003 2.151127 1.221220  0.000000 -0.000000 -0.000000
68  0.028728 1.768277 -0.467550  -1.134464 -0.000000 -0.000000
69  0.073137 1.528050 2.605550  0.087266 -0.000000 -0.000000
70  0.028728 2.472564 7.771826  0.000000 -0.000000 -0.000000
71  -1.818929 -22.643425 -0.255591  1.571133 0.000745 0.791724
72  -0.066936 -0.212760 0.439184  0.000000 -0.000000 -0.000000
73  0.134966 -0.491843 0.368117  0.000000 -0.000000 -0.000000
time 6
0  0.000006 0.000000 0.000000  -1.570800 -1.391899 -1.570792
1  -9.940881 -8.184812 1.937670  -1.544956 -1.855077 -0.198630
2  6.027519 -0.000325 0.000193  -1.365460 -0.972032 -0.701764
3  11.692108 0.000645 -0.000739  -0.990429 -0.000020 -1.429548
4  11.479702 0.000253 -0.000948  1.230476 -0.472901 0.470250
5  3.666628 -0.163903 -1.204803  -0.436562 0.230863 -0.714438
6  1.312590 0.000011 0.000009  -0.000027 0.000044 -0.439740
7  0.729355 0.000053 0.000049  0.000017 0.000021 -0.244317
8  3.942141 0.046332 -0.431543  -0.136283 0.099276 -0.631254
9  1.539111 0.000084 0.000004  -0.000007 0.000021 -0.247842
10  1.196332 0.000147 0.000027  0.000011 0.000018 -0.430770
11  3.883511 -0.047212 0.431351  0.088418 0.006057 -0.407538
12  1.719572 -0.000028 0.000017  0.000015 0.005518 -0.366533
13  1.209179 0.000090 0.000011  0.000004 0.003091 -0.216438
14  3.859677 -0.138418 1.332379  0.341871 -0.104635 -0.361168
15  1.719447 -0.000018 0.000029  0.000028 0.004066 -0.363025
16  1.099675 0.000048 0.000006  0.000003 0.002578 -0.244382
17  0.577079 -0.298477 1.435946  -1.237302 -0.662401 -0.763257
18  1.789818 -0.000003 -0.000016  0.001524 -0.009452 0.123830
19  1.207017 -0.000012 -0.000044  0.001116 0.000004 0.336343
20  5.740637 0.000388 -0.000699  -0.081010 0.000003 0.000063
21  11.480948 0.000229 -0.000841  -0.044186 -0.085735 0.064608
22  6.027524 -0.000330 0.000202  1.968693 -0.460137 1.681818
23  -0.000001 11.692101 -0.000006  -0.987570 -0.437486 -0.783252
24  0.000002 0.000007 0.000001  -0.121332 -0.000031 1.570739
25  -0.000000 -0.000011 0.000001  0.868960 0.000002 1.570712
26  -7.406291 -9.130193 -0.111046  1.473120 1.855075 -0.198639
27  6.027512 -0.000258 -0.000223  1.725676 0.594810 -0.678764
28  11.691992 0.000160 0.000857  0.137726 0.000054 -1.566667
29  11.479766 -0.000555 0.000908  -1.317541 0.235221 0.536707
30  3.761211 -0.331955 1.129491  0.406970 -0.281773 -0.608981
31  1.312558 0.000028 -0.000000  -0.000000 -0.000045 -0.148960
32  0.729346 0.000064 -0.000029  -0.000028 -0.000012 0.046463
33  3.861939 -0.085145 0.362877  0.121278 -0.118788 -0.520704
34  1.539096 0.000005 -0.000001  0.000007 -0.000009 0.042924
35  1.196302 0.000079 -0.000004  -0.000009 -0.000007 -0.140032
36  3.882774 -0.130699 -0.421649  -0.089865 -0.000691 -0.298015
37  1.719566 -0.000083 -0.000004  -0.002289 -0.007626 -0.075729
38  1.209195 0.000035 0.000011  -0.001277 -0.004274 0.074338
39  3.859586 -0.149082 -1.331322  -0.330196 0.136796 -0.257123
40  1.719412 -0.000097 -0.000036  -0.001916 -0.006299 -0.072275
41  1.099672 0.000022 0.000007  -0.001196 -0.004014 0.046404
42  0.805983 -0.359847 -1.318338  1.079795 0.646453 -0.910428
43  1.789780 -0.000008 -0.000043  0.011966 0.001552 -0.110980
44  1.206995 -0.000006 0.000005  0.005321 0.005317 0.007331
45  5.740572 0.000081 0.000722  0.076039 -0.000014 0.000028
46  11.480897 -0.000036 0.000926  0.041437 0.036944 0.088840
47  6.027515 -0.000272 -0.000230  -0.669923 -0.445393 -1.920781
48  -0.000002 11.691977 -0.000009  -1.068750 0.513245 0.834673
49  0.000003 -0.000000 0.000000  2.410258 -0.000036 1.570860
50  -0.000008 -0.000014 0.000003  2.272645 -0.000036 1.570861
51  -8.836187 -5.616321 -10.286079  -0.150764 -3.039078 1.363089
52  -0.000001 0.000000 -0.000000  0.008153 -0.000259 0.000009
53  0.000000 0.000001 -0.000000  1.565115 0.043565 -0.106862
54  4.732103 -7.452895 -9.974661  -0.434592 0.003386 -1.856847
55  0.000000 0.000001 -0.000000  0.000000 -0.000001 -0.000002
56  0.000030 0.000030 0.000000  -1.571902 -0.044449 -0.106509
57  14.850840 -17.281540 -22.415585  1.570796 -0.000000 0.000000
58  -15.417984 3.640481 -22.869732  1.570796 -0.000000 0.000000
59  1.941978 9.822739 -8.327020  1.570796 -0.000000 0.000000
60  -0.004311 0.001229 -0.000372  0.006898 -0.005534 -0.284229
61  -0.111050 10.302387 -5.663425  1.570796 -0.000000 0.000000
62  0.000000 0.000000 0.000000  -0.078727 -3.136056 0.284226
63  0.000000 0.000000 0.000000  1.571052 0.008041 0.000116
64  -2.213726 -19.015030 -2.635610  1.571215 0.001338 0.549786
65  0.028727 1.510940 2.466706  0.000000 -0.000000 0.000000
66  0.072471 2.040766 1.219717  0.000000 -0.000000 0.000000
67  -0.000000 2.151126 1.221220  0.000000 -0.000000 0.000000
68  0.028726 1.768277 -0.467549  -1.134464 -0.000000 -0.000000
69  0.073135 1.528051 2.605551  0.087266 -0.000000 0.000000
70  0.028726 2.472565 7.771825  0.000000 -0.000000 0.000000
71  -1.830274 -19.635757 -0.685439  1.571215 0.001338 0.549786
72  -0.066937 -0.212759 0.439180  0.000000 -0.000000 0.000000
73  0.134964 -0.491843 0.368116  0.000000 -0.000000 0.000000
time 7
0  0.000006 0.000000 0.000000  -1.570800 -1.391899 -1.570792
1  -9.899240 -7.954538 1.937669  -1.544956 -1.855077 -0.198630
2  6.027521 -0.000326 0.000191  -1.315461 -1.136058 -0.710822
3  11.692109 0.000645 -0.000737  -0.990425 -0.000015 -1.342825
4  11.480218 0.000406 -0.000717  1.123757 -0.655907 0.484135
5  3.666628 -0.163903 -1.204802  -0.430979 0.241605 -0.690587
6  1.312588 0.000007 0.000009  -0.000027 0.000044 -0.439740
7  0.729356 0.000055 0.000049  0.000017 0.000021 -0.244317
8  3.942141 0.046332 -0.431542  -0.133717 0.102715 -0.605801
9  1.539111 0.000084 0.000004  -0.000007 0.000021 -0.247842
10  1.196332 0.000146 0.000028  0.000011 0.000018 -0.430770
11  3.883511 -0.047211 0.431351  0.088543 0.003798 -0.382083
12  1.719573 -0.000028 0.000017  0.000015 0.005518 -0.366533
13  1.209180 0.000090 0.000013  0.000004 0.003091 -0.216438
14  3.859677 -0.138417 1.332380  0.339237 -0.113171 -0.336937
15  1.719448 -0.000018 0.000028  0.000028 0.004066 -0.363025
16  1.099675 0.000049 0.000005  0.000003 0.002578 -0.244381
17  0.527918 -0.287618 1.460578  -1.245926 -0.651930 -0.747819
18  1.789819 -0.000003 -0.000018  0.001815 -0.010761 0.109135
19  1.207017 -0.000012 -0.000044  0.001272 0.000015 0.320029
20  5.740636 0.000389 -0.000699  -0.115496 0.000003 0.000064
21  11.481050 0.000260 -0.000795  -0.052582 -0.124996 0.052906
22  6.027525 -0.000330 0.000201  1.832092 -0.351614 1.770464
23  -0.000001 11.692099 -0.000007  -0.935421 -0.391578 -0.748257
24  0.000003 0.000009 -0.000000  -0.121332 -0.000031 1.570739
25  -0.000001 -0.000011 0.000000  0.868960 0.000002 1.570712
26  -7.194269 -9.801250 0.281197  1.473120 1.855075 -0.198639
27  6.027514 -0.000261 -0.000216  1.667095 0.857819 -0.653834
28  11.691992 0.000161 0.000858  0.030422 0.000044 -1.448814
29  11.480707 -0.000077 0.000823  -1.224495 0.264046 0.652858
30  3.740118 -0.374732 1.115839  0.406971 -0.281773 -0.608982
31  1.312560 0.000030 -0.000001  -0.000000 -0.000045 -0.148960
32  0.729346 0.000065 -0.000029  -0.000028 -0.000012 0.046463
33  3.844737 -0.114198 0.348249  0.121278 -0.118788 -0.520704
34  1.539094 0.000003 -0.000001  0.000007 -0.000009 0.042924
35  1.196303 0.000080 -0.000004  -0.000009 -0.000007 -0.140032
36  3.882637 -0.147928 -0.419622  -0.089865 -0.000691 -0.298015
37  1.719564 -0.000084 -0.000005  -0.002288 -0.007626 -0.075728
38  1.209193 0.000034 0.000011  -0.001277 -0.004274 0.074338
39  3.859585 -0.149082 -1.331321  -0.330196 0.136796 -0.257123
40  1.719412 -0.000096 -0.000036  -0.001916 -0.006299 -0.072275
41  1.099673 0.000023 0.000007  -0.001196 -0.004014 0.046404
42  0.805983 -0.359848 -1.318338  1.079795 0.646453 -0.910428
43  1.789780 -0.000006 -0.000042  0.011966 0.001552 -0.110980
44  1.206996 -0.000007 0.000005  0.005321 0.005317 0.007331
45  5.740572 0.000079 0.000721  0.115078 -0.000014 0.000028
46  11.481085 0.000058 0.000909  0.055720 0.049824 0.107807
47  6.027515 -0.000273 -0.000227  -0.952772 -0.381556 -1.742257
48  -0.000001 11.691977 -0.000006  -0.998998 0.447876 0.790805
49  0.000002 -0.000001 0.000000  2.302956 -0.000036 1.570860
50  -0.000007 -0.000013 0.000005  2.272645 -0.000036 1.570861
51  -5.901146 -6.447157 -7.646895  -0.179521 -2.985766 1.377216
52  0.000000 0.000000 0.000000  0.008153 -0.000259 0.000009
53  -0.000000 -0.000000 0.000000  1.565115 0.043565 -0.106862
54  3.159256 -7.934329 -8.459302  -0.479476 -0.025172 -1.725535
55  0.000001 0.000000 -0.000000  0.000000 -0.000001 -0.000002
56  0.000031 0.000029 0.000001  -1.571901 -0.044449 -0.106509
57  13.879580 -18.227863 -20.253773  1.570796 -0.000000 0.000000
58  -15.417984 3.791156 -22.774456  1.570796 -0.000000 0.000000
59  1.941978 9.588730 -8.327020  1.570796 -0.000000 0.000000
60  -0.004311 0.001229 -0.000372  0.006898 -0.005534 -0.284229
61  0.281193 10.925006 -5.335376  1.570796 -0.000000 0.000000
62  0.000000 0.000000 0.000000  -0.078727 -3.136056 0.284226
63  0.000000 0.000000 0.000000  1.571097 0.007634 0.000148
64  -2.098607 -16.096371 -3.046116  1.571220 0.002144 0.333348
65  0.028727 1.510939 2.466705  0.000000 -0.000000 0.000000
66  0.072471 2.040765 1.219715  0.000000 -0.000000 0.000000
67  0.000000 2.151126 1.221219  0.000000 -0.000000 0.000000
68  0.028727 1.768276 -0.467550  -1.134464 -0.000000 -0.000000
69  0.073136 1.528050 2.605549  0.087266 -0.000000 0.000000
70  0.028727 2.472564 7.771821  0.000000 -0.000000 0.000000
71  -1.855918 -16.784458 -1.095951  1.571220 0.002144 0.333348
72  -0.066937 -0.212759 0.439184  0.000000 -0.000000 0.000000
73  0.134964 -0.491842 0.368116  0.000000 -0.000000 0.000000
time 8
0  0.000006 0.000000 0.000000  -1.570800 -1.391899 -1.570792
1  -9.867403 -7.778480 1.937669  -1.544956 -1.855077 -0.198630
2  6.027521 -0.000327 0.000191  -1.182157 -1.313058 -0.824274
3  11.692112 0.000646 -0.000738  -0.990418 -0.000009 -1.209674
4  11.480157 0.000423 -0.000690  1.049342 -0.762178 0.522621
5  3.666627 -0.163903 -1.204802  -0.428829 0.245572 -0.681672
6  1.312590 0.000012 0.000008  -0.000027 0.000044 -0.439740
7  0.729354 0.000055 0.000049  0.000017 0.000021 -0.244317
8  3.942140 0.046331 -0.431543  -0.132738 0.103980 -0.596316
9  1.539110 0.000082 0.000004  -0.000007 0.000021 -0.247842
10  1.196332 0.000145 0.000028  0.000011 0.000019 -0.430770
11  3.883510 -0.047212 0.431351  0.088575 0.002956 -0.372601
12  1.719573 -0.000028 0.000017  0.000015 0.005518 -0.366533
13  1.209179 0.000090 0.000013  0.000004 0.003091 -0.216438
14  3.859677 -0.138418 1.332380  0.338202 -0.116334 -0.327899
15  1.719448 -0.000018 0.000028  0.000028 0.004066 -0.363025
16  1.099676 0.000048 0.000005  0.000003 0.002578 -0.244381
17  0.490332 -0.279318 1.479409  -1.256604 -0.638330 -0.728337
18  1.789820 -0.000004 -0.000017  0.001924 -0.011232 0.103835
19  1.207017 -0.000012 -0.000044  0.001328 0.000027 0.299078
20  5.740636 0.000389 -0.000700  -0.135966 0.000003 0.000063
21  11.481036 0.000262 -0.000790  -0.056564 -0.148542 0.048831
22  6.027524 -0.000330 0.000202  1.692004 -0.228106 1.823094
23  0.000000 11.692100 -0.000005  -0.853803 -0.324544 -0.690855
24  0.000002 0.000009 -0.000000  -0.121332 -0.000031 1.570739
25  0.000000 -0.000013 0.000000  0.868960 0.000002 1.570712
26  -7.032166 -10.314308 0.581087  1.473120 1.855075 -0.198639
27  6.027515 -0.000262 -0.000216  1.636309 1.085145 -0.645671
28  11.691992 0.000160 0.000858  -0.050769 0.000031 -1.248555
29  11.480754 -0.000090 0.000818  -1.172437 0.264112 0.672872
30  3.723989 -0.407437 1.105401  0.406971 -0.281773 -0.608982
31  1.312560 0.000031 0.000000  -0.000000 -0.000045 -0.148960
32  0.729345 0.000066 -0.000028  -0.000028 -0.000012 0.046463
33  3.831583 -0.136409 0.337064  0.121278 -0.118788 -0.520704
34  1.539096 0.000003 -0.000001  0.000007 -0.000009 0.042924
35  1.196302 0.000080 -0.000003  -0.000009 -0.000007 -0.140033
36  3.882531 -0.161099 -0.418074  -0.089865 -0.000691 -0.298015
37  1.719566 -0.000084 -0.000005  -0.002288 -0.007626 -0.075729
38  1.209194 0.000034 0.000011  -0.001277 -0.004274 0.074338
39  3.859585 -0.149081 -1.331322  -0.330196 0.136796 -0.257123
40  1.719411 -0.000096 -0.000037  -0.001916 -0.006299 -0.072275
41  1.099673 0.000023 0.000006  -0.001196 -0.004014 0.046404
42  0.805983 -0.359847 -1.318339  1.079795 0.646453 -0.910428
43  1.789779 -0.000008 -0.000042  0.011966 0.001552 -0.110980
44  1.206995 -0.000007 0.000005  0.005321 0.005317 0.007331
45  5.740572 0.000080 0.000720  0.130167 -0.000014 0.000028
46  11.481095 0.000056 0.000908  0.065212 0.053363 0.109815
47  6.027515 -0.000272 -0.000227  -1.169369 -0.281133 -1.637709
48  -0.000002 11.691977 -0.000009  -0.877794 0.343629 0.708099
49  0.000003 0.000000 0.000001  2.221771 -0.000036 1.570860
50  -0.000007 -0.000012 0.000004  2.272645 -0.000036 1.570861
51  -3.794710 -7.354702 -5.764845  -0.207009 -2.952888 1.378967
52  0.000001 0.000000 0.000000  0.008153 -0.000259 0.000009
53  0.000001 0.000000 -0.000001  1.565115 0.043565 -0.106862
54  1.455549 -8.355285 -6.913814  -0.501639 -0.033147 -1.650125
55  -0.000000 0.000000 -0.000000  0.000000 -0.000001 -0.000002
56  0.000030 0.000029 0.000001  -1.571901 -0.044449 -0.106509
57  12.908321 -18.951378 -18.600954  1.570796 -0.000000 0.000000
58  -15.417984 3.906355 -22.701614  1.570796 -0.000000 0.000000
59  1.941978 9.409817 -8.327020  1.570796 -0.000000 0.000000
60  -0.004311 0.001229 -0.000372  0.006898 -0.005534 -0.284229
61  0.581084 11.401031 -5.084565  1.570796 -0.000000 0.000000
62  0.000000 0.000000 0.000000  -0.078727 -3.136056 0.284226
63  0.000000 0.000000 0.000000  1.571129 0.006685 0.000181
64  -2.003803 -13.611883 -3.407295  1.571145 0.003166 0.162706
65  0.028727 1.510940 2.466707  -0.000000 -0.000000 0.000000
66  0.072472 2.040766 1.219714  -0.000000 -0.000000 0.000000
67  0.000001 2.151127 1.221219  -0.000000 -0.000000 0.000000
68  0.028727 1.768277 -0.467551  -1.134464 -0.000000 -0.000000
69  0.073137 1.528050 2.605547  0.087266 -0.000000 0.000000
70  0.028727 2.472564 7.771826  -0.000000 -0.000000 0.000000
71  -1.879543 -14.330723 -1.457080  1.571145 0.003166 0.162706
72  -0.066936 -0.212759 0.439183  0.000000 -0.000000 0.000000
73  0.134965 -0.491842 0.368118  0.000000 -0.000000 0.000000
time 9
0  0.000006 0.000000 0.000000  -1.570800 -1.391899 -1.570792
1  -9.847823 -7.670199 1.937669  -1.544956 -1.855077 -0.198630
2  6.027523 -0.000329 0.000191  -0.714823 -1.444471 -1.263724
3  11.692113 0.000644 -0.000738  -0.990404 0.000001 -0.961672
4  11.480829 0.000618 -0.000396  1.057142 -0.714920 0.444602
5  3.666627 -0.163903 -1.204802  -0.493867 0.171808 -1.120645
6  1.312590 0.000010 0.000008  -0.002445 0.011815 -0.359614
7  0.729355 0.000054 0.000049  -0.001897 0.000009 -0.292700
8  3.942141 0.046331 -0.431543  -0.166254 0.125993 -1.022485
9  1.539110 0.000084 0.000004  -0.000256 0.003711 -0.265519
10  1.196333 0.000146 0.000029  -0.000360 0.000038 -0.585482
11  3.883510 -0.047212 0.431351  0.045424 0.115253 -0.811081
12  1.719573 -0.000030 0.000017  -0.000325 0.004402 -0.385439
13  1.209179 0.000092 0.000012  -0.000463 0.003022 -0.420146
14  3.859677 -0.138418 1.332380  0.124548 0.156830 -0.729246
15  1.719448 -0.000019 0.000029  0.000546 0.003523 -0.297665
16  1.099674 0.000049 0.000006  0.000017 0.002515 -0.432980
17  0.467214 -0.274212 1.490990  -1.130047 -0.566720 -0.592662
18  1.789819 -0.000004 -0.000017  -0.000229 -0.005635 0.177644
19  1.207017 -0.000012 -0.000044  -0.000595 -0.001865 0.145432
20  5.740635 0.000389 -0.000700  -0.125107 0.000003 0.000063
21  11.481171 0.000303 -0.000731  -0.062847 -0.137271 0.037585
22  6.027524 -0.000330 0.000202  1.572448 -0.126398 1.864780
23  0.000002 11.692101 -0.000008  -0.695508 -0.212591 -0.572418
24  0.000002 0.000009 0.000000  -0.121332 -0.000030 1.570739
25  0.000002 -0.000011 -0.000000  0.868960 0.000002 1.570712
26  -6.932469 -10.629853 0.765528  1.473120 1.855075 -0.198639
27  6.027517 -0.000263 -0.000216  1.639012 1.228188 -0.630482
28  11.691991 0.000163 0.000858  -0.100219 0.000018 -1.036307
29  11.480368 -0.000255 0.000801  -1.144089 0.265092 0.610118
30  3.714071 -0.427551 1.098981  0.406971 -0.281773 -0.608981
31  1.312561 0.000030 0.000001  -0.000000 -0.000045 -0.148960
32  0.729346 0.000066 -0.000028  -0.000028 -0.000012 0.046463
33  3.823493 -0.150070 0.330185  0.121278 -0.118788 -0.520704
34  1.539096 0.000005 -0.000002  0.000007 -0.000009 0.042924
35  1.196304 0.000080 -0.000002  -0.000009 -0.000007 -0.140032
36  3.882467 -0.169201 -0.417121  -0.089865 -0.000691 -0.298015
37  1.719566 -0.000083 -0.000004  -0.002288 -0.007626 -0.075729
38  1.209194 0.000034 0.000012  -0.001277 -0.004274 0.074338
39  3.859585 -0.149082 -1.331322  -0.330196 0.136796 -0.257123
40  1.719412 -0.000097 -0.000036  -0.001916 -0.006299 -0.072275
41  1.099672 0.000023 0.000006  -0.001196 -0.004014 0.046404
42  0.518242 -0.582457 -1.202616  1.055729 0.552346 -0.757160
43  1.789780 -0.000007 -0.000042  -0.031525 -0.037619 0.069875
44  1.206995 -0.000008 0.000005  0.038938 0.015623 0.086767
45  5.740573 0.000079 0.000720  0.124874 -0.000014 0.000028
46  11.481018 0.000023 0.000905  0.071686 0.053272 0.096318
47  6.027516 -0.000273 -0.000228  -1.290937 -0.200302 -1.595960
48  -0.000002 11.691975 -0.000008  -0.744042 0.244321 0.609625
49  0.000002 0.000000 -0.000000  2.172331 -0.000036 1.570860
50  -0.000008 -0.000013 0.000003  2.272645 -0.000036 1.570861
51  -2.938168 -8.296681 -4.997611  -0.227195 -2.935768 1.368923
52  0.000000 -0.000000 -0.000001  0.008153 -0.000259 0.000009
53  -0.000000 -0.000000 -0.000000  1.565115 0.043565 -0.106862
54  0.389372 -9.591825 -6.454940  -0.503879 -0.028770 -1.629696
55  0.000000 -0.000000 -0.000000  0.000000 -0.000001 -0.000002
56  0.000031 0.000028 0.000001  -1.571902 -0.044449 -0.106509
57  12.232693 -19.396362 -17.584425  1.570796 -0.000000 0.000000
58  -15.417984 3.977206 -22.656813  1.570796 -0.000000 0.000000
59  1.941978 9.299780 -8.327020  1.570796 -0.000000 0.000000
60  -0.004311 0.001229 -0.000372  0.006898 -0.005534 -0.284229
61  0.765525 11.693800 -4.930309  1.570796 -0.000000 0.000000
62  0.000000 0.000000 0.000000  -0.078727 -3.136056 0.284226
63  0.000000 0.000000 0.000000  1.571141 0.004973 0.000213
64  -1.939472 -11.797487 -3.689101  1.571038 0.004440 0.051916
65  0.028727 1.510940 2.466705  -0.000000 0.000000 -0.000000
66  0.072472 2.040766 1.219715  -0.000000 0.000000 -0.000000
67  0.000001 2.151127 1.221218  -0.000000 0.000000 -0.000000
68  0.028727 1.768276 -0.467552  -1.134464 -0.000000 -0.000000
69  0.073137 1.528050 2.605549  0.087266 0.000000 -0.000000
70  0.028728 2.472564 7.771822  -0.000000 0.000000 -0.000000
71  -1.892981 -12.525319 -1.738817  1.571038 0.004440 0.051916
72  -0.066937 -0.212759 0.439183  -0.000000 0.000000 -0.000000
73  0.134965 -0.491842 0.368118  -0.000000 0.000000 -0.000000
time 10
0  0.000006 0.000000 0.000000  -1.570800 -1.391899 -1.570792
1  -9.841317 -7.634221 1.937669  -1.544956 -1.855077 -0.198630
2  6.027525 -0.000328 0.000190  0.050764 -1.486262 -2.057623
3  11.692114 0.000646 -0.000739  -0.990394 0.000005 -0.817994
4  11.480148 0.000505 -0.000568  1.010758 -0.345249 0.458698
5  3.666627 -0.163904 -1.204802  -0.520786 0.078133 -1.549187
6  1.312589 0.000010 0.000007  -0.003914 0.023741 -0.279500
7  0.729353 0.000054 0.000049  -0.003808 -0.000096 -0.341082
8  3.942140 0.046331 -0.431543  -0.205965 0.132196 -1.449654
9  1.539110 0.000083 0.000004  -0.000570 0.007396 -0.283198
10  1.196333 0.000146 0.000028  -0.000731 0.000001 -0.740195
11  3.883510 -0.047212 0.431351  -0.042690 0.198097 -1.260493
12  1.719573 -0.000029 0.000017  -0.000644 0.003280 -0.404344
13  1.209179 0.000090 0.000012  -0.000905 0.002861 -0.623853
14  3.859676 -0.138419 1.332379  -0.192829 0.314078 -1.200823
15  1.719448 -0.000017 0.000029  0.001027 0.002946 -0.232305
16  1.099675 0.000049 0.000005  0.000043 0.002457 -0.621579
17  0.459534 -0.272516 1.494840  -0.993276 -0.518349 -0.465024
18  1.789820 -0.000004 -0.000016  -0.001964 0.000105 0.251441
19  1.207017 -0.000012 -0.000044  -0.002235 -0.004014 0.005434
20  5.740636 0.000389 -0.000699  -0.121751 0.000003 0.000063
21  11.481037 0.000280 -0.000767  -0.092952 -0.069763 0.057331
22  6.027524 -0.000329 0.000201  1.512943 -0.061752 1.838356
23  -0.000001 11.692099 -0.000008  -0.599520 -0.156643 -0.497208
24  0.000002 0.000008 -0.000000  -0.121332 -0.000031 1.570739
25  -0.000001 -0.000011 -0.000000  0.868960 0.000002 1.570712
26  -6.899342 -10.734701 0.826813  1.473120 1.855075 -0.198639
27  6.027517 -0.000263 -0.000216  1.652551 1.277846 -0.614990
28  11.691992 0.000160 0.000857  -0.116555 0.000016 -0.983920
29  11.480607 -0.000162 0.000809  -1.081148 0.304298 0.713478
30  3.710775 -0.434235 1.096849  0.700725 -0.025047 -1.894448
31  1.312560 0.000031 -0.000001  -0.004018 -0.052670 -0.157648
32  0.729347 0.000066 -0.000027  -0.098936 -0.154266 -1.256620
33  3.820807 -0.154609 0.327899  0.552081 -0.162420 -1.564601
34  1.539094 0.000003 -0.000002  0.035301 -0.048177 -0.684301
35  1.196302 0.000079 -0.000003  -0.018845 -0.012643 -1.421973
36  3.882446 -0.171893 -0.416804  0.578708 -0.286096 -1.376619
37  1.719565 -0.000084 -0.000005  -0.010330 -0.076021 -1.015000
38  1.209193 0.000033 0.000011  0.003432 -0.002384 -1.222575
39  3.859585 -0.149082 -1.331322  0.084755 -0.185240 -0.547088
40  1.719412 -0.000097 -0.000037  0.034383 0.016392 -0.911516
41  1.099672 0.000021 0.000006  -0.006996 -0.008413 -0.743478
42  0.230504 -0.805067 -1.086893  1.017215 0.462509 -0.609471
43  1.789779 -0.000008 -0.000042  -0.081444 -0.068283 0.252588
44  1.206995 -0.000007 0.000005  0.073274 0.023224 0.166518
45  5.740572 0.000079 0.000721  0.141946 -0.000014 0.000028
46  11.481066 0.000041 0.000907  0.078699 0.067649 0.112473
47  6.027515 -0.000273 -0.000229  -1.330117 -0.168672 -1.586145
48  -0.000001 11.691976 -0.000008  -0.710030 0.221842 0.583655
49  0.000003 0.000000 -0.000000  2.155999 -0.000036 1.570860
50  -0.000007 -0.000013 0.000004  2.272645 -0.000036 1.570861
51  -2.584492 -8.424259 -4.513675  -0.189739 -2.982520 1.268363
52  -0.000000 0.000000 -0.000000  0.008153 -0.000259 0.000009
53  0.000000 0.000000 0.000000  1.565115 0.043565 -0.106862
54  0.136072 -10.172255 -5.772405  -0.564042 0.008728 -1.949361
55  -0.000001 0.000000 -0.000000  0.000000 -0.000001 -0.000002
56  0.000030 0.000029 0.000001  -1.571901 -0.044449 -0.106509
57  12.000549 -19.544212 -17.246658  1.570796 -0.000000 0.000000
58  -15.417984 4.000748 -22.641926  1.570796 -0.000000 0.000000
59  1.941978 9.263218 -8.327020  1.570796 -0.000000 0.000000
60  -0.004311 0.001229 -0.000372  0.006898 -0.005534 -0.284229
61  0.826810 11.791080 -4.879054  1.570796 -0.000000 0.000000
62  0.000000 0.000000 0.000000  -0.078727 -3.136056 0.284226
63  0.000000 0.000000 0.000000  1.570024 0.002276 0.000241
64  -1.915771 -10.889102 -3.861487  1.571005 0.006047 0.012230
65  0.028728 1.510940 2.466706  -0.000000 -0.000000 0.000000
66  0.072472 2.040766 1.219716  -0.000000 -0.000000 0.000000
67  0.000001 2.151127 1.221221  -0.000000 -0.000000 0.000000
68  0.028727 1.768277 -0.467550  -1.134464 -0.000000 -0.000000
69  0.073137 1.528051 2.605550  0.087266 -0.000000 0.000000
70  0.028728 2.472565 7.771824  -0.000000 -0.000000 0.000000
71  -1.895060 -11.618104 -1.911197  1.571005 0.006047 0.012230
72  -0.066937 -0.212760 0.439182  0.000000 -0.000000 0.000000
73  0.134965 -0.491843 0.368116  0.000000 -0.000000 0.000000
time 11
0  0.000006 0.000000 0.000000  -1.570800 -1.391899 -1.570792
1  -9.841317 -7.634221 1.937669  -1.544956 -1.855077 -0.198630
2  6.027525 -0.000329 0.000190  -0.152662 -1.482814 -1.844328
3  11.692111 0.000644 -0.000739  -0.990397 0.000004 -0.861582
4  11.480777 0.000616 -0.000396  0.963791 -0.356045 0.472949
5  3.666628 -0.163904 -1.204801  -0.520786 0.078133 -1.549187
6  1.312590 0.000010 0.000007  -0.003914 0.023741 -0.279500
7  0.729354 0.000054 0.000050  -0.003808 -0.000096 -0.341082
8  3.942141 0.046330 -0.431542  -0.205965 0.132197 -1.449654
9  1.539110 0.000083 0.000004  -0.000570 0.007396 -0.283198
10  1.196332 0.000145 0.000028  -0.000731 0.000001 -0.740195
11  3.883511 -0.047212 0.431352  -0.042690 0.198097 -1.260493
12  1.719573 -0.000027 0.000017  -0.000644 0.003280 -0.404344
13  1.209179 0.000089 0.000013  -0.000905 0.002861 -0.623854
14  3.859678 -0.138418 1.332380  -0.192829 0.314078 -1.200823
15  1.719448 -0.000018 0.000028  0.001027 0.002946 -0.232305
16  1.099675 0.000049 0.000005  0.000043 0.002457 -0.621579
17  0.459534 -0.272515 1.494840  -0.993276 -0.518349 -0.465024
18  1.789819 -0.000003 -0.000017  -0.001964 0.000105 0.251441
19  1.207016 -0.000012 -0.000045  -0.002235 -0.004014 0.005434
20  5.740636 0.000389 -0.000699  -0.132613 0.000003 0.000063
21  11.481163 0.000303 -0.000732  -0.100853 -0.074340 0.057453
22  6.027524 -0.000329 0.000201  1.524787 -0.075102 1.848167
23  0.000000 11.692099 -0.000008  -0.628987 -0.172861 -0.520517
24  0.000004 0.000009 -0.000000  -0.121333 -0.000030 1.570738
25  0.000000 -0.000012 -0.000000  0.868960 0.000002 1.570712
26  -6.899342 -10.734701 0.826813  1.473120 1.855075 -0.198639
27  6.027517 -0.000263 -0.000216  1.646353 1.259295 -0.621136
28  11.691991 0.000162 0.000859  -0.116552 0.000018 -1.025357
29  11.480412 -0.000246 0.000798  -1.111817 0.304120 0.742496
30  3.710773 -0.434234 1.096848  0.700725 -0.025047 -1.894448
31  1.312560 0.000031 -0.000001  -0.004018 -0.052670 -0.157648
32  0.729347 0.000065 -0.000027  -0.098936 -0.154266 -1.256620
33  3.820806 -0.154610 0.327898  0.552081 -0.162420 -1.564602
34  1.539095 0.000004 -0.000002  0.035301 -0.048177 -0.684301
35  1.196302 0.000081 -0.000003  -0.018845 -0.012643 -1.421973
36  3.882444 -0.171892 -0.416805  0.578708 -0.286096 -1.376619
37  1.719565 -0.000083 -0.000004  -0.010330 -0.076021 -1.015000
38  1.209193 0.000033 0.000011  0.003432 -0.002384 -1.222575
39  3.859583 -0.149082 -1.331323  0.084755 -0.185240 -0.547088
40  1.719413 -0.000096 -0.000037  0.034383 0.016392 -0.911516
41  1.099673 0.000023 0.000005  -0.006995 -0.008413 -0.743478
42  0.230503 -0.805067 -1.086894  1.017215 0.462509 -0.609471
43  1.789779 -0.000008 -0.000042  -0.081444 -0.068283 0.252588
44  1.206994 -0.000007 0.000005  0.073274 0.023224 0.166518
45  5.740573 0.000079 0.000720  0.140220 -0.000014 0.000028
46  11.481027 0.000024 0.000904  0.072299 0.066686 0.119476
47  6.027515 -0.000273 -0.000229  -1.315644 -0.180689 -1.588889
48  -0.000002 11.691977 -0.000007  -0.736967 0.239552 0.604250
49  0.000003 0.000000 -0.000000  2.155999 -0.000036 1.570860
50  -0.000008 -0.000012 0.000005  2.272645 -0.000036 1.570861
51  -2.583089 -8.189750 -4.511877  -0.220016 -2.986761 1.263204
52  0.000000 0.000000 -0.000000  0.008153 -0.000259 0.000009
53  -0.000001 0.000000 -0.000000  1.565115 0.043565 -0.106862
54  0.084520 -9.947371 -5.866860  -0.594188 0.010607 -1.959545
55  -0.000000 0.000000 -0.000000  0.000000 -0.000001 -0.000002
56  0.000030 0.000030 0.000001  -1.571902 -0.044449 -0.106509
57  12.000549 -19.544212 -17.246658  1.570796 -0.000000 0.000000
58  -15.417984 4.000748 -22.641926  1.570796 -0.000000 0.000000
59  1.941978 9.263218 -8.327020  1.570796 -0.000000 0.000000
60  -0.004311 0.001229 -0.000372  0.006898 -0.005534 -0.284229
61  0.826810 11.791080 -4.879054  1.570796 -0.000000 0.000000
62  0.000000 0.000000 0.000000  -0.078727 -3.136056 0.284226
63  0.000000 0.000000 0.000000  1.568907 -0.001118 0.000270
64  -1.921736 -10.669339 -3.910017  1.584234 0.033200 0.002597
65  0.028727 1.510940 2.466706  -0.000000 -0.000000 0.000000
66  0.072472 2.040766 1.219716  -0.000000 -0.000000 0.000000
67  0.000001 2.151127 1.221220  -0.000000 -0.000000 0.000000
68  0.028727 1.768277 -0.467551  -1.134464 -0.000000 0.000000
69  0.073137 1.528051 2.605548  0.087266 -0.000000 0.000000
70  0.028728 2.472564 7.771825  -0.000000 -0.000000 0.000000
71  -1.855361 -11.424107 -1.970577  1.584234 0.033200 0.002597
72  -0.066937 -0.212759 0.439183  -0.000000 -0.000000 0.000000
73  0.134965 -0.491843 0.368118  -0.000000 -0.000000 0.000000
time 12
0  0.000006 0.000000 0.000000  -1.570800 -1.391899 -1.570792
1  -9.841317 -7.634221 1.937669  -1.544956 -1.855077 -0.198630
2  6.027525 -0.000329 0.000190  -0.146387 -1.483181 -1.851649
3  11.692113 0.000644 -0.000739  -0.990397 0.000004 -0.860844
4  11.480782 0.000617 -0.000396  0.971286 -0.344778 0.469189
5  3.666627 -0.163904 -1.204802  -0.520786 0.078133 -1.549187
6  1.312589 0.000011 0.000008  -0.003914 0.023741 -0.279500
7  0.729355 0.000054 0.000050  -0.003808 -0.000096 -0.341082
8  3.942139 0.046330 -0.431543  -0.205965 0.132196 -1.449654
9  1.539110 0.000084 0.000004  -0.000570 0.007396 -0.283198
10  1.196332 0.000146 0.000029  -0.000731 0.000001 -0.740195
11  3.883511 -0.047213 0.431351  -0.042690 0.198097 -1.260493
12  1.719573 -0.000028 0.000016  -0.000644 0.003280 -0.404344
13  1.209179 0.000090 0.000012  -0.000905 0.002861 -0.623853
14  3.859677 -0.138419 1.332379  -0.192829 0.314078 -1.200823
15  1.719448 -0.000019 0.000028  0.001027 0.002946 -0.232305
16  1.099675 0.000049 0.000006  0.000043 0.002457 -0.621579
17  0.459534 -0.272516 1.494838  -0.993276 -0.518349 -0.465024
18  1.789819 -0.000003 -0.000016  -0.001964 0.000104 0.251441
19  1.207018 -0.000012 -0.000044  -0.002235 -0.004014 0.005434
20  5.740635 0.000390 -0.000699  -0.130875 0.000003 0.000063
21  11.481165 0.000304 -0.000732  -0.100191 -0.071737 0.057673
22  6.027524 -0.000329 0.000201  1.524512 -0.074501 1.847117
23  -0.000000 11.692099 -0.000008  -0.628490 -0.172580 -0.520126
24  0.000003 0.000008 -0.000000  -0.121332 -0.000030 1.570739
25  -0.000000 -0.000011 -0.000000  0.868960 0.000002 1.570712
26  -6.899342 -10.734701 0.826813  1.473120 1.855075 -0.198639
27  6.027517 -0.000263 -0.000216  1.643062 1.257135 -0.623924
28  11.691991 0.000161 0.000859  -0.116552 0.000018 -1.031120
29  11.480388 -0.000255 0.000798  -1.107322 0.316495 0.750261
30  3.710774 -0.434235 1.096849  0.700725 -0.025047 -1.894448
31  1.312560 0.000030 -0.000001  -0.004018 -0.052670 -0.157648
32  0.729347 0.000065 -0.000027  -0.098936 -0.154266 -1.256620
33  3.820805 -0.154609 0.327900  0.552081 -0.162420 -1.564601
34  1.539095 0.000004 -0.000001  0.035301 -0.048177 -0.684301
35  1.196302 0.000081 -0.000002  -0.018845 -0.012643 -1.421973
36  3.882444 -0.171892 -0.416804  0.578708 -0.286096 -1.376619
37  1.719565 -0.000084 -0.000005  -0.010330 -0.076021 -1.015000
38  1.209193 0.000035 0.000011  0.003432 -0.002384 -1.222575
39  3.859584 -0.149082 -1.331321  0.084755 -0.185240 -0.547088
40  1.719412 -0.000097 -0.000037  0.034383 0.016392 -0.911516
41  1.099673 0.000024 0.000006  -0.006995 -0.008413 -0.743478
42  0.230502 -0.805067 -1.086892  1.017215 0.462509 -0.609471
43  1.789779 -0.000008 -0.000042  -0.081444 -0.068283 0.252588
44  1.206996 -0.000007 0.000005  0.073274 0.023224 0.166518
45  5.740573 0.000078 0.000722  0.141661 -0.000014 0.000028
46  11.481021 0.000022 0.000905  0.072017 0.069526 0.120251
47  6.027515 -0.000273 -0.000229  -1.314421 -0.182749 -1.588766
48  -0.000001 11.691975 -0.000008  -0.740692 0.242057 0.607082
49  0.000003 -0.000000 0.000000  2.155999 -0.000036 1.570860
50  -0.000007 -0.000012 0.000004  2.272645 -0.000036 1.570861
51  -2.564673 -8.154614 -4.515129  -0.215064 -2.982459 1.251361
52  -0.000001 0.000000 -0.000000  0.008153 -0.000259 0.000009
53  -0.000000 -0.000000 0.000000  1.565115 0.043565 -0.106862
54  0.087752 -9.949214 -5.851319  -0.588966 0.006713 -1.970568
55  -0.000000 -0.000000 -0.000000  0.000000 -0.000001 -0.000002
56  0.000029 0.000028 0.000001  -1.571902 -0.044449 -0.106509
57  12.000549 -19.544212 -17.246658  1.570796 -0.000000 0.000000
58  -15.417984 4.000748 -22.641926  1.570796 -0.000000 0.000000
59  1.941978 9.263218 -8.327020  1.570796 -0.000000 0.000000
60  -0.004311 0.001229 -0.000372  0.006898 -0.005534 -0.284229
61  0.826810 11.791080 -4.879054  1.570796 -0.000000 0.000000
62  0.000000 0.000000 0.000000  -0.078727 -3.136056 0.284226
63  0.000000 0.000000 0.000000  1.569293 -0.002880 0.000295
64  -1.932813 -10.637944 -3.897221  1.578641 0.029858 -0.008647
65  0.028727 1.510940 2.466705  0.000000 0.000000 -0.000000
66  0.072472 2.040765 1.219715  0.000000 0.000000 -0.000000
67  0.000001 2.151127 1.221220  0.000000 0.000000 -0.000000
68  0.028727 1.768276 -0.467550  -1.134464 -0.000000 -0.000000
69  0.073137 1.528050 2.605548  0.087266 0.000000 -0.000000
70  0.028728 2.472564 7.771826  0.000000 0.000000 -0.000000
71  -1.881193 -11.382490 -1.953387  1.578641 0.029858 -0.008647
72  -0.066937 -0.212760 0.439182  0.000000 0.000000 -0.000000
73  0.134965 -0.491843 0.368117  0.000000 0.000000 -0.000000
time 13
0  0.000006 0.000000 0.000000  -1.570800 -1.391899 -1.570792
1  -9.841317 -7.634221 1.937669  -1.544956 -1.855077 -0.198630
2  6.027525 -0.000329 0.000190  -0.109411 -1.484294 -1.891275
3  11.692113 0.000646 -0.000738  -0.990396 0.000004 -0.854405
4  11.480812 0.000622 -0.000387  0.988202 -0.347711 0.461316
5  3.666628 -0.163903 -1.204802  -0.520786 0.078133 -1.549187
6  1.312589 0.000010 0.000008  -0.003914 0.023741 -0.279500
7  0.729355 0.000056 0.000049  -0.003808 -0.000096 -0.341082
8  3.942141 0.046332 -0.431543  -0.205965 0.132197 -1.449654
9  1.539110 0.000084 0.000004  -0.000570 0.007396 -0.283198
10  1.196332 0.000145 0.000029  -0.000731 0.000001 -0.740195
11  3.883510 -0.047212 0.431351  -0.042690 0.198097 -1.260493
12  1.719572 -0.000029 0.000017  -0.000644 0.003280 -0.404344
13  1.209179 0.000090 0.000012  -0.000905 0.002861 -0.623854
14  3.859677 -0.138418 1.332379  -0.192829 0.314078 -1.200823
15  1.719448 -0.000017 0.000028  0.001027 0.002946 -0.232305
16  1.099675 0.000049 0.000005  0.000043 0.002457 -0.621579
17  0.459534 -0.272516 1.494839  -0.993276 -0.518349 -0.465024
18  1.789820 -0.000003 -0.000017  -0.001964 0.000105 0.251441
19  1.207016 -0.000012 -0.000044  -0.002235 -0.004014 0.005434
20  5.740635 0.000389 -0.000699  -0.127529 0.000003 0.000063
21  11.481170 0.000304 -0.000730  -0.097024 -0.071256 0.056725
22  6.027524 -0.000329 0.000201  1.522415 -0.071817 1.844481
23  0.000000 11.692099 -0.000007  -0.624156 -0.170144 -0.516708
24  0.000004 0.000009 -0.000000  -0.121332 -0.000031 1.570739
25  -0.000000 -0.000012 0.000000  0.868960 0.000002 1.570712
26  -6.899342 -10.734701 0.826813  1.473120 1.855075 -0.198639
27  6.027517 -0.000263 -0.000216  1.645103 1.258624 -0.622188
28  11.691991 0.000160 0.000859  -0.116552 0.000018 -1.026463
29  11.480407 -0.000250 0.000798  -1.098285 0.318135 0.738199
30  3.710774 -0.434235 1.096848  0.700725 -0.025047 -1.894448
31  1.312561 0.000031 -0.000001  -0.004018 -0.052670 -0.157648
32  0.729347 0.000065 -0.000027  -0.098936 -0.154266 -1.256620
33  3.820805 -0.154609 0.327899  0.552081 -0.162420 -1.564601
34  1.539095 0.000003 -0.000002  0.035301 -0.048177 -0.684301
35  1.196302 0.000080 -0.000002  -0.018845 -0.012643 -1.421973
36  3.882445 -0.171893 -0.416804  0.578708 -0.286096 -1.376619
37  1.719565 -0.000083 -0.000004  -0.010330 -0.076021 -1.015000
38  1.209193 0.000033 0.000012  0.003432 -0.002384 -1.222575
39  3.859584 -0.149082 -1.331322  0.084755 -0.185240 -0.547088
40  1.719412 -0.000098 -0.000037  0.034383 0.016392 -0.911516
41  1.099673 0.000024 0.000006  -0.006995 -0.008413 -0.743478
42  0.230503 -0.805067 -1.086893  1.017215 0.462509 -0.609471
43  1.789779 -0.000008 -0.000042  -0.081444 -0.068283 0.252588
44  1.206996 -0.000006 0.000005  0.073274 0.023224 0.166518
45  5.740573 0.000078 0.000721  0.142501 -0.000014 0.000028
46  11.481025 0.000023 0.000904  0.073873 0.070007 0.117417
47  6.027515 -0.000273 -0.000229  -1.315303 -0.181386 -1.588812
48  -0.000001 11.691975 -0.000007  -0.737683 0.240032 0.604794
49  0.000003 -0.000001 -0.000000  2.155999 -0.000036 1.570860
50  -0.000007 -0.000014 0.000005  2.272645 -0.000036 1.570861
51  -2.579461 -8.183675 -4.519001  -0.203867 -2.974668 1.255167
52  0.000000 0.000000 0.000001  0.008153 -0.000259 0.000009
53  -0.000000 -0.000000 0.000000  1.565115 0.043565 -0.106862
54  0.093664 -9.977577 -5.814248  -0.577334 -0.000177 -1.964907
55  -0.000000 -0.000000 0.000001  0.000000 -0.000001 -0.000002
56  0.000030 0.000029 0.000002  -1.571902 -0.044449 -0.106509
57  12.000549 -19.544212 -17.246658  1.570796 -0.000000 0.000000
58  -15.417984 4.000748 -22.641926  1.570796 -0.000000 0.000000
59  1.941978 9.263218 -8.327020  1.570796 -0.000000 0.000000
60  -0.004311 0.001229 -0.000372  0.006898 -0.005534 -0.284229
61  0.826810 11.791080 -4.879054  1.570796 -0.000000 0.000000
62  0.000000 0.000000 0.000000  -0.078727 -3.136056 0.284226
63  0.000000 0.000000 0.000000  1.570142 -0.001568 0.000311
64  -1.938778 -10.656549 -3.869071  1.567835 0.021729 -0.003303
65  0.028727 1.510939 2.466707  -0.000000 -0.000000 -0.000000
66  0.072472 2.040766 1.219716  -0.000000 -0.000000 -0.000000
67  0.000000 2.151127 1.221220  -0.000000 -0.000000 -0.000000
68  0.028727 1.768277 -0.467550  -1.134464 -0.000000 -0.000000
69  0.073137 1.528051 2.605549  0.087266 -0.000000 -0.000000
70  0.028728 2.472564 7.771822  -0.000000 -0.000000 -0.000000
71  -1.898741 -11.379698 -1.916904  1.567835 0.021729 -0.003303
72  -0.066937 -0.212759 0.439184  -0.000000 -0.000000 -0.000000
73  0.134965 -0.491842 0.368118  -0.000000 -0.000000 -0.000000
time 14
0  0.000006 0.000000 0.000000  -1.570800 -1.391899 -1.570792
1  -9.841317 -7.634221 1.937669  -1.544956 -1.855077 -0.198630
2  6.027525 -0.000329 0.000190  -0.067530 -1.485569 -1.936750
3  11.692111 0.000645 -0.000739  -0.990396 0.000004 -0.846111
4  11.480855 0.000631 -0.000375  1.005714 -0.353905 0.456041
5  3.666626 -0.163903 -1.204801  -0.520786 0.078133 -1.549187
6  1.312589 0.000010 0.000007  -0.003914 0.023741 -0.279500
7  0.729354 0.000054 0.000049  -0.003808 -0.000096 -0.341082
8  3.942140 0.046331 -0.431542  -0.205965 0.132197 -1.449654
9  1.539111 0.000082 0.000003  -0.000570 0.007396 -0.283198
10  1.196332 0.000146 0.000027  -0.000731 0.000001 -0.740195
11  3.883510 -0.047211 0.431351  -0.042690 0.198097 -1.260493
12  1.719573 -0.000028 0.000017  -0.000644 0.003280 -0.404344
13  1.209179 0.000091 0.000012  -0.000905 0.002861 -0.623853
14  3.859677 -0.138418 1.332380  -0.192829 0.314078 -1.200823
15  1.719448 -0.000019 0.000029  0.001027 0.002946 -0.232305
16  1.099675 0.000048 0.000006  0.000043 0.002457 -0.621579
17  0.459533 -0.272516 1.494840  -0.993276 -0.518349 -0.465024
18  1.789820 -0.000002 -0.000015  -0.001964 0.000105 0.251441
19  1.207016 -0.000012 -0.000043  -0.002235 -0.004014 0.005434
20  5.740636 0.000390 -0.000700  -0.124056 0.000003 0.000063
21  11.481180 0.000307 -0.000728  -0.093494 -0.071500 0.056145
22  6.027524 -0.000329 0.000201  1.520212 -0.068704 1.840886
23  0.000000 11.692098 -0.000007  -0.618563 -0.167027 -0.512292
24  0.000004 0.000008 0.000000  -0.121332 -0.000030 1.570739
25  0.000001 -0.000012 -0.000000  0.868960 0.000002 1.570712
26  -6.899342 -10.734701 0.826813  1.473120 1.855075 -0.198639
27  6.027517 -0.000263 -0.000216  1.648171 1.262799 -0.619459
28  11.691991 0.000160 0.000859  -0.116553 0.000017 -1.016469
29  11.480450 -0.000229 0.000800  -1.087789 0.314607 0.723062
30  3.710774 -0.434234 1.096849  0.700725 -0.025047 -1.894448
31  1.312560 0.000031 -0.000001  -0.004018 -0.052670 -0.157648
32  0.729347 0.000065 -0.000028  -0.098936 -0.154266 -1.256620
33  3.820806 -0.154608 0.327899  0.552081 -0.162420 -1.564602
34  1.539095 0.000005 -0.000001  0.035301 -0.048177 -0.684301
35  1.196302 0.000080 -0.000003  -0.018845 -0.012643 -1.421973
36  3.882445 -0.171892 -0.416804  0.578708 -0.286096 -1.376619
37  1.719565 -0.000083 -0.000004  -0.010330 -0.076021 -1.015000
38  1.209193 0.000035 0.000011  0.003432 -0.002384 -1.222575
39  3.859585 -0.149082 -1.331322  0.084755 -0.185240 -0.547088
40  1.719413 -0.000097 -0.000037  0.034383 0.016392 -0.911516
41  1.099673 0.000024 0.000006  -0.006995 -0.008413 -0.743478
42  0.230504 -0.805067 -1.086893  1.017215 0.462509 -0.609471
43  1.789779 -0.000007 -0.000042  -0.081444 -0.068283 0.252588
44  1.206995 -0.000006 0.000005  0.073274 0.023224 0.166518
45  5.740572 0.000079 0.000721  0.143228 -0.000014 0.000028
46  11.481033 0.000028 0.000905  0.076466 0.069493 0.114156
47  6.027515 -0.000273 -0.000229  -1.318259 -0.178247 -1.588477
48  -0.000001 11.691975 -0.000008  -0.731211 0.235708 0.599867
49  0.000003 0.000000 0.000000  2.155999 -0.000036 1.570860
50  -0.000007 -0.000013 0.000004  2.272645 -0.000036 1.570861
51  -2.592022 -8.242352 -4.517438  -0.192008 -2.969775 1.263474
52  -0.000000 0.000000 0.000000  0.008153 -0.000259 0.000009
53  -0.000000 0.000000 0.000000  1.565115 0.043565 -0.106862
54  0.111776 -10.019054 -5.772091  -0.565301 -0.004150 -1.954628
55  -0.000000 0.000000 0.000001  0.000000 -0.000001 -0.000002
56  0.000030 0.000029 0.000002  -1.571901 -0.044449 -0.106509
57  12.000549 -19.544212 -17.246658  1.570796 -0.000000 0.000000
58  -15.417984 4.000748 -22.641926  1.570796 -0.000000 0.000000
59  1.941978 9.263218 -8.327020  1.570796 -0.000000 0.000000
60  -0.004311 0.001229 -0.000372  0.006898 -0.005534 -0.284229
61  0.826810 11.791080 -4.879054  1.570796 -0.000000 0.000000
62  0.000000 0.000000 0.000000  -0.078727 -3.136056 0.284226
63  0.000000 0.000000 0.000000  1.570992 0.000868 0.000323
64  -1.932303 -10.703059 -3.840922  1.559576 0.012116 0.006863
65  0.028727 1.510940 2.466707  0.000000 -0.000000 -0.000000
66  0.072472 2.040765 1.219715  0.000000 -0.000000 -0.000000
67  0.000000 2.151127 1.221220  0.000000 -0.000000 -0.000000
68  0.028727 1.768277 -0.467550  -1.134464 -0.000000 -0.000000
69  0.073137 1.528051 2.605549  0.087266 -0.000000 -0.000000
70  0.028728 2.472564 7.771825  0.000000 -0.000000 -0.000000
71  -1.903721 -11.409743 -1.882533  1.559576 0.012116 0.006863
72  -0.066937 -0.212760 0.439182  0.000000 -0.000000 -0.000000
73  0.134965 -0.491843 0.368116  0.000000 -0.000000 -0.000000
time 15
0  0.000006 0.000000 0.000000  -1.570800 -1.391899 -1.570792
1  -9.841317 -7.634221 1.937669  -1.544956 -1.855077 -0.198630
2  6.027525 -0.000329 0.000190  -0.026646 -1.486590 -1.980859
3  11.692112 0.000645 -0.000739  -0.990395 0.000005 -0.836373
4  11.480906 0.000643 -0.000357  1.018682 -0.354167 0.453848
5  3.666628 -0.163903 -1.204801  -0.520786 0.078133 -1.549187
6  1.312589 0.000010 0.000008  -0.003914 0.023741 -0.279500
7  0.729356 0.000055 0.000050  -0.003808 -0.000096 -0.341082
8  3.942140 0.046331 -0.431542  -0.205965 0.132197 -1.449654
9  1.539110 0.000084 0.000004  -0.000570 0.007396 -0.283198
10  1.196332 0.000145 0.000028  -0.000731 0.000001 -0.740195
11  3.883511 -0.047212 0.431352  -0.042690 0.198097 -1.260493
12  1.719573 -0.000030 0.000017  -0.000644 0.003280 -0.404344
13  1.209180 0.000089 0.000012  -0.000905 0.002861 -0.623853
14  3.859677 -0.138418 1.332380  -0.192829 0.314078 -1.200823
15  1.719448 -0.000018 0.000028  0.001027 0.002946 -0.232305
16  1.099675 0.000048 0.000006  0.000043 0.002457 -0.621579
17  0.459534 -0.272516 1.494839  -0.993276 -0.518349 -0.465024
18  1.789820 -0.000003 -0.000017  -0.001964 0.000105 0.251441
19  1.207017 -0.000012 -0.000044  -0.002235 -0.004014 0.005434
20  5.740635 0.000391 -0.000699  -0.121182 0.000003 0.000064
21  11.481189 0.000309 -0.000725  -0.091079 -0.070941 0.056279
22  6.027524 -0.000329 0.000201  1.518090 -0.065784 1.837658
23  0.000000 11.692098 -0.000008  -0.611981 -0.163398 -0.507087
24  0.000004 0.000008 0.000000  -0.121332 -0.000031 1.570739
25  -0.000000 -0.000011 0.000000  0.868960 0.000002 1.570712
26  -6.899342 -10.734701 0.826813  1.473120 1.855075 -0.198639
27  6.027517 -0.000263 -0.000216  1.649177 1.268290 -0.618322
28  11.691990 0.000161 0.000859  -0.116553 0.000017 -1.004689
29  11.480507 -0.000204 0.000804  -1.078724 0.312377 0.714056
30  3.710774 -0.434234 1.096848  0.700725 -0.025047 -1.894448
31  1.312560 0.000032 -0.000002  -0.004018 -0.052670 -0.157648
32  0.729347 0.000067 -0.000028  -0.098936 -0.154266 -1.256620
33  3.820805 -0.154608 0.327899  0.552081 -0.162420 -1.564601
34  1.539094 0.000003 -0.000001  0.035301 -0.048177 -0.684301
35  1.196302 0.000080 -0.000003  -0.018845 -0.012643 -1.421973
36  3.882446 -0.171892 -0.416805  0.578708 -0.286096 -1.376619
37  1.719565 -0.000083 -0.000005  -0.010330 -0.076021 -1.015000
38  1.209193 0.000036 0.000011  0.003432 -0.002384 -1.222575
39  3.859584 -0.149081 -1.331322  0.084755 -0.185240 -0.547088
40  1.719413 -0.000097 -0.000037  0.034383 0.016392 -0.911516
41  1.099674 0.000023 0.000007  -0.006996 -0.008413 -0.743478
42  0.230503 -0.805067 -1.086894  1.017215 0.462509 -0.609471
43  1.789780 -0.000008 -0.000042  -0.081444 -0.068283 0.252588
44  1.206995 -0.000007 0.000005  0.073274 0.023224 0.166518
45  5.740573 0.000078 0.000721  0.143790 -0.000014 0.000028
46  11.481047 0.000034 0.000906  0.078544 0.069322 0.112104
47  6.027515 -0.000273 -0.000229  -1.322683 -0.174890 -1.587522
48  -0.000001 11.691974 -0.000007  -0.723564 0.230651 0.594028
49  0.000005 0.000001 0.000000  2.155999 -0.000036 1.570860
50  -0.000007 -0.000014 0.000005  2.272645 -0.000036 1.570861
51  -2.585922 -8.308544 -4.517344  -0.183285 -2.969350 1.267537
52  -0.000000 -0.000000 0.000001  0.008153 -0.000259 0.000009
53  -0.000001 0.000000 -0.000000  1.565115 0.043565 -0.106862
54  0.137731 -10.073877 -5.744807  -0.556699 -0.003923 -1.949106
55  -0.000000 0.000000 0.000000  0.000000 -0.000001 -0.000002
56  0.000030 0.000030 0.000001  -1.571901 -0.044449 -0.106509
57  12.000549 -19.544212 -17.246658  1.570796 -0.000000 0.000000
58  -15.417984 4.000748 -22.641926  1.570796 -0.000000 0.000000
59  1.941978 9.263218 -8.327020  1.570796 -0.000000 0.000000
60  -0.004311 0.001229 -0.000372  0.006898 -0.005534 -0.284229
61  0.826810 11.791080 -4.879054  1.570796 -0.000000 0.000000
62  0.000000 0.000000 0.000000  -0.078727 -3.136056 0.284226
63  0.000000 0.000000 0.000000  1.571378 0.002180 0.000327
64  -1.918056 -10.763523 -3.828126  1.556510 0.004076 0.012395
65  0.028727 1.510940 2.466706  0.000000 0.000000 0.000000
66  0.072472 2.040765 1.219716  0.000000 0.000000 0.000000
67  0.000000 2.151126 1.221221  0.000000 0.000000 0.000000
68  0.028727 1.768277 -0.467549  -1.134464 -0.000000 -0.000000
69  0.073137 1.528050 2.605549  0.087266 0.000000 0.000000
70  0.028727 2.472564 7.771823  0.000000 0.000000 0.000000
71  -1.901376 -11.464226 -1.867452  1.556510 0.004076 0.012395
72  -0.066937 -0.212760 0.439181  0.000000 0.000000 0.000000
73  0.134965 -0.491842 0.368118  0.000000 0.000000 0.000000
time 16
0  0.000006 0.000000 0.000000  -1.570800 -1.391899 -1.570792
1  -9.841317 -7.634221 1.937669  -1.544956 -1.855077 -0.198630
2  6.027525 -0.000328 0.000190  0.017705 -1.487065 -2.026997
3  11.692111 0.000645 -0.000739  -0.990394 0.000005 -0.824813
4  11.479952 0.000466 -0.000626  1.026249 -0.346213 0.449768
5  3.666628 -0.163903 -1.204802  -0.520786 0.078133 -1.549187
6  1.312590 0.000008 0.000007  -0.003914 0.023741 -0.279500
7  0.729355 0.000056 0.000050  -0.003808 -0.000096 -0.341082
8  3.942141 0.046332 -0.431542  -0.205965 0.132197 -1.449654
9  1.539111 0.000084 0.000004  -0.000570 0.007396 -0.283198
10  1.196333 0.000146 0.000029  -0.000731 0.000001 -0.740195
11  3.883511 -0.047211 0.431351  -0.042690 0.198097 -1.260493
12  1.719573 -0.000028 0.000017  -0.000644 0.003280 -0.404344
13  1.209179 0.000090 0.000012  -0.000905 0.002861 -0.623854
14  3.859677 -0.138417 1.332380  -0.192829 0.314078 -1.200823
15  1.719448 -0.000018 0.000028  0.001027 0.002946 -0.232305
16  1.099675 0.000048 0.000005  0.000043 0.002457 -0.621579
17  0.459535 -0.272515 1.494839  -0.993276 -0.518349 -0.465024
18  1.789820 -0.000003 -0.000017  -0.001964 0.000105 0.251441
19  1.207018 -0.000011 -0.000044  -0.002235 -0.004014 0.005434
20  5.740636 0.000389 -0.000699  -0.119091 0.000003 0.000063
21  11.480998 0.000273 -0.000778  -0.090188 -0.068962 0.056214
22  6.027524 -0.000329 0.000201  1.515544 -0.063027 1.835877
23  -0.000001 11.692100 -0.000008  -0.604149 -0.159135 -0.500882
24  0.000004 0.000009 0.000000  -0.121332 -0.000030 1.570739
25  -0.000000 -0.000010 0.000000  0.868960 0.000002 1.570712
26  -6.899342 -10.734701 0.826813  1.473120 1.855075 -0.198639
27  6.027517 -0.000263 -0.000216  1.647450 1.273534 -0.619442
28  11.691991 0.000161 0.000858  -0.116554 0.000016 -0.993720
29  11.480558 -0.000185 0.000806  -1.074129 0.315611 0.710222
30  3.710775 -0.434234 1.096848  0.700725 -0.025047 -1.894448
31  1.312560 0.000033 -0.000001  -0.004018 -0.052670 -0.157648
32  0.729347 0.000066 -0.000027  -0.098936 -0.154266 -1.256620
33  3.820807 -0.154609 0.327899  0.552081 -0.162420 -1.564601
34  1.539094 0.000003 -0.000002  0.035301 -0.048177 -0.684301
35  1.196302 0.000080 -0.000004  -0.018845 -0.012643 -1.421973
36  3.882447 -0.171892 -0.416804  0.578708 -0.286096 -1.376619
37  1.719566 -0.000083 -0.000005  -0.010330 -0.076021 -1.015000
38  1.209193 0.000035 0.000011  0.003432 -0.002384 -1.222575
39  3.859585 -0.149082 -1.331322  0.084755 -0.185240 -0.547088
40  1.719410 -0.000097 -0.000037  0.034383 0.016392 -0.911516
41  1.099673 0.000022 0.000006  -0.006995 -0.008413 -0.743478
42  0.230504 -0.805067 -1.086893  1.017215 0.462509 -0.609471
43  1.789779 -0.000007 -0.000042  -0.081444 -0.068283 0.252588
44  1.206995 -0.000006 0.000005  0.073274 0.023224 0.166518
45  5.740573 0.000078 0.000721  0.143608 -0.000014 0.000028
46  11.481056 0.000037 0.000906  0.079258 0.070070 0.111001
47  6.027515 -0.000273 -0.000229  -1.327362 -0.172337 -1.586184
48  -0.000001 11.691975 -0.000007  -0.716424 0.225982 0.588563
49  0.000002 -0.000000 -0.000000  2.155999 -0.000036 1.570860
50  -0.000006 -0.000014 0.000005  2.272645 -0.000036 1.570861
51  -2.565033 -8.368602 -4.525753  -0.179650 -2.969334 1.265170
52  0.000001 0.000000 -0.000000  0.008153 -0.000259 0.000009
53  0.000000 0.000000 -0.000000  1.565115 0.043565 -0.106862
54  0.159705 -10.140015 -5.741996  -0.553127 -0.003671 -1.950863
55  -0.000000 0.000000 0.000001  0.000000 -0.000001 -0.000002
56  0.000029 0.000029 0.000001  -1.571901 -0.044449 -0.106509
57  12.000549 -19.544212 -17.246658  1.570796 -0.000000 0.000000
58  -15.417984 4.000748 -22.641926  1.570796 -0.000000 0.000000
59  1.941978 9.263218 -8.327020  1.570796 -0.000000 0.000000
60  -0.004311 0.001229 -0.000372  0.006898 -0.005534 -0.284229
61  0.826810 11.791080 -4.879054  1.570796 -0.000000 0.000000
62  0.000000 0.000000 0.000000  -0.078727 -3.136056 0.284226
63  0.000000 0.000000 0.000000  1.571317 0.001545 0.000293
64  -1.903809 -10.823987 -3.831596  1.555383 0.000677 0.010648
65  0.028728 1.510940 2.466706  0.000000 -0.000000 0.000000
66  0.072472 2.040766 1.219714  0.000000 -0.000000 0.000000
67  0.000001 2.151127 1.221220  0.000000 -0.000000 0.000000
68  0.028727 1.768277 -0.467552  -1.134464 -0.000000 -0.000000
69  0.073137 1.528051 2.605548  0.087266 -0.000000 0.000000
70  0.028728 2.472565 7.771823  0.000000 -0.000000 0.000000
71  -1.895040 -11.522577 -1.870117  1.555383 0.000677 0.010648
72  -0.066936 -0.212759 0.439183  0.000000 -0.000000 0.000000
73  0.134965 -0.491842 0.368117  0.000000 -0.000000 0.000000
time 17
0  0.000006 0.000000 0.000000  -1.570800 -1.391899 -1.570792
1  -9.841317 -7.634221 1.937669  -1.544956 -1.855077 -0.198630
2  6.027525 -0.000328 0.000190  0.057872 -1.486830 -2.066903
3  11.692112 0.000644 -0.000740  -0.990394 0.000005 -0.814859
4  11.480239 0.000522 -0.000541  1.025721 -0.337416 0.443438
5  3.666629 -0.163902 -1.204801  -0.520786 0.078133 -1.549187
6  1.312590 0.000010 0.000008  -0.003914 0.023741 -0.279500
7  0.729355 0.000054 0.000050  -0.003808 -0.000096 -0.341082
8  3.942140 0.046332 -0.431543  -0.205965 0.132197 -1.449654
9  1.539111 0.000084 0.000003  -0.000570 0.007396 -0.283198
10  1.196332 0.000146 0.000028  -0.000731 0.000001 -0.740195
11  3.883510 -0.047211 0.431351  -0.042690 0.198097 -1.260493
12  1.719573 -0.000026 0.000017  -0.000644 0.003280 -0.404344
13  1.209179 0.000090 0.000012  -0.000905 0.002861 -0.623853
14  3.859677 -0.138417 1.332380  -0.192829 0.314078 -1.200823
15  1.719448 -0.000018 0.000029  0.001027 0.002946 -0.232305
16  1.099675 0.000050 0.000006  0.000043 0.002457 -0.621579
17  0.459535 -0.272514 1.494839  -0.993276 -0.518349 -0.465024
18  1.789819 -0.000005 -0.000016  -0.001964 0.000105 0.251441
19  1.207017 -0.000012 -0.000044  -0.002235 -0.004014 0.005434
20  5.740635 0.000389 -0.000700  -0.118718 0.000003 0.000064
21  11.481055 0.000284 -0.000762  -0.090927 -0.067056 0.055391
22  6.027524 -0.000329 0.000201  1.512899 -0.060929 1.836161
23  -0.000002 11.692100 -0.000007  -0.597388 -0.155503 -0.495515
24  0.000004 0.000009 -0.000000  -0.121332 -0.000031 1.570739
25  -0.000002 -0.000010 0.000000  0.868960 0.000002 1.570712
26  -6.899342 -10.734701 0.826813  1.473120 1.855075 -0.198639
27  6.027517 -0.000263 -0.000216  1.646358 1.277336 -0.620131
28  11.691990 0.000160 0.000858  -0.116555 0.000016 -0.985636
29  11.480600 -0.000164 0.000810  -1.077218 0.319970 0.707241
30  3.710774 -0.434235 1.096848  0.700725 -0.025047 -1.894448
31  1.312560 0.000030 -0.000001  -0.004018 -0.052670 -0.157648
32  0.729347 0.000065 -0.000027  -0.098936 -0.154266 -1.256620
33  3.820805 -0.154609 0.327899  0.552081 -0.162420 -1.564601
34  1.539095 0.000003 -0.000002  0.035301 -0.048177 -0.684301
35  1.196302 0.000080 -0.000003  -0.018845 -0.012643 -1.421973
36  3.882445 -0.171893 -0.416804  0.578708 -0.286096 -1.376619
37  1.719566 -0.000082 -0.000004  -0.010330 -0.076021 -1.015000
38  1.209193 0.000035 0.000011  0.003432 -0.002384 -1.222575
39  3.859585 -0.149083 -1.331322  0.084755 -0.185240 -0.547088
40  1.719411 -0.000097 -0.000037  0.034383 0.016392 -0.911516
41  1.099673 0.000023 0.000006  -0.006995 -0.008413 -0.743478
42  0.230503 -0.805067 -1.086893  1.017215 0.462509 -0.609471
43  1.789779 -0.000008 -0.000042  -0.081444 -0.068283 0.252588
44  1.206994 -0.000007 0.000005  0.073274 0.023224 0.166518
45  5.740572 0.000079 0.000722  0.142161 -0.000014 0.000028
46  11.481064 0.000040 0.000907  0.078434 0.070593 0.110344
47  6.027515 -0.000273 -0.000229  -1.330720 -0.170436 -1.585255
48  -0.000003 11.691975 -0.000008  -0.711151 0.222565 0.584516
49  0.000004 0.000000 -0.000000  2.155999 -0.000036 1.570860
50  -0.000008 -0.000013 0.000005  2.272645 -0.000036 1.570861
51  -2.551491 -8.412705 -4.532199  -0.183127 -2.967998 1.261856
52  -0.000000 0.000000 -0.000000  0.008153 -0.000259 0.000009
53  -0.000001 -0.000000 -0.000000  1.565115 0.043565 -0.106862
54  0.161816 -10.195047 -5.757995  -0.556443 -0.005260 -1.954760
55  -0.000001 0.000000 0.000000  0.000000 -0.000001 -0.000002
56  0.000029 0.000029 0.000001  -1.571902 -0.044449 -0.106509
57  12.000549 -19.544212 -17.246658  1.570796 -0.000000 0.000000
58  -15.417984 4.000748 -22.641926  1.570796 -0.000000 0.000000
59  1.941978 9.263218 -8.327020  1.570796 -0.000000 0.000000
60  -0.004311 0.001229 -0.000372  0.006898 -0.005534 -0.284229
61  0.826810 11.791080 -4.879054  1.570796 -0.000000 0.000000
62  0.000000 0.000000 0.000000  -0.078727 -3.136056 0.284226
63  0.000000 0.000000 0.000000  1.571173 0.000365 0.000212
64  -1.897333 -10.870498 -3.839869  1.555176 0.004348 0.006736
65  0.028727 1.510939 2.466706  -0.000000 0.000000 -0.000000
66  0.072472 2.040765 1.219714  -0.000000 0.000000 -0.000000
67  0.000001 2.151126 1.221219  -0.000000 0.000000 -0.000000
68  0.028727 1.768276 -0.467550  -1.134464 -0.000000 -0.000000
69  0.073137 1.528050 2.605549  0.087266 0.000000 -0.000000
70  0.028728 2.472564 7.771823  -0.000000 0.000000 -0.000000
71  -1.884099 -11.568664 -1.878265  1.555176 0.004348 0.006736
72  -0.066937 -0.212759 0.439183  -0.000000 0.000000 -0.000000
73  0.134964 -0.491842 0.368118  -0.000000 0.000000 -0.000000
time 18
0  0.000006 0.000000 0.000000  -1.570800 -1.391899 -1.570792
1  -9.841317 -7.634221 1.937669  -1.544956 -1.855077 -0.198630
2  6.027525 -0.000328 0.000190  0.083274 -1.486094 -2.090292
3  11.692114 0.000645 -0.000739  -0.990393 0.000005 -0.809277
4  11.480404 0.000554 -0.000491  1.019280 -0.331342 0.436503
5  3.666626 -0.163904 -1.204803  -0.520786 0.078133 -1.549187
6  1.312589 0.000009 0.000009  -0.003914 0.023741 -0.279500
7  0.729355 0.000054 0.000050  -0.003808 -0.000096 -0.341082
8  3.942139 0.046331 -0.431543  -0.205965 0.132196 -1.449654
9  1.539109 0.000084 0.000003  -0.000570 0.007396 -0.283198
10  1.196333 0.000147 0.000029  -0.000731 0.000001 -0.740195
11  3.883509 -0.047212 0.431350  -0.042690 0.198097 -1.260493
12  1.719573 -0.000028 0.000017  -0.000644 0.003280 -0.404344
13  1.209179 0.000089 0.000012  -0.000905 0.002861 -0.623853
14  3.859675 -0.138418 1.332379  -0.192829 0.314078 -1.200823
15  1.719448 -0.000018 0.000028  0.001027 0.002946 -0.232305
16  1.099675 0.000049 0.000005  0.000043 0.002457 -0.621579
17  0.459533 -0.272516 1.494839  -0.993276 -0.518349 -0.465024
18  1.789819 -0.000002 -0.000016  -0.001964 0.000105 0.251441
19  1.207016 -0.000013 -0.000045  -0.002235 -0.004014 0.005434
20  5.740635 0.000389 -0.000699  -0.119785 0.000003 0.000064
21  11.481088 0.000290 -0.000751  -0.092652 -0.065873 0.054063
22  6.027524 -0.000329 0.000201  1.510851 -0.059959 1.838207
23  0.000002 11.692100 -0.000008  -0.593590 -0.153481 -0.492495
24  0.000004 0.000008 0.000000  -0.121332 -0.000031 1.570739
25  0.000002 -0.000010 -0.000000  0.868960 0.000002 1.570712
26  -6.899342 -10.734701 0.826813  1.473120 1.855075 -0.198639
27  6.027517 -0.000263 -0.000216  1.646372 1.278383 -0.620062
28  11.691993 0.000161 0.000859  -0.116555 0.000016 -0.982824
29  11.480616 -0.000158 0.000808  -1.085442 0.323845 0.704979
30  3.710774 -0.434234 1.096849  0.700725 -0.025047 -1.894448
31  1.312560 0.000032 -0.000001  -0.004018 -0.052670 -0.157648
32  0.729347 0.000066 -0.000028  -0.098936 -0.154266 -1.256620
33  3.820804 -0.154608 0.327900  0.552081 -0.162420 -1.564601
34  1.539095 0.000002 -0.000001  0.035301 -0.048177 -0.684301
35  1.196302 0.000082 -0.000003  -0.018845 -0.012643 -1.421973
36  3.882445 -0.171892 -0.416804  0.578708 -0.286096 -1.376619
37  1.719566 -0.000083 -0.000004  -0.010330 -0.076021 -1.015000
38  1.209194 0.000035 0.000011  0.003432 -0.002384 -1.222575
39  3.859585 -0.149082 -1.331321  0.084755 -0.185240 -0.547088
40  1.719411 -0.000098 -0.000038  0.034383 0.016392 -0.911516
41  1.099673 0.000023 0.000006  -0.006995 -0.008413 -0.743478
42  0.230503 -0.805067 -1.086892  1.017215 0.462509 -0.609471
43  1.789779 -0.000007 -0.000042  -0.081444 -0.068283 0.252588
44  1.206995 -0.000007 0.000005  0.073274 0.023224 0.166518
45  5.740571 0.000079 0.000720  0.140139 -0.000014 0.000028
46  11.481066 0.000042 0.000907  0.076671 0.070745 0.110077
47  6.027515 -0.000273 -0.000229  -1.331591 -0.169837 -1.585052
48  -0.000001 11.691975 -0.000007  -0.709314 0.221381 0.583105
49  0.000004 0.000000 -0.000000  2.155999 -0.000036 1.570860
50  -0.000008 -0.000012 0.000005  2.272645 -0.000036 1.570861
51  -2.552234 -8.428907 -4.537328  -0.190900 -2.965312 1.259292
52  0.000001 -0.000000 -0.000000  0.008153 -0.000259 0.000009
53  -0.000001 -0.000000 0.000000  1.565115 0.043565 -0.106862
54  0.144042 -10.222116 -5.784663  -0.563873 -0.008517 -1.958626
55  -0.000000 -0.000000 0.000001  0.000000 -0.000001 -0.000002
56  0.000029 0.000029 0.000002  -1.571901 -0.044449 -0.106509
57  12.000549 -19.544212 -17.246658  1.570796 -0.000000 0.000000
58  -15.417984 4.000748 -22.641926  1.570796 -0.000000 0.000000
59  1.941978 9.263218 -8.327020  1.570796 -0.000000 0.000000
60  -0.004311 0.001229 -0.000372  0.006898 -0.005534 -0.284229
61  0.826810 11.791080 -4.879054  1.570796 -0.000000 0.000000
62  0.000000 0.000000 0.000000  -0.078727 -3.136056 0.284226
63  0.000000 0.000000 0.000000  1.571001 -0.000270 0.000115
64  -1.902113 -10.889102 -3.849744  1.554994 0.012459 0.002817
65  0.028727 1.510940 2.466706  -0.000000 -0.000000 0.000000
66  0.072472 2.040766 1.219715  -0.000000 -0.000000 0.000000
67  0.000001 2.151127 1.221219  -0.000000 -0.000000 0.000000
68  0.028727 1.768277 -0.467551  -1.134464 -0.000000 -0.000000
69  0.073137 1.528050 2.605549  0.087266 -0.000000 0.000000
70  0.028728 2.472565 7.771823  -0.000000 -0.000000 0.000000
71  -1.875706 -11.586912 -1.888145  1.554994 0.012459 0.002817
72  -0.066937 -0.212760 0.439182  -0.000000 -0.000000 0.000000
73  0.134965 -0.491843 0.368118  -0.000000 -0.000000 0.000000
time 19
0  0.000006 0.000000 0.000000  -1.570800 -1.391899 -1.570792
1  -9.841317 -7.634221 1.937669  -1.544956 -1.855077 -0.198630
2  6.027525 -0.000328 0.000190  0.093571 -1.485343 -2.098213
3  11.692113 0.000646 -0.000738  -0.990393 0.000005 -0.807567
4  11.480455 0.000564 -0.000475  1.011660 -0.329049 0.431076
5  3.666627 -0.163903 -1.204802  -0.520786 0.078133 -1.549187
6  1.312590 0.000008 0.000008  -0.003914 0.023741 -0.279500
7  0.729356 0.000054 0.000050  -0.003808 -0.000096 -0.341082
8  3.942140 0.046332 -0.431543  -0.205965 0.132196 -1.449654
9  1.539110 0.000082 0.000004  -0.000570 0.007396 -0.283198
10  1.196331 0.000146 0.000028  -0.000731 0.000001 -0.740195
11  3.883511 -0.047211 0.431351  -0.042690 0.198097 -1.260493
12  1.719573 -0.000028 0.000016  -0.000644 0.003280 -0.404344
13  1.209179 0.000090 0.000012  -0.000905 0.002861 -0.623853
14  3.859676 -0.138417 1.332379  -0.192829 0.314078 -1.200823
15  1.719448 -0.000018 0.000029  0.001027 0.002946 -0.232305
16  1.099675 0.000050 0.000006  0.000043 0.002457 -0.621579
17  0.459533 -0.272515 1.494839  -0.993276 -0.518349 -0.465024
18  1.789820 -0.000002 -0.000017  -0.001964 0.000105 0.251441
19  1.207017 -0.000012 -0.000044  -0.002235 -0.004014 0.005434
20  5.740636 0.000389 -0.000699  -0.121299 0.000003 0.000063
21  11.481100 0.000292 -0.000748  -0.094359 -0.065510 0.052795
22  6.027524 -0.000329 0.000201  1.509699 -0.059864 1.840614
23  0.000000 11.692100 -0.000007  -0.592426 -0.152865 -0.491570
24  0.000003 0.000008 -0.000000  -0.121332 -0.000031 1.570739
25  0.000000 -0.000011 0.000001  0.868960 0.000002 1.570712
26  -6.899342 -10.734701 0.826813  1.473120 1.855075 -0.198639
27  6.027517 -0.000263 -0.000216  1.647073 1.277751 -0.619518
28  11.691992 0.000162 0.000859  -0.116555 0.000016 -0.983312
29  11.480614 -0.000160 0.000808  -1.094028 0.325938 0.703064
30  3.710775 -0.434234 1.096848  0.700725 -0.025047 -1.894448
31  1.312560 0.000031 -0.000000  -0.004018 -0.052670 -0.157648
32  0.729347 0.000066 -0.000028  -0.098936 -0.154266 -1.256620
33  3.820805 -0.154609 0.327900  0.552081 -0.162420 -1.564601
34  1.539094 0.000002 -0.000002  0.035301 -0.048177 -0.684301
35  1.196301 0.000080 -0.000003  -0.018845 -0.012643 -1.421973
36  3.882445 -0.171892 -0.416804  0.578708 -0.286096 -1.376619
37  1.719565 -0.000085 -0.000005  -0.010330 -0.076021 -1.015000
38  1.209193 0.000035 0.000010  0.003432 -0.002384 -1.222575
39  3.859583 -0.149081 -1.331322  0.084755 -0.185240 -0.547088
40  1.719412 -0.000097 -0.000037  0.034383 0.016392 -0.911516
41  1.099673 0.000023 0.000006  -0.006995 -0.008413 -0.743478
42  0.230503 -0.805067 -1.086893  1.017215 0.462509 -0.609471
43  1.789780 -0.000007 -0.000042  -0.081444 -0.068283 0.252588
44  1.206995 -0.000007 0.000005  0.073274 0.023224 0.166518
45  5.740573 0.000079 0.000720  0.138342 -0.000014 0.000028
46  11.481068 0.000041 0.000907  0.074962 0.070558 0.109981
47  6.027515 -0.000273 -0.000229  -1.330947 -0.170030 -1.585288
48  -0.000001 11.691975 -0.000008  -0.709633 0.221586 0.583350
49  0.000004 -0.000000 -0.000000  2.155999 -0.000036 1.570860
50  -0.000007 -0.000012 0.000004  2.272645 -0.000036 1.570861
51  -2.561254 -8.427638 -4.540906  -0.198680 -2.962592 1.258463
52  -0.000001 0.000000 -0.000000  0.008153 -0.000259 0.000009
53  -0.000000 0.000000 -0.000000  1.565115 0.043565 -0.106862
54  0.120844 -10.227075 -5.809657  -0.571299 -0.011818 -1.960755
55  -0.000002 -0.000000 -0.000000  0.000000 -0.000001 -0.000002
56  0.000028 0.000029 0.000000  -1.571901 -0.044449 -0.106509
57  12.000549 -19.544212 -17.246658  1.570796 -0.000000 0.000000
58  -15.417984 4.000748 -22.641926  1.570796 -0.000000 0.000000
59  1.941978 9.263218 -8.327020  1.570796 -0.000000 0.000000
60  -0.004311 0.001229 -0.000372  0.006898 -0.005534 -0.284229
61  0.826810 11.791080 -4.879054  1.570796 -0.000000 0.000000
62  0.000000 0.000000 0.000000  -0.078727 -3.136056 0.284226
63  0.000000 0.000000 0.000000  1.570857 -0.000135 0.000034
64  -1.910991 -10.889102 -3.858017  1.554770 0.020582 0.000609
65  0.028727 1.510940 2.466707  -0.000000 -0.000000 0.000000
66  0.072472 2.040766 1.219715  -0.000000 -0.000000 0.000000
67  0.000001 2.151127 1.221220  -0.000000 -0.000000 0.000000
68  0.028727 1.768277 -0.467549  -1.134464 -0.000000 0.000000
69  0.073137 1.528051 2.605550  0.087266 -0.000000 0.000000
70  0.028728 2.472565 7.771826  -0.000000 -0.000000 0.000000
71  -1.870188 -11.586519 -1.896526  1.554770 0.020582 0.000609
72  -0.066937 -0.212759 0.439182  -0.000000 -0.000000 0.000000
73  0.134965 -0.491842 0.368116  -0.000000 -0.000000 0.000000
time 20
0  0.000006 0.000000 0.000000  -1.570800 -1.391899 -1.570792
1  -9.841317 -7.634221 1.937669  -1.544956 -1.855077 -0.198630
2  6.027525 -0.000328 0.000190  0.098559 -1.484985 -2.102086
3  11.692114 0.000646 -0.000739  -0.990393 0.000005 -0.806851
4  11.480477 0.000569 -0.000471  1.008142 -0.328489 0.428637
5  3.666626 -0.163904 -1.204802  -0.520786 0.078133 -1.549187
6  1.312590 0.000009 0.000009  -0.003914 0.023741 -0.279500
7  0.729354 0.000055 0.000049  -0.003808 -0.000096 -0.341082
8  3.942139 0.046331 -0.431542  -0.205965 0.132197 -1.449654
9  1.539110 0.000083 0.000003  -0.000570 0.007396 -0.283198
10  1.196332 0.000146 0.000029  -0.000731 0.000001 -0.740195
11  3.883510 -0.047212 0.431351  -0.042690 0.198097 -1.260493
12  1.719573 -0.000028 0.000016  -0.000644 0.003280 -0.404344
13  1.209179 0.000090 0.000012  -0.000905 0.002861 -0.623853
14  3.859677 -0.138418 1.332380  -0.192829 0.314078 -1.200823
15  1.719448 -0.000018 0.000029  0.001027 0.002946 -0.232305
16  1.099675 0.000048 0.000005  0.000043 0.002457 -0.621579
17  0.459533 -0.272516 1.494840  -0.993276 -0.518349 -0.465024
18  1.789821 -0.000003 -0.000016  -0.001964 0.000104 0.251441
19  1.207016 -0.000011 -0.000045  -0.002235 -0.004014 0.005434
20  5.740635 0.000389 -0.000699  -0.122013 0.000003 0.000063
21  11.481104 0.000294 -0.000747  -0.095118 -0.065438 0.052199
22  6.027524 -0.000329 0.000201  1.509144 -0.059807 1.841744
23  -0.000001 11.692098 -0.000007  -0.591937 -0.152607 -0.491181
24  0.000004 0.000009 -0.000001  -0.121333 -0.000031 1.570739
25  0.000000 -0.000012 0.000000  0.868960 0.000002 1.570712
26  -6.899342 -10.734701 0.826813  1.473120 1.855075 -0.198639
27  6.027517 -0.000263 -0.000216  1.647634 1.277431 -0.619072
28  11.691991 0.000162 0.000858  -0.116555 0.000016 -0.983518
29  11.480611 -0.000160 0.000809  -1.097981 0.326512 0.701869
30  3.710775 -0.434235 1.096848  0.700725 -0.025047 -1.894448
31  1.312560 0.000031 -0.000002  -0.004018 -0.052670 -0.157648
32  0.729347 0.000065 -0.000028  -0.098936 -0.154266 -1.256620
33  3.820806 -0.154609 0.327899  0.552081 -0.162420 -1.564601
34  1.539095 0.000004 -0.000001  0.035301 -0.048177 -0.684301
35  1.196302 0.000081 -0.000004  -0.018845 -0.012643 -1.421973
36  3.882445 -0.171893 -0.416805  0.578708 -0.286096 -1.376619
37  1.719565 -0.000084 -0.000004  -0.010330 -0.076021 -1.015000
38  1.209193 0.000035 0.000011  0.003432 -0.002384 -1.222575
39  3.859585 -0.149082 -1.331323  0.084755 -0.185240 -0.547088
40  1.719412 -0.000097 -0.000037  0.034383 0.016392 -0.911516
41  1.099672 0.000022 0.000006  -0.006995 -0.008413 -0.743478
42  0.230503 -0.805067 -1.086893  1.017215 0.462509 -0.609471
43  1.789779 -0.000008 -0.000042  -0.081444 -0.068283 0.252588
44  1.206995 -0.000006 0.000005  0.073274 0.023224 0.166518
45  5.740573 0.000078 0.000720  0.137511 -0.000014 0.000028
46  11.481068 0.000041 0.000907  0.074212 0.070390 0.109893
47  6.027515 -0.000273 -0.000229  -1.330586 -0.170079 -1.585441
48  -0.000001 11.691975 -0.000008  -0.709767 0.221673 0.583454
49  0.000003 -0.000000 0.000001  2.155999 -0.000036 1.570860
50  -0.000007 -0.000013 0.000004  2.272645 -0.000036 1.570861
51  -2.567060 -8.427318 -4.542240  -0.202220 -2.961353 1.258489
52  0.000000 -0.000000 0.000000  0.008153 -0.000259 0.000009
53  -0.000001 0.000000 -0.000001  1.565115 0.043565 -0.106862
54  0.109240 -10.228518 -5.820693  -0.574675 -0.013324 -1.961319
55  -0.000000 0.000000 -0.000000  -0.000000 -0.000001 -0.000002
56  0.000029 0.000029 0.000001  -1.571901 -0.044449 -0.106509
57  12.000549 -19.544212 -17.246658  1.570796 -0.000000 0.000000
58  -15.417984 4.000748 -22.641926  1.570796 -0.000000 0.000000
59  1.941978 9.263218 -8.327020  1.570796 -0.000000 0.000000
60  -0.004311 0.001229 -0.000372  0.006898 -0.005534 -0.284229
61  0.826810 11.791080 -4.879054  1.570796 -0.000000 0.000000
62  0.000000 0.000000 0.000000  -0.078727 -3.136056 0.284226
63  0.000000 0.000000 0.000000  1.570796 -0.000000 0.000000
64  -1.915771 -10.889102 -3.861487  1.554662 0.024277 -0.000000
65  0.028727 1.510940 2.466705  0.000000 0.000000 -0.000000
66  0.072472 2.040766 1.219713  0.000000 0.000000 -0.000000
67  0.000001 2.151127 1.221218  0.000000 0.000000 -0.000000
68  0.028727 1.768277 -0.467552  -1.134464 -0.000000 -0.000000
69  0.073137 1.528050 2.605547  0.087266 0.000000 -0.000000
70  0.028727 2.472565 7.771823  0.000000 0.000000 -0.000000
71  -1.868144 -11.586331 -1.900082  1.554662 0.024277 0.000000
72  -0.066937 -0.212759 0.439182  0.000000 0.000000 -0.000000
73  0.134965 -0.491842 0.368118  0.000000 0.000000 -0.000000
end
