version 1
nodes
0 "ValveBiped.Bip01_Spine4" -1
1 "ValveBiped.Bip01_L_Clavicle" 0
2 "ValveBiped.Bip01_L_UpperArm" 1
3 "ValveBiped.Bip01_L_Forearm" 2
4 "ValveBiped.Bip01_L_Hand" 3
5 "ValveBiped.Bip01_L_Finger4" 4
6 "ValveBiped.Bip01_L_Finger41" 5
7 "ValveBiped.Bip01_L_Finger42" 6
8 "ValveBiped.Bip01_L_Finger3" 4
9 "ValveBiped.Bip01_L_Finger31" 8
10 "ValveBiped.Bip01_L_Finger32" 9
11 "ValveBiped.Bip01_L_Finger2" 4
12 "ValveBiped.Bip01_L_Finger21" 11
13 "ValveBiped.Bip01_L_Finger22" 12
14 "ValveBiped.Bip01_L_Finger1" 4
15 "ValveBiped.Bip01_L_Finger11" 14
16 "ValveBiped.Bip01_L_Finger12" 15
17 "ValveBiped.Bip01_L_Finger0" 4
18 "ValveBiped.Bip01_L_Finger01" 17
19 "ValveBiped.Bip01_L_Finger02" 18
20 "ValveBiped.Bip01_L_Ulna" 3
21 "ValveBiped.Bip01_L_Wrist" 3
22 "rig_l_upperarm" 1
23 "rig_l_forearm" 22
24 "rig_d_l_forearm" 23
25 "rig_d_l_upperarm" 22
26 "ValveBiped.Bip01_R_Clavicle" 0
27 "ValveBiped.Bip01_R_UpperArm" 26
28 "ValveBiped.Bip01_R_Forearm" 27
29 "ValveBiped.Bip01_R_Hand" 28
30 "ValveBiped.Bip01_R_Finger4" 29
31 "ValveBiped.Bip01_R_Finger41" 30
32 "ValveBiped.Bip01_R_Finger42" 31
33 "ValveBiped.Bip01_R_Finger3" 29
34 "ValveBiped.Bip01_R_Finger31" 33
35 "ValveBiped.Bip01_R_Finger32" 34
36 "ValveBiped.Bip01_R_Finger2" 29
37 "ValveBiped.Bip01_R_Finger21" 36
38 "ValveBiped.Bip01_R_Finger22" 37
39 "ValveBiped.Bip01_R_Finger1" 29
40 "ValveBiped.Bip01_R_Finger11" 39
41 "ValveBiped.Bip01_R_Finger12" 40
42 "ValveBiped.Bip01_R_Finger0" 29
43 "ValveBiped.Bip01_R_Finger01" 42
44 "ValveBiped.Bip01_R_Finger02" 43
45 "ValveBiped.Bip01_R_Ulna" 28
46 "ValveBiped.Bip01_R_Wrist" 28
47 "rig_r_upperarm" 26
48 "rig_r_forearm" 47
49 "rig_d_r_forearm" 48
50 "rig_d_r_upperarm" 47
51 "rig_r_hand" -1
52 "rig_d_r_hand" 51
53 "rig_d_r_wrist" 52
54 "rig_l_hand" -1
55 "rig_d_l_hand" 54
56 "rig_d_l_wrist" 54
57 "rig_l_pole" -1
58 "rig_r_pole" -1
59 "rig_l_clavicle" -1
60 "rig_d_l_clavicle" 59
61 "rig_r_clavicle" -1
62 "rig_d_r_clavicle" 61
63 "Camera" -1
64 "body" -1
65 "trigger" 64
66 "bullet1" 64
67 "slide" 64
68 "hammer" 64
69 "sliderelease" 64
70 "barrel" 64
71 "mag" -1
72 "bullet2" 71
73 "bullet3" 71
end
skeleton
time 0
0  0.000006 0.000000 0.000000  -1.570800 -1.391899 -1.570792
1  -9.841317 -7.634221 1.937669  -1.544956 -1.855077 -0.198630
2  6.027525 -0.000328 0.000190  0.064089 -1.486698 -2.072783
3  11.692113 0.000643 -0.000739  -0.990394 0.000005 -0.813973
4  11.480266 0.000527 -0.000532  1.018108 -0.330576 0.460084
5  3.666628 -0.163904 -1.204802  -0.520786 0.078133 -1.549187
6  1.312590 0.000011 0.000007  -0.003914 0.023741 -0.279500
7  0.729355 0.000054 0.000048  -0.003808 -0.000096 -0.341082
8  3.942140 0.046330 -0.431542  -0.205965 0.132197 -1.449654
9  1.539110 0.000084 0.000004  -0.000570 0.007396 -0.283198
10  1.196332 0.000147 0.000029  -0.000731 0.000001 -0.740195
11  3.883511 -0.047213 0.431351  -0.042690 0.198097 -1.260493
12  1.719573 -0.000029 0.000016  -0.000644 0.003280 -0.404344
13  1.209179 0.000089 0.000011  -0.000905 0.002861 -0.623853
14  3.859677 -0.138419 1.332380  -0.192829 0.314078 -1.200823
15  1.719448 -0.000019 0.000028  0.001027 0.002946 -0.232305
16  1.099675 0.000048 0.000006  0.000043 0.002457 -0.621579
17  0.459533 -0.272517 1.494839  -0.993276 -0.518349 -0.465024
18  1.789819 -0.000003 -0.000016  -0.001964 0.000105 0.251441
19  1.207015 -0.000011 -0.000044  -0.002235 -0.004014 0.005434
20  5.740636 0.000387 -0.000700  -0.119690 0.000003 0.000063
21  11.481062 0.000284 -0.000759  -0.092338 -0.066732 0.058663
22  6.027524 -0.000329 0.000201  1.512430 -0.060663 1.836504
23  -0.000002 11.692097 -0.000008  -0.596785 -0.155181 -0.495036
24  0.000004 0.000009 0.000000  -0.121332 -0.000031 1.570739
25  -0.000001 -0.000012 -0.000000  0.868960 0.000002 1.570712
26  -6.899342 -10.734701 0.826813  1.473120 1.855075 -0.198639
27  6.027517 -0.000263 -0.000216  1.647747 1.278357 -0.618927
28  11.691990 0.000160 0.000859  -0.116555 0.000016 -0.984687
29  11.480604 -0.000162 0.000810  -1.073702 0.314712 0.724889
30  3.710774 -0.434235 1.096849  0.700725 -0.025047 -1.894448
31  1.312560 0.000030 -0.000002  -0.004018 -0.052670 -0.157648
32  0.729347 0.000066 -0.000028  -0.098936 -0.154266 -1.256620
33  3.820805 -0.154609 0.327900  0.552081 -0.162420 -1.564602
34  1.539094 0.000003 -0.000002  0.035301 -0.048177 -0.684301
35  1.196302 0.000080 -0.000003  -0.018845 -0.012643 -1.421973
36  3.882445 -0.171892 -0.416804  0.578708 -0.286096 -1.376619
37  1.719565 -0.000083 -0.000005  -0.010330 -0.076021 -1.015000
38  1.209193 0.000032 0.000011  0.003432 -0.002384 -1.222575
39  3.859585 -0.149082 -1.331322  0.066692 -0.224531 -0.536370
40  1.719412 -0.000097 -0.000037  0.031848 0.001107 -1.321952
41  1.099673 0.000023 0.000006  -0.004283 -0.008311 -0.727151
42  0.230503 -0.805067 -1.086893  1.017215 0.462509 -0.609471
43  1.789778 -0.000008 -0.000042  -0.081444 -0.068283 0.252588
44  1.206995 -0.000007 0.000005  0.073274 0.023224 0.166518
45  5.740573 0.000078 0.000721  0.143732 -0.000014 0.000028
46  11.481065 0.000041 0.000908  0.079042 0.070442 0.113900
47  6.027515 -0.000273 -0.000229  -1.331340 -0.169526 -1.585277
48  -0.000001 11.691974 -0.000007  -0.710531 0.222165 0.584040
49  0.000004 -0.000000 -0.000000  2.155999 -0.000036 1.570860
50  -0.000007 -0.000013 0.000005  2.272645 -0.000036 1.570861
51  -2.550343 -8.416403 -4.518041  -0.183852 -2.984196 1.255206
52  -0.000000 -0.000000 0.000000  0.008153 -0.000259 0.000009
53  -0.000000 0.000000 0.000000  1.565115 0.043565 -0.106862
54  0.156202 -10.197797 -5.760055  -0.558371 0.010839 -1.961535
55  -0.000000 0.000001 -0.000000  0.000000 -0.000001 -0.000002
56  0.000030 0.000029 0.000001  -1.571902 -0.044449 -0.106509
57  12.000549 -19.544212 -17.246658  1.570796 -0.000000 0.000000
58  -15.417984 4.000748 -22.641926  1.570796 -0.000000 0.000000
59  1.941978 9.263218 -8.327020  1.570796 -0.000000 0.000000
60  -0.004311 0.001229 -0.000372  0.006898 -0.005534 -0.284229
61  0.826810 11.791080 -4.879054  1.570796 -0.000000 0.000000
62  0.000000 0.000000 0.000000  -0.078727 -3.136056 0.284226
63  -1.922814 -1.786657 -0.616341  1.570796 -0.000000 0.000000
64  -1.915771 -10.889102 -3.861487  1.570796 -0.000000 0.000000
65  0.028727 1.510940 2.466706  0.437111 -0.000000 -0.000000
66  0.072472 2.040766 1.219715  0.000000 -0.000000 0.000000
67  0.000000 2.151127 2.901127  0.000000 -0.000000 0.000000
68  0.028727 1.793927 -0.354699  0.000000 -0.000000 0.000000
69  0.073137 1.528050 2.605549  0.000000 -0.000000 0.000000
70  0.028728 2.472564 7.771825  0.000000 -0.000000 0.000000
71  -1.915770 -11.617895 -1.911009  1.570796 -0.000000 0.000000
72  -0.066937 -0.212760 0.439182  0.000000 0.000000 0.000000
73  0.134965 -0.491842 0.368117  0.000000 0.000000 0.000000
time 1
0  0.000006 0.000000 0.000000  -1.570800 -1.391899 -1.570792
1  -9.841317 -7.634221 1.937669  -1.544956 -1.855077 -0.198630
2  6.027525 -0.000329 0.000190  -0.413826 -1.478223 -1.590238
3  11.692113 0.000645 -0.000739  -0.990401 0.000002 -0.922344
4  11.480537 0.000564 -0.000477  0.997238 -0.387700 0.498781
5  3.666629 -0.163903 -1.204802  -0.520786 0.078133 -1.549187
6  1.312590 0.000009 0.000008  -0.003914 0.023741 -0.279500
7  0.729356 0.000053 0.000049  -0.003808 -0.000096 -0.341082
8  3.942141 0.046332 -0.431542  -0.205965 0.132197 -1.449654
9  1.539111 0.000084 0.000004  -0.000570 0.007396 -0.283198
10  1.196332 0.000147 0.000029  -0.000731 0.000001 -0.740195
11  3.883512 -0.047212 0.431351  -0.042690 0.198097 -1.260493
12  1.719573 -0.000030 0.000017  -0.000644 0.003280 -0.404344
13  1.209179 0.000089 0.000012  -0.000905 0.002861 -0.623854
14  3.859679 -0.138417 1.332380  -0.192829 0.314078 -1.200823
15  1.719448 -0.000017 0.000028  0.001027 0.002946 -0.232305
16  1.099674 0.000050 0.000006  0.000043 0.002457 -0.621579
17  0.459535 -0.272515 1.494839  -0.993276 -0.518349 -0.465024
18  1.789820 -0.000003 -0.000016  -0.001964 0.000105 0.251441
19  1.207017 -0.000012 -0.000044  -0.002235 -0.004014 0.005434
20  5.740636 0.000388 -0.000699  -0.128524 0.000003 0.000063
21  11.481116 0.000292 -0.000748  -0.091914 -0.079995 0.062296
22  6.027524 -0.000329 0.000201  1.544434 -0.088834 1.840539
23  -0.000001 11.692098 -0.000007  -0.669559 -0.196577 -0.552298
24  0.000004 0.000009 -0.000000  -0.121332 -0.000031 1.570739
25  -0.000001 -0.000012 0.000001  0.868960 0.000002 1.570712
26  -6.899342 -10.734701 0.826813  1.473120 1.855075 -0.198639
27  6.027516 -0.000263 -0.000216  1.633409 1.233848 -0.632841
28  11.691991 0.000161 0.000858  -0.116550 0.000021 -1.082021
29  11.480803 -0.000098 0.000817  -1.072992 0.309674 0.767477
30  3.710775 -0.434235 1.096848  0.700725 -0.025047 -1.894448
31  1.312560 0.000032 -0.000001  -0.004018 -0.052670 -0.157648
32  0.729347 0.000066 -0.000028  -0.098936 -0.154266 -1.256620
33  3.820806 -0.154609 0.327899  0.552081 -0.162420 -1.564601
34  1.539094 0.000003 -0.000001  0.035301 -0.048177 -0.684301
35  1.196302 0.000079 -0.000003  -0.018845 -0.012643 -1.421973
36  3.882445 -0.171892 -0.416804  0.578708 -0.286096 -1.376619
37  1.719565 -0.000084 -0.000004  -0.010330 -0.076021 -1.015000
38  1.209193 0.000035 0.000011  0.003432 -0.002384 -1.222575
39  3.859584 -0.149082 -1.331322  0.066692 -0.224531 -0.536370
40  1.719412 -0.000097 -0.000037  0.031848 0.001107 -1.321952
41  1.099673 0.000024 0.000006  -0.004283 -0.008311 -0.727151
42  0.230503 -0.805067 -1.086893  1.017215 0.462509 -0.609471
43  1.789779 -0.000008 -0.000042  -0.081444 -0.068283 0.252588
44  1.206996 -0.000007 0.000005  0.073274 0.023224 0.166518
45  5.740572 0.000079 0.000721  0.153236 -0.000014 0.000028
46  11.481105 0.000054 0.000909  0.078508 0.071043 0.122457
47  6.027515 -0.000273 -0.000229  -1.296763 -0.198599 -1.591883
48  -0.000002 11.691975 -0.000007  -0.773383 0.264625 0.631754
49  0.000003 0.000000 0.000000  2.155999 -0.000036 1.570860
50  -0.000008 -0.000013 0.000004  2.272645 -0.000036 1.570861
51  -2.553217 -7.854862 -4.536250  -0.177914 -2.978903 1.262031
52  0.000000 0.000000 -0.000001  0.008153 -0.000259 0.000009
53  -0.000000 -0.000000 0.000000  1.565115 0.043565 -0.106862
54  0.171985 -9.623566 -5.755393  -0.552131 0.005998 -1.953712
55  -0.000000 0.000000 -0.000000  0.000000 -0.000001 -0.000002
56  0.000029 0.000029 0.000001  -1.571902 -0.044449 -0.106509
57  12.000549 -19.544212 -17.246658  1.570796 -0.000000 0.000000
58  -15.417984 4.000748 -22.641926  1.570796 -0.000000 0.000000
59  1.941978 9.263218 -8.327020  1.570796 -0.000000 0.000000
60  -0.004311 0.001229 -0.000372  0.006898 -0.005534 -0.284229
61  0.826810 11.791080 -4.879054  1.570796 -0.000000 0.000000
62  0.000000 0.000000 0.000000  -0.078727 -3.136056 0.284226
63  -1.922814 -1.786657 -0.616341  1.570796 -0.000000 0.000000
64  -1.902102 -10.318010 -3.860282  1.563944 -0.003926 0.007784
65  0.028727 1.510940 2.466706  0.437111 -0.000000 -0.000000
66  0.072472 2.040765 1.219715  -0.000000 -0.000000 -0.000000
67  0.000001 2.151127 1.221220  -0.000000 -0.000000 -0.000000
68  0.028727 1.768277 -0.467550  -1.134464 -0.000000 -0.000000
69  0.073137 1.528050 2.605549  -0.000000 -0.000000 -0.000000
70  0.028728 2.472564 7.771825  -0.000000 -0.000000 -0.000000
71  -1.904209 -11.033459 -1.904871  1.563944 -0.003926 0.007784
72  -0.066937 -0.212760 0.439181  -0.000000 -0.000000 -0.000000
73  0.134965 -0.491843 0.368116  -0.000000 -0.000000 -0.000000
time 2
0  0.000006 0.000000 0.000000  -1.570800 -1.391899 -1.570792
1  -9.841317 -7.634221 1.937669  -1.544956 -1.855077 -0.198630
2  6.027525 -0.000329 0.000190  -0.480576 -1.475030 -1.522659
3  11.692112 0.000645 -0.000738  -0.990402 0.000002 -0.940751
4  11.479937 0.000431 -0.000682  1.006643 -0.386065 0.492862
5  3.666629 -0.163903 -1.204802  -0.520786 0.078133 -1.549187
6  1.312590 0.000010 0.000008  -0.003914 0.023741 -0.279500
7  0.729354 0.000054 0.000049  -0.003808 -0.000096 -0.341082
8  3.942141 0.046331 -0.431543  -0.205965 0.132196 -1.449654
9  1.539109 0.000085 0.000004  -0.000570 0.007396 -0.283198
10  1.196332 0.000145 0.000028  -0.000731 0.000001 -0.740195
11  3.883510 -0.047212 0.431351  -0.042690 0.198097 -1.260493
12  1.719573 -0.000029 0.000017  -0.000644 0.003280 -0.404344
13  1.209178 0.000090 0.000012  -0.000905 0.002861 -0.623853
14  3.859677 -0.138418 1.332380  -0.192829 0.314078 -1.200823
15  1.719448 -0.000019 0.000028  0.001027 0.002946 -0.232305
16  1.099675 0.000049 0.000005  0.000043 0.002457 -0.621579
17  0.459532 -0.272516 1.494839  -0.993276 -0.518349 -0.465024
18  1.789819 -0.000005 -0.000016  -0.001964 0.000104 0.251441
19  1.207017 -0.000013 -0.000045  -0.002235 -0.004014 0.005434
20  5.740636 0.000389 -0.000700  -0.127376 0.000003 0.000064
21  11.480995 0.000266 -0.000790  -0.090418 -0.079046 0.061679
22  6.027524 -0.000329 0.000201  1.549721 -0.093508 1.841182
23  0.000000 11.692100 -0.000008  -0.681734 -0.204008 -0.561759
24  0.000003 0.000010 -0.000000  -0.121332 -0.000031 1.570738
25  -0.000000 -0.000010 -0.000000  0.868960 0.000002 1.570712
26  -6.899342 -10.734701 0.826813  1.473120 1.855075 -0.198639
27  6.027516 -0.000263 -0.000216  1.625554 1.221677 -0.639577
28  11.691992 0.000160 0.000859  -0.116548 0.000022 -1.107055
29  11.480637 -0.000177 0.000807  -1.067470 0.327785 0.777085
30  3.710776 -0.434235 1.096849  0.700725 -0.025047 -1.894448
31  1.312560 0.000031 -0.000001  -0.004018 -0.052670 -0.157648
32  0.729347 0.000066 -0.000027  -0.098936 -0.154266 -1.256620
33  3.820807 -0.154609 0.327899  0.552081 -0.162420 -1.564601
34  1.539094 0.000002 -0.000001  0.035301 -0.048177 -0.684301
35  1.196302 0.000080 -0.000003  -0.018845 -0.012643 -1.421973
36  3.882446 -0.171893 -0.416805  0.578708 -0.286096 -1.376619
37  1.719565 -0.000082 -0.000004  -0.010330 -0.076021 -1.015000
38  1.209193 0.000033 0.000012  0.003432 -0.002384 -1.222575
39  3.859585 -0.149082 -1.331322  0.066692 -0.224531 -0.536370
40  1.719413 -0.000097 -0.000037  0.031848 0.001107 -1.321952
41  1.099673 0.000024 0.000006  -0.004283 -0.008311 -0.727151
42  0.230504 -0.805067 -1.086893  1.017215 0.462509 -0.609471
43  1.789779 -0.000008 -0.000042  -0.081444 -0.068283 0.252588
44  1.206995 -0.000007 0.000005  0.073274 0.023224 0.166518
45  5.740574 0.000079 0.000721  0.156167 -0.000014 0.000028
46  11.481072 0.000038 0.000906  0.077861 0.075086 0.123210
47  6.027515 -0.000273 -0.000229  -1.288166 -0.207776 -1.592956
48  -0.000002 11.691974 -0.000008  -0.789322 0.276007 0.643660
49  0.000002 -0.000001 0.000000  2.155999 -0.000036 1.570860
50  -0.000007 -0.000013 0.000004  2.272645 -0.000036 1.570861
51  -2.536342 -7.703589 -4.573701  -0.169276 -2.965818 1.250222
52  0.000000 -0.000000 0.000000  0.008153 -0.000259 0.000009
53  0.000000 -0.000000 0.000000  1.565115 0.043565 -0.106862
54  0.175164 -9.518534 -5.754824  -0.542679 -0.006427 -1.964068
55  -0.000001 -0.000000 0.000001  0.000000 -0.000001 -0.000002
56  0.000029 0.000029 0.000001  -1.571902 -0.044449 -0.106509
57  12.000549 -19.544212 -17.246658  1.570796 -0.000000 0.000000
58  -15.417984 4.000748 -22.641926  1.570796 -0.000000 0.000000
59  1.941978 9.263218 -8.327020  1.570796 -0.000000 0.000000
60  -0.004311 0.001229 -0.000372  0.006898 -0.005534 -0.284229
61  0.826810 11.791080 -4.879054  1.570796 -0.000000 0.000000
62  0.000000 0.000000 0.000000  -0.078727 -3.136056 0.284226
63  -1.922814 -1.786657 -0.616341  1.570796 -0.000000 0.000000
64  -1.913526 -10.162842 -3.858045  1.548855 -0.007933 -0.002481
65  0.028727 1.510940 2.466706  0.437111 0.000000 -0.000000
66  0.023039 2.356646 1.431500  -0.210798 0.000000 -0.000000
67  0.000001 2.151127 1.221217  0.000000 0.000000 -0.000000
68  0.028727 1.768277 -0.467552  -1.134464 -0.000000 -0.000000
69  0.073137 1.528051 2.605548  0.000000 0.000000 -0.000000
70  0.028728 2.472565 7.771822  0.000000 0.000000 -0.000000
71  -1.930823 -10.848626 -1.892108  1.548855 -0.007933 -0.002481
72  -0.066937 -0.212759 0.439184  0.000000 0.000000 -0.000000
73  0.134965 -0.491842 0.368119  0.000000 0.000000 -0.000000
time 3
0  0.000006 0.000000 0.000000  -1.570800 -1.391899 -1.570792
1  -9.841317 -7.634221 1.937669  -1.544956 -1.855077 -0.198630
2  6.027525 -0.000329 0.000190  -0.386268 -1.478740 -1.616026
3  11.692112 0.000644 -0.000739  -0.990401 0.000002 -0.916772
4  11.480555 0.000568 -0.000469  1.000440 -0.365362 0.481361
5  3.666628 -0.163903 -1.204802  -0.520786 0.078133 -1.549187
6  1.312591 0.000010 0.000007  -0.003914 0.023741 -0.279500
7  0.729355 0.000055 0.000049  -0.003808 -0.000096 -0.341082
8  3.942141 0.046331 -0.431543  -0.205965 0.132196 -1.449654
9  1.539111 0.000082 0.000004  -0.000570 0.007396 -0.283198
10  1.196332 0.000145 0.000029  -0.000731 0.000001 -0.740195
11  3.883512 -0.047211 0.431351  -0.042690 0.198097 -1.260493
12  1.719573 -0.000029 0.000017  -0.000644 0.003280 -0.404344
13  1.209179 0.000091 0.000012  -0.000905 0.002861 -0.623854
14  3.859678 -0.138418 1.332380  -0.192829 0.314078 -1.200823
15  1.719448 -0.000020 0.000028  0.001027 0.002946 -0.232305
16  1.099675 0.000049 0.000006  0.000043 0.002457 -0.621579
17  0.459534 -0.272515 1.494839  -0.993276 -0.518349 -0.465024
18  1.789819 -0.000003 -0.000016  -0.001964 0.000105 0.251441
19  1.207017 -0.000012 -0.000045  -0.002235 -0.004014 0.005434
20  5.740636 0.000389 -0.000699  -0.127347 0.000003 0.000063
21  11.481118 0.000293 -0.000747  -0.093145 -0.074930 0.060246
22  6.027524 -0.000329 0.000201  1.542155 -0.087582 1.842391
23  -0.000001 11.692099 -0.000008  -0.665863 -0.194349 -0.549419
24  0.000004 0.000009 0.000000  -0.121332 -0.000030 1.570739
25  -0.000001 -0.000012 -0.000000  0.868960 0.000002 1.570712
26  -6.899342 -10.734701 0.826813  1.473120 1.855075 -0.198639
27  6.027516 -0.000263 -0.000216  1.628301 1.230704 -0.637027
28  11.691990 0.000162 0.000859  -0.116549 0.000021 -1.088901
29  11.480758 -0.000121 0.000814  -1.078224 0.334293 0.773988
30  3.710774 -0.434234 1.096848  0.700725 -0.025047 -1.894448
31  1.312560 0.000030 -0.000001  -0.004018 -0.052670 -0.157648
32  0.729348 0.000065 -0.000027  -0.098936 -0.154266 -1.256620
33  3.820805 -0.154609 0.327899  0.552081 -0.162420 -1.564601
34  1.539095 0.000003 -0.000001  0.035301 -0.048177 -0.684301
35  1.196302 0.000080 -0.000003  -0.018845 -0.012643 -1.421973
36  3.882445 -0.171892 -0.416804  0.578708 -0.286096 -1.376619
37  1.719566 -0.000083 -0.000005  -0.010330 -0.076021 -1.015000
38  1.209194 0.000033 0.000012  0.003432 -0.002384 -1.222575
39  3.859584 -0.149081 -1.331322  0.066692 -0.224531 -0.536370
40  1.719411 -0.000098 -0.000037  0.031848 0.001107 -1.321952
41  1.099673 0.000023 0.000006  -0.004283 -0.008311 -0.727151
42  0.230504 -0.805067 -1.086893  1.017215 0.462509 -0.609471
43  1.789779 -0.000007 -0.000042  -0.081444 -0.068283 0.252588
44  1.206995 -0.000007 0.000005  0.073274 0.023224 0.166518
45  5.740573 0.000078 0.000721  0.152430 -0.000014 0.000028
46  11.481096 0.000050 0.000908  0.075435 0.075480 0.122771
47  6.027515 -0.000273 -0.000229  -1.295138 -0.201797 -1.591574
48  -0.000001 11.691975 -0.000008  -0.777773 0.267735 0.635041
49  0.000004 0.000001 0.000000  2.155999 -0.000036 1.570860
50  -0.000007 -0.000013 0.000004  2.272645 -0.000036 1.570861
51  -2.529674 -7.812204 -4.555620  -0.181012 -2.966318 1.241830
52  -0.000000 -0.000000 -0.000001  0.008153 -0.000259 0.000009
53  -0.000000 0.000000 0.000000  1.565115 0.043565 -0.106862
54  0.149818 -9.650302 -5.773434  -0.554240 -0.006779 -1.974432
55  -0.000001 0.000000 0.000000  0.000000 -0.000001 -0.000002
56  0.000029 0.000029 0.000001  -1.571901 -0.044449 -0.106509
57  12.000549 -19.544212 -17.246658  1.570796 -0.000000 0.000000
58  -15.417984 4.000748 -22.641926  1.570796 -0.000000 0.000000
59  1.941978 9.263218 -8.327020  1.570796 -0.000000 0.000000
60  -0.004311 0.001229 -0.000372  0.006898 -0.005534 -0.284229
61  0.826810 11.791080 -4.879054  1.570796 -0.000000 0.000000
62  0.000000 0.000000 0.000000  -0.078727 -3.136056 0.284226
63  -1.922814 -1.786657 -0.616341  1.570796 -0.000000 0.000000
64  -1.924950 -10.280807 -3.856840  1.552933 0.002891 -0.012931
65  0.028728 1.510939 2.466706  0.437111 0.000000 0.000000
66  0.025836 2.455705 2.119562  0.000000 0.000000 0.000000
67  0.000001 2.151127 1.221218  0.000000 0.000000 0.000000
68  0.028727 1.768277 -0.467551  -1.134464 -0.000000 -0.000000
69  0.073137 1.528050 2.605548  0.000000 0.000000 0.000000
70  0.028728 2.472565 7.771823  0.000000 0.000000 0.000000
71  -1.928247 -10.974660 -1.893663  1.552933 0.002891 -0.012931
72  -0.066937 -0.212759 0.439180  0.000000 0.000000 0.000000
73  0.134965 -0.491842 0.368115  0.000000 0.000000 0.000000
time 4
0  0.000006 0.000000 0.000000  -1.570800 -1.391899 -1.570792
1  -9.841317 -7.634221 1.937669  -1.544956 -1.855077 -0.198630
2  6.027525 -0.000329 0.000190  -0.226347 -1.483149 -1.776007
3  11.692113 0.000646 -0.000739  -0.990398 0.000003 -0.878350
4  11.480704 0.000600 -0.000421  0.994491 -0.352182 0.469306
5  3.666627 -0.163904 -1.204801  -0.520786 0.078133 -1.549187
6  1.312590 0.000010 0.000008  -0.003914 0.023741 -0.279500
7  0.729357 0.000055 0.000050  -0.003808 -0.000096 -0.341082
8  3.942140 0.046331 -0.431542  -0.205965 0.132197 -1.449654
9  1.539110 0.000084 0.000004  -0.000570 0.007396 -0.283198
10  1.196333 0.000146 0.000029  -0.000731 0.000001 -0.740195
11  3.883510 -0.047213 0.431352  -0.042690 0.198097 -1.260493
12  1.719573 -0.000029 0.000018  -0.000644 0.003280 -0.404344
13  1.209179 0.000090 0.000012  -0.000905 0.002861 -0.623853
14  3.859676 -0.138419 1.332380  -0.192829 0.314078 -1.200823
15  1.719448 -0.000017 0.000029  0.001027 0.002946 -0.232305
16  1.099676 0.000046 0.000005  0.000043 0.002457 -0.621579
17  0.459533 -0.272516 1.494840  -0.993276 -0.518349 -0.465024
18  1.789819 -0.000003 -0.000016  -0.001964 0.000105 0.251441
19  1.207016 -0.000012 -0.000044  -0.002235 -0.004014 0.005434
20  5.740635 0.000388 -0.000700  -0.127049 0.000003 0.000064
21  11.481149 0.000299 -0.000738  -0.095364 -0.072183 0.058324
22  6.027524 -0.000329 0.000201  1.530595 -0.077987 1.842643
23  -0.000001 11.692099 -0.000008  -0.640242 -0.179279 -0.529371
24  0.000002 0.000009 -0.000001  -0.121332 -0.000031 1.570738
25  0.000000 -0.000012 -0.000000  0.868960 0.000002 1.570712
26  -6.899342 -10.734701 0.826813  1.473120 1.855075 -0.198639
27  6.027517 -0.000263 -0.000216  1.636837 1.248759 -0.629380
28  11.691990 0.000162 0.000859  -0.116551 0.000019 -1.049999
29  11.480311 -0.000290 0.000792  -1.089612 0.326222 0.753647
30  3.710774 -0.434235 1.096849  0.700725 -0.025047 -1.894448
31  1.312560 0.000032 -0.000000  -0.004018 -0.052670 -0.157648
32  0.729347 0.000064 -0.000027  -0.098936 -0.154266 -1.256620
33  3.820807 -0.154609 0.327900  0.552081 -0.162420 -1.564601
34  1.539095 0.000003 -0.000001  0.035301 -0.048177 -0.684301
35  1.196302 0.000079 -0.000003  -0.018845 -0.012643 -1.421973
36  3.882445 -0.171892 -0.416804  0.578708 -0.286096 -1.376619
37  1.719565 -0.000084 -0.000004  -0.010330 -0.076021 -1.015000
38  1.209193 0.000033 0.000011  0.003432 -0.002384 -1.222575
39  3.859584 -0.149082 -1.331322  0.076604 -0.205118 -0.547092
40  1.719411 -0.000097 -0.000037  0.032950 0.008063 -1.074741
41  1.099673 0.000023 0.000006  -0.005858 -0.008207 -0.712570
42  0.230503 -0.805066 -1.086893  1.017215 0.462509 -0.609471
43  1.789780 -0.000006 -0.000042  -0.081444 -0.068283 0.252588
44  1.206996 -0.000007 0.000005  0.073274 0.023224 0.166518
45  5.740572 0.000080 0.000721  0.146497 -0.000014 0.000028
46  11.481007 0.000016 0.000903  0.074483 0.072569 0.119687
47  6.027515 -0.000273 -0.000229  -1.308559 -0.189133 -1.589393
48  -0.000000 11.691975 -0.000007  -0.752863 0.250337 0.616305
49  0.000005 -0.000000 0.000000  2.155999 -0.000036 1.570860
50  -0.000007 -0.000014 0.000005  2.272645 -0.000036 1.570861
51  -2.543512 -8.043286 -4.528884  -0.194445 -2.971464 1.248219
52  0.000000 -0.000000 -0.000001  0.008153 -0.000259 0.000009
53  0.000000 0.000000 -0.000000  1.565115 0.043565 -0.106862
54  0.129922 -9.859161 -5.792490  -0.567825 -0.002651 -1.970288
55  -0.000001 0.000000 0.000000  0.000000 -0.000001 -0.000002
56  0.000029 0.000029 0.000001  -1.571901 -0.044449 -0.106509
57  12.000549 -19.544212 -17.246658  1.570796 -0.000000 0.000000
58  -15.417984 4.000748 -22.641926  1.570796 -0.000000 0.000000
59  1.941978 9.263218 -8.327020  1.570796 -0.000000 0.000000
60  -0.004311 0.001229 -0.000372  0.006898 -0.005534 -0.284229
61  0.826810 11.791080 -4.879054  1.570796 -0.000000 0.000000
62  0.000000 0.000000 0.000000  -0.078727 -3.136056 0.284226
63  -1.922814 -1.786657 -0.616341  1.570796 -0.000000 0.000000
64  -1.921258 -10.515620 -3.859292  1.561924 0.013879 -0.008776
65  0.028727 1.510940 2.466706  0.218555 0.000000 0.000000
66  0.072472 2.040765 1.219715  0.000000 0.000000 0.000000
67  0.000001 2.151127 1.221219  0.000000 0.000000 0.000000
68  0.028727 1.768277 -0.467550  -1.134464 -0.000000 -0.000000
69  0.073137 1.528050 2.605549  0.000000 0.000000 0.000000
70  0.028728 2.472564 7.771824  0.000000 0.000000 0.000000
71  -1.900344 -11.227291 -1.902613  1.561924 0.013879 -0.008776
72  -0.066937 -0.212759 0.439183  0.000000 0.000000 0.000000
73  0.134965 -0.491842 0.368116  0.000000 0.000000 0.000000
time 5
0  0.000006 0.000000 0.000000  -1.570800 -1.391899 -1.570792
1  -9.841317 -7.634221 1.937669  -1.544956 -1.855077 -0.198630
2  6.027525 -0.000329 0.000190  -0.045768 -1.486003 -1.959750
3  11.692113 0.000644 -0.000739  -0.990395 0.000005 -0.837370
4  11.480898 0.000640 -0.000361  1.003217 -0.340621 0.464443
5  3.666628 -0.163904 -1.204802  -0.520786 0.078133 -1.549187
6  1.312589 0.000010 0.000008  -0.003914 0.023741 -0.279500
7  0.729355 0.000054 0.000048  -0.003808 -0.000096 -0.341082
8  3.942141 0.046332 -0.431543  -0.205965 0.132196 -1.449654
9  1.539111 0.000084 0.000004  -0.000570 0.007396 -0.283198
10  1.196332 0.000145 0.000029  -0.000731 0.000001 -0.740195
11  3.883511 -0.047212 0.431350  -0.042690 0.198097 -1.260493
12  1.719573 -0.000028 0.000017  -0.000644 0.003280 -0.404344
13  1.209179 0.000090 0.000011  -0.000905 0.002861 -0.623853
14  3.859677 -0.138418 1.332379  -0.192829 0.314078 -1.200823
15  1.719448 -0.000016 0.000029  0.001027 0.002946 -0.232305
16  1.099675 0.000048 0.000005  0.000043 0.002457 -0.621579
17  0.459534 -0.272515 1.494838  -0.993276 -0.518349 -0.465024
18  1.789819 -0.000004 -0.000016  -0.001964 0.000105 0.251441
19  1.207018 -0.000012 -0.000043  -0.002235 -0.004014 0.005434
20  5.740635 0.000389 -0.000699  -0.123659 0.000003 0.000063
21  11.481187 0.000307 -0.000726  -0.094496 -0.069430 0.058363
22  6.027524 -0.000329 0.000201  1.518996 -0.067244 1.839651
23  0.000001 11.692100 -0.000007  -0.612656 -0.163769 -0.507622
24  0.000003 0.000009 -0.000000  -0.121332 -0.000031 1.570739
25  0.000000 -0.000012 -0.000000  0.868960 0.000002 1.570712
26  -6.899342 -10.734701 0.826813  1.473120 1.855075 -0.198639
27  6.027517 -0.000263 -0.000216  1.645061 1.268582 -0.621676
28  11.691991 0.000162 0.000858  -0.116553 0.000017 -1.006425
29  11.480497 -0.000210 0.000803  -1.084358 0.315038 0.733942
30  3.710775 -0.434235 1.096849  0.700725 -0.025047 -1.894448
31  1.312560 0.000032 -0.000001  -0.004018 -0.052670 -0.157648
32  0.729347 0.000064 -0.000029  -0.098936 -0.154266 -1.256620
33  3.820805 -0.154608 0.327900  0.552081 -0.162420 -1.564601
34  1.539095 0.000005 -0.000002  0.035301 -0.048177 -0.684301
35  1.196302 0.000080 -0.000003  -0.018845 -0.012643 -1.421973
36  3.882445 -0.171891 -0.416804  0.578708 -0.286096 -1.376619
37  1.719565 -0.000083 -0.000004  -0.010330 -0.076021 -1.015000
38  1.209193 0.000034 0.000012  0.003432 -0.002384 -1.222575
39  3.859584 -0.149081 -1.331322  0.086239 -0.185590 -0.557572
40  1.719411 -0.000097 -0.000037  0.035684 0.014691 -0.827502
41  1.099673 0.000022 0.000006  -0.007432 -0.008080 -0.697989
42  0.230504 -0.805067 -1.086893  1.017215 0.462509 -0.609471
43  1.789779 -0.000009 -0.000042  -0.081444 -0.068283 0.252588
44  1.206995 -0.000007 0.000005  0.073274 0.023224 0.166518
45  5.740573 0.000079 0.000720  0.143633 -0.000014 0.000028
46  11.481044 0.000031 0.000905  0.076807 0.070156 0.116121
47  6.027515 -0.000273 -0.000229  -1.323634 -0.175733 -1.586780
48  -0.000001 11.691974 -0.000009  -0.724692 0.231394 0.594891
49  0.000004 0.000001 0.000000  2.155999 -0.000036 1.570860
50  -0.000008 -0.000014 0.000003  2.272645 -0.000036 1.570861
51  -2.552745 -8.294585 -4.515507  -0.192873 -2.981524 1.255701
52  0.000000 0.000000 -0.000000  0.008153 -0.000259 0.000009
53  -0.000000 0.000000 0.000000  1.565115 0.043565 -0.106862
54  0.140475 -10.078213 -5.783021  -0.567051 0.007499 -1.962546
55  -0.000001 -0.000000 -0.000000  0.000000 -0.000001 -0.000002
56  0.000029 0.000029 0.000001  -1.571902 -0.044449 -0.106509
57  12.000549 -19.544212 -17.246658  1.570796 -0.000000 0.000000
58  -15.417984 4.000748 -22.641926  1.570796 -0.000000 0.000000
59  1.941978 9.263218 -8.327020  1.570796 -0.000000 0.000000
60  -0.004311 0.001229 -0.000372  0.006898 -0.005534 -0.284229
61  0.826810 11.791080 -4.879054  1.570796 -0.000000 0.000000
62  0.000000 0.000000 0.000000  -0.078727 -3.136056 0.284226
63  -1.922814 -1.786657 -0.616341  1.570796 -0.000000 0.000000
64  -1.914401 -10.768023 -3.865423  1.571015 0.009297 -0.000930
65  0.028727 1.510939 2.466707  -0.000000 0.000000 -0.000000
66  0.072472 2.040765 1.219716  -0.000000 0.000000 -0.000000
67  0.000000 2.151126 1.221221  -0.000000 0.000000 -0.000000
68  0.028727 1.768277 -0.467549  -1.134464 -0.000000 -0.000000
69  0.073137 1.528050 2.605550  -0.000000 0.000000 -0.000000
70  0.028727 2.472564 7.771825  -0.000000 0.000000 -0.000000
71  -1.896946 -11.497260 -1.915189  1.571015 0.009297 -0.000930
72  -0.066937 -0.212760 0.439183  0.000000 0.000000 -0.000000
73  0.134965 -0.491842 0.368118  0.000000 0.000000 -0.000000
time 6
0  0.000006 0.000000 0.000000  -1.570800 -1.391899 -1.570792
1  -9.841317 -7.634221 1.937669  -1.544956 -1.855077 -0.198630
2  6.027525 -0.000328 0.000190  0.121422 -1.486241 -2.130280
3  11.692112 0.000645 -0.000739  -0.990393 0.000005 -0.800837
4  11.480665 0.000603 -0.000416  1.017704 -0.327637 0.458406
5  3.666627 -0.163904 -1.204802  -0.520786 0.078133 -1.549187
6  1.312589 0.000011 0.000008  -0.003914 0.023741 -0.279500
7  0.729355 0.000054 0.000049  -0.003808 -0.000096 -0.341082
8  3.942141 0.046331 -0.431543  -0.205965 0.132196 -1.449654
9  1.539109 0.000084 0.000005  -0.000570 0.007396 -0.283198
10  1.196333 0.000145 0.000028  -0.000731 0.000001 -0.740195
11  3.883510 -0.047212 0.431351  -0.042690 0.198097 -1.260493
12  1.719573 -0.000027 0.000017  -0.000644 0.003280 -0.404344
13  1.209178 0.000090 0.000012  -0.000905 0.002861 -0.623854
14  3.859677 -0.138418 1.332380  -0.192829 0.314078 -1.200823
15  1.719448 -0.000018 0.000028  0.001027 0.002946 -0.232305
16  1.099675 0.000048 0.000005  0.000043 0.002457 -0.621579
17  0.459534 -0.272515 1.494839  -0.993276 -0.518349 -0.465024
18  1.789819 -0.000004 -0.000016  -0.001964 0.000105 0.251441
19  1.207017 -0.000013 -0.000045  -0.002235 -0.004014 0.005434
20  5.740637 0.000388 -0.000700  -0.119286 0.000003 0.000063
21  11.481142 0.000300 -0.000736  -0.092619 -0.066122 0.058465
22  6.027524 -0.000329 0.000201  1.508720 -0.057531 1.836354
23  -0.000001 11.692099 -0.000007  -0.587837 -0.150447 -0.487917
24  0.000004 0.000008 0.000000  -0.121332 -0.000031 1.570739
25  -0.000000 -0.000011 0.000000  0.868960 0.000002 1.570712
26  -6.899342 -10.734701 0.826813  1.473120 1.855075 -0.198639
27  6.027517 -0.000263 -0.000216  1.650450 1.284989 -0.616313
28  11.691991 0.000160 0.000858  -0.116556 0.000015 -0.969718
29  11.480688 -0.000125 0.000813  -1.074387 0.309980 0.717662
30  3.710775 -0.434234 1.096849  0.700725 -0.025047 -1.894448
31  1.312560 0.000031 -0.000001  -0.004018 -0.052670 -0.157648
32  0.729347 0.000066 -0.000028  -0.098936 -0.154266 -1.256620
33  3.820807 -0.154609 0.327899  0.552081 -0.162420 -1.564602
34  1.539094 0.000003 -0.000001  0.035301 -0.048177 -0.684301
35  1.196303 0.000080 -0.000003  -0.018845 -0.012643 -1.421973
36  3.882445 -0.171892 -0.416804  0.578708 -0.286096 -1.376619
37  1.719565 -0.000083 -0.000004  -0.010330 -0.076021 -1.015000
38  1.209193 0.000035 0.000011  0.003432 -0.002384 -1.222575
39  3.859585 -0.149082 -1.331322  0.085856 -0.185495 -0.555035
40  1.719412 -0.000096 -0.000037  0.035349 0.015248 -0.847790
41  1.099672 0.000022 0.000006  -0.007328 -0.008162 -0.708977
42  0.230504 -0.805067 -1.086893  1.017215 0.462509 -0.609471
43  1.789780 -0.000009 -0.000042  -0.081444 -0.068283 0.252588
44  1.206995 -0.000007 0.000005  0.073274 0.023224 0.166518
45  5.740573 0.000080 0.000721  0.142293 -0.000014 0.000028
46  11.481081 0.000050 0.000908  0.079444 0.069266 0.112738
47  6.027515 -0.000273 -0.000229  -1.336434 -0.165127 -1.584404
48  -0.000002 11.691975 -0.000008  -0.700737 0.215897 0.576504
49  0.000003 -0.000000 -0.000000  2.155999 -0.000036 1.570860
50  -0.000007 -0.000013 0.000004  2.272645 -0.000036 1.570861
51  -2.553809 -8.499373 -4.518782  -0.185894 -2.988093 1.258783
52  -0.000001 0.000000 0.000000  0.008153 -0.000259 0.000009
53  -0.000000 -0.000000 -0.000000  1.565115 0.043565 -0.106862
54  0.157629 -10.266538 -5.770417  -0.560676 0.014573 -1.958304
55  0.000000 0.000000 -0.000001  0.000000 -0.000001 -0.000002
56  0.000030 0.000029 0.000000  -1.571901 -0.044449 -0.106509
57  12.000549 -19.544212 -17.246658  1.570796 -0.000000 0.000000
58  -15.417984 4.000748 -22.641926  1.570796 -0.000000 0.000000
59  1.941978 9.263218 -8.327020  1.570796 -0.000000 0.000000
60  -0.004311 0.001229 -0.000372  0.006898 -0.005534 -0.284229
61  0.826810 11.791080 -4.879054  1.570796 -0.000000 0.000000
62  0.000000 0.000000 0.000000  -0.078727 -3.136056 0.284226
63  -1.922814 -1.786657 -0.616341  1.570796 -0.000000 0.000000
64  -1.910708 -10.972809 -3.873393  1.575127 0.000709 0.003262
65  0.028727 1.510940 2.466707  0.000000 0.000000 0.000000
66  0.072472 2.040766 1.219716  0.000000 0.000000 0.000000
67  0.000001 2.151127 1.221220  0.000000 0.000000 0.000000
68  0.028727 1.768277 -0.467550  -1.134464 -0.000000 -0.000000
69  0.073137 1.528051 2.605550  0.000000 0.000000 0.000000
70  0.028727 2.472565 7.771825  0.000000 0.000000 0.000000
71  -1.906923 -11.710033 -1.926090  1.575127 0.000709 0.003262
72  -0.066937 -0.212759 0.439183  0.000000 0.000000 0.000000
73  0.134965 -0.491842 0.368118  0.000000 0.000000 0.000000
time 7
0  0.000006 0.000000 0.000000  -1.570800 -1.391899 -1.570792
1  -9.841317 -7.634221 1.937669  -1.544956 -1.855077 -0.198630
2  6.027525 -0.000328 0.000190  0.202996 -1.485403 -2.213189
3  11.692112 0.000645 -0.000739  -0.990392 0.000006 -0.782636
4  11.480754 0.000620 -0.000389  1.027066 -0.318126 0.452477
5  3.666627 -0.163903 -1.204802  -0.520786 0.078133 -1.549187
6  1.312589 0.000011 0.000007  -0.003914 0.023741 -0.279500
7  0.729355 0.000054 0.000049  -0.003808 -0.000096 -0.341082
8  3.942140 0.046331 -0.431542  -0.205965 0.132196 -1.449654
9  1.539110 0.000085 0.000004  -0.000570 0.007396 -0.283198
10  1.196332 0.000147 0.000028  -0.000731 0.000001 -0.740195
11  3.883510 -0.047211 0.431351  -0.042690 0.198097 -1.260493
12  1.719573 -0.000029 0.000018  -0.000644 0.003280 -0.404344
13  1.209179 0.000090 0.000012  -0.000905 0.002861 -0.623854
14  3.859675 -0.138417 1.332380  -0.192829 0.314078 -1.200823
15  1.719448 -0.000019 0.000028  0.001027 0.002946 -0.232305
16  1.099675 0.000048 0.000006  0.000043 0.002457 -0.621579
17  0.459534 -0.272515 1.494840  -0.993276 -0.518349 -0.465024
18  1.789820 -0.000004 -0.000017  -0.001964 0.000105 0.251441
19  1.207015 -0.000013 -0.000044  -0.002235 -0.004014 0.005434
20  5.740636 0.000388 -0.000698  -0.116656 0.000003 0.000063
21  11.481159 0.000304 -0.000731  -0.091499 -0.063690 0.058168
22  6.027524 -0.000329 0.000201  1.503590 -0.052802 1.835008
23  0.000000 11.692099 -0.000007  -0.575393 -0.143992 -0.477993
24  0.000003 0.000008 0.000000  -0.121332 -0.000031 1.570739
25  0.000000 -0.000011 0.000001  0.868960 0.000002 1.570712
26  -6.899342 -10.734701 0.826813  1.473120 1.855075 -0.198639
27  6.027517 -0.000263 -0.000216  1.651193 1.291890 -0.615297
28  11.691990 0.000161 0.000858  -0.116556 0.000014 -0.953626
29  11.480780 -0.000088 0.000816  -1.068536 0.312072 0.710419
30  3.710774 -0.434234 1.096848  0.700725 -0.025047 -1.894448
31  1.312560 0.000030 -0.000001  -0.004018 -0.052670 -0.157648
32  0.729347 0.000066 -0.000027  -0.098936 -0.154266 -1.256620
33  3.820807 -0.154609 0.327900  0.552081 -0.162420 -1.564601
34  1.539096 0.000003 -0.000002  0.035301 -0.048177 -0.684301
35  1.196302 0.000080 -0.000004  -0.018845 -0.012643 -1.421973
36  3.882445 -0.171892 -0.416804  0.578708 -0.286096 -1.376619
37  1.719565 -0.000083 -0.000005  -0.010330 -0.076021 -1.015000
38  1.209194 0.000035 0.000011  0.003432 -0.002384 -1.222575
39  3.859585 -0.149081 -1.331322  0.085102 -0.185320 -0.549619
40  1.719410 -0.000097 -0.000037  0.034693 0.016055 -0.891223
41  1.099673 0.000023 0.000006  -0.007102 -0.008334 -0.732490
42  0.230504 -0.805067 -1.086893  1.017215 0.462509 -0.609471
43  1.789779 -0.000007 -0.000042  -0.081444 -0.068283 0.252588
44  1.206994 -0.000007 0.000005  0.073274 0.023224 0.166518
45  5.740573 0.000080 0.000721  0.141867 -0.000013 0.000028
46  11.481099 0.000057 0.000908  0.080559 0.069756 0.110967
47  6.027515 -0.000273 -0.000229  -1.342076 -0.161044 -1.583187
48  -0.000002 11.691976 -0.000008  -0.690169 0.209241 0.568344
49  0.000004 -0.000000 -0.000001  2.155999 -0.000036 1.570860
50  -0.000008 -0.000012 0.000004  2.272645 -0.000036 1.570861
51  -2.549647 -8.587573 -4.531948  -0.181164 -2.988655 1.257072
52  -0.000001 -0.000000 -0.000000  0.008153 -0.000259 0.000009
53  0.000000 0.000000 -0.000000  1.565115 0.043565 -0.106862
54  0.165791 -10.358545 -5.769445  -0.556056 0.015484 -1.959224
55  -0.000002 0.000000 0.000001  0.000000 -0.000001 -0.000002
56  0.000028 0.000029 0.000002  -1.571902 -0.044449 -0.106509
57  12.000549 -19.544212 -17.246658  1.570796 -0.000000 0.000000
58  -15.417984 4.000748 -22.641926  1.570796 -0.000000 0.000000
59  1.941978 9.263218 -8.327020  1.570796 -0.000000 0.000000
60  -0.004311 0.001229 -0.000372  0.006898 -0.005534 -0.284229
61  0.826810 11.791080 -4.879054  1.570796 -0.000000 0.000000
62  0.000000 0.000000 0.000000  -0.078727 -3.136056 0.284226
63  -1.922814 -1.786657 -0.616341  1.570796 -0.000000 0.000000
64  -1.911986 -11.061054 -3.881363  1.574210 -0.003909 0.002275
65  0.028727 1.510939 2.466706  0.000000 0.000000 0.000000
66  0.072472 2.040766 1.219714  0.000000 0.000000 0.000000
67  0.000001 2.151127 1.221218  0.000000 0.000000 0.000000
68  0.028727 1.768277 -0.467550  -1.134464 -0.000000 -0.000000
69  0.073137 1.528050 2.605549  0.000000 0.000000 0.000000
70  0.028727 2.472564 7.771825  0.000000 0.000000 0.000000
71  -1.917928 -11.796517 -1.933399  1.574210 -0.003909 0.002275
72  -0.066937 -0.212759 0.439182  0.000000 0.000000 0.000000
73  0.134965 -0.491843 0.368118  0.000000 0.000000 0.000000
time 8
0  0.000006 0.000000 0.000000  -1.570800 -1.391899 -1.570792
1  -9.841317 -7.634221 1.937669  -1.544956 -1.855077 -0.198630
2  6.027525 -0.000328 0.000190  0.188497 -1.485437 -2.197895
3  11.692113 0.000646 -0.000739  -0.990392 0.000006 -0.785302
4  11.480742 0.000617 -0.000391  1.026760 -0.317152 0.450528
5  3.666628 -0.163903 -1.204803  -0.520786 0.078133 -1.549187
6  1.312590 0.000010 0.000008  -0.003914 0.023741 -0.279500
7  0.729354 0.000054 0.000049  -0.003808 -0.000096 -0.341082
8  3.942140 0.046331 -0.431543  -0.205965 0.132196 -1.449654
9  1.539110 0.000083 0.000004  -0.000570 0.007396 -0.283198
10  1.196332 0.000146 0.000028  -0.000731 0.000001 -0.740195
11  3.883511 -0.047212 0.431350  -0.042690 0.198097 -1.260493
12  1.719573 -0.000028 0.000017  -0.000644 0.003280 -0.404344
13  1.209179 0.000090 0.000012  -0.000905 0.002861 -0.623853
14  3.859677 -0.138418 1.332379  -0.192829 0.314078 -1.200823
15  1.719448 -0.000018 0.000028  0.001027 0.002946 -0.232305
16  1.099675 0.000050 0.000006  0.000043 0.002457 -0.621579
17  0.459535 -0.272515 1.494839  -0.993276 -0.518349 -0.465024
18  1.789819 -0.000003 -0.000016  -0.001964 0.000105 0.251441
19  1.207018 -0.000012 -0.000044  -0.002235 -0.004014 0.005434
20  5.740636 0.000387 -0.000698  -0.116786 0.000003 0.000063
21  11.481157 0.000302 -0.000731  -0.091655 -0.063438 0.057822
22  6.027524 -0.000329 0.000201  1.504387 -0.053748 1.835814
23  -0.000000 11.692100 -0.000008  -0.577219 -0.144930 -0.479451
24  0.000004 0.000008 -0.000001  -0.121332 -0.000031 1.570739
25  0.000001 -0.000012 0.000000  0.868960 0.000002 1.570712
26  -6.899342 -10.734701 0.826813  1.473120 1.855075 -0.198639
27  6.027517 -0.000263 -0.000216  1.649187 1.289723 -0.617095
28  11.691989 0.000160 0.000859  -0.116556 0.000014 -0.957596
29  11.480755 -0.000098 0.000816  -1.069213 0.315405 0.711684
30  3.710775 -0.434235 1.096849  0.700725 -0.025047 -1.894448
31  1.312560 0.000031 -0.000000  -0.004018 -0.052670 -0.157648
32  0.729347 0.000066 -0.000028  -0.098936 -0.154266 -1.256620
33  3.820806 -0.154609 0.327899  0.552081 -0.162420 -1.564601
34  1.539095 0.000004 -0.000001  0.035301 -0.048177 -0.684301
35  1.196302 0.000079 -0.000002  -0.018845 -0.012643 -1.421973
36  3.882445 -0.171892 -0.416804  0.578708 -0.286096 -1.376619
37  1.719566 -0.000083 -0.000005  -0.010330 -0.076021 -1.015000
38  1.209194 0.000035 0.000012  0.003432 -0.002384 -1.222575
39  3.859586 -0.149082 -1.331322  0.084755 -0.185240 -0.547088
40  1.719410 -0.000097 -0.000037  0.034383 0.016392 -0.911516
41  1.099673 0.000022 0.000006  -0.006995 -0.008413 -0.743478
42  0.230503 -0.805067 -1.086893  1.017215 0.462509 -0.609471
43  1.789780 -0.000007 -0.000042  -0.081444 -0.068283 0.252588
44  1.206995 -0.000007 0.000005  0.073274 0.023224 0.166518
45  5.740572 0.000080 0.000720  0.141915 -0.000014 0.000028
46  11.481095 0.000054 0.000908  0.080155 0.070381 0.111085
47  6.027515 -0.000273 -0.000229  -1.340587 -0.162731 -1.583297
48  -0.000001 11.691976 -0.000008  -0.692780 0.210875 0.570363
49  0.000004 -0.000000 -0.000001  2.155999 -0.000036 1.570860
50  -0.000006 -0.000012 0.000004  2.272645 -0.000036 1.570861
51  -2.547747 -8.567009 -4.542841  -0.181401 -2.986296 1.254952
52  -0.000001 0.000000 -0.000000  0.008153 -0.000259 0.000009
53  -0.000000 0.000000 0.000000  1.565115 0.043565 -0.106862
54  0.162684 -10.346518 -5.779073  -0.556114 0.013114 -1.961381
55  0.000001 0.000001 -0.000000  0.000000 -0.000001 -0.000002
56  0.000031 0.000029 0.000001  -1.571901 -0.044449 -0.106509
57  12.000549 -19.544212 -17.246658  1.570796 -0.000000 0.000000
58  -15.417984 4.000748 -22.641926  1.570796 -0.000000 0.000000
59  1.941978 9.263218 -8.327020  1.570796 -0.000000 0.000000
60  -0.004311 0.001229 -0.000372  0.006898 -0.005534 -0.284229
61  0.826810 11.791080 -4.879054  1.570796 -0.000000 0.000000
62  0.000000 0.000000 0.000000  -0.078727 -3.136056 0.284226
63  -1.922814 -1.786657 -0.616341  1.570796 -0.000000 0.000000
64  -1.914798 -11.040444 -3.887495  1.572041 -0.002953 0.000125
65  0.028727 1.510940 2.466706  0.000000 -0.000000 0.000000
66  0.072472 2.040766 1.219715  0.000000 -0.000000 0.000000
67  0.000001 2.151127 1.221219  0.000000 -0.000000 0.000000
68  0.028727 1.768277 -0.467551  -1.134464 -0.000000 -0.000000
69  0.073137 1.528051 2.605548  0.000000 -0.000000 0.000000
70  0.028728 2.472565 7.771822  0.000000 -0.000000 0.000000
71  -1.920463 -11.771666 -1.937933  1.572041 -0.002953 0.000125
72  -0.066937 -0.212759 0.439183  0.000000 -0.000000 0.000000
73  0.134965 -0.491842 0.368118  0.000000 -0.000000 0.000000
time 9
0  0.000006 0.000000 0.000000  -1.570800 -1.391899 -1.570792
1  -9.841317 -7.634221 1.937669  -1.544956 -1.855077 -0.198630
2  6.027525 -0.000328 0.000190  0.147737 -1.485747 -2.155998
3  11.692114 0.000645 -0.000739  -0.990392 0.000005 -0.793903
4  11.480719 0.000614 -0.000400  1.024263 -0.318973 0.450013
5  3.666628 -0.163904 -1.204802  -0.520786 0.078133 -1.549187
6  1.312589 0.000010 0.000008  -0.003914 0.023741 -0.279500
7  0.729354 0.000055 0.000049  -0.003808 -0.000096 -0.341082
8  3.942140 0.046331 -0.431543  -0.205965 0.132197 -1.449654
9  1.539110 0.000085 0.000004  -0.000570 0.007396 -0.283198
10  1.196332 0.000146 0.000028  -0.000731 0.000001 -0.740195
11  3.883511 -0.047212 0.431351  -0.042690 0.198097 -1.260493
12  1.719573 -0.000027 0.000017  -0.000644 0.003280 -0.404344
13  1.209180 0.000092 0.000011  -0.000905 0.002861 -0.623854
14  3.859676 -0.138418 1.332379  -0.192829 0.314078 -1.200823
15  1.719448 -0.000019 0.000028  0.001027 0.002946 -0.232305
16  1.099675 0.000048 0.000006  0.000043 0.002457 -0.621579
17  0.459533 -0.272515 1.494839  -0.993276 -0.518349 -0.465024
18  1.789821 -0.000002 -0.000016  -0.001964 0.000104 0.251441
19  1.207017 -0.000012 -0.000044  -0.002235 -0.004014 0.005434
20  5.740636 0.000389 -0.000698  -0.117598 0.000003 0.000063
21  11.481153 0.000303 -0.000733  -0.092045 -0.063866 0.057528
22  6.027524 -0.000329 0.000201  1.506859 -0.056204 1.836963
23  -0.000000 11.692098 -0.000008  -0.583102 -0.147973 -0.484145
24  0.000003 0.000008 -0.000000  -0.121332 -0.000031 1.570738
25  0.000000 -0.000012 0.000000  0.868960 0.000002 1.570712
26  -6.899342 -10.734701 0.826813  1.473120 1.855075 -0.198639
27  6.027517 -0.000263 -0.000216  1.646772 1.285141 -0.619360
28  11.691991 0.000161 0.000859  -0.116556 0.000015 -0.967130
29  11.480700 -0.000123 0.000813  -1.071342 0.318764 0.715258
30  3.710775 -0.434234 1.096848  0.700725 -0.025047 -1.894448
31  1.312560 0.000031 -0.000002  -0.004018 -0.052670 -0.157648
32  0.729347 0.000064 -0.000027  -0.098936 -0.154266 -1.256620
33  3.820805 -0.154608 0.327899  0.552081 -0.162420 -1.564601
34  1.539094 0.000004 -0.000002  0.035301 -0.048177 -0.684301
35  1.196303 0.000080 -0.000004  -0.018845 -0.012643 -1.421973
36  3.882445 -0.171892 -0.416805  0.578708 -0.286096 -1.376619
37  1.719565 -0.000084 -0.000005  -0.010330 -0.076021 -1.015000
38  1.209193 0.000035 0.000011  0.003432 -0.002384 -1.222575
39  3.859585 -0.149082 -1.331322  0.084755 -0.185240 -0.547088
40  1.719413 -0.000097 -0.000037  0.034383 0.016392 -0.911516
41  1.099674 0.000023 0.000006  -0.006995 -0.008413 -0.743478
42  0.230504 -0.805067 -1.086893  1.017215 0.462509 -0.609471
43  1.789779 -0.000008 -0.000042  -0.081444 -0.068283 0.252588
44  1.206995 -0.000007 0.000005  0.073274 0.023224 0.166518
45  5.740573 0.000078 0.000721  0.142193 -0.000014 0.000028
46  11.481083 0.000049 0.000908  0.079420 0.071003 0.111716
47  6.027515 -0.000273 -0.000229  -1.337158 -0.165893 -1.583803
48  -0.000002 11.691975 -0.000008  -0.699040 0.214822 0.575196
49  0.000003 -0.000001 -0.000000  2.155999 -0.000036 1.570860
50  -0.000008 -0.000013 0.000004  2.272645 -0.000036 1.570861
51  -2.546603 -8.515826 -4.550379  -0.182601 -2.983181 1.252982
52  0.000000 -0.000000 -0.000001  0.008153 -0.000259 0.000009
53  0.000000 -0.000000 -0.000000  1.565115 0.043565 -0.106862
54  0.157387 -10.304378 -5.787663  -0.557063 0.009919 -1.963549
55  -0.000001 0.000001 0.000000  0.000000 -0.000001 -0.000002
56  0.000029 0.000030 0.000001  -1.571901 -0.044449 -0.106509
57  12.000549 -19.544212 -17.246658  1.570796 -0.000000 0.000000
58  -15.417984 4.000748 -22.641926  1.570796 -0.000000 0.000000
59  1.941978 9.263218 -8.327020  1.570796 -0.000000 0.000000
60  -0.004311 0.001229 -0.000372  0.006898 -0.005534 -0.284229
61  0.826810 11.791080 -4.879054  1.570796 -0.000000 0.000000
62  0.000000 0.000000 0.000000  -0.078727 -3.136056 0.284226
63  -1.922814 -1.786657 -0.616341  1.570796 -0.000000 0.000000
64  -1.917610 -10.988918 -3.889947  1.569448 -0.000859 -0.002027
65  0.028727 1.510939 2.466705  0.000000 0.000000 0.000000
66  0.072472 2.040765 1.219714  0.000000 0.000000 0.000000
67  0.000000 2.151127 1.221218  0.000000 0.000000 0.000000
68  0.028727 1.768277 -0.467551  -1.134464 -0.000000 -0.000000
69  0.073137 1.528050 2.605548  0.000000 0.000000 0.000000
70  0.028727 2.472564 7.771822  0.000000 0.000000 0.000000
71  -1.920758 -11.715076 -1.938488  1.569448 -0.000859 -0.002027
72  -0.066937 -0.212759 0.439182  0.000000 0.000000 0.000000
73  0.134965 -0.491842 0.368116  0.000000 0.000000 0.000000
time 10
0  0.000006 0.000000 0.000000  -1.570800 -1.391899 -1.570792
1  -9.841317 -7.634221 1.937669  -1.544956 -1.855077 -0.198630
2  6.027525 -0.000328 0.000190  0.092008 -1.486083 -2.099243
3  11.692113 0.000643 -0.000739  -0.990393 0.000005 -0.805979
4  11.480506 0.000572 -0.000462  1.020741 -0.323621 0.451470
5  3.666627 -0.163904 -1.204802  -0.520786 0.078133 -1.549187
6  1.312589 0.000009 0.000007  -0.003914 0.023741 -0.279500
7  0.729355 0.000053 0.000049  -0.003808 -0.000096 -0.341082
8  3.942140 0.046331 -0.431544  -0.205965 0.132197 -1.449654
9  1.539110 0.000084 0.000004  -0.000570 0.007396 -0.283198
10  1.196332 0.000145 0.000028  -0.000731 0.000001 -0.740195
11  3.883510 -0.047212 0.431350  -0.042690 0.198097 -1.260493
12  1.719573 -0.000029 0.000017  -0.000644 0.003280 -0.404344
13  1.209180 0.000089 0.000012  -0.000905 0.002861 -0.623853
14  3.859677 -0.138418 1.332379  -0.192829 0.314078 -1.200823
15  1.719448 -0.000019 0.000028  0.001027 0.002946 -0.232305
16  1.099676 0.000048 0.000006  0.000043 0.002457 -0.621579
17  0.459533 -0.272516 1.494839  -0.993276 -0.518349 -0.465024
18  1.789820 -0.000002 -0.000017  -0.001964 0.000105 0.251441
19  1.207015 -0.000012 -0.000044  -0.002235 -0.004014 0.005434
20  5.740635 0.000389 -0.000699  -0.118783 0.000003 0.000063
21  11.481111 0.000294 -0.000745  -0.092429 -0.064952 0.057437
22  6.027524 -0.000329 0.000201  1.510323 -0.059441 1.837990
23  -0.000001 11.692097 -0.000008  -0.591344 -0.152293 -0.490709
24  0.000004 0.000009 0.000000  -0.121332 -0.000031 1.570739
25  -0.000001 -0.000012 0.000000  0.868960 0.000002 1.570712
26  -6.899342 -10.734701 0.826813  1.473120 1.855075 -0.198639
27  6.027517 -0.000263 -0.000216  1.644753 1.279576 -0.621335
28  11.691990 0.000161 0.000859  -0.116555 0.000015 -0.979228
29  11.480633 -0.000150 0.000809  -1.073775 0.320654 0.719867
30  3.710774 -0.434234 1.096848  0.700725 -0.025047 -1.894448
31  1.312561 0.000031 -0.000000  -0.004018 -0.052670 -0.157648
32  0.729347 0.000065 -0.000028  -0.098936 -0.154266 -1.256620
33  3.820806 -0.154609 0.327899  0.552081 -0.162420 -1.564601
34  1.539094 0.000003 -0.000002  0.035301 -0.048177 -0.684301
35  1.196303 0.000081 -0.000003  -0.018845 -0.012643 -1.421973
36  3.882445 -0.171893 -0.416805  0.578708 -0.286096 -1.376619
37  1.719565 -0.000083 -0.000004  -0.010330 -0.076021 -1.015000
38  1.209193 0.000035 0.000011  0.003432 -0.002384 -1.222575
39  3.859583 -0.149081 -1.331322  0.084755 -0.185240 -0.547088
40  1.719411 -0.000097 -0.000037  0.034383 0.016392 -0.911516
41  1.099672 0.000023 0.000006  -0.006995 -0.008413 -0.743478
42  0.230504 -0.805067 -1.086893  1.017215 0.462509 -0.609471
43  1.789780 -0.000008 -0.000042  -0.081444 -0.068283 0.252588
44  1.206994 -0.000007 0.000005  0.073274 0.023224 0.166518
45  5.740572 0.000079 0.000720  0.142719 -0.000014 0.000028
46  11.481070 0.000044 0.000906  0.078710 0.071367 0.112635
47  6.027515 -0.000273 -0.000229  -1.332855 -0.169539 -1.584561
48  -0.000002 11.691975 -0.000008  -0.706963 0.219871 0.581298
49  0.000004 -0.000000 -0.000000  2.155999 -0.000036 1.570860
50  -0.000007 -0.000013 0.000004  2.272645 -0.000036 1.570861
51  -2.546843 -8.449664 -4.552443  -0.183930 -2.980463 1.252212
52  0.000000 0.000000 -0.000000  0.008153 -0.000259 0.000009
53  -0.000001 0.000000 -0.000000  1.565115 0.043565 -0.106862
54  0.152793 -10.243557 -5.791503  -0.558167 0.007111 -1.964540
55  0.000001 0.000000 -0.000000  0.000000 -0.000001 -0.000002
56  0.000031 0.000029 0.000001  -1.571901 -0.044449 -0.106509
57  12.000549 -19.544212 -17.246658  1.570796 -0.000000 0.000000
58  -15.417984 4.000748 -22.641926  1.570796 -0.000000 0.000000
59  1.941978 9.263218 -8.327020  1.570796 -0.000000 0.000000
60  -0.004311 0.001229 -0.000372  0.006898 -0.005534 -0.284229
61  0.826810 11.791080 -4.879054  1.570796 -0.000000 0.000000
62  0.000000 0.000000 0.000000  -0.078727 -3.136056 0.284226
63  -1.922814 -1.786657 -0.616341  1.570796 -0.000000 0.000000
64  -1.918888 -10.921936 -3.887961  1.567272 0.001232 -0.003009
65  0.028727 1.510940 2.466706  -0.000000 0.000000 -0.000000
66  0.072472 2.040766 1.219715  -0.000000 0.000000 -0.000000
67  0.000000 2.151126 1.221219  -0.000000 0.000000 -0.000000
68  0.028727 1.768277 -0.467551  -1.134464 -0.000000 -0.000000
69  0.073137 1.528050 2.605550  -0.000000 0.000000 -0.000000
70  0.028728 2.472565 7.771822  -0.000000 0.000000 -0.000000
71  -1.918654 -11.643854 -1.934927  1.567272 0.001232 -0.003009
72  -0.066937 -0.212760 0.439182  -0.000000 0.000000 -0.000000
73  0.134965 -0.491843 0.368117  -0.000000 0.000000 -0.000000
time 11
0  0.000006 0.000000 0.000000  -1.570800 -1.391899 -1.570792
1  -9.841317 -7.634221 1.937669  -1.544956 -1.855077 -0.198630
2  6.027525 -0.000328 0.000190  0.033011 -1.486286 -2.039652
3  11.692112 0.000645 -0.000739  -0.990394 0.000005 -0.818900
4  11.480123 0.000500 -0.000574  1.017306 -0.330133 0.455282
5  3.666627 -0.163904 -1.204802  -0.520786 0.078133 -1.549187
6  1.312589 0.000010 0.000008  -0.003914 0.023741 -0.279500
7  0.729354 0.000056 0.000049  -0.003808 -0.000096 -0.341082
8  3.942141 0.046331 -0.431543  -0.205965 0.132196 -1.449654
9  1.539110 0.000084 0.000005  -0.000570 0.007396 -0.283198
10  1.196333 0.000146 0.000028  -0.000731 0.000001 -0.740195
11  3.883510 -0.047212 0.431351  -0.042690 0.198097 -1.260493
12  1.719573 -0.000029 0.000017  -0.000644 0.003280 -0.404344
13  1.209179 0.000090 0.000011  -0.000905 0.002861 -0.623854
14  3.859677 -0.138418 1.332380  -0.192829 0.314078 -1.200823
15  1.719448 -0.000018 0.000029  0.001027 0.002946 -0.232305
16  1.099675 0.000049 0.000006  0.000043 0.002457 -0.621579
17  0.459534 -0.272516 1.494839  -0.993276 -0.518349 -0.465024
18  1.789820 -0.000003 -0.000016  -0.001964 0.000105 0.251441
19  1.207016 -0.000012 -0.000044  -0.002235 -0.004014 0.005434
20  5.740636 0.000389 -0.000699  -0.120005 0.000003 0.000063
21  11.481033 0.000280 -0.000768  -0.092633 -0.066485 0.057712
22  6.027524 -0.000329 0.000201  1.514062 -0.062751 1.838567
23  -0.000000 11.692100 -0.000008  -0.600135 -0.156973 -0.497696
24  0.000003 0.000009 -0.000001  -0.121333 -0.000030 1.570739
25  -0.000000 -0.000010 0.000000  0.868960 0.000002 1.570712
26  -6.899342 -10.734701 0.826813  1.473120 1.855075 -0.198639
27  6.027517 -0.000263 -0.000216  1.643471 1.274306 -0.622673
28  11.691991 0.000160 0.000858  -0.116554 0.000016 -0.991095
29  11.480572 -0.000176 0.000807  -1.075267 0.320338 0.724888
30  3.710775 -0.434235 1.096848  0.700725 -0.025047 -1.894448
31  1.312560 0.000031 -0.000000  -0.004018 -0.052670 -0.157648
32  0.729347 0.000065 -0.000027  -0.098936 -0.154266 -1.256620
33  3.820806 -0.154609 0.327899  0.552081 -0.162420 -1.564601
34  1.539094 0.000003 -0.000002  0.035301 -0.048177 -0.684301
35  1.196302 0.000080 -0.000002  -0.018845 -0.012643 -1.421973
36  3.882445 -0.171893 -0.416804  0.578708 -0.286096 -1.376619
37  1.719564 -0.000084 -0.000005  -0.010330 -0.076021 -1.015000
38  1.209194 0.000033 0.000011  0.003432 -0.002384 -1.222575
39  3.859584 -0.149083 -1.331322  0.084755 -0.185239 -0.547088
40  1.719412 -0.000096 -0.000037  0.034383 0.016392 -0.911516
41  1.099672 0.000023 0.000006  -0.006995 -0.008413 -0.743478
42  0.230504 -0.805068 -1.086893  1.017215 0.462509 -0.609471
43  1.789780 -0.000007 -0.000042  -0.081444 -0.068283 0.252588
44  1.206995 -0.000006 0.000005  0.073274 0.023224 0.166518
45  5.740573 0.000078 0.000721  0.143531 -0.000014 0.000028
46  11.481058 0.000038 0.000907  0.078330 0.071392 0.113699
47  6.027515 -0.000273 -0.000229  -1.328679 -0.172854 -1.585383
48  -0.000002 11.691976 -0.000008  -0.714713 0.224870 0.587251
49  0.000004 -0.000000 0.000000  2.155999 -0.000036 1.570860
50  -0.000007 -0.000012 0.000004  2.272645 -0.000036 1.570861
51  -2.548031 -8.383604 -4.549155  -0.184560 -2.979300 1.252816
52  -0.000000 0.000000 -0.000000  0.008153 -0.000259 0.000009
53  -0.000000 -0.000000 -0.000001  1.565115 0.043565 -0.106862
54  0.151323 -10.177265 -5.789161  -0.558700 0.005905 -1.964041
55  -0.000001 -0.000000 0.000000  0.000000 -0.000001 -0.000002
56  0.000029 0.000029 0.000001  -1.571901 -0.044449 -0.106509
57  12.000549 -19.544212 -17.246658  1.570796 -0.000000 0.000000
58  -15.417984 4.000748 -22.641926  1.570796 -0.000000 0.000000
59  1.941978 9.263218 -8.327020  1.570796 -0.000000 0.000000
60  -0.004311 0.001229 -0.000372  0.006898 -0.005534 -0.284229
61  0.826810 11.791080 -4.879054  1.570796 -0.000000 0.000000
62  0.000000 0.000000 0.000000  -0.078727 -3.136056 0.284226
63  -1.922814 -1.786657 -0.616341  1.570796 -0.000000 0.000000
64  -1.918199 -10.854953 -3.883025  1.566360 0.002184 -0.002508
65  0.028727 1.510939 2.466705  0.000000 0.000000 0.000000
66  0.072472 2.040765 1.219715  0.000000 0.000000 0.000000
67  0.000000 2.151127 1.221219  0.000000 0.000000 0.000000
68  0.028727 1.768277 -0.467550  -1.134464 -0.000000 -0.000000
69  0.073137 1.528050 2.605549  0.000000 0.000000 0.000000
70  0.028728 2.472564 7.771824  0.000000 0.000000 0.000000
71  -1.915739 -11.575093 -1.929337  1.566360 0.002184 -0.002508
72  -0.066937 -0.212759 0.439181  0.000000 0.000000 0.000000
73  0.134965 -0.491842 0.368116  0.000000 0.000000 0.000000
time 12
0  0.000006 0.000000 0.000000  -1.570800 -1.391899 -1.570792
1  -9.841317 -7.634221 1.937669  -1.544956 -1.855077 -0.198630
2  6.027525 -0.000329 0.000190  -0.014833 -1.486355 -1.991764
3  11.692113 0.000644 -0.000739  -0.990395 0.000005 -0.829555
4  11.479820 0.000439 -0.000665  1.014449 -0.336176 0.460917
5  3.666627 -0.163904 -1.204802  -0.520786 0.078133 -1.549187
6  1.312589 0.000010 0.000007  -0.003914 0.023741 -0.279500
7  0.729355 0.000053 0.000049  -0.003808 -0.000096 -0.341082
8  3.942141 0.046332 -0.431543  -0.205965 0.132196 -1.449654
9  1.539111 0.000084 0.000004  -0.000570 0.007396 -0.283198
10  1.196332 0.000146 0.000028  -0.000731 0.000001 -0.740195
11  3.883510 -0.047211 0.431351  -0.042690 0.198097 -1.260493
12  1.719573 -0.000028 0.000017  -0.000644 0.003280 -0.404344
13  1.209179 0.000089 0.000012  -0.000905 0.002861 -0.623853
14  3.859678 -0.138417 1.332379  -0.192829 0.314078 -1.200823
15  1.719448 -0.000017 0.000029  0.001027 0.002946 -0.232305
16  1.099675 0.000049 0.000006  0.000043 0.002457 -0.621579
17  0.459534 -0.272515 1.494839  -0.993276 -0.518349 -0.465024
18  1.789819 -0.000004 -0.000016  -0.001964 0.000105 0.251441
19  1.207017 -0.000012 -0.000043  -0.002235 -0.004014 0.005434
20  5.740636 0.000389 -0.000698  -0.121008 0.000003 0.000064
21  11.480972 0.000268 -0.000785  -0.092701 -0.067980 0.058387
22  6.027524 -0.000329 0.000201  1.517168 -0.065339 1.838582
23  0.000001 11.692101 -0.000007  -0.607365 -0.160878 -0.503431
24  0.000003 0.000009 -0.000000  -0.121332 -0.000030 1.570738
25  0.000001 -0.000012 0.000000  0.868960 0.000002 1.570712
26  -6.899342 -10.734701 0.826813  1.473120 1.855075 -0.198639
27  6.027517 -0.000263 -0.000216  1.643097 1.270527 -0.623180
28  11.691992 0.000161 0.000859  -0.116554 0.000017 -1.000146
29  11.480525 -0.000198 0.000805  -1.075468 0.318243 0.730090
30  3.710774 -0.434235 1.096849  0.700725 -0.025047 -1.894448
31  1.312560 0.000031 -0.000001  -0.004018 -0.052670 -0.157648
32  0.729347 0.000065 -0.000028  -0.098936 -0.154266 -1.256620
33  3.820807 -0.154610 0.327899  0.552081 -0.162420 -1.564601
34  1.539094 0.000002 -0.000002  0.035301 -0.048177 -0.684301
35  1.196302 0.000082 -0.000004  -0.018845 -0.012643 -1.421973
36  3.882445 -0.171893 -0.416805  0.578708 -0.286096 -1.376619
37  1.719566 -0.000083 -0.000005  -0.010330 -0.076021 -1.015000
38  1.209193 0.000034 0.000011  0.003432 -0.002384 -1.222575
39  3.859584 -0.149082 -1.331322  0.084755 -0.185240 -0.547088
40  1.719412 -0.000097 -0.000038  0.034383 0.016392 -0.911516
41  1.099673 0.000022 0.000006  -0.006995 -0.008413 -0.743478
42  0.230503 -0.805067 -1.086893  1.017215 0.462509 -0.609471
43  1.789778 -0.000008 -0.000042  -0.081444 -0.068283 0.252588
44  1.206996 -0.000007 0.000005  0.073274 0.023224 0.166518
45  5.740572 0.000078 0.000721  0.144487 -0.000014 0.000028
46  11.481049 0.000033 0.000905  0.078319 0.071171 0.114827
47  6.027515 -0.000273 -0.000229  -1.325594 -0.175102 -1.586067
48  -0.000001 11.691976 -0.000007  -0.720609 0.228712 0.591768
49  0.000003 -0.000000 0.000000  2.155999 -0.000036 1.570860
50  -0.000007 -0.000012 0.000005  2.272645 -0.000036 1.570861
51  -2.548983 -8.332140 -4.540690  -0.184475 -2.980335 1.253909
52  -0.000000 -0.000000 -0.000000  0.008153 -0.000259 0.000009
53  -0.000000 -0.000000 0.000000  1.565115 0.043565 -0.106862
54  0.152853 -10.121626 -5.781323  -0.558694 0.006943 -1.962934
55  -0.000001 0.000000 0.000000  0.000000 -0.000001 -0.000002
56  0.000029 0.000029 0.000001  -1.571901 -0.044449 -0.106509
57  12.000549 -19.544212 -17.246658  1.570796 -0.000000 0.000000
58  -15.417984 4.000748 -22.641926  1.570796 -0.000000 0.000000
59  1.941978 9.263218 -8.327020  1.570796 -0.000000 0.000000
60  -0.004311 0.001229 -0.000372  0.006898 -0.005534 -0.284229
61  0.826810 11.791080 -4.879054  1.570796 -0.000000 0.000000
62  0.000000 0.000000 0.000000  -0.078727 -3.136056 0.284226
63  -1.922814 -1.786657 -0.616341  1.570796 -0.000000 0.000000
64  -1.916684 -10.803427 -3.876670  1.567317 0.001783 -0.001399
65  0.028727 1.510940 2.466705  0.000000 0.000000 -0.000000
66  0.072472 2.040766 1.219714  0.000000 0.000000 -0.000000
67  0.000000 2.151127 1.221218  0.000000 0.000000 -0.000000
68  0.028727 1.768277 -0.467550  -1.134464 -0.000000 -0.000000
69  0.073137 1.528051 2.605548  0.000000 0.000000 -0.000000
70  0.028727 2.472565 7.771822  0.000000 0.000000 -0.000000
71  -1.914211 -11.525434 -1.923671  1.567317 0.001783 -0.001399
72  -0.066937 -0.212760 0.439181  0.000000 0.000000 -0.000000
73  0.134965 -0.491843 0.368116  0.000000 0.000000 -0.000000
time 13
0  0.000006 0.000000 0.000000  -1.570800 -1.391899 -1.570792
1  -9.841317 -7.634221 1.937669  -1.544956 -1.855077 -0.198630
2  6.027525 -0.000329 0.000190  -0.037734 -1.486428 -1.969236
3  11.692112 0.000646 -0.000738  -0.990395 0.000005 -0.834822
4  11.480915 0.000644 -0.000354  1.012632 -0.339699 0.465873
5  3.666627 -0.163903 -1.204801  -0.520786 0.078133 -1.549187
6  1.312590 0.000009 0.000008  -0.003914 0.023741 -0.279500
7  0.729354 0.000054 0.000048  -0.003808 -0.000096 -0.341082
8  3.942140 0.046332 -0.431542  -0.205965 0.132196 -1.449654
9  1.539110 0.000083 0.000004  -0.000570 0.007396 -0.283198
10  1.196333 0.000146 0.000028  -0.000731 0.000001 -0.740195
11  3.883510 -0.047211 0.431352  -0.042690 0.198097 -1.260493
12  1.719573 -0.000028 0.000017  -0.000644 0.003280 -0.404344
13  1.209179 0.000089 0.000012  -0.000905 0.002861 -0.623854
14  3.859676 -0.138418 1.332380  -0.192829 0.314078 -1.200823
15  1.719448 -0.000017 0.000029  0.001027 0.002946 -0.232305
16  1.099675 0.000047 0.000005  0.000043 0.002457 -0.621579
17  0.459534 -0.272515 1.494840  -0.993276 -0.518349 -0.465024
18  1.789819 -0.000002 -0.000016  -0.001964 0.000105 0.251441
19  1.207017 -0.000012 -0.000044  -0.002235 -0.004014 0.005434
20  5.740636 0.000389 -0.000699  -0.121576 0.000003 0.000063
21  11.481192 0.000309 -0.000724  -0.092724 -0.068926 0.059098
22  6.027524 -0.000329 0.000201  1.518722 -0.066491 1.838189
23  0.000001 11.692100 -0.000008  -0.610932 -0.162824 -0.506257
24  0.000004 0.000008 -0.000000  -0.121332 -0.000031 1.570739
25  0.000001 -0.000012 -0.000000  0.868960 0.000002 1.570712
26  -6.899342 -10.734701 0.826813  1.473120 1.855075 -0.198639
27  6.027517 -0.000263 -0.000216  1.643699 1.269318 -0.622751
28  11.691992 0.000161 0.000859  -0.116554 0.000017 -1.003742
29  11.480511 -0.000203 0.000802  -1.075068 0.315531 0.733517
30  3.710775 -0.434235 1.096849  0.700725 -0.025047 -1.894448
31  1.312560 0.000031 -0.000001  -0.004018 -0.052670 -0.157648
32  0.729347 0.000065 -0.000028  -0.098936 -0.154266 -1.256620
33  3.820806 -0.154609 0.327899  0.552081 -0.162420 -1.564602
34  1.539094 0.000003 -0.000001  0.035301 -0.048177 -0.684301
35  1.196302 0.000081 -0.000003  -0.018845 -0.012643 -1.421973
36  3.882446 -0.171893 -0.416804  0.578708 -0.286096 -1.376619
37  1.719565 -0.000084 -0.000005  -0.010330 -0.076021 -1.015000
38  1.209194 0.000034 0.000011  0.003432 -0.002384 -1.222575
39  3.859586 -0.149082 -1.331322  0.084755 -0.185240 -0.547088
40  1.719411 -0.000098 -0.000037  0.034383 0.016392 -0.911516
41  1.099672 0.000023 0.000006  -0.006995 -0.008413 -0.743478
42  0.230505 -0.805067 -1.086893  1.017215 0.462509 -0.609471
43  1.789779 -0.000008 -0.000042  -0.081444 -0.068283 0.252588
44  1.206995 -0.000007 0.000005  0.073274 0.023224 0.166518
45  5.740572 0.000079 0.000721  0.145122 -0.000014 0.000028
46  11.481046 0.000033 0.000905  0.078513 0.070811 0.115611
47  6.027515 -0.000273 -0.000229  -1.324482 -0.175646 -1.586407
48  -0.000001 11.691975 -0.000008  -0.722949 0.230247 0.593558
49  0.000003 -0.000001 -0.000000  2.155999 -0.000036 1.570860
50  -0.000007 -0.000014 0.000004  2.272645 -0.000036 1.570861
51  -2.549615 -8.310839 -4.529811  -0.184283 -2.982611 1.254985
52  0.000000 0.000000 0.000000  0.008153 -0.000259 0.000009
53  0.000001 -0.000000 0.000000  1.565115 0.043565 -0.106862
54  0.155300 -10.094723 -5.771802  -0.558677 0.009226 -1.961828
55  0.000000 0.000000 0.000000  0.000000 -0.000001 -0.000002
56  0.000030 0.000029 0.000001  -1.571901 -0.044449 -0.106509
57  12.000549 -19.544212 -17.246658  1.570796 -0.000000 0.000000
58  -15.417984 4.000748 -22.641926  1.570796 -0.000000 0.000000
59  1.941978 9.263218 -8.327020  1.570796 -0.000000 0.000000
60  -0.004311 0.001229 -0.000372  0.006898 -0.005534 -0.284229
61  0.826810 11.791080 -4.879054  1.570796 -0.000000 0.000000
62  0.000000 0.000000 0.000000  -0.078727 -3.136056 0.284226
63  -1.922814 -1.786657 -0.616341  1.570796 -0.000000 0.000000
64  -1.915168 -10.782817 -3.870430  1.569422 0.000897 -0.000290
65  0.028727 1.510940 2.466707  0.000000 0.000000 0.000000
66  0.072472 2.040766 1.219716  0.000000 0.000000 0.000000
67  0.000001 2.151127 1.221219  0.000000 0.000000 0.000000
68  0.028727 1.768277 -0.467550  -1.134464 -0.000000 -0.000000
69  0.073137 1.528051 2.605548  0.000000 0.000000 0.000000
70  0.028728 2.472565 7.771823  0.000000 0.000000 0.000000
71  -1.913628 -11.508929 -1.918952  1.569422 0.000897 -0.000290
72  -0.066937 -0.212759 0.439182  0.000000 0.000000 0.000000
73  0.134965 -0.491843 0.368118  0.000000 0.000000 0.000000
time 14
0  0.000006 0.000000 0.000000  -1.570800 -1.391899 -1.570792
1  -9.841317 -7.634221 1.937669  -1.544956 -1.855077 -0.198630
2  6.027525 -0.000329 0.000190  -0.029767 -1.486607 -1.977797
3  11.692112 0.000647 -0.000739  -0.990395 0.000005 -0.833472
4  11.480921 0.000643 -0.000354  1.012475 -0.339600 0.468176
5  3.666626 -0.163902 -1.204801  -0.520786 0.078133 -1.549187
6  1.312590 0.000009 0.000008  -0.003914 0.023741 -0.279501
7  0.729354 0.000052 0.000049  -0.003808 -0.000096 -0.341082
8  3.942139 0.046332 -0.431542  -0.205965 0.132196 -1.449654
9  1.539110 0.000084 0.000004  -0.000570 0.007396 -0.283198
10  1.196332 0.000145 0.000029  -0.000731 0.000001 -0.740195
11  3.883510 -0.047210 0.431352  -0.042690 0.198097 -1.260493
12  1.719573 -0.000029 0.000017  -0.000644 0.003280 -0.404344
13  1.209180 0.000090 0.000012  -0.000905 0.002861 -0.623853
14  3.859676 -0.138417 1.332380  -0.192829 0.314078 -1.200823
15  1.719448 -0.000018 0.000027  0.001027 0.002946 -0.232305
16  1.099675 0.000048 0.000006  0.000043 0.002457 -0.621579
17  0.459533 -0.272515 1.494840  -0.993276 -0.518349 -0.465024
18  1.789820 -0.000003 -0.000016  -0.001964 0.000105 0.251441
19  1.207017 -0.000012 -0.000044  -0.002235 -0.004014 0.005434
20  5.740636 0.000388 -0.000700  -0.121537 0.000003 0.000063
21  11.481193 0.000307 -0.000725  -0.092700 -0.069008 0.059546
22  6.027524 -0.000329 0.000201  1.518306 -0.065934 1.837595
23  0.000001 11.692098 -0.000007  -0.610018 -0.162324 -0.505533
24  0.000003 0.000009 0.000000  -0.121332 -0.000031 1.570739
25  0.000002 -0.000012 -0.000000  0.868960 0.000002 1.570712
26  -6.899342 -10.734701 0.826813  1.473120 1.855075 -0.198639
27  6.027517 -0.000263 -0.000216  1.644858 1.270558 -0.621734
28  11.691991 0.000163 0.000859  -0.116554 0.000017 -1.001804
29  11.480517 -0.000200 0.000802  -1.074390 0.313557 0.734355
30  3.710776 -0.434235 1.096848  0.700725 -0.025047 -1.894448
31  1.312560 0.000031 -0.000000  -0.004018 -0.052670 -0.157648
32  0.729347 0.000065 -0.000027  -0.098936 -0.154266 -1.256620
33  3.820806 -0.154609 0.327900  0.552081 -0.162420 -1.564602
34  1.539095 0.000003 -0.000001  0.035301 -0.048177 -0.684301
35  1.196302 0.000081 -0.000002  -0.018845 -0.012643 -1.421973
36  3.882445 -0.171892 -0.416804  0.578708 -0.286096 -1.376619
37  1.719565 -0.000084 -0.000004  -0.010330 -0.076021 -1.015000
38  1.209194 0.000034 0.000012  0.003432 -0.002384 -1.222575
39  3.859586 -0.149082 -1.331322  0.084755 -0.185240 -0.547088
40  1.719412 -0.000096 -0.000037  0.034383 0.016392 -0.911516
41  1.099673 0.000024 0.000006  -0.006996 -0.008413 -0.743478
42  0.230504 -0.805067 -1.086893  1.017215 0.462509 -0.609471
43  1.789780 -0.000008 -0.000042  -0.081444 -0.068283 0.252588
44  1.206995 -0.000007 0.000005  0.073274 0.023224 0.166518
45  5.740571 0.000079 0.000721  0.145262 -0.000014 0.000028
46  11.481046 0.000033 0.000905  0.078767 0.070516 0.115840
47  6.027515 -0.000273 -0.000229  -1.325318 -0.174657 -1.586352
48  -0.000001 11.691974 -0.000008  -0.721688 0.229419 0.592593
49  0.000004 -0.000001 -0.000000  2.155999 -0.000036 1.570860
50  -0.000008 -0.000013 0.000004  2.272645 -0.000036 1.570861
51  -2.549587 -8.320828 -4.520580  -0.184089 -2.984886 1.255457
52  -0.000000 0.000000 0.000000  0.008153 -0.000259 0.000009
53  0.000000 -0.000000 0.000000  1.565115 0.043565 -0.106862
54  0.157329 -10.100737 -5.763915  -0.558656 0.011510 -1.961324
55  0.000001 0.000000 -0.000000  0.000000 -0.000001 -0.000002
56  0.000031 0.000029 0.000001  -1.571902 -0.044449 -0.106509
57  12.000549 -19.544212 -17.246658  1.570796 -0.000000 0.000000
58  -15.417984 4.000748 -22.641926  1.570796 -0.000000 0.000000
59  1.941978 9.263218 -8.327020  1.570796 -0.000000 0.000000
60  -0.004311 0.001229 -0.000372  0.006898 -0.005534 -0.284229
61  0.826810 11.791080 -4.879054  1.570796 -0.000000 0.000000
62  0.000000 0.000000 0.000000  -0.078727 -3.136056 0.284226
63  -1.922814 -1.786657 -0.616341  1.570796 -0.000000 0.000000
64  -1.914479 -10.793870 -3.865835  1.571526 0.000008 0.000214
65  0.028727 1.510940 2.466707  0.000000 0.000000 -0.000000
66  0.072472 2.040766 1.219716  0.000000 0.000000 -0.000000
67  0.000000 2.151127 1.221220  0.000000 0.000000 -0.000000
68  0.028727 1.768277 -0.467551  -1.134464 -0.000000 -0.000000
69  0.073137 1.528051 2.605550  0.000000 0.000000 -0.000000
70  0.028727 2.472565 7.771825  0.000000 0.000000 -0.000000
71  -1.914306 -11.524085 -1.915888  1.571526 0.000008 0.000214
72  -0.066937 -0.212760 0.439183  0.000000 0.000000 -0.000000
73  0.134965 -0.491843 0.368118  0.000000 0.000000 -0.000000
time 15
0  0.000006 0.000000 0.000000  -1.570800 -1.391899 -1.570792
1  -9.841317 -7.634221 1.937669  -1.544956 -1.855077 -0.198630
2  6.027525 -0.000329 0.000190  -0.004110 -1.486758 -2.003953
3  11.692112 0.000645 -0.000739  -0.990395 0.000005 -0.828303
4  11.479858 0.000448 -0.000656  1.013586 -0.337252 0.467477
5  3.666628 -0.163904 -1.204802  -0.520786 0.078133 -1.549187
6  1.312590 0.000008 0.000007  -0.003914 0.023741 -0.279500
7  0.729354 0.000055 0.000048  -0.003808 -0.000096 -0.341082
8  3.942140 0.046330 -0.431543  -0.205965 0.132196 -1.449654
9  1.539109 0.000083 0.000004  -0.000570 0.007396 -0.283198
10  1.196333 0.000145 0.000028  -0.000731 0.000001 -0.740195
11  3.883510 -0.047213 0.431350  -0.042690 0.198097 -1.260493
12  1.719573 -0.000027 0.000017  -0.000644 0.003280 -0.404344
13  1.209179 0.000091 0.000012  -0.000905 0.002861 -0.623854
14  3.859676 -0.138419 1.332379  -0.192829 0.314078 -1.200823
15  1.719448 -0.000019 0.000029  0.001027 0.002946 -0.232305
16  1.099675 0.000048 0.000006  0.000043 0.002457 -0.621579
17  0.459535 -0.272516 1.494839  -0.993276 -0.518349 -0.465024
18  1.789820 -0.000004 -0.000017  -0.001964 0.000105 0.251441
19  1.207016 -0.000012 -0.000043  -0.002235 -0.004014 0.005434
20  5.740636 0.000390 -0.000699  -0.121105 0.000003 0.000063
21  11.480981 0.000270 -0.000784  -0.092640 -0.068488 0.059577
22  6.027524 -0.000329 0.000201  1.516732 -0.064451 1.837107
23  0.000003 11.692100 -0.000008  -0.606516 -0.160417 -0.502759
24  0.000003 0.000008 0.000000  -0.121333 -0.000031 1.570738
25  0.000002 -0.000011 -0.000001  0.868960 0.000002 1.570712
26  -6.899342 -10.734701 0.826813  1.473120 1.855075 -0.198639
27  6.027517 -0.000263 -0.000216  1.645967 1.272844 -0.620699
28  11.691990 0.000160 0.000859  -0.116554 0.000016 -0.997146
29  11.480542 -0.000188 0.000807  -1.073928 0.312993 0.732910
30  3.710774 -0.434235 1.096848  0.700725 -0.025047 -1.894448
31  1.312560 0.000031 -0.000002  -0.004018 -0.052670 -0.157648
32  0.729347 0.000064 -0.000028  -0.098936 -0.154266 -1.256620
33  3.820806 -0.154609 0.327898  0.552081 -0.162420 -1.564602
34  1.539095 0.000004 -0.000001  0.035301 -0.048177 -0.684301
35  1.196302 0.000081 -0.000003  -0.018845 -0.012643 -1.421973
36  3.882446 -0.171893 -0.416805  0.578708 -0.286096 -1.376619
37  1.719566 -0.000084 -0.000005  -0.010330 -0.076021 -1.015000
38  1.209194 0.000032 0.000012  0.003432 -0.002384 -1.222575
39  3.859585 -0.149082 -1.331323  0.084755 -0.185240 -0.547088
40  1.719412 -0.000097 -0.000038  0.034383 0.016392 -0.911516
41  1.099673 0.000023 0.000006  -0.006995 -0.008413 -0.743478
42  0.230504 -0.805067 -1.086894  1.017215 0.462509 -0.609471
43  1.789780 -0.000007 -0.000042  -0.081444 -0.068283 0.252588
44  1.206996 -0.000005 0.000005  0.073274 0.023224 0.166518
45  5.740573 0.000080 0.000722  0.144994 -0.000014 0.000028
46  11.481052 0.000036 0.000906  0.078932 0.070389 0.115564
47  6.027515 -0.000273 -0.000229  -1.327037 -0.173087 -1.586079
48  -0.000001 11.691976 -0.000007  -0.718657 0.227436 0.590273
49  0.000002 -0.000000 -0.000001  2.155999 -0.000036 1.570860
50  -0.000007 -0.000012 0.000005  2.272645 -0.000036 1.570861
51  -2.549441 -8.346542 -4.515957  -0.184001 -2.985921 1.255410
52  -0.000000 0.000000 0.000000  0.008153 -0.000259 0.000009
53  0.000000 -0.000000 -0.000001  1.565115 0.043565 -0.106862
54  0.157917 -10.125351 -5.759902  -0.558647 0.012547 -1.961358
55  0.000000 -0.000000 -0.000000  0.000000 -0.000001 -0.000002
56  0.000030 0.000029 0.000001  -1.571901 -0.044449 -0.106509
57  12.000549 -19.544212 -17.246658  1.570796 -0.000000 0.000000
58  -15.417984 4.000748 -22.641926  1.570796 -0.000000 0.000000
59  1.941978 9.263218 -8.327020  1.570796 -0.000000 0.000000
60  -0.004311 0.001229 -0.000372  0.006898 -0.005534 -0.284229
61  0.826810 11.791080 -4.879054  1.570796 -0.000000 0.000000
62  0.000000 0.000000 0.000000  -0.078727 -3.136056 0.284226
63  -1.922814 -1.786657 -0.616341  1.570796 -0.000000 0.000000
64  -1.914681 -10.820230 -3.863321  1.572482 -0.000396 0.000180
65  0.028727 1.510940 2.466707  0.000000 -0.000000 0.000000
66  0.072472 2.040765 1.219716  0.000000 -0.000000 0.000000
67  0.000000 2.151127 1.221221  0.000000 -0.000000 0.000000
68  0.028727 1.768276 -0.467549  -1.134464 -0.000000 -0.000000
69  0.073137 1.528050 2.605550  0.000000 -0.000000 0.000000
70  0.028727 2.472565 7.771825  0.000000 -0.000000 0.000000
71  -1.915319 -11.552309 -1.914074  1.572482 -0.000396 0.000180
72  -0.066937 -0.212760 0.439181  0.000000 -0.000000 0.000000
73  0.134965 -0.491843 0.368115  0.000000 -0.000000 0.000000
time 16
0  0.000006 0.000000 0.000000  -1.570800 -1.391899 -1.570792
1  -9.841317 -7.634221 1.937669  -1.544956 -1.855077 -0.198630
2  6.027525 -0.000328 0.000190  0.026573 -1.486794 -2.034973
3  11.692112 0.000646 -0.000739  -0.990394 0.000005 -0.821892
4  11.480035 0.000481 -0.000602  1.015484 -0.334277 0.464546
5  3.666625 -0.163903 -1.204802  -0.520786 0.078133 -1.549187
6  1.312590 0.000010 0.000006  -0.003914 0.023741 -0.279500
7  0.729355 0.000054 0.000050  -0.003808 -0.000096 -0.341082
8  3.942139 0.046332 -0.431543  -0.205965 0.132197 -1.449654
9  1.539110 0.000083 0.000004  -0.000570 0.007396 -0.283198
10  1.196333 0.000145 0.000028  -0.000731 0.000001 -0.740195
11  3.883509 -0.047211 0.431351  -0.042690 0.198097 -1.260493
12  1.719573 -0.000029 0.000017  -0.000644 0.003280 -0.404344
13  1.209179 0.000089 0.000011  -0.000905 0.002861 -0.623854
14  3.859675 -0.138417 1.332380  -0.192829 0.314078 -1.200823
15  1.719448 -0.000019 0.000028  0.001027 0.002946 -0.232305
16  1.099675 0.000048 0.000006  0.000043 0.002457 -0.621579
17  0.459532 -0.272516 1.494839  -0.993276 -0.518349 -0.465024
18  1.789820 -0.000004 -0.000016  -0.001964 0.000105 0.251441
19  1.207017 -0.000012 -0.000045  -0.002235 -0.004014 0.005434
20  5.740636 0.000389 -0.000699  -0.120491 0.000003 0.000063
21  11.481015 0.000276 -0.000774  -0.092520 -0.067725 0.059237
22  6.027524 -0.000329 0.000201  1.514807 -0.062736 1.836783
23  0.000001 11.692099 -0.000007  -0.602167 -0.158066 -0.499309
24  0.000002 0.000008 0.000001  -0.121333 -0.000030 1.570738
25  0.000001 -0.000011 0.000000  0.868960 0.000002 1.570712
26  -6.899342 -10.734701 0.826813  1.473120 1.855075 -0.198639
27  6.027517 -0.000263 -0.000216  1.646877 1.275397 -0.619810
28  11.691990 0.000161 0.000859  -0.116554 0.000016 -0.991487
29  11.480573 -0.000178 0.000806  -1.073787 0.313522 0.729577
30  3.710775 -0.434235 1.096848  0.700725 -0.025047 -1.894448
31  1.312560 0.000031 -0.000001  -0.004018 -0.052670 -0.157648
32  0.729347 0.000066 -0.000028  -0.098936 -0.154266 -1.256620
33  3.820807 -0.154609 0.327899  0.552081 -0.162420 -1.564601
34  1.539095 0.000004 -0.000001  0.035301 -0.048177 -0.684301
35  1.196302 0.000080 -0.000003  -0.018845 -0.012643 -1.421973
36  3.882446 -0.171892 -0.416804  0.578708 -0.286096 -1.376619
37  1.719566 -0.000082 -0.000005  -0.010330 -0.076021 -1.015000
38  1.209193 0.000033 0.000012  0.003432 -0.002384 -1.222575
39  3.859585 -0.149082 -1.331322  0.084755 -0.185240 -0.547088
40  1.719412 -0.000098 -0.000037  0.034383 0.016392 -0.911516
41  1.099672 0.000023 0.000006  -0.006995 -0.008413 -0.743478
42  0.230504 -0.805067 -1.086893  1.017215 0.462509 -0.609471
43  1.789779 -0.000008 -0.000043  -0.081444 -0.068283 0.252588
44  1.206995 -0.000006 0.000005  0.073274 0.023224 0.166518
45  5.740574 0.000078 0.000722  0.144453 -0.000014 0.000028
46  11.481060 0.000038 0.000907  0.079000 0.070379 0.114879
47  6.027515 -0.000273 -0.000229  -1.329015 -0.171416 -1.585721
48  -0.000000 11.691975 -0.000008  -0.714969 0.225036 0.587447
49  0.000003 -0.000001 0.000000  2.155999 -0.000036 1.570860
50  -0.000007 -0.000012 0.000004  2.272645 -0.000036 1.570861
51  -2.549770 -8.378240 -4.515683  -0.183962 -2.985473 1.255331
52  0.000000 0.000000 0.000000  0.008153 -0.000259 0.000009
53  0.000001 -0.000000 0.000000  1.565115 0.043565 -0.106862
54  0.157330 -10.157793 -5.759127  -0.558576 0.012104 -1.961431
55  -0.000000 0.000000 0.000000  0.000000 -0.000001 -0.000002
56  0.000030 0.000029 0.000001  -1.571902 -0.044449 -0.106509
57  12.000549 -19.544212 -17.246658  1.570796 -0.000000 0.000000
58  -15.417984 4.000748 -22.641926  1.570796 -0.000000 0.000000
59  1.941978 9.263218 -8.327020  1.570796 -0.000000 0.000000
60  -0.004311 0.001229 -0.000372  0.006898 -0.005534 -0.284229
61  0.826810 11.791080 -4.879054  1.570796 -0.000000 0.000000
62  0.000000 0.000000 0.000000  -0.078727 -3.136056 0.284226
63  -1.922814 -1.786657 -0.616341  1.570796 -0.000000 0.000000
64  -1.915125 -10.851689 -3.862031  1.572045 -0.000293 0.000107
65  0.028727 1.510940 2.466706  0.000000 -0.000000 -0.000000
66  0.072472 2.040766 1.219714  0.000000 -0.000000 -0.000000
67  0.000001 2.151126 1.221219  0.000000 -0.000000 -0.000000
68  0.028727 1.768277 -0.467551  -1.134464 -0.000000 -0.000000
69  0.073137 1.528051 2.605548  0.000000 -0.000000 -0.000000
70  0.028728 2.472564 7.771822  0.000000 -0.000000 -0.000000
71  -1.915617 -11.582916 -1.912464  1.572045 -0.000293 0.000107
72  -0.066937 -0.212760 0.439182  0.000000 -0.000000 -0.000000
73  0.134965 -0.491842 0.368117  0.000000 -0.000000 -0.000000
time 17
0  0.000006 0.000000 0.000000  -1.570800 -1.391899 -1.570792
1  -9.841317 -7.634221 1.937669  -1.544956 -1.855077 -0.198630
2  6.027525 -0.000328 0.000190  0.052906 -1.486742 -2.061523
3  11.692114 0.000643 -0.000740  -0.990394 0.000005 -0.816342
4  11.480196 0.000513 -0.000554  1.017299 -0.331686 0.461493
5  3.666627 -0.163903 -1.204802  -0.520786 0.078133 -1.549187
6  1.312589 0.000010 0.000007  -0.003914 0.023741 -0.279500
7  0.729355 0.000054 0.000049  -0.003808 -0.000096 -0.341082
8  3.942140 0.046331 -0.431542  -0.205965 0.132196 -1.449654
9  1.539111 0.000085 0.000004  -0.000570 0.007396 -0.283198
10  1.196333 0.000145 0.000028  -0.000731 0.000001 -0.740195
11  3.883509 -0.047212 0.431351  -0.042690 0.198097 -1.260493
12  1.719573 -0.000028 0.000017  -0.000644 0.003280 -0.404344
13  1.209179 0.000090 0.000012  -0.000905 0.002861 -0.623854
14  3.859676 -0.138418 1.332380  -0.192829 0.314078 -1.200823
15  1.719448 -0.000018 0.000029  0.001027 0.002946 -0.232305
16  1.099674 0.000048 0.000006  0.000043 0.002457 -0.621579
17  0.459533 -0.272516 1.494839  -0.993276 -0.518349 -0.465024
18  1.789820 -0.000003 -0.000016  -0.001964 0.000105 0.251441
19  1.207017 -0.000013 -0.000044  -0.002235 -0.004014 0.005434
20  5.740636 0.000388 -0.000700  -0.119933 0.000003 0.000064
21  11.481047 0.000283 -0.000764  -0.092396 -0.067034 0.058848
22  6.027524 -0.000329 0.000201  1.513141 -0.061279 1.836577
23  -0.000000 11.692099 -0.000008  -0.598396 -0.156042 -0.496316
24  0.000003 0.000008 0.000001  -0.121333 -0.000030 1.570738
25  0.000000 -0.000012 0.000000  0.868960 0.000002 1.570712
26  -6.899342 -10.734701 0.826813  1.473120 1.855075 -0.198639
27  6.027517 -0.000263 -0.000216  1.647510 1.277489 -0.619172
28  11.691990 0.000162 0.000858  -0.116555 0.000016 -0.986703
29  11.480595 -0.000167 0.000809  -1.073720 0.314308 0.726342
30  3.710774 -0.434235 1.096849  0.700725 -0.025047 -1.894448
31  1.312560 0.000029 -0.000000  -0.004018 -0.052670 -0.157648
32  0.729347 0.000065 -0.000028  -0.098936 -0.154266 -1.256620
33  3.820806 -0.154609 0.327900  0.552081 -0.162420 -1.564601
34  1.539095 0.000003 -0.000002  0.035301 -0.048177 -0.684301
35  1.196303 0.000080 -0.000002  -0.018845 -0.012643 -1.421973
36  3.882446 -0.171893 -0.416804  0.578708 -0.286096 -1.376619
37  1.719565 -0.000084 -0.000004  -0.010330 -0.076021 -1.015000
38  1.209193 0.000034 0.000012  0.003432 -0.002384 -1.222575
39  3.859585 -0.149082 -1.331322  0.084755 -0.185240 -0.547088
40  1.719411 -0.000097 -0.000037  0.034383 0.016392 -0.911516
41  1.099672 0.000023 0.000006  -0.006995 -0.008413 -0.743478
42  0.230504 -0.805067 -1.086893  1.017215 0.462509 -0.609471
43  1.789778 -0.000008 -0.000042  -0.081444 -0.068283 0.252588
44  1.206995 -0.000006 0.000005  0.073274 0.023224 0.166518
45  5.740573 0.000079 0.000721  0.143952 -0.000014 0.000028
46  11.481064 0.000041 0.000907  0.079034 0.070417 0.114205
47  6.027515 -0.000273 -0.000229  -1.330655 -0.170075 -1.585410
48  0.000000 11.691976 -0.000007  -0.711848 0.223015 0.585051
49  0.000002 -0.000000 0.000000  2.155999 -0.000036 1.570860
50  -0.000007 -0.000012 0.000005  2.272645 -0.000036 1.570861
51  -2.550157 -8.405083 -4.517093  -0.183890 -2.984643 1.255246
52  -0.000001 -0.000000 0.000000  0.008153 -0.000259 0.000009
53  -0.000000 -0.000000 0.000000  1.565115 0.043565 -0.106862
54  0.156576 -10.185844 -5.759608  -0.558443 0.011282 -1.961503
55  0.000000 -0.000000 -0.000000  0.000000 -0.000001 -0.000002
56  0.000030 0.000029 0.000001  -1.571901 -0.044449 -0.106509
57  12.000549 -19.544212 -17.246658  1.570796 -0.000000 0.000000
58  -15.417984 4.000748 -22.641926  1.570796 -0.000000 0.000000
59  1.941978 9.263218 -8.327020  1.570796 -0.000000 0.000000
60  -0.004311 0.001229 -0.000372  0.006898 -0.005534 -0.284229
61  0.826810 11.791080 -4.879054  1.570796 -0.000000 0.000000
62  0.000000 0.000000 0.000000  -0.078727 -3.136056 0.284226
63  -1.922814 -1.786657 -0.616341  1.570796 -0.000000 0.000000
64  -1.915569 -10.878048 -3.861555  1.571233 -0.000103 0.000033
65  0.028727 1.510939 2.466706  0.000000 -0.000000 0.000000
66  0.072472 2.040766 1.219714  0.000000 -0.000000 0.000000
67  0.000000 2.151126 1.221220  0.000000 -0.000000 0.000000
68  0.028727 1.768277 -0.467551  -1.134464 -0.000000 -0.000000
69  0.073137 1.528050 2.605549  0.000000 -0.000000 0.000000
70  0.028728 2.472564 7.771823  0.000000 -0.000000 0.000000
71  -1.915744 -11.607694 -1.911395  1.571233 -0.000103 0.000033
72  -0.066937 -0.212760 0.439181  0.000000 -0.000000 0.000000
73  0.134965 -0.491842 0.368116  0.000000 -0.000000 0.000000
time 18
0  0.000006 0.000000 0.000000  -1.570800 -1.391899 -1.570792
1  -9.841317 -7.634221 1.937669  -1.544956 -1.855077 -0.198630
2  6.027525 -0.000328 0.000190  0.064089 -1.486698 -2.072783
3  11.692113 0.000643 -0.000739  -0.990394 0.000005 -0.813973
4  11.480266 0.000527 -0.000532  1.018108 -0.330576 0.460084
5  3.666628 -0.163904 -1.204802  -0.520786 0.078133 -1.549187
6  1.312590 0.000011 0.000007  -0.003914 0.023741 -0.279500
7  0.729355 0.000054 0.000048  -0.003808 -0.000096 -0.341082
8  3.942140 0.046330 -0.431542  -0.205965 0.132197 -1.449654
9  1.539110 0.000084 0.000004  -0.000570 0.007396 -0.283198
10  1.196332 0.000147 0.000029  -0.000731 0.000001 -0.740195
11  3.883511 -0.047213 0.431351  -0.042690 0.198097 -1.260493
12  1.719573 -0.000029 0.000016  -0.000644 0.003280 -0.404344
13  1.209179 0.000089 0.000011  -0.000905 0.002861 -0.623853
14  3.859677 -0.138419 1.332380  -0.192829 0.314078 -1.200823
15  1.719448 -0.000019 0.000028  0.001027 0.002946 -0.232305
16  1.099675 0.000048 0.000006  0.000043 0.002457 -0.621579
17  0.459533 -0.272517 1.494839  -0.993276 -0.518349 -0.465024
18  1.789819 -0.000003 -0.000016  -0.001964 0.000105 0.251441
19  1.207015 -0.000011 -0.000044  -0.002235 -0.004014 0.005434
20  5.740636 0.000387 -0.000700  -0.119690 0.000003 0.000063
21  11.481062 0.000284 -0.000759  -0.092338 -0.066732 0.058663
22  6.027524 -0.000329 0.000201  1.512430 -0.060663 1.836504
23  -0.000002 11.692097 -0.000008  -0.596785 -0.155181 -0.495036
24  0.000004 0.000009 0.000000  -0.121332 -0.000031 1.570739
25  -0.000001 -0.000012 -0.000000  0.868960 0.000002 1.570712
26  -6.899342 -10.734701 0.826813  1.473120 1.855075 -0.198639
27  6.027517 -0.000263 -0.000216  1.647747 1.278357 -0.618927
28  11.691990 0.000160 0.000859  -0.116555 0.000016 -0.984687
29  11.480604 -0.000162 0.000810  -1.073702 0.314712 0.724889
30  3.710774 -0.434235 1.096849  0.700725 -0.025047 -1.894448
31  1.312560 0.000030 -0.000002  -0.004018 -0.052670 -0.157648
32  0.729347 0.000066 -0.000028  -0.098936 -0.154266 -1.256620
33  3.820805 -0.154609 0.327900  0.552081 -0.162420 -1.564602
34  1.539094 0.000003 -0.000002  0.035301 -0.048177 -0.684301
35  1.196302 0.000080 -0.000003  -0.018845 -0.012643 -1.421973
36  3.882445 -0.171892 -0.416804  0.578708 -0.286096 -1.376619
37  1.719565 -0.000083 -0.000005  -0.010330 -0.076021 -1.015000
38  1.209193 0.000032 0.000011  0.003432 -0.002384 -1.222575
39  3.859585 -0.149082 -1.331322  0.084755 -0.185240 -0.547088
40  1.719411 -0.000097 -0.000037  0.034383 0.016392 -0.911516
41  1.099672 0.000023 0.000007  -0.006995 -0.008413 -0.743478
42  0.230503 -0.805067 -1.086893  1.017215 0.462509 -0.609471
43  1.789778 -0.000008 -0.000042  -0.081444 -0.068283 0.252588
44  1.206995 -0.000007 0.000005  0.073274 0.023224 0.166518
45  5.740573 0.000078 0.000721  0.143732 -0.000014 0.000028
46  11.481065 0.000041 0.000908  0.079042 0.070442 0.113900
47  6.027515 -0.000273 -0.000229  -1.331340 -0.169526 -1.585277
48  -0.000001 11.691974 -0.000007  -0.710531 0.222165 0.584040
49  0.000004 -0.000000 -0.000000  2.155999 -0.000036 1.570860
50  -0.000007 -0.000013 0.000005  2.272645 -0.000036 1.570861
51  -2.550343 -8.416403 -4.518041  -0.183852 -2.984196 1.255206
52  -0.000000 -0.000000 0.000000  0.008153 -0.000259 0.000009
53  -0.000000 0.000000 0.000000  1.565115 0.043565 -0.106862
54  0.156202 -10.197797 -5.760055  -0.558371 0.010839 -1.961535
55  -0.000000 0.000001 -0.000000  0.000000 -0.000001 -0.000002
56  0.000030 0.000029 0.000001  -1.571902 -0.044449 -0.106509
57  12.000549 -19.544212 -17.246658  1.570796 -0.000000 0.000000
58  -15.417984 4.000748 -22.641926  1.570796 -0.000000 0.000000
59  1.941978 9.263218 -8.327020  1.570796 -0.000000 0.000000
60  -0.004311 0.001229 -0.000372  0.006898 -0.005534 -0.284229
61  0.826810 11.791080 -4.879054  1.570796 -0.000000 0.000000
62  0.000000 0.000000 0.000000  -0.078727 -3.136056 0.284226
63  -1.922814 -1.786657 -0.616341  1.570796 -0.000000 0.000000
64  -1.915771 -10.889102 -3.861487  1.570796 -0.000000 0.000000
65  0.028727 1.510940 2.466706  0.000000 -0.000000 0.000000
66  0.072472 2.040766 1.219715  0.000000 -0.000000 0.000000
67  0.000000 2.151127 1.221219  0.000000 -0.000000 0.000000
68  0.028727 1.768277 -0.467550  -1.134464 -0.000000 -0.000000
69  0.073137 1.528050 2.605549  0.000000 -0.000000 0.000000
70  0.028728 2.472564 7.771825  0.000000 -0.000000 0.000000
71  -1.915770 -11.617895 -1.911009  1.570796 -0.000000 0.000000
72  -0.066937 -0.212760 0.439182  0.000000 0.000000 0.000000
73  0.134965 -0.491842 0.368117  0.000000 0.000000 0.000000
end
