version 1
nodes
0 "root" -1
1 "holosight" -1
end
skeleton
time 0
0  -0.023465 -1.618615 -0.279558  1.570796 -0.000000 0.000000
1  -0.299434 -4.248993 3.685470  1.570796 -0.000000 0.000000
end
triangles
gun_tex.004
0  0.142994 4.329493 4.127052  0.253993 0.961467 0.105211  0.579114 0.484385 1 0 1
0  0.325830 4.329494 3.685644  0.253993 0.961467 0.105211  0.579114 0.484385 1 0 1
0  -0.299432 4.494706 3.685322  0.253993 0.961467 0.105211  0.579114 0.484385 1 0 1
gun_tex.004
0  0.142993 4.329494 3.244236  0.105371 0.961344 -0.254391  0.579114 0.484385 1 0 1
0  -0.299320 4.329494 3.061025  0.105371 0.961344 -0.254391  0.579114 0.484385 1 0 1
0  -0.299432 4.494706 3.685322  0.105371 0.961344 -0.254391  0.579114 0.484385 1 0 1
gun_tex.004
0  -0.746134 4.329494 3.244234  -0.254246 0.961669 -0.102718  0.579114 0.484385 1 0 1
0  -0.923578 4.329494 3.683440  -0.254246 0.961669 -0.102718  0.579114 0.484385 1 0 1
0  -0.299432 4.494706 3.685322  -0.254246 0.961669 -0.102718  0.579114 0.484385 1 0 1
gun_tex.004
0  -0.739825 4.329493 4.127053  -0.105406 0.961322 0.254461  0.579114 0.484385 1 0 1
0  -0.298418 4.329494 4.309890  -0.105406 0.961322 0.254461  0.579114 0.484385 1 0 1
0  -0.299432 4.494706 3.685322  -0.105406 0.961322 0.254461  0.579114 0.484385 1 0 1
gun_tex.004
0  0.325830 4.329494 3.685644  0.254094 0.961436 -0.105250  0.579114 0.484385 1 0 1
0  0.142993 4.329494 3.244236  0.254094 0.961436 -0.105250  0.579114 0.484385 1 0 1
0  -0.299432 4.494706 3.685322  0.254094 0.961436 -0.105250  0.579114 0.484385 1 0 1
gun_tex.004
0  -0.299320 4.329494 3.061025  -0.104334 0.961441 -0.254452  0.579114 0.484385 1 0 1
0  -0.746134 4.329494 3.244234  -0.104334 0.961441 -0.254452  0.579114 0.484385 1 0 1
0  -0.299432 4.494706 3.685322  -0.104334 0.961441 -0.254452  0.579114 0.484385 1 0 1
gun_tex.004
0  -0.298418 4.329494 4.309890  0.105274 0.961419 0.254146  0.579114 0.484385 1 0 1
0  0.142994 4.329493 4.127052  0.105274 0.961419 0.254146  0.579114 0.484385 1 0 1
0  -0.299432 4.494706 3.685322  0.105274 0.961419 0.254146  0.579114 0.484385 1 0 1
gun_tex.004
0  -0.923578 4.329494 3.683440  -0.254758 0.961230 0.105527  0.579114 0.484385 1 0 1
0  -0.739825 4.329493 4.127053  -0.254758 0.961230 0.105527  0.579114 0.484385 1 0 1
0  -0.299432 4.494706 3.685322  -0.254758 0.961230 0.105527  0.579114 0.484385 1 0 1
end
