version 1
nodes
0 "ValveBiped.Bip01_Spine4" -1
1 "ValveBiped.Bip01_L_Clavicle" 0
2 "ValveBiped.Bip01_L_UpperArm" 1
3 "ValveBiped.Bip01_L_Forearm" 2
4 "ValveBiped.Bip01_L_Hand" 3
5 "ValveBiped.Bip01_L_Finger4" 4
6 "ValveBiped.Bip01_L_Finger41" 5
7 "ValveBiped.Bip01_L_Finger42" 6
8 "ValveBiped.Bip01_L_Finger3" 4
9 "ValveBiped.Bip01_L_Finger31" 8
10 "ValveBiped.Bip01_L_Finger32" 9
11 "ValveBiped.Bip01_L_Finger2" 4
12 "ValveBiped.Bip01_L_Finger21" 11
13 "ValveBiped.Bip01_L_Finger22" 12
14 "ValveBiped.Bip01_L_Finger1" 4
15 "ValveBiped.Bip01_L_Finger11" 14
16 "ValveBiped.Bip01_L_Finger12" 15
17 "ValveBiped.Bip01_L_Finger0" 4
18 "ValveBiped.Bip01_L_Finger01" 17
19 "ValveBiped.Bip01_L_Finger02" 18
20 "ValveBiped.Bip01_L_Ulna" 3
21 "ValveBiped.Bip01_L_Wrist" 3
22 "rig_l_upperarm" 1
23 "rig_l_forearm" 22
24 "rig_d_l_forearm" 23
25 "rig_d_l_upperarm" 22
26 "ValveBiped.Bip01_R_Clavicle" 0
27 "ValveBiped.Bip01_R_UpperArm" 26
28 "ValveBiped.Bip01_R_Forearm" 27
29 "ValveBiped.Bip01_R_Hand" 28
30 "ValveBiped.Bip01_R_Finger4" 29
31 "ValveBiped.Bip01_R_Finger41" 30
32 "ValveBiped.Bip01_R_Finger42" 31
33 "ValveBiped.Bip01_R_Finger3" 29
34 "ValveBiped.Bip01_R_Finger31" 33
35 "ValveBiped.Bip01_R_Finger32" 34
36 "ValveBiped.Bip01_R_Finger2" 29
37 "ValveBiped.Bip01_R_Finger21" 36
38 "ValveBiped.Bip01_R_Finger22" 37
39 "ValveBiped.Bip01_R_Finger1" 29
40 "ValveBiped.Bip01_R_Finger11" 39
41 "ValveBiped.Bip01_R_Finger12" 40
42 "ValveBiped.Bip01_R_Finger0" 29
43 "ValveBiped.Bip01_R_Finger01" 42
44 "ValveBiped.Bip01_R_Finger02" 43
45 "ValveBiped.Bip01_R_Ulna" 28
46 "ValveBiped.Bip01_R_Wrist" 28
47 "rig_r_upperarm" 26
48 "rig_r_forearm" 47
49 "rig_d_r_forearm" 48
50 "rig_d_r_upperarm" 47
51 "rig_r_hand" -1
52 "rig_d_r_hand" 51
53 "rig_d_r_wrist" 52
54 "rig_l_hand" -1
55 "rig_d_l_hand" 54
56 "rig_d_l_wrist" 54
57 "rig_l_pole" -1
58 "rig_r_pole" -1
59 "rig_l_clavicle" -1
60 "rig_d_l_clavicle" 59
61 "rig_r_clavicle" -1
62 "rig_d_r_clavicle" 61
63 "Camera" -1
64 "body" -1
65 "trigger" 64
66 "barrel" 64
67 "bullet1" 64
68 "slide" 64
69 "hammer" 64
70 "sliderelease" 64
71 "mag" -1
72 "bullet2" 71
73 "bullet3" 71
end
skeleton
time 0
0  0.000006 0.000000 0.000000  -1.570800 -1.391899 -1.570792
1  -9.841317 -7.634221 1.937669  -1.544956 -1.855077 -0.198630
2  6.027525 -0.000329 0.000190  -0.046636 -1.482824 -1.947293
3  11.692115 0.000646 -0.000738  -0.990394 0.000005 -0.817278
4  11.480170 0.000508 -0.000561  1.037812 -0.327222 0.409754
5  3.666628 -0.163903 -1.204803  -0.519250 0.086737 -1.532179
6  1.312590 0.000011 0.000008  -0.003664 0.023357 -0.272237
7  0.729355 0.000053 0.000049  -0.003677 0.000626 -0.150723
8  3.942140 0.046331 -0.431543  -0.205965 0.132196 -1.449654
9  1.539111 0.000082 0.000003  -0.000570 0.007396 -0.283198
10  1.196333 0.000146 0.000028  -0.000713 0.000161 -0.519018
11  3.883510 -0.047211 0.431351  -0.042690 0.198097 -1.260493
12  1.719573 -0.000027 0.000017  -0.000644 0.003280 -0.404344
13  1.209178 0.000091 0.000013  -0.000905 0.002861 -0.623854
14  3.859677 -0.138418 1.332380  -0.235831 0.317274 -1.342437
15  1.719448 -0.000017 0.000028  0.001902 0.001157 -0.067177
16  1.099675 0.000049 0.000005  -0.000943 0.002399 -0.620101
17  0.459533 -0.272515 1.494839  -0.993276 -0.518349 -0.465024
18  1.789820 -0.000005 -0.000015  -0.001964 0.000105 0.251441
19  1.207016 -0.000012 -0.000044  -0.002235 -0.004014 0.005434
20  5.740636 0.000389 -0.000700  -0.115682 0.000003 0.000063
21  11.481044 0.000281 -0.000766  -0.089975 -0.063309 0.049805
22  6.027524 -0.000329 0.000201  1.517109 -0.069806 1.851374
23  0.000001 11.692100 -0.000007  -0.599033 -0.156382 -0.496821
24  0.000003 0.000010 -0.000000  -0.121332 -0.000030 1.570739
25  0.000001 -0.000011 0.000000  0.868960 0.000002 1.570712
26  -6.899342 -10.734701 0.826813  1.473120 1.855075 -0.198639
27  6.027517 -0.000263 -0.000216  1.601807 1.271994 -0.656994
28  11.691991 0.000161 0.000858  0.139886 0.000014 -0.955354
29  11.480767 0.000116 0.000813  -1.291989 0.505002 0.568681
30  3.710774 -0.434234 1.096848  0.985959 -0.066627 -1.663656
31  1.312561 0.000032 -0.000000  0.082208 -0.225915 -0.738634
32  0.729347 0.000066 -0.000028  -0.153604 -0.114132 -0.948932
33  3.820805 -0.154608 0.327899  0.553858 -0.107943 -1.347607
34  1.539095 0.000004 -0.000002  0.053279 -0.065121 -0.990467
35  1.196302 0.000081 -0.000003  -0.018057 -0.011860 -1.378628
36  3.882445 -0.171892 -0.416804  0.531898 -0.203628 -1.075419
37  1.719565 -0.000083 -0.000005  0.009223 -0.076874 -1.263105
38  1.209193 0.000034 0.000012  0.003285 -0.002932 -1.071000
39  3.859585 -0.149082 -1.331322  0.062389 -0.204000 -0.426061
40  1.719414 -0.000097 -0.000037  0.031314 0.018416 -1.045535
41  1.099673 0.000023 0.000006  -0.007158 -0.008185 -0.715513
42  0.230504 -0.805067 -1.086893  1.019226 0.469392 -0.636104
43  1.789780 -0.000009 -0.000042  -0.081444 -0.068283 0.252588
44  1.206995 -0.000007 0.000005  0.073274 0.023224 0.166518
45  5.740573 0.000078 0.000721  0.084972 -0.000014 0.000028
46  11.481097 0.000097 0.000907  0.030246 0.090704 0.086394
47  6.027515 -0.000273 -0.000229  -1.334078 -0.184096 -1.578913
48  -0.000001 11.691974 -0.000008  -0.691306 0.209952 0.569223
49  0.000002 -0.000000 0.000001  2.412441 -0.000036 1.570860
50  -0.000007 -0.000014 0.000004  2.272645 -0.000036 1.570861
51  -2.538006 -8.620331 -5.026038  -0.171689 -2.947656 1.252147
52  -0.000000 -0.000000 0.000000  0.008153 -0.000259 0.000009
53  0.000000 0.000000 -0.000000  1.565115 0.043565 -0.106862
54  0.162817 -10.241511 -6.033255  -0.543722 -0.024713 -1.962570
55  0.000000 0.000000 0.000000  0.000000 -0.000001 -0.000002
56  0.000031 0.000029 0.000001  -1.571901 -0.044449 -0.106509
57  12.000549 -19.544212 -17.246658  1.570796 -0.000000 0.000000
58  -15.417984 4.000748 -22.641926  1.570796 -0.000000 0.000000
59  1.941978 9.263218 -8.327020  1.570796 -0.000000 0.000000
60  -0.004311 0.001229 -0.000372  0.006898 -0.005534 -0.284229
61  0.826810 11.791080 -4.879054  1.570796 -0.000000 0.000000
62  0.000000 0.000000 0.000000  -0.078727 -3.136056 0.284226
63  0.000000 0.000000 0.000000  1.570796 -0.000000 0.000000
64  -1.915771 -11.101227 -3.861487  1.570796 -0.000000 0.000000
65  0.138890 1.332072 2.917741  0.437111 -0.000000 -0.000000
66  0.001799 2.377473 7.396442  0.000000 -0.000000 0.000000
67  0.001798 1.942318 1.162124  0.000000 -0.000000 0.000000
68  0.000000 2.151127 2.689002  0.000000 -0.000000 0.000000
69  0.001798 1.612514 0.371959  0.000000 -0.000000 0.000000
70  0.399188 1.332072 2.917740  0.000000 -0.000000 0.000000
71  -1.915770 -11.617895 -1.911009  1.570796 -0.000000 0.000000
72  -0.045183 -0.374539 0.583137  0.000000 0.000000 0.000000
73  0.077168 -0.711761 0.490937  0.000000 0.000000 0.000000
time 1
0  0.000006 0.000000 0.000000  -1.570800 -1.391899 -1.570792
1  -9.841317 -7.634221 1.937669  -1.544956 -1.855077 -0.198630
2  6.027524 -0.000329 0.000190  -0.635361 -1.459352 -1.349659
3  11.692113 0.000643 -0.000738  -0.990406 0.000000 -0.991011
4  11.480667 0.000578 -0.000456  0.970759 -0.374594 0.440819
5  3.666627 -0.163904 -1.204802  -0.519250 0.086737 -1.532179
6  1.312590 0.000010 0.000008  -0.003664 0.023357 -0.272237
7  0.729356 0.000053 0.000050  -0.003677 0.000626 -0.150723
8  3.942141 0.046331 -0.431543  -0.205965 0.132196 -1.449654
9  1.539111 0.000083 0.000004  -0.000570 0.007396 -0.283198
10  1.196333 0.000146 0.000029  -0.000713 0.000161 -0.519018
11  3.883511 -0.047212 0.431351  -0.042690 0.198097 -1.260493
12  1.719573 -0.000028 0.000017  -0.000644 0.003280 -0.404344
13  1.209179 0.000090 0.000012  -0.000905 0.002861 -0.623853
14  3.859676 -0.138418 1.332379  -0.235831 0.317274 -1.342437
15  1.719448 -0.000017 0.000029  0.001902 0.001157 -0.067177
16  1.099675 0.000050 0.000006  -0.000943 0.002399 -0.620101
17  0.459533 -0.272516 1.494839  -0.993276 -0.518349 -0.465024
18  1.789819 -0.000004 -0.000016  -0.001964 0.000104 0.251441
19  1.207016 -0.000014 -0.000044  -0.002235 -0.004014 0.005434
20  5.740637 0.000389 -0.000699  -0.136556 0.000003 0.000063
21  11.481143 0.000295 -0.000745  -0.099373 -0.076155 0.050498
22  6.027524 -0.000329 0.000201  1.563365 -0.111281 1.858825
23  0.000001 11.692099 -0.000008  -0.714709 -0.224866 -0.587193
24  0.000003 0.000008 0.000000  -0.121332 -0.000031 1.570739
25  -0.000000 -0.000012 -0.000000  0.868960 0.000002 1.570712
26  -6.899342 -10.734701 0.826813  1.473120 1.855075 -0.198639
27  6.027516 -0.000262 -0.000217  1.592397 1.194253 -0.665994
28  11.691989 0.000160 0.000858  0.139896 0.000024 -1.144610
29  11.480403 -0.000077 0.000841  -1.336704 0.562732 0.663536
30  3.710774 -0.434235 1.096849  0.985959 -0.066627 -1.663656
31  1.312560 0.000030 -0.000001  0.082208 -0.225915 -0.738634
32  0.729346 0.000066 -0.000029  -0.153604 -0.114132 -0.948932
33  3.820805 -0.154609 0.327899  0.553858 -0.107943 -1.347607
34  1.539095 0.000004 -0.000001  0.053279 -0.065121 -0.990467
35  1.196303 0.000079 -0.000002  -0.018057 -0.011860 -1.378628
36  3.882445 -0.171892 -0.416804  0.531898 -0.203628 -1.075419
37  1.719566 -0.000082 -0.000005  0.009223 -0.076874 -1.263105
38  1.209193 0.000033 0.000012  0.003285 -0.002932 -1.071000
39  3.859585 -0.149082 -1.331322  0.062389 -0.204000 -0.426061
40  1.719414 -0.000097 -0.000037  0.031314 0.018416 -1.045534
41  1.099672 0.000022 0.000006  -0.007158 -0.008185 -0.715512
42  0.230503 -0.805067 -1.086893  1.019226 0.469392 -0.636104
43  1.789779 -0.000009 -0.000042  -0.081444 -0.068283 0.252588
44  1.206996 -0.000007 0.000005  0.073274 0.023224 0.166518
45  5.740572 0.000079 0.000720  0.092040 -0.000014 0.000028
46  11.481023 0.000058 0.000914  0.014784 0.100722 0.105520
47  6.027515 -0.000273 -0.000229  -1.272598 -0.233458 -1.591778
48  -0.000002 11.691975 -0.000008  -0.813066 0.293420 0.661238
49  0.000003 -0.000001 0.000001  2.412441 -0.000036 1.570860
50  -0.000008 -0.000012 0.000004  2.272645 -0.000036 1.570861
51  -2.478183 -7.489260 -4.871130  -0.209814 -2.912741 1.219407
52  -0.000000 0.000000 0.000000  0.008153 -0.000259 0.000009
53  -0.000000 -0.000000 0.000000  1.565115 0.043565 -0.106862
54  0.104839 -9.239879 -5.966799  -0.578258 -0.062371 -2.001808
55  -0.000000 -0.000000 0.000000  0.000000 -0.000001 -0.000002
56  0.000029 0.000029 0.000001  -1.571901 -0.044449 -0.106509
57  12.000549 -19.544212 -17.246658  1.570796 -0.000000 0.000000
58  -15.417984 4.000748 -22.641926  1.570796 -0.000000 0.000000
59  1.941978 9.263218 -8.327020  1.570796 -0.000000 0.000000
60  -0.004311 0.001229 -0.000372  0.006898 -0.005534 -0.284229
61  0.826810 11.791080 -4.879054  1.570796 -0.000000 0.000000
62  0.000000 0.000000 0.000000  -0.078727 -3.136056 0.284226
63  0.000000 0.000000 0.000000  1.570796 -0.000000 0.000000
64  -1.902102 -9.970195 -3.683152  1.549121 0.046249 -0.041243
65  0.138890 1.332072 2.917742  0.437111 0.000000 -0.000000
66  0.001798 2.530067 7.394069  -0.065995 -0.000000 -0.000000
67  0.001798 1.942318 1.162125  0.000000 0.000000 -0.000000
68  0.000000 2.151127 0.921549  0.000000 0.000000 -0.000000
69  0.001798 1.602803 0.295479  -0.876616 0.001216 0.000412
70  0.399188 1.332072 2.917741  0.070303 0.000000 -0.000000
71  -1.831062 -10.447803 -1.724031  1.549121 0.046249 -0.041243
72  -0.045183 -0.374539 0.583137  0.000000 0.000000 -0.000000
73  0.077168 -0.711761 0.490938  0.000000 0.000000 -0.000000
time 2
0  0.000006 0.000000 0.000000  -1.570800 -1.391899 -1.570792
1  -9.841317 -7.634221 1.937669  -1.544956 -1.855077 -0.198630
2  6.027524 -0.000329 0.000190  -0.587581 -1.459015 -1.385412
3  11.692112 0.000643 -0.000738  -0.990406 -0.000000 -0.992214
4  11.480659 0.000577 -0.000458  1.037702 -0.416874 0.278757
5  3.666627 -0.163904 -1.204802  -0.519250 0.086737 -1.532179
6  1.312590 0.000012 0.000008  -0.003664 0.023357 -0.272237
7  0.729354 0.000053 0.000049  -0.003677 0.000626 -0.150723
8  3.942140 0.046331 -0.431543  -0.205965 0.132196 -1.449654
9  1.539110 0.000084 0.000004  -0.000570 0.007396 -0.283198
10  1.196331 0.000146 0.000029  -0.000713 0.000161 -0.519018
11  3.883510 -0.047213 0.431351  -0.042690 0.198097 -1.260493
12  1.719573 -0.000029 0.000017  -0.000644 0.003280 -0.404344
13  1.209178 0.000091 0.000013  -0.000905 0.002861 -0.623854
14  3.859677 -0.138418 1.332379  -0.235831 0.317274 -1.342437
15  1.719448 -0.000018 0.000028  0.001902 0.001157 -0.067177
16  1.099675 0.000049 0.000005  -0.000943 0.002399 -0.620101
17  0.459533 -0.272516 1.494839  -0.993276 -0.518349 -0.465024
18  1.789820 -0.000004 -0.000016  -0.001964 0.000105 0.251441
19  1.207018 -0.000012 -0.000043  -0.002235 -0.004014 0.005434
20  5.740636 0.000390 -0.000699  -0.127645 0.000003 0.000063
21  11.481140 0.000295 -0.000745  -0.089296 -0.075446 0.019915
22  6.027524 -0.000329 0.000201  1.558002 -0.111133 1.871151
23  0.000002 11.692098 -0.000008  -0.715494 -0.225376 -0.587795
24  0.000004 0.000008 -0.000000  -0.121332 -0.000031 1.570739
25  0.000001 -0.000011 -0.000001  0.868960 0.000002 1.570712
26  -6.899342 -10.734701 0.826813  1.473120 1.855075 -0.198639
27  6.027516 -0.000262 -0.000217  1.593871 1.171416 -0.665293
28  11.691991 0.000161 0.000858  0.139897 0.000026 -1.165975
29  11.480287 -0.000138 0.000848  -1.424324 0.584025 0.485226
30  3.710774 -0.434235 1.096849  0.985959 -0.066627 -1.663656
31  1.312560 0.000031 0.000000  0.082208 -0.225915 -0.738634
32  0.729347 0.000064 -0.000027  -0.153604 -0.114132 -0.948932
33  3.820807 -0.154609 0.327900  0.553858 -0.107943 -1.347607
34  1.539095 0.000005 -0.000002  0.053279 -0.065121 -0.990467
35  1.196302 0.000080 -0.000003  -0.018057 -0.011860 -1.378628
36  3.882446 -0.171893 -0.416804  0.531898 -0.203628 -1.075419
37  1.719565 -0.000082 -0.000005  0.009223 -0.076874 -1.263105
38  1.209193 0.000033 0.000011  0.003285 -0.002932 -1.071000
39  3.859585 -0.149083 -1.331322  0.062389 -0.204000 -0.426061
40  1.719410 -0.000097 -0.000037  0.031314 0.018416 -1.045534
41  1.099672 0.000023 0.000006  -0.007158 -0.008185 -0.715512
42  0.230503 -0.805067 -1.086893  1.019226 0.469392 -0.636104
43  1.789780 -0.000008 -0.000043  -0.081444 -0.068283 0.252588
44  1.206996 -0.000007 0.000005  0.073274 0.023224 0.166518
45  5.740574 0.000078 0.000721  0.075800 -0.000014 0.000028
46  11.481003 0.000045 0.000914  0.004629 0.099424 0.075661
47  6.027515 -0.000273 -0.000229  -1.253424 -0.246688 -1.597001
48  -0.000000 11.691975 -0.000007  -0.826486 0.303503 0.671086
49  0.000003 0.000000 -0.000000  2.412441 -0.000036 1.570860
50  -0.000007 -0.000012 0.000005  2.272645 -0.000036 1.570861
51  -2.644190 -7.389461 -5.066320  -0.212166 -2.766982 1.257166
52  0.000000 0.000000 0.000000  0.008153 -0.000259 0.000009
53  0.000000 -0.000001 0.000000  1.565115 0.043565 -0.106862
54  -0.047133 -9.186663 -6.047399  -0.568682 -0.207838 -1.966043
55  -0.000001 -0.000000 -0.000000  0.000000 -0.000001 -0.000002
56  0.000030 0.000029 0.000001  -1.571902 -0.044449 -0.106509
57  12.000549 -19.544212 -17.246658  1.570796 -0.000000 0.000000
58  -15.417984 4.000748 -22.641926  1.570796 -0.000000 0.000000
59  1.941978 9.263218 -8.327020  1.570796 -0.000000 0.000000
60  -0.004311 0.001229 -0.000372  0.006898 -0.005534 -0.284229
61  0.826810 11.791080 -4.879054  1.570796 -0.000000 0.000000
62  0.000000 0.000000 0.000000  -0.078727 -3.136056 0.284226
63  0.000000 0.000000 0.000000  1.570796 -0.000000 0.000000
64  -1.913526 -9.662886 -3.584474  1.410443 0.092236 -0.013797
65  0.138890 1.332072 2.917741  0.437111 0.000000 0.000000
66  0.001799 2.530066 7.394068  -0.065995 -0.000000 -0.000000
67  0.001798 1.942317 1.162124  0.000000 0.000000 0.000000
68  0.000000 2.151126 0.921548  0.000000 0.000000 0.000000
69  0.001798 1.602802 0.295478  -0.876616 0.001216 0.000412
70  0.399188 1.332072 2.917739  0.070303 0.000000 0.000000
71  -1.731341 -9.864031 -1.585059  1.410443 0.092236 -0.013797
72  -0.045183 -0.374539 0.583137  0.000000 0.000000 0.000000
73  0.077168 -0.711762 0.490937  0.000000 0.000000 0.000000
time 3
0  0.000006 0.000000 0.000000  -1.570800 -1.391899 -1.570792
1  -9.841317 -7.634221 1.937669  -1.544956 -1.855077 -0.198630
2  6.027524 -0.000329 0.000190  -0.588900 -1.463498 -1.398128
3  11.692112 0.000644 -0.000738  -0.990405 0.000000 -0.983613
4  11.480705 0.000589 -0.000438  1.074533 -0.438318 0.337103
5  3.666627 -0.163904 -1.204802  -0.519250 0.086737 -1.532179
6  1.312590 0.000009 0.000008  -0.003664 0.023356 -0.272237
7  0.729355 0.000054 0.000049  -0.003677 0.000626 -0.150723
8  3.942142 0.046331 -0.431543  -0.205965 0.132196 -1.449654
9  1.539110 0.000082 0.000004  -0.000570 0.007396 -0.283198
10  1.196333 0.000144 0.000029  -0.000713 0.000161 -0.519019
11  3.883512 -0.047211 0.431351  -0.042690 0.198097 -1.260493
12  1.719573 -0.000030 0.000017  -0.000644 0.003280 -0.404344
13  1.209179 0.000090 0.000012  -0.000905 0.002861 -0.623854
14  3.859677 -0.138418 1.332380  -0.235831 0.317274 -1.342437
15  1.719448 -0.000019 0.000029  0.001902 0.001157 -0.067177
16  1.099676 0.000049 0.000006  -0.000943 0.002399 -0.620101
17  0.459535 -0.272515 1.494839  -0.993276 -0.518349 -0.465024
18  1.789818 -0.000004 -0.000017  -0.001964 0.000105 0.251441
19  1.207017 -0.000012 -0.000044  -0.002235 -0.004014 0.005434
20  5.740635 0.000389 -0.000699  -0.120385 0.000003 0.000064
21  11.481149 0.000297 -0.000740  -0.079563 -0.080697 0.032066
22  6.027524 -0.000329 0.000201  1.558660 -0.106696 1.857051
23  0.000002 11.692100 -0.000008  -0.709880 -0.221745 -0.583487
24  0.000002 0.000007 -0.000001  -0.121332 -0.000031 1.570739
25  0.000000 -0.000011 -0.000000  0.868960 0.000002 1.570712
26  -6.899342 -10.734701 0.826813  1.473120 1.855075 -0.198639
27  6.027516 -0.000262 -0.000217  1.600110 1.186653 -0.660300
28  11.691991 0.000161 0.000858  0.139896 0.000024 -1.135118
29  11.480460 -0.000052 0.000836  -1.345301 0.545518 0.512446
30  3.710775 -0.434235 1.096849  0.985959 -0.066627 -1.663656
31  1.312560 0.000029 -0.000000  0.082208 -0.225915 -0.738634
32  0.729347 0.000065 -0.000028  -0.153604 -0.114132 -0.948932
33  3.820807 -0.154609 0.327900  0.553858 -0.107943 -1.347607
34  1.539095 0.000004 -0.000002  0.053279 -0.065121 -0.990467
35  1.196303 0.000080 -0.000003  -0.018057 -0.011860 -1.378628
36  3.882446 -0.171892 -0.416804  0.531898 -0.203628 -1.075419
37  1.719566 -0.000084 -0.000005  0.009223 -0.076874 -1.263105
38  1.209194 0.000034 0.000011  0.003285 -0.002932 -1.071000
39  3.859585 -0.149082 -1.331322  0.062389 -0.204000 -0.426061
40  1.719412 -0.000097 -0.000037  0.031314 0.018416 -1.045534
41  1.099672 0.000023 0.000006  -0.007158 -0.008185 -0.715513
42  0.230504 -0.805067 -1.086892  1.019226 0.469392 -0.636104
43  1.789780 -0.000007 -0.000043  -0.081444 -0.068283 0.252588
44  1.206996 -0.000006 0.000005  0.073274 0.023224 0.166518
45  5.740572 0.000080 0.000722  0.087715 -0.000014 0.000028
46  11.481035 0.000064 0.000912  0.020137 0.095399 0.077228
47  6.027515 -0.000273 -0.000229  -1.264573 -0.235704 -1.595111
48  -0.000001 11.691974 -0.000007  -0.807083 0.288981 0.656828
49  0.000004 -0.000002 -0.000000  2.412441 -0.000036 1.570860
50  -0.000007 -0.000013 0.000005  2.272645 -0.000036 1.570861
51  -2.654863 -7.584295 -5.026733  -0.161634 -2.813385 1.277530
52  -0.000000 0.000000 0.000001  0.008153 -0.000259 0.000009
53  0.000001 -0.000000 0.000001  1.565115 0.043565 -0.106862
54  0.062598 -9.253171 -5.902753  -0.524204 -0.157927 -1.936370
55  -0.000000 -0.000000 0.000000  0.000000 -0.000001 -0.000002
56  0.000030 0.000028 0.000001  -1.571901 -0.044449 -0.106509
57  12.000549 -19.544212 -17.246658  1.570796 -0.000000 0.000000
58  -15.417984 4.000748 -22.641926  1.570796 -0.000000 0.000000
59  1.941978 9.263218 -8.327020  1.570796 -0.000000 0.000000
60  -0.004311 0.001229 -0.000372  0.006898 -0.005534 -0.284229
61  0.826810 11.791080 -4.879054  1.570796 -0.000000 0.000000
62  0.000000 0.000000 0.000000  -0.078727 -3.136056 0.284226
63  0.000000 0.000000 0.000000  1.570796 -0.000000 0.000000
64  -1.924950 -9.874372 -3.570377  1.440235 0.032909 0.025833
65  0.138890 1.332072 2.917740  0.437111 -0.000000 0.000000
66  0.001799 2.530067 7.394068  -0.065995 -0.000000 -0.000000
67  0.001798 1.942318 1.162124  0.000000 -0.000000 0.000000
68  0.000000 2.151127 0.921549  0.000000 -0.000000 0.000000
69  0.001798 1.602803 0.295478  -0.876616 0.001216 0.000412
70  0.399188 1.332072 2.917741  0.070303 0.000000 0.000000
71  -1.852456 -10.130921 -1.570317  1.440235 0.032909 0.025833
72  -0.045183 -0.374539 0.583137  0.000000 -0.000000 0.000000
73  0.077168 -0.711761 0.490937  0.000000 -0.000000 0.000000
time 4
0  0.000006 0.000000 0.000000  -1.570800 -1.391899 -1.570792
1  -9.841317 -7.634221 1.937669  -1.544956 -1.855077 -0.198630
2  6.027525 -0.000329 0.000190  -0.492633 -1.474846 -1.511907
3  11.692113 0.000644 -0.000739  -0.990402 0.000002 -0.938516
4  11.480009 0.000446 -0.000655  1.091138 -0.398312 0.416422
5  3.666627 -0.163903 -1.204802  -0.519250 0.086737 -1.532179
6  1.312590 0.000010 0.000007  -0.003664 0.023356 -0.272237
7  0.729355 0.000054 0.000050  -0.003677 0.000626 -0.150723
8  3.942141 0.046331 -0.431542  -0.205965 0.132196 -1.449654
9  1.539111 0.000083 0.000004  -0.000570 0.007396 -0.283198
10  1.196332 0.000145 0.000028  -0.000713 0.000161 -0.519018
11  3.883511 -0.047212 0.431351  -0.042690 0.198097 -1.260493
12  1.719573 -0.000029 0.000017  -0.000644 0.003280 -0.404344
13  1.209178 0.000090 0.000012  -0.000905 0.002861 -0.623853
14  3.859677 -0.138418 1.332380  -0.235831 0.317274 -1.342437
15  1.719448 -0.000017 0.000028  0.001902 0.001157 -0.067177
16  1.099675 0.000049 0.000005  -0.000943 0.002399 -0.620101
17  0.459533 -0.272516 1.494839  -0.993276 -0.518349 -0.465024
18  1.789820 -0.000004 -0.000016  -0.001964 0.000105 0.251441
19  1.207017 -0.000011 -0.000044  -0.002235 -0.004014 0.005434
20  5.740637 0.000388 -0.000700  -0.112003 0.000003 0.000063
21  11.481010 0.000268 -0.000785  -0.076009 -0.075203 0.050164
22  6.027524 -0.000329 0.000201  1.550813 -0.093936 1.839830
23  -0.000000 11.692100 -0.000008  -0.680259 -0.203100 -0.560615
24  0.000002 0.000008 -0.000001  -0.121333 -0.000031 1.570738
25  -0.000000 -0.000011 -0.000000  0.868960 0.000002 1.570712
26  -6.899342 -10.734701 0.826813  1.473120 1.855075 -0.198639
27  6.027516 -0.000263 -0.000216  1.598052 1.218395 -0.661174
28  11.691992 0.000161 0.000858  0.139893 0.000021 -1.078962
29  11.479411 -0.000495 0.000899  -1.262670 0.531700 0.581733
30  3.710774 -0.434234 1.096849  0.985959 -0.066627 -1.663656
31  1.312560 0.000031 0.000001  0.082208 -0.225915 -0.738634
32  0.729348 0.000065 -0.000027  -0.153604 -0.114131 -0.948932
33  3.820806 -0.154608 0.327899  0.553858 -0.107943 -1.347607
34  1.539095 0.000003 -0.000001  0.053279 -0.065121 -0.990467
35  1.196302 0.000080 -0.000003  -0.018057 -0.011860 -1.378628
36  3.882446 -0.171892 -0.416804  0.531898 -0.203628 -1.075419
37  1.719565 -0.000084 -0.000005  0.009223 -0.076874 -1.263105
38  1.209193 0.000034 0.000011  0.003285 -0.002932 -1.071000
39  3.859585 -0.149082 -1.331322  0.070165 -0.190721 -0.450742
40  1.719411 -0.000096 -0.000037  0.033901 0.019328 -0.915254
41  1.099673 0.000024 0.000006  -0.007801 -0.008012 -0.696295
42  0.230504 -0.805067 -1.086893  1.019226 0.469392 -0.636104
43  1.789780 -0.000008 -0.000042  -0.081444 -0.068283 0.252588
44  1.206995 -0.000007 0.000005  0.073274 0.023224 0.166518
45  5.740574 0.000078 0.000721  0.100223 -0.000014 0.000028
46  11.480827 -0.000026 0.000925  0.033533 0.097383 0.086330
47  6.027515 -0.000273 -0.000229  -1.291156 -0.217343 -1.588095
48  -0.000002 11.691975 -0.000009  -0.771430 0.263247 0.630289
49  0.000003 0.000000 0.000000  2.412441 -0.000036 1.570860
50  -0.000007 -0.000013 0.000003  2.272645 -0.000036 1.570861
51  -2.543267 -7.909308 -4.953389  -0.119993 -2.893028 1.256688
52  -0.000000 0.000000 -0.000000  0.008153 -0.000259 0.000009
53  -0.000000 -0.000000 0.000000  1.565115 0.043565 -0.106862
54  0.211636 -9.548671 -5.765889  -0.489582 -0.075745 -1.949398
55  -0.000001 0.000000 0.000000  0.000000 -0.000001 -0.000002
56  0.000029 0.000029 0.000001  -1.571901 -0.044449 -0.106509
57  12.000549 -19.544212 -17.246658  1.570796 -0.000000 0.000000
58  -15.417984 4.000748 -22.641926  1.570796 -0.000000 0.000000
59  1.941978 9.263218 -8.327020  1.570796 -0.000000 0.000000
60  -0.004311 0.001229 -0.000372  0.006898 -0.005534 -0.284229
61  0.826810 11.791080 -4.879054  1.570796 -0.000000 0.000000
62  0.000000 0.000000 0.000000  -0.078727 -3.136056 0.284226
63  0.000000 0.000000 0.000000  1.570796 -0.000000 0.000000
64  -1.921258 -10.295339 -3.604996  1.502933 -0.030384 0.016924
65  0.138890 1.332073 2.917742  0.218555 -0.000000 -0.000000
66  0.001799 2.530067 7.394070  -0.065995 -0.000000 -0.000000
67  0.001798 1.942318 1.162124  0.000000 -0.000000 -0.000000
68  0.000001 2.151127 0.921549  0.000000 -0.000000 -0.000000
69  0.001798 1.602803 0.295478  -0.876616 0.001216 0.000412
70  0.399188 1.332072 2.917741  0.070303 0.000000 -0.000000
71  -1.974946 -10.679516 -1.624885  1.502933 -0.030384 0.016924
72  -0.045183 -0.374539 0.583136  0.000000 -0.000000 -0.000000
73  0.077168 -0.711761 0.490936  0.000000 -0.000000 -0.000000
time 5
0  0.000006 0.000000 0.000000  -1.570800 -1.391899 -1.570792
1  -9.841317 -7.634221 1.937669  -1.544956 -1.855077 -0.198630
2  6.027525 -0.000329 0.000190  -0.265729 -1.482731 -1.738018
3  11.692114 0.000646 -0.000738  -0.990398 0.000003 -0.875866
4  11.480715 0.000602 -0.000416  1.045012 -0.348244 0.445021
5  3.666627 -0.163904 -1.204802  -0.519250 0.086737 -1.532179
6  1.312590 0.000010 0.000008  -0.003664 0.023356 -0.272237
7  0.729355 0.000054 0.000049  -0.003677 0.000626 -0.150723
8  3.942140 0.046331 -0.431542  -0.205965 0.132197 -1.449654
9  1.539110 0.000083 0.000004  -0.000570 0.007396 -0.283198
10  1.196332 0.000145 0.000028  -0.000713 0.000161 -0.519018
11  3.883509 -0.047212 0.431350  -0.042690 0.198097 -1.260493
12  1.719573 -0.000029 0.000017  -0.000644 0.003280 -0.404344
13  1.209179 0.000090 0.000012  -0.000905 0.002861 -0.623853
14  3.859676 -0.138418 1.332379  -0.235831 0.317274 -1.342437
15  1.719449 -0.000019 0.000028  0.001902 0.001157 -0.067177
16  1.099675 0.000049 0.000005  -0.000943 0.002399 -0.620101
17  0.459533 -0.272516 1.494839  -0.993276 -0.518349 -0.465024
18  1.789819 -0.000005 -0.000017  -0.001964 0.000105 0.251441
19  1.207017 -0.000012 -0.000044  -0.002235 -0.004014 0.005434
20  5.740636 0.000388 -0.000699  -0.116601 0.000003 0.000063
21  11.481152 0.000300 -0.000735  -0.086634 -0.068420 0.056003
22  6.027524 -0.000329 0.000201  1.533520 -0.079888 1.841172
23  0.000000 11.692099 -0.000007  -0.638578 -0.178322 -0.528064
24  0.000003 0.000009 -0.000001  -0.121333 -0.000031 1.570739
25  0.000001 -0.000012 0.000000  0.868960 0.000002 1.570712
26  -6.899342 -10.734701 0.826813  1.473120 1.855075 -0.198639
27  6.027517 -0.000263 -0.000216  1.605123 1.251326 -0.654798
28  11.691991 0.000162 0.000858  0.139890 0.000017 -1.015991
29  11.480453 -0.000020 0.000833  -1.271910 0.516073 0.615694
30  3.710775 -0.434235 1.096849  0.985959 -0.066627 -1.663656
31  1.312561 0.000031 -0.000001  0.082208 -0.225915 -0.738634
32  0.729346 0.000065 -0.000029  -0.153604 -0.114132 -0.948932
33  3.820806 -0.154609 0.327900  0.553858 -0.107943 -1.347608
34  1.539095 0.000004 -0.000002  0.053279 -0.065121 -0.990467
35  1.196302 0.000081 -0.000003  -0.018057 -0.011860 -1.378628
36  3.882445 -0.171892 -0.416804  0.531898 -0.203628 -1.075419
37  1.719565 -0.000083 -0.000005  0.009223 -0.076874 -1.263105
38  1.209193 0.000035 0.000012  0.003285 -0.002932 -1.071000
39  3.859584 -0.149082 -1.331322  0.085622 -0.161690 -0.503027
40  1.719412 -0.000096 -0.000037  0.039659 0.020843 -0.633830
41  1.099673 0.000023 0.000006  -0.009175 -0.007603 -0.655165
42  0.230504 -0.805067 -1.086893  1.019226 0.469392 -0.636104
43  1.789780 -0.000008 -0.000043  -0.081444 -0.068283 0.252588
44  1.206995 -0.000007 0.000005  0.073274 0.023224 0.166518
45  5.740573 0.000077 0.000721  0.094210 -0.000014 0.000028
46  11.481035 0.000069 0.000911  0.031555 0.094525 0.094032
47  6.027515 -0.000273 -0.000229  -1.316650 -0.195727 -1.583166
48  -0.000001 11.691975 -0.000008  -0.730901 0.235502 0.599630
49  0.000004 0.000000 -0.000001  2.412441 -0.000036 1.570860
50  -0.000007 -0.000014 0.000004  2.272645 -0.000036 1.570861
51  -2.502198 -8.267776 -4.875593  -0.155430 -2.948692 1.242456
52  0.000001 0.000000 0.000000  0.008153 -0.000259 0.000009
53  0.000000 -0.000000 -0.000000  1.565115 0.043565 -0.106862
54  0.203105 -9.910724 -5.834349  -0.527876 -0.022537 -1.969510
55  -0.000000 0.000000 0.000000  0.000000 -0.000001 -0.000002
56  0.000030 0.000029 0.000001  -1.571901 -0.044449 -0.106509
57  12.000549 -19.544212 -17.246658  1.570796 -0.000000 0.000000
58  -15.417984 4.000748 -22.641926  1.570796 -0.000000 0.000000
59  1.941978 9.263218 -8.327020  1.570796 -0.000000 0.000000
60  -0.004311 0.001229 -0.000372  0.006898 -0.005534 -0.284229
61  0.826810 11.791080 -4.879054  1.570796 -0.000000 0.000000
62  0.000000 0.000000 0.000000  -0.078727 -3.136056 0.284226
63  0.000000 0.000000 0.000000  1.570796 -0.000000 0.000000
64  -1.914401 -10.747840 -3.691543  1.566756 -0.015471 -0.006534
65  0.138890 1.332072 2.917739  0.000000 0.000000 -0.000000
66  0.001798 2.530067 7.394067  -0.065995 -0.000000 -0.000000
67  0.001798 1.942318 1.162124  0.000000 0.000000 -0.000000
68  0.000000 2.151127 0.921548  0.000000 0.000000 -0.000000
69  0.001798 1.602803 0.295477  -0.876616 0.001216 0.000412
70  0.399188 1.332072 2.917740  0.070303 0.000000 -0.000000
71  -1.947931 -11.256415 -1.739227  1.566756 -0.015471 -0.006534
72  -0.045183 -0.374539 0.583136  0.000000 0.000000 -0.000000
73  0.077168 -0.711761 0.490936  0.000000 0.000000 -0.000000
time 6
0  0.000006 0.000000 0.000000  -1.570800 -1.391899 -1.570792
1  -9.841317 -7.634221 1.937669  -1.544956 -1.855077 -0.198630
2  6.027525 -0.000328 0.000190  -0.015571 -1.483585 -1.980941
3  11.692113 0.000644 -0.000739  -0.990394 0.000005 -0.814892
4  11.480236 0.000522 -0.000540  1.011188 -0.308868 0.430203
5  3.666627 -0.163904 -1.204802  -0.519250 0.086737 -1.532179
6  1.312589 0.000010 0.000007  -0.003664 0.023357 -0.272237
7  0.729356 0.000055 0.000050  -0.003677 0.000626 -0.150723
8  3.942140 0.046331 -0.431543  -0.205965 0.132197 -1.449654
9  1.539110 0.000085 0.000005  -0.000570 0.007396 -0.283198
10  1.196333 0.000145 0.000028  -0.000713 0.000161 -0.519018
11  3.883510 -0.047212 0.431351  -0.042690 0.198097 -1.260493
12  1.719572 -0.000030 0.000017  -0.000644 0.003280 -0.404344
13  1.209180 0.000090 0.000012  -0.000905 0.002861 -0.623853
14  3.859676 -0.138418 1.332380  -0.235831 0.317274 -1.342437
15  1.719448 -0.000017 0.000029  0.001902 0.001157 -0.067177
16  1.099675 0.000050 0.000006  -0.000943 0.002399 -0.620101
17  0.459533 -0.272516 1.494839  -0.993276 -0.518349 -0.465024
18  1.789819 -0.000003 -0.000016  -0.001964 0.000105 0.251441
19  1.207016 -0.000012 -0.000044  -0.002235 -0.004014 0.005434
20  5.740635 0.000388 -0.000699  -0.120409 0.000003 0.000063
21  11.481054 0.000284 -0.000761  -0.095537 -0.061644 0.053618
22  6.027524 -0.000329 0.000201  1.515453 -0.067518 1.848784
23  0.000000 11.692101 -0.000008  -0.597411 -0.155515 -0.495533
24  0.000003 0.000009 0.000000  -0.121333 -0.000030 1.570739
25  -0.000000 -0.000011 -0.000000  0.868960 0.000002 1.570712
26  -6.899342 -10.734701 0.826813  1.473120 1.855075 -0.198639
27  6.027517 -0.000263 -0.000216  1.608666 1.277169 -0.651222
28  11.691991 0.000163 0.000858  0.139886 0.000014 -0.957415
29  11.480757 0.000110 0.000815  -1.302654 0.508807 0.603129
30  3.710775 -0.434234 1.096849  0.985959 -0.066627 -1.663656
31  1.312560 0.000030 -0.000001  0.082208 -0.225915 -0.738634
32  0.729347 0.000065 -0.000027  -0.153604 -0.114132 -0.948932
33  3.820806 -0.154609 0.327900  0.553858 -0.107943 -1.347607
34  1.539095 0.000003 -0.000000  0.053279 -0.065121 -0.990467
35  1.196302 0.000081 -0.000003  -0.018057 -0.011860 -1.378628
36  3.882445 -0.171892 -0.416804  0.531898 -0.203628 -1.075419
37  1.719566 -0.000083 -0.000005  0.009223 -0.076874 -1.263105
38  1.209193 0.000034 0.000011  0.003285 -0.002932 -1.071000
39  3.859585 -0.149082 -1.331321  0.092287 -0.147866 -0.527210
40  1.719414 -0.000097 -0.000037  0.042285 0.022895 -0.503492
41  1.099673 0.000024 0.000006  -0.009837 -0.007397 -0.635948
42  0.230504 -0.805067 -1.086892  1.019226 0.469392 -0.636104
43  1.789780 -0.000008 -0.000042  -0.081444 -0.068283 0.252588
44  1.206996 -0.000006 0.000005  0.073274 0.023224 0.166518
45  5.740572 0.000078 0.000720  0.083831 -0.000014 0.000028
46  11.481095 0.000095 0.000908  0.026814 0.091432 0.093579
47  6.027515 -0.000273 -0.000229  -1.337055 -0.179383 -1.579164
48  -0.000001 11.691975 -0.000008  -0.692661 0.210801 0.570271
49  0.000003 -0.000000 0.000001  2.412441 -0.000036 1.570860
50  -0.000007 -0.000013 0.000003  2.272645 -0.000036 1.570861
51  -2.501345 -8.594761 -4.898528  -0.192612 -2.966870 1.237324
52  0.000000 0.000000 -0.000000  0.008153 -0.000259 0.000009
53  0.000000 0.000000 0.000001  1.565115 0.043565 -0.106862
54  0.155068 -10.240004 -5.981946  -0.565672 -0.007092 -1.980880
55  -0.000000 -0.000000 0.000001  0.000000 -0.000001 -0.000002
56  0.000029 0.000029 0.000002  -1.571901 -0.044449 -0.106509
57  12.000549 -19.544212 -17.246658  1.570796 -0.000000 0.000000
58  -15.417984 4.000748 -22.641926  1.570796 -0.000000 0.000000
59  1.941978 9.263218 -8.327020  1.570796 -0.000000 0.000000
60  -0.004311 0.001229 -0.000372  0.006898 -0.005534 -0.284229
61  0.826810 11.791080 -4.879054  1.570796 -0.000000 0.000000
62  0.000000 0.000000 0.000000  -0.078727 -3.136056 0.284226
63  0.000000 0.000000 0.000000  1.570796 -0.000000 0.000000
64  -1.910708 -11.114975 -3.804055  1.595462 0.013560 -0.018491
65  0.138890 1.332072 2.917740  0.000000 0.000000 -0.000000
66  0.001799 2.530067 7.394066  -0.065995 -0.000000 -0.000000
67  0.001798 1.942318 1.162124  0.000000 0.000000 -0.000000
68  0.000000 2.151127 0.921548  0.000000 0.000000 -0.000000
69  0.001798 1.602803 0.295477  -0.876616 0.001216 0.000412
70  0.399188 1.332072 2.917740  0.070303 0.000000 -0.000000
71  -1.894885 -11.679979 -1.867091  1.595462 0.013560 -0.018491
72  -0.045183 -0.374539 0.583137  0.000000 0.000000 -0.000000
73  0.077168 -0.711761 0.490938  0.000000 0.000000 -0.000000
time 7
0  0.000006 0.000000 0.000000  -1.570800 -1.391899 -1.570792
1  -9.841317 -7.634221 1.937669  -1.544956 -1.855077 -0.198630
2  6.027525 -0.000328 0.000190  0.087642 -1.480808 -2.075664
3  11.692113 0.000644 -0.000739  -0.990392 0.000006 -0.785554
4  11.480744 0.000618 -0.000391  1.003254 -0.299034 0.400904
5  3.666625 -0.163904 -1.204802  -0.519250 0.086737 -1.532179
6  1.312590 0.000008 0.000008  -0.003664 0.023357 -0.272237
7  0.729356 0.000056 0.000048  -0.003677 0.000626 -0.150723
8  3.942140 0.046331 -0.431543  -0.205965 0.132196 -1.449654
9  1.539110 0.000084 0.000004  -0.000570 0.007396 -0.283198
10  1.196332 0.000147 0.000028  -0.000713 0.000161 -0.519019
11  3.883509 -0.047212 0.431351  -0.042690 0.198097 -1.260493
12  1.719573 -0.000029 0.000017  -0.000644 0.003280 -0.404344
13  1.209179 0.000090 0.000012  -0.000905 0.002861 -0.623853
14  3.859676 -0.138418 1.332380  -0.235831 0.317274 -1.342437
15  1.719448 -0.000019 0.000028  0.001902 0.001157 -0.067177
16  1.099675 0.000048 0.000005  -0.000943 0.002399 -0.620101
17  0.459532 -0.272516 1.494840  -0.993276 -0.518349 -0.465024
18  1.789819 -0.000003 -0.000017  -0.001964 0.000105 0.251441
19  1.207016 -0.000012 -0.000043  -0.002235 -0.004014 0.005434
20  5.740637 0.000388 -0.000699  -0.121061 0.000003 0.000063
21  11.481157 0.000303 -0.000731  -0.098212 -0.058833 0.048056
22  6.027524 -0.000329 0.000201  1.506823 -0.063412 1.857435
23  0.000000 11.692097 -0.000008  -0.577392 -0.145019 -0.479589
24  0.000002 0.000008 -0.000000  -0.121332 -0.000031 1.570739
25  0.000000 -0.000012 0.000000  0.868960 0.000002 1.570712
26  -6.899342 -10.734701 0.826813  1.473120 1.855075 -0.198639
27  6.027517 -0.000263 -0.000216  1.604464 1.285167 -0.654491
28  11.691991 0.000161 0.000859  0.139885 0.000013 -0.928478
29  11.479954 -0.000186 0.000856  -1.322272 0.506391 0.569054
30  3.710776 -0.434234 1.096849  0.985959 -0.066627 -1.663656
31  1.312561 0.000031 0.000001  0.082208 -0.225915 -0.738634
32  0.729347 0.000066 -0.000028  -0.153604 -0.114132 -0.948932
33  3.820807 -0.154609 0.327900  0.553858 -0.107943 -1.347607
34  1.539096 0.000005 -0.000002  0.053279 -0.065121 -0.990467
35  1.196302 0.000081 -0.000003  -0.018057 -0.011860 -1.378628
36  3.882446 -0.171892 -0.416804  0.531898 -0.203628 -1.075419
37  1.719566 -0.000082 -0.000005  0.009223 -0.076874 -1.263105
38  1.209193 0.000034 0.000012  0.003285 -0.002932 -1.071000
39  3.859586 -0.149082 -1.331322  0.088181 -0.152586 -0.501364
40  1.719412 -0.000097 -0.000038  0.039765 0.027191 -0.602002
41  1.099671 0.000024 0.000006  -0.009478 -0.007939 -0.692755
42  0.230503 -0.805067 -1.086893  1.019226 0.469392 -0.636104
43  1.789779 -0.000008 -0.000042  -0.081444 -0.068283 0.252588
44  1.206995 -0.000007 0.000005  0.073274 0.023224 0.166518
45  5.740573 0.000076 0.000721  0.077391 -0.000014 0.000028
46  11.480935 0.000035 0.000916  0.024549 0.089566 0.088109
47  6.027515 -0.000273 -0.000229  -1.344279 -0.175529 -1.577131
48  -0.000001 11.691976 -0.000008  -0.673573 0.199008 0.555472
49  0.000003 -0.000000 0.000001  2.412441 -0.000036 1.570860
50  -0.000008 -0.000012 0.000005  2.272645 -0.000036 1.570861
51  -2.529123 -8.760075 -5.012764  -0.206057 -2.957678 1.243507
52  -0.000002 0.000000 -0.000000  0.008153 -0.000259 0.000009
53  0.000000 -0.000000 0.000000  1.565115 0.043565 -0.106862
54  0.116456 -10.400130 -6.130031  -0.578149 -0.017284 -1.976942
55  -0.000001 -0.000001 -0.000000  0.000000 -0.000001 -0.000002
56  0.000029 0.000028 0.000001  -1.571901 -0.044449 -0.106509
57  12.000549 -19.544212 -17.246658  1.570796 -0.000000 0.000000
58  -15.417984 4.000748 -22.641926  1.570796 -0.000000 0.000000
59  1.941978 9.263218 -8.327020  1.570796 -0.000000 0.000000
60  -0.004311 0.001229 -0.000372  0.006898 -0.005534 -0.284229
61  0.826810 11.791080 -4.879054  1.570796 -0.000000 0.000000
62  0.000000 0.000000 0.000000  -0.078727 -3.136056 0.284226
63  0.000000 0.000000 0.000000  1.570796 -0.000000 0.000000
64  -1.911986 -11.273179 -3.916567  1.590800 0.028981 -0.014805
65  0.138890 1.332072 2.917741  -0.000000 -0.000000 -0.000000
66  0.001799 2.530067 7.394068  -0.065995 -0.000000 -0.000000
67  0.001798 1.942318 1.162124  -0.000000 -0.000000 -0.000000
68  0.000001 2.151127 0.921550  -0.000000 -0.000000 -0.000000
69  0.001798 1.602803 0.295478  -0.876616 0.001216 0.000412
70  0.399188 1.332072 2.917741  0.070303 -0.000000 -0.000000
71  -1.864009 -11.829530 -1.977628  1.590800 0.028981 -0.014805
72  -0.045183 -0.374539 0.583138  -0.000000 -0.000000 -0.000000
73  0.077168 -0.711761 0.490938  -0.000000 -0.000000 -0.000000
time 8
0  0.000006 0.000000 0.000000  -1.570800 -1.391899 -1.570792
1  -9.841317 -7.634221 1.937669  -1.544956 -1.855077 -0.198630
2  6.027525 -0.000328 0.000190  0.032369 -1.479788 -2.015360
3  11.692114 0.000644 -0.000739  -0.990392 0.000006 -0.791762
4  11.480724 0.000616 -0.000396  1.011281 -0.308610 0.390360
5  3.666627 -0.163904 -1.204801  -0.519250 0.086737 -1.532179
6  1.312589 0.000009 0.000008  -0.003664 0.023356 -0.272237
7  0.729354 0.000054 0.000049  -0.003677 0.000626 -0.150723
8  3.942140 0.046331 -0.431542  -0.205965 0.132196 -1.449654
9  1.539111 0.000083 0.000003  -0.000570 0.007396 -0.283198
10  1.196333 0.000146 0.000028  -0.000713 0.000161 -0.519018
11  3.883509 -0.047212 0.431351  -0.042690 0.198097 -1.260493
12  1.719572 -0.000028 0.000017  -0.000644 0.003280 -0.404344
13  1.209179 0.000088 0.000012  -0.000905 0.002861 -0.623853
14  3.859677 -0.138418 1.332380  -0.235831 0.317274 -1.342437
15  1.719448 -0.000018 0.000028  0.001902 0.001157 -0.067177
16  1.099675 0.000048 0.000005  -0.000943 0.002399 -0.620101
17  0.459534 -0.272516 1.494839  -0.993276 -0.518349 -0.465024
18  1.789818 -0.000004 -0.000016  -0.001964 0.000104 0.251441
19  1.207016 -0.000012 -0.000044  -0.002235 -0.004014 0.005434
20  5.740636 0.000390 -0.000699  -0.119727 0.000003 0.000063
21  11.481153 0.000304 -0.000732  -0.096430 -0.059928 0.045832
22  6.027524 -0.000329 0.000201  1.509731 -0.067603 1.862501
23  -0.000000 11.692100 -0.000007  -0.581639 -0.147213 -0.482978
24  0.000003 0.000007 -0.000001  -0.121332 -0.000030 1.570739
25  -0.000000 -0.000010 0.000000  0.868960 0.000002 1.570712
26  -6.899342 -10.734701 0.826813  1.473120 1.855075 -0.198639
27  6.027517 -0.000263 -0.000216  1.595558 1.278823 -0.661998
28  11.691990 0.000162 0.000858  0.139885 0.000013 -0.931161
29  11.479866 -0.000218 0.000862  -1.317800 0.506434 0.553347
30  3.710775 -0.434235 1.096848  0.985959 -0.066627 -1.663656
31  1.312561 0.000033 -0.000000  0.082208 -0.225915 -0.738634
32  0.729347 0.000067 -0.000028  -0.153604 -0.114132 -0.948932
33  3.820806 -0.154609 0.327899  0.553858 -0.107943 -1.347608
34  1.539094 0.000003 -0.000002  0.053279 -0.065121 -0.990467
35  1.196302 0.000081 -0.000003  -0.018057 -0.011860 -1.378628
36  3.882446 -0.171892 -0.416805  0.531898 -0.203628 -1.075419
37  1.719566 -0.000084 -0.000005  0.009223 -0.076874 -1.263105
38  1.209193 0.000033 0.000011  0.003285 -0.002932 -1.071000
39  3.859585 -0.149082 -1.331322  0.083950 -0.157199 -0.475480
40  1.719413 -0.000097 -0.000037  0.037125 0.029514 -0.700561
41  1.099672 0.000022 0.000006  -0.009064 -0.008454 -0.749561
42  0.230503 -0.805067 -1.086893  1.019226 0.469392 -0.636104
43  1.789780 -0.000007 -0.000042  -0.081444 -0.068283 0.252588
44  1.206995 -0.000007 0.000005  0.073274 0.023224 0.166518
45  5.740572 0.000080 0.000721  0.077712 -0.000014 0.000028
46  11.480918 0.000031 0.000918  0.025927 0.089571 0.084794
47  6.027515 -0.000273 -0.000229  -1.340720 -0.181395 -1.576732
48  -0.000001 11.691975 -0.000008  -0.675348 0.200090 0.556852
49  0.000003 0.000001 0.000000  2.412441 -0.000036 1.570860
50  -0.000007 -0.000012 0.000005  2.272645 -0.000036 1.570861
51  -2.546184 -8.756457 -5.129604  -0.197643 -2.949032 1.249876
52  0.000001 0.000000 -0.000000  0.008153 -0.000259 0.000009
53  -0.000000 -0.000000 -0.000000  1.565115 0.043565 -0.106862
54  0.117985 -10.387352 -6.215670  -0.569232 -0.025259 -1.969188
55  0.000001 -0.000000 -0.000000  0.000000 -0.000001 -0.000002
56  0.000031 0.000029 0.000001  -1.571901 -0.044449 -0.106509
57  12.000549 -19.544212 -17.246658  1.570796 -0.000000 0.000000
58  -15.417984 4.000748 -22.641926  1.570796 -0.000000 0.000000
59  1.941978 9.263218 -8.327020  1.570796 -0.000000 0.000000
60  -0.004311 0.001229 -0.000372  0.006898 -0.005534 -0.284229
61  0.826810 11.791080 -4.879054  1.570796 -0.000000 0.000000
62  0.000000 0.000000 0.000000  -0.078727 -3.136056 0.284226
63  0.000000 0.000000 0.000000  1.570796 -0.000000 0.000000
64  -1.914798 -11.252569 -4.003115  1.580024 0.023781 -0.007145
65  0.138890 1.332072 2.917742  0.000000 -0.000000 0.000000
66  0.001799 2.530067 7.394067  -0.065995 -0.000000 -0.000000
67  0.001798 1.942318 1.162124  0.000000 -0.000000 0.000000
68  0.000001 2.151127 0.921549  0.000000 -0.000000 0.000000
69  0.001798 1.602803 0.295479  -0.876616 0.001216 0.000412
70  0.399188 1.332072 2.917740  0.070303 0.000000 0.000000
71  -1.872355 -11.787531 -2.058037  1.580024 0.023781 -0.007145
72  -0.045183 -0.374539 0.583136  0.000000 -0.000000 0.000000
73  0.077168 -0.711761 0.490936  0.000000 -0.000000 0.000000
time 9
0  0.000006 0.000000 0.000000  -1.570800 -1.391899 -1.570792
1  -9.841317 -7.634221 1.937669  -1.544956 -1.855077 -0.198630
2  6.027525 -0.000328 0.000190  -0.026089 -1.479566 -1.955788
3  11.692113 0.000645 -0.000739  -0.990393 0.000005 -0.801825
4  11.480633 0.000598 -0.000424  1.027186 -0.319857 0.384767
5  3.666627 -0.163903 -1.204802  -0.519250 0.086737 -1.532179
6  1.312589 0.000009 0.000008  -0.003664 0.023356 -0.272237
7  0.729355 0.000054 0.000050  -0.003677 0.000626 -0.150723
8  3.942141 0.046331 -0.431543  -0.205965 0.132196 -1.449654
9  1.539110 0.000083 0.000004  -0.000570 0.007396 -0.283198
10  1.196333 0.000145 0.000028  -0.000713 0.000161 -0.519018
11  3.883511 -0.047212 0.431350  -0.042690 0.198097 -1.260493
12  1.719573 -0.000028 0.000018  -0.000644 0.003280 -0.404344
13  1.209179 0.000092 0.000013  -0.000905 0.002861 -0.623854
14  3.859677 -0.138418 1.332379  -0.235831 0.317274 -1.342437
15  1.719448 -0.000019 0.000028  0.001902 0.001157 -0.067177
16  1.099675 0.000047 0.000005  -0.000943 0.002399 -0.620101
17  0.459534 -0.272515 1.494839  -0.993276 -0.518349 -0.465024
18  1.789819 -0.000004 -0.000016  -0.001964 0.000105 0.251441
19  1.207016 -0.000012 -0.000043  -0.002235 -0.004014 0.005434
20  5.740636 0.000389 -0.000700  -0.117036 0.000003 0.000063
21  11.481135 0.000300 -0.000738  -0.092957 -0.061285 0.044827
22  6.027524 -0.000329 0.000201  1.513640 -0.071226 1.863587
23  -0.000002 11.692098 -0.000008  -0.588511 -0.150801 -0.488454
24  0.000003 0.000008 -0.000001  -0.121333 -0.000030 1.570738
25  -0.000002 -0.000012 -0.000000  0.868960 0.000002 1.570712
26  -6.899342 -10.734701 0.826813  1.473120 1.855075 -0.198639
27  6.027517 -0.000263 -0.000216  1.589539 1.272311 -0.667055
28  11.691992 0.000161 0.000859  0.139885 0.000014 -0.938295
29  11.479638 -0.000311 0.000875  -1.306733 0.507473 0.542521
30  3.710775 -0.434235 1.096848  0.985959 -0.066627 -1.663656
31  1.312560 0.000032 -0.000001  0.082208 -0.225915 -0.738634
32  0.729348 0.000065 -0.000028  -0.153604 -0.114132 -0.948933
33  3.820806 -0.154609 0.327899  0.553858 -0.107943 -1.347607
34  1.539094 0.000003 -0.000002  0.053279 -0.065121 -0.990467
35  1.196302 0.000082 -0.000003  -0.018057 -0.011860 -1.378628
36  3.882445 -0.171892 -0.416804  0.531898 -0.203628 -1.075419
37  1.719565 -0.000084 -0.000004  0.009223 -0.076874 -1.263105
38  1.209193 0.000034 0.000012  0.003285 -0.002932 -1.071000
39  3.859583 -0.149082 -1.331322  0.083950 -0.157199 -0.475480
40  1.719413 -0.000097 -0.000038  0.037125 0.029514 -0.700561
41  1.099673 0.000023 0.000006  -0.009064 -0.008454 -0.749561
42  0.230504 -0.805067 -1.086893  1.019226 0.469392 -0.636104
43  1.789779 -0.000008 -0.000042  -0.081444 -0.068283 0.252588
44  1.206995 -0.000008 0.000005  0.073274 0.023224 0.166518
45  5.740572 0.000079 0.000721  0.079895 -0.000014 0.000028
46  11.480871 0.000012 0.000921  0.028299 0.090118 0.082035
47  6.027515 -0.000273 -0.000229  -1.336571 -0.186766 -1.576790
48  -0.000000 11.691975 -0.000008  -0.680064 0.202978 0.560514
49  0.000004 0.000000 0.000001  2.412441 -0.000036 1.570860
50  -0.000007 -0.000013 0.000005  2.272645 -0.000036 1.570861
51  -2.555931 -8.724832 -5.203548  -0.182681 -2.940219 1.254890
52  0.000000 0.000000 -0.000000  0.008153 -0.000259 0.000009
53  -0.000000 -0.000000 -0.000000  1.565115 0.043565 -0.106862
54  0.133017 -10.348215 -6.238604  -0.553923 -0.032928 -1.961691
55  0.000000 -0.000000 -0.000000  0.000000 -0.000001 -0.000002
56  0.000030 0.000029 0.000001  -1.571901 -0.044449 -0.106509
57  12.000549 -19.544212 -17.246658  1.570796 -0.000000 0.000000
58  -15.417984 4.000748 -22.641926  1.570796 -0.000000 0.000000
59  1.941978 9.263218 -8.327020  1.570796 -0.000000 0.000000
60  -0.004311 0.001229 -0.000372  0.006898 -0.005534 -0.284229
61  0.826810 11.791080 -4.879054  1.570796 -0.000000 0.000000
62  0.000000 0.000000 0.000000  -0.078727 -3.136056 0.284226
63  0.000000 0.000000 0.000000  1.570796 -0.000000 0.000000
64  -1.917610 -11.201043 -4.037734  1.567096 0.012561 0.000562
65  0.138890 1.332072 2.917740  0.000000 -0.000000 -0.000000
66  0.001799 2.530067 7.394068  -0.065995 -0.000000 -0.000000
67  0.001798 1.942318 1.162123  0.000000 -0.000000 -0.000000
68  0.000001 2.151127 0.921548  0.000000 -0.000000 -0.000000
69  0.001798 1.602803 0.295477  -0.876616 0.001216 0.000412
70  0.399188 1.332072 2.917740  0.070303 0.000000 -0.000000
71  -1.892800 -11.710477 -2.085511  1.567096 0.012561 0.000562
72  -0.045183 -0.374539 0.583137  0.000000 -0.000000 -0.000000
73  0.077168 -0.711762 0.490937  0.000000 -0.000000 -0.000000
time 10
0  0.000006 0.000000 0.000000  -1.570800 -1.391899 -1.570792
1  -9.841317 -7.634221 1.937669  -1.544956 -1.855077 -0.198630
2  6.027525 -0.000329 0.000190  -0.073884 -1.479948 -1.909986
3  11.692113 0.000647 -0.000740  -0.990394 0.000005 -0.812422
4  11.480309 0.000534 -0.000521  1.043103 -0.327328 0.383998
5  3.666628 -0.163904 -1.204802  -0.519250 0.086737 -1.532179
6  1.312590 0.000011 0.000008  -0.003664 0.023357 -0.272237
7  0.729355 0.000055 0.000049  -0.003677 0.000626 -0.150723
8  3.942142 0.046331 -0.431543  -0.205965 0.132197 -1.449654
9  1.539111 0.000082 0.000004  -0.000570 0.007396 -0.283198
10  1.196333 0.000147 0.000029  -0.000713 0.000161 -0.519018
11  3.883511 -0.047212 0.431351  -0.042690 0.198097 -1.260493
12  1.719573 -0.000029 0.000017  -0.000644 0.003280 -0.404344
13  1.209179 0.000090 0.000012  -0.000905 0.002861 -0.623853
14  3.859678 -0.138418 1.332380  -0.235831 0.317274 -1.342437
15  1.719448 -0.000018 0.000028  0.001902 0.001157 -0.067177
16  1.099675 0.000049 0.000005  -0.000943 0.002399 -0.620101
17  0.459535 -0.272516 1.494840  -0.993276 -0.518349 -0.465024
18  1.789820 -0.000005 -0.000017  -0.001964 0.000105 0.251441
19  1.207017 -0.000013 -0.000044  -0.002235 -0.004014 0.005434
20  5.740636 0.000389 -0.000700  -0.114354 0.000003 0.000063
21  11.481071 0.000286 -0.000758  -0.089564 -0.062127 0.044972
22  6.027524 -0.000329 0.000201  1.517330 -0.073566 1.861526
23  -0.000000 11.692100 -0.000007  -0.595731 -0.154619 -0.494198
24  0.000003 0.000009 -0.000000  -0.121333 -0.000030 1.570739
25  0.000001 -0.000012 0.000000  0.868960 0.000002 1.570712
26  -6.899342 -10.734701 0.826813  1.473120 1.855075 -0.198639
27  6.027517 -0.000263 -0.000216  1.586721 1.266905 -0.669431
28  11.691990 0.000161 0.000859  0.139886 0.000014 -0.948457
29  11.480811 0.000134 0.000811  -1.295232 0.511057 0.539959
30  3.710774 -0.434235 1.096849  0.985959 -0.066627 -1.663656
31  1.312561 0.000031 -0.000000  0.082208 -0.225915 -0.738634
32  0.729348 0.000065 -0.000028  -0.153604 -0.114132 -0.948933
33  3.820805 -0.154608 0.327900  0.553858 -0.107943 -1.347607
34  1.539094 0.000003 -0.000001  0.053279 -0.065121 -0.990467
35  1.196303 0.000080 -0.000003  -0.018057 -0.011860 -1.378628
36  3.882444 -0.171892 -0.416804  0.531898 -0.203628 -1.075419
37  1.719564 -0.000083 -0.000005  0.009223 -0.076874 -1.263105
38  1.209192 0.000034 0.000011  0.003285 -0.002932 -1.071000
39  3.859584 -0.149082 -1.331322  0.083950 -0.157199 -0.475480
40  1.719414 -0.000097 -0.000037  0.037125 0.029514 -0.700561
41  1.099674 0.000024 0.000006  -0.009064 -0.008454 -0.749561
42  0.230503 -0.805067 -1.086892  1.019226 0.469392 -0.636104
43  1.789780 -0.000007 -0.000042  -0.081444 -0.068283 0.252588
44  1.206995 -0.000007 0.000005  0.073274 0.023224 0.166518
45  5.740572 0.000078 0.000721  0.082714 -0.000014 0.000028
46  11.481107 0.000100 0.000907  0.030313 0.091280 0.080779
47  6.027515 -0.000273 -0.000229  -1.332753 -0.190748 -1.577191
48  -0.000001 11.691976 -0.000008  -0.686766 0.207121 0.565710
49  0.000003 -0.000000 0.000000  2.412441 -0.000036 1.570860
50  -0.000007 -0.000013 0.000004  2.272645 -0.000036 1.570861
51  -2.552996 -8.673041 -5.222816  -0.168372 -2.933348 1.255633
52  -0.000001 0.000000 0.000000  0.008153 -0.000259 0.000009
53  -0.000001 -0.000000 0.000000  1.565115 0.043565 -0.106862
54  0.153193 -10.297573 -6.210030  -0.539436 -0.038748 -1.958557
55  -0.000000 -0.000000 -0.000000  0.000000 -0.000001 -0.000002
56  0.000030 0.000029 0.000001  -1.571901 -0.044449 -0.106509
57  12.000549 -19.544212 -17.246658  1.570796 -0.000000 0.000000
58  -15.417984 4.000748 -22.641926  1.570796 -0.000000 0.000000
59  1.941978 9.263218 -8.327020  1.570796 -0.000000 0.000000
60  -0.004311 0.001229 -0.000372  0.006898 -0.005534 -0.284229
61  0.826810 11.791080 -4.879054  1.570796 -0.000000 0.000000
62  0.000000 0.000000 0.000000  -0.078727 -3.136056 0.284226
63  0.000000 0.000000 0.000000  1.570796 -0.000000 0.000000
64  -1.918888 -11.134060 -4.023027  1.556190 0.001401 0.004139
65  0.138890 1.332073 2.917740  -0.000000 0.000000 0.000000
66  0.001799 2.530068 7.394067  -0.065995 -0.000000 -0.000000
67  0.001798 1.942318 1.162123  -0.000000 0.000000 0.000000
68  0.000000 2.151127 0.921548  -0.000000 0.000000 0.000000
69  0.001798 1.602803 0.295478  -0.876616 0.001216 0.000412
70  0.399188 1.332072 2.917740  0.070303 0.000000 -0.000000
71  -1.914124 -11.622169 -2.065213  1.556190 0.001401 0.004139
72  -0.045183 -0.374539 0.583137  -0.000000 0.000000 0.000000
73  0.077168 -0.711761 0.490937  -0.000000 0.000000 0.000000
time 11
0  0.000006 0.000000 0.000000  -1.570800 -1.391899 -1.570792
1  -9.841317 -7.634221 1.937669  -1.544956 -1.855077 -0.198630
2  6.027525 -0.000329 0.000190  -0.112072 -1.480340 -1.874250
3  11.692114 0.000645 -0.000740  -0.990394 0.000005 -0.822568
4  11.480016 0.000478 -0.000607  1.049731 -0.330604 0.387571
5  3.666628 -0.163903 -1.204802  -0.519250 0.086737 -1.532179
6  1.312589 0.000011 0.000008  -0.003664 0.023356 -0.272237
7  0.729355 0.000055 0.000048  -0.003677 0.000626 -0.150723
8  3.942140 0.046331 -0.431542  -0.205965 0.132196 -1.449654
9  1.539110 0.000083 0.000003  -0.000570 0.007396 -0.283198
10  1.196332 0.000145 0.000028  -0.000713 0.000161 -0.519019
11  3.883511 -0.047212 0.431351  -0.042690 0.198097 -1.260493
12  1.719573 -0.000029 0.000017  -0.000644 0.003280 -0.404344
13  1.209179 0.000091 0.000011  -0.000905 0.002861 -0.623854
14  3.859677 -0.138418 1.332380  -0.235831 0.317274 -1.342437
15  1.719448 -0.000018 0.000028  0.001902 0.001157 -0.067177
16  1.099675 0.000048 0.000006  -0.000943 0.002399 -0.620101
17  0.459534 -0.272516 1.494840  -0.993276 -0.518349 -0.465024
18  1.789819 -0.000004 -0.000017  -0.001964 0.000105 0.251441
19  1.207017 -0.000013 -0.000044  -0.002235 -0.004014 0.005434
20  5.740637 0.000390 -0.000699  -0.113434 0.000003 0.000063
21  11.481013 0.000276 -0.000774  -0.088052 -0.062661 0.045793
22  6.027524 -0.000329 0.000201  1.520395 -0.075228 1.859003
23  0.000001 11.692100 -0.000008  -0.602626 -0.158313 -0.499674
24  0.000003 0.000008 -0.000001  -0.121332 -0.000031 1.570739
25  0.000001 -0.000012 -0.000001  0.868960 0.000002 1.570712
26  -6.899342 -10.734701 0.826813  1.473120 1.855075 -0.198639
27  6.027517 -0.000263 -0.000216  1.586591 1.262899 -0.669584
28  11.691990 0.000161 0.000859  0.139887 0.000015 -0.959551
29  11.480743 0.000106 0.000814  -1.289590 0.515208 0.545561
30  3.710775 -0.434235 1.096848  0.985959 -0.066627 -1.663656
31  1.312560 0.000031 -0.000000  0.082208 -0.225915 -0.738634
32  0.729347 0.000066 -0.000027  -0.153604 -0.114132 -0.948932
33  3.820805 -0.154609 0.327899  0.553858 -0.107943 -1.347607
34  1.539094 0.000003 -0.000001  0.053279 -0.065121 -0.990467
35  1.196302 0.000080 -0.000004  -0.018057 -0.011860 -1.378628
36  3.882444 -0.171892 -0.416805  0.531898 -0.203628 -1.075419
37  1.719565 -0.000082 -0.000005  0.009223 -0.076874 -1.263105
38  1.209195 0.000034 0.000012  0.003285 -0.002932 -1.071000
39  3.859584 -0.149082 -1.331323  0.083950 -0.157199 -0.475480
40  1.719412 -0.000097 -0.000037  0.037125 0.029514 -0.700561
41  1.099672 0.000024 0.000006  -0.009064 -0.008454 -0.749561
42  0.230504 -0.805067 -1.086893  1.019226 0.469392 -0.636104
43  1.789779 -0.000009 -0.000042  -0.081444 -0.068283 0.252588
44  1.206995 -0.000007 0.000005  0.073274 0.023224 0.166518
45  5.740573 0.000078 0.000720  0.084700 -0.000014 0.000028
46  11.481093 0.000095 0.000908  0.030914 0.092413 0.081416
47  6.027515 -0.000273 -0.000229  -1.329561 -0.193244 -1.577829
48  -0.000002 11.691975 -0.000008  -0.694065 0.211682 0.571355
49  0.000003 0.000000 -0.000001  2.412441 -0.000036 1.570860
50  -0.000008 -0.000012 0.000004  2.272645 -0.000036 1.570861
51  -2.543414 -8.610868 -5.201432  -0.161962 -2.930599 1.253187
52  -0.000001 -0.000000 0.000000  0.008153 -0.000259 0.000009
53  0.000000 -0.000000 -0.000001  1.565115 0.043565 -0.106862
54  0.165949 -10.242865 -6.167397  -0.532980 -0.041038 -1.959927
55  0.000000 0.000001 0.000001  0.000000 -0.000001 -0.000002
56  0.000031 0.000029 0.000002  -1.571901 -0.044449 -0.106509
57  12.000549 -19.544212 -17.246658  1.570796 -0.000000 0.000000
58  -15.417984 4.000748 -22.641926  1.570796 -0.000000 0.000000
59  1.941978 9.263218 -8.327020  1.570796 -0.000000 0.000000
60  -0.004311 0.001229 -0.000372  0.006898 -0.005534 -0.284229
61  0.826810 11.791080 -4.879054  1.570796 -0.000000 0.000000
62  0.000000 0.000000 0.000000  -0.078727 -3.136056 0.284226
63  0.000000 0.000000 0.000000  1.570796 -0.000000 0.000000
64  -1.918199 -11.067078 -3.987211  1.551609 -0.003686 0.003032
65  0.138890 1.332072 2.917740  0.000000 -0.000000 0.000000
66  0.001799 2.530068 7.394068  -0.065995 -0.000000 -0.000000
67  0.001798 1.942318 1.162124  0.000000 -0.000000 0.000000
68  0.000000 2.151127 0.921549  0.000000 -0.000000 0.000000
69  0.001798 1.602803 0.295478  -0.876616 0.001216 0.000412
70  0.399188 1.332072 2.917740  0.070303 0.000000 -0.000000
71  -1.923970 -11.546247 -2.027192  1.551609 -0.003686 0.003032
72  -0.045183 -0.374539 0.583136  0.000000 -0.000000 0.000000
73  0.077168 -0.711761 0.490937  0.000000 -0.000000 0.000000
time 12
0  0.000006 0.000000 0.000000  -1.570800 -1.391899 -1.570792
1  -9.841317 -7.634221 1.937669  -1.544956 -1.855077 -0.198630
2  6.027525 -0.000329 0.000190  -0.139184 -1.480612 -1.849153
3  11.692113 0.000646 -0.000739  -0.990395 0.000005 -0.831603
4  11.480933 0.000646 -0.000350  1.045279 -0.332880 0.395909
5  3.666627 -0.163904 -1.204802  -0.519250 0.086737 -1.532179
6  1.312589 0.000010 0.000008  -0.003664 0.023356 -0.272237
7  0.729354 0.000056 0.000049  -0.003677 0.000626 -0.150723
8  3.942140 0.046331 -0.431543  -0.205965 0.132196 -1.449654
9  1.539111 0.000082 0.000004  -0.000570 0.007396 -0.283198
10  1.196332 0.000146 0.000028  -0.000713 0.000161 -0.519018
11  3.883511 -0.047212 0.431351  -0.042690 0.198097 -1.260493
12  1.719573 -0.000030 0.000017  -0.000644 0.003280 -0.404344
13  1.209179 0.000089 0.000012  -0.000905 0.002861 -0.623853
14  3.859676 -0.138418 1.332379  -0.235831 0.317274 -1.342437
15  1.719448 -0.000018 0.000028  0.001902 0.001157 -0.067177
16  1.099675 0.000048 0.000006  -0.000943 0.002399 -0.620101
17  0.459534 -0.272515 1.494838  -0.993276 -0.518349 -0.465024
18  1.789819 -0.000004 -0.000016  -0.001964 0.000105 0.251441
19  1.207017 -0.000012 -0.000044  -0.002235 -0.004014 0.005434
20  5.740637 0.000389 -0.000699  -0.114670 0.000003 0.000063
21  11.481195 0.000309 -0.000723  -0.088593 -0.063579 0.047134
22  6.027524 -0.000329 0.000201  1.522598 -0.076336 1.856932
23  0.000001 11.692099 -0.000008  -0.608753 -0.161634 -0.504531
24  0.000002 0.000008 -0.000000  -0.121333 -0.000030 1.570739
25  0.000001 -0.000013 -0.000000  0.868960 0.000002 1.570712
26  -6.899342 -10.734701 0.826813  1.473120 1.855075 -0.198639
27  6.027517 -0.000263 -0.000216  1.589769 1.260734 -0.667028
28  11.691991 0.000162 0.000859  0.139887 0.000015 -0.969266
29  11.480690 0.000083 0.000818  -1.290384 0.515729 0.557094
30  3.710775 -0.434235 1.096848  0.985959 -0.066627 -1.663656
31  1.312560 0.000032 -0.000001  0.082208 -0.225915 -0.738634
32  0.729347 0.000066 -0.000026  -0.153604 -0.114132 -0.948932
33  3.820806 -0.154610 0.327899  0.553858 -0.107943 -1.347607
34  1.539095 0.000004 -0.000002  0.053279 -0.065121 -0.990467
35  1.196302 0.000079 -0.000003  -0.018057 -0.011860 -1.378628
36  3.882446 -0.171893 -0.416804  0.531898 -0.203628 -1.075419
37  1.719566 -0.000083 -0.000004  0.009223 -0.076874 -1.263105
38  1.209193 0.000032 0.000012  0.003284 -0.002932 -1.071000
39  3.859585 -0.149082 -1.331322  0.083950 -0.157199 -0.475480
40  1.719413 -0.000097 -0.000037  0.037125 0.029514 -0.700561
41  1.099673 0.000022 0.000006  -0.009064 -0.008454 -0.749561
42  0.230503 -0.805067 -1.086893  1.019226 0.469392 -0.636104
43  1.789780 -0.000008 -0.000042  -0.081444 -0.068283 0.252588
44  1.206996 -0.000007 0.000005  0.073274 0.023224 0.166518
45  5.740572 0.000079 0.000720  0.085501 -0.000014 0.000028
46  11.481082 0.000091 0.000909  0.030318 0.092655 0.083689
47  6.027515 -0.000273 -0.000229  -1.327215 -0.193810 -1.578752
48  -0.000001 11.691976 -0.000008  -0.700440 0.215709 0.576275
49  0.000004 -0.000001 -0.000001  2.412441 -0.000036 1.570860
50  -0.000008 -0.000012 0.000004  2.272645 -0.000036 1.570861
51  -2.537397 -8.553737 -5.147891  -0.164431 -2.933301 1.251159
52  -0.000000 -0.000000 0.000000  0.008153 -0.000259 0.000009
53  0.000000 -0.000000 -0.000000  1.565115 0.043565 -0.106862
54  0.166409 -10.189392 -6.123199  -0.535584 -0.038516 -1.962365
55  0.000001 0.000001 0.000000  0.000000 -0.000001 -0.000002
56  0.000031 0.000030 0.000001  -1.571901 -0.044449 -0.106509
57  12.000549 -19.544212 -17.246658  1.570796 -0.000000 0.000000
58  -15.417984 4.000748 -22.641926  1.570796 -0.000000 0.000000
59  1.941978 9.263218 -8.327020  1.570796 -0.000000 0.000000
60  -0.004311 0.001229 -0.000372  0.006898 -0.005534 -0.284229
61  0.826810 11.791080 -4.879054  1.570796 -0.000000 0.000000
62  0.000000 0.000000 0.000000  -0.078727 -3.136056 0.284226
63  0.000000 0.000000 0.000000  1.570796 -0.000000 0.000000
64  -1.916684 -11.015552 -3.942740  1.554934 -0.002245 0.000480
65  0.138890 1.332072 2.917741  0.000000 -0.000000 -0.000000
66  0.001799 2.530067 7.394069  -0.065995 -0.000000 -0.000000
67  0.001798 1.942318 1.162124  0.000000 -0.000000 -0.000000
68  0.000001 2.151126 0.921548  0.000000 -0.000000 -0.000000
69  0.001798 1.602802 0.295477  -0.876616 0.001216 0.000412
70  0.399188 1.332072 2.917740  0.070303 0.000000 -0.000000
71  -1.920847 -11.501219 -1.984317  1.554934 -0.002245 0.000480
72  -0.045183 -0.374539 0.583137  0.000000 -0.000000 -0.000000
73  0.077168 -0.711762 0.490939  0.000000 -0.000000 -0.000000
time 13
0  0.000006 0.000000 0.000000  -1.570800 -1.391899 -1.570792
1  -9.841317 -7.634221 1.937669  -1.544956 -1.855077 -0.198630
2  6.027525 -0.000329 0.000190  -0.144489 -1.481057 -1.845695
3  11.692113 0.000644 -0.000739  -0.990395 0.000005 -0.835863
4  11.480909 0.000643 -0.000355  1.037384 -0.333165 0.405445
5  3.666627 -0.163903 -1.204802  -0.519250 0.086737 -1.532179
6  1.312589 0.000010 0.000008  -0.003664 0.023356 -0.272237
7  0.729355 0.000055 0.000049  -0.003677 0.000626 -0.150723
8  3.942140 0.046331 -0.431543  -0.205965 0.132197 -1.449654
9  1.539109 0.000085 0.000004  -0.000570 0.007396 -0.283198
10  1.196331 0.000145 0.000029  -0.000713 0.000161 -0.519018
11  3.883511 -0.047211 0.431351  -0.042690 0.198097 -1.260493
12  1.719573 -0.000028 0.000017  -0.000644 0.003280 -0.404344
13  1.209179 0.000093 0.000013  -0.000905 0.002861 -0.623854
14  3.859677 -0.138418 1.332380  -0.235831 0.317274 -1.342437
15  1.719449 -0.000020 0.000028  0.001902 0.001157 -0.067177
16  1.099675 0.000050 0.000006  -0.000943 0.002399 -0.620101
17  0.459535 -0.272515 1.494839  -0.993276 -0.518349 -0.465024
18  1.789820 -0.000003 -0.000015  -0.001964 0.000104 0.251441
19  1.207015 -0.000012 -0.000044  -0.002235 -0.004014 0.005434
20  5.740635 0.000389 -0.000699  -0.116392 0.000003 0.000064
21  11.481190 0.000310 -0.000723  -0.089858 -0.064292 0.048658
22  6.027524 -0.000329 0.000201  1.523240 -0.076213 1.855057
23  0.000000 11.692098 -0.000008  -0.611636 -0.163209 -0.506814
24  0.000003 0.000009 -0.000000  -0.121332 -0.000030 1.570738
25  0.000001 -0.000011 -0.000000  0.868960 0.000002 1.570712
26  -6.899342 -10.734701 0.826813  1.473120 1.855075 -0.198639
27  6.027517 -0.000263 -0.000216  1.594178 1.261084 -0.663441
28  11.691992 0.000162 0.000859  0.139887 0.000015 -0.974040
29  11.480662 0.000071 0.000819  -1.292866 0.513719 0.569192
30  3.710773 -0.434235 1.096848  0.985959 -0.066627 -1.663656
31  1.312560 0.000032 0.000001  0.082208 -0.225915 -0.738634
32  0.729347 0.000066 -0.000028  -0.153604 -0.114132 -0.948932
33  3.820805 -0.154609 0.327899  0.553858 -0.107943 -1.347608
34  1.539095 0.000004 -0.000001  0.053279 -0.065121 -0.990467
35  1.196302 0.000080 -0.000003  -0.018057 -0.011860 -1.378628
36  3.882445 -0.171892 -0.416804  0.531898 -0.203628 -1.075419
37  1.719565 -0.000084 -0.000005  0.009223 -0.076874 -1.263105
38  1.209193 0.000033 0.000011  0.003285 -0.002932 -1.071000
39  3.859584 -0.149081 -1.331322  0.083950 -0.157199 -0.475480
40  1.719412 -0.000097 -0.000037  0.037125 0.029514 -0.700561
41  1.099673 0.000022 0.000006  -0.009064 -0.008454 -0.749562
42  0.230504 -0.805067 -1.086893  1.019226 0.469392 -0.636104
43  1.789779 -0.000007 -0.000042  -0.081444 -0.068283 0.252588
44  1.206994 -0.000007 0.000005  0.073274 0.023224 0.166518
45  5.740573 0.000079 0.000720  0.085684 -0.000014 0.000028
46  11.481077 0.000089 0.000908  0.029541 0.092340 0.086253
47  6.027515 -0.000273 -0.000229  -1.326661 -0.192531 -1.579470
48  -0.000001 11.691974 -0.000007  -0.703569 0.217700 0.578685
49  0.000002 -0.000000 0.000000  2.412441 -0.000036 1.570860
50  -0.000007 -0.000013 0.000005  2.272645 -0.000036 1.570861
51  -2.533419 -8.522814 -5.087210  -0.169890 -2.939226 1.249720
52  -0.000000 -0.000000 -0.000000  0.008153 -0.000259 0.000009
53  -0.000000 0.000000 0.000000  1.565115 0.043565 -0.106862
54  0.163053 -10.158157 -6.083127  -0.541347 -0.032993 -1.964711
55  0.000000 0.000000 -0.000000  0.000000 -0.000001 -0.000002
56  0.000030 0.000029 0.000001  -1.571902 -0.044449 -0.106509
57  12.000549 -19.544212 -17.246658  1.570796 -0.000000 0.000000
58  -15.417984 4.000748 -22.641926  1.570796 -0.000000 0.000000
59  1.941978 9.263218 -8.327020  1.570796 -0.000000 0.000000
60  -0.004311 0.001229 -0.000372  0.006898 -0.005534 -0.284229
61  0.826810 11.791080 -4.879054  1.570796 -0.000000 0.000000
62  0.000000 0.000000 0.000000  -0.078727 -3.136056 0.284226
63  0.000000 0.000000 0.000000  1.570796 -0.000000 0.000000
64  -1.915168 -10.994942 -3.902072  1.562238 0.000967 -0.002076
65  0.138890 1.332072 2.917740  -0.000000 0.000000 -0.000000
66  0.001799 2.530068 7.394067  -0.065995 -0.000000 -0.000000
67  0.001798 1.942318 1.162124  -0.000000 0.000000 -0.000000
68  0.000000 2.151127 0.921550  -0.000000 0.000000 -0.000000
69  0.001798 1.602803 0.295478  -0.876616 0.001216 0.000412
70  0.399188 1.332072 2.917740  0.070303 0.000000 -0.000000
71  -1.914315 -11.494902 -1.947244  1.562238 0.000967 -0.002076
72  -0.045183 -0.374539 0.583136  -0.000000 0.000000 -0.000000
73  0.077168 -0.711761 0.490938  -0.000000 0.000000 -0.000000
time 14
0  0.000006 0.000000 0.000000  -1.570800 -1.391899 -1.570792
1  -9.841317 -7.634221 1.937669  -1.544956 -1.855077 -0.198630
2  6.027525 -0.000329 0.000190  -0.131057 -1.481518 -1.860250
3  11.692113 0.000646 -0.000740  -0.990395 0.000005 -0.834991
4  11.480913 0.000643 -0.000353  1.030219 -0.332290 0.412184
5  3.666629 -0.163903 -1.204803  -0.519250 0.086737 -1.532179
6  1.312589 0.000009 0.000007  -0.003664 0.023356 -0.272237
7  0.729354 0.000054 0.000050  -0.003677 0.000626 -0.150723
8  3.942140 0.046332 -0.431544  -0.205965 0.132196 -1.449654
9  1.539111 0.000081 0.000004  -0.000570 0.007396 -0.283198
10  1.196333 0.000145 0.000029  -0.000713 0.000161 -0.519018
11  3.883512 -0.047211 0.431350  -0.042690 0.198097 -1.260493
12  1.719572 -0.000028 0.000017  -0.000644 0.003280 -0.404344
13  1.209180 0.000089 0.000012  -0.000905 0.002861 -0.623853
14  3.859677 -0.138417 1.332380  -0.235831 0.317274 -1.342437
15  1.719448 -0.000018 0.000029  0.001902 0.001157 -0.067177
16  1.099675 0.000047 0.000005  -0.000943 0.002399 -0.620101
17  0.459534 -0.272515 1.494839  -0.993276 -0.518349 -0.465024
18  1.789819 -0.000005 -0.000017  -0.001964 0.000105 0.251441
19  1.207016 -0.000012 -0.000044  -0.002235 -0.004014 0.005434
20  5.740637 0.000389 -0.000699  -0.117781 0.000003 0.000063
21  11.481192 0.000308 -0.000723  -0.091108 -0.064657 0.049718
22  6.027524 -0.000329 0.000201  1.522472 -0.075180 1.853939
23  -0.000000 11.692101 -0.000007  -0.611046 -0.162886 -0.506347
24  0.000003 0.000009 0.000000  -0.121332 -0.000030 1.570739
25  0.000000 -0.000012 -0.000000  0.868960 0.000002 1.570712
26  -6.899342 -10.734701 0.826813  1.473120 1.855075 -0.198639
27  6.027517 -0.000263 -0.000216  1.598180 1.263284 -0.660145
28  11.691992 0.000159 0.000859  0.139888 0.000015 -0.973124
29  11.480665 0.000074 0.000820  -1.295685 0.510228 0.576665
30  3.710773 -0.434234 1.096848  0.985959 -0.066627 -1.663656
31  1.312561 0.000032 -0.000000  0.082208 -0.225915 -0.738634
32  0.729347 0.000065 -0.000028  -0.153604 -0.114132 -0.948932
33  3.820806 -0.154609 0.327899  0.553858 -0.107943 -1.347607
34  1.539094 0.000003 -0.000002  0.053279 -0.065121 -0.990467
35  1.196302 0.000082 -0.000003  -0.018057 -0.011860 -1.378628
36  3.882444 -0.171892 -0.416805  0.531898 -0.203628 -1.075419
37  1.719566 -0.000084 -0.000004  0.009223 -0.076874 -1.263105
38  1.209193 0.000034 0.000012  0.003285 -0.002932 -1.071000
39  3.859585 -0.149082 -1.331322  0.083950 -0.157199 -0.475480
40  1.719412 -0.000097 -0.000037  0.037125 0.029514 -0.700561
41  1.099673 0.000023 0.000006  -0.009064 -0.008454 -0.749562
42  0.230503 -0.805066 -1.086893  1.019226 0.469392 -0.636104
43  1.789779 -0.000008 -0.000042  -0.081444 -0.068283 0.252588
44  1.206995 -0.000006 0.000006  0.073274 0.023224 0.166518
45  5.740573 0.000080 0.000721  0.085318 -0.000014 0.000028
46  11.481077 0.000090 0.000909  0.028962 0.091652 0.087983
47  6.027515 -0.000273 -0.000229  -1.327689 -0.190229 -1.579792
48  -0.000001 11.691974 -0.000008  -0.702968 0.217317 0.578223
49  0.000003 -0.000000 0.000001  2.412441 -0.000036 1.570860
50  -0.000008 -0.000013 0.000004  2.272645 -0.000036 1.570861
51  -2.533608 -8.524556 -5.042711  -0.175353 -2.945147 1.249633
52  0.000000 0.000000 0.000001  0.008153 -0.000259 0.000009
53  -0.000000 0.000000 -0.000001  1.565115 0.043565 -0.106862
54  0.157720 -10.155697 -6.059219  -0.547123 -0.027480 -1.965706
55  0.000000 0.000000 0.000000  0.000000 -0.000001 -0.000002
56  0.000031 0.000029 0.000001  -1.571901 -0.044449 -0.106509
57  12.000549 -19.544212 -17.246658  1.570796 -0.000000 0.000000
58  -15.417984 4.000748 -22.641926  1.570796 -0.000000 0.000000
59  1.941978 9.263218 -8.327020  1.570796 -0.000000 0.000000
60  -0.004311 0.001229 -0.000372  0.006898 -0.005534 -0.284229
61  0.826810 11.791080 -4.879054  1.570796 -0.000000 0.000000
62  0.000000 0.000000 0.000000  -0.078727 -3.136056 0.284226
63  0.000000 0.000000 0.000000  1.570796 -0.000000 0.000000
64  -1.914479 -11.005995 -3.877661  1.569537 0.004199 -0.003227
65  0.138890 1.332072 2.917741  0.000000 0.000000 0.000000
66  0.001799 2.530067 7.394072  -0.065995 -0.000000 -0.000000
67  0.001798 1.942318 1.162124  0.000000 0.000000 0.000000
68  0.000000 2.151127 0.921549  0.000000 0.000000 0.000000
69  0.001798 1.602803 0.295478  -0.876616 0.001216 0.000412
70  0.399188 1.332072 2.917741  0.070303 0.000000 -0.000000
71  -1.907945 -11.520231 -1.926551  1.569537 0.004199 -0.003227
72  -0.045183 -0.374539 0.583136  0.000000 0.000000 0.000000
73  0.077168 -0.711761 0.490938  0.000000 0.000000 0.000000
time 15
0  0.000006 0.000000 0.000000  -1.570800 -1.391899 -1.570792
1  -9.841317 -7.634221 1.937669  -1.544956 -1.855077 -0.198630
2  6.027525 -0.000329 0.000190  -0.106569 -1.481907 -1.885293
3  11.692114 0.000646 -0.000740  -0.990395 0.000005 -0.830552
4  11.479793 0.000432 -0.000675  1.027827 -0.331078 0.413634
5  3.666627 -0.163904 -1.204802  -0.519250 0.086737 -1.532179
6  1.312590 0.000011 0.000007  -0.003664 0.023356 -0.272237
7  0.729354 0.000055 0.000049  -0.003677 0.000626 -0.150723
8  3.942140 0.046330 -0.431542  -0.205965 0.132196 -1.449654
9  1.539111 0.000083 0.000003  -0.000570 0.007396 -0.283198
10  1.196334 0.000145 0.000029  -0.000713 0.000161 -0.519019
11  3.883510 -0.047212 0.431351  -0.042690 0.198097 -1.260493
12  1.719573 -0.000029 0.000016  -0.000644 0.003280 -0.404344
13  1.209179 0.000090 0.000012  -0.000905 0.002861 -0.623853
14  3.859677 -0.138418 1.332379  -0.235831 0.317274 -1.342437
15  1.719449 -0.000020 0.000029  0.001902 0.001157 -0.067177
16  1.099675 0.000049 0.000006  -0.000943 0.002399 -0.620101
17  0.459533 -0.272516 1.494839  -0.993276 -0.518349 -0.465024
18  1.789820 -0.000004 -0.000016  -0.001964 0.000105 0.251441
19  1.207016 -0.000012 -0.000044  -0.002235 -0.004014 0.005434
20  5.740636 0.000388 -0.000700  -0.118120 0.000003 0.000063
21  11.480968 0.000266 -0.000788  -0.091592 -0.064572 0.049961
22  6.027524 -0.000329 0.000201  1.520865 -0.073654 1.853405
23  -0.000001 11.692100 -0.000007  -0.608040 -0.161246 -0.503966
24  0.000003 0.000008 0.000000  -0.121333 -0.000031 1.570739
25  0.000000 -0.000011 0.000000  0.868960 0.000002 1.570712
26  -6.899342 -10.734701 0.826813  1.473120 1.855075 -0.198639
27  6.027517 -0.000263 -0.000216  1.600592 1.265939 -0.658123
28  11.691991 0.000162 0.000859  0.139887 0.000015 -0.968763
29  11.480693 0.000084 0.000818  -1.297268 0.507339 0.577202
30  3.710775 -0.434235 1.096849  0.985959 -0.066627 -1.663656
31  1.312561 0.000032 0.000000  0.082208 -0.225915 -0.738634
32  0.729347 0.000065 -0.000028  -0.153604 -0.114132 -0.948932
33  3.820805 -0.154608 0.327899  0.553858 -0.107943 -1.347607
34  1.539096 0.000005 -0.000001  0.053279 -0.065121 -0.990467
35  1.196302 0.000080 -0.000003  -0.018057 -0.011860 -1.378628
36  3.882446 -0.171892 -0.416805  0.531898 -0.203628 -1.075419
37  1.719566 -0.000082 -0.000005  0.009223 -0.076874 -1.263105
38  1.209194 0.000033 0.000011  0.003284 -0.002932 -1.071000
39  3.859585 -0.149082 -1.331322  0.083950 -0.157199 -0.475480
40  1.719413 -0.000097 -0.000037  0.037125 0.029514 -0.700561
41  1.099673 0.000024 0.000006  -0.009064 -0.008454 -0.749561
42  0.230503 -0.805066 -1.086892  1.019226 0.469392 -0.636104
43  1.789779 -0.000008 -0.000042  -0.081444 -0.068283 0.252588
44  1.206995 -0.000007 0.000005  0.073274 0.023224 0.166518
45  5.740573 0.000080 0.000721  0.084815 -0.000013 0.000028
46  11.481083 0.000091 0.000908  0.028826 0.091033 0.088273
47  6.027515 -0.000273 -0.000229  -1.329392 -0.188044 -1.579749
48  -0.000001 11.691976 -0.000008  -0.700111 0.215500 0.576021
49  0.000003 -0.000000 0.000001  2.412441 -0.000036 1.570860
50  -0.000008 -0.000014 0.000005  2.272645 -0.000036 1.570861
51  -2.536737 -8.547366 -5.024200  -0.177835 -2.947840 1.250610
52  -0.000000 0.000000 0.000001  0.008153 -0.000259 0.000009
53  -0.000000 -0.000000 0.000000  1.565115 0.043565 -0.106862
54  0.153907 -10.173779 -6.050053  -0.549751 -0.024974 -1.965141
55  -0.000001 -0.000000 -0.000000  0.000000 -0.000001 -0.000002
56  0.000029 0.000029 0.000001  -1.571901 -0.044449 -0.106509
57  12.000549 -19.544212 -17.246658  1.570796 -0.000000 0.000000
58  -15.417984 4.000748 -22.641926  1.570796 -0.000000 0.000000
59  1.941978 9.263218 -8.327020  1.570796 -0.000000 0.000000
60  -0.004311 0.001229 -0.000372  0.006898 -0.005534 -0.284229
61  0.826810 11.791080 -4.879054  1.570796 -0.000000 0.000000
62  0.000000 0.000000 0.000000  -0.078727 -3.136056 0.284226
63  0.000000 0.000000 0.000000  1.570796 -0.000000 0.000000
64  -1.914681 -11.032354 -3.868310  1.572857 0.005670 -0.002715
65  0.138890 1.332072 2.917741  -0.000000 -0.000000 -0.000000
66  0.001799 2.530067 7.394069  -0.065995 -0.000000 -0.000000
67  0.001798 1.942318 1.162123  -0.000000 -0.000000 -0.000000
68  0.000001 2.151127 0.921548  -0.000000 -0.000000 -0.000000
69  0.001798 1.602803 0.295478  -0.876616 0.001216 0.000412
70  0.399188 1.332072 2.917740  0.070303 0.000000 -0.000000
71  -1.905040 -11.553069 -1.918932  1.572857 0.005670 -0.002715
72  -0.045183 -0.374539 0.583136  -0.000000 -0.000000 -0.000000
73  0.077168 -0.711762 0.490936  -0.000000 -0.000000 -0.000000
time 16
0  0.000006 0.000000 0.000000  -1.570800 -1.391899 -1.570792
1  -9.841317 -7.634221 1.937669  -1.544956 -1.855077 -0.198630
2  6.027525 -0.000329 0.000190  -0.078277 -1.482337 -1.914407
3  11.692115 0.000644 -0.000738  -0.990394 0.000005 -0.824472
4  11.479961 0.000468 -0.000625  1.031104 -0.329296 0.411784
5  3.666627 -0.163904 -1.204802  -0.519250 0.086737 -1.532179
6  1.312589 0.000011 0.000009  -0.003664 0.023357 -0.272237
7  0.729354 0.000054 0.000048  -0.003677 0.000626 -0.150723
8  3.942141 0.046331 -0.431543  -0.205965 0.132197 -1.449654
9  1.539111 0.000081 0.000003  -0.000570 0.007396 -0.283198
10  1.196333 0.000145 0.000029  -0.000713 0.000161 -0.519019
11  3.883511 -0.047211 0.431351  -0.042690 0.198097 -1.260493
12  1.719573 -0.000027 0.000017  -0.000644 0.003280 -0.404344
13  1.209178 0.000091 0.000012  -0.000905 0.002861 -0.623853
14  3.859677 -0.138418 1.332379  -0.235831 0.317274 -1.342437
15  1.719448 -0.000018 0.000029  0.001902 0.001157 -0.067177
16  1.099675 0.000047 0.000006  -0.000943 0.002399 -0.620101
17  0.459534 -0.272516 1.494839  -0.993276 -0.518349 -0.465024
18  1.789821 -0.000004 -0.000016  -0.001964 0.000105 0.251441
19  1.207016 -0.000012 -0.000044  -0.002235 -0.004014 0.005434
20  5.740636 0.000390 -0.000699  -0.117273 0.000003 0.000063
21  11.481001 0.000274 -0.000778  -0.091102 -0.064035 0.049823
22  6.027524 -0.000329 0.000201  1.519056 -0.071863 1.852604
23  0.000002 11.692099 -0.000007  -0.603918 -0.159010 -0.500699
24  0.000004 0.000009 0.000000  -0.121333 -0.000031 1.570739
25  0.000001 -0.000012 -0.000000  0.868960 0.000002 1.570712
26  -6.899342 -10.734701 0.826813  1.473120 1.855075 -0.198639
27  6.027517 -0.000263 -0.000216  1.601553 1.268768 -0.657275
28  11.691990 0.000160 0.000859  0.139887 0.000015 -0.962735
29  11.480726 0.000099 0.000815  -1.296093 0.506063 0.573462
30  3.710774 -0.434235 1.096849  0.985959 -0.066627 -1.663656
31  1.312560 0.000031 -0.000000  0.082208 -0.225915 -0.738634
32  0.729347 0.000066 -0.000028  -0.153604 -0.114132 -0.948932
33  3.820806 -0.154609 0.327900  0.553858 -0.107943 -1.347607
34  1.539094 0.000003 -0.000000  0.053279 -0.065121 -0.990467
35  1.196302 0.000081 -0.000003  -0.018057 -0.011860 -1.378628
36  3.882446 -0.171892 -0.416803  0.531898 -0.203628 -1.075419
37  1.719566 -0.000083 -0.000005  0.009223 -0.076874 -1.263105
38  1.209193 0.000033 0.000012  0.003285 -0.002932 -1.071000
39  3.859585 -0.149082 -1.331322  0.083950 -0.157199 -0.475480
40  1.719412 -0.000097 -0.000037  0.037125 0.029514 -0.700561
41  1.099673 0.000024 0.000005  -0.009064 -0.008454 -0.749562
42  0.230503 -0.805067 -1.086893  1.019226 0.469392 -0.636104
43  1.789780 -0.000007 -0.000042  -0.081444 -0.068283 0.252588
44  1.206995 -0.000007 0.000005  0.073274 0.023224 0.166518
45  5.740572 0.000080 0.000720  0.084669 -0.000014 0.000028
46  11.481089 0.000094 0.000908  0.029253 0.090788 0.087520
47  6.027515 -0.000273 -0.000229  -1.331509 -0.186105 -1.579424
48  -0.000001 11.691974 -0.000008  -0.696156 0.212999 0.572971
49  0.000004 -0.000001 0.000000  2.412441 -0.000036 1.570860
50  -0.000008 -0.000013 0.000004  2.272645 -0.000036 1.570861
51  -2.538234 -8.580135 -5.021643  -0.176241 -2.947794 1.251411
52  0.000000 0.000000 -0.000000  0.008153 -0.000259 0.000009
53  -0.000000 -0.000000 0.000001  1.565115 0.043565 -0.106862
54  0.155716 -10.204109 -6.042669  -0.548188 -0.024904 -1.964072
55  0.000000 -0.000000 -0.000000  0.000000 -0.000001 -0.000002
56  0.000031 0.000029 0.000001  -1.571901 -0.044449 -0.106509
57  12.000549 -19.544212 -17.246658  1.570796 -0.000000 0.000000
58  -15.417984 4.000748 -22.641926  1.570796 -0.000000 0.000000
59  1.941978 9.263218 -8.327020  1.570796 -0.000000 0.000000
60  -0.004311 0.001229 -0.000372  0.006898 -0.005534 -0.284229
61  0.826810 11.791080 -4.879054  1.570796 -0.000000 0.000000
62  0.000000 0.000000 0.000000  -0.078727 -3.136056 0.284226
63  0.000000 0.000000 0.000000  1.570796 -0.000000 0.000000
64  -1.915125 -11.063814 -3.863509  1.572325 0.004199 -0.001609
65  0.138890 1.332072 2.917742  0.000000 -0.000000 -0.000000
66  0.001799 2.530067 7.394066  -0.065995 -0.000000 -0.000000
67  0.001798 1.942318 1.162124  0.000000 -0.000000 -0.000000
68  0.000001 2.151127 0.921548  0.000000 -0.000000 -0.000000
69  0.001798 1.602803 0.295477  -0.876616 0.001216 0.000412
70  0.399188 1.332072 2.917739  0.070303 0.000000 -0.000000
71  -1.907773 -11.583475 -1.913840  1.572325 0.004199 -0.001609
72  -0.045183 -0.374539 0.583138  0.000000 -0.000000 -0.000000
73  0.077168 -0.711761 0.490938  0.000000 -0.000000 -0.000000
time 17
0  0.000006 0.000000 0.000000  -1.570800 -1.391899 -1.570792
1  -9.841317 -7.634221 1.937669  -1.544956 -1.855077 -0.198630
2  6.027525 -0.000329 0.000190  -0.055811 -1.482683 -1.937725
3  11.692114 0.000646 -0.000740  -0.990394 0.000005 -0.819401
4  11.480105 0.000496 -0.000579  1.035568 -0.327831 0.410339
5  3.666626 -0.163905 -1.204802  -0.519250 0.086737 -1.532179
6  1.312589 0.000013 0.000008  -0.003664 0.023356 -0.272237
7  0.729355 0.000054 0.000049  -0.003677 0.000626 -0.150723
8  3.942139 0.046330 -0.431543  -0.205965 0.132197 -1.449654
9  1.539111 0.000083 0.000003  -0.000570 0.007396 -0.283198
10  1.196333 0.000146 0.000028  -0.000713 0.000161 -0.519018
11  3.883510 -0.047213 0.431351  -0.042690 0.198097 -1.260493
12  1.719573 -0.000030 0.000017  -0.000644 0.003280 -0.404344
13  1.209178 0.000089 0.000012  -0.000905 0.002861 -0.623853
14  3.859676 -0.138419 1.332380  -0.235831 0.317274 -1.342437
15  1.719448 -0.000018 0.000028  0.001902 0.001157 -0.067177
16  1.099675 0.000049 0.000005  -0.000943 0.002399 -0.620101
17  0.459533 -0.272516 1.494839  -0.993276 -0.518349 -0.465024
18  1.789820 -0.000003 -0.000016  -0.001964 0.000105 0.251441
19  1.207015 -0.000012 -0.000045  -0.002235 -0.004014 0.005434
20  5.740636 0.000387 -0.000700  -0.116207 0.000003 0.000063
21  11.481030 0.000278 -0.000768  -0.090359 -0.063532 0.049796
22  6.027524 -0.000329 0.000201  1.517666 -0.070407 1.851763
23  0.000001 11.692100 -0.000007  -0.600476 -0.157156 -0.497967
24  0.000004 0.000010 0.000001  -0.121332 -0.000030 1.570739
25  0.000001 -0.000012 -0.000000  0.868960 0.000002 1.570712
26  -6.899342 -10.734701 0.826813  1.473120 1.855075 -0.198639
27  6.027517 -0.000263 -0.000216  1.601817 1.271053 -0.657007
28  11.691991 0.000162 0.000859  0.139886 0.000014 -0.957556
29  11.480755 0.000111 0.000814  -1.293454 0.505273 0.570126
30  3.710774 -0.434234 1.096848  0.985959 -0.066627 -1.663656
31  1.312561 0.000031 0.000001  0.082208 -0.225915 -0.738634
32  0.729347 0.000065 -0.000028  -0.153604 -0.114132 -0.948932
33  3.820805 -0.154608 0.327899  0.553858 -0.107943 -1.347608
34  1.539095 0.000003 -0.000002  0.053279 -0.065121 -0.990467
35  1.196302 0.000081 -0.000003  -0.018057 -0.011860 -1.378628
36  3.882445 -0.171892 -0.416805  0.531898 -0.203628 -1.075419
37  1.719564 -0.000084 -0.000005  0.009223 -0.076874 -1.263105
38  1.209193 0.000034 0.000012  0.003284 -0.002932 -1.071000
39  3.859584 -0.149081 -1.331323  0.083950 -0.157199 -0.475480
40  1.719411 -0.000097 -0.000037  0.037125 0.029514 -0.700561
41  1.099672 0.000023 0.000006  -0.009064 -0.008454 -0.749562
42  0.230502 -0.805066 -1.086893  1.019226 0.469393 -0.636104
43  1.789780 -0.000008 -0.000042  -0.081444 -0.068283 0.252588
44  1.206995 -0.000007 0.000005  0.073274 0.023224 0.166518
45  5.740573 0.000078 0.000721  0.084838 -0.000014 0.000028
46  11.481095 0.000096 0.000908  0.029907 0.090710 0.086749
47  6.027515 -0.000273 -0.000229  -1.333314 -0.184663 -1.579076
48  -0.000001 11.691975 -0.000008  -0.692754 0.210859 0.570343
49  0.000002 0.000000 0.000000  2.412441 -0.000036 1.570860
50  -0.000007 -0.000014 0.000004  2.272645 -0.000036 1.570861
51  -2.538264 -8.608339 -5.024045  -0.173282 -2.947705 1.251950
52  -0.000000 -0.000000 0.000001  0.008153 -0.000259 0.000009
53  -0.000000 0.000000 -0.000000  1.565115 0.043565 -0.106862
54  0.160259 -10.230339 -6.036098  -0.545285 -0.024779 -1.963036
55  0.000000 0.000000 -0.000001  0.000000 -0.000001 -0.000002
56  0.000031 0.000029 0.000000  -1.571902 -0.044449 -0.106509
57  12.000549 -19.544212 -17.246658  1.570796 -0.000000 0.000000
58  -15.417984 4.000748 -22.641926  1.570796 -0.000000 0.000000
59  1.941978 9.263218 -8.327020  1.570796 -0.000000 0.000000
60  -0.004311 0.001229 -0.000372  0.006898 -0.005534 -0.284229
61  0.826810 11.791080 -4.879054  1.570796 -0.000000 0.000000
62  0.000000 0.000000 0.000000  -0.078727 -3.136056 0.284226
63  0.000000 0.000000 0.000000  1.570796 -0.000000 0.000000
64  -1.915569 -11.090173 -3.861740  1.571332 0.001469 -0.000503
65  0.138890 1.332073 2.917740  -0.000000 0.000000 0.000000
66  0.001799 2.530067 7.394067  -0.065995 -0.000000 -0.000000
67  0.001798 1.942318 1.162124  -0.000000 0.000000 0.000000
68  0.000000 2.151127 0.921548  -0.000000 0.000000 0.000000
69  0.001798 1.602803 0.295477  -0.876616 0.001216 0.000412
70  0.399188 1.332072 2.917739  0.070303 0.000000 -0.000000
71  -1.912963 -11.607887 -1.911541  1.571332 0.001469 -0.000503
72  -0.045183 -0.374539 0.583137  -0.000000 0.000000 0.000000
73  0.077168 -0.711761 0.490938  -0.000000 0.000000 0.000000
time 18
0  0.000006 0.000000 0.000000  -1.570800 -1.391899 -1.570792
1  -9.841317 -7.634221 1.937669  -1.544956 -1.855077 -0.198630
2  6.027525 -0.000329 0.000190  -0.046636 -1.482824 -1.947293
3  11.692115 0.000646 -0.000738  -0.990394 0.000005 -0.817278
4  11.480170 0.000508 -0.000561  1.037812 -0.327222 0.409754
5  3.666628 -0.163903 -1.204803  -0.519250 0.086737 -1.532179
6  1.312590 0.000011 0.000008  -0.003664 0.023357 -0.272237
7  0.729355 0.000053 0.000049  -0.003677 0.000626 -0.150723
8  3.942140 0.046331 -0.431543  -0.205965 0.132196 -1.449654
9  1.539111 0.000082 0.000003  -0.000570 0.007396 -0.283198
10  1.196333 0.000146 0.000028  -0.000713 0.000161 -0.519018
11  3.883510 -0.047211 0.431351  -0.042690 0.198097 -1.260493
12  1.719573 -0.000027 0.000017  -0.000644 0.003280 -0.404344
13  1.209178 0.000091 0.000013  -0.000905 0.002861 -0.623854
14  3.859677 -0.138418 1.332380  -0.235831 0.317274 -1.342437
15  1.719448 -0.000017 0.000028  0.001902 0.001157 -0.067177
16  1.099675 0.000049 0.000005  -0.000943 0.002399 -0.620101
17  0.459533 -0.272515 1.494839  -0.993276 -0.518349 -0.465024
18  1.789820 -0.000005 -0.000015  -0.001964 0.000105 0.251441
19  1.207016 -0.000012 -0.000044  -0.002235 -0.004014 0.005434
20  5.740636 0.000389 -0.000700  -0.115682 0.000003 0.000063
21  11.481044 0.000281 -0.000766  -0.089975 -0.063309 0.049805
22  6.027524 -0.000329 0.000201  1.517109 -0.069806 1.851374
23  0.000001 11.692100 -0.000007  -0.599033 -0.156382 -0.496821
24  0.000003 0.000010 -0.000000  -0.121332 -0.000030 1.570739
25  0.000001 -0.000011 0.000000  0.868960 0.000002 1.570712
26  -6.899342 -10.734701 0.826813  1.473120 1.855075 -0.198639
27  6.027517 -0.000263 -0.000216  1.601807 1.271994 -0.656994
28  11.691991 0.000161 0.000858  0.139886 0.000014 -0.955354
29  11.480767 0.000116 0.000813  -1.291989 0.505002 0.568681
30  3.710774 -0.434234 1.096848  0.985959 -0.066627 -1.663656
31  1.312561 0.000032 -0.000000  0.082208 -0.225915 -0.738634
32  0.729347 0.000066 -0.000028  -0.153604 -0.114132 -0.948932
33  3.820805 -0.154608 0.327899  0.553858 -0.107943 -1.347607
34  1.539095 0.000004 -0.000002  0.053279 -0.065121 -0.990467
35  1.196302 0.000081 -0.000003  -0.018057 -0.011860 -1.378628
36  3.882445 -0.171892 -0.416804  0.531898 -0.203628 -1.075419
37  1.719565 -0.000083 -0.000005  0.009223 -0.076874 -1.263105
38  1.209193 0.000034 0.000012  0.003285 -0.002932 -1.071000
39  3.859585 -0.149082 -1.331322  0.083950 -0.157199 -0.475480
40  1.719412 -0.000097 -0.000037  0.037125 0.029514 -0.700561
41  1.099672 0.000022 0.000007  -0.009064 -0.008454 -0.749561
42  0.230504 -0.805067 -1.086893  1.019226 0.469392 -0.636104
43  1.789780 -0.000009 -0.000042  -0.081444 -0.068283 0.252588
44  1.206995 -0.000007 0.000005  0.073274 0.023224 0.166518
45  5.740573 0.000078 0.000721  0.084972 -0.000014 0.000028
46  11.481097 0.000097 0.000907  0.030246 0.090704 0.086394
47  6.027515 -0.000273 -0.000229  -1.334078 -0.184096 -1.578913
48  -0.000001 11.691974 -0.000008  -0.691306 0.209952 0.569223
49  0.000002 -0.000000 0.000001  2.412441 -0.000036 1.570860
50  -0.000007 -0.000014 0.000004  2.272645 -0.000036 1.570861
51  -2.538006 -8.620331 -5.026038  -0.171689 -2.947656 1.252147
52  -0.000000 -0.000000 0.000000  0.008153 -0.000259 0.000009
53  0.000000 0.000000 -0.000000  1.565115 0.043565 -0.106862
54  0.162817 -10.241511 -6.033255  -0.543722 -0.024713 -1.962570
55  0.000000 0.000000 0.000000  0.000000 -0.000001 -0.000002
56  0.000031 0.000029 0.000001  -1.571901 -0.044449 -0.106509
57  12.000549 -19.544212 -17.246658  1.570796 -0.000000 0.000000
58  -15.417984 4.000748 -22.641926  1.570796 -0.000000 0.000000
59  1.941978 9.263218 -8.327020  1.570796 -0.000000 0.000000
60  -0.004311 0.001229 -0.000372  0.006898 -0.005534 -0.284229
61  0.826810 11.791080 -4.879054  1.570796 -0.000000 0.000000
62  0.000000 0.000000 0.000000  -0.078727 -3.136056 0.284226
63  0.000000 0.000000 0.000000  1.570796 -0.000000 0.000000
64  -1.915771 -11.101227 -3.861487  1.570796 -0.000000 0.000000
65  0.138890 1.332072 2.917741  0.000000 -0.000000 0.000000
66  0.001799 2.530067 7.394068  -0.065995 -0.000000 -0.000000
67  0.001798 1.942318 1.162124  0.000000 -0.000000 0.000000
68  0.000000 2.151127 0.921549  0.000000 -0.000000 0.000000
69  0.001798 1.602803 0.295478  -0.876616 0.001216 0.000412
70  0.399188 1.332072 2.917740  0.070303 0.000000 -0.000000
71  -1.915770 -11.617895 -1.911009  1.570796 -0.000000 0.000000
72  -0.045183 -0.374539 0.583137  0.000000 0.000000 0.000000
73  0.077168 -0.711761 0.490937  0.000000 0.000000 0.000000
end
