version 1
nodes
0 "ValveBiped.Bip01_Spine4" -1
1 "ValveBiped.Bip01_L_Clavicle" 0
2 "ValveBiped.Bip01_L_UpperArm" 1
3 "ValveBiped.Bip01_L_Forearm" 2
4 "ValveBiped.Bip01_L_Hand" 3
5 "ValveBiped.Bip01_L_Finger4" 4
6 "ValveBiped.Bip01_L_Finger41" 5
7 "ValveBiped.Bip01_L_Finger42" 6
8 "ValveBiped.Bip01_L_Finger3" 4
9 "ValveBiped.Bip01_L_Finger31" 8
10 "ValveBiped.Bip01_L_Finger32" 9
11 "ValveBiped.Bip01_L_Finger2" 4
12 "ValveBiped.Bip01_L_Finger21" 11
13 "ValveBiped.Bip01_L_Finger22" 12
14 "ValveBiped.Bip01_L_Finger1" 4
15 "ValveBiped.Bip01_L_Finger11" 14
16 "ValveBiped.Bip01_L_Finger12" 15
17 "ValveBiped.Bip01_L_Finger0" 4
18 "ValveBiped.Bip01_L_Finger01" 17
19 "ValveBiped.Bip01_L_Finger02" 18
20 "ValveBiped.Bip01_L_Ulna" 3
21 "ValveBiped.Bip01_L_Wrist" 3
22 "rig_l_upperarm" 1
23 "rig_l_forearm" 22
24 "rig_d_l_forearm" 23
25 "rig_d_l_upperarm" 22
26 "ValveBiped.Bip01_R_Clavicle" 0
27 "ValveBiped.Bip01_R_UpperArm" 26
28 "ValveBiped.Bip01_R_Forearm" 27
29 "ValveBiped.Bip01_R_Hand" 28
30 "ValveBiped.Bip01_R_Finger4" 29
31 "ValveBiped.Bip01_R_Finger41" 30
32 "ValveBiped.Bip01_R_Finger42" 31
33 "ValveBiped.Bip01_R_Finger3" 29
34 "ValveBiped.Bip01_R_Finger31" 33
35 "ValveBiped.Bip01_R_Finger32" 34
36 "ValveBiped.Bip01_R_Finger2" 29
37 "ValveBiped.Bip01_R_Finger21" 36
38 "ValveBiped.Bip01_R_Finger22" 37
39 "ValveBiped.Bip01_R_Finger1" 29
40 "ValveBiped.Bip01_R_Finger11" 39
41 "ValveBiped.Bip01_R_Finger12" 40
42 "ValveBiped.Bip01_R_Finger0" 29
43 "ValveBiped.Bip01_R_Finger01" 42
44 "ValveBiped.Bip01_R_Finger02" 43
45 "ValveBiped.Bip01_R_Ulna" 28
46 "ValveBiped.Bip01_R_Wrist" 28
47 "rig_r_upperarm" 26
48 "rig_r_forearm" 47
49 "rig_d_r_forearm" 48
50 "rig_d_r_upperarm" 47
51 "rig_r_hand" -1
52 "rig_d_r_hand" 51
53 "rig_d_r_wrist" 52
54 "rig_l_hand" -1
55 "rig_d_l_hand" 54
56 "rig_d_l_wrist" 54
57 "rig_l_pole" -1
58 "rig_r_pole" -1
59 "rig_l_clavicle" -1
60 "rig_d_l_clavicle" 59
61 "rig_r_clavicle" -1
62 "rig_d_r_clavicle" 61
63 "Camera" -1
64 "body" -1
65 "trigger" 64
66 "bolt" 64
67 "chandle" 66
68 "barrel" 64
69 "magrel" 64
70 "sight" 64
71 "mag" -1
72 "bullet1" 71
73 "bullet2" 71
74 "bullet3" 71
end
skeleton
time 0
0  0.000006 0.000000 0.000000  -1.570800 -1.391899 -1.570792
1  -4.005264 0.938027 -0.674797  -1.544956 -1.855077 -0.198630
2  6.027522 -0.000325 0.000193  -1.030169 -1.091680 -1.077804
3  11.692109 0.000643 -0.000740  -1.320253 -0.000010 -1.277057
4  11.480688 0.000683 -0.000288  1.269491 -0.530176 0.129081
5  3.859510 -0.142879 -1.192049  -0.544261 -0.274779 -1.892626
6  1.312590 0.000012 0.000010  -0.133832 -0.011337 -0.204249
7  0.729354 0.000054 0.000050  -0.007414 -0.009429 -0.053696
8  3.942143 0.046273 -0.431512  -0.461849 0.154432 -1.296153
9  1.539110 0.000084 0.000007  -0.018634 -0.057102 -0.858939
10  1.196335 0.000144 0.000027  0.004741 0.005181 -0.739358
11  3.883504 -0.047269 0.431382  -0.216104 0.464441 -0.630861
12  1.719573 -0.000026 0.000017  0.035473 -0.116310 -1.317302
13  1.209179 0.000092 0.000013  -0.006344 -0.003685 -0.640195
14  4.085221 -0.082716 1.151040  0.064322 0.614532 -0.019322
15  1.719449 -0.000011 0.000022  -0.000909 -0.026418 -0.653433
16  1.099675 0.000049 0.000003  -0.073262 0.039405 -1.406663
17  0.971589 -1.283499 0.847610  -0.978328 -0.625347 -0.310208
18  1.789820 -0.000004 -0.000018  0.000998 -0.014468 0.721478
19  1.207015 -0.000012 -0.000043  0.001593 -0.000026 -0.111145
20  5.740638 0.000409 -0.000703  -0.085643 0.000003 0.000071
21  11.481146 0.000349 -0.000716  -0.046340 -0.088651 -0.001630
22  6.027524 -0.000330 0.000203  1.736780 -0.451643 1.697237
23  0.000003 11.692100 -0.000007  -0.895365 -0.357920 -0.720455
24  0.000002 0.000008 -0.000002  -0.451164 -0.000031 1.570739
25  -0.000000 -0.000011 -0.000001  0.868957 0.000002 1.570712
26  -3.402250 -2.584838 0.376265  1.473120 1.855075 -0.198639
27  6.027503 -0.000262 -0.000231  1.400642 0.503009 -0.304018
28  11.691990 0.000243 0.000856  0.970529 0.000085 -2.014875
29  11.480486 0.000509 0.000719  -1.659918 0.702222 0.161205
30  3.452863 -0.227594 1.051755  0.573015 -0.197780 -1.782130
31  1.312558 0.000022 0.000000  -0.067589 0.119040 -0.595239
32  0.729344 0.000064 -0.000027  -0.026993 -0.004558 -0.649387
33  3.942045 0.050110 0.430998  0.415260 -0.131585 -1.634045
34  1.539093 0.000008 -0.000002  -0.018706 -0.004890 -0.807183
35  1.196298 0.000075 -0.000005  -0.001372 -0.001809 -0.760336
36  3.883412 -0.050497 -0.431086  0.216949 -0.236898 -1.278357
37  1.719562 -0.000073 -0.000003  -0.029172 0.038034 -1.380057
38  1.209199 0.000035 0.000010  -0.003296 -0.002915 -0.381177
39  3.806437 -0.112148 -1.295330  -0.052588 -0.224268 0.122910
40  1.719414 -0.000102 -0.000035  -0.100952 0.146915 -1.608852
41  1.099674 0.000022 0.000008  -0.023407 0.002296 -0.615556
42  0.444469 -0.201854 -1.632533  1.077226 0.106495 -0.817774
43  1.789779 -0.000008 -0.000041  0.023056 0.021409 -0.019466
44  1.206996 -0.000002 0.000003  0.206835 0.095578 1.319988
45  5.740573 0.000057 0.000724  0.003569 -0.000014 0.000021
46  11.481043 0.000139 0.000893  -0.028293 0.117031 0.027239
47  6.027515 -0.000273 -0.000237  -0.707551 -0.735313 -1.354005
48  -0.000001 11.691973 -0.000006  -1.334234 0.782229 0.964649
49  0.000003 -0.000002 -0.000001  -3.040130 -0.000041 1.570856
50  -0.000007 -0.000015 0.000005  2.272644 -0.000030 1.570865
51  -4.932778 -8.903408 -7.489826  3.035270 -0.166343 -1.367546
52  -0.000001 0.000000 -0.000001  0.008153 -0.000259 0.000009
53  0.000000 0.000000 -0.000000  1.565115 0.043565 -0.106862
54  -0.848853 -17.870241 -5.654398  -0.916752 -0.098141 -1.946192
55  -0.000000 -0.000001 0.000000  0.000000 -0.000000 -0.000002
56  0.000030 0.000029 0.000001  -1.571902 -0.044449 -0.106509
57  8.838223 -16.138317 -16.427357  1.570796 -0.000000 0.000000
58  -21.089123 6.899941 -12.297750  1.570796 -0.000000 0.000000
59  -0.670483 -0.210714 -4.109488  1.570796 -0.000000 0.000000
60  -0.004311 0.001230 -0.000371  0.006898 -0.005534 -0.284229
61  0.376268 3.148996 -2.887995  1.570796 -0.000000 0.000000
62  0.000000 0.000000 0.000000  -0.078727 -3.136056 0.284226
63  -2.775555 -3.930868 0.043953  1.570796 -0.000000 0.000000
64  -2.808394 -6.592330 -4.111191  1.570796 -0.000000 0.000000
65  0.032837 -0.689314 7.041600  0.349066 -0.000000 -0.000000
66  0.022198 0.853170 1.207919  -0.000000 0.000000 -0.000000
67  -0.812851 0.400427 5.891668  0.000000 -0.000000 0.000000
68  0.032839 0.575037 28.881241  0.000000 -0.000000 0.000000
69  0.032836 -1.914698 -1.997006  0.000000 -0.000000 0.000000
70  -0.431854 2.407262 7.229147  0.000000 -0.000000 0.000000
71  -2.776510 -7.341029 -4.756900  1.570796 -0.000000 0.000000
72  0.148731 0.738712 -1.299453  0.000000 -0.000000 0.000000
73  -0.135884 0.464546 -1.299453  0.000000 -0.000000 0.000000
74  0.138631 0.303275 -1.299453  0.000000 -0.000000 0.000000
time 1
0  0.000006 0.000000 0.000000  -1.570800 -1.391899 -1.570792
1  -4.005264 0.938027 -0.674797  -1.544956 -1.855077 -0.198630
2  6.027521 -0.000325 0.000193  -1.048864 -1.071027 -1.053153
3  11.692108 0.000644 -0.000739  -1.320257 -0.000014 -1.353055
4  11.480149 0.000608 -0.000576  1.269850 -0.571696 0.130233
5  3.859510 -0.142878 -1.192048  -0.544261 -0.274779 -1.892626
6  1.312590 0.000011 0.000008  -0.133832 -0.011337 -0.204249
7  0.729354 0.000053 0.000047  -0.007414 -0.009429 -0.053696
8  3.942145 0.046273 -0.431511  -0.461849 0.154431 -1.296153
9  1.539111 0.000085 0.000003  -0.018634 -0.057102 -0.858939
10  1.196333 0.000145 0.000030  0.004741 0.005181 -0.739358
11  3.883507 -0.047269 0.431382  -0.216104 0.464441 -0.630861
12  1.719573 -0.000026 0.000015  0.035473 -0.116310 -1.317302
13  1.209181 0.000091 0.000012  -0.006344 -0.003685 -0.640195
14  4.085225 -0.082715 1.151041  0.064322 0.614532 -0.019322
15  1.719448 -0.000010 0.000022  -0.000909 -0.026418 -0.653433
16  1.099675 0.000050 0.000009  -0.073262 0.039405 -1.406663
17  0.971586 -1.283500 0.847609  -0.978328 -0.625347 -0.310208
18  1.789819 -0.000004 -0.000018  0.000998 -0.014468 0.721478
19  1.207016 -0.000012 -0.000044  0.001594 -0.000026 -0.111145
20  5.740636 0.000410 -0.000702  -0.092420 0.000003 0.000071
21  11.481037 0.000333 -0.000773  -0.045134 -0.096869 -0.002530
22  6.027524 -0.000330 0.000203  1.754411 -0.467583 1.697567
23  0.000002 11.692100 -0.000007  -0.941610 -0.396906 -0.752484
24  0.000003 0.000007 -0.000001  -0.451164 -0.000031 1.570739
25  -0.000001 -0.000011 -0.000000  0.868957 0.000002 1.570712
26  -3.402250 -2.584838 0.376265  1.473120 1.855075 -0.198639
27  6.027503 -0.000262 -0.000232  1.395807 0.474373 -0.303361
28  11.691990 0.000244 0.000855  0.970528 0.000089 -2.070171
29  11.479927 0.000291 0.001035  -1.681105 0.726635 0.154766
30  3.452863 -0.227594 1.051756  0.573015 -0.197780 -1.782130
31  1.312558 0.000024 0.000000  -0.067589 0.119040 -0.595239
32  0.729346 0.000063 -0.000027  -0.026993 -0.004558 -0.649387
33  3.942045 0.050110 0.430999  0.415260 -0.131585 -1.634045
34  1.539093 0.000009 -0.000001  -0.018706 -0.004890 -0.807183
35  1.196301 0.000074 -0.000005  -0.001372 -0.001809 -0.760336
36  3.883411 -0.050497 -0.431086  0.216949 -0.236898 -1.278357
37  1.719562 -0.000072 -0.000003  -0.029172 0.038034 -1.380057
38  1.209198 0.000034 0.000010  -0.003296 -0.002915 -0.381177
39  3.806436 -0.112148 -1.295330  -0.052588 -0.224268 0.122910
40  1.719413 -0.000102 -0.000034  -0.100952 0.146915 -1.608852
41  1.099674 0.000021 0.000008  -0.023407 0.002296 -0.615556
42  0.444468 -0.201855 -1.632532  1.077226 0.106495 -0.817774
43  1.789779 -0.000008 -0.000043  0.023056 0.021409 -0.019466
44  1.206995 -0.000004 0.000003  0.206835 0.095578 1.319988
45  5.740571 0.000054 0.000722  0.002272 -0.000014 0.000021
46  11.480929 0.000092 0.000955  -0.032172 0.121618 0.027598
47  6.027515 -0.000273 -0.000237  -0.676446 -0.753052 -1.372150
48  -0.000001 11.691975 -0.000006  -1.368471 0.817069 0.975797
49  0.000004 -0.000000 -0.000002  -3.040130 -0.000041 1.570856
50  -0.000007 -0.000015 0.000004  2.272644 -0.000030 1.570865
51  -4.933227 -8.352819 -7.437211  3.028688 -0.179529 -1.367514
52  -0.000000 0.000000 -0.000000  0.008153 -0.000259 0.000009
53  0.000000 -0.000000 0.000000  1.565115 0.043565 -0.106862
54  -0.852183 -17.297245 -5.489462  -0.914950 -0.112725 -1.947483
55  0.000001 -0.000001 0.000000  0.000000 -0.000000 -0.000002
56  0.000030 0.000028 0.000000  -1.571902 -0.044449 -0.106509
57  8.838223 -16.138317 -16.427357  1.570796 -0.000000 0.000000
58  -21.089123 6.899941 -12.297750  1.570796 -0.000000 0.000000
59  -0.670483 -0.210714 -4.109488  1.570796 -0.000000 0.000000
60  -0.004311 0.001230 -0.000371  0.006898 -0.005534 -0.284229
61  0.376268 3.148996 -2.887995  1.570796 -0.000000 0.000000
62  0.000000 0.000000 0.000000  -0.078727 -3.136056 0.284226
63  -2.775555 -3.930868 0.043953  1.570796 -0.000000 0.000000
64  -2.793883 -5.996327 -4.099635  1.556571 0.003681 -0.001127
65  0.032837 -0.689315 7.041600  0.349066 -0.000000 0.000000
66  0.022198 0.853170 -2.573057  0.000000 0.000000 -0.000000
67  -0.812851 0.400428 5.891667  0.000000 0.000000 0.000000
68  0.032839 0.575036 28.881241  0.000000 0.000000 0.000000
69  0.032836 -1.914698 -1.997007  0.000000 0.000000 0.000000
70  -0.431854 2.407262 7.229148  0.000000 0.000000 0.000000
71  -2.765191 -6.754169 -4.734741  1.556571 0.003681 -0.001127
72  0.148731 0.738713 -1.299453  0.000000 0.000000 0.000000
73  -0.135884 0.464547 -1.299453  0.000000 0.000000 0.000000
74  0.138630 0.303275 -1.299453  0.000000 0.000000 0.000000
time 2
0  0.000006 0.000000 0.000000  -1.570800 -1.391899 -1.570792
1  -4.005264 0.938027 -0.674797  -1.544956 -1.855077 -0.198630
2  6.027521 -0.000325 0.000193  -1.045201 -1.070937 -1.053960
3  11.692108 0.000645 -0.000741  -1.320256 -0.000014 -1.348845
4  11.480181 0.000611 -0.000564  1.265323 -0.570936 0.132337
5  3.859508 -0.142879 -1.192049  -0.544261 -0.274779 -1.892626
6  1.312589 0.000013 0.000010  -0.133832 -0.011337 -0.204249
7  0.729356 0.000053 0.000049  -0.007414 -0.009429 -0.053696
8  3.942142 0.046273 -0.431512  -0.461849 0.154432 -1.296153
9  1.539111 0.000084 0.000006  -0.018635 -0.057102 -0.858939
10  1.196333 0.000145 0.000029  0.004741 0.005181 -0.739358
11  3.883504 -0.047269 0.431381  -0.216104 0.464441 -0.630862
12  1.719573 -0.000028 0.000015  0.035473 -0.116310 -1.317302
13  1.209180 0.000091 0.000012  -0.006344 -0.003685 -0.640195
14  4.085220 -0.082715 1.151041  0.064322 0.614532 -0.019322
15  1.719449 -0.000011 0.000021  -0.000909 -0.026418 -0.653433
16  1.099674 0.000048 0.000006  -0.073262 0.039405 -1.406663
17  0.971585 -1.283499 0.847609  -0.978328 -0.625347 -0.310208
18  1.789820 -0.000002 -0.000018  0.000998 -0.014468 0.721478
19  1.207016 -0.000011 -0.000043  0.001593 -0.000026 -0.111145
20  5.740636 0.000409 -0.000703  -0.092573 0.000003 0.000071
21  11.481043 0.000334 -0.000771  -0.045919 -0.096822 -0.002366
22  6.027524 -0.000330 0.000203  1.752629 -0.468332 1.700778
23  0.000001 11.692100 -0.000006  -0.939064 -0.394711 -0.750748
24  0.000003 0.000008 -0.000002  -0.451164 -0.000030 1.570739
25  -0.000001 -0.000011 -0.000000  0.868957 0.000002 1.570712
26  -3.402250 -2.584838 0.376265  1.473120 1.855075 -0.198639
27  6.027503 -0.000262 -0.000232  1.396058 0.474420 -0.303202
28  11.691991 0.000243 0.000856  0.970528 0.000089 -2.068974
29  11.479941 0.000295 0.001027  -1.674458 0.727011 0.161460
30  3.452863 -0.227595 1.051756  0.573015 -0.197780 -1.782130
31  1.312557 0.000022 0.000001  -0.067589 0.119040 -0.595239
32  0.729344 0.000065 -0.000027  -0.026993 -0.004558 -0.649387
33  3.942044 0.050109 0.430998  0.415260 -0.131585 -1.634044
34  1.539094 0.000008 -0.000002  -0.018706 -0.004890 -0.807183
35  1.196300 0.000074 -0.000005  -0.001372 -0.001809 -0.760336
36  3.883413 -0.050498 -0.431086  0.216949 -0.236898 -1.278357
37  1.719562 -0.000072 -0.000003  -0.029172 0.038034 -1.380057
38  1.209198 0.000035 0.000010  -0.003297 -0.002915 -0.381177
39  3.806436 -0.112149 -1.295330  -0.052588 -0.224268 0.122910
40  1.719415 -0.000101 -0.000034  -0.100952 0.146915 -1.608852
41  1.099674 0.000022 0.000008  -0.023407 0.002296 -0.615556
42  0.444468 -0.201855 -1.632532  1.077226 0.106495 -0.817774
43  1.789780 -0.000006 -0.000042  0.023056 0.021409 -0.019466
44  1.206996 -0.000004 0.000004  0.206835 0.095578 1.319988
45  5.740572 0.000055 0.000724  0.003027 -0.000014 0.000021
46  11.480932 0.000094 0.000954  -0.031306 0.121730 0.028403
47  6.027515 -0.000273 -0.000237  -0.676355 -0.752833 -1.372169
48  -0.000001 11.691973 -0.000006  -1.367722 0.816312 0.975570
49  0.000003 -0.000002 -0.000000  -3.040130 -0.000041 1.570856
50  -0.000007 -0.000016 0.000004  2.272644 -0.000030 1.570865
51  -4.939813 -8.364487 -7.440863  3.030704 -0.174114 -1.368935
52  -0.000000 0.000000 -0.000000  0.008153 -0.000259 0.000009
53  -0.000001 -0.000001 -0.000000  1.565115 0.043565 -0.106862
54  -0.869953 -17.324226 -5.540685  -0.916263 -0.107108 -1.948404
55  0.000001 0.000001 -0.000000  0.000000 -0.000000 -0.000002
56  0.000030 0.000029 0.000001  -1.571901 -0.044449 -0.106509
57  8.838223 -16.138317 -16.427357  1.570796 -0.000000 0.000000
58  -21.089123 6.899941 -12.297750  1.570796 -0.000000 0.000000
59  -0.670483 -0.210714 -4.109488  1.570796 -0.000000 0.000000
60  -0.004311 0.001230 -0.000371  0.006898 -0.005534 -0.284229
61  0.376268 3.148996 -2.887995  1.570796 -0.000000 0.000000
62  0.000000 0.000000 0.000000  -0.078727 -3.136056 0.284226
63  -2.775555 -3.930868 0.043953  1.570796 -0.000000 0.000000
64  -2.800832 -6.029351 -4.088078  1.562276 0.002835 -0.002174
65  0.032837 -0.689314 7.041600  0.349066 -0.000000 0.000000
66  0.022198 0.853171 -0.682570  -0.000000 0.000000 -0.000000
67  -0.812852 0.400427 5.891667  -0.000000 -0.000000 0.000000
68  0.032839 0.575037 28.881241  -0.000000 -0.000000 0.000000
69  0.032836 -1.914697 -1.997006  -0.000000 -0.000000 0.000000
70  -0.431854 2.407262 7.229147  -0.000000 -0.000000 0.000000
71  -2.772400 -6.783587 -4.727472  1.562276 0.002835 -0.002174
72  0.070484 0.982139 0.216440  -0.159017 -0.052843 0.008470
73  0.148731 0.738713 -1.299454  -0.000000 -0.000000 0.000000
74  -0.135883 0.464546 -1.299453  -0.000000 -0.000000 0.000000
time 3
0  0.000006 0.000000 0.000000  -1.570800 -1.391899 -1.570792
1  -4.005264 0.938027 -0.674797  -1.544956 -1.855077 -0.198630
2  6.027521 -0.000325 0.000193  -1.042103 -1.069005 -1.052850
3  11.692111 0.000644 -0.000739  -1.320256 -0.000013 -1.340591
4  11.480234 0.000620 -0.000533  1.259278 -0.569437 0.134546
5  3.859510 -0.142879 -1.192049  -0.544261 -0.274779 -1.892626
6  1.312591 0.000011 0.000005  -0.133832 -0.011337 -0.204249
7  0.729356 0.000053 0.000050  -0.007414 -0.009429 -0.053696
8  3.942143 0.046273 -0.431512  -0.461849 0.154432 -1.296153
9  1.539110 0.000084 0.000005  -0.018634 -0.057102 -0.858939
10  1.196332 0.000145 0.000029  0.004741 0.005181 -0.739358
11  3.883506 -0.047269 0.431381  -0.216104 0.464441 -0.630861
12  1.719573 -0.000026 0.000015  0.035473 -0.116310 -1.317302
13  1.209179 0.000091 0.000011  -0.006344 -0.003685 -0.640195
14  4.085224 -0.082715 1.151041  0.064322 0.614532 -0.019322
15  1.719448 -0.000012 0.000023  -0.000909 -0.026418 -0.653433
16  1.099675 0.000048 0.000004  -0.073262 0.039405 -1.406663
17  0.971586 -1.283499 0.847609  -0.978328 -0.625347 -0.310208
18  1.789820 -0.000002 -0.000018  0.000998 -0.014468 0.721478
19  1.207016 -0.000012 -0.000043  0.001593 -0.000026 -0.111145
20  5.740638 0.000410 -0.000703  -0.092400 0.000003 0.000070
21  11.481055 0.000335 -0.000765  -0.047004 -0.096654 -0.002249
22  6.027524 -0.000330 0.000203  1.751898 -0.470682 1.704936
23  0.000002 11.692100 -0.000007  -0.934068 -0.390418 -0.747331
24  0.000002 0.000009 -0.000000  -0.451164 -0.000031 1.570739
25  -0.000001 -0.000011 -0.000001  0.868957 0.000002 1.570712
26  -3.402250 -2.584838 0.376265  1.473120 1.855075 -0.198639
27  6.027503 -0.000262 -0.000232  1.394820 0.476020 -0.304239
28  11.691992 0.000243 0.000856  0.970528 0.000089 -2.063154
29  11.480001 0.000318 0.000995  -1.663361 0.723319 0.170938
30  3.452865 -0.227595 1.051757  0.573015 -0.197780 -1.782130
31  1.312558 0.000023 -0.000000  -0.067589 0.119040 -0.595239
32  0.729344 0.000066 -0.000026  -0.026993 -0.004558 -0.649387
33  3.942045 0.050110 0.430999  0.415260 -0.131585 -1.634045
34  1.539094 0.000010 -0.000001  -0.018706 -0.004890 -0.807183
35  1.196299 0.000075 -0.000005  -0.001372 -0.001809 -0.760336
36  3.883412 -0.050497 -0.431085  0.216949 -0.236898 -1.278357
37  1.719562 -0.000072 -0.000003  -0.029172 0.038034 -1.380057
38  1.209197 0.000034 0.000010  -0.003296 -0.002915 -0.381177
39  3.806437 -0.112148 -1.295330  -0.052588 -0.224268 0.122910
40  1.719413 -0.000101 -0.000034  -0.100952 0.146915 -1.608852
41  1.099674 0.000022 0.000008  -0.023407 0.002296 -0.615556
42  0.444468 -0.201855 -1.632532  1.077226 0.106495 -0.817774
43  1.789779 -0.000007 -0.000043  0.023056 0.021409 -0.019466
44  1.206996 -0.000004 0.000004  0.206835 0.095578 1.319988
45  5.740572 0.000055 0.000723  0.004021 -0.000014 0.000021
46  11.480945 0.000100 0.000948  -0.029711 0.121083 0.029409
47  6.027515 -0.000273 -0.000237  -0.679003 -0.753027 -1.370828
48  -0.000001 11.691974 -0.000005  -1.364088 0.812633 0.974456
49  0.000004 -0.000001 -0.000001  -3.040130 -0.000041 1.570856
50  -0.000006 -0.000015 0.000005  2.272644 -0.000030 1.570865
51  -4.943181 -8.416950 -7.470762  3.034728 -0.164115 -1.368225
52  0.000000 0.000000 -0.000001  0.008153 -0.000259 0.000009
53  -0.000001 -0.000001 0.000000  1.565115 0.043565 -0.106862
54  -0.864370 -17.390699 -5.657908  -0.918426 -0.096569 -1.946797
55  -0.000001 0.000000 0.000000  0.000000 -0.000000 -0.000002
56  0.000030 0.000029 0.000001  -1.571902 -0.044449 -0.106509
57  8.838223 -16.138317 -16.427357  1.570796 -0.000000 0.000000
58  -21.089123 6.899941 -12.297750  1.570796 -0.000000 0.000000
59  -0.670483 -0.210714 -4.109488  1.570796 -0.000000 0.000000
60  -0.004311 0.001230 -0.000371  0.006898 -0.005534 -0.284229
61  0.376268 3.148996 -2.887995  1.570796 -0.000000 0.000000
62  0.000000 0.000000 0.000000  -0.078727 -3.136056 0.284226
63  -2.775555 -3.930868 0.043953  1.570796 -0.000000 0.000000
64  -2.813737 -6.114515 -4.089411  1.572870 0.000974 -0.000767
65  0.032837 -0.689314 7.041599  0.349066 -0.000000 0.000000
66  0.022198 0.853170 1.207919  -0.000000 -0.000000 0.000000
67  -0.812851 0.400427 5.891668  -0.000000 -0.000000 0.000000
68  0.032839 0.575037 28.881243  -0.000000 -0.000000 0.000000
69  0.032836 -1.914698 -1.997006  -0.000000 -0.000000 0.000000
70  -0.431854 2.407262 7.229148  -0.000000 -0.000000 0.000000
71  -2.783056 -6.861897 -4.736701  1.572870 0.000974 -0.000767
72  -0.015875 1.183664 1.861428  -0.000000 -0.000000 0.000000
73  0.148731 0.738713 -1.299454  -0.000000 -0.000000 0.000000
74  -0.135884 0.464545 -1.299453  -0.000000 -0.000000 0.000000
time 4
0  0.000006 0.000000 0.000000  -1.570800 -1.391899 -1.570792
1  -4.005264 0.938027 -0.674797  -1.544956 -1.855077 -0.198630
2  6.027521 -0.000325 0.000193  -1.041224 -1.070164 -1.054150
3  11.692109 0.000644 -0.000739  -1.320255 -0.000012 -1.328309
4  11.480315 0.000631 -0.000488  1.258685 -0.564380 0.135248
5  3.859509 -0.142880 -1.192049  -0.544261 -0.274779 -1.892626
6  1.312590 0.000012 0.000008  -0.133832 -0.011337 -0.204249
7  0.729355 0.000054 0.000050  -0.007414 -0.009429 -0.053696
8  3.942144 0.046272 -0.431511  -0.461849 0.154431 -1.296153
9  1.539111 0.000082 0.000007  -0.018634 -0.057102 -0.858939
10  1.196332 0.000145 0.000028  0.004741 0.005181 -0.739358
11  3.883507 -0.047269 0.431382  -0.216104 0.464441 -0.630861
12  1.719573 -0.000028 0.000014  0.035473 -0.116310 -1.317302
13  1.209178 0.000093 0.000011  -0.006344 -0.003685 -0.640195
14  4.085223 -0.082716 1.151041  0.064322 0.614532 -0.019322
15  1.719448 -0.000014 0.000021  -0.000909 -0.026418 -0.653433
16  1.099676 0.000049 0.000006  -0.073262 0.039405 -1.406663
17  0.971588 -1.283499 0.847609  -0.978328 -0.625347 -0.310208
18  1.789818 -0.000003 -0.000018  0.000998 -0.014468 0.721478
19  1.207015 -0.000012 -0.000043  0.001593 -0.000026 -0.111145
20  5.740637 0.000410 -0.000703  -0.091200 0.000003 0.000071
21  11.481071 0.000338 -0.000754  -0.047227 -0.095679 -0.002002
22  6.027524 -0.000330 0.000203  1.750973 -0.469765 1.704826
23  0.000002 11.692099 -0.000008  -0.926620 -0.384061 -0.742214
24  0.000003 0.000008 -0.000000  -0.451164 -0.000031 1.570739
25  -0.000001 -0.000011 -0.000001  0.868957 0.000002 1.570712
26  -3.402250 -2.584838 0.376265  1.473120 1.855075 -0.198639
27  6.027503 -0.000262 -0.000232  1.394685 0.481329 -0.305069
28  11.691990 0.000243 0.000854  0.970528 0.000088 -2.052626
29  11.480104 0.000358 0.000940  -1.656060 0.716908 0.174631
30  3.452864 -0.227594 1.051757  0.573015 -0.197780 -1.782130
31  1.312558 0.000022 -0.000000  -0.067589 0.119040 -0.595239
32  0.729343 0.000065 -0.000026  -0.026993 -0.004558 -0.649387
33  3.942044 0.050110 0.430999  0.415260 -0.131585 -1.634044
34  1.539093 0.000009 -0.000002  -0.018706 -0.004890 -0.807183
35  1.196300 0.000074 -0.000003  -0.001372 -0.001809 -0.760336
36  3.883412 -0.050497 -0.431086  0.216949 -0.236898 -1.278357
37  1.719562 -0.000071 -0.000003  -0.029172 0.038034 -1.380057
38  1.209199 0.000034 0.000009  -0.003296 -0.002915 -0.381177
39  3.806436 -0.112148 -1.295331  -0.052588 -0.224268 0.122910
40  1.719414 -0.000102 -0.000035  -0.100952 0.146915 -1.608852
41  1.099673 0.000020 0.000008  -0.023407 0.002296 -0.615556
42  0.444469 -0.201855 -1.632532  1.077226 0.106495 -0.817774
43  1.789780 -0.000007 -0.000043  0.023056 0.021409 -0.019466
44  1.206996 -0.000003 0.000003  0.206835 0.095578 1.319988
45  5.740571 0.000055 0.000725  0.004603 -0.000014 0.000021
46  11.480964 0.000108 0.000938  -0.028468 0.119896 0.029580
47  6.027515 -0.000273 -0.000237  -0.685438 -0.750556 -1.367201
48  -0.000001 11.691975 -0.000005  -1.357534 0.805986 0.972403
49  0.000003 0.000000 -0.000001  -3.040130 -0.000041 1.570856
50  -0.000006 -0.000015 0.000005  2.272644 -0.000030 1.570865
51  -4.937963 -8.519485 -7.491376  3.037741 -0.158904 -1.366154
52  -0.000000 -0.000000 -0.000000  0.008153 -0.000259 0.000009
53  -0.000000 -0.000000 -0.000000  1.565115 0.043565 -0.106862
54  -0.839549 -17.493008 -5.722123  -0.918786 -0.090579 -1.944208
55  0.000001 -0.000000 -0.000000  0.000000 -0.000000 -0.000002
56  0.000030 0.000029 0.000001  -1.571902 -0.044449 -0.106509
57  8.838223 -16.138317 -16.427357  1.570796 -0.000000 0.000000
58  -21.089123 6.899941 -12.297750  1.570796 -0.000000 0.000000
59  -0.670483 -0.210714 -4.109488  1.570796 -0.000000 0.000000
60  -0.004311 0.001230 -0.000371  0.006898 -0.005534 -0.284229
61  0.376268 3.148996 -2.887995  1.570796 -0.000000 0.000000
62  0.000000 0.000000 0.000000  -0.078727 -3.136056 0.284226
63  -2.775555 -3.930868 0.043953  1.570796 -0.000000 0.000000
64  -2.820685 -6.230966 -4.092981  1.578575 -0.000888 0.001789
65  0.032837 -0.689314 7.041599  0.349066 -0.000000 0.000000
66  0.022198 0.853170 1.007218  -0.000000 0.000000 -0.028844
67  -0.812851 0.400427 5.891667  -0.000000 -0.000000 -0.000000
68  0.032839 0.575036 28.881241  0.000000 -0.000000 0.000000
69  0.032836 -1.914698 -1.997006  0.000000 -0.000000 0.000000
70  -0.431854 2.407262 7.229148  0.000000 -0.000000 0.000000
71  -2.786892 -6.974560 -4.744466  1.578575 -0.000888 0.001789
72  -0.015875 1.183664 1.861428  0.000000 -0.000000 0.000000
73  0.148731 0.738712 -1.299453  0.000000 -0.000000 0.000000
74  -0.135883 0.464545 -1.299453  0.000000 -0.000000 0.000000
time 5
0  0.000006 0.000000 0.000000  -1.570800 -1.391899 -1.570792
1  -4.005264 0.938027 -0.674797  -1.544956 -1.855077 -0.198630
2  6.027521 -0.000325 0.000193  -1.040103 -1.075702 -1.059719
3  11.692109 0.000643 -0.000740  -1.320255 -0.000012 -1.312420
4  11.480427 0.000648 -0.000428  1.262854 -0.554848 0.133931
5  3.859509 -0.142879 -1.192049  -0.544261 -0.274779 -1.892626
6  1.312590 0.000012 0.000006  -0.133832 -0.011337 -0.204249
7  0.729355 0.000054 0.000048  -0.007414 -0.009429 -0.053696
8  3.942143 0.046273 -0.431511  -0.461849 0.154432 -1.296153
9  1.539110 0.000083 0.000006  -0.018634 -0.057102 -0.858939
10  1.196333 0.000144 0.000028  0.004741 0.005181 -0.739358
11  3.883506 -0.047269 0.431382  -0.216104 0.464441 -0.630861
12  1.719573 -0.000028 0.000017  0.035473 -0.116310 -1.317302
13  1.209179 0.000092 0.000011  -0.006344 -0.003685 -0.640195
14  4.085223 -0.082715 1.151041  0.064322 0.614532 -0.019322
15  1.719450 -0.000013 0.000022  -0.000909 -0.026418 -0.653433
16  1.099674 0.000048 0.000005  -0.073262 0.039405 -1.406663
17  0.971588 -1.283499 0.847610  -0.978328 -0.625347 -0.310208
18  1.789820 -0.000003 -0.000019  0.000998 -0.014468 0.721478
19  1.207017 -0.000012 -0.000045  0.001593 -0.000026 -0.111145
20  5.740637 0.000410 -0.000702  -0.089227 0.000003 0.000071
21  11.481095 0.000341 -0.000742  -0.046755 -0.093713 -0.001746
22  6.027524 -0.000330 0.000203  1.748106 -0.464824 1.701533
23  0.000002 11.692099 -0.000007  -0.916962 -0.375889 -0.735538
24  0.000004 0.000008 -0.000001  -0.451164 -0.000031 1.570739
25  -0.000000 -0.000011 -0.000001  0.868957 0.000002 1.570712
26  -3.402250 -2.584838 0.376265  1.473120 1.855075 -0.198639
27  6.027503 -0.000262 -0.000232  1.396117 0.489029 -0.305181
28  11.691990 0.000243 0.000856  0.970528 0.000087 -2.039455
29  11.480240 0.000410 0.000862  -1.654990 0.710410 0.171405
30  3.452863 -0.227595 1.051756  0.573015 -0.197780 -1.782130
31  1.312559 0.000023 0.000000  -0.067589 0.119040 -0.595239
32  0.729344 0.000065 -0.000026  -0.026993 -0.004558 -0.649387
33  3.942044 0.050110 0.430998  0.415260 -0.131585 -1.634045
34  1.539094 0.000006 -0.000001  -0.018706 -0.004890 -0.807183
35  1.196298 0.000075 -0.000005  -0.001372 -0.001809 -0.760336
36  3.883412 -0.050498 -0.431086  0.216949 -0.236898 -1.278357
37  1.719562 -0.000072 -0.000003  -0.029172 0.038034 -1.380057
38  1.209197 0.000034 0.000011  -0.003297 -0.002915 -0.381177
39  3.806437 -0.112148 -1.295330  -0.041210 -0.194559 0.168894
40  1.719413 -0.000101 -0.000035  -0.082106 0.167013 -1.492850
41  1.099674 0.000023 0.000008  -0.023717 0.005077 -0.503574
42  0.444469 -0.201855 -1.632532  1.077226 0.106495 -0.817774
43  1.789779 -0.000008 -0.000043  0.023056 0.021409 -0.019466
44  1.206996 -0.000003 0.000003  0.206835 0.095578 1.319988
45  5.740573 0.000056 0.000724  0.004536 -0.000014 0.000021
46  11.480991 0.000118 0.000922  -0.028013 0.118650 0.028872
47  6.027515 -0.000273 -0.000237  -0.693755 -0.745684 -1.362324
48  -0.000000 11.691973 -0.000006  -1.349370 0.797683 0.969766
49  0.000004 -0.000003 -0.000000  -3.040130 -0.000041 1.570856
50  -0.000006 -0.000015 0.000005  2.272644 -0.000030 1.570865
51  -4.930645 -8.652483 -7.496172  3.038388 -0.160003 -1.364882
52  -0.000000 0.000000 -0.000001  0.008153 -0.000259 0.000009
53  -0.000000 -0.000000 -0.000000  1.565115 0.043565 -0.106862
54  -0.821407 -17.618685 -5.714947  -0.917647 -0.091151 -1.942937
55  -0.000001 -0.000001 0.000000  0.000000 -0.000000 -0.000002
56  0.000030 0.000028 0.000001  -1.571901 -0.044449 -0.106509
57  8.838223 -16.138317 -16.427357  1.570796 -0.000000 0.000000
58  -21.089123 6.899941 -12.297750  1.570796 -0.000000 0.000000
59  -0.670483 -0.210714 -4.109488  1.570796 -0.000000 0.000000
60  -0.004311 0.001230 -0.000371  0.006898 -0.005534 -0.284229
61  0.376268 3.148996 -2.887995  1.570796 -0.000000 0.000000
62  0.000000 0.000000 0.000000  -0.078727 -3.136056 0.284226
63  -2.775555 -3.930868 0.043953  1.570796 -0.000000 0.000000
64  -2.819402 -6.357844 -4.098151  1.577626 -0.001734 0.003165
65  0.032837 -0.689314 7.041600  0.174533 -0.000000 0.000000
66  0.022198 0.853171 1.107568  0.000000 -0.000000 -0.021737
67  -0.812851 0.400427 5.891667  0.000000 0.000000 -0.000000
68  0.032839 0.575037 28.881241  -0.000000 0.000000 0.000000
69  0.032836 -1.914698 -1.997007  -0.000000 0.000000 0.000000
70  -0.431854 2.407263 7.229148  -0.000000 0.000000 0.000000
71  -2.784033 -7.102006 -4.748901  1.577626 -0.001734 0.003165
72  -0.015874 1.183664 1.861428  -0.000000 0.000000 0.000000
73  0.148732 0.738713 -1.299454  -0.000000 0.000000 0.000000
74  -0.135883 0.464545 -1.299454  -0.000000 0.000000 0.000000
time 6
0  0.000006 0.000000 0.000000  -1.570800 -1.391899 -1.570792
1  -4.005264 0.938027 -0.674797  -1.544956 -1.855077 -0.198630
2  6.027522 -0.000325 0.000193  -1.035565 -1.082877 -1.067796
3  11.692111 0.000643 -0.000740  -1.320254 -0.000011 -1.295450
4  11.480550 0.000662 -0.000361  1.265632 -0.543461 0.131887
5  3.859506 -0.142880 -1.192049  -0.544261 -0.274779 -1.892626
6  1.312590 0.000013 0.000008  -0.133832 -0.011337 -0.204249
7  0.729354 0.000053 0.000050  -0.007414 -0.009429 -0.053696
8  3.942142 0.046273 -0.431511  -0.461849 0.154432 -1.296153
9  1.539111 0.000084 0.000006  -0.018634 -0.057102 -0.858939
10  1.196334 0.000144 0.000028  0.004741 0.005181 -0.739358
11  3.883504 -0.047269 0.431382  -0.216104 0.464441 -0.630861
12  1.719573 -0.000025 0.000016  0.035473 -0.116310 -1.317302
13  1.209180 0.000091 0.000012  -0.006344 -0.003685 -0.640195
14  4.085221 -0.082716 1.151041  0.064322 0.614532 -0.019322
15  1.719450 -0.000012 0.000022  -0.000909 -0.026418 -0.653433
16  1.099674 0.000047 0.000004  -0.073262 0.039405 -1.406663
17  0.971584 -1.283499 0.847609  -0.978328 -0.625347 -0.310208
18  1.789819 -0.000003 -0.000017  0.000998 -0.014468 0.721478
19  1.207017 -0.000011 -0.000044  0.001593 -0.000026 -0.111145
20  5.740636 0.000411 -0.000701  -0.087525 0.000003 0.000071
21  11.481118 0.000344 -0.000730  -0.046615 -0.091385 -0.001666
22  6.027524 -0.000330 0.000203  1.742930 -0.458942 1.699764
23  0.000001 11.692100 -0.000007  -0.906616 -0.367228 -0.728339
24  0.000003 0.000008 -0.000000  -0.451164 -0.000030 1.570739
25  -0.000000 -0.000011 0.000000  0.868957 0.000002 1.570712
26  -3.402250 -2.584838 0.376265  1.473120 1.855075 -0.198639
27  6.027503 -0.000262 -0.000231  1.398128 0.495690 -0.304739
28  11.691992 0.000243 0.000857  0.970529 0.000086 -2.027495
29  11.480361 0.000455 0.000794  -1.656225 0.706099 0.167432
30  3.452864 -0.227595 1.051756  0.573015 -0.197780 -1.782130
31  1.312558 0.000022 -0.000000  -0.067589 0.119040 -0.595239
32  0.729344 0.000065 -0.000026  -0.026993 -0.004558 -0.649387
33  3.942044 0.050110 0.430999  0.415260 -0.131585 -1.634045
34  1.539093 0.000009 -0.000002  -0.018706 -0.004890 -0.807183
35  1.196299 0.000074 -0.000004  -0.001372 -0.001809 -0.760336
36  3.883412 -0.050498 -0.431086  0.216949 -0.236898 -1.278357
37  1.719562 -0.000071 -0.000002  -0.029172 0.038034 -1.380057
38  1.209196 0.000034 0.000009  -0.003297 -0.002915 -0.381177
39  3.806437 -0.112149 -1.295330  -0.028364 -0.165451 0.214946
40  1.719416 -0.000101 -0.000034  -0.061648 0.186034 -1.376184
41  1.099674 0.000021 0.000008  -0.023792 0.007869 -0.391591
42  0.444467 -0.201855 -1.632533  1.077226 0.106495 -0.817774
43  1.789780 -0.000007 -0.000042  0.023056 0.021409 -0.019466
44  1.206996 -0.000004 0.000003  0.206835 0.095578 1.319988
45  5.740573 0.000054 0.000724  0.004192 -0.000014 0.000021
46  11.481016 0.000127 0.000909  -0.027978 0.117807 0.028187
47  6.027515 -0.000273 -0.000237  -0.700441 -0.740859 -1.358308
48  -0.000000 11.691975 -0.000005  -1.341990 0.790156 0.967307
49  0.000005 -0.000001 -0.000000  -3.040130 -0.000041 1.570856
50  -0.000007 -0.000015 0.000005  2.272644 -0.000030 1.570865
51  -4.931885 -8.774153 -7.495999  3.037402 -0.162112 -1.365889
52  0.000001 0.000000 0.000001  0.008153 -0.000259 0.000009
53  -0.000001 -0.000001 0.000001  1.565115 0.043565 -0.106862
54  -0.832164 -17.741089 -5.696628  -0.917307 -0.093448 -1.944134
55  -0.000001 0.000001 0.000000  0.000000 -0.000000 -0.000002
56  0.000028 0.000029 0.000001  -1.571901 -0.044449 -0.106509
57  8.838223 -16.138317 -16.427357  1.570796 -0.000000 0.000000
58  -21.089123 6.899941 -12.297750  1.570796 -0.000000 0.000000
59  -0.670483 -0.210714 -4.109488  1.570796 -0.000000 0.000000
60  -0.004311 0.001230 -0.000371  0.006898 -0.005534 -0.284229
61  0.376268 3.148996 -2.887995  1.570796 -0.000000 0.000000
62  0.000000 0.000000 0.000000  -0.078727 -3.136056 0.284226
63  -2.775555 -3.930868 0.043953  1.570796 -0.000000 0.000000
64  -2.816192 -6.474295 -4.104280  1.575365 -0.001206 0.002002
65  0.032837 -0.689313 7.041598  -0.000000 -0.000000 -0.000000
66  0.022198 0.853171 1.207919  -0.000000 -0.000000 -0.000000
67  -0.812851 0.400427 5.891666  -0.000000 -0.000000 -0.000000
68  0.032839 0.575037 28.881241  -0.000000 -0.000000 -0.000000
69  0.032836 -1.914697 -1.997006  -0.000000 -0.000000 -0.000000
70  -0.431854 2.407263 7.229148  -0.000000 -0.000000 -0.000000
71  -2.782032 -7.219969 -4.753364  1.575365 -0.001206 0.002002
72  -0.015875 1.183664 1.861427  -0.000000 -0.000000 -0.000000
73  0.148731 0.738713 -1.299454  -0.000000 -0.000000 -0.000000
74  -0.135883 0.464546 -1.299454  -0.000000 -0.000000 -0.000000
time 7
0  0.000006 0.000000 0.000000  -1.570800 -1.391899 -1.570792
1  -4.005264 0.938027 -0.674797  -1.544956 -1.855077 -0.198630
2  6.027522 -0.000325 0.000193  -1.030311 -1.089319 -1.075477
3  11.692111 0.000643 -0.000740  -1.320253 -0.000010 -1.281678
4  11.480653 0.000678 -0.000309  1.267278 -0.533509 0.129798
5  3.859511 -0.142879 -1.192049  -0.544261 -0.274779 -1.892626
6  1.312591 0.000011 0.000007  -0.133832 -0.011337 -0.204249
7  0.729356 0.000053 0.000047  -0.007414 -0.009429 -0.053696
8  3.942143 0.046273 -0.431511  -0.461849 0.154432 -1.296153
9  1.539111 0.000085 0.000006  -0.018634 -0.057102 -0.858939
10  1.196333 0.000147 0.000029  0.004741 0.005181 -0.739358
11  3.883507 -0.047269 0.431382  -0.216104 0.464441 -0.630861
12  1.719573 -0.000025 0.000015  0.035473 -0.116310 -1.317302
13  1.209179 0.000091 0.000011  -0.006344 -0.003685 -0.640195
14  4.085226 -0.082715 1.151041  0.064322 0.614532 -0.019322
15  1.719449 -0.000011 0.000020  -0.000909 -0.026418 -0.653433
16  1.099675 0.000048 0.000005  -0.073262 0.039406 -1.406663
17  0.971590 -1.283499 0.847610  -0.978328 -0.625347 -0.310208
18  1.789821 -0.000002 -0.000018  0.000998 -0.014468 0.721478
19  1.207016 -0.000012 -0.000044  0.001593 -0.000026 -0.111145
20  5.740638 0.000410 -0.000703  -0.086315 0.000003 0.000070
21  11.481140 0.000347 -0.000719  -0.046644 -0.089354 -0.001705
22  6.027524 -0.000330 0.000203  1.737789 -0.453824 1.698997
23  0.000002 11.692101 -0.000007  -0.898195 -0.360251 -0.722443
24  0.000002 0.000008 -0.000001  -0.451164 -0.000031 1.570739
25  -0.000001 -0.000012 -0.000001  0.868957 0.000002 1.570712
26  -3.402250 -2.584838 0.376265  1.473120 1.855075 -0.198639
27  6.027503 -0.000262 -0.000231  1.399930 0.500420 -0.304157
28  11.691991 0.000245 0.000856  0.970529 0.000085 -2.018709
29  11.480448 0.000492 0.000740  -1.658728 0.703812 0.163570
30  3.452865 -0.227594 1.051756  0.573015 -0.197780 -1.782130
31  1.312558 0.000024 0.000001  -0.067589 0.119040 -0.595239
32  0.729344 0.000066 -0.000026  -0.026993 -0.004558 -0.649387
33  3.942045 0.050110 0.430999  0.415260 -0.131585 -1.634045
34  1.539093 0.000010 -0.000002  -0.018706 -0.004890 -0.807183
35  1.196299 0.000074 -0.000004  -0.001372 -0.001809 -0.760336
36  3.883412 -0.050497 -0.431086  0.216949 -0.236898 -1.278357
37  1.719562 -0.000072 -0.000003  -0.029172 0.038034 -1.380057
38  1.209198 0.000034 0.000010  -0.003296 -0.002915 -0.381177
39  3.806437 -0.112148 -1.295330  -0.028259 -0.165873 0.213108
40  1.719414 -0.000102 -0.000035  -0.063974 0.187291 -1.384392
41  1.099674 0.000021 0.000008  -0.024182 0.007127 -0.422091
42  0.444469 -0.201855 -1.632532  1.077226 0.106495 -0.817774
43  1.789779 -0.000008 -0.000043  0.023056 0.021409 -0.019466
44  1.206996 -0.000005 0.000004  0.206835 0.095578 1.319988
45  5.740573 0.000056 0.000723  0.003732 -0.000014 0.000021
46  11.481034 0.000134 0.000897  -0.028214 0.117345 0.027615
47  6.027515 -0.000273 -0.000237  -0.704939 -0.737141 -1.355556
48  -0.000001 11.691974 -0.000004  -1.336587 0.784635 0.965463
49  0.000004 -0.000003 -0.000000  -3.040130 -0.000041 1.570856
50  -0.000007 -0.000015 0.000005  2.272644 -0.000030 1.570865
51  -4.936627 -8.863873 -7.493774  3.035697 -0.164521 -1.367779
52  -0.000000 -0.000000 0.000000  0.008153 -0.000259 0.000009
53  0.000001 0.000000 0.000000  1.565115 0.043565 -0.106862
54  -0.854239 -17.834785 -5.674928  -0.917399 -0.096386 -1.946291
55  -0.000001 -0.000000 0.000001  0.000000 -0.000000 -0.000002
56  0.000029 0.000029 0.000002  -1.571901 -0.044449 -0.106509
57  8.838223 -16.138317 -16.427357  1.570796 -0.000000 0.000000
58  -21.089123 6.899941 -12.297750  1.570796 -0.000000 0.000000
59  -0.670483 -0.210714 -4.109488  1.570796 -0.000000 0.000000
60  -0.004311 0.001230 -0.000371  0.006898 -0.005534 -0.284229
61  0.376268 3.148996 -2.887995  1.570796 -0.000000 0.000000
62  0.000000 0.000000 0.000000  -0.078727 -3.136056 0.284226
63  -2.775555 -3.930868 0.043953  1.570796 -0.000000 0.000000
64  -2.812020 -6.559460 -4.110729  1.572666 -0.000045 -0.000162
65  0.032837 -0.689314 7.041600  -0.000000 -0.000000 -0.000000
66  0.022198 0.853170 1.168260  -0.000000 -0.000000 0.022051
67  -0.812852 0.400428 5.891668  0.000000 -0.000000 0.000000
68  0.032839 0.575037 28.881243  -0.000000 -0.000000 -0.000000
69  0.032836 -1.914698 -1.997006  -0.000000 -0.000000 -0.000000
70  -0.431855 2.407262 7.229149  -0.000000 -0.000000 -0.000000
71  -2.780228 -7.306954 -4.757835  1.572666 -0.000045 -0.000162
72  -0.015875 1.183664 1.861426  -0.000000 -0.000000 -0.000000
73  0.148731 0.738712 -1.299454  -0.000000 -0.000000 -0.000000
74  -0.135883 0.464545 -1.299454  -0.000000 -0.000000 -0.000000
time 8
0  0.000006 0.000000 0.000000  -1.570800 -1.391899 -1.570792
1  -4.005264 0.938027 -0.674797  -1.544956 -1.855077 -0.198630
2  6.027522 -0.000325 0.000193  -1.027992 -1.092393 -1.079130
3  11.692111 0.000644 -0.000740  -1.320253 -0.000010 -1.275850
4  11.480701 0.000683 -0.000281  1.268263 -0.528678 0.128215
5  3.859508 -0.142879 -1.192049  -0.544261 -0.274779 -1.892626
6  1.312590 0.000012 0.000006  -0.133832 -0.011337 -0.204249
7  0.729356 0.000053 0.000049  -0.007414 -0.009429 -0.053696
8  3.942144 0.046273 -0.431511  -0.461849 0.154432 -1.296153
9  1.539111 0.000086 0.000005  -0.018634 -0.057102 -0.858939
10  1.196332 0.000146 0.000028  0.004741 0.005181 -0.739358
11  3.883505 -0.047269 0.431382  -0.216104 0.464441 -0.630861
12  1.719573 -0.000028 0.000014  0.035473 -0.116310 -1.317302
13  1.209179 0.000091 0.000013  -0.006344 -0.003685 -0.640195
14  4.085223 -0.082715 1.151041  0.064322 0.614532 -0.019322
15  1.719448 -0.000011 0.000021  -0.000909 -0.026418 -0.653433
16  1.099676 0.000050 0.000005  -0.073262 0.039405 -1.406663
17  0.971587 -1.283499 0.847609  -0.978328 -0.625347 -0.310208
18  1.789820 -0.000003 -0.000018  0.000998 -0.014468 0.721478
19  1.207016 -0.000011 -0.000044  0.001593 -0.000026 -0.111145
20  5.740638 0.000410 -0.000703  -0.085816 0.000003 0.000070
21  11.481152 0.000349 -0.000712  -0.046641 -0.088354 -0.001825
22  6.027524 -0.000330 0.000203  1.735456 -0.451335 1.698421
23  0.000000 11.692100 -0.000007  -0.894625 -0.357312 -0.719934
24  0.000004 0.000007 -0.000001  -0.451164 -0.000031 1.570739
25  -0.000001 -0.000011 -0.000001  0.868957 0.000002 1.570712
26  -3.402250 -2.584838 0.376265  1.473120 1.855075 -0.198639
27  6.027503 -0.000262 -0.000231  1.400756 0.502427 -0.303864
28  11.691992 0.000243 0.000856  0.970529 0.000085 -2.014977
29  11.480483 0.000508 0.000719  -1.661447 0.702920 0.160732
30  3.452864 -0.227594 1.051756  0.573015 -0.197780 -1.782130
31  1.312558 0.000023 0.000000  -0.067589 0.119040 -0.595239
32  0.729345 0.000065 -0.000025  -0.026993 -0.004558 -0.649387
33  3.942044 0.050110 0.430998  0.415260 -0.131585 -1.634045
34  1.539092 0.000009 -0.000000  -0.018706 -0.004890 -0.807183
35  1.196299 0.000075 -0.000004  -0.001372 -0.001809 -0.760336
36  3.883412 -0.050497 -0.431086  0.216949 -0.236898 -1.278357
37  1.719562 -0.000073 -0.000003  -0.029172 0.038034 -1.380057
38  1.209198 0.000034 0.000010  -0.003297 -0.002915 -0.381177
39  3.806438 -0.112148 -1.295330  -0.028448 -0.166806 0.208377
40  1.719412 -0.000101 -0.000035  -0.067997 0.186905 -1.405565
41  1.099674 0.000022 0.000008  -0.024868 0.005158 -0.502006
42  0.444469 -0.201855 -1.632533  1.077226 0.106495 -0.817774
43  1.789780 -0.000008 -0.000043  0.023056 0.021409 -0.019466
44  1.206996 -0.000004 0.000004  0.206835 0.095578 1.319988
45  5.740571 0.000056 0.000723  0.003305 -0.000014 0.000021
46  11.481040 0.000138 0.000894  -0.028559 0.117149 0.027257
47  6.027515 -0.000273 -0.000237  -0.706804 -0.735515 -1.354408
48  -0.000000 11.691975 -0.000005  -1.334297 0.782292 0.964670
49  0.000003 0.000000 0.000000  -3.040130 -0.000041 1.570856
50  -0.000006 -0.000015 0.000005  2.272644 -0.000030 1.570865
51  -4.939081 -8.902051 -7.492212  3.034081 -0.166501 -1.368680
52  0.000001 0.000000 -0.000001  0.008153 -0.000259 0.000009
53  0.000000 0.000000 -0.000000  1.565115 0.043565 -0.106862
54  -0.865043 -17.873596 -5.657831  -0.917652 -0.098915 -1.947434
55  -0.000001 -0.000001 -0.000001  0.000000 -0.000000 -0.000002
56  0.000030 0.000028 0.000000  -1.571902 -0.044449 -0.106509
57  8.838223 -16.138317 -16.427357  1.570796 -0.000000 0.000000
58  -21.089123 6.899941 -12.297750  1.570796 -0.000000 0.000000
59  -0.670483 -0.210714 -4.109488  1.570796 -0.000000 0.000000
60  -0.004311 0.001230 -0.000371  0.006898 -0.005534 -0.284229
61  0.376268 3.148996 -2.887995  1.570796 -0.000000 0.000000
62  0.000000 0.000000 0.000000  -0.078727 -3.136056 0.284226
63  -2.775555 -3.930868 0.043953  1.570796 -0.000000 0.000000
64  -2.807848 -6.592483 -4.116858  1.570404 0.001117 -0.001331
65  0.032837 -0.689314 7.041598  -0.000000 0.000000 0.000000
66  0.022198 0.853170 1.188089  -0.000000 0.000000 0.011025
67  -0.812852 0.400427 5.891666  -0.000000 0.000000 -0.000000
68  0.032839 0.575036 28.881245  -0.000000 0.000000 0.000000
69  0.032836 -1.914698 -1.997006  -0.000000 0.000000 0.000000
70  -0.431854 2.407262 7.229149  -0.000000 0.000000 0.000000
71  -2.777682 -7.341475 -4.762309  1.570404 0.001117 -0.001331
72  -0.015875 1.183663 1.861428  -0.000000 0.000000 0.000000
73  0.148731 0.738712 -1.299454  -0.000000 0.000000 0.000000
74  -0.135883 0.464545 -1.299453  -0.000000 0.000000 0.000000
time 9
0  0.000006 0.000000 0.000000  -1.570800 -1.391899 -1.570792
1  -4.005264 0.938027 -0.674797  -1.544956 -1.855077 -0.198630
2  6.027522 -0.000325 0.000193  -1.029021 -1.091795 -1.078251
3  11.692110 0.000643 -0.000742  -1.320253 -0.000010 -1.277668
4  11.480686 0.000682 -0.000290  1.268615 -0.529222 0.127626
5  3.859509 -0.142879 -1.192048  -0.544261 -0.274779 -1.892626
6  1.312589 0.000012 0.000009  -0.133832 -0.011337 -0.204249
7  0.729355 0.000054 0.000047  -0.007414 -0.009429 -0.053696
8  3.942142 0.046273 -0.431512  -0.461849 0.154432 -1.296153
9  1.539111 0.000085 0.000005  -0.018634 -0.057102 -0.858939
10  1.196332 0.000145 0.000029  0.004741 0.005181 -0.739358
11  3.883503 -0.047269 0.431381  -0.216104 0.464441 -0.630861
12  1.719574 -0.000028 0.000017  0.035473 -0.116310 -1.317302
13  1.209178 0.000091 0.000012  -0.006344 -0.003685 -0.640195
14  4.085223 -0.082715 1.151041  0.064322 0.614532 -0.019322
15  1.719450 -0.000010 0.000022  -0.000909 -0.026418 -0.653433
16  1.099675 0.000049 0.000004  -0.073262 0.039405 -1.406663
17  0.971587 -1.283499 0.847609  -0.978328 -0.625347 -0.310208
18  1.789820 -0.000002 -0.000018  0.000998 -0.014468 0.721478
19  1.207014 -0.000011 -0.000044  0.001593 -0.000026 -0.111145
20  5.740638 0.000410 -0.000702  -0.085930 0.000003 0.000071
21  11.481146 0.000348 -0.000716  -0.046582 -0.088445 -0.001935
22  6.027524 -0.000330 0.000203  1.736185 -0.451726 1.698070
23  0.000002 11.692099 -0.000007  -0.895739 -0.358228 -0.720718
24  0.000002 0.000009 -0.000001  -0.451164 -0.000031 1.570739
25  -0.000000 -0.000011 -0.000001  0.868957 0.000002 1.570712
26  -3.402250 -2.584838 0.376265  1.473120 1.855075 -0.198639
27  6.027503 -0.000262 -0.000231  1.400383 0.501978 -0.304057
28  11.691992 0.000243 0.000856  0.970529 0.000085 -2.015840
29  11.480475 0.000503 0.000726  -1.663157 0.703122 0.159560
30  3.452863 -0.227594 1.051756  0.573015 -0.197780 -1.782130
31  1.312558 0.000023 -0.000000  -0.067589 0.119040 -0.595239
32  0.729344 0.000065 -0.000027  -0.026993 -0.004558 -0.649387
33  3.942045 0.050110 0.430999  0.415260 -0.131585 -1.634045
34  1.539094 0.000008 -0.000002  -0.018706 -0.004890 -0.807183
35  1.196301 0.000074 -0.000004  -0.001372 -0.001809 -0.760336
36  3.883413 -0.050497 -0.431086  0.216949 -0.236898 -1.278357
37  1.719563 -0.000071 -0.000002  -0.029172 0.038034 -1.380057
38  1.209198 0.000035 0.000010  -0.003297 -0.002915 -0.381177
39  3.806436 -0.112148 -1.295330  -0.028721 -0.167708 0.203660
40  1.719414 -0.000101 -0.000035  -0.071600 0.185755 -1.426673
41  1.099674 0.000020 0.000008  -0.025351 0.003148 -0.581920
42  0.444469 -0.201854 -1.632533  1.077226 0.106495 -0.817774
43  1.789780 -0.000007 -0.000043  0.023056 0.021409 -0.019466
44  1.206996 -0.000003 0.000003  0.206835 0.095578 1.319988
45  5.740571 0.000055 0.000724  0.003071 -0.000014 0.000021
46  11.481039 0.000136 0.000894  -0.028817 0.117172 0.027152
47  6.027515 -0.000273 -0.000237  -0.706497 -0.736022 -1.354627
48  -0.000001 11.691975 -0.000004  -1.334826 0.782834 0.964854
49  0.000003 -0.000000 -0.000001  -3.040130 -0.000041 1.570856
50  -0.000006 -0.000015 0.000006  2.272644 -0.000030 1.570865
51  -4.937212 -8.892814 -7.494062  3.033362 -0.167323 -1.368368
52  0.000000 0.000000 -0.000001  0.008153 -0.000259 0.000009
53  0.000001 0.000000 -0.000000  1.565115 0.043565 -0.106862
54  -0.860478 -17.861835 -5.653337  -0.917797 -0.099991 -1.947228
55  0.000000 -0.000000 -0.000000  0.000000 -0.000000 -0.000002
56  0.000031 0.000029 0.000000  -1.571902 -0.044449 -0.106509
57  8.838223 -16.138317 -16.427357  1.570796 -0.000000 0.000000
58  -21.089123 6.899941 -12.297750  1.570796 -0.000000 0.000000
59  -0.670483 -0.210714 -4.109488  1.570796 -0.000000 0.000000
60  -0.004311 0.001230 -0.000371  0.006898 -0.005534 -0.284229
61  0.376268 3.148996 -2.887995  1.570796 -0.000000 0.000000
62  0.000000 0.000000 0.000000  -0.078727 -3.136056 0.284226
63  -2.775555 -3.930868 0.043953  1.570796 -0.000000 0.000000
64  -2.804638 -6.579640 -4.122028  1.569456 0.001645 -0.001140
65  0.032837 -0.689314 7.041599  0.000000 0.000000 -0.000000
66  0.022198 0.853171 1.207919  0.000000 0.000000 -0.000000
67  -0.812851 0.400427 5.891667  0.000000 0.000000 -0.000000
68  0.032839 0.575036 28.881243  0.000000 0.000000 -0.000000
69  0.032836 -1.914697 -1.997007  0.000000 0.000000 -0.000000
70  -0.431854 2.407263 7.229148  0.000000 0.000000 -0.000000
71  -2.774669 -7.329238 -4.766785  1.569456 0.001645 -0.001140
72  -0.015874 1.183665 1.861428  0.000000 0.000000 -0.000000
73  0.148731 0.738714 -1.299454  0.000000 0.000000 -0.000000
74  -0.135883 0.464546 -1.299454  0.000000 0.000000 -0.000000
time 10
0  0.000006 0.000000 0.000000  -1.570800 -1.391899 -1.570792
1  -4.005264 0.938027 -0.674797  -1.544956 -1.855077 -0.198630
2  6.027522 -0.000325 0.000193  -1.030811 -1.089747 -1.075752
3  11.692110 0.000643 -0.000739  -1.320253 -0.000010 -1.282322
4  11.480649 0.000677 -0.000309  1.268443 -0.532003 0.127873
5  3.859507 -0.142880 -1.192050  -0.544261 -0.274779 -1.892626
6  1.312591 0.000011 0.000007  -0.133832 -0.011337 -0.204249
7  0.729355 0.000054 0.000047  -0.007414 -0.009429 -0.053696
8  3.942141 0.046272 -0.431512  -0.461849 0.154432 -1.296153
9  1.539111 0.000083 0.000006  -0.018635 -0.057102 -0.858939
10  1.196332 0.000145 0.000029  0.004741 0.005181 -0.739358
11  3.883503 -0.047270 0.431382  -0.216104 0.464441 -0.630861
12  1.719572 -0.000026 0.000017  0.035473 -0.116310 -1.317302
13  1.209181 0.000091 0.000013  -0.006344 -0.003685 -0.640195
14  4.085221 -0.082716 1.151041  0.064322 0.614532 -0.019322
15  1.719449 -0.000010 0.000023  -0.000909 -0.026418 -0.653433
16  1.099674 0.000050 0.000007  -0.073262 0.039405 -1.406663
17  0.971585 -1.283499 0.847609  -0.978328 -0.625347 -0.310208
18  1.789820 -0.000005 -0.000018  0.000998 -0.014468 0.721478
19  1.207015 -0.000012 -0.000043  0.001593 -0.000026 -0.111145
20  5.740637 0.000410 -0.000703  -0.086279 0.000003 0.000071
21  11.481138 0.000347 -0.000720  -0.046533 -0.089001 -0.001973
22  6.027524 -0.000330 0.000203  1.737859 -0.453341 1.698248
23  0.000001 11.692099 -0.000008  -0.898589 -0.360576 -0.722720
24  0.000003 0.000009 0.000000  -0.451164 -0.000031 1.570739
25  -0.000001 -0.000011 -0.000001  0.868957 0.000002 1.570712
26  -3.402250 -2.584838 0.376265  1.473120 1.855075 -0.198639
27  6.027503 -0.000262 -0.000231  1.399451 0.500369 -0.304474
28  11.691993 0.000243 0.000858  0.970529 0.000085 -2.018700
29  11.480447 0.000492 0.000740  -1.663677 0.704148 0.159534
30  3.452865 -0.227593 1.051756  0.573015 -0.197780 -1.782130
31  1.312558 0.000022 -0.000001  -0.067589 0.119040 -0.595239
32  0.729344 0.000064 -0.000027  -0.026993 -0.004558 -0.649387
33  3.942045 0.050111 0.430997  0.415260 -0.131585 -1.634045
34  1.539093 0.000010 -0.000001  -0.018706 -0.004890 -0.807183
35  1.196300 0.000073 -0.000005  -0.001372 -0.001809 -0.760336
36  3.883414 -0.050497 -0.431086  0.216949 -0.236898 -1.278357
37  1.719562 -0.000071 -0.000003  -0.029172 0.038034 -1.380057
38  1.209197 0.000035 0.000010  -0.003296 -0.002915 -0.381177
39  3.806437 -0.112147 -1.295330  -0.028837 -0.168049 0.201859
40  1.719413 -0.000101 -0.000035  -0.072912 0.185200 -1.434731
41  1.099674 0.000022 0.000008  -0.025487 0.002372 -0.612417
42  0.444470 -0.201853 -1.632532  1.077226 0.106495 -0.817774
43  1.789779 -0.000008 -0.000042  0.023056 0.021409 -0.019466
44  1.206996 -0.000005 0.000004  0.206835 0.095578 1.319988
45  5.740571 0.000056 0.000724  0.003042 -0.000014 0.000021
46  11.481033 0.000135 0.000897  -0.028926 0.117368 0.027186
47  6.027515 -0.000273 -0.000237  -0.705160 -0.737531 -1.355495
48  0.000000 11.691974 -0.000007  -1.336581 0.784629 0.965461
49  0.000004 -0.000001 -0.000001  -3.040130 -0.000041 1.570856
50  -0.000006 -0.000015 0.000005  2.272644 -0.000030 1.570865
51  -4.934211 -8.862756 -7.498333  3.033580 -0.167242 -1.367945
52  -0.000000 -0.000000 0.000000  0.008153 -0.000259 0.000009
53  0.000001 0.000001 -0.000000  1.565115 0.043565 -0.106862
54  -0.853710 -17.830126 -5.657922  -0.917661 -0.099805 -1.946781
55  0.000001 -0.000000 0.000001  0.000000 -0.000000 -0.000002
56  0.000031 0.000029 0.000002  -1.571901 -0.044449 -0.106509
57  8.838223 -16.138317 -16.427357  1.570796 -0.000000 0.000000
58  -21.089123 6.899941 -12.297750  1.570796 -0.000000 0.000000
59  -0.670483 -0.210714 -4.109488  1.570796 -0.000000 0.000000
60  -0.004311 0.001230 -0.000371  0.006898 -0.005534 -0.284229
61  0.376268 3.148996 -2.887995  1.570796 -0.000000 0.000000
62  0.000000 0.000000 0.000000  -0.078727 -3.136056 0.284226
63  -2.775555 -3.930868 0.043953  1.570796 -0.000000 0.000000
64  -2.803355 -6.549016 -4.125599  1.569579 0.001451 -0.000680
65  0.032837 -0.689314 7.041599  0.000000 0.000000 -0.000000
66  0.022198 0.853171 1.207919  0.000000 0.000000 -0.000000
67  -0.812851 0.400427 5.891668  0.000000 0.000000 -0.000000
68  0.032839 0.575037 28.881243  0.000000 0.000000 -0.000000
69  0.032836 -1.914698 -1.997007  0.000000 0.000000 -0.000000
70  -0.431854 2.407263 7.229147  0.000000 0.000000 -0.000000
71  -2.772916 -7.298520 -4.770442  1.569579 0.001451 -0.000680
72  -0.015875 1.183664 1.861427  0.000000 0.000000 -0.000000
73  0.148731 0.738712 -1.299454  0.000000 0.000000 -0.000000
74  -0.135883 0.464545 -1.299454  0.000000 0.000000 -0.000000
time 11
0  0.000006 0.000000 0.000000  -1.570800 -1.391899 -1.570792
1  -4.005264 0.938027 -0.674797  -1.544956 -1.855077 -0.198630
2  6.027522 -0.000325 0.000193  -1.032718 -1.087440 -1.072984
3  11.692111 0.000643 -0.000740  -1.320253 -0.000010 -1.287802
4  11.480606 0.000671 -0.000333  1.268253 -0.535543 0.128398
5  3.859507 -0.142880 -1.192050  -0.544261 -0.274779 -1.892626
6  1.312591 0.000012 0.000007  -0.133832 -0.011337 -0.204249
7  0.729355 0.000053 0.000049  -0.007414 -0.009429 -0.053696
8  3.942142 0.046273 -0.431512  -0.461849 0.154431 -1.296153
9  1.539111 0.000084 0.000006  -0.018634 -0.057102 -0.858939
10  1.196332 0.000145 0.000027  0.004741 0.005181 -0.739358
11  3.883503 -0.047269 0.431381  -0.216104 0.464441 -0.630861
12  1.719573 -0.000024 0.000017  0.035473 -0.116310 -1.317302
13  1.209179 0.000091 0.000012  -0.006344 -0.003685 -0.640195
14  4.085222 -0.082714 1.151040  0.064322 0.614532 -0.019322
15  1.719449 -0.000012 0.000022  -0.000909 -0.026418 -0.653433
16  1.099675 0.000050 0.000005  -0.073262 0.039405 -1.406663
17  0.971588 -1.283498 0.847609  -0.978328 -0.625347 -0.310208
18  1.789819 -0.000003 -0.000017  0.000998 -0.014468 0.721478
19  1.207016 -0.000012 -0.000043  0.001593 -0.000026 -0.111145
20  5.740635 0.000410 -0.000703  -0.086690 0.000003 0.000070
21  11.481130 0.000346 -0.000724  -0.046458 -0.089714 -0.001979
22  6.027524 -0.000330 0.000203  1.739702 -0.455174 1.698519
23  0.000001 11.692100 -0.000007  -0.901942 -0.363347 -0.725071
24  0.000002 0.000009 -0.000001  -0.451164 -0.000030 1.570739
25  -0.000000 -0.000011 -0.000001  0.868957 0.000002 1.570712
26  -3.402250 -2.584838 0.376265  1.473120 1.855075 -0.198639
27  6.027503 -0.000262 -0.000231  1.398553 0.498388 -0.304816
28  11.691993 0.000243 0.000856  0.970529 0.000086 -2.022218
29  11.480412 0.000478 0.000762  -1.663732 0.705366 0.159862
30  3.452865 -0.227594 1.051755  0.573015 -0.197780 -1.782130
31  1.312559 0.000021 -0.000000  -0.067589 0.119040 -0.595239
32  0.729344 0.000065 -0.000025  -0.026993 -0.004558 -0.649387
33  3.942046 0.050110 0.430998  0.415260 -0.131585 -1.634045
34  1.539093 0.000009 -0.000001  -0.018706 -0.004890 -0.807183
35  1.196300 0.000075 -0.000005  -0.001372 -0.001809 -0.760336
36  3.883413 -0.050497 -0.431086  0.216949 -0.236898 -1.278357
37  1.719562 -0.000073 -0.000002  -0.029172 0.038034 -1.380057
38  1.209196 0.000034 0.000010  -0.003296 -0.002915 -0.381177
39  3.806437 -0.112149 -1.295330  -0.028837 -0.168049 0.201859
40  1.719416 -0.000102 -0.000034  -0.072912 0.185200 -1.434731
41  1.099674 0.000021 0.000008  -0.025487 0.002372 -0.612417
42  0.444470 -0.201854 -1.632533  1.077226 0.106495 -0.817774
43  1.789779 -0.000008 -0.000042  0.023056 0.021409 -0.019466
44  1.206997 -0.000003 0.000002  0.206835 0.095578 1.319988
45  5.740572 0.000056 0.000723  0.003104 -0.000014 0.000021
46  11.481026 0.000132 0.000902  -0.028970 0.117607 0.027258
47  6.027515 -0.000273 -0.000237  -0.703364 -0.739198 -1.356616
48  -0.000001 11.691973 -0.000006  -1.338743 0.786839 0.966204
49  0.000003 0.000001 -0.000002  -3.040130 -0.000041 1.570856
50  -0.000007 -0.000015 0.000004  2.272644 -0.000030 1.570865
51  -4.932092 -8.826331 -7.501364  3.034102 -0.167033 -1.367483
52  0.000001 0.000000 -0.000001  0.008153 -0.000259 0.000009
53  0.000000 -0.000000 -0.000001  1.565115 0.043565 -0.106862
54  -0.847519 -17.792027 -5.661833  -0.917343 -0.099349 -1.946264
55  -0.000002 0.000000 0.000000  0.000000 -0.000000 -0.000002
56  0.000029 0.000030 0.000001  -1.571901 -0.044449 -0.106509
57  8.838223 -16.138317 -16.427357  1.570796 -0.000000 0.000000
58  -21.089123 6.899941 -12.297750  1.570796 -0.000000 0.000000
59  -0.670483 -0.210714 -4.109488  1.570796 -0.000000 0.000000
60  -0.004311 0.001230 -0.000371  0.006898 -0.005534 -0.284229
61  0.376268 3.148996 -2.887995  1.570796 -0.000000 0.000000
62  0.000000 0.000000 0.000000  -0.078727 -3.136056 0.284226
63  -2.775555 -3.930868 0.043953  1.570796 -0.000000 0.000000
64  -2.804066 -6.512465 -4.126931  1.569888 0.000989 -0.000131
65  0.032837 -0.689314 7.041599  0.000000 0.000000 -0.000000
66  0.022198 0.853170 1.207919  0.000000 0.000000 -0.000000
67  -0.812851 0.400428 5.891667  0.000000 0.000000 -0.000000
68  0.032839 0.575037 28.881239  0.000000 0.000000 -0.000000
69  0.032836 -1.914698 -1.997007  0.000000 0.000000 -0.000000
70  -0.431855 2.407262 7.229148  0.000000 0.000000 -0.000000
71  -2.772918 -7.261753 -4.771991  1.569888 0.000989 -0.000131
72  -0.015874 1.183664 1.861428  0.000000 0.000000 -0.000000
73  0.148731 0.738712 -1.299453  0.000000 0.000000 -0.000000
74  -0.135883 0.464545 -1.299453  0.000000 0.000000 -0.000000
time 12
0  0.000006 0.000000 0.000000  -1.570800 -1.391899 -1.570792
1  -4.005264 0.938027 -0.674797  -1.544956 -1.855077 -0.198630
2  6.027522 -0.000325 0.000193  -1.034205 -1.085566 -1.070763
3  11.692111 0.000643 -0.000741  -1.320253 -0.000011 -1.292369
4  11.480575 0.000665 -0.000350  1.268085 -0.538661 0.129027
5  3.859507 -0.142879 -1.192049  -0.544261 -0.274779 -1.892626
6  1.312591 0.000010 0.000007  -0.133832 -0.011337 -0.204249
7  0.729355 0.000053 0.000051  -0.007414 -0.009429 -0.053696
8  3.942142 0.046273 -0.431511  -0.461849 0.154432 -1.296153
9  1.539111 0.000082 0.000006  -0.018634 -0.057102 -0.858939
10  1.196334 0.000145 0.000029  0.004741 0.005181 -0.739358
11  3.883503 -0.047268 0.431382  -0.216104 0.464441 -0.630861
12  1.719573 -0.000027 0.000016  0.035473 -0.116310 -1.317302
13  1.209179 0.000091 0.000012  -0.006344 -0.003685 -0.640195
14  4.085222 -0.082714 1.151041  0.064322 0.614532 -0.019322
15  1.719452 -0.000011 0.000022  -0.000909 -0.026418 -0.653433
16  1.099675 0.000048 0.000005  -0.073262 0.039405 -1.406663
17  0.971587 -1.283497 0.847610  -0.978328 -0.625347 -0.310208
18  1.789819 -0.000003 -0.000017  0.000998 -0.014468 0.721478
19  1.207015 -0.000012 -0.000045  0.001593 -0.000026 -0.111145
20  5.740638 0.000410 -0.000703  -0.087034 0.000003 0.000070
21  11.481125 0.000345 -0.000727  -0.046385 -0.090345 -0.001952
22  6.027524 -0.000330 0.000203  1.741177 -0.456669 1.698773
23  0.000001 11.692099 -0.000007  -0.904733 -0.365663 -0.727024
24  0.000004 0.000009 -0.000001  -0.451164 -0.000030 1.570739
25  -0.000001 -0.000012 -0.000000  0.868957 0.000002 1.570712
26  -3.402250 -2.584838 0.376265  1.473120 1.855075 -0.198639
27  6.027503 -0.000262 -0.000231  1.397915 0.496710 -0.305020
28  11.691992 0.000243 0.000857  0.970529 0.000086 -2.025243
29  11.480383 0.000464 0.000780  -1.663379 0.706418 0.160417
30  3.452865 -0.227594 1.051756  0.573015 -0.197780 -1.782130
31  1.312558 0.000024 0.000000  -0.067589 0.119040 -0.595239
32  0.729345 0.000064 -0.000025  -0.026993 -0.004558 -0.649387
33  3.942045 0.050110 0.430999  0.415260 -0.131585 -1.634045
34  1.539094 0.000010 -0.000001  -0.018706 -0.004890 -0.807183
35  1.196301 0.000074 -0.000004  -0.001372 -0.001809 -0.760336
36  3.883413 -0.050496 -0.431086  0.216949 -0.236898 -1.278357
37  1.719562 -0.000072 -0.000003  -0.029172 0.038034 -1.380057
38  1.209199 0.000035 0.000011  -0.003296 -0.002915 -0.381177
39  3.806437 -0.112147 -1.295331  -0.028837 -0.168049 0.201859
40  1.719413 -0.000101 -0.000036  -0.072912 0.185200 -1.434731
41  1.099674 0.000022 0.000008  -0.025487 0.002372 -0.612417
42  0.444468 -0.201854 -1.632533  1.077226 0.106495 -0.817774
43  1.789779 -0.000007 -0.000043  0.023056 0.021409 -0.019466
44  1.206996 -0.000005 0.000003  0.206835 0.095578 1.319988
45  5.740572 0.000055 0.000724  0.003224 -0.000014 0.000021
46  11.481021 0.000128 0.000905  -0.028947 0.117818 0.027343
47  6.027515 -0.000273 -0.000237  -0.701767 -0.740517 -1.357592
48  -0.000001 11.691974 -0.000007  -1.340604 0.788740 0.966838
49  0.000003 -0.000001 -0.000001  -3.040130 -0.000041 1.570856
50  -0.000007 -0.000016 0.000005  2.272644 -0.000030 1.570865
51  -4.930863 -8.795330 -7.502594  3.034732 -0.166751 -1.367127
52  -0.000001 0.000000 -0.000000  0.008153 -0.000259 0.000009
53  0.000000 0.000000 -0.000001  1.565115 0.043565 -0.106862
54  -0.843181 -17.759886 -5.664410  -0.916975 -0.098773 -1.945840
55  0.000001 -0.000000 0.000000  0.000000 -0.000000 -0.000002
56  0.000031 0.000029 0.000001  -1.571901 -0.044449 -0.106509
57  8.838223 -16.138317 -16.427357  1.570796 -0.000000 0.000000
58  -21.089123 6.899941 -12.297750  1.570796 -0.000000 0.000000
59  -0.670483 -0.210714 -4.109488  1.570796 -0.000000 0.000000
60  -0.004311 0.001230 -0.000371  0.006898 -0.005534 -0.284229
61  0.376268 3.148996 -2.887995  1.570796 -0.000000 0.000000
62  0.000000 0.000000 0.000000  -0.078727 -3.136056 0.284226
63  -2.775555 -3.930868 0.043953  1.570796 -0.000000 0.000000
64  -2.805763 -6.481840 -4.126060  1.570290 0.000437 0.000329
65  0.032837 -0.689314 7.041598  0.000000 -0.000000 -0.000000
66  0.022198 0.853170 1.207919  0.000000 -0.000000 -0.000000
67  -0.812851 0.400428 5.891667  0.000000 -0.000000 -0.000000
68  0.032839 0.575036 28.881241  0.000000 -0.000000 -0.000000
69  0.032836 -1.914698 -1.997007  0.000000 -0.000000 -0.000000
70  -0.431854 2.407262 7.229147  0.000000 -0.000000 -0.000000
71  -2.773915 -7.230855 -4.771403  1.570290 0.000437 0.000329
72  -0.015874 1.183664 1.861428  0.000000 -0.000000 -0.000000
73  0.148731 0.738712 -1.299454  0.000000 -0.000000 -0.000000
74  -0.135883 0.464546 -1.299453  0.000000 -0.000000 -0.000000
time 13
0  0.000006 0.000000 0.000000  -1.570800 -1.391899 -1.570792
1  -4.005264 0.938027 -0.674797  -1.544956 -1.855077 -0.198630
2  6.027522 -0.000325 0.000193  -1.034711 -1.084793 -1.069880
3  11.692110 0.000643 -0.000739  -1.320253 -0.000011 -1.294284
4  11.480558 0.000666 -0.000358  1.267973 -0.540171 0.129529
5  3.859507 -0.142879 -1.192049  -0.544261 -0.274779 -1.892626
6  1.312591 0.000013 0.000010  -0.133832 -0.011337 -0.204249
7  0.729356 0.000054 0.000050  -0.007414 -0.009429 -0.053696
8  3.942142 0.046273 -0.431512  -0.461849 0.154431 -1.296153
9  1.539111 0.000084 0.000006  -0.018634 -0.057102 -0.858939
10  1.196334 0.000145 0.000027  0.004741 0.005181 -0.739358
11  3.883504 -0.047269 0.431381  -0.216104 0.464441 -0.630861
12  1.719574 -0.000026 0.000016  0.035473 -0.116310 -1.317302
13  1.209180 0.000091 0.000013  -0.006344 -0.003685 -0.640195
14  4.085222 -0.082715 1.151040  0.064322 0.614532 -0.019322
15  1.719449 -0.000010 0.000022  -0.000909 -0.026418 -0.653433
16  1.099675 0.000048 0.000005  -0.073262 0.039405 -1.406663
17  0.971588 -1.283498 0.847609  -0.978328 -0.625347 -0.310208
18  1.789817 -0.000002 -0.000018  0.000998 -0.014468 0.721478
19  1.207015 -0.000012 -0.000044  0.001593 -0.000026 -0.111145
20  5.740637 0.000411 -0.000702  -0.087174 0.000003 0.000070
21  11.481119 0.000346 -0.000729  -0.046349 -0.090655 -0.001902
22  6.027524 -0.000330 0.000203  1.741736 -0.457303 1.698962
23  0.000003 11.692100 -0.000008  -0.905904 -0.366636 -0.727842
24  0.000002 0.000008 -0.000001  -0.451164 -0.000031 1.570739
25  -0.000000 -0.000011 -0.000001  0.868957 0.000002 1.570712
26  -3.402250 -2.584838 0.376265  1.473120 1.855075 -0.198639
27  6.027503 -0.000262 -0.000231  1.397725 0.495955 -0.305047
28  11.691992 0.000244 0.000856  0.970529 0.000086 -2.026612
29  11.480369 0.000460 0.000790  -1.662724 0.706912 0.160986
30  3.452864 -0.227595 1.051756  0.573015 -0.197780 -1.782130
31  1.312558 0.000022 -0.000000  -0.067589 0.119040 -0.595239
32  0.729345 0.000065 -0.000027  -0.026993 -0.004558 -0.649387
33  3.942044 0.050110 0.430998  0.415260 -0.131585 -1.634045
34  1.539093 0.000009 -0.000002  -0.018706 -0.004890 -0.807183
35  1.196301 0.000075 -0.000005  -0.001372 -0.001809 -0.760336
36  3.883412 -0.050497 -0.431087  0.216949 -0.236898 -1.278357
37  1.719563 -0.000073 -0.000002  -0.029172 0.038034 -1.380057
38  1.209197 0.000035 0.000010  -0.003296 -0.002915 -0.381177
39  3.806438 -0.112148 -1.295331  -0.028837 -0.168049 0.201859
40  1.719413 -0.000101 -0.000035  -0.072912 0.185200 -1.434731
41  1.099674 0.000021 0.000008  -0.025487 0.002372 -0.612417
42  0.444468 -0.201855 -1.632533  1.077226 0.106495 -0.817774
43  1.789779 -0.000008 -0.000042  0.023056 0.021409 -0.019466
44  1.206996 -0.000004 0.000003  0.206835 0.095578 1.319988
45  5.740572 0.000054 0.000724  0.003357 -0.000014 0.000021
46  11.481017 0.000127 0.000907  -0.028863 0.117922 0.027408
47  6.027515 -0.000273 -0.000237  -0.700991 -0.741036 -1.358052
48  0.000000 11.691974 -0.000007  -1.341446 0.789601 0.967123
49  0.000004 -0.000001 -0.000000  -3.040130 -0.000041 1.570856
50  -0.000006 -0.000015 0.000005  2.272644 -0.000030 1.570865
51  -4.930882 -8.781541 -7.502256  3.035273 -0.166451 -1.367024
52  0.000000 -0.000000 0.000000  0.008153 -0.000259 0.000009
53  0.000000 -0.000000 -0.000001  1.565115 0.043565 -0.106862
54  -0.842319 -17.746046 -5.665782  -0.916690 -0.098230 -1.945676
55  -0.000000 0.000001 -0.000000  0.000000 -0.000000 -0.000002
56  0.000028 0.000030 0.000000  -1.571901 -0.044449 -0.106509
57  8.838223 -16.138317 -16.427357  1.570796 -0.000000 0.000000
58  -21.089123 6.899941 -12.297750  1.570796 -0.000000 0.000000
59  -0.670483 -0.210714 -4.109488  1.570796 -0.000000 0.000000
60  -0.004311 0.001230 -0.000371  0.006898 -0.005534 -0.284229
61  0.376268 3.148996 -2.887995  1.570796 -0.000000 0.000000
62  0.000000 0.000000 0.000000  -0.078727 -3.136056 0.284226
63  -2.775555 -3.930868 0.043953  1.570796 -0.000000 0.000000
64  -2.807788 -6.468997 -4.123811  1.570691 -0.000025 0.000522
65  0.032837 -0.689314 7.041599  0.000000 0.000000 0.000000
66  0.022198 0.853171 1.207920  0.000000 0.000000 0.000000
67  -0.812851 0.400427 5.891667  0.000000 0.000000 0.000000
68  0.032839 0.575037 28.881245  0.000000 0.000000 0.000000
69  0.032836 -1.914697 -1.997006  0.000000 0.000000 0.000000
70  -0.431854 2.407263 7.229149  0.000000 0.000000 0.000000
71  -2.775496 -7.217747 -4.769440  1.570691 -0.000025 0.000522
72  -0.015875 1.183664 1.861428  0.000000 0.000000 0.000000
73  0.148731 0.738713 -1.299453  0.000000 0.000000 0.000000
74  -0.135883 0.464545 -1.299453  0.000000 0.000000 0.000000
time 14
0  0.000006 0.000000 0.000000  -1.570800 -1.391899 -1.570792
1  -4.005264 0.938027 -0.674797  -1.544956 -1.855077 -0.198630
2  6.027522 -0.000325 0.000193  -1.034083 -1.085491 -1.070725
3  11.692112 0.000643 -0.000740  -1.320253 -0.000011 -1.292505
4  11.480569 0.000667 -0.000352  1.268003 -0.539360 0.129699
5  3.859507 -0.142880 -1.192050  -0.544261 -0.274779 -1.892626
6  1.312590 0.000011 0.000009  -0.133832 -0.011337 -0.204249
7  0.729355 0.000053 0.000048  -0.007414 -0.009429 -0.053696
8  3.942143 0.046273 -0.431512  -0.461849 0.154431 -1.296153
9  1.539111 0.000085 0.000009  -0.018634 -0.057102 -0.858939
10  1.196333 0.000146 0.000028  0.004741 0.005181 -0.739358
11  3.883505 -0.047270 0.431382  -0.216104 0.464441 -0.630861
12  1.719575 -0.000024 0.000016  0.035473 -0.116310 -1.317302
13  1.209178 0.000091 0.000012  -0.006344 -0.003685 -0.640195
14  4.085222 -0.082716 1.151041  0.064322 0.614532 -0.019322
15  1.719448 -0.000012 0.000021  -0.000909 -0.026418 -0.653433
16  1.099675 0.000049 0.000008  -0.073262 0.039405 -1.406663
17  0.971589 -1.283499 0.847609  -0.978328 -0.625347 -0.310208
18  1.789820 -0.000003 -0.000018  0.000998 -0.014468 0.721478
19  1.207016 -0.000012 -0.000044  0.001593 -0.000026 -0.111145
20  5.740636 0.000411 -0.000704  -0.087028 0.000003 0.000071
21  11.481121 0.000346 -0.000729  -0.046358 -0.090498 -0.001845
22  6.027524 -0.000330 0.000203  1.741149 -0.456760 1.698933
23  0.000002 11.692099 -0.000007  -0.904816 -0.365732 -0.727082
24  0.000003 0.000008 0.000000  -0.451164 -0.000031 1.570739
25  -0.000000 -0.000012 -0.000001  0.868957 0.000002 1.570712
26  -3.402250 -2.584838 0.376265  1.473120 1.855075 -0.198639
27  6.027503 -0.000262 -0.000231  1.398112 0.496589 -0.304871
28  11.691991 0.000243 0.000856  0.970529 0.000086 -2.025513
29  11.480381 0.000464 0.000782  -1.661887 0.706451 0.161422
30  3.452863 -0.227594 1.051757  0.573015 -0.197780 -1.782130
31  1.312557 0.000024 -0.000001  -0.067589 0.119040 -0.595239
32  0.729343 0.000064 -0.000028  -0.026993 -0.004558 -0.649387
33  3.942043 0.050110 0.430998  0.415260 -0.131585 -1.634045
34  1.539093 0.000009 -0.000001  -0.018706 -0.004890 -0.807183
35  1.196299 0.000074 -0.000005  -0.001372 -0.001809 -0.760336
36  3.883411 -0.050497 -0.431086  0.216949 -0.236898 -1.278357
37  1.719562 -0.000073 -0.000003  -0.029172 0.038034 -1.380057
38  1.209198 0.000035 0.000010  -0.003297 -0.002915 -0.381177
39  3.806435 -0.112148 -1.295330  -0.028837 -0.168049 0.201859
40  1.719414 -0.000102 -0.000035  -0.072912 0.185200 -1.434731
41  1.099674 0.000022 0.000008  -0.025487 0.002372 -0.612417
42  0.444468 -0.201855 -1.632533  1.077226 0.106495 -0.817774
43  1.789780 -0.000009 -0.000042  0.023056 0.021409 -0.019466
44  1.206996 -0.000004 0.000003  0.206835 0.095578 1.319988
45  5.740573 0.000056 0.000724  0.003462 -0.000014 0.000021
46  11.481020 0.000129 0.000906  -0.028725 0.117839 0.027432
47  6.027515 -0.000273 -0.000237  -0.701509 -0.740426 -1.357711
48  -0.000001 11.691975 -0.000006  -1.340769 0.788910 0.966894
49  0.000005 0.000000 0.000000  -3.040130 -0.000041 1.570856
50  -0.000007 -0.000015 0.000005  2.272644 -0.000030 1.570865
51  -4.932050 -8.793208 -7.500306  3.035529 -0.166188 -1.367121
52  -0.000001 -0.000001 -0.000001  0.008153 -0.000259 0.000009
53  -0.000001 0.000000 -0.000000  1.565115 0.043565 -0.106862
54  -0.844330 -17.758503 -5.665810  -0.916623 -0.097872 -1.945737
55  -0.000000 -0.000000 -0.000000  0.000000 -0.000000 -0.000002
56  0.000030 0.000029 0.000001  -1.571901 -0.044449 -0.106509
57  8.838223 -16.138317 -16.427357  1.570796 -0.000000 0.000000
58  -21.089123 6.899941 -12.297750  1.570796 -0.000000 0.000000
59  -0.670483 -0.210714 -4.109488  1.570796 -0.000000 0.000000
60  -0.004311 0.001230 -0.000371  0.006898 -0.005534 -0.284229
61  0.376268 3.148996 -2.887995  1.570796 -0.000000 0.000000
62  0.000000 0.000000 0.000000  -0.078727 -3.136056 0.284226
63  -2.775555 -3.930868 0.043953  1.570796 -0.000000 0.000000
64  -2.809485 -6.481824 -4.120736  1.571000 -0.000219 0.000468
65  0.032837 -0.689314 7.041600  0.000000 0.000000 0.000000
66  0.022198 0.853170 1.207920  0.000000 0.000000 0.000000
67  -0.812851 0.400427 5.891667  0.000000 0.000000 0.000000
68  0.032839 0.575036 28.881243  0.000000 0.000000 0.000000
69  0.032836 -1.914698 -1.997005  0.000000 0.000000 0.000000
70  -0.431854 2.407262 7.229149  0.000000 0.000000 0.000000
71  -2.777110 -7.230376 -4.766590  1.571000 -0.000219 0.000468
72  -0.015875 1.183664 1.861428  0.000000 0.000000 0.000000
73  0.148731 0.738713 -1.299453  0.000000 0.000000 0.000000
74  -0.135883 0.464545 -1.299453  0.000000 0.000000 0.000000
time 15
0  0.000006 0.000000 0.000000  -1.570800 -1.391899 -1.570792
1  -4.005264 0.938027 -0.674797  -1.544956 -1.855077 -0.198630
2  6.027522 -0.000325 0.000193  -1.032891 -1.087173 -1.072677
3  11.692111 0.000643 -0.000739  -1.320253 -0.000010 -1.288239
4  11.480602 0.000670 -0.000335  1.268268 -0.536935 0.129586
5  3.859508 -0.142879 -1.192049  -0.544261 -0.274779 -1.892626
6  1.312589 0.000013 0.000009  -0.133832 -0.011337 -0.204249
7  0.729356 0.000054 0.000047  -0.007414 -0.009429 -0.053696
8  3.942141 0.046273 -0.431512  -0.461849 0.154432 -1.296153
9  1.539111 0.000081 0.000006  -0.018634 -0.057102 -0.858939
10  1.196333 0.000144 0.000029  0.004741 0.005181 -0.739358
11  3.883502 -0.047269 0.431381  -0.216104 0.464441 -0.630861
12  1.719574 -0.000026 0.000015  0.035473 -0.116310 -1.317302
13  1.209178 0.000092 0.000012  -0.006344 -0.003685 -0.640195
14  4.085221 -0.082715 1.151041  0.064322 0.614532 -0.019322
15  1.719449 -0.000013 0.000022  -0.000909 -0.026418 -0.653433
16  1.099674 0.000050 0.000007  -0.073262 0.039405 -1.406663
17  0.971588 -1.283498 0.847610  -0.978328 -0.625347 -0.310208
18  1.789820 -0.000002 -0.000018  0.000998 -0.014468 0.721478
19  1.207015 -0.000011 -0.000044  0.001593 -0.000026 -0.111145
20  5.740636 0.000410 -0.000703  -0.086668 0.000003 0.000071
21  11.481128 0.000346 -0.000725  -0.046376 -0.090013 -0.001785
22  6.027524 -0.000330 0.000203  1.739893 -0.455394 1.698588
23  0.000001 11.692100 -0.000007  -0.902209 -0.363569 -0.725258
24  0.000004 0.000008 -0.000001  -0.451164 -0.000030 1.570739
25  -0.000001 -0.000011 -0.000000  0.868957 0.000002 1.570712
26  -3.402250 -2.584838 0.376265  1.473120 1.855075 -0.198639
27  6.027503 -0.000262 -0.000231  1.398871 0.498277 -0.304586
28  11.691992 0.000245 0.000857  0.970529 0.000086 -2.022643
29  11.480406 0.000476 0.000766  -1.661085 0.705256 0.161622
30  3.452863 -0.227595 1.051756  0.573015 -0.197780 -1.782130
31  1.312558 0.000023 0.000000  -0.067589 0.119040 -0.595239
32  0.729344 0.000064 -0.000026  -0.026993 -0.004558 -0.649387
33  3.942045 0.050111 0.430999  0.415260 -0.131585 -1.634045
34  1.539093 0.000009 -0.000002  -0.018706 -0.004890 -0.807183
35  1.196299 0.000075 -0.000004  -0.001372 -0.001809 -0.760336
36  3.883413 -0.050497 -0.431086  0.216949 -0.236898 -1.278357
37  1.719562 -0.000072 -0.000003  -0.029172 0.038034 -1.380057
38  1.209197 0.000034 0.000011  -0.003297 -0.002915 -0.381177
39  3.806437 -0.112148 -1.295330  -0.028837 -0.168049 0.201859
40  1.719415 -0.000102 -0.000036  -0.072912 0.185200 -1.434731
41  1.099674 0.000022 0.000008  -0.025487 0.002372 -0.612417
42  0.444468 -0.201854 -1.632533  1.077226 0.106495 -0.817774
43  1.789780 -0.000009 -0.000043  0.023056 0.021409 -0.019466
44  1.206995 -0.000005 0.000003  0.206835 0.095578 1.319988
45  5.740571 0.000055 0.000724  0.003523 -0.000014 0.000021
46  11.481025 0.000131 0.000903  -0.028571 0.117612 0.027410
47  6.027515 -0.000273 -0.000237  -0.703047 -0.739011 -1.356752
48  -0.000001 11.691975 -0.000005  -1.339004 0.787106 0.966293
49  0.000003 -0.000001 -0.000001  -3.040130 -0.000041 1.570856
50  -0.000007 -0.000016 0.000005  2.272644 -0.000030 1.570865
51  -4.933177 -8.823102 -7.497169  3.035520 -0.166060 -1.367249
52  -0.000001 0.000000 -0.000001  0.008153 -0.000259 0.000009
53  0.000000 -0.000000 0.000000  1.565115 0.043565 -0.106862
54  -0.846555 -17.789154 -5.663919  -0.916701 -0.097769 -1.945858
55  0.000000 0.000000 -0.000000  0.000000 -0.000000 -0.000002
56  0.000031 0.000029 0.000001  -1.571901 -0.044449 -0.106509
57  8.838223 -16.138317 -16.427357  1.570796 -0.000000 0.000000
58  -21.089123 6.899941 -12.297750  1.570796 -0.000000 0.000000
59  -0.670483 -0.210714 -4.109488  1.570796 -0.000000 0.000000
60  -0.004311 0.001230 -0.000371  0.006898 -0.005534 -0.284229
61  0.376268 3.148996 -2.887995  1.570796 -0.000000 0.000000
62  0.000000 0.000000 0.000000  -0.078727 -3.136056 0.284226
63  -2.775555 -3.930868 0.043953  1.570796 -0.000000 0.000000
64  -2.810197 -6.512411 -4.117386  1.571123 -0.000184 0.000338
65  0.032837 -0.689314 7.041600  0.000000 0.000000 0.000000
66  0.022198 0.853171 1.207920  0.000000 0.000000 0.000000
67  -0.812851 0.400427 5.891669  0.000000 0.000000 0.000000
68  0.032839 0.575036 28.881237  0.000000 0.000000 0.000000
69  0.032836 -1.914697 -1.997006  0.000000 0.000000 0.000000
70  -0.431854 2.407262 7.229149  0.000000 0.000000 0.000000
71  -2.777940 -7.260887 -4.763333  1.571123 -0.000184 0.000338
72  -0.015875 1.183664 1.861428  0.000000 0.000000 0.000000
73  0.148731 0.738713 -1.299453  0.000000 0.000000 0.000000
74  -0.135883 0.464546 -1.299453  0.000000 0.000000 0.000000
time 16
0  0.000006 0.000000 0.000000  -1.570800 -1.391899 -1.570792
1  -4.005264 0.938027 -0.674797  -1.544956 -1.855077 -0.198630
2  6.027522 -0.000325 0.000193  -1.031616 -1.089218 -1.075009
3  11.692109 0.000642 -0.000739  -1.320253 -0.000010 -1.283141
4  11.480641 0.000677 -0.000311  1.268773 -0.533892 0.129377
5  3.859510 -0.142879 -1.192049  -0.544261 -0.274779 -1.892626
6  1.312592 0.000012 0.000007  -0.133832 -0.011337 -0.204249
7  0.729355 0.000054 0.000049  -0.007414 -0.009429 -0.053696
8  3.942145 0.046273 -0.431512  -0.461849 0.154432 -1.296153
9  1.539110 0.000084 0.000005  -0.018634 -0.057102 -0.858939
10  1.196333 0.000145 0.000028  0.004741 0.005181 -0.739358
11  3.883504 -0.047269 0.431381  -0.216104 0.464441 -0.630861
12  1.719573 -0.000027 0.000015  0.035473 -0.116310 -1.317302
13  1.209178 0.000090 0.000012  -0.006344 -0.003685 -0.640195
14  4.085224 -0.082715 1.151041  0.064322 0.614532 -0.019322
15  1.719450 -0.000012 0.000023  -0.000909 -0.026418 -0.653433
16  1.099675 0.000048 0.000005  -0.073262 0.039405 -1.406663
17  0.971588 -1.283499 0.847609  -0.978328 -0.625347 -0.310208
18  1.789818 -0.000002 -0.000018  0.000998 -0.014468 0.721478
19  1.207015 -0.000012 -0.000042  0.001593 -0.000026 -0.111145
20  5.740637 0.000410 -0.000702  -0.086208 0.000003 0.000070
21  11.481138 0.000347 -0.000720  -0.046368 -0.089401 -0.001714
22  6.027524 -0.000330 0.000203  1.738457 -0.453701 1.698015
23  0.000002 11.692099 -0.000007  -0.899090 -0.360989 -0.723072
24  0.000003 0.000008 -0.000002  -0.451164 -0.000030 1.570739
25  -0.000001 -0.000011 -0.000001  0.868957 0.000002 1.570712
26  -3.402250 -2.584838 0.376265  1.473120 1.855075 -0.198639
27  6.027503 -0.000262 -0.000231  1.399701 0.500407 -0.304310
28  11.691992 0.000244 0.000856  0.970529 0.000086 -2.019122
29  11.480446 0.000490 0.000744  -1.660460 0.703862 0.161526
30  3.452864 -0.227595 1.051755  0.573015 -0.197780 -1.782130
31  1.312559 0.000024 0.000001  -0.067589 0.119040 -0.595239
32  0.729344 0.000065 -0.000025  -0.026993 -0.004558 -0.649387
33  3.942045 0.050110 0.430997  0.415260 -0.131585 -1.634045
34  1.539094 0.000008 -0.000001  -0.018706 -0.004890 -0.807183
35  1.196301 0.000075 -0.000005  -0.001372 -0.001809 -0.760336
36  3.883412 -0.050497 -0.431087  0.216949 -0.236898 -1.278357
37  1.719562 -0.000073 -0.000003  -0.029172 0.038034 -1.380056
38  1.209197 0.000035 0.000010  -0.003296 -0.002915 -0.381177
39  3.806437 -0.112148 -1.295331  -0.028837 -0.168049 0.201859
40  1.719413 -0.000101 -0.000034  -0.072912 0.185200 -1.434731
41  1.099674 0.000021 0.000008  -0.025487 0.002372 -0.612417
42  0.444468 -0.201855 -1.632534  1.077226 0.106495 -0.817774
43  1.789779 -0.000008 -0.000042  0.023056 0.021409 -0.019466
44  1.206996 -0.000003 0.000004  0.206835 0.095578 1.319988
45  5.740574 0.000057 0.000724  0.003555 -0.000014 0.000021
46  11.481035 0.000135 0.000898  -0.028431 0.117346 0.027344
47  6.027515 -0.000273 -0.000237  -0.705058 -0.737322 -1.355520
48  -0.000001 11.691975 -0.000006  -1.336841 0.784895 0.965551
49  0.000004 -0.000001 -0.000001  -3.040130 -0.000041 1.570856
50  -0.000006 -0.000015 0.000005  2.272644 -0.000030 1.570865
51  -4.933321 -8.859568 -7.493739  3.035428 -0.166128 -1.367388
52  -0.000001 0.000001 0.000000  0.008153 -0.000259 0.000009
53  -0.000000 -0.000001 -0.000001  1.565115 0.043565 -0.106862
54  -0.847947 -17.826094 -5.660036  -0.916740 -0.097876 -1.946009
55  -0.000002 0.000000 -0.000000  0.000000 -0.000000 -0.000002
56  0.000028 0.000029 0.000000  -1.571902 -0.044449 -0.106509
57  8.838223 -16.138317 -16.427357  1.570796 -0.000000 0.000000
58  -21.089123 6.899941 -12.297750  1.570796 -0.000000 0.000000
59  -0.670483 -0.210714 -4.109488  1.570796 -0.000000 0.000000
60  -0.004311 0.001230 -0.000371  0.006898 -0.005534 -0.284229
61  0.376268 3.148996 -2.887995  1.570796 -0.000000 0.000000
62  0.000000 0.000000 0.000000  -0.078727 -3.136056 0.284226
63  -2.775555 -3.930868 0.043953  1.570796 -0.000000 0.000000
64  -2.809730 -6.548917 -4.114311  1.571039 -0.000109 0.000184
65  0.032837 -0.689314 7.041599  -0.000000 0.000000 0.000000
66  0.022198 0.853170 1.207919  -0.000000 0.000000 0.000000
67  -0.812851 0.400427 5.891667  -0.000000 0.000000 0.000000
68  0.032839 0.575036 28.881239  -0.000000 0.000000 0.000000
69  0.032836 -1.914698 -1.997006  -0.000000 0.000000 0.000000
70  -0.431854 2.407262 7.229148  -0.000000 0.000000 0.000000
71  -2.777637 -7.297453 -4.760198  1.571039 -0.000109 0.000184
72  -0.015874 1.183664 1.861427  -0.000000 0.000000 0.000000
73  0.148731 0.738712 -1.299453  -0.000000 0.000000 0.000000
74  -0.135883 0.464545 -1.299453  -0.000000 0.000000 0.000000
time 17
0  0.000006 0.000000 0.000000  -1.570800 -1.391899 -1.570792
1  -4.005264 0.938027 -0.674797  -1.544956 -1.855077 -0.198630
2  6.027522 -0.000325 0.000193  -1.030591 -1.090950 -1.076976
3  11.692111 0.000644 -0.000739  -1.320253 -0.000010 -1.278857
4  11.480675 0.000682 -0.000296  1.269268 -0.531283 0.129173
5  3.859509 -0.142879 -1.192049  -0.544261 -0.274779 -1.892626
6  1.312590 0.000011 0.000008  -0.133832 -0.011337 -0.204249
7  0.729355 0.000053 0.000049  -0.007414 -0.009429 -0.053696
8  3.942144 0.046273 -0.431511  -0.461849 0.154432 -1.296153
9  1.539110 0.000086 0.000007  -0.018635 -0.057102 -0.858939
10  1.196333 0.000146 0.000028  0.004741 0.005181 -0.739358
11  3.883505 -0.047269 0.431382  -0.216104 0.464441 -0.630861
12  1.719574 -0.000026 0.000016  0.035473 -0.116310 -1.317302
13  1.209179 0.000090 0.000013  -0.006344 -0.003685 -0.640195
14  4.085222 -0.082716 1.151041  0.064322 0.614532 -0.019322
15  1.719448 -0.000012 0.000020  -0.000909 -0.026418 -0.653433
16  1.099675 0.000047 0.000008  -0.073262 0.039405 -1.406663
17  0.971586 -1.283499 0.847609  -0.978328 -0.625347 -0.310208
18  1.789819 -0.000003 -0.000018  0.000998 -0.014468 0.721478
19  1.207016 -0.000011 -0.000044  0.001593 -0.000026 -0.111145
20  5.740636 0.000411 -0.000702  -0.085812 0.000003 0.000071
21  11.481144 0.000349 -0.000717  -0.046350 -0.088875 -0.001655
22  6.027524 -0.000330 0.000203  1.737273 -0.452255 1.697476
23  0.000003 11.692099 -0.000007  -0.896467 -0.358827 -0.721230
24  0.000003 0.000008 -0.000002  -0.451164 -0.000031 1.570739
25  -0.000000 -0.000012 -0.000001  0.868957 0.000002 1.570712
26  -3.402250 -2.584838 0.376265  1.473120 1.855075 -0.198639
27  6.027503 -0.000262 -0.000231  1.400368 0.502234 -0.304101
28  11.691990 0.000243 0.000856  0.970529 0.000085 -2.016136
29  11.480474 0.000503 0.000728  -1.660059 0.702705 0.161320
30  3.452864 -0.227594 1.051756  0.573015 -0.197780 -1.782130
31  1.312558 0.000023 0.000001  -0.067589 0.119040 -0.595239
32  0.729346 0.000063 -0.000026  -0.026993 -0.004558 -0.649387
33  3.942045 0.050110 0.430998  0.415260 -0.131585 -1.634045
34  1.539093 0.000009 -0.000002  -0.018706 -0.004890 -0.807183
35  1.196299 0.000074 -0.000005  -0.001372 -0.001809 -0.760336
36  3.883411 -0.050497 -0.431086  0.216949 -0.236898 -1.278357
37  1.719562 -0.000072 -0.000002  -0.029172 0.038034 -1.380057
38  1.209197 0.000035 0.000011  -0.003296 -0.002915 -0.381177
39  3.806436 -0.112148 -1.295331  -0.028837 -0.168049 0.201859
40  1.719415 -0.000102 -0.000035  -0.072912 0.185200 -1.434731
41  1.099674 0.000022 0.000008  -0.025487 0.002372 -0.612417
42  0.444468 -0.201855 -1.632532  1.077226 0.106495 -0.817774
43  1.789779 -0.000007 -0.000042  0.023056 0.021409 -0.019466
44  1.206997 -0.000004 0.000003  0.206835 0.095578 1.319988
45  5.740572 0.000055 0.000724  0.003567 -0.000014 0.000021
46  11.481039 0.000136 0.000896  -0.028332 0.117124 0.027272
47  6.027515 -0.000273 -0.000237  -0.706805 -0.735906 -1.354457
48  -0.000001 11.691974 -0.000005  -1.335008 0.783020 0.964917
49  0.000004 -0.000001 0.000001  -3.040130 -0.000041 1.570856
50  -0.000007 -0.000015 0.000005  2.272644 -0.000030 1.570865
51  -4.933005 -8.890409 -7.490967  3.035321 -0.166267 -1.367500
52  0.000000 0.000000 -0.000001  0.008153 -0.000259 0.000009
53  -0.000000 0.000000 0.000000  1.565115 0.043565 -0.106862
54  -0.848655 -17.857178 -5.656160  -0.916752 -0.098050 -1.946138
55  0.000001 -0.000000 -0.000000  0.000000 -0.000000 -0.000002
56  0.000031 0.000029 0.000001  -1.571901 -0.044449 -0.106509
57  8.838223 -16.138317 -16.427357  1.570796 -0.000000 0.000000
58  -21.089123 6.899941 -12.297750  1.570796 -0.000000 0.000000
59  -0.670483 -0.210714 -4.109488  1.570796 -0.000000 0.000000
60  -0.004311 0.001230 -0.000371  0.006898 -0.005534 -0.284229
61  0.376268 3.148996 -2.887995  1.570796 -0.000000 0.000000
62  0.000000 0.000000 0.000000  -0.078727 -3.136056 0.284226
63  -2.775555 -3.930868 0.043953  1.570796 -0.000000 0.000000
64  -2.808861 -6.579504 -4.112063  1.570881 -0.000034 0.000054
65  0.032837 -0.689314 7.041600  0.000000 -0.000000 0.000000
66  0.022198 0.853170 1.207919  0.000000 -0.000000 0.000000
67  -0.812851 0.400428 5.891667  0.000000 -0.000000 0.000000
68  0.032839 0.575037 28.881243  0.000000 -0.000000 0.000000
69  0.032836 -1.914698 -1.997006  0.000000 -0.000000 0.000000
70  -0.431854 2.407263 7.229148  0.000000 -0.000000 0.000000
71  -2.776914 -7.328146 -4.757834  1.570881 -0.000034 0.000054
72  -0.015875 1.183664 1.861428  0.000000 -0.000000 0.000000
73  0.148731 0.738712 -1.299454  0.000000 -0.000000 0.000000
74  -0.135883 0.464545 -1.299453  0.000000 -0.000000 0.000000
time 18
0  0.000006 0.000000 0.000000  -1.570800 -1.391899 -1.570792
1  -4.005264 0.938027 -0.674797  -1.544956 -1.855077 -0.198630
2  6.027522 -0.000325 0.000193  -1.030169 -1.091680 -1.077804
3  11.692109 0.000643 -0.000740  -1.320253 -0.000010 -1.277057
4  11.480688 0.000683 -0.000288  1.269491 -0.530176 0.129081
5  3.859510 -0.142879 -1.192049  -0.544261 -0.274779 -1.892626
6  1.312590 0.000012 0.000010  -0.133832 -0.011337 -0.204249
7  0.729354 0.000054 0.000050  -0.007414 -0.009429 -0.053696
8  3.942143 0.046273 -0.431512  -0.461849 0.154432 -1.296153
9  1.539110 0.000084 0.000007  -0.018634 -0.057102 -0.858939
10  1.196335 0.000144 0.000027  0.004741 0.005181 -0.739358
11  3.883504 -0.047269 0.431382  -0.216104 0.464441 -0.630861
12  1.719573 -0.000026 0.000017  0.035473 -0.116310 -1.317302
13  1.209179 0.000092 0.000013  -0.006344 -0.003685 -0.640195
14  4.085221 -0.082716 1.151040  0.064322 0.614532 -0.019322
15  1.719449 -0.000011 0.000022  -0.000909 -0.026418 -0.653433
16  1.099675 0.000049 0.000003  -0.073262 0.039405 -1.406663
17  0.971589 -1.283499 0.847610  -0.978328 -0.625347 -0.310208
18  1.789820 -0.000004 -0.000018  0.000998 -0.014468 0.721478
19  1.207015 -0.000012 -0.000043  0.001593 -0.000026 -0.111145
20  5.740638 0.000409 -0.000703  -0.085643 0.000003 0.000071
21  11.481146 0.000349 -0.000716  -0.046340 -0.088651 -0.001630
22  6.027524 -0.000330 0.000203  1.736780 -0.451643 1.697237
23  0.000003 11.692100 -0.000007  -0.895365 -0.357920 -0.720455
24  0.000002 0.000008 -0.000002  -0.451164 -0.000031 1.570739
25  -0.000000 -0.000011 -0.000001  0.868957 0.000002 1.570712
26  -3.402250 -2.584838 0.376265  1.473120 1.855075 -0.198639
27  6.027503 -0.000262 -0.000231  1.400642 0.503009 -0.304018
28  11.691990 0.000243 0.000856  0.970529 0.000085 -2.014875
29  11.480486 0.000509 0.000719  -1.659918 0.702222 0.161205
30  3.452863 -0.227594 1.051755  0.573015 -0.197780 -1.782130
31  1.312558 0.000022 0.000000  -0.067589 0.119040 -0.595239
32  0.729344 0.000064 -0.000027  -0.026993 -0.004558 -0.649387
33  3.942045 0.050110 0.430998  0.415260 -0.131585 -1.634045
34  1.539093 0.000008 -0.000002  -0.018706 -0.004890 -0.807183
35  1.196298 0.000075 -0.000005  -0.001372 -0.001809 -0.760336
36  3.883412 -0.050497 -0.431086  0.216949 -0.236898 -1.278357
37  1.719562 -0.000073 -0.000003  -0.029172 0.038034 -1.380057
38  1.209199 0.000035 0.000010  -0.003296 -0.002915 -0.381177
39  3.806437 -0.112148 -1.295330  -0.028837 -0.168049 0.201859
40  1.719414 -0.000101 -0.000035  -0.072912 0.185200 -1.434731
41  1.099674 0.000021 0.000008  -0.025487 0.002372 -0.612417
42  0.444469 -0.201854 -1.632533  1.077226 0.106495 -0.817774
43  1.789779 -0.000008 -0.000041  0.023056 0.021409 -0.019466
44  1.206996 -0.000002 0.000003  0.206835 0.095578 1.319988
45  5.740573 0.000057 0.000724  0.003569 -0.000014 0.000021
46  11.481043 0.000139 0.000893  -0.028293 0.117031 0.027239
47  6.027515 -0.000273 -0.000237  -0.707551 -0.735313 -1.354005
48  -0.000001 11.691973 -0.000006  -1.334234 0.782229 0.964649
49  0.000003 -0.000002 -0.000001  -3.040130 -0.000041 1.570856
50  -0.000007 -0.000015 0.000005  2.272644 -0.000030 1.570865
51  -4.932778 -8.903408 -7.489826  3.035270 -0.166343 -1.367546
52  -0.000001 0.000000 -0.000001  0.008153 -0.000259 0.000009
53  0.000000 0.000000 -0.000000  1.565115 0.043565 -0.106862
54  -0.848853 -17.870241 -5.654398  -0.916752 -0.098141 -1.946192
55  -0.000000 -0.000001 0.000000  0.000000 -0.000000 -0.000002
56  0.000030 0.000029 0.000001  -1.571902 -0.044449 -0.106509
57  8.838223 -16.138317 -16.427357  1.570796 -0.000000 0.000000
58  -21.089123 6.899941 -12.297750  1.570796 -0.000000 0.000000
59  -0.670483 -0.210714 -4.109488  1.570796 -0.000000 0.000000
60  -0.004311 0.001230 -0.000371  0.006898 -0.005534 -0.284229
61  0.376268 3.148996 -2.887995  1.570796 -0.000000 0.000000
62  0.000000 0.000000 0.000000  -0.078727 -3.136056 0.284226
63  -2.775555 -3.930868 0.043953  1.570796 -0.000000 0.000000
64  -2.808394 -6.592330 -4.111191  1.570796 -0.000000 0.000000
65  0.032837 -0.689314 7.041600  0.000000 -0.000000 0.000000
66  0.022198 0.853170 1.207919  0.000000 -0.000000 0.000000
67  -0.812851 0.400427 5.891668  0.000000 -0.000000 0.000000
68  0.032839 0.575037 28.881241  0.000000 -0.000000 0.000000
69  0.032836 -1.914698 -1.997006  0.000000 -0.000000 0.000000
70  -0.431854 2.407262 7.229147  0.000000 -0.000000 0.000000
71  -2.776510 -7.341029 -4.756900  1.570796 -0.000000 0.000000
72  -0.015875 1.183664 1.861429  0.000000 -0.000000 0.000000
73  0.148731 0.738712 -1.299453  0.000000 -0.000000 0.000000
74  -0.135883 0.464545 -1.299453  0.000000 -0.000000 0.000000
end
