version 1
nodes
0 "ValveBiped.Bip01_Spine4" -1
1 "ValveBiped.Bip01_L_Clavicle" 0
2 "ValveBiped.Bip01_L_UpperArm" 1
3 "ValveBiped.Bip01_L_Forearm" 2
4 "ValveBiped.Bip01_L_Hand" 3
5 "ValveBiped.Bip01_L_Finger4" 4
6 "ValveBiped.Bip01_L_Finger41" 5
7 "ValveBiped.Bip01_L_Finger42" 6
8 "ValveBiped.Bip01_L_Finger3" 4
9 "ValveBiped.Bip01_L_Finger31" 8
10 "ValveBiped.Bip01_L_Finger32" 9
11 "ValveBiped.Bip01_L_Finger2" 4
12 "ValveBiped.Bip01_L_Finger21" 11
13 "ValveBiped.Bip01_L_Finger22" 12
14 "ValveBiped.Bip01_L_Finger1" 4
15 "ValveBiped.Bip01_L_Finger11" 14
16 "ValveBiped.Bip01_L_Finger12" 15
17 "ValveBiped.Bip01_L_Finger0" 4
18 "ValveBiped.Bip01_L_Finger01" 17
19 "ValveBiped.Bip01_L_Finger02" 18
20 "ValveBiped.Bip01_L_Ulna" 3
21 "ValveBiped.Bip01_L_Wrist" 3
22 "rig_l_upperarm" 1
23 "rig_l_forearm" 22
24 "rig_d_l_forearm" 23
25 "rig_d_l_upperarm" 22
26 "ValveBiped.Bip01_R_Clavicle" 0
27 "ValveBiped.Bip01_R_UpperArm" 26
28 "ValveBiped.Bip01_R_Forearm" 27
29 "ValveBiped.Bip01_R_Hand" 28
30 "ValveBiped.Bip01_R_Finger4" 29
31 "ValveBiped.Bip01_R_Finger41" 30
32 "ValveBiped.Bip01_R_Finger42" 31
33 "ValveBiped.Bip01_R_Finger3" 29
34 "ValveBiped.Bip01_R_Finger31" 33
35 "ValveBiped.Bip01_R_Finger32" 34
36 "ValveBiped.Bip01_R_Finger2" 29
37 "ValveBiped.Bip01_R_Finger21" 36
38 "ValveBiped.Bip01_R_Finger22" 37
39 "ValveBiped.Bip01_R_Finger1" 29
40 "ValveBiped.Bip01_R_Finger11" 39
41 "ValveBiped.Bip01_R_Finger12" 40
42 "ValveBiped.Bip01_R_Finger0" 29
43 "ValveBiped.Bip01_R_Finger01" 42
44 "ValveBiped.Bip01_R_Finger02" 43
45 "ValveBiped.Bip01_R_Ulna" 28
46 "ValveBiped.Bip01_R_Wrist" 28
47 "rig_r_upperarm" 26
48 "rig_r_forearm" 47
49 "rig_d_r_forearm" 48
50 "rig_d_r_upperarm" 47
51 "rig_r_hand" -1
52 "rig_d_r_hand" 51
53 "rig_d_r_wrist" 52
54 "rig_l_hand" -1
55 "rig_d_l_hand" 54
56 "rig_d_l_wrist" 54
57 "rig_l_pole" -1
58 "rig_r_pole" -1
59 "rig_l_clavicle" -1
60 "rig_d_l_clavicle" 59
61 "rig_r_clavicle" -1
62 "rig_d_r_clavicle" 61
63 "Camera" -1
64 "body" -1
65 "trigger" 64
66 "bolt" 64
67 "chandle" 66
68 "barrel" 64
69 "magrel" 64
70 "sight" 64
71 "mag" -1
72 "bullet1" 71
73 "bullet2" 71
74 "bullet3" 71
end
skeleton
time 0
0  0.000006 0.000000 0.000000  -1.570800 -1.391899 -1.570792
1  -4.005264 0.938027 -0.674797  -1.544956 -1.855077 -0.198630
2  6.027522 -0.000325 0.000193  -1.030169 -1.091680 -1.077804
3  11.692109 0.000643 -0.000740  -1.320253 -0.000010 -1.277057
4  11.480688 0.000683 -0.000288  1.269491 -0.530176 0.129081
5  3.859510 -0.142879 -1.192049  -0.544261 -0.274779 -1.892626
6  1.312590 0.000012 0.000010  -0.133832 -0.011337 -0.204249
7  0.729354 0.000054 0.000050  -0.007414 -0.009429 -0.053696
8  3.942143 0.046273 -0.431512  -0.461849 0.154432 -1.296153
9  1.539110 0.000084 0.000007  -0.018634 -0.057102 -0.858939
10  1.196335 0.000144 0.000027  0.004741 0.005181 -0.739358
11  3.883504 -0.047269 0.431382  -0.216104 0.464441 -0.630861
12  1.719573 -0.000026 0.000017  0.035473 -0.116310 -1.317302
13  1.209179 0.000092 0.000013  -0.006344 -0.003685 -0.640195
14  4.085221 -0.082716 1.151040  0.064322 0.614532 -0.019322
15  1.719449 -0.000011 0.000022  -0.000909 -0.026418 -0.653433
16  1.099675 0.000049 0.000003  -0.073262 0.039405 -1.406663
17  0.971589 -1.283499 0.847610  -0.978328 -0.625347 -0.310208
18  1.789820 -0.000004 -0.000018  0.000998 -0.014468 0.721478
19  1.207015 -0.000012 -0.000043  0.001593 -0.000026 -0.111145
20  5.740638 0.000409 -0.000703  -0.085643 0.000003 0.000071
21  11.481146 0.000349 -0.000716  -0.046340 -0.088651 -0.001630
22  6.027524 -0.000330 0.000203  1.736780 -0.451643 1.697237
23  0.000003 11.692100 -0.000007  -0.895365 -0.357920 -0.720455
24  0.000002 0.000008 -0.000002  -0.451164 -0.000031 1.570739
25  -0.000000 -0.000011 -0.000001  0.868957 0.000002 1.570712
26  -3.402250 -2.584838 0.376265  1.473120 1.855075 -0.198639
27  6.027503 -0.000262 -0.000231  1.400642 0.503009 -0.304018
28  11.691990 0.000243 0.000856  0.970529 0.000085 -2.014875
29  11.480486 0.000509 0.000719  -1.659918 0.702222 0.161205
30  3.452863 -0.227594 1.051755  0.573015 -0.197780 -1.782130
31  1.312558 0.000022 0.000000  -0.067589 0.119040 -0.595239
32  0.729344 0.000064 -0.000027  -0.026993 -0.004558 -0.649387
33  3.942045 0.050110 0.430998  0.415260 -0.131585 -1.634045
34  1.539093 0.000008 -0.000002  -0.018706 -0.004890 -0.807183
35  1.196298 0.000075 -0.000005  -0.001372 -0.001809 -0.760336
36  3.883412 -0.050497 -0.431086  0.216949 -0.236898 -1.278357
37  1.719562 -0.000073 -0.000003  -0.029172 0.038034 -1.380057
38  1.209199 0.000035 0.000010  -0.003296 -0.002915 -0.381177
39  3.806437 -0.112148 -1.295330  -0.028837 -0.168049 0.201859
40  1.719414 -0.000101 -0.000035  -0.072912 0.185200 -1.434731
41  1.099674 0.000021 0.000008  -0.025487 0.002372 -0.612417
42  0.444469 -0.201854 -1.632533  1.077226 0.106495 -0.817774
43  1.789779 -0.000008 -0.000041  0.023056 0.021409 -0.019466
44  1.206996 -0.000002 0.000003  0.206835 0.095578 1.319988
45  5.740573 0.000057 0.000724  0.003569 -0.000014 0.000021
46  11.481043 0.000139 0.000893  -0.028293 0.117031 0.027239
47  6.027515 -0.000273 -0.000237  -0.707551 -0.735313 -1.354005
48  -0.000001 11.691973 -0.000006  -1.334234 0.782229 0.964649
49  0.000003 -0.000002 -0.000001  -3.040130 -0.000041 1.570856
50  -0.000007 -0.000015 0.000005  2.272644 -0.000030 1.570865
51  -4.932778 -8.903408 -7.489826  3.035270 -0.166343 -1.367546
52  -0.000001 0.000000 -0.000001  0.008153 -0.000259 0.000009
53  0.000000 0.000000 -0.000000  1.565115 0.043565 -0.106862
54  -0.848853 -17.870241 -5.654398  -0.916752 -0.098141 -1.946192
55  -0.000000 -0.000001 0.000000  0.000000 -0.000000 -0.000002
56  0.000030 0.000029 0.000001  -1.571902 -0.044449 -0.106509
57  8.838223 -16.138317 -16.427357  1.570796 -0.000000 0.000000
58  -21.089123 6.899941 -12.297750  1.570796 -0.000000 0.000000
59  -0.670483 -0.210714 -4.109488  1.570796 -0.000000 0.000000
60  -0.004311 0.001230 -0.000371  0.006898 -0.005534 -0.284229
61  0.376268 3.148996 -2.887995  1.570796 -0.000000 0.000000
62  0.000000 0.000000 0.000000  -0.078727 -3.136056 0.284226
63  -2.775555 -3.930868 0.043953  1.570796 -0.000000 0.000000
64  -2.808394 -6.592330 -4.111191  1.570796 -0.000000 0.000000
65  0.032837 -0.689314 7.041600  0.000000 -0.000000 0.000000
66  0.022198 0.853171 -2.573057  -0.000000 0.000000 -0.000000
67  -0.812851 0.400427 5.891667  0.000000 -0.000000 0.000000
68  0.032839 0.575037 28.881241  0.000000 -0.000000 0.000000
69  0.032836 -1.914698 -1.997006  0.000000 -0.000000 0.000000
70  -0.431854 2.407262 7.229147  0.000000 -0.000000 0.000000
71  -2.776510 -7.341029 -4.756900  1.570796 -0.000000 0.000000
72  0.148731 0.738712 -1.299453  0.000000 -0.000000 0.000000
73  0.148731 0.738712 -1.299453  0.000000 -0.000000 0.000000
74  -0.135883 0.464545 -1.299453  0.000000 -0.000000 0.000000
end
