version 1
nodes
0 "ValveBiped.Bip01_Spine4" -1
1 "ValveBiped.Bip01_L_Clavicle" 0
2 "ValveBiped.Bip01_L_UpperArm" 1
3 "ValveBiped.Bip01_L_Forearm" 2
4 "ValveBiped.Bip01_L_Hand" 3
5 "ValveBiped.Bip01_L_Finger4" 4
6 "ValveBiped.Bip01_L_Finger41" 5
7 "ValveBiped.Bip01_L_Finger42" 6
8 "ValveBiped.Bip01_L_Finger3" 4
9 "ValveBiped.Bip01_L_Finger31" 8
10 "ValveBiped.Bip01_L_Finger32" 9
11 "ValveBiped.Bip01_L_Finger2" 4
12 "ValveBiped.Bip01_L_Finger21" 11
13 "ValveBiped.Bip01_L_Finger22" 12
14 "ValveBiped.Bip01_L_Finger1" 4
15 "ValveBiped.Bip01_L_Finger11" 14
16 "ValveBiped.Bip01_L_Finger12" 15
17 "ValveBiped.Bip01_L_Finger0" 4
18 "ValveBiped.Bip01_L_Finger01" 17
19 "ValveBiped.Bip01_L_Finger02" 18
20 "ValveBiped.Bip01_L_Ulna" 3
21 "ValveBiped.Bip01_L_Wrist" 3
22 "rig_l_upperarm" 1
23 "rig_l_forearm" 22
24 "rig_d_l_forearm" 23
25 "rig_d_l_upperarm" 22
26 "ValveBiped.Bip01_R_Clavicle" 0
27 "ValveBiped.Bip01_R_UpperArm" 26
28 "ValveBiped.Bip01_R_Forearm" 27
29 "ValveBiped.Bip01_R_Hand" 28
30 "ValveBiped.Bip01_R_Finger4" 29
31 "ValveBiped.Bip01_R_Finger41" 30
32 "ValveBiped.Bip01_R_Finger42" 31
33 "ValveBiped.Bip01_R_Finger3" 29
34 "ValveBiped.Bip01_R_Finger31" 33
35 "ValveBiped.Bip01_R_Finger32" 34
36 "ValveBiped.Bip01_R_Finger2" 29
37 "ValveBiped.Bip01_R_Finger21" 36
38 "ValveBiped.Bip01_R_Finger22" 37
39 "ValveBiped.Bip01_R_Finger1" 29
40 "ValveBiped.Bip01_R_Finger11" 39
41 "ValveBiped.Bip01_R_Finger12" 40
42 "ValveBiped.Bip01_R_Finger0" 29
43 "ValveBiped.Bip01_R_Finger01" 42
44 "ValveBiped.Bip01_R_Finger02" 43
45 "ValveBiped.Bip01_R_Ulna" 28
46 "ValveBiped.Bip01_R_Wrist" 28
47 "rig_r_upperarm" 26
48 "rig_r_forearm" 47
49 "rig_d_r_forearm" 48
50 "rig_d_r_upperarm" 47
51 "rig_r_hand" -1
52 "rig_d_r_hand" 51
53 "rig_d_r_wrist" 52
54 "rig_l_hand" -1
55 "rig_d_l_hand" 54
56 "rig_d_l_wrist" 54
57 "rig_l_pole" -1
58 "rig_r_pole" -1
59 "rig_l_clavicle" -1
60 "rig_d_l_clavicle" 59
61 "rig_r_clavicle" -1
62 "rig_d_r_clavicle" 61
63 "Camera" -1
64 "body" -1
65 "trigger" 64
66 "bolt" 64
67 "chandle" 66
68 "barrel" 64
69 "magrel" 64
70 "sight" 64
71 "mag" -1
72 "bullet1" 71
73 "bullet2" 71
74 "bullet3" 71
end
skeleton
time 0
0  0.000006 0.000000 0.000000  -1.570800 -1.391899 -1.570792
1  -4.005264 0.938027 -0.674797  -1.544956 -1.855077 -0.198630
2  6.027522 -0.000325 0.000193  -1.032475 -1.093714 -1.079101
3  11.692110 0.000644 -0.000739  -1.320253 -0.000010 -1.276815
4  11.480690 0.000682 -0.000287  1.270363 -0.528190 0.122606
5  3.859510 -0.142880 -1.192049  -0.544261 -0.274779 -1.892626
6  1.312590 0.000012 0.000009  -0.133832 -0.011337 -0.204249
7  0.729354 0.000054 0.000050  -0.007414 -0.009429 -0.053696
8  3.942146 0.046273 -0.431512  -0.461849 0.154432 -1.296153
9  1.539110 0.000085 0.000005  -0.018634 -0.057102 -0.858939
10  1.196334 0.000145 0.000029  0.004741 0.005181 -0.739358
11  3.883506 -0.047269 0.431381  -0.216104 0.464441 -0.630861
12  1.719573 -0.000026 0.000016  0.035473 -0.116310 -1.317302
13  1.209178 0.000093 0.000012  -0.006344 -0.003685 -0.640195
14  4.085227 -0.082715 1.151041  0.064322 0.614532 -0.019322
15  1.719450 -0.000011 0.000021  -0.000909 -0.026418 -0.653433
16  1.099675 0.000049 0.000007  -0.073262 0.039405 -1.406663
17  0.971588 -1.283499 0.847609  -0.978328 -0.625346 -0.310208
18  1.789819 -0.000003 -0.000018  0.000998 -0.014468 0.721478
19  1.207015 -0.000012 -0.000044  0.001593 -0.000026 -0.111145
20  5.740637 0.000409 -0.000702  -0.086275 0.000003 0.000071
21  11.481146 0.000348 -0.000714  -0.046458 -0.088114 -0.002789
22  6.027524 -0.000330 0.000203  1.737067 -0.449364 1.693769
23  0.000001 11.692099 -0.000006  -0.895216 -0.357798 -0.720351
24  0.000003 0.000008 -0.000001  -0.451164 -0.000031 1.570739
25  -0.000001 -0.000011 -0.000000  0.868957 0.000002 1.570712
26  -3.402250 -2.584838 0.376265  1.473120 1.855075 -0.198639
27  6.027503 -0.000262 -0.000231  1.404431 0.504084 -0.301588
28  11.691990 0.000243 0.000856  0.970529 0.000085 -2.013122
29  11.480502 0.000513 0.000707  -1.668523 0.696518 0.158030
30  3.452863 -0.227594 1.051757  0.573015 -0.197780 -1.782130
31  1.312558 0.000024 0.000000  -0.067589 0.119040 -0.595239
32  0.729344 0.000064 -0.000027  -0.026993 -0.004558 -0.649387
33  3.942044 0.050111 0.430999  0.415260 -0.131585 -1.634045
34  1.539093 0.000009 -0.000001  -0.018706 -0.004890 -0.807183
35  1.196299 0.000074 -0.000005  -0.001372 -0.001809 -0.760336
36  3.883413 -0.050497 -0.431085  0.216949 -0.236898 -1.278357
37  1.719562 -0.000073 -0.000003  -0.029172 0.038034 -1.380057
38  1.209198 0.000035 0.000010  -0.003296 -0.002915 -0.381177
39  3.806436 -0.112148 -1.295330  -0.028837 -0.168049 0.201859
40  1.719413 -0.000101 -0.000036  -0.072912 0.185200 -1.434731
41  1.099674 0.000022 0.000009  -0.025487 0.002372 -0.612417
42  0.444468 -0.201855 -1.632532  1.077226 0.106495 -0.817774
43  1.789780 -0.000008 -0.000042  0.023056 0.021409 -0.019466
44  1.206997 -0.000005 0.000004  0.206835 0.095578 1.319988
45  5.740572 0.000055 0.000723  0.002025 -0.000014 0.000021
46  11.481044 0.000138 0.000890  -0.029627 0.115779 0.027204
47  6.027515 -0.000273 -0.000237  -0.706589 -0.731898 -1.354048
48  -0.000000 11.691972 -0.000007  -1.333159 0.781128 0.964274
49  0.000003 0.000000 -0.000001  -3.040130 -0.000041 1.570856
50  -0.000006 -0.000016 0.000004  2.272644 -0.000030 1.570865
51  -4.953862 -8.929473 -7.458428  3.026248 -0.171014 -1.363878
52  0.000001 -0.000000 -0.000000  0.008153 -0.000259 0.000009
53  -0.000001 -0.000000 0.000000  1.565115 0.043565 -0.106862
54  -0.836319 -17.875681 -5.597629  -0.921666 -0.106918 -1.943536
55  0.000002 -0.000000 -0.000000  0.000000 -0.000000 -0.000002
56  0.000030 0.000029 0.000001  -1.571901 -0.044449 -0.106509
57  8.838223 -16.138317 -16.427357  1.570796 -0.000000 0.000000
58  -21.089123 6.899941 -12.297750  1.570796 -0.000000 0.000000
59  -0.670483 -0.210714 -4.109488  1.570796 -0.000000 0.000000
60  -0.004311 0.001230 -0.000371  0.006898 -0.005534 -0.284229
61  0.376268 3.148996 -2.887995  1.570796 -0.000000 0.000000
62  0.000000 0.000000 0.000000  -0.078727 -3.136056 0.284226
63  0.000000 0.000000 0.000000  1.570796 -0.000000 0.000000
64  -2.808394 -6.592330 -4.111191  1.564420 0.007764 0.002128
65  0.032837 -0.689314 7.041598  0.000000 -0.000000 -0.000000
66  0.022199 0.853170 1.207919  0.000000 0.000000 -0.000000
67  -0.812852 0.400427 5.891666  0.000000 -0.000000 -0.000000
68  0.032839 0.575037 28.881239  0.000000 -0.000000 -0.000000
69  0.032836 -1.914698 -1.997007  0.000000 -0.000000 -0.000000
70  -0.431854 2.407263 7.229146  0.000000 -0.000000 -0.000000
71  -2.779884 -7.345072 -4.752341  1.564420 0.007764 0.002128
72  0.148731 0.738712 -1.299454  0.000000 -0.000000 -0.000000
73  -0.135884 0.464546 -1.299454  0.000000 -0.000000 -0.000000
74  0.138631 0.303275 -1.299454  0.000000 -0.000000 -0.000000
end
