version 1
nodes
0 "ValveBiped.Bip01_Spine4" -1
1 "ValveBiped.Bip01_L_Clavicle" 0
2 "ValveBiped.Bip01_L_UpperArm" 1
3 "ValveBiped.Bip01_L_Forearm" 2
4 "ValveBiped.Bip01_L_Hand" 3
5 "ValveBiped.Bip01_L_Finger4" 4
6 "ValveBiped.Bip01_L_Finger41" 5
7 "ValveBiped.Bip01_L_Finger42" 6
8 "ValveBiped.Bip01_L_Finger3" 4
9 "ValveBiped.Bip01_L_Finger31" 8
10 "ValveBiped.Bip01_L_Finger32" 9
11 "ValveBiped.Bip01_L_Finger2" 4
12 "ValveBiped.Bip01_L_Finger21" 11
13 "ValveBiped.Bip01_L_Finger22" 12
14 "ValveBiped.Bip01_L_Finger1" 4
15 "ValveBiped.Bip01_L_Finger11" 14
16 "ValveBiped.Bip01_L_Finger12" 15
17 "ValveBiped.Bip01_L_Finger0" 4
18 "ValveBiped.Bip01_L_Finger01" 17
19 "ValveBiped.Bip01_L_Finger02" 18
20 "ValveBiped.Bip01_L_Ulna" 3
21 "ValveBiped.Bip01_L_Wrist" 3
22 "rig_l_upperarm" 1
23 "rig_l_forearm" 22
24 "rig_d_l_forearm" 23
25 "rig_d_l_upperarm" 22
26 "ValveBiped.Bip01_R_Clavicle" 0
27 "ValveBiped.Bip01_R_UpperArm" 26
28 "ValveBiped.Bip01_R_Forearm" 27
29 "ValveBiped.Bip01_R_Hand" 28
30 "ValveBiped.Bip01_R_Finger4" 29
31 "ValveBiped.Bip01_R_Finger41" 30
32 "ValveBiped.Bip01_R_Finger42" 31
33 "ValveBiped.Bip01_R_Finger3" 29
34 "ValveBiped.Bip01_R_Finger31" 33
35 "ValveBiped.Bip01_R_Finger32" 34
36 "ValveBiped.Bip01_R_Finger2" 29
37 "ValveBiped.Bip01_R_Finger21" 36
38 "ValveBiped.Bip01_R_Finger22" 37
39 "ValveBiped.Bip01_R_Finger1" 29
40 "ValveBiped.Bip01_R_Finger11" 39
41 "ValveBiped.Bip01_R_Finger12" 40
42 "ValveBiped.Bip01_R_Finger0" 29
43 "ValveBiped.Bip01_R_Finger01" 42
44 "ValveBiped.Bip01_R_Finger02" 43
45 "ValveBiped.Bip01_R_Ulna" 28
46 "ValveBiped.Bip01_R_Wrist" 28
47 "rig_r_upperarm" 26
48 "rig_r_forearm" 47
49 "rig_d_r_forearm" 48
50 "rig_d_r_upperarm" 47
51 "rig_r_hand" -1
52 "rig_d_r_hand" 51
53 "rig_d_r_wrist" 52
54 "rig_l_hand" -1
55 "rig_d_l_hand" 54
56 "rig_d_l_wrist" 54
57 "rig_l_pole" -1
58 "rig_r_pole" -1
59 "rig_l_clavicle" -1
60 "rig_d_l_clavicle" 59
61 "rig_r_clavicle" -1
62 "rig_d_r_clavicle" 61
63 "Camera" -1
64 "body" -1
65 "trigger" 64
66 "bolt" 64
67 "chandle" 66
68 "barrel" 64
69 "magrel" 64
70 "boltrelease" 64
71 "mag" -1
72 "bullet1" 71
73 "bullet2" 71
74 "bullet3" 71
end
skeleton
time 0
0  0.000006 0.000000 0.000000  -1.570800 -1.391899 -1.570792
1  -4.005264 0.938027 -0.674797  -1.544956 -1.855077 -0.198630
2  6.027520 -0.000324 0.000194  -1.061271 -0.913323 -1.035524
3  11.692106 0.000644 -0.000740  -1.212403 -0.000030 -1.625250
4  11.479504 0.000388 -0.001059  1.185922 -0.722667 0.213643
5  3.859509 -0.142881 -1.192049  -0.831447 0.033521 -1.874084
6  1.312589 0.000013 0.000007  -0.137873 0.016836 -0.305113
7  0.729357 0.000054 0.000049  -0.012389 0.004691 -0.081886
8  3.942143 0.046271 -0.431512  -0.585025 0.275573 -1.481557
9  1.539110 0.000085 0.000007  -0.023392 0.009711 -0.455649
10  1.196331 0.000145 0.000029  -0.000129 0.006847 -0.708353
11  3.883505 -0.047270 0.431381  -0.248759 0.610003 -0.794180
12  1.719573 -0.000026 0.000016  0.025836 -0.029297 -0.891611
13  1.209179 0.000090 0.000011  -0.014788 -0.007528 -0.766138
14  4.085223 -0.082717 1.151041  -0.127839 0.680631 -0.366618
15  1.719447 -0.000013 0.000022  -0.048557 0.154086 -0.521704
16  1.099674 0.000049 0.000005  -0.080662 0.060316 -1.142708
17  0.492593 -1.527009 1.168400  -0.740451 -0.442214 -0.353167
18  1.789819 -0.000002 -0.000018  0.000998 -0.014468 0.721478
19  1.207016 -0.000011 -0.000043  0.001593 -0.000026 -0.111145
20  5.740638 0.000411 -0.000704  -0.128462 0.000003 0.000070
21  11.480908 0.000290 -0.000871  -0.051747 -0.129567 0.003018
22  6.027524 -0.000330 0.000203  1.835986 -0.609105 1.662828
23  0.000001 11.692098 -0.000007  -1.103243 -0.546734 -0.855049
24  0.000002 0.000009 -0.000001  -0.343299 -0.000030 1.570739
25  -0.000000 -0.000012 -0.000001  0.868957 0.000002 1.570712
26  -3.662932 -4.026425 0.376266  1.473120 1.855075 -0.198639
27  6.027504 -0.000261 -0.000230  1.427384 0.594605 -0.279219
28  11.691993 0.000244 0.000857  0.970530 0.000074 -1.859942
29  11.479158 0.000013 0.001440  -1.623151 0.641056 0.146006
30  3.452863 -0.227594 1.051755  0.554395 -0.249329 -1.600262
31  1.312558 0.000024 -0.000001  -0.098769 0.190475 -0.745635
32  0.729344 0.000065 -0.000026  -0.040117 -0.002456 -0.806801
33  3.942044 0.050110 0.430997  0.413054 -0.141259 -1.490445
34  1.539093 0.000009 -0.000002  -0.021081 0.020361 -1.007904
35  1.196299 0.000074 -0.000005  -0.004516 -0.001755 -0.733348
36  3.883411 -0.050498 -0.431087  0.224817 -0.215783 -1.187556
37  1.719562 -0.000074 -0.000003  -0.039730 0.066729 -1.510271
38  1.209198 0.000035 0.000011  -0.006946 -0.002847 -0.369175
39  3.806436 -0.112148 -1.295331  -0.029507 -0.180960 0.129126
40  1.719415 -0.000102 -0.000035  -0.068765 0.170678 -1.424016
41  1.099674 0.000023 0.000008  -0.023599 0.002280 -0.616218
42  0.943594 -0.180489 -1.592590  1.077226 0.106495 -0.817774
43  1.789779 -0.000009 -0.000042  0.023056 0.021409 -0.019466
44  1.206996 -0.000003 0.000003  0.206835 0.095578 1.319988
45  5.740573 0.000056 0.000725  0.005944 -0.000014 0.000021
46  11.480777 0.000038 0.001038  -0.019942 0.105557 0.021729
47  6.027515 -0.000273 -0.000237  -0.794876 -0.668460 -1.286738
48  -0.000002 11.691974 -0.000006  -1.241046 0.686230 0.927039
49  0.000003 -0.000003 0.000000  -3.040130 -0.000041 1.570856
50  -0.000007 -0.000015 0.000005  2.272644 -0.000030 1.570865
51  -4.933747 -8.976824 -7.385546  3.035270 -0.166343 -1.367546
52  -0.000001 0.000000 -0.000001  0.008153 -0.000259 0.000009
53  -0.000001 -0.000000 -0.000001  1.565115 0.043565 -0.106862
54  -0.700598 -15.074600 -6.142808  -0.922369 -0.090361 -1.922730
55  0.000001 -0.000000 0.000000  0.000000 -0.000000 -0.000002
56  0.000031 0.000029 0.000001  -1.571902 -0.044449 -0.106509
57  8.174561 -15.372293 -17.467022  1.570796 -0.000000 0.000000
58  -21.089123 6.899941 -12.297750  1.570796 -0.000000 0.000000
59  -0.670483 -0.210714 -4.109488  1.570796 -0.000000 0.000000
60  -0.004311 0.001230 -0.000371  0.006898 -0.005534 -0.284229
61  0.376268 4.613964 -2.887995  1.570796 -0.000000 0.000000
62  0.000000 0.000000 0.000000  -0.078727 -3.136056 0.284226
63  -2.808390 -1.771285 0.065070  1.570796 -0.000000 0.000000
64  -2.808394 -6.592330 -4.111191  1.570796 -0.000000 0.000000
65  0.032837 -0.689314 7.041600  0.000000 -0.000000 0.000000
66  0.000003 0.704706 -1.522919  -0.000000 0.000000 -0.000000
67  -1.069343 0.255757 -1.438859  0.000000 -0.000000 0.000000
68  0.000004 0.704705 21.133167  0.000000 -0.000000 0.000000
69  0.675334 -0.627302 0.013842  0.000000 -0.000000 0.000000
70  0.799380 0.098866 -2.766579  0.000000 -0.000000 0.000000
71  -2.776510 -7.341029 -4.756900  1.570796 -0.000000 0.000000
72  0.116050 0.879028 -1.115068  0.000000 -0.000000 0.000000
73  0.104800 0.966619 -1.115067  0.000000 -0.000000 0.000000
74  -0.158464 0.667165 -1.115067  0.000000 -0.000000 0.000000
end
