version 1
nodes
0 "ValveBiped.Bip01_Spine4" -1
1 "ValveBiped.Bip01_L_Clavicle" 0
2 "ValveBiped.Bip01_L_UpperArm" 1
3 "ValveBiped.Bip01_L_Forearm" 2
4 "ValveBiped.Bip01_L_Hand" 3
5 "ValveBiped.Bip01_L_Finger4" 4
6 "ValveBiped.Bip01_L_Finger41" 5
7 "ValveBiped.Bip01_L_Finger42" 6
8 "ValveBiped.Bip01_L_Finger3" 4
9 "ValveBiped.Bip01_L_Finger31" 8
10 "ValveBiped.Bip01_L_Finger32" 9
11 "ValveBiped.Bip01_L_Finger2" 4
12 "ValveBiped.Bip01_L_Finger21" 11
13 "ValveBiped.Bip01_L_Finger22" 12
14 "ValveBiped.Bip01_L_Finger1" 4
15 "ValveBiped.Bip01_L_Finger11" 14
16 "ValveBiped.Bip01_L_Finger12" 15
17 "ValveBiped.Bip01_L_Finger0" 4
18 "ValveBiped.Bip01_L_Finger01" 17
19 "ValveBiped.Bip01_L_Finger02" 18
20 "ValveBiped.Bip01_L_Ulna" 3
21 "ValveBiped.Bip01_L_Wrist" 3
22 "rig_l_upperarm" 1
23 "rig_l_forearm" 22
24 "rig_d_l_forearm" 23
25 "rig_d_l_upperarm" 22
26 "ValveBiped.Bip01_R_Clavicle" 0
27 "ValveBiped.Bip01_R_UpperArm" 26
28 "ValveBiped.Bip01_R_Forearm" 27
29 "ValveBiped.Bip01_R_Hand" 28
30 "ValveBiped.Bip01_R_Finger4" 29
31 "ValveBiped.Bip01_R_Finger41" 30
32 "ValveBiped.Bip01_R_Finger42" 31
33 "ValveBiped.Bip01_R_Finger3" 29
34 "ValveBiped.Bip01_R_Finger31" 33
35 "ValveBiped.Bip01_R_Finger32" 34
36 "ValveBiped.Bip01_R_Finger2" 29
37 "ValveBiped.Bip01_R_Finger21" 36
38 "ValveBiped.Bip01_R_Finger22" 37
39 "ValveBiped.Bip01_R_Finger1" 29
40 "ValveBiped.Bip01_R_Finger11" 39
41 "ValveBiped.Bip01_R_Finger12" 40
42 "ValveBiped.Bip01_R_Finger0" 29
43 "ValveBiped.Bip01_R_Finger01" 42
44 "ValveBiped.Bip01_R_Finger02" 43
45 "ValveBiped.Bip01_R_Ulna" 28
46 "ValveBiped.Bip01_R_Wrist" 28
47 "rig_r_upperarm" 26
48 "rig_r_forearm" 47
49 "rig_d_r_forearm" 48
50 "rig_d_r_upperarm" 47
51 "rig_r_hand" -1
52 "rig_d_r_hand" 51
53 "rig_d_r_wrist" 52
54 "rig_l_hand" -1
55 "rig_d_l_hand" 54
56 "rig_d_l_wrist" 54
57 "rig_l_pole" -1
58 "rig_r_pole" -1
59 "rig_l_clavicle" -1
60 "rig_d_l_clavicle" 59
61 "rig_r_clavicle" -1
62 "rig_d_r_clavicle" 61
63 "Camera" -1
64 "body" -1
65 "trigger" 64
66 "barrel" 64
67 "slide" 64
68 "hammer" 64
69 "sliderelease" 64
70 "bullet1" 64
71 "mag" -1
72 "bullet2" 71
73 "bullet3" 71
end
skeleton
time 0
0  0.000006 0.000000 0.000000  -1.570800 -1.391899 -1.570792
1  -10.134789 -9.257131 1.937670  -1.544956 -1.855077 -0.198630
2  6.027517 -0.000323 0.000196  -1.102417 -0.522637 -0.800844
3  11.692114 0.000647 -0.000738  -0.990396 0.000004 -0.839860
4  11.480887 0.000635 -0.000361  2.066853 -0.103504 0.363078
5  3.666625 -0.163903 -1.204800  -0.468169 0.151546 -0.880257
6  1.312589 0.000009 0.000008  -0.000027 0.000044 -0.439740
7  0.729357 0.000054 0.000049  0.000017 0.000021 -0.244317
8  3.942138 0.046333 -0.431542  -0.151817 0.073216 -0.811086
9  1.539112 0.000084 0.000003  -0.000007 0.000021 -0.247842
10  1.196331 0.000145 0.000031  0.000011 0.000019 -0.430770
11  3.883508 -0.047211 0.431351  0.085894 0.021858 -0.587909
12  1.719571 -0.000029 0.000016  0.000015 0.005518 -0.366533
13  1.209180 0.000090 0.000010  0.000004 0.003091 -0.216438
14  3.859673 -0.138417 1.332381  0.354466 -0.042717 -0.531784
15  1.719448 -0.000018 0.000031  0.000028 0.004066 -0.363025
16  1.099675 0.000048 0.000004  0.000003 0.002578 -0.244381
17  0.806008 -0.349036 1.321249  -1.222694 -0.679188 -0.788867
18  1.789819 -0.000002 -0.000019  0.000011 -0.000024 0.228523
19  1.207015 -0.000016 -0.000045  0.000002 -0.000008 0.362856
20  5.740635 0.000386 -0.000701  0.084660 0.000003 0.000063
21  11.481190 0.000300 -0.000727  0.101467 0.017100 0.072554
22  6.027524 -0.000329 0.000202  -0.975663 -2.217705 -1.504468
23  0.000000 11.692100 -0.000006  -0.614340 -0.164694 -0.508954
24  0.000006 0.000008 -0.000000  -0.121332 -0.000031 1.570739
25  0.000001 -0.000012 -0.000001  0.868960 0.000002 1.570712
26  -8.393617 -6.005292 -1.937599  1.473120 1.855075 -0.198639
27  6.027509 -0.000257 -0.000230  0.763168 0.350915 -0.816788
28  11.691992 0.000162 0.000858  0.636696 0.000001 -0.547406
29  11.480382 0.000475 0.000664  -1.666802 0.295139 -0.142130
30  3.859437 -0.132759 1.193063  0.406970 -0.281773 -0.608981
31  1.312560 0.000027 -0.000002  -0.000000 -0.000045 -0.148960
32  0.729348 0.000063 -0.000027  -0.000028 -0.000012 0.046463
33  3.942049 0.050138 0.430999  0.121278 -0.118788 -0.520704
34  1.539098 0.000006 0.000001  0.000007 -0.000009 0.042924
35  1.196307 0.000077 -0.000004  -0.000009 -0.000007 -0.140033
36  3.883414 -0.050473 -0.431086  -0.089865 -0.000691 -0.298015
37  1.719563 -0.000085 -0.000005  -0.002289 -0.007626 -0.075729
38  1.209196 0.000036 0.000011  -0.001277 -0.004274 0.074338
39  3.859590 -0.149082 -1.331322  -0.330196 0.136796 -0.257123
40  1.719414 -0.000098 -0.000035  -0.001916 -0.006299 -0.072275
41  1.099673 0.000023 0.000006  -0.001196 -0.004014 0.046404
42  0.805983 -0.359849 -1.318339  1.079795 0.646453 -0.910428
43  1.789780 -0.000008 -0.000043  0.011966 0.001552 -0.110980
44  1.206997 -0.000003 0.000005  0.005321 0.005317 0.007331
45  5.740572 0.000077 0.000719  -0.049002 -0.000014 0.000028
46  11.481021 0.000167 0.000878  -0.018802 0.038256 -0.034820
47  6.027515 -0.000271 -0.000228  -1.404939 -1.214846 -0.993557
48  -0.000001 11.691975 -0.000008  -0.409884 0.072127 0.343615
49  0.000003 0.000001 0.000001  2.909278 -0.000036 1.570860
50  -0.000007 -0.000015 0.000004  2.272645 -0.000036 1.570861
51  -12.080094 -2.607073 -28.354927  -0.668265 2.441716 1.352336
52  -0.000000 0.000001 -0.000000  0.008153 -0.000259 0.000009
53  0.000000 0.000000 -0.000000  1.565115 0.043565 -0.106862
54  10.245171 -5.342162 -23.366718  0.255881 0.766400 -1.766008
55  0.000002 0.000000 0.000001  0.000000 -0.000001 -0.000002
56  0.000032 0.000029 0.000001  -1.571901 -0.044449 -0.106509
57  14.062574 -12.874806 -32.482468  1.570796 -0.000000 0.000000
58  -15.417985 2.938832 -23.313402  1.570796 -0.000000 0.000000
59  1.941978 10.912449 -8.327020  1.570796 -0.000000 0.000000
60  -0.004311 0.001229 -0.000372  0.006898 -0.005534 -0.284229
61  -1.937603 7.403047 -7.191051  1.570796 -0.000000 0.000000
62  0.000000 0.000000 0.000000  -0.078727 -3.136056 0.284226
63  0.000000 0.000000 0.000000  1.570796 -0.000000 0.000000
64  -2.762233 -32.645050 -0.819312  1.570796 -0.000000 1.570796
65  -0.000004 1.310396 2.931490  0.000000 -0.000000 0.000000
66  -0.000003 2.348401 7.027632  -0.065995 -0.000000 -0.000000
67  -0.000004 2.151127 0.835168  0.000000 -0.000000 0.000000
68  0.220962 1.913130 -0.326492  0.000000 -0.000000 0.000000
69  -0.000004 1.680519 1.788386  0.174533 -0.000000 0.000000
70  -0.000004 1.676944 1.140922  0.000000 -0.000000 0.000000
71  -2.245564 -32.645046 1.131167  1.570796 -0.000000 1.570796
72  0.099353 -0.567851 0.567840  0.000000 -0.000000 -0.000000
73  -0.126042 -0.750849 0.522438  0.000000 -0.000000 -0.000000
time 1
0  0.000006 0.000000 0.000000  -1.570800 -1.391899 -1.570792
1  -10.128283 -9.221152 1.937670  -1.544956 -1.855077 -0.198630
2  6.027518 -0.000322 0.000196  -1.232031 -0.485950 -0.827535
3  11.692114 0.000643 -0.000739  -0.990403 0.000002 -0.949650
4  11.479644 0.000365 -0.000777  2.134501 -0.083703 0.447518
5  3.666627 -0.163905 -1.204802  -0.464327 0.154237 -0.881627
6  1.312588 0.000008 0.000008  -0.000024 0.000689 -0.426984
7  0.729356 0.000057 0.000049  -0.000069 0.000048 -0.233543
8  3.942140 0.046331 -0.431542  -0.149252 0.075277 -0.811399
9  1.539110 0.000080 0.000003  0.000012 0.000028 -0.240555
10  1.196334 0.000147 0.000026  0.000011 0.000020 -0.424922
11  3.883512 -0.047213 0.431348  0.086834 0.025056 -0.587632
12  1.719573 -0.000029 0.000019  0.000043 0.005459 -0.359312
13  1.209180 0.000088 0.000013  0.000012 0.003088 -0.216540
14  3.859675 -0.138418 1.332380  0.353578 -0.031002 -0.527451
15  1.719448 -0.000018 0.000029  0.000099 0.003990 -0.346869
16  1.099676 0.000049 0.000004  0.000003 0.002578 -0.244453
17  0.802338 -0.346747 1.321097  -1.222694 -0.679188 -0.788867
18  1.789819 -0.000001 -0.000017  0.000011 -0.000024 0.228523
19  1.207014 -0.000016 -0.000042  0.000002 -0.000008 0.362856
20  5.740635 0.000390 -0.000699  0.094090 0.000003 0.000063
21  11.480941 0.000248 -0.000809  0.113745 0.026947 0.089609
22  6.027524 -0.000330 0.000202  2.334510 -0.867745 1.415940
23  0.000000 11.692099 -0.000008  -0.687601 -0.207641 -0.566305
24  0.000005 0.000009 0.000000  -0.121333 -0.000031 1.570739
25  -0.000001 -0.000013 -0.000001  0.868960 0.000002 1.570712
26  -8.360491 -6.110139 -1.876315  1.473120 1.855075 -0.198639
27  6.027510 -0.000258 -0.000231  0.963778 0.242881 -0.720308
28  11.691994 0.000162 0.000859  0.625805 0.000009 -0.810390
29  11.480064 0.000312 0.000781  -1.736841 0.292603 -0.088574
30  3.856142 -0.139442 1.190933  0.406971 -0.281773 -0.608982
31  1.312557 0.000024 -0.000001  -0.000000 -0.000045 -0.148960
32  0.729344 0.000063 -0.000028  -0.000028 -0.000012 0.046463
33  3.939358 0.045598 0.428715  0.121278 -0.118788 -0.520704
34  1.539095 0.000005 -0.000002  0.000007 -0.000009 0.042924
35  1.196303 0.000078 -0.000003  -0.000009 -0.000007 -0.140032
36  3.883392 -0.053165 -0.430766  -0.089865 -0.000691 -0.298015
37  1.719565 -0.000085 -0.000004  -0.002288 -0.007626 -0.075729
38  1.209198 0.000032 0.000010  -0.001277 -0.004274 0.074338
39  3.859588 -0.149083 -1.331321  -0.330196 0.136796 -0.257124
40  1.719412 -0.000099 -0.000037  -0.001916 -0.006299 -0.072275
41  1.099674 0.000022 0.000004  -0.001196 -0.004014 0.046404
42  0.805983 -0.359849 -1.318336  1.079795 0.646453 -0.910428
43  1.789780 -0.000008 -0.000042  0.011966 0.001552 -0.110980
44  1.206996 -0.000008 0.000006  0.005321 0.005317 0.007331
45  5.740571 0.000080 0.000720  -0.064841 -0.000014 0.000028
46  11.480955 0.000136 0.000899  -0.033323 0.037434 -0.021618
47  6.027515 -0.000272 -0.000229  -0.763263 -1.215541 -1.560031
48  -0.000000 11.691977 -0.000008  -0.594300 0.153852 0.493105
49  0.000003 0.000001 -0.000000  2.898369 -0.000036 1.570860
50  -0.000007 -0.000014 0.000004  2.272645 -0.000036 1.570861
51  -12.692686 -2.715861 -26.844494  -0.586482 2.514588 1.361505
52  0.000001 -0.000000 -0.000003  0.008153 -0.000259 0.000009
53  0.000001 -0.000000 0.000002  1.565115 0.043565 -0.106862
54  10.198836 -5.478943 -22.351908  0.154595 0.713102 -1.865405
55  -0.000002 -0.000000 -0.000003  0.000000 -0.000001 -0.000002
56  0.000029 0.000030 -0.000004  -1.571902 -0.044449 -0.106509
57  14.297110 -13.022662 -32.144703  1.570796 -0.000000 0.000000
58  -15.417985 2.962374 -23.298515  1.570796 -0.000000 0.000000
59  1.941978 10.875887 -8.327020  1.570796 -0.000000 0.000000
60  -0.004311 0.001229 -0.000372  0.006898 -0.005534 -0.284229
61  -1.876319 7.500325 -7.139796  1.570796 -0.000000 0.000000
62  0.000000 0.000000 0.000000  -0.078727 -3.136056 0.284226
63  0.000000 0.000000 0.000000  1.570808 0.000845 0.000004
64  -2.738532 -32.075729 -0.894803  1.570801 0.000004 1.531152
65  -0.000002 1.310396 2.931490  0.000000 -0.000000 0.000000
66  -0.000002 2.348401 7.027632  -0.065995 -0.000000 -0.000000
67  -0.000003 2.151127 0.835168  0.000000 -0.000000 0.000000
68  0.220964 1.913130 -0.326492  0.000000 -0.000000 0.000000
69  -0.000001 1.680519 1.788386  0.174533 -0.000000 0.000000
70  -0.000004 1.676944 1.140923  0.000000 -0.000000 0.000000
71  -2.222261 -32.096199 1.055673  1.570801 0.000004 1.531152
72  0.099356 -0.567851 0.567841  0.000000 -0.000000 0.000000
73  -0.126040 -0.750849 0.522438  0.000000 -0.000000 0.000000
time 2
0  0.000006 0.000000 0.000000  -1.570800 -1.391899 -1.570792
1  -10.108702 -9.112871 1.937670  -1.544956 -1.855077 -0.198630
2  6.027518 -0.000322 0.000197  -1.406462 -0.473802 -0.864701
3  11.692111 0.000644 -0.000739  -0.990417 -0.000007 -1.181441
4  11.480304 0.000460 -0.000626  2.085319 -0.000801 0.612710
5  3.666629 -0.163902 -1.204801  -0.448468 0.175909 -0.858862
6  1.312591 0.000012 0.000007  0.000023 0.002627 -0.388607
7  0.729355 0.000055 0.000049  -0.000329 0.000136 -0.201153
8  3.942142 0.046332 -0.431541  -0.139271 0.085976 -0.783609
9  1.539110 0.000084 0.000004  0.000070 0.000084 -0.218672
10  1.196333 0.000146 0.000026  0.000006 0.000027 -0.407367
11  3.883512 -0.047211 0.431350  0.090343 0.032634 -0.561731
12  1.719572 -0.000030 0.000018  0.000123 0.005282 -0.337630
13  1.209178 0.000087 0.000013  0.000034 0.003081 -0.217355
14  3.859677 -0.138417 1.332380  0.349929 -0.000260 -0.502464
15  1.719448 -0.000018 0.000031  0.000307 0.003755 -0.298179
16  1.099675 0.000048 0.000006  0.000001 0.002578 -0.245023
17  0.790251 -0.339902 1.321546  -1.206569 -0.670899 -0.782809
18  1.789821 -0.000003 -0.000018  0.000004 -0.000054 0.211643
19  1.207015 -0.000012 -0.000042  -0.000009 -0.000095 0.323534
20  5.740636 0.000387 -0.000701  0.092383 0.000003 0.000064
21  11.481074 0.000268 -0.000781  0.098698 0.047872 0.117817
22  6.027524 -0.000329 0.000202  2.472057 -0.744992 1.198542
23  0.000001 11.692100 -0.000007  -0.836219 -0.310912 -0.678121
24  0.000003 0.000009 0.000001  -0.121333 -0.000030 1.570739
25  0.000001 -0.000011 -0.000001  0.868960 0.000002 1.570712
26  -8.260792 -6.425684 -1.691874  1.473120 1.855075 -0.198639
27  6.027511 -0.000258 -0.000228  1.492549 0.056256 -0.746962
28  11.691991 0.000162 0.000857  0.592914 0.000029 -1.234224
29  11.479623 -0.000036 0.001010  -1.903966 0.145123 0.069916
30  3.846222 -0.159557 1.184515  0.406971 -0.281773 -0.608982
31  1.312559 0.000024 -0.000002  -0.000000 -0.000045 -0.148960
32  0.729346 0.000065 -0.000029  -0.000028 -0.000012 0.046463
33  3.931270 0.031937 0.421839  0.121278 -0.118788 -0.520704
34  1.539099 0.000007 0.000004  0.000007 -0.000009 0.042924
35  1.196300 0.000080 -0.000000  -0.000009 -0.000007 -0.140033
36  3.883326 -0.061266 -0.429810  -0.089865 -0.000691 -0.298015
37  1.719562 -0.000086 -0.000005  -0.002289 -0.007626 -0.075729
38  1.209196 0.000035 0.000011  -0.001277 -0.004274 0.074338
39  3.859587 -0.149083 -1.331316  -0.330196 0.136796 -0.257123
40  1.719413 -0.000097 -0.000039  -0.001916 -0.006299 -0.072275
41  1.099675 0.000023 0.000007  -0.001196 -0.004014 0.046404
42  0.805982 -0.359847 -1.318334  1.079795 0.646453 -0.910428
43  1.789779 -0.000008 -0.000043  0.011966 0.001552 -0.110980
44  1.206997 -0.000006 0.000004  0.005321 0.005317 0.007331
45  5.740573 0.000081 0.000720  -0.069057 -0.000014 0.000028
46  11.480869 0.000069 0.000946  -0.067571 0.004123 0.012072
47  6.027516 -0.000274 -0.000228  -0.079031 -0.778538 -2.262271
48  -0.000001 11.691974 -0.000004  -0.868953 0.336538 0.701795
49  0.000002 -0.000001 -0.000000  2.865455 -0.000036 1.570860
50  -0.000006 -0.000013 0.000005  2.272645 -0.000036 1.570861
51  -14.074742 -3.074635 -22.683725  -0.385241 2.720769 1.356834
52  0.000001 0.000001 -0.000000  0.008153 -0.000259 0.000009
53  -0.000001 -0.000000 0.000003  1.565115 0.043565 -0.106862
54  9.906859 -5.881890 -19.480747  -0.071698 0.525029 -2.072363
55  -0.000001 0.000001 -0.000001  0.000000 -0.000001 -0.000002
56  0.000030 0.000030 0.000001  -1.571901 -0.044449 -0.106509
57  14.910593 -13.467643 -31.128174  1.570796 -0.000000 0.000000
58  -15.417985 3.033225 -23.253716  1.570796 -0.000000 0.000000
59  1.941978 10.765850 -8.327020  1.570796 -0.000000 0.000000
60  -0.004311 0.001229 -0.000372  0.006898 -0.005534 -0.284229
61  -1.691878 7.793094 -6.985539  1.570796 -0.000000 0.000000
62  0.000000 0.000000 0.000000  -0.078727 -3.136056 0.284226
63  0.000000 0.000000 0.000000  1.570840 0.002861 0.000016
64  -2.674201 -30.525047 -1.101246  1.570830 0.000037 1.420472
65  0.000001 1.310396 2.931490  -0.000000 -0.000000 -0.000000
66  0.000003 2.348400 7.027632  -0.065995 -0.000000 -0.000000
67  0.000002 2.151127 0.835168  -0.000000 -0.000000 -0.000000
68  0.220966 1.913130 -0.326491  -0.000000 -0.000000 -0.000000
69  0.000002 1.680519 1.788386  0.174533 -0.000000 -0.000000
70  -0.000001 1.676944 1.140922  -0.000000 -0.000000 -0.000000
71  -2.163284 -30.602362 0.849215  1.570830 0.000037 1.420472
72  0.099358 -0.567851 0.567841  -0.000000 -0.000000 0.000000
73  -0.126037 -0.750849 0.522438  -0.000000 -0.000000 0.000000
time 3
0  0.000006 0.000000 0.000000  -1.570800 -1.391899 -1.570792
1  -10.076865 -8.936813 1.937670  -1.544956 -1.855077 -0.198630
2  6.027518 -0.000323 0.000195  -1.473600 -0.561702 -0.851101
3  11.692107 0.000645 -0.000737  -0.990426 -0.000016 -1.355570
4  11.480132 0.000381 -0.000750  1.833026 0.078684 0.646637
5  3.666627 -0.163903 -1.204802  -0.418603 0.218453 -0.805454
6  1.312590 0.000010 0.000009  0.000233 0.005747 -0.326713
7  0.729355 0.000054 0.000049  -0.000747 0.000296 -0.148983
8  3.942140 0.046330 -0.431542  -0.120932 0.105620 -0.721559
9  1.539111 0.000084 0.000003  0.000168 0.000257 -0.183485
10  1.196333 0.000148 0.000027  -0.000010 0.000041 -0.379154
11  3.883510 -0.047213 0.431351  0.096847 0.043691 -0.505172
12  1.719573 -0.000028 0.000015  0.000238 0.004995 -0.302767
13  1.209180 0.000091 0.000011  0.000066 0.003069 -0.219885
14  3.859676 -0.138419 1.332380  0.343219 0.046737 -0.455475
15  1.719449 -0.000017 0.000028  0.000625 0.003353 -0.219437
16  1.099676 0.000050 0.000005  -0.000003 0.002578 -0.246792
17  0.768292 -0.329002 1.324416  -1.171617 -0.652003 -0.765525
18  1.789818 -0.000005 -0.000018  -0.000037 -0.000122 0.174468
19  1.207015 -0.000012 -0.000044  -0.000070 -0.000328 0.236392
20  5.740634 0.000389 -0.000697  0.063987 0.000003 0.000064
21  11.481037 0.000254 -0.000804  0.044396 0.050724 0.120120
22  6.027524 -0.000329 0.000201  2.407511 -0.651788 1.220428
23  0.000000 11.692099 -0.000005  -0.943131 -0.398219 -0.753519
24  0.000003 0.000008 0.000000  -0.121332 -0.000031 1.570739
25  0.000000 -0.000011 0.000001  0.868960 0.000002 1.570712
26  -8.098690 -6.938742 -1.391983  1.473120 1.855075 -0.198639
27  6.027511 -0.000257 -0.000226  1.873309 0.117353 -0.831931
28  11.691995 0.000161 0.000857  0.539174 0.000048 -1.487658
29  11.480380 0.000156 0.000864  -1.865602 0.051526 0.271388
30  3.830096 -0.192261 1.174075  0.406970 -0.281773 -0.608982
31  1.312560 0.000028 -0.000000  -0.000000 -0.000045 -0.148960
32  0.729346 0.000066 -0.000029  -0.000028 -0.000012 0.046463
33  3.918118 0.009729 0.410653  0.121278 -0.118788 -0.520704
34  1.539097 0.000004 -0.000001  0.000007 -0.000009 0.042924
35  1.196300 0.000078 -0.000003  -0.000009 -0.000007 -0.140033
36  3.883223 -0.074435 -0.428265  -0.089865 -0.000691 -0.298015
37  1.719563 -0.000084 -0.000004  -0.002289 -0.007626 -0.075728
38  1.209196 0.000035 0.000009  -0.001277 -0.004274 0.074338
39  3.859589 -0.149082 -1.331320  -0.330196 0.136796 -0.257124
40  1.719412 -0.000099 -0.000037  -0.001916 -0.006299 -0.072275
41  1.099673 0.000026 0.000008  -0.001196 -0.004014 0.046404
42  0.805984 -0.359846 -1.318336  1.079795 0.646453 -0.910428
43  1.789779 -0.000008 -0.000041  0.011966 0.001552 -0.110980
44  1.206996 -0.000008 0.000006  0.005321 0.005317 0.007331
45  5.740572 0.000076 0.000722  -0.059162 -0.000014 0.000028
46  11.481020 0.000105 0.000919  -0.058105 -0.018922 0.049002
47  6.027514 -0.000273 -0.000229  -0.127280 -0.396443 -2.353425
48  -0.000001 11.691978 -0.000005  -1.022085 0.469119 0.805666
49  0.000002 0.000000 -0.000001  2.811708 -0.000036 1.570860
50  -0.000007 -0.000014 0.000005  2.272645 -0.000036 1.570861
51  -14.862355 -3.633646 -17.956688  -0.193745 2.951724 1.320122
52  -0.000000 -0.000002 -0.000001  0.008153 -0.000259 0.000009
53  0.000001 0.000001 0.000002  1.565115 0.043565 -0.106862
54  9.154095 -6.406693 -16.024946  -0.252222 0.272908 -2.188857
55  0.000001 -0.000001 0.000001  0.000000 -0.000001 -0.000002
56  0.000031 0.000027 0.000003  -1.571901 -0.044449 -0.106509
57  15.524076 -14.191157 -29.475353  1.570796 -0.000000 0.000000
58  -15.417985 3.148425 -23.180872  1.570796 -0.000000 0.000000
59  1.941978 10.586937 -8.327020  1.570796 -0.000000 0.000000
60  -0.004311 0.001229 -0.000372  0.006898 -0.005534 -0.284229
61  -1.391987 8.269119 -6.734729  1.570796 -0.000000 0.000000
62  0.000000 0.000000 0.000000  -0.078727 -3.136056 0.284226
63  0.000000 0.000000 0.000000  1.570886 0.005267 0.000034
64  -2.579397 -28.228931 -1.408595  1.570901 0.000137 1.249971
65  -0.000001 1.310396 2.931490  0.000000 0.000000 0.000000
66  0.000000 2.348400 7.027632  -0.065995 -0.000000 -0.000000
67  -0.000000 2.151127 0.835169  0.000000 0.000000 0.000000
68  0.220964 1.913130 -0.326491  0.000000 0.000000 0.000000
69  -0.000000 1.680519 1.788386  0.174533 0.000000 0.000000
70  -0.000004 1.676944 1.140923  0.000000 0.000000 0.000000
71  -2.088814 -28.391674 0.541829  1.570901 0.000137 1.249971
72  0.099358 -0.567851 0.567843  -0.000000 0.000000 -0.000000
73  -0.126038 -0.750849 0.522439  -0.000000 0.000000 -0.000000
time 4
0  0.000006 0.000000 0.000000  -1.570800 -1.391899 -1.570792
1  -10.035225 -8.706539 1.937670  -1.544956 -1.855077 -0.198630
2  6.027518 -0.000322 0.000193  -1.455124 -0.685707 -0.795749
3  11.692109 0.000642 -0.000740  -0.990429 -0.000020 -1.425741
4  11.479720 0.000255 -0.000938  1.580276 0.001577 0.563618
5  3.666627 -0.163904 -1.204803  -0.377751 0.270462 -0.739369
6  1.312590 0.000008 0.000007  0.000735 0.009707 -0.247647
7  0.729355 0.000052 0.000050  -0.001277 0.000531 -0.082422
8  3.942140 0.046331 -0.431544  -0.096123 0.129844 -0.645796
9  1.539111 0.000084 0.000005  0.000310 0.000631 -0.138664
10  1.196332 0.000145 0.000029  -0.000043 0.000064 -0.343232
11  3.883510 -0.047213 0.431349  0.105966 0.058367 -0.436352
12  1.719573 -0.000030 0.000018  0.000361 0.004624 -0.258359
13  1.209178 0.000090 0.000012  0.000101 0.003055 -0.225365
14  3.859676 -0.138418 1.332379  0.333445 0.107727 -0.397882
15  1.719448 -0.000019 0.000030  0.000995 0.002803 -0.118598
16  1.099675 0.000049 0.000006  -0.000013 0.002578 -0.250623
17  0.735627 -0.315295 1.332055  -1.129924 -0.628215 -0.737730
18  1.789821 -0.000005 -0.000018  -0.000131 -0.000209 0.129350
19  1.207017 -0.000014 -0.000044  -0.000195 -0.000692 0.129952
20  5.740637 0.000389 -0.000698  0.020282 0.000003 0.000063
21  11.480957 0.000231 -0.000841  0.000155 0.021533 0.102659
22  6.027524 -0.000329 0.000201  2.267198 -0.599975 1.368904
23  -0.000000 11.692099 -0.000009  -0.985295 -0.435436 -0.781756
24  0.000002 0.000009 0.000000  -0.121332 -0.000031 1.570739
25  -0.000000 -0.000012 -0.000000  0.868960 0.000002 1.570712
26  -7.886667 -7.609799 -0.999740  1.473120 1.855075 -0.198639
27  6.027513 -0.000258 -0.000224  1.905908 0.244740 -0.786111
28  11.691993 0.000160 0.000859  0.468560 0.000051 -1.560131
29  11.479815 -0.000209 0.001022  -1.710905 0.102505 0.331726
30  3.809001 -0.235039 1.160424  0.406970 -0.281773 -0.608982
31  1.312559 0.000028 -0.000001  -0.000000 -0.000045 -0.148960
32  0.729347 0.000065 -0.000029  -0.000027 -0.000012 0.046463
33  3.900913 -0.019324 0.396022  0.121278 -0.118788 -0.520704
34  1.539095 0.000006 -0.000002  0.000007 -0.000009 0.042924
35  1.196301 0.000079 -0.000005  -0.000009 -0.000007 -0.140032
36  3.883085 -0.091665 -0.426239  -0.089865 -0.000691 -0.298015
37  1.719563 -0.000086 -0.000004  -0.002289 -0.007626 -0.075729
38  1.209196 0.000035 0.000010  -0.001277 -0.004274 0.074338
39  3.859587 -0.149083 -1.331321  -0.330196 0.136796 -0.257123
40  1.719413 -0.000097 -0.000036  -0.001916 -0.006299 -0.072275
41  1.099674 0.000024 0.000007  -0.001196 -0.004014 0.046404
42  0.805982 -0.359847 -1.318339  1.079795 0.646453 -0.910428
43  1.789780 -0.000008 -0.000043  0.011966 0.001552 -0.110980
44  1.206997 -0.000005 0.000006  0.005321 0.005317 0.007331
45  5.740573 0.000081 0.000721  -0.030389 -0.000014 0.000028
46  11.480907 0.000034 0.000949  -0.028637 -0.005473 0.059136
47  6.027515 -0.000273 -0.000229  -0.261428 -0.355332 -2.264167
48  -0.000000 11.691975 -0.000007  -1.064904 0.509550 0.832333
49  0.000003 -0.000001 0.000002  2.741090 -0.000036 1.570860
50  -0.000007 -0.000014 0.000005  2.272645 -0.000036 1.570861
51  -13.974303 -4.247921 -15.016747  -0.121642 3.091568 1.313502
52  0.000000 0.000000 -0.000000  0.008153 -0.000259 0.000009
53  -0.000001 0.000001 0.000000  1.565115 0.043565 -0.106862
54  7.944530 -6.851090 -13.534251  -0.335907 0.125933 -2.157472
55  0.000000 0.000001 -0.000001  0.000000 -0.000001 -0.000002
56  0.000031 0.000030 0.000000  -1.571901 -0.044449 -0.106509
57  15.758612 -15.137479 -27.313545  1.570796 -0.000000 0.000000
58  -15.417985 3.299099 -23.085596  1.570796 -0.000000 0.000000
59  1.941978 10.352928 -8.327020  1.570796 -0.000000 0.000000
60  -0.004311 0.001229 -0.000372  0.006898 -0.005534 -0.284229
61  -0.999744 8.891738 -6.406679  1.570796 -0.000000 0.000000
62  0.000000 0.000000 0.000000  -0.078727 -3.136056 0.284226
63  0.000000 0.000000 0.000000  1.570940 0.007282 0.000058
64  -2.464278 -25.423292 -1.786803  1.571012 0.000355 1.033651
65  -0.000000 1.310396 2.931490  -0.000000 -0.000000 0.000000
66  -0.000001 2.348400 7.027631  -0.065995 -0.000000 -0.000000
67  -0.000001 2.151127 0.835168  -0.000000 -0.000000 0.000000
68  0.220964 1.913130 -0.326491  -0.000000 -0.000000 0.000000
69  -0.000000 1.680519 1.788386  0.174533 -0.000000 0.000000
70  -0.000003 1.676944 1.140923  -0.000000 -0.000000 0.000000
71  -2.019655 -25.687283 0.163564  1.571012 0.000355 1.033651
72  0.099359 -0.567851 0.567840  0.000000 -0.000000 0.000000
73  -0.126036 -0.750849 0.522437  0.000000 -0.000000 0.000000
time 5
0  0.000006 0.000000 0.000000  -1.570800 -1.391899 -1.570792
1  -9.988052 -8.445676 1.937670  -1.544956 -1.855077 -0.198630
2  6.027517 -0.000324 0.000193  -1.405597 -0.813967 -0.733648
3  11.692107 0.000642 -0.000738  -0.990430 -0.000022 -1.455823
4  11.479332 0.000131 -0.001130  1.375695 -0.237991 0.482692
5  3.666628 -0.163903 -1.204802  -0.330409 0.324577 -0.670740
6  1.312589 0.000010 0.000008  0.001555 0.013938 -0.162195
7  0.729354 0.000052 0.000050  -0.001847 0.000826 -0.010525
8  3.942141 0.046332 -0.431543  -0.067661 0.155529 -0.568319
9  1.539109 0.000082 0.000005  0.000503 0.001287 -0.090281
10  1.196332 0.000146 0.000028  -0.000102 0.000100 -0.304463
11  3.883511 -0.047210 0.431351  0.116916 0.075282 -0.366083
12  1.719573 -0.000029 0.000017  0.000461 0.004218 -0.210423
13  1.209179 0.000089 0.000011  0.000126 0.003039 -0.234996
14  3.859677 -0.138418 1.332381  0.319493 0.175394 -0.338800
15  1.719447 -0.000019 0.000029  0.001348 0.002167 -0.009508
16  1.099675 0.000050 0.000007  -0.000031 0.002577 -0.257356
17  0.692613 -0.300767 1.346852  -1.088196 -0.602973 -0.700047
18  1.789820 -0.000004 -0.000017  -0.000292 -0.000307 0.083539
19  1.207016 -0.000012 -0.000045  -0.000389 -0.001187 0.021586
20  5.740636 0.000386 -0.000699  -0.033766 0.000003 0.000064
21  11.480876 0.000204 -0.000878  -0.028151 -0.034370 0.079850
22  6.027523 -0.000330 0.000201  2.119391 -0.551012 1.545403
23  -0.000000 11.692099 -0.000009  -1.003239 -0.451716 -0.793476
24  0.000004 0.000008 -0.000000  -0.121332 -0.000031 1.570739
25  -0.000001 -0.000012 -0.000002  0.868960 0.000002 1.570712
26  -7.646480 -8.369997 -0.555393  1.473120 1.855075 -0.198639
27  6.027513 -0.000258 -0.000224  1.808887 0.382128 -0.726397
28  11.691994 0.000160 0.000857  0.388328 0.000055 -1.585152
29  11.479631 -0.000389 0.001045  -1.574457 0.207258 0.384080
30  3.785105 -0.283498 1.144957  0.406971 -0.281773 -0.608981
31  1.312558 0.000026 0.000000  -0.000000 -0.000045 -0.148960
32  0.729346 0.000066 -0.000027  -0.000028 -0.000012 0.046463
33  3.881425 -0.052236 0.379449  0.121278 -0.118788 -0.520704
34  1.539096 0.000004 -0.000003  0.000007 -0.000009 0.042924
35  1.196301 0.000079 -0.000003  -0.000009 -0.000007 -0.140032
36  3.882928 -0.111184 -0.423943  -0.089865 -0.000691 -0.298015
37  1.719566 -0.000083 -0.000004  -0.002289 -0.007626 -0.075729
38  1.209195 0.000035 0.000011  -0.001277 -0.004274 0.074338
39  3.859586 -0.149083 -1.331321  -0.330196 0.136796 -0.257123
40  1.719413 -0.000098 -0.000039  -0.001916 -0.006299 -0.072275
41  1.099672 0.000024 0.000007  -0.001196 -0.004014 0.046404
42  0.805982 -0.359848 -1.318338  1.079795 0.646453 -0.910428
43  1.789780 -0.000009 -0.000042  0.011966 0.001552 -0.110980
44  1.206998 -0.000007 0.000005  0.005321 0.005317 0.007331
45  5.740571 0.000077 0.000720  0.004000 -0.000014 0.000028
46  11.480868 -0.000006 0.000953  -0.005485 0.019491 0.066766
47  6.027516 -0.000272 -0.000229  -0.422317 -0.428024 -2.112875
48  -0.000002 11.691977 -0.000008  -1.079623 0.523737 0.841219
49  0.000002 -0.000000 0.000002  2.660860 -0.000036 1.570860
50  -0.000007 -0.000014 0.000004  2.272645 -0.000036 1.570861
51  -11.708183 -4.893982 -12.900814  -0.125474 -3.113148 1.344509
52  -0.000000 0.000001 0.000000  0.008153 -0.000259 0.000009
53  -0.000000 -0.000000 0.000000  1.565115 0.043565 -0.106862
54  6.398197 -7.107665 -11.730905  -0.388436 0.052730 -2.004517
55  -0.000001 -0.000001 0.000000  0.000000 -0.000001 -0.000002
56  0.000029 0.000028 0.000002  -1.571901 -0.044449 -0.106509
57  15.526468 -16.209511 -24.864563  1.570796 -0.000000 0.000000
58  -15.417984 3.469790 -22.977665  1.570796 -0.000000 0.000000
59  1.941978 10.087833 -8.327020  1.570796 -0.000000 0.000000
60  -0.004311 0.001229 -0.000372  0.006898 -0.005534 -0.284229
61  -0.555397 9.597063 -6.035052  1.570796 -0.000000 0.000000
62  0.000000 0.000000 0.000000  -0.078727 -3.136056 0.284226
63  0.000000 0.000000 0.000000  1.570997 0.008128 0.000085
64  -2.339002 -22.344059 -2.205823  1.571133 0.000745 0.791758
65  0.000000 1.310396 2.931491  -0.000000 -0.000000 -0.000000
66  -0.000001 2.348400 7.027633  -0.065995 -0.000000 -0.000000
67  -0.000001 2.151126 0.835171  -0.000000 -0.000000 -0.000000
68  0.220965 1.913130 -0.326490  -0.000000 -0.000000 -0.000000
69  0.000001 1.680519 1.788387  0.174533 -0.000000 -0.000000
70  -0.000002 1.676944 1.140923  -0.000000 -0.000000 -0.000000
71  -1.969857 -22.706493 -0.255520  1.571133 0.000745 0.791758
72  0.099361 -0.567851 0.567841  0.000000 -0.000000 0.000000
73  -0.126035 -0.750849 0.522439  0.000000 -0.000000 0.000000
time 6
0  0.000006 0.000000 0.000000  -1.570800 -1.391899 -1.570792
1  -9.940881 -8.184812 1.937670  -1.544956 -1.855077 -0.198630
2  6.027519 -0.000325 0.000193  -1.362208 -0.968964 -0.699556
3  11.692108 0.000645 -0.000739  -0.990430 -0.000021 -1.442103
4  11.479634 0.000234 -0.000976  1.213952 -0.531337 0.459724
5  3.666627 -0.163903 -1.204803  -0.282564 0.375884 -0.606880
6  1.312590 0.000010 0.000009  0.002524 0.017797 -0.083117
7  0.729355 0.000055 0.000049  -0.002379 0.001139 0.056035
8  3.942141 0.046332 -0.431543  -0.039182 0.180521 -0.497421
9  1.539110 0.000082 0.000004  0.000749 0.002278 -0.045459
10  1.196333 0.000144 0.000029  -0.000190 0.000150 -0.268541
11  3.883510 -0.047211 0.431350  0.128385 0.092484 -0.301773
12  1.719573 -0.000028 0.000017  0.000514 0.003841 -0.166015
13  1.209178 0.000091 0.000012  0.000133 0.003025 -0.249563
14  3.859678 -0.138417 1.332379  0.298975 0.240365 -0.286312
15  1.719448 -0.000018 0.000028  0.001636 0.001541 0.091331
16  1.099676 0.000049 0.000006  -0.000057 0.002577 -0.267539
17  0.640959 -0.287701 1.370503  -1.050762 -0.578480 -0.653148
18  1.789819 -0.000004 -0.000017  -0.000530 -0.000411 0.041998
19  1.207016 -0.000013 -0.000044  -0.000660 -0.001815 -0.076498
20  5.740637 0.000388 -0.000699  -0.087958 0.000003 0.000063
21  11.480935 0.000225 -0.000847  -0.044468 -0.097363 0.059446
22  6.027524 -0.000330 0.000202  1.969555 -0.463629 1.686325
23  -0.000001 11.692100 -0.000006  -0.995064 -0.444267 -0.788160
24  0.000002 0.000007 0.000000  -0.121332 -0.000031 1.570739
25  -0.000000 -0.000011 0.000000  0.868960 0.000002 1.570712
26  -7.406291 -9.130193 -0.111046  1.473120 1.855075 -0.198639
27  6.027512 -0.000259 -0.000223  1.722313 0.604289 -0.677963
28  11.691992 0.000161 0.000857  0.308097 0.000054 -1.569416
29  11.479749 -0.000406 0.000992  -1.451564 0.310672 0.511474
30  3.761210 -0.331955 1.129493  0.406971 -0.281773 -0.608982
31  1.312558 0.000027 -0.000002  -0.000000 -0.000045 -0.148960
32  0.729346 0.000065 -0.000027  -0.000028 -0.000012 0.046463
33  3.861938 -0.085145 0.362879  0.121278 -0.118788 -0.520704
34  1.539095 0.000005 -0.000001  0.000007 -0.000009 0.042924
35  1.196301 0.000081 -0.000005  -0.000009 -0.000007 -0.140032
36  3.882772 -0.130698 -0.421648  -0.089865 -0.000691 -0.298015
37  1.719565 -0.000083 -0.000004  -0.002288 -0.007626 -0.075729
38  1.209195 0.000035 0.000010  -0.001277 -0.004274 0.074338
39  3.859585 -0.149081 -1.331321  -0.330196 0.136796 -0.257123
40  1.719412 -0.000098 -0.000038  -0.001916 -0.006299 -0.072275
41  1.099672 0.000022 0.000006  -0.001196 -0.004014 0.046404
42  0.805982 -0.359847 -1.318338  1.079795 0.646453 -0.910428
43  1.789780 -0.000007 -0.000043  0.011966 0.001552 -0.110980
44  1.206995 -0.000007 0.000005  0.005321 0.005317 0.007331
45  5.740574 0.000080 0.000721  0.044860 -0.000014 0.000028
46  11.480895 -0.000006 0.000944  0.012261 0.045106 0.087218
47  6.027515 -0.000272 -0.000230  -0.680854 -0.444927 -1.913376
48  -0.000000 11.691975 -0.000006  -1.070368 0.514802 0.835652
49  0.000005 -0.000000 0.000001  2.580629 -0.000036 1.570860
50  -0.000006 -0.000014 0.000005  2.272645 -0.000036 1.570861
51  -8.702275 -5.640334 -10.158353  -0.136809 -3.048052 1.376915
52  0.000000 0.000000 0.000001  0.008153 -0.000259 0.000009
53  -0.000000 0.000001 0.000001  1.565115 0.043565 -0.106862
54  4.678545 -7.346268 -9.971704  -0.451565 -0.004752 -1.806222
55  -0.000001 -0.000000 -0.000000  0.000000 -0.000001 -0.000002
56  0.000029 0.000028 0.000000  -1.571901 -0.044449 -0.106509
57  14.850840 -17.281540 -22.415585  1.570796 -0.000000 0.000000
58  -15.417984 3.640481 -22.869732  1.570796 -0.000000 0.000000
59  1.941978 9.822739 -8.327020  1.570796 -0.000000 0.000000
60  -0.004311 0.001229 -0.000372  0.006898 -0.005534 -0.284229
61  -0.111050 10.302387 -5.663425  1.570796 -0.000000 0.000000
62  0.000000 0.000000 0.000000  -0.078727 -3.136056 0.284226
63  0.000000 0.000000 0.000000  1.571052 0.008041 0.000116
64  -2.213726 -19.227156 -2.635610  1.571215 0.001339 0.549813
65  -0.000001 1.310396 2.931490  0.000000 0.000000 0.000000
66  -0.000001 2.348400 7.027632  -0.065995 -0.000000 -0.000000
67  -0.000000 2.151126 0.835169  0.000000 0.000000 0.000000
68  0.220964 1.913130 -0.326492  0.000000 0.000000 0.000000
69  0.000000 1.680519 1.788386  0.174533 0.000000 0.000000
70  -0.000003 1.676944 1.140923  0.000000 0.000000 0.000000
71  -1.941099 -19.667011 -0.685350  1.571215 0.001339 0.549813
72  0.099359 -0.567851 0.567842  0.000000 0.000000 0.000000
73  -0.126037 -0.750849 0.522439  0.000000 0.000000 0.000000
time 7
0  0.000006 0.000000 0.000000  -1.570800 -1.391899 -1.570792
1  -9.899240 -7.954538 1.937669  -1.544956 -1.855077 -0.198630
2  6.027521 -0.000326 0.000191  -1.315461 -1.136058 -0.710822
3  11.692109 0.000645 -0.000737  -0.990425 -0.000015 -1.342825
4  11.480218 0.000406 -0.000717  1.123757 -0.655907 0.484135
5  3.666628 -0.163903 -1.204802  -0.240526 0.421513 -0.554290
6  1.312589 0.000010 0.000008  0.003336 0.020791 -0.021205
7  0.729354 0.000053 0.000048  -0.002817 0.001415 0.108205
8  3.942141 0.046332 -0.431542  -0.014302 0.203676 -0.439581
9  1.539111 0.000082 0.000004  0.001041 0.003617 -0.010271
10  1.196332 0.000145 0.000029  -0.000310 0.000212 -0.240328
11  3.883511 -0.047211 0.431351  0.138841 0.108409 -0.249058
12  1.719574 -0.000028 0.000017  0.000512 0.003548 -0.131152
13  1.209179 0.000090 0.000012  0.000113 0.003015 -0.269207
14  3.859677 -0.138417 1.332380  0.268920 0.294696 -0.247031
15  1.719448 -0.000018 0.000028  0.001853 0.001025 0.170071
16  1.099675 0.000048 0.000005  -0.000092 0.002576 -0.281270
17  0.583234 -0.278007 1.403532  -1.020837 -0.556081 -0.597661
18  1.789819 -0.000004 -0.000016  -0.000858 -0.000517 0.008524
19  1.207016 -0.000012 -0.000044  -0.001027 -0.002581 -0.155138
20  5.740636 0.000389 -0.000699  -0.115496 0.000003 0.000064
21  11.481050 0.000260 -0.000795  -0.052582 -0.124996 0.052906
22  6.027525 -0.000330 0.000201  1.832092 -0.351614 1.770464
23  -0.000001 11.692099 -0.000007  -0.935421 -0.391578 -0.748257
24  0.000003 0.000009 -0.000000  -0.121332 -0.000031 1.570739
25  -0.000001 -0.000011 0.000000  0.868960 0.000002 1.570712
26  -7.194269 -9.801250 0.281197  1.473120 1.855075 -0.198639
27  6.027514 -0.000261 -0.000216  1.662886 0.876007 -0.654186
28  11.691992 0.000162 0.000857  0.237478 0.000044 -1.444928
29  11.478982 -0.000838 0.001047  -1.371550 0.368353 0.616928
30  3.740116 -0.374732 1.115838  0.406971 -0.281773 -0.608981
31  1.312560 0.000030 0.000000  -0.000000 -0.000045 -0.148960
32  0.729347 0.000064 -0.000028  -0.000028 -0.000012 0.046463
33  3.844736 -0.114197 0.348248  0.121278 -0.118788 -0.520704
34  1.539096 0.000004 -0.000001  0.000007 -0.000009 0.042924
35  1.196301 0.000079 -0.000003  -0.000009 -0.000007 -0.140033
36  3.882637 -0.147927 -0.419623  -0.089865 -0.000691 -0.298015
37  1.719565 -0.000082 -0.000005  -0.002288 -0.007626 -0.075729
38  1.209194 0.000033 0.000010  -0.001277 -0.004274 0.074338
39  3.859585 -0.149081 -1.331322  -0.330196 0.136796 -0.257123
40  1.719411 -0.000096 -0.000037  -0.001916 -0.006299 -0.072275
41  1.099674 0.000023 0.000007  -0.001196 -0.004014 0.046404
42  0.805984 -0.359847 -1.318339  1.079795 0.646453 -0.910428
43  1.789780 -0.000009 -0.000042  0.011966 0.001552 -0.110980
44  1.206996 -0.000008 0.000005  0.005321 0.005317 0.007331
45  5.740574 0.000080 0.000720  0.078439 -0.000014 0.000028
46  11.480742 -0.000094 0.000955  0.022147 0.061156 0.103732
47  6.027515 -0.000273 -0.000227  -0.971439 -0.375445 -1.732502
48  -0.000001 11.691976 -0.000005  -0.996682 0.445768 0.789297
49  0.000003 -0.000000 0.000000  2.510011 -0.000036 1.570860
50  -0.000008 -0.000013 0.000006  2.272645 -0.000036 1.570861
51  -5.692680 -6.484540 -7.448058  -0.158231 -2.999827 1.397849
52  0.000000 0.000001 0.000000  0.008153 -0.000259 0.000009
53  0.000001 0.000000 -0.000001  1.565115 0.043565 -0.106862
54  3.159256 -7.934329 -8.459302  -0.479476 -0.025172 -1.725535
55  0.000001 0.000000 -0.000000  0.000000 -0.000001 -0.000002
56  0.000031 0.000029 0.000001  -1.571901 -0.044449 -0.106509
57  13.879580 -18.227863 -20.253773  1.570796 -0.000000 0.000000
58  -15.417984 3.791156 -22.774456  1.570796 -0.000000 0.000000
59  1.941978 9.588730 -8.327020  1.570796 -0.000000 0.000000
60  -0.004311 0.001229 -0.000372  0.006898 -0.005534 -0.284229
61  0.281193 10.925006 -5.335376  1.570796 -0.000000 0.000000
62  0.000000 0.000000 0.000000  -0.078727 -3.136056 0.284226
63  0.000000 0.000000 0.000000  1.571097 0.007634 0.000148
64  -2.098607 -16.308496 -3.046116  1.571220 0.002144 0.333365
65  -0.000000 1.310396 2.931488  0.000000 -0.000000 -0.000000
66  0.000000 2.348401 7.027630  -0.065995 -0.000000 -0.000000
67  0.000000 2.151126 0.835166  0.000000 -0.000000 -0.000000
68  0.220966 1.913130 -0.326494  0.000000 -0.000000 -0.000000
69  -0.000000 1.680519 1.788386  0.174533 -0.000000 -0.000000
70  -0.000002 1.676944 1.140920  0.000000 -0.000000 -0.000000
71  -1.925319 -16.796131 -1.095861  1.571220 0.002144 0.333365
72  0.099359 -0.567851 0.567841  0.000000 -0.000000 -0.000000
73  -0.126037 -0.750849 0.522439  0.000000 -0.000000 -0.000000
time 8
0  0.000006 0.000000 0.000000  -1.570800 -1.391899 -1.570792
1  -9.867403 -7.778480 1.937669  -1.544956 -1.855077 -0.198630
2  6.027521 -0.000327 0.000191  -1.198524 -1.311131 -0.817524
3  11.692113 0.000646 -0.000739  -0.990417 -0.000008 -1.189740
4  11.480254 0.000448 -0.000649  1.047334 -0.567464 0.504330
5  3.666628 -0.163904 -1.204803  -0.209914 0.460174 -0.519429
6  1.312590 0.000010 0.000008  0.003700 0.022674 0.017184
7  0.729355 0.000053 0.000050  -0.003133 0.001608 0.140594
8  3.942141 0.046330 -0.431543  0.004042 0.224722 -0.400365
9  1.539109 0.000082 0.000004  0.001356 0.005281 0.011614
10  1.196332 0.000145 0.000028  -0.000458 0.000286 -0.222773
11  3.883510 -0.047213 0.431350  0.146949 0.122416 -0.212615
12  1.719572 -0.000029 0.000016  0.000458 0.003371 -0.109470
13  1.209181 0.000091 0.000013  0.000065 0.003007 -0.293510
14  3.859678 -0.138419 1.332379  0.226836 0.333674 -0.225541
15  1.719449 -0.000019 0.000028  0.002020 0.000681 0.218760
16  1.099675 0.000049 0.000007  -0.000136 0.002574 -0.298258
17  0.522055 -0.272822 1.445370  -1.001149 -0.536408 -0.534047
18  1.789819 -0.000004 -0.000016  -0.001289 -0.000620 -0.013694
19  1.207017 -0.000012 -0.000044  -0.001527 -0.003486 -0.207035
20  5.740634 0.000388 -0.000700  -0.129192 0.000003 0.000063
21  11.481056 0.000269 -0.000782  -0.071139 -0.111884 0.056385
22  6.027524 -0.000330 0.000202  1.696724 -0.227778 1.812956
23  0.000001 11.692101 -0.000007  -0.841399 -0.314897 -0.681884
24  0.000003 0.000009 -0.000001  -0.121332 -0.000031 1.570739
25  0.000000 -0.000011 0.000000  0.868960 0.000002 1.570712
26  -7.032166 -10.314308 0.581087  1.473120 1.855075 -0.198639
27  6.027515 -0.000262 -0.000215  1.632498 1.101754 -0.647368
28  11.691990 0.000161 0.000857  0.183724 0.000030 -1.240162
29  11.479384 -0.000562 0.000940  -1.346936 0.388631 0.620433
30  3.723989 -0.407436 1.105401  0.406971 -0.281773 -0.608981
31  1.312560 0.000030 -0.000000  -0.000000 -0.000045 -0.148960
32  0.729348 0.000065 -0.000027  -0.000028 -0.000012 0.046463
33  3.831583 -0.136409 0.337064  0.121278 -0.118788 -0.520704
34  1.539095 0.000004 -0.000001  0.000007 -0.000009 0.042924
35  1.196302 0.000080 -0.000003  -0.000009 -0.000007 -0.140032
36  3.882532 -0.161099 -0.418074  -0.089865 -0.000691 -0.298015
37  1.719565 -0.000083 -0.000004  -0.002288 -0.007626 -0.075729
38  1.209194 0.000034 0.000012  -0.001277 -0.004274 0.074338
39  3.859586 -0.149082 -1.331322  -0.330196 0.136796 -0.257123
40  1.719413 -0.000097 -0.000037  -0.001916 -0.006299 -0.072275
41  1.099675 0.000023 0.000007  -0.001196 -0.004014 0.046404
42  0.805983 -0.359848 -1.318338  1.079795 0.646453 -0.910428
43  1.789780 -0.000007 -0.000042  0.011966 0.001552 -0.110980
44  1.206995 -0.000007 0.000005  0.005321 0.005317 0.007331
45  5.740574 0.000079 0.000721  0.086441 -0.000014 0.000028
46  11.480822 -0.000039 0.000933  0.025465 0.066391 0.102807
47  6.027515 -0.000272 -0.000227  -1.184791 -0.273458 -1.631799
48  -0.000002 11.691974 -0.000007  -0.872618 0.339470 0.704414
49  0.000003 0.000000 0.000000  2.456264 -0.000036 1.570860
50  -0.000008 -0.000015 0.000005  2.272645 -0.000036 1.570861
51  -3.618694 -7.386265 -5.596961  -0.189289 -2.965008 1.395860
52  -0.000001 0.000000 0.000000  0.008153 -0.000259 0.000009
53  0.000000 0.000000 0.000000  1.565115 0.043565 -0.106862
54  1.650496 -8.570361 -6.958717  -0.517631 -0.033176 -1.825462
55  -0.000000 -0.000000 0.000000  0.000000 -0.000001 -0.000002
56  0.000030 0.000029 0.000001  -1.571901 -0.044449 -0.106509
57  12.908321 -18.951378 -18.600954  1.570796 -0.000000 0.000000
58  -15.417984 3.906355 -22.701614  1.570796 -0.000000 0.000000
59  1.941978 9.409817 -8.327020  1.570796 -0.000000 0.000000
60  -0.004311 0.001229 -0.000372  0.006898 -0.005534 -0.284229
61  0.581084 11.401031 -5.084565  1.570796 -0.000000 0.000000
62  0.000000 0.000000 0.000000  -0.078727 -3.136056 0.284226
63  0.000000 0.000000 0.000000  1.571129 0.006685 0.000181
64  -2.003803 -13.824008 -3.407295  1.571145 0.003166 0.162713
65  -0.000000 1.310396 2.931490  0.000000 -0.000000 -0.000000
66  0.000000 2.348401 7.027631  -0.065995 -0.000000 -0.000000
67  0.000000 2.151126 0.835169  0.000000 -0.000000 -0.000000
68  0.220966 1.913130 -0.326491  0.000000 -0.000000 -0.000000
69  0.000001 1.680519 1.788385  0.174533 -0.000000 -0.000000
70  -0.000002 1.676944 1.140922  0.000000 -0.000000 -0.000000
71  -1.913901 -14.333523 -1.457006  1.571145 0.003166 0.162713
72  0.099360 -0.567851 0.567841  0.000000 -0.000000 -0.000000
73  -0.126036 -0.750850 0.522438  0.000000 -0.000000 -0.000000
time 9
0  0.000006 0.000000 0.000000  -1.570800 -1.391899 -1.570792
1  -9.847823 -7.670199 1.937669  -1.544956 -1.855077 -0.198630
2  6.027524 -0.000329 0.000191  -0.518792 -1.475693 -1.505066
3  11.692113 0.000644 -0.000740  -0.990394 0.000005 -0.818768
4  11.480122 0.000498 -0.000575  1.070437 -0.303538 0.396174
5  3.666629 -0.163903 -1.204802  -0.195405 0.491327 -0.509025
6  1.312591 0.000011 0.000009  0.003452 0.023389 0.029939
7  0.729356 0.000054 0.000050  -0.003324 0.001692 0.151369
8  3.942142 0.046331 -0.431543  0.013687 0.243856 -0.385053
9  1.539110 0.000084 0.000004  0.001656 0.007230 0.018903
10  1.196332 0.000145 0.000028  -0.000633 0.000366 -0.216925
11  3.883511 -0.047212 0.431351  0.151743 0.134740 -0.196750
12  1.719574 -0.000030 0.000017  0.000361 0.003323 -0.102250
13  1.209179 0.000091 0.000012  -0.000013 0.003001 -0.321759
14  3.859678 -0.138417 1.332380  0.171390 0.355342 -0.224446
15  1.719447 -0.000018 0.000028  0.002160 0.000538 0.234916
16  1.099676 0.000049 0.000006  -0.000187 0.002571 -0.318007
17  0.459533 -0.272516 1.494840  -0.994275 -0.519440 -0.462510
18  1.789819 -0.000003 -0.000016  -0.001837 -0.000709 -0.021739
19  1.207018 -0.000013 -0.000044  -0.002220 -0.004525 -0.225751
20  5.740635 0.000389 -0.000699  -0.107393 0.000003 0.000063
21  11.481032 0.000279 -0.000768  -0.085210 -0.057043 0.049555
22  6.027524 -0.000330 0.000202  1.553437 -0.093593 1.820385
23  -0.000001 11.692100 -0.000008  -0.600045 -0.156925 -0.497625
24  0.000004 0.000008 -0.000001  -0.121332 -0.000031 1.570739
25  -0.000000 -0.000011 0.000000  0.868960 0.000002 1.570712
26  -6.932469 -10.629853 0.765528  1.473120 1.855075 -0.198639
27  6.027517 -0.000263 -0.000216  1.639012 1.228188 -0.630482
28  11.691991 0.000163 0.000858  0.150800 0.000018 -1.036307
29  11.480368 -0.000049 0.000839  -1.367132 0.401864 0.536666
30  3.714070 -0.427551 1.098982  0.406970 -0.281773 -0.608982
31  1.312561 0.000031 0.000000  -0.000000 -0.000045 -0.148960
32  0.729347 0.000066 -0.000028  -0.000028 -0.000012 0.046463
33  3.823493 -0.150069 0.330185  0.121278 -0.118788 -0.520704
34  1.539096 0.000005 -0.000002  0.000007 -0.000009 0.042924
35  1.196302 0.000080 -0.000003  -0.000009 -0.000007 -0.140032
36  3.882466 -0.169200 -0.417121  -0.089865 -0.000691 -0.298015
37  1.719565 -0.000083 -0.000005  -0.002288 -0.007626 -0.075729
38  1.209194 0.000034 0.000012  -0.001277 -0.004274 0.074338
39  3.859585 -0.149081 -1.331322  -0.330196 0.136796 -0.257123
40  1.719412 -0.000097 -0.000037  -0.001916 -0.006299 -0.072275
41  1.099673 0.000023 0.000006  -0.001196 -0.004014 0.046404
42  0.775981 -0.691970 -1.150317  1.090078 0.649458 -0.721464
43  1.789780 -0.000007 -0.000042  -0.034308 -0.040478 0.127608
44  1.206995 -0.000007 0.000005  0.013242 -0.104803 0.190534
45  5.740573 0.000079 0.000720  0.073099 -0.000014 0.000028
46  11.481018 0.000064 0.000913  0.023068 0.066922 0.086889
47  6.027516 -0.000273 -0.000228  -1.290937 -0.200302 -1.595960
48  -0.000002 11.691975 -0.000008  -0.744042 0.244321 0.609625
49  0.000002 0.000000 -0.000000  2.423350 -0.000036 1.570860
50  -0.000008 -0.000013 0.000003  2.272645 -0.000036 1.570861
51  -2.938168 -8.296681 -4.997611  -0.227195 -2.935768 1.368923
52  0.000000 0.000000 0.000000  0.008153 -0.000259 0.000009
53  -0.000000 0.000000 -0.000000  1.565115 0.043565 -0.106862
54  0.966017 -10.544608 -6.311184  -0.549392 -0.026829 -1.950195
55  -0.000001 -0.000000 0.000000  0.000000 -0.000001 -0.000002
56  0.000030 0.000028 0.000001  -1.571902 -0.044449 -0.106509
57  12.232693 -19.396362 -17.584425  1.570796 -0.000000 0.000000
58  -15.417984 3.977206 -22.656813  1.570796 -0.000000 0.000000
59  1.941978 9.299780 -8.327020  1.570796 -0.000000 0.000000
60  -0.004311 0.001229 -0.000372  0.006898 -0.005534 -0.284229
61  0.765525 11.693800 -4.930309  1.570796 -0.000000 0.000000
62  0.000000 0.000000 0.000000  -0.078727 -3.136056 0.284226
63  0.000000 0.000000 0.000000  1.571141 0.004973 0.000213
64  -1.939472 -12.009612 -3.689101  1.571038 0.004440 0.051918
65  -0.000000 1.310396 2.931490  -0.000000 0.000000 -0.000000
66  0.000000 2.348401 7.027633  -0.065995 -0.000000 -0.000000
67  0.000001 2.151127 0.835168  -0.000000 0.000000 -0.000000
68  0.220966 1.913130 -0.326491  -0.000000 0.000000 -0.000000
69  0.000001 1.680519 1.788387  0.174533 0.000000 -0.000000
70  -0.000002 1.676944 1.140922  -0.000000 0.000000 -0.000000
71  -1.903987 -12.525605 -1.738766  1.571038 0.004440 0.051918
72  0.099359 -0.567851 0.567841  -0.000000 0.000000 -0.000000
73  -0.126036 -0.750849 0.522439  -0.000000 0.000000 -0.000000
time 10
0  0.000006 0.000000 0.000000  -1.570800 -1.391899 -1.570792
1  -9.841317 -7.634221 1.937669  -1.544956 -1.855077 -0.198630
2  6.027525 -0.000328 0.000190  0.278792 -1.484825 -2.292858
3  11.692115 0.000645 -0.000739  -0.990391 0.000006 -0.777943
4  11.480769 0.000623 -0.000386  1.025539 -0.319377 0.501748
5  3.666629 -0.163903 -1.204802  -0.422618 0.337955 -1.074575
6  1.312589 0.000009 0.000006  -0.000159 0.023848 -0.115565
7  0.729355 0.000054 0.000050  -0.003604 0.001074 -0.028030
8  3.942142 0.046332 -0.431543  -0.099827 0.234385 -0.884308
9  1.539110 0.000083 0.000003  -0.001879 0.023615 -0.231913
10  1.196332 0.000145 0.000028  -0.002514 0.000581 -0.292812
11  3.883511 -0.047211 0.431351  0.068275 0.203636 -0.718235
12  1.719573 -0.000030 0.000017  -0.000626 0.008165 -0.313046
13  1.209179 0.000092 0.000012  -0.001021 0.003021 -0.459110
14  3.859677 -0.138418 1.332380  -0.066583 0.388693 -0.854579
15  1.719448 -0.000018 0.000027  0.002094 0.000848 0.083869
16  1.099675 0.000049 0.000005  -0.000587 0.002510 -0.475178
17  0.221730 -0.561032 1.544538  -1.023856 -0.497223 -0.331396
18  1.789818 -0.000004 -0.000017  -0.004316 -0.000156 0.071023
19  1.207016 -0.000012 -0.000044  -0.004158 -0.006375 -0.152892
20  5.740637 0.000387 -0.000700  -0.116058 0.000003 0.000063
21  11.481163 0.000303 -0.000730  -0.090550 -0.065973 0.067687
22  6.027524 -0.000329 0.000201  1.499315 -0.047887 1.831072
23  0.000001 11.692098 -0.000007  -0.572175 -0.142347 -0.475422
24  0.000002 0.000008 -0.000000  -0.121333 -0.000030 1.570738
25  0.000001 -0.000011 0.000001  0.868960 0.000002 1.570712
26  -6.899342 -10.734701 0.826813  1.473120 1.855075 -0.198639
27  6.027517 -0.000263 -0.000216  1.619936 1.274221 -0.642036
28  11.691990 0.000161 0.000858  0.139887 0.000015 -0.964277
29  11.480717 0.000094 0.000818  -1.453484 0.521958 0.503497
30  3.710775 -0.434235 1.096848  1.026404 -0.065510 -1.746772
31  1.312561 0.000030 -0.000002  0.009125 -0.048151 -0.330443
32  0.729347 0.000064 -0.000027  -0.114485 -0.164894 -1.313450
33  3.820806 -0.154609 0.327898  0.555542 -0.124005 -1.455370
34  1.539095 0.000005 -0.000001  0.044440 0.016119 -0.665069
35  1.196302 0.000081 -0.000004  -0.021234 -0.019061 -1.685460
36  3.882447 -0.171893 -0.416804  0.535557 -0.318596 -1.073563
37  1.719565 -0.000082 -0.000005  -0.000207 -0.028401 -1.197831
38  1.209193 0.000034 0.000012  -0.001057 -0.003336 -1.283781
39  3.859585 -0.149082 -1.331323  -0.052920 -0.216537 -0.446982
40  1.719412 -0.000097 -0.000037  0.028058 0.011401 -0.672573
41  1.099673 0.000023 0.000007  -0.005770 -0.009633 -0.908094
42  0.745980 -1.024093 -0.982297  1.100876 0.650866 -0.532646
43  1.789780 -0.000006 -0.000042  -0.089312 -0.070323 0.368343
44  1.206996 -0.000006 0.000005  0.000678 -0.214508 0.376133
45  5.740573 0.000078 0.000721  0.055818 -0.000014 0.000028
46  11.481088 0.000091 0.000908  0.001659 0.086220 0.082217
47  6.027515 -0.000273 -0.000229  -1.332665 -0.178501 -1.581542
48  -0.000001 11.691977 -0.000008  -0.697168 0.213638 0.573752
49  0.000003 0.000001 0.000000  2.412441 -0.000036 1.570860
50  -0.000007 -0.000012 0.000004  2.272645 -0.000036 1.570861
51  -2.560773 -8.560658 -4.850217  -0.296424 -2.878141 1.260702
52  -0.000000 0.000000 0.000001  0.008153 -0.000259 0.000009
53  0.000000 0.000000 -0.000001  1.565115 0.043565 -0.106862
54  0.128499 -10.344408 -5.667557  -0.544892 0.059108 -1.958995
55  -0.000001 0.000000 -0.000000  0.000000 -0.000001 -0.000002
56  0.000028 0.000029 0.000001  -1.571902 -0.044449 -0.106509
57  12.000549 -19.544212 -17.246658  1.570796 -0.000000 0.000000
58  -15.417984 4.000748 -22.641926  1.570796 -0.000000 0.000000
59  1.941978 9.263218 -8.327020  1.570796 -0.000000 0.000000
60  -0.004311 0.001229 -0.000372  0.006898 -0.005534 -0.284229
61  0.826810 11.791080 -4.879054  1.570796 -0.000000 0.000000
62  0.000000 0.000000 0.000000  -0.078727 -3.136056 0.284226
63  0.000000 0.000000 0.000000  1.570024 0.002276 0.000241
64  -1.915771 -11.101227 -3.861487  1.571005 0.006047 0.012230
65  -0.000000 1.310396 2.931491  -0.000000 -0.000000 0.000000
66  0.000001 2.348401 7.027635  -0.065995 -0.000000 -0.000000
67  0.000001 2.151127 0.835169  -0.000000 -0.000000 0.000000
68  0.220966 1.913130 -0.326490  -0.000000 -0.000000 0.000000
69  0.000001 1.680519 1.788388  0.174533 -0.000000 0.000000
70  -0.000002 1.676944 1.140923  -0.000000 -0.000000 0.000000
71  -1.897654 -11.618120 -1.911152  1.571005 0.006047 0.012230
72  0.099359 -0.567851 0.567841  0.000000 -0.000000 0.000000
73  -0.126037 -0.750849 0.522438  0.000000 -0.000000 0.000000
time 11
0  0.000006 0.000000 0.000000  -1.570800 -1.391899 -1.570792
1  -9.841317 -7.634221 1.937669  -1.544956 -1.855077 -0.198630
2  6.027525 -0.000328 0.000190  0.057667 -1.485561 -2.062177
3  11.692113 0.000646 -0.000738  -0.990394 0.000005 -0.823294
4  11.479998 0.000474 -0.000612  0.978274 -0.328341 0.516211
5  3.666627 -0.163903 -1.204802  -0.521518 0.087549 -1.561764
6  1.312590 0.000008 0.000007  -0.003455 0.023748 -0.261067
7  0.729355 0.000054 0.000049  -0.003692 0.000415 -0.207428
8  3.942139 0.046331 -0.431543  -0.191130 0.163211 -1.373193
9  1.539111 0.000084 0.000003  -0.009231 0.037390 -0.482898
10  1.196333 0.000146 0.000028  -0.004293 0.000614 -0.368699
11  3.883510 -0.047212 0.431351  -0.037373 0.215001 -1.247633
12  1.719573 -0.000028 0.000016  -0.002535 0.012699 -0.523857
13  1.209178 0.000089 0.000012  -0.001972 0.002929 -0.578952
14  3.859676 -0.138418 1.332380  -0.243948 0.301790 -1.462391
15  1.719449 -0.000018 0.000029  0.001902 0.001157 -0.067177
16  1.099675 0.000048 0.000005  -0.000943 0.002399 -0.620101
17  0.020619 -0.848310 1.563299  -1.051853 -0.482046 -0.245411
18  1.789819 -0.000004 -0.000017  -0.006372 0.000636 0.163783
19  1.207016 -0.000012 -0.000044  -0.005701 -0.007470 -0.080032
20  5.740636 0.000388 -0.000699  -0.127008 0.000003 0.000063
21  11.481009 0.000274 -0.000776  -0.098617 -0.070391 0.068037
22  6.027524 -0.000329 0.000201  1.512034 -0.061859 1.840736
23  -0.000002 11.692097 -0.000008  -0.603118 -0.158579 -0.500064
24  0.000002 0.000008 -0.000000  -0.121332 -0.000030 1.570739
25  -0.000001 -0.000011 -0.000000  0.868960 0.000002 1.570712
26  -6.899342 -10.734701 0.826813  1.473120 1.855075 -0.198639
27  6.027517 -0.000263 -0.000216  1.616227 1.254416 -0.645750
28  11.691991 0.000161 0.000858  0.139889 0.000017 -1.007432
29  11.480494 0.000001 0.000829  -1.480452 0.525090 0.532659
30  3.710775 -0.434235 1.096849  1.026404 -0.065510 -1.746772
31  1.312560 0.000032 -0.000000  0.009125 -0.048151 -0.330443
32  0.729347 0.000066 -0.000028  -0.114485 -0.164894 -1.313450
33  3.820806 -0.154609 0.327899  0.555542 -0.124005 -1.455370
34  1.539094 0.000002 -0.000002  0.044440 0.016119 -0.665069
35  1.196302 0.000081 -0.000003  -0.021234 -0.019061 -1.685460
36  3.882445 -0.171892 -0.416804  0.535557 -0.318596 -1.073563
37  1.719566 -0.000084 -0.000005  -0.000207 -0.028401 -1.197831
38  1.209193 0.000035 0.000012  -0.001057 -0.003336 -1.283781
39  3.859585 -0.149082 -1.331322  -0.052921 -0.216537 -0.446982
40  1.719412 -0.000097 -0.000038  0.028058 0.011401 -0.672573
41  1.099673 0.000024 0.000007  -0.005770 -0.009632 -0.908094
42  0.745979 -1.024093 -0.982296  1.100876 0.650866 -0.532646
43  1.789780 -0.000007 -0.000043  -0.089312 -0.070323 0.368343
44  1.206996 -0.000006 0.000006  0.000678 -0.214508 0.376133
45  5.740574 0.000080 0.000721  0.053263 -0.000014 0.000028
46  11.481043 0.000075 0.000911  -0.004518 0.085740 0.089367
47  6.027515 -0.000273 -0.000229  -1.317077 -0.191098 -1.584584
48  -0.000002 11.691974 -0.000008  -0.725346 0.231825 0.595391
49  0.000003 0.000001 -0.000000  2.412441 -0.000036 1.570860
50  -0.000008 -0.000014 0.000004  2.272645 -0.000036 1.570861
51  -2.567764 -8.321960 -4.847938  -0.327405 -2.882201 1.258817
52  -0.000000 -0.000000 0.000000  0.008153 -0.000259 0.000009
53  0.000000 -0.000000 0.000000  1.565115 0.043565 -0.106862
54  0.080204 -10.120836 -5.761337  -0.575108 0.060673 -1.970697
55  -0.000001 -0.000000 0.000000  0.000000 -0.000001 -0.000002
56  0.000029 0.000029 0.000001  -1.571901 -0.044449 -0.106509
57  12.000549 -19.544212 -17.246658  1.570796 -0.000000 0.000000
58  -15.417984 4.000748 -22.641926  1.570796 -0.000000 0.000000
59  1.941978 9.263218 -8.327020  1.570796 -0.000000 0.000000
60  -0.004311 0.001229 -0.000372  0.006898 -0.005534 -0.284229
61  0.826810 11.791080 -4.879054  1.570796 -0.000000 0.000000
62  0.000000 0.000000 0.000000  -0.078727 -3.136056 0.284226
63  0.000000 0.000000 0.000000  1.568907 -0.001118 0.000270
64  -1.921736 -10.881464 -3.910017  1.584234 0.033200 0.002597
65  -0.000001 1.310396 2.931490  -0.000000 -0.000000 0.000000
66  0.000000 2.348400 7.027631  -0.065995 -0.000000 -0.000000
67  0.000000 2.151127 0.835167  -0.000000 -0.000000 0.000000
68  0.220966 1.913130 -0.326492  -0.000000 -0.000000 0.000000
69  0.000001 1.680519 1.788387  0.174533 -0.000000 0.000000
70  -0.000002 1.676944 1.140922  -0.000000 -0.000000 0.000000
71  -1.855819 -11.424125 -1.967728  1.584234 0.033200 0.002597
72  0.099359 -0.567851 0.567840  -0.000000 -0.000000 0.000000
73  -0.126036 -0.750850 0.522438  -0.000000 -0.000000 0.000000
time 12
0  0.000006 0.000000 0.000000  -1.570800 -1.391899 -1.570792
1  -9.841317 -7.634221 1.937669  -1.544956 -1.855077 -0.198630
2  6.027525 -0.000328 0.000190  0.065663 -1.485782 -2.071150
3  11.692113 0.000643 -0.000740  -0.990394 0.000005 -0.822335
4  11.480021 0.000481 -0.000608  0.986890 -0.317358 0.511395
5  3.666629 -0.163904 -1.204802  -0.521518 0.087549 -1.561764
6  1.312590 0.000010 0.000007  -0.003455 0.023748 -0.261067
7  0.729354 0.000054 0.000048  -0.003692 0.000415 -0.207428
8  3.942141 0.046331 -0.431543  -0.191130 0.163211 -1.373193
9  1.539111 0.000084 0.000004  -0.009231 0.037390 -0.482898
10  1.196332 0.000145 0.000030  -0.004293 0.000614 -0.368699
11  3.883512 -0.047212 0.431351  -0.037372 0.215001 -1.247633
12  1.719573 -0.000028 0.000017  -0.002535 0.012699 -0.523857
13  1.209178 0.000091 0.000012  -0.001972 0.002929 -0.578952
14  3.859678 -0.138418 1.332380  -0.243948 0.301790 -1.462391
15  1.719447 -0.000019 0.000028  0.001902 0.001157 -0.067177
16  1.099675 0.000049 0.000006  -0.000943 0.002399 -0.620101
17  0.020621 -0.848310 1.563299  -1.051853 -0.482046 -0.245411
18  1.789819 -0.000004 -0.000016  -0.006372 0.000636 0.163783
19  1.207017 -0.000012 -0.000044  -0.005701 -0.007470 -0.080032
20  5.740635 0.000388 -0.000700  -0.125104 0.000003 0.000064
21  11.481011 0.000276 -0.000775  -0.097769 -0.067722 0.068054
22  6.027524 -0.000329 0.000201  1.511697 -0.061229 1.839749
23  -0.000001 11.692099 -0.000007  -0.602467 -0.158228 -0.499548
24  0.000003 0.000008 0.000000  -0.121332 -0.000031 1.570738
25  -0.000001 -0.000011 0.000000  0.868960 0.000002 1.570712
26  -6.899342 -10.734701 0.826813  1.473120 1.855075 -0.198639
27  6.027517 -0.000263 -0.000216  1.612719 1.252342 -0.648649
28  11.691990 0.000159 0.000858  0.139890 0.000017 -1.012761
29  11.480469 -0.000009 0.000832  -1.477749 0.539629 0.535972
30  3.710775 -0.434234 1.096848  1.026404 -0.065510 -1.746772
31  1.312560 0.000031 0.000000  0.009125 -0.048151 -0.330443
32  0.729348 0.000064 -0.000026  -0.114485 -0.164894 -1.313450
33  3.820806 -0.154608 0.327899  0.555542 -0.124005 -1.455370
34  1.539095 0.000004 -0.000001  0.044440 0.016119 -0.665070
35  1.196302 0.000079 -0.000003  -0.021234 -0.019061 -1.685460
36  3.882447 -0.171892 -0.416804  0.535558 -0.318596 -1.073563
37  1.719565 -0.000083 -0.000005  -0.000207 -0.028401 -1.197831
38  1.209194 0.000035 0.000011  -0.001057 -0.003336 -1.283781
39  3.859585 -0.149081 -1.331322  -0.052921 -0.216537 -0.446982
40  1.719412 -0.000097 -0.000037  0.028058 0.011401 -0.672573
41  1.099672 0.000022 0.000007  -0.005770 -0.009632 -0.908094
42  0.745979 -1.024092 -0.982296  1.100876 0.650866 -0.532646
43  1.789780 -0.000007 -0.000042  -0.089312 -0.070323 0.368343
44  1.206995 -0.000007 0.000005  0.000678 -0.214508 0.376133
45  5.740574 0.000079 0.000721  0.054530 -0.000014 0.000028
46  11.481038 0.000072 0.000911  -0.004886 0.088697 0.089600
47  6.027515 -0.000273 -0.000229  -1.316035 -0.193209 -1.584349
48  -0.000002 11.691976 -0.000008  -0.728807 0.234112 0.598033
49  0.000004 -0.000001 0.000001  2.412441 -0.000036 1.570860
50  -0.000008 -0.000012 0.000005  2.272645 -0.000036 1.570861
51  -2.547468 -8.289825 -4.854020  -0.322075 -2.876977 1.246386
52  0.000001 0.000000 0.000000  0.008153 -0.000259 0.000009
53  0.000001 0.000000 -0.000000  1.565115 0.043565 -0.106862
54  0.083368 -10.123809 -5.746886  -0.569515 0.055916 -1.981422
55  0.000000 0.000001 0.000000  0.000000 -0.000001 -0.000002
56  0.000030 0.000029 0.000001  -1.571902 -0.044449 -0.106509
57  12.000549 -19.544212 -17.246658  1.570796 -0.000000 0.000000
58  -15.417984 4.000748 -22.641926  1.570796 -0.000000 0.000000
59  1.941978 9.263218 -8.327020  1.570796 -0.000000 0.000000
60  -0.004311 0.001229 -0.000372  0.006898 -0.005534 -0.284229
61  0.826810 11.791080 -4.879054  1.570796 -0.000000 0.000000
62  0.000000 0.000000 0.000000  -0.078727 -3.136056 0.284226
63  0.000000 0.000000 0.000000  1.569293 -0.002880 0.000295
64  -1.932813 -10.850069 -3.897221  1.577668 0.029924 -0.008661
65  -0.000000 1.310396 2.931492  0.000000 -0.000000 -0.000000
66  0.000000 2.348401 7.027634  -0.065995 -0.000000 -0.000000
67  0.000000 2.151127 0.835170  0.000000 -0.000000 -0.000000
68  0.220965 1.913130 -0.326490  0.000000 -0.000000 -0.000000
69  0.000001 1.680519 1.788387  0.174533 -0.000000 -0.000000
70  -0.000002 1.676944 1.140923  0.000000 -0.000000 -0.000000
71  -1.879156 -11.380613 -1.951211  1.577668 0.029924 -0.008661
72  0.099359 -0.567852 0.567840  0.000000 -0.000000 -0.000000
73  -0.126037 -0.750850 0.522438  0.000000 -0.000000 -0.000000
time 13
0  0.000006 0.000000 0.000000  -1.570800 -1.391899 -1.570792
1  -9.841317 -7.634221 1.937669  -1.544956 -1.855077 -0.198630
2  6.027525 -0.000328 0.000190  0.108220 -1.486115 -2.116187
3  11.692114 0.000644 -0.000739  -0.990394 0.000005 -0.815447
4  11.480224 0.000518 -0.000546  1.004002 -0.320933 0.502508
5  3.666626 -0.163904 -1.204803  -0.521518 0.087549 -1.561764
6  1.312591 0.000008 0.000006  -0.003455 0.023748 -0.261067
7  0.729355 0.000054 0.000048  -0.003692 0.000415 -0.207428
8  3.942141 0.046331 -0.431543  -0.191130 0.163211 -1.373193
9  1.539111 0.000083 0.000003  -0.009231 0.037390 -0.482898
10  1.196333 0.000146 0.000028  -0.004293 0.000614 -0.368699
11  3.883510 -0.047212 0.431351  -0.037373 0.215001 -1.247633
12  1.719573 -0.000029 0.000018  -0.002535 0.012699 -0.523857
13  1.209179 0.000090 0.000011  -0.001972 0.002929 -0.578952
14  3.859677 -0.138418 1.332379  -0.243948 0.301790 -1.462391
15  1.719448 -0.000018 0.000028  0.001902 0.001157 -0.067177
16  1.099675 0.000049 0.000005  -0.000943 0.002399 -0.620101
17  0.020620 -0.848310 1.563299  -1.051853 -0.482046 -0.245411
18  1.789819 -0.000004 -0.000017  -0.006372 0.000636 0.163783
19  1.207017 -0.000012 -0.000045  -0.005701 -0.007470 -0.080032
20  5.740636 0.000388 -0.000699  -0.121679 0.000003 0.000063
21  11.481053 0.000282 -0.000763  -0.094528 -0.067254 0.066851
22  6.027524 -0.000329 0.000201  1.509392 -0.058431 1.837254
23  -0.000001 11.692099 -0.000007  -0.597788 -0.155716 -0.495833
24  0.000003 0.000008 0.000000  -0.121332 -0.000030 1.570738
25  -0.000000 -0.000011 0.000000  0.868960 0.000002 1.570712
26  -6.899342 -10.734701 0.826813  1.473120 1.855075 -0.198639
27  6.027517 -0.000263 -0.000216  1.614189 1.254221 -0.647402
28  11.691991 0.000161 0.000859  0.139889 0.000017 -1.007206
29  11.480496 0.000003 0.000829  -1.471191 0.539954 0.521740
30  3.710774 -0.434234 1.096848  1.026404 -0.065510 -1.746772
31  1.312560 0.000032 0.000000  0.009125 -0.048151 -0.330443
32  0.729347 0.000065 -0.000027  -0.114485 -0.164894 -1.313450
33  3.820807 -0.154609 0.327898  0.555542 -0.124005 -1.455370
34  1.539095 0.000005 -0.000001  0.044440 0.016119 -0.665069
35  1.196302 0.000080 -0.000004  -0.021234 -0.019061 -1.685460
36  3.882445 -0.171892 -0.416805  0.535558 -0.318596 -1.073563
37  1.719567 -0.000084 -0.000004  -0.000207 -0.028401 -1.197831
38  1.209194 0.000032 0.000012  -0.001057 -0.003336 -1.283781
39  3.859584 -0.149082 -1.331323  -0.052921 -0.216537 -0.446982
40  1.719411 -0.000097 -0.000037  0.028058 0.011401 -0.672573
41  1.099673 0.000023 0.000006  -0.005770 -0.009632 -0.908094
42  0.745980 -1.024093 -0.982297  1.100876 0.650866 -0.532646
43  1.789780 -0.000007 -0.000043  -0.089312 -0.070323 0.368343
44  1.206996 -0.000007 0.000005  0.000678 -0.214508 0.376133
45  5.740573 0.000080 0.000721  0.055494 -0.000014 0.000028
46  11.481043 0.000074 0.000911  -0.003178 0.089024 0.086442
47  6.027515 -0.000273 -0.000229  -1.317299 -0.191725 -1.584257
48  -0.000001 11.691975 -0.000008  -0.725200 0.231728 0.595279
49  0.000003 -0.000000 0.000001  2.412441 -0.000036 1.570860
50  -0.000007 -0.000013 0.000004  2.272645 -0.000036 1.570861
51  -2.560124 -8.323435 -4.860938  -0.310396 -2.868281 1.248924
52  0.000001 0.000000 -0.000000  0.008153 -0.000259 0.000009
53  -0.000000 0.000000 -0.000001  1.565115 0.043565 -0.106862
54  0.087944 -10.152826 -5.711262  -0.557547 0.048199 -1.975157
55  0.000001 0.000001 0.000000  0.000000 -0.000001 -0.000002
56  0.000032 0.000030 0.000001  -1.571902 -0.044449 -0.106509
57  12.000549 -19.544212 -17.246658  1.570796 -0.000000 0.000000
58  -15.417984 4.000748 -22.641926  1.570796 -0.000000 0.000000
59  1.941978 9.263218 -8.327020  1.570796 -0.000000 0.000000
60  -0.004311 0.001229 -0.000372  0.006898 -0.005534 -0.284229
61  0.826810 11.791080 -4.879054  1.570796 -0.000000 0.000000
62  0.000000 0.000000 0.000000  -0.078727 -3.136056 0.284226
63  0.000000 0.000000 0.000000  1.570142 -0.001568 0.000311
64  -1.938778 -10.868673 -3.869071  1.565890 0.021939 -0.003324
65  -0.000000 1.310396 2.931489  0.000000 -0.000000 0.000000
66  0.000000 2.348400 7.027630  -0.065995 -0.000000 -0.000000
67  0.000001 2.151126 0.835168  0.000000 -0.000000 0.000000
68  0.220966 1.913130 -0.326491  0.000000 -0.000000 0.000000
69  0.000001 1.680519 1.788386  0.174533 -0.000000 0.000000
70  -0.000002 1.676944 1.140922  0.000000 -0.000000 0.000000
71  -1.897622 -11.375906 -1.916552  1.565890 0.021939 -0.003324
72  0.099359 -0.567851 0.567841  0.000000 -0.000000 0.000000
73  -0.126036 -0.750849 0.522439  0.000000 -0.000000 0.000000
time 14
0  0.000006 0.000000 0.000000  -1.570800 -1.391899 -1.570792
1  -9.841317 -7.634221 1.937669  -1.544956 -1.855077 -0.198630
2  6.027525 -0.000328 0.000190  0.153238 -1.486547 -2.164685
3  11.692112 0.000644 -0.000738  -0.990393 0.000005 -0.807485
4  11.480459 0.000565 -0.000476  1.019388 -0.328139 0.499484
5  3.666626 -0.163903 -1.204802  -0.521518 0.087549 -1.561764
6  1.312589 0.000010 0.000008  -0.003455 0.023748 -0.261067
7  0.729355 0.000054 0.000049  -0.003692 0.000415 -0.207428
8  3.942140 0.046332 -0.431542  -0.191130 0.163211 -1.373193
9  1.539110 0.000084 0.000004  -0.009231 0.037390 -0.482898
10  1.196331 0.000145 0.000028  -0.004293 0.000614 -0.368699
11  3.883510 -0.047211 0.431351  -0.037373 0.215001 -1.247633
12  1.719573 -0.000029 0.000018  -0.002535 0.012699 -0.523857
13  1.209180 0.000091 0.000012  -0.001972 0.002929 -0.578953
14  3.859676 -0.138417 1.332380  -0.243948 0.301791 -1.462391
15  1.719447 -0.000018 0.000028  0.001902 0.001157 -0.067177
16  1.099675 0.000048 0.000005  -0.000943 0.002399 -0.620101
17  0.020620 -0.848309 1.563300  -1.051853 -0.482046 -0.245411
18  1.789819 -0.000005 -0.000017  -0.006372 0.000636 0.163783
19  1.207018 -0.000012 -0.000044  -0.005701 -0.007470 -0.080032
20  5.740636 0.000388 -0.000699  -0.118560 0.000003 0.000063
21  11.481100 0.000292 -0.000748  -0.091260 -0.067813 0.066544
22  6.027524 -0.000329 0.000201  1.507158 -0.055328 1.833740
23  -0.000001 11.692099 -0.000008  -0.592369 -0.152835 -0.491525
24  0.000004 0.000009 0.000000  -0.121332 -0.000031 1.570739
25  -0.000000 -0.000012 0.000000  0.868960 0.000002 1.570712
26  -6.899342 -10.734701 0.826813  1.473120 1.855075 -0.198639
27  6.027517 -0.000263 -0.000216  1.617051 1.258917 -0.644929
28  11.691992 0.000160 0.000859  0.139889 0.000016 -0.996791
29  11.480544 0.000023 0.000827  -1.461732 0.533338 0.509505
30  3.710775 -0.434235 1.096849  1.026404 -0.065510 -1.746772
31  1.312560 0.000031 -0.000001  0.009125 -0.048151 -0.330443
32  0.729347 0.000065 -0.000027  -0.114485 -0.164894 -1.313450
33  3.820806 -0.154609 0.327899  0.555542 -0.124005 -1.455370
34  1.539096 0.000004 -0.000001  0.044440 0.016119 -0.665069
35  1.196302 0.000079 -0.000004  -0.021234 -0.019061 -1.685460
36  3.882445 -0.171892 -0.416804  0.535557 -0.318596 -1.073563
37  1.719566 -0.000084 -0.000005  -0.000207 -0.028401 -1.197831
38  1.209193 0.000034 0.000011  -0.001057 -0.003336 -1.283781
39  3.859585 -0.149082 -1.331322  -0.052920 -0.216537 -0.446982
40  1.719410 -0.000097 -0.000037  0.028058 0.011401 -0.672573
41  1.099672 0.000022 0.000006  -0.005770 -0.009633 -0.908094
42  0.745979 -1.024093 -0.982296  1.100876 0.650866 -0.532646
43  1.789780 -0.000008 -0.000043  -0.089312 -0.070323 0.368343
44  1.206995 -0.000007 0.000005  0.000677 -0.214508 0.376133
45  5.740573 0.000080 0.000721  0.056571 -0.000014 0.000028
46  11.481053 0.000079 0.000911  -0.000653 0.088110 0.083638
47  6.027515 -0.000273 -0.000229  -1.320621 -0.188235 -1.583879
48  -0.000002 11.691975 -0.000008  -0.718425 0.227285 0.590096
49  0.000004 -0.000000 -0.000000  2.412441 -0.000036 1.570860
50  -0.000008 -0.000013 0.000004  2.272645 -0.000036 1.570861
51  -2.570242 -8.382740 -4.854759  -0.298962 -2.865280 1.256115
52  -0.000001 -0.000000 -0.000000  0.008153 -0.000259 0.000009
53  -0.000000 -0.000000 0.000000  1.565115 0.043565 -0.106862
54  0.104457 -10.189974 -5.668319  -0.546324 0.046095 -1.964334
55  0.000001 0.000001 0.000000  0.000000 -0.000001 -0.000002
56  0.000031 0.000030 0.000001  -1.571901 -0.044449 -0.106509
57  12.000549 -19.544212 -17.246658  1.570796 -0.000000 0.000000
58  -15.417984 4.000748 -22.641926  1.570796 -0.000000 0.000000
59  1.941978 9.263218 -8.327020  1.570796 -0.000000 0.000000
60  -0.004311 0.001229 -0.000372  0.006898 -0.005534 -0.284229
61  0.826810 11.791080 -4.879054  1.570796 -0.000000 0.000000
62  0.000000 0.000000 0.000000  -0.078727 -3.136056 0.284226
63  0.000000 0.000000 0.000000  1.570992 0.000868 0.000323
64  -1.932303 -10.915184 -3.840922  1.559578 0.012437 0.006861
65  -0.000000 1.310396 2.931490  -0.000000 0.000000 -0.000000
66  0.000000 2.348400 7.027633  -0.065995 -0.000000 -0.000000
67  0.000000 2.151126 0.835169  -0.000000 0.000000 -0.000000
68  0.220965 1.913130 -0.326491  -0.000000 0.000000 -0.000000
69  0.000001 1.680519 1.788386  0.174533 0.000000 -0.000000
70  -0.000002 1.676944 1.140922  -0.000000 0.000000 -0.000000
71  -1.904580 -11.409762 -1.884922  1.559578 0.012437 0.006861
72  0.099359 -0.567851 0.567841  -0.000000 0.000000 -0.000000
73  -0.126037 -0.750849 0.522439  -0.000000 0.000000 -0.000000
time 15
0  0.000006 0.000000 0.000000  -1.570800 -1.391899 -1.570792
1  -9.841317 -7.634221 1.937669  -1.544956 -1.855077 -0.198630
2  6.027525 -0.000328 0.000190  0.191382 -1.486880 -2.206104
3  11.692114 0.000646 -0.000739  -0.990393 0.000005 -0.799382
4  11.480700 0.000609 -0.000405  1.027430 -0.329794 0.504465
5  3.666626 -0.163904 -1.204803  -0.521518 0.087549 -1.561764
6  1.312589 0.000010 0.000007  -0.003455 0.023748 -0.261067
7  0.729356 0.000054 0.000049  -0.003692 0.000415 -0.207428
8  3.942140 0.046331 -0.431543  -0.191130 0.163211 -1.373193
9  1.539111 0.000083 0.000005  -0.009231 0.037390 -0.482898
10  1.196334 0.000146 0.000028  -0.004293 0.000614 -0.368699
11  3.883511 -0.047212 0.431351  -0.037373 0.215001 -1.247633
12  1.719573 -0.000030 0.000017  -0.002535 0.012699 -0.523857
13  1.209178 0.000091 0.000012  -0.001972 0.002929 -0.578952
14  3.859676 -0.138418 1.332379  -0.243948 0.301790 -1.462391
15  1.719447 -0.000017 0.000029  0.001902 0.001157 -0.067177
16  1.099675 0.000049 0.000006  -0.000943 0.002399 -0.620101
17  0.020620 -0.848310 1.563298  -1.051853 -0.482046 -0.245411
18  1.789818 -0.000004 -0.000017  -0.006372 0.000636 0.163783
19  1.207015 -0.000013 -0.000045  -0.005701 -0.007470 -0.080032
20  5.740636 0.000386 -0.000699  -0.116617 0.000003 0.000064
21  11.481148 0.000300 -0.000735  -0.089515 -0.067972 0.067778
22  6.027524 -0.000329 0.000201  1.505360 -0.052654 1.830426
23  -0.000001 11.692100 -0.000008  -0.586844 -0.149926 -0.487127
24  0.000004 0.000008 -0.000000  -0.121332 -0.000031 1.570739
25  0.000000 -0.000011 -0.000000  0.868960 0.000002 1.570712
26  -6.899342 -10.734701 0.826813  1.473120 1.855075 -0.198639
27  6.027517 -0.000263 -0.000216  1.618707 1.264959 -0.643372
28  11.691990 0.000161 0.000858  0.139888 0.000016 -0.985485
29  11.480598 0.000046 0.000824  -1.452067 0.527016 0.508528
30  3.710775 -0.434234 1.096849  1.026404 -0.065510 -1.746772
31  1.312561 0.000031 -0.000002  0.009125 -0.048151 -0.330443
32  0.729347 0.000064 -0.000028  -0.114485 -0.164894 -1.313450
33  3.820806 -0.154608 0.327900  0.555542 -0.124005 -1.455370
34  1.539095 0.000004 -0.000001  0.044440 0.016119 -0.665069
35  1.196302 0.000080 -0.000003  -0.021234 -0.019061 -1.685460
36  3.882446 -0.171892 -0.416804  0.535558 -0.318596 -1.073563
37  1.719565 -0.000083 -0.000005  -0.000207 -0.028401 -1.197831
38  1.209194 0.000035 0.000011  -0.001057 -0.003336 -1.283781
39  3.859586 -0.149082 -1.331321  -0.052921 -0.216537 -0.446982
40  1.719413 -0.000097 -0.000037  0.028058 0.011401 -0.672573
41  1.099673 0.000023 0.000006  -0.005770 -0.009633 -0.908094
42  0.745979 -1.024092 -0.982296  1.100876 0.650866 -0.532646
43  1.789780 -0.000007 -0.000042  -0.089312 -0.070323 0.368343
44  1.206996 -0.000006 0.000005  0.000678 -0.214508 0.376133
45  5.740572 0.000078 0.000721  0.057653 -0.000014 0.000028
46  11.481063 0.000083 0.000910  0.001493 0.087284 0.083023
47  6.027515 -0.000273 -0.000229  -1.325282 -0.184261 -1.583036
48  -0.000002 11.691975 -0.000008  -0.711052 0.222501 0.584440
49  0.000004 -0.000001 0.000000  2.412441 -0.000036 1.570860
50  -0.000008 -0.000012 0.000004  2.272645 -0.000036 1.570861
51  -2.561787 -8.443382 -4.838744  -0.292036 -2.870923 1.259762
52  -0.000000 0.000000 0.000000  0.008153 -0.000259 0.000009
53  0.000000 0.000000 0.000000  1.565115 0.043565 -0.106862
54  0.129348 -10.233139 -5.636584  -0.540106 0.052239 -1.958511
55  -0.000001 -0.000000 -0.000001  0.000000 -0.000001 -0.000002
56  0.000029 0.000029 0.000000  -1.571901 -0.044449 -0.106509
57  12.000549 -19.544212 -17.246658  1.570796 -0.000000 0.000000
58  -15.417984 4.000748 -22.641926  1.570796 -0.000000 0.000000
59  1.941978 9.263218 -8.327020  1.570796 -0.000000 0.000000
60  -0.004311 0.001229 -0.000372  0.006898 -0.005534 -0.284229
61  0.826810 11.791080 -4.879054  1.570796 -0.000000 0.000000
62  0.000000 0.000000 0.000000  -0.078727 -3.136056 0.284226
63  0.000000 0.000000 0.000000  1.571378 0.002180 0.000327
64  -1.918056 -10.975648 -3.828126  1.562817 0.004323 0.012405
65  -0.000001 1.310396 2.931490  -0.000000 0.000000 -0.000000
66  0.000000 2.348401 7.027632  -0.065995 -0.000000 -0.000000
67  0.000000 2.151126 0.835168  -0.000000 0.000000 -0.000000
68  0.220965 1.913130 -0.326492  -0.000000 0.000000 -0.000000
69  0.000001 1.680519 1.788386  0.174533 0.000000 -0.000000
70  -0.000002 1.676944 1.140922  -0.000000 0.000000 -0.000000
71  -1.903391 -11.476593 -1.873606  1.562817 0.004323 0.012405
72  0.099359 -0.567851 0.567842  -0.000000 0.000000 -0.000000
73  -0.126037 -0.750849 0.522438  -0.000000 0.000000 -0.000000
time 16
0  0.000006 0.000000 0.000000  -1.570800 -1.391899 -1.570792
1  -9.841317 -7.634221 1.937669  -1.544956 -1.855077 -0.198630
2  6.027525 -0.000328 0.000190  0.228640 -1.486740 -2.245330
3  11.692113 0.000646 -0.000739  -0.990392 0.000006 -0.789941
4  11.480731 0.000616 -0.000397  1.030185 -0.323182 0.508594
5  3.666628 -0.163903 -1.204803  -0.521518 0.087549 -1.561764
6  1.312590 0.000008 0.000006  -0.003455 0.023748 -0.261067
7  0.729355 0.000055 0.000050  -0.003692 0.000415 -0.207428
8  3.942142 0.046331 -0.431543  -0.191130 0.163211 -1.373193
9  1.539111 0.000085 0.000004  -0.009231 0.037390 -0.482898
10  1.196332 0.000145 0.000028  -0.004293 0.000614 -0.368699
11  3.883512 -0.047211 0.431351  -0.037373 0.215001 -1.247633
12  1.719573 -0.000028 0.000017  -0.002535 0.012699 -0.523857
13  1.209180 0.000089 0.000012  -0.001972 0.002929 -0.578952
14  3.859678 -0.138418 1.332379  -0.243948 0.301790 -1.462391
15  1.719448 -0.000018 0.000028  0.001902 0.001157 -0.067177
16  1.099676 0.000049 0.000005  -0.000943 0.002399 -0.620101
17  0.020620 -0.848310 1.563299  -1.051853 -0.482046 -0.245411
18  1.789820 -0.000004 -0.000017  -0.006372 0.000636 0.163783
19  1.207017 -0.000012 -0.000044  -0.005701 -0.007470 -0.080032
20  5.740635 0.000388 -0.000699  -0.115500 0.000003 0.000063
21  11.481154 0.000303 -0.000732  -0.089280 -0.066760 0.069033
22  6.027524 -0.000329 0.000201  1.503337 -0.050265 1.828432
23  0.000000 11.692099 -0.000008  -0.580394 -0.146568 -0.481985
24  0.000003 0.000008 0.000000  -0.121332 -0.000031 1.570739
25  0.000001 -0.000012 -0.000000  0.868960 0.000002 1.570712
26  -6.899342 -10.734701 0.826813  1.473120 1.855075 -0.198639
27  6.027517 -0.000263 -0.000216  1.617977 1.270684 -0.643769
28  11.691991 0.000161 0.000858  0.139888 0.000015 -0.975203
29  11.480657 0.000070 0.000819  -1.447015 0.526194 0.512119
30  3.710774 -0.434235 1.096848  1.026404 -0.065510 -1.746772
31  1.312560 0.000032 -0.000001  0.009125 -0.048151 -0.330443
32  0.729347 0.000066 -0.000027  -0.114485 -0.164894 -1.313450
33  3.820807 -0.154609 0.327899  0.555542 -0.124005 -1.455370
34  1.539095 0.000004 -0.000002  0.044440 0.016119 -0.665069
35  1.196302 0.000081 -0.000004  -0.021234 -0.019061 -1.685460
36  3.882446 -0.171893 -0.416805  0.535558 -0.318596 -1.073563
37  1.719567 -0.000083 -0.000005  -0.000207 -0.028401 -1.197831
38  1.209193 0.000035 0.000012  -0.001057 -0.003336 -1.283781
39  3.859585 -0.149082 -1.331323  -0.052920 -0.216537 -0.446982
40  1.719412 -0.000097 -0.000037  0.028058 0.011401 -0.672573
41  1.099671 0.000023 0.000006  -0.005770 -0.009632 -0.908094
42  0.745980 -1.024093 -0.982297  1.100876 0.650866 -0.532646
43  1.789780 -0.000007 -0.000042  -0.089312 -0.070323 0.368343
44  1.206995 -0.000006 0.000005  0.000678 -0.214508 0.376133
45  5.740573 0.000079 0.000720  0.058002 -0.000014 0.000028
46  11.481076 0.000088 0.000908  0.002346 0.087352 0.083457
47  6.027515 -0.000273 -0.000229  -1.330111 -0.181055 -1.581859
48  -0.000002 11.691974 -0.000008  -0.704330 0.218186 0.579272
49  0.000004 -0.000001 -0.000000  2.412441 -0.000036 1.570860
50  -0.000007 -0.000013 0.000004  2.272645 -0.000036 1.570861
51  -2.539442 -8.496638 -4.829172  -0.290367 -2.877813 1.257572
52  -0.000001 0.000000 -0.000001  0.008153 -0.000259 0.000009
53  0.000000 -0.000001 -0.000001  1.565115 0.043565 -0.106862
54  0.151475 -10.286264 -5.628048  -0.539026 0.059232 -1.960200
55  -0.000000 -0.000000 0.000001  0.000000 -0.000001 -0.000002
56  0.000029 0.000028 0.000001  -1.571901 -0.044449 -0.106509
57  12.000549 -19.544212 -17.246658  1.570796 -0.000000 0.000000
58  -15.417984 4.000748 -22.641926  1.570796 -0.000000 0.000000
59  1.941978 9.263218 -8.327020  1.570796 -0.000000 0.000000
60  -0.004311 0.001229 -0.000372  0.006898 -0.005534 -0.284229
61  0.826810 11.791080 -4.879054  1.570796 -0.000000 0.000000
62  0.000000 0.000000 0.000000  -0.078727 -3.136056 0.284226
63  0.000000 0.000000 0.000000  1.571317 0.001545 0.000293
64  -1.903809 -11.036112 -3.831596  1.568838 0.000606 0.010671
65  -0.000001 1.310396 2.931489  -0.000000 -0.000000 -0.000000
66  0.000000 2.348400 7.027629  -0.065995 -0.000000 -0.000000
67  0.000000 2.151127 0.835168  -0.000000 -0.000000 -0.000000
68  0.220965 1.913130 -0.326492  -0.000000 -0.000000 -0.000000
69  0.000000 1.680519 1.788386  0.174533 -0.000000 -0.000000
70  -0.000002 1.676944 1.140922  -0.000000 -0.000000 -0.000000
71  -1.897153 -11.548918 -1.880110  1.568838 0.000606 0.010671
72  0.099359 -0.567852 0.567841  -0.000000 -0.000000 -0.000000
73  -0.126037 -0.750849 0.522438  -0.000000 -0.000000 -0.000000
time 17
0  0.000006 0.000000 0.000000  -1.570800 -1.391899 -1.570792
1  -9.841317 -7.634221 1.937669  -1.544956 -1.855077 -0.198630
2  6.027525 -0.000328 0.000190  0.263813 -1.486143 -2.281133
3  11.692112 0.000644 -0.000740  -0.990392 0.000006 -0.780972
4  11.480761 0.000620 -0.000389  1.031336 -0.314854 0.508144
5  3.666626 -0.163904 -1.204802  -0.521518 0.087549 -1.561764
6  1.312588 0.000008 0.000008  -0.003455 0.023748 -0.261067
7  0.729354 0.000054 0.000049  -0.003692 0.000415 -0.207428
8  3.942140 0.046331 -0.431542  -0.191130 0.163211 -1.373193
9  1.539110 0.000085 0.000004  -0.009231 0.037390 -0.482898
10  1.196332 0.000148 0.000028  -0.004293 0.000614 -0.368699
11  3.883510 -0.047212 0.431351  -0.037373 0.215001 -1.247633
12  1.719573 -0.000029 0.000017  -0.002535 0.012699 -0.523857
13  1.209178 0.000089 0.000012  -0.001972 0.002929 -0.578952
14  3.859676 -0.138418 1.332380  -0.243948 0.301790 -1.462391
15  1.719448 -0.000018 0.000028  0.001902 0.001157 -0.067177
16  1.099675 0.000050 0.000006  -0.000943 0.002399 -0.620101
17  0.020619 -0.848310 1.563299  -1.051853 -0.482046 -0.245411
18  1.789818 -0.000005 -0.000017  -0.006372 0.000636 0.163783
19  1.207016 -0.000012 -0.000044  -0.005701 -0.007470 -0.080032
20  5.740636 0.000387 -0.000700  -0.114784 0.000003 0.000063
21  11.481160 0.000303 -0.000732  -0.089561 -0.065113 0.069406
22  6.027524 -0.000329 0.000201  1.501124 -0.048203 1.827785
23  -0.000001 11.692098 -0.000008  -0.574253 -0.143408 -0.477082
24  0.000003 0.000008 0.000000  -0.121333 -0.000030 1.570739
25  0.000000 -0.000011 0.000000  0.868960 0.000002 1.570712
26  -6.899342 -10.734701 0.826813  1.473120 1.855075 -0.198639
27  6.027517 -0.000263 -0.000216  1.616756 1.274734 -0.644635
28  11.691991 0.000161 0.000859  0.139887 0.000015 -0.967379
29  11.480696 0.000089 0.000818  -1.446278 0.528298 0.513249
30  3.710775 -0.434235 1.096848  1.026404 -0.065510 -1.746772
31  1.312560 0.000031 0.000000  0.009125 -0.048151 -0.330443
32  0.729348 0.000065 -0.000026  -0.114485 -0.164894 -1.313450
33  3.820807 -0.154609 0.327898  0.555542 -0.124005 -1.455370
34  1.539096 0.000005 -0.000001  0.044440 0.016119 -0.665069
35  1.196302 0.000081 -0.000004  -0.021234 -0.019061 -1.685460
36  3.882446 -0.171892 -0.416805  0.535557 -0.318596 -1.073563
37  1.719567 -0.000084 -0.000005  -0.000207 -0.028401 -1.197831
38  1.209193 0.000033 0.000012  -0.001057 -0.003336 -1.283781
39  3.859585 -0.149082 -1.331323  -0.052921 -0.216537 -0.446982
40  1.719412 -0.000097 -0.000037  0.028058 0.011401 -0.672573
41  1.099672 0.000023 0.000006  -0.005770 -0.009632 -0.908094
42  0.745980 -1.024093 -0.982297  1.100876 0.650866 -0.532646
43  1.789781 -0.000007 -0.000042  -0.089312 -0.070323 0.368343
44  1.206994 -0.000007 0.000005  0.000678 -0.214508 0.376133
45  5.740572 0.000080 0.000721  0.057694 -0.000014 0.000028
46  11.481082 0.000092 0.000909  0.002335 0.087798 0.083594
47  6.027515 -0.000273 -0.000229  -1.333644 -0.178947 -1.580925
48  -0.000002 11.691975 -0.000008  -0.699204 0.214925 0.575322
49  0.000003 -0.000000 -0.000001  2.412441 -0.000036 1.570860
50  -0.000007 -0.000012 0.000004  2.272645 -0.000036 1.570861
51  -2.522813 -8.537479 -4.829378  -0.291086 -2.881011 1.253894
52  0.000000 0.000000 0.000001  0.008153 -0.000259 0.000009
53  0.000001 -0.000000 -0.000001  1.565115 0.043565 -0.106862
54  0.161438 -10.334881 -5.633204  -0.539964 0.062367 -1.964121
55  0.000001 -0.000000 0.000000  0.000000 -0.000001 -0.000002
56  0.000031 0.000028 0.000001  -1.571901 -0.044449 -0.106509
57  12.000549 -19.544212 -17.246658  1.570796 -0.000000 0.000000
58  -15.417984 4.000748 -22.641926  1.570796 -0.000000 0.000000
59  1.941978 9.263218 -8.327020  1.570796 -0.000000 0.000000
60  -0.004311 0.001229 -0.000372  0.006898 -0.005534 -0.284229
61  0.826810 11.791080 -4.879054  1.570796 -0.000000 0.000000
62  0.000000 0.000000 0.000000  -0.078727 -3.136056 0.284226
63  0.000000 0.000000 0.000000  1.571173 0.000365 0.000212
64  -1.897333 -11.082623 -3.839869  1.572090 0.000247 0.006808
65  -0.000001 1.310396 2.931491  -0.000000 0.000000 -0.000000
66  0.000000 2.348401 7.027633  -0.065995 -0.000000 -0.000000
67  0.000000 2.151127 0.835169  -0.000000 0.000000 -0.000000
68  0.220965 1.913130 -0.326491  -0.000000 0.000000 -0.000000
69  0.000001 1.680519 1.788387  0.174533 0.000000 -0.000000
70  -0.000002 1.676944 1.140924  -0.000000 0.000000 -0.000000
71  -1.893316 -11.601798 -1.890061  1.572090 0.000247 0.006808
72  0.099359 -0.567851 0.567842  -0.000000 0.000000 -0.000000
73  -0.126037 -0.750849 0.522440  -0.000000 0.000000 -0.000000
time 18
0  0.000006 0.000000 0.000000  -1.570800 -1.391899 -1.570792
1  -9.841317 -7.634221 1.937669  -1.544956 -1.855077 -0.198630
2  6.027525 -0.000328 0.000190  0.285158 -1.485511 -2.302138
3  11.692113 0.000646 -0.000739  -0.990391 0.000006 -0.775648
4  11.480772 0.000624 -0.000385  1.033111 -0.308554 0.505334
5  3.666628 -0.163903 -1.204801  -0.521518 0.087549 -1.561764
6  1.312589 0.000011 0.000007  -0.003455 0.023748 -0.261067
7  0.729355 0.000054 0.000048  -0.003692 0.000415 -0.207428
8  3.942140 0.046331 -0.431543  -0.191130 0.163211 -1.373193
9  1.539111 0.000084 0.000003  -0.009231 0.037390 -0.482898
10  1.196332 0.000146 0.000028  -0.004293 0.000614 -0.368699
11  3.883510 -0.047211 0.431351  -0.037373 0.215001 -1.247633
12  1.719573 -0.000028 0.000017  -0.002535 0.012699 -0.523857
13  1.209180 0.000089 0.000013  -0.001972 0.002929 -0.578952
14  3.859676 -0.138418 1.332380  -0.243948 0.301790 -1.462391
15  1.719448 -0.000018 0.000029  0.001902 0.001157 -0.067177
16  1.099676 0.000049 0.000006  -0.000943 0.002399 -0.620101
17  0.020620 -0.848310 1.563299  -1.051853 -0.482046 -0.245411
18  1.789820 -0.000004 -0.000016  -0.006372 0.000636 0.163783
19  1.207016 -0.000013 -0.000044  -0.005701 -0.007470 -0.080032
20  5.740635 0.000388 -0.000700  -0.114148 0.000003 0.000063
21  11.481162 0.000305 -0.000730  -0.089657 -0.063726 0.069239
22  6.027524 -0.000329 0.000201  1.499587 -0.047053 1.828122
23  0.000001 11.692099 -0.000008  -0.570601 -0.141546 -0.474163
24  0.000005 0.000009 0.000000  -0.121332 -0.000031 1.570739
25  0.000001 -0.000012 0.000000  0.868960 0.000002 1.570712
26  -6.899342 -10.734701 0.826813  1.473120 1.855075 -0.198639
27  6.027517 -0.000263 -0.000216  1.615407 1.275820 -0.645709
28  11.691990 0.000161 0.000858  0.139887 0.000015 -0.964398
29  11.480715 0.000095 0.000816  -1.446273 0.532150 0.512770
30  3.710774 -0.434234 1.096848  1.026404 -0.065510 -1.746772
31  1.312561 0.000031 -0.000000  0.009125 -0.048151 -0.330443
32  0.729347 0.000065 -0.000027  -0.114485 -0.164894 -1.313450
33  3.820806 -0.154608 0.327899  0.555542 -0.124005 -1.455370
34  1.539094 0.000004 -0.000001  0.044440 0.016119 -0.665069
35  1.196302 0.000081 -0.000004  -0.021234 -0.019061 -1.685460
36  3.882445 -0.171892 -0.416804  0.535558 -0.318596 -1.073563
37  1.719566 -0.000084 -0.000005  -0.000207 -0.028401 -1.197831
38  1.209193 0.000034 0.000012  -0.001057 -0.003336 -1.283781
39  3.859584 -0.149082 -1.331322  -0.052920 -0.216537 -0.446982
40  1.719412 -0.000097 -0.000037  0.028058 0.011401 -0.672573
41  1.099673 0.000022 0.000006  -0.005770 -0.009633 -0.908094
42  0.745979 -1.024092 -0.982296  1.100876 0.650866 -0.532646
43  1.789780 -0.000007 -0.000042  -0.089312 -0.070323 0.368343
44  1.206996 -0.000007 0.000005  0.000678 -0.214508 0.376133
45  5.740572 0.000079 0.000720  0.057538 -0.000014 0.000028
46  11.481087 0.000093 0.000908  0.002157 0.088546 0.083423
47  6.027515 -0.000273 -0.000229  -1.334769 -0.178618 -1.580508
48  -0.000001 11.691976 -0.000008  -0.697248 0.213688 0.573813
49  0.000003 -0.000000 0.000000  2.412441 -0.000036 1.570860
50  -0.000008 -0.000013 0.000004  2.272645 -0.000036 1.570861
51  -2.517507 -8.554000 -4.840214  -0.290805 -2.880747 1.249929
52  0.000000 0.000000 0.000000  0.008153 -0.000259 0.000009
53  -0.000000 0.000000 -0.000000  1.565115 0.043565 -0.106862
54  0.159866 -10.362106 -5.642967  -0.539672 0.062125 -1.967996
55  -0.000001 0.000000 0.000000  0.000000 -0.000001 -0.000002
56  0.000029 0.000029 0.000001  -1.571901 -0.044449 -0.106509
57  12.000549 -19.544212 -17.246658  1.570796 -0.000000 0.000000
58  -15.417984 4.000748 -22.641926  1.570796 -0.000000 0.000000
59  1.941978 9.263218 -8.327020  1.570796 -0.000000 0.000000
60  -0.004311 0.001229 -0.000372  0.006898 -0.005534 -0.284229
61  0.826810 11.791080 -4.879054  1.570796 -0.000000 0.000000
62  0.000000 0.000000 0.000000  -0.078727 -3.136056 0.284226
63  0.000000 0.000000 0.000000  1.571001 -0.000270 0.000115
64  -1.902113 -11.101227 -3.849744  1.571754 0.000073 0.002915
65  -0.000001 1.310396 2.931491  0.000000 -0.000000 0.000000
66  0.000000 2.348400 7.027630  -0.065995 -0.000000 -0.000000
67  0.000000 2.151127 0.835169  0.000000 -0.000000 0.000000
68  0.220965 1.913130 -0.326491  0.000000 -0.000000 0.000000
69  0.000001 1.680519 1.788386  0.174533 -0.000000 0.000000
70  -0.000002 1.676943 1.140923  0.000000 -0.000000 0.000000
71  -1.900458 -11.619760 -1.899762  1.571754 0.000073 0.002915
72  0.099359 -0.567851 0.567842  0.000000 -0.000000 0.000000
73  -0.126037 -0.750849 0.522439  0.000000 -0.000000 0.000000
time 19
0  0.000006 0.000000 0.000000  -1.570800 -1.391899 -1.570792
1  -9.841317 -7.634221 1.937669  -1.544956 -1.855077 -0.198630
2  6.027525 -0.000328 0.000190  0.291157 -1.485139 -2.307407
3  11.692112 0.000644 -0.000739  -0.990391 0.000006 -0.774271
4  11.480780 0.000627 -0.000383  1.033545 -0.305849 0.503782
5  3.666628 -0.163903 -1.204802  -0.521518 0.087549 -1.561764
6  1.312588 0.000010 0.000006  -0.003455 0.023748 -0.261067
7  0.729355 0.000055 0.000048  -0.003692 0.000415 -0.207428
8  3.942140 0.046332 -0.431543  -0.191130 0.163211 -1.373193
9  1.539110 0.000084 0.000004  -0.009231 0.037390 -0.482898
10  1.196334 0.000145 0.000028  -0.004293 0.000614 -0.368699
11  3.883511 -0.047211 0.431351  -0.037373 0.215001 -1.247633
12  1.719573 -0.000027 0.000017  -0.002535 0.012699 -0.523857
13  1.209179 0.000089 0.000013  -0.001972 0.002930 -0.578952
14  3.859677 -0.138417 1.332380  -0.243948 0.301790 -1.462391
15  1.719448 -0.000019 0.000028  0.001902 0.001157 -0.067177
16  1.099675 0.000049 0.000006  -0.000943 0.002399 -0.620101
17  0.020620 -0.848310 1.563299  -1.051853 -0.482046 -0.245411
18  1.789819 -0.000004 -0.000017  -0.006372 0.000636 0.163783
19  1.207018 -0.000013 -0.000044  -0.005701 -0.007470 -0.080032
20  5.740635 0.000388 -0.000699  -0.113970 0.000003 0.000063
21  11.481164 0.000305 -0.000730  -0.089767 -0.063132 0.069086
22  6.027524 -0.000329 0.000201  1.498995 -0.046828 1.828858
23  -0.000001 11.692098 -0.000007  -0.569656 -0.141067 -0.473407
24  0.000003 0.000008 -0.000000  -0.121333 -0.000030 1.570739
25  -0.000000 -0.000011 -0.000000  0.868960 0.000002 1.570712
26  -6.899342 -10.734701 0.826813  1.473120 1.855075 -0.198639
27  6.027517 -0.000263 -0.000216  1.614829 1.275173 -0.646206
28  11.691990 0.000161 0.000858  0.139887 0.000015 -0.964761
29  11.480716 0.000094 0.000816  -1.446365 0.534556 0.512901
30  3.710774 -0.434234 1.096849  1.026404 -0.065510 -1.746772
31  1.312560 0.000031 -0.000001  0.009125 -0.048151 -0.330443
32  0.729347 0.000065 -0.000028  -0.114485 -0.164894 -1.313450
33  3.820805 -0.154609 0.327900  0.555542 -0.124005 -1.455370
34  1.539095 0.000004 -0.000001  0.044440 0.016119 -0.665069
35  1.196302 0.000080 -0.000004  -0.021234 -0.019061 -1.685460
36  3.882446 -0.171893 -0.416803  0.535558 -0.318596 -1.073563
37  1.719565 -0.000084 -0.000005  -0.000207 -0.028401 -1.197831
38  1.209193 0.000035 0.000011  -0.001057 -0.003336 -1.283781
39  3.859584 -0.149082 -1.331321  -0.052921 -0.216537 -0.446982
40  1.719412 -0.000097 -0.000037  0.028058 0.011401 -0.672573
41  1.099671 0.000022 0.000006  -0.005770 -0.009633 -0.908094
42  0.745979 -1.024093 -0.982295  1.100876 0.650866 -0.532646
43  1.789780 -0.000008 -0.000042  -0.089312 -0.070323 0.368343
44  1.206994 -0.000007 0.000005  0.000678 -0.214508 0.376133
45  5.740573 0.000079 0.000720  0.057541 -0.000013 0.000028
46  11.481088 0.000092 0.000908  0.002012 0.089011 0.083405
47  6.027515 -0.000273 -0.000229  -1.334342 -0.179138 -1.580528
48  -0.000001 11.691974 -0.000008  -0.697486 0.213838 0.573997
49  0.000003 -0.000001 0.000001  2.412441 -0.000036 1.570860
50  -0.000008 -0.000014 0.000004  2.272645 -0.000036 1.570861
51  -2.520561 -8.553232 -4.850113  -0.290537 -2.880177 1.247599
52  -0.000001 0.000000 -0.000000  0.008153 -0.000259 0.000009
53  0.000000 -0.000000 0.000000  1.565115 0.043565 -0.106862
54  0.152769 -10.367889 -5.651564  -0.539370 0.061577 -1.970239
55  0.000000 0.000000 0.000001  0.000000 -0.000001 -0.000002
56  0.000030 0.000029 0.000002  -1.571901 -0.044449 -0.106509
57  12.000549 -19.544212 -17.246658  1.570796 -0.000000 0.000000
58  -15.417984 4.000748 -22.641926  1.570796 -0.000000 0.000000
59  1.941978 9.263218 -8.327020  1.570796 -0.000000 0.000000
60  -0.004311 0.001229 -0.000372  0.006898 -0.005534 -0.284229
61  0.826810 11.791080 -4.879054  1.570796 -0.000000 0.000000
62  0.000000 0.000000 0.000000  -0.078727 -3.136056 0.284226
63  0.000000 0.000000 0.000000  1.570857 -0.000135 0.000034
64  -1.910991 -11.101227 -3.858017  1.571131 0.000009 0.000654
65  -0.000001 1.310396 2.931490  -0.000000 0.000000 0.000000
66  0.000000 2.348401 7.027633  -0.065995 -0.000000 -0.000000
67  0.000000 2.151127 0.835168  -0.000000 0.000000 0.000000
68  0.220965 1.913130 -0.326491  -0.000000 0.000000 0.000000
69  0.000001 1.680519 1.788386  0.174533 0.000000 0.000000
70  -0.000002 1.676944 1.140923  -0.000000 0.000000 0.000000
71  -1.910633 -11.618549 -1.907713  1.571131 0.000009 0.000654
72  0.099359 -0.567851 0.567841  -0.000000 0.000000 0.000000
73  -0.126037 -0.750849 0.522439  -0.000000 0.000000 0.000000
time 20
0  0.000006 0.000000 0.000000  -1.570800 -1.391899 -1.570792
1  -9.841317 -7.634221 1.937669  -1.544956 -1.855077 -0.198630
2  6.027525 -0.000328 0.000190  0.294190 -1.484948 -2.310065
3  11.692114 0.000647 -0.000740  -0.990391 0.000006 -0.773691
4  11.480782 0.000624 -0.000382  1.033675 -0.305056 0.503044
5  3.666628 -0.163903 -1.204802  -0.521518 0.087549 -1.561764
6  1.312589 0.000009 0.000007  -0.003455 0.023748 -0.261067
7  0.729354 0.000054 0.000049  -0.003692 0.000415 -0.207428
8  3.942141 0.046331 -0.431543  -0.191130 0.163211 -1.373193
9  1.539110 0.000083 0.000004  -0.009231 0.037390 -0.482898
10  1.196332 0.000146 0.000029  -0.004293 0.000614 -0.368699
11  3.883510 -0.047212 0.431350  -0.037373 0.215001 -1.247633
12  1.719573 -0.000029 0.000017  -0.002535 0.012699 -0.523857
13  1.209178 0.000090 0.000012  -0.001972 0.002929 -0.578952
14  3.859677 -0.138417 1.332379  -0.243948 0.301790 -1.462391
15  1.719448 -0.000019 0.000029  0.001902 0.001157 -0.067177
16  1.099675 0.000048 0.000006  -0.000943 0.002399 -0.620101
17  0.020619 -0.848310 1.563299  -1.051853 -0.482046 -0.245411
18  1.789820 -0.000004 -0.000017  -0.006372 0.000636 0.163783
19  1.207018 -0.000012 -0.000044  -0.005701 -0.007470 -0.080032
20  5.740636 0.000387 -0.000699  -0.113916 0.000003 0.000063
21  11.481164 0.000304 -0.000729  -0.089805 -0.062946 0.068985
22  6.027524 -0.000329 0.000201  1.498693 -0.046714 1.829235
23  -0.000001 11.692098 -0.000008  -0.569257 -0.140864 -0.473088
24  0.000003 0.000008 -0.000001  -0.121332 -0.000031 1.570739
25  -0.000000 -0.000011 0.000000  0.868960 0.000002 1.570712
26  -6.899342 -10.734701 0.826813  1.473120 1.855075 -0.198639
27  6.027517 -0.000263 -0.000216  1.614801 1.274843 -0.646239
28  11.691991 0.000162 0.000858  0.139887 0.000015 -0.964909
29  11.480714 0.000092 0.000817  -1.446455 0.535260 0.512682
30  3.710774 -0.434235 1.096849  1.026404 -0.065510 -1.746772
31  1.312561 0.000032 -0.000001  0.009125 -0.048151 -0.330443
32  0.729347 0.000064 -0.000027  -0.114485 -0.164894 -1.313450
33  3.820806 -0.154609 0.327900  0.555542 -0.124005 -1.455370
34  1.539095 0.000004 -0.000001  0.044440 0.016119 -0.665069
35  1.196302 0.000081 -0.000004  -0.021234 -0.019061 -1.685460
36  3.882446 -0.171893 -0.416804  0.535558 -0.318596 -1.073563
37  1.719566 -0.000084 -0.000005  -0.000207 -0.028401 -1.197831
38  1.209193 0.000035 0.000011  -0.001057 -0.003336 -1.283781
39  3.859584 -0.149082 -1.331322  -0.052920 -0.216537 -0.446982
40  1.719413 -0.000097 -0.000037  0.028058 0.011401 -0.672573
41  1.099673 0.000022 0.000006  -0.005770 -0.009632 -0.908094
42  0.745979 -1.024092 -0.982296  1.100876 0.650866 -0.532646
43  1.789780 -0.000007 -0.000042  -0.089312 -0.070323 0.368343
44  1.206996 -0.000006 0.000005  0.000678 -0.214508 0.376133
45  5.740573 0.000078 0.000720  0.057524 -0.000014 0.000028
46  11.481087 0.000092 0.000908  0.001968 0.089143 0.083353
47  6.027515 -0.000273 -0.000229  -1.334077 -0.179341 -1.580582
48  -0.000002 11.691977 -0.000008  -0.697583 0.213899 0.574072
49  0.000003 0.000000 0.000001  2.412441 -0.000036 1.570860
50  -0.000007 -0.000011 0.000004  2.272645 -0.000036 1.570861
51  -2.523665 -8.553166 -4.854443  -0.290418 -2.879863 1.246914
52  0.000001 0.000000 0.000000  0.008153 -0.000259 0.000009
53  0.000000 0.000000 -0.000000  1.565115 0.043565 -0.106862
54  0.148485 -10.369839 -5.655260  -0.539231 0.061272 -1.970884
55  0.000000 0.000001 -0.000000  0.000000 -0.000001 -0.000002
56  0.000030 0.000030 0.000001  -1.571902 -0.044449 -0.106509
57  12.000549 -19.544212 -17.246658  1.570796 -0.000000 0.000000
58  -15.417984 4.000748 -22.641926  1.570796 -0.000000 0.000000
59  1.941978 9.263218 -8.327020  1.570796 -0.000000 0.000000
60  -0.004311 0.001229 -0.000372  0.006898 -0.005534 -0.284229
61  0.826810 11.791080 -4.879054  1.570796 -0.000000 0.000000
62  0.000000 0.000000 0.000000  -0.078727 -3.136056 0.284226
63  0.000000 0.000000 0.000000  1.570796 -0.000000 0.000000
64  -1.915771 -11.101227 -3.861487  1.570796 -0.000000 0.000000
65  -0.000000 1.310396 2.931490  0.000000 -0.000000 0.000000
66  0.000000 2.348401 7.027630  -0.065995 -0.000000 -0.000000
67  0.000000 2.151127 0.835169  0.000000 -0.000000 0.000000
68  0.220965 1.913130 -0.326491  0.000000 -0.000000 0.000000
69  0.000001 1.680519 1.788386  0.174533 -0.000000 0.000000
70  -0.000002 1.676944 1.140923  0.000000 -0.000000 0.000000
71  -1.915770 -11.617895 -1.911009  1.570796 -0.000000 0.000000
72  0.099359 -0.567851 0.567841  0.000000 0.000000 0.000000
73  -0.126037 -0.750849 0.522438  0.000000 0.000000 0.000000
end
