version 1
nodes
0 "ValveBiped.Bip01_Spine4" -1
1 "ValveBiped.Bip01_L_Clavicle" 0
2 "ValveBiped.Bip01_L_UpperArm" 1
3 "ValveBiped.Bip01_L_Forearm" 2
4 "ValveBiped.Bip01_L_Hand" 3
5 "ValveBiped.Bip01_L_Finger4" 4
6 "ValveBiped.Bip01_L_Finger41" 5
7 "ValveBiped.Bip01_L_Finger42" 6
8 "ValveBiped.Bip01_L_Finger3" 4
9 "ValveBiped.Bip01_L_Finger31" 8
10 "ValveBiped.Bip01_L_Finger32" 9
11 "ValveBiped.Bip01_L_Finger2" 4
12 "ValveBiped.Bip01_L_Finger21" 11
13 "ValveBiped.Bip01_L_Finger22" 12
14 "ValveBiped.Bip01_L_Finger1" 4
15 "ValveBiped.Bip01_L_Finger11" 14
16 "ValveBiped.Bip01_L_Finger12" 15
17 "ValveBiped.Bip01_L_Finger0" 4
18 "ValveBiped.Bip01_L_Finger01" 17
19 "ValveBiped.Bip01_L_Finger02" 18
20 "ValveBiped.Bip01_L_Ulna" 3
21 "ValveBiped.Bip01_L_Wrist" 3
22 "rig_l_upperarm" 1
23 "rig_l_forearm" 22
24 "rig_d_l_forearm" 23
25 "rig_d_l_upperarm" 22
26 "ValveBiped.Bip01_R_Clavicle" 0
27 "ValveBiped.Bip01_R_UpperArm" 26
28 "ValveBiped.Bip01_R_Forearm" 27
29 "ValveBiped.Bip01_R_Hand" 28
30 "ValveBiped.Bip01_R_Finger4" 29
31 "ValveBiped.Bip01_R_Finger41" 30
32 "ValveBiped.Bip01_R_Finger42" 31
33 "ValveBiped.Bip01_R_Finger3" 29
34 "ValveBiped.Bip01_R_Finger31" 33
35 "ValveBiped.Bip01_R_Finger32" 34
36 "ValveBiped.Bip01_R_Finger2" 29
37 "ValveBiped.Bip01_R_Finger21" 36
38 "ValveBiped.Bip01_R_Finger22" 37
39 "ValveBiped.Bip01_R_Finger1" 29
40 "ValveBiped.Bip01_R_Finger11" 39
41 "ValveBiped.Bip01_R_Finger12" 40
42 "ValveBiped.Bip01_R_Finger0" 29
43 "ValveBiped.Bip01_R_Finger01" 42
44 "ValveBiped.Bip01_R_Finger02" 43
45 "ValveBiped.Bip01_R_Ulna" 28
46 "ValveBiped.Bip01_R_Wrist" 28
47 "rig_r_upperarm" 26
48 "rig_r_forearm" 47
49 "rig_d_r_forearm" 48
50 "rig_d_r_upperarm" 47
51 "rig_r_hand" -1
52 "rig_d_r_hand" 51
53 "rig_d_r_wrist" 52
54 "rig_l_hand" -1
55 "rig_d_l_hand" 54
56 "rig_d_l_wrist" 54
57 "rig_l_pole" -1
58 "rig_r_pole" -1
59 "rig_l_clavicle" -1
60 "rig_d_l_clavicle" 59
61 "rig_r_clavicle" -1
62 "rig_d_r_clavicle" 61
63 "Camera" -1
64 "body" -1
65 "trigger" 64
66 "bolt" 64
67 "chandle" 66
68 "barrel" 64
69 "magrel" 64
70 "bullet1" 64
71 "mag" -1
72 "fakerounds" 71
73 "fakemag" -1
74 "bullet2" 73
75 "bullet3" 73
end
skeleton
time 0
0  0.000006 0.000000 0.000000  -1.570800 -1.391899 -1.570792
1  -5.014729 0.371465 2.232071  -1.544956 -1.855077 -0.198630
2  6.027524 -0.000324 0.000191  -0.757607 -0.958857 -1.541861
3  11.692104 0.000643 -0.000739  -0.582091 -0.000029 -1.572292
4  11.479891 -0.000126 -0.000962  0.958796 -0.678562 0.625002
5  3.859501 -0.142823 -1.192079  -0.650040 -0.228046 -1.540122
6  1.312588 0.000011 0.000009  -0.131010 -0.023795 -0.135507
7  0.729356 0.000055 0.000048  0.001651 -0.009716 -0.581416
8  3.942140 0.046331 -0.431542  -0.477014 0.231231 -1.027141
9  1.539110 0.000083 0.000004  -0.024283 -0.110124 -0.721493
10  1.196333 0.000146 0.000027  0.008287 0.008699 -1.087888
11  3.883508 -0.047212 0.431351  -0.167306 0.549829 -0.441324
12  1.719573 -0.000028 0.000018  0.020400 -0.102566 -1.148567
13  1.209180 0.000091 0.000011  -0.007440 -0.005997 -0.758193
14  4.085233 -0.082653 1.151009  0.062924 0.737615 -0.059439
15  1.719448 -0.000019 0.000028  0.009236 0.011567 -0.550390
16  1.099675 0.000049 0.000006  -0.075863 0.037883 -1.427198
17  0.843974 -1.406403 1.342923  -1.080860 -0.486499 -0.283748
18  1.789817 -0.000005 -0.000018  0.000775 -0.010425 0.711217
19  1.207016 -0.000013 -0.000043  0.001150 -0.000017 -0.116134
20  5.740636 0.000389 -0.000700  -0.204951 0.000003 0.000064
21  11.480984 0.000154 -0.000846  -0.072998 -0.140155 0.066445
22  6.027524 -0.000330 0.000200  1.609900 -0.610932 1.531629
23  0.000001 11.692097 -0.000007  -1.072134 -0.516460 -0.836627
24  0.000002 0.000009 -0.000001  0.287011 -0.000031 1.570738
25  0.000001 -0.000012 0.000000  0.868960 0.000002 1.570712
26  -6.617934 -9.178503 0.826812  1.473120 1.855075 -0.198639
27  6.027514 -0.000259 -0.000221  1.555667 0.787641 -0.694545
28  11.691991 0.000161 0.000857  0.141449 0.000074 -1.859447
29  11.479154 -0.000973 0.000971  -1.142544 0.358507 0.943433
30  3.859438 -0.132758 1.193065  0.469647 -0.013262 -1.872395
31  1.312559 0.000025 -0.000001  0.024060 -0.138696 -0.550187
32  0.729344 0.000065 -0.000027  -0.166197 -0.081570 -0.714272
33  3.942047 0.050139 0.431001  0.225309 -0.086237 -1.592712
34  1.539097 0.000006 -0.000001  0.035254 -0.050373 -0.994350
35  1.196300 0.000079 -0.000003  -0.021521 0.002175 -0.839738
36  3.883414 -0.050472 -0.431084  0.184824 -0.271737 -1.204030
37  1.719564 -0.000085 -0.000005  0.022859 -0.107186 -1.509108
38  1.209197 0.000036 0.000011  0.000662 0.071072 -0.480462
39  3.859589 -0.149082 -1.331320  -0.105100 -0.070317 -0.274330
40  1.719413 -0.000098 -0.000036  -0.013557 0.003241 -1.241987
41  1.099674 0.000023 0.000007  -0.058027 0.052275 -0.837661
42  0.805984 -0.359848 -1.318338  0.991670 0.166767 -0.799527
43  1.789781 -0.000008 -0.000042  0.000058 -0.002451 0.133098
44  1.206996 -0.000007 0.000005  0.000372 -0.000071 1.058780
45  5.740571 0.000080 0.000720  0.192308 -0.000014 0.000028
46  11.480774 -0.000120 0.000940  0.056864 0.080599 0.157792
47  6.027515 -0.000273 -0.000230  -0.927041 -0.482109 -1.711985
48  -0.000000 11.691974 -0.000006  -1.240739 0.685919 0.926906
49  0.000003 -0.000002 0.000000  2.413977 -0.000036 1.570860
50  -0.000007 -0.000013 0.000005  2.272645 -0.000036 1.570861
51  -3.408003 -3.587938 -6.142315  -0.078012 -2.996716 1.465737
52  -0.000000 0.000000 0.000000  0.008153 -0.000259 0.000009
53  0.000000 0.000000 0.000000  1.565115 0.043565 -0.106862
54  -0.217459 -13.543577 -4.898647  -0.710424 -0.163375 -1.820154
55  -0.000001 0.000000 -0.000000  0.000000 -0.000001 -0.000002
56  0.000029 0.000029 0.000001  -1.571902 -0.044449 -0.106509
57  6.251540 -15.190623 -19.647226  1.570796 -0.000000 0.000000
58  -15.417985 4.000748 -22.641926  1.570796 -0.000000 0.000000
59  2.236387 0.526436 -5.002028  1.570796 -0.000000 0.000000
60  -0.004311 0.001230 -0.000371  0.006898 -0.005534 -0.284229
61  0.826810 10.209643 -4.879054  1.570796 -0.000000 0.000000
62  0.000000 0.000000 0.000000  -0.078727 -3.136056 0.284226
63  -2.286180 -3.314903 -0.863988  1.570796 -0.000000 0.000000
64  -2.287624 -7.856167 -0.820117  1.570796 -0.000000 0.000000
65  0.048105 -2.944859 0.933263  0.398200 -0.000000 0.000000
66  0.048105 -1.112260 5.803836  0.000000 -0.000000 0.000000
67  -1.140610 -0.098565 1.093603  0.000000 -0.000000 0.000000
68  -0.008860 -1.854888 14.765545  0.000000 -0.000000 0.000000
69  0.001655 -3.609730 3.172391  0.000000 -0.000000 0.000000
70  0.164532 -2.069433 4.125247  0.000000 -0.000000 0.000000
71  -3.588360 -1.097282 -23.660017  1.570796 -0.000000 0.000000
72  0.017809 1.799356 -0.402361  0.000000 -0.000000 0.000000
73  -2.285144 -12.562553 -4.917291  1.570796 -0.000000 0.000000
74  0.162052 2.027740 -0.581139  0.000000 -0.000000 0.000000
75  -0.135029 1.804883 -0.581139  0.000000 -0.000000 0.000000
time 1
0  0.000006 0.000000 0.000000  -1.570800 -1.391899 -1.570792
1  -5.014729 0.371465 2.232071  -1.544956 -1.855077 -0.198630
2  6.027524 -0.000324 0.000191  -0.749063 -0.944184 -1.521337
3  11.692103 0.000644 -0.000738  -0.582093 -0.000033 -1.634564
4  11.479436 -0.000343 -0.001105  0.919196 -0.722148 0.656844
5  3.859503 -0.142823 -1.192079  -0.650040 -0.228046 -1.540122
6  1.312590 0.000011 0.000007  -0.131010 -0.023795 -0.135507
7  0.729354 0.000053 0.000049  0.001651 -0.009716 -0.581416
8  3.942141 0.046331 -0.431543  -0.477014 0.231232 -1.027141
9  1.539110 0.000084 0.000005  -0.024283 -0.110124 -0.721493
10  1.196333 0.000146 0.000028  0.008287 0.008699 -1.087888
11  3.883510 -0.047212 0.431351  -0.167306 0.549829 -0.441324
12  1.719574 -0.000028 0.000019  0.020400 -0.102566 -1.148567
13  1.209179 0.000089 0.000011  -0.007440 -0.005997 -0.758193
14  4.085234 -0.082653 1.151009  0.062924 0.737615 -0.059439
15  1.719448 -0.000020 0.000027  0.009236 0.011567 -0.550390
16  1.099675 0.000047 0.000005  -0.075863 0.037883 -1.427198
17  0.843976 -1.406403 1.342923  -1.080860 -0.486499 -0.283748
18  1.789818 -0.000003 -0.000018  0.000775 -0.010425 0.711217
19  1.207015 -0.000013 -0.000043  0.001150 -0.000017 -0.116134
20  5.740637 0.000390 -0.000699  -0.225987 0.000003 0.000064
21  11.480892 0.000111 -0.000873  -0.074452 -0.150831 0.066291
22  6.027524 -0.000330 0.000200  1.604963 -0.625889 1.561973
23  0.000000 11.692096 -0.000008  -1.108706 -0.552109 -0.858209
24  0.000003 0.000008 0.000002  0.287011 -0.000031 1.570739
25  0.000000 -0.000012 -0.000001  0.868960 0.000002 1.570712
26  -6.617934 -9.178503 0.826812  1.473120 1.855075 -0.198639
27  6.027513 -0.000259 -0.000221  1.560266 0.755154 -0.692163
28  11.691993 0.000162 0.000857  0.141449 0.000079 -1.926093
29  11.478573 -0.001264 0.001012  -1.158214 0.355487 0.970440
30  3.859437 -0.132758 1.193065  0.469647 -0.013262 -1.872395
31  1.312559 0.000025 -0.000001  0.024060 -0.138696 -0.550187
32  0.729346 0.000064 -0.000028  -0.166197 -0.081570 -0.714272
33  3.942047 0.050139 0.430999  0.225309 -0.086237 -1.592712
34  1.539097 0.000005 -0.000001  0.035254 -0.050373 -0.994350
35  1.196300 0.000078 -0.000004  -0.021521 0.002175 -0.839738
36  3.883414 -0.050472 -0.431085  0.184824 -0.271737 -1.204030
37  1.719563 -0.000084 -0.000005  0.022859 -0.107186 -1.509108
38  1.209197 0.000036 0.000011  0.000661 0.071072 -0.480462
39  3.859588 -0.149082 -1.331321  -0.105100 -0.070317 -0.274330
40  1.719412 -0.000098 -0.000036  -0.013557 0.003241 -1.241987
41  1.099674 0.000024 0.000007  -0.058027 0.052275 -0.837661
42  0.805983 -0.359848 -1.318338  0.991670 0.166767 -0.799527
43  1.789780 -0.000009 -0.000042  0.000058 -0.002451 0.133097
44  1.206996 -0.000007 0.000005  0.000372 -0.000071 1.058780
45  5.740575 0.000080 0.000722  0.199589 -0.000014 0.000028
46  11.480660 -0.000179 0.000947  0.053526 0.079562 0.163977
47  6.027515 -0.000273 -0.000230  -0.893618 -0.496100 -1.728515
48  -0.000002 11.691974 -0.000006  -1.280435 0.726889 0.944169
49  0.000003 0.000000 -0.000001  2.413977 -0.000036 1.570860
50  -0.000008 -0.000014 0.000004  2.272645 -0.000036 1.570861
51  -3.512996 -2.968446 -6.139419  -0.095135 -2.991134 1.471894
52  -0.000000 -0.000000 -0.000000  0.008153 -0.000259 0.000009
53  -0.000000 0.000000 -0.000001  1.565115 0.043565 -0.106862
54  -0.264759 -12.907647 -4.913739  -0.726608 -0.171333 -1.813820
55  0.000001 0.000000 0.000000  0.000000 -0.000001 -0.000002
56  0.000031 0.000029 0.000001  -1.571901 -0.044449 -0.106509
57  6.251540 -15.190623 -19.647226  1.570796 -0.000000 0.000000
58  -15.417985 4.000748 -22.641926  1.570796 -0.000000 0.000000
59  2.236387 0.526436 -5.002028  1.570796 -0.000000 0.000000
60  -0.004311 0.001230 -0.000371  0.006898 -0.005534 -0.284229
61  0.826810 10.209643 -4.879054  1.570796 -0.000000 0.000000
62  0.000000 0.000000 0.000000  -0.078727 -3.136056 0.284226
63  -2.286180 -3.314903 -0.863988  1.570796 -0.000000 0.000000
64  -2.284472 -7.212033 -0.821382  1.566999 0.017424 0.003605
65  0.048106 -2.944859 0.933263  0.398200 -0.000000 0.000000
66  0.048105 -1.112260 2.481682  0.000000 -0.000000 0.000000
67  -1.140610 -0.098564 1.093602  -0.000000 -0.000000 -0.042177
68  -0.008860 -1.854888 14.765544  0.000000 -0.000000 0.000000
69  0.001655 -3.609730 3.172391  0.000000 -0.000000 0.000000
70  0.164532 -2.069433 4.125247  0.000000 -0.000000 0.000000
71  -3.588360 -1.097282 -23.660017  1.570796 -0.000000 0.000000
72  0.017809 1.799356 -0.402361  0.000000 -0.000000 0.000000
73  -2.336042 -11.934160 -4.900079  1.566999 0.017424 0.003605
74  0.162052 2.027741 -0.581140  0.000000 -0.000000 0.000000
75  -0.135028 1.804883 -0.581140  0.000000 -0.000000 0.000000
time 2
0  0.000006 0.000000 0.000000  -1.570800 -1.391899 -1.570792
1  -5.014729 0.371465 2.232071  -1.544956 -1.855077 -0.198630
2  6.027524 -0.000324 0.000191  -0.753269 -0.948501 -1.527152
3  11.692103 0.000644 -0.000739  -0.582092 -0.000032 -1.621627
4  11.479529 -0.000302 -0.001076  0.939453 -0.707226 0.649803
5  3.859503 -0.142823 -1.192080  -0.650040 -0.228046 -1.540122
6  1.312590 0.000010 0.000007  -0.131010 -0.023795 -0.135507
7  0.729355 0.000055 0.000049  0.001651 -0.009716 -0.581416
8  3.942140 0.046331 -0.431543  -0.477014 0.231231 -1.027141
9  1.539110 0.000082 0.000004  -0.024283 -0.110124 -0.721493
10  1.196333 0.000146 0.000029  0.008288 0.008699 -1.087888
11  3.883511 -0.047212 0.431351  -0.167306 0.549829 -0.441324
12  1.719574 -0.000029 0.000018  0.020400 -0.102566 -1.148567
13  1.209181 0.000090 0.000012  -0.007440 -0.005997 -0.758193
14  4.085233 -0.082654 1.151009  0.062924 0.737615 -0.059439
15  1.719448 -0.000020 0.000027  0.009236 0.011567 -0.550390
16  1.099676 0.000047 0.000006  -0.075863 0.037883 -1.427198
17  0.843975 -1.406403 1.342923  -1.080860 -0.486499 -0.283748
18  1.789818 -0.000005 -0.000018  0.000775 -0.010425 0.711217
19  1.207015 -0.000013 -0.000044  0.001150 -0.000017 -0.116134
20  5.740637 0.000388 -0.000700  -0.219069 0.000003 0.000064
21  11.480911 0.000118 -0.000867  -0.072615 -0.147022 0.067625
22  6.027524 -0.000330 0.000200  1.607665 -0.621430 1.551167
23  0.000000 11.692096 -0.000007  -1.101118 -0.544648 -0.853813
24  0.000002 0.000008 -0.000001  0.287012 -0.000030 1.570739
25  -0.000000 -0.000012 -0.000000  0.868960 0.000002 1.570712
26  -6.617934 -9.178503 0.826812  1.473120 1.855075 -0.198639
27  6.027514 -0.000259 -0.000221  1.552885 0.763125 -0.695353
28  11.691992 0.000161 0.000857  0.141449 0.000078 -1.910482
29  11.478710 -0.001200 0.001003  -1.145980 0.365651 0.962384
30  3.859437 -0.132759 1.193065  0.469647 -0.013262 -1.872395
31  1.312559 0.000025 -0.000001  0.024060 -0.138696 -0.550187
32  0.729345 0.000065 -0.000027  -0.166197 -0.081570 -0.714272
33  3.942047 0.050139 0.431000  0.225309 -0.086237 -1.592712
34  1.539097 0.000006 -0.000001  0.035254 -0.050373 -0.994350
35  1.196300 0.000079 -0.000004  -0.021521 0.002175 -0.839738
36  3.883413 -0.050472 -0.431084  0.184824 -0.271737 -1.204030
37  1.719564 -0.000085 -0.000005  0.022859 -0.107186 -1.509108
38  1.209198 0.000035 0.000010  0.000661 0.071072 -0.480462
39  3.859588 -0.149082 -1.331321  -0.105100 -0.070317 -0.274330
40  1.719412 -0.000098 -0.000036  -0.013557 0.003241 -1.241987
41  1.099674 0.000024 0.000006  -0.058027 0.052275 -0.837661
42  0.805984 -0.359848 -1.318338  0.991670 0.166767 -0.799527
43  1.789780 -0.000008 -0.000042  0.000058 -0.002451 0.133098
44  1.206996 -0.000007 0.000005  0.000372 -0.000071 1.058780
45  5.740574 0.000079 0.000721  0.198832 -0.000014 0.000028
46  11.480687 -0.000166 0.000946  0.055027 0.082152 0.161331
47  6.027515 -0.000273 -0.000230  -0.904523 -0.496599 -1.721431
48  -0.000002 11.691973 -0.000006  -1.271094 0.717247 0.940264
49  0.000002 -0.000003 -0.000000  2.413977 -0.000036 1.570860
50  -0.000008 -0.000013 0.000005  2.272645 -0.000036 1.570861
51  -3.433212 -3.109661 -6.171390  -0.082497 -2.988553 1.467212
52  -0.000000 -0.000000 0.000000  0.008153 -0.000259 0.000009
53  -0.000000 -0.000000 0.000000  1.565115 0.043565 -0.106862
54  -0.227912 -13.052959 -4.868365  -0.713685 -0.172091 -1.818800
55  0.000001 0.000000 -0.000000  0.000000 -0.000001 -0.000002
56  0.000031 0.000029 0.000001  -1.571901 -0.044449 -0.106509
57  6.251540 -15.190623 -19.647226  1.570796 -0.000000 0.000000
58  -15.417985 4.000748 -22.641926  1.570796 -0.000000 0.000000
59  2.236387 0.526436 -5.002028  1.570796 -0.000000 0.000000
60  -0.004311 0.001230 -0.000371  0.006898 -0.005534 -0.284229
61  0.826810 10.209643 -4.879054  1.570796 -0.000000 0.000000
62  0.000000 0.000000 0.000000  -0.078727 -3.136056 0.284226
63  -2.286180 -3.314903 -0.863988  1.570796 -0.000000 0.000000
64  -2.281320 -7.336115 -0.822647  1.563141 0.005265 0.000790
65  0.048105 -2.944859 0.933263  0.398200 -0.000000 0.000000
66  0.048105 -1.112260 4.142759  0.000000 -0.000000 0.000000
67  -1.140611 -0.098565 1.093603  0.000000 -0.000000 0.029470
68  -0.008860 -1.854888 14.765545  0.000000 -0.000000 0.000000
69  0.001655 -3.609730 3.172391  0.000000 -0.000000 0.000000
70  0.196365 -1.705127 6.175855  -0.087588 0.042328 -0.004627
71  -3.588360 -1.097282 -23.660017  1.570796 -0.000000 0.000000
72  0.017809 1.799356 -0.402361  0.000000 -0.000000 0.000000
73  -2.296479 -12.073740 -4.883631  1.563141 0.005265 0.000790
74  0.162052 2.027741 -0.581140  0.000000 -0.000000 0.000000
75  -0.135029 1.804884 -0.581139  0.000000 -0.000000 0.000000
time 3
0  0.000006 0.000000 0.000000  -1.570800 -1.391899 -1.570792
1  -5.014729 0.371465 2.232071  -1.544956 -1.855077 -0.198630
2  6.027524 -0.000324 0.000191  -0.758050 -0.955077 -1.536112
3  11.692105 0.000645 -0.000738  -0.582092 -0.000030 -1.595327
4  11.479720 -0.000211 -0.001016  0.960562 -0.685937 0.638173
5  3.859503 -0.142823 -1.192079  -0.650040 -0.228046 -1.540122
6  1.312590 0.000010 0.000007  -0.131010 -0.023795 -0.135507
7  0.729355 0.000055 0.000048  0.001651 -0.009716 -0.581417
8  3.942139 0.046331 -0.431543  -0.477014 0.231231 -1.027141
9  1.539110 0.000081 0.000004  -0.024283 -0.110124 -0.721493
10  1.196332 0.000146 0.000029  0.008287 0.008699 -1.087888
11  3.883510 -0.047212 0.431351  -0.167307 0.549829 -0.441324
12  1.719572 -0.000031 0.000018  0.020400 -0.102566 -1.148567
13  1.209179 0.000092 0.000012  -0.007440 -0.005997 -0.758193
14  4.085235 -0.082652 1.151009  0.062924 0.737615 -0.059439
15  1.719447 -0.000019 0.000029  0.009236 0.011567 -0.550390
16  1.099674 0.000048 0.000007  -0.075863 0.037883 -1.427198
17  0.843975 -1.406403 1.342923  -1.080860 -0.486499 -0.283748
18  1.789819 -0.000003 -0.000018  0.000775 -0.010425 0.711217
19  1.207015 -0.000014 -0.000044  0.001150 -0.000017 -0.116134
20  5.740637 0.000389 -0.000699  -0.208903 0.000003 0.000064
21  11.480950 0.000136 -0.000856  -0.071355 -0.141859 0.068533
22  6.027524 -0.000330 0.000200  1.610528 -0.614686 1.536655
23  -0.000001 11.692097 -0.000006  -1.085677 -0.529568 -0.844734
24  0.000003 0.000009 0.000000  0.287012 -0.000030 1.570739
25  -0.000000 -0.000011 0.000001  0.868960 0.000002 1.570712
26  -6.617934 -9.178503 0.826812  1.473120 1.855075 -0.198639
27  6.027514 -0.000259 -0.000221  1.547988 0.777937 -0.697746
28  11.691990 0.000160 0.000858  0.141449 0.000076 -1.881686
29  11.478959 -0.001076 0.000986  -1.133856 0.370866 0.952351
30  3.859437 -0.132758 1.193066  0.469647 -0.013262 -1.872395
31  1.312559 0.000026 -0.000002  0.024060 -0.138696 -0.550187
32  0.729346 0.000065 -0.000027  -0.166197 -0.081570 -0.714272
33  3.942047 0.050139 0.431000  0.225309 -0.086237 -1.592712
34  1.539097 0.000005 -0.000001  0.035254 -0.050373 -0.994350
35  1.196301 0.000078 -0.000003  -0.021521 0.002175 -0.839738
36  3.883414 -0.050472 -0.431084  0.184824 -0.271737 -1.204030
37  1.719563 -0.000085 -0.000005  0.022858 -0.107186 -1.509108
38  1.209198 0.000035 0.000011  0.000661 0.071072 -0.480462
39  3.859589 -0.149082 -1.331321  -0.105100 -0.070317 -0.274330
40  1.719413 -0.000098 -0.000035  -0.013557 0.003241 -1.241987
41  1.099674 0.000023 0.000007  -0.058027 0.052275 -0.837661
42  0.805984 -0.359848 -1.318338  0.991670 0.166767 -0.799527
43  1.789780 -0.000009 -0.000043  0.000058 -0.002451 0.133097
44  1.206997 -0.000007 0.000005  0.000372 -0.000071 1.058781
45  5.740572 0.000079 0.000721  0.196790 -0.000014 0.000028
46  11.480734 -0.000141 0.000942  0.057037 0.083762 0.158521
47  6.027515 -0.000273 -0.000230  -0.920951 -0.491848 -1.712620
48  -0.000001 11.691976 -0.000007  -1.253935 0.699532 0.932836
49  0.000002 -0.000001 0.000000  2.413977 -0.000036 1.570860
50  -0.000007 -0.000014 0.000004  2.272645 -0.000036 1.570861
51  -3.357271 -3.374229 -6.180337  -0.070366 -2.990825 1.462592
52  -0.000000 -0.000000 0.000001  0.008153 -0.000259 0.000009
53  0.000000 -0.000000 0.000000  1.565115 0.043565 -0.106862
54  -0.195696 -13.327700 -4.848458  -0.701976 -0.168115 -1.823566
55  0.000000 0.000000 -0.000000  0.000000 -0.000001 -0.000002
56  0.000031 0.000029 0.000001  -1.571902 -0.044449 -0.106509
57  6.251540 -15.190623 -19.647226  1.570796 -0.000000 0.000000
58  -15.417985 4.000748 -22.641926  1.570796 -0.000000 0.000000
59  2.236387 0.526436 -5.002028  1.570796 -0.000000 0.000000
60  -0.004311 0.001230 -0.000371  0.006898 -0.005534 -0.284229
61  0.826810 10.209643 -4.879054  1.570796 -0.000000 0.000000
62  0.000000 0.000000 0.000000  -0.078727 -3.136056 0.284226
63  -2.286180 -3.314903 -0.863988  1.570796 -0.000000 0.000000
64  -2.282284 -7.609097 -0.822248  1.564141 -0.006900 -0.001995
65  0.048105 -2.944859 0.933263  0.398200 0.000000 0.000000
66  0.048105 -1.112260 5.803838  -0.000000 0.000000 0.000000
67  -1.140611 -0.098565 1.093604  -0.000000 -0.000000 0.008551
68  -0.008860 -1.854888 14.765544  -0.000000 0.000000 0.000000
69  0.001654 -3.609730 3.172391  -0.000000 0.000000 0.000000
70  0.274295 -1.685571 8.253132  -0.000000 0.000000 0.000000
71  -3.588360 -1.097282 -23.660017  1.570796 -0.000000 0.000000
72  0.017809 1.799356 -0.402361  0.000000 -0.000000 0.000000
73  -2.261197 -12.342699 -4.887896  1.564141 -0.006900 -0.001995
74  0.162052 2.027740 -0.581139  -0.000000 0.000000 0.000000
75  -0.135029 1.804883 -0.581139  -0.000000 0.000000 0.000000
time 4
0  0.000006 0.000000 0.000000  -1.570800 -1.391899 -1.570792
1  -5.014729 0.371465 2.232071  -1.544956 -1.855077 -0.198630
2  6.027524 -0.000324 0.000191  -0.757376 -0.961009 -1.545141
3  11.692104 0.000644 -0.000739  -0.582091 -0.000029 -1.567556
4  11.479925 -0.000108 -0.000947  0.965561 -0.674842 0.618485
5  3.859506 -0.142823 -1.192080  -0.650040 -0.228046 -1.540122
6  1.312588 0.000010 0.000008  -0.131010 -0.023795 -0.135507
7  0.729354 0.000056 0.000049  0.001651 -0.009716 -0.581416
8  3.942144 0.046331 -0.431543  -0.477014 0.231232 -1.027141
9  1.539110 0.000084 0.000004  -0.024283 -0.110124 -0.721493
10  1.196331 0.000146 0.000029  0.008287 0.008699 -1.087888
11  3.883512 -0.047211 0.431351  -0.167306 0.549829 -0.441324
12  1.719572 -0.000028 0.000018  0.020400 -0.102566 -1.148567
13  1.209180 0.000090 0.000013  -0.007440 -0.005997 -0.758193
14  4.085235 -0.082653 1.151009  0.062924 0.737615 -0.059439
15  1.719448 -0.000019 0.000027  0.009236 0.011567 -0.550390
16  1.099675 0.000049 0.000007  -0.075863 0.037883 -1.427198
17  0.843976 -1.406403 1.342923  -1.080860 -0.486500 -0.283748
18  1.789819 -0.000004 -0.000018  0.000775 -0.010425 0.711217
19  1.207016 -0.000013 -0.000043  0.001150 -0.000017 -0.116134
20  5.740636 0.000389 -0.000698  -0.203142 0.000003 0.000063
21  11.480989 0.000157 -0.000841  -0.072462 -0.138957 0.065971
22  6.027524 -0.000330 0.000200  1.609561 -0.608794 1.528732
23  -0.000000 11.692096 -0.000007  -1.069347 -0.513777 -0.834942
24  0.000004 0.000008 0.000000  0.287012 -0.000030 1.570739
25  -0.000000 -0.000012 0.000000  0.868960 0.000002 1.570712
26  -6.617934 -9.178503 0.826812  1.473120 1.855075 -0.198639
27  6.027514 -0.000259 -0.000221  1.554238 0.788988 -0.695203
28  11.691992 0.000161 0.000858  0.141449 0.000074 -1.854241
29  11.479202 -0.000948 0.000967  -1.143043 0.361689 0.935758
30  3.859437 -0.132758 1.193064  0.469647 -0.013262 -1.872395
31  1.312559 0.000026 -0.000002  0.024060 -0.138696 -0.550187
32  0.729345 0.000066 -0.000028  -0.166197 -0.081570 -0.714272
33  3.942047 0.050139 0.431000  0.225309 -0.086237 -1.592712
34  1.539097 0.000005 -0.000001  0.035254 -0.050373 -0.994350
35  1.196300 0.000078 -0.000003  -0.021521 0.002175 -0.839738
36  3.883413 -0.050472 -0.431084  0.184824 -0.271737 -1.204030
37  1.719564 -0.000086 -0.000005  0.022859 -0.107186 -1.509108
38  1.209197 0.000035 0.000011  0.000661 0.071072 -0.480462
39  3.859588 -0.149082 -1.331321  -0.105100 -0.070317 -0.274330
40  1.719412 -0.000098 -0.000037  -0.013557 0.003241 -1.241987
41  1.099674 0.000023 0.000008  -0.058027 0.052275 -0.837661
42  0.805983 -0.359848 -1.318339  0.991670 0.166767 -0.799527
43  1.789780 -0.000009 -0.000042  0.000058 -0.002451 0.133097
44  1.206997 -0.000007 0.000006  0.000372 -0.000071 1.058780
45  5.740573 0.000080 0.000722  0.190659 -0.000014 0.000028
46  11.480785 -0.000115 0.000939  0.056704 0.080923 0.156166
47  6.027515 -0.000273 -0.000230  -0.928933 -0.482257 -1.710752
48  0.000000 11.691974 -0.000005  -1.237656 0.682742 0.925494
49  0.000003 0.000000 -0.000000  2.413977 -0.000036 1.570860
50  -0.000007 -0.000013 0.000005  2.272645 -0.000036 1.570861
51  -3.399938 -3.636295 -6.162471  -0.076914 -2.992517 1.465196
52  0.000000 -0.000000 -0.000000  0.008153 -0.000259 0.000009
53  -0.000000 0.000000 -0.000001  1.565115 0.043565 -0.106862
54  -0.213988 -13.587717 -4.874068  -0.708722 -0.167374 -1.820814
55  -0.000000 -0.000000 -0.000000  0.000000 -0.000001 -0.000002
56  0.000030 0.000028 0.000001  -1.571902 -0.044449 -0.106509
57  6.251540 -15.190623 -19.647226  1.570796 -0.000000 0.000000
58  -15.417985 4.000748 -22.641926  1.570796 -0.000000 0.000000
59  2.236387 0.526436 -5.002028  1.570796 -0.000000 0.000000
60  -0.004311 0.001230 -0.000371  0.006898 -0.005534 -0.284229
61  0.826810 10.209643 -4.879054  1.570796 -0.000000 0.000000
62  0.000000 0.000000 0.000000  -0.078727 -3.136056 0.284226
63  -2.286180 -3.314903 -0.863988  1.570796 -0.000000 0.000000
64  -2.284583 -7.882078 -0.821297  1.566507 -0.000639 -0.000379
65  0.048105 -2.944859 0.933262  0.398200 -0.000000 -0.000000
66  0.048105 -1.112260 5.647750  0.000000 -0.000000 -0.010329
67  -1.140610 -0.098565 1.093603  -0.000000 -0.000000 -0.012370
68  -0.008860 -1.854888 14.765544  -0.000000 -0.000000 -0.000000
69  0.001654 -3.609730 3.172391  -0.000000 -0.000000 -0.000000
70  0.274296 -1.685571 8.253132  -0.000000 -0.000000 -0.000000
71  -3.588360 -1.097282 -23.660017  1.570796 -0.000000 0.000000
72  0.017809 1.799356 -0.402361  0.000000 -0.000000 0.000000
73  -2.281286 -12.605999 -4.898242  1.566507 -0.000639 -0.000379
74  0.162052 2.027740 -0.581139  -0.000000 -0.000000 -0.000000
75  -0.135029 1.804882 -0.581139  -0.000000 -0.000000 -0.000000
time 5
0  0.000006 0.000000 0.000000  -1.570800 -1.391899 -1.570792
1  -5.014729 0.371465 2.232071  -1.544956 -1.855077 -0.198630
2  6.027524 -0.000324 0.000191  -0.756058 -0.963138 -1.548620
3  11.692104 0.000645 -0.000739  -0.582090 -0.000028 -1.555279
4  11.480021 -0.000063 -0.000918  0.963003 -0.672324 0.609820
5  3.859504 -0.142823 -1.192079  -0.650040 -0.228046 -1.540122
6  1.312589 0.000011 0.000008  -0.131010 -0.023795 -0.135507
7  0.729355 0.000053 0.000050  0.001651 -0.009716 -0.581416
8  3.942139 0.046331 -0.431543  -0.477014 0.231231 -1.027141
9  1.539111 0.000085 0.000003  -0.024283 -0.110124 -0.721493
10  1.196333 0.000146 0.000030  0.008287 0.008699 -1.087888
11  3.883511 -0.047211 0.431351  -0.167306 0.549829 -0.441324
12  1.719572 -0.000027 0.000018  0.020400 -0.102566 -1.148567
13  1.209179 0.000089 0.000012  -0.007440 -0.005997 -0.758193
14  4.085234 -0.082653 1.151009  0.062924 0.737615 -0.059439
15  1.719445 -0.000019 0.000027  0.009236 0.011567 -0.550390
16  1.099675 0.000048 0.000006  -0.075863 0.037883 -1.427198
17  0.843976 -1.406403 1.342923  -1.080860 -0.486499 -0.283748
18  1.789818 -0.000006 -0.000018  0.000775 -0.010425 0.711217
19  1.207015 -0.000013 -0.000043  0.001150 -0.000017 -0.116134
20  5.740636 0.000388 -0.000700  -0.201745 0.000003 0.000063
21  11.481009 0.000166 -0.000836  -0.073586 -0.138311 0.064331
22  6.027524 -0.000330 0.000200  1.608472 -0.606720 1.526957
23  -0.000001 11.692097 -0.000007  -1.062118 -0.506842 -0.830548
24  0.000003 0.000007 -0.000001  0.287012 -0.000030 1.570739
25  -0.000000 -0.000011 -0.000000  0.868960 0.000002 1.570712
26  -6.617934 -9.178503 0.826812  1.473120 1.855075 -0.198639
27  6.027514 -0.000259 -0.000220  1.559568 0.793380 -0.692873
28  11.691990 0.000160 0.000856  0.141449 0.000073 -1.842791
29  11.479302 -0.000891 0.000959  -1.150774 0.353876 0.929286
30  3.859438 -0.132758 1.193065  0.469647 -0.013262 -1.872395
31  1.312559 0.000026 -0.000001  0.024060 -0.138696 -0.550187
32  0.729345 0.000065 -0.000028  -0.166197 -0.081570 -0.714272
33  3.942047 0.050139 0.431001  0.225309 -0.086237 -1.592712
34  1.539097 0.000005 -0.000000  0.035254 -0.050373 -0.994350
35  1.196301 0.000078 -0.000003  -0.021521 0.002175 -0.839738
36  3.883414 -0.050472 -0.431084  0.184824 -0.271737 -1.204030
37  1.719564 -0.000084 -0.000004  0.022859 -0.107186 -1.509108
38  1.209197 0.000035 0.000011  0.000661 0.071072 -0.480462
39  3.859589 -0.149082 -1.331320  -0.098978 -0.054849 -0.271700
40  1.719413 -0.000098 -0.000036  -0.012941 0.010333 -1.124537
41  1.099674 0.000025 0.000006  -0.031566 0.024191 -0.729316
42  0.805983 -0.359848 -1.318338  0.991670 0.166767 -0.799527
43  1.789779 -0.000009 -0.000042  0.000058 -0.002451 0.133097
44  1.206996 -0.000007 0.000005  0.000372 -0.000071 1.058781
45  5.740573 0.000080 0.000721  0.187564 -0.000014 0.000028
46  11.480804 -0.000104 0.000937  0.056191 0.078731 0.155633
47  6.027515 -0.000273 -0.000230  -0.930922 -0.476760 -1.711295
48  -0.000003 11.691974 -0.000005  -1.230883 0.675765 0.922357
49  0.000003 0.000001 0.000001  2.413977 -0.000036 1.570860
50  -0.000008 -0.000014 0.000006  2.272645 -0.000036 1.570861
51  -3.442958 -3.747125 -6.142188  -0.083505 -2.994682 1.467793
52  0.000000 -0.000000 0.000001  0.008153 -0.000259 0.000009
53  0.000000 0.000000 0.000000  1.565115 0.043565 -0.106862
54  -0.232921 -13.696928 -4.901977  -0.715579 -0.166169 -1.818050
55  0.000001 0.000001 0.000000  0.000000 -0.000001 -0.000002
56  0.000030 0.000029 0.000001  -1.571902 -0.044449 -0.106509
57  6.251540 -15.190623 -19.647226  1.570796 -0.000000 0.000000
58  -15.417985 4.000748 -22.641926  1.570796 -0.000000 0.000000
59  2.236387 0.526436 -5.002028  1.570796 -0.000000 0.000000
60  -0.004311 0.001230 -0.000371  0.006898 -0.005534 -0.284229
61  0.826810 10.209643 -4.879054  1.570796 -0.000000 0.000000
62  0.000000 0.000000 0.000000  -0.078727 -3.136056 0.284226
63  -2.286180 -3.314903 -0.863988  1.570796 -0.000000 0.000000
64  -2.287327 -8.006161 -0.820162  1.569341 0.005617 0.001254
65  0.048105 -2.944859 0.933263  0.199100 -0.000000 0.000000
66  0.048105 -1.112260 5.725792  -0.000000 0.000000 -0.020658
67  -1.140610 -0.098565 1.093603  0.000000 0.000000 -0.000459
68  -0.008860 -1.854888 14.765546  -0.000000 -0.000000 0.000000
69  0.001654 -3.609730 3.172390  -0.000000 -0.000000 0.000000
70  0.274296 -1.685571 8.253130  -0.000000 -0.000000 0.000000
71  -3.588360 -1.097282 -23.660017  1.570796 -0.000000 0.000000
72  0.017809 1.799356 -0.402361  0.000000 -0.000000 0.000000
73  -2.301914 -12.718525 -4.910433  1.569341 0.005617 0.001254
74  0.162052 2.027740 -0.581140  -0.000000 -0.000000 0.000000
75  -0.135029 1.804883 -0.581140  -0.000000 -0.000000 0.000000
time 6
0  0.000006 0.000000 0.000000  -1.570800 -1.391899 -1.570792
1  -5.014729 0.371465 2.232071  -1.544956 -1.855077 -0.198630
2  6.027524 -0.000324 0.000191  -0.756756 -0.961753 -1.546384
3  11.692103 0.000645 -0.000739  -0.582090 -0.000028 -1.559163
4  11.479992 -0.000077 -0.000928  0.960520 -0.673952 0.615276
5  3.859505 -0.142823 -1.192080  -0.650040 -0.228046 -1.540122
6  1.312589 0.000012 0.000008  -0.131010 -0.023795 -0.135507
7  0.729355 0.000054 0.000047  0.001651 -0.009716 -0.581416
8  3.942142 0.046332 -0.431543  -0.477014 0.231231 -1.027141
9  1.539111 0.000083 0.000003  -0.024283 -0.110124 -0.721493
10  1.196332 0.000146 0.000029  0.008287 0.008699 -1.087888
11  3.883512 -0.047211 0.431350  -0.167306 0.549829 -0.441324
12  1.719572 -0.000028 0.000017  0.020400 -0.102566 -1.148567
13  1.209179 0.000091 0.000011  -0.007440 -0.005997 -0.758193
14  4.085236 -0.082652 1.151008  0.062924 0.737615 -0.059439
15  1.719446 -0.000019 0.000028  0.009236 0.011567 -0.550390
16  1.099676 0.000049 0.000006  -0.075863 0.037883 -1.427198
17  0.843976 -1.406403 1.342922  -1.080860 -0.486499 -0.283748
18  1.789818 -0.000002 -0.000018  0.000775 -0.010425 0.711217
19  1.207013 -0.000013 -0.000043  0.001150 -0.000017 -0.116134
20  5.740635 0.000389 -0.000699  -0.202549 0.000003 0.000063
21  11.481004 0.000164 -0.000837  -0.073598 -0.138906 0.065063
22  6.027524 -0.000330 0.000200  1.609069 -0.608076 1.528279
23  -0.000001 11.692098 -0.000006  -1.064406 -0.509032 -0.831943
24  0.000002 0.000010 0.000000  0.287011 -0.000031 1.570738
25  -0.000001 -0.000011 0.000001  0.868960 0.000002 1.570712
26  -6.617934 -9.178503 0.826812  1.473120 1.855075 -0.198639
27  6.027514 -0.000259 -0.000220  1.559148 0.792585 -0.693053
28  11.691990 0.000162 0.000857  0.141449 0.000073 -1.846654
29  11.479269 -0.000911 0.000962  -1.147926 0.353624 0.935055
30  3.859437 -0.132758 1.193065  0.469647 -0.013262 -1.872395
31  1.312559 0.000026 -0.000002  0.024060 -0.138696 -0.550187
32  0.729345 0.000065 -0.000028  -0.166197 -0.081570 -0.714272
33  3.942047 0.050139 0.430999  0.225309 -0.086237 -1.592712
34  1.539096 0.000004 -0.000001  0.035254 -0.050373 -0.994350
35  1.196300 0.000077 -0.000003  -0.021521 0.002175 -0.839738
36  3.883413 -0.050472 -0.431085  0.184824 -0.271737 -1.204030
37  1.719563 -0.000085 -0.000004  0.022859 -0.107186 -1.509108
38  1.209197 0.000035 0.000012  0.000661 0.071072 -0.480462
39  3.859588 -0.149082 -1.331322  -0.092610 -0.038317 -0.264048
40  1.719414 -0.000098 -0.000035  -0.011499 0.017305 -1.007071
41  1.099674 0.000023 0.000007  -0.008033 -0.006920 -0.621778
42  0.805984 -0.359847 -1.318339  0.991670 0.166767 -0.799527
43  1.789780 -0.000008 -0.000042  0.000058 -0.002451 0.133098
44  1.206997 -0.000006 0.000005  0.000372 -0.000071 1.058780
45  5.740574 0.000078 0.000721  0.189192 -0.000014 0.000028
46  11.480799 -0.000109 0.000938  0.056569 0.079063 0.156639
47  6.027515 -0.000273 -0.000230  -0.930335 -0.477428 -1.711445
48  -0.000000 11.691974 -0.000006  -1.233167 0.678116 0.923420
49  0.000003 0.000000 0.000000  2.413977 -0.000036 1.570860
50  -0.000006 -0.000014 0.000005  2.272645 -0.000036 1.570861
51  -3.434733 -3.710016 -6.133189  -0.081940 -2.997228 1.467346
52  0.000000 -0.000000 0.000001  0.008153 -0.000259 0.000009
53  -0.000000 -0.000000 -0.000001  1.565115 0.043565 -0.106862
54  -0.229108 -13.663448 -4.910809  -0.714397 -0.163427 -1.818465
55  0.000001 0.000000 -0.000000  0.000000 -0.000001 -0.000002
56  0.000031 0.000029 0.000001  -1.571901 -0.044449 -0.106509
57  6.251540 -15.190623 -19.647226  1.570796 -0.000000 0.000000
58  -15.417985 4.000748 -22.641926  1.570796 -0.000000 0.000000
59  2.236387 0.526436 -5.002028  1.570796 -0.000000 0.000000
60  -0.004311 0.001230 -0.000371  0.006898 -0.005534 -0.284229
61  0.826810 10.209643 -4.879054  1.570796 -0.000000 0.000000
62  0.000000 0.000000 0.000000  -0.078727 -3.136056 0.284226
63  -2.286180 -3.314903 -0.863988  1.570796 -0.000000 0.000000
64  -2.289626 -7.981924 -0.819211  1.571712 0.003812 0.001044
65  0.048105 -2.944859 0.933263  -0.000000 -0.000000 -0.000000
66  0.048105 -1.112260 5.803837  0.000000 0.000000 0.006813
67  -1.140610 -0.098565 1.093603  -0.000000 -0.000000 0.011451
68  -0.008860 -1.854887 14.765545  -0.000000 -0.000000 -0.000000
69  0.001654 -3.609730 3.172391  -0.000000 -0.000000 -0.000000
70  0.274295 -1.685571 8.253133  -0.000000 -0.000000 -0.000000
71  -3.588360 -1.097282 -23.660017  1.570796 -0.000000 0.000000
72  0.017809 1.799356 -0.402361  0.000000 -0.000000 0.000000
73  -2.297869 -12.684568 -4.920672  1.571712 0.003812 0.001044
74  0.162052 2.027741 -0.581138  -0.000000 -0.000000 -0.000000
75  -0.135029 1.804883 -0.581139  -0.000000 -0.000000 -0.000000
time 7
0  0.000006 0.000000 0.000000  -1.570800 -1.391899 -1.570792
1  -5.014729 0.371465 2.232071  -1.544956 -1.855077 -0.198630
2  6.027524 -0.000324 0.000191  -0.757835 -0.959956 -1.543448
3  11.692102 0.000643 -0.000738  -0.582090 -0.000029 -1.566157
4  11.479936 -0.000104 -0.000945  0.959372 -0.676200 0.622320
5  3.859505 -0.142823 -1.192079  -0.650040 -0.228046 -1.540122
6  1.312590 0.000010 0.000009  -0.131010 -0.023795 -0.135507
7  0.729355 0.000053 0.000047  0.001651 -0.009716 -0.581416
8  3.942142 0.046331 -0.431543  -0.477014 0.231232 -1.027141
9  1.539111 0.000083 0.000003  -0.024283 -0.110124 -0.721493
10  1.196332 0.000145 0.000029  0.008287 0.008699 -1.087888
11  3.883511 -0.047211 0.431351  -0.167306 0.549829 -0.441324
12  1.719571 -0.000029 0.000019  0.020400 -0.102566 -1.148567
13  1.209180 0.000090 0.000012  -0.007440 -0.005997 -0.758193
14  4.085236 -0.082652 1.151008  0.062924 0.737615 -0.059439
15  1.719448 -0.000019 0.000028  0.009236 0.011567 -0.550390
16  1.099675 0.000050 0.000006  -0.075863 0.037883 -1.427198
17  0.843977 -1.406403 1.342922  -1.080860 -0.486499 -0.283748
18  1.789818 -0.000005 -0.000018  0.000775 -0.010425 0.711217
19  1.207015 -0.000013 -0.000043  0.001150 -0.000017 -0.116134
20  5.740634 0.000389 -0.000700  -0.203649 0.000003 0.000063
21  11.480991 0.000158 -0.000841  -0.073235 -0.139610 0.066146
22  6.027524 -0.000330 0.000200  1.609969 -0.609827 1.529816
23  0.000000 11.692097 -0.000007  -1.068524 -0.512985 -0.834444
24  0.000002 0.000009 -0.000001  0.287011 -0.000030 1.570739
25  -0.000000 -0.000011 0.000001  0.868960 0.000002 1.570712
26  -6.617934 -9.178503 0.826812  1.473120 1.855075 -0.198639
27  6.027514 -0.000259 -0.000221  1.557241 0.790569 -0.693884
28  11.691991 0.000161 0.000856  0.141449 0.000074 -1.853253
29  11.479209 -0.000942 0.000966  -1.143308 0.355595 0.941483
30  3.859438 -0.132758 1.193064  0.469647 -0.013262 -1.872395
31  1.312559 0.000026 -0.000001  0.024060 -0.138696 -0.550187
32  0.729346 0.000065 -0.000028  -0.166197 -0.081570 -0.714272
33  3.942047 0.050139 0.431000  0.225309 -0.086237 -1.592712
34  1.539097 0.000006 -0.000001  0.035254 -0.050373 -0.994350
35  1.196301 0.000077 -0.000003  -0.021521 0.002175 -0.839738
36  3.883414 -0.050472 -0.431085  0.184824 -0.271737 -1.204030
37  1.719564 -0.000084 -0.000004  0.022858 -0.107186 -1.509108
38  1.209197 0.000036 0.000011  0.000661 0.071072 -0.480462
39  3.859589 -0.149082 -1.331321  -0.093911 -0.039730 -0.252893
40  1.719413 -0.000099 -0.000036  -0.011913 0.016125 -1.034750
41  1.099674 0.000022 0.000006  -0.007463 -0.007497 -0.657800
42  0.805983 -0.359848 -1.318339  0.991670 0.166767 -0.799527
43  1.789779 -0.000007 -0.000042  0.000058 -0.002451 0.133098
44  1.206996 -0.000006 0.000005  0.000372 -0.000071 1.058780
45  5.740571 0.000080 0.000720  0.191435 -0.000014 0.000028
46  11.480783 -0.000114 0.000939  0.057048 0.079956 0.157584
47  6.027515 -0.000273 -0.000230  -0.929194 -0.479628 -1.711445
48  -0.000002 11.691976 -0.000006  -1.237071 0.682139 0.925225
49  0.000002 -0.000001 0.000002  2.413978 -0.000036 1.570860
50  -0.000008 -0.000013 0.000005  2.272645 -0.000036 1.570861
51  -3.415866 -3.646390 -6.132336  -0.078679 -2.998566 1.466402
52  0.000000 0.000000 0.000000  0.008153 -0.000259 0.000009
53  -0.000000 0.000000 -0.000000  1.565115 0.043565 -0.106862
54  -0.219079 -13.602566 -4.909148  -0.711355 -0.161639 -1.819433
55  -0.000000 -0.000000 -0.000000  0.000000 -0.000001 -0.000002
56  0.000031 0.000029 0.000001  -1.571901 -0.044449 -0.106509
57  6.251540 -15.190623 -19.647226  1.570796 -0.000000 0.000000
58  -15.417985 4.000748 -22.641926  1.570796 -0.000000 0.000000
59  2.236387 0.526436 -5.002028  1.570796 -0.000000 0.000000
60  -0.004311 0.001230 -0.000371  0.006898 -0.005534 -0.284229
61  0.826810 10.209643 -4.879054  1.570796 -0.000000 0.000000
62  0.000000 0.000000 0.000000  -0.078727 -3.136056 0.284226
63  -2.286180 -3.314903 -0.863988  1.570796 -0.000000 0.000000
64  -2.290590 -7.924129 -0.818812  1.572705 0.000463 0.000570
65  0.048106 -2.944859 0.933263  0.000000 0.000000 0.000000
66  0.048105 -1.112260 5.769000  0.000000 0.000000 0.004222
67  -1.140610 -0.098565 1.093603  -0.000000 0.000000 0.006465
68  -0.008860 -1.854888 14.765546  0.000000 0.000000 0.000000
69  0.001655 -3.609730 3.172392  0.000000 0.000000 0.000000
70  0.274296 -1.685571 8.253131  0.000000 0.000000 0.000000
71  -3.588360 -1.097282 -23.660017  1.570796 -0.000000 0.000000
72  0.017809 1.799356 -0.402361  0.000000 -0.000000 0.000000
73  -2.287331 -12.622687 -4.924962  1.572705 0.000463 0.000570
74  0.162052 2.027741 -0.581140  0.000000 0.000000 0.000000
75  -0.135029 1.804883 -0.581139  0.000000 0.000000 0.000000
time 8
0  0.000006 0.000000 0.000000  -1.570800 -1.391899 -1.570792
1  -5.014729 0.371465 2.232071  -1.544956 -1.855077 -0.198630
2  6.027524 -0.000324 0.000191  -0.758157 -0.958354 -1.540982
3  11.692105 0.000645 -0.000738  -0.582091 -0.000029 -1.573336
4  11.479883 -0.000128 -0.000964  0.958073 -0.678953 0.627609
5  3.859504 -0.142824 -1.192079  -0.650040 -0.228046 -1.540122
6  1.312590 0.000011 0.000006  -0.131010 -0.023795 -0.135507
7  0.729355 0.000054 0.000047  0.001651 -0.009716 -0.581416
8  3.942142 0.046330 -0.431543  -0.477014 0.231232 -1.027141
9  1.539111 0.000085 0.000005  -0.024283 -0.110124 -0.721493
10  1.196333 0.000146 0.000028  0.008287 0.008699 -1.087888
11  3.883513 -0.047212 0.431351  -0.167306 0.549829 -0.441324
12  1.719573 -0.000027 0.000019  0.020400 -0.102566 -1.148567
13  1.209180 0.000090 0.000011  -0.007440 -0.005997 -0.758193
14  4.085236 -0.082654 1.151009  0.062924 0.737615 -0.059439
15  1.719448 -0.000018 0.000028  0.009236 0.011567 -0.550390
16  1.099675 0.000050 0.000006  -0.075863 0.037883 -1.427198
17  0.843977 -1.406404 1.342923  -1.080860 -0.486499 -0.283748
18  1.789820 -0.000003 -0.000018  0.000775 -0.010425 0.711217
19  1.207015 -0.000013 -0.000043  0.001150 -0.000017 -0.116134
20  5.740636 0.000389 -0.000700  -0.205062 0.000003 0.000063
21  11.480982 0.000154 -0.000846  -0.072950 -0.140349 0.066853
22  6.027524 -0.000330 0.000200  1.610328 -0.611412 1.531812
23  -0.000000 11.692098 -0.000006  -1.072749 -0.517052 -0.836998
24  0.000004 0.000009 -0.000000  0.287011 -0.000030 1.570738
25  0.000000 -0.000011 0.000001  0.868960 0.000002 1.570712
26  -6.617934 -9.178503 0.826812  1.473120 1.855075 -0.198639
27  6.027514 -0.000259 -0.000221  1.555580 0.787789 -0.694586
28  11.691991 0.000161 0.000857  0.141449 0.000074 -1.860322
29  11.479148 -0.000976 0.000972  -1.140679 0.357941 0.946051
30  3.859437 -0.132758 1.193065  0.469647 -0.013262 -1.872395
31  1.312559 0.000026 -0.000001  0.024060 -0.138696 -0.550187
32  0.729345 0.000065 -0.000027  -0.166197 -0.081570 -0.714272
33  3.942047 0.050139 0.431000  0.225309 -0.086237 -1.592712
34  1.539097 0.000005 -0.000001  0.035254 -0.050373 -0.994350
35  1.196301 0.000077 -0.000004  -0.021521 0.002175 -0.839738
36  3.883414 -0.050472 -0.431084  0.184824 -0.271737 -1.204030
37  1.719563 -0.000085 -0.000004  0.022859 -0.107186 -1.509108
38  1.209198 0.000035 0.000011  0.000661 0.071072 -0.480462
39  3.859589 -0.149082 -1.331321  -0.097253 -0.045277 -0.240688
40  1.719412 -0.000098 -0.000036  -0.012688 0.013565 -1.093999
41  1.099674 0.000023 0.000007  -0.006861 -0.007889 -0.734938
42  0.805984 -0.359848 -1.318338  0.991670 0.166767 -0.799527
43  1.789780 -0.000009 -0.000042  0.000058 -0.002451 0.133097
44  1.206997 -0.000008 0.000005  0.000372 -0.000071 1.058780
45  5.740572 0.000079 0.000722  0.193102 -0.000014 0.000028
46  11.480773 -0.000121 0.000940  0.057179 0.080714 0.158241
47  6.027515 -0.000273 -0.000230  -0.927220 -0.482084 -1.711882
48  -0.000001 11.691975 -0.000007  -1.241258 0.686454 0.927143
49  0.000004 0.000000 0.000000  2.413977 -0.000036 1.570860
50  -0.000007 -0.000013 0.000004  2.272645 -0.000036 1.570861
51  -3.403762 -3.579082 -6.136486  -0.076824 -2.998342 1.465663
52  0.000000 -0.000000 0.000001  0.008153 -0.000259 0.000009
53  -0.000000 0.000000 0.000000  1.565115 0.043565 -0.106862
54  -0.213916 -13.536263 -4.903410  -0.709481 -0.161597 -1.820210
55  0.000000 0.000000 0.000000  0.000000 -0.000001 -0.000002
56  0.000030 0.000029 0.000001  -1.571901 -0.044449 -0.106509
57  6.251540 -15.190623 -19.647226  1.570796 -0.000000 0.000000
58  -15.417985 4.000748 -22.641926  1.570796 -0.000000 0.000000
59  2.236387 0.526436 -5.002028  1.570796 -0.000000 0.000000
60  -0.004311 0.001230 -0.000371  0.006898 -0.005534 -0.284229
61  0.826810 10.209643 -4.879054  1.570796 -0.000000 0.000000
62  0.000000 0.000000 0.000000  -0.078727 -3.136056 0.284226
63  -2.286180 -3.314903 -0.863988  1.570796 -0.000000 0.000000
64  -2.290101 -7.855148 -0.819170  1.572290 -0.001340 0.000096
65  0.048106 -2.944859 0.933262  -0.000000 -0.000000 -0.000000
66  0.048105 -1.112260 5.786417  -0.000000 0.000000 -0.000588
67  -1.140610 -0.098565 1.093602  -0.000000 -0.000000 -0.002796
68  -0.008860 -1.854888 14.765545  -0.000000 -0.000000 -0.000000
69  0.001655 -3.609730 3.172391  -0.000000 -0.000000 -0.000000
70  0.274296 -1.685571 8.253130  -0.000000 -0.000000 -0.000000
71  -3.588360 -1.097282 -23.660017  1.570796 -0.000000 0.000000
72  0.017809 1.799356 -0.402361  0.000000 -0.000000 0.000000
73  -2.281670 -12.555410 -4.923359  1.572290 -0.001340 0.000096
74  0.162052 2.027741 -0.581138  -0.000000 -0.000000 -0.000000
75  -0.135028 1.804883 -0.581137  -0.000000 -0.000000 -0.000000
time 9
0  0.000006 0.000000 0.000000  -1.570800 -1.391899 -1.570792
1  -5.014729 0.371465 2.232071  -1.544956 -1.855077 -0.198630
2  6.027524 -0.000324 0.000191  -0.757427 -0.957206 -1.539427
3  11.692104 0.000644 -0.000739  -0.582091 -0.000029 -1.578625
4  11.479843 -0.000152 -0.000976  0.955534 -0.681960 0.629917
5  3.859504 -0.142823 -1.192079  -0.650040 -0.228046 -1.540122
6  1.312590 0.000008 0.000008  -0.131010 -0.023795 -0.135507
7  0.729355 0.000055 0.000048  0.001651 -0.009716 -0.581417
8  3.942142 0.046331 -0.431542  -0.477014 0.231232 -1.027141
9  1.539111 0.000084 0.000005  -0.024283 -0.110124 -0.721493
10  1.196332 0.000146 0.000030  0.008288 0.008699 -1.087888
11  3.883512 -0.047212 0.431351  -0.167306 0.549829 -0.441324
12  1.719573 -0.000028 0.000018  0.020400 -0.102566 -1.148567
13  1.209180 0.000089 0.000011  -0.007440 -0.005997 -0.758193
14  4.085236 -0.082652 1.151009  0.062925 0.737615 -0.059439
15  1.719446 -0.000020 0.000027  0.009236 0.011567 -0.550390
16  1.099676 0.000050 0.000007  -0.075863 0.037883 -1.427198
17  0.843976 -1.406403 1.342923  -1.080860 -0.486499 -0.283748
18  1.789819 -0.000003 -0.000018  0.000775 -0.010425 0.711217
19  1.207016 -0.000013 -0.000043  0.001150 -0.000017 -0.116134
20  5.740636 0.000389 -0.000699  -0.206647 0.000003 0.000064
21  11.480975 0.000148 -0.000847  -0.073025 -0.141084 0.066892
22  6.027524 -0.000330 0.000200  1.609912 -0.612586 1.534204
23  -0.000000 11.692098 -0.000006  -1.075860 -0.520055 -0.838870
24  0.000002 0.000008 0.000001  0.287012 -0.000031 1.570739
25  -0.000000 -0.000011 0.000001  0.868960 0.000002 1.570712
26  -6.617934 -9.178503 0.826812  1.473120 1.855075 -0.198639
27  6.027514 -0.000259 -0.000221  1.555324 0.784987 -0.694658
28  11.691991 0.000161 0.000857  0.141449 0.000075 -1.866053
29  11.479098 -0.001004 0.000974  -1.141576 0.358954 0.948153
30  3.859437 -0.132758 1.193065  0.469647 -0.013262 -1.872395
31  1.312559 0.000026 -0.000001  0.024060 -0.138696 -0.550187
32  0.729345 0.000065 -0.000028  -0.166197 -0.081570 -0.714273
33  3.942047 0.050139 0.431000  0.225309 -0.086237 -1.592712
34  1.539097 0.000006 -0.000001  0.035254 -0.050373 -0.994350
35  1.196300 0.000078 -0.000004  -0.021521 0.002175 -0.839738
36  3.883414 -0.050473 -0.431084  0.184824 -0.271737 -1.204030
37  1.719564 -0.000084 -0.000004  0.022859 -0.107186 -1.509108
38  1.209197 0.000036 0.000011  0.000661 0.071072 -0.480462
39  3.859588 -0.149082 -1.331321  -0.098879 -0.048071 -0.235951
40  1.719413 -0.000098 -0.000037  -0.012998 0.012354 -1.121675
41  1.099674 0.000024 0.000007  -0.006629 -0.007992 -0.770960
42  0.805983 -0.359848 -1.318338  0.991670 0.166767 -0.799527
43  1.789780 -0.000009 -0.000042  0.000058 -0.002451 0.133097
44  1.206996 -0.000007 0.000005  0.000372 -0.000071 1.058780
45  5.740572 0.000079 0.000720  0.193708 -0.000014 0.000028
46  11.480763 -0.000126 0.000939  0.056862 0.080887 0.158648
47  6.027515 -0.000273 -0.000230  -0.924635 -0.483709 -1.712973
48  -0.000002 11.691977 -0.000005  -1.244654 0.689957 0.928685
49  0.000002 -0.000001 0.000002  2.413977 -0.000036 1.570860
50  -0.000008 -0.000013 0.000005  2.272645 -0.000036 1.570861
51  -3.407345 -3.525905 -6.139988  -0.077797 -2.997322 1.465587
52  -0.000000 0.000000 -0.000001  0.008153 -0.000259 0.000009
53  -0.000000 0.000000 0.000000  1.565115 0.043565 -0.106862
54  -0.218321 -13.482643 -4.901217  -0.710299 -0.162745 -1.820292
55  -0.000000 -0.000001 0.000000  0.000000 -0.000001 -0.000002
56  0.000030 0.000028 0.000001  -1.571901 -0.044449 -0.106509
57  6.251540 -15.190623 -19.647226  1.570796 -0.000000 0.000000
58  -15.417985 4.000748 -22.641926  1.570796 -0.000000 0.000000
59  2.236387 0.526436 -5.002028  1.570796 -0.000000 0.000000
60  -0.004311 0.001230 -0.000371  0.006898 -0.005534 -0.284229
61  0.826810 10.209643 -4.879054  1.570796 -0.000000 0.000000
62  0.000000 0.000000 0.000000  -0.078727 -3.136056 0.284226
63  -2.286180 -3.314903 -0.863988  1.570796 -0.000000 0.000000
64  -2.288934 -7.797353 -0.819958  1.571376 -0.000275 -0.000119
65  0.048105 -2.944859 0.933262  0.000000 0.000000 0.000000
66  0.048105 -1.112260 5.803837  -0.000000 0.000000 -0.003179
67  -1.140611 -0.098564 1.093603  -0.000000 0.000000 -0.007782
68  -0.008860 -1.854887 14.765546  0.000000 0.000000 0.000000
69  0.001654 -3.609730 3.172391  0.000000 0.000000 0.000000
70  0.274296 -1.685571 8.253130  0.000000 0.000000 0.000000
71  -3.588360 -1.097282 -23.660017  1.570796 -0.000000 0.000000
72  0.017809 1.799356 -0.402361  0.000000 -0.000000 0.000000
73  -2.285884 -12.501362 -4.919860  1.571376 -0.000275 -0.000119
74  0.162052 2.027741 -0.581139  0.000000 0.000000 0.000000
75  -0.135029 1.804883 -0.581138  0.000000 0.000000 0.000000
time 10
0  0.000006 0.000000 0.000000  -1.570800 -1.391899 -1.570792
1  -5.014729 0.371465 2.232071  -1.544956 -1.855077 -0.198630
2  6.027524 -0.000324 0.000191  -0.756621 -0.956868 -1.539098
3  11.692104 0.000645 -0.000740  -0.582091 -0.000030 -1.580398
4  11.479830 -0.000156 -0.000980  0.953886 -0.683621 0.629407
5  3.859504 -0.142823 -1.192079  -0.650040 -0.228046 -1.540122
6  1.312590 0.000009 0.000008  -0.131010 -0.023795 -0.135507
7  0.729355 0.000053 0.000049  0.001651 -0.009716 -0.581416
8  3.942143 0.046331 -0.431542  -0.477014 0.231232 -1.027141
9  1.539111 0.000085 0.000005  -0.024283 -0.110124 -0.721493
10  1.196334 0.000146 0.000029  0.008287 0.008699 -1.087888
11  3.883512 -0.047212 0.431351  -0.167306 0.549829 -0.441324
12  1.719571 -0.000027 0.000018  0.020400 -0.102566 -1.148567
13  1.209179 0.000091 0.000012  -0.007440 -0.005997 -0.758193
14  4.085236 -0.082653 1.151009  0.062924 0.737615 -0.059439
15  1.719445 -0.000020 0.000026  0.009236 0.011567 -0.550390
16  1.099675 0.000051 0.000007  -0.075863 0.037883 -1.427198
17  0.843976 -1.406403 1.342923  -1.080860 -0.486499 -0.283748
18  1.789820 -0.000005 -0.000018  0.000775 -0.010425 0.711217
19  1.207015 -0.000013 -0.000043  0.001150 -0.000017 -0.116134
20  5.740635 0.000389 -0.000699  -0.207507 0.000003 0.000063
21  11.480970 0.000148 -0.000847  -0.073208 -0.141437 0.066561
22  6.027524 -0.000330 0.000200  1.609374 -0.612955 1.535500
23  -0.000000 11.692097 -0.000007  -1.076902 -0.521062 -0.839496
24  0.000004 0.000009 0.000000  0.287011 -0.000031 1.570739
25  -0.000000 -0.000011 0.000000  0.868960 0.000002 1.570712
26  -6.617934 -9.178503 0.826812  1.473120 1.855075 -0.198639
27  6.027514 -0.000259 -0.000221  1.555840 0.783521 -0.694408
28  11.691990 0.000160 0.000857  0.141449 0.000075 -1.868229
29  11.479079 -0.001014 0.000977  -1.143847 0.358863 0.947660
30  3.859437 -0.132759 1.193065  0.469647 -0.013262 -1.872395
31  1.312559 0.000026 -0.000001  0.024060 -0.138696 -0.550187
32  0.729345 0.000065 -0.000028  -0.166197 -0.081570 -0.714273
33  3.942047 0.050139 0.431000  0.225309 -0.086237 -1.592712
34  1.539097 0.000006 -0.000001  0.035254 -0.050373 -0.994350
35  1.196300 0.000078 -0.000003  -0.021521 0.002175 -0.839738
36  3.883414 -0.050472 -0.431084  0.184824 -0.271737 -1.204030
37  1.719564 -0.000085 -0.000004  0.022858 -0.107186 -1.509108
38  1.209198 0.000035 0.000010  0.000661 0.071072 -0.480462
39  3.859589 -0.149082 -1.331321  -0.098879 -0.048071 -0.235951
40  1.719413 -0.000098 -0.000036  -0.012998 0.012354 -1.121675
41  1.099674 0.000024 0.000006  -0.006629 -0.007992 -0.770960
42  0.805983 -0.359848 -1.318338  0.991670 0.166767 -0.799527
43  1.789780 -0.000008 -0.000042  0.000058 -0.002451 0.133097
44  1.206997 -0.000007 0.000006  0.000372 -0.000071 1.058780
45  5.740573 0.000078 0.000720  0.193421 -0.000014 0.000028
46  11.480761 -0.000130 0.000941  0.056472 0.080680 0.158666
47  6.027515 -0.000273 -0.000230  -0.923008 -0.484167 -1.713844
48  -0.000002 11.691975 -0.000005  -1.245945 0.691288 0.929268
49  0.000004 -0.000002 -0.000000  2.413977 -0.000036 1.570860
50  -0.000008 -0.000013 0.000006  2.272645 -0.000036 1.570861
51  -3.416894 -3.506637 -6.142452  -0.079689 -2.996206 1.465957
52  0.000000 -0.000000 -0.000000  0.008153 -0.000259 0.000009
53  -0.000000 -0.000000 0.000000  1.565115 0.043565 -0.106862
54  -0.224453 -13.461931 -4.900900  -0.712014 -0.164118 -1.819917
55  0.000001 0.000001 0.000000  0.000000 -0.000001 -0.000002
56  0.000031 0.000029 0.000001  -1.571902 -0.044449 -0.106509
57  6.251540 -15.190623 -19.647226  1.570796 -0.000000 0.000000
58  -15.417985 4.000748 -22.641926  1.570796 -0.000000 0.000000
59  2.236387 0.526436 -5.002028  1.570796 -0.000000 0.000000
60  -0.004311 0.001230 -0.000371  0.006898 -0.005534 -0.284229
61  0.826810 10.209643 -4.879054  1.570796 -0.000000 0.000000
62  0.000000 0.000000 0.000000  -0.078727 -3.136056 0.284226
63  -2.286180 -3.314903 -0.863988  1.570796 -0.000000 0.000000
64  -2.287543 -7.773116 -0.820747  1.570463 0.001704 -0.000022
65  0.048105 -2.944859 0.933263  0.000000 0.000000 -0.000000
66  0.048105 -1.112260 5.803836  0.000000 0.000000 -0.001113
67  -1.140610 -0.098565 1.093603  0.000000 0.000000 -0.005765
68  -0.008860 -1.854888 14.765545  0.000000 0.000000 -0.000000
69  0.001655 -3.609730 3.172391  0.000000 0.000000 -0.000000
70  0.274296 -1.685571 8.253130  0.000000 0.000000 -0.000000
71  -3.588360 -1.097282 -23.660017  1.570796 -0.000000 0.000000
72  0.017809 1.799356 -0.402361  0.000000 -0.000000 0.000000
73  -2.292145 -12.480868 -4.916349  1.570463 0.001704 -0.000022
74  0.162052 2.027740 -0.581138  0.000000 0.000000 -0.000000
75  -0.135029 1.804882 -0.581138  0.000000 0.000000 -0.000000
time 11
0  0.000006 0.000000 0.000000  -1.570800 -1.391899 -1.570792
1  -5.014729 0.371465 2.232071  -1.544956 -1.855077 -0.198630
2  6.027524 -0.000324 0.000191  -0.756409 -0.957282 -1.539769
3  11.692103 0.000646 -0.000739  -0.582091 -0.000029 -1.578781
4  11.479843 -0.000154 -0.000977  0.954170 -0.683168 0.627435
5  3.859503 -0.142824 -1.192080  -0.650040 -0.228046 -1.540122
6  1.312589 0.000011 0.000008  -0.131010 -0.023795 -0.135507
7  0.729355 0.000052 0.000048  0.001651 -0.009716 -0.581416
8  3.942140 0.046331 -0.431543  -0.477014 0.231232 -1.027141
9  1.539110 0.000084 0.000004  -0.024283 -0.110124 -0.721493
10  1.196332 0.000145 0.000027  0.008287 0.008699 -1.087888
11  3.883510 -0.047212 0.431351  -0.167306 0.549829 -0.441324
12  1.719574 -0.000025 0.000018  0.020400 -0.102566 -1.148567
13  1.209179 0.000090 0.000013  -0.007440 -0.005997 -0.758193
14  4.085233 -0.082653 1.151009  0.062924 0.737615 -0.059439
15  1.719448 -0.000020 0.000025  0.009236 0.011567 -0.550390
16  1.099676 0.000049 0.000006  -0.075863 0.037883 -1.427198
17  0.843974 -1.406404 1.342923  -1.080860 -0.486499 -0.283748
18  1.789820 -0.000003 -0.000018  0.000775 -0.010425 0.711217
19  1.207015 -0.000013 -0.000043  0.001150 -0.000017 -0.116134
20  5.740636 0.000387 -0.000700  -0.207272 0.000003 0.000064
21  11.480976 0.000147 -0.000847  -0.073304 -0.141274 0.066245
22  6.027524 -0.000330 0.000200  1.609190 -0.612550 1.535109
23  0.000000 11.692097 -0.000006  -1.075952 -0.520143 -0.838926
24  0.000003 0.000009 -0.000001  0.287012 -0.000031 1.570739
25  0.000000 -0.000011 0.000001  0.868959 0.000002 1.570712
26  -6.617934 -9.178503 0.826812  1.473120 1.855075 -0.198639
27  6.027514 -0.000259 -0.000221  1.556323 0.783922 -0.694201
28  11.691990 0.000162 0.000855  0.141449 0.000075 -1.866655
29  11.479093 -0.001008 0.000977  -1.145286 0.358373 0.945798
30  3.859438 -0.132759 1.193065  0.469647 -0.013262 -1.872395
31  1.312559 0.000025 -0.000001  0.024060 -0.138696 -0.550187
32  0.729346 0.000064 -0.000027  -0.166197 -0.081570 -0.714272
33  3.942046 0.050138 0.431001  0.225309 -0.086237 -1.592712
34  1.539097 0.000005 -0.000001  0.035254 -0.050373 -0.994350
35  1.196301 0.000078 -0.000003  -0.021521 0.002175 -0.839738
36  3.883414 -0.050473 -0.431084  0.184824 -0.271737 -1.204030
37  1.719564 -0.000084 -0.000004  0.022859 -0.107186 -1.509108
38  1.209197 0.000036 0.000011  0.000661 0.071072 -0.480462
39  3.859588 -0.149082 -1.331321  -0.098879 -0.048071 -0.235951
40  1.719413 -0.000098 -0.000037  -0.012998 0.012354 -1.121675
41  1.099674 0.000024 0.000007  -0.006629 -0.007992 -0.770960
42  0.805983 -0.359848 -1.318338  0.991670 0.166767 -0.799527
43  1.789780 -0.000008 -0.000042  0.000058 -0.002451 0.133098
44  1.206997 -0.000007 0.000005  0.000372 -0.000071 1.058780
45  5.740572 0.000078 0.000721  0.192773 -0.000014 0.000028
46  11.480762 -0.000128 0.000940  0.056310 0.080428 0.158394
47  6.027515 -0.000273 -0.000230  -0.923192 -0.483666 -1.713892
48  -0.000001 11.691974 -0.000005  -1.245012 0.690325 0.928846
49  0.000002 0.000001 -0.000000  2.413977 -0.000036 1.570860
50  -0.000006 -0.000013 0.000005  2.272645 -0.000036 1.570861
51  -3.422161 -3.522025 -6.143374  -0.080716 -2.995682 1.466285
52  0.000000 0.000000 -0.000001  0.008153 -0.000259 0.000009
53  -0.000000 -0.000000 0.000000  1.565115 0.043565 -0.106862
54  -0.226614 -13.476233 -4.901093  -0.712957 -0.164783 -1.819583
55  -0.000001 -0.000001 -0.000000  0.000000 -0.000001 -0.000002
56  0.000029 0.000028 0.000001  -1.571901 -0.044449 -0.106509
57  6.251540 -15.190623 -19.647226  1.570796 -0.000000 0.000000
58  -15.417985 4.000748 -22.641926  1.570796 -0.000000 0.000000
59  2.236387 0.526436 -5.002028  1.570796 -0.000000 0.000000
60  -0.004311 0.001230 -0.000371  0.006898 -0.005534 -0.284229
61  0.826810 10.209643 -4.879054  1.570796 -0.000000 0.000000
62  0.000000 0.000000 0.000000  -0.078727 -3.136056 0.284226
63  -2.286180 -3.314903 -0.863988  1.570796 -0.000000 0.000000
64  -2.286376 -7.786093 -0.821105  1.570048 0.002769 0.000156
65  0.048106 -2.944859 0.933264  -0.000000 -0.000000 0.000000
66  0.048105 -1.112260 5.803838  -0.000000 0.000000 0.000954
67  -1.140610 -0.098564 1.093603  0.000000 -0.000000 -0.002018
68  -0.008860 -1.854888 14.765544  -0.000000 -0.000000 0.000000
69  0.001655 -3.609730 3.172390  -0.000000 -0.000000 0.000000
70  0.274296 -1.685571 8.253130  -0.000000 -0.000000 0.000000
71  -3.588360 -1.097282 -23.660017  1.570796 -0.000000 0.000000
72  0.017809 1.799356 -0.402361  0.000000 -0.000000 0.000000
73  -2.294498 -12.495545 -4.914746  1.570048 0.002769 0.000156
74  0.162052 2.027741 -0.581137  -0.000000 -0.000000 0.000000
75  -0.135029 1.804883 -0.581137  -0.000000 -0.000000 0.000000
time 12
0  0.000006 0.000000 0.000000  -1.570800 -1.391899 -1.570792
1  -5.014729 0.371465 2.232071  -1.544956 -1.855077 -0.198630
2  6.027524 -0.000324 0.000191  -0.756941 -0.957901 -1.540578
3  11.692103 0.000643 -0.000738  -0.582091 -0.000029 -1.576148
4  11.479861 -0.000140 -0.000972  0.955916 -0.681471 0.626125
5  3.859504 -0.142823 -1.192080  -0.650040 -0.228046 -1.540122
6  1.312590 0.000010 0.000008  -0.131010 -0.023795 -0.135507
7  0.729355 0.000054 0.000047  0.001651 -0.009716 -0.581416
8  3.942142 0.046332 -0.431543  -0.477014 0.231232 -1.027141
9  1.539110 0.000080 0.000003  -0.024283 -0.110124 -0.721493
10  1.196332 0.000146 0.000029  0.008287 0.008699 -1.087888
11  3.883512 -0.047211 0.431350  -0.167306 0.549829 -0.441324
12  1.719572 -0.000029 0.000018  0.020400 -0.102566 -1.148567
13  1.209179 0.000093 0.000012  -0.007440 -0.005997 -0.758193
14  4.085237 -0.082652 1.151008  0.062924 0.737615 -0.059439
15  1.719447 -0.000019 0.000027  0.009236 0.011567 -0.550390
16  1.099675 0.000048 0.000005  -0.075863 0.037883 -1.427198
17  0.843976 -1.406402 1.342923  -1.080860 -0.486499 -0.283748
18  1.789819 -0.000004 -0.000018  0.000775 -0.010425 0.711217
19  1.207015 -0.000013 -0.000043  0.001150 -0.000017 -0.116134
20  5.740635 0.000389 -0.000699  -0.206392 0.000003 0.000063
21  11.480977 0.000151 -0.000846  -0.073207 -0.140845 0.066245
22  6.027524 -0.000330 0.000200  1.609514 -0.611912 1.533679
23  0.000001 11.692097 -0.000007  -1.074403 -0.518648 -0.837994
24  0.000003 0.000010 -0.000000  0.287012 -0.000031 1.570739
25  -0.000000 -0.000011 0.000000  0.868960 0.000002 1.570712
26  -6.617934 -9.178503 0.826812  1.473120 1.855075 -0.198639
27  6.027514 -0.000259 -0.000221  1.556205 0.785375 -0.694274
28  11.691992 0.000160 0.000856  0.141449 0.000074 -1.863662
29  11.479119 -0.000992 0.000973  -1.144667 0.358194 0.944461
30  3.859437 -0.132758 1.193065  0.469647 -0.013262 -1.872395
31  1.312559 0.000025 -0.000001  0.024060 -0.138696 -0.550187
32  0.729345 0.000064 -0.000027  -0.166197 -0.081570 -0.714272
33  3.942047 0.050139 0.431000  0.225309 -0.086237 -1.592712
34  1.539097 0.000006 -0.000002  0.035254 -0.050373 -0.994350
35  1.196300 0.000078 -0.000003  -0.021521 0.002175 -0.839738
36  3.883414 -0.050472 -0.431084  0.184824 -0.271737 -1.204030
37  1.719563 -0.000085 -0.000004  0.022858 -0.107186 -1.509108
38  1.209198 0.000035 0.000012  0.000661 0.071072 -0.480462
39  3.859589 -0.149082 -1.331321  -0.098879 -0.048071 -0.235951
40  1.719413 -0.000098 -0.000036  -0.012998 0.012354 -1.121675
41  1.099674 0.000025 0.000007  -0.006629 -0.007992 -0.770960
42  0.805983 -0.359848 -1.318339  0.991670 0.166767 -0.799527
43  1.789780 -0.000008 -0.000043  0.000058 -0.002451 0.133097
44  1.206997 -0.000007 0.000005  0.000372 -0.000071 1.058780
45  5.740572 0.000079 0.000721  0.192441 -0.000014 0.000028
46  11.480767 -0.000125 0.000940  0.056477 0.080406 0.158111
47  6.027515 -0.000273 -0.000230  -0.924639 -0.482976 -1.713209
48  -0.000000 11.691973 -0.000004  -1.243237 0.688495 0.928043
49  0.000003 -0.000000 0.000000  2.413977 -0.000036 1.570860
50  -0.000006 -0.000014 0.000005  2.272645 -0.000036 1.570861
51  -3.418263 -3.549649 -6.143103  -0.080015 -2.995950 1.466280
52  0.000000 -0.000000 -0.000000  0.008153 -0.000259 0.000009
53  -0.000000 0.000000 -0.000000  1.565115 0.043565 -0.106862
54  -0.222649 -13.503789 -4.900464  -0.712300 -0.164418 -1.819595
55  0.000000 0.000000 -0.000000  0.000000 -0.000001 -0.000002
56  0.000031 0.000030 0.000001  -1.571901 -0.044449 -0.106509
57  6.251540 -15.190623 -19.647226  1.570796 -0.000000 0.000000
58  -15.417985 4.000748 -22.641926  1.570796 -0.000000 0.000000
59  2.236387 0.526436 -5.002028  1.570796 -0.000000 0.000000
60  -0.004311 0.001230 -0.000371  0.006898 -0.005534 -0.284229
61  0.826810 10.209643 -4.879054  1.570796 -0.000000 0.000000
62  0.000000 0.000000 0.000000  -0.078727 -3.136056 0.284226
63  -2.286180 -3.314903 -0.863988  1.570796 -0.000000 0.000000
64  -2.285888 -7.814641 -0.820849  1.570242 0.002051 0.000253
65  0.048105 -2.944859 0.933263  -0.000000 0.000000 -0.000000
66  0.048105 -1.112260 5.803836  -0.000000 0.000000 0.000706
67  -1.140611 -0.098565 1.093603  0.000000 -0.000000 0.000000
68  -0.008860 -1.854888 14.765545  -0.000000 0.000000 -0.000000
69  0.001654 -3.609730 3.172392  -0.000000 0.000000 -0.000000
70  0.274295 -1.685571 8.253129  -0.000000 0.000000 -0.000000
71  -3.588360 -1.097282 -23.660017  1.570796 -0.000000 0.000000
72  0.017809 1.799356 -0.402361  0.000000 -0.000000 0.000000
73  -2.290617 -12.523298 -4.915410  1.570242 0.002051 0.000253
74  0.162052 2.027740 -0.581138  -0.000000 0.000000 -0.000000
75  -0.135029 1.804883 -0.581138  -0.000000 0.000000 -0.000000
time 13
0  0.000006 0.000000 0.000000  -1.570800 -1.391899 -1.570792
1  -5.014729 0.371465 2.232071  -1.544956 -1.855077 -0.198630
2  6.027524 -0.000324 0.000191  -0.757436 -0.958546 -1.541433
3  11.692102 0.000644 -0.000738  -0.582091 -0.000029 -1.573518
4  11.479881 -0.000129 -0.000964  0.957878 -0.679514 0.625300
5  3.859504 -0.142823 -1.192079  -0.650040 -0.228046 -1.540122
6  1.312589 0.000010 0.000008  -0.131010 -0.023795 -0.135507
7  0.729355 0.000053 0.000049  0.001651 -0.009716 -0.581416
8  3.942141 0.046332 -0.431543  -0.477014 0.231232 -1.027141
9  1.539111 0.000083 0.000004  -0.024283 -0.110124 -0.721493
10  1.196331 0.000147 0.000029  0.008287 0.008699 -1.087888
11  3.883511 -0.047212 0.431351  -0.167306 0.549829 -0.441324
12  1.719572 -0.000029 0.000017  0.020400 -0.102566 -1.148567
13  1.209180 0.000088 0.000011  -0.007440 -0.005997 -0.758193
14  4.085237 -0.082653 1.151009  0.062924 0.737615 -0.059439
15  1.719447 -0.000019 0.000027  0.009236 0.011567 -0.550390
16  1.099675 0.000048 0.000005  -0.075863 0.037883 -1.427198
17  0.843976 -1.406403 1.342922  -1.080860 -0.486499 -0.283748
18  1.789820 -0.000004 -0.000018  0.000775 -0.010425 0.711217
19  1.207014 -0.000013 -0.000044  0.001150 -0.000017 -0.116134
20  5.740636 0.000390 -0.000699  -0.205414 0.000003 0.000063
21  11.480981 0.000155 -0.000845  -0.073066 -0.140377 0.066368
22  6.027524 -0.000330 0.000200  1.609807 -0.611249 1.532250
23  0.000001 11.692095 -0.000006  -1.072856 -0.517155 -0.837062
24  0.000003 0.000009 0.000001  0.287011 -0.000031 1.570738
25  0.000000 -0.000012 0.000001  0.868960 0.000002 1.570712
26  -6.617934 -9.178503 0.826812  1.473120 1.855075 -0.198639
27  6.027514 -0.000259 -0.000221  1.555858 0.786925 -0.694450
28  11.691990 0.000161 0.000857  0.141449 0.000074 -1.860751
29  11.479145 -0.000978 0.000971  -1.143301 0.358354 0.943677
30  3.859437 -0.132758 1.193065  0.469647 -0.013262 -1.872395
31  1.312559 0.000026 -0.000001  0.024060 -0.138696 -0.550187
32  0.729345 0.000065 -0.000027  -0.166197 -0.081570 -0.714272
33  3.942047 0.050139 0.431000  0.225309 -0.086237 -1.592712
34  1.539097 0.000005 -0.000001  0.035254 -0.050373 -0.994350
35  1.196301 0.000078 -0.000003  -0.021521 0.002175 -0.839738
36  3.883413 -0.050472 -0.431084  0.184824 -0.271737 -1.204030
37  1.719564 -0.000085 -0.000004  0.022858 -0.107186 -1.509108
38  1.209198 0.000035 0.000011  0.000661 0.071072 -0.480462
39  3.859588 -0.149082 -1.331320  -0.098879 -0.048071 -0.235951
40  1.719414 -0.000098 -0.000036  -0.012998 0.012354 -1.121675
41  1.099674 0.000024 0.000006  -0.006629 -0.007992 -0.770960
42  0.805983 -0.359848 -1.318338  0.991670 0.166767 -0.799527
43  1.789780 -0.000008 -0.000042  0.000058 -0.002451 0.133098
44  1.206997 -0.000007 0.000005  0.000372 -0.000071 1.058780
45  5.740572 0.000080 0.000722  0.192322 -0.000014 0.000028
46  11.480772 -0.000122 0.000939  0.056733 0.080519 0.157884
47  6.027515 -0.000273 -0.000230  -0.926274 -0.482371 -1.712381
48  -0.000002 11.691976 -0.000004  -1.241512 0.686716 0.927259
49  0.000002 -0.000000 0.000000  2.413977 -0.000036 1.570860
50  -0.000008 -0.000013 0.000006  2.272645 -0.000036 1.570861
51  -3.411496 -3.576136 -6.142593  -0.078713 -2.996448 1.465965
52  -0.000000 0.000000 -0.000001  0.008153 -0.000259 0.000009
53  -0.000000 -0.000000 0.000000  1.565115 0.043565 -0.106862
54  -0.218799 -13.531132 -4.899285  -0.711080 -0.163740 -1.819920
55  0.000001 0.000000 -0.000000  0.000000 -0.000001 -0.000002
56  0.000032 0.000029 0.000001  -1.571902 -0.044449 -0.106509
57  6.251540 -15.190623 -19.647226  1.570796 -0.000000 0.000000
58  -15.417985 4.000748 -22.641926  1.570796 -0.000000 0.000000
59  2.236387 0.526436 -5.002028  1.570796 -0.000000 0.000000
60  -0.004311 0.001230 -0.000371  0.006898 -0.005534 -0.284229
61  0.826810 10.209643 -4.879054  1.570796 -0.000000 0.000000
62  0.000000 0.000000 0.000000  -0.078727 -3.136056 0.284226
63  -2.286180 -3.314903 -0.863988  1.570796 -0.000000 0.000000
64  -2.286756 -7.843191 -0.820373  1.570602 0.000718 0.000127
65  0.048105 -2.944859 0.933263  -0.000000 0.000000 -0.000000
66  0.048105 -1.112260 5.803838  -0.000000 0.000000 0.000247
67  -1.140611 -0.098565 1.093603  0.000000 0.000000 0.000000
68  -0.008860 -1.854888 14.765546  -0.000000 0.000000 -0.000000
69  0.001655 -3.609730 3.172391  -0.000000 0.000000 -0.000000
70  0.274296 -1.685571 8.253133  -0.000000 0.000000 -0.000000
71  -3.588360 -1.097282 -23.660017  1.570796 -0.000000 0.000000
72  0.017809 1.799356 -0.402361  0.000000 -0.000000 0.000000
73  -2.286621 -12.550373 -4.916635  1.570602 0.000718 0.000127
74  0.162052 2.027741 -0.581138  -0.000000 0.000000 -0.000000
75  -0.135029 1.804883 -0.581138  -0.000000 0.000000 -0.000000
time 14
0  0.000006 0.000000 0.000000  -1.570800 -1.391899 -1.570792
1  -5.014729 0.371465 2.232071  -1.544956 -1.855077 -0.198630
2  6.027524 -0.000324 0.000191  -0.757607 -0.958857 -1.541861
3  11.692104 0.000643 -0.000739  -0.582091 -0.000029 -1.572292
4  11.479891 -0.000126 -0.000962  0.958796 -0.678562 0.625002
5  3.859501 -0.142823 -1.192079  -0.650040 -0.228046 -1.540122
6  1.312588 0.000011 0.000009  -0.131010 -0.023795 -0.135507
7  0.729356 0.000055 0.000048  0.001651 -0.009716 -0.581416
8  3.942140 0.046331 -0.431542  -0.477014 0.231231 -1.027141
9  1.539110 0.000083 0.000004  -0.024283 -0.110124 -0.721493
10  1.196333 0.000146 0.000027  0.008287 0.008699 -1.087888
11  3.883508 -0.047212 0.431351  -0.167306 0.549829 -0.441324
12  1.719573 -0.000028 0.000018  0.020400 -0.102566 -1.148567
13  1.209180 0.000091 0.000011  -0.007440 -0.005997 -0.758193
14  4.085233 -0.082653 1.151009  0.062924 0.737615 -0.059439
15  1.719448 -0.000019 0.000028  0.009236 0.011567 -0.550390
16  1.099675 0.000049 0.000006  -0.075863 0.037883 -1.427198
17  0.843974 -1.406403 1.342923  -1.080860 -0.486499 -0.283748
18  1.789817 -0.000005 -0.000018  0.000775 -0.010425 0.711217
19  1.207016 -0.000013 -0.000043  0.001150 -0.000017 -0.116134
20  5.740636 0.000389 -0.000700  -0.204951 0.000003 0.000064
21  11.480984 0.000154 -0.000846  -0.072998 -0.140155 0.066445
22  6.027524 -0.000330 0.000200  1.609900 -0.610932 1.531629
23  0.000001 11.692097 -0.000007  -1.072134 -0.516460 -0.836627
24  0.000002 0.000009 -0.000001  0.287011 -0.000031 1.570738
25  0.000001 -0.000012 0.000000  0.868960 0.000002 1.570712
26  -6.617934 -9.178503 0.826812  1.473120 1.855075 -0.198639
27  6.027514 -0.000259 -0.000221  1.555667 0.787641 -0.694545
28  11.691991 0.000161 0.000857  0.141449 0.000074 -1.859447
29  11.479154 -0.000973 0.000971  -1.142544 0.358507 0.943433
30  3.859438 -0.132758 1.193065  0.469647 -0.013262 -1.872395
31  1.312559 0.000025 -0.000001  0.024060 -0.138696 -0.550187
32  0.729344 0.000065 -0.000027  -0.166197 -0.081570 -0.714272
33  3.942047 0.050139 0.431001  0.225309 -0.086237 -1.592712
34  1.539097 0.000006 -0.000001  0.035254 -0.050373 -0.994350
35  1.196300 0.000079 -0.000003  -0.021521 0.002175 -0.839738
36  3.883414 -0.050472 -0.431084  0.184824 -0.271737 -1.204030
37  1.719564 -0.000085 -0.000005  0.022859 -0.107186 -1.509108
38  1.209197 0.000036 0.000011  0.000662 0.071072 -0.480462
39  3.859589 -0.149082 -1.331320  -0.098879 -0.048071 -0.235951
40  1.719413 -0.000098 -0.000036  -0.012998 0.012354 -1.121675
41  1.099673 0.000023 0.000007  -0.006629 -0.007992 -0.770960
42  0.805984 -0.359848 -1.318338  0.991670 0.166767 -0.799527
43  1.789781 -0.000008 -0.000042  0.000058 -0.002451 0.133098
44  1.206996 -0.000007 0.000005  0.000372 -0.000071 1.058780
45  5.740571 0.000080 0.000720  0.192308 -0.000014 0.000028
46  11.480774 -0.000120 0.000940  0.056864 0.080599 0.157792
47  6.027515 -0.000273 -0.000230  -0.927041 -0.482109 -1.711985
48  -0.000000 11.691974 -0.000006  -1.240739 0.685919 0.926906
49  0.000003 -0.000002 0.000000  2.413977 -0.000036 1.570860
50  -0.000007 -0.000013 0.000005  2.272645 -0.000036 1.570861
51  -3.408003 -3.587938 -6.142315  -0.078012 -2.996716 1.465737
52  -0.000000 0.000000 0.000000  0.008153 -0.000259 0.000009
53  0.000000 0.000000 0.000000  1.565115 0.043565 -0.106862
54  -0.217459 -13.543577 -4.898647  -0.710424 -0.163375 -1.820154
55  -0.000001 0.000000 -0.000000  0.000000 -0.000001 -0.000002
56  0.000029 0.000029 0.000001  -1.571902 -0.044449 -0.106509
57  6.251540 -15.190623 -19.647226  1.570796 -0.000000 0.000000
58  -15.417985 4.000748 -22.641926  1.570796 -0.000000 0.000000
59  2.236387 0.526436 -5.002028  1.570796 -0.000000 0.000000
60  -0.004311 0.001230 -0.000371  0.006898 -0.005534 -0.284229
61  0.826810 10.209643 -4.879054  1.570796 -0.000000 0.000000
62  0.000000 0.000000 0.000000  -0.078727 -3.136056 0.284226
63  -2.286180 -3.314903 -0.863988  1.570796 -0.000000 0.000000
64  -2.287624 -7.856167 -0.820117  1.570796 -0.000000 0.000000
65  0.048105 -2.944859 0.933263  0.000000 -0.000000 0.000000
66  0.048105 -1.112260 5.803836  0.000000 0.000000 0.000000
67  -1.140610 -0.098565 1.093603  0.000000 -0.000000 0.000000
68  -0.008860 -1.854888 14.765545  0.000000 -0.000000 0.000000
69  0.001655 -3.609730 3.172391  0.000000 -0.000000 0.000000
70  0.274296 -1.685571 8.253132  0.000000 -0.000000 0.000000
71  -3.588360 -1.097282 -23.660017  1.570796 -0.000000 0.000000
72  0.017809 1.799356 -0.402361  0.000000 -0.000000 0.000000
73  -2.285144 -12.562553 -4.917291  1.570796 -0.000000 0.000000
74  0.162052 2.027740 -0.581139  0.000000 -0.000000 0.000000
75  -0.135029 1.804883 -0.581139  0.000000 -0.000000 0.000000
end
