version 1
nodes
0 "ValveBiped.Bip01_Spine4" -1
1 "ValveBiped.Bip01_L_Clavicle" 0
2 "ValveBiped.Bip01_L_UpperArm" 1
3 "ValveBiped.Bip01_L_Forearm" 2
4 "ValveBiped.Bip01_L_Hand" 3
5 "ValveBiped.Bip01_L_Finger4" 4
6 "ValveBiped.Bip01_L_Finger41" 5
7 "ValveBiped.Bip01_L_Finger42" 6
8 "ValveBiped.Bip01_L_Finger3" 4
9 "ValveBiped.Bip01_L_Finger31" 8
10 "ValveBiped.Bip01_L_Finger32" 9
11 "ValveBiped.Bip01_L_Finger2" 4
12 "ValveBiped.Bip01_L_Finger21" 11
13 "ValveBiped.Bip01_L_Finger22" 12
14 "ValveBiped.Bip01_L_Finger1" 4
15 "ValveBiped.Bip01_L_Finger11" 14
16 "ValveBiped.Bip01_L_Finger12" 15
17 "ValveBiped.Bip01_L_Finger0" 4
18 "ValveBiped.Bip01_L_Finger01" 17
19 "ValveBiped.Bip01_L_Finger02" 18
20 "ValveBiped.Bip01_L_Ulna" 3
21 "ValveBiped.Bip01_L_Wrist" 3
22 "rig_l_upperarm" 1
23 "rig_l_forearm" 22
24 "rig_d_l_forearm" 23
25 "rig_d_l_upperarm" 22
26 "ValveBiped.Bip01_R_Clavicle" 0
27 "ValveBiped.Bip01_R_UpperArm" 26
28 "ValveBiped.Bip01_R_Forearm" 27
29 "ValveBiped.Bip01_R_Hand" 28
30 "ValveBiped.Bip01_R_Finger4" 29
31 "ValveBiped.Bip01_R_Finger41" 30
32 "ValveBiped.Bip01_R_Finger42" 31
33 "ValveBiped.Bip01_R_Finger3" 29
34 "ValveBiped.Bip01_R_Finger31" 33
35 "ValveBiped.Bip01_R_Finger32" 34
36 "ValveBiped.Bip01_R_Finger2" 29
37 "ValveBiped.Bip01_R_Finger21" 36
38 "ValveBiped.Bip01_R_Finger22" 37
39 "ValveBiped.Bip01_R_Finger1" 29
40 "ValveBiped.Bip01_R_Finger11" 39
41 "ValveBiped.Bip01_R_Finger12" 40
42 "ValveBiped.Bip01_R_Finger0" 29
43 "ValveBiped.Bip01_R_Finger01" 42
44 "ValveBiped.Bip01_R_Finger02" 43
45 "ValveBiped.Bip01_R_Ulna" 28
46 "ValveBiped.Bip01_R_Wrist" 28
47 "rig_r_upperarm" 26
48 "rig_r_forearm" 47
49 "rig_d_r_forearm" 48
50 "rig_d_r_upperarm" 47
51 "rig_r_hand" -1
52 "rig_d_r_hand" 51
53 "rig_d_r_wrist" 52
54 "rig_l_hand" -1
55 "rig_d_l_hand" 54
56 "rig_d_l_wrist" 54
57 "rig_l_pole" -1
58 "rig_r_pole" -1
59 "rig_l_clavicle" -1
60 "rig_d_l_clavicle" 59
61 "rig_r_clavicle" -1
62 "rig_d_r_clavicle" 61
63 "Camera" -1
64 "body" -1
65 "trigger" 64
66 "bolt" 64
67 "chandle" 66
68 "barrel" 64
69 "magrel" 64
70 "bullet1" 64
71 "mag" -1
72 "fakerounds" 71
73 "fakemag" -1
74 "bullet2" 73
75 "bullet3" 73
end
skeleton
time 0
0  0.000006 0.000000 0.000000  -1.570800 -1.391899 -1.570792
1  -5.014729 0.371465 2.232071  -1.544956 -1.855077 -0.198630
2  6.027524 -0.000324 0.000191  -0.743952 -0.958498 -1.544419
3  11.692103 0.000645 -0.000740  -0.582091 -0.000029 -1.566593
4  11.479935 -0.000106 -0.000945  0.925481 -0.697108 0.602720
5  3.859503 -0.142822 -1.192079  -0.650040 -0.228046 -1.540122
6  1.312589 0.000011 0.000008  -0.131010 -0.023795 -0.135507
7  0.729355 0.000054 0.000051  0.001651 -0.009716 -0.581416
8  3.942141 0.046332 -0.431543  -0.477014 0.231232 -1.027141
9  1.539111 0.000082 0.000003  -0.024283 -0.110124 -0.721493
10  1.196333 0.000146 0.000030  0.008287 0.008699 -1.087888
11  3.883511 -0.047211 0.431351  -0.167306 0.549829 -0.441324
12  1.719572 -0.000026 0.000017  0.020400 -0.102566 -1.148567
13  1.209178 0.000092 0.000011  -0.007440 -0.005997 -0.758193
14  4.085235 -0.082652 1.151009  0.062924 0.737615 -0.059439
15  1.719445 -0.000019 0.000028  0.009236 0.011568 -0.550390
16  1.099674 0.000050 0.000005  -0.075863 0.037883 -1.427198
17  0.843976 -1.406403 1.342923  -1.080860 -0.486499 -0.283748
18  1.789819 -0.000003 -0.000018  0.000775 -0.010425 0.711217
19  1.207015 -0.000013 -0.000044  0.001150 -0.000017 -0.116134
20  5.740635 0.000388 -0.000699  -0.213574 0.000003 0.000064
21  11.480993 0.000157 -0.000841  -0.078605 -0.144125 0.058532
22  6.027524 -0.000330 0.000200  1.600362 -0.611760 1.545721
23  0.000001 11.692096 -0.000006  -1.068781 -0.513232 -0.834599
24  0.000003 0.000009 -0.000000  0.287011 -0.000030 1.570739
25  0.000000 -0.000012 0.000001  0.868960 0.000002 1.570712
26  -6.617934 -9.178503 0.826812  1.473120 1.855075 -0.198639
27  6.027513 -0.000259 -0.000221  1.578574 0.779945 -0.684414
28  11.691989 0.000161 0.000856  0.141449 0.000074 -1.861228
29  11.479143 -0.000979 0.000973  -1.190315 0.332071 0.927868
30  3.859438 -0.132758 1.193066  0.469647 -0.013262 -1.872395
31  1.312558 0.000026 -0.000001  0.024060 -0.138696 -0.550187
32  0.729345 0.000065 -0.000028  -0.166197 -0.081570 -0.714272
33  3.942047 0.050139 0.431001  0.225309 -0.086237 -1.592712
34  1.539097 0.000005 -0.000001  0.035254 -0.050373 -0.994350
35  1.196300 0.000077 -0.000003  -0.021521 0.002175 -0.839738
36  3.883413 -0.050472 -0.431083  0.184824 -0.271737 -1.204030
37  1.719563 -0.000085 -0.000005  0.022858 -0.107186 -1.509108
38  1.209197 0.000035 0.000011  0.000661 0.071072 -0.480462
39  3.859588 -0.149082 -1.331320  -0.098879 -0.048071 -0.235951
40  1.719412 -0.000098 -0.000036  -0.012998 0.012354 -1.121675
41  1.099674 0.000023 0.000007  -0.006629 -0.007992 -0.770960
42  0.805984 -0.359847 -1.318337  0.991670 0.166767 -0.799527
43  1.789780 -0.000008 -0.000042  0.000058 -0.002451 0.133097
44  1.206996 -0.000006 0.000006  0.000372 -0.000071 1.058780
45  5.740575 0.000079 0.000722  0.182242 -0.000013 0.000028
46  11.480774 -0.000122 0.000940  0.050961 0.071680 0.158150
47  6.027515 -0.000273 -0.000230  -0.910205 -0.472172 -1.725758
48  -0.000001 11.691975 -0.000006  -1.241794 0.687007 0.927387
49  0.000003 0.000001 0.000000  2.413977 -0.000036 1.570860
50  -0.000006 -0.000013 0.000004  2.272645 -0.000036 1.570861
51  -3.654998 -3.595170 -6.090127  -0.119636 -2.992809 1.478372
52  -0.000000 -0.000000 0.000000  0.008153 -0.000259 0.000009
53  0.000000 0.000000 0.000001  1.565115 0.043565 -0.106862
54  -0.350731 -13.529757 -4.982502  -0.751189 -0.173148 -1.806781
55  -0.000001 -0.000000 0.000000  0.000000 -0.000001 -0.000002
56  0.000029 0.000028 0.000001  -1.571901 -0.044449 -0.106509
57  6.251540 -15.190623 -19.647226  1.570796 -0.000000 0.000000
58  -15.417985 4.000748 -22.641926  1.570796 -0.000000 0.000000
59  2.236387 0.526436 -5.002028  1.570796 -0.000000 0.000000
60  -0.004311 0.001230 -0.000371  0.006898 -0.005534 -0.284229
61  0.826810 10.209643 -4.879054  1.570796 -0.000000 0.000000
62  0.000000 0.000000 0.000000  -0.078727 -3.136056 0.284226
63  0.000000 0.000000 0.000000  1.570796 -0.000000 0.000000
64  -2.287624 -7.856167 -0.820117  1.571103 0.041360 0.006551
65  0.048106 -2.944859 0.933263  0.000000 -0.000000 -0.000000
66  0.048105 -1.112260 5.803837  0.000000 -0.000000 -0.000000
67  -1.140611 -0.098565 1.093603  0.000000 -0.000000 -0.000000
68  -0.008860 -1.854888 14.765547  0.000000 -0.000000 -0.000000
69  0.001655 -3.609730 3.172391  0.000000 -0.000000 -0.000000
70  0.164532 -2.069433 4.125248  0.000000 -0.000000 -0.000000
71  -3.588360 -1.097282 -23.660017  1.570796 -0.000000 0.000000
72  0.017809 1.799356 -0.402361  0.000000 -0.000000 0.000000
73  -2.423788 -12.562288 -4.915334  1.571103 0.041360 0.006551
74  0.162052 2.027740 -0.581140  0.000000 -0.000000 -0.000000
75  -0.135029 1.804882 -0.581139  0.000000 -0.000000 -0.000000
end
