version 1
nodes
0 "ValveBiped.Bip01_Spine4" -1
1 "ValveBiped.Bip01_L_Clavicle" 0
2 "ValveBiped.Bip01_L_UpperArm" 1
3 "ValveBiped.Bip01_L_Forearm" 2
4 "ValveBiped.Bip01_L_Hand" 3
5 "ValveBiped.Bip01_L_Finger4" 4
6 "ValveBiped.Bip01_L_Finger41" 5
7 "ValveBiped.Bip01_L_Finger42" 6
8 "ValveBiped.Bip01_L_Finger3" 4
9 "ValveBiped.Bip01_L_Finger31" 8
10 "ValveBiped.Bip01_L_Finger32" 9
11 "ValveBiped.Bip01_L_Finger2" 4
12 "ValveBiped.Bip01_L_Finger21" 11
13 "ValveBiped.Bip01_L_Finger22" 12
14 "ValveBiped.Bip01_L_Finger1" 4
15 "ValveBiped.Bip01_L_Finger11" 14
16 "ValveBiped.Bip01_L_Finger12" 15
17 "ValveBiped.Bip01_L_Finger0" 4
18 "ValveBiped.Bip01_L_Finger01" 17
19 "ValveBiped.Bip01_L_Finger02" 18
20 "ValveBiped.Bip01_L_Ulna" 3
21 "ValveBiped.Bip01_L_Wrist" 3
22 "rig_l_upperarm" 1
23 "rig_l_forearm" 22
24 "rig_d_l_forearm" 23
25 "rig_d_l_upperarm" 22
26 "ValveBiped.Bip01_R_Clavicle" 0
27 "ValveBiped.Bip01_R_UpperArm" 26
28 "ValveBiped.Bip01_R_Forearm" 27
29 "ValveBiped.Bip01_R_Hand" 28
30 "ValveBiped.Bip01_R_Finger4" 29
31 "ValveBiped.Bip01_R_Finger41" 30
32 "ValveBiped.Bip01_R_Finger42" 31
33 "ValveBiped.Bip01_R_Finger3" 29
34 "ValveBiped.Bip01_R_Finger31" 33
35 "ValveBiped.Bip01_R_Finger32" 34
36 "ValveBiped.Bip01_R_Finger2" 29
37 "ValveBiped.Bip01_R_Finger21" 36
38 "ValveBiped.Bip01_R_Finger22" 37
39 "ValveBiped.Bip01_R_Finger1" 29
40 "ValveBiped.Bip01_R_Finger11" 39
41 "ValveBiped.Bip01_R_Finger12" 40
42 "ValveBiped.Bip01_R_Finger0" 29
43 "ValveBiped.Bip01_R_Finger01" 42
44 "ValveBiped.Bip01_R_Finger02" 43
45 "ValveBiped.Bip01_R_Ulna" 28
46 "ValveBiped.Bip01_R_Wrist" 28
47 "rig_r_upperarm" 26
48 "rig_r_forearm" 47
49 "rig_d_r_forearm" 48
50 "rig_d_r_upperarm" 47
51 "rig_r_hand" -1
52 "rig_d_r_hand" 51
53 "rig_d_r_wrist" 52
54 "rig_l_hand" -1
55 "rig_d_l_hand" 54
56 "rig_d_l_wrist" 54
57 "rig_l_pole" -1
58 "rig_r_pole" -1
59 "rig_l_clavicle" -1
60 "rig_d_l_clavicle" 59
61 "rig_r_clavicle" -1
62 "rig_d_r_clavicle" 61
63 "Camera" -1
64 "body" -1
65 "trigger" 64
66 "bolt" 64
67 "chandle" 66
68 "barrel" 64
69 "magrel" 64
70 "bullet1" 64
71 "mag" -1
72 "fakerounds" 71
73 "fakemag" -1
74 "bullet2" 73
75 "bullet3" 73
end
skeleton
time 0
0  0.000006 0.000000 0.000000  -1.570800 -1.391899 -1.570792
1  -5.014729 0.371465 2.232071  -1.544956 -1.855077 -0.198630
2  6.027524 -0.000324 0.000191  -0.757607 -0.958857 -1.541861
3  11.692104 0.000643 -0.000739  -0.582091 -0.000029 -1.572292
4  11.479891 -0.000126 -0.000962  0.958796 -0.678562 0.625002
5  3.859501 -0.142823 -1.192079  -0.650040 -0.228046 -1.540122
6  1.312588 0.000011 0.000009  -0.131010 -0.023795 -0.135507
7  0.729356 0.000055 0.000048  0.001651 -0.009716 -0.581416
8  3.942140 0.046331 -0.431542  -0.477014 0.231231 -1.027141
9  1.539110 0.000083 0.000004  -0.024283 -0.110124 -0.721493
10  1.196333 0.000146 0.000027  0.008287 0.008699 -1.087888
11  3.883508 -0.047212 0.431351  -0.167306 0.549829 -0.441324
12  1.719573 -0.000028 0.000018  0.020400 -0.102566 -1.148567
13  1.209180 0.000091 0.000011  -0.007440 -0.005997 -0.758193
14  4.085233 -0.082653 1.151009  0.062924 0.737615 -0.059439
15  1.719448 -0.000019 0.000028  0.009236 0.011567 -0.550390
16  1.099675 0.000049 0.000006  -0.075863 0.037883 -1.427198
17  0.843974 -1.406403 1.342923  -1.080860 -0.486499 -0.283748
18  1.789817 -0.000005 -0.000018  0.000775 -0.010425 0.711217
19  1.207016 -0.000013 -0.000043  0.001150 -0.000017 -0.116134
20  5.740636 0.000389 -0.000700  -0.204951 0.000003 0.000064
21  11.480984 0.000154 -0.000846  -0.072998 -0.140155 0.066445
22  6.027524 -0.000330 0.000200  1.609900 -0.610932 1.531629
23  0.000001 11.692097 -0.000007  -1.072134 -0.516460 -0.836627
24  0.000002 0.000009 -0.000001  0.287011 -0.000031 1.570738
25  0.000001 -0.000012 0.000000  0.868960 0.000002 1.570712
26  -6.617934 -9.178503 0.826812  1.473120 1.855075 -0.198639
27  6.027514 -0.000259 -0.000221  1.555667 0.787641 -0.694545
28  11.691991 0.000161 0.000857  0.141449 0.000074 -1.859447
29  11.479154 -0.000973 0.000971  -1.142544 0.358507 0.943433
30  3.859438 -0.132758 1.193065  0.469647 -0.013262 -1.872395
31  1.312559 0.000025 -0.000001  0.024060 -0.138696 -0.550187
32  0.729344 0.000065 -0.000027  -0.166197 -0.081570 -0.714272
33  3.942047 0.050139 0.431001  0.225309 -0.086237 -1.592712
34  1.539097 0.000006 -0.000001  0.035254 -0.050373 -0.994350
35  1.196300 0.000079 -0.000003  -0.021521 0.002175 -0.839738
36  3.883414 -0.050472 -0.431084  0.184824 -0.271737 -1.204030
37  1.719564 -0.000085 -0.000005  0.022859 -0.107186 -1.509108
38  1.209197 0.000036 0.000011  0.000662 0.071072 -0.480462
39  3.859589 -0.149082 -1.331320  -0.098879 -0.048071 -0.235951
40  1.719413 -0.000098 -0.000036  -0.012998 0.012354 -1.121675
41  1.099673 0.000023 0.000007  -0.006629 -0.007992 -0.770960
42  0.805984 -0.359848 -1.318338  0.991670 0.166767 -0.799527
43  1.789781 -0.000008 -0.000042  0.000058 -0.002451 0.133098
44  1.206996 -0.000007 0.000005  0.000372 -0.000071 1.058780
45  5.740571 0.000080 0.000720  0.192308 -0.000014 0.000028
46  11.480774 -0.000120 0.000940  0.056864 0.080599 0.157792
47  6.027515 -0.000273 -0.000230  -0.927041 -0.482109 -1.711985
48  -0.000000 11.691974 -0.000006  -1.240739 0.685919 0.926906
49  0.000003 -0.000002 0.000000  2.413977 -0.000036 1.570860
50  -0.000007 -0.000013 0.000005  2.272645 -0.000036 1.570861
51  -3.408003 -3.587938 -6.142315  -0.078012 -2.996716 1.465737
52  -0.000000 0.000000 0.000000  0.008153 -0.000259 0.000009
53  0.000000 0.000000 0.000000  1.565115 0.043565 -0.106862
54  -0.217459 -13.543577 -4.898647  -0.710424 -0.163375 -1.820154
55  -0.000001 0.000000 -0.000000  0.000000 -0.000001 -0.000002
56  0.000029 0.000029 0.000001  -1.571902 -0.044449 -0.106509
57  6.251540 -15.190623 -19.647226  1.570796 -0.000000 0.000000
58  -15.417985 4.000748 -22.641926  1.570796 -0.000000 0.000000
59  2.236387 0.526436 -5.002028  1.570796 -0.000000 0.000000
60  -0.004311 0.001230 -0.000371  0.006898 -0.005534 -0.284229
61  0.826810 10.209643 -4.879054  1.570796 -0.000000 0.000000
62  0.000000 0.000000 0.000000  -0.078727 -3.136056 0.284226
63  -2.286180 -3.314903 -0.863988  1.570796 -0.000000 0.000000
64  -2.287624 -7.856167 -0.820117  1.570796 -0.000000 0.000000
65  0.048105 -2.944859 0.933263  0.000000 -0.000000 0.000000
66  0.048105 -1.112260 5.803836  0.000000 -0.000000 0.000000
67  -1.140610 -0.098565 1.093603  0.000000 -0.000000 0.000000
68  -0.008860 -1.854888 14.765545  0.000000 -0.000000 0.000000
69  0.001655 -3.609730 3.172391  0.000000 -0.000000 0.000000
70  0.164532 -2.069433 4.125247  0.000000 -0.000000 0.000000
71  -2.285144 -12.956001 -5.446409  1.570796 -0.000000 0.000000
72  0.017809 1.799356 -0.402361  0.000000 -0.000000 0.000000
73  -2.285144 -12.562553 -4.917291  1.570796 -0.000000 0.000000
74  0.162052 2.027740 -0.581139  0.000000 -0.000000 0.000000
75  -0.135029 1.804883 -0.581139  0.000000 -0.000000 0.000000
end
