version 1
nodes
0 "root" -1
1 "holosight" -1
end
skeleton
time 0
0  0.000000 0.000000 0.003401  1.570796 -0.000000 0.000000
1  0.464690 -4.899611 1.772063  1.570796 -0.000000 0.000000
end
triangles
gun_tex.001
0  0.081461 5.981089 2.155289  0.000000 1.000000 0.000000  0.401037 0.528692 1 0 1
0  0.464689 5.981089 2.314027  0.000000 1.000000 0.000000  0.401066 0.528763 1 0 1
0  0.464689 5.981089 1.230095  0.000000 1.000000 -0.000000  0.400865 0.528763 1 0 1
gun_tex.001
0  0.464689 5.981089 2.314027  0.000000 1.000000 0.000000  0.401066 0.528763 1 0 1
0  0.847917 5.981089 2.155289  0.000000 1.000000 0.000000  0.401037 0.528834 1 0 1
0  1.006655 5.981089 1.772061  0.000000 1.000000 0.000000  0.400966 0.528863 1 0 1
gun_tex.001
0  1.006655 5.981089 1.772061  0.000000 1.000000 0.000000  0.400966 0.528863 1 0 1
0  0.847917 5.981089 1.388834  0.000000 1.000000 -0.000000  0.400895 0.528834 1 0 1
0  0.464689 5.981089 2.314027  0.000000 1.000000 0.000000  0.401066 0.528763 1 0 1
gun_tex.001
0  0.847917 5.981089 1.388834  0.000000 1.000000 -0.000000  0.400895 0.528834 1 0 1
0  0.464689 5.981089 1.230095  0.000000 1.000000 -0.000000  0.400865 0.528763 1 0 1
0  0.464689 5.981089 2.314027  0.000000 1.000000 0.000000  0.401066 0.528763 1 0 1
gun_tex.001
0  0.464689 5.981089 1.230095  0.000000 1.000000 -0.000000  0.400865 0.528763 1 0 1
0  0.081462 5.981089 1.388833  0.000000 1.000000 0.000000  0.400895 0.528692 1 0 1
0  -0.077276 5.981089 1.772061  0.000000 1.000000 0.000000  0.400966 0.528662 1 0 1
gun_tex.001
0  -0.077276 5.981089 1.772061  0.000000 1.000000 0.000000  0.400966 0.528662 1 0 1
0  0.081461 5.981089 2.155289  0.000000 1.000000 0.000000  0.401037 0.528692 1 0 1
0  0.464689 5.981089 1.230095  0.000000 1.000000 -0.000000  0.400865 0.528763 1 0 1
end
