version 1
nodes
0 "ValveBiped.Bip01_Spine4" -1
1 "ValveBiped.Bip01_L_Clavicle" 0
2 "ValveBiped.Bip01_L_UpperArm" 1
3 "ValveBiped.Bip01_L_Forearm" 2
4 "ValveBiped.Bip01_L_Hand" 3
5 "ValveBiped.Bip01_L_Finger4" 4
6 "ValveBiped.Bip01_L_Finger41" 5
7 "ValveBiped.Bip01_L_Finger42" 6
8 "ValveBiped.Bip01_L_Finger3" 4
9 "ValveBiped.Bip01_L_Finger31" 8
10 "ValveBiped.Bip01_L_Finger32" 9
11 "ValveBiped.Bip01_L_Finger2" 4
12 "ValveBiped.Bip01_L_Finger21" 11
13 "ValveBiped.Bip01_L_Finger22" 12
14 "ValveBiped.Bip01_L_Finger1" 4
15 "ValveBiped.Bip01_L_Finger11" 14
16 "ValveBiped.Bip01_L_Finger12" 15
17 "ValveBiped.Bip01_L_Finger0" 4
18 "ValveBiped.Bip01_L_Finger01" 17
19 "ValveBiped.Bip01_L_Finger02" 18
20 "ValveBiped.Bip01_L_Ulna" 3
21 "ValveBiped.Bip01_L_Wrist" 3
22 "rig_l_upperarm" 1
23 "rig_l_forearm" 22
24 "rig_d_l_forearm" 23
25 "rig_d_l_upperarm" 22
26 "ValveBiped.Bip01_R_Clavicle" 0
27 "ValveBiped.Bip01_R_UpperArm" 26
28 "ValveBiped.Bip01_R_Forearm" 27
29 "ValveBiped.Bip01_R_Hand" 28
30 "ValveBiped.Bip01_R_Finger4" 29
31 "ValveBiped.Bip01_R_Finger41" 30
32 "ValveBiped.Bip01_R_Finger42" 31
33 "ValveBiped.Bip01_R_Finger3" 29
34 "ValveBiped.Bip01_R_Finger31" 33
35 "ValveBiped.Bip01_R_Finger32" 34
36 "ValveBiped.Bip01_R_Finger2" 29
37 "ValveBiped.Bip01_R_Finger21" 36
38 "ValveBiped.Bip01_R_Finger22" 37
39 "ValveBiped.Bip01_R_Finger1" 29
40 "ValveBiped.Bip01_R_Finger11" 39
41 "ValveBiped.Bip01_R_Finger12" 40
42 "ValveBiped.Bip01_R_Finger0" 29
43 "ValveBiped.Bip01_R_Finger01" 42
44 "ValveBiped.Bip01_R_Finger02" 43
45 "ValveBiped.Bip01_R_Ulna" 28
46 "ValveBiped.Bip01_R_Wrist" 28
47 "rig_r_upperarm" 26
48 "rig_r_forearm" 47
49 "rig_d_r_forearm" 48
50 "rig_d_r_upperarm" 47
51 "rig_r_hand" -1
52 "rig_d_r_hand" 51
53 "rig_d_r_wrist" 52
54 "rig_l_hand" -1
55 "rig_d_l_hand" 54
56 "rig_d_l_wrist" 54
57 "rig_l_pole" -1
58 "rig_r_pole" -1
59 "rig_l_clavicle" -1
60 "rig_d_l_clavicle" 59
61 "rig_r_clavicle" -1
62 "rig_d_r_clavicle" 61
63 "Camera" -1
64 "body" -1
65 "hammer" 64
66 "trigger" 64
67 "slide" 64
68 "cylrel" 67
69 "barrel" 67
70 "cylinderlock" 67
71 "cylinder" 70
72 "cylinderpush" 71
73 "pin" 67
74 "mysteriouspiece" 67
75 "bullet1" -1
76 "bullet2" -1
77 "bullet3" -1
78 "bullet4" -1
79 "bullet5" -1
80 "bullet6" -1
81 "speedloader" -1
end
skeleton
time 0
0  0.000006 0.000000 0.000000  -1.570800 -1.391899 -1.570792
1  -9.841317 -7.634221 1.937669  -1.544956 -1.855077 -0.198630
2  6.027525 -0.000329 0.000190  -0.424065 -1.478968 -1.583605
3  11.692113 0.000645 -0.000739  -0.990398 0.000004 -0.880574
4  11.480691 0.000596 -0.000424  1.002845 -0.282629 0.548157
5  3.666628 -0.163903 -1.204801  -0.512108 0.045211 -1.390253
6  1.312590 0.000010 0.000008  0.001121 -0.004336 -0.231157
7  0.729355 0.000053 0.000050  0.001275 0.000971 -0.172631
8  3.942142 0.046332 -0.431542  -0.194794 0.086414 -1.323675
9  1.539110 0.000084 0.000004  -0.001418 -0.002935 -0.104900
10  1.196332 0.000144 0.000029  0.000179 0.000398 -0.764322
11  3.883512 -0.047211 0.431351  -0.035289 0.158330 -1.192309
12  1.719573 -0.000028 0.000016  -0.000667 -0.010574 -0.287260
13  1.209179 0.000091 0.000013  0.000298 0.002922 -0.736617
14  3.859679 -0.138417 1.332380  -0.032089 0.184732 -1.298405
15  1.719448 -0.000018 0.000028  0.003753 -0.014993 -0.077116
16  1.099675 0.000049 0.000005  0.000709 0.002574 -0.704331
17  0.484004 -0.516865 1.316627  -1.373029 -0.651615 -0.282352
18  1.789819 -0.000004 -0.000015  -0.005063 0.005449 0.155924
19  1.207017 -0.000012 -0.000044  -0.005720 -0.000511 0.867470
20  5.740635 0.000388 -0.000699  -0.121252 0.000003 0.000063
21  11.481146 0.000298 -0.000738  -0.095999 -0.061997 0.077711
22  6.027524 -0.000329 0.000201  1.545552 -0.088383 1.836876
23  0.000000 11.692101 -0.000008  -0.641732 -0.180137 -0.530541
24  0.000001 0.000008 -0.000000  -0.121333 -0.000030 1.570739
25  0.000000 -0.000011 -0.000000  0.868960 0.000002 1.570712
26  -6.899342 -10.734701 0.826813  1.473120 1.855075 -0.198639
27  6.027517 -0.000263 -0.000216  1.618067 1.284487 -0.643222
28  11.691992 0.000162 0.000858  0.139885 0.000013 -0.937765
29  11.479655 -0.000304 0.000872  -1.306113 0.532550 0.494670
30  3.710775 -0.434234 1.096849  0.685744 0.135637 -2.140381
31  1.312560 0.000029 -0.000000  0.004429 0.012974 -0.198564
32  0.729347 0.000066 -0.000028  -0.001423 -0.000196 -1.172210
33  3.820806 -0.154608 0.327900  0.660980 -0.074301 -1.836563
34  1.539095 0.000003 -0.000002  0.045826 -0.038323 -0.676515
35  1.196302 0.000079 -0.000003  -0.018240 -0.014446 -1.506251
36  3.882444 -0.171891 -0.416804  0.549170 -0.212324 -1.595491
37  1.719566 -0.000083 -0.000005  0.007638 -0.016351 -1.238155
38  1.209193 0.000031 0.000011  -0.003491 -0.003814 -0.939900
39  3.859585 -0.149081 -1.331322  -0.013150 -0.337427 -0.475205
40  1.719413 -0.000097 -0.000037  0.032003 -0.053892 -1.338570
41  1.099673 0.000023 0.000006  0.000998 -0.008132 -0.688592
42  0.230504 -0.805067 -1.086892  1.133899 0.523038 -0.582507
43  1.789779 -0.000008 -0.000042  -0.089312 -0.070323 0.368341
44  1.206995 -0.000007 0.000005  0.000678 -0.214508 0.376132
45  5.740572 0.000079 0.000721  0.082936 -0.000013 0.000028
46  11.480875 0.000013 0.000919  0.028750 0.094287 0.071892
47  6.027515 -0.000273 -0.000229  -1.341395 -0.172862 -1.579411
48  -0.000002 11.691974 -0.000007  -0.679714 0.202763 0.560243
49  0.000004 -0.000001 0.000001  2.412441 -0.000036 1.570860
50  -0.000007 -0.000013 0.000005  2.272645 -0.000036 1.570861
51  -2.558838 -8.705482 -4.899908  -0.148535 -2.879863 1.246914
52  0.000000 0.000000 -0.000000  0.008153 -0.000259 0.000009
53  0.000000 0.000000 0.000001  1.565115 0.043565 -0.106862
54  0.419506 -9.994166 -5.951623  -0.545470 0.079848 -2.025877
55  0.000001 0.000000 0.000000  0.000000 -0.000001 -0.000002
56  0.000031 0.000029 0.000001  -1.571902 -0.044449 -0.106509
57  12.000549 -19.544212 -17.246658  1.570796 -0.000000 0.000000
58  -15.417984 4.000748 -22.641926  1.570796 -0.000000 0.000000
59  1.941978 9.263218 -8.327020  1.570796 -0.000000 0.000000
60  -0.004311 0.001229 -0.000372  0.006898 -0.005534 -0.284229
61  0.826810 11.791080 -4.879054  1.570796 -0.000000 0.000000
62  0.000000 0.000000 0.000000  -0.078727 -3.136056 0.284226
63  0.000000 0.000000 0.000000  1.570796 -0.000000 0.000000
64  -1.915771 -10.889102 -3.861487  1.570796 -0.000000 0.000000
65  -0.002760 1.012997 0.789000  -0.852049 -0.000000 -0.000000
66  -0.002617 1.248439 2.815965  0.261799 -0.000000 0.000000
67  -0.002618 3.344600 1.868270  0.000000 -0.000000 0.000000
68  0.533199 -0.661978 -0.366937  0.000000 -0.000000 0.000000
69  -0.000141 -1.297433 7.689184  0.000000 -0.000000 0.000000
70  0.457364 -1.391466 1.883462  0.000000 -0.000000 0.000000
71  -0.457506 0.596250 -0.074240  0.000000 -0.000000 0.000000
72  -0.000000 0.335443 1.622949  0.000000 -0.000000 0.000000
73  -0.000142 -0.535500 -0.800663  0.000000 -0.000000 0.000000
74  -0.260886 -0.201932 -0.710355  0.000000 -0.000000 0.000000
75  -1.918530 -13.362426 -0.836929  1.570796 -0.000000 0.000000
76  -1.507018 -13.362425 -1.074516  1.570796 -0.000000 0.000000
77  -1.507019 -13.362426 -1.549689  1.570796 -0.000000 0.000000
78  -1.918530 -13.362426 -1.787275  1.570796 -0.000000 0.000000
79  -2.330042 -13.362546 -1.549689  1.570796 -0.000000 0.000000
80  -2.330042 -13.362426 -1.074516  1.570796 -0.000000 0.000000
81  0.000001 -0.821651 -20.129416  1.570796 -0.000000 0.000000
time 1
0  0.000006 0.000000 0.000000  -1.570800 -1.391899 -1.570792
1  -9.841317 -7.634221 1.937669  -1.544956 -1.855077 -0.198630
2  6.027524 -0.000329 0.000190  -0.595918 -1.467368 -1.417634
3  11.692113 0.000645 -0.000738  -0.990396 0.000004 -0.848387
4  11.480840 0.000631 -0.000378  1.016885 -0.376669 0.406865
5  3.666629 -0.163904 -1.204802  -0.408393 0.331080 -0.783081
6  1.312589 0.000008 0.000008  0.000661 -0.002116 -0.335448
7  0.729355 0.000055 0.000050  0.000637 0.000507 -0.208474
8  3.942141 0.046331 -0.431543  -0.121031 0.169884 -0.718076
9  1.539110 0.000083 0.000004  -0.000659 -0.001482 -0.176372
10  1.196332 0.000145 0.000028  0.000111 0.000201 -0.597546
11  3.883510 -0.047212 0.431350  0.072380 0.100579 -0.562091
12  1.719573 -0.000028 0.000016  -0.000166 -0.002535 -0.326898
13  1.209179 0.000090 0.000012  0.000140 0.002987 -0.476528
14  3.859677 -0.138419 1.332380  0.147454 0.145062 -0.575300
15  1.719446 -0.000020 0.000028  0.002573 -0.005330 -0.220065
16  1.099676 0.000049 0.000006  0.000356 0.002535 -0.474356
17  0.484002 -0.516866 1.316627  -1.316437 -0.645270 -0.500395
18  1.789820 -0.000003 -0.000016  -0.001678 -0.002937 0.129894
19  1.207016 -0.000013 -0.000044  -0.002158 -0.000747 0.583286
20  5.740635 0.000391 -0.000699  -0.121207 0.000003 0.000063
21  11.481175 0.000307 -0.000729  -0.091480 -0.073406 0.045892
22  6.027524 -0.000329 0.000201  1.559825 -0.102930 1.830444
23  0.000001 11.692099 -0.000007  -0.620099 -0.167880 -0.513505
24  0.000003 0.000009 -0.000001  -0.121332 -0.000031 1.570739
25  0.000000 -0.000012 0.000000  0.868960 0.000002 1.570712
26  -6.932469 -10.629854 0.765528  1.473120 1.855075 -0.198639
27  6.027516 -0.000263 -0.000217  1.580988 1.206547 -0.676412
28  11.691992 0.000162 0.000857  0.150801 0.000020 -1.056153
29  11.480253 -0.000096 0.000847  -1.312717 0.552891 0.529683
30  3.710774 -0.434234 1.096849  0.406971 -0.281773 -0.608982
31  1.312560 0.000031 -0.000000  -0.000000 -0.000045 -0.148960
32  0.729349 0.000066 -0.000028  -0.000028 -0.000012 0.046463
33  3.820806 -0.154609 0.327899  0.121278 -0.118788 -0.520704
34  1.539094 0.000004 -0.000001  0.000007 -0.000009 0.042924
35  1.196302 0.000080 -0.000004  -0.000009 -0.000007 -0.140032
36  3.882445 -0.171892 -0.416804  -0.089865 -0.000691 -0.298015
37  1.719565 -0.000083 -0.000005  -0.002288 -0.007626 -0.075729
38  1.209193 0.000034 0.000011  -0.001277 -0.004274 0.074338
39  3.859584 -0.149081 -1.331322  -0.330196 0.136796 -0.257123
40  1.719414 -0.000097 -0.000037  -0.001916 -0.006299 -0.072275
41  1.099674 0.000023 0.000007  -0.001196 -0.004014 0.046404
42  0.230503 -0.805067 -1.086893  1.113522 0.586505 -0.741889
43  1.789780 -0.000006 -0.000042  -0.034308 -0.040478 0.127608
44  1.206995 -0.000007 0.000005  0.013242 -0.104803 0.190534
45  5.740572 0.000080 0.000721  0.085751 -0.000014 0.000028
46  11.480994 0.000056 0.000914  0.025068 0.098411 0.078438
47  6.027516 -0.000273 -0.000229  -1.285212 -0.229284 -1.588668
48  -0.000001 11.691974 -0.000006  -0.756818 0.253059 0.619293
49  0.000004 -0.000000 0.000000  2.423350 -0.000036 1.570860
50  -0.000008 -0.000014 0.000004  2.272645 -0.000036 1.570861
51  -2.749086 -8.191313 -5.441801  -0.148535 -2.879863 1.246914
52  -0.000001 -0.000000 0.000000  0.008153 -0.000259 0.000009
53  -0.000000 0.000000 0.000000  1.565115 0.043565 -0.106862
54  0.880978 -10.418613 -6.392677  -0.589988 -0.020563 -1.893674
55  0.000000 -0.000001 0.000000  0.000000 -0.000001 -0.000002
56  0.000030 0.000028 0.000001  -1.571901 -0.044449 -0.106509
57  12.232693 -19.396358 -17.584423  1.570796 -0.000000 0.000000
58  -15.417984 3.977206 -22.656813  1.570796 -0.000000 0.000000
59  1.941978 9.263218 -8.327020  1.570796 -0.000000 0.000000
60  -0.004311 0.001229 -0.000372  0.006898 -0.005534 -0.284229
61  0.765525 11.693801 -4.930309  1.570796 -0.000000 0.000000
62  0.000000 0.000000 0.000000  -0.078727 -3.136056 0.284226
63  0.000000 0.000000 0.000000  1.568900 0.001131 -0.001158
64  -1.977425 -11.492329 -3.804419  1.570796 -0.000000 0.039920
65  -0.002760 1.012997 0.788998  -0.852049 -0.000000 -0.000000
66  -0.002617 1.248439 2.815964  0.261799 -0.000000 0.000000
67  -0.002618 3.344600 1.868269  0.000000 -0.000000 0.000000
68  0.533199 -0.661978 -0.366936  0.000000 -0.000000 0.000000
69  -0.000141 -1.297433 7.689185  0.000000 -0.000000 0.000000
70  0.457364 -1.391466 1.883462  0.000000 -0.000000 0.000000
71  -0.457506 0.596250 -0.074239  0.000000 -0.000000 0.000000
72  -0.000001 0.335443 1.622950  0.000000 -0.000000 0.000000
73  -0.000142 -0.535500 -0.800662  0.000000 -0.000000 0.000000
74  -0.260886 -0.201932 -0.710354  0.000000 -0.000000 0.000000
75  -1.881473 -13.963793 -0.779861  1.570796 -0.000000 0.039920
76  -1.470289 -13.947369 -1.017448  1.570796 -0.000000 0.039920
77  -1.470289 -13.947370 -1.492621  1.570796 -0.000000 0.039920
78  -1.881473 -13.963793 -1.730207  1.570796 -0.000000 0.039920
79  -2.292652 -13.980336 -1.492621  1.570796 -0.000000 0.039920
80  -2.292656 -13.980216 -1.017448  1.570796 -0.000000 0.039920
81  0.000001 -0.821651 -20.129416  1.570796 -0.000000 0.000000
time 2
0  0.000006 0.000000 0.000000  -1.570800 -1.391899 -1.570792
1  -9.841317 -7.634221 1.937669  -1.544956 -1.855077 -0.198630
2  6.027523 -0.000327 0.000190  -1.206239 -1.304935 -0.809780
3  11.692111 0.000643 -0.000740  -0.990413 -0.000005 -1.119299
4  11.480676 0.000564 -0.000474  1.068913 -0.556124 0.443892
5  3.666628 -0.163904 -1.204802  -0.428829 0.245572 -0.681672
6  1.312591 0.000011 0.000009  -0.000027 0.000044 -0.439740
7  0.729355 0.000056 0.000049  0.000017 0.000021 -0.244317
8  3.942141 0.046331 -0.431543  -0.132738 0.103980 -0.596316
9  1.539110 0.000083 0.000004  -0.000007 0.000021 -0.247842
10  1.196332 0.000147 0.000029  0.000011 0.000019 -0.430770
11  3.883511 -0.047212 0.431351  0.088575 0.002956 -0.372601
12  1.719573 -0.000029 0.000018  0.000015 0.005518 -0.366533
13  1.209179 0.000088 0.000012  0.000004 0.003091 -0.216438
14  3.859677 -0.138418 1.332379  0.338202 -0.116334 -0.327899
15  1.719449 -0.000019 0.000029  0.000028 0.004066 -0.363025
16  1.099675 0.000047 0.000006  0.000003 0.002578 -0.244381
17  0.484004 -0.516865 1.316627  -1.256604 -0.638330 -0.728337
18  1.789819 -0.000004 -0.000017  0.001924 -0.011232 0.103835
19  1.207016 -0.000012 -0.000044  0.001328 0.000027 0.299078
20  5.740636 0.000388 -0.000700  -0.120458 0.000003 0.000063
21  11.481142 0.000291 -0.000748  -0.070467 -0.106963 0.046716
22  6.027524 -0.000329 0.000201  1.701651 -0.232181 1.812125
23  0.000002 11.692100 -0.000008  -0.797140 -0.281672 -0.649408
24  0.000004 0.000009 0.000000  -0.121332 -0.000031 1.570739
25  0.000001 -0.000012 -0.000001  0.868960 0.000002 1.570712
26  -7.032167 -10.314309 0.581087  1.473120 1.855075 -0.198639
27  6.027515 -0.000260 -0.000216  1.590607 1.066759 -0.676838
28  11.691994 0.000163 0.000857  0.183725 0.000033 -1.280090
29  11.480516 -0.000032 0.000841  -1.330130 0.566757 0.608940
30  3.710775 -0.434234 1.096849  0.406971 -0.281773 -0.608982
31  1.312561 0.000031 -0.000000  -0.000000 -0.000045 -0.148960
32  0.729347 0.000066 -0.000027  -0.000027 -0.000012 0.046463
33  3.820806 -0.154608 0.327900  0.121278 -0.118788 -0.520704
34  1.539096 0.000004 -0.000002  0.000007 -0.000009 0.042924
35  1.196302 0.000080 -0.000004  -0.000009 -0.000007 -0.140032
36  3.882446 -0.171892 -0.416803  -0.089865 -0.000691 -0.298015
37  1.719565 -0.000083 -0.000005  -0.002289 -0.007626 -0.075729
38  1.209193 0.000035 0.000011  -0.001277 -0.004274 0.074338
39  3.859585 -0.149081 -1.331322  -0.330196 0.136796 -0.257123
40  1.719412 -0.000097 -0.000037  -0.001916 -0.006299 -0.072275
41  1.099674 0.000023 0.000006  -0.001196 -0.004014 0.046404
42  0.230504 -0.805067 -1.086893  1.079795 0.646453 -0.910428
43  1.789780 -0.000007 -0.000043  0.011966 0.001552 -0.110980
44  1.206995 -0.000007 0.000005  0.005321 0.005317 0.007331
45  5.740573 0.000078 0.000720  0.093898 -0.000014 0.000028
46  11.481048 0.000066 0.000913  0.017910 0.101237 0.094405
47  6.027515 -0.000271 -0.000227  -1.166273 -0.309420 -1.629554
48  -0.000002 11.691975 -0.000005  -0.897163 0.359417 0.721790
49  0.000005 0.000000 0.000000  2.456264 -0.000036 1.570860
50  -0.000007 -0.000014 0.000005  2.272645 -0.000036 1.570861
51  -3.505388 -7.126944 -6.056733  -0.141082 -2.892258 1.251256
52  0.000000 -0.000000 -0.000000  0.008153 -0.000259 0.000009
53  0.000000 0.000000 0.000001  1.565115 0.043565 -0.106862
54  2.055367 -9.392698 -7.427582  -0.532481 -0.032228 -1.779698
55  -0.000001 -0.000000 0.000000  0.000000 -0.000001 -0.000002
56  0.000029 0.000029 0.000001  -1.571901 -0.044449 -0.106509
57  12.908321 -18.951378 -18.600952  1.570796 -0.000000 0.000000
58  -15.417984 3.906356 -22.701614  1.570796 -0.000000 0.000000
59  1.941978 9.263218 -8.327020  1.570796 -0.000000 0.000000
60  -0.004311 0.001229 -0.000372  0.006898 -0.005534 -0.284229
61  0.581084 11.401032 -5.084565  1.570796 -0.000000 0.000000
62  0.000000 0.000000 0.000000  -0.078727 -3.136056 0.284226
63  0.000000 0.000000 0.000000  1.565375 0.003226 -0.003314
64  -2.144771 -13.129660 -3.649520  1.570796 -0.000000 0.151409
65  -0.002760 1.012997 0.789000  -0.852049 -0.000000 -0.000000
66  -0.002617 1.248439 2.815965  0.261799 -0.000000 0.000000
67  -0.002618 3.344600 1.868271  0.000000 -0.000000 0.000000
68  0.533199 -0.661978 -0.366937  0.000000 -0.000000 0.000000
69  -0.000141 -1.297433 7.689182  0.000000 -0.000000 0.000000
70  0.457364 -1.391466 1.883462  0.000000 -0.000000 0.000000
71  -0.457506 0.596250 -0.074241  0.000000 -0.000000 0.000000
72  -0.000000 0.335443 1.622950  0.000000 -0.000000 0.000000
73  -0.000142 -0.535500 -0.800663  0.000000 -0.000000 0.000000
74  -0.260886 -0.201932 -0.710355  0.000000 -0.000000 0.000000
75  -1.774444 -15.575104 -0.624963  1.570796 -0.000000 0.151409
76  -1.367640 -15.513033 -0.862550  1.570796 -0.000000 0.151409
77  -1.367640 -15.513035 -1.337723  1.570796 -0.000000 0.151409
78  -1.774444 -15.575104 -1.575309  1.570796 -0.000000 0.151409
79  -2.181230 -15.637291 -1.337722  1.570796 -0.000000 0.151409
80  -2.181247 -15.637173 -0.862549  1.570796 -0.000000 0.151409
81  0.000001 -0.821651 -20.129416  1.570796 -0.000000 0.000000
time 3
0  0.000006 0.000000 0.000000  -1.570800 -1.391899 -1.570792
1  -9.841317 -7.634221 1.937669  -1.544956 -1.855077 -0.198630
2  6.027521 -0.000327 0.000191  -1.319994 -1.119551 -0.703732
3  11.692108 0.000643 -0.000739  -0.990427 -0.000018 -1.385718
4  11.479948 0.000325 -0.000837  1.110748 -0.676530 0.504781
5  3.666628 -0.163903 -1.204802  -0.432465 0.238810 -0.696834
6  1.312589 0.000007 0.000009  -0.000027 0.000044 -0.439740
7  0.729355 0.000055 0.000049  0.000017 0.000021 -0.244317
8  3.942141 0.046332 -0.431542  -0.134396 0.101822 -0.612456
9  1.539111 0.000083 0.000004  -0.000007 0.000021 -0.247842
10  1.196332 0.000146 0.000028  0.000011 0.000018 -0.430770
11  3.883511 -0.047211 0.431351  0.088516 0.004389 -0.388736
12  1.719573 -0.000028 0.000017  0.000015 0.005518 -0.366533
13  1.209179 0.000090 0.000011  0.000004 0.003091 -0.216438
14  3.859677 -0.138417 1.332380  0.339946 -0.110946 -0.343275
15  1.719449 -0.000017 0.000028  0.000028 0.004066 -0.363025
16  1.099677 0.000050 0.000005  0.000003 0.002578 -0.244381
17  0.484004 -0.516865 1.316627  -1.245600 -0.652333 -0.748406
18  1.789819 -0.000004 -0.000017  0.001807 -0.010729 0.109488
19  1.207017 -0.000012 -0.000044  0.001268 0.000026 0.301980
20  5.740636 0.000387 -0.000698  -0.120196 0.000003 0.000063
21  11.480995 0.000243 -0.000819  -0.052554 -0.129887 0.054862
22  6.027524 -0.000329 0.000201  1.844592 -0.363410 1.769083
23  -0.000001 11.692099 -0.000009  -0.961302 -0.414075 -0.765804
24  0.000002 0.000008 0.000000  -0.121332 -0.000031 1.570739
25  -0.000001 -0.000011 -0.000001  0.868960 0.000002 1.570712
26  -7.194269 -9.801250 0.281197  1.473120 1.855075 -0.198639
27  6.027514 -0.000261 -0.000216  1.638617 0.843640 -0.668242
28  11.691993 0.000162 0.000858  0.237479 0.000046 -1.478028
29  11.480459 -0.000056 0.000860  -1.363926 0.528311 0.594185
30  3.710774 -0.434234 1.096849  0.406970 -0.281773 -0.608982
31  1.312561 0.000031 0.000001  -0.000000 -0.000045 -0.148960
32  0.729348 0.000066 -0.000028  -0.000028 -0.000012 0.046463
33  3.820806 -0.154608 0.327899  0.121278 -0.118788 -0.520704
34  1.539096 0.000005 -0.000002  0.000007 -0.000009 0.042924
35  1.196302 0.000079 -0.000002  -0.000009 -0.000007 -0.140032
36  3.882445 -0.171892 -0.416804  -0.089865 -0.000691 -0.298015
37  1.719566 -0.000083 -0.000005  -0.002289 -0.007626 -0.075729
38  1.209193 0.000034 0.000011  -0.001277 -0.004274 0.074338
39  3.859584 -0.149081 -1.331321  -0.330196 0.136796 -0.257123
40  1.719411 -0.000097 -0.000037  -0.001916 -0.006299 -0.072275
41  1.099674 0.000023 0.000006  -0.001196 -0.004014 0.046404
42  0.230504 -0.805067 -1.086893  1.079795 0.646453 -0.910428
43  1.789779 -0.000007 -0.000043  0.011966 0.001552 -0.110980
44  1.206995 -0.000006 0.000005  0.005321 0.005317 0.007330
45  5.740572 0.000079 0.000721  0.084594 -0.000014 0.000028
46  11.481035 0.000062 0.000918  0.014649 0.092085 0.094711
47  6.027515 -0.000273 -0.000227  -0.948856 -0.404807 -1.736755
48  -0.000001 11.691977 -0.000005  -1.016372 0.463824 0.802018
49  0.000003 0.000000 0.000000  2.510011 -0.000036 1.570860
50  -0.000007 -0.000015 0.000006  2.272645 -0.000036 1.570861
51  -5.641954 -6.217843 -7.810916  -0.122338 -2.933665 1.264579
52  0.000000 -0.000001 0.000000  0.008153 -0.000259 0.000009
53  0.000000 0.000001 0.000001  1.565115 0.043565 -0.106862
54  3.159256 -7.934329 -8.459302  -0.479476 -0.025172 -1.725535
55  0.000001 0.000000 -0.000000  0.000000 -0.000001 -0.000002
56  0.000031 0.000029 0.000001  -1.571901 -0.044449 -0.106509
57  13.879580 -18.227863 -20.253773  1.570796 -0.000000 0.000000
58  -15.417984 3.791156 -22.774456  1.570796 -0.000000 0.000000
59  1.941978 9.263218 -8.327020  1.570796 -0.000000 0.000000
60  -0.004311 0.001229 -0.000372  0.006898 -0.005534 -0.284229
61  0.281193 10.925007 -5.335376  1.570796 -0.000000 0.000000
62  0.000000 0.000000 0.000000  -0.078727 -3.136056 0.284226
63  0.000000 0.000000 0.000000  1.563475 0.004351 -0.004479
64  -2.391386 -15.542567 -3.421248  1.570796 -0.000000 0.323256
65  -0.002760 1.012997 0.789000  -0.852049 -0.000000 -0.000000
66  -0.002617 1.248439 2.815965  0.261799 -0.000000 0.000000
67  -0.002618 3.344600 1.868270  0.000000 -0.000000 0.000000
68  0.533199 -0.661978 -0.366936  0.000000 -0.000000 0.000000
69  -0.000142 -1.297433 7.689183  0.000000 -0.000000 0.000000
70  0.457364 -1.391466 1.883461  0.000000 -0.000000 0.000000
71  -0.457505 0.596250 -0.074241  0.000000 -0.000000 0.000000
72  0.000000 0.335443 1.622949  0.000000 -0.000000 0.000000
73  -0.000143 -0.535500 -0.800663  0.000000 -0.000000 0.000000
74  -0.260887 -0.201932 -0.710355  0.000000 -0.000000 0.000000
75  -1.608337 -17.888662 -0.396691  1.570796 -0.000000 0.323256
76  -1.218139 -17.757942 -0.634278  1.570796 -0.000000 0.323256
77  -1.218139 -17.757944 -1.109451  1.570796 -0.000000 0.323256
78  -1.608337 -17.888662 -1.347037  1.570796 -0.000000 0.323256
79  -1.998497 -18.019495 -1.109450  1.570796 -0.000000 0.323256
80  -1.998534 -18.019381 -0.634277  1.570796 -0.000000 0.323256
81  0.000001 -0.821651 -20.129416  1.570796 -0.000000 0.000000
time 4
0  0.000006 0.000000 0.000000  -1.570800 -1.391899 -1.570792
1  -9.841317 -7.634221 1.937669  -1.544956 -1.855077 -0.198630
2  6.027519 -0.000325 0.000192  -1.367359 -0.938280 -0.692514
3  11.692106 0.000645 -0.000737  -0.990433 -0.000025 -1.513308
4  11.480356 0.000422 -0.000694  1.197988 -0.562748 0.489481
5  3.666626 -0.163903 -1.204802  -0.440344 0.223186 -0.731242
6  1.312589 0.000009 0.000009  -0.000027 0.000044 -0.439740
7  0.729355 0.000053 0.000050  0.000017 0.000021 -0.244317
8  3.942140 0.046332 -0.431542  -0.138045 0.096803 -0.649253
9  1.539111 0.000082 0.000004  -0.000007 0.000021 -0.247842
10  1.196332 0.000146 0.000027  0.000011 0.000019 -0.430770
11  3.883509 -0.047211 0.431350  0.088294 0.007652 -0.425551
12  1.719572 -0.000030 0.000019  0.000015 0.005518 -0.366533
13  1.209178 0.000091 0.000013  0.000004 0.003091 -0.216438
14  3.859675 -0.138417 1.332379  0.343607 -0.098558 -0.378287
15  1.719449 -0.000018 0.000027  0.000028 0.004066 -0.363025
16  1.099675 0.000049 0.000006  0.000003 0.002578 -0.244381
17  0.484002 -0.516865 1.316628  -1.236376 -0.663501 -0.764901
18  1.789820 -0.000004 -0.000017  0.001478 -0.009239 0.126219
19  1.207018 -0.000013 -0.000044  0.001090 0.000018 0.310541
20  5.740637 0.000389 -0.000698  -0.094419 0.000003 0.000064
21  11.481079 0.000263 -0.000790  -0.044462 -0.104650 0.062992
22  6.027524 -0.000329 0.000201  1.995823 -0.483729 1.677183
23  -0.000001 11.692101 -0.000007  -1.037345 -0.483343 -0.815220
24  0.000005 0.000010 0.000000  -0.121333 -0.000030 1.570739
25  -0.000001 -0.000010 0.000000  0.868960 0.000002 1.570712
26  -7.406292 -9.130194 -0.111046  1.473120 1.855075 -0.198639
27  6.027512 -0.000259 -0.000224  1.712107 0.584498 -0.683264
28  11.691991 0.000161 0.000858  0.308097 0.000055 -1.585010
29  11.479639 -0.000468 0.001011  -1.435762 0.415806 0.483578
30  3.710775 -0.434234 1.096850  0.406971 -0.281773 -0.608981
31  1.312561 0.000028 0.000000  -0.000000 -0.000045 -0.148960
32  0.729347 0.000063 -0.000028  -0.000028 -0.000012 0.046463
33  3.820807 -0.154608 0.327899  0.121278 -0.118788 -0.520704
34  1.539095 0.000004 -0.000002  0.000007 -0.000009 0.042924
35  1.196302 0.000082 -0.000003  -0.000009 -0.000007 -0.140032
36  3.882445 -0.171892 -0.416804  -0.089865 -0.000691 -0.298015
37  1.719566 -0.000083 -0.000005  -0.002288 -0.007626 -0.075729
38  1.209194 0.000034 0.000011  -0.001277 -0.004274 0.074338
39  3.859585 -0.149082 -1.331322  -0.330196 0.136796 -0.257123
40  1.719412 -0.000097 -0.000037  -0.001916 -0.006299 -0.072275
41  1.099672 0.000022 0.000005  -0.001196 -0.004014 0.046404
42  0.230504 -0.805066 -1.086893  1.079795 0.646453 -0.910428
43  1.789779 -0.000008 -0.000042  0.011966 0.001552 -0.110980
44  1.206995 -0.000007 0.000005  0.005321 0.005317 0.007330
45  5.740572 0.000080 0.000721  0.051609 -0.000014 0.000028
46  11.480871 -0.000020 0.000947  0.010785 0.066149 0.079340
47  6.027514 -0.000273 -0.000230  -0.663156 -0.459410 -1.920694
48  -0.000000 11.691975 -0.000005  -1.079539 0.523656 0.841169
49  0.000005 0.000000 0.000001  2.580629 -0.000036 1.570860
50  -0.000008 -0.000014 0.000004  2.272645 -0.000036 1.570861
51  -8.691951 -5.472864 -10.359446  -0.104016 -3.004611 1.284380
52  0.000000 0.000000 0.000000  0.008153 -0.000259 0.000009
53  0.000001 0.000000 0.000000  1.565115 0.043565 -0.106862
54  4.703167 -7.346463 -9.946185  -0.451565 -0.004752 -1.806222
55  -0.000000 0.000000 0.000000  0.000000 -0.000001 -0.000002
56  0.000029 0.000029 0.000002  -1.571901 -0.044449 -0.106509
57  14.850840 -17.281540 -22.415585  1.570796 -0.000000 0.000000
58  -15.417984 3.640481 -22.869732  1.570796 -0.000000 0.000000
59  1.941978 9.263218 -8.327020  1.570796 -0.000000 0.000000
60  -0.004311 0.001229 -0.000372  0.006898 -0.005534 -0.284229
61  -0.111049 10.302388 -5.663425  1.570796 -0.000000 0.000000
62  0.000000 0.000000 0.000000  -0.078727 -3.136056 0.284226
63  0.000000 0.000000 0.000000  1.563882 0.004111 -0.004230
64  -2.690848 -18.472527 -3.144061  1.570796 -0.000000 0.541401
65  -0.002759 1.012997 0.789001  -0.852049 -0.000000 -0.000000
66  -0.002616 1.248439 2.815964  0.261799 -0.000000 0.000000
67  -0.002617 3.344600 1.868270  0.000000 -0.000000 0.000000
68  0.533201 -0.661978 -0.366938  0.000000 -0.000000 0.000000
69  -0.000142 -1.297433 7.689182  0.000000 -0.000000 0.000000
70  0.457364 -1.391466 1.883462  0.000000 -0.000000 0.000000
71  -0.457505 0.596250 -0.074239  0.000000 -0.000000 0.000000
72  -0.000000 0.335443 1.622948  0.000000 -0.000000 0.000000
73  -0.000142 -0.535500 -0.800664  0.000000 -0.000000 0.000000
74  -0.260887 -0.201932 -0.710355  0.000000 -0.000000 0.000000
75  -1.418616 -20.593555 -0.119503  1.570796 -0.000000 0.541401
76  -1.065956 -20.381487 -0.357090  1.570796 -0.000000 0.541401
77  -1.065956 -20.381487 -0.832263  1.570796 -0.000000 0.541401
78  -1.418616 -20.593555 -1.069849  1.570796 -0.000000 0.541401
79  -1.771215 -20.805725 -0.832263  1.570796 -0.000000 0.541401
80  -1.771276 -20.805622 -0.357090  1.570796 -0.000000 0.541401
81  0.000001 -0.821651 -20.129416  1.570796 -0.000000 0.000000
time 5
0  0.000006 0.000000 0.000000  -1.570800 -1.391899 -1.570792
1  -9.841317 -7.634221 1.937669  -1.544956 -1.855077 -0.198630
2  6.027519 -0.000324 0.000193  -1.406891 -0.762078 -0.724776
3  11.692105 0.000644 -0.000739  -0.990434 -0.000028 -1.559323
4  11.479986 0.000296 -0.000883  1.354977 -0.279118 0.511830
5  3.666629 -0.163905 -1.204802  -0.449248 0.203600 -0.773279
6  1.312590 0.000011 0.000007  -0.000027 0.000044 -0.439740
7  0.729355 0.000055 0.000049  0.000017 0.000021 -0.244317
8  3.942141 0.046330 -0.431544  -0.142277 0.090444 -0.694518
9  1.539111 0.000084 0.000004  -0.000007 0.000021 -0.247842
10  1.196333 0.000147 0.000029  0.000011 0.000019 -0.430770
11  3.883511 -0.047213 0.431350  0.087857 0.011656 -0.470889
12  1.719573 -0.000028 0.000018  0.000015 0.005518 -0.366533
13  1.209180 0.000090 0.000011  0.000004 0.003091 -0.216438
14  3.859677 -0.138420 1.332380  0.347509 -0.083139 -0.421286
15  1.719448 -0.000018 0.000028  0.000028 0.004066 -0.363025
16  1.099676 0.000048 0.000006  0.000003 0.002578 -0.244381
17  0.484003 -0.516867 1.316626  -1.229570 -0.671430 -0.776894
18  1.789819 -0.000004 -0.000017  0.001025 -0.006957 0.151719
19  1.207016 -0.000012 -0.000045  0.000819 0.000007 0.323579
20  5.740636 0.000388 -0.000700  -0.040112 0.000003 0.000063
21  11.481006 0.000238 -0.000830  -0.029679 -0.043735 0.084068
22  6.027524 -0.000329 0.000201  2.167342 -0.583543 1.527585
23  0.000001 11.692098 -0.000009  -1.064500 -0.509123 -0.832000
24  0.000001 0.000007 -0.000000  -0.121332 -0.000031 1.570739
25  -0.000000 -0.000010 -0.000000  0.868960 0.000002 1.570712
26  -7.646480 -8.369997 -0.555393  1.473120 1.855075 -0.198639
27  6.027513 -0.000257 -0.000223  1.807048 0.376161 -0.727948
28  11.691994 0.000160 0.000858  0.388328 0.000055 -1.588346
29  11.479610 -0.000401 0.001051  -1.554699 0.250207 0.367139
30  3.710774 -0.434235 1.096848  0.406970 -0.281773 -0.608982
31  1.312562 0.000030 -0.000001  -0.000000 -0.000045 -0.148960
32  0.729347 0.000064 -0.000027  -0.000028 -0.000012 0.046463
33  3.820806 -0.154611 0.327898  0.121278 -0.118788 -0.520704
34  1.539096 0.000004 -0.000001  0.000007 -0.000009 0.042924
35  1.196301 0.000079 -0.000003  -0.000009 -0.000007 -0.140032
36  3.882445 -0.171892 -0.416805  -0.089865 -0.000691 -0.298015
37  1.719565 -0.000083 -0.000004  -0.002289 -0.007626 -0.075729
38  1.209195 0.000034 0.000010  -0.001277 -0.004274 0.074338
39  3.859585 -0.149082 -1.331321  -0.330196 0.136796 -0.257123
40  1.719414 -0.000095 -0.000039  -0.001916 -0.006299 -0.072275
41  1.099672 0.000023 0.000006  -0.001196 -0.004014 0.046404
42  0.230504 -0.805066 -1.086894  1.079795 0.646453 -0.910428
43  1.789780 -0.000009 -0.000043  0.011966 0.001552 -0.110980
44  1.206995 -0.000007 0.000006  0.005321 0.005317 0.007331
45  5.740572 0.000077 0.000721  0.009367 -0.000014 0.000028
46  11.480865 -0.000008 0.000956  -0.002997 0.028689 0.062674
47  6.027516 -0.000271 -0.000229  -0.416206 -0.430791 -2.116290
48  -0.000001 11.691977 -0.000008  -1.081500 0.525557 0.842341
49  0.000001 0.000001 0.000002  2.660860 -0.000036 1.570860
50  -0.000007 -0.000014 0.000005  2.272645 -0.000036 1.570861
51  -11.713048 -4.840849 -12.960661  -0.101072 -3.095081 1.303337
52  0.000001 -0.000001 -0.000000  0.008153 -0.000259 0.000009
53  0.000000 0.000000 -0.000000  1.565115 0.043565 -0.106862
54  6.409779 -7.107757 -11.718899  -0.388436 0.052730 -2.004517
55  -0.000001 0.000001 0.000000  0.000000 -0.000001 -0.000002
56  0.000030 0.000030 0.000002  -1.571901 -0.044449 -0.106509
57  15.526468 -16.209511 -24.864563  1.570796 -0.000000 0.000000
58  -15.417984 3.469790 -22.977665  1.570796 -0.000000 0.000000
59  1.941978 9.263218 -8.327020  1.570796 -0.000000 0.000000
60  -0.004311 0.001229 -0.000372  0.006898 -0.005534 -0.284229
61  -0.555397 9.597063 -6.035052  1.570796 -0.000000 0.000000
62  0.000000 0.000000 0.000000  -0.078727 -3.136056 0.284226
63  0.000000 0.000000 0.000000  1.564928 0.003491 -0.003588
64  -3.016732 -21.661011 -2.842416  1.570796 -0.000000 0.785398
65  -0.002760 1.012997 0.789000  -0.852049 -0.000000 -0.000000
66  -0.002617 1.248439 2.815964  0.261799 -0.000000 0.000000
67  -0.002618 3.344600 1.868270  0.000000 -0.000000 0.000000
68  0.533201 -0.661978 -0.366937  0.000000 -0.000000 0.000000
69  -0.000140 -1.297433 7.689184  0.000000 -0.000000 0.000000
70  0.457365 -1.391466 1.883462  0.000000 -0.000000 0.000000
71  -0.457506 0.596250 -0.074239  0.000000 -0.000000 0.000000
72  0.000000 0.335443 1.622948  0.000000 -0.000000 0.000000
73  -0.000142 -0.535500 -0.800662  0.000000 -0.000000 0.000000
74  -0.260886 -0.201932 -0.710353  0.000000 -0.000000 0.000000
75  -1.269780 -23.411865 0.182141  1.570796 -0.000000 0.785398
76  -0.978798 -23.120884 -0.055445  1.570796 -0.000000 0.785398
77  -0.978798 -23.120884 -0.530618  1.570796 -0.000000 0.785398
78  -1.269780 -23.411865 -0.768205  1.570796 -0.000000 0.785398
79  -1.560678 -23.702934 -0.530618  1.570796 -0.000000 0.785398
80  -1.560762 -23.702850 -0.055445  1.570796 -0.000000 0.785398
81  0.000001 -0.821651 -20.129416  1.570796 -0.000000 0.000000
time 6
0  0.000006 0.000000 0.000000  -1.570800 -1.391899 -1.570792
1  -9.841317 -7.634221 1.937669  -1.544956 -1.855077 -0.198630
2  6.027518 -0.000323 0.000194  -1.452771 -0.607873 -0.785997
3  11.692106 0.000644 -0.000739  -0.990434 -0.000028 -1.561257
4  11.479974 0.000291 -0.000891  1.552281 -0.042814 0.588681
5  3.666627 -0.163904 -1.204803  -0.457196 0.183872 -0.814551
6  1.312590 0.000010 0.000007  -0.000027 0.000044 -0.439740
7  0.729356 0.000053 0.000049  0.000017 0.000021 -0.244317
8  3.942140 0.046331 -0.431544  -0.146176 0.083968 -0.739269
9  1.539112 0.000083 0.000004  -0.000007 0.000021 -0.247842
10  1.196332 0.000147 0.000028  0.000011 0.000018 -0.430770
11  3.883510 -0.047213 0.431349  0.087245 0.015596 -0.515770
12  1.719573 -0.000029 0.000018  0.000015 0.005518 -0.366533
13  1.209179 0.000091 0.000012  0.000004 0.003091 -0.216438
14  3.859676 -0.138418 1.332379  0.350709 -0.067728 -0.463738
15  1.719449 -0.000019 0.000029  0.000028 0.004066 -0.363025
16  1.099676 0.000048 0.000006  0.000003 0.002578 -0.244381
17  0.484002 -0.516865 1.316625  -1.225391 -0.676175 -0.784187
18  1.789818 -0.000004 -0.000018  0.000581 -0.004355 0.180646
19  1.207017 -0.000014 -0.000045  0.000512 -0.000002 0.338367
20  5.740636 0.000389 -0.000701  0.015903 0.000003 0.000063
21  11.481006 0.000237 -0.000833  -0.003194 0.011360 0.107331
22  6.027524 -0.000329 0.000201  2.346492 -0.643679 1.333858
23  -0.000001 11.692099 -0.000007  -1.065639 -0.510215 -0.832693
24  0.000002 0.000008 0.000000  -0.121333 -0.000031 1.570739
25  0.000000 -0.000011 0.000001  0.868960 0.000002 1.570712
26  -7.886666 -7.609800 -0.999740  1.473120 1.855075 -0.198639
27  6.027513 -0.000258 -0.000223  1.905908 0.244740 -0.786111
28  11.691991 0.000161 0.000857  0.468560 0.000051 -1.560131
29  11.479819 -0.000208 0.001022  -1.710905 0.102505 0.331725
30  3.710774 -0.434234 1.096851  0.406971 -0.281773 -0.608982
31  1.312562 0.000027 0.000000  -0.000000 -0.000045 -0.148960
32  0.729347 0.000064 -0.000030  -0.000028 -0.000012 0.046463
33  3.820805 -0.154608 0.327901  0.121278 -0.118788 -0.520704
34  1.539095 0.000007 -0.000002  0.000007 -0.000009 0.042924
35  1.196303 0.000080 -0.000003  -0.000009 -0.000007 -0.140032
36  3.882446 -0.171892 -0.416802  -0.089865 -0.000691 -0.298015
37  1.719565 -0.000084 -0.000005  -0.002289 -0.007626 -0.075729
38  1.209194 0.000033 0.000011  -0.001277 -0.004274 0.074338
39  3.859584 -0.149082 -1.331321  -0.330196 0.136796 -0.257123
40  1.719412 -0.000096 -0.000036  -0.001916 -0.006299 -0.072275
41  1.099673 0.000022 0.000005  -0.001196 -0.004014 0.046404
42  0.230502 -0.805066 -1.086892  1.079795 0.646453 -0.910428
43  1.789777 -0.000007 -0.000042  0.011966 0.001552 -0.110980
44  1.206995 -0.000008 0.000005  0.005321 0.005317 0.007331
45  5.740573 0.000079 0.000721  -0.030389 -0.000014 0.000028
46  11.480907 0.000033 0.000949  -0.028636 -0.005474 0.059136
47  6.027515 -0.000273 -0.000228  -0.261428 -0.355332 -2.264167
48  -0.000000 11.691976 -0.000007  -1.064904 0.509550 0.832333
49  0.000004 -0.000000 0.000001  2.741090 -0.000036 1.570860
50  -0.000007 -0.000013 0.000005  2.272645 -0.000036 1.570861
51  -13.974303 -4.247921 -15.016747  -0.121642 3.091568 1.313502
52  0.000001 0.000001 -0.000000  0.008153 -0.000259 0.000009
53  -0.000000 0.000001 0.000001  1.565115 0.043565 -0.106862
54  7.944530 -6.851090 -13.534251  -0.335907 0.125933 -2.157472
55  0.000000 0.000001 -0.000001  0.000000 -0.000001 -0.000002
56  0.000031 0.000030 0.000000  -1.571901 -0.044449 -0.106509
57  15.758612 -15.137481 -27.313540  1.570796 -0.000000 0.000000
58  -15.417985 3.299099 -23.085596  1.570796 -0.000000 0.000000
59  1.941978 9.263218 -8.327020  1.570796 -0.000000 0.000000
60  -0.004311 0.001229 -0.000372  0.006898 -0.005534 -0.284229
61  -0.999744 8.891739 -6.406678  1.570796 -0.000000 0.000000
62  0.000000 0.000000 0.000000  -0.078727 -3.136056 0.284226
63  0.000000 0.000000 0.000000  1.566359 0.002643 -0.002712
64  -3.342617 -24.849499 -2.540771  1.570796 -0.000000 1.029395
65  -0.002760 1.012997 0.789000  -0.852049 -0.000000 -0.000000
66  -0.002617 1.248439 2.815964  0.261799 -0.000000 0.000000
67  -0.002617 3.344600 1.868270  0.000000 -0.000000 0.000000
68  0.533199 -0.661978 -0.366937  0.000000 -0.000000 0.000000
69  -0.000141 -1.297433 7.689182  0.000000 -0.000000 0.000000
70  0.457362 -1.391466 1.883462  0.000000 -0.000000 0.000000
71  -0.457506 0.596250 -0.074239  0.000000 -0.000000 0.000000
72  -0.000001 0.335443 1.622948  0.000000 -0.000000 0.000000
73  -0.000143 -0.535500 -0.800663  0.000000 -0.000000 0.000000
74  -0.260887 -0.201932 -0.710355  0.000000 -0.000000 0.000000
75  -1.224432 -26.126461 0.483786  1.570796 -0.000000 1.029395
76  -1.012365 -25.773800 0.246200  1.570796 -0.000000 1.029395
77  -1.012365 -25.773802 -0.228973  1.570796 -0.000000 1.029395
78  -1.224432 -26.126461 -0.466560  1.570796 -0.000000 1.029395
79  -1.436397 -26.479183 -0.228973  1.570796 -0.000000 1.029395
80  -1.436500 -26.479122 0.246200  1.570796 -0.000000 1.029395
81  0.000001 -0.821651 -20.129416  1.570796 -0.000000 0.000000
time 7
0  0.000006 0.000000 0.000000  -1.570800 -1.391899 -1.570792
1  -9.841317 -7.634221 1.937669  -1.544956 -1.855077 -0.198630
2  6.027518 -0.000322 0.000196  -1.468454 -0.456375 -0.839273
3  11.692108 0.000644 -0.000738  -0.990433 -0.000026 -1.517955
4  11.480317 0.000406 -0.000712  1.799495 0.037280 0.666656
5  3.666626 -0.163903 -1.204803  -0.463201 0.167083 -0.848947
6  1.312590 0.000013 0.000008  -0.000027 0.000044 -0.439740
7  0.729355 0.000054 0.000051  0.000017 0.000021 -0.244317
8  3.942140 0.046331 -0.431542  -0.149218 0.078404 -0.776781
9  1.539110 0.000081 0.000004  -0.000007 0.000021 -0.247842
10  1.196333 0.000144 0.000027  0.000011 0.000018 -0.430770
11  3.883510 -0.047212 0.431351  0.086596 0.018878 -0.553433
12  1.719572 -0.000028 0.000015  0.000015 0.005518 -0.366533
13  1.209179 0.000091 0.000011  0.000004 0.003091 -0.216438
14  3.859676 -0.138419 1.332379  0.352884 -0.054701 -0.499290
15  1.719449 -0.000018 0.000029  0.000028 0.004066 -0.363025
16  1.099676 0.000047 0.000007  0.000003 0.002578 -0.244381
17  0.484002 -0.516865 1.316628  -1.223404 -0.678399 -0.787637
18  1.789820 -0.000004 -0.000016  0.000252 -0.002052 0.206143
19  1.207017 -0.000012 -0.000045  0.000240 -0.000007 0.351406
20  5.740638 0.000387 -0.000701  0.062083 0.000003 0.000063
21  11.481075 0.000259 -0.000796  0.039880 0.041125 0.124937
22  6.027524 -0.000329 0.000201  2.525770 -0.703097 1.160565
23  0.000001 11.692101 -0.000008  -1.040093 -0.485928 -0.816940
24  0.000004 0.000009 0.000001  -0.121333 -0.000030 1.570739
25  0.000001 -0.000010 -0.000000  0.868960 0.000002 1.570712
26  -8.098690 -6.938742 -1.391983  1.473120 1.855075 -0.198639
27  6.027511 -0.000257 -0.000226  1.872686 0.117737 -0.831644
28  11.691994 0.000160 0.000855  0.539174 0.000048 -1.488062
29  11.480377 0.000153 0.000860  -1.889332 0.035354 0.283660
30  3.710775 -0.434235 1.096851  0.406971 -0.281773 -0.608982
31  1.312561 0.000029 0.000001  -0.000000 -0.000045 -0.148960
32  0.729351 0.000067 -0.000026  -0.000028 -0.000012 0.046463
33  3.820806 -0.154610 0.327900  0.121278 -0.118788 -0.520704
34  1.539095 0.000004 0.000001  0.000007 -0.000009 0.042924
35  1.196302 0.000081 -0.000005  -0.000009 -0.000007 -0.140032
36  3.882445 -0.171892 -0.416803  -0.089865 -0.000691 -0.298015
37  1.719566 -0.000084 -0.000004  -0.002288 -0.007626 -0.075729
38  1.209193 0.000034 0.000012  -0.001277 -0.004274 0.074338
39  3.859585 -0.149082 -1.331321  -0.330196 0.136796 -0.257123
40  1.719414 -0.000094 -0.000035  -0.001916 -0.006299 -0.072275
41  1.099673 0.000024 0.000006  -0.001196 -0.004014 0.046404
42  0.230503 -0.805067 -1.086893  1.079795 0.646453 -0.910428
43  1.789780 -0.000007 -0.000043  0.011966 0.001552 -0.110980
44  1.206996 -0.000007 0.000006  0.005321 0.005317 0.007331
45  5.740572 0.000078 0.000721  -0.063515 -0.000014 0.000028
46  11.481019 0.000104 0.000916  -0.062329 -0.023046 0.051393
47  6.027514 -0.000273 -0.000229  -0.127729 -0.397043 -2.352891
48  -0.000003 11.691979 -0.000006  -1.022324 0.469342 0.805819
49  0.000002 -0.000000 -0.000001  2.811708 -0.000036 1.570860
50  -0.000008 -0.000013 0.000004  2.272645 -0.000036 1.570861
51  -14.854422 -3.640258 -17.949163  -0.214854 2.941842 1.338748
52  0.000000 0.000001 0.000001  0.008153 -0.000259 0.000009
53  0.000000 -0.000000 0.000001  1.565115 0.043565 -0.106862
54  9.154095 -6.406693 -16.024948  -0.252222 0.272908 -2.188857
55  0.000001 0.000000 -0.000001  0.000000 -0.000001 -0.000002
56  0.000031 0.000029 0.000001  -1.571901 -0.044449 -0.106509
57  15.524076 -14.191155 -29.475355  1.570796 -0.000000 0.000000
58  -15.417985 3.148425 -23.180872  1.570796 -0.000000 0.000000
59  1.941978 9.263218 -8.327020  1.570796 -0.000000 0.000000
60  -0.004311 0.001229 -0.000372  0.006898 -0.005534 -0.284229
61  -1.391987 8.269119 -6.734729  1.570796 -0.000000 0.000000
62  0.000000 0.000000 0.000000  -0.078727 -3.136056 0.284226
63  0.000000 0.000000 0.000000  1.567917 0.001717 -0.001759
64  -3.642078 -27.779459 -2.263584  1.570796 -0.000000 1.247540
65  -0.002760 1.012997 0.788999  -0.852049 0.000000 -0.000000
66  -0.002616 1.248439 2.815964  0.261799 0.000000 0.000000
67  -0.002617 3.344600 1.868270  0.000000 0.000000 0.000000
68  0.533201 -0.661978 -0.366936  0.000000 0.000000 0.000000
69  -0.000142 -1.297433 7.689184  0.000000 0.000000 0.000000
70  0.457364 -1.391466 1.883462  0.000000 0.000000 0.000000
71  -0.457508 0.596250 -0.074240  0.000000 0.000000 0.000000
72  0.000002 0.335443 1.622949  0.000000 0.000000 0.000000
73  -0.000143 -0.535500 -0.800662  0.000000 0.000000 0.000000
74  -0.260885 -0.201932 -0.710354  0.000000 0.000000 0.000000
75  -1.297734 -28.567741 0.760974  1.570796 -0.000000 1.247540
76  -1.167016 -28.177544 0.523387  1.570796 -0.000000 1.247540
77  -1.167016 -28.177544 0.048214  1.570796 -0.000000 1.247540
78  -1.297734 -28.567741 -0.189372  1.570796 -0.000000 1.247540
79  -1.428340 -28.957977 0.048215  1.570796 -0.000000 1.247540
80  -1.428453 -28.957939 0.523388  1.570796 -0.000000 1.247540
81  0.000001 -0.821651 -20.129416  1.570796 -0.000000 0.000000
time 8
0  0.000006 0.000000 0.000000  -1.570800 -1.391899 -1.570792
1  -9.841317 -7.634221 1.937669  -1.544956 -1.855077 -0.198630
2  6.027518 -0.000322 0.000197  -1.389781 -0.344763 -0.835855
3  11.692105 0.000643 -0.000737  -0.990426 -0.000017 -1.367340
4  11.480062 0.000357 -0.000785  2.041149 -0.042378 0.621866
5  3.666627 -0.163903 -1.204800  -0.466901 0.155680 -0.871971
6  1.312589 0.000012 0.000009  -0.000027 0.000044 -0.439740
7  0.729355 0.000053 0.000051  0.000017 0.000021 -0.244317
8  3.942141 0.046330 -0.431543  -0.151145 0.074600 -0.801994
9  1.539110 0.000084 0.000001  -0.000007 0.000021 -0.247842
10  1.196333 0.000146 0.000028  0.000011 0.000019 -0.430770
11  3.883510 -0.047212 0.431353  0.086090 0.021071 -0.578769
12  1.719572 -0.000029 0.000018  0.000015 0.005518 -0.366533
13  1.209179 0.000088 0.000013  0.000004 0.003091 -0.216438
14  3.859677 -0.138419 1.332381  0.354085 -0.045899 -0.523173
15  1.719448 -0.000018 0.000029  0.000028 0.004066 -0.363025
16  1.099675 0.000049 0.000006  0.000003 0.002578 -0.244381
17  0.484002 -0.516866 1.316629  -1.222771 -0.679103 -0.788734
18  1.789818 -0.000002 -0.000017  0.000068 -0.000537 0.222871
19  1.207016 -0.000016 -0.000044  0.000062 -0.000008 0.359963
20  5.740636 0.000388 -0.000701  0.089368 0.000003 0.000063
21  11.481026 0.000249 -0.000813  0.092057 0.037824 0.120936
22  6.027524 -0.000329 0.000201  2.626959 -0.814118 1.124975
23  -0.000000 11.692098 -0.000009  -0.950235 -0.404385 -0.758343
24  0.000005 0.000009 0.000002  -0.121333 -0.000031 1.570739
25  -0.000001 -0.000011 -0.000000  0.868960 0.000002 1.570712
26  -8.260793 -6.425683 -1.691873  1.473120 1.855075 -0.198639
27  6.027512 -0.000257 -0.000228  1.492273 0.056526 -0.746905
28  11.691992 0.000161 0.000855  0.592914 0.000029 -1.234839
29  11.479598 -0.000050 0.001017  -1.926727 0.132258 0.081227
30  3.710776 -0.434236 1.096849  0.406971 -0.281773 -0.608981
31  1.312562 0.000030 -0.000000  -0.000000 -0.000045 -0.148960
32  0.729346 0.000063 -0.000029  -0.000027 -0.000012 0.046463
33  3.820807 -0.154609 0.327899  0.121278 -0.118788 -0.520704
34  1.539096 0.000005 -0.000001  0.000007 -0.000009 0.042924
35  1.196302 0.000080 0.000000  -0.000009 -0.000007 -0.140033
36  3.882446 -0.171893 -0.416803  -0.089865 -0.000691 -0.298015
37  1.719566 -0.000083 -0.000004  -0.002289 -0.007626 -0.075729
38  1.209195 0.000035 0.000012  -0.001277 -0.004274 0.074338
39  3.859586 -0.149082 -1.331323  -0.330196 0.136796 -0.257123
40  1.719412 -0.000099 -0.000037  -0.001916 -0.006299 -0.072275
41  1.099673 0.000020 0.000007  -0.001196 -0.004014 0.046404
42  0.230505 -0.805067 -1.086893  1.079795 0.646453 -0.910428
43  1.789781 -0.000009 -0.000041  0.011966 0.001552 -0.110980
44  1.206996 -0.000008 0.000005  0.005321 0.005317 0.007331
45  5.740574 0.000081 0.000718  -0.072299 -0.000014 0.000028
46  11.480865 0.000064 0.000946  -0.072017 0.001017 0.014516
47  6.027516 -0.000273 -0.000228  -0.079431 -0.778798 -2.261917
48  -0.000001 11.691977 -0.000005  -0.869333 0.336841 0.702066
49  0.000004 0.000000 -0.000000  2.865455 -0.000036 1.570860
50  -0.000006 -0.000013 0.000005  2.272645 -0.000036 1.570861
51  -14.067518 -3.080658 -22.676868  -0.403748 2.709628 1.371212
52  0.000000 -0.000000 -0.000002  0.008153 -0.000259 0.000009
53  0.000001 -0.000001 0.000001  1.565115 0.043565 -0.106862
54  9.906859 -5.881890 -19.480747  -0.071698 0.525029 -2.072363
55  -0.000000 0.000000 0.000000  0.000000 -0.000001 -0.000002
56  0.000030 0.000029 -0.000000  -1.571902 -0.044449 -0.106509
57  14.910593 -13.467643 -31.128174  1.570796 -0.000000 0.000000
58  -15.417985 3.033225 -23.253716  1.570796 -0.000000 0.000000
59  1.941978 9.263218 -8.327020  1.570796 -0.000000 0.000000
60  -0.004311 0.001229 -0.000372  0.006898 -0.005534 -0.284229
61  -1.691877 7.793094 -6.985540  1.570796 -0.000000 0.000000
62  0.000000 0.000000 0.000000  -0.078727 -3.136056 0.284226
63  0.000000 0.000000 0.000000  1.569347 0.000865 -0.000885
64  -3.888694 -30.192368 -2.035311  1.570796 -0.000000 1.419387
65  -0.002758 1.012997 0.789000  -0.852049 -0.000000 -0.000000
66  -0.002618 1.248439 2.815965  0.261799 -0.000000 0.000000
67  -0.002619 3.344600 1.868270  0.000000 -0.000000 0.000000
68  0.533201 -0.661978 -0.366937  0.000000 -0.000000 0.000000
69  -0.000139 -1.297433 7.689183  0.000000 -0.000000 0.000000
70  0.457363 -1.391466 1.883462  0.000000 -0.000000 0.000000
71  -0.457505 0.596250 -0.074240  0.000000 -0.000000 0.000000
72  0.000001 0.335443 1.622949  0.000000 -0.000000 0.000000
73  -0.000141 -0.535500 -0.800663  0.000000 -0.000000 0.000000
74  -0.260886 -0.201933 -0.710355  0.000000 -0.000000 0.000000
75  -1.444081 -30.568150 0.989246  1.570796 -0.000000 1.419387
76  -1.382013 -30.161346 0.751659  1.570796 -0.000000 1.419387
77  -1.382012 -30.161346 0.276486  1.570796 -0.000000 1.419387
78  -1.444081 -30.568150 0.038900  1.570796 -0.000000 1.419387
79  -1.506032 -30.974972 0.276487  1.570796 -0.000000 1.419387
80  -1.506150 -30.974955 0.751660  1.570796 -0.000000 1.419387
81  0.000001 -0.821651 -20.129416  1.570796 -0.000000 0.000000
time 9
0  0.000006 0.000000 0.000000  -1.570800 -1.391899 -1.570792
1  -9.841317 -7.634221 1.937669  -1.544956 -1.855077 -0.198630
2  6.027517 -0.000323 0.000197  -1.175735 -0.353854 -0.749077
3  11.692109 0.000645 -0.000740  -0.990416 -0.000007 -1.164235
4  11.480400 0.000487 -0.000587  2.040197 -0.140614 0.437807
5  3.666626 -0.163903 -1.204800  -0.468169 0.151546 -0.880257
6  1.312588 0.000010 0.000007  -0.000027 0.000044 -0.439740
7  0.729355 0.000057 0.000048  0.000017 0.000021 -0.244317
8  3.942140 0.046331 -0.431542  -0.151817 0.073216 -0.811086
9  1.539110 0.000082 0.000005  -0.000007 0.000021 -0.247842
10  1.196333 0.000146 0.000027  0.000011 0.000019 -0.430770
11  3.883511 -0.047211 0.431351  0.085894 0.021858 -0.587909
12  1.719571 -0.000028 0.000016  0.000015 0.005518 -0.366533
13  1.209179 0.000089 0.000014  0.000004 0.003091 -0.216438
14  3.859675 -0.138418 1.332383  0.354466 -0.042717 -0.531784
15  1.719448 -0.000018 0.000026  0.000028 0.004066 -0.363025
16  1.099676 0.000048 0.000005  0.000003 0.002578 -0.244381
17  0.484003 -0.516865 1.316628  -1.222694 -0.679188 -0.788867
18  1.789819 -0.000002 -0.000016  0.000011 -0.000024 0.228523
19  1.207017 -0.000015 -0.000043  0.000002 -0.000008 0.362856
20  5.740636 0.000388 -0.000701  0.084227 0.000003 0.000064
21  11.481093 0.000274 -0.000772  0.097181 0.011702 0.088233
22  6.027524 -0.000329 0.000201  -0.680379 -2.154010 -1.725810
23  -0.000000 11.692097 -0.000008  -0.825451 -0.302709 -0.670265
24  0.000002 0.000009 0.000001  -0.121332 -0.000031 1.570739
25  0.000000 -0.000012 0.000000  0.868960 0.000002 1.570712
26  -8.360491 -6.110139 -1.876314  1.473120 1.855075 -0.198639
27  6.027510 -0.000258 -0.000231  0.963923 0.242869 -0.720317
28  11.691994 0.000161 0.000859  0.625805 0.000009 -0.810726
29  11.480055 0.000310 0.000782  -1.744652 0.288268 -0.085735
30  3.710774 -0.434234 1.096849  0.406970 -0.281773 -0.608982
31  1.312558 0.000031 -0.000001  -0.000000 -0.000045 -0.148960
32  0.729350 0.000065 -0.000027  -0.000028 -0.000012 0.046463
33  3.820806 -0.154609 0.327901  0.121278 -0.118788 -0.520704
34  1.539093 0.000004 -0.000001  0.000007 -0.000009 0.042924
35  1.196303 0.000081 -0.000005  -0.000009 -0.000007 -0.140032
36  3.882444 -0.171891 -0.416805  -0.089865 -0.000691 -0.298015
37  1.719564 -0.000083 -0.000002  -0.002288 -0.007626 -0.075728
38  1.209195 0.000034 0.000014  -0.001277 -0.004274 0.074338
39  3.859583 -0.149081 -1.331323  -0.330196 0.136796 -0.257123
40  1.719409 -0.000098 -0.000036  -0.001916 -0.006299 -0.072275
41  1.099675 0.000023 0.000007  -0.001196 -0.004014 0.046404
42  0.230503 -0.805067 -1.086894  1.079795 0.646453 -0.910428
43  1.789781 -0.000006 -0.000041  0.011966 0.001552 -0.110980
44  1.206995 -0.000009 0.000005  0.005321 0.005317 0.007331
45  5.740573 0.000079 0.000720  -0.065786 -0.000014 0.000028
46  11.480955 0.000136 0.000901  -0.034916 0.036541 -0.020832
47  6.027515 -0.000272 -0.000229  -0.762969 -1.215445 -1.560350
48  -0.000000 11.691976 -0.000007  -0.594530 0.153974 0.493287
49  0.000002 -0.000001 0.000001  2.898369 -0.000036 1.570860
50  -0.000007 -0.000014 0.000005  2.272645 -0.000036 1.570861
51  -12.690268 -2.717877 -26.842199  -0.592644 2.510571 1.365332
52  0.000001 0.000001 0.000001  0.008153 -0.000259 0.000009
53  -0.000000 0.000001 -0.000000  1.565115 0.043565 -0.106862
54  10.198836 -5.478944 -22.351908  0.154595 0.713102 -1.865405
55  -0.000002 0.000000 -0.000001  0.000000 -0.000001 -0.000002
56  0.000029 0.000029 -0.000001  -1.571902 -0.044449 -0.106509
57  14.297110 -13.022662 -32.144703  1.570796 -0.000000 0.000000
58  -15.417985 2.962374 -23.298515  1.570796 -0.000000 0.000000
59  1.941978 9.263218 -8.327020  1.570796 -0.000000 0.000000
60  -0.004311 0.001229 -0.000372  0.006898 -0.005534 -0.284229
61  -1.876318 7.500325 -7.139796  1.570796 -0.000000 0.000000
62  0.000000 0.000000 0.000000  -0.078727 -3.136056 0.284226
63  0.000000 0.000000 0.000000  1.570391 0.000242 -0.000247
64  -4.056040 -31.829699 -1.880413  1.570796 -0.000000 1.530876
65  -0.002761 1.012997 0.789000  -0.852049 -0.000000 -0.000000
66  -0.002618 1.248439 2.815965  0.261799 -0.000000 0.000000
67  -0.002618 3.344600 1.868270  0.000000 -0.000000 0.000000
68  0.533199 -0.661978 -0.366937  0.000000 -0.000000 0.000000
69  -0.000140 -1.297433 7.689183  0.000000 -0.000000 0.000000
70  0.457365 -1.391466 1.883462  0.000000 -0.000000 0.000000
71  -0.457509 0.596250 -0.074240  0.000000 -0.000000 0.000000
72  0.000001 0.335443 1.622949  0.000000 -0.000000 0.000000
73  -0.000142 -0.535500 -0.800663  0.000000 -0.000000 0.000000
74  -0.260884 -0.201932 -0.710355  0.000000 -0.000000 0.000000
75  -1.584797 -31.931168 1.144145  1.570796 -0.000000 1.530876
76  -1.568375 -31.519983 0.906558  1.570796 -0.000000 1.530876
77  -1.568374 -31.519985 0.431385  1.570796 -0.000000 1.530876
78  -1.584797 -31.931168 0.193799  1.570796 -0.000000 1.530876
79  -1.601101 -32.342358 0.431385  1.570796 -0.000000 1.530876
80  -1.601220 -32.342350 0.906558  1.570796 -0.000000 1.530876
81  0.000001 -0.821651 -20.129416  1.570796 -0.000000 0.000000
time 10
0  0.000006 0.000000 0.000000  -1.570800 -1.391899 -1.570792
1  -9.841317 -7.634221 1.937669  -1.544956 -1.855077 -0.198630
2  6.027517 -0.000324 0.000196  -1.011205 -0.404917 -0.684623
3  11.692110 0.000643 -0.000737  -0.990410 -0.000003 -1.071824
4  11.480171 0.000456 -0.000635  1.921876 -0.177261 0.344222
5  3.666625 -0.163903 -1.204800  -0.468169 0.151546 -0.880257
6  1.312589 0.000009 0.000008  -0.000027 0.000044 -0.439740
7  0.729357 0.000054 0.000049  0.000017 0.000021 -0.244317
8  3.942138 0.046333 -0.431542  -0.151817 0.073216 -0.811086
9  1.539112 0.000084 0.000003  -0.000007 0.000021 -0.247842
10  1.196331 0.000145 0.000031  0.000011 0.000019 -0.430770
11  3.883508 -0.047211 0.431351  0.085894 0.021858 -0.587909
12  1.719571 -0.000029 0.000016  0.000015 0.005518 -0.366533
13  1.209180 0.000090 0.000010  0.000004 0.003091 -0.216438
14  3.859673 -0.138417 1.332381  0.354466 -0.042717 -0.531784
15  1.719448 -0.000018 0.000031  0.000028 0.004066 -0.363025
16  1.099675 0.000048 0.000004  0.000003 0.002578 -0.244381
17  0.483999 -0.516864 1.316629  -1.222694 -0.679188 -0.788867
18  1.789819 -0.000002 -0.000017  0.000011 -0.000024 0.228523
19  1.207017 -0.000015 -0.000045  0.000002 -0.000008 0.362856
20  5.740635 0.000389 -0.000700  0.069753 0.000003 0.000063
21  11.481046 0.000266 -0.000781  0.074964 -0.002760 0.067979
22  6.027524 -0.000329 0.000201  -0.953067 -2.075055 -1.366355
23  -0.000000 11.692100 -0.000007  -0.766918 -0.260074 -0.626842
24  0.000002 0.000009 -0.000001  -0.121332 -0.000030 1.570739
25  -0.000000 -0.000011 0.000000  0.868960 0.000002 1.570712
26  -8.393617 -6.005292 -1.937599  1.473120 1.855075 -0.198639
27  6.027509 -0.000257 -0.000230  0.763168 0.350915 -0.816788
28  11.691992 0.000162 0.000858  0.636696 0.000001 -0.547406
29  11.480382 0.000475 0.000664  -1.666802 0.295139 -0.142130
30  3.710776 -0.434237 1.096849  0.406970 -0.281773 -0.608981
31  1.312561 0.000031 0.000000  -0.000000 -0.000045 -0.148960
32  0.729345 0.000062 -0.000029  -0.000028 -0.000012 0.046463
33  3.820805 -0.154609 0.327899  0.121278 -0.118788 -0.520704
34  1.539095 0.000006 -0.000001  0.000007 -0.000009 0.042924
35  1.196305 0.000078 -0.000004  -0.000009 -0.000007 -0.140032
36  3.882445 -0.171892 -0.416806  -0.089865 -0.000691 -0.298015
37  1.719567 -0.000085 -0.000004  -0.002288 -0.007626 -0.075729
38  1.209194 0.000036 0.000011  -0.001277 -0.004274 0.074338
39  3.859583 -0.149083 -1.331322  -0.330196 0.136796 -0.257123
40  1.719411 -0.000097 -0.000036  -0.001916 -0.006299 -0.072275
41  1.099673 0.000022 0.000009  -0.001196 -0.004014 0.046404
42  0.230504 -0.805068 -1.086895  1.079795 0.646453 -0.910428
43  1.789777 -0.000008 -0.000042  0.011966 0.001552 -0.110980
44  1.206994 -0.000006 0.000005  0.005321 0.005317 0.007331
45  5.740572 0.000077 0.000719  -0.049002 -0.000014 0.000028
46  11.481021 0.000167 0.000878  -0.018802 0.038256 -0.034820
47  6.027515 -0.000271 -0.000228  -1.404939 -1.214846 -0.993557
48  -0.000001 11.691975 -0.000008  -0.409884 0.072127 0.343615
49  0.000003 0.000001 0.000001  2.909278 -0.000036 1.570860
50  -0.000007 -0.000015 0.000004  2.272645 -0.000036 1.570861
51  -12.080094 -2.607073 -28.354927  -0.668265 2.441716 1.352336
52  0.000000 -0.000002 0.000004  0.008153 -0.000259 0.000009
53  -0.000001 -0.000001 -0.000001  1.565115 0.043565 -0.106862
54  10.245171 -5.342162 -23.366718  0.255881 0.766400 -1.766008
55  0.000002 0.000000 0.000001  0.000000 -0.000001 -0.000002
56  0.000032 0.000029 0.000001  -1.571901 -0.044449 -0.106509
57  14.062574 -12.874806 -32.482468  1.570796 -0.000000 0.000000
58  -15.417985 2.938832 -23.313402  1.570796 -0.000000 0.000000
59  1.941978 9.263218 -8.327020  1.570796 -0.000000 0.000000
60  -0.004311 0.001229 -0.000372  0.006898 -0.005534 -0.284229
61  -1.937603 7.403047 -7.191051  1.570796 -0.000000 0.000000
62  0.000000 0.000000 0.000000  -0.078727 -3.136056 0.284226
63  0.000000 0.000000 0.000000  1.570796 -0.000000 0.000000
64  -4.117694 -32.432926 -1.823345  1.570796 -0.000000 1.570796
65  -0.002763 1.012997 0.788999  -0.852049 -0.000000 -0.000000
66  -0.002621 1.248439 2.815964  0.261799 -0.000000 0.000000
67  -0.002621 3.344600 1.868270  0.000000 -0.000000 0.000000
68  0.533195 -0.661978 -0.366937  0.000000 -0.000000 0.000000
69  -0.000144 -1.297433 7.689183  0.000000 -0.000000 0.000000
70  0.457359 -1.391466 1.883462  0.000000 -0.000000 0.000000
71  -0.457506 0.596250 -0.074240  0.000000 -0.000000 0.000000
72  -0.000004 0.335443 1.622949  0.000000 -0.000000 0.000000
73  -0.000146 -0.535500 -0.800664  0.000000 -0.000000 0.000000
74  -0.260892 -0.201932 -0.710355  0.000000 -0.000000 0.000000
75  -1.644370 -32.435684 1.201213  1.570796 -0.000000 1.570796
76  -1.644371 -32.024170 0.963626  1.570796 -0.000000 1.570796
77  -1.644370 -32.024174 0.488453  1.570796 -0.000000 1.570796
78  -1.644370 -32.435684 0.250867  1.570796 -0.000000 1.570796
79  -1.644250 -32.847195 0.488453  1.570796 -0.000000 1.570796
80  -1.644370 -32.847195 0.963626  1.570796 -0.000000 1.570796
81  0.000001 -0.821651 -20.129416  1.570796 -0.000000 0.000000
end
