version 1
nodes
0 "ValveBiped.Bip01_Spine4" -1
1 "ValveBiped.Bip01_L_Clavicle" 0
2 "ValveBiped.Bip01_L_UpperArm" 1
3 "ValveBiped.Bip01_L_Forearm" 2
4 "ValveBiped.Bip01_L_Hand" 3
5 "ValveBiped.Bip01_L_Finger4" 4
6 "ValveBiped.Bip01_L_Finger41" 5
7 "ValveBiped.Bip01_L_Finger42" 6
8 "ValveBiped.Bip01_L_Finger3" 4
9 "ValveBiped.Bip01_L_Finger31" 8
10 "ValveBiped.Bip01_L_Finger32" 9
11 "ValveBiped.Bip01_L_Finger2" 4
12 "ValveBiped.Bip01_L_Finger21" 11
13 "ValveBiped.Bip01_L_Finger22" 12
14 "ValveBiped.Bip01_L_Finger1" 4
15 "ValveBiped.Bip01_L_Finger11" 14
16 "ValveBiped.Bip01_L_Finger12" 15
17 "ValveBiped.Bip01_L_Finger0" 4
18 "ValveBiped.Bip01_L_Finger01" 17
19 "ValveBiped.Bip01_L_Finger02" 18
20 "ValveBiped.Bip01_L_Ulna" 3
21 "ValveBiped.Bip01_L_Wrist" 3
22 "rig_l_upperarm" 1
23 "rig_l_forearm" 22
24 "rig_d_l_forearm" 23
25 "rig_d_l_upperarm" 22
26 "ValveBiped.Bip01_R_Clavicle" 0
27 "ValveBiped.Bip01_R_UpperArm" 26
28 "ValveBiped.Bip01_R_Forearm" 27
29 "ValveBiped.Bip01_R_Hand" 28
30 "ValveBiped.Bip01_R_Finger4" 29
31 "ValveBiped.Bip01_R_Finger41" 30
32 "ValveBiped.Bip01_R_Finger42" 31
33 "ValveBiped.Bip01_R_Finger3" 29
34 "ValveBiped.Bip01_R_Finger31" 33
35 "ValveBiped.Bip01_R_Finger32" 34
36 "ValveBiped.Bip01_R_Finger2" 29
37 "ValveBiped.Bip01_R_Finger21" 36
38 "ValveBiped.Bip01_R_Finger22" 37
39 "ValveBiped.Bip01_R_Finger1" 29
40 "ValveBiped.Bip01_R_Finger11" 39
41 "ValveBiped.Bip01_R_Finger12" 40
42 "ValveBiped.Bip01_R_Finger0" 29
43 "ValveBiped.Bip01_R_Finger01" 42
44 "ValveBiped.Bip01_R_Finger02" 43
45 "ValveBiped.Bip01_R_Ulna" 28
46 "ValveBiped.Bip01_R_Wrist" 28
47 "rig_r_upperarm" 26
48 "rig_r_forearm" 47
49 "rig_d_r_forearm" 48
50 "rig_d_r_upperarm" 47
51 "rig_r_hand" -1
52 "rig_d_r_hand" 51
53 "rig_d_r_wrist" 52
54 "rig_l_hand" -1
55 "rig_d_l_hand" 54
56 "rig_d_l_wrist" 54
57 "rig_l_pole" -1
58 "rig_r_pole" -1
59 "rig_l_clavicle" -1
60 "rig_d_l_clavicle" 59
61 "rig_r_clavicle" -1
62 "rig_d_r_clavicle" 61
63 "Camera" -1
64 "body" -1
65 "hammer" 64
66 "trigger" 64
67 "slide" 64
68 "cylrel" 67
69 "barrel" 67
70 "cylinderlock" 67
71 "cylinder" 70
72 "cylinderpush" 71
73 "pin" 67
74 "mysteriouspiece" 67
75 "bullet1" -1
76 "bullet2" -1
77 "bullet3" -1
78 "bullet4" -1
79 "bullet5" -1
80 "bullet6" -1
81 "speedloader" -1
end
skeleton
time 0
0  0.000006 0.000000 0.000000  -1.570800 -1.391899 -1.570792
1  -9.841317 -7.634221 1.937669  -1.544956 -1.855077 -0.198630
2  6.027525 -0.000329 0.000190  -0.424065 -1.478968 -1.583605
3  11.692113 0.000645 -0.000739  -0.990398 0.000004 -0.880574
4  11.480691 0.000596 -0.000424  1.002845 -0.282629 0.548157
5  3.666628 -0.163903 -1.204801  -0.512108 0.045211 -1.390253
6  1.312590 0.000010 0.000008  0.001121 -0.004336 -0.231157
7  0.729355 0.000053 0.000050  0.001275 0.000971 -0.172631
8  3.942142 0.046332 -0.431542  -0.194794 0.086414 -1.323675
9  1.539110 0.000084 0.000004  -0.001418 -0.002935 -0.104900
10  1.196332 0.000144 0.000029  0.000179 0.000398 -0.764322
11  3.883512 -0.047211 0.431351  -0.035289 0.158330 -1.192309
12  1.719573 -0.000028 0.000016  -0.000667 -0.010574 -0.287260
13  1.209179 0.000091 0.000013  0.000298 0.002922 -0.736617
14  3.859679 -0.138417 1.332380  -0.032089 0.184732 -1.298405
15  1.719448 -0.000018 0.000028  0.003753 -0.014993 -0.077116
16  1.099675 0.000049 0.000005  0.000709 0.002574 -0.704331
17  0.484004 -0.516865 1.316627  -1.373029 -0.651615 -0.282352
18  1.789819 -0.000004 -0.000015  -0.005063 0.005449 0.155924
19  1.207017 -0.000012 -0.000044  -0.005720 -0.000511 0.867470
20  5.740635 0.000388 -0.000699  -0.121252 0.000003 0.000063
21  11.481146 0.000298 -0.000738  -0.095999 -0.061997 0.077711
22  6.027524 -0.000329 0.000201  1.545552 -0.088383 1.836876
23  0.000000 11.692101 -0.000008  -0.641732 -0.180137 -0.530541
24  0.000001 0.000008 -0.000000  -0.121333 -0.000030 1.570739
25  0.000000 -0.000011 -0.000000  0.868960 0.000002 1.570712
26  -6.899342 -10.734701 0.826813  1.473120 1.855075 -0.198639
27  6.027517 -0.000263 -0.000216  1.618067 1.284487 -0.643222
28  11.691992 0.000162 0.000858  0.139885 0.000013 -0.937765
29  11.479655 -0.000304 0.000872  -1.306113 0.532550 0.494670
30  3.710775 -0.434234 1.096848  0.685744 0.135637 -2.140381
31  1.312560 0.000030 -0.000000  0.004429 0.012974 -0.198564
32  0.729347 0.000066 -0.000028  -0.001423 -0.000196 -1.172210
33  3.820806 -0.154608 0.327899  0.660980 -0.074301 -1.836563
34  1.539095 0.000005 -0.000002  0.045826 -0.038323 -0.676515
35  1.196303 0.000080 -0.000003  -0.018240 -0.014446 -1.506251
36  3.882445 -0.171892 -0.416804  0.549170 -0.212324 -1.595491
37  1.719565 -0.000083 -0.000005  0.007638 -0.016351 -1.238155
38  1.209193 0.000034 0.000011  -0.003491 -0.003814 -0.939900
39  3.859584 -0.149081 -1.331322  -0.013150 -0.337428 -0.475205
40  1.719413 -0.000097 -0.000037  0.032003 -0.053892 -1.338570
41  1.099673 0.000022 0.000006  0.000998 -0.008132 -0.688592
42  0.230504 -0.805067 -1.086893  1.133899 0.523038 -0.582507
43  1.789780 -0.000008 -0.000042  -0.089312 -0.070323 0.368341
44  1.206995 -0.000006 0.000005  0.000678 -0.214508 0.376132
45  5.740572 0.000079 0.000721  0.082936 -0.000013 0.000028
46  11.480875 0.000013 0.000919  0.028750 0.094287 0.071892
47  6.027515 -0.000273 -0.000229  -1.341395 -0.172862 -1.579411
48  -0.000002 11.691974 -0.000007  -0.679714 0.202763 0.560243
49  0.000004 -0.000001 0.000001  2.412441 -0.000036 1.570860
50  -0.000007 -0.000013 0.000005  2.272645 -0.000036 1.570861
51  -2.558838 -8.705482 -4.899908  -0.148535 -2.879863 1.246914
52  0.000000 0.000000 -0.000000  0.008153 -0.000259 0.000009
53  0.000000 0.000000 -0.000000  1.565115 0.043565 -0.106862
54  0.419506 -9.994166 -5.951623  -0.545470 0.079848 -2.025877
55  0.000001 0.000000 0.000000  0.000000 -0.000001 -0.000002
56  0.000031 0.000029 0.000001  -1.571902 -0.044449 -0.106509
57  12.000549 -19.544212 -17.246658  1.570796 -0.000000 0.000000
58  -15.417984 4.000748 -22.641926  1.570796 -0.000000 0.000000
59  1.941978 9.263218 -8.327020  1.570796 -0.000000 0.000000
60  -0.004311 0.001229 -0.000372  0.006898 -0.005534 -0.284229
61  0.826810 11.791080 -4.879054  1.570796 -0.000000 0.000000
62  0.000000 0.000000 0.000000  -0.078727 -3.136056 0.284226
63  0.000000 0.000000 0.000000  1.570796 -0.000000 0.000000
64  -1.915771 -10.889102 -3.861487  1.570796 -0.000000 0.000000
65  -0.002760 1.012997 0.789000  -0.852049 -0.000000 -0.000000
66  -0.002617 1.248439 2.815965  0.261799 -0.000000 0.000000
67  -0.002618 3.344600 1.868270  0.000000 -0.000000 0.000000
68  0.533199 -0.661978 -0.366937  0.000000 -0.000000 0.000000
69  -0.000141 -1.297433 7.689184  0.000000 -0.000000 0.000000
70  0.457364 -1.391466 1.883462  0.000000 -0.000000 0.000000
71  -0.457506 0.596250 -0.074240  0.000000 -0.000000 0.000000
72  -0.000000 0.335443 1.622949  0.000000 -0.000000 0.000000
73  -0.000142 -0.535500 -0.800663  0.000000 -0.000000 0.000000
74  -0.260886 -0.201932 -0.710355  0.000000 -0.000000 0.000000
75  -1.918530 -13.362426 -0.836929  1.570796 -0.000000 0.000000
76  -1.507018 -13.362425 -1.074516  1.570796 -0.000000 0.000000
77  -1.507019 -13.362426 -1.549689  1.570796 -0.000000 0.000000
78  -1.918530 -13.362426 -1.787275  1.570796 -0.000000 0.000000
79  -2.330042 -13.362546 -1.549689  1.570796 -0.000000 0.000000
80  -2.330042 -13.362426 -1.074516  1.570796 -0.000000 0.000000
81  0.000001 -0.821651 -20.129416  1.570796 -0.000000 0.000000
end
