version 1
nodes
0 "ValveBiped.Bip01_Spine4" -1
1 "ValveBiped.Bip01_L_Clavicle" 0
2 "ValveBiped.Bip01_L_UpperArm" 1
3 "ValveBiped.Bip01_L_Forearm" 2
4 "ValveBiped.Bip01_L_Hand" 3
5 "ValveBiped.Bip01_L_Finger4" 4
6 "ValveBiped.Bip01_L_Finger41" 5
7 "ValveBiped.Bip01_L_Finger42" 6
8 "ValveBiped.Bip01_L_Finger3" 4
9 "ValveBiped.Bip01_L_Finger31" 8
10 "ValveBiped.Bip01_L_Finger32" 9
11 "ValveBiped.Bip01_L_Finger2" 4
12 "ValveBiped.Bip01_L_Finger21" 11
13 "ValveBiped.Bip01_L_Finger22" 12
14 "ValveBiped.Bip01_L_Finger1" 4
15 "ValveBiped.Bip01_L_Finger11" 14
16 "ValveBiped.Bip01_L_Finger12" 15
17 "ValveBiped.Bip01_L_Finger0" 4
18 "ValveBiped.Bip01_L_Finger01" 17
19 "ValveBiped.Bip01_L_Finger02" 18
20 "ValveBiped.Bip01_L_Ulna" 3
21 "ValveBiped.Bip01_L_Wrist" 3
22 "rig_l_upperarm" 1
23 "rig_l_forearm" 22
24 "rig_d_l_forearm" 23
25 "rig_d_l_upperarm" 22
26 "ValveBiped.Bip01_R_Clavicle" 0
27 "ValveBiped.Bip01_R_UpperArm" 26
28 "ValveBiped.Bip01_R_Forearm" 27
29 "ValveBiped.Bip01_R_Hand" 28
30 "ValveBiped.Bip01_R_Finger4" 29
31 "ValveBiped.Bip01_R_Finger41" 30
32 "ValveBiped.Bip01_R_Finger42" 31
33 "ValveBiped.Bip01_R_Finger3" 29
34 "ValveBiped.Bip01_R_Finger31" 33
35 "ValveBiped.Bip01_R_Finger32" 34
36 "ValveBiped.Bip01_R_Finger2" 29
37 "ValveBiped.Bip01_R_Finger21" 36
38 "ValveBiped.Bip01_R_Finger22" 37
39 "ValveBiped.Bip01_R_Finger1" 29
40 "ValveBiped.Bip01_R_Finger11" 39
41 "ValveBiped.Bip01_R_Finger12" 40
42 "ValveBiped.Bip01_R_Finger0" 29
43 "ValveBiped.Bip01_R_Finger01" 42
44 "ValveBiped.Bip01_R_Finger02" 43
45 "ValveBiped.Bip01_R_Ulna" 28
46 "ValveBiped.Bip01_R_Wrist" 28
47 "rig_r_upperarm" 26
48 "rig_r_forearm" 47
49 "rig_d_r_forearm" 48
50 "rig_d_r_upperarm" 47
51 "rig_r_hand" -1
52 "rig_d_r_hand" 51
53 "rig_d_r_wrist" 52
54 "rig_l_hand" -1
55 "rig_d_l_hand" 54
56 "rig_d_l_wrist" 54
57 "rig_l_pole" -1
58 "rig_r_pole" -1
59 "rig_l_clavicle" -1
60 "rig_d_l_clavicle" 59
61 "rig_r_clavicle" -1
62 "rig_d_r_clavicle" 61
63 "Camera" -1
64 "body" -1
65 "trigger" 64
66 "bolt" 64
67 "chandle" 64
68 "barrel" 64
69 "magrel" 64
70 "boltrelease" 64
71 "dustcover" 64
72 "bullet1" 64
73 "flashlight" 64
74 "mag" -1
75 "bullet2" 74
76 "bullet3" 74
end
skeleton
time 0
0  0.000006 0.000000 0.000000  -1.570800 -1.391899 -1.570792
1  -3.865520 -0.192010 1.061693  -1.544956 -1.855077 -0.198630
2  6.027524 -0.000323 0.000191  -0.902872 -0.927089 -1.359132
3  11.692107 0.000645 -0.000740  -1.152285 -0.000025 -1.495890
4  11.480498 0.000561 -0.000538  1.190636 -0.670590 0.159474
5  3.859503 -0.142823 -1.192080  -0.603309 -0.153254 -1.645038
6  1.312589 0.000010 0.000007  -0.134332 0.005764 -0.149076
7  0.729355 0.000054 0.000050  -0.006921 -0.010127 -0.171925
8  3.942141 0.046331 -0.431543  -0.437576 0.236645 -1.080252
9  1.539110 0.000081 0.000002  -0.023906 -0.071181 -0.773682
10  1.196334 0.000145 0.000027  0.006223 0.004451 -0.725134
11  3.883512 -0.047212 0.431351  -0.279795 0.553082 -0.488973
12  1.719574 -0.000029 0.000019  0.002711 -0.070785 -0.961842
13  1.209179 0.000091 0.000013  -0.010762 -0.006973 -0.762710
14  4.085237 -0.082652 1.151009  0.025499 0.604578 -0.086052
15  1.719446 -0.000018 0.000028  -0.003946 -0.026040 -0.561722
16  1.099675 0.000048 0.000006  -0.052339 0.061959 -1.042030
17  1.059882 -1.545939 0.873876  -0.894241 -0.623407 -0.353559
18  1.789819 -0.000002 -0.000018  -0.000002 -0.009376 0.757285
19  1.207019 -0.000013 -0.000043  0.001023 -0.000035 -0.104167
20  5.740637 0.000388 -0.000700  -0.130559 0.000003 0.000063
21  11.481108 0.000289 -0.000759  -0.055528 -0.118051 -0.005020
22  6.027525 -0.000330 0.000200  1.719528 -0.628763 1.532980
23  -0.000002 11.692099 -0.000007  -1.027033 -0.473691 -0.808724
24  0.000003 0.000008 0.000000  -0.283187 -0.000031 1.570739
25  -0.000000 -0.000011 0.000000  0.868960 0.000002 1.570712
26  -6.212011 -10.642979 0.826812  1.473120 1.855075 -0.198639
27  6.027511 -0.000260 -0.000220  1.491220 0.813251 -0.540332
28  11.691992 0.000160 0.000858  0.346040 0.000059 -1.652967
29  11.479169 -0.000669 0.001112  -1.142144 0.628150 0.759993
30  3.859437 -0.132758 1.193065  0.469647 -0.013262 -1.872395
31  1.312559 0.000026 -0.000001  0.024060 -0.138696 -0.550187
32  0.729345 0.000065 -0.000026  -0.166197 -0.081570 -0.714272
33  3.942047 0.050139 0.431000  0.225309 -0.086237 -1.592712
34  1.539096 0.000007 -0.000001  0.035254 -0.050373 -0.994350
35  1.196300 0.000077 -0.000003  -0.021521 0.002175 -0.839738
36  3.883414 -0.050472 -0.431084  0.184824 -0.271737 -1.204030
37  1.719564 -0.000084 -0.000005  0.022858 -0.107186 -1.509108
38  1.209197 0.000036 0.000011  0.000661 0.071072 -0.480462
39  3.859588 -0.149081 -1.331321  -0.113059 -0.126939 -0.401435
40  1.719413 -0.000099 -0.000036  -0.010069 -0.019770 -1.319871
41  1.099673 0.000023 0.000007  -0.058928 0.047625 -0.916935
42  0.805984 -0.359848 -1.318338  0.991670 0.166767 -0.799527
43  1.789780 -0.000008 -0.000042  0.000058 -0.002451 0.133098
44  1.206996 -0.000006 0.000005  0.000372 -0.000071 1.058780
45  5.740572 0.000079 0.000721  0.118331 -0.000014 0.000028
46  11.480778 -0.000060 0.000967  0.040523 0.125127 0.108607
47  6.027515 -0.000273 -0.000229  -0.979522 -0.505213 -1.486634
48  -0.000001 11.691975 -0.000009  -1.119417 0.562744 0.864434
49  0.000002 -0.000001 -0.000001  2.618569 -0.000036 1.570860
50  -0.000007 -0.000012 0.000003  2.272645 -0.000036 1.570861
51  -3.252213 -4.019835 -7.023181  -0.104800 -2.982050 1.381830
52  -0.000000 0.000000 0.000000  0.008153 -0.000259 0.000009
53  -0.000000 -0.000000 0.000000  1.565115 0.043565 -0.106862
54  -0.361885 -14.538486 -5.367636  -1.087645 -0.139374 -1.918281
55  -0.000000 0.000000 0.000000  0.000000 -0.000001 -0.000002
56  0.000030 0.000029 0.000001  -1.571901 -0.044449 -0.106509
57  5.661260 -16.060535 -17.872917  1.570796 -0.000000 0.000000
58  -16.319784 5.039393 -18.063972  1.570796 -0.000000 0.000000
59  1.066008 0.876422 -3.770892  1.570796 -0.000000 0.000000
60  -0.004311 0.001230 -0.000371  0.006898 -0.005534 -0.284229
61  0.826810 11.578514 -4.219014  1.570796 -0.000000 0.000000
62  0.000000 0.000000 0.000000  -0.078727 -3.136056 0.284226
63  0.000000 0.000000 0.000000  1.570796 -0.000000 0.000000
64  -2.287624 -8.249615 -1.854442  1.571103 0.041360 0.006551
65  0.085367 -2.603195 0.763119  0.174533 -0.000000 -0.000000
66  0.042352 -1.082367 5.211879  -0.000000 -0.000000 -0.000000
67  0.048106 -0.032154 -1.710082  0.000000 -0.000000 -0.000000
68  0.042347 -1.082868 19.512426  -0.000000 -0.000000 -0.000000
69  0.021362 -2.476558 2.118467  0.000000 -0.000000 -0.000000
70  0.654293 -1.873716 2.120182  -0.000000 -0.000000 -0.000000
71  -0.612739 -1.349160 3.336716  -0.000000 -0.000000 -0.000000
72  0.191118 -1.464234 2.836251  0.000000 -0.000000 -0.000000
73  -1.181944 -2.300501 17.060877  0.000000 -0.000000 -0.000000
74  -2.423788 -12.955736 -5.949658  1.571103 0.041360 0.006551
75  -0.108895 2.446371 -1.870138  0.000000 -0.000000 -0.000000
76  0.188638 2.259805 -1.870138  0.000000 -0.000000 -0.000000
time 1
0  0.000006 0.000000 0.000000  -1.570800 -1.391899 -1.570792
1  -3.865520 -0.192010 1.061693  -1.544956 -1.855077 -0.198630
2  6.027523 -0.000323 0.000191  -0.901479 -0.905721 -1.329924
3  11.692107 0.000646 -0.000740  -1.152288 -0.000030 -1.571294
4  11.479899 0.000413 -0.000875  1.170443 -0.716926 0.139409
5  3.859504 -0.142823 -1.192079  -0.603309 -0.153254 -1.645038
6  1.312589 0.000009 0.000007  -0.134332 0.005764 -0.149076
7  0.729355 0.000054 0.000048  -0.006921 -0.010127 -0.171925
8  3.942142 0.046331 -0.431542  -0.437576 0.236645 -1.080252
9  1.539110 0.000081 0.000004  -0.023906 -0.071181 -0.773682
10  1.196333 0.000146 0.000028  0.006223 0.004451 -0.725134
11  3.883513 -0.047211 0.431351  -0.279795 0.553082 -0.488973
12  1.719572 -0.000028 0.000015  0.002711 -0.070785 -0.961842
13  1.209179 0.000092 0.000012  -0.010762 -0.006973 -0.762710
14  4.085236 -0.082652 1.151009  0.025499 0.604578 -0.086052
15  1.719448 -0.000021 0.000028  -0.003946 -0.026040 -0.561722
16  1.099676 0.000050 0.000005  -0.052339 0.061959 -1.042030
17  1.059882 -1.545938 0.873876  -0.894241 -0.623407 -0.353559
18  1.789819 -0.000004 -0.000018  -0.000002 -0.009376 0.757285
19  1.207012 -0.000013 -0.000044  0.001023 -0.000035 -0.104167
20  5.740636 0.000389 -0.000700  -0.148845 0.000003 0.000064
21  11.480987 0.000260 -0.000828  -0.058636 -0.126892 -0.011919
22  6.027525 -0.000330 0.000200  1.725107 -0.649674 1.559964
23  -0.000001 11.692098 -0.000006  -1.071546 -0.515895 -0.836274
24  0.000002 0.000009 0.000001  -0.283187 -0.000030 1.570739
25  0.000000 -0.000012 0.000001  0.868960 0.000002 1.570712
26  -6.212011 -10.642979 0.826812  1.473120 1.855075 -0.198639
27  6.027511 -0.000260 -0.000221  1.494124 0.771921 -0.535877
28  11.691992 0.000160 0.000858  0.346040 0.000065 -1.729444
29  11.480319 -0.000082 0.000903  -1.170375 0.636808 0.778042
30  3.859437 -0.132759 1.193066  0.469647 -0.013262 -1.872395
31  1.312559 0.000028 -0.000001  0.024060 -0.138696 -0.550187
32  0.729345 0.000064 -0.000028  -0.166197 -0.081570 -0.714272
33  3.942047 0.050138 0.431000  0.225309 -0.086237 -1.592712
34  1.539097 0.000006 -0.000001  0.035254 -0.050373 -0.994350
35  1.196300 0.000079 -0.000003  -0.021521 0.002175 -0.839738
36  3.883413 -0.050473 -0.431084  0.184824 -0.271737 -1.204030
37  1.719563 -0.000085 -0.000005  0.022859 -0.107186 -1.509108
38  1.209197 0.000035 0.000011  0.000661 0.071072 -0.480462
39  3.859588 -0.149082 -1.331321  -0.113059 -0.126939 -0.401435
40  1.719412 -0.000100 -0.000035  -0.010069 -0.019770 -1.319871
41  1.099673 0.000023 0.000006  -0.058928 0.047625 -0.916935
42  0.805983 -0.359848 -1.318338  0.991670 0.166767 -0.799527
43  1.789780 -0.000008 -0.000042  0.000058 -0.002451 0.133098
44  1.206997 -0.000006 0.000005  0.000372 -0.000071 1.058780
45  5.740573 0.000079 0.000721  0.117216 -0.000014 0.000028
46  11.481009 0.000057 0.000926  0.033922 0.125462 0.113532
47  6.027515 -0.000273 -0.000229  -0.939316 -0.527346 -1.504099
48  -0.000002 11.691977 -0.000006  -1.164224 0.607640 0.889064
49  0.000003 -0.000001 0.000000  2.618569 -0.000036 1.570860
50  -0.000008 -0.000013 0.000005  2.272645 -0.000036 1.570861
51  -3.364137 -3.364744 -7.020843  -0.132428 -2.967524 1.390541
52  0.000000 -0.000000 0.000000  0.008153 -0.000259 0.000009
53  -0.000000 -0.000000 0.000000  1.565115 0.043565 -0.106862
54  -0.381567 -13.855873 -5.354310  -1.112521 -0.158030 -1.910471
55  0.000000 0.000001 -0.000000  0.000000 -0.000001 -0.000002
56  0.000030 0.000029 0.000001  -1.571902 -0.044449 -0.106509
57  5.661260 -16.060535 -17.872917  1.570796 -0.000000 0.000000
58  -16.319784 5.039393 -18.063972  1.570796 -0.000000 0.000000
59  1.066008 0.876422 -3.770892  1.570796 -0.000000 0.000000
60  -0.004311 0.001230 -0.000371  0.006898 -0.005534 -0.284229
61  0.826810 11.578514 -4.219014  1.570796 -0.000000 0.000000
62  0.000000 0.000000 0.000000  -0.078727 -3.136056 0.284226
63  0.000000 0.000000 0.000000  1.570796 -0.000000 0.000000
64  -2.229871 -7.542202 -1.844007  1.562059 0.070885 0.010168
65  0.085367 -2.603195 0.763120  0.174533 -0.000000 0.000000
66  0.042352 -1.082367 2.254083  -0.000000 -0.000000 0.000000
67  0.048106 -0.032154 -1.710082  -0.000000 -0.000000 0.000000
68  0.042346 -1.082868 19.512426  -0.000000 -0.000000 0.000000
69  0.021362 -2.476557 2.118468  -0.000000 -0.000000 0.000000
70  0.654292 -1.873716 2.120183  -0.000000 -0.000000 0.000000
71  -0.612739 -1.349160 3.336717  -0.000000 -0.000000 0.000000
72  0.191118 -1.464234 2.836251  -0.000000 -0.000000 0.000000
73  -1.181944 -2.300502 17.060879  -0.000000 -0.000000 0.000000
74  -2.466426 -12.286859 -5.889892  1.562059 0.070885 0.010168
75  -0.108895 2.446371 -1.870140  -0.000000 -0.000000 0.000000
76  0.188638 2.259804 -1.870140  -0.000000 -0.000000 0.000000
time 2
0  0.000006 0.000000 0.000000  -1.570800 -1.391899 -1.570792
1  -3.865520 -0.192010 1.061693  -1.544956 -1.855077 -0.198630
2  6.027523 -0.000323 0.000191  -0.909717 -0.910689 -1.337456
3  11.692106 0.000646 -0.000739  -1.152288 -0.000030 -1.564241
4  11.479954 0.000425 -0.000843  1.196660 -0.710533 0.148620
5  3.859504 -0.142823 -1.192079  -0.603309 -0.153254 -1.645038
6  1.312589 0.000011 0.000009  -0.134332 0.005764 -0.149076
7  0.729354 0.000055 0.000050  -0.006921 -0.010127 -0.171925
8  3.942141 0.046331 -0.431542  -0.437576 0.236645 -1.080252
9  1.539111 0.000081 0.000004  -0.023906 -0.071181 -0.773682
10  1.196333 0.000143 0.000027  0.006223 0.004451 -0.725134
11  3.883510 -0.047212 0.431351  -0.279795 0.553082 -0.488973
12  1.719572 -0.000029 0.000016  0.002711 -0.070785 -0.961842
13  1.209179 0.000092 0.000012  -0.010762 -0.006973 -0.762710
14  4.085235 -0.082653 1.151009  0.025499 0.604578 -0.086052
15  1.719449 -0.000017 0.000030  -0.003946 -0.026040 -0.561722
16  1.099675 0.000049 0.000005  -0.052339 0.061959 -1.042030
17  1.059882 -1.545940 0.873876  -0.894241 -0.623407 -0.353559
18  1.789820 -0.000003 -0.000018  -0.000002 -0.009376 0.757285
19  1.207016 -0.000014 -0.000043  0.001023 -0.000035 -0.104167
20  5.740636 0.000388 -0.000698  -0.141731 0.000003 0.000064
21  11.480997 0.000262 -0.000820  -0.053619 -0.125540 -0.008096
22  6.027525 -0.000330 0.000200  1.729672 -0.643584 1.543187
23  -0.000001 11.692098 -0.000007  -1.067395 -0.511902 -0.833762
24  0.000003 0.000008 0.000000  -0.283187 -0.000031 1.570739
25  0.000000 -0.000011 0.000000  0.868960 0.000002 1.570712
26  -6.212011 -10.642979 0.826812  1.473120 1.855075 -0.198639
27  6.027511 -0.000260 -0.000221  1.488244 0.780865 -0.538922
28  11.691992 0.000159 0.000860  0.346040 0.000063 -1.713629
29  11.480462 0.000012 0.000868  -1.152618 0.641113 0.764084
30  3.859438 -0.132758 1.193064  0.469647 -0.013262 -1.872395
31  1.312559 0.000027 -0.000001  0.024060 -0.138696 -0.550187
32  0.729346 0.000065 -0.000028  -0.166197 -0.081570 -0.714272
33  3.942047 0.050139 0.431000  0.225309 -0.086237 -1.592712
34  1.539096 0.000006 -0.000001  0.035254 -0.050373 -0.994350
35  1.196301 0.000078 -0.000004  -0.021521 0.002175 -0.839738
36  3.883414 -0.050472 -0.431084  0.184824 -0.271737 -1.204030
37  1.719564 -0.000084 -0.000004  0.022859 -0.107186 -1.509108
38  1.209198 0.000035 0.000010  0.000661 0.071072 -0.480462
39  3.859589 -0.149081 -1.331322  -0.113059 -0.126939 -0.401435
40  1.719413 -0.000099 -0.000036  -0.010069 -0.019770 -1.319871
41  1.099673 0.000023 0.000006  -0.058928 0.047625 -0.916935
42  0.805984 -0.359847 -1.318338  0.991670 0.166767 -0.799527
43  1.789780 -0.000008 -0.000042  0.000058 -0.002451 0.133097
44  1.206996 -0.000007 0.000006  0.000372 -0.000071 1.058781
45  5.740572 0.000079 0.000720  0.119272 -0.000014 0.000028
46  11.481036 0.000076 0.000918  0.037390 0.126985 0.109411
47  6.027515 -0.000273 -0.000229  -0.950580 -0.525685 -1.497363
48  0.000002 11.691975 -0.000008  -1.154957 0.598281 0.884110
49  0.000004 -0.000001 -0.000001  2.618569 -0.000036 1.570860
50  -0.000006 -0.000013 0.000004  2.272645 -0.000036 1.570861
51  -3.295180 -3.494784 -7.057639  -0.110315 -2.962323 1.391004
52  0.000000 0.000000 -0.000000  0.008153 -0.000259 0.000009
53  0.000000 0.000000 -0.000000  1.565115 0.043565 -0.106862
54  -0.302776 -13.957192 -5.235463  -1.089918 -0.159712 -1.909698
55  -0.000001 -0.000001 -0.000001  0.000000 -0.000001 -0.000002
56  0.000028 0.000028 0.000000  -1.571902 -0.044449 -0.106509
57  5.661260 -16.060535 -17.872917  1.570796 -0.000000 0.000000
58  -16.319784 5.039393 -18.063972  1.570796 -0.000000 0.000000
59  1.066008 0.876422 -3.770892  1.570796 -0.000000 0.000000
60  -0.004311 0.001230 -0.000371  0.006898 -0.005534 -0.284229
61  0.826810 11.578514 -4.219014  1.570796 -0.000000 0.000000
62  0.000000 0.000000 0.000000  -0.078727 -3.136056 0.284226
63  0.000000 0.000000 0.000000  1.570796 -0.000000 0.000000
64  -2.249526 -7.620566 -1.821050  1.552782 0.050508 0.013955
65  0.085367 -2.603194 0.763120  0.174533 0.000000 -0.000000
66  0.042351 -1.082366 3.732980  0.000000 0.000000 -0.000000
67  0.048106 -0.032153 -1.710082  0.000000 0.000000 -0.000000
68  0.042346 -1.082868 19.512424  0.000000 0.000000 -0.000000
69  0.021362 -2.476557 2.118467  0.000000 0.000000 -0.000000
70  0.654292 -1.873715 2.120182  0.000000 0.000000 -0.000000
71  -0.612738 -1.349160 3.336716  0.000000 0.000000 -0.000000
72  0.191118 -1.424722 3.873824  -0.191412 0.000000 0.000000
73  -1.181944 -2.300501 17.060873  0.000000 0.000000 -0.000000
74  -2.382875 -12.402321 -5.827789  1.552782 0.050508 0.013955
75  0.188638 2.632941 -1.870135  0.000000 0.000000 -0.000000
76  -0.108895 2.446371 -1.870138  0.000000 0.000000 -0.000000
time 3
0  0.000006 0.000000 0.000000  -1.570800 -1.391899 -1.570792
1  -3.865520 -0.192010 1.061693  -1.544956 -1.855077 -0.198630
2  6.027523 -0.000323 0.000191  -0.910686 -0.917593 -1.346804
3  11.692107 0.000646 -0.000740  -1.152287 -0.000028 -1.544941
4  11.480102 0.000461 -0.000762  1.206323 -0.700383 0.166290
5  3.859503 -0.142824 -1.192079  -0.603309 -0.153254 -1.645038
6  1.312591 0.000009 0.000006  -0.134332 0.005764 -0.149076
7  0.729354 0.000055 0.000050  -0.006921 -0.010127 -0.171925
8  3.942141 0.046331 -0.431542  -0.437576 0.236645 -1.080252
9  1.539109 0.000082 0.000004  -0.023906 -0.071181 -0.773682
10  1.196332 0.000145 0.000028  0.006223 0.004451 -0.725134
11  3.883509 -0.047212 0.431352  -0.279795 0.553083 -0.488973
12  1.719571 -0.000030 0.000016  0.002711 -0.070786 -0.961842
13  1.209179 0.000090 0.000013  -0.010762 -0.006973 -0.762710
14  4.085233 -0.082654 1.151009  0.025499 0.604578 -0.086052
15  1.719447 -0.000019 0.000026  -0.003947 -0.026040 -0.561722
16  1.099675 0.000050 0.000008  -0.052339 0.061959 -1.042030
17  1.059881 -1.545940 0.873877  -0.894241 -0.623407 -0.353559
18  1.789818 -0.000004 -0.000018  -0.000002 -0.009376 0.757285
19  1.207016 -0.000013 -0.000044  0.001023 -0.000035 -0.104167
20  5.740635 0.000389 -0.000700  -0.134680 0.000003 0.000063
21  11.481028 0.000269 -0.000804  -0.051311 -0.123824 -0.003709
22  6.027525 -0.000330 0.000200  1.728163 -0.636760 1.533973
23  -0.000003 11.692099 -0.000007  -1.056023 -0.501023 -0.826817
24  0.000003 0.000010 0.000000  -0.283187 -0.000031 1.570739
25  -0.000000 -0.000011 0.000000  0.868960 0.000002 1.570712
26  -6.212011 -10.642979 0.826812  1.473120 1.855075 -0.198639
27  6.027511 -0.000260 -0.000221  1.485006 0.794785 -0.541424
28  11.691993 0.000159 0.000860  0.346040 0.000062 -1.694516
29  11.480642 0.000126 0.000826  -1.127507 0.643235 0.771162
30  3.859438 -0.132759 1.193065  0.469647 -0.013262 -1.872395
31  1.312559 0.000026 -0.000001  0.024060 -0.138696 -0.550187
32  0.729346 0.000064 -0.000027  -0.166197 -0.081570 -0.714272
33  3.942047 0.050139 0.431000  0.225309 -0.086237 -1.592712
34  1.539097 0.000005 -0.000001  0.035254 -0.050373 -0.994350
35  1.196300 0.000078 -0.000003  -0.021521 0.002175 -0.839738
36  3.883414 -0.050472 -0.431084  0.184824 -0.271737 -1.204030
37  1.719564 -0.000085 -0.000004  0.022859 -0.107186 -1.509108
38  1.209198 0.000035 0.000011  0.000661 0.071072 -0.480462
39  3.859588 -0.149081 -1.331322  -0.113059 -0.126939 -0.401435
40  1.719413 -0.000099 -0.000036  -0.010069 -0.019770 -1.319871
41  1.099673 0.000022 0.000006  -0.058928 0.047625 -0.916935
42  0.805984 -0.359848 -1.318338  0.991670 0.166767 -0.799527
43  1.789779 -0.000008 -0.000042  0.000058 -0.002451 0.133097
44  1.206997 -0.000006 0.000006  0.000372 -0.000071 1.058780
45  5.740574 0.000078 0.000720  0.123041 -0.000014 0.000028
46  11.481073 0.000098 0.000910  0.041286 0.128950 0.108878
47  6.027515 -0.000273 -0.000229  -0.965206 -0.519492 -1.490270
48  -0.000001 11.691977 -0.000008  -1.143759 0.587021 0.878024
49  0.000003 -0.000000 0.000000  2.618569 -0.000036 1.570860
50  -0.000007 -0.000013 0.000004  2.272645 -0.000036 1.570861
51  -3.209895 -3.655129 -7.036619  -0.090693 -2.970381 1.384058
52  -0.000000 0.000000 -0.000001  0.008153 -0.000259 0.000009
53  0.000000 0.000000 0.000000  1.565115 0.043565 -0.106862
54  -0.291845 -14.136009 -5.200049  -1.071900 -0.148700 -1.915990
55  0.000000 -0.000000 -0.000000  0.000000 -0.000001 -0.000002
56  0.000031 0.000028 0.000001  -1.571902 -0.044449 -0.106509
57  5.661260 -16.060535 -17.872917  1.570796 -0.000000 0.000000
58  -16.319784 5.039393 -18.063972  1.570796 -0.000000 0.000000
59  1.066008 0.876422 -3.770892  1.570796 -0.000000 0.000000
60  -0.004311 0.001230 -0.000371  0.006898 -0.005534 -0.284229
61  0.826810 11.578514 -4.219014  1.570796 -0.000000 0.000000
62  0.000000 0.000000 0.000000  -0.078727 -3.136056 0.284226
63  0.000000 0.000000 0.000000  1.570796 -0.000000 0.000000
64  -2.286028 -7.807436 -1.798094  1.556935 0.029990 0.010597
65  0.085367 -2.603195 0.763119  0.174533 -0.000000 -0.000000
66  0.042352 -1.082367 5.211879  0.000000 -0.000000 0.000000
67  0.048106 -0.032154 -1.710082  0.000000 -0.000000 0.000000
68  0.042346 -1.082868 19.512426  0.000000 -0.000000 -0.000000
69  0.021362 -2.476558 2.118468  0.000000 -0.000000 0.000000
70  0.654292 -1.873716 2.120182  0.000000 -0.000000 -0.000000
71  -0.612738 -1.349160 3.336717  0.000000 -0.000000 -0.000000
72  0.042352 -1.082366 5.622112  0.000000 -0.000000 0.000000
73  -1.181944 -2.300502 17.060879  0.000000 -0.000000 0.000000
74  -2.353959 -12.571151 -5.827899  1.556935 0.029990 0.010597
75  0.188638 2.632941 -1.870136  0.000000 -0.000000 0.000000
76  -0.108895 2.446371 -1.870140  0.000000 -0.000000 0.000000
time 4
0  0.000006 0.000000 0.000000  -1.570800 -1.391899 -1.570792
1  -3.865520 -0.192010 1.061693  -1.544956 -1.855077 -0.198630
2  6.027523 -0.000323 0.000191  -0.902567 -0.925029 -1.356384
3  11.692107 0.000646 -0.000740  -1.152286 -0.000027 -1.518232
4  11.480316 0.000515 -0.000642  1.194661 -0.685608 0.169530
5  3.859503 -0.142824 -1.192079  -0.603309 -0.153254 -1.645038
6  1.312590 0.000009 0.000008  -0.134332 0.005764 -0.149076
7  0.729355 0.000053 0.000049  -0.006921 -0.010127 -0.171925
8  3.942140 0.046330 -0.431543  -0.437576 0.236645 -1.080252
9  1.539110 0.000080 0.000005  -0.023906 -0.071181 -0.773682
10  1.196333 0.000145 0.000027  0.006223 0.004451 -0.725134
11  3.883511 -0.047213 0.431351  -0.279795 0.553082 -0.488973
12  1.719572 -0.000028 0.000018  0.002711 -0.070785 -0.961842
13  1.209179 0.000090 0.000012  -0.010762 -0.006973 -0.762710
14  4.085233 -0.082654 1.151009  0.025499 0.604578 -0.086052
15  1.719448 -0.000019 0.000027  -0.003946 -0.026040 -0.561722
16  1.099675 0.000048 0.000005  -0.052339 0.061959 -1.042030
17  1.059882 -1.545939 0.873877  -0.894241 -0.623407 -0.353559
18  1.789819 -0.000004 -0.000018  -0.000002 -0.009376 0.757285
19  1.207016 -0.000014 -0.000043  0.001023 -0.000035 -0.104167
20  5.740636 0.000389 -0.000700  -0.132613 0.000003 0.000063
21  11.481070 0.000281 -0.000780  -0.053787 -0.121172 -0.003371
22  6.027525 -0.000330 0.000200  1.719938 -0.630805 1.535730
23  -0.000002 11.692098 -0.000007  -1.040255 -0.486082 -0.817044
24  0.000003 0.000009 -0.000000  -0.283187 -0.000031 1.570739
25  -0.000000 -0.000012 -0.000000  0.868960 0.000002 1.570712
26  -6.212011 -10.642979 0.826812  1.473120 1.855075 -0.198639
27  6.027511 -0.000260 -0.000220  1.489787 0.805944 -0.540357
28  11.691993 0.000160 0.000859  0.346040 0.000060 -1.675624
29  11.479023 -0.000736 0.001136  -1.128776 0.638088 0.776160
30  3.859438 -0.132758 1.193066  0.469647 -0.013262 -1.872395
31  1.312559 0.000026 -0.000001  0.024060 -0.138696 -0.550187
32  0.729346 0.000065 -0.000028  -0.166197 -0.081570 -0.714272
33  3.942046 0.050139 0.431000  0.225309 -0.086237 -1.592712
34  1.539097 0.000006 -0.000000  0.035254 -0.050373 -0.994350
35  1.196299 0.000078 -0.000003  -0.021521 0.002175 -0.839738
36  3.883414 -0.050472 -0.431084  0.184824 -0.271737 -1.204030
37  1.719564 -0.000084 -0.000005  0.022859 -0.107186 -1.509108
38  1.209197 0.000035 0.000011  0.000661 0.071072 -0.480462
39  3.859589 -0.149081 -1.331321  -0.113059 -0.126939 -0.401435
40  1.719413 -0.000100 -0.000035  -0.010069 -0.019770 -1.319871
41  1.099673 0.000023 0.000007  -0.058928 0.047625 -0.916935
42  0.805983 -0.359848 -1.318338  0.991670 0.166767 -0.799527
43  1.789780 -0.000009 -0.000043  0.000058 -0.002451 0.133097
44  1.206996 -0.000007 0.000006  0.000372 -0.000071 1.058780
45  5.740573 0.000079 0.000719  0.122379 -0.000014 0.000028
46  11.480749 -0.000073 0.000971  0.041248 0.128055 0.110205
47  6.027515 -0.000273 -0.000229  -0.973394 -0.510282 -1.488602
48  -0.000002 11.691976 -0.000007  -1.132692 0.575948 0.871906
49  0.000004 -0.000001 0.000001  2.618569 -0.000036 1.570860
50  -0.000007 -0.000015 0.000004  2.272645 -0.000036 1.570861
51  -3.215563 -3.822608 -6.984130  -0.095300 -2.979125 1.377968
52  0.000000 0.000001 -0.000000  0.008153 -0.000259 0.000009
53  0.000000 0.000000 0.000000  1.565115 0.043565 -0.106862
54  -0.364475 -14.340099 -5.254825  -1.077827 -0.140782 -1.921990
55  -0.000001 0.000001 0.000000  0.000000 -0.000001 -0.000002
56  0.000029 0.000029 0.000001  -1.571902 -0.044449 -0.106509
57  5.661260 -16.060535 -17.872917  1.570796 -0.000000 0.000000
58  -16.319784 5.039393 -18.063972  1.570796 -0.000000 0.000000
59  1.066008 0.876422 -3.770892  1.570796 -0.000000 0.000000
60  -0.004311 0.001230 -0.000371  0.006898 -0.005534 -0.284229
61  0.826810 11.578514 -4.219014  1.570796 -0.000000 0.000000
62  0.000000 0.000000 0.000000  -0.078727 -3.136056 0.284226
63  0.000000 0.000000 0.000000  1.570796 -0.000000 0.000000
64  -2.305683 -8.030476 -1.787659  1.566404 0.032732 0.004039
65  0.085367 -2.603195 0.763120  0.174533 -0.000000 0.000000
66  0.042352 -1.082367 5.211881  -0.000000 0.000000 0.000000
67  0.048106 -0.032153 -1.710081  -0.000000 0.000000 0.000000
68  0.042346 -1.082868 19.512426  -0.000000 0.000000 0.000000
69  0.021362 -2.476557 2.118467  -0.000000 0.000000 0.000000
70  0.654292 -1.873716 2.120182  -0.000000 0.000000 0.000000
71  -0.612739 -1.349160 3.336718  -0.000000 0.000000 0.000000
72  0.042352 -1.082366 5.622110  -0.000000 0.000000 0.000000
73  -1.181944 -2.300502 17.060879  -0.000000 0.000000 0.000000
74  -2.417530 -12.755305 -5.862017  1.566404 0.032732 0.004039
75  0.188638 2.632941 -1.870134  -0.000000 0.000000 0.000000
76  -0.108895 2.446372 -1.870139  -0.000000 0.000000 0.000000
time 5
0  0.000006 0.000000 0.000000  -1.570800 -1.391899 -1.570792
1  -3.865520 -0.192010 1.061693  -1.544956 -1.855077 -0.198630
2  6.027524 -0.000323 0.000191  -0.898047 -0.928619 -1.361069
3  11.692108 0.000645 -0.000739  -1.152285 -0.000025 -1.497860
4  11.480483 0.000558 -0.000547  1.182631 -0.674119 0.169258
5  3.859504 -0.142822 -1.192080  -0.603309 -0.153254 -1.645038
6  1.312589 0.000009 0.000007  -0.134332 0.005764 -0.149076
7  0.729356 0.000054 0.000047  -0.006921 -0.010127 -0.171925
8  3.942142 0.046332 -0.431543  -0.437576 0.236645 -1.080252
9  1.539111 0.000081 0.000003  -0.023906 -0.071181 -0.773682
10  1.196333 0.000145 0.000028  0.006223 0.004451 -0.725134
11  3.883512 -0.047211 0.431351  -0.279795 0.553082 -0.488973
12  1.719573 -0.000029 0.000016  0.002711 -0.070785 -0.961842
13  1.209179 0.000090 0.000013  -0.010762 -0.006973 -0.762710
14  4.085236 -0.082652 1.151009  0.025499 0.604578 -0.086052
15  1.719449 -0.000017 0.000030  -0.003946 -0.026040 -0.561722
16  1.099674 0.000047 0.000005  -0.052339 0.061959 -1.042030
17  1.059882 -1.545938 0.873876  -0.894241 -0.623407 -0.353559
18  1.789820 -0.000004 -0.000018  -0.000002 -0.009376 0.757285
19  1.207016 -0.000013 -0.000043  0.001023 -0.000035 -0.104167
20  5.740636 0.000388 -0.000700  -0.131816 0.000003 0.000063
21  11.481104 0.000289 -0.000760  -0.056399 -0.119092 -0.003819
22  6.027525 -0.000330 0.000200  1.715599 -0.627984 1.537213
23  -0.000000 11.692098 -0.000007  -1.028201 -0.474779 -0.809463
24  0.000002 0.000008 0.000001  -0.283187 -0.000031 1.570739
25  -0.000000 -0.000012 0.000000  0.868960 0.000002 1.570712
26  -6.212011 -10.642979 0.826812  1.473120 1.855075 -0.198639
27  6.027511 -0.000260 -0.000220  1.493440 0.814102 -0.539439
28  11.691992 0.000160 0.000859  0.346040 0.000059 -1.660513
29  11.479121 -0.000691 0.001122  -1.134122 0.631419 0.778972
30  3.859437 -0.132758 1.193065  0.469647 -0.013262 -1.872395
31  1.312559 0.000027 -0.000001  0.024060 -0.138696 -0.550187
32  0.729345 0.000064 -0.000027  -0.166197 -0.081570 -0.714272
33  3.942047 0.050139 0.431000  0.225309 -0.086237 -1.592712
34  1.539096 0.000005 -0.000001  0.035254 -0.050373 -0.994350
35  1.196301 0.000077 -0.000004  -0.021521 0.002175 -0.839738
36  3.883414 -0.050472 -0.431085  0.184824 -0.271737 -1.204030
37  1.719564 -0.000084 -0.000005  0.022859 -0.107186 -1.509108
38  1.209197 0.000035 0.000011  0.000661 0.071072 -0.480462
39  3.859588 -0.149081 -1.331321  -0.113063 -0.118657 -0.380026
40  1.719412 -0.000100 -0.000035  -0.011540 -0.016584 -1.206548
41  1.099673 0.000021 0.000006  -0.054068 0.053868 -0.797051
42  0.805983 -0.359847 -1.318338  0.991670 0.166767 -0.799527
43  1.789780 -0.000008 -0.000042  0.000058 -0.002451 0.133097
44  1.206997 -0.000007 0.000006  0.000372 -0.000071 1.058780
45  5.740574 0.000079 0.000720  0.120922 -0.000014 0.000028
46  11.480769 -0.000065 0.000969  0.040732 0.126599 0.111484
47  6.027515 -0.000273 -0.000229  -0.979294 -0.503478 -1.487466
48  -0.000002 11.691975 -0.000006  -1.123839 0.567132 0.866939
49  0.000004 -0.000000 -0.000000  2.618569 -0.000036 1.570860
50  -0.000008 -0.000014 0.000005  2.272645 -0.000036 1.570861
51  -3.226337 -3.956931 -6.951582  -0.103300 -2.987241 1.375456
52  -0.000000 0.000000 -0.000000  0.008153 -0.000259 0.000009
53  -0.000000 0.000000 -0.000000  1.565115 0.043565 -0.106862
54  -0.404655 -14.500977 -5.339735  -1.086994 -0.134014 -1.924509
55  0.000000 0.000000 -0.000000  0.000000 -0.000001 -0.000002
56  0.000030 0.000029 0.000001  -1.571902 -0.044449 -0.106509
57  5.661260 -16.060535 -17.872917  1.570796 -0.000000 0.000000
58  -16.319784 5.039393 -18.063972  1.570796 -0.000000 0.000000
59  1.066008 0.876422 -3.770892  1.570796 -0.000000 0.000000
60  -0.004311 0.001230 -0.000371  0.006898 -0.005534 -0.284229
61  0.826810 11.578514 -4.219014  1.570796 -0.000000 0.000000
62  0.000000 0.000000 0.000000  -0.078727 -3.136056 0.284226
63  0.000000 0.000000 0.000000  1.570796 -0.000000 0.000000
64  -2.300430 -8.217346 -1.800960  1.575911 0.038896 0.000606
65  0.085367 -2.603194 0.763120  0.087266 -0.000000 -0.000000
66  0.042352 -1.082366 5.211880  0.000000 0.000000 -0.000000
67  0.048106 -0.032154 -1.710082  0.000000 0.000000 -0.000000
68  0.042346 -1.082868 19.512424  0.000000 -0.000000 -0.000000
69  0.021362 -2.476557 2.118468  0.000000 0.000000 -0.000000
70  0.654292 -1.873716 2.120183  0.000000 -0.000000 -0.000000
71  -0.612738 -1.349160 3.336717  0.000000 -0.000000 -0.000000
72  0.042352 -1.082366 5.622112  0.000000 0.000000 -0.000000
73  -1.181944 -2.300502 17.060877  0.000000 0.000000 -0.000000
74  -2.455373 -12.902808 -5.919133  1.575911 0.038896 0.000606
75  0.188638 2.632941 -1.870135  0.000000 0.000000 -0.000000
76  -0.108895 2.446371 -1.870138  0.000000 0.000000 -0.000000
time 6
0  0.000006 0.000000 0.000000  -1.570800 -1.391899 -1.570792
1  -3.865520 -0.192010 1.061693  -1.544956 -1.855077 -0.198630
2  6.027524 -0.000323 0.000191  -0.897800 -0.928077 -1.360296
3  11.692107 0.000645 -0.000740  -1.152285 -0.000025 -1.490739
4  11.480542 0.000574 -0.000512  1.176725 -0.670223 0.164692
5  3.859503 -0.142823 -1.192080  -0.603309 -0.153254 -1.645038
6  1.312590 0.000008 0.000007  -0.134332 0.005764 -0.149076
7  0.729355 0.000052 0.000049  -0.006921 -0.010127 -0.171925
8  3.942141 0.046331 -0.431543  -0.437576 0.236645 -1.080252
9  1.539110 0.000082 0.000004  -0.023906 -0.071181 -0.773682
10  1.196332 0.000147 0.000030  0.006223 0.004451 -0.725134
11  3.883511 -0.047212 0.431350  -0.279795 0.553082 -0.488973
12  1.719573 -0.000028 0.000018  0.002711 -0.070786 -0.961842
13  1.209180 0.000091 0.000013  -0.010762 -0.006973 -0.762710
14  4.085233 -0.082653 1.151008  0.025499 0.604578 -0.086051
15  1.719449 -0.000018 0.000028  -0.003946 -0.026040 -0.561722
16  1.099674 0.000049 0.000007  -0.052339 0.061959 -1.042030
17  1.059882 -1.545939 0.873875  -0.894241 -0.623407 -0.353559
18  1.789817 -0.000003 -0.000018  -0.000002 -0.009376 0.757285
19  1.207017 -0.000013 -0.000043  0.001023 -0.000035 -0.104167
20  5.740635 0.000388 -0.000700  -0.132194 0.000003 0.000063
21  11.481114 0.000292 -0.000756  -0.057837 -0.118302 -0.004942
22  6.027525 -0.000330 0.000200  1.715583 -0.628547 1.538194
23  -0.000001 11.692099 -0.000007  -1.023980 -0.470847 -0.806788
24  0.000004 0.000009 -0.000001  -0.283187 -0.000031 1.570739
25  0.000000 -0.000012 0.000001  0.868960 0.000002 1.570712
26  -6.212011 -10.642979 0.826812  1.473120 1.855075 -0.198639
27  6.027511 -0.000260 -0.000220  1.495196 0.815777 -0.538806
28  11.691992 0.000159 0.000858  0.346040 0.000059 -1.654184
29  11.479160 -0.000671 0.001115  -1.141423 0.625582 0.775882
30  3.859437 -0.132759 1.193065  0.469647 -0.013262 -1.872395
31  1.312559 0.000027 -0.000001  0.024060 -0.138696 -0.550187
32  0.729346 0.000064 -0.000027  -0.166197 -0.081570 -0.714273
33  3.942046 0.050138 0.431000  0.225309 -0.086237 -1.592712
34  1.539097 0.000006 -0.000001  0.035254 -0.050373 -0.994350
35  1.196300 0.000078 -0.000003  -0.021521 0.002175 -0.839738
36  3.883413 -0.050473 -0.431084  0.184824 -0.271737 -1.204030
37  1.719564 -0.000085 -0.000005  0.022859 -0.107186 -1.509108
38  1.209197 0.000035 0.000012  0.000661 0.071072 -0.480462
39  3.859588 -0.149081 -1.331321  -0.111818 -0.106500 -0.356259
40  1.719412 -0.000099 -0.000035  -0.012582 -0.011185 -1.093244
41  1.099673 0.000023 0.000007  -0.044887 0.060279 -0.677004
42  0.805983 -0.359848 -1.318338  0.991670 0.166767 -0.799527
43  1.789780 -0.000008 -0.000042  0.000058 -0.002451 0.133097
44  1.206996 -0.000007 0.000006  0.000372 -0.000071 1.058780
45  5.740572 0.000079 0.000721  0.119206 -0.000014 0.000028
46  11.480775 -0.000060 0.000968  0.040088 0.125047 0.111721
47  6.027515 -0.000273 -0.000229  -0.980046 -0.501523 -1.487748
48  -0.000002 11.691976 -0.000007  -1.120130 0.563451 0.864839
49  0.000003 -0.000001 -0.000000  2.618569 -0.000036 1.570860
50  -0.000007 -0.000013 0.000005  2.272645 -0.000036 1.570861
51  -3.251149 -4.013892 -6.956372  -0.110280 -2.990333 1.377609
52  0.000000 -0.000000 0.000000  0.008153 -0.000259 0.000009
53  -0.000000 -0.000000 0.000000  1.565115 0.043565 -0.106862
54  -0.408221 -14.561749 -5.408045  -1.094360 -0.132049 -1.922442
55  0.000001 -0.000000 -0.000000  0.000000 -0.000001 -0.000002
56  0.000031 0.000028 0.000001  -1.571902 -0.044449 -0.106509
57  5.661260 -16.060535 -17.872917  1.570796 -0.000000 0.000000
58  -16.319784 5.039393 -18.063972  1.570796 -0.000000 0.000000
59  1.066008 0.876422 -3.770892  1.570796 -0.000000 0.000000
60  -0.004311 0.001230 -0.000371  0.006898 -0.005534 -0.284229
61  0.826810 11.578514 -4.219014  1.570796 -0.000000 0.000000
62  0.000000 0.000000 0.000000  -0.078727 -3.136056 0.284226
63  0.000000 0.000000 0.000000  1.570796 -0.000000 0.000000
64  -2.288872 -8.295711 -1.830224  1.580288 0.045063 0.001879
65  0.085367 -2.603195 0.763119  -0.000000 0.000000 0.000000
66  0.042352 -1.082367 5.211879  -0.000000 0.000000 0.000000
67  0.048105 -0.032154 -1.710083  -0.000000 0.000000 0.000000
68  0.042346 -1.082868 19.512426  -0.000000 -0.000000 -0.000000
69  0.021361 -2.476557 2.118467  -0.000000 0.000000 0.000000
70  0.654292 -1.873716 2.120182  -0.000000 -0.000000 -0.000000
71  -0.612739 -1.349160 3.336716  -0.000000 -0.000000 -0.000000
72  0.042352 -1.082366 5.622109  -0.000000 0.000000 0.000000
73  -1.181944 -2.300501 17.060875  -0.000000 0.000000 0.000000
74  -2.464197 -12.963331 -5.967793  1.580288 0.045063 0.001879
75  0.188638 2.632941 -1.870134  -0.000000 0.000000 0.000000
76  -0.108895 2.446371 -1.870139  -0.000000 0.000000 0.000000
time 7
0  0.000006 0.000000 0.000000  -1.570800 -1.391899 -1.570792
1  -3.865520 -0.192010 1.061693  -1.544956 -1.855077 -0.198630
2  6.027523 -0.000323 0.000191  -0.900065 -0.925305 -1.356592
3  11.692107 0.000646 -0.000740  -1.152285 -0.000025 -1.494803
4  11.480506 0.000565 -0.000532  1.177325 -0.671816 0.160064
5  3.859503 -0.142824 -1.192079  -0.603309 -0.153254 -1.645038
6  1.312589 0.000010 0.000006  -0.134332 0.005764 -0.149076
7  0.729355 0.000053 0.000050  -0.006921 -0.010127 -0.171925
8  3.942139 0.046331 -0.431543  -0.437576 0.236645 -1.080252
9  1.539110 0.000082 0.000003  -0.023906 -0.071181 -0.773682
10  1.196332 0.000145 0.000028  0.006223 0.004451 -0.725134
11  3.883510 -0.047212 0.431351  -0.279795 0.553082 -0.488973
12  1.719573 -0.000027 0.000018  0.002711 -0.070785 -0.961842
13  1.209179 0.000090 0.000013  -0.010762 -0.006973 -0.762710
14  4.085233 -0.082654 1.151009  0.025499 0.604578 -0.086051
15  1.719449 -0.000018 0.000030  -0.003946 -0.026040 -0.561722
16  1.099675 0.000047 0.000005  -0.052339 0.061959 -1.042030
17  1.059882 -1.545939 0.873876  -0.894241 -0.623407 -0.353559
18  1.789819 -0.000003 -0.000018  -0.000002 -0.009376 0.757285
19  1.207016 -0.000013 -0.000043  0.001023 -0.000035 -0.104167
20  5.740636 0.000388 -0.000699  -0.132873 0.000003 0.000063
21  11.481108 0.000290 -0.000758  -0.057895 -0.118490 -0.005843
22  6.027525 -0.000330 0.000200  1.718047 -0.630906 1.538635
23  -0.000001 11.692098 -0.000007  -1.026389 -0.473090 -0.808316
24  0.000003 0.000009 -0.000002  -0.283187 -0.000031 1.570738
25  0.000000 -0.000012 -0.000000  0.868960 0.000002 1.570712
26  -6.212011 -10.642979 0.826812  1.473120 1.855075 -0.198639
27  6.027511 -0.000260 -0.000220  1.494071 0.812782 -0.539065
28  11.691994 0.000160 0.000859  0.346040 0.000059 -1.656171
29  11.479149 -0.000679 0.001116  -1.145620 0.624594 0.771049
30  3.859437 -0.132758 1.193066  0.469647 -0.013262 -1.872395
31  1.312559 0.000026 -0.000001  0.024060 -0.138696 -0.550187
32  0.729346 0.000064 -0.000027  -0.166197 -0.081570 -0.714272
33  3.942047 0.050139 0.431000  0.225309 -0.086237 -1.592712
34  1.539097 0.000005 -0.000001  0.035254 -0.050373 -0.994350
35  1.196301 0.000078 -0.000003  -0.021521 0.002175 -0.839738
36  3.883413 -0.050472 -0.431084  0.184824 -0.271737 -1.204030
37  1.719564 -0.000084 -0.000004  0.022858 -0.107186 -1.509108
38  1.209197 0.000036 0.000011  0.000661 0.071072 -0.480462
39  3.859588 -0.149081 -1.331321  -0.108878 -0.098349 -0.353800
40  1.719413 -0.000099 -0.000036  -0.012253 -0.007212 -1.127905
41  1.099673 0.000025 0.000007  -0.032751 0.044149 -0.701940
42  0.805983 -0.359847 -1.318338  0.991670 0.166767 -0.799527
43  1.789779 -0.000008 -0.000042  0.000058 -0.002451 0.133098
44  1.206996 -0.000006 0.000005  0.000372 -0.000071 1.058780
45  5.740573 0.000078 0.000720  0.118193 -0.000014 0.000028
46  11.480773 -0.000062 0.000968  0.039665 0.124520 0.111143
47  6.027515 -0.000273 -0.000229  -0.977781 -0.503896 -1.488280
48  -0.000003 11.691977 -0.000008  -1.121295 0.564606 0.865500
49  0.000003 0.000000 0.000001  2.618569 -0.000036 1.570860
50  -0.000008 -0.000013 0.000005  2.272645 -0.000036 1.570861
51  -3.264987 -3.996148 -6.987860  -0.112831 -2.988666 1.380584
52  0.000000 -0.000000 0.000000  0.008153 -0.000259 0.000009
53  0.000000 0.000000 -0.000000  1.565115 0.043565 -0.106862
54  -0.390432 -14.534812 -5.435323  -1.096606 -0.134094 -1.919555
55  -0.000001 -0.000000 -0.000001  0.000000 -0.000001 -0.000002
56  0.000029 0.000029 0.000000  -1.571901 -0.044449 -0.106509
57  5.661260 -16.060535 -17.872917  1.570796 -0.000000 0.000000
58  -16.319784 5.039393 -18.063972  1.570796 -0.000000 0.000000
59  1.066008 0.876422 -3.770892  1.570796 -0.000000 0.000000
60  -0.004311 0.001230 -0.000371  0.006898 -0.005534 -0.284229
61  0.826810 11.578514 -4.219014  1.570796 -0.000000 0.000000
62  0.000000 0.000000 0.000000  -0.078727 -3.136056 0.284226
63  0.000000 0.000000 0.000000  1.570796 -0.000000 0.000000
64  -2.277315 -8.269511 -1.859487  1.579139 0.047860 0.004415
65  0.085367 -2.603195 0.763120  0.000000 -0.000000 -0.000000
66  0.042352 -1.082367 5.211879  0.000000 -0.000000 -0.000000
67  0.048105 -0.032154 -1.710082  0.000000 -0.000000 -0.000000
68  0.042346 -1.082868 19.512426  0.000000 -0.000000 -0.000000
69  0.021362 -2.476558 2.118467  0.000000 -0.000000 -0.000000
70  0.654292 -1.873716 2.120182  0.000000 -0.000000 -0.000000
71  -0.612739 -1.349160 3.336717  0.000000 -0.000000 -0.000000
72  0.042352 -1.082366 5.622111  0.000000 -0.000000 -0.000000
73  -1.181945 -2.300502 17.060879  0.000000 -0.000000 -0.000000
74  -2.452097 -12.942369 -5.991165  1.579139 0.047860 0.004415
75  0.188638 2.632941 -1.870135  0.000000 -0.000000 -0.000000
76  -0.108895 2.446371 -1.870140  0.000000 -0.000000 -0.000000
time 8
0  0.000006 0.000000 0.000000  -1.570800 -1.391899 -1.570792
1  -3.865520 -0.192010 1.061693  -1.544956 -1.855077 -0.198630
2  6.027523 -0.000323 0.000191  -0.903365 -0.922975 -1.353571
3  11.692107 0.000647 -0.000740  -1.152285 -0.000026 -1.501318
4  11.480453 0.000552 -0.000563  1.182280 -0.675071 0.158825
5  3.859504 -0.142823 -1.192079  -0.603309 -0.153254 -1.645038
6  1.312589 0.000010 0.000007  -0.134332 0.005764 -0.149076
7  0.729355 0.000053 0.000049  -0.006921 -0.010127 -0.171925
8  3.942141 0.046331 -0.431542  -0.437576 0.236645 -1.080252
9  1.539111 0.000083 0.000004  -0.023906 -0.071181 -0.773682
10  1.196333 0.000145 0.000027  0.006223 0.004451 -0.725134
11  3.883512 -0.047212 0.431351  -0.279795 0.553082 -0.488973
12  1.719573 -0.000028 0.000019  0.002711 -0.070785 -0.961842
13  1.209179 0.000090 0.000013  -0.010762 -0.006973 -0.762710
14  4.085234 -0.082654 1.151009  0.025499 0.604578 -0.086052
15  1.719447 -0.000018 0.000028  -0.003946 -0.026040 -0.561722
16  1.099675 0.000048 0.000006  -0.052339 0.061959 -1.042030
17  1.059882 -1.545940 0.873876  -0.894241 -0.623407 -0.353559
18  1.789820 -0.000004 -0.000018  -0.000002 -0.009376 0.757285
19  1.207018 -0.000013 -0.000043  0.001023 -0.000035 -0.104167
20  5.740635 0.000389 -0.000699  -0.132801 0.000003 0.000063
21  11.481098 0.000288 -0.000765  -0.056936 -0.119028 -0.005866
22  6.027525 -0.000330 0.000200  1.721146 -0.632676 1.537192
23  -0.000001 11.692099 -0.000007  -1.030249 -0.476692 -0.810758
24  0.000003 0.000010 -0.000001  -0.283187 -0.000030 1.570738
25  0.000000 -0.000012 -0.000000  0.868960 0.000002 1.570712
26  -6.212011 -10.642979 0.826812  1.473120 1.855075 -0.198639
27  6.027511 -0.000260 -0.000220  1.491932 0.810095 -0.539775
28  11.691992 0.000160 0.000859  0.346040 0.000059 -1.659563
29  11.479127 -0.000687 0.001121  -1.144435 0.625720 0.767706
30  3.859437 -0.132758 1.193065  0.469647 -0.013262 -1.872395
31  1.312559 0.000026 -0.000001  0.024060 -0.138696 -0.550187
32  0.729346 0.000065 -0.000028  -0.166197 -0.081570 -0.714273
33  3.942046 0.050139 0.431000  0.225309 -0.086237 -1.592712
34  1.539096 0.000005 -0.000001  0.035254 -0.050373 -0.994350
35  1.196300 0.000077 -0.000004  -0.021521 0.002175 -0.839738
36  3.883414 -0.050472 -0.431085  0.184824 -0.271737 -1.204030
37  1.719564 -0.000084 -0.000005  0.022859 -0.107186 -1.509108
38  1.209197 0.000035 0.000011  0.000661 0.071072 -0.480462
39  3.859588 -0.149082 -1.331321  -0.105152 -0.090085 -0.354159
40  1.719412 -0.000098 -0.000036  -0.011884 -0.003584 -1.202103
41  1.099674 0.000024 0.000007  -0.013915 0.008453 -0.755994
42  0.805983 -0.359848 -1.318339  0.991670 0.166767 -0.799527
43  1.789779 -0.000009 -0.000042  0.000058 -0.002451 0.133098
44  1.206997 -0.000006 0.000006  0.000372 -0.000071 1.058780
45  5.740572 0.000080 0.000721  0.118296 -0.000014 0.000028
46  11.480769 -0.000063 0.000970  0.039943 0.124721 0.110364
47  6.027515 -0.000273 -0.000229  -0.976265 -0.506658 -1.488172
48  -0.000002 11.691976 -0.000007  -1.123282 0.566579 0.866624
49  0.000003 -0.000000 -0.000000  2.618569 -0.000036 1.570860
50  -0.000008 -0.000015 0.000005  2.272645 -0.000036 1.570861
51  -3.261139 -3.964578 -7.015079  -0.110411 -2.986247 1.382823
52  -0.000000 -0.000000 0.000000  0.008153 -0.000259 0.000009
53  -0.000000 -0.000000 -0.000001  1.565115 0.043565 -0.106862
54  -0.362068 -14.491270 -5.427324  -1.093838 -0.136104 -1.917318
55  -0.000000 -0.000000 -0.000000  0.000000 -0.000001 -0.000002
56  0.000030 0.000029 0.000001  -1.571901 -0.044449 -0.106509
57  5.661260 -16.060535 -17.872917  1.570796 -0.000000 0.000000
58  -16.319784 5.039393 -18.063972  1.570796 -0.000000 0.000000
59  1.066008 0.876422 -3.770892  1.570796 -0.000000 0.000000
60  -0.004311 0.001230 -0.000371  0.006898 -0.005534 -0.284229
61  0.826810 11.578514 -4.219014  1.570796 -0.000000 0.000000
62  0.000000 0.000000 0.000000  -0.078727 -3.136056 0.284226
63  0.000000 0.000000 0.000000  1.570796 -0.000000 0.000000
64  -2.272061 -8.220856 -1.872788  1.576301 0.045982 0.006891
65  0.085367 -2.603195 0.763120  0.000000 0.000000 -0.000000
66  0.042351 -1.082367 5.211880  0.000000 0.000000 -0.000000
67  0.048106 -0.032154 -1.710083  0.000000 0.000000 -0.000000
68  0.042346 -1.082868 19.512423  0.000000 0.000000 -0.000000
69  0.021361 -2.476557 2.118468  0.000000 0.000000 -0.000000
70  0.654292 -1.873716 2.120183  0.000000 0.000000 -0.000000
71  -0.612739 -1.349160 3.336716  0.000000 0.000000 -0.000000
72  0.042352 -1.082366 5.622109  0.000000 0.000000 -0.000000
73  -1.181944 -2.300502 17.060875  0.000000 0.000000 -0.000000
74  -2.426820 -12.905796 -5.991562  1.576301 0.045982 0.006891
75  0.188638 2.632940 -1.870135  0.000000 0.000000 -0.000000
76  -0.108895 2.446370 -1.870137  0.000000 0.000000 -0.000000
time 9
0  0.000006 0.000000 0.000000  -1.570800 -1.391899 -1.570792
1  -3.865520 -0.192010 1.061693  -1.544956 -1.855077 -0.198630
2  6.027523 -0.000323 0.000191  -0.905377 -0.922908 -1.353583
3  11.692106 0.000645 -0.000740  -1.152286 -0.000026 -1.504209
4  11.480429 0.000545 -0.000576  1.188697 -0.676089 0.159709
5  3.859504 -0.142822 -1.192079  -0.603309 -0.153254 -1.645038
6  1.312589 0.000009 0.000007  -0.134332 0.005764 -0.149076
7  0.729355 0.000055 0.000048  -0.006921 -0.010127 -0.171925
8  3.942142 0.046333 -0.431542  -0.437576 0.236645 -1.080252
9  1.539110 0.000083 0.000002  -0.023906 -0.071181 -0.773682
10  1.196334 0.000144 0.000028  0.006223 0.004451 -0.725134
11  3.883511 -0.047211 0.431351  -0.279795 0.553082 -0.488974
12  1.719573 -0.000028 0.000018  0.002711 -0.070786 -0.961842
13  1.209179 0.000092 0.000015  -0.010762 -0.006973 -0.762710
14  4.085234 -0.082652 1.151009  0.025499 0.604578 -0.086052
15  1.719447 -0.000019 0.000028  -0.003946 -0.026040 -0.561722
16  1.099674 0.000047 0.000004  -0.052339 0.061959 -1.042030
17  1.059883 -1.545938 0.873876  -0.894241 -0.623407 -0.353559
18  1.789819 -0.000003 -0.000018  -0.000002 -0.009376 0.757285
19  1.207016 -0.000013 -0.000044  0.001023 -0.000035 -0.104167
20  5.740637 0.000388 -0.000699  -0.131848 0.000003 0.000064
21  11.481092 0.000285 -0.000767  -0.055684 -0.119160 -0.005303
22  6.027525 -0.000330 0.000200  1.722624 -0.632437 1.534703
23  -0.000001 11.692099 -0.000007  -1.031960 -0.478293 -0.811837
24  0.000003 0.000007 0.000000  -0.283187 -0.000030 1.570739
25  0.000000 -0.000011 -0.000000  0.868960 0.000002 1.570712
26  -6.212011 -10.642979 0.826812  1.473120 1.855075 -0.198639
27  6.027511 -0.000260 -0.000220  1.489982 0.809605 -0.540571
28  11.691993 0.000160 0.000857  0.346040 0.000059 -1.660120
29  11.479126 -0.000691 0.001121  -1.140915 0.628013 0.764593
30  3.859438 -0.132758 1.193065  0.469647 -0.013262 -1.872395
31  1.312559 0.000028 -0.000001  0.024060 -0.138696 -0.550187
32  0.729346 0.000065 -0.000027  -0.166197 -0.081570 -0.714272
33  3.942046 0.050139 0.431000  0.225309 -0.086237 -1.592712
34  1.539096 0.000006 0.000000  0.035254 -0.050373 -0.994350
35  1.196300 0.000079 -0.000004  -0.021521 0.002175 -0.839738
36  3.883413 -0.050472 -0.431084  0.184824 -0.271737 -1.204030
37  1.719563 -0.000084 -0.000004  0.022859 -0.107186 -1.509108
38  1.209197 0.000036 0.000011  0.000661 0.071072 -0.480462
39  3.859588 -0.149082 -1.331321  -0.103630 -0.086987 -0.354791
40  1.719412 -0.000098 -0.000036  -0.011786 -0.002292 -1.236752
41  1.099674 0.000023 0.000007  -0.005167 -0.008051 -0.781464
42  0.805983 -0.359848 -1.318338  0.991670 0.166767 -0.799527
43  1.789780 -0.000008 -0.000042  0.000058 -0.002451 0.133097
44  1.206997 -0.000007 0.000005  0.000372 -0.000071 1.058780
45  5.740574 0.000078 0.000722  0.118791 -0.000013 0.000028
46  11.480770 -0.000065 0.000970  0.040527 0.125273 0.109405
47  6.027515 -0.000273 -0.000229  -0.976708 -0.508036 -1.487341
48  -0.000002 11.691978 -0.000006  -1.123609 0.566903 0.866809
49  0.000003 -0.000000 -0.000000  2.618569 -0.000036 1.570860
50  -0.000007 -0.000013 0.000005  2.272645 -0.000036 1.570861
51  -3.248429 -3.957142 -7.032262  -0.105645 -2.983672 1.383306
52  0.000000 -0.000000 -0.000000  0.008153 -0.000259 0.000009
53  -0.000000 -0.000000 0.000000  1.565115 0.043565 -0.106862
54  -0.343130 -14.474780 -5.396613  -1.088735 -0.137904 -1.916788
55  -0.000001 -0.000001 -0.000001  0.000000 -0.000001 -0.000002
56  0.000030 0.000029 0.000000  -1.571902 -0.044449 -0.106509
57  5.661260 -16.060535 -17.872917  1.570796 -0.000000 0.000000
58  -16.319784 5.039393 -18.063972  1.570796 -0.000000 0.000000
59  1.066008 0.876422 -3.770892  1.570796 -0.000000 0.000000
60  -0.004311 0.001230 -0.000371  0.006898 -0.005534 -0.284229
61  0.826810 11.578514 -4.219014  1.570796 -0.000000 0.000000
62  0.000000 0.000000 0.000000  -0.078727 -3.136056 0.284226
63  0.000000 0.000000 0.000000  1.570796 -0.000000 0.000000
64  -2.275493 -8.194656 -1.871429  1.572858 0.041863 0.007967
65  0.085367 -2.603195 0.763118  -0.000000 -0.000000 0.000000
66  0.042352 -1.082367 5.211877  -0.000000 -0.000000 0.000000
67  0.048106 -0.032154 -1.710083  -0.000000 -0.000000 0.000000
68  0.042346 -1.082868 19.512424  -0.000000 -0.000000 -0.000000
69  0.021361 -2.476558 2.118465  -0.000000 -0.000000 0.000000
70  0.654292 -1.873716 2.120180  -0.000000 -0.000000 -0.000000
71  -0.612739 -1.349160 3.336715  -0.000000 -0.000000 -0.000000
72  0.042352 -1.082366 5.622108  -0.000000 -0.000000 0.000000
73  -1.181944 -2.300501 17.060875  -0.000000 -0.000000 0.000000
74  -2.407455 -12.893785 -5.974804  1.572858 0.041863 0.007967
75  0.188637 2.632941 -1.870134  -0.000000 -0.000000 0.000000
76  -0.108895 2.446372 -1.870138  -0.000000 -0.000000 0.000000
time 10
0  0.000006 0.000000 0.000000  -1.570800 -1.391899 -1.570792
1  -3.865520 -0.192010 1.061693  -1.544956 -1.855077 -0.198630
2  6.027523 -0.000323 0.000191  -0.905859 -0.924609 -1.355902
3  11.692107 0.000647 -0.000740  -1.152286 -0.000026 -1.502141
4  11.480447 0.000550 -0.000565  1.194338 -0.673889 0.160983
5  3.859504 -0.142822 -1.192080  -0.603309 -0.153254 -1.645038
6  1.312589 0.000009 0.000009  -0.134332 0.005764 -0.149076
7  0.729354 0.000054 0.000049  -0.006921 -0.010127 -0.171925
8  3.942142 0.046332 -0.431543  -0.437576 0.236645 -1.080252
9  1.539110 0.000083 0.000002  -0.023906 -0.071181 -0.773682
10  1.196332 0.000145 0.000029  0.006223 0.004451 -0.725134
11  3.883511 -0.047211 0.431350  -0.279795 0.553082 -0.488973
12  1.719573 -0.000029 0.000017  0.002711 -0.070786 -0.961842
13  1.209179 0.000090 0.000014  -0.010762 -0.006973 -0.762710
14  4.085235 -0.082652 1.151008  0.025499 0.604578 -0.086052
15  1.719448 -0.000019 0.000028  -0.003946 -0.026040 -0.561722
16  1.099675 0.000048 0.000005  -0.052339 0.061959 -1.042030
17  1.059883 -1.545938 0.873875  -0.894241 -0.623407 -0.353559
18  1.789819 -0.000003 -0.000018  -0.000002 -0.009376 0.757285
19  1.207017 -0.000014 -0.000044  0.001023 -0.000035 -0.104167
20  5.740635 0.000389 -0.000699  -0.130313 0.000003 0.000063
21  11.481096 0.000287 -0.000765  -0.054666 -0.118681 -0.004602
22  6.027525 -0.000330 0.000200  1.722444 -0.630718 1.532104
23  -0.000002 11.692098 -0.000006  -1.030736 -0.477148 -0.811065
24  0.000003 0.000008 0.000000  -0.283187 -0.000031 1.570738
25  0.000000 -0.000012 0.000001  0.868960 0.000002 1.570712
26  -6.212011 -10.642979 0.826812  1.473120 1.855075 -0.198639
27  6.027511 -0.000260 -0.000220  1.488428 0.811190 -0.541368
28  11.691992 0.000159 0.000858  0.346040 0.000059 -1.656876
29  11.479144 -0.000679 0.001117  -1.137539 0.630335 0.760967
30  3.859438 -0.132759 1.193066  0.469647 -0.013262 -1.872395
31  1.312560 0.000025 -0.000001  0.024060 -0.138696 -0.550187
32  0.729345 0.000066 -0.000027  -0.166197 -0.081570 -0.714272
33  3.942046 0.050138 0.431000  0.225309 -0.086237 -1.592712
34  1.539097 0.000005 -0.000001  0.035254 -0.050373 -0.994350
35  1.196300 0.000078 -0.000003  -0.021521 0.002175 -0.839738
36  3.883413 -0.050472 -0.431083  0.184824 -0.271737 -1.204030
37  1.719564 -0.000085 -0.000004  0.022858 -0.107186 -1.509108
38  1.209198 0.000035 0.000012  0.000661 0.071072 -0.480462
39  3.859588 -0.149082 -1.331321  -0.103630 -0.086987 -0.354791
40  1.719412 -0.000098 -0.000036  -0.011786 -0.002292 -1.236752
41  1.099674 0.000024 0.000007  -0.005167 -0.008051 -0.781464
42  0.805983 -0.359848 -1.318338  0.991670 0.166767 -0.799527
43  1.789780 -0.000009 -0.000042  0.000058 -0.002451 0.133097
44  1.206997 -0.000007 0.000006  0.000372 -0.000071 1.058780
45  5.740573 0.000080 0.000721  0.119101 -0.000014 0.000028
46  11.480774 -0.000062 0.000969  0.041108 0.125808 0.108356
47  6.027515 -0.000273 -0.000229  -0.978897 -0.507977 -1.485947
48  -0.000001 11.691975 -0.000007  -1.121708 0.565016 0.865734
49  0.000004 -0.000000 0.000001  2.618569 -0.000036 1.570860
50  -0.000007 -0.000014 0.000006  2.272645 -0.000036 1.570861
51  -3.234202 -3.982616 -7.045018  -0.100980 -2.981620 1.382481
52  -0.000000 0.000000 -0.000000  0.008153 -0.000259 0.000009
53  -0.000000 -0.000000 0.000001  1.565115 0.043565 -0.106862
54  -0.336678 -14.495742 -5.367103  -1.083815 -0.139204 -1.917554
55  -0.000000 0.000000 -0.000001  0.000000 -0.000001 -0.000002
56  0.000031 0.000029 0.000001  -1.571902 -0.044449 -0.106509
57  5.661260 -16.060535 -17.872917  1.570796 -0.000000 0.000000
58  -16.319784 5.039393 -18.063972  1.570796 -0.000000 0.000000
59  1.066008 0.876422 -3.770892  1.570796 -0.000000 0.000000
60  -0.004311 0.001230 -0.000371  0.006898 -0.005534 -0.284229
61  0.826810 11.578514 -4.219014  1.570796 -0.000000 0.000000
62  0.000000 0.000000 0.000000  -0.078727 -3.136056 0.284226
63  0.000000 0.000000 0.000000  1.570796 -0.000000 0.000000
64  -2.283042 -8.205345 -1.868032  1.569947 0.037744 0.007764
65  0.085367 -2.603195 0.763119  -0.000000 0.000000 -0.000000
66  0.042352 -1.082366 5.211880  -0.000000 0.000000 -0.000000
67  0.048106 -0.032153 -1.710082  -0.000000 0.000000 -0.000000
68  0.042346 -1.082868 19.512428  0.000000 0.000000 -0.000000
69  0.021362 -2.476558 2.118467  -0.000000 0.000000 -0.000000
70  0.654293 -1.873716 2.120183  0.000000 0.000000 -0.000000
71  -0.612738 -1.349160 3.336718  0.000000 0.000000 -0.000000
72  0.042352 -1.082366 5.622111  -0.000000 0.000000 -0.000000
73  -1.181944 -2.300502 17.060879  -0.000000 0.000000 -0.000000
74  -2.398445 -12.916250 -5.958384  1.569947 0.037744 0.007764
75  0.188638 2.632941 -1.870136  -0.000000 0.000000 -0.000000
76  -0.108895 2.446371 -1.870140  -0.000000 0.000000 -0.000000
time 11
0  0.000006 0.000000 0.000000  -1.570800 -1.391899 -1.570792
1  -3.865520 -0.192010 1.061693  -1.544956 -1.855077 -0.198630
2  6.027524 -0.000323 0.000191  -0.905325 -0.926377 -1.358263
3  11.692105 0.000646 -0.000739  -1.152285 -0.000026 -1.498721
4  11.480474 0.000555 -0.000550  1.196917 -0.671534 0.161475
5  3.859504 -0.142824 -1.192079  -0.603309 -0.153254 -1.645038
6  1.312589 0.000009 0.000006  -0.134332 0.005764 -0.149076
7  0.729355 0.000054 0.000049  -0.006921 -0.010127 -0.171925
8  3.942141 0.046330 -0.431542  -0.437576 0.236645 -1.080252
9  1.539110 0.000083 0.000004  -0.023906 -0.071181 -0.773682
10  1.196333 0.000147 0.000027  0.006223 0.004451 -0.725134
11  3.883511 -0.047213 0.431351  -0.279795 0.553082 -0.488973
12  1.719572 -0.000030 0.000016  0.002711 -0.070785 -0.961842
13  1.209179 0.000090 0.000013  -0.010762 -0.006973 -0.762710
14  4.085235 -0.082654 1.151009  0.025499 0.604578 -0.086052
15  1.719447 -0.000019 0.000029  -0.003946 -0.026040 -0.561722
16  1.099676 0.000050 0.000004  -0.052339 0.061959 -1.042030
17  1.059884 -1.545939 0.873876  -0.894241 -0.623407 -0.353559
18  1.789820 -0.000004 -0.000018  -0.000002 -0.009376 0.757285
19  1.207018 -0.000014 -0.000043  0.001023 -0.000035 -0.104167
20  5.740636 0.000388 -0.000699  -0.129323 0.000003 0.000064
21  11.481101 0.000288 -0.000761  -0.054250 -0.118195 -0.004251
22  6.027525 -0.000330 0.000200  1.721512 -0.629086 1.530720
23  -0.000002 11.692099 -0.000007  -1.028710 -0.475255 -0.809786
24  0.000003 0.000008 -0.000001  -0.283187 -0.000030 1.570739
25  -0.000000 -0.000011 -0.000001  0.868960 0.000002 1.570712
26  -6.212011 -10.642979 0.826812  1.473120 1.855075 -0.198639
27  6.027511 -0.000260 -0.000220  1.488243 0.812892 -0.541588
28  11.691993 0.000159 0.000858  0.346040 0.000059 -1.653385
29  11.479166 -0.000669 0.001115  -1.136340 0.630900 0.758487
30  3.859437 -0.132758 1.193066  0.469647 -0.013262 -1.872395
31  1.312559 0.000026 -0.000001  0.024060 -0.138696 -0.550187
32  0.729346 0.000065 -0.000027  -0.166197 -0.081570 -0.714273
33  3.942046 0.050139 0.431001  0.225309 -0.086237 -1.592712
34  1.539096 0.000006 -0.000000  0.035254 -0.050373 -0.994350
35  1.196300 0.000077 -0.000003  -0.021521 0.002175 -0.839738
36  3.883413 -0.050472 -0.431083  0.184824 -0.271737 -1.204030
37  1.719563 -0.000085 -0.000005  0.022859 -0.107186 -1.509108
38  1.209197 0.000036 0.000011  0.000661 0.071072 -0.480462
39  3.859588 -0.149082 -1.331320  -0.103630 -0.086987 -0.354791
40  1.719412 -0.000098 -0.000036  -0.011786 -0.002292 -1.236752
41  1.099674 0.000024 0.000007  -0.005167 -0.008051 -0.781464
42  0.805983 -0.359847 -1.318338  0.991670 0.166767 -0.799527
43  1.789780 -0.000008 -0.000042  0.000058 -0.002451 0.133098
44  1.206996 -0.000006 0.000006  0.000372 -0.000071 1.058780
45  5.740572 0.000079 0.000721  0.119127 -0.000014 0.000028
46  11.480777 -0.000060 0.000968  0.041396 0.125924 0.107770
47  6.027515 -0.000273 -0.000229  -0.980559 -0.507082 -1.485225
48  -0.000002 11.691976 -0.000008  -1.119662 0.562986 0.864573
49  0.000003 0.000001 0.000000  2.618569 -0.000036 1.570860
50  -0.000007 -0.000013 0.000005  2.272645 -0.000036 1.570861
51  -3.230658 -4.012107 -7.047492  -0.098877 -2.980783 1.381827
52  0.000000 0.000000 -0.000000  0.008153 -0.000259 0.000009
53  -0.000000 0.000000 0.000001  1.565115 0.043565 -0.106862
54  -0.339652 -14.524109 -5.351395  -1.081612 -0.139702 -1.918178
55  -0.000001 -0.000001 -0.000000  0.000000 -0.000001 -0.000002
56  0.000029 0.000028 0.000001  -1.571901 -0.044449 -0.106509
57  5.661260 -16.060535 -17.872917  1.570796 -0.000000 0.000000
58  -16.319784 5.039393 -18.063972  1.570796 -0.000000 0.000000
59  1.066008 0.876422 -3.770892  1.570796 -0.000000 0.000000
60  -0.004311 0.001230 -0.000371  0.006898 -0.005534 -0.284229
61  0.826810 11.578514 -4.219014  1.570796 -0.000000 0.000000
62  0.000000 0.000000 0.000000  -0.078727 -3.136056 0.284226
63  0.000000 0.000000 0.000000  1.570796 -0.000000 0.000000
64  -2.290591 -8.228862 -1.863615  1.568720 0.035871 0.007401
65  0.085367 -2.603195 0.763119  0.000000 -0.000000 -0.000000
66  0.042352 -1.082367 5.211879  0.000000 -0.000000 -0.000000
67  0.048106 -0.032154 -1.710083  0.000000 -0.000000 -0.000000
68  0.042346 -1.082868 19.512424  0.000000 -0.000000 -0.000000
69  0.021362 -2.476557 2.118466  0.000000 -0.000000 -0.000000
70  0.654293 -1.873716 2.120180  0.000000 -0.000000 -0.000000
71  -0.612738 -1.349160 3.336716  0.000000 -0.000000 -0.000000
72  0.042352 -1.082366 5.622109  0.000000 -0.000000 -0.000000
73  -1.181944 -2.300501 17.060877  0.000000 -0.000000 -0.000000
74  -2.399799 -12.944680 -5.948470  1.568720 0.035871 0.007401
75  0.188638 2.632941 -1.870135  0.000000 -0.000000 -0.000000
76  -0.108895 2.446372 -1.870139  0.000000 -0.000000 -0.000000
time 12
0  0.000006 0.000000 0.000000  -1.570800 -1.391899 -1.570792
1  -3.865520 -0.192010 1.061693  -1.544956 -1.855077 -0.198630
2  6.027524 -0.000323 0.000191  -0.904007 -0.927508 -1.359738
3  11.692106 0.000645 -0.000739  -1.152285 -0.000025 -1.495579
4  11.480500 0.000564 -0.000535  1.195464 -0.669950 0.160721
5  3.859505 -0.142822 -1.192080  -0.603309 -0.153254 -1.645038
6  1.312590 0.000009 0.000008  -0.134332 0.005764 -0.149076
7  0.729356 0.000053 0.000050  -0.006921 -0.010127 -0.171925
8  3.942142 0.046332 -0.431543  -0.437576 0.236645 -1.080252
9  1.539111 0.000086 0.000004  -0.023906 -0.071181 -0.773682
10  1.196333 0.000146 0.000029  0.006223 0.004451 -0.725134
11  3.883512 -0.047211 0.431351  -0.279795 0.553082 -0.488973
12  1.719571 -0.000029 0.000016  0.002711 -0.070785 -0.961842
13  1.209179 0.000090 0.000013  -0.010762 -0.006973 -0.762710
14  4.085237 -0.082652 1.151009  0.025499 0.604578 -0.086052
15  1.719447 -0.000020 0.000026  -0.003946 -0.026040 -0.561722
16  1.099674 0.000048 0.000005  -0.052339 0.061959 -1.042030
17  1.059883 -1.545938 0.873876  -0.894241 -0.623407 -0.353559
18  1.789819 -0.000004 -0.000018  -0.000002 -0.009376 0.757285
19  1.207015 -0.000013 -0.000044  0.001023 -0.000035 -0.104167
20  5.740636 0.000388 -0.000700  -0.129344 0.000003 0.000064
21  11.481108 0.000290 -0.000758  -0.054606 -0.117887 -0.004436
22  6.027525 -0.000330 0.000200  1.720216 -0.628189 1.531060
23  -0.000000 11.692099 -0.000007  -1.026849 -0.473519 -0.808608
24  0.000003 0.000008 0.000001  -0.283187 -0.000031 1.570739
25  -0.000001 -0.000011 0.000000  0.868960 0.000002 1.570712
26  -6.212011 -10.642979 0.826812  1.473120 1.855075 -0.198639
27  6.027511 -0.000260 -0.000220  1.489492 0.813888 -0.541130
28  11.691993 0.000160 0.000858  0.346039 0.000059 -1.651247
29  11.479181 -0.000664 0.001111  -1.138256 0.629675 0.757774
30  3.859437 -0.132758 1.193065  0.469647 -0.013262 -1.872395
31  1.312560 0.000026 -0.000001  0.024060 -0.138696 -0.550187
32  0.729346 0.000065 -0.000028  -0.166197 -0.081570 -0.714272
33  3.942047 0.050139 0.431000  0.225309 -0.086237 -1.592712
34  1.539096 0.000006 -0.000001  0.035254 -0.050373 -0.994350
35  1.196301 0.000077 -0.000004  -0.021521 0.002175 -0.839738
36  3.883414 -0.050472 -0.431084  0.184824 -0.271737 -1.204030
37  1.719563 -0.000085 -0.000005  0.022859 -0.107186 -1.509108
38  1.209197 0.000035 0.000011  0.000661 0.071072 -0.480462
39  3.859588 -0.149082 -1.331321  -0.103630 -0.086987 -0.354791
40  1.719412 -0.000098 -0.000036  -0.011786 -0.002292 -1.236752
41  1.099674 0.000023 0.000007  -0.005167 -0.008051 -0.781464
42  0.805983 -0.359847 -1.318338  0.991670 0.166767 -0.799527
43  1.789780 -0.000008 -0.000042  0.000058 -0.002451 0.133097
44  1.206996 -0.000007 0.000005  0.000372 -0.000071 1.058780
45  5.740572 0.000078 0.000721  0.118776 -0.000014 0.000028
46  11.480780 -0.000060 0.000967  0.041194 0.125576 0.107834
47  6.027515 -0.000273 -0.000229  -0.980907 -0.505803 -1.485506
48  -0.000000 11.691976 -0.000008  -1.118409 0.561745 0.863861
49  0.000003 0.000002 0.000000  2.618569 -0.000036 1.570860
50  -0.000006 -0.000014 0.000004  2.272645 -0.000036 1.570861
51  -3.239711 -4.032095 -7.039181  -0.100412 -2.981108 1.381652
52  -0.000000 0.000000 0.000000  0.008153 -0.000259 0.000009
53  -0.000000 0.000000 0.000000  1.565115 0.043565 -0.106862
54  -0.350714 -14.546334 -5.353561  -1.083175 -0.139620 -1.918381
55  -0.000002 -0.000001 -0.000001  0.000000 -0.000001 -0.000002
56  0.000028 0.000028 0.000001  -1.571901 -0.044449 -0.106509
57  5.661260 -16.060535 -17.872917  1.570796 -0.000000 0.000000
58  -16.319784 5.039393 -18.063972  1.570796 -0.000000 0.000000
59  1.066008 0.876422 -3.770892  1.570796 -0.000000 0.000000
60  -0.004311 0.001230 -0.000371  0.006898 -0.005534 -0.284229
61  0.826810 11.578514 -4.219014  1.570796 -0.000000 0.000000
62  0.000000 0.000000 0.000000  -0.078727 -3.136056 0.284226
63  0.000000 0.000000 0.000000  1.570796 -0.000000 0.000000
64  -2.294022 -8.252378 -1.859198  1.569335 0.037293 0.007003
65  0.085367 -2.603195 0.763120  0.000000 -0.000000 -0.000000
66  0.042352 -1.082367 5.211880  0.000000 -0.000000 -0.000000
67  0.048106 -0.032154 -1.710082  0.000000 -0.000000 -0.000000
68  0.042347 -1.082868 19.512426  0.000000 -0.000000 -0.000000
69  0.021362 -2.476558 2.118467  0.000000 -0.000000 -0.000000
70  0.654293 -1.873716 2.120182  0.000000 -0.000000 -0.000000
71  -0.612738 -1.349160 3.336716  0.000000 -0.000000 -0.000000
72  0.042352 -1.082366 5.622110  0.000000 -0.000000 -0.000000
73  -1.181944 -2.300502 17.060879  0.000000 -0.000000 -0.000000
74  -2.411045 -12.965680 -5.946741  1.569335 0.037293 0.007003
75  0.188638 2.632940 -1.870135  0.000000 -0.000000 -0.000000
76  -0.108895 2.446371 -1.870140  0.000000 -0.000000 -0.000000
time 13
0  0.000006 0.000000 0.000000  -1.570800 -1.391899 -1.570792
1  -3.865520 -0.192010 1.061693  -1.544956 -1.855077 -0.198630
2  6.027524 -0.000323 0.000191  -0.903089 -0.927734 -1.360010
3  11.692108 0.000646 -0.000740  -1.152285 -0.000025 -1.494281
4  11.480512 0.000566 -0.000527  1.192538 -0.669433 0.159761
5  3.859505 -0.142823 -1.192080  -0.603309 -0.153254 -1.645038
6  1.312589 0.000009 0.000008  -0.134332 0.005764 -0.149076
7  0.729355 0.000055 0.000049  -0.006921 -0.010127 -0.171925
8  3.942142 0.046331 -0.431543  -0.437576 0.236645 -1.080252
9  1.539111 0.000080 0.000003  -0.023906 -0.071181 -0.773682
10  1.196333 0.000146 0.000029  0.006223 0.004451 -0.725134
11  3.883511 -0.047211 0.431350  -0.279795 0.553082 -0.488973
12  1.719571 -0.000029 0.000015  0.002711 -0.070786 -0.961842
13  1.209179 0.000089 0.000012  -0.010762 -0.006973 -0.762710
14  4.085236 -0.082652 1.151008  0.025499 0.604578 -0.086052
15  1.719449 -0.000020 0.000027  -0.003946 -0.026040 -0.561722
16  1.099675 0.000050 0.000005  -0.052339 0.061959 -1.042030
17  1.059883 -1.545938 0.873876  -0.894241 -0.623407 -0.353559
18  1.789819 -0.000003 -0.000017  -0.000002 -0.009376 0.757285
19  1.207015 -0.000014 -0.000042  0.001023 -0.000035 -0.104167
20  5.740635 0.000388 -0.000697  -0.129905 0.000003 0.000063
21  11.481108 0.000291 -0.000756  -0.055205 -0.117804 -0.004796
22  6.027525 -0.000330 0.000200  1.719488 -0.628106 1.531951
23  -0.000001 11.692099 -0.000007  -1.026080 -0.472802 -0.808120
24  0.000003 0.000009 -0.000001  -0.283187 -0.000031 1.570738
25  0.000000 -0.000011 -0.000000  0.868960 0.000002 1.570712
26  -6.212011 -10.642979 0.826812  1.473120 1.855075 -0.198639
27  6.027511 -0.000260 -0.000220  1.490775 0.814132 -0.540595
28  11.691992 0.000159 0.000858  0.346040 0.000059 -1.650929
29  11.479184 -0.000661 0.001112  -1.141050 0.628365 0.758386
30  3.859437 -0.132759 1.193066  0.469647 -0.013262 -1.872395
31  1.312559 0.000025 -0.000001  0.024060 -0.138696 -0.550187
32  0.729346 0.000064 -0.000028  -0.166197 -0.081570 -0.714272
33  3.942046 0.050138 0.431001  0.225309 -0.086237 -1.592712
34  1.539097 0.000005 -0.000001  0.035254 -0.050373 -0.994350
35  1.196300 0.000078 -0.000003  -0.021521 0.002175 -0.839738
36  3.883414 -0.050473 -0.431083  0.184824 -0.271737 -1.204030
37  1.719563 -0.000085 -0.000004  0.022858 -0.107186 -1.509108
38  1.209198 0.000036 0.000011  0.000661 0.071072 -0.480462
39  3.859588 -0.149082 -1.331321  -0.103630 -0.086987 -0.354791
40  1.719413 -0.000098 -0.000036  -0.011786 -0.002292 -1.236752
41  1.099674 0.000025 0.000008  -0.005167 -0.008051 -0.781464
42  0.805983 -0.359848 -1.318337  0.991670 0.166767 -0.799527
43  1.789779 -0.000008 -0.000042  0.000058 -0.002451 0.133098
44  1.206997 -0.000008 0.000005  0.000372 -0.000071 1.058780
45  5.740573 0.000079 0.000722  0.118373 -0.000013 0.000028
46  11.480782 -0.000059 0.000968  0.040778 0.125193 0.108214
47  6.027515 -0.000273 -0.000229  -0.980543 -0.504946 -1.486080
48  -0.000001 11.691974 -0.000007  -1.118223 0.561560 0.863755
49  0.000003 0.000001 -0.000000  2.618569 -0.000036 1.570860
50  -0.000006 -0.000014 0.000005  2.272645 -0.000036 1.570861
51  -3.248691 -4.036587 -7.028489  -0.103264 -2.981720 1.381741
52  0.000000 -0.000000 0.000000  0.008153 -0.000259 0.000009
53  0.000000 -0.000000 0.000001  1.565115 0.043565 -0.106862
54  -0.359093 -14.553775 -5.362410  -1.086080 -0.139461 -1.918343
55  -0.000000 0.000000 -0.000000  0.000000 -0.000001 -0.000002
56  0.000031 0.000029 0.000001  -1.571902 -0.044449 -0.106509
57  5.661260 -16.060535 -17.872917  1.570796 -0.000000 0.000000
58  -16.319784 5.039393 -18.063972  1.570796 -0.000000 0.000000
59  1.066008 0.876422 -3.770892  1.570796 -0.000000 0.000000
60  -0.004311 0.001230 -0.000371  0.006898 -0.005534 -0.284229
61  0.826810 11.578514 -4.219014  1.570796 -0.000000 0.000000
62  0.000000 0.000000 0.000000  -0.078727 -3.136056 0.284226
63  0.000000 0.000000 0.000000  1.570796 -0.000000 0.000000
64  -2.290823 -8.263067 -1.855801  1.570484 0.039937 0.006682
65  0.085367 -2.603195 0.763120  0.000000 -0.000000 0.000000
66  0.042352 -1.082367 5.211879  0.000000 -0.000000 0.000000
67  0.048106 -0.032154 -1.710083  0.000000 -0.000000 0.000000
68  0.042346 -1.082868 19.512426  0.000000 -0.000000 -0.000000
69  0.021362 -2.476557 2.118467  0.000000 -0.000000 0.000000
70  0.654292 -1.873716 2.120182  0.000000 -0.000000 -0.000000
71  -0.612739 -1.349160 3.336717  0.000000 -0.000000 -0.000000
72  0.042352 -1.082366 5.622111  0.000000 -0.000000 0.000000
73  -1.181944 -2.300501 17.060877  0.000000 -0.000000 0.000000
74  -2.420409 -12.971703 -5.948339  1.570484 0.039937 0.006682
75  0.188638 2.632941 -1.870136  0.000000 -0.000000 0.000000
76  -0.108895 2.446371 -1.870140  0.000000 -0.000000 0.000000
time 14
0  0.000006 0.000000 0.000000  -1.570800 -1.391899 -1.570792
1  -3.865520 -0.192010 1.061693  -1.544956 -1.855077 -0.198630
2  6.027524 -0.000323 0.000191  -0.902872 -0.927089 -1.359132
3  11.692107 0.000645 -0.000740  -1.152285 -0.000025 -1.495890
4  11.480498 0.000561 -0.000538  1.190636 -0.670590 0.159474
5  3.859503 -0.142823 -1.192080  -0.603309 -0.153254 -1.645038
6  1.312589 0.000010 0.000007  -0.134332 0.005764 -0.149076
7  0.729355 0.000054 0.000050  -0.006921 -0.010127 -0.171925
8  3.942141 0.046331 -0.431543  -0.437576 0.236645 -1.080252
9  1.539110 0.000081 0.000002  -0.023906 -0.071181 -0.773682
10  1.196334 0.000145 0.000027  0.006223 0.004451 -0.725134
11  3.883512 -0.047212 0.431351  -0.279795 0.553082 -0.488973
12  1.719574 -0.000029 0.000019  0.002711 -0.070785 -0.961842
13  1.209179 0.000091 0.000013  -0.010762 -0.006973 -0.762710
14  4.085237 -0.082652 1.151009  0.025499 0.604578 -0.086052
15  1.719446 -0.000018 0.000028  -0.003946 -0.026040 -0.561722
16  1.099675 0.000048 0.000006  -0.052339 0.061959 -1.042030
17  1.059882 -1.545939 0.873876  -0.894241 -0.623407 -0.353559
18  1.789819 -0.000002 -0.000018  -0.000002 -0.009376 0.757285
19  1.207019 -0.000013 -0.000043  0.001023 -0.000035 -0.104167
20  5.740637 0.000388 -0.000700  -0.130559 0.000003 0.000063
21  11.481108 0.000289 -0.000759  -0.055528 -0.118051 -0.005020
22  6.027525 -0.000330 0.000200  1.719528 -0.628763 1.532980
23  -0.000002 11.692099 -0.000007  -1.027033 -0.473691 -0.808724
24  0.000003 0.000008 0.000000  -0.283187 -0.000031 1.570739
25  -0.000000 -0.000011 0.000000  0.868960 0.000002 1.570712
26  -6.212011 -10.642979 0.826812  1.473120 1.855075 -0.198639
27  6.027511 -0.000260 -0.000220  1.491220 0.813251 -0.540332
28  11.691992 0.000160 0.000858  0.346040 0.000059 -1.652967
29  11.479169 -0.000669 0.001112  -1.142144 0.628150 0.759993
30  3.859437 -0.132758 1.193065  0.469647 -0.013262 -1.872395
31  1.312559 0.000026 -0.000001  0.024060 -0.138696 -0.550187
32  0.729345 0.000065 -0.000026  -0.166197 -0.081570 -0.714272
33  3.942047 0.050139 0.431000  0.225309 -0.086237 -1.592712
34  1.539096 0.000007 -0.000001  0.035254 -0.050373 -0.994350
35  1.196300 0.000077 -0.000003  -0.021521 0.002175 -0.839738
36  3.883414 -0.050472 -0.431084  0.184824 -0.271737 -1.204030
37  1.719564 -0.000084 -0.000005  0.022858 -0.107186 -1.509108
38  1.209197 0.000036 0.000011  0.000661 0.071072 -0.480462
39  3.859588 -0.149082 -1.331321  -0.103630 -0.086987 -0.354791
40  1.719413 -0.000098 -0.000036  -0.011786 -0.002292 -1.236752
41  1.099674 0.000025 0.000006  -0.005167 -0.008051 -0.781464
42  0.805984 -0.359848 -1.318338  0.991670 0.166767 -0.799527
43  1.789780 -0.000008 -0.000042  0.000058 -0.002451 0.133098
44  1.206996 -0.000006 0.000005  0.000372 -0.000071 1.058780
45  5.740572 0.000079 0.000721  0.118331 -0.000014 0.000028
46  11.480778 -0.000060 0.000967  0.040523 0.125127 0.108607
47  6.027515 -0.000273 -0.000229  -0.979522 -0.505213 -1.486634
48  -0.000001 11.691975 -0.000009  -1.119417 0.562744 0.864434
49  0.000002 -0.000001 -0.000001  2.618569 -0.000036 1.570860
50  -0.000007 -0.000012 0.000003  2.272645 -0.000036 1.570861
51  -3.252213 -4.019835 -7.023181  -0.104800 -2.982050 1.381830
52  -0.000000 0.000000 0.000000  0.008153 -0.000259 0.000009
53  -0.000000 -0.000000 0.000000  1.565115 0.043565 -0.106862
54  -0.361885 -14.538486 -5.367636  -1.087645 -0.139374 -1.918281
55  -0.000000 0.000000 0.000000  0.000000 -0.000001 -0.000002
56  0.000030 0.000029 0.000001  -1.571901 -0.044449 -0.106509
57  5.661260 -16.060535 -17.872917  1.570796 -0.000000 0.000000
58  -16.319784 5.039393 -18.063972  1.570796 -0.000000 0.000000
59  1.066008 0.876422 -3.770892  1.570796 -0.000000 0.000000
60  -0.004311 0.001230 -0.000371  0.006898 -0.005534 -0.284229
61  0.826810 11.578514 -4.219014  1.570796 -0.000000 0.000000
62  0.000000 0.000000 0.000000  -0.078727 -3.136056 0.284226
63  0.000000 0.000000 0.000000  1.570796 -0.000000 0.000000
64  -2.287624 -8.249615 -1.854442  1.571103 0.041360 0.006551
65  0.085367 -2.603195 0.763119  0.000000 -0.000000 -0.000000
66  0.042352 -1.082367 5.211879  0.000000 -0.000000 -0.000000
67  0.048106 -0.032154 -1.710082  0.000000 -0.000000 -0.000000
68  0.042347 -1.082868 19.512426  -0.000000 -0.000000 -0.000000
69  0.021362 -2.476558 2.118467  0.000000 -0.000000 -0.000000
70  0.654293 -1.873716 2.120182  -0.000000 -0.000000 -0.000000
71  -0.612739 -1.349160 3.336716  -0.000000 -0.000000 -0.000000
72  0.042352 -1.082366 5.622110  0.000000 -0.000000 -0.000000
73  -1.181944 -2.300501 17.060877  0.000000 -0.000000 -0.000000
74  -2.423788 -12.955736 -5.949658  1.571103 0.041360 0.006551
75  0.188638 2.632941 -1.870134  0.000000 -0.000000 -0.000000
76  -0.108895 2.446371 -1.870138  0.000000 -0.000000 -0.000000
end
