version 1
nodes
0 "ValveBiped.Bip01_Spine4" -1
1 "ValveBiped.Bip01_L_Clavicle" 0
2 "ValveBiped.Bip01_L_UpperArm" 1
3 "ValveBiped.Bip01_L_Forearm" 2
4 "ValveBiped.Bip01_L_Hand" 3
5 "ValveBiped.Bip01_L_Finger4" 4
6 "ValveBiped.Bip01_L_Finger41" 5
7 "ValveBiped.Bip01_L_Finger42" 6
8 "ValveBiped.Bip01_L_Finger3" 4
9 "ValveBiped.Bip01_L_Finger31" 8
10 "ValveBiped.Bip01_L_Finger32" 9
11 "ValveBiped.Bip01_L_Finger2" 4
12 "ValveBiped.Bip01_L_Finger21" 11
13 "ValveBiped.Bip01_L_Finger22" 12
14 "ValveBiped.Bip01_L_Finger1" 4
15 "ValveBiped.Bip01_L_Finger11" 14
16 "ValveBiped.Bip01_L_Finger12" 15
17 "ValveBiped.Bip01_L_Finger0" 4
18 "ValveBiped.Bip01_L_Finger01" 17
19 "ValveBiped.Bip01_L_Finger02" 18
20 "ValveBiped.Bip01_L_Ulna" 3
21 "ValveBiped.Bip01_L_Wrist" 3
22 "rig_l_upperarm" 1
23 "rig_l_forearm" 22
24 "rig_d_l_forearm" 23
25 "rig_d_l_upperarm" 22
26 "ValveBiped.Bip01_R_Clavicle" 0
27 "ValveBiped.Bip01_R_UpperArm" 26
28 "ValveBiped.Bip01_R_Forearm" 27
29 "ValveBiped.Bip01_R_Hand" 28
30 "ValveBiped.Bip01_R_Finger4" 29
31 "ValveBiped.Bip01_R_Finger41" 30
32 "ValveBiped.Bip01_R_Finger42" 31
33 "ValveBiped.Bip01_R_Finger3" 29
34 "ValveBiped.Bip01_R_Finger31" 33
35 "ValveBiped.Bip01_R_Finger32" 34
36 "ValveBiped.Bip01_R_Finger2" 29
37 "ValveBiped.Bip01_R_Finger21" 36
38 "ValveBiped.Bip01_R_Finger22" 37
39 "ValveBiped.Bip01_R_Finger1" 29
40 "ValveBiped.Bip01_R_Finger11" 39
41 "ValveBiped.Bip01_R_Finger12" 40
42 "ValveBiped.Bip01_R_Finger0" 29
43 "ValveBiped.Bip01_R_Finger01" 42
44 "ValveBiped.Bip01_R_Finger02" 43
45 "ValveBiped.Bip01_R_Ulna" 28
46 "ValveBiped.Bip01_R_Wrist" 28
47 "rig_r_upperarm" 26
48 "rig_r_forearm" 47
49 "rig_d_r_forearm" 48
50 "rig_d_r_upperarm" 47
51 "rig_r_hand" -1
52 "rig_d_r_hand" 51
53 "rig_d_r_wrist" 52
54 "rig_l_hand" -1
55 "rig_d_l_hand" 54
56 "rig_d_l_wrist" 54
57 "rig_l_pole" -1
58 "rig_r_pole" -1
59 "rig_l_clavicle" -1
60 "rig_d_l_clavicle" 59
61 "rig_r_clavicle" -1
62 "rig_d_r_clavicle" 61
63 "Camera" -1
64 "body" -1
65 "trigger" 64
66 "bolt" 64
67 "chandle" 64
68 "barrel" 64
69 "magrel" 64
70 "boltrelease" 64
71 "dustcover" 64
72 "bullet1" 64
73 "flashlight" 64
74 "mag" -1
75 "bullet2" 74
76 "bullet3" 74
end
skeleton
time 0
0  0.000006 0.000000 0.000000  -1.570800 -1.391899 -1.570792
1  -3.865520 -0.192010 1.061693  -1.544956 -1.855077 -0.198630
2  6.027524 -0.000323 0.000191  -0.913755 -0.926999 -1.359397
3  11.692108 0.000647 -0.000738  -1.152285 -0.000026 -1.499722
4  11.480469 0.000555 -0.000554  1.215244 -0.670050 0.193598
5  3.859504 -0.142823 -1.192079  -0.603309 -0.153254 -1.645038
6  1.312589 0.000010 0.000007  -0.134332 0.005764 -0.149076
7  0.729355 0.000055 0.000050  -0.006921 -0.010127 -0.171925
8  3.942139 0.046332 -0.431543  -0.437576 0.236645 -1.080252
9  1.539111 0.000082 0.000003  -0.023906 -0.071181 -0.773682
10  1.196333 0.000146 0.000028  0.006223 0.004451 -0.725134
11  3.883510 -0.047211 0.431350  -0.279795 0.553082 -0.488973
12  1.719572 -0.000029 0.000019  0.002711 -0.070785 -0.961842
13  1.209180 0.000090 0.000013  -0.010762 -0.006973 -0.762710
14  4.085233 -0.082653 1.151008  0.025499 0.604578 -0.086052
15  1.719448 -0.000018 0.000028  -0.003946 -0.026040 -0.561722
16  1.099675 0.000048 0.000004  -0.052339 0.061959 -1.042030
17  1.059880 -1.545939 0.873876  -0.894241 -0.623407 -0.353559
18  1.789819 -0.000004 -0.000017  -0.000002 -0.009376 0.757285
19  1.207015 -0.000013 -0.000044  0.001023 -0.000035 -0.104167
20  5.740637 0.000390 -0.000699  -0.121277 0.000003 0.000063
21  11.481103 0.000289 -0.000763  -0.049406 -0.118356 0.003160
22  6.027525 -0.000330 0.000200  1.727366 -0.627195 1.519404
23  -0.000002 11.692099 -0.000006  -1.029304 -0.475809 -0.810161
24  0.000003 0.000008 0.000000  -0.283187 -0.000030 1.570739
25  -0.000000 -0.000011 0.000000  0.868960 0.000002 1.570712
26  -6.212011 -10.642979 0.826812  1.473120 1.855075 -0.198639
27  6.027511 -0.000260 -0.000220  1.472697 0.823727 -0.549368
28  11.691993 0.000161 0.000859  0.346040 0.000059 -1.649897
29  11.479190 -0.000660 0.001111  -1.087005 0.649098 0.783744
30  3.859437 -0.132758 1.193066  0.469647 -0.013262 -1.872395
31  1.312559 0.000025 -0.000001  0.024060 -0.138696 -0.550187
32  0.729345 0.000064 -0.000028  -0.166197 -0.081570 -0.714272
33  3.942047 0.050139 0.431000  0.225309 -0.086237 -1.592712
34  1.539097 0.000007 -0.000000  0.035254 -0.050373 -0.994350
35  1.196300 0.000078 -0.000003  -0.021521 0.002175 -0.839738
36  3.883414 -0.050472 -0.431084  0.184824 -0.271737 -1.204030
37  1.719565 -0.000084 -0.000004  0.022859 -0.107186 -1.509108
38  1.209197 0.000035 0.000011  0.000661 0.071072 -0.480462
39  3.859589 -0.149081 -1.331321  -0.113059 -0.126939 -0.401435
40  1.719413 -0.000099 -0.000036  -0.010069 -0.019770 -1.319871
41  1.099673 0.000022 0.000007  -0.058928 0.047625 -0.916935
42  0.805984 -0.359848 -1.318338  0.991670 0.166767 -0.799527
43  1.789780 -0.000008 -0.000042  0.000058 -0.002451 0.133098
44  1.206997 -0.000007 0.000006  0.000372 -0.000071 1.058780
45  5.740572 0.000080 0.000721  0.127327 -0.000014 0.000028
46  11.480782 -0.000058 0.000967  0.047259 0.132620 0.108050
47  6.027515 -0.000273 -0.000229  -0.997762 -0.509179 -1.473286
48  -0.000002 11.691977 -0.000007  -1.117618 0.560961 0.863411
49  0.000003 0.000000 -0.000000  2.618569 -0.000036 1.570860
50  -0.000008 -0.000014 0.000004  2.272645 -0.000036 1.570861
51  -3.009962 -4.015204 -7.058799  -0.063697 -2.989914 1.368913
52  0.000000 0.000000 0.000000  0.008153 -0.000259 0.000009
53  0.000000 -0.000000 0.000000  1.565115 0.043565 -0.106862
54  -0.259474 -14.552021 -5.284775  -1.048438 -0.125221 -1.929999
55  0.000001 -0.000000 -0.000000  0.000000 -0.000001 -0.000002
56  0.000031 0.000029 0.000001  -1.571901 -0.044449 -0.106509
57  5.661260 -16.060535 -17.872917  1.570796 -0.000000 0.000000
58  -16.319784 5.039393 -18.063972  1.570796 -0.000000 0.000000
59  1.066008 0.876422 -3.770892  1.570796 -0.000000 0.000000
60  -0.004311 0.001230 -0.000371  0.006898 -0.005534 -0.284229
61  0.826810 11.578514 -4.219014  1.570796 -0.000000 0.000000
62  0.000000 0.000000 0.000000  -0.078727 -3.136056 0.284226
63  -2.243053 -2.227381 -0.360343  1.570796 -0.000000 0.000000
64  -2.287624 -8.249615 -1.854442  1.570796 -0.000000 0.000000
65  0.085367 -2.603195 0.763120  0.174533 -0.000000 -0.000000
66  0.042352 -1.082367 5.211880  0.000000 -0.000000 0.000000
67  0.048106 -0.032154 -1.710082  0.000000 -0.000000 0.000000
68  0.042346 -1.082868 19.512426  0.000000 -0.000000 0.000000
69  0.021362 -2.476558 2.118467  0.000000 -0.000000 0.000000
70  0.654292 -1.873716 2.120182  0.000000 -0.000000 0.000000
71  -0.612739 -1.349160 3.336717  0.000000 -0.000000 0.000000
72  0.191118 -1.464234 2.836251  0.000000 -0.000000 0.000000
73  -1.181944 -2.300502 17.060877  0.000000 -0.000000 0.000000
74  -2.285144 -12.956001 -5.951616  1.570796 -0.000000 0.000000
75  -0.108895 2.446371 -1.870139  0.000000 -0.000000 0.000000
76  0.188637 2.259805 -1.870139  0.000000 -0.000000 0.000000
time 1
0  0.000006 0.000000 0.000000  -1.570800 -1.391899 -1.570792
1  -3.865520 -0.192010 1.061693  -1.544956 -1.855077 -0.198630
2  6.027523 -0.000323 0.000191  -0.911495 -0.902946 -1.327134
3  11.692105 0.000644 -0.000739  -1.152288 -0.000030 -1.576991
4  11.479856 0.000402 -0.000896  1.192128 -0.719966 0.186266
5  3.859504 -0.142824 -1.192079  -0.603309 -0.153254 -1.645038
6  1.312589 0.000009 0.000008  -0.134332 0.005764 -0.149076
7  0.729355 0.000054 0.000049  -0.006921 -0.010127 -0.171925
8  3.942141 0.046331 -0.431543  -0.437577 0.236645 -1.080252
9  1.539110 0.000080 0.000003  -0.023906 -0.071181 -0.773682
10  1.196333 0.000147 0.000027  0.006223 0.004451 -0.725134
11  3.883513 -0.047212 0.431351  -0.279795 0.553082 -0.488973
12  1.719573 -0.000028 0.000017  0.002711 -0.070786 -0.961842
13  1.209178 0.000091 0.000010  -0.010762 -0.006973 -0.762710
14  4.085235 -0.082654 1.151008  0.025499 0.604578 -0.086052
15  1.719448 -0.000019 0.000029  -0.003946 -0.026040 -0.561722
16  1.099674 0.000048 0.000005  -0.052339 0.061959 -1.042030
17  1.059884 -1.545939 0.873876  -0.894241 -0.623407 -0.353559
18  1.789819 -0.000003 -0.000019  -0.000002 -0.009376 0.757285
19  1.207016 -0.000013 -0.000044  0.001023 -0.000035 -0.104167
20  5.740636 0.000390 -0.000698  -0.138474 0.000003 0.000063
21  11.480978 0.000258 -0.000829  -0.052161 -0.128314 -0.001624
22  6.027525 -0.000330 0.000200  1.733519 -0.650775 1.549790
23  -0.000000 11.692098 -0.000007  -1.074897 -0.519127 -0.838294
24  0.000003 0.000010 0.000000  -0.283187 -0.000031 1.570739
25  0.000000 -0.000011 -0.000000  0.868960 0.000002 1.570712
26  -6.212011 -10.642979 0.826812  1.473120 1.855075 -0.198639
27  6.027511 -0.000260 -0.000221  1.471823 0.781922 -0.545594
28  11.691992 0.000160 0.000859  0.346040 0.000065 -1.730406
29  11.480307 -0.000087 0.000905  -1.094413 0.661215 0.818634
30  3.859437 -0.132758 1.193065  0.469647 -0.013262 -1.872395
31  1.312559 0.000026 -0.000001  0.024060 -0.138696 -0.550187
32  0.729346 0.000065 -0.000027  -0.166197 -0.081570 -0.714272
33  3.942046 0.050139 0.431000  0.225309 -0.086237 -1.592712
34  1.539097 0.000005 -0.000001  0.035254 -0.050373 -0.994350
35  1.196300 0.000078 -0.000004  -0.021521 0.002175 -0.839738
36  3.883413 -0.050472 -0.431085  0.184824 -0.271737 -1.204030
37  1.719563 -0.000085 -0.000005  0.022858 -0.107186 -1.509108
38  1.209196 0.000035 0.000012  0.000661 0.071072 -0.480462
39  3.859588 -0.149081 -1.331322  -0.113059 -0.126939 -0.401435
40  1.719413 -0.000100 -0.000036  -0.010069 -0.019770 -1.319871
41  1.099673 0.000023 0.000007  -0.058928 0.047625 -0.916935
42  0.805983 -0.359847 -1.318338  0.991670 0.166767 -0.799527
43  1.789779 -0.000009 -0.000042  0.000058 -0.002451 0.133098
44  1.206996 -0.000007 0.000005  0.000372 -0.000071 1.058780
45  5.740571 0.000079 0.000721  0.129818 -0.000014 0.000028
46  11.481005 0.000056 0.000926  0.043057 0.135205 0.114441
47  6.027515 -0.000273 -0.000229  -0.959432 -0.534556 -1.487994
48  -0.000001 11.691977 -0.000009  -1.164788 0.608210 0.889363
49  0.000003 -0.000000 0.000000  2.618569 -0.000036 1.570860
50  -0.000007 -0.000013 0.000004  2.272645 -0.000036 1.570861
51  -3.084583 -3.319653 -7.072513  -0.079730 -2.984603 1.372872
52  -0.000001 -0.000000 -0.000000  0.008153 -0.000259 0.000009
53  -0.000000 0.000000 -0.000000  1.565115 0.043565 -0.106862
54  -0.289144 -13.848699 -5.322777  -1.063375 -0.132952 -1.926582
55  0.000001 -0.000000 0.000000  0.000000 -0.000001 -0.000002
56  0.000030 0.000029 0.000001  -1.571901 -0.044449 -0.106509
57  5.661260 -16.060535 -17.872917  1.570796 -0.000000 0.000000
58  -16.319784 5.039393 -18.063972  1.570796 -0.000000 0.000000
59  1.066008 0.876422 -3.770892  1.570796 -0.000000 0.000000
60  -0.004311 0.001230 -0.000371  0.006898 -0.005534 -0.284229
61  0.826810 11.578514 -4.219014  1.570796 -0.000000 0.000000
62  0.000000 0.000000 0.000000  -0.078727 -3.136056 0.284226
63  -2.243053 -2.227381 -0.360343  1.570796 -0.000000 0.000000
64  -2.269663 -7.542202 -1.872192  1.568749 0.016583 0.001477
65  0.085367 -2.603195 0.763119  0.174533 -0.000000 -0.000000
66  0.042351 -1.082367 2.254084  0.000000 -0.000000 0.000000
67  0.048105 -0.032154 -1.710082  0.000000 -0.000000 0.000000
68  0.042346 -1.082868 19.512424  0.000000 -0.000000 0.000000
69  0.021361 -2.476558 2.118467  0.000000 -0.000000 0.000000
70  0.654292 -1.873716 2.120182  0.000000 0.000000 -0.261799
71  -0.612739 -1.349160 3.336717  0.000000 -0.000000 0.000000
72  0.191117 -1.464234 2.836251  0.000000 -0.000000 0.000000
73  -1.181945 -2.300502 17.060877  0.000000 -0.000000 0.000000
74  -2.328000 -12.257057 -5.959201  1.568749 0.016583 0.001477
75  -0.108895 2.446371 -1.870142  0.000000 -0.000000 0.000000
76  0.188638 2.259805 -1.870141  0.000000 -0.000000 0.000000
time 2
0  0.000006 0.000000 0.000000  -1.570800 -1.391899 -1.570792
1  -3.865520 -0.192010 1.061693  -1.544956 -1.855077 -0.198630
2  6.027523 -0.000323 0.000191  -0.917745 -0.906088 -1.331973
3  11.692106 0.000646 -0.000740  -1.152288 -0.000030 -1.570564
4  11.479903 0.000415 -0.000872  1.208594 -0.715736 0.190887
5  3.859504 -0.142824 -1.192080  -0.603309 -0.153254 -1.645038
6  1.312588 0.000010 0.000009  -0.134332 0.005764 -0.149076
7  0.729354 0.000055 0.000048  -0.006921 -0.010127 -0.171925
8  3.942142 0.046330 -0.431543  -0.437576 0.236645 -1.080252
9  1.539110 0.000083 0.000003  -0.023906 -0.071181 -0.773682
10  1.196332 0.000146 0.000027  0.006223 0.004451 -0.725134
11  3.883513 -0.047212 0.431351  -0.279795 0.553082 -0.488973
12  1.719572 -0.000029 0.000017  0.002711 -0.070785 -0.961842
13  1.209179 0.000091 0.000013  -0.010762 -0.006973 -0.762710
14  4.085235 -0.082653 1.151009  0.025499 0.604578 -0.086052
15  1.719447 -0.000019 0.000027  -0.003946 -0.026040 -0.561722
16  1.099675 0.000047 0.000006  -0.052339 0.061959 -1.042030
17  1.059883 -1.545940 0.873876  -0.894241 -0.623407 -0.353559
18  1.789818 -0.000005 -0.000019  -0.000002 -0.009376 0.757285
19  1.207016 -0.000013 -0.000043  0.001023 -0.000035 -0.104167
20  5.740635 0.000388 -0.000699  -0.133792 0.000003 0.000063
21  11.480987 0.000260 -0.000826  -0.049098 -0.127337 0.000575
22  6.027525 -0.000330 0.000200  1.737148 -0.646722 1.537844
23  -0.000001 11.692097 -0.000007  -1.071116 -0.515481 -0.836015
24  0.000003 0.000009 -0.000000  -0.283187 -0.000031 1.570739
25  0.000000 -0.000011 -0.000001  0.868960 0.000002 1.570712
26  -6.212011 -10.642979 0.826812  1.473120 1.855075 -0.198639
27  6.027511 -0.000260 -0.000221  1.469239 0.788773 -0.547336
28  11.691991 0.000160 0.000858  0.346040 0.000064 -1.717861
29  11.480424 -0.000013 0.000879  -1.085383 0.660680 0.808265
30  3.859437 -0.132758 1.193064  0.469647 -0.013262 -1.872395
31  1.312559 0.000027 -0.000001  0.024060 -0.138696 -0.550187
32  0.729345 0.000065 -0.000028  -0.166197 -0.081570 -0.714273
33  3.942047 0.050139 0.430999  0.225309 -0.086237 -1.592712
34  1.539096 0.000005 -0.000000  0.035254 -0.050373 -0.994350
35  1.196300 0.000078 -0.000003  -0.021521 0.002175 -0.839738
36  3.883414 -0.050472 -0.431085  0.184824 -0.271737 -1.204030
37  1.719564 -0.000085 -0.000004  0.022859 -0.107186 -1.509108
38  1.209198 0.000035 0.000011  0.000662 0.071072 -0.480462
39  3.859588 -0.149082 -1.331322  -0.113059 -0.126939 -0.401435
40  1.719412 -0.000100 -0.000035  -0.010069 -0.019770 -1.319871
41  1.099673 0.000024 0.000007  -0.058928 0.047625 -0.916935
42  0.805983 -0.359848 -1.318338  0.991670 0.166767 -0.799527
43  1.789779 -0.000008 -0.000042  0.000058 -0.002451 0.133097
44  1.206996 -0.000006 0.000005  0.000372 -0.000071 1.058780
45  5.740573 0.000080 0.000722  0.130723 -0.000014 0.000028
46  11.481030 0.000072 0.000922  0.045231 0.135394 0.111861
47  6.027515 -0.000273 -0.000229  -0.967106 -0.531988 -1.484008
48  -0.000002 11.691975 -0.000008  -1.157436 0.600781 0.885443
49  0.000003 -0.000001 -0.000000  2.618569 -0.000036 1.570860
50  -0.000008 -0.000013 0.000005  2.272645 -0.000036 1.570861
51  -3.047836 -3.425511 -7.087479  -0.067349 -2.982294 1.374974
52  -0.000000 -0.000000 0.000000  0.008153 -0.000259 0.000009
53  0.000000 -0.000000 -0.000001  1.565115 0.043565 -0.106862
54  -0.230433 -13.934850 -5.256387  -1.050826 -0.133312 -1.924196
55  0.000000 -0.000001 -0.000000  0.000000 -0.000001 -0.000002
56  0.000031 0.000028 0.000001  -1.571901 -0.044449 -0.106509
57  5.661260 -16.060535 -17.872917  1.570796 -0.000000 0.000000
58  -16.319784 5.039393 -18.063972  1.570796 -0.000000 0.000000
59  1.066008 0.876422 -3.770892  1.570796 -0.000000 0.000000
60  -0.004311 0.001230 -0.000371  0.006898 -0.005534 -0.284229
61  0.826810 11.578514 -4.219014  1.570796 -0.000000 0.000000
62  0.000000 0.000000 0.000000  -0.078727 -3.136056 0.284226
63  -2.243053 -2.227381 -0.360343  1.570796 -0.000000 0.000000
64  -2.276033 -7.620566 -1.858409  1.564053 0.005061 0.005478
65  0.085367 -2.603195 0.763120  0.174533 -0.000000 -0.000000
66  0.042352 -1.082367 2.254083  -0.000000 -0.000000 -0.000000
67  0.048106 -0.032154 -1.710082  -0.000000 -0.000000 -0.000000
68  0.042346 -1.082868 19.512426  -0.000000 -0.000000 -0.000000
69  0.021362 -2.476558 2.118467  -0.000000 -0.000000 -0.000000
70  0.654292 -1.873716 2.120182  -0.000000 -0.000000 -0.261799
71  -0.612739 -1.349160 3.336716  -0.000000 -0.000000 -0.000000
72  0.191118 -1.464234 2.836251  -0.000000 -0.000000 -0.000000
73  -1.181944 -2.300502 17.060879  -0.000000 -0.000000 -0.000000
74  -2.268194 -12.354503 -5.923714  1.564053 0.005061 0.005478
75  -0.108895 2.446370 -1.870140  -0.000000 -0.000000 -0.000000
76  0.188637 2.259804 -1.870140  -0.000000 -0.000000 -0.000000
time 3
0  0.000006 0.000000 0.000000  -1.570800 -1.391899 -1.570792
1  -3.865520 -0.192010 1.061693  -1.544956 -1.855077 -0.198630
2  6.027523 -0.000323 0.000191  -0.919162 -0.913308 -1.341657
3  11.692105 0.000647 -0.000740  -1.152287 -0.000029 -1.550681
4  11.480058 0.000450 -0.000787  1.217068 -0.703622 0.200640
5  3.859504 -0.142823 -1.192080  -0.603309 -0.153254 -1.645038
6  1.312589 0.000012 0.000008  -0.134332 0.005764 -0.149076
7  0.729355 0.000054 0.000048  -0.006921 -0.010127 -0.171925
8  3.942142 0.046331 -0.431543  -0.437576 0.236645 -1.080252
9  1.539110 0.000081 0.000004  -0.023906 -0.071181 -0.773682
10  1.196333 0.000144 0.000027  0.006223 0.004451 -0.725134
11  3.883511 -0.047212 0.431351  -0.279795 0.553083 -0.488973
12  1.719572 -0.000030 0.000018  0.002711 -0.070785 -0.961842
13  1.209180 0.000090 0.000013  -0.010762 -0.006973 -0.762710
14  4.085236 -0.082653 1.151008  0.025499 0.604578 -0.086052
15  1.719448 -0.000019 0.000030  -0.003946 -0.026040 -0.561722
16  1.099673 0.000049 0.000007  -0.052339 0.061959 -1.042030
17  1.059882 -1.545940 0.873876  -0.894241 -0.623407 -0.353559
18  1.789819 -0.000004 -0.000018  -0.000002 -0.009376 0.757285
19  1.207013 -0.000013 -0.000044  0.001023 -0.000035 -0.104167
20  5.740636 0.000388 -0.000699  -0.127928 0.000003 0.000064
21  11.481018 0.000267 -0.000809  -0.047508 -0.125043 0.003451
22  6.027525 -0.000330 0.000200  1.735773 -0.639534 1.527866
23  -0.000003 11.692099 -0.000006  -1.059407 -0.504251 -0.828893
24  0.000003 0.000007 -0.000000  -0.283187 -0.000031 1.570739
25  0.000000 -0.000012 0.000001  0.868960 0.000002 1.570712
26  -6.212011 -10.642979 0.826812  1.473120 1.855075 -0.198639
27  6.027511 -0.000260 -0.000221  1.468135 0.802148 -0.549172
28  11.691992 0.000161 0.000858  0.346040 0.000062 -1.697166
29  11.480616 0.000112 0.000834  -1.073140 0.660018 0.806599
30  3.859437 -0.132759 1.193065  0.469647 -0.013262 -1.872395
31  1.312559 0.000026 -0.000001  0.024060 -0.138696 -0.550187
32  0.729346 0.000064 -0.000027  -0.166197 -0.081570 -0.714272
33  3.942047 0.050139 0.431000  0.225309 -0.086237 -1.592712
34  1.539097 0.000005 -0.000000  0.035254 -0.050373 -0.994350
35  1.196300 0.000078 -0.000004  -0.021521 0.002175 -0.839738
36  3.883414 -0.050472 -0.431085  0.184824 -0.271737 -1.204030
37  1.719564 -0.000085 -0.000005  0.022859 -0.107186 -1.509108
38  1.209197 0.000035 0.000010  0.000661 0.071072 -0.480462
39  3.859588 -0.149081 -1.331322  -0.113059 -0.126939 -0.401435
40  1.719413 -0.000100 -0.000036  -0.010069 -0.019770 -1.319871
41  1.099673 0.000023 0.000007  -0.058928 0.047625 -0.916935
42  0.805984 -0.359848 -1.318339  0.991670 0.166767 -0.799527
43  1.789779 -0.000008 -0.000042  0.000058 -0.002451 0.133097
44  1.206997 -0.000007 0.000006  0.000372 -0.000071 1.058780
45  5.740573 0.000080 0.000721  0.132130 -0.000014 0.000028
46  11.481068 0.000097 0.000912  0.047516 0.135951 0.110697
47  6.027515 -0.000273 -0.000229  -0.980081 -0.524645 -1.478516
48  -0.000003 11.691976 -0.000008  -1.145312 0.588579 0.878874
49  0.000003 -0.000001 0.000000  2.618569 -0.000036 1.570860
50  -0.000009 -0.000013 0.000004  2.272645 -0.000036 1.570861
51  -2.990751 -3.602940 -7.064016  -0.056193 -2.986050 1.371189
52  0.000000 -0.000000 0.000000  0.008153 -0.000259 0.000009
53  0.000000 -0.000000 -0.000001  1.565115 0.043565 -0.106862
54  -0.215981 -14.120763 -5.216614  -1.040444 -0.127876 -1.927584
55  0.000000 -0.000001 -0.000000  0.000000 -0.000001 -0.000002
56  0.000030 0.000029 0.000001  -1.571901 -0.044449 -0.106509
57  5.661260 -16.060535 -17.872917  1.570796 -0.000000 0.000000
58  -16.319784 5.039393 -18.063972  1.570796 -0.000000 0.000000
59  1.066008 0.876422 -3.770892  1.570796 -0.000000 0.000000
60  -0.004311 0.001230 -0.000371  0.006898 -0.005534 -0.284229
61  0.826810 11.578514 -4.219014  1.570796 -0.000000 0.000000
62  0.000000 0.000000 0.000000  -0.078727 -3.136056 0.284226
63  -2.243053 -2.227381 -0.360343  1.570796 -0.000000 0.000000
64  -2.287862 -7.807436 -1.832813  1.565520 -0.006487 0.003441
65  0.085367 -2.603195 0.763119  0.174533 -0.000000 -0.000000
66  0.042352 -1.082367 2.254083  0.000000 -0.000000 -0.000000
67  0.048106 -0.032154 -1.710082  0.000000 -0.000000 -0.000000
68  0.042346 -1.082868 19.512426  0.000000 -0.000000 -0.000000
69  0.021362 -2.476557 2.118467  0.000000 -0.000000 -0.000000
70  0.654292 -1.873715 2.120182  0.000000 -0.000000 -0.261799
71  -0.612739 -1.349160 3.336716  0.000000 -0.000000 -0.000000
72  0.191117 -1.464234 2.836252  0.000000 -0.000000 -0.000000
73  -1.181944 -2.300501 17.060879  0.000000 -0.000000 -0.000000
74  -2.242695 -12.535250 -5.904994  1.565520 -0.006487 0.003441
75  -0.108895 2.446371 -1.870139  0.000000 -0.000000 -0.000000
76  0.188638 2.259805 -1.870139  0.000000 -0.000000 -0.000000
time 4
0  0.000006 0.000000 0.000000  -1.570800 -1.391899 -1.570792
1  -3.865520 -0.192010 1.061693  -1.544956 -1.855077 -0.198630
2  6.027523 -0.000323 0.000191  -0.914921 -0.921757 -1.352550
3  11.692108 0.000647 -0.000740  -1.152286 -0.000027 -1.524137
4  11.480268 0.000503 -0.000669  1.215053 -0.686681 0.200739
5  3.859503 -0.142824 -1.192079  -0.603309 -0.153254 -1.645038
6  1.312590 0.000010 0.000008  -0.134332 0.005764 -0.149076
7  0.729356 0.000053 0.000047  -0.006921 -0.010127 -0.171925
8  3.942140 0.046330 -0.431542  -0.437576 0.236645 -1.080252
9  1.539111 0.000082 0.000005  -0.023906 -0.071181 -0.773682
10  1.196332 0.000146 0.000030  0.006223 0.004451 -0.725134
11  3.883509 -0.047213 0.431351  -0.279795 0.553082 -0.488973
12  1.719574 -0.000029 0.000019  0.002711 -0.070785 -0.961842
13  1.209179 0.000090 0.000012  -0.010762 -0.006973 -0.762710
14  4.085235 -0.082654 1.151009  0.025499 0.604578 -0.086052
15  1.719448 -0.000020 0.000029  -0.003946 -0.026040 -0.561722
16  1.099675 0.000048 0.000005  -0.052339 0.061959 -1.042030
17  1.059883 -1.545940 0.873877  -0.894241 -0.623407 -0.353559
18  1.789819 -0.000002 -0.000018  -0.000002 -0.009376 0.757285
19  1.207015 -0.000013 -0.000044  0.001023 -0.000035 -0.104167
20  5.740637 0.000389 -0.000700  -0.124411 0.000003 0.000063
21  11.481061 0.000279 -0.000786  -0.048492 -0.121768 0.003927
22  6.027525 -0.000330 0.000200  1.729897 -0.632072 1.523830
23  -0.000002 11.692101 -0.000007  -1.043745 -0.489374 -0.819221
24  0.000004 0.000008 -0.000001  -0.283187 -0.000031 1.570739
25  0.000001 -0.000011 -0.000000  0.868960 0.000002 1.570712
26  -6.212011 -10.642979 0.826812  1.473120 1.855075 -0.198639
27  6.027511 -0.000260 -0.000220  1.471250 0.814454 -0.549088
28  11.691994 0.000159 0.000858  0.346040 0.000060 -1.673955
29  11.479034 -0.000730 0.001137  -1.077008 0.655817 0.799965
30  3.859438 -0.132759 1.193065  0.469647 -0.013262 -1.872395
31  1.312559 0.000027 -0.000001  0.024060 -0.138696 -0.550187
32  0.729345 0.000064 -0.000028  -0.166197 -0.081570 -0.714272
33  3.942047 0.050138 0.431000  0.225309 -0.086237 -1.592712
34  1.539096 0.000004 -0.000001  0.035254 -0.050373 -0.994350
35  1.196301 0.000077 -0.000004  -0.021521 0.002175 -0.839738
36  3.883414 -0.050473 -0.431084  0.184824 -0.271737 -1.204030
37  1.719563 -0.000085 -0.000004  0.022858 -0.107186 -1.509108
38  1.209197 0.000036 0.000011  0.000661 0.071072 -0.480462
39  3.859588 -0.149082 -1.331321  -0.113059 -0.126939 -0.401435
40  1.719411 -0.000100 -0.000037  -0.010069 -0.019770 -1.319871
41  1.099673 0.000022 0.000007  -0.058928 0.047625 -0.916935
42  0.805983 -0.359848 -1.318338  0.991670 0.166767 -0.799527
43  1.789780 -0.000008 -0.000042  0.000058 -0.002451 0.133098
44  1.206997 -0.000008 0.000005  0.000372 -0.000071 1.058780
45  5.740573 0.000079 0.000721  0.130583 -0.000014 0.000028
46  11.480752 -0.000072 0.000972  0.047568 0.134807 0.109987
47  6.027515 -0.000273 -0.000229  -0.989946 -0.515546 -1.475781
48  -0.000002 11.691977 -0.000006  -1.131714 0.574972 0.871360
49  0.000003 0.000000 0.000000  2.618569 -0.000036 1.570860
50  -0.000008 -0.000013 0.000005  2.272645 -0.000036 1.570861
51  -2.989173 -3.806105 -7.035263  -0.058422 -2.988959 1.367691
52  -0.000000 -0.000000 -0.000000  0.008153 -0.000259 0.000009
53  0.000000 -0.000001 0.000000  1.565115 0.043565 -0.106862
54  -0.251938 -14.340527 -5.226846  -1.043097 -0.125348 -1.931089
55  0.000001 0.000000 -0.000000  0.000000 -0.000001 -0.000002
56  0.000030 0.000029 0.000001  -1.571901 -0.044449 -0.106509
57  5.661260 -16.060535 -17.872917  1.570796 -0.000000 0.000000
58  -16.319784 5.039393 -18.063972  1.570796 -0.000000 0.000000
59  1.066008 0.876422 -3.770892  1.570796 -0.000000 0.000000
60  -0.004311 0.001230 -0.000371  0.006898 -0.005534 -0.284229
61  0.826810 11.578514 -4.219014  1.570796 -0.000000 0.000000
62  0.000000 0.000000 0.000000  -0.078727 -3.136056 0.284226
63  -2.243053 -2.227381 -0.360343  1.570796 -0.000000 0.000000
64  -2.294231 -8.030476 -1.819030  1.568813 -0.004916 -0.000417
65  0.085367 -2.603195 0.763118  0.174533 -0.000000 -0.000000
66  0.042352 -1.082367 2.254081  -0.000000 0.000000 -0.000000
67  0.048106 -0.032154 -1.710083  -0.000000 0.000000 -0.000000
68  0.042347 -1.082868 19.512426  -0.000000 0.000000 -0.000000
69  0.021362 -2.476557 2.118465  -0.000000 0.000000 -0.000000
70  0.654293 -1.873716 2.120180  0.000000 -0.000000 -0.261799
71  -0.612738 -1.349160 3.336715  -0.000000 0.000000 -0.000000
72  0.191118 -1.464234 2.836251  -0.000000 0.000000 -0.000000
73  -1.181944 -2.300501 17.060875  -0.000000 0.000000 -0.000000
74  -2.273624 -12.744988 -5.906800  1.568813 -0.004916 -0.000417
75  -0.108895 2.446372 -1.870139  -0.000000 0.000000 -0.000000
76  0.188638 2.259805 -1.870140  -0.000000 0.000000 -0.000000
time 5
0  0.000006 0.000000 0.000000  -1.570800 -1.391899 -1.570792
1  -3.865520 -0.192010 1.061693  -1.544956 -1.855077 -0.198630
2  6.027524 -0.000323 0.000191  -0.911911 -0.927491 -1.359998
3  11.692106 0.000646 -0.000739  -1.152286 -0.000026 -1.502458
4  11.480446 0.000551 -0.000569  1.212417 -0.672674 0.198157
5  3.859503 -0.142824 -1.192079  -0.603309 -0.153254 -1.645038
6  1.312590 0.000008 0.000007  -0.134332 0.005764 -0.149076
7  0.729356 0.000053 0.000048  -0.006921 -0.010127 -0.171925
8  3.942140 0.046330 -0.431543  -0.437576 0.236645 -1.080252
9  1.539111 0.000084 0.000005  -0.023906 -0.071181 -0.773682
10  1.196332 0.000146 0.000027  0.006223 0.004451 -0.725134
11  3.883510 -0.047212 0.431350  -0.279795 0.553082 -0.488974
12  1.719574 -0.000028 0.000017  0.002711 -0.070786 -0.961842
13  1.209178 0.000093 0.000014  -0.010762 -0.006973 -0.762710
14  4.085234 -0.082654 1.151008  0.025499 0.604578 -0.086052
15  1.719446 -0.000020 0.000028  -0.003946 -0.026040 -0.561722
16  1.099674 0.000049 0.000006  -0.052339 0.061959 -1.042030
17  1.059883 -1.545939 0.873876  -0.894241 -0.623407 -0.353559
18  1.789820 -0.000005 -0.000019  -0.000002 -0.009376 0.757285
19  1.207017 -0.000013 -0.000044  0.001023 -0.000035 -0.104167
20  5.740637 0.000389 -0.000700  -0.121983 0.000003 0.000064
21  11.481098 0.000287 -0.000765  -0.049610 -0.119017 0.003749
22  6.027525 -0.000330 0.000200  1.725888 -0.627006 1.521145
23  -0.000001 11.692097 -0.000006  -1.030923 -0.477324 -0.811184
24  0.000002 0.000009 0.000000  -0.283187 -0.000031 1.570739
25  -0.000001 -0.000012 0.000000  0.868960 0.000002 1.570712
26  -6.212011 -10.642979 0.826812  1.473120 1.855075 -0.198639
27  6.027511 -0.000260 -0.000220  1.473563 0.823514 -0.548964
28  11.691992 0.000160 0.000857  0.346040 0.000059 -1.654728
29  11.479160 -0.000674 0.001116  -1.083004 0.651080 0.792357
30  3.859437 -0.132759 1.193066  0.469647 -0.013262 -1.872395
31  1.312559 0.000027 -0.000001  0.024060 -0.138696 -0.550187
32  0.729346 0.000064 -0.000028  -0.166197 -0.081570 -0.714272
33  3.942046 0.050139 0.431001  0.225309 -0.086237 -1.592712
34  1.539097 0.000006 -0.000002  0.035254 -0.050373 -0.994350
35  1.196301 0.000078 -0.000003  -0.021521 0.002175 -0.839738
36  3.883413 -0.050472 -0.431084  0.184824 -0.271737 -1.204030
37  1.719564 -0.000084 -0.000005  0.022858 -0.107186 -1.509108
38  1.209198 0.000036 0.000011  0.000661 0.071072 -0.480462
39  3.859588 -0.149081 -1.331321  -0.113063 -0.118657 -0.380026
40  1.719411 -0.000100 -0.000035  -0.011540 -0.016584 -1.206548
41  1.099673 0.000023 0.000006  -0.054068 0.053868 -0.797051
42  0.805983 -0.359847 -1.318338  0.991670 0.166767 -0.799527
43  1.789780 -0.000008 -0.000042  0.000058 -0.002451 0.133098
44  1.206996 -0.000007 0.000005  0.000372 -0.000071 1.058781
45  5.740575 0.000079 0.000720  0.128625 -0.000014 0.000028
46  11.480778 -0.000061 0.000968  0.047339 0.133420 0.109272
47  6.027515 -0.000273 -0.000229  -0.997162 -0.508837 -1.473810
48  -0.000001 11.691975 -0.000007  -1.120449 0.563767 0.865020
49  0.000002 0.000000 -0.000001  2.618569 -0.000036 1.570860
50  -0.000007 -0.000014 0.000004  2.272645 -0.000036 1.570861
51  -2.997457 -3.974410 -7.025980  -0.062538 -2.991475 1.366246
52  0.000000 0.000000 -0.000000  0.008153 -0.000259 0.000009
53  -0.000000 -0.000000 0.000000  1.565115 0.043565 -0.106862
54  -0.275794 -14.520341 -5.261695  -1.047543 -0.123500 -1.932603
55  0.000001 0.000000 0.000000  0.000000 -0.000001 -0.000002
56  0.000031 0.000029 0.000001  -1.571901 -0.044449 -0.106509
57  5.661260 -16.060535 -17.872917  1.570796 -0.000000 0.000000
58  -16.319784 5.039393 -18.063972  1.570796 -0.000000 0.000000
59  1.066008 0.876422 -3.770892  1.570796 -0.000000 0.000000
60  -0.004311 0.001230 -0.000371  0.006898 -0.005534 -0.284229
61  0.826810 11.578514 -4.219014  1.570796 -0.000000 0.000000
62  0.000000 0.000000 0.000000  -0.078727 -3.136056 0.284226
63  -2.243053 -2.227381 -0.360343  1.570796 -0.000000 0.000000
64  -2.293163 -8.217346 -1.826095  1.572095 -0.001436 -0.002494
65  0.085367 -2.603195 0.763120  0.087266 -0.000000 -0.000000
66  0.042352 -1.082367 2.254082  0.000000 0.000000 0.000000
67  0.048106 -0.032154 -1.710083  0.000000 0.000000 0.000000
68  0.042346 -1.082868 19.512428  0.000000 0.000000 0.000000
69  0.021361 -2.476558 2.118467  0.000000 0.000000 0.000000
70  0.654292 -1.873716 2.120182  0.000000 -0.000000 -0.261799
71  -0.612739 -1.349160 3.336716  0.000000 0.000000 0.000000
72  0.191117 -1.464233 2.836250  0.000000 0.000000 0.000000
73  -1.181944 -2.300502 17.060879  0.000000 0.000000 0.000000
74  -2.296518 -12.918413 -5.929369  1.572095 -0.001436 -0.002494
75  -0.108895 2.446371 -1.870139  0.000000 0.000000 0.000000
76  0.188637 2.259805 -1.870139  0.000000 0.000000 0.000000
time 6
0  0.000006 0.000000 0.000000  -1.570800 -1.391899 -1.570792
1  -3.865520 -0.192010 1.061693  -1.544956 -1.855077 -0.198630
2  6.027524 -0.000323 0.000191  -0.911184 -0.928925 -1.361861
3  11.692107 0.000645 -0.000739  -1.152285 -0.000025 -1.493928
4  11.480515 0.000567 -0.000526  1.210848 -0.667292 0.194389
5  3.859504 -0.142823 -1.192079  -0.603309 -0.153254 -1.645038
6  1.312588 0.000010 0.000009  -0.134332 0.005764 -0.149076
7  0.729356 0.000054 0.000051  -0.006921 -0.010127 -0.171925
8  3.942142 0.046331 -0.431543  -0.437576 0.236645 -1.080252
9  1.539111 0.000080 0.000003  -0.023906 -0.071181 -0.773682
10  1.196331 0.000146 0.000028  0.006223 0.004451 -0.725134
11  3.883510 -0.047213 0.431351  -0.279795 0.553083 -0.488973
12  1.719573 -0.000029 0.000019  0.002711 -0.070786 -0.961842
13  1.209178 0.000091 0.000013  -0.010762 -0.006973 -0.762710
14  4.085236 -0.082654 1.151009  0.025499 0.604578 -0.086052
15  1.719449 -0.000018 0.000028  -0.003946 -0.026040 -0.561722
16  1.099677 0.000049 0.000006  -0.052339 0.061959 -1.042030
17  1.059882 -1.545939 0.873876  -0.894241 -0.623407 -0.353559
18  1.789819 -0.000003 -0.000017  -0.000002 -0.009376 0.757285
19  1.207017 -0.000013 -0.000044  0.001023 -0.000035 -0.104167
20  5.740637 0.000387 -0.000699  -0.121400 0.000003 0.000063
21  11.481111 0.000291 -0.000757  -0.050271 -0.117907 0.003113
22  6.027525 -0.000330 0.000200  1.724914 -0.625733 1.520436
23  -0.000002 11.692097 -0.000007  -1.025871 -0.472607 -0.807987
24  0.000003 0.000010 -0.000000  -0.283187 -0.000031 1.570738
25  -0.000000 -0.000012 -0.000000  0.868960 0.000002 1.570712
26  -6.212011 -10.642979 0.826812  1.473120 1.855075 -0.198639
27  6.027511 -0.000260 -0.000220  1.474869 0.826187 -0.548640
28  11.691991 0.000159 0.000858  0.346039 0.000058 -1.646684
29  11.479210 -0.000647 0.001108  -1.088533 0.647338 0.786490
30  3.859437 -0.132759 1.193065  0.469647 -0.013262 -1.872395
31  1.312559 0.000026 -0.000001  0.024060 -0.138696 -0.550187
32  0.729346 0.000064 -0.000027  -0.166197 -0.081570 -0.714272
33  3.942047 0.050139 0.431000  0.225309 -0.086237 -1.592712
34  1.539097 0.000006 -0.000001  0.035254 -0.050373 -0.994350
35  1.196300 0.000078 -0.000003  -0.021521 0.002175 -0.839738
36  3.883414 -0.050472 -0.431084  0.184824 -0.271737 -1.204030
37  1.719564 -0.000084 -0.000004  0.022859 -0.107186 -1.509108
38  1.209197 0.000036 0.000012  0.000661 0.071072 -0.480462
39  3.859589 -0.149081 -1.331322  -0.111818 -0.106500 -0.356259
40  1.719413 -0.000100 -0.000035  -0.012582 -0.011185 -1.093244
41  1.099673 0.000024 0.000007  -0.044887 0.060279 -0.677004
42  0.805984 -0.359848 -1.318338  0.991670 0.166767 -0.799527
43  1.789780 -0.000009 -0.000042  0.000058 -0.002451 0.133098
44  1.206996 -0.000007 0.000005  0.000372 -0.000071 1.058781
45  5.740571 0.000080 0.000720  0.127176 -0.000014 0.000028
46  11.480785 -0.000055 0.000966  0.047003 0.132283 0.108784
47  6.027515 -0.000273 -0.000229  -0.998994 -0.506520 -1.473556
48  -0.000001 11.691975 -0.000008  -1.115735 0.559097 0.862337
49  0.000004 0.000000 -0.000000  2.618569 -0.000036 1.570860
50  -0.000007 -0.000015 0.000004  2.272645 -0.000036 1.570861
51  -3.015514 -4.045434 -7.032688  -0.066286 -2.992235 1.367404
52  -0.000000 -0.000000 -0.000000  0.008153 -0.000259 0.000009
53  0.000000 -0.000000 -0.000000  1.565115 0.043565 -0.106862
54  -0.281443 -14.592354 -5.293655  -1.051353 -0.123330 -1.931535
55  -0.000000 -0.000001 0.000000  0.000000 -0.000001 -0.000002
56  0.000030 0.000028 0.000001  -1.571901 -0.044449 -0.106509
57  5.661260 -16.060535 -17.872917  1.570796 -0.000000 0.000000
58  -16.319784 5.039393 -18.063972  1.570796 -0.000000 0.000000
59  1.066008 0.876422 -3.770892  1.570796 -0.000000 0.000000
60  -0.004311 0.001230 -0.000371  0.006898 -0.005534 -0.284229
61  0.826810 11.578514 -4.219014  1.570796 -0.000000 0.000000
62  0.000000 0.000000 0.000000  -0.078727 -3.136056 0.284226
63  -2.243053 -2.227381 -0.360343  1.570796 -0.000000 0.000000
64  -2.290617 -8.295711 -1.841636  1.573583 0.002043 -0.001895
65  0.085367 -2.603195 0.763121  -0.000000 -0.000000 -0.000000
66  0.042352 -1.082367 2.254083  -0.000000 -0.000000 -0.000000
67  0.048106 -0.032153 -1.710081  -0.000000 -0.000000 -0.000000
68  0.042346 -1.082868 19.512426  -0.000000 -0.000000 -0.000000
69  0.021362 -2.476557 2.118467  -0.000000 -0.000000 -0.000000
70  0.654293 -1.873716 2.120182  0.000000 0.000000 -0.261799
71  -0.612739 -1.349160 3.336717  -0.000000 -0.000000 -0.000000
72  0.191118 -1.464234 2.836252  -0.000000 -0.000000 -0.000000
73  -1.181944 -2.300502 17.060879  -0.000000 -0.000000 -0.000000
74  -2.305431 -12.990644 -5.951905  1.573583 0.002043 -0.001895
75  -0.108895 2.446371 -1.870140  -0.000000 -0.000000 -0.000000
76  0.188637 2.259805 -1.870140  -0.000000 -0.000000 -0.000000
time 7
0  0.000006 0.000000 0.000000  -1.570800 -1.391899 -1.570792
1  -3.865520 -0.192010 1.061693  -1.544956 -1.855077 -0.198630
2  6.027524 -0.000323 0.000191  -0.912056 -0.927101 -1.359468
3  11.692106 0.000646 -0.000739  -1.152285 -0.000025 -1.497348
4  11.480488 0.000560 -0.000544  1.210678 -0.669101 0.191914
5  3.859504 -0.142823 -1.192080  -0.603309 -0.153254 -1.645038
6  1.312590 0.000009 0.000010  -0.134332 0.005764 -0.149076
7  0.729355 0.000053 0.000048  -0.006921 -0.010127 -0.171925
8  3.942142 0.046331 -0.431543  -0.437576 0.236645 -1.080252
9  1.539110 0.000083 0.000004  -0.023906 -0.071181 -0.773682
10  1.196332 0.000146 0.000027  0.006223 0.004451 -0.725134
11  3.883512 -0.047212 0.431351  -0.279795 0.553082 -0.488973
12  1.719571 -0.000028 0.000015  0.002711 -0.070786 -0.961842
13  1.209178 0.000091 0.000013  -0.010762 -0.006973 -0.762710
14  4.085236 -0.082653 1.151009  0.025499 0.604578 -0.086052
15  1.719448 -0.000020 0.000027  -0.003946 -0.026040 -0.561722
16  1.099674 0.000049 0.000008  -0.052339 0.061959 -1.042030
17  1.059883 -1.545939 0.873876  -0.894241 -0.623407 -0.353559
18  1.789819 -0.000004 -0.000018  -0.000002 -0.009376 0.757285
19  1.207012 -0.000013 -0.000044  0.001023 -0.000035 -0.104167
20  5.740636 0.000388 -0.000699  -0.122068 0.000003 0.000063
21  11.481105 0.000289 -0.000760  -0.050356 -0.118208 0.002566
22  6.027525 -0.000330 0.000200  1.726116 -0.627361 1.521427
23  -0.000003 11.692098 -0.000007  -1.027897 -0.474496 -0.809271
24  0.000002 0.000009 0.000000  -0.283187 -0.000031 1.570739
25  -0.000000 -0.000011 -0.000000  0.868960 0.000002 1.570712
26  -6.212011 -10.642979 0.826812  1.473120 1.855075 -0.198639
27  6.027511 -0.000260 -0.000220  1.474423 0.823725 -0.548603
28  11.691992 0.000160 0.000857  0.346039 0.000058 -1.649286
29  11.479196 -0.000655 0.001109  -1.090705 0.647007 0.784677
30  3.859437 -0.132758 1.193066  0.469647 -0.013262 -1.872395
31  1.312559 0.000025 -0.000001  0.024060 -0.138696 -0.550187
32  0.729345 0.000064 -0.000029  -0.166197 -0.081570 -0.714272
33  3.942046 0.050139 0.431000  0.225309 -0.086237 -1.592712
34  1.539097 0.000005 -0.000001  0.035254 -0.050373 -0.994350
35  1.196300 0.000077 -0.000003  -0.021521 0.002175 -0.839738
36  3.883414 -0.050472 -0.431084  0.184824 -0.271737 -1.204030
37  1.719563 -0.000083 -0.000005  0.022859 -0.107186 -1.509108
38  1.209197 0.000035 0.000011  0.000661 0.071072 -0.480462
39  3.859588 -0.149081 -1.331321  -0.108878 -0.098349 -0.353800
40  1.719414 -0.000099 -0.000036  -0.012253 -0.007212 -1.127905
41  1.099673 0.000024 0.000007  -0.032751 0.044149 -0.701940
42  0.805983 -0.359847 -1.318338  0.991670 0.166767 -0.799527
43  1.789780 -0.000009 -0.000043  0.000058 -0.002451 0.133098
44  1.206996 -0.000008 0.000005  0.000372 -0.000071 1.058780
45  5.740573 0.000079 0.000721  0.126738 -0.000014 0.000028
46  11.480783 -0.000056 0.000967  0.046744 0.132054 0.108615
47  6.027515 -0.000273 -0.000229  -0.996952 -0.508243 -1.474182
48  -0.000001 11.691975 -0.000006  -1.117260 0.560606 0.863207
49  0.000002 -0.000000 -0.000000  2.618569 -0.000036 1.570860
50  -0.000007 -0.000014 0.000005  2.272645 -0.000036 1.570861
51  -3.026258 -4.023182 -7.049517  -0.067734 -2.991354 1.368934
52  0.000000 -0.000000 -0.000000  0.008153 -0.000259 0.000009
53  -0.000000 0.000000 0.000000  1.565115 0.043565 -0.106862
54  -0.275583 -14.565496 -5.308753  -1.052638 -0.124425 -1.930062
55  -0.000001 0.000000 -0.000000  0.000000 -0.000001 -0.000002
56  0.000028 0.000030 0.000001  -1.571902 -0.044449 -0.106509
57  5.661260 -16.060535 -17.872917  1.570796 -0.000000 0.000000
58  -16.319784 5.039393 -18.063972  1.570796 -0.000000 0.000000
59  1.066008 0.876422 -3.770892  1.570796 -0.000000 0.000000
60  -0.004311 0.001230 -0.000371  0.006898 -0.005534 -0.284229
61  0.826810 11.578514 -4.219014  1.570796 -0.000000 0.000000
62  0.000000 0.000000 0.000000  -0.078727 -3.136056 0.284226
63  -2.243053 -2.227381 -0.360343  1.570796 -0.000000 0.000000
64  -2.287578 -8.269511 -1.857178  1.573006 0.003622 -0.000582
65  0.085367 -2.603195 0.763119  -0.000000 0.000000 -0.000000
66  0.042352 -1.082367 2.254082  -0.000000 0.000000 -0.000000
67  0.048106 -0.032154 -1.710082  -0.000000 0.000000 -0.000000
68  0.042346 -1.082868 19.512426  -0.000000 0.000000 -0.000000
69  0.021362 -2.476557 2.118466  -0.000000 0.000000 -0.000000
70  0.654292 -1.873716 2.120181  -0.000000 -0.000000 -0.261799
71  -0.612739 -1.349160 3.336716  -0.000000 0.000000 -0.000000
72  0.191117 -1.464234 2.836250  -0.000000 0.000000 -0.000000
73  -1.181944 -2.300502 17.060879  -0.000000 0.000000 -0.000000
74  -2.302712 -12.966826 -5.964723  1.573006 0.003622 -0.000582
75  -0.108895 2.446371 -1.870140  -0.000000 0.000000 -0.000000
76  0.188637 2.259804 -1.870140  -0.000000 0.000000 -0.000000
time 8
0  0.000006 0.000000 0.000000  -1.570800 -1.391899 -1.570792
1  -3.865520 -0.192010 1.061693  -1.544956 -1.855077 -0.198630
2  6.027523 -0.000323 0.000191  -0.913784 -0.925000 -1.356753
3  11.692106 0.000646 -0.000739  -1.152286 -0.000026 -1.503472
4  11.480435 0.000548 -0.000574  1.212380 -0.672700 0.191674
5  3.859504 -0.142823 -1.192080  -0.603309 -0.153254 -1.645038
6  1.312590 0.000010 0.000010  -0.134332 0.005764 -0.149076
7  0.729355 0.000054 0.000048  -0.006921 -0.010127 -0.171925
8  3.942141 0.046331 -0.431543  -0.437576 0.236645 -1.080252
9  1.539111 0.000084 0.000004  -0.023906 -0.071181 -0.773682
10  1.196332 0.000144 0.000029  0.006223 0.004451 -0.725134
11  3.883512 -0.047212 0.431351  -0.279795 0.553082 -0.488973
12  1.719572 -0.000028 0.000018  0.002711 -0.070785 -0.961842
13  1.209178 0.000091 0.000014  -0.010762 -0.006973 -0.762710
14  4.085235 -0.082653 1.151009  0.025499 0.604578 -0.086052
15  1.719448 -0.000019 0.000026  -0.003946 -0.026040 -0.561722
16  1.099674 0.000049 0.000006  -0.052339 0.061959 -1.042030
17  1.059883 -1.545939 0.873876  -0.894241 -0.623407 -0.353559
18  1.789817 -0.000004 -0.000018  -0.000002 -0.009376 0.757285
19  1.207013 -0.000014 -0.000043  0.001023 -0.000035 -0.104167
20  5.740636 0.000389 -0.000700  -0.122541 0.000003 0.000063
21  11.481092 0.000288 -0.000767  -0.049928 -0.118879 0.002508
22  6.027525 -0.000330 0.000200  1.728029 -0.629121 1.521636
23  -0.000002 11.692097 -0.000007  -1.031524 -0.477885 -0.811562
24  0.000004 0.000008 0.000000  -0.283187 -0.000031 1.570739
25  0.000000 -0.000012 -0.000000  0.868960 0.000002 1.570712
26  -6.212011 -10.642979 0.826812  1.473120 1.855075 -0.198639
27  6.027511 -0.000260 -0.000220  1.473225 0.821021 -0.548871
28  11.691991 0.000159 0.000858  0.346039 0.000059 -1.653920
29  11.479165 -0.000672 0.001115  -1.089569 0.648068 0.784889
30  3.859437 -0.132758 1.193065  0.469647 -0.013262 -1.872395
31  1.312559 0.000027 -0.000002  0.024060 -0.138696 -0.550187
32  0.729346 0.000064 -0.000028  -0.166197 -0.081570 -0.714272
33  3.942046 0.050139 0.431000  0.225309 -0.086237 -1.592712
34  1.539097 0.000006 -0.000001  0.035254 -0.050373 -0.994350
35  1.196301 0.000078 -0.000004  -0.021521 0.002175 -0.839738
36  3.883414 -0.050472 -0.431084  0.184824 -0.271737 -1.204030
37  1.719564 -0.000084 -0.000005  0.022858 -0.107186 -1.509108
38  1.209197 0.000035 0.000011  0.000661 0.071072 -0.480462
39  3.859588 -0.149082 -1.331321  -0.105152 -0.090085 -0.354159
40  1.719413 -0.000099 -0.000036  -0.011884 -0.003584 -1.202103
41  1.099673 0.000024 0.000007  -0.013915 0.008453 -0.755994
42  0.805983 -0.359847 -1.318338  0.991670 0.166767 -0.799527
43  1.789780 -0.000009 -0.000043  0.000058 -0.002451 0.133097
44  1.206997 -0.000007 0.000006  0.000372 -0.000071 1.058780
45  5.740573 0.000078 0.000721  0.127034 -0.000014 0.000028
46  11.480778 -0.000062 0.000968  0.046840 0.132316 0.108511
47  6.027515 -0.000273 -0.000229  -0.995040 -0.510521 -1.474505
48  -0.000002 11.691975 -0.000007  -1.119976 0.563297 0.864751
49  0.000003 -0.000000 -0.000000  2.618569 -0.000036 1.570860
50  -0.000007 -0.000013 0.000005  2.272645 -0.000036 1.570861
51  -3.024529 -3.982091 -7.062642  -0.066571 -2.990293 1.370072
52  0.000000 0.000000 0.000000  0.008153 -0.000259 0.000009
53  0.000000 0.000000 0.000000  1.565115 0.043565 -0.106862
54  -0.261620 -14.518565 -5.305979  -1.051326 -0.125292 -1.928913
55  -0.000000 -0.000001 -0.000000  0.000000 -0.000001 -0.000002
56  0.000030 0.000028 0.000001  -1.571901 -0.044449 -0.106509
57  5.661260 -16.060535 -17.872917  1.570796 -0.000000 0.000000
58  -16.319784 5.039393 -18.063972  1.570796 -0.000000 0.000000
59  1.066008 0.876422 -3.770892  1.570796 -0.000000 0.000000
60  -0.004311 0.001230 -0.000371  0.006898 -0.005534 -0.284229
61  0.826810 11.578514 -4.219014  1.570796 -0.000000 0.000000
62  0.000000 0.000000 0.000000  -0.078727 -3.136056 0.284226
63  -2.243053 -2.227381 -0.360343  1.570796 -0.000000 0.000000
64  -2.285031 -8.220856 -1.864243  1.571736 0.002708 0.000726
65  0.085367 -2.603194 0.763118  -0.000000 -0.000000 -0.000000
66  0.042352 -1.082367 2.254082  -0.000000 -0.000000 -0.000000
67  0.048106 -0.032154 -1.710083  -0.000000 -0.000000 -0.000000
68  0.042346 -1.082868 19.512426  -0.000000 -0.000000 -0.000000
69  0.021361 -2.476558 2.118466  -0.000000 -0.000000 -0.000000
70  0.654292 -1.873716 2.120181  -0.000000 0.000000 -0.261799
71  -0.612739 -1.349160 3.336716  -0.000000 -0.000000 -0.000000
72  0.191118 -1.464233 2.836251  -0.000000 -0.000000 -0.000000
73  -1.181944 -2.300502 17.060879  -0.000000 -0.000000 -0.000000
74  -2.290243 -12.923393 -5.965830  1.571736 0.002708 0.000726
75  -0.108895 2.446372 -1.870139  -0.000000 -0.000000 -0.000000
76  0.188638 2.259805 -1.870139  -0.000000 -0.000000 -0.000000
time 9
0  0.000006 0.000000 0.000000  -1.570800 -1.391899 -1.570792
1  -3.865520 -0.192010 1.061693  -1.544956 -1.855077 -0.198630
2  6.027523 -0.000323 0.000191  -0.915096 -0.924262 -1.355835
3  11.692108 0.000646 -0.000740  -1.152286 -0.000026 -1.506716
4  11.480408 0.000541 -0.000588  1.214818 -0.674484 0.192669
5  3.859502 -0.142825 -1.192079  -0.603309 -0.153254 -1.645038
6  1.312590 0.000010 0.000006  -0.134332 0.005764 -0.149076
7  0.729353 0.000054 0.000048  -0.006921 -0.010127 -0.171925
8  3.942141 0.046330 -0.431542  -0.437576 0.236645 -1.080252
9  1.539110 0.000081 0.000003  -0.023906 -0.071181 -0.773682
10  1.196333 0.000145 0.000028  0.006223 0.004451 -0.725134
11  3.883510 -0.047213 0.431351  -0.279795 0.553082 -0.488973
12  1.719574 -0.000027 0.000018  0.002711 -0.070786 -0.961842
13  1.209179 0.000089 0.000011  -0.010762 -0.006973 -0.762710
14  4.085233 -0.082654 1.151008  0.025499 0.604578 -0.086052
15  1.719448 -0.000018 0.000029  -0.003946 -0.026040 -0.561722
16  1.099675 0.000049 0.000005  -0.052339 0.061959 -1.042030
17  1.059882 -1.545940 0.873876  -0.894241 -0.623407 -0.353559
18  1.789819 -0.000004 -0.000017  -0.000002 -0.009376 0.757285
19  1.207016 -0.000014 -0.000044  0.001023 -0.000035 -0.104167
20  5.740635 0.000389 -0.000701  -0.122382 0.000003 0.000063
21  11.481088 0.000286 -0.000770  -0.049371 -0.119210 0.002800
22  6.027525 -0.000330 0.000200  1.729210 -0.629627 1.520811
23  -0.000001 11.692099 -0.000007  -1.033444 -0.479683 -0.812772
24  0.000003 0.000009 0.000000  -0.283187 -0.000031 1.570739
25  0.000000 -0.000012 -0.000001  0.868960 0.000002 1.570712
26  -6.212011 -10.642979 0.826812  1.473120 1.855075 -0.198639
27  6.027511 -0.000260 -0.000220  1.472108 0.820178 -0.549280
28  11.691992 0.000161 0.000857  0.346040 0.000059 -1.655958
29  11.479151 -0.000678 0.001118  -1.087286 0.649401 0.785092
30  3.859437 -0.132758 1.193065  0.469647 -0.013262 -1.872395
31  1.312559 0.000027 -0.000002  0.024060 -0.138696 -0.550187
32  0.729345 0.000065 -0.000028  -0.166197 -0.081570 -0.714273
33  3.942047 0.050139 0.431000  0.225309 -0.086237 -1.592712
34  1.539096 0.000005 -0.000001  0.035254 -0.050373 -0.994350
35  1.196300 0.000078 -0.000003  -0.021521 0.002175 -0.839738
36  3.883413 -0.050473 -0.431084  0.184824 -0.271737 -1.204030
37  1.719564 -0.000084 -0.000005  0.022859 -0.107186 -1.509108
38  1.209197 0.000037 0.000011  0.000661 0.071072 -0.480462
39  3.859588 -0.149082 -1.331321  -0.103630 -0.086987 -0.354791
40  1.719413 -0.000098 -0.000036  -0.011786 -0.002292 -1.236752
41  1.099674 0.000023 0.000007  -0.005167 -0.008051 -0.781464
42  0.805983 -0.359848 -1.318339  0.991670 0.166767 -0.799527
43  1.789780 -0.000009 -0.000042  0.000058 -0.002451 0.133098
44  1.206997 -0.000007 0.000005  0.000372 -0.000071 1.058780
45  5.740573 0.000079 0.000722  0.127476 -0.000014 0.000028
46  11.480775 -0.000062 0.000969  0.047113 0.132691 0.108306
47  6.027515 -0.000273 -0.000229  -0.994792 -0.511636 -1.474218
48  -0.000002 11.691976 -0.000007  -1.121170 0.564482 0.865429
49  0.000003 -0.000000 -0.000001  2.618569 -0.000036 1.570860
50  -0.000007 -0.000013 0.000005  2.272645 -0.000036 1.570861
51  -3.015531 -3.962937 -7.068773  -0.064322 -2.989449 1.370329
52  0.000000 -0.000000 -0.000000  0.008153 -0.000259 0.000009
53  -0.000000 -0.000000 -0.000000  1.565115 0.043565 -0.106862
54  -0.249886 -14.495519 -5.293175  -1.048980 -0.125777 -1.928610
55  -0.000001 0.000000 0.000000  0.000000 -0.000001 -0.000002
56  0.000030 0.000029 0.000001  -1.571901 -0.044449 -0.106509
57  5.661260 -16.060535 -17.872917  1.570796 -0.000000 0.000000
58  -16.319784 5.039393 -18.063972  1.570796 -0.000000 0.000000
59  1.066008 0.876422 -3.770892  1.570796 -0.000000 0.000000
60  -0.004311 0.001230 -0.000371  0.006898 -0.005534 -0.284229
61  0.826810 11.578514 -4.219014  1.570796 -0.000000 0.000000
62  0.000000 0.000000 0.000000  -0.078727 -3.136056 0.284226
63  -2.243053 -2.227381 -0.360343  1.570796 -0.000000 0.000000
64  -2.283964 -8.194656 -1.863517  1.570464 0.000699 0.001321
65  0.085367 -2.603195 0.763119  0.000000 -0.000000 0.000000
66  0.042352 -1.082367 2.254082  0.000000 -0.000000 0.000000
67  0.048106 -0.032154 -1.710082  0.000000 -0.000000 0.000000
68  0.042346 -1.082868 19.512426  0.000000 -0.000000 0.000000
69  0.021362 -2.476557 2.118467  0.000000 -0.000000 0.000000
70  0.654292 -1.873716 2.120182  0.000000 -0.000000 -0.261799
71  -0.612738 -1.349160 3.336717  0.000000 -0.000000 0.000000
72  0.191117 -1.464234 2.836251  0.000000 -0.000000 0.000000
73  -1.181944 -2.300501 17.060875  0.000000 -0.000000 0.000000
74  -2.278128 -12.902399 -5.959129  1.570464 0.000699 0.001321
75  -0.108895 2.446371 -1.870139  0.000000 -0.000000 0.000000
76  0.188637 2.259805 -1.870139  0.000000 -0.000000 0.000000
time 10
0  0.000006 0.000000 0.000000  -1.570800 -1.391899 -1.570792
1  -3.865520 -0.192010 1.061693  -1.544956 -1.855077 -0.198630
2  6.027523 -0.000323 0.000191  -0.915635 -0.924725 -1.356470
3  11.692107 0.000645 -0.000738  -1.152286 -0.000026 -1.506091
4  11.480413 0.000542 -0.000584  1.216786 -0.673862 0.193960
5  3.859504 -0.142823 -1.192079  -0.603309 -0.153254 -1.645038
6  1.312590 0.000010 0.000006  -0.134332 0.005764 -0.149076
7  0.729355 0.000054 0.000048  -0.006921 -0.010127 -0.171925
8  3.942141 0.046332 -0.431543  -0.437576 0.236645 -1.080252
9  1.539110 0.000081 0.000002  -0.023906 -0.071181 -0.773682
10  1.196333 0.000145 0.000028  0.006223 0.004451 -0.725134
11  3.883511 -0.047212 0.431352  -0.279795 0.553082 -0.488973
12  1.719572 -0.000029 0.000018  0.002711 -0.070785 -0.961842
13  1.209179 0.000090 0.000011  -0.010762 -0.006973 -0.762710
14  4.085235 -0.082652 1.151008  0.025499 0.604578 -0.086052
15  1.719447 -0.000018 0.000026  -0.003946 -0.026040 -0.561722
16  1.099674 0.000048 0.000005  -0.052339 0.061959 -1.042030
17  1.059882 -1.545938 0.873876  -0.894241 -0.623407 -0.353559
18  1.789818 -0.000005 -0.000018  -0.000002 -0.009376 0.757285
19  1.207015 -0.000013 -0.000044  0.001023 -0.000035 -0.104167
20  5.740635 0.000389 -0.000698  -0.121731 0.000003 0.000064
21  11.481090 0.000286 -0.000767  -0.048971 -0.119084 0.003201
22  6.027525 -0.000330 0.000200  1.729447 -0.629095 1.519607
23  -0.000000 11.692098 -0.000007  -1.033074 -0.479336 -0.812539
24  0.000003 0.000009 0.000000  -0.283187 -0.000030 1.570738
25  0.000001 -0.000012 -0.000000  0.868960 0.000002 1.570712
26  -6.212011 -10.642979 0.826812  1.473120 1.855075 -0.198639
27  6.027511 -0.000260 -0.000220  1.471316 0.821102 -0.549720
28  11.691993 0.000161 0.000859  0.346039 0.000059 -1.654785
29  11.479156 -0.000675 0.001117  -1.085087 0.650293 0.784898
30  3.859438 -0.132758 1.193065  0.469647 -0.013262 -1.872395
31  1.312559 0.000024 -0.000001  0.024060 -0.138696 -0.550187
32  0.729346 0.000064 -0.000027  -0.166197 -0.081570 -0.714272
33  3.942046 0.050139 0.431000  0.225309 -0.086237 -1.592712
34  1.539097 0.000005 -0.000001  0.035254 -0.050373 -0.994350
35  1.196301 0.000078 -0.000003  -0.021521 0.002175 -0.839738
36  3.883413 -0.050472 -0.431084  0.184824 -0.271737 -1.204030
37  1.719564 -0.000085 -0.000004  0.022858 -0.107186 -1.509108
38  1.209198 0.000035 0.000011  0.000661 0.071072 -0.480462
39  3.859589 -0.149082 -1.331321  -0.103630 -0.086987 -0.354791
40  1.719412 -0.000098 -0.000035  -0.011786 -0.002292 -1.236752
41  1.099674 0.000024 0.000007  -0.005167 -0.008051 -0.781464
42  0.805983 -0.359848 -1.318338  0.991670 0.166767 -0.799527
43  1.789780 -0.000008 -0.000042  0.000058 -0.002451 0.133098
44  1.206996 -0.000008 0.000005  0.000372 -0.000071 1.058780
45  5.740572 0.000079 0.000721  0.127778 -0.000014 0.000028
46  11.480774 -0.000062 0.000969  0.047431 0.132973 0.108059
47  6.027515 -0.000273 -0.000229  -0.996011 -0.511510 -1.473482
48  -0.000001 11.691977 -0.000007  -1.120483 0.563800 0.865039
49  0.000002 0.000000 0.000000  2.618569 -0.000036 1.570860
50  -0.000007 -0.000012 0.000005  2.272645 -0.000036 1.570861
51  -3.004866 -3.971555 -7.070857  -0.062213 -2.989285 1.369872
52  0.000000 0.000000 -0.000000  0.008153 -0.000259 0.000009
53  -0.000000 0.000000 0.000000  1.565115 0.043565 -0.106862
54  -0.244243 -14.503489 -5.283631  -1.046878 -0.125613 -1.929010
55  -0.000000 -0.000000 0.000000  0.000000 -0.000001 -0.000002
56  0.000030 0.000029 0.000001  -1.571902 -0.044449 -0.106509
57  5.661260 -16.060535 -17.872917  1.570796 -0.000000 0.000000
58  -16.319784 5.039393 -18.063972  1.570796 -0.000000 0.000000
59  1.066008 0.876422 -3.770892  1.570796 -0.000000 0.000000
60  -0.004311 0.001230 -0.000371  0.006898 -0.005534 -0.284229
61  0.826810 11.578514 -4.219014  1.570796 -0.000000 0.000000
62  0.000000 0.000000 0.000000  -0.078727 -3.136056 0.284226
63  -2.243053 -2.227381 -0.360343  1.570796 -0.000000 0.000000
64  -2.284344 -8.200372 -1.861702  1.569885 -0.001310 0.001184
65  0.085367 -2.603195 0.763120  -0.000000 0.000000 0.000000
66  0.042352 -1.082367 2.254084  -0.000000 0.000000 0.000000
67  0.048106 -0.032154 -1.710082  -0.000000 0.000000 0.000000
68  0.042346 -1.082868 19.512426  -0.000000 0.000000 0.000000
69  0.021362 -2.476558 2.118467  -0.000000 0.000000 0.000000
70  0.654292 -1.873716 2.120182  0.000000 0.000000 -0.261799
71  -0.612738 -1.349160 3.336718  -0.000000 0.000000 0.000000
72  0.191118 -1.464234 2.836252  -0.000000 0.000000 0.000000
73  -1.181944 -2.300502 17.060879  -0.000000 0.000000 0.000000
74  -2.270923 -12.910477 -5.954579  1.569885 -0.001310 0.001184
75  -0.108895 2.446371 -1.870138  -0.000000 0.000000 0.000000
76  0.188638 2.259804 -1.870139  -0.000000 0.000000 0.000000
time 11
0  0.000006 0.000000 0.000000  -1.570800 -1.391899 -1.570792
1  -3.865520 -0.192010 1.061693  -1.544956 -1.855077 -0.198630
2  6.027524 -0.000323 0.000191  -0.915579 -0.925349 -1.357290
3  11.692105 0.000646 -0.000739  -1.152286 -0.000026 -1.504514
4  11.480426 0.000546 -0.000579  1.217348 -0.672895 0.194796
5  3.859504 -0.142824 -1.192080  -0.603309 -0.153254 -1.645038
6  1.312589 0.000009 0.000008  -0.134332 0.005764 -0.149076
7  0.729355 0.000054 0.000048  -0.006921 -0.010127 -0.171925
8  3.942141 0.046330 -0.431543  -0.437576 0.236645 -1.080252
9  1.539111 0.000081 0.000005  -0.023906 -0.071181 -0.773682
10  1.196333 0.000145 0.000028  0.006223 0.004451 -0.725134
11  3.883511 -0.047213 0.431351  -0.279795 0.553082 -0.488973
12  1.719573 -0.000027 0.000017  0.002711 -0.070786 -0.961842
13  1.209178 0.000090 0.000011  -0.010762 -0.006973 -0.762710
14  4.085236 -0.082654 1.151009  0.025499 0.604578 -0.086052
15  1.719446 -0.000019 0.000028  -0.003946 -0.026040 -0.561722
16  1.099674 0.000049 0.000008  -0.052339 0.061959 -1.042030
17  1.059883 -1.545939 0.873876  -0.894241 -0.623407 -0.353559
18  1.789819 -0.000004 -0.000018  -0.000002 -0.009376 0.757285
19  1.207014 -0.000013 -0.000043  0.001023 -0.000035 -0.104167
20  5.740635 0.000389 -0.000699  -0.121302 0.000003 0.000063
21  11.481092 0.000287 -0.000767  -0.048862 -0.118904 0.003431
22  6.027525 -0.000330 0.000200  1.729205 -0.628502 1.518974
23  -0.000002 11.692098 -0.000006  -1.032140 -0.478462 -0.811951
24  0.000003 0.000009 0.000001  -0.283187 -0.000031 1.570739
25  -0.000001 -0.000011 -0.000000  0.868960 0.000002 1.570712
26  -6.212011 -10.642979 0.826812  1.473120 1.855075 -0.198639
27  6.027511 -0.000260 -0.000220  1.471188 0.822153 -0.549881
28  11.691992 0.000161 0.000857  0.346040 0.000059 -1.653262
29  11.479169 -0.000668 0.001115  -1.084029 0.650415 0.785014
30  3.859438 -0.132758 1.193065  0.469647 -0.013262 -1.872395
31  1.312558 0.000025 -0.000001  0.024060 -0.138696 -0.550187
32  0.729346 0.000064 -0.000027  -0.166197 -0.081570 -0.714272
33  3.942047 0.050139 0.431000  0.225309 -0.086237 -1.592712
34  1.539097 0.000006 -0.000001  0.035254 -0.050373 -0.994350
35  1.196301 0.000078 -0.000004  -0.021521 0.002175 -0.839738
36  3.883414 -0.050472 -0.431084  0.184824 -0.271737 -1.204030
37  1.719563 -0.000085 -0.000004  0.022859 -0.107186 -1.509108
38  1.209198 0.000034 0.000011  0.000661 0.071072 -0.480462
39  3.859588 -0.149082 -1.331321  -0.103630 -0.086987 -0.354791
40  1.719413 -0.000098 -0.000036  -0.011786 -0.002292 -1.236752
41  1.099674 0.000023 0.000007  -0.005167 -0.008051 -0.781464
42  0.805984 -0.359847 -1.318339  0.991670 0.166767 -0.799527
43  1.789780 -0.000007 -0.000042  0.000058 -0.002451 0.133098
44  1.206996 -0.000007 0.000005  0.000372 -0.000071 1.058780
45  5.740572 0.000079 0.000722  0.127912 -0.000014 0.000028
46  11.480778 -0.000060 0.000969  0.047600 0.133059 0.107998
47  6.027515 -0.000273 -0.000229  -0.997033 -0.510946 -1.473049
48  -0.000001 11.691975 -0.000005  -1.119590 0.562915 0.864532
49  0.000004 -0.000002 -0.000000  2.618569 -0.000036 1.570860
50  -0.000007 -0.000014 0.000005  2.272645 -0.000036 1.570861
51  -2.999631 -3.984205 -7.068548  -0.061337 -2.989607 1.369412
52  -0.000000 -0.000000 0.000001  0.008153 -0.000259 0.000009
53  0.000000 0.000000 -0.000001  1.565115 0.043565 -0.106862
54  -0.244087 -14.517298 -5.280308  -1.046067 -0.125159 -1.929439
55  -0.000001 -0.000001 0.000000  0.000000 -0.000001 -0.000002
56  0.000029 0.000028 0.000001  -1.571902 -0.044449 -0.106509
57  5.661260 -16.060535 -17.872917  1.570796 -0.000000 0.000000
58  -16.319784 5.039393 -18.063972  1.570796 -0.000000 0.000000
59  1.066008 0.876422 -3.770892  1.570796 -0.000000 0.000000
60  -0.004311 0.001230 -0.000371  0.006898 -0.005534 -0.284229
61  0.826810 11.578514 -4.219014  1.570796 -0.000000 0.000000
62  0.000000 0.000000 0.000000  -0.078727 -3.136056 0.284226
63  -2.243053 -2.227381 -0.360343  1.570796 -0.000000 0.000000
64  -2.285252 -8.214002 -1.859342  1.570027 -0.002224 0.000857
65  0.085367 -2.603195 0.763121  0.000000 -0.000000 -0.000000
66  0.042352 -1.082366 2.254085  0.000000 -0.000000 -0.000000
67  0.048106 -0.032154 -1.710082  0.000000 -0.000000 -0.000000
68  0.042346 -1.082868 19.512426  0.000000 -0.000000 -0.000000
69  0.021362 -2.476557 2.118469  0.000000 -0.000000 -0.000000
70  0.654293 -1.873716 2.120183  -0.000000 -0.000000 -0.261799
71  -0.612739 -1.349160 3.336718  0.000000 -0.000000 -0.000000
72  0.191118 -1.464234 2.836251  0.000000 -0.000000 -0.000000
73  -1.181944 -2.300502 17.060877  0.000000 -0.000000 -0.000000
74  -2.269632 -12.923525 -5.952880  1.570027 -0.002224 0.000857
75  -0.108895 2.446371 -1.870139  0.000000 -0.000000 -0.000000
76  0.188637 2.259804 -1.870139  0.000000 -0.000000 -0.000000
time 12
0  0.000006 0.000000 0.000000  -1.570800 -1.391899 -1.570792
1  -3.865520 -0.192010 1.061693  -1.544956 -1.855077 -0.198630
2  6.027524 -0.000323 0.000191  -0.914907 -0.926101 -1.358254
3  11.692106 0.000647 -0.000738  -1.152286 -0.000026 -1.502390
4  11.480447 0.000550 -0.000570  1.216728 -0.671626 0.194570
5  3.859503 -0.142822 -1.192079  -0.603309 -0.153254 -1.645038
6  1.312591 0.000011 0.000007  -0.134332 0.005764 -0.149076
7  0.729355 0.000053 0.000049  -0.006921 -0.010127 -0.171925
8  3.942138 0.046332 -0.431543  -0.437576 0.236645 -1.080252
9  1.539110 0.000082 0.000002  -0.023906 -0.071181 -0.773682
10  1.196334 0.000144 0.000026  0.006223 0.004451 -0.725134
11  3.883509 -0.047211 0.431351  -0.279795 0.553082 -0.488973
12  1.719573 -0.000029 0.000019  0.002711 -0.070785 -0.961842
13  1.209179 0.000089 0.000010  -0.010762 -0.006973 -0.762710
14  4.085232 -0.082653 1.151009  0.025499 0.604578 -0.086052
15  1.719446 -0.000018 0.000028  -0.003946 -0.026040 -0.561722
16  1.099675 0.000050 0.000006  -0.052339 0.061959 -1.042030
17  1.059881 -1.545938 0.873876  -0.894241 -0.623407 -0.353559
18  1.789819 -0.000004 -0.000018  -0.000002 -0.009376 0.757285
19  1.207013 -0.000013 -0.000044  0.001023 -0.000035 -0.104167
20  5.740636 0.000388 -0.000700  -0.121186 0.000003 0.000063
21  11.481097 0.000287 -0.000767  -0.049032 -0.118661 0.003391
22  6.027525 -0.000330 0.000200  1.728480 -0.627882 1.518972
23  -0.000001 11.692099 -0.000006  -1.030883 -0.477286 -0.811158
24  0.000002 0.000008 0.000000  -0.283187 -0.000031 1.570738
25  -0.000000 -0.000011 0.000000  0.868960 0.000002 1.570712
26  -6.212011 -10.642979 0.826812  1.473120 1.855075 -0.198639
27  6.027511 -0.000260 -0.000220  1.471702 0.822983 -0.549736
28  11.691992 0.000161 0.000857  0.346039 0.000059 -1.651667
29  11.479180 -0.000664 0.001113  -1.084841 0.649969 0.784583
30  3.859438 -0.132758 1.193066  0.469647 -0.013262 -1.872395
31  1.312559 0.000026 -0.000001  0.024060 -0.138696 -0.550187
32  0.729345 0.000065 -0.000028  -0.166197 -0.081570 -0.714272
33  3.942046 0.050139 0.431000  0.225309 -0.086237 -1.592712
34  1.539097 0.000006 -0.000001  0.035254 -0.050373 -0.994350
35  1.196301 0.000078 -0.000004  -0.021521 0.002175 -0.839738
36  3.883414 -0.050472 -0.431084  0.184824 -0.271737 -1.204030
37  1.719564 -0.000085 -0.000004  0.022858 -0.107186 -1.509108
38  1.209197 0.000035 0.000012  0.000661 0.071072 -0.480462
39  3.859589 -0.149082 -1.331320  -0.103630 -0.086987 -0.354791
40  1.719413 -0.000098 -0.000035  -0.011786 -0.002292 -1.236752
41  1.099674 0.000025 0.000006  -0.005167 -0.008051 -0.781464
42  0.805983 -0.359847 -1.318338  0.991670 0.166767 -0.799527
43  1.789781 -0.000008 -0.000042  0.000058 -0.002451 0.133097
44  1.206997 -0.000007 0.000006  0.000372 -0.000071 1.058781
45  5.740573 0.000079 0.000721  0.127733 -0.000014 0.000028
46  11.480780 -0.000059 0.000968  0.047519 0.132921 0.108001
47  6.027515 -0.000273 -0.000229  -0.997550 -0.510167 -1.473028
48  -0.000001 11.691977 -0.000006  -1.118655 0.561988 0.864001
49  0.000003 0.000000 0.000001  2.618569 -0.000036 1.570860
50  -0.000007 -0.000014 0.000005  2.272645 -0.000036 1.570861
51  -3.002065 -3.998562 -7.064451  -0.061972 -2.989799 1.369117
52  0.000000 -0.000000 -0.000000  0.008153 -0.000259 0.000009
53  0.000000 0.000000 0.000000  1.565115 0.043565 -0.106862
54  -0.249608 -14.533290 -5.281098  -1.046722 -0.125068 -1.929748
55  -0.000001 0.000001 -0.000000  0.000000 -0.000001 -0.000002
56  0.000029 0.000030 0.000001  -1.571901 -0.044449 -0.106509
57  5.661260 -16.060535 -17.872917  1.570796 -0.000000 0.000000
58  -16.319784 5.039393 -18.063972  1.570796 -0.000000 0.000000
59  1.066008 0.876422 -3.770892  1.570796 -0.000000 0.000000
60  -0.004311 0.001230 -0.000371  0.006898 -0.005534 -0.284229
61  0.826810 11.578514 -4.219014  1.570796 -0.000000 0.000000
62  0.000000 0.000000 0.000000  -0.078727 -3.136056 0.284226
63  -2.243053 -2.227381 -0.360343  1.570796 -0.000000 0.000000
64  -2.286335 -8.230268 -1.856983  1.570341 -0.001648 0.000465
65  0.085367 -2.603195 0.763120  0.000000 0.000000 -0.000000
66  0.042352 -1.082367 2.254082  0.000000 0.000000 -0.000000
67  0.048106 -0.032154 -1.710081  0.000000 0.000000 -0.000000
68  0.042347 -1.082868 19.512428  0.000000 0.000000 -0.000000
69  0.021362 -2.476557 2.118469  0.000000 0.000000 -0.000000
70  0.654293 -1.873716 2.120183  0.000000 0.000000 -0.261799
71  -0.612738 -1.349160 3.336717  0.000000 0.000000 -0.000000
72  0.191118 -1.464234 2.836251  0.000000 0.000000 -0.000000
73  -1.181944 -2.300502 17.060879  0.000000 0.000000 -0.000000
74  -2.274918 -12.938517 -5.952003  1.570341 -0.001648 0.000465
75  -0.108894 2.446371 -1.870139  0.000000 0.000000 -0.000000
76  0.188638 2.259805 -1.870140  0.000000 0.000000 -0.000000
time 13
0  0.000006 0.000000 0.000000  -1.570800 -1.391899 -1.570792
1  -3.865520 -0.192010 1.061693  -1.544956 -1.855077 -0.198630
2  6.027524 -0.000323 0.000191  -0.914129 -0.926733 -1.359060
3  11.692107 0.000647 -0.000740  -1.152285 -0.000026 -1.500524
4  11.480461 0.000554 -0.000559  1.215752 -0.670522 0.193951
5  3.859502 -0.142824 -1.192080  -0.603309 -0.153254 -1.645038
6  1.312588 0.000008 0.000008  -0.134332 0.005764 -0.149076
7  0.729355 0.000054 0.000048  -0.006921 -0.010127 -0.171925
8  3.942140 0.046330 -0.431542  -0.437576 0.236645 -1.080252
9  1.539110 0.000083 0.000004  -0.023906 -0.071181 -0.773682
10  1.196332 0.000146 0.000028  0.006223 0.004451 -0.725134
11  3.883510 -0.047213 0.431351  -0.279795 0.553082 -0.488973
12  1.719574 -0.000028 0.000018  0.002711 -0.070786 -0.961842
13  1.209179 0.000092 0.000013  -0.010762 -0.006973 -0.762710
14  4.085235 -0.082653 1.151009  0.025499 0.604578 -0.086051
15  1.719448 -0.000018 0.000029  -0.003946 -0.026040 -0.561722
16  1.099675 0.000050 0.000008  -0.052339 0.061959 -1.042030
17  1.059882 -1.545939 0.873876  -0.894241 -0.623407 -0.353559
18  1.789820 -0.000004 -0.000018  -0.000002 -0.009376 0.757285
19  1.207015 -0.000013 -0.000044  0.001023 -0.000035 -0.104167
20  5.740636 0.000389 -0.000699  -0.121229 0.000003 0.000064
21  11.481099 0.000288 -0.000763  -0.049280 -0.118448 0.003245
22  6.027525 -0.000330 0.000200  1.727719 -0.627393 1.519236
23  -0.000002 11.692098 -0.000006  -1.029778 -0.476252 -0.810460
24  0.000002 0.000007 -0.000000  -0.283187 -0.000030 1.570738
25  -0.000000 -0.000012 0.000000  0.868960 0.000002 1.570712
26  -6.212011 -10.642979 0.826812  1.473120 1.855075 -0.198639
27  6.027511 -0.000260 -0.000220  1.472367 0.823530 -0.549495
28  11.691992 0.000160 0.000859  0.346040 0.000059 -1.650408
29  11.479186 -0.000661 0.001111  -1.086254 0.649387 0.784022
30  3.859437 -0.132758 1.193065  0.469647 -0.013262 -1.872395
31  1.312559 0.000026 -0.000002  0.024060 -0.138696 -0.550187
32  0.729345 0.000065 -0.000028  -0.166197 -0.081570 -0.714272
33  3.942047 0.050139 0.431001  0.225309 -0.086237 -1.592712
34  1.539097 0.000005 -0.000001  0.035254 -0.050373 -0.994350
35  1.196300 0.000077 -0.000004  -0.021521 0.002175 -0.839738
36  3.883414 -0.050472 -0.431084  0.184824 -0.271737 -1.204030
37  1.719563 -0.000084 -0.000005  0.022858 -0.107186 -1.509108
38  1.209198 0.000035 0.000011  0.000661 0.071072 -0.480462
39  3.859588 -0.149082 -1.331320  -0.103630 -0.086987 -0.354791
40  1.719412 -0.000098 -0.000036  -0.011786 -0.002292 -1.236752
41  1.099674 0.000024 0.000007  -0.005167 -0.008051 -0.781464
42  0.805983 -0.359847 -1.318338  0.991670 0.166767 -0.799527
43  1.789780 -0.000008 -0.000043  0.000058 -0.002451 0.133097
44  1.206996 -0.000007 0.000005  0.000372 -0.000071 1.058780
45  5.740572 0.000079 0.000721  0.127466 -0.000014 0.000028
46  11.480782 -0.000058 0.000968  0.047351 0.132722 0.108032
47  6.027515 -0.000273 -0.000229  -0.997737 -0.509476 -1.473184
48  -0.000001 11.691977 -0.000006  -1.117918 0.561258 0.863581
49  0.000002 0.000001 0.000000  2.618569 -0.000036 1.570860
50  -0.000007 -0.000013 0.000005  2.272645 -0.000036 1.570861
51  -3.007162 -4.010327 -7.060543  -0.063097 -2.989891 1.368960
52  -0.000000 0.000000 -0.000000  0.008153 -0.000259 0.000009
53  -0.000000 0.000000 0.000000  1.565115 0.043565 -0.106862
54  -0.256250 -14.546516 -5.283434  -1.047843 -0.125151 -1.929936
55  -0.000000 -0.000000 -0.000000  0.000000 -0.000001 -0.000002
56  0.000031 0.000029 0.000001  -1.571901 -0.044449 -0.106509
57  5.661260 -16.060535 -17.872917  1.570796 -0.000000 0.000000
58  -16.319784 5.039393 -18.063972  1.570796 -0.000000 0.000000
59  1.066008 0.876422 -3.770892  1.570796 -0.000000 0.000000
60  -0.004311 0.001230 -0.000371  0.006898 -0.005534 -0.284229
61  0.826810 11.578514 -4.219014  1.570796 -0.000000 0.000000
62  0.000000 0.000000 0.000000  -0.078727 -3.136056 0.284226
63  -2.243053 -2.227381 -0.360343  1.570796 -0.000000 0.000000
64  -2.287243 -8.243898 -1.855168  1.570654 -0.000577 0.000137
65  0.085367 -2.603195 0.763122  -0.000000 0.000000 -0.000000
66  0.042352 -1.082367 2.254084  -0.000000 0.000000 -0.000000
67  0.048106 -0.032154 -1.710080  -0.000000 0.000000 -0.000000
68  0.042346 -1.082868 19.512430  -0.000000 0.000000 -0.000000
69  0.021361 -2.476557 2.118469  -0.000000 0.000000 -0.000000
70  0.654292 -1.873716 2.120184  -0.000000 -0.000000 -0.261799
71  -0.612739 -1.349160 3.336718  -0.000000 0.000000 -0.000000
72  0.191118 -1.464234 2.836253  -0.000000 0.000000 -0.000000
73  -1.181944 -2.300501 17.060881  -0.000000 0.000000 -0.000000
74  -2.281754 -12.950869 -5.951670  1.570654 -0.000577 0.000137
75  -0.108895 2.446371 -1.870141  -0.000000 0.000000 -0.000000
76  0.188638 2.259804 -1.870141  -0.000000 0.000000 -0.000000
time 14
0  0.000006 0.000000 0.000000  -1.570800 -1.391899 -1.570792
1  -3.865520 -0.192010 1.061693  -1.544956 -1.855077 -0.198630
2  6.027524 -0.000323 0.000191  -0.913755 -0.926999 -1.359397
3  11.692108 0.000647 -0.000738  -1.152285 -0.000026 -1.499722
4  11.480469 0.000555 -0.000554  1.215244 -0.670050 0.193598
5  3.859504 -0.142823 -1.192079  -0.603309 -0.153254 -1.645038
6  1.312589 0.000010 0.000007  -0.134332 0.005764 -0.149076
7  0.729355 0.000055 0.000050  -0.006921 -0.010127 -0.171925
8  3.942139 0.046332 -0.431543  -0.437576 0.236645 -1.080252
9  1.539111 0.000082 0.000003  -0.023906 -0.071181 -0.773682
10  1.196333 0.000146 0.000028  0.006223 0.004451 -0.725134
11  3.883510 -0.047211 0.431350  -0.279795 0.553082 -0.488973
12  1.719572 -0.000029 0.000019  0.002711 -0.070785 -0.961842
13  1.209180 0.000090 0.000013  -0.010762 -0.006973 -0.762710
14  4.085233 -0.082653 1.151008  0.025499 0.604578 -0.086052
15  1.719448 -0.000018 0.000028  -0.003946 -0.026040 -0.561722
16  1.099675 0.000048 0.000004  -0.052339 0.061959 -1.042030
17  1.059880 -1.545939 0.873876  -0.894241 -0.623407 -0.353559
18  1.789819 -0.000004 -0.000017  -0.000002 -0.009376 0.757285
19  1.207015 -0.000013 -0.000044  0.001023 -0.000035 -0.104167
20  5.740637 0.000390 -0.000699  -0.121277 0.000003 0.000063
21  11.481103 0.000289 -0.000763  -0.049406 -0.118356 0.003160
22  6.027525 -0.000330 0.000200  1.727366 -0.627195 1.519404
23  -0.000002 11.692099 -0.000006  -1.029304 -0.475809 -0.810161
24  0.000003 0.000008 0.000000  -0.283187 -0.000030 1.570739
25  -0.000000 -0.000011 0.000000  0.868960 0.000002 1.570712
26  -6.212011 -10.642979 0.826812  1.473120 1.855075 -0.198639
27  6.027511 -0.000260 -0.000220  1.472697 0.823727 -0.549368
28  11.691993 0.000161 0.000859  0.346040 0.000059 -1.649897
29  11.479190 -0.000660 0.001111  -1.087005 0.649098 0.783744
30  3.859437 -0.132758 1.193066  0.469647 -0.013262 -1.872395
31  1.312559 0.000025 -0.000001  0.024060 -0.138696 -0.550187
32  0.729345 0.000064 -0.000028  -0.166197 -0.081570 -0.714272
33  3.942047 0.050139 0.431000  0.225309 -0.086237 -1.592712
34  1.539097 0.000007 -0.000000  0.035254 -0.050373 -0.994350
35  1.196300 0.000078 -0.000003  -0.021521 0.002175 -0.839738
36  3.883414 -0.050472 -0.431084  0.184824 -0.271737 -1.204030
37  1.719565 -0.000084 -0.000004  0.022859 -0.107186 -1.509108
38  1.209197 0.000035 0.000011  0.000661 0.071072 -0.480462
39  3.859589 -0.149082 -1.331321  -0.103630 -0.086987 -0.354791
40  1.719413 -0.000098 -0.000036  -0.011786 -0.002292 -1.236752
41  1.099674 0.000025 0.000006  -0.005167 -0.008051 -0.781464
42  0.805984 -0.359848 -1.318338  0.991670 0.166767 -0.799527
43  1.789780 -0.000008 -0.000042  0.000058 -0.002451 0.133098
44  1.206997 -0.000007 0.000006  0.000372 -0.000071 1.058780
45  5.740572 0.000080 0.000721  0.127327 -0.000014 0.000028
46  11.480782 -0.000058 0.000967  0.047259 0.132620 0.108050
47  6.027515 -0.000273 -0.000229  -0.997762 -0.509179 -1.473286
48  -0.000002 11.691977 -0.000007  -1.117618 0.560961 0.863411
49  0.000003 0.000000 -0.000000  2.618569 -0.000036 1.570860
50  -0.000008 -0.000014 0.000004  2.272645 -0.000036 1.570861
51  -3.009962 -4.015204 -7.058799  -0.063697 -2.989914 1.368913
52  0.000000 0.000000 0.000000  0.008153 -0.000259 0.000009
53  0.000000 -0.000000 0.000000  1.565115 0.043565 -0.106862
54  -0.259474 -14.552021 -5.284775  -1.048438 -0.125221 -1.929999
55  0.000001 -0.000000 -0.000000  0.000000 -0.000001 -0.000002
56  0.000031 0.000029 0.000001  -1.571901 -0.044449 -0.106509
57  5.661260 -16.060535 -17.872917  1.570796 -0.000000 0.000000
58  -16.319784 5.039393 -18.063972  1.570796 -0.000000 0.000000
59  1.066008 0.876422 -3.770892  1.570796 -0.000000 0.000000
60  -0.004311 0.001230 -0.000371  0.006898 -0.005534 -0.284229
61  0.826810 11.578514 -4.219014  1.570796 -0.000000 0.000000
62  0.000000 0.000000 0.000000  -0.078727 -3.136056 0.284226
63  -2.243053 -2.227381 -0.360343  1.570796 -0.000000 0.000000
64  -2.287624 -8.249615 -1.854442  1.570796 -0.000000 0.000000
65  0.085367 -2.603195 0.763120  0.000000 -0.000000 0.000000
66  0.042352 -1.082367 2.254084  0.000000 -0.000000 0.000000
67  0.048106 -0.032154 -1.710082  0.000000 -0.000000 0.000000
68  0.042346 -1.082868 19.512426  0.000000 -0.000000 0.000000
69  0.021362 -2.476558 2.118467  0.000000 -0.000000 0.000000
70  0.654292 -1.873716 2.120182  0.000000 -0.000000 -0.261799
71  -0.612739 -1.349160 3.336717  0.000000 -0.000000 0.000000
72  0.191118 -1.464234 2.836251  0.000000 -0.000000 0.000000
73  -1.181944 -2.300502 17.060877  0.000000 -0.000000 0.000000
74  -2.285144 -12.956001 -5.951616  1.570796 -0.000000 0.000000
75  -0.108895 2.446371 -1.870139  0.000000 -0.000000 0.000000
76  0.188637 2.259805 -1.870139  0.000000 -0.000000 0.000000
end
