version 1
nodes
0 "ValveBiped.Bip01_Spine4" -1
1 "ValveBiped.Bip01_L_Clavicle" 0
2 "ValveBiped.Bip01_L_UpperArm" 1
3 "ValveBiped.Bip01_L_Forearm" 2
4 "ValveBiped.Bip01_L_Hand" 3
5 "ValveBiped.Bip01_L_Finger4" 4
6 "ValveBiped.Bip01_L_Finger41" 5
7 "ValveBiped.Bip01_L_Finger42" 6
8 "ValveBiped.Bip01_L_Finger3" 4
9 "ValveBiped.Bip01_L_Finger31" 8
10 "ValveBiped.Bip01_L_Finger32" 9
11 "ValveBiped.Bip01_L_Finger2" 4
12 "ValveBiped.Bip01_L_Finger21" 11
13 "ValveBiped.Bip01_L_Finger22" 12
14 "ValveBiped.Bip01_L_Finger1" 4
15 "ValveBiped.Bip01_L_Finger11" 14
16 "ValveBiped.Bip01_L_Finger12" 15
17 "ValveBiped.Bip01_L_Finger0" 4
18 "ValveBiped.Bip01_L_Finger01" 17
19 "ValveBiped.Bip01_L_Finger02" 18
20 "ValveBiped.Bip01_L_Ulna" 3
21 "ValveBiped.Bip01_L_Wrist" 3
22 "rig_l_upperarm" 1
23 "rig_l_forearm" 22
24 "rig_d_l_forearm" 23
25 "rig_d_l_upperarm" 22
26 "ValveBiped.Bip01_R_Clavicle" 0
27 "ValveBiped.Bip01_R_UpperArm" 26
28 "ValveBiped.Bip01_R_Forearm" 27
29 "ValveBiped.Bip01_R_Hand" 28
30 "ValveBiped.Bip01_R_Finger4" 29
31 "ValveBiped.Bip01_R_Finger41" 30
32 "ValveBiped.Bip01_R_Finger42" 31
33 "ValveBiped.Bip01_R_Finger3" 29
34 "ValveBiped.Bip01_R_Finger31" 33
35 "ValveBiped.Bip01_R_Finger32" 34
36 "ValveBiped.Bip01_R_Finger2" 29
37 "ValveBiped.Bip01_R_Finger21" 36
38 "ValveBiped.Bip01_R_Finger22" 37
39 "ValveBiped.Bip01_R_Finger1" 29
40 "ValveBiped.Bip01_R_Finger11" 39
41 "ValveBiped.Bip01_R_Finger12" 40
42 "ValveBiped.Bip01_R_Finger0" 29
43 "ValveBiped.Bip01_R_Finger01" 42
44 "ValveBiped.Bip01_R_Finger02" 43
45 "ValveBiped.Bip01_R_Ulna" 28
46 "ValveBiped.Bip01_R_Wrist" 28
47 "rig_r_upperarm" 26
48 "rig_r_forearm" 47
49 "rig_d_r_forearm" 48
50 "rig_d_r_upperarm" 47
51 "rig_r_hand" -1
52 "rig_d_r_hand" 51
53 "rig_d_r_wrist" 52
54 "rig_l_hand" -1
55 "rig_d_l_hand" 54
56 "rig_d_l_wrist" 54
57 "rig_l_pole" -1
58 "rig_r_pole" -1
59 "rig_l_clavicle" -1
60 "rig_d_l_clavicle" 59
61 "rig_r_clavicle" -1
62 "rig_d_r_clavicle" 61
63 "Camera" -1
64 "body" -1
65 "trigger" 64
66 "bolt" 64
67 "chandle" 64
68 "barrel" 64
69 "magrel" 64
70 "boltrelease" 64
71 "dustcover" 64
72 "bullet1" 64
73 "flashlight" 64
74 "mag" -1
75 "bullet2" 74
76 "bullet3" 74
end
skeleton
time 0
0  0.000006 0.000000 0.000000  -1.570800 -1.391899 -1.570792
1  -3.865520 -0.192010 1.061693  -1.544956 -1.855077 -0.198630
2  6.027524 -0.000323 0.000191  -0.913755 -0.926999 -1.359397
3  11.692108 0.000647 -0.000738  -1.152285 -0.000026 -1.499722
4  11.480469 0.000555 -0.000554  1.215244 -0.670050 0.193598
5  3.859504 -0.142823 -1.192079  -0.603309 -0.153254 -1.645038
6  1.312589 0.000010 0.000008  -0.134332 0.005764 -0.149076
7  0.729355 0.000053 0.000050  -0.006921 -0.010127 -0.171925
8  3.942139 0.046332 -0.431543  -0.437576 0.236645 -1.080252
9  1.539111 0.000081 0.000003  -0.023906 -0.071181 -0.773682
10  1.196332 0.000146 0.000028  0.006223 0.004451 -0.725134
11  3.883510 -0.047211 0.431350  -0.279795 0.553082 -0.488973
12  1.719572 -0.000030 0.000019  0.002711 -0.070785 -0.961842
13  1.209178 0.000090 0.000010  -0.010762 -0.006973 -0.762710
14  4.085233 -0.082653 1.151008  0.025499 0.604578 -0.086052
15  1.719448 -0.000018 0.000028  -0.003946 -0.026040 -0.561722
16  1.099675 0.000048 0.000006  -0.052339 0.061959 -1.042030
17  1.059880 -1.545939 0.873876  -0.894241 -0.623407 -0.353559
18  1.789819 -0.000004 -0.000018  -0.000002 -0.009376 0.757285
19  1.207014 -0.000013 -0.000043  0.001023 -0.000035 -0.104167
20  5.740637 0.000390 -0.000699  -0.121277 0.000003 0.000063
21  11.481103 0.000289 -0.000763  -0.049406 -0.118356 0.003160
22  6.027525 -0.000330 0.000200  1.727366 -0.627195 1.519404
23  -0.000002 11.692099 -0.000006  -1.029304 -0.475809 -0.810161
24  0.000003 0.000008 0.000000  -0.283187 -0.000030 1.570739
25  -0.000000 -0.000011 0.000000  0.868960 0.000002 1.570712
26  -6.212011 -10.642979 0.826812  1.473120 1.855075 -0.198639
27  6.027511 -0.000260 -0.000220  1.472697 0.823727 -0.549368
28  11.691993 0.000161 0.000859  0.346040 0.000059 -1.649897
29  11.479190 -0.000660 0.001111  -1.087005 0.649098 0.783744
30  3.859437 -0.132758 1.193066  0.469647 -0.013262 -1.872395
31  1.312559 0.000024 -0.000001  0.024060 -0.138696 -0.550187
32  0.729346 0.000064 -0.000027  -0.166197 -0.081570 -0.714272
33  3.942047 0.050139 0.431000  0.225309 -0.086237 -1.592712
34  1.539097 0.000007 -0.000000  0.035254 -0.050373 -0.994350
35  1.196301 0.000078 -0.000003  -0.021521 0.002175 -0.839738
36  3.883414 -0.050472 -0.431084  0.184824 -0.271737 -1.204030
37  1.719564 -0.000085 -0.000005  0.022858 -0.107186 -1.509108
38  1.209197 0.000036 0.000010  0.000661 0.071072 -0.480462
39  3.859589 -0.149082 -1.331321  -0.103630 -0.086987 -0.354791
40  1.719413 -0.000098 -0.000036  -0.011786 -0.002292 -1.236752
41  1.099674 0.000022 0.000007  -0.005167 -0.008051 -0.781464
42  0.805984 -0.359848 -1.318338  0.991670 0.166767 -0.799527
43  1.789781 -0.000009 -0.000042  0.000058 -0.002451 0.133098
44  1.206996 -0.000006 0.000005  0.000372 -0.000071 1.058781
45  5.740572 0.000080 0.000721  0.127327 -0.000014 0.000028
46  11.480782 -0.000058 0.000967  0.047259 0.132620 0.108050
47  6.027515 -0.000273 -0.000229  -0.997762 -0.509179 -1.473286
48  -0.000002 11.691977 -0.000007  -1.117618 0.560961 0.863411
49  0.000003 0.000000 -0.000000  2.618569 -0.000036 1.570860
50  -0.000008 -0.000014 0.000004  2.272645 -0.000036 1.570861
51  -3.009962 -4.015204 -7.058799  -0.063697 -2.989914 1.368913
52  0.000000 0.000000 0.000000  0.008153 -0.000259 0.000009
53  0.000000 -0.000000 0.000000  1.565115 0.043565 -0.106862
54  -0.259474 -14.552021 -5.284775  -1.048438 -0.125221 -1.929999
55  0.000001 -0.000000 -0.000000  0.000000 -0.000001 -0.000002
56  0.000031 0.000029 0.000001  -1.571901 -0.044449 -0.106509
57  5.661260 -16.060535 -17.872917  1.570796 -0.000000 0.000000
58  -16.319784 5.039393 -18.063972  1.570796 -0.000000 0.000000
59  1.066008 0.876422 -3.770892  1.570796 -0.000000 0.000000
60  -0.004311 0.001230 -0.000371  0.006898 -0.005534 -0.284229
61  0.826810 11.578514 -4.219014  1.570796 -0.000000 0.000000
62  0.000000 0.000000 0.000000  -0.078727 -3.136056 0.284226
63  -2.243053 -2.227381 -0.360343  1.570796 -0.000000 0.000000
64  -2.287624 -8.249615 -1.854442  1.570796 -0.000000 0.000000
65  0.085367 -2.603195 0.763120  0.000000 -0.000000 0.000000
66  0.042352 -1.082367 5.211880  0.000000 -0.000000 0.000000
67  0.048106 -0.032154 -1.710082  0.000000 -0.000000 0.000000
68  0.042346 -1.082868 19.512426  0.000000 -0.000000 0.000000
69  0.021362 -2.476558 2.118467  0.000000 -0.000000 0.000000
70  0.654292 -1.873716 2.120182  0.000000 -0.000000 0.000000
71  -0.612739 -1.349160 3.336717  0.000000 -0.000000 0.000000
72  0.191118 -1.464234 2.836251  0.000000 -0.000000 0.000000
73  -1.181944 -2.300502 17.060877  0.000000 -0.000000 0.000000
74  -2.285144 -12.956001 -5.951616  1.570796 -0.000000 0.000000
75  0.199716 2.636680 -1.870138  0.000000 -0.000000 0.000000
76  -0.070215 2.456336 -1.889604  0.000000 0.000000 0.000000
end
