version 1
nodes
0 "ValveBiped.Bip01_Spine4" -1
1 "ValveBiped.Bip01_L_Clavicle" 0
2 "ValveBiped.Bip01_L_UpperArm" 1
3 "ValveBiped.Bip01_L_Forearm" 2
4 "ValveBiped.Bip01_L_Hand" 3
5 "ValveBiped.Bip01_L_Finger4" 4
6 "ValveBiped.Bip01_L_Finger41" 5
7 "ValveBiped.Bip01_L_Finger42" 6
8 "ValveBiped.Bip01_L_Finger3" 4
9 "ValveBiped.Bip01_L_Finger31" 8
10 "ValveBiped.Bip01_L_Finger32" 9
11 "ValveBiped.Bip01_L_Finger2" 4
12 "ValveBiped.Bip01_L_Finger21" 11
13 "ValveBiped.Bip01_L_Finger22" 12
14 "ValveBiped.Bip01_L_Finger1" 4
15 "ValveBiped.Bip01_L_Finger11" 14
16 "ValveBiped.Bip01_L_Finger12" 15
17 "ValveBiped.Bip01_L_Finger0" 4
18 "ValveBiped.Bip01_L_Finger01" 17
19 "ValveBiped.Bip01_L_Finger02" 18
20 "ValveBiped.Bip01_L_Ulna" 3
21 "ValveBiped.Bip01_L_Wrist" 3
22 "rig_l_upperarm" 1
23 "rig_l_forearm" 22
24 "rig_d_l_forearm" 23
25 "rig_d_l_upperarm" 22
26 "ValveBiped.Bip01_R_Clavicle" 0
27 "ValveBiped.Bip01_R_UpperArm" 26
28 "ValveBiped.Bip01_R_Forearm" 27
29 "ValveBiped.Bip01_R_Hand" 28
30 "ValveBiped.Bip01_R_Finger4" 29
31 "ValveBiped.Bip01_R_Finger41" 30
32 "ValveBiped.Bip01_R_Finger42" 31
33 "ValveBiped.Bip01_R_Finger3" 29
34 "ValveBiped.Bip01_R_Finger31" 33
35 "ValveBiped.Bip01_R_Finger32" 34
36 "ValveBiped.Bip01_R_Finger2" 29
37 "ValveBiped.Bip01_R_Finger21" 36
38 "ValveBiped.Bip01_R_Finger22" 37
39 "ValveBiped.Bip01_R_Finger1" 29
40 "ValveBiped.Bip01_R_Finger11" 39
41 "ValveBiped.Bip01_R_Finger12" 40
42 "ValveBiped.Bip01_R_Finger0" 29
43 "ValveBiped.Bip01_R_Finger01" 42
44 "ValveBiped.Bip01_R_Finger02" 43
45 "ValveBiped.Bip01_R_Ulna" 28
46 "ValveBiped.Bip01_R_Wrist" 28
47 "rig_r_upperarm" 26
48 "rig_r_forearm" 47
49 "rig_d_r_forearm" 48
50 "rig_d_r_upperarm" 47
51 "rig_r_hand" -1
52 "rig_d_r_hand" 51
53 "rig_d_r_wrist" 52
54 "rig_l_hand" -1
55 "rig_d_l_hand" 54
56 "rig_d_l_wrist" 54
57 "rig_l_pole" -1
58 "rig_r_pole" -1
59 "rig_l_clavicle" -1
60 "rig_d_l_clavicle" 59
61 "rig_r_clavicle" -1
62 "rig_d_r_clavicle" 61
63 "Camera" -1
64 "body" -1
65 "trigger" 64
66 "bolt" 64
67 "chandle" 66
68 "barrel" 64
69 "magrel" 64
70 "bullet1" 64
71 "hammer" 64
72 "mag" -1
73 "fakerounds" 72
74 "fakemag" -1
75 "follower" 74
76 "bullet2" 74
77 "bullet3" 74
end
skeleton
time 0
0  0.000006 0.000000 0.000000  -1.570800 -1.391899 -1.570792
1  -3.555402 -0.696245 2.232071  -1.544956 -1.855077 -0.198630
2  6.027523 -0.000324 0.000193  -0.790167 -0.976681 -1.518993
3  11.692110 0.000643 -0.000738  -0.724730 -0.000013 -1.335323
4  11.480267 0.000228 -0.000778  1.184737 -0.562283 0.246880
5  3.859508 -0.142877 -1.192049  -0.688486 -0.177859 -1.771238
6  1.312588 0.000010 0.000009  -0.134456 0.002702 -0.177087
7  0.729353 0.000054 0.000051  -0.006756 -0.009781 -0.219796
8  3.942142 0.046274 -0.431511  -0.617547 0.335607 -1.216410
9  1.539111 0.000085 0.000005  -0.008759 -0.079696 -0.902807
10  1.196334 0.000145 0.000028  0.008519 0.004256 -0.542288
11  3.883504 -0.047268 0.431382  -0.368041 0.662129 -0.667220
12  1.719572 -0.000027 0.000017  0.009232 -0.073687 -0.989770
13  1.209180 0.000091 0.000013  -0.009578 -0.006549 -0.915981
14  4.085223 -0.082713 1.151041  -0.261587 0.849659 -0.311893
15  1.719449 -0.000016 0.000027  0.022831 0.018816 -0.385684
16  1.099675 0.000047 0.000005  -0.071661 0.046282 -1.373825
17  0.921521 -1.355449 1.250965  -1.036595 -0.492038 -0.255498
18  1.789819 -0.000002 -0.000019  0.000321 -0.002810 0.826066
19  1.207014 -0.000013 -0.000044  0.000316 -0.000006 -0.090257
20  5.740636 0.000409 -0.000704  -0.120218 0.000003 0.000067
21  11.481061 0.000258 -0.000815  -0.056741 -0.099156 0.015367
22  6.027524 -0.000330 0.000203  1.630322 -0.591568 1.516128
23  0.000000 11.692100 -0.000008  -0.930876 -0.387687 -0.745141
24  0.000004 0.000009 -0.000001  0.144362 -0.000031 1.570739
25  -0.000001 -0.000011 -0.000002  0.868957 0.000002 1.570712
26  -4.048488 -9.938416 0.826810  1.473120 1.855075 -0.198639
27  6.027509 -0.000259 -0.000228  1.420458 0.672681 -0.709715
28  11.691990 0.000242 0.000858  -0.008105 0.000071 -1.819343
29  11.479512 -0.001066 0.000815  -0.991735 0.349926 0.834441
30  3.859445 -0.132765 1.193036  0.469561 0.024446 -2.027518
31  1.312558 0.000025 -0.000007  0.012739 -0.118546 -0.457170
32  0.729345 0.000065 -0.000031  -0.160543 -0.094833 -0.794827
33  3.942048 0.050132 0.430970  0.239759 -0.046947 -1.686225
34  1.539096 0.000003 -0.000008  0.033634 -0.037983 -0.965277
35  1.196300 0.000076 -0.000009  -0.022665 -0.001268 -0.998653
36  3.883409 -0.050479 -0.431113  0.254832 -0.208796 -1.406922
37  1.719564 -0.000076 -0.000012  0.020717 -0.083409 -1.505713
38  1.209196 0.000035 0.000006  -0.007976 0.070582 -0.580400
39  3.859577 -0.149089 -1.331349  -0.106751 -0.125451 -0.348121
40  1.719411 -0.000097 -0.000045  -0.016074 0.001595 -1.445127
41  1.099674 0.000023 0.000001  -0.004896 -0.009018 -0.933420
42  0.805973 -0.359849 -1.318344  0.989321 0.173207 -0.818040
43  1.789779 -0.000007 -0.000039  0.000102 -0.007479 0.163490
44  1.206997 -0.000004 0.000007  0.000962 -0.000151 1.276281
45  5.740573 0.000095 0.000725  0.176281 -0.000014 0.000028
46  11.480847 -0.000114 0.000916  0.088356 0.086373 0.129674
47  6.027514 -0.000273 -0.000237  -0.880158 -0.629557 -1.661556
48  -0.000001 11.691973 -0.000006  -1.217059 0.661540 0.915801
49  0.000002 -0.000001 0.000001  2.264421 -0.000046 1.570851
50  -0.000006 -0.000016 0.000006  2.272644 -0.000031 1.570865
51  -3.220684 -3.509204 -5.924097  -0.078012 -2.996716 1.465737
52  0.000000 -0.000000 -0.000000  0.008153 -0.000259 0.000009
53  -0.000000 -0.000000 0.000000  1.565115 0.043565 -0.106862
54  -0.085265 -15.005921 -4.771821  -0.742211 -0.228777 -1.832332
55  -0.000000 -0.000000 0.000000  0.000000 -0.000000 -0.000002
56  0.000029 0.000028 0.000001  -1.571901 -0.044449 -0.106509
57  6.132251 -14.556842 -16.933033  1.570796 -0.000000 0.000000
58  -16.642132 4.602435 -20.579788  1.570796 -0.000000 0.000000
59  2.236387 1.317426 -3.375998  1.570796 -0.000000 0.000000
60  -0.004311 0.001230 -0.000371  0.006898 -0.005534 -0.284229
61  0.826810 10.500209 -2.215392  1.570796 -0.000000 0.000000
62  0.000000 0.000000 0.000000  -0.078727 -3.136056 0.284226
63  -2.178818 -2.356640 -0.085199  1.570796 -0.000000 0.000000
64  -2.177108 -8.249631 -0.894027  1.570796 -0.000000 0.000000
65  0.011267 -2.541756 0.246449  0.261799 0.000000 0.000000
66  -0.040579 -0.596186 4.712709  0.000000 -0.000000 0.000000
67  -1.210912 -0.465220 1.116575  0.000000 -0.000000 0.000000
68  -0.001710 -1.449898 22.825077  0.000000 -0.000000 0.000000
69  0.014791 -3.432317 2.150502  0.000000 -0.000000 0.000000
70  0.149986 -1.844876 3.287591  0.000000 -0.000000 0.000000
71  -0.001712 -2.299004 1.703906  1.570796 -0.000000 0.000000
72  -3.588360 -1.097282 -23.660017  1.570796 -0.000000 0.000000
73  0.136241 2.066845 -1.396211  0.000000 -0.000000 0.000000
74  -2.266305 -12.956017 -4.991207  1.570796 -0.000000 0.000000
75  0.087484 2.183199 -0.139910  0.000000 -0.000000 0.000000
76  0.239006 2.332643 -1.422237  0.000000 -0.000000 0.000000
77  -0.037276 2.055116 -1.384614  0.000000 -0.000000 0.000000
time 1
0  0.000006 0.000000 0.000000  -1.570800 -1.391899 -1.570792
1  -3.555402 -0.696245 2.232071  -1.544956 -1.855077 -0.198630
2  6.027523 -0.000324 0.000193  -0.815657 -0.939588 -1.459260
3  11.692108 0.000644 -0.000741  -0.724736 -0.000020 -1.463235
4  11.479006 -0.000321 -0.001262  1.176044 -0.622284 0.317807
5  3.859510 -0.142877 -1.192049  -0.688486 -0.177859 -1.771238
6  1.312588 0.000011 0.000009  -0.134456 0.002702 -0.177087
7  0.729354 0.000054 0.000049  -0.006756 -0.009781 -0.219796
8  3.942145 0.046276 -0.431512  -0.617547 0.335607 -1.216410
9  1.539111 0.000085 0.000006  -0.008759 -0.079696 -0.902807
10  1.196332 0.000148 0.000029  0.008519 0.004256 -0.542288
11  3.883504 -0.047268 0.431382  -0.368041 0.662129 -0.667220
12  1.719572 -0.000027 0.000016  0.009232 -0.073687 -0.989770
13  1.209179 0.000091 0.000013  -0.009578 -0.006549 -0.915981
14  4.085222 -0.082713 1.151041  -0.261587 0.849659 -0.311893
15  1.719448 -0.000016 0.000026  0.022831 0.018817 -0.385684
16  1.099675 0.000049 0.000004  -0.071661 0.046282 -1.373824
17  0.921523 -1.355449 1.250966  -1.036595 -0.492038 -0.255498
18  1.789820 -0.000004 -0.000018  0.000321 -0.002810 0.826066
19  1.207015 -0.000013 -0.000043  0.000316 -0.000006 -0.090257
20  5.740637 0.000410 -0.000703  -0.132390 0.000003 0.000067
21  11.480810 0.000148 -0.000910  -0.052780 -0.112771 0.026157
22  6.027524 -0.000330 0.000203  1.653631 -0.626570 1.541666
23  0.000001 11.692099 -0.000006  -1.007650 -0.455757 -0.796328
24  0.000003 0.000008 -0.000000  0.144362 -0.000031 1.570739
25  -0.000001 -0.000011 -0.000001  0.868957 0.000002 1.570712
26  -4.048488 -9.938416 0.826810  1.473120 1.855075 -0.198639
27  6.027509 -0.000258 -0.000229  1.394210 0.627526 -0.711338
28  11.691989 0.000241 0.000859  -0.008106 0.000078 -1.923610
29  11.478593 -0.001549 0.000811  -0.955373 0.377984 0.905053
30  3.859446 -0.132765 1.193036  0.469561 0.024446 -2.027518
31  1.312559 0.000025 -0.000007  0.012739 -0.118546 -0.457170
32  0.729345 0.000066 -0.000031  -0.160543 -0.094833 -0.794827
33  3.942048 0.050132 0.430970  0.239759 -0.046947 -1.686225
34  1.539096 0.000004 -0.000008  0.033634 -0.037983 -0.965277
35  1.196299 0.000076 -0.000008  -0.022665 -0.001268 -0.998653
36  3.883409 -0.050479 -0.431113  0.254832 -0.208796 -1.406922
37  1.719564 -0.000075 -0.000012  0.020717 -0.083409 -1.505713
38  1.209196 0.000035 0.000006  -0.007976 0.070582 -0.580400
39  3.859577 -0.149088 -1.331349  -0.106751 -0.125451 -0.348120
40  1.719412 -0.000097 -0.000045  -0.016074 0.001595 -1.445127
41  1.099674 0.000024 0.000001  -0.004896 -0.009018 -0.933420
42  0.805973 -0.359849 -1.318344  0.989321 0.173207 -0.818039
43  1.789780 -0.000006 -0.000039  0.000102 -0.007479 0.163490
44  1.206996 -0.000004 0.000007  0.000962 -0.000151 1.276281
45  5.740573 0.000095 0.000725  0.192514 -0.000014 0.000028
46  11.480662 -0.000210 0.000915  0.090172 0.096883 0.139835
47  6.027514 -0.000273 -0.000237  -0.849085 -0.672740 -1.666126
48  -0.000001 11.691973 -0.000006  -1.278965 0.725366 0.943554
49  0.000003 0.000001 -0.000001  2.264421 -0.000047 1.570851
50  -0.000006 -0.000015 0.000006  2.272644 -0.000030 1.570865
51  -3.028244 -2.489959 -5.924193  -0.050020 -3.001350 1.459033
52  -0.000000 0.000000 -0.000001  0.008153 -0.000259 0.000009
53  0.000000 -0.000000 -0.000000  1.565115 0.043565 -0.106862
54  0.042539 -13.997044 -4.703374  -0.714888 -0.219854 -1.841137
55  0.000000 -0.000001 0.000000  0.000000 -0.000000 -0.000002
56  0.000030 0.000028 0.000001  -1.571901 -0.044449 -0.106509
57  6.132251 -14.556842 -16.933033  1.570796 -0.000000 0.000000
58  -16.642132 4.602435 -20.579788  1.570796 -0.000000 0.000000
59  2.236387 1.317426 -3.375998  1.570796 -0.000000 0.000000
60  -0.004311 0.001230 -0.000371  0.006898 -0.005534 -0.284229
61  0.826810 10.500209 -2.215392  1.570796 -0.000000 0.000000
62  0.000000 0.000000 0.000000  -0.078727 -3.136056 0.284226
63  -2.178818 -2.356640 -0.085199  1.570796 -0.008127 0.000000
64  -2.138968 -7.241125 -0.874647  1.572443 -0.028045 -0.002749
65  0.011267 -2.541756 0.246449  0.261799 0.000000 0.000000
66  -0.040579 -0.596186 0.186278  0.000000 -0.000000 -0.009570
67  -1.210912 -0.465220 1.116576  0.000000 -0.000000 0.000000
68  -0.001710 -1.449898 22.825077  -0.000000 -0.000000 0.000000
69  0.014791 -3.432317 2.150503  -0.000000 -0.000000 0.000000
70  0.149986 -1.844875 3.287591  -0.000000 -0.000000 0.000000
71  -0.001712 -2.299004 1.703906  -0.000000 -0.000000 0.000000
72  -3.588360 -1.097282 -23.660017  1.570796 -0.000000 0.000000
73  0.136241 2.066845 -1.396211  0.000000 -0.000000 0.000000
74  -2.125942 -11.940811 -4.980459  1.572443 -0.028045 -0.002749
75  0.087483 2.183199 -0.139910  -0.000000 -0.000000 0.000000
76  0.239006 2.332643 -1.422238  -0.000000 -0.000000 0.000000
77  -0.037276 2.055116 -1.384614  -0.000000 -0.000000 0.000000
time 2
0  0.000006 0.000000 0.000000  -1.570800 -1.391899 -1.570792
1  -3.555402 -0.696245 2.232071  -1.544956 -1.855077 -0.198630
2  6.027523 -0.000324 0.000193  -0.802407 -0.945897 -1.469753
3  11.692108 0.000645 -0.000741  -0.724735 -0.000019 -1.445299
4  11.479618 -0.000033 -0.001007  1.169785 -0.623348 0.290478
5  3.859512 -0.142877 -1.192049  -0.688486 -0.177859 -1.771238
6  1.312589 0.000011 0.000009  -0.134456 0.002702 -0.177087
7  0.729354 0.000053 0.000050  -0.006756 -0.009780 -0.219796
8  3.942143 0.046275 -0.431512  -0.617547 0.335607 -1.216410
9  1.539111 0.000084 0.000006  -0.008759 -0.079696 -0.902807
10  1.196333 0.000145 0.000029  0.008519 0.004256 -0.542288
11  3.883506 -0.047267 0.431382  -0.368041 0.662129 -0.667220
12  1.719573 -0.000027 0.000015  0.009232 -0.073687 -0.989770
13  1.209179 0.000091 0.000012  -0.009578 -0.006549 -0.915981
14  4.085223 -0.082713 1.151041  -0.261587 0.849659 -0.311892
15  1.719448 -0.000016 0.000026  0.022831 0.018817 -0.385684
16  1.099675 0.000049 0.000006  -0.071661 0.046282 -1.373824
17  0.921523 -1.355448 1.250965  -1.036595 -0.492038 -0.255498
18  1.789819 -0.000003 -0.000018  0.000321 -0.002810 0.826066
19  1.207015 -0.000013 -0.000044  0.000316 -0.000006 -0.090257
20  5.740636 0.000410 -0.000704  -0.134415 0.000003 0.000067
21  11.480931 0.000206 -0.000859  -0.055113 -0.112456 0.020475
22  6.027524 -0.000330 0.000203  1.643097 -0.621343 1.548048
23  0.000000 11.692098 -0.000006  -0.996970 -0.445999 -0.789403
24  0.000002 0.000009 -0.000001  0.144362 -0.000031 1.570739
25  -0.000001 -0.000012 -0.000001  0.868957 0.000002 1.570712
26  -4.048488 -9.938416 0.826810  1.473120 1.855075 -0.198639
27  6.027509 -0.000258 -0.000229  1.407842 0.622947 -0.706196
28  11.691990 0.000243 0.000858  -0.008105 0.000078 -1.913226
29  11.478684 -0.001508 0.000813  -0.981381 0.367432 0.876290
30  3.859445 -0.132765 1.193035  0.469561 0.024446 -2.027518
31  1.312558 0.000026 -0.000006  0.012739 -0.118546 -0.457170
32  0.729345 0.000065 -0.000030  -0.160543 -0.094833 -0.794827
33  3.942049 0.050132 0.430970  0.239759 -0.046947 -1.686225
34  1.539096 0.000003 -0.000009  0.033634 -0.037983 -0.965277
35  1.196300 0.000076 -0.000009  -0.022665 -0.001268 -0.998653
36  3.883409 -0.050478 -0.431113  0.254832 -0.208796 -1.406922
37  1.719564 -0.000075 -0.000012  0.020717 -0.083409 -1.505713
38  1.209198 0.000035 0.000005  -0.007976 0.070582 -0.580400
39  3.859576 -0.149088 -1.331349  -0.106751 -0.125451 -0.348121
40  1.719413 -0.000097 -0.000044  -0.016074 0.001595 -1.445127
41  1.099674 0.000024 0.000002  -0.004896 -0.009018 -0.933420
42  0.805973 -0.359849 -1.318344  0.989321 0.173207 -0.818040
43  1.789780 -0.000006 -0.000039  0.000102 -0.007479 0.163490
44  1.206997 -0.000005 0.000007  0.000962 -0.000151 1.276280
45  5.740573 0.000095 0.000726  0.185135 -0.000014 0.000028
46  11.480681 -0.000201 0.000916  0.087388 0.091932 0.136255
47  6.027514 -0.000273 -0.000237  -0.836240 -0.666283 -1.676934
48  -0.000002 11.691974 -0.000006  -1.272752 0.718952 0.940958
49  0.000003 -0.000002 0.000000  2.264421 -0.000047 1.570851
50  -0.000007 -0.000016 0.000005  2.272644 -0.000030 1.570865
51  -3.207952 -2.610509 -5.959958  -0.069879 -2.992293 1.465820
52  -0.000000 0.000000 -0.000001  0.008153 -0.000259 0.000009
53  -0.000000 0.000000 -0.000000  1.565115 0.043565 -0.106862
54  -0.066879 -14.096964 -4.723787  -0.733339 -0.231889 -1.833083
55  0.000001 -0.000000 -0.000000  0.000000 -0.000000 -0.000002
56  0.000031 0.000029 0.000001  -1.571901 -0.044449 -0.106509
57  6.132251 -14.556842 -16.933033  1.570796 -0.000000 0.000000
58  -16.642132 4.602435 -20.579788  1.570796 -0.000000 0.000000
59  2.236387 1.317426 -3.375998  1.570796 -0.000000 0.000000
60  -0.004311 0.001230 -0.000371  0.006898 -0.005534 -0.284229
61  0.826810 10.500209 -2.215392  1.570796 -0.000000 0.000000
62  0.000000 0.000000 0.000000  -0.078727 -3.136056 0.284226
63  -2.178818 -2.356640 -0.085199  1.570796 0.003019 0.000000
64  -2.196384 -7.323172 -0.897366  1.565549 -0.007534 0.001295
65  0.011267 -2.541757 0.246449  0.261799 0.000000 -0.000000
66  -0.040579 -0.596202 2.449492  0.000000 -0.000000 -0.027345
67  -1.210912 -0.465220 1.116576  0.000000 -0.000000 -0.000000
68  -0.001710 -1.449898 22.825077  0.000000 0.000000 -0.000000
69  0.014792 -3.432317 2.150502  0.000000 0.000000 -0.000000
70  0.042376 -1.666965 4.386595  0.000000 0.000000 -0.000000
71  -0.001712 -2.299004 1.703907  0.000000 0.000000 -0.000000
72  -3.588360 -1.097282 -23.660017  1.570796 -0.000000 0.000000
73  0.136241 2.066845 -1.396211  0.000000 -0.000000 0.000000
74  -2.248774 -12.051063 -4.970353  1.565549 -0.007534 0.001295
75  0.087484 2.183199 -0.139910  0.000000 0.000000 -0.000000
76  0.239006 2.332643 -1.422238  0.000000 0.000000 -0.000000
77  -0.037275 2.055116 -1.384616  0.000000 0.000000 -0.000000
time 3
0  0.000006 0.000000 0.000000  -1.570800 -1.391899 -1.570792
1  -3.555402 -0.696245 2.232071  -1.544956 -1.855077 -0.198630
2  6.027523 -0.000324 0.000193  -0.794925 -0.951169 -1.478549
3  11.692107 0.000644 -0.000739  -0.724734 -0.000017 -1.418657
4  11.479758 0.000022 -0.000962  1.154532 -0.611832 0.270704
5  3.859509 -0.142877 -1.192050  -0.688486 -0.177859 -1.771238
6  1.312588 0.000011 0.000008  -0.134456 0.002702 -0.177087
7  0.729354 0.000053 0.000048  -0.006756 -0.009780 -0.219796
8  3.942145 0.046275 -0.431512  -0.617547 0.335607 -1.216410
9  1.539111 0.000086 0.000005  -0.008759 -0.079696 -0.902807
10  1.196333 0.000147 0.000028  0.008519 0.004256 -0.542288
11  3.883504 -0.047267 0.431381  -0.368041 0.662129 -0.667220
12  1.719573 -0.000026 0.000015  0.009232 -0.073687 -0.989770
13  1.209180 0.000091 0.000012  -0.009578 -0.006549 -0.915981
14  4.085224 -0.082712 1.151041  -0.261587 0.849659 -0.311892
15  1.719449 -0.000015 0.000025  0.022831 0.018817 -0.385684
16  1.099675 0.000049 0.000005  -0.071661 0.046282 -1.373825
17  0.921523 -1.355448 1.250965  -1.036595 -0.492038 -0.255498
18  1.789818 -0.000004 -0.000018  0.000321 -0.002810 0.826066
19  1.207014 -0.000013 -0.000043  0.000316 -0.000006 -0.090257
20  5.740636 0.000409 -0.000704  -0.135203 0.000003 0.000067
21  11.480960 0.000216 -0.000852  -0.059306 -0.110068 0.016183
22  6.027524 -0.000330 0.000203  1.637012 -0.616626 1.548862
23  0.000001 11.692098 -0.000007  -0.981058 -0.431630 -0.778963
24  0.000003 0.000009 -0.000001  0.144362 -0.000031 1.570738
25  -0.000001 -0.000011 -0.000001  0.868957 0.000002 1.570712
26  -4.048488 -9.938416 0.826810  1.473120 1.855075 -0.198639
27  6.027509 -0.000258 -0.000229  1.414071 0.631428 -0.705570
28  11.691991 0.000242 0.000859  -0.008105 0.000076 -1.895030
29  11.478846 -0.001430 0.000812  -1.003366 0.361102 0.867338
30  3.859446 -0.132764 1.193036  0.469561 0.024446 -2.027518
31  1.312558 0.000025 -0.000006  0.012739 -0.118546 -0.457170
32  0.729345 0.000065 -0.000031  -0.160543 -0.094833 -0.794827
33  3.942049 0.050133 0.430971  0.239759 -0.046947 -1.686225
34  1.539096 0.000003 -0.000009  0.033634 -0.037983 -0.965277
35  1.196300 0.000076 -0.000009  -0.022665 -0.001268 -0.998653
36  3.883409 -0.050478 -0.431113  0.254832 -0.208796 -1.406922
37  1.719564 -0.000076 -0.000012  0.020717 -0.083409 -1.505713
38  1.209196 0.000035 0.000005  -0.007976 0.070582 -0.580400
39  3.859577 -0.149088 -1.331349  -0.106751 -0.125451 -0.348121
40  1.719412 -0.000097 -0.000044  -0.016074 0.001595 -1.445127
41  1.099674 0.000023 0.000002  -0.004896 -0.009018 -0.933420
42  0.805973 -0.359849 -1.318343  0.989321 0.173207 -0.818039
43  1.789780 -0.000005 -0.000039  0.000102 -0.007479 0.163490
44  1.206996 -0.000005 0.000007  0.000962 -0.000151 1.276281
45  5.740572 0.000094 0.000726  0.179658 -0.000014 0.000028
46  11.480712 -0.000186 0.000916  0.084240 0.088869 0.135993
47  6.027514 -0.000273 -0.000237  -0.841505 -0.657333 -1.676728
48  -0.000000 11.691973 -0.000007  -1.261894 0.707741 0.936315
49  0.000003 -0.000001 0.000000  2.264421 -0.000047 1.570851
50  -0.000006 -0.000015 0.000004  2.272644 -0.000031 1.570865
51  -3.250678 -2.793938 -5.944336  -0.090873 -2.993658 1.465285
52  -0.000000 0.000000 0.000000  0.008153 -0.000259 0.000009
53  0.000000 0.000000 0.000000  1.565115 0.043565 -0.106862
54  -0.127214 -14.295994 -4.813067  -0.754636 -0.233775 -1.831812
55  0.000001 0.000000 -0.000001  0.000000 -0.000000 -0.000002
56  0.000030 0.000030 0.000001  -1.571901 -0.044449 -0.106509
57  6.132251 -14.556842 -16.933033  1.570796 -0.000000 0.000000
58  -16.642132 4.602435 -20.579788  1.570796 -0.000000 0.000000
59  2.236387 1.317426 -3.375998  1.570796 -0.000000 0.000000
60  -0.004311 0.001230 -0.000371  0.006898 -0.005534 -0.284229
61  0.826810 10.500209 -2.215392  1.570796 -0.000000 0.000000
62  0.000000 0.000000 0.000000  -0.078727 -3.136056 0.284226
63  -2.178818 -2.356640 -0.085199  1.570796 0.000707 0.000000
64  -2.152906 -7.528291 -0.920085  1.569077 0.012972 -0.002339
65  0.011267 -2.541756 0.246450  0.261799 0.000000 -0.000000
66  -0.040580 -0.596219 4.712709  0.000000 0.000000 -0.036915
67  -1.210912 -0.465220 1.116576  -0.000000 -0.000000 -0.000000
68  -0.001710 -1.449898 22.825079  0.000000 0.000000 -0.000000
69  0.014791 -3.432317 2.150502  0.000000 0.000000 -0.000000
70  0.002738 -1.395035 6.042381  0.000000 0.000000 -0.000000
71  -0.001712 -2.299004 1.703906  0.000000 0.000000 -0.000000
72  -3.588360 -1.097282 -23.660017  1.570796 -0.000000 0.000000
73  0.136241 2.066845 -1.396211  0.000000 -0.000000 0.000000
74  -2.306162 -12.241369 -5.007667  1.569077 0.012972 -0.002339
75  0.087484 2.183199 -0.139909  0.000000 0.000000 -0.000000
76  0.239006 2.332643 -1.422237  0.000000 0.000000 -0.000000
77  -0.037276 2.055115 -1.384615  0.000000 0.000000 -0.000000
time 4
0  0.000006 0.000000 0.000000  -1.570800 -1.391899 -1.570792
1  -3.555402 -0.696245 2.232071  -1.544956 -1.855077 -0.198630
2  6.027523 -0.000324 0.000193  -0.796140 -0.958588 -1.490099
3  11.692107 0.000644 -0.000740  -0.724732 -0.000016 -1.391158
4  11.479918 0.000084 -0.000905  1.165269 -0.596118 0.265579
5  3.859510 -0.142877 -1.192049  -0.688486 -0.177859 -1.771238
6  1.312588 0.000012 0.000008  -0.134456 0.002702 -0.177087
7  0.729356 0.000053 0.000050  -0.006756 -0.009780 -0.219796
8  3.942144 0.046275 -0.431511  -0.617547 0.335607 -1.216410
9  1.539111 0.000084 0.000004  -0.008759 -0.079696 -0.902807
10  1.196333 0.000146 0.000029  0.008519 0.004256 -0.542288
11  3.883506 -0.047267 0.431382  -0.368041 0.662129 -0.667220
12  1.719573 -0.000028 0.000015  0.009232 -0.073687 -0.989770
13  1.209179 0.000090 0.000012  -0.009578 -0.006549 -0.915981
14  4.085221 -0.082713 1.151041  -0.261587 0.849659 -0.311893
15  1.719449 -0.000016 0.000027  0.022831 0.018817 -0.385684
16  1.099675 0.000049 0.000006  -0.071661 0.046282 -1.373824
17  0.921523 -1.355448 1.250965  -1.037375 -0.489173 -0.254273
18  1.789819 -0.000004 -0.000018  0.000300 -0.002549 0.818314
19  1.207016 -0.000013 -0.000044  0.000287 -0.000006 -0.092125
20  5.740637 0.000411 -0.000703  -0.129727 0.000003 0.000067
21  11.480992 0.000230 -0.000838  -0.058215 -0.106646 0.016501
22  6.027524 -0.000330 0.000203  1.636827 -0.609175 1.536428
23  0.000000 11.692100 -0.000005  -0.964571 -0.416958 -0.767997
24  0.000003 0.000008 -0.000001  0.144362 -0.000030 1.570739
25  -0.000001 -0.000011 0.000000  0.868957 0.000002 1.570712
26  -4.048488 -9.938416 0.826810  1.473120 1.855075 -0.198639
27  6.027509 -0.000258 -0.000229  1.417043 0.646375 -0.706920
28  11.691989 0.000240 0.000860  -0.008105 0.000074 -1.868858
29  11.479073 -0.001310 0.000813  -0.996768 0.353536 0.858376
30  3.859445 -0.132765 1.193036  0.469561 0.024446 -2.027518
31  1.312559 0.000025 -0.000007  0.012739 -0.118546 -0.457170
32  0.729345 0.000065 -0.000030  -0.160543 -0.094833 -0.794827
33  3.942049 0.050133 0.430971  0.239759 -0.046947 -1.686225
34  1.539096 0.000003 -0.000008  0.033634 -0.037983 -0.965277
35  1.196300 0.000076 -0.000008  -0.022665 -0.001268 -0.998653
36  3.883409 -0.050478 -0.431113  0.254832 -0.208796 -1.406922
37  1.719565 -0.000075 -0.000012  0.020717 -0.083409 -1.505713
38  1.209196 0.000035 0.000005  -0.007976 0.070582 -0.580400
39  3.859576 -0.149088 -1.331349  -0.106751 -0.125451 -0.348120
40  1.719413 -0.000097 -0.000044  -0.016074 0.001595 -1.445127
41  1.099674 0.000024 0.000001  -0.004896 -0.009018 -0.933420
42  0.805973 -0.359849 -1.318343  0.989321 0.173207 -0.818040
43  1.789780 -0.000005 -0.000039  0.000102 -0.007479 0.163490
44  1.206996 -0.000005 0.000007  0.000962 -0.000151 1.276281
45  5.740571 0.000096 0.000727  0.179384 -0.000014 0.000028
46  11.480759 -0.000162 0.000917  0.086393 0.087625 0.134361
47  6.027514 -0.000273 -0.000237  -0.855293 -0.646892 -1.671484
48  -0.000001 11.691972 -0.000007  -1.246335 0.691685 0.929437
49  0.000004 -0.000001 0.000001  2.264421 -0.000046 1.570851
50  -0.000007 -0.000016 0.000005  2.272644 -0.000031 1.570865
51  -3.240766 -3.045452 -5.926120  -0.084501 -2.997887 1.466806
52  -0.000000 0.000000 0.000000  0.008153 -0.000259 0.000009
53  0.000000 -0.000000 0.000000  1.565115 0.043565 -0.106862
54  -0.096688 -14.543818 -4.814601  -0.748911 -0.228620 -1.830677
55  0.000000 0.000001 0.000000  0.000000 -0.000000 -0.000002
56  0.000031 0.000029 0.000001  -1.571901 -0.044449 -0.106509
57  6.132251 -14.556842 -16.933033  1.570796 -0.000000 0.000000
58  -16.642132 4.602435 -20.579788  1.570796 -0.000000 0.000000
59  2.236387 1.317426 -3.375998  1.570796 -0.000000 0.000000
60  -0.004311 0.001230 -0.000371  0.006898 -0.005534 -0.284229
61  0.826810 10.500209 -2.215392  1.570796 -0.000000 0.000000
62  0.000000 0.000000 0.000000  -0.078727 -3.136056 0.284226
63  -2.178818 -2.356640 -0.085199  1.570796 -0.001605 0.000000
64  -2.165080 -7.794945 -0.911391  1.572631 0.006264 0.000142
65  0.011267 -2.541756 0.246449  0.261799 0.000000 0.000000
66  -0.040579 -0.596211 4.579051  0.000000 -0.000000 0.011655
67  -1.210912 -0.465220 1.116576  -0.000000 -0.000000 0.000000
68  -0.001710 -1.449898 22.825077  -0.000000 0.000000 0.000000
69  0.014792 -3.432317 2.150503  -0.000000 0.000000 0.000000
70  0.002739 -1.395035 6.042380  -0.000000 0.000000 0.000000
71  -0.001712 -2.299004 1.703905  -0.000000 0.000000 0.000000
72  -3.588360 -1.097282 -23.660017  1.570796 -0.000000 0.000000
73  0.136241 2.066845 -1.396211  0.000000 -0.000000 0.000000
74  -2.279328 -12.493823 -5.016559  1.572631 0.006264 0.000142
75  0.087483 2.183199 -0.139910  -0.000000 0.000000 0.000000
76  0.239006 2.332643 -1.422236  -0.000000 0.000000 0.000000
77  -0.037276 2.055116 -1.384615  -0.000000 0.000000 0.000000
time 5
0  0.000006 0.000000 0.000000  -1.570800 -1.391899 -1.570792
1  -3.555402 -0.696245 2.232071  -1.544956 -1.855077 -0.198630
2  6.027523 -0.000324 0.000193  -0.798173 -0.968118 -1.504664
3  11.692110 0.000645 -0.000739  -0.724731 -0.000014 -1.362226
4  11.480092 0.000154 -0.000841  1.184674 -0.576511 0.260994
5  3.859510 -0.142878 -1.192049  -0.688486 -0.177859 -1.771238
6  1.312589 0.000013 0.000007  -0.134456 0.002702 -0.177087
7  0.729355 0.000053 0.000049  -0.006756 -0.009780 -0.219796
8  3.942143 0.046274 -0.431511  -0.617547 0.335607 -1.216410
9  1.539111 0.000086 0.000006  -0.008759 -0.079696 -0.902807
10  1.196332 0.000146 0.000029  0.008519 0.004256 -0.542288
11  3.883505 -0.047268 0.431382  -0.368041 0.662129 -0.667220
12  1.719572 -0.000028 0.000015  0.009232 -0.073687 -0.989770
13  1.209179 0.000092 0.000012  -0.009578 -0.006549 -0.915981
14  4.085224 -0.082713 1.151042  -0.261587 0.849659 -0.311893
15  1.719450 -0.000017 0.000026  0.022831 0.018817 -0.385684
16  1.099674 0.000049 0.000005  -0.071661 0.046282 -1.373824
17  0.921522 -1.355449 1.250966  -1.039391 -0.481673 -0.251090
18  1.789818 -0.000004 -0.000019  0.000236 -0.001867 0.798036
19  1.207015 -0.000013 -0.000044  0.000211 -0.000005 -0.097012
20  5.740637 0.000410 -0.000702  -0.122347 0.000003 0.000067
21  11.481027 0.000243 -0.000826  -0.055618 -0.102283 0.017556
22  6.027524 -0.000330 0.000203  1.636888 -0.599576 1.520159
23  -0.000001 11.692100 -0.000007  -0.947149 -0.401702 -0.756252
24  0.000003 0.000007 -0.000001  0.144362 -0.000030 1.570739
25  -0.000001 -0.000012 -0.000002  0.868957 0.000002 1.570712
26  -4.048488 -9.938416 0.826810  1.473120 1.855075 -0.198639
27  6.027509 -0.000259 -0.000228  1.416925 0.663046 -0.709530
28  11.691990 0.000241 0.000857  -0.008105 0.000072 -1.839627
29  11.479330 -0.001170 0.000814  -0.984286 0.351303 0.846296
30  3.859445 -0.132765 1.193036  0.469561 0.024446 -2.027518
31  1.312558 0.000025 -0.000006  0.012739 -0.118546 -0.457170
32  0.729345 0.000065 -0.000031  -0.160543 -0.094833 -0.794827
33  3.942049 0.050133 0.430970  0.239759 -0.046947 -1.686225
34  1.539096 0.000003 -0.000009  0.033634 -0.037983 -0.965277
35  1.196298 0.000077 -0.000009  -0.022665 -0.001268 -0.998653
36  3.883409 -0.050478 -0.431113  0.254832 -0.208796 -1.406922
37  1.719564 -0.000075 -0.000012  0.020717 -0.083409 -1.505713
38  1.209197 0.000035 0.000006  -0.007976 0.070582 -0.580400
39  3.859577 -0.149088 -1.331349  -0.095157 -0.102366 -0.337045
40  1.719413 -0.000097 -0.000045  -0.015417 0.014399 -1.359595
41  1.099674 0.000024 0.000002  -0.006689 -0.008515 -0.861363
42  0.805973 -0.359849 -1.318344  0.989321 0.173207 -0.818040
43  1.789779 -0.000006 -0.000039  0.000102 -0.007479 0.163490
44  1.206996 -0.000004 0.000007  0.000962 -0.000151 1.276280
45  5.740573 0.000095 0.000726  0.179510 -0.000014 0.000028
46  11.480810 -0.000135 0.000916  0.089239 0.087617 0.131534
47  6.027514 -0.000273 -0.000237  -0.872406 -0.637398 -1.663772
48  -0.000002 11.691973 -0.000006  -1.229030 0.673851 0.921484
49  0.000003 0.000000 0.000001  2.264421 -0.000047 1.570851
50  -0.000007 -0.000015 0.000006  2.272644 -0.000031 1.570865
51  -3.200563 -3.316696 -5.925256  -0.071929 -2.998716 1.467163
52  -0.000000 -0.000000 -0.000000  0.008153 -0.000259 0.000009
53  -0.000000 -0.000000 0.000000  1.565115 0.043565 -0.106862
54  -0.045879 -14.807758 -4.769152  -0.736428 -0.225862 -1.831338
55  0.000001 0.000001 0.000000  0.000000 -0.000000 -0.000002
56  0.000031 0.000030 0.000001  -1.571901 -0.044449 -0.106509
57  6.132251 -14.556842 -16.933033  1.570796 -0.000000 0.000000
58  -16.642132 4.602435 -20.579788  1.570796 -0.000000 0.000000
59  2.236387 1.317426 -3.375998  1.570796 -0.000000 0.000000
60  -0.004311 0.001230 -0.000371  0.006898 -0.005534 -0.284229
61  0.826810 10.500209 -2.215392  1.570796 -0.000000 0.000000
62  0.000000 0.000000 0.000000  -0.078727 -3.136056 0.284226
63  -2.178818 -2.356640 -0.085199  1.570796 -0.000840 0.000000
64  -2.177253 -8.061600 -0.895244  1.572152 -0.006198 0.002294
65  0.011267 -2.541756 0.246448  0.130900 0.000000 -0.000000
66  -0.040579 -0.596195 4.645880  0.000000 -0.000000 0.012109
67  -1.210912 -0.465220 1.116575  0.000000 -0.000000 0.000000
68  -0.001710 -1.449898 22.825077  0.000000 -0.000000 -0.000000
69  0.014791 -3.432317 2.150501  0.000000 -0.000000 -0.000000
70  0.002739 -1.395035 6.042379  0.000000 -0.000000 -0.000000
71  -0.001712 -2.299005 1.703906  0.000000 -0.000000 -0.000000
72  -3.588360 -1.097282 -23.660017  1.570796 -0.000000 0.000000
73  0.136241 2.066845 -1.396211  0.000000 -0.000000 0.000000
74  -2.230233 -12.762564 -4.999273  1.572152 -0.006198 0.002294
75  0.087484 2.183199 -0.139910  0.000000 -0.000000 -0.000000
76  0.239006 2.332644 -1.422238  0.000000 -0.000000 -0.000000
77  -0.037276 2.055116 -1.384614  0.000000 -0.000000 -0.000000
time 6
0  0.000006 0.000000 0.000000  -1.570800 -1.391899 -1.570792
1  -3.555402 -0.696245 2.232071  -1.544956 -1.855077 -0.198630
2  6.027523 -0.000324 0.000193  -0.795743 -0.976855 -1.518424
3  11.692109 0.000643 -0.000739  -0.724730 -0.000013 -1.336492
4  11.480259 0.000226 -0.000778  1.195936 -0.558258 0.255204
5  3.859509 -0.142877 -1.192048  -0.688486 -0.177859 -1.771238
6  1.312587 0.000012 0.000008  -0.134456 0.002702 -0.177087
7  0.729355 0.000052 0.000051  -0.006756 -0.009780 -0.219796
8  3.942143 0.046276 -0.431511  -0.617547 0.335607 -1.216410
9  1.539111 0.000084 0.000005  -0.008759 -0.079696 -0.902807
10  1.196333 0.000147 0.000030  0.008519 0.004256 -0.542288
11  3.883504 -0.047267 0.431382  -0.368041 0.662129 -0.667220
12  1.719573 -0.000024 0.000014  0.009232 -0.073687 -0.989770
13  1.209179 0.000093 0.000013  -0.009578 -0.006549 -0.915981
14  4.085222 -0.082712 1.151041  -0.261587 0.849659 -0.311892
15  1.719448 -0.000015 0.000027  0.022831 0.018817 -0.385684
16  1.099674 0.000050 0.000006  -0.071661 0.046283 -1.373824
17  0.921522 -1.355448 1.250966  -1.041372 -0.474168 -0.247936
18  1.789818 -0.000004 -0.000019  0.000158 -0.001187 0.777758
19  1.207015 -0.000013 -0.000045  0.000136 -0.000005 -0.101898
20  5.740637 0.000410 -0.000703  -0.117105 0.000003 0.000067
21  11.481061 0.000257 -0.000814  -0.054482 -0.098334 0.017781
22  6.027524 -0.000330 0.000203  1.634035 -0.591053 1.510006
23  0.000001 11.692100 -0.000007  -0.931584 -0.388293 -0.745627
24  0.000003 0.000008 -0.000002  0.144362 -0.000031 1.570739
25  -0.000001 -0.000011 -0.000001  0.868957 0.000002 1.570712
26  -4.048488 -9.938416 0.826810  1.473120 1.855075 -0.198639
27  6.027509 -0.000259 -0.000228  1.415438 0.676418 -0.712130
28  11.691991 0.000240 0.000859  -0.008105 0.000070 -1.816716
29  11.479530 -0.001051 0.000813  -0.977250 0.353937 0.838701
30  3.859445 -0.132765 1.193035  0.469561 0.024446 -2.027518
31  1.312558 0.000026 -0.000006  0.012739 -0.118546 -0.457171
32  0.729345 0.000065 -0.000031  -0.160543 -0.094833 -0.794827
33  3.942049 0.050133 0.430970  0.239759 -0.046947 -1.686225
34  1.539096 0.000004 -0.000008  0.033634 -0.037983 -0.965277
35  1.196300 0.000077 -0.000009  -0.022665 -0.001268 -0.998653
36  3.883409 -0.050478 -0.431114  0.254832 -0.208796 -1.406922
37  1.719564 -0.000076 -0.000011  0.020717 -0.083409 -1.505713
38  1.209196 0.000035 0.000006  -0.007976 0.070582 -0.580400
39  3.859577 -0.149088 -1.331350  -0.083331 -0.079411 -0.325725
40  1.719413 -0.000097 -0.000045  -0.013668 0.027100 -1.274032
41  1.099674 0.000023 0.000002  -0.008441 -0.007884 -0.789307
42  0.805973 -0.359849 -1.318345  0.989321 0.173207 -0.818040
43  1.789779 -0.000006 -0.000039  0.000102 -0.007478 0.163490
44  1.206996 -0.000005 0.000007  0.000962 -0.000151 1.276281
45  5.740572 0.000097 0.000725  0.178992 -0.000014 0.000028
46  11.480850 -0.000109 0.000916  0.090528 0.088273 0.129561
47  6.027514 -0.000273 -0.000237  -0.886744 -0.630563 -1.656955
48  -0.000002 11.691972 -0.000009  -1.215510 0.659949 0.915055
49  0.000003 -0.000001 0.000000  2.264421 -0.000047 1.570851
50  -0.000007 -0.000016 0.000005  2.272644 -0.000031 1.570865
51  -3.154682 -3.524735 -5.928132  -0.065079 -2.998404 1.463958
52  -0.000000 0.000000 0.000000  0.008153 -0.000259 0.000009
53  0.000000 0.000000 -0.000001  1.565115 0.043565 -0.106862
54  -0.033483 -15.021589 -4.739215  -0.729508 -0.225109 -1.835114
55  -0.000001 -0.000001 0.000000  0.000000 -0.000000 -0.000002
56  0.000029 0.000028 0.000001  -1.571902 -0.044449 -0.106509
57  6.132251 -14.556842 -16.933033  1.570796 -0.000000 0.000000
58  -16.642132 4.602435 -20.579788  1.570796 -0.000000 0.000000
59  2.236387 1.317426 -3.375998  1.570796 -0.000000 0.000000
60  -0.004311 0.001230 -0.000371  0.006898 -0.005534 -0.284229
61  0.826810 10.500209 -2.215392  1.570796 -0.000000 0.000000
62  0.000000 0.000000 0.000000  -0.078727 -3.136056 0.284226
63  -2.178818 -2.356640 -0.085199  1.570796 0.000580 0.000000
64  -2.175731 -8.266718 -0.886550  1.571120 -0.012906 0.000075
65  0.011267 -2.541756 0.246449  -0.000000 -0.000000 -0.000000
66  -0.040579 -0.596186 4.712709  -0.000000 -0.000000 0.012174
67  -1.210912 -0.465220 1.116577  -0.000000 -0.000000 -0.000000
68  -0.001710 -1.449898 22.825077  -0.000000 -0.000000 -0.000000
69  0.014791 -3.432317 2.150502  -0.000000 -0.000000 -0.000000
70  0.002738 -1.395035 6.042379  -0.000000 -0.000000 -0.000000
71  -0.001712 -2.299004 1.703905  -0.000000 -0.000000 -0.000000
72  -3.588360 -1.097282 -23.660017  1.570796 -0.000000 0.000000
73  0.136241 2.066845 -1.396211  0.000000 -0.000000 0.000000
74  -2.211673 -12.971778 -4.986065  1.571120 -0.012906 0.000075
75  0.087484 2.183198 -0.139912  -0.000000 -0.000000 -0.000000
76  0.239006 2.332643 -1.422239  -0.000000 -0.000000 -0.000000
77  -0.037276 2.055115 -1.384616  -0.000000 -0.000000 -0.000000
time 7
0  0.000006 0.000000 0.000000  -1.570800 -1.391899 -1.570792
1  -3.555402 -0.696245 2.232071  -1.544956 -1.855077 -0.198630
2  6.027524 -0.000324 0.000193  -0.792735 -0.980584 -1.524606
3  11.692110 0.000643 -0.000740  -0.724729 -0.000012 -1.324804
4  11.480341 0.000259 -0.000751  1.196788 -0.551717 0.248851
5  3.859509 -0.142879 -1.192049  -0.688486 -0.177859 -1.771238
6  1.312588 0.000011 0.000010  -0.134456 0.002702 -0.177087
7  0.729355 0.000054 0.000049  -0.006756 -0.009781 -0.219796
8  3.942143 0.046274 -0.431511  -0.617547 0.335607 -1.216410
9  1.539111 0.000085 0.000008  -0.008759 -0.079696 -0.902807
10  1.196332 0.000146 0.000028  0.008519 0.004255 -0.542288
11  3.883504 -0.047269 0.431382  -0.368041 0.662129 -0.667220
12  1.719573 -0.000028 0.000015  0.009232 -0.073687 -0.989770
13  1.209180 0.000091 0.000012  -0.009578 -0.006549 -0.915981
14  4.085220 -0.082714 1.151041  -0.261586 0.849659 -0.311893
15  1.719448 -0.000016 0.000026  0.022831 0.018816 -0.385684
16  1.099675 0.000048 0.000008  -0.071661 0.046283 -1.373824
17  0.921522 -1.355449 1.250965  -1.042121 -0.471298 -0.246738
18  1.789819 -0.000005 -0.000018  0.000124 -0.000928 0.770007
19  1.207014 -0.000013 -0.000043  0.000107 -0.000005 -0.103766
20  5.740637 0.000410 -0.000704  -0.116026 0.000003 0.000067
21  11.481077 0.000263 -0.000809  -0.054826 -0.096884 0.016838
22  6.027524 -0.000330 0.000203  1.631531 -0.587533 1.507711
23  0.000001 11.692098 -0.000007  -0.924492 -0.382253 -0.740747
24  0.000003 0.000009 -0.000002  0.144362 -0.000031 1.570739
25  -0.000001 -0.000011 -0.000001  0.868957 0.000002 1.570712
26  -4.048488 -9.938416 0.826810  1.473120 1.855075 -0.198639
27  6.027509 -0.000259 -0.000228  1.416479 0.680735 -0.712406
28  11.691990 0.000242 0.000858  -0.008105 0.000070 -1.807422
29  11.479612 -0.001000 0.000816  -0.980184 0.353850 0.832806
30  3.859444 -0.132765 1.193036  0.469561 0.024446 -2.027518
31  1.312559 0.000025 -0.000007  0.012739 -0.118546 -0.457170
32  0.729346 0.000064 -0.000030  -0.160543 -0.094833 -0.794827
33  3.942048 0.050132 0.430971  0.239759 -0.046947 -1.686225
34  1.539096 0.000004 -0.000009  0.033634 -0.037983 -0.965277
35  1.196299 0.000076 -0.000009  -0.022665 -0.001268 -0.998653
36  3.883408 -0.050478 -0.431113  0.254832 -0.208796 -1.406922
37  1.719564 -0.000076 -0.000012  0.020717 -0.083409 -1.505713
38  1.209197 0.000035 0.000005  -0.007976 0.070582 -0.580400
39  3.859576 -0.149088 -1.331349  -0.084100 -0.080867 -0.326129
40  1.719412 -0.000097 -0.000045  -0.014421 0.026483 -1.301680
41  1.099674 0.000024 0.000001  -0.008179 -0.008168 -0.823368
42  0.805973 -0.359849 -1.318343  0.989321 0.173207 -0.818040
43  1.789779 -0.000007 -0.000039  0.000102 -0.007479 0.163490
44  1.206997 -0.000004 0.000008  0.000962 -0.000152 1.276281
45  5.740571 0.000096 0.000727  0.177512 -0.000014 0.000028
46  11.480865 -0.000100 0.000917  0.090181 0.087813 0.128566
47  6.027514 -0.000273 -0.000237  -0.890481 -0.627375 -1.655687
48  -0.000001 11.691973 -0.000006  -1.210034 0.654329 0.912399
49  0.000003 -0.000000 0.000000  2.264421 -0.000047 1.570851
50  -0.000007 -0.000016 0.000005  2.272644 -0.000031 1.570865
51  -3.159662 -3.611206 -5.932094  -0.067381 -2.997120 1.463490
52  0.000000 0.000000 -0.000000  0.008153 -0.000259 0.000009
53  -0.000001 -0.000000 0.000000  1.565115 0.043565 -0.106862
54  -0.044777 -15.109321 -4.738792  -0.731610 -0.226734 -1.835441
55  -0.000002 0.000000 0.000000  0.000000 -0.000000 -0.000002
56  0.000029 0.000029 0.000002  -1.571901 -0.044449 -0.106509
57  6.132251 -14.556842 -16.933033  1.570796 -0.000000 0.000000
58  -16.642132 4.602435 -20.579788  1.570796 -0.000000 0.000000
59  2.236387 1.317426 -3.375998  1.570796 -0.000000 0.000000
60  -0.004311 0.001230 -0.000371  0.006898 -0.005534 -0.284229
61  0.826810 10.500209 -2.215392  1.570796 -0.000000 0.000000
62  0.000000 0.000000 0.000000  -0.078727 -3.136056 0.284226
63  -2.178818 -2.356640 -0.085199  1.570796 0.001345 0.000000
64  -2.172380 -8.348765 -0.887979  1.570087 -0.010504 -0.000711
65  0.011267 -2.541757 0.246448  -0.000000 0.000000 -0.000000
66  -0.040579 -0.596186 4.712707  -0.000000 0.000000 -0.000000
67  -1.210912 -0.465220 1.116574  -0.000000 0.000000 -0.000000
68  -0.001710 -1.449898 22.825077  -0.000000 0.000000 -0.000000
69  0.014791 -3.432317 2.150501  -0.000000 0.000000 -0.000000
70  0.002738 -1.395035 6.042379  -0.000000 0.000000 -0.000000
71  -0.001712 -2.299004 1.703905  -0.000000 0.000000 -0.000000
72  -3.588360 -1.097282 -23.660017  1.570796 -0.000000 0.000000
73  0.136241 2.066845 -1.396211  0.000000 -0.000000 0.000000
74  -2.221920 -13.058023 -4.982530  1.570087 -0.010504 -0.000711
75  0.087484 2.183199 -0.139910  -0.000000 0.000000 -0.000000
76  0.239006 2.332643 -1.422237  -0.000000 0.000000 -0.000000
77  -0.037276 2.055116 -1.384615  -0.000000 0.000000 -0.000000
time 8
0  0.000006 0.000000 0.000000  -1.570800 -1.391899 -1.570792
1  -3.555402 -0.696245 2.232071  -1.544956 -1.855077 -0.198630
2  6.027524 -0.000324 0.000193  -0.791036 -0.980072 -1.524091
3  11.692108 0.000644 -0.000740  -0.724729 -0.000012 -1.325867
4  11.480332 0.000256 -0.000753  1.192224 -0.553775 0.245904
5  3.859509 -0.142878 -1.192049  -0.688486 -0.177859 -1.771238
6  1.312589 0.000012 0.000010  -0.134456 0.002702 -0.177087
7  0.729355 0.000054 0.000050  -0.006756 -0.009780 -0.219796
8  3.942144 0.046274 -0.431512  -0.617547 0.335607 -1.216410
9  1.539111 0.000084 0.000006  -0.008759 -0.079696 -0.902807
10  1.196332 0.000146 0.000028  0.008519 0.004256 -0.542288
11  3.883505 -0.047268 0.431382  -0.368041 0.662129 -0.667220
12  1.719571 -0.000027 0.000013  0.009232 -0.073687 -0.989770
13  1.209178 0.000090 0.000012  -0.009578 -0.006549 -0.915981
14  4.085224 -0.082713 1.151041  -0.261587 0.849659 -0.311892
15  1.719449 -0.000016 0.000027  0.022831 0.018816 -0.385684
16  1.099674 0.000048 0.000004  -0.071661 0.046282 -1.373824
17  0.921524 -1.355448 1.250965  -1.042121 -0.471298 -0.246738
18  1.789817 -0.000004 -0.000018  0.000124 -0.000928 0.770007
19  1.207015 -0.000013 -0.000044  0.000107 -0.000005 -0.103766
20  5.740635 0.000409 -0.000704  -0.117417 0.000003 0.000067
21  11.481074 0.000263 -0.000809  -0.055713 -0.097311 0.015928
22  6.027524 -0.000330 0.000203  1.630467 -0.588144 1.510228
23  0.000001 11.692100 -0.000007  -0.925138 -0.382801 -0.741192
24  0.000004 0.000008 -0.000000  0.144362 -0.000031 1.570739
25  -0.000001 -0.000012 -0.000001  0.868957 0.000002 1.570712
26  -4.048488 -9.938416 0.826810  1.473120 1.855075 -0.198639
27  6.027509 -0.000259 -0.000228  1.418023 0.678750 -0.711528
28  11.691991 0.000242 0.000858  -0.008105 0.000070 -1.809544
29  11.479597 -0.001012 0.000816  -0.986059 0.352938 0.831479
30  3.859445 -0.132765 1.193036  0.469561 0.024446 -2.027518
31  1.312559 0.000026 -0.000006  0.012739 -0.118546 -0.457170
32  0.729345 0.000066 -0.000030  -0.160543 -0.094833 -0.794827
33  3.942049 0.050132 0.430970  0.239759 -0.046947 -1.686225
34  1.539096 0.000004 -0.000008  0.033634 -0.037983 -0.965277
35  1.196299 0.000076 -0.000009  -0.022665 -0.001268 -0.998653
36  3.883410 -0.050478 -0.431113  0.254832 -0.208796 -1.406922
37  1.719563 -0.000074 -0.000012  0.020717 -0.083409 -1.505713
38  1.209197 0.000035 0.000006  -0.007976 0.070582 -0.580400
39  3.859577 -0.149088 -1.331350  -0.085743 -0.083985 -0.326989
40  1.719412 -0.000097 -0.000045  -0.015974 0.025092 -1.360865
41  1.099674 0.000024 0.000001  -0.007587 -0.008745 -0.896300
42  0.805973 -0.359849 -1.318344  0.989320 0.173207 -0.818040
43  1.789779 -0.000006 -0.000039  0.000102 -0.007479 0.163490
44  1.206997 -0.000004 0.000008  0.000962 -0.000151 1.276280
45  5.740573 0.000095 0.000726  0.176451 -0.000014 0.000028
46  11.480864 -0.000103 0.000917  0.089225 0.087190 0.128649
47  6.027514 -0.000273 -0.000237  -0.887624 -0.627565 -1.657456
48  -0.000001 11.691974 -0.000006  -1.211284 0.655612 0.913008
49  0.000004 -0.000001 0.000000  2.264421 -0.000047 1.570851
50  -0.000006 -0.000015 0.000006  2.272644 -0.000031 1.570865
51  -3.182402 -3.594388 -5.932172  -0.072640 -2.996089 1.464132
52  0.000000 -0.000000 0.000000  0.008153 -0.000259 0.000009
53  0.000000 0.000000 0.000000  1.565115 0.043565 -0.106862
54  -0.062591 -15.092310 -4.749949  -0.736720 -0.228567 -1.834405
55  -0.000000 -0.000001 -0.000000  0.000000 -0.000000 -0.000002
56  0.000030 0.000028 0.000001  -1.571902 -0.044449 -0.106509
57  6.132251 -14.556842 -16.933033  1.570796 -0.000000 0.000000
58  -16.642132 4.602435 -20.579788  1.570796 -0.000000 0.000000
59  2.236387 1.317426 -3.375998  1.570796 -0.000000 0.000000
60  -0.004311 0.001230 -0.000371  0.006898 -0.005534 -0.284229
61  0.826810 10.500209 -2.215392  1.570796 -0.000000 0.000000
62  0.000000 0.000000 0.000000  -0.078727 -3.136056 0.284226
63  -2.178818 -2.356640 -0.085199  1.570796 0.000996 0.000000
64  -2.169030 -8.329700 -0.891121  1.569614 -0.005220 -0.000825
65  0.011267 -2.541756 0.246450  -0.000000 -0.000000 -0.000000
66  -0.040579 -0.596186 4.712710  -0.000000 -0.000000 -0.000000
67  -1.210912 -0.465220 1.116576  -0.000000 -0.000000 -0.000000
68  -0.001710 -1.449898 22.825077  -0.000000 -0.000000 -0.000000
69  0.014791 -3.432317 2.150503  -0.000000 -0.000000 -0.000000
70  0.002738 -1.395035 6.042380  -0.000000 -0.000000 -0.000000
71  -0.001712 -2.299004 1.703906  -0.000000 -0.000000 -0.000000
72  -3.588360 -1.097282 -23.660017  1.570796 -0.000000 0.000000
73  0.136241 2.066845 -1.396211  0.000000 -0.000000 0.000000
74  -2.240753 -13.040872 -4.983142  1.569614 -0.005220 -0.000825
75  0.087484 2.183200 -0.139910  -0.000000 -0.000000 -0.000000
76  0.239006 2.332644 -1.422237  -0.000000 -0.000000 -0.000000
77  -0.037276 2.055116 -1.384613  -0.000000 -0.000000 -0.000000
time 9
0  0.000006 0.000000 0.000000  -1.570800 -1.391899 -1.570792
1  -3.555402 -0.696245 2.232071  -1.544956 -1.855077 -0.198630
2  6.027523 -0.000324 0.000193  -0.789998 -0.978253 -1.521450
3  11.692109 0.000644 -0.000739  -0.724729 -0.000013 -1.330677
4  11.480300 0.000242 -0.000765  1.186451 -0.558435 0.244724
5  3.859509 -0.142878 -1.192049  -0.688486 -0.177859 -1.771238
6  1.312590 0.000010 0.000009  -0.134456 0.002702 -0.177087
7  0.729355 0.000053 0.000050  -0.006756 -0.009780 -0.219796
8  3.942143 0.046274 -0.431511  -0.617547 0.335607 -1.216410
9  1.539111 0.000084 0.000005  -0.008759 -0.079696 -0.902807
10  1.196333 0.000146 0.000028  0.008519 0.004256 -0.542288
11  3.883503 -0.047268 0.431382  -0.368041 0.662129 -0.667220
12  1.719573 -0.000028 0.000015  0.009232 -0.073687 -0.989770
13  1.209178 0.000091 0.000012  -0.009578 -0.006549 -0.915981
14  4.085222 -0.082713 1.151042  -0.261587 0.849659 -0.311893
15  1.719449 -0.000016 0.000026  0.022831 0.018817 -0.385684
16  1.099675 0.000048 0.000006  -0.071661 0.046282 -1.373824
17  0.921521 -1.355449 1.250966  -1.042121 -0.471298 -0.246738
18  1.789818 -0.000004 -0.000018  0.000124 -0.000928 0.770007
19  1.207015 -0.000013 -0.000044  0.000107 -0.000005 -0.103766
20  5.740635 0.000410 -0.000704  -0.119390 0.000003 0.000067
21  11.481068 0.000261 -0.000812  -0.056657 -0.098314 0.015193
22  6.027524 -0.000330 0.000203  1.630008 -0.590014 1.513986
23  -0.000000 11.692099 -0.000007  -0.928057 -0.385284 -0.743203
24  0.000003 0.000009 -0.000002  0.144362 -0.000031 1.570738
25  -0.000001 -0.000011 -0.000002  0.868957 0.000002 1.570712
26  -4.048488 -9.938416 0.826810  1.473120 1.855075 -0.198639
27  6.027509 -0.000259 -0.000228  1.419692 0.675150 -0.710366
28  11.691991 0.000241 0.000860  -0.008105 0.000070 -1.814929
29  11.479548 -0.001041 0.000816  -0.991829 0.351390 0.832145
30  3.859445 -0.132765 1.193035  0.469561 0.024446 -2.027518
31  1.312559 0.000024 -0.000006  0.012739 -0.118546 -0.457170
32  0.729345 0.000065 -0.000031  -0.160543 -0.094833 -0.794827
33  3.942049 0.050132 0.430970  0.239759 -0.046947 -1.686225
34  1.539097 0.000003 -0.000008  0.033634 -0.037983 -0.965277
35  1.196299 0.000076 -0.000009  -0.022665 -0.001268 -0.998653
36  3.883409 -0.050479 -0.431113  0.254832 -0.208796 -1.406922
37  1.719564 -0.000075 -0.000012  0.020717 -0.083409 -1.505713
38  1.209196 0.000035 0.000006  -0.007976 0.070582 -0.580400
39  3.859577 -0.149088 -1.331350  -0.086511 -0.085442 -0.327389
40  1.719412 -0.000098 -0.000045  -0.016671 0.024412 -1.388510
41  1.099674 0.000025 0.000001  -0.007296 -0.008999 -0.930362
42  0.805973 -0.359849 -1.318344  0.989321 0.173207 -0.818040
43  1.789779 -0.000006 -0.000039  0.000102 -0.007479 0.163490
44  1.206996 -0.000005 0.000008  0.000962 -0.000151 1.276281
45  5.740572 0.000095 0.000726  0.175770 -0.000014 0.000028
46  11.480852 -0.000108 0.000918  0.088282 0.086540 0.129149
47  6.027514 -0.000273 -0.000237  -0.883073 -0.628609 -1.660014
48  -0.000002 11.691974 -0.000005  -1.214457 0.658868 0.914547
49  0.000005 0.000000 -0.000000  2.264421 -0.000047 1.570851
50  -0.000007 -0.000015 0.000006  2.272644 -0.000031 1.570865
51  -3.208505 -3.548091 -5.928901  -0.077973 -2.995736 1.465118
52  -0.000000 -0.000000 -0.000000  0.008153 -0.000259 0.000009
53  -0.000000 0.000000 0.000000  1.565115 0.043565 -0.106862
54  -0.080060 -15.045597 -4.765580  -0.742016 -0.229739 -1.832990
55  0.000001 -0.000001 0.000000  0.000000 -0.000000 -0.000002
56  0.000031 0.000028 0.000001  -1.571902 -0.044449 -0.106509
57  6.132251 -14.556842 -16.933033  1.570796 -0.000000 0.000000
58  -16.642132 4.602435 -20.579788  1.570796 -0.000000 0.000000
59  2.236387 1.317426 -3.375998  1.570796 -0.000000 0.000000
60  -0.004311 0.001230 -0.000371  0.006898 -0.005534 -0.284229
61  0.826810 10.500209 -2.215392  1.570796 -0.000000 0.000000
62  0.000000 0.000000 0.000000  -0.078727 -3.136056 0.284226
63  -2.178818 -2.356640 -0.085199  1.570796 0.000349 0.000000
64  -2.167507 -8.284233 -0.894263  1.569818 0.000065 -0.000613
65  0.011267 -2.541756 0.246449  0.000000 -0.000000 -0.000000
66  -0.040579 -0.596186 4.712709  0.000000 -0.000000 -0.000000
67  -1.210912 -0.465220 1.116573  0.000000 -0.000000 -0.000000
68  -0.001710 -1.449898 22.825075  0.000000 -0.000000 -0.000000
69  0.014792 -3.432317 2.150502  0.000000 -0.000000 -0.000000
70  0.002739 -1.395035 6.042379  0.000000 -0.000000 -0.000000
71  -0.001712 -2.299005 1.703906  0.000000 -0.000000 -0.000000
72  -3.588360 -1.097282 -23.660017  1.570796 -0.000000 0.000000
73  0.136241 2.066845 -1.396211  0.000000 -0.000000 0.000000
74  -2.259858 -12.994570 -4.986831  1.569818 0.000065 -0.000613
75  0.087484 2.183199 -0.139912  0.000000 -0.000000 -0.000000
76  0.239006 2.332643 -1.422239  0.000000 -0.000000 -0.000000
77  -0.037276 2.055116 -1.384616  0.000000 -0.000000 -0.000000
time 10
0  0.000006 0.000000 0.000000  -1.570800 -1.391899 -1.570792
1  -3.555402 -0.696245 2.232071  -1.544956 -1.855077 -0.198630
2  6.027523 -0.000324 0.000193  -0.790141 -0.975990 -1.517927
3  11.692108 0.000644 -0.000739  -0.724730 -0.000013 -1.337313
4  11.480256 0.000225 -0.000781  1.182670 -0.563558 0.246016
5  3.859508 -0.142877 -1.192049  -0.688486 -0.177859 -1.771238
6  1.312590 0.000011 0.000008  -0.134456 0.002702 -0.177087
7  0.729356 0.000053 0.000052  -0.006756 -0.009780 -0.219796
8  3.942142 0.046275 -0.431511  -0.617547 0.335607 -1.216410
9  1.539111 0.000084 0.000006  -0.008759 -0.079696 -0.902807
10  1.196331 0.000148 0.000029  0.008519 0.004256 -0.542288
11  3.883504 -0.047267 0.431382  -0.368041 0.662129 -0.667220
12  1.719572 -0.000027 0.000015  0.009232 -0.073687 -0.989770
13  1.209179 0.000089 0.000012  -0.009578 -0.006549 -0.915981
14  4.085223 -0.082712 1.151042  -0.261587 0.849659 -0.311893
15  1.719447 -0.000016 0.000026  0.022831 0.018817 -0.385684
16  1.099675 0.000048 0.000006  -0.071661 0.046282 -1.373824
17  0.921522 -1.355448 1.250966  -1.042121 -0.471298 -0.246738
18  1.789819 -0.000005 -0.000019  0.000124 -0.000928 0.770007
19  1.207013 -0.000013 -0.000044  0.000107 -0.000005 -0.103766
20  5.740637 0.000412 -0.000702  -0.120956 0.000003 0.000067
21  11.481060 0.000258 -0.000815  -0.057111 -0.099427 0.015031
22  6.027524 -0.000330 0.000203  1.630393 -0.592257 1.517175
23  0.000000 11.692100 -0.000007  -0.932082 -0.388718 -0.745969
24  0.000004 0.000008 -0.000002  0.144362 -0.000031 1.570738
25  -0.000001 -0.000011 -0.000001  0.868957 0.000002 1.570712
26  -4.048488 -9.938416 0.826810  1.473120 1.855075 -0.198639
27  6.027509 -0.000259 -0.000228  1.420547 0.671456 -0.709499
28  11.691991 0.000242 0.000858  -0.008105 0.000071 -1.821243
29  11.479494 -0.001074 0.000816  -0.994387 0.350253 0.834344
30  3.859445 -0.132765 1.193036  0.469561 0.024446 -2.027518
31  1.312558 0.000026 -0.000007  0.012739 -0.118546 -0.457170
32  0.729345 0.000065 -0.000031  -0.160543 -0.094833 -0.794827
33  3.942049 0.050133 0.430971  0.239759 -0.046947 -1.686225
34  1.539096 0.000004 -0.000009  0.033634 -0.037983 -0.965277
35  1.196300 0.000076 -0.000009  -0.022665 -0.001268 -0.998653
36  3.883409 -0.050478 -0.431113  0.254832 -0.208796 -1.406922
37  1.719564 -0.000075 -0.000013  0.020717 -0.083409 -1.505713
38  1.209197 0.000035 0.000005  -0.007976 0.070582 -0.580400
39  3.859577 -0.149088 -1.331349  -0.086511 -0.085442 -0.327389
40  1.719412 -0.000097 -0.000044  -0.016671 0.024412 -1.388510
41  1.099674 0.000024 0.000002  -0.007296 -0.008999 -0.930362
42  0.805973 -0.359849 -1.318344  0.989320 0.173207 -0.818040
43  1.789780 -0.000006 -0.000039  0.000102 -0.007479 0.163490
44  1.206997 -0.000005 0.000007  0.000962 -0.000151 1.276281
45  5.740574 0.000096 0.000727  0.175841 -0.000014 0.000028
46  11.480844 -0.000114 0.000917  0.087846 0.086245 0.129765
47  6.027514 -0.000273 -0.000237  -0.878873 -0.630211 -1.662153
48  -0.000002 11.691973 -0.000006  -1.218179 0.662691 0.916339
49  0.000004 -0.000000 -0.000000  2.264421 -0.000047 1.570851
50  -0.000006 -0.000015 0.000005  2.272644 -0.000031 1.570865
51  -3.225050 -3.491838 -5.925476  -0.080440 -2.995974 1.465947
52  -0.000000 0.000000 0.000001  0.008153 -0.000259 0.000009
53  -0.000000 0.000000 0.000000  1.565115 0.043565 -0.106862
54  -0.088418 -14.988440 -4.775347  -0.744529 -0.229884 -1.831947
55  -0.000000 0.000000 -0.000000  0.000000 -0.000000 -0.000002
56  0.000029 0.000029 0.000001  -1.571902 -0.044449 -0.106509
57  6.132251 -14.556842 -16.933033  1.570796 -0.000000 0.000000
58  -16.642132 4.602435 -20.579788  1.570796 -0.000000 0.000000
59  2.236387 1.317426 -3.375998  1.570796 -0.000000 0.000000
60  -0.004311 0.001230 -0.000371  0.006898 -0.005534 -0.284229
61  0.826810 10.500209 -2.215392  1.570796 -0.000000 0.000000
62  0.000000 0.000000 0.000000  -0.078727 -3.136056 0.284226
63  -2.178818 -2.356640 -0.085199  1.570796 -0.000000 0.000000
64  -2.169736 -8.229968 -0.895691  1.570310 0.002467 -0.000142
65  0.011267 -2.541756 0.246448  -0.000000 0.000000 0.000000
66  -0.040579 -0.596186 4.712708  -0.000000 0.000000 0.000000
67  -1.210912 -0.465220 1.116575  -0.000000 0.000000 0.000000
68  -0.001710 -1.449898 22.825075  -0.000000 0.000000 0.000000
69  0.014791 -3.432317 2.150501  -0.000000 0.000000 0.000000
70  0.002738 -1.395035 6.042379  -0.000000 0.000000 0.000000
71  -0.001712 -2.299004 1.703905  -0.000000 0.000000 0.000000
72  -3.588360 -1.097282 -23.660017  1.570796 -0.000000 0.000000
73  0.136241 2.066845 -1.396211  0.000000 -0.000000 0.000000
74  -2.269704 -12.938334 -4.990350  1.570310 0.002467 -0.000142
75  0.087484 2.183199 -0.139911  -0.000000 0.000000 0.000000
76  0.239006 2.332644 -1.422237  -0.000000 0.000000 0.000000
77  -0.037276 2.055116 -1.384614  -0.000000 0.000000 0.000000
time 11
0  0.000006 0.000000 0.000000  -1.570800 -1.391899 -1.570792
1  -3.555402 -0.696245 2.232071  -1.544956 -1.855077 -0.198630
2  6.027523 -0.000324 0.000193  -0.791113 -0.974045 -1.514772
3  11.692110 0.000645 -0.000740  -0.724730 -0.000013 -1.343423
4  11.480216 0.000206 -0.000796  1.181560 -0.567491 0.248937
5  3.859509 -0.142876 -1.192049  -0.688486 -0.177859 -1.771238
6  1.312589 0.000012 0.000008  -0.134456 0.002702 -0.177087
7  0.729357 0.000053 0.000051  -0.006756 -0.009780 -0.219796
8  3.942142 0.046275 -0.431512  -0.617547 0.335607 -1.216410
9  1.539111 0.000084 0.000005  -0.008759 -0.079696 -0.902807
10  1.196333 0.000146 0.000030  0.008519 0.004256 -0.542288
11  3.883503 -0.047267 0.431381  -0.368041 0.662129 -0.667220
12  1.719572 -0.000026 0.000013  0.009232 -0.073687 -0.989770
13  1.209178 0.000090 0.000012  -0.009578 -0.006549 -0.915981
14  4.085220 -0.082712 1.151041  -0.261587 0.849659 -0.311892
15  1.719450 -0.000015 0.000027  0.022831 0.018817 -0.385684
16  1.099676 0.000048 0.000006  -0.071661 0.046283 -1.373825
17  0.921520 -1.355448 1.250965  -1.042121 -0.471298 -0.246738
18  1.789820 -0.000004 -0.000018  0.000124 -0.000928 0.770007
19  1.207014 -0.000013 -0.000044  0.000107 -0.000005 -0.103766
20  5.740637 0.000410 -0.000703  -0.121735 0.000003 0.000067
21  11.481052 0.000253 -0.000818  -0.057046 -0.100292 0.015383
22  6.027524 -0.000330 0.000203  1.631298 -0.594132 1.519020
23  0.000000 11.692100 -0.000007  -0.935783 -0.391890 -0.748505
24  0.000003 0.000010 -0.000000  0.144362 -0.000031 1.570739
25  -0.000001 -0.000011 -0.000001  0.868957 0.000002 1.570712
26  -4.048488 -9.938416 0.826810  1.473120 1.855075 -0.198639
27  6.027509 -0.000259 -0.000228  1.420467 0.668763 -0.709125
28  11.691991 0.000241 0.000859  -0.008105 0.000071 -1.826464
29  11.479445 -0.001102 0.000816  -0.993557 0.349864 0.837193
30  3.859445 -0.132765 1.193035  0.469561 0.024446 -2.027518
31  1.312558 0.000025 -0.000006  0.012739 -0.118546 -0.457170
32  0.729345 0.000065 -0.000031  -0.160543 -0.094833 -0.794827
33  3.942048 0.050133 0.430970  0.239759 -0.046947 -1.686225
34  1.539096 0.000004 -0.000009  0.033634 -0.037983 -0.965277
35  1.196298 0.000076 -0.000009  -0.022665 -0.001268 -0.998653
36  3.883409 -0.050478 -0.431113  0.254832 -0.208796 -1.406922
37  1.719564 -0.000075 -0.000012  0.020717 -0.083409 -1.505713
38  1.209195 0.000035 0.000006  -0.007976 0.070582 -0.580400
39  3.859577 -0.149088 -1.331349  -0.086511 -0.085442 -0.327389
40  1.719413 -0.000097 -0.000045  -0.016671 0.024412 -1.388510
41  1.099674 0.000023 0.000001  -0.007296 -0.008999 -0.930362
42  0.805973 -0.359849 -1.318344  0.989321 0.173207 -0.818040
43  1.789780 -0.000007 -0.000039  0.000102 -0.007478 0.163490
44  1.206997 -0.000004 0.000007  0.000962 -0.000151 1.276281
45  5.740572 0.000095 0.000726  0.176508 -0.000014 0.000028
46  11.480833 -0.000120 0.000918  0.087945 0.086346 0.130301
47  6.027514 -0.000273 -0.000237  -0.876198 -0.631821 -1.663307
48  -0.000001 11.691972 -0.000005  -1.221258 0.665856 0.917811
49  0.000002 0.000000 0.000000  2.264421 -0.000047 1.570851
50  -0.000006 -0.000015 0.000006  2.272644 -0.000031 1.570865
51  -3.228864 -3.443913 -5.923169  -0.079838 -2.996628 1.466331
52  0.000000 -0.000000 0.000001  0.008153 -0.000259 0.000009
53  -0.000000 0.000000 -0.000000  1.565115 0.043565 -0.106862
54  -0.087573 -14.939710 -4.777726  -0.744030 -0.229146 -1.831589
55  -0.000002 -0.000000 -0.000000  0.000000 -0.000000 -0.000002
56  0.000028 0.000029 0.000001  -1.571902 -0.044449 -0.106509
57  6.132251 -14.556842 -16.933033  1.570796 -0.000000 0.000000
58  -16.642132 4.602435 -20.579788  1.570796 -0.000000 0.000000
59  2.236387 1.317426 -3.375998  1.570796 -0.000000 0.000000
60  -0.004311 0.001230 -0.000371  0.006898 -0.005534 -0.284229
61  0.826810 10.500209 -2.215392  1.570796 -0.000000 0.000000
62  0.000000 0.000000 0.000000  -0.078727 -3.136056 0.284226
63  -2.178818 -2.356640 -0.085199  1.570796 -0.000000 0.000000
64  -2.174639 -8.184503 -0.895474  1.570898 0.001806 0.000330
65  0.011267 -2.541757 0.246450  -0.000000 -0.000000 -0.000000
66  -0.040579 -0.596186 4.712709  -0.000000 -0.000000 -0.000000
67  -1.210912 -0.465220 1.116575  -0.000000 -0.000000 -0.000000
68  -0.001710 -1.449898 22.825081  -0.000000 -0.000000 -0.000000
69  0.014791 -3.432317 2.150503  -0.000000 -0.000000 -0.000000
70  0.002738 -1.395035 6.042381  -0.000000 -0.000000 -0.000000
71  -0.001712 -2.299004 1.703907  -0.000000 -0.000000 -0.000000
72  -3.588360 -1.097282 -23.660017  1.570796 -0.000000 0.000000
73  0.136241 2.066845 -1.396211  0.000000 -0.000000 0.000000
74  -2.269682 -12.890503 -4.992965  1.570898 0.001806 0.000330
75  0.087483 2.183199 -0.139909  -0.000000 -0.000000 -0.000000
76  0.239006 2.332643 -1.422237  -0.000000 -0.000000 -0.000000
77  -0.037276 2.055116 -1.384614  -0.000000 -0.000000 -0.000000
time 12
0  0.000006 0.000000 0.000000  -1.570800 -1.391899 -1.570792
1  -3.555402 -0.696245 2.232071  -1.544956 -1.855077 -0.198630
2  6.027523 -0.000324 0.000193  -0.791732 -0.973183 -1.513350
3  11.692109 0.000643 -0.000739  -0.724730 -0.000013 -1.346211
4  11.480196 0.000200 -0.000803  1.181788 -0.569123 0.251049
5  3.859511 -0.142876 -1.192049  -0.688486 -0.177859 -1.771238
6  1.312589 0.000012 0.000008  -0.134456 0.002702 -0.177087
7  0.729354 0.000051 0.000048  -0.006756 -0.009780 -0.219796
8  3.942144 0.046276 -0.431511  -0.617547 0.335607 -1.216410
9  1.539111 0.000085 0.000005  -0.008759 -0.079696 -0.902807
10  1.196332 0.000147 0.000030  0.008519 0.004256 -0.542288
11  3.883505 -0.047267 0.431382  -0.368041 0.662129 -0.667220
12  1.719574 -0.000028 0.000014  0.009232 -0.073687 -0.989770
13  1.209179 0.000089 0.000011  -0.009578 -0.006549 -0.915981
14  4.085224 -0.082712 1.151041  -0.261587 0.849659 -0.311893
15  1.719450 -0.000015 0.000028  0.022831 0.018817 -0.385684
16  1.099674 0.000048 0.000006  -0.071661 0.046282 -1.373824
17  0.921524 -1.355447 1.250965  -1.042121 -0.471298 -0.246738
18  1.789819 -0.000003 -0.000018  0.000124 -0.000928 0.770007
19  1.207012 -0.000013 -0.000045  0.000107 -0.000005 -0.103766
20  5.740637 0.000411 -0.000703  -0.121869 0.000003 0.000067
21  11.481048 0.000253 -0.000819  -0.056855 -0.100658 0.015743
22  6.027524 -0.000330 0.000203  1.631828 -0.594951 1.519634
23  0.000001 11.692098 -0.000006  -0.937471 -0.393339 -0.749659
24  0.000002 0.000009 0.000000  0.144362 -0.000031 1.570738
25  -0.000001 -0.000011 -0.000000  0.868957 0.000002 1.570712
26  -4.048488 -9.938416 0.826810  1.473120 1.855075 -0.198639
27  6.027509 -0.000259 -0.000228  1.420212 0.667726 -0.709062
28  11.691991 0.000242 0.000859  -0.008105 0.000071 -1.828747
29  11.479427 -0.001113 0.000814  -0.991893 0.349765 0.839005
30  3.859445 -0.132764 1.193036  0.469561 0.024446 -2.027518
31  1.312558 0.000025 -0.000006  0.012739 -0.118546 -0.457170
32  0.729345 0.000065 -0.000030  -0.160543 -0.094833 -0.794827
33  3.942049 0.050133 0.430970  0.239759 -0.046947 -1.686225
34  1.539096 0.000003 -0.000009  0.033634 -0.037983 -0.965277
35  1.196299 0.000077 -0.000010  -0.022665 -0.001268 -0.998653
36  3.883409 -0.050478 -0.431114  0.254832 -0.208796 -1.406922
37  1.719564 -0.000075 -0.000012  0.020717 -0.083409 -1.505713
38  1.209197 0.000035 0.000005  -0.007976 0.070582 -0.580400
39  3.859577 -0.149088 -1.331349  -0.086511 -0.085442 -0.327389
40  1.719412 -0.000097 -0.000044  -0.016671 0.024412 -1.388510
41  1.099674 0.000025 0.000001  -0.007296 -0.008999 -0.930362
42  0.805972 -0.359849 -1.318343  0.989321 0.173207 -0.818040
43  1.789779 -0.000007 -0.000039  0.000102 -0.007478 0.163490
44  1.206996 -0.000004 0.000007  0.000962 -0.000151 1.276281
45  5.740573 0.000096 0.000727  0.177087 -0.000014 0.000028
46  11.480830 -0.000123 0.000917  0.088204 0.086516 0.130578
47  6.027514 -0.000273 -0.000237  -0.875293 -0.632583 -1.663621
48  -0.000001 11.691973 -0.000006  -1.222605 0.667241 0.918452
49  0.000002 -0.000001 0.000001  2.264421 -0.000047 1.570851
50  -0.000006 -0.000016 0.000006  2.272644 -0.000031 1.570865
51  -3.227475 -3.422595 -5.921842  -0.078429 -2.997270 1.466341
52  -0.000000 -0.000000 0.000000  0.008153 -0.000259 0.000009
53  0.000000 0.000000 0.000000  1.565115 0.043565 -0.106862
54  -0.085388 -14.918283 -4.777497  -0.742718 -0.228295 -1.831673
55  0.000001 0.000000 0.000000  0.000000 -0.000000 -0.000002
56  0.000030 0.000029 0.000001  -1.571902 -0.044449 -0.106509
57  6.132251 -14.556842 -16.933033  1.570796 -0.000000 0.000000
58  -16.642132 4.602435 -20.579788  1.570796 -0.000000 0.000000
59  2.236387 1.317426 -3.375998  1.570796 -0.000000 0.000000
60  -0.004311 0.001230 -0.000371  0.006898 -0.005534 -0.284229
61  0.826810 10.500209 -2.215392  1.570796 -0.000000 0.000000
62  0.000000 0.000000 0.000000  -0.078727 -3.136056 0.284226
63  -2.178818 -2.356640 -0.085199  1.570796 -0.000000 0.000000
64  -2.179542 -8.165436 -0.894955  1.571390 0.000352 0.000545
65  0.011267 -2.541757 0.246449  -0.000000 0.000000 -0.000000
66  -0.040579 -0.596186 4.712708  -0.000000 0.000000 -0.000000
67  -1.210912 -0.465220 1.116575  -0.000000 0.000000 -0.000000
68  -0.001710 -1.449898 22.825075  -0.000000 0.000000 -0.000000
69  0.014792 -3.432317 2.150501  -0.000000 0.000000 -0.000000
70  0.002738 -1.395035 6.042380  -0.000000 0.000000 -0.000000
71  -0.001712 -2.299004 1.703905  -0.000000 0.000000 -0.000000
72  -3.588360 -1.097282 -23.660017  1.570796 -0.000000 0.000000
73  0.136241 2.066845 -1.396211  0.000000 -0.000000 0.000000
74  -2.267622 -12.869438 -4.994897  1.571390 0.000352 0.000545
75  0.087483 2.183199 -0.139910  -0.000000 0.000000 -0.000000
76  0.239006 2.332644 -1.422238  -0.000000 0.000000 -0.000000
77  -0.037276 2.055116 -1.384616  -0.000000 0.000000 -0.000000
time 13
0  0.000006 0.000000 0.000000  -1.570800 -1.391899 -1.570792
1  -3.555402 -0.696245 2.232071  -1.544956 -1.855077 -0.198630
2  6.027523 -0.000324 0.000193  -0.791658 -0.974021 -1.514657
3  11.692108 0.000644 -0.000739  -0.724730 -0.000013 -1.343590
4  11.480215 0.000206 -0.000795  1.183346 -0.567289 0.251010
5  3.859509 -0.142879 -1.192049  -0.688486 -0.177859 -1.771238
6  1.312590 0.000012 0.000010  -0.134456 0.002702 -0.177087
7  0.729354 0.000053 0.000050  -0.006756 -0.009780 -0.219796
8  3.942143 0.046274 -0.431511  -0.617547 0.335607 -1.216410
9  1.539111 0.000085 0.000006  -0.008759 -0.079696 -0.902807
10  1.196334 0.000147 0.000029  0.008519 0.004256 -0.542288
11  3.883506 -0.047269 0.431382  -0.368041 0.662129 -0.667220
12  1.719573 -0.000026 0.000016  0.009232 -0.073687 -0.989770
13  1.209180 0.000091 0.000011  -0.009578 -0.006550 -0.915981
14  4.085223 -0.082714 1.151041  -0.261587 0.849659 -0.311893
15  1.719449 -0.000014 0.000027  0.022831 0.018816 -0.385684
16  1.099674 0.000048 0.000005  -0.071661 0.046283 -1.373824
17  0.921523 -1.355449 1.250965  -1.042121 -0.471298 -0.246738
18  1.789820 -0.000003 -0.000018  0.000124 -0.000928 0.770007
19  1.207015 -0.000013 -0.000044  0.000107 -0.000005 -0.103766
20  5.740638 0.000410 -0.000701  -0.121202 0.000003 0.000067
21  11.481052 0.000253 -0.000815  -0.056639 -0.100266 0.015897
22  6.027524 -0.000330 0.000203  1.631668 -0.594123 1.518477
23  0.000001 11.692099 -0.000008  -0.935884 -0.391976 -0.748574
24  0.000003 0.000008 -0.000001  0.144362 -0.000031 1.570739
25  -0.000001 -0.000011 -0.000002  0.868957 0.000002 1.570712
26  -4.048488 -9.938416 0.826810  1.473120 1.855075 -0.198639
27  6.027509 -0.000259 -0.000228  1.420016 0.669192 -0.709353
28  11.691990 0.000242 0.000859  -0.008105 0.000071 -1.826329
29  11.479451 -0.001102 0.000814  -0.990317 0.349816 0.838577
30  3.859446 -0.132765 1.193036  0.469561 0.024446 -2.027518
31  1.312559 0.000026 -0.000006  0.012739 -0.118546 -0.457170
32  0.729345 0.000065 -0.000031  -0.160543 -0.094833 -0.794827
33  3.942049 0.050132 0.430969  0.239759 -0.046947 -1.686225
34  1.539096 0.000004 -0.000009  0.033634 -0.037983 -0.965277
35  1.196300 0.000076 -0.000010  -0.022665 -0.001268 -0.998653
36  3.883410 -0.050478 -0.431113  0.254832 -0.208796 -1.406922
37  1.719563 -0.000076 -0.000012  0.020717 -0.083409 -1.505713
38  1.209197 0.000035 0.000005  -0.007976 0.070582 -0.580400
39  3.859578 -0.149088 -1.331350  -0.086511 -0.085442 -0.327389
40  1.719413 -0.000097 -0.000045  -0.016671 0.024412 -1.388510
41  1.099673 0.000024 0.000002  -0.007296 -0.008999 -0.930362
42  0.805973 -0.359849 -1.318344  0.989320 0.173207 -0.818040
43  1.789779 -0.000007 -0.000040  0.000102 -0.007478 0.163490
44  1.206996 -0.000005 0.000007  0.000962 -0.000151 1.276280
45  5.740576 0.000095 0.000725  0.177227 -0.000014 0.000028
46  11.480837 -0.000120 0.000916  0.088500 0.086617 0.130415
47  6.027514 -0.000273 -0.000237  -0.876885 -0.631861 -1.662849
48  -0.000001 11.691973 -0.000007  -1.221179 0.665774 0.917773
49  0.000004 -0.000000 0.000000  2.264421 -0.000047 1.570851
50  -0.000006 -0.000015 0.000006  2.272644 -0.000030 1.570865
51  -3.221895 -3.444508 -5.921759  -0.076990 -2.997627 1.466029
52  -0.000000 0.000000 -0.000000  0.008153 -0.000259 0.000009
53  0.000000 -0.000000 -0.000001  1.565115 0.043565 -0.106862
54  -0.082687 -14.940765 -4.775227  -0.741332 -0.227720 -1.832092
55  0.000001 -0.000001 -0.000000  0.000000 -0.000000 -0.000002
56  0.000030 0.000028 0.000001  -1.571902 -0.044449 -0.106509
57  6.132251 -14.556842 -16.933033  1.570796 -0.000000 0.000000
58  -16.642132 4.602435 -20.579788  1.570796 -0.000000 0.000000
59  2.236387 1.317426 -3.375998  1.570796 -0.000000 0.000000
60  -0.004311 0.001230 -0.000371  0.006898 -0.005534 -0.284229
61  0.826810 10.500209 -2.215392  1.570796 -0.000000 0.000000
62  0.000000 0.000000 0.000000  -0.078727 -3.136056 0.284226
63  -2.178818 -2.356640 -0.085199  1.570796 -0.000000 0.000000
64  -2.181771 -8.188499 -0.894337  1.571596 -0.001101 0.000439
65  0.011267 -2.541756 0.246449  -0.000000 0.000000 0.000000
66  -0.040579 -0.596186 4.712708  -0.000000 0.000000 0.000000
67  -1.210912 -0.465220 1.116576  -0.000000 0.000000 0.000000
68  -0.001710 -1.449898 22.825075  -0.000000 0.000000 0.000000
69  0.014791 -3.432317 2.150501  -0.000000 0.000000 0.000000
70  0.002738 -1.395035 6.042380  -0.000000 0.000000 0.000000
71  -0.001712 -2.299005 1.703906  -0.000000 0.000000 0.000000
72  -3.588360 -1.097282 -23.660017  1.570796 -0.000000 0.000000
73  0.136241 2.066845 -1.396211  0.000000 -0.000000 0.000000
74  -2.264387 -12.891644 -4.995375  1.571596 -0.001101 0.000439
75  0.087484 2.183200 -0.139910  -0.000000 0.000000 0.000000
76  0.239006 2.332644 -1.422238  -0.000000 0.000000 0.000000
77  -0.037276 2.055117 -1.384615  -0.000000 0.000000 0.000000
time 14
0  0.000006 0.000000 0.000000  -1.570800 -1.391899 -1.570792
1  -3.555402 -0.696245 2.232071  -1.544956 -1.855077 -0.198630
2  6.027523 -0.000324 0.000193  -0.791062 -0.975704 -1.517347
3  11.692109 0.000644 -0.000739  -0.724730 -0.000013 -1.338257
4  11.480250 0.000221 -0.000784  1.185056 -0.563890 0.249359
5  3.859511 -0.142877 -1.192048  -0.688486 -0.177859 -1.771238
6  1.312589 0.000011 0.000008  -0.134456 0.002702 -0.177087
7  0.729356 0.000054 0.000048  -0.006756 -0.009781 -0.219796
8  3.942145 0.046276 -0.431511  -0.617547 0.335607 -1.216410
9  1.539112 0.000083 0.000006  -0.008759 -0.079696 -0.902807
10  1.196332 0.000147 0.000030  0.008519 0.004256 -0.542288
11  3.883506 -0.047267 0.431382  -0.368041 0.662129 -0.667220
12  1.719573 -0.000027 0.000014  0.009232 -0.073687 -0.989770
13  1.209179 0.000091 0.000012  -0.009578 -0.006549 -0.915981
14  4.085223 -0.082713 1.151042  -0.261587 0.849659 -0.311893
15  1.719449 -0.000016 0.000025  0.022831 0.018816 -0.385684
16  1.099675 0.000048 0.000005  -0.071661 0.046283 -1.373824
17  0.921525 -1.355448 1.250965  -1.042121 -0.471298 -0.246738
18  1.789818 -0.000004 -0.000019  0.000124 -0.000928 0.770007
19  1.207015 -0.000013 -0.000044  0.000107 -0.000005 -0.103766
20  5.740637 0.000410 -0.000702  -0.120299 0.000003 0.000067
21  11.481059 0.000257 -0.000815  -0.056520 -0.099525 0.015805
22  6.027524 -0.000330 0.000203  1.631049 -0.592486 1.516626
23  0.000001 11.692099 -0.000007  -0.932654 -0.389208 -0.746361
24  0.000004 0.000008 -0.000001  0.144362 -0.000031 1.570739
25  -0.000001 -0.000011 -0.000001  0.868957 0.000002 1.570712
26  -4.048488 -9.938416 0.826810  1.473120 1.855075 -0.198639
27  6.027509 -0.000259 -0.000228  1.420050 0.671751 -0.709725
28  11.691992 0.000241 0.000859  -0.008105 0.000071 -1.821648
29  11.479490 -0.001076 0.000814  -0.989680 0.349820 0.836646
30  3.859445 -0.132765 1.193037  0.469561 0.024446 -2.027518
31  1.312559 0.000025 -0.000006  0.012739 -0.118546 -0.457170
32  0.729344 0.000066 -0.000030  -0.160543 -0.094833 -0.794827
33  3.942049 0.050133 0.430971  0.239759 -0.046947 -1.686225
34  1.539096 0.000004 -0.000008  0.033634 -0.037983 -0.965277
35  1.196299 0.000077 -0.000009  -0.022665 -0.001268 -0.998653
36  3.883409 -0.050478 -0.431113  0.254832 -0.208796 -1.406922
37  1.719563 -0.000075 -0.000012  0.020717 -0.083409 -1.505713
38  1.209196 0.000035 0.000005  -0.007976 0.070582 -0.580400
39  3.859577 -0.149088 -1.331349  -0.086511 -0.085442 -0.327389
40  1.719412 -0.000097 -0.000045  -0.016671 0.024412 -1.388510
41  1.099674 0.000024 0.000002  -0.007296 -0.008999 -0.930362
42  0.805973 -0.359849 -1.318343  0.989321 0.173207 -0.818039
43  1.789780 -0.000007 -0.000039  0.000102 -0.007479 0.163490
44  1.206996 -0.000004 0.000007  0.000962 -0.000151 1.276281
45  5.740573 0.000096 0.000726  0.176962 -0.000014 0.000028
46  11.480843 -0.000114 0.000916  0.088675 0.086585 0.130009
47  6.027514 -0.000273 -0.000237  -0.879450 -0.630356 -1.661729
48  -0.000002 11.691973 -0.000006  -1.218418 0.662936 0.916453
49  0.000004 0.000000 0.000000  2.264421 -0.000047 1.570851
50  -0.000007 -0.000017 0.000006  2.272644 -0.000031 1.570865
51  -3.216990 -3.487519 -5.922320  -0.076318 -2.997614 1.465701
52  0.000000 -0.000000 -0.000000  0.008153 -0.000259 0.000009
53  -0.000000 0.000000 0.000000  1.565115 0.043565 -0.106862
54  -0.081202 -14.984406 -4.772761  -0.740655 -0.227629 -1.832476
55  -0.000000 0.000000 -0.000000  0.000000 -0.000000 -0.000002
56  0.000030 0.000030 0.000001  -1.571901 -0.044449 -0.106509
57  6.132251 -14.556842 -16.933033  1.570796 -0.000000 0.000000
58  -16.642132 4.602435 -20.579788  1.570796 -0.000000 0.000000
59  2.236387 1.317426 -3.375998  1.570796 -0.000000 0.000000
60  -0.004311 0.001230 -0.000371  0.006898 -0.005534 -0.284229
61  0.826810 10.500209 -2.215392  1.570796 -0.000000 0.000000
62  0.000000 0.000000 0.000000  -0.078727 -3.136056 0.284226
63  -2.178818 -2.356640 -0.085199  1.570796 -0.000000 0.000000
64  -2.181286 -8.231333 -0.893818  1.571513 -0.001762 0.000208
65  0.011267 -2.541756 0.246449  -0.000000 0.000000 0.000000
66  -0.040579 -0.596186 4.712708  -0.000000 0.000000 0.000000
67  -1.210913 -0.465220 1.116575  -0.000000 0.000000 0.000000
68  -0.001710 -1.449898 22.825073  -0.000000 0.000000 0.000000
69  0.014792 -3.432317 2.150500  -0.000000 0.000000 0.000000
70  0.002739 -1.395035 6.042378  -0.000000 0.000000 0.000000
71  -0.001712 -2.299004 1.703904  -0.000000 0.000000 0.000000
72  -3.588360 -1.097282 -23.660017  1.570796 -0.000000 0.000000
73  0.136241 2.066845 -1.396211  0.000000 -0.000000 0.000000
74  -2.262281 -12.934798 -4.994521  1.571513 -0.001762 0.000208
75  0.087483 2.183199 -0.139910  -0.000000 0.000000 0.000000
76  0.239006 2.332643 -1.422236  -0.000000 0.000000 0.000000
77  -0.037276 2.055116 -1.384614  -0.000000 0.000000 0.000000
time 15
0  0.000006 0.000000 0.000000  -1.570800 -1.391899 -1.570792
1  -3.555402 -0.696245 2.232071  -1.544956 -1.855077 -0.198630
2  6.027523 -0.000324 0.000193  -0.790440 -0.976705 -1.518988
3  11.692109 0.000643 -0.000739  -0.724730 -0.000013 -1.335134
4  11.480269 0.000230 -0.000774  1.185549 -0.562001 0.247962
5  3.859509 -0.142877 -1.192049  -0.688486 -0.177859 -1.771238
6  1.312591 0.000013 0.000009  -0.134456 0.002702 -0.177087
7  0.729355 0.000053 0.000051  -0.006756 -0.009780 -0.219796
8  3.942142 0.046275 -0.431512  -0.617547 0.335607 -1.216410
9  1.539111 0.000085 0.000004  -0.008759 -0.079696 -0.902807
10  1.196332 0.000146 0.000026  0.008519 0.004256 -0.542288
11  3.883504 -0.047267 0.431382  -0.368041 0.662129 -0.667220
12  1.719572 -0.000027 0.000016  0.009232 -0.073687 -0.989770
13  1.209178 0.000090 0.000011  -0.009578 -0.006549 -0.915981
14  4.085224 -0.082712 1.151041  -0.261587 0.849659 -0.311893
15  1.719447 -0.000015 0.000026  0.022831 0.018817 -0.385684
16  1.099674 0.000047 0.000005  -0.071661 0.046283 -1.373824
17  0.921523 -1.355448 1.250965  -1.042121 -0.471298 -0.246738
18  1.789821 -0.000005 -0.000018  0.000124 -0.000928 0.770007
19  1.207014 -0.000013 -0.000044  0.000107 -0.000005 -0.103766
20  5.740637 0.000410 -0.000703  -0.119921 0.000003 0.000067
21  11.481062 0.000259 -0.000813  -0.056558 -0.099111 0.015634
22  6.027524 -0.000330 0.000203  1.630502 -0.591528 1.515806
23  0.000001 11.692100 -0.000007  -0.930761 -0.387590 -0.745062
24  0.000004 0.000010 -0.000001  0.144362 -0.000031 1.570739
25  -0.000001 -0.000011 -0.000001  0.868957 0.000002 1.570712
26  -4.048488 -9.938416 0.826810  1.473120 1.855075 -0.198639
27  6.027509 -0.000259 -0.000228  1.420201 0.673078 -0.709869
28  11.691991 0.000242 0.000859  -0.008105 0.000071 -1.819074
29  11.479512 -0.001061 0.000814  -0.990042 0.349868 0.835312
30  3.859445 -0.132765 1.193036  0.469561 0.024446 -2.027518
31  1.312559 0.000025 -0.000006  0.012739 -0.118546 -0.457170
32  0.729345 0.000064 -0.000031  -0.160543 -0.094833 -0.794827
33  3.942049 0.050132 0.430970  0.239759 -0.046947 -1.686225
34  1.539096 0.000003 -0.000009  0.033634 -0.037983 -0.965277
35  1.196299 0.000076 -0.000010  -0.022665 -0.001268 -0.998653
36  3.883409 -0.050479 -0.431113  0.254832 -0.208796 -1.406922
37  1.719564 -0.000076 -0.000011  0.020717 -0.083409 -1.505713
38  1.209197 0.000035 0.000005  -0.007976 0.070582 -0.580400
39  3.859577 -0.149088 -1.331349  -0.086511 -0.085442 -0.327389
40  1.719412 -0.000097 -0.000044  -0.016671 0.024412 -1.388510
41  1.099674 0.000024 0.000001  -0.007296 -0.008999 -0.930362
42  0.805973 -0.359849 -1.318343  0.989320 0.173207 -0.818039
43  1.789780 -0.000006 -0.000039  0.000102 -0.007479 0.163490
44  1.206996 -0.000004 0.000007  0.000962 -0.000151 1.276281
45  5.740572 0.000096 0.000726  0.176661 -0.000014 0.000028
46  11.480847 -0.000111 0.000917  0.088645 0.086515 0.129764
47  6.027514 -0.000273 -0.000237  -0.880702 -0.629491 -1.661229
48  -0.000002 11.691973 -0.000007  -1.216900 0.661377 0.915725
49  0.000004 -0.000000 0.000001  2.264421 -0.000047 1.570851
50  -0.000007 -0.000016 0.000005  2.272644 -0.000031 1.570865
51  -3.216122 -3.511339 -5.922758  -0.076573 -2.997388 1.465507
52  -0.000000 -0.000000 0.000000  0.008153 -0.000259 0.000009
53  -0.000001 -0.000000 0.000001  1.565115 0.043565 -0.106862
54  -0.082675 -15.008724 -4.771783  -0.740875 -0.227892 -1.832658
55  -0.000001 -0.000000 0.000001  0.000000 -0.000000 -0.000002
56  0.000029 0.000029 0.000001  -1.571901 -0.044449 -0.106509
57  6.132251 -14.556842 -16.933033  1.570796 -0.000000 0.000000
58  -16.642132 4.602435 -20.579788  1.570796 -0.000000 0.000000
59  2.236387 1.317426 -3.375998  1.570796 -0.000000 0.000000
60  -0.004311 0.001230 -0.000371  0.006898 -0.005534 -0.284229
61  0.826810 10.500209 -2.215392  1.570796 -0.000000 0.000000
62  0.000000 0.000000 0.000000  -0.078727 -3.136056 0.284226
63  -2.178818 -2.356640 -0.085199  1.570796 -0.000000 0.000000
64  -2.180130 -8.254396 -0.893601  1.571315 -0.001486 -0.000023
65  0.011267 -2.541756 0.246449  -0.000000 -0.000000 0.000000
66  -0.040579 -0.596186 4.712710  -0.000000 -0.000000 0.000000
67  -1.210912 -0.465220 1.116575  -0.000000 -0.000000 0.000000
68  -0.001710 -1.449898 22.825077  -0.000000 -0.000000 0.000000
69  0.014792 -3.432317 2.150503  -0.000000 -0.000000 0.000000
70  0.002739 -1.395035 6.042379  -0.000000 -0.000000 0.000000
71  -0.001712 -2.299004 1.703906  -0.000000 -0.000000 0.000000
72  -3.588360 -1.097282 -23.660017  1.570796 -0.000000 0.000000
73  0.136241 2.066845 -1.396211  0.000000 -0.000000 0.000000
74  -2.263341 -12.958656 -4.993349  1.571315 -0.001486 -0.000023
75  0.087483 2.183199 -0.139910  -0.000000 -0.000000 0.000000
76  0.239006 2.332643 -1.422237  -0.000000 -0.000000 0.000000
77  -0.037276 2.055115 -1.384614  -0.000000 -0.000000 0.000000
time 16
0  0.000006 0.000000 0.000000  -1.570800 -1.391899 -1.570792
1  -3.555402 -0.696245 2.232071  -1.544956 -1.855077 -0.198630
2  6.027523 -0.000324 0.000193  -0.790228 -0.976764 -1.519111
3  11.692108 0.000643 -0.000740  -0.724730 -0.000013 -1.335042
4  11.480268 0.000229 -0.000776  1.185203 -0.561954 0.247478
5  3.859509 -0.142878 -1.192049  -0.688486 -0.177859 -1.771238
6  1.312589 0.000010 0.000008  -0.134456 0.002702 -0.177087
7  0.729354 0.000053 0.000049  -0.006756 -0.009780 -0.219796
8  3.942142 0.046275 -0.431511  -0.617547 0.335607 -1.216410
9  1.539111 0.000085 0.000005  -0.008759 -0.079696 -0.902807
10  1.196333 0.000147 0.000028  0.008519 0.004256 -0.542288
11  3.883505 -0.047268 0.431382  -0.368041 0.662129 -0.667220
12  1.719573 -0.000027 0.000015  0.009232 -0.073687 -0.989770
13  1.209178 0.000091 0.000011  -0.009578 -0.006549 -0.915981
14  4.085222 -0.082713 1.151041  -0.261586 0.849659 -0.311892
15  1.719449 -0.000014 0.000028  0.022831 0.018816 -0.385684
16  1.099675 0.000047 0.000006  -0.071661 0.046283 -1.373824
17  0.921522 -1.355449 1.250966  -1.042121 -0.471298 -0.246738
18  1.789819 -0.000003 -0.000018  0.000124 -0.000928 0.770007
19  1.207016 -0.000013 -0.000044  0.000107 -0.000005 -0.103766
20  5.740636 0.000409 -0.000703  -0.120024 0.000003 0.000067
21  11.481060 0.000257 -0.000814  -0.056644 -0.099097 0.015522
22  6.027524 -0.000330 0.000203  1.630353 -0.591482 1.515941
23  0.000002 11.692099 -0.000007  -0.930705 -0.387542 -0.745024
24  0.000003 0.000009 -0.000000  0.144362 -0.000031 1.570739
25  -0.000001 -0.000011 -0.000001  0.868957 0.000002 1.570712
26  -4.048488 -9.938416 0.826810  1.473120 1.855075 -0.198639
27  6.027509 -0.000259 -0.000228  1.420258 0.672985 -0.709834
28  11.691990 0.000240 0.000859  -0.008105 0.000071 -1.819097
29  11.479511 -0.001061 0.000815  -0.990720 0.350030 0.834996
30  3.859445 -0.132765 1.193036  0.469561 0.024446 -2.027518
31  1.312559 0.000025 -0.000006  0.012739 -0.118546 -0.457170
32  0.729345 0.000065 -0.000030  -0.160543 -0.094833 -0.794827
33  3.942049 0.050132 0.430970  0.239759 -0.046947 -1.686225
34  1.539096 0.000004 -0.000009  0.033634 -0.037983 -0.965277
35  1.196299 0.000077 -0.000009  -0.022665 -0.001268 -0.998653
36  3.883409 -0.050479 -0.431113  0.254832 -0.208796 -1.406922
37  1.719564 -0.000074 -0.000012  0.020717 -0.083409 -1.505713
38  1.209197 0.000035 0.000005  -0.007976 0.070582 -0.580400
39  3.859577 -0.149088 -1.331349  -0.086511 -0.085442 -0.327389
40  1.719412 -0.000097 -0.000044  -0.016671 0.024412 -1.388510
41  1.099674 0.000024 0.000001  -0.007296 -0.008999 -0.930362
42  0.805973 -0.359849 -1.318344  0.989321 0.173207 -0.818039
43  1.789780 -0.000007 -0.000039  0.000102 -0.007479 0.163490
44  1.206997 -0.000004 0.000008  0.000962 -0.000151 1.276281
45  5.740572 0.000097 0.000726  0.176500 -0.000014 0.000028
46  11.480846 -0.000111 0.000918  0.088517 0.086484 0.129727
47  6.027514 -0.000273 -0.000237  -0.880576 -0.629508 -1.661304
48  -0.000002 11.691972 -0.000007  -1.216913 0.661391 0.915731
49  0.000003 0.000000 0.000001  2.264421 -0.000046 1.570851
50  -0.000007 -0.000016 0.000005  2.272644 -0.000030 1.570865
51  -3.217290 -3.511186 -5.923363  -0.077157 -2.997089 1.465486
52  0.000000 -0.000000 0.000000  0.008153 -0.000259 0.000009
53  -0.000000 -0.000000 0.000000  1.565115 0.043565 -0.106862
54  -0.084353 -15.008627 -4.771564  -0.741412 -0.228277 -1.832641
55  -0.000001 -0.000000 -0.000000  0.000000 -0.000000 -0.000002
56  0.000030 0.000029 0.000001  -1.571901 -0.044449 -0.106509
57  6.132251 -14.556842 -16.933033  1.570796 -0.000000 0.000000
58  -16.642132 4.602435 -20.579788  1.570796 -0.000000 0.000000
59  2.236387 1.317426 -3.375998  1.570796 -0.000000 0.000000
60  -0.004311 0.001230 -0.000371  0.006898 -0.005534 -0.284229
61  0.826810 10.500209 -2.215392  1.570796 -0.000000 0.000000
62  0.000000 0.000000 0.000000  -0.078727 -3.136056 0.284226
63  -2.178818 -2.356640 -0.085199  1.570796 -0.000000 0.000000
64  -2.178749 -8.253161 -0.893711  1.571078 -0.000881 -0.000128
65  0.011267 -2.541756 0.246450  -0.000000 -0.000000 0.000000
66  -0.040579 -0.596186 4.712709  -0.000000 -0.000000 0.000000
67  -1.210912 -0.465220 1.116575  -0.000000 -0.000000 0.000000
68  -0.001710 -1.449898 22.825077  -0.000000 -0.000000 0.000000
69  0.014791 -3.432316 2.150503  -0.000000 -0.000000 0.000000
70  0.002738 -1.395035 6.042380  -0.000000 -0.000000 0.000000
71  -0.001712 -2.299004 1.703906  -0.000000 -0.000000 0.000000
72  -3.588360 -1.097282 -23.660017  1.570796 -0.000000 0.000000
73  0.136241 2.066845 -1.396211  0.000000 -0.000000 0.000000
74  -2.264937 -12.958383 -4.992294  1.571078 -0.000881 -0.000128
75  0.087484 2.183199 -0.139910  -0.000000 -0.000000 0.000000
76  0.239006 2.332644 -1.422238  -0.000000 -0.000000 0.000000
77  -0.037276 2.055116 -1.384614  -0.000000 -0.000000 0.000000
time 17
0  0.000006 0.000000 0.000000  -1.570800 -1.391899 -1.570792
1  -3.555402 -0.696245 2.232071  -1.544956 -1.855077 -0.198630
2  6.027523 -0.000324 0.000193  -0.790165 -0.976721 -1.519054
3  11.692110 0.000643 -0.000740  -0.724730 -0.000013 -1.335202
4  11.480268 0.000228 -0.000777  1.184878 -0.562148 0.247059
5  3.859509 -0.142878 -1.192049  -0.688486 -0.177859 -1.771238
6  1.312589 0.000012 0.000010  -0.134456 0.002702 -0.177087
7  0.729354 0.000054 0.000052  -0.006756 -0.009780 -0.219796
8  3.942142 0.046275 -0.431511  -0.617547 0.335607 -1.216410
9  1.539110 0.000087 0.000007  -0.008759 -0.079696 -0.902807
10  1.196333 0.000147 0.000028  0.008519 0.004256 -0.542288
11  3.883502 -0.047268 0.431382  -0.368041 0.662129 -0.667220
12  1.719573 -0.000026 0.000015  0.009232 -0.073687 -0.989770
13  1.209177 0.000090 0.000012  -0.009578 -0.006549 -0.915981
14  4.085221 -0.082714 1.151041  -0.261586 0.849659 -0.311893
15  1.719448 -0.000015 0.000025  0.022831 0.018816 -0.385684
16  1.099675 0.000047 0.000007  -0.071661 0.046283 -1.373824
17  0.921521 -1.355449 1.250965  -1.042121 -0.471298 -0.246738
18  1.789819 -0.000004 -0.000018  0.000124 -0.000928 0.770007
19  1.207015 -0.000013 -0.000043  0.000107 -0.000005 -0.103766
20  5.740636 0.000409 -0.000703  -0.120154 0.000003 0.000067
21  11.481062 0.000258 -0.000814  -0.056713 -0.099131 0.015415
22  6.027524 -0.000330 0.000203  1.630316 -0.591529 1.516071
23  0.000001 11.692100 -0.000007  -0.930802 -0.387625 -0.745090
24  0.000002 0.000009 0.000000  0.144362 -0.000031 1.570738
25  -0.000001 -0.000012 -0.000001  0.868957 0.000002 1.570712
26  -4.048488 -9.938416 0.826810  1.473120 1.855075 -0.198639
27  6.027509 -0.000259 -0.000228  1.420385 0.672790 -0.709758
28  11.691990 0.000241 0.000858  -0.008105 0.000071 -1.819250
29  11.479510 -0.001063 0.000816  -0.991415 0.349987 0.834624
30  3.859445 -0.132765 1.193036  0.469561 0.024446 -2.027518
31  1.312559 0.000026 -0.000006  0.012739 -0.118546 -0.457170
32  0.729345 0.000065 -0.000030  -0.160543 -0.094833 -0.794827
33  3.942049 0.050132 0.430971  0.239759 -0.046947 -1.686225
34  1.539096 0.000004 -0.000008  0.033634 -0.037983 -0.965277
35  1.196299 0.000076 -0.000009  -0.022665 -0.001268 -0.998653
36  3.883409 -0.050479 -0.431113  0.254832 -0.208796 -1.406922
37  1.719564 -0.000076 -0.000012  0.020717 -0.083409 -1.505713
38  1.209197 0.000035 0.000005  -0.007976 0.070582 -0.580400
39  3.859577 -0.149088 -1.331349  -0.086511 -0.085442 -0.327389
40  1.719413 -0.000097 -0.000044  -0.016671 0.024412 -1.388510
41  1.099674 0.000023 0.000002  -0.007296 -0.008999 -0.930362
42  0.805973 -0.359849 -1.318343  0.989321 0.173207 -0.818040
43  1.789779 -0.000007 -0.000039  0.000102 -0.007479 0.163490
44  1.206997 -0.000004 0.000007  0.000962 -0.000151 1.276280
45  5.740572 0.000096 0.000725  0.176349 -0.000014 0.000028
46  11.480846 -0.000112 0.000916  0.088404 0.086414 0.129690
47  6.027514 -0.000273 -0.000237  -0.880308 -0.629540 -1.661466
48  -0.000002 11.691973 -0.000006  -1.217004 0.661484 0.915775
49  0.000003 0.000000 0.000000  2.264421 -0.000047 1.570851
50  -0.000006 -0.000015 0.000005  2.272644 -0.000031 1.570865
51  -3.219482 -3.509955 -5.923879  -0.077744 -2.996828 1.465634
52  -0.000000 -0.000000 0.000000  0.008153 -0.000259 0.000009
53  0.000000 -0.000000 0.000001  1.565115 0.043565 -0.106862
54  -0.085114 -15.006968 -4.771697  -0.741960 -0.228625 -1.832453
55  -0.000001 -0.000001 0.000000  0.000000 -0.000000 -0.000002
56  0.000029 0.000028 0.000001  -1.571901 -0.044449 -0.106509
57  6.132251 -14.556842 -16.933033  1.570796 -0.000000 0.000000
58  -16.642132 4.602435 -20.579788  1.570796 -0.000000 0.000000
59  2.236387 1.317426 -3.375998  1.570796 -0.000000 0.000000
60  -0.004311 0.001230 -0.000371  0.006898 -0.005534 -0.284229
61  0.826810 10.500209 -2.215392  1.570796 -0.000000 0.000000
62  0.000000 0.000000 0.000000  -0.078727 -3.136056 0.284226
63  -2.178818 -2.356640 -0.085199  1.570796 -0.000000 0.000000
64  -2.177593 -8.250866 -0.893917  1.570880 -0.000275 -0.000064
65  0.011267 -2.541756 0.246449  0.000000 -0.000000 -0.000000
66  -0.040579 -0.596186 4.712709  0.000000 -0.000000 -0.000000
67  -1.210912 -0.465220 1.116574  0.000000 -0.000000 -0.000000
68  -0.001710 -1.449898 22.825077  0.000000 -0.000000 -0.000000
69  0.014791 -3.432317 2.150502  0.000000 -0.000000 -0.000000
70  0.002738 -1.395035 6.042380  0.000000 -0.000000 -0.000000
71  -0.001712 -2.299004 1.703905  0.000000 -0.000000 -0.000000
72  -3.588360 -1.097282 -23.660017  1.570796 -0.000000 0.000000
73  0.136241 2.066845 -1.396211  0.000000 -0.000000 0.000000
74  -2.265963 -12.956906 -4.991513  1.570880 -0.000275 -0.000064
75  0.087484 2.183198 -0.139910  0.000000 -0.000000 -0.000000
76  0.239006 2.332643 -1.422237  0.000000 -0.000000 -0.000000
77  -0.037276 2.055115 -1.384614  0.000000 -0.000000 -0.000000
time 18
0  0.000006 0.000000 0.000000  -1.570800 -1.391899 -1.570792
1  -3.555402 -0.696245 2.232071  -1.544956 -1.855077 -0.198630
2  6.027523 -0.000324 0.000193  -0.790167 -0.976681 -1.518993
3  11.692110 0.000643 -0.000738  -0.724730 -0.000013 -1.335323
4  11.480267 0.000228 -0.000778  1.184737 -0.562283 0.246880
5  3.859508 -0.142877 -1.192049  -0.688486 -0.177859 -1.771238
6  1.312588 0.000010 0.000009  -0.134456 0.002702 -0.177087
7  0.729353 0.000054 0.000051  -0.006756 -0.009781 -0.219796
8  3.942142 0.046274 -0.431511  -0.617547 0.335607 -1.216410
9  1.539111 0.000085 0.000005  -0.008759 -0.079696 -0.902807
10  1.196334 0.000145 0.000028  0.008519 0.004256 -0.542288
11  3.883504 -0.047268 0.431382  -0.368041 0.662129 -0.667220
12  1.719572 -0.000027 0.000017  0.009232 -0.073687 -0.989770
13  1.209180 0.000091 0.000013  -0.009578 -0.006549 -0.915981
14  4.085223 -0.082713 1.151041  -0.261587 0.849659 -0.311893
15  1.719449 -0.000016 0.000027  0.022831 0.018816 -0.385684
16  1.099675 0.000047 0.000005  -0.071661 0.046282 -1.373825
17  0.921521 -1.355449 1.250965  -1.042121 -0.471298 -0.246738
18  1.789820 -0.000002 -0.000018  0.000124 -0.000928 0.770007
19  1.207016 -0.000013 -0.000044  0.000107 -0.000006 -0.103766
20  5.740636 0.000409 -0.000704  -0.120218 0.000003 0.000067
21  11.481061 0.000258 -0.000815  -0.056741 -0.099156 0.015367
22  6.027524 -0.000330 0.000203  1.630322 -0.591568 1.516128
23  0.000000 11.692100 -0.000008  -0.930876 -0.387687 -0.745141
24  0.000004 0.000009 -0.000001  0.144362 -0.000031 1.570739
25  -0.000001 -0.000011 -0.000002  0.868957 0.000002 1.570712
26  -4.048488 -9.938416 0.826810  1.473120 1.855075 -0.198639
27  6.027509 -0.000259 -0.000228  1.420458 0.672681 -0.709715
28  11.691990 0.000242 0.000858  -0.008105 0.000071 -1.819343
29  11.479512 -0.001066 0.000815  -0.991735 0.349926 0.834441
30  3.859445 -0.132765 1.193036  0.469561 0.024446 -2.027518
31  1.312558 0.000025 -0.000007  0.012739 -0.118546 -0.457170
32  0.729345 0.000065 -0.000031  -0.160543 -0.094833 -0.794827
33  3.942048 0.050132 0.430970  0.239759 -0.046947 -1.686225
34  1.539096 0.000003 -0.000008  0.033634 -0.037983 -0.965277
35  1.196300 0.000076 -0.000009  -0.022665 -0.001268 -0.998653
36  3.883409 -0.050479 -0.431113  0.254832 -0.208796 -1.406922
37  1.719564 -0.000076 -0.000012  0.020717 -0.083409 -1.505713
38  1.209196 0.000035 0.000006  -0.007976 0.070582 -0.580400
39  3.859577 -0.149089 -1.331349  -0.086511 -0.085442 -0.327389
40  1.719412 -0.000097 -0.000044  -0.016671 0.024412 -1.388510
41  1.099674 0.000025 0.000002  -0.007296 -0.008999 -0.930362
42  0.805973 -0.359849 -1.318344  0.989321 0.173207 -0.818040
43  1.789779 -0.000007 -0.000039  0.000102 -0.007479 0.163490
44  1.206997 -0.000004 0.000007  0.000962 -0.000151 1.276281
45  5.740573 0.000095 0.000725  0.176281 -0.000014 0.000028
46  11.480847 -0.000114 0.000916  0.088356 0.086373 0.129674
47  6.027514 -0.000273 -0.000237  -0.880158 -0.629557 -1.661556
48  -0.000001 11.691973 -0.000006  -1.217059 0.661540 0.915801
49  0.000002 -0.000001 0.000001  2.264421 -0.000046 1.570851
50  -0.000006 -0.000016 0.000006  2.272644 -0.000031 1.570865
51  -3.220684 -3.509204 -5.924097  -0.078012 -2.996716 1.465737
52  0.000000 -0.000000 -0.000000  0.008153 -0.000259 0.000009
53  -0.000000 -0.000000 0.000000  1.565115 0.043565 -0.106862
54  -0.085265 -15.005921 -4.771821  -0.742211 -0.228777 -1.832332
55  -0.000000 -0.000000 0.000000  0.000000 -0.000000 -0.000002
56  0.000029 0.000028 0.000001  -1.571901 -0.044449 -0.106509
57  6.132251 -14.556842 -16.933033  1.570796 -0.000000 0.000000
58  -16.642132 4.602435 -20.579788  1.570796 -0.000000 0.000000
59  2.236387 1.317426 -3.375998  1.570796 -0.000000 0.000000
60  -0.004311 0.001230 -0.000371  0.006898 -0.005534 -0.284229
61  0.826810 10.500209 -2.215392  1.570796 -0.000000 0.000000
62  0.000000 0.000000 0.000000  -0.078727 -3.136056 0.284226
63  -2.178818 -2.356640 -0.085199  1.570796 -0.000000 0.000000
64  -2.177108 -8.249631 -0.894027  1.570796 -0.000000 0.000000
65  0.011267 -2.541756 0.246449  0.000000 -0.000000 0.000000
66  -0.040579 -0.596186 4.712709  0.000000 -0.000000 0.000000
67  -1.210912 -0.465220 1.116575  0.000000 -0.000000 0.000000
68  -0.001710 -1.449898 22.825077  0.000000 -0.000000 0.000000
69  0.014791 -3.432317 2.150502  0.000000 -0.000000 0.000000
70  0.002738 -1.395035 6.042380  0.000000 -0.000000 0.000000
71  -0.001712 -2.299004 1.703906  0.000000 -0.000000 0.000000
72  -3.588360 -1.097282 -23.660017  1.570796 -0.000000 0.000000
73  0.136241 2.066845 -1.396211  0.000000 -0.000000 0.000000
74  -2.266305 -12.956017 -4.991207  1.570796 -0.000000 0.000000
75  0.087484 2.183199 -0.139910  0.000000 -0.000000 0.000000
76  0.239006 2.332643 -1.422237  0.000000 -0.000000 0.000000
77  -0.037276 2.055116 -1.384614  0.000000 -0.000000 0.000000
end
