version 1
nodes
0 "ValveBiped.Bip01_Spine4" -1
1 "ValveBiped.Bip01_L_Clavicle" 0
2 "ValveBiped.Bip01_L_UpperArm" 1
3 "ValveBiped.Bip01_L_Forearm" 2
4 "ValveBiped.Bip01_L_Hand" 3
5 "ValveBiped.Bip01_L_Finger4" 4
6 "ValveBiped.Bip01_L_Finger41" 5
7 "ValveBiped.Bip01_L_Finger42" 6
8 "ValveBiped.Bip01_L_Finger3" 4
9 "ValveBiped.Bip01_L_Finger31" 8
10 "ValveBiped.Bip01_L_Finger32" 9
11 "ValveBiped.Bip01_L_Finger2" 4
12 "ValveBiped.Bip01_L_Finger21" 11
13 "ValveBiped.Bip01_L_Finger22" 12
14 "ValveBiped.Bip01_L_Finger1" 4
15 "ValveBiped.Bip01_L_Finger11" 14
16 "ValveBiped.Bip01_L_Finger12" 15
17 "ValveBiped.Bip01_L_Finger0" 4
18 "ValveBiped.Bip01_L_Finger01" 17
19 "ValveBiped.Bip01_L_Finger02" 18
20 "ValveBiped.Bip01_L_Ulna" 3
21 "ValveBiped.Bip01_L_Wrist" 3
22 "rig_l_upperarm" 1
23 "rig_l_forearm" 22
24 "rig_d_l_forearm" 23
25 "rig_d_l_upperarm" 22
26 "ValveBiped.Bip01_R_Clavicle" 0
27 "ValveBiped.Bip01_R_UpperArm" 26
28 "ValveBiped.Bip01_R_Forearm" 27
29 "ValveBiped.Bip01_R_Hand" 28
30 "ValveBiped.Bip01_R_Finger4" 29
31 "ValveBiped.Bip01_R_Finger41" 30
32 "ValveBiped.Bip01_R_Finger42" 31
33 "ValveBiped.Bip01_R_Finger3" 29
34 "ValveBiped.Bip01_R_Finger31" 33
35 "ValveBiped.Bip01_R_Finger32" 34
36 "ValveBiped.Bip01_R_Finger2" 29
37 "ValveBiped.Bip01_R_Finger21" 36
38 "ValveBiped.Bip01_R_Finger22" 37
39 "ValveBiped.Bip01_R_Finger1" 29
40 "ValveBiped.Bip01_R_Finger11" 39
41 "ValveBiped.Bip01_R_Finger12" 40
42 "ValveBiped.Bip01_R_Finger0" 29
43 "ValveBiped.Bip01_R_Finger01" 42
44 "ValveBiped.Bip01_R_Finger02" 43
45 "ValveBiped.Bip01_R_Ulna" 28
46 "ValveBiped.Bip01_R_Wrist" 28
47 "rig_r_upperarm" 26
48 "rig_r_forearm" 47
49 "rig_d_r_forearm" 48
50 "rig_d_r_upperarm" 47
51 "rig_r_hand" -1
52 "rig_d_r_hand" 51
53 "rig_d_r_wrist" 52
54 "rig_l_hand" -1
55 "rig_d_l_hand" 54
56 "rig_d_l_wrist" 54
57 "rig_l_pole" -1
58 "rig_r_pole" -1
59 "rig_l_clavicle" -1
60 "rig_d_l_clavicle" 59
61 "rig_r_clavicle" -1
62 "rig_d_r_clavicle" 61
63 "Camera" -1
64 "body" -1
65 "trigger" 64
66 "bolt" 64
67 "chandle" 66
68 "barrel" 64
69 "magrel" 64
70 "bullet1" 64
71 "hammer" 64
72 "mag" -1
73 "fakerounds" 72
74 "fakemag" -1
75 "follower" 74
76 "bullet2" 74
77 "bullet3" 74
end
skeleton
time 0
0  0.000006 0.000000 0.000000  -1.570800 -1.391899 -1.570792
1  -3.555402 -0.696245 2.232071  -1.544956 -1.855077 -0.198630
2  6.027524 -0.000324 0.000193  -0.777159 -0.976753 -1.521082
3  11.692110 0.000644 -0.000740  -0.724729 -0.000013 -1.329854
4  11.480307 0.000244 -0.000762  1.153271 -0.578039 0.220120
5  3.859507 -0.142877 -1.192049  -0.688486 -0.177859 -1.771238
6  1.312589 0.000014 0.000008  -0.134456 0.002702 -0.177087
7  0.729356 0.000053 0.000049  -0.006756 -0.009780 -0.219796
8  3.942142 0.046275 -0.431511  -0.617547 0.335607 -1.216410
9  1.539111 0.000085 0.000006  -0.008759 -0.079696 -0.902807
10  1.196332 0.000148 0.000028  0.008519 0.004256 -0.542288
11  3.883503 -0.047267 0.431382  -0.368041 0.662129 -0.667220
12  1.719573 -0.000026 0.000015  0.009232 -0.073687 -0.989770
13  1.209180 0.000090 0.000011  -0.009578 -0.006550 -0.915981
14  4.085222 -0.082712 1.151042  -0.261587 0.849659 -0.311893
15  1.719448 -0.000016 0.000025  0.022831 0.018817 -0.385684
16  1.099675 0.000051 0.000005  -0.071661 0.046283 -1.373825
17  0.921522 -1.355448 1.250966  -1.036595 -0.492038 -0.255498
18  1.789820 -0.000004 -0.000018  0.000321 -0.002810 0.826066
19  1.207014 -0.000013 -0.000044  0.000316 -0.000006 -0.090257
20  5.740637 0.000411 -0.000703  -0.129464 0.000003 0.000067
21  11.481071 0.000262 -0.000810  -0.063073 -0.102160 0.007733
22  6.027524 -0.000330 0.000203  1.621583 -0.592214 1.529694
23  0.000002 11.692098 -0.000006  -0.927558 -0.384859 -0.742860
24  0.000001 0.000008 -0.000001  0.144362 -0.000031 1.570738
25  -0.000000 -0.000011 0.000001  0.868957 0.000002 1.570712
26  -4.048488 -9.938416 0.826810  1.473120 1.855075 -0.198639
27  6.027509 -0.000259 -0.000228  1.440773 0.664400 -0.701227
28  11.691991 0.000241 0.000858  -0.008105 0.000071 -1.822329
29  11.479482 -0.001080 0.000816  -1.039059 0.326750 0.815646
30  3.859445 -0.132765 1.193036  0.469561 0.024446 -2.027518
31  1.312559 0.000025 -0.000006  0.012739 -0.118546 -0.457170
32  0.729345 0.000066 -0.000030  -0.160543 -0.094833 -0.794827
33  3.942049 0.050132 0.430970  0.239759 -0.046947 -1.686225
34  1.539096 0.000004 -0.000008  0.033634 -0.037983 -0.965277
35  1.196300 0.000076 -0.000010  -0.022665 -0.001268 -0.998653
36  3.883409 -0.050479 -0.431114  0.254832 -0.208796 -1.406922
37  1.719564 -0.000075 -0.000012  0.020717 -0.083409 -1.505713
38  1.209197 0.000035 0.000006  -0.007976 0.070582 -0.580400
39  3.859577 -0.149088 -1.331350  -0.106751 -0.125451 -0.348120
40  1.719413 -0.000097 -0.000045  -0.016074 0.001595 -1.445127
41  1.099674 0.000024 0.000002  -0.004896 -0.009018 -0.933420
42  0.805973 -0.359849 -1.318344  0.989321 0.173207 -0.818040
43  1.789779 -0.000006 -0.000039  0.000102 -0.007478 0.163490
44  1.206997 -0.000004 0.000007  0.000962 -0.000151 1.276280
45  5.740572 0.000096 0.000725  0.167490 -0.000014 0.000028
46  11.480840 -0.000116 0.000917  0.082167 0.078182 0.129515
47  6.027514 -0.000273 -0.000237  -0.860553 -0.621185 -1.677138
48  -0.000002 11.691975 -0.000007  -1.218819 0.663348 0.916646
49  0.000004 -0.000001 0.000001  2.264421 -0.000047 1.570851
50  -0.000007 -0.000014 0.000006  2.272644 -0.000030 1.570865
51  -3.458755 -3.515954 -5.875190  -0.119636 -2.992809 1.478372
52  0.000000 -0.000000 -0.000001  0.008153 -0.000259 0.000009
53  0.000000 -0.000000 -0.000000  1.565115 0.043565 -0.106862
54  -0.203266 -14.991943 -4.857072  -0.783415 -0.238985 -1.816237
55  -0.000001 -0.000001 0.000001  0.000000 -0.000000 -0.000002
56  0.000030 0.000028 0.000002  -1.571901 -0.044449 -0.106509
57  6.132251 -14.556842 -16.933033  1.570796 -0.000000 0.000000
58  -16.642132 4.602435 -20.579788  1.570796 -0.000000 0.000000
59  2.236387 1.317426 -3.375998  1.570796 -0.000000 0.000000
60  -0.004311 0.001230 -0.000371  0.006898 -0.005534 -0.284229
61  0.826810 10.500209 -2.215392  1.570796 -0.000000 0.000000
62  0.000000 0.000000 0.000000  -0.078727 -3.136056 0.284226
63  0.000000 0.000000 0.000000  1.570796 -0.000000 0.000000
64  -2.177108 -8.249631 -0.894027  1.571103 0.041360 0.006551
65  0.011267 -2.541756 0.246449  0.261799 0.000000 -0.000000
66  -0.040579 -0.596186 4.712709  0.000000 -0.000000 -0.000000
67  -1.210912 -0.465220 1.116576  0.000000 -0.000000 -0.000000
68  -0.001710 -1.449898 22.825073  0.000000 -0.000000 -0.000000
69  0.014791 -3.432316 2.150502  0.000000 -0.000000 -0.000000
70  0.149986 -1.844875 3.287589  0.000000 -0.000000 -0.000000
71  -0.001712 -2.299004 1.703905  1.570796 -0.000000 -0.000000
72  -3.588360 -1.097282 -23.660017  1.570796 -0.000000 0.000000
73  0.136241 2.066845 -1.396211  0.000000 -0.000000 0.000000
74  -2.404870 -12.956352 -4.985460  1.571103 0.041360 0.006551
75  0.087484 2.183199 -0.139911  0.000000 -0.000000 -0.000000
76  0.239006 2.332643 -1.422238  0.000000 -0.000000 -0.000000
77  -0.037276 2.055116 -1.384615  0.000000 -0.000000 -0.000000
time 1
0  0.000006 0.000000 0.000000  -1.570800 -1.391899 -1.570792
1  -3.555402 -0.696245 2.232071  -1.544956 -1.855077 -0.198630
2  6.027523 -0.000324 0.000193  -0.770865 -0.947458 -1.474339
3  11.692107 0.000643 -0.000739  -0.724735 -0.000019 -1.441736
4  11.479635 -0.000026 -0.001003  1.100343 -0.651255 0.241234
5  3.859510 -0.142877 -1.192049  -0.688486 -0.177859 -1.771238
6  1.312589 0.000012 0.000008  -0.134456 0.002702 -0.177087
7  0.729354 0.000053 0.000050  -0.006756 -0.009780 -0.219796
8  3.942143 0.046276 -0.431512  -0.617547 0.335607 -1.216410
9  1.539111 0.000084 0.000005  -0.008759 -0.079696 -0.902807
10  1.196331 0.000147 0.000028  0.008519 0.004256 -0.542288
11  3.883505 -0.047267 0.431381  -0.368041 0.662129 -0.667220
12  1.719573 -0.000027 0.000016  0.009232 -0.073687 -0.989770
13  1.209180 0.000090 0.000011  -0.009578 -0.006549 -0.915981
14  4.085225 -0.082712 1.151041  -0.261587 0.849659 -0.311893
15  1.719450 -0.000016 0.000027  0.022831 0.018817 -0.385684
16  1.099675 0.000049 0.000008  -0.071661 0.046283 -1.373825
17  0.921524 -1.355448 1.250965  -1.036595 -0.492038 -0.255498
18  1.789819 -0.000004 -0.000018  0.000321 -0.002810 0.826066
19  1.207016 -0.000013 -0.000044  0.000316 -0.000006 -0.090257
20  5.740638 0.000411 -0.000704  -0.154391 0.000003 0.000067
21  11.480935 0.000208 -0.000859  -0.068902 -0.117999 0.005352
22  6.027524 -0.000330 0.000203  1.620348 -0.621711 1.582304
23  0.000001 11.692099 -0.000008  -0.994845 -0.444069 -0.788017
24  0.000003 0.000008 0.000000  0.144362 -0.000031 1.570739
25  -0.000000 -0.000011 -0.000002  0.868957 0.000002 1.570712
26  -4.048488 -9.938416 0.826810  1.473120 1.855075 -0.198639
27  6.027509 -0.000258 -0.000229  1.439945 0.605016 -0.693692
28  11.691990 0.000240 0.000860  -0.008106 0.000079 -1.932091
29  11.478518 -0.001584 0.000811  -1.078605 0.339971 0.856534
30  3.859445 -0.132764 1.193036  0.469561 0.024446 -2.027518
31  1.312558 0.000026 -0.000006  0.012739 -0.118546 -0.457170
32  0.729345 0.000066 -0.000030  -0.160543 -0.094833 -0.794827
33  3.942049 0.050133 0.430970  0.239759 -0.046947 -1.686225
34  1.539096 0.000003 -0.000008  0.033634 -0.037983 -0.965277
35  1.196300 0.000077 -0.000009  -0.022665 -0.001268 -0.998653
36  3.883410 -0.050478 -0.431112  0.254832 -0.208796 -1.406922
37  1.719564 -0.000075 -0.000012  0.020717 -0.083409 -1.505713
38  1.209196 0.000035 0.000005  -0.007976 0.070582 -0.580400
39  3.859578 -0.149088 -1.331349  -0.106750 -0.125451 -0.348121
40  1.719412 -0.000097 -0.000044  -0.016074 0.001595 -1.445127
41  1.099674 0.000024 0.000001  -0.004896 -0.009018 -0.933420
42  0.805973 -0.359849 -1.318344  0.989321 0.173207 -0.818040
43  1.789779 -0.000006 -0.000039  0.000102 -0.007479 0.163490
44  1.206997 -0.000005 0.000008  0.000962 -0.000151 1.276281
45  5.740573 0.000095 0.000726  0.168868 -0.000014 0.000028
46  11.480648 -0.000216 0.000916  0.072650 0.079289 0.138656
47  6.027514 -0.000273 -0.000237  -0.799056 -0.654142 -1.705734
48  -0.000000 11.691971 -0.000006  -1.284050 0.730614 0.945647
49  0.000004 -0.000000 0.000000  2.264421 -0.000047 1.570851
50  -0.000005 -0.000015 0.000006  2.272644 -0.000030 1.570865
51  -3.564549 -2.489319 -5.839412  -0.156841 -2.980754 1.477315
52  0.000000 -0.000000 -0.000000  0.008153 -0.000259 0.000009
53  0.000000 0.000000 -0.000000  1.565115 0.043565 -0.106862
54  -0.349111 -13.978645 -4.844708  -0.819021 -0.256451 -1.814300
55  -0.000001 0.000001 0.000001  0.000000 -0.000000 -0.000002
56  0.000028 0.000029 0.000002  -1.571901 -0.044449 -0.106509
57  6.132251 -14.556842 -16.933033  1.570796 -0.000000 0.000000
58  -16.642132 4.602435 -20.579788  1.570796 -0.000000 0.000000
59  2.236387 1.317426 -3.375998  1.570796 -0.000000 0.000000
60  -0.004311 0.001230 -0.000371  0.006898 -0.005534 -0.284229
61  0.826810 10.500209 -2.215392  1.570796 -0.000000 0.000000
62  0.000000 0.000000 0.000000  -0.078727 -3.136056 0.284226
63  0.000000 0.000000 0.000000  1.570796 -0.008127 -0.000000
64  -2.127240 -7.189488 -0.869014  1.562608 0.079105 -0.000754
65  0.011267 -2.541756 0.246450  0.261799 0.000000 0.000000
66  -0.040579 -0.596186 1.383980  0.000000 -0.000000 -0.009570
67  -1.210912 -0.465220 1.116575  0.000000 0.000000 0.000000
68  -0.001710 -1.449898 22.825077  -0.000000 -0.000000 0.000000
69  0.014791 -3.432317 2.150502  -0.000000 -0.000000 0.000000
70  0.149986 -1.844876 3.287592  -0.000000 -0.000000 0.000000
71  -0.001712 -2.299005 1.703907  -0.000000 -0.000000 0.000000
72  -3.588360 -1.097282 -23.660017  1.570796 -0.000000 0.000000
73  0.136241 2.066845 -1.396211  0.000000 -0.000000 0.000000
74  -2.540447 -11.928952 -4.907782  1.562608 0.079105 -0.000754
75  0.087483 2.183199 -0.139910  -0.000000 -0.000000 0.000000
76  0.239005 2.332644 -1.422238  -0.000000 -0.000000 0.000000
77  -0.037276 2.055116 -1.384614  -0.000000 -0.000000 0.000000
time 2
0  0.000006 0.000000 0.000000  -1.570800 -1.391899 -1.570792
1  -3.555402 -0.696245 2.232071  -1.544956 -1.855077 -0.198630
2  6.027523 -0.000324 0.000193  -0.779878 -0.954369 -1.485001
3  11.692110 0.000643 -0.000739  -0.724734 -0.000018 -1.431935
4  11.479690 -0.000006 -0.000983  1.141012 -0.623168 0.258699
5  3.859510 -0.142878 -1.192049  -0.688486 -0.177859 -1.771238
6  1.312589 0.000012 0.000008  -0.134456 0.002702 -0.177087
7  0.729354 0.000052 0.000048  -0.006756 -0.009781 -0.219796
8  3.942145 0.046275 -0.431512  -0.617547 0.335607 -1.216410
9  1.539111 0.000085 0.000005  -0.008759 -0.079696 -0.902807
10  1.196332 0.000146 0.000027  0.008519 0.004256 -0.542288
11  3.883507 -0.047267 0.431382  -0.368041 0.662129 -0.667220
12  1.719574 -0.000026 0.000016  0.009232 -0.073687 -0.989770
13  1.209179 0.000091 0.000012  -0.009578 -0.006549 -0.915981
14  4.085222 -0.082713 1.151041  -0.261587 0.849659 -0.311893
15  1.719448 -0.000017 0.000027  0.022831 0.018817 -0.385684
16  1.099675 0.000048 0.000004  -0.071661 0.046283 -1.373824
17  0.921524 -1.355448 1.250965  -1.036595 -0.492038 -0.255498
18  1.789819 -0.000004 -0.000018  0.000321 -0.002810 0.826066
19  1.207016 -0.000013 -0.000044  0.000316 -0.000006 -0.090257
20  5.740637 0.000411 -0.000702  -0.142419 0.000003 0.000067
21  11.480947 0.000211 -0.000855  -0.061845 -0.112237 0.012554
22  6.027524 -0.000330 0.000203  1.625982 -0.614357 1.561042
23  0.000002 11.692099 -0.000007  -0.988995 -0.438772 -0.784189
24  0.000004 0.000009 -0.000001  0.144362 -0.000031 1.570739
25  -0.000000 -0.000011 -0.000001  0.868957 0.000002 1.570712
26  -4.048488 -9.938416 0.826810  1.473120 1.855075 -0.198639
27  6.027509 -0.000258 -0.000229  1.420633 0.619150 -0.701576
28  11.691991 0.000242 0.000859  -0.008105 0.000078 -1.915266
29  11.478666 -0.001517 0.000813  -1.031831 0.368340 0.860803
30  3.859445 -0.132765 1.193036  0.469561 0.024446 -2.027518
31  1.312558 0.000025 -0.000007  0.012739 -0.118546 -0.457170
32  0.729345 0.000065 -0.000031  -0.160543 -0.094833 -0.794827
33  3.942049 0.050132 0.430970  0.239759 -0.046947 -1.686225
34  1.539096 0.000004 -0.000008  0.033634 -0.037983 -0.965277
35  1.196300 0.000076 -0.000009  -0.022665 -0.001268 -0.998653
36  3.883409 -0.050478 -0.431113  0.254832 -0.208796 -1.406922
37  1.719564 -0.000075 -0.000012  0.020717 -0.083409 -1.505713
38  1.209197 0.000035 0.000005  -0.007976 0.070582 -0.580400
39  3.859577 -0.149088 -1.331349  -0.106751 -0.125451 -0.348121
40  1.719413 -0.000097 -0.000045  -0.016074 0.001595 -1.445127
41  1.099674 0.000024 0.000002  -0.004896 -0.009018 -0.933420
42  0.805972 -0.359849 -1.318343  0.989321 0.173207 -0.818039
43  1.789779 -0.000007 -0.000039  0.000102 -0.007478 0.163490
44  1.206997 -0.000004 0.000008  0.000962 -0.000151 1.276281
45  5.740572 0.000096 0.000727  0.175405 -0.000014 0.000028
46  11.480678 -0.000204 0.000917  0.078614 0.087908 0.135732
47  6.027514 -0.000273 -0.000237  -0.824870 -0.659778 -1.686755
48  -0.000003 11.691973 -0.000006  -1.273972 0.720211 0.941471
49  0.000003 0.000000 0.000000  2.264421 -0.000047 1.570851
50  -0.000006 -0.000016 0.000005  2.272644 -0.000031 1.570865
51  -3.341201 -2.615596 -5.910649  -0.113093 -2.976446 1.463748
52  -0.000000 0.000000 -0.000000  0.008153 -0.000259 0.000009
53  -0.000000 -0.000000 0.000000  1.565115 0.043565 -0.106862
54  -0.247364 -14.115759 -4.682843  -0.774247 -0.254166 -1.832076
55  0.000001 -0.000000 -0.000000  0.000000 -0.000000 -0.000002
56  0.000031 0.000029 0.000001  -1.571901 -0.044449 -0.106509
57  6.132251 -14.556842 -16.933033  1.570796 -0.000000 0.000000
58  -16.642132 4.602435 -20.579788  1.570796 -0.000000 0.000000
59  2.236387 1.317426 -3.375998  1.570796 -0.000000 0.000000
60  -0.004311 0.001230 -0.000371  0.006898 -0.005534 -0.284229
61  0.826810 10.500209 -2.215392  1.570796 -0.000000 0.000000
62  0.000000 0.000000 0.000000  -0.078727 -3.136056 0.284226
63  0.000000 0.000000 0.000000  1.570796 0.003019 0.000000
64  -2.147601 -7.281073 -0.844000  1.554168 0.036548 -0.007710
65  0.011267 -2.541757 0.246450  0.261799 0.000000 0.000000
66  -0.040579 -0.596203 3.048344  -0.000000 -0.000000 -0.027345
67  -1.210912 -0.465220 1.116575  0.000000 -0.000000 0.000000
68  -0.001710 -1.449898 22.825077  0.000000 0.000000 0.000000
69  0.014791 -3.432317 2.150502  0.000000 0.000000 0.000000
70  0.033332 -1.573524 4.174464  -0.053021 0.042402 -0.003895
71  -0.001712 -2.299005 1.703906  0.000000 0.000000 0.000000
72  -3.588360 -1.097282 -23.660017  1.570796 -0.000000 0.000000
73  0.136241 2.066845 -1.396211  0.000000 -0.000000 0.000000
74  -2.420369 -12.052971 -4.856417  1.554168 0.036548 -0.007710
75  0.087484 2.183199 -0.139910  0.000000 0.000000 0.000000
76  0.239006 2.332643 -1.422238  0.000000 0.000000 0.000000
77  -0.037276 2.055116 -1.384615  0.000000 0.000000 0.000000
time 3
0  0.000006 0.000000 0.000000  -1.570800 -1.391899 -1.570792
1  -3.555402 -0.696245 2.232071  -1.544956 -1.855077 -0.198630
2  6.027523 -0.000324 0.000193  -0.798244 -0.955578 -1.485251
3  11.692107 0.000645 -0.000739  -0.724734 -0.000018 -1.420442
4  11.479749 0.000018 -0.000962  1.176239 -0.606670 0.280714
5  3.859507 -0.142878 -1.192049  -0.688486 -0.177859 -1.771238
6  1.312589 0.000011 0.000006  -0.134456 0.002702 -0.177087
7  0.729354 0.000054 0.000052  -0.006756 -0.009780 -0.219796
8  3.942143 0.046275 -0.431511  -0.617547 0.335607 -1.216410
9  1.539111 0.000085 0.000004  -0.008759 -0.079696 -0.902807
10  1.196333 0.000147 0.000029  0.008519 0.004256 -0.542288
11  3.883505 -0.047267 0.431382  -0.368041 0.662129 -0.667220
12  1.719573 -0.000026 0.000016  0.009232 -0.073687 -0.989770
13  1.209180 0.000092 0.000010  -0.009578 -0.006549 -0.915981
14  4.085222 -0.082713 1.151042  -0.261587 0.849659 -0.311893
15  1.719448 -0.000015 0.000026  0.022831 0.018817 -0.385684
16  1.099674 0.000049 0.000005  -0.071661 0.046283 -1.373825
17  0.921522 -1.355449 1.250966  -1.036595 -0.492038 -0.255498
18  1.789820 -0.000004 -0.000018  0.000321 -0.002810 0.826066
19  1.207015 -0.000013 -0.000044  0.000316 -0.000006 -0.090257
20  5.740638 0.000410 -0.000703  -0.130769 0.000003 0.000067
21  11.480958 0.000216 -0.000850  -0.055087 -0.108829 0.019675
22  6.027524 -0.000330 0.000203  1.638723 -0.612024 1.538468
23  0.000001 11.692098 -0.000007  -0.982126 -0.432588 -0.779668
24  0.000002 0.000008 -0.000002  0.144362 -0.000030 1.570739
25  -0.000001 -0.000011 -0.000001  0.868957 0.000002 1.570712
26  -4.048488 -9.938416 0.826810  1.473120 1.855075 -0.198639
27  6.027509 -0.000258 -0.000229  1.410460 0.635877 -0.707463
28  11.691990 0.000239 0.000859  -0.008106 0.000076 -1.892597
29  11.478865 -0.001418 0.000813  -0.984335 0.368088 0.866869
30  3.859445 -0.132765 1.193035  0.469561 0.024446 -2.027518
31  1.312558 0.000025 -0.000006  0.012739 -0.118546 -0.457170
32  0.729345 0.000065 -0.000030  -0.160543 -0.094833 -0.794827
33  3.942049 0.050133 0.430970  0.239759 -0.046947 -1.686225
34  1.539096 0.000004 -0.000009  0.033634 -0.037983 -0.965277
35  1.196299 0.000077 -0.000009  -0.022665 -0.001268 -0.998653
36  3.883409 -0.050478 -0.431113  0.254832 -0.208796 -1.406922
37  1.719564 -0.000074 -0.000012  0.020717 -0.083409 -1.505713
38  1.209197 0.000035 0.000005  -0.007976 0.070582 -0.580400
39  3.859577 -0.149088 -1.331349  -0.106751 -0.125451 -0.348121
40  1.719412 -0.000097 -0.000044  -0.016074 0.001595 -1.445127
41  1.099674 0.000024 0.000001  -0.004896 -0.009018 -0.933420
42  0.805973 -0.359849 -1.318343  0.989321 0.173207 -0.818039
43  1.789779 -0.000007 -0.000039  0.000102 -0.007478 0.163490
44  1.206996 -0.000005 0.000007  0.000962 -0.000151 1.276280
45  5.740571 0.000096 0.000726  0.183252 -0.000014 0.000028
46  11.480716 -0.000183 0.000917  0.087095 0.091461 0.134540
47  6.027514 -0.000273 -0.000237  -0.848218 -0.657208 -1.672382
48  -0.000000 11.691972 -0.000006  -1.260444 0.706245 0.935685
49  0.000004 -0.000001 0.000001  2.264421 -0.000046 1.570851
50  -0.000006 -0.000015 0.000005  2.272644 -0.000031 1.570865
51  -3.192698 -2.811631 -5.931753  -0.071145 -2.988800 1.463360
52  -0.000000 0.000000 -0.000000  0.008153 -0.000259 0.000009
53  -0.000000 0.000000 -0.000000  1.565115 0.043565 -0.106862
54  -0.080051 -14.302188 -4.662256  -0.734048 -0.235535 -1.835569
55  0.000000 0.000000 -0.000000  0.000000 -0.000000 -0.000002
56  0.000031 0.000029 0.000001  -1.571902 -0.044449 -0.106509
57  6.132251 -14.556842 -16.933033  1.570796 -0.000000 0.000000
58  -16.642132 4.602435 -20.579788  1.570796 -0.000000 0.000000
59  2.236387 1.317426 -3.375998  1.570796 -0.000000 0.000000
60  -0.004311 0.001230 -0.000371  0.006898 -0.005534 -0.284229
61  0.826810 10.500209 -2.215392  1.570796 -0.000000 0.000000
62  0.000000 0.000000 0.000000  -0.078727 -3.136056 0.284226
63  0.000000 0.000000 0.000000  1.570796 0.000707 0.000000
64  -2.185415 -7.510034 -0.855073  1.562209 -0.005919 -0.001333
65  0.011267 -2.541756 0.246449  0.261799 0.000000 0.000000
66  -0.040579 -0.596219 4.712709  0.000000 -0.000000 -0.036915
67  -1.210912 -0.465220 1.116575  0.000000 -0.000000 0.000000
68  -0.001710 -1.449898 22.825079  -0.000000 0.000000 0.000000
69  0.014792 -3.432317 2.150503  -0.000000 0.000000 0.000000
70  0.002739 -1.463900 6.040024  0.051100 0.000000 0.000000
71  -0.001712 -2.299004 1.703905  -0.000000 0.000000 0.000000
72  -3.588360 -1.097282 -23.660017  1.570796 -0.000000 0.000000
73  0.136241 2.066845 -1.396211  0.000000 -0.000000 0.000000
74  -2.256919 -12.251339 -4.912143  1.562209 -0.005919 -0.001333
75  0.087484 2.183199 -0.139909  -0.000000 0.000000 0.000000
76  0.239006 2.332643 -1.422238  -0.000000 0.000000 0.000000
77  -0.037276 2.055116 -1.384615  -0.000000 0.000000 0.000000
time 4
0  0.000006 0.000000 0.000000  -1.570800 -1.391899 -1.570792
1  -3.555402 -0.696245 2.232071  -1.544956 -1.855077 -0.198630
2  6.027523 -0.000324 0.000193  -0.800703 -0.956750 -1.486791
3  11.692107 0.000643 -0.000740  -0.724733 -0.000016 -1.396281
4  11.479886 0.000071 -0.000915  1.168314 -0.606627 0.270380
5  3.859508 -0.142878 -1.192049  -0.688486 -0.177859 -1.771238
6  1.312589 0.000010 0.000007  -0.134456 0.002702 -0.177087
7  0.729354 0.000054 0.000050  -0.006756 -0.009780 -0.219796
8  3.942142 0.046275 -0.431512  -0.617547 0.335607 -1.216410
9  1.539111 0.000083 0.000005  -0.008759 -0.079696 -0.902807
10  1.196332 0.000147 0.000029  0.008519 0.004256 -0.542288
11  3.883503 -0.047268 0.431382  -0.368041 0.662129 -0.667220
12  1.719573 -0.000026 0.000015  0.009232 -0.073687 -0.989770
13  1.209179 0.000091 0.000012  -0.009578 -0.006549 -0.915981
14  4.085221 -0.082713 1.151042  -0.261587 0.849659 -0.311892
15  1.719448 -0.000016 0.000027  0.022831 0.018816 -0.385684
16  1.099674 0.000049 0.000005  -0.071661 0.046282 -1.373824
17  0.921522 -1.355449 1.250966  -1.037375 -0.489173 -0.254273
18  1.789819 -0.000004 -0.000018  0.000300 -0.002549 0.818314
19  1.207016 -0.000013 -0.000044  0.000287 -0.000006 -0.092125
20  5.740638 0.000410 -0.000703  -0.130170 0.000003 0.000067
21  11.480986 0.000226 -0.000842  -0.057001 -0.108741 0.017196
22  6.027524 -0.000330 0.000203  1.640272 -0.610692 1.534030
23  0.000001 11.692100 -0.000007  -0.967648 -0.419679 -0.770054
24  0.000002 0.000009 -0.000001  0.144362 -0.000030 1.570739
25  -0.000001 -0.000011 -0.000001  0.868957 0.000002 1.570712
26  -4.048488 -9.938416 0.826810  1.473120 1.855075 -0.198639
27  6.027509 -0.000259 -0.000229  1.424857 0.645349 -0.704118
28  11.691990 0.000241 0.000859  -0.008105 0.000074 -1.870316
29  11.479061 -0.001316 0.000814  -0.995260 0.337119 0.855778
30  3.859445 -0.132765 1.193035  0.469561 0.024446 -2.027518
31  1.312558 0.000025 -0.000006  0.012739 -0.118546 -0.457170
32  0.729345 0.000065 -0.000031  -0.160543 -0.094833 -0.794827
33  3.942049 0.050132 0.430970  0.239759 -0.046947 -1.686225
34  1.539096 0.000003 -0.000008  0.033634 -0.037983 -0.965277
35  1.196300 0.000077 -0.000009  -0.022665 -0.001268 -0.998653
36  3.883409 -0.050478 -0.431114  0.254832 -0.208796 -1.406922
37  1.719564 -0.000075 -0.000011  0.020717 -0.083409 -1.505713
38  1.209197 0.000035 0.000005  -0.007976 0.070582 -0.580400
39  3.859577 -0.149088 -1.331350  -0.106751 -0.125451 -0.348121
40  1.719412 -0.000097 -0.000045  -0.016074 0.001595 -1.445127
41  1.099674 0.000023 0.000001  -0.004896 -0.009018 -0.933420
42  0.805973 -0.359849 -1.318344  0.989320 0.173207 -0.818040
43  1.789779 -0.000006 -0.000039  0.000102 -0.007479 0.163490
44  1.206996 -0.000005 0.000007  0.000962 -0.000151 1.276280
45  5.740571 0.000098 0.000727  0.180845 -0.000014 0.000028
46  11.480755 -0.000162 0.000917  0.088192 0.084666 0.134723
47  6.027514 -0.000273 -0.000237  -0.849813 -0.642331 -1.676678
48  -0.000002 11.691973 -0.000006  -1.247201 0.692577 0.929826
49  0.000003 0.000000 0.000001  2.264421 -0.000047 1.570851
50  -0.000008 -0.000015 0.000005  2.272644 -0.000031 1.570865
51  -3.313083 -3.047434 -5.879841  -0.081998 -3.002422 1.476173
52  -0.000000 0.000000 -0.000000  0.008153 -0.000259 0.000009
53  -0.000000 -0.000000 -0.000001  1.565115 0.043565 -0.106862
54  -0.060551 -14.519372 -4.808012  -0.747122 -0.223754 -1.821358
55  -0.000000 0.000000 -0.000000  0.000000 -0.000000 -0.000002
56  0.000030 0.000029 0.000001  -1.571902 -0.044449 -0.106509
57  6.132251 -14.556842 -16.933033  1.570796 -0.000000 0.000000
58  -16.642132 4.602435 -20.579788  1.570796 -0.000000 0.000000
59  2.236387 1.317426 -3.375998  1.570796 -0.000000 0.000000
60  -0.004311 0.001230 -0.000371  0.006898 -0.005534 -0.284229
61  0.826810 10.500209 -2.215392  1.570796 -0.000000 0.000000
62  0.000000 0.000000 0.000000  -0.078727 -3.136056 0.284226
63  0.000000 0.000000 0.000000  1.570796 -0.001605 -0.000000
64  -2.205776 -7.807683 -0.882222  1.576884 0.003327 0.009883
65  0.011267 -2.541756 0.246449  0.261799 0.000000 -0.000000
66  -0.040579 -0.596211 4.579053  -0.000000 0.000000 0.011655
67  -1.210913 -0.465220 1.116575  0.000000 0.000000 -0.000000
68  -0.001710 -1.449898 22.825077  0.000000 0.000000 -0.000000
69  0.014792 -3.432317 2.150503  0.000000 0.000000 -0.000000
70  0.002739 -1.463900 6.040024  0.051100 0.000000 0.000000
71  -0.001712 -2.299004 1.703906  0.000000 0.000000 -0.000000
72  -3.588360 -1.097282 -23.660017  1.570796 -0.000000 0.000000
73  0.136241 2.066845 -1.396211  0.000000 -0.000000 0.000000
74  -2.262432 -12.489830 -5.007657  1.576884 0.003327 0.009883
75  0.087484 2.183199 -0.139910  0.000000 0.000000 -0.000000
76  0.239006 2.332644 -1.422238  0.000000 0.000000 -0.000000
77  -0.037275 2.055116 -1.384614  0.000000 0.000000 -0.000000
time 5
0  0.000006 0.000000 0.000000  -1.570800 -1.391899 -1.570792
1  -3.555402 -0.696245 2.232071  -1.544956 -1.855077 -0.198630
2  6.027523 -0.000324 0.000193  -0.795447 -0.962160 -1.495699
3  11.692110 0.000644 -0.000740  -0.724731 -0.000014 -1.363795
4  11.480083 0.000151 -0.000843  1.155290 -0.600167 0.248116
5  3.859510 -0.142877 -1.192049  -0.688486 -0.177859 -1.771238
6  1.312590 0.000010 0.000008  -0.134456 0.002702 -0.177087
7  0.729354 0.000053 0.000051  -0.006756 -0.009780 -0.219796
8  3.942144 0.046275 -0.431511  -0.617547 0.335607 -1.216410
9  1.539112 0.000085 0.000006  -0.008759 -0.079696 -0.902807
10  1.196332 0.000147 0.000028  0.008519 0.004256 -0.542288
11  3.883505 -0.047267 0.431382  -0.368041 0.662129 -0.667220
12  1.719573 -0.000027 0.000014  0.009232 -0.073687 -0.989770
13  1.209180 0.000093 0.000011  -0.009578 -0.006549 -0.915981
14  4.085224 -0.082712 1.151042  -0.261587 0.849659 -0.311893
15  1.719448 -0.000016 0.000026  0.022831 0.018816 -0.385684
16  1.099675 0.000047 0.000004  -0.071661 0.046282 -1.373824
17  0.921524 -1.355448 1.250966  -1.039391 -0.481673 -0.251090
18  1.789820 -0.000003 -0.000018  0.000236 -0.001867 0.798036
19  1.207016 -0.000013 -0.000044  0.000211 -0.000005 -0.097012
20  5.740637 0.000410 -0.000704  -0.130677 0.000003 0.000067
21  11.481026 0.000243 -0.000827  -0.060642 -0.107186 0.012366
22  6.027524 -0.000330 0.000203  1.635849 -0.605673 1.531953
23  0.000002 11.692100 -0.000008  -0.948096 -0.402525 -0.756894
24  0.000003 0.000008 -0.000002  0.144362 -0.000030 1.570739
25  -0.000001 -0.000012 -0.000002  0.868957 0.000002 1.570712
26  -4.048488 -9.938416 0.826810  1.473120 1.855075 -0.198639
27  6.027509 -0.000259 -0.000228  1.438416 0.655530 -0.700893
28  11.691992 0.000242 0.000859  -0.008105 0.000073 -1.844120
29  11.479291 -0.001191 0.000814  -1.018356 0.314605 0.837636
30  3.859444 -0.132765 1.193036  0.469561 0.024446 -2.027518
31  1.312558 0.000026 -0.000006  0.012739 -0.118546 -0.457170
32  0.729346 0.000065 -0.000030  -0.160543 -0.094833 -0.794827
33  3.942048 0.050132 0.430970  0.239759 -0.046947 -1.686225
34  1.539096 0.000004 -0.000007  0.033634 -0.037983 -0.965277
35  1.196299 0.000077 -0.000008  -0.022665 -0.001268 -0.998653
36  3.883409 -0.050478 -0.431113  0.254832 -0.208796 -1.406922
37  1.719564 -0.000074 -0.000012  0.020717 -0.083409 -1.505713
38  1.209197 0.000035 0.000005  -0.007976 0.070582 -0.580400
39  3.859577 -0.149088 -1.331349  -0.095157 -0.102366 -0.337045
40  1.719412 -0.000097 -0.000044  -0.015417 0.014399 -1.359595
41  1.099674 0.000023 0.000001  -0.006689 -0.008515 -0.861363
42  0.805973 -0.359849 -1.318343  0.989321 0.173207 -0.818039
43  1.789779 -0.000006 -0.000039  0.000102 -0.007479 0.163490
44  1.206996 -0.000004 0.000008  0.000962 -0.000151 1.276280
45  5.740573 0.000096 0.000726  0.174716 -0.000014 0.000028
46  11.480803 -0.000138 0.000916  0.086409 0.078236 0.133510
47  6.027514 -0.000273 -0.000237  -0.852773 -0.627688 -1.679908
48  -0.000002 11.691973 -0.000006  -1.231686 0.676585 0.922725
49  0.000003 0.000002 0.000000  2.264421 -0.000047 1.570851
50  -0.000006 -0.000015 0.000006  2.272644 -0.000030 1.570865
51  -3.436426 -3.313468 -5.849466  -0.103228 -3.008357 1.485152
52  -0.000000 -0.000000 0.000001  0.008153 -0.000259 0.000009
53  -0.000000 -0.000000 0.000000  1.565115 0.043565 -0.106862
54  -0.093722 -14.773057 -4.934437  -0.769367 -0.221136 -1.810355
55  -0.000001 0.000000 -0.000000  0.000000 -0.000000 -0.000002
56  0.000030 0.000029 0.000001  -1.571901 -0.044449 -0.106509
57  6.132251 -14.556842 -16.933033  1.570796 -0.000000 0.000000
58  -16.642132 4.602435 -20.579788  1.570796 -0.000000 0.000000
59  2.236387 1.317426 -3.375998  1.570796 -0.000000 0.000000
60  -0.004311 0.001230 -0.000371  0.006898 -0.005534 -0.284229
61  0.826810 10.500209 -2.215392  1.570796 -0.000000 0.000000
62  0.000000 0.000000 0.000000  -0.078727 -3.136056 0.284226
63  0.000000 0.000000 0.000000  1.570796 -0.000840 -0.000000
64  -2.198606 -8.105333 -0.913058  1.584953 0.023638 0.016087
65  0.011267 -2.541757 0.246450  0.130900 0.000000 -0.000000
66  -0.040579 -0.596195 4.645882  0.000000 -0.000000 0.012109
67  -1.210912 -0.465220 1.116576  -0.000000 -0.000000 -0.000000
68  -0.001710 -1.449898 22.825081  0.000000 0.000000 -0.000000
69  0.014792 -3.432317 2.150503  0.000000 0.000000 -0.000000
70  0.002739 -1.463900 6.040025  0.051100 0.000000 -0.000000
71  -0.001712 -2.299005 1.703906  0.000000 0.000000 -0.000000
72  -3.588360 -1.097282 -23.660017  1.570796 -0.000000 0.000000
73  0.136241 2.066845 -1.396211  0.000000 -0.000000 0.000000
74  -2.311391 -12.755665 -5.073180  1.584953 0.023638 0.016087
75  0.087484 2.183198 -0.139909  0.000000 0.000000 -0.000000
76  0.239006 2.332643 -1.422236  0.000000 0.000000 -0.000000
77  -0.037276 2.055115 -1.384614  0.000000 0.000000 -0.000000
time 6
0  0.000006 0.000000 0.000000  -1.570800 -1.391899 -1.570792
1  -3.555402 -0.696245 2.232071  -1.544956 -1.855077 -0.198630
2  6.027523 -0.000324 0.000193  -0.782632 -0.971728 -1.512288
3  11.692111 0.000645 -0.000739  -0.724729 -0.000012 -1.329215
4  11.480309 0.000246 -0.000761  1.144743 -0.585859 0.222234
5  3.859509 -0.142877 -1.192049  -0.688486 -0.177859 -1.771238
6  1.312590 0.000012 0.000010  -0.134456 0.002702 -0.177087
7  0.729355 0.000052 0.000051  -0.006756 -0.009781 -0.219796
8  3.942143 0.046275 -0.431511  -0.617547 0.335607 -1.216410
9  1.539111 0.000086 0.000006  -0.008759 -0.079696 -0.902807
10  1.196332 0.000146 0.000027  0.008519 0.004256 -0.542288
11  3.883504 -0.047267 0.431382  -0.368041 0.662129 -0.667220
12  1.719573 -0.000027 0.000015  0.009232 -0.073687 -0.989770
13  1.209178 0.000090 0.000013  -0.009578 -0.006549 -0.915981
14  4.085223 -0.082712 1.151042  -0.261587 0.849659 -0.311892
15  1.719448 -0.000014 0.000026  0.022831 0.018816 -0.385684
16  1.099676 0.000049 0.000006  -0.071661 0.046282 -1.373825
17  0.921523 -1.355448 1.250966  -1.041372 -0.474168 -0.247936
18  1.789822 -0.000003 -0.000019  0.000158 -0.001187 0.777758
19  1.207016 -0.000013 -0.000043  0.000136 -0.000005 -0.101898
20  5.740638 0.000410 -0.000703  -0.130772 0.000003 0.000067
21  11.481071 0.000263 -0.000809  -0.064268 -0.103906 0.007317
22  6.027524 -0.000330 0.000203  1.625848 -0.596927 1.531570
23  0.000002 11.692099 -0.000007  -0.927170 -0.384529 -0.742592
24  0.000003 0.000008 -0.000001  0.144362 -0.000031 1.570739
25  0.000000 -0.000012 -0.000001  0.868957 0.000002 1.570712
26  -4.048488 -9.938416 0.826810  1.473120 1.855075 -0.198639
27  6.027509 -0.000259 -0.000228  1.446028 0.664801 -0.699407
28  11.691990 0.000240 0.000858  -0.008105 0.000071 -1.819811
29  11.479506 -0.001067 0.000815  -1.041222 0.309284 0.818592
30  3.859445 -0.132764 1.193036  0.469561 0.024446 -2.027518
31  1.312559 0.000026 -0.000006  0.012739 -0.118546 -0.457171
32  0.729345 0.000065 -0.000030  -0.160543 -0.094833 -0.794827
33  3.942049 0.050133 0.430970  0.239759 -0.046947 -1.686225
34  1.539096 0.000004 -0.000007  0.033634 -0.037983 -0.965277
35  1.196299 0.000076 -0.000009  -0.022665 -0.001268 -0.998653
36  3.883409 -0.050478 -0.431113  0.254832 -0.208796 -1.406922
37  1.719564 -0.000075 -0.000012  0.020717 -0.083409 -1.505713
38  1.209197 0.000035 0.000005  -0.007976 0.070582 -0.580400
39  3.859577 -0.149088 -1.331349  -0.083331 -0.079411 -0.325725
40  1.719413 -0.000097 -0.000045  -0.013668 0.027100 -1.274032
41  1.099674 0.000025 0.000001  -0.008441 -0.007884 -0.789307
42  0.805973 -0.359849 -1.318343  0.989321 0.173207 -0.818039
43  1.789779 -0.000006 -0.000040  0.000102 -0.007479 0.163490
44  1.206996 -0.000005 0.000007  0.000962 -0.000151 1.276280
45  5.740572 0.000096 0.000726  0.167724 -0.000014 0.000028
46  11.480845 -0.000113 0.000917  0.083141 0.074947 0.131095
47  6.027514 -0.000273 -0.000237  -0.858125 -0.617530 -1.679968
48  -0.000002 11.691974 -0.000007  -1.217335 0.661823 0.915933
49  0.000004 0.000000 0.000000  2.264421 -0.000047 1.570851
50  -0.000008 -0.000015 0.000006  2.272644 -0.000030 1.570865
51  -3.511195 -3.547848 -5.854002  -0.123591 -3.004985 1.485816
52  -0.000000 -0.000000 0.000000  0.008153 -0.000259 0.000009
53  0.000000 0.000000 0.000000  1.565115 0.043565 -0.106862
54  -0.174117 -15.012905 -4.988283  -0.789294 -0.227545 -1.807997
55  0.000000 -0.000000 0.000000  0.000000 -0.000000 -0.000002
56  0.000031 0.000028 0.000001  -1.571901 -0.044449 -0.106509
57  6.132251 -14.556842 -16.933033  1.570796 -0.000000 0.000000
58  -16.642132 4.602435 -20.579788  1.570796 -0.000000 0.000000
59  2.236387 1.317426 -3.375998  1.570796 -0.000000 0.000000
60  -0.004311 0.001230 -0.000371  0.006898 -0.005534 -0.284229
61  0.826810 10.500209 -2.215392  1.570796 -0.000000 0.000000
62  0.000000 0.000000 0.000000  -0.078727 -3.136056 0.284226
63  0.000000 0.000000 0.000000  1.570796 0.000580 0.000000
64  -2.182833 -8.334294 -0.935905  1.583619 0.044052 0.013967
65  0.011267 -2.541756 0.246451  0.000000 -0.000000 0.000000
66  -0.040579 -0.596186 4.712710  0.000000 0.000000 0.012174
67  -1.210912 -0.465220 1.116574  -0.000000 0.000000 0.000000
68  -0.001710 -1.449898 22.825079  0.000000 -0.000000 0.000000
69  0.014792 -3.432317 2.150502  0.000000 -0.000000 0.000000
70  0.002738 -1.463900 6.040025  0.051100 -0.000000 0.000000
71  -0.001712 -2.299004 1.703907  0.000000 -0.000000 0.000000
72  -3.588360 -1.097282 -23.660017  1.570796 -0.000000 0.000000
73  0.136241 2.066845 -1.396211  0.000000 -0.000000 0.000000
74  -2.389998 -12.991107 -5.085132  1.583619 0.044052 0.013967
75  0.087483 2.183198 -0.139910  0.000000 -0.000000 0.000000
76  0.239005 2.332643 -1.422237  0.000000 -0.000000 0.000000
77  -0.037276 2.055115 -1.384615  0.000000 -0.000000 0.000000
time 7
0  0.000006 0.000000 0.000000  -1.570800 -1.391899 -1.570792
1  -3.555402 -0.696245 2.232071  -1.544956 -1.855077 -0.198630
2  6.027524 -0.000324 0.000193  -0.773784 -0.977847 -1.523300
3  11.692109 0.000645 -0.000741  -0.724728 -0.000012 -1.311200
4  11.480435 0.000298 -0.000716  1.140391 -0.574931 0.209130
5  3.859509 -0.142878 -1.192049  -0.688486 -0.177859 -1.771238
6  1.312588 0.000011 0.000009  -0.134456 0.002702 -0.177087
7  0.729356 0.000054 0.000049  -0.006756 -0.009780 -0.219796
8  3.942143 0.046275 -0.431511  -0.617547 0.335607 -1.216410
9  1.539111 0.000085 0.000005  -0.008759 -0.079696 -0.902807
10  1.196331 0.000148 0.000027  0.008519 0.004256 -0.542288
11  3.883504 -0.047268 0.431382  -0.368041 0.662129 -0.667220
12  1.719573 -0.000027 0.000017  0.009232 -0.073687 -0.989770
13  1.209181 0.000089 0.000012  -0.009578 -0.006549 -0.915981
14  4.085222 -0.082713 1.151041  -0.261587 0.849659 -0.311893
15  1.719449 -0.000016 0.000028  0.022831 0.018817 -0.385684
16  1.099676 0.000049 0.000006  -0.071661 0.046283 -1.373824
17  0.921524 -1.355448 1.250965  -1.042121 -0.471298 -0.246738
18  1.789820 -0.000005 -0.000018  0.000124 -0.000928 0.770007
19  1.207014 -0.000013 -0.000044  0.000107 -0.000005 -0.103766
20  5.740637 0.000411 -0.000704  -0.130468 0.000003 0.000067
21  11.481095 0.000272 -0.000802  -0.066039 -0.101488 0.004970
22  6.027524 -0.000330 0.000203  1.619200 -0.591292 1.531602
23  0.000002 11.692100 -0.000007  -0.916219 -0.375264 -0.735023
24  0.000002 0.000009 0.000000  0.144362 -0.000031 1.570738
25  -0.000000 -0.000012 0.000000  0.868957 0.000002 1.570712
26  -4.048488 -9.938416 0.826810  1.473120 1.855075 -0.198639
27  6.027509 -0.000259 -0.000228  1.446816 0.669598 -0.699719
28  11.691991 0.000241 0.000859  -0.008105 0.000070 -1.808473
29  11.479608 -0.001008 0.000816  -1.051413 0.313859 0.810329
30  3.859445 -0.132765 1.193035  0.469561 0.024446 -2.027518
31  1.312559 0.000025 -0.000006  0.012739 -0.118546 -0.457170
32  0.729345 0.000066 -0.000030  -0.160543 -0.094833 -0.794827
33  3.942049 0.050132 0.430970  0.239759 -0.046947 -1.686225
34  1.539096 0.000004 -0.000008  0.033634 -0.037983 -0.965277
35  1.196300 0.000076 -0.000009  -0.022665 -0.001268 -0.998653
36  3.883409 -0.050479 -0.431113  0.254832 -0.208796 -1.406922
37  1.719563 -0.000075 -0.000012  0.020717 -0.083409 -1.505713
38  1.209197 0.000035 0.000006  -0.007976 0.070582 -0.580400
39  3.859577 -0.149088 -1.331349  -0.084100 -0.080867 -0.326129
40  1.719412 -0.000097 -0.000045  -0.014421 0.026483 -1.301680
41  1.099674 0.000025 0.000002  -0.008179 -0.008168 -0.823368
42  0.805973 -0.359849 -1.318344  0.989321 0.173207 -0.818040
43  1.789780 -0.000006 -0.000039  0.000102 -0.007479 0.163490
44  1.206996 -0.000005 0.000008  0.000962 -0.000151 1.276281
45  5.740575 0.000095 0.000726  0.164288 -0.000014 0.000028
46  11.480868 -0.000102 0.000916  0.081093 0.074783 0.129697
47  6.027514 -0.000273 -0.000237  -0.862581 -0.614341 -1.678193
48  -0.000001 11.691974 -0.000008  -1.210654 0.654965 0.912701
49  0.000004 0.000000 0.000000  2.264421 -0.000047 1.570851
50  -0.000006 -0.000016 0.000005  2.272644 -0.000031 1.570865
51  -3.518211 -3.651732 -5.867967  -0.132584 -3.000397 1.482285
52  -0.000000 -0.000000 -0.000000  0.008153 -0.000259 0.000009
53  -0.000000 -0.000000 0.000000  1.565115 0.043565 -0.106862
54  -0.227840 -15.129304 -4.989381  -0.797624 -0.233428 -1.810870
55  -0.000001 -0.000001 -0.000000  0.000000 -0.000000 -0.000002
56  0.000029 0.000028 0.000001  -1.571901 -0.044449 -0.106509
57  6.132251 -14.556842 -16.933033  1.570796 -0.000000 0.000000
58  -16.642132 4.602435 -20.579788  1.570796 -0.000000 0.000000
59  2.236387 1.317426 -3.375998  1.570796 -0.000000 0.000000
60  -0.004311 0.001230 -0.000371  0.006898 -0.005534 -0.284229
61  0.826810 10.500209 -2.215392  1.570796 -0.000000 0.000000
62  0.000000 0.000000 0.000000  -0.078727 -3.136056 0.284226
63  0.000000 0.000000 0.000000  1.570796 0.001345 0.000000
64  -2.167060 -8.425879 -0.944126  1.579921 0.053366 0.009010
65  0.011267 -2.541757 0.246449  -0.000000 0.000000 -0.000000
66  -0.040579 -0.596186 4.712710  -0.000000 0.000000 -0.000000
67  -1.210912 -0.465220 1.116575  -0.000000 0.000000 -0.000000
68  -0.001710 -1.449898 22.825077  -0.000000 0.000000 -0.000000
69  0.014791 -3.432317 2.150503  -0.000000 0.000000 -0.000000
70  0.002738 -1.463900 6.040023  0.051100 0.000000 -0.000000
71  -0.001712 -2.299004 1.703906  -0.000000 0.000000 -0.000000
72  -3.588360 -1.097282 -23.660017  1.570796 -0.000000 0.000000
73  0.136241 2.066845 -1.396211  0.000000 -0.000000 0.000000
74  -2.434878 -13.097286 -5.073429  1.579921 0.053366 0.009010
75  0.087484 2.183200 -0.139910  -0.000000 0.000000 -0.000000
76  0.239006 2.332644 -1.422238  -0.000000 0.000000 -0.000000
77  -0.037276 2.055116 -1.384615  -0.000000 0.000000 -0.000000
time 8
0  0.000006 0.000000 0.000000  -1.570800 -1.391899 -1.570792
1  -3.555402 -0.696245 2.232071  -1.544956 -1.855077 -0.198630
2  6.027524 -0.000324 0.000193  -0.770855 -0.979901 -1.527062
3  11.692111 0.000644 -0.000740  -0.724728 -0.000011 -1.310218
4  11.480443 0.000303 -0.000710  1.143210 -0.569549 0.208400
5  3.859509 -0.142877 -1.192049  -0.688486 -0.177859 -1.771238
6  1.312588 0.000012 0.000010  -0.134456 0.002702 -0.177087
7  0.729354 0.000053 0.000052  -0.006756 -0.009780 -0.219796
8  3.942142 0.046275 -0.431512  -0.617547 0.335607 -1.216410
9  1.539111 0.000085 0.000007  -0.008759 -0.079696 -0.902807
10  1.196334 0.000148 0.000028  0.008519 0.004256 -0.542288
11  3.883504 -0.047268 0.431381  -0.368041 0.662129 -0.667220
12  1.719573 -0.000028 0.000017  0.009232 -0.073687 -0.989770
13  1.209179 0.000092 0.000010  -0.009578 -0.006549 -0.915981
14  4.085221 -0.082713 1.151041  -0.261586 0.849659 -0.311892
15  1.719448 -0.000015 0.000025  0.022831 0.018816 -0.385684
16  1.099676 0.000048 0.000006  -0.071661 0.046282 -1.373824
17  0.921522 -1.355449 1.250965  -1.042121 -0.471298 -0.246738
18  1.789820 -0.000004 -0.000018  0.000124 -0.000928 0.770007
19  1.207013 -0.000013 -0.000045  0.000107 -0.000005 -0.103766
20  5.740637 0.000411 -0.000703  -0.129674 0.000003 0.000067
21  11.481097 0.000273 -0.000800  -0.065746 -0.100367 0.005211
22  6.027524 -0.000330 0.000203  1.617031 -0.589383 1.531478
23  0.000000 11.692099 -0.000008  -0.915621 -0.374761 -0.734608
24  0.000003 0.000008 -0.000002  0.144362 -0.000030 1.570739
25  -0.000001 -0.000012 -0.000001  0.868957 0.000002 1.570712
26  -4.048488 -9.938416 0.826810  1.473120 1.855075 -0.198639
27  6.027509 -0.000259 -0.000228  1.442846 0.669724 -0.701168
28  11.691992 0.000241 0.000858  -0.008105 0.000070 -1.809109
29  11.479598 -0.001011 0.000816  -1.049329 0.323885 0.810777
30  3.859445 -0.132765 1.193036  0.469561 0.024446 -2.027518
31  1.312558 0.000025 -0.000006  0.012739 -0.118546 -0.457170
32  0.729346 0.000065 -0.000030  -0.160543 -0.094833 -0.794827
33  3.942049 0.050132 0.430970  0.239759 -0.046947 -1.686225
34  1.539096 0.000003 -0.000009  0.033634 -0.037983 -0.965277
35  1.196299 0.000077 -0.000010  -0.022665 -0.001268 -0.998653
36  3.883409 -0.050479 -0.431113  0.254832 -0.208796 -1.406922
37  1.719564 -0.000076 -0.000012  0.020717 -0.083409 -1.505713
38  1.209197 0.000035 0.000006  -0.007976 0.070582 -0.580400
39  3.859577 -0.149088 -1.331349  -0.085743 -0.083985 -0.326989
40  1.719413 -0.000097 -0.000044  -0.015974 0.025092 -1.360865
41  1.099674 0.000022 0.000002  -0.007587 -0.008745 -0.896300
42  0.805973 -0.359849 -1.318344  0.989321 0.173207 -0.818039
43  1.789779 -0.000006 -0.000039  0.000102 -0.007479 0.163490
44  1.206996 -0.000004 0.000007  0.000962 -0.000151 1.276280
45  5.740571 0.000097 0.000725  0.164283 -0.000014 0.000028
46  11.480863 -0.000101 0.000916  0.080641 0.076779 0.129180
47  6.027514 -0.000273 -0.000237  -0.864843 -0.616851 -1.675871
48  -0.000002 11.691975 -0.000006  -1.211028 0.655349 0.912884
49  0.000001 0.000000 -0.000000  2.264421 -0.000047 1.570851
50  -0.000007 -0.000016 0.000005  2.272644 -0.000031 1.570865
51  -3.479199 -3.639096 -5.887411  -0.130308 -2.995743 1.477163
52  0.000000 -0.000000 -0.000000  0.008153 -0.000259 0.000009
53  0.000000 -0.000000 0.000000  1.565115 0.043565 -0.106862
54  -0.245564 -15.127913 -4.947320  -0.794611 -0.237688 -1.816370
55  0.000000 -0.000001 0.000000  0.000000 -0.000000 -0.000002
56  0.000031 0.000029 0.000001  -1.571901 -0.044449 -0.106509
57  6.132251 -14.556842 -16.933033  1.570796 -0.000000 0.000000
58  -16.642132 4.602435 -20.579788  1.570796 -0.000000 0.000000
59  2.236387 1.317426 -3.375998  1.570796 -0.000000 0.000000
60  -0.004311 0.001230 -0.000371  0.006898 -0.005534 -0.284229
61  0.826810 10.500209 -2.215392  1.570796 -0.000000 0.000000
62  0.000000 0.000000 0.000000  -0.078727 -3.136056 0.284226
63  0.000000 0.000000 0.000000  1.570796 0.000996 0.000000
64  -2.159890 -8.395760 -0.938080  1.575064 0.051578 0.003959
65  0.011267 -2.541756 0.246450  0.000000 0.000000 -0.000000
66  -0.040579 -0.596186 4.712709  0.000000 0.000000 -0.000000
67  -1.210912 -0.465220 1.116575  0.000000 0.000000 -0.000000
68  -0.001710 -1.449898 22.825077  0.000000 0.000000 -0.000000
69  0.014791 -3.432317 2.150503  0.000000 0.000000 -0.000000
70  0.002739 -1.463900 6.040024  0.051100 0.000000 0.000000
71  -0.001712 -2.299004 1.703906  0.000000 0.000000 -0.000000
72  -3.588360 -1.097282 -23.660017  1.570796 -0.000000 0.000000
73  0.136241 2.066845 -1.396211  0.000000 -0.000000 0.000000
74  -2.442665 -13.085774 -5.045233  1.575064 0.051578 0.003959
75  0.087484 2.183200 -0.139909  0.000000 0.000000 -0.000000
76  0.239006 2.332644 -1.422236  0.000000 0.000000 -0.000000
77  -0.037276 2.055116 -1.384613  0.000000 0.000000 -0.000000
time 9
0  0.000006 0.000000 0.000000  -1.570800 -1.391899 -1.570792
1  -3.555402 -0.696245 2.232071  -1.544956 -1.855077 -0.198630
2  6.027524 -0.000324 0.000193  -0.770872 -0.980070 -1.527348
3  11.692110 0.000643 -0.000740  -0.724729 -0.000012 -1.316321
4  11.480399 0.000284 -0.000726  1.148365 -0.569095 0.211289
5  3.859509 -0.142878 -1.192048  -0.688486 -0.177859 -1.771238
6  1.312589 0.000012 0.000008  -0.134456 0.002702 -0.177087
7  0.729355 0.000054 0.000050  -0.006756 -0.009780 -0.219796
8  3.942141 0.046274 -0.431511  -0.617547 0.335607 -1.216410
9  1.539111 0.000085 0.000007  -0.008759 -0.079696 -0.902807
10  1.196331 0.000148 0.000028  0.008519 0.004256 -0.542288
11  3.883504 -0.047268 0.431382  -0.368041 0.662129 -0.667220
12  1.719572 -0.000025 0.000016  0.009232 -0.073687 -0.989770
13  1.209179 0.000092 0.000011  -0.009578 -0.006549 -0.915981
14  4.085222 -0.082713 1.151042  -0.261587 0.849659 -0.311893
15  1.719448 -0.000014 0.000025  0.022831 0.018817 -0.385684
16  1.099675 0.000048 0.000006  -0.071661 0.046283 -1.373824
17  0.921523 -1.355449 1.250966  -1.042121 -0.471298 -0.246738
18  1.789819 -0.000004 -0.000019  0.000124 -0.000928 0.770007
19  1.207014 -0.000013 -0.000043  0.000107 -0.000005 -0.103766
20  5.740637 0.000411 -0.000702  -0.129136 0.000003 0.000067
21  11.481089 0.000270 -0.000802  -0.064685 -0.100264 0.006091
22  6.027524 -0.000330 0.000203  1.617025 -0.589214 1.531181
23  0.000001 11.692098 -0.000007  -0.919336 -0.377890 -0.737183
24  0.000003 0.000008 0.000000  0.144362 -0.000031 1.570739
25  -0.000001 -0.000012 -0.000000  0.868957 0.000002 1.570712
26  -4.048488 -9.938416 0.826810  1.473120 1.855075 -0.198639
27  6.027509 -0.000259 -0.000228  1.439550 0.667536 -0.702073
28  11.691990 0.000240 0.000859  -0.008105 0.000070 -1.814066
29  11.479556 -0.001035 0.000816  -1.044856 0.331543 0.812005
30  3.859446 -0.132765 1.193035  0.469561 0.024446 -2.027518
31  1.312558 0.000025 -0.000006  0.012739 -0.118546 -0.457170
32  0.729345 0.000066 -0.000030  -0.160543 -0.094833 -0.794827
33  3.942049 0.050132 0.430970  0.239759 -0.046947 -1.686225
34  1.539096 0.000003 -0.000008  0.033634 -0.037983 -0.965277
35  1.196299 0.000077 -0.000009  -0.022665 -0.001268 -0.998653
36  3.883409 -0.050479 -0.431113  0.254832 -0.208796 -1.406922
37  1.719564 -0.000075 -0.000013  0.020717 -0.083409 -1.505713
38  1.209197 0.000035 0.000005  -0.007976 0.070582 -0.580400
39  3.859577 -0.149088 -1.331350  -0.086511 -0.085442 -0.327389
40  1.719412 -0.000097 -0.000045  -0.016671 0.024412 -1.388510
41  1.099674 0.000024 0.000001  -0.007296 -0.008999 -0.930362
42  0.805973 -0.359849 -1.318344  0.989320 0.173207 -0.818039
43  1.789779 -0.000006 -0.000039  0.000102 -0.007478 0.163490
44  1.206996 -0.000004 0.000007  0.000962 -0.000151 1.276280
45  5.740573 0.000096 0.000727  0.165182 -0.000014 0.000028
46  11.480857 -0.000107 0.000917  0.080800 0.078530 0.128820
47  6.027514 -0.000273 -0.000237  -0.864407 -0.620219 -1.674986
48  -0.000001 11.691973 -0.000006  -1.213948 0.658346 0.914301
49  0.000003 -0.000000 0.000000  2.264421 -0.000047 1.570851
50  -0.000006 -0.000015 0.000006  2.272644 -0.000031 1.570865
51  -3.450302 -3.588164 -5.901079  -0.125475 -2.991412 1.474328
52  0.000000 -0.000000 0.000000  0.008153 -0.000259 0.000009
53  -0.000000 -0.000000 -0.000000  1.565115 0.043565 -0.106862
54  -0.245279 -15.079166 -4.892237  -0.789072 -0.241244 -1.819805
55  -0.000000 -0.000000 -0.000000  0.000000 -0.000000 -0.000002
56  0.000029 0.000028 0.000001  -1.571902 -0.044449 -0.106509
57  6.132251 -14.556842 -16.933033  1.570796 -0.000000 0.000000
58  -16.642132 4.602435 -20.579788  1.570796 -0.000000 0.000000
59  2.236387 1.317426 -3.375998  1.570796 -0.000000 0.000000
60  -0.004311 0.001230 -0.000371  0.006898 -0.005534 -0.284229
61  0.826810 10.500209 -2.215392  1.570796 -0.000000 0.000000
62  0.000000 0.000000 0.000000  -0.078727 -3.136056 0.284226
63  0.000000 0.000000 0.000000  1.570796 0.000349 0.000000
64  -2.162641 -8.323938 -0.923464  1.570280 0.047243 0.001601
65  0.011267 -2.541756 0.246450  -0.000000 0.000000 0.000000
66  -0.040579 -0.596186 4.712709  -0.000000 0.000000 0.000000
67  -1.210912 -0.465220 1.116576  -0.000000 0.000000 0.000000
68  -0.001710 -1.449898 22.825077  -0.000000 0.000000 0.000000
69  0.014791 -3.432317 2.150502  -0.000000 0.000000 0.000000
70  0.002739 -1.463900 6.040023  0.051100 0.000000 0.000000
71  -0.001712 -2.299005 1.703905  -0.000000 0.000000 0.000000
72  -3.588360 -1.097282 -23.660017  1.570796 -0.000000 0.000000
73  0.136241 2.066845 -1.396211  0.000000 -0.000000 0.000000
74  -2.437576 -13.032885 -5.009433  1.570280 0.047243 0.001601
75  0.087484 2.183199 -0.139910  -0.000000 0.000000 0.000000
76  0.239006 2.332643 -1.422238  -0.000000 0.000000 0.000000
77  -0.037276 2.055116 -1.384614  -0.000000 0.000000 0.000000
time 10
0  0.000006 0.000000 0.000000  -1.570800 -1.391899 -1.570792
1  -3.555402 -0.696245 2.232071  -1.544956 -1.855077 -0.198630
2  6.027524 -0.000324 0.000193  -0.773721 -0.978649 -1.524640
3  11.692111 0.000644 -0.000741  -0.724729 -0.000012 -1.326597
4  11.480328 0.000253 -0.000757  1.154338 -0.572572 0.216261
5  3.859507 -0.142878 -1.192049  -0.688486 -0.177859 -1.771238
6  1.312588 0.000011 0.000010  -0.134456 0.002702 -0.177087
7  0.729354 0.000053 0.000049  -0.006756 -0.009781 -0.219796
8  3.942141 0.046275 -0.431512  -0.617547 0.335607 -1.216410
9  1.539112 0.000085 0.000006  -0.008759 -0.079696 -0.902807
10  1.196332 0.000148 0.000028  0.008519 0.004256 -0.542288
11  3.883504 -0.047267 0.431382  -0.368041 0.662129 -0.667220
12  1.719573 -0.000026 0.000015  0.009232 -0.073687 -0.989770
13  1.209179 0.000091 0.000012  -0.009578 -0.006549 -0.915981
14  4.085220 -0.082713 1.151041  -0.261586 0.849659 -0.311892
15  1.719449 -0.000016 0.000026  0.022831 0.018817 -0.385684
16  1.099675 0.000049 0.000006  -0.071661 0.046283 -1.373824
17  0.921521 -1.355448 1.250965  -1.042121 -0.471298 -0.246738
18  1.789820 -0.000003 -0.000017  0.000124 -0.000928 0.770007
19  1.207017 -0.000013 -0.000044  0.000107 -0.000006 -0.103766
20  5.740637 0.000411 -0.000705  -0.128908 0.000003 0.000067
21  11.481074 0.000263 -0.000811  -0.063240 -0.100968 0.007267
22  6.027524 -0.000330 0.000203  1.619074 -0.590495 1.530385
23  0.000001 11.692100 -0.000007  -0.925581 -0.383178 -0.741498
24  0.000001 0.000008 0.000000  0.144362 -0.000031 1.570739
25  -0.000001 -0.000011 -0.000001  0.868957 0.000002 1.570712
26  -4.048488 -9.938416 0.826810  1.473120 1.855075 -0.198639
27  6.027509 -0.000259 -0.000228  1.437449 0.664246 -0.702390
28  11.691990 0.000241 0.000858  -0.008105 0.000071 -1.820973
29  11.479494 -0.001072 0.000816  -1.039685 0.335411 0.813275
30  3.859445 -0.132765 1.193036  0.469561 0.024446 -2.027518
31  1.312558 0.000025 -0.000006  0.012739 -0.118546 -0.457170
32  0.729344 0.000066 -0.000030  -0.160543 -0.094833 -0.794827
33  3.942049 0.050133 0.430970  0.239759 -0.046947 -1.686225
34  1.539096 0.000004 -0.000008  0.033634 -0.037983 -0.965277
35  1.196300 0.000076 -0.000009  -0.022665 -0.001268 -0.998653
36  3.883409 -0.050478 -0.431114  0.254832 -0.208796 -1.406922
37  1.719564 -0.000075 -0.000012  0.020717 -0.083409 -1.505713
38  1.209197 0.000035 0.000005  -0.007976 0.070582 -0.580400
39  3.859578 -0.149088 -1.331349  -0.086511 -0.085442 -0.327389
40  1.719412 -0.000097 -0.000045  -0.016671 0.024412 -1.388510
41  1.099674 0.000024 0.000002  -0.007296 -0.008999 -0.930362
42  0.805973 -0.359849 -1.318344  0.989321 0.173207 -0.818040
43  1.789780 -0.000007 -0.000040  0.000102 -0.007478 0.163490
44  1.206996 -0.000005 0.000007  0.000962 -0.000151 1.276281
45  5.740571 0.000097 0.000725  0.166521 -0.000014 0.000028
46  11.480842 -0.000113 0.000917  0.081396 0.079636 0.128627
47  6.027514 -0.000273 -0.000237  -0.862206 -0.623437 -1.675288
48  -0.000001 11.691972 -0.000007  -1.218020 0.662527 0.916262
49  0.000003 -0.000000 0.000000  2.264421 -0.000047 1.570851
50  -0.000006 -0.000016 0.000004  2.272644 -0.000030 1.570865
51  -3.434587 -3.521418 -5.907143  -0.119901 -2.988320 1.474249
52  -0.000000 -0.000000 0.000000  0.008153 -0.000259 0.000009
53  -0.000000 0.000000 0.000000  1.565115 0.043565 -0.106862
54  -0.226181 -15.006228 -4.840217  -0.782976 -0.243461 -1.820505
55  -0.000000 0.000000 0.000000  0.000000 -0.000000 -0.000002
56  0.000030 0.000029 0.000001  -1.571901 -0.044449 -0.106509
57  6.132251 -14.556842 -16.933033  1.570796 -0.000000 0.000000
58  -16.642132 4.602435 -20.579788  1.570796 -0.000000 0.000000
59  2.236387 1.317426 -3.375998  1.570796 -0.000000 0.000000
60  -0.004311 0.001230 -0.000371  0.006898 -0.005534 -0.284229
61  0.826810 10.500209 -2.215392  1.570796 -0.000000 0.000000
62  0.000000 0.000000 0.000000  -0.078727 -3.136056 0.284226
63  0.000000 0.000000 0.000000  1.570796 -0.000000 -0.000000
64  -2.169199 -8.238215 -0.905852  1.566659 0.042063 0.002203
65  0.011267 -2.541757 0.246449  0.000000 -0.000000 0.000000
66  -0.040579 -0.596186 4.712709  0.000000 -0.000000 0.000000
67  -1.210912 -0.465220 1.116574  0.000000 -0.000000 0.000000
68  -0.001710 -1.449898 22.825081  0.000000 -0.000000 0.000000
69  0.014792 -3.432317 2.150502  0.000000 -0.000000 0.000000
70  0.002739 -1.463900 6.040024  0.051100 0.000000 0.000000
71  -0.001712 -2.299005 1.703907  0.000000 -0.000000 0.000000
72  -3.588360 -1.097282 -23.660017  1.570796 -0.000000 0.000000
73  0.136241 2.066845 -1.396211  0.000000 -0.000000 0.000000
74  -2.419382 -12.962078 -4.976167  1.566659 0.042063 0.002203
75  0.087484 2.183199 -0.139909  0.000000 -0.000000 0.000000
76  0.239006 2.332643 -1.422238  0.000000 -0.000000 0.000000
77  -0.037276 2.055115 -1.384614  0.000000 -0.000000 0.000000
time 11
0  0.000006 0.000000 0.000000  -1.570800 -1.391899 -1.570792
1  -3.555402 -0.696245 2.232071  -1.544956 -1.855077 -0.198630
2  6.027524 -0.000324 0.000193  -0.776930 -0.976639 -1.520956
3  11.692109 0.000643 -0.000740  -0.724730 -0.000013 -1.336478
4  11.480261 0.000227 -0.000781  1.158320 -0.577364 0.221677
5  3.859509 -0.142877 -1.192049  -0.688486 -0.177859 -1.771238
6  1.312588 0.000012 0.000009  -0.134456 0.002702 -0.177087
7  0.729356 0.000052 0.000050  -0.006756 -0.009781 -0.219796
8  3.942142 0.046275 -0.431511  -0.617547 0.335607 -1.216410
9  1.539111 0.000085 0.000005  -0.008759 -0.079696 -0.902807
10  1.196333 0.000146 0.000028  0.008519 0.004256 -0.542288
11  3.883504 -0.047268 0.431382  -0.368041 0.662129 -0.667220
12  1.719572 -0.000027 0.000016  0.009232 -0.073687 -0.989770
13  1.209178 0.000092 0.000012  -0.009578 -0.006549 -0.915981
14  4.085221 -0.082713 1.151041  -0.261587 0.849659 -0.311892
15  1.719448 -0.000017 0.000025  0.022831 0.018816 -0.385684
16  1.099675 0.000049 0.000006  -0.071661 0.046283 -1.373824
17  0.921523 -1.355448 1.250965  -1.042121 -0.471298 -0.246738
18  1.789821 -0.000003 -0.000018  0.000124 -0.000928 0.770007
19  1.207017 -0.000013 -0.000043  0.000107 -0.000006 -0.103766
20  5.740637 0.000411 -0.000704  -0.129039 0.000003 0.000067
21  11.481061 0.000258 -0.000815  -0.062095 -0.101973 0.008362
22  6.027524 -0.000330 0.000203  1.621441 -0.592338 1.530088
23  0.000002 11.692099 -0.000007  -0.931576 -0.388286 -0.745621
24  0.000002 0.000008 -0.000001  0.144362 -0.000030 1.570738
25  -0.000001 -0.000011 -0.000000  0.868957 0.000002 1.570712
26  -4.048488 -9.938416 0.826810  1.473120 1.855075 -0.198639
27  6.027509 -0.000259 -0.000228  1.436521 0.661183 -0.702310
28  11.691990 0.000240 0.000858  -0.008105 0.000071 -1.827668
29  11.479434 -0.001106 0.000814  -1.035286 0.336235 0.815562
30  3.859445 -0.132765 1.193035  0.469561 0.024446 -2.027518
31  1.312559 0.000026 -0.000006  0.012739 -0.118546 -0.457170
32  0.729344 0.000065 -0.000030  -0.160543 -0.094833 -0.794827
33  3.942049 0.050132 0.430970  0.239759 -0.046947 -1.686225
34  1.539096 0.000004 -0.000008  0.033634 -0.037983 -0.965277
35  1.196299 0.000076 -0.000008  -0.022665 -0.001268 -0.998653
36  3.883408 -0.050478 -0.431113  0.254832 -0.208796 -1.406922
37  1.719564 -0.000075 -0.000012  0.020717 -0.083409 -1.505713
38  1.209197 0.000035 0.000005  -0.007976 0.070582 -0.580400
39  3.859577 -0.149088 -1.331350  -0.086511 -0.085442 -0.327389
40  1.719412 -0.000097 -0.000045  -0.016671 0.024412 -1.388510
41  1.099674 0.000024 0.000002  -0.007296 -0.008999 -0.930362
42  0.805973 -0.359849 -1.318344  0.989321 0.173207 -0.818040
43  1.789780 -0.000006 -0.000039  0.000102 -0.007479 0.163490
44  1.206996 -0.000005 0.000007  0.000962 -0.000151 1.276281
45  5.740572 0.000097 0.000726  0.167935 -0.000014 0.000028
46  11.480830 -0.000121 0.000917  0.082073 0.080170 0.128825
47  6.027514 -0.000273 -0.000237  -0.859591 -0.625765 -1.676166
48  -0.000003 11.691973 -0.000006  -1.221969 0.666586 0.918149
49  0.000003 0.000001 -0.000000  2.264421 -0.000046 1.570851
50  -0.000007 -0.000016 0.000006  2.272644 -0.000031 1.570865
51  -3.428456 -3.458747 -5.904459  -0.115390 -2.987331 1.475210
52  -0.000000 0.000000 0.000000  0.008153 -0.000259 0.000009
53  -0.000000 -0.000000 -0.000000  1.565115 0.043565 -0.106862
54  -0.205785 -14.936720 -4.807352  -0.778281 -0.243758 -1.819986
55  0.000000 -0.000000 -0.000001  0.000000 -0.000000 -0.000002
56  0.000031 0.000028 0.000001  -1.571902 -0.044449 -0.106509
57  6.132251 -14.556842 -16.933033  1.570796 -0.000000 0.000000
58  -16.642132 4.602435 -20.579788  1.570796 -0.000000 0.000000
59  2.236387 1.317426 -3.375998  1.570796 -0.000000 0.000000
60  -0.004311 0.001230 -0.000371  0.006898 -0.005534 -0.284229
61  0.826810 10.500209 -2.215392  1.570796 -0.000000 0.000000
62  0.000000 0.000000 0.000000  -0.078727 -3.136056 0.284226
63  0.000000 0.000000 0.000000  1.570796 -0.000000 -0.000000
64  -2.177027 -8.166393 -0.891047  1.565232 0.037725 0.003797
65  0.011267 -2.541757 0.246449  0.000000 0.000000 -0.000000
66  -0.040579 -0.596186 4.712709  0.000000 0.000000 -0.000000
67  -1.210912 -0.465220 1.116576  0.000000 0.000000 -0.000000
68  -0.001710 -1.449898 22.825077  0.000000 0.000000 -0.000000
69  0.014792 -3.432317 2.150502  0.000000 0.000000 -0.000000
70  0.002739 -1.463900 6.040023  0.051100 0.000000 0.000000
71  -0.001712 -2.299004 1.703907  0.000000 0.000000 -0.000000
72  -3.588360 -1.097282 -23.660017  1.570796 -0.000000 0.000000
73  0.136241 2.066845 -1.396211  0.000000 -0.000000 0.000000
74  -2.401742 -12.896392 -4.955716  1.565232 0.037725 0.003797
75  0.087483 2.183199 -0.139910  0.000000 0.000000 -0.000000
76  0.239006 2.332643 -1.422236  0.000000 0.000000 -0.000000
77  -0.037276 2.055116 -1.384613  0.000000 0.000000 -0.000000
time 12
0  0.000006 0.000000 0.000000  -1.570800 -1.391899 -1.570792
1  -3.555402 -0.696245 2.232071  -1.544956 -1.855077 -0.198630
2  6.027523 -0.000324 0.000193  -0.779150 -0.975052 -1.518109
3  11.692110 0.000643 -0.000740  -0.724730 -0.000013 -1.341844
4  11.480226 0.000211 -0.000792  1.159407 -0.581244 0.224839
5  3.859511 -0.142877 -1.192048  -0.688486 -0.177859 -1.771238
6  1.312591 0.000012 0.000009  -0.134456 0.002702 -0.177087
7  0.729353 0.000054 0.000051  -0.006756 -0.009780 -0.219796
8  3.942144 0.046275 -0.431511  -0.617547 0.335607 -1.216410
9  1.539111 0.000086 0.000005  -0.008759 -0.079696 -0.902807
10  1.196333 0.000147 0.000029  0.008519 0.004256 -0.542288
11  3.883504 -0.047267 0.431382  -0.368041 0.662129 -0.667220
12  1.719573 -0.000027 0.000016  0.009232 -0.073687 -0.989770
13  1.209180 0.000092 0.000013  -0.009578 -0.006549 -0.915981
14  4.085222 -0.082712 1.151041  -0.261587 0.849659 -0.311892
15  1.719448 -0.000016 0.000024  0.022831 0.018816 -0.385684
16  1.099675 0.000047 0.000006  -0.071661 0.046283 -1.373825
17  0.921522 -1.355449 1.250966  -1.042120 -0.471298 -0.246738
18  1.789818 -0.000003 -0.000019  0.000124 -0.000928 0.770007
19  1.207012 -0.000013 -0.000043  0.000107 -0.000005 -0.103766
20  5.740638 0.000410 -0.000703  -0.129353 0.000003 0.000067
21  11.481054 0.000254 -0.000817  -0.061614 -0.102794 0.008886
22  6.027524 -0.000330 0.000203  1.623111 -0.593804 1.530164
23  0.000002 11.692101 -0.000007  -0.934827 -0.391069 -0.747850
24  0.000003 0.000010 0.000000  0.144362 -0.000030 1.570738
25  -0.000001 -0.000011 -0.000001  0.868957 0.000002 1.570712
26  -4.048488 -9.938416 0.826810  1.473120 1.855075 -0.198639
27  6.027509 -0.000259 -0.000228  1.437053 0.659510 -0.701899
28  11.691991 0.000242 0.000858  -0.008105 0.000071 -1.831181
29  11.479405 -0.001127 0.000815  -1.033456 0.334129 0.817023
30  3.859445 -0.132764 1.193036  0.469561 0.024446 -2.027518
31  1.312559 0.000025 -0.000007  0.012739 -0.118546 -0.457170
32  0.729345 0.000065 -0.000030  -0.160543 -0.094833 -0.794827
33  3.942049 0.050132 0.430971  0.239759 -0.046947 -1.686225
34  1.539096 0.000004 -0.000008  0.033634 -0.037983 -0.965277
35  1.196299 0.000077 -0.000009  -0.022665 -0.001268 -0.998653
36  3.883409 -0.050478 -0.431113  0.254832 -0.208796 -1.406922
37  1.719564 -0.000075 -0.000012  0.020717 -0.083409 -1.505713
38  1.209197 0.000035 0.000006  -0.007976 0.070582 -0.580400
39  3.859577 -0.149088 -1.331350  -0.086511 -0.085442 -0.327389
40  1.719412 -0.000097 -0.000045  -0.016671 0.024412 -1.388510
41  1.099674 0.000025 0.000002  -0.007296 -0.008999 -0.930362
42  0.805973 -0.359849 -1.318344  0.989321 0.173207 -0.818040
43  1.789779 -0.000006 -0.000039  0.000102 -0.007478 0.163490
44  1.206996 -0.000005 0.000007  0.000962 -0.000151 1.276281
45  5.740574 0.000095 0.000726  0.168733 -0.000014 0.000028
46  11.480827 -0.000125 0.000917  0.082546 0.079964 0.129136
47  6.027514 -0.000273 -0.000237  -0.857591 -0.626356 -1.677253
48  -0.000002 11.691973 -0.000006  -1.224042 0.668718 0.919134
49  0.000003 -0.000000 -0.000000  2.264421 -0.000047 1.570851
50  -0.000006 -0.000015 0.000006  2.272644 -0.000030 1.570865
51  -3.434942 -3.427670 -5.897383  -0.113626 -2.988169 1.476857
52  0.000000 -0.000000 -0.000000  0.008153 -0.000259 0.000009
53  -0.000000 0.000000 0.000000  1.565115 0.043565 -0.106862
54  -0.192260 -14.900179 -4.802094  -0.776638 -0.242662 -1.818464
55  0.000001 -0.000001 0.000000  0.000000 -0.000000 -0.000002
56  0.000030 0.000028 0.000002  -1.571901 -0.044449 -0.106509
57  6.132251 -14.556842 -16.933033  1.570796 -0.000000 0.000000
58  -16.642132 4.602435 -20.579788  1.570796 -0.000000 0.000000
59  2.236387 1.317426 -3.375998  1.570796 -0.000000 0.000000
60  -0.004311 0.001230 -0.000371  0.006898 -0.005534 -0.284229
61  0.826810 10.500209 -2.215392  1.570796 -0.000000 0.000000
62  0.000000 0.000000 0.000000  -0.078727 -3.136056 0.284226
63  0.000000 0.000000 0.000000  1.570796 -0.000000 -0.000000
64  -2.183586 -8.136274 -0.884853  1.565894 0.035907 0.005739
65  0.011267 -2.541756 0.246449  0.000000 -0.000000 0.000000
66  -0.040579 -0.596186 4.712709  0.000000 -0.000000 0.000000
67  -1.210912 -0.465220 1.116576  0.000000 -0.000000 0.000000
68  -0.001710 -1.449898 22.825077  0.000000 -0.000000 0.000000
69  0.014792 -3.432316 2.150502  0.000000 -0.000000 0.000000
70  0.002739 -1.463900 6.040023  0.051099 0.000000 0.000000
71  -0.001712 -2.299004 1.703906  0.000000 -0.000000 0.000000
72  -3.588360 -1.097282 -23.660017  1.570796 -0.000000 0.000000
73  0.136241 2.066845 -1.396211  0.000000 -0.000000 0.000000
74  -2.391853 -12.863965 -4.953082  1.565894 0.035907 0.005739
75  0.087484 2.183199 -0.139910  0.000000 -0.000000 0.000000
76  0.239006 2.332643 -1.422239  0.000000 -0.000000 0.000000
77  -0.037276 2.055116 -1.384615  0.000000 -0.000000 0.000000
time 13
0  0.000006 0.000000 0.000000  -1.570800 -1.391899 -1.570792
1  -3.555402 -0.696245 2.232071  -1.544956 -1.855077 -0.198630
2  6.027523 -0.000324 0.000193  -0.780155 -0.974391 -1.516911
3  11.692110 0.000644 -0.000740  -0.724730 -0.000013 -1.342342
4  11.480220 0.000209 -0.000796  1.158701 -0.583036 0.225240
5  3.859507 -0.142878 -1.192048  -0.688486 -0.177859 -1.771238
6  1.312591 0.000010 0.000009  -0.134456 0.002702 -0.177087
7  0.729355 0.000054 0.000050  -0.006756 -0.009780 -0.219796
8  3.942141 0.046275 -0.431511  -0.617547 0.335607 -1.216410
9  1.539111 0.000085 0.000005  -0.008759 -0.079696 -0.902807
10  1.196333 0.000148 0.000028  0.008519 0.004256 -0.542288
11  3.883505 -0.047267 0.431383  -0.368041 0.662129 -0.667220
12  1.719572 -0.000028 0.000014  0.009232 -0.073687 -0.989770
13  1.209178 0.000093 0.000013  -0.009578 -0.006549 -0.915981
14  4.085223 -0.082712 1.151042  -0.261587 0.849659 -0.311893
15  1.719448 -0.000015 0.000024  0.022831 0.018816 -0.385684
16  1.099675 0.000049 0.000004  -0.071661 0.046283 -1.373824
17  0.921521 -1.355448 1.250966  -1.042121 -0.471298 -0.246738
18  1.789820 -0.000004 -0.000018  0.000124 -0.000928 0.770007
19  1.207014 -0.000013 -0.000044  0.000107 -0.000006 -0.103766
20  5.740638 0.000410 -0.000703  -0.129591 0.000003 0.000067
21  11.481052 0.000254 -0.000819  -0.061659 -0.103167 0.008851
22  6.027524 -0.000330 0.000203  1.623864 -0.594409 1.530108
23  0.000002 11.692101 -0.000008  -0.935128 -0.391328 -0.748057
24  0.000003 0.000008 -0.000001  0.144362 -0.000030 1.570739
25  -0.000001 -0.000011 -0.000002  0.868957 0.000002 1.570712
26  -4.048488 -9.938416 0.826810  1.473120 1.855075 -0.198639
27  6.027509 -0.000259 -0.000228  1.438344 0.659443 -0.701437
28  11.691990 0.000241 0.000859  -0.008105 0.000071 -1.831120
29  11.479406 -0.001125 0.000815  -1.033945 0.330899 0.816941
30  3.859445 -0.132764 1.193036  0.469561 0.024446 -2.027518
31  1.312558 0.000026 -0.000006  0.012739 -0.118546 -0.457170
32  0.729345 0.000065 -0.000031  -0.160543 -0.094833 -0.794827
33  3.942049 0.050133 0.430971  0.239759 -0.046947 -1.686225
34  1.539096 0.000003 -0.000008  0.033634 -0.037983 -0.965277
35  1.196299 0.000076 -0.000009  -0.022665 -0.001268 -0.998653
36  3.883409 -0.050478 -0.431113  0.254832 -0.208796 -1.406922
37  1.719564 -0.000074 -0.000012  0.020717 -0.083409 -1.505713
38  1.209197 0.000035 0.000005  -0.007976 0.070582 -0.580400
39  3.859577 -0.149088 -1.331349  -0.086511 -0.085442 -0.327389
40  1.719411 -0.000097 -0.000044  -0.016671 0.024412 -1.388510
41  1.099674 0.000024 0.000001  -0.007296 -0.008999 -0.930362
42  0.805973 -0.359849 -1.318343  0.989321 0.173207 -0.818040
43  1.789779 -0.000007 -0.000039  0.000102 -0.007479 0.163490
44  1.206996 -0.000005 0.000007  0.000962 -0.000151 1.276281
45  5.740573 0.000096 0.000726  0.168801 -0.000014 0.000028
46  11.480825 -0.000124 0.000916  0.082728 0.079338 0.129314
47  6.027514 -0.000273 -0.000237  -0.856818 -0.625549 -1.678035
48  -0.000003 11.691973 -0.000007  -1.224006 0.668682 0.919117
49  0.000004 0.000001 -0.000000  2.264421 -0.000047 1.570851
50  -0.000007 -0.000016 0.000005  2.272644 -0.000031 1.570865
51  -3.447228 -3.430575 -5.890427  -0.114183 -2.989619 1.478526
52  -0.000000 0.000000 -0.000001  0.008153 -0.000259 0.000009
53  0.000000 0.000000 0.000001  1.565115 0.043565 -0.106862
54  -0.185920 -14.899553 -4.813620  -0.777427 -0.241315 -1.816690
55  0.000001 0.000000 -0.000000  0.000000 -0.000000 -0.000002
56  0.000030 0.000029 0.000001  -1.571902 -0.044449 -0.106509
57  6.132251 -14.556842 -16.933033  1.570796 -0.000000 0.000000
58  -16.642132 4.602435 -20.579788  1.570796 -0.000000 0.000000
59  2.236387 1.317426 -3.375998  1.570796 -0.000000 0.000000
60  -0.004311 0.001230 -0.000371  0.006898 -0.005534 -0.284229
61  0.826810 10.500209 -2.215392  1.570796 -0.000000 0.000000
62  0.000000 0.000000 0.000000  -0.078727 -3.136056 0.284226
63  0.000000 0.000000 0.000000  1.570796 -0.000000 -0.000000
64  -2.186336 -8.144671 -0.885456  1.567391 0.036311 0.007378
65  0.011267 -2.541757 0.246449  0.000000 -0.000000 -0.000000
66  -0.040579 -0.596186 4.712710  0.000000 -0.000000 -0.000000
67  -1.210912 -0.465220 1.116574  0.000000 -0.000000 -0.000000
68  -0.001710 -1.449898 22.825079  0.000000 -0.000000 -0.000000
69  0.014792 -3.432317 2.150502  0.000000 -0.000000 -0.000000
70  0.002738 -1.463900 6.040022  0.051100 0.000000 0.000000
71  -0.001712 -2.299004 1.703905  0.000000 -0.000000 -0.000000
72  -3.588360 -1.097282 -23.660017  1.570796 -0.000000 0.000000
73  0.136241 2.066845 -1.396211  0.000000 -0.000000 0.000000
74  -2.388799 -12.866605 -4.960658  1.567391 0.036311 0.007378
75  0.087484 2.183199 -0.139909  0.000000 -0.000000 -0.000000
76  0.239006 2.332644 -1.422238  0.000000 -0.000000 -0.000000
77  -0.037276 2.055116 -1.384615  0.000000 -0.000000 -0.000000
time 14
0  0.000006 0.000000 0.000000  -1.570800 -1.391899 -1.570792
1  -3.555402 -0.696245 2.232071  -1.544956 -1.855077 -0.198630
2  6.027523 -0.000324 0.000193  -0.780356 -0.974279 -1.516699
3  11.692109 0.000643 -0.000740  -0.724730 -0.000013 -1.340829
4  11.480231 0.000213 -0.000792  1.157179 -0.583322 0.224966
5  3.859509 -0.142878 -1.192049  -0.688486 -0.177859 -1.771238
6  1.312590 0.000012 0.000008  -0.134456 0.002702 -0.177087
7  0.729355 0.000053 0.000051  -0.006756 -0.009781 -0.219796
8  3.942143 0.046275 -0.431511  -0.617547 0.335607 -1.216410
9  1.539110 0.000086 0.000006  -0.008759 -0.079696 -0.902807
10  1.196333 0.000146 0.000029  0.008519 0.004256 -0.542288
11  3.883504 -0.047268 0.431382  -0.368041 0.662129 -0.667220
12  1.719572 -0.000027 0.000017  0.009232 -0.073687 -0.989770
13  1.209179 0.000090 0.000011  -0.009578 -0.006549 -0.915981
14  4.085222 -0.082714 1.151042  -0.261587 0.849659 -0.311893
15  1.719450 -0.000015 0.000026  0.022831 0.018817 -0.385684
16  1.099675 0.000050 0.000006  -0.071661 0.046282 -1.373825
17  0.921522 -1.355449 1.250966  -1.042121 -0.471298 -0.246738
18  1.789819 -0.000003 -0.000019  0.000124 -0.000928 0.770007
19  1.207013 -0.000013 -0.000044  0.000107 -0.000005 -0.103766
20  5.740638 0.000411 -0.000704  -0.129743 0.000003 0.000067
21  11.481055 0.000255 -0.000819  -0.061942 -0.103246 0.008695
22  6.027524 -0.000330 0.000203  1.624012 -0.594511 1.530071
23  0.000000 11.692098 -0.000007  -0.934212 -0.390542 -0.747429
24  0.000003 0.000008 -0.000002  0.144362 -0.000031 1.570738
25  -0.000001 -0.000011 -0.000001  0.868957 0.000002 1.570712
26  -4.048488 -9.938416 0.826810  1.473120 1.855075 -0.198639
27  6.027509 -0.000259 -0.000228  1.439395 0.660240 -0.701172
28  11.691992 0.000241 0.000859  -0.008105 0.000071 -1.829885
29  11.479419 -0.001121 0.000814  -1.034954 0.328387 0.817211
30  3.859445 -0.132765 1.193036  0.469561 0.024446 -2.027518
31  1.312558 0.000026 -0.000006  0.012739 -0.118546 -0.457170
32  0.729345 0.000066 -0.000031  -0.160543 -0.094833 -0.794827
33  3.942049 0.050132 0.430971  0.239759 -0.046947 -1.686225
34  1.539096 0.000004 -0.000009  0.033634 -0.037983 -0.965277
35  1.196299 0.000077 -0.000009  -0.022665 -0.001268 -0.998653
36  3.883409 -0.050478 -0.431113  0.254832 -0.208796 -1.406922
37  1.719564 -0.000075 -0.000012  0.020717 -0.083409 -1.505713
38  1.209197 0.000035 0.000006  -0.007976 0.070582 -0.580400
39  3.859576 -0.149088 -1.331349  -0.086511 -0.085442 -0.327389
40  1.719413 -0.000097 -0.000045  -0.016671 0.024412 -1.388510
41  1.099674 0.000024 0.000001  -0.007296 -0.008999 -0.930362
42  0.805973 -0.359849 -1.318344  0.989321 0.173207 -0.818039
43  1.789779 -0.000006 -0.000039  0.000102 -0.007478 0.163490
44  1.206996 -0.000005 0.000007  0.000962 -0.000151 1.276280
45  5.740574 0.000096 0.000726  0.168705 -0.000014 0.000028
46  11.480829 -0.000124 0.000916  0.082744 0.078820 0.129546
47  6.027514 -0.000273 -0.000237  -0.857059 -0.624414 -1.678274
48  -0.000002 11.691974 -0.000007  -1.223277 0.667932 0.918771
49  0.000004 0.000000 0.000001  2.264421 -0.000047 1.570851
50  -0.000006 -0.000015 0.000005  2.272644 -0.000031 1.570865
51  -3.454408 -3.443997 -5.882624  -0.115366 -2.991194 1.479348
52  -0.000000 0.000000 0.000001  0.008153 -0.000259 0.000009
53  -0.000000 0.000000 -0.000000  1.565115 0.043565 -0.106862
54  -0.184626 -14.912657 -4.828376  -0.778865 -0.239936 -1.815704
55  -0.000000 -0.000000 -0.000000  0.000000 -0.000000 -0.000002
56  0.000030 0.000028 0.000001  -1.571902 -0.044449 -0.106509
57  6.132251 -14.556842 -16.933033  1.570796 -0.000000 0.000000
58  -16.642132 4.602435 -20.579788  1.570796 -0.000000 0.000000
59  2.236387 1.317426 -3.375998  1.570796 -0.000000 0.000000
60  -0.004311 0.001230 -0.000371  0.006898 -0.005534 -0.284229
61  0.826810 10.500209 -2.215392  1.570796 -0.000000 0.000000
62  0.000000 0.000000 0.000000  -0.078727 -3.136056 0.284226
63  0.000000 0.000000 0.000000  1.570796 -0.000000 -0.000000
64  -2.185376 -8.165663 -0.886853  1.569077 0.037318 0.008084
65  0.011267 -2.541756 0.246449  0.000000 0.000000 0.000000
66  -0.040579 -0.596186 4.712708  0.000000 0.000000 0.000000
67  -1.210912 -0.465220 1.116575  0.000000 0.000000 0.000000
68  -0.001710 -1.449898 22.825079  0.000000 0.000000 0.000000
69  0.014792 -3.432317 2.150503  0.000000 0.000000 0.000000
70  0.002739 -1.463900 6.040023  0.051100 0.000000 0.000000
71  -0.001712 -2.299005 1.703906  0.000000 0.000000 0.000000
72  -3.588360 -1.097282 -23.660017  1.570796 -0.000000 0.000000
73  0.136241 2.066845 -1.396211  0.000000 -0.000000 0.000000
74  -2.388961 -12.880888 -4.969759  1.569077 0.037318 0.008084
75  0.087483 2.183199 -0.139910  0.000000 0.000000 0.000000
76  0.239006 2.332644 -1.422238  0.000000 0.000000 0.000000
77  -0.037276 2.055116 -1.384616  0.000000 0.000000 0.000000
time 15
0  0.000006 0.000000 0.000000  -1.570800 -1.391899 -1.570792
1  -3.555402 -0.696245 2.232071  -1.544956 -1.855077 -0.198630
2  6.027523 -0.000324 0.000193  -0.779598 -0.974806 -1.517639
3  11.692108 0.000644 -0.000739  -0.724730 -0.000013 -1.337704
4  11.480253 0.000223 -0.000782  1.155499 -0.582185 0.223888
5  3.859510 -0.142876 -1.192049  -0.688486 -0.177859 -1.771238
6  1.312591 0.000011 0.000010  -0.134456 0.002702 -0.177087
7  0.729355 0.000053 0.000049  -0.006756 -0.009780 -0.219796
8  3.942144 0.046276 -0.431511  -0.617547 0.335607 -1.216410
9  1.539111 0.000083 0.000005  -0.008759 -0.079696 -0.902807
10  1.196332 0.000147 0.000029  0.008519 0.004256 -0.542288
11  3.883504 -0.047267 0.431382  -0.368041 0.662129 -0.667220
12  1.719572 -0.000027 0.000016  0.009232 -0.073687 -0.989770
13  1.209180 0.000091 0.000012  -0.009578 -0.006549 -0.915981
14  4.085224 -0.082711 1.151041  -0.261587 0.849659 -0.311893
15  1.719448 -0.000016 0.000026  0.022831 0.018817 -0.385684
16  1.099674 0.000048 0.000003  -0.071661 0.046282 -1.373824
17  0.921524 -1.355447 1.250966  -1.042121 -0.471298 -0.246738
18  1.789818 -0.000003 -0.000018  0.000124 -0.000928 0.770007
19  1.207015 -0.000013 -0.000044  0.000107 -0.000005 -0.103766
20  5.740638 0.000411 -0.000705  -0.129758 0.000003 0.000067
21  11.481059 0.000258 -0.000816  -0.062343 -0.103028 0.008430
22  6.027524 -0.000330 0.000203  1.623441 -0.594026 1.530078
23  0.000001 11.692100 -0.000008  -0.932319 -0.388921 -0.746131
24  0.000004 0.000008 -0.000000  0.144362 -0.000030 1.570739
25  -0.000000 -0.000011 -0.000002  0.868957 0.000002 1.570712
26  -4.048488 -9.938416 0.826810  1.473120 1.855075 -0.198639
27  6.027509 -0.000259 -0.000228  1.440100 0.661534 -0.701093
28  11.691990 0.000241 0.000859  -0.008105 0.000071 -1.827773
29  11.479435 -0.001110 0.000815  -1.036251 0.327097 0.817282
30  3.859445 -0.132765 1.193036  0.469561 0.024446 -2.027518
31  1.312558 0.000026 -0.000007  0.012739 -0.118546 -0.457170
32  0.729345 0.000066 -0.000030  -0.160543 -0.094833 -0.794827
33  3.942048 0.050132 0.430970  0.239759 -0.046947 -1.686225
34  1.539096 0.000004 -0.000008  0.033634 -0.037983 -0.965277
35  1.196300 0.000076 -0.000009  -0.022665 -0.001268 -0.998653
36  3.883408 -0.050479 -0.431113  0.254832 -0.208796 -1.406922
37  1.719563 -0.000076 -0.000012  0.020717 -0.083409 -1.505713
38  1.209196 0.000035 0.000006  -0.007976 0.070582 -0.580400
39  3.859577 -0.149088 -1.331349  -0.086511 -0.085442 -0.327389
40  1.719412 -0.000097 -0.000045  -0.016671 0.024412 -1.388510
41  1.099674 0.000023 0.000001  -0.007296 -0.008999 -0.930362
42  0.805972 -0.359849 -1.318343  0.989321 0.173207 -0.818039
43  1.789780 -0.000006 -0.000039  0.000102 -0.007479 0.163490
44  1.206996 -0.000004 0.000007  0.000962 -0.000151 1.276281
45  5.740572 0.000096 0.000727  0.168430 -0.000014 0.000028
46  11.480831 -0.000122 0.000918  0.082611 0.078498 0.129688
47  6.027514 -0.000273 -0.000237  -0.857997 -0.623229 -1.678079
48  -0.000002 11.691973 -0.000007  -1.222031 0.666650 0.918179
49  0.000004 0.000000 0.000001  2.264421 -0.000047 1.570851
50  -0.000008 -0.000015 0.000006  2.272644 -0.000031 1.570865
51  -3.457440 -3.464830 -5.876991  -0.116809 -2.992293 1.479294
52  -0.000000 0.000000 -0.000000  0.008153 -0.000259 0.000009
53  -0.000000 -0.000000 -0.000000  1.565115 0.043565 -0.106862
54  -0.189371 -14.935652 -4.841110  -0.780490 -0.239068 -1.815588
55  -0.000001 -0.000000 0.000000  0.000000 -0.000000 -0.000002
56  0.000030 0.000029 0.000001  -1.571901 -0.044449 -0.106509
57  6.132251 -14.556842 -16.933033  1.570796 -0.000000 0.000000
58  -16.642132 4.602435 -20.579788  1.570796 -0.000000 0.000000
59  2.236387 1.317426 -3.375998  1.570796 -0.000000 0.000000
60  -0.004311 0.001230 -0.000371  0.006898 -0.005534 -0.284229
61  0.826810 10.500209 -2.215392  1.570796 -0.000000 0.000000
62  0.000000 0.000000 0.000000  -0.078727 -3.136056 0.284226
63  0.000000 0.000000 0.000000  1.570796 -0.000000 -0.000000
64  -2.183088 -8.192953 -0.888687  1.570313 0.038629 0.007861
65  0.011267 -2.541756 0.246450  0.000000 -0.000000 0.000000
66  -0.040578 -0.596186 4.712709  0.000000 -0.000000 0.000000
67  -1.210912 -0.465220 1.116576  0.000000 -0.000000 0.000000
68  -0.001710 -1.449898 22.825077  0.000000 -0.000000 0.000000
69  0.014792 -3.432317 2.150501  0.000000 -0.000000 0.000000
70  0.002739 -1.463900 6.040024  0.051100 -0.000000 0.000000
71  -0.001712 -2.299004 1.703905  0.000000 -0.000000 0.000000
72  -3.588360 -1.097282 -23.660017  1.570796 -0.000000 0.000000
73  0.136241 2.066845 -1.396211  0.000000 -0.000000 0.000000
74  -2.393341 -12.903117 -4.977092  1.570313 0.038629 0.007861
75  0.087484 2.183199 -0.139909  0.000000 -0.000000 0.000000
76  0.239006 2.332644 -1.422237  0.000000 -0.000000 0.000000
77  -0.037275 2.055116 -1.384615  0.000000 -0.000000 0.000000
time 16
0  0.000006 0.000000 0.000000  -1.570800 -1.391899 -1.570792
1  -3.555402 -0.696245 2.232071  -1.544956 -1.855077 -0.198630
2  6.027523 -0.000324 0.000193  -0.778519 -0.975666 -1.519157
3  11.692109 0.000643 -0.000739  -0.724730 -0.000013 -1.334074
4  11.480276 0.000233 -0.000774  1.154308 -0.580387 0.222249
5  3.859510 -0.142877 -1.192049  -0.688486 -0.177859 -1.771238
6  1.312591 0.000011 0.000008  -0.134456 0.002702 -0.177087
7  0.729353 0.000054 0.000049  -0.006756 -0.009780 -0.219796
8  3.942143 0.046276 -0.431512  -0.617547 0.335607 -1.216410
9  1.539111 0.000083 0.000006  -0.008759 -0.079696 -0.902807
10  1.196334 0.000147 0.000028  0.008519 0.004256 -0.542288
11  3.883505 -0.047267 0.431382  -0.368041 0.662129 -0.667220
12  1.719573 -0.000027 0.000015  0.009232 -0.073687 -0.989770
13  1.209179 0.000092 0.000012  -0.009578 -0.006549 -0.915981
14  4.085222 -0.082712 1.151041  -0.261587 0.849659 -0.311893
15  1.719448 -0.000015 0.000025  0.022831 0.018816 -0.385684
16  1.099676 0.000048 0.000007  -0.071661 0.046282 -1.373825
17  0.921524 -1.355448 1.250965  -1.042121 -0.471298 -0.246738
18  1.789819 -0.000004 -0.000019  0.000124 -0.000928 0.770007
19  1.207015 -0.000013 -0.000044  0.000107 -0.000005 -0.103766
20  5.740636 0.000411 -0.000703  -0.129651 0.000003 0.000067
21  11.481063 0.000260 -0.000813  -0.062702 -0.102656 0.008114
22  6.027524 -0.000330 0.000203  1.622617 -0.593226 1.529914
23  0.000001 11.692099 -0.000008  -0.930118 -0.387041 -0.744620
24  0.000003 0.000008 -0.000001  0.144362 -0.000031 1.570739
25  -0.000000 -0.000011 -0.000002  0.868957 0.000002 1.570712
26  -4.048488 -9.938416 0.826810  1.473120 1.855075 -0.198639
27  6.027509 -0.000259 -0.000228  1.440530 0.662910 -0.701120
28  11.691992 0.000240 0.000859  -0.008105 0.000071 -1.825265
29  11.479456 -0.001093 0.000816  -1.037598 0.326658 0.816685
30  3.859444 -0.132765 1.193036  0.469561 0.024446 -2.027518
31  1.312558 0.000026 -0.000005  0.012739 -0.118546 -0.457170
32  0.729345 0.000065 -0.000031  -0.160543 -0.094833 -0.794827
33  3.942048 0.050132 0.430970  0.239759 -0.046947 -1.686225
34  1.539096 0.000003 -0.000008  0.033634 -0.037983 -0.965277
35  1.196300 0.000076 -0.000008  -0.022665 -0.001268 -0.998653
36  3.883409 -0.050478 -0.431114  0.254832 -0.208796 -1.406922
37  1.719564 -0.000075 -0.000011  0.020717 -0.083409 -1.505713
38  1.209197 0.000035 0.000005  -0.007976 0.070582 -0.580400
39  3.859577 -0.149088 -1.331350  -0.086511 -0.085442 -0.327389
40  1.719413 -0.000097 -0.000045  -0.016671 0.024412 -1.388510
41  1.099674 0.000024 0.000001  -0.007296 -0.008999 -0.930362
42  0.805972 -0.359849 -1.318344  0.989321 0.173207 -0.818040
43  1.789780 -0.000006 -0.000039  0.000102 -0.007479 0.163490
44  1.206996 -0.000004 0.000007  0.000962 -0.000151 1.276281
45  5.740572 0.000097 0.000727  0.168021 -0.000014 0.000028
46  11.480835 -0.000117 0.000917  0.082416 0.078304 0.129656
47  6.027514 -0.000273 -0.000237  -0.859167 -0.622178 -1.677688
48  -0.000001 11.691973 -0.000006  -1.220551 0.665129 0.917474
49  0.000003 -0.000001 0.000001  2.264421 -0.000046 1.570851
50  -0.000005 -0.000015 0.000006  2.272644 -0.000031 1.570865
51  -3.458675 -3.488663 -5.874742  -0.118188 -2.992722 1.478948
52  -0.000000 0.000000 -0.000000  0.008153 -0.000259 0.000009
53  -0.000000 0.000000 0.000000  1.565115 0.043565 -0.106862
54  -0.195570 -14.961857 -4.849498  -0.781944 -0.238852 -1.815795
55  0.000001 0.000001 -0.000000  0.000000 -0.000000 -0.000002
56  0.000032 0.000029 0.000001  -1.571901 -0.044449 -0.106509
57  6.132251 -14.556842 -16.933033  1.570796 -0.000000 0.000000
58  -16.642132 4.602435 -20.579788  1.570796 -0.000000 0.000000
59  2.236387 1.317426 -3.375998  1.570796 -0.000000 0.000000
60  -0.004311 0.001230 -0.000371  0.006898 -0.005534 -0.284229
61  0.826810 10.500209 -2.215392  1.570796 -0.000000 0.000000
62  0.000000 0.000000 0.000000  -0.078727 -3.136056 0.284226
63  0.000000 0.000000 0.000000  1.570796 -0.000000 -0.000000
64  -2.180356 -8.220242 -0.890731  1.570875 0.039943 0.007332
65  0.011267 -2.541757 0.246449  -0.000000 0.000000 0.000000
66  -0.040579 -0.596186 4.712709  -0.000000 0.000000 0.000000
67  -1.210912 -0.465220 1.116575  -0.000000 0.000000 0.000000
68  -0.001710 -1.449898 22.825077  -0.000000 0.000000 0.000000
69  0.014791 -3.432316 2.150503  -0.000000 0.000000 0.000000
70  0.002739 -1.463900 6.040024  0.051100 0.000000 0.000000
71  -0.001712 -2.299004 1.703906  -0.000000 0.000000 0.000000
72  -3.588360 -1.097282 -23.660017  1.570796 -0.000000 0.000000
73  0.136241 2.066845 -1.396211  0.000000 -0.000000 0.000000
74  -2.398596 -12.928031 -4.981454  1.570875 0.039943 0.007332
75  0.087484 2.183199 -0.139911  -0.000000 0.000000 0.000000
76  0.239006 2.332644 -1.422238  -0.000000 0.000000 0.000000
77  -0.037276 2.055116 -1.384616  -0.000000 0.000000 0.000000
time 17
0  0.000006 0.000000 0.000000  -1.570800 -1.391899 -1.570792
1  -3.555402 -0.696245 2.232071  -1.544956 -1.855077 -0.198630
2  6.027523 -0.000324 0.000193  -0.777564 -0.976434 -1.520516
3  11.692109 0.000643 -0.000739  -0.724729 -0.000013 -1.331092
4  11.480299 0.000242 -0.000765  1.153543 -0.578755 0.220779
5  3.859511 -0.142877 -1.192050  -0.688486 -0.177859 -1.771238
6  1.312591 0.000012 0.000009  -0.134456 0.002702 -0.177087
7  0.729355 0.000054 0.000049  -0.006756 -0.009781 -0.219796
8  3.942144 0.046275 -0.431512  -0.617547 0.335607 -1.216410
9  1.539111 0.000086 0.000007  -0.008759 -0.079696 -0.902807
10  1.196331 0.000146 0.000029  0.008519 0.004256 -0.542288
11  3.883505 -0.047267 0.431381  -0.368041 0.662129 -0.667220
12  1.719574 -0.000027 0.000014  0.009232 -0.073687 -0.989770
13  1.209179 0.000091 0.000013  -0.009578 -0.006549 -0.915981
14  4.085221 -0.082713 1.151041  -0.261587 0.849659 -0.311892
15  1.719448 -0.000015 0.000027  0.022831 0.018817 -0.385684
16  1.099675 0.000048 0.000007  -0.071661 0.046283 -1.373824
17  0.921523 -1.355448 1.250965  -1.042121 -0.471298 -0.246738
18  1.789819 -0.000004 -0.000019  0.000124 -0.000928 0.770007
19  1.207014 -0.000013 -0.000044  0.000107 -0.000006 -0.103766
20  5.740637 0.000411 -0.000704  -0.129526 0.000003 0.000067
21  11.481069 0.000261 -0.000812  -0.062967 -0.102312 0.007849
22  6.027524 -0.000330 0.000203  1.621890 -0.592510 1.529753
23  0.000001 11.692098 -0.000008  -0.928309 -0.385498 -0.743377
24  0.000002 0.000009 -0.000001  0.144362 -0.000031 1.570738
25  -0.000001 -0.000011 -0.000001  0.868957 0.000002 1.570712
26  -4.048488 -9.938416 0.826810  1.473120 1.855075 -0.198639
27  6.027509 -0.000259 -0.000228  1.440738 0.663985 -0.701186
28  11.691992 0.000241 0.000858  -0.008105 0.000071 -1.823196
29  11.479475 -0.001084 0.000816  -1.038643 0.326655 0.815998
30  3.859445 -0.132765 1.193036  0.469561 0.024446 -2.027518
31  1.312559 0.000025 -0.000006  0.012739 -0.118546 -0.457170
32  0.729345 0.000065 -0.000030  -0.160543 -0.094833 -0.794827
33  3.942049 0.050133 0.430971  0.239759 -0.046947 -1.686225
34  1.539096 0.000004 -0.000007  0.033634 -0.037983 -0.965277
35  1.196299 0.000077 -0.000009  -0.022665 -0.001268 -0.998653
36  3.883409 -0.050478 -0.431113  0.254832 -0.208796 -1.406922
37  1.719564 -0.000076 -0.000012  0.020717 -0.083409 -1.505713
38  1.209196 0.000035 0.000005  -0.007976 0.070582 -0.580400
39  3.859577 -0.149088 -1.331349  -0.086511 -0.085442 -0.327389
40  1.719412 -0.000097 -0.000045  -0.016671 0.024412 -1.388510
41  1.099674 0.000024 0.000001  -0.007296 -0.008999 -0.930362
42  0.805973 -0.359849 -1.318343  0.989321 0.173207 -0.818040
43  1.789779 -0.000006 -0.000039  0.000102 -0.007478 0.163490
44  1.206996 -0.000005 0.000007  0.000962 -0.000151 1.276281
45  5.740572 0.000097 0.000726  0.167655 -0.000014 0.000028
46  11.480839 -0.000116 0.000916  0.082242 0.078206 0.129569
47  6.027514 -0.000273 -0.000237  -0.860150 -0.621440 -1.677310
48  -0.000003 11.691974 -0.000005  -1.219330 0.663874 0.916890
49  0.000003 -0.000000 0.000001  2.264421 -0.000047 1.570851
50  -0.000006 -0.000015 0.000007  2.272644 -0.000031 1.570865
51  -3.458861 -3.507990 -5.874534  -0.119226 -2.992823 1.478557
52  0.000000 0.000000 0.000000  0.008153 -0.000259 0.000009
53  -0.000000 -0.000000 0.000000  1.565115 0.043565 -0.106862
54  -0.200962 -14.983153 -4.854827  -0.783005 -0.238909 -1.816088
55  -0.000000 -0.000000 -0.000000  0.000000 -0.000000 -0.000002
56  0.000029 0.000029 0.000001  -1.571901 -0.044449 -0.106509
57  6.132251 -14.556842 -16.933033  1.570796 -0.000000 0.000000
58  -16.642132 4.602435 -20.579788  1.570796 -0.000000 0.000000
59  2.236387 1.317426 -3.375998  1.570796 -0.000000 0.000000
60  -0.004311 0.001230 -0.000371  0.006898 -0.005534 -0.284229
61  0.826810 10.500209 -2.215392  1.570796 -0.000000 0.000000
62  0.000000 0.000000 0.000000  -0.078727 -3.136056 0.284226
63  0.000000 0.000000 0.000000  1.570796 -0.000000 -0.000000
64  -2.178068 -8.241234 -0.892741  1.571077 0.040955 0.006796
65  0.011267 -2.541757 0.246449  0.000000 -0.000000 0.000000
66  -0.040579 -0.596186 4.712708  0.000000 -0.000000 0.000000
67  -1.210912 -0.465220 1.116575  0.000000 -0.000000 0.000000
68  -0.001710 -1.449898 22.825077  0.000000 -0.000000 0.000000
69  0.014791 -3.432317 2.150502  0.000000 -0.000000 0.000000
70  0.002738 -1.463900 6.040023  0.051100 -0.000000 0.000000
71  -0.001712 -2.299004 1.703906  0.000000 -0.000000 0.000000
72  -3.588360 -1.097282 -23.660017  1.570796 -0.000000 0.000000
73  0.136241 2.066845 -1.396211  0.000000 -0.000000 0.000000
74  -2.403014 -12.948107 -4.984154  1.571077 0.040955 0.006796
75  0.087484 2.183199 -0.139910  0.000000 -0.000000 0.000000
76  0.239006 2.332643 -1.422237  0.000000 -0.000000 0.000000
77  -0.037275 2.055116 -1.384615  0.000000 -0.000000 0.000000
time 18
0  0.000006 0.000000 0.000000  -1.570800 -1.391899 -1.570792
1  -3.555402 -0.696245 2.232071  -1.544956 -1.855077 -0.198630
2  6.027524 -0.000324 0.000193  -0.777159 -0.976753 -1.521082
3  11.692110 0.000644 -0.000740  -0.724729 -0.000013 -1.329854
4  11.480307 0.000244 -0.000762  1.153271 -0.578039 0.220120
5  3.859507 -0.142877 -1.192049  -0.688486 -0.177859 -1.771238
6  1.312589 0.000014 0.000008  -0.134456 0.002702 -0.177087
7  0.729356 0.000053 0.000049  -0.006756 -0.009780 -0.219796
8  3.942142 0.046275 -0.431511  -0.617547 0.335607 -1.216410
9  1.539111 0.000085 0.000006  -0.008759 -0.079696 -0.902807
10  1.196332 0.000148 0.000028  0.008519 0.004256 -0.542288
11  3.883503 -0.047267 0.431382  -0.368041 0.662129 -0.667220
12  1.719573 -0.000026 0.000015  0.009232 -0.073687 -0.989770
13  1.209180 0.000090 0.000011  -0.009578 -0.006550 -0.915981
14  4.085222 -0.082712 1.151042  -0.261587 0.849659 -0.311893
15  1.719448 -0.000016 0.000025  0.022831 0.018817 -0.385684
16  1.099675 0.000051 0.000005  -0.071661 0.046283 -1.373825
17  0.921522 -1.355448 1.250966  -1.042121 -0.471298 -0.246738
18  1.789819 -0.000004 -0.000019  0.000124 -0.000928 0.770007
19  1.207015 -0.000013 -0.000043  0.000107 -0.000006 -0.103766
20  5.740637 0.000411 -0.000703  -0.129464 0.000003 0.000067
21  11.481071 0.000262 -0.000810  -0.063073 -0.102160 0.007733
22  6.027524 -0.000330 0.000203  1.621583 -0.592214 1.529694
23  0.000002 11.692098 -0.000006  -0.927558 -0.384859 -0.742860
24  0.000001 0.000008 -0.000001  0.144362 -0.000031 1.570738
25  -0.000000 -0.000011 0.000001  0.868957 0.000002 1.570712
26  -4.048488 -9.938416 0.826810  1.473120 1.855075 -0.198639
27  6.027509 -0.000259 -0.000228  1.440773 0.664400 -0.701227
28  11.691991 0.000241 0.000858  -0.008105 0.000071 -1.822329
29  11.479482 -0.001080 0.000816  -1.039059 0.326750 0.815646
30  3.859445 -0.132765 1.193036  0.469561 0.024446 -2.027518
31  1.312559 0.000025 -0.000006  0.012739 -0.118546 -0.457170
32  0.729345 0.000066 -0.000030  -0.160543 -0.094833 -0.794827
33  3.942049 0.050132 0.430970  0.239759 -0.046947 -1.686225
34  1.539096 0.000004 -0.000008  0.033634 -0.037983 -0.965277
35  1.196300 0.000076 -0.000010  -0.022665 -0.001268 -0.998653
36  3.883409 -0.050479 -0.431114  0.254832 -0.208796 -1.406922
37  1.719564 -0.000075 -0.000012  0.020717 -0.083409 -1.505713
38  1.209197 0.000035 0.000006  -0.007976 0.070582 -0.580400
39  3.859577 -0.149088 -1.331350  -0.086511 -0.085442 -0.327389
40  1.719411 -0.000097 -0.000045  -0.016671 0.024412 -1.388510
41  1.099673 0.000025 0.000001  -0.007296 -0.008999 -0.930362
42  0.805973 -0.359849 -1.318344  0.989321 0.173207 -0.818040
43  1.789779 -0.000006 -0.000039  0.000102 -0.007478 0.163490
44  1.206997 -0.000004 0.000007  0.000962 -0.000151 1.276280
45  5.740572 0.000096 0.000725  0.167490 -0.000014 0.000028
46  11.480840 -0.000116 0.000917  0.082167 0.078182 0.129515
47  6.027514 -0.000273 -0.000237  -0.860553 -0.621185 -1.677138
48  -0.000002 11.691975 -0.000007  -1.218819 0.663348 0.916646
49  0.000004 -0.000001 0.000001  2.264421 -0.000047 1.570851
50  -0.000007 -0.000014 0.000006  2.272644 -0.000030 1.570865
51  -3.458755 -3.515954 -5.875190  -0.119636 -2.992809 1.478372
52  0.000000 -0.000000 -0.000001  0.008153 -0.000259 0.000009
53  0.000000 -0.000000 -0.000000  1.565115 0.043565 -0.106862
54  -0.203266 -14.991943 -4.857072  -0.783415 -0.238985 -1.816237
55  -0.000001 -0.000001 0.000001  0.000000 -0.000000 -0.000002
56  0.000030 0.000028 0.000002  -1.571901 -0.044449 -0.106509
57  6.132251 -14.556842 -16.933033  1.570796 -0.000000 0.000000
58  -16.642132 4.602435 -20.579788  1.570796 -0.000000 0.000000
59  2.236387 1.317426 -3.375998  1.570796 -0.000000 0.000000
60  -0.004311 0.001230 -0.000371  0.006898 -0.005534 -0.284229
61  0.826810 10.500209 -2.215392  1.570796 -0.000000 0.000000
62  0.000000 0.000000 0.000000  -0.078727 -3.136056 0.284226
63  0.000000 0.000000 0.000000  1.570796 -0.000000 -0.000000
64  -2.177108 -8.249631 -0.894027  1.571103 0.041360 0.006551
65  0.011267 -2.541756 0.246449  0.000000 -0.000000 -0.000000
66  -0.040579 -0.596186 4.712709  0.000000 -0.000000 -0.000000
67  -1.210912 -0.465220 1.116576  0.000000 -0.000000 -0.000000
68  -0.001710 -1.449898 22.825073  0.000000 -0.000000 -0.000000
69  0.014791 -3.432316 2.150502  0.000000 -0.000000 -0.000000
70  0.002739 -1.463900 6.040022  0.051100 0.000000 0.000000
71  -0.001712 -2.299004 1.703905  0.000000 -0.000000 -0.000000
72  -3.588360 -1.097282 -23.660017  1.570796 -0.000000 0.000000
73  0.136241 2.066845 -1.396211  0.000000 -0.000000 0.000000
74  -2.404870 -12.956352 -4.985460  1.571103 0.041360 0.006551
75  0.087484 2.183199 -0.139911  0.000000 -0.000000 -0.000000
76  0.239006 2.332643 -1.422238  0.000000 -0.000000 -0.000000
77  -0.037276 2.055116 -1.384615  0.000000 -0.000000 -0.000000
end
