version 1
nodes
0 "ValveBiped.Bip01_Spine4" -1
1 "ValveBiped.Bip01_L_Clavicle" 0
2 "ValveBiped.Bip01_L_UpperArm" 1
3 "ValveBiped.Bip01_L_Forearm" 2
4 "ValveBiped.Bip01_L_Hand" 3
5 "ValveBiped.Bip01_L_Finger4" 4
6 "ValveBiped.Bip01_L_Finger41" 5
7 "ValveBiped.Bip01_L_Finger42" 6
8 "ValveBiped.Bip01_L_Finger3" 4
9 "ValveBiped.Bip01_L_Finger31" 8
10 "ValveBiped.Bip01_L_Finger32" 9
11 "ValveBiped.Bip01_L_Finger2" 4
12 "ValveBiped.Bip01_L_Finger21" 11
13 "ValveBiped.Bip01_L_Finger22" 12
14 "ValveBiped.Bip01_L_Finger1" 4
15 "ValveBiped.Bip01_L_Finger11" 14
16 "ValveBiped.Bip01_L_Finger12" 15
17 "ValveBiped.Bip01_L_Finger0" 4
18 "ValveBiped.Bip01_L_Finger01" 17
19 "ValveBiped.Bip01_L_Finger02" 18
20 "ValveBiped.Bip01_L_Ulna" 3
21 "ValveBiped.Bip01_L_Wrist" 3
22 "rig_l_upperarm" 1
23 "rig_l_forearm" 22
24 "rig_d_l_forearm" 23
25 "rig_d_l_upperarm" 22
26 "ValveBiped.Bip01_R_Clavicle" 0
27 "ValveBiped.Bip01_R_UpperArm" 26
28 "ValveBiped.Bip01_R_Forearm" 27
29 "ValveBiped.Bip01_R_Hand" 28
30 "ValveBiped.Bip01_R_Finger4" 29
31 "ValveBiped.Bip01_R_Finger41" 30
32 "ValveBiped.Bip01_R_Finger42" 31
33 "ValveBiped.Bip01_R_Finger3" 29
34 "ValveBiped.Bip01_R_Finger31" 33
35 "ValveBiped.Bip01_R_Finger32" 34
36 "ValveBiped.Bip01_R_Finger2" 29
37 "ValveBiped.Bip01_R_Finger21" 36
38 "ValveBiped.Bip01_R_Finger22" 37
39 "ValveBiped.Bip01_R_Finger1" 29
40 "ValveBiped.Bip01_R_Finger11" 39
41 "ValveBiped.Bip01_R_Finger12" 40
42 "ValveBiped.Bip01_R_Finger0" 29
43 "ValveBiped.Bip01_R_Finger01" 42
44 "ValveBiped.Bip01_R_Finger02" 43
45 "ValveBiped.Bip01_R_Ulna" 28
46 "ValveBiped.Bip01_R_Wrist" 28
47 "rig_r_upperarm" 26
48 "rig_r_forearm" 47
49 "rig_d_r_forearm" 48
50 "rig_d_r_upperarm" 47
51 "rig_r_hand" -1
52 "rig_d_r_hand" 51
53 "rig_d_r_wrist" 52
54 "rig_l_hand" -1
55 "rig_d_l_hand" 54
56 "rig_d_l_wrist" 54
57 "rig_l_pole" -1
58 "rig_r_pole" -1
59 "rig_l_clavicle" -1
60 "rig_d_l_clavicle" 59
61 "rig_r_clavicle" -1
62 "rig_d_r_clavicle" 61
63 "Camera" -1
64 "body" -1
65 "trigger" 64
66 "bolt" 64
67 "barrel" 64
68 "magrel" 64
69 "chandle" 64
70 "dustcover" 64
71 "mag" -1
72 "bullet1" 71
73 "bullet2" 71
74 "bullet3" 71
end
skeleton
time 0
0  0.000006 0.000000 0.000000  -1.570800 -1.391899 -1.570792
1  -3.404175 4.262080 -0.674799  -1.544956 -1.855077 -0.198630
2  6.027523 -0.000323 0.000193  -1.003221 -0.901571 -1.313606
3  11.692109 0.000645 -0.000741  -0.970821 -0.000022 -1.499856
4  11.480466 0.000447 -0.000642  1.167202 -0.487787 0.272203
5  3.859509 -0.142880 -1.192049  -0.849067 -0.063765 -2.041914
6  1.312588 0.000011 0.000009  -0.137741 0.005688 -0.246758
7  0.729357 0.000054 0.000049  -0.007464 0.004648 -0.009220
8  3.942144 0.046273 -0.431511  -0.589883 0.233104 -1.492311
9  1.539112 0.000083 0.000006  -0.031655 0.014031 -0.854546
10  1.196334 0.000146 0.000030  -0.000113 0.007059 -0.341503
11  3.883505 -0.047269 0.431382  -0.284771 0.562134 -0.820192
12  1.719573 -0.000026 0.000015  0.059336 -0.060421 -1.540896
13  1.209177 0.000091 0.000013  -0.010720 0.004384 0.006587
14  4.085223 -0.082714 1.151041  0.083923 0.590486 -0.023839
15  1.719449 -0.000012 0.000023  -0.288320 0.336817 -1.327174
16  1.099674 0.000050 0.000007  -0.137716 0.053706 -1.193431
17  0.686695 -1.660587 0.827512  -0.953739 -0.665499 -0.313613
18  1.789819 -0.000003 -0.000018  -0.000896 -0.016309 0.856238
19  1.207013 -0.000012 -0.000044  0.001778 -0.000085 -0.076269
20  5.740636 0.000410 -0.000702  -0.111918 0.000003 0.000071
21  11.481103 0.000302 -0.000785  -0.062039 -0.085727 0.022106
22  6.027524 -0.000329 0.000202  1.801434 -0.634137 1.450616
23  0.000001 11.692100 -0.000007  -1.029384 -0.475883 -0.810210
24  0.000004 0.000009 0.000001  -0.101721 -0.000031 1.570739
25  -0.000000 -0.000011 -0.000000  0.868957 0.000002 1.570712
26  -4.011518 -5.954122 0.376267  1.473120 1.855075 -0.198639
27  6.027503 -0.000261 -0.000229  1.358851 0.590494 -0.295658
28  11.691991 0.000242 0.000856  0.667115 0.000076 -1.895955
29  11.478842 -0.000546 0.001479  -1.203874 0.841268 0.482822
30  3.452862 -0.227595 1.051753  0.880140 -0.000999 -2.098478
31  1.312558 0.000026 0.000001  -0.027276 -0.015749 -0.190753
32  0.729346 0.000065 -0.000027  0.002011 -0.007393 -1.061347
33  3.942047 0.050109 0.430996  0.528640 -0.087932 -1.844853
34  1.539096 0.000009 -0.000000  -0.011852 -0.046253 -0.633392
35  1.196299 0.000075 -0.000004  0.004231 -0.001992 -1.112650
36  3.883412 -0.050502 -0.431087  0.261984 -0.286055 -1.304978
37  1.719564 -0.000077 -0.000004  -0.029126 0.008047 -1.539001
38  1.209197 0.000036 0.000011  -0.000577 -0.002931 -0.376459
39  3.806436 -0.112148 -1.295330  -0.099627 -0.348091 -0.023200
40  1.719411 -0.000099 -0.000033  -0.038121 0.081026 -1.278846
41  1.099673 0.000023 0.000006  -0.012207 -0.002701 -0.829704
42  0.444470 -0.201854 -1.632533  1.078570 0.042834 -0.797255
43  1.789780 -0.000010 -0.000042  0.022641 0.004339 -0.048056
44  1.206996 -0.000006 0.000005  0.105921 0.121025 1.080897
45  5.740573 0.000054 0.000724  0.063693 -0.000014 0.000021
46  11.480714 -0.000074 0.001046  0.029654 0.156871 0.050336
47  6.027514 -0.000272 -0.000236  -0.831822 -0.717869 -1.241277
48  -0.000001 11.691974 -0.000007  -1.262441 0.708305 0.936552
49  0.000004 0.000000 0.000000  2.939640 -0.000041 1.570856
50  -0.000007 -0.000015 0.000005  2.272644 -0.000030 1.570865
51  -4.417479 -6.530182 -7.877772  -0.094065 -2.987638 1.539605
52  0.000000 -0.000000 -0.000000  0.008153 -0.000259 0.000009
53  0.000000 0.000000 -0.000000  1.565115 0.043565 -0.106862
54  -1.163319 -19.374338 -5.898180  -0.922571 -0.213216 -1.969431
55  -0.000001 0.000001 0.000001  0.000000 -0.000000 -0.000002
56  0.000029 0.000030 0.000001  -1.571901 -0.044449 -0.106509
57  5.091632 -16.138317 -16.427357  1.570796 -0.000000 0.000000
58  -21.599098 7.001666 -12.508070  1.570796 -0.000000 0.000000
59  -0.670483 -3.588677 -4.109488  1.570796 -0.000000 0.000000
60  -0.004311 0.001230 -0.000371  0.006898 -0.005534 -0.284229
61  0.376268 6.572924 -2.887995  1.570796 -0.000000 0.000000
62  0.000000 0.000000 0.000000  -0.078727 -3.136056 0.284226
63  -3.127763 -3.808835 -0.720220  1.570796 -0.000000 0.000000
64  -3.054910 -13.656169 -1.862019  1.570796 -0.000000 0.000000
65  -0.072955 -3.820800 -1.749356  0.436332 0.000000 -0.000000
66  -0.668922 -1.211075 2.995950  -0.000000 0.000000 -0.000000
67  -0.072953 -1.658653 21.597469  0.000000 -0.000000 0.000000
68  0.539125 -3.409476 1.525823  0.000000 -0.000000 0.000000
69  0.977269 -0.616456 2.421330  0.000000 -0.000000 0.000000
70  -0.768075 -0.714321 2.967141  0.000000 -0.000000 0.000000
71  -3.127865 -16.726994 -4.989100  1.570796 -0.000000 0.000000
72  0.099490 0.870662 -0.144583  0.000000 -0.000000 0.000000
73  -0.152365 0.482500 -0.144585  0.000000 -0.000000 0.000000
74  0.098315 0.086895 -0.144583  0.000000 -0.000000 0.000000
time 1
0  0.000006 0.000000 0.000000  -1.570800 -1.391899 -1.570792
1  -3.404175 4.262080 -0.674799  -1.544956 -1.855077 -0.198630
2  6.027522 -0.000322 0.000193  -0.993978 -0.861820 -1.274369
3  11.692109 0.000644 -0.000740  -0.970825 -0.000030 -1.618193
4  11.479551 0.000136 -0.001098  1.127627 -0.562797 0.277059
5  3.859508 -0.142879 -1.192050  -0.849067 -0.063765 -2.041914
6  1.312592 0.000011 0.000007  -0.137741 0.005688 -0.246758
7  0.729358 0.000054 0.000049  -0.007464 0.004648 -0.009220
8  3.942142 0.046274 -0.431512  -0.589883 0.233104 -1.492311
9  1.539111 0.000085 0.000005  -0.031655 0.014031 -0.854546
10  1.196333 0.000146 0.000029  -0.000113 0.007059 -0.341503
11  3.883504 -0.047269 0.431381  -0.284771 0.562134 -0.820192
12  1.719573 -0.000025 0.000017  0.059336 -0.060421 -1.540896
13  1.209178 0.000091 0.000012  -0.010720 0.004384 0.006587
14  4.085223 -0.082714 1.151040  0.083923 0.590486 -0.023839
15  1.719450 -0.000011 0.000023  -0.288320 0.336817 -1.327174
16  1.099676 0.000048 0.000005  -0.137716 0.053706 -1.193431
17  0.686693 -1.660585 0.827510  -0.957661 -0.658681 -0.307226
18  1.789820 -0.000002 -0.000017  -0.000620 -0.016070 0.837611
19  1.207017 -0.000012 -0.000043  0.001753 -0.000076 -0.081092
20  5.740636 0.000410 -0.000703  -0.135945 0.000003 0.000071
21  11.480919 0.000240 -0.000876  -0.066137 -0.101370 0.017809
22  6.027524 -0.000329 0.000202  1.812999 -0.673257 1.489954
23  0.000004 11.692099 -0.000007  -1.099103 -0.542672 -0.852639
24  0.000003 0.000009 0.000000  -0.101721 -0.000030 1.570739
25  0.000000 -0.000011 0.000000  0.868957 0.000002 1.570712
26  -4.011518 -5.954122 0.376267  1.473120 1.855075 -0.198639
27  6.027503 -0.000261 -0.000230  1.348942 0.524982 -0.289284
28  11.691993 0.000243 0.000856  0.667114 0.000085 -2.006002
29  11.480521 0.000285 0.000825  -1.227600 0.877557 0.510397
30  3.452861 -0.227594 1.051752  0.880140 -0.000999 -2.098478
31  1.312559 0.000026 -0.000000  -0.027276 -0.015749 -0.190753
32  0.729346 0.000065 -0.000028  0.002011 -0.007393 -1.061347
33  3.942045 0.050109 0.430996  0.528640 -0.087932 -1.844853
34  1.539096 0.000008 0.000000  -0.011852 -0.046253 -0.633391
35  1.196299 0.000075 -0.000004  0.004231 -0.001992 -1.112650
36  3.883411 -0.050502 -0.431088  0.261984 -0.286055 -1.304978
37  1.719563 -0.000078 -0.000003  -0.029126 0.008047 -1.539001
38  1.209198 0.000036 0.000011  -0.000577 -0.002931 -0.376459
39  3.806436 -0.112148 -1.295330  -0.099627 -0.348091 -0.023200
40  1.719412 -0.000099 -0.000034  -0.038121 0.081026 -1.278846
41  1.099673 0.000025 0.000006  -0.012207 -0.002701 -0.829704
42  0.444468 -0.201854 -1.632532  1.078570 0.042834 -0.797255
43  1.789779 -0.000009 -0.000043  0.022641 0.004339 -0.048056
44  1.206995 -0.000007 0.000006  0.105921 0.121025 1.080897
45  5.740573 0.000055 0.000724  0.058816 -0.000014 0.000021
46  11.481050 0.000093 0.000914  0.021469 0.163305 0.055711
47  6.027514 -0.000272 -0.000236  -0.765356 -0.762084 -1.274491
48  -0.000003 11.691975 -0.000007  -1.328800 0.776663 0.962740
49  0.000005 -0.000002 0.000000  2.939640 -0.000041 1.570856
50  -0.000008 -0.000016 0.000005  2.272644 -0.000030 1.570865
51  -4.539966 -5.453083 -7.855295  -0.119972 -2.983217 1.542512
52  -0.000001 -0.000000 -0.000000  0.008153 -0.000259 0.000009
53  -0.000000 0.000000 -0.000001  1.565115 0.043565 -0.106862
54  -1.249791 -18.293734 -5.912855  -0.945424 -0.226526 -1.965569
55  -0.000001 0.000001 -0.000000  0.000000 -0.000000 -0.000002
56  0.000028 0.000030 0.000001  -1.571901 -0.044449 -0.106509
57  5.091632 -16.138317 -16.427357  1.570796 -0.000000 0.000000
58  -21.599098 7.001666 -12.508070  1.570796 -0.000000 0.000000
59  -0.670483 -3.588677 -4.109488  1.570796 -0.000000 0.000000
60  -0.004311 0.001230 -0.000371  0.006898 -0.005534 -0.284229
61  0.376268 6.572924 -2.887995  1.570796 -0.000000 0.000000
62  0.000000 0.000000 0.000000  -0.078727 -3.136056 0.284226
63  -3.127763 -3.808835 -0.720220  1.570796 -0.008127 0.000000
64  -3.030832 -12.558690 -1.850429  1.567122 0.025711 -0.001169
65  -0.072955 -3.820800 -1.749357  0.436332 0.000000 0.000000
66  -0.668922 -1.211075 2.995950  -0.000000 -0.000000 0.000000
67  -0.072953 -1.658653 21.597471  -0.000000 -0.000000 0.000000
68  0.539125 -3.409476 1.525823  -0.000000 -0.000000 0.000000
69  0.975743 -0.575874 -3.159595  -0.000000 -0.000000 0.057632
70  -0.768075 -0.714321 2.967140  -0.000000 0.000000 0.176852
71  -3.187467 -15.640800 -4.963301  1.567122 0.025711 -0.001169
72  0.099490 0.870662 -0.144582  -0.000000 -0.000000 0.000000
73  -0.152365 0.482500 -0.144583  -0.000000 -0.000000 0.000000
74  0.098315 0.086895 -0.144582  -0.000000 -0.000000 0.000000
time 2
0  0.000006 0.000000 0.000000  -1.570800 -1.391899 -1.570792
1  -3.404175 4.262080 -0.674799  -1.544956 -1.855077 -0.198630
2  6.027522 -0.000322 0.000193  -0.994269 -0.864519 -1.277108
3  11.692107 0.000645 -0.000739  -0.970825 -0.000029 -1.611927
4  11.479600 0.000150 -0.001078  1.130302 -0.558856 0.281030
5  3.859508 -0.142878 -1.192049  -0.849067 -0.063765 -2.041914
6  1.312584 0.000011 0.000009  -0.137741 0.005688 -0.246758
7  0.729356 0.000054 0.000050  -0.007464 0.004648 -0.009220
8  3.942142 0.046275 -0.431511  -0.589883 0.233104 -1.492311
9  1.539109 0.000084 0.000005  -0.031655 0.014031 -0.854546
10  1.196334 0.000145 0.000031  -0.000113 0.007059 -0.341503
11  3.883503 -0.047267 0.431382  -0.284771 0.562134 -0.820192
12  1.719573 -0.000026 0.000015  0.059336 -0.060421 -1.540896
13  1.209181 0.000091 0.000013  -0.010720 0.004384 0.006587
14  4.085221 -0.082715 1.151041  0.083923 0.590486 -0.023839
15  1.719448 -0.000012 0.000020  -0.288320 0.336817 -1.327174
16  1.099674 0.000051 0.000006  -0.137716 0.053706 -1.193431
17  0.686692 -1.660586 0.827511  -0.967568 -0.640751 -0.290832
18  1.789821 -0.000005 -0.000018  0.000082 -0.015420 0.788857
19  1.207013 -0.000012 -0.000043  0.001686 -0.000055 -0.093707
20  5.740637 0.000410 -0.000703  -0.134163 0.000003 0.000070
21  11.480929 0.000243 -0.000872  -0.065651 -0.100660 0.018900
22  6.027524 -0.000329 0.000202  1.811953 -0.670679 1.487645
23  0.000002 11.692100 -0.000006  -1.095425 -0.539072 -0.850487
24  0.000003 0.000010 -0.000001  -0.101722 -0.000030 1.570738
25  -0.000000 -0.000011 -0.000000  0.868957 0.000002 1.570712
26  -4.011518 -5.954122 0.376267  1.473120 1.855075 -0.198639
27  6.027503 -0.000261 -0.000230  1.349685 0.529776 -0.289796
28  11.691992 0.000242 0.000855  0.667114 0.000084 -2.001090
29  11.480529 0.000287 0.000822  -1.219431 0.877579 0.514620
30  3.452862 -0.227595 1.051754  0.880140 -0.000999 -2.098478
31  1.312558 0.000026 0.000000  -0.027276 -0.015749 -0.190753
32  0.729344 0.000065 -0.000027  0.002011 -0.007393 -1.061347
33  3.942046 0.050110 0.430997  0.528640 -0.087932 -1.844853
34  1.539097 0.000009 0.000000  -0.011852 -0.046253 -0.633392
35  1.196300 0.000076 -0.000004  0.004231 -0.001993 -1.112650
36  3.883412 -0.050502 -0.431087  0.261984 -0.286055 -1.304978
37  1.719564 -0.000079 -0.000004  -0.029126 0.008047 -1.539001
38  1.209196 0.000036 0.000011  -0.000577 -0.002931 -0.376459
39  3.806437 -0.112148 -1.295329  -0.099627 -0.348091 -0.023200
40  1.719410 -0.000099 -0.000034  -0.038121 0.081026 -1.278846
41  1.099673 0.000024 0.000007  -0.012207 -0.002701 -0.829704
42  0.444469 -0.201853 -1.632532  1.078570 0.042834 -0.797255
43  1.789779 -0.000009 -0.000042  0.022641 0.004339 -0.048056
44  1.206997 -0.000005 0.000006  0.105921 0.121025 1.080897
45  5.740572 0.000053 0.000723  0.060103 -0.000014 0.000021
46  11.481050 0.000092 0.000913  0.022579 0.163641 0.055780
47  6.027514 -0.000272 -0.000236  -0.770374 -0.758894 -1.271918
48  -0.000003 11.691974 -0.000006  -1.325797 0.773585 0.961669
49  0.000003 -0.000002 -0.000001  2.939640 -0.000041 1.570856
50  -0.000008 -0.000015 0.000005  2.272644 -0.000030 1.570865
51  -4.515988 -5.504693 -7.842227  -0.114898 -2.984630 1.540656
52  -0.000000 -0.000000 -0.000000  0.008153 -0.000259 0.000009
53  0.000000 0.000000 -0.000000  1.565115 0.043565 -0.106862
54  -1.249235 -18.351278 -5.899495  -0.941144 -0.223410 -1.967583
55  0.000001 -0.000001 0.000000  0.000000 -0.000000 -0.000002
56  0.000030 0.000028 0.000001  -1.571901 -0.044449 -0.106509
57  5.091632 -16.138317 -16.427357  1.570796 -0.000000 0.000000
58  -21.599098 7.001666 -12.508070  1.570796 -0.000000 0.000000
59  -0.670483 -3.588677 -4.109488  1.570796 -0.000000 0.000000
60  -0.004311 0.001230 -0.000371  0.006898 -0.005534 -0.284229
61  0.376268 6.572924 -2.887995  1.570796 -0.000000 0.000000
62  0.000000 0.000000 0.000000  -0.078727 -3.136056 0.284226
63  -3.127763 -3.808835 -0.720220  1.570796 0.003019 0.000000
64  -3.044714 -12.619483 -1.838839  1.568398 0.020662 -0.002199
65  -0.072955 -3.820800 -1.749357  0.436332 0.000000 -0.000000
66  -0.668922 -1.211075 1.264714  -0.000000 0.000000 -0.000000
67  -0.072954 -1.658653 21.597469  -0.000000 0.000000 -0.000000
68  0.539125 -3.409477 1.525823  -0.000000 0.000000 -0.000000
69  0.976000 -0.605905 -0.369132  -0.000000 -0.000000 0.009204
70  -0.768075 -0.714321 2.967139  -0.000000 0.000000 0.088426
71  -3.188879 -15.697489 -4.956371  1.568398 0.020662 -0.002199
72  0.099491 0.870662 -0.144584  -0.000000 0.000000 -0.000000
73  -0.152365 0.482500 -0.144585  -0.000000 0.000000 -0.000000
74  0.098316 0.086895 -0.144584  -0.000000 0.000000 -0.000000
time 3
0  0.000006 0.000000 0.000000  -1.570800 -1.391899 -1.570792
1  -3.404175 4.262080 -0.674799  -1.544956 -1.855077 -0.198630
2  6.027522 -0.000322 0.000193  -0.997534 -0.869039 -1.281679
3  11.692108 0.000644 -0.000739  -0.970825 -0.000028 -1.597269
4  11.479707 0.000187 -0.001026  1.139543 -0.550316 0.286563
5  3.859509 -0.142881 -1.192049  -0.849067 -0.063765 -2.041914
6  1.312588 0.000012 0.000007  -0.137741 0.005688 -0.246758
7  0.729358 0.000054 0.000049  -0.007464 0.004648 -0.009220
8  3.942143 0.046272 -0.431512  -0.589883 0.233104 -1.492311
9  1.539110 0.000085 0.000005  -0.031655 0.014031 -0.854546
10  1.196331 0.000144 0.000031  -0.000113 0.007059 -0.341503
11  3.883506 -0.047270 0.431382  -0.284771 0.562134 -0.820192
12  1.719573 -0.000026 0.000014  0.059336 -0.060421 -1.540896
13  1.209180 0.000091 0.000013  -0.010720 0.004384 0.006587
14  4.085226 -0.082715 1.151041  0.083923 0.590486 -0.023839
15  1.719448 -0.000011 0.000023  -0.288320 0.336817 -1.327174
16  1.099678 0.000048 0.000006  -0.137716 0.053706 -1.193431
17  0.686693 -1.660588 0.827510  -0.976983 -0.622697 -0.274871
18  1.789820 -0.000004 -0.000018  0.000752 -0.014737 0.740104
19  1.207014 -0.000012 -0.000044  0.001619 -0.000034 -0.106322
20  5.740638 0.000412 -0.000702  -0.129544 0.000003 0.000070
21  11.480950 0.000251 -0.000862  -0.064082 -0.098943 0.020866
22  6.027524 -0.000329 0.000202  1.812330 -0.665697 1.480352
23  0.000002 11.692101 -0.000007  -1.086818 -0.530677 -0.845411
24  0.000004 0.000008 -0.000001  -0.101721 -0.000031 1.570739
25  -0.000000 -0.000011 -0.000000  0.868957 0.000002 1.570712
26  -4.011518 -5.954122 0.376267  1.473120 1.855075 -0.198639
27  6.027503 -0.000261 -0.000230  1.350654 0.539584 -0.291117
28  11.691991 0.000242 0.000856  0.667114 0.000083 -1.986523
29  11.480555 0.000295 0.000817  -1.205957 0.872596 0.514999
30  3.452862 -0.227595 1.051754  0.880140 -0.000999 -2.098478
31  1.312558 0.000025 -0.000000  -0.027276 -0.015749 -0.190753
32  0.729345 0.000066 -0.000027  0.002011 -0.007393 -1.061347
33  3.942046 0.050109 0.430996  0.528640 -0.087932 -1.844853
34  1.539097 0.000009 -0.000000  -0.011852 -0.046253 -0.633392
35  1.196301 0.000076 -0.000003  0.004231 -0.001993 -1.112650
36  3.883411 -0.050501 -0.431087  0.261984 -0.286055 -1.304978
37  1.719563 -0.000079 -0.000004  -0.029126 0.008047 -1.539001
38  1.209197 0.000036 0.000011  -0.000577 -0.002931 -0.376459
39  3.806436 -0.112148 -1.295330  -0.099627 -0.348091 -0.023200
40  1.719412 -0.000099 -0.000035  -0.038121 0.081026 -1.278846
41  1.099673 0.000025 0.000006  -0.012207 -0.002701 -0.829704
42  0.444468 -0.201854 -1.632532  1.078570 0.042834 -0.797255
43  1.789779 -0.000009 -0.000042  0.022641 0.004339 -0.048056
44  1.206997 -0.000006 0.000006  0.105921 0.121025 1.080897
45  5.740572 0.000053 0.000723  0.062435 -0.000014 0.000021
46  11.481055 0.000093 0.000913  0.025181 0.163169 0.054930
47  6.027514 -0.000272 -0.000236  -0.780918 -0.752728 -1.266502
48  -0.000003 11.691974 -0.000005  -1.316919 0.764472 0.958439
49  0.000004 -0.000001 0.000000  2.939640 -0.000041 1.570856
50  -0.000007 -0.000016 0.000005  2.272644 -0.000030 1.570865
51  -4.485001 -5.649376 -7.842851  -0.103729 -2.987317 1.540319
52  -0.000000 -0.000000 -0.000001  0.008153 -0.000259 0.000009
53  -0.000000 0.000000 -0.000001  1.565115 0.043565 -0.106862
54  -1.221952 -18.495983 -5.894044  -0.931576 -0.216945 -1.968279
55  0.000001 -0.000001 0.000000  0.000000 -0.000000 -0.000002
56  0.000030 0.000028 0.000001  -1.571901 -0.044449 -0.106509
57  5.091632 -16.138317 -16.427357  1.570796 -0.000000 0.000000
58  -21.599098 7.001666 -12.508070  1.570796 -0.000000 0.000000
59  -0.670483 -3.588677 -4.109488  1.570796 -0.000000 0.000000
60  -0.004311 0.001230 -0.000371  0.006898 -0.005534 -0.284229
61  0.376268 6.572924 -2.887995  1.570796 -0.000000 0.000000
62  0.000000 0.000000 0.000000  -0.078727 -3.136056 0.284226
63  -3.127763 -3.808835 -0.720220  1.570796 0.000707 0.000000
64  -3.070494 -12.776266 -1.840171  1.570765 0.009555 -0.000769
65  -0.072955 -3.820800 -1.749353  0.436332 0.000000 -0.000000
66  -0.668922 -1.211075 -0.466519  0.000000 0.000000 0.000000
67  -0.072953 -1.658653 21.597477  0.000000 0.000000 0.000000
68  0.539125 -3.409476 1.525824  0.000000 0.000000 0.000000
69  0.976505 -0.635936 2.421334  0.000000 0.000000 -0.039224
70  -0.768074 -0.714321 2.967142  -0.000000 0.000000 0.000000
71  -3.175686 -15.847107 -4.966316  1.570765 0.009555 -0.000769
72  0.099490 0.870662 -0.144581  0.000000 0.000000 0.000000
73  -0.152365 0.482500 -0.144582  0.000000 0.000000 0.000000
74  0.098315 0.086895 -0.144581  0.000000 0.000000 0.000000
time 4
0  0.000006 0.000000 0.000000  -1.570800 -1.391899 -1.570792
1  -3.404175 4.262080 -0.674799  -1.544956 -1.855077 -0.198630
2  6.027522 -0.000322 0.000193  -1.002647 -0.875486 -1.288064
3  11.692108 0.000644 -0.000740  -0.970824 -0.000027 -1.576636
4  11.479858 0.000234 -0.000954  1.152056 -0.537580 0.290149
5  3.859509 -0.142881 -1.192049  -0.849067 -0.063765 -2.041914
6  1.312588 0.000012 0.000007  -0.137741 0.005688 -0.246758
7  0.729355 0.000054 0.000050  -0.007464 0.004648 -0.009220
8  3.942142 0.046272 -0.431512  -0.589883 0.233104 -1.492311
9  1.539111 0.000083 0.000005  -0.031655 0.014031 -0.854546
10  1.196333 0.000145 0.000029  -0.000113 0.007059 -0.341503
11  3.883504 -0.047270 0.431381  -0.284771 0.562134 -0.820192
12  1.719573 -0.000027 0.000014  0.059336 -0.060421 -1.540896
13  1.209179 0.000093 0.000013  -0.010720 0.004384 0.006587
14  4.085220 -0.082716 1.151040  0.083923 0.590486 -0.023839
15  1.719448 -0.000012 0.000023  -0.288320 0.336817 -1.327174
16  1.099677 0.000046 0.000006  -0.137716 0.053706 -1.193431
17  0.686692 -1.660587 0.827511  -0.980456 -0.615764 -0.268880
18  1.789820 -0.000004 -0.000018  0.000999 -0.014468 0.721478
19  1.207018 -0.000012 -0.000043  0.001593 -0.000026 -0.111145
20  5.740636 0.000409 -0.000703  -0.123582 0.000003 0.000071
21  11.480980 0.000259 -0.000849  -0.062161 -0.096268 0.022803
22  6.027524 -0.000329 0.000202  1.813153 -0.658489 1.469545
23  0.000001 11.692100 -0.000007  -1.074689 -0.518925 -0.838167
24  0.000002 0.000008 -0.000000  -0.101721 -0.000031 1.570739
25  -0.000000 -0.000012 -0.000001  0.868957 0.000002 1.570712
26  -4.011518 -5.954122 0.376267  1.473120 1.855075 -0.198639
27  6.027503 -0.000261 -0.000230  1.351763 0.553056 -0.293011
28  11.691994 0.000244 0.000855  0.667114 0.000081 -1.964798
29  11.478238 -0.000761 0.001650  -1.195261 0.864727 0.509612
30  3.452861 -0.227595 1.051755  0.880140 -0.000999 -2.098478
31  1.312558 0.000026 0.000000  -0.027276 -0.015749 -0.190753
32  0.729345 0.000066 -0.000027  0.002011 -0.007393 -1.061347
33  3.942046 0.050108 0.430998  0.528640 -0.087932 -1.844853
34  1.539097 0.000010 -0.000001  -0.011852 -0.046253 -0.633392
35  1.196299 0.000076 -0.000004  0.004231 -0.001993 -1.112650
36  3.883411 -0.050502 -0.431086  0.261984 -0.286055 -1.304978
37  1.719564 -0.000078 -0.000004  -0.029126 0.008047 -1.539001
38  1.209197 0.000036 0.000011  -0.000577 -0.002931 -0.376459
39  3.806436 -0.112147 -1.295328  -0.099627 -0.348091 -0.023200
40  1.719413 -0.000100 -0.000034  -0.038121 0.081026 -1.278846
41  1.099673 0.000024 0.000007  -0.012207 -0.002701 -0.829704
42  0.444468 -0.201854 -1.632532  1.078570 0.042834 -0.797255
43  1.789780 -0.000008 -0.000042  0.022641 0.004339 -0.048056
44  1.206996 -0.000007 0.000005  0.105921 0.121025 1.080897
45  5.740573 0.000055 0.000725  0.064510 -0.000014 0.000021
46  11.480593 -0.000116 0.001080  0.027886 0.161978 0.053411
47  6.027514 -0.000272 -0.000236  -0.795363 -0.744339 -1.259140
48  -0.000001 11.691974 -0.000006  -1.303746 0.750920 0.953467
49  0.000004 -0.000002 0.000000  2.939640 -0.000041 1.570856
50  -0.000007 -0.000016 0.000005  2.272644 -0.000030 1.570865
51  -4.450413 -5.859618 -7.852735  -0.092535 -2.988930 1.541166
52  -0.000001 0.000000 -0.000000  0.008153 -0.000259 0.000009
53  0.000000 -0.000000 0.000001  1.565115 0.043565 -0.106862
54  -1.176268 -18.700373 -5.884071  -0.921602 -0.211467 -1.967841
55  -0.000001 0.000000 -0.000000  0.000000 -0.000000 -0.000002
56  0.000029 0.000029 0.000001  -1.571902 -0.044449 -0.106509
57  5.091632 -16.138317 -16.427357  1.570796 -0.000000 0.000000
58  -21.599098 7.001666 -12.508070  1.570796 -0.000000 0.000000
59  -0.670483 -3.588677 -4.109488  1.570796 -0.000000 0.000000
60  -0.004311 0.001230 -0.000371  0.006898 -0.005534 -0.284229
61  0.376268 6.572924 -2.887995  1.570796 -0.000000 0.000000
62  0.000000 0.000000 0.000000  -0.078727 -3.136056 0.284226
63  -3.127763 -3.808835 -0.720220  1.570796 -0.001605 0.000000
64  -3.084375 -12.990643 -1.843742  1.572040 -0.001552 0.001794
65  -0.072955 -3.820800 -1.749355  0.436332 0.000000 -0.000000
66  -0.668922 -1.211075 -0.466521  -0.000000 -0.000000 0.000000
67  -0.072953 -1.658653 21.597467  -0.000000 -0.000000 0.000000
68  0.539125 -3.409477 1.525823  -0.000000 -0.000000 0.000000
69  0.976923 -0.630886 2.028452  0.000000 -0.000000 -0.029053
70  -0.768075 -0.714321 2.967139  -0.000000 0.000000 0.020211
71  -3.146971 -16.057692 -4.974748  1.572040 -0.001552 0.001794
72  0.099490 0.870662 -0.144581  -0.000000 -0.000000 0.000000
73  -0.152365 0.482500 -0.144582  -0.000000 -0.000000 0.000000
74  0.098315 0.086895 -0.144581  -0.000000 -0.000000 0.000000
time 5
0  0.000006 0.000000 0.000000  -1.570800 -1.391899 -1.570792
1  -3.404175 4.262080 -0.674799  -1.544956 -1.855077 -0.198630
2  6.027522 -0.000322 0.000193  -1.005979 -0.883736 -1.296093
3  11.692107 0.000645 -0.000740  -0.970823 -0.000026 -1.551802
4  11.480049 0.000301 -0.000858  1.162172 -0.521517 0.287935
5  3.859510 -0.142878 -1.192050  -0.849067 -0.063765 -2.041914
6  1.312587 0.000012 0.000007  -0.137741 0.005688 -0.246758
7  0.729353 0.000053 0.000049  -0.007464 0.004648 -0.009220
8  3.942143 0.046275 -0.431512  -0.589883 0.233104 -1.492311
9  1.539110 0.000083 0.000004  -0.031655 0.014031 -0.854546
10  1.196336 0.000144 0.000028  -0.000113 0.007059 -0.341503
11  3.883505 -0.047267 0.431381  -0.284771 0.562134 -0.820192
12  1.719572 -0.000027 0.000015  0.059336 -0.060421 -1.540896
13  1.209181 0.000091 0.000013  -0.010720 0.004384 0.006587
14  4.085223 -0.082714 1.151041  0.083923 0.590486 -0.023839
15  1.719449 -0.000013 0.000020  -0.288320 0.336817 -1.327174
16  1.099675 0.000051 0.000006  -0.137716 0.053706 -1.193431
17  0.686694 -1.660585 0.827511  -0.980456 -0.615764 -0.268880
18  1.789821 -0.000000 -0.000018  0.000998 -0.014468 0.721478
19  1.207013 -0.000012 -0.000045  0.001593 -0.000026 -0.111145
20  5.740637 0.000410 -0.000703  -0.118200 0.000003 0.000071
21  11.481019 0.000273 -0.000829  -0.061038 -0.092839 0.023585
22  6.027524 -0.000329 0.000202  1.811731 -0.650045 1.459814
23  0.000002 11.692101 -0.000007  -1.060069 -0.504882 -0.829296
24  0.000004 0.000008 -0.000002  -0.101721 -0.000031 1.570739
25  -0.000000 -0.000011 -0.000000  0.868957 0.000002 1.570712
26  -4.011518 -5.954122 0.376267  1.473120 1.855075 -0.198639
27  6.027503 -0.000261 -0.000229  1.353401 0.566894 -0.294621
28  11.691990 0.000243 0.000855  0.667115 0.000080 -1.940342
29  11.478451 -0.000688 0.001592  -1.193159 0.856177 0.499623
30  3.452861 -0.227595 1.051754  0.880140 -0.000999 -2.098478
31  1.312557 0.000026 0.000000  -0.027276 -0.015749 -0.190753
32  0.729344 0.000066 -0.000028  0.002011 -0.007393 -1.061347
33  3.942046 0.050109 0.430996  0.528640 -0.087932 -1.844853
34  1.539096 0.000010 0.000001  -0.011852 -0.046253 -0.633392
35  1.196298 0.000076 -0.000004  0.004231 -0.001993 -1.112650
36  3.883411 -0.050502 -0.431087  0.261984 -0.286055 -1.304978
37  1.719564 -0.000079 -0.000005  -0.029126 0.008047 -1.539001
38  1.209196 0.000036 0.000011  -0.000577 -0.002931 -0.376459
39  3.806436 -0.112148 -1.295329  -0.076345 -0.312495 -0.038838
40  1.719412 -0.000099 -0.000034  -0.015339 0.090808 -1.086277
41  1.099673 0.000025 0.000007  -0.012523 -0.000933 -0.691990
42  0.444468 -0.201854 -1.632532  1.078570 0.042834 -0.797255
43  1.789779 -0.000010 -0.000042  0.022641 0.004339 -0.048056
44  1.206997 -0.000006 0.000006  0.105921 0.121025 1.080897
45  5.740573 0.000055 0.000724  0.065202 -0.000014 0.000021
46  11.480636 -0.000102 0.001068  0.029461 0.160292 0.051817
47  6.027514 -0.000272 -0.000236  -0.809655 -0.735284 -1.251985
48  -0.000002 11.691976 -0.000007  -1.289001 0.735722 0.947655
49  0.000003 -0.000002 -0.000000  2.939640 -0.000041 1.570856
50  -0.000006 -0.000014 0.000005  2.272644 -0.000030 1.570865
51  -4.426879 -6.097410 -7.867540  -0.087416 -2.988687 1.541762
52  0.000000 -0.000000 -0.000001  0.008153 -0.000259 0.000009
53  -0.000000 -0.000000 -0.000000  1.565115 0.043565 -0.106862
54  -1.145068 -18.932880 -5.877300  -0.916685 -0.209876 -1.967494
55  0.000001 -0.000000 0.000000  0.000000 -0.000000 -0.000002
56  0.000033 0.000029 0.000001  -1.571902 -0.044449 -0.106509
57  5.091632 -16.138317 -16.427357  1.570796 -0.000000 0.000000
58  -21.599098 7.001666 -12.508070  1.570796 -0.000000 0.000000
59  -0.670483 -3.588677 -4.109488  1.570796 -0.000000 0.000000
60  -0.004311 0.001230 -0.000371  0.006898 -0.005534 -0.284229
61  0.376268 6.572924 -2.887995  1.570796 -0.000000 0.000000
62  0.000000 0.000000 0.000000  -0.078727 -3.136056 0.284226
63  -3.127763 -3.808835 -0.720220  1.570796 -0.000840 0.000000
64  -3.081401 -13.224216 -1.848912  1.571636 -0.006600 0.003171
65  -0.072954 -3.820800 -1.749354  0.218166 0.000000 -0.000000
66  -0.668922 -1.211075 -0.466521  0.000000 0.000000 0.000000
67  -0.072953 -1.658653 21.597471  0.000000 0.000000 0.000000
68  0.539125 -3.409477 1.525824  0.000000 0.000000 0.000000
69  0.977181 -0.621506 2.224893  0.000000 -0.000000 -0.010169
70  -0.768074 -0.714321 2.967141  -0.000000 0.000000 0.010105
71  -3.123969 -16.292562 -4.978983  1.571636 -0.006600 0.003171
72  0.099490 0.870663 -0.144582  0.000000 0.000000 0.000000
73  -0.152366 0.482500 -0.144583  0.000000 0.000000 0.000000
74  0.098315 0.086895 -0.144582  0.000000 0.000000 0.000000
time 6
0  0.000006 0.000000 0.000000  -1.570800 -1.391899 -1.570792
1  -3.404175 4.262080 -0.674799  -1.544956 -1.855077 -0.198630
2  6.027523 -0.000323 0.000193  -1.004826 -0.892719 -1.304897
3  11.692107 0.000645 -0.000740  -0.970822 -0.000024 -1.526106
4  11.480250 0.000371 -0.000756  1.165901 -0.504952 0.280255
5  3.859510 -0.142881 -1.192050  -0.849067 -0.063765 -2.041914
6  1.312589 0.000012 0.000008  -0.137741 0.005688 -0.246758
7  0.729354 0.000054 0.000049  -0.007464 0.004648 -0.009220
8  3.942143 0.046273 -0.431513  -0.589883 0.233104 -1.492311
9  1.539110 0.000085 0.000005  -0.031655 0.014031 -0.854546
10  1.196335 0.000146 0.000030  -0.000113 0.007059 -0.341503
11  3.883507 -0.047269 0.431381  -0.284771 0.562134 -0.820192
12  1.719573 -0.000027 0.000015  0.059336 -0.060421 -1.540896
13  1.209178 0.000091 0.000012  -0.010720 0.004384 0.006587
14  4.085223 -0.082715 1.151040  0.083923 0.590486 -0.023839
15  1.719449 -0.000011 0.000023  -0.288320 0.336817 -1.327174
16  1.099676 0.000049 0.000003  -0.137716 0.053706 -1.193431
17  0.686692 -1.660587 0.827510  -0.980456 -0.615764 -0.268880
18  1.789820 -0.000003 -0.000018  0.000998 -0.014468 0.721478
19  1.207016 -0.000012 -0.000044  0.001593 -0.000026 -0.111145
20  5.740637 0.000411 -0.000703  -0.114785 0.000003 0.000071
21  11.481060 0.000287 -0.000809  -0.061307 -0.089318 0.022944
22  6.027524 -0.000329 0.000202  1.806674 -0.641988 1.454949
23  0.000001 11.692100 -0.000007  -1.044909 -0.490472 -0.819944
24  0.000003 0.000008 -0.000002  -0.101721 -0.000031 1.570738
25  -0.000001 -0.000011 -0.000000  0.868957 0.000002 1.570712
26  -4.011518 -5.954122 0.376267  1.473120 1.855075 -0.198639
27  6.027503 -0.000261 -0.000229  1.356059 0.578436 -0.295168
28  11.691990 0.000241 0.000857  0.667115 0.000078 -1.917975
29  11.478647 -0.000618 0.001539  -1.198369 0.848518 0.489859
30  3.452861 -0.227594 1.051754  0.880140 -0.000999 -2.098478
31  1.312558 0.000026 0.000001  -0.027276 -0.015749 -0.190753
32  0.729345 0.000066 -0.000027  0.002011 -0.007393 -1.061347
33  3.942046 0.050110 0.430996  0.528640 -0.087932 -1.844853
34  1.539096 0.000010 -0.000000  -0.011852 -0.046253 -0.633392
35  1.196299 0.000075 -0.000004  0.004231 -0.001992 -1.112650
36  3.883411 -0.050501 -0.431087  0.261984 -0.286055 -1.304978
37  1.719564 -0.000081 -0.000004  -0.029126 0.008047 -1.539001
38  1.209198 0.000036 0.000011  -0.000577 -0.002931 -0.376459
39  3.806436 -0.112147 -1.295329  -0.053895 -0.276571 -0.053442
40  1.719413 -0.000100 -0.000034  0.008708 0.096837 -0.893403
41  1.099673 0.000025 0.000007  -0.012594 0.000862 -0.554277
42  0.444468 -0.201853 -1.632532  1.078570 0.042834 -0.797255
43  1.789779 -0.000010 -0.000042  0.022641 0.004339 -0.048056
44  1.206997 -0.000006 0.000006  0.105921 0.121025 1.080897
45  5.740573 0.000056 0.000724  0.064535 -0.000014 0.000021
46  11.480675 -0.000087 0.001057  0.029692 0.158527 0.050829
47  6.027514 -0.000272 -0.000236  -0.820572 -0.726789 -1.246684
48  -0.000003 11.691974 -0.000006  -1.275588 0.721879 0.942148
49  0.000004 -0.000002 -0.000001  2.939640 -0.000041 1.570856
50  -0.000007 -0.000015 0.000005  2.272644 -0.000030 1.570865
51  -4.425278 -6.315597 -7.876872  -0.089767 -2.987724 1.540954
52  -0.000000 0.000000 -0.000001  0.008153 -0.000259 0.000009
53  0.000000 0.000000 -0.000000  1.565115 0.043565 -0.106862
54  -1.153771 -19.153112 -5.882854  -0.918549 -0.211610 -1.968271
55  0.000000 0.000000 -0.000001  0.000000 -0.000000 -0.000002
56  0.000030 0.000029 0.000001  -1.571901 -0.044449 -0.106509
57  5.091632 -16.138317 -16.427357  1.570796 -0.000000 0.000000
58  -21.599098 7.001666 -12.508070  1.570796 -0.000000 0.000000
59  -0.670483 -3.588677 -4.109488  1.570796 -0.000000 0.000000
60  -0.004311 0.001230 -0.000371  0.006898 -0.005534 -0.284229
61  0.376268 6.572924 -2.887995  1.570796 -0.000000 0.000000
62  0.000000 0.000000 0.000000  -0.078727 -3.136056 0.284226
63  -3.127763 -3.808835 -0.720220  1.570796 0.000580 0.000000
64  -3.073966 -13.438593 -1.855041  1.570748 -0.004247 0.002008
65  -0.072955 -3.820801 -1.749356  -0.000000 -0.000000 0.000000
66  -0.668922 -1.211075 -0.466520  -0.000000 -0.000000 0.000000
67  -0.072953 -1.658653 21.597471  -0.000000 -0.000000 0.000000
68  0.539125 -3.409477 1.525823  -0.000000 -0.000000 0.000000
69  0.977269 -0.616456 2.421331  -0.000000 -0.000000 0.000000
70  -0.768074 -0.714321 2.967141  -0.000000 0.000000 0.000000
71  -3.127473 -16.509682 -4.982254  1.570748 -0.004247 0.002008
72  0.099490 0.870662 -0.144583  -0.000000 -0.000000 0.000000
73  -0.152365 0.482500 -0.144584  -0.000000 -0.000000 0.000000
74  0.098315 0.086894 -0.144583  -0.000000 -0.000000 0.000000
time 7
0  0.000006 0.000000 0.000000  -1.570800 -1.391899 -1.570792
1  -3.404175 4.262080 -0.674799  -1.544956 -1.855077 -0.198630
2  6.027523 -0.000323 0.000193  -1.001939 -0.899891 -1.312054
3  11.692108 0.000644 -0.000739  -0.970821 -0.000023 -1.505850
4  11.480416 0.000429 -0.000669  1.165702 -0.491698 0.271980
5  3.859509 -0.142879 -1.192050  -0.849067 -0.063765 -2.041914
6  1.312591 0.000013 0.000007  -0.137741 0.005688 -0.246758
7  0.729353 0.000054 0.000050  -0.007464 0.004648 -0.009220
8  3.942146 0.046273 -0.431512  -0.589883 0.233104 -1.492311
9  1.539112 0.000085 0.000006  -0.031655 0.014031 -0.854546
10  1.196334 0.000145 0.000028  -0.000114 0.007059 -0.341503
11  3.883507 -0.047269 0.431381  -0.284771 0.562134 -0.820192
12  1.719573 -0.000027 0.000015  0.059336 -0.060421 -1.540896
13  1.209177 0.000092 0.000012  -0.010720 0.004384 0.006587
14  4.085222 -0.082716 1.151040  0.083923 0.590486 -0.023839
15  1.719449 -0.000012 0.000022  -0.288320 0.336817 -1.327174
16  1.099676 0.000049 0.000007  -0.137716 0.053706 -1.193431
17  0.686695 -1.660586 0.827510  -0.980456 -0.615764 -0.268880
18  1.789820 -0.000003 -0.000018  0.000999 -0.014468 0.721478
19  1.207014 -0.000012 -0.000044  0.001593 -0.000026 -0.111145
20  5.740635 0.000409 -0.000703  -0.113058 0.000003 0.000070
21  11.481091 0.000298 -0.000790  -0.062172 -0.086518 0.021834
22  6.027524 -0.000329 0.000202  1.801282 -0.635992 1.453263
23  0.000002 11.692100 -0.000006  -1.032933 -0.479203 -0.812449
24  0.000002 0.000009 0.000001  -0.101721 -0.000030 1.570739
25  -0.000001 -0.000011 -0.000000  0.868957 0.000002 1.570712
26  -4.011518 -5.954122 0.376267  1.473120 1.855075 -0.198639
27  6.027503 -0.000261 -0.000229  1.358334 0.586469 -0.295259
28  11.691991 0.000244 0.000857  0.667115 0.000077 -1.901615
29  11.478792 -0.000567 0.001494  -1.205721 0.843327 0.482528
30  3.452862 -0.227595 1.051755  0.880140 -0.000999 -2.098478
31  1.312559 0.000025 -0.000000  -0.027276 -0.015749 -0.190753
32  0.729345 0.000065 -0.000027  0.002011 -0.007393 -1.061347
33  3.942046 0.050109 0.430998  0.528640 -0.087932 -1.844853
34  1.539097 0.000009 -0.000000  -0.011852 -0.046253 -0.633392
35  1.196299 0.000077 -0.000005  0.004231 -0.001992 -1.112650
36  3.883411 -0.050502 -0.431085  0.261984 -0.286055 -1.304978
37  1.719563 -0.000079 -0.000003  -0.029126 0.008047 -1.539001
38  1.209196 0.000036 0.000011  -0.000577 -0.002931 -0.376459
39  3.806436 -0.112148 -1.295329  -0.054465 -0.277495 -0.052457
40  1.719413 -0.000100 -0.000034  0.006897 0.098536 -0.908824
41  1.099673 0.000024 0.000007  -0.012740 0.000369 -0.593261
42  0.444469 -0.201854 -1.632531  1.078570 0.042834 -0.797255
43  1.789779 -0.000010 -0.000042  0.022641 0.004339 -0.048056
44  1.206997 -0.000006 0.000006  0.105921 0.121025 1.080897
45  5.740572 0.000054 0.000723  0.063382 -0.000014 0.000021
46  11.480703 -0.000079 0.001048  0.029225 0.157194 0.050338
47  6.027514 -0.000272 -0.000236  -0.827814 -0.720569 -1.243231
48  -0.000001 11.691975 -0.000006  -1.265815 0.711789 0.938006
49  0.000003 -0.000002 0.000001  2.939640 -0.000041 1.570856
50  -0.000007 -0.000015 0.000004  2.272644 -0.000030 1.570865
51  -4.431307 -6.474803 -7.882646  -0.094975 -2.986673 1.539582
52  0.000000 -0.000000 -0.000001  0.008153 -0.000259 0.000009
53  0.000000 -0.000000 0.000001  1.565115 0.043565 -0.106862
54  -1.177391 -19.317631 -5.894049  -0.923076 -0.214440 -1.969487
55  -0.000000 0.000000 0.000000  0.000000 -0.000000 -0.000002
56  0.000029 0.000029 0.000001  -1.571901 -0.044449 -0.106509
57  5.091632 -16.138317 -16.427357  1.570796 -0.000000 0.000000
58  -21.599098 7.001666 -12.508070  1.570796 -0.000000 0.000000
59  -0.670483 -3.588677 -4.109488  1.570796 -0.000000 0.000000
60  -0.004311 0.001230 -0.000371  0.006898 -0.005534 -0.284229
61  0.376268 6.572924 -2.887995  1.570796 -0.000000 0.000000
62  0.000000 0.000000 0.000000  -0.078727 -3.136056 0.284226
63  -3.127763 -3.808835 -0.720220  1.570796 0.001345 0.000000
64  -3.064301 -13.595375 -1.861490  1.569860 0.000930 -0.000163
65  -0.072955 -3.820800 -1.749356  -0.000000 -0.000000 -0.000000
66  -0.668922 -1.211075 -0.466520  -0.000000 -0.000000 -0.000000
67  -0.072953 -1.658653 21.597471  -0.000000 -0.000000 -0.000000
68  0.539125 -3.409476 1.525822  -0.000000 -0.000000 -0.000000
69  0.977269 -0.616456 2.421329  -0.000000 -0.000000 -0.000000
70  -0.768074 -0.714321 2.967139  -0.000000 0.000000 -0.000000
71  -3.140662 -16.669115 -4.985623  1.569860 0.000930 -0.000163
72  0.099490 0.870662 -0.144582  -0.000000 -0.000000 -0.000000
73  -0.152365 0.482500 -0.144582  -0.000000 -0.000000 -0.000000
74  0.098315 0.086895 -0.144581  -0.000000 -0.000000 -0.000000
time 8
0  0.000006 0.000000 0.000000  -1.570800 -1.391899 -1.570792
1  -3.404175 4.262080 -0.674799  -1.544956 -1.855077 -0.198630
2  6.027523 -0.000323 0.000193  -0.999848 -0.902639 -1.314878
3  11.692110 0.000644 -0.000740  -0.970821 -0.000022 -1.497418
4  11.480487 0.000452 -0.000637  1.163307 -0.486196 0.266297
5  3.859509 -0.142880 -1.192050  -0.849067 -0.063765 -2.041914
6  1.312588 0.000011 0.000007  -0.137741 0.005688 -0.246758
7  0.729356 0.000053 0.000049  -0.007464 0.004648 -0.009220
8  3.942144 0.046272 -0.431512  -0.589883 0.233104 -1.492311
9  1.539110 0.000087 0.000006  -0.031655 0.014031 -0.854546
10  1.196333 0.000146 0.000028  -0.000113 0.007059 -0.341503
11  3.883505 -0.047270 0.431381  -0.284771 0.562134 -0.820192
12  1.719573 -0.000023 0.000015  0.059336 -0.060421 -1.540895
13  1.209179 0.000091 0.000013  -0.010720 0.004384 0.006587
14  4.085222 -0.082716 1.151040  0.083923 0.590486 -0.023839
15  1.719447 -0.000014 0.000020  -0.288320 0.336817 -1.327174
16  1.099677 0.000050 0.000006  -0.137716 0.053706 -1.193431
17  0.686692 -1.660588 0.827510  -0.980456 -0.615764 -0.268880
18  1.789820 -0.000006 -0.000018  0.000999 -0.014468 0.721478
19  1.207015 -0.000012 -0.000044  0.001593 -0.000026 -0.111145
20  5.740637 0.000411 -0.000705  -0.113050 0.000003 0.000070
21  11.481108 0.000303 -0.000787  -0.063037 -0.085347 0.020811
22  6.027524 -0.000329 0.000202  1.798533 -0.633909 1.453709
23  0.000001 11.692101 -0.000007  -1.027939 -0.474535 -0.809296
24  0.000004 0.000009 -0.000002  -0.101722 -0.000030 1.570739
25  -0.000001 -0.000011 -0.000001  0.868957 0.000002 1.570712
26  -4.011518 -5.954122 0.376267  1.473120 1.855075 -0.198639
27  6.027503 -0.000261 -0.000229  1.359741 0.588902 -0.294857
28  11.691991 0.000243 0.000856  0.667115 0.000076 -1.895351
29  11.478847 -0.000543 0.001478  -1.211991 0.840593 0.478978
30  3.452861 -0.227595 1.051755  0.880140 -0.000999 -2.098478
31  1.312559 0.000026 0.000000  -0.027276 -0.015749 -0.190753
32  0.729345 0.000066 -0.000028  0.002011 -0.007393 -1.061347
33  3.942045 0.050109 0.430997  0.528640 -0.087932 -1.844853
34  1.539097 0.000011 -0.000001  -0.011852 -0.046253 -0.633392
35  1.196300 0.000076 -0.000005  0.004231 -0.001993 -1.112650
36  3.883411 -0.050502 -0.431086  0.261984 -0.286055 -1.304978
37  1.719564 -0.000079 -0.000004  -0.029126 0.008047 -1.539001
38  1.209197 0.000036 0.000011  -0.000577 -0.002931 -0.376459
39  3.806435 -0.112148 -1.295329  -0.055962 -0.279910 -0.049880
40  1.719412 -0.000100 -0.000034  0.002728 0.100560 -0.949174
41  1.099674 0.000026 0.000006  -0.013032 -0.000948 -0.695528
42  0.444467 -0.201854 -1.632531  1.078570 0.042834 -0.797255
43  1.789780 -0.000010 -0.000042  0.022641 0.004339 -0.048056
44  1.206996 -0.000006 0.000005  0.105921 0.121025 1.080897
45  5.740571 0.000056 0.000724  0.062345 -0.000014 0.000021
46  11.480714 -0.000072 0.001045  0.028540 0.156420 0.050332
47  6.027514 -0.000272 -0.000236  -0.829532 -0.718199 -1.242477
48  -0.000000 11.691975 -0.000004  -1.262081 0.707934 0.936396
49  0.000004 -0.000001 -0.000001  2.939640 -0.000041 1.570856
50  -0.000006 -0.000015 0.000005  2.272644 -0.000030 1.570865
51  -4.444441 -6.536385 -7.884486  -0.100200 -2.986111 1.539215
52  0.000000 0.000000 -0.000000  0.008153 -0.000259 0.000009
53  -0.000001 -0.000000 0.000001  1.565115 0.043565 -0.106862
54  -1.195345 -19.382238 -5.907587  -0.927801 -0.216819 -1.969650
55  0.000000 -0.000000 0.000000  0.000000 -0.000000 -0.000002
56  0.000030 0.000029 0.000001  -1.571901 -0.044449 -0.106509
57  5.091632 -16.138317 -16.427357  1.570796 -0.000000 0.000000
58  -21.599098 7.001666 -12.508070  1.570796 -0.000000 0.000000
59  -0.670483 -3.588677 -4.109488  1.570796 -0.000000 0.000000
60  -0.004311 0.001230 -0.000371  0.006898 -0.005534 -0.284229
61  0.376268 6.572924 -2.887995  1.570796 -0.000000 0.000000
62  0.000000 0.000000 0.000000  -0.078727 -3.136056 0.284226
63  -3.127763 -3.808835 -0.720220  1.570796 0.000996 0.000000
64  -3.054636 -13.656169 -1.867619  1.569456 0.006107 -0.001339
65  -0.072955 -3.820800 -1.749355  -0.000000 0.000000 0.000000
66  -0.668922 -1.211075 -0.466522  -0.000000 0.000000 0.000000
67  -0.072953 -1.658653 21.597469  -0.000000 0.000000 0.000000
68  0.539125 -3.409477 1.525822  -0.000000 0.000000 0.000000
69  0.977269 -0.616456 2.421331  -0.000000 0.000000 0.000000
70  -0.768075 -0.714321 2.967140  -0.000000 0.000000 0.000000
71  -3.150778 -16.731056 -4.990076  1.569456 0.006107 -0.001339
72  0.099490 0.870662 -0.144584  -0.000000 0.000000 0.000000
73  -0.152366 0.482500 -0.144585  -0.000000 0.000000 0.000000
74  0.098315 0.086895 -0.144586  -0.000000 0.000000 0.000000
time 9
0  0.000006 0.000000 0.000000  -1.570800 -1.391899 -1.570792
1  -3.404175 4.262080 -0.674799  -1.544956 -1.855077 -0.198630
2  6.027523 -0.000323 0.000193  -0.999854 -0.901196 -1.313460
3  11.692109 0.000642 -0.000739  -0.970821 -0.000022 -1.500206
4  11.480463 0.000445 -0.000648  1.161249 -0.487826 0.265055
5  3.859511 -0.142881 -1.192050  -0.849067 -0.063765 -2.041914
6  1.312590 0.000012 0.000007  -0.137741 0.005688 -0.246758
7  0.729353 0.000054 0.000050  -0.007464 0.004648 -0.009220
8  3.942143 0.046271 -0.431512  -0.589883 0.233104 -1.492311
9  1.539110 0.000085 0.000005  -0.031655 0.014031 -0.854546
10  1.196332 0.000145 0.000030  -0.000113 0.007059 -0.341503
11  3.883508 -0.047269 0.431382  -0.284771 0.562134 -0.820192
12  1.719573 -0.000028 0.000016  0.059336 -0.060421 -1.540896
13  1.209182 0.000091 0.000013  -0.010720 0.004384 0.006587
14  4.085226 -0.082716 1.151041  0.083923 0.590486 -0.023839
15  1.719448 -0.000010 0.000023  -0.288320 0.336817 -1.327174
16  1.099675 0.000051 0.000005  -0.137716 0.053706 -1.193431
17  0.686694 -1.660588 0.827511  -0.980456 -0.615764 -0.268880
18  1.789820 -0.000003 -0.000017  0.000999 -0.014468 0.721478
19  1.207016 -0.000012 -0.000043  0.001593 -0.000026 -0.111145
20  5.740637 0.000409 -0.000703  -0.113893 0.000003 0.000071
21  11.481102 0.000301 -0.000789  -0.063403 -0.085679 0.020398
22  6.027524 -0.000329 0.000202  1.799191 -0.635252 1.454732
23  0.000002 11.692100 -0.000007  -1.029591 -0.476077 -0.810341
24  0.000002 0.000009 -0.000000  -0.101721 -0.000031 1.570739
25  -0.000001 -0.000011 -0.000000  0.868957 0.000002 1.570712
26  -4.011518 -5.954122 0.376267  1.473120 1.855075 -0.198639
27  6.027503 -0.000261 -0.000229  1.359689 0.587057 -0.294568
28  11.691991 0.000243 0.000856  0.667115 0.000076 -1.897822
29  11.478824 -0.000552 0.001484  -1.214470 0.840630 0.479084
30  3.452862 -0.227595 1.051754  0.880140 -0.000999 -2.098478
31  1.312559 0.000027 -0.000001  -0.027276 -0.015749 -0.190753
32  0.729345 0.000067 -0.000028  0.002011 -0.007393 -1.061347
33  3.942048 0.050109 0.430996  0.528640 -0.087932 -1.844853
34  1.539097 0.000010 -0.000000  -0.011852 -0.046253 -0.633392
35  1.196299 0.000075 -0.000004  0.004231 -0.001992 -1.112650
36  3.883412 -0.050501 -0.431087  0.261984 -0.286055 -1.304978
37  1.719563 -0.000079 -0.000004  -0.029126 0.008047 -1.539001
38  1.209197 0.000036 0.000011  -0.000577 -0.002931 -0.376459
39  3.806436 -0.112148 -1.295330  -0.057467 -0.282322 -0.047297
40  1.719413 -0.000100 -0.000035  -0.001378 0.101979 -0.989532
41  1.099673 0.000024 0.000006  -0.013187 -0.002289 -0.797794
42  0.444469 -0.201854 -1.632533  1.078570 0.042834 -0.797255
43  1.789780 -0.000010 -0.000042  0.022641 0.004339 -0.048056
44  1.206996 -0.000006 0.000005  0.105921 0.121025 1.080897
45  5.740571 0.000054 0.000723  0.061902 -0.000014 0.000021
46  11.480709 -0.000075 0.001046  0.028103 0.156347 0.050556
47  6.027514 -0.000272 -0.000236  -0.827575 -0.719310 -1.243447
48  -0.000002 11.691973 -0.000006  -1.263553 0.709454 0.937032
49  0.000004 -0.000002 0.000001  2.939640 -0.000041 1.570856
50  -0.000007 -0.000016 0.000005  2.272644 -0.000030 1.570865
51  -4.452510 -6.512608 -7.885689  -0.102584 -2.986133 1.539774
52  -0.000000 -0.000000 -0.000001  0.008153 -0.000259 0.000009
53  0.000000 0.000000 -0.000000  1.565115 0.043565 -0.106862
54  -1.196337 -19.358032 -5.917666  -0.930060 -0.217644 -1.968974
55  -0.000002 0.000001 0.000000  0.000000 -0.000000 -0.000002
56  0.000028 0.000030 0.000001  -1.571901 -0.044449 -0.106509
57  5.091632 -16.138317 -16.427357  1.570796 -0.000000 0.000000
58  -21.599098 7.001666 -12.508070  1.570796 -0.000000 0.000000
59  -0.670483 -3.588677 -4.109488  1.570796 -0.000000 0.000000
60  -0.004311 0.001230 -0.000371  0.006898 -0.005534 -0.284229
61  0.376268 6.572924 -2.887995  1.570796 -0.000000 0.000000
62  0.000000 0.000000 0.000000  -0.078727 -3.136056 0.284226
63  -3.127763 -3.808835 -0.720220  1.570796 0.000349 0.000000
64  -3.047201 -13.632700 -1.872788  1.569548 0.008460 -0.001149
65  -0.072955 -3.820800 -1.749357  0.000000 0.000000 -0.000000
66  -0.668922 -1.211075 -0.466521  0.000000 0.000000 -0.000000
67  -0.072953 -1.658653 21.597471  0.000000 0.000000 -0.000000
68  0.539125 -3.409476 1.525821  0.000000 0.000000 -0.000000
69  0.977269 -0.616455 2.421329  0.000000 0.000000 -0.000000
70  -0.768075 -0.714321 2.967139  -0.000000 0.000000 -0.000000
71  -3.150107 -16.707310 -4.995304  1.569548 0.008460 -0.001149
72  0.099490 0.870663 -0.144581  0.000000 0.000000 -0.000000
73  -0.152366 0.482501 -0.144582  0.000000 0.000000 -0.000000
74  0.098315 0.086895 -0.144582  0.000000 0.000000 -0.000000
time 10
0  0.000006 0.000000 0.000000  -1.570800 -1.391899 -1.570792
1  -3.404175 4.262080 -0.674799  -1.544956 -1.855077 -0.198630
2  6.027523 -0.000323 0.000193  -1.001241 -0.898255 -1.310489
3  11.692106 0.000644 -0.000739  -0.970821 -0.000023 -1.507505
4  11.480403 0.000424 -0.000678  1.161094 -0.491921 0.267619
5  3.859509 -0.142880 -1.192049  -0.849067 -0.063765 -2.041914
6  1.312590 0.000013 0.000006  -0.137741 0.005688 -0.246758
7  0.729353 0.000054 0.000049  -0.007464 0.004648 -0.009220
8  3.942143 0.046272 -0.431512  -0.589883 0.233104 -1.492311
9  1.539111 0.000084 0.000005  -0.031655 0.014031 -0.854545
10  1.196333 0.000145 0.000029  -0.000113 0.007058 -0.341503
11  3.883507 -0.047269 0.431382  -0.284771 0.562134 -0.820192
12  1.719573 -0.000024 0.000015  0.059336 -0.060421 -1.540895
13  1.209177 0.000092 0.000012  -0.010720 0.004384 0.006587
14  4.085222 -0.082716 1.151040  0.083923 0.590486 -0.023839
15  1.719449 -0.000011 0.000023  -0.288320 0.336817 -1.327174
16  1.099676 0.000048 0.000006  -0.137716 0.053706 -1.193431
17  0.686694 -1.660586 0.827511  -0.980456 -0.615764 -0.268880
18  1.789818 -0.000003 -0.000019  0.000998 -0.014468 0.721478
19  1.207013 -0.000012 -0.000044  0.001593 -0.000026 -0.111145
20  5.740637 0.000409 -0.000703  -0.114482 0.000003 0.000071
21  11.481090 0.000297 -0.000793  -0.063181 -0.086551 0.020731
22  6.027524 -0.000329 0.000202  1.801527 -0.637673 1.455229
23  0.000001 11.692100 -0.000006  -1.033912 -0.480120 -0.813065
24  0.000002 0.000009 -0.000002  -0.101721 -0.000031 1.570738
25  -0.000000 -0.000011 -0.000000  0.868957 0.000002 1.570712
26  -4.011518 -5.954122 0.376267  1.473120 1.855075 -0.198639
27  6.027503 -0.000261 -0.000229  1.358166 0.584411 -0.294996
28  11.691992 0.000244 0.000856  0.667115 0.000077 -1.903474
29  11.478775 -0.000571 0.001499  -1.212690 0.843247 0.481319
30  3.452862 -0.227594 1.051753  0.880140 -0.000999 -2.098478
31  1.312559 0.000025 0.000001  -0.027276 -0.015749 -0.190753
32  0.729345 0.000065 -0.000027  0.002011 -0.007393 -1.061347
33  3.942045 0.050109 0.430997  0.528640 -0.087932 -1.844853
34  1.539096 0.000010 0.000000  -0.011852 -0.046253 -0.633391
35  1.196299 0.000075 -0.000003  0.004231 -0.001992 -1.112650
36  3.883411 -0.050502 -0.431087  0.261984 -0.286055 -1.304978
37  1.719563 -0.000079 -0.000003  -0.029126 0.008047 -1.539001
38  1.209197 0.000036 0.000010  -0.000577 -0.002931 -0.376459
39  3.806436 -0.112148 -1.295330  -0.058044 -0.283242 -0.046308
40  1.719412 -0.000099 -0.000035  -0.002942 0.102417 -1.004957
41  1.099673 0.000023 0.000007  -0.013211 -0.002803 -0.836778
42  0.444468 -0.201854 -1.632533  1.078570 0.042834 -0.797255
43  1.789779 -0.000009 -0.000042  0.022641 0.004339 -0.048056
44  1.206996 -0.000006 0.000005  0.105921 0.121025 1.080897
45  5.740571 0.000055 0.000723  0.062127 -0.000014 0.000021
46  11.480699 -0.000079 0.001049  0.028105 0.156933 0.050700
47  6.027514 -0.000272 -0.000236  -0.825695 -0.721883 -1.244275
48  -0.000001 11.691974 -0.000005  -1.266924 0.712934 0.938482
49  0.000003 -0.000002 0.000000  2.939640 -0.000041 1.570856
50  -0.000006 -0.000015 0.000005  2.272644 -0.000030 1.570865
51  -4.444325 -6.455865 -7.889555  -0.101162 -2.986413 1.540015
52  0.000001 0.000000 -0.000001  0.008153 -0.000259 0.000009
53  0.000000 0.000000 -0.000000  1.565115 0.043565 -0.106862
54  -1.185010 -19.300251 -5.919972  -0.928820 -0.216878 -1.968780
55  0.000001 -0.000001 0.000000  0.000000 -0.000000 -0.000002
56  0.000031 0.000028 0.000001  -1.571901 -0.044449 -0.106509
57  5.091632 -16.138317 -16.427357  1.570796 -0.000000 0.000000
58  -21.599098 7.001666 -12.508070  1.570796 -0.000000 0.000000
59  -0.670483 -3.588677 -4.109488  1.570796 -0.000000 0.000000
60  -0.004311 0.001230 -0.000371  0.006898 -0.005534 -0.284229
61  0.376268 6.572924 -2.887995  1.570796 -0.000000 0.000000
62  0.000000 0.000000 0.000000  -0.078727 -3.136056 0.284226
63  -3.127763 -3.808835 -0.720220  1.570796 -0.000000 0.000000
64  -3.044227 -13.576735 -1.876359  1.569786 0.007047 -0.000686
65  -0.072955 -3.820800 -1.749355  -0.000000 0.000000 -0.000000
66  -0.668922 -1.211075 -0.466520  -0.000000 0.000000 -0.000000
67  -0.072953 -1.658653 21.597473  -0.000000 0.000000 -0.000000
68  0.539125 -3.409477 1.525824  -0.000000 0.000000 -0.000000
69  0.977269 -0.616456 2.421332  -0.000000 0.000000 -0.000000
70  -0.768074 -0.714321 2.967140  -0.000000 0.000000 -0.000000
71  -3.141304 -16.650648 -4.999745  1.569786 0.007047 -0.000686
72  0.099490 0.870662 -0.144583  -0.000000 0.000000 -0.000000
73  -0.152366 0.482500 -0.144583  -0.000000 0.000000 -0.000000
74  0.098315 0.086895 -0.144582  -0.000000 0.000000 -0.000000
time 11
0  0.000006 0.000000 0.000000  -1.570800 -1.391899 -1.570792
1  -3.404175 4.262080 -0.674799  -1.544956 -1.855077 -0.198630
2  6.027523 -0.000323 0.000193  -1.002874 -0.894990 -1.307203
3  11.692106 0.000643 -0.000740  -0.970821 -0.000023 -1.516215
4  11.480333 0.000399 -0.000714  1.161770 -0.496987 0.271766
5  3.859510 -0.142880 -1.192049  -0.849067 -0.063765 -2.041914
6  1.312589 0.000011 0.000008  -0.137741 0.005688 -0.246758
7  0.729356 0.000054 0.000050  -0.007464 0.004648 -0.009220
8  3.942143 0.046272 -0.431512  -0.589883 0.233104 -1.492311
9  1.539110 0.000082 0.000006  -0.031655 0.014031 -0.854546
10  1.196335 0.000146 0.000029  -0.000113 0.007059 -0.341503
11  3.883505 -0.047269 0.431382  -0.284771 0.562134 -0.820192
12  1.719573 -0.000025 0.000017  0.059336 -0.060421 -1.540896
13  1.209179 0.000091 0.000013  -0.010720 0.004384 0.006587
14  4.085223 -0.082716 1.151041  0.083923 0.590486 -0.023839
15  1.719448 -0.000012 0.000024  -0.288320 0.336817 -1.327174
16  1.099675 0.000049 0.000005  -0.137716 0.053706 -1.193431
17  0.686693 -1.660586 0.827511  -0.980456 -0.615764 -0.268880
18  1.789820 -0.000003 -0.000018  0.000998 -0.014468 0.721478
19  1.207016 -0.000012 -0.000043  0.001593 -0.000026 -0.111145
20  5.740636 0.000410 -0.000703  -0.114946 0.000003 0.000070
21  11.481074 0.000292 -0.000802  -0.062707 -0.087636 0.021379
22  6.027524 -0.000329 0.000202  1.804206 -0.640333 1.455641
23  0.000002 11.692098 -0.000007  -1.039064 -0.484960 -0.816297
24  0.000003 0.000008 -0.000002  -0.101721 -0.000031 1.570739
25  -0.000000 -0.000012 -0.000001  0.868957 0.000002 1.570712
26  -4.011518 -5.954122 0.376267  1.473120 1.855075 -0.198639
27  6.027503 -0.000261 -0.000229  1.356276 0.581484 -0.295583
28  11.691993 0.000243 0.000856  0.667115 0.000077 -1.910237
29  11.478714 -0.000595 0.001518  -1.208880 0.846697 0.484504
30  3.452860 -0.227595 1.051755  0.880140 -0.000999 -2.098478
31  1.312558 0.000026 -0.000000  -0.027276 -0.015749 -0.190753
32  0.729346 0.000064 -0.000027  0.002011 -0.007393 -1.061347
33  3.942046 0.050109 0.430997  0.528640 -0.087932 -1.844853
34  1.539097 0.000010 0.000000  -0.011852 -0.046253 -0.633392
35  1.196300 0.000076 -0.000003  0.004231 -0.001993 -1.112650
36  3.883411 -0.050501 -0.431087  0.261984 -0.286055 -1.304978
37  1.719563 -0.000079 -0.000003  -0.029126 0.008047 -1.539001
38  1.209197 0.000036 0.000012  -0.000577 -0.002931 -0.376459
39  3.806436 -0.112147 -1.295329  -0.058045 -0.283242 -0.046308
40  1.719412 -0.000100 -0.000035  -0.002942 0.102417 -1.004957
41  1.099674 0.000025 0.000007  -0.013211 -0.002803 -0.836778
42  0.444468 -0.201854 -1.632532  1.078570 0.042834 -0.797255
43  1.789780 -0.000009 -0.000042  0.022641 0.004339 -0.048056
44  1.206997 -0.000006 0.000005  0.105921 0.121025 1.080897
45  5.740571 0.000054 0.000724  0.062680 -0.000014 0.000021
46  11.480686 -0.000084 0.001053  0.028342 0.157757 0.050809
47  6.027514 -0.000272 -0.000236  -0.823746 -0.724870 -1.245111
48  -0.000002 11.691974 -0.000006  -1.270962 0.717103 0.940201
49  0.000005 -0.000003 0.000001  2.939640 -0.000041 1.570856
50  -0.000007 -0.000016 0.000005  2.272644 -0.000030 1.570865
51  -4.431493 -6.387885 -7.892904  -0.098028 -2.986833 1.540083
52  0.000000 0.000000 -0.000000  0.008153 -0.000259 0.000009
53  -0.000001 -0.000000 0.000000  1.565115 0.043565 -0.106862
54  -1.171228 -19.231115 -5.917359  -0.926016 -0.215374 -1.968830
55  -0.000000 0.000000 0.000000  0.000000 -0.000000 -0.000002
56  0.000029 0.000029 0.000001  -1.571901 -0.044449 -0.106509
57  5.091632 -16.138317 -16.427357  1.570796 -0.000000 0.000000
58  -21.599098 7.001666 -12.508070  1.570796 -0.000000 0.000000
59  -0.670483 -3.588677 -4.109488  1.570796 -0.000000 0.000000
60  -0.004311 0.001230 -0.000371  0.006898 -0.005534 -0.284229
61  0.376268 6.572924 -2.887995  1.570796 -0.000000 0.000000
62  0.000000 0.000000 0.000000  -0.078727 -3.136056 0.284226
63  -3.127763 -3.808835 -0.720220  1.570796 -0.000000 0.000000
64  -3.046161 -13.509938 -1.877692  1.570112 0.003940 -0.000133
65  -0.072955 -3.820800 -1.749356  0.000000 -0.000000 0.000000
66  -0.668922 -1.211075 -0.466521  0.000000 -0.000000 0.000000
67  -0.072953 -1.658653 21.597471  0.000000 -0.000000 0.000000
68  0.539125 -3.409476 1.525822  0.000000 -0.000000 0.000000
69  0.977269 -0.616455 2.421331  0.000000 -0.000000 0.000000
70  -0.768075 -0.714321 2.967140  -0.000000 0.000000 0.000000
71  -3.131834 -16.582890 -5.002358  1.570112 0.003940 -0.000133
72  0.099490 0.870662 -0.144586  0.000000 -0.000000 0.000000
73  -0.152365 0.482501 -0.144588  0.000000 -0.000000 0.000000
74  0.098315 0.086895 -0.144586  0.000000 -0.000000 0.000000
time 12
0  0.000006 0.000000 0.000000  -1.570800 -1.391899 -1.570792
1  -3.404175 4.262080 -0.674799  -1.544956 -1.855077 -0.198630
2  6.027523 -0.000323 0.000193  -1.004106 -0.892408 -1.304619
3  11.692107 0.000645 -0.000740  -0.970822 -0.000024 -1.523478
4  11.480274 0.000380 -0.000741  1.162546 -0.501399 0.275678
5  3.859509 -0.142880 -1.192049  -0.849067 -0.063765 -2.041914
6  1.312588 0.000013 0.000008  -0.137741 0.005688 -0.246758
7  0.729358 0.000054 0.000049  -0.007464 0.004648 -0.009220
8  3.942142 0.046273 -0.431512  -0.589883 0.233104 -1.492311
9  1.539110 0.000083 0.000006  -0.031655 0.014031 -0.854546
10  1.196335 0.000145 0.000028  -0.000113 0.007059 -0.341503
11  3.883505 -0.047269 0.431382  -0.284771 0.562134 -0.820192
12  1.719573 -0.000027 0.000015  0.059336 -0.060421 -1.540896
13  1.209178 0.000092 0.000011  -0.010720 0.004384 0.006587
14  4.085223 -0.082715 1.151040  0.083923 0.590486 -0.023839
15  1.719446 -0.000012 0.000024  -0.288320 0.336817 -1.327174
16  1.099675 0.000049 0.000006  -0.137716 0.053706 -1.193431
17  0.686692 -1.660586 0.827510  -0.980456 -0.615764 -0.268880
18  1.789819 -0.000003 -0.000018  0.000998 -0.014468 0.721478
19  1.207014 -0.000012 -0.000044  0.001593 -0.000026 -0.111145
20  5.740637 0.000410 -0.000701  -0.115283 0.000003 0.000071
21  11.481063 0.000289 -0.000805  -0.062245 -0.088584 0.022011
22  6.027524 -0.000329 0.000202  1.806296 -0.642445 1.456015
23  0.000003 11.692101 -0.000007  -1.043356 -0.489006 -0.818977
24  0.000003 0.000008 -0.000002  -0.101722 -0.000030 1.570738
25  -0.000000 -0.000011 -0.000001  0.868957 0.000002 1.570712
26  -4.011518 -5.954122 0.376267  1.473120 1.855075 -0.198639
27  6.027503 -0.000261 -0.000229  1.354809 0.579070 -0.296006
28  11.691991 0.000242 0.000855  0.667115 0.000078 -1.915988
29  11.478663 -0.000612 0.001533  -1.204919 0.849595 0.487587
30  3.452861 -0.227595 1.051752  0.880140 -0.000999 -2.098478
31  1.312559 0.000025 0.000000  -0.027276 -0.015749 -0.190753
32  0.729345 0.000066 -0.000027  0.002011 -0.007393 -1.061347
33  3.942045 0.050109 0.430996  0.528640 -0.087932 -1.844853
34  1.539096 0.000007 -0.000000  -0.011852 -0.046253 -0.633392
35  1.196299 0.000076 -0.000004  0.004231 -0.001993 -1.112650
36  3.883411 -0.050502 -0.431088  0.261984 -0.286055 -1.304978
37  1.719564 -0.000078 -0.000004  -0.029126 0.008047 -1.539001
38  1.209195 0.000035 0.000011  -0.000577 -0.002931 -0.376459
39  3.806436 -0.112148 -1.295330  -0.058045 -0.283242 -0.046308
40  1.719413 -0.000099 -0.000035  -0.002942 0.102417 -1.004957
41  1.099673 0.000024 0.000006  -0.013211 -0.002803 -0.836778
42  0.444469 -0.201854 -1.632533  1.078570 0.042834 -0.797255
43  1.789779 -0.000010 -0.000042  0.022641 0.004339 -0.048056
44  1.206996 -0.000007 0.000006  0.105921 0.121025 1.080897
45  5.740571 0.000056 0.000724  0.063275 -0.000014 0.000021
46  11.480676 -0.000086 0.001056  0.028643 0.158480 0.050908
47  6.027514 -0.000272 -0.000236  -0.822076 -0.727272 -1.245838
48  -0.000002 11.691974 -0.000006  -1.274399 0.720652 0.941650
49  0.000004 -0.000001 0.000000  2.939640 -0.000041 1.570856
50  -0.000006 -0.000015 0.000005  2.272644 -0.000030 1.570865
51  -4.420693 -6.330419 -7.893786  -0.094896 -2.987283 1.540062
52  -0.000001 0.000000 0.000000  0.008153 -0.000259 0.000009
53  0.000000 -0.000000 -0.000001  1.565115 0.043565 -0.106862
54  -1.160655 -19.172848 -5.912672  -0.923225 -0.213842 -1.968963
55  0.000001 0.000000 -0.000000  0.000000 -0.000000 -0.000002
56  0.000031 0.000029 0.000001  -1.571901 -0.044449 -0.106509
57  5.091632 -16.138317 -16.427357  1.570796 -0.000000 0.000000
58  -21.599098 7.001666 -12.508070  1.570796 -0.000000 0.000000
59  -0.670483 -3.588677 -4.109488  1.570796 -0.000000 0.000000
60  -0.004311 0.001230 -0.000371  0.006898 -0.005534 -0.284229
61  0.376268 6.572924 -2.887995  1.570796 -0.000000 0.000000
62  0.000000 0.000000 0.000000  -0.078727 -3.136056 0.284226
63  -3.127763 -3.808835 -0.720220  1.570796 -0.000000 0.000000
64  -3.050773 -13.453974 -1.876823  1.570467 0.000832 0.000329
65  -0.072955 -3.820800 -1.749354  -0.000000 0.000000 -0.000000
66  -0.668922 -1.211075 -0.466519  -0.000000 0.000000 -0.000000
67  -0.072953 -1.658653 21.597477  -0.000000 0.000000 -0.000000
68  0.539125 -3.409476 1.525823  -0.000000 0.000000 -0.000000
69  0.977269 -0.616456 2.421333  -0.000000 0.000000 -0.000000
70  -0.768074 -0.714321 2.967141  -0.000000 0.000000 -0.000000
71  -3.125317 -16.525852 -5.002830  1.570467 0.000832 0.000329
72  0.099490 0.870662 -0.144583  -0.000000 0.000000 -0.000000
73  -0.152365 0.482500 -0.144582  -0.000000 0.000000 -0.000000
74  0.098315 0.086894 -0.144582  -0.000000 0.000000 -0.000000
time 13
0  0.000006 0.000000 0.000000  -1.570800 -1.391899 -1.570792
1  -3.404175 4.262080 -0.674799  -1.544956 -1.855077 -0.198630
2  6.027523 -0.000323 0.000193  -1.004288 -0.891466 -1.303693
3  11.692108 0.000645 -0.000740  -0.970822 -0.000024 -1.526452
4  11.480248 0.000369 -0.000754  1.162727 -0.503537 0.277447
5  3.859510 -0.142879 -1.192050  -0.849067 -0.063765 -2.041914
6  1.312591 0.000011 0.000008  -0.137741 0.005688 -0.246758
7  0.729357 0.000053 0.000048  -0.007464 0.004648 -0.009220
8  3.942144 0.046274 -0.431512  -0.589883 0.233104 -1.492311
9  1.539110 0.000082 0.000004  -0.031655 0.014031 -0.854545
10  1.196334 0.000146 0.000029  -0.000113 0.007059 -0.341503
11  3.883505 -0.047269 0.431381  -0.284771 0.562134 -0.820192
12  1.719573 -0.000028 0.000014  0.059336 -0.060421 -1.540896
13  1.209179 0.000092 0.000010  -0.010720 0.004384 0.006587
14  4.085222 -0.082715 1.151040  0.083923 0.590486 -0.023839
15  1.719448 -0.000012 0.000021  -0.288320 0.336817 -1.327174
16  1.099674 0.000048 0.000007  -0.137716 0.053706 -1.193431
17  0.686692 -1.660586 0.827510  -0.980456 -0.615764 -0.268880
18  1.789820 -0.000005 -0.000018  0.000998 -0.014468 0.721478
19  1.207014 -0.000012 -0.000044  0.001593 -0.000026 -0.111145
20  5.740636 0.000410 -0.000700  -0.115483 0.000003 0.000071
21  11.481058 0.000286 -0.000807  -0.062061 -0.089044 0.022281
22  6.027524 -0.000329 0.000202  1.806866 -0.643276 1.456458
23  0.000002 11.692100 -0.000007  -1.045113 -0.490666 -0.820071
24  0.000003 0.000008 -0.000000  -0.101721 -0.000031 1.570739
25  -0.000001 -0.000011 -0.000000  0.868957 0.000002 1.570712
26  -4.011518 -5.954122 0.376267  1.473120 1.855075 -0.198639
27  6.027503 -0.000261 -0.000229  1.354538 0.577895 -0.295953
28  11.691991 0.000244 0.000856  0.667115 0.000078 -1.918606
29  11.478643 -0.000620 0.001540  -1.202752 0.850540 0.489395
30  3.452861 -0.227595 1.051754  0.880140 -0.000999 -2.098478
31  1.312558 0.000025 -0.000000  -0.027276 -0.015749 -0.190753
32  0.729345 0.000065 -0.000027  0.002011 -0.007393 -1.061347
33  3.942046 0.050109 0.430997  0.528640 -0.087932 -1.844853
34  1.539097 0.000011 0.000000  -0.011852 -0.046253 -0.633392
35  1.196298 0.000076 -0.000004  0.004231 -0.001992 -1.112650
36  3.883411 -0.050502 -0.431087  0.261984 -0.286055 -1.304978
37  1.719564 -0.000080 -0.000003  -0.029126 0.008047 -1.539001
38  1.209197 0.000036 0.000010  -0.000577 -0.002931 -0.376459
39  3.806436 -0.112148 -1.295330  -0.058045 -0.283242 -0.046308
40  1.719412 -0.000100 -0.000035  -0.002942 0.102417 -1.004957
41  1.099673 0.000025 0.000007  -0.013211 -0.002803 -0.836778
42  0.444468 -0.201854 -1.632532  1.078570 0.042834 -0.797255
43  1.789779 -0.000010 -0.000042  0.022641 0.004339 -0.048056
44  1.206996 -0.000007 0.000006  0.105921 0.121025 1.080897
45  5.740571 0.000055 0.000725  0.063611 -0.000014 0.000021
46  11.480673 -0.000088 0.001058  0.028839 0.158757 0.051014
47  6.027514 -0.000272 -0.000236  -0.820973 -0.728140 -1.246371
48  -0.000002 11.691973 -0.000007  -1.275965 0.722269 0.942305
49  0.000004 -0.000002 0.000001  2.939640 -0.000041 1.570856
50  -0.000006 -0.000015 0.000005  2.272644 -0.000030 1.570865
51  -4.419074 -6.305249 -7.891152  -0.093477 -2.987653 1.540037
52  0.000000 0.000000 -0.000001  0.008153 -0.000259 0.000009
53  -0.000001 -0.000000 -0.000000  1.565115 0.043565 -0.106862
54  -1.159356 -19.147696 -5.909625  -0.922023 -0.212994 -1.969025
55  -0.000000 0.000001 0.000000  0.000000 -0.000000 -0.000002
56  0.000029 0.000030 0.000001  -1.571901 -0.044449 -0.106509
57  5.091632 -16.138317 -16.427357  1.570796 -0.000000 0.000000
58  -21.599098 7.001666 -12.508070  1.570796 -0.000000 0.000000
59  -0.670483 -3.588677 -4.109488  1.570796 -0.000000 0.000000
60  -0.004311 0.001230 -0.000371  0.006898 -0.005534 -0.284229
61  0.376268 6.572924 -2.887995  1.570796 -0.000000 0.000000
62  0.000000 0.000000 0.000000  -0.078727 -3.136056 0.284226
63  -3.127763 -3.808835 -0.720220  1.570796 -0.000000 0.000000
64  -3.056277 -13.430504 -1.874584  1.570793 -0.000581 0.000522
65  -0.072955 -3.820801 -1.749356  -0.000000 0.000000 0.000000
66  -0.668922 -1.211075 -0.466522  -0.000000 0.000000 0.000000
67  -0.072953 -1.658653 21.597471  -0.000000 0.000000 0.000000
68  0.539125 -3.409476 1.525822  -0.000000 0.000000 0.000000
69  0.977269 -0.616456 2.421331  -0.000000 0.000000 0.000000
70  -0.768075 -0.714322 2.967141  -0.000000 0.000000 0.000000
71  -3.125813 -16.501375 -5.001696  1.570793 -0.000581 0.000522
72  0.099490 0.870662 -0.144580  -0.000000 0.000000 0.000000
73  -0.152366 0.482500 -0.144579  -0.000000 0.000000 0.000000
74  0.098315 0.086895 -0.144579  -0.000000 0.000000 0.000000
time 14
0  0.000006 0.000000 0.000000  -1.570800 -1.391899 -1.570792
1  -3.404175 4.262080 -0.674799  -1.544956 -1.855077 -0.198630
2  6.027523 -0.000323 0.000193  -1.003268 -0.892726 -1.304972
3  11.692108 0.000645 -0.000741  -0.970822 -0.000024 -1.523397
4  11.480272 0.000377 -0.000742  1.162178 -0.502366 0.276044
5  3.859508 -0.142880 -1.192049  -0.849067 -0.063765 -2.041914
6  1.312591 0.000012 0.000007  -0.137741 0.005688 -0.246758
7  0.729354 0.000054 0.000051  -0.007464 0.004648 -0.009220
8  3.942143 0.046274 -0.431511  -0.589883 0.233104 -1.492311
9  1.539110 0.000084 0.000005  -0.031655 0.014031 -0.854546
10  1.196334 0.000145 0.000030  -0.000113 0.007059 -0.341503
11  3.883505 -0.047268 0.431382  -0.284770 0.562134 -0.820192
12  1.719573 -0.000024 0.000014  0.059336 -0.060421 -1.540896
13  1.209178 0.000092 0.000014  -0.010720 0.004384 0.006587
14  4.085223 -0.082714 1.151041  0.083923 0.590486 -0.023839
15  1.719448 -0.000012 0.000023  -0.288320 0.336817 -1.327174
16  1.099675 0.000048 0.000005  -0.137716 0.053706 -1.193431
17  0.686693 -1.660586 0.827511  -0.980456 -0.615764 -0.268880
18  1.789820 -0.000004 -0.000017  0.000998 -0.014468 0.721478
19  1.207017 -0.000012 -0.000043  0.001593 -0.000026 -0.111145
20  5.740638 0.000410 -0.000702  -0.115450 0.000003 0.000071
21  11.481065 0.000288 -0.000806  -0.062262 -0.088791 0.022025
22  6.027524 -0.000329 0.000202  1.805538 -0.642345 1.456769
23  0.000001 11.692101 -0.000007  -1.043308 -0.488961 -0.818948
24  0.000004 0.000008 -0.000003  -0.101722 -0.000030 1.570739
25  -0.000000 -0.000011 -0.000000  0.868957 0.000002 1.570712
26  -4.011518 -5.954122 0.376267  1.473120 1.855075 -0.198639
27  6.027503 -0.000261 -0.000229  1.355867 0.578535 -0.295297
28  11.691991 0.000243 0.000856  0.667115 0.000078 -1.916619
29  11.478658 -0.000615 0.001534  -1.203451 0.848612 0.489047
30  3.452862 -0.227595 1.051755  0.880140 -0.000999 -2.098478
31  1.312558 0.000025 0.000000  -0.027276 -0.015749 -0.190753
32  0.729345 0.000065 -0.000026  0.002011 -0.007393 -1.061347
33  3.942047 0.050109 0.430997  0.528640 -0.087932 -1.844853
34  1.539097 0.000010 0.000001  -0.011852 -0.046253 -0.633392
35  1.196299 0.000076 -0.000004  0.004231 -0.001992 -1.112650
36  3.883412 -0.050502 -0.431086  0.261984 -0.286055 -1.304978
37  1.719564 -0.000079 -0.000004  -0.029126 0.008047 -1.539001
38  1.209198 0.000036 0.000011  -0.000577 -0.002931 -0.376459
39  3.806436 -0.112148 -1.295329  -0.058045 -0.283242 -0.046308
40  1.719411 -0.000099 -0.000034  -0.002942 0.102417 -1.004957
41  1.099673 0.000024 0.000007  -0.013211 -0.002803 -0.836778
42  0.444469 -0.201854 -1.632531  1.078570 0.042834 -0.797255
43  1.789780 -0.000009 -0.000043  0.022641 0.004339 -0.048056
44  1.206996 -0.000005 0.000005  0.105921 0.121025 1.080897
45  5.740571 0.000055 0.000723  0.063536 -0.000014 0.000021
46  11.480674 -0.000087 0.001055  0.028864 0.158365 0.051102
47  6.027514 -0.000272 -0.000236  -0.820805 -0.726862 -1.246553
48  -0.000002 11.691974 -0.000007  -1.274777 0.721041 0.941808
49  0.000003 -0.000001 -0.000001  2.939640 -0.000041 1.570856
50  -0.000006 -0.000015 0.000005  2.272644 -0.000030 1.570865
51  -4.429929 -6.327215 -7.884892  -0.094599 -2.987857 1.540155
52  0.000000 0.000000 0.000000  0.008153 -0.000259 0.000009
53  0.000001 -0.000000 0.000001  1.565115 0.043565 -0.106862
54  -1.168727 -19.170309 -5.910010  -0.923156 -0.213202 -1.968840
55  0.000001 0.000001 0.000000  0.000000 -0.000000 -0.000002
56  0.000031 0.000030 0.000001  -1.571902 -0.044449 -0.106509
57  5.091632 -16.138317 -16.427357  1.570796 -0.000000 0.000000
58  -21.599098 7.001666 -12.508070  1.570796 -0.000000 0.000000
59  -0.670483 -3.588677 -4.109488  1.570796 -0.000000 0.000000
60  -0.004311 0.001230 -0.000371  0.006898 -0.005534 -0.284229
61  0.376268 6.572924 -2.887995  1.570796 -0.000000 0.000000
62  0.000000 0.000000 0.000000  -0.078727 -3.136056 0.284226
63  -3.127763 -3.808835 -0.720220  1.570796 -0.000000 0.000000
64  -3.060888 -13.453974 -1.871523  1.571031 0.000521 0.000468
65  -0.072955 -3.820800 -1.749354  0.000000 0.000000 0.000000
66  -0.668922 -1.211075 -0.466521  0.000000 0.000000 0.000000
67  -0.072953 -1.658653 21.597475  0.000000 0.000000 0.000000
68  0.539125 -3.409477 1.525823  0.000000 0.000000 0.000000
69  0.977269 -0.616456 2.421333  0.000000 0.000000 0.000000
70  -0.768075 -0.714321 2.967142  -0.000000 0.000000 0.000000
71  -3.134037 -16.524097 -4.999285  1.571031 0.000521 0.000468
72  0.099490 0.870663 -0.144580  0.000000 0.000000 0.000000
73  -0.152365 0.482500 -0.144580  0.000000 0.000000 0.000000
74  0.098315 0.086895 -0.144580  0.000000 0.000000 0.000000
time 15
0  0.000006 0.000000 0.000000  -1.570800 -1.391899 -1.570792
1  -3.404175 4.262080 -0.674799  -1.544956 -1.855077 -0.198630
2  6.027523 -0.000323 0.000193  -1.001998 -0.895386 -1.307640
3  11.692108 0.000644 -0.000740  -0.970821 -0.000023 -1.516403
4  11.480329 0.000398 -0.000715  1.161829 -0.498766 0.273128
5  3.859509 -0.142881 -1.192049  -0.849067 -0.063765 -2.041914
6  1.312590 0.000011 0.000009  -0.137741 0.005688 -0.246758
7  0.729357 0.000053 0.000049  -0.007464 0.004648 -0.009220
8  3.942144 0.046272 -0.431512  -0.589883 0.233104 -1.492311
9  1.539112 0.000082 0.000005  -0.031655 0.014031 -0.854546
10  1.196333 0.000145 0.000028  -0.000113 0.007059 -0.341503
11  3.883506 -0.047270 0.431382  -0.284771 0.562134 -0.820192
12  1.719574 -0.000028 0.000015  0.059336 -0.060421 -1.540896
13  1.209179 0.000092 0.000012  -0.010720 0.004384 0.006587
14  4.085222 -0.082716 1.151041  0.083923 0.590486 -0.023839
15  1.719449 -0.000011 0.000022  -0.288320 0.336817 -1.327174
16  1.099677 0.000048 0.000007  -0.137716 0.053706 -1.193431
17  0.686693 -1.660588 0.827511  -0.980456 -0.615764 -0.268880
18  1.789821 -0.000003 -0.000018  0.000998 -0.014468 0.721478
19  1.207016 -0.000012 -0.000043  0.001593 -0.000026 -0.111145
20  5.740638 0.000411 -0.000703  -0.115039 0.000003 0.000071
21  11.481077 0.000293 -0.000800  -0.062576 -0.088019 0.021578
22  6.027524 -0.000329 0.000202  1.803388 -0.640167 1.456377
23  0.000001 11.692099 -0.000007  -1.039175 -0.485064 -0.816367
24  0.000002 0.000009 -0.000002  -0.101721 -0.000031 1.570739
25  -0.000000 -0.000012 -0.000000  0.868957 0.000002 1.570712
26  -4.011518 -5.954122 0.376267  1.473120 1.855075 -0.198639
27  6.027503 -0.000261 -0.000229  1.357857 0.580825 -0.294547
28  11.691993 0.000244 0.000856  0.667115 0.000078 -1.911268
29  11.478706 -0.000597 0.001523  -1.205511 0.845149 0.487139
30  3.452861 -0.227595 1.051753  0.880140 -0.000999 -2.098478
31  1.312558 0.000027 -0.000000  -0.027276 -0.015749 -0.190753
32  0.729345 0.000065 -0.000027  0.002011 -0.007393 -1.061347
33  3.942046 0.050109 0.430997  0.528640 -0.087932 -1.844853
34  1.539096 0.000010 -0.000000  -0.011852 -0.046253 -0.633392
35  1.196300 0.000076 -0.000005  0.004231 -0.001993 -1.112650
36  3.883411 -0.050501 -0.431087  0.261984 -0.286055 -1.304978
37  1.719563 -0.000079 -0.000003  -0.029126 0.008047 -1.539001
38  1.209198 0.000036 0.000011  -0.000577 -0.002931 -0.376459
39  3.806436 -0.112147 -1.295330  -0.058045 -0.283242 -0.046308
40  1.719412 -0.000100 -0.000035  -0.002942 0.102417 -1.004957
41  1.099674 0.000024 0.000007  -0.013211 -0.002803 -0.836778
42  0.444468 -0.201854 -1.632532  1.078570 0.042834 -0.797255
43  1.789780 -0.000010 -0.000043  0.022641 0.004339 -0.048056
44  1.206996 -0.000006 0.000006  0.105921 0.121025 1.080897
45  5.740571 0.000056 0.000724  0.063278 -0.000014 0.000021
46  11.480684 -0.000082 0.001054  0.028852 0.157614 0.051087
47  6.027514 -0.000272 -0.000236  -0.822004 -0.724177 -1.246097
48  -0.000002 11.691975 -0.000005  -1.271578 0.717739 0.940461
49  0.000003 -0.000001 -0.000001  2.939640 -0.000041 1.570856
50  -0.000007 -0.000015 0.000005  2.272644 -0.000030 1.570865
51  -4.443249 -6.382452 -7.878090  -0.096672 -2.987886 1.540343
52  0.000000 0.000000 -0.000001  0.008153 -0.000259 0.000009
53  -0.000000 -0.000000 -0.000000  1.565115 0.043565 -0.106862
54  -1.179668 -19.226147 -5.911062  -0.925123 -0.213910 -1.968552
55  -0.000001 -0.000001 0.000000  0.000000 -0.000000 -0.000002
56  0.000029 0.000028 0.000001  -1.571901 -0.044449 -0.106509
57  5.091632 -16.138317 -16.427357  1.570796 -0.000000 0.000000
58  -21.599098 7.001666 -12.508070  1.570796 -0.000000 0.000000
59  -0.670483 -3.588677 -4.109488  1.570796 -0.000000 0.000000
60  -0.004311 0.001230 -0.000371  0.006898 -0.005534 -0.284229
61  0.376268 6.572924 -2.887995  1.570796 -0.000000 0.000000
62  0.000000 0.000000 0.000000  -0.078727 -3.136056 0.284226
63  -3.127763 -3.808835 -0.720220  1.570796 -0.000000 0.000000
64  -3.062822 -13.509938 -1.868187  1.571123 0.002568 0.000339
65  -0.072955 -3.820800 -1.749356  -0.000000 -0.000000 0.000000
66  -0.668922 -1.211075 -0.466522  -0.000000 -0.000000 0.000000
67  -0.072953 -1.658653 21.597471  -0.000000 -0.000000 0.000000
68  0.539125 -3.409476 1.525822  -0.000000 -0.000000 0.000000
69  0.977269 -0.616455 2.421332  -0.000000 -0.000000 0.000000
70  -0.768074 -0.714321 2.967138  -0.000000 0.000000 0.000000
71  -3.142769 -16.579765 -4.996074  1.571123 0.002568 0.000339
72  0.099490 0.870663 -0.144583  -0.000000 -0.000000 0.000000
73  -0.152365 0.482501 -0.144582  -0.000000 -0.000000 0.000000
74  0.098315 0.086895 -0.144584  -0.000000 -0.000000 0.000000
time 16
0  0.000006 0.000000 0.000000  -1.570800 -1.391899 -1.570792
1  -3.404175 4.262080 -0.674799  -1.544956 -1.855077 -0.198630
2  6.027523 -0.000323 0.000193  -1.001461 -0.898377 -1.310598
3  11.692106 0.000644 -0.000740  -0.970821 -0.000023 -1.508390
4  11.480394 0.000421 -0.000679  1.162581 -0.494038 0.270810
5  3.859511 -0.142879 -1.192050  -0.849067 -0.063765 -2.041914
6  1.312589 0.000012 0.000007  -0.137741 0.005688 -0.246758
7  0.729358 0.000053 0.000048  -0.007464 0.004648 -0.009220
8  3.942144 0.046274 -0.431512  -0.589883 0.233104 -1.492311
9  1.539110 0.000085 0.000005  -0.031655 0.014031 -0.854546
10  1.196331 0.000146 0.000028  -0.000113 0.007059 -0.341503
11  3.883507 -0.047268 0.431381  -0.284771 0.562134 -0.820192
12  1.719573 -0.000025 0.000015  0.059336 -0.060421 -1.540895
13  1.209178 0.000091 0.000012  -0.010720 0.004384 0.006587
14  4.085226 -0.082714 1.151040  0.083923 0.590486 -0.023839
15  1.719448 -0.000012 0.000024  -0.288320 0.336817 -1.327174
16  1.099674 0.000047 0.000009  -0.137716 0.053706 -1.193431
17  0.686691 -1.660587 0.827510  -0.980456 -0.615764 -0.268880
18  1.789820 -0.000002 -0.000018  0.000999 -0.014468 0.721478
19  1.207015 -0.000012 -0.000044  0.001593 -0.000026 -0.111145
20  5.740638 0.000409 -0.000701  -0.114163 0.000003 0.000071
21  11.481089 0.000296 -0.000793  -0.062707 -0.087017 0.021350
22  6.027524 -0.000329 0.000202  1.801629 -0.637510 1.454887
23  0.000001 11.692099 -0.000007  -1.034436 -0.480611 -0.813394
24  0.000002 0.000009 -0.000001  -0.101721 -0.000031 1.570739
25  -0.000001 -0.000011 -0.000000  0.868957 0.000002 1.570712
26  -4.011518 -5.954122 0.376267  1.473120 1.855075 -0.198639
27  6.027503 -0.000261 -0.000229  1.359329 0.584331 -0.294303
28  11.691992 0.000242 0.000856  0.667115 0.000077 -1.904541
29  11.478767 -0.000574 0.001503  -1.206962 0.842077 0.484772
30  3.452862 -0.227595 1.051753  0.880140 -0.000999 -2.098478
31  1.312559 0.000025 0.000001  -0.027276 -0.015749 -0.190753
32  0.729346 0.000066 -0.000027  0.002011 -0.007393 -1.061347
33  3.942046 0.050109 0.430996  0.528640 -0.087932 -1.844853
34  1.539097 0.000010 0.000000  -0.011852 -0.046253 -0.633392
35  1.196299 0.000076 -0.000004  0.004231 -0.001993 -1.112650
36  3.883411 -0.050502 -0.431088  0.261984 -0.286055 -1.304978
37  1.719564 -0.000079 -0.000003  -0.029126 0.008047 -1.539001
38  1.209197 0.000036 0.000011  -0.000577 -0.002931 -0.376459
39  3.806435 -0.112148 -1.295330  -0.058044 -0.283242 -0.046308
40  1.719411 -0.000099 -0.000035  -0.002942 0.102417 -1.004957
41  1.099672 0.000024 0.000007  -0.013211 -0.002803 -0.836778
42  0.444468 -0.201854 -1.632533  1.078570 0.042834 -0.797255
43  1.789779 -0.000010 -0.000041  0.022641 0.004339 -0.048056
44  1.206997 -0.000006 0.000005  0.105921 0.121025 1.080897
45  5.740572 0.000055 0.000724  0.063122 -0.000014 0.000021
46  11.480698 -0.000080 0.001050  0.028947 0.156951 0.050916
47  6.027514 -0.000272 -0.000236  -0.824857 -0.721140 -1.244776
48  -0.000001 11.691973 -0.000006  -1.267560 0.713591 0.938754
49  0.000004 -0.000001 -0.000001  2.939640 -0.000041 1.570856
50  -0.000007 -0.000015 0.000005  2.272644 -0.000030 1.570865
51  -4.446720 -6.449547 -7.874112  -0.097784 -2.987767 1.540359
52  -0.000001 -0.000000 -0.000000  0.008153 -0.000259 0.000009
53  -0.000001 -0.000000 -0.000001  1.565115 0.043565 -0.106862
54  -1.182955 -19.293579 -5.909587  -0.926129 -0.214416 -1.968492
55  0.000000 0.000000 0.000000  0.000000 -0.000000 -0.000002
56  0.000030 0.000029 0.000001  -1.571901 -0.044449 -0.106509
57  5.091632 -16.138317 -16.427357  1.570796 -0.000000 0.000000
58  -21.599098 7.001666 -12.508070  1.570796 -0.000000 0.000000
59  -0.670483 -3.588677 -4.109488  1.570796 -0.000000 0.000000
60  -0.004311 0.001230 -0.000371  0.006898 -0.005534 -0.284229
61  0.376268 6.572924 -2.887995  1.570796 -0.000000 0.000000
62  0.000000 0.000000 0.000000  -0.078727 -3.136056 0.284226
63  -3.127763 -3.808835 -0.720220  1.570796 -0.000000 0.000000
64  -3.060771 -13.576735 -1.865126  1.571039 0.003670 0.000185
65  -0.072955 -3.820800 -1.749355  0.000000 0.000000 -0.000000
66  -0.668922 -1.211075 -0.466520  0.000000 0.000000 -0.000000
67  -0.072953 -1.658653 21.597471  0.000000 0.000000 -0.000000
68  0.539125 -3.409477 1.525823  0.000000 0.000000 -0.000000
69  0.977269 -0.616455 2.421333  0.000000 0.000000 -0.000000
70  -0.768075 -0.714321 2.967141  -0.000000 0.000000 -0.000000
71  -3.144639 -16.646816 -4.992662  1.571039 0.003670 0.000185
72  0.099490 0.870662 -0.144580  0.000000 0.000000 -0.000000
73  -0.152365 0.482500 -0.144581  0.000000 0.000000 -0.000000
74  0.098315 0.086895 -0.144582  0.000000 0.000000 -0.000000
time 17
0  0.000006 0.000000 0.000000  -1.570800 -1.391899 -1.570792
1  -3.404175 4.262080 -0.674799  -1.544956 -1.855077 -0.198630
2  6.027523 -0.000323 0.000193  -1.002358 -0.900676 -1.312790
3  11.692107 0.000644 -0.000740  -0.970821 -0.000022 -1.502232
4  11.480444 0.000439 -0.000654  1.165280 -0.489712 0.271171
5  3.859508 -0.142879 -1.192049  -0.849067 -0.063765 -2.041914
6  1.312587 0.000011 0.000011  -0.137741 0.005688 -0.246758
7  0.729355 0.000054 0.000049  -0.007464 0.004648 -0.009220
8  3.942141 0.046273 -0.431511  -0.589883 0.233104 -1.492311
9  1.539109 0.000085 0.000006  -0.031655 0.014031 -0.854546
10  1.196330 0.000145 0.000030  -0.000113 0.007059 -0.341503
11  3.883503 -0.047269 0.431382  -0.284771 0.562134 -0.820192
12  1.719573 -0.000027 0.000014  0.059336 -0.060421 -1.540895
13  1.209178 0.000091 0.000011  -0.010720 0.004384 0.006587
14  4.085222 -0.082714 1.151041  0.083923 0.590486 -0.023839
15  1.719448 -0.000010 0.000022  -0.288320 0.336817 -1.327174
16  1.099675 0.000048 0.000005  -0.137716 0.053706 -1.193431
17  0.686690 -1.660586 0.827511  -0.980456 -0.615764 -0.268880
18  1.789820 -0.000004 -0.000019  0.000998 -0.014468 0.721478
19  1.207016 -0.000012 -0.000044  0.001593 -0.000026 -0.111145
20  5.740635 0.000410 -0.000702  -0.112760 0.000003 0.000070
21  11.481095 0.000301 -0.000788  -0.062359 -0.086120 0.021730
22  6.027524 -0.000329 0.000202  1.801224 -0.635166 1.452233
23  0.000001 11.692097 -0.000006  -1.030791 -0.477198 -0.811098
24  0.000004 0.000008 -0.000003  -0.101721 -0.000031 1.570738
25  -0.000001 -0.000011 0.000000  0.868957 0.000002 1.570712
26  -4.011518 -5.954122 0.376267  1.473120 1.855075 -0.198639
27  6.027503 -0.000261 -0.000229  1.359311 0.588387 -0.295021
28  11.691992 0.000244 0.000855  0.667115 0.000077 -1.898571
29  11.478821 -0.000553 0.001487  -1.205527 0.841097 0.483253
30  3.452861 -0.227595 1.051755  0.880140 -0.000999 -2.098478
31  1.312558 0.000026 0.000000  -0.027276 -0.015749 -0.190753
32  0.729345 0.000066 -0.000027  0.002011 -0.007393 -1.061347
33  3.942046 0.050109 0.430996  0.528640 -0.087932 -1.844853
34  1.539097 0.000008 0.000000  -0.011852 -0.046253 -0.633392
35  1.196299 0.000077 -0.000004  0.004231 -0.001993 -1.112650
36  3.883411 -0.050502 -0.431087  0.261984 -0.286055 -1.304978
37  1.719564 -0.000077 -0.000003  -0.029126 0.008047 -1.539001
38  1.209197 0.000036 0.000011  -0.000577 -0.002931 -0.376459
39  3.806436 -0.112148 -1.295330  -0.058045 -0.283242 -0.046308
40  1.719414 -0.000100 -0.000034  -0.002942 0.102417 -1.004957
41  1.099673 0.000025 0.000006  -0.013211 -0.002803 -0.836778
42  0.444468 -0.201854 -1.632533  1.078570 0.042834 -0.797255
43  1.789780 -0.000008 -0.000042  0.022641 0.004339 -0.048056
44  1.206996 -0.000007 0.000006  0.105921 0.121025 1.080897
45  5.740573 0.000055 0.000723  0.063408 -0.000014 0.000021
46  11.480711 -0.000075 0.001047  0.029353 0.156791 0.050562
47  6.027514 -0.000272 -0.000236  -0.829254 -0.718790 -1.242585
48  -0.000001 11.691973 -0.000006  -1.264000 0.709915 0.937225
49  0.000003 -0.000001 0.000000  2.939640 -0.000041 1.570856
50  -0.000007 -0.000015 0.000005  2.272644 -0.000030 1.570865
51  -4.430954 -6.506277 -7.875525  -0.095923 -2.987666 1.539944
52  -0.000000 0.000000 -0.000001  0.008153 -0.000259 0.000009
53  0.000000 0.000000 -0.000000  1.565115 0.043565 -0.106862
54  -1.172470 -19.350422 -5.902997  -0.924336 -0.213849 -1.969003
55  0.000002 -0.000000 -0.000000  0.000000 -0.000000 -0.000002
56  0.000032 0.000029 0.000001  -1.571901 -0.044449 -0.106509
57  5.091632 -16.138317 -16.427357  1.570796 -0.000000 0.000000
58  -21.599098 7.001666 -12.508070  1.570796 -0.000000 0.000000
59  -0.670483 -3.588677 -4.109488  1.570796 -0.000000 0.000000
60  -0.004311 0.001230 -0.000371  0.006898 -0.005534 -0.284229
61  0.376268 6.572924 -2.887995  1.570796 -0.000000 0.000000
62  0.000000 0.000000 0.000000  -0.078727 -3.136056 0.284226
63  -3.127763 -3.808835 -0.720220  1.570796 -0.000000 0.000000
64  -3.056961 -13.632700 -1.862887  1.570881 0.001835 0.000054
65  -0.072955 -3.820800 -1.749356  -0.000000 -0.000000 0.000000
66  -0.668922 -1.211075 -0.466521  -0.000000 -0.000000 0.000000
67  -0.072953 -1.658653 21.597469  -0.000000 -0.000000 0.000000
68  0.539125 -3.409477 1.525822  -0.000000 -0.000000 0.000000
69  0.977269 -0.616456 2.421331  -0.000000 -0.000000 0.000000
70  -0.768074 -0.714321 2.967139  -0.000000 0.000000 0.000000
71  -3.135489 -16.703262 -4.990089  1.570881 0.001835 0.000054
72  0.099490 0.870662 -0.144583  -0.000000 -0.000000 0.000000
73  -0.152366 0.482500 -0.144585  -0.000000 -0.000000 0.000000
74  0.098315 0.086895 -0.144584  -0.000000 -0.000000 0.000000
time 18
0  0.000006 0.000000 0.000000  -1.570800 -1.391899 -1.570792
1  -3.404175 4.262080 -0.674799  -1.544956 -1.855077 -0.198630
2  6.027523 -0.000323 0.000193  -1.003221 -0.901571 -1.313606
3  11.692109 0.000645 -0.000741  -0.970821 -0.000022 -1.499856
4  11.480466 0.000447 -0.000642  1.167202 -0.487787 0.272203
5  3.859509 -0.142880 -1.192049  -0.849067 -0.063765 -2.041914
6  1.312588 0.000011 0.000009  -0.137741 0.005688 -0.246758
7  0.729357 0.000054 0.000049  -0.007464 0.004648 -0.009220
8  3.942144 0.046273 -0.431511  -0.589883 0.233104 -1.492311
9  1.539112 0.000083 0.000006  -0.031655 0.014031 -0.854546
10  1.196334 0.000146 0.000030  -0.000113 0.007059 -0.341503
11  3.883505 -0.047269 0.431382  -0.284771 0.562134 -0.820192
12  1.719573 -0.000026 0.000015  0.059336 -0.060421 -1.540896
13  1.209177 0.000091 0.000013  -0.010720 0.004384 0.006587
14  4.085223 -0.082714 1.151041  0.083923 0.590486 -0.023839
15  1.719449 -0.000012 0.000023  -0.288320 0.336817 -1.327174
16  1.099674 0.000050 0.000007  -0.137716 0.053706 -1.193431
17  0.686695 -1.660587 0.827512  -0.980456 -0.615764 -0.268880
18  1.789820 -0.000001 -0.000018  0.000998 -0.014468 0.721478
19  1.207013 -0.000012 -0.000045  0.001593 -0.000026 -0.111145
20  5.740636 0.000410 -0.000702  -0.111918 0.000003 0.000071
21  11.481103 0.000302 -0.000785  -0.062039 -0.085727 0.022106
22  6.027524 -0.000329 0.000202  1.801434 -0.634137 1.450616
23  0.000001 11.692100 -0.000007  -1.029384 -0.475883 -0.810210
24  0.000004 0.000009 0.000001  -0.101721 -0.000031 1.570739
25  -0.000000 -0.000011 -0.000000  0.868957 0.000002 1.570712
26  -4.011518 -5.954122 0.376267  1.473120 1.855075 -0.198639
27  6.027503 -0.000261 -0.000229  1.358851 0.590494 -0.295658
28  11.691991 0.000242 0.000856  0.667115 0.000076 -1.895955
29  11.478842 -0.000546 0.001479  -1.203874 0.841268 0.482822
30  3.452862 -0.227595 1.051753  0.880140 -0.000999 -2.098478
31  1.312558 0.000026 0.000001  -0.027276 -0.015749 -0.190753
32  0.729346 0.000065 -0.000027  0.002011 -0.007393 -1.061347
33  3.942047 0.050109 0.430996  0.528640 -0.087932 -1.844853
34  1.539096 0.000009 -0.000000  -0.011852 -0.046253 -0.633392
35  1.196299 0.000075 -0.000004  0.004231 -0.001992 -1.112650
36  3.883412 -0.050502 -0.431087  0.261984 -0.286055 -1.304978
37  1.719564 -0.000077 -0.000004  -0.029126 0.008047 -1.539001
38  1.209197 0.000036 0.000011  -0.000577 -0.002931 -0.376459
39  3.806436 -0.112148 -1.295330  -0.058044 -0.283242 -0.046308
40  1.719412 -0.000100 -0.000035  -0.002942 0.102417 -1.004957
41  1.099673 0.000024 0.000007  -0.013211 -0.002803 -0.836778
42  0.444470 -0.201854 -1.632533  1.078570 0.042834 -0.797255
43  1.789780 -0.000010 -0.000042  0.022641 0.004339 -0.048056
44  1.206996 -0.000006 0.000005  0.105921 0.121025 1.080897
45  5.740573 0.000054 0.000724  0.063693 -0.000014 0.000021
46  11.480714 -0.000074 0.001046  0.029654 0.156871 0.050336
47  6.027514 -0.000272 -0.000236  -0.831822 -0.717869 -1.241277
48  -0.000001 11.691974 -0.000007  -1.262441 0.708305 0.936552
49  0.000004 0.000000 0.000000  2.939640 -0.000041 1.570856
50  -0.000007 -0.000015 0.000005  2.272644 -0.000030 1.570865
51  -4.417479 -6.530182 -7.877772  -0.094065 -2.987638 1.539605
52  0.000000 -0.000000 -0.000000  0.008153 -0.000259 0.000009
53  0.000000 0.000000 -0.000000  1.565115 0.043565 -0.106862
54  -1.163319 -19.374338 -5.898180  -0.922571 -0.213216 -1.969431
55  -0.000001 0.000001 0.000001  0.000000 -0.000000 -0.000002
56  0.000029 0.000030 0.000001  -1.571901 -0.044449 -0.106509
57  5.091632 -16.138317 -16.427357  1.570796 -0.000000 0.000000
58  -21.599098 7.001666 -12.508070  1.570796 -0.000000 0.000000
59  -0.670483 -3.588677 -4.109488  1.570796 -0.000000 0.000000
60  -0.004311 0.001230 -0.000371  0.006898 -0.005534 -0.284229
61  0.376268 6.572924 -2.887995  1.570796 -0.000000 0.000000
62  0.000000 0.000000 0.000000  -0.078727 -3.136056 0.284226
63  -3.127763 -3.808835 -0.720220  1.570796 -0.000000 0.000000
64  -3.054910 -13.656169 -1.862019  1.570796 -0.000000 0.000000
65  -0.072955 -3.820800 -1.749356  0.000000 -0.000000 0.000000
66  -0.668922 -1.211075 -0.466521  0.000000 -0.000000 0.000000
67  -0.072953 -1.658653 21.597469  0.000000 -0.000000 0.000000
68  0.539125 -3.409476 1.525823  0.000000 -0.000000 0.000000
69  0.977269 -0.616456 2.421330  0.000000 -0.000000 0.000000
70  -0.768075 -0.714321 2.967141  -0.000000 0.000000 -0.000000
71  -3.127865 -16.726994 -4.989100  1.570796 -0.000000 0.000000
72  0.099490 0.870662 -0.144583  0.000000 -0.000000 0.000000
73  -0.152365 0.482500 -0.144585  0.000000 -0.000000 0.000000
74  0.098315 0.086895 -0.144583  0.000000 -0.000000 0.000000
end
