version 1
nodes
0 "ValveBiped.Bip01_Spine4" -1
1 "ValveBiped.Bip01_L_Clavicle" 0
2 "ValveBiped.Bip01_L_UpperArm" 1
3 "ValveBiped.Bip01_L_Forearm" 2
4 "ValveBiped.Bip01_L_Hand" 3
5 "ValveBiped.Bip01_L_Finger4" 4
6 "ValveBiped.Bip01_L_Finger41" 5
7 "ValveBiped.Bip01_L_Finger42" 6
8 "ValveBiped.Bip01_L_Finger3" 4
9 "ValveBiped.Bip01_L_Finger31" 8
10 "ValveBiped.Bip01_L_Finger32" 9
11 "ValveBiped.Bip01_L_Finger2" 4
12 "ValveBiped.Bip01_L_Finger21" 11
13 "ValveBiped.Bip01_L_Finger22" 12
14 "ValveBiped.Bip01_L_Finger1" 4
15 "ValveBiped.Bip01_L_Finger11" 14
16 "ValveBiped.Bip01_L_Finger12" 15
17 "ValveBiped.Bip01_L_Finger0" 4
18 "ValveBiped.Bip01_L_Finger01" 17
19 "ValveBiped.Bip01_L_Finger02" 18
20 "ValveBiped.Bip01_L_Ulna" 3
21 "ValveBiped.Bip01_L_Wrist" 3
22 "rig_l_upperarm" 1
23 "rig_l_forearm" 22
24 "rig_d_l_forearm" 23
25 "rig_d_l_upperarm" 22
26 "ValveBiped.Bip01_R_Clavicle" 0
27 "ValveBiped.Bip01_R_UpperArm" 26
28 "ValveBiped.Bip01_R_Forearm" 27
29 "ValveBiped.Bip01_R_Hand" 28
30 "ValveBiped.Bip01_R_Finger4" 29
31 "ValveBiped.Bip01_R_Finger41" 30
32 "ValveBiped.Bip01_R_Finger42" 31
33 "ValveBiped.Bip01_R_Finger3" 29
34 "ValveBiped.Bip01_R_Finger31" 33
35 "ValveBiped.Bip01_R_Finger32" 34
36 "ValveBiped.Bip01_R_Finger2" 29
37 "ValveBiped.Bip01_R_Finger21" 36
38 "ValveBiped.Bip01_R_Finger22" 37
39 "ValveBiped.Bip01_R_Finger1" 29
40 "ValveBiped.Bip01_R_Finger11" 39
41 "ValveBiped.Bip01_R_Finger12" 40
42 "ValveBiped.Bip01_R_Finger0" 29
43 "ValveBiped.Bip01_R_Finger01" 42
44 "ValveBiped.Bip01_R_Finger02" 43
45 "ValveBiped.Bip01_R_Ulna" 28
46 "ValveBiped.Bip01_R_Wrist" 28
47 "rig_r_upperarm" 26
48 "rig_r_forearm" 47
49 "rig_d_r_forearm" 48
50 "rig_d_r_upperarm" 47
51 "rig_r_hand" -1
52 "rig_d_r_hand" 51
53 "rig_d_r_wrist" 52
54 "rig_l_hand" -1
55 "rig_d_l_hand" 54
56 "rig_d_l_wrist" 54
57 "rig_l_pole" -1
58 "rig_r_pole" -1
59 "rig_l_clavicle" -1
60 "rig_d_l_clavicle" 59
61 "rig_r_clavicle" -1
62 "rig_d_r_clavicle" 61
63 "Camera" -1
64 "body" -1
65 "trigger" 64
66 "bolt" 64
67 "barrel" 64
68 "magrel" 64
69 "chandle" 64
70 "mag" -1
71 "bullet1" 70
72 "bullet2" 70
73 "bullet3" 70
end
skeleton
time 0
0  0.000006 0.000000 0.000000  -1.570800 -1.391899 -1.570792
1  -3.865520 -0.192010 1.061693  -1.544956 -1.855077 -0.198630
2  6.027524 -0.000324 0.000193  -0.806973 -1.018528 -1.498228
3  11.692111 0.000643 -0.000740  -1.152275 -0.000011 -1.281180
4  11.480656 0.000618 -0.000416  1.223865 -0.568177 0.097317
5  3.859507 -0.142881 -1.192050  -0.574847 -0.304757 -1.777058
6  1.312590 0.000011 0.000007  -0.135527 0.003032 -0.200649
7  0.729356 0.000054 0.000049  -0.007831 -0.008960 -0.022519
8  3.942143 0.046272 -0.431512  -0.457086 0.163431 -1.133683
9  1.539111 0.000084 0.000006  -0.017952 -0.090240 -0.838237
10  1.196332 0.000146 0.000030  0.007751 0.004719 -0.800508
11  3.883505 -0.047270 0.431381  -0.247524 0.550882 -0.402952
12  1.719573 -0.000028 0.000016  0.037135 -0.100044 -1.334548
13  1.209178 0.000090 0.000013  -0.008755 -0.005102 -0.561727
14  4.085221 -0.082716 1.151040  0.033614 0.611304 -0.075125
15  1.719449 -0.000012 0.000022  0.001103 -0.029631 -0.766789
16  1.099676 0.000049 0.000006  -0.071025 0.044021 -1.321117
17  1.059852 -1.545955 0.873884  -0.919590 -0.590284 -0.357361
18  1.789819 -0.000003 -0.000018  -0.000001 -0.009377 0.757284
19  1.207014 -0.000012 -0.000044  0.001023 -0.000036 -0.104165
20  5.740639 0.000410 -0.000703  -0.110291 0.000003 0.000071
21  11.481140 0.000336 -0.000741  -0.055125 -0.096011 -0.011488
22  6.027525 -0.000330 0.000203  1.635379 -0.548953 1.520039
23  0.000003 11.692100 -0.000007  -0.897889 -0.359999 -0.722230
24  0.000004 0.000008 -0.000001  -0.283187 -0.000030 1.570739
25  -0.000000 -0.000011 -0.000000  0.868957 0.000002 1.570712
26  -4.011518 -5.954122 0.376267  1.473120 1.855075 -0.198639
27  6.027503 -0.000262 -0.000228  1.505425 0.620165 -0.212262
28  11.691992 0.000244 0.000856  0.667115 0.000073 -1.851421
29  11.479233 -0.000380 0.001351  -1.157227 0.367148 0.382118
30  3.452863 -0.227596 1.051754  0.533352 -0.149658 -1.651757
31  1.312558 0.000026 -0.000000  -0.001011 0.013749 -0.916589
32  0.729346 0.000066 -0.000026  -0.019742 -0.002873 -0.520299
33  3.942049 0.050107 0.430996  0.518335 -0.132557 -1.624414
34  1.539093 0.000009 -0.000000  -0.006678 -0.030360 -0.846057
35  1.196299 0.000076 -0.000004  0.001767 -0.002530 -0.866091
36  3.883411 -0.050504 -0.431088  0.268299 -0.273603 -1.261072
37  1.719563 -0.000080 -0.000004  -0.029197 0.025493 -1.449554
38  1.209195 0.000036 0.000011  -0.002172 -0.002925 -0.376412
39  3.245587 -0.145575 -1.308862  0.045911 0.028174 0.055241
40  1.719413 -0.000100 -0.000036  -0.109220 0.124551 -1.492957
41  1.099674 0.000030 0.000008  0.003677 -0.001213 -0.900134
42  0.594008 -0.285204 -1.857800  1.075925 0.014236 -0.875502
43  1.789780 -0.000012 -0.000043  0.020386 0.054042 -0.056213
44  1.206997 -0.000007 0.000003  0.112046 0.059847 1.317350
45  5.740572 0.000056 0.000724  0.089252 -0.000014 0.000021
46  11.480791 -0.000040 0.001021  0.068572 0.065497 0.048002
47  6.027514 -0.000272 -0.000236  -0.781431 -0.600331 -1.272313
48  -0.000001 11.691974 -0.000006  -1.236001 0.681029 0.924725
49  0.000002 -0.000000 0.000002  2.939640 -0.000041 1.570856
50  -0.000007 -0.000015 0.000005  2.272644 -0.000030 1.570865
51  -5.152637 -7.258383 -6.491005  3.065386 -0.111899 -1.209351
52  -0.000001 -0.000000 0.000000  0.008153 -0.000259 0.000009
53  0.000000 -0.000001 -0.000001  1.565115 0.043565 -0.106862
54  -0.945260 -16.016220 -5.013051  -1.091683 -0.164285 -1.908694
55  -0.000001 -0.000001 -0.000000  0.000000 -0.000000 -0.000002
56  0.000029 0.000028 0.000001  -1.571902 -0.044449 -0.106509
57  5.661260 -16.060535 -17.872917  1.570796 -0.000000 0.000000
58  -21.599098 7.001666 -12.508070  1.570796 -0.000000 0.000000
59  1.066008 0.876422 -3.770892  1.570796 -0.000000 0.000000
60  -0.004311 0.001230 -0.000371  0.006898 -0.005534 -0.284229
61  0.376268 6.572924 -2.887995  1.570796 -0.000000 0.000000
62  0.000000 0.000000 0.000000  -0.078727 -3.136056 0.284226
63  0.000000 0.000000 0.000000  1.570796 -0.000000 0.000000
64  -2.635804 -8.935471 -1.763066  1.549086 0.053723 0.014481
65  0.000000 -2.755923 1.840479  -0.000000 0.000000 0.000000
66  -0.000306 -1.332276 -5.672090  -0.000000 0.000000 0.000000
67  -0.001517 -1.253476 20.838211  -0.000000 0.000000 0.000000
68  0.585406 -2.133195 -6.588481  -0.000000 0.000000 0.000000
69  0.000000 0.419707 7.832313  -0.000000 0.000000 0.000000
70  -2.891576 -2.600216 -4.860515  1.549086 0.053723 0.014481
71  -0.113746 1.326355 2.565982  -0.000000 0.000000 0.000000
72  0.120338 1.215165 2.565982  -0.000000 0.000000 0.000000
73  -0.096187 1.080566 2.565982  -0.000000 0.000000 0.000000
time 1
0  0.000006 0.000000 0.000000  -1.570800 -1.391899 -1.570792
1  -3.865520 -0.192010 1.061693  -1.544956 -1.855077 -0.198630
2  6.027524 -0.000324 0.000193  -0.811790 -0.997095 -1.465439
3  11.692110 0.000644 -0.000739  -1.152279 -0.000016 -1.365958
4  11.480070 0.000486 -0.000712  1.191243 -0.609681 0.084558
5  3.859509 -0.142880 -1.192050  -0.574848 -0.304757 -1.777058
6  1.312591 0.000012 0.000007  -0.135527 0.003032 -0.200649
7  0.729354 0.000054 0.000049  -0.007831 -0.008960 -0.022519
8  3.942143 0.046273 -0.431512  -0.457086 0.163431 -1.133683
9  1.539110 0.000082 0.000005  -0.017952 -0.090240 -0.838237
10  1.196332 0.000145 0.000029  0.007751 0.004719 -0.800508
11  3.883504 -0.047270 0.431381  -0.247524 0.550882 -0.402952
12  1.719573 -0.000027 0.000014  0.037135 -0.100044 -1.334548
13  1.209179 0.000090 0.000010  -0.008755 -0.005102 -0.561727
14  4.085223 -0.082716 1.151041  0.033614 0.611304 -0.075125
15  1.719450 -0.000011 0.000022  0.001103 -0.029631 -0.766789
16  1.099676 0.000049 0.000006  -0.071025 0.044021 -1.321117
17  1.059851 -1.545954 0.873884  -0.881574 -0.659048 -0.419405
18  1.789820 -0.000002 -0.000018  -0.001780 -0.013171 0.952926
19  1.207015 -0.000012 -0.000043  0.001443 -0.000092 -0.057897
20  5.740638 0.000411 -0.000702  -0.128974 0.000003 0.000071
21  11.481024 0.000310 -0.000799  -0.060656 -0.104212 -0.017229
22  6.027525 -0.000330 0.000203  1.641591 -0.569888 1.545457
23  0.000002 11.692101 -0.000008  -0.949400 -0.403660 -0.757780
24  0.000005 0.000008 -0.000002  -0.283187 -0.000030 1.570739
25  -0.000001 -0.000011 -0.000001  0.868957 0.000002 1.570712
26  -4.011518 -5.954122 0.376267  1.473120 1.855075 -0.198639
27  6.027503 -0.000262 -0.000228  1.512136 0.580576 -0.206360
28  11.691991 0.000244 0.000855  0.667115 0.000079 -1.929485
29  11.478545 -0.000654 0.001565  -1.186250 0.388466 0.420874
30  3.452863 -0.227596 1.051757  0.533352 -0.149658 -1.651757
31  1.312559 0.000027 -0.000001  -0.001011 0.013749 -0.916589
32  0.729346 0.000065 -0.000028  -0.019742 -0.002873 -0.520299
33  3.942049 0.050107 0.430998  0.518335 -0.132557 -1.624414
34  1.539093 0.000009 -0.000000  -0.006678 -0.030360 -0.846057
35  1.196298 0.000076 -0.000004  0.001767 -0.002530 -0.866091
36  3.883413 -0.050504 -0.431086  0.268299 -0.273603 -1.261072
37  1.719563 -0.000081 -0.000003  -0.029198 0.025493 -1.449554
38  1.209194 0.000036 0.000011  -0.002172 -0.002925 -0.376412
39  3.245587 -0.145575 -1.308860  0.045911 0.028174 0.055241
40  1.719414 -0.000099 -0.000037  -0.109220 0.124551 -1.492957
41  1.099674 0.000029 0.000008  0.003677 -0.001213 -0.900134
42  0.594009 -0.285203 -1.857798  1.075925 0.014236 -0.875502
43  1.789780 -0.000011 -0.000044  0.020386 0.054042 -0.056213
44  1.206997 -0.000006 0.000003  0.112046 0.059847 1.317350
45  5.740571 0.000054 0.000723  0.084860 -0.000014 0.000021
46  11.480652 -0.000096 0.001063  0.061031 0.069645 0.056130
47  6.027514 -0.000272 -0.000236  -0.735817 -0.614298 -1.296237
48  -0.000001 11.691974 -0.000006  -1.282482 0.728995 0.945004
49  0.000002 -0.000000 -0.000000  2.939640 -0.000041 1.570856
50  -0.000007 -0.000015 0.000005  2.272644 -0.000030 1.570865
51  -5.212214 -6.537755 -6.352355  3.023338 -0.110994 -1.212803
52  0.000001 -0.000000 -0.000000  0.008153 -0.000259 0.000009
53  0.000000 -0.000000 0.000001  1.565115 0.043565 -0.106862
54  -1.018677 -15.309552 -4.918538  -1.124777 -0.190475 -1.910983
55  0.000000 -0.000001 -0.000000  0.000000 -0.000000 -0.000002
56  0.000031 0.000029 0.000001  -1.571901 -0.044449 -0.106509
57  5.661260 -16.060535 -17.872917  1.570796 -0.000000 0.000000
58  -21.599098 7.001666 -12.508070  1.570796 -0.000000 0.000000
59  1.066008 0.876422 -3.770892  1.570796 -0.000000 0.000000
60  -0.004311 0.001230 -0.000371  0.006898 -0.005534 -0.284229
61  0.376268 6.572924 -2.887995  1.570796 -0.000000 0.000000
62  0.000000 0.000000 0.000000  -0.078727 -3.136056 0.284226
63  0.000000 0.000000 0.000000  1.570796 -0.000000 0.000000
64  -2.523953 -8.171002 -1.704105  1.535580 0.093290 0.005360
65  0.000000 -2.755923 1.840477  0.000000 -0.000000 0.000000
66  -0.000306 -1.332276 -1.998147  0.000000 -0.000000 0.000000
67  -0.001517 -1.253476 20.838205  0.000000 -0.000000 0.000000
68  0.585406 -2.133196 -6.588482  0.000000 -0.000000 0.000000
69  -0.000000 0.419707 3.354275  0.000000 -0.000000 0.000000
70  -2.852042 -1.876845 -4.877589  1.535580 0.093290 0.005360
71  -0.113746 1.326355 2.565981  0.000000 -0.000000 0.000000
72  0.120338 1.215165 2.565981  0.000000 -0.000000 0.000000
73  -0.096187 1.080565 2.565981  0.000000 -0.000000 0.000000
time 2
0  0.000006 0.000000 0.000000  -1.570800 -1.391899 -1.570792
1  -3.865520 -0.192010 1.061693  -1.544956 -1.855077 -0.198630
2  6.027524 -0.000324 0.000193  -0.803367 -1.002430 -1.474983
3  11.692109 0.000643 -0.000740  -1.152279 -0.000015 -1.356902
4  11.480125 0.000497 -0.000682  1.191070 -0.607115 0.096527
5  3.859510 -0.142880 -1.192049  -0.574847 -0.304757 -1.777058
6  1.312590 0.000010 0.000007  -0.135527 0.003032 -0.200649
7  0.729355 0.000054 0.000050  -0.007831 -0.008960 -0.022519
8  3.942143 0.046272 -0.431512  -0.457086 0.163431 -1.133683
9  1.539111 0.000082 0.000005  -0.017952 -0.090240 -0.838237
10  1.196332 0.000147 0.000030  0.007751 0.004719 -0.800508
11  3.883506 -0.047270 0.431381  -0.247524 0.550882 -0.402951
12  1.719573 -0.000027 0.000014  0.037135 -0.100044 -1.334548
13  1.209180 0.000092 0.000012  -0.008755 -0.005102 -0.561727
14  4.085225 -0.082715 1.151041  0.033614 0.611304 -0.075125
15  1.719448 -0.000013 0.000020  0.001103 -0.029631 -0.766789
16  1.099675 0.000046 0.000005  -0.071025 0.044021 -1.321117
17  1.059851 -1.545955 0.873884  -0.891420 -0.642618 -0.403832
18  1.789820 -0.000005 -0.000017  -0.001283 -0.012288 0.905696
19  1.207016 -0.000012 -0.000043  0.001342 -0.000077 -0.069073
20  5.740637 0.000410 -0.000702  -0.127026 0.000003 0.000071
21  11.481033 0.000311 -0.000794  -0.060248 -0.104014 -0.014850
22  6.027525 -0.000330 0.000203  1.635442 -0.565165 1.546305
23  0.000002 11.692099 -0.000008  -0.943933 -0.398916 -0.754068
24  0.000002 0.000009 -0.000002  -0.283187 -0.000031 1.570739
25  -0.000000 -0.000012 -0.000001  0.868957 0.000002 1.570712
26  -4.011518 -5.954122 0.376267  1.473120 1.855075 -0.198639
27  6.027503 -0.000262 -0.000228  1.514374 0.583698 -0.205242
28  11.691992 0.000243 0.000854  0.667115 0.000079 -1.928643
29  11.478555 -0.000652 0.001564  -1.172631 0.395194 0.427951
30  3.452863 -0.227596 1.051755  0.533352 -0.149658 -1.651757
31  1.312559 0.000026 -0.000001  -0.001011 0.013749 -0.916589
32  0.729346 0.000066 -0.000028  -0.019742 -0.002873 -0.520299
33  3.942048 0.050108 0.430997  0.518335 -0.132557 -1.624414
34  1.539093 0.000010 -0.000001  -0.006678 -0.030360 -0.846057
35  1.196300 0.000076 -0.000004  0.001767 -0.002530 -0.866091
36  3.883412 -0.050504 -0.431087  0.268299 -0.273603 -1.261072
37  1.719563 -0.000079 -0.000004  -0.029198 0.025493 -1.449554
38  1.209194 0.000036 0.000010  -0.002172 -0.002925 -0.376412
39  3.245586 -0.145574 -1.308860  0.045911 0.028174 0.055241
40  1.719412 -0.000100 -0.000036  -0.109220 0.124551 -1.492957
41  1.099674 0.000028 0.000008  0.003677 -0.001213 -0.900134
42  0.594008 -0.285203 -1.857800  1.075925 0.014236 -0.875502
43  1.789779 -0.000012 -0.000043  0.020386 0.054042 -0.056213
44  1.206997 -0.000006 0.000003  0.112046 0.059847 1.317350
45  5.740571 0.000055 0.000723  0.087649 -0.000014 0.000021
46  11.480656 -0.000094 0.001063  0.063087 0.071639 0.056642
47  6.027514 -0.000272 -0.000236  -0.738144 -0.611196 -1.295012
48  -0.000001 11.691974 -0.000005  -1.281977 0.728474 0.944797
49  0.000003 -0.000001 0.000001  2.939640 -0.000041 1.570856
50  -0.000007 -0.000015 0.000005  2.272644 -0.000030 1.570865
51  -5.192024 -6.550545 -6.314993  3.034520 -0.111095 -1.220700
52  0.000001 0.000000 -0.000000  0.008153 -0.000259 0.000009
53  0.000001 -0.000001 0.000000  1.565115 0.043565 -0.106862
54  -1.072047 -15.355424 -4.870729  -1.116048 -0.183406 -1.919263
55  -0.000001 0.000000 -0.000000  0.000000 -0.000000 -0.000002
56  0.000029 0.000029 0.000001  -1.571901 -0.044449 -0.106509
57  5.661260 -16.060535 -17.872917  1.570796 -0.000000 0.000000
58  -21.599098 7.001666 -12.508070  1.570796 -0.000000 0.000000
59  1.066008 0.876422 -3.770892  1.570796 -0.000000 0.000000
60  -0.004311 0.001230 -0.000371  0.006898 -0.005534 -0.284229
61  0.376268 6.572924 -2.887995  1.570796 -0.000000 0.000000
62  0.000000 0.000000 0.000000  -0.078727 -3.136056 0.284226
63  0.000000 0.000000 0.000000  1.570796 -0.000000 0.000000
64  -2.563485 -8.219002 -1.645143  1.539330 0.082822 -0.000968
65  0.000001 -2.755923 1.840478  -0.000000 -0.000000 -0.000000
66  -0.000306 -1.332276 -1.998147  -0.000000 -0.000000 -0.000000
67  -0.001517 -1.253476 20.838209  -0.000000 -0.000000 -0.000000
68  0.585406 -2.133196 -6.588482  -0.000000 -0.000000 -0.000000
69  0.000000 0.419707 7.832311  -0.000000 -0.000000 -0.000000
70  -2.816540 -1.911022 -4.797984  1.539330 0.082822 -0.000968
71  -0.113746 1.326354 2.565981  -0.000000 -0.000000 -0.000000
72  0.120338 1.215165 2.565982  -0.000000 -0.000000 -0.000000
73  -0.096187 1.080565 2.565981  -0.000000 -0.000000 -0.000000
time 3
0  0.000006 0.000000 0.000000  -1.570800 -1.391899 -1.570792
1  -3.865520 -0.192010 1.061693  -1.544956 -1.855077 -0.198630
2  6.027524 -0.000324 0.000193  -0.807021 -1.003788 -1.476336
3  11.692110 0.000642 -0.000740  -1.152279 -0.000014 -1.347935
4  11.480183 0.000512 -0.000655  1.206389 -0.609618 0.108133
5  3.859509 -0.142879 -1.192050  -0.574847 -0.304757 -1.777058
6  1.312590 0.000012 0.000007  -0.135527 0.003032 -0.200649
7  0.729355 0.000055 0.000047  -0.007831 -0.008960 -0.022519
8  3.942144 0.046273 -0.431512  -0.457086 0.163431 -1.133683
9  1.539111 0.000081 0.000005  -0.017952 -0.090240 -0.838237
10  1.196333 0.000146 0.000030  0.007751 0.004719 -0.800508
11  3.883506 -0.047268 0.431382  -0.247524 0.550882 -0.402951
12  1.719572 -0.000027 0.000014  0.037135 -0.100044 -1.334548
13  1.209178 0.000091 0.000014  -0.008755 -0.005102 -0.561727
14  4.085223 -0.082715 1.151041  0.033614 0.611304 -0.075125
15  1.719448 -0.000012 0.000022  0.001103 -0.029631 -0.766789
16  1.099676 0.000048 0.000007  -0.071025 0.044021 -1.321117
17  1.059850 -1.545954 0.873884  -0.911053 -0.607063 -0.371779
18  1.789820 -0.000003 -0.000018  -0.000362 -0.010324 0.804511
19  1.207018 -0.000012 -0.000043  0.001125 -0.000047 -0.092989
20  5.740637 0.000411 -0.000702  -0.121628 0.000003 0.000071
21  11.481046 0.000315 -0.000788  -0.056836 -0.104633 -0.011757
22  6.027525 -0.000330 0.000203  1.637555 -0.563577 1.540741
23  0.000001 11.692099 -0.000008  -0.938513 -0.394237 -0.750373
24  0.000003 0.000009 -0.000000  -0.283187 -0.000031 1.570739
25  -0.000001 -0.000012 -0.000000  0.868957 0.000002 1.570712
26  -4.011518 -5.954122 0.376267  1.473120 1.855075 -0.198639
27  6.027503 -0.000262 -0.000228  1.510056 0.589594 -0.207986
28  11.691993 0.000243 0.000856  0.667115 0.000078 -1.916877
29  11.478661 -0.000614 0.001535  -1.152847 0.392682 0.418065
30  3.452862 -0.227596 1.051756  0.533352 -0.149658 -1.651757
31  1.312558 0.000026 -0.000001  -0.001011 0.013749 -0.916589
32  0.729347 0.000066 -0.000027  -0.019742 -0.002873 -0.520299
33  3.942049 0.050108 0.430997  0.518335 -0.132557 -1.624414
34  1.539094 0.000009 -0.000001  -0.006678 -0.030360 -0.846057
35  1.196299 0.000075 -0.000004  0.001767 -0.002530 -0.866091
36  3.883411 -0.050504 -0.431087  0.268299 -0.273603 -1.261072
37  1.719563 -0.000081 -0.000004  -0.029198 0.025493 -1.449554
38  1.209194 0.000036 0.000012  -0.002172 -0.002925 -0.376412
39  3.245587 -0.145574 -1.308860  0.045911 0.028174 0.055241
40  1.719412 -0.000099 -0.000037  -0.109220 0.124551 -1.492957
41  1.099674 0.000029 0.000008  0.003677 -0.001213 -0.900134
42  0.594008 -0.285203 -1.857800  1.075925 0.014236 -0.875502
43  1.789779 -0.000010 -0.000044  0.020386 0.054042 -0.056213
44  1.206997 -0.000006 0.000003  0.112046 0.059847 1.317350
45  5.740574 0.000055 0.000724  0.091193 -0.000014 0.000021
46  11.480677 -0.000086 0.001057  0.067234 0.071615 0.053882
47  6.027514 -0.000272 -0.000236  -0.746561 -0.611631 -1.290534
48  -0.000002 11.691975 -0.000006  -1.274931 0.721201 0.941873
49  0.000003 -0.000002 0.000001  2.939640 -0.000041 1.570856
50  -0.000007 -0.000015 0.000005  2.272644 -0.000030 1.570865
51  -5.166606 -6.655829 -6.368211  3.058692 -0.112477 -1.217879
52  -0.000000 0.000000 -0.000000  0.008153 -0.000259 0.000009
53  -0.000000 -0.000000 0.000001  1.565115 0.043565 -0.106862
54  -1.031729 -15.448128 -4.890256  -1.096467 -0.169008 -1.917178
55  0.000001 -0.000001 0.000001  0.000000 -0.000000 -0.000002
56  0.000030 0.000028 0.000001  -1.571901 -0.044449 -0.106509
57  5.661260 -16.060535 -17.872917  1.570796 -0.000000 0.000000
58  -21.599098 7.001666 -12.508070  1.570796 -0.000000 0.000000
59  1.066008 0.876422 -3.770892  1.570796 -0.000000 0.000000
60  -0.004311 0.001230 -0.000371  0.006898 -0.005534 -0.284229
61  0.376268 6.572924 -2.887995  1.570796 -0.000000 0.000000
62  0.000000 0.000000 0.000000  -0.078727 -3.136056 0.284226
63  0.000000 0.000000 0.000000  1.570796 -0.000000 0.000000
64  -2.636903 -8.342791 -1.650666  1.546274 0.059780 0.005045
65  0.000001 -2.755923 1.840478  0.000000 0.000000 -0.000000
66  -0.000306 -1.332276 -1.998147  0.000000 0.000000 -0.000000
67  -0.001516 -1.253476 20.838211  0.000000 0.000000 -0.000000
68  0.585407 -2.133196 -6.588482  0.000000 0.000000 -0.000000
69  0.000000 0.419707 7.645848  0.000000 0.000000 -0.000000
70  -2.852656 -2.014250 -4.764842  1.546274 0.059780 0.005045
71  -0.113746 1.326355 2.565982  0.000000 0.000000 -0.000000
72  0.120338 1.215165 2.565982  0.000000 0.000000 -0.000000
73  -0.096187 1.080566 2.565982  0.000000 0.000000 -0.000000
time 4
0  0.000006 0.000000 0.000000  -1.570800 -1.391899 -1.570792
1  -3.865520 -0.192010 1.061693  -1.544956 -1.855077 -0.198630
2  6.027524 -0.000324 0.000193  -0.817244 -1.005622 -1.477124
3  11.692108 0.000642 -0.000739  -1.152278 -0.000014 -1.336548
4  11.480258 0.000529 -0.000616  1.228619 -0.608796 0.117332
5  3.859509 -0.142880 -1.192050  -0.574848 -0.304757 -1.777058
6  1.312590 0.000012 0.000009  -0.135527 0.003032 -0.200649
7  0.729356 0.000054 0.000048  -0.007831 -0.008960 -0.022519
8  3.942143 0.046272 -0.431512  -0.457086 0.163431 -1.133683
9  1.539110 0.000085 0.000005  -0.017952 -0.090240 -0.838237
10  1.196332 0.000145 0.000029  0.007751 0.004719 -0.800508
11  3.883506 -0.047270 0.431381  -0.247524 0.550882 -0.402952
12  1.719573 -0.000027 0.000012  0.037135 -0.100044 -1.334548
13  1.209179 0.000092 0.000011  -0.008755 -0.005102 -0.561727
14  4.085224 -0.082716 1.151040  0.033614 0.611304 -0.075125
15  1.719449 -0.000010 0.000021  0.001103 -0.029631 -0.766789
16  1.099674 0.000050 0.000005  -0.071025 0.044021 -1.321117
17  1.059851 -1.545955 0.873884  -0.919590 -0.590284 -0.357361
18  1.789818 -0.000004 -0.000018  -0.000001 -0.009377 0.757284
19  1.207016 -0.000012 -0.000043  0.001023 -0.000036 -0.104165
20  5.740637 0.000410 -0.000701  -0.114617 0.000003 0.000071
21  11.481060 0.000318 -0.000779  -0.052336 -0.104432 -0.008590
22  6.027525 -0.000330 0.000203  1.643698 -0.561046 1.528050
23  0.000001 11.692097 -0.000007  -0.931617 -0.388322 -0.745652
24  0.000002 0.000009 -0.000001  -0.283187 -0.000031 1.570738
25  -0.000001 -0.000012 -0.000000  0.868957 0.000002 1.570712
26  -4.011518 -5.954122 0.376267  1.473120 1.855075 -0.198639
27  6.027503 -0.000262 -0.000228  1.504281 0.600789 -0.211901
28  11.691993 0.000243 0.000854  0.667115 0.000076 -1.897570
29  11.478825 -0.000549 0.001485  -1.136635 0.387384 0.400816
30  3.452864 -0.227595 1.051755  0.533352 -0.149658 -1.651757
31  1.312558 0.000026 0.000000  -0.001011 0.013749 -0.916589
32  0.729345 0.000067 -0.000028  -0.019742 -0.002873 -0.520299
33  3.942049 0.050108 0.430997  0.518335 -0.132557 -1.624414
34  1.539093 0.000010 -0.000000  -0.006678 -0.030360 -0.846057
35  1.196298 0.000075 -0.000005  0.001767 -0.002530 -0.866091
36  3.883413 -0.050503 -0.431087  0.268299 -0.273603 -1.261072
37  1.719563 -0.000079 -0.000004  -0.029198 0.025493 -1.449554
38  1.209194 0.000036 0.000011  -0.002172 -0.002925 -0.376412
39  3.245587 -0.145574 -1.308861  0.045911 0.028174 0.055241
40  1.719414 -0.000099 -0.000036  -0.109220 0.124551 -1.492957
41  1.099673 0.000028 0.000009  0.003677 -0.001213 -0.900134
42  0.594009 -0.285202 -1.857800  1.075925 0.014236 -0.875502
43  1.789779 -0.000011 -0.000043  0.020386 0.054042 -0.056213
44  1.206998 -0.000006 0.000004  0.112046 0.059847 1.317350
45  5.740571 0.000056 0.000724  0.093975 -0.000014 0.000021
46  11.480708 -0.000073 0.001047  0.071041 0.070676 0.049963
47  6.027514 -0.000272 -0.000236  -0.761363 -0.610532 -1.282718
48  -0.000001 11.691973 -0.000005  -1.263403 0.709299 0.936968
49  0.000002 -0.000001 -0.000001  2.939640 -0.000041 1.570856
50  -0.000007 -0.000016 0.000005  2.272644 -0.000030 1.570865
51  -5.113092 -6.830087 -6.433503  3.081796 -0.116797 -1.210949
52  0.000001 0.000000 -0.000000  0.008153 -0.000259 0.000009
53  0.000001 0.000000 -0.000000  1.565115 0.043565 -0.106862
54  -0.928929 -15.588537 -4.894544  -1.075851 -0.157533 -1.910956
55  0.000001 -0.000001 0.000000  0.000000 -0.000000 -0.000002
56  0.000030 0.000028 0.000001  -1.571901 -0.044449 -0.106509
57  5.661260 -16.060535 -17.872917  1.570796 -0.000000 0.000000
58  -21.599098 7.001666 -12.508070  1.570796 -0.000000 0.000000
59  1.066008 0.876422 -3.770892  1.570796 -0.000000 0.000000
60  -0.004311 0.001230 -0.000371  0.006898 -0.005534 -0.284229
61  0.376268 6.572924 -2.887995  1.570796 -0.000000 0.000000
62  0.000000 0.000000 0.000000  -0.078727 -3.136056 0.284226
63  0.000000 0.000000 0.000000  1.570796 -0.000000 0.000000
64  -2.676435 -8.512053 -1.665467  1.550009 0.036724 0.014798
65  0.000000 -2.755923 1.840478  -0.000000 0.000000 -0.000000
66  -0.000306 -1.332277 -1.998147  0.000000 0.000000 -0.000000
67  -0.001517 -1.253476 20.838209  -0.000000 0.000000 -0.000000
68  0.585406 -2.133196 -6.588482  -0.000000 0.000000 -0.000000
69  -0.000000 0.419707 7.739081  -0.000000 0.000000 -0.000000
70  -2.881371 -2.173237 -4.759410  1.550009 0.036724 0.014798
71  -0.113746 1.326354 2.565981  -0.000000 0.000000 -0.000000
72  0.120338 1.215165 2.565982  -0.000000 0.000000 -0.000000
73  -0.096187 1.080565 2.565982  -0.000000 0.000000 -0.000000
time 5
0  0.000006 0.000000 0.000000  -1.570800 -1.391899 -1.570792
1  -3.865520 -0.192010 1.061693  -1.544956 -1.855077 -0.198630
2  6.027524 -0.000324 0.000193  -0.822866 -1.010199 -1.482710
3  11.692108 0.000641 -0.000739  -1.152277 -0.000013 -1.318583
4  11.480381 0.000557 -0.000554  1.243621 -0.597965 0.119072
5  3.859510 -0.142879 -1.192049  -0.574848 -0.304757 -1.777058
6  1.312591 0.000012 0.000009  -0.135527 0.003032 -0.200649
7  0.729357 0.000053 0.000049  -0.007831 -0.008960 -0.022519
8  3.942142 0.046273 -0.431512  -0.457086 0.163431 -1.133683
9  1.539111 0.000084 0.000006  -0.017952 -0.090240 -0.838237
10  1.196332 0.000144 0.000029  0.007751 0.004719 -0.800508
11  3.883507 -0.047268 0.431382  -0.247524 0.550882 -0.402952
12  1.719574 -0.000027 0.000015  0.037135 -0.100044 -1.334548
13  1.209178 0.000092 0.000012  -0.008755 -0.005102 -0.561727
14  4.085222 -0.082715 1.151041  0.033614 0.611304 -0.075125
15  1.719448 -0.000013 0.000021  0.001103 -0.029631 -0.766789
16  1.099676 0.000047 0.000005  -0.071025 0.044021 -1.321117
17  1.059851 -1.545954 0.873884  -0.919590 -0.590284 -0.357361
18  1.789820 -0.000003 -0.000018  -0.000001 -0.009377 0.757284
19  1.207014 -0.000012 -0.000044  0.001023 -0.000036 -0.104165
20  5.740636 0.000411 -0.000703  -0.108893 0.000003 0.000070
21  11.481085 0.000323 -0.000769  -0.049771 -0.102155 -0.007008
22  6.027525 -0.000330 0.000203  1.646451 -0.556096 1.516250
23  0.000002 11.692099 -0.000009  -0.920710 -0.379052 -0.738136
24  0.000004 0.000009 -0.000002  -0.283187 -0.000031 1.570738
25  -0.000001 -0.000011 -0.000002  0.868957 0.000002 1.570712
26  -4.011518 -5.954122 0.376267  1.473120 1.855075 -0.198639
27  6.027503 -0.000262 -0.000228  1.500416 0.613459 -0.214873
28  11.691992 0.000243 0.000855  0.667115 0.000075 -1.875708
29  11.479020 -0.000471 0.001424  -1.132712 0.382682 0.385213
30  3.452863 -0.227595 1.051755  0.533352 -0.149658 -1.651757
31  1.312559 0.000025 -0.000001  -0.001011 0.013749 -0.916589
32  0.729345 0.000066 -0.000027  -0.019742 -0.002873 -0.520299
33  3.942049 0.050108 0.430997  0.518335 -0.132557 -1.624414
34  1.539094 0.000009 -0.000000  -0.006678 -0.030360 -0.846057
35  1.196300 0.000076 -0.000004  0.001767 -0.002530 -0.866091
36  3.883413 -0.050504 -0.431087  0.268299 -0.273603 -1.261072
37  1.719563 -0.000080 -0.000005  -0.029198 0.025493 -1.449554
38  1.209194 0.000036 0.000011  -0.002172 -0.002925 -0.376412
39  3.245588 -0.145573 -1.308860  0.046011 0.023016 0.105703
40  1.719411 -0.000100 -0.000036  -0.103866 0.124006 -1.439012
41  1.099673 0.000025 0.000007  0.004194 -0.001680 -0.826946
42  0.594009 -0.285203 -1.857800  1.075925 0.014236 -0.875502
43  1.789779 -0.000011 -0.000043  0.020386 0.054042 -0.056213
44  1.206997 -0.000006 0.000003  0.112046 0.059847 1.317350
45  5.740570 0.000057 0.000723  0.094394 -0.000014 0.000021
46  11.480746 -0.000057 0.001034  0.072431 0.069436 0.046913
47  6.027514 -0.000272 -0.000236  -0.776752 -0.607174 -1.274683
48  -0.000002 11.691974 -0.000005  -1.250397 0.695875 0.931258
49  0.000003 -0.000003 0.000000  2.939640 -0.000041 1.570856
50  -0.000007 -0.000016 0.000006  2.272644 -0.000030 1.570865
51  -5.065693 -7.029551 -6.481241  3.091476 -0.121047 -1.207002
52  -0.000000 0.000001 -0.000001  0.008153 -0.000259 0.000009
53  -0.000000 0.000000 0.000000  1.565115 0.043565 -0.106862
54  -0.853366 -15.765715 -4.893221  -1.065639 -0.154589 -1.907448
55  0.000001 -0.000001 -0.000000  0.000000 -0.000000 -0.000002
56  0.000031 0.000028 0.000001  -1.571901 -0.044449 -0.106509
57  5.661260 -16.060535 -17.872917  1.570796 -0.000000 0.000000
58  -21.599098 7.001666 -12.508070  1.570796 -0.000000 0.000000
59  1.066008 0.876422 -3.770892  1.570796 -0.000000 0.000000
60  -0.004311 0.001230 -0.000371  0.006898 -0.005534 -0.284229
61  0.376268 6.572924 -2.887995  1.570796 -0.000000 0.000000
62  0.000000 0.000000 0.000000  -0.078727 -3.136056 0.284226
63  0.000000 0.000000 0.000000  1.570796 -0.000000 0.000000
64  -2.670678 -8.696472 -1.686895  1.549255 0.026242 0.019870
65  0.000000 -2.755923 1.938857  -0.000000 -0.000000 0.000000
66  -0.000306 -1.332277 -1.998148  -0.000000 -0.000000 0.000000
67  -0.001517 -1.253476 20.838207  -0.000000 -0.000000 0.000000
68  0.585406 -2.133196 -6.588482  -0.000000 -0.000000 0.000000
69  0.000000 0.419707 7.832310  -0.000000 -0.000000 0.000000
70  -2.875409 -2.360472 -4.786613  1.549255 0.026242 0.019870
71  -0.113746 1.326355 2.565981  -0.000000 -0.000000 0.000000
72  0.120338 1.215165 2.565981  -0.000000 -0.000000 0.000000
73  -0.096187 1.080566 2.565981  -0.000000 -0.000000 0.000000
time 6
0  0.000006 0.000000 0.000000  -1.570800 -1.391899 -1.570792
1  -3.865520 -0.192010 1.061693  -1.544956 -1.855077 -0.198630
2  6.027524 -0.000324 0.000193  -0.816142 -1.017079 -1.494101
3  11.692111 0.000643 -0.000740  -1.152276 -0.000012 -1.294418
4  11.480557 0.000596 -0.000467  1.241458 -0.579795 0.111228
5  3.859508 -0.142880 -1.192049  -0.574848 -0.304757 -1.777058
6  1.312590 0.000014 0.000008  -0.135527 0.003032 -0.200649
7  0.729355 0.000055 0.000050  -0.007831 -0.008960 -0.022519
8  3.942144 0.046273 -0.431511  -0.457086 0.163431 -1.133683
9  1.539111 0.000086 0.000006  -0.017952 -0.090240 -0.838237
10  1.196332 0.000147 0.000029  0.007751 0.004719 -0.800508
11  3.883505 -0.047270 0.431381  -0.247524 0.550882 -0.402951
12  1.719575 -0.000026 0.000016  0.037135 -0.100044 -1.334548
13  1.209181 0.000092 0.000010  -0.008755 -0.005102 -0.561727
14  4.085223 -0.082715 1.151041  0.033614 0.611304 -0.075125
15  1.719448 -0.000012 0.000023  0.001103 -0.029631 -0.766789
16  1.099675 0.000050 0.000005  -0.071025 0.044021 -1.321117
17  1.059851 -1.545955 0.873884  -0.919590 -0.590284 -0.357361
18  1.789818 -0.000004 -0.000018  -0.000001 -0.009377 0.757284
19  1.207016 -0.000012 -0.000044  0.001023 -0.000036 -0.104165
20  5.740638 0.000409 -0.000704  -0.107096 0.000003 0.000070
21  11.481120 0.000330 -0.000751  -0.050980 -0.098424 -0.008114
22  6.027525 -0.000330 0.000203  1.641197 -0.549772 1.513325
23  0.000003 11.692100 -0.000008  -0.905984 -0.366704 -0.727900
24  0.000003 0.000009 -0.000001  -0.283187 -0.000031 1.570739
25  -0.000000 -0.000011 -0.000001  0.868957 0.000002 1.570712
26  -4.011518 -5.954122 0.376267  1.473120 1.855075 -0.198639
27  6.027503 -0.000262 -0.000228  1.501896 0.621562 -0.214447
28  11.691991 0.000241 0.000855  0.667115 0.000073 -1.857156
29  11.479181 -0.000404 0.001369  -1.141459 0.375982 0.378229
30  3.452863 -0.227595 1.051756  0.533352 -0.149658 -1.651757
31  1.312559 0.000026 -0.000001  -0.001011 0.013749 -0.916589
32  0.729346 0.000067 -0.000027  -0.019742 -0.002873 -0.520299
33  3.942048 0.050108 0.430997  0.518335 -0.132557 -1.624414
34  1.539094 0.000011 -0.000000  -0.006678 -0.030360 -0.846057
35  1.196301 0.000076 -0.000003  0.001767 -0.002530 -0.866091
36  3.883412 -0.050504 -0.431087  0.268299 -0.273603 -1.261072
37  1.719563 -0.000080 -0.000004  -0.029198 0.025493 -1.449554
38  1.209193 0.000036 0.000012  -0.002172 -0.002925 -0.376412
39  3.245588 -0.145573 -1.308859  0.043303 0.014135 0.156853
40  1.719408 -0.000100 -0.000035  -0.097522 0.121368 -1.384931
41  1.099671 0.000025 0.000007  0.004951 -0.002112 -0.753757
42  0.594009 -0.285203 -1.857799  1.075925 0.014236 -0.875502
43  1.789779 -0.000011 -0.000043  0.020386 0.054042 -0.056213
44  1.206997 -0.000006 0.000002  0.112046 0.059847 1.317350
45  5.740572 0.000055 0.000723  0.092453 -0.000014 0.000021
46  11.480782 -0.000046 0.001023  0.071265 0.067632 0.046201
47  6.027514 -0.000272 -0.000236  -0.784614 -0.602147 -1.270644
48  -0.000002 11.691974 -0.000005  -1.239395 0.684528 0.926285
49  0.000003 -0.000001 0.000000  2.939640 -0.000041 1.570856
50  -0.000006 -0.000015 0.000006  2.272644 -0.000030 1.570865
51  -5.082798 -7.203015 -6.492246  3.084022 -0.120176 -1.207966
52  0.000000 -0.000001 -0.000001  0.008153 -0.000259 0.000009
53  -0.000001 -0.000000 0.000000  1.565115 0.043565 -0.106862
54  -0.875314 -15.944149 -4.918786  -1.071935 -0.158692 -1.908327
55  0.000000 -0.000000 0.000000  0.000000 -0.000000 -0.000002
56  0.000030 0.000029 0.000001  -1.571901 -0.044449 -0.106509
57  5.661260 -16.060535 -17.872917  1.570796 -0.000000 0.000000
58  -21.599098 7.001666 -12.508070  1.570796 -0.000000 0.000000
59  1.066008 0.876422 -3.770892  1.570796 -0.000000 0.000000
60  -0.004311 0.001230 -0.000371  0.006898 -0.005534 -0.284229
61  0.376268 6.572924 -2.887995  1.570796 -0.000000 0.000000
62  0.000000 0.000000 0.000000  -0.078727 -3.136056 0.284226
63  0.000000 0.000000 0.000000  1.570796 -0.000000 0.000000
64  -2.656287 -8.865734 -1.712299  1.547575 0.033502 0.017958
65  0.000001 -2.755923 2.037236  -0.000000 -0.000000 0.000000
66  -0.000306 -1.332276 -1.998147  -0.000000 -0.000000 0.000000
67  -0.001517 -1.253476 20.838211  -0.000000 -0.000000 0.000000
68  0.585406 -2.133195 -6.588482  -0.000000 -0.000000 0.000000
69  0.000000 0.419707 7.832311  -0.000000 -0.000000 0.000000
70  -2.871665 -2.534979 -4.821997  1.547575 0.033502 0.017958
71  -0.113746 1.326355 2.565981  -0.000000 -0.000000 0.000000
72  0.120338 1.215165 2.565981  -0.000000 -0.000000 0.000000
73  -0.096187 1.080566 2.565981  -0.000000 -0.000000 0.000000
time 7
0  0.000006 0.000000 0.000000  -1.570800 -1.391899 -1.570792
1  -3.865520 -0.192010 1.061693  -1.544956 -1.855077 -0.198630
2  6.027524 -0.000324 0.000193  -0.805745 -1.022874 -1.504933
3  11.692109 0.000643 -0.000740  -1.152275 -0.000011 -1.273309
4  11.480719 0.000633 -0.000383  1.230706 -0.562735 0.098969
5  3.859509 -0.142879 -1.192049  -0.574848 -0.304757 -1.777058
6  1.312590 0.000013 0.000007  -0.135527 0.003032 -0.200649
7  0.729356 0.000054 0.000050  -0.007831 -0.008960 -0.022519
8  3.942142 0.046273 -0.431512  -0.457086 0.163431 -1.133683
9  1.539111 0.000085 0.000006  -0.017952 -0.090240 -0.838237
10  1.196332 0.000145 0.000030  0.007751 0.004719 -0.800508
11  3.883504 -0.047270 0.431382  -0.247524 0.550882 -0.402952
12  1.719575 -0.000026 0.000016  0.037135 -0.100044 -1.334548
13  1.209179 0.000091 0.000011  -0.008755 -0.005102 -0.561727
14  4.085222 -0.082716 1.151041  0.033614 0.611304 -0.075125
15  1.719449 -0.000011 0.000022  0.001103 -0.029631 -0.766789
16  1.099675 0.000049 0.000004  -0.071025 0.044021 -1.321117
17  1.059849 -1.545955 0.873885  -0.919590 -0.590284 -0.357361
18  1.789819 -0.000002 -0.000018  -0.000001 -0.009377 0.757284
19  1.207014 -0.000012 -0.000044  0.001023 -0.000035 -0.104165
20  5.740636 0.000411 -0.000703  -0.108005 0.000003 0.000070
21  11.481153 0.000339 -0.000735  -0.053917 -0.094901 -0.010606
22  6.027525 -0.000330 0.000203  1.634012 -0.544719 1.515092
23  0.000002 11.692100 -0.000008  -0.893066 -0.356033 -0.718839
24  0.000002 0.000008 -0.000001  -0.283187 -0.000031 1.570738
25  -0.000000 -0.000011 -0.000001  0.868957 0.000002 1.570712
26  -4.011518 -5.954122 0.376267  1.473120 1.855075 -0.198639
27  6.027503 -0.000262 -0.000228  1.505890 0.625389 -0.212256
28  11.691990 0.000242 0.000856  0.667115 0.000072 -1.844118
29  11.479297 -0.000353 0.001329  -1.155965 0.367845 0.376550
30  3.452862 -0.227595 1.051755  0.533352 -0.149658 -1.651757
31  1.312559 0.000026 -0.000001  -0.001011 0.013749 -0.916589
32  0.729344 0.000066 -0.000027  -0.019742 -0.002873 -0.520299
33  3.942047 0.050108 0.430998  0.518335 -0.132557 -1.624414
34  1.539093 0.000009 -0.000000  -0.006678 -0.030360 -0.846057
35  1.196298 0.000076 -0.000004  0.001767 -0.002530 -0.866091
36  3.883411 -0.050504 -0.431087  0.268299 -0.273603 -1.261072
37  1.719563 -0.000080 -0.000003  -0.029198 0.025493 -1.449554
38  1.209195 0.000036 0.000011  -0.002172 -0.002925 -0.376412
39  3.245587 -0.145573 -1.308859  0.038926 0.008148 0.153004
40  1.719408 -0.000100 -0.000035  -0.096541 0.117874 -1.387244
41  1.099671 0.000023 0.000007  0.005435 -0.001922 -0.773196
42  0.594008 -0.285203 -1.857799  1.075925 0.014236 -0.875502
43  1.789780 -0.000012 -0.000043  0.020386 0.054042 -0.056213
44  1.206997 -0.000006 0.000004  0.112046 0.059847 1.317350
45  5.740573 0.000055 0.000722  0.089489 -0.000014 0.000021
46  11.480804 -0.000035 0.001014  0.068920 0.065515 0.046826
47  6.027514 -0.000272 -0.000236  -0.786720 -0.597441 -1.269597
48  -0.000001 11.691973 -0.000007  -1.231681 0.676579 0.922722
49  0.000003 -0.000001 -0.000000  2.939640 -0.000041 1.570856
50  -0.000006 -0.000016 0.000005  2.272644 -0.000030 1.570865
51  -5.134123 -7.327366 -6.482970  3.068314 -0.116351 -1.209652
52  0.000000 0.000000 -0.000001  0.008153 -0.000259 0.000009
53  -0.000000 0.000000 0.000001  1.565115 0.043565 -0.106862
54  -0.932912 -16.080362 -4.959505  -1.086520 -0.165818 -1.909510
55  -0.000001 -0.000001 -0.000001  0.000000 -0.000000 -0.000002
56  0.000029 0.000028 0.000000  -1.571902 -0.044449 -0.106509
57  5.661260 -16.060535 -17.872917  1.570796 -0.000000 0.000000
58  -21.599098 7.001666 -12.508070  1.570796 -0.000000 0.000000
59  1.066008 0.876422 -3.770892  1.570796 -0.000000 0.000000
60  -0.004311 0.001230 -0.000371  0.006898 -0.005534 -0.284229
61  0.376268 6.572924 -2.887995  1.570796 -0.000000 0.000000
62  0.000000 0.000000 0.000000  -0.078727 -3.136056 0.284226
63  0.000000 0.000000 0.000000  1.570796 -0.000000 0.000000
64  -2.637577 -8.989523 -1.739030  1.545884 0.049473 0.014348
65  0.000001 -2.755924 2.037236  -0.000000 -0.000000 0.000000
66  -0.000306 -1.332276 -1.998147  -0.000000 -0.000000 0.000000
67  -0.001517 -1.253476 20.838211  -0.000000 -0.000000 0.000000
68  0.585406 -2.133196 -6.588481  -0.000000 -0.000000 0.000000
69  0.000000 0.419707 7.832312  -0.000000 -0.000000 0.000000
70  -2.880203 -2.664022 -4.857400  1.545884 0.049473 0.014348
71  -0.113746 1.326354 2.565982  -0.000000 -0.000000 0.000000
72  0.120338 1.215165 2.565981  -0.000000 -0.000000 0.000000
73  -0.096187 1.080565 2.565981  -0.000000 -0.000000 0.000000
time 8
0  0.000006 0.000000 0.000000  -1.570800 -1.391899 -1.570792
1  -3.865520 -0.192010 1.061693  -1.544956 -1.855077 -0.198630
2  6.027524 -0.000325 0.000193  -0.798780 -1.024871 -1.509539
3  11.692111 0.000643 -0.000740  -1.152274 -0.000010 -1.263340
4  11.480794 0.000649 -0.000345  1.218737 -0.553697 0.087796
5  3.859509 -0.142880 -1.192050  -0.574847 -0.304757 -1.777058
6  1.312589 0.000011 0.000009  -0.135527 0.003032 -0.200649
7  0.729355 0.000052 0.000049  -0.007831 -0.008960 -0.022519
8  3.942143 0.046272 -0.431512  -0.457086 0.163431 -1.133683
9  1.539111 0.000085 0.000006  -0.017952 -0.090240 -0.838237
10  1.196333 0.000145 0.000029  0.007751 0.004719 -0.800508
11  3.883505 -0.047270 0.431381  -0.247524 0.550882 -0.402951
12  1.719573 -0.000026 0.000016  0.037135 -0.100044 -1.334548
13  1.209180 0.000090 0.000011  -0.008755 -0.005102 -0.561727
14  4.085222 -0.082716 1.151041  0.033614 0.611304 -0.075125
15  1.719447 -0.000013 0.000022  0.001103 -0.029631 -0.766789
16  1.099674 0.000048 0.000004  -0.071025 0.044021 -1.321117
17  1.059851 -1.545955 0.873884  -0.919590 -0.590284 -0.357361
18  1.789819 -0.000003 -0.000018  -0.000002 -0.009377 0.757284
19  1.207017 -0.000012 -0.000043  0.001023 -0.000036 -0.104165
20  5.740637 0.000409 -0.000702  -0.110352 0.000003 0.000071
21  11.481167 0.000341 -0.000727  -0.056819 -0.092977 -0.013183
22  6.027525 -0.000330 0.000203  1.629534 -0.543160 1.518752
23  0.000002 11.692100 -0.000009  -0.886948 -0.351032 -0.714521
24  0.000003 0.000007 -0.000000  -0.283187 -0.000031 1.570739
25  -0.000001 -0.000011 -0.000002  0.868957 0.000002 1.570712
26  -4.011518 -5.954122 0.376267  1.473120 1.855075 -0.198639
27  6.027503 -0.000262 -0.000228  1.509550 0.624990 -0.210036
28  11.691990 0.000243 0.000855  0.667115 0.000072 -1.839331
29  11.479340 -0.000334 0.001317  -1.169259 0.360759 0.378311
30  3.452862 -0.227596 1.051755  0.533352 -0.149658 -1.651757
31  1.312559 0.000027 -0.000002  -0.001011 0.013749 -0.916589
32  0.729346 0.000066 -0.000028  -0.019742 -0.002873 -0.520299
33  3.942049 0.050107 0.430997  0.518335 -0.132557 -1.624414
34  1.539093 0.000008 -0.000000  -0.006678 -0.030360 -0.846057
35  1.196301 0.000075 -0.000004  0.001767 -0.002530 -0.866091
36  3.883412 -0.050504 -0.431087  0.268299 -0.273603 -1.261072
37  1.719563 -0.000081 -0.000004  -0.029198 0.025493 -1.449554
38  1.209195 0.000036 0.000011  -0.002172 -0.002925 -0.376412
39  3.245586 -0.145573 -1.308859  0.035089 0.003509 0.140859
40  1.719408 -0.000100 -0.000037  -0.097013 0.114106 -1.393728
41  1.099671 0.000026 0.000008  0.005877 -0.001623 -0.824080
42  0.594008 -0.285203 -1.857800  1.075925 0.014236 -0.875502
43  1.789780 -0.000010 -0.000043  0.020386 0.054042 -0.056213
44  1.206997 -0.000006 0.000002  0.112046 0.059847 1.317350
45  5.740573 0.000056 0.000726  0.086858 -0.000014 0.000021
46  11.480813 -0.000030 0.001013  0.066664 0.063739 0.048016
47  6.027514 -0.000272 -0.000236  -0.784543 -0.595049 -1.270741
48  -0.000001 11.691973 -0.000006  -1.228852 0.673667 0.921400
49  0.000002 0.000000 -0.000001  2.939640 -0.000041 1.570856
50  -0.000007 -0.000015 0.000005  2.272644 -0.000030 1.570865
51  -5.187323 -7.374745 -6.469611  3.052931 -0.111646 -1.210005
52  0.000000 0.000001 0.000000  0.008153 -0.000259 0.000009
53  -0.000000 -0.000001 -0.000000  1.565115 0.043565 -0.106862
54  -0.980676 -16.135094 -5.004519  -1.101457 -0.172057 -1.909101
55  0.000000 -0.000000 -0.000000  0.000000 -0.000000 -0.000002
56  0.000030 0.000029 0.000000  -1.571902 -0.044449 -0.106509
57  5.661260 -16.060535 -17.872917  1.570796 -0.000000 0.000000
58  -21.599098 7.001666 -12.508070  1.570796 -0.000000 0.000000
59  1.066008 0.876422 -3.770892  1.570796 -0.000000 0.000000
60  -0.004311 0.001230 -0.000371  0.006898 -0.005534 -0.284229
61  0.376268 6.572924 -2.887995  1.570796 -0.000000 0.000000
62  0.000000 0.000000 0.000000  -0.078727 -3.136056 0.284226
63  0.000000 0.000000 0.000000  1.570796 -0.000000 0.000000
64  -2.618868 -9.037522 -1.764434  1.545099 0.065445 0.012201
65  0.000000 -2.755923 2.037236  0.000000 -0.000000 -0.000000
66  -0.000306 -1.332276 -1.998148  0.000000 -0.000000 -0.000000
67  -0.001517 -1.253476 20.838209  0.000000 -0.000000 -0.000000
68  0.585406 -2.133196 -6.588482  0.000000 -0.000000 -0.000000
69  0.000000 0.419707 7.832310  0.000000 -0.000000 -0.000000
70  -2.897983 -2.714579 -4.884939  1.545099 0.065445 0.012201
71  -0.113746 1.326355 2.565981  0.000000 -0.000000 -0.000000
72  0.120338 1.215165 2.565981  0.000000 -0.000000 -0.000000
73  -0.096187 1.080565 2.565981  0.000000 -0.000000 -0.000000
time 9
0  0.000006 0.000000 0.000000  -1.570800 -1.391899 -1.570792
1  -3.865520 -0.192010 1.061693  -1.544956 -1.855077 -0.198630
2  6.027524 -0.000324 0.000193  -0.799057 -1.022809 -1.506397
3  11.692110 0.000643 -0.000740  -1.152274 -0.000010 -1.266135
4  11.480771 0.000645 -0.000355  1.212865 -0.554180 0.083058
5  3.859509 -0.142880 -1.192049  -0.574848 -0.304757 -1.777058
6  1.312590 0.000010 0.000007  -0.135527 0.003032 -0.200649
7  0.729355 0.000053 0.000048  -0.007831 -0.008960 -0.022519
8  3.942143 0.046273 -0.431512  -0.457086 0.163431 -1.133683
9  1.539110 0.000087 0.000006  -0.017952 -0.090240 -0.838237
10  1.196331 0.000145 0.000029  0.007751 0.004719 -0.800508
11  3.883505 -0.047270 0.431381  -0.247524 0.550882 -0.402951
12  1.719573 -0.000026 0.000013  0.037135 -0.100044 -1.334548
13  1.209180 0.000090 0.000009  -0.008755 -0.005102 -0.561727
14  4.085222 -0.082716 1.151040  0.033614 0.611304 -0.075125
15  1.719450 -0.000012 0.000021  0.001103 -0.029631 -0.766789
16  1.099674 0.000048 0.000005  -0.071025 0.044021 -1.321117
17  1.059852 -1.545955 0.873884  -0.919590 -0.590284 -0.357360
18  1.789818 -0.000004 -0.000019  -0.000001 -0.009377 0.757284
19  1.207016 -0.000012 -0.000043  0.001023 -0.000035 -0.104165
20  5.740636 0.000411 -0.000702  -0.112182 0.000003 0.000070
21  11.481163 0.000341 -0.000729  -0.058090 -0.093016 -0.014451
22  6.027525 -0.000330 0.000203  1.629975 -0.545191 1.521429
23  0.000002 11.692098 -0.000009  -0.888664 -0.352432 -0.715734
24  0.000002 0.000008 -0.000001  -0.283187 -0.000031 1.570738
25  -0.000000 -0.000011 -0.000001  0.868957 0.000002 1.570712
26  -4.011518 -5.954122 0.376267  1.473120 1.855075 -0.198639
27  6.027503 -0.000262 -0.000228  1.509979 0.622331 -0.209649
28  11.691991 0.000243 0.000856  0.667115 0.000072 -1.841892
29  11.479317 -0.000347 0.001324  -1.175075 0.358503 0.380499
30  3.452863 -0.227594 1.051755  0.533352 -0.149658 -1.651757
31  1.312558 0.000027 -0.000002  -0.001011 0.013749 -0.916589
32  0.729345 0.000065 -0.000027  -0.019742 -0.002873 -0.520299
33  3.942048 0.050108 0.430997  0.518335 -0.132557 -1.624414
34  1.539093 0.000009 -0.000001  -0.006678 -0.030360 -0.846057
35  1.196299 0.000075 -0.000004  0.001767 -0.002530 -0.866091
36  3.883412 -0.050502 -0.431088  0.268299 -0.273603 -1.261072
37  1.719563 -0.000080 -0.000004  -0.029198 0.025493 -1.449554
38  1.209193 0.000036 0.000011  -0.002172 -0.002925 -0.376412
39  3.245585 -0.145572 -1.308860  0.032727 0.000955 0.128313
40  1.719410 -0.000100 -0.000036  -0.098051 0.111358 -1.400288
41  1.099672 0.000026 0.000006  0.006149 -0.001352 -0.874965
42  0.594008 -0.285202 -1.857800  1.075925 0.014236 -0.875502
43  1.789780 -0.000011 -0.000044  0.020386 0.054042 -0.056213
44  1.206997 -0.000005 0.000002  0.112046 0.059847 1.317350
45  5.740573 0.000055 0.000725  0.085718 -0.000014 0.000021
46  11.480807 -0.000034 0.001015  0.065604 0.063163 0.048779
47  6.027514 -0.000272 -0.000236  -0.781533 -0.596042 -1.272293
48  -0.000002 11.691974 -0.000006  -1.230365 0.675225 0.922108
49  0.000001 -0.000001 0.000001  2.939640 -0.000041 1.570856
50  -0.000007 -0.000016 0.000005  2.272644 -0.000030 1.570865
51  -5.207214 -7.350874 -6.472019  3.046146 -0.108944 -1.209151
52  0.000000 0.000000 -0.000000  0.008153 -0.000259 0.000009
53  -0.000000 0.000001 -0.000000  1.565115 0.043565 -0.106862
54  -0.989104 -16.110981 -5.038791  -1.108462 -0.174327 -1.907787
55  0.000002 0.000000 -0.000000  0.000000 -0.000000 -0.000002
56  0.000031 0.000029 0.000001  -1.571901 -0.044449 -0.106509
57  5.661260 -16.060535 -17.872917  1.570796 -0.000000 0.000000
58  -21.599098 7.001666 -12.508070  1.570796 -0.000000 0.000000
59  1.066008 0.876422 -3.770892  1.570796 -0.000000 0.000000
60  -0.004311 0.001230 -0.000371  0.006898 -0.005534 -0.284229
61  0.376268 6.572924 -2.887995  1.570796 -0.000000 0.000000
62  0.000000 0.000000 0.000000  -0.078727 -3.136056 0.284226
63  0.000000 0.000000 0.000000  1.570796 -0.000000 0.000000
64  -2.604476 -9.014053 -1.785862  1.545334 0.072706 0.012324
65  0.000000 -2.755924 2.037235  0.000000 -0.000000 0.000000
66  -0.000307 -1.332276 -1.998148  0.000000 -0.000000 0.000000
67  -0.001517 -1.253476 20.838209  0.000000 -0.000000 0.000000
68  0.585406 -2.133196 -6.588483  0.000000 -0.000000 0.000000
69  -0.000000 0.419707 7.832310  0.000000 -0.000000 0.000000
70  -2.906921 -2.690690 -4.903341  1.545334 0.072706 0.012324
71  -0.113746 1.326355 2.565981  0.000000 -0.000000 0.000000
72  0.120339 1.215165 2.565981  0.000000 -0.000000 0.000000
73  -0.096187 1.080566 2.565981  0.000000 -0.000000 0.000000
time 10
0  0.000006 0.000000 0.000000  -1.570800 -1.391899 -1.570792
1  -3.865520 -0.192010 1.061693  -1.544956 -1.855077 -0.198630
2  6.027524 -0.000324 0.000193  -0.804274 -1.019071 -1.499627
3  11.692111 0.000644 -0.000741  -1.152275 -0.000011 -1.275545
4  11.480699 0.000628 -0.000394  1.215247 -0.559771 0.086205
5  3.859510 -0.142880 -1.192049  -0.574847 -0.304757 -1.777058
6  1.312589 0.000012 0.000009  -0.135527 0.003032 -0.200649
7  0.729355 0.000053 0.000050  -0.007831 -0.008960 -0.022519
8  3.942144 0.046273 -0.431512  -0.457086 0.163431 -1.133683
9  1.539110 0.000084 0.000004  -0.017952 -0.090240 -0.838237
10  1.196332 0.000145 0.000029  0.007751 0.004719 -0.800508
11  3.883505 -0.047270 0.431381  -0.247524 0.550882 -0.402952
12  1.719573 -0.000026 0.000015  0.037135 -0.100044 -1.334548
13  1.209178 0.000092 0.000012  -0.008755 -0.005102 -0.561727
14  4.085223 -0.082716 1.151041  0.033614 0.611304 -0.075125
15  1.719448 -0.000011 0.000021  0.001103 -0.029631 -0.766789
16  1.099675 0.000051 0.000006  -0.071025 0.044021 -1.321117
17  1.059851 -1.545955 0.873884  -0.919590 -0.590284 -0.357360
18  1.789820 -0.000001 -0.000018  -0.000001 -0.009377 0.757284
19  1.207016 -0.000012 -0.000044  0.001023 -0.000035 -0.104165
20  5.740637 0.000410 -0.000703  -0.112218 0.000003 0.000070
21  11.481148 0.000337 -0.000736  -0.057384 -0.094174 -0.013879
22  6.027525 -0.000330 0.000203  1.633655 -0.548587 1.521837
23  0.000002 11.692100 -0.000007  -0.894437 -0.357158 -0.719804
24  0.000002 0.000009 0.000000  -0.283187 -0.000030 1.570738
25  -0.000000 -0.000011 -0.000001  0.868957 0.000002 1.570712
26  -4.011518 -5.954122 0.376267  1.473120 1.855075 -0.198639
27  6.027503 -0.000262 -0.000228  1.506598 0.620025 -0.211554
28  11.691991 0.000243 0.000855  0.667115 0.000073 -1.847618
29  11.479265 -0.000366 0.001341  -1.172029 0.362694 0.380956
30  3.452862 -0.227596 1.051756  0.533352 -0.149658 -1.651757
31  1.312558 0.000026 -0.000001  -0.001011 0.013749 -0.916589
32  0.729346 0.000066 -0.000027  -0.019742 -0.002873 -0.520299
33  3.942048 0.050107 0.430997  0.518335 -0.132557 -1.624414
34  1.539093 0.000011 0.000000  -0.006678 -0.030360 -0.846057
35  1.196298 0.000075 -0.000004  0.001767 -0.002530 -0.866091
36  3.883412 -0.050504 -0.431087  0.268299 -0.273603 -1.261072
37  1.719563 -0.000080 -0.000003  -0.029198 0.025493 -1.449554
38  1.209194 0.000036 0.000011  -0.002172 -0.002925 -0.376412
39  3.245585 -0.145573 -1.308859  0.032033 0.000274 0.123459
40  1.719410 -0.000100 -0.000036  -0.098527 0.110450 -1.402806
41  1.099672 0.000026 0.000007  0.006227 -0.001252 -0.894404
42  0.594007 -0.285204 -1.857799  1.075925 0.014236 -0.875502
43  1.789779 -0.000011 -0.000043  0.020386 0.054042 -0.056213
44  1.206997 -0.000006 0.000004  0.112046 0.059847 1.317350
45  5.740572 0.000055 0.000724  0.086276 -0.000014 0.000021
46  11.480797 -0.000037 0.001017  0.065982 0.064093 0.048585
47  6.027514 -0.000272 -0.000236  -0.780718 -0.599566 -1.272690
48  -0.000001 11.691973 -0.000006  -1.233750 0.678711 0.923684
49  0.000003 -0.000001 0.000001  2.939640 -0.000041 1.570856
50  -0.000007 -0.000016 0.000005  2.272644 -0.000030 1.570865
51  -5.183270 -7.293722 -6.496454  3.050310 -0.109765 -1.208804
52  0.000000 -0.000000 0.000000  0.008153 -0.000259 0.000009
53  -0.000001 -0.000001 0.000000  1.565115 0.043565 -0.106862
54  -0.964126 -16.051447 -5.051770  -1.104709 -0.172294 -1.907633
55  0.000002 -0.000000 0.000000  0.000000 -0.000000 -0.000002
56  0.000031 0.000029 0.000001  -1.571901 -0.044449 -0.106509
57  5.661260 -16.060535 -17.872917  1.570796 -0.000000 0.000000
58  -21.599098 7.001666 -12.508070  1.570796 -0.000000 0.000000
59  1.066008 0.876422 -3.770892  1.570796 -0.000000 0.000000
60  -0.004311 0.001230 -0.000371  0.006898 -0.005534 -0.284229
61  0.376268 6.572924 -2.887995  1.570796 -0.000000 0.000000
62  0.000000 0.000000 0.000000  -0.078727 -3.136056 0.284226
63  0.000000 0.000000 0.000000  1.570796 -0.000000 0.000000
64  -2.598720 -8.958088 -1.800663  1.545979 0.068536 0.013171
65  0.000000 -2.755923 2.037233  0.000000 -0.000000 0.000000
66  -0.000307 -1.332276 -1.998148  0.000000 -0.000000 0.000000
67  -0.001517 -1.253476 20.838207  0.000000 -0.000000 0.000000
68  0.585406 -2.133196 -6.588483  0.000000 -0.000000 0.000000
69  -0.000000 0.419707 7.832310  0.000000 -0.000000 0.000000
70  -2.893268 -2.632794 -4.914979  1.545979 0.068536 0.013171
71  -0.113746 1.326355 2.565980  0.000000 -0.000000 0.000000
72  0.120338 1.215165 2.565980  0.000000 -0.000000 0.000000
73  -0.096187 1.080566 2.565980  0.000000 -0.000000 0.000000
time 11
0  0.000006 0.000000 0.000000  -1.570800 -1.391899 -1.570792
1  -3.865520 -0.192010 1.061693  -1.544956 -1.855077 -0.198630
2  6.027524 -0.000324 0.000193  -0.810384 -1.015195 -1.492549
3  11.692111 0.000643 -0.000740  -1.152275 -0.000011 -1.286898
4  11.480615 0.000607 -0.000436  1.221061 -0.567616 0.092762
5  3.859508 -0.142880 -1.192050  -0.574847 -0.304757 -1.777058
6  1.312589 0.000012 0.000009  -0.135527 0.003032 -0.200649
7  0.729355 0.000053 0.000050  -0.007831 -0.008960 -0.022519
8  3.942143 0.046273 -0.431512  -0.457086 0.163431 -1.133683
9  1.539109 0.000084 0.000005  -0.017952 -0.090240 -0.838237
10  1.196331 0.000147 0.000032  0.007751 0.004719 -0.800508
11  3.883506 -0.047268 0.431382  -0.247524 0.550882 -0.402952
12  1.719573 -0.000026 0.000014  0.037135 -0.100044 -1.334548
13  1.209179 0.000089 0.000011  -0.008755 -0.005102 -0.561727
14  4.085222 -0.082715 1.151040  0.033614 0.611304 -0.075125
15  1.719450 -0.000011 0.000021  0.001103 -0.029631 -0.766789
16  1.099674 0.000049 0.000006  -0.071025 0.044021 -1.321117
17  1.059850 -1.545955 0.873884  -0.919590 -0.590284 -0.357360
18  1.789818 -0.000004 -0.000018  -0.000001 -0.009377 0.757284
19  1.207015 -0.000012 -0.000044  0.001023 -0.000036 -0.104165
20  5.740636 0.000410 -0.000702  -0.111503 0.000003 0.000071
21  11.481132 0.000333 -0.000744  -0.055843 -0.095822 -0.012515
22  6.027525 -0.000330 0.000203  1.637957 -0.552036 1.521469
23  0.000003 11.692101 -0.000008  -0.901388 -0.362890 -0.724685
24  0.000002 0.000007 -0.000001  -0.283187 -0.000031 1.570739
25  -0.000001 -0.000011 -0.000001  0.868957 0.000002 1.570712
26  -4.011518 -5.954122 0.376267  1.473120 1.855075 -0.198639
27  6.027503 -0.000262 -0.000228  1.502344 0.617813 -0.213972
28  11.691992 0.000243 0.000854  0.667115 0.000073 -1.854498
29  11.479203 -0.000392 0.001364  -1.164778 0.369081 0.380843
30  3.452864 -0.227595 1.051755  0.533352 -0.149658 -1.651757
31  1.312558 0.000028 -0.000001  -0.001011 0.013749 -0.916589
32  0.729346 0.000066 -0.000027  -0.019742 -0.002873 -0.520299
33  3.942048 0.050108 0.430997  0.518335 -0.132557 -1.624415
34  1.539093 0.000010 -0.000000  -0.006678 -0.030360 -0.846057
35  1.196298 0.000075 -0.000004  0.001767 -0.002530 -0.866091
36  3.883413 -0.050503 -0.431087  0.268299 -0.273603 -1.261072
37  1.719563 -0.000081 -0.000003  -0.029198 0.025493 -1.449554
38  1.209194 0.000036 0.000011  -0.002172 -0.002925 -0.376412
39  3.245586 -0.145572 -1.308859  0.032033 0.000274 0.123459
40  1.719410 -0.000100 -0.000036  -0.098527 0.110450 -1.402806
41  1.099673 0.000026 0.000007  0.006227 -0.001252 -0.894404
42  0.594009 -0.285203 -1.857799  1.075925 0.014236 -0.875502
43  1.789779 -0.000011 -0.000043  0.020386 0.054042 -0.056213
44  1.206997 -0.000006 0.000003  0.112046 0.059847 1.317350
45  5.740571 0.000057 0.000725  0.087664 -0.000014 0.000021
46  11.480783 -0.000042 0.001024  0.067075 0.065576 0.048011
47  6.027514 -0.000272 -0.000236  -0.780431 -0.603670 -1.272802
48  -0.000002 11.691974 -0.000005  -1.237822 0.682906 0.925563
49  0.000004 0.000000 0.000000  2.939640 -0.000041 1.570856
50  -0.000006 -0.000016 0.000005  2.272644 -0.000030 1.570865
51  -5.146736 -7.224877 -6.523786  3.059291 -0.112066 -1.208743
52  0.000001 0.000000 -0.000000  0.008153 -0.000259 0.000009
53  0.000000 -0.000000 0.000000  1.565115 0.043565 -0.106862
54  -0.931726 -15.979629 -5.049306  -1.096274 -0.168311 -1.908007
55  0.000000 0.000000 -0.000001  0.000000 -0.000000 -0.000002
56  0.000030 0.000029 0.000000  -1.571902 -0.044449 -0.106509
57  5.661260 -16.060535 -17.872917  1.570796 -0.000000 0.000000
58  -21.599098 7.001666 -12.508070  1.570796 -0.000000 0.000000
59  1.066008 0.876422 -3.770892  1.570796 -0.000000 0.000000
60  -0.004311 0.001230 -0.000371  0.006898 -0.005534 -0.284229
61  0.376268 6.572924 -2.887995  1.570796 -0.000000 0.000000
62  0.000000 0.000000 0.000000  -0.078727 -3.136056 0.284226
63  0.000000 0.000000 0.000000  1.570796 -0.000000 0.000000
64  -2.603551 -8.891292 -1.806186  1.546864 0.059361 0.014283
65  0.000000 -2.755923 2.037234  0.000000 0.000000 0.000000
66  -0.000306 -1.332277 -1.998148  0.000000 0.000000 0.000000
67  -0.001517 -1.253476 20.838209  0.000000 0.000000 0.000000
68  0.585406 -2.133196 -6.588483  0.000000 0.000000 0.000000
69  -0.000000 0.419707 7.832308  0.000000 0.000000 0.000000
70  -2.876259 -2.563155 -4.916712  1.546864 0.059361 0.014283
71  -0.113746 1.326354 2.565982  0.000000 0.000000 0.000000
72  0.120338 1.215165 2.565982  0.000000 0.000000 0.000000
73  -0.096187 1.080565 2.565982  0.000000 0.000000 0.000000
time 12
0  0.000006 0.000000 0.000000  -1.570800 -1.391899 -1.570792
1  -3.865520 -0.192010 1.061693  -1.544956 -1.855077 -0.198630
2  6.027524 -0.000324 0.000193  -0.814950 -1.012313 -1.487352
3  11.692111 0.000643 -0.000740  -1.152276 -0.000012 -1.296281
4  11.480545 0.000592 -0.000471  1.226734 -0.574880 0.099311
5  3.859511 -0.142881 -1.192050  -0.574847 -0.304757 -1.777058
6  1.312590 0.000013 0.000007  -0.135527 0.003032 -0.200649
7  0.729355 0.000053 0.000050  -0.007831 -0.008960 -0.022519
8  3.942147 0.046272 -0.431512  -0.457086 0.163431 -1.133683
9  1.539110 0.000084 0.000006  -0.017952 -0.090240 -0.838237
10  1.196332 0.000145 0.000030  0.007751 0.004719 -0.800508
11  3.883506 -0.047270 0.431381  -0.247524 0.550882 -0.402951
12  1.719574 -0.000027 0.000016  0.037135 -0.100044 -1.334548
13  1.209180 0.000091 0.000011  -0.008755 -0.005102 -0.561727
14  4.085223 -0.082717 1.151041  0.033614 0.611304 -0.075125
15  1.719450 -0.000012 0.000023  0.001103 -0.029631 -0.766789
16  1.099674 0.000048 0.000006  -0.071024 0.044021 -1.321117
17  1.059851 -1.545956 0.873884  -0.919590 -0.590284 -0.357361
18  1.789819 -0.000003 -0.000019  -0.000001 -0.009377 0.757284
19  1.207011 -0.000012 -0.000043  0.001023 -0.000036 -0.104165
20  5.740637 0.000410 -0.000703  -0.110707 0.000003 0.000070
21  11.481118 0.000330 -0.000752  -0.054337 -0.097350 -0.011139
22  6.027525 -0.000330 0.000203  1.641211 -0.554579 1.521079
23  0.000003 11.692099 -0.000008  -0.907121 -0.367651 -0.728694
24  0.000003 0.000007 -0.000000  -0.283187 -0.000031 1.570739
25  -0.000000 -0.000012 -0.000001  0.868957 0.000002 1.570712
26  -4.011518 -5.954122 0.376267  1.473120 1.855075 -0.198639
27  6.027503 -0.000262 -0.000228  1.499071 0.615998 -0.215816
28  11.691992 0.000243 0.000855  0.667115 0.000074 -1.860418
29  11.479156 -0.000414 0.001380  -1.157146 0.374637 0.380842
30  3.452864 -0.227595 1.051756  0.533352 -0.149658 -1.651757
31  1.312558 0.000026 -0.000000  -0.001011 0.013749 -0.916589
32  0.729347 0.000066 -0.000027  -0.019742 -0.002873 -0.520299
33  3.942050 0.050108 0.430997  0.518335 -0.132557 -1.624414
34  1.539094 0.000010 -0.000000  -0.006678 -0.030360 -0.846057
35  1.196299 0.000075 -0.000002  0.001767 -0.002530 -0.866091
36  3.883412 -0.050504 -0.431087  0.268299 -0.273603 -1.261072
37  1.719563 -0.000081 -0.000004  -0.029198 0.025493 -1.449554
38  1.209195 0.000036 0.000011  -0.002172 -0.002925 -0.376412
39  3.245588 -0.145572 -1.308859  0.032033 0.000274 0.123459
40  1.719411 -0.000101 -0.000036  -0.098527 0.110450 -1.402806
41  1.099672 0.000025 0.000007  0.006227 -0.001252 -0.894404
42  0.594010 -0.285203 -1.857799  1.075925 0.014236 -0.875502
43  1.789780 -0.000010 -0.000044  0.020386 0.054042 -0.056213
44  1.206997 -0.000005 0.000002  0.112046 0.059847 1.317350
45  5.740573 0.000056 0.000724  0.089151 -0.000014 0.000021
46  11.480776 -0.000047 0.001025  0.068272 0.066913 0.047465
47  6.027514 -0.000272 -0.000236  -0.780101 -0.606887 -1.272941
48  -0.000002 11.691973 -0.000005  -1.241328 0.686520 0.927167
49  0.000004 -0.000001 -0.000000  2.939640 -0.000041 1.570856
50  -0.000007 -0.000015 0.000005  2.272644 -0.000030 1.570865
51  -5.116466 -7.166037 -6.542678  3.068303 -0.114287 -1.208849
52  0.000000 -0.000001 -0.000000  0.008153 -0.000259 0.000009
53  0.000000 0.000000 0.000000  1.565115 0.043565 -0.106862
54  -0.907113 -15.918577 -5.039193  -1.087877 -0.164245 -1.908485
55  0.000001 -0.000001 0.000000  0.000000 -0.000000 -0.000002
56  0.000030 0.000028 0.000001  -1.571902 -0.044449 -0.106509
57  5.661260 -16.060535 -17.872917  1.570796 -0.000000 0.000000
58  -21.599098 7.001666 -12.508070  1.570796 -0.000000 0.000000
59  1.066008 0.876422 -3.770892  1.570796 -0.000000 0.000000
60  -0.004311 0.001230 -0.000371  0.006898 -0.005534 -0.284229
61  0.376268 6.572924 -2.887995  1.570796 -0.000000 0.000000
62  0.000000 0.000000 0.000000  -0.078727 -3.136056 0.284226
63  0.000000 0.000000 0.000000  1.570796 -0.000000 0.000000
64  -2.615073 -8.835327 -1.803798  1.547825 0.050185 0.015247
65  0.000001 -2.755923 2.037234  -0.000000 -0.000000 0.000000
66  -0.000306 -1.332276 -1.998148  -0.000000 -0.000000 0.000000
67  -0.001517 -1.253477 20.838209  -0.000000 -0.000000 0.000000
68  0.585406 -2.133196 -6.588483  -0.000000 -0.000000 0.000000
69  0.000000 0.419707 7.832310  -0.000000 -0.000000 0.000000
70  -2.865081 -2.504026 -4.909789  1.547825 0.050185 0.015247
71  -0.113746 1.326354 2.565981  -0.000000 -0.000000 0.000000
72  0.120338 1.215165 2.565981  -0.000000 -0.000000 0.000000
73  -0.096187 1.080565 2.565981  -0.000000 -0.000000 0.000000
time 13
0  0.000006 0.000000 0.000000  -1.570800 -1.391899 -1.570792
1  -3.865520 -0.192010 1.061693  -1.544956 -1.855077 -0.198630
2  6.027524 -0.000324 0.000193  -0.815825 -1.011391 -1.485823
3  11.692112 0.000643 -0.000739  -1.152276 -0.000012 -1.299920
4  11.480516 0.000586 -0.000484  1.228813 -0.578614 0.102267
5  3.859509 -0.142881 -1.192050  -0.574848 -0.304757 -1.777058
6  1.312590 0.000012 0.000006  -0.135527 0.003032 -0.200649
7  0.729355 0.000054 0.000051  -0.007831 -0.008960 -0.022519
8  3.942144 0.046272 -0.431512  -0.457086 0.163431 -1.133683
9  1.539111 0.000086 0.000004  -0.017952 -0.090240 -0.838237
10  1.196331 0.000144 0.000032  0.007751 0.004719 -0.800508
11  3.883505 -0.047270 0.431381  -0.247524 0.550882 -0.402952
12  1.719574 -0.000025 0.000015  0.037135 -0.100044 -1.334548
13  1.209179 0.000091 0.000011  -0.008755 -0.005102 -0.561727
14  4.085223 -0.082716 1.151040  0.033614 0.611304 -0.075125
15  1.719448 -0.000011 0.000023  0.001103 -0.029631 -0.766789
16  1.099674 0.000050 0.000007  -0.071025 0.044021 -1.321117
17  1.059851 -1.545955 0.873884  -0.919590 -0.590284 -0.357361
18  1.789819 -0.000003 -0.000018  -0.000001 -0.009377 0.757284
19  1.207017 -0.000012 -0.000043  0.001023 -0.000036 -0.104165
20  5.740636 0.000410 -0.000702  -0.110474 0.000003 0.000071
21  11.481111 0.000329 -0.000754  -0.053734 -0.098133 -0.010559
22  6.027525 -0.000330 0.000203  1.641896 -0.555431 1.521505
23  0.000003 11.692101 -0.000007  -0.909343 -0.369503 -0.730243
24  0.000003 0.000007 -0.000000  -0.283187 -0.000031 1.570739
25  -0.000000 -0.000011 -0.000000  0.868957 0.000002 1.570712
26  -4.011518 -5.954122 0.376267  1.473120 1.855075 -0.198639
27  6.027503 -0.000262 -0.000228  1.498393 0.614782 -0.216148
28  11.691992 0.000244 0.000854  0.667115 0.000074 -1.863233
29  11.479130 -0.000427 0.001389  -1.153067 0.376373 0.381385
30  3.452863 -0.227596 1.051756  0.533352 -0.149658 -1.651757
31  1.312558 0.000026 -0.000001  -0.001012 0.013749 -0.916589
32  0.729346 0.000066 -0.000026  -0.019742 -0.002873 -0.520299
33  3.942049 0.050108 0.430997  0.518335 -0.132557 -1.624415
34  1.539093 0.000010 0.000000  -0.006678 -0.030360 -0.846057
35  1.196299 0.000076 -0.000003  0.001767 -0.002530 -0.866091
36  3.883412 -0.050504 -0.431087  0.268299 -0.273603 -1.261072
37  1.719563 -0.000080 -0.000003  -0.029198 0.025493 -1.449554
38  1.209195 0.000036 0.000012  -0.002172 -0.002925 -0.376412
39  3.245586 -0.145572 -1.308859  0.032033 0.000274 0.123459
40  1.719409 -0.000101 -0.000037  -0.098527 0.110450 -1.402806
41  1.099672 0.000027 0.000008  0.006227 -0.001252 -0.894404
42  0.594009 -0.285203 -1.857800  1.075925 0.014236 -0.875502
43  1.789779 -0.000011 -0.000043  0.020386 0.054042 -0.056213
44  1.206997 -0.000007 0.000003  0.112046 0.059847 1.317350
45  5.740573 0.000056 0.000723  0.089968 -0.000014 0.000021
46  11.480771 -0.000050 0.001027  0.068954 0.067404 0.047324
47  6.027514 -0.000272 -0.000236  -0.779143 -0.607967 -1.273428
48  -0.000002 11.691975 -0.000005  -1.242996 0.688240 0.927926
49  0.000003 -0.000002 0.000001  2.939640 -0.000041 1.570856
50  -0.000007 -0.000016 0.000005  2.272644 -0.000030 1.570865
51  -5.111149 -7.139080 -6.545306  3.072550 -0.114880 -1.208948
52  -0.000000 0.000000 0.000000  0.008153 -0.000259 0.000009
53  -0.000000 0.000000 0.000000  1.565115 0.043565 -0.106862
54  -0.904683 -15.891408 -5.032547  -1.084218 -0.161983 -1.908693
55  -0.000000 -0.000000 -0.000000  0.000000 -0.000000 -0.000002
56  0.000029 0.000029 0.000001  -1.571902 -0.044449 -0.106509
57  5.661260 -16.060535 -17.872917  1.570796 -0.000000 0.000000
58  -21.599098 7.001666 -12.508070  1.570796 -0.000000 0.000000
59  1.066008 0.876422 -3.770892  1.570796 -0.000000 0.000000
60  -0.004311 0.001230 -0.000371  0.006898 -0.005534 -0.284229
61  0.376268 6.572924 -2.887995  1.570796 -0.000000 0.000000
62  0.000000 0.000000 0.000000  -0.078727 -3.136056 0.284226
63  0.000000 0.000000 0.000000  1.570796 -0.000000 0.000000
64  -2.628825 -8.811857 -1.797637  1.548700 0.046015 0.015675
65  0.000001 -2.755924 2.037236  -0.000000 0.000000 0.000000
66  -0.000306 -1.332276 -1.998147  -0.000000 0.000000 0.000000
67  -0.001517 -1.253476 20.838211  -0.000000 0.000000 0.000000
68  0.585406 -2.133196 -6.588482  -0.000000 0.000000 0.000000
69  -0.000000 0.419707 7.832310  -0.000000 0.000000 0.000000
70  -2.868379 -2.477738 -4.898704  1.548700 0.046015 0.015675
71  -0.113746 1.326354 2.565982  -0.000000 0.000000 0.000000
72  0.120338 1.215164 2.565982  -0.000000 0.000000 0.000000
73  -0.096187 1.080565 2.565982  -0.000000 0.000000 0.000000
time 14
0  0.000006 0.000000 0.000000  -1.570800 -1.391899 -1.570792
1  -3.865520 -0.192010 1.061693  -1.544956 -1.855077 -0.198630
2  6.027524 -0.000324 0.000193  -0.812970 -1.012494 -1.488032
3  11.692110 0.000642 -0.000740  -1.152276 -0.000012 -1.297272
4  11.480536 0.000591 -0.000477  1.226523 -0.578077 0.100683
5  3.859510 -0.142880 -1.192049  -0.574847 -0.304757 -1.777058
6  1.312591 0.000011 0.000007  -0.135527 0.003032 -0.200649
7  0.729355 0.000053 0.000049  -0.007831 -0.008960 -0.022519
8  3.942145 0.046273 -0.431512  -0.457086 0.163431 -1.133683
9  1.539110 0.000085 0.000004  -0.017952 -0.090240 -0.838237
10  1.196331 0.000147 0.000032  0.007751 0.004719 -0.800508
11  3.883505 -0.047270 0.431381  -0.247524 0.550882 -0.402952
12  1.719572 -0.000027 0.000014  0.037135 -0.100044 -1.334548
13  1.209179 0.000090 0.000013  -0.008755 -0.005102 -0.561727
14  4.085224 -0.082716 1.151041  0.033614 0.611304 -0.075125
15  1.719448 -0.000012 0.000023  0.001103 -0.029631 -0.766789
16  1.099674 0.000052 0.000006  -0.071025 0.044021 -1.321117
17  1.059851 -1.545955 0.873884  -0.919590 -0.590284 -0.357361
18  1.789819 -0.000002 -0.000018  -0.000001 -0.009377 0.757284
19  1.207014 -0.000011 -0.000043  0.001023 -0.000036 -0.104165
20  5.740637 0.000410 -0.000704  -0.110973 0.000003 0.000071
21  11.481116 0.000330 -0.000753  -0.054239 -0.098015 -0.010984
22  6.027525 -0.000330 0.000203  1.639960 -0.554538 1.522737
23  0.000002 11.692100 -0.000008  -0.907726 -0.368155 -0.729116
24  0.000002 0.000008 0.000000  -0.283187 -0.000030 1.570739
25  -0.000000 -0.000011 -0.000001  0.868957 0.000002 1.570712
26  -4.011518 -5.954122 0.376267  1.473120 1.855075 -0.198639
27  6.027503 -0.000262 -0.000228  1.500580 0.614294 -0.214824
28  11.691991 0.000243 0.000854  0.667115 0.000074 -1.862489
29  11.479134 -0.000423 0.001386  -1.153777 0.373639 0.382562
30  3.452863 -0.227594 1.051755  0.533352 -0.149658 -1.651757
31  1.312559 0.000026 -0.000001  -0.001011 0.013749 -0.916589
32  0.729346 0.000066 -0.000027  -0.019742 -0.002873 -0.520298
33  3.942049 0.050109 0.430997  0.518335 -0.132557 -1.624414
34  1.539093 0.000010 -0.000001  -0.006678 -0.030360 -0.846057
35  1.196299 0.000075 -0.000004  0.001767 -0.002530 -0.866091
36  3.883412 -0.050503 -0.431087  0.268299 -0.273603 -1.261072
37  1.719563 -0.000081 -0.000004  -0.029198 0.025493 -1.449554
38  1.209193 0.000036 0.000011  -0.002172 -0.002925 -0.376412
39  3.245586 -0.145571 -1.308859  0.032033 0.000274 0.123459
40  1.719410 -0.000100 -0.000036  -0.098527 0.110450 -1.402806
41  1.099672 0.000026 0.000008  0.006227 -0.001252 -0.894404
42  0.594009 -0.285202 -1.857799  1.075925 0.014236 -0.875502
43  1.789779 -0.000013 -0.000044  0.020386 0.054042 -0.056213
44  1.206997 -0.000006 0.000003  0.112046 0.059847 1.317350
45  5.740572 0.000055 0.000725  0.089875 -0.000014 0.000021
46  11.480770 -0.000049 0.001028  0.068916 0.066885 0.047691
47  6.027514 -0.000272 -0.000236  -0.777559 -0.606649 -1.274268
48  -0.000001 11.691973 -0.000005  -1.242555 0.687786 0.927726
49  0.000002 -0.000000 0.000001  2.939640 -0.000041 1.570856
50  -0.000007 -0.000016 0.000005  2.272644 -0.000030 1.570865
51  -5.133216 -7.148704 -6.530213  3.070618 -0.113514 -1.208886
52  -0.000001 -0.000000 0.000001  0.008153 -0.000259 0.000009
53  0.000000 0.000000 -0.000000  1.565115 0.043565 -0.106862
54  -0.924704 -15.902597 -5.032277  -1.086597 -0.162173 -1.908467
55  -0.000000 -0.000001 -0.000000  0.000000 -0.000000 -0.000002
56  0.000029 0.000028 0.000001  -1.571902 -0.044449 -0.106509
57  5.661260 -16.060535 -17.872917  1.570796 -0.000000 0.000000
58  -21.599098 7.001666 -12.508070  1.570796 -0.000000 0.000000
59  1.066008 0.876422 -3.770892  1.570796 -0.000000 0.000000
60  -0.004311 0.001230 -0.000371  0.006898 -0.005534 -0.284229
61  0.376268 6.572924 -2.887995  1.570796 -0.000000 0.000000
62  0.000000 0.000000 0.000000  -0.078727 -3.136056 0.284226
63  0.000000 0.000000 0.000000  1.570796 -0.000000 0.000000
64  -2.640347 -8.824713 -1.789215  1.549334 0.048284 0.015547
65  0.000000 -2.755924 2.037236  0.000000 0.000000 -0.000000
66  -0.000306 -1.332276 -1.998147  0.000000 0.000000 -0.000000
67  -0.001517 -1.253476 20.838207  0.000000 0.000000 -0.000000
68  0.585406 -2.133196 -6.588482  0.000000 0.000000 -0.000000
69  -0.000000 0.419706 7.832308  0.000000 0.000000 -0.000000
70  -2.885961 -2.488702 -4.885940  1.549334 0.048284 0.015547
71  -0.113746 1.326355 2.565981  0.000000 0.000000 -0.000000
72  0.120338 1.215165 2.565981  0.000000 0.000000 -0.000000
73  -0.096187 1.080565 2.565981  0.000000 0.000000 -0.000000
time 15
0  0.000006 0.000000 0.000000  -1.570800 -1.391899 -1.570792
1  -3.865520 -0.192010 1.061693  -1.544956 -1.855077 -0.198630
2  6.027524 -0.000324 0.000193  -0.809469 -1.014435 -1.491631
3  11.692112 0.000643 -0.000741  -1.152276 -0.000012 -1.292029
4  11.480573 0.000600 -0.000454  1.223364 -0.575350 0.097837
5  3.859510 -0.142880 -1.192050  -0.574847 -0.304757 -1.777058
6  1.312589 0.000011 0.000007  -0.135527 0.003032 -0.200649
7  0.729356 0.000054 0.000050  -0.007831 -0.008960 -0.022519
8  3.942145 0.046272 -0.431512  -0.457086 0.163431 -1.133683
9  1.539111 0.000086 0.000005  -0.017952 -0.090240 -0.838237
10  1.196330 0.000145 0.000029  0.007751 0.004719 -0.800508
11  3.883506 -0.047270 0.431381  -0.247524 0.550882 -0.402952
12  1.719573 -0.000026 0.000014  0.037135 -0.100044 -1.334548
13  1.209180 0.000091 0.000011  -0.008755 -0.005102 -0.561727
14  4.085224 -0.082716 1.151040  0.033614 0.611304 -0.075125
15  1.719449 -0.000012 0.000022  0.001103 -0.029631 -0.766789
16  1.099675 0.000048 0.000005  -0.071025 0.044021 -1.321117
17  1.059851 -1.545956 0.873884  -0.919590 -0.590284 -0.357361
18  1.789819 -0.000002 -0.000018  -0.000001 -0.009377 0.757284
19  1.207015 -0.000011 -0.000043  0.001023 -0.000036 -0.104165
20  5.740636 0.000410 -0.000702  -0.111475 0.000003 0.000070
21  11.481122 0.000332 -0.000748  -0.055014 -0.097444 -0.011637
22  6.027525 -0.000330 0.000203  1.637508 -0.552851 1.523399
23  0.000003 11.692099 -0.000007  -0.904525 -0.365491 -0.726880
24  0.000002 0.000009 -0.000000  -0.283187 -0.000031 1.570739
25  -0.000001 -0.000011 -0.000001  0.868957 0.000002 1.570712
26  -4.011518 -5.954122 0.376267  1.473120 1.855075 -0.198639
27  6.027503 -0.000262 -0.000228  1.503411 0.614872 -0.213177
28  11.691991 0.000242 0.000855  0.667115 0.000074 -1.859759
29  11.479159 -0.000414 0.001379  -1.156261 0.369783 0.383512
30  3.452862 -0.227596 1.051755  0.533352 -0.149658 -1.651757
31  1.312559 0.000027 -0.000000  -0.001011 0.013749 -0.916589
32  0.729345 0.000066 -0.000027  -0.019742 -0.002873 -0.520299
33  3.942047 0.050108 0.430996  0.518335 -0.132557 -1.624414
34  1.539094 0.000010 -0.000000  -0.006678 -0.030360 -0.846057
35  1.196299 0.000075 -0.000004  0.001767 -0.002530 -0.866091
36  3.883411 -0.050504 -0.431088  0.268299 -0.273603 -1.261072
37  1.719563 -0.000082 -0.000003  -0.029198 0.025493 -1.449554
38  1.209195 0.000036 0.000012  -0.002172 -0.002925 -0.376412
39  3.245586 -0.145572 -1.308859  0.032033 0.000274 0.123459
40  1.719409 -0.000101 -0.000037  -0.098527 0.110450 -1.402806
41  1.099673 0.000024 0.000007  0.006227 -0.001252 -0.894404
42  0.594008 -0.285203 -1.857800  1.075925 0.014236 -0.875502
43  1.789780 -0.000011 -0.000043  0.020386 0.054042 -0.056213
44  1.206997 -0.000007 0.000003  0.112046 0.059847 1.317350
45  5.740573 0.000055 0.000724  0.089436 -0.000014 0.000021
46  11.480776 -0.000047 0.001025  0.068599 0.066081 0.048134
47  6.027514 -0.000272 -0.000236  -0.776797 -0.604348 -1.274688
48  -0.000002 11.691974 -0.000007  -1.240938 0.686118 0.926990
49  0.000004 -0.000003 0.000001  2.939640 -0.000041 1.570856
50  -0.000007 -0.000015 0.000004  2.272644 -0.000030 1.570865
51  -5.157430 -7.177649 -6.510188  3.066713 -0.111856 -1.208796
52  0.000000 0.000001 0.000000  0.008153 -0.000259 0.000009
53  -0.000001 -0.000000 0.000000  1.565115 0.043565 -0.106862
54  -0.945697 -15.933275 -5.031553  -1.090688 -0.163402 -1.908153
55  -0.000001 -0.000000 -0.000000  0.000000 -0.000000 -0.000002
56  0.000030 0.000028 0.000001  -1.571901 -0.044449 -0.106509
57  5.661260 -16.060535 -17.872917  1.570796 -0.000000 0.000000
58  -21.599098 7.001666 -12.508070  1.570796 -0.000000 0.000000
59  1.066008 0.876422 -3.770892  1.570796 -0.000000 0.000000
60  -0.004311 0.001230 -0.000371  0.006898 -0.005534 -0.284229
61  0.376268 6.572924 -2.887995  1.570796 -0.000000 0.000000
62  0.000000 0.000000 0.000000  -0.078727 -3.136056 0.284226
63  0.000000 0.000000 0.000000  1.570796 -0.000000 0.000000
64  -2.645178 -8.855370 -1.780038  1.549577 0.052497 0.015211
65  0.000000 -2.755923 2.037236  -0.000000 0.000000 0.000000
66  -0.000306 -1.332276 -1.998147  -0.000000 0.000000 0.000000
67  -0.001517 -1.253476 20.838211  -0.000000 0.000000 0.000000
68  0.585406 -2.133196 -6.588482  -0.000000 0.000000 0.000000
69  -0.000000 0.419707 7.832311  -0.000000 0.000000 0.000000
70  -2.901634 -2.518723 -4.874580  1.549577 0.052497 0.015211
71  -0.113746 1.326354 2.565981  -0.000000 0.000000 0.000000
72  0.120338 1.215165 2.565982  -0.000000 0.000000 0.000000
73  -0.096187 1.080565 2.565981  -0.000000 0.000000 0.000000
time 16
0  0.000006 0.000000 0.000000  -1.570800 -1.391899 -1.570792
1  -3.865520 -0.192010 1.061693  -1.544956 -1.855077 -0.198630
2  6.027524 -0.000324 0.000193  -0.807406 -1.016430 -1.495028
3  11.692111 0.000644 -0.000741  -1.152275 -0.000011 -1.286651
4  11.480615 0.000607 -0.000434  1.222174 -0.571960 0.096431
5  3.859510 -0.142880 -1.192049  -0.574847 -0.304757 -1.777058
6  1.312589 0.000012 0.000007  -0.135527 0.003032 -0.200649
7  0.729355 0.000053 0.000051  -0.007831 -0.008960 -0.022519
8  3.942144 0.046272 -0.431512  -0.457086 0.163431 -1.133683
9  1.539111 0.000085 0.000005  -0.017952 -0.090240 -0.838237
10  1.196331 0.000145 0.000032  0.007751 0.004719 -0.800508
11  3.883503 -0.047270 0.431381  -0.247524 0.550882 -0.402952
12  1.719573 -0.000026 0.000016  0.037135 -0.100044 -1.334548
13  1.209179 0.000091 0.000011  -0.008755 -0.005102 -0.561727
14  4.085224 -0.082716 1.151041  0.033614 0.611304 -0.075125
15  1.719447 -0.000013 0.000021  0.001103 -0.029631 -0.766789
16  1.099675 0.000051 0.000006  -0.071025 0.044021 -1.321117
17  1.059850 -1.545955 0.873884  -0.919590 -0.590283 -0.357361
18  1.789818 -0.000002 -0.000019  -0.000001 -0.009377 0.757284
19  1.207016 -0.000012 -0.000043  0.001023 -0.000036 -0.104165
20  5.740637 0.000410 -0.000701  -0.111335 0.000003 0.000071
21  11.481132 0.000333 -0.000744  -0.055380 -0.096755 -0.011874
22  6.027525 -0.000330 0.000203  1.635948 -0.551008 1.522573
23  0.000001 11.692101 -0.000008  -0.901237 -0.362765 -0.724579
24  0.000002 0.000008 0.000000  -0.283187 -0.000031 1.570738
25  -0.000000 -0.000011 -0.000001  0.868957 0.000002 1.570712
26  -4.011518 -5.954122 0.376267  1.473120 1.855075 -0.198639
27  6.027503 -0.000262 -0.000228  1.505135 0.616768 -0.212255
28  11.691990 0.000244 0.000855  0.667115 0.000073 -1.856094
29  11.479191 -0.000401 0.001367  -1.157784 0.367444 0.383465
30  3.452864 -0.227596 1.051755  0.533352 -0.149658 -1.651757
31  1.312559 0.000028 -0.000002  -0.001011 0.013749 -0.916589
32  0.729347 0.000066 -0.000026  -0.019742 -0.002873 -0.520299
33  3.942050 0.050108 0.430996  0.518335 -0.132557 -1.624414
34  1.539094 0.000010 0.000000  -0.006678 -0.030360 -0.846057
35  1.196298 0.000076 -0.000004  0.001767 -0.002530 -0.866091
36  3.883413 -0.050504 -0.431088  0.268299 -0.273603 -1.261072
37  1.719563 -0.000080 -0.000003  -0.029198 0.025493 -1.449554
38  1.209195 0.000036 0.000011  -0.002172 -0.002925 -0.376412
39  3.245587 -0.145572 -1.308859  0.032033 0.000274 0.123459
40  1.719409 -0.000100 -0.000035  -0.098527 0.110450 -1.402806
41  1.099672 0.000025 0.000007  0.006227 -0.001252 -0.894404
42  0.594009 -0.285203 -1.857800  1.075925 0.014236 -0.875502
43  1.789780 -0.000011 -0.000044  0.020386 0.054042 -0.056213
44  1.206997 -0.000005 0.000003  0.112046 0.059847 1.317350
45  5.740572 0.000054 0.000725  0.089159 -0.000014 0.000021
46  11.480783 -0.000046 0.001023  0.068418 0.065574 0.048280
47  6.027514 -0.000272 -0.000236  -0.777975 -0.602195 -1.274093
48  -0.000002 11.691972 -0.000006  -1.238767 0.683880 0.925997
49  0.000003 0.000000 0.000001  2.939640 -0.000041 1.570856
50  -0.000007 -0.000015 0.000005  2.272644 -0.000030 1.570865
51  -5.165112 -7.214108 -6.496334  3.064522 -0.111206 -1.208909
52  0.000000 -0.000001 -0.000000  0.008153 -0.000259 0.000009
53  0.000001 -0.000000 -0.000001  1.565115 0.043565 -0.106862
54  -0.953168 -15.971001 -5.025814  -1.092801 -0.164307 -1.908166
55  -0.000000 -0.000000 0.000000  0.000000 -0.000000 -0.000002
56  0.000029 0.000029 0.000001  -1.571901 -0.044449 -0.106509
57  5.661260 -16.060535 -17.872917  1.570796 -0.000000 0.000000
58  -21.599098 7.001666 -12.508070  1.570796 -0.000000 0.000000
59  1.066008 0.876422 -3.770892  1.570796 -0.000000 0.000000
60  -0.004311 0.001230 -0.000371  0.006898 -0.005534 -0.284229
61  0.376268 6.572924 -2.887995  1.570796 -0.000000 0.000000
62  0.000000 0.000000 0.000000  -0.078727 -3.136056 0.284226
63  0.000000 0.000000 0.000000  1.570796 -0.000000 0.000000
64  -2.642748 -8.891958 -1.771615  1.549447 0.054765 0.014846
65  0.000000 -2.755924 2.037236  0.000000 -0.000000 -0.000000
66  -0.000306 -1.332276 -1.998147  0.000000 -0.000000 -0.000000
67  -0.001517 -1.253477 20.838209  0.000000 -0.000000 -0.000000
68  0.585406 -2.133196 -6.588482  0.000000 -0.000000 -0.000000
69  -0.000000 0.419707 7.832311  0.000000 -0.000000 -0.000000
70  -2.903952 -2.555724 -4.866605  1.549447 0.054765 0.014846
71  -0.113746 1.326355 2.565981  0.000000 -0.000000 -0.000000
72  0.120338 1.215166 2.565981  0.000000 -0.000000 -0.000000
73  -0.096187 1.080566 2.565982  0.000000 -0.000000 -0.000000
time 17
0  0.000006 0.000000 0.000000  -1.570800 -1.391899 -1.570792
1  -3.865520 -0.192010 1.061693  -1.544956 -1.855077 -0.198630
2  6.027524 -0.000324 0.000193  -0.806969 -1.017926 -1.497339
3  11.692111 0.000643 -0.000741  -1.152275 -0.000011 -1.282739
4  11.480645 0.000616 -0.000422  1.223178 -0.569290 0.096909
5  3.859511 -0.142881 -1.192049  -0.574848 -0.304757 -1.777057
6  1.312589 0.000013 0.000010  -0.135527 0.003032 -0.200649
7  0.729355 0.000054 0.000049  -0.007831 -0.008960 -0.022519
8  3.942144 0.046271 -0.431511  -0.457086 0.163431 -1.133683
9  1.539111 0.000084 0.000004  -0.017952 -0.090240 -0.838237
10  1.196331 0.000146 0.000033  0.007751 0.004719 -0.800508
11  3.883505 -0.047271 0.431381  -0.247524 0.550882 -0.402951
12  1.719573 -0.000027 0.000015  0.037135 -0.100044 -1.334548
13  1.209180 0.000091 0.000010  -0.008755 -0.005102 -0.561727
14  4.085224 -0.082717 1.151041  0.033614 0.611304 -0.075125
15  1.719450 -0.000011 0.000022  0.001103 -0.029631 -0.766789
16  1.099675 0.000047 0.000008  -0.071025 0.044021 -1.321117
17  1.059853 -1.545956 0.873885  -0.919590 -0.590284 -0.357361
18  1.789820 -0.000006 -0.000019  -0.000001 -0.009377 0.757284
19  1.207017 -0.000011 -0.000043  0.001023 -0.000036 -0.104165
20  5.740637 0.000411 -0.000704  -0.110652 0.000003 0.000070
21  11.481136 0.000335 -0.000744  -0.055241 -0.096228 -0.011641
22  6.027525 -0.000330 0.000203  1.635463 -0.549551 1.520888
23  0.000001 11.692099 -0.000007  -0.898844 -0.360787 -0.722901
24  0.000002 0.000008 -0.000002  -0.283187 -0.000031 1.570739
25  -0.000001 -0.000011 0.000000  0.868957 0.000002 1.570712
26  -4.011518 -5.954122 0.376267  1.473120 1.855075 -0.198639
27  6.027503 -0.000262 -0.000228  1.505450 0.619087 -0.212190
28  11.691991 0.000243 0.000854  0.667115 0.000073 -1.852826
29  11.479218 -0.000388 0.001356  -1.157518 0.367082 0.382597
30  3.452864 -0.227595 1.051755  0.533352 -0.149658 -1.651757
31  1.312559 0.000026 -0.000000  -0.001011 0.013749 -0.916589
32  0.729347 0.000066 -0.000026  -0.019742 -0.002873 -0.520299
33  3.942049 0.050108 0.430997  0.518335 -0.132557 -1.624414
34  1.539093 0.000009 -0.000001  -0.006678 -0.030360 -0.846057
35  1.196299 0.000075 -0.000004  0.001767 -0.002530 -0.866091
36  3.883413 -0.050504 -0.431087  0.268299 -0.273603 -1.261072
37  1.719563 -0.000080 -0.000003  -0.029197 0.025493 -1.449554
38  1.209194 0.000036 0.000011  -0.002172 -0.002925 -0.376412
39  3.245586 -0.145572 -1.308859  0.032033 0.000274 0.123459
40  1.719410 -0.000101 -0.000036  -0.098527 0.110450 -1.402806
41  1.099672 0.000025 0.000007  0.006227 -0.001252 -0.894404
42  0.594009 -0.285203 -1.857800  1.075925 0.014236 -0.875502
43  1.789779 -0.000011 -0.000044  0.020386 0.054042 -0.056213
44  1.206997 -0.000006 0.000003  0.112046 0.059847 1.317350
45  5.740572 0.000055 0.000724  0.089202 -0.000014 0.000021
46  11.480788 -0.000043 0.001021  0.068507 0.065489 0.048112
47  6.027514 -0.000272 -0.000236  -0.780278 -0.600840 -1.272907
48  -0.000002 11.691973 -0.000006  -1.236832 0.681886 0.925108
49  0.000003 -0.000001 0.000000  2.939640 -0.000041 1.570856
50  -0.000008 -0.000016 0.000005  2.272644 -0.000030 1.570865
51  -5.157702 -7.245212 -6.491878  3.064935 -0.111604 -1.209203
52  -0.000000 0.000001 -0.000000  0.008153 -0.000259 0.000009
53  0.000000 0.000000 0.000000  1.565115 0.043565 -0.106862
54  -0.948702 -16.002813 -5.017162  -1.092223 -0.164347 -1.908508
55  0.000001 0.000000 0.000000  0.000000 -0.000000 -0.000002
56  0.000030 0.000029 0.000001  -1.571901 -0.044449 -0.106509
57  5.661260 -16.060535 -17.872917  1.570796 -0.000000 0.000000
58  -21.599098 7.001666 -12.508070  1.570796 -0.000000 0.000000
59  1.066008 0.876422 -3.770892  1.570796 -0.000000 0.000000
60  -0.004311 0.001230 -0.000371  0.006898 -0.005534 -0.284229
61  0.376268 6.572924 -2.887995  1.570796 -0.000000 0.000000
62  0.000000 0.000000 0.000000  -0.078727 -3.136056 0.284226
63  0.000000 0.000000 0.000000  1.570796 -0.000000 0.000000
64  -2.638234 -8.922614 -1.765455  1.549212 0.054244 0.014586
65  0.000001 -2.755924 2.037234  -0.000000 0.000000 -0.000000
66  -0.000306 -1.332277 -1.998148  0.000000 0.000000 -0.000000
67  -0.001517 -1.253476 20.838209  -0.000000 0.000000 -0.000000
68  0.585406 -2.133196 -6.588483  -0.000000 0.000000 -0.000000
69  0.000000 0.419707 7.832307  -0.000000 0.000000 -0.000000
70  -2.896242 -2.587018 -4.862019  1.549212 0.054244 0.014586
71  -0.113746 1.326355 2.565981  -0.000000 0.000000 -0.000000
72  0.120339 1.215165 2.565982  -0.000000 0.000000 -0.000000
73  -0.096187 1.080565 2.565981  -0.000000 0.000000 -0.000000
time 18
0  0.000006 0.000000 0.000000  -1.570800 -1.391899 -1.570792
1  -3.865520 -0.192010 1.061693  -1.544956 -1.855077 -0.198630
2  6.027524 -0.000324 0.000193  -0.806973 -1.018528 -1.498228
3  11.692111 0.000643 -0.000740  -1.152275 -0.000011 -1.281180
4  11.480656 0.000618 -0.000416  1.223865 -0.568177 0.097317
5  3.859507 -0.142881 -1.192050  -0.574847 -0.304757 -1.777058
6  1.312590 0.000011 0.000007  -0.135527 0.003032 -0.200649
7  0.729356 0.000054 0.000049  -0.007831 -0.008960 -0.022519
8  3.942143 0.046272 -0.431512  -0.457086 0.163431 -1.133683
9  1.539111 0.000084 0.000006  -0.017952 -0.090240 -0.838237
10  1.196332 0.000146 0.000030  0.007751 0.004719 -0.800508
11  3.883505 -0.047270 0.431381  -0.247524 0.550882 -0.402952
12  1.719573 -0.000028 0.000016  0.037135 -0.100044 -1.334548
13  1.209178 0.000090 0.000013  -0.008755 -0.005102 -0.561727
14  4.085221 -0.082716 1.151040  0.033614 0.611304 -0.075125
15  1.719449 -0.000012 0.000022  0.001103 -0.029631 -0.766789
16  1.099676 0.000049 0.000006  -0.071025 0.044021 -1.321117
17  1.059852 -1.545955 0.873884  -0.919590 -0.590284 -0.357361
18  1.789819 -0.000003 -0.000018  -0.000001 -0.009377 0.757284
19  1.207014 -0.000012 -0.000044  0.001023 -0.000036 -0.104165
20  5.740639 0.000410 -0.000703  -0.110291 0.000003 0.000071
21  11.481140 0.000336 -0.000741  -0.055125 -0.096011 -0.011488
22  6.027525 -0.000330 0.000203  1.635379 -0.548953 1.520039
23  0.000003 11.692100 -0.000007  -0.897889 -0.359999 -0.722230
24  0.000004 0.000008 -0.000001  -0.283187 -0.000030 1.570739
25  -0.000000 -0.000011 -0.000000  0.868957 0.000002 1.570712
26  -4.011518 -5.954122 0.376267  1.473120 1.855075 -0.198639
27  6.027503 -0.000262 -0.000228  1.505425 0.620165 -0.212262
28  11.691992 0.000244 0.000856  0.667115 0.000073 -1.851421
29  11.479233 -0.000380 0.001351  -1.157227 0.367148 0.382118
30  3.452863 -0.227596 1.051754  0.533352 -0.149658 -1.651757
31  1.312558 0.000026 -0.000000  -0.001011 0.013749 -0.916589
32  0.729346 0.000066 -0.000026  -0.019742 -0.002873 -0.520299
33  3.942049 0.050107 0.430996  0.518335 -0.132557 -1.624414
34  1.539093 0.000009 -0.000000  -0.006678 -0.030360 -0.846057
35  1.196299 0.000076 -0.000004  0.001767 -0.002530 -0.866091
36  3.883411 -0.050504 -0.431088  0.268299 -0.273603 -1.261072
37  1.719563 -0.000080 -0.000004  -0.029197 0.025493 -1.449554
38  1.209195 0.000036 0.000011  -0.002172 -0.002925 -0.376412
39  3.245586 -0.145573 -1.308860  0.032033 0.000274 0.123459
40  1.719410 -0.000100 -0.000036  -0.098527 0.110450 -1.402806
41  1.099672 0.000027 0.000007  0.006227 -0.001252 -0.894404
42  0.594008 -0.285204 -1.857800  1.075925 0.014236 -0.875502
43  1.789780 -0.000012 -0.000043  0.020386 0.054042 -0.056213
44  1.206997 -0.000007 0.000003  0.112046 0.059847 1.317350
45  5.740572 0.000056 0.000724  0.089252 -0.000014 0.000021
46  11.480791 -0.000040 0.001021  0.068572 0.065497 0.048002
47  6.027514 -0.000272 -0.000236  -0.781431 -0.600331 -1.272313
48  -0.000001 11.691974 -0.000006  -1.236001 0.681029 0.924725
49  0.000002 -0.000000 0.000002  2.939640 -0.000041 1.570856
50  -0.000007 -0.000015 0.000005  2.272644 -0.000030 1.570865
51  -5.152637 -7.258383 -6.491005  3.065386 -0.111899 -1.209351
52  -0.000001 -0.000000 0.000000  0.008153 -0.000259 0.000009
53  0.000000 -0.000001 -0.000001  1.565115 0.043565 -0.106862
54  -0.945260 -16.016220 -5.013051  -1.091683 -0.164285 -1.908694
55  -0.000001 -0.000001 -0.000000  0.000000 -0.000000 -0.000002
56  0.000029 0.000028 0.000001  -1.571902 -0.044449 -0.106509
57  5.661260 -16.060535 -17.872917  1.570796 -0.000000 0.000000
58  -21.599098 7.001666 -12.508070  1.570796 -0.000000 0.000000
59  1.066008 0.876422 -3.770892  1.570796 -0.000000 0.000000
60  -0.004311 0.001230 -0.000371  0.006898 -0.005534 -0.284229
61  0.376268 6.572924 -2.887995  1.570796 -0.000000 0.000000
62  0.000000 0.000000 0.000000  -0.078727 -3.136056 0.284226
63  0.000000 0.000000 0.000000  1.570796 -0.000000 0.000000
64  -2.635804 -8.935471 -1.763066  1.549086 0.053723 0.014481
65  0.000001 -2.755923 2.037236  -0.000000 0.000000 0.000000
66  -0.000306 -1.332276 -1.998146  -0.000000 0.000000 0.000000
67  -0.001517 -1.253476 20.838211  -0.000000 0.000000 0.000000
68  0.585406 -2.133195 -6.588481  -0.000000 0.000000 0.000000
69  0.000000 0.419707 7.832313  -0.000000 0.000000 0.000000
70  -2.891576 -2.600216 -4.860515  1.549086 0.053723 0.014481
71  -0.113746 1.326355 2.565982  -0.000000 0.000000 0.000000
72  0.120338 1.215165 2.565982  -0.000000 0.000000 0.000000
73  -0.096187 1.080566 2.565982  -0.000000 0.000000 0.000000
end
