version 1
nodes
0 "ValveBiped.Bip01_Spine4" -1
1 "ValveBiped.Bip01_L_Clavicle" 0
2 "ValveBiped.Bip01_L_UpperArm" 1
3 "ValveBiped.Bip01_L_Forearm" 2
4 "ValveBiped.Bip01_L_Hand" 3
5 "ValveBiped.Bip01_L_Finger4" 4
6 "ValveBiped.Bip01_L_Finger41" 5
7 "ValveBiped.Bip01_L_Finger42" 6
8 "ValveBiped.Bip01_L_Finger3" 4
9 "ValveBiped.Bip01_L_Finger31" 8
10 "ValveBiped.Bip01_L_Finger32" 9
11 "ValveBiped.Bip01_L_Finger2" 4
12 "ValveBiped.Bip01_L_Finger21" 11
13 "ValveBiped.Bip01_L_Finger22" 12
14 "ValveBiped.Bip01_L_Finger1" 4
15 "ValveBiped.Bip01_L_Finger11" 14
16 "ValveBiped.Bip01_L_Finger12" 15
17 "ValveBiped.Bip01_L_Finger0" 4
18 "ValveBiped.Bip01_L_Finger01" 17
19 "ValveBiped.Bip01_L_Finger02" 18
20 "ValveBiped.Bip01_L_Ulna" 3
21 "ValveBiped.Bip01_L_Wrist" 3
22 "rig_l_upperarm" 1
23 "rig_l_forearm" 22
24 "rig_d_l_forearm" 23
25 "rig_d_l_upperarm" 22
26 "ValveBiped.Bip01_R_Clavicle" 0
27 "ValveBiped.Bip01_R_UpperArm" 26
28 "ValveBiped.Bip01_R_Forearm" 27
29 "ValveBiped.Bip01_R_Hand" 28
30 "ValveBiped.Bip01_R_Finger4" 29
31 "ValveBiped.Bip01_R_Finger41" 30
32 "ValveBiped.Bip01_R_Finger42" 31
33 "ValveBiped.Bip01_R_Finger3" 29
34 "ValveBiped.Bip01_R_Finger31" 33
35 "ValveBiped.Bip01_R_Finger32" 34
36 "ValveBiped.Bip01_R_Finger2" 29
37 "ValveBiped.Bip01_R_Finger21" 36
38 "ValveBiped.Bip01_R_Finger22" 37
39 "ValveBiped.Bip01_R_Finger1" 29
40 "ValveBiped.Bip01_R_Finger11" 39
41 "ValveBiped.Bip01_R_Finger12" 40
42 "ValveBiped.Bip01_R_Finger0" 29
43 "ValveBiped.Bip01_R_Finger01" 42
44 "ValveBiped.Bip01_R_Finger02" 43
45 "ValveBiped.Bip01_R_Ulna" 28
46 "ValveBiped.Bip01_R_Wrist" 28
47 "rig_r_upperarm" 26
48 "rig_r_forearm" 47
49 "rig_d_r_forearm" 48
50 "rig_d_r_upperarm" 47
51 "rig_r_hand" -1
52 "rig_d_r_hand" 51
53 "rig_d_r_wrist" 52
54 "rig_l_hand" -1
55 "rig_d_l_hand" 54
56 "rig_d_l_wrist" 54
57 "rig_l_pole" -1
58 "rig_r_pole" -1
59 "rig_l_clavicle" -1
60 "rig_d_l_clavicle" 59
61 "rig_r_clavicle" -1
62 "rig_d_r_clavicle" 61
63 "Camera" -1
64 "body" -1
65 "trigger" 64
66 "bolt" 64
67 "barrel" 64
68 "magrel" 64
69 "chandle" 64
70 "mag" -1
71 "bullet1" 70
72 "bullet2" 70
73 "bullet3" 70
end
skeleton
time 0
0  0.000006 0.000000 0.000000  -1.570800 -1.391899 -1.570792
1  -3.865520 -0.192010 1.061693  -1.544956 -1.855077 -0.198630
2  6.027524 -0.000324 0.000193  -0.818334 -1.011947 -1.486105
3  11.692110 0.000644 -0.000739  -1.152276 -0.000012 -1.291638
4  11.480578 0.000599 -0.000454  1.236239 -0.579251 0.150149
5  3.859509 -0.142880 -1.192050  -0.574848 -0.304757 -1.777058
6  1.312590 0.000013 0.000008  -0.135527 0.003032 -0.200649
7  0.729355 0.000054 0.000047  -0.007831 -0.008960 -0.022519
8  3.942144 0.046273 -0.431513  -0.457086 0.163431 -1.133683
9  1.539110 0.000083 0.000003  -0.017952 -0.090240 -0.838237
10  1.196333 0.000144 0.000028  0.007751 0.004719 -0.800508
11  3.883504 -0.047270 0.431381  -0.247524 0.550882 -0.402952
12  1.719574 -0.000026 0.000016  0.037135 -0.100044 -1.334548
13  1.209178 0.000091 0.000011  -0.008755 -0.005102 -0.561727
14  4.085225 -0.082716 1.151040  0.033614 0.611304 -0.075125
15  1.719449 -0.000012 0.000022  0.001103 -0.029631 -0.766789
16  1.099675 0.000053 0.000006  -0.071025 0.044021 -1.321117
17  1.059850 -1.545955 0.873883  -0.919590 -0.590284 -0.357361
18  1.789820 -0.000004 -0.000018  -0.000001 -0.009377 0.757284
19  1.207015 -0.000012 -0.000044  0.001023 -0.000036 -0.104165
20  5.740636 0.000410 -0.000703  -0.102269 0.000003 0.000071
21  11.481123 0.000332 -0.000749  -0.050411 -0.099248 -0.000877
22  6.027525 -0.000330 0.000203  1.643360 -0.554700 1.518325
23  0.000002 11.692100 -0.000007  -0.904285 -0.365292 -0.726713
24  0.000003 0.000008 -0.000000  -0.283187 -0.000031 1.570738
25  -0.000001 -0.000011 -0.000000  0.868957 0.000002 1.570712
26  -4.011518 -5.954122 0.376267  1.473120 1.855075 -0.198639
27  6.027503 -0.000262 -0.000228  1.485229 0.628252 -0.224889
28  11.691989 0.000242 0.000855  0.667115 0.000074 -1.864254
29  11.479117 -0.000431 0.001390  -1.100610 0.409248 0.404570
30  3.452863 -0.227596 1.051755  0.533352 -0.149658 -1.651757
31  1.312559 0.000028 -0.000001  -0.001011 0.013749 -0.916589
32  0.729345 0.000066 -0.000026  -0.019742 -0.002873 -0.520299
33  3.942047 0.050108 0.430997  0.518335 -0.132557 -1.624414
34  1.539094 0.000009 -0.000001  -0.006678 -0.030360 -0.846057
35  1.196299 0.000075 -0.000004  0.001767 -0.002530 -0.866091
36  3.883412 -0.050504 -0.431088  0.268299 -0.273603 -1.261072
37  1.719563 -0.000081 -0.000004  -0.029198 0.025493 -1.449554
38  1.209193 0.000036 0.000012  -0.002172 -0.002925 -0.376412
39  3.245585 -0.145574 -1.308862  0.045911 0.028174 0.055241
40  1.719413 -0.000099 -0.000037  -0.109220 0.124551 -1.492957
41  1.099674 0.000028 0.000008  0.003677 -0.001213 -0.900134
42  0.594009 -0.285203 -1.857801  1.075925 0.014236 -0.875502
43  1.789779 -0.000011 -0.000043  0.020386 0.054042 -0.056213
44  1.206997 -0.000007 0.000003  0.112046 0.059847 1.317350
45  5.740572 0.000056 0.000724  0.099883 -0.000014 0.000021
46  11.480768 -0.000051 0.001027  0.076675 0.076279 0.048099
47  6.027514 -0.000272 -0.000236  -0.799892 -0.610506 -1.262630
48  -0.000003 11.691972 -0.000007  -1.243601 0.688865 0.928201
49  0.000002 -0.000001 0.000001  2.939640 -0.000041 1.570856
50  -0.000007 -0.000016 0.000004  2.272644 -0.000030 1.570865
51  -4.870616 -7.117123 -6.579673  3.123634 -0.109551 -1.230854
52  0.000000 0.000000 0.000000  0.008153 -0.000259 0.000009
53  -0.000000 -0.000000 0.000000  1.565115 0.043565 -0.106862
54  -0.875751 -15.969684 -5.076584  -1.048438 -0.125221 -1.929999
55  -0.000001 -0.000000 0.000000  0.000000 -0.000000 -0.000002
56  0.000029 0.000029 0.000001  -1.571901 -0.044449 -0.106509
57  5.661260 -16.060535 -17.872917  1.570796 -0.000000 0.000000
58  -21.599098 7.001666 -12.508070  1.570796 -0.000000 0.000000
59  1.066008 0.876422 -3.770892  1.570796 -0.000000 0.000000
60  -0.004311 0.001230 -0.000371  0.006898 -0.005534 -0.284229
61  0.376268 6.572924 -2.887995  1.570796 -0.000000 0.000000
62  0.000000 0.000000 0.000000  -0.078727 -3.136056 0.284226
63  -2.635804 -5.404278 -0.394992  1.570796 -0.000000 0.000000
64  -2.635804 -8.935471 -1.763066  1.570796 -0.000000 0.000000
65  0.000000 -2.755923 1.840478  0.000000 -0.000000 0.000000
66  -0.000306 -1.332276 -5.672091  0.000000 -0.000000 0.000000
67  -0.001517 -1.253476 20.838209  0.000000 -0.000000 0.000000
68  0.585406 -2.133196 -6.588482  0.000000 -0.000000 0.000000
69  0.000000 0.419707 7.832310  0.000000 -0.000000 0.000000
70  -2.633249 -2.531335 -4.726527  1.570796 -0.000000 0.000000
71  -0.113746 1.326355 2.565981  0.000000 -0.000000 0.000000
72  0.120338 1.215165 2.565981  0.000000 -0.000000 0.000000
73  -0.096187 1.080565 2.565981  0.000000 -0.000000 0.000000
time 1
0  0.000006 0.000000 0.000000  -1.570800 -1.391899 -1.570792
1  -3.865520 -0.192010 1.061693  -1.544956 -1.855077 -0.198630
2  6.027524 -0.000324 0.000193  -0.825246 -0.994572 -1.459429
3  11.692109 0.000642 -0.000739  -1.152279 -0.000015 -1.350167
4  11.480169 0.000508 -0.000663  1.222211 -0.613352 0.150232
5  3.859509 -0.142881 -1.192049  -0.574848 -0.304757 -1.777058
6  1.312590 0.000011 0.000007  -0.135527 0.003032 -0.200649
7  0.729354 0.000054 0.000050  -0.007831 -0.008960 -0.022519
8  3.942145 0.046273 -0.431512  -0.457086 0.163431 -1.133683
9  1.539111 0.000085 0.000007  -0.017952 -0.090240 -0.838237
10  1.196332 0.000145 0.000031  0.007751 0.004719 -0.800508
11  3.883506 -0.047269 0.431381  -0.247524 0.550882 -0.402951
12  1.719574 -0.000027 0.000015  0.037135 -0.100044 -1.334548
13  1.209179 0.000093 0.000015  -0.008755 -0.005102 -0.561727
14  4.085224 -0.082716 1.151041  0.033614 0.611304 -0.075125
15  1.719448 -0.000012 0.000022  0.001103 -0.029631 -0.766789
16  1.099675 0.000048 0.000005  -0.071025 0.044021 -1.321117
17  1.059853 -1.545955 0.873884  -0.881574 -0.659048 -0.419405
18  1.789819 -0.000003 -0.000018  -0.001780 -0.013171 0.952926
19  1.207016 -0.000012 -0.000044  0.001443 -0.000092 -0.057897
20  5.740637 0.000411 -0.000702  -0.111929 0.000003 0.000071
21  11.481043 0.000314 -0.000790  -0.051986 -0.106159 -0.002794
22  6.027525 -0.000330 0.000203  1.650617 -0.571374 1.535299
23  0.000003 11.692099 -0.000008  -0.939863 -0.395400 -0.751295
24  0.000002 0.000008 -0.000001  -0.283187 -0.000030 1.570739
25  -0.000000 -0.000011 -0.000000  0.868957 0.000002 1.570712
26  -4.011518 -5.954122 0.376267  1.473120 1.855075 -0.198639
27  6.027503 -0.000262 -0.000228  1.483301 0.601321 -0.224153
28  11.691992 0.000243 0.000855  0.667115 0.000078 -1.914141
29  11.478680 -0.000607 0.001527  -1.106257 0.424431 0.422896
30  3.452863 -0.227595 1.051755  0.533352 -0.149658 -1.651757
31  1.312559 0.000028 -0.000001  -0.001011 0.013749 -0.916589
32  0.729345 0.000066 -0.000028  -0.019742 -0.002873 -0.520299
33  3.942049 0.050108 0.430997  0.518335 -0.132557 -1.624414
34  1.539094 0.000010 -0.000001  -0.006678 -0.030360 -0.846057
35  1.196299 0.000076 -0.000003  0.001767 -0.002530 -0.866091
36  3.883413 -0.050504 -0.431088  0.268299 -0.273603 -1.261072
37  1.719564 -0.000080 -0.000004  -0.029198 0.025493 -1.449554
38  1.209194 0.000036 0.000012  -0.002172 -0.002925 -0.376412
39  3.245587 -0.145574 -1.308861  0.045911 0.028174 0.055241
40  1.719413 -0.000100 -0.000037  -0.109220 0.124551 -1.492957
41  1.099674 0.000029 0.000008  0.003677 -0.001213 -0.900134
42  0.594009 -0.285203 -1.857800  1.075925 0.014236 -0.875502
43  1.789779 -0.000011 -0.000043  0.020386 0.054042 -0.056213
44  1.206997 -0.000006 0.000003  0.112046 0.059847 1.317350
45  5.740571 0.000054 0.000723  0.099216 -0.000014 0.000021
46  11.480679 -0.000087 0.001055  0.074280 0.079572 0.051291
47  6.027514 -0.000272 -0.000236  -0.772279 -0.625382 -1.276780
48  -0.000001 11.691973 -0.000007  -1.273295 0.719512 0.941186
49  0.000003 -0.000002 0.000000  2.939640 -0.000041 1.570856
50  -0.000007 -0.000016 0.000004  2.272644 -0.000030 1.570865
51  -4.903262 -6.646913 -6.561661  3.113708 -0.109952 -1.230617
52  0.000000 0.000001 -0.000000  0.008153 -0.000259 0.000009
53  -0.000000 -0.000000 -0.000000  1.565115 0.043565 -0.106862
54  -0.902160 -15.497365 -5.062752  -1.055792 -0.131878 -1.929906
55  0.000002 -0.000000 -0.000000  0.000000 -0.000000 -0.000002
56  0.000033 0.000029 0.000001  -1.571901 -0.044449 -0.106509
57  5.661260 -16.060535 -17.872917  1.570796 -0.000000 0.000000
58  -21.599098 7.001666 -12.508070  1.570796 -0.000000 0.000000
59  1.066008 0.876422 -3.770892  1.570796 -0.000000 0.000000
60  -0.004311 0.001230 -0.000371  0.006898 -0.005534 -0.284229
61  0.376268 6.572924 -2.887995  1.570796 -0.000000 0.000000
62  0.000000 0.000000 0.000000  -0.078727 -3.136056 0.284226
63  -2.635804 -5.404278 -0.394992  1.570796 -0.000000 0.000000
64  -2.625893 -8.449533 -1.759097  1.567124 0.009167 -0.000867
65  0.000001 -2.755923 1.840478  0.000000 0.000000 0.000000
66  -0.000306 -1.332276 -1.998147  0.000000 0.000000 0.000000
67  -0.001517 -1.253476 20.838211  0.000000 0.000000 0.000000
68  0.585406 -2.133196 -6.588482  0.000000 0.000000 0.000000
69  -0.000000 0.419707 3.354276  0.000000 0.000000 0.000000
70  -2.645175 -2.056306 -4.745956  1.567124 0.009167 -0.000867
71  -0.113746 1.326355 2.565981  0.000000 0.000000 0.000000
72  0.120338 1.215165 2.565981  0.000000 0.000000 0.000000
73  -0.096187 1.080565 2.565981  0.000000 0.000000 0.000000
time 2
0  0.000006 0.000000 0.000000  -1.570800 -1.391899 -1.570792
1  -3.865520 -0.192010 1.061693  -1.544956 -1.855077 -0.198630
2  6.027524 -0.000324 0.000193  -0.824229 -0.995586 -1.461081
3  11.692110 0.000643 -0.000740  -1.152278 -0.000015 -1.346885
4  11.480191 0.000513 -0.000653  1.222368 -0.611920 0.152047
5  3.859509 -0.142880 -1.192049  -0.574847 -0.304757 -1.777058
6  1.312590 0.000010 0.000008  -0.135527 0.003032 -0.200649
7  0.729355 0.000054 0.000048  -0.007831 -0.008960 -0.022519
8  3.942145 0.046272 -0.431511  -0.457086 0.163431 -1.133683
9  1.539110 0.000085 0.000006  -0.017952 -0.090240 -0.838237
10  1.196332 0.000143 0.000028  0.007751 0.004719 -0.800508
11  3.883506 -0.047269 0.431382  -0.247524 0.550882 -0.402952
12  1.719573 -0.000026 0.000014  0.037135 -0.100044 -1.334548
13  1.209179 0.000090 0.000012  -0.008755 -0.005102 -0.561727
14  4.085225 -0.082716 1.151041  0.033614 0.611304 -0.075125
15  1.719450 -0.000011 0.000022  0.001103 -0.029631 -0.766789
16  1.099675 0.000048 0.000006  -0.071025 0.044021 -1.321117
17  1.059852 -1.545955 0.873884  -0.891421 -0.642618 -0.403832
18  1.789821 -0.000003 -0.000019  -0.001283 -0.012288 0.905696
19  1.207015 -0.000012 -0.000042  0.001342 -0.000077 -0.069073
20  5.740638 0.000410 -0.000704  -0.111320 0.000003 0.000070
21  11.481048 0.000315 -0.000788  -0.051922 -0.105916 -0.002389
22  6.027525 -0.000330 0.000203  1.649790 -0.570451 1.534947
23  0.000002 11.692100 -0.000008  -0.937878 -0.393691 -0.749940
24  0.000003 0.000009 -0.000001  -0.283187 -0.000031 1.570738
25  -0.000000 -0.000011 -0.000001  0.868957 0.000002 1.570712
26  -4.011518 -5.954122 0.376267  1.473120 1.855075 -0.198639
27  6.027503 -0.000262 -0.000228  1.483418 0.602755 -0.224186
28  11.691992 0.000242 0.000855  0.667115 0.000078 -1.912178
29  11.478699 -0.000599 0.001523  -1.103766 0.424675 0.423622
30  3.452863 -0.227595 1.051755  0.533352 -0.149658 -1.651757
31  1.312558 0.000025 -0.000001  -0.001011 0.013749 -0.916589
32  0.729345 0.000066 -0.000028  -0.019742 -0.002873 -0.520299
33  3.942049 0.050108 0.430997  0.518335 -0.132557 -1.624414
34  1.539093 0.000009 0.000000  -0.006678 -0.030360 -0.846057
35  1.196300 0.000075 -0.000003  0.001767 -0.002530 -0.866091
36  3.883412 -0.050504 -0.431088  0.268299 -0.273603 -1.261072
37  1.719563 -0.000080 -0.000004  -0.029198 0.025493 -1.449554
38  1.209193 0.000036 0.000012  -0.002172 -0.002925 -0.376412
39  3.245587 -0.145574 -1.308861  0.045911 0.028174 0.055241
40  1.719413 -0.000099 -0.000037  -0.109220 0.124551 -1.492957
41  1.099673 0.000028 0.000008  0.003677 -0.001213 -0.900134
42  0.594008 -0.285203 -1.857800  1.075925 0.014236 -0.875502
43  1.789779 -0.000011 -0.000043  0.020386 0.054042 -0.056213
44  1.206997 -0.000006 0.000003  0.112046 0.059847 1.317350
45  5.740572 0.000056 0.000724  0.099679 -0.000014 0.000021
46  11.480684 -0.000083 0.001054  0.074714 0.079733 0.051299
47  6.027514 -0.000272 -0.000236  -0.773756 -0.624587 -1.276016
48  -0.000002 11.691972 -0.000006  -1.272122 0.718300 0.940691
49  0.000002 -0.000002 -0.000000  2.939640 -0.000041 1.570856
50  -0.000007 -0.000016 0.000005  2.272644 -0.000030 1.570865
51  -4.897808 -6.665829 -6.559634  3.115905 -0.109374 -1.231685
52  0.000000 0.000000 0.000000  0.008153 -0.000259 0.000009
53  -0.000000 -0.000000 -0.000000  1.565115 0.043565 -0.106862
54  -0.906827 -15.521494 -5.064529  -1.054481 -0.130030 -1.930905
55  0.000000 -0.000001 0.000000  0.000000 -0.000000 -0.000002
56  0.000030 0.000028 0.000001  -1.571901 -0.044449 -0.106509
57  5.661260 -16.060535 -17.872917  1.570796 -0.000000 0.000000
58  -21.599098 7.001666 -12.508070  1.570796 -0.000000 0.000000
59  1.066008 0.876422 -3.770892  1.570796 -0.000000 0.000000
60  -0.004311 0.001230 -0.000371  0.006898 -0.005534 -0.284229
61  0.376268 6.572924 -2.887995  1.570796 -0.000000 0.000000
62  0.000000 0.000000 0.000000  -0.078727 -3.136056 0.284226
63  -2.635804 -5.404278 -0.394992  1.570796 -0.000000 0.000000
64  -2.630901 -8.476441 -1.755126  1.568398 0.007302 -0.001684
65  0.000000 -2.755924 1.840477  -0.000000 -0.000000 0.000000
66  -0.000306 -1.332276 -1.998148  -0.000000 -0.000000 0.000000
67  -0.001517 -1.253476 20.838209  -0.000000 -0.000000 0.000000
68  0.585406 -2.133196 -6.588483  -0.000000 -0.000000 0.000000
69  -0.000000 0.419707 7.832310  -0.000000 -0.000000 0.000000
70  -2.639323 -2.079407 -4.733876  1.568398 0.007302 -0.001684
71  -0.113746 1.326354 2.565982  -0.000000 -0.000000 0.000000
72  0.120338 1.215164 2.565982  -0.000000 -0.000000 0.000000
73  -0.096187 1.080565 2.565982  -0.000000 -0.000000 0.000000
time 3
0  0.000006 0.000000 0.000000  -1.570800 -1.391899 -1.570792
1  -3.865520 -0.192010 1.061693  -1.544956 -1.855077 -0.198630
2  6.027524 -0.000324 0.000193  -0.824457 -0.997190 -1.463392
3  11.692109 0.000643 -0.000739  -1.152278 -0.000014 -1.339975
4  11.480234 0.000524 -0.000628  1.225089 -0.609392 0.154297
5  3.859509 -0.142880 -1.192050  -0.574848 -0.304757 -1.777058
6  1.312591 0.000011 0.000007  -0.135527 0.003032 -0.200649
7  0.729357 0.000053 0.000047  -0.007831 -0.008960 -0.022519
8  3.942143 0.046273 -0.431513  -0.457086 0.163431 -1.133683
9  1.539110 0.000086 0.000005  -0.017952 -0.090240 -0.838237
10  1.196332 0.000145 0.000029  0.007751 0.004719 -0.800508
11  3.883506 -0.047269 0.431382  -0.247524 0.550882 -0.402951
12  1.719572 -0.000027 0.000015  0.037135 -0.100044 -1.334548
13  1.209179 0.000092 0.000013  -0.008755 -0.005102 -0.561727
14  4.085223 -0.082715 1.151041  0.033614 0.611304 -0.075125
15  1.719451 -0.000011 0.000022  0.001103 -0.029631 -0.766789
16  1.099676 0.000050 0.000006  -0.071025 0.044021 -1.321117
17  1.059849 -1.545955 0.873883  -0.911053 -0.607063 -0.371779
18  1.789821 -0.000003 -0.000017  -0.000362 -0.010324 0.804511
19  1.207014 -0.000012 -0.000044  0.001125 -0.000047 -0.092989
20  5.740637 0.000410 -0.000702  -0.109694 0.000003 0.000071
21  11.481054 0.000317 -0.000782  -0.051400 -0.105431 -0.001705
22  6.027525 -0.000330 0.000203  1.649660 -0.568847 1.532514
23  0.000002 11.692101 -0.000007  -0.933694 -0.390099 -0.747076
24  0.000003 0.000009 -0.000001  -0.283187 -0.000031 1.570739
25  0.000000 -0.000012 -0.000000  0.868957 0.000002 1.570712
26  -4.011518 -5.954122 0.376267  1.473120 1.855075 -0.198639
27  6.027503 -0.000262 -0.000228  1.483223 0.606401 -0.224560
28  11.691991 0.000244 0.000854  0.667115 0.000077 -1.905803
29  11.478756 -0.000578 0.001507  -1.099510 0.422459 0.421872
30  3.452863 -0.227595 1.051755  0.533352 -0.149658 -1.651757
31  1.312559 0.000025 -0.000002  -0.001011 0.013749 -0.916589
32  0.729346 0.000066 -0.000027  -0.019742 -0.002873 -0.520299
33  3.942049 0.050109 0.430997  0.518335 -0.132557 -1.624414
34  1.539093 0.000010 -0.000000  -0.006678 -0.030360 -0.846057
35  1.196300 0.000075 -0.000003  0.001767 -0.002530 -0.866091
36  3.883413 -0.050503 -0.431088  0.268299 -0.273603 -1.261072
37  1.719563 -0.000080 -0.000003  -0.029198 0.025493 -1.449554
38  1.209194 0.000036 0.000012  -0.002172 -0.002925 -0.376412
39  3.245588 -0.145574 -1.308861  0.045911 0.028174 0.055241
40  1.719413 -0.000099 -0.000036  -0.109220 0.124551 -1.492957
41  1.099674 0.000027 0.000008  0.003677 -0.001213 -0.900134
42  0.594009 -0.285202 -1.857800  1.075925 0.014236 -0.875502
43  1.789779 -0.000011 -0.000043  0.020386 0.054042 -0.056213
44  1.206997 -0.000006 0.000004  0.112046 0.059847 1.317350
45  5.740572 0.000055 0.000723  0.100437 -0.000014 0.000021
46  11.480696 -0.000080 0.001050  0.075686 0.079409 0.050846
47  6.027514 -0.000272 -0.000236  -0.777753 -0.622914 -1.273944
48  -0.000002 11.691974 -0.000004  -1.268314 0.714369 0.939075
49  0.000003 -0.000002 0.000000  2.939640 -0.000041 1.570856
50  -0.000007 -0.000016 0.000005  2.272644 -0.000030 1.570865
51  -4.888845 -6.725706 -6.565020  3.120591 -0.108514 -1.231381
52  -0.000000 0.000000 -0.000001  0.008153 -0.000259 0.000009
53  0.000000 0.000001 -0.000000  1.565115 0.043565 -0.106862
54  -0.896795 -15.581651 -5.074440  -1.051445 -0.126373 -1.930480
55  -0.000000 -0.000000 0.000000  0.000000 -0.000000 -0.000002
56  0.000030 0.000029 0.000001  -1.571901 -0.044449 -0.106509
57  5.661260 -16.060535 -17.872917  1.570796 -0.000000 0.000000
58  -21.599098 7.001666 -12.508070  1.570796 -0.000000 0.000000
59  1.066008 0.876422 -3.770892  1.570796 -0.000000 0.000000
60  -0.004311 0.001230 -0.000371  0.006898 -0.005534 -0.284229
61  0.376268 6.572924 -2.887995  1.570796 -0.000000 0.000000
62  0.000000 0.000000 0.000000  -0.078727 -3.136056 0.284226
63  -2.635804 -5.404278 -0.394992  1.570796 -0.000000 0.000000
64  -2.640202 -8.545835 -1.755528  1.570765 0.003198 -0.000859
65  0.000001 -2.755924 1.840479  -0.000000 -0.000000 -0.000000
66  -0.000306 -1.332277 -1.998147  -0.000000 -0.000000 -0.000000
67  -0.001517 -1.253476 20.838209  -0.000000 -0.000000 -0.000000
68  0.585406 -2.133196 -6.588482  -0.000000 -0.000000 -0.000000
69  -0.000000 0.419707 7.645850  -0.000000 -0.000000 -0.000000
70  -2.641626 -2.141788 -4.719180  1.570765 0.003198 -0.000859
71  -0.113746 1.326355 2.565981  -0.000000 -0.000000 -0.000000
72  0.120338 1.215165 2.565981  -0.000000 -0.000000 -0.000000
73  -0.096187 1.080565 2.565981  -0.000000 -0.000000 -0.000000
time 4
0  0.000006 0.000000 0.000000  -1.570800 -1.391899 -1.570792
1  -3.865520 -0.192010 1.061693  -1.544956 -1.855077 -0.198630
2  6.027524 -0.000324 0.000193  -0.825099 -0.999890 -1.467233
3  11.692109 0.000641 -0.000739  -1.152277 -0.000014 -1.330022
4  11.480302 0.000538 -0.000595  1.229878 -0.604545 0.155510
5  3.859509 -0.142879 -1.192050  -0.574848 -0.304757 -1.777058
6  1.312590 0.000012 0.000010  -0.135527 0.003032 -0.200649
7  0.729355 0.000054 0.000050  -0.007831 -0.008960 -0.022519
8  3.942145 0.046273 -0.431512  -0.457086 0.163431 -1.133683
9  1.539111 0.000085 0.000006  -0.017952 -0.090240 -0.838237
10  1.196334 0.000145 0.000027  0.007751 0.004719 -0.800508
11  3.883505 -0.047269 0.431381  -0.247524 0.550882 -0.402952
12  1.719573 -0.000027 0.000015  0.037135 -0.100044 -1.334548
13  1.209178 0.000091 0.000011  -0.008755 -0.005102 -0.561727
14  4.085223 -0.082715 1.151041  0.033614 0.611304 -0.075125
15  1.719449 -0.000011 0.000023  0.001103 -0.029631 -0.766789
16  1.099675 0.000049 0.000005  -0.071025 0.044021 -1.321117
17  1.059850 -1.545955 0.873884  -0.919590 -0.590284 -0.357361
18  1.789820 -0.000004 -0.000018  -0.000001 -0.009377 0.757284
19  1.207017 -0.000012 -0.000043  0.001023 -0.000036 -0.104165
20  5.740635 0.000410 -0.000704  -0.107405 0.000003 0.000071
21  11.481068 0.000319 -0.000778  -0.050609 -0.104436 -0.001021
22  6.027525 -0.000330 0.000203  1.649602 -0.566125 1.528166
23  0.000001 11.692100 -0.000008  -0.927659 -0.384946 -0.742931
24  0.000003 0.000008 -0.000001  -0.283187 -0.000031 1.570739
25  -0.000001 -0.000012 -0.000000  0.868957 0.000002 1.570712
26  -4.011518 -5.954122 0.376267  1.473120 1.855075 -0.198639
27  6.027503 -0.000262 -0.000228  1.483020 0.611908 -0.225071
28  11.691991 0.000242 0.000855  0.667115 0.000076 -1.895980
29  11.478841 -0.000546 0.001480  -1.096478 0.419117 0.417391
30  3.452863 -0.227595 1.051755  0.533352 -0.149658 -1.651757
31  1.312559 0.000027 -0.000001  -0.001011 0.013749 -0.916589
32  0.729345 0.000066 -0.000026  -0.019742 -0.002873 -0.520299
33  3.942049 0.050108 0.430996  0.518335 -0.132557 -1.624414
34  1.539092 0.000010 0.000000  -0.006678 -0.030360 -0.846057
35  1.196299 0.000076 -0.000003  0.001767 -0.002530 -0.866091
36  3.883413 -0.050504 -0.431089  0.268299 -0.273603 -1.261072
37  1.719563 -0.000080 -0.000004  -0.029197 0.025493 -1.449554
38  1.209194 0.000036 0.000011  -0.002172 -0.002925 -0.376412
39  3.245588 -0.145574 -1.308862  0.045911 0.028174 0.055241
40  1.719413 -0.000099 -0.000037  -0.109220 0.124551 -1.492957
41  1.099674 0.000030 0.000008  0.003677 -0.001213 -0.900134
42  0.594009 -0.285203 -1.857801  1.075925 0.014236 -0.875502
43  1.789779 -0.000011 -0.000043  0.020386 0.054042 -0.056213
44  1.206997 -0.000005 0.000003  0.112046 0.059847 1.317350
45  5.740572 0.000055 0.000724  0.100939 -0.000014 0.000021
46  11.480713 -0.000073 0.001046  0.076568 0.078734 0.049971
47  6.027514 -0.000272 -0.000236  -0.783723 -0.620307 -1.270863
48  -0.000001 11.691973 -0.000006  -1.262456 0.708321 0.936558
49  0.000002 -0.000002 0.000001  2.939640 -0.000041 1.570856
50  -0.000006 -0.000015 0.000006  2.272644 -0.000030 1.570865
51  -4.876832 -6.817814 -6.572969  3.124910 -0.108681 -1.230351
52  -0.000000 -0.000000 -0.000000  0.008153 -0.000259 0.000009
53  0.000000 -0.000000 -0.000001  1.565115 0.043565 -0.106862
54  -0.877645 -15.669674 -5.077276  -1.048024 -0.123738 -1.929409
55  -0.000001 -0.000001 0.000000  0.000000 -0.000000 -0.000002
56  0.000029 0.000028 0.000001  -1.571902 -0.044449 -0.106509
57  5.661260 -16.060535 -17.872917  1.570796 -0.000000 0.000000
58  -21.599098 7.001666 -12.508070  1.570796 -0.000000 0.000000
59  1.066008 0.876422 -3.770892  1.570796 -0.000000 0.000000
60  -0.004311 0.001230 -0.000371  0.006898 -0.005534 -0.284229
61  0.376268 6.572924 -2.887995  1.570796 -0.000000 0.000000
62  0.000000 0.000000 0.000000  -0.078727 -3.136056 0.284226
63  -2.635804 -5.404278 -0.394992  1.570796 -0.000000 0.000000
64  -2.645210 -8.640720 -1.756607  1.572040 -0.000905 0.000641
65  0.000001 -2.755923 1.840478  0.000000 0.000000 -0.000000
66  -0.000306 -1.332276 -1.998147  0.000000 0.000000 -0.000000
67  -0.001517 -1.253476 20.838211  0.000000 0.000000 -0.000000
68  0.585406 -2.133196 -6.588482  0.000000 0.000000 -0.000000
69  0.000000 0.419707 7.739080  0.000000 0.000000 -0.000000
70  -2.644086 -2.232902 -4.712097  1.572040 -0.000905 0.000641
71  -0.113746 1.326355 2.565981  0.000000 0.000000 -0.000000
72  0.120338 1.215165 2.565981  0.000000 0.000000 -0.000000
73  -0.096187 1.080565 2.565981  0.000000 0.000000 -0.000000
time 5
0  0.000006 0.000000 0.000000  -1.570800 -1.391899 -1.570792
1  -3.865520 -0.192010 1.061693  -1.544956 -1.855077 -0.198630
2  6.027524 -0.000324 0.000193  -0.824392 -1.003755 -1.472994
3  11.692110 0.000642 -0.000739  -1.152277 -0.000013 -1.317639
4  11.480389 0.000557 -0.000551  1.234358 -0.596898 0.154689
5  3.859510 -0.142880 -1.192049  -0.574847 -0.304757 -1.777058
6  1.312590 0.000011 0.000008  -0.135527 0.003032 -0.200649
7  0.729357 0.000054 0.000050  -0.007831 -0.008960 -0.022519
8  3.942143 0.046273 -0.431512  -0.457086 0.163431 -1.133683
9  1.539111 0.000086 0.000006  -0.017952 -0.090240 -0.838237
10  1.196332 0.000146 0.000030  0.007751 0.004719 -0.800508
11  3.883506 -0.047269 0.431381  -0.247524 0.550882 -0.402951
12  1.719574 -0.000026 0.000014  0.037135 -0.100044 -1.334548
13  1.209180 0.000092 0.000013  -0.008755 -0.005102 -0.561727
14  4.085221 -0.082716 1.151041  0.033614 0.611304 -0.075125
15  1.719450 -0.000012 0.000022  0.001103 -0.029631 -0.766789
16  1.099675 0.000052 0.000005  -0.071025 0.044021 -1.321117
17  1.059850 -1.545955 0.873884  -0.919590 -0.590284 -0.357361
18  1.789820 -0.000003 -0.000018  -0.000001 -0.009377 0.757284
19  1.207016 -0.000012 -0.000044  0.001023 -0.000036 -0.104165
20  5.740638 0.000410 -0.000703  -0.105131 0.000003 0.000070
21  11.481087 0.000323 -0.000769  -0.050045 -0.102848 -0.000663
22  6.027525 -0.000330 0.000203  1.648492 -0.562356 1.523593
23  0.000002 11.692097 -0.000007  -0.920136 -0.378567 -0.737739
24  0.000003 0.000009 0.000000  -0.283187 -0.000031 1.570739
25  -0.000001 -0.000011 -0.000000  0.868957 0.000002 1.570712
26  -4.011518 -5.954122 0.376267  1.473120 1.855075 -0.198639
27  6.027503 -0.000262 -0.000228  1.483234 0.618040 -0.225378
28  11.691991 0.000243 0.000855  0.667115 0.000075 -1.884580
29  11.478941 -0.000506 0.001448  -1.096436 0.415683 0.411675
30  3.452863 -0.227595 1.051756  0.533352 -0.149658 -1.651757
31  1.312558 0.000025 -0.000001  -0.001011 0.013749 -0.916589
32  0.729347 0.000066 -0.000026  -0.019742 -0.002873 -0.520299
33  3.942049 0.050108 0.430997  0.518335 -0.132557 -1.624414
34  1.539092 0.000011 -0.000001  -0.006678 -0.030360 -0.846057
35  1.196299 0.000075 -0.000004  0.001767 -0.002530 -0.866091
36  3.883412 -0.050503 -0.431088  0.268299 -0.273603 -1.261072
37  1.719563 -0.000081 -0.000004  -0.029198 0.025493 -1.449554
38  1.209194 0.000036 0.000012  -0.002172 -0.002925 -0.376412
39  3.245588 -0.145573 -1.308860  0.046011 0.023016 0.105703
40  1.719411 -0.000100 -0.000036  -0.103866 0.124006 -1.439012
41  1.099672 0.000025 0.000007  0.004194 -0.001680 -0.826946
42  0.594009 -0.285202 -1.857800  1.075925 0.014236 -0.875502
43  1.789779 -0.000011 -0.000043  0.020386 0.054042 -0.056213
44  1.206997 -0.000006 0.000003  0.112046 0.059847 1.317350
45  5.740572 0.000055 0.000724  0.100855 -0.000014 0.000021
46  11.480732 -0.000066 0.001039  0.076926 0.077892 0.049005
47  6.027514 -0.000272 -0.000236  -0.790122 -0.617073 -1.267582
48  -0.000001 11.691974 -0.000007  -1.255670 0.701316 0.933595
49  0.000003 -0.000001 -0.000000  2.939640 -0.000041 1.570856
50  -0.000007 -0.000015 0.000005  2.272644 -0.000030 1.570865
51  -4.868328 -6.924928 -6.579420  3.126544 -0.109683 -1.229723
52  -0.000000 -0.000000 -0.000000  0.008153 -0.000259 0.000009
53  0.000000 0.000001 -0.000000  1.565115 0.043565 -0.106862
54  -0.864808 -15.772960 -5.072704  -1.046122 -0.123460 -1.928837
55  -0.000000 0.000000 -0.000000  0.000000 -0.000000 -0.000002
56  0.000030 0.000029 0.000001  -1.571902 -0.044449 -0.106509
57  5.661260 -16.060535 -17.872917  1.570796 -0.000000 0.000000
58  -21.599098 7.001666 -12.508070  1.570796 -0.000000 0.000000
59  1.066008 0.876422 -3.770892  1.570796 -0.000000 0.000000
60  -0.004311 0.001230 -0.000371  0.006898 -0.005534 -0.284229
61  0.376268 6.572924 -2.887995  1.570796 -0.000000 0.000000
62  0.000000 0.000000 0.000000  -0.078727 -3.136056 0.284226
63  -2.635804 -5.404278 -0.394992  1.570796 -0.000000 0.000000
64  -2.644228 -8.744102 -1.758168  1.571636 -0.002770 0.001448
65  0.000000 -2.755923 1.938855  -0.000000 0.000000 -0.000000
66  -0.000306 -1.332276 -1.998148  -0.000000 0.000000 -0.000000
67  -0.001517 -1.253476 20.838209  -0.000000 0.000000 -0.000000
68  0.585406 -2.133196 -6.588483  -0.000000 0.000000 -0.000000
69  -0.000000 0.419707 7.832309  -0.000000 0.000000 -0.000000
70  -2.642753 -2.337471 -4.716231  1.571636 -0.002770 0.001448
71  -0.113746 1.326355 2.565981  -0.000000 0.000000 -0.000000
72  0.120338 1.215166 2.565981  -0.000000 0.000000 -0.000000
73  -0.096187 1.080566 2.565981  -0.000000 0.000000 -0.000000
time 6
0  0.000006 0.000000 0.000000  -1.570800 -1.391899 -1.570792
1  -3.865520 -0.192010 1.061693  -1.544956 -1.855077 -0.198630
2  6.027524 -0.000324 0.000193  -0.821633 -1.007974 -1.479659
3  11.692109 0.000643 -0.000740  -1.152276 -0.000012 -1.304767
4  11.480482 0.000577 -0.000503  1.236404 -0.588147 0.152588
5  3.859510 -0.142880 -1.192049  -0.574847 -0.304757 -1.777058
6  1.312590 0.000012 0.000007  -0.135527 0.003032 -0.200649
7  0.729356 0.000052 0.000048  -0.007831 -0.008960 -0.022519
8  3.942144 0.046273 -0.431512  -0.457086 0.163431 -1.133683
9  1.539110 0.000085 0.000005  -0.017952 -0.090240 -0.838237
10  1.196332 0.000146 0.000027  0.007751 0.004719 -0.800508
11  3.883507 -0.047270 0.431382  -0.247524 0.550882 -0.402951
12  1.719572 -0.000026 0.000017  0.037135 -0.100044 -1.334548
13  1.209179 0.000093 0.000014  -0.008755 -0.005102 -0.561727
14  4.085226 -0.082716 1.151041  0.033614 0.611304 -0.075125
15  1.719449 -0.000012 0.000022  0.001103 -0.029631 -0.766789
16  1.099675 0.000049 0.000007  -0.071025 0.044021 -1.321117
17  1.059852 -1.545955 0.873884  -0.919590 -0.590284 -0.357360
18  1.789818 -0.000004 -0.000019  -0.000001 -0.009377 0.757284
19  1.207014 -0.000012 -0.000044  0.001023 -0.000036 -0.104165
20  5.740638 0.000410 -0.000701  -0.103466 0.000003 0.000070
21  11.481106 0.000327 -0.000757  -0.050016 -0.101050 -0.000672
22  6.027525 -0.000330 0.000203  1.646056 -0.558391 1.520554
23  0.000002 11.692100 -0.000008  -0.912299 -0.371975 -0.732302
24  0.000002 0.000007 -0.000001  -0.283187 -0.000031 1.570739
25  -0.000001 -0.000011 -0.000001  0.868957 0.000002 1.570712
26  -4.011518 -5.954122 0.376267  1.473120 1.855075 -0.198639
27  6.027503 -0.000262 -0.000228  1.484028 0.623294 -0.225271
28  11.691992 0.000244 0.000855  0.667115 0.000075 -1.874196
29  11.479033 -0.000467 0.001422  -1.098336 0.412749 0.407215
30  3.452862 -0.227595 1.051755  0.533352 -0.149658 -1.651757
31  1.312558 0.000027 -0.000001  -0.001011 0.013749 -0.916589
32  0.729346 0.000066 -0.000027  -0.019742 -0.002873 -0.520299
33  3.942049 0.050108 0.430997  0.518335 -0.132557 -1.624414
34  1.539093 0.000009 -0.000001  -0.006678 -0.030360 -0.846057
35  1.196301 0.000075 -0.000003  0.001767 -0.002530 -0.866091
36  3.883412 -0.050503 -0.431088  0.268299 -0.273603 -1.261072
37  1.719563 -0.000079 -0.000003  -0.029197 0.025493 -1.449554
38  1.209195 0.000036 0.000011  -0.002172 -0.002925 -0.376412
39  3.245589 -0.145572 -1.308860  0.043303 0.014135 0.156853
40  1.719408 -0.000100 -0.000036  -0.097522 0.121368 -1.384931
41  1.099671 0.000025 0.000007  0.004951 -0.002112 -0.753757
42  0.594008 -0.285202 -1.857800  1.075925 0.014236 -0.875502
43  1.789779 -0.000011 -0.000043  0.020386 0.054042 -0.056213
44  1.206997 -0.000006 0.000003  0.112046 0.059847 1.317350
45  5.740572 0.000057 0.000725  0.100403 -0.000014 0.000021
46  11.480752 -0.000056 0.001035  0.076850 0.077117 0.048354
47  6.027514 -0.000272 -0.000236  -0.795274 -0.613860 -1.264962
48  -0.000001 11.691976 -0.000006  -1.249499 0.694948 0.930857
49  0.000003 -0.000001 0.000000  2.939640 -0.000041 1.570856
50  -0.000007 -0.000014 0.000005  2.272644 -0.000030 1.570865
51  -4.867802 -7.022940 -6.581559  3.125679 -0.110321 -1.230150
52  0.000000 0.000000 0.000000  0.008153 -0.000259 0.000009
53  0.000000 0.000000 -0.000000  1.565115 0.043565 -0.106862
54  -0.867996 -15.871717 -5.069365  -1.046371 -0.124502 -1.929328
55  -0.000001 0.000001 -0.000000  0.000000 -0.000000 -0.000002
56  0.000029 0.000030 0.000001  -1.571902 -0.044449 -0.106509
57  5.661260 -16.060535 -17.872917  1.570796 -0.000000 0.000000
58  -21.599098 7.001666 -12.508070  1.570796 -0.000000 0.000000
59  1.066008 0.876422 -3.770892  1.570796 -0.000000 0.000000
60  -0.004311 0.001230 -0.000371  0.006898 -0.005534 -0.284229
61  0.376268 6.572924 -2.887995  1.570796 -0.000000 0.000000
62  0.000000 0.000000 0.000000  -0.078727 -3.136056 0.284226
63  -2.635804 -5.404278 -0.394992  1.570796 -0.000000 0.000000
64  -2.641773 -8.838987 -1.760019  1.570748 -0.002173 0.000928
65  0.000000 -2.755923 2.037235  -0.000000 0.000000 -0.000000
66  -0.000306 -1.332276 -1.998148  -0.000000 0.000000 -0.000000
67  -0.001517 -1.253476 20.838209  -0.000000 0.000000 -0.000000
68  0.585406 -2.133196 -6.588483  -0.000000 0.000000 -0.000000
69  0.000000 0.419707 7.832311  -0.000000 0.000000 -0.000000
70  -2.638723 -2.434989 -4.723778  1.570748 -0.002173 0.000928
71  -0.113746 1.326355 2.565982  -0.000000 0.000000 -0.000000
72  0.120338 1.215165 2.565982  -0.000000 0.000000 -0.000000
73  -0.096187 1.080566 2.565982  -0.000000 0.000000 -0.000000
time 7
0  0.000006 0.000000 0.000000  -1.570800 -1.391899 -1.570792
1  -3.865520 -0.192010 1.061693  -1.544956 -1.855077 -0.198630
2  6.027524 -0.000324 0.000193  -0.818753 -1.011330 -1.485124
3  11.692112 0.000644 -0.000739  -1.152276 -0.000012 -1.294706
4  11.480554 0.000595 -0.000468  1.237078 -0.580933 0.150584
5  3.859507 -0.142879 -1.192050  -0.574848 -0.304757 -1.777058
6  1.312590 0.000013 0.000008  -0.135527 0.003032 -0.200649
7  0.729355 0.000054 0.000048  -0.007831 -0.008960 -0.022519
8  3.942143 0.046274 -0.431512  -0.457086 0.163431 -1.133683
9  1.539111 0.000086 0.000007  -0.017952 -0.090240 -0.838237
10  1.196332 0.000147 0.000029  0.007751 0.004719 -0.800508
11  3.883504 -0.047268 0.431381  -0.247524 0.550882 -0.402951
12  1.719574 -0.000027 0.000015  0.037135 -0.100044 -1.334548
13  1.209180 0.000092 0.000013  -0.008755 -0.005102 -0.561727
14  4.085224 -0.082715 1.151041  0.033614 0.611304 -0.075125
15  1.719448 -0.000013 0.000022  0.001103 -0.029631 -0.766789
16  1.099675 0.000048 0.000004  -0.071025 0.044021 -1.321117
17  1.059851 -1.545954 0.873884  -0.919590 -0.590283 -0.357360
18  1.789819 -0.000003 -0.000018  -0.000001 -0.009377 0.757284
19  1.207014 -0.000012 -0.000045  0.001023 -0.000036 -0.104165
20  5.740635 0.000411 -0.000703  -0.102403 0.000003 0.000071
21  11.481118 0.000331 -0.000751  -0.050187 -0.099577 -0.000795
22  6.027525 -0.000330 0.000203  1.643718 -0.555281 1.518763
23  0.000000 11.692099 -0.000008  -0.906160 -0.366850 -0.728023
24  0.000002 0.000007 -0.000000  -0.283187 -0.000031 1.570738
25  -0.000001 -0.000011 -0.000001  0.868957 0.000002 1.570712
26  -4.011518 -5.954122 0.376267  1.473120 1.855075 -0.198639
27  6.027503 -0.000262 -0.000228  1.484748 0.627049 -0.225097
28  11.691991 0.000242 0.000855  0.667115 0.000074 -1.866615
29  11.479099 -0.000439 0.001398  -1.100515 0.410875 0.404263
30  3.452863 -0.227596 1.051755  0.533352 -0.149658 -1.651757
31  1.312559 0.000027 -0.000001  -0.001011 0.013749 -0.916589
32  0.729347 0.000065 -0.000025  -0.019742 -0.002873 -0.520299
33  3.942048 0.050108 0.430996  0.518335 -0.132557 -1.624414
34  1.539093 0.000010 -0.000000  -0.006678 -0.030360 -0.846057
35  1.196298 0.000075 -0.000003  0.001767 -0.002530 -0.866091
36  3.883411 -0.050504 -0.431087  0.268299 -0.273603 -1.261072
37  1.719563 -0.000081 -0.000003  -0.029197 0.025493 -1.449554
38  1.209194 0.000036 0.000011  -0.002172 -0.002925 -0.376412
39  3.245587 -0.145573 -1.308859  0.038926 0.008148 0.153004
40  1.719407 -0.000100 -0.000036  -0.096541 0.117874 -1.387244
41  1.099671 0.000024 0.000007  0.005435 -0.001922 -0.773196
42  0.594008 -0.285203 -1.857799  1.075925 0.014236 -0.875502
43  1.789779 -0.000012 -0.000043  0.020386 0.054042 -0.056213
44  1.206997 -0.000006 0.000003  0.112046 0.059847 1.317350
45  5.740573 0.000056 0.000723  0.099916 -0.000014 0.000021
46  11.480765 -0.000052 0.001030  0.076620 0.076584 0.047964
47  6.027514 -0.000272 -0.000236  -0.798868 -0.611452 -1.263142
48  -0.000002 11.691973 -0.000006  -1.245001 0.690308 0.928835
49  0.000003 -0.000002 -0.000000  2.939640 -0.000041 1.570856
50  -0.000007 -0.000015 0.000005  2.272644 -0.000030 1.570865
51  -4.869187 -7.094456 -6.582189  3.124134 -0.110720 -1.230950
52  -0.000000 -0.000000 0.000000  0.008153 -0.000259 0.000009
53  -0.000000 -0.000000 -0.000000  1.565115 0.043565 -0.106862
54  -0.875977 -15.945766 -5.067382  -1.047296 -0.125796 -1.930183
55  0.000001 0.000000 -0.000000  0.000000 -0.000000 -0.000002
56  0.000031 0.000029 0.000001  -1.571901 -0.044449 -0.106509
57  5.661260 -16.060535 -17.872917  1.570796 -0.000000 0.000000
58  -21.599098 7.001666 -12.508070  1.570796 -0.000000 0.000000
59  1.066008 0.876422 -3.770892  1.570796 -0.000000 0.000000
60  -0.004311 0.001230 -0.000371  0.006898 -0.005534 -0.284229
61  0.376268 6.572924 -2.887995  1.570796 -0.000000 0.000000
62  0.000000 0.000000 0.000000  -0.078727 -3.136056 0.284226
63  -2.635804 -5.404278 -0.394992  1.570796 -0.000000 0.000000
64  -2.638582 -8.908381 -1.761966  1.569860 -0.000858 -0.000040
65  0.000000 -2.755924 2.037235  0.000000 0.000000 0.000000
66  -0.000306 -1.332276 -1.998148  0.000000 0.000000 0.000000
67  -0.001517 -1.253476 20.838209  0.000000 0.000000 0.000000
68  0.585406 -2.133196 -6.588482  0.000000 0.000000 0.000000
69  -0.000000 0.419707 7.832312  0.000000 0.000000 0.000000
70  -2.633221 -2.507024 -4.731422  1.569860 -0.000858 -0.000040
71  -0.113746 1.326354 2.565982  0.000000 0.000000 0.000000
72  0.120338 1.215165 2.565982  0.000000 0.000000 0.000000
73  -0.096187 1.080565 2.565982  0.000000 0.000000 0.000000
time 8
0  0.000006 0.000000 0.000000  -1.570800 -1.391899 -1.570792
1  -3.865520 -0.192010 1.061693  -1.544956 -1.855077 -0.198630
2  6.027524 -0.000324 0.000193  -0.817411 -1.012631 -1.487296
3  11.692111 0.000643 -0.000741  -1.152276 -0.000012 -1.290629
4  11.480585 0.000601 -0.000451  1.236708 -0.577795 0.149338
5  3.859510 -0.142881 -1.192050  -0.574847 -0.304757 -1.777058
6  1.312589 0.000012 0.000008  -0.135527 0.003032 -0.200649
7  0.729356 0.000054 0.000049  -0.007831 -0.008960 -0.022519
8  3.942144 0.046272 -0.431512  -0.457086 0.163431 -1.133683
9  1.539111 0.000082 0.000004  -0.017952 -0.090240 -0.838237
10  1.196332 0.000145 0.000029  0.007751 0.004719 -0.800508
11  3.883506 -0.047271 0.431381  -0.247524 0.550882 -0.402951
12  1.719573 -0.000027 0.000015  0.037135 -0.100044 -1.334548
13  1.209179 0.000090 0.000012  -0.008755 -0.005102 -0.561727
14  4.085224 -0.082716 1.151040  0.033614 0.611304 -0.075125
15  1.719447 -0.000011 0.000021  0.001103 -0.029631 -0.766789
16  1.099675 0.000050 0.000007  -0.071025 0.044021 -1.321117
17  1.059850 -1.545956 0.873884  -0.919590 -0.590284 -0.357361
18  1.789821 -0.000002 -0.000018  -0.000001 -0.009377 0.757284
19  1.207016 -0.000012 -0.000043  0.001023 -0.000036 -0.104165
20  5.740637 0.000410 -0.000704  -0.102142 0.000003 0.000070
21  11.481127 0.000332 -0.000748  -0.050399 -0.098937 -0.000961
22  6.027525 -0.000330 0.000203  1.642680 -0.554089 1.518274
23  0.000002 11.692100 -0.000007  -0.903669 -0.364780 -0.726281
24  0.000003 0.000008 -0.000001  -0.283187 -0.000030 1.570739
25  -0.000000 -0.000011 -0.000000  0.868957 0.000002 1.570712
26  -4.011518 -5.954122 0.376267  1.473120 1.855075 -0.198639
27  6.027503 -0.000262 -0.000228  1.485143 0.628414 -0.224952
28  11.691991 0.000243 0.000854  0.667115 0.000074 -1.863691
29  11.479124 -0.000428 0.001389  -1.102022 0.409992 0.403337
30  3.452862 -0.227596 1.051755  0.533352 -0.149658 -1.651757
31  1.312559 0.000026 -0.000001  -0.001011 0.013749 -0.916589
32  0.729347 0.000066 -0.000026  -0.019742 -0.002873 -0.520299
33  3.942048 0.050107 0.430998  0.518335 -0.132557 -1.624414
34  1.539093 0.000010 -0.000000  -0.006678 -0.030360 -0.846057
35  1.196299 0.000075 -0.000003  0.001767 -0.002530 -0.866091
36  3.883411 -0.050504 -0.431088  0.268299 -0.273603 -1.261072
37  1.719563 -0.000078 -0.000004  -0.029198 0.025493 -1.449554
38  1.209194 0.000036 0.000011  -0.002172 -0.002925 -0.376412
39  3.245586 -0.145573 -1.308859  0.035089 0.003509 0.140859
40  1.719408 -0.000101 -0.000036  -0.097013 0.114106 -1.393728
41  1.099672 0.000025 0.000007  0.005877 -0.001623 -0.824080
42  0.594007 -0.285204 -1.857800  1.075925 0.014236 -0.875502
43  1.789779 -0.000010 -0.000044  0.020386 0.054042 -0.056213
44  1.206997 -0.000007 0.000003  0.112046 0.059847 1.317350
45  5.740573 0.000056 0.000723  0.099597 -0.000014 0.000021
46  11.480769 -0.000050 0.001027  0.076407 0.076332 0.047894
47  6.027514 -0.000272 -0.000236  -0.800105 -0.610483 -1.262520
48  -0.000002 11.691974 -0.000006  -1.243268 0.688520 0.928050
49  0.000002 -0.000003 0.000001  2.939640 -0.000041 1.570856
50  -0.000006 -0.000015 0.000005  2.272644 -0.000030 1.570865
51  -4.871384 -7.122138 -6.581835  3.122751 -0.110663 -1.231320
52  -0.000000 0.000000 -0.000000  0.008153 -0.000259 0.000009
53  -0.000001 -0.000001 0.000000  1.565115 0.043565 -0.106862
54  -0.880817 -15.974928 -5.068707  -1.048394 -0.126637 -1.930568
55  -0.000000 -0.000000 -0.000001  0.000000 -0.000000 -0.000002
56  0.000030 0.000028 0.000001  -1.571902 -0.044449 -0.106509
57  5.661260 -16.060535 -17.872917  1.570796 -0.000000 0.000000
58  -21.599098 7.001666 -12.508070  1.570796 -0.000000 0.000000
59  1.066008 0.876422 -3.770892  1.570796 -0.000000 0.000000
60  -0.004311 0.001230 -0.000371  0.006898 -0.005534 -0.284229
61  0.376268 6.572924 -2.887995  1.570796 -0.000000 0.000000
62  0.000000 0.000000 0.000000  -0.078727 -3.136056 0.284226
63  -2.635804 -5.404278 -0.394992  1.570796 -0.000000 0.000000
64  -2.635390 -8.935288 -1.763817  1.569456 0.000457 -0.000564
65  0.000001 -2.755923 2.037235  -0.000000 -0.000000 0.000000
66  -0.000306 -1.332277 -1.998148  -0.000000 -0.000000 0.000000
67  -0.001517 -1.253476 20.838209  -0.000000 -0.000000 0.000000
68  0.585406 -2.133196 -6.588483  -0.000000 -0.000000 0.000000
69  -0.000000 0.419707 7.832309  -0.000000 -0.000000 0.000000
70  -2.630586 -2.535133 -4.735861  1.569456 0.000457 -0.000564
71  -0.113746 1.326354 2.565981  -0.000000 -0.000000 0.000000
72  0.120338 1.215165 2.565981  -0.000000 -0.000000 0.000000
73  -0.096187 1.080565 2.565981  -0.000000 -0.000000 0.000000
time 9
0  0.000006 0.000000 0.000000  -1.570800 -1.391899 -1.570792
1  -3.865520 -0.192010 1.061693  -1.544956 -1.855077 -0.198630
2  6.027524 -0.000324 0.000193  -0.817757 -1.012227 -1.486634
3  11.692109 0.000642 -0.000739  -1.152276 -0.000012 -1.291471
4  11.480578 0.000601 -0.000452  1.236147 -0.578190 0.149095
5  3.859509 -0.142881 -1.192050  -0.574847 -0.304757 -1.777057
6  1.312590 0.000012 0.000009  -0.135527 0.003032 -0.200649
7  0.729355 0.000053 0.000049  -0.007831 -0.008960 -0.022519
8  3.942142 0.046272 -0.431512  -0.457086 0.163431 -1.133683
9  1.539110 0.000085 0.000005  -0.017952 -0.090240 -0.838237
10  1.196331 0.000146 0.000030  0.007751 0.004719 -0.800508
11  3.883503 -0.047271 0.431381  -0.247524 0.550882 -0.402952
12  1.719575 -0.000026 0.000016  0.037135 -0.100044 -1.334548
13  1.209179 0.000092 0.000012  -0.008755 -0.005102 -0.561727
14  4.085221 -0.082717 1.151041  0.033614 0.611304 -0.075125
15  1.719450 -0.000012 0.000020  0.001103 -0.029631 -0.766789
16  1.099675 0.000048 0.000006  -0.071025 0.044021 -1.321117
17  1.059849 -1.545956 0.873884  -0.919590 -0.590284 -0.357361
18  1.789821 -0.000002 -0.000018  -0.000001 -0.009377 0.757284
19  1.207016 -0.000012 -0.000044  0.001023 -0.000036 -0.104165
20  5.740637 0.000411 -0.000703  -0.102356 0.000003 0.000071
21  11.481125 0.000333 -0.000749  -0.050502 -0.099017 -0.001054
22  6.027525 -0.000330 0.000203  1.642958 -0.554464 1.518497
23  0.000003 11.692099 -0.000009  -0.904184 -0.365207 -0.726641
24  0.000002 0.000008 -0.000001  -0.283187 -0.000031 1.570738
25  -0.000001 -0.000011 -0.000001  0.868957 0.000002 1.570712
26  -4.011518 -5.954122 0.376267  1.473120 1.855075 -0.198639
27  6.027503 -0.000262 -0.000228  1.485108 0.628066 -0.224950
28  11.691989 0.000244 0.000854  0.667115 0.000074 -1.864299
29  11.479119 -0.000431 0.001391  -1.102419 0.409917 0.403748
30  3.452863 -0.227595 1.051755  0.533352 -0.149658 -1.651757
31  1.312559 0.000027 -0.000002  -0.001011 0.013749 -0.916589
32  0.729348 0.000065 -0.000026  -0.019742 -0.002873 -0.520299
33  3.942049 0.050108 0.430997  0.518335 -0.132557 -1.624414
34  1.539093 0.000010 -0.000001  -0.006678 -0.030360 -0.846057
35  1.196299 0.000075 -0.000004  0.001767 -0.002530 -0.866091
36  3.883412 -0.050503 -0.431088  0.268299 -0.273603 -1.261072
37  1.719563 -0.000078 -0.000004  -0.029198 0.025493 -1.449554
38  1.209193 0.000036 0.000012  -0.002172 -0.002925 -0.376412
39  3.245586 -0.145572 -1.308860  0.032727 0.000955 0.128313
40  1.719409 -0.000101 -0.000036  -0.098051 0.111358 -1.400288
41  1.099673 0.000027 0.000008  0.006149 -0.001352 -0.874965
42  0.594009 -0.285203 -1.857800  1.075925 0.014236 -0.875502
43  1.789779 -0.000011 -0.000044  0.020386 0.054042 -0.056213
44  1.206997 -0.000005 0.000003  0.112046 0.059847 1.317350
45  5.740571 0.000056 0.000723  0.099523 -0.000014 0.000021
46  11.480768 -0.000051 0.001028  0.076323 0.076317 0.047996
47  6.027514 -0.000272 -0.000236  -0.799757 -0.610685 -1.262696
48  -0.000001 11.691972 -0.000007  -1.243628 0.688892 0.928213
49  0.000004 -0.000001 0.000002  2.939640 -0.000041 1.570856
50  -0.000006 -0.000015 0.000005  2.272644 -0.000030 1.570865
51  -4.871958 -7.116424 -6.581891  3.122215 -0.110376 -1.231178
52  0.000001 0.000000 -0.000000  0.008153 -0.000259 0.000009
53  0.000000 -0.000000 -0.000000  1.565115 0.043565 -0.106862
54  -0.879755 -15.969023 -5.071969  -1.048991 -0.126760 -1.930410
55  0.000000 -0.000000 0.000000  0.000000 -0.000000 -0.000002
56  0.000030 0.000029 0.000001  -1.571901 -0.044449 -0.106509
57  5.661260 -16.060535 -17.872917  1.570796 -0.000000 0.000000
58  -21.599098 7.001666 -12.508070  1.570796 -0.000000 0.000000
59  1.066008 0.876422 -3.770892  1.570796 -0.000000 0.000000
60  -0.004311 0.001230 -0.000371  0.006898 -0.005534 -0.284229
61  0.376268 6.572924 -2.887995  1.570796 -0.000000 0.000000
62  0.000000 0.000000 0.000000  -0.078727 -3.136056 0.284226
63  -2.635804 -5.404278 -0.394992  1.570796 -0.000000 0.000000
64  -2.632935 -8.929834 -1.765378  1.569548 0.001055 -0.000481
65  0.000000 -2.755924 2.037235  0.000000 -0.000000 0.000000
66  -0.000306 -1.332276 -1.998147  0.000000 -0.000000 0.000000
67  -0.001517 -1.253476 20.838211  0.000000 -0.000000 0.000000
68  0.585406 -2.133196 -6.588483  0.000000 -0.000000 0.000000
69  -0.000000 0.419707 7.832311  0.000000 -0.000000 0.000000
70  -2.630436 -2.529403 -4.736831  1.569548 0.001055 -0.000481
71  -0.113746 1.326355 2.565982  0.000000 -0.000000 0.000000
72  0.120338 1.215165 2.565982  0.000000 -0.000000 0.000000
73  -0.096187 1.080565 2.565982  0.000000 -0.000000 0.000000
time 10
0  0.000006 0.000000 0.000000  -1.570800 -1.391899 -1.570792
1  -3.865520 -0.192010 1.061693  -1.544956 -1.855077 -0.198630
2  6.027524 -0.000324 0.000193  -0.818558 -1.011454 -1.485341
3  11.692111 0.000642 -0.000740  -1.152276 -0.000012 -1.293503
4  11.480562 0.000598 -0.000464  1.235975 -0.579536 0.149499
5  3.859508 -0.142881 -1.192049  -0.574848 -0.304757 -1.777058
6  1.312590 0.000013 0.000008  -0.135527 0.003032 -0.200649
7  0.729356 0.000054 0.000047  -0.007831 -0.008960 -0.022519
8  3.942144 0.046272 -0.431512  -0.457086 0.163431 -1.133683
9  1.539111 0.000084 0.000005  -0.017952 -0.090240 -0.838237
10  1.196333 0.000146 0.000030  0.007751 0.004719 -0.800508
11  3.883503 -0.047270 0.431381  -0.247524 0.550882 -0.402952
12  1.719572 -0.000026 0.000015  0.037135 -0.100044 -1.334548
13  1.209179 0.000092 0.000013  -0.008755 -0.005102 -0.561727
14  4.085222 -0.082716 1.151041  0.033614 0.611304 -0.075125
15  1.719450 -0.000011 0.000022  0.001103 -0.029631 -0.766789
16  1.099675 0.000048 0.000006  -0.071025 0.044021 -1.321117
17  1.059851 -1.545955 0.873884  -0.919590 -0.590284 -0.357361
18  1.789819 -0.000004 -0.000019  -0.000001 -0.009377 0.757284
19  1.207017 -0.000012 -0.000043  0.001023 -0.000036 -0.104165
20  5.740637 0.000410 -0.000703  -0.102554 0.000003 0.000070
21  11.481120 0.000332 -0.000750  -0.050478 -0.099294 -0.001027
22  6.027525 -0.000330 0.000203  1.643578 -0.555172 1.518784
23  0.000002 11.692100 -0.000009  -0.905425 -0.366239 -0.727509
24  0.000003 0.000008 -0.000000  -0.283187 -0.000031 1.570739
25  -0.000001 -0.000011 -0.000001  0.868957 0.000002 1.570712
26  -4.011518 -5.954122 0.376267  1.473120 1.855075 -0.198639
27  6.027503 -0.000262 -0.000228  1.484811 0.627402 -0.225083
28  11.691991 0.000244 0.000854  0.667115 0.000074 -1.865730
29  11.479108 -0.000437 0.001395  -1.102048 0.410345 0.404338
30  3.452862 -0.227596 1.051755  0.533352 -0.149658 -1.651757
31  1.312559 0.000026 -0.000002  -0.001011 0.013749 -0.916589
32  0.729347 0.000066 -0.000027  -0.019742 -0.002873 -0.520299
33  3.942048 0.050108 0.430997  0.518335 -0.132557 -1.624414
34  1.539093 0.000008 -0.000000  -0.006678 -0.030360 -0.846057
35  1.196300 0.000075 -0.000004  0.001767 -0.002530 -0.866091
36  3.883412 -0.050504 -0.431088  0.268299 -0.273603 -1.261072
37  1.719563 -0.000080 -0.000004  -0.029198 0.025493 -1.449554
38  1.209195 0.000037 0.000011  -0.002172 -0.002925 -0.376412
39  3.245586 -0.145572 -1.308859  0.032033 0.000274 0.123459
40  1.719408 -0.000101 -0.000036  -0.098527 0.110450 -1.402806
41  1.099672 0.000024 0.000007  0.006227 -0.001252 -0.894404
42  0.594008 -0.285203 -1.857800  1.075925 0.014236 -0.875502
43  1.789779 -0.000011 -0.000043  0.020386 0.054042 -0.056213
44  1.206997 -0.000006 0.000003  0.112046 0.059847 1.317350
45  5.740573 0.000055 0.000723  0.099601 -0.000014 0.000021
46  11.480766 -0.000052 0.001029  0.076354 0.076431 0.048075
47  6.027514 -0.000272 -0.000236  -0.799207 -0.611229 -1.262971
48  -0.000002 11.691974 -0.000005  -1.244476 0.689767 0.928597
49  0.000002 -0.000002 0.000000  2.939640 -0.000041 1.570856
50  -0.000007 -0.000015 0.000005  2.272644 -0.000030 1.570865
51  -4.870281 -7.102716 -6.583028  3.122503 -0.110225 -1.231011
52  0.000000 0.000001 -0.000001  0.008153 -0.000259 0.000009
53  -0.000000 -0.000000 -0.000000  1.565115 0.043565 -0.106862
54  -0.876645 -15.954878 -5.074338  -1.048869 -0.126460 -1.930226
55  -0.000001 -0.000001 0.000000  0.000000 -0.000000 -0.000002
56  0.000029 0.000028 0.000001  -1.571901 -0.044449 -0.106509
57  5.661260 -16.060535 -17.872917  1.570796 -0.000000 0.000000
58  -21.599098 7.001666 -12.508070  1.570796 -0.000000 0.000000
59  1.066008 0.876422 -3.770892  1.570796 -0.000000 0.000000
60  -0.004311 0.001230 -0.000371  0.006898 -0.005534 -0.284229
61  0.376268 6.572924 -2.887995  1.570796 -0.000000 0.000000
62  0.000000 0.000000 0.000000  -0.078727 -3.136056 0.284226
63  -2.635804 -5.404278 -0.394992  1.570796 -0.000000 0.000000
64  -2.631953 -8.916828 -1.766457  1.569786 0.000836 -0.000281
65  0.000001 -2.755923 2.037236  -0.000000 -0.000000 -0.000000
66  -0.000306 -1.332276 -1.998147  -0.000000 -0.000000 -0.000000
67  -0.001517 -1.253476 20.838211  -0.000000 -0.000000 -0.000000
68  0.585406 -2.133196 -6.588482  -0.000000 -0.000000 -0.000000
69  0.000000 0.419707 7.832311  -0.000000 -0.000000 -0.000000
70  -2.630078 -2.515688 -4.736385  1.569786 0.000836 -0.000281
71  -0.113746 1.326355 2.565981  -0.000000 -0.000000 -0.000000
72  0.120338 1.215165 2.565981  -0.000000 -0.000000 -0.000000
73  -0.096187 1.080565 2.565981  -0.000000 -0.000000 -0.000000
time 11
0  0.000006 0.000000 0.000000  -1.570800 -1.391899 -1.570792
1  -3.865520 -0.192010 1.061693  -1.544956 -1.855077 -0.198630
2  6.027524 -0.000324 0.000193  -0.819354 -1.010601 -1.483935
3  11.692110 0.000643 -0.000740  -1.152276 -0.000012 -1.295874
4  11.480545 0.000592 -0.000471  1.235873 -0.581258 0.150095
5  3.859507 -0.142880 -1.192049  -0.574848 -0.304757 -1.777058
6  1.312591 0.000012 0.000008  -0.135527 0.003032 -0.200649
7  0.729355 0.000055 0.000049  -0.007831 -0.008960 -0.022519
8  3.942142 0.046272 -0.431512  -0.457086 0.163431 -1.133683
9  1.539111 0.000085 0.000004  -0.017952 -0.090240 -0.838237
10  1.196333 0.000145 0.000028  0.007751 0.004719 -0.800508
11  3.883503 -0.047270 0.431382  -0.247524 0.550882 -0.402952
12  1.719573 -0.000025 0.000016  0.037135 -0.100044 -1.334548
13  1.209180 0.000092 0.000015  -0.008755 -0.005102 -0.561727
14  4.085223 -0.082716 1.151041  0.033614 0.611304 -0.075125
15  1.719451 -0.000011 0.000023  0.001103 -0.029631 -0.766789
16  1.099676 0.000049 0.000005  -0.071025 0.044021 -1.321117
17  1.059851 -1.545954 0.873885  -0.919590 -0.590284 -0.357361
18  1.789821 -0.000002 -0.000018  -0.000001 -0.009377 0.757284
19  1.207014 -0.000012 -0.000043  0.001023 -0.000036 -0.104165
20  5.740637 0.000410 -0.000704  -0.102768 0.000003 0.000071
21  11.481117 0.000331 -0.000752  -0.050422 -0.099647 -0.000972
22  6.027525 -0.000330 0.000203  1.644209 -0.555959 1.519184
23  0.000002 11.692099 -0.000008  -0.906873 -0.367444 -0.728521
24  0.000003 0.000007 0.000000  -0.283187 -0.000031 1.570739
25  -0.000001 -0.000011 -0.000001  0.868957 0.000002 1.570712
26  -4.011518 -5.954122 0.376267  1.473120 1.855075 -0.198639
27  6.027503 -0.000262 -0.000228  1.484526 0.626562 -0.225198
28  11.691989 0.000244 0.000855  0.667115 0.000074 -1.867468
29  11.479090 -0.000444 0.001398  -1.101367 0.410843 0.405036
30  3.452863 -0.227595 1.051754  0.533352 -0.149658 -1.651757
31  1.312559 0.000027 -0.000001  -0.001011 0.013749 -0.916589
32  0.729345 0.000066 -0.000027  -0.019742 -0.002873 -0.520299
33  3.942048 0.050108 0.430996  0.518335 -0.132557 -1.624415
34  1.539093 0.000011 0.000000  -0.006678 -0.030360 -0.846057
35  1.196299 0.000075 -0.000003  0.001767 -0.002530 -0.866091
36  3.883413 -0.050503 -0.431088  0.268299 -0.273603 -1.261072
37  1.719563 -0.000080 -0.000004  -0.029198 0.025493 -1.449554
38  1.209195 0.000036 0.000012  -0.002172 -0.002925 -0.376412
39  3.245586 -0.145572 -1.308860  0.032033 0.000274 0.123459
40  1.719410 -0.000101 -0.000036  -0.098527 0.110450 -1.402806
41  1.099672 0.000025 0.000007  0.006227 -0.001252 -0.894404
42  0.594009 -0.285203 -1.857800  1.075925 0.014236 -0.875502
43  1.789779 -0.000012 -0.000043  0.020386 0.054042 -0.056213
44  1.206997 -0.000005 0.000003  0.112046 0.059847 1.317350
45  5.740572 0.000054 0.000723  0.099743 -0.000014 0.000021
46  11.480762 -0.000054 0.001029  0.076437 0.076573 0.048157
47  6.027514 -0.000272 -0.000236  -0.798467 -0.611855 -1.263343
48  -0.000002 11.691973 -0.000006  -1.245507 0.690830 0.929063
49  0.000002 -0.000002 0.000000  2.939640 -0.000041 1.570856
50  -0.000007 -0.000016 0.000005  2.272644 -0.000030 1.570865
51  -4.869050 -7.086156 -6.583920  3.123070 -0.110079 -1.230835
52  -0.000000 0.000001 -0.000000  0.008153 -0.000259 0.000009
53  0.000000 0.000000 -0.000001  1.565115 0.043565 -0.106862
54  -0.874034 -15.937860 -5.076185  -1.048529 -0.125986 -1.930031
55  0.000001 0.000000 -0.000000  0.000000 -0.000000 -0.000002
56  0.000031 0.000029 0.000001  -1.571902 -0.044449 -0.106509
57  5.661260 -16.060535 -17.872917  1.570796 -0.000000 0.000000
58  -21.599098 7.001666 -12.508070  1.570796 -0.000000 0.000000
59  1.066008 0.876422 -3.770892  1.570796 -0.000000 0.000000
60  -0.004311 0.001230 -0.000371  0.006898 -0.005534 -0.284229
61  0.376268 6.572924 -2.887995  1.570796 -0.000000 0.000000
62  0.000000 0.000000 0.000000  -0.078727 -3.136056 0.284226
63  -2.635804 -5.404278 -0.394992  1.570796 -0.000000 0.000000
64  -2.632614 -8.901305 -1.766859  1.570112 0.000353 -0.000043
65  0.000001 -2.755923 2.037236  -0.000000 -0.000000 0.000000
66  -0.000306 -1.332276 -1.998145  -0.000000 -0.000000 0.000000
67  -0.001517 -1.253476 20.838211  -0.000000 -0.000000 0.000000
68  0.585406 -2.133196 -6.588480  -0.000000 -0.000000 0.000000
69  0.000000 0.419707 7.832312  -0.000000 -0.000000 0.000000
70  -2.630830 -2.499198 -4.734702  1.570112 0.000353 -0.000043
71  -0.113746 1.326354 2.565981  -0.000000 -0.000000 0.000000
72  0.120338 1.215165 2.565981  -0.000000 -0.000000 0.000000
73  -0.096187 1.080565 2.565981  -0.000000 -0.000000 0.000000
time 12
0  0.000006 0.000000 0.000000  -1.570800 -1.391899 -1.570792
1  -3.865520 -0.192010 1.061693  -1.544956 -1.855077 -0.198630
2  6.027524 -0.000324 0.000193  -0.819924 -1.009904 -1.482804
3  11.692111 0.000644 -0.000739  -1.152276 -0.000012 -1.297847
4  11.480530 0.000591 -0.000479  1.235756 -0.582800 0.150660
5  3.859507 -0.142882 -1.192050  -0.574847 -0.304757 -1.777058
6  1.312589 0.000013 0.000008  -0.135527 0.003032 -0.200649
7  0.729355 0.000054 0.000049  -0.007831 -0.008960 -0.022519
8  3.942142 0.046271 -0.431512  -0.457086 0.163431 -1.133683
9  1.539111 0.000085 0.000008  -0.017952 -0.090240 -0.838237
10  1.196332 0.000146 0.000029  0.007751 0.004719 -0.800508
11  3.883504 -0.047271 0.431381  -0.247524 0.550882 -0.402952
12  1.719573 -0.000026 0.000015  0.037135 -0.100044 -1.334548
13  1.209178 0.000091 0.000014  -0.008755 -0.005102 -0.561727
14  4.085224 -0.082717 1.151041  0.033614 0.611304 -0.075125
15  1.719448 -0.000011 0.000023  0.001103 -0.029631 -0.766789
16  1.099674 0.000049 0.000006  -0.071025 0.044021 -1.321117
17  1.059850 -1.545956 0.873884  -0.919590 -0.590284 -0.357361
18  1.789819 -0.000003 -0.000018  -0.000001 -0.009377 0.757284
19  1.207016 -0.000012 -0.000043  0.001023 -0.000036 -0.104165
20  5.740635 0.000410 -0.000705  -0.102954 0.000003 0.000071
21  11.481113 0.000330 -0.000754  -0.050375 -0.099965 -0.000917
22  6.027525 -0.000330 0.000203  1.644675 -0.556607 1.519585
23  0.000002 11.692100 -0.000008  -0.908078 -0.368448 -0.729361
24  0.000002 0.000006 0.000000  -0.283187 -0.000031 1.570738
25  -0.000000 -0.000012 -0.000001  0.868957 0.000002 1.570712
26  -4.011518 -5.954122 0.376267  1.473120 1.855075 -0.198639
27  6.027503 -0.000262 -0.000228  1.484350 0.625809 -0.225251
28  11.691990 0.000244 0.000855  0.667115 0.000074 -1.868976
29  11.479078 -0.000448 0.001405  -1.100643 0.411209 0.405706
30  3.452863 -0.227595 1.051756  0.533352 -0.149658 -1.651757
31  1.312559 0.000026 -0.000001  -0.001011 0.013749 -0.916589
32  0.729347 0.000066 -0.000027  -0.019742 -0.002873 -0.520299
33  3.942047 0.050108 0.430998  0.518335 -0.132557 -1.624415
34  1.539094 0.000010 -0.000000  -0.006678 -0.030360 -0.846057
35  1.196299 0.000075 -0.000004  0.001767 -0.002530 -0.866091
36  3.883412 -0.050504 -0.431088  0.268299 -0.273603 -1.261072
37  1.719563 -0.000080 -0.000004  -0.029198 0.025493 -1.449554
38  1.209195 0.000036 0.000011  -0.002172 -0.002925 -0.376412
39  3.245586 -0.145572 -1.308859  0.032033 0.000274 0.123459
40  1.719410 -0.000101 -0.000036  -0.098527 0.110450 -1.402806
41  1.099672 0.000026 0.000007  0.006227 -0.001252 -0.894404
42  0.594008 -0.285203 -1.857799  1.075925 0.014236 -0.875502
43  1.789779 -0.000012 -0.000043  0.020386 0.054042 -0.056213
44  1.206997 -0.000006 0.000002  0.112046 0.059847 1.317350
45  5.740572 0.000055 0.000724  0.099895 -0.000014 0.000021
46  11.480761 -0.000055 0.001031  0.076536 0.076691 0.048238
47  6.027514 -0.000272 -0.000236  -0.797763 -0.612359 -1.263699
48  -0.000003 11.691975 -0.000006  -1.246401 0.691752 0.929466
49  0.000002 -0.000002 0.000000  2.939640 -0.000041 1.570856
50  -0.000008 -0.000015 0.000005  2.272644 -0.000030 1.570865
51  -4.868664 -7.071888 -6.584143  3.123646 -0.109905 -1.230699
52  -0.000001 0.000000 -0.000000  0.008153 -0.000259 0.000009
53  -0.000001 0.000000 0.000000  1.565115 0.043565 -0.106862
54  -0.872611 -15.923330 -5.077623  -1.048199 -0.125484 -1.929873
55  -0.000000 0.000001 0.000000  0.000000 -0.000000 -0.000002
56  0.000030 0.000029 0.000001  -1.571901 -0.044449 -0.106509
57  5.661260 -16.060535 -17.872917  1.570796 -0.000000 0.000000
58  -21.599098 7.001666 -12.508070  1.570796 -0.000000 0.000000
59  1.066008 0.876422 -3.770892  1.570796 -0.000000 0.000000
60  -0.004311 0.001230 -0.000371  0.006898 -0.005534 -0.284229
61  0.376268 6.572924 -2.887995  1.570796 -0.000000 0.000000
62  0.000000 0.000000 0.000000  -0.078727 -3.136056 0.284226
63  -2.635804 -5.404278 -0.394992  1.570796 -0.000000 0.000000
64  -2.634191 -8.888300 -1.766649  1.570467 -0.000129 0.000156
65  0.000000 -2.755923 2.037236  0.000000 -0.000000 -0.000000
66  -0.000306 -1.332276 -1.998147  0.000000 -0.000000 -0.000000
67  -0.001517 -1.253476 20.838209  0.000000 -0.000000 -0.000000
68  0.585406 -2.133196 -6.588482  0.000000 -0.000000 -0.000000
69  -0.000000 0.419707 7.832311  0.000000 -0.000000 -0.000000
70  -2.632252 -2.485140 -4.732218  1.570467 -0.000129 0.000156
71  -0.113746 1.326354 2.565981  0.000000 -0.000000 -0.000000
72  0.120338 1.215165 2.565981  0.000000 -0.000000 -0.000000
73  -0.096187 1.080565 2.565981  0.000000 -0.000000 -0.000000
time 13
0  0.000006 0.000000 0.000000  -1.570800 -1.391899 -1.570792
1  -3.865520 -0.192010 1.061693  -1.544956 -1.855077 -0.198630
2  6.027524 -0.000324 0.000193  -0.820040 -1.009596 -1.482331
3  11.692109 0.000643 -0.000740  -1.152276 -0.000012 -1.298683
4  11.480527 0.000589 -0.000480  1.235544 -0.583605 0.150957
5  3.859508 -0.142880 -1.192049  -0.574847 -0.304757 -1.777058
6  1.312590 0.000012 0.000008  -0.135527 0.003032 -0.200649
7  0.729354 0.000054 0.000049  -0.007831 -0.008960 -0.022519
8  3.942144 0.046273 -0.431512  -0.457086 0.163431 -1.133683
9  1.539111 0.000086 0.000007  -0.017952 -0.090240 -0.838237
10  1.196331 0.000145 0.000029  0.007751 0.004719 -0.800508
11  3.883505 -0.047270 0.431381  -0.247524 0.550882 -0.402951
12  1.719572 -0.000028 0.000014  0.037135 -0.100044 -1.334548
13  1.209180 0.000090 0.000012  -0.008755 -0.005102 -0.561727
14  4.085223 -0.082715 1.151041  0.033614 0.611304 -0.075125
15  1.719449 -0.000010 0.000023  0.001104 -0.029631 -0.766789
16  1.099675 0.000049 0.000006  -0.071025 0.044021 -1.321117
17  1.059853 -1.545954 0.873884  -0.919590 -0.590284 -0.357361
18  1.789821 -0.000001 -0.000018  -0.000001 -0.009377 0.757284
19  1.207016 -0.000012 -0.000043  0.001023 -0.000036 -0.104165
20  5.740637 0.000411 -0.000704  -0.103071 0.000003 0.000071
21  11.481114 0.000330 -0.000753  -0.050379 -0.100133 -0.000898
22  6.027525 -0.000330 0.000203  1.644798 -0.556904 1.519894
23  0.000002 11.692099 -0.000008  -0.908588 -0.368873 -0.729717
24  0.000002 0.000008 -0.000001  -0.283187 -0.000030 1.570738
25  -0.000000 -0.000011 -0.000001  0.868957 0.000002 1.570712
26  -4.011518 -5.954122 0.376267  1.473120 1.855075 -0.198639
27  6.027503 -0.000262 -0.000228  1.484375 0.625394 -0.225208
28  11.691990 0.000243 0.000855  0.667115 0.000074 -1.869714
29  11.479071 -0.000452 0.001406  -1.100155 0.411242 0.406194
30  3.452863 -0.227595 1.051754  0.533352 -0.149658 -1.651757
31  1.312559 0.000025 -0.000001  -0.001011 0.013749 -0.916589
32  0.729346 0.000066 -0.000026  -0.019742 -0.002873 -0.520299
33  3.942048 0.050109 0.430996  0.518335 -0.132557 -1.624414
34  1.539094 0.000009 -0.000000  -0.006678 -0.030360 -0.846057
35  1.196299 0.000075 -0.000003  0.001767 -0.002530 -0.866091
36  3.883412 -0.050504 -0.431088  0.268299 -0.273603 -1.261072
37  1.719563 -0.000079 -0.000004  -0.029198 0.025493 -1.449554
38  1.209194 0.000037 0.000012  -0.002172 -0.002925 -0.376412
39  3.245586 -0.145572 -1.308860  0.032033 0.000274 0.123459
40  1.719410 -0.000100 -0.000036  -0.098527 0.110450 -1.402806
41  1.099672 0.000024 0.000007  0.006227 -0.001252 -0.894404
42  0.594009 -0.285203 -1.857800  1.075925 0.014236 -0.875502
43  1.789779 -0.000012 -0.000044  0.020386 0.054042 -0.056213
44  1.206997 -0.000005 0.000002  0.112046 0.059847 1.317350
45  5.740572 0.000055 0.000724  0.099996 -0.000014 0.000021
46  11.480759 -0.000055 0.001030  0.076613 0.076730 0.048308
47  6.027514 -0.000272 -0.000236  -0.797313 -0.612553 -1.263928
48  -0.000001 11.691974 -0.000006  -1.246840 0.692204 0.929664
49  0.000002 -0.000002 0.000001  2.939640 -0.000041 1.570856
50  -0.000008 -0.000015 0.000005  2.272644 -0.000030 1.570865
51  -4.869641 -7.065050 -6.583499  3.123964 -0.109671 -1.230650
52  0.000000 0.000000 -0.000000  0.008153 -0.000259 0.000009
53  0.000000 -0.000000 -0.000001  1.565115 0.043565 -0.106862
54  -0.873180 -15.916648 -5.078986  -1.048108 -0.125102 -1.929801
55  0.000000 0.000000 -0.000000  0.000000 -0.000000 -0.000002
56  0.000030 0.000029 0.000001  -1.571902 -0.044449 -0.106509
57  5.661260 -16.060535 -17.872917  1.570796 -0.000000 0.000000
58  -21.599098 7.001666 -12.508070  1.570796 -0.000000 0.000000
59  1.066008 0.876422 -3.770892  1.570796 -0.000000 0.000000
60  -0.004311 0.001230 -0.000371  0.006898 -0.005534 -0.284229
61  0.376268 6.572924 -2.887995  1.570796 -0.000000 0.000000
62  0.000000 0.000000 0.000000  -0.078727 -3.136056 0.284226
63  -2.635804 -5.404278 -0.394992  1.570796 -0.000000 0.000000
64  -2.636072 -8.882845 -1.766107  1.570793 -0.000348 0.000239
65  0.000000 -2.755923 2.037236  -0.000000 0.000000 0.000000
66  -0.000306 -1.332276 -1.998147  -0.000000 0.000000 0.000000
67  -0.001517 -1.253476 20.838207  -0.000000 0.000000 0.000000
68  0.585406 -2.133196 -6.588482  -0.000000 0.000000 0.000000
69  0.000000 0.419707 7.832309  -0.000000 0.000000 0.000000
70  -2.634018 -2.478719 -4.729589  1.570793 -0.000348 0.000239
71  -0.113746 1.326354 2.565982  -0.000000 0.000000 0.000000
72  0.120338 1.215165 2.565982  -0.000000 0.000000 0.000000
73  -0.096187 1.080565 2.565982  -0.000000 0.000000 0.000000
time 14
0  0.000006 0.000000 0.000000  -1.570800 -1.391899 -1.570792
1  -3.865520 -0.192010 1.061693  -1.544956 -1.855077 -0.198630
2  6.027524 -0.000324 0.000193  -0.819661 -1.009814 -1.482725
3  11.692109 0.000644 -0.000740  -1.152276 -0.000012 -1.297942
4  11.480531 0.000591 -0.000477  1.235301 -0.583342 0.150861
5  3.859510 -0.142880 -1.192050  -0.574848 -0.304757 -1.777058
6  1.312590 0.000012 0.000008  -0.135527 0.003032 -0.200649
7  0.729355 0.000053 0.000049  -0.007831 -0.008960 -0.022519
8  3.942144 0.046272 -0.431513  -0.457086 0.163431 -1.133683
9  1.539111 0.000082 0.000006  -0.017952 -0.090240 -0.838237
10  1.196331 0.000144 0.000030  0.007751 0.004719 -0.800508
11  3.883507 -0.047269 0.431381  -0.247524 0.550882 -0.402951
12  1.719573 -0.000028 0.000016  0.037135 -0.100044 -1.334548
13  1.209178 0.000093 0.000014  -0.008755 -0.005102 -0.561727
14  4.085221 -0.082716 1.151040  0.033614 0.611304 -0.075125
15  1.719451 -0.000010 0.000022  0.001103 -0.029631 -0.766789
16  1.099675 0.000047 0.000005  -0.071025 0.044021 -1.321117
17  1.059851 -1.545954 0.873883  -0.919590 -0.590284 -0.357361
18  1.789820 -0.000004 -0.000018  -0.000001 -0.009377 0.757284
19  1.207016 -0.000012 -0.000044  0.001023 -0.000036 -0.104165
20  5.740637 0.000409 -0.000704  -0.103066 0.000003 0.000071
21  11.481113 0.000330 -0.000754  -0.050435 -0.100082 -0.000922
22  6.027525 -0.000330 0.000203  1.644527 -0.556716 1.519965
23  0.000003 11.692099 -0.000008  -0.908135 -0.368496 -0.729402
24  0.000003 0.000007 -0.000001  -0.283187 -0.000030 1.570739
25  -0.000000 -0.000011 -0.000001  0.868957 0.000002 1.570712
26  -4.011518 -5.954122 0.376267  1.473120 1.855075 -0.198639
27  6.027503 -0.000262 -0.000228  1.484629 0.625521 -0.225064
28  11.691992 0.000243 0.000854  0.667115 0.000074 -1.869294
29  11.479076 -0.000447 0.001405  -1.100052 0.410804 0.406325
30  3.452862 -0.227595 1.051755  0.533352 -0.149658 -1.651757
31  1.312559 0.000026 -0.000001  -0.001011 0.013749 -0.916589
32  0.729348 0.000066 -0.000027  -0.019742 -0.002873 -0.520299
33  3.942047 0.050107 0.430997  0.518335 -0.132557 -1.624414
34  1.539093 0.000009 -0.000000  -0.006678 -0.030360 -0.846057
35  1.196300 0.000076 -0.000004  0.001767 -0.002530 -0.866091
36  3.883411 -0.050504 -0.431087  0.268299 -0.273603 -1.261072
37  1.719563 -0.000078 -0.000004  -0.029198 0.025493 -1.449554
38  1.209194 0.000037 0.000011  -0.002172 -0.002925 -0.376412
39  3.245584 -0.145572 -1.308859  0.032033 0.000274 0.123459
40  1.719409 -0.000101 -0.000037  -0.098527 0.110450 -1.402806
41  1.099672 0.000025 0.000008  0.006227 -0.001252 -0.894404
42  0.594007 -0.285203 -1.857800  1.075925 0.014236 -0.875503
43  1.789779 -0.000012 -0.000043  0.020386 0.054042 -0.056213
44  1.206997 -0.000007 0.000004  0.112046 0.059847 1.317350
45  5.740574 0.000057 0.000725  0.100018 -0.000014 0.000021
46  11.480761 -0.000053 0.001031  0.076651 0.076654 0.048348
47  6.027514 -0.000272 -0.000236  -0.797320 -0.612311 -1.263929
48  -0.000001 11.691974 -0.000006  -1.246590 0.691947 0.929552
49  0.000003 -0.000001 0.000000  2.939640 -0.000041 1.570856
50  -0.000007 -0.000015 0.000005  2.272644 -0.000030 1.570865
51  -4.871843 -7.069321 -6.582014  3.123911 -0.109400 -1.230669
52  0.000000 0.000000 -0.000000  0.008153 -0.000259 0.000009
53  -0.000001 -0.000000 0.000000  1.565115 0.043565 -0.106862
54  -0.875393 -15.921376 -5.080165  -1.048323 -0.124928 -1.929799
55  -0.000001 0.000000 -0.000000  0.000000 -0.000000 -0.000002
56  0.000030 0.000029 0.000001  -1.571902 -0.044449 -0.106509
57  5.661260 -16.060535 -17.872917  1.570796 -0.000000 0.000000
58  -21.599098 7.001666 -12.508070  1.570796 -0.000000 0.000000
59  1.066008 0.876422 -3.770892  1.570796 -0.000000 0.000000
60  -0.004311 0.001230 -0.000371  0.006898 -0.005534 -0.284229
61  0.376268 6.572924 -2.887995  1.570796 -0.000000 0.000000
62  0.000000 0.000000 0.000000  -0.078727 -3.136056 0.284226
63  -2.635804 -5.404278 -0.394992  1.570796 -0.000000 0.000000
64  -2.637648 -8.888318 -1.765366  1.571031 -0.000209 0.000215
65  0.000001 -2.755923 2.037236  0.000000 0.000000 0.000000
66  -0.000306 -1.332276 -1.998147  0.000000 0.000000 0.000000
67  -0.001517 -1.253476 20.838209  0.000000 0.000000 0.000000
68  0.585406 -2.133196 -6.588481  0.000000 0.000000 0.000000
69  -0.000000 0.419707 7.832310  0.000000 0.000000 0.000000
70  -2.635848 -2.483487 -4.727323  1.571031 -0.000209 0.000215
71  -0.113746 1.326354 2.565981  0.000000 0.000000 0.000000
72  0.120338 1.215165 2.565981  0.000000 0.000000 0.000000
73  -0.096187 1.080565 2.565981  0.000000 0.000000 0.000000
time 15
0  0.000006 0.000000 0.000000  -1.570800 -1.391899 -1.570792
1  -3.865520 -0.192010 1.061693  -1.544956 -1.855077 -0.198630
2  6.027524 -0.000324 0.000193  -0.819098 -1.010391 -1.483678
3  11.692110 0.000643 -0.000740  -1.152276 -0.000012 -1.296162
4  11.480543 0.000592 -0.000472  1.235249 -0.582315 0.150555
5  3.859508 -0.142881 -1.192050  -0.574848 -0.304757 -1.777058
6  1.312590 0.000012 0.000007  -0.135527 0.003032 -0.200649
7  0.729355 0.000054 0.000048  -0.007831 -0.008960 -0.022519
8  3.942144 0.046272 -0.431512  -0.457086 0.163431 -1.133683
9  1.539111 0.000087 0.000006  -0.017952 -0.090240 -0.838237
10  1.196333 0.000143 0.000030  0.007751 0.004719 -0.800508
11  3.883505 -0.047270 0.431381  -0.247524 0.550882 -0.402952
12  1.719573 -0.000027 0.000015  0.037135 -0.100044 -1.334548
13  1.209178 0.000093 0.000013  -0.008755 -0.005102 -0.561727
14  4.085223 -0.082716 1.151041  0.033614 0.611304 -0.075125
15  1.719450 -0.000011 0.000021  0.001103 -0.029631 -0.766789
16  1.099675 0.000049 0.000003  -0.071025 0.044021 -1.321117
17  1.059850 -1.545956 0.873884  -0.919590 -0.590284 -0.357361
18  1.789819 -0.000002 -0.000017  -0.000002 -0.009377 0.757284
19  1.207016 -0.000012 -0.000044  0.001023 -0.000036 -0.104165
20  5.740636 0.000411 -0.000703  -0.102927 0.000003 0.000070
21  11.481117 0.000331 -0.000753  -0.050488 -0.099874 -0.000953
22  6.027525 -0.000330 0.000203  1.644084 -0.556186 1.519723
23  0.000001 11.692101 -0.000008  -0.907049 -0.367590 -0.728643
24  0.000003 0.000008 -0.000001  -0.283187 -0.000030 1.570739
25  -0.000001 -0.000011 -0.000001  0.868957 0.000002 1.570712
26  -4.011518 -5.954122 0.376267  1.473120 1.855075 -0.198639
27  6.027503 -0.000262 -0.000228  1.484951 0.626121 -0.224911
28  11.691991 0.000243 0.000854  0.667115 0.000074 -1.868004
29  11.479088 -0.000445 0.001402  -1.100205 0.410139 0.406059
30  3.452862 -0.227596 1.051755  0.533352 -0.149658 -1.651757
31  1.312558 0.000026 -0.000002  -0.001011 0.013749 -0.916589
32  0.729347 0.000066 -0.000026  -0.019742 -0.002873 -0.520299
33  3.942047 0.050108 0.430997  0.518335 -0.132557 -1.624414
34  1.539093 0.000010 0.000000  -0.006678 -0.030360 -0.846057
35  1.196299 0.000075 -0.000003  0.001767 -0.002530 -0.866091
36  3.883411 -0.050504 -0.431088  0.268299 -0.273603 -1.261072
37  1.719563 -0.000079 -0.000003  -0.029198 0.025493 -1.449554
38  1.209195 0.000036 0.000012  -0.002172 -0.002925 -0.376412
39  3.245585 -0.145573 -1.308859  0.032033 0.000274 0.123459
40  1.719408 -0.000101 -0.000036  -0.098527 0.110450 -1.402806
41  1.099672 0.000024 0.000007  0.006227 -0.001252 -0.894404
42  0.594008 -0.285203 -1.857800  1.075925 0.014236 -0.875502
43  1.789779 -0.000011 -0.000044  0.020386 0.054042 -0.056213
44  1.206997 -0.000005 0.000004  0.112046 0.059847 1.317350
45  5.740571 0.000055 0.000724  0.099984 -0.000014 0.000021
46  11.480762 -0.000054 0.001030  0.076663 0.076512 0.048332
47  6.027514 -0.000272 -0.000236  -0.797790 -0.611782 -1.263694
48  -0.000001 11.691975 -0.000005  -1.245825 0.691158 0.929207
49  0.000002 -0.000002 0.000001  2.939640 -0.000041 1.570856
50  -0.000007 -0.000015 0.000005  2.272644 -0.000030 1.570865
51  -4.873642 -7.081794 -6.580460  3.123697 -0.109227 -1.230705
52  0.000000 0.000000 -0.000001  0.008153 -0.000259 0.000009
53  -0.000001 0.000000 -0.000000  1.565115 0.043565 -0.106862
54  -0.877328 -15.934225 -5.080463  -1.048600 -0.124932 -1.929823
55  0.000001 -0.000000 0.000001  0.000000 -0.000000 -0.000002
56  0.000031 0.000029 0.000001  -1.571902 -0.044449 -0.106509
57  5.661260 -16.060535 -17.872917  1.570796 -0.000000 0.000000
58  -21.599098 7.001666 -12.508070  1.570796 -0.000000 0.000000
59  1.066008 0.876422 -3.770892  1.570796 -0.000000 0.000000
60  -0.004311 0.001230 -0.000371  0.006898 -0.005534 -0.284229
61  0.376268 6.572924 -2.887995  1.570796 -0.000000 0.000000
62  0.000000 0.000000 0.000000  -0.078727 -3.136056 0.284226
63  -2.635804 -5.404278 -0.394992  1.570796 -0.000000 0.000000
64  -2.638309 -8.901369 -1.764559  1.571123 0.000049 0.000155
65  0.000000 -2.755923 2.037235  -0.000000 -0.000000 0.000000
66  -0.000306 -1.332276 -1.998148  -0.000000 -0.000000 0.000000
67  -0.001517 -1.253476 20.838209  -0.000000 -0.000000 0.000000
68  0.585406 -2.133196 -6.588482  -0.000000 -0.000000 0.000000
69  -0.000000 0.419707 7.832310  -0.000000 -0.000000 0.000000
70  -2.636895 -2.496264 -4.725925  1.571123 0.000049 0.000155
71  -0.113746 1.326354 2.565981  -0.000000 -0.000000 0.000000
72  0.120338 1.215165 2.565981  -0.000000 -0.000000 0.000000
73  -0.096187 1.080565 2.565981  -0.000000 -0.000000 0.000000
time 16
0  0.000006 0.000000 0.000000  -1.570800 -1.391899 -1.570792
1  -3.865520 -0.192010 1.061693  -1.544956 -1.855077 -0.198630
2  6.027524 -0.000324 0.000193  -0.818637 -1.011098 -1.484804
3  11.692112 0.000643 -0.000739  -1.152276 -0.000012 -1.294066
4  11.480562 0.000596 -0.000464  1.235512 -0.580947 0.150270
5  3.859507 -0.142880 -1.192050  -0.574848 -0.304757 -1.777058
6  1.312590 0.000012 0.000009  -0.135527 0.003032 -0.200649
7  0.729356 0.000053 0.000048  -0.007831 -0.008960 -0.022519
8  3.942142 0.046272 -0.431512  -0.457086 0.163431 -1.133683
9  1.539110 0.000086 0.000004  -0.017952 -0.090240 -0.838237
10  1.196333 0.000145 0.000027  0.007751 0.004719 -0.800508
11  3.883502 -0.047269 0.431381  -0.247524 0.550882 -0.402952
12  1.719573 -0.000027 0.000015  0.037135 -0.100044 -1.334548
13  1.209178 0.000093 0.000012  -0.008755 -0.005102 -0.561727
14  4.085222 -0.082716 1.151041  0.033614 0.611304 -0.075125
15  1.719450 -0.000013 0.000023  0.001103 -0.029631 -0.766789
16  1.099675 0.000048 0.000005  -0.071025 0.044021 -1.321117
17  1.059848 -1.545955 0.873884  -0.919590 -0.590284 -0.357360
18  1.789820 -0.000002 -0.000018  -0.000001 -0.009377 0.757284
19  1.207017 -0.000012 -0.000043  0.001023 -0.000036 -0.104165
20  5.740636 0.000411 -0.000703  -0.102677 0.000003 0.000071
21  11.481121 0.000331 -0.000749  -0.050491 -0.099595 -0.000950
22  6.027525 -0.000330 0.000203  1.643684 -0.555519 1.519198
23  0.000003 11.692100 -0.000007  -0.905769 -0.366525 -0.727750
24  0.000001 0.000008 -0.000000  -0.283187 -0.000031 1.570738
25  -0.000001 -0.000011 -0.000001  0.868957 0.000002 1.570712
26  -4.011518 -5.954122 0.376267  1.473120 1.855075 -0.198639
27  6.027503 -0.000262 -0.000228  1.485172 0.627009 -0.224838
28  11.691991 0.000243 0.000854  0.667115 0.000074 -1.866338
29  11.479105 -0.000438 0.001397  -1.100446 0.409589 0.405489
30  3.452863 -0.227595 1.051755  0.533352 -0.149658 -1.651757
31  1.312559 0.000026 -0.000000  -0.001011 0.013749 -0.916589
32  0.729346 0.000066 -0.000026  -0.019742 -0.002873 -0.520298
33  3.942049 0.050108 0.430998  0.518335 -0.132557 -1.624414
34  1.539093 0.000010 -0.000001  -0.006678 -0.030360 -0.846057
35  1.196299 0.000076 -0.000003  0.001767 -0.002530 -0.866091
36  3.883412 -0.050503 -0.431088  0.268299 -0.273603 -1.261072
37  1.719563 -0.000080 -0.000004  -0.029197 0.025493 -1.449554
38  1.209194 0.000036 0.000011  -0.002172 -0.002925 -0.376412
39  3.245587 -0.145572 -1.308859  0.032033 0.000274 0.123459
40  1.719409 -0.000101 -0.000037  -0.098527 0.110450 -1.402806
41  1.099672 0.000026 0.000008  0.006227 -0.001252 -0.894404
42  0.594008 -0.285203 -1.857800  1.075925 0.014236 -0.875502
43  1.789780 -0.000012 -0.000043  0.020386 0.054042 -0.056213
44  1.206997 -0.000006 0.000003  0.112046 0.059847 1.317350
45  5.740574 0.000056 0.000724  0.099929 -0.000014 0.000021
46  11.480768 -0.000051 0.001029  0.076662 0.076380 0.048256
47  6.027514 -0.000272 -0.000236  -0.798613 -0.611177 -1.263279
48  -0.000001 11.691974 -0.000005  -1.244837 0.690139 0.928760
49  0.000001 -0.000000 0.000001  2.939640 -0.000041 1.570856
50  -0.000007 -0.000015 0.000005  2.272644 -0.000030 1.570865
51  -4.873535 -7.097621 -6.579563  3.123537 -0.109260 -1.230759
52  -0.000000 0.000000 -0.000001  0.008153 -0.000259 0.000009
53  -0.000000 0.000000 -0.000000  1.565115 0.043565 -0.106862
54  -0.877639 -15.950207 -5.079372  -1.048702 -0.125060 -1.929882
55  0.000001 0.000000 0.000000  0.000000 -0.000000 -0.000002
56  0.000031 0.000029 0.000002  -1.571901 -0.044449 -0.106509
57  5.661260 -16.060535 -17.872917  1.570796 -0.000000 0.000000
58  -21.599098 7.001666 -12.508070  1.570796 -0.000000 0.000000
59  1.066008 0.876422 -3.770892  1.570796 -0.000000 0.000000
60  -0.004311 0.001230 -0.000371  0.006898 -0.005534 -0.284229
61  0.376268 6.572924 -2.887995  1.570796 -0.000000 0.000000
62  0.000000 0.000000 0.000000  -0.078727 -3.136056 0.284226
63  -2.635804 -5.404278 -0.394992  1.570796 -0.000000 0.000000
64  -2.637660 -8.916946 -1.763818  1.571039 0.000189 0.000084
65  0.000000 -2.755923 2.037236  0.000000 0.000000 0.000000
66  -0.000306 -1.332276 -1.998147  0.000000 0.000000 0.000000
67  -0.001517 -1.253476 20.838209  0.000000 0.000000 0.000000
68  0.585406 -2.133196 -6.588481  0.000000 0.000000 0.000000
69  -0.000000 0.419707 7.832311  0.000000 0.000000 0.000000
70  -2.636204 -2.512093 -4.725728  1.571039 0.000189 0.000084
71  -0.113746 1.326354 2.565982  0.000000 0.000000 0.000000
72  0.120338 1.215165 2.565982  0.000000 0.000000 0.000000
73  -0.096187 1.080565 2.565982  0.000000 0.000000 0.000000
time 17
0  0.000006 0.000000 0.000000  -1.570800 -1.391899 -1.570792
1  -3.865520 -0.192010 1.061693  -1.544956 -1.855077 -0.198630
2  6.027524 -0.000324 0.000193  -0.818399 -1.011696 -1.485725
3  11.692110 0.000643 -0.000740  -1.152276 -0.000012 -1.292348
4  11.480573 0.000598 -0.000456  1.235982 -0.579758 0.150161
5  3.859510 -0.142879 -1.192049  -0.574847 -0.304757 -1.777058
6  1.312589 0.000011 0.000006  -0.135527 0.003032 -0.200649
7  0.729356 0.000055 0.000049  -0.007831 -0.008960 -0.022519
8  3.942143 0.046273 -0.431512  -0.457086 0.163431 -1.133683
9  1.539111 0.000084 0.000005  -0.017952 -0.090240 -0.838237
10  1.196333 0.000144 0.000029  0.007751 0.004719 -0.800508
11  3.883506 -0.047269 0.431381  -0.247524 0.550882 -0.402951
12  1.719574 -0.000027 0.000015  0.037135 -0.100044 -1.334548
13  1.209179 0.000093 0.000013  -0.008755 -0.005102 -0.561727
14  4.085226 -0.082715 1.151041  0.033614 0.611304 -0.075125
15  1.719449 -0.000010 0.000023  0.001103 -0.029631 -0.766789
16  1.099675 0.000050 0.000006  -0.071025 0.044021 -1.321117
17  1.059852 -1.545955 0.873884  -0.919590 -0.590284 -0.357361
18  1.789819 -0.000003 -0.000018  -0.000001 -0.009377 0.757284
19  1.207016 -0.000012 -0.000043  0.001023 -0.000036 -0.104165
20  5.740637 0.000410 -0.000702  -0.102401 0.000003 0.000071
21  11.481123 0.000332 -0.000748  -0.050444 -0.099352 -0.000906
22  6.027525 -0.000330 0.000203  1.643440 -0.554945 1.518608
23  0.000002 11.692100 -0.000009  -0.904720 -0.365653 -0.727016
24  0.000003 0.000006 -0.000001  -0.283187 -0.000031 1.570739
25  -0.000001 -0.000011 -0.000002  0.868957 0.000002 1.570712
26  -4.011518 -5.954122 0.376267  1.473120 1.855075 -0.198639
27  6.027503 -0.000262 -0.000228  1.485233 0.627866 -0.224860
28  11.691990 0.000244 0.000854  0.667115 0.000074 -1.864880
29  11.479114 -0.000431 0.001392  -1.100577 0.409316 0.404865
30  3.452863 -0.227594 1.051755  0.533352 -0.149658 -1.651757
31  1.312559 0.000026 -0.000001  -0.001011 0.013749 -0.916589
32  0.729345 0.000066 -0.000027  -0.019742 -0.002873 -0.520299
33  3.942048 0.050109 0.430996  0.518335 -0.132557 -1.624414
34  1.539093 0.000010 -0.000001  -0.006678 -0.030360 -0.846057
35  1.196299 0.000075 -0.000003  0.001767 -0.002530 -0.866091
36  3.883413 -0.050502 -0.431088  0.268299 -0.273603 -1.261072
37  1.719563 -0.000080 -0.000004  -0.029198 0.025493 -1.449554
38  1.209195 0.000036 0.000012  -0.002172 -0.002925 -0.376412
39  3.245585 -0.145572 -1.308860  0.032033 0.000274 0.123459
40  1.719408 -0.000101 -0.000036  -0.098527 0.110450 -1.402806
41  1.099672 0.000024 0.000008  0.006227 -0.001252 -0.894404
42  0.594008 -0.285202 -1.857800  1.075925 0.014236 -0.875502
43  1.789779 -0.000011 -0.000044  0.020386 0.054042 -0.056213
44  1.206997 -0.000005 0.000003  0.112046 0.059847 1.317350
45  5.740572 0.000056 0.000724  0.099894 -0.000014 0.000021
46  11.480767 -0.000050 0.001027  0.076670 0.076303 0.048153
47  6.027514 -0.000272 -0.000236  -0.799484 -0.610699 -1.262837
48  -0.000003 11.691974 -0.000005  -1.243972 0.689247 0.928369
49  0.000004 0.000000 -0.000000  2.939640 -0.000041 1.570856
50  -0.000007 -0.000015 0.000005  2.272644 -0.000030 1.570865
51  -4.871766 -7.111297 -6.579519  3.123573 -0.109440 -1.230822
52  0.000000 0.000000 -0.000000  0.008153 -0.000259 0.000009
53  0.000000 0.000001 -0.000000  1.565115 0.043565 -0.106862
54  -0.876538 -15.963884 -5.077558  -1.048557 -0.125175 -1.929959
55  0.000000 0.000000 -0.000000  0.000000 -0.000000 -0.000002
56  0.000030 0.000029 0.000001  -1.571901 -0.044449 -0.106509
57  5.661260 -16.060535 -17.872917  1.570796 -0.000000 0.000000
58  -21.599098 7.001666 -12.508070  1.570796 -0.000000 0.000000
59  1.066008 0.876422 -3.770892  1.570796 -0.000000 0.000000
60  -0.004311 0.001230 -0.000371  0.006898 -0.005534 -0.284229
61  0.376268 6.572924 -2.887995  1.570796 -0.000000 0.000000
62  0.000000 0.000000 0.000000  -0.078727 -3.136056 0.284226
63  -2.635804 -5.404278 -0.394992  1.570796 -0.000000 0.000000
64  -2.636454 -8.929997 -1.763277  1.570881 0.000094 0.000025
65  0.000001 -2.755923 2.037235  -0.000000 -0.000000 -0.000000
66  -0.000306 -1.332277 -1.998148  -0.000000 -0.000000 -0.000000
67  -0.001517 -1.253476 20.838209  -0.000000 -0.000000 -0.000000
68  0.585406 -2.133196 -6.588482  -0.000000 -0.000000 -0.000000
69  0.000000 0.419707 7.832311  -0.000000 -0.000000 -0.000000
70  -2.634338 -2.525610 -4.726195  1.570881 0.000094 0.000025
71  -0.113746 1.326355 2.565981  -0.000000 -0.000000 -0.000000
72  0.120338 1.215165 2.565981  -0.000000 -0.000000 -0.000000
73  -0.096187 1.080566 2.565981  -0.000000 -0.000000 -0.000000
time 18
0  0.000006 0.000000 0.000000  -1.570800 -1.391899 -1.570792
1  -3.865520 -0.192010 1.061693  -1.544956 -1.855077 -0.198630
2  6.027524 -0.000324 0.000193  -0.818334 -1.011947 -1.486105
3  11.692110 0.000644 -0.000739  -1.152276 -0.000012 -1.291638
4  11.480578 0.000599 -0.000454  1.236239 -0.579251 0.150149
5  3.859509 -0.142880 -1.192050  -0.574848 -0.304757 -1.777058
6  1.312590 0.000013 0.000008  -0.135527 0.003032 -0.200649
7  0.729355 0.000054 0.000047  -0.007831 -0.008960 -0.022519
8  3.942144 0.046273 -0.431513  -0.457086 0.163431 -1.133683
9  1.539110 0.000083 0.000003  -0.017952 -0.090240 -0.838237
10  1.196333 0.000144 0.000028  0.007751 0.004719 -0.800508
11  3.883504 -0.047270 0.431381  -0.247524 0.550882 -0.402952
12  1.719574 -0.000026 0.000016  0.037135 -0.100044 -1.334548
13  1.209178 0.000091 0.000011  -0.008755 -0.005102 -0.561727
14  4.085225 -0.082716 1.151040  0.033614 0.611304 -0.075125
15  1.719449 -0.000012 0.000022  0.001103 -0.029631 -0.766789
16  1.099675 0.000053 0.000006  -0.071025 0.044021 -1.321117
17  1.059850 -1.545955 0.873883  -0.919590 -0.590284 -0.357361
18  1.789820 -0.000004 -0.000018  -0.000001 -0.009377 0.757284
19  1.207015 -0.000012 -0.000044  0.001023 -0.000036 -0.104165
20  5.740636 0.000410 -0.000703  -0.102269 0.000003 0.000071
21  11.481123 0.000332 -0.000749  -0.050411 -0.099248 -0.000877
22  6.027525 -0.000330 0.000203  1.643360 -0.554700 1.518325
23  0.000002 11.692100 -0.000007  -0.904285 -0.365292 -0.726713
24  0.000003 0.000008 -0.000000  -0.283187 -0.000031 1.570738
25  -0.000001 -0.000011 -0.000000  0.868957 0.000002 1.570712
26  -4.011518 -5.954122 0.376267  1.473120 1.855075 -0.198639
27  6.027503 -0.000262 -0.000228  1.485229 0.628252 -0.224889
28  11.691989 0.000242 0.000855  0.667115 0.000074 -1.864254
29  11.479117 -0.000431 0.001390  -1.100610 0.409248 0.404570
30  3.452863 -0.227596 1.051755  0.533352 -0.149658 -1.651757
31  1.312559 0.000028 -0.000001  -0.001011 0.013749 -0.916589
32  0.729345 0.000066 -0.000026  -0.019742 -0.002873 -0.520299
33  3.942047 0.050108 0.430997  0.518335 -0.132557 -1.624414
34  1.539094 0.000009 -0.000001  -0.006678 -0.030360 -0.846057
35  1.196299 0.000075 -0.000004  0.001767 -0.002530 -0.866091
36  3.883412 -0.050504 -0.431088  0.268299 -0.273603 -1.261072
37  1.719563 -0.000081 -0.000004  -0.029198 0.025493 -1.449554
38  1.209193 0.000036 0.000012  -0.002172 -0.002925 -0.376412
39  3.245584 -0.145572 -1.308860  0.032033 0.000274 0.123459
40  1.719409 -0.000101 -0.000037  -0.098527 0.110450 -1.402806
41  1.099672 0.000024 0.000007  0.006227 -0.001252 -0.894404
42  0.594009 -0.285203 -1.857801  1.075925 0.014236 -0.875502
43  1.789779 -0.000011 -0.000043  0.020386 0.054042 -0.056213
44  1.206997 -0.000007 0.000003  0.112046 0.059847 1.317350
45  5.740572 0.000056 0.000724  0.099883 -0.000014 0.000021
46  11.480768 -0.000051 0.001027  0.076675 0.076279 0.048099
47  6.027514 -0.000272 -0.000236  -0.799892 -0.610506 -1.262630
48  -0.000003 11.691972 -0.000007  -1.243601 0.688865 0.928201
49  0.000002 -0.000001 0.000001  2.939640 -0.000041 1.570856
50  -0.000007 -0.000016 0.000004  2.272644 -0.000030 1.570865
51  -4.870616 -7.117123 -6.579673  3.123634 -0.109551 -1.230854
52  0.000000 0.000000 0.000000  0.008153 -0.000259 0.000009
53  -0.000000 -0.000000 0.000000  1.565115 0.043565 -0.106862
54  -0.875751 -15.969684 -5.076584  -1.048438 -0.125221 -1.929999
55  -0.000001 -0.000000 0.000000  0.000000 -0.000000 -0.000002
56  0.000029 0.000029 0.000001  -1.571901 -0.044449 -0.106509
57  5.661260 -16.060535 -17.872917  1.570796 -0.000000 0.000000
58  -21.599098 7.001666 -12.508070  1.570796 -0.000000 0.000000
59  1.066008 0.876422 -3.770892  1.570796 -0.000000 0.000000
60  -0.004311 0.001230 -0.000371  0.006898 -0.005534 -0.284229
61  0.376268 6.572924 -2.887995  1.570796 -0.000000 0.000000
62  0.000000 0.000000 0.000000  -0.078727 -3.136056 0.284226
63  -2.635804 -5.404278 -0.394992  1.570796 -0.000000 0.000000
64  -2.635804 -8.935471 -1.763066  1.570796 -0.000000 0.000000
65  0.000000 -2.755923 2.037235  0.000000 -0.000000 0.000000
66  -0.000306 -1.332276 -1.998147  0.000000 -0.000000 0.000000
67  -0.001517 -1.253476 20.838209  0.000000 -0.000000 0.000000
68  0.585406 -2.133196 -6.588482  0.000000 -0.000000 0.000000
69  0.000000 0.419707 7.832310  0.000000 -0.000000 0.000000
70  -2.633249 -2.531335 -4.726527  1.570796 -0.000000 0.000000
71  -0.113746 1.326355 2.565981  0.000000 -0.000000 0.000000
72  0.120338 1.215165 2.565981  0.000000 -0.000000 0.000000
73  -0.096187 1.080565 2.565981  0.000000 -0.000000 0.000000
end
