version 1
nodes
0 "ValveBiped.Bip01_Spine4" -1
1 "ValveBiped.Bip01_L_Clavicle" 0
2 "ValveBiped.Bip01_L_UpperArm" 1
3 "ValveBiped.Bip01_L_Forearm" 2
4 "ValveBiped.Bip01_L_Hand" 3
5 "ValveBiped.Bip01_L_Finger4" 4
6 "ValveBiped.Bip01_L_Finger41" 5
7 "ValveBiped.Bip01_L_Finger42" 6
8 "ValveBiped.Bip01_L_Finger3" 4
9 "ValveBiped.Bip01_L_Finger31" 8
10 "ValveBiped.Bip01_L_Finger32" 9
11 "ValveBiped.Bip01_L_Finger2" 4
12 "ValveBiped.Bip01_L_Finger21" 11
13 "ValveBiped.Bip01_L_Finger22" 12
14 "ValveBiped.Bip01_L_Finger1" 4
15 "ValveBiped.Bip01_L_Finger11" 14
16 "ValveBiped.Bip01_L_Finger12" 15
17 "ValveBiped.Bip01_L_Finger0" 4
18 "ValveBiped.Bip01_L_Finger01" 17
19 "ValveBiped.Bip01_L_Finger02" 18
20 "ValveBiped.Bip01_L_Ulna" 3
21 "ValveBiped.Bip01_L_Wrist" 3
22 "rig_l_upperarm" 1
23 "rig_l_forearm" 22
24 "rig_d_l_forearm" 23
25 "rig_d_l_upperarm" 22
26 "ValveBiped.Bip01_R_Clavicle" 0
27 "ValveBiped.Bip01_R_UpperArm" 26
28 "ValveBiped.Bip01_R_Forearm" 27
29 "ValveBiped.Bip01_R_Hand" 28
30 "ValveBiped.Bip01_R_Finger4" 29
31 "ValveBiped.Bip01_R_Finger41" 30
32 "ValveBiped.Bip01_R_Finger42" 31
33 "ValveBiped.Bip01_R_Finger3" 29
34 "ValveBiped.Bip01_R_Finger31" 33
35 "ValveBiped.Bip01_R_Finger32" 34
36 "ValveBiped.Bip01_R_Finger2" 29
37 "ValveBiped.Bip01_R_Finger21" 36
38 "ValveBiped.Bip01_R_Finger22" 37
39 "ValveBiped.Bip01_R_Finger1" 29
40 "ValveBiped.Bip01_R_Finger11" 39
41 "ValveBiped.Bip01_R_Finger12" 40
42 "ValveBiped.Bip01_R_Finger0" 29
43 "ValveBiped.Bip01_R_Finger01" 42
44 "ValveBiped.Bip01_R_Finger02" 43
45 "ValveBiped.Bip01_R_Ulna" 28
46 "ValveBiped.Bip01_R_Wrist" 28
47 "rig_r_upperarm" 26
48 "rig_r_forearm" 47
49 "rig_d_r_forearm" 48
50 "rig_d_r_upperarm" 47
51 "rig_r_hand" -1
52 "rig_d_r_hand" 51
53 "rig_d_r_wrist" 52
54 "rig_l_hand" -1
55 "rig_d_l_hand" 54
56 "rig_d_l_wrist" 54
57 "rig_l_pole" -1
58 "rig_r_pole" -1
59 "rig_l_clavicle" -1
60 "rig_d_l_clavicle" 59
61 "rig_r_clavicle" -1
62 "rig_d_r_clavicle" 61
63 "Camera" -1
64 "body" -1
65 "trigger" 64
66 "bolt" 64
67 "barrel" 64
68 "magrel" 64
69 "chandle" 64
70 "mag" -1
71 "bullet1" 70
72 "bullet2" 70
73 "bullet3" 70
end
skeleton
time 0
0  0.000006 0.000000 0.000000  -1.570800 -1.391899 -1.570792
1  -3.865520 -0.192010 1.061693  -1.544956 -1.855077 -0.198630
2  6.027524 -0.000324 0.000193  -0.818334 -1.011947 -1.486105
3  11.692110 0.000644 -0.000739  -1.152276 -0.000012 -1.291638
4  11.480578 0.000599 -0.000454  1.236239 -0.579251 0.150149
5  3.859509 -0.142880 -1.192050  -0.574847 -0.304757 -1.777058
6  1.312590 0.000014 0.000009  -0.135527 0.003032 -0.200649
7  0.729355 0.000053 0.000049  -0.007831 -0.008960 -0.022519
8  3.942144 0.046273 -0.431513  -0.457086 0.163431 -1.133683
9  1.539111 0.000085 0.000005  -0.017952 -0.090240 -0.838237
10  1.196332 0.000145 0.000029  0.007751 0.004719 -0.800508
11  3.883504 -0.047270 0.431381  -0.247524 0.550882 -0.402952
12  1.719574 -0.000026 0.000016  0.037135 -0.100044 -1.334548
13  1.209179 0.000091 0.000013  -0.008755 -0.005102 -0.561727
14  4.085225 -0.082716 1.151040  0.033614 0.611304 -0.075125
15  1.719449 -0.000011 0.000023  0.001103 -0.029631 -0.766789
16  1.099675 0.000049 0.000006  -0.071025 0.044021 -1.321117
17  1.059850 -1.545955 0.873883  -0.919590 -0.590284 -0.357360
18  1.789821 -0.000001 -0.000018  -0.000001 -0.009377 0.757284
19  1.207015 -0.000012 -0.000044  0.001023 -0.000036 -0.104165
20  5.740636 0.000410 -0.000703  -0.102269 0.000003 0.000071
21  11.481123 0.000332 -0.000749  -0.050411 -0.099248 -0.000877
22  6.027525 -0.000330 0.000203  1.643360 -0.554700 1.518325
23  0.000002 11.692100 -0.000007  -0.904285 -0.365292 -0.726713
24  0.000003 0.000008 -0.000000  -0.283187 -0.000031 1.570738
25  -0.000001 -0.000011 -0.000000  0.868957 0.000002 1.570712
26  -4.011518 -5.954122 0.376267  1.473120 1.855075 -0.198639
27  6.027503 -0.000262 -0.000228  1.485229 0.628252 -0.224889
28  11.691989 0.000242 0.000855  0.667115 0.000074 -1.864254
29  11.479117 -0.000431 0.001390  -1.100610 0.409248 0.404570
30  3.452863 -0.227596 1.051755  0.533352 -0.149658 -1.651757
31  1.312558 0.000026 -0.000001  -0.001011 0.013749 -0.916589
32  0.729346 0.000067 -0.000027  -0.019742 -0.002873 -0.520299
33  3.942047 0.050108 0.430997  0.518335 -0.132557 -1.624414
34  1.539094 0.000009 -0.000001  -0.006678 -0.030360 -0.846057
35  1.196299 0.000075 -0.000003  0.001767 -0.002530 -0.866091
36  3.883412 -0.050504 -0.431088  0.268299 -0.273603 -1.261072
37  1.719563 -0.000079 -0.000004  -0.029198 0.025493 -1.449554
38  1.209195 0.000036 0.000012  -0.002172 -0.002925 -0.376412
39  3.245584 -0.145572 -1.308860  0.032033 0.000274 0.123459
40  1.719409 -0.000101 -0.000037  -0.098527 0.110450 -1.402806
41  1.099672 0.000025 0.000007  0.006227 -0.001252 -0.894404
42  0.594009 -0.285203 -1.857801  1.075925 0.014236 -0.875502
43  1.789779 -0.000010 -0.000043  0.020386 0.054042 -0.056213
44  1.206997 -0.000007 0.000003  0.112046 0.059847 1.317350
45  5.740572 0.000056 0.000724  0.099883 -0.000014 0.000021
46  11.480768 -0.000051 0.001027  0.076675 0.076279 0.048099
47  6.027514 -0.000272 -0.000236  -0.799892 -0.610506 -1.262630
48  -0.000003 11.691972 -0.000007  -1.243601 0.688865 0.928201
49  0.000002 -0.000001 0.000001  2.939640 -0.000041 1.570856
50  -0.000007 -0.000016 0.000004  2.272644 -0.000030 1.570865
51  -4.870616 -7.117123 -6.579673  3.123634 -0.109551 -1.230854
52  0.000000 0.000000 0.000000  0.008153 -0.000259 0.000009
53  -0.000000 -0.000000 0.000000  1.565115 0.043565 -0.106862
54  -0.875751 -15.969684 -5.076584  -1.048438 -0.125221 -1.929999
55  -0.000001 -0.000000 0.000000  0.000000 -0.000000 -0.000002
56  0.000029 0.000029 0.000001  -1.571901 -0.044449 -0.106509
57  5.661260 -16.060535 -17.872917  1.570796 -0.000000 0.000000
58  -21.599098 7.001666 -12.508070  1.570796 -0.000000 0.000000
59  1.066008 0.876422 -3.770892  1.570796 -0.000000 0.000000
60  -0.004311 0.001230 -0.000371  0.006898 -0.005534 -0.284229
61  0.376268 6.572924 -2.887995  1.570796 -0.000000 0.000000
62  0.000000 0.000000 0.000000  -0.078727 -3.136056 0.284226
63  -2.635804 -5.404278 -0.394992  1.570796 -0.000000 0.000000
64  -2.635804 -8.935471 -1.763066  1.570796 -0.000000 0.000000
65  0.000000 -2.755923 2.037235  0.000000 -0.000000 0.000000
66  -0.000306 -1.332276 -5.672091  0.000000 -0.000000 0.000000
67  -0.001517 -1.253476 20.838209  0.000000 -0.000000 0.000000
68  0.585406 -2.133196 -6.588482  0.000000 -0.000000 0.000000
69  0.000000 0.419707 7.832310  0.000000 -0.000000 0.000000
70  -2.633249 -2.531335 -4.726527  1.570796 -0.000000 0.000000
71  -0.113746 1.326355 2.565981  0.000000 -0.000000 0.000000
72  0.120338 1.215165 2.565981  0.000000 -0.000000 0.000000
73  -0.096187 1.080565 2.565981  0.000000 -0.000000 0.000000
end
