version 1
nodes
0 "ValveBiped.Bip01_Spine4" -1
1 "ValveBiped.Bip01_L_Clavicle" 0
2 "ValveBiped.Bip01_L_UpperArm" 1
3 "ValveBiped.Bip01_L_Forearm" 2
4 "ValveBiped.Bip01_L_Hand" 3
5 "ValveBiped.Bip01_L_Finger4" 4
6 "ValveBiped.Bip01_L_Finger41" 5
7 "ValveBiped.Bip01_L_Finger42" 6
8 "ValveBiped.Bip01_L_Finger3" 4
9 "ValveBiped.Bip01_L_Finger31" 8
10 "ValveBiped.Bip01_L_Finger32" 9
11 "ValveBiped.Bip01_L_Finger2" 4
12 "ValveBiped.Bip01_L_Finger21" 11
13 "ValveBiped.Bip01_L_Finger22" 12
14 "ValveBiped.Bip01_L_Finger1" 4
15 "ValveBiped.Bip01_L_Finger11" 14
16 "ValveBiped.Bip01_L_Finger12" 15
17 "ValveBiped.Bip01_L_Finger0" 4
18 "ValveBiped.Bip01_L_Finger01" 17
19 "ValveBiped.Bip01_L_Finger02" 18
20 "ValveBiped.Bip01_L_Ulna" 3
21 "ValveBiped.Bip01_L_Wrist" 3
22 "rig_l_upperarm" 1
23 "rig_l_forearm" 22
24 "rig_d_l_forearm" 23
25 "rig_d_l_upperarm" 22
26 "ValveBiped.Bip01_R_Clavicle" 0
27 "ValveBiped.Bip01_R_UpperArm" 26
28 "ValveBiped.Bip01_R_Forearm" 27
29 "ValveBiped.Bip01_R_Hand" 28
30 "ValveBiped.Bip01_R_Finger4" 29
31 "ValveBiped.Bip01_R_Finger41" 30
32 "ValveBiped.Bip01_R_Finger42" 31
33 "ValveBiped.Bip01_R_Finger3" 29
34 "ValveBiped.Bip01_R_Finger31" 33
35 "ValveBiped.Bip01_R_Finger32" 34
36 "ValveBiped.Bip01_R_Finger2" 29
37 "ValveBiped.Bip01_R_Finger21" 36
38 "ValveBiped.Bip01_R_Finger22" 37
39 "ValveBiped.Bip01_R_Finger1" 29
40 "ValveBiped.Bip01_R_Finger11" 39
41 "ValveBiped.Bip01_R_Finger12" 40
42 "ValveBiped.Bip01_R_Finger0" 29
43 "ValveBiped.Bip01_R_Finger01" 42
44 "ValveBiped.Bip01_R_Finger02" 43
45 "ValveBiped.Bip01_R_Ulna" 28
46 "ValveBiped.Bip01_R_Wrist" 28
47 "rig_r_upperarm" 26
48 "rig_r_forearm" 47
49 "rig_d_r_forearm" 48
50 "rig_d_r_upperarm" 47
51 "rig_r_hand" -1
52 "rig_d_r_hand" 51
53 "rig_d_r_wrist" 52
54 "rig_l_hand" -1
55 "rig_d_l_hand" 54
56 "rig_d_l_wrist" 54
57 "rig_l_pole" -1
58 "rig_r_pole" -1
59 "rig_l_clavicle" -1
60 "rig_d_l_clavicle" 59
61 "rig_r_clavicle" -1
62 "rig_d_r_clavicle" 61
63 "Camera" -1
64 "body" -1
65 "trigger" 64
66 "bolt" 64
67 "chandle" 66
68 "barrel" 64
69 "magrel" 64
70 "bullet1" 64
71 "boltrelease" 64
72 "mag" -1
73 "fakerounds" 72
74 "fakemag" -1
75 "bullet2" 74
76 "bullet3" 74
end
skeleton
time 0
0  0.000006 0.000000 0.000000  -1.570800 -1.391899 -1.570792
1  -4.921969 1.082092 2.232071  -1.544956 -1.855077 -0.198630
2  6.027524 -0.000323 0.000190  -0.747182 -0.995446 -1.552695
3  11.692107 0.000645 -0.000740  -0.890211 -0.000018 -1.391952
4  11.479911 0.000229 -0.000885  1.225960 -0.603154 0.357879
5  3.859502 -0.142824 -1.192079  -0.573871 -0.316762 -1.795817
6  1.312591 0.000009 0.000007  -0.135121 -0.003384 -0.178728
7  0.729354 0.000055 0.000049  -0.006155 -0.010667 -0.248915
8  3.942140 0.046330 -0.431542  -0.497018 0.100803 -1.231861
9  1.539110 0.000083 0.000004  -0.000382 -0.119364 -0.902013
10  1.196330 0.000145 0.000028  0.012615 0.002795 -0.535714
11  3.883509 -0.047213 0.431351  -0.283712 0.421834 -0.633459
12  1.719573 -0.000029 0.000017  0.057360 -0.144594 -1.427911
13  1.209179 0.000089 0.000011  -0.003667 -0.003000 -0.405259
14  4.085234 -0.082653 1.151009  0.076971 0.573771 0.038997
15  1.719450 -0.000017 0.000029  0.015664 -0.064932 -0.867211
16  1.099675 0.000049 0.000006  -0.075642 0.030056 -1.536734
17  0.869860 -1.165528 1.469023  -1.184630 -0.527540 -0.152316
18  1.789820 -0.000003 -0.000018  0.000001 -0.000026 0.636398
19  1.207013 -0.000013 -0.000044  0.000006 -0.000006 -0.137935
20  5.740637 0.000389 -0.000702  -0.108229 0.000003 0.000064
21  11.480989 0.000223 -0.000831  -0.042733 -0.108608 0.037758
22  6.027524 -0.000330 0.000200  1.600190 -0.574767 1.534864
23  -0.000001 11.692100 -0.000007  -0.965049 -0.417379 -0.768316
24  0.000003 0.000008 0.000001  -0.021116 -0.000031 1.570738
25  -0.000000 -0.000012 0.000001  0.868960 0.000002 1.570712
26  -6.617934 -9.178503 0.826812  1.473120 1.855075 -0.198639
27  6.027513 -0.000259 -0.000221  1.520730 0.754736 -0.708481
28  11.691992 0.000161 0.000857  0.141449 0.000072 -1.836665
29  11.479355 -0.000861 0.000954  -1.142790 0.380466 0.885558
30  3.859437 -0.132758 1.193066  0.469647 -0.013262 -1.872395
31  1.312559 0.000026 -0.000001  0.024060 -0.138696 -0.550187
32  0.729344 0.000065 -0.000026  -0.166197 -0.081570 -0.714272
33  3.942046 0.050139 0.431001  0.225309 -0.086237 -1.592712
34  1.539096 0.000005 -0.000001  0.035254 -0.050373 -0.994350
35  1.196300 0.000078 -0.000003  -0.021521 0.002175 -0.839738
36  3.883414 -0.050472 -0.431084  0.184824 -0.271737 -1.204030
37  1.719563 -0.000085 -0.000005  0.022859 -0.107186 -1.509108
38  1.209198 0.000035 0.000012  0.000661 0.071072 -0.480462
39  3.859589 -0.149083 -1.331320  -0.033200 -0.110369 -0.362359
40  1.719415 -0.000099 -0.000036  -0.012459 -0.012118 -1.275551
41  1.099674 0.000022 0.000008  -0.003769 -0.008243 -0.832963
42  0.805984 -0.359848 -1.318338  0.991670 0.166767 -0.799527
43  1.789780 -0.000008 -0.000043  0.000058 -0.002451 0.133098
44  1.206996 -0.000007 0.000005  0.000372 -0.000071 1.058780
45  5.740571 0.000079 0.000721  0.172460 -0.000014 0.000028
46  11.480814 -0.000098 0.000936  0.056555 0.082971 0.145456
47  6.027515 -0.000273 -0.000230  -0.910498 -0.520836 -1.709520
48  -0.000000 11.691973 -0.000005  -1.227263 0.672038 0.920661
49  0.000002 -0.000002 0.000001  2.413977 -0.000036 1.570860
50  -0.000006 -0.000014 0.000005  2.272645 -0.000036 1.570861
51  -3.422328 -3.805365 -6.854754  -0.078012 -2.996716 1.465737
52  0.000000 -0.000000 0.000000  0.008153 -0.000259 0.000009
53  0.000000 -0.000000 0.000001  1.565115 0.043565 -0.106862
54  -0.363791 -15.867239 -5.623037  -0.755929 -0.139050 -1.950540
55  -0.000001 -0.000000 0.000000  0.000000 -0.000001 -0.000002
56  0.000029 0.000028 0.000002  -1.571901 -0.044449 -0.106509
57  5.185302 -16.056248 -16.646038  1.570796 -0.000000 0.000000
58  -15.417985 4.000748 -22.641926  1.570796 -0.000000 0.000000
59  2.236387 -0.189356 -5.037201  1.570796 -0.000000 0.000000
60  -0.004311 0.001230 -0.000371  0.006898 -0.005534 -0.284229
61  0.826810 10.209643 -4.879054  1.570796 -0.000000 0.000000
62  0.000000 0.000000 0.000000  -0.078727 -3.136056 0.284226
63  -2.240596 -3.247336 -0.249455  1.570796 -0.000000 0.000000
64  -2.287624 -8.249615 -1.349235  1.570796 0.000000 0.000000
65  0.002681 -3.204031 0.621196  0.398200 -0.000000 0.000000
66  0.048105 -1.112260 5.803837  0.000000 -0.000000 0.000000
67  -1.184782 0.539746 -0.284904  0.000000 -0.000000 0.000000
68  0.047884 -1.610073 21.020466  0.000000 -0.000000 0.000000
69  0.047881 -3.319714 2.472855  0.000000 -0.000000 0.000000
70  0.172180 -2.040368 3.568007  0.000000 -0.000000 0.000000
71  0.654947 -2.537531 2.477230  0.000000 -0.000000 0.000000
72  -3.588360 -1.097282 -23.660017  1.570796 -0.000000 0.000000
73  0.017809 1.799356 -0.402361  0.000000 -0.000000 0.000000
74  -2.285144 -12.956001 -5.446409  1.570796 0.000000 0.000000
75  0.031323 2.100358 -1.138380  0.000000 -0.000000 0.000000
76  -0.024051 1.849582 -1.138377  0.000000 -0.000000 0.000000
time 1
0  0.000006 0.000000 0.000000  -1.570800 -1.391899 -1.570792
1  -4.921969 1.082092 2.232071  -1.544956 -1.855077 -0.198630
2  6.027524 -0.000323 0.000191  -0.749184 -0.989431 -1.540709
3  11.692107 0.000645 -0.000739  -0.890212 -0.000020 -1.426654
4  11.479716 0.000163 -0.000963  1.223093 -0.620729 0.370890
5  3.859501 -0.142822 -1.192079  -0.573871 -0.316762 -1.795816
6  1.312589 0.000012 0.000007  -0.135121 -0.003384 -0.178728
7  0.729355 0.000053 0.000050  -0.006156 -0.010667 -0.248915
8  3.942138 0.046332 -0.431543  -0.497018 0.100803 -1.231861
9  1.539110 0.000082 0.000003  -0.000382 -0.119364 -0.902014
10  1.196334 0.000145 0.000028  0.012615 0.002795 -0.535714
11  3.883508 -0.047211 0.431351  -0.283712 0.421834 -0.633459
12  1.719572 -0.000030 0.000018  0.057360 -0.144594 -1.427911
13  1.209178 0.000089 0.000013  -0.003667 -0.003000 -0.405259
14  4.085235 -0.082651 1.151009  0.076971 0.573771 0.038997
15  1.719448 -0.000018 0.000028  0.015664 -0.064932 -0.867211
16  1.099675 0.000051 0.000005  -0.075642 0.030056 -1.536734
17  0.869860 -1.165526 1.469023  -1.184630 -0.527539 -0.152316
18  1.789820 -0.000004 -0.000018  0.000001 -0.000026 0.636397
19  1.207015 -0.000013 -0.000043  0.000006 -0.000006 -0.137935
20  5.740637 0.000388 -0.000700  -0.112810 0.000003 0.000063
21  11.480950 0.000210 -0.000846  -0.041840 -0.112358 0.039416
22  6.027524 -0.000330 0.000200  1.601891 -0.580712 1.544244
23  -0.000000 11.692100 -0.000007  -0.985841 -0.435927 -0.782115
24  0.000003 0.000009 -0.000001  -0.021116 -0.000031 1.570739
25  -0.000001 -0.000011 0.000000  0.868960 0.000002 1.570712
26  -6.617934 -9.178503 0.826812  1.473120 1.855075 -0.198639
27  6.027513 -0.000259 -0.000221  1.513805 0.739926 -0.710509
28  11.691991 0.000160 0.000856  0.141449 0.000075 -1.868232
29  11.479080 -0.001013 0.000977  -1.135904 0.394126 0.897814
30  3.859438 -0.132758 1.193065  0.469647 -0.013262 -1.872395
31  1.312559 0.000026 -0.000000  0.024060 -0.138696 -0.550187
32  0.729346 0.000065 -0.000027  -0.166197 -0.081570 -0.714272
33  3.942047 0.050139 0.431000  0.225309 -0.086237 -1.592712
34  1.539097 0.000006 -0.000001  0.035254 -0.050373 -0.994350
35  1.196300 0.000078 -0.000003  -0.021521 0.002175 -0.839738
36  3.883413 -0.050472 -0.431084  0.184824 -0.271737 -1.204030
37  1.719564 -0.000084 -0.000004  0.022859 -0.107186 -1.509108
38  1.209197 0.000035 0.000011  0.000661 0.071072 -0.480462
39  3.859590 -0.149084 -1.331321  -0.033200 -0.110369 -0.362359
40  1.719416 -0.000098 -0.000036  -0.012459 -0.012118 -1.275551
41  1.099674 0.000021 0.000008  -0.003769 -0.008243 -0.832963
42  0.805984 -0.359848 -1.318339  0.991670 0.166767 -0.799527
43  1.789780 -0.000008 -0.000042  0.000058 -0.002451 0.133098
44  1.206997 -0.000006 0.000005  0.000372 -0.000071 1.058781
45  5.740573 0.000081 0.000722  0.177224 -0.000014 0.000028
46  11.480760 -0.000128 0.000940  0.056226 0.086301 0.146852
47  6.027515 -0.000273 -0.000230  -0.899234 -0.533097 -1.712506
48  -0.000000 11.691976 -0.000006  -1.245947 0.691290 0.929269
49  0.000002 0.000000 -0.000000  2.413977 -0.000036 1.570860
50  -0.000007 -0.000013 0.000005  2.272645 -0.000036 1.570861
51  -3.384164 -3.505871 -6.886734  -0.072092 -2.989580 1.462356
52  -0.000000 0.000000 0.000001  0.008153 -0.000259 0.000009
53  0.000000 -0.000000 -0.000000  1.565115 0.043565 -0.106862
54  -0.362348 -15.565434 -5.546525  -0.748281 -0.144330 -1.954126
55  -0.000001 -0.000000 -0.000000  0.000000 -0.000001 -0.000002
56  0.000029 0.000029 0.000001  -1.571901 -0.044449 -0.106509
57  5.185302 -16.056248 -16.646038  1.570796 -0.000000 0.000000
58  -15.417985 4.000748 -22.641926  1.570796 -0.000000 0.000000
59  2.236387 -0.189356 -5.037201  1.570796 -0.000000 0.000000
60  -0.004311 0.001230 -0.000371  0.006898 -0.005534 -0.284229
61  0.826810 10.209643 -4.879054  1.570796 -0.000000 0.000000
62  0.000000 0.000000 0.000000  -0.078727 -3.136056 0.284226
63  -2.240596 -3.247336 -0.249455  1.570796 -0.000000 0.000000
64  -2.288508 -7.910259 -1.341416  1.563083 -0.005071 -0.002485
65  0.002681 -3.204031 0.621197  0.398200 -0.000000 0.000000
66  0.048105 -1.112259 2.845372  0.000000 -0.000000 0.000000
67  -1.184782 0.539746 -0.284904  0.000000 -0.000000 -0.042177
68  0.047884 -1.610072 21.020468  0.000000 -0.000000 0.000000
69  0.047881 -3.319713 2.472854  0.000000 -0.000000 0.000000
70  0.172180 -2.040368 3.568007  0.000000 -0.000000 0.000000
71  0.654947 -2.537530 2.477231  0.000000 -0.000000 0.000000
72  -3.588360 -1.097282 -23.660017  1.570796 -0.000000 0.000000
73  0.017809 1.799356 -0.402361  0.000000 -0.000000 0.000000
74  -2.277213 -12.648150 -5.402102  1.563083 -0.005071 -0.002485
75  0.031323 2.100358 -1.138381  0.000000 -0.000000 0.000000
76  -0.024051 1.849583 -1.138378  0.000000 -0.000000 0.000000
time 2
0  0.000006 0.000000 0.000000  -1.570800 -1.391899 -1.570792
1  -4.921969 1.082092 2.232071  -1.544956 -1.855077 -0.198630
2  6.027524 -0.000323 0.000191  -0.753326 -0.988202 -1.538376
3  11.692105 0.000644 -0.000739  -0.890212 -0.000020 -1.424494
4  11.479728 0.000167 -0.000959  1.223825 -0.620245 0.376295
5  3.859504 -0.142823 -1.192079  -0.573871 -0.316762 -1.795816
6  1.312590 0.000010 0.000007  -0.135121 -0.003384 -0.178728
7  0.729356 0.000054 0.000050  -0.006155 -0.010667 -0.248915
8  3.942142 0.046331 -0.431543  -0.497018 0.100802 -1.231861
9  1.539110 0.000083 0.000004  -0.000382 -0.119364 -0.902013
10  1.196332 0.000147 0.000030  0.012615 0.002795 -0.535714
11  3.883513 -0.047211 0.431352  -0.283712 0.421834 -0.633459
12  1.719570 -0.000030 0.000017  0.057360 -0.144594 -1.427911
13  1.209179 0.000090 0.000013  -0.003667 -0.003000 -0.405259
14  4.085236 -0.082653 1.151009  0.076971 0.573771 0.038997
15  1.719449 -0.000018 0.000029  0.015664 -0.064932 -0.867211
16  1.099675 0.000049 0.000006  -0.075642 0.030056 -1.536734
17  0.869864 -1.165527 1.469024  -1.184630 -0.527540 -0.152316
18  1.789819 -0.000004 -0.000018  0.000001 -0.000027 0.636398
19  1.207013 -0.000014 -0.000043  0.000006 -0.000006 -0.137935
20  5.740636 0.000388 -0.000700  -0.111493 0.000003 0.000063
21  11.480953 0.000211 -0.000844  -0.041488 -0.112353 0.040519
22  6.027524 -0.000330 0.000200  1.604698 -0.581805 1.541577
23  -0.000000 11.692097 -0.000007  -0.984549 -0.434765 -0.781265
24  0.000003 0.000008 -0.000000  -0.021116 -0.000030 1.570739
25  -0.000000 -0.000011 0.000000  0.868960 0.000002 1.570712
26  -6.617934 -9.178503 0.826812  1.473120 1.855075 -0.198639
27  6.027513 -0.000259 -0.000221  1.513301 0.743577 -0.710918
28  11.691991 0.000161 0.000856  0.141449 0.000075 -1.864455
29  11.479111 -0.000997 0.000975  -1.129199 0.390968 0.903174
30  3.859437 -0.132758 1.193064  0.469647 -0.013262 -1.872395
31  1.312559 0.000025 -0.000001  0.024060 -0.138696 -0.550187
32  0.729345 0.000065 -0.000027  -0.166197 -0.081570 -0.714272
33  3.942047 0.050139 0.431000  0.225309 -0.086237 -1.592712
34  1.539097 0.000006 -0.000002  0.035254 -0.050373 -0.994350
35  1.196300 0.000078 -0.000003  -0.021521 0.002175 -0.839738
36  3.883414 -0.050473 -0.431085  0.184824 -0.271737 -1.204030
37  1.719564 -0.000084 -0.000005  0.022859 -0.107186 -1.509108
38  1.209198 0.000035 0.000011  0.000661 0.071072 -0.480462
39  3.859590 -0.149083 -1.331321  -0.033200 -0.110369 -0.362359
40  1.719415 -0.000099 -0.000036  -0.012459 -0.012118 -1.275551
41  1.099673 0.000021 0.000008  -0.003769 -0.008243 -0.832963
42  0.805984 -0.359848 -1.318339  0.991670 0.166767 -0.799527
43  1.789780 -0.000008 -0.000042  0.000058 -0.002451 0.133097
44  1.206996 -0.000007 0.000006  0.000372 -0.000071 1.058780
45  5.740572 0.000079 0.000721  0.178817 -0.000014 0.000028
46  11.480765 -0.000126 0.000940  0.057558 0.086368 0.147709
47  6.027515 -0.000273 -0.000230  -0.903034 -0.531441 -1.710646
48  -0.000000 11.691973 -0.000005  -1.243707 0.688980 0.928256
49  0.000003 0.000000 0.000001  2.413977 -0.000036 1.570860
50  -0.000006 -0.000014 0.000005  2.272645 -0.000036 1.570861
51  -3.363140 -3.539281 -6.868745  -0.067609 -2.995651 1.462904
52  0.000000 -0.000000 0.000000  0.008153 -0.000259 0.000009
53  -0.000000 -0.000000 -0.000000  1.565115 0.043565 -0.106862
54  -0.333342 -15.602475 -5.580238  -0.745634 -0.137284 -1.953283
55  -0.000001 0.000001 -0.000000  0.000000 -0.000001 -0.000002
56  0.000030 0.000030 0.000001  -1.571902 -0.044449 -0.106509
57  5.185302 -16.056248 -16.646038  1.570796 -0.000000 0.000000
58  -15.417985 4.000748 -22.641926  1.570796 -0.000000 0.000000
59  2.236387 -0.189356 -5.037201  1.570796 -0.000000 0.000000
60  -0.004311 0.001230 -0.000371  0.006898 -0.005534 -0.284229
61  0.826810 10.209643 -4.879054  1.570796 -0.000000 0.000000
62  0.000000 0.000000 0.000000  -0.078727 -3.136056 0.284226
63  -2.240596 -3.247336 -0.249455  1.570796 -0.000000 0.000000
64  -2.290150 -7.973116 -1.342493  1.568649 -0.010123 -0.001314
65  0.002681 -3.204031 0.621197  0.398200 0.000000 -0.000000
66  0.048105 -1.112260 4.324604  -0.000000 0.000000 -0.000000
67  -1.184782 0.539746 -0.284905  0.000000 0.000000 0.029470
68  0.047884 -1.610073 21.020466  -0.000000 0.000000 -0.000000
69  0.047881 -3.319714 2.472854  -0.000000 0.000000 -0.000000
70  0.172180 -1.795277 5.113952  -0.050312 0.042407 -0.003837
71  0.654947 -2.537530 2.477230  -0.000000 0.000000 -0.000000
72  -3.588360 -1.097282 -23.660017  1.570796 -0.000000 0.000000
73  0.017809 1.799356 -0.402361  0.000000 -0.000000 0.000000
74  -2.252493 -12.688341 -5.429319  1.568649 -0.010123 -0.001314
75  0.031323 2.100358 -1.138379  -0.000000 0.000000 -0.000000
76  -0.024051 1.849583 -1.138376  -0.000000 0.000000 -0.000000
time 3
0  0.000006 0.000000 0.000000  -1.570800 -1.391899 -1.570792
1  -4.921969 1.082092 2.232071  -1.544956 -1.855077 -0.198630
2  6.027524 -0.000323 0.000191  -0.754252 -0.989299 -1.540577
3  11.692108 0.000644 -0.000739  -0.890212 -0.000019 -1.412572
4  11.479790 0.000190 -0.000931  1.223003 -0.615600 0.372829
5  3.859505 -0.142823 -1.192079  -0.573871 -0.316762 -1.795817
6  1.312590 0.000010 0.000006  -0.135121 -0.003384 -0.178728
7  0.729354 0.000054 0.000050  -0.006155 -0.010667 -0.248915
8  3.942140 0.046332 -0.431543  -0.497018 0.100802 -1.231861
9  1.539110 0.000082 0.000004  -0.000382 -0.119364 -0.902014
10  1.196333 0.000145 0.000030  0.012615 0.002795 -0.535714
11  3.883510 -0.047211 0.431350  -0.283712 0.421833 -0.633459
12  1.719572 -0.000029 0.000017  0.057360 -0.144594 -1.427911
13  1.209181 0.000089 0.000013  -0.003667 -0.003000 -0.405259
14  4.085235 -0.082653 1.151009  0.076971 0.573771 0.038997
15  1.719449 -0.000019 0.000028  0.015664 -0.064932 -0.867211
16  1.099675 0.000049 0.000007  -0.075642 0.030056 -1.536734
17  0.869862 -1.165527 1.469023  -1.184630 -0.527539 -0.152316
18  1.789819 -0.000003 -0.000018  0.000001 -0.000027 0.636398
19  1.207012 -0.000013 -0.000043  0.000006 -0.000006 -0.137935
20  5.740635 0.000389 -0.000699  -0.110131 0.000003 0.000063
21  11.480964 0.000216 -0.000838  -0.042022 -0.111410 0.039978
22  6.027524 -0.000330 0.000200  1.605224 -0.580678 1.538313
23  0.000001 11.692099 -0.000006  -0.977416 -0.428369 -0.776553
24  0.000004 0.000008 0.000000  -0.021116 -0.000031 1.570739
25  0.000001 -0.000011 0.000001  0.868960 0.000002 1.570712
26  -6.617934 -9.178503 0.826812  1.473120 1.855075 -0.198639
27  6.027513 -0.000259 -0.000221  1.517096 0.749372 -0.709699
28  11.691991 0.000160 0.000855  0.141449 0.000074 -1.853007
29  11.479214 -0.000941 0.000964  -1.131421 0.382563 0.901042
30  3.859437 -0.132759 1.193066  0.469647 -0.013262 -1.872395
31  1.312559 0.000025 -0.000001  0.024060 -0.138696 -0.550187
32  0.729345 0.000065 -0.000028  -0.166197 -0.081570 -0.714272
33  3.942046 0.050139 0.431001  0.225309 -0.086237 -1.592712
34  1.539097 0.000005 -0.000001  0.035254 -0.050373 -0.994350
35  1.196299 0.000078 -0.000004  -0.021521 0.002175 -0.839738
36  3.883414 -0.050473 -0.431084  0.184824 -0.271737 -1.204030
37  1.719564 -0.000084 -0.000005  0.022858 -0.107186 -1.509108
38  1.209197 0.000035 0.000011  0.000661 0.071072 -0.480462
39  3.859589 -0.149083 -1.331320  -0.033200 -0.110369 -0.362359
40  1.719415 -0.000099 -0.000036  -0.012459 -0.012118 -1.275551
41  1.099674 0.000021 0.000008  -0.003769 -0.008243 -0.832963
42  0.805983 -0.359848 -1.318338  0.991670 0.166767 -0.799527
43  1.789780 -0.000008 -0.000042  0.000058 -0.002451 0.133098
44  1.206996 -0.000007 0.000005  0.000372 -0.000071 1.058780
45  5.740574 0.000079 0.000720  0.177479 -0.000014 0.000028
46  11.480788 -0.000114 0.000937  0.057971 0.084615 0.147813
47  6.027515 -0.000273 -0.000230  -0.906939 -0.525965 -1.710034
48  -0.000002 11.691975 -0.000006  -1.236926 0.681989 0.925158
49  0.000003 0.000000 -0.000000  2.413977 -0.000036 1.570860
50  -0.000008 -0.000013 0.000005  2.272645 -0.000036 1.570861
51  -3.384637 -3.649338 -6.844611  -0.070165 -3.000968 1.465487
52  -0.000000 -0.000000 0.000000  0.008153 -0.000259 0.000009
53  -0.000000 -0.000000 0.000000  1.565115 0.043565 -0.106862
54  -0.325649 -15.712738 -5.629067  -0.749547 -0.132852 -1.950539
55  -0.000000 0.000001 0.000000  0.000000 -0.000001 -0.000002
56  0.000030 0.000029 0.000001  -1.571901 -0.044449 -0.106509
57  5.185302 -16.056248 -16.646038  1.570796 -0.000000 0.000000
58  -15.417985 4.000748 -22.641926  1.570796 -0.000000 0.000000
59  2.236387 -0.189356 -5.037201  1.570796 -0.000000 0.000000
60  -0.004311 0.001230 -0.000371  0.006898 -0.005534 -0.284229
61  0.826810 10.209643 -4.879054  1.570796 -0.000000 0.000000
62  0.000000 0.000000 0.000000  -0.078727 -3.136056 0.284226
63  -2.240596 -3.247336 -0.249455  1.570796 -0.000000 0.000000
64  -2.291035 -8.111401 -1.345186  1.574206 -0.008172 0.000852
65  0.002681 -3.204031 0.621195  0.398200 -0.000000 -0.000000
66  0.048105 -1.112260 5.803836  -0.000000 -0.000000 -0.000000
67  -1.184783 0.539746 -0.284905  -0.000000 -0.000000 0.008551
68  0.047884 -1.610073 21.020466  -0.000000 -0.000000 -0.000000
69  0.047881 -3.319714 2.472854  -0.000000 -0.000000 -0.000000
70  0.132116 -1.755407 6.780078  -0.000000 -0.000000 -0.000000
71  0.654947 -2.537531 2.477229  -0.000000 -0.000000 -0.000000
72  -3.588360 -1.097282 -23.660017  1.570796 -0.000000 0.000000
73  0.017809 1.799356 -0.402361  0.000000 -0.000000 0.000000
74  -2.250942 -12.803760 -5.458223  1.574206 -0.008172 0.000852
75  0.031323 2.100359 -1.138381  -0.000000 -0.000000 -0.000000
76  -0.024051 1.849583 -1.138377  -0.000000 -0.000000 -0.000000
time 4
0  0.000006 0.000000 0.000000  -1.570800 -1.391899 -1.570792
1  -4.921969 1.082092 2.232071  -1.544956 -1.855077 -0.198630
2  6.027524 -0.000323 0.000190  -0.751206 -0.993747 -1.549355
3  11.692108 0.000645 -0.000739  -0.890211 -0.000018 -1.395354
4  11.479891 0.000221 -0.000889  1.227330 -0.606053 0.362100
5  3.859505 -0.142823 -1.192079  -0.573871 -0.316762 -1.795817
6  1.312589 0.000010 0.000008  -0.135121 -0.003384 -0.178728
7  0.729355 0.000055 0.000050  -0.006155 -0.010667 -0.248915
8  3.942140 0.046331 -0.431543  -0.497018 0.100803 -1.231861
9  1.539110 0.000082 0.000003  -0.000382 -0.119364 -0.902013
10  1.196332 0.000146 0.000028  0.012615 0.002795 -0.535714
11  3.883510 -0.047212 0.431351  -0.283712 0.421834 -0.633459
12  1.719575 -0.000028 0.000017  0.057360 -0.144594 -1.427911
13  1.209180 0.000090 0.000011  -0.003667 -0.003000 -0.405259
14  4.085234 -0.082654 1.151009  0.076971 0.573771 0.038997
15  1.719448 -0.000019 0.000028  0.015664 -0.064932 -0.867211
16  1.099674 0.000047 0.000006  -0.075642 0.030056 -1.536734
17  0.869862 -1.165528 1.469023  -1.184630 -0.527539 -0.152316
18  1.789820 -0.000003 -0.000017  0.000001 -0.000027 0.636398
19  1.207014 -0.000013 -0.000044  0.000006 -0.000006 -0.137935
20  5.740636 0.000389 -0.000698  -0.107909 0.000003 0.000063
21  11.480986 0.000222 -0.000828  -0.042160 -0.109216 0.038549
22  6.027524 -0.000330 0.000200  1.602914 -0.576340 1.533347
23  0.000001 11.692098 -0.000006  -0.967091 -0.419186 -0.769682
24  0.000003 0.000009 -0.000001  -0.021116 -0.000031 1.570739
25  0.000001 -0.000011 0.000001  0.868960 0.000002 1.570712
26  -6.617934 -9.178503 0.826812  1.473120 1.855075 -0.198639
27  6.027513 -0.000259 -0.000221  1.520368 0.754971 -0.708642
28  11.691992 0.000162 0.000857  0.141449 0.000073 -1.837611
29  11.479347 -0.000866 0.000955  -1.138472 0.378267 0.888352
30  3.859438 -0.132758 1.193064  0.469647 -0.013262 -1.872395
31  1.312559 0.000025 -0.000002  0.024060 -0.138696 -0.550187
32  0.729346 0.000064 -0.000028  -0.166197 -0.081570 -0.714272
33  3.942047 0.050139 0.431000  0.225309 -0.086237 -1.592712
34  1.539097 0.000005 -0.000001  0.035254 -0.050373 -0.994350
35  1.196300 0.000078 -0.000003  -0.021521 0.002175 -0.839738
36  3.883414 -0.050472 -0.431085  0.184824 -0.271737 -1.204030
37  1.719564 -0.000085 -0.000004  0.022859 -0.107186 -1.509108
38  1.209198 0.000035 0.000012  0.000661 0.071072 -0.480462
39  3.859590 -0.149083 -1.331322  -0.033200 -0.110369 -0.362359
40  1.719415 -0.000099 -0.000036  -0.012459 -0.012118 -1.275552
41  1.099674 0.000021 0.000008  -0.003769 -0.008243 -0.832963
42  0.805984 -0.359847 -1.318339  0.991670 0.166767 -0.799527
43  1.789780 -0.000008 -0.000042  0.000058 -0.002451 0.133098
44  1.206997 -0.000006 0.000005  0.000372 -0.000071 1.058780
45  5.740573 0.000079 0.000720  0.173692 -0.000014 0.000028
46  11.480814 -0.000099 0.000936  0.057451 0.082959 0.145891
47  6.027515 -0.000273 -0.000230  -0.910890 -0.520931 -1.709238
48  -0.000000 11.691974 -0.000006  -1.227822 0.672613 0.920923
49  0.000003 -0.000000 -0.000000  2.413978 -0.000036 1.570860
50  -0.000007 -0.000014 0.000004  2.272645 -0.000036 1.570861
51  -3.414663 -3.795873 -6.848579  -0.074704 -2.999228 1.467309
52  0.000000 -0.000000 -0.000000  0.008153 -0.000259 0.000009
53  0.000000 0.000000 -0.000000  1.565115 0.043565 -0.106862
54  -0.335757 -15.854111 -5.632090  -0.753436 -0.135744 -1.948836
55  0.000001 0.000000 0.000000  0.000000 -0.000001 -0.000002
56  0.000030 0.000029 0.000001  -1.571901 -0.044449 -0.106509
57  5.185302 -16.056248 -16.646038  1.570796 -0.000000 0.000000
58  -15.417985 4.000748 -22.641926  1.570796 -0.000000 0.000000
59  2.236387 -0.189356 -5.037201  1.570796 -0.000000 0.000000
60  -0.004311 0.001230 -0.000371  0.006898 -0.005534 -0.284229
61  0.826810 10.209643 -4.879054  1.570796 -0.000000 0.000000
62  0.000000 0.000000 0.000000  -0.078727 -3.136056 0.284226
63  -2.240596 -3.247336 -0.249455  1.570796 -0.000000 0.000000
64  -2.290212 -8.249685 -1.348686  1.572950 -0.003520 0.002042
65  0.002681 -3.204031 0.621197  0.398200 0.000000 -0.000000
66  0.048105 -1.112260 5.647749  0.000000 -0.000000 -0.010329
67  -1.184782 0.539746 -0.284905  -0.000000 -0.000000 -0.012370
68  0.047884 -1.610073 21.020466  0.000000 0.000000 -0.000000
69  0.047881 -3.319713 2.472855  0.000000 0.000000 -0.000000
70  0.172180 -2.040368 3.568008  0.000000 0.000000 -0.000000
71  0.654947 -2.537530 2.477231  0.000000 0.000000 -0.000000
72  -3.588360 -1.097282 -23.660017  1.570796 -0.000000 0.000000
73  0.017809 1.799356 -0.402361  0.000000 -0.000000 0.000000
74  -2.263682 -12.947191 -5.455954  1.572950 -0.003520 0.002042
75  0.031323 2.100358 -1.138380  0.000000 0.000000 -0.000000
76  -0.024051 1.849582 -1.138376  0.000000 0.000000 -0.000000
time 5
0  0.000006 0.000000 0.000000  -1.570800 -1.391899 -1.570792
1  -4.921969 1.082092 2.232071  -1.544956 -1.855077 -0.198630
2  6.027524 -0.000323 0.000190  -0.746826 -0.996972 -1.555738
3  11.692106 0.000643 -0.000738  -0.890210 -0.000018 -1.385001
4  11.479951 0.000241 -0.000867  1.228034 -0.599924 0.353227
5  3.859502 -0.142824 -1.192080  -0.573871 -0.316762 -1.795817
6  1.312588 0.000010 0.000010  -0.135121 -0.003384 -0.178728
7  0.729355 0.000055 0.000050  -0.006155 -0.010667 -0.248915
8  3.942141 0.046331 -0.431544  -0.497018 0.100803 -1.231861
9  1.539110 0.000086 0.000005  -0.000381 -0.119364 -0.902013
10  1.196333 0.000146 0.000028  0.012615 0.002795 -0.535714
11  3.883511 -0.047213 0.431350  -0.283712 0.421834 -0.633459
12  1.719573 -0.000029 0.000017  0.057360 -0.144594 -1.427911
13  1.209180 0.000090 0.000012  -0.003667 -0.003000 -0.405259
14  4.085234 -0.082654 1.151008  0.076971 0.573771 0.038997
15  1.719448 -0.000018 0.000027  0.015664 -0.064932 -0.867211
16  1.099675 0.000048 0.000007  -0.075642 0.030056 -1.536734
17  0.869862 -1.165528 1.469022  -1.184630 -0.527539 -0.152316
18  1.789818 -0.000004 -0.000017  0.000001 -0.000027 0.636398
19  1.207017 -0.000013 -0.000044  0.000006 -0.000006 -0.137935
20  5.740636 0.000388 -0.000700  -0.107316 0.000003 0.000064
21  11.480997 0.000225 -0.000827  -0.042704 -0.107826 0.037111
22  6.027524 -0.000330 0.000200  1.599862 -0.573254 1.532298
23  0.000001 11.692099 -0.000006  -0.960871 -0.413696 -0.765515
24  0.000004 0.000008 -0.000001  -0.021116 -0.000031 1.570739
25  0.000000 -0.000012 0.000001  0.868960 0.000002 1.570712
26  -6.617934 -9.178503 0.826812  1.473120 1.855075 -0.198639
27  6.027514 -0.000259 -0.000221  1.522642 0.757058 -0.707801
28  11.691991 0.000161 0.000856  0.141449 0.000072 -1.829787
29  11.479415 -0.000825 0.000949  -1.145934 0.377058 0.879531
30  3.859438 -0.132758 1.193065  0.469647 -0.013262 -1.872395
31  1.312559 0.000025 -0.000002  0.024060 -0.138696 -0.550187
32  0.729345 0.000065 -0.000028  -0.166197 -0.081570 -0.714272
33  3.942047 0.050139 0.431000  0.225309 -0.086237 -1.592712
34  1.539097 0.000005 -0.000002  0.035254 -0.050373 -0.994350
35  1.196300 0.000079 -0.000003  -0.021521 0.002175 -0.839738
36  3.883413 -0.050472 -0.431084  0.184824 -0.271737 -1.204030
37  1.719564 -0.000085 -0.000004  0.022858 -0.107186 -1.509108
38  1.209196 0.000036 0.000011  0.000661 0.071072 -0.480462
39  3.859590 -0.149082 -1.331319  -0.068157 -0.094352 -0.334139
40  1.719413 -0.000099 -0.000035  -0.012548 -0.005296 -1.194360
41  1.099674 0.000022 0.000008  -0.004985 -0.007826 -0.750118
42  0.805983 -0.359848 -1.318338  0.991670 0.166767 -0.799527
43  1.789780 -0.000009 -0.000042  0.000058 -0.002451 0.133098
44  1.206996 -0.000007 0.000006  0.000372 -0.000071 1.058780
45  5.740571 0.000080 0.000722  0.170764 -0.000014 0.000028
46  11.480825 -0.000091 0.000935  0.056459 0.081954 0.144592
47  6.027515 -0.000273 -0.000230  -0.911887 -0.518412 -1.709461
48  -0.000002 11.691974 -0.000006  -1.223202 0.667860 0.918742
49  0.000002 -0.000000 -0.000000  2.413977 -0.000036 1.570860
50  -0.000008 -0.000014 0.000006  2.272645 -0.000036 1.570861
51  -3.441334 -3.871089 -6.856146  -0.080041 -2.996332 1.467644
52  0.000000 -0.000000 -0.000001  0.008153 -0.000259 0.000009
53  0.000000 -0.000000 0.000000  1.565115 0.043565 -0.106862
54  -0.360830 -15.927797 -5.628592  -0.757775 -0.139964 -1.948670
55  -0.000000 -0.000000 -0.000000  0.000000 -0.000001 -0.000002
56  0.000030 0.000029 0.000001  -1.571901 -0.044449 -0.106509
57  5.185302 -16.056248 -16.646038  1.570796 -0.000000 0.000000
58  -15.417985 4.000748 -22.641926  1.570796 -0.000000 0.000000
59  2.236387 -0.189356 -5.037201  1.570796 -0.000000 0.000000
60  -0.004311 0.001230 -0.000371  0.006898 -0.005534 -0.284229
61  0.826810 10.209643 -4.879054  1.570796 -0.000000 0.000000
62  0.000000 0.000000 0.000000  -0.078727 -3.136056 0.284226
63  -2.240596 -3.247336 -0.249455  1.570796 -0.000000 0.000000
64  -2.288250 -8.312541 -1.352187  1.570625 0.002037 0.001614
65  0.002681 -3.204031 0.621197  0.199100 0.000000 0.000000
66  0.048105 -1.112260 5.725793  -0.000000 0.000000 -0.020658
67  -1.184782 0.539746 -0.284907  0.000000 -0.000000 -0.000459
68  0.047884 -1.610073 21.020470  -0.000000 0.000000 0.000000
69  0.047881 -3.319714 2.472855  -0.000000 0.000000 0.000000
70  0.172180 -2.040368 3.568007  -0.000000 0.000000 0.000000
71  0.654947 -2.537531 2.477231  -0.000000 0.000000 0.000000
72  -3.588360 -1.097282 -23.660017  1.570796 -0.000000 0.000000
73  0.017809 1.799356 -0.402361  0.000000 -0.000000 0.000000
74  -2.286516 -13.019633 -5.448551  1.570625 0.002037 0.001614
75  0.031323 2.100357 -1.138380  -0.000000 0.000000 0.000000
76  -0.024051 1.849582 -1.138378  -0.000000 0.000000 0.000000
time 6
0  0.000006 0.000000 0.000000  -1.570800 -1.391899 -1.570792
1  -4.921969 1.082092 2.232071  -1.544956 -1.855077 -0.198630
2  6.027524 -0.000323 0.000190  -0.743677 -0.997728 -1.557243
3  11.692108 0.000644 -0.000739  -0.890210 -0.000018 -1.383502
4  11.479959 0.000244 -0.000860  1.225016 -0.599087 0.348967
5  3.859504 -0.142823 -1.192079  -0.573871 -0.316762 -1.795817
6  1.312591 0.000010 0.000009  -0.135121 -0.003384 -0.178728
7  0.729353 0.000055 0.000051  -0.006155 -0.010667 -0.248915
8  3.942140 0.046331 -0.431542  -0.497018 0.100803 -1.231861
9  1.539110 0.000082 0.000003  -0.000382 -0.119364 -0.902013
10  1.196332 0.000146 0.000028  0.012615 0.002795 -0.535714
11  3.883510 -0.047212 0.431351  -0.283712 0.421834 -0.633459
12  1.719573 -0.000028 0.000017  0.057360 -0.144594 -1.427911
13  1.209180 0.000091 0.000012  -0.003667 -0.003000 -0.405259
14  4.085233 -0.082653 1.151009  0.076971 0.573771 0.038997
15  1.719449 -0.000018 0.000028  0.015664 -0.064932 -0.867211
16  1.099676 0.000050 0.000006  -0.075642 0.030056 -1.536734
17  0.869862 -1.165527 1.469023  -1.184630 -0.527539 -0.152316
18  1.789819 -0.000005 -0.000018  0.000001 -0.000026 0.636398
19  1.207013 -0.000013 -0.000044  0.000006 -0.000006 -0.137935
20  5.740636 0.000388 -0.000699  -0.108265 0.000003 0.000063
21  11.480997 0.000226 -0.000824  -0.043482 -0.107662 0.036134
22  6.027524 -0.000330 0.000200  1.597785 -0.572587 1.534564
23  0.000000 11.692098 -0.000007  -0.959969 -0.412903 -0.764909
24  0.000004 0.000010 -0.000001  -0.021116 -0.000030 1.570739
25  -0.000000 -0.000011 0.000000  0.868960 0.000002 1.570712
26  -6.617934 -9.178503 0.826812  1.473120 1.855075 -0.198639
27  6.027513 -0.000259 -0.000221  1.523990 0.755948 -0.707189
28  11.691992 0.000161 0.000857  0.141449 0.000072 -1.830205
29  11.479412 -0.000828 0.000951  -1.151384 0.377092 0.877331
30  3.859437 -0.132758 1.193066  0.469647 -0.013262 -1.872395
31  1.312559 0.000025 -0.000000  0.024060 -0.138696 -0.550187
32  0.729345 0.000064 -0.000027  -0.166197 -0.081570 -0.714272
33  3.942047 0.050139 0.431001  0.225309 -0.086237 -1.592712
34  1.539097 0.000005 -0.000001  0.035254 -0.050373 -0.994350
35  1.196300 0.000079 -0.000004  -0.021521 0.002175 -0.839738
36  3.883414 -0.050472 -0.431083  0.184824 -0.271737 -1.204030
37  1.719563 -0.000085 -0.000005  0.022858 -0.107186 -1.509108
38  1.209199 0.000036 0.000011  0.000661 0.071072 -0.480462
39  3.859590 -0.149081 -1.331317  -0.103354 -0.074267 -0.293660
40  1.719413 -0.000099 -0.000034  -0.012554 0.002706 -1.113177
41  1.099674 0.000024 0.000006  -0.006337 -0.007347 -0.667274
42  0.805984 -0.359848 -1.318338  0.991670 0.166767 -0.799527
43  1.789780 -0.000008 -0.000042  0.000058 -0.002451 0.133098
44  1.206996 -0.000007 0.000005  0.000372 -0.000071 1.058780
45  5.740572 0.000080 0.000721  0.169514 -0.000014 0.000028
46  11.480824 -0.000091 0.000936  0.055526 0.081509 0.144428
47  6.027515 -0.000273 -0.000230  -0.910202 -0.518183 -1.710610
48  -0.000002 11.691974 -0.000006  -1.223449 0.668114 0.918859
49  0.000002 -0.000002 -0.000001  2.413977 -0.000036 1.570860
50  -0.000007 -0.000013 0.000005  2.272645 -0.000036 1.570861
51  -3.460383 -3.869213 -6.859016  -0.084587 -2.994600 1.467356
52  -0.000000 -0.000000 0.000000  0.008153 -0.000259 0.000009
53  -0.000000 0.000000 0.000000  1.565115 0.043565 -0.106862
54  -0.385618 -15.927297 -5.630590  -0.761673 -0.142852 -1.949070
55  0.000000 0.000000 0.000000  0.000000 -0.000001 -0.000002
56  0.000031 0.000029 0.000001  -1.571901 -0.044449 -0.106509
57  5.185302 -16.056248 -16.646038  1.570796 -0.000000 0.000000
58  -15.417985 4.000748 -22.641926  1.570796 -0.000000 0.000000
59  2.236387 -0.189356 -5.037201  1.570796 -0.000000 0.000000
60  -0.004311 0.001230 -0.000371  0.006898 -0.005534 -0.284229
61  0.826810 10.209643 -4.879054  1.570796 -0.000000 0.000000
62  0.000000 0.000000 0.000000  -0.078727 -3.136056 0.284226
63  -2.240596 -3.247336 -0.249455  1.570796 -0.000000 0.000000
64  -2.285909 -8.304835 -1.354880  1.569370 0.006690 0.000659
65  0.002681 -3.204031 0.621196  -0.000000 0.000000 -0.000000
66  0.048105 -1.112260 5.803837  0.000000 0.000000 0.006813
67  -1.184782 0.539746 -0.284905  0.000000 -0.000000 0.011451
68  0.047884 -1.610073 21.020468  -0.000000 0.000000 -0.000000
69  0.047881 -3.319713 2.472855  -0.000000 0.000000 -0.000000
70  0.172180 -2.040368 3.568005  -0.000000 0.000000 -0.000000
71  0.654947 -2.537530 2.477230  -0.000000 0.000000 -0.000000
72  -3.588360 -1.097282 -23.660017  1.570796 -0.000000 0.000000
73  0.017809 1.799356 -0.402361  0.000000 -0.000000 0.000000
74  -2.307691 -13.017075 -5.445264  1.569370 0.006690 0.000659
75  0.031322 2.100358 -1.138380  -0.000000 0.000000 -0.000000
76  -0.024051 1.849583 -1.138377  -0.000000 0.000000 -0.000000
time 7
0  0.000006 0.000000 0.000000  -1.570800 -1.391899 -1.570792
1  -4.921969 1.082092 2.232071  -1.544956 -1.855077 -0.198630
2  6.027524 -0.000323 0.000190  -0.742325 -0.997439 -1.556658
3  11.692107 0.000644 -0.000739  -0.890210 -0.000018 -1.384815
4  11.479954 0.000243 -0.000865  1.222091 -0.599819 0.348416
5  3.859502 -0.142824 -1.192079  -0.573871 -0.316762 -1.795817
6  1.312589 0.000010 0.000008  -0.135121 -0.003384 -0.178728
7  0.729355 0.000055 0.000051  -0.006155 -0.010667 -0.248915
8  3.942141 0.046330 -0.431543  -0.497018 0.100803 -1.231861
9  1.539110 0.000083 0.000003  -0.000382 -0.119364 -0.902013
10  1.196334 0.000145 0.000028  0.012615 0.002795 -0.535714
11  3.883511 -0.047212 0.431351  -0.283712 0.421834 -0.633459
12  1.719572 -0.000030 0.000018  0.057360 -0.144594 -1.427911
13  1.209180 0.000090 0.000013  -0.003667 -0.003000 -0.405259
14  4.085236 -0.082653 1.151009  0.076971 0.573771 0.038997
15  1.719448 -0.000020 0.000028  0.015664 -0.064932 -0.867211
16  1.099675 0.000049 0.000004  -0.075642 0.030056 -1.536734
17  0.869862 -1.165528 1.469023  -1.184630 -0.527539 -0.152316
18  1.789820 -0.000002 -0.000017  0.000001 -0.000026 0.636398
19  1.207015 -0.000013 -0.000043  0.000006 -0.000006 -0.137935
20  5.740636 0.000389 -0.000699  -0.109136 0.000003 0.000063
21  11.480998 0.000226 -0.000825  -0.044010 -0.107876 0.035818
22  6.027524 -0.000330 0.000200  1.596931 -0.572912 1.536749
23  0.000001 11.692098 -0.000007  -0.960759 -0.413598 -0.765440
24  0.000003 0.000010 -0.000001  -0.021116 -0.000031 1.570738
25  0.000000 -0.000012 0.000000  0.868960 0.000002 1.570712
26  -6.617934 -9.178503 0.826812  1.473120 1.855075 -0.198639
27  6.027513 -0.000259 -0.000221  1.524289 0.754800 -0.707013
28  11.691991 0.000160 0.000858  0.141449 0.000072 -1.832535
29  11.479393 -0.000839 0.000951  -1.153268 0.377629 0.878808
30  3.859437 -0.132759 1.193066  0.469647 -0.013262 -1.872395
31  1.312559 0.000025 -0.000001  0.024060 -0.138696 -0.550187
32  0.729346 0.000065 -0.000027  -0.166197 -0.081570 -0.714272
33  3.942047 0.050139 0.431000  0.225309 -0.086237 -1.592712
34  1.539097 0.000005 -0.000001  0.035254 -0.050373 -0.994350
35  1.196299 0.000078 -0.000003  -0.021521 0.002175 -0.839738
36  3.883414 -0.050473 -0.431084  0.184824 -0.271737 -1.204030
37  1.719563 -0.000085 -0.000005  0.022858 -0.107186 -1.509108
38  1.209197 0.000035 0.000011  0.000661 0.071072 -0.480462
39  3.859589 -0.149082 -1.331319  -0.104057 -0.070710 -0.276449
40  1.719414 -0.000098 -0.000035  -0.013100 0.003905 -1.158337
41  1.099674 0.000023 0.000007  -0.006208 -0.007697 -0.719239
42  0.805984 -0.359848 -1.318338  0.991670 0.166767 -0.799527
43  1.789780 -0.000008 -0.000043  0.000058 -0.002451 0.133098
44  1.206996 -0.000007 0.000005  0.000372 -0.000071 1.058780
45  5.740573 0.000079 0.000720  0.169465 -0.000014 0.000028
46  11.480823 -0.000094 0.000935  0.055092 0.081511 0.144786
47  6.027515 -0.000273 -0.000230  -0.908953 -0.518616 -1.711257
48  -0.000003 11.691974 -0.000005  -1.224824 0.669528 0.919510
49  0.000002 -0.000001 0.000000  2.413977 -0.000036 1.570860
50  -0.000008 -0.000014 0.000005  2.272645 -0.000036 1.570861
51  -3.464931 -3.848183 -6.857276  -0.086560 -2.994514 1.466693
52  -0.000000 0.000000 -0.000000  0.008153 -0.000259 0.000009
53  -0.000000 -0.000000 0.000000  1.565115 0.043565 -0.106862
54  -0.399261 -15.909334 -5.636251  -0.763548 -0.143464 -1.949755
55  0.000000 0.000000 0.000000  0.000000 -0.000001 -0.000002
56  0.000030 0.000029 0.000001  -1.571901 -0.044449 -0.106509
57  5.185302 -16.056248 -16.646038  1.570796 -0.000000 0.000000
58  -15.417985 4.000748 -22.641926  1.570796 -0.000000 0.000000
59  2.236387 -0.189356 -5.037201  1.570796 -0.000000 0.000000
60  -0.004311 0.001230 -0.000371  0.006898 -0.005534 -0.284229
61  0.826810 10.209643 -4.879054  1.570796 -0.000000 0.000000
62  0.000000 0.000000 0.000000  -0.078727 -3.136056 0.284226
63  -2.240596 -3.247336 -0.249455  1.570796 -0.000000 0.000000
64  -2.283947 -8.285571 -1.355957  1.569488 0.008641 -0.000293
65  0.002681 -3.204031 0.621196  0.000000 -0.000000 0.000000
66  0.048105 -1.112260 5.769000  -0.000000 0.000000 0.004222
67  -1.184782 0.539746 -0.284905  0.000000 0.000000 0.006465
68  0.047884 -1.610072 21.020466  0.000000 -0.000000 0.000000
69  0.047881 -3.319713 2.472855  0.000000 -0.000000 0.000000
70  0.172180 -2.040368 3.568007  0.000000 -0.000000 0.000000
71  0.654947 -2.537530 2.477230  0.000000 -0.000000 0.000000
72  -3.588360 -1.097282 -23.660017  1.570796 -0.000000 0.000000
73  0.017809 1.799356 -0.402361  0.000000 -0.000000 0.000000
74  -2.318197 -12.997305 -5.446837  1.569488 0.008641 -0.000293
75  0.031323 2.100358 -1.138380  0.000000 -0.000000 0.000000
76  -0.024051 1.849583 -1.138376  0.000000 -0.000000 0.000000
time 8
0  0.000006 0.000000 0.000000  -1.570800 -1.391899 -1.570792
1  -4.921969 1.082092 2.232071  -1.544956 -1.855077 -0.198630
2  6.027524 -0.000323 0.000190  -0.742687 -0.996645 -1.555060
3  11.692108 0.000644 -0.000738  -0.890211 -0.000018 -1.387837
4  11.479934 0.000237 -0.000871  1.220902 -0.601427 0.350187
5  3.859503 -0.142823 -1.192080  -0.573871 -0.316762 -1.795817
6  1.312589 0.000010 0.000007  -0.135121 -0.003384 -0.178728
7  0.729354 0.000054 0.000049  -0.006155 -0.010667 -0.248915
8  3.942139 0.046330 -0.431543  -0.497018 0.100803 -1.231861
9  1.539110 0.000085 0.000004  -0.000382 -0.119364 -0.902014
10  1.196332 0.000146 0.000028  0.012615 0.002795 -0.535714
11  3.883509 -0.047212 0.431351  -0.283712 0.421834 -0.633459
12  1.719572 -0.000029 0.000017  0.057360 -0.144594 -1.427911
13  1.209179 0.000091 0.000012  -0.003667 -0.003000 -0.405259
14  4.085233 -0.082653 1.151008  0.076971 0.573771 0.038997
15  1.719448 -0.000018 0.000028  0.015664 -0.064932 -0.867211
16  1.099675 0.000050 0.000006  -0.075642 0.030056 -1.536734
17  0.869859 -1.165528 1.469022  -1.184630 -0.527539 -0.152316
18  1.789821 -0.000002 -0.000018  0.000001 -0.000026 0.636398
19  1.207012 -0.000013 -0.000044  0.000006 -0.000006 -0.137935
20  5.740636 0.000388 -0.000699  -0.109613 0.000003 0.000064
21  11.480994 0.000224 -0.000825  -0.044077 -0.108258 0.036025
22  6.027524 -0.000330 0.000200  1.597210 -0.573695 1.537890
23  -0.000000 11.692099 -0.000005  -0.962575 -0.415197 -0.766659
24  0.000002 0.000009 -0.000001  -0.021116 -0.000031 1.570739
25  -0.000001 -0.000011 0.000002  0.868960 0.000002 1.570712
26  -6.617934 -9.178503 0.826812  1.473120 1.855075 -0.198639
27  6.027513 -0.000259 -0.000221  1.523718 0.753770 -0.707201
28  11.691991 0.000160 0.000856  0.141449 0.000072 -1.835417
29  11.479367 -0.000855 0.000953  -1.152313 0.378528 0.881313
30  3.859438 -0.132759 1.193065  0.469647 -0.013262 -1.872395
31  1.312559 0.000026 -0.000002  0.024060 -0.138696 -0.550187
32  0.729346 0.000065 -0.000028  -0.166197 -0.081570 -0.714272
33  3.942047 0.050139 0.431000  0.225309 -0.086237 -1.592712
34  1.539097 0.000006 -0.000001  0.035254 -0.050373 -0.994350
35  1.196301 0.000078 -0.000004  -0.021521 0.002175 -0.839738
36  3.883414 -0.050472 -0.431084  0.184824 -0.271737 -1.204030
37  1.719563 -0.000084 -0.000004  0.022858 -0.107186 -1.509108
38  1.209198 0.000035 0.000012  0.000661 0.071072 -0.480462
39  3.859589 -0.149083 -1.331321  -0.104061 -0.070249 -0.272073
40  1.719414 -0.000098 -0.000035  -0.013177 0.003907 -1.203491
41  1.099674 0.000022 0.000007  -0.005887 -0.007993 -0.771205
42  0.805984 -0.359847 -1.318338  0.991670 0.166767 -0.799527
43  1.789780 -0.000009 -0.000042  0.000058 -0.002451 0.133097
44  1.206996 -0.000007 0.000005  0.000372 -0.000071 1.058780
45  5.740573 0.000080 0.000721  0.170108 -0.000014 0.000028
46  11.480819 -0.000097 0.000936  0.055114 0.081812 0.145187
47  6.027515 -0.000273 -0.000230  -0.908210 -0.519520 -1.711423
48  -0.000002 11.691974 -0.000005  -1.226526 0.671279 0.920314
49  0.000003 -0.000000 0.000001  2.413977 -0.000036 1.570860
50  -0.000008 -0.000014 0.000006  2.272645 -0.000036 1.570861
51  -3.459375 -3.820927 -6.856010  -0.086079 -2.994875 1.466189
52  0.000000 0.000000 0.000001  0.008153 -0.000259 0.000009
53  0.000000 0.000000 0.000000  1.565115 0.043565 -0.106862
54  -0.399553 -15.883781 -5.637154  -0.763184 -0.142988 -1.950240
55  -0.000002 -0.000001 -0.000001  0.000000 -0.000001 -0.000002
56  0.000029 0.000028 0.000000  -1.571902 -0.044449 -0.106509
57  5.185302 -16.056248 -16.646038  1.570796 -0.000000 0.000000
58  -15.417985 4.000748 -22.641926  1.570796 -0.000000 0.000000
59  2.236387 -0.189356 -5.037201  1.570796 -0.000000 0.000000
60  -0.004311 0.001230 -0.000371  0.006898 -0.005534 -0.284229
61  0.826810 10.209643 -4.879054  1.570796 -0.000000 0.000000
62  0.000000 0.000000 0.000000  -0.078727 -3.136056 0.284226
63  -2.240596 -3.247336 -0.249455  1.570796 -0.000000 0.000000
64  -2.283125 -8.260528 -1.355462  1.569798 0.008130 -0.000723
65  0.002681 -3.204031 0.621198  0.000000 0.000000 -0.000000
66  0.048105 -1.112260 5.786419  0.000000 0.000000 -0.000588
67  -1.184782 0.539746 -0.284904  0.000000 0.000000 -0.002796
68  0.047884 -1.610073 21.020464  0.000000 0.000000 -0.000000
69  0.047881 -3.319713 2.472856  0.000000 0.000000 -0.000000
70  0.172181 -2.040368 3.568007  0.000000 0.000000 -0.000000
71  0.654947 -2.537531 2.477231  0.000000 0.000000 -0.000000
72  -3.588360 -1.097282 -23.660017  1.570796 -0.000000 0.000000
73  0.017809 1.799356 -0.402361  0.000000 -0.000000 0.000000
74  -2.317323 -12.970980 -5.447818  1.569798 0.008130 -0.000723
75  0.031323 2.100358 -1.138380  0.000000 0.000000 -0.000000
76  -0.024051 1.849582 -1.138377  0.000000 0.000000 -0.000000
time 9
0  0.000006 0.000000 0.000000  -1.570800 -1.391899 -1.570792
1  -4.921969 1.082092 2.232071  -1.544956 -1.855077 -0.198630
2  6.027524 -0.000323 0.000190  -0.743822 -0.995652 -1.553070
3  11.692108 0.000644 -0.000739  -0.890211 -0.000018 -1.391404
4  11.479913 0.000229 -0.000879  1.220457 -0.603513 0.352649
5  3.859503 -0.142824 -1.192079  -0.573871 -0.316762 -1.795817
6  1.312590 0.000008 0.000008  -0.135121 -0.003384 -0.178728
7  0.729355 0.000054 0.000050  -0.006155 -0.010667 -0.248915
8  3.942140 0.046331 -0.431542  -0.497018 0.100803 -1.231861
9  1.539110 0.000083 0.000003  -0.000382 -0.119364 -0.902013
10  1.196334 0.000145 0.000028  0.012615 0.002795 -0.535714
11  3.883511 -0.047212 0.431351  -0.283712 0.421834 -0.633459
12  1.719572 -0.000030 0.000016  0.057360 -0.144594 -1.427911
13  1.209179 0.000089 0.000012  -0.003667 -0.003000 -0.405259
14  4.085235 -0.082653 1.151009  0.076971 0.573771 0.038997
15  1.719448 -0.000019 0.000027  0.015664 -0.064932 -0.867211
16  1.099675 0.000047 0.000006  -0.075642 0.030056 -1.536734
17  0.869861 -1.165527 1.469023  -1.184630 -0.527539 -0.152316
18  1.789819 -0.000004 -0.000018  0.000001 -0.000026 0.636398
19  1.207017 -0.000013 -0.000043  0.000006 -0.000006 -0.137935
20  5.740636 0.000389 -0.000698  -0.109943 0.000003 0.000063
21  11.480990 0.000223 -0.000827  -0.043954 -0.108727 0.036393
22  6.027524 -0.000330 0.000200  1.598002 -0.574656 1.538497
23  0.000000 11.692098 -0.000007  -0.964719 -0.417088 -0.768095
24  0.000003 0.000008 0.000000  -0.021116 -0.000031 1.570739
25  -0.000000 -0.000011 -0.000001  0.868960 0.000002 1.570712
26  -6.617934 -9.178503 0.826812  1.473120 1.855075 -0.198639
27  6.027513 -0.000259 -0.000221  1.523077 0.752811 -0.707420
28  11.691992 0.000161 0.000856  0.141449 0.000073 -1.838289
29  11.479343 -0.000871 0.000957  -1.150486 0.379052 0.883875
30  3.859438 -0.132758 1.193065  0.469647 -0.013262 -1.872395
31  1.312559 0.000026 -0.000001  0.024060 -0.138696 -0.550187
32  0.729345 0.000065 -0.000028  -0.166197 -0.081570 -0.714272
33  3.942047 0.050139 0.431000  0.225309 -0.086237 -1.592712
34  1.539097 0.000005 -0.000002  0.035254 -0.050373 -0.994350
35  1.196301 0.000078 -0.000004  -0.021521 0.002175 -0.839738
36  3.883413 -0.050472 -0.431085  0.184824 -0.271737 -1.204030
37  1.719563 -0.000085 -0.000005  0.022858 -0.107186 -1.509108
38  1.209198 0.000036 0.000011  0.000661 0.071072 -0.480462
39  3.859589 -0.149082 -1.331321  -0.104061 -0.070249 -0.272073
40  1.719414 -0.000098 -0.000035  -0.013177 0.003907 -1.203491
41  1.099673 0.000022 0.000006  -0.005887 -0.007993 -0.771205
42  0.805983 -0.359848 -1.318339  0.991670 0.166767 -0.799527
43  1.789780 -0.000008 -0.000042  0.000058 -0.002451 0.133097
44  1.206997 -0.000007 0.000005  0.000372 -0.000071 1.058780
45  5.740574 0.000078 0.000721  0.170939 -0.000014 0.000028
46  11.480814 -0.000101 0.000936  0.055325 0.082109 0.145574
47  6.027515 -0.000273 -0.000230  -0.907567 -0.520430 -1.711523
48  -0.000002 11.691975 -0.000004  -1.228223 0.673025 0.921112
49  0.000002 0.000000 0.000000  2.413977 -0.000036 1.570860
50  -0.000007 -0.000015 0.000006  2.272645 -0.000036 1.570861
51  -3.452718 -3.793620 -6.854389  -0.084800 -2.995436 1.466071
52  0.000000 -0.000000 0.000001  0.008153 -0.000259 0.000009
53  0.000000 0.000000 -0.000000  1.565115 0.043565 -0.106862
54  -0.393674 -15.856785 -5.636638  -0.762107 -0.142104 -1.950324
55  -0.000001 -0.000000 0.000000  0.000000 -0.000001 -0.000002
56  0.000029 0.000029 0.000001  -1.571901 -0.044449 -0.106509
57  5.185302 -16.056248 -16.646038  1.570796 -0.000000 0.000000
58  -15.417985 4.000748 -22.641926  1.570796 -0.000000 0.000000
59  2.236387 -0.189356 -5.037201  1.570796 -0.000000 0.000000
60  -0.004311 0.001230 -0.000371  0.006898 -0.005534 -0.284229
61  0.826810 10.209643 -4.879054  1.570796 -0.000000 0.000000
62  0.000000 0.000000 0.000000  -0.078727 -3.136056 0.284226
63  -2.240596 -3.247336 -0.249455  1.570796 -0.000000 0.000000
64  -2.283409 -8.235483 -1.354187  1.570224 0.006813 -0.000652
65  0.002681 -3.204031 0.621195  -0.000000 -0.000000 0.000000
66  0.048105 -1.112260 5.803837  -0.000000 0.000000 -0.003179
67  -1.184782 0.539746 -0.284904  -0.000000 -0.000000 -0.007782
68  0.047884 -1.610073 21.020468  -0.000000 -0.000000 0.000000
69  0.047881 -3.319714 2.472854  -0.000000 -0.000000 0.000000
70  0.172180 -2.040368 3.568006  -0.000000 -0.000000 0.000000
71  0.654947 -2.537530 2.477229  -0.000000 -0.000000 0.000000
72  -3.588360 -1.097282 -23.660017  1.570796 -0.000000 0.000000
73  0.017809 1.799356 -0.402361  0.000000 -0.000000 0.000000
74  -2.311893 -12.944195 -5.448589  1.570224 0.006813 -0.000652
75  0.031323 2.100358 -1.138380  -0.000000 -0.000000 0.000000
76  -0.024051 1.849583 -1.138377  -0.000000 -0.000000 0.000000
time 10
0  0.000006 0.000000 0.000000  -1.570800 -1.391899 -1.570792
1  -4.921969 1.082092 2.232071  -1.544956 -1.855077 -0.198630
2  6.027524 -0.000323 0.000190  -0.745156 -0.994781 -1.551334
3  11.692107 0.000645 -0.000739  -0.890211 -0.000018 -1.394468
4  11.479894 0.000224 -0.000890  1.220622 -0.605276 0.355281
5  3.859505 -0.142823 -1.192079  -0.573871 -0.316762 -1.795817
6  1.312588 0.000012 0.000009  -0.135121 -0.003384 -0.178728
7  0.729355 0.000054 0.000052  -0.006155 -0.010667 -0.248915
8  3.942142 0.046331 -0.431542  -0.497018 0.100803 -1.231861
9  1.539110 0.000085 0.000005  -0.000381 -0.119364 -0.902013
10  1.196333 0.000145 0.000028  0.012615 0.002795 -0.535714
11  3.883510 -0.047212 0.431351  -0.283712 0.421834 -0.633459
12  1.719574 -0.000029 0.000017  0.057360 -0.144594 -1.427911
13  1.209177 0.000090 0.000013  -0.003667 -0.003000 -0.405259
14  4.085236 -0.082653 1.151010  0.076971 0.573771 0.038997
15  1.719449 -0.000021 0.000028  0.015664 -0.064932 -0.867211
16  1.099675 0.000047 0.000004  -0.075642 0.030056 -1.536734
17  0.869863 -1.165527 1.469023  -1.184630 -0.527539 -0.152316
18  1.789821 -0.000003 -0.000017  0.000001 -0.000026 0.636398
19  1.207016 -0.000013 -0.000044  0.000006 -0.000006 -0.137935
20  5.740635 0.000388 -0.000700  -0.110052 0.000003 0.000064
21  11.480986 0.000222 -0.000830  -0.043726 -0.109119 0.036844
22  6.027524 -0.000330 0.000200  1.598919 -0.575489 1.538617
23  -0.000000 11.692097 -0.000007  -0.966560 -0.418715 -0.769327
24  0.000003 0.000010 -0.000001  -0.021116 -0.000030 1.570738
25  -0.000000 -0.000012 0.000000  0.868960 0.000002 1.570712
26  -6.617934 -9.178503 0.826812  1.473120 1.855075 -0.198639
27  6.027513 -0.000259 -0.000221  1.522340 0.752221 -0.707695
28  11.691992 0.000160 0.000856  0.141449 0.000073 -1.840524
29  11.479321 -0.000882 0.000957  -1.148162 0.379538 0.886227
30  3.859438 -0.132759 1.193064  0.469647 -0.013262 -1.872395
31  1.312559 0.000025 -0.000001  0.024060 -0.138696 -0.550187
32  0.729345 0.000065 -0.000027  -0.166197 -0.081570 -0.714272
33  3.942047 0.050138 0.430999  0.225309 -0.086237 -1.592712
34  1.539097 0.000005 -0.000001  0.035254 -0.050373 -0.994350
35  1.196300 0.000078 -0.000003  -0.021521 0.002175 -0.839738
36  3.883414 -0.050473 -0.431085  0.184824 -0.271737 -1.204030
37  1.719563 -0.000084 -0.000004  0.022859 -0.107186 -1.509108
38  1.209198 0.000035 0.000012  0.000661 0.071072 -0.480462
39  3.859589 -0.149083 -1.331321  -0.104061 -0.070249 -0.272073
40  1.719415 -0.000098 -0.000036  -0.013177 0.003907 -1.203491
41  1.099674 0.000024 0.000006  -0.005887 -0.007993 -0.771205
42  0.805984 -0.359848 -1.318339  0.991670 0.166767 -0.799527
43  1.789780 -0.000009 -0.000043  0.000058 -0.002451 0.133098
44  1.206997 -0.000007 0.000005  0.000372 -0.000071 1.058781
45  5.740574 0.000079 0.000721  0.171801 -0.000014 0.000028
46  11.480809 -0.000102 0.000937  0.055636 0.082430 0.145896
47  6.027515 -0.000273 -0.000230  -0.907325 -0.521200 -1.711415
48  -0.000001 11.691975 -0.000005  -1.229543 0.674385 0.921731
49  0.000001 -0.000002 0.000000  2.413977 -0.000036 1.570860
50  -0.000007 -0.000013 0.000005  2.272645 -0.000036 1.570861
51  -3.444313 -3.772006 -6.852682  -0.083039 -2.996086 1.465989
52  -0.000000 0.000000 0.000001  0.008153 -0.000259 0.000009
53  0.000000 -0.000000 -0.000001  1.565115 0.043565 -0.106862
54  -0.385372 -15.835204 -5.635019  -0.760591 -0.141006 -1.950365
55  0.000000 0.000000 0.000001  0.000000 -0.000001 -0.000002
56  0.000030 0.000029 0.000001  -1.571901 -0.044449 -0.106509
57  5.185302 -16.056248 -16.646038  1.570796 -0.000000 0.000000
58  -15.417985 4.000748 -22.641926  1.570796 -0.000000 0.000000
59  2.236387 -0.189356 -5.037201  1.570796 -0.000000 0.000000
60  -0.004311 0.001230 -0.000371  0.006898 -0.005534 -0.284229
61  0.826810 10.209643 -4.879054  1.570796 -0.000000 0.000000
62  0.000000 0.000000 0.000000  -0.078727 -3.136056 0.284226
63  -2.240596 -3.247336 -0.249455  1.570796 -0.000000 0.000000
64  -2.284140 -8.216219 -1.352444  1.570689 0.005012 -0.000476
65  0.002681 -3.204031 0.621194  -0.000000 -0.000000 0.000000
66  0.048105 -1.112260 5.803836  -0.000000 0.000000 -0.001113
67  -1.184782 0.539746 -0.284905  0.000000 0.000000 -0.005765
68  0.047884 -1.610073 21.020466  -0.000000 -0.000000 0.000000
69  0.047881 -3.319713 2.472853  -0.000000 -0.000000 0.000000
70  0.172180 -2.040368 3.568006  -0.000000 -0.000000 0.000000
71  0.654947 -2.537531 2.477229  -0.000000 -0.000000 0.000000
72  -3.588360 -1.097282 -23.660017  1.570796 -0.000000 0.000000
73  0.017809 1.799356 -0.402361  0.000000 -0.000000 0.000000
74  -2.304432 -12.923035 -5.449074  1.570689 0.005012 -0.000476
75  0.031323 2.100358 -1.138381  -0.000000 -0.000000 0.000000
76  -0.024051 1.849583 -1.138378  -0.000000 -0.000000 0.000000
time 11
0  0.000006 0.000000 0.000000  -1.570800 -1.391899 -1.570792
1  -4.921969 1.082092 2.232071  -1.544956 -1.855077 -0.198630
2  6.027524 -0.000323 0.000190  -0.746408 -0.994259 -1.550302
3  11.692106 0.000644 -0.000739  -0.890211 -0.000018 -1.396203
4  11.479885 0.000220 -0.000894  1.221448 -0.606219 0.357520
5  3.859503 -0.142823 -1.192079  -0.573871 -0.316762 -1.795816
6  1.312590 0.000009 0.000009  -0.135121 -0.003384 -0.178728
7  0.729356 0.000054 0.000049  -0.006155 -0.010667 -0.248915
8  3.942142 0.046332 -0.431542  -0.497018 0.100803 -1.231861
9  1.539110 0.000086 0.000004  -0.000382 -0.119364 -0.902014
10  1.196332 0.000146 0.000029  0.012615 0.002795 -0.535714
11  3.883510 -0.047212 0.431351  -0.283712 0.421834 -0.633459
12  1.719572 -0.000029 0.000016  0.057360 -0.144594 -1.427911
13  1.209179 0.000090 0.000011  -0.003667 -0.003000 -0.405259
14  4.085234 -0.082653 1.151009  0.076971 0.573771 0.038997
15  1.719448 -0.000018 0.000028  0.015664 -0.064932 -0.867211
16  1.099675 0.000049 0.000006  -0.075642 0.030056 -1.536734
17  0.869861 -1.165527 1.469022  -1.184630 -0.527540 -0.152316
18  1.789819 -0.000003 -0.000017  0.000001 -0.000026 0.636398
19  1.207015 -0.000014 -0.000043  0.000006 -0.000006 -0.137935
20  5.740635 0.000389 -0.000699  -0.109871 0.000003 0.000063
21  11.480984 0.000222 -0.000832  -0.043432 -0.109325 0.037291
22  6.027524 -0.000330 0.000200  1.599764 -0.575976 1.538139
23  -0.000000 11.692097 -0.000008  -0.967601 -0.419637 -0.770022
24  0.000003 0.000009 -0.000000  -0.021116 -0.000030 1.570739
25  -0.000000 -0.000011 -0.000001  0.868960 0.000002 1.570712
26  -6.617934 -9.178503 0.826812  1.473120 1.855075 -0.198639
27  6.027513 -0.000259 -0.000221  1.521649 0.752222 -0.707979
28  11.691990 0.000162 0.000856  0.141449 0.000073 -1.841479
29  11.479317 -0.000885 0.000959  -1.145774 0.379892 0.887834
30  3.859438 -0.132758 1.193065  0.469647 -0.013262 -1.872395
31  1.312559 0.000025 -0.000001  0.024060 -0.138696 -0.550187
32  0.729346 0.000064 -0.000028  -0.166197 -0.081570 -0.714272
33  3.942047 0.050139 0.431000  0.225309 -0.086237 -1.592712
34  1.539097 0.000006 -0.000001  0.035254 -0.050373 -0.994350
35  1.196300 0.000078 -0.000004  -0.021521 0.002175 -0.839738
36  3.883414 -0.050472 -0.431084  0.184824 -0.271737 -1.204030
37  1.719563 -0.000086 -0.000004  0.022859 -0.107186 -1.509108
38  1.209197 0.000036 0.000012  0.000661 0.071072 -0.480462
39  3.859589 -0.149082 -1.331321  -0.104061 -0.070249 -0.272073
40  1.719414 -0.000098 -0.000035  -0.013177 0.003907 -1.203491
41  1.099674 0.000023 0.000006  -0.005887 -0.007993 -0.771205
42  0.805984 -0.359848 -1.318338  0.991670 0.166767 -0.799527
43  1.789780 -0.000008 -0.000042  0.000058 -0.002451 0.133098
44  1.206997 -0.000007 0.000005  0.000372 -0.000071 1.058780
45  5.740574 0.000079 0.000721  0.172506 -0.000014 0.000028
46  11.480808 -0.000103 0.000937  0.055993 0.082712 0.146076
47  6.027515 -0.000273 -0.000230  -0.907640 -0.521625 -1.711070
48  -0.000003 11.691974 -0.000005  -1.230107 0.674966 0.921995
49  0.000002 0.000000 0.000000  2.413978 -0.000036 1.570860
50  -0.000008 -0.000015 0.000006  2.272645 -0.000036 1.570861
51  -3.435522 -3.762218 -6.851156  -0.081112 -2.996715 1.465935
52  -0.000000 0.000000 0.000000  0.008153 -0.000259 0.000009
53  0.000000 -0.000000 0.000000  1.565115 0.043565 -0.106862
54  -0.376251 -15.825245 -5.632628  -0.758910 -0.139883 -1.950375
55  -0.000000 0.000000 -0.000001  0.000000 -0.000001 -0.000002
56  0.000029 0.000029 0.000001  -1.571901 -0.044449 -0.106509
57  5.185302 -16.056248 -16.646038  1.570796 -0.000000 0.000000
58  -15.417985 4.000748 -22.641926  1.570796 -0.000000 0.000000
59  2.236387 -0.189356 -5.037201  1.570796 -0.000000 0.000000
60  -0.004311 0.001230 -0.000371  0.006898 -0.005534 -0.284229
61  0.826810 10.209643 -4.879054  1.570796 -0.000000 0.000000
62  0.000000 0.000000 0.000000  -0.078727 -3.136056 0.284226
63  -2.240596 -3.247336 -0.249455  1.570796 -0.000000 0.000000
64  -2.285139 -8.208513 -1.350544  1.571116 0.003050 -0.000248
65  0.002680 -3.204031 0.621197  0.000000 0.000000 -0.000000
66  0.048105 -1.112260 5.803838  0.000000 0.000000 0.000954
67  -1.184782 0.539746 -0.284905  0.000000 0.000000 -0.002018
68  0.047884 -1.610073 21.020466  0.000000 0.000000 -0.000000
69  0.047881 -3.319713 2.472856  0.000000 0.000000 -0.000000
70  0.172180 -2.040368 3.568008  0.000000 0.000000 -0.000000
71  0.654947 -2.537531 2.477232  0.000000 0.000000 -0.000000
72  -3.588360 -1.097282 -23.660017  1.570796 -0.000000 0.000000
73  0.017809 1.799356 -0.402361  0.000000 -0.000000 0.000000
74  -2.296330 -12.913588 -5.449210  1.571116 0.003050 -0.000248
75  0.031323 2.100358 -1.138379  0.000000 0.000000 -0.000000
76  -0.024051 1.849582 -1.138377  0.000000 0.000000 -0.000000
time 12
0  0.000006 0.000000 0.000000  -1.570800 -1.391899 -1.570792
1  -4.921969 1.082092 2.232071  -1.544956 -1.855077 -0.198630
2  6.027524 -0.000323 0.000190  -0.747410 -0.994076 -1.549951
3  11.692108 0.000644 -0.000740  -0.890211 -0.000018 -1.396708
4  11.479882 0.000218 -0.000895  1.222668 -0.606416 0.359134
5  3.859502 -0.142824 -1.192079  -0.573871 -0.316762 -1.795817
6  1.312590 0.000010 0.000009  -0.135121 -0.003384 -0.178728
7  0.729355 0.000055 0.000052  -0.006155 -0.010667 -0.248915
8  3.942140 0.046330 -0.431543  -0.497018 0.100803 -1.231861
9  1.539111 0.000085 0.000005  -0.000382 -0.119364 -0.902013
10  1.196332 0.000145 0.000030  0.012615 0.002795 -0.535714
11  3.883511 -0.047212 0.431351  -0.283712 0.421834 -0.633459
12  1.719573 -0.000031 0.000017  0.057360 -0.144594 -1.427911
13  1.209180 0.000090 0.000011  -0.003667 -0.003000 -0.405259
14  4.085232 -0.082653 1.151008  0.076971 0.573771 0.038997
15  1.719450 -0.000018 0.000029  0.015664 -0.064932 -0.867211
16  1.099675 0.000048 0.000007  -0.075642 0.030056 -1.536734
17  0.869861 -1.165527 1.469023  -1.184630 -0.527539 -0.152316
18  1.789819 -0.000003 -0.000018  0.000001 -0.000026 0.636398
19  1.207016 -0.000013 -0.000043  0.000006 -0.000006 -0.137935
20  5.740637 0.000388 -0.000700  -0.109497 0.000003 0.000063
21  11.480984 0.000222 -0.000831  -0.043129 -0.109361 0.037671
22  6.027524 -0.000330 0.000200  1.600426 -0.576129 1.537288
23  0.000000 11.692100 -0.000006  -0.967904 -0.419906 -0.770225
24  0.000003 0.000010 0.000000  -0.021116 -0.000031 1.570738
25  0.000001 -0.000011 0.000001  0.868960 0.000002 1.570712
26  -6.617934 -9.178503 0.826812  1.473120 1.855075 -0.198639
27  6.027513 -0.000259 -0.000221  1.521085 0.752652 -0.708232
28  11.691991 0.000161 0.000856  0.141449 0.000073 -1.841355
29  11.479316 -0.000885 0.000959  -1.143686 0.380120 0.888635
30  3.859438 -0.132758 1.193064  0.469647 -0.013262 -1.872395
31  1.312560 0.000025 -0.000001  0.024060 -0.138696 -0.550187
32  0.729345 0.000063 -0.000028  -0.166197 -0.081570 -0.714272
33  3.942047 0.050139 0.431000  0.225309 -0.086237 -1.592712
34  1.539097 0.000006 -0.000001  0.035254 -0.050373 -0.994350
35  1.196300 0.000078 -0.000004  -0.021521 0.002175 -0.839738
36  3.883414 -0.050472 -0.431085  0.184824 -0.271737 -1.204030
37  1.719563 -0.000086 -0.000004  0.022858 -0.107186 -1.509108
38  1.209198 0.000035 0.000011  0.000661 0.071072 -0.480462
39  3.859590 -0.149082 -1.331321  -0.104061 -0.070249 -0.272073
40  1.719415 -0.000098 -0.000035  -0.013177 0.003907 -1.203491
41  1.099673 0.000023 0.000007  -0.005887 -0.007993 -0.771205
42  0.805984 -0.359847 -1.318339  0.991670 0.166767 -0.799527
43  1.789780 -0.000008 -0.000043  0.000058 -0.002451 0.133098
44  1.206996 -0.000006 0.000005  0.000372 -0.000071 1.058780
45  5.740574 0.000079 0.000721  0.172988 -0.000014 0.000028
46  11.480808 -0.000104 0.000937  0.056329 0.082927 0.146118
47  6.027515 -0.000273 -0.000230  -0.908313 -0.521741 -1.710602
48  -0.000001 11.691975 -0.000005  -1.230034 0.674890 0.921960
49  0.000004 -0.000001 -0.000000  2.413977 -0.000036 1.570860
50  -0.000007 -0.000014 0.000005  2.272645 -0.000036 1.570861
51  -3.427709 -3.762528 -6.850091  -0.079335 -2.997213 1.465905
52  -0.000000 0.000000 0.000001  0.008153 -0.000259 0.000009
53  0.000000 0.000000 -0.000000  1.565115 0.043565 -0.106862
54  -0.367910 -15.825246 -5.629812  -0.757337 -0.138927 -1.950368
55  -0.000001 0.000000 -0.000000  0.000000 -0.000001 -0.000002
56  0.000029 0.000029 0.000001  -1.571902 -0.044449 -0.106509
57  5.185302 -16.056248 -16.646038  1.570796 -0.000000 0.000000
58  -15.417985 4.000748 -22.641926  1.570796 -0.000000 0.000000
59  2.236387 -0.189356 -5.037201  1.570796 -0.000000 0.000000
60  -0.004311 0.001230 -0.000371  0.006898 -0.005534 -0.284229
61  0.826810 10.209643 -4.879054  1.570796 -0.000000 0.000000
62  0.000000 0.000000 0.000000  -0.078727 -3.136056 0.284226
63  -2.240596 -3.247336 -0.249455  1.570796 -0.000000 0.000000
64  -2.286229 -8.210279 -1.348800  1.571428 0.001249 -0.000022
65  0.002681 -3.204031 0.621195  -0.000000 -0.000000 0.000000
66  0.048105 -1.112260 5.803837  -0.000000 0.000000 0.000706
67  -1.184782 0.539746 -0.284904  -0.000000 0.000000 0.000000
68  0.047884 -1.610073 21.020462  -0.000000 -0.000000 0.000000
69  0.047881 -3.319713 2.472855  -0.000000 -0.000000 0.000000
70  0.172180 -2.040368 3.568006  -0.000000 -0.000000 0.000000
71  0.654947 -2.537531 2.477231  -0.000000 -0.000000 0.000000
72  -3.588360 -1.097282 -23.660017  1.570796 -0.000000 0.000000
73  0.017809 1.799356 -0.402361  0.000000 -0.000000 0.000000
74  -2.288975 -12.914078 -5.448945  1.571428 0.001249 -0.000022
75  0.031323 2.100358 -1.138381  -0.000000 -0.000000 0.000000
76  -0.024051 1.849583 -1.138378  -0.000000 -0.000000 0.000000
time 13
0  0.000006 0.000000 0.000000  -1.570800 -1.391899 -1.570792
1  -4.921969 1.082092 2.232071  -1.544956 -1.855077 -0.198630
2  6.027524 -0.000323 0.000190  -0.748052 -0.994091 -1.549994
3  11.692109 0.000644 -0.000738  -0.890211 -0.000018 -1.396613
4  11.479883 0.000219 -0.000896  1.223820 -0.606264 0.360082
5  3.859504 -0.142823 -1.192079  -0.573871 -0.316762 -1.795816
6  1.312589 0.000010 0.000008  -0.135121 -0.003384 -0.178728
7  0.729354 0.000054 0.000050  -0.006155 -0.010667 -0.248915
8  3.942141 0.046331 -0.431543  -0.497018 0.100803 -1.231861
9  1.539111 0.000083 0.000004  -0.000382 -0.119364 -0.902013
10  1.196332 0.000145 0.000028  0.012615 0.002795 -0.535714
11  3.883512 -0.047211 0.431351  -0.283712 0.421833 -0.633459
12  1.719572 -0.000028 0.000015  0.057360 -0.144594 -1.427911
13  1.209181 0.000089 0.000012  -0.003667 -0.003000 -0.405259
14  4.085236 -0.082652 1.151009  0.076971 0.573771 0.038997
15  1.719449 -0.000019 0.000027  0.015664 -0.064932 -0.867211
16  1.099676 0.000049 0.000005  -0.075642 0.030056 -1.536734
17  0.869863 -1.165527 1.469023  -1.184630 -0.527540 -0.152316
18  1.789819 -0.000002 -0.000018  0.000001 -0.000027 0.636398
19  1.207016 -0.000013 -0.000044  0.000006 -0.000006 -0.137935
20  5.740635 0.000389 -0.000700  -0.109129 0.000003 0.000063
21  11.480984 0.000222 -0.000831  -0.042883 -0.109318 0.037931
22  6.027524 -0.000330 0.000200  1.600842 -0.576094 1.536481
23  -0.000000 11.692098 -0.000006  -0.967847 -0.419855 -0.770187
24  0.000003 0.000009 -0.000000  -0.021116 -0.000031 1.570739
25  0.000000 -0.000012 0.000001  0.868960 0.000002 1.570712
26  -6.617934 -9.178503 0.826812  1.473120 1.855075 -0.198639
27  6.027513 -0.000259 -0.000221  1.520696 0.753123 -0.708415
28  11.691992 0.000161 0.000856  0.141449 0.000073 -1.840840
29  11.479323 -0.000883 0.000958  -1.142223 0.380282 0.888840
30  3.859437 -0.132759 1.193066  0.469647 -0.013262 -1.872395
31  1.312559 0.000026 -0.000001  0.024060 -0.138696 -0.550187
32  0.729346 0.000065 -0.000028  -0.166197 -0.081570 -0.714272
33  3.942046 0.050139 0.431001  0.225309 -0.086237 -1.592712
34  1.539096 0.000005 -0.000000  0.035254 -0.050373 -0.994350
35  1.196300 0.000077 -0.000003  -0.021521 0.002175 -0.839738
36  3.883413 -0.050473 -0.431084  0.184824 -0.271737 -1.204030
37  1.719563 -0.000085 -0.000004  0.022858 -0.107186 -1.509108
38  1.209199 0.000035 0.000012  0.000662 0.071072 -0.480462
39  3.859588 -0.149083 -1.331320  -0.104061 -0.070249 -0.272073
40  1.719415 -0.000098 -0.000035  -0.013177 0.003907 -1.203491
41  1.099674 0.000023 0.000006  -0.005887 -0.007993 -0.771205
42  0.805983 -0.359848 -1.318338  0.991670 0.166767 -0.799527
43  1.789780 -0.000008 -0.000042  0.000058 -0.002451 0.133097
44  1.206996 -0.000007 0.000005  0.000372 -0.000071 1.058781
45  5.740575 0.000078 0.000721  0.173257 -0.000014 0.000028
46  11.480810 -0.000104 0.000937  0.056576 0.083069 0.146078
47  6.027515 -0.000273 -0.000230  -0.908947 -0.521726 -1.710203
48  -0.000002 11.691977 -0.000006  -1.229730 0.674577 0.921818
49  0.000003 -0.000000 0.000000  2.413977 -0.000036 1.570860
50  -0.000008 -0.000013 0.000005  2.272645 -0.000036 1.570861
51  -3.422235 -3.766717 -6.849776  -0.078024 -2.997471 1.465890
52  0.000000 -0.000000 -0.000000  0.008153 -0.000259 0.000009
53  -0.000000 0.000000 0.000000  1.565115 0.043565 -0.106862
54  -0.361949 -15.829051 -5.626926  -0.756147 -0.138326 -1.950358
55  -0.000001 -0.000000 0.000001  0.000000 -0.000001 -0.000002
56  0.000029 0.000029 0.000001  -1.571902 -0.044449 -0.106509
57  5.185302 -16.056248 -16.646038  1.570796 -0.000000 0.000000
58  -15.417985 4.000748 -22.641926  1.570796 -0.000000 0.000000
59  2.236387 -0.189356 -5.037201  1.570796 -0.000000 0.000000
60  -0.004311 0.001230 -0.000371  0.006898 -0.005534 -0.284229
61  0.826810 10.209643 -4.879054  1.570796 -0.000000 0.000000
62  0.000000 0.000000 0.000000  -0.078727 -3.136056 0.284226
63  -2.240596 -3.247336 -0.249455  1.570796 -0.000000 0.000000
64  -2.287228 -8.214935 -1.347525  1.571549 -0.000068 0.000152
65  0.002681 -3.204031 0.621196  -0.000000 -0.000000 -0.000000
66  0.048105 -1.112260 5.803836  -0.000000 0.000000 0.000247
67  -1.184782 0.539746 -0.284905  0.000000 0.000000 -0.000000
68  0.047884 -1.610073 21.020466  -0.000000 -0.000000 -0.000000
69  0.047881 -3.319714 2.472854  -0.000000 -0.000000 -0.000000
70  0.172180 -2.040368 3.568006  -0.000000 -0.000000 -0.000000
71  0.654947 -2.537531 2.477229  -0.000000 -0.000000 -0.000000
72  -3.588360 -1.097282 -23.660017  1.570796 -0.000000 0.000000
73  0.017809 1.799356 -0.402361  0.000000 -0.000000 0.000000
74  -2.283756 -12.918238 -5.448238  1.571549 -0.000068 0.000152
75  0.031323 2.100358 -1.138382  -0.000000 -0.000000 -0.000000
76  -0.024051 1.849583 -1.138378  -0.000000 -0.000000 -0.000000
time 14
0  0.000006 0.000000 0.000000  -1.570800 -1.391899 -1.570792
1  -4.921969 1.082092 2.232071  -1.544956 -1.855077 -0.198630
2  6.027524 -0.000323 0.000190  -0.748166 -0.994294 -1.550403
3  11.692106 0.000644 -0.000739  -0.890211 -0.000018 -1.395934
4  11.479887 0.000219 -0.000894  1.224574 -0.605808 0.360152
5  3.859502 -0.142823 -1.192080  -0.573871 -0.316762 -1.795816
6  1.312588 0.000011 0.000007  -0.135121 -0.003384 -0.178728
7  0.729354 0.000055 0.000051  -0.006155 -0.010667 -0.248915
8  3.942139 0.046331 -0.431543  -0.497018 0.100802 -1.231861
9  1.539110 0.000083 0.000003  -0.000382 -0.119364 -0.902013
10  1.196333 0.000145 0.000028  0.012615 0.002795 -0.535714
11  3.883510 -0.047211 0.431351  -0.283712 0.421834 -0.633459
12  1.719572 -0.000029 0.000017  0.057360 -0.144594 -1.427911
13  1.209180 0.000089 0.000013  -0.003667 -0.003000 -0.405259
14  4.085235 -0.082653 1.151009  0.076971 0.573771 0.038997
15  1.719447 -0.000018 0.000028  0.015664 -0.064932 -0.867211
16  1.099675 0.000052 0.000005  -0.075642 0.030056 -1.536734
17  0.869861 -1.165527 1.469022  -1.184630 -0.527539 -0.152316
18  1.789819 -0.000003 -0.000017  0.000001 -0.000027 0.636398
19  1.207013 -0.000013 -0.000043  0.000006 -0.000006 -0.137935
20  5.740636 0.000389 -0.000700  -0.108864 0.000003 0.000063
21  11.480985 0.000221 -0.000831  -0.042763 -0.109209 0.038009
22  6.027524 -0.000330 0.000200  1.600903 -0.575888 1.535943
23  0.000000 11.692099 -0.000006  -0.967440 -0.419494 -0.769915
24  0.000002 0.000008 0.000000  -0.021116 -0.000031 1.570739
25  0.000000 -0.000012 0.000002  0.868960 0.000002 1.570712
26  -6.617934 -9.178503 0.826812  1.473120 1.855075 -0.198639
27  6.027513 -0.000259 -0.000221  1.520589 0.753527 -0.708479
28  11.691990 0.000161 0.000856  0.141449 0.000073 -1.840068
29  11.479326 -0.000879 0.000957  -1.141731 0.380321 0.888460
30  3.859438 -0.132758 1.193064  0.469647 -0.013262 -1.872395
31  1.312559 0.000025 -0.000001  0.024060 -0.138696 -0.550187
32  0.729344 0.000065 -0.000027  -0.166197 -0.081570 -0.714272
33  3.942047 0.050139 0.431000  0.225309 -0.086237 -1.592712
34  1.539097 0.000005 -0.000001  0.035254 -0.050373 -0.994350
35  1.196301 0.000078 -0.000003  -0.021521 0.002175 -0.839738
36  3.883414 -0.050472 -0.431084  0.184824 -0.271737 -1.204030
37  1.719563 -0.000085 -0.000004  0.022858 -0.107186 -1.509108
38  1.209198 0.000035 0.000011  0.000661 0.071072 -0.480462
39  3.859589 -0.149082 -1.331321  -0.104061 -0.070249 -0.272073
40  1.719415 -0.000098 -0.000035  -0.013177 0.003907 -1.203491
41  1.099673 0.000022 0.000007  -0.005887 -0.007993 -0.771205
42  0.805984 -0.359848 -1.318338  0.991670 0.166767 -0.799527
43  1.789780 -0.000008 -0.000043  0.000058 -0.002451 0.133097
44  1.206997 -0.000007 0.000005  0.000372 -0.000071 1.058780
45  5.740573 0.000079 0.000721  0.173255 -0.000014 0.000028
46  11.480808 -0.000102 0.000936  0.056674 0.083101 0.145977
47  6.027515 -0.000273 -0.000230  -0.909388 -0.521574 -1.709974
48  -0.000002 11.691975 -0.000005  -1.229274 0.674107 0.921604
49  0.000002 -0.000002 -0.000000  2.413978 -0.000036 1.570860
50  -0.000007 -0.000015 0.000005  2.272645 -0.000036 1.570861
51  -3.420464 -3.773685 -6.850108  -0.077505 -2.997469 1.465885
52  0.000000 -0.000000 -0.000000  0.008153 -0.000259 0.000009
53  0.000000 0.000000 -0.000000  1.565115 0.043565 -0.106862
54  -0.359965 -15.835737 -5.625023  -0.755648 -0.138189 -1.950358
55  -0.000002 -0.000001 0.000001  0.000000 -0.000001 -0.000002
56  0.000029 0.000029 0.000002  -1.571901 -0.044449 -0.106509
57  5.185302 -16.056248 -16.646038  1.570796 -0.000000 0.000000
58  -15.417985 4.000748 -22.641926  1.570796 -0.000000 0.000000
59  2.236387 -0.189356 -5.037201  1.570796 -0.000000 0.000000
60  -0.004311 0.001230 -0.000371  0.006898 -0.005534 -0.284229
61  0.826810 10.209643 -4.879054  1.570796 -0.000000 0.000000
62  0.000000 0.000000 0.000000  -0.078727 -3.136056 0.284226
63  -2.240596 -3.247336 -0.249455  1.570796 -0.000000 0.000000
64  -2.287959 -8.221518 -1.347030  1.571493 -0.000578 0.000221
65  0.002681 -3.204031 0.621197  -0.000000 0.000000 -0.000000
66  0.048105 -1.112260 5.803836  -0.000000 0.000000 -0.000000
67  -1.184782 0.539746 -0.284903  -0.000000 0.000000 -0.000000
68  0.047884 -1.610073 21.020466  -0.000000 0.000000 -0.000000
69  0.047881 -3.319713 2.472856  -0.000000 0.000000 -0.000000
70  0.172181 -2.040368 3.568007  -0.000000 0.000000 -0.000000
71  0.654947 -2.537531 2.477231  -0.000000 0.000000 -0.000000
72  -3.588360 -1.097282 -23.660017  1.570796 -0.000000 0.000000
73  0.017809 1.799356 -0.402361  0.000000 -0.000000 0.000000
74  -2.282066 -12.925048 -5.447479  1.571493 -0.000578 0.000221
75  0.031323 2.100358 -1.138381  -0.000000 0.000000 -0.000000
76  -0.024051 1.849582 -1.138378  -0.000000 0.000000 -0.000000
time 15
0  0.000006 0.000000 0.000000  -1.570800 -1.391899 -1.570792
1  -4.921969 1.082092 2.232071  -1.544956 -1.855077 -0.198630
2  6.027524 -0.000323 0.000190  -0.747943 -0.994591 -1.550993
3  11.692108 0.000644 -0.000739  -0.890211 -0.000018 -1.394916
4  11.479895 0.000222 -0.000892  1.224977 -0.605166 0.359654
5  3.859505 -0.142822 -1.192079  -0.573871 -0.316762 -1.795817
6  1.312590 0.000011 0.000009  -0.135121 -0.003384 -0.178728
7  0.729354 0.000055 0.000049  -0.006155 -0.010667 -0.248915
8  3.942141 0.046332 -0.431543  -0.497018 0.100802 -1.231861
9  1.539110 0.000086 0.000004  -0.000382 -0.119364 -0.902013
10  1.196333 0.000145 0.000028  0.012615 0.002795 -0.535714
11  3.883510 -0.047211 0.431350  -0.283712 0.421834 -0.633459
12  1.719573 -0.000028 0.000016  0.057360 -0.144594 -1.427911
13  1.209180 0.000090 0.000011  -0.003667 -0.003000 -0.405259
14  4.085235 -0.082652 1.151008  0.076971 0.573771 0.038997
15  1.719449 -0.000018 0.000029  0.015664 -0.064932 -0.867211
16  1.099675 0.000047 0.000006  -0.075642 0.030056 -1.536734
17  0.869861 -1.165527 1.469022  -1.184630 -0.527539 -0.152316
18  1.789821 -0.000002 -0.000017  0.000001 -0.000026 0.636398
19  1.207016 -0.000013 -0.000043  0.000006 -0.000006 -0.137935
20  5.740636 0.000388 -0.000700  -0.108687 0.000003 0.000063
21  11.480986 0.000222 -0.000831  -0.042741 -0.109063 0.037963
22  6.027524 -0.000330 0.000200  1.600738 -0.575599 1.535630
23  -0.000001 11.692099 -0.000006  -0.966829 -0.418953 -0.769506
24  0.000002 0.000008 -0.000000  -0.021116 -0.000031 1.570739
25  -0.000000 -0.000012 0.000001  0.868960 0.000002 1.570712
26  -6.617934 -9.178503 0.826812  1.473120 1.855075 -0.198639
27  6.027513 -0.000259 -0.000221  1.520651 0.753867 -0.708471
28  11.691992 0.000160 0.000856  0.141449 0.000073 -1.839180
29  11.479334 -0.000874 0.000956  -1.141906 0.380298 0.887766
30  3.859438 -0.132758 1.193064  0.469647 -0.013262 -1.872395
31  1.312560 0.000026 -0.000002  0.024060 -0.138696 -0.550187
32  0.729345 0.000065 -0.000028  -0.166197 -0.081570 -0.714272
33  3.942046 0.050139 0.430999  0.225309 -0.086237 -1.592712
34  1.539097 0.000005 -0.000001  0.035254 -0.050373 -0.994350
35  1.196301 0.000078 -0.000003  -0.021521 0.002175 -0.839738
36  3.883413 -0.050472 -0.431084  0.184824 -0.271737 -1.204030
37  1.719564 -0.000084 -0.000004  0.022859 -0.107186 -1.509108
38  1.209198 0.000036 0.000012  0.000661 0.071072 -0.480462
39  3.859589 -0.149083 -1.331321  -0.104061 -0.070249 -0.272073
40  1.719415 -0.000099 -0.000035  -0.013177 0.003907 -1.203491
41  1.099674 0.000024 0.000007  -0.005887 -0.007993 -0.771205
42  0.805984 -0.359848 -1.318339  0.991670 0.166767 -0.799527
43  1.789780 -0.000009 -0.000042  0.000058 -0.002451 0.133097
44  1.206996 -0.000006 0.000005  0.000372 -0.000071 1.058780
45  5.740572 0.000079 0.000721  0.173080 -0.000014 0.000028
46  11.480811 -0.000101 0.000935  0.056665 0.083065 0.145851
47  6.027515 -0.000273 -0.000230  -0.909690 -0.521353 -1.709857
48  -0.000001 11.691975 -0.000006  -1.228749 0.673567 0.921358
49  0.000003 -0.000001 0.000000  2.413977 -0.000036 1.570860
50  -0.000007 -0.000014 0.000005  2.272645 -0.000036 1.570861
51  -3.420976 -3.781971 -6.850889  -0.077550 -2.997325 1.465869
52  0.000000 -0.000000 0.000001  0.008153 -0.000259 0.000009
53  0.000000 0.000000 -0.000000  1.565115 0.043565 -0.106862
54  -0.360682 -15.843922 -5.624308  -0.755652 -0.138340 -1.950380
55  0.000002 -0.000000 0.000000  0.000000 -0.000001 -0.000002
56  0.000032 0.000029 0.000001  -1.571902 -0.044449 -0.106509
57  5.185302 -16.056248 -16.646038  1.570796 -0.000000 0.000000
58  -15.417985 4.000748 -22.641926  1.570796 -0.000000 0.000000
59  2.236387 -0.189356 -5.037201  1.570796 -0.000000 0.000000
60  -0.004311 0.001230 -0.000371  0.006898 -0.005534 -0.284229
61  0.826810 10.209643 -4.879054  1.570796 -0.000000 0.000000
62  0.000000 0.000000 0.000000  -0.078727 -3.136056 0.284226
63  -2.240596 -3.247336 -0.249455  1.570796 -0.000000 0.000000
64  -2.288243 -8.229064 -1.347260  1.571354 -0.000518 0.000198
65  0.002681 -3.204031 0.621196  0.000000 0.000000 0.000000
66  0.048105 -1.112260 5.803837  0.000000 0.000000 0.000000
67  -1.184782 0.539746 -0.284904  0.000000 0.000000 0.000000
68  0.047884 -1.610073 21.020468  0.000000 0.000000 0.000000
69  0.047881 -3.319714 2.472855  0.000000 0.000000 0.000000
70  0.172180 -2.040368 3.568007  0.000000 0.000000 0.000000
71  0.654947 -2.537531 2.477231  0.000000 0.000000 0.000000
72  -3.588360 -1.097282 -23.660017  1.570796 -0.000000 0.000000
73  0.017809 1.799356 -0.402361  0.000000 -0.000000 0.000000
74  -2.282705 -12.933165 -5.447053  1.571354 -0.000518 0.000198
75  0.031323 2.100358 -1.138381  0.000000 0.000000 0.000000
76  -0.024051 1.849582 -1.138378  0.000000 0.000000 0.000000
time 16
0  0.000006 0.000000 0.000000  -1.570800 -1.391899 -1.570792
1  -4.921969 1.082092 2.232071  -1.544956 -1.855077 -0.198630
2  6.027524 -0.000323 0.000190  -0.747690 -0.994897 -1.551602
3  11.692107 0.000645 -0.000739  -0.890211 -0.000018 -1.393857
4  11.479898 0.000225 -0.000888  1.225355 -0.604460 0.359060
5  3.859503 -0.142823 -1.192080  -0.573871 -0.316762 -1.795817
6  1.312590 0.000010 0.000008  -0.135121 -0.003384 -0.178728
7  0.729353 0.000054 0.000051  -0.006155 -0.010667 -0.248915
8  3.942140 0.046332 -0.431543  -0.497018 0.100802 -1.231861
9  1.539111 0.000081 0.000003  -0.000382 -0.119364 -0.902013
10  1.196333 0.000146 0.000028  0.012615 0.002795 -0.535714
11  3.883509 -0.047212 0.431350  -0.283712 0.421834 -0.633459
12  1.719573 -0.000029 0.000017  0.057360 -0.144594 -1.427911
13  1.209179 0.000091 0.000013  -0.003667 -0.003000 -0.405259
14  4.085233 -0.082653 1.151008  0.076971 0.573771 0.038997
15  1.719448 -0.000019 0.000028  0.015664 -0.064932 -0.867211
16  1.099675 0.000048 0.000005  -0.075642 0.030056 -1.536734
17  0.869862 -1.165526 1.469022  -1.184630 -0.527540 -0.152316
18  1.789819 -0.000003 -0.000018  0.000001 -0.000026 0.636398
19  1.207013 -0.000013 -0.000044  0.000006 -0.000006 -0.137935
20  5.740635 0.000388 -0.000700  -0.108515 0.000003 0.000064
21  11.480986 0.000223 -0.000830  -0.042731 -0.108903 0.037899
22  6.027524 -0.000330 0.000200  1.600555 -0.575301 1.535332
23  0.000001 11.692099 -0.000007  -0.966192 -0.418391 -0.769081
24  0.000003 0.000009 0.000000  -0.021116 -0.000031 1.570739
25  0.000000 -0.000011 0.000000  0.868960 0.000002 1.570712
26  -6.617934 -9.178503 0.826812  1.473120 1.855075 -0.198639
27  6.027513 -0.000259 -0.000221  1.520687 0.754196 -0.708472
28  11.691991 0.000160 0.000856  0.141449 0.000073 -1.838268
29  11.479342 -0.000869 0.000956  -1.142175 0.380332 0.886998
30  3.859437 -0.132759 1.193065  0.469647 -0.013262 -1.872395
31  1.312559 0.000025 -0.000002  0.024060 -0.138696 -0.550187
32  0.729345 0.000065 -0.000027  -0.166197 -0.081570 -0.714272
33  3.942047 0.050138 0.431000  0.225309 -0.086237 -1.592712
34  1.539097 0.000005 -0.000001  0.035254 -0.050373 -0.994350
35  1.196300 0.000078 -0.000003  -0.021521 0.002175 -0.839738
36  3.883413 -0.050473 -0.431084  0.184824 -0.271737 -1.204030
37  1.719563 -0.000084 -0.000004  0.022859 -0.107186 -1.509108
38  1.209198 0.000036 0.000011  0.000661 0.071072 -0.480462
39  3.859588 -0.149083 -1.331321  -0.104061 -0.070249 -0.272073
40  1.719415 -0.000098 -0.000035  -0.013177 0.003907 -1.203491
41  1.099674 0.000023 0.000007  -0.005887 -0.007993 -0.771205
42  0.805984 -0.359848 -1.318337  0.991670 0.166767 -0.799527
43  1.789780 -0.000008 -0.000042  0.000058 -0.002451 0.133098
44  1.206996 -0.000007 0.000006  0.000372 -0.000071 1.058780
45  5.740573 0.000080 0.000721  0.172871 -0.000014 0.000028
46  11.480813 -0.000100 0.000936  0.056636 0.083030 0.145713
47  6.027515 -0.000273 -0.000230  -0.909993 -0.521154 -1.709733
48  -0.000001 11.691975 -0.000005  -1.228210 0.673013 0.921106
49  0.000004 -0.000001 -0.000000  2.413977 -0.000036 1.570860
50  -0.000007 -0.000013 0.000005  2.272645 -0.000036 1.570861
51  -3.421425 -3.790452 -6.852079  -0.077675 -2.997129 1.465832
52  0.000000 0.000000 -0.000001  0.008153 -0.000259 0.000009
53  0.000000 -0.000000 0.000000  1.565115 0.043565 -0.106862
54  -0.361617 -15.852348 -5.623752  -0.755719 -0.138562 -1.950426
55  -0.000000 -0.000000 -0.000000  0.000000 -0.000001 -0.000002
56  0.000030 0.000029 0.000001  -1.571901 -0.044449 -0.106509
57  5.185302 -16.056248 -16.646038  1.570796 -0.000000 0.000000
58  -15.417985 4.000748 -22.641926  1.570796 -0.000000 0.000000
59  2.236387 -0.189356 -5.037201  1.570796 -0.000000 0.000000
60  -0.004311 0.001230 -0.000371  0.006898 -0.005534 -0.284229
61  0.826810 10.209643 -4.879054  1.570796 -0.000000 0.000000
62  0.000000 0.000000 0.000000  -0.078727 -3.136056 0.284226
63  -2.240596 -3.247336 -0.249455  1.570796 -0.000000 0.000000
64  -2.288146 -8.236609 -1.347806  1.571172 -0.000375 0.000144
65  0.002681 -3.204031 0.621195  0.000000 -0.000000 0.000000
66  0.048105 -1.112260 5.803836  0.000000 0.000000 0.000000
67  -1.184782 0.539746 -0.284905  0.000000 -0.000000 0.000000
68  0.047884 -1.610073 21.020464  0.000000 -0.000000 0.000000
69  0.047881 -3.319714 2.472854  0.000000 -0.000000 0.000000
70  0.172180 -2.040369 3.568006  0.000000 -0.000000 0.000000
71  0.654947 -2.537531 2.477230  0.000000 -0.000000 0.000000
72  -3.588360 -1.097282 -23.660017  1.570796 -0.000000 0.000000
73  0.017809 1.799356 -0.402361  0.000000 -0.000000 0.000000
74  -2.283455 -12.941454 -5.446749  1.571172 -0.000375 0.000144
75  0.031322 2.100358 -1.138380  0.000000 -0.000000 0.000000
76  -0.024051 1.849583 -1.138377  0.000000 -0.000000 0.000000
time 17
0  0.000006 0.000000 0.000000  -1.570800 -1.391899 -1.570792
1  -4.921969 1.082092 2.232071  -1.544956 -1.855077 -0.198630
2  6.027524 -0.000323 0.000190  -0.747444 -0.995171 -1.552149
3  11.692107 0.000646 -0.000739  -0.890211 -0.000018 -1.392904
4  11.479904 0.000227 -0.000886  1.225668 -0.603812 0.358485
5  3.859501 -0.142823 -1.192079  -0.573871 -0.316762 -1.795817
6  1.312591 0.000009 0.000008  -0.135121 -0.003384 -0.178728
7  0.729355 0.000054 0.000051  -0.006155 -0.010667 -0.248915
8  3.942140 0.046332 -0.431542  -0.497018 0.100803 -1.231861
9  1.539110 0.000083 0.000003  -0.000382 -0.119364 -0.902013
10  1.196333 0.000145 0.000028  0.012615 0.002795 -0.535714
11  3.883510 -0.047211 0.431351  -0.283712 0.421834 -0.633459
12  1.719573 -0.000029 0.000017  0.057360 -0.144594 -1.427911
13  1.209180 0.000090 0.000013  -0.003667 -0.003000 -0.405259
14  4.085235 -0.082652 1.151009  0.076971 0.573771 0.038997
15  1.719448 -0.000019 0.000027  0.015664 -0.064932 -0.867211
16  1.099675 0.000049 0.000004  -0.075642 0.030056 -1.536734
17  0.869860 -1.165527 1.469023  -1.184630 -0.527539 -0.152316
18  1.789819 -0.000002 -0.000017  0.000001 -0.000026 0.636398
19  1.207017 -0.000013 -0.000043  0.000006 -0.000006 -0.137935
20  5.740635 0.000388 -0.000700  -0.108369 0.000003 0.000063
21  11.480988 0.000222 -0.000830  -0.042729 -0.108757 0.037832
22  6.027524 -0.000330 0.000200  1.600377 -0.575034 1.535089
23  0.000000 11.692098 -0.000007  -0.965620 -0.417885 -0.768698
24  0.000005 0.000010 -0.000002  -0.021116 -0.000031 1.570739
25  0.000000 -0.000011 0.000000  0.868959 0.000002 1.570712
26  -6.617934 -9.178503 0.826812  1.473120 1.855075 -0.198639
27  6.027513 -0.000259 -0.000221  1.520712 0.754473 -0.708475
28  11.691992 0.000161 0.000857  0.141449 0.000073 -1.837462
29  11.479349 -0.000864 0.000953  -1.142465 0.380389 0.886287
30  3.859437 -0.132758 1.193065  0.469647 -0.013262 -1.872395
31  1.312559 0.000025 -0.000001  0.024060 -0.138696 -0.550187
32  0.729346 0.000065 -0.000027  -0.166197 -0.081570 -0.714272
33  3.942047 0.050139 0.431000  0.225309 -0.086237 -1.592712
34  1.539097 0.000005 -0.000000  0.035254 -0.050373 -0.994350
35  1.196300 0.000078 -0.000004  -0.021521 0.002175 -0.839738
36  3.883414 -0.050472 -0.431084  0.184824 -0.271737 -1.204030
37  1.719564 -0.000084 -0.000005  0.022858 -0.107186 -1.509108
38  1.209197 0.000036 0.000011  0.000661 0.071072 -0.480462
39  3.859589 -0.149083 -1.331321  -0.104061 -0.070249 -0.272073
40  1.719416 -0.000098 -0.000035  -0.013177 0.003907 -1.203491
41  1.099674 0.000023 0.000007  -0.005887 -0.007993 -0.771205
42  0.805984 -0.359847 -1.318338  0.991670 0.166767 -0.799527
43  1.789780 -0.000009 -0.000042  0.000058 -0.002451 0.133097
44  1.206996 -0.000007 0.000005  0.000372 -0.000071 1.058780
45  5.740572 0.000079 0.000721  0.172670 -0.000014 0.000028
46  11.480813 -0.000098 0.000936  0.056599 0.083000 0.145586
47  6.027515 -0.000273 -0.000230  -0.910251 -0.520989 -1.709624
48  -0.000001 11.691976 -0.000006  -1.227734 0.672522 0.920882
49  0.000002 0.000000 0.000000  2.413977 -0.000036 1.570860
50  -0.000008 -0.000014 0.000005  2.272645 -0.000036 1.570861
51  -3.421863 -3.797957 -6.853342  -0.077828 -2.996932 1.465788
52  0.000000 0.000000 0.000000  0.008153 -0.000259 0.000009
53  0.000000 0.000000 -0.000000  1.565115 0.043565 -0.106862
54  -0.362636 -15.859833 -5.623355  -0.755811 -0.138793 -1.950479
55  0.000000 0.000000 -0.000001  0.000000 -0.000001 -0.000002
56  0.000030 0.000028 0.000001  -1.571902 -0.044449 -0.106509
57  5.185302 -16.056248 -16.646038  1.570796 -0.000000 0.000000
58  -15.417985 4.000748 -22.641926  1.570796 -0.000000 0.000000
59  2.236387 -0.189356 -5.037201  1.570796 -0.000000 0.000000
60  -0.004311 0.001230 -0.000371  0.006898 -0.005534 -0.284229
61  0.826810 10.209643 -4.879054  1.570796 -0.000000 0.000000
62  0.000000 0.000000 0.000000  -0.078727 -3.136056 0.284226
63  -2.240596 -3.247336 -0.249455  1.570796 -0.000000 0.000000
64  -2.287933 -8.243193 -1.348459  1.570991 -0.000204 0.000078
65  0.002680 -3.204031 0.621197  0.000000 0.000000 -0.000000
66  0.048105 -1.112260 5.803838  0.000000 0.000000 -0.000000
67  -1.184783 0.539746 -0.284905  0.000000 0.000000 -0.000000
68  0.047883 -1.610073 21.020466  0.000000 0.000000 -0.000000
69  0.047881 -3.319714 2.472855  0.000000 0.000000 -0.000000
70  0.172180 -2.040368 3.568007  0.000000 0.000000 -0.000000
71  0.654947 -2.537531 2.477230  0.000000 0.000000 -0.000000
72  -3.588360 -1.097282 -23.660017  1.570796 -0.000000 0.000000
73  0.017809 1.799356 -0.402361  0.000000 -0.000000 0.000000
74  -2.284252 -12.948780 -5.446550  1.570991 -0.000204 0.000078
75  0.031323 2.100358 -1.138379  0.000000 0.000000 -0.000000
76  -0.024051 1.849582 -1.138377  0.000000 0.000000 -0.000000
time 18
0  0.000006 0.000000 0.000000  -1.570800 -1.391899 -1.570792
1  -4.921969 1.082092 2.232071  -1.544956 -1.855077 -0.198630
2  6.027524 -0.000323 0.000190  -0.747256 -0.995370 -1.552544
3  11.692109 0.000645 -0.000740  -0.890211 -0.000018 -1.392216
4  11.479910 0.000228 -0.000884  1.225882 -0.603338 0.358051
5  3.859504 -0.142823 -1.192080  -0.573871 -0.316762 -1.795817
6  1.312590 0.000008 0.000008  -0.135121 -0.003384 -0.178728
7  0.729353 0.000055 0.000049  -0.006155 -0.010667 -0.248915
8  3.942141 0.046331 -0.431543  -0.497018 0.100802 -1.231861
9  1.539110 0.000085 0.000003  -0.000382 -0.119364 -0.902014
10  1.196332 0.000148 0.000028  0.012615 0.002795 -0.535714
11  3.883513 -0.047212 0.431351  -0.283712 0.421834 -0.633459
12  1.719574 -0.000031 0.000017  0.057360 -0.144594 -1.427911
13  1.209179 0.000090 0.000012  -0.003667 -0.003000 -0.405259
14  4.085235 -0.082653 1.151009  0.076971 0.573771 0.038997
15  1.719449 -0.000020 0.000028  0.015664 -0.064932 -0.867211
16  1.099675 0.000049 0.000005  -0.075642 0.030056 -1.536734
17  0.869863 -1.165527 1.469023  -1.184630 -0.527540 -0.152316
18  1.789820 -0.000002 -0.000017  0.000001 -0.000027 0.636398
19  1.207013 -0.000013 -0.000044  0.000006 -0.000006 -0.137935
20  5.740637 0.000388 -0.000700  -0.108268 0.000003 0.000064
21  11.480990 0.000223 -0.000828  -0.042731 -0.108650 0.037779
22  6.027524 -0.000330 0.000200  1.600243 -0.574841 1.534925
23  0.000001 11.692099 -0.000006  -0.965207 -0.417520 -0.768422
24  0.000003 0.000008 -0.000001  -0.021116 -0.000031 1.570739
25  0.000000 -0.000011 0.000001  0.868960 0.000002 1.570712
26  -6.617934 -9.178503 0.826812  1.473120 1.855075 -0.198639
27  6.027513 -0.000259 -0.000221  1.520725 0.754664 -0.708479
28  11.691992 0.000161 0.000857  0.141449 0.000073 -1.836885
29  11.479355 -0.000863 0.000954  -1.142696 0.380442 0.885762
30  3.859437 -0.132758 1.193064  0.469647 -0.013262 -1.872395
31  1.312559 0.000025 -0.000001  0.024060 -0.138696 -0.550187
32  0.729346 0.000065 -0.000027  -0.166197 -0.081570 -0.714273
33  3.942046 0.050139 0.430999  0.225309 -0.086237 -1.592712
34  1.539097 0.000005 -0.000001  0.035254 -0.050373 -0.994350
35  1.196300 0.000077 -0.000003  -0.021521 0.002175 -0.839738
36  3.883414 -0.050472 -0.431085  0.184824 -0.271737 -1.204030
37  1.719563 -0.000085 -0.000004  0.022859 -0.107186 -1.509108
38  1.209197 0.000035 0.000010  0.000661 0.071072 -0.480462
39  3.859589 -0.149083 -1.331322  -0.104061 -0.070249 -0.272073
40  1.719414 -0.000098 -0.000035  -0.013177 0.003907 -1.203491
41  1.099674 0.000022 0.000007  -0.005887 -0.007993 -0.771205
42  0.805984 -0.359848 -1.318339  0.991670 0.166767 -0.799527
43  1.789779 -0.000008 -0.000042  0.000058 -0.002451 0.133098
44  1.206997 -0.000007 0.000005  0.000372 -0.000071 1.058780
45  5.740575 0.000078 0.000720  0.172519 -0.000014 0.000028
46  11.480816 -0.000099 0.000936  0.056568 0.082979 0.145492
47  6.027515 -0.000273 -0.000230  -0.910431 -0.520877 -1.709548
48  -0.000003 11.691976 -0.000006  -1.227393 0.672172 0.920722
49  0.000002 0.000002 -0.000001  2.413977 -0.000036 1.570860
50  -0.000008 -0.000013 0.000005  2.272645 -0.000036 1.570861
51  -3.422195 -3.803318 -6.854345  -0.077958 -2.996778 1.465752
52  0.000000 0.000000 0.000001  0.008153 -0.000259 0.000009
53  0.000000 -0.000000 -0.000001  1.565115 0.043565 -0.106862
54  -0.363455 -15.865191 -5.623116  -0.755894 -0.138976 -1.950522
55  -0.000001 0.000000 0.000000  0.000000 -0.000001 -0.000002
56  0.000030 0.000029 0.000002  -1.571902 -0.044449 -0.106509
57  5.185302 -16.056248 -16.646038  1.570796 -0.000000 0.000000
58  -15.417985 4.000748 -22.641926  1.570796 -0.000000 0.000000
59  2.236387 -0.189356 -5.037201  1.570796 -0.000000 0.000000
60  -0.004311 0.001230 -0.000371  0.006898 -0.005534 -0.284229
61  0.826810 10.209643 -4.879054  1.570796 -0.000000 0.000000
62  0.000000 0.000000 0.000000  -0.078727 -3.136056 0.284226
63  -2.240596 -3.247336 -0.249455  1.570796 -0.000000 0.000000
64  -2.287720 -8.247849 -1.349006  1.570852 -0.000060 0.000023
65  0.002681 -3.204031 0.621196  0.000000 0.000000 0.000000
66  0.048105 -1.112260 5.803836  0.000000 0.000000 -0.000000
67  -1.184782 0.539746 -0.284905  -0.000000 0.000000 -0.000000
68  0.047884 -1.610073 21.020464  0.000000 0.000000 0.000000
69  0.047881 -3.319714 2.472854  0.000000 0.000000 0.000000
70  0.172180 -2.040368 3.568007  0.000000 0.000000 0.000000
71  0.654947 -2.537531 2.477230  0.000000 0.000000 0.000000
72  -3.588360 -1.097282 -23.660017  1.570796 -0.000000 0.000000
73  0.017809 1.799356 -0.402361  0.000000 -0.000000 0.000000
74  -2.284885 -12.954006 -5.446442  1.570852 -0.000060 0.000023
75  0.031323 2.100358 -1.138380  0.000000 0.000000 0.000000
76  -0.024051 1.849582 -1.138378  0.000000 0.000000 0.000000
time 19
0  0.000006 0.000000 0.000000  -1.570800 -1.391899 -1.570792
1  -4.921969 1.082092 2.232071  -1.544956 -1.855077 -0.198630
2  6.027524 -0.000323 0.000190  -0.747182 -0.995446 -1.552695
3  11.692107 0.000645 -0.000740  -0.890211 -0.000018 -1.391952
4  11.479911 0.000229 -0.000885  1.225960 -0.603154 0.357879
5  3.859502 -0.142824 -1.192079  -0.573871 -0.316762 -1.795817
6  1.312591 0.000009 0.000007  -0.135121 -0.003384 -0.178728
7  0.729354 0.000055 0.000049  -0.006155 -0.010667 -0.248915
8  3.942140 0.046330 -0.431542  -0.497018 0.100803 -1.231861
9  1.539110 0.000083 0.000004  -0.000382 -0.119364 -0.902013
10  1.196330 0.000145 0.000028  0.012615 0.002795 -0.535714
11  3.883509 -0.047213 0.431351  -0.283712 0.421834 -0.633459
12  1.719573 -0.000029 0.000017  0.057360 -0.144594 -1.427911
13  1.209179 0.000089 0.000011  -0.003667 -0.003000 -0.405259
14  4.085234 -0.082653 1.151009  0.076971 0.573771 0.038997
15  1.719450 -0.000017 0.000029  0.015664 -0.064932 -0.867211
16  1.099675 0.000049 0.000006  -0.075642 0.030056 -1.536734
17  0.869860 -1.165528 1.469023  -1.184630 -0.527540 -0.152316
18  1.789820 -0.000003 -0.000018  0.000001 -0.000026 0.636398
19  1.207013 -0.000013 -0.000044  0.000006 -0.000006 -0.137935
20  5.740637 0.000389 -0.000702  -0.108229 0.000003 0.000064
21  11.480989 0.000223 -0.000831  -0.042733 -0.108608 0.037758
22  6.027524 -0.000330 0.000200  1.600190 -0.574767 1.534864
23  -0.000001 11.692100 -0.000007  -0.965049 -0.417379 -0.768316
24  0.000003 0.000008 0.000001  -0.021116 -0.000031 1.570738
25  -0.000000 -0.000012 0.000001  0.868960 0.000002 1.570712
26  -6.617934 -9.178503 0.826812  1.473120 1.855075 -0.198639
27  6.027513 -0.000259 -0.000221  1.520730 0.754736 -0.708481
28  11.691992 0.000161 0.000857  0.141449 0.000072 -1.836665
29  11.479355 -0.000861 0.000954  -1.142790 0.380466 0.885558
30  3.859437 -0.132758 1.193066  0.469647 -0.013262 -1.872395
31  1.312559 0.000026 -0.000001  0.024060 -0.138696 -0.550187
32  0.729344 0.000065 -0.000026  -0.166197 -0.081570 -0.714272
33  3.942046 0.050139 0.431001  0.225309 -0.086237 -1.592712
34  1.539096 0.000005 -0.000001  0.035254 -0.050373 -0.994350
35  1.196300 0.000078 -0.000003  -0.021521 0.002175 -0.839738
36  3.883414 -0.050472 -0.431084  0.184824 -0.271737 -1.204030
37  1.719563 -0.000085 -0.000005  0.022859 -0.107186 -1.509108
38  1.209198 0.000035 0.000012  0.000661 0.071072 -0.480462
39  3.859588 -0.149083 -1.331320  -0.104061 -0.070249 -0.272073
40  1.719415 -0.000098 -0.000035  -0.013177 0.003907 -1.203491
41  1.099674 0.000021 0.000007  -0.005887 -0.007993 -0.771205
42  0.805984 -0.359848 -1.318338  0.991670 0.166767 -0.799527
43  1.789780 -0.000008 -0.000043  0.000058 -0.002451 0.133098
44  1.206996 -0.000007 0.000005  0.000372 -0.000071 1.058780
45  5.740571 0.000079 0.000721  0.172460 -0.000014 0.000028
46  11.480814 -0.000098 0.000936  0.056555 0.082971 0.145456
47  6.027515 -0.000273 -0.000230  -0.910498 -0.520836 -1.709520
48  -0.000000 11.691973 -0.000005  -1.227263 0.672038 0.920661
49  0.000002 -0.000002 0.000001  2.413977 -0.000036 1.570860
50  -0.000006 -0.000014 0.000005  2.272645 -0.000036 1.570861
51  -3.422328 -3.805365 -6.854754  -0.078012 -2.996716 1.465737
52  0.000000 -0.000000 0.000000  0.008153 -0.000259 0.000009
53  0.000000 -0.000000 0.000001  1.565115 0.043565 -0.106862
54  -0.363791 -15.867239 -5.623037  -0.755929 -0.139050 -1.950540
55  -0.000001 -0.000000 0.000000  0.000000 -0.000001 -0.000002
56  0.000029 0.000028 0.000002  -1.571901 -0.044449 -0.106509
57  5.185302 -16.056248 -16.646038  1.570796 -0.000000 0.000000
58  -15.417985 4.000748 -22.641926  1.570796 -0.000000 0.000000
59  2.236387 -0.189356 -5.037201  1.570796 -0.000000 0.000000
60  -0.004311 0.001230 -0.000371  0.006898 -0.005534 -0.284229
61  0.826810 10.209643 -4.879054  1.570796 -0.000000 0.000000
62  0.000000 0.000000 0.000000  -0.078727 -3.136056 0.284226
63  -2.240596 -3.247336 -0.249455  1.570796 -0.000000 0.000000
64  -2.287624 -8.249615 -1.349235  1.570796 0.000000 0.000000
65  0.002681 -3.204031 0.621196  0.000000 -0.000000 0.000000
66  0.048105 -1.112260 5.803837  0.000000 0.000000 -0.000000
67  -1.184782 0.539746 -0.284905  0.000000 -0.000000 -0.000000
68  0.047884 -1.610073 21.020466  0.000000 -0.000000 0.000000
69  0.047881 -3.319714 2.472855  0.000000 -0.000000 0.000000
70  0.172180 -2.040368 3.568007  0.000000 -0.000000 0.000000
71  0.654947 -2.537531 2.477230  0.000000 -0.000000 0.000000
72  -3.588360 -1.097282 -23.660017  1.570796 -0.000000 0.000000
73  0.017809 1.799356 -0.402361  0.000000 -0.000000 0.000000
74  -2.285144 -12.956001 -5.446409  1.570796 0.000000 0.000000
75  0.031323 2.100358 -1.138380  0.000000 -0.000000 0.000000
76  -0.024051 1.849582 -1.138377  0.000000 -0.000000 0.000000
end
