version 1
nodes
0 "ValveBiped.Bip01_Spine4" -1
1 "ValveBiped.Bip01_L_Clavicle" 0
2 "ValveBiped.Bip01_L_UpperArm" 1
3 "ValveBiped.Bip01_L_Forearm" 2
4 "ValveBiped.Bip01_L_Hand" 3
5 "ValveBiped.Bip01_L_Finger4" 4
6 "ValveBiped.Bip01_L_Finger41" 5
7 "ValveBiped.Bip01_L_Finger42" 6
8 "ValveBiped.Bip01_L_Finger3" 4
9 "ValveBiped.Bip01_L_Finger31" 8
10 "ValveBiped.Bip01_L_Finger32" 9
11 "ValveBiped.Bip01_L_Finger2" 4
12 "ValveBiped.Bip01_L_Finger21" 11
13 "ValveBiped.Bip01_L_Finger22" 12
14 "ValveBiped.Bip01_L_Finger1" 4
15 "ValveBiped.Bip01_L_Finger11" 14
16 "ValveBiped.Bip01_L_Finger12" 15
17 "ValveBiped.Bip01_L_Finger0" 4
18 "ValveBiped.Bip01_L_Finger01" 17
19 "ValveBiped.Bip01_L_Finger02" 18
20 "ValveBiped.Bip01_L_Ulna" 3
21 "ValveBiped.Bip01_L_Wrist" 3
22 "rig_l_upperarm" 1
23 "rig_l_forearm" 22
24 "rig_d_l_forearm" 23
25 "rig_d_l_upperarm" 22
26 "ValveBiped.Bip01_R_Clavicle" 0
27 "ValveBiped.Bip01_R_UpperArm" 26
28 "ValveBiped.Bip01_R_Forearm" 27
29 "ValveBiped.Bip01_R_Hand" 28
30 "ValveBiped.Bip01_R_Finger4" 29
31 "ValveBiped.Bip01_R_Finger41" 30
32 "ValveBiped.Bip01_R_Finger42" 31
33 "ValveBiped.Bip01_R_Finger3" 29
34 "ValveBiped.Bip01_R_Finger31" 33
35 "ValveBiped.Bip01_R_Finger32" 34
36 "ValveBiped.Bip01_R_Finger2" 29
37 "ValveBiped.Bip01_R_Finger21" 36
38 "ValveBiped.Bip01_R_Finger22" 37
39 "ValveBiped.Bip01_R_Finger1" 29
40 "ValveBiped.Bip01_R_Finger11" 39
41 "ValveBiped.Bip01_R_Finger12" 40
42 "ValveBiped.Bip01_R_Finger0" 29
43 "ValveBiped.Bip01_R_Finger01" 42
44 "ValveBiped.Bip01_R_Finger02" 43
45 "ValveBiped.Bip01_R_Ulna" 28
46 "ValveBiped.Bip01_R_Wrist" 28
47 "rig_r_upperarm" 26
48 "rig_r_forearm" 47
49 "rig_d_r_forearm" 48
50 "rig_d_r_upperarm" 47
51 "rig_r_hand" -1
52 "rig_d_r_hand" 51
53 "rig_d_r_wrist" 52
54 "rig_l_hand" -1
55 "rig_d_l_hand" 54
56 "rig_d_l_wrist" 54
57 "rig_l_pole" -1
58 "rig_r_pole" -1
59 "rig_l_clavicle" -1
60 "rig_d_l_clavicle" 59
61 "rig_r_clavicle" -1
62 "rig_d_r_clavicle" 61
63 "Camera" -1
64 "body" -1
65 "trigger" 64
66 "bolt" 64
67 "chandle" 66
68 "barrel" 64
69 "magrel" 64
70 "bullet1" 64
71 "boltrelease" 64
72 "mag" -1
73 "fakerounds" 72
74 "fakemag" -1
75 "bullet2" 74
76 "bullet3" 74
end
skeleton
time 0
0  0.000006 0.000000 0.000000  -1.570800 -1.391899 -1.570792
1  -4.921969 1.082092 2.232071  -1.544956 -1.855077 -0.198630
2  6.027524 -0.000323 0.000190  -0.732687 -0.996598 -1.554878
3  11.692109 0.000643 -0.000739  -0.890210 -0.000018 -1.385890
4  11.479946 0.000240 -0.000866  1.197175 -0.611554 0.325392
5  3.859504 -0.142824 -1.192080  -0.573871 -0.316762 -1.795816
6  1.312590 0.000012 0.000009  -0.135121 -0.003384 -0.178728
7  0.729354 0.000055 0.000048  -0.006155 -0.010667 -0.248915
8  3.942142 0.046330 -0.431543  -0.497018 0.100803 -1.231861
9  1.539110 0.000083 0.000005  -0.000381 -0.119364 -0.902013
10  1.196334 0.000145 0.000029  0.012615 0.002795 -0.535714
11  3.883511 -0.047212 0.431351  -0.283712 0.421834 -0.633459
12  1.719574 -0.000028 0.000018  0.057360 -0.144594 -1.427911
13  1.209180 0.000090 0.000012  -0.003667 -0.003000 -0.405259
14  4.085235 -0.082654 1.151009  0.076971 0.573771 0.038997
15  1.719448 -0.000020 0.000028  0.015664 -0.064932 -0.867211
16  1.099674 0.000048 0.000004  -0.075642 0.030056 -1.536734
17  0.869862 -1.165528 1.469023  -1.184630 -0.527539 -0.152316
18  1.789820 -0.000003 -0.000019  0.000001 -0.000026 0.636398
19  1.207012 -0.000013 -0.000044  0.000006 -0.000006 -0.137935
20  5.740635 0.000389 -0.000697  -0.117865 0.000003 0.000064
21  11.480996 0.000226 -0.000825  -0.049051 -0.110324 0.029379
22  6.027524 -0.000330 0.000200  1.590751 -0.573974 1.549975
23  0.000000 11.692099 -0.000007  -0.961406 -0.414167 -0.765874
24  0.000002 0.000009 -0.000001  -0.021116 -0.000030 1.570738
25  -0.000000 -0.000012 0.000000  0.868960 0.000002 1.570712
26  -6.617934 -9.178503 0.826812  1.473120 1.855075 -0.198639
27  6.027513 -0.000259 -0.000221  1.543713 0.746759 -0.698774
28  11.691992 0.000163 0.000856  0.141449 0.000073 -1.838760
29  11.479339 -0.000870 0.000956  -1.190867 0.353569 0.869720
30  3.859438 -0.132759 1.193065  0.469647 -0.013262 -1.872395
31  1.312559 0.000026 -0.000002  0.024060 -0.138696 -0.550187
32  0.729345 0.000065 -0.000028  -0.166197 -0.081570 -0.714272
33  3.942047 0.050139 0.431000  0.225309 -0.086237 -1.592712
34  1.539097 0.000006 -0.000001  0.035254 -0.050373 -0.994350
35  1.196300 0.000078 -0.000004  -0.021521 0.002175 -0.839738
36  3.883414 -0.050472 -0.431084  0.184824 -0.271737 -1.204030
37  1.719563 -0.000085 -0.000005  0.022858 -0.107186 -1.509108
38  1.209198 0.000035 0.000011  0.000661 0.071072 -0.480462
39  3.859590 -0.149083 -1.331321  -0.033200 -0.110369 -0.362359
40  1.719415 -0.000099 -0.000036  -0.012459 -0.012118 -1.275551
41  1.099674 0.000021 0.000008  -0.003769 -0.008243 -0.832963
42  0.805984 -0.359848 -1.318338  0.991670 0.166767 -0.799527
43  1.789780 -0.000008 -0.000042  0.000058 -0.002451 0.133097
44  1.206997 -0.000006 0.000005  0.000372 -0.000071 1.058780
45  5.740573 0.000080 0.000722  0.162559 -0.000014 0.000028
46  11.480811 -0.000099 0.000937  0.050520 0.074149 0.145858
47  6.027515 -0.000273 -0.000230  -0.892497 -0.510796 -1.724372
48  -0.000002 11.691977 -0.000006  -1.228501 0.673312 0.921242
49  0.000002 0.000001 -0.000001  2.413977 -0.000036 1.570860
50  -0.000008 -0.000013 0.000005  2.272645 -0.000036 1.570861
51  -3.678041 -3.812688 -6.801764  -0.119636 -2.992809 1.478372
52  0.000000 -0.000000 0.000000  0.008153 -0.000259 0.000009
53  0.000000 -0.000000 0.000000  1.565115 0.043565 -0.106862
54  -0.492388 -15.854329 -5.701267  -0.794917 -0.153989 -1.938303
55  -0.000001 -0.000000 0.000000  0.000000 -0.000001 -0.000002
56  0.000030 0.000029 0.000002  -1.571901 -0.044449 -0.106509
57  5.185302 -16.056248 -16.646038  1.570796 -0.000000 0.000000
58  -15.417985 4.000748 -22.641926  1.570796 -0.000000 0.000000
59  2.236387 -0.189356 -5.037201  1.570796 -0.000000 0.000000
60  -0.004311 0.001230 -0.000371  0.006898 -0.005534 -0.284229
61  0.826810 10.209643 -4.879054  1.570796 -0.000000 0.000000
62  0.000000 0.000000 0.000000  -0.078727 -3.136056 0.284226
63  0.000000 0.000000 0.000000  1.570796 -0.000000 0.000000
64  -2.287624 -8.249615 -1.349235  1.571103 0.041360 0.006551
65  0.002681 -3.204031 0.621196  0.398200 -0.000000 -0.000000
66  0.048105 -1.112259 5.803838  0.000000 -0.000000 -0.000000
67  -1.184782 0.539746 -0.284906  0.000000 -0.000000 -0.000000
68  0.047884 -1.610073 21.020466  0.000000 -0.000000 -0.000000
69  0.047881 -3.319713 2.472854  0.000000 -0.000000 -0.000000
70  0.172180 -2.040368 3.568007  0.000000 -0.000000 -0.000000
71  0.654947 -2.537530 2.477230  0.000000 -0.000000 -0.000000
72  -3.588360 -1.097282 -23.660017  1.570796 -0.000000 0.000000
73  0.017809 1.799356 -0.402361  0.000000 -0.000000 0.000000
74  -2.423788 -12.955736 -5.444452  1.571103 0.041360 0.006551
75  0.031323 2.100358 -1.138378  0.000000 -0.000000 -0.000000
76  -0.024051 1.849583 -1.138375  0.000000 -0.000000 -0.000000
time 1
0  0.000006 0.000000 0.000000  -1.570800 -1.391899 -1.570792
1  -4.921969 1.082092 2.232071  -1.544956 -1.855077 -0.198630
2  6.027524 -0.000323 0.000191  -0.728044 -0.981553 -1.523183
3  11.692106 0.000644 -0.000739  -0.890214 -0.000022 -1.457637
4  11.479251 -0.000011 -0.001180  1.153605 -0.663819 0.317706
5  3.859504 -0.142823 -1.192078  -0.573871 -0.316762 -1.795817
6  1.312591 0.000010 0.000009  -0.135121 -0.003384 -0.178728
7  0.729354 0.000053 0.000049  -0.006155 -0.010667 -0.248915
8  3.942140 0.046331 -0.431542  -0.497018 0.100802 -1.231861
9  1.539110 0.000085 0.000003  -0.000382 -0.119364 -0.902014
10  1.196332 0.000145 0.000028  0.012615 0.002795 -0.535714
11  3.883510 -0.047212 0.431352  -0.283712 0.421834 -0.633459
12  1.719573 -0.000029 0.000015  0.057360 -0.144594 -1.427911
13  1.209178 0.000091 0.000013  -0.003667 -0.003000 -0.405259
14  4.085232 -0.082654 1.151009  0.076971 0.573771 0.038997
15  1.719448 -0.000017 0.000028  0.015664 -0.064932 -0.867211
16  1.099675 0.000048 0.000005  -0.075642 0.030056 -1.536734
17  0.869860 -1.165527 1.469023  -1.184630 -0.527539 -0.152316
18  1.789820 -0.000002 -0.000017  0.000001 -0.000026 0.636398
19  1.207016 -0.000013 -0.000043  0.000006 -0.000006 -0.137935
20  5.740635 0.000390 -0.000701  -0.139891 0.000003 0.000063
21  11.480856 0.000177 -0.000890  -0.054914 -0.121348 0.022916
22  6.027524 -0.000330 0.000200  1.588314 -0.589097 1.586888
23  0.000000 11.692099 -0.000007  -1.004320 -0.452704 -0.794176
24  0.000003 0.000009 0.000000  -0.021116 -0.000031 1.570739
25  -0.000000 -0.000011 -0.000000  0.868960 0.000002 1.570712
26  -6.617934 -9.178503 0.826812  1.473120 1.855075 -0.198639
27  6.027513 -0.000259 -0.000222  1.555469 0.708293 -0.693426
28  11.691992 0.000161 0.000858  0.141449 0.000078 -1.909860
29  11.478718 -0.001196 0.001002  -1.233717 0.344943 0.886375
30  3.859437 -0.132758 1.193065  0.469647 -0.013262 -1.872395
31  1.312559 0.000026 -0.000001  0.024060 -0.138696 -0.550187
32  0.729345 0.000065 -0.000027  -0.166197 -0.081570 -0.714272
33  3.942047 0.050139 0.430999  0.225309 -0.086237 -1.592712
34  1.539097 0.000005 -0.000000  0.035254 -0.050373 -0.994350
35  1.196300 0.000078 -0.000003  -0.021521 0.002175 -0.839738
36  3.883413 -0.050473 -0.431084  0.184824 -0.271737 -1.204030
37  1.719563 -0.000084 -0.000005  0.022858 -0.107186 -1.509108
38  1.209197 0.000035 0.000010  0.000662 0.071072 -0.480462
39  3.859590 -0.149084 -1.331321  -0.033200 -0.110369 -0.362359
40  1.719415 -0.000099 -0.000035  -0.012459 -0.012118 -1.275551
41  1.099674 0.000021 0.000008  -0.003769 -0.008243 -0.832963
42  0.805984 -0.359848 -1.318339  0.991670 0.166767 -0.799527
43  1.789780 -0.000008 -0.000042  0.000058 -0.002451 0.133097
44  1.206996 -0.000006 0.000006  0.000372 -0.000071 1.058780
45  5.740574 0.000080 0.000720  0.162327 -0.000014 0.000028
46  11.480689 -0.000165 0.000945  0.042941 0.069828 0.151451
47  6.027515 -0.000273 -0.000230  -0.849227 -0.522690 -1.748223
48  -0.000001 11.691975 -0.000005  -1.270723 0.716863 0.940107
49  0.000003 -0.000001 0.000001  2.413977 -0.000036 1.570860
50  -0.000008 -0.000013 0.000004  2.272645 -0.000036 1.570861
51  -3.861388 -3.162199 -6.770389  -0.160111 -2.979961 1.488755
52  -0.000000 0.000000 -0.000000  0.008153 -0.000259 0.000009
53  -0.000000 0.000000 -0.000000  1.565115 0.043565 -0.106862
54  -0.581454 -15.180349 -5.690255  -0.830392 -0.177223 -1.928329
55  -0.000000 -0.000000 0.000000  0.000000 -0.000001 -0.000002
56  0.000029 0.000029 0.000001  -1.571902 -0.044449 -0.106509
57  5.185302 -16.056248 -16.646038  1.570796 -0.000000 0.000000
58  -15.417985 4.000748 -22.641926  1.570796 -0.000000 0.000000
59  2.236387 -0.189356 -5.037201  1.570796 -0.000000 0.000000
60  -0.004311 0.001230 -0.000371  0.006898 -0.005534 -0.284229
61  0.826810 10.209643 -4.879054  1.570796 -0.000000 0.000000
62  0.000000 0.000000 0.000000  -0.078727 -3.136056 0.284226
63  0.000000 0.000000 0.000000  1.570796 -0.000000 0.000000
64  -2.229871 -7.542202 -1.338688  1.562115 0.082392 0.010120
65  0.002681 -3.204031 0.621196  0.398200 0.000000 0.000000
66  0.048105 -1.112260 2.845371  -0.000000 0.000000 0.007424
67  -1.184782 0.539746 -0.284904  -0.000000 0.000000 -0.042177
68  0.047884 -1.610073 21.020464  -0.000000 0.000000 0.000000
69  0.047881 -3.319713 2.472854  -0.000000 0.000000 0.000000
70  0.172180 -2.040369 3.568006  -0.000000 0.000000 0.000000
71  0.654947 -2.537531 2.477230  0.000000 0.000000 -0.261799
72  -3.588360 -1.097282 -23.660017  1.570796 -0.000000 0.000000
73  0.017809 1.799356 -0.402361  0.000000 -0.000000 0.000000
74  -2.513211 -12.287088 -5.381295  1.562115 0.082392 0.010120
75  0.031323 2.100358 -1.138380  -0.000000 0.000000 0.000000
76  -0.024051 1.849583 -1.138378  -0.000000 0.000000 0.000000
time 2
0  0.000006 0.000000 0.000000  -1.570800 -1.391899 -1.570792
1  -4.921969 1.082092 2.232071  -1.544956 -1.855077 -0.198630
2  6.027524 -0.000323 0.000191  -0.741808 -0.984567 -1.530462
3  11.692108 0.000646 -0.000739  -0.890213 -0.000022 -1.453193
4  11.479450 0.000067 -0.001083  1.190993 -0.653266 0.331114
5  3.859503 -0.142823 -1.192079  -0.573871 -0.316762 -1.795817
6  1.312589 0.000010 0.000007  -0.135121 -0.003384 -0.178728
7  0.729356 0.000054 0.000046  -0.006155 -0.010667 -0.248915
8  3.942140 0.046331 -0.431543  -0.497018 0.100802 -1.231861
9  1.539110 0.000082 0.000003  -0.000382 -0.119364 -0.902014
10  1.196332 0.000145 0.000028  0.012615 0.002795 -0.535714
11  3.883508 -0.047213 0.431351  -0.283712 0.421834 -0.633459
12  1.719573 -0.000028 0.000017  0.057360 -0.144594 -1.427911
13  1.209180 0.000091 0.000012  -0.003667 -0.003000 -0.405259
14  4.085235 -0.082653 1.151008  0.076971 0.573771 0.038997
15  1.719448 -0.000018 0.000030  0.015664 -0.064932 -0.867211
16  1.099676 0.000050 0.000006  -0.075642 0.030056 -1.536734
17  0.869861 -1.165528 1.469023  -1.184630 -0.527539 -0.152316
18  1.789820 -0.000003 -0.000018  0.000001 -0.000027 0.636398
19  1.207014 -0.000013 -0.000043  0.000006 -0.000006 -0.137935
20  5.740636 0.000389 -0.000700  -0.130028 0.000003 0.000063
21  11.480897 0.000191 -0.000869  -0.047970 -0.118678 0.028424
22  6.027524 -0.000330 0.000200  1.597332 -0.585783 1.563157
23  0.000000 11.692100 -0.000007  -1.001673 -0.450285 -0.792461
24  0.000004 0.000009 -0.000001  -0.021116 -0.000031 1.570739
25  0.000001 -0.000011 -0.000000  0.868960 0.000002 1.570712
26  -6.617934 -9.178503 0.826812  1.473120 1.855075 -0.198639
27  6.027513 -0.000259 -0.000222  1.543444 0.716695 -0.698064
28  11.691993 0.000161 0.000857  0.141449 0.000077 -1.894467
29  11.478849 -0.001132 0.000994  -1.204264 0.357209 0.873023
30  3.859438 -0.132759 1.193066  0.469647 -0.013262 -1.872395
31  1.312559 0.000025 -0.000001  0.024060 -0.138696 -0.550187
32  0.729345 0.000064 -0.000028  -0.166197 -0.081570 -0.714272
33  3.942047 0.050139 0.431000  0.225309 -0.086237 -1.592712
34  1.539097 0.000005 -0.000001  0.035254 -0.050373 -0.994350
35  1.196301 0.000078 -0.000004  -0.021521 0.002175 -0.839738
36  3.883414 -0.050473 -0.431084  0.184824 -0.271737 -1.204030
37  1.719564 -0.000085 -0.000003  0.022858 -0.107186 -1.509108
38  1.209197 0.000035 0.000011  0.000661 0.071072 -0.480462
39  3.859590 -0.149083 -1.331320  -0.033200 -0.110369 -0.362359
40  1.719414 -0.000099 -0.000037  -0.012459 -0.012118 -1.275551
41  1.099674 0.000021 0.000008  -0.003769 -0.008243 -0.832963
42  0.805984 -0.359848 -1.318337  0.991670 0.166767 -0.799527
43  1.789780 -0.000009 -0.000042  0.000058 -0.002451 0.133097
44  1.206996 -0.000007 0.000006  0.000372 -0.000071 1.058780
45  5.740572 0.000079 0.000721  0.165083 -0.000014 0.000028
46  11.480713 -0.000152 0.000944  0.047664 0.073937 0.146984
47  6.027515 -0.000273 -0.000230  -0.862889 -0.526373 -1.738158
48  -0.000002 11.691976 -0.000005  -1.261541 0.707383 0.936169
49  0.000001 0.000001 0.000001  2.413977 -0.000036 1.570860
50  -0.000008 -0.000013 0.000004  2.272645 -0.000036 1.570861
51  -3.739442 -3.296452 -6.831989  -0.129665 -2.973466 1.488200
52  0.000000 -0.000000 0.000000  0.008153 -0.000259 0.000009
53  0.000000 -0.000000 0.000001  1.565115 0.043565 -0.106862
54  -0.440926 -15.289417 -5.547788  -0.799243 -0.175296 -1.929348
55  0.000000 0.000000 -0.000000  0.000000 -0.000001 -0.000002
56  0.000030 0.000029 0.000001  -1.571901 -0.044449 -0.106509
57  5.185302 -16.056248 -16.646038  1.570796 -0.000000 0.000000
58  -15.417985 4.000748 -22.641926  1.570796 -0.000000 0.000000
59  2.236387 -0.189356 -5.037201  1.570796 -0.000000 0.000000
60  -0.004311 0.001230 -0.000371  0.006898 -0.005534 -0.284229
61  0.826810 10.209643 -4.879054  1.570796 -0.000000 0.000000
62  0.000000 0.000000 0.000000  -0.078727 -3.136056 0.284226
63  0.000000 0.000000 0.000000  1.570796 -0.000000 0.000000
64  -2.249526 -7.620566 -1.315483  1.552799 0.053104 0.013932
65  0.002681 -3.204031 0.621196  0.398200 0.000000 0.000000
66  0.048105 -1.112259 2.939494  0.000000 -0.000000 -0.019605
67  -1.184782 0.539746 -0.284903  -0.000000 0.000000 0.029470
68  0.047884 -1.610073 21.020466  -0.000000 0.000000 0.000000
69  0.047881 -3.319714 2.472855  -0.000000 0.000000 0.000000
70  0.172180 -2.040368 3.568006  -0.000000 0.000000 0.000000
71  0.654947 -2.537531 2.477230  -0.000000 0.000000 -0.261799
72  -3.588360 -1.097282 -23.660017  1.570796 -0.000000 0.000000
73  0.017809 1.799356 -0.402361  0.000000 -0.000000 0.000000
74  -2.393388 -12.402393 -5.321772  1.552799 0.053104 0.013932
75  0.031323 2.100358 -1.138381  -0.000000 0.000000 0.000000
76  -0.024051 1.849583 -1.138378  -0.000000 0.000000 0.000000
time 3
0  0.000006 0.000000 0.000000  -1.570800 -1.391899 -1.570792
1  -4.921969 1.082092 2.232071  -1.544956 -1.855077 -0.198630
2  6.027524 -0.000323 0.000191  -0.746939 -0.988784 -1.539343
3  11.692106 0.000645 -0.000739  -0.890213 -0.000021 -1.436850
4  11.479662 0.000145 -0.000985  1.212125 -0.638100 0.350000
5  3.859504 -0.142823 -1.192079  -0.573871 -0.316762 -1.795816
6  1.312590 0.000009 0.000010  -0.135121 -0.003384 -0.178728
7  0.729357 0.000053 0.000050  -0.006155 -0.010667 -0.248915
8  3.942140 0.046331 -0.431543  -0.497018 0.100803 -1.231861
9  1.539111 0.000084 0.000004  -0.000382 -0.119364 -0.902014
10  1.196331 0.000146 0.000028  0.012615 0.002795 -0.535714
11  3.883510 -0.047211 0.431351  -0.283712 0.421834 -0.633459
12  1.719572 -0.000029 0.000017  0.057360 -0.144594 -1.427911
13  1.209179 0.000090 0.000010  -0.003667 -0.003000 -0.405259
14  4.085236 -0.082652 1.151009  0.076971 0.573771 0.038997
15  1.719448 -0.000019 0.000030  0.015664 -0.064932 -0.867211
16  1.099675 0.000049 0.000007  -0.075642 0.030056 -1.536734
17  0.869862 -1.165526 1.469023  -1.184630 -0.527539 -0.152316
18  1.789820 -0.000003 -0.000017  0.000001 -0.000027 0.636398
19  1.207014 -0.000014 -0.000044  0.000006 -0.000006 -0.137935
20  5.740637 0.000388 -0.000699  -0.120545 0.000003 0.000063
21  11.480940 0.000206 -0.000847  -0.043954 -0.115591 0.034032
22  6.027524 -0.000330 0.000200  1.600461 -0.581427 1.548272
23  0.000000 11.692097 -0.000007  -0.991930 -0.441426 -0.786112
24  0.000002 0.000010 0.000001  -0.021116 -0.000031 1.570739
25  -0.000000 -0.000012 0.000000  0.868960 0.000002 1.570712
26  -6.617934 -9.178503 0.826812  1.473120 1.855075 -0.198639
27  6.027513 -0.000259 -0.000221  1.533436 0.730912 -0.702349
28  11.691993 0.000162 0.000857  0.141449 0.000075 -1.876351
29  11.479009 -0.001052 0.000980  -1.171425 0.368247 0.879499
30  3.859437 -0.132758 1.193065  0.469647 -0.013262 -1.872395
31  1.312559 0.000026 -0.000001  0.024060 -0.138696 -0.550187
32  0.729346 0.000065 -0.000027  -0.166197 -0.081570 -0.714272
33  3.942047 0.050139 0.430999  0.225309 -0.086237 -1.592712
34  1.539097 0.000006 -0.000001  0.035254 -0.050373 -0.994350
35  1.196300 0.000078 -0.000004  -0.021521 0.002175 -0.839738
36  3.883413 -0.050472 -0.431085  0.184824 -0.271737 -1.204030
37  1.719564 -0.000084 -0.000004  0.022858 -0.107186 -1.509108
38  1.209198 0.000035 0.000012  0.000661 0.071072 -0.480462
39  3.859590 -0.149083 -1.331321  -0.033200 -0.110369 -0.362359
40  1.719414 -0.000099 -0.000036  -0.012459 -0.012118 -1.275551
41  1.099674 0.000022 0.000008  -0.003769 -0.008243 -0.832963
42  0.805983 -0.359848 -1.318338  0.991670 0.166767 -0.799527
43  1.789780 -0.000008 -0.000042  0.000058 -0.002451 0.133098
44  1.206997 -0.000006 0.000005  0.000372 -0.000071 1.058780
45  5.740574 0.000078 0.000721  0.170612 -0.000014 0.000028
46  11.480746 -0.000137 0.000941  0.052562 0.078499 0.146227
47  6.027515 -0.000273 -0.000230  -0.881448 -0.525517 -1.726498
48  -0.000001 11.691975 -0.000006  -1.250766 0.696261 0.931429
49  0.000002 -0.000000 0.000001  2.413977 -0.000036 1.570860
50  -0.000007 -0.000014 0.000004  2.272645 -0.000036 1.570861
51  -3.598525 -3.453830 -6.830610  -0.100377 -2.980456 1.479951
52  0.000000 0.000000 -0.000000  0.008153 -0.000259 0.000009
53  -0.000000 -0.000000 -0.000000  1.565115 0.043565 -0.106862
54  -0.379764 -15.463857 -5.504178  -0.772976 -0.160703 -1.937190
55  -0.000001 -0.000000 0.000000  0.000000 -0.000001 -0.000002
56  0.000029 0.000029 0.000001  -1.571901 -0.044449 -0.106509
57  5.185302 -16.056248 -16.646038  1.570796 -0.000000 0.000000
58  -15.417985 4.000748 -22.641926  1.570796 -0.000000 0.000000
59  2.236387 -0.189356 -5.037201  1.570796 -0.000000 0.000000
60  -0.004311 0.001230 -0.000371  0.006898 -0.005534 -0.284229
61  0.826810 10.209643 -4.879054  1.570796 -0.000000 0.000000
62  0.000000 0.000000 0.000000  -0.078727 -3.136056 0.284226
63  0.000000 0.000000 0.000000  1.570796 -0.000000 0.000000
64  -2.286028 -7.807436 -1.292278  1.556902 0.023663 0.010641
65  0.002681 -3.204031 0.621195  0.398200 0.000000 0.000000
66  0.048105 -1.112260 2.924787  0.000000 0.000000 -0.002157
67  -1.184783 0.539746 -0.284903  -0.000000 0.000000 0.008551
68  0.047884 -1.610073 21.020468  0.000000 0.000000 0.000000
69  0.047881 -3.319714 2.472855  0.000000 0.000000 0.000000
70  0.172181 -2.040368 3.568006  0.000000 0.000000 0.000000
71  0.654947 -2.537531 2.477231  0.000000 -0.000000 -0.261799
72  -3.588360 -1.097282 -23.660017  1.570796 -0.000000 0.000000
73  0.017809 1.799356 -0.402361  0.000000 -0.000000 0.000000
74  -2.328249 -12.571015 -5.322595  1.556902 0.023663 0.010641
75  0.031323 2.100358 -1.138381  0.000000 0.000000 0.000000
76  -0.024051 1.849583 -1.138378  0.000000 0.000000 0.000000
time 4
0  0.000006 0.000000 0.000000  -1.570800 -1.391899 -1.570792
1  -4.921969 1.082092 2.232071  -1.544956 -1.855077 -0.198630
2  6.027524 -0.000323 0.000190  -0.734749 -0.994855 -1.551382
3  11.692107 0.000643 -0.000738  -0.890211 -0.000019 -1.409048
4  11.479812 0.000194 -0.000925  1.202168 -0.623236 0.344265
5  3.859503 -0.142822 -1.192078  -0.573871 -0.316762 -1.795816
6  1.312590 0.000010 0.000010  -0.135121 -0.003384 -0.178728
7  0.729355 0.000054 0.000048  -0.006156 -0.010667 -0.248915
8  3.942140 0.046332 -0.431542  -0.497018 0.100803 -1.231861
9  1.539110 0.000084 0.000003  -0.000382 -0.119364 -0.902013
10  1.196332 0.000146 0.000029  0.012615 0.002795 -0.535714
11  3.883511 -0.047211 0.431352  -0.283712 0.421834 -0.633459
12  1.719573 -0.000028 0.000016  0.057360 -0.144594 -1.427911
13  1.209179 0.000091 0.000014  -0.003667 -0.003000 -0.405259
14  4.085232 -0.082653 1.151009  0.076971 0.573771 0.038997
15  1.719448 -0.000018 0.000027  0.015664 -0.064932 -0.867211
16  1.099676 0.000050 0.000005  -0.075642 0.030056 -1.536734
17  0.869861 -1.165527 1.469023  -1.184630 -0.527539 -0.152316
18  1.789818 -0.000003 -0.000018  0.000001 -0.000026 0.636398
19  1.207013 -0.000013 -0.000042  0.000006 -0.000006 -0.137935
20  5.740636 0.000389 -0.000698  -0.118941 0.000003 0.000064
21  11.480969 0.000216 -0.000837  -0.046748 -0.112873 0.032865
22  6.027524 -0.000330 0.000200  1.592165 -0.575673 1.550972
23  -0.000000 11.692098 -0.000007  -0.975305 -0.426484 -0.775153
24  0.000003 0.000010 0.000000  -0.021116 -0.000031 1.570739
25  -0.000000 -0.000011 -0.000000  0.868960 0.000002 1.570712
26  -6.617934 -9.178503 0.826812  1.473120 1.855075 -0.198639
27  6.027513 -0.000259 -0.000221  1.538863 0.741584 -0.700575
28  11.691991 0.000161 0.000857  0.141449 0.000074 -1.859337
29  11.479160 -0.000971 0.000969  -1.175628 0.364182 0.884503
30  3.859437 -0.132758 1.193066  0.469647 -0.013262 -1.872395
31  1.312559 0.000026 -0.000001  0.024060 -0.138696 -0.550187
32  0.729345 0.000065 -0.000027  -0.166197 -0.081570 -0.714272
33  3.942046 0.050139 0.431000  0.225309 -0.086237 -1.592712
34  1.539097 0.000005 -0.000000  0.035254 -0.050373 -0.994350
35  1.196300 0.000078 -0.000004  -0.021521 0.002175 -0.839738
36  3.883413 -0.050472 -0.431084  0.184824 -0.271737 -1.204030
37  1.719564 -0.000085 -0.000005  0.022859 -0.107186 -1.509108
38  1.209197 0.000036 0.000011  0.000661 0.071072 -0.480462
39  3.859589 -0.149083 -1.331321  -0.033200 -0.110369 -0.362359
40  1.719415 -0.000099 -0.000036  -0.012459 -0.012118 -1.275552
41  1.099674 0.000021 0.000008  -0.003769 -0.008243 -0.832963
42  0.805983 -0.359848 -1.318338  0.991670 0.166767 -0.799527
43  1.789780 -0.000008 -0.000041  0.000058 -0.002451 0.133097
44  1.206996 -0.000007 0.000006  0.000372 -0.000071 1.058780
45  5.740574 0.000079 0.000720  0.169322 -0.000014 0.000028
46  11.480777 -0.000121 0.000938  0.052002 0.077576 0.147587
47  6.027515 -0.000273 -0.000230  -0.889547 -0.516532 -1.724337
48  -0.000001 11.691975 -0.000006  -1.240674 0.685852 0.926876
49  0.000003 -0.000001 0.000000  2.413977 -0.000036 1.570860
50  -0.000007 -0.000014 0.000005  2.272645 -0.000036 1.570861
51  -3.614245 -3.615763 -6.772416  -0.106035 -2.989428 1.473994
52  -0.000000 -0.000000 0.000000  0.008153 -0.000259 0.000009
53  -0.000000 0.000000 0.000000  1.565115 0.043565 -0.106862
54  -0.471775 -15.659476 -5.574732  -0.780891 -0.153589 -1.942790
55  -0.000000 -0.000000 -0.000000  0.000000 -0.000001 -0.000002
56  0.000030 0.000028 0.000001  -1.571902 -0.044449 -0.106509
57  5.185302 -16.056248 -16.646038  1.570796 -0.000000 0.000000
58  -15.417985 4.000748 -22.641926  1.570796 -0.000000 0.000000
59  2.236387 -0.189356 -5.037201  1.570796 -0.000000 0.000000
60  -0.004311 0.001230 -0.000371  0.006898 -0.005534 -0.284229
61  0.826810 10.209643 -4.879054  1.570796 -0.000000 0.000000
62  0.000000 0.000000 0.000000  -0.078727 -3.136056 0.284226
63  0.000000 0.000000 0.000000  1.570796 -0.000000 0.000000
64  -2.305683 -8.030476 -1.281731  1.566395 0.028317 0.004048
65  0.002681 -3.204031 0.621195  0.398200 -0.000000 0.000000
66  0.048105 -1.112260 2.892433  0.000000 0.000000 0.015292
67  -1.184782 0.539746 -0.284905  0.000000 0.000000 -0.012370
68  0.047884 -1.610073 21.020468  0.000000 -0.000000 0.000000
69  0.047881 -3.319714 2.472855  0.000000 -0.000000 0.000000
70  0.172180 -2.040368 3.568007  0.000000 -0.000000 0.000000
71  0.654947 -2.537531 2.477230  0.000000 -0.000000 -0.261799
72  -3.588360 -1.097282 -23.660017  1.570796 -0.000000 0.000000
73  0.017809 1.799356 -0.402361  0.000000 -0.000000 0.000000
74  -2.399492 -12.755269 -5.356586  1.566395 0.028317 0.004048
75  0.031322 2.100358 -1.138379  0.000000 -0.000000 0.000000
76  -0.024051 1.849583 -1.138376  0.000000 -0.000000 0.000000
time 5
0  0.000006 0.000000 0.000000  -1.570800 -1.391899 -1.570792
1  -4.921969 1.082092 2.232071  -1.544956 -1.855077 -0.198630
2  6.027524 -0.000323 0.000190  -0.726477 -0.997800 -1.557355
3  11.692108 0.000645 -0.000738  -0.890210 -0.000018 -1.387632
4  11.479934 0.000237 -0.000873  1.188740 -0.612887 0.335323
5  3.859502 -0.142824 -1.192078  -0.573871 -0.316762 -1.795816
6  1.312589 0.000010 0.000008  -0.135121 -0.003384 -0.178728
7  0.729355 0.000054 0.000051  -0.006155 -0.010667 -0.248915
8  3.942140 0.046331 -0.431542  -0.497018 0.100802 -1.231861
9  1.539111 0.000083 0.000003  -0.000382 -0.119364 -0.902013
10  1.196333 0.000147 0.000028  0.012615 0.002795 -0.535714
11  3.883509 -0.047213 0.431352  -0.283712 0.421834 -0.633459
12  1.719573 -0.000028 0.000017  0.057360 -0.144594 -1.427911
13  1.209179 0.000091 0.000012  -0.003667 -0.003000 -0.405259
14  4.085232 -0.082654 1.151009  0.076971 0.573771 0.038997
15  1.719448 -0.000020 0.000029  0.015664 -0.064932 -0.867211
16  1.099674 0.000049 0.000007  -0.075642 0.030056 -1.536734
17  0.869862 -1.165527 1.469024  -1.184630 -0.527539 -0.152316
18  1.789821 -0.000002 -0.000019  0.000001 -0.000027 0.636398
19  1.207017 -0.000014 -0.000044  0.000006 -0.000006 -0.137935
20  5.740635 0.000389 -0.000700  -0.119277 0.000003 0.000063
21  11.480992 0.000225 -0.000827  -0.050100 -0.111039 0.030699
22  6.027524 -0.000330 0.000200  1.586695 -0.572884 1.554915
23  -0.000000 11.692098 -0.000006  -0.962452 -0.415089 -0.766576
24  0.000002 0.000008 0.000000  -0.021116 -0.000031 1.570739
25  -0.000000 -0.000012 0.000000  0.868960 0.000002 1.570712
26  -6.617934 -9.178503 0.826812  1.473120 1.855075 -0.198639
27  6.027513 -0.000259 -0.000221  1.544732 0.748939 -0.698418
28  11.691991 0.000160 0.000857  0.141449 0.000073 -1.845790
29  11.479275 -0.000906 0.000962  -1.185953 0.356826 0.887194
30  3.859438 -0.132758 1.193065  0.469647 -0.013262 -1.872395
31  1.312559 0.000027 -0.000000  0.024060 -0.138696 -0.550187
32  0.729345 0.000064 -0.000027  -0.166197 -0.081570 -0.714272
33  3.942047 0.050139 0.431000  0.225309 -0.086237 -1.592712
34  1.539097 0.000004 -0.000001  0.035254 -0.050373 -0.994350
35  1.196300 0.000078 -0.000003  -0.021521 0.002175 -0.839738
36  3.883414 -0.050472 -0.431085  0.184824 -0.271737 -1.204030
37  1.719563 -0.000085 -0.000005  0.022858 -0.107186 -1.509108
38  1.209198 0.000036 0.000011  0.000661 0.071072 -0.480462
39  3.859590 -0.149082 -1.331319  -0.068157 -0.094352 -0.334139
40  1.719414 -0.000099 -0.000035  -0.012548 -0.005296 -1.194360
41  1.099674 0.000022 0.000008  -0.004985 -0.007826 -0.750118
42  0.805983 -0.359848 -1.318339  0.991670 0.166767 -0.799527
43  1.789780 -0.000009 -0.000042  0.000058 -0.002451 0.133097
44  1.206997 -0.000007 0.000006  0.000372 -0.000071 1.058780
45  5.740572 0.000079 0.000720  0.166614 -0.000014 0.000028
46  11.480799 -0.000108 0.000938  0.050670 0.075538 0.148921
47  6.027515 -0.000273 -0.000230  -0.894188 -0.509026 -1.723883
48  -0.000002 11.691975 -0.000006  -1.232656 0.677590 0.923183
49  0.000003 0.000001 0.000001  2.413977 -0.000036 1.570860
50  -0.000007 -0.000013 0.000005  2.272645 -0.000036 1.570861
51  -3.649048 -3.745810 -6.729757  -0.117429 -2.997854 1.471912
52  -0.000000 -0.000000 -0.000000  0.008153 -0.000259 0.000009
53  0.000000 0.000000 -0.000000  1.565115 0.043565 -0.106862
54  -0.540246 -15.811947 -5.678924  -0.794176 -0.148540 -1.944553
55  -0.000000 -0.000001 0.000000  0.000000 -0.000001 -0.000002
56  0.000030 0.000028 0.000001  -1.571902 -0.044449 -0.106509
57  5.185302 -16.056248 -16.646038  1.570796 -0.000000 0.000000
58  -15.417985 4.000748 -22.641926  1.570796 -0.000000 0.000000
59  2.236387 -0.189356 -5.037201  1.570796 -0.000000 0.000000
60  -0.004311 0.001230 -0.000371  0.006898 -0.005534 -0.284229
61  0.826810 10.209643 -4.879054  1.570796 -0.000000 0.000000
62  0.000000 0.000000 0.000000  -0.078727 -3.136056 0.284226
63  0.000000 0.000000 0.000000  1.570796 -0.000000 0.000000
64  -2.300430 -8.217346 -1.295032  1.575911 0.038687 0.000605
65  0.002681 -3.204031 0.621194  0.199100 0.000000 -0.000000
66  0.048105 -1.112260 2.860077  0.000000 0.000000 0.007646
67  -1.184783 0.539746 -0.284904  0.000000 -0.000000 -0.000459
68  0.047884 -1.610072 21.020464  0.000000 0.000000 -0.000000
69  0.047881 -3.319714 2.472853  0.000000 0.000000 -0.000000
70  0.172180 -2.040368 3.568005  0.000000 0.000000 -0.000000
71  0.654947 -2.537531 2.477228  0.000000 -0.000000 -0.261799
72  -3.588360 -1.097282 -23.660017  1.570796 -0.000000 0.000000
73  0.017809 1.799356 -0.402361  0.000000 -0.000000 0.000000
74  -2.454515 -12.902808 -5.413238  1.575911 0.038687 0.000605
75  0.031323 2.100358 -1.138380  0.000000 0.000000 -0.000000
76  -0.024051 1.849582 -1.138378  0.000000 0.000000 -0.000000
time 6
0  0.000006 0.000000 0.000000  -1.570800 -1.391899 -1.570792
1  -4.921969 1.082092 2.232071  -1.544956 -1.855077 -0.198630
2  6.027524 -0.000323 0.000190  -0.724347 -0.997453 -1.556588
3  11.692108 0.000644 -0.000738  -0.890210 -0.000017 -1.379847
4  11.479984 0.000251 -0.000851  1.179662 -0.610913 0.326179
5  3.859500 -0.142824 -1.192080  -0.573871 -0.316762 -1.795816
6  1.312589 0.000010 0.000007  -0.135121 -0.003384 -0.178728
7  0.729355 0.000054 0.000049  -0.006155 -0.010667 -0.248915
8  3.942138 0.046331 -0.431543  -0.497018 0.100802 -1.231861
9  1.539110 0.000085 0.000004  -0.000381 -0.119364 -0.902014
10  1.196333 0.000145 0.000027  0.012615 0.002795 -0.535714
11  3.883509 -0.047212 0.431351  -0.283712 0.421834 -0.633459
12  1.719573 -0.000029 0.000017  0.057360 -0.144594 -1.427911
13  1.209180 0.000091 0.000011  -0.003667 -0.003000 -0.405259
14  4.085231 -0.082653 1.151008  0.076971 0.573771 0.038997
15  1.719448 -0.000017 0.000028  0.015664 -0.064932 -0.867211
16  1.099675 0.000050 0.000005  -0.075642 0.030056 -1.536734
17  0.869857 -1.165529 1.469022  -1.184630 -0.527539 -0.152316
18  1.789818 -0.000003 -0.000018  0.000001 -0.000026 0.636398
19  1.207018 -0.000013 -0.000044  0.000006 -0.000006 -0.137935
20  5.740637 0.000389 -0.000699  -0.120762 0.000003 0.000063
21  11.481005 0.000228 -0.000824  -0.052265 -0.110684 0.028448
22  6.027524 -0.000330 0.000200  1.585332 -0.573263 1.558210
23  -0.000000 11.692099 -0.000007  -0.957770 -0.410972 -0.763430
24  0.000002 0.000009 0.000000  -0.021116 -0.000030 1.570739
25  -0.000000 -0.000011 0.000000  0.868960 0.000002 1.570712
26  -6.617934 -9.178503 0.826812  1.473120 1.855075 -0.198639
27  6.027513 -0.000259 -0.000221  1.549279 0.749777 -0.696585
28  11.691992 0.000161 0.000856  0.141449 0.000073 -1.840219
29  11.479326 -0.000881 0.000956  -1.197187 0.349001 0.884176
30  3.859437 -0.132758 1.193065  0.469647 -0.013262 -1.872395
31  1.312558 0.000027 -0.000002  0.024060 -0.138696 -0.550187
32  0.729345 0.000064 -0.000027  -0.166197 -0.081570 -0.714272
33  3.942046 0.050139 0.431000  0.225309 -0.086237 -1.592712
34  1.539097 0.000005 -0.000001  0.035254 -0.050373 -0.994350
35  1.196300 0.000078 -0.000004  -0.021521 0.002175 -0.839738
36  3.883413 -0.050472 -0.431084  0.184824 -0.271737 -1.204030
37  1.719564 -0.000084 -0.000004  0.022858 -0.107186 -1.509108
38  1.209197 0.000036 0.000012  0.000662 0.071072 -0.480462
39  3.859590 -0.149081 -1.331317  -0.103355 -0.074267 -0.293660
40  1.719413 -0.000098 -0.000035  -0.012554 0.002706 -1.113177
41  1.099674 0.000024 0.000007  -0.006337 -0.007347 -0.667274
42  0.805983 -0.359848 -1.318338  0.991670 0.166767 -0.799527
43  1.789780 -0.000008 -0.000042  0.000058 -0.002451 0.133098
44  1.206996 -0.000006 0.000005  0.000372 -0.000071 1.058780
45  5.740574 0.000078 0.000722  0.163504 -0.000014 0.000028
46  11.480810 -0.000103 0.000936  0.049363 0.073202 0.149181
47  6.027515 -0.000273 -0.000230  -0.893040 -0.505743 -1.725705
48  0.000000 11.691976 -0.000006  -1.229363 0.674199 0.921646
49  0.000002 -0.000001 0.000000  2.413977 -0.000036 1.570860
50  -0.000007 -0.000013 0.000005  2.272645 -0.000036 1.570861
51  -3.698946 -3.802135 -6.725140  -0.128291 -3.001188 1.474618
52  0.000000 -0.000000 -0.000001  0.008153 -0.000259 0.000009
53  -0.000000 -0.000000 0.000000  1.565115 0.043565 -0.106862
54  -0.565584 -15.869028 -5.759368  -0.805555 -0.148249 -1.941702
55  -0.000002 -0.000000 0.000000  0.000000 -0.000001 -0.000002
56  0.000028 0.000029 0.000001  -1.571901 -0.044449 -0.106509
57  5.185302 -16.056248 -16.646038  1.570796 -0.000000 0.000000
58  -15.417985 4.000748 -22.641926  1.570796 -0.000000 0.000000
59  2.236387 -0.189356 -5.037201  1.570796 -0.000000 0.000000
60  -0.004311 0.001230 -0.000371  0.006898 -0.005534 -0.284229
61  0.826810 10.209643 -4.879054  1.570796 -0.000000 0.000000
62  0.000000 0.000000 0.000000  -0.078727 -3.136056 0.284226
63  0.000000 0.000000 0.000000  1.570796 -0.000000 0.000000
64  -2.288872 -8.295711 -1.324296  1.580294 0.049058 0.001966
65  0.002681 -3.204031 0.621196  -0.000000 -0.000000 0.000000
66  0.048105 -1.112260 2.845371  -0.000000 -0.000000 0.000000
67  -1.184782 0.539746 -0.284903  -0.000000 -0.000000 0.011451
68  0.047883 -1.610073 21.020468  -0.000000 -0.000000 0.000000
69  0.047881 -3.319713 2.472856  -0.000000 -0.000000 0.000000
70  0.172180 -2.040368 3.568007  -0.000000 -0.000000 0.000000
71  0.654947 -2.537531 2.477230  -0.000000 -0.000000 -0.261799
72  -3.588360 -1.097282 -23.660017  1.570796 -0.000000 0.000000
73  0.017809 1.799356 -0.402361  0.000000 -0.000000 0.000000
74  -2.480324 -12.963355 -5.461123  1.580294 0.049058 0.001966
75  0.031323 2.100358 -1.138381  -0.000000 -0.000000 0.000000
76  -0.024051 1.849582 -1.138377  -0.000000 -0.000000 0.000000
time 7
0  0.000006 0.000000 0.000000  -1.570800 -1.391899 -1.570792
1  -4.921969 1.082092 2.232071  -1.544956 -1.855077 -0.198630
2  6.027524 -0.000323 0.000190  -0.726934 -0.995274 -1.552044
3  11.692108 0.000644 -0.000738  -0.890210 -0.000018 -1.383864
4  11.479960 0.000244 -0.000862  1.178075 -0.613999 0.321423
5  3.859503 -0.142824 -1.192078  -0.573871 -0.316762 -1.795816
6  1.312589 0.000011 0.000007  -0.135121 -0.003384 -0.178728
7  0.729355 0.000054 0.000047  -0.006156 -0.010667 -0.248915
8  3.942139 0.046331 -0.431542  -0.497018 0.100803 -1.231861
9  1.539110 0.000083 0.000004  -0.000382 -0.119364 -0.902013
10  1.196332 0.000146 0.000030  0.012615 0.002795 -0.535714
11  3.883509 -0.047212 0.431352  -0.283712 0.421834 -0.633459
12  1.719573 -0.000028 0.000018  0.057360 -0.144594 -1.427911
13  1.209179 0.000090 0.000013  -0.003667 -0.003000 -0.405259
14  4.085232 -0.082654 1.151009  0.076971 0.573771 0.038997
15  1.719448 -0.000019 0.000028  0.015664 -0.064932 -0.867211
16  1.099675 0.000048 0.000006  -0.075642 0.030056 -1.536734
17  0.869860 -1.165528 1.469023  -1.184630 -0.527539 -0.152316
18  1.789818 -0.000003 -0.000018  0.000001 -0.000027 0.636398
19  1.207017 -0.000013 -0.000044  0.000006 -0.000006 -0.137935
20  5.740636 0.000388 -0.000699  -0.121939 0.000003 0.000063
21  11.481001 0.000226 -0.000823  -0.052624 -0.111206 0.027310
22  6.027524 -0.000330 0.000200  1.587079 -0.575402 1.559633
23  -0.000001 11.692098 -0.000007  -0.960187 -0.413094 -0.765055
24  0.000004 0.000009 0.000000  -0.021116 -0.000031 1.570739
25  -0.000001 -0.000012 -0.000000  0.868960 0.000002 1.570712
26  -6.617934 -9.178503 0.826812  1.473120 1.855075 -0.198639
27  6.027513 -0.000259 -0.000221  1.549781 0.746196 -0.696306
28  11.691991 0.000162 0.000856  0.141449 0.000073 -1.842168
29  11.479307 -0.000889 0.000958  -1.202679 0.346316 0.879322
30  3.859438 -0.132759 1.193065  0.469647 -0.013262 -1.872395
31  1.312558 0.000025 -0.000002  0.024060 -0.138696 -0.550187
32  0.729345 0.000065 -0.000027  -0.166197 -0.081570 -0.714272
33  3.942047 0.050139 0.431000  0.225309 -0.086237 -1.592712
34  1.539097 0.000005 -0.000001  0.035254 -0.050373 -0.994350
35  1.196301 0.000078 -0.000004  -0.021521 0.002175 -0.839738
36  3.883413 -0.050472 -0.431084  0.184824 -0.271737 -1.204030
37  1.719563 -0.000085 -0.000004  0.022859 -0.107186 -1.509108
38  1.209198 0.000035 0.000010  0.000661 0.071072 -0.480462
39  3.859589 -0.149082 -1.331320  -0.104057 -0.070710 -0.276449
40  1.719414 -0.000099 -0.000035  -0.013100 0.003905 -1.158337
41  1.099674 0.000025 0.000006  -0.006208 -0.007697 -0.719239
42  0.805983 -0.359848 -1.318338  0.991670 0.166767 -0.799527
43  1.789780 -0.000008 -0.000042  0.000058 -0.002451 0.133097
44  1.206996 -0.000006 0.000006  0.000372 -0.000071 1.058780
45  5.740573 0.000079 0.000721  0.161740 -0.000014 0.000028
46  11.480806 -0.000104 0.000937  0.048710 0.072189 0.148589
47  6.027515 -0.000273 -0.000230  -0.889312 -0.507271 -1.727576
48  -0.000000 11.691973 -0.000005  -1.230515 0.675385 0.922185
49  0.000003 -0.000000 -0.000000  2.413977 -0.000036 1.570860
50  -0.000006 -0.000014 0.000005  2.272645 -0.000036 1.570861
51  -3.725122 -3.786069 -6.752841  -0.132910 -2.999600 1.478017
52  0.000000 -0.000000 0.000000  0.008153 -0.000259 0.000009
53  -0.000000 0.000000 0.000000  1.565115 0.043565 -0.106862
54  -0.554068 -15.843189 -5.788030  -0.809571 -0.151018 -1.938355
55  0.000000 -0.000001 0.000001  0.000000 -0.000001 -0.000002
56  0.000030 0.000028 0.000001  -1.571901 -0.044449 -0.106509
57  5.185302 -16.056248 -16.646038  1.570796 -0.000000 0.000000
58  -15.417985 4.000748 -22.641926  1.570796 -0.000000 0.000000
59  2.236387 -0.189356 -5.037201  1.570796 -0.000000 0.000000
60  -0.004311 0.001230 -0.000371  0.006898 -0.005534 -0.284229
61  0.826810 10.209643 -4.879054  1.570796 -0.000000 0.000000
62  0.000000 0.000000 0.000000  -0.078727 -3.136056 0.284226
63  0.000000 0.000000 0.000000  1.570796 -0.000000 0.000000
64  -2.277315 -8.269511 -1.353559  1.579159 0.053765 0.004656
65  0.002681 -3.204031 0.621195  -0.000000 0.000000 0.000000
66  0.048105 -1.112260 2.845371  -0.000000 0.000000 0.000000
67  -1.184782 0.539746 -0.284904  -0.000000 -0.000000 0.006465
68  0.047884 -1.610073 21.020466  -0.000000 0.000000 0.000000
69  0.047881 -3.319714 2.472854  -0.000000 0.000000 0.000000
70  0.172180 -2.040368 3.568005  -0.000000 0.000000 0.000000
71  0.654947 -2.537530 2.477230  -0.000000 -0.000000 -0.261799
72  -3.588360 -1.097282 -23.660017  1.570796 -0.000000 0.000000
73  0.017809 1.799356 -0.402361  0.000000 -0.000000 0.000000
74  -2.475371 -12.942444 -5.484102  1.579159 0.053765 0.004656
75  0.031323 2.100358 -1.138380  -0.000000 0.000000 0.000000
76  -0.024051 1.849583 -1.138377  -0.000000 0.000000 0.000000
time 8
0  0.000006 0.000000 0.000000  -1.570800 -1.391899 -1.570792
1  -4.921969 1.082092 2.232071  -1.544956 -1.855077 -0.198630
2  6.027524 -0.000323 0.000190  -0.732089 -0.993215 -1.547853
3  11.692108 0.000644 -0.000738  -0.890211 -0.000018 -1.391045
4  11.479918 0.000229 -0.000881  1.183097 -0.617496 0.322515
5  3.859503 -0.142823 -1.192080  -0.573871 -0.316762 -1.795817
6  1.312588 0.000012 0.000007  -0.135121 -0.003384 -0.178728
7  0.729353 0.000054 0.000049  -0.006155 -0.010667 -0.248915
8  3.942140 0.046331 -0.431543  -0.497018 0.100802 -1.231861
9  1.539110 0.000084 0.000003  -0.000382 -0.119364 -0.902013
10  1.196332 0.000146 0.000028  0.012615 0.002795 -0.535714
11  3.883510 -0.047212 0.431350  -0.283712 0.421834 -0.633459
12  1.719574 -0.000029 0.000017  0.057360 -0.144594 -1.427911
13  1.209177 0.000091 0.000013  -0.003667 -0.003000 -0.405259
14  4.085234 -0.082653 1.151009  0.076971 0.573771 0.038997
15  1.719447 -0.000019 0.000029  0.015664 -0.064932 -0.867211
16  1.099674 0.000048 0.000005  -0.075642 0.030056 -1.536734
17  0.869860 -1.165527 1.469022  -1.184630 -0.527539 -0.152316
18  1.789819 -0.000002 -0.000017  0.000001 -0.000027 0.636398
19  1.207013 -0.000013 -0.000044  0.000006 -0.000006 -0.137935
20  5.740637 0.000387 -0.000701  -0.121678 0.000003 0.000064
21  11.480991 0.000223 -0.000829  -0.051490 -0.111776 0.027698
22  6.027524 -0.000330 0.000200  1.590510 -0.577366 1.557632
23  -0.000000 11.692098 -0.000007  -0.964503 -0.416898 -0.767951
24  0.000002 0.000008 -0.000000  -0.021116 -0.000031 1.570738
25  -0.000000 -0.000012 0.000000  0.868960 0.000002 1.570712
26  -6.617934 -9.178503 0.826812  1.473120 1.855075 -0.198639
27  6.027513 -0.000259 -0.000221  1.547522 0.743294 -0.697152
28  11.691992 0.000160 0.000856  0.141449 0.000073 -1.845235
29  11.479281 -0.000904 0.000959  -1.200316 0.347253 0.875861
30  3.859438 -0.132759 1.193065  0.469647 -0.013262 -1.872395
31  1.312559 0.000025 -0.000001  0.024060 -0.138696 -0.550187
32  0.729345 0.000065 -0.000028  -0.166197 -0.081570 -0.714273
33  3.942047 0.050138 0.431000  0.225309 -0.086237 -1.592712
34  1.539096 0.000005 -0.000001  0.035254 -0.050373 -0.994350
35  1.196300 0.000077 -0.000004  -0.021521 0.002175 -0.839738
36  3.883414 -0.050472 -0.431084  0.184824 -0.271737 -1.204030
37  1.719563 -0.000084 -0.000005  0.022858 -0.107186 -1.509108
38  1.209198 0.000035 0.000010  0.000661 0.071072 -0.480462
39  3.859589 -0.149083 -1.331321  -0.104061 -0.070249 -0.272073
40  1.719414 -0.000098 -0.000035  -0.013177 0.003907 -1.203491
41  1.099674 0.000023 0.000007  -0.005887 -0.007993 -0.771205
42  0.805983 -0.359848 -1.318338  0.991670 0.166767 -0.799527
43  1.789780 -0.000009 -0.000042  0.000058 -0.002451 0.133098
44  1.206996 -0.000007 0.000006  0.000372 -0.000071 1.058780
45  5.740574 0.000079 0.000720  0.161830 -0.000014 0.000028
46  11.480802 -0.000108 0.000937  0.049156 0.072451 0.147762
47  6.027515 -0.000273 -0.000230  -0.887439 -0.510187 -1.727803
48  -0.000001 11.691975 -0.000006  -1.232328 0.677252 0.923030
49  0.000002 -0.000001 0.000000  2.413977 -0.000036 1.570860
50  -0.000008 -0.000014 0.000004  2.272645 -0.000036 1.570861
51  -3.718497 -3.756615 -6.782396  -0.130095 -2.997033 1.480379
52  0.000000 -0.000000 -0.000000  0.008153 -0.000259 0.000009
53  0.000000 -0.000000 0.000000  1.565115 0.043565 -0.106862
54  -0.516640 -15.802156 -5.775612  -0.806153 -0.152732 -1.936108
55  0.000000 0.000000 -0.000000  0.000000 -0.000001 -0.000002
56  0.000030 0.000029 0.000001  -1.571902 -0.044449 -0.106509
57  5.185302 -16.056248 -16.646038  1.570796 -0.000000 0.000000
58  -15.417985 4.000748 -22.641926  1.570796 -0.000000 0.000000
59  2.236387 -0.189356 -5.037201  1.570796 -0.000000 0.000000
60  -0.004311 0.001230 -0.000371  0.006898 -0.005534 -0.284229
61  0.826810 10.209643 -4.879054  1.570796 -0.000000 0.000000
62  0.000000 0.000000 0.000000  -0.078727 -3.136056 0.284226
63  0.000000 0.000000 0.000000  1.570796 -0.000000 0.000000
64  -2.272061 -8.220856 -1.366860  1.576329 0.051242 0.007271
65  0.002681 -3.204031 0.621196  -0.000000 -0.000000 -0.000000
66  0.048105 -1.112260 2.845372  -0.000000 -0.000000 -0.000000
67  -1.184782 0.539746 -0.284904  0.000000 0.000000 -0.002796
68  0.047884 -1.610073 21.020468  -0.000000 -0.000000 -0.000000
69  0.047881 -3.319713 2.472855  -0.000000 -0.000000 -0.000000
70  0.172180 -2.040369 3.568008  -0.000000 -0.000000 -0.000000
71  0.654947 -2.537531 2.477230  0.000000 -0.000000 -0.261799
72  -3.588360 -1.097282 -23.660017  1.570796 -0.000000 0.000000
73  0.017809 1.799356 -0.402361  0.000000 -0.000000 0.000000
74  -2.446709 -12.905898 -5.484724  1.576329 0.051242 0.007271
75  0.031323 2.100358 -1.138380  -0.000000 -0.000000 -0.000000
76  -0.024051 1.849582 -1.138376  -0.000000 -0.000000 -0.000000
time 9
0  0.000006 0.000000 0.000000  -1.570800 -1.391899 -1.570792
1  -4.921969 1.082092 2.232071  -1.544956 -1.855077 -0.198630
2  6.027524 -0.000323 0.000190  -0.735382 -0.993087 -1.547673
3  11.692109 0.000645 -0.000738  -0.890211 -0.000018 -1.394360
4  11.479897 0.000223 -0.000888  1.190973 -0.617962 0.325140
5  3.859504 -0.142823 -1.192080  -0.573871 -0.316762 -1.795816
6  1.312590 0.000011 0.000009  -0.135121 -0.003384 -0.178728
7  0.729354 0.000055 0.000050  -0.006155 -0.010667 -0.248915
8  3.942143 0.046331 -0.431542  -0.497018 0.100803 -1.231861
9  1.539110 0.000082 0.000005  -0.000382 -0.119364 -0.902014
10  1.196332 0.000145 0.000029  0.012615 0.002795 -0.535714
11  3.883512 -0.047211 0.431351  -0.283712 0.421834 -0.633459
12  1.719572 -0.000030 0.000017  0.057360 -0.144594 -1.427911
13  1.209179 0.000091 0.000014  -0.003667 -0.003000 -0.405259
14  4.085235 -0.082653 1.151009  0.076971 0.573771 0.038997
15  1.719448 -0.000019 0.000029  0.015664 -0.064932 -0.867211
16  1.099675 0.000049 0.000007  -0.075642 0.030056 -1.536734
17  0.869863 -1.165527 1.469023  -1.184630 -0.527539 -0.152316
18  1.789819 -0.000003 -0.000017  0.000001 -0.000026 0.636398
19  1.207015 -0.000013 -0.000044  0.000006 -0.000006 -0.137935
20  5.740636 0.000389 -0.000700  -0.120252 0.000003 0.000063
21  11.480987 0.000223 -0.000829  -0.049906 -0.111721 0.028686
22  6.027524 -0.000330 0.000200  1.592660 -0.577426 1.553881
23  -0.000000 11.692099 -0.000007  -0.966495 -0.418658 -0.769283
24  0.000003 0.000010 -0.000000  -0.021116 -0.000031 1.570739
25  0.000000 -0.000011 0.000000  0.868960 0.000002 1.570712
26  -6.617934 -9.178503 0.826812  1.473120 1.855075 -0.198639
27  6.027513 -0.000259 -0.000221  1.544713 0.742676 -0.698264
28  11.691993 0.000160 0.000857  0.141449 0.000073 -1.845630
29  11.479277 -0.000905 0.000960  -1.194873 0.350370 0.872650
30  3.859438 -0.132758 1.193065  0.469647 -0.013262 -1.872395
31  1.312559 0.000026 -0.000000  0.024060 -0.138696 -0.550187
32  0.729346 0.000065 -0.000027  -0.166197 -0.081570 -0.714273
33  3.942047 0.050139 0.431000  0.225309 -0.086237 -1.592712
34  1.539097 0.000005 -0.000001  0.035254 -0.050373 -0.994350
35  1.196300 0.000079 -0.000004  -0.021521 0.002175 -0.839738
36  3.883414 -0.050472 -0.431084  0.184824 -0.271737 -1.204030
37  1.719563 -0.000085 -0.000004  0.022859 -0.107186 -1.509108
38  1.209198 0.000035 0.000011  0.000661 0.071072 -0.480462
39  3.859589 -0.149083 -1.331321  -0.104061 -0.070249 -0.272073
40  1.719414 -0.000098 -0.000036  -0.013177 0.003907 -1.203491
41  1.099674 0.000024 0.000007  -0.005887 -0.007993 -0.771205
42  0.805984 -0.359848 -1.318338  0.991670 0.166767 -0.799527
43  1.789780 -0.000009 -0.000042  0.000058 -0.002451 0.133097
44  1.206996 -0.000006 0.000006  0.000372 -0.000071 1.058780
45  5.740573 0.000081 0.000721  0.162486 -0.000013 0.000028
46  11.480799 -0.000106 0.000937  0.049977 0.073342 0.146752
47  6.027515 -0.000273 -0.000230  -0.888053 -0.512279 -1.726714
48  -0.000003 11.691974 -0.000006  -1.232561 0.677493 0.923139
49  0.000003 -0.000002 -0.000000  2.413977 -0.000036 1.570860
50  -0.000008 -0.000014 0.000005  2.272645 -0.000036 1.570861
51  -3.697506 -3.750718 -6.803914  -0.124182 -2.994151 1.480818
52  -0.000000 -0.000000 -0.000000  0.008153 -0.000259 0.000009
53  0.000000 -0.000000 0.000000  1.565115 0.043565 -0.106862
54  -0.485771 -15.788573 -5.738366  -0.799664 -0.153918 -1.935800
55  0.000001 0.000000 0.000000  0.000000 -0.000001 -0.000002
56  0.000031 0.000029 0.000001  -1.571902 -0.044449 -0.106509
57  5.185302 -16.056248 -16.646038  1.570796 -0.000000 0.000000
58  -15.417985 4.000748 -22.641926  1.570796 -0.000000 0.000000
59  2.236387 -0.189356 -5.037201  1.570796 -0.000000 0.000000
60  -0.004311 0.001230 -0.000371  0.006898 -0.005534 -0.284229
61  0.826810 10.209643 -4.879054  1.570796 -0.000000 0.000000
62  0.000000 0.000000 0.000000  -0.078727 -3.136056 0.284226
63  0.000000 0.000000 0.000000  1.570796 -0.000000 0.000000
64  -2.275493 -8.194656 -1.365261  1.572883 0.045702 0.008403
65  0.002681 -3.204031 0.621195  -0.000000 0.000000 -0.000000
66  0.048105 -1.112260 2.845371  -0.000000 0.000000 -0.000000
67  -1.184783 0.539746 -0.284904  0.000000 0.000000 -0.007782
68  0.047884 -1.610073 21.020466  -0.000000 0.000000 -0.000000
69  0.047881 -3.319713 2.472855  -0.000000 0.000000 -0.000000
70  0.172180 -2.040368 3.568007  -0.000000 0.000000 -0.000000
71  0.654947 -2.537530 2.477230  0.000000 0.000000 -0.261799
72  -3.588360 -1.097282 -23.660017  1.570796 -0.000000 0.000000
73  0.017809 1.799356 -0.402361  0.000000 -0.000000 0.000000
74  -2.421164 -12.893871 -5.468074  1.572883 0.045702 0.008403
75  0.031323 2.100358 -1.138378  -0.000000 0.000000 -0.000000
76  -0.024051 1.849583 -1.138376  -0.000000 0.000000 -0.000000
time 10
0  0.000006 0.000000 0.000000  -1.570800 -1.391899 -1.570792
1  -4.921969 1.082092 2.232071  -1.544956 -1.855077 -0.198630
2  6.027524 -0.000323 0.000190  -0.736185 -0.994444 -1.550492
3  11.692109 0.000645 -0.000739  -0.890211 -0.000018 -1.392743
4  11.479907 0.000227 -0.000886  1.198513 -0.615261 0.326880
5  3.859501 -0.142824 -1.192079  -0.573871 -0.316762 -1.795817
6  1.312589 0.000009 0.000008  -0.135121 -0.003384 -0.178728
7  0.729353 0.000054 0.000050  -0.006155 -0.010667 -0.248915
8  3.942141 0.046331 -0.431543  -0.497018 0.100803 -1.231861
9  1.539111 0.000084 0.000004  -0.000382 -0.119364 -0.902013
10  1.196333 0.000146 0.000029  0.012615 0.002795 -0.535714
11  3.883510 -0.047212 0.431351  -0.283712 0.421833 -0.633459
12  1.719571 -0.000030 0.000017  0.057360 -0.144594 -1.427911
13  1.209178 0.000091 0.000012  -0.003667 -0.003000 -0.405259
14  4.085235 -0.082653 1.151009  0.076971 0.573771 0.038997
15  1.719447 -0.000018 0.000027  0.015664 -0.064932 -0.867211
16  1.099674 0.000048 0.000004  -0.075642 0.030056 -1.536734
17  0.869860 -1.165528 1.469022  -1.184630 -0.527539 -0.152316
18  1.789819 -0.000004 -0.000017  0.000001 -0.000027 0.636398
19  1.207013 -0.000013 -0.000044  0.000006 -0.000006 -0.137935
20  5.740637 0.000389 -0.000700  -0.118286 0.000003 0.000063
21  11.480989 0.000224 -0.000830  -0.048568 -0.111039 0.029606
22  6.027524 -0.000330 0.000200  1.593117 -0.576052 1.550139
23  -0.000001 11.692100 -0.000006  -0.965524 -0.417799 -0.768634
24  0.000004 0.000008 0.000000  -0.021116 -0.000031 1.570739
25  -0.000001 -0.000011 0.000001  0.868960 0.000002 1.570712
26  -6.617934 -9.178503 0.826812  1.473120 1.855075 -0.198639
27  6.027513 -0.000259 -0.000221  1.542136 0.743865 -0.699331
28  11.691991 0.000161 0.000855  0.141449 0.000073 -1.842989
29  11.479301 -0.000892 0.000959  -1.189475 0.354245 0.869428
30  3.859437 -0.132759 1.193065  0.469647 -0.013262 -1.872395
31  1.312559 0.000025 -0.000001  0.024060 -0.138696 -0.550187
32  0.729346 0.000065 -0.000028  -0.166197 -0.081570 -0.714272
33  3.942047 0.050139 0.431000  0.225309 -0.086237 -1.592712
34  1.539097 0.000004 -0.000001  0.035254 -0.050373 -0.994350
35  1.196300 0.000077 -0.000003  -0.021521 0.002175 -0.839738
36  3.883413 -0.050472 -0.431084  0.184824 -0.271737 -1.204030
37  1.719563 -0.000084 -0.000005  0.022858 -0.107186 -1.509108
38  1.209197 0.000036 0.000012  0.000661 0.071072 -0.480462
39  3.859589 -0.149083 -1.331321  -0.104061 -0.070249 -0.272073
40  1.719415 -0.000098 -0.000035  -0.013177 0.003907 -1.203491
41  1.099674 0.000022 0.000007  -0.005887 -0.007993 -0.771205
42  0.805984 -0.359848 -1.318338  0.991670 0.166767 -0.799527
43  1.789780 -0.000008 -0.000042  0.000058 -0.002451 0.133097
44  1.206997 -0.000007 0.000005  0.000372 -0.000071 1.058780
45  5.740573 0.000079 0.000720  0.162927 -0.000014 0.000028
46  11.480805 -0.000105 0.000936  0.050727 0.074367 0.145708
47  6.027515 -0.000273 -0.000230  -0.890348 -0.513287 -1.724912
48  -0.000001 11.691974 -0.000006  -1.231000 0.675885 0.922411
49  0.000002 0.000000 0.000001  2.413977 -0.000036 1.570860
50  -0.000006 -0.000013 0.000004  2.272645 -0.000036 1.570861
51  -3.673778 -3.772776 -6.820485  -0.118317 -2.991792 1.479732
52  0.000000 -0.000000 0.000001  0.008153 -0.000259 0.000009
53  0.000000 -0.000000 -0.000000  1.565115 0.043565 -0.106862
54  -0.470730 -15.808191 -5.702512  -0.793367 -0.154613 -1.936985
55  -0.000001 0.000000 -0.000000  0.000000 -0.000001 -0.000002
56  0.000029 0.000029 0.000001  -1.571901 -0.044449 -0.106509
57  5.185302 -16.056248 -16.646038  1.570796 -0.000000 0.000000
58  -15.417985 4.000748 -22.641926  1.570796 -0.000000 0.000000
59  2.236387 -0.189356 -5.037201  1.570796 -0.000000 0.000000
60  -0.004311 0.001230 -0.000371  0.006898 -0.005534 -0.284229
61  0.826810 10.209643 -4.879054  1.570796 -0.000000 0.000000
62  0.000000 0.000000 0.000000  -0.078727 -3.136056 0.284226
63  0.000000 0.000000 0.000000  1.570796 -0.000000 0.000000
64  -2.283042 -8.201365 -1.361263  1.569962 0.040162 0.008061
65  0.002681 -3.204031 0.621196  0.000000 -0.000000 0.000000
66  0.048105 -1.112260 2.845372  0.000000 -0.000000 0.000000
67  -1.184782 0.539746 -0.284905  0.000000 -0.000000 -0.005765
68  0.047884 -1.610073 21.020464  0.000000 -0.000000 0.000000
69  0.047881 -3.319714 2.472854  0.000000 -0.000000 0.000000
70  0.172180 -2.040369 3.568006  0.000000 -0.000000 0.000000
71  0.654947 -2.537531 2.477231  0.000000 -0.000000 -0.261799
72  -3.588360 -1.097282 -23.660017  1.570796 -0.000000 0.000000
73  0.017809 1.799356 -0.402361  0.000000 -0.000000 0.000000
74  -2.406945 -12.912321 -5.451307  1.569962 0.040162 0.008061
75  0.031323 2.100358 -1.138380  0.000000 -0.000000 0.000000
76  -0.024051 1.849582 -1.138377  0.000000 -0.000000 0.000000
time 11
0  0.000006 0.000000 0.000000  -1.570800 -1.391899 -1.570792
1  -4.921969 1.082092 2.232071  -1.544956 -1.855077 -0.198630
2  6.027524 -0.000323 0.000190  -0.735210 -0.995849 -1.553368
3  11.692107 0.000644 -0.000739  -0.890211 -0.000018 -1.389856
4  11.479918 0.000232 -0.000877  1.201914 -0.612868 0.327245
5  3.859503 -0.142823 -1.192080  -0.573871 -0.316762 -1.795817
6  1.312589 0.000009 0.000007  -0.135121 -0.003384 -0.178728
7  0.729353 0.000056 0.000051  -0.006155 -0.010667 -0.248915
8  3.942138 0.046330 -0.431543  -0.497018 0.100803 -1.231861
9  1.539111 0.000083 0.000004  -0.000382 -0.119364 -0.902013
10  1.196332 0.000145 0.000028  0.012615 0.002795 -0.535714
11  3.883510 -0.047211 0.431350  -0.283712 0.421834 -0.633459
12  1.719573 -0.000030 0.000017  0.057360 -0.144594 -1.427911
13  1.209177 0.000092 0.000013  -0.003667 -0.003000 -0.405259
14  4.085232 -0.082654 1.151008  0.076971 0.573771 0.038997
15  1.719449 -0.000020 0.000027  0.015664 -0.064932 -0.867211
16  1.099674 0.000049 0.000007  -0.075642 0.030056 -1.536734
17  0.869861 -1.165527 1.469023  -1.184630 -0.527539 -0.152316
18  1.789820 -0.000001 -0.000018  0.000001 -0.000027 0.636398
19  1.207011 -0.000014 -0.000044  0.000006 -0.000006 -0.137935
20  5.740634 0.000389 -0.000698  -0.117185 0.000003 0.000064
21  11.480989 0.000225 -0.000826  -0.048038 -0.110494 0.029985
22  6.027524 -0.000330 0.000200  1.592417 -0.574670 1.548462
23  -0.000000 11.692099 -0.000007  -0.963789 -0.416268 -0.767472
24  0.000004 0.000008 -0.000000  -0.021116 -0.000031 1.570739
25  0.000000 -0.000012 0.000001  0.868960 0.000002 1.570712
26  -6.617934 -9.178503 0.826812  1.473120 1.855075 -0.198639
27  6.027513 -0.000259 -0.000221  1.541379 0.745141 -0.699672
28  11.691992 0.000161 0.000857  0.141449 0.000073 -1.840545
29  11.479321 -0.000879 0.000958  -1.187121 0.356056 0.867807
30  3.859437 -0.132759 1.193065  0.469647 -0.013262 -1.872395
31  1.312559 0.000026 -0.000001  0.024060 -0.138696 -0.550187
32  0.729346 0.000064 -0.000027  -0.166197 -0.081570 -0.714272
33  3.942046 0.050138 0.431001  0.225309 -0.086237 -1.592712
34  1.539097 0.000005 -0.000001  0.035254 -0.050373 -0.994350
35  1.196301 0.000077 -0.000004  -0.021521 0.002175 -0.839738
36  3.883413 -0.050472 -0.431084  0.184824 -0.271737 -1.204030
37  1.719564 -0.000085 -0.000004  0.022858 -0.107186 -1.509108
38  1.209197 0.000035 0.000011  0.000662 0.071072 -0.480462
39  3.859589 -0.149083 -1.331321  -0.104061 -0.070249 -0.272073
40  1.719415 -0.000098 -0.000034  -0.013177 0.003907 -1.203491
41  1.099674 0.000024 0.000007  -0.005887 -0.007993 -0.771205
42  0.805983 -0.359848 -1.318338  0.991670 0.166767 -0.799527
43  1.789779 -0.000008 -0.000042  0.000058 -0.002451 0.133097
44  1.206996 -0.000007 0.000005  0.000372 -0.000071 1.058781
45  5.740572 0.000080 0.000721  0.163048 -0.000014 0.000028
46  11.480808 -0.000101 0.000937  0.051050 0.074829 0.145204
47  6.027515 -0.000273 -0.000230  -0.891932 -0.513101 -1.723962
48  -0.000001 11.691974 -0.000006  -1.229555 0.674397 0.921736
49  0.000001 -0.000001 0.000001  2.413977 -0.000036 1.570860
50  -0.000006 -0.000014 0.000004  2.272645 -0.000036 1.570861
51  -3.664689 -3.794534 -6.824161  -0.115658 -2.990814 1.478697
52  0.000000 0.000000 -0.000001  0.008153 -0.000259 0.000009
53  -0.000000 -0.000000 0.000000  1.565115 0.043565 -0.106862
54  -0.472168 -15.830613 -5.683476  -0.790537 -0.154840 -1.938058
55  -0.000001 -0.000000 0.000000  0.000000 -0.000001 -0.000002
56  0.000029 0.000029 0.000001  -1.571901 -0.044449 -0.106509
57  5.185302 -16.056248 -16.646038  1.570796 -0.000000 0.000000
58  -15.417985 4.000748 -22.641926  1.570796 -0.000000 0.000000
59  2.236387 -0.189356 -5.037201  1.570796 -0.000000 0.000000
60  -0.004311 0.001230 -0.000371  0.006898 -0.005534 -0.284229
61  0.826810 10.209643 -4.879054  1.570796 -0.000000 0.000000
62  0.000000 0.000000 0.000000  -0.078727 -3.136056 0.284226
63  0.000000 0.000000 0.000000  1.570796 -0.000000 0.000000
64  -2.290591 -8.217364 -1.356065  1.568727 0.037643 0.007375
65  0.002681 -3.204031 0.621196  -0.000000 -0.000000 0.000000
66  0.048105 -1.112260 2.845371  -0.000000 -0.000000 0.000000
67  -1.184782 0.539746 -0.284905  -0.000000 -0.000000 -0.002018
68  0.047884 -1.610073 21.020468  -0.000000 -0.000000 0.000000
69  0.047882 -3.319714 2.472855  -0.000000 -0.000000 0.000000
70  0.172180 -2.040368 3.568007  -0.000000 -0.000000 0.000000
71  0.654947 -2.537531 2.477230  -0.000000 -0.000000 -0.261799
72  -3.588360 -1.097282 -23.660017  1.570796 -0.000000 0.000000
73  0.017809 1.799356 -0.402361  0.000000 -0.000000 0.000000
74  -2.407162 -12.933210 -5.440687  1.568727 0.037643 0.007375
75  0.031323 2.100358 -1.138379  -0.000000 -0.000000 0.000000
76  -0.024051 1.849583 -1.138377  -0.000000 -0.000000 0.000000
time 12
0  0.000006 0.000000 0.000000  -1.570800 -1.391899 -1.570792
1  -4.921969 1.082092 2.232071  -1.544956 -1.855077 -0.198630
2  6.027524 -0.000323 0.000190  -0.733343 -0.996894 -1.555498
3  11.692109 0.000644 -0.000739  -0.890210 -0.000018 -1.386806
4  11.479940 0.000239 -0.000869  1.201342 -0.611216 0.326452
5  3.859504 -0.142823 -1.192079  -0.573871 -0.316762 -1.795817
6  1.312589 0.000011 0.000006  -0.135121 -0.003384 -0.178728
7  0.729355 0.000054 0.000050  -0.006155 -0.010667 -0.248915
8  3.942142 0.046332 -0.431542  -0.497018 0.100803 -1.231861
9  1.539110 0.000083 0.000003  -0.000382 -0.119364 -0.902013
10  1.196334 0.000145 0.000029  0.012615 0.002795 -0.535714
11  3.883512 -0.047212 0.431351  -0.283712 0.421834 -0.633459
12  1.719573 -0.000030 0.000016  0.057360 -0.144594 -1.427911
13  1.209180 0.000091 0.000013  -0.003667 -0.003000 -0.405259
14  4.085237 -0.082652 1.151009  0.076971 0.573771 0.038997
15  1.719449 -0.000018 0.000029  0.015664 -0.064932 -0.867211
16  1.099675 0.000050 0.000005  -0.075642 0.030056 -1.536734
17  0.869862 -1.165527 1.469023  -1.184630 -0.527539 -0.152316
18  1.789819 -0.000004 -0.000017  0.000001 -0.000027 0.636398
19  1.207014 -0.000013 -0.000043  0.000006 -0.000006 -0.137935
20  5.740637 0.000388 -0.000699  -0.117020 0.000003 0.000063
21  11.480995 0.000225 -0.000825  -0.048254 -0.110171 0.029860
22  6.027524 -0.000330 0.000200  1.591162 -0.573665 1.548581
23  0.000000 11.692099 -0.000007  -0.961956 -0.414651 -0.766243
24  0.000004 0.000009 -0.000001  -0.021116 -0.000031 1.570738
25  0.000000 -0.000011 0.000000  0.868960 0.000002 1.570712
26  -6.617934 -9.178503 0.826812  1.473120 1.855075 -0.198639
27  6.027513 -0.000259 -0.000221  1.542095 0.746254 -0.699415
28  11.691992 0.000160 0.000856  0.141449 0.000073 -1.838825
29  11.479337 -0.000874 0.000955  -1.187797 0.355931 0.867789
30  3.859437 -0.132758 1.193065  0.469647 -0.013262 -1.872395
31  1.312559 0.000026 -0.000001  0.024060 -0.138696 -0.550187
32  0.729345 0.000064 -0.000027  -0.166197 -0.081570 -0.714272
33  3.942046 0.050139 0.431001  0.225309 -0.086237 -1.592712
34  1.539097 0.000006 -0.000001  0.035254 -0.050373 -0.994350
35  1.196300 0.000078 -0.000004  -0.021521 0.002175 -0.839738
36  3.883414 -0.050472 -0.431084  0.184824 -0.271737 -1.204030
37  1.719563 -0.000085 -0.000004  0.022858 -0.107186 -1.509108
38  1.209198 0.000036 0.000011  0.000661 0.071072 -0.480462
39  3.859589 -0.149082 -1.331321  -0.104061 -0.070249 -0.272073
40  1.719416 -0.000098 -0.000035  -0.013177 0.003907 -1.203491
41  1.099674 0.000022 0.000008  -0.005887 -0.007993 -0.771205
42  0.805984 -0.359847 -1.318338  0.991670 0.166767 -0.799527
43  1.789780 -0.000008 -0.000042  0.000058 -0.002451 0.133097
44  1.206996 -0.000007 0.000005  0.000372 -0.000071 1.058780
45  5.740573 0.000078 0.000720  0.162866 -0.000014 0.000028
46  11.480811 -0.000101 0.000937  0.050937 0.074757 0.145237
47  6.027515 -0.000273 -0.000230  -0.892709 -0.512073 -1.723810
48  -0.000000 11.691974 -0.000006  -1.228539 0.673351 0.921260
49  0.000003 -0.000001 0.000001  2.413977 -0.000036 1.570860
50  -0.000006 -0.000014 0.000005  2.272645 -0.000036 1.570861
51  -3.667575 -3.810864 -6.816863  -0.116236 -2.991067 1.477986
52  0.000000 -0.000000 0.000000  0.008153 -0.000259 0.000009
53  0.000000 0.000000 0.000001  1.565115 0.043565 -0.106862
54  -0.484037 -15.849836 -5.681594  -0.791163 -0.154751 -1.938760
55  -0.000000 -0.000001 0.000000  0.000000 -0.000001 -0.000002
56  0.000030 0.000028 0.000001  -1.571901 -0.044449 -0.106509
57  5.185302 -16.056248 -16.646038  1.570796 -0.000000 0.000000
58  -15.417985 4.000748 -22.641926  1.570796 -0.000000 0.000000
59  2.236387 -0.189356 -5.037201  1.570796 -0.000000 0.000000
60  -0.004311 0.001230 -0.000371  0.006898 -0.005534 -0.284229
61  0.826810 10.209643 -4.879054  1.570796 -0.000000 0.000000
62  0.000000 0.000000 0.000000  -0.078727 -3.136056 0.284226
63  0.000000 0.000000 0.000000  1.570796 -0.000000 0.000000
64  -2.294022 -8.236461 -1.350868  1.569036 0.038187 0.006589
65  0.002681 -3.204031 0.621197  0.000000 -0.000000 0.000000
66  0.048105 -1.112260 2.845372  0.000000 -0.000000 0.000000
67  -1.184782 0.539746 -0.284904  0.000000 -0.000000 0.000000
68  0.047884 -1.610073 21.020468  0.000000 -0.000000 0.000000
69  0.047882 -3.319714 2.472856  0.000000 -0.000000 0.000000
70  0.172180 -2.040369 3.568008  0.000000 -0.000000 0.000000
71  0.654947 -2.537530 2.477231  0.000000 -0.000000 -0.261799
72  -3.588360 -1.097282 -23.660017  1.570796 -0.000000 0.000000
73  0.017809 1.799356 -0.402361  0.000000 -0.000000 0.000000
74  -2.416585 -12.950962 -5.436864  1.569036 0.038187 0.006589
75  0.031323 2.100358 -1.138381  0.000000 -0.000000 0.000000
76  -0.024050 1.849583 -1.138378  0.000000 -0.000000 0.000000
time 13
0  0.000006 0.000000 0.000000  -1.570800 -1.391899 -1.570792
1  -4.921969 1.082092 2.232071  -1.544956 -1.855077 -0.198630
2  6.027524 -0.000323 0.000190  -0.731995 -0.997487 -1.556710
3  11.692108 0.000645 -0.000739  -0.890210 -0.000018 -1.384568
4  11.479955 0.000241 -0.000864  1.199754 -0.610086 0.325679
5  3.859504 -0.142824 -1.192080  -0.573871 -0.316762 -1.795817
6  1.312589 0.000010 0.000008  -0.135121 -0.003384 -0.178728
7  0.729355 0.000054 0.000050  -0.006156 -0.010667 -0.248915
8  3.942141 0.046331 -0.431544  -0.497018 0.100802 -1.231861
9  1.539111 0.000084 0.000004  -0.000382 -0.119364 -0.902013
10  1.196334 0.000145 0.000029  0.012615 0.002795 -0.535714
11  3.883511 -0.047212 0.431350  -0.283712 0.421834 -0.633459
12  1.719572 -0.000029 0.000017  0.057360 -0.144594 -1.427911
13  1.209179 0.000089 0.000010  -0.003667 -0.003000 -0.405259
14  4.085236 -0.082653 1.151008  0.076971 0.573771 0.038997
15  1.719449 -0.000018 0.000028  0.015664 -0.064932 -0.867211
16  1.099674 0.000049 0.000005  -0.075642 0.030056 -1.536734
17  0.869862 -1.165528 1.469022  -1.184630 -0.527539 -0.152316
18  1.789820 -0.000003 -0.000017  0.000001 -0.000027 0.636398
19  1.207013 -0.000013 -0.000043  0.000006 -0.000006 -0.137935
20  5.740635 0.000390 -0.000698  -0.117145 0.000003 0.000063
21  11.480997 0.000227 -0.000823  -0.048631 -0.109978 0.029654
22  6.027524 -0.000330 0.000200  1.590266 -0.573099 1.548988
23  -0.000001 11.692099 -0.000006  -0.960610 -0.413467 -0.765340
24  0.000004 0.000009 0.000000  -0.021116 -0.000031 1.570739
25  -0.000000 -0.000011 0.000001  0.868960 0.000002 1.570712
26  -6.617934 -9.178503 0.826812  1.473120 1.855075 -0.198639
27  6.027513 -0.000259 -0.000221  1.542867 0.747204 -0.699129
28  11.691992 0.000161 0.000857  0.141449 0.000073 -1.837687
29  11.479345 -0.000868 0.000955  -1.189121 0.355422 0.868437
30  3.859438 -0.132759 1.193065  0.469647 -0.013262 -1.872395
31  1.312559 0.000025 -0.000001  0.024060 -0.138696 -0.550187
32  0.729346 0.000064 -0.000027  -0.166197 -0.081570 -0.714272
33  3.942047 0.050138 0.431001  0.225309 -0.086237 -1.592712
34  1.539096 0.000005 -0.000001  0.035254 -0.050373 -0.994350
35  1.196299 0.000078 -0.000004  -0.021521 0.002175 -0.839738
36  3.883414 -0.050472 -0.431084  0.184824 -0.271737 -1.204030
37  1.719563 -0.000085 -0.000005  0.022858 -0.107186 -1.509108
38  1.209198 0.000035 0.000011  0.000661 0.071072 -0.480462
39  3.859589 -0.149083 -1.331320  -0.104061 -0.070249 -0.272073
40  1.719414 -0.000099 -0.000035  -0.013177 0.003907 -1.203491
41  1.099673 0.000023 0.000007  -0.005887 -0.007993 -0.771205
42  0.805984 -0.359848 -1.318338  0.991670 0.166767 -0.799527
43  1.789780 -0.000008 -0.000042  0.000058 -0.002451 0.133098
44  1.206996 -0.000007 0.000005  0.000372 -0.000071 1.058780
45  5.740572 0.000079 0.000722  0.162666 -0.000014 0.000028
46  11.480812 -0.000100 0.000937  0.050719 0.074585 0.145447
47  6.027515 -0.000273 -0.000230  -0.893303 -0.511095 -1.723758
48  0.000000 11.691974 -0.000006  -1.227867 0.672659 0.920944
49  0.000001 -0.000000 0.000001  2.413977 -0.000036 1.570860
50  -0.000006 -0.000014 0.000005  2.272645 -0.000036 1.570861
51  -3.670443 -3.821823 -6.807744  -0.117619 -2.991695 1.477514
52  -0.000000 0.000000 -0.000000  0.008153 -0.000259 0.000009
53  0.000000 -0.000000 0.000000  1.565115 0.043565 -0.106862
54  -0.493607 -15.863802 -5.685668  -0.792667 -0.154519 -1.939207
55  0.000000 -0.000001 -0.000000  0.000000 -0.000001 -0.000002
56  0.000030 0.000029 0.000001  -1.571901 -0.044449 -0.106509
57  5.185302 -16.056248 -16.646038  1.570796 -0.000000 0.000000
58  -15.417985 4.000748 -22.641926  1.570796 -0.000000 0.000000
59  2.236387 -0.189356 -5.037201  1.570796 -0.000000 0.000000
60  -0.004311 0.001230 -0.000371  0.006898 -0.005534 -0.284229
61  0.826810 10.209643 -4.879054  1.570796 -0.000000 0.000000
62  0.000000 0.000000 0.000000  -0.078727 -3.136056 0.284226
63  0.000000 0.000000 0.000000  1.570796 -0.000000 0.000000
64  -2.292777 -8.252460 -1.346870  1.569796 0.039485 0.005940
65  0.002680 -3.204031 0.621195  0.000000 0.000000 0.000000
66  0.048105 -1.112259 2.845371  0.000000 0.000000 0.000000
67  -1.184782 0.539746 -0.284905  0.000000 0.000000 0.000000
68  0.047883 -1.610072 21.020464  0.000000 0.000000 0.000000
69  0.047881 -3.319713 2.472854  0.000000 0.000000 0.000000
70  0.172180 -2.040368 3.568005  0.000000 0.000000 0.000000
71  0.654946 -2.537530 2.477229  0.000000 -0.000000 -0.261799
72  -3.588360 -1.097282 -23.660017  1.570796 -0.000000 0.000000
73  0.017809 1.799356 -0.402361  0.000000 -0.000000 0.000000
74  -2.423865 -12.963803 -5.436243  1.569796 0.039485 0.005940
75  0.031323 2.100358 -1.138380  0.000000 0.000000 0.000000
76  -0.024051 1.849583 -1.138378  0.000000 0.000000 0.000000
time 14
0  0.000006 0.000000 0.000000  -1.570800 -1.391899 -1.570792
1  -4.921969 1.082092 2.232071  -1.544956 -1.855077 -0.198630
2  6.027524 -0.000323 0.000190  -0.731333 -0.997505 -1.556743
3  11.692108 0.000643 -0.000738  -0.890210 -0.000018 -1.383836
4  11.479960 0.000244 -0.000862  1.197687 -0.609998 0.325123
5  3.859501 -0.142824 -1.192079  -0.573871 -0.316762 -1.795816
6  1.312589 0.000011 0.000008  -0.135121 -0.003384 -0.178728
7  0.729354 0.000055 0.000049  -0.006155 -0.010667 -0.248915
8  3.942139 0.046330 -0.431543  -0.497018 0.100803 -1.231861
9  1.539110 0.000082 0.000005  -0.000382 -0.119364 -0.902013
10  1.196332 0.000146 0.000028  0.012615 0.002795 -0.535714
11  3.883509 -0.047213 0.431350  -0.283712 0.421834 -0.633459
12  1.719573 -0.000031 0.000017  0.057360 -0.144594 -1.427911
13  1.209179 0.000089 0.000011  -0.003667 -0.003000 -0.405259
14  4.085232 -0.082654 1.151008  0.076971 0.573771 0.038997
15  1.719449 -0.000019 0.000029  0.015664 -0.064932 -0.867211
16  1.099675 0.000050 0.000007  -0.075642 0.030056 -1.536734
17  0.869859 -1.165528 1.469022  -1.184630 -0.527539 -0.152316
18  1.789820 -0.000003 -0.000017  0.000001 -0.000026 0.636398
19  1.207011 -0.000014 -0.000043  0.000006 -0.000006 -0.137935
20  5.740637 0.000388 -0.000699  -0.117537 0.000003 0.000063
21  11.481000 0.000227 -0.000822  -0.049040 -0.110003 0.029421
22  6.027524 -0.000330 0.000200  1.589838 -0.573093 1.549743
23  0.000000 11.692099 -0.000007  -0.960170 -0.413079 -0.765044
24  0.000003 0.000009 0.000000  -0.021116 -0.000031 1.570739
25  0.000000 -0.000012 0.000000  0.868960 0.000002 1.570712
26  -6.617934 -9.178503 0.826812  1.473120 1.855075 -0.198639
27  6.027513 -0.000259 -0.000221  1.543628 0.747527 -0.698830
28  11.691991 0.000161 0.000855  0.141449 0.000073 -1.837600
29  11.479347 -0.000865 0.000955  -1.190629 0.354545 0.869432
30  3.859437 -0.132759 1.193065  0.469647 -0.013262 -1.872395
31  1.312558 0.000027 -0.000001  0.024060 -0.138696 -0.550187
32  0.729345 0.000065 -0.000027  -0.166197 -0.081570 -0.714272
33  3.942046 0.050139 0.431000  0.225309 -0.086237 -1.592712
34  1.539097 0.000006 -0.000002  0.035254 -0.050373 -0.994350
35  1.196300 0.000078 -0.000004  -0.021521 0.002175 -0.839738
36  3.883413 -0.050473 -0.431084  0.184824 -0.271737 -1.204030
37  1.719563 -0.000085 -0.000004  0.022858 -0.107186 -1.509108
38  1.209198 0.000035 0.000011  0.000661 0.071072 -0.480462
39  3.859589 -0.149083 -1.331320  -0.104061 -0.070249 -0.272073
40  1.719415 -0.000098 -0.000035  -0.013177 0.003907 -1.203491
41  1.099674 0.000023 0.000008  -0.005887 -0.007993 -0.771205
42  0.805984 -0.359848 -1.318338  0.991670 0.166767 -0.799527
43  1.789780 -0.000008 -0.000043  0.000058 -0.002451 0.133098
44  1.206997 -0.000006 0.000005  0.000372 -0.000071 1.058780
45  5.740573 0.000080 0.000720  0.162523 -0.000014 0.000028
46  11.480814 -0.000098 0.000936  0.050489 0.074339 0.145750
47  6.027515 -0.000273 -0.000230  -0.893286 -0.510451 -1.723983
48  -0.000002 11.691974 -0.000005  -1.227815 0.672606 0.920920
49  0.000003 -0.000002 -0.000002  2.413977 -0.000036 1.570860
50  -0.000007 -0.000014 0.000005  2.272645 -0.000036 1.570861
51  -3.674877 -3.823171 -6.799974  -0.119270 -2.992453 1.477463
52  0.000000 0.000000 0.000000  0.008153 -0.000259 0.000009
53  -0.000000 -0.000000 0.000000  1.565115 0.043565 -0.106862
54  -0.499884 -15.867103 -5.693763  -0.794466 -0.154233 -1.939227
55  0.000001 -0.000000 -0.000000  0.000000 -0.000001 -0.000002
56  0.000031 0.000029 0.000001  -1.571901 -0.044449 -0.106510
57  5.185302 -16.056248 -16.646038  1.570796 -0.000000 0.000000
58  -15.417985 4.000748 -22.641926  1.570796 -0.000000 0.000000
59  2.236387 -0.189356 -5.037201  1.570796 -0.000000 0.000000
60  -0.004311 0.001230 -0.000371  0.006898 -0.005534 -0.284229
61  0.826810 10.209643 -4.879054  1.570796 -0.000000 0.000000
62  0.000000 0.000000 0.000000  -0.078727 -3.136056 0.284226
63  0.000000 0.000000 0.000000  1.570796 -0.000000 0.000000
64  -2.290038 -8.259169 -1.345271  1.570713 0.041035 0.005680
65  0.002681 -3.204031 0.621196  0.000000 0.000000 -0.000000
66  0.048105 -1.112260 2.845373  0.000000 0.000000 -0.000000
67  -1.184782 0.539746 -0.284905  0.000000 0.000000 -0.000000
68  0.047884 -1.610073 21.020470  0.000000 0.000000 -0.000000
69  0.047881 -3.319714 2.472856  0.000000 0.000000 -0.000000
70  0.172180 -2.040368 3.568007  0.000000 0.000000 -0.000000
71  0.654947 -2.537531 2.477231  0.000000 -0.000000 -0.261799
72  -3.588360 -1.097282 -23.660017  1.570796 -0.000000 0.000000
73  0.017809 1.799356 -0.402361  0.000000 -0.000000 0.000000
74  -2.428888 -12.966761 -5.438705  1.570713 0.041035 0.005680
75  0.031323 2.100358 -1.138382  0.000000 0.000000 -0.000000
76  -0.024051 1.849582 -1.138380  0.000000 0.000000 -0.000000
time 15
0  0.000006 0.000000 0.000000  -1.570800 -1.391899 -1.570792
1  -4.921969 1.082092 2.232071  -1.544956 -1.855077 -0.198630
2  6.027524 -0.000323 0.000190  -0.731306 -0.997144 -1.555994
3  11.692107 0.000645 -0.000739  -0.890210 -0.000018 -1.384278
4  11.479956 0.000242 -0.000864  1.195883 -0.610644 0.324836
5  3.859504 -0.142821 -1.192080  -0.573871 -0.316762 -1.795817
6  1.312588 0.000010 0.000008  -0.135121 -0.003384 -0.178728
7  0.729357 0.000053 0.000050  -0.006155 -0.010667 -0.248915
8  3.942140 0.046332 -0.431543  -0.497018 0.100803 -1.231861
9  1.539110 0.000083 0.000003  -0.000382 -0.119364 -0.902013
10  1.196334 0.000146 0.000027  0.012615 0.002795 -0.535714
11  3.883509 -0.047211 0.431351  -0.283712 0.421834 -0.633459
12  1.719573 -0.000028 0.000017  0.057360 -0.144594 -1.427911
13  1.209180 0.000089 0.000012  -0.003667 -0.003000 -0.405259
14  4.085233 -0.082653 1.151008  0.076971 0.573771 0.038997
15  1.719450 -0.000018 0.000030  0.015664 -0.064932 -0.867211
16  1.099675 0.000048 0.000005  -0.075642 0.030056 -1.536734
17  0.869862 -1.165525 1.469022  -1.184630 -0.527540 -0.152316
18  1.789819 -0.000004 -0.000017  0.000001 -0.000026 0.636398
19  1.207013 -0.000013 -0.000043  0.000006 -0.000006 -0.137935
20  5.740636 0.000389 -0.000699  -0.117998 0.000003 0.000063
21  11.480999 0.000226 -0.000824  -0.049355 -0.110169 0.029226
22  6.027524 -0.000330 0.000200  1.589836 -0.573456 1.550516
23  0.000000 11.692099 -0.000006  -0.960436 -0.413313 -0.765223
24  0.000003 0.000009 -0.000001  -0.021116 -0.000030 1.570739
25  0.000000 -0.000011 0.000001  0.868960 0.000002 1.570712
26  -6.617934 -9.178503 0.826812  1.473120 1.855075 -0.198639
27  6.027513 -0.000259 -0.000221  1.544211 0.747344 -0.698588
28  11.691991 0.000161 0.000856  0.141449 0.000073 -1.838202
29  11.479342 -0.000867 0.000955  -1.191862 0.353596 0.870341
30  3.859438 -0.132759 1.193065  0.469647 -0.013262 -1.872395
31  1.312558 0.000025 -0.000001  0.024060 -0.138696 -0.550187
32  0.729346 0.000065 -0.000028  -0.166197 -0.081570 -0.714272
33  3.942047 0.050138 0.431000  0.225309 -0.086237 -1.592712
34  1.539097 0.000005 -0.000001  0.035254 -0.050373 -0.994350
35  1.196300 0.000077 -0.000004  -0.021521 0.002175 -0.839738
36  3.883414 -0.050473 -0.431084  0.184824 -0.271737 -1.204030
37  1.719564 -0.000085 -0.000005  0.022858 -0.107186 -1.509108
38  1.209198 0.000035 0.000012  0.000661 0.071072 -0.480462
39  3.859589 -0.149083 -1.331321  -0.104061 -0.070249 -0.272073
40  1.719414 -0.000098 -0.000035  -0.013177 0.003907 -1.203491
41  1.099673 0.000022 0.000007  -0.005887 -0.007993 -0.771205
42  0.805983 -0.359848 -1.318338  0.991670 0.166767 -0.799527
43  1.789780 -0.000008 -0.000042  0.000058 -0.002451 0.133097
44  1.206997 -0.000006 0.000006  0.000372 -0.000071 1.058780
45  5.740573 0.000080 0.000722  0.162447 -0.000014 0.000028
46  11.480813 -0.000099 0.000935  0.050318 0.074098 0.146026
47  6.027515 -0.000273 -0.000230  -0.892853 -0.510179 -1.724350
48  -0.000001 11.691974 -0.000004  -1.228171 0.672973 0.921087
49  0.000003 -0.000000 0.000000  2.413978 -0.000036 1.570860
50  -0.000007 -0.000015 0.000006  2.272645 -0.000036 1.570861
51  -3.679571 -3.818100 -6.795176  -0.120655 -2.993095 1.477742
52  0.000000 -0.000000 -0.000000  0.008153 -0.000259 0.000009
53  -0.000000 0.000000 0.000000  1.565115 0.043565 -0.106862
54  -0.502256 -15.862640 -5.702336  -0.795976 -0.153987 -1.938921
55  0.000000 0.000001 0.000000  0.000000 -0.000001 -0.000002
56  0.000031 0.000029 0.000002  -1.571901 -0.044449 -0.106509
57  5.185302 -16.056248 -16.646038  1.570796 -0.000000 0.000000
58  -15.417985 4.000748 -22.641926  1.570796 -0.000000 0.000000
59  2.236387 -0.189356 -5.037201  1.570796 -0.000000 0.000000
60  -0.004311 0.001230 -0.000371  0.006898 -0.005534 -0.284229
61  0.826810 10.209643 -4.879054  1.570796 -0.000000 0.000000
62  0.000000 0.000000 0.000000  -0.078727 -3.136056 0.284226
63  0.000000 0.000000 0.000000  1.570796 -0.000000 0.000000
64  -2.287300 -8.258175 -1.345683  1.571488 0.042334 0.005786
65  0.002681 -3.204031 0.621197  0.000000 -0.000000 0.000000
66  0.048105 -1.112260 2.845372  0.000000 -0.000000 0.000000
67  -1.184782 0.539746 -0.284904  0.000000 -0.000000 0.000000
68  0.047884 -1.610073 21.020468  0.000000 -0.000000 0.000000
69  0.047881 -3.319713 2.472855  0.000000 -0.000000 0.000000
70  0.172180 -2.040368 3.568008  0.000000 -0.000000 0.000000
71  0.654947 -2.537530 2.477231  0.000000 -0.000000 -0.261799
72  -3.588360 -1.097282 -23.660017  1.570796 -0.000000 0.000000
73  0.017809 1.799356 -0.402361  0.000000 -0.000000 0.000000
74  -2.431139 -12.962638 -5.442541  1.571488 0.042334 0.005786
75  0.031323 2.100357 -1.138379  0.000000 -0.000000 0.000000
76  -0.024051 1.849582 -1.138376  0.000000 -0.000000 0.000000
time 16
0  0.000006 0.000000 0.000000  -1.570800 -1.391899 -1.570792
1  -4.921969 1.082092 2.232071  -1.544956 -1.855077 -0.198630
2  6.027524 -0.000323 0.000190  -0.731535 -0.996845 -1.555378
3  11.692106 0.000644 -0.000738  -0.890210 -0.000018 -1.384833
4  11.479951 0.000243 -0.000865  1.195148 -0.611192 0.324747
5  3.859503 -0.142824 -1.192079  -0.573871 -0.316762 -1.795817
6  1.312590 0.000008 0.000007  -0.135121 -0.003384 -0.178728
7  0.729355 0.000054 0.000051  -0.006155 -0.010667 -0.248915
8  3.942140 0.046331 -0.431543  -0.497018 0.100802 -1.231861
9  1.539111 0.000084 0.000003  -0.000382 -0.119364 -0.902014
10  1.196331 0.000147 0.000028  0.012615 0.002795 -0.535714
11  3.883510 -0.047212 0.431351  -0.283712 0.421834 -0.633459
12  1.719573 -0.000031 0.000017  0.057360 -0.144594 -1.427911
13  1.209179 0.000091 0.000015  -0.003667 -0.003000 -0.405259
14  4.085235 -0.082653 1.151009  0.076971 0.573771 0.038997
15  1.719448 -0.000018 0.000027  0.015664 -0.064932 -0.867211
16  1.099675 0.000047 0.000004  -0.075642 0.030056 -1.536734
17  0.869861 -1.165527 1.469023  -1.184630 -0.527539 -0.152316
18  1.789819 -0.000004 -0.000017  0.000001 -0.000026 0.636398
19  1.207012 -0.000014 -0.000044  0.000006 -0.000006 -0.137935
20  5.740635 0.000388 -0.000700  -0.118230 0.000003 0.000063
21  11.480996 0.000226 -0.000826  -0.049468 -0.110293 0.029141
22  6.027524 -0.000330 0.000200  1.589996 -0.573750 1.550852
23  -0.000001 11.692098 -0.000006  -0.960769 -0.413607 -0.765447
24  0.000003 0.000010 0.000000  -0.021116 -0.000031 1.570739
25  0.000000 -0.000012 0.000001  0.868960 0.000002 1.570712
26  -6.617934 -9.178503 0.826812  1.473120 1.855075 -0.198639
27  6.027513 -0.000259 -0.000221  1.544458 0.747106 -0.698482
28  11.691992 0.000160 0.000856  0.141449 0.000073 -1.838647
29  11.479338 -0.000871 0.000955  -1.192379 0.353047 0.870668
30  3.859437 -0.132759 1.193065  0.469647 -0.013262 -1.872395
31  1.312559 0.000026 -0.000001  0.024060 -0.138696 -0.550187
32  0.729345 0.000065 -0.000027  -0.166197 -0.081570 -0.714272
33  3.942047 0.050139 0.431000  0.225309 -0.086237 -1.592712
34  1.539097 0.000007 -0.000001  0.035254 -0.050373 -0.994350
35  1.196300 0.000078 -0.000004  -0.021521 0.002175 -0.839738
36  3.883414 -0.050473 -0.431085  0.184824 -0.271737 -1.204030
37  1.719563 -0.000085 -0.000005  0.022859 -0.107186 -1.509108
38  1.209197 0.000035 0.000012  0.000661 0.071072 -0.480462
39  3.859589 -0.149083 -1.331321  -0.104061 -0.070249 -0.272073
40  1.719414 -0.000098 -0.000035  -0.013177 0.003907 -1.203491
41  1.099674 0.000023 0.000006  -0.005887 -0.007993 -0.771205
42  0.805984 -0.359848 -1.318338  0.991670 0.166767 -0.799527
43  1.789780 -0.000007 -0.000042  0.000058 -0.002451 0.133097
44  1.206996 -0.000006 0.000005  0.000372 -0.000071 1.058780
45  5.740572 0.000079 0.000721  0.162415 -0.000014 0.000028
46  11.480812 -0.000100 0.000936  0.050261 0.073967 0.146136
47  6.027515 -0.000273 -0.000230  -0.892512 -0.510149 -1.724578
48  -0.000002 11.691974 -0.000006  -1.228434 0.673243 0.921211
49  0.000003 0.000001 0.000001  2.413977 -0.000036 1.570860
50  -0.000007 -0.000013 0.000004  2.272645 -0.000036 1.570861
51  -3.682224 -3.814249 -6.793953  -0.121235 -2.993368 1.478035
52  -0.000000 -0.000000 -0.000000  0.008153 -0.000259 0.000009
53  0.000000 -0.000000 -0.000000  1.565115 0.043565 -0.106862
54  -0.501817 -15.858485 -5.706768  -0.796610 -0.153880 -1.938617
55  -0.000001 0.000001 0.000000  0.000000 -0.000001 -0.000002
56  0.000029 0.000029 0.000001  -1.571902 -0.044449 -0.106509
57  5.185302 -16.056248 -16.646038  1.570796 -0.000000 0.000000
58  -15.417985 4.000748 -22.641926  1.570796 -0.000000 0.000000
59  2.236387 -0.189356 -5.037201  1.570796 -0.000000 0.000000
60  -0.004311 0.001230 -0.000371  0.006898 -0.005534 -0.284229
61  0.826810 10.209643 -4.879054  1.570796 -0.000000 0.000000
62  0.000000 0.000000 0.000000  -0.078727 -3.136056 0.284226
63  0.000000 0.000000 0.000000  1.570796 -0.000000 0.000000
64  -2.286055 -8.255806 -1.346666  1.571816 0.042878 0.006007
65  0.002681 -3.204031 0.621195  0.000000 -0.000000 -0.000000
66  0.048105 -1.112260 2.845370  0.000000 -0.000000 -0.000000
67  -1.184782 0.539746 -0.284906  0.000000 -0.000000 -0.000000
68  0.047884 -1.610073 21.020466  0.000000 -0.000000 -0.000000
69  0.047881 -3.319713 2.472853  0.000000 -0.000000 -0.000000
70  0.172180 -2.040368 3.568006  0.000000 -0.000000 -0.000000
71  0.654947 -2.537531 2.477229  0.000000 -0.000000 -0.261799
72  -3.588360 -1.097282 -23.660017  1.570796 -0.000000 0.000000
73  0.017809 1.799356 -0.402361  0.000000 -0.000000 0.000000
74  -2.431158 -12.958967 -5.444975  1.571816 0.042878 0.006007
75  0.031322 2.100358 -1.138380  0.000000 -0.000000 -0.000000
76  -0.024051 1.849582 -1.138377  0.000000 -0.000000 -0.000000
time 17
0  0.000006 0.000000 0.000000  -1.570800 -1.391899 -1.570792
1  -4.921969 1.082092 2.232071  -1.544956 -1.855077 -0.198630
2  6.027524 -0.000323 0.000190  -0.731978 -0.996691 -1.555062
3  11.692108 0.000643 -0.000738  -0.890210 -0.000018 -1.385335
4  11.479950 0.000242 -0.000867  1.195686 -0.611461 0.324930
5  3.859503 -0.142824 -1.192079  -0.573871 -0.316762 -1.795817
6  1.312589 0.000009 0.000008  -0.135121 -0.003384 -0.178728
7  0.729354 0.000055 0.000049  -0.006155 -0.010667 -0.248915
8  3.942139 0.046331 -0.431542  -0.497018 0.100803 -1.231861
9  1.539111 0.000082 0.000002  -0.000382 -0.119364 -0.902013
10  1.196333 0.000145 0.000028  0.012615 0.002795 -0.535714
11  3.883512 -0.047212 0.431350  -0.283712 0.421834 -0.633459
12  1.719574 -0.000027 0.000016  0.057360 -0.144594 -1.427911
13  1.209180 0.000089 0.000014  -0.003667 -0.003000 -0.405259
14  4.085234 -0.082653 1.151008  0.076971 0.573771 0.038997
15  1.719447 -0.000020 0.000028  0.015664 -0.064932 -0.867211
16  1.099674 0.000049 0.000006  -0.075642 0.030056 -1.536734
17  0.869863 -1.165527 1.469023  -1.184630 -0.527539 -0.152316
18  1.789820 -0.000002 -0.000017  0.000001 -0.000026 0.636398
19  1.207015 -0.000013 -0.000044  0.000006 -0.000006 -0.137935
20  5.740637 0.000389 -0.000699  -0.118161 0.000003 0.000064
21  11.480998 0.000226 -0.000825  -0.049349 -0.110335 0.029200
22  6.027524 -0.000330 0.000200  1.590289 -0.573895 1.550637
23  0.000001 11.692099 -0.000007  -0.961071 -0.413873 -0.765650
24  0.000002 0.000009 0.000000  -0.021116 -0.000031 1.570739
25  0.000000 -0.000012 0.000000  0.868960 0.000002 1.570712
26  -6.617934 -9.178503 0.826812  1.473120 1.855075 -0.198639
27  6.027513 -0.000259 -0.000221  1.544270 0.746911 -0.698553
28  11.691990 0.000160 0.000856  0.141449 0.000073 -1.838797
29  11.479335 -0.000872 0.000956  -1.191988 0.353084 0.870386
30  3.859437 -0.132758 1.193065  0.469647 -0.013262 -1.872395
31  1.312559 0.000026 -0.000001  0.024060 -0.138696 -0.550187
32  0.729345 0.000065 -0.000028  -0.166197 -0.081570 -0.714272
33  3.942047 0.050138 0.430999  0.225309 -0.086237 -1.592712
34  1.539097 0.000005 -0.000000  0.035254 -0.050373 -0.994350
35  1.196301 0.000077 -0.000003  -0.021521 0.002175 -0.839738
36  3.883414 -0.050473 -0.431084  0.184824 -0.271737 -1.204030
37  1.719563 -0.000085 -0.000005  0.022858 -0.107186 -1.509108
38  1.209198 0.000035 0.000012  0.000662 0.071072 -0.480462
39  3.859589 -0.149083 -1.331321  -0.104061 -0.070249 -0.272073
40  1.719414 -0.000098 -0.000035  -0.013177 0.003907 -1.203491
41  1.099674 0.000023 0.000007  -0.005887 -0.007993 -0.771205
42  0.805983 -0.359847 -1.318339  0.991670 0.166767 -0.799527
43  1.789780 -0.000009 -0.000042  0.000058 -0.002451 0.133098
44  1.206996 -0.000006 0.000006  0.000372 -0.000071 1.058780
45  5.740570 0.000080 0.000721  0.162452 -0.000014 0.000028
46  11.480809 -0.000100 0.000936  0.050337 0.073995 0.146061
47  6.027515 -0.000273 -0.000230  -0.892403 -0.510367 -1.724574
48  -0.000001 11.691975 -0.000005  -1.228522 0.673334 0.921252
49  0.000001 -0.000001 0.000001  2.413977 -0.000036 1.570860
50  -0.000008 -0.000014 0.000005  2.272645 -0.000036 1.570861
51  -3.681631 -3.812762 -6.796475  -0.120821 -2.993225 1.478233
52  0.000000 -0.000000 -0.000000  0.008153 -0.000259 0.000009
53  -0.000000 -0.000000 -0.000000  1.565115 0.043565 -0.106862
54  -0.498531 -15.855977 -5.705868  -0.796172 -0.153906 -1.938425
55  0.000000 0.000001 -0.000001  0.000000 -0.000001 -0.000002
56  0.000030 0.000030 0.000001  -1.571901 -0.044449 -0.106509
57  5.185302 -16.056248 -16.646038  1.570796 -0.000000 0.000000
58  -15.417985 4.000748 -22.641926  1.570796 -0.000000 0.000000
59  2.236387 -0.189356 -5.037201  1.570796 -0.000000 0.000000
60  -0.004311 0.001230 -0.000371  0.006898 -0.005534 -0.284229
61  0.826810 10.209643 -4.879054  1.570796 -0.000000 0.000000
62  0.000000 0.000000 0.000000  -0.078727 -3.136056 0.284226
63  0.000000 0.000000 0.000000  1.570796 -0.000000 0.000000
64  -2.286461 -8.252977 -1.347839  1.571634 0.042485 0.006259
65  0.002681 -3.204031 0.621196  -0.000000 0.000000 0.000000
66  0.048105 -1.112260 2.845373  -0.000000 0.000000 0.000000
67  -1.184782 0.539746 -0.284905  -0.000000 0.000000 0.000000
68  0.047884 -1.610073 21.020466  -0.000000 0.000000 0.000000
69  0.047881 -3.319714 2.472855  -0.000000 0.000000 0.000000
70  0.172180 -2.040368 3.568006  -0.000000 0.000000 0.000000
71  0.654947 -2.537530 2.477231  0.000000 -0.000000 -0.261799
72  -3.588360 -1.097282 -23.660017  1.570796 -0.000000 0.000000
73  0.017809 1.799356 -0.402361  0.000000 -0.000000 0.000000
74  -2.428728 -12.956912 -5.445359  1.571634 0.042485 0.006259
75  0.031323 2.100358 -1.138380  -0.000000 0.000000 0.000000
76  -0.024051 1.849583 -1.138377  -0.000000 0.000000 0.000000
time 18
0  0.000006 0.000000 0.000000  -1.570800 -1.391899 -1.570792
1  -4.921969 1.082092 2.232071  -1.544956 -1.855077 -0.198630
2  6.027524 -0.000323 0.000190  -0.732461 -0.996617 -1.554914
3  11.692108 0.000645 -0.000739  -0.890210 -0.000018 -1.385730
4  11.479948 0.000241 -0.000867  1.196656 -0.611548 0.325233
5  3.859503 -0.142822 -1.192080  -0.573871 -0.316762 -1.795816
6  1.312589 0.000010 0.000009  -0.135121 -0.003384 -0.178728
7  0.729356 0.000055 0.000050  -0.006156 -0.010667 -0.248915
8  3.942141 0.046332 -0.431543  -0.497018 0.100802 -1.231861
9  1.539110 0.000082 0.000001  -0.000382 -0.119364 -0.902014
10  1.196331 0.000146 0.000029  0.012615 0.002795 -0.535714
11  3.883510 -0.047211 0.431350  -0.283712 0.421834 -0.633459
12  1.719573 -0.000030 0.000018  0.057360 -0.144594 -1.427911
13  1.209180 0.000090 0.000012  -0.003667 -0.003000 -0.405259
14  4.085233 -0.082653 1.151008  0.076971 0.573771 0.038997
15  1.719447 -0.000017 0.000029  0.015664 -0.064932 -0.867211
16  1.099675 0.000050 0.000006  -0.075642 0.030056 -1.536734
17  0.869860 -1.165527 1.469022  -1.184630 -0.527539 -0.152316
18  1.789820 -0.000003 -0.000018  0.000001 -0.000027 0.636398
19  1.207014 -0.000013 -0.000044  0.000006 -0.000006 -0.137935
20  5.740637 0.000388 -0.000700  -0.117973 0.000003 0.000064
21  11.480997 0.000226 -0.000825  -0.049153 -0.110332 0.029316
22  6.027524 -0.000330 0.000200  1.590604 -0.573960 1.550208
23  0.000001 11.692098 -0.000005  -0.961309 -0.414082 -0.765809
24  0.000003 0.000008 0.000000  -0.021116 -0.000031 1.570738
25  0.000000 -0.000012 0.000002  0.868960 0.000002 1.570712
26  -6.617934 -9.178503 0.826812  1.473120 1.855075 -0.198639
27  6.027513 -0.000259 -0.000221  1.543908 0.746796 -0.698696
28  11.691993 0.000160 0.000857  0.141449 0.000073 -1.838791
29  11.479337 -0.000869 0.000956  -1.191260 0.353384 0.869947
30  3.859437 -0.132759 1.193065  0.469647 -0.013262 -1.872395
31  1.312558 0.000025 -0.000001  0.024060 -0.138696 -0.550187
32  0.729346 0.000065 -0.000027  -0.166197 -0.081570 -0.714273
33  3.942047 0.050138 0.431000  0.225309 -0.086237 -1.592712
34  1.539097 0.000006 -0.000001  0.035254 -0.050373 -0.994350
35  1.196300 0.000078 -0.000003  -0.021521 0.002175 -0.839738
36  3.883414 -0.050472 -0.431084  0.184824 -0.271737 -1.204030
37  1.719564 -0.000084 -0.000005  0.022859 -0.107186 -1.509108
38  1.209198 0.000035 0.000011  0.000661 0.071072 -0.480462
39  3.859589 -0.149083 -1.331321  -0.104061 -0.070249 -0.272073
40  1.719414 -0.000098 -0.000035  -0.013177 0.003907 -1.203491
41  1.099674 0.000024 0.000006  -0.005887 -0.007993 -0.771205
42  0.805983 -0.359848 -1.318338  0.991670 0.166767 -0.799527
43  1.789780 -0.000008 -0.000042  0.000058 -0.002451 0.133097
44  1.206996 -0.000007 0.000006  0.000372 -0.000071 1.058780
45  5.740573 0.000081 0.000721  0.162522 -0.000014 0.000028
46  11.480812 -0.000098 0.000936  0.050458 0.074092 0.145929
47  6.027515 -0.000273 -0.000230  -0.892448 -0.510654 -1.724450
48  -0.000000 11.691975 -0.000006  -1.228519 0.673331 0.921251
49  0.000003 -0.000001 -0.000000  2.413977 -0.000036 1.570860
50  -0.000006 -0.000013 0.000004  2.272645 -0.000036 1.570861
51  -3.679372 -3.812551 -6.799988  -0.120051 -2.992955 1.478340
52  -0.000000 -0.000000 0.000001  0.008153 -0.000259 0.000009
53  -0.000000 -0.000000 0.000000  1.565115 0.043565 -0.106862
54  -0.494411 -15.854692 -5.702957  -0.795356 -0.153959 -1.938329
55  -0.000001 0.000000 -0.000001  0.000000 -0.000001 -0.000002
56  0.000029 0.000029 0.000000  -1.571901 -0.044449 -0.106509
57  5.185302 -16.056248 -16.646038  1.570796 -0.000000 0.000000
58  -15.417985 4.000748 -22.641926  1.570796 -0.000000 0.000000
59  2.236387 -0.189356 -5.037201  1.570796 -0.000000 0.000000
60  -0.004311 0.001230 -0.000371  0.006898 -0.005534 -0.284229
61  0.826810 10.209643 -4.879054  1.570796 -0.000000 0.000000
62  0.000000 0.000000 0.000000  -0.078727 -3.136056 0.284226
63  0.000000 0.000000 0.000000  1.570796 -0.000000 0.000000
64  -2.287217 -8.250608 -1.348823  1.571290 0.041754 0.006466
65  0.002681 -3.204031 0.621195  0.000000 -0.000000 0.000000
66  0.048105 -1.112260 2.845372  0.000000 -0.000000 0.000000
67  -1.184782 0.539746 -0.284903  0.000000 -0.000000 0.000000
68  0.047884 -1.610073 21.020466  0.000000 -0.000000 0.000000
69  0.047881 -3.319713 2.472855  0.000000 -0.000000 0.000000
70  0.172180 -2.040368 3.568007  0.000000 -0.000000 0.000000
71  0.654947 -2.537531 2.477230  0.000000 -0.000000 -0.261799
72  -3.588360 -1.097282 -23.660017  1.570796 -0.000000 0.000000
73  0.017809 1.799356 -0.402361  0.000000 -0.000000 0.000000
74  -2.425438 -12.955965 -5.444849  1.571290 0.041754 0.006466
75  0.031323 2.100359 -1.138379  0.000000 -0.000000 0.000000
76  -0.024050 1.849583 -1.138376  0.000000 -0.000000 0.000000
time 19
0  0.000006 0.000000 0.000000  -1.570800 -1.391899 -1.570792
1  -4.921969 1.082092 2.232071  -1.544956 -1.855077 -0.198630
2  6.027524 -0.000323 0.000190  -0.732687 -0.996598 -1.554878
3  11.692109 0.000643 -0.000739  -0.890210 -0.000018 -1.385890
4  11.479946 0.000240 -0.000866  1.197175 -0.611554 0.325392
5  3.859504 -0.142824 -1.192080  -0.573871 -0.316762 -1.795816
6  1.312590 0.000012 0.000009  -0.135121 -0.003384 -0.178728
7  0.729354 0.000055 0.000048  -0.006155 -0.010667 -0.248915
8  3.942142 0.046330 -0.431543  -0.497018 0.100803 -1.231861
9  1.539110 0.000083 0.000005  -0.000381 -0.119364 -0.902013
10  1.196334 0.000145 0.000029  0.012615 0.002795 -0.535714
11  3.883511 -0.047212 0.431351  -0.283712 0.421834 -0.633459
12  1.719574 -0.000028 0.000018  0.057360 -0.144594 -1.427911
13  1.209180 0.000090 0.000012  -0.003667 -0.003000 -0.405259
14  4.085235 -0.082654 1.151009  0.076971 0.573771 0.038997
15  1.719448 -0.000020 0.000028  0.015664 -0.064932 -0.867211
16  1.099674 0.000048 0.000004  -0.075642 0.030056 -1.536734
17  0.869862 -1.165528 1.469023  -1.184630 -0.527539 -0.152316
18  1.789820 -0.000003 -0.000019  0.000001 -0.000026 0.636398
19  1.207012 -0.000013 -0.000044  0.000006 -0.000006 -0.137935
20  5.740635 0.000389 -0.000697  -0.117865 0.000003 0.000064
21  11.480996 0.000226 -0.000825  -0.049051 -0.110324 0.029379
22  6.027524 -0.000330 0.000200  1.590751 -0.573974 1.549975
23  0.000000 11.692099 -0.000007  -0.961406 -0.414167 -0.765874
24  0.000002 0.000009 -0.000001  -0.021116 -0.000030 1.570738
25  -0.000000 -0.000012 0.000000  0.868960 0.000002 1.570712
26  -6.617934 -9.178503 0.826812  1.473120 1.855075 -0.198639
27  6.027513 -0.000259 -0.000221  1.543713 0.746759 -0.698774
28  11.691992 0.000163 0.000856  0.141449 0.000073 -1.838760
29  11.479339 -0.000870 0.000956  -1.190867 0.353569 0.869720
30  3.859438 -0.132759 1.193065  0.469647 -0.013262 -1.872395
31  1.312559 0.000026 -0.000002  0.024060 -0.138696 -0.550187
32  0.729345 0.000065 -0.000028  -0.166197 -0.081570 -0.714272
33  3.942047 0.050139 0.431000  0.225309 -0.086237 -1.592712
34  1.539097 0.000006 -0.000001  0.035254 -0.050373 -0.994350
35  1.196300 0.000078 -0.000004  -0.021521 0.002175 -0.839738
36  3.883414 -0.050472 -0.431084  0.184824 -0.271737 -1.204030
37  1.719563 -0.000085 -0.000005  0.022858 -0.107186 -1.509108
38  1.209198 0.000035 0.000011  0.000661 0.071072 -0.480462
39  3.859589 -0.149083 -1.331321  -0.104061 -0.070249 -0.272073
40  1.719414 -0.000098 -0.000035  -0.013177 0.003907 -1.203491
41  1.099674 0.000022 0.000007  -0.005887 -0.007993 -0.771205
42  0.805984 -0.359848 -1.318338  0.991670 0.166767 -0.799527
43  1.789780 -0.000008 -0.000042  0.000058 -0.002451 0.133097
44  1.206997 -0.000006 0.000005  0.000372 -0.000071 1.058780
45  5.740573 0.000080 0.000722  0.162559 -0.000014 0.000028
46  11.480811 -0.000099 0.000937  0.050520 0.074149 0.145858
47  6.027515 -0.000273 -0.000230  -0.892497 -0.510796 -1.724372
48  -0.000002 11.691977 -0.000006  -1.228501 0.673312 0.921242
49  0.000002 0.000001 -0.000001  2.413977 -0.000036 1.570860
50  -0.000008 -0.000013 0.000005  2.272645 -0.000036 1.570861
51  -3.678041 -3.812688 -6.801764  -0.119636 -2.992809 1.478372
52  0.000000 -0.000000 0.000000  0.008153 -0.000259 0.000009
53  0.000000 -0.000000 0.000000  1.565115 0.043565 -0.106862
54  -0.492388 -15.854329 -5.701267  -0.794917 -0.153989 -1.938303
55  -0.000001 -0.000000 0.000000  0.000000 -0.000001 -0.000002
56  0.000030 0.000029 0.000002  -1.571901 -0.044449 -0.106509
57  5.185302 -16.056248 -16.646038  1.570796 -0.000000 0.000000
58  -15.417985 4.000748 -22.641926  1.570796 -0.000000 0.000000
59  2.236387 -0.189356 -5.037201  1.570796 -0.000000 0.000000
60  -0.004311 0.001230 -0.000371  0.006898 -0.005534 -0.284229
61  0.826810 10.209643 -4.879054  1.570796 -0.000000 0.000000
62  0.000000 0.000000 0.000000  -0.078727 -3.136056 0.284226
63  0.000000 0.000000 0.000000  1.570796 -0.000000 0.000000
64  -2.287624 -8.249615 -1.349235  1.571103 0.041360 0.006551
65  0.002681 -3.204031 0.621196  0.000000 -0.000000 -0.000000
66  0.048105 -1.112259 2.845372  0.000000 -0.000000 -0.000000
67  -1.184782 0.539746 -0.284905  0.000000 -0.000000 -0.000000
68  0.047884 -1.610073 21.020466  0.000000 -0.000000 -0.000000
69  0.047881 -3.319713 2.472854  0.000000 -0.000000 -0.000000
70  0.172180 -2.040368 3.568007  0.000000 -0.000000 -0.000000
71  0.654947 -2.537530 2.477230  0.000000 -0.000000 -0.261799
72  -3.588360 -1.097282 -23.660017  1.570796 -0.000000 0.000000
73  0.017809 1.799356 -0.402361  0.000000 -0.000000 0.000000
74  -2.423788 -12.955736 -5.444452  1.571103 0.041360 0.006551
75  0.031323 2.100358 -1.138378  0.000000 -0.000000 -0.000000
76  -0.024051 1.849583 -1.138375  0.000000 -0.000000 -0.000000
end
