version 1
nodes
0 "ValveBiped.Bip01_Spine4" -1
1 "ValveBiped.Bip01_L_Clavicle" 0
2 "ValveBiped.Bip01_L_UpperArm" 1
3 "ValveBiped.Bip01_L_Forearm" 2
4 "ValveBiped.Bip01_L_Hand" 3
5 "ValveBiped.Bip01_L_Finger4" 4
6 "ValveBiped.Bip01_L_Finger41" 5
7 "ValveBiped.Bip01_L_Finger42" 6
8 "ValveBiped.Bip01_L_Finger3" 4
9 "ValveBiped.Bip01_L_Finger31" 8
10 "ValveBiped.Bip01_L_Finger32" 9
11 "ValveBiped.Bip01_L_Finger2" 4
12 "ValveBiped.Bip01_L_Finger21" 11
13 "ValveBiped.Bip01_L_Finger22" 12
14 "ValveBiped.Bip01_L_Finger1" 4
15 "ValveBiped.Bip01_L_Finger11" 14
16 "ValveBiped.Bip01_L_Finger12" 15
17 "ValveBiped.Bip01_L_Finger0" 4
18 "ValveBiped.Bip01_L_Finger01" 17
19 "ValveBiped.Bip01_L_Finger02" 18
20 "ValveBiped.Bip01_L_Ulna" 3
21 "ValveBiped.Bip01_L_Wrist" 3
22 "rig_l_upperarm" 1
23 "rig_l_forearm" 22
24 "rig_d_l_forearm" 23
25 "rig_d_l_upperarm" 22
26 "ValveBiped.Bip01_R_Clavicle" 0
27 "ValveBiped.Bip01_R_UpperArm" 26
28 "ValveBiped.Bip01_R_Forearm" 27
29 "ValveBiped.Bip01_R_Hand" 28
30 "ValveBiped.Bip01_R_Finger4" 29
31 "ValveBiped.Bip01_R_Finger41" 30
32 "ValveBiped.Bip01_R_Finger42" 31
33 "ValveBiped.Bip01_R_Finger3" 29
34 "ValveBiped.Bip01_R_Finger31" 33
35 "ValveBiped.Bip01_R_Finger32" 34
36 "ValveBiped.Bip01_R_Finger2" 29
37 "ValveBiped.Bip01_R_Finger21" 36
38 "ValveBiped.Bip01_R_Finger22" 37
39 "ValveBiped.Bip01_R_Finger1" 29
40 "ValveBiped.Bip01_R_Finger11" 39
41 "ValveBiped.Bip01_R_Finger12" 40
42 "ValveBiped.Bip01_R_Finger0" 29
43 "ValveBiped.Bip01_R_Finger01" 42
44 "ValveBiped.Bip01_R_Finger02" 43
45 "ValveBiped.Bip01_R_Ulna" 28
46 "ValveBiped.Bip01_R_Wrist" 28
47 "rig_r_upperarm" 26
48 "rig_r_forearm" 47
49 "rig_d_r_forearm" 48
50 "rig_d_r_upperarm" 47
51 "rig_r_hand" -1
52 "rig_d_r_hand" 51
53 "rig_d_r_wrist" 52
54 "rig_l_hand" -1
55 "rig_d_l_hand" 54
56 "rig_d_l_wrist" 54
57 "rig_l_pole" -1
58 "rig_r_pole" -1
59 "rig_l_clavicle" -1
60 "rig_d_l_clavicle" 59
61 "rig_r_clavicle" -1
62 "rig_d_r_clavicle" 61
63 "Camera" -1
64 "body" -1
65 "trigger" 64
66 "bolt" 64
67 "chandle" 66
68 "barrel" 64
69 "magrel" 64
70 "bullet1" 64
71 "boltrelease" 64
72 "mag" -1
73 "fakerounds" 72
74 "fakemag" -1
75 "bullet2" 74
76 "bullet3" 74
end
skeleton
time 0
0  0.000006 0.000000 0.000000  -1.570800 -1.391899 -1.570792
1  -8.649605 1.953038 1.937664  -1.544956 -1.855077 -0.198630
2  6.027525 -0.000327 0.000189  -0.501747 -1.323944 -1.727012
3  11.692112 0.000646 -0.000738  -0.891972 -0.000014 -1.319418
4  11.480377 0.000390 -0.000686  0.705256 -0.746827 0.927112
5  3.859507 -0.142824 -1.192078  -0.780612 -0.123962 -1.912387
6  1.312589 0.000010 0.000006  -0.118652 -0.042324 -0.379408
7  0.729353 0.000054 0.000051  0.002599 -0.010829 -0.344657
8  3.942144 0.046333 -0.431544  -0.766922 0.160085 -1.543102
9  1.539108 0.000081 0.000002  -0.028669 -0.057457 -0.680251
10  1.196331 0.000145 0.000029  0.004842 0.001374 -0.728711
11  3.883513 -0.047212 0.431351  -0.446175 0.503317 -1.015794
12  1.719573 -0.000027 0.000019  0.020825 -0.156575 -1.111891
13  1.209178 0.000088 0.000015  -0.000666 -0.001718 -0.566770
14  3.859680 -0.138417 1.332380  -0.099311 0.605538 -0.494814
15  1.719448 -0.000020 0.000030  -0.036809 0.016947 -0.616278
16  1.099676 0.000051 0.000008  -0.003669 0.001393 -1.369679
17  0.587513 -0.753782 1.206787  -0.946963 -0.663736 -0.558319
18  1.789819 -0.000003 -0.000018  0.020877 0.018030 0.740855
19  1.207017 -0.000013 -0.000043  -0.003373 -0.002176 -0.110066
20  5.740637 0.000388 -0.000700  -0.242913 0.000003 0.000063
21  11.481079 0.000258 -0.000790  -0.090916 -0.177189 0.095921
22  6.027525 -0.000330 0.000200  1.520754 -0.241912 1.620757
23  0.000001 11.692101 -0.000006  -0.921219 -0.379481 -0.738486
24  0.000003 0.000008 0.000001  -0.022880 -0.000031 1.570739
25  0.000002 -0.000012 0.000001  0.868960 0.000002 1.570712
26  -6.617934 -9.178503 0.826812  1.473120 1.855075 -0.198639
27  6.027513 -0.000259 -0.000221  1.520730 0.754736 -0.708481
28  11.691992 0.000161 0.000857  0.141449 0.000072 -1.836665
29  11.479355 -0.000861 0.000954  -1.142790 0.380466 0.885558
30  3.859437 -0.132758 1.193066  0.469647 -0.013262 -1.872395
31  1.312559 0.000026 -0.000001  0.024060 -0.138696 -0.550187
32  0.729344 0.000065 -0.000026  -0.166197 -0.081570 -0.714272
33  3.942046 0.050139 0.431001  0.225309 -0.086237 -1.592712
34  1.539096 0.000005 -0.000001  0.035254 -0.050373 -0.994350
35  1.196300 0.000078 -0.000003  -0.021521 0.002175 -0.839738
36  3.883414 -0.050472 -0.431084  0.184824 -0.271737 -1.204030
37  1.719563 -0.000085 -0.000005  0.022859 -0.107186 -1.509108
38  1.209198 0.000035 0.000012  0.000661 0.071072 -0.480462
39  3.859589 -0.149083 -1.331320  -0.033200 -0.110369 -0.362359
40  1.719415 -0.000099 -0.000036  -0.012459 -0.012118 -1.275551
41  1.099674 0.000022 0.000008  -0.003769 -0.008243 -0.832963
42  0.805984 -0.359848 -1.318338  0.991670 0.166767 -0.799527
43  1.789780 -0.000008 -0.000043  0.000058 -0.002451 0.133098
44  1.206996 -0.000007 0.000005  0.000372 -0.000071 1.058780
45  5.740571 0.000079 0.000721  0.172460 -0.000014 0.000028
46  11.480814 -0.000098 0.000936  0.056555 0.082971 0.145456
47  6.027515 -0.000273 -0.000230  -0.910498 -0.520836 -1.709520
48  -0.000000 11.691973 -0.000005  -1.227263 0.672038 0.920661
49  0.000002 -0.000002 0.000001  2.413977 -0.000036 1.570860
50  -0.000006 -0.000014 0.000005  2.272645 -0.000036 1.570861
51  -3.422328 -3.805365 -6.854754  -0.078012 -2.996716 1.465737
52  0.000000 -0.000000 0.000000  0.008153 -0.000259 0.000009
53  0.000000 -0.000000 0.000001  1.565115 0.043565 -0.106862
54  -0.512341 -15.798273 -4.997092  -0.754436 0.076566 -1.828377
55  0.000001 -0.000001 -0.000000  0.000000 -0.000001 -0.000002
56  0.000032 0.000028 0.000001  -1.571901 -0.044449 -0.106509
57  8.208684 -17.520149 -17.916506  1.570796 -0.000000 0.000000
58  -15.417985 4.000748 -22.641926  1.570796 -0.000000 0.000000
59  1.941978 -0.383090 -8.860325  1.570796 -0.000000 0.000000
60  -0.004311 0.001229 -0.000371  0.006898 -0.005534 -0.284229
61  0.826810 10.209643 -4.879054  1.570796 -0.000000 0.000000
62  0.000000 0.000000 0.000000  -0.078727 -3.136056 0.284226
63  -2.240596 -3.247336 -0.249455  1.570796 -0.000000 0.000000
64  -2.287624 -8.249615 -1.349235  1.570796 0.000000 0.000000
65  0.002681 -3.204031 0.621196  0.398200 -0.000000 0.000000
66  0.048105 -1.112260 5.803837  0.000000 -0.000000 0.000000
67  -1.184782 0.539746 -0.284904  0.000000 -0.000000 0.000000
68  0.047884 -1.610073 21.020466  0.000000 -0.000000 0.000000
69  0.047881 -3.319714 2.472855  0.000000 -0.000000 0.000000
70  0.172180 -2.040368 3.568007  0.000000 -0.000000 0.000000
71  0.654947 -2.537531 2.477230  0.000000 -0.000000 0.000000
72  -3.588360 -1.097282 -23.660017  1.570796 -0.000000 0.000000
73  0.017809 1.799356 -0.402361  0.000000 -0.000000 0.000000
74  -2.285144 -12.956001 -5.446409  1.570796 0.000000 0.000000
75  0.031323 2.100358 -1.138380  0.000000 -0.000000 0.000000
76  -0.024051 1.849582 -1.138377  0.000000 -0.000000 0.000000
time 1
0  0.000006 0.000000 0.000000  -1.570800 -1.391899 -1.570792
1  -8.649605 1.953038 1.937664  -1.544956 -1.855077 -0.198630
2  6.027525 -0.000327 0.000189  -0.514034 -1.321432 -1.712404
3  11.692111 0.000646 -0.000739  -0.891974 -0.000016 -1.351883
4  11.480160 0.000313 -0.000779  0.692712 -0.759218 0.952007
5  3.859505 -0.142824 -1.192078  -0.780612 -0.123962 -1.912387
6  1.312587 0.000011 0.000006  -0.118652 -0.042325 -0.379408
7  0.729355 0.000054 0.000051  0.002599 -0.010829 -0.344657
8  3.942142 0.046333 -0.431544  -0.766922 0.160085 -1.543102
9  1.539109 0.000083 0.000002  -0.028669 -0.057457 -0.680251
10  1.196331 0.000145 0.000029  0.004842 0.001374 -0.728711
11  3.883514 -0.047211 0.431351  -0.446175 0.503317 -1.015794
12  1.719573 -0.000029 0.000019  0.020825 -0.156575 -1.111891
13  1.209180 0.000089 0.000013  -0.000666 -0.001718 -0.566770
14  3.859679 -0.138417 1.332380  -0.099311 0.605539 -0.494814
15  1.719447 -0.000021 0.000030  -0.036810 0.016947 -0.616278
16  1.099675 0.000050 0.000007  -0.003669 0.001393 -1.369679
17  0.587510 -0.753782 1.206786  -0.946963 -0.663737 -0.558319
18  1.789819 -0.000005 -0.000018  0.020877 0.018030 0.740855
19  1.207015 -0.000014 -0.000043  -0.003373 -0.002176 -0.110066
20  5.740635 0.000389 -0.000699  -0.251968 0.000003 0.000063
21  11.481035 0.000242 -0.000809  -0.089771 -0.180991 0.098024
22  6.027525 -0.000330 0.000200  1.523287 -0.244973 1.622844
23  -0.000001 11.692102 -0.000007  -0.940902 -0.396294 -0.752001
24  0.000003 0.000010 0.000000  -0.022880 -0.000031 1.570739
25  -0.000001 -0.000011 0.000000  0.868960 0.000002 1.570712
26  -6.617934 -9.178503 0.826812  1.473120 1.855075 -0.198639
27  6.027513 -0.000259 -0.000221  1.513805 0.739926 -0.710509
28  11.691991 0.000160 0.000856  0.141449 0.000075 -1.868232
29  11.479080 -0.001013 0.000977  -1.135904 0.394126 0.897814
30  3.859438 -0.132758 1.193065  0.469647 -0.013262 -1.872395
31  1.312559 0.000026 -0.000000  0.024060 -0.138696 -0.550187
32  0.729346 0.000065 -0.000027  -0.166197 -0.081570 -0.714272
33  3.942047 0.050139 0.431000  0.225309 -0.086237 -1.592712
34  1.539097 0.000006 -0.000001  0.035254 -0.050373 -0.994350
35  1.196300 0.000078 -0.000003  -0.021521 0.002175 -0.839738
36  3.883413 -0.050472 -0.431084  0.184824 -0.271737 -1.204030
37  1.719564 -0.000084 -0.000004  0.022859 -0.107186 -1.509108
38  1.209197 0.000035 0.000011  0.000661 0.071072 -0.480462
39  3.859590 -0.149084 -1.331321  -0.033200 -0.110369 -0.362359
40  1.719416 -0.000098 -0.000036  -0.012459 -0.012118 -1.275551
41  1.099674 0.000021 0.000008  -0.003769 -0.008243 -0.832963
42  0.805984 -0.359848 -1.318339  0.991670 0.166767 -0.799527
43  1.789780 -0.000008 -0.000042  0.000058 -0.002451 0.133098
44  1.206997 -0.000006 0.000005  0.000372 -0.000071 1.058781
45  5.740573 0.000081 0.000722  0.177224 -0.000014 0.000028
46  11.480760 -0.000128 0.000940  0.056226 0.086301 0.146852
47  6.027515 -0.000273 -0.000230  -0.899234 -0.533097 -1.712506
48  -0.000000 11.691976 -0.000006  -1.245947 0.691290 0.929269
49  0.000002 0.000000 -0.000000  2.413977 -0.000036 1.570860
50  -0.000007 -0.000013 0.000005  2.272645 -0.000036 1.570861
51  -3.384164 -3.505871 -6.886734  -0.072092 -2.989580 1.462356
52  -0.000000 0.000000 0.000001  0.008153 -0.000259 0.000009
53  0.000000 -0.000000 -0.000000  1.565115 0.043565 -0.106862
54  -0.513884 -15.491263 -4.921892  -0.747551 0.070397 -1.830376
55  0.000000 -0.000000 0.000000  0.000000 -0.000001 -0.000002
56  0.000031 0.000029 0.000001  -1.571901 -0.044449 -0.106509
57  8.208684 -17.520149 -17.916506  1.570796 -0.000000 0.000000
58  -15.417985 4.000748 -22.641926  1.570796 -0.000000 0.000000
59  1.941978 -0.383090 -8.860325  1.570796 -0.000000 0.000000
60  -0.004311 0.001229 -0.000371  0.006898 -0.005534 -0.284229
61  0.826810 10.209643 -4.879054  1.570796 -0.000000 0.000000
62  0.000000 0.000000 0.000000  -0.078727 -3.136056 0.284226
63  -2.240596 -3.247336 -0.249455  1.570796 -0.000000 0.000000
64  -2.288508 -7.910259 -1.341416  1.563083 -0.005071 -0.002485
65  0.002681 -3.204031 0.621197  0.398200 -0.000000 0.000000
66  0.048105 -1.112259 2.845372  -0.000000 -0.000000 0.007424
67  -1.184783 0.539746 -0.284904  -0.000000 0.000000 -0.042177
68  0.047884 -1.610072 21.020468  0.000000 -0.000000 0.000000
69  0.047881 -3.319713 2.472854  0.000000 -0.000000 0.000000
70  0.172180 -2.040368 3.568007  0.000000 -0.000000 0.000000
71  0.654947 -2.537530 2.477231  0.000000 -0.000000 -0.261799
72  -3.588360 -1.097282 -23.660017  1.570796 -0.000000 0.000000
73  0.017809 1.799356 -0.402361  0.000000 -0.000000 0.000000
74  -2.277213 -12.648150 -5.402102  1.563083 -0.005071 -0.002485
75  0.031323 2.100358 -1.138381  0.000000 -0.000000 0.000000
76  -0.024051 1.849583 -1.138378  0.000000 -0.000000 0.000000
time 2
0  0.000006 0.000000 0.000000  -1.570800 -1.391899 -1.570792
1  -8.649605 1.953038 1.937664  -1.544956 -1.855077 -0.198630
2  6.027525 -0.000327 0.000189  -0.523079 -1.320409 -1.703805
3  11.692111 0.000646 -0.000739  -0.891974 -0.000016 -1.350272
4  11.480168 0.000317 -0.000775  0.693619 -0.757740 0.956721
5  3.859504 -0.142824 -1.192078  -0.780612 -0.123962 -1.912387
6  1.312590 0.000010 0.000005  -0.118652 -0.042325 -0.379408
7  0.729355 0.000054 0.000049  0.002599 -0.010829 -0.344657
8  3.942141 0.046333 -0.431544  -0.766922 0.160085 -1.543102
9  1.539109 0.000083 0.000003  -0.028669 -0.057457 -0.680251
10  1.196330 0.000145 0.000029  0.004842 0.001374 -0.728711
11  3.883510 -0.047212 0.431350  -0.446175 0.503317 -1.015794
12  1.719573 -0.000025 0.000019  0.020825 -0.156575 -1.111891
13  1.209180 0.000088 0.000010  -0.000666 -0.001718 -0.566770
14  3.859677 -0.138417 1.332379  -0.099311 0.605539 -0.494814
15  1.719448 -0.000021 0.000030  -0.036809 0.016947 -0.616278
16  1.099676 0.000051 0.000008  -0.003669 0.001393 -1.369678
17  0.587510 -0.753782 1.206786  -0.946963 -0.663736 -0.558319
18  1.789819 -0.000005 -0.000019  0.020877 0.018030 0.740855
19  1.207016 -0.000013 -0.000043  -0.003373 -0.002176 -0.110066
20  5.740635 0.000389 -0.000699  -0.250323 0.000003 0.000063
21  11.481037 0.000243 -0.000807  -0.089466 -0.180922 0.099098
22  6.027525 -0.000330 0.000200  1.525354 -0.246397 1.622176
23  -0.000000 11.692101 -0.000007  -0.939928 -0.395454 -0.751337
24  0.000004 0.000010 0.000002  -0.022880 -0.000030 1.570738
25  0.000002 -0.000011 0.000000  0.868960 0.000002 1.570712
26  -6.617934 -9.178503 0.826812  1.473120 1.855075 -0.198639
27  6.027513 -0.000259 -0.000221  1.513301 0.743577 -0.710918
28  11.691991 0.000161 0.000856  0.141449 0.000075 -1.864455
29  11.479111 -0.000997 0.000975  -1.129199 0.390968 0.903174
30  3.859437 -0.132758 1.193064  0.469647 -0.013262 -1.872395
31  1.312559 0.000025 -0.000001  0.024060 -0.138696 -0.550187
32  0.729345 0.000065 -0.000027  -0.166197 -0.081570 -0.714272
33  3.942047 0.050139 0.431000  0.225309 -0.086237 -1.592712
34  1.539097 0.000006 -0.000002  0.035254 -0.050373 -0.994350
35  1.196300 0.000078 -0.000003  -0.021521 0.002175 -0.839738
36  3.883414 -0.050473 -0.431085  0.184824 -0.271737 -1.204030
37  1.719564 -0.000084 -0.000005  0.022859 -0.107186 -1.509108
38  1.209198 0.000035 0.000011  0.000661 0.071072 -0.480462
39  3.859590 -0.149083 -1.331321  -0.033200 -0.110369 -0.362359
40  1.719415 -0.000099 -0.000036  -0.012459 -0.012118 -1.275551
41  1.099673 0.000021 0.000008  -0.003769 -0.008243 -0.832963
42  0.805984 -0.359848 -1.318339  0.991670 0.166767 -0.799527
43  1.789780 -0.000008 -0.000042  0.000058 -0.002451 0.133097
44  1.206996 -0.000007 0.000006  0.000372 -0.000071 1.058780
45  5.740572 0.000079 0.000721  0.178817 -0.000014 0.000028
46  11.480765 -0.000126 0.000940  0.057558 0.086368 0.147709
47  6.027515 -0.000273 -0.000230  -0.903034 -0.531441 -1.710646
48  -0.000000 11.691973 -0.000005  -1.243707 0.688980 0.928256
49  0.000003 0.000000 0.000001  2.413977 -0.000036 1.570860
50  -0.000006 -0.000014 0.000005  2.272645 -0.000036 1.570861
51  -3.363140 -3.539281 -6.868745  -0.067609 -2.995651 1.462904
52  0.000000 -0.000000 0.000000  0.008153 -0.000259 0.000009
53  -0.000000 -0.000000 -0.000000  1.565115 0.043565 -0.106862
54  -0.488127 -15.531962 -4.955978  -0.744069 0.077065 -1.828906
55  0.000000 -0.000000 0.000000  0.000000 -0.000001 -0.000002
56  0.000030 0.000029 0.000001  -1.571901 -0.044449 -0.106509
57  8.208684 -17.520149 -17.916506  1.570796 -0.000000 0.000000
58  -15.417985 4.000748 -22.641926  1.570796 -0.000000 0.000000
59  1.941978 -0.383090 -8.860325  1.570796 -0.000000 0.000000
60  -0.004311 0.001229 -0.000371  0.006898 -0.005534 -0.284229
61  0.826810 10.209643 -4.879054  1.570796 -0.000000 0.000000
62  0.000000 0.000000 0.000000  -0.078727 -3.136056 0.284226
63  -2.240596 -3.247336 -0.249455  1.570796 -0.000000 0.000000
64  -2.290150 -7.973116 -1.342493  1.568649 -0.010123 -0.001314
65  0.002681 -3.204031 0.621197  0.398200 0.000000 -0.000000
66  0.048105 -1.112260 2.939495  0.000000 0.000000 -0.019605
67  -1.184782 0.539746 -0.284904  -0.000000 -0.000000 0.029470
68  0.047884 -1.610073 21.020466  -0.000000 0.000000 -0.000000
69  0.047881 -3.319714 2.472854  -0.000000 0.000000 -0.000000
70  0.172180 -2.040368 3.568007  -0.000000 0.000000 -0.000000
71  0.654947 -2.537530 2.477230  0.000000 -0.000000 -0.261799
72  -3.588360 -1.097282 -23.660017  1.570796 -0.000000 0.000000
73  0.017809 1.799356 -0.402361  0.000000 -0.000000 0.000000
74  -2.252493 -12.688341 -5.429319  1.568649 -0.010123 -0.001314
75  0.031323 2.100358 -1.138379  -0.000000 0.000000 -0.000000
76  -0.024051 1.849583 -1.138376  -0.000000 0.000000 -0.000000
time 3
0  0.000006 0.000000 0.000000  -1.570800 -1.391899 -1.570792
1  -8.649605 1.953038 1.937664  -1.544956 -1.855077 -0.198630
2  6.027525 -0.000327 0.000189  -0.524106 -1.320416 -1.703113
3  11.692113 0.000646 -0.000738  -0.891973 -0.000015 -1.339652
4  11.480240 0.000339 -0.000746  0.694998 -0.754045 0.950629
5  3.859507 -0.142824 -1.192078  -0.780612 -0.123962 -1.912387
6  1.312591 0.000010 0.000005  -0.118652 -0.042324 -0.379408
7  0.729351 0.000055 0.000051  0.002599 -0.010829 -0.344657
8  3.942143 0.046334 -0.431544  -0.766922 0.160085 -1.543102
9  1.539109 0.000083 0.000002  -0.028669 -0.057457 -0.680251
10  1.196330 0.000145 0.000030  0.004842 0.001374 -0.728711
11  3.883514 -0.047211 0.431351  -0.446175 0.503317 -1.015793
12  1.719573 -0.000029 0.000018  0.020825 -0.156575 -1.111891
13  1.209180 0.000088 0.000013  -0.000666 -0.001718 -0.566770
14  3.859681 -0.138417 1.332380  -0.099311 0.605538 -0.494814
15  1.719446 -0.000021 0.000028  -0.036810 0.016947 -0.616278
16  1.099676 0.000051 0.000006  -0.003669 0.001393 -1.369679
17  0.587514 -0.753781 1.206787  -0.946963 -0.663737 -0.558319
18  1.789818 -0.000004 -0.000018  0.020877 0.018030 0.740855
19  1.207014 -0.000014 -0.000043  -0.003373 -0.002176 -0.110066
20  5.740636 0.000389 -0.000701  -0.247340 0.000003 0.000064
21  11.481051 0.000247 -0.000803  -0.090112 -0.179994 0.098508
22  6.027525 -0.000330 0.000200  1.525613 -0.246437 1.621810
23  0.000000 11.692102 -0.000007  -0.933499 -0.389931 -0.746940
24  0.000004 0.000009 -0.000001  -0.022880 -0.000031 1.570739
25  0.000001 -0.000012 0.000000  0.868960 0.000002 1.570712
26  -6.617934 -9.178503 0.826812  1.473120 1.855075 -0.198639
27  6.027513 -0.000259 -0.000221  1.517096 0.749372 -0.709699
28  11.691991 0.000160 0.000855  0.141449 0.000074 -1.853007
29  11.479214 -0.000941 0.000964  -1.131421 0.382563 0.901042
30  3.859437 -0.132759 1.193066  0.469647 -0.013262 -1.872395
31  1.312559 0.000025 -0.000001  0.024060 -0.138696 -0.550187
32  0.729345 0.000065 -0.000028  -0.166197 -0.081570 -0.714272
33  3.942046 0.050139 0.431001  0.225309 -0.086237 -1.592712
34  1.539097 0.000005 -0.000001  0.035254 -0.050373 -0.994350
35  1.196299 0.000078 -0.000004  -0.021521 0.002175 -0.839738
36  3.883414 -0.050473 -0.431084  0.184824 -0.271737 -1.204030
37  1.719564 -0.000084 -0.000005  0.022858 -0.107186 -1.509108
38  1.209197 0.000035 0.000011  0.000661 0.071072 -0.480462
39  3.859589 -0.149083 -1.331320  -0.033200 -0.110369 -0.362359
40  1.719415 -0.000099 -0.000036  -0.012459 -0.012118 -1.275551
41  1.099674 0.000021 0.000008  -0.003769 -0.008243 -0.832963
42  0.805983 -0.359848 -1.318338  0.991670 0.166767 -0.799527
43  1.789780 -0.000008 -0.000042  0.000058 -0.002451 0.133098
44  1.206996 -0.000007 0.000005  0.000372 -0.000071 1.058780
45  5.740574 0.000079 0.000720  0.177479 -0.000014 0.000028
46  11.480788 -0.000114 0.000937  0.057971 0.084615 0.147813
47  6.027515 -0.000273 -0.000230  -0.906939 -0.525965 -1.710034
48  -0.000002 11.691975 -0.000006  -1.236926 0.681989 0.925158
49  0.000003 0.000000 -0.000000  2.413977 -0.000036 1.570860
50  -0.000008 -0.000013 0.000005  2.272645 -0.000036 1.570861
51  -3.384637 -3.649338 -6.844611  -0.070165 -3.000968 1.465487
52  -0.000000 -0.000000 0.000000  0.008153 -0.000259 0.000009
53  -0.000000 -0.000000 0.000000  1.565115 0.043565 -0.106862
54  -0.479369 -15.646038 -5.004126  -0.747379 0.081942 -1.826952
55  0.000002 -0.000001 -0.000000  0.000000 -0.000001 -0.000002
56  0.000032 0.000028 0.000001  -1.571901 -0.044449 -0.106509
57  8.208684 -17.520149 -17.916506  1.570796 -0.000000 0.000000
58  -15.417985 4.000748 -22.641926  1.570796 -0.000000 0.000000
59  1.941978 -0.383090 -8.860325  1.570796 -0.000000 0.000000
60  -0.004311 0.001229 -0.000371  0.006898 -0.005534 -0.284229
61  0.826810 10.209643 -4.879054  1.570796 -0.000000 0.000000
62  0.000000 0.000000 0.000000  -0.078727 -3.136056 0.284226
63  -2.240596 -3.247336 -0.249455  1.570796 -0.000000 0.000000
64  -2.291035 -8.111401 -1.345186  1.574206 -0.008172 0.000852
65  0.002681 -3.204031 0.621195  0.398200 -0.000000 -0.000000
66  0.048105 -1.112260 2.924787  -0.000000 -0.000000 -0.002157
67  -1.184783 0.539746 -0.284905  -0.000000 0.000000 0.008551
68  0.047884 -1.610073 21.020466  -0.000000 -0.000000 -0.000000
69  0.047881 -3.319714 2.472854  -0.000000 -0.000000 -0.000000
70  0.172180 -2.040368 3.568006  -0.000000 -0.000000 -0.000000
71  0.654947 -2.537531 2.477229  0.000000 -0.000000 -0.261799
72  -3.588360 -1.097282 -23.660017  1.570796 -0.000000 0.000000
73  0.017809 1.799356 -0.402361  0.000000 -0.000000 0.000000
74  -2.250942 -12.803760 -5.458223  1.574206 -0.008172 0.000852
75  0.031323 2.100359 -1.138381  -0.000000 -0.000000 -0.000000
76  -0.024051 1.849583 -1.138377  -0.000000 -0.000000 -0.000000
time 4
0  0.000006 0.000000 0.000000  -1.570800 -1.391899 -1.570792
1  -8.649605 1.953038 1.937664  -1.544956 -1.855077 -0.198630
2  6.027525 -0.000327 0.000189  -0.511037 -1.322993 -1.718329
3  11.692111 0.000646 -0.000739  -0.891972 -0.000014 -1.322797
4  11.480352 0.000383 -0.000695  0.704691 -0.748914 0.933041
5  3.859505 -0.142823 -1.192078  -0.780612 -0.123962 -1.912387
6  1.312590 0.000011 0.000006  -0.118652 -0.042325 -0.379408
7  0.729353 0.000054 0.000052  0.002599 -0.010829 -0.344657
8  3.942141 0.046334 -0.431544  -0.766922 0.160085 -1.543102
9  1.539108 0.000082 0.000004  -0.028669 -0.057457 -0.680251
10  1.196330 0.000145 0.000031  0.004842 0.001374 -0.728711
11  3.883511 -0.047211 0.431351  -0.446175 0.503317 -1.015794
12  1.719573 -0.000025 0.000020  0.020825 -0.156575 -1.111891
13  1.209181 0.000088 0.000013  -0.000666 -0.001718 -0.566770
14  3.859676 -0.138416 1.332380  -0.099311 0.605539 -0.494814
15  1.719447 -0.000019 0.000030  -0.036810 0.016947 -0.616278
16  1.099675 0.000051 0.000007  -0.003669 0.001393 -1.369678
17  0.587510 -0.753781 1.206787  -0.946963 -0.663736 -0.558319
18  1.789817 -0.000005 -0.000018  0.020877 0.018030 0.740855
19  1.207012 -0.000014 -0.000044  -0.003373 -0.002176 -0.110066
20  5.740635 0.000390 -0.000700  -0.243100 0.000003 0.000064
21  11.481074 0.000257 -0.000792  -0.090353 -0.177818 0.096726
22  6.027525 -0.000330 0.000200  1.522854 -0.243298 1.619928
23  -0.000001 11.692101 -0.000007  -0.923273 -0.381219 -0.739905
24  0.000004 0.000009 -0.000000  -0.022880 -0.000031 1.570739
25  0.000000 -0.000012 0.000000  0.868960 0.000002 1.570712
26  -6.617934 -9.178503 0.826812  1.473120 1.855075 -0.198639
27  6.027513 -0.000259 -0.000221  1.520368 0.754971 -0.708642
28  11.691992 0.000162 0.000857  0.141449 0.000073 -1.837611
29  11.479347 -0.000866 0.000955  -1.138472 0.378267 0.888352
30  3.859438 -0.132758 1.193064  0.469647 -0.013262 -1.872395
31  1.312559 0.000025 -0.000002  0.024060 -0.138696 -0.550187
32  0.729346 0.000064 -0.000028  -0.166197 -0.081570 -0.714272
33  3.942047 0.050139 0.431000  0.225309 -0.086237 -1.592712
34  1.539097 0.000005 -0.000001  0.035254 -0.050373 -0.994350
35  1.196300 0.000078 -0.000003  -0.021521 0.002175 -0.839738
36  3.883414 -0.050472 -0.431085  0.184824 -0.271737 -1.204030
37  1.719564 -0.000085 -0.000004  0.022859 -0.107186 -1.509108
38  1.209198 0.000035 0.000012  0.000661 0.071072 -0.480462
39  3.859590 -0.149083 -1.331322  -0.033200 -0.110369 -0.362359
40  1.719415 -0.000099 -0.000036  -0.012459 -0.012118 -1.275552
41  1.099674 0.000021 0.000008  -0.003769 -0.008243 -0.832963
42  0.805984 -0.359847 -1.318339  0.991670 0.166767 -0.799527
43  1.789780 -0.000008 -0.000042  0.000058 -0.002451 0.133098
44  1.206997 -0.000006 0.000005  0.000372 -0.000071 1.058780
45  5.740573 0.000079 0.000720  0.173692 -0.000014 0.000028
46  11.480814 -0.000099 0.000936  0.057451 0.082959 0.145891
47  6.027515 -0.000273 -0.000230  -0.910890 -0.520931 -1.709238
48  -0.000000 11.691974 -0.000006  -1.227822 0.672613 0.920923
49  0.000003 -0.000000 -0.000000  2.413978 -0.000036 1.570860
50  -0.000007 -0.000014 0.000004  2.272645 -0.000036 1.570861
51  -3.414663 -3.795873 -6.848579  -0.074704 -2.999228 1.467309
52  0.000000 -0.000000 -0.000000  0.008153 -0.000259 0.000009
53  0.000000 0.000000 -0.000000  1.565115 0.043565 -0.106862
54  -0.486647 -15.786801 -5.006524  -0.751573 0.079545 -1.826107
55  0.000001 -0.000001 0.000000  0.000000 -0.000001 -0.000002
56  0.000031 0.000028 0.000002  -1.571901 -0.044449 -0.106509
57  8.208684 -17.520149 -17.916506  1.570796 -0.000000 0.000000
58  -15.417985 4.000748 -22.641926  1.570796 -0.000000 0.000000
59  1.941978 -0.383090 -8.860325  1.570796 -0.000000 0.000000
60  -0.004311 0.001229 -0.000371  0.006898 -0.005534 -0.284229
61  0.826810 10.209643 -4.879054  1.570796 -0.000000 0.000000
62  0.000000 0.000000 0.000000  -0.078727 -3.136056 0.284226
63  -2.240596 -3.247336 -0.249455  1.570796 -0.000000 0.000000
64  -2.290212 -8.249685 -1.348686  1.572950 -0.003520 0.002042
65  0.002681 -3.204031 0.621197  0.398200 0.000000 -0.000000
66  0.048106 -1.112260 2.892433  0.000000 0.000000 0.015292
67  -1.184782 0.539746 -0.284906  -0.000000 0.000000 -0.012370
68  0.047884 -1.610073 21.020466  0.000000 0.000000 -0.000000
69  0.047881 -3.319713 2.472855  0.000000 0.000000 -0.000000
70  0.172180 -2.040368 3.568008  0.000000 0.000000 -0.000000
71  0.654947 -2.537530 2.477231  0.000000 -0.000000 -0.261799
72  -3.588360 -1.097282 -23.660017  1.570796 -0.000000 0.000000
73  0.017809 1.799356 -0.402361  0.000000 -0.000000 0.000000
74  -2.263682 -12.947191 -5.455954  1.572950 -0.003520 0.002042
75  0.031323 2.100358 -1.138380  0.000000 0.000000 -0.000000
76  -0.024051 1.849582 -1.138376  0.000000 0.000000 -0.000000
time 5
0  0.000006 0.000000 0.000000  -1.570800 -1.391899 -1.570792
1  -8.649605 1.953038 1.937664  -1.544956 -1.855077 -0.198630
2  6.027525 -0.000327 0.000189  -0.498388 -1.324790 -1.731458
3  11.692112 0.000646 -0.000739  -0.891972 -0.000014 -1.312711
4  11.480421 0.000407 -0.000663  0.708907 -0.745494 0.920266
5  3.859507 -0.142825 -1.192078  -0.780612 -0.123962 -1.912387
6  1.312589 0.000010 0.000007  -0.118652 -0.042324 -0.379408
7  0.729352 0.000054 0.000050  0.002599 -0.010829 -0.344657
8  3.942144 0.046333 -0.431544  -0.766922 0.160085 -1.543102
9  1.539110 0.000082 0.000004  -0.028669 -0.057457 -0.680251
10  1.196331 0.000146 0.000031  0.004842 0.001374 -0.728711
11  3.883515 -0.047212 0.431351  -0.446175 0.503317 -1.015794
12  1.719574 -0.000030 0.000019  0.020825 -0.156575 -1.111891
13  1.209181 0.000090 0.000013  -0.000666 -0.001718 -0.566770
14  3.859680 -0.138417 1.332380  -0.099311 0.605538 -0.494814
15  1.719446 -0.000021 0.000029  -0.036809 0.016947 -0.616278
16  1.099676 0.000050 0.000007  -0.003669 0.001393 -1.369679
17  0.587512 -0.753782 1.206787  -0.946963 -0.663737 -0.558319
18  1.789819 -0.000004 -0.000018  0.020877 0.018030 0.740855
19  1.207016 -0.000013 -0.000042  -0.003373 -0.002176 -0.110066
20  5.740635 0.000390 -0.000700  -0.241240 0.000003 0.000063
21  11.481088 0.000261 -0.000786  -0.090940 -0.176453 0.095141
22  6.027525 -0.000330 0.000200  1.520109 -0.240914 1.619722
23  -0.000001 11.692102 -0.000006  -0.917140 -0.376038 -0.735661
24  0.000003 0.000009 0.000001  -0.022880 -0.000031 1.570739
25  0.000000 -0.000011 0.000001  0.868960 0.000002 1.570712
26  -6.617934 -9.178503 0.826812  1.473120 1.855075 -0.198639
27  6.027514 -0.000259 -0.000221  1.522642 0.757058 -0.707801
28  11.691991 0.000161 0.000856  0.141449 0.000072 -1.829787
29  11.479415 -0.000825 0.000949  -1.145934 0.377058 0.879531
30  3.859438 -0.132758 1.193065  0.469647 -0.013262 -1.872395
31  1.312559 0.000025 -0.000002  0.024060 -0.138696 -0.550187
32  0.729345 0.000065 -0.000028  -0.166197 -0.081570 -0.714272
33  3.942047 0.050139 0.431000  0.225309 -0.086237 -1.592712
34  1.539097 0.000005 -0.000002  0.035254 -0.050373 -0.994350
35  1.196300 0.000079 -0.000003  -0.021521 0.002175 -0.839738
36  3.883413 -0.050472 -0.431084  0.184824 -0.271737 -1.204030
37  1.719564 -0.000085 -0.000004  0.022858 -0.107186 -1.509108
38  1.209196 0.000036 0.000011  0.000661 0.071072 -0.480462
39  3.859590 -0.149082 -1.331319  -0.068157 -0.094352 -0.334139
40  1.719413 -0.000099 -0.000035  -0.012548 -0.005296 -1.194360
41  1.099674 0.000022 0.000008  -0.004985 -0.007826 -0.750118
42  0.805983 -0.359848 -1.318338  0.991670 0.166767 -0.799527
43  1.789780 -0.000009 -0.000042  0.000058 -0.002451 0.133098
44  1.206996 -0.000007 0.000006  0.000372 -0.000071 1.058780
45  5.740571 0.000080 0.000722  0.170764 -0.000014 0.000028
46  11.480825 -0.000091 0.000935  0.056459 0.081954 0.144592
47  6.027515 -0.000273 -0.000230  -0.911887 -0.518412 -1.709461
48  -0.000002 11.691974 -0.000006  -1.223202 0.667860 0.918742
49  0.000002 -0.000000 -0.000000  2.413977 -0.000036 1.570860
50  -0.000008 -0.000014 0.000006  2.272645 -0.000036 1.570861
51  -3.441334 -3.871089 -6.856146  -0.080041 -2.996332 1.467644
52  0.000000 -0.000000 -0.000001  0.008153 -0.000259 0.000009
53  0.000000 -0.000000 0.000000  1.565115 0.043565 -0.106862
54  -0.508217 -15.858962 -5.002358  -0.756368 0.075881 -1.826910
55  -0.000001 -0.000000 -0.000000  0.000000 -0.000001 -0.000002
56  0.000029 0.000029 0.000001  -1.571902 -0.044449 -0.106509
57  8.208684 -17.520149 -17.916506  1.570796 -0.000000 0.000000
58  -15.417985 4.000748 -22.641926  1.570796 -0.000000 0.000000
59  1.941978 -0.383090 -8.860325  1.570796 -0.000000 0.000000
60  -0.004311 0.001229 -0.000371  0.006898 -0.005534 -0.284229
61  0.826810 10.209643 -4.879054  1.570796 -0.000000 0.000000
62  0.000000 0.000000 0.000000  -0.078727 -3.136056 0.284226
63  -2.240596 -3.247336 -0.249455  1.570796 -0.000000 0.000000
64  -2.288250 -8.312541 -1.352187  1.570625 0.002037 0.001614
65  0.002681 -3.204031 0.621197  0.199100 0.000000 0.000000
66  0.048105 -1.112260 2.860078  0.000000 0.000000 0.007646
67  -1.184782 0.539746 -0.284904  -0.000000 -0.000000 -0.000459
68  0.047884 -1.610073 21.020470  -0.000000 0.000000 0.000000
69  0.047881 -3.319714 2.472855  -0.000000 0.000000 0.000000
70  0.172180 -2.040368 3.568007  -0.000000 0.000000 0.000000
71  0.654947 -2.537531 2.477231  0.000000 -0.000000 -0.261799
72  -3.588360 -1.097282 -23.660017  1.570796 -0.000000 0.000000
73  0.017809 1.799356 -0.402361  0.000000 -0.000000 0.000000
74  -2.286516 -13.019633 -5.448551  1.570625 0.002037 0.001614
75  0.031323 2.100357 -1.138380  -0.000000 0.000000 0.000000
76  -0.024051 1.849582 -1.138378  -0.000000 0.000000 0.000000
time 6
0  0.000006 0.000000 0.000000  -1.570800 -1.391899 -1.570792
1  -8.649605 1.953038 1.937664  -1.544956 -1.855077 -0.198630
2  6.027525 -0.000327 0.000189  -0.492945 -1.325021 -1.735755
3  11.692112 0.000645 -0.000739  -0.891972 -0.000014 -1.311558
4  11.480434 0.000410 -0.000663  0.706314 -0.744900 0.916298
5  3.859504 -0.142824 -1.192079  -0.780612 -0.123962 -1.912387
6  1.312589 0.000010 0.000006  -0.118652 -0.042324 -0.379408
7  0.729354 0.000053 0.000053  0.002599 -0.010829 -0.344657
8  3.942141 0.046333 -0.431544  -0.766922 0.160085 -1.543102
9  1.539110 0.000082 0.000003  -0.028669 -0.057457 -0.680251
10  1.196331 0.000146 0.000030  0.004842 0.001374 -0.728711
11  3.883510 -0.047212 0.431351  -0.446175 0.503317 -1.015794
12  1.719573 -0.000027 0.000019  0.020825 -0.156575 -1.111891
13  1.209178 0.000090 0.000012  -0.000666 -0.001718 -0.566770
14  3.859679 -0.138417 1.332380  -0.099311 0.605539 -0.494814
15  1.719447 -0.000021 0.000028  -0.036810 0.016947 -0.616278
16  1.099676 0.000050 0.000008  -0.003669 0.001393 -1.369679
17  0.587508 -0.753782 1.206786  -0.946963 -0.663737 -0.558319
18  1.789819 -0.000004 -0.000017  0.020877 0.018030 0.740855
19  1.207016 -0.000013 -0.000043  -0.003373 -0.002176 -0.110066
20  5.740637 0.000390 -0.000702  -0.241894 0.000003 0.000063
21  11.481092 0.000262 -0.000787  -0.091713 -0.176332 0.094264
22  6.027525 -0.000330 0.000200  1.518825 -0.240409 1.621011
23  0.000001 11.692102 -0.000006  -0.916437 -0.375447 -0.735174
24  0.000003 0.000009 0.000001  -0.022880 -0.000031 1.570739
25  0.000002 -0.000012 0.000000  0.868960 0.000002 1.570712
26  -6.617934 -9.178503 0.826812  1.473120 1.855075 -0.198639
27  6.027513 -0.000259 -0.000221  1.523990 0.755948 -0.707189
28  11.691992 0.000161 0.000857  0.141449 0.000072 -1.830205
29  11.479412 -0.000828 0.000951  -1.151384 0.377092 0.877331
30  3.859437 -0.132758 1.193066  0.469647 -0.013262 -1.872395
31  1.312559 0.000025 -0.000000  0.024060 -0.138696 -0.550187
32  0.729345 0.000064 -0.000027  -0.166197 -0.081570 -0.714272
33  3.942047 0.050139 0.431001  0.225309 -0.086237 -1.592712
34  1.539097 0.000005 -0.000001  0.035254 -0.050373 -0.994350
35  1.196300 0.000079 -0.000004  -0.021521 0.002175 -0.839738
36  3.883414 -0.050472 -0.431083  0.184824 -0.271737 -1.204030
37  1.719563 -0.000085 -0.000005  0.022858 -0.107186 -1.509108
38  1.209199 0.000036 0.000011  0.000661 0.071072 -0.480462
39  3.859590 -0.149081 -1.331317  -0.103354 -0.074267 -0.293660
40  1.719413 -0.000099 -0.000034  -0.012554 0.002706 -1.113177
41  1.099674 0.000024 0.000006  -0.006337 -0.007347 -0.667274
42  0.805984 -0.359848 -1.318338  0.991670 0.166767 -0.799527
43  1.789780 -0.000008 -0.000042  0.000058 -0.002451 0.133098
44  1.206996 -0.000007 0.000005  0.000372 -0.000071 1.058780
45  5.740572 0.000080 0.000721  0.169514 -0.000014 0.000028
46  11.480824 -0.000091 0.000936  0.055526 0.081509 0.144428
47  6.027515 -0.000273 -0.000230  -0.910202 -0.518183 -1.710610
48  -0.000002 11.691974 -0.000006  -1.223449 0.668114 0.918859
49  0.000002 -0.000002 -0.000001  2.413977 -0.000036 1.570860
50  -0.000007 -0.000013 0.000005  2.272645 -0.000036 1.570861
51  -3.460383 -3.869213 -6.859016  -0.084587 -2.994600 1.467356
52  -0.000000 -0.000000 0.000000  0.008153 -0.000259 0.000009
53  -0.000000 0.000000 0.000000  1.565115 0.043565 -0.106862
54  -0.530024 -15.857533 -5.003765  -0.760559 0.073481 -1.828172
55  -0.000002 -0.000000 -0.000000  0.000000 -0.000001 -0.000002
56  0.000028 0.000028 0.000001  -1.571901 -0.044449 -0.106509
57  8.208684 -17.520149 -17.916506  1.570796 -0.000000 0.000000
58  -15.417985 4.000748 -22.641926  1.570796 -0.000000 0.000000
59  1.941978 -0.383090 -8.860325  1.570796 -0.000000 0.000000
60  -0.004311 0.001229 -0.000371  0.006898 -0.005534 -0.284229
61  0.826810 10.209643 -4.879054  1.570796 -0.000000 0.000000
62  0.000000 0.000000 0.000000  -0.078727 -3.136056 0.284226
63  -2.240596 -3.247336 -0.249455  1.570796 -0.000000 0.000000
64  -2.285909 -8.304835 -1.354880  1.569370 0.006690 0.000659
65  0.002681 -3.204031 0.621196  -0.000000 0.000000 -0.000000
66  0.048105 -1.112260 2.845371  -0.000000 0.000000 -0.000000
67  -1.184782 0.539746 -0.284905  0.000000 0.000000 0.011451
68  0.047884 -1.610073 21.020468  -0.000000 0.000000 -0.000000
69  0.047881 -3.319713 2.472855  -0.000000 0.000000 -0.000000
70  0.172180 -2.040368 3.568005  -0.000000 0.000000 -0.000000
71  0.654947 -2.537530 2.477230  0.000000 -0.000000 -0.261799
72  -3.588360 -1.097282 -23.660017  1.570796 -0.000000 0.000000
73  0.017809 1.799356 -0.402361  0.000000 -0.000000 0.000000
74  -2.307691 -13.017075 -5.445264  1.569370 0.006690 0.000659
75  0.031322 2.100358 -1.138380  -0.000000 0.000000 -0.000000
76  -0.024051 1.849583 -1.138377  -0.000000 0.000000 -0.000000
time 7
0  0.000006 0.000000 0.000000  -1.570800 -1.391899 -1.570792
1  -8.649605 1.953038 1.937664  -1.544956 -1.855077 -0.198630
2  6.027525 -0.000327 0.000189  -0.492141 -1.324666 -1.735382
3  11.692112 0.000645 -0.000738  -0.891972 -0.000014 -1.313143
4  11.480421 0.000404 -0.000666  0.702966 -0.744917 0.916864
5  3.859507 -0.142824 -1.192078  -0.780612 -0.123962 -1.912387
6  1.312590 0.000011 0.000006  -0.118652 -0.042324 -0.379408
7  0.729353 0.000054 0.000052  0.002599 -0.010829 -0.344657
8  3.942144 0.046334 -0.431544  -0.766922 0.160085 -1.543102
9  1.539109 0.000082 0.000002  -0.028669 -0.057457 -0.680251
10  1.196331 0.000146 0.000031  0.004842 0.001374 -0.728711
11  3.883514 -0.047212 0.431350  -0.446175 0.503317 -1.015794
12  1.719574 -0.000026 0.000019  0.020825 -0.156575 -1.111891
13  1.209180 0.000089 0.000013  -0.000666 -0.001718 -0.566770
14  3.859680 -0.138417 1.332380  -0.099311 0.605539 -0.494814
15  1.719447 -0.000018 0.000031  -0.036809 0.016947 -0.616278
16  1.099675 0.000049 0.000007  -0.003669 0.001393 -1.369678
17  0.587511 -0.753782 1.206786  -0.946963 -0.663736 -0.558319
18  1.789819 -0.000005 -0.000018  0.020877 0.018030 0.740855
19  1.207017 -0.000014 -0.000043  -0.003373 -0.002176 -0.110066
20  5.740636 0.000388 -0.000698  -0.242804 0.000003 0.000064
21  11.481088 0.000260 -0.000785  -0.092227 -0.176558 0.094075
22  6.027525 -0.000330 0.000200  1.518550 -0.240714 1.622229
23  0.000001 11.692102 -0.000007  -0.917402 -0.376260 -0.735843
24  0.000003 0.000008 0.000001  -0.022880 -0.000031 1.570739
25  0.000001 -0.000012 -0.000000  0.868960 0.000002 1.570712
26  -6.617934 -9.178503 0.826812  1.473120 1.855075 -0.198639
27  6.027513 -0.000259 -0.000221  1.524289 0.754800 -0.707013
28  11.691991 0.000160 0.000858  0.141449 0.000072 -1.832535
29  11.479393 -0.000839 0.000951  -1.153268 0.377629 0.878808
30  3.859437 -0.132759 1.193066  0.469647 -0.013262 -1.872395
31  1.312559 0.000025 -0.000001  0.024060 -0.138696 -0.550187
32  0.729346 0.000065 -0.000027  -0.166197 -0.081570 -0.714272
33  3.942047 0.050139 0.431000  0.225309 -0.086237 -1.592712
34  1.539097 0.000005 -0.000001  0.035254 -0.050373 -0.994350
35  1.196299 0.000078 -0.000003  -0.021521 0.002175 -0.839738
36  3.883414 -0.050473 -0.431084  0.184824 -0.271737 -1.204030
37  1.719563 -0.000085 -0.000005  0.022858 -0.107186 -1.509108
38  1.209197 0.000035 0.000011  0.000661 0.071072 -0.480462
39  3.859589 -0.149082 -1.331319  -0.104057 -0.070710 -0.276449
40  1.719414 -0.000098 -0.000035  -0.013100 0.003905 -1.158337
41  1.099674 0.000023 0.000007  -0.006208 -0.007697 -0.719239
42  0.805984 -0.359848 -1.318338  0.991670 0.166767 -0.799527
43  1.789780 -0.000008 -0.000043  0.000058 -0.002451 0.133098
44  1.206996 -0.000007 0.000005  0.000372 -0.000071 1.058780
45  5.740573 0.000079 0.000720  0.169465 -0.000014 0.000028
46  11.480823 -0.000094 0.000935  0.055092 0.081511 0.144786
47  6.027515 -0.000273 -0.000230  -0.908953 -0.518616 -1.711257
48  -0.000003 11.691974 -0.000005  -1.224824 0.669528 0.919510
49  0.000002 -0.000001 0.000000  2.413977 -0.000036 1.570860
50  -0.000008 -0.000014 0.000005  2.272645 -0.000036 1.570861
51  -3.464931 -3.848183 -6.857276  -0.086560 -2.994514 1.466693
52  -0.000000 0.000000 -0.000000  0.008153 -0.000259 0.000009
53  -0.000000 -0.000000 0.000000  1.565115 0.043565 -0.106862
54  -0.542378 -15.839506 -5.009136  -0.762480 0.073097 -1.829265
55  0.000001 -0.000000 -0.000000  0.000000 -0.000001 -0.000002
56  0.000031 0.000028 0.000001  -1.571902 -0.044449 -0.106509
57  8.208684 -17.520149 -17.916506  1.570796 -0.000000 0.000000
58  -15.417985 4.000748 -22.641926  1.570796 -0.000000 0.000000
59  1.941978 -0.383090 -8.860325  1.570796 -0.000000 0.000000
60  -0.004311 0.001229 -0.000371  0.006898 -0.005534 -0.284229
61  0.826810 10.209643 -4.879054  1.570796 -0.000000 0.000000
62  0.000000 0.000000 0.000000  -0.078727 -3.136056 0.284226
63  -2.240596 -3.247336 -0.249455  1.570796 -0.000000 0.000000
64  -2.283947 -8.285571 -1.355957  1.569488 0.008641 -0.000293
65  0.002681 -3.204031 0.621196  0.000000 -0.000000 0.000000
66  0.048105 -1.112259 2.845372  0.000000 -0.000000 0.000000
67  -1.184782 0.539746 -0.284904  0.000000 -0.000000 0.006465
68  0.047884 -1.610072 21.020466  0.000000 -0.000000 0.000000
69  0.047881 -3.319713 2.472855  0.000000 -0.000000 0.000000
70  0.172180 -2.040368 3.568007  0.000000 -0.000000 0.000000
71  0.654947 -2.537530 2.477230  0.000000 -0.000000 -0.261799
72  -3.588360 -1.097282 -23.660017  1.570796 -0.000000 0.000000
73  0.017809 1.799356 -0.402361  0.000000 -0.000000 0.000000
74  -2.318197 -12.997305 -5.446837  1.569488 0.008641 -0.000293
75  0.031323 2.100358 -1.138380  0.000000 -0.000000 0.000000
76  -0.024051 1.849583 -1.138376  0.000000 -0.000000 0.000000
time 8
0  0.000006 0.000000 0.000000  -1.570800 -1.391899 -1.570792
1  -8.649605 1.953038 1.937664  -1.544956 -1.855077 -0.198630
2  6.027525 -0.000327 0.000189  -0.494380 -1.324179 -1.732599
3  11.692111 0.000646 -0.000739  -0.891972 -0.000014 -1.316160
4  11.480402 0.000397 -0.000676  0.700884 -0.745676 0.919868
5  3.859506 -0.142823 -1.192078  -0.780612 -0.123962 -1.912387
6  1.312589 0.000011 0.000006  -0.118652 -0.042325 -0.379408
7  0.729353 0.000055 0.000051  0.002599 -0.010829 -0.344657
8  3.942141 0.046334 -0.431544  -0.766922 0.160085 -1.543102
9  1.539109 0.000081 0.000001  -0.028669 -0.057457 -0.680251
10  1.196329 0.000145 0.000030  0.004842 0.001374 -0.728711
11  3.883512 -0.047211 0.431351  -0.446175 0.503317 -1.015793
12  1.719573 -0.000027 0.000019  0.020825 -0.156575 -1.111891
13  1.209180 0.000089 0.000013  -0.000666 -0.001718 -0.566770
14  3.859678 -0.138417 1.332380  -0.099311 0.605539 -0.494814
15  1.719448 -0.000020 0.000029  -0.036810 0.016947 -0.616278
16  1.099675 0.000050 0.000007  -0.003669 0.001393 -1.369678
17  0.587512 -0.753782 1.206787  -0.946963 -0.663736 -0.558319
18  1.789819 -0.000004 -0.000018  0.020877 0.018030 0.740855
19  1.207014 -0.000014 -0.000043  -0.003373 -0.002176 -0.110066
20  5.740637 0.000388 -0.000700  -0.243605 0.000003 0.000063
21  11.481085 0.000258 -0.000789  -0.092276 -0.176937 0.094358
22  6.027525 -0.000330 0.000200  1.518992 -0.241306 1.622736
23  -0.000001 11.692101 -0.000007  -0.919238 -0.377807 -0.737115
24  0.000003 0.000010 -0.000000  -0.022880 -0.000031 1.570738
25  0.000001 -0.000012 -0.000000  0.868960 0.000002 1.570712
26  -6.617934 -9.178503 0.826812  1.473120 1.855075 -0.198639
27  6.027513 -0.000259 -0.000221  1.523718 0.753770 -0.707201
28  11.691991 0.000160 0.000856  0.141449 0.000072 -1.835417
29  11.479367 -0.000855 0.000953  -1.152313 0.378528 0.881313
30  3.859438 -0.132759 1.193065  0.469647 -0.013262 -1.872395
31  1.312559 0.000026 -0.000002  0.024060 -0.138696 -0.550187
32  0.729346 0.000065 -0.000028  -0.166197 -0.081570 -0.714272
33  3.942047 0.050139 0.431000  0.225309 -0.086237 -1.592712
34  1.539097 0.000006 -0.000001  0.035254 -0.050373 -0.994350
35  1.196301 0.000078 -0.000004  -0.021521 0.002175 -0.839738
36  3.883414 -0.050472 -0.431084  0.184824 -0.271737 -1.204030
37  1.719563 -0.000084 -0.000004  0.022858 -0.107186 -1.509108
38  1.209198 0.000035 0.000012  0.000661 0.071072 -0.480462
39  3.859589 -0.149083 -1.331321  -0.104061 -0.070249 -0.272073
40  1.719414 -0.000098 -0.000035  -0.013177 0.003907 -1.203491
41  1.099674 0.000022 0.000007  -0.005887 -0.007993 -0.771205
42  0.805984 -0.359847 -1.318338  0.991670 0.166767 -0.799527
43  1.789780 -0.000009 -0.000042  0.000058 -0.002451 0.133097
44  1.206996 -0.000007 0.000005  0.000372 -0.000071 1.058780
45  5.740573 0.000080 0.000721  0.170108 -0.000014 0.000028
46  11.480819 -0.000097 0.000936  0.055114 0.081812 0.145187
47  6.027515 -0.000273 -0.000230  -0.908210 -0.519520 -1.711423
48  -0.000002 11.691974 -0.000005  -1.226526 0.671279 0.920314
49  0.000003 -0.000000 0.000001  2.413977 -0.000036 1.570860
50  -0.000008 -0.000014 0.000006  2.272645 -0.000036 1.570861
51  -3.459375 -3.820927 -6.856010  -0.086079 -2.994875 1.466189
52  0.000000 0.000000 0.000001  0.008153 -0.000259 0.000009
53  0.000000 0.000000 0.000000  1.565115 0.043565 -0.106862
54  -0.542960 -15.814086 -5.010090  -0.762064 0.073527 -1.829668
55  0.000000 0.000001 -0.000000  0.000000 -0.000001 -0.000002
56  0.000031 0.000029 0.000001  -1.571902 -0.044449 -0.106509
57  8.208684 -17.520149 -17.916506  1.570796 -0.000000 0.000000
58  -15.417985 4.000748 -22.641926  1.570796 -0.000000 0.000000
59  1.941978 -0.383090 -8.860325  1.570796 -0.000000 0.000000
60  -0.004311 0.001229 -0.000371  0.006898 -0.005534 -0.284229
61  0.826810 10.209643 -4.879054  1.570796 -0.000000 0.000000
62  0.000000 0.000000 0.000000  -0.078727 -3.136056 0.284226
63  -2.240596 -3.247336 -0.249455  1.570796 -0.000000 0.000000
64  -2.283125 -8.260528 -1.355462  1.569798 0.008130 -0.000723
65  0.002681 -3.204031 0.621198  0.000000 0.000000 -0.000000
66  0.048105 -1.112260 2.845373  0.000000 0.000000 -0.000000
67  -1.184782 0.539746 -0.284904  0.000000 0.000000 -0.002796
68  0.047884 -1.610073 21.020464  0.000000 0.000000 -0.000000
69  0.047881 -3.319713 2.472856  0.000000 0.000000 -0.000000
70  0.172181 -2.040368 3.568007  0.000000 0.000000 -0.000000
71  0.654947 -2.537531 2.477231  0.000000 -0.000000 -0.261799
72  -3.588360 -1.097282 -23.660017  1.570796 -0.000000 0.000000
73  0.017809 1.799356 -0.402361  0.000000 -0.000000 0.000000
74  -2.317323 -12.970980 -5.447818  1.569798 0.008130 -0.000723
75  0.031323 2.100358 -1.138380  0.000000 0.000000 -0.000000
76  -0.024051 1.849582 -1.138377  0.000000 0.000000 -0.000000
time 9
0  0.000006 0.000000 0.000000  -1.570800 -1.391899 -1.570792
1  -8.649605 1.953038 1.937664  -1.544956 -1.855077 -0.198630
2  6.027525 -0.000327 0.000189  -0.497981 -1.323639 -1.728761
3  11.692112 0.000646 -0.000738  -0.891972 -0.000014 -1.319625
4  11.480376 0.000389 -0.000688  0.699238 -0.746914 0.923728
5  3.859506 -0.142824 -1.192079  -0.780612 -0.123962 -1.912387
6  1.312589 0.000010 0.000007  -0.118652 -0.042325 -0.379408
7  0.729354 0.000054 0.000053  0.002599 -0.010829 -0.344657
8  3.942143 0.046334 -0.431544  -0.766922 0.160085 -1.543102
9  1.539110 0.000081 0.000003  -0.028669 -0.057457 -0.680251
10  1.196331 0.000145 0.000029  0.004842 0.001374 -0.728711
11  3.883514 -0.047211 0.431351  -0.446175 0.503317 -1.015794
12  1.719573 -0.000028 0.000019  0.020825 -0.156575 -1.111891
13  1.209180 0.000088 0.000012  -0.000666 -0.001718 -0.566770
14  3.859678 -0.138416 1.332379  -0.099311 0.605539 -0.494814
15  1.719447 -0.000021 0.000029  -0.036810 0.016947 -0.616278
16  1.099676 0.000047 0.000005  -0.003669 0.001393 -1.369679
17  0.587512 -0.753782 1.206786  -0.946963 -0.663736 -0.558319
18  1.789817 -0.000005 -0.000018  0.020877 0.018030 0.740855
19  1.207015 -0.000014 -0.000043  -0.003373 -0.002176 -0.110066
20  5.740637 0.000388 -0.000699  -0.244368 0.000003 0.000063
21  11.481079 0.000257 -0.000791  -0.092137 -0.177405 0.094783
22  6.027525 -0.000330 0.000200  1.519761 -0.242020 1.622898
23  -0.000001 11.692102 -0.000007  -0.921345 -0.379587 -0.738573
24  0.000003 0.000009 0.000001  -0.022880 -0.000031 1.570739
25  -0.000000 -0.000011 0.000000  0.868960 0.000002 1.570712
26  -6.617934 -9.178503 0.826812  1.473120 1.855075 -0.198639
27  6.027513 -0.000259 -0.000221  1.523077 0.752811 -0.707420
28  11.691992 0.000161 0.000856  0.141449 0.000073 -1.838289
29  11.479343 -0.000871 0.000957  -1.150486 0.379052 0.883875
30  3.859438 -0.132758 1.193065  0.469647 -0.013262 -1.872395
31  1.312559 0.000026 -0.000001  0.024060 -0.138696 -0.550187
32  0.729345 0.000065 -0.000028  -0.166197 -0.081570 -0.714272
33  3.942047 0.050139 0.431000  0.225309 -0.086237 -1.592712
34  1.539097 0.000005 -0.000002  0.035254 -0.050373 -0.994350
35  1.196301 0.000078 -0.000004  -0.021521 0.002175 -0.839738
36  3.883413 -0.050472 -0.431085  0.184824 -0.271737 -1.204030
37  1.719563 -0.000085 -0.000005  0.022858 -0.107186 -1.509108
38  1.209198 0.000036 0.000011  0.000661 0.071072 -0.480462
39  3.859589 -0.149082 -1.331321  -0.104061 -0.070249 -0.272073
40  1.719414 -0.000098 -0.000035  -0.013177 0.003907 -1.203491
41  1.099673 0.000022 0.000006  -0.005887 -0.007993 -0.771205
42  0.805983 -0.359848 -1.318339  0.991670 0.166767 -0.799527
43  1.789780 -0.000008 -0.000042  0.000058 -0.002451 0.133097
44  1.206997 -0.000007 0.000005  0.000372 -0.000071 1.058780
45  5.740574 0.000078 0.000721  0.170939 -0.000014 0.000028
46  11.480814 -0.000101 0.000936  0.055325 0.082109 0.145574
47  6.027515 -0.000273 -0.000230  -0.907567 -0.520430 -1.711523
48  -0.000002 11.691975 -0.000004  -1.228223 0.673025 0.921112
49  0.000002 0.000000 0.000000  2.413977 -0.000036 1.570860
50  -0.000007 -0.000015 0.000006  2.272645 -0.000036 1.570861
51  -3.452718 -3.793620 -6.854389  -0.084800 -2.995436 1.466071
52  0.000000 -0.000000 0.000001  0.008153 -0.000259 0.000009
53  0.000000 0.000000 -0.000000  1.565115 0.043565 -0.106862
54  -0.537911 -15.787366 -5.009735  -0.760897 0.074275 -1.829513
55  -0.000000 0.000000 0.000000  0.000000 -0.000001 -0.000002
56  0.000031 0.000029 0.000001  -1.571901 -0.044449 -0.106509
57  8.208684 -17.520149 -17.916506  1.570796 -0.000000 0.000000
58  -15.417985 4.000748 -22.641926  1.570796 -0.000000 0.000000
59  1.941978 -0.383090 -8.860325  1.570796 -0.000000 0.000000
60  -0.004311 0.001229 -0.000371  0.006898 -0.005534 -0.284229
61  0.826810 10.209643 -4.879054  1.570796 -0.000000 0.000000
62  0.000000 0.000000 0.000000  -0.078727 -3.136056 0.284226
63  -2.240596 -3.247336 -0.249455  1.570796 -0.000000 0.000000
64  -2.283409 -8.235483 -1.354187  1.570224 0.006813 -0.000652
65  0.002681 -3.204031 0.621195  -0.000000 -0.000000 0.000000
66  0.048105 -1.112260 2.845371  -0.000000 -0.000000 0.000000
67  -1.184782 0.539746 -0.284905  -0.000000 -0.000000 -0.007782
68  0.047884 -1.610073 21.020468  -0.000000 -0.000000 0.000000
69  0.047881 -3.319714 2.472854  -0.000000 -0.000000 0.000000
70  0.172180 -2.040368 3.568006  -0.000000 -0.000000 0.000000
71  0.654947 -2.537530 2.477229  0.000000 -0.000000 -0.261799
72  -3.588360 -1.097282 -23.660017  1.570796 -0.000000 0.000000
73  0.017809 1.799356 -0.402361  0.000000 -0.000000 0.000000
74  -2.311893 -12.944195 -5.448589  1.570224 0.006813 -0.000652
75  0.031323 2.100358 -1.138380  -0.000000 -0.000000 0.000000
76  -0.024051 1.849583 -1.138377  -0.000000 -0.000000 0.000000
time 10
0  0.000006 0.000000 0.000000  -1.570800 -1.391899 -1.570792
1  -8.649605 1.953038 1.937664  -1.544956 -1.855077 -0.198630
2  6.027525 -0.000327 0.000189  -0.501471 -1.323204 -1.725285
3  11.692112 0.000645 -0.000738  -0.891972 -0.000014 -1.322528
4  11.480354 0.000380 -0.000698  0.698412 -0.747974 0.927387
5  3.859506 -0.142824 -1.192079  -0.780612 -0.123962 -1.912387
6  1.312588 0.000010 0.000006  -0.118652 -0.042325 -0.379408
7  0.729353 0.000055 0.000052  0.002599 -0.010829 -0.344657
8  3.942144 0.046334 -0.431544  -0.766922 0.160085 -1.543102
9  1.539109 0.000081 0.000003  -0.028669 -0.057457 -0.680251
10  1.196330 0.000145 0.000029  0.004842 0.001374 -0.728711
11  3.883514 -0.047212 0.431351  -0.446175 0.503317 -1.015794
12  1.719573 -0.000027 0.000017  0.020825 -0.156575 -1.111891
13  1.209180 0.000088 0.000013  -0.000666 -0.001718 -0.566770
14  3.859681 -0.138417 1.332380  -0.099311 0.605538 -0.494814
15  1.719447 -0.000019 0.000029  -0.036809 0.016947 -0.616278
16  1.099676 0.000053 0.000009  -0.003669 0.001393 -1.369678
17  0.587514 -0.753782 1.206786  -0.946963 -0.663736 -0.558319
18  1.789817 -0.000005 -0.000018  0.020877 0.018030 0.740855
19  1.207015 -0.000013 -0.000042  -0.003373 -0.002176 -0.110066
20  5.740636 0.000387 -0.000701  -0.244871 0.000003 0.000064
21  11.481074 0.000255 -0.000793  -0.091895 -0.177787 0.095261
22  6.027525 -0.000330 0.000200  1.520530 -0.242622 1.622805
23  -0.000001 11.692101 -0.000007  -0.923110 -0.381081 -0.739792
24  0.000004 0.000010 -0.000000  -0.022880 -0.000031 1.570739
25  0.000000 -0.000012 -0.000000  0.868960 0.000002 1.570712
26  -6.617934 -9.178503 0.826812  1.473120 1.855075 -0.198639
27  6.027513 -0.000259 -0.000221  1.522340 0.752221 -0.707695
28  11.691992 0.000160 0.000856  0.141449 0.000073 -1.840524
29  11.479321 -0.000882 0.000957  -1.148162 0.379538 0.886227
30  3.859438 -0.132759 1.193064  0.469647 -0.013262 -1.872395
31  1.312559 0.000025 -0.000001  0.024060 -0.138696 -0.550187
32  0.729345 0.000065 -0.000027  -0.166197 -0.081570 -0.714272
33  3.942047 0.050138 0.430999  0.225309 -0.086237 -1.592712
34  1.539097 0.000005 -0.000001  0.035254 -0.050373 -0.994350
35  1.196300 0.000078 -0.000003  -0.021521 0.002175 -0.839738
36  3.883414 -0.050473 -0.431085  0.184824 -0.271737 -1.204030
37  1.719563 -0.000084 -0.000004  0.022859 -0.107186 -1.509108
38  1.209198 0.000035 0.000012  0.000661 0.071072 -0.480462
39  3.859589 -0.149083 -1.331321  -0.104061 -0.070249 -0.272073
40  1.719415 -0.000098 -0.000036  -0.013177 0.003907 -1.203491
41  1.099674 0.000024 0.000006  -0.005887 -0.007993 -0.771205
42  0.805984 -0.359848 -1.318339  0.991670 0.166767 -0.799527
43  1.789780 -0.000009 -0.000043  0.000058 -0.002451 0.133098
44  1.206997 -0.000007 0.000005  0.000372 -0.000071 1.058781
45  5.740574 0.000079 0.000721  0.171801 -0.000014 0.000028
46  11.480809 -0.000102 0.000937  0.055636 0.082430 0.145896
47  6.027515 -0.000273 -0.000230  -0.907325 -0.521200 -1.711415
48  -0.000001 11.691975 -0.000005  -1.229543 0.674385 0.921731
49  0.000001 -0.000002 0.000000  2.413977 -0.000036 1.570860
50  -0.000007 -0.000013 0.000005  2.272645 -0.000036 1.570861
51  -3.444313 -3.772006 -6.852682  -0.083039 -2.996086 1.465989
52  -0.000000 0.000000 0.000001  0.008153 -0.000259 0.000009
53  0.000000 -0.000000 -0.000001  1.565115 0.043565 -0.106862
54  -0.530750 -15.766102 -5.008345  -0.759270 0.075185 -1.829219
55  0.000001 -0.000000 0.000000  0.000000 -0.000001 -0.000002
56  0.000032 0.000028 0.000001  -1.571902 -0.044449 -0.106509
57  8.208684 -17.520149 -17.916506  1.570796 -0.000000 0.000000
58  -15.417985 4.000748 -22.641926  1.570796 -0.000000 0.000000
59  1.941978 -0.383090 -8.860325  1.570796 -0.000000 0.000000
60  -0.004311 0.001229 -0.000371  0.006898 -0.005534 -0.284229
61  0.826810 10.209643 -4.879054  1.570796 -0.000000 0.000000
62  0.000000 0.000000 0.000000  -0.078727 -3.136056 0.284226
63  -2.240596 -3.247336 -0.249455  1.570796 -0.000000 0.000000
64  -2.284140 -8.216219 -1.352444  1.570689 0.005012 -0.000476
65  0.002681 -3.204031 0.621194  -0.000000 -0.000000 0.000000
66  0.048105 -1.112260 2.845370  -0.000000 -0.000000 0.000000
67  -1.184782 0.539746 -0.284905  -0.000000 -0.000000 -0.005765
68  0.047884 -1.610073 21.020466  -0.000000 -0.000000 0.000000
69  0.047881 -3.319713 2.472853  -0.000000 -0.000000 0.000000
70  0.172180 -2.040368 3.568006  -0.000000 -0.000000 0.000000
71  0.654947 -2.537531 2.477229  0.000000 -0.000000 -0.261799
72  -3.588360 -1.097282 -23.660017  1.570796 -0.000000 0.000000
73  0.017809 1.799356 -0.402361  0.000000 -0.000000 0.000000
74  -2.304432 -12.923035 -5.449074  1.570689 0.005012 -0.000476
75  0.031323 2.100358 -1.138381  -0.000000 -0.000000 0.000000
76  -0.024051 1.849583 -1.138378  -0.000000 -0.000000 0.000000
time 11
0  0.000006 0.000000 0.000000  -1.570800 -1.391899 -1.570792
1  -8.649605 1.953038 1.937664  -1.544956 -1.855077 -0.198630
2  6.027525 -0.000327 0.000189  -0.504024 -1.322995 -1.723032
3  11.692111 0.000646 -0.000739  -0.891972 -0.000014 -1.324074
4  11.480346 0.000376 -0.000701  0.698747 -0.748541 0.929952
5  3.859506 -0.142824 -1.192078  -0.780612 -0.123962 -1.912387
6  1.312589 0.000010 0.000007  -0.118652 -0.042325 -0.379408
7  0.729355 0.000054 0.000051  0.002599 -0.010829 -0.344657
8  3.942142 0.046333 -0.431545  -0.766922 0.160085 -1.543102
9  1.539109 0.000082 0.000001  -0.028669 -0.057457 -0.680251
10  1.196331 0.000145 0.000032  0.004842 0.001374 -0.728711
11  3.883513 -0.047211 0.431351  -0.446175 0.503317 -1.015794
12  1.719574 -0.000027 0.000020  0.020825 -0.156575 -1.111891
13  1.209180 0.000089 0.000013  -0.000666 -0.001718 -0.566770
14  3.859679 -0.138417 1.332379  -0.099311 0.605538 -0.494814
15  1.719447 -0.000020 0.000030  -0.036810 0.016947 -0.616278
16  1.099675 0.000051 0.000007  -0.003669 0.001393 -1.369678
17  0.587512 -0.753781 1.206786  -0.946963 -0.663737 -0.558319
18  1.789817 -0.000005 -0.000018  0.020877 0.018030 0.740855
19  1.207015 -0.000013 -0.000043  -0.003373 -0.002176 -0.110066
20  5.740636 0.000389 -0.000700  -0.244940 0.000003 0.000063
21  11.481073 0.000254 -0.000793  -0.091594 -0.177973 0.095692
22  6.027525 -0.000330 0.000200  1.521117 -0.242954 1.622442
23  -0.000002 11.692101 -0.000007  -0.924049 -0.381877 -0.740440
24  0.000003 0.000007 0.000000  -0.022880 -0.000031 1.570739
25  -0.000000 -0.000011 0.000001  0.868960 0.000002 1.570712
26  -6.617934 -9.178503 0.826812  1.473120 1.855075 -0.198639
27  6.027513 -0.000259 -0.000221  1.521649 0.752222 -0.707979
28  11.691990 0.000162 0.000856  0.141449 0.000073 -1.841479
29  11.479317 -0.000885 0.000959  -1.145774 0.379892 0.887834
30  3.859438 -0.132758 1.193065  0.469647 -0.013262 -1.872395
31  1.312559 0.000025 -0.000001  0.024060 -0.138696 -0.550187
32  0.729346 0.000064 -0.000028  -0.166197 -0.081570 -0.714272
33  3.942047 0.050139 0.431000  0.225309 -0.086237 -1.592712
34  1.539097 0.000006 -0.000001  0.035254 -0.050373 -0.994350
35  1.196300 0.000078 -0.000004  -0.021521 0.002175 -0.839738
36  3.883414 -0.050472 -0.431084  0.184824 -0.271737 -1.204030
37  1.719563 -0.000086 -0.000004  0.022859 -0.107186 -1.509108
38  1.209197 0.000036 0.000012  0.000661 0.071072 -0.480462
39  3.859589 -0.149082 -1.331321  -0.104061 -0.070249 -0.272073
40  1.719414 -0.000098 -0.000035  -0.013177 0.003907 -1.203491
41  1.099674 0.000023 0.000006  -0.005887 -0.007993 -0.771205
42  0.805984 -0.359848 -1.318338  0.991670 0.166767 -0.799527
43  1.789780 -0.000008 -0.000042  0.000058 -0.002451 0.133098
44  1.206997 -0.000007 0.000005  0.000372 -0.000071 1.058780
45  5.740574 0.000079 0.000721  0.172506 -0.000014 0.000028
46  11.480808 -0.000103 0.000937  0.055993 0.082712 0.146076
47  6.027515 -0.000273 -0.000230  -0.907640 -0.521625 -1.711070
48  -0.000003 11.691974 -0.000005  -1.230107 0.674966 0.921995
49  0.000002 0.000000 0.000000  2.413978 -0.000036 1.570860
50  -0.000008 -0.000015 0.000006  2.272645 -0.000036 1.570861
51  -3.435522 -3.762218 -6.851156  -0.081112 -2.996715 1.465935
52  -0.000000 0.000000 0.000000  0.008153 -0.000259 0.000009
53  0.000000 -0.000000 0.000000  1.565115 0.043565 -0.106862
54  -0.522874 -15.756444 -5.006211  -0.757476 0.076098 -1.828857
55  -0.000000 0.000000 -0.000000  0.000000 -0.000001 -0.000002
56  0.000031 0.000029 0.000001  -1.571901 -0.044449 -0.106509
57  8.208684 -17.520149 -17.916506  1.570796 -0.000000 0.000000
58  -15.417985 4.000748 -22.641926  1.570796 -0.000000 0.000000
59  1.941978 -0.383090 -8.860325  1.570796 -0.000000 0.000000
60  -0.004311 0.001229 -0.000371  0.006898 -0.005534 -0.284229
61  0.826810 10.209643 -4.879054  1.570796 -0.000000 0.000000
62  0.000000 0.000000 0.000000  -0.078727 -3.136056 0.284226
63  -2.240596 -3.247336 -0.249455  1.570796 -0.000000 0.000000
64  -2.285139 -8.208513 -1.350544  1.571116 0.003050 -0.000248
65  0.002680 -3.204031 0.621197  0.000000 0.000000 -0.000000
66  0.048105 -1.112260 2.845374  0.000000 0.000000 -0.000000
67  -1.184782 0.539746 -0.284904  0.000000 -0.000000 -0.002018
68  0.047884 -1.610073 21.020466  0.000000 0.000000 -0.000000
69  0.047881 -3.319713 2.472856  0.000000 0.000000 -0.000000
70  0.172180 -2.040368 3.568008  0.000000 0.000000 -0.000000
71  0.654947 -2.537531 2.477232  0.000000 -0.000000 -0.261799
72  -3.588360 -1.097282 -23.660017  1.570796 -0.000000 0.000000
73  0.017809 1.799356 -0.402361  0.000000 -0.000000 0.000000
74  -2.296330 -12.913588 -5.449210  1.571116 0.003050 -0.000248
75  0.031323 2.100358 -1.138379  0.000000 0.000000 -0.000000
76  -0.024051 1.849582 -1.138377  0.000000 0.000000 -0.000000
time 12
0  0.000006 0.000000 0.000000  -1.570800 -1.391899 -1.570792
1  -8.649605 1.953038 1.937664  -1.544956 -1.855077 -0.198630
2  6.027525 -0.000327 0.000189  -0.505486 -1.322991 -1.722041
3  11.692111 0.000646 -0.000738  -0.891972 -0.000014 -1.324393
4  11.480343 0.000377 -0.000701  0.699922 -0.748669 0.931317
5  3.859507 -0.142824 -1.192079  -0.780612 -0.123962 -1.912387
6  1.312588 0.000011 0.000004  -0.118652 -0.042325 -0.379408
7  0.729354 0.000054 0.000052  0.002599 -0.010829 -0.344657
8  3.942144 0.046333 -0.431544  -0.766922 0.160085 -1.543102
9  1.539110 0.000082 0.000002  -0.028669 -0.057457 -0.680251
10  1.196332 0.000146 0.000031  0.004842 0.001374 -0.728711
11  3.883513 -0.047212 0.431350  -0.446175 0.503317 -1.015794
12  1.719574 -0.000025 0.000019  0.020825 -0.156575 -1.111891
13  1.209181 0.000087 0.000014  -0.000666 -0.001718 -0.566770
14  3.859681 -0.138417 1.332380  -0.099311 0.605539 -0.494814
15  1.719449 -0.000019 0.000030  -0.036810 0.016947 -0.616278
16  1.099676 0.000051 0.000006  -0.003669 0.001393 -1.369679
17  0.587514 -0.753782 1.206786  -0.946963 -0.663736 -0.558319
18  1.789817 -0.000006 -0.000018  0.020877 0.018030 0.740855
19  1.207017 -0.000013 -0.000042  -0.003373 -0.002176 -0.110066
20  5.740636 0.000388 -0.000700  -0.244677 0.000003 0.000063
21  11.481072 0.000255 -0.000792  -0.091290 -0.177985 0.096026
22  6.027525 -0.000330 0.000200  1.521478 -0.243031 1.621930
23  -0.000000 11.692101 -0.000006  -0.924243 -0.382041 -0.740574
24  0.000002 0.000008 0.000000  -0.022880 -0.000031 1.570738
25  0.000001 -0.000012 0.000001  0.868960 0.000002 1.570712
26  -6.617934 -9.178503 0.826812  1.473120 1.855075 -0.198639
27  6.027513 -0.000259 -0.000221  1.521085 0.752652 -0.708232
28  11.691991 0.000161 0.000856  0.141449 0.000073 -1.841355
29  11.479316 -0.000885 0.000959  -1.143686 0.380120 0.888635
30  3.859438 -0.132758 1.193064  0.469647 -0.013262 -1.872395
31  1.312560 0.000025 -0.000001  0.024060 -0.138696 -0.550187
32  0.729345 0.000063 -0.000028  -0.166197 -0.081570 -0.714272
33  3.942047 0.050139 0.431000  0.225309 -0.086237 -1.592712
34  1.539097 0.000006 -0.000001  0.035254 -0.050373 -0.994350
35  1.196300 0.000078 -0.000004  -0.021521 0.002175 -0.839738
36  3.883414 -0.050472 -0.431085  0.184824 -0.271737 -1.204030
37  1.719563 -0.000086 -0.000004  0.022858 -0.107186 -1.509108
38  1.209198 0.000035 0.000011  0.000661 0.071072 -0.480462
39  3.859590 -0.149082 -1.331321  -0.104061 -0.070249 -0.272073
40  1.719415 -0.000098 -0.000035  -0.013177 0.003907 -1.203491
41  1.099673 0.000023 0.000007  -0.005887 -0.007993 -0.771205
42  0.805984 -0.359847 -1.318339  0.991670 0.166767 -0.799527
43  1.789780 -0.000008 -0.000043  0.000058 -0.002451 0.133098
44  1.206996 -0.000006 0.000005  0.000372 -0.000071 1.058780
45  5.740574 0.000079 0.000721  0.172988 -0.000014 0.000028
46  11.480808 -0.000104 0.000937  0.056329 0.082927 0.146118
47  6.027515 -0.000273 -0.000230  -0.908313 -0.521741 -1.710602
48  -0.000001 11.691975 -0.000005  -1.230034 0.674890 0.921960
49  0.000004 -0.000001 -0.000000  2.413977 -0.000036 1.570860
50  -0.000007 -0.000014 0.000005  2.272645 -0.000036 1.570861
51  -3.427709 -3.762528 -6.850091  -0.079335 -2.997213 1.465905
52  -0.000000 0.000000 0.000001  0.008153 -0.000259 0.000009
53  0.000000 0.000000 -0.000000  1.565115 0.043565 -0.106862
54  -0.515676 -15.756671 -5.003638  -0.755810 0.076858 -1.828504
55  -0.000001 0.000000 0.000000  0.000000 -0.000001 -0.000002
56  0.000030 0.000029 0.000001  -1.571901 -0.044449 -0.106509
57  8.208684 -17.520149 -17.916506  1.570796 -0.000000 0.000000
58  -15.417985 4.000748 -22.641926  1.570796 -0.000000 0.000000
59  1.941978 -0.383090 -8.860325  1.570796 -0.000000 0.000000
60  -0.004311 0.001229 -0.000371  0.006898 -0.005534 -0.284229
61  0.826810 10.209643 -4.879054  1.570796 -0.000000 0.000000
62  0.000000 0.000000 0.000000  -0.078727 -3.136056 0.284226
63  -2.240596 -3.247336 -0.249455  1.570796 -0.000000 0.000000
64  -2.286229 -8.210279 -1.348800  1.571428 0.001249 -0.000022
65  0.002681 -3.204031 0.621195  -0.000000 -0.000000 0.000000
66  0.048105 -1.112260 2.845372  -0.000000 -0.000000 0.000000
67  -1.184782 0.539746 -0.284905  -0.000000 -0.000000 0.000000
68  0.047884 -1.610073 21.020462  -0.000000 -0.000000 0.000000
69  0.047881 -3.319713 2.472855  -0.000000 -0.000000 0.000000
70  0.172180 -2.040368 3.568006  -0.000000 -0.000000 0.000000
71  0.654947 -2.537531 2.477231  0.000000 -0.000000 -0.261799
72  -3.588360 -1.097282 -23.660017  1.570796 -0.000000 0.000000
73  0.017809 1.799356 -0.402361  0.000000 -0.000000 0.000000
74  -2.288975 -12.914078 -5.448945  1.571428 0.001249 -0.000022
75  0.031323 2.100358 -1.138381  -0.000000 -0.000000 0.000000
76  -0.024051 1.849583 -1.138378  -0.000000 -0.000000 0.000000
time 13
0  0.000006 0.000000 0.000000  -1.570800 -1.391899 -1.570792
1  -8.649605 1.953038 1.937664  -1.544956 -1.855077 -0.198630
2  6.027525 -0.000327 0.000189  -0.506068 -1.323088 -1.721902
3  11.692112 0.000645 -0.000737  -0.891972 -0.000014 -1.324142
4  11.480345 0.000378 -0.000700  0.701226 -0.748612 0.931827
5  3.859506 -0.142824 -1.192078  -0.780612 -0.123962 -1.912387
6  1.312588 0.000012 0.000006  -0.118652 -0.042324 -0.379408
7  0.729353 0.000054 0.000050  0.002599 -0.010829 -0.344657
8  3.942142 0.046334 -0.431544  -0.766922 0.160085 -1.543102
9  1.539109 0.000083 0.000004  -0.028669 -0.057457 -0.680251
10  1.196331 0.000145 0.000029  0.004842 0.001374 -0.728711
11  3.883512 -0.047212 0.431350  -0.446175 0.503317 -1.015794
12  1.719573 -0.000028 0.000018  0.020825 -0.156575 -1.111891
13  1.209180 0.000089 0.000014  -0.000666 -0.001718 -0.566770
14  3.859678 -0.138417 1.332380  -0.099311 0.605539 -0.494814
15  1.719448 -0.000019 0.000030  -0.036810 0.016947 -0.616278
16  1.099675 0.000050 0.000006  -0.003669 0.001393 -1.369679
17  0.587511 -0.753781 1.206786  -0.946963 -0.663737 -0.558319
18  1.789819 -0.000004 -0.000018  0.020877 0.018030 0.740855
19  1.207015 -0.000013 -0.000043  -0.003373 -0.002176 -0.110066
20  5.740637 0.000389 -0.000700  -0.244339 0.000003 0.000063
21  11.481072 0.000256 -0.000793  -0.091045 -0.177922 0.096237
22  6.027525 -0.000330 0.000200  1.521643 -0.242964 1.621463
23  -0.000000 11.692101 -0.000007  -0.924090 -0.381912 -0.740469
24  0.000004 0.000009 0.000001  -0.022880 -0.000031 1.570739
25  0.000001 -0.000012 0.000000  0.868960 0.000002 1.570712
26  -6.617934 -9.178503 0.826812  1.473120 1.855075 -0.198639
27  6.027513 -0.000259 -0.000221  1.520696 0.753123 -0.708415
28  11.691992 0.000161 0.000856  0.141449 0.000073 -1.840840
29  11.479323 -0.000883 0.000958  -1.142223 0.380282 0.888840
30  3.859437 -0.132759 1.193066  0.469647 -0.013262 -1.872395
31  1.312559 0.000026 -0.000001  0.024060 -0.138696 -0.550187
32  0.729346 0.000065 -0.000028  -0.166197 -0.081570 -0.714272
33  3.942046 0.050139 0.431001  0.225309 -0.086237 -1.592712
34  1.539096 0.000005 -0.000000  0.035254 -0.050373 -0.994350
35  1.196300 0.000077 -0.000003  -0.021521 0.002175 -0.839738
36  3.883413 -0.050473 -0.431084  0.184824 -0.271737 -1.204030
37  1.719563 -0.000085 -0.000004  0.022858 -0.107186 -1.509108
38  1.209199 0.000035 0.000012  0.000662 0.071072 -0.480462
39  3.859588 -0.149083 -1.331320  -0.104061 -0.070249 -0.272073
40  1.719415 -0.000098 -0.000035  -0.013177 0.003907 -1.203491
41  1.099674 0.000023 0.000006  -0.005887 -0.007993 -0.771205
42  0.805983 -0.359848 -1.318338  0.991670 0.166767 -0.799527
43  1.789780 -0.000008 -0.000042  0.000058 -0.002451 0.133097
44  1.206996 -0.000007 0.000005  0.000372 -0.000071 1.058781
45  5.740575 0.000078 0.000721  0.173257 -0.000014 0.000028
46  11.480810 -0.000104 0.000937  0.056576 0.083069 0.146078
47  6.027515 -0.000273 -0.000230  -0.908947 -0.521726 -1.710203
48  -0.000002 11.691977 -0.000006  -1.229730 0.674577 0.921818
49  0.000003 -0.000000 0.000000  2.413977 -0.000036 1.570860
50  -0.000008 -0.000013 0.000005  2.272645 -0.000036 1.570861
51  -3.422235 -3.766717 -6.849776  -0.078024 -2.997471 1.465890
52  0.000000 -0.000000 -0.000000  0.008153 -0.000259 0.000009
53  -0.000000 0.000000 0.000000  1.565115 0.043565 -0.106862
54  -0.510552 -15.760579 -5.000939  -0.754563 0.077311 -1.828235
55  -0.000000 -0.000001 0.000000  0.000000 -0.000001 -0.000002
56  0.000029 0.000028 0.000001  -1.571901 -0.044449 -0.106509
57  8.208684 -17.520149 -17.916506  1.570796 -0.000000 0.000000
58  -15.417985 4.000748 -22.641926  1.570796 -0.000000 0.000000
59  1.941978 -0.383090 -8.860325  1.570796 -0.000000 0.000000
60  -0.004311 0.001229 -0.000371  0.006898 -0.005534 -0.284229
61  0.826810 10.209643 -4.879054  1.570796 -0.000000 0.000000
62  0.000000 0.000000 0.000000  -0.078727 -3.136056 0.284226
63  -2.240596 -3.247336 -0.249455  1.570796 -0.000000 0.000000
64  -2.287228 -8.214935 -1.347525  1.571549 -0.000068 0.000152
65  0.002681 -3.204031 0.621196  -0.000000 -0.000000 -0.000000
66  0.048105 -1.112260 2.845371  -0.000000 -0.000000 -0.000000
67  -1.184783 0.539746 -0.284907  -0.000000 -0.000000 -0.000000
68  0.047884 -1.610073 21.020466  -0.000000 -0.000000 -0.000000
69  0.047881 -3.319714 2.472854  -0.000000 -0.000000 -0.000000
70  0.172180 -2.040368 3.568006  -0.000000 -0.000000 -0.000000
71  0.654947 -2.537531 2.477229  0.000000 -0.000000 -0.261799
72  -3.588360 -1.097282 -23.660017  1.570796 -0.000000 0.000000
73  0.017809 1.799356 -0.402361  0.000000 -0.000000 0.000000
74  -2.283756 -12.918238 -5.448238  1.571549 -0.000068 0.000152
75  0.031323 2.100358 -1.138382  -0.000000 -0.000000 -0.000000
76  -0.024051 1.849583 -1.138378  -0.000000 -0.000000 -0.000000
time 14
0  0.000006 0.000000 0.000000  -1.570800 -1.391899 -1.570792
1  -8.649605 1.953038 1.937664  -1.544956 -1.855077 -0.198630
2  6.027525 -0.000327 0.000189  -0.505645 -1.323254 -1.722613
3  11.692112 0.000646 -0.000739  -0.891972 -0.000014 -1.323384
4  11.480351 0.000380 -0.000697  0.702285 -0.748371 0.931394
5  3.859506 -0.142823 -1.192078  -0.780612 -0.123962 -1.912387
6  1.312589 0.000010 0.000007  -0.118652 -0.042324 -0.379408
7  0.729353 0.000054 0.000052  0.002599 -0.010829 -0.344657
8  3.942144 0.046334 -0.431544  -0.766922 0.160085 -1.543102
9  1.539110 0.000080 0.000003  -0.028669 -0.057457 -0.680251
10  1.196330 0.000146 0.000031  0.004842 0.001374 -0.728711
11  3.883513 -0.047211 0.431351  -0.446175 0.503317 -1.015794
12  1.719573 -0.000028 0.000017  0.020825 -0.156575 -1.111891
13  1.209180 0.000088 0.000010  -0.000666 -0.001718 -0.566770
14  3.859680 -0.138416 1.332380  -0.099311 0.605538 -0.494814
15  1.719447 -0.000020 0.000030  -0.036809 0.016947 -0.616278
16  1.099675 0.000048 0.000006  -0.003669 0.001393 -1.369679
17  0.587511 -0.753782 1.206787  -0.946963 -0.663737 -0.558319
18  1.789819 -0.000004 -0.000018  0.020877 0.018030 0.740855
19  1.207014 -0.000013 -0.000042  -0.003373 -0.002176 -0.110066
20  5.740636 0.000387 -0.000699  -0.244015 0.000003 0.000064
21  11.481074 0.000255 -0.000791  -0.090929 -0.177802 0.096276
22  6.027525 -0.000330 0.000200  1.521572 -0.242781 1.621180
23  -0.000000 11.692101 -0.000006  -0.923630 -0.381522 -0.740151
24  0.000003 0.000010 -0.000000  -0.022880 -0.000030 1.570739
25  0.000001 -0.000012 0.000001  0.868960 0.000002 1.570712
26  -6.617934 -9.178503 0.826812  1.473120 1.855075 -0.198639
27  6.027513 -0.000259 -0.000221  1.520589 0.753527 -0.708479
28  11.691990 0.000161 0.000856  0.141449 0.000073 -1.840068
29  11.479326 -0.000879 0.000957  -1.141731 0.380321 0.888460
30  3.859438 -0.132758 1.193064  0.469647 -0.013262 -1.872395
31  1.312559 0.000025 -0.000001  0.024060 -0.138696 -0.550187
32  0.729344 0.000065 -0.000027  -0.166197 -0.081570 -0.714272
33  3.942047 0.050139 0.431000  0.225309 -0.086237 -1.592712
34  1.539097 0.000005 -0.000001  0.035254 -0.050373 -0.994350
35  1.196301 0.000078 -0.000003  -0.021521 0.002175 -0.839738
36  3.883414 -0.050472 -0.431084  0.184824 -0.271737 -1.204030
37  1.719563 -0.000085 -0.000004  0.022858 -0.107186 -1.509108
38  1.209198 0.000035 0.000011  0.000661 0.071072 -0.480462
39  3.859589 -0.149082 -1.331321  -0.104061 -0.070249 -0.272073
40  1.719415 -0.000098 -0.000035  -0.013177 0.003907 -1.203491
41  1.099673 0.000022 0.000007  -0.005887 -0.007993 -0.771205
42  0.805984 -0.359848 -1.318338  0.991670 0.166767 -0.799527
43  1.789780 -0.000008 -0.000043  0.000058 -0.002451 0.133097
44  1.206997 -0.000007 0.000005  0.000372 -0.000071 1.058780
45  5.740573 0.000079 0.000721  0.173255 -0.000014 0.000028
46  11.480808 -0.000102 0.000936  0.056674 0.083101 0.145977
47  6.027515 -0.000273 -0.000230  -0.909388 -0.521574 -1.709974
48  -0.000002 11.691975 -0.000005  -1.229274 0.674107 0.921604
49  0.000002 -0.000002 -0.000000  2.413978 -0.000036 1.570860
50  -0.000007 -0.000015 0.000005  2.272645 -0.000036 1.570861
51  -3.420464 -3.773685 -6.850108  -0.077505 -2.997469 1.465885
52  0.000000 -0.000000 -0.000000  0.008153 -0.000259 0.000009
53  0.000000 0.000000 -0.000000  1.565115 0.043565 -0.106862
54  -0.508893 -15.767241 -4.999116  -0.754053 0.077387 -1.828126
55  0.000002 -0.000000 0.000000  0.000000 -0.000001 -0.000002
56  0.000032 0.000029 0.000001  -1.571902 -0.044449 -0.106509
57  8.208684 -17.520149 -17.916506  1.570796 -0.000000 0.000000
58  -15.417985 4.000748 -22.641926  1.570796 -0.000000 0.000000
59  1.941978 -0.383090 -8.860325  1.570796 -0.000000 0.000000
60  -0.004311 0.001229 -0.000371  0.006898 -0.005534 -0.284229
61  0.826810 10.209643 -4.879054  1.570796 -0.000000 0.000000
62  0.000000 0.000000 0.000000  -0.078727 -3.136056 0.284226
63  -2.240596 -3.247336 -0.249455  1.570796 -0.000000 0.000000
64  -2.287959 -8.221518 -1.347030  1.571493 -0.000578 0.000221
65  0.002681 -3.204031 0.621197  -0.000000 0.000000 -0.000000
66  0.048105 -1.112260 2.845371  -0.000000 0.000000 -0.000000
67  -1.184782 0.539746 -0.284905  -0.000000 0.000000 -0.000000
68  0.047884 -1.610073 21.020466  -0.000000 0.000000 -0.000000
69  0.047881 -3.319713 2.472856  -0.000000 0.000000 -0.000000
70  0.172181 -2.040368 3.568007  -0.000000 0.000000 -0.000000
71  0.654947 -2.537531 2.477231  0.000000 -0.000000 -0.261799
72  -3.588360 -1.097282 -23.660017  1.570796 -0.000000 0.000000
73  0.017809 1.799356 -0.402361  0.000000 -0.000000 0.000000
74  -2.282066 -12.925048 -5.447479  1.571493 -0.000578 0.000221
75  0.031323 2.100358 -1.138381  -0.000000 0.000000 -0.000000
76  -0.024051 1.849582 -1.138378  -0.000000 0.000000 -0.000000
time 15
0  0.000006 0.000000 0.000000  -1.570800 -1.391899 -1.570792
1  -8.649605 1.953038 1.937664  -1.544956 -1.855077 -0.198630
2  6.027525 -0.000327 0.000189  -0.504662 -1.323438 -1.723746
3  11.692112 0.000645 -0.000739  -0.891972 -0.000014 -1.322357
4  11.480357 0.000383 -0.000695  0.703081 -0.747998 0.930383
5  3.859505 -0.142824 -1.192079  -0.780612 -0.123962 -1.912387
6  1.312588 0.000011 0.000007  -0.118652 -0.042324 -0.379408
7  0.729354 0.000054 0.000051  0.002599 -0.010829 -0.344657
8  3.942144 0.046334 -0.431544  -0.766922 0.160085 -1.543102
9  1.539109 0.000082 0.000003  -0.028669 -0.057457 -0.680251
10  1.196331 0.000144 0.000031  0.004842 0.001374 -0.728711
11  3.883512 -0.047211 0.431351  -0.446175 0.503317 -1.015794
12  1.719573 -0.000024 0.000019  0.020825 -0.156575 -1.111891
13  1.209180 0.000089 0.000012  -0.000666 -0.001718 -0.566770
14  3.859678 -0.138416 1.332379  -0.099311 0.605539 -0.494814
15  1.719448 -0.000018 0.000029  -0.036810 0.016947 -0.616278
16  1.099675 0.000051 0.000007  -0.003669 0.001393 -1.369679
17  0.587511 -0.753781 1.206786  -0.946963 -0.663736 -0.558319
18  1.789819 -0.000004 -0.000018  0.020877 0.018030 0.740855
19  1.207016 -0.000013 -0.000043  -0.003373 -0.002176 -0.110066
20  5.740638 0.000389 -0.000700  -0.243720 0.000003 0.000063
21  11.481077 0.000256 -0.000792  -0.090911 -0.177650 0.096201
22  6.027525 -0.000330 0.000200  1.521367 -0.242552 1.621050
23  -0.000001 11.692101 -0.000007  -0.923006 -0.380993 -0.739720
24  0.000004 0.000010 -0.000000  -0.022880 -0.000030 1.570739
25  0.000001 -0.000012 0.000001  0.868960 0.000002 1.570712
26  -6.617934 -9.178503 0.826812  1.473120 1.855075 -0.198639
27  6.027513 -0.000259 -0.000221  1.520651 0.753867 -0.708471
28  11.691992 0.000160 0.000856  0.141449 0.000073 -1.839180
29  11.479334 -0.000874 0.000956  -1.141906 0.380298 0.887766
30  3.859438 -0.132758 1.193064  0.469647 -0.013262 -1.872395
31  1.312560 0.000026 -0.000002  0.024060 -0.138696 -0.550187
32  0.729345 0.000065 -0.000028  -0.166197 -0.081570 -0.714272
33  3.942046 0.050139 0.430999  0.225309 -0.086237 -1.592712
34  1.539097 0.000005 -0.000001  0.035254 -0.050373 -0.994350
35  1.196301 0.000078 -0.000003  -0.021521 0.002175 -0.839738
36  3.883413 -0.050472 -0.431084  0.184824 -0.271737 -1.204030
37  1.719564 -0.000084 -0.000004  0.022859 -0.107186 -1.509108
38  1.209198 0.000036 0.000012  0.000661 0.071072 -0.480462
39  3.859589 -0.149083 -1.331321  -0.104061 -0.070249 -0.272073
40  1.719415 -0.000099 -0.000035  -0.013177 0.003907 -1.203491
41  1.099674 0.000024 0.000007  -0.005887 -0.007993 -0.771205
42  0.805984 -0.359848 -1.318339  0.991670 0.166767 -0.799527
43  1.789780 -0.000009 -0.000042  0.000058 -0.002451 0.133097
44  1.206996 -0.000006 0.000005  0.000372 -0.000071 1.058780
45  5.740572 0.000079 0.000721  0.173080 -0.000014 0.000028
46  11.480811 -0.000101 0.000935  0.056665 0.083065 0.145851
47  6.027515 -0.000273 -0.000230  -0.909690 -0.521353 -1.709857
48  -0.000001 11.691975 -0.000006  -1.228749 0.673567 0.921358
49  0.000003 -0.000001 0.000000  2.413977 -0.000036 1.570860
50  -0.000007 -0.000014 0.000005  2.272645 -0.000036 1.570861
51  -3.420976 -3.781971 -6.850889  -0.077550 -2.997325 1.465869
52  0.000000 -0.000000 0.000001  0.008153 -0.000259 0.000009
53  0.000000 0.000000 -0.000000  1.565115 0.043565 -0.106862
54  -0.509570 -15.775335 -4.998401  -0.754076 0.077237 -1.828151
55  0.000001 0.000000 -0.000000  0.000000 -0.000001 -0.000002
56  0.000031 0.000029 0.000001  -1.571902 -0.044449 -0.106509
57  8.208684 -17.520149 -17.916506  1.570796 -0.000000 0.000000
58  -15.417985 4.000748 -22.641926  1.570796 -0.000000 0.000000
59  1.941978 -0.383090 -8.860325  1.570796 -0.000000 0.000000
60  -0.004311 0.001229 -0.000371  0.006898 -0.005534 -0.284229
61  0.826810 10.209643 -4.879054  1.570796 -0.000000 0.000000
62  0.000000 0.000000 0.000000  -0.078727 -3.136056 0.284226
63  -2.240596 -3.247336 -0.249455  1.570796 -0.000000 0.000000
64  -2.288243 -8.229064 -1.347260  1.571354 -0.000518 0.000198
65  0.002681 -3.204031 0.621196  0.000000 0.000000 0.000000
66  0.048105 -1.112260 2.845373  0.000000 0.000000 0.000000
67  -1.184782 0.539746 -0.284904  0.000000 0.000000 0.000000
68  0.047884 -1.610073 21.020468  0.000000 0.000000 0.000000
69  0.047881 -3.319714 2.472855  0.000000 0.000000 0.000000
70  0.172180 -2.040368 3.568007  0.000000 0.000000 0.000000
71  0.654947 -2.537531 2.477231  0.000000 -0.000000 -0.261799
72  -3.588360 -1.097282 -23.660017  1.570796 -0.000000 0.000000
73  0.017809 1.799356 -0.402361  0.000000 -0.000000 0.000000
74  -2.282705 -12.933165 -5.447053  1.571354 -0.000518 0.000198
75  0.031323 2.100358 -1.138381  0.000000 0.000000 0.000000
76  -0.024051 1.849582 -1.138378  0.000000 0.000000 0.000000
time 16
0  0.000006 0.000000 0.000000  -1.570800 -1.391899 -1.570792
1  -8.649605 1.953038 1.937664  -1.544956 -1.855077 -0.198630
2  6.027525 -0.000327 0.000189  -0.503637 -1.323622 -1.724909
3  11.692113 0.000644 -0.000739  -0.891972 -0.000014 -1.321300
4  11.480366 0.000386 -0.000690  0.703880 -0.747588 0.929251
5  3.859504 -0.142824 -1.192078  -0.780612 -0.123962 -1.912387
6  1.312587 0.000011 0.000008  -0.118652 -0.042325 -0.379408
7  0.729356 0.000053 0.000050  0.002599 -0.010829 -0.344657
8  3.942143 0.046333 -0.431544  -0.766922 0.160085 -1.543102
9  1.539109 0.000082 0.000004  -0.028669 -0.057457 -0.680251
10  1.196331 0.000146 0.000031  0.004842 0.001374 -0.728711
11  3.883513 -0.047212 0.431351  -0.446175 0.503317 -1.015793
12  1.719573 -0.000026 0.000019  0.020825 -0.156575 -1.111891
13  1.209179 0.000089 0.000014  -0.000666 -0.001718 -0.566770
14  3.859679 -0.138417 1.332380  -0.099311 0.605539 -0.494814
15  1.719446 -0.000020 0.000028  -0.036810 0.016947 -0.616278
16  1.099675 0.000049 0.000006  -0.003669 0.001393 -1.369679
17  0.587511 -0.753782 1.206786  -0.946963 -0.663736 -0.558319
18  1.789820 -0.000003 -0.000019  0.020877 0.018030 0.740855
19  1.207017 -0.000013 -0.000042  -0.003373 -0.002176 -0.110066
20  5.740637 0.000389 -0.000698  -0.243424 0.000003 0.000063
21  11.481078 0.000257 -0.000791  -0.090906 -0.177487 0.096109
22  6.027525 -0.000330 0.000200  1.521153 -0.242321 1.620931
23  0.000001 11.692101 -0.000006  -0.922363 -0.380449 -0.739277
24  0.000002 0.000010 -0.000000  -0.022880 -0.000031 1.570739
25  0.000002 -0.000012 0.000001  0.868960 0.000002 1.570712
26  -6.617934 -9.178503 0.826812  1.473120 1.855075 -0.198639
27  6.027513 -0.000259 -0.000221  1.520687 0.754196 -0.708472
28  11.691991 0.000160 0.000856  0.141449 0.000073 -1.838268
29  11.479342 -0.000869 0.000956  -1.142175 0.380332 0.886998
30  3.859437 -0.132759 1.193065  0.469647 -0.013262 -1.872395
31  1.312559 0.000025 -0.000002  0.024060 -0.138696 -0.550187
32  0.729345 0.000065 -0.000027  -0.166197 -0.081570 -0.714272
33  3.942047 0.050138 0.431000  0.225309 -0.086237 -1.592712
34  1.539097 0.000005 -0.000001  0.035254 -0.050373 -0.994350
35  1.196300 0.000078 -0.000003  -0.021521 0.002175 -0.839738
36  3.883413 -0.050473 -0.431084  0.184824 -0.271737 -1.204030
37  1.719563 -0.000084 -0.000004  0.022859 -0.107186 -1.509108
38  1.209198 0.000036 0.000011  0.000661 0.071072 -0.480462
39  3.859588 -0.149083 -1.331321  -0.104061 -0.070249 -0.272073
40  1.719415 -0.000098 -0.000035  -0.013177 0.003907 -1.203491
41  1.099674 0.000023 0.000007  -0.005887 -0.007993 -0.771205
42  0.805984 -0.359848 -1.318337  0.991670 0.166767 -0.799527
43  1.789780 -0.000008 -0.000042  0.000058 -0.002451 0.133098
44  1.206996 -0.000007 0.000006  0.000372 -0.000071 1.058780
45  5.740573 0.000080 0.000721  0.172871 -0.000014 0.000028
46  11.480813 -0.000100 0.000936  0.056636 0.083030 0.145713
47  6.027515 -0.000273 -0.000230  -0.909993 -0.521154 -1.709733
48  -0.000001 11.691975 -0.000005  -1.228210 0.673013 0.921106
49  0.000004 -0.000001 -0.000000  2.413977 -0.000036 1.570860
50  -0.000007 -0.000013 0.000005  2.272645 -0.000036 1.570861
51  -3.421425 -3.790452 -6.852079  -0.077675 -2.997129 1.465832
52  0.000000 0.000000 -0.000001  0.008153 -0.000259 0.000009
53  0.000000 -0.000000 0.000000  1.565115 0.043565 -0.106862
54  -0.510412 -15.783641 -4.997836  -0.754169 0.077025 -1.828213
55  0.000000 -0.000000 -0.000000  0.000000 -0.000001 -0.000002
56  0.000030 0.000029 0.000001  -1.571902 -0.044449 -0.106509
57  8.208684 -17.520149 -17.916506  1.570796 -0.000000 0.000000
58  -15.417985 4.000748 -22.641926  1.570796 -0.000000 0.000000
59  1.941978 -0.383090 -8.860325  1.570796 -0.000000 0.000000
60  -0.004311 0.001229 -0.000371  0.006898 -0.005534 -0.284229
61  0.826810 10.209643 -4.879054  1.570796 -0.000000 0.000000
62  0.000000 0.000000 0.000000  -0.078727 -3.136056 0.284226
63  -2.240596 -3.247336 -0.249455  1.570796 -0.000000 0.000000
64  -2.288146 -8.236609 -1.347806  1.571172 -0.000375 0.000144
65  0.002681 -3.204031 0.621195  0.000000 -0.000000 0.000000
66  0.048105 -1.112260 2.845370  0.000000 -0.000000 0.000000
67  -1.184782 0.539746 -0.284905  0.000000 -0.000000 0.000000
68  0.047884 -1.610073 21.020464  0.000000 -0.000000 0.000000
69  0.047881 -3.319714 2.472854  0.000000 -0.000000 0.000000
70  0.172180 -2.040369 3.568006  0.000000 -0.000000 0.000000
71  0.654947 -2.537531 2.477230  0.000000 -0.000000 -0.261799
72  -3.588360 -1.097282 -23.660017  1.570796 -0.000000 0.000000
73  0.017809 1.799356 -0.402361  0.000000 -0.000000 0.000000
74  -2.283455 -12.941454 -5.446749  1.571172 -0.000375 0.000144
75  0.031322 2.100358 -1.138380  0.000000 -0.000000 0.000000
76  -0.024051 1.849583 -1.138377  0.000000 -0.000000 0.000000
time 17
0  0.000006 0.000000 0.000000  -1.570800 -1.391899 -1.570792
1  -8.649605 1.953038 1.937664  -1.544956 -1.855077 -0.198630
2  6.027525 -0.000327 0.000189  -0.502699 -1.323784 -1.725959
3  11.692112 0.000646 -0.000738  -0.891972 -0.000014 -1.320356
4  11.480371 0.000387 -0.000689  0.704577 -0.747210 0.928196
5  3.859508 -0.142824 -1.192078  -0.780612 -0.123962 -1.912387
6  1.312588 0.000010 0.000007  -0.118652 -0.042325 -0.379408
7  0.729355 0.000054 0.000051  0.002599 -0.010829 -0.344657
8  3.942144 0.046333 -0.431544  -0.766922 0.160085 -1.543102
9  1.539108 0.000083 0.000004  -0.028669 -0.057457 -0.680251
10  1.196331 0.000145 0.000032  0.004842 0.001374 -0.728711
11  3.883516 -0.047212 0.431350  -0.446175 0.503317 -1.015794
12  1.719573 -0.000027 0.000018  0.020825 -0.156575 -1.111891
13  1.209180 0.000089 0.000011  -0.000666 -0.001718 -0.566770
14  3.859681 -0.138417 1.332379  -0.099311 0.605539 -0.494814
15  1.719447 -0.000020 0.000029  -0.036810 0.016947 -0.616278
16  1.099675 0.000048 0.000007  -0.003669 0.001393 -1.369679
17  0.587514 -0.753782 1.206786  -0.946963 -0.663736 -0.558319
18  1.789818 -0.000005 -0.000018  0.020877 0.018030 0.740855
19  1.207016 -0.000013 -0.000043  -0.003373 -0.002176 -0.110066
20  5.740636 0.000389 -0.000699  -0.243166 0.000003 0.000064
21  11.481078 0.000256 -0.000791  -0.090908 -0.177339 0.096018
22  6.027525 -0.000330 0.000200  1.520955 -0.242115 1.620839
23  0.000001 11.692102 -0.000007  -0.921790 -0.379963 -0.738880
24  0.000003 0.000009 -0.000001  -0.022880 -0.000031 1.570738
25  0.000001 -0.000012 -0.000000  0.868960 0.000002 1.570712
26  -6.617934 -9.178503 0.826812  1.473120 1.855075 -0.198639
27  6.027513 -0.000259 -0.000221  1.520712 0.754473 -0.708475
28  11.691992 0.000161 0.000857  0.141449 0.000073 -1.837462
29  11.479349 -0.000864 0.000953  -1.142465 0.380389 0.886287
30  3.859437 -0.132758 1.193065  0.469647 -0.013262 -1.872395
31  1.312559 0.000025 -0.000001  0.024060 -0.138696 -0.550187
32  0.729346 0.000065 -0.000027  -0.166197 -0.081570 -0.714272
33  3.942047 0.050139 0.431000  0.225309 -0.086237 -1.592712
34  1.539097 0.000005 -0.000000  0.035254 -0.050373 -0.994350
35  1.196300 0.000078 -0.000004  -0.021521 0.002175 -0.839738
36  3.883414 -0.050472 -0.431084  0.184824 -0.271737 -1.204030
37  1.719564 -0.000084 -0.000005  0.022858 -0.107186 -1.509108
38  1.209197 0.000036 0.000011  0.000661 0.071072 -0.480462
39  3.859589 -0.149083 -1.331321  -0.104061 -0.070249 -0.272073
40  1.719416 -0.000098 -0.000035  -0.013177 0.003907 -1.203491
41  1.099674 0.000023 0.000007  -0.005887 -0.007993 -0.771205
42  0.805984 -0.359847 -1.318338  0.991670 0.166767 -0.799527
43  1.789780 -0.000009 -0.000042  0.000058 -0.002451 0.133097
44  1.206996 -0.000007 0.000005  0.000372 -0.000071 1.058780
45  5.740572 0.000079 0.000721  0.172670 -0.000014 0.000028
46  11.480813 -0.000098 0.000936  0.056599 0.083000 0.145586
47  6.027515 -0.000273 -0.000230  -0.910251 -0.520989 -1.709624
48  -0.000001 11.691976 -0.000006  -1.227734 0.672522 0.920882
49  0.000002 0.000000 0.000000  2.413977 -0.000036 1.570860
50  -0.000008 -0.000014 0.000005  2.272645 -0.000036 1.570861
51  -3.421863 -3.797957 -6.853342  -0.077828 -2.996932 1.465788
52  0.000000 0.000000 0.000000  0.008153 -0.000259 0.000009
53  0.000000 0.000000 -0.000000  1.565115 0.043565 -0.106862
54  -0.511319 -15.791000 -4.997427  -0.754289 0.076806 -1.828287
55  0.000002 -0.000000 -0.000000  0.000000 -0.000001 -0.000002
56  0.000032 0.000028 0.000001  -1.571901 -0.044449 -0.106509
57  8.208684 -17.520149 -17.916506  1.570796 -0.000000 0.000000
58  -15.417985 4.000748 -22.641926  1.570796 -0.000000 0.000000
59  1.941978 -0.383090 -8.860325  1.570796 -0.000000 0.000000
60  -0.004311 0.001229 -0.000371  0.006898 -0.005534 -0.284229
61  0.826810 10.209643 -4.879054  1.570796 -0.000000 0.000000
62  0.000000 0.000000 0.000000  -0.078727 -3.136056 0.284226
63  -2.240596 -3.247336 -0.249455  1.570796 -0.000000 0.000000
64  -2.287933 -8.243193 -1.348459  1.570991 -0.000204 0.000078
65  0.002680 -3.204031 0.621197  0.000000 0.000000 -0.000000
66  0.048105 -1.112260 2.845372  0.000000 0.000000 -0.000000
67  -1.184783 0.539746 -0.284904  0.000000 0.000000 -0.000000
68  0.047883 -1.610073 21.020466  0.000000 0.000000 -0.000000
69  0.047881 -3.319714 2.472855  0.000000 0.000000 -0.000000
70  0.172180 -2.040368 3.568007  0.000000 0.000000 -0.000000
71  0.654947 -2.537531 2.477230  0.000000 -0.000000 -0.261799
72  -3.588360 -1.097282 -23.660017  1.570796 -0.000000 0.000000
73  0.017809 1.799356 -0.402361  0.000000 -0.000000 0.000000
74  -2.284252 -12.948780 -5.446550  1.570991 -0.000204 0.000078
75  0.031323 2.100358 -1.138379  0.000000 0.000000 -0.000000
76  -0.024051 1.849582 -1.138377  0.000000 0.000000 -0.000000
time 18
0  0.000006 0.000000 0.000000  -1.570800 -1.391899 -1.570792
1  -8.649605 1.953038 1.937664  -1.544956 -1.855077 -0.198630
2  6.027525 -0.000327 0.000189  -0.502013 -1.323900 -1.726719
3  11.692112 0.000646 -0.000739  -0.891972 -0.000014 -1.319678
4  11.480372 0.000390 -0.000685  0.705069 -0.746934 0.927416
5  3.859505 -0.142823 -1.192078  -0.780612 -0.123962 -1.912387
6  1.312589 0.000010 0.000006  -0.118652 -0.042324 -0.379408
7  0.729353 0.000055 0.000052  0.002599 -0.010829 -0.344657
8  3.942142 0.046334 -0.431544  -0.766922 0.160085 -1.543102
9  1.539109 0.000083 0.000004  -0.028669 -0.057457 -0.680251
10  1.196332 0.000146 0.000032  0.004842 0.001374 -0.728711
11  3.883512 -0.047211 0.431351  -0.446175 0.503317 -1.015794
12  1.719573 -0.000027 0.000017  0.020825 -0.156575 -1.111891
13  1.209179 0.000089 0.000012  -0.000666 -0.001718 -0.566770
14  3.859678 -0.138416 1.332380  -0.099311 0.605539 -0.494814
15  1.719447 -0.000020 0.000029  -0.036809 0.016947 -0.616278
16  1.099676 0.000048 0.000007  -0.003669 0.001393 -1.369679
17  0.587511 -0.753781 1.206787  -0.946963 -0.663737 -0.558319
18  1.789818 -0.000004 -0.000018  0.020877 0.018030 0.740855
19  1.207016 -0.000013 -0.000043  -0.003373 -0.002176 -0.110066
20  5.740634 0.000389 -0.000700  -0.242983 0.000003 0.000063
21  11.481077 0.000258 -0.000790  -0.090913 -0.177231 0.095948
22  6.027525 -0.000330 0.000200  1.520811 -0.241968 1.620779
23  0.000000 11.692102 -0.000007  -0.921377 -0.379614 -0.738595
24  0.000003 0.000009 0.000000  -0.022880 -0.000031 1.570738
25  0.000001 -0.000012 0.000000  0.868960 0.000002 1.570712
26  -6.617934 -9.178503 0.826812  1.473120 1.855075 -0.198639
27  6.027513 -0.000259 -0.000221  1.520725 0.754664 -0.708479
28  11.691992 0.000161 0.000857  0.141449 0.000073 -1.836885
29  11.479355 -0.000863 0.000954  -1.142696 0.380442 0.885762
30  3.859437 -0.132758 1.193064  0.469647 -0.013262 -1.872395
31  1.312559 0.000025 -0.000001  0.024060 -0.138696 -0.550187
32  0.729346 0.000065 -0.000027  -0.166197 -0.081570 -0.714273
33  3.942046 0.050139 0.430999  0.225309 -0.086237 -1.592712
34  1.539097 0.000005 -0.000001  0.035254 -0.050373 -0.994350
35  1.196300 0.000077 -0.000003  -0.021521 0.002175 -0.839738
36  3.883414 -0.050472 -0.431085  0.184824 -0.271737 -1.204030
37  1.719563 -0.000085 -0.000004  0.022859 -0.107186 -1.509108
38  1.209197 0.000035 0.000010  0.000661 0.071072 -0.480462
39  3.859589 -0.149083 -1.331322  -0.104061 -0.070249 -0.272073
40  1.719414 -0.000098 -0.000035  -0.013177 0.003907 -1.203491
41  1.099674 0.000022 0.000007  -0.005887 -0.007993 -0.771205
42  0.805984 -0.359848 -1.318339  0.991670 0.166767 -0.799527
43  1.789779 -0.000008 -0.000042  0.000058 -0.002451 0.133098
44  1.206997 -0.000007 0.000005  0.000372 -0.000071 1.058780
45  5.740575 0.000078 0.000720  0.172519 -0.000014 0.000028
46  11.480816 -0.000099 0.000936  0.056568 0.082979 0.145492
47  6.027515 -0.000273 -0.000230  -0.910431 -0.520877 -1.709548
48  -0.000003 11.691976 -0.000006  -1.227393 0.672172 0.920722
49  0.000002 0.000002 -0.000001  2.413977 -0.000036 1.570860
50  -0.000008 -0.000013 0.000005  2.272645 -0.000036 1.570861
51  -3.422195 -3.803318 -6.854345  -0.077958 -2.996778 1.465752
52  0.000000 0.000000 0.000001  0.008153 -0.000259 0.000009
53  0.000000 -0.000000 -0.000001  1.565115 0.043565 -0.106862
54  -0.512044 -15.796263 -4.997176  -0.754392 0.076635 -1.828350
55  0.000001 -0.000000 -0.000000  0.000000 -0.000001 -0.000002
56  0.000032 0.000029 0.000001  -1.571902 -0.044449 -0.106509
57  8.208684 -17.520149 -17.916506  1.570796 -0.000000 0.000000
58  -15.417985 4.000748 -22.641926  1.570796 -0.000000 0.000000
59  1.941978 -0.383090 -8.860325  1.570796 -0.000000 0.000000
60  -0.004311 0.001229 -0.000371  0.006898 -0.005534 -0.284229
61  0.826810 10.209643 -4.879054  1.570796 -0.000000 0.000000
62  0.000000 0.000000 0.000000  -0.078727 -3.136056 0.284226
63  -2.240596 -3.247336 -0.249455  1.570796 -0.000000 0.000000
64  -2.287720 -8.247849 -1.349006  1.570852 -0.000060 0.000023
65  0.002681 -3.204031 0.621196  0.000000 0.000000 0.000000
66  0.048105 -1.112260 2.845371  0.000000 0.000000 0.000000
67  -1.184782 0.539746 -0.284905  0.000000 0.000000 0.000000
68  0.047884 -1.610073 21.020464  0.000000 0.000000 0.000000
69  0.047881 -3.319714 2.472854  0.000000 0.000000 0.000000
70  0.172180 -2.040368 3.568007  0.000000 0.000000 0.000000
71  0.654947 -2.537531 2.477230  0.000000 -0.000000 -0.261799
72  -3.588360 -1.097282 -23.660017  1.570796 -0.000000 0.000000
73  0.017809 1.799356 -0.402361  0.000000 -0.000000 0.000000
74  -2.284885 -12.954006 -5.446442  1.570852 -0.000060 0.000023
75  0.031323 2.100358 -1.138380  0.000000 0.000000 0.000000
76  -0.024051 1.849582 -1.138378  0.000000 0.000000 0.000000
time 19
0  0.000006 0.000000 0.000000  -1.570800 -1.391899 -1.570792
1  -8.649605 1.953038 1.937664  -1.544956 -1.855077 -0.198630
2  6.027525 -0.000327 0.000189  -0.501747 -1.323944 -1.727012
3  11.692112 0.000646 -0.000738  -0.891972 -0.000014 -1.319418
4  11.480377 0.000390 -0.000686  0.705256 -0.746827 0.927112
5  3.859507 -0.142824 -1.192078  -0.780612 -0.123962 -1.912387
6  1.312589 0.000010 0.000006  -0.118652 -0.042324 -0.379408
7  0.729353 0.000054 0.000051  0.002599 -0.010829 -0.344657
8  3.942144 0.046333 -0.431544  -0.766922 0.160085 -1.543102
9  1.539108 0.000081 0.000002  -0.028669 -0.057457 -0.680251
10  1.196331 0.000145 0.000029  0.004842 0.001374 -0.728711
11  3.883513 -0.047212 0.431351  -0.446175 0.503317 -1.015794
12  1.719573 -0.000027 0.000019  0.020825 -0.156575 -1.111891
13  1.209178 0.000088 0.000015  -0.000666 -0.001718 -0.566770
14  3.859680 -0.138417 1.332380  -0.099311 0.605538 -0.494814
15  1.719448 -0.000020 0.000030  -0.036809 0.016947 -0.616278
16  1.099676 0.000051 0.000008  -0.003669 0.001393 -1.369679
17  0.587513 -0.753782 1.206787  -0.946963 -0.663736 -0.558319
18  1.789819 -0.000003 -0.000018  0.020877 0.018030 0.740855
19  1.207017 -0.000013 -0.000043  -0.003373 -0.002176 -0.110066
20  5.740637 0.000388 -0.000700  -0.242913 0.000003 0.000063
21  11.481079 0.000258 -0.000790  -0.090916 -0.177189 0.095921
22  6.027525 -0.000330 0.000200  1.520754 -0.241912 1.620757
23  0.000001 11.692101 -0.000006  -0.921219 -0.379481 -0.738486
24  0.000003 0.000008 0.000001  -0.022880 -0.000031 1.570739
25  0.000002 -0.000012 0.000001  0.868960 0.000002 1.570712
26  -6.617934 -9.178503 0.826812  1.473120 1.855075 -0.198639
27  6.027513 -0.000259 -0.000221  1.520730 0.754736 -0.708481
28  11.691992 0.000161 0.000857  0.141449 0.000072 -1.836665
29  11.479355 -0.000861 0.000954  -1.142790 0.380466 0.885558
30  3.859437 -0.132758 1.193066  0.469647 -0.013262 -1.872395
31  1.312559 0.000026 -0.000001  0.024060 -0.138696 -0.550187
32  0.729344 0.000065 -0.000026  -0.166197 -0.081570 -0.714272
33  3.942046 0.050139 0.431001  0.225309 -0.086237 -1.592712
34  1.539096 0.000005 -0.000001  0.035254 -0.050373 -0.994350
35  1.196300 0.000078 -0.000003  -0.021521 0.002175 -0.839738
36  3.883414 -0.050472 -0.431084  0.184824 -0.271737 -1.204030
37  1.719563 -0.000085 -0.000005  0.022859 -0.107186 -1.509108
38  1.209198 0.000035 0.000012  0.000661 0.071072 -0.480462
39  3.859588 -0.149083 -1.331320  -0.104061 -0.070249 -0.272073
40  1.719415 -0.000098 -0.000035  -0.013177 0.003907 -1.203491
41  1.099674 0.000021 0.000007  -0.005887 -0.007993 -0.771205
42  0.805984 -0.359848 -1.318338  0.991670 0.166767 -0.799527
43  1.789780 -0.000008 -0.000043  0.000058 -0.002451 0.133098
44  1.206996 -0.000007 0.000005  0.000372 -0.000071 1.058780
45  5.740571 0.000079 0.000721  0.172460 -0.000014 0.000028
46  11.480814 -0.000098 0.000936  0.056555 0.082971 0.145456
47  6.027515 -0.000273 -0.000230  -0.910498 -0.520836 -1.709520
48  -0.000000 11.691973 -0.000005  -1.227263 0.672038 0.920661
49  0.000002 -0.000002 0.000001  2.413977 -0.000036 1.570860
50  -0.000006 -0.000014 0.000005  2.272645 -0.000036 1.570861
51  -3.422328 -3.805365 -6.854754  -0.078012 -2.996716 1.465737
52  0.000000 -0.000000 0.000000  0.008153 -0.000259 0.000009
53  0.000000 -0.000000 0.000001  1.565115 0.043565 -0.106862
54  -0.512341 -15.798273 -4.997092  -0.754436 0.076566 -1.828377
55  0.000001 -0.000001 -0.000000  0.000000 -0.000001 -0.000002
56  0.000032 0.000028 0.000001  -1.571901 -0.044449 -0.106509
57  8.208684 -17.520149 -17.916506  1.570796 -0.000000 0.000000
58  -15.417985 4.000748 -22.641926  1.570796 -0.000000 0.000000
59  1.941978 -0.383090 -8.860325  1.570796 -0.000000 0.000000
60  -0.004311 0.001229 -0.000371  0.006898 -0.005534 -0.284229
61  0.826810 10.209643 -4.879054  1.570796 -0.000000 0.000000
62  0.000000 0.000000 0.000000  -0.078727 -3.136056 0.284226
63  -2.240596 -3.247336 -0.249455  1.570796 -0.000000 0.000000
64  -2.287624 -8.249615 -1.349235  1.570796 0.000000 0.000000
65  0.002681 -3.204031 0.621196  0.000000 -0.000000 0.000000
66  0.048105 -1.112260 2.845371  0.000000 -0.000000 0.000000
67  -1.184782 0.539746 -0.284904  0.000000 -0.000000 0.000000
68  0.047884 -1.610073 21.020466  0.000000 -0.000000 0.000000
69  0.047881 -3.319714 2.472855  0.000000 -0.000000 0.000000
70  0.172180 -2.040368 3.568007  0.000000 -0.000000 0.000000
71  0.654947 -2.537531 2.477230  0.000000 -0.000000 -0.261799
72  -3.588360 -1.097282 -23.660017  1.570796 -0.000000 0.000000
73  0.017809 1.799356 -0.402361  0.000000 -0.000000 0.000000
74  -2.285144 -12.956001 -5.446409  1.570796 0.000000 0.000000
75  0.031323 2.100358 -1.138380  0.000000 -0.000000 0.000000
76  -0.024051 1.849582 -1.138377  0.000000 -0.000000 0.000000
end
