version 1
nodes
0 "ValveBiped.Bip01_Spine4" -1
1 "ValveBiped.Bip01_L_Clavicle" 0
2 "ValveBiped.Bip01_L_UpperArm" 1
3 "ValveBiped.Bip01_L_Forearm" 2
4 "ValveBiped.Bip01_L_Hand" 3
5 "ValveBiped.Bip01_L_Finger4" 4
6 "ValveBiped.Bip01_L_Finger41" 5
7 "ValveBiped.Bip01_L_Finger42" 6
8 "ValveBiped.Bip01_L_Finger3" 4
9 "ValveBiped.Bip01_L_Finger31" 8
10 "ValveBiped.Bip01_L_Finger32" 9
11 "ValveBiped.Bip01_L_Finger2" 4
12 "ValveBiped.Bip01_L_Finger21" 11
13 "ValveBiped.Bip01_L_Finger22" 12
14 "ValveBiped.Bip01_L_Finger1" 4
15 "ValveBiped.Bip01_L_Finger11" 14
16 "ValveBiped.Bip01_L_Finger12" 15
17 "ValveBiped.Bip01_L_Finger0" 4
18 "ValveBiped.Bip01_L_Finger01" 17
19 "ValveBiped.Bip01_L_Finger02" 18
20 "ValveBiped.Bip01_L_Ulna" 3
21 "ValveBiped.Bip01_L_Wrist" 3
22 "rig_l_upperarm" 1
23 "rig_l_forearm" 22
24 "rig_d_l_forearm" 23
25 "rig_d_l_upperarm" 22
26 "ValveBiped.Bip01_R_Clavicle" 0
27 "ValveBiped.Bip01_R_UpperArm" 26
28 "ValveBiped.Bip01_R_Forearm" 27
29 "ValveBiped.Bip01_R_Hand" 28
30 "ValveBiped.Bip01_R_Finger4" 29
31 "ValveBiped.Bip01_R_Finger41" 30
32 "ValveBiped.Bip01_R_Finger42" 31
33 "ValveBiped.Bip01_R_Finger3" 29
34 "ValveBiped.Bip01_R_Finger31" 33
35 "ValveBiped.Bip01_R_Finger32" 34
36 "ValveBiped.Bip01_R_Finger2" 29
37 "ValveBiped.Bip01_R_Finger21" 36
38 "ValveBiped.Bip01_R_Finger22" 37
39 "ValveBiped.Bip01_R_Finger1" 29
40 "ValveBiped.Bip01_R_Finger11" 39
41 "ValveBiped.Bip01_R_Finger12" 40
42 "ValveBiped.Bip01_R_Finger0" 29
43 "ValveBiped.Bip01_R_Finger01" 42
44 "ValveBiped.Bip01_R_Finger02" 43
45 "ValveBiped.Bip01_R_Ulna" 28
46 "ValveBiped.Bip01_R_Wrist" 28
47 "rig_r_upperarm" 26
48 "rig_r_forearm" 47
49 "rig_d_r_forearm" 48
50 "rig_d_r_upperarm" 47
51 "rig_r_hand" -1
52 "rig_d_r_hand" 51
53 "rig_d_r_wrist" 52
54 "rig_l_hand" -1
55 "rig_d_l_hand" 54
56 "rig_d_l_wrist" 54
57 "rig_l_pole" -1
58 "rig_r_pole" -1
59 "rig_l_clavicle" -1
60 "rig_d_l_clavicle" 59
61 "rig_r_clavicle" -1
62 "rig_d_r_clavicle" 61
63 "Camera" -1
64 "body" -1
65 "trigger" 64
66 "bolt" 64
67 "barrel" 64
68 "magrel" 64
69 "chandle" 64
70 "chandleb" 69
71 "mag" -1
72 "bullet1" 71
73 "bullet2" 71
74 "bullet3" 71
end
skeleton
time 0
0  0.000006 0.000000 0.000000  -1.570800 -1.391899 -1.570792
1  -3.518106 3.420410 -1.527451  -1.544956 -1.855077 -0.198630
2  6.027521 -0.000325 0.000193  -1.113284 -0.941774 -1.091687
3  11.692108 0.000644 -0.000739  -1.032250 -0.000023 -1.515614
4  11.480338 0.000444 -0.000685  1.015981 -0.658441 0.362202
5  3.859507 -0.142880 -1.192051  -0.778167 0.068914 -1.502592
6  1.312590 0.000010 0.000003  -0.135303 -0.037646 -0.288696
7  0.729358 0.000053 0.000045  0.004037 -0.012462 -0.362678
8  3.942140 0.046273 -0.431512  -0.693770 0.356114 -1.201512
9  1.539109 0.000085 0.000004  -0.032365 -0.079699 -0.453688
10  1.196334 0.000148 0.000029  0.008153 0.002732 -0.748207
11  3.883506 -0.047268 0.431381  -0.322019 0.643539 -0.630599
12  1.719574 -0.000026 0.000018  -0.033238 -0.086003 -0.823515
13  1.209181 0.000091 0.000013  -0.007835 -0.002562 -0.650932
14  3.859663 -0.138476 1.332409  0.166016 0.722762 -0.052368
15  1.719447 -0.000012 0.000021  -0.036329 0.033056 -0.412619
16  1.099674 0.000045 0.000003  -0.004181 0.004116 -1.256705
17  0.720889 -1.421159 1.005924  -0.760907 -0.593476 -0.498366
18  1.789824 -0.000002 -0.000017  0.022880 0.030024 0.834449
19  1.207013 -0.000014 -0.000045  -0.004342 -0.003284 -0.117962
20  5.740637 0.000411 -0.000703  -0.151181 0.000003 0.000070
21  11.481076 0.000302 -0.000795  -0.077982 -0.125238 0.022291
22  6.027525 -0.000330 0.000203  1.853992 -0.569630 1.555030
23  0.000003 11.692100 -0.000007  -1.038709 -0.484625 -0.816075
24  0.000003 0.000008 -0.000002  -0.163150 -0.000031 1.570739
25  -0.000000 -0.000012 -0.000001  0.868957 0.000002 1.570712
26  -4.645759 -6.650901 2.046262  1.473120 1.855075 -0.198639
27  6.027508 -0.000259 -0.000230  1.507344 0.510597 -0.606578
28  11.691990 0.000243 0.000857  0.245672 0.000077 -1.906529
29  11.478743 -0.001148 0.001136  -1.283313 0.523991 0.723594
30  3.840240 -0.256105 1.127580  0.375755 0.017196 -2.109855
31  1.312559 0.000026 -0.000001  -0.016738 -0.067215 -0.358753
32  0.729345 0.000066 -0.000027  0.010499 -0.002285 -1.003069
33  3.942047 0.050109 0.430996  0.318069 -0.062504 -1.724927
34  1.539097 0.000011 -0.000001  0.007072 -0.088740 -0.961961
35  1.196299 0.000076 -0.000004  0.008893 -0.001311 -1.206604
36  3.883412 -0.050502 -0.431088  0.154352 -0.157823 -1.573639
37  1.719563 -0.000079 -0.000003  -0.024403 -0.068048 -1.595299
38  1.209198 0.000036 0.000012  0.007422 -0.002547 -0.459485
39  3.806437 -0.112148 -1.295330  0.048500 -0.205491 -0.235932
40  1.719412 -0.000100 -0.000034  0.043933 0.082624 -1.220984
41  1.099674 0.000025 0.000007  -0.008025 -0.001772 -0.654771
42  0.805979 -0.359854 -1.318339  1.330199 0.197557 -0.619517
43  1.789779 -0.000009 -0.000042  0.032550 0.123016 0.037179
44  1.206997 -0.000005 0.000005  0.000293 -0.001887 1.285959
45  5.740571 0.000055 0.000723  0.096366 -0.000014 0.000021
46  11.480692 -0.000194 0.000977  0.024878 0.097077 0.115372
47  6.027514 -0.000273 -0.000236  -0.660366 -0.649048 -1.738541
48  -0.000001 11.691971 -0.000006  -1.268747 0.714817 0.939260
49  0.000003 -0.000001 -0.000000  2.518197 -0.000041 1.570856
50  -0.000007 -0.000015 0.000005  2.272644 -0.000030 1.570865
51  -3.857683 -5.809970 -7.745982  -0.219488 -2.992152 1.396611
52  -0.000000 -0.000000 0.000000  0.008153 -0.000259 0.000009
53  0.000000 -0.000000 -0.000000  1.565115 0.043565 -0.106862
54  -1.032081 -18.751493 -5.779789  -0.942805 -0.063753 -1.844146
55  -0.000000 -0.000000 0.000000  0.000000 -0.000000 -0.000002
56  0.000029 0.000029 0.000001  -1.571901 -0.044449 -0.106509
57  8.666351 -12.971641 -17.721577  1.570796 -0.000000 0.000000
58  -15.265000 7.133661 -18.583086  1.570796 -0.000000 0.000000
59  -1.523137 -2.740167 -4.071830  1.570796 -0.000000 0.000000
60  -0.004311 0.001230 -0.000371  0.006898 -0.005534 -0.284229
61  2.046263 7.371444 -3.388127  1.570796 -0.000000 0.000000
62  0.000000 0.000000 0.000000  -0.078727 -3.136056 0.284226
63  0.000000 0.000000 0.000000  1.570796 -0.000000 0.000000
64  -3.054910 -14.063125 -3.170850  1.549086 0.053723 0.014481
65  -0.005933 -2.262813 -2.946503  -0.000000 0.000000 0.000000
66  -0.007405 -0.385017 0.112676  -0.000000 0.000000 0.000000
67  -0.007403 -0.398124 12.763615  -0.000000 0.000000 0.000000
68  -0.007406 -3.312297 -1.336580  -0.000000 0.000000 0.000000
69  -0.005934 0.810492 1.247788  -0.000000 0.000000 0.000000
70  0.000002 0.037559 1.926313  -0.000000 0.000000 0.000000
71  -3.228184 -14.597383 -6.116866  1.549086 0.053723 0.014481
72  0.184183 1.994351 -0.809968  -0.000000 0.000000 0.000000
73  -0.114187 1.780464 -0.801674  -0.000000 0.000000 0.000000
74  0.076510 1.501416 -0.809968  -0.000000 0.000000 0.000000
time 1
0  0.000006 0.000000 0.000000  -1.570800 -1.391899 -1.570792
1  -3.617857 3.465349 -1.450633  -1.544956 -1.855077 -0.198630
2  6.027520 -0.000324 0.000193  -1.159645 -0.956950 -1.088631
3  11.692110 0.000644 -0.000739  -1.028302 -0.000023 -1.504448
4  11.480428 0.000472 -0.000636  1.081061 -0.746406 0.510032
5  3.859506 -0.142880 -1.192050  -0.617395 0.229382 -1.045977
6  1.312589 0.000012 0.000005  -0.068583 -0.015432 -0.189911
7  0.729357 0.000053 0.000048  0.001297 -0.006461 -0.128560
8  3.942137 0.046273 -0.431512  -0.378701 0.290758 -0.808520
9  1.539110 0.000087 0.000002  -0.021748 -0.037578 -0.175944
10  1.196335 0.000143 0.000028  0.004314 0.000688 -0.414564
11  3.883505 -0.047268 0.431381  -0.071583 0.335997 -0.388013
12  1.719577 -0.000028 0.000018  -0.025012 -0.036874 -0.420200
13  1.209180 0.000092 0.000012  -0.003933 0.001052 -0.258803
14  3.859660 -0.138476 1.332410  0.230953 0.279449 -0.112305
15  1.719450 -0.000013 0.000023  -0.015985 0.020326 -0.212725
16  1.099675 0.000042 0.000002  -0.001350 0.004169 -0.576186
17  0.720887 -1.421158 1.005925  -0.995489 -0.573065 -0.638719
18  1.789826 -0.000000 -0.000015  0.008254 0.020903 0.380709
19  1.207009 -0.000012 -0.000046  -0.002568 -0.001710 -0.069109
20  5.740638 0.000411 -0.000701  -0.130207 0.000003 0.000071
21  11.481092 0.000307 -0.000785  -0.052850 -0.144148 0.049866
22  6.027524 -0.000329 0.000202  1.872738 -0.543073 1.510487
23  0.000001 11.692099 -0.000007  -1.032103 -0.478426 -0.811926
24  0.000003 0.000008 -0.000001  -0.159202 -0.000031 1.570739
25  -0.000001 -0.000011 -0.000001  0.868957 0.000002 1.570712
26  -4.728846 -6.636590 1.957943  1.473120 1.855075 -0.198639
27  6.027508 -0.000258 -0.000229  1.532202 0.503087 -0.599069
28  11.691990 0.000244 0.000856  0.243362 0.000075 -1.878385
29  11.478992 -0.001031 0.001104  -1.289944 0.494300 0.689851
30  3.840239 -0.256103 1.127580  0.406972 -0.281773 -0.608989
31  1.312558 0.000027 -0.000000  -0.000002 -0.000045 -0.148961
32  0.729346 0.000064 -0.000028  -0.000028 -0.000012 0.046463
33  3.942045 0.050109 0.430996  0.121277 -0.118787 -0.520714
34  1.539096 0.000010 -0.000001  0.000007 -0.000010 0.042929
35  1.196299 0.000076 -0.000003  -0.000009 -0.000006 -0.140034
36  3.883410 -0.050502 -0.431087  -0.089865 -0.000690 -0.298025
37  1.719563 -0.000079 -0.000004  -0.002289 -0.007626 -0.075726
38  1.209198 0.000036 0.000011  -0.001276 -0.004274 0.074338
39  3.806436 -0.112147 -1.295330  -0.330197 0.136798 -0.257131
40  1.719414 -0.000100 -0.000034  -0.001915 -0.006300 -0.072277
41  1.099673 0.000024 0.000007  -0.001196 -0.004013 0.046405
42  0.805978 -0.359854 -1.318339  1.079795 0.646453 -0.910435
43  1.789780 -0.000009 -0.000042  0.011965 0.001552 -0.110981
44  1.206996 -0.000007 0.000005  0.005321 0.005317 0.007332
45  5.740571 0.000055 0.000724  0.092764 -0.000014 0.000021
46  11.480742 -0.000171 0.000971  0.027025 0.090603 0.110271
47  6.027514 -0.000273 -0.000236  -0.640615 -0.632374 -1.754906
48  -0.000000 11.691974 -0.000006  -1.251987 0.697516 0.931966
49  0.000004 -0.000001 -0.000000  2.515888 -0.000041 1.570856
50  -0.000006 -0.000015 0.000004  2.272644 -0.000030 1.570865
51  -4.355198 -6.051780 -7.917513  -0.219488 -2.992152 1.396611
52  -0.000001 0.000000 -0.000001  0.008153 -0.000259 0.000009
53  -0.000001 -0.000000 -0.000001  1.565115 0.043565 -0.106862
54  -0.549480 -18.994457 -5.467978  -0.808046 0.053038 -1.768926
55  -0.000001 0.000000 0.000000  0.000000 -0.000000 -0.000002
56  0.000030 0.000029 0.000001  -1.571901 -0.044449 -0.106509
57  8.785980 -12.969495 -18.048813  1.570796 -0.000000 0.000000
58  -15.268392 7.040666 -18.687954  1.570796 -0.000000 0.000000
59  -1.446318 -2.766639 -4.177987  1.570796 -0.000000 0.000000
60  -0.004311 0.001230 -0.000371  0.006898 -0.005534 -0.284229
61  1.957945 7.372145 -3.472434  1.570796 -0.000000 0.000000
62  0.000000 0.000000 0.000000  -0.078727 -3.136056 0.284226
63  0.000000 0.000000 0.000000  1.568900 0.001131 -0.001158
64  -2.981973 -14.735292 -3.041185  1.549696 0.052219 0.058090
65  -0.005933 -2.262813 -2.946503  0.000000 0.000000 0.000000
66  -0.007405 -0.385017 0.112678  0.000000 0.000000 0.000000
67  -0.007403 -0.398124 12.763615  0.000000 0.000000 0.000000
68  -0.007405 -3.312297 -1.336578  0.000000 0.000000 0.000000
69  -0.005934 0.810493 1.247791  0.000000 0.000000 0.000000
70  0.000002 0.037559 1.926313  0.000000 0.000000 0.000000
71  -3.127491 -15.274544 -5.987792  1.549696 0.052219 0.058090
72  0.184183 1.994350 -0.809969  0.000000 0.000000 0.000000
73  -0.114187 1.780464 -0.801676  0.000000 0.000000 0.000000
74  0.076510 1.501416 -0.809969  0.000000 0.000000 0.000000
time 2
0  0.000006 0.000000 0.000000  -1.570800 -1.391899 -1.570792
1  -3.918069 3.600600 -1.219441  -1.544956 -1.855077 -0.198630
2  6.027521 -0.000325 0.000194  -1.197667 -0.910594 -1.070516
3  11.692107 0.000643 -0.000741  -1.016370 -0.000025 -1.539048
4  11.480149 0.000372 -0.000793  1.385338 -0.827215 0.379908
5  3.859504 -0.142881 -1.192050  -0.394539 0.299157 -0.554440
6  1.312590 0.000012 0.000004  -0.000009 0.000051 -0.089883
7  0.729359 0.000052 0.000045  0.000023 0.000013 0.105537
8  3.942140 0.046273 -0.431512  -0.117741 0.120704 -0.462798
9  1.539110 0.000087 0.000002  0.000000 0.000022 0.102014
10  1.196334 0.000147 0.000030  0.000017 0.000014 -0.080915
11  3.883503 -0.047269 0.431381  0.088183 -0.008874 -0.239400
12  1.719573 -0.000029 0.000018  0.001905 0.005179 -0.016672
13  1.209181 0.000092 0.000012  0.001063 0.002903 0.133420
14  3.859660 -0.138476 1.332410  0.320600 -0.159664 -0.200164
15  1.719450 -0.000012 0.000024  0.001423 0.003814 -0.013163
16  1.099678 0.000042 0.000002  0.000887 0.002421 0.105475
17  0.720886 -1.421159 1.005924  -1.226120 -0.596311 -0.787079
18  1.789825 -0.000001 -0.000015  -0.000740 0.005137 -0.073161
19  1.207010 -0.000014 -0.000045  -0.000595 -0.000176 0.013480
20  5.740638 0.000410 -0.000703  -0.082940 0.000003 0.000071
21  11.481037 0.000285 -0.000816  -0.002438 -0.147794 0.045941
22  6.027525 -0.000330 0.000203  1.924664 -0.569831 1.470595
23  0.000000 11.692099 -0.000008  -1.052549 -0.497714 -0.824676
24  0.000003 0.000007 -0.000002  -0.147269 -0.000031 1.570739
25  -0.000001 -0.000012 -0.000001  0.868957 0.000002 1.570712
26  -4.978902 -6.593514 1.692140  1.473120 1.855075 -0.198639
27  6.027507 -0.000257 -0.000231  1.543686 0.385013 -0.602925
28  11.691990 0.000243 0.000856  0.236410 0.000078 -1.924361
29  11.478585 -0.001233 0.001143  -1.302489 0.444830 0.610551
30  3.840239 -0.256103 1.127580  0.406972 -0.281772 -0.608989
31  1.312560 0.000026 0.000001  -0.000002 -0.000045 -0.148961
32  0.729346 0.000067 -0.000028  -0.000028 -0.000012 0.046463
33  3.942046 0.050109 0.430997  0.121277 -0.118787 -0.520714
34  1.539097 0.000010 0.000000  0.000007 -0.000010 0.042929
35  1.196298 0.000075 -0.000004  -0.000009 -0.000006 -0.140034
36  3.883411 -0.050502 -0.431087  -0.089865 -0.000690 -0.298025
37  1.719563 -0.000079 -0.000004  -0.002289 -0.007626 -0.075726
38  1.209197 0.000035 0.000011  -0.001276 -0.004274 0.074338
39  3.806436 -0.112148 -1.295329  -0.330197 0.136798 -0.257131
40  1.719412 -0.000100 -0.000035  -0.001915 -0.006300 -0.072277
41  1.099674 0.000025 0.000007  -0.001196 -0.004013 0.046405
42  0.805979 -0.359854 -1.318338  1.079795 0.646453 -0.910435
43  1.789780 -0.000010 -0.000043  0.011965 0.001552 -0.110981
44  1.206997 -0.000007 0.000005  0.005321 0.005317 0.007332
45  5.740572 0.000056 0.000723  0.082790 -0.000014 0.000021
46  11.480661 -0.000210 0.000978  0.030589 0.079318 0.097086
47  6.027514 -0.000272 -0.000236  -0.497675 -0.665377 -1.850187
48  -0.000001 11.691973 -0.000008  -1.279411 0.725826 0.943738
49  0.000003 0.000001 0.000000  2.508936 -0.000041 1.570856
50  -0.000006 -0.000015 0.000005  2.272644 -0.000030 1.570865
51  -5.480450 -5.348773 -8.957803  -0.215357 -2.998368 1.418257
52  0.000000 -0.000000 0.000001  0.008153 -0.000259 0.000009
53  -0.000000 -0.000000 -0.000000  1.565115 0.043565 -0.106862
54  0.139273 -18.923075 -6.144315  -0.606943 0.000194 -1.638702
55  -0.000000 -0.000000 -0.000000  0.000000 -0.000000 -0.000002
56  0.000031 0.000029 0.000000  -1.571901 -0.044449 -0.106509
57  9.146015 -12.963033 -19.033657  1.570796 -0.000000 0.000000
58  -15.278599 6.760788 -19.003559  1.570796 -0.000000 0.000000
59  -1.215126 -2.846309 -4.497474  1.570796 -0.000000 0.000000
60  -0.004311 0.001230 -0.000371  0.006898 -0.005534 -0.284229
61  1.692142 7.374253 -3.726164  1.570796 -0.000000 0.000000
62  0.000000 0.000000 0.000000  -0.078727 -3.136056 0.284226
63  0.000000 0.000000 0.000000  1.565375 0.003226 -0.003314
64  -2.784001 -16.559746 -2.689237  1.551350 0.048138 0.176447
65  -0.005933 -2.262812 -2.946504  -0.000000 0.000000 -0.000000
66  -0.007405 -0.385017 0.112676  -0.000000 0.000000 -0.000000
67  -0.007403 -0.398124 12.763617  -0.000000 0.000000 -0.000000
68  -0.007405 -3.312297 -1.336578  -0.000000 0.000000 -0.000000
69  -0.005933 0.810493 1.247787  -0.000000 0.000000 -0.000000
70  0.000002 0.037559 1.926311  -0.000000 0.000000 -0.000000
71  -2.853883 -17.105497 -5.637413  1.551350 0.048138 0.176447
72  0.184183 1.994350 -0.809972  -0.000000 0.000000 -0.000000
73  -0.114187 1.780463 -0.801677  -0.000000 0.000000 -0.000000
74  0.076510 1.501415 -0.809972  -0.000000 0.000000 -0.000000
time 3
0  0.000006 0.000000 0.000000  -1.570800 -1.391899 -1.570792
1  -4.406196 3.820508 -0.843537  -1.544956 -1.855077 -0.198630
2  6.027520 -0.000323 0.000195  -1.308185 -0.749045 -1.002549
3  11.692107 0.000645 -0.000739  -0.996800 -0.000030 -1.617628
4  11.479558 0.000167 -0.001091  1.990860 -0.715280 0.093784
5  3.859503 -0.142881 -1.192049  -0.399397 0.292475 -0.571101
6  1.312587 0.000010 0.000003  -0.000010 0.000051 -0.105683
7  0.729354 0.000050 0.000045  0.000023 0.000014 0.089737
8  3.942138 0.046273 -0.431511  -0.119805 0.118657 -0.480081
9  1.539108 0.000087 0.000002  0.000000 0.000022 0.086214
10  1.196334 0.000148 0.000030  0.000017 0.000014 -0.096716
11  3.883504 -0.047269 0.431381  0.088322 -0.007350 -0.256615
12  1.719573 -0.000029 0.000017  0.001818 0.005211 -0.033561
13  1.209181 0.000093 0.000012  0.001015 0.002920 0.116782
14  3.859660 -0.138476 1.332410  0.323194 -0.154196 -0.216761
15  1.719448 -0.000011 0.000023  0.001362 0.003836 -0.028963
16  1.099677 0.000042 0.000003  0.000845 0.002436 0.088194
17  0.720887 -1.421159 1.005925  -1.220182 -0.621670 -0.796733
18  1.789826 -0.000000 -0.000016  -0.000457 0.003386 -0.058568
19  1.207011 -0.000013 -0.000044  -0.000396 -0.000107 0.075468
20  5.740635 0.000411 -0.000701  0.031700 0.000003 0.000070
21  11.480919 0.000240 -0.000875  0.088100 -0.115925 0.037210
22  6.027524 -0.000329 0.000203  2.120671 -0.645812 1.344457
23  0.000002 11.692099 -0.000006  -1.098771 -0.542347 -0.852445
24  0.000003 0.000007 -0.000000  -0.127696 -0.000030 1.570739
25  -0.000001 -0.000012 -0.000001  0.868957 0.000002 1.570712
26  -5.385479 -6.523477 1.259961  1.473120 1.855075 -0.198639
27  6.027509 -0.000258 -0.000232  1.563544 0.281354 -0.616153
28  11.691992 0.000243 0.000857  0.225105 0.000079 -1.924348
29  11.478589 -0.001247 0.001130  -1.283240 0.355036 0.512248
30  3.840240 -0.256103 1.127582  0.406972 -0.281773 -0.608989
31  1.312558 0.000025 0.000002  -0.000002 -0.000045 -0.148961
32  0.729345 0.000065 -0.000027  -0.000028 -0.000012 0.046463
33  3.942046 0.050110 0.430997  0.121277 -0.118787 -0.520714
34  1.539096 0.000010 0.000000  0.000007 -0.000010 0.042929
35  1.196299 0.000076 -0.000003  -0.000009 -0.000006 -0.140034
36  3.883411 -0.050502 -0.431086  -0.089865 -0.000690 -0.298025
37  1.719565 -0.000079 -0.000001  -0.002289 -0.007626 -0.075726
38  1.209197 0.000036 0.000011  -0.001276 -0.004274 0.074338
39  3.806436 -0.112148 -1.295327  -0.330197 0.136798 -0.257131
40  1.719413 -0.000099 -0.000034  -0.001915 -0.006300 -0.072277
41  1.099673 0.000025 0.000009  -0.001196 -0.004013 0.046405
42  0.805979 -0.359853 -1.318337  1.079795 0.646453 -0.910435
43  1.789779 -0.000009 -0.000042  0.011965 0.001552 -0.110981
44  1.206996 -0.000006 0.000005  0.005321 0.005317 0.007332
45  5.740572 0.000054 0.000725  0.077564 -0.000014 0.000021
46  11.480661 -0.000213 0.000976  0.042057 0.061279 0.079536
47  6.027516 -0.000274 -0.000235  -0.363840 -0.675858 -1.953170
48  -0.000001 11.691975 -0.000007  -1.279403 0.725818 0.943735
49  0.000003 -0.000001 -0.000001  2.497632 -0.000041 1.570856
50  -0.000007 -0.000015 0.000004  2.272644 -0.000030 1.570865
51  -6.873764 -4.917385 -10.259888  -0.179548 -3.022345 1.455394
52  0.000000 0.000000 0.000000  0.008153 -0.000259 0.000009
53  0.000000 0.000000 0.000002  1.565115 0.043565 -0.106862
54  2.145924 -18.685911 -8.223522  -0.220756 -0.172277 -1.540919
55  -0.000001 -0.000000 -0.000001  0.000000 -0.000000 -0.000002
56  0.000030 0.000029 -0.000000  -1.571901 -0.044449 -0.106509
57  9.731411 -12.952527 -20.634956  1.570796 -0.000000 0.000000
58  -15.295196 6.305722 -19.516716  1.570796 -0.000000 0.000000
59  -0.839222 -2.975849 -5.016943  1.570796 -0.000000 0.000000
60  -0.004311 0.001230 -0.000371  0.006898 -0.005534 -0.284229
61  1.259962 7.377682 -4.138716  1.570796 -0.000000 0.000000
62  0.000000 0.000000 0.000000  -0.078727 -3.136056 0.284226
63  0.000000 0.000000 0.000000  1.563475 0.004351 -0.004479
64  -2.492253 -19.248415 -2.170577  1.553785 0.042122 0.350843
65  -0.005933 -2.262812 -2.946502  0.000000 -0.000000 -0.000000
66  -0.007405 -0.385017 0.112679  0.000000 -0.000000 -0.000000
67  -0.007403 -0.398124 12.763616  0.000000 -0.000000 -0.000000
68  -0.007406 -3.312297 -1.336577  0.000000 -0.000000 -0.000000
69  -0.005934 0.810492 1.247789  0.000000 -0.000000 -0.000000
70  0.000002 0.037560 1.926310  0.000000 -0.000000 -0.000000
71  -2.452245 -19.785181 -5.120958  1.553785 0.042122 0.350843
72  0.184182 1.994350 -0.809967  0.000000 -0.000000 -0.000000
73  -0.114187 1.780464 -0.801672  0.000000 -0.000000 -0.000000
74  0.076510 1.501415 -0.809969  0.000000 -0.000000 -0.000000
time 4
0  0.000006 0.000000 0.000000  -1.570800 -1.391899 -1.570792
1  -5.044643 4.108138 -0.351871  -1.544956 -1.855077 -0.198630
2  6.027518 -0.000322 0.000197  -1.426617 -0.524464 -0.962094
3  11.692108 0.000645 -0.000740  -0.970881 -0.000034 -1.660936
4  11.479256 0.000047 -0.001232  2.539783 -0.340886 -0.088419
5  3.859509 -0.142880 -1.192052  -0.412031 0.273824 -0.616315
6  1.312591 0.000012 0.000005  -0.000012 0.000051 -0.152536
7  0.729357 0.000052 0.000047  0.000022 0.000015 0.042884
8  3.942140 0.046274 -0.431511  -0.125259 0.112880 -0.527292
9  1.539107 0.000087 0.000001  -0.000001 0.000022 0.039361
10  1.196333 0.000146 0.000030  0.000016 0.000015 -0.143568
11  3.883505 -0.047269 0.431379  0.088570 -0.003176 -0.303680
12  1.719571 -0.000030 0.000020  0.001570 0.005291 -0.080707
13  1.209179 0.000093 0.000013  0.000876 0.002965 0.069703
14  3.859660 -0.138476 1.332409  0.329804 -0.139039 -0.262000
15  1.719450 -0.000011 0.000022  0.001181 0.003895 -0.075816
16  1.099674 0.000041 0.000005  0.000729 0.002474 0.040944
17  0.720888 -1.421159 1.005923  -1.216733 -0.643006 -0.801728
18  1.789826 -0.000000 -0.000016  -0.000221 0.001985 -0.017889
19  1.207009 -0.000011 -0.000046  -0.000233 -0.000058 0.144193
20  5.740638 0.000411 -0.000703  0.172574 0.000003 0.000070
21  11.480863 0.000215 -0.000907  0.191531 -0.048432 0.012795
22  6.027524 -0.000330 0.000202  2.424181 -0.705041 1.123257
23  0.000002 11.692097 -0.000006  -1.124163 -0.567407 -0.867029
24  0.000003 0.000007 -0.000001  -0.101777 -0.000031 1.570739
25  -0.000001 -0.000011 -0.000001  0.868957 0.000002 1.570712
26  -5.917263 -6.431871 0.694691  1.473120 1.855075 -0.198639
27  6.027508 -0.000257 -0.000234  1.594938 0.197629 -0.640620
28  11.691991 0.000244 0.000856  0.210316 0.000075 -1.883902
29  11.478943 -0.001094 0.001074  -1.238152 0.229731 0.410561
30  3.840239 -0.256104 1.127580  0.406972 -0.281773 -0.608989
31  1.312557 0.000026 -0.000001  -0.000002 -0.000045 -0.148961
32  0.729344 0.000065 -0.000027  -0.000028 -0.000012 0.046463
33  3.942047 0.050109 0.430997  0.121277 -0.118787 -0.520714
34  1.539097 0.000009 0.000000  0.000007 -0.000010 0.042929
35  1.196300 0.000075 -0.000004  -0.000009 -0.000006 -0.140034
36  3.883412 -0.050501 -0.431088  -0.089865 -0.000690 -0.298025
37  1.719563 -0.000078 -0.000004  -0.002289 -0.007626 -0.075726
38  1.209196 0.000035 0.000014  -0.001276 -0.004274 0.074338
39  3.806435 -0.112148 -1.295330  -0.330197 0.136798 -0.257131
40  1.719411 -0.000099 -0.000035  -0.001915 -0.006300 -0.072277
41  1.099672 0.000024 0.000005  -0.001196 -0.004013 0.046405
42  0.805979 -0.359854 -1.318338  1.079794 0.646453 -0.910435
43  1.789779 -0.000008 -0.000042  0.011965 0.001552 -0.110981
44  1.206997 -0.000006 0.000005  0.005321 0.005317 0.007332
45  5.740572 0.000054 0.000723  0.078011 -0.000014 0.000021
46  11.480733 -0.000184 0.000964  0.058697 0.036620 0.061294
47  6.027515 -0.000273 -0.000237  -0.251579 -0.662153 -2.054762
48  -0.000001 11.691972 -0.000004  -1.255267 0.700900 0.933417
49  0.000006 -0.000000 0.000000  2.482842 -0.000041 1.570856
50  -0.000006 -0.000015 0.000006  2.272644 -0.000030 1.570865
51  -8.491385 -4.687178 -11.784737  -0.117380 -3.065017 1.503466
52  0.000001 -0.000000 0.000001  0.008153 -0.000259 0.000009
53  -0.000000 -0.000000 0.000000  1.565115 0.043565 -0.106862
54  4.901348 -18.284494 -11.360783  0.275975 -0.391325 -1.584418
55  -0.000001 -0.000000 0.000000  0.000000 -0.000000 -0.000002
56  0.000029 0.000029 0.000002  -1.571902 -0.044449 -0.106509
57  10.497082 -12.938788 -22.729380  1.570796 -0.000000 0.000000
58  -15.316902 5.710517 -20.187901  1.570796 -0.000000 0.000000
59  -0.347556 -3.145280 -5.696383  1.570796 -0.000000 0.000000
60  -0.004311 0.001230 -0.000371  0.006898 -0.005534 -0.284229
61  0.694690 7.382166 -4.678312  1.570796 -0.000000 0.000000
62  0.000000 0.000000 0.000000  -0.078727 -3.136056 0.284226
63  0.000000 0.000000 0.000000  1.563882 0.004111 -0.004230
64  -2.137987 -22.513226 -1.540775  1.556740 0.034817 0.562570
65  -0.005933 -2.262813 -2.946507  0.000000 -0.000000 0.000000
66  -0.007405 -0.385017 0.112674  0.000000 -0.000000 0.000000
67  -0.007405 -0.398124 12.763617  0.000000 -0.000000 0.000000
68  -0.007406 -3.312298 -1.336581  0.000000 -0.000000 0.000000
69  -0.005935 0.810492 1.247787  0.000000 -0.000000 0.000000
70  0.000002 0.037560 1.926312  0.000000 -0.000000 0.000000
71  -1.972538 -23.010742 -4.493666  1.556740 0.034817 0.562570
72  0.184184 1.994351 -0.809973  0.000000 -0.000000 0.000000
73  -0.114185 1.780464 -0.801680  0.000000 -0.000000 0.000000
74  0.076512 1.501416 -0.809975  0.000000 -0.000000 0.000000
time 5
0  0.000006 0.000000 0.000000  -1.570800 -1.391899 -1.570792
1  -5.767899 4.433976 0.205106  -1.544956 -1.855077 -0.198630
2  6.027517 -0.000321 0.000199  -1.518656 -0.335819 -0.967951
3  11.692108 0.000645 -0.000740  -0.941085 -0.000031 -1.629413
4  11.479477 0.000077 -0.001139  2.861558 0.059035 -0.129386
5  3.859508 -0.142880 -1.192051  -0.429258 0.244773 -0.683473
6  1.312591 0.000011 0.000005  -0.000016 0.000050 -0.224142
7  0.729360 0.000053 0.000043  0.000021 0.000016 -0.028722
8  3.942141 0.046274 -0.431512  -0.132930 0.103722 -0.598230
9  1.539107 0.000087 0.000003  -0.000002 0.000022 -0.032245
10  1.196333 0.000146 0.000027  0.000015 0.000016 -0.215175
11  3.883505 -0.047270 0.431381  0.088572 0.003117 -0.374515
12  1.719572 -0.000029 0.000022  0.001190 0.005389 -0.151952
13  1.209179 0.000093 0.000010  0.000663 0.003020 -0.001624
14  3.859661 -0.138476 1.332409  0.338412 -0.115710 -0.329728
15  1.719448 -0.000011 0.000023  0.000899 0.003970 -0.147423
16  1.099675 0.000044 0.000002  0.000551 0.002519 -0.030170
17  0.720890 -1.421159 1.005924  -1.216015 -0.659301 -0.801978
18  1.789824 -0.000002 -0.000016  -0.000072 0.000979 0.043525
19  1.207010 -0.000015 -0.000045  -0.000115 -0.000029 0.214252
20  5.740638 0.000410 -0.000705  0.265130 0.000003 0.000070
21  11.480907 0.000219 -0.000893  0.263010 0.020586 -0.022214
22  6.027524 -0.000330 0.000203  2.695105 -0.702770 0.902858
23  0.000001 11.692101 -0.000006  -1.105685 -0.549135 -0.856465
24  0.000000 0.000009 -0.000001  -0.071981 -0.000031 1.570738
25  -0.000000 -0.000011 -0.000000  0.868957 0.000002 1.570712
26  -6.519687 -6.328097 0.054331  1.473120 1.855075 -0.198639
27  6.027508 -0.000257 -0.000235  1.639482 0.133003 -0.677242
28  11.691992 0.000241 0.000857  0.193560 0.000071 -1.823239
29  11.479472 -0.000822 0.000999  -1.189148 0.084296 0.324099
30  3.840238 -0.256104 1.127580  0.406972 -0.281773 -0.608989
31  1.312558 0.000027 0.000001  -0.000002 -0.000045 -0.148961
32  0.729345 0.000066 -0.000028  -0.000028 -0.000012 0.046463
33  3.942046 0.050109 0.430997  0.121277 -0.118787 -0.520714
34  1.539098 0.000010 -0.000000  0.000007 -0.000010 0.042929
35  1.196299 0.000075 -0.000003  -0.000009 -0.000006 -0.140034
36  3.883411 -0.050502 -0.431087  -0.089865 -0.000690 -0.298025
37  1.719564 -0.000078 -0.000001  -0.002289 -0.007626 -0.075726
38  1.209196 0.000036 0.000010  -0.001276 -0.004274 0.074338
39  3.806435 -0.112148 -1.295329  -0.330197 0.136798 -0.257131
40  1.719411 -0.000098 -0.000036  -0.001915 -0.006300 -0.072277
41  1.099675 0.000024 0.000010  -0.001196 -0.004013 0.046405
42  0.805979 -0.359853 -1.318338  1.079795 0.646453 -0.910435
43  1.789777 -0.000008 -0.000043  0.011965 0.001552 -0.110981
44  1.206997 -0.000007 0.000005  0.005321 0.005317 0.007332
45  5.740571 0.000055 0.000724  0.081675 -0.000014 0.000021
46  11.480839 -0.000128 0.000949  0.074743 0.007567 0.047063
47  6.027514 -0.000273 -0.000237  -0.164445 -0.626706 -2.151094
48  0.000000 11.691975 -0.000008  -1.219352 0.663896 0.916900
49  0.000004 -0.000000 -0.000000  2.466086 -0.000041 1.570856
50  -0.000006 -0.000014 0.000005  2.272644 -0.000030 1.570865
51  -10.192212 -4.491869 -13.397848  3.096686 -0.019800 -1.588012
52  0.000000 0.000000 -0.000000  0.008153 -0.000259 0.000009
53  -0.000000 -0.000000 0.000001  1.565115 0.043565 -0.106862
54  7.395539 -17.783251 -14.714213  0.701194 -0.491070 -1.735041
55  0.000002 0.000000 0.000002  0.000000 -0.000000 -0.000002
56  0.000032 0.000030 0.000001  -1.571901 -0.044449 -0.106509
57  11.364462 -12.923223 -25.102022  1.570796 -0.000000 0.000000
58  -15.341493 5.036247 -20.948244  1.570796 -0.000000 0.000000
59  0.209421 -3.337218 -6.466077  1.570796 -0.000000 0.000000
60  -0.004311 0.001230 -0.000371  0.006898 -0.005534 -0.284229
61  0.054330 7.387245 -5.289588  1.570796 -0.000000 0.000000
62  0.000000 0.000000 0.000000  -0.078727 -3.136056 0.284226
63  0.000000 0.000000 0.000000  1.564928 0.003491 -0.003588
64  -1.752462 -26.066111 -0.855402  1.559953 0.026866 0.792930
65  -0.005933 -2.262813 -2.946504  -0.000000 0.000000 0.000000
66  -0.007406 -0.385017 0.112677  -0.000000 0.000000 0.000000
67  -0.007404 -0.398124 12.763614  -0.000000 0.000000 0.000000
68  -0.007405 -3.312297 -1.336580  -0.000000 0.000000 0.000000
69  -0.005935 0.810493 1.247789  -0.000000 0.000000 0.000000
70  0.000002 0.037559 1.926312  -0.000000 0.000000 0.000000
71  -1.468107 -26.489346 -3.810818  1.559953 0.026866 0.792930
72  0.184183 1.994351 -0.809971  -0.000000 0.000000 0.000000
73  -0.114188 1.780464 -0.801675  -0.000000 0.000000 0.000000
74  0.076510 1.501416 -0.809970  -0.000000 0.000000 0.000000
time 6
0  0.000006 0.000000 0.000000  -1.570800 -1.391899 -1.570792
1  -6.491155 4.759813 0.762082  -1.544956 -1.855077 -0.198630
2  6.027516 -0.000320 0.000200  -1.552424 -0.217769 -0.982468
3  11.692111 0.000645 -0.000740  -0.910829 -0.000027 -1.573149
4  11.479884 0.000186 -0.000952  2.991666 0.287140 -0.133675
5  3.859506 -0.142881 -1.192049  -0.446179 0.210600 -0.758389
6  1.312591 0.000010 0.000005  -0.000020 0.000048 -0.305479
7  0.729357 0.000051 0.000046  0.000020 0.000018 -0.110059
8  3.942138 0.046274 -0.431510  -0.140800 0.092721 -0.678445
9  1.539109 0.000084 0.000002  -0.000004 0.000022 -0.113581
10  1.196334 0.000145 0.000028  0.000014 0.000017 -0.296511
11  3.883507 -0.047270 0.431382  0.088036 0.010227 -0.454786
12  1.719572 -0.000031 0.000017  0.000751 0.005467 -0.232735
13  1.209180 0.000093 0.000013  0.000416 0.003063 -0.082534
14  3.859660 -0.138476 1.332411  0.346199 -0.088649 -0.406032
15  1.719449 -0.000012 0.000022  0.000574 0.004030 -0.228760
16  1.099673 0.000043 0.000003  0.000346 0.002555 -0.110753
17  0.720887 -1.421158 1.005927  -1.217490 -0.670124 -0.798654
18  1.789825 -0.000000 -0.000017  -0.000006 0.000368 0.113134
19  1.207010 -0.000010 -0.000046  -0.000044 -0.000014 0.277334
20  5.740638 0.000412 -0.000704  0.297496 0.000003 0.000071
21  11.480989 0.000242 -0.000857  0.290550 0.059855 -0.047632
22  6.027524 -0.000329 0.000202  2.855368 -0.699696 0.775573
23  0.000001 11.692101 -0.000006  -1.072638 -0.516947 -0.836932
24  0.000003 0.000009 0.000001  -0.041727 -0.000031 1.570739
25  -0.000000 -0.000012 -0.000001  0.868957 0.000002 1.570712
26  -7.122112 -6.224322 -0.586028  1.473120 1.855075 -0.198639
27  6.027508 -0.000258 -0.000235  1.698964 0.080460 -0.725686
28  11.691993 0.000245 0.000856  0.176805 0.000065 -1.761068
29  11.480031 -0.000497 0.000924  -1.158625 -0.068726 0.262410
30  3.840239 -0.256102 1.127582  0.406972 -0.281773 -0.608989
31  1.312558 0.000026 0.000000  -0.000002 -0.000045 -0.148961
32  0.729347 0.000064 -0.000028  -0.000028 -0.000012 0.046463
33  3.942046 0.050111 0.430997  0.121277 -0.118787 -0.520714
34  1.539095 0.000009 -0.000001  0.000007 -0.000010 0.042929
35  1.196300 0.000074 -0.000004  -0.000009 -0.000006 -0.140034
36  3.883412 -0.050499 -0.431087  -0.089865 -0.000690 -0.298025
37  1.719564 -0.000079 -0.000002  -0.002289 -0.007626 -0.075726
38  1.209197 0.000035 0.000012  -0.001276 -0.004274 0.074338
39  3.806435 -0.112146 -1.295330  -0.330197 0.136798 -0.257131
40  1.719413 -0.000102 -0.000034  -0.001915 -0.006300 -0.072277
41  1.099673 0.000024 0.000006  -0.001196 -0.004013 0.046406
42  0.805980 -0.359851 -1.318338  1.079795 0.646453 -0.910435
43  1.789780 -0.000009 -0.000042  0.011965 0.001552 -0.110981
44  1.206995 -0.000005 0.000005  0.005321 0.005317 0.007332
45  5.740572 0.000059 0.000724  0.084482 -0.000014 0.000021
46  11.480950 -0.000061 0.000934  0.085401 -0.023544 0.039008
47  6.027514 -0.000273 -0.000237  -0.095696 -0.571598 -2.244675
48  -0.000001 11.691975 -0.000005  -1.182786 0.626473 0.898748
49  0.000004 -0.000001 0.000001  2.449330 -0.000041 1.570856
50  -0.000005 -0.000015 0.000004  2.272644 -0.000030 1.570865
51  -11.840666 -4.190535 -14.967320  -3.118416 0.045339 -1.542856
52  0.000001 0.000000 -0.000000  0.008153 -0.000259 0.000009
53  0.000000 0.000002 -0.000000  1.565115 0.043565 -0.106862
54  8.913805 -17.262558 -17.558533  0.903905 -0.464152 -1.845428
55  0.000000 -0.000001 0.000002  0.000000 -0.000000 -0.000002
56  0.000031 0.000027 0.000004  -1.571902 -0.044449 -0.106509
57  12.231842 -12.907659 -27.474663  1.570796 -0.000000 0.000000
58  -15.366083 4.361977 -21.708588  1.570796 -0.000000 0.000000
59  0.766397 -3.529156 -7.235772  1.570796 -0.000000 0.000000
60  -0.004311 0.001230 -0.000371  0.006898 -0.005534 -0.284229
61  -0.586030 7.392324 -5.900865  1.570796 -0.000000 0.000000
62  0.000000 0.000000 0.000000  -0.078727 -3.136056 0.284226
63  0.000000 0.000000 0.000000  1.566359 0.002643 -0.002712
64  -1.366938 -29.618994 -0.170029  1.563164 0.018914 1.023239
65  -0.005934 -2.262813 -2.946503  0.000000 -0.000000 -0.000000
66  -0.007406 -0.385017 0.112677  0.000000 -0.000000 -0.000000
67  -0.007404 -0.398124 12.763616  0.000000 -0.000000 -0.000000
68  -0.007407 -3.312297 -1.336578  0.000000 -0.000000 -0.000000
69  -0.005934 0.810492 1.247790  0.000000 -0.000000 -0.000000
70  0.000002 0.037560 1.926311  0.000000 -0.000000 -0.000000
71  -0.989363 -29.941153 -3.127751  1.563164 0.018914 1.023239
72  0.184180 1.994350 -0.809969  0.000000 -0.000000 -0.000000
73  -0.114190 1.780463 -0.801675  0.000000 -0.000000 -0.000000
74  0.076507 1.501415 -0.809969  0.000000 -0.000000 -0.000000
time 7
0  0.000006 0.000000 0.000000  -1.570800 -1.391899 -1.570792
1  -7.129601 5.047444 1.253748  -1.544956 -1.855077 -0.198630
2  6.027518 -0.000321 0.000201  -1.460026 -0.125307 -0.959481
3  11.692109 0.000643 -0.000739  -0.883739 -0.000022 -1.478688
4  11.480639 0.000458 -0.000595  2.928702 0.246728 -0.165373
5  3.859505 -0.142881 -1.192050  -0.458822 0.179490 -0.823592
6  1.312592 0.000011 0.000002  -0.000023 0.000047 -0.377085
7  0.729358 0.000055 0.000044  0.000018 0.000019 -0.181665
8  3.942137 0.046275 -0.431512  -0.146987 0.082517 -0.749109
9  1.539106 0.000082 0.000001  -0.000006 0.000021 -0.185188
10  1.196335 0.000147 0.000027  0.000013 0.000018 -0.368118
11  3.883505 -0.047268 0.431379  0.087091 0.016450 -0.525647
12  1.719573 -0.000031 0.000016  0.000360 0.005507 -0.303991
13  1.209178 0.000093 0.000011  0.000197 0.003085 -0.153870
14  3.859661 -0.138477 1.332408  0.351325 -0.064333 -0.473072
15  1.719450 -0.000013 0.000022  0.000284 0.004061 -0.300367
16  1.099675 0.000040 0.000000  0.000164 0.002573 -0.181881
17  0.720889 -1.421159 1.005925  -1.219902 -0.676094 -0.794002
18  1.789824 -0.000001 -0.000015  0.000011 0.000079 0.174557
19  1.207011 -0.000014 -0.000046  -0.000010 -0.000009 0.325306
20  5.740637 0.000409 -0.000703  0.280431 0.000003 0.000071
21  11.481139 0.000295 -0.000785  0.278782 0.050241 -0.048527
22  6.027525 -0.000330 0.000202  2.960494 -0.804381 0.742411
23  0.000001 11.692098 -0.000007  -1.016830 -0.464217 -0.802229
24  0.000002 0.000008 -0.000001  -0.014642 -0.000031 1.570739
25  -0.000001 -0.000013 -0.000000  0.868957 0.000002 1.570712
26  -7.653897 -6.132717 -1.151299  1.473120 1.855075 -0.198639
27  6.027511 -0.000257 -0.000236  1.654936 0.017649 -0.757715
28  11.691991 0.000244 0.000854  0.162016 0.000054 -1.631988
29  11.479307 -0.000872 0.000976  -1.111270 -0.143762 0.165296
30  3.840240 -0.256102 1.127581  0.406972 -0.281773 -0.608989
31  1.312558 0.000027 -0.000001  -0.000002 -0.000045 -0.148961
32  0.729346 0.000064 -0.000026  -0.000028 -0.000012 0.046463
33  3.942046 0.050109 0.430998  0.121277 -0.118787 -0.520714
34  1.539095 0.000010 -0.000000  0.000007 -0.000010 0.042929
35  1.196298 0.000076 -0.000004  -0.000009 -0.000006 -0.140034
36  3.883411 -0.050502 -0.431089  -0.089865 -0.000690 -0.298025
37  1.719564 -0.000078 -0.000003  -0.002289 -0.007626 -0.075726
38  1.209197 0.000035 0.000011  -0.001276 -0.004274 0.074338
39  3.806436 -0.112147 -1.295331  -0.330197 0.136798 -0.257131
40  1.719411 -0.000099 -0.000034  -0.001915 -0.006300 -0.072277
41  1.099673 0.000025 0.000007  -0.001196 -0.004013 0.046405
42  0.805979 -0.359854 -1.318338  1.079795 0.646453 -0.910435
43  1.789778 -0.000009 -0.000042  0.011965 0.001552 -0.110981
44  1.206996 -0.000005 0.000005  0.005321 0.005317 0.007332
45  5.740572 0.000055 0.000723  0.095126 -0.000014 0.000021
46  11.480805 -0.000138 0.000945  0.095245 -0.040610 0.022052
47  6.027516 -0.000273 -0.000237  -0.021631 -0.617599 -2.316056
48  -0.000003 11.691973 -0.000004  -1.107135 0.550599 0.857384
49  0.000004 -0.000001 0.000003  2.434541 -0.000041 1.570856
50  -0.000007 -0.000016 0.000005  2.272644 -0.000030 1.570865
51  -12.900142 -3.728902 -17.797127  -3.041734 0.168278 -1.500119
52  -0.000000 0.000001 -0.000001  0.008153 -0.000259 0.000009
53  0.000000 -0.000000 -0.000002  1.565115 0.043565 -0.106862
54  9.355979 -16.558069 -20.708729  0.849245 -0.256718 -1.823543
55  -0.000000 -0.000000 -0.000002  0.000000 -0.000000 -0.000002
56  0.000031 0.000028 -0.000002  -1.571901 -0.044449 -0.106509
57  12.997514 -12.893918 -29.569090  1.570796 -0.000000 0.000000
58  -15.387790 3.766772 -22.379772  1.570796 -0.000000 0.000000
59  1.258063 -3.698588 -7.915212  1.570796 -0.000000 0.000000
60  -0.004311 0.001230 -0.000371  0.006898 -0.005534 -0.284229
61  -1.151302 7.396810 -6.440462  1.570796 -0.000000 0.000000
62  0.000000 0.000000 0.000000  -0.078727 -3.136056 0.284226
63  0.000000 0.000000 0.000000  1.567917 0.001717 -0.001759
64  -1.012671 -32.883804 0.459773  1.566113 0.011607 1.234830
65  -0.005934 -2.262813 -2.946503  0.000000 -0.000000 0.000000
66  -0.007402 -0.385017 0.112675  0.000000 -0.000000 0.000000
67  -0.007403 -0.398124 12.763616  0.000000 -0.000000 0.000000
68  -0.007409 -3.312297 -1.336577  0.000000 -0.000000 0.000000
69  -0.005933 0.810493 1.247788  0.000000 -0.000000 0.000000
70  0.000004 0.037560 1.926309  0.000000 -0.000000 0.000000
71  -0.576979 -33.096214 -2.499875  1.566113 0.011607 1.234830
72  0.184183 1.994350 -0.809969  0.000000 -0.000000 0.000000
73  -0.114189 1.780463 -0.801675  0.000000 -0.000000 0.000000
74  0.076508 1.501416 -0.809969  0.000000 -0.000000 0.000000
time 8
0  0.000006 0.000000 0.000000  -1.570800 -1.391899 -1.570792
1  -7.617728 5.267352 1.629652  -1.544956 -1.855077 -0.198630
2  6.027517 -0.000321 0.000201  -1.153616 -0.125196 -0.871588
3  11.692111 0.000642 -0.000739  -0.862784 -0.000009 -1.257294
4  11.479324 0.000046 -0.001072  2.557719 -0.069059 -0.186649
5  3.859506 -0.142879 -1.192049  -0.465959 0.158650 -0.866002
6  1.312588 0.000015 0.000003  -0.000025 0.000045 -0.423938
7  0.729357 0.000052 0.000045  0.000017 0.000020 -0.228518
8  3.942139 0.046274 -0.431512  -0.150647 0.075590 -0.795448
9  1.539108 0.000087 0.000004  -0.000007 0.000021 -0.232041
10  1.196336 0.000147 0.000029  0.000012 0.000019 -0.414971
11  3.883505 -0.047268 0.431381  0.086231 0.020494 -0.572190
12  1.719574 -0.000030 0.000018  0.000102 0.005518 -0.350740
13  1.209181 0.000092 0.000013  0.000053 0.003091 -0.200643
14  3.859661 -0.138475 1.332409  0.353794 -0.048201 -0.516979
15  1.719451 -0.000011 0.000020  0.000093 0.004069 -0.347221
16  1.099672 0.000042 0.000000  0.000044 0.002578 -0.228592
17  0.720888 -1.421158 1.005923  -1.221919 -0.678622 -0.790279
18  1.789824 -0.000002 -0.000016  0.000012 -0.000013 0.214889
19  1.207011 -0.000014 -0.000046  0.000001 -0.000008 0.353821
20  5.740637 0.000410 -0.000701  0.205537 0.000003 0.000071
21  11.480877 0.000213 -0.000876  0.200511 -0.004277 -0.026841
22  6.027525 -0.000329 0.000203  -0.280510 -2.038420 -2.190698
23  0.000003 11.692100 -0.000008  -0.883232 -0.348011 -0.711890
24  0.000003 0.000009 -0.000001  0.006303 -0.000031 1.570739
25  0.000000 -0.000011 -0.000000  0.868957 0.000002 1.570712
26  -8.060473 -6.062679 -1.583478  1.473120 1.855075 -0.198639
27  6.027508 -0.000258 -0.000240  1.348856 0.040138 -0.700877
28  11.691990 0.000244 0.000856  0.150700 0.000033 -1.308961
29  11.480310 -0.000252 0.000865  -0.923824 -0.024290 -0.023629
30  3.840240 -0.256102 1.127581  0.406972 -0.281773 -0.608989
31  1.312558 0.000024 0.000002  -0.000002 -0.000045 -0.148961
32  0.729345 0.000066 -0.000027  -0.000028 -0.000012 0.046463
33  3.942046 0.050111 0.430998  0.121277 -0.118787 -0.520714
34  1.539097 0.000008 0.000001  0.000007 -0.000010 0.042929
35  1.196298 0.000076 -0.000005  -0.000009 -0.000006 -0.140034
36  3.883412 -0.050499 -0.431086  -0.089865 -0.000690 -0.298025
37  1.719565 -0.000080 -0.000005  -0.002289 -0.007626 -0.075726
38  1.209196 0.000035 0.000010  -0.001276 -0.004274 0.074338
39  3.806436 -0.112145 -1.295330  -0.330197 0.136798 -0.257131
40  1.719413 -0.000100 -0.000033  -0.001915 -0.006300 -0.072277
41  1.099674 0.000025 0.000007  -0.001196 -0.004013 0.046405
42  0.805979 -0.359852 -1.318338  1.079795 0.646453 -0.910435
43  1.789779 -0.000008 -0.000041  0.011965 0.001552 -0.110981
44  1.206997 -0.000007 0.000006  0.005321 0.005317 0.007332
45  5.740572 0.000055 0.000725  0.140215 -0.000014 0.000021
46  11.481008 -0.000013 0.000924  0.128760 -0.022700 -0.021256
47  6.027515 -0.000273 -0.000238  -0.066464 -0.922727 -2.218721
48  -0.000001 11.691974 -0.000007  -0.914807 0.374093 0.734109
49  0.000002 -0.000001 -0.000002  2.423236 -0.000041 1.570856
50  -0.000007 -0.000015 0.000005  2.272644 -0.000030 1.570865
51  -12.895312 -3.177757 -22.552460  0.196815 2.772471 1.692319
52  0.000000 0.000000 -0.000001  0.008153 -0.000259 0.000009
53  0.000001 0.000002 0.000001  1.565115 0.043565 -0.106862
54  8.870398 -15.604812 -24.656849  0.610396 0.201226 -1.732699
55  0.000001 -0.000001 0.000000  0.000000 -0.000000 -0.000002
56  0.000031 0.000027 -0.000000  -1.571902 -0.044449 -0.106509
57  13.582910 -12.883414 -31.170389  1.570796 -0.000000 0.000000
58  -15.404387 3.311706 -22.892929  1.570796 -0.000000 0.000000
59  1.633968 -3.828127 -8.434680  1.570796 -0.000000 0.000000
60  -0.004311 0.001229 -0.000371  0.006898 -0.005534 -0.284229
61  -1.583482 7.400237 -6.853013  1.570796 -0.000000 0.000000
62  0.000000 0.000000 0.000000  -0.078727 -3.136056 0.284226
63  0.000000 0.000000 0.000000  1.569347 0.000865 -0.000885
64  -0.720924 -35.572475 0.978433  1.568542 0.005588 1.409048
65  -0.005927 -2.262813 -2.946503  0.000000 0.000000 -0.000000
66  -0.007398 -0.385017 0.112677  0.000000 0.000000 -0.000000
67  -0.007401 -0.398124 12.763616  0.000000 0.000000 -0.000000
68  -0.007399 -3.312297 -1.336578  0.000000 0.000000 -0.000000
69  -0.005928 0.810493 1.247789  0.000000 0.000000 -0.000000
70  0.000000 0.037559 1.926312  0.000000 0.000000 -0.000000
71  -0.259234 -35.687416 -1.982664  1.568542 0.005588 1.409048
72  0.184180 1.994351 -0.809969  0.000000 0.000000 -0.000000
73  -0.114191 1.780464 -0.801674  0.000000 0.000000 -0.000000
74  0.076505 1.501416 -0.809969  0.000000 0.000000 -0.000000
time 9
0  0.000006 0.000000 0.000000  -1.570800 -1.391899 -1.570792
1  -7.917941 5.402603 1.860843  -1.544956 -1.855077 -0.198630
2  6.027516 -0.000323 0.000199  -0.785898 -0.247946 -0.858728
3  11.692111 0.000644 -0.000739  -0.849783 0.000002 -0.974413
4  11.480753 0.000536 -0.000494  1.997134 -0.251249 -0.072242
5  3.859506 -0.142880 -1.192050  -0.468164 0.151540 -0.880272
6  1.312589 0.000010 0.000004  -0.000026 0.000045 -0.439738
7  0.729358 0.000053 0.000046  0.000017 0.000021 -0.244318
8  3.942138 0.046274 -0.431510  -0.151810 0.073211 -0.811101
9  1.539106 0.000087 0.000001  -0.000007 0.000021 -0.247841
10  1.196337 0.000142 0.000032  0.000011 0.000019 -0.430771
11  3.883505 -0.047268 0.431381  0.085898 0.021851 -0.587925
12  1.719573 -0.000031 0.000022  0.000015 0.005519 -0.366533
13  1.209182 0.000089 0.000015  0.000004 0.003092 -0.216437
14  3.859660 -0.138476 1.332410  0.354468 -0.042725 -0.531804
15  1.719448 -0.000014 0.000020  0.000029 0.004070 -0.363021
16  1.099675 0.000043 0.000001  0.000003 0.002579 -0.244381
17  0.720887 -1.421159 1.005923  -1.222687 -0.679194 -0.788886
18  1.789824 -0.000003 -0.000017  0.000012 -0.000024 0.228522
19  1.207011 -0.000014 -0.000044  0.000002 -0.000008 0.362858
20  5.740635 0.000408 -0.000703  0.110920 0.000003 0.000070
21  11.481161 0.000314 -0.000759  0.087458 -0.029083 -0.010253
22  6.027524 -0.000331 0.000203  -1.250456 -1.832246 -1.189550
23  0.000002 11.692096 -0.000006  -0.703862 -0.217888 -0.578860
24  0.000002 0.000008 -0.000001  0.019287 -0.000031 1.570739
25  -0.000001 -0.000012 -0.000001  0.868957 0.000002 1.570712
26  -8.310530 -6.019605 -1.849280  1.473120 1.855075 -0.198639
27  6.027506 -0.000257 -0.000237  0.941749 0.240112 -0.720264
28  11.691991 0.000245 0.000857  0.143723 0.000009 -0.833823
29  11.480831 0.000081 0.000815  -0.630053 0.154181 -0.209247
30  3.840240 -0.256103 1.127583  0.406972 -0.281773 -0.608989
31  1.312556 0.000026 0.000000  -0.000002 -0.000045 -0.148961
32  0.729344 0.000065 -0.000026  -0.000028 -0.000012 0.046463
33  3.942047 0.050110 0.430998  0.121277 -0.118787 -0.520714
34  1.539096 0.000008 -0.000001  0.000007 -0.000010 0.042929
35  1.196298 0.000073 -0.000003  -0.000009 -0.000006 -0.140034
36  3.883412 -0.050501 -0.431085  -0.089865 -0.000690 -0.298025
37  1.719564 -0.000080 -0.000006  -0.002289 -0.007626 -0.075726
38  1.209198 0.000036 0.000010  -0.001276 -0.004274 0.074338
39  3.806437 -0.112147 -1.295327  -0.330197 0.136798 -0.257131
40  1.719412 -0.000098 -0.000037  -0.001915 -0.006300 -0.072277
41  1.099673 0.000024 0.000007  -0.001196 -0.004013 0.046405
42  0.805979 -0.359854 -1.318336  1.079795 0.646453 -0.910435
43  1.789780 -0.000010 -0.000043  0.011965 0.001552 -0.110981
44  1.206995 -0.000007 0.000004  0.005321 0.005317 0.007332
45  5.740573 0.000056 0.000725  0.229356 -0.000014 0.000021
46  11.481112 0.000053 0.000914  0.186533 0.000188 -0.072904
47  6.027514 -0.000273 -0.000236  -0.800275 -1.233070 -1.519902
48  -0.000001 11.691974 -0.000006  -0.610219 0.162427 0.505735
49  0.000003 0.000000 -0.000002  2.416284 -0.000041 1.570856
50  -0.000006 -0.000016 0.000005  2.272644 -0.000030 1.570865
51  -12.359941 -2.752049 -26.801992  0.281788 2.600953 1.743105
52  0.000001 -0.000003 -0.000002  0.008153 -0.000259 0.000009
53  0.000001 0.000001 0.000001  1.565115 0.043565 -0.106862
54  8.070982 -14.821544 -27.784739  0.363519 0.624788 -1.734293
55  0.000000 -0.000001 0.000001  0.000000 -0.000000 -0.000002
56  0.000031 0.000028 0.000002  -1.571901 -0.044449 -0.106509
57  13.942944 -12.876952 -32.155231  1.570796 -0.000000 0.000000
58  -15.414594 3.031828 -23.208534  1.570796 -0.000000 0.000000
59  1.865159 -3.907797 -8.754169  1.570796 -0.000000 0.000000
60  -0.004311 0.001229 -0.000371  0.006898 -0.005534 -0.284229
61  -1.849285 7.402346 -7.106743  1.570796 -0.000000 0.000000
62  0.000000 0.000000 0.000000  -0.078727 -3.136056 0.284226
63  0.000000 0.000000 0.000000  1.570391 0.000242 -0.000247
64  -0.522952 -37.396927 1.330381  1.570189 0.001505 1.527251
65  -0.005935 -2.262813 -2.946503  -0.000000 0.000000 0.000000
66  -0.007409 -0.385017 0.112677  -0.000000 0.000000 0.000000
67  -0.007405 -0.398124 12.763614  -0.000000 0.000000 0.000000
68  -0.007410 -3.312297 -1.336578  -0.000000 0.000000 0.000000
69  -0.005939 0.810493 1.247790  -0.000000 0.000000 0.000000
70  -0.000001 0.037560 1.926312  -0.000000 0.000000 0.000000
71  -0.055279 -37.444328 -1.631628  1.570189 0.001505 1.527251
72  0.184183 1.994350 -0.809969  -0.000000 0.000000 0.000000
73  -0.114188 1.780464 -0.801675  -0.000000 0.000000 0.000000
74  0.076509 1.501416 -0.809969  -0.000000 0.000000 0.000000
time 10
0  0.000006 0.000000 0.000000  -1.570800 -1.391899 -1.570792
1  -8.017693 5.447542 1.937662  -1.544956 -1.855077 -0.198630
2  6.027517 -0.000322 0.000199  -0.644297 -0.302593 -0.898167
3  11.692116 0.000644 -0.000739  -0.845444 0.000006 -0.841812
4  11.480869 0.000574 -0.000451  1.773616 -0.242546 -0.016129
5  3.859510 -0.142879 -1.192049  -0.468164 0.151540 -0.880272
6  1.312589 0.000010 0.000005  -0.000026 0.000045 -0.439738
7  0.729354 0.000053 0.000048  0.000017 0.000021 -0.244318
8  3.942144 0.046274 -0.431512  -0.151810 0.073212 -0.811101
9  1.539108 0.000084 0.000004  -0.000007 0.000021 -0.247841
10  1.196337 0.000148 0.000029  0.000011 0.000019 -0.430771
11  3.883510 -0.047267 0.431382  0.085898 0.021851 -0.587925
12  1.719572 -0.000032 0.000020  0.000015 0.005519 -0.366533
13  1.209178 0.000091 0.000013  0.000004 0.003092 -0.216437
14  3.859661 -0.138475 1.332412  0.354468 -0.042725 -0.531804
15  1.719450 -0.000010 0.000023  0.000029 0.004070 -0.363021
16  1.099677 0.000040 0.000006  0.000003 0.002579 -0.244381
17  0.720891 -1.421158 1.005926  -1.222687 -0.679194 -0.788886
18  1.789824 -0.000003 -0.000017  0.000012 -0.000024 0.228522
19  1.207012 -0.000012 -0.000044  0.000002 -0.000008 0.362858
20  5.740638 0.000408 -0.000703  0.070095 0.000003 0.000071
21  11.481186 0.000324 -0.000748  0.044190 -0.026250 -0.006789
22  6.027524 -0.000331 0.000202  -1.753023 -1.878564 -0.707161
23  0.000002 11.692101 -0.000009  -0.615659 -0.165421 -0.509997
24  0.000003 0.000007 -0.000002  0.023617 -0.000031 1.570738
25  -0.000000 -0.000012 -0.000001  0.868957 0.000002 1.570712
26  -8.393617 -6.005292 -1.937599  1.473120 1.855075 -0.198639
27  6.027507 -0.000257 -0.000237  0.763165 0.350920 -0.816794
28  11.691991 0.000244 0.000857  0.141395 -0.000000 -0.547392
29  11.480382 0.000018 0.000821  -0.503860 0.202454 -0.309882
30  3.840238 -0.256103 1.127580  0.406972 -0.281772 -0.608989
31  1.312560 0.000031 -0.000000  -0.000002 -0.000045 -0.148961
32  0.729344 0.000062 -0.000027  -0.000028 -0.000012 0.046463
33  3.942044 0.050108 0.430995  0.121277 -0.118787 -0.520714
34  1.539099 0.000012 -0.000000  0.000007 -0.000010 0.042929
35  1.196299 0.000077 -0.000003  -0.000009 -0.000006 -0.140034
36  3.883410 -0.050502 -0.431088  -0.089865 -0.000690 -0.298025
37  1.719565 -0.000081 -0.000002  -0.002289 -0.007626 -0.075726
38  1.209196 0.000037 0.000009  -0.001276 -0.004274 0.074338
39  3.806434 -0.112148 -1.295331  -0.330197 0.136798 -0.257131
40  1.719410 -0.000098 -0.000039  -0.001915 -0.006300 -0.072277
41  1.099673 0.000024 0.000006  -0.001196 -0.004013 0.046405
42  0.805977 -0.359853 -1.318341  1.079794 0.646453 -0.910435
43  1.789781 -0.000012 -0.000042  0.011965 0.001552 -0.110981
44  1.206996 -0.000011 0.000004  0.005321 0.005317 0.007332
45  5.740575 0.000055 0.000723  0.308055 -0.000014 0.000021
46  11.481024 0.000039 0.000914  0.212454 -0.000311 -0.098592
47  6.027514 -0.000273 -0.000236  -1.404938 -1.214845 -0.993559
48  -0.000000 11.691975 -0.000005  -0.409884 0.072127 0.343613
49  0.000004 0.000002 -0.000001  2.413975 -0.000041 1.570856
50  -0.000006 -0.000015 0.000005  2.272644 -0.000030 1.570865
51  -12.080094 -2.607073 -28.354927  0.313880 2.540827 1.764035
52  0.000004 -0.000000 -0.000002  0.008153 -0.000259 0.000009
53  -0.000002 0.000000 0.000000  1.565115 0.043565 -0.106862
54  7.720896 -14.546185 -28.864317  0.255881 0.766400 -1.766008
55  0.000002 0.000000 -0.000003  0.000000 -0.000000 -0.000002
56  0.000033 0.000029 -0.000001  -1.571901 -0.044449 -0.106509
57  14.062574 -12.874806 -32.482468  1.570796 -0.000000 0.000000
58  -15.417985 2.938832 -23.313402  1.570796 -0.000000 0.000000
59  1.941978 -3.934269 -8.860325  1.570796 -0.000000 0.000000
60  -0.004311 0.001229 -0.000371  0.006898 -0.005534 -0.284229
61  -1.937603 7.403047 -7.191051  1.570796 -0.000000 0.000000
62  0.000000 0.000000 0.000000  -0.078727 -3.136056 0.284226
63  0.000000 0.000000 0.000000  1.570796 -0.000000 0.000000
64  -0.450014 -38.069099 1.460047  1.570796 -0.000000 1.570796
65  -0.005932 -2.262813 -2.946503  0.000000 -0.000000 0.000000
66  -0.007404 -0.385017 0.112677  0.000000 -0.000000 0.000000
67  -0.007403 -0.398124 12.763615  0.000000 -0.000000 0.000000
68  -0.007404 -3.312297 -1.336578  0.000000 -0.000000 0.000000
69  -0.005936 0.810493 1.247789  0.000000 -0.000000 0.000000
70  0.000000 0.037560 1.926311  0.000000 -0.000000 0.000000
71  0.017481 -38.091640 -1.502285  1.570796 -0.000000 1.570796
72  0.184181 1.994350 -0.809969  0.000000 -0.000000 0.000000
73  -0.114185 1.780464 -0.801675  0.000000 -0.000000 0.000000
74  0.076511 1.501416 -0.809969  0.000000 -0.000000 0.000000
end
