version 1
nodes
0 "ValveBiped.Bip01_Spine4" -1
1 "ValveBiped.Bip01_L_Clavicle" 0
2 "ValveBiped.Bip01_L_UpperArm" 1
3 "ValveBiped.Bip01_L_Forearm" 2
4 "ValveBiped.Bip01_L_Hand" 3
5 "ValveBiped.Bip01_L_Finger4" 4
6 "ValveBiped.Bip01_L_Finger41" 5
7 "ValveBiped.Bip01_L_Finger42" 6
8 "ValveBiped.Bip01_L_Finger3" 4
9 "ValveBiped.Bip01_L_Finger31" 8
10 "ValveBiped.Bip01_L_Finger32" 9
11 "ValveBiped.Bip01_L_Finger2" 4
12 "ValveBiped.Bip01_L_Finger21" 11
13 "ValveBiped.Bip01_L_Finger22" 12
14 "ValveBiped.Bip01_L_Finger1" 4
15 "ValveBiped.Bip01_L_Finger11" 14
16 "ValveBiped.Bip01_L_Finger12" 15
17 "ValveBiped.Bip01_L_Finger0" 4
18 "ValveBiped.Bip01_L_Finger01" 17
19 "ValveBiped.Bip01_L_Finger02" 18
20 "ValveBiped.Bip01_L_Ulna" 3
21 "ValveBiped.Bip01_L_Wrist" 3
22 "rig_l_upperarm" 1
23 "rig_l_forearm" 22
24 "rig_d_l_forearm" 23
25 "rig_d_l_upperarm" 22
26 "ValveBiped.Bip01_R_Clavicle" 0
27 "ValveBiped.Bip01_R_UpperArm" 26
28 "ValveBiped.Bip01_R_Forearm" 27
29 "ValveBiped.Bip01_R_Hand" 28
30 "ValveBiped.Bip01_R_Finger4" 29
31 "ValveBiped.Bip01_R_Finger41" 30
32 "ValveBiped.Bip01_R_Finger42" 31
33 "ValveBiped.Bip01_R_Finger3" 29
34 "ValveBiped.Bip01_R_Finger31" 33
35 "ValveBiped.Bip01_R_Finger32" 34
36 "ValveBiped.Bip01_R_Finger2" 29
37 "ValveBiped.Bip01_R_Finger21" 36
38 "ValveBiped.Bip01_R_Finger22" 37
39 "ValveBiped.Bip01_R_Finger1" 29
40 "ValveBiped.Bip01_R_Finger11" 39
41 "ValveBiped.Bip01_R_Finger12" 40
42 "ValveBiped.Bip01_R_Finger0" 29
43 "ValveBiped.Bip01_R_Finger01" 42
44 "ValveBiped.Bip01_R_Finger02" 43
45 "ValveBiped.Bip01_R_Ulna" 28
46 "ValveBiped.Bip01_R_Wrist" 28
47 "rig_r_upperarm" 26
48 "rig_r_forearm" 47
49 "rig_d_r_forearm" 48
50 "rig_d_r_upperarm" 47
51 "rig_r_hand" -1
52 "rig_d_r_hand" 51
53 "rig_d_r_wrist" 52
54 "rig_l_hand" -1
55 "rig_d_l_hand" 54
56 "rig_d_l_wrist" 54
57 "rig_l_pole" -1
58 "rig_r_pole" -1
59 "rig_l_clavicle" -1
60 "rig_d_l_clavicle" 59
61 "rig_r_clavicle" -1
62 "rig_d_r_clavicle" 61
63 "Camera" -1
64 "body" -1
65 "trigger" 64
66 "bolt" 64
67 "barrel" 64
68 "magrel" 64
69 "chandle" 64
70 "chandleb" 69
71 "mag" -1
72 "bullet1" 71
73 "bullet2" 71
74 "bullet3" 71
end
skeleton
time 0
0  0.000006 0.000000 0.000000  -1.570800 -1.391899 -1.570792
1  -3.518106 3.420410 -1.527451  -1.544956 -1.855077 -0.198630
2  6.027521 -0.000325 0.000193  -1.113284 -0.941774 -1.091687
3  11.692108 0.000644 -0.000739  -1.032250 -0.000023 -1.515614
4  11.480338 0.000444 -0.000685  1.015981 -0.658441 0.362202
5  3.859507 -0.142880 -1.192051  -0.778167 0.068914 -1.502592
6  1.312589 0.000010 0.000005  -0.135303 -0.037646 -0.288696
7  0.729358 0.000054 0.000046  0.004037 -0.012462 -0.362678
8  3.942140 0.046273 -0.431512  -0.693770 0.356114 -1.201512
9  1.539108 0.000088 0.000005  -0.032365 -0.079699 -0.453688
10  1.196334 0.000147 0.000032  0.008153 0.002732 -0.748207
11  3.883506 -0.047268 0.431381  -0.322019 0.643539 -0.630599
12  1.719575 -0.000029 0.000018  -0.033238 -0.086003 -0.823515
13  1.209181 0.000095 0.000013  -0.007836 -0.002562 -0.650932
14  3.859663 -0.138476 1.332409  0.166016 0.722762 -0.052368
15  1.719447 -0.000013 0.000023  -0.036329 0.033056 -0.412619
16  1.099675 0.000043 0.000001  -0.004181 0.004116 -1.256705
17  0.720889 -1.421159 1.005924  -0.760907 -0.593476 -0.498366
18  1.789825 0.000001 -0.000015  0.022880 0.030024 0.834449
19  1.207008 -0.000013 -0.000045  -0.004342 -0.003284 -0.117962
20  5.740637 0.000411 -0.000703  -0.151181 0.000003 0.000070
21  11.481076 0.000302 -0.000795  -0.077982 -0.125238 0.022291
22  6.027525 -0.000330 0.000203  1.853992 -0.569630 1.555030
23  0.000003 11.692100 -0.000007  -1.038709 -0.484625 -0.816075
24  0.000003 0.000008 -0.000002  -0.163150 -0.000031 1.570739
25  -0.000000 -0.000012 -0.000001  0.868957 0.000002 1.570712
26  -4.645759 -6.650901 2.046262  1.473120 1.855075 -0.198639
27  6.027508 -0.000259 -0.000230  1.507344 0.510597 -0.606578
28  11.691990 0.000243 0.000857  0.245672 0.000077 -1.906529
29  11.478743 -0.001148 0.001136  -1.283313 0.523991 0.723594
30  3.840240 -0.256105 1.127580  0.375755 0.017196 -2.109855
31  1.312558 0.000025 -0.000001  -0.016738 -0.067215 -0.358753
32  0.729344 0.000067 -0.000027  0.010499 -0.002285 -1.003069
33  3.942047 0.050109 0.430996  0.318069 -0.062504 -1.724927
34  1.539097 0.000011 -0.000001  0.007072 -0.088740 -0.961961
35  1.196300 0.000075 -0.000004  0.008893 -0.001311 -1.206604
36  3.883412 -0.050502 -0.431088  0.154352 -0.157823 -1.573639
37  1.719564 -0.000079 -0.000004  -0.024403 -0.068048 -1.595299
38  1.209197 0.000036 0.000011  0.007422 -0.002547 -0.459485
39  3.806437 -0.112148 -1.295330  0.051087 -0.161046 -0.309236
40  1.719412 -0.000099 -0.000035  0.023074 0.074459 -1.482138
41  1.099673 0.000025 0.000006  -0.005688 -0.003843 -0.924765
42  0.805979 -0.359854 -1.318339  1.330199 0.197557 -0.619517
43  1.789779 -0.000009 -0.000042  0.032551 0.123016 0.037179
44  1.206996 -0.000006 0.000006  0.000293 -0.001887 1.285959
45  5.740571 0.000055 0.000723  0.096366 -0.000014 0.000021
46  11.480692 -0.000194 0.000977  0.024878 0.097077 0.115372
47  6.027514 -0.000273 -0.000236  -0.660366 -0.649048 -1.738541
48  -0.000001 11.691971 -0.000006  -1.268747 0.714817 0.939260
49  0.000003 -0.000001 -0.000000  2.518197 -0.000041 1.570856
50  -0.000007 -0.000015 0.000005  2.272644 -0.000030 1.570865
51  -3.857683 -5.809970 -7.745982  -0.219488 -2.992152 1.396611
52  -0.000000 -0.000000 0.000000  0.008153 -0.000259 0.000009
53  0.000000 -0.000000 -0.000000  1.565115 0.043565 -0.106862
54  -1.032081 -18.751493 -5.779789  -0.942805 -0.063753 -1.844146
55  -0.000000 -0.000000 0.000000  0.000000 -0.000000 -0.000002
56  0.000029 0.000029 0.000001  -1.571901 -0.044449 -0.106509
57  8.666351 -12.971641 -17.721577  1.570796 -0.000000 0.000000
58  -15.265000 7.133661 -18.583086  1.570796 -0.000000 0.000000
59  -1.523137 -2.740167 -4.071830  1.570796 -0.000000 0.000000
60  -0.004311 0.001230 -0.000371  0.006898 -0.005534 -0.284229
61  2.046263 7.371444 -3.388127  1.570796 -0.000000 0.000000
62  0.000000 0.000000 0.000000  -0.078727 -3.136056 0.284226
63  0.000000 0.000000 0.000000  1.570796 -0.000000 0.000000
64  -3.054910 -14.063125 -3.170850  1.549086 0.053723 0.014481
65  -0.005933 -2.262813 -2.946503  0.261799 0.000000 0.000000
66  -0.007405 -0.385017 0.112676  -0.000000 0.000000 0.000000
67  -0.007403 -0.398124 12.763615  -0.000000 0.000000 0.000000
68  -0.007406 -3.312297 -1.336580  -0.000000 0.000000 0.000000
69  -0.005934 0.810492 1.247788  -0.000000 0.000000 0.000000
70  0.000002 0.037559 1.926313  -0.000000 0.000000 0.000000
71  -3.228184 -14.597383 -6.116866  1.549086 0.053723 0.014481
72  0.184183 1.994351 -0.809968  -0.000000 0.000000 0.000000
73  -0.114187 1.780464 -0.801674  -0.000000 0.000000 0.000000
74  0.076510 1.501416 -0.809968  -0.000000 0.000000 0.000000
time 1
0  0.000006 0.000000 0.000000  -1.570800 -1.391899 -1.570792
1  -3.518106 3.420410 -1.527451  -1.544956 -1.855077 -0.198630
2  6.027521 -0.000325 0.000194  -1.111150 -0.903746 -1.070342
3  11.692107 0.000643 -0.000739  -1.032254 -0.000030 -1.626765
4  11.479496 0.000188 -0.001116  0.976170 -0.709844 0.368095
5  3.859505 -0.142881 -1.192050  -0.778167 0.068914 -1.502592
6  1.312590 0.000010 0.000004  -0.135303 -0.037646 -0.288696
7  0.729358 0.000054 0.000045  0.004037 -0.012462 -0.362678
8  3.942140 0.046273 -0.431512  -0.693770 0.356114 -1.201512
9  1.539108 0.000088 0.000001  -0.032365 -0.079699 -0.453688
10  1.196334 0.000146 0.000029  0.008153 0.002732 -0.748207
11  3.883505 -0.047269 0.431381  -0.322019 0.643539 -0.630599
12  1.719575 -0.000028 0.000018  -0.033238 -0.086003 -0.823515
13  1.209181 0.000092 0.000012  -0.007836 -0.002562 -0.650932
14  3.859661 -0.138476 1.332410  0.166016 0.722762 -0.052367
15  1.719448 -0.000011 0.000021  -0.036329 0.033056 -0.412619
16  1.099675 0.000042 0.000002  -0.004181 0.004116 -1.256705
17  0.720888 -1.421159 1.005924  -0.760907 -0.593476 -0.498366
18  1.789825 -0.000002 -0.000017  0.022880 0.030024 0.834449
19  1.207008 -0.000013 -0.000045  -0.004342 -0.003284 -0.117962
20  5.740638 0.000410 -0.000701  -0.172779 0.000003 0.000070
21  11.480906 0.000251 -0.000881  -0.081817 -0.136182 0.017626
22  6.027525 -0.000330 0.000203  1.874514 -0.603627 1.566713
23  0.000001 11.692100 -0.000007  -1.104132 -0.547608 -0.855565
24  0.000003 0.000007 -0.000001  -0.163150 -0.000031 1.570739
25  -0.000001 -0.000011 -0.000000  0.868957 0.000002 1.570712
26  -4.645759 -6.650901 2.046262  1.473120 1.855075 -0.198639
27  6.027508 -0.000258 -0.000231  1.494894 0.446064 -0.607673
28  11.691989 0.000242 0.000856  0.245670 0.000084 -2.003750
29  11.480522 -0.000073 0.000868  -1.327046 0.557806 0.731825
30  3.840239 -0.256103 1.127580  0.375755 0.017196 -2.109855
31  1.312558 0.000025 -0.000000  -0.016738 -0.067215 -0.358753
32  0.729345 0.000066 -0.000027  0.010499 -0.002285 -1.003069
33  3.942045 0.050109 0.430996  0.318069 -0.062504 -1.724927
34  1.539097 0.000011 -0.000001  0.007072 -0.088740 -0.961961
35  1.196299 0.000077 -0.000004  0.008893 -0.001311 -1.206604
36  3.883412 -0.050502 -0.431087  0.154352 -0.157823 -1.573639
37  1.719563 -0.000080 -0.000004  -0.024403 -0.068048 -1.595299
38  1.209198 0.000035 0.000011  0.007422 -0.002547 -0.459485
39  3.806436 -0.112148 -1.295330  0.051087 -0.161046 -0.309236
40  1.719412 -0.000099 -0.000034  0.023074 0.074459 -1.482138
41  1.099673 0.000025 0.000006  -0.005688 -0.003843 -0.924765
42  0.805979 -0.359854 -1.318338  1.330199 0.197557 -0.619517
43  1.789779 -0.000008 -0.000042  0.032550 0.123016 0.037179
44  1.206997 -0.000007 0.000005  0.000293 -0.001887 1.285959
45  5.740573 0.000055 0.000724  0.091029 -0.000014 0.000021
46  11.481049 0.000022 0.000923  0.014144 0.101033 0.118340
47  6.027514 -0.000273 -0.000236  -0.591103 -0.685487 -1.776782
48  -0.000000 11.691973 -0.000006  -1.327423 0.775252 0.962250
49  0.000004 -0.000001 0.000000  2.518198 -0.000041 1.570856
50  -0.000007 -0.000015 0.000005  2.272644 -0.000030 1.570865
51  -3.868015 -4.840857 -7.821289  -0.255036 -2.967012 1.393139
52  0.000001 -0.000000 -0.000001  0.008153 -0.000259 0.000009
53  -0.000000 -0.000000 -0.000001  1.565115 0.043565 -0.106862
54  -1.082372 -17.770390 -5.723600  -0.975279 -0.092295 -1.850821
55  -0.000000 -0.000001 -0.000000  0.000000 -0.000000 -0.000002
56  0.000030 0.000029 0.000001  -1.571902 -0.044449 -0.106509
57  8.666351 -12.971641 -17.721577  1.570796 -0.000000 0.000000
58  -15.265000 7.133661 -18.583086  1.570796 -0.000000 0.000000
59  -1.523137 -2.740167 -4.071830  1.570796 -0.000000 0.000000
60  -0.004311 0.001230 -0.000371  0.006898 -0.005534 -0.284229
61  2.046263 7.371444 -3.388127  1.570796 -0.000000 0.000000
62  0.000000 0.000000 0.000000  -0.078727 -3.136056 0.284226
63  0.000000 0.000000 0.000000  1.570796 -0.000000 0.000000
64  -2.960349 -13.015616 -3.126580  1.530788 0.092835 0.003934
65  -0.005933 -2.262813 -2.946505  0.261799 -0.000000 0.000000
66  -0.007405 -0.385017 -3.599067  0.000000 -0.000000 0.000000
67  -0.007403 -0.398124 12.763614  0.000000 -0.000000 0.000000
68  -0.007406 -3.312298 -1.336580  0.000000 -0.000000 0.000000
69  -0.005934 0.810493 -3.290919  0.000000 -0.000000 0.000000
70  0.000002 0.037560 1.926311  0.000000 -0.000000 0.000000
71  -3.253145 -13.602380 -6.053087  1.530788 0.092835 0.003934
72  0.184183 1.994350 -0.809969  0.000000 -0.000000 0.000000
73  -0.114187 1.780463 -0.801676  0.000000 -0.000000 0.000000
74  0.076509 1.501415 -0.809969  0.000000 -0.000000 0.000000
time 2
0  0.000006 0.000000 0.000000  -1.570800 -1.391899 -1.570792
1  -3.518106 3.420410 -1.527451  -1.544956 -1.855077 -0.198630
2  6.027521 -0.000325 0.000194  -1.108663 -0.914860 -1.077757
3  11.692109 0.000644 -0.000739  -1.032254 -0.000029 -1.611575
4  11.479602 0.000215 -0.001065  0.978289 -0.699622 0.379734
5  3.859506 -0.142880 -1.192050  -0.778167 0.068914 -1.502592
6  1.312589 0.000011 0.000002  -0.135303 -0.037646 -0.288696
7  0.729357 0.000053 0.000046  0.004037 -0.012462 -0.362678
8  3.942139 0.046274 -0.431512  -0.693770 0.356114 -1.201512
9  1.539108 0.000088 0.000003  -0.032365 -0.079699 -0.453688
10  1.196334 0.000146 0.000028  0.008153 0.002732 -0.748207
11  3.883504 -0.047268 0.431381  -0.322019 0.643539 -0.630599
12  1.719574 -0.000029 0.000019  -0.033238 -0.086003 -0.823515
13  1.209182 0.000092 0.000011  -0.007836 -0.002562 -0.650932
14  3.859659 -0.138475 1.332409  0.166016 0.722762 -0.052367
15  1.719447 -0.000013 0.000021  -0.036329 0.033056 -0.412619
16  1.099676 0.000041 0.000001  -0.004181 0.004116 -1.256705
17  0.720887 -1.421158 1.005924  -0.760907 -0.593476 -0.498366
18  1.789824 -0.000001 -0.000017  0.022880 0.030024 0.834449
19  1.207011 -0.000014 -0.000045  -0.004342 -0.003284 -0.117962
20  5.740638 0.000408 -0.000703  -0.170058 0.000003 0.000071
21  11.480927 0.000255 -0.000871  -0.081426 -0.134628 0.020574
22  6.027525 -0.000330 0.000203  1.866424 -0.594614 1.565823
23  0.000003 11.692099 -0.000007  -1.095218 -0.538870 -0.850366
24  0.000003 0.000008 0.000000  -0.163150 -0.000030 1.570739
25  -0.000000 -0.000012 -0.000000  0.868957 0.000002 1.570712
26  -4.645759 -6.650901 2.046262  1.473120 1.855075 -0.198639
27  6.027508 -0.000258 -0.000231  1.495759 0.460679 -0.608349
28  11.691991 0.000243 0.000856  0.245671 0.000084 -1.996575
29  11.480534 -0.000070 0.000868  -1.311929 0.563705 0.750149
30  3.840240 -0.256103 1.127579  0.375755 0.017196 -2.109855
31  1.312558 0.000026 0.000000  -0.016738 -0.067215 -0.358753
32  0.729345 0.000065 -0.000027  0.010499 -0.002285 -1.003070
33  3.942046 0.050109 0.430997  0.318069 -0.062504 -1.724927
34  1.539097 0.000009 0.000001  0.007072 -0.088740 -0.961961
35  1.196299 0.000076 -0.000004  0.008893 -0.001311 -1.206604
36  3.883412 -0.050502 -0.431087  0.154352 -0.157823 -1.573639
37  1.719564 -0.000080 -0.000004  -0.024403 -0.068048 -1.595299
38  1.209198 0.000035 0.000011  0.007422 -0.002547 -0.459485
39  3.806436 -0.112148 -1.295330  0.051087 -0.161046 -0.309236
40  1.719411 -0.000100 -0.000034  0.023074 0.074459 -1.482138
41  1.099673 0.000027 0.000007  -0.005688 -0.003843 -0.924765
42  0.805979 -0.359854 -1.318338  1.330199 0.197557 -0.619517
43  1.789779 -0.000009 -0.000041  0.032551 0.123016 0.037179
44  1.206996 -0.000007 0.000005  0.000293 -0.001887 1.285959
45  5.740572 0.000056 0.000724  0.095215 -0.000014 0.000021
46  11.481050 0.000022 0.000924  0.015698 0.103223 0.120747
47  6.027514 -0.000273 -0.000236  -0.607999 -0.678990 -1.767183
48  -0.000002 11.691973 -0.000006  -1.323041 0.770758 0.960677
49  0.000004 -0.000001 -0.000000  2.518198 -0.000041 1.570856
50  -0.000007 -0.000015 0.000005  2.272644 -0.000030 1.570865
51  -3.788357 -4.934532 -7.723933  -0.245274 -2.971758 1.383861
52  0.000000 -0.000000 0.000000  0.008153 -0.000259 0.000009
53  -0.000000 0.000000 -0.000001  1.565115 0.043565 -0.106862
54  -1.122745 -17.890917 -5.635969  -0.966158 -0.086595 -1.859241
55  -0.000000 0.000000 -0.000000  0.000000 -0.000000 -0.000002
56  0.000030 0.000029 0.000001  -1.571901 -0.044449 -0.106509
57  8.666351 -12.971641 -17.721577  1.570796 -0.000000 0.000000
58  -15.265000 7.133661 -18.583086  1.570796 -0.000000 0.000000
59  -1.523137 -2.740167 -4.071830  1.570796 -0.000000 0.000000
60  -0.004311 0.001230 -0.000371  0.006898 -0.005534 -0.284229
61  2.046263 7.371444 -3.388127  1.570796 -0.000000 0.000000
62  0.000000 0.000000 0.000000  -0.078727 -3.136056 0.284226
63  0.000000 0.000000 0.000000  1.570796 -0.000000 0.000000
64  -2.991305 -13.129481 -3.044364  1.533720 0.082515 -0.003414
65  -0.005933 -2.262813 -2.946502  0.261799 0.000000 0.000000
66  -0.007405 -0.385017 -3.599065  0.000000 0.000000 0.000000
67  -0.007403 -0.398125 12.763615  0.000000 0.000000 0.000000
68  -0.007406 -3.312297 -1.336578  0.000000 0.000000 0.000000
69  -0.005934 0.810493 -2.333579  0.000000 0.000000 0.000000
70  0.000002 0.037560 1.926312  0.000000 0.174533 0.000000
71  -3.258301 -13.705553 -5.975460  1.533720 0.082515 -0.003414
72  0.184182 1.994351 -0.809969  0.000000 0.000000 0.000000
73  -0.114187 1.780463 -0.801675  0.000000 0.000000 0.000000
74  0.076509 1.501415 -0.809969  0.000000 0.000000 0.000000
time 3
0  0.000006 0.000000 0.000000  -1.570800 -1.391899 -1.570792
1  -3.518106 3.420410 -1.527451  -1.544956 -1.855077 -0.198630
2  6.027521 -0.000325 0.000194  -1.112986 -0.926445 -1.082981
3  11.692108 0.000645 -0.000739  -1.032253 -0.000028 -1.585689
4  11.479792 0.000272 -0.000972  0.995079 -0.693331 0.389799
5  3.859503 -0.142880 -1.192051  -0.778167 0.068914 -1.502592
6  1.312590 0.000009 0.000004  -0.135303 -0.037646 -0.288696
7  0.729358 0.000053 0.000045  0.004037 -0.012462 -0.362678
8  3.942139 0.046274 -0.431512  -0.693770 0.356114 -1.201512
9  1.539109 0.000085 0.000003  -0.032365 -0.079699 -0.453688
10  1.196334 0.000147 0.000030  0.008153 0.002732 -0.748207
11  3.883504 -0.047268 0.431381  -0.322019 0.643539 -0.630599
12  1.719575 -0.000027 0.000020  -0.033238 -0.086003 -0.823515
13  1.209179 0.000091 0.000014  -0.007835 -0.002562 -0.650932
14  3.859659 -0.138476 1.332409  0.166016 0.722762 -0.052367
15  1.719448 -0.000012 0.000022  -0.036329 0.033056 -0.412619
16  1.099674 0.000039 0.000003  -0.004181 0.004116 -1.256705
17  0.720887 -1.421158 1.005924  -0.760907 -0.593476 -0.498366
18  1.789823 -0.000002 -0.000016  0.022880 0.030024 0.834449
19  1.207007 -0.000013 -0.000045  -0.004342 -0.003284 -0.117962
20  5.740637 0.000410 -0.000703  -0.163295 0.000003 0.000071
21  11.480966 0.000267 -0.000853  -0.078258 -0.133339 0.024040
22  6.027525 -0.000330 0.000203  1.862525 -0.583189 1.559324
23  0.000002 11.692101 -0.000007  -1.080013 -0.524072 -0.841360
24  0.000003 0.000009 -0.000000  -0.163150 -0.000031 1.570738
25  0.000000 -0.000011 -0.000001  0.868957 0.000002 1.570712
26  -4.645759 -6.650901 2.046262  1.473120 1.855075 -0.198639
27  6.027508 -0.000259 -0.000230  1.503509 0.479564 -0.606401
28  11.691990 0.000242 0.000856  0.245671 0.000082 -1.973412
29  11.478156 -0.001401 0.001201  -1.285095 0.547113 0.756411
30  3.840239 -0.256103 1.127581  0.375755 0.017196 -2.109855
31  1.312558 0.000025 -0.000000  -0.016738 -0.067215 -0.358753
32  0.729347 0.000064 -0.000027  0.010499 -0.002285 -1.003070
33  3.942045 0.050109 0.430996  0.318069 -0.062504 -1.724927
34  1.539096 0.000010 0.000001  0.007072 -0.088740 -0.961961
35  1.196299 0.000077 -0.000004  0.008893 -0.001311 -1.206604
36  3.883411 -0.050501 -0.431087  0.154352 -0.157823 -1.573639
37  1.719563 -0.000079 -0.000003  -0.024403 -0.068048 -1.595299
38  1.209198 0.000036 0.000011  0.007422 -0.002547 -0.459485
39  3.806436 -0.112148 -1.295330  0.051087 -0.161046 -0.309236
40  1.719412 -0.000100 -0.000034  0.023074 0.074459 -1.482138
41  1.099674 0.000022 0.000007  -0.005688 -0.003843 -0.924765
42  0.805978 -0.359853 -1.318339  1.330199 0.197557 -0.619517
43  1.789780 -0.000009 -0.000042  0.032550 0.123016 0.037179
44  1.206996 -0.000006 0.000005  0.000293 -0.001887 1.285959
45  5.740571 0.000056 0.000723  0.100660 -0.000014 0.000021
46  11.480576 -0.000244 0.000989  0.021547 0.101775 0.120955
47  6.027514 -0.000273 -0.000236  -0.626506 -0.665038 -1.757225
48  -0.000002 11.691973 -0.000006  -1.308960 0.756288 0.955460
49  0.000003 -0.000001 -0.000001  2.518198 -0.000041 1.570856
50  -0.000007 -0.000015 0.000005  2.272644 -0.000030 1.570865
51  -3.798455 -5.179184 -7.640197  -0.223945 -2.982767 1.387490
52  0.000000 -0.000000 0.000000  0.008153 -0.000259 0.000009
53  -0.000000 0.000000 -0.000000  1.565115 0.043565 -0.106862
54  -1.087718 -18.130838 -5.581184  -0.946264 -0.073529 -1.853714
55  -0.000001 -0.000000 0.000000  0.000000 -0.000000 -0.000002
56  0.000030 0.000029 0.000001  -1.571901 -0.044449 -0.106509
57  8.666351 -12.971641 -17.721577  1.570796 -0.000000 0.000000
58  -15.265000 7.133661 -18.583086  1.570796 -0.000000 0.000000
59  -1.523137 -2.740167 -4.071830  1.570796 -0.000000 0.000000
60  -0.004311 0.001230 -0.000371  0.006898 -0.005534 -0.284229
61  2.046263 7.371444 -3.388127  1.570796 -0.000000 0.000000
62  0.000000 0.000000 0.000000  -0.078727 -3.136056 0.284226
63  0.000000 0.000000 0.000000  1.570796 -0.000000 0.000000
64  -3.048796 -13.401004 -3.000094  1.540676 0.059804 0.004199
65  -0.005933 -2.262813 -2.946503  0.261799 0.000000 0.000000
66  -0.007405 -0.385017 -3.599065  -0.000000 0.000000 0.000000
67  -0.007403 -0.398124 12.763618  -0.000000 0.000000 0.000000
68  -0.007406 -3.312297 -1.336577  -0.000000 0.000000 0.000000
69  -0.005934 0.810493 -2.333578  -0.000000 0.000000 0.000000
70  0.000002 0.037560 1.926313  -0.000000 0.043644 0.000000
71  -3.245089 -13.958326 -5.940388  1.540676 0.059804 0.004199
72  0.184183 1.994350 -0.809970  -0.000000 0.000000 0.000000
73  -0.114187 1.780463 -0.801675  -0.000000 0.000000 0.000000
74  0.076509 1.501416 -0.809969  -0.000000 0.000000 0.000000
time 4
0  0.000006 0.000000 0.000000  -1.570800 -1.391899 -1.570792
1  -3.518106 3.420410 -1.527451  -1.544956 -1.855077 -0.198630
2  6.027521 -0.000325 0.000193  -1.120988 -0.934846 -1.084826
3  11.692108 0.000645 -0.000739  -1.032252 -0.000026 -1.557117
4  11.480008 0.000339 -0.000862  1.015483 -0.687045 0.394510
5  3.859504 -0.142880 -1.192051  -0.778167 0.068914 -1.502592
6  1.312590 0.000009 0.000004  -0.135303 -0.037646 -0.288696
7  0.729358 0.000051 0.000047  0.004037 -0.012462 -0.362678
8  3.942138 0.046274 -0.431512  -0.693770 0.356114 -1.201512
9  1.539107 0.000087 0.000003  -0.032365 -0.079699 -0.453688
10  1.196333 0.000147 0.000030  0.008153 0.002732 -0.748207
11  3.883504 -0.047268 0.431381  -0.322019 0.643539 -0.630599
12  1.719573 -0.000030 0.000021  -0.033238 -0.086003 -0.823515
13  1.209179 0.000094 0.000013  -0.007835 -0.002562 -0.650932
14  3.859658 -0.138476 1.332409  0.166016 0.722762 -0.052367
15  1.719450 -0.000011 0.000022  -0.036329 0.033056 -0.412619
16  1.099676 0.000044 0.000002  -0.004181 0.004116 -1.256705
17  0.720886 -1.421158 1.005924  -0.760907 -0.593476 -0.498366
18  1.789824 -0.000001 -0.000016  0.022880 0.030024 0.834449
19  1.207009 -0.000013 -0.000044  -0.004342 -0.003284 -0.117962
20  5.740636 0.000409 -0.000705  -0.155371 0.000003 0.000071
21  11.481009 0.000280 -0.000833  -0.074727 -0.131737 0.026742
22  6.027525 -0.000330 0.000203  1.862695 -0.573525 1.550969
23  0.000002 11.692100 -0.000007  -1.063200 -0.507878 -0.831209
24  0.000003 0.000009 0.000000  -0.163150 -0.000031 1.570738
25  -0.000001 -0.000011 -0.000001  0.868957 0.000002 1.570712
26  -4.645759 -6.650901 2.046262  1.473120 1.855075 -0.198639
27  6.027508 -0.000259 -0.000230  1.510341 0.498125 -0.604561
28  11.691990 0.000243 0.000856  0.245671 0.000080 -1.944237
29  11.478413 -0.001296 0.001173  -1.260280 0.524789 0.753840
30  3.840239 -0.256104 1.127581  0.375755 0.017196 -2.109855
31  1.312558 0.000025 -0.000001  -0.016738 -0.067215 -0.358753
32  0.729345 0.000066 -0.000027  0.010499 -0.002285 -1.003070
33  3.942046 0.050109 0.430998  0.318069 -0.062504 -1.724927
34  1.539096 0.000010 -0.000000  0.007072 -0.088740 -0.961961
35  1.196299 0.000076 -0.000004  0.008893 -0.001311 -1.206604
36  3.883412 -0.050502 -0.431086  0.154352 -0.157823 -1.573639
37  1.719563 -0.000078 -0.000003  -0.024403 -0.068048 -1.595299
38  1.209196 0.000036 0.000011  0.007422 -0.002547 -0.459485
39  3.806436 -0.112148 -1.295328  0.051087 -0.161046 -0.309236
40  1.719411 -0.000099 -0.000035  0.023074 0.074459 -1.482138
41  1.099673 0.000022 0.000007  -0.005688 -0.003843 -0.924765
42  0.805979 -0.359854 -1.318337  1.330199 0.197557 -0.619517
43  1.789780 -0.000010 -0.000042  0.032550 0.123016 0.037179
44  1.206996 -0.000006 0.000005  0.000293 -0.001887 1.285959
45  5.740573 0.000055 0.000724  0.104724 -0.000014 0.000021
46  11.480627 -0.000224 0.000984  0.027845 0.099037 0.119860
47  6.027514 -0.000273 -0.000236  -0.644758 -0.651905 -1.747424
48  -0.000001 11.691975 -0.000006  -1.291344 0.738138 0.948595
49  0.000003 -0.000002 -0.000000  2.518198 -0.000041 1.570856
50  -0.000007 -0.000014 0.000005  2.272644 -0.000030 1.570865
51  -3.827078 -5.473386 -7.600493  -0.202936 -2.995141 1.396691
52  0.000000 0.000000 0.000000  0.008153 -0.000259 0.000009
53  0.000000 -0.000000 0.000001  1.565115 0.043565 -0.106862
54  -1.001978 -18.408005 -5.588663  -0.926776 -0.059170 -1.842611
55  -0.000001 0.000001 0.000000  0.000000 -0.000000 -0.000002
56  0.000030 0.000030 0.000001  -1.571902 -0.044449 -0.106509
57  8.666351 -12.971641 -17.721577  1.570796 -0.000000 0.000000
58  -15.265000 7.133661 -18.583086  1.570796 -0.000000 0.000000
59  -1.523137 -2.740167 -4.071830  1.570796 -0.000000 0.000000
60  -0.004311 0.001230 -0.000371  0.006898 -0.005534 -0.284229
61  2.046263 7.371444 -3.388127  1.570796 -0.000000 0.000000
62  0.000000 0.000000 0.000000  -0.078727 -3.136056 0.284226
63  0.000000 0.000000 0.000000  1.570796 -0.000000 0.000000
64  -3.079752 -13.725079 -3.013344  1.548931 0.037081 0.016994
65  -0.005933 -2.262813 -2.946504  0.261799 -0.000000 -0.000000
66  -0.007405 -0.385017 -3.599066  -0.000000 -0.000000 -0.000000
67  -0.007403 -0.398124 12.763614  -0.000000 -0.000000 -0.000000
68  -0.007406 -3.312297 -1.336578  -0.000000 -0.000000 -0.000000
69  -0.005934 0.810493 -2.333580  -0.000000 -0.000000 -0.000000
70  0.000002 0.037560 1.926311  -0.000000 -0.087266 -0.000000
71  -3.202631 -14.259396 -5.961882  1.548931 0.037081 0.016994
72  0.184182 1.994350 -0.809969  -0.000000 -0.000000 -0.000000
73  -0.114187 1.780463 -0.801674  -0.000000 -0.000000 -0.000000
74  0.076509 1.501415 -0.809969  -0.000000 -0.000000 -0.000000
time 5
0  0.000006 0.000000 0.000000  -1.570800 -1.391899 -1.570792
1  -3.518106 3.420410 -1.527451  -1.544956 -1.855077 -0.198630
2  6.027521 -0.000325 0.000193  -1.125939 -0.940830 -1.086309
3  11.692107 0.000644 -0.000741  -1.032251 -0.000024 -1.531612
4  11.480208 0.000404 -0.000753  1.026348 -0.677009 0.393254
5  3.859505 -0.142880 -1.192051  -0.778167 0.068914 -1.502592
6  1.312590 0.000012 0.000003  -0.135303 -0.037646 -0.288696
7  0.729357 0.000052 0.000046  0.004037 -0.012462 -0.362678
8  3.942140 0.046274 -0.431512  -0.693770 0.356114 -1.201512
9  1.539108 0.000086 0.000001  -0.032365 -0.079699 -0.453688
10  1.196334 0.000148 0.000030  0.008153 0.002732 -0.748207
11  3.883503 -0.047267 0.431380  -0.322019 0.643539 -0.630599
12  1.719574 -0.000028 0.000018  -0.033238 -0.086003 -0.823515
13  1.209180 0.000093 0.000015  -0.007835 -0.002562 -0.650932
14  3.859661 -0.138475 1.332410  0.166016 0.722762 -0.052367
15  1.719449 -0.000013 0.000023  -0.036329 0.033056 -0.412620
16  1.099674 0.000044 0.000002  -0.004181 0.004116 -1.256705
17  0.720887 -1.421158 1.005924  -0.760907 -0.593476 -0.498366
18  1.789826 0.000001 -0.000015  0.022880 0.030024 0.834449
19  1.207008 -0.000014 -0.000045  -0.004342 -0.003284 -0.117962
20  5.740638 0.000410 -0.000702  -0.149823 0.000003 0.000071
21  11.481049 0.000294 -0.000806  -0.073442 -0.129494 0.027838
22  6.027525 -0.000330 0.000203  1.862280 -0.566872 1.545717
23  0.000002 11.692101 -0.000006  -1.048160 -0.493550 -0.821963
24  0.000003 0.000009 -0.000001  -0.163150 -0.000031 1.570739
25  -0.000000 -0.000011 -0.000001  0.868957 0.000002 1.570712
26  -4.645759 -6.650901 2.046262  1.473120 1.855075 -0.198639
27  6.027508 -0.000259 -0.000230  1.513338 0.513915 -0.604075
28  11.691990 0.000243 0.000856  0.245671 0.000078 -1.919453
29  11.478628 -0.001199 0.001150  -1.249158 0.511348 0.750729
30  3.840240 -0.256103 1.127581  0.375755 0.017196 -2.109855
31  1.312558 0.000025 -0.000000  -0.016738 -0.067215 -0.358753
32  0.729346 0.000066 -0.000027  0.010499 -0.002285 -1.003070
33  3.942047 0.050109 0.430997  0.318069 -0.062504 -1.724927
34  1.539097 0.000010 -0.000001  0.007072 -0.088740 -0.961961
35  1.196299 0.000077 -0.000004  0.008893 -0.001311 -1.206604
36  3.883412 -0.050502 -0.431086  0.154352 -0.157823 -1.573639
37  1.719563 -0.000079 -0.000003  -0.024403 -0.068048 -1.595299
38  1.209197 0.000035 0.000010  0.007422 -0.002547 -0.459485
39  3.806436 -0.112148 -1.295329  0.049934 -0.187288 -0.284920
40  1.719412 -0.000100 -0.000034  0.043077 0.074172 -1.232699
41  1.099674 0.000025 0.000007  -0.006993 -0.001946 -0.663408
42  0.805979 -0.359853 -1.318338  1.330199 0.197557 -0.619517
43  1.789780 -0.000010 -0.000042  0.032551 0.123016 0.037179
44  1.206996 -0.000006 0.000005  0.000293 -0.001887 1.285959
45  5.740570 0.000057 0.000724  0.105971 -0.000014 0.000021
46  11.480668 -0.000203 0.000980  0.031009 0.097136 0.119150
47  6.027514 -0.000273 -0.000236  -0.661356 -0.642910 -1.738379
48  -0.000002 11.691974 -0.000006  -1.276472 0.722792 0.942517
49  0.000002 0.000001 -0.000001  2.518198 -0.000041 1.570856
50  -0.000008 -0.000015 0.000005  2.272644 -0.000030 1.570865
51  -3.826735 -5.717444 -7.583643  -0.194019 -3.003874 1.401975
52  0.000000 0.000000 0.000000  0.008153 -0.000259 0.000009
53  0.000001 0.000000 0.000001  1.565115 0.043565 -0.106862
54  -0.937147 -18.647415 -5.634505  -0.918827 -0.049621 -1.836496
55  0.000000 0.000000 0.000000  0.000000 -0.000000 -0.000002
56  0.000029 0.000029 0.000001  -1.571901 -0.044449 -0.106509
57  8.666351 -12.971641 -17.721577  1.570796 -0.000000 0.000000
58  -15.265000 7.133661 -18.583086  1.570796 -0.000000 0.000000
59  -1.523137 -2.740167 -4.071830  1.570796 -0.000000 0.000000
60  -0.004311 0.001230 -0.000371  0.006898 -0.005534 -0.284229
61  2.046263 7.371444 -3.388127  1.570796 -0.000000 0.000000
62  0.000000 0.000000 0.000000  -0.078727 -3.136056 0.284226
63  0.000000 0.000000 0.000000  1.570796 -0.000000 0.000000
64  -3.071773 -13.996601 -3.047516  1.555824 0.026750 0.023761
65  -0.005933 -2.262813 -2.946504  0.130900 -0.000000 0.000000
66  -0.007406 -0.385017 -3.599066  -0.000000 -0.000000 0.000000
67  -0.007403 -0.398124 12.763616  -0.000000 -0.000000 0.000000
68  -0.007406 -3.312296 -1.336579  -0.000000 -0.000000 0.000000
69  -0.005934 0.810493 -2.333578  -0.000000 -0.000000 0.000000
70  0.000002 0.037560 1.926311  -0.000000 -0.018824 0.000000
71  -3.161154 -14.510664 -6.000857  1.555824 0.026750 0.023761
72  0.184183 1.994351 -0.809969  -0.000000 -0.000000 0.000000
73  -0.114187 1.780465 -0.801675  -0.000000 -0.000000 0.000000
74  0.076510 1.501417 -0.809970  -0.000000 -0.000000 0.000000
time 6
0  0.000006 0.000000 0.000000  -1.570800 -1.391899 -1.570792
1  -3.518106 3.420410 -1.527451  -1.544956 -1.855077 -0.198630
2  6.027521 -0.000325 0.000193  -1.121086 -0.943724 -1.089791
3  11.692108 0.000644 -0.000739  -1.032250 -0.000023 -1.516224
4  11.480332 0.000442 -0.000689  1.021538 -0.663385 0.386187
5  3.859506 -0.142880 -1.192051  -0.778167 0.068914 -1.502592
6  1.312590 0.000011 0.000003  -0.135303 -0.037646 -0.288696
7  0.729357 0.000053 0.000047  0.004037 -0.012462 -0.362678
8  3.942139 0.046274 -0.431512  -0.693770 0.356114 -1.201512
9  1.539107 0.000086 0.000001  -0.032365 -0.079699 -0.453688
10  1.196334 0.000149 0.000028  0.008153 0.002732 -0.748207
11  3.883503 -0.047268 0.431380  -0.322019 0.643539 -0.630599
12  1.719572 -0.000030 0.000019  -0.033238 -0.086003 -0.823515
13  1.209181 0.000092 0.000014  -0.007836 -0.002562 -0.650932
14  3.859663 -0.138475 1.332410  0.166016 0.722762 -0.052367
15  1.719449 -0.000011 0.000023  -0.036329 0.033056 -0.412619
16  1.099677 0.000042 0.000002  -0.004181 0.004116 -1.256705
17  0.720889 -1.421158 1.005924  -0.760907 -0.593476 -0.498366
18  1.789825 0.000001 -0.000016  0.022880 0.030024 0.834449
19  1.207009 -0.000013 -0.000045  -0.004342 -0.003284 -0.117962
20  5.740636 0.000410 -0.000701  -0.148688 0.000003 0.000070
21  11.481073 0.000302 -0.000794  -0.075480 -0.126832 0.026931
22  6.027525 -0.000330 0.000203  1.857660 -0.565724 1.548639
23  0.000002 11.692101 -0.000006  -1.039069 -0.484965 -0.816301
24  0.000003 0.000009 -0.000002  -0.163150 -0.000030 1.570738
25  -0.000001 -0.000011 -0.000001  0.868957 0.000002 1.570712
26  -4.645759 -6.650901 2.046262  1.473120 1.855075 -0.198639
27  6.027508 -0.000259 -0.000229  1.510327 0.520901 -0.605806
28  11.691991 0.000243 0.000856  0.245671 0.000077 -1.909085
29  11.478724 -0.001157 0.001140  -1.255497 0.517127 0.751339
30  3.840239 -0.256104 1.127581  0.375755 0.017196 -2.109855
31  1.312558 0.000025 0.000000  -0.016738 -0.067215 -0.358753
32  0.729345 0.000065 -0.000027  0.010499 -0.002285 -1.003070
33  3.942046 0.050109 0.430997  0.318069 -0.062504 -1.724927
34  1.539097 0.000011 -0.000001  0.007072 -0.088740 -0.961961
35  1.196300 0.000076 -0.000004  0.008893 -0.001311 -1.206604
36  3.883411 -0.050502 -0.431087  0.154352 -0.157823 -1.573639
37  1.719563 -0.000080 -0.000003  -0.024403 -0.068048 -1.595299
38  1.209197 0.000036 0.000010  0.007422 -0.002547 -0.459485
39  3.806436 -0.112147 -1.295329  0.047995 -0.212283 -0.252017
40  1.719411 -0.000100 -0.000035  0.062387 0.068970 -0.983364
41  1.099674 0.000025 0.000007  -0.007793 0.000221 -0.402054
42  0.805979 -0.359854 -1.318337  1.330199 0.197557 -0.619517
43  1.789780 -0.000010 -0.000041  0.032550 0.123016 0.037179
44  1.206996 -0.000007 0.000005  0.000293 -0.001887 1.285959
45  5.740572 0.000055 0.000725  0.103971 -0.000014 0.000021
46  11.480690 -0.000196 0.000978  0.029394 0.097848 0.119403
47  6.027514 -0.000273 -0.000236  -0.670645 -0.642302 -1.733054
48  -0.000002 11.691972 -0.000005  -1.270273 0.716392 0.939909
49  0.000004 -0.000001 -0.000000  2.518198 -0.000041 1.570856
50  -0.000006 -0.000015 0.000005  2.272644 -0.000030 1.570865
51  -3.785470 -5.814077 -7.602685  -0.201050 -3.005457 1.396476
52  0.000001 -0.000000 0.000000  0.008153 -0.000259 0.000009
53  -0.000000 0.000000 0.000001  1.565115 0.043565 -0.106862
54  -0.966797 -18.767763 -5.707942  -0.925921 -0.048721 -1.842606
55  0.000000 0.000001 0.000001  0.000000 -0.000000 -0.000002
56  0.000029 0.000030 0.000002  -1.571901 -0.044449 -0.106509
57  8.666351 -12.971641 -17.721577  1.570796 -0.000000 0.000000
58  -15.265000 7.133661 -18.583086  1.570796 -0.000000 0.000000
59  -1.523137 -2.740167 -4.071830  1.570796 -0.000000 0.000000
60  -0.004311 0.001230 -0.000371  0.006898 -0.005534 -0.284229
61  2.046263 7.371444 -3.388127  1.570796 -0.000000 0.000000
62  0.000000 0.000000 0.000000  -0.078727 -3.136056 0.284226
63  0.000000 0.000000 0.000000  1.570796 -0.000000 0.000000
64  -3.054219 -14.110466 -3.094241  1.558709 0.033285 0.017389
65  -0.005933 -2.262813 -2.946505  0.000000 -0.000000 -0.000000
66  -0.007405 -0.385017 -3.599067  0.000000 -0.000000 -0.000000
67  -0.007403 -0.398125 12.763615  0.000000 -0.000000 -0.000000
68  -0.007406 -3.312297 -1.336579  0.000000 -0.000000 -0.000000
69  -0.005934 0.810492 -2.333580  0.000000 -0.000000 -0.000000
70  0.000002 0.037559 1.926311  0.000000 0.049610 -0.000000
71  -3.166367 -14.615757 -6.048318  1.558709 0.033285 0.017389
72  0.184183 1.994351 -0.809970  0.000000 -0.000000 -0.000000
73  -0.114187 1.780464 -0.801676  0.000000 -0.000000 -0.000000
74  0.076509 1.501416 -0.809970  0.000000 -0.000000 -0.000000
time 7
0  0.000006 0.000000 0.000000  -1.570800 -1.391899 -1.570792
1  -3.518106 3.420410 -1.527451  -1.544956 -1.855077 -0.198630
2  6.027521 -0.000325 0.000193  -1.114651 -0.941679 -1.091103
3  11.692109 0.000645 -0.000740  -1.032250 -0.000023 -1.514604
4  11.480345 0.000446 -0.000684  1.011046 -0.656710 0.375924
5  3.859504 -0.142880 -1.192051  -0.778167 0.068914 -1.502592
6  1.312590 0.000009 0.000001  -0.135303 -0.037646 -0.288696
7  0.729358 0.000054 0.000046  0.004037 -0.012462 -0.362678
8  3.942136 0.046274 -0.431513  -0.693770 0.356114 -1.201512
9  1.539108 0.000086 0.000002  -0.032365 -0.079699 -0.453688
10  1.196334 0.000147 0.000028  0.008153 0.002732 -0.748207
11  3.883504 -0.047269 0.431381  -0.322019 0.643539 -0.630599
12  1.719574 -0.000027 0.000020  -0.033238 -0.086003 -0.823515
13  1.209181 0.000096 0.000012  -0.007836 -0.002562 -0.650932
14  3.859660 -0.138476 1.332409  0.166016 0.722762 -0.052367
15  1.719447 -0.000011 0.000021  -0.036329 0.033056 -0.412619
16  1.099676 0.000041 0.000001  -0.004181 0.004116 -1.256705
17  0.720885 -1.421159 1.005924  -0.760907 -0.593476 -0.498366
18  1.789826 -0.000000 -0.000015  0.022880 0.030024 0.834449
19  1.207010 -0.000013 -0.000045  -0.004342 -0.003284 -0.117962
20  5.740637 0.000410 -0.000703  -0.150676 0.000003 0.000071
21  11.481076 0.000302 -0.000795  -0.078286 -0.125523 0.024646
22  6.027525 -0.000330 0.000203  1.854886 -0.569331 1.554025
23  0.000001 11.692100 -0.000006  -1.038111 -0.484063 -0.815701
24  0.000003 0.000008 -0.000002  -0.163150 -0.000031 1.570739
25  -0.000001 -0.000011 0.000000  0.868957 0.000002 1.570712
26  -4.645759 -6.650901 2.046262  1.473120 1.855075 -0.198639
27  6.027508 -0.000259 -0.000230  1.506988 0.517750 -0.607147
28  11.691989 0.000242 0.000857  0.245672 0.000077 -1.910085
29  11.478714 -0.001161 0.001141  -1.271390 0.525452 0.747435
30  3.840240 -0.256104 1.127581  0.375755 0.017196 -2.109855
31  1.312558 0.000027 0.000000  -0.016738 -0.067215 -0.358753
32  0.729344 0.000065 -0.000027  0.010499 -0.002285 -1.003070
33  3.942046 0.050109 0.430997  0.318069 -0.062504 -1.724927
34  1.539097 0.000010 0.000000  0.007072 -0.088740 -0.961961
35  1.196300 0.000076 -0.000003  0.008893 -0.001311 -1.206604
36  3.883411 -0.050501 -0.431086  0.154352 -0.157823 -1.573639
37  1.719564 -0.000081 -0.000004  -0.024403 -0.068048 -1.595299
38  1.209196 0.000036 0.000012  0.007422 -0.002547 -0.459485
39  3.806436 -0.112148 -1.295329  0.048012 -0.209563 -0.240658
40  1.719412 -0.000099 -0.000035  0.058241 0.072660 -1.040663
41  1.099673 0.000025 0.000007  -0.007921 -0.000256 -0.463035
42  0.805979 -0.359853 -1.318338  1.330199 0.197557 -0.619517
43  1.789780 -0.000008 -0.000042  0.032550 0.123016 0.037179
44  1.206996 -0.000007 0.000005  0.000293 -0.001887 1.285959
45  5.740572 0.000056 0.000724  0.100188 -0.000014 0.000021
46  11.480687 -0.000196 0.000978  0.026025 0.098401 0.119246
47  6.027514 -0.000273 -0.000236  -0.668641 -0.646272 -1.733941
48  -0.000001 11.691973 -0.000007  -1.270871 0.717009 0.940162
49  0.000004 -0.000002 -0.000000  2.518198 -0.000041 1.570856
50  -0.000007 -0.000015 0.000005  2.272644 -0.000030 1.570865
51  -3.778307 -5.794876 -7.652080  -0.215129 -3.001859 1.391862
52  0.000000 -0.000000 -0.000000  0.008153 -0.000259 0.000009
53  0.000000 0.000000 0.000000  1.565115 0.043565 -0.106862
54  -1.017512 -18.764780 -5.783241  -0.939465 -0.053668 -1.848463
55  -0.000000 -0.000001 -0.000000  0.000000 -0.000000 -0.000002
56  0.000029 0.000028 0.000000  -1.571902 -0.044449 -0.106509
57  8.666351 -12.971641 -17.721577  1.570796 -0.000000 0.000000
58  -15.265000 7.133661 -18.583086  1.570796 -0.000000 0.000000
59  -1.523137 -2.740167 -4.071830  1.570796 -0.000000 0.000000
60  -0.004311 0.001230 -0.000371  0.006898 -0.005534 -0.284229
61  2.046263 7.371444 -3.388127  1.570796 -0.000000 0.000000
62  0.000000 0.000000 0.000000  -0.078727 -3.136056 0.284226
63  0.000000 0.000000 0.000000  1.570796 -0.000000 0.000000
64  -3.036665 -14.091164 -3.145150  1.557819 0.047660 0.010803
65  -0.005933 -2.262813 -2.946503  0.000000 -0.000000 0.000000
66  -0.007405 -0.385017 -3.599066  0.000000 -0.000000 0.000000
67  -0.007403 -0.398124 12.763613  0.000000 -0.000000 0.000000
68  -0.007405 -3.312297 -1.336578  0.000000 -0.000000 0.000000
69  -0.005934 0.810492 -2.333579  0.000000 -0.000000 0.000000
70  0.000001 0.037560 1.926310  0.000000 0.024804 -0.000000
71  -3.194534 -14.598796 -6.096735  1.557819 0.047660 0.010803
72  0.184183 1.994350 -0.809968  0.000000 -0.000000 0.000000
73  -0.114187 1.780464 -0.801676  0.000000 -0.000000 0.000000
74  0.076510 1.501416 -0.809970  0.000000 -0.000000 0.000000
time 8
0  0.000006 0.000000 0.000000  -1.570800 -1.391899 -1.570792
1  -3.518106 3.420410 -1.527451  -1.544956 -1.855077 -0.198630
2  6.027521 -0.000325 0.000193  -1.110857 -0.937675 -1.090240
3  11.692108 0.000645 -0.000739  -1.032250 -0.000023 -1.518254
4  11.480314 0.000434 -0.000699  1.002936 -0.657798 0.364001
5  3.859503 -0.142881 -1.192051  -0.778167 0.068914 -1.502592
6  1.312589 0.000012 0.000001  -0.135303 -0.037646 -0.288696
7  0.729356 0.000055 0.000048  0.004037 -0.012462 -0.362678
8  3.942139 0.046273 -0.431513  -0.693770 0.356114 -1.201512
9  1.539107 0.000086 0.000004  -0.032365 -0.079699 -0.453688
10  1.196335 0.000146 0.000030  0.008153 0.002732 -0.748207
11  3.883503 -0.047269 0.431380  -0.322019 0.643539 -0.630599
12  1.719575 -0.000027 0.000022  -0.033238 -0.086003 -0.823515
13  1.209181 0.000094 0.000011  -0.007836 -0.002562 -0.650932
14  3.859658 -0.138476 1.332409  0.166016 0.722762 -0.052367
15  1.719448 -0.000012 0.000020  -0.036329 0.033056 -0.412619
16  1.099676 0.000042 0.000004  -0.004181 0.004116 -1.256705
17  0.720885 -1.421159 1.005923  -0.760907 -0.593476 -0.498366
18  1.789826 -0.000002 -0.000016  0.022880 0.030023 0.834449
19  1.207009 -0.000014 -0.000046  -0.004342 -0.003284 -0.117962
20  5.740637 0.000409 -0.000703  -0.153343 0.000003 0.000071
21  11.481069 0.000299 -0.000799  -0.080292 -0.125536 0.021778
22  6.027525 -0.000330 0.000203  1.854805 -0.573918 1.557995
23  0.000002 11.692100 -0.000006  -1.040269 -0.486094 -0.817051
24  0.000002 0.000009 -0.000001  -0.163150 -0.000031 1.570739
25  -0.000000 -0.000011 -0.000000  0.868957 0.000002 1.570712
26  -4.645759 -6.650901 2.046262  1.473120 1.855075 -0.198639
27  6.027508 -0.000259 -0.000230  1.507663 0.510217 -0.606414
28  11.691990 0.000244 0.000855  0.245671 0.000078 -1.912552
29  11.478693 -0.001172 0.001143  -1.288943 0.524590 0.735907
30  3.840240 -0.256104 1.127580  0.375755 0.017196 -2.109855
31  1.312558 0.000026 0.000001  -0.016738 -0.067215 -0.358753
32  0.729345 0.000065 -0.000027  0.010499 -0.002285 -1.003070
33  3.942047 0.050109 0.430997  0.318069 -0.062504 -1.724927
34  1.539097 0.000010 0.000001  0.007072 -0.088740 -0.961961
35  1.196300 0.000076 -0.000003  0.008893 -0.001311 -1.206604
36  3.883412 -0.050502 -0.431086  0.154352 -0.157823 -1.573639
37  1.719564 -0.000079 -0.000003  -0.024403 -0.068048 -1.595299
38  1.209197 0.000036 0.000012  0.007422 -0.002547 -0.459485
39  3.806436 -0.112148 -1.295329  0.048331 -0.206624 -0.236303
40  1.719413 -0.000099 -0.000035  0.048678 0.079736 -1.163594
41  1.099674 0.000025 0.000007  -0.008028 -0.001289 -0.593790
42  0.805979 -0.359854 -1.318337  1.330199 0.197557 -0.619517
43  1.789780 -0.000009 -0.000042  0.032551 0.123016 0.037179
44  1.206997 -0.000008 0.000005  0.000293 -0.001887 1.285959
45  5.740572 0.000055 0.000724  0.096040 -0.000014 0.000021
46  11.480684 -0.000198 0.000978  0.023341 0.097039 0.118072
47  6.027514 -0.000273 -0.000236  -0.659786 -0.648957 -1.738883
48  -0.000002 11.691975 -0.000005  -1.272345 0.718531 0.940785
49  0.000004 -0.000001 0.000000  2.518198 -0.000041 1.570856
50  -0.000007 -0.000014 0.000005  2.272644 -0.000030 1.570865
51  -3.837557 -5.759789 -7.707358  -0.228970 -2.996985 1.394125
52  -0.000001 0.000000 -0.000000  0.008153 -0.000259 0.000009
53  0.000000 -0.000000 0.000000  1.565115 0.043565 -0.106862
54  -1.046099 -18.724430 -5.847577  -0.952637 -0.059877 -1.847414
55  -0.000002 -0.000000 -0.000000  0.000000 -0.000000 -0.000002
56  0.000029 0.000029 0.000000  -1.571901 -0.044449 -0.106509
57  8.666351 -12.971641 -17.721577  1.570796 -0.000000 0.000000
58  -15.265000 7.133661 -18.583086  1.570796 -0.000000 0.000000
59  -1.523137 -2.740167 -4.071830  1.570796 -0.000000 0.000000
60  -0.004311 0.001230 -0.000371  0.006898 -0.005534 -0.284229
61  2.046263 7.371444 -3.388127  1.570796 -0.000000 0.000000
62  0.000000 0.000000 0.000000  -0.078727 -3.136056 0.284226
63  0.000000 0.000000 0.000000  1.570796 -0.000000 0.000000
64  -3.028686 -14.045135 -3.191875  1.555599 0.062033 0.010983
65  -0.005933 -2.262812 -2.946504  -0.000000 -0.000000 -0.000000
66  -0.007405 -0.385017 -3.599066  -0.000000 -0.000000 -0.000000
67  -0.007403 -0.398124 12.763615  -0.000000 -0.000000 -0.000000
68  -0.007406 -3.312297 -1.336579  -0.000000 -0.000000 -0.000000
69  -0.005934 0.810493 -2.333580  -0.000000 -0.000000 -0.000000
70  0.000002 0.037559 1.926313  -0.000000 -0.000000 -0.000000
71  -3.228724 -14.559824 -6.139679  1.555599 0.062033 0.010983
72  0.184183 1.994351 -0.809969  -0.000000 -0.000000 -0.000000
73  -0.114187 1.780464 -0.801674  -0.000000 -0.000000 -0.000000
74  0.076510 1.501416 -0.809969  -0.000000 -0.000000 -0.000000
time 9
0  0.000006 0.000000 0.000000  -1.570800 -1.391899 -1.570792
1  -3.518106 3.420410 -1.527451  -1.544956 -1.855077 -0.198630
2  6.027521 -0.000325 0.000193  -1.108982 -0.934331 -1.089003
3  11.692108 0.000644 -0.000739  -1.032250 -0.000024 -1.523473
4  11.480268 0.000424 -0.000720  1.000710 -0.660548 0.356753
5  3.859500 -0.142881 -1.192051  -0.778167 0.068914 -1.502592
6  1.312591 0.000009 0.000003  -0.135303 -0.037646 -0.288696
7  0.729358 0.000055 0.000047  0.004037 -0.012462 -0.362678
8  3.942136 0.046273 -0.431512  -0.693770 0.356114 -1.201512
9  1.539107 0.000088 0.000004  -0.032365 -0.079699 -0.453688
10  1.196335 0.000147 0.000029  0.008153 0.002732 -0.748207
11  3.883504 -0.047268 0.431381  -0.322019 0.643539 -0.630599
12  1.719576 -0.000029 0.000021  -0.033238 -0.086003 -0.823515
13  1.209180 0.000093 0.000013  -0.007835 -0.002562 -0.650932
14  3.859657 -0.138476 1.332409  0.166016 0.722762 -0.052368
15  1.719447 -0.000013 0.000021  -0.036329 0.033056 -0.412619
16  1.099674 0.000041 0.000001  -0.004181 0.004116 -1.256705
17  0.720885 -1.421159 1.005924  -0.760907 -0.593476 -0.498366
18  1.789825 -0.000001 -0.000017  0.022880 0.030024 0.834449
19  1.207010 -0.000013 -0.000045  -0.004342 -0.003284 -0.117962
20  5.740636 0.000411 -0.000701  -0.154784 0.000003 0.000071
21  11.481060 0.000298 -0.000801  -0.080903 -0.125858 0.020100
22  6.027525 -0.000330 0.000203  1.855523 -0.577390 1.560352
23  0.000003 11.692100 -0.000007  -1.043353 -0.489003 -0.818976
24  0.000004 0.000009 -0.000000  -0.163150 -0.000031 1.570739
25  -0.000000 -0.000011 -0.000000  0.868957 0.000002 1.570712
26  -4.645759 -6.650901 2.046262  1.473120 1.855075 -0.198639
27  6.027508 -0.000259 -0.000230  1.507206 0.503272 -0.606221
28  11.691990 0.000243 0.000856  0.245672 0.000078 -1.915602
29  11.478664 -0.001184 0.001147  -1.297981 0.524728 0.726464
30  3.840239 -0.256103 1.127580  0.375755 0.017196 -2.109855
31  1.312559 0.000025 -0.000001  -0.016738 -0.067215 -0.358753
32  0.729344 0.000065 -0.000028  0.010499 -0.002285 -1.003069
33  3.942047 0.050109 0.430997  0.318069 -0.062504 -1.724927
34  1.539097 0.000009 -0.000001  0.007072 -0.088740 -0.961961
35  1.196300 0.000076 -0.000005  0.008893 -0.001311 -1.206604
36  3.883412 -0.050502 -0.431087  0.154352 -0.157823 -1.573639
37  1.719564 -0.000079 -0.000002  -0.024403 -0.068048 -1.595299
38  1.209197 0.000035 0.000012  0.007422 -0.002547 -0.459485
39  3.806436 -0.112148 -1.295329  0.048500 -0.205491 -0.235932
40  1.719411 -0.000100 -0.000035  0.043933 0.082624 -1.220984
41  1.099673 0.000024 0.000007  -0.008025 -0.001772 -0.654771
42  0.805979 -0.359854 -1.318338  1.330199 0.197557 -0.619517
43  1.789780 -0.000009 -0.000042  0.032551 0.123016 0.037179
44  1.206998 -0.000006 0.000005  0.000293 -0.001887 1.285959
45  5.740572 0.000056 0.000724  0.093654 -0.000014 0.000021
46  11.480677 -0.000200 0.000979  0.022045 0.096411 0.116760
47  6.027514 -0.000273 -0.000236  -0.652087 -0.652253 -1.743131
48  -0.000002 11.691973 -0.000005  -1.274169 0.720414 0.941553
49  0.000005 -0.000002 -0.000001  2.518198 -0.000041 1.570856
50  -0.000007 -0.000015 0.000005  2.272644 -0.000030 1.570865
51  -3.879072 -5.719102 -7.760563  -0.234916 -2.992946 1.396087
52  -0.000000 -0.000000 -0.000000  0.008153 -0.000259 0.000009
53  -0.000000 -0.000000 0.000000  1.565115 0.043565 -0.106862
54  -1.061294 -18.675163 -5.880782  -0.958096 -0.064484 -1.845981
55  -0.000001 -0.000000 0.000000  0.000000 -0.000000 -0.000002
56  0.000028 0.000029 0.000001  -1.571901 -0.044449 -0.106509
57  8.666351 -12.971641 -17.721577  1.570796 -0.000000 0.000000
58  -15.265000 7.133661 -18.583086  1.570796 -0.000000 0.000000
59  -1.523137 -2.740167 -4.071830  1.570796 -0.000000 0.000000
60  -0.004311 0.001230 -0.000371  0.006898 -0.005534 -0.284229
61  2.046263 7.371444 -3.388127  1.570796 -0.000000 0.000000
62  0.000000 0.000000 0.000000  -0.078727 -3.136056 0.284226
63  0.000000 0.000000 0.000000  1.570796 -0.000000 0.000000
64  -3.031749 -13.990200 -3.226047  1.552718 0.068563 0.011888
65  -0.005933 -2.262812 -2.946504  -0.000000 0.000000 0.000000
66  -0.007405 -0.385017 -3.599066  -0.000000 0.000000 0.000000
67  -0.007403 -0.398124 12.763614  -0.000000 0.000000 0.000000
68  -0.007406 -3.312296 -1.336578  -0.000000 0.000000 0.000000
69  -0.005934 0.810492 -2.333580  -0.000000 0.000000 0.000000
70  0.000002 0.037560 1.926311  -0.000000 0.000000 0.000000
71  -3.250363 -14.513805 -6.170959  1.552718 0.068563 0.011888
72  0.184182 1.994350 -0.809971  -0.000000 0.000000 0.000000
73  -0.114187 1.780463 -0.801676  -0.000000 0.000000 0.000000
74  0.076509 1.501415 -0.809969  -0.000000 0.000000 0.000000
time 10
0  0.000006 0.000000 0.000000  -1.570800 -1.391899 -1.570792
1  -3.518106 3.420410 -1.527451  -1.544956 -1.855077 -0.198630
2  6.027521 -0.000325 0.000193  -1.110120 -0.932440 -1.087474
3  11.692108 0.000644 -0.000738  -1.032251 -0.000024 -1.528717
4  11.480231 0.000412 -0.000743  1.005178 -0.663581 0.356260
5  3.859506 -0.142881 -1.192050  -0.778167 0.068914 -1.502592
6  1.312591 0.000011 0.000002  -0.135303 -0.037646 -0.288696
7  0.729357 0.000054 0.000044  0.004037 -0.012462 -0.362678
8  3.942139 0.046273 -0.431512  -0.693770 0.356114 -1.201512
9  1.539108 0.000088 0.000003  -0.032365 -0.079699 -0.453688
10  1.196335 0.000148 0.000028  0.008153 0.002732 -0.748207
11  3.883502 -0.047269 0.431380  -0.322019 0.643539 -0.630599
12  1.719574 -0.000027 0.000018  -0.033238 -0.086003 -0.823515
13  1.209181 0.000094 0.000014  -0.007835 -0.002562 -0.650932
14  3.859661 -0.138476 1.332409  0.166016 0.722762 -0.052367
15  1.719449 -0.000011 0.000023  -0.036329 0.033056 -0.412619
16  1.099675 0.000042 0.000004  -0.004181 0.004116 -1.256705
17  0.720888 -1.421159 1.005924  -0.760907 -0.593476 -0.498366
18  1.789826 0.000001 -0.000016  0.022880 0.030024 0.834449
19  1.207008 -0.000013 -0.000045  -0.004342 -0.003284 -0.117962
20  5.740637 0.000411 -0.000702  -0.154512 0.000003 0.000070
21  11.481054 0.000296 -0.000806  -0.079945 -0.126294 0.020142
22  6.027525 -0.000330 0.000203  1.857304 -0.578736 1.559993
23  0.000003 11.692101 -0.000007  -1.046451 -0.491931 -0.820902
24  0.000004 0.000010 0.000000  -0.163150 -0.000031 1.570739
25  0.000000 -0.000011 -0.000001  0.868957 0.000002 1.570712
26  -4.645759 -6.650901 2.046262  1.473120 1.855075 -0.198639
27  6.027508 -0.000259 -0.000230  1.505127 0.499232 -0.606896
28  11.691990 0.000243 0.000857  0.245671 0.000078 -1.918051
29  11.478644 -0.001194 0.001149  -1.296008 0.526603 0.721619
30  3.840239 -0.256103 1.127580  0.375755 0.017196 -2.109855
31  1.312558 0.000026 0.000001  -0.016738 -0.067215 -0.358753
32  0.729344 0.000065 -0.000028  0.010499 -0.002285 -1.003069
33  3.942046 0.050109 0.430998  0.318069 -0.062504 -1.724927
34  1.539097 0.000010 0.000000  0.007072 -0.088740 -0.961961
35  1.196299 0.000076 -0.000004  0.008893 -0.001311 -1.206604
36  3.883411 -0.050502 -0.431087  0.154352 -0.157823 -1.573639
37  1.719563 -0.000080 -0.000003  -0.024403 -0.068048 -1.595299
38  1.209198 0.000035 0.000011  0.007422 -0.002547 -0.459485
39  3.806435 -0.112147 -1.295329  0.048500 -0.205491 -0.235932
40  1.719413 -0.000100 -0.000034  0.043933 0.082624 -1.220984
41  1.099674 0.000026 0.000007  -0.008025 -0.001772 -0.654771
42  0.805978 -0.359854 -1.318338  1.330199 0.197557 -0.619517
43  1.789780 -0.000009 -0.000042  0.032550 0.123016 0.037179
44  1.206996 -0.000006 0.000005  0.000293 -0.001887 1.285959
45  5.740574 0.000055 0.000724  0.093635 -0.000014 0.000021
46  11.480675 -0.000203 0.000979  0.022451 0.096812 0.115634
47  6.027514 -0.000273 -0.000236  -0.648432 -0.655604 -1.745030
48  -0.000002 11.691973 -0.000006  -1.275633 0.721926 0.942167
49  0.000003 -0.000000 0.000000  2.518197 -0.000041 1.570856
50  -0.000007 -0.000015 0.000005  2.272644 -0.000030 1.570865
51  -3.884072 -5.687179 -7.799874  -0.231207 -2.990725 1.397030
52  -0.000000 -0.000000 -0.000001  0.008153 -0.000259 0.000009
53  -0.000000 0.000000 0.000000  1.565115 0.043565 -0.106862
54  -1.053049 -18.633642 -5.874417  -0.954216 -0.066327 -1.844738
55  -0.000003 0.000000 0.000000  0.000000 -0.000000 -0.000002
56  0.000026 0.000029 0.000001  -1.571901 -0.044449 -0.106509
57  8.666351 -12.971641 -17.721577  1.570796 -0.000000 0.000000
58  -15.265000 7.133661 -18.583086  1.570796 -0.000000 0.000000
59  -1.523137 -2.740167 -4.071830  1.570796 -0.000000 0.000000
60  -0.004311 0.001230 -0.000371  0.006898 -0.005534 -0.284229
61  2.046263 7.371444 -3.388127  1.570796 -0.000000 0.000000
62  0.000000 0.000000 0.000000  -0.078727 -3.136056 0.284226
63  0.000000 0.000000 0.000000  1.570796 -0.000000 0.000000
64  -3.039053 -13.944172 -3.239297  1.549848 0.065372 0.013193
65  -0.005933 -2.262813 -2.946503  -0.000000 -0.000000 0.000000
66  -0.007405 -0.385017 -3.599066  -0.000000 -0.000000 0.000000
67  -0.007403 -0.398124 12.763614  -0.000000 -0.000000 0.000000
68  -0.007406 -3.312297 -1.336578  -0.000000 -0.000000 0.000000
69  -0.005934 0.810492 -2.333577  -0.000000 -0.000000 0.000000
70  0.000002 0.037560 1.926312  -0.000000 -0.000000 0.000000
71  -3.247375 -14.476410 -6.183408  1.549848 0.065372 0.013193
72  0.184183 1.994350 -0.809969  -0.000000 -0.000000 0.000000
73  -0.114187 1.780463 -0.801675  -0.000000 -0.000000 0.000000
74  0.076509 1.501416 -0.809969  -0.000000 -0.000000 0.000000
time 11
0  0.000006 0.000000 0.000000  -1.570800 -1.391899 -1.570792
1  -3.518106 3.420410 -1.527451  -1.544956 -1.855077 -0.198630
2  6.027521 -0.000325 0.000193  -1.112331 -0.932527 -1.086700
3  11.692109 0.000645 -0.000739  -1.032251 -0.000024 -1.531323
4  11.480209 0.000403 -0.000754  1.011904 -0.665425 0.358997
5  3.859506 -0.142881 -1.192051  -0.778167 0.068914 -1.502592
6  1.312590 0.000012 0.000001  -0.135303 -0.037646 -0.288696
7  0.729359 0.000053 0.000045  0.004037 -0.012462 -0.362678
8  3.942140 0.046273 -0.431512  -0.693770 0.356114 -1.201512
9  1.539108 0.000086 0.000001  -0.032365 -0.079699 -0.453688
10  1.196335 0.000148 0.000031  0.008153 0.002732 -0.748207
11  3.883505 -0.047269 0.431381  -0.322019 0.643539 -0.630599
12  1.719573 -0.000028 0.000021  -0.033238 -0.086003 -0.823515
13  1.209180 0.000095 0.000015  -0.007835 -0.002562 -0.650932
14  3.859661 -0.138477 1.332409  0.166016 0.722762 -0.052367
15  1.719447 -0.000012 0.000021  -0.036329 0.033056 -0.412619
16  1.099675 0.000041 0.000000  -0.004181 0.004116 -1.256705
17  0.720887 -1.421159 1.005924  -0.760907 -0.593476 -0.498366
18  1.789824 0.000000 -0.000016  0.022880 0.030024 0.834449
19  1.207012 -0.000013 -0.000045  -0.004342 -0.003284 -0.117962
20  5.740636 0.000410 -0.000702  -0.153381 0.000003 0.000071
21  11.481049 0.000294 -0.000809  -0.078484 -0.126557 0.021017
22  6.027525 -0.000330 0.000203  1.858639 -0.578033 1.558261
23  0.000002 11.692098 -0.000006  -1.047990 -0.493388 -0.821857
24  0.000002 0.000008 -0.000000  -0.163150 -0.000031 1.570738
25  -0.000000 -0.000011 -0.000000  0.868957 0.000002 1.570712
26  -4.645759 -6.650901 2.046262  1.473120 1.855075 -0.198639
27  6.027508 -0.000259 -0.000230  1.503240 0.498440 -0.607671
28  11.691990 0.000244 0.000857  0.245671 0.000078 -1.918556
29  11.478641 -0.001195 0.001149  -1.289308 0.528403 0.719991
30  3.840240 -0.256104 1.127580  0.375755 0.017196 -2.109855
31  1.312558 0.000025 -0.000001  -0.016738 -0.067215 -0.358753
32  0.729345 0.000066 -0.000027  0.010499 -0.002285 -1.003070
33  3.942046 0.050109 0.430998  0.318069 -0.062504 -1.724927
34  1.539097 0.000010 -0.000000  0.007072 -0.088740 -0.961961
35  1.196298 0.000076 -0.000004  0.008893 -0.001311 -1.206604
36  3.883411 -0.050502 -0.431087  0.154352 -0.157823 -1.573639
37  1.719563 -0.000079 -0.000004  -0.024403 -0.068048 -1.595299
38  1.209199 0.000036 0.000011  0.007422 -0.002547 -0.459485
39  3.806436 -0.112147 -1.295329  0.048500 -0.205491 -0.235932
40  1.719411 -0.000100 -0.000034  0.043933 0.082624 -1.220984
41  1.099674 0.000024 0.000007  -0.008025 -0.001772 -0.654771
42  0.805978 -0.359854 -1.318338  1.330199 0.197557 -0.619517
43  1.789780 -0.000009 -0.000042  0.032551 0.123016 0.037179
44  1.206997 -0.000006 0.000005  0.000293 -0.001887 1.285959
45  5.740572 0.000057 0.000723  0.094756 -0.000014 0.000021
46  11.480672 -0.000202 0.000979  0.023602 0.097512 0.114858
47  6.027514 -0.000273 -0.000236  -0.648402 -0.657440 -1.744921
48  -0.000000 11.691974 -0.000006  -1.275936 0.722238 0.942293
49  0.000005 -0.000000 -0.000000  2.518198 -0.000041 1.570856
50  -0.000006 -0.000015 0.000005  2.272644 -0.000030 1.570865
51  -3.871774 -5.678608 -7.818005  -0.223822 -2.989874 1.397273
52  0.000000 0.000000 -0.000001  0.008153 -0.000259 0.000009
53  -0.000000 0.000000 0.000000  1.565115 0.043565 -0.106862
54  -1.036926 -18.617136 -5.845422  -0.946850 -0.066445 -1.843871
55  -0.000001 -0.000000 0.000000  0.000000 -0.000000 -0.000002
56  0.000028 0.000029 0.000001  -1.571901 -0.044449 -0.106509
57  8.666351 -12.971641 -17.721577  1.570796 -0.000000 0.000000
58  -15.265000 7.133661 -18.583086  1.570796 -0.000000 0.000000
59  -1.523137 -2.740167 -4.071830  1.570796 -0.000000 0.000000
60  -0.004311 0.001230 -0.000371  0.006898 -0.005534 -0.284229
61  2.046263 7.371444 -3.388127  1.570796 -0.000000 0.000000
62  0.000000 0.000000 0.000000  -0.078727 -3.136056 0.284226
63  0.000000 0.000000 0.000000  1.570796 -0.000000 0.000000
64  -3.047771 -13.924870 -3.234227  1.547648 0.058358 0.014413
65  -0.005933 -2.262813 -2.946504  -0.000000 0.000000 -0.000000
66  -0.007405 -0.385017 -3.599065  -0.000000 0.000000 -0.000000
67  -0.007403 -0.398125 12.763615  -0.000000 0.000000 -0.000000
68  -0.007406 -3.312297 -1.336579  -0.000000 0.000000 -0.000000
69  -0.005934 0.810492 -2.333580  -0.000000 0.000000 -0.000000
70  0.000002 0.037559 1.926310  -0.000000 0.000000 -0.000000
71  -3.234627 -14.463556 -6.178606  1.547648 0.058358 0.014413
72  0.184183 1.994351 -0.809968  -0.000000 0.000000 -0.000000
73  -0.114187 1.780465 -0.801673  -0.000000 0.000000 -0.000000
74  0.076510 1.501416 -0.809967  -0.000000 0.000000 -0.000000
time 12
0  0.000006 0.000000 0.000000  -1.570800 -1.391899 -1.570792
1  -3.518106 3.420410 -1.527451  -1.544956 -1.855077 -0.198630
2  6.027521 -0.000325 0.000193  -1.114225 -0.934206 -1.086964
3  11.692108 0.000644 -0.000740  -1.032251 -0.000024 -1.530121
4  11.480216 0.000407 -0.000749  1.017862 -0.665150 0.362437
5  3.859504 -0.142881 -1.192051  -0.778167 0.068914 -1.502592
6  1.312589 0.000014 0.000003  -0.135303 -0.037646 -0.288696
7  0.729358 0.000052 0.000048  0.004037 -0.012462 -0.362678
8  3.942138 0.046273 -0.431512  -0.693770 0.356114 -1.201512
9  1.539109 0.000087 0.000003  -0.032365 -0.079699 -0.453688
10  1.196333 0.000147 0.000027  0.008153 0.002732 -0.748207
11  3.883505 -0.047268 0.431381  -0.322019 0.643539 -0.630599
12  1.719573 -0.000028 0.000018  -0.033238 -0.086003 -0.823515
13  1.209180 0.000095 0.000014  -0.007835 -0.002562 -0.650932
14  3.859658 -0.138476 1.332409  0.166016 0.722762 -0.052367
15  1.719450 -0.000012 0.000021  -0.036329 0.033056 -0.412619
16  1.099674 0.000041 -0.000001  -0.004181 0.004116 -1.256705
17  0.720886 -1.421160 1.005924  -0.760907 -0.593476 -0.498366
18  1.789826 -0.000001 -0.000015  0.022880 0.030024 0.834449
19  1.207011 -0.000013 -0.000045  -0.004342 -0.003284 -0.117962
20  5.740636 0.000411 -0.000703  -0.151928 0.000003 0.000070
21  11.481050 0.000295 -0.000808  -0.077246 -0.126462 0.022092
22  6.027525 -0.000330 0.000203  1.858865 -0.576019 1.556352
23  0.000002 11.692101 -0.000006  -1.047280 -0.492716 -0.821417
24  0.000003 0.000009 0.000001  -0.163150 -0.000030 1.570738
25  -0.000000 -0.000011 -0.000000  0.868957 0.000002 1.570712
26  -4.645759 -6.650901 2.046262  1.473120 1.855075 -0.198639
27  6.027508 -0.000259 -0.000230  1.502133 0.500534 -0.608283
28  11.691990 0.000243 0.000858  0.245671 0.000078 -1.916686
29  11.478659 -0.001188 0.001146  -1.281937 0.529472 0.720747
30  3.840240 -0.256103 1.127580  0.375755 0.017196 -2.109855
31  1.312559 0.000027 -0.000000  -0.016738 -0.067215 -0.358753
32  0.729346 0.000065 -0.000027  0.010499 -0.002285 -1.003070
33  3.942047 0.050110 0.430997  0.318069 -0.062504 -1.724927
34  1.539097 0.000010 0.000000  0.007072 -0.088740 -0.961961
35  1.196300 0.000075 -0.000005  0.008893 -0.001311 -1.206604
36  3.883412 -0.050501 -0.431087  0.154352 -0.157823 -1.573639
37  1.719563 -0.000079 -0.000003  -0.024403 -0.068048 -1.595299
38  1.209197 0.000035 0.000011  0.007422 -0.002547 -0.459485
39  3.806436 -0.112148 -1.295329  0.048500 -0.205491 -0.235932
40  1.719413 -0.000100 -0.000034  0.043933 0.082624 -1.220984
41  1.099673 0.000024 0.000007  -0.008025 -0.001772 -0.654771
42  0.805979 -0.359853 -1.318338  1.330199 0.197557 -0.619517
43  1.789780 -0.000009 -0.000042  0.032551 0.123016 0.037179
44  1.206997 -0.000007 0.000005  0.000293 -0.001887 1.285959
45  5.740573 0.000056 0.000723  0.096154 -0.000014 0.000021
46  11.480678 -0.000201 0.000979  0.024836 0.098145 0.114531
47  6.027514 -0.000273 -0.000236  -0.651319 -0.657440 -1.743221
48  -0.000001 11.691974 -0.000005  -1.274817 0.721083 0.941825
49  0.000004 -0.000002 -0.000001  2.518198 -0.000041 1.570856
50  -0.000006 -0.000015 0.000006  2.272644 -0.000030 1.570865
51  -3.852355 -5.697062 -7.817370  -0.216688 -2.990330 1.396866
52  0.000000 0.000000 0.000001  0.008153 -0.000259 0.000009
53  0.000000 0.000000 -0.000000  1.565115 0.043565 -0.106862
54  -1.022811 -18.632164 -5.814935  -0.939863 -0.065293 -1.843661
55  -0.000001 -0.000000 -0.000000  0.000000 -0.000000 -0.000002
56  0.000029 0.000029 0.000000  -1.571902 -0.044449 -0.106509
57  8.666351 -12.971641 -17.721577  1.570796 -0.000000 0.000000
58  -15.265000 7.133661 -18.583086  1.570796 -0.000000 0.000000
59  -1.523137 -2.740167 -4.071830  1.570796 -0.000000 0.000000
60  -0.004311 0.001230 -0.000371  0.006898 -0.005534 -0.284229
61  2.046263 7.371444 -3.388127  1.570796 -0.000000 0.000000
62  0.000000 0.000000 0.000000  -0.078727 -3.136056 0.284226
63  0.000000 0.000000 0.000000  1.570796 -0.000000 0.000000
64  -3.055076 -13.939249 -3.221551  1.546773 0.051345 0.015034
65  -0.005933 -2.262813 -2.946503  -0.000000 -0.000000 -0.000000
66  -0.007405 -0.385017 -3.599065  -0.000000 -0.000000 -0.000000
67  -0.007403 -0.398124 12.763617  -0.000000 -0.000000 -0.000000
68  -0.007405 -3.312297 -1.336577  -0.000000 -0.000000 -0.000000
69  -0.005934 0.810492 -2.333579  -0.000000 -0.000000 -0.000000
70  0.000002 0.037560 1.926312  -0.000000 -0.000000 -0.000000
71  -3.220885 -14.480320 -6.166754  1.546773 0.051345 0.015034
72  0.184183 1.994351 -0.809968  -0.000000 -0.000000 -0.000000
73  -0.114187 1.780464 -0.801674  -0.000000 -0.000000 -0.000000
74  0.076510 1.501416 -0.809968  -0.000000 -0.000000 -0.000000
time 13
0  0.000006 0.000000 0.000000  -1.570800 -1.391899 -1.570792
1  -3.518106 3.420410 -1.527451  -1.544956 -1.855077 -0.198630
2  6.027521 -0.000325 0.000193  -1.114949 -0.936587 -1.088064
3  11.692108 0.000644 -0.000739  -1.032251 -0.000024 -1.526394
4  11.480248 0.000415 -0.000734  1.020247 -0.663463 0.364490
5  3.859504 -0.142880 -1.192051  -0.778167 0.068914 -1.502592
6  1.312591 0.000010 0.000002  -0.135303 -0.037646 -0.288696
7  0.729359 0.000054 0.000047  0.004037 -0.012462 -0.362678
8  3.942138 0.046274 -0.431512  -0.693770 0.356114 -1.201512
9  1.539108 0.000086 0.000004  -0.032365 -0.079699 -0.453688
10  1.196333 0.000147 0.000028  0.008153 0.002732 -0.748207
11  3.883504 -0.047268 0.431381  -0.322019 0.643539 -0.630599
12  1.719572 -0.000029 0.000017  -0.033238 -0.086003 -0.823515
13  1.209181 0.000094 0.000014  -0.007835 -0.002562 -0.650932
14  3.859660 -0.138476 1.332409  0.166016 0.722762 -0.052367
15  1.719447 -0.000012 0.000020  -0.036329 0.033056 -0.412619
16  1.099673 0.000041 0.000002  -0.004181 0.004116 -1.256705
17  0.720886 -1.421158 1.005924  -0.760907 -0.593476 -0.498366
18  1.789826 0.000000 -0.000015  0.022880 0.030024 0.834449
19  1.207011 -0.000013 -0.000046  -0.004342 -0.003284 -0.117962
20  5.740637 0.000409 -0.000704  -0.151015 0.000003 0.000071
21  11.481057 0.000296 -0.000806  -0.076808 -0.126149 0.022736
22  6.027525 -0.000330 0.000203  1.857959 -0.573723 1.555162
23  0.000003 11.692100 -0.000007  -1.045079 -0.490634 -0.820050
24  0.000004 0.000008 -0.000001  -0.163150 -0.000031 1.570739
25  0.000000 -0.000011 -0.000001  0.868957 0.000002 1.570712
26  -4.645759 -6.650901 2.046262  1.473120 1.855075 -0.198639
27  6.027508 -0.000259 -0.000230  1.502573 0.503902 -0.608298
28  11.691991 0.000244 0.000856  0.245671 0.000078 -1.913729
29  11.478682 -0.001177 0.001144  -1.278161 0.529022 0.722529
30  3.840240 -0.256104 1.127582  0.375755 0.017196 -2.109855
31  1.312558 0.000025 -0.000001  -0.016738 -0.067215 -0.358753
32  0.729345 0.000065 -0.000028  0.010499 -0.002285 -1.003069
33  3.942046 0.050110 0.430998  0.318069 -0.062504 -1.724927
34  1.539097 0.000010 0.000001  0.007072 -0.088740 -0.961961
35  1.196298 0.000077 -0.000004  0.008893 -0.001311 -1.206604
36  3.883410 -0.050501 -0.431087  0.154352 -0.157823 -1.573639
37  1.719563 -0.000080 -0.000003  -0.024403 -0.068048 -1.595299
38  1.209196 0.000035 0.000011  0.007422 -0.002547 -0.459485
39  3.806436 -0.112148 -1.295329  0.048500 -0.205491 -0.235932
40  1.719412 -0.000100 -0.000034  0.043933 0.082624 -1.220984
41  1.099673 0.000023 0.000007  -0.008025 -0.001772 -0.654771
42  0.805978 -0.359854 -1.318337  1.330199 0.197557 -0.619517
43  1.789779 -0.000009 -0.000042  0.032550 0.123016 0.037179
44  1.206995 -0.000006 0.000005  0.000293 -0.001887 1.285959
45  5.740572 0.000055 0.000724  0.097006 -0.000014 0.000021
46  11.480680 -0.000200 0.000978  0.025487 0.098303 0.114671
47  6.027514 -0.000273 -0.000236  -0.654965 -0.655665 -1.741222
48  0.000000 11.691973 -0.000007  -1.273049 0.719257 0.941082
49  0.000004 -0.000001 -0.000001  2.518198 -0.000041 1.570856
50  -0.000006 -0.000015 0.000004  2.272644 -0.000030 1.570865
51  -3.840628 -5.729434 -7.800000  -0.213592 -2.991288 1.396380
52  -0.000001 -0.000000 0.000001  0.008153 -0.000259 0.000009
53  -0.000000 0.000000 0.000000  1.565115 0.043565 -0.106862
54  -1.017731 -18.665424 -5.793917  -0.936906 -0.064038 -1.843873
55  -0.000002 0.000000 0.000000  0.000000 -0.000000 -0.000002
56  0.000027 0.000029 0.000001  -1.571901 -0.044449 -0.106509
57  8.666351 -12.971641 -17.721577  1.570796 -0.000000 0.000000
58  -15.265000 7.133661 -18.583086  1.570796 -0.000000 0.000000
59  -1.523137 -2.740167 -4.071830  1.570796 -0.000000 0.000000
60  -0.004311 0.001230 -0.000371  0.006898 -0.005534 -0.284229
61  2.046263 7.371444 -3.388127  1.570796 -0.000000 0.000000
62  0.000000 0.000000 0.000000  -0.078727 -3.136056 0.284226
63  0.000000 0.000000 0.000000  1.570796 -0.000000 0.000000
64  -3.058139 -13.973536 -3.205074  1.547139 0.048159 0.015032
65  -0.005933 -2.262813 -2.946502  -0.000000 0.000000 -0.000000
66  -0.007405 -0.385017 -3.599064  -0.000000 0.000000 -0.000000
67  -0.007403 -0.398124 12.763615  -0.000000 0.000000 -0.000000
68  -0.007406 -3.312297 -1.336579  -0.000000 0.000000 -0.000000
69  -0.005934 0.810492 -2.333578  -0.000000 0.000000 -0.000000
70  0.000002 0.037559 1.926311  -0.000000 0.000000 -0.000000
71  -3.214590 -14.513387 -6.151011  1.547139 0.048159 0.015032
72  0.184183 1.994350 -0.809968  -0.000000 0.000000 -0.000000
73  -0.114187 1.780463 -0.801674  -0.000000 0.000000 -0.000000
74  0.076510 1.501415 -0.809969  -0.000000 0.000000 -0.000000
time 14
0  0.000006 0.000000 0.000000  -1.570800 -1.391899 -1.570792
1  -3.518106 3.420410 -1.527451  -1.544956 -1.855077 -0.198630
2  6.027521 -0.000325 0.000193  -1.114507 -0.939039 -1.089643
3  11.692110 0.000645 -0.000740  -1.032250 -0.000024 -1.521562
4  11.480289 0.000428 -0.000715  1.019145 -0.661207 0.364053
5  3.859505 -0.142881 -1.192050  -0.778167 0.068914 -1.502592
6  1.312589 0.000010 0.000003  -0.135303 -0.037646 -0.288696
7  0.729357 0.000054 0.000045  0.004037 -0.012462 -0.362678
8  3.942140 0.046273 -0.431512  -0.693770 0.356114 -1.201512
9  1.539108 0.000085 0.000000  -0.032365 -0.079699 -0.453688
10  1.196335 0.000146 0.000031  0.008153 0.002732 -0.748207
11  3.883504 -0.047269 0.431381  -0.322019 0.643539 -0.630599
12  1.719574 -0.000028 0.000017  -0.033238 -0.086003 -0.823515
13  1.209180 0.000095 0.000014  -0.007835 -0.002562 -0.650932
14  3.859661 -0.138476 1.332410  0.166016 0.722762 -0.052367
15  1.719449 -0.000012 0.000023  -0.036329 0.033056 -0.412619
16  1.099676 0.000044 0.000001  -0.004181 0.004116 -1.256705
17  0.720888 -1.421159 1.005924  -0.760907 -0.593476 -0.498366
18  1.789827 0.000001 -0.000016  0.022880 0.030024 0.834449
19  1.207009 -0.000013 -0.000045  -0.004342 -0.003284 -0.117962
20  5.740638 0.000409 -0.000705  -0.150886 0.000003 0.000071
21  11.481066 0.000299 -0.000801  -0.077158 -0.125738 0.022704
22  6.027525 -0.000330 0.000203  1.856292 -0.571693 1.554843
23  0.000001 11.692101 -0.000006  -1.042225 -0.487938 -0.818272
24  0.000003 0.000009 -0.000003  -0.163150 -0.000030 1.570738
25  -0.000001 -0.000011 -0.000000  0.868957 0.000002 1.570712
26  -4.645759 -6.650901 2.046262  1.473120 1.855075 -0.198639
27  6.027508 -0.000259 -0.000230  1.504454 0.507141 -0.607662
28  11.691990 0.000244 0.000856  0.245671 0.000077 -1.910395
29  11.478709 -0.001163 0.001139  -1.279330 0.527043 0.723289
30  3.840239 -0.256103 1.127579  0.375755 0.017196 -2.109855
31  1.312558 0.000026 0.000000  -0.016738 -0.067215 -0.358753
32  0.729345 0.000066 -0.000027  0.010499 -0.002285 -1.003070
33  3.942046 0.050109 0.430996  0.318069 -0.062504 -1.724927
34  1.539097 0.000010 -0.000000  0.007072 -0.088740 -0.961961
35  1.196300 0.000076 -0.000005  0.008893 -0.001311 -1.206604
36  3.883411 -0.050502 -0.431088  0.154352 -0.157823 -1.573639
37  1.719563 -0.000080 -0.000004  -0.024403 -0.068048 -1.595299
38  1.209197 0.000036 0.000011  0.007422 -0.002547 -0.459485
39  3.806436 -0.112148 -1.295331  0.048500 -0.205491 -0.235932
40  1.719412 -0.000100 -0.000034  0.043933 0.082624 -1.220984
41  1.099674 0.000026 0.000006  -0.008025 -0.001772 -0.654771
42  0.805979 -0.359854 -1.318339  1.330199 0.197557 -0.619517
43  1.789779 -0.000009 -0.000042  0.032550 0.123016 0.037179
44  1.206996 -0.000007 0.000005  0.000293 -0.001887 1.285959
45  5.740571 0.000056 0.000723  0.096941 -0.000014 0.000021
46  11.480684 -0.000197 0.000977  0.025390 0.097875 0.114964
47  6.027514 -0.000273 -0.000236  -0.657781 -0.652801 -1.739784
48  -0.000001 11.691973 -0.000006  -1.271056 0.717200 0.940241
49  0.000004 -0.000001 0.000000  2.518198 -0.000041 1.570856
50  -0.000006 -0.000015 0.000005  2.272644 -0.000030 1.570865
51  -3.844435 -5.766623 -7.776018  -0.215176 -2.991796 1.396370
52  -0.000000 0.000000 -0.000001  0.008153 -0.000259 0.000009
53  0.000000 0.000000 -0.000001  1.565115 0.043565 -0.106862
54  -1.021821 -18.704851 -5.784023  -0.938518 -0.063687 -1.844017
55  -0.000002 -0.000001 0.000000  0.000000 -0.000000 -0.000002
56  0.000027 0.000029 0.000001  -1.571901 -0.044449 -0.106509
57  8.666351 -12.971641 -17.721577  1.570796 -0.000000 0.000000
58  -15.265000 7.133661 -18.583086  1.570796 -0.000000 0.000000
59  -1.523137 -2.740167 -4.071830  1.570796 -0.000000 0.000000
60  -0.004311 0.001230 -0.000371  0.006898 -0.005534 -0.284229
61  2.046263 7.371444 -3.388127  1.570796 -0.000000 0.000000
62  0.000000 0.000000 0.000000  -0.078727 -3.136056 0.284226
63  0.000000 0.000000 0.000000  1.570796 -0.000000 0.000000
64  -3.057302 -14.014460 -3.188596  1.547933 0.049601 0.014824
65  -0.005933 -2.262813 -2.946503  -0.000000 -0.000000 -0.000000
66  -0.007405 -0.385017 -3.599066  -0.000000 -0.000000 -0.000000
67  -0.007403 -0.398124 12.763616  -0.000000 -0.000000 -0.000000
68  -0.007406 -3.312297 -1.336578  -0.000000 -0.000000 -0.000000
69  -0.005934 0.810492 -2.333580  -0.000000 -0.000000 -0.000000
70  0.000002 0.037560 1.926311  -0.000000 -0.000000 -0.000000
71  -3.218171 -14.551998 -6.134718  1.547933 0.049601 0.014824
72  0.184183 1.994350 -0.809969  -0.000000 -0.000000 -0.000000
73  -0.114187 1.780464 -0.801675  -0.000000 -0.000000 -0.000000
74  0.076509 1.501415 -0.809969  -0.000000 -0.000000 -0.000000
time 15
0  0.000006 0.000000 0.000000  -1.570800 -1.391899 -1.570792
1  -3.518106 3.420410 -1.527451  -1.544956 -1.855077 -0.198630
2  6.027521 -0.000325 0.000193  -1.113711 -0.940983 -1.091066
3  11.692108 0.000645 -0.000739  -1.032250 -0.000023 -1.517391
4  11.480322 0.000439 -0.000695  1.017090 -0.659266 0.362873
5  3.859505 -0.142882 -1.192050  -0.778167 0.068914 -1.502592
6  1.312589 0.000011 0.000004  -0.135303 -0.037646 -0.288696
7  0.729359 0.000052 0.000048  0.004037 -0.012462 -0.362678
8  3.942137 0.046272 -0.431512  -0.693770 0.356114 -1.201512
9  1.539108 0.000086 0.000002  -0.032365 -0.079699 -0.453688
10  1.196335 0.000147 0.000030  0.008153 0.002732 -0.748207
11  3.883504 -0.047270 0.431382  -0.322019 0.643539 -0.630599
12  1.719574 -0.000028 0.000022  -0.033238 -0.086003 -0.823515
13  1.209181 0.000092 0.000013  -0.007835 -0.002562 -0.650932
14  3.859659 -0.138477 1.332410  0.166016 0.722762 -0.052367
15  1.719449 -0.000012 0.000021  -0.036329 0.033056 -0.412619
16  1.099675 0.000044 0.000002  -0.004181 0.004116 -1.256705
17  0.720885 -1.421160 1.005924  -0.760907 -0.593476 -0.498366
18  1.789826 -0.000000 -0.000016  0.022880 0.030024 0.834449
19  1.207012 -0.000013 -0.000045  -0.004342 -0.003284 -0.117962
20  5.740636 0.000410 -0.000704  -0.151052 0.000003 0.000071
21  11.481072 0.000301 -0.000796  -0.077700 -0.125387 0.022448
22  6.027525 -0.000330 0.000203  1.854702 -0.570207 1.554922
23  0.000001 11.692100 -0.000006  -1.039759 -0.485614 -0.816732
24  0.000001 0.000008 -0.000001  -0.163150 -0.000031 1.570738
25  -0.000001 -0.000011 0.000000  0.868957 0.000002 1.570712
26  -4.645759 -6.650901 2.046262  1.473120 1.855075 -0.198639
27  6.027508 -0.000259 -0.000230  1.506429 0.509612 -0.606930
28  11.691989 0.000244 0.000856  0.245671 0.000077 -1.907663
29  11.478733 -0.001152 0.001138  -1.281894 0.524958 0.723560
30  3.840240 -0.256104 1.127581  0.375755 0.017196 -2.109855
31  1.312558 0.000026 -0.000000  -0.016738 -0.067215 -0.358753
32  0.729344 0.000065 -0.000027  0.010499 -0.002285 -1.003070
33  3.942048 0.050109 0.430997  0.318069 -0.062504 -1.724927
34  1.539096 0.000010 0.000001  0.007072 -0.088740 -0.961961
35  1.196299 0.000076 -0.000004  0.008893 -0.001311 -1.206604
36  3.883412 -0.050502 -0.431087  0.154352 -0.157823 -1.573639
37  1.719563 -0.000079 -0.000003  -0.024403 -0.068048 -1.595299
38  1.209198 0.000035 0.000011  0.007422 -0.002547 -0.459485
39  3.806437 -0.112147 -1.295329  0.048500 -0.205491 -0.235932
40  1.719413 -0.000100 -0.000034  0.043933 0.082624 -1.220984
41  1.099673 0.000024 0.000007  -0.008025 -0.001772 -0.654771
42  0.805980 -0.359854 -1.318338  1.330199 0.197557 -0.619517
43  1.789779 -0.000009 -0.000042  0.032551 0.123016 0.037179
44  1.206996 -0.000006 0.000005  0.000293 -0.001887 1.285959
45  5.740571 0.000055 0.000723  0.096582 -0.000014 0.000021
46  11.480691 -0.000195 0.000977  0.025066 0.097340 0.115246
47  6.027514 -0.000273 -0.000236  -0.659672 -0.650189 -1.738865
48  -0.000002 11.691974 -0.000005  -1.269424 0.715515 0.939548
49  0.000003 -0.000003 -0.000000  2.518197 -0.000041 1.570856
50  -0.000006 -0.000015 0.000005  2.272644 -0.000030 1.570865
51  -3.852955 -5.797243 -7.755005  -0.217987 -2.992070 1.396516
52  0.000000 -0.000000 0.000000  0.008153 -0.000259 0.000009
53  0.000001 0.000000 0.000000  1.565115 0.043565 -0.106862
54  -1.028543 -18.737736 -5.780340  -0.941317 -0.063689 -1.844112
55  -0.000001 -0.000000 -0.000000  0.000000 -0.000000 -0.000002
56  0.000028 0.000028 0.000001  -1.571901 -0.044449 -0.106509
57  8.666351 -12.971641 -17.721577  1.570796 -0.000000 0.000000
58  -15.265000 7.133661 -18.583086  1.570796 -0.000000 0.000000
59  -1.523137 -2.740167 -4.071830  1.570796 -0.000000 0.000000
60  -0.004311 0.001230 -0.000371  0.006898 -0.005534 -0.284229
61  2.046263 7.371444 -3.388127  1.570796 -0.000000 0.000000
62  0.000000 0.000000 0.000000  -0.078727 -3.136056 0.284226
63  0.000000 0.000000 0.000000  1.570796 -0.000000 0.000000
64  -3.055747 -14.048746 -3.175920  1.548726 0.052280 0.014591
65  -0.005933 -2.262812 -2.946504  0.000000 0.000000 0.000000
66  -0.007405 -0.385017 -3.599065  0.000000 0.000000 0.000000
67  -0.007403 -0.398124 12.763616  0.000000 0.000000 0.000000
68  -0.007405 -3.312298 -1.336578  0.000000 0.000000 0.000000
69  -0.005934 0.810492 -2.333579  0.000000 0.000000 0.000000
70  0.000002 0.037559 1.926312  0.000000 0.000000 0.000000
71  -3.224689 -14.584023 -6.122003  1.548726 0.052280 0.014591
72  0.184183 1.994351 -0.809968  0.000000 0.000000 0.000000
73  -0.114187 1.780463 -0.801674  0.000000 0.000000 0.000000
74  0.076510 1.501416 -0.809967  0.000000 0.000000 0.000000
time 16
0  0.000006 0.000000 0.000000  -1.570800 -1.391899 -1.570792
1  -3.518106 3.420410 -1.527451  -1.544956 -1.855077 -0.198630
2  6.027521 -0.000325 0.000193  -1.113284 -0.941774 -1.091687
3  11.692108 0.000644 -0.000739  -1.032250 -0.000023 -1.515614
4  11.480338 0.000444 -0.000685  1.015981 -0.658441 0.362202
5  3.859507 -0.142880 -1.192051  -0.778167 0.068914 -1.502592
6  1.312589 0.000010 0.000005  -0.135303 -0.037646 -0.288696
7  0.729358 0.000054 0.000046  0.004037 -0.012462 -0.362678
8  3.942140 0.046273 -0.431512  -0.693770 0.356114 -1.201512
9  1.539108 0.000088 0.000005  -0.032365 -0.079699 -0.453688
10  1.196334 0.000147 0.000032  0.008153 0.002732 -0.748207
11  3.883506 -0.047268 0.431381  -0.322019 0.643539 -0.630599
12  1.719575 -0.000029 0.000018  -0.033238 -0.086003 -0.823515
13  1.209181 0.000095 0.000013  -0.007836 -0.002562 -0.650932
14  3.859663 -0.138476 1.332409  0.166016 0.722762 -0.052368
15  1.719447 -0.000013 0.000023  -0.036329 0.033056 -0.412619
16  1.099675 0.000043 0.000001  -0.004181 0.004116 -1.256705
17  0.720889 -1.421159 1.005924  -0.760907 -0.593476 -0.498366
18  1.789825 0.000001 -0.000015  0.022880 0.030024 0.834449
19  1.207008 -0.000013 -0.000045  -0.004342 -0.003284 -0.117962
20  5.740637 0.000411 -0.000703  -0.151181 0.000003 0.000070
21  11.481076 0.000302 -0.000795  -0.077982 -0.125238 0.022291
22  6.027525 -0.000330 0.000203  1.853992 -0.569630 1.555030
23  0.000003 11.692100 -0.000007  -1.038709 -0.484625 -0.816075
24  0.000003 0.000008 -0.000002  -0.163150 -0.000031 1.570739
25  -0.000000 -0.000012 -0.000001  0.868957 0.000002 1.570712
26  -4.645759 -6.650901 2.046262  1.473120 1.855075 -0.198639
27  6.027508 -0.000259 -0.000230  1.507344 0.510597 -0.606578
28  11.691990 0.000243 0.000857  0.245672 0.000077 -1.906529
29  11.478743 -0.001148 0.001136  -1.283313 0.523991 0.723594
30  3.840240 -0.256105 1.127580  0.375755 0.017196 -2.109855
31  1.312558 0.000025 -0.000001  -0.016738 -0.067215 -0.358753
32  0.729344 0.000067 -0.000027  0.010499 -0.002285 -1.003069
33  3.942047 0.050109 0.430996  0.318069 -0.062504 -1.724927
34  1.539097 0.000011 -0.000001  0.007072 -0.088740 -0.961961
35  1.196300 0.000075 -0.000004  0.008893 -0.001311 -1.206604
36  3.883412 -0.050502 -0.431088  0.154352 -0.157823 -1.573639
37  1.719564 -0.000079 -0.000004  -0.024403 -0.068048 -1.595299
38  1.209197 0.000036 0.000011  0.007422 -0.002547 -0.459485
39  3.806437 -0.112148 -1.295330  0.048500 -0.205491 -0.235932
40  1.719412 -0.000099 -0.000034  0.043933 0.082624 -1.220984
41  1.099674 0.000026 0.000007  -0.008025 -0.001772 -0.654771
42  0.805979 -0.359854 -1.318339  1.330199 0.197557 -0.619517
43  1.789779 -0.000009 -0.000042  0.032551 0.123016 0.037179
44  1.206996 -0.000006 0.000006  0.000293 -0.001887 1.285959
45  5.740571 0.000055 0.000723  0.096366 -0.000014 0.000021
46  11.480692 -0.000194 0.000977  0.024878 0.097077 0.115372
47  6.027514 -0.000273 -0.000236  -0.660366 -0.649048 -1.738541
48  -0.000001 11.691971 -0.000006  -1.268747 0.714817 0.939260
49  0.000003 -0.000001 -0.000000  2.518197 -0.000041 1.570856
50  -0.000007 -0.000015 0.000005  2.272644 -0.000030 1.570865
51  -3.857683 -5.809970 -7.745982  -0.219488 -2.992152 1.396611
52  -0.000000 -0.000000 0.000000  0.008153 -0.000259 0.000009
53  0.000000 -0.000000 -0.000000  1.565115 0.043565 -0.106862
54  -1.032081 -18.751493 -5.779789  -0.942805 -0.063753 -1.844146
55  -0.000000 -0.000000 0.000000  0.000000 -0.000000 -0.000002
56  0.000029 0.000029 0.000001  -1.571901 -0.044449 -0.106509
57  8.666351 -12.971641 -17.721577  1.570796 -0.000000 0.000000
58  -15.265000 7.133661 -18.583086  1.570796 -0.000000 0.000000
59  -1.523137 -2.740167 -4.071830  1.570796 -0.000000 0.000000
60  -0.004311 0.001230 -0.000371  0.006898 -0.005534 -0.284229
61  2.046263 7.371444 -3.388127  1.570796 -0.000000 0.000000
62  0.000000 0.000000 0.000000  -0.078727 -3.136056 0.284226
63  0.000000 0.000000 0.000000  1.570796 -0.000000 0.000000
64  -3.054910 -14.063125 -3.170850  1.549086 0.053723 0.014481
65  -0.005933 -2.262813 -2.946503  -0.000000 0.000000 0.000000
66  -0.007405 -0.385017 -3.599067  -0.000000 0.000000 0.000000
67  -0.007403 -0.398124 12.763615  -0.000000 0.000000 0.000000
68  -0.007406 -3.312297 -1.336580  -0.000000 0.000000 0.000000
69  -0.005934 0.810493 -2.333581  -0.000000 0.000000 0.000000
70  0.000002 0.037559 1.926310  -0.000000 0.000000 0.000000
71  -3.228184 -14.597383 -6.116866  1.549086 0.053723 0.014481
72  0.184183 1.994351 -0.809968  -0.000000 0.000000 0.000000
73  -0.114187 1.780464 -0.801674  -0.000000 0.000000 0.000000
74  0.076510 1.501416 -0.809968  -0.000000 0.000000 0.000000
end
