version 1
nodes
0 "ValveBiped.Bip01_Spine4" -1
1 "ValveBiped.Bip01_L_Clavicle" 0
2 "ValveBiped.Bip01_L_UpperArm" 1
3 "ValveBiped.Bip01_L_Forearm" 2
4 "ValveBiped.Bip01_L_Hand" 3
5 "ValveBiped.Bip01_L_Finger4" 4
6 "ValveBiped.Bip01_L_Finger41" 5
7 "ValveBiped.Bip01_L_Finger42" 6
8 "ValveBiped.Bip01_L_Finger3" 4
9 "ValveBiped.Bip01_L_Finger31" 8
10 "ValveBiped.Bip01_L_Finger32" 9
11 "ValveBiped.Bip01_L_Finger2" 4
12 "ValveBiped.Bip01_L_Finger21" 11
13 "ValveBiped.Bip01_L_Finger22" 12
14 "ValveBiped.Bip01_L_Finger1" 4
15 "ValveBiped.Bip01_L_Finger11" 14
16 "ValveBiped.Bip01_L_Finger12" 15
17 "ValveBiped.Bip01_L_Finger0" 4
18 "ValveBiped.Bip01_L_Finger01" 17
19 "ValveBiped.Bip01_L_Finger02" 18
20 "ValveBiped.Bip01_L_Ulna" 3
21 "ValveBiped.Bip01_L_Wrist" 3
22 "rig_l_upperarm" 1
23 "rig_l_forearm" 22
24 "rig_d_l_forearm" 23
25 "rig_d_l_upperarm" 22
26 "ValveBiped.Bip01_R_Clavicle" 0
27 "ValveBiped.Bip01_R_UpperArm" 26
28 "ValveBiped.Bip01_R_Forearm" 27
29 "ValveBiped.Bip01_R_Hand" 28
30 "ValveBiped.Bip01_R_Finger4" 29
31 "ValveBiped.Bip01_R_Finger41" 30
32 "ValveBiped.Bip01_R_Finger42" 31
33 "ValveBiped.Bip01_R_Finger3" 29
34 "ValveBiped.Bip01_R_Finger31" 33
35 "ValveBiped.Bip01_R_Finger32" 34
36 "ValveBiped.Bip01_R_Finger2" 29
37 "ValveBiped.Bip01_R_Finger21" 36
38 "ValveBiped.Bip01_R_Finger22" 37
39 "ValveBiped.Bip01_R_Finger1" 29
40 "ValveBiped.Bip01_R_Finger11" 39
41 "ValveBiped.Bip01_R_Finger12" 40
42 "ValveBiped.Bip01_R_Finger0" 29
43 "ValveBiped.Bip01_R_Finger01" 42
44 "ValveBiped.Bip01_R_Finger02" 43
45 "ValveBiped.Bip01_R_Ulna" 28
46 "ValveBiped.Bip01_R_Wrist" 28
47 "rig_r_upperarm" 26
48 "rig_r_forearm" 47
49 "rig_d_r_forearm" 48
50 "rig_d_r_upperarm" 47
51 "rig_r_hand" -1
52 "rig_d_r_hand" 51
53 "rig_d_r_wrist" 52
54 "rig_l_hand" -1
55 "rig_d_l_hand" 54
56 "rig_d_l_wrist" 54
57 "rig_l_pole" -1
58 "rig_r_pole" -1
59 "rig_l_clavicle" -1
60 "rig_d_l_clavicle" 59
61 "rig_r_clavicle" -1
62 "rig_d_r_clavicle" 61
63 "Camera" -1
64 "body" -1
65 "trigger" 64
66 "bolt" 64
67 "barrel" 64
68 "magrel" 64
69 "chandle" 64
70 "chandleb" 69
71 "mag" -1
72 "bullet1" 71
73 "bullet2" 71
74 "bullet3" 71
end
skeleton
time 0
0  0.000006 0.000000 0.000000  -1.570800 -1.391899 -1.570792
1  -3.518106 3.420410 -1.527451  -1.544956 -1.855077 -0.198630
2  6.027521 -0.000325 0.000193  -1.120621 -0.938343 -1.086914
3  11.692107 0.000644 -0.000738  -1.032250 -0.000024 -1.521486
4  11.480288 0.000428 -0.000713  1.029048 -0.654855 0.416843
5  3.859506 -0.142880 -1.192051  -0.778167 0.068914 -1.502592
6  1.312588 0.000013 0.000001  -0.135303 -0.037646 -0.288696
7  0.729358 0.000052 0.000047  0.004037 -0.012462 -0.362678
8  3.942140 0.046273 -0.431512  -0.693770 0.356114 -1.201512
9  1.539107 0.000087 -0.000001  -0.032365 -0.079699 -0.453688
10  1.196335 0.000147 0.000027  0.008153 0.002732 -0.748207
11  3.883507 -0.047268 0.431382  -0.322019 0.643539 -0.630599
12  1.719574 -0.000029 0.000019  -0.033238 -0.086003 -0.823515
13  1.209179 0.000095 0.000013  -0.007835 -0.002562 -0.650932
14  3.859661 -0.138477 1.332410  0.166016 0.722762 -0.052367
15  1.719448 -0.000011 0.000022  -0.036329 0.033056 -0.412619
16  1.099675 0.000041 0.000003  -0.004181 0.004116 -1.256705
17  0.720887 -1.421158 1.005924  -0.760907 -0.593476 -0.498366
18  1.789825 -0.000001 -0.000016  0.022880 0.030024 0.834449
19  1.207009 -0.000012 -0.000044  -0.004342 -0.003284 -0.117962
20  5.740637 0.000410 -0.000703  -0.143041 0.000003 0.000070
21  11.481064 0.000299 -0.000800  -0.073086 -0.126025 0.033720
22  6.027525 -0.000330 0.000203  1.860456 -0.570569 1.550388
23  0.000001 11.692100 -0.000006  -1.042179 -0.487895 -0.818244
24  0.000003 0.000008 -0.000002  -0.163150 -0.000031 1.570739
25  -0.000001 -0.000012 -0.000000  0.868957 0.000002 1.570712
26  -4.645759 -6.650901 2.046262  1.473120 1.855075 -0.198639
27  6.027508 -0.000259 -0.000229  1.489737 0.528407 -0.615739
28  11.691989 0.000242 0.000856  0.245671 0.000078 -1.920683
29  11.478621 -0.001204 0.001151  -1.209394 0.547341 0.799524
30  3.840238 -0.256103 1.127582  0.375755 0.017196 -2.109855
31  1.312558 0.000026 0.000001  -0.016738 -0.067215 -0.358753
32  0.729345 0.000064 -0.000027  0.010499 -0.002285 -1.003070
33  3.942046 0.050109 0.430997  0.318069 -0.062504 -1.724927
34  1.539097 0.000011 0.000000  0.007072 -0.088740 -0.961961
35  1.196299 0.000077 -0.000004  0.008893 -0.001311 -1.206604
36  3.883411 -0.050502 -0.431086  0.154352 -0.157823 -1.573639
37  1.719563 -0.000079 -0.000004  -0.024403 -0.068048 -1.595299
38  1.209197 0.000036 0.000012  0.007422 -0.002547 -0.459485
39  3.806436 -0.112147 -1.295328  0.051087 -0.161046 -0.309236
40  1.719412 -0.000099 -0.000035  0.023074 0.074459 -1.482138
41  1.099674 0.000024 0.000006  -0.005688 -0.003843 -0.924765
42  0.805978 -0.359853 -1.318338  1.330199 0.197557 -0.619517
43  1.789780 -0.000009 -0.000042  0.032551 0.123016 0.037179
44  1.206997 -0.000007 0.000006  0.000293 -0.001887 1.285959
45  5.740573 0.000055 0.000723  0.113804 -0.000014 0.000021
46  11.480669 -0.000205 0.000980  0.033410 0.107116 0.124647
47  6.027514 -0.000273 -0.000236  -0.688921 -0.655022 -1.721632
48  -0.000003 11.691974 -0.000005  -1.277209 0.723552 0.942824
49  0.000004 -0.000001 -0.000002  2.518198 -0.000041 1.570856
50  -0.000007 -0.000015 0.000005  2.272644 -0.000030 1.570865
51  -3.491430 -5.701185 -7.595583  -0.170469 -3.023727 1.375012
52  -0.000000 -0.000000 -0.000001  0.008153 -0.000259 0.000009
53  -0.000001 0.000000 0.000001  1.565115 0.043565 -0.106862
54  -0.962913 -18.724907 -5.772876  -0.897459 -0.027625 -1.861282
55  -0.000000 0.000001 -0.000000  0.000000 -0.000000 -0.000002
56  0.000031 0.000030 0.000000  -1.571901 -0.044449 -0.106509
57  8.666351 -12.971641 -17.721577  1.570796 -0.000000 0.000000
58  -15.265000 7.133661 -18.583086  1.570796 -0.000000 0.000000
59  -1.523137 -2.740167 -4.071830  1.570796 -0.000000 0.000000
60  -0.004311 0.001230 -0.000371  0.006898 -0.005534 -0.284229
61  2.046263 7.371444 -3.388127  1.570796 -0.000000 0.000000
62  0.000000 0.000000 0.000000  -0.078727 -3.136056 0.284226
63  -3.061034 -2.790865 -0.402753  1.570796 -0.000000 0.000000
64  -3.054910 -14.063125 -3.170850  1.570796 -0.000000 0.000000
65  -0.005933 -2.262812 -2.946504  0.261799 -0.000000 -0.000000
66  -0.007405 -0.385017 0.112677  0.000000 -0.000000 0.000000
67  -0.007403 -0.398124 12.763616  0.000000 -0.000000 0.000000
68  -0.007406 -3.312297 -1.336578  0.000000 -0.000000 0.000000
69  -0.005934 0.810493 1.247789  0.000000 -0.000000 0.000000
70  0.000002 0.037560 1.926311  0.000000 -0.000000 0.000000
71  -3.077450 -14.530620 -6.133182  1.570796 -0.000000 0.000000
72  0.184183 1.994350 -0.809969  0.000000 -0.000000 0.000000
73  -0.114187 1.780464 -0.801675  0.000000 -0.000000 0.000000
74  0.076509 1.501416 -0.809969  0.000000 -0.000000 0.000000
time 1
0  0.000006 0.000000 0.000000  -1.570800 -1.391899 -1.570792
1  -3.518106 3.420410 -1.527451  -1.544956 -1.855077 -0.198630
2  6.027521 -0.000325 0.000194  -1.128307 -0.906906 -1.066377
3  11.692108 0.000644 -0.000740  -1.032254 -0.000029 -1.606328
4  11.479643 0.000228 -0.001046  1.019140 -0.703604 0.449221
5  3.859502 -0.142881 -1.192050  -0.778167 0.068914 -1.502592
6  1.312591 0.000011 0.000002  -0.135303 -0.037646 -0.288696
7  0.729356 0.000054 0.000048  0.004037 -0.012462 -0.362678
8  3.942136 0.046273 -0.431512  -0.693770 0.356114 -1.201512
9  1.539109 0.000086 0.000004  -0.032365 -0.079699 -0.453688
10  1.196334 0.000145 0.000028  0.008153 0.002732 -0.748207
11  3.883502 -0.047269 0.431381  -0.322019 0.643539 -0.630599
12  1.719574 -0.000030 0.000017  -0.033238 -0.086003 -0.823515
13  1.209180 0.000096 0.000014  -0.007835 -0.002562 -0.650932
14  3.859658 -0.138476 1.332410  0.166016 0.722762 -0.052367
15  1.719449 -0.000012 0.000022  -0.036329 0.033056 -0.412619
16  1.099677 0.000044 0.000001  -0.004181 0.004116 -1.256705
17  0.720886 -1.421159 1.005924  -0.760907 -0.593476 -0.498366
18  1.789826 -0.000001 -0.000016  0.022880 0.030024 0.834449
19  1.207009 -0.000012 -0.000046  -0.004342 -0.003284 -0.117962
20  5.740637 0.000410 -0.000703  -0.152394 0.000003 0.000070
21  11.480935 0.000259 -0.000867  -0.070095 -0.136518 0.036328
22  6.027525 -0.000330 0.000203  1.883807 -0.595668 1.551939
23  0.000001 11.692100 -0.000006  -1.092138 -0.535861 -0.848555
24  0.000001 0.000010 -0.000001  -0.163150 -0.000031 1.570739
25  -0.000000 -0.000011 -0.000001  0.868957 0.000002 1.570712
26  -4.645759 -6.650901 2.046262  1.473120 1.855075 -0.198639
27  6.027508 -0.000259 -0.000230  1.479979 0.485877 -0.616786
28  11.691990 0.000243 0.000855  0.245671 0.000083 -1.991433
29  11.480541 -0.000069 0.000866  -1.192168 0.560211 0.825975
30  3.840240 -0.256104 1.127581  0.375755 0.017196 -2.109855
31  1.312558 0.000025 0.000000  -0.016738 -0.067215 -0.358753
32  0.729346 0.000066 -0.000028  0.010499 -0.002285 -1.003070
33  3.942047 0.050109 0.430997  0.318069 -0.062504 -1.724927
34  1.539097 0.000010 0.000000  0.007072 -0.088740 -0.961961
35  1.196300 0.000076 -0.000004  0.008893 -0.001311 -1.206604
36  3.883411 -0.050501 -0.431087  0.154352 -0.157823 -1.573639
37  1.719563 -0.000079 -0.000003  -0.024403 -0.068048 -1.595299
38  1.209199 0.000035 0.000012  0.007422 -0.002547 -0.459485
39  3.806436 -0.112148 -1.295330  0.051087 -0.161046 -0.309236
40  1.719412 -0.000099 -0.000034  0.023074 0.074459 -1.482138
41  1.099673 0.000025 0.000007  -0.005688 -0.003843 -0.924765
42  0.805979 -0.359854 -1.318338  1.330199 0.197557 -0.619517
43  1.789779 -0.000009 -0.000042  0.032550 0.123016 0.037179
44  1.206997 -0.000006 0.000005  0.000293 -0.001887 1.285959
45  5.740573 0.000054 0.000725  0.120199 -0.000014 0.000021
46  11.481052 0.000021 0.000923  0.034298 0.111070 0.128051
47  6.027514 -0.000273 -0.000236  -0.644982 -0.681334 -1.745166
48  -0.000001 11.691974 -0.000006  -1.319908 0.767542 0.959537
49  0.000004 -0.000001 0.000000  2.518198 -0.000041 1.570856
50  -0.000007 -0.000015 0.000004  2.272644 -0.000030 1.570865
51  -3.472964 -5.004080 -7.623414  -0.157713 -3.023065 1.377782
52  -0.000000 -0.000000 -0.000001  0.008153 -0.000259 0.000009
53  -0.000000 0.000000 -0.000000  1.565115 0.043565 -0.106862
54  -0.911673 -18.011168 -5.729095  -0.884781 -0.027094 -1.857355
55  -0.000001 0.000001 0.000000  0.000000 -0.000000 -0.000002
56  0.000030 0.000030 0.000001  -1.571901 -0.044449 -0.106509
57  8.666351 -12.971641 -17.721577  1.570796 -0.000000 0.000000
58  -15.265000 7.133661 -18.583086  1.570796 -0.000000 0.000000
59  -1.523137 -2.740167 -4.071830  1.570796 -0.000000 0.000000
60  -0.004311 0.001230 -0.000371  0.006898 -0.005534 -0.284229
61  2.046263 7.371444 -3.388127  1.570796 -0.000000 0.000000
62  0.000000 0.000000 0.000000  -0.078727 -3.136056 0.284226
63  -3.061034 -2.790865 -0.402753  1.570796 -0.000000 0.000000
64  -3.055353 -13.350444 -3.167556  1.567673 -0.012294 0.004294
65  -0.005933 -2.262812 -2.946503  0.261799 -0.000000 0.000000
66  -0.007405 -0.385017 -3.599067  0.000000 -0.000000 0.000000
67  -0.007403 -0.398124 12.763614  0.000000 -0.000000 0.000000
68  -0.007406 -3.312297 -1.336580  0.000000 -0.000000 0.000000
69  -0.005934 0.810492 -3.290918  0.000000 -0.000000 0.000000
70  0.000002 0.037560 1.926311  0.000000 -0.000000 0.000000
71  -3.039444 -13.827124 -6.128466  1.567673 -0.012294 0.004294
72  0.140632 2.030202 -0.809969  0.000000 -0.000000 0.000000
73  -0.114187 1.780464 -0.801675  0.000000 -0.000000 0.000000
74  0.076509 1.501415 -0.809969  0.000000 -0.000000 0.000000
time 2
0  0.000006 0.000000 0.000000  -1.570800 -1.391899 -1.570792
1  -3.518106 3.420410 -1.527451  -1.544956 -1.855077 -0.198630
2  6.027521 -0.000325 0.000194  -1.124930 -0.915112 -1.072180
3  11.692109 0.000643 -0.000740  -1.032253 -0.000028 -1.586992
4  11.479781 0.000272 -0.000976  1.020180 -0.690995 0.435865
5  3.859503 -0.142879 -1.192050  -0.778167 0.068914 -1.502592
6  1.312590 0.000012 0.000004  -0.135303 -0.037646 -0.288696
7  0.729357 0.000053 0.000047  0.004037 -0.012462 -0.362678
8  3.942136 0.046274 -0.431512  -0.693770 0.356114 -1.201512
9  1.539108 0.000088 0.000002  -0.032365 -0.079699 -0.453688
10  1.196335 0.000147 0.000031  0.008153 0.002732 -0.748207
11  3.883502 -0.047267 0.431381  -0.322019 0.643539 -0.630599
12  1.719574 -0.000029 0.000018  -0.033238 -0.086003 -0.823515
13  1.209180 0.000094 0.000012  -0.007835 -0.002562 -0.650932
14  3.859657 -0.138475 1.332410  0.166016 0.722762 -0.052367
15  1.719448 -0.000012 0.000023  -0.036329 0.033056 -0.412619
16  1.099675 0.000042 0.000001  -0.004181 0.004116 -1.256705
17  0.720883 -1.421158 1.005924  -0.760907 -0.593476 -0.498366
18  1.789826 -0.000001 -0.000016  0.022880 0.030024 0.834449
19  1.207009 -0.000013 -0.000045  -0.004342 -0.003284 -0.117962
20  5.740636 0.000410 -0.000703  -0.151098 0.000003 0.000071
21  11.480963 0.000268 -0.000853  -0.071444 -0.133700 0.034630
22  6.027525 -0.000330 0.000203  1.876725 -0.589575 1.552759
23  0.000002 11.692099 -0.000007  -1.080779 -0.524814 -0.841818
24  0.000003 0.000008 -0.000001  -0.163150 -0.000031 1.570739
25  0.000000 -0.000012 -0.000001  0.868957 0.000002 1.570712
26  -4.645759 -6.650901 2.046262  1.473120 1.855075 -0.198639
27  6.027508 -0.000259 -0.000230  1.482070 0.493819 -0.616536
28  11.691991 0.000244 0.000856  0.245671 0.000082 -1.974886
29  11.478145 -0.001405 0.001202  -1.204338 0.560211 0.812941
30  3.840239 -0.256103 1.127580  0.375755 0.017196 -2.109855
31  1.312558 0.000025 0.000000  -0.016738 -0.067215 -0.358753
32  0.729346 0.000066 -0.000028  0.010499 -0.002285 -1.003070
33  3.942047 0.050109 0.430996  0.318069 -0.062504 -1.724927
34  1.539097 0.000009 -0.000000  0.007072 -0.088740 -0.961961
35  1.196299 0.000076 -0.000004  0.008893 -0.001311 -1.206604
36  3.883412 -0.050502 -0.431087  0.154352 -0.157823 -1.573639
37  1.719563 -0.000079 -0.000004  -0.024403 -0.068048 -1.595299
38  1.209197 0.000035 0.000011  0.007422 -0.002547 -0.459485
39  3.806436 -0.112148 -1.295330  0.051087 -0.161046 -0.309236
40  1.719413 -0.000100 -0.000035  0.023074 0.074459 -1.482138
41  1.099673 0.000026 0.000006  -0.005688 -0.003843 -0.924765
42  0.805979 -0.359854 -1.318339  1.330199 0.197557 -0.619517
43  1.789779 -0.000008 -0.000042  0.032550 0.123016 0.037179
44  1.206996 -0.000006 0.000006  0.000293 -0.001886 1.285959
45  5.740571 0.000055 0.000723  0.116743 -0.000014 0.000021
46  11.480573 -0.000246 0.000989  0.032683 0.110052 0.126311
47  6.027514 -0.000273 -0.000236  -0.653175 -0.676252 -1.740756
48  -0.000002 11.691972 -0.000005  -1.309853 0.757207 0.955798
49  0.000004 -0.000002 0.000001  2.518198 -0.000041 1.570856
50  -0.000007 -0.000015 0.000005  2.272644 -0.000030 1.570865
51  -3.492259 -5.162417 -7.639783  -0.165856 -3.018269 1.376410
52  -0.000000 0.000000 -0.000000  0.008153 -0.000259 0.000009
53  -0.000000 -0.000000 -0.000000  1.565115 0.043565 -0.106862
54  -0.944733 -18.169519 -5.727110  -0.892382 -0.032627 -1.859482
55  -0.000002 0.000001 -0.000000  0.000000 -0.000000 -0.000002
56  0.000027 0.000029 0.000001  -1.571902 -0.044449 -0.106509
57  8.666351 -12.971641 -17.721577  1.570796 -0.000000 0.000000
58  -15.265000 7.133661 -18.583086  1.570796 -0.000000 0.000000
59  -1.523137 -2.740167 -4.071830  1.570796 -0.000000 0.000000
60  -0.004311 0.001230 -0.000371  0.006898 -0.005534 -0.284229
61  2.046263 7.371444 -3.388127  1.570796 -0.000000 0.000000
62  0.000000 0.000000 0.000000  -0.078727 -3.136056 0.284226
63  -3.061034 -2.790865 -0.402753  1.570796 -0.000000 0.000000
64  -3.054722 -13.495714 -3.161439  1.564551 -0.003428 0.001964
65  -0.005933 -2.262813 -2.946502  0.261799 -0.000000 -0.000000
66  -0.007406 -0.385017 -1.743195  -0.000000 -0.000000 -0.000000
67  -0.007403 -0.398124 12.763615  -0.000000 -0.000000 -0.000000
68  -0.007406 -3.312297 -1.336578  -0.000000 -0.000000 -0.000000
69  -0.005934 0.810493 -1.021563  -0.000000 -0.000000 -0.000000
70  0.000002 0.037560 1.926312  -0.000000 -0.000000 -0.000000
71  -3.066161 -13.981725 -6.120852  1.564551 -0.003428 0.001964
72  0.059754 2.217628 0.554585  -0.146804 -0.000000 -0.000000
73  -0.114187 1.780463 -0.801675  -0.000000 -0.000000 -0.000000
74  0.076510 1.501415 -0.809969  -0.000000 -0.000000 -0.000000
time 3
0  0.000006 0.000000 0.000000  -1.570800 -1.391899 -1.570792
1  -3.518106 3.420410 -1.527451  -1.544956 -1.855077 -0.198630
2  6.027521 -0.000325 0.000194  -1.119532 -0.929682 -1.082402
3  11.692107 0.000644 -0.000739  -1.032251 -0.000025 -1.547955
4  11.480080 0.000361 -0.000823  1.020719 -0.667295 0.420875
5  3.859504 -0.142880 -1.192051  -0.778167 0.068914 -1.502592
6  1.312590 0.000010 0.000003  -0.135303 -0.037646 -0.288696
7  0.729357 0.000052 0.000046  0.004037 -0.012462 -0.362678
8  3.942136 0.046274 -0.431513  -0.693770 0.356114 -1.201512
9  1.539108 0.000084 0.000001  -0.032365 -0.079699 -0.453688
10  1.196335 0.000149 0.000029  0.008153 0.002732 -0.748207
11  3.883504 -0.047267 0.431381  -0.322019 0.643539 -0.630599
12  1.719574 -0.000027 0.000017  -0.033238 -0.086003 -0.823515
13  1.209181 0.000092 0.000014  -0.007835 -0.002562 -0.650932
14  3.859658 -0.138476 1.332409  0.166016 0.722762 -0.052367
15  1.719450 -0.000012 0.000022  -0.036329 0.033056 -0.412619
16  1.099676 0.000043 0.000003  -0.004181 0.004116 -1.256705
17  0.720887 -1.421157 1.005924  -0.760907 -0.593476 -0.498366
18  1.789825 -0.000001 -0.000016  0.022880 0.030024 0.834449
19  1.207011 -0.000013 -0.000046  -0.004342 -0.003284 -0.117962
20  5.740636 0.000410 -0.000704  -0.147517 0.000003 0.000070
21  11.481023 0.000285 -0.000823  -0.073621 -0.128754 0.033206
22  6.027525 -0.000330 0.000203  1.864773 -0.578463 1.553430
23  0.000002 11.692099 -0.000006  -1.057801 -0.502717 -0.827907
24  0.000003 0.000009 -0.000001  -0.163150 -0.000031 1.570739
25  -0.000000 -0.000012 -0.000001  0.868957 0.000002 1.570712
26  -4.645759 -6.650901 2.046262  1.473120 1.855075 -0.198639
27  6.027508 -0.000259 -0.000230  1.486685 0.513469 -0.616030
28  11.691991 0.000243 0.000856  0.245671 0.000080 -1.944033
29  11.478415 -0.001293 0.001174  -1.214774 0.556092 0.803928
30  3.840240 -0.256103 1.127581  0.375755 0.017196 -2.109855
31  1.312558 0.000026 0.000000  -0.016738 -0.067215 -0.358753
32  0.729345 0.000065 -0.000028  0.010499 -0.002285 -1.003069
33  3.942046 0.050109 0.430997  0.318069 -0.062504 -1.724927
34  1.539097 0.000010 0.000001  0.007072 -0.088740 -0.961961
35  1.196299 0.000076 -0.000004  0.008893 -0.001311 -1.206604
36  3.883412 -0.050502 -0.431086  0.154352 -0.157823 -1.573639
37  1.719563 -0.000080 -0.000003  -0.024403 -0.068048 -1.595299
38  1.209197 0.000036 0.000011  0.007422 -0.002547 -0.459485
39  3.806436 -0.112147 -1.295329  0.051087 -0.161046 -0.309236
40  1.719413 -0.000099 -0.000034  0.023074 0.074459 -1.482138
41  1.099673 0.000024 0.000008  -0.005688 -0.003843 -0.924765
42  0.805980 -0.359854 -1.318338  1.330199 0.197557 -0.619517
43  1.789780 -0.000009 -0.000042  0.032550 0.123016 0.037179
44  1.206997 -0.000006 0.000005  0.000293 -0.001887 1.285959
45  5.740572 0.000056 0.000725  0.113575 -0.000014 0.000021
46  11.480627 -0.000222 0.000985  0.031540 0.108476 0.125424
47  6.027514 -0.000273 -0.000236  -0.673480 -0.664037 -1.729865
48  -0.000001 11.691973 -0.000005  -1.291222 0.738012 0.948546
49  0.000004 -0.000001 -0.000000  2.518198 -0.000041 1.570856
50  -0.000007 -0.000015 0.000005  2.272644 -0.000030 1.570865
51  -3.494273 -5.470523 -7.614707  -0.175039 -3.018646 1.373197
52  0.000000 0.000000 0.000000  0.008153 -0.000259 0.000009
53  0.000000 0.000000 0.000000  1.565115 0.043565 -0.106862
54  -0.986513 -18.492649 -5.752361  -0.901495 -0.033113 -1.863524
55  -0.000000 0.000000 -0.000000  0.000000 -0.000000 -0.000002
56  0.000029 0.000030 0.000001  -1.571901 -0.044449 -0.106509
57  8.666351 -12.971641 -17.721577  1.570796 -0.000000 0.000000
58  -15.265000 7.133661 -18.583086  1.570796 -0.000000 0.000000
59  -1.523137 -2.740167 -4.071830  1.570796 -0.000000 0.000000
60  -0.004311 0.001230 -0.000371  0.006898 -0.005534 -0.284229
61  2.046263 7.371444 -3.388127  1.570796 -0.000000 0.000000
62  0.000000 0.000000 0.000000  -0.078727 -3.136056 0.284226
63  -3.061034 -2.790865 -0.402753  1.570796 -0.000000 0.000000
64  -3.053333 -13.815310 -3.158145  1.566694 0.005437 -0.002375
65  -0.005933 -2.262813 -2.946503  0.261799 -0.000000 -0.000000
66  -0.007405 -0.385017 0.112677  0.000000 -0.000000 -0.000000
67  -0.007403 -0.398124 12.763614  0.000000 -0.000000 -0.000000
68  -0.007406 -3.312297 -1.336579  0.000000 -0.000000 -0.000000
69  -0.005934 0.810493 1.247789  0.000000 -0.000000 -0.000000
70  0.000002 0.037560 1.926310  0.000000 -0.000000 -0.000000
71  -3.093108 -14.294861 -6.118367  1.566694 0.005437 -0.002375
72  0.016204 2.464955 2.190033  0.000000 -0.000000 -0.000000
73  -0.114187 1.780464 -0.801675  0.000000 -0.000000 -0.000000
74  0.076509 1.501415 -0.809969  0.000000 -0.000000 -0.000000
time 4
0  0.000006 0.000000 0.000000  -1.570800 -1.391899 -1.570792
1  -3.518106 3.420410 -1.527451  -1.544956 -1.855077 -0.198630
2  6.027521 -0.000325 0.000193  -1.117506 -0.943221 -1.090882
3  11.692108 0.000644 -0.000740  -1.032250 -0.000023 -1.510704
4  11.480377 0.000457 -0.000664  1.027905 -0.645948 0.413618
5  3.859505 -0.142880 -1.192051  -0.778167 0.068914 -1.502592
6  1.312590 0.000012 0.000004  -0.135303 -0.037646 -0.288696
7  0.729358 0.000052 0.000044  0.004037 -0.012462 -0.362678
8  3.942139 0.046274 -0.431512  -0.693770 0.356114 -1.201512
9  1.539107 0.000085 -0.000001  -0.032365 -0.079699 -0.453688
10  1.196335 0.000147 0.000027  0.008153 0.002732 -0.748207
11  3.883505 -0.047268 0.431381  -0.322019 0.643539 -0.630599
12  1.719572 -0.000029 0.000020  -0.033238 -0.086003 -0.823515
13  1.209179 0.000095 0.000013  -0.007835 -0.002562 -0.650932
14  3.859662 -0.138476 1.332410  0.166016 0.722762 -0.052367
15  1.719447 -0.000012 0.000022  -0.036329 0.033056 -0.412619
16  1.099675 0.000042 0.000003  -0.004181 0.004116 -1.256705
17  0.720889 -1.421158 1.005924  -0.760907 -0.593476 -0.498366
18  1.789826 0.000001 -0.000017  0.022880 0.030024 0.834449
19  1.207010 -0.000013 -0.000045  -0.004342 -0.003284 -0.117962
20  5.740638 0.000410 -0.000703  -0.142265 0.000003 0.000071
21  11.481084 0.000304 -0.000791  -0.073993 -0.124279 0.033529
22  6.027525 -0.000330 0.000203  1.855762 -0.567175 1.551466
23  0.000002 11.692100 -0.000006  -1.035805 -0.481896 -0.814255
24  0.000003 0.000007 -0.000002  -0.163150 -0.000030 1.570739
25  -0.000001 -0.000012 -0.000001  0.868957 0.000002 1.570712
26  -4.645759 -6.650901 2.046262  1.473120 1.855075 -0.198639
27  6.027508 -0.000259 -0.000229  1.488870 0.534416 -0.616577
28  11.691990 0.000244 0.000856  0.245671 0.000078 -1.913512
29  11.478684 -0.001178 0.001145  -1.212139 0.551708 0.800025
30  3.840239 -0.256104 1.127581  0.375755 0.017196 -2.109855
31  1.312558 0.000026 -0.000001  -0.016738 -0.067215 -0.358753
32  0.729345 0.000065 -0.000027  0.010499 -0.002285 -1.003070
33  3.942046 0.050109 0.430997  0.318069 -0.062504 -1.724927
34  1.539096 0.000010 -0.000000  0.007072 -0.088740 -0.961961
35  1.196299 0.000076 -0.000004  0.008893 -0.001311 -1.206604
36  3.883412 -0.050501 -0.431087  0.154352 -0.157823 -1.573639
37  1.719563 -0.000078 -0.000003  -0.024402 -0.068048 -1.595299
38  1.209196 0.000036 0.000011  0.007422 -0.002547 -0.459485
39  3.806436 -0.112147 -1.295330  0.051087 -0.161046 -0.309236
40  1.719410 -0.000099 -0.000035  0.023074 0.074459 -1.482138
41  1.099673 0.000025 0.000007  -0.005688 -0.003843 -0.924765
42  0.805979 -0.359854 -1.318339  1.330199 0.197557 -0.619517
43  1.789780 -0.000010 -0.000042  0.032551 0.123016 0.037179
44  1.206996 -0.000007 0.000005  0.000293 -0.001887 1.285959
45  5.740572 0.000054 0.000722  0.113001 -0.000014 0.000021
46  11.480682 -0.000200 0.000978  0.032537 0.107760 0.124711
47  6.027514 -0.000273 -0.000236  -0.696104 -0.652982 -1.717661
48  -0.000002 11.691973 -0.000006  -1.272919 0.719123 0.941027
49  0.000004 -0.000002 -0.000000  2.518197 -0.000041 1.570856
50  -0.000006 -0.000015 0.000004  2.272644 -0.000030 1.570865
51  -3.462655 -5.771495 -7.587333  -0.173394 -3.023027 1.370691
52  -0.000000 0.000000 -0.000001  0.008153 -0.000259 0.000009
53  0.000000 0.000000 -0.000000  1.565115 0.043565 -0.106862
54  -0.989498 -18.806675 -5.770593  -0.900285 -0.028597 -1.865869
55  0.000002 0.000000 0.000000  0.000000 -0.000000 -0.000002
56  0.000031 0.000029 0.000001  -1.571901 -0.044449 -0.106509
57  8.666351 -12.971641 -17.721577  1.570796 -0.000000 0.000000
58  -15.265000 7.133661 -18.583086  1.570796 -0.000000 0.000000
59  -1.523137 -2.740167 -4.071830  1.570796 -0.000000 0.000000
60  -0.004311 0.001230 -0.000371  0.006898 -0.005534 -0.284229
61  2.046263 7.371444 -3.388127  1.570796 -0.000000 0.000000
62  0.000000 0.000000 0.000000  -0.078727 -3.136056 0.284226
63  -3.061034 -2.790865 -0.402753  1.570796 -0.000000 0.000000
64  -3.051944 -14.134903 -3.162903  1.570674 0.002985 -0.004666
65  -0.005933 -2.262813 -2.946504  0.261799 0.000000 0.000000
66  -0.007405 -0.385017 0.112677  -0.000000 0.000000 0.000000
67  -0.007403 -0.398124 12.763616  -0.000000 0.000000 0.000000
68  -0.007406 -3.312297 -1.336579  -0.000000 0.000000 0.000000
69  -0.005934 0.810493 1.247790  -0.000000 0.000000 0.000000
70  0.000002 0.037559 1.926310  -0.000000 0.000000 0.000000
71  -3.085509 -14.602608 -6.125097  1.570674 0.002985 -0.004666
72  0.184183 1.994350 -0.809968  -0.000000 0.000000 0.000000
73  -0.114187 1.780464 -0.801673  -0.000000 0.000000 0.000000
74  0.076510 1.501416 -0.809968  -0.000000 0.000000 0.000000
time 5
0  0.000006 0.000000 0.000000  -1.570800 -1.391899 -1.570792
1  -3.518106 3.420410 -1.527451  -1.544956 -1.855077 -0.198630
2  6.027521 -0.000325 0.000193  -1.118490 -0.948461 -1.093472
3  11.692109 0.000643 -0.000739  -1.032249 -0.000022 -1.495030
4  11.480508 0.000497 -0.000596  1.034101 -0.638509 0.411732
5  3.859505 -0.142881 -1.192051  -0.778167 0.068914 -1.502592
6  1.312590 0.000012 0.000001  -0.135303 -0.037646 -0.288696
7  0.729358 0.000053 0.000044  0.004037 -0.012462 -0.362678
8  3.942139 0.046273 -0.431512  -0.693770 0.356114 -1.201512
9  1.539109 0.000087 0.000001  -0.032365 -0.079699 -0.453688
10  1.196334 0.000143 0.000030  0.008153 0.002732 -0.748207
11  3.883504 -0.047269 0.431381  -0.322019 0.643539 -0.630599
12  1.719573 -0.000029 0.000017  -0.033238 -0.086003 -0.823515
13  1.209180 0.000094 0.000011  -0.007835 -0.002562 -0.650932
14  3.859660 -0.138476 1.332409  0.166016 0.722762 -0.052367
15  1.719447 -0.000011 0.000022  -0.036329 0.033056 -0.412619
16  1.099675 0.000042 0.000001  -0.004181 0.004116 -1.256705
17  0.720886 -1.421160 1.005924  -0.760907 -0.593476 -0.498366
18  1.789828 0.000001 -0.000016  0.022880 0.030024 0.834449
19  1.207011 -0.000013 -0.000046  -0.004342 -0.003284 -0.117962
20  5.740637 0.000410 -0.000704  -0.139386 0.000003 0.000070
21  11.481109 0.000312 -0.000777  -0.073410 -0.122622 0.034000
22  6.027525 -0.000330 0.000203  1.853392 -0.562298 1.549345
23  0.000002 11.692099 -0.000006  -1.026525 -0.473215 -0.808400
24  0.000005 0.000009 -0.000001  -0.163150 -0.000031 1.570739
25  -0.000001 -0.000011 -0.000001  0.868957 0.000002 1.570712
26  -4.645759 -6.650901 2.046262  1.473120 1.855075 -0.198639
27  6.027508 -0.000259 -0.000229  1.489910 0.543383 -0.616733
28  11.691990 0.000242 0.000855  0.245671 0.000077 -1.899453
29  11.478807 -0.001118 0.001130  -1.207637 0.547275 0.797241
30  3.840240 -0.256104 1.127581  0.375755 0.017196 -2.109855
31  1.312558 0.000025 0.000000  -0.016738 -0.067215 -0.358753
32  0.729345 0.000065 -0.000027  0.010499 -0.002285 -1.003070
33  3.942046 0.050110 0.430996  0.318069 -0.062504 -1.724927
34  1.539097 0.000010 0.000001  0.007072 -0.088740 -0.961961
35  1.196300 0.000077 -0.000003  0.008893 -0.001311 -1.206604
36  3.883411 -0.050501 -0.431087  0.154352 -0.157823 -1.573639
37  1.719563 -0.000080 -0.000003  -0.024403 -0.068048 -1.595299
38  1.209196 0.000036 0.000012  0.007422 -0.002547 -0.459485
39  3.806436 -0.112147 -1.295330  0.049934 -0.187288 -0.284920
40  1.719411 -0.000100 -0.000035  0.043077 0.074172 -1.232699
41  1.099673 0.000024 0.000007  -0.006993 -0.001946 -0.663408
42  0.805979 -0.359853 -1.318339  1.330199 0.197557 -0.619517
43  1.789780 -0.000010 -0.000042  0.032550 0.123016 0.037179
44  1.206995 -0.000006 0.000005  0.000293 -0.001886 1.285959
45  5.740573 0.000055 0.000724  0.113309 -0.000014 0.000021
46  11.480706 -0.000188 0.000975  0.033826 0.107169 0.124100
47  6.027514 -0.000273 -0.000236  -0.705629 -0.648108 -1.712581
48  -0.000001 11.691973 -0.000006  -1.264526 0.710458 0.937452
49  0.000005 -0.000001 -0.000001  2.518198 -0.000041 1.570856
50  -0.000007 -0.000015 0.000006  2.272644 -0.000030 1.570865
51  -3.453846 -5.907963 -7.580240  -0.169315 -3.026015 1.371646
52  0.000000 0.000000 -0.000001  0.008153 -0.000259 0.000009
53  0.000000 0.000000 -0.000000  1.565115 0.043565 -0.106862
54  -0.970288 -18.943439 -5.779898  -0.896534 -0.025239 -1.864539
55  -0.000000 0.000000 -0.000000  0.000000 -0.000000 -0.000002
56  0.000029 0.000029 0.000001  -1.571902 -0.044449 -0.106509
57  8.666351 -12.971641 -17.721577  1.570796 -0.000000 0.000000
58  -15.265000 7.133661 -18.583086  1.570796 -0.000000 0.000000
59  -1.523137 -2.740167 -4.071830  1.570796 -0.000000 0.000000
60  -0.004311 0.001230 -0.000371  0.006898 -0.005534 -0.284229
61  2.046263 7.371444 -3.388127  1.570796 -0.000000 0.000000
62  0.000000 0.000000 0.000000  -0.078727 -3.136056 0.284226
63  -3.061034 -2.790865 -0.402753  1.570796 -0.000000 0.000000
64  -3.051313 -14.280174 -3.171740  1.572818 -0.001569 -0.003234
65  -0.005933 -2.262813 -2.946505  0.130900 0.000000 0.000000
66  -0.007405 -0.385017 0.112675  -0.000000 0.000000 0.000000
67  -0.007402 -0.398124 12.763617  -0.000000 0.000000 0.000000
68  -0.007405 -3.312297 -1.336580  -0.000000 0.000000 0.000000
69  -0.005934 0.810493 1.247788  -0.000000 0.000000 0.000000
70  0.000002 0.037560 1.926312  -0.000000 0.000000 0.000000
71  -3.070694 -14.741621 -6.135042  1.572818 -0.001569 -0.003234
72  0.184182 1.994351 -0.809968  -0.000000 0.000000 0.000000
73  -0.114187 1.780464 -0.801674  -0.000000 0.000000 0.000000
74  0.076510 1.501416 -0.809968  -0.000000 0.000000 0.000000
time 6
0  0.000006 0.000000 0.000000  -1.570800 -1.391899 -1.570792
1  -3.518106 3.420410 -1.527451  -1.544956 -1.855077 -0.198630
2  6.027521 -0.000325 0.000193  -1.120548 -0.946791 -1.091720
3  11.692107 0.000644 -0.000739  -1.032249 -0.000022 -1.498489
4  11.480476 0.000491 -0.000611  1.036276 -0.641939 0.412876
5  3.859507 -0.142879 -1.192051  -0.778167 0.068914 -1.502592
6  1.312590 0.000011 0.000002  -0.135303 -0.037646 -0.288696
7  0.729357 0.000053 0.000047  0.004037 -0.012462 -0.362678
8  3.942141 0.046274 -0.431513  -0.693770 0.356114 -1.201512
9  1.539107 0.000085 0.000001  -0.032365 -0.079699 -0.453688
10  1.196333 0.000149 0.000030  0.008153 0.002732 -0.748207
11  3.883506 -0.047269 0.431381  -0.322019 0.643539 -0.630599
12  1.719574 -0.000029 0.000020  -0.033238 -0.086003 -0.823515
13  1.209180 0.000095 0.000015  -0.007835 -0.002562 -0.650932
14  3.859663 -0.138475 1.332409  0.166016 0.722762 -0.052367
15  1.719447 -0.000012 0.000021  -0.036329 0.033056 -0.412619
16  1.099676 0.000043 0.000001  -0.004181 0.004116 -1.256705
17  0.720891 -1.421158 1.005924  -0.760907 -0.593476 -0.498366
18  1.789826 -0.000001 -0.000016  0.022880 0.030024 0.834449
19  1.207009 -0.000013 -0.000044  -0.004342 -0.003284 -0.117962
20  5.740637 0.000410 -0.000702  -0.139269 0.000003 0.000071
21  11.481103 0.000312 -0.000779  -0.072755 -0.123238 0.034174
22  6.027525 -0.000330 0.000203  1.855585 -0.563188 1.548257
23  0.000001 11.692101 -0.000006  -1.028574 -0.475127 -0.809698
24  0.000003 0.000008 -0.000001  -0.163150 -0.000031 1.570738
25  -0.000001 -0.000011 -0.000000  0.868957 0.000002 1.570712
26  -4.645759 -6.650901 2.046262  1.473120 1.855075 -0.198639
27  6.027508 -0.000259 -0.000229  1.490162 0.541509 -0.616479
28  11.691990 0.000242 0.000855  0.245671 0.000077 -1.900963
29  11.478793 -0.001124 0.001132  -1.205551 0.544902 0.795740
30  3.840238 -0.256103 1.127581  0.375755 0.017196 -2.109855
31  1.312558 0.000028 0.000001  -0.016738 -0.067215 -0.358753
32  0.729345 0.000065 -0.000026  0.010499 -0.002285 -1.003069
33  3.942045 0.050110 0.430996  0.318069 -0.062504 -1.724927
34  1.539097 0.000011 0.000000  0.007072 -0.088740 -0.961961
35  1.196298 0.000076 -0.000004  0.008893 -0.001311 -1.206604
36  3.883411 -0.050502 -0.431087  0.154352 -0.157823 -1.573639
37  1.719563 -0.000079 -0.000004  -0.024403 -0.068048 -1.595299
38  1.209198 0.000035 0.000011  0.007422 -0.002547 -0.459485
39  3.806436 -0.112148 -1.295329  0.047996 -0.212283 -0.252017
40  1.719411 -0.000100 -0.000035  0.062387 0.068970 -0.983365
41  1.099674 0.000025 0.000007  -0.007793 0.000221 -0.402054
42  0.805979 -0.359854 -1.318338  1.330199 0.197557 -0.619517
43  1.789780 -0.000009 -0.000042  0.032551 0.123016 0.037179
44  1.206997 -0.000006 0.000005  0.000293 -0.001887 1.285959
45  5.740571 0.000056 0.000723  0.113703 -0.000014 0.000021
46  11.480701 -0.000189 0.000976  0.034458 0.106832 0.123792
47  6.027514 -0.000273 -0.000236  -0.703413 -0.648772 -1.713796
48  -0.000003 11.691973 -0.000004  -1.265426 0.711388 0.937839
49  0.000004 -0.000002 -0.000001  2.518198 -0.000041 1.570856
50  -0.000007 -0.000015 0.000005  2.272644 -0.000030 1.570865
51  -3.465746 -5.892262 -7.587926  -0.166849 -3.026272 1.374022
52  -0.000000 -0.000000 -0.000001  0.008153 -0.000259 0.000009
53  0.000000 0.000000 -0.000000  1.565115 0.043565 -0.106862
54  -0.951941 -18.920675 -5.778458  -0.894119 -0.024752 -1.861939
55  0.000001 -0.000000 -0.000001  0.000000 -0.000000 -0.000002
56  0.000032 0.000029 0.000000  -1.571901 -0.044449 -0.106509
57  8.666351 -12.971641 -17.721577  1.570796 -0.000000 0.000000
58  -15.265000 7.133661 -18.583086  1.570796 -0.000000 0.000000
59  -1.523137 -2.740167 -4.071830  1.570796 -0.000000 0.000000
60  -0.004311 0.001230 -0.000371  0.006898 -0.005534 -0.284229
61  2.046263 7.371444 -3.388127  1.570796 -0.000000 0.000000
62  0.000000 0.000000 0.000000  -0.078727 -3.136056 0.284226
63  -3.061034 -2.790865 -0.402753  1.570796 -0.000000 0.000000
64  -3.051754 -14.262373 -3.176498  1.572592 -0.004022 -0.000572
65  -0.005933 -2.262813 -2.946506  -0.000000 -0.000000 -0.000000
66  -0.007405 -0.385017 0.112675  -0.000000 -0.000000 -0.000000
67  -0.007403 -0.398124 12.763614  -0.000000 -0.000000 -0.000000
68  -0.007406 -3.312297 -1.336580  -0.000000 -0.000000 -0.000000
69  -0.005934 0.810493 1.247788  -0.000000 -0.000000 -0.000000
70  0.000002 0.037560 1.926311  -0.000000 -0.000000 -0.000000
71  -3.062641 -14.724541 -6.139731  1.572592 -0.004022 -0.000572
72  0.184183 1.994352 -0.809968  -0.000000 -0.000000 -0.000000
73  -0.114187 1.780465 -0.801676  -0.000000 -0.000000 -0.000000
74  0.076509 1.501417 -0.809969  -0.000000 -0.000000 -0.000000
time 7
0  0.000006 0.000000 0.000000  -1.570800 -1.391899 -1.570792
1  -3.518106 3.420410 -1.527451  -1.544956 -1.855077 -0.198630
2  6.027521 -0.000325 0.000193  -1.121279 -0.944577 -1.090186
3  11.692107 0.000644 -0.000739  -1.032249 -0.000023 -1.504193
4  11.480430 0.000477 -0.000633  1.035325 -0.645954 0.413547
5  3.859506 -0.142880 -1.192051  -0.778167 0.068914 -1.502592
6  1.312589 0.000009 0.000005  -0.135303 -0.037646 -0.288696
7  0.729357 0.000053 0.000046  0.004037 -0.012462 -0.362678
8  3.942141 0.046274 -0.431512  -0.693770 0.356114 -1.201512
9  1.539108 0.000085 0.000001  -0.032365 -0.079699 -0.453688
10  1.196334 0.000148 0.000031  0.008153 0.002732 -0.748207
11  3.883505 -0.047268 0.431381  -0.322019 0.643539 -0.630599
12  1.719573 -0.000029 0.000019  -0.033238 -0.086003 -0.823515
13  1.209182 0.000091 0.000013  -0.007835 -0.002562 -0.650932
14  3.859662 -0.138476 1.332409  0.166016 0.722762 -0.052367
15  1.719449 -0.000011 0.000021  -0.036329 0.033056 -0.412619
16  1.099676 0.000043 -0.000000  -0.004181 0.004116 -1.256705
17  0.720888 -1.421158 1.005923  -0.760907 -0.593476 -0.498366
18  1.789825 0.000000 -0.000016  0.022880 0.030024 0.834449
19  1.207008 -0.000013 -0.000045  -0.004342 -0.003284 -0.117962
20  5.740636 0.000412 -0.000702  -0.140101 0.000003 0.000071
21  11.481093 0.000309 -0.000784  -0.072653 -0.124046 0.034017
22  6.027525 -0.000330 0.000203  1.857290 -0.564922 1.548287
23  0.000003 11.692100 -0.000006  -1.031951 -0.478284 -0.811830
24  0.000004 0.000010 -0.000002  -0.163150 -0.000031 1.570739
25  0.000000 -0.000012 -0.000000  0.868957 0.000002 1.570712
26  -4.645759 -6.650901 2.046262  1.473120 1.855075 -0.198639
27  6.027508 -0.000259 -0.000229  1.490672 0.538092 -0.615994
28  11.691991 0.000243 0.000855  0.245671 0.000077 -1.905247
29  11.478753 -0.001144 0.001137  -1.206469 0.543793 0.795186
30  3.840239 -0.256104 1.127581  0.375755 0.017196 -2.109855
31  1.312558 0.000025 -0.000000  -0.016738 -0.067215 -0.358753
32  0.729345 0.000065 -0.000028  0.010499 -0.002285 -1.003070
33  3.942046 0.050109 0.430996  0.318069 -0.062504 -1.724927
34  1.539096 0.000010 -0.000000  0.007072 -0.088740 -0.961961
35  1.196299 0.000077 -0.000003  0.008893 -0.001311 -1.206604
36  3.883411 -0.050502 -0.431087  0.154352 -0.157823 -1.573639
37  1.719563 -0.000079 -0.000004  -0.024403 -0.068048 -1.595299
38  1.209196 0.000036 0.000012  0.007422 -0.002547 -0.459485
39  3.806436 -0.112148 -1.295330  0.048012 -0.209563 -0.240658
40  1.719413 -0.000100 -0.000034  0.058241 0.072660 -1.040663
41  1.099673 0.000026 0.000006  -0.007921 -0.000256 -0.463035
42  0.805978 -0.359854 -1.318339  1.330199 0.197557 -0.619517
43  1.789780 -0.000009 -0.000042  0.032550 0.123016 0.037179
44  1.206996 -0.000006 0.000005  0.000293 -0.001887 1.285959
45  5.740571 0.000054 0.000724  0.113693 -0.000014 0.000021
46  11.480694 -0.000193 0.000977  0.034406 0.106561 0.123794
47  6.027514 -0.000273 -0.000236  -0.699342 -0.649936 -1.716035
48  -0.000003 11.691974 -0.000005  -1.267982 0.714027 0.938934
49  0.000004 -0.000001 0.000000  2.518198 -0.000041 1.570856
50  -0.000007 -0.000015 0.000005  2.272644 -0.000030 1.570865
51  -3.481525 -5.850739 -7.591368  -0.167339 -3.025627 1.375515
52  -0.000000 0.000000 0.000000  0.008153 -0.000259 0.000009
53  -0.000000 -0.000000 -0.000001  1.565115 0.043565 -0.106862
54  -0.947921 -18.874554 -5.776417  -0.894542 -0.025440 -1.860492
55  0.000001 0.000000 0.000001  0.000000 -0.000000 -0.000002
56  0.000030 0.000030 0.000001  -1.571902 -0.044449 -0.106509
57  8.666351 -12.971641 -17.721577  1.570796 -0.000000 0.000000
58  -15.265000 7.133661 -18.583086  1.570796 -0.000000 0.000000
59  -1.523137 -2.740167 -4.071830  1.570796 -0.000000 0.000000
60  -0.004311 0.001230 -0.000371  0.006898 -0.005534 -0.284229
61  2.046263 7.371444 -3.388127  1.570796 -0.000000 0.000000
62  0.000000 0.000000 0.000000  -0.078727 -3.136056 0.284226
63  -3.061034 -2.790865 -0.402753  1.570796 -0.000000 0.000000
64  -3.052855 -14.217872 -3.175695  1.572055 -0.003419 0.000866
65  -0.005933 -2.262813 -2.946503  -0.000000 -0.000000 0.000000
66  -0.007406 -0.385017 0.112677  -0.000000 -0.000000 0.000000
67  -0.007403 -0.398124 12.763614  -0.000000 -0.000000 0.000000
68  -0.007406 -3.312296 -1.336578  -0.000000 -0.000000 0.000000
69  -0.005934 0.810493 1.247790  -0.000000 -0.000000 0.000000
70  0.000002 0.037560 1.926311  -0.000000 -0.000000 0.000000
71  -3.064862 -14.681648 -6.138672  1.572055 -0.003419 0.000866
72  0.184183 1.994350 -0.809968  -0.000000 -0.000000 0.000000
73  -0.114187 1.780464 -0.801674  -0.000000 -0.000000 0.000000
74  0.076509 1.501415 -0.809968  -0.000000 -0.000000 0.000000
time 8
0  0.000006 0.000000 0.000000  -1.570800 -1.391899 -1.570792
1  -3.518106 3.420410 -1.527451  -1.544956 -1.855077 -0.198630
2  6.027521 -0.000325 0.000193  -1.121005 -0.942289 -1.089000
3  11.692109 0.000645 -0.000740  -1.032250 -0.000023 -1.510635
4  11.480376 0.000458 -0.000663  1.033049 -0.649341 0.414496
5  3.859506 -0.142881 -1.192051  -0.778167 0.068914 -1.502592
6  1.312589 0.000008 0.000002  -0.135303 -0.037646 -0.288696
7  0.729358 0.000052 0.000047  0.004037 -0.012462 -0.362678
8  3.942140 0.046273 -0.431513  -0.693770 0.356114 -1.201512
9  1.539108 0.000087 0.000001  -0.032365 -0.079699 -0.453688
10  1.196335 0.000147 0.000028  0.008153 0.002732 -0.748207
11  3.883507 -0.047269 0.431381  -0.322019 0.643539 -0.630599
12  1.719575 -0.000028 0.000020  -0.033238 -0.086003 -0.823515
13  1.209180 0.000093 0.000014  -0.007835 -0.002562 -0.650932
14  3.859662 -0.138476 1.332409  0.166016 0.722762 -0.052367
15  1.719448 -0.000012 0.000021  -0.036329 0.033056 -0.412619
16  1.099676 0.000042 0.000003  -0.004181 0.004116 -1.256705
17  0.720890 -1.421159 1.005924  -0.760907 -0.593476 -0.498366
18  1.789827 0.000001 -0.000015  0.022880 0.030024 0.834449
19  1.207007 -0.000013 -0.000045  -0.004342 -0.003284 -0.117962
20  5.740636 0.000409 -0.000702  -0.141215 0.000003 0.000071
21  11.481080 0.000305 -0.000790  -0.072814 -0.124786 0.033855
22  6.027525 -0.000330 0.000203  1.858431 -0.567005 1.549083
23  0.000001 11.692101 -0.000006  -1.035764 -0.481858 -0.814229
24  0.000002 0.000008 -0.000001  -0.163150 -0.000031 1.570738
25  -0.000001 -0.000011 -0.000000  0.868957 0.000002 1.570712
26  -4.645759 -6.650901 2.046262  1.473120 1.855075 -0.198639
27  6.027508 -0.000259 -0.000229  1.490425 0.534347 -0.615844
28  11.691990 0.000243 0.000857  0.245671 0.000078 -1.910925
29  11.478708 -0.001164 0.001141  -1.207854 0.544986 0.796308
30  3.840239 -0.256103 1.127578  0.375755 0.017196 -2.109855
31  1.312558 0.000026 0.000000  -0.016738 -0.067215 -0.358753
32  0.729346 0.000065 -0.000028  0.010499 -0.002285 -1.003069
33  3.942046 0.050109 0.430996  0.318069 -0.062504 -1.724927
34  1.539096 0.000009 -0.000000  0.007072 -0.088740 -0.961961
35  1.196300 0.000077 -0.000004  0.008893 -0.001311 -1.206604
36  3.883411 -0.050502 -0.431088  0.154352 -0.157823 -1.573639
37  1.719564 -0.000079 -0.000004  -0.024403 -0.068048 -1.595299
38  1.209196 0.000035 0.000011  0.007422 -0.002547 -0.459485
39  3.806435 -0.112148 -1.295331  0.048331 -0.206624 -0.236303
40  1.719412 -0.000099 -0.000034  0.048678 0.079736 -1.163594
41  1.099674 0.000025 0.000007  -0.008028 -0.001289 -0.593790
42  0.805979 -0.359854 -1.318339  1.330199 0.197557 -0.619517
43  1.789779 -0.000008 -0.000042  0.032550 0.123016 0.037179
44  1.206996 -0.000006 0.000005  0.000293 -0.001887 1.285959
45  5.740572 0.000055 0.000725  0.113655 -0.000014 0.000021
46  11.480686 -0.000198 0.000978  0.034013 0.106716 0.124040
47  6.027514 -0.000273 -0.000236  -0.695266 -0.651820 -1.718228
48  -0.000001 11.691973 -0.000006  -1.271372 0.717527 0.940374
49  0.000003 -0.000001 0.000001  2.518198 -0.000041 1.570856
50  -0.000007 -0.000016 0.000004  2.272644 -0.000030 1.570865
51  -3.487574 -5.795638 -7.594211  -0.168631 -3.024718 1.375459
52  0.000000 -0.000000 -0.000001  0.008153 -0.000259 0.000009
53  -0.000000 0.000000 -0.000001  1.565115 0.043565 -0.106862
54  -0.954049 -18.818808 -5.774528  -0.895735 -0.026466 -1.860667
55  -0.000000 0.000001 -0.000000  0.000000 -0.000000 -0.000002
56  0.000031 0.000030 0.000001  -1.571901 -0.044449 -0.106509
57  8.666351 -12.971641 -17.721577  1.570796 -0.000000 0.000000
58  -15.265000 7.133661 -18.583086  1.570796 -0.000000 0.000000
59  -1.523137 -2.740167 -4.071830  1.570796 -0.000000 0.000000
60  -0.004311 0.001230 -0.000371  0.006898 -0.005534 -0.284229
61  2.046263 7.371444 -3.388127  1.570796 -0.000000 0.000000
62  0.000000 0.000000 0.000000  -0.078727 -3.136056 0.284226
63  -3.061034 -2.790865 -0.402753  1.570796 -0.000000 0.000000
64  -3.054288 -14.160020 -3.173780  1.571413 -0.001983 0.000661
65  -0.005933 -2.262813 -2.946502  -0.000000 -0.000000 0.000000
66  -0.007405 -0.385017 0.112678  -0.000000 -0.000000 0.000000
67  -0.007403 -0.398124 12.763618  -0.000000 -0.000000 0.000000
68  -0.007406 -3.312297 -1.336578  -0.000000 -0.000000 0.000000
69  -0.005934 0.810492 1.247790  -0.000000 -0.000000 0.000000
70  0.000002 0.037560 1.926312  -0.000000 -0.000000 0.000000
71  -3.070645 -14.625698 -6.136438  1.571413 -0.001983 0.000661
72  0.184183 1.994351 -0.809969  -0.000000 -0.000000 0.000000
73  -0.114187 1.780464 -0.801675  -0.000000 -0.000000 0.000000
74  0.076509 1.501416 -0.809969  -0.000000 -0.000000 0.000000
time 9
0  0.000006 0.000000 0.000000  -1.570800 -1.391899 -1.570792
1  -3.518106 3.420410 -1.527451  -1.544956 -1.855077 -0.198630
2  6.027521 -0.000325 0.000193  -1.120486 -0.940075 -1.087947
3  11.692108 0.000643 -0.000739  -1.032250 -0.000023 -1.516932
4  11.480326 0.000441 -0.000693  1.030404 -0.652516 0.415441
5  3.859506 -0.142880 -1.192051  -0.778167 0.068914 -1.502592
6  1.312590 0.000013 0.000002  -0.135303 -0.037646 -0.288696
7  0.729358 0.000052 0.000045  0.004037 -0.012462 -0.362678
8  3.942139 0.046273 -0.431513  -0.693770 0.356114 -1.201512
9  1.539108 0.000085 0.000000  -0.032365 -0.079699 -0.453688
10  1.196334 0.000146 0.000029  0.008153 0.002732 -0.748207
11  3.883504 -0.047268 0.431380  -0.322019 0.643539 -0.630599
12  1.719574 -0.000028 0.000019  -0.033238 -0.086003 -0.823515
13  1.209181 0.000093 0.000013  -0.007836 -0.002562 -0.650932
14  3.859661 -0.138476 1.332409  0.166016 0.722762 -0.052367
15  1.719449 -0.000012 0.000020  -0.036329 0.033056 -0.412619
16  1.099675 0.000042 0.000003  -0.004181 0.004116 -1.256705
17  0.720888 -1.421159 1.005924  -0.760907 -0.593476 -0.498366
18  1.789826 -0.000002 -0.000017  0.022880 0.030024 0.834449
19  1.207011 -0.000013 -0.000045  -0.004342 -0.003284 -0.117962
20  5.740638 0.000411 -0.000703  -0.142387 0.000003 0.000070
21  11.481072 0.000301 -0.000797  -0.073053 -0.125497 0.033678
22  6.027525 -0.000330 0.000203  1.859380 -0.569091 1.550044
23  0.000001 11.692099 -0.000006  -1.039488 -0.485359 -0.816562
24  0.000004 0.000009 -0.000001  -0.163150 -0.000031 1.570739
25  -0.000001 -0.000011 0.000000  0.868957 0.000002 1.570712
26  -4.645759 -6.650901 2.046262  1.473120 1.855075 -0.198639
27  6.027508 -0.000259 -0.000229  1.490162 0.530688 -0.615705
28  11.691989 0.000243 0.000855  0.245671 0.000078 -1.916674
29  11.478656 -0.001189 0.001147  -1.209431 0.546409 0.797794
30  3.840240 -0.256103 1.127580  0.375755 0.017196 -2.109855
31  1.312559 0.000026 -0.000001  -0.016738 -0.067215 -0.358753
32  0.729344 0.000065 -0.000027  0.010499 -0.002285 -1.003070
33  3.942045 0.050109 0.430997  0.318069 -0.062504 -1.724927
34  1.539096 0.000010 0.000000  0.007072 -0.088740 -0.961961
35  1.196299 0.000076 -0.000004  0.008893 -0.001311 -1.206604
36  3.883412 -0.050501 -0.431087  0.154352 -0.157823 -1.573639
37  1.719563 -0.000080 -0.000004  -0.024403 -0.068048 -1.595299
38  1.209196 0.000036 0.000011  0.007422 -0.002547 -0.459485
39  3.806436 -0.112148 -1.295329  0.048500 -0.205491 -0.235932
40  1.719412 -0.000100 -0.000035  0.043933 0.082624 -1.220984
41  1.099673 0.000024 0.000008  -0.008025 -0.001772 -0.654771
42  0.805978 -0.359853 -1.318338  1.330199 0.197557 -0.619517
43  1.789779 -0.000009 -0.000043  0.032550 0.123016 0.037179
44  1.206996 -0.000007 0.000005  0.000293 -0.001887 1.285959
45  5.740572 0.000055 0.000724  0.113600 -0.000014 0.000021
46  11.480675 -0.000202 0.000978  0.033552 0.106909 0.124358
47  6.027514 -0.000273 -0.000236  -0.691282 -0.653670 -1.720376
48  -0.000001 11.691973 -0.000005  -1.274810 0.721076 0.941822
49  0.000003 -0.000001 -0.000000  2.518198 -0.000041 1.570856
50  -0.000007 -0.000015 0.000006  2.272644 -0.000030 1.570865
51  -3.492447 -5.739951 -7.595680  -0.170219 -3.023857 1.375149
52  0.000001 -0.000000 0.000000  0.008153 -0.000259 0.000009
53  -0.000000 0.000000 -0.000000  1.565115 0.043565 -0.106862
54  -0.962247 -18.763393 -5.773329  -0.897224 -0.027472 -1.861122
55  -0.000001 -0.000000 0.000000  0.000000 -0.000000 -0.000002
56  0.000028 0.000029 0.000001  -1.571902 -0.044449 -0.106509
57  8.666351 -12.971641 -17.721577  1.570796 -0.000000 0.000000
58  -15.265000 7.133661 -18.583086  1.570796 -0.000000 0.000000
59  -1.523137 -2.740167 -4.071830  1.570796 -0.000000 0.000000
60  -0.004311 0.001230 -0.000371  0.006898 -0.005534 -0.284229
61  2.046263 7.371444 -3.388127  1.570796 -0.000000 0.000000
62  0.000000 0.000000 0.000000  -0.078727 -3.136056 0.284226
63  -3.061034 -2.790865 -0.402753  1.570796 -0.000000 0.000000
64  -3.055720 -14.102169 -3.171494  1.570876 -0.000268 0.000167
65  -0.005933 -2.262813 -2.946503  0.000000 0.000000 -0.000000
66  -0.007405 -0.385017 0.112676  0.000000 0.000000 -0.000000
67  -0.007403 -0.398124 12.763615  0.000000 0.000000 -0.000000
68  -0.007406 -3.312297 -1.336579  0.000000 0.000000 -0.000000
69  -0.005934 0.810492 1.247790  0.000000 0.000000 -0.000000
70  0.000002 0.037559 1.926313  0.000000 0.000000 -0.000000
71  -3.077387 -14.569431 -6.133869  1.570876 -0.000268 0.000167
72  0.184183 1.994351 -0.809969  0.000000 0.000000 -0.000000
73  -0.114187 1.780464 -0.801675  0.000000 0.000000 -0.000000
74  0.076509 1.501416 -0.809969  0.000000 0.000000 -0.000000
time 10
0  0.000006 0.000000 0.000000  -1.570800 -1.391899 -1.570792
1  -3.518106 3.420410 -1.527451  -1.544956 -1.855077 -0.198630
2  6.027521 -0.000325 0.000193  -1.119925 -0.938381 -1.087200
3  11.692107 0.000645 -0.000740  -1.032250 -0.000024 -1.521715
4  11.480285 0.000429 -0.000712  1.028055 -0.654851 0.416310
5  3.859507 -0.142880 -1.192051  -0.778167 0.068914 -1.502592
6  1.312589 0.000014 0.000002  -0.135303 -0.037646 -0.288696
7  0.729357 0.000053 0.000044  0.004037 -0.012462 -0.362678
8  3.942139 0.046274 -0.431513  -0.693770 0.356114 -1.201512
9  1.539108 0.000086 0.000002  -0.032365 -0.079699 -0.453688
10  1.196335 0.000147 0.000029  0.008153 0.002732 -0.748207
11  3.883506 -0.047268 0.431380  -0.322019 0.643539 -0.630599
12  1.719574 -0.000028 0.000017  -0.033238 -0.086003 -0.823515
13  1.209182 0.000092 0.000013  -0.007836 -0.002562 -0.650932
14  3.859661 -0.138476 1.332409  0.166016 0.722762 -0.052367
15  1.719448 -0.000013 0.000020  -0.036329 0.033056 -0.412619
16  1.099675 0.000042 -0.000001  -0.004181 0.004116 -1.256705
17  0.720888 -1.421158 1.005923  -0.760907 -0.593476 -0.498366
18  1.789825 0.000000 -0.000016  0.022880 0.030024 0.834449
19  1.207011 -0.000013 -0.000045  -0.004342 -0.003284 -0.117962
20  5.740637 0.000410 -0.000703  -0.143328 0.000003 0.000070
21  11.481064 0.000299 -0.000800  -0.073293 -0.126038 0.033552
22  6.027525 -0.000330 0.000203  1.860007 -0.570735 1.550905
23  0.000001 11.692098 -0.000006  -1.042314 -0.488023 -0.818328
24  0.000002 0.000010 -0.000002  -0.163150 -0.000030 1.570738
25  -0.000001 -0.000012 -0.000000  0.868957 0.000002 1.570712
26  -4.645759 -6.650901 2.046262  1.473120 1.855075 -0.198639
27  6.027508 -0.000259 -0.000229  1.489962 0.527963 -0.615602
28  11.691991 0.000243 0.000855  0.245671 0.000078 -1.921218
29  11.478616 -0.001207 0.001152  -1.210634 0.547618 0.799441
30  3.840239 -0.256103 1.127581  0.375755 0.017196 -2.109855
31  1.312558 0.000026 0.000001  -0.016738 -0.067215 -0.358753
32  0.729345 0.000066 -0.000027  0.010499 -0.002285 -1.003070
33  3.942047 0.050109 0.430998  0.318069 -0.062504 -1.724927
34  1.539097 0.000011 0.000000  0.007072 -0.088740 -0.961961
35  1.196300 0.000075 -0.000004  0.008893 -0.001311 -1.206604
36  3.883412 -0.050502 -0.431087  0.154352 -0.157823 -1.573639
37  1.719563 -0.000080 -0.000003  -0.024403 -0.068048 -1.595299
38  1.209196 0.000036 0.000011  0.007422 -0.002547 -0.459485
39  3.806437 -0.112148 -1.295329  0.048500 -0.205491 -0.235932
40  1.719411 -0.000099 -0.000034  0.043933 0.082624 -1.220984
41  1.099674 0.000026 0.000007  -0.008025 -0.001772 -0.654771
42  0.805980 -0.359854 -1.318338  1.330199 0.197557 -0.619517
43  1.789779 -0.000008 -0.000042  0.032550 0.123016 0.037179
44  1.206997 -0.000006 0.000005  0.000293 -0.001887 1.285959
45  5.740573 0.000054 0.000724  0.113591 -0.000014 0.000021
46  11.480669 -0.000206 0.000980  0.033168 0.107088 0.124695
47  6.027514 -0.000273 -0.000236  -0.688310 -0.655047 -1.721981
48  -0.000003 11.691971 -0.000005  -1.277529 0.723883 0.942957
49  0.000004 -0.000002 0.000000  2.518198 -0.000041 1.570856
50  -0.000007 -0.000015 0.000005  2.272644 -0.000030 1.570865
51  -3.494957 -5.696187 -7.595020  -0.171594 -3.023357 1.374720
52  0.000001 -0.000000 0.000000  0.008153 -0.000259 0.000009
53  0.000000 0.000000 0.000001  1.565115 0.043565 -0.106862
54  -0.969846 -18.720715 -5.773365  -0.898536 -0.028100 -1.861677
55  0.000001 0.000001 0.000000  0.000000 -0.000000 -0.000002
56  0.000030 0.000030 0.000001  -1.571901 -0.044449 -0.106509
57  8.666351 -12.971641 -17.721577  1.570796 -0.000000 0.000000
58  -15.265000 7.133661 -18.583086  1.570796 -0.000000 0.000000
59  -1.523137 -2.740167 -4.071830  1.570796 -0.000000 0.000000
60  -0.004311 0.001230 -0.000371  0.006898 -0.005534 -0.284229
61  2.046263 7.371444 -3.388127  1.570796 -0.000000 0.000000
62  0.000000 0.000000 0.000000  -0.078727 -3.136056 0.284226
63  -3.061034 -2.790865 -0.402753  1.570796 -0.000000 0.000000
64  -3.056821 -14.057667 -3.169579  1.570650 0.001168 -0.000425
65  -0.005933 -2.262813 -2.946503  0.000000 0.000000 0.000000
66  -0.007405 -0.385017 0.112676  0.000000 0.000000 0.000000
67  -0.007403 -0.398124 12.763615  0.000000 0.000000 0.000000
68  -0.007406 -3.312297 -1.336578  0.000000 0.000000 0.000000
69  -0.005934 0.810492 1.247790  0.000000 0.000000 0.000000
70  0.000002 0.037560 1.926310  0.000000 0.000000 0.000000
71  -3.083020 -14.525583 -6.131814  1.570650 0.001168 -0.000425
72  0.184183 1.994350 -0.809968  0.000000 0.000000 0.000000
73  -0.114187 1.780464 -0.801674  0.000000 0.000000 0.000000
74  0.076510 1.501415 -0.809968  0.000000 0.000000 0.000000
time 11
0  0.000006 0.000000 0.000000  -1.570800 -1.391899 -1.570792
1  -3.518106 3.420410 -1.527451  -1.544956 -1.855077 -0.198630
2  6.027521 -0.000325 0.000193  -1.119557 -0.937742 -1.086977
3  11.692109 0.000644 -0.000739  -1.032250 -0.000024 -1.523541
4  11.480270 0.000424 -0.000720  1.026935 -0.655596 0.416777
5  3.859508 -0.142880 -1.192050  -0.778167 0.068914 -1.502592
6  1.312590 0.000011 0.000002  -0.135303 -0.037646 -0.288696
7  0.729358 0.000053 0.000044  0.004037 -0.012462 -0.362678
8  3.942140 0.046274 -0.431512  -0.693770 0.356114 -1.201512
9  1.539107 0.000086 0.000001  -0.032365 -0.079699 -0.453688
10  1.196334 0.000146 0.000028  0.008153 0.002732 -0.748207
11  3.883505 -0.047268 0.431381  -0.322019 0.643539 -0.630599
12  1.719573 -0.000028 0.000020  -0.033238 -0.086003 -0.823515
13  1.209181 0.000094 0.000011  -0.007836 -0.002562 -0.650932
14  3.859663 -0.138475 1.332410  0.166016 0.722762 -0.052367
15  1.719447 -0.000012 0.000022  -0.036329 0.033056 -0.412619
16  1.099675 0.000040 0.000004  -0.004181 0.004116 -1.256705
17  0.720888 -1.421158 1.005924  -0.760907 -0.593476 -0.498366
18  1.789827 0.000001 -0.000016  0.022880 0.030024 0.834449
19  1.207010 -0.000012 -0.000045  -0.004342 -0.003284 -0.117962
20  5.740635 0.000410 -0.000702  -0.143708 0.000003 0.000070
21  11.481060 0.000299 -0.000801  -0.073426 -0.126228 0.033522
22  6.027525 -0.000330 0.000203  1.860147 -0.571399 1.551350
23  0.000001 11.692099 -0.000006  -1.043393 -0.489041 -0.819000
24  0.000004 0.000008 -0.000000  -0.163150 -0.000030 1.570738
25  -0.000001 -0.000011 0.000000  0.868957 0.000002 1.570712
26  -4.645759 -6.650901 2.046262  1.473120 1.855075 -0.198639
27  6.027508 -0.000259 -0.000229  1.489785 0.526981 -0.615613
28  11.691990 0.000243 0.000856  0.245671 0.000078 -1.923105
29  11.478598 -0.001214 0.001153  -1.211033 0.548381 0.800522
30  3.840240 -0.256103 1.127580  0.375755 0.017196 -2.109855
31  1.312559 0.000024 0.000000  -0.016738 -0.067215 -0.358753
32  0.729346 0.000066 -0.000028  0.010499 -0.002285 -1.003069
33  3.942047 0.050109 0.430997  0.318069 -0.062504 -1.724927
34  1.539096 0.000009 0.000000  0.007072 -0.088740 -0.961961
35  1.196299 0.000076 -0.000004  0.008893 -0.001311 -1.206604
36  3.883412 -0.050501 -0.431087  0.154352 -0.157823 -1.573639
37  1.719563 -0.000079 -0.000003  -0.024403 -0.068048 -1.595299
38  1.209197 0.000036 0.000011  0.007422 -0.002547 -0.459485
39  3.806436 -0.112148 -1.295330  0.048500 -0.205491 -0.235932
40  1.719413 -0.000099 -0.000034  0.043933 0.082624 -1.220984
41  1.099674 0.000026 0.000006  -0.008025 -0.001772 -0.654771
42  0.805979 -0.359854 -1.318338  1.330199 0.197557 -0.619517
43  1.789779 -0.000010 -0.000042  0.032550 0.123016 0.037179
44  1.206997 -0.000006 0.000005  0.000293 -0.001887 1.285959
45  5.740571 0.000055 0.000723  0.113618 -0.000014 0.000021
46  11.480663 -0.000206 0.000980  0.032989 0.107225 0.124892
47  6.027514 -0.000273 -0.000236  -0.687289 -0.655623 -1.722525
48  -0.000001 11.691973 -0.000006  -1.278659 0.725049 0.943427
49  0.000004 -0.000000 -0.000001  2.518198 -0.000041 1.570856
50  -0.000006 -0.000015 0.000005  2.272644 -0.000030 1.570865
51  -3.493920 -5.678121 -7.593860  -0.172191 -3.023250 1.374295
52  0.000000 -0.000000 -0.000001  0.008153 -0.000259 0.000009
53  0.000001 -0.000000 -0.000000  1.565115 0.043565 -0.106862
54  -0.974167 -18.703918 -5.773871  -0.899117 -0.028262 -1.862157
55  0.000001 0.000001 0.000000  0.000000 -0.000000 -0.000002
56  0.000030 0.000030 0.000001  -1.571901 -0.044449 -0.106509
57  8.666351 -12.971641 -17.721577  1.570796 -0.000000 0.000000
58  -15.265000 7.133661 -18.583086  1.570796 -0.000000 0.000000
59  -1.523137 -2.740167 -4.071830  1.570796 -0.000000 0.000000
60  -0.004311 0.001230 -0.000371  0.006898 -0.005534 -0.284229
61  2.046263 7.371444 -3.388127  1.570796 -0.000000 0.000000
62  0.000000 0.000000 0.000000  -0.078727 -3.136056 0.284226
63  -3.061034 -2.790865 -0.402753  1.570796 -0.000000 0.000000
64  -3.057262 -14.039866 -3.168776  1.570661 0.001770 -0.000921
65  -0.005933 -2.262813 -2.946502  -0.000000 -0.000000 0.000000
66  -0.007405 -0.385017 0.112678  -0.000000 -0.000000 0.000000
67  -0.007403 -0.398124 12.763615  -0.000000 -0.000000 0.000000
68  -0.007406 -3.312297 -1.336577  -0.000000 -0.000000 0.000000
69  -0.005934 0.810492 1.247790  -0.000000 -0.000000 0.000000
70  0.000002 0.037560 1.926312  -0.000000 -0.000000 0.000000
71  -3.085477 -14.507736 -6.131000  1.570661 0.001770 -0.000921
72  0.184183 1.994351 -0.809968  -0.000000 -0.000000 0.000000
73  -0.114187 1.780465 -0.801674  -0.000000 -0.000000 0.000000
74  0.076510 1.501416 -0.809968  -0.000000 -0.000000 0.000000
time 12
0  0.000006 0.000000 0.000000  -1.570800 -1.391899 -1.570792
1  -3.518106 3.420410 -1.527451  -1.544956 -1.855077 -0.198630
2  6.027521 -0.000325 0.000193  -1.119602 -0.937853 -1.087023
3  11.692108 0.000646 -0.000740  -1.032250 -0.000024 -1.523232
4  11.480275 0.000425 -0.000720  1.027298 -0.655246 0.416989
5  3.859506 -0.142881 -1.192051  -0.778167 0.068914 -1.502592
6  1.312591 0.000011 0.000002  -0.135303 -0.037646 -0.288696
7  0.729358 0.000054 0.000044  0.004037 -0.012462 -0.362678
8  3.942140 0.046274 -0.431512  -0.693770 0.356114 -1.201512
9  1.539108 0.000088 0.000002  -0.032365 -0.079699 -0.453688
10  1.196335 0.000146 0.000026  0.008153 0.002732 -0.748207
11  3.883507 -0.047269 0.431381  -0.322019 0.643539 -0.630599
12  1.719574 -0.000031 0.000017  -0.033238 -0.086003 -0.823515
13  1.209180 0.000092 0.000014  -0.007836 -0.002562 -0.650932
14  3.859662 -0.138476 1.332409  0.166016 0.722762 -0.052367
15  1.719448 -0.000012 0.000021  -0.036329 0.033056 -0.412619
16  1.099675 0.000040 0.000001  -0.004181 0.004116 -1.256705
17  0.720889 -1.421159 1.005924  -0.760907 -0.593476 -0.498366
18  1.789827 0.000000 -0.000015  0.022880 0.030024 0.834449
19  1.207009 -0.000013 -0.000046  -0.004342 -0.003284 -0.117962
20  5.740636 0.000410 -0.000703  -0.143560 0.000003 0.000071
21  11.481062 0.000298 -0.000802  -0.073371 -0.126158 0.033606
22  6.027525 -0.000330 0.000203  1.860110 -0.571289 1.551287
23  0.000003 11.692100 -0.000006  -1.043211 -0.488869 -0.818887
24  0.000003 0.000008 -0.000002  -0.163150 -0.000031 1.570739
25  -0.000001 -0.000011 -0.000000  0.868957 0.000002 1.570712
26  -4.645759 -6.650901 2.046262  1.473120 1.855075 -0.198639
27  6.027508 -0.000259 -0.000229  1.489476 0.527276 -0.615777
28  11.691992 0.000243 0.000855  0.245671 0.000078 -1.922852
29  11.478599 -0.001214 0.001153  -1.210442 0.548807 0.800807
30  3.840240 -0.256103 1.127581  0.375755 0.017196 -2.109855
31  1.312558 0.000026 0.000000  -0.016738 -0.067215 -0.358753
32  0.729345 0.000065 -0.000027  0.010499 -0.002285 -1.003069
33  3.942046 0.050109 0.430997  0.318069 -0.062504 -1.724927
34  1.539096 0.000010 -0.000000  0.007072 -0.088740 -0.961961
35  1.196299 0.000076 -0.000003  0.008893 -0.001311 -1.206604
36  3.883411 -0.050501 -0.431087  0.154352 -0.157823 -1.573639
37  1.719563 -0.000079 -0.000004  -0.024403 -0.068048 -1.595299
38  1.209197 0.000036 0.000012  0.007422 -0.002547 -0.459485
39  3.806435 -0.112147 -1.295330  0.048500 -0.205491 -0.235932
40  1.719410 -0.000099 -0.000034  0.043933 0.082624 -1.220984
41  1.099674 0.000024 0.000007  -0.008025 -0.001772 -0.654771
42  0.805978 -0.359853 -1.318338  1.330199 0.197557 -0.619517
43  1.789780 -0.000009 -0.000042  0.032551 0.123016 0.037179
44  1.206996 -0.000006 0.000005  0.000293 -0.001887 1.285959
45  5.740570 0.000055 0.000723  0.113709 -0.000014 0.000021
46  11.480662 -0.000207 0.000980  0.033048 0.107345 0.124891
47  6.027514 -0.000273 -0.000236  -0.687772 -0.655730 -1.722239
48  -0.000002 11.691971 -0.000006  -1.278507 0.724893 0.943364
49  0.000004 -0.000003 -0.000001  2.518198 -0.000041 1.570856
50  -0.000007 -0.000015 0.000005  2.272644 -0.000030 1.570865
51  -3.489764 -5.680332 -7.594680  -0.171711 -3.023372 1.374030
52  0.000000 -0.000000 0.000000  0.008153 -0.000259 0.000009
53  -0.000000 0.000000 -0.000000  1.565115 0.043565 -0.106862
54  -0.973612 -18.706703 -5.773801  -0.898654 -0.028095 -1.862377
55  -0.000003 -0.000000 0.000000  0.000000 -0.000000 -0.000002
56  0.000028 0.000029 0.000001  -1.571901 -0.044449 -0.106509
57  8.666351 -12.971641 -17.721577  1.570796 -0.000000 0.000000
58  -15.265000 7.133661 -18.583086  1.570796 -0.000000 0.000000
59  -1.523137 -2.740167 -4.071830  1.570796 -0.000000 0.000000
60  -0.004311 0.001230 -0.000371  0.006898 -0.005534 -0.284229
61  2.046263 7.371444 -3.388127  1.570796 -0.000000 0.000000
62  0.000000 0.000000 0.000000  -0.078727 -3.136056 0.284226
63  -3.061034 -2.790865 -0.402753  1.570796 -0.000000 0.000000
64  -3.057018 -14.042286 -3.169605  1.570688 0.001279 -0.001128
65  -0.005933 -2.262813 -2.946504  0.000000 0.000000 0.000000
66  -0.007405 -0.385017 0.112675  0.000000 0.000000 0.000000
67  -0.007403 -0.398124 12.763616  0.000000 0.000000 0.000000
68  -0.007406 -3.312297 -1.336579  0.000000 0.000000 0.000000
69  -0.005934 0.810493 1.247788  0.000000 0.000000 0.000000
70  0.000002 0.037560 1.926311  0.000000 0.000000 0.000000
71  -3.083875 -14.510072 -6.131855  1.570688 0.001279 -0.001128
72  0.184183 1.994351 -0.809968  0.000000 0.000000 0.000000
73  -0.114187 1.780464 -0.801674  0.000000 0.000000 0.000000
74  0.076510 1.501416 -0.809968  0.000000 0.000000 0.000000
time 13
0  0.000006 0.000000 0.000000  -1.570800 -1.391899 -1.570792
1  -3.518106 3.420410 -1.527451  -1.544956 -1.855077 -0.198630
2  6.027521 -0.000325 0.000193  -1.120114 -0.937886 -1.086847
3  11.692109 0.000644 -0.000740  -1.032250 -0.000024 -1.522880
4  11.480275 0.000426 -0.000716  1.028241 -0.655277 0.417176
5  3.859506 -0.142880 -1.192051  -0.778167 0.068914 -1.502592
6  1.312590 0.000011 0.000003  -0.135303 -0.037646 -0.288696
7  0.729357 0.000053 0.000045  0.004037 -0.012462 -0.362678
8  3.942142 0.046274 -0.431513  -0.693770 0.356114 -1.201512
9  1.539108 0.000086 0.000001  -0.032365 -0.079699 -0.453688
10  1.196335 0.000147 0.000029  0.008153 0.002732 -0.748207
11  3.883509 -0.047267 0.431380  -0.322019 0.643539 -0.630599
12  1.719575 -0.000029 0.000018  -0.033238 -0.086003 -0.823515
13  1.209181 0.000094 0.000013  -0.007835 -0.002562 -0.650932
14  3.859661 -0.138476 1.332409  0.166016 0.722762 -0.052367
15  1.719449 -0.000012 0.000022  -0.036329 0.033056 -0.412619
16  1.099676 0.000039 0.000002  -0.004181 0.004116 -1.256705
17  0.720891 -1.421158 1.005924  -0.760907 -0.593476 -0.498366
18  1.789826 -0.000000 -0.000017  0.022880 0.030024 0.834449
19  1.207011 -0.000013 -0.000044  -0.004342 -0.003284 -0.117962
20  5.740636 0.000410 -0.000701  -0.143310 0.000003 0.000071
21  11.481061 0.000298 -0.000800  -0.073190 -0.126141 0.033704
22  6.027525 -0.000330 0.000203  1.860407 -0.571114 1.550889
23  0.000002 11.692098 -0.000006  -1.043003 -0.488672 -0.818757
24  0.000002 0.000008 -0.000002  -0.163150 -0.000030 1.570738
25  -0.000000 -0.000012 -0.000001  0.868957 0.000002 1.570712
26  -4.645759 -6.650901 2.046262  1.473120 1.855075 -0.198639
27  6.027508 -0.000259 -0.000229  1.489401 0.527576 -0.615834
28  11.691991 0.000242 0.000854  0.245671 0.000078 -1.922217
29  11.478604 -0.001209 0.001153  -1.209577 0.548373 0.800434
30  3.840240 -0.256104 1.127580  0.375755 0.017196 -2.109855
31  1.312559 0.000026 0.000000  -0.016738 -0.067215 -0.358753
32  0.729345 0.000066 -0.000027  0.010499 -0.002285 -1.003069
33  3.942046 0.050109 0.430996  0.318069 -0.062504 -1.724927
34  1.539096 0.000011 -0.000000  0.007072 -0.088740 -0.961961
35  1.196300 0.000077 -0.000004  0.008893 -0.001311 -1.206604
36  3.883412 -0.050502 -0.431088  0.154352 -0.157823 -1.573639
37  1.719564 -0.000078 -0.000003  -0.024403 -0.068048 -1.595299
38  1.209198 0.000036 0.000011  0.007422 -0.002547 -0.459485
39  3.806437 -0.112148 -1.295330  0.048500 -0.205491 -0.235932
40  1.719411 -0.000100 -0.000034  0.043933 0.082624 -1.220984
41  1.099673 0.000024 0.000007  -0.008025 -0.001772 -0.654771
42  0.805979 -0.359854 -1.318339  1.330199 0.197557 -0.619517
43  1.789779 -0.000009 -0.000042  0.032550 0.123016 0.037179
44  1.206996 -0.000006 0.000005  0.000293 -0.001887 1.285959
45  5.740571 0.000057 0.000723  0.113827 -0.000014 0.000021
46  11.480664 -0.000205 0.000980  0.033255 0.107312 0.124786
47  6.027514 -0.000273 -0.000236  -0.688147 -0.655654 -1.722029
48  -0.000002 11.691972 -0.000006  -1.278127 0.724500 0.943206
49  0.000005 -0.000001 -0.000001  2.518198 -0.000041 1.570856
50  -0.000006 -0.000015 0.000005  2.272644 -0.000030 1.570865
51  -3.489180 -5.686156 -7.596328  -0.170817 -3.023584 1.374407
52  -0.000000 0.000000 0.000000  0.008153 -0.000259 0.000009
53  0.000000 0.000000 -0.000001  1.565115 0.043565 -0.106862
54  -0.968403 -18.711374 -5.773598  -0.897790 -0.027800 -1.861919
55  0.000001 -0.000000 -0.000000  0.000000 -0.000000 -0.000002
56  0.000030 0.000029 0.000001  -1.571901 -0.044449 -0.106509
57  8.666351 -12.971641 -17.721577  1.570796 -0.000000 0.000000
58  -15.265000 7.133661 -18.583086  1.570796 -0.000000 0.000000
59  -1.523137 -2.740167 -4.071830  1.570796 -0.000000 0.000000
60  -0.004311 0.001230 -0.000371  0.006898 -0.005534 -0.284229
61  2.046263 7.371444 -3.388127  1.570796 -0.000000 0.000000
62  0.000000 0.000000 0.000000  -0.078727 -3.136056 0.284226
63  -3.061034 -2.790865 -0.402753  1.570796 -0.000000 0.000000
64  -3.056434 -14.048054 -3.171144  1.570723 0.000367 -0.000646
65  -0.005933 -2.262812 -2.946503  0.000000 0.000000 -0.000000
66  -0.007405 -0.385017 0.112676  0.000000 0.000000 -0.000000
67  -0.007403 -0.398124 12.763614  0.000000 0.000000 -0.000000
68  -0.007406 -3.312297 -1.336578  0.000000 0.000000 -0.000000
69  -0.005934 0.810493 1.247789  0.000000 0.000000 -0.000000
70  0.000002 0.037560 1.926312  0.000000 0.000000 -0.000000
71  -3.080364 -14.515749 -6.133433  1.570723 0.000367 -0.000646
72  0.184183 1.994351 -0.809969  0.000000 0.000000 -0.000000
73  -0.114187 1.780464 -0.801675  0.000000 0.000000 -0.000000
74  0.076509 1.501416 -0.809970  0.000000 0.000000 -0.000000
time 14
0  0.000006 0.000000 0.000000  -1.570800 -1.391899 -1.570792
1  -3.518106 3.420410 -1.527451  -1.544956 -1.855077 -0.198630
2  6.027521 -0.000325 0.000193  -1.120552 -0.937979 -1.086734
3  11.692108 0.000647 -0.000741  -1.032250 -0.000024 -1.522387
4  11.480283 0.000426 -0.000716  1.028922 -0.655301 0.417108
5  3.859506 -0.142880 -1.192051  -0.778167 0.068914 -1.502592
6  1.312590 0.000010 0.000000  -0.135303 -0.037646 -0.288696
7  0.729357 0.000054 0.000045  0.004037 -0.012462 -0.362678
8  3.942141 0.046274 -0.431512  -0.693770 0.356114 -1.201512
9  1.539108 0.000084 -0.000001  -0.032365 -0.079699 -0.453688
10  1.196334 0.000145 0.000029  0.008153 0.002732 -0.748207
11  3.883505 -0.047269 0.431381  -0.322019 0.643539 -0.630599
12  1.719575 -0.000027 0.000020  -0.033238 -0.086003 -0.823515
13  1.209180 0.000093 0.000013  -0.007836 -0.002562 -0.650932
14  3.859662 -0.138476 1.332410  0.166016 0.722762 -0.052368
15  1.719447 -0.000013 0.000022  -0.036329 0.033056 -0.412619
16  1.099676 0.000043 0.000001  -0.004181 0.004116 -1.256705
17  0.720888 -1.421158 1.005924  -0.760907 -0.593476 -0.498366
18  1.789826 -0.000002 -0.000017  0.022880 0.030024 0.834449
19  1.207011 -0.000013 -0.000045  -0.004342 -0.003284 -0.117962
20  5.740637 0.000410 -0.000702  -0.143131 0.000003 0.000071
21  11.481065 0.000298 -0.000799  -0.073069 -0.126122 0.033737
22  6.027525 -0.000330 0.000203  1.860623 -0.570907 1.550533
23  0.000000 11.692101 -0.000007  -1.042712 -0.488398 -0.818576
24  0.000003 0.000008 -0.000001  -0.163150 -0.000030 1.570739
25  -0.000001 -0.000011 -0.000001  0.868957 0.000002 1.570712
26  -4.645759 -6.650901 2.046262  1.473120 1.855075 -0.198639
27  6.027508 -0.000259 -0.000229  1.489546 0.527875 -0.615788
28  11.691990 0.000243 0.000857  0.245671 0.000078 -1.921485
29  11.478611 -0.001208 0.001152  -1.209204 0.547672 0.799834
30  3.840239 -0.256104 1.127580  0.375755 0.017196 -2.109855
31  1.312558 0.000026 -0.000000  -0.016738 -0.067215 -0.358753
32  0.729345 0.000066 -0.000026  0.010499 -0.002285 -1.003070
33  3.942045 0.050109 0.430996  0.318069 -0.062504 -1.724927
34  1.539097 0.000010 0.000001  0.007072 -0.088740 -0.961961
35  1.196299 0.000077 -0.000004  0.008893 -0.001311 -1.206604
36  3.883411 -0.050501 -0.431088  0.154352 -0.157823 -1.573639
37  1.719563 -0.000080 -0.000003  -0.024403 -0.068048 -1.595299
38  1.209198 0.000036 0.000011  0.007422 -0.002547 -0.459485
39  3.806436 -0.112148 -1.295330  0.048500 -0.205491 -0.235932
40  1.719411 -0.000100 -0.000035  0.043933 0.082624 -1.220984
41  1.099673 0.000025 0.000007  -0.008025 -0.001772 -0.654771
42  0.805978 -0.359854 -1.318339  1.330199 0.197557 -0.619517
43  1.789779 -0.000010 -0.000042  0.032550 0.123016 0.037179
44  1.206996 -0.000007 0.000005  0.000293 -0.001887 1.285959
45  5.740571 0.000055 0.000723  0.113858 -0.000014 0.000021
46  11.480665 -0.000205 0.000980  0.033404 0.107194 0.124679
47  6.027514 -0.000273 -0.000236  -0.688414 -0.655408 -1.721894
48  -0.000002 11.691972 -0.000006  -1.277689 0.724048 0.943024
49  0.000005 -0.000001 -0.000000  2.518198 -0.000041 1.570856
50  -0.000007 -0.000016 0.000005  2.272644 -0.000030 1.570865
51  -3.490930 -5.693125 -7.597077  -0.170339 -3.023714 1.374904
52  0.000001 -0.000000 0.000000  0.008153 -0.000259 0.000009
53  0.000000 0.000000 -0.000001  1.565115 0.043565 -0.106862
54  -0.963853 -18.717012 -5.773563  -0.897329 -0.027626 -1.861379
55  0.000001 0.000001 0.000000  0.000000 -0.000000 -0.000002
56  0.000030 0.000030 0.000001  -1.571901 -0.044449 -0.106509
57  8.666351 -12.971641 -17.721577  1.570796 -0.000000 0.000000
58  -15.265000 7.133661 -18.583086  1.570796 -0.000000 0.000000
59  -1.523137 -2.740167 -4.071830  1.570796 -0.000000 0.000000
60  -0.004311 0.001230 -0.000371  0.006898 -0.005534 -0.284229
61  2.046263 7.371444 -3.388127  1.570796 -0.000000 0.000000
62  0.000000 0.000000 0.000000  -0.078727 -3.136056 0.284226
63  -3.061034 -2.790865 -0.402753  1.570796 -0.000000 0.000000
64  -3.055738 -14.054937 -3.171973  1.570758 -0.000124 -0.000093
65  -0.005933 -2.262813 -2.946503  -0.000000 -0.000000 -0.000000
66  -0.007405 -0.385017 0.112677  -0.000000 -0.000000 -0.000000
67  -0.007403 -0.398124 12.763616  -0.000000 -0.000000 -0.000000
68  -0.007406 -3.312297 -1.336578  -0.000000 -0.000000 -0.000000
69  -0.005934 0.810492 1.247789  -0.000000 -0.000000 -0.000000
70  0.000002 0.037560 1.926312  -0.000000 -0.000000 -0.000000
71  -3.077954 -14.522542 -6.134289  1.570758 -0.000124 -0.000093
72  0.184183 1.994351 -0.809968  -0.000000 -0.000000 -0.000000
73  -0.114187 1.780464 -0.801675  -0.000000 -0.000000 -0.000000
74  0.076510 1.501416 -0.809968  -0.000000 -0.000000 -0.000000
time 15
0  0.000006 0.000000 0.000000  -1.570800 -1.391899 -1.570792
1  -3.518106 3.420410 -1.527451  -1.544956 -1.855077 -0.198630
2  6.027521 -0.000325 0.000193  -1.120612 -0.938220 -1.086847
3  11.692109 0.000645 -0.000739  -1.032250 -0.000024 -1.521762
4  11.480287 0.000428 -0.000714  1.029037 -0.654997 0.416918
5  3.859506 -0.142880 -1.192050  -0.778167 0.068914 -1.502592
6  1.312589 0.000011 0.000001  -0.135303 -0.037646 -0.288696
7  0.729358 0.000053 0.000045  0.004037 -0.012462 -0.362678
8  3.942141 0.046274 -0.431512  -0.693770 0.356114 -1.201512
9  1.539108 0.000088 0.000001  -0.032365 -0.079699 -0.453688
10  1.196332 0.000146 0.000029  0.008153 0.002732 -0.748207
11  3.883506 -0.047268 0.431381  -0.322019 0.643539 -0.630599
12  1.719574 -0.000030 0.000018  -0.033238 -0.086003 -0.823515
13  1.209180 0.000092 0.000013  -0.007835 -0.002562 -0.650932
14  3.859661 -0.138476 1.332410  0.166016 0.722762 -0.052367
15  1.719449 -0.000012 0.000022  -0.036329 0.033056 -0.412619
16  1.099677 0.000042 0.000002  -0.004181 0.004116 -1.256705
17  0.720886 -1.421158 1.005924  -0.760907 -0.593476 -0.498366
18  1.789824 -0.000001 -0.000017  0.022880 0.030024 0.834449
19  1.207010 -0.000013 -0.000045  -0.004342 -0.003284 -0.117962
20  5.740639 0.000410 -0.000701  -0.143062 0.000003 0.000071
21  11.481065 0.000299 -0.000800  -0.073076 -0.126055 0.033726
22  6.027525 -0.000330 0.000203  1.860522 -0.570680 1.550426
23  0.000001 11.692100 -0.000006  -1.042342 -0.488049 -0.818345
24  0.000004 0.000008 -0.000001  -0.163150 -0.000031 1.570739
25  -0.000001 -0.000011 -0.000000  0.868957 0.000002 1.570712
26  -4.645759 -6.650901 2.046262  1.473120 1.855075 -0.198639
27  6.027508 -0.000259 -0.000229  1.489669 0.528238 -0.615758
28  11.691991 0.000243 0.000856  0.245672 0.000078 -1.920915
29  11.478616 -0.001203 0.001151  -1.209317 0.547432 0.799593
30  3.840240 -0.256103 1.127581  0.375755 0.017196 -2.109855
31  1.312558 0.000024 -0.000001  -0.016738 -0.067215 -0.358753
32  0.729345 0.000067 -0.000027  0.010499 -0.002285 -1.003070
33  3.942046 0.050109 0.430998  0.318069 -0.062504 -1.724927
34  1.539097 0.000011 -0.000000  0.007072 -0.088740 -0.961961
35  1.196300 0.000075 -0.000004  0.008893 -0.001311 -1.206604
36  3.883411 -0.050502 -0.431087  0.154352 -0.157823 -1.573639
37  1.719563 -0.000079 -0.000004  -0.024403 -0.068048 -1.595299
38  1.209195 0.000036 0.000011  0.007422 -0.002547 -0.459485
39  3.806435 -0.112147 -1.295329  0.048500 -0.205491 -0.235932
40  1.719410 -0.000099 -0.000034  0.043933 0.082624 -1.220984
41  1.099674 0.000026 0.000007  -0.008025 -0.001772 -0.654771
42  0.805979 -0.359854 -1.318338  1.330199 0.197557 -0.619517
43  1.789779 -0.000009 -0.000042  0.032550 0.123016 0.037179
44  1.206997 -0.000006 0.000005  0.000293 -0.001887 1.285959
45  5.740571 0.000056 0.000723  0.113821 -0.000014 0.000021
46  11.480666 -0.000203 0.000980  0.033414 0.107139 0.124651
47  6.027514 -0.000273 -0.000236  -0.688763 -0.655150 -1.721713
48  -0.000003 11.691973 -0.000006  -1.277347 0.723696 0.942882
49  0.000003 -0.000002 -0.000001  2.518198 -0.000041 1.570856
50  -0.000007 -0.000016 0.000005  2.272644 -0.000030 1.570865
51  -3.491303 -5.698809 -7.596262  -0.170405 -3.023728 1.374993
52  0.000000 0.000000 -0.000001  0.008153 -0.000259 0.000009
53  -0.000000 -0.000000 0.000000  1.565115 0.043565 -0.106862
54  -0.963051 -18.722540 -5.773258  -0.897396 -0.027618 -1.861296
55  -0.000000 0.000000 0.000000  0.000000 -0.000000 -0.000002
56  0.000029 0.000029 0.000001  -1.571902 -0.044449 -0.106509
57  8.666351 -12.971641 -17.721577  1.570796 -0.000000 0.000000
58  -15.265000 7.133661 -18.583086  1.570796 -0.000000 0.000000
59  -1.523137 -2.740167 -4.071830  1.570796 -0.000000 0.000000
60  -0.004311 0.001230 -0.000371  0.006898 -0.005534 -0.284229
61  2.046263 7.371444 -3.388127  1.570796 -0.000000 0.000000
62  0.000000 0.000000 0.000000  -0.078727 -3.136056 0.284226
63  -3.061034 -2.790865 -0.402753  1.570796 -0.000000 0.000000
64  -3.055155 -14.060705 -3.171411  1.570786 -0.000062 -0.000012
65  -0.005933 -2.262813 -2.946502  0.000000 0.000000 -0.000000
66  -0.007405 -0.385017 0.112677  0.000000 0.000000 -0.000000
67  -0.007403 -0.398124 12.763615  0.000000 0.000000 -0.000000
68  -0.007406 -3.312297 -1.336578  0.000000 0.000000 -0.000000
69  -0.005934 0.810493 1.247790  0.000000 0.000000 -0.000000
70  0.000002 0.037559 1.926313  0.000000 0.000000 -0.000000
71  -3.077516 -14.528233 -6.133739  1.570786 -0.000062 -0.000012
72  0.184183 1.994351 -0.809969  0.000000 0.000000 -0.000000
73  -0.114187 1.780464 -0.801675  0.000000 0.000000 -0.000000
74  0.076510 1.501416 -0.809969  0.000000 0.000000 -0.000000
time 16
0  0.000006 0.000000 0.000000  -1.570800 -1.391899 -1.570792
1  -3.518106 3.420410 -1.527451  -1.544956 -1.855077 -0.198630
2  6.027521 -0.000325 0.000193  -1.120621 -0.938343 -1.086914
3  11.692107 0.000644 -0.000738  -1.032250 -0.000024 -1.521486
4  11.480288 0.000428 -0.000713  1.029048 -0.654855 0.416843
5  3.859506 -0.142880 -1.192051  -0.778167 0.068914 -1.502592
6  1.312588 0.000013 0.000001  -0.135303 -0.037646 -0.288696
7  0.729358 0.000052 0.000047  0.004037 -0.012462 -0.362678
8  3.942140 0.046273 -0.431512  -0.693770 0.356114 -1.201512
9  1.539107 0.000087 -0.000001  -0.032365 -0.079699 -0.453688
10  1.196335 0.000147 0.000027  0.008153 0.002732 -0.748207
11  3.883507 -0.047268 0.431382  -0.322019 0.643539 -0.630599
12  1.719574 -0.000029 0.000019  -0.033238 -0.086003 -0.823515
13  1.209179 0.000095 0.000013  -0.007835 -0.002562 -0.650932
14  3.859661 -0.138477 1.332410  0.166016 0.722762 -0.052367
15  1.719448 -0.000011 0.000022  -0.036329 0.033056 -0.412619
16  1.099675 0.000041 0.000003  -0.004181 0.004116 -1.256705
17  0.720887 -1.421158 1.005924  -0.760907 -0.593476 -0.498366
18  1.789825 -0.000001 -0.000016  0.022880 0.030024 0.834449
19  1.207009 -0.000012 -0.000044  -0.004342 -0.003284 -0.117962
20  5.740637 0.000410 -0.000703  -0.143041 0.000003 0.000070
21  11.481064 0.000299 -0.000800  -0.073086 -0.126025 0.033720
22  6.027525 -0.000330 0.000203  1.860456 -0.570569 1.550388
23  0.000001 11.692100 -0.000006  -1.042179 -0.487895 -0.818244
24  0.000003 0.000008 -0.000002  -0.163150 -0.000031 1.570739
25  -0.000001 -0.000012 -0.000000  0.868957 0.000002 1.570712
26  -4.645759 -6.650901 2.046262  1.473120 1.855075 -0.198639
27  6.027508 -0.000259 -0.000229  1.489737 0.528407 -0.615739
28  11.691989 0.000242 0.000856  0.245671 0.000078 -1.920683
29  11.478621 -0.001204 0.001151  -1.209394 0.547341 0.799524
30  3.840238 -0.256103 1.127582  0.375755 0.017196 -2.109855
31  1.312558 0.000026 0.000001  -0.016738 -0.067215 -0.358753
32  0.729345 0.000064 -0.000027  0.010499 -0.002285 -1.003070
33  3.942046 0.050109 0.430997  0.318069 -0.062504 -1.724927
34  1.539097 0.000011 0.000000  0.007072 -0.088740 -0.961961
35  1.196299 0.000077 -0.000004  0.008893 -0.001311 -1.206604
36  3.883411 -0.050502 -0.431086  0.154352 -0.157823 -1.573639
37  1.719563 -0.000079 -0.000004  -0.024403 -0.068048 -1.595299
38  1.209197 0.000036 0.000012  0.007422 -0.002547 -0.459485
39  3.806436 -0.112147 -1.295328  0.048500 -0.205491 -0.235932
40  1.719412 -0.000100 -0.000035  0.043933 0.082624 -1.220984
41  1.099673 0.000024 0.000007  -0.008025 -0.001772 -0.654771
42  0.805978 -0.359853 -1.318338  1.330199 0.197557 -0.619517
43  1.789780 -0.000009 -0.000042  0.032551 0.123016 0.037179
44  1.206997 -0.000007 0.000006  0.000293 -0.001887 1.285959
45  5.740573 0.000055 0.000723  0.113804 -0.000014 0.000021
46  11.480669 -0.000205 0.000980  0.033410 0.107116 0.124647
47  6.027514 -0.000273 -0.000236  -0.688921 -0.655022 -1.721632
48  -0.000003 11.691974 -0.000005  -1.277209 0.723552 0.942824
49  0.000004 -0.000001 -0.000002  2.518198 -0.000041 1.570856
50  -0.000007 -0.000015 0.000005  2.272644 -0.000030 1.570865
51  -3.491430 -5.701185 -7.595583  -0.170469 -3.023727 1.375012
52  -0.000000 -0.000000 -0.000001  0.008153 -0.000259 0.000009
53  -0.000001 0.000000 0.000001  1.565115 0.043565 -0.106862
54  -0.962913 -18.724907 -5.772876  -0.897459 -0.027625 -1.861282
55  -0.000000 0.000001 -0.000000  0.000000 -0.000000 -0.000002
56  0.000031 0.000030 0.000000  -1.571901 -0.044449 -0.106509
57  8.666351 -12.971641 -17.721577  1.570796 -0.000000 0.000000
58  -15.265000 7.133661 -18.583086  1.570796 -0.000000 0.000000
59  -1.523137 -2.740167 -4.071830  1.570796 -0.000000 0.000000
60  -0.004311 0.001230 -0.000371  0.006898 -0.005534 -0.284229
61  2.046263 7.371444 -3.388127  1.570796 -0.000000 0.000000
62  0.000000 0.000000 0.000000  -0.078727 -3.136056 0.284226
63  -3.061034 -2.790865 -0.402753  1.570796 -0.000000 0.000000
64  -3.054910 -14.063125 -3.170850  1.570796 -0.000000 0.000000
65  -0.005933 -2.262812 -2.946504  0.000000 -0.000000 0.000000
66  -0.007405 -0.385017 0.112677  0.000000 -0.000000 0.000000
67  -0.007403 -0.398124 12.763616  0.000000 -0.000000 0.000000
68  -0.007406 -3.312297 -1.336578  0.000000 -0.000000 0.000000
69  -0.005934 0.810493 1.247789  0.000000 -0.000000 0.000000
70  0.000002 0.037560 1.926311  0.000000 -0.000000 0.000000
71  -3.077450 -14.530620 -6.133182  1.570796 -0.000000 0.000000
72  0.184183 1.994350 -0.809969  0.000000 -0.000000 0.000000
73  -0.114187 1.780464 -0.801675  0.000000 -0.000000 0.000000
74  0.076509 1.501416 -0.809969  0.000000 -0.000000 0.000000
end
