version 1
nodes
0 "root" -1
1 "holosight" -1
end
skeleton
time 0
0  0.000000 0.528956 0.189729  1.570796 -0.000000 0.000000
1  -0.012108 -0.395281 0.820715  1.570796 -0.000000 0.000000
end
triangles
lens
0  -0.546834 -0.439789 0.406798  0.086439 0.996257 0.000024  0.330672 0.525255 1 0 1
0  -0.546834 -0.443859 0.484927  0.099039 0.993164 0.061772  0.330672 0.525255 1 0 1
0  -0.336187 -0.458064 0.375588  0.086432 0.996258 0.000025  0.330672 0.525255 1 0 1
lens
0  0.546588 -0.439789 0.406798  -0.086438 0.996257 0.000023  0.330672 0.525255 1 0 1
0  0.335941 -0.458064 0.375588  -0.099039 0.993165 0.061771  0.330672 0.525255 1 0 1
0  0.546588 -0.443859 0.484927  -0.099039 0.993164 0.061771  0.330672 0.525255 1 0 1
lens
0  -0.410156 -0.341149 1.138936  0.030769 0.970316 -0.239877  0.330672 0.525255 1 0 1
0  -0.273478 -0.327660 1.195176  -0.018072 0.988648 -0.149157  0.330672 0.525255 1 0 1
0  -0.336187 -0.458064 0.375588  0.000001 0.991664 -0.128852  0.330672 0.525255 1 0 1
lens
0  -0.498254 -0.434361 0.375588  0.000000 0.985206 0.171371  0.330672 0.525255 1 0 1
0  -0.504219 -0.434361 0.375588  0.000000 0.985206 0.171371  0.330672 0.525255 1 0 1
0  -0.546834 -0.439789 0.406798  0.000000 0.985206 0.171371  0.330672 0.525255 1 0 1
lens
0  -0.336187 -0.458064 0.375588  0.134489 0.919536 0.369279  0.330672 0.525255 1 0 1
0  -0.498254 -0.434361 0.375588  0.134489 0.919536 0.369279  0.330672 0.525255 1 0 1
0  -0.546834 -0.439789 0.406798  0.134489 0.919536 0.369279  0.330672 0.525255 1 0 1
lens
0  0.546588 -0.439789 0.406798  0.000000 0.985210 0.171351  0.330672 0.525255 1 0 1
0  0.503973 -0.434361 0.375588  0.000000 0.985210 0.171351  0.330672 0.525255 1 0 1
0  0.498008 -0.434361 0.375588  0.000000 0.985210 0.171351  0.330672 0.525255 1 0 1
lens
0  0.498008 -0.434361 0.375588  -0.134489 0.919535 0.369280  0.330672 0.525255 1 0 1
0  0.335941 -0.458064 0.375588  -0.134489 0.919535 0.369280  0.330672 0.525255 1 0 1
0  0.546588 -0.439789 0.406798  -0.134489 0.919535 0.369280  0.330672 0.525255 1 0 1
lens
0  -0.273478 -0.327660 1.195176  -0.018080 0.988649 -0.149151  0.330672 0.525255 1 0 1
0  -0.136801 -0.321845 1.217124  -0.013830 0.985941 -0.166522  0.330672 0.525255 1 0 1
0  -0.336187 -0.458064 0.375588  -0.000016 0.991661 -0.128876  0.330672 0.525255 1 0 1
lens
0  -0.136801 -0.321845 1.217124  -0.013807 0.985941 -0.166523  0.330672 0.525255 1 0 1
0  0.136555 -0.320875 1.217124  0.012536 0.981370 -0.191719  0.330672 0.525255 1 0 1
0  0.335941 -0.458064 0.375588  0.000000 0.991660 -0.128880  0.330672 0.525255 1 0 1
lens
0  -0.336187 -0.458064 0.375588  0.000001 0.991662 -0.128862  0.330672 0.525255 1 0 1
0  -0.136801 -0.321845 1.217124  -0.013831 0.985938 -0.166535  0.330672 0.525255 1 0 1
0  0.335941 -0.458064 0.375588  -0.000001 0.991663 -0.128862  0.330672 0.525255 1 0 1
lens
0  0.136555 -0.320875 1.217124  0.012541 0.981375 -0.191692  0.330672 0.525255 1 0 1
0  0.273233 -0.326909 1.195176  0.012534 0.981376 -0.191690  0.330672 0.525255 1 0 1
0  0.335941 -0.458064 0.375588  -0.000010 0.991665 -0.128845  0.330672 0.525255 1 0 1
lens
0  0.273233 -0.326909 1.195176  0.012531 0.981374 -0.191697  0.330672 0.525255 1 0 1
0  0.409910 -0.338647 1.138936  -0.003561 0.970645 -0.240490  0.330672 0.525255 1 0 1
0  0.335941 -0.458064 0.375588  0.000017 0.991661 -0.128878  0.330672 0.525255 1 0 1
lens
0  0.409910 -0.338647 1.138936  -0.003563 0.970648 -0.240479  0.330672 0.525255 1 0 1
0  0.546588 -0.360784 1.042914  0.026738 0.985482 -0.167659  0.330672 0.525255 1 0 1
0  0.335941 -0.458064 0.375588  0.000022 0.991661 -0.128870  0.330672 0.525255 1 0 1
lens
0  0.546588 -0.360784 1.042914  0.026742 0.985484 -0.167650  0.330672 0.525255 1 0 1
0  0.546588 -0.443859 0.484927  0.000010 0.991660 -0.128882  0.330672 0.525255 1 0 1
0  0.335941 -0.458064 0.375588  -0.000010 0.991666 -0.128839  0.330672 0.525255 1 0 1
lens
0  -0.336187 -0.458064 0.375588  -0.000008 0.991662 -0.128868  0.330672 0.525255 1 0 1
0  -0.546834 -0.443859 0.484927  0.000003 0.989118 -0.147123  0.330672 0.525255 1 0 1
0  -0.546834 -0.360791 1.042914  -0.028213 0.985764 -0.165751  0.330672 0.525255 1 0 1
lens
0  -0.546834 -0.360791 1.042914  -0.028239 0.985763 -0.165755  0.330672 0.525255 1 0 1
0  -0.410156 -0.341149 1.138936  0.030773 0.970312 -0.239892  0.330672 0.525255 1 0 1
0  -0.336187 -0.458064 0.375588  -0.000007 0.991663 -0.128861  0.330672 0.525255 1 0 1
end
