version 1
nodes
0 "root" -1
1 "holosight" -1
end
skeleton
time 0
0  0.000000 -0.580702 0.082018  1.570796 -0.000000 0.000000
1  -0.012108 -1.504939 1.729433  1.570796 -0.000000 0.000000
end
triangles
lens
0  -0.546834 -1.549447 1.382308  0.086440 0.996257 0.000026  0.330672 0.525255 1 0 1
0  -0.546834 -1.553517 1.460437  0.099039 0.993164 0.061773  0.330672 0.525255 1 0 1
0  -0.336187 -1.567722 1.351099  0.086433 0.996258 0.000027  0.330672 0.525255 1 0 1
lens
0  0.546588 -1.549447 1.382308  -0.086438 0.996257 0.000022  0.330672 0.525255 1 0 1
0  0.335941 -1.567722 1.351099  -0.099039 0.993164 0.061770  0.330672 0.525255 1 0 1
0  0.546588 -1.553517 1.460437  -0.099040 0.993164 0.061770  0.330672 0.525255 1 0 1
lens
0  -0.410156 -1.450807 2.114446  0.030786 0.970304 -0.239922  0.330672 0.525255 1 0 1
0  -0.273478 -1.437317 2.170686  -0.018072 0.988648 -0.149160  0.330672 0.525255 1 0 1
0  -0.336187 -1.567722 1.351099  0.000000 0.991664 -0.128852  0.330672 0.525255 1 0 1
lens
0  -0.498254 -1.544019 1.351099  0.000000 0.985207 0.171368  0.330672 0.525255 1 0 1
0  -0.504219 -1.544019 1.351099  0.000000 0.985207 0.171368  0.330672 0.525255 1 0 1
0  -0.546834 -1.549447 1.382308  0.000000 0.985207 0.171368  0.330672 0.525255 1 0 1
lens
0  -0.336187 -1.567722 1.351099  0.134489 0.919537 0.369275  0.330672 0.525255 1 0 1
0  -0.498254 -1.544019 1.351099  0.134489 0.919537 0.369275  0.330672 0.525255 1 0 1
0  -0.546834 -1.549447 1.382308  0.134489 0.919537 0.369275  0.330672 0.525255 1 0 1
lens
0  0.546588 -1.549447 1.382308  0.000000 0.985209 0.171358  0.330672 0.525255 1 0 1
0  0.503973 -1.544019 1.351099  0.000000 0.985209 0.171358  0.330672 0.525255 1 0 1
0  0.498008 -1.544019 1.351099  0.000000 0.985209 0.171358  0.330672 0.525255 1 0 1
lens
0  0.498008 -1.544019 1.351099  -0.134490 0.919535 0.369280  0.330672 0.525255 1 0 1
0  0.335941 -1.567722 1.351099  -0.134490 0.919535 0.369280  0.330672 0.525255 1 0 1
0  0.546588 -1.549447 1.382308  -0.134490 0.919535 0.369280  0.330672 0.525255 1 0 1
lens
0  -0.273478 -1.437317 2.170686  -0.018082 0.988649 -0.149152  0.330672 0.525255 1 0 1
0  -0.136801 -1.431503 2.192634  -0.013873 0.985938 -0.166535  0.330672 0.525255 1 0 1
0  -0.336187 -1.567722 1.351099  -0.000015 0.991661 -0.128877  0.330672 0.525255 1 0 1
lens
0  -0.136801 -1.431503 2.192634  -0.013847 0.985936 -0.166550  0.330672 0.525255 1 0 1
0  0.136555 -1.430533 2.192634  0.012537 0.981370 -0.191719  0.330672 0.525255 1 0 1
0  0.335941 -1.567722 1.351099  0.000000 0.991660 -0.128880  0.330672 0.525255 1 0 1
lens
0  -0.336187 -1.567722 1.351099  0.000001 0.991662 -0.128863  0.330672 0.525255 1 0 1
0  -0.136801 -1.431503 2.192634  -0.013870 0.985933 -0.166564  0.330672 0.525255 1 0 1
0  0.335941 -1.567722 1.351099  -0.000001 0.991662 -0.128863  0.330672 0.525255 1 0 1
lens
0  0.136555 -1.430533 2.192634  0.012535 0.981375 -0.191692  0.330672 0.525255 1 0 1
0  0.273233 -1.436567 2.170686  0.012532 0.981375 -0.191691  0.330672 0.525255 1 0 1
0  0.335941 -1.567722 1.351099  0.000021 0.991660 -0.128882  0.330672 0.525255 1 0 1
lens
0  0.273233 -1.436567 2.170686  0.012532 0.981374 -0.191698  0.330672 0.525255 1 0 1
0  0.409910 -1.448304 2.114446  -0.003566 0.970645 -0.240489  0.330672 0.525255 1 0 1
0  0.335941 -1.567722 1.351099  0.000018 0.991660 -0.128878  0.330672 0.525255 1 0 1
lens
0  0.409910 -1.448304 2.114446  -0.003564 0.970648 -0.240479  0.330672 0.525255 1 0 1
0  0.546588 -1.470442 2.018424  0.026736 0.985483 -0.167657  0.330672 0.525255 1 0 1
0  0.335941 -1.567722 1.351099  0.000020 0.991661 -0.128871  0.330672 0.525255 1 0 1
lens
0  0.546588 -1.470442 2.018424  0.026741 0.985484 -0.167651  0.330672 0.525255 1 0 1
0  0.546588 -1.553517 1.460437  0.000009 0.991660 -0.128883  0.330672 0.525255 1 0 1
0  0.335941 -1.567722 1.351099  0.000011 0.991660 -0.128882  0.330672 0.525255 1 0 1
lens
0  -0.336187 -1.567722 1.351099  -0.000007 0.991662 -0.128868  0.330672 0.525255 1 0 1
0  -0.546834 -1.553517 1.460437  0.000003 0.989118 -0.147123  0.330672 0.525255 1 0 1
0  -0.546834 -1.470449 2.018424  -0.028213 0.985764 -0.165751  0.330672 0.525255 1 0 1
lens
0  -0.546834 -1.470449 2.018424  -0.028239 0.985763 -0.165755  0.330672 0.525255 1 0 1
0  -0.410156 -1.450807 2.114446  0.030788 0.970299 -0.239940  0.330672 0.525255 1 0 1
0  -0.336187 -1.567722 1.351099  -0.000006 0.991663 -0.128861  0.330672 0.525255 1 0 1
end
