version 1
nodes
0 "ValveBiped.Bip01_Spine4" -1
1 "ValveBiped.Bip01_L_Clavicle" 0
2 "ValveBiped.Bip01_L_UpperArm" 1
3 "ValveBiped.Bip01_L_Forearm" 2
4 "ValveBiped.Bip01_L_Hand" 3
5 "ValveBiped.Bip01_L_Finger4" 4
6 "ValveBiped.Bip01_L_Finger41" 5
7 "ValveBiped.Bip01_L_Finger42" 6
8 "ValveBiped.Bip01_L_Finger3" 4
9 "ValveBiped.Bip01_L_Finger31" 8
10 "ValveBiped.Bip01_L_Finger32" 9
11 "ValveBiped.Bip01_L_Finger2" 4
12 "ValveBiped.Bip01_L_Finger21" 11
13 "ValveBiped.Bip01_L_Finger22" 12
14 "ValveBiped.Bip01_L_Finger1" 4
15 "ValveBiped.Bip01_L_Finger11" 14
16 "ValveBiped.Bip01_L_Finger12" 15
17 "ValveBiped.Bip01_L_Finger0" 4
18 "ValveBiped.Bip01_L_Finger01" 17
19 "ValveBiped.Bip01_L_Finger02" 18
20 "ValveBiped.Bip01_L_Ulna" 3
21 "ValveBiped.Bip01_L_Wrist" 3
22 "rig_l_upperarm" 1
23 "rig_l_forearm" 22
24 "rig_d_l_forearm" 23
25 "rig_d_l_upperarm" 22
26 "ValveBiped.Bip01_R_Clavicle" 0
27 "ValveBiped.Bip01_R_UpperArm" 26
28 "ValveBiped.Bip01_R_Forearm" 27
29 "ValveBiped.Bip01_R_Hand" 28
30 "ValveBiped.Bip01_R_Finger4" 29
31 "ValveBiped.Bip01_R_Finger41" 30
32 "ValveBiped.Bip01_R_Finger42" 31
33 "ValveBiped.Bip01_R_Finger3" 29
34 "ValveBiped.Bip01_R_Finger31" 33
35 "ValveBiped.Bip01_R_Finger32" 34
36 "ValveBiped.Bip01_R_Finger2" 29
37 "ValveBiped.Bip01_R_Finger21" 36
38 "ValveBiped.Bip01_R_Finger22" 37
39 "ValveBiped.Bip01_R_Finger1" 29
40 "ValveBiped.Bip01_R_Finger11" 39
41 "ValveBiped.Bip01_R_Finger12" 40
42 "ValveBiped.Bip01_R_Finger0" 29
43 "ValveBiped.Bip01_R_Finger01" 42
44 "ValveBiped.Bip01_R_Finger02" 43
45 "ValveBiped.Bip01_R_Ulna" 28
46 "ValveBiped.Bip01_R_Wrist" 28
47 "rig_r_upperarm" 26
48 "rig_r_forearm" 47
49 "rig_d_r_forearm" 48
50 "rig_d_r_upperarm" 47
51 "rig_r_hand" -1
52 "rig_d_r_hand" 51
53 "rig_d_r_wrist" 52
54 "rig_l_hand" -1
55 "rig_d_l_hand" 54
56 "rig_d_l_wrist" 54
57 "rig_l_pole" -1
58 "rig_r_pole" -1
59 "rig_l_clavicle" -1
60 "rig_d_l_clavicle" 59
61 "rig_r_clavicle" -1
62 "rig_d_r_clavicle" 61
63 "Camera" -1
64 "body" -1
65 "hammer" 64
66 "barrel" 64
67 "cylinderlock" 64
68 "cylinder" 67
69 "cylinderpush" 68
70 "trigger" 64
71 "cylrel" 64
72 "bullet1" -1
73 "bullet2" -1
74 "bullet3" -1
75 "bullet4" -1
76 "bullet5" -1
77 "bullet6" -1
78 "speedloader" -1
end
skeleton
time 0
0  0.000006 0.000000 0.000000  -1.570800 -1.391899 -1.570792
1  2.033349 1.000767 1.937657  -1.544956 -1.855077 -0.198630
2  6.027515 -0.000324 0.000201  -1.583284 0.045954 -0.585171
3  11.692119 0.000650 -0.000737  -0.000012 0.000001 -0.056696
4  11.481224 0.000160 -0.000727  1.576889 -0.106574 0.041971
5  3.859504 -0.142825 -1.192079  -0.468169 0.151546 -0.880257
6  1.312590 0.000009 0.000007  -0.000027 0.000044 -0.439740
7  0.729357 0.000054 0.000049  0.000017 0.000021 -0.244317
8  3.942141 0.046330 -0.431543  -0.151817 0.073216 -0.811086
9  1.539113 0.000082 0.000004  -0.000007 0.000021 -0.247842
10  1.196331 0.000148 0.000029  0.000011 0.000018 -0.430770
11  3.883512 -0.047212 0.431351  0.085894 0.021858 -0.587909
12  1.719573 -0.000030 0.000017  0.000015 0.005518 -0.366533
13  1.209181 0.000090 0.000012  0.000004 0.003091 -0.216438
14  3.859679 -0.138420 1.332380  0.354466 -0.042717 -0.531784
15  1.719446 -0.000022 0.000029  0.000028 0.004066 -0.363025
16  1.099675 0.000049 0.000005  0.000003 0.002578 -0.244381
17  0.806011 -0.349039 1.321247  -1.222694 -0.679188 -0.788867
18  1.789819 -0.000005 -0.000017  0.000011 -0.000024 0.228523
19  1.207014 -0.000014 -0.000043  0.000002 -0.000008 0.362856
20  5.740638 0.000388 -0.000698  0.003035 0.000003 0.000063
21  11.481259 0.000207 -0.000799  0.004953 0.000188 -0.001556
22  6.027525 -0.000330 0.000200  0.059595 -2.453119 -2.193920
23  0.000000 11.692101 -0.000007  -0.043320 -0.000838 -0.036616
24  0.000003 0.000010 0.000000  0.868996 -0.000031 1.570739
25  -0.000001 -0.000012 -0.000001  0.868960 0.000002 1.570712
26  2.033355 1.000772 -1.937609  1.473120 1.855075 -0.198639
27  6.027503 -0.000268 -0.000221  2.256014 0.185125 0.163639
28  11.691994 0.000162 0.000858  0.000010 0.000010 -0.851719
29  11.480750 0.000013 0.000826  -2.229583 -0.380617 1.411462
30  3.859439 -0.132759 1.193066  0.466290 -0.158048 -0.878823
31  1.312559 0.000026 0.000000  0.000013 -0.000043 -0.439709
32  0.729346 0.000065 -0.000025  -0.000023 -0.000019 -0.244286
33  3.942049 0.050139 0.431001  0.150091 -0.079181 -0.810189
34  1.539097 0.000008 0.000002  0.000009 -0.000007 -0.247824
35  1.196301 0.000076 -0.000002  -0.000007 -0.000009 -0.430781
36  3.883416 -0.050472 -0.431084  -0.085915 -0.026392 -0.587660
37  1.719564 -0.000086 -0.000005  -0.000006 -0.007962 -0.366486
38  1.209197 0.000036 0.000011  0.000002 -0.004461 -0.216413
39  3.859590 -0.149082 -1.331321  -0.354445 0.038578 -0.531955
40  1.719412 -0.000099 -0.000037  -0.000030 -0.006584 -0.363030
41  1.099674 0.000023 0.000007  0.000004 -0.004188 -0.244347
42  0.805984 -0.359850 -1.318338  1.221444 0.673631 -0.793558
43  1.789781 -0.000009 -0.000043  -0.000028 0.000031 0.228553
44  1.206998 -0.000008 0.000005  -0.000017 0.000020 0.362910
45  5.740572 0.000080 0.000720  -0.012248 -0.000014 0.000028
46  11.481093 0.000078 0.000909  -0.059536 -0.162777 0.243161
47  6.027515 -0.000273 -0.000228  -0.185184 -0.016359 -1.404159
48  -0.000001 11.691976 -0.000006  -0.622298 0.169100 0.515288
49  0.000002 0.000000 -0.000000  2.272571 -0.000036 1.570860
50  -0.000007 -0.000014 0.000005  2.272645 -0.000036 1.570861
51  -25.658375 -12.210334 2.657774  -1.605366 2.379717 -0.041994
52  0.000000 0.000002 -0.000000  0.008153 -0.000259 0.000009
53  0.000002 -0.000000 0.000000  1.565115 0.043565 -0.106862
54  22.676517 -0.984221 -17.554199  1.605712 0.761853 0.042358
55  0.000001 -0.000003 -0.000000  0.000000 -0.000001 -0.000002
56  0.000032 0.000027 0.000001  -1.571901 -0.044449 -0.106509
57  15.265023 8.339654 -8.787539  1.570796 -0.000000 0.000000
58  -15.265000 8.339654 -8.787539  1.570796 -0.000000 0.000000
59  1.941978 -1.346989 1.821586  1.570796 -0.000000 0.000000
60  -0.004311 0.001230 -0.000371  0.006898 -0.005534 -0.284229
61  -1.937603 -1.346625 1.822824  1.570796 -0.000000 0.000000
62  0.000000 0.000000 0.000000  -0.078727 -3.136056 0.284226
63  0.000000 0.000000 0.000000  1.570796 -0.000000 0.000000
64  -3.534368 -10.111034 -2.851932  1.570796 -0.000000 0.000000
65  -0.143794 1.243191 1.790707  0.000000 -0.000000 0.000000
66  0.000001 2.431489 11.900957  0.000000 -0.000000 0.000000
67  0.151288 0.906791 4.692154  0.000000 -0.000000 0.000000
68  -0.151288 1.013638 -0.467878  0.000000 -0.000000 0.000000
69  0.000000 -0.000000 2.081793  0.000000 -0.000000 0.000000
70  0.000000 0.884824 2.687938  0.000000 -0.000000 0.000000
71  0.299800 1.920429 2.128872  0.000000 -0.000000 0.000000
72  -2.982872 -11.854320 0.592346  1.570796 -0.000000 0.000000
73  -2.547048 -11.854321 0.334361  1.570796 -0.000000 0.000000
74  -2.550177 -11.854321 -0.164210  1.570796 -0.000000 0.000000
75  -2.982284 -11.854320 -0.418564  1.570796 -0.000000 0.000000
76  -3.415877 -11.854320 -0.164294  1.570796 -0.000000 0.000000
77  -3.418254 -11.854320 0.333862  1.570796 -0.000000 0.000000
78  -2.981807 -12.047653 0.082470  1.570796 -0.000000 0.000000
end
triangles
gun_tex
0  -3.744701 -18.322044 -0.784049  -1.000000 -0.000000 0.000000  0.288328 0.529607 1 64 1.000000
0  -3.744701 -15.031216 -1.100806  -1.000000 -0.000000 0.000000  0.288328 0.529607 1 64 1.000000
0  -3.744701 -18.322044 -1.100806  -1.000000 -0.000000 0.000000  0.288328 0.529607 1 64 1.000000
gun_tex
0  -3.654274 -18.322044 -1.195508  -0.723240 0.000000 -0.690597  0.288328 0.529607 1 64 1.000000
0  -3.744701 -15.031216 -1.100806  -0.723240 0.000000 -0.690597  0.288328 0.529607 1 64 1.000000
0  -3.654274 -15.031216 -1.195507  -0.723240 0.000000 -0.690597  0.288328 0.529607 1 64 1.000000
gun_tex
0  -3.665373 -16.485390 -0.882276  1.000000 -0.000008 0.000000  0.288328 0.529607 1 64 1.000000
0  -3.665373 -16.485390 -0.980382  1.000000 -0.000008 0.000000  0.288328 0.529607 1 64 1.000000
0  -3.665373 -16.404737 -1.078488  1.000000 -0.000008 0.000000  0.288328 0.529607 1 64 1.000000
gun_tex
0  -3.654274 -18.322044 -1.195508  0.000000 0.000000 -1.000000  0.288328 0.529607 1 64 1.000000
0  -3.414461 -15.031216 -1.195507  0.000000 0.000000 -1.000000  0.288328 0.529607 1 64 1.000000
0  -3.414461 -18.322044 -1.195508  0.000000 0.000000 -1.000000  0.288328 0.529607 1 64 1.000000
gun_tex
0  -3.414461 -15.031216 -1.195507  0.723243 0.000000 -0.690594  0.288328 0.529607 1 64 1.000000
0  -3.324034 -18.322044 -1.100806  0.723243 0.000000 -0.690594  0.288328 0.529607 1 64 1.000000
0  -3.414461 -18.322044 -1.195508  0.723243 0.000000 -0.690594  0.288328 0.529607 1 64 1.000000
gun_tex
0  -3.665373 -16.404737 -1.078488  0.000001 0.000000 1.000000  0.288328 0.529607 1 64 1.000000
0  -3.324034 -15.031216 -1.078488  0.000001 0.000000 1.000000  0.288328 0.529607 1 64 1.000000
0  -3.665373 -15.031216 -1.078488  0.000001 0.000000 1.000000  0.288328 0.529607 1 64 1.000000
gun_tex
0  -3.665373 -16.404737 -0.784171  0.000000 0.000000 -1.000000  0.288328 0.529607 1 64 1.000000
0  -3.324034 -15.031216 -0.784171  0.000000 0.000000 -1.000000  0.288328 0.529607 1 64 1.000000
0  -3.324034 -16.404737 -0.784171  0.000000 0.000000 -1.000000  0.288328 0.529607 1 64 1.000000
gun_tex
0  -3.665373 -16.485390 -0.980382  0.000000 0.772465 0.635058  0.288328 0.529607 1 64 1.000000
0  -3.324034 -16.404737 -1.078488  0.000000 0.772465 0.635058  0.288328 0.529607 1 64 1.000000
0  -3.665373 -16.404737 -1.078488  0.000000 0.772465 0.635058  0.288328 0.529607 1 64 1.000000
gun_tex
0  -3.665373 -16.404737 -0.784171  -0.000004 0.772463 -0.635059  0.288328 0.529607 1 64 1.000000
0  -3.324034 -16.485388 -0.882276  -0.000004 0.772463 -0.635059  0.288328 0.529607 1 64 1.000000
0  -3.665373 -16.485390 -0.882276  -0.000004 0.772463 -0.635059  0.288328 0.529607 1 64 1.000000
gun_tex
0  -3.665373 -16.485390 -0.882276  -0.000006 1.000000 0.000000  0.288328 0.529607 1 64 1.000000
0  -3.324034 -16.485388 -0.980382  -0.000006 1.000000 0.000000  0.288328 0.529607 1 64 1.000000
0  -3.665373 -16.485390 -0.980382  -0.000006 1.000000 0.000000  0.288328 0.529607 1 64 1.000000
gun_tex
0  -3.639534 -15.031216 -0.712014  -0.565101 -0.000000 0.825022  0.288328 0.529607 1 64 1.000000
0  -3.744701 -18.322044 -0.784049  -0.565101 -0.000000 0.825022  0.288328 0.529607 1 64 1.000000
0  -3.639534 -18.322044 -0.712015  -0.565101 -0.000000 0.825022  0.288328 0.529607 1 64 1.000000
gun_tex
0  -3.324034 -16.485388 -0.980382  1.000000 0.000000 0.000000  0.288328 0.529607 1 64 1.000000
0  -3.324034 -16.485388 -0.882276  1.000000 0.000000 0.000000  0.288328 0.529607 1 64 1.000000
0  -3.324034 -18.322044 -0.784049  1.000000 0.000000 0.000000  0.288328 0.529607 1 64 1.000000
gun_tex
0  -3.665373 -15.031216 -0.784171  0.000024 1.000000 0.000000  0.288328 0.529607 1 64 1.000000
0  -3.665373 -15.031216 -1.078488  0.000024 1.000000 0.000000  0.288328 0.529607 1 64 1.000000
0  -3.744701 -15.031214 -0.784049  0.000024 1.000000 0.000000  0.288328 0.529607 1 64 1.000000
gun_tex
0  -3.324034 -15.031216 -0.784049  0.565102 -0.000000 0.825021  0.288328 0.529607 1 64 1.000000
0  -3.429200 -18.322044 -0.712015  0.565102 -0.000000 0.825021  0.288328 0.529607 1 64 1.000000
0  -3.324034 -18.322044 -0.784049  0.565102 -0.000000 0.825021  0.288328 0.529607 1 64 1.000000
gun_tex
0  -3.429200 -18.322044 -0.712015  0.000000 -1.000000 0.000000  0.288328 0.529607 1 64 1.000000
0  -3.744701 -18.322044 -1.100806  0.000000 -1.000000 0.000000  0.288328 0.529607 1 64 1.000000
0  -3.324034 -18.322044 -1.100806  0.000000 -1.000000 0.000000  0.288328 0.529607 1 64 1.000000
gun_tex
0  -3.639534 -15.031216 -0.712014  0.000000 -0.000000 1.000000  0.288328 0.529607 1 64 1.000000
0  -3.429200 -18.322044 -0.712015  0.000000 -0.000000 1.000000  0.288328 0.529607 1 64 1.000000
0  -3.429201 -15.031216 -0.712014  0.000000 -0.000000 1.000000  0.288328 0.529607 1 64 1.000000
gun_tex
0  -3.606482 -14.786438 0.124367  0.000000 1.000000 0.000000  0.288328 0.529607 1 64 1.000000
0  -3.462254 -14.786438 0.091670  0.000000 1.000000 0.000000  0.288328 0.529607 1 64 1.000000
0  -3.606482 -14.786438 0.091670  0.000000 1.000000 0.000000  0.288328 0.529607 1 64 1.000000
gun_tex
0  -3.462254 -14.786438 0.124367  1.000000 0.000000 0.000000  0.288328 0.529607 1 64 1.000000
0  -3.462254 -18.264206 0.091670  1.000000 0.000000 0.000000  0.288328 0.529607 1 64 1.000000
0  -3.462254 -14.786438 0.091670  1.000000 0.000000 0.000000  0.288328 0.529607 1 64 1.000000
gun_tex
0  -3.462254 -18.264206 0.243912  0.000000 -1.000000 0.000000  0.288328 0.529607 1 64 1.000000
0  -3.606482 -18.264206 0.091670  0.000000 -1.000000 0.000000  0.288328 0.529607 1 64 1.000000
0  -3.462254 -18.264206 0.091670  0.000000 -1.000000 0.000000  0.288328 0.529607 1 64 1.000000
gun_tex
0  -3.606482 -18.264206 0.091670  -1.000000 -0.000000 0.000000  0.288328 0.529607 1 64 1.000000
0  -3.606482 -14.786438 0.124367  -1.000000 -0.000000 0.000000  0.288328 0.529607 1 64 1.000000
0  -3.606482 -14.786438 0.091670  -1.000000 -0.000000 0.000000  0.288328 0.529607 1 64 1.000000
gun_tex
0  -3.462254 -14.786438 0.091670  0.000002 -0.000000 -1.000000  0.288328 0.529607 1 64 1.000000
0  -3.606482 -18.264206 0.091670  0.000002 -0.000000 -1.000000  0.288328 0.529607 1 64 1.000000
0  -3.606482 -14.786438 0.091670  0.000002 -0.000000 -1.000000  0.288328 0.529607 1 64 1.000000
gun_tex
0  -3.462254 -14.786438 0.124367  0.000000 0.034354 0.999410  0.288328 0.529607 1 64 1.000000
0  -3.606482 -18.264206 0.243912  0.000000 0.034354 0.999410  0.288328 0.529607 1 64 1.000000
0  -3.462254 -18.264206 0.243912  0.000000 0.034354 0.999410  0.288328 0.529607 1 64 1.000000
gun_tex
0  -3.310086 -14.356798 -0.290951  -1.000000 -0.000000 0.000000  0.288328 0.529607 1 64 1.000000
0  -3.310085 -18.389696 -0.549933  -1.000000 -0.000000 0.000000  0.288328 0.529607 1 64 1.000000
0  -3.310085 -18.389696 -0.290954  -1.000000 -0.000000 0.000000  0.288328 0.529607 1 64 1.000000
gun_tex
0  -3.758650 -14.356798 -0.290951  0.500000 0.000001 -0.866025  0.288328 0.529607 1 64 1.000000
0  -3.534367 -18.389696 -0.161464  0.500000 0.000001 -0.866025  0.288328 0.529607 1 64 1.000000
0  -3.758650 -18.389696 -0.290954  0.500000 0.000001 -0.866025  0.288328 0.529607 1 64 1.000000
gun_tex
0  -3.534367 -18.389696 -0.841712  0.000000 -1.000000 0.000000  0.288328 0.529607 1 64 1.000000
0  -3.169538 -18.389696 -0.631078  0.000000 -1.000000 0.000000  0.288328 0.529607 1 64 1.000000
0  -3.534367 -18.389696 -0.679422  0.000000 -1.000000 0.000000  0.288328 0.529607 1 64 1.000000
gun_tex
0  -3.758650 -14.356798 -0.549930  0.001934 0.999998 0.000000  0.288328 0.529607 1 64 1.000000
0  -3.899197 -14.356526 -0.631077  0.001934 0.999998 0.000000  0.288328 0.529607 1 64 1.000000
0  -3.899197 -14.356526 -0.209808  0.001934 0.999998 0.000000  0.288328 0.529607 1 64 1.000000
gun_tex
0  -3.758650 -18.389696 -0.549933  1.000000 0.000000 -0.000001  0.288328 0.529607 1 64 1.000000
0  -3.758650 -14.356798 -0.290951  1.000000 0.000000 -0.000001  0.288328 0.529607 1 64 1.000000
0  -3.758650 -18.389696 -0.290954  1.000000 0.000000 -0.000001  0.288328 0.529607 1 64 1.000000
gun_tex
0  -3.534367 -18.389696 -0.841712  0.500000 0.000000 -0.866025  0.288328 0.529607 1 64 1.000000
0  -3.169538 -14.356526 -0.631077  0.500000 0.000000 -0.866025  0.288328 0.529607 1 64 1.000000
0  -3.169538 -18.389696 -0.631078  0.500000 0.000000 -0.866025  0.288328 0.529607 1 64 1.000000
gun_tex
0  -3.609034 -18.299597 -0.042283  -0.499995 0.000000 0.866028  0.288328 0.529607 1 64 1.000000
0  -3.534368 -17.986700 0.000826  -0.499995 0.000000 0.866028  0.288328 0.529607 1 64 1.000000
0  -3.609034 -17.986698 -0.042283  -0.499995 0.000000 0.866028  0.288328 0.529607 1 64 1.000000
gun_tex
0  -3.310086 -14.356798 -0.549930  -0.500000 -0.000001 0.866026  0.288328 0.529607 1 64 1.000000
0  -3.534367 -18.389696 -0.679422  -0.500000 -0.000001 0.866026  0.288328 0.529607 1 64 1.000000
0  -3.310085 -18.389696 -0.549933  -0.500000 -0.000001 0.866026  0.288328 0.529607 1 64 1.000000
gun_tex
0  -3.899197 -18.389696 -0.631078  -0.500000 0.000000 -0.866026  0.288328 0.529607 1 64 1.000000
0  -3.534368 -14.356526 -0.841712  -0.500000 0.000000 -0.866026  0.288328 0.529607 1 64 1.000000
0  -3.534367 -18.389696 -0.841712  -0.500000 0.000000 -0.866026  0.288328 0.529607 1 64 1.000000
gun_tex
0  -3.310086 -14.356798 -0.549930  -0.001934 0.999998 0.000000  0.288328 0.529607 1 64 1.000000
0  -3.310086 -14.356798 -0.290951  -0.001934 0.999998 0.000000  0.288328 0.529607 1 64 1.000000
0  -3.169538 -14.356526 -0.209808  -0.001934 0.999998 0.000000  0.288328 0.529607 1 64 1.000000
gun_tex
0  -3.169538 -14.356526 -0.631077  1.000000 0.000000 -0.000001  0.288328 0.529607 1 64 1.000000
0  -3.169538 -18.389696 -0.209809  1.000000 0.000000 -0.000001  0.288328 0.529607 1 64 1.000000
0  -3.169538 -18.389696 -0.631078  1.000000 0.000000 -0.000001  0.288328 0.529607 1 64 1.000000
gun_tex
0  -3.899197 -18.389696 -0.209809  -1.000000 0.000000 0.000000  0.288328 0.529607 1 64 1.000000
0  -3.899197 -14.356526 -0.631077  -1.000000 0.000000 0.000000  0.288328 0.529607 1 64 1.000000
0  -3.899197 -18.389696 -0.631078  -1.000000 0.000000 0.000000  0.288328 0.529607 1 64 1.000000
gun_tex
0  -3.534368 -14.356798 -0.679420  0.499999 -0.000000 0.866026  0.288328 0.529607 1 64 1.000000
0  -3.758650 -18.389696 -0.549933  0.499999 -0.000000 0.866026  0.288328 0.529607 1 64 1.000000
0  -3.534367 -18.389696 -0.679422  0.499999 -0.000000 0.866026  0.288328 0.529607 1 64 1.000000
gun_tex
0  -3.534368 -14.356798 -0.161462  -0.500000 0.000000 -0.866025  0.288328 0.529607 1 64 1.000000
0  -3.310085 -18.389696 -0.290954  -0.500000 0.000000 -0.866025  0.288328 0.529607 1 64 1.000000
0  -3.534367 -18.389696 -0.161464  -0.500000 0.000000 -0.866025  0.288328 0.529607 1 64 1.000000
gun_tex
0  -3.534367 -18.389696 0.000826  0.000000 -1.000000 0.000000  0.288328 0.529607 1 64 1.000000
0  -3.310085 -18.389696 -0.290954  0.000000 -1.000000 0.000000  0.288328 0.529607 1 64 1.000000
0  -3.169538 -18.389696 -0.209809  0.000000 -1.000000 0.000000  0.288328 0.529607 1 64 1.000000
gun_tex
0  -3.672143 -14.786438 -0.107360  0.000000 0.000000 -1.000000  0.288328 0.529607 1 64 1.000000
0  -3.396593 -18.299595 -0.107361  0.000000 0.000000 -1.000000  0.288328 0.529607 1 64 1.000000
0  -3.672142 -18.299595 -0.107361  0.000000 0.000000 -1.000000  0.288328 0.529607 1 64 1.000000
gun_tex
0  -3.672143 -14.786438 0.091669  0.000000 1.000000 0.000000  0.288328 0.529607 1 64 1.000000
0  -3.396593 -14.786438 -0.107360  0.000000 1.000000 0.000000  0.288328 0.529607 1 64 1.000000
0  -3.672143 -14.786438 -0.107360  0.000000 1.000000 0.000000  0.288328 0.529607 1 64 1.000000
gun_tex
0  -3.396592 -18.299597 0.091669  0.000000 0.000000 1.000000  0.288328 0.529607 1 64 1.000000
0  -3.672143 -14.786438 0.091669  0.000000 0.000000 1.000000  0.288328 0.529607 1 64 1.000000
0  -3.672142 -18.299597 0.091669  0.000000 0.000000 1.000000  0.288328 0.529607 1 64 1.000000
gun_tex
0  -3.396593 -17.335001 0.054038  0.000000 -1.000000 0.000000  0.288328 0.529607 1 64 1.000000
0  -3.672143 -17.335001 0.054038  0.000000 -1.000000 0.000000  0.288328 0.529607 1 64 1.000000
0  -3.534367 -17.335001 0.000826  0.000000 -1.000000 0.000000  0.288328 0.529607 1 64 1.000000
gun_tex
0  -3.672143 -16.266773 0.054038  0.000000 0.000000 -1.000000  0.288328 0.529607 1 64 1.000000
0  -3.396593 -15.621136 0.054038  0.000000 0.000000 -1.000000  0.288328 0.529607 1 64 1.000000
0  -3.396593 -16.266773 0.054038  0.000000 0.000000 -1.000000  0.288328 0.529607 1 64 1.000000
gun_tex
0  -3.672143 -16.266773 0.054038  0.000000 1.000000 0.000000  0.288328 0.529607 1 64 1.000000
0  -3.396593 -16.266773 0.054038  0.000000 1.000000 0.000000  0.288328 0.529607 1 64 1.000000
0  -3.534368 -16.266773 0.000826  0.000000 1.000000 0.000000  0.288328 0.529607 1 64 1.000000
gun_tex
0  -3.396593 -18.299597 0.054038  1.000000 0.000000 0.000000  0.288328 0.529607 1 64 1.000000
0  -3.396593 -17.986698 -0.042283  1.000000 0.000000 0.000000  0.288328 0.529607 1 64 1.000000
0  -3.396593 -17.986698 0.054038  1.000000 0.000000 0.000000  0.288328 0.529607 1 64 1.000000
gun_tex
0  -3.396593 -15.621136 -0.042283  1.000000 0.000001 0.000007  0.288328 0.529607 1 64 1.000000
0  -3.396593 -16.081734 -0.042283  1.000000 0.000001 0.000007  0.288328 0.529607 1 64 1.000000
0  -3.396593 -14.786438 -0.107360  1.000000 0.000001 0.000007  0.288328 0.529607 1 64 1.000000
gun_tex
0  -3.396593 -16.266773 -0.042283  1.000000 0.000000 0.000000  0.288328 0.529607 1 64 1.000000
0  -3.396593 -17.335001 0.054038  1.000000 0.000000 0.000000  0.288328 0.529607 1 64 1.000000
0  -3.396593 -17.335001 -0.042283  1.000000 0.000000 0.000000  0.288328 0.529607 1 64 1.000000
gun_tex
0  -3.672143 -17.986698 0.054038  0.000000 1.000000 0.000000  0.288328 0.529607 1 64 1.000000
0  -3.396593 -17.986698 0.054038  0.000000 1.000000 0.000000  0.288328 0.529607 1 64 1.000000
0  -3.534368 -17.986700 0.000826  0.000000 1.000000 0.000000  0.288328 0.529607 1 64 1.000000
gun_tex
0  -3.459701 -17.335001 -0.042283  0.000000 0.000000 1.000000  0.288328 0.529607 1 64 1.000000
0  -3.396593 -17.986698 -0.042283  0.000000 0.000000 1.000000  0.288328 0.529607 1 64 1.000000
0  -3.396593 -17.335001 -0.042283  0.000000 0.000000 1.000000  0.288328 0.529607 1 64 1.000000
gun_tex
0  -3.609034 -17.335001 -0.042283  0.000000 0.000000 1.000000  0.288328 0.529607 1 64 1.000000
0  -3.672143 -17.986698 -0.042283  0.000000 0.000000 1.000000  0.288328 0.529607 1 64 1.000000
0  -3.609034 -17.986698 -0.042283  0.000000 0.000000 1.000000  0.288328 0.529607 1 64 1.000000
gun_tex
0  -3.672143 -17.986698 0.054038  -1.000000 0.000000 0.000000  0.288328 0.529607 1 64 1.000000
0  -3.672143 -17.986698 -0.042283  -1.000000 0.000000 0.000000  0.288328 0.529607 1 64 1.000000
0  -3.672143 -18.299595 -0.042283  -1.000000 0.000000 0.000000  0.288328 0.529607 1 64 1.000000
gun_tex
0  -3.672143 -14.786438 -0.107360  -1.000000 0.000000 0.000000  0.288328 0.529607 1 64 1.000000
0  -3.672143 -15.621136 -0.042283  -1.000000 0.000000 0.000000  0.288328 0.529607 1 64 1.000000
0  -3.672143 -14.786438 0.091669  -1.000000 0.000000 0.000000  0.288328 0.529607 1 64 1.000000
gun_tex
0  -3.672143 -17.335001 0.054038  -1.000000 0.000000 0.000000  0.288328 0.529607 1 64 1.000000
0  -3.672143 -16.266773 0.054038  -1.000000 0.000000 0.000000  0.288328 0.529607 1 64 1.000000
0  -3.672143 -16.266773 -0.042283  -1.000000 0.000000 0.000000  0.288328 0.529607 1 64 1.000000
gun_tex
0  -3.396593 -17.986698 0.054038  0.000000 0.000000 -1.000000  0.288328 0.529607 1 64 1.000000
0  -3.672143 -17.335001 0.054038  0.000000 0.000000 -1.000000  0.288328 0.529607 1 64 1.000000
0  -3.396593 -17.335001 0.054038  0.000000 0.000000 -1.000000  0.288328 0.529607 1 64 1.000000
gun_tex
0  -3.396593 -15.621136 0.054038  0.000000 -1.000000 -0.000065  0.288328 0.529607 1 64 1.000000
0  -3.672143 -15.621136 0.054038  0.000000 -1.000000 -0.000065  0.288328 0.529607 1 64 1.000000
0  -3.534368 -15.621134 0.000826  0.000000 -1.000000 -0.000065  0.288328 0.529607 1 64 1.000000
gun_tex
0  -3.459700 -16.266773 -0.042283  0.000000 0.000000 1.000000  0.288328 0.529607 1 64 1.000000
0  -3.396593 -16.266773 -0.042283  0.000000 0.000000 1.000000  0.288328 0.529607 1 64 1.000000
0  -3.396593 -16.081734 -0.042283  0.000000 0.000000 1.000000  0.288328 0.529607 1 64 1.000000
gun_tex
0  -3.672143 -15.621136 -0.042283  0.000000 -0.000000 1.000000  0.288328 0.529607 1 64 1.000000
0  -3.609035 -16.266773 -0.042283  0.000000 -0.000000 1.000000  0.288328 0.529607 1 64 1.000000
0  -3.609035 -15.621136 -0.042283  0.000000 -0.000000 1.000000  0.288328 0.529607 1 64 1.000000
gun_tex
0  -3.609034 -17.335001 -0.042283  0.000000 -1.000000 -0.000037  0.288328 0.529607 1 64 1.000000
0  -3.459701 -17.335001 -0.042283  0.000000 -1.000000 -0.000037  0.288328 0.529607 1 64 1.000000
0  -3.534367 -17.335001 0.000826  0.000000 -1.000000 -0.000037  0.288328 0.529607 1 64 1.000000
gun_tex
0  -3.534368 -17.986700 0.000826  0.000000 1.000000 0.000000  0.288328 0.529607 1 64 1.000000
0  -3.459701 -17.986698 -0.042283  0.000000 1.000000 0.000000  0.288328 0.529607 1 64 1.000000
0  -3.609034 -17.986698 -0.042283  0.000000 1.000000 0.000000  0.288328 0.529607 1 64 1.000000
gun_tex
0  -3.459701 -17.986698 -0.042283  0.000000 0.000000 1.000000  0.288328 0.529607 1 64 1.000000
0  -3.609034 -17.335001 -0.042283  0.000000 0.000000 1.000000  0.288328 0.529607 1 64 1.000000
0  -3.609034 -17.986698 -0.042283  0.000000 0.000000 1.000000  0.288328 0.529607 1 64 1.000000
gun_tex
0  -3.459700 -15.621136 -0.042283  0.000000 -1.000000 0.000074  0.288328 0.529607 1 64 1.000000
0  -3.534368 -15.621134 0.000826  0.000000 -1.000000 0.000074  0.288328 0.529607 1 64 1.000000
0  -3.609035 -15.621136 -0.042283  0.000000 -1.000000 0.000074  0.288328 0.529607 1 64 1.000000
gun_tex
0  -3.459700 -16.266773 -0.042283  0.000000 1.000000 0.000000  0.288328 0.529607 1 64 1.000000
0  -3.609035 -16.266773 -0.042283  0.000000 1.000000 0.000000  0.288328 0.529607 1 64 1.000000
0  -3.534368 -16.266773 0.000826  0.000000 1.000000 0.000000  0.288328 0.529607 1 64 1.000000
gun_tex
0  -3.609035 -15.621136 -0.042283  0.000000 0.000000 1.000000  0.288328 0.529607 1 64 1.000000
0  -3.459700 -16.266773 -0.042283  0.000000 0.000000 1.000000  0.288328 0.529607 1 64 1.000000
0  -3.459700 -15.621136 -0.042283  0.000000 0.000000 1.000000  0.288328 0.529607 1 64 1.000000
gun_tex
0  -3.486210 -18.170963 0.442858  0.000003 0.000001 1.000000  0.425475 0.510436 1 64 1.000000
0  -3.582525 -17.946335 0.442858  0.000003 0.000001 1.000000  0.425475 0.510436 1 64 1.000000
0  -3.582525 -18.170963 0.442858  0.000003 0.000001 1.000000  0.425475 0.510436 1 64 1.000000
gun_tex
0  -3.486210 -17.946335 0.442858  -0.000002 0.303311 0.952892  0.425475 0.510436 1 64 1.000000
0  -3.582525 -17.525789 0.308996  -0.000002 0.303311 0.952892  0.425475 0.510436 1 64 1.000000
0  -3.582525 -17.946335 0.442858  -0.000002 0.303311 0.952892  0.425475 0.510436 1 64 1.000000
gun_tex
0  -3.582525 -17.531303 0.054037  0.000000 -0.222173 -0.975007  0.425475 0.510436 1 64 1.000000
0  -3.486210 -17.946335 0.148610  0.000000 -0.222173 -0.975007  0.425475 0.510436 1 64 1.000000
0  -3.582525 -17.946335 0.148610  0.000000 -0.222173 -0.975007  0.425475 0.510436 1 64 1.000000
gun_tex
0  -3.486210 -18.226118 0.173628  0.000000 -1.000000 0.000000  0.425475 0.510436 1 64 1.000000
0  -3.582525 -18.226118 0.408387  0.000000 -1.000000 0.000000  0.425475 0.510436 1 64 1.000000
0  -3.582525 -18.226118 0.173628  0.000000 -1.000000 0.000000  0.425475 0.510436 1 64 1.000000
gun_tex
0  -3.486210 -18.170963 0.442858  0.000002 -0.529977 0.848012  0.425475 0.510436 1 64 1.000000
0  -3.582525 -18.226118 0.408387  0.000002 -0.529977 0.848012  0.425475 0.510436 1 64 1.000000
0  -3.486210 -18.226118 0.408387  0.000002 -0.529977 0.848012  0.425475 0.510436 1 64 1.000000
gun_tex
0  -3.582525 -18.170963 0.148610  0.000000 0.000000 -1.000000  0.425475 0.510436 1 64 1.000000
0  -3.486210 -17.946335 0.148610  0.000000 0.000000 -1.000000  0.425475 0.510436 1 64 1.000000
0  -3.486210 -18.170963 0.148610  0.000000 0.000000 -1.000000  0.425475 0.510436 1 64 1.000000
gun_tex
0  -3.582525 -17.525789 0.308996  0.000000 1.000000 0.000000  0.425475 0.510436 1 64 1.000000
0  -3.486210 -17.525789 0.054037  0.000000 1.000000 0.000000  0.425475 0.510436 1 64 1.000000
0  -3.582525 -17.525789 0.054037  0.000000 1.000000 0.000000  0.425475 0.510436 1 64 1.000000
gun_tex
0  -3.582525 -18.226118 0.408387  -1.000000 0.000000 0.000000  0.425475 0.510436 1 64 1.000000
0  -3.582525 -18.170963 0.442858  -1.000000 0.000000 0.000000  0.425475 0.510436 1 64 1.000000
0  -3.582525 -18.170963 0.148610  -1.000000 0.000000 0.000000  0.425475 0.510436 1 64 1.000000
gun_tex
0  -3.486210 -18.170963 0.148610  0.000000 -0.413095 -0.910688  0.425475 0.510436 1 64 1.000000
0  -3.582525 -18.226118 0.173628  0.000000 -0.413095 -0.910688  0.425475 0.510436 1 64 1.000000
0  -3.582525 -18.170963 0.148610  0.000000 -0.413095 -0.910688  0.425475 0.510436 1 64 1.000000
gun_tex
0  -3.486210 -18.226118 0.408387  1.000000 0.000000 -0.000001  0.425475 0.510436 1 64 1.000000
0  -3.486210 -18.226118 0.173628  1.000000 0.000000 -0.000001  0.425475 0.510436 1 64 1.000000
0  -3.486210 -18.170963 0.148610  1.000000 0.000000 -0.000001  0.425475 0.510436 1 64 1.000000
gun_tex
0  -3.744701 -18.322044 -0.784049  -1.000000 0.000000 0.000001  0.288328 0.529607 1 64 1.000000
0  -3.744701 -15.031214 -0.784049  -1.000000 0.000000 0.000001  0.288328 0.529607 1 64 1.000000
0  -3.744701 -15.031216 -1.100806  -1.000000 0.000000 0.000001  0.288328 0.529607 1 64 1.000000
gun_tex
0  -3.654274 -18.322044 -1.195508  -0.723242 0.000000 -0.690595  0.288328 0.529607 1 64 1.000000
0  -3.744701 -18.322044 -1.100806  -0.723242 0.000000 -0.690595  0.288328 0.529607 1 64 1.000000
0  -3.744701 -15.031216 -1.100806  -0.723242 0.000000 -0.690595  0.288328 0.529607 1 64 1.000000
gun_tex
0  -3.665373 -16.404737 -1.078488  1.000000 0.000000 0.000000  0.288328 0.529607 1 64 1.000000
0  -3.665373 -15.031216 -1.078488  1.000000 0.000000 0.000000  0.288328 0.529607 1 64 1.000000
0  -3.665373 -15.031216 -0.784171  1.000000 0.000000 0.000000  0.288328 0.529607 1 64 1.000000
gun_tex
0  -3.665373 -15.031216 -0.784171  1.000000 0.000001 0.000000  0.288328 0.529607 1 64 1.000000
0  -3.665373 -16.404737 -0.784171  1.000000 0.000001 0.000000  0.288328 0.529607 1 64 1.000000
0  -3.665373 -16.404737 -1.078488  1.000000 0.000001 0.000000  0.288328 0.529607 1 64 1.000000
gun_tex
0  -3.665373 -16.404737 -0.784171  1.000000 0.000000 0.000000  0.288328 0.529607 1 64 1.000000
0  -3.665373 -16.485390 -0.882276  1.000000 0.000000 0.000000  0.288328 0.529607 1 64 1.000000
0  -3.665373 -16.404737 -1.078488  1.000000 0.000000 0.000000  0.288328 0.529607 1 64 1.000000
gun_tex
0  -3.654274 -18.322044 -1.195508  0.000000 0.000000 -1.000000  0.288328 0.529607 1 64 1.000000
0  -3.654274 -15.031216 -1.195507  0.000000 0.000000 -1.000000  0.288328 0.529607 1 64 1.000000
0  -3.414461 -15.031216 -1.195507  0.000000 0.000000 -1.000000  0.288328 0.529607 1 64 1.000000
gun_tex
0  -3.414461 -15.031216 -1.195507  0.723240 0.000000 -0.690597  0.288328 0.529607 1 64 1.000000
0  -3.324034 -15.031216 -1.100806  0.723240 0.000000 -0.690597  0.288328 0.529607 1 64 1.000000
0  -3.324034 -18.322044 -1.100806  0.723240 0.000000 -0.690597  0.288328 0.529607 1 64 1.000000
gun_tex
0  -3.665373 -16.404737 -1.078488  0.000001 0.000000 1.000000  0.288328 0.529607 1 64 1.000000
0  -3.324034 -16.404737 -1.078488  0.000001 0.000000 1.000000  0.288328 0.529607 1 64 1.000000
0  -3.324034 -15.031216 -1.078488  0.000001 0.000000 1.000000  0.288328 0.529607 1 64 1.000000
gun_tex
0  -3.665373 -16.404737 -0.784171  0.000000 0.000000 -1.000000  0.288328 0.529607 1 64 1.000000
0  -3.665373 -15.031216 -0.784171  0.000000 0.000000 -1.000000  0.288328 0.529607 1 64 1.000000
0  -3.324034 -15.031216 -0.784171  0.000000 0.000000 -1.000000  0.288328 0.529607 1 64 1.000000
gun_tex
0  -3.665373 -16.485390 -0.980382  -0.000003 0.772475 0.635045  0.288328 0.529607 1 64 1.000000
0  -3.324034 -16.485388 -0.980382  -0.000003 0.772475 0.635045  0.288328 0.529607 1 64 1.000000
0  -3.324034 -16.404737 -1.078488  -0.000003 0.772475 0.635045  0.288328 0.529607 1 64 1.000000
gun_tex
0  -3.665373 -16.404737 -0.784171  0.000000 0.772474 -0.635046  0.288328 0.529607 1 64 1.000000
0  -3.324034 -16.404737 -0.784171  0.000000 0.772474 -0.635046  0.288328 0.529607 1 64 1.000000
0  -3.324034 -16.485388 -0.882276  0.000000 0.772474 -0.635046  0.288328 0.529607 1 64 1.000000
gun_tex
0  -3.665373 -16.485390 -0.882276  -0.000006 1.000000 0.000000  0.288328 0.529607 1 64 1.000000
0  -3.324034 -16.485388 -0.882276  -0.000006 1.000000 0.000000  0.288328 0.529607 1 64 1.000000
0  -3.324034 -16.485388 -0.980382  -0.000006 1.000000 0.000000  0.288328 0.529607 1 64 1.000000
gun_tex
0  -3.639534 -15.031216 -0.712014  -0.565102 -0.000000 0.825021  0.288328 0.529607 1 64 1.000000
0  -3.744701 -15.031214 -0.784049  -0.565102 -0.000000 0.825021  0.288328 0.529607 1 64 1.000000
0  -3.744701 -18.322044 -0.784049  -0.565102 -0.000000 0.825021  0.288328 0.529607 1 64 1.000000
gun_tex
0  -3.324034 -16.404737 -0.784171  1.000000 0.000000 0.000000  0.288328 0.529607 1 64 1.000000
0  -3.324034 -15.031216 -0.784171  1.000000 0.000000 0.000000  0.288328 0.529607 1 64 1.000000
0  -3.324034 -15.031216 -0.784049  1.000000 0.000000 0.000000  0.288328 0.529607 1 64 1.000000
gun_tex
0  -3.324034 -18.322044 -1.100806  1.000000 0.000000 0.000000  0.288328 0.529607 1 64 1.000000
0  -3.324034 -15.031216 -1.100806  1.000000 0.000000 0.000000  0.288328 0.529607 1 64 1.000000
0  -3.324034 -16.404737 -1.078488  1.000000 0.000000 0.000000  0.288328 0.529607 1 64 1.000000
gun_tex
0  -3.324034 -15.031216 -1.100806  1.000000 -0.000000 0.000000  0.288328 0.529607 1 64 1.000000
0  -3.324034 -15.031216 -1.078488  1.000000 -0.000000 0.000000  0.288328 0.529607 1 64 1.000000
0  -3.324034 -16.404737 -1.078488  1.000000 -0.000000 0.000000  0.288328 0.529607 1 64 1.000000
gun_tex
0  -3.324034 -16.404737 -0.784171  1.000000 0.000000 0.000000  0.288328 0.529607 1 64 1.000000
0  -3.324034 -15.031216 -0.784049  1.000000 0.000000 0.000000  0.288328 0.529607 1 64 1.000000
0  -3.324034 -18.322044 -0.784049  1.000000 0.000000 0.000000  0.288328 0.529607 1 64 1.000000
gun_tex
0  -3.324034 -16.485388 -0.882276  1.000000 0.000000 0.000000  0.288328 0.529607 1 64 1.000000
0  -3.324034 -16.404737 -0.784171  1.000000 0.000000 0.000000  0.288328 0.529607 1 64 1.000000
0  -3.324034 -18.322044 -0.784049  1.000000 0.000000 0.000000  0.288328 0.529607 1 64 1.000000
gun_tex
0  -3.324034 -18.322044 -0.784049  1.000000 -0.000000 0.000000  0.288328 0.529607 1 64 1.000000
0  -3.324034 -18.322044 -1.100806  1.000000 -0.000000 0.000000  0.288328 0.529607 1 64 1.000000
0  -3.324034 -16.485388 -0.980382  1.000000 -0.000000 0.000000  0.288328 0.529607 1 64 1.000000
gun_tex
0  -3.324034 -18.322044 -1.100806  1.000000 -0.000000 0.000000  0.288328 0.529607 1 64 1.000000
0  -3.324034 -16.404737 -1.078488  1.000000 -0.000000 0.000000  0.288328 0.529607 1 64 1.000000
0  -3.324034 -16.485388 -0.980382  1.000000 -0.000000 0.000000  0.288328 0.529607 1 64 1.000000
gun_tex
0  -3.665373 -15.031216 -1.078488  0.000000 1.000000 -0.000006  0.288328 0.529607 1 64 1.000000
0  -3.324034 -15.031216 -1.078488  0.000000 1.000000 -0.000006  0.288328 0.529607 1 64 1.000000
0  -3.414461 -15.031216 -1.195507  0.000000 1.000000 -0.000006  0.288328 0.529607 1 64 1.000000
gun_tex
0  -3.324034 -15.031216 -1.078488  0.000000 1.000000 0.000000  0.288328 0.529607 1 64 1.000000
0  -3.324034 -15.031216 -1.100806  0.000000 1.000000 0.000000  0.288328 0.529607 1 64 1.000000
0  -3.414461 -15.031216 -1.195507  0.000000 1.000000 0.000000  0.288328 0.529607 1 64 1.000000
gun_tex
0  -3.414461 -15.031216 -1.195507  0.000000 1.000000 -0.000003  0.288328 0.529607 1 64 1.000000
0  -3.654274 -15.031216 -1.195507  0.000000 1.000000 -0.000003  0.288328 0.529607 1 64 1.000000
0  -3.665373 -15.031216 -1.078488  0.000000 1.000000 -0.000003  0.288328 0.529607 1 64 1.000000
gun_tex
0  -3.654274 -15.031216 -1.195507  0.000000 1.000000 0.000000  0.288328 0.529607 1 64 1.000000
0  -3.744701 -15.031216 -1.100806  0.000000 1.000000 0.000000  0.288328 0.529607 1 64 1.000000
0  -3.665373 -15.031216 -1.078488  0.000000 1.000000 0.000000  0.288328 0.529607 1 64 1.000000
gun_tex
0  -3.744701 -15.031216 -1.100806  0.000002 1.000000 -0.000009  0.288328 0.529607 1 64 1.000000
0  -3.744701 -15.031214 -0.784049  0.000002 1.000000 -0.000009  0.288328 0.529607 1 64 1.000000
0  -3.665373 -15.031216 -1.078488  0.000002 1.000000 -0.000009  0.288328 0.529607 1 64 1.000000
gun_tex
0  -3.744701 -15.031214 -0.784049  0.000024 1.000000 0.000000  0.288328 0.529607 1 64 1.000000
0  -3.639534 -15.031216 -0.712014  0.000024 1.000000 0.000000  0.288328 0.529607 1 64 1.000000
0  -3.665373 -15.031216 -0.784171  0.000024 1.000000 0.000000  0.288328 0.529607 1 64 1.000000
gun_tex
0  -3.639534 -15.031216 -0.712014  0.000000 1.000000 0.000000  0.288328 0.529607 1 64 1.000000
0  -3.429201 -15.031216 -0.712014  0.000000 1.000000 0.000000  0.288328 0.529607 1 64 1.000000
0  -3.665373 -15.031216 -0.784171  0.000000 1.000000 0.000000  0.288328 0.529607 1 64 1.000000
gun_tex
0  -3.429201 -15.031216 -0.712014  0.000000 1.000000 0.000000  0.288328 0.529607 1 64 1.000000
0  -3.324034 -15.031216 -0.784049  0.000000 1.000000 0.000000  0.288328 0.529607 1 64 1.000000
0  -3.324034 -15.031216 -0.784171  0.000000 1.000000 0.000000  0.288328 0.529607 1 64 1.000000
gun_tex
0  -3.429201 -15.031216 -0.712014  0.000000 1.000000 0.000039  0.288328 0.529607 1 64 1.000000
0  -3.324034 -15.031216 -0.784171  0.000000 1.000000 0.000039  0.288328 0.529607 1 64 1.000000
0  -3.665373 -15.031216 -0.784171  0.000000 1.000000 0.000039  0.288328 0.529607 1 64 1.000000
gun_tex
0  -3.324034 -15.031216 -0.784049  0.565101 -0.000000 0.825022  0.288328 0.529607 1 64 1.000000
0  -3.429201 -15.031216 -0.712014  0.565101 -0.000000 0.825022  0.288328 0.529607 1 64 1.000000
0  -3.429200 -18.322044 -0.712015  0.565101 -0.000000 0.825022  0.288328 0.529607 1 64 1.000000
gun_tex
0  -3.654274 -18.322044 -1.195508  0.000000 -1.000000 0.000010  0.288328 0.529607 1 64 1.000000
0  -3.414461 -18.322044 -1.195508  0.000000 -1.000000 0.000010  0.288328 0.529607 1 64 1.000000
0  -3.324034 -18.322044 -1.100806  0.000000 -1.000000 0.000010  0.288328 0.529607 1 64 1.000000
gun_tex
0  -3.324034 -18.322044 -1.100806  0.000000 -1.000000 0.000000  0.288328 0.529607 1 64 1.000000
0  -3.324034 -18.322044 -0.784049  0.000000 -1.000000 0.000000  0.288328 0.529607 1 64 1.000000
0  -3.429200 -18.322044 -0.712015  0.000000 -1.000000 0.000000  0.288328 0.529607 1 64 1.000000
gun_tex
0  -3.429200 -18.322044 -0.712015  0.000000 -1.000000 0.000003  0.288328 0.529607 1 64 1.000000
0  -3.639534 -18.322044 -0.712015  0.000000 -1.000000 0.000003  0.288328 0.529607 1 64 1.000000
0  -3.744701 -18.322044 -1.100806  0.000000 -1.000000 0.000003  0.288328 0.529607 1 64 1.000000
gun_tex
0  -3.639534 -18.322044 -0.712015  0.000000 -1.000000 0.000000  0.288328 0.529607 1 64 1.000000
0  -3.744701 -18.322044 -0.784049  0.000000 -1.000000 0.000000  0.288328 0.529607 1 64 1.000000
0  -3.744701 -18.322044 -1.100806  0.000000 -1.000000 0.000000  0.288328 0.529607 1 64 1.000000
gun_tex
0  -3.744701 -18.322044 -1.100806  0.000000 -1.000000 -0.000024  0.288328 0.529607 1 64 1.000000
0  -3.654274 -18.322044 -1.195508  0.000000 -1.000000 -0.000024  0.288328 0.529607 1 64 1.000000
0  -3.324034 -18.322044 -1.100806  0.000000 -1.000000 -0.000024  0.288328 0.529607 1 64 1.000000
gun_tex
0  -3.639534 -15.031216 -0.712014  0.000000 -0.000000 1.000000  0.288328 0.529607 1 64 1.000000
0  -3.639534 -18.322044 -0.712015  0.000000 -0.000000 1.000000  0.288328 0.529607 1 64 1.000000
0  -3.429200 -18.322044 -0.712015  0.000000 -0.000000 1.000000  0.288328 0.529607 1 64 1.000000
gun_tex
0  -3.606482 -14.786438 0.124367  0.000000 1.000000 0.000000  0.288328 0.529607 1 64 1.000000
0  -3.462254 -14.786438 0.124367  0.000000 1.000000 0.000000  0.288328 0.529607 1 64 1.000000
0  -3.462254 -14.786438 0.091670  0.000000 1.000000 0.000000  0.288328 0.529607 1 64 1.000000
gun_tex
0  -3.462254 -14.786438 0.124367  1.000000 0.000000 0.000000  0.288328 0.529607 1 64 1.000000
0  -3.462254 -18.264206 0.243912  1.000000 0.000000 0.000000  0.288328 0.529607 1 64 1.000000
0  -3.462254 -18.264206 0.091670  1.000000 0.000000 0.000000  0.288328 0.529607 1 64 1.000000
gun_tex
0  -3.462254 -18.264206 0.243912  0.000000 -1.000000 0.000000  0.288328 0.529607 1 64 1.000000
0  -3.606482 -18.264206 0.243912  0.000000 -1.000000 0.000000  0.288328 0.529607 1 64 1.000000
0  -3.606482 -18.264206 0.091670  0.000000 -1.000000 0.000000  0.288328 0.529607 1 64 1.000000
gun_tex
0  -3.606482 -18.264206 0.091670  -1.000000 -0.000000 0.000000  0.288328 0.529607 1 64 1.000000
0  -3.606482 -18.264206 0.243912  -1.000000 -0.000000 0.000000  0.288328 0.529607 1 64 1.000000
0  -3.606482 -14.786438 0.124367  -1.000000 -0.000000 0.000000  0.288328 0.529607 1 64 1.000000
gun_tex
0  -3.462254 -14.786438 0.091670  0.000000 0.000000 -1.000000  0.288328 0.529607 1 64 1.000000
0  -3.462254 -18.264206 0.091670  0.000000 0.000000 -1.000000  0.288328 0.529607 1 64 1.000000
0  -3.606482 -18.264206 0.091670  0.000000 0.000000 -1.000000  0.288328 0.529607 1 64 1.000000
gun_tex
0  -3.462254 -14.786438 0.124367  0.000002 0.034354 0.999410  0.288328 0.529607 1 64 1.000000
0  -3.606482 -14.786438 0.124367  0.000002 0.034354 0.999410  0.288328 0.529607 1 64 1.000000
0  -3.606482 -18.264206 0.243912  0.000002 0.034354 0.999410  0.288328 0.529607 1 64 1.000000
gun_tex
0  -3.310086 -14.356798 -0.290951  -1.000000 -0.000000 0.000000  0.288328 0.529607 1 64 1.000000
0  -3.310086 -14.356798 -0.549930  -1.000000 -0.000000 0.000000  0.288328 0.529607 1 64 1.000000
0  -3.310085 -18.389696 -0.549933  -1.000000 -0.000000 0.000000  0.288328 0.529607 1 64 1.000000
gun_tex
0  -3.169538 -14.356526 -0.209808  0.500000 0.000000 0.866025  0.288328 0.529607 1 64 1.000000
0  -3.534368 -14.356526 0.000826  0.500000 0.000000 0.866025  0.288328 0.529607 1 64 1.000000
0  -3.459700 -15.621136 -0.042283  0.500000 0.000000 0.866025  0.288328 0.529607 1 64 1.000000
gun_tex
0  -3.534368 -14.356526 0.000826  0.500000 0.000000 0.866025  0.288328 0.529607 1 64 1.000000
0  -3.534368 -15.621134 0.000826  0.500000 0.000000 0.866025  0.288328 0.529607 1 64 1.000000
0  -3.459700 -15.621136 -0.042283  0.500000 0.000000 0.866025  0.288328 0.529607 1 64 1.000000
gun_tex
0  -3.169538 -18.389696 -0.209809  0.500000 0.000000 0.866026  0.288328 0.529607 1 64 1.000000
0  -3.169538 -14.356526 -0.209808  0.500000 0.000000 0.866026  0.288328 0.529607 1 64 1.000000
0  -3.459701 -17.986698 -0.042283  0.500000 0.000000 0.866026  0.288328 0.529607 1 64 1.000000
gun_tex
0  -3.169538 -14.356526 -0.209808  0.500000 0.000000 0.866026  0.288328 0.529607 1 64 1.000000
0  -3.459700 -15.621136 -0.042283  0.500000 0.000000 0.866026  0.288328 0.529607 1 64 1.000000
0  -3.459700 -16.266773 -0.042283  0.500000 0.000000 0.866026  0.288328 0.529607 1 64 1.000000
gun_tex
0  -3.459700 -16.266773 -0.042283  0.499999 0.000000 0.866026  0.288328 0.529607 1 64 1.000000
0  -3.534368 -16.266773 0.000826  0.499999 0.000000 0.866026  0.288328 0.529607 1 64 1.000000
0  -3.534367 -17.335001 0.000826  0.499999 0.000000 0.866026  0.288328 0.529607 1 64 1.000000
gun_tex
0  -3.169538 -14.356526 -0.209808  0.500001 -0.000000 0.866025  0.288328 0.529607 1 64 1.000000
0  -3.459700 -16.266773 -0.042283  0.500001 -0.000000 0.866025  0.288328 0.529607 1 64 1.000000
0  -3.459701 -17.335001 -0.042283  0.500001 -0.000000 0.866025  0.288328 0.529607 1 64 1.000000
gun_tex
0  -3.169538 -18.389696 -0.209809  0.500004 0.000000 0.866023  0.288328 0.529607 1 64 1.000000
0  -3.459701 -17.986698 -0.042283  0.500004 0.000000 0.866023  0.288328 0.529607 1 64 1.000000
0  -3.459701 -18.299597 -0.042283  0.500004 0.000000 0.866023  0.288328 0.529607 1 64 1.000000
gun_tex
0  -3.459700 -16.266773 -0.042283  0.500001 -0.000000 0.866025  0.288328 0.529607 1 64 1.000000
0  -3.534367 -17.335001 0.000826  0.500001 -0.000000 0.866025  0.288328 0.529607 1 64 1.000000
0  -3.459701 -17.335001 -0.042283  0.500001 -0.000000 0.866025  0.288328 0.529607 1 64 1.000000
gun_tex
0  -3.459701 -17.986698 -0.042283  0.499995 0.000000 0.866028  0.288328 0.529607 1 64 1.000000
0  -3.534368 -17.986700 0.000826  0.499995 0.000000 0.866028  0.288328 0.529607 1 64 1.000000
0  -3.459701 -18.299597 -0.042283  0.499995 0.000000 0.866028  0.288328 0.529607 1 64 1.000000
gun_tex
0  -3.534368 -17.986700 0.000826  0.500002 0.000000 0.866024  0.288328 0.529607 1 64 1.000000
0  -3.534367 -18.299595 0.000826  0.500002 0.000000 0.866024  0.288328 0.529607 1 64 1.000000
0  -3.459701 -18.299597 -0.042283  0.500002 0.000000 0.866024  0.288328 0.529607 1 64 1.000000
gun_tex
0  -3.459701 -17.335001 -0.042283  0.500001 0.000000 0.866025  0.288328 0.529607 1 64 1.000000
0  -3.459701 -17.986698 -0.042283  0.500001 0.000000 0.866025  0.288328 0.529607 1 64 1.000000
0  -3.169538 -14.356526 -0.209808  0.500001 0.000000 0.866025  0.288328 0.529607 1 64 1.000000
gun_tex
0  -3.758650 -14.356798 -0.290951  0.499999 0.000001 -0.866026  0.288328 0.529607 1 64 1.000000
0  -3.534368 -14.356798 -0.161462  0.499999 0.000001 -0.866026  0.288328 0.529607 1 64 1.000000
0  -3.534367 -18.389696 -0.161464  0.499999 0.000001 -0.866026  0.288328 0.529607 1 64 1.000000
gun_tex
0  -3.758650 -18.389696 -0.549933  0.000000 -1.000000 0.000026  0.288328 0.529607 1 64 1.000000
0  -3.899197 -18.389696 -0.631078  0.000000 -1.000000 0.000026  0.288328 0.529607 1 64 1.000000
0  -3.534367 -18.389696 -0.679422  0.000000 -1.000000 0.000026  0.288328 0.529607 1 64 1.000000
gun_tex
0  -3.899197 -18.389696 -0.631078  0.000000 -1.000000 0.000000  0.288328 0.529607 1 64 1.000000
0  -3.534367 -18.389696 -0.841712  0.000000 -1.000000 0.000000  0.288328 0.529607 1 64 1.000000
0  -3.534367 -18.389696 -0.679422  0.000000 -1.000000 0.000000  0.288328 0.529607 1 64 1.000000
gun_tex
0  -3.899197 -14.356526 -0.209808  0.000967 0.999998 -0.001675  0.288328 0.529607 1 64 1.000000
0  -3.534368 -14.356526 0.000826  0.000967 0.999998 -0.001675  0.288328 0.529607 1 64 1.000000
0  -3.758650 -14.356798 -0.290951  0.000967 0.999998 -0.001675  0.288328 0.529607 1 64 1.000000
gun_tex
0  -3.534368 -14.356526 0.000826  0.000967 0.999998 -0.001677  0.288328 0.529607 1 64 1.000000
0  -3.534368 -14.356798 -0.161462  0.000967 0.999998 -0.001677  0.288328 0.529607 1 64 1.000000
0  -3.758650 -14.356798 -0.290951  0.000967 0.999998 -0.001677  0.288328 0.529607 1 64 1.000000
gun_tex
0  -3.534368 -14.356798 -0.679420  0.000967 0.999998 0.001675  0.288328 0.529607 1 64 1.000000
0  -3.534368 -14.356526 -0.841712  0.000967 0.999998 0.001675  0.288328 0.529607 1 64 1.000000
0  -3.899197 -14.356526 -0.631077  0.000967 0.999998 0.001675  0.288328 0.529607 1 64 1.000000
gun_tex
0  -3.899197 -14.356526 -0.209808  0.001934 0.999998 0.000000  0.288328 0.529607 1 64 1.000000
0  -3.758650 -14.356798 -0.290951  0.001934 0.999998 0.000000  0.288328 0.529607 1 64 1.000000
0  -3.758650 -14.356798 -0.549930  0.001934 0.999998 0.000000  0.288328 0.529607 1 64 1.000000
gun_tex
0  -3.758650 -14.356798 -0.549930  0.000967 0.999998 0.001651  0.288328 0.529607 1 64 1.000000
0  -3.534368 -14.356798 -0.679420  0.000967 0.999998 0.001651  0.288328 0.529607 1 64 1.000000
0  -3.899197 -14.356526 -0.631077  0.000967 0.999998 0.001651  0.288328 0.529607 1 64 1.000000
gun_tex
0  -3.758650 -18.389696 -0.549933  1.000000 0.000000 0.000000  0.288328 0.529607 1 64 1.000000
0  -3.758650 -14.356798 -0.549930  1.000000 0.000000 0.000000  0.288328 0.529607 1 64 1.000000
0  -3.758650 -14.356798 -0.290951  1.000000 0.000000 0.000000  0.288328 0.529607 1 64 1.000000
gun_tex
0  -3.534367 -18.389696 -0.841712  0.500000 0.000000 -0.866025  0.288328 0.529607 1 64 1.000000
0  -3.534368 -14.356526 -0.841712  0.500000 0.000000 -0.866025  0.288328 0.529607 1 64 1.000000
0  -3.169538 -14.356526 -0.631077  0.500000 0.000000 -0.866025  0.288328 0.529607 1 64 1.000000
gun_tex
0  -3.169538 -18.389696 -0.209809  0.500004 0.000000 0.866023  0.288262 0.529480 1 64 1.000000
0  -3.534367 -18.299595 0.000826  0.500004 0.000000 0.866023  0.288262 0.529480 1 64 1.000000
0  -3.534367 -18.389696 0.000826  0.500004 0.000000 0.866023  0.288262 0.529480 1 64 1.000000
gun_tex
0  -3.534368 -15.621134 0.000826  -0.500000 0.000000 0.866025  0.288328 0.529607 1 64 1.000000
0  -3.534368 -14.356526 0.000826  -0.500000 0.000000 0.866025  0.288328 0.529607 1 64 1.000000
0  -3.609035 -15.621136 -0.042283  -0.500000 0.000000 0.866025  0.288328 0.529607 1 64 1.000000
gun_tex
0  -3.534368 -14.356526 0.000826  -0.500000 0.000000 0.866025  0.288328 0.529607 1 64 1.000000
0  -3.899197 -14.356526 -0.209808  -0.500000 0.000000 0.866025  0.288328 0.529607 1 64 1.000000
0  -3.609035 -15.621136 -0.042283  -0.500000 0.000000 0.866025  0.288328 0.529607 1 64 1.000000
gun_tex
0  -3.899197 -14.356526 -0.209808  -0.500001 -0.000000 0.866025  0.288328 0.529607 1 64 1.000000
0  -3.899197 -18.389696 -0.209809  -0.500001 -0.000000 0.866025  0.288328 0.529607 1 64 1.000000
0  -3.609034 -17.986698 -0.042283  -0.500001 -0.000000 0.866025  0.288328 0.529607 1 64 1.000000
gun_tex
0  -3.534367 -18.389696 0.000826  -0.499997 -0.000003 0.866027  0.288262 0.529480 1 64 1.000000
0  -3.609034 -18.299597 -0.042283  -0.499997 -0.000003 0.866027  0.288262 0.529480 1 64 1.000000
0  -3.899197 -18.389696 -0.209809  -0.499997 -0.000003 0.866027  0.288262 0.529480 1 64 1.000000
gun_tex
0  -3.609035 -16.266773 -0.042283  -0.500001 -0.000001 0.866025  0.288328 0.529607 1 64 1.000000
0  -3.609035 -15.621136 -0.042283  -0.500001 -0.000001 0.866025  0.288328 0.529607 1 64 1.000000
0  -3.899197 -14.356526 -0.209808  -0.500001 -0.000001 0.866025  0.288328 0.529607 1 64 1.000000
gun_tex
0  -3.534367 -17.335001 0.000826  -0.500000 -0.000000 0.866026  0.288328 0.529607 1 64 1.000000
0  -3.534368 -16.266773 0.000826  -0.500000 -0.000000 0.866026  0.288328 0.529607 1 64 1.000000
0  -3.609034 -17.335001 -0.042283  -0.500000 -0.000000 0.866026  0.288328 0.529607 1 64 1.000000
gun_tex
0  -3.534368 -16.266773 0.000826  -0.500003 0.000000 0.866023  0.288328 0.529607 1 64 1.000000
0  -3.609035 -16.266773 -0.042283  -0.500003 0.000000 0.866023  0.288328 0.529607 1 64 1.000000
0  -3.609034 -17.335001 -0.042283  -0.500003 0.000000 0.866023  0.288328 0.529607 1 64 1.000000
gun_tex
0  -3.609035 -16.266773 -0.042283  -0.499997 0.000000 0.866027  0.288328 0.529607 1 64 1.000000
0  -3.899197 -14.356526 -0.209808  -0.499997 0.000000 0.866027  0.288328 0.529607 1 64 1.000000
0  -3.609034 -17.335001 -0.042283  -0.499997 0.000000 0.866027  0.288328 0.529607 1 64 1.000000
gun_tex
0  -3.899197 -18.389696 -0.209809  -0.500005 0.000000 0.866023  0.288328 0.529607 1 64 1.000000
0  -3.609034 -18.299597 -0.042283  -0.500005 0.000000 0.866023  0.288328 0.529607 1 64 1.000000
0  -3.609034 -17.986698 -0.042283  -0.500005 0.000000 0.866023  0.288328 0.529607 1 64 1.000000
gun_tex
0  -3.609034 -18.299597 -0.042283  -0.500003 -0.000001 0.866024  0.288328 0.529607 1 64 1.000000
0  -3.534367 -18.299595 0.000826  -0.500003 -0.000001 0.866024  0.288328 0.529607 1 64 1.000000
0  -3.534368 -17.986700 0.000826  -0.500003 -0.000001 0.866024  0.288328 0.529607 1 64 1.000000
gun_tex
0  -3.609034 -17.986698 -0.042283  -0.500001 -0.000001 0.866025  0.288328 0.529607 1 64 1.000000
0  -3.609034 -17.335001 -0.042283  -0.500001 -0.000001 0.866025  0.288328 0.529607 1 64 1.000000
0  -3.899197 -14.356526 -0.209808  -0.500001 -0.000001 0.866025  0.288328 0.529607 1 64 1.000000
gun_tex
0  -3.310086 -14.356798 -0.549930  -0.500000 -0.000001 0.866025  0.288328 0.529607 1 64 1.000000
0  -3.534368 -14.356798 -0.679420  -0.500000 -0.000001 0.866025  0.288328 0.529607 1 64 1.000000
0  -3.534367 -18.389696 -0.679422  -0.500000 -0.000001 0.866025  0.288328 0.529607 1 64 1.000000
gun_tex
0  -3.899197 -18.389696 -0.631078  -0.500000 0.000000 -0.866025  0.288328 0.529607 1 64 1.000000
0  -3.899197 -14.356526 -0.631077  -0.500000 0.000000 -0.866025  0.288328 0.529607 1 64 1.000000
0  -3.534368 -14.356526 -0.841712  -0.500000 0.000000 -0.866025  0.288328 0.529607 1 64 1.000000
gun_tex
0  -3.169538 -14.356526 -0.631077  -0.000967 0.999998 0.001685  0.288328 0.529607 1 64 1.000000
0  -3.534368 -14.356526 -0.841712  -0.000967 0.999998 0.001685  0.288328 0.529607 1 64 1.000000
0  -3.534368 -14.356798 -0.679420  -0.000967 0.999998 0.001685  0.288328 0.529607 1 64 1.000000
gun_tex
0  -3.169538 -14.356526 -0.631077  -0.000967 0.999998 0.001677  0.288328 0.529607 1 64 1.000000
0  -3.534368 -14.356798 -0.679420  -0.000967 0.999998 0.001677  0.288328 0.529607 1 64 1.000000
0  -3.310086 -14.356798 -0.549930  -0.000967 0.999998 0.001677  0.288328 0.529607 1 64 1.000000
gun_tex
0  -3.534368 -14.356798 -0.161462  -0.000967 0.999998 -0.001677  0.288328 0.529607 1 64 1.000000
0  -3.534368 -14.356526 0.000826  -0.000967 0.999998 -0.001677  0.288328 0.529607 1 64 1.000000
0  -3.310086 -14.356798 -0.290951  -0.000967 0.999998 -0.001677  0.288328 0.529607 1 64 1.000000
gun_tex
0  -3.534368 -14.356526 0.000826  -0.000967 0.999998 -0.001683  0.288328 0.529607 1 64 1.000000
0  -3.169538 -14.356526 -0.209808  -0.000967 0.999998 -0.001683  0.288328 0.529607 1 64 1.000000
0  -3.310086 -14.356798 -0.290951  -0.000967 0.999998 -0.001683  0.288328 0.529607 1 64 1.000000
gun_tex
0  -3.169538 -14.356526 -0.631077  -0.001934 0.999998 0.000000  0.288328 0.529607 1 64 1.000000
0  -3.310086 -14.356798 -0.549930  -0.001934 0.999998 0.000000  0.288328 0.529607 1 64 1.000000
0  -3.169538 -14.356526 -0.209808  -0.001934 0.999998 0.000000  0.288328 0.529607 1 64 1.000000
gun_tex
0  -3.169538 -14.356526 -0.631077  1.000000 0.000000 0.000000  0.288328 0.529607 1 64 1.000000
0  -3.169538 -14.356526 -0.209808  1.000000 0.000000 0.000000  0.288328 0.529607 1 64 1.000000
0  -3.169538 -18.389696 -0.209809  1.000000 0.000000 0.000000  0.288328 0.529607 1 64 1.000000
gun_tex
0  -3.899197 -18.389696 -0.209809  -1.000000 -0.000000 0.000000  0.288328 0.529607 1 64 1.000000
0  -3.899197 -14.356526 -0.209808  -1.000000 -0.000000 0.000000  0.288328 0.529607 1 64 1.000000
0  -3.899197 -14.356526 -0.631077  -1.000000 -0.000000 0.000000  0.288328 0.529607 1 64 1.000000
gun_tex
0  -3.534368 -14.356798 -0.679420  0.500000 -0.000000 0.866026  0.288328 0.529607 1 64 1.000000
0  -3.758650 -14.356798 -0.549930  0.500000 -0.000000 0.866026  0.288328 0.529607 1 64 1.000000
0  -3.758650 -18.389696 -0.549933  0.500000 -0.000000 0.866026  0.288328 0.529607 1 64 1.000000
gun_tex
0  -3.534368 -14.356798 -0.161462  -0.500000 0.000000 -0.866025  0.288328 0.529607 1 64 1.000000
0  -3.310086 -14.356798 -0.290951  -0.500000 0.000000 -0.866025  0.288328 0.529607 1 64 1.000000
0  -3.310085 -18.389696 -0.290954  -0.500000 0.000000 -0.866025  0.288328 0.529607 1 64 1.000000
gun_tex
0  -3.899197 -18.389696 -0.209809  0.000000 -1.000000 0.000000  0.288328 0.529607 1 64 1.000000
0  -3.899197 -18.389696 -0.631078  0.000000 -1.000000 0.000000  0.288328 0.529607 1 64 1.000000
0  -3.758650 -18.389696 -0.549933  0.000000 -1.000000 0.000000  0.288328 0.529607 1 64 1.000000
gun_tex
0  -3.899197 -18.389696 -0.209809  0.000000 -1.000000 0.000005  0.288328 0.529607 1 64 1.000000
0  -3.758650 -18.389696 -0.549933  0.000000 -1.000000 0.000005  0.288328 0.529607 1 64 1.000000
0  -3.758650 -18.389696 -0.290954  0.000000 -1.000000 0.000005  0.288328 0.529607 1 64 1.000000
gun_tex
0  -3.310085 -18.389696 -0.549933  0.000000 -1.000000 0.000000  0.288328 0.529607 1 64 1.000000
0  -3.534367 -18.389696 -0.679422  0.000000 -1.000000 0.000000  0.288328 0.529607 1 64 1.000000
0  -3.169538 -18.389696 -0.631078  0.000000 -1.000000 0.000000  0.288328 0.529607 1 64 1.000000
gun_tex
0  -3.310085 -18.389696 -0.290954  0.000000 -1.000000 0.000000  0.288328 0.529607 1 64 1.000000
0  -3.310085 -18.389696 -0.549933  0.000000 -1.000000 0.000000  0.288328 0.529607 1 64 1.000000
0  -3.169538 -18.389696 -0.209809  0.000000 -1.000000 0.000000  0.288328 0.529607 1 64 1.000000
gun_tex
0  -3.310085 -18.389696 -0.549933  0.000000 -1.000000 -0.000005  0.288328 0.529607 1 64 1.000000
0  -3.169538 -18.389696 -0.631078  0.000000 -1.000000 -0.000005  0.288328 0.529607 1 64 1.000000
0  -3.169538 -18.389696 -0.209809  0.000000 -1.000000 -0.000005  0.288328 0.529607 1 64 1.000000
gun_tex
0  -3.534367 -18.389696 0.000826  0.000000 -1.000000 -0.000008  0.288328 0.529607 1 64 1.000000
0  -3.899197 -18.389696 -0.209809  0.000000 -1.000000 -0.000008  0.288328 0.529607 1 64 1.000000
0  -3.758650 -18.389696 -0.290954  0.000000 -1.000000 -0.000008  0.288328 0.529607 1 64 1.000000
gun_tex
0  -3.534367 -18.389696 0.000826  0.000000 -1.000000 0.000000  0.288328 0.529607 1 64 1.000000
0  -3.758650 -18.389696 -0.290954  0.000000 -1.000000 0.000000  0.288328 0.529607 1 64 1.000000
0  -3.534367 -18.389696 -0.161464  0.000000 -1.000000 0.000000  0.288328 0.529607 1 64 1.000000
gun_tex
0  -3.534367 -18.389696 0.000826  0.000000 -1.000000 0.000000  0.288328 0.529607 1 64 1.000000
0  -3.534367 -18.389696 -0.161464  0.000000 -1.000000 0.000000  0.288328 0.529607 1 64 1.000000
0  -3.310085 -18.389696 -0.290954  0.000000 -1.000000 0.000000  0.288328 0.529607 1 64 1.000000
gun_tex
0  -3.672143 -14.786438 -0.107360  0.000000 0.000000 -1.000000  0.288328 0.529607 1 64 1.000000
0  -3.396593 -14.786438 -0.107360  0.000000 0.000000 -1.000000  0.288328 0.529607 1 64 1.000000
0  -3.396593 -18.299595 -0.107361  0.000000 0.000000 -1.000000  0.288328 0.529607 1 64 1.000000
gun_tex
0  -3.672143 -14.786438 0.091669  0.000000 1.000000 -0.000007  0.288328 0.529607 1 64 1.000000
0  -3.396593 -14.786438 0.091669  0.000000 1.000000 -0.000007  0.288328 0.529607 1 64 1.000000
0  -3.396593 -14.786438 -0.107360  0.000000 1.000000 -0.000007  0.288328 0.529607 1 64 1.000000
gun_tex
0  -3.396592 -18.299597 0.091669  0.000000 0.000000 1.000000  0.288328 0.529607 1 64 1.000000
0  -3.396593 -14.786438 0.091669  0.000000 0.000000 1.000000  0.288328 0.529607 1 64 1.000000
0  -3.672143 -14.786438 0.091669  0.000000 0.000000 1.000000  0.288328 0.529607 1 64 1.000000
gun_tex
0  -3.672143 -17.335001 0.054038  0.000000 -1.000000 0.000000  0.288328 0.529607 1 64 1.000000
0  -3.672143 -17.335001 -0.042283  0.000000 -1.000000 0.000000  0.288328 0.529607 1 64 1.000000
0  -3.609034 -17.335001 -0.042283  0.000000 -1.000000 0.000000  0.288328 0.529607 1 64 1.000000
gun_tex
0  -3.534367 -17.335001 0.000826  0.000000 -1.000000 0.000000  0.288328 0.529607 1 64 1.000000
0  -3.459701 -17.335001 -0.042283  0.000000 -1.000000 0.000000  0.288328 0.529607 1 64 1.000000
0  -3.396593 -17.335001 0.054038  0.000000 -1.000000 0.000000  0.288328 0.529607 1 64 1.000000
gun_tex
0  -3.459701 -17.335001 -0.042283  0.000000 -1.000000 0.000000  0.288328 0.529607 1 64 1.000000
0  -3.396593 -17.335001 -0.042283  0.000000 -1.000000 0.000000  0.288328 0.529607 1 64 1.000000
0  -3.396593 -17.335001 0.054038  0.000000 -1.000000 0.000000  0.288328 0.529607 1 64 1.000000
gun_tex
0  -3.672143 -17.335001 0.054038  0.000000 -1.000000 0.000024  0.288328 0.529607 1 64 1.000000
0  -3.609034 -17.335001 -0.042283  0.000000 -1.000000 0.000024  0.288328 0.529607 1 64 1.000000
0  -3.534367 -17.335001 0.000826  0.000000 -1.000000 0.000024  0.288328 0.529607 1 64 1.000000
gun_tex
0  -3.672143 -16.266773 0.054038  0.000000 0.000000 -1.000000  0.288328 0.529607 1 64 1.000000
0  -3.672143 -15.621136 0.054038  0.000000 0.000000 -1.000000  0.288328 0.529607 1 64 1.000000
0  -3.396593 -15.621136 0.054038  0.000000 0.000000 -1.000000  0.288328 0.529607 1 64 1.000000
gun_tex
0  -3.396593 -16.266773 0.054038  0.000000 1.000000 0.000000  0.288328 0.529607 1 64 1.000000
0  -3.396593 -16.266773 -0.042283  0.000000 1.000000 0.000000  0.288328 0.529607 1 64 1.000000
0  -3.459700 -16.266773 -0.042283  0.000000 1.000000 0.000000  0.288328 0.529607 1 64 1.000000
gun_tex
0  -3.534368 -16.266773 0.000826  0.000000 1.000000 -0.000024  0.288328 0.529607 1 64 1.000000
0  -3.609035 -16.266773 -0.042283  0.000000 1.000000 -0.000024  0.288328 0.529607 1 64 1.000000
0  -3.672143 -16.266773 0.054038  0.000000 1.000000 -0.000024  0.288328 0.529607 1 64 1.000000
gun_tex
0  -3.609035 -16.266773 -0.042283  0.000000 1.000000 0.000000  0.288328 0.529607 1 64 1.000000
0  -3.672143 -16.266773 -0.042283  0.000000 1.000000 0.000000  0.288328 0.529607 1 64 1.000000
0  -3.672143 -16.266773 0.054038  0.000000 1.000000 0.000000  0.288328 0.529607 1 64 1.000000
gun_tex
0  -3.396593 -16.266773 0.054038  0.000000 1.000000 0.000000  0.288328 0.529607 1 64 1.000000
0  -3.459700 -16.266773 -0.042283  0.000000 1.000000 0.000000  0.288328 0.529607 1 64 1.000000
0  -3.534368 -16.266773 0.000826  0.000000 1.000000 0.000000  0.288328 0.529607 1 64 1.000000
gun_tex
0  -3.396593 -18.299595 -0.107361  1.000000 0.000000 -0.000000  0.288328 0.529607 1 64 1.000000
0  -3.396593 -14.786438 -0.107360  1.000000 0.000000 -0.000000  0.288328 0.529607 1 64 1.000000
0  -3.396593 -17.986698 -0.042283  1.000000 0.000000 -0.000000  0.288328 0.529607 1 64 1.000000
gun_tex
0  -3.396593 -17.986698 0.054038  1.000000 0.000000 0.000000  0.288328 0.529607 1 64 1.000000
0  -3.396593 -17.335001 0.054038  1.000000 0.000000 0.000000  0.288328 0.529607 1 64 1.000000
0  -3.396593 -14.786438 0.091669  1.000000 0.000000 0.000000  0.288328 0.529607 1 64 1.000000
gun_tex
0  -3.396593 -18.299597 -0.042283  1.000000 0.000000 0.000000  0.288328 0.529607 1 64 1.000000
0  -3.396593 -18.299595 -0.107361  1.000000 0.000000 0.000000  0.288328 0.529607 1 64 1.000000
0  -3.396593 -17.986698 -0.042283  1.000000 0.000000 0.000000  0.288328 0.529607 1 64 1.000000
gun_tex
0  -3.396593 -14.786438 0.091669  1.000000 0.000000 -0.000006  0.288328 0.529607 1 64 1.000000
0  -3.396592 -18.299597 0.091669  1.000000 0.000000 -0.000006  0.288328 0.529607 1 64 1.000000
0  -3.396593 -17.986698 0.054038  1.000000 0.000000 -0.000006  0.288328 0.529607 1 64 1.000000
gun_tex
0  -3.396592 -18.299597 0.091669  1.000000 0.000000 -0.000006  0.288328 0.529607 1 64 1.000000
0  -3.396593 -18.299597 0.054038  1.000000 0.000000 -0.000006  0.288328 0.529607 1 64 1.000000
0  -3.396593 -17.986698 0.054038  1.000000 0.000000 -0.000006  0.288328 0.529607 1 64 1.000000
gun_tex
0  -3.396593 -18.299597 0.054038  1.000000 0.000000 0.000000  0.288328 0.529607 1 64 1.000000
0  -3.396593 -18.299597 -0.042283  1.000000 0.000000 0.000000  0.288328 0.529607 1 64 1.000000
0  -3.396593 -17.986698 -0.042283  1.000000 0.000000 0.000000  0.288328 0.529607 1 64 1.000000
gun_tex
0  -3.396593 -14.786438 -0.107360  1.000000 0.000000 -0.000001  0.288328 0.529607 1 64 1.000000
0  -3.396593 -14.786438 0.091669  1.000000 0.000000 -0.000001  0.288328 0.529607 1 64 1.000000
0  -3.396593 -15.621136 -0.042283  1.000000 0.000000 -0.000001  0.288328 0.529607 1 64 1.000000
gun_tex
0  -3.396593 -14.786438 0.091669  1.000000 0.000000 -0.000002  0.288328 0.529607 1 64 1.000000
0  -3.396593 -15.621136 0.054038  1.000000 0.000000 -0.000002  0.288328 0.529607 1 64 1.000000
0  -3.396593 -15.621136 -0.042283  1.000000 0.000000 -0.000002  0.288328 0.529607 1 64 1.000000
gun_tex
0  -3.396593 -16.266773 0.054038  1.000000 0.000000 0.000000  0.288328 0.529607 1 64 1.000000
0  -3.396593 -15.621136 0.054038  1.000000 0.000000 0.000000  0.288328 0.529607 1 64 1.000000
0  -3.396593 -14.786438 0.091669  1.000000 0.000000 0.000000  0.288328 0.529607 1 64 1.000000
gun_tex
0  -3.396593 -17.335001 -0.042283  1.000000 0.000000 -0.000004  0.288328 0.529607 1 64 1.000000
0  -3.396593 -17.986698 -0.042283  1.000000 0.000000 -0.000004  0.288328 0.529607 1 64 1.000000
0  -3.396593 -14.786438 -0.107360  1.000000 0.000000 -0.000004  0.288328 0.529607 1 64 1.000000
gun_tex
0  -3.396593 -14.786438 -0.107360  1.000000 0.000000 -0.000004  0.288328 0.529607 1 64 1.000000
0  -3.396593 -16.081734 -0.042283  1.000000 0.000000 -0.000004  0.288328 0.529607 1 64 1.000000
0  -3.396593 -16.266773 -0.042283  1.000000 0.000000 -0.000004  0.288328 0.529607 1 64 1.000000
gun_tex
0  -3.396593 -16.266773 0.054038  1.000000 0.000000 0.000000  0.288328 0.529607 1 64 1.000000
0  -3.396593 -14.786438 0.091669  1.000000 0.000000 0.000000  0.288328 0.529607 1 64 1.000000
0  -3.396593 -17.335001 0.054038  1.000000 0.000000 0.000000  0.288328 0.529607 1 64 1.000000
gun_tex
0  -3.396593 -17.335001 -0.042283  1.000000 0.000000 -0.000004  0.288328 0.529607 1 64 1.000000
0  -3.396593 -14.786438 -0.107360  1.000000 0.000000 -0.000004  0.288328 0.529607 1 64 1.000000
0  -3.396593 -16.266773 -0.042283  1.000000 0.000000 -0.000004  0.288328 0.529607 1 64 1.000000
gun_tex
0  -3.396593 -16.266773 -0.042283  1.000000 0.000000 0.000000  0.288328 0.529607 1 64 1.000000
0  -3.396593 -16.266773 0.054038  1.000000 0.000000 0.000000  0.288328 0.529607 1 64 1.000000
0  -3.396593 -17.335001 0.054038  1.000000 0.000000 0.000000  0.288328 0.529607 1 64 1.000000
gun_tex
0  -3.396593 -17.986698 0.054038  0.000000 1.000000 0.000000  0.288328 0.529607 1 64 1.000000
0  -3.396593 -17.986698 -0.042283  0.000000 1.000000 0.000000  0.288328 0.529607 1 64 1.000000
0  -3.459701 -17.986698 -0.042283  0.000000 1.000000 0.000000  0.288328 0.529607 1 64 1.000000
gun_tex
0  -3.534368 -17.986700 0.000826  0.000019 1.000000 0.000000  0.288328 0.529607 1 64 1.000000
0  -3.609034 -17.986698 -0.042283  0.000019 1.000000 0.000000  0.288328 0.529607 1 64 1.000000
0  -3.672143 -17.986698 0.054038  0.000019 1.000000 0.000000  0.288328 0.529607 1 64 1.000000
gun_tex
0  -3.609034 -17.986698 -0.042283  0.000000 1.000000 0.000000  0.288328 0.529607 1 64 1.000000
0  -3.672143 -17.986698 -0.042283  0.000000 1.000000 0.000000  0.288328 0.529607 1 64 1.000000
0  -3.672143 -17.986698 0.054038  0.000000 1.000000 0.000000  0.288328 0.529607 1 64 1.000000
gun_tex
0  -3.396593 -17.986698 0.054038  -0.000019 1.000000 0.000000  0.288328 0.529607 1 64 1.000000
0  -3.459701 -17.986698 -0.042283  -0.000019 1.000000 0.000000  0.288328 0.529607 1 64 1.000000
0  -3.534368 -17.986700 0.000826  -0.000019 1.000000 0.000000  0.288328 0.529607 1 64 1.000000
gun_tex
0  -3.459701 -17.335001 -0.042283  0.000000 0.000000 1.000000  0.288328 0.529607 1 64 1.000000
0  -3.459701 -17.986698 -0.042283  0.000000 0.000000 1.000000  0.288328 0.529607 1 64 1.000000
0  -3.396593 -17.986698 -0.042283  0.000000 0.000000 1.000000  0.288328 0.529607 1 64 1.000000
gun_tex
0  -3.609034 -17.335001 -0.042283  0.000000 0.000000 1.000000  0.288328 0.529607 1 64 1.000000
0  -3.672143 -17.335001 -0.042283  0.000000 0.000000 1.000000  0.288328 0.529607 1 64 1.000000
0  -3.672143 -17.986698 -0.042283  0.000000 0.000000 1.000000  0.288328 0.529607 1 64 1.000000
gun_tex
0  -3.672143 -18.299597 0.054038  -1.000000 0.000000 0.000006  0.288328 0.529607 1 64 1.000000
0  -3.672142 -18.299597 0.091669  -1.000000 0.000000 0.000006  0.288328 0.529607 1 64 1.000000
0  -3.672143 -17.986698 0.054038  -1.000000 0.000000 0.000006  0.288328 0.529607 1 64 1.000000
gun_tex
0  -3.672142 -18.299597 0.091669  -1.000000 0.000000 0.000005  0.288328 0.529607 1 64 1.000000
0  -3.672143 -14.786438 0.091669  -1.000000 0.000000 0.000005  0.288328 0.529607 1 64 1.000000
0  -3.672143 -17.986698 0.054038  -1.000000 0.000000 0.000005  0.288328 0.529607 1 64 1.000000
gun_tex
0  -3.672143 -17.986698 0.054038  -1.000000 0.000000 -0.000006  0.288328 0.529607 1 64 1.000000
0  -3.672143 -14.786438 0.091669  -1.000000 0.000000 -0.000006  0.288328 0.529607 1 64 1.000000
0  -3.672143 -17.335001 0.054038  -1.000000 0.000000 -0.000006  0.288328 0.529607 1 64 1.000000
gun_tex
0  -3.672143 -14.786438 -0.107360  -1.000000 -0.000000 -0.000003  0.288328 0.529607 1 64 1.000000
0  -3.672142 -18.299595 -0.107361  -1.000000 -0.000000 -0.000003  0.288328 0.529607 1 64 1.000000
0  -3.672143 -17.986698 -0.042283  -1.000000 -0.000000 -0.000003  0.288328 0.529607 1 64 1.000000
gun_tex
0  -3.672142 -18.299595 -0.107361  -1.000000 0.000000 -0.000004  0.288328 0.529607 1 64 1.000000
0  -3.672143 -18.299595 -0.042283  -1.000000 0.000000 -0.000004  0.288328 0.529607 1 64 1.000000
0  -3.672143 -17.986698 -0.042283  -1.000000 0.000000 -0.000004  0.288328 0.529607 1 64 1.000000
gun_tex
0  -3.672143 -18.299597 0.054038  -1.000000 0.000000 0.000000  0.288328 0.529607 1 64 1.000000
0  -3.672143 -17.986698 0.054038  -1.000000 0.000000 0.000000  0.288328 0.529607 1 64 1.000000
0  -3.672143 -18.299595 -0.042283  -1.000000 0.000000 0.000000  0.288328 0.529607 1 64 1.000000
gun_tex
0  -3.672143 -14.786438 -0.107360  -1.000000 -0.000001 -0.000005  0.288328 0.529607 1 64 1.000000
0  -3.672143 -16.266773 -0.042283  -1.000000 -0.000001 -0.000005  0.288328 0.529607 1 64 1.000000
0  -3.672143 -15.621136 -0.042283  -1.000000 -0.000001 -0.000005  0.288328 0.529607 1 64 1.000000
gun_tex
0  -3.672143 -15.621136 -0.042283  -1.000000 -0.000000 0.000000  0.288328 0.529607 1 64 1.000000
0  -3.672143 -15.621136 0.054038  -1.000000 -0.000000 0.000000  0.288328 0.529607 1 64 1.000000
0  -3.672143 -14.786438 0.091669  -1.000000 -0.000000 0.000000  0.288328 0.529607 1 64 1.000000
gun_tex
0  -3.672143 -14.786438 0.091669  -1.000000 -0.000001 0.000008  0.288328 0.529607 1 64 1.000000
0  -3.672143 -15.621136 0.054038  -1.000000 -0.000001 0.000008  0.288328 0.529607 1 64 1.000000
0  -3.672143 -16.266773 0.054038  -1.000000 -0.000001 0.000008  0.288328 0.529607 1 64 1.000000
gun_tex
0  -3.672143 -16.266773 -0.042283  -1.000000 0.000000 0.000004  0.288328 0.529607 1 64 1.000000
0  -3.672143 -14.786438 -0.107360  -1.000000 0.000000 0.000004  0.288328 0.529607 1 64 1.000000
0  -3.672143 -17.335001 -0.042283  -1.000000 0.000000 0.000004  0.288328 0.529607 1 64 1.000000
gun_tex
0  -3.672143 -14.786438 -0.107360  -1.000000 0.000000 0.000004  0.288328 0.529607 1 64 1.000000
0  -3.672143 -17.986698 -0.042283  -1.000000 0.000000 0.000004  0.288328 0.529607 1 64 1.000000
0  -3.672143 -17.335001 -0.042283  -1.000000 0.000000 0.000004  0.288328 0.529607 1 64 1.000000
gun_tex
0  -3.672143 -17.335001 0.054038  -1.000000 0.000000 -0.000006  0.288328 0.529607 1 64 1.000000
0  -3.672143 -14.786438 0.091669  -1.000000 0.000000 -0.000006  0.288328 0.529607 1 64 1.000000
0  -3.672143 -16.266773 0.054038  -1.000000 0.000000 -0.000006  0.288328 0.529607 1 64 1.000000
gun_tex
0  -3.672143 -17.335001 -0.042283  -1.000000 -0.000001 0.000000  0.288328 0.529607 1 64 1.000000
0  -3.672143 -17.335001 0.054038  -1.000000 -0.000001 0.000000  0.288328 0.529607 1 64 1.000000
0  -3.672143 -16.266773 -0.042283  -1.000000 -0.000001 0.000000  0.288328 0.529607 1 64 1.000000
gun_tex
0  -3.396593 -17.986698 0.054038  0.000000 0.000000 -1.000000  0.288328 0.529607 1 64 1.000000
0  -3.672143 -17.986698 0.054038  0.000000 0.000000 -1.000000  0.288328 0.529607 1 64 1.000000
0  -3.672143 -17.335001 0.054038  0.000000 0.000000 -1.000000  0.288328 0.529607 1 64 1.000000
gun_tex
0  -3.672143 -15.621136 0.054038  0.000000 -1.000000 0.000000  0.288328 0.529607 1 64 1.000000
0  -3.672143 -15.621136 -0.042283  0.000000 -1.000000 0.000000  0.288328 0.529607 1 64 1.000000
0  -3.609035 -15.621136 -0.042283  0.000000 -1.000000 0.000000  0.288328 0.529607 1 64 1.000000
gun_tex
0  -3.534368 -15.621134 0.000826  -0.000019 -1.000000 0.000012  0.288328 0.529607 1 64 1.000000
0  -3.459700 -15.621136 -0.042283  -0.000019 -1.000000 0.000012  0.288328 0.529607 1 64 1.000000
0  -3.396593 -15.621136 0.054038  -0.000019 -1.000000 0.000012  0.288328 0.529607 1 64 1.000000
gun_tex
0  -3.459700 -15.621136 -0.042283  0.000000 -1.000000 0.000010  0.288328 0.529607 1 64 1.000000
0  -3.396593 -15.621136 -0.042283  0.000000 -1.000000 0.000010  0.288328 0.529607 1 64 1.000000
0  -3.396593 -15.621136 0.054038  0.000000 -1.000000 0.000010  0.288328 0.529607 1 64 1.000000
gun_tex
0  -3.672143 -15.621136 0.054038  0.000019 -1.000000 0.000000  0.288328 0.529607 1 64 1.000000
0  -3.609035 -15.621136 -0.042283  0.000019 -1.000000 0.000000  0.288328 0.529607 1 64 1.000000
0  -3.534368 -15.621134 0.000826  0.000019 -1.000000 0.000000  0.288328 0.529607 1 64 1.000000
gun_tex
0  -3.396593 -16.081734 -0.042283  0.000000 0.000000 1.000000  0.288328 0.529607 1 64 1.000000
0  -3.396593 -15.621136 -0.042283  0.000000 0.000000 1.000000  0.288328 0.529607 1 64 1.000000
0  -3.459700 -15.621136 -0.042283  0.000000 0.000000 1.000000  0.288328 0.529607 1 64 1.000000
gun_tex
0  -3.459700 -15.621136 -0.042283  0.000000 0.000000 1.000000  0.288328 0.529607 1 64 1.000000
0  -3.459700 -16.266773 -0.042283  0.000000 0.000000 1.000000  0.288328 0.529607 1 64 1.000000
0  -3.396593 -16.081734 -0.042283  0.000000 0.000000 1.000000  0.288328 0.529607 1 64 1.000000
gun_tex
0  -3.672143 -15.621136 -0.042283  0.000000 -0.000000 1.000000  0.288328 0.529607 1 64 1.000000
0  -3.672143 -16.266773 -0.042283  0.000000 -0.000000 1.000000  0.288328 0.529607 1 64 1.000000
0  -3.609035 -16.266773 -0.042283  0.000000 -0.000000 1.000000  0.288328 0.529607 1 64 1.000000
gun_tex
0  -3.459701 -17.986698 -0.042283  0.000000 0.000000 1.000000  0.288328 0.529607 1 64 1.000000
0  -3.459701 -17.335001 -0.042283  0.000000 0.000000 1.000000  0.288328 0.529607 1 64 1.000000
0  -3.609034 -17.335001 -0.042283  0.000000 0.000000 1.000000  0.288328 0.529607 1 64 1.000000
gun_tex
0  -3.609035 -15.621136 -0.042283  -0.000002 -0.000000 1.000000  0.288328 0.529607 1 64 1.000000
0  -3.609035 -16.266773 -0.042283  -0.000002 -0.000000 1.000000  0.288328 0.529607 1 64 1.000000
0  -3.459700 -16.266773 -0.042283  -0.000002 -0.000000 1.000000  0.288328 0.529607 1 64 1.000000
gun_tex
0  -3.486210 -18.170963 0.442858  -0.000003 -0.000001 1.000000  0.425475 0.510436 1 64 1.000000
0  -3.486210 -17.946335 0.442858  -0.000003 -0.000001 1.000000  0.425475 0.510436 1 64 1.000000
0  -3.582525 -17.946335 0.442858  -0.000003 -0.000001 1.000000  0.425475 0.510436 1 64 1.000000
gun_tex
0  -3.486210 -17.946335 0.442858  0.000000 0.303312 0.952891  0.425475 0.510436 1 64 1.000000
0  -3.486210 -17.525789 0.308996  0.000000 0.303312 0.952891  0.425475 0.510436 1 64 1.000000
0  -3.582525 -17.525789 0.308996  0.000000 0.303312 0.952891  0.425475 0.510436 1 64 1.000000
gun_tex
0  -3.582525 -17.531303 0.054037  -0.000005 -0.222175 -0.975007  0.425475 0.510436 1 64 1.000000
0  -3.486210 -17.531303 0.054037  -0.000005 -0.222175 -0.975007  0.425475 0.510436 1 64 1.000000
0  -3.486210 -17.946335 0.148610  -0.000005 -0.222175 -0.975007  0.425475 0.510436 1 64 1.000000
gun_tex
0  -3.486210 -18.226118 0.173628  0.000000 -1.000000 0.000000  0.425475 0.510436 1 64 1.000000
0  -3.486210 -18.226118 0.408387  0.000000 -1.000000 0.000000  0.425475 0.510436 1 64 1.000000
0  -3.582525 -18.226118 0.408387  0.000000 -1.000000 0.000000  0.425475 0.510436 1 64 1.000000
gun_tex
0  -3.486210 -18.170963 0.442858  0.000002 -0.530002 0.847996  0.425475 0.510436 1 64 1.000000
0  -3.582525 -18.170963 0.442858  0.000002 -0.530002 0.847996  0.425475 0.510436 1 64 1.000000
0  -3.582525 -18.226118 0.408387  0.000002 -0.530002 0.847996  0.425475 0.510436 1 64 1.000000
gun_tex
0  -3.582525 -18.170963 0.148610  0.000000 0.000000 -1.000000  0.425475 0.510436 1 64 1.000000
0  -3.582525 -17.946335 0.148610  0.000000 0.000000 -1.000000  0.425475 0.510436 1 64 1.000000
0  -3.486210 -17.946335 0.148610  0.000000 0.000000 -1.000000  0.425475 0.510436 1 64 1.000000
gun_tex
0  -3.582525 -17.525789 0.308996  0.000000 1.000000 0.000000  0.425475 0.510436 1 64 1.000000
0  -3.486210 -17.525789 0.308996  0.000000 1.000000 0.000000  0.425475 0.510436 1 64 1.000000
0  -3.486210 -17.525789 0.054037  0.000000 1.000000 0.000000  0.425475 0.510436 1 64 1.000000
gun_tex
0  -3.582525 -18.170963 0.442858  -1.000000 0.000004 0.000000  0.425475 0.510436 1 64 1.000000
0  -3.582525 -17.946335 0.442858  -1.000000 0.000004 0.000000  0.425475 0.510436 1 64 1.000000
0  -3.582525 -17.946335 0.148610  -1.000000 0.000004 0.000000  0.425475 0.510436 1 64 1.000000
gun_tex
0  -3.582525 -17.946335 0.442858  -1.000000 0.000000 0.000000  0.425475 0.510436 1 64 1.000000
0  -3.582525 -17.525789 0.308996  -1.000000 0.000000 0.000000  0.425475 0.510436 1 64 1.000000
0  -3.582525 -17.946335 0.148610  -1.000000 0.000000 0.000000  0.425475 0.510436 1 64 1.000000
gun_tex
0  -3.582525 -17.525789 0.308996  -1.000000 0.000000 0.000001  0.425475 0.510436 1 64 1.000000
0  -3.582525 -17.525789 0.054037  -1.000000 0.000000 0.000001  0.425475 0.510436 1 64 1.000000
0  -3.582525 -17.531303 0.054037  -1.000000 0.000000 0.000001  0.425475 0.510436 1 64 1.000000
gun_tex
0  -3.582525 -17.946335 0.148610  -1.000000 0.000000 0.000000  0.425475 0.510436 1 64 1.000000
0  -3.582525 -18.170963 0.148610  -1.000000 0.000000 0.000000  0.425475 0.510436 1 64 1.000000
0  -3.582525 -18.170963 0.442858  -1.000000 0.000000 0.000000  0.425475 0.510436 1 64 1.000000
gun_tex
0  -3.582525 -18.170963 0.148610  -1.000000 -0.000009 0.000000  0.425475 0.510436 1 64 1.000000
0  -3.582525 -18.226118 0.173628  -1.000000 -0.000009 0.000000  0.425475 0.510436 1 64 1.000000
0  -3.582525 -18.226118 0.408387  -1.000000 -0.000009 0.000000  0.425475 0.510436 1 64 1.000000
gun_tex
0  -3.582525 -17.525789 0.308996  -1.000000 0.000000 0.000001  0.425475 0.510436 1 64 1.000000
0  -3.582525 -17.531303 0.054037  -1.000000 0.000000 0.000001  0.425475 0.510436 1 64 1.000000
0  -3.582525 -17.946335 0.148610  -1.000000 0.000000 0.000001  0.425475 0.510436 1 64 1.000000
gun_tex
0  -3.486210 -18.170963 0.148610  0.000002 -0.413069 -0.910700  0.425475 0.510436 1 64 1.000000
0  -3.486210 -18.226118 0.173628  0.000002 -0.413069 -0.910700  0.425475 0.510436 1 64 1.000000
0  -3.582525 -18.226118 0.173628  0.000002 -0.413069 -0.910700  0.425475 0.510436 1 64 1.000000
gun_tex
0  -3.486210 -17.946335 0.148610  1.000000 0.000001 -0.000001  0.425475 0.510436 1 64 1.000000
0  -3.486210 -17.531303 0.054037  1.000000 0.000001 -0.000001  0.425475 0.510436 1 64 1.000000
0  -3.486210 -17.525789 0.308996  1.000000 0.000001 -0.000001  0.425475 0.510436 1 64 1.000000
gun_tex
0  -3.486210 -17.531303 0.054037  1.000000 -0.000085 0.000000  0.425475 0.510436 1 64 1.000000
0  -3.486210 -17.525789 0.054037  1.000000 -0.000085 0.000000  0.425475 0.510436 1 64 1.000000
0  -3.486210 -17.525789 0.308996  1.000000 -0.000085 0.000000  0.425475 0.510436 1 64 1.000000
gun_tex
0  -3.486210 -17.525789 0.308996  1.000000 0.000000 0.000000  0.425475 0.510436 1 64 1.000000
0  -3.486210 -17.946335 0.442858  1.000000 0.000000 0.000000  0.425475 0.510436 1 64 1.000000
0  -3.486210 -17.946335 0.148610  1.000000 0.000000 0.000000  0.425475 0.510436 1 64 1.000000
gun_tex
0  -3.486210 -17.946335 0.442858  1.000000 0.000000 0.000000  0.425475 0.510436 1 64 1.000000
0  -3.486210 -18.170963 0.442858  1.000000 0.000000 0.000000  0.425475 0.510436 1 64 1.000000
0  -3.486210 -17.946335 0.148610  1.000000 0.000000 0.000000  0.425475 0.510436 1 64 1.000000
gun_tex
0  -3.486210 -18.170963 0.442858  1.000000 0.000007 0.000000  0.425475 0.510436 1 64 1.000000
0  -3.486210 -18.226118 0.408387  1.000000 0.000007 0.000000  0.425475 0.510436 1 64 1.000000
0  -3.486210 -18.170963 0.148610  1.000000 0.000007 0.000000  0.425475 0.510436 1 64 1.000000
gun_tex
0  -3.486210 -17.946335 0.148610  1.000000 0.000000 0.000000  0.425475 0.510436 1 64 1.000000
0  -3.486210 -18.170963 0.442858  1.000000 0.000000 0.000000  0.425475 0.510436 1 64 1.000000
0  -3.486210 -18.170963 0.148610  1.000000 0.000000 0.000000  0.425475 0.510436 1 64 1.000000
gun_tex
0  -3.396593 -18.299597 0.054038  -0.000014 -1.000000 0.000000  0.288328 0.529607 1 64 1.000000
0  -3.396592 -18.299597 0.091669  -0.000014 -1.000000 0.000000  0.288328 0.529607 1 64 1.000000
0  -3.534367 -18.299595 0.000826  -0.000014 -1.000000 0.000000  0.288328 0.529607 1 64 1.000000
gun_tex
0  -3.396593 -18.299595 -0.107361  0.000000 -1.000000 -0.000049  0.288328 0.529607 1 64 1.000000
0  -3.459701 -18.299597 -0.042283  0.000000 -1.000000 -0.000049  0.288328 0.529607 1 64 1.000000
0  -3.609034 -18.299597 -0.042283  0.000000 -1.000000 -0.000049  0.288328 0.529607 1 64 1.000000
gun_tex
0  -3.169538 -18.389696 -0.209809  0.499966 -0.000015 0.866045  0.288262 0.529480 1 64 1.000000
0  -3.459701 -18.299597 -0.042283  0.499966 -0.000015 0.866045  0.288262 0.529480 1 64 1.000000
0  -3.534367 -18.299595 0.000826  0.499966 -0.000015 0.866045  0.288262 0.529480 1 64 1.000000
gun_tex
0  -3.534367 -18.389696 0.000826  -0.499997 0.000000 0.866027  0.288262 0.529480 1 64 1.000000
0  -3.534367 -18.299597 0.000826  -0.499997 0.000000 0.866027  0.288262 0.529480 1 64 1.000000
0  -3.609034 -18.299597 -0.042283  -0.499997 0.000000 0.866027  0.288262 0.529480 1 64 1.000000
gun_tex
0  -3.396592 -18.299597 0.091669  0.000000 -1.000000 -0.000038  0.288328 0.529607 1 64 1.000000
0  -3.672142 -18.299597 0.091669  0.000000 -1.000000 -0.000038  0.288328 0.529607 1 64 1.000000
0  -3.534367 -18.299595 0.000826  0.000000 -1.000000 -0.000038  0.288328 0.529607 1 64 1.000000
gun_tex
0  -3.672142 -18.299597 0.091669  0.000014 -1.000000 0.000000  0.288328 0.529607 1 64 1.000000
0  -3.672143 -18.299597 0.054038  0.000014 -1.000000 0.000000  0.288328 0.529607 1 64 1.000000
0  -3.534367 -18.299595 0.000826  0.000014 -1.000000 0.000000  0.288328 0.529607 1 64 1.000000
gun_tex
0  -3.672143 -18.299597 0.054038  -0.000030 -1.000000 -0.000039  0.288328 0.529607 1 64 1.000000
0  -3.672143 -18.299595 -0.042283  -0.000030 -1.000000 -0.000039  0.288328 0.529607 1 64 1.000000
0  -3.609034 -18.299597 -0.042283  -0.000030 -1.000000 -0.000039  0.288328 0.529607 1 64 1.000000
gun_tex
0  -3.534367 -18.299595 0.000826  -0.000019 -1.000000 0.000000  0.288328 0.529607 1 64 1.000000
0  -3.459701 -18.299597 -0.042283  -0.000019 -1.000000 0.000000  0.288328 0.529607 1 64 1.000000
0  -3.396593 -18.299597 0.054038  -0.000019 -1.000000 0.000000  0.288328 0.529607 1 64 1.000000
gun_tex
0  -3.459701 -18.299597 -0.042283  0.000000 -1.000000 0.000000  0.288328 0.529607 1 64 1.000000
0  -3.396593 -18.299597 -0.042283  0.000000 -1.000000 0.000000  0.288328 0.529607 1 64 1.000000
0  -3.396593 -18.299597 0.054038  0.000000 -1.000000 0.000000  0.288328 0.529607 1 64 1.000000
gun_tex
0  -3.672143 -18.299597 0.054038  0.000019 -1.000000 0.000024  0.288328 0.529607 1 64 1.000000
0  -3.609034 -18.299597 -0.042283  0.000019 -1.000000 0.000024  0.288328 0.529607 1 64 1.000000
0  -3.534367 -18.299595 0.000826  0.000019 -1.000000 0.000024  0.288328 0.529607 1 64 1.000000
gun_tex
0  -3.672143 -18.299595 -0.042283  -0.000030 -1.000000 0.000058  0.288328 0.529607 1 64 1.000000
0  -3.672142 -18.299595 -0.107361  -0.000030 -1.000000 0.000058  0.288328 0.529607 1 64 1.000000
0  -3.609034 -18.299597 -0.042283  -0.000030 -1.000000 0.000058  0.288328 0.529607 1 64 1.000000
gun_tex
0  -3.672142 -18.299595 -0.107361  0.000000 -1.000000 0.000000  0.288328 0.529607 1 64 1.000000
0  -3.396593 -18.299595 -0.107361  0.000000 -1.000000 0.000000  0.288328 0.529607 1 64 1.000000
0  -3.609034 -18.299597 -0.042283  0.000000 -1.000000 0.000000  0.288328 0.529607 1 64 1.000000
gun_tex
0  -3.396593 -18.299595 -0.107361  0.000000 -1.000000 -0.000058  0.288328 0.529607 1 64 1.000000
0  -3.396593 -18.299597 -0.042283  0.000000 -1.000000 -0.000058  0.288328 0.529607 1 64 1.000000
0  -3.459701 -18.299597 -0.042283  0.000000 -1.000000 -0.000058  0.288328 0.529607 1 64 1.000000
gun_tex
0  -3.459701 -18.299597 -0.042283  0.000000 -1.000000 0.000000  0.288328 0.529607 1 64 1.000000
0  -3.534367 -18.299597 0.000826  0.000000 -1.000000 0.000000  0.288262 0.529480 1 64 1.000000
0  -3.609034 -18.299597 -0.042283  0.000000 -1.000000 0.000000  0.288328 0.529607 1 64 1.000000
end
