version 1
nodes
0 "ValveBiped.Bip01_Spine4" -1
1 "ValveBiped.Bip01_L_Clavicle" 0
2 "ValveBiped.Bip01_L_UpperArm" 1
3 "ValveBiped.Bip01_L_Forearm" 2
4 "ValveBiped.Bip01_L_Hand" 3
5 "ValveBiped.Bip01_L_Finger4" 4
6 "ValveBiped.Bip01_L_Finger41" 5
7 "ValveBiped.Bip01_L_Finger42" 6
8 "ValveBiped.Bip01_L_Finger3" 4
9 "ValveBiped.Bip01_L_Finger31" 8
10 "ValveBiped.Bip01_L_Finger32" 9
11 "ValveBiped.Bip01_L_Finger2" 4
12 "ValveBiped.Bip01_L_Finger21" 11
13 "ValveBiped.Bip01_L_Finger22" 12
14 "ValveBiped.Bip01_L_Finger1" 4
15 "ValveBiped.Bip01_L_Finger11" 14
16 "ValveBiped.Bip01_L_Finger12" 15
17 "ValveBiped.Bip01_L_Finger0" 4
18 "ValveBiped.Bip01_L_Finger01" 17
19 "ValveBiped.Bip01_L_Finger02" 18
20 "ValveBiped.Bip01_L_Ulna" 3
21 "ValveBiped.Bip01_L_Wrist" 3
22 "rig_l_upperarm" 1
23 "rig_l_forearm" 22
24 "rig_d_l_forearm" 23
25 "rig_d_l_upperarm" 22
26 "ValveBiped.Bip01_R_Clavicle" 0
27 "ValveBiped.Bip01_R_UpperArm" 26
28 "ValveBiped.Bip01_R_Forearm" 27
29 "ValveBiped.Bip01_R_Hand" 28
30 "ValveBiped.Bip01_R_Finger4" 29
31 "ValveBiped.Bip01_R_Finger41" 30
32 "ValveBiped.Bip01_R_Finger42" 31
33 "ValveBiped.Bip01_R_Finger3" 29
34 "ValveBiped.Bip01_R_Finger31" 33
35 "ValveBiped.Bip01_R_Finger32" 34
36 "ValveBiped.Bip01_R_Finger2" 29
37 "ValveBiped.Bip01_R_Finger21" 36
38 "ValveBiped.Bip01_R_Finger22" 37
39 "ValveBiped.Bip01_R_Finger1" 29
40 "ValveBiped.Bip01_R_Finger11" 39
41 "ValveBiped.Bip01_R_Finger12" 40
42 "ValveBiped.Bip01_R_Finger0" 29
43 "ValveBiped.Bip01_R_Finger01" 42
44 "ValveBiped.Bip01_R_Finger02" 43
45 "ValveBiped.Bip01_R_Ulna" 28
46 "ValveBiped.Bip01_R_Wrist" 28
47 "rig_r_upperarm" 26
48 "rig_r_forearm" 47
49 "rig_d_r_forearm" 48
50 "rig_d_r_upperarm" 47
51 "rig_r_hand" -1
52 "rig_d_r_hand" 51
53 "rig_d_r_wrist" 52
54 "rig_l_hand" -1
55 "rig_d_l_hand" 54
56 "rig_d_l_wrist" 54
57 "rig_l_pole" -1
58 "rig_r_pole" -1
59 "rig_l_clavicle" -1
60 "rig_d_l_clavicle" 59
61 "rig_r_clavicle" -1
62 "rig_d_r_clavicle" 61
63 "Camera" -1
64 "body" -1
65 "hammer" 64
66 "barrel" 64
67 "cylinderlock" 64
68 "cylinder" 67
69 "cylinderpush" 68
70 "trigger" 64
71 "cylrel" 64
72 "bullet1" -1
73 "bullet2" -1
74 "bullet3" -1
75 "bullet4" -1
76 "bullet5" -1
77 "bullet6" -1
78 "speedloader" -1
end
skeleton
time 0
0  0.000006 0.000000 0.000000  -1.570800 -1.391899 -1.570792
1  2.033349 1.000767 1.937657  -1.544959 -1.855077 -0.198628
2  6.027514 -0.000326 0.000201  -1.583279 0.045953 -0.585171
3  11.692119 0.000566 -0.000740  -0.000021 0.000000 -0.056690
4  11.481222 0.000172 -0.000744  1.576892 -0.106567 0.041958
5  3.859503 -0.142823 -1.192079  -0.468169 0.151546 -0.880257
6  1.312588 0.000011 0.000008  -0.000027 0.000044 -0.439740
7  0.729357 0.000056 0.000050  0.000017 0.000021 -0.244317
8  3.942138 0.046328 -0.431543  -0.151817 0.073216 -0.811086
9  1.539111 0.000085 0.000004  -0.000007 0.000021 -0.247842
10  1.196334 0.000148 0.000029  0.000011 0.000018 -0.430770
11  3.883507 -0.047213 0.431351  0.085894 0.021858 -0.587909
12  1.719572 -0.000031 0.000017  0.000015 0.005518 -0.366533
13  1.209178 0.000091 0.000012  0.000004 0.003091 -0.216438
14  3.859676 -0.138418 1.332380  0.354466 -0.042717 -0.531784
15  1.719446 -0.000019 0.000028  0.000028 0.004066 -0.363025
16  1.099675 0.000051 0.000006  0.000003 0.002578 -0.244381
17  0.806009 -0.349040 1.321248  -1.222694 -0.679188 -0.788867
18  1.789820 -0.000003 -0.000019  0.000011 -0.000024 0.228523
19  1.207014 -0.000015 -0.000042  0.000002 -0.000008 0.362856
20  5.740638 0.000389 -0.000699  0.003123 0.000003 0.000063
21  11.481261 0.000219 -0.000826  0.004954 0.000185 -0.001487
22  6.027524 -0.000330 0.000200  0.059585 -2.453119 -2.193916
23  0.000000 11.692099 -0.000007  -0.043310 -0.000838 -0.036607
24  0.000004 0.000008 0.000001  0.868996 -0.000031 1.570739
25  -0.000000 -0.000011 -0.000000  0.868960 0.000002 1.570712
26  2.033355 1.000772 -1.937609  1.473126 1.855076 -0.198632
27  6.027509 -0.000258 -0.000228  1.639675 -0.005935 -0.586606
28  11.691992 0.000194 0.000861  -0.000046 -0.000001 -0.056062
29  11.481178 0.000098 0.000827  -1.565089 0.106509 0.042007
30  3.859439 -0.132758 1.193065  0.466290 -0.158048 -0.878822
31  1.312557 0.000023 -0.000000  0.000013 -0.000043 -0.439709
32  0.729346 0.000066 -0.000027  -0.000023 -0.000019 -0.244286
33  3.942047 0.050141 0.431000  0.150091 -0.079181 -0.810189
34  1.539094 0.000005 -0.000000  0.000009 -0.000007 -0.247824
35  1.196299 0.000074 -0.000003  -0.000007 -0.000009 -0.430781
36  3.883414 -0.050470 -0.431084  -0.085915 -0.026392 -0.587660
37  1.719565 -0.000087 -0.000004  -0.000006 -0.007962 -0.366486
38  1.209198 0.000036 0.000011  0.000002 -0.004461 -0.216413
39  3.859589 -0.149081 -1.331321  -0.354445 0.038578 -0.531955
40  1.719414 -0.000098 -0.000036  -0.000030 -0.006584 -0.363030
41  1.099673 0.000026 0.000007  0.000004 -0.004188 -0.244347
42  0.805984 -0.359846 -1.318338  1.221444 0.673631 -0.793558
43  1.789779 -0.000009 -0.000044  -0.000028 0.000031 0.228553
44  1.206997 -0.000008 0.000005  -0.000017 0.000020 0.362910
45  5.740571 0.000079 0.000724  0.002082 -0.000014 0.000028
46  11.481178 0.000092 0.000935  -0.000021 -0.000087 -0.001749
47  6.027516 -0.000273 -0.000228  0.007375 -0.632954 -2.161838
48  0.000001 11.691978 -0.000006  -0.042810 0.000798 0.036188
49  0.000004 -0.000001 0.000000  2.272571 -0.000036 1.570860
50  -0.000007 -0.000014 0.000005  2.272645 -0.000036 1.570861
51  -22.676567 -0.984331 -17.554111  -1.605366 2.379717 -0.041994
52  0.000001 0.000002 -0.000000  0.008153 -0.000259 0.000009
53  -0.000000 -0.000001 0.000000  1.565115 0.043565 -0.106862
54  22.676517 -0.984221 -17.554199  1.605712 0.761853 0.042358
55  0.000001 -0.000003 -0.000000  0.000000 -0.000001 -0.000002
56  0.000032 0.000027 0.000001  -1.571901 -0.044449 -0.106509
57  15.265023 8.339654 -8.787539  1.570796 -0.000000 0.000000
58  -15.265000 8.339654 -8.787539  1.570796 -0.000000 0.000000
59  1.941978 -1.346989 1.821586  1.570796 -0.000000 0.000000
60  -0.004311 0.001230 -0.000371  0.006898 -0.005534 -0.284229
61  -1.937603 -1.346625 1.822824  1.570796 -0.000000 0.000000
62  0.000000 0.000000 0.000000  -0.078727 -3.136056 0.284226
63  0.000000 0.000000 0.000000  1.570796 -0.000000 0.000000
64  -3.534368 -10.111034 -2.851932  1.570796 -0.000000 0.000000
65  -0.143794 1.243191 1.790707  0.000000 -0.000000 0.000000
66  0.000001 2.431489 11.900957  0.000000 -0.000000 0.000000
67  0.151288 0.906791 4.692154  0.000000 -0.000000 0.000000
68  -0.151288 1.013638 -0.467878  0.000000 -0.000000 0.000000
69  0.000000 -0.000000 2.081793  0.000000 -0.000000 0.000000
70  0.000000 0.884824 2.687938  0.000000 -0.000000 0.000000
71  0.299800 1.920429 2.128872  0.000000 -0.000000 0.000000
72  -3.535433 -13.118125 -0.421628  1.570796 -0.000000 0.000000
73  -3.099609 -13.118127 -0.679613  1.570796 -0.000000 0.000000
74  -3.102738 -13.118127 -1.178184  1.570796 -0.000000 0.000000
75  -3.534845 -13.118125 -1.432538  1.570796 -0.000000 0.000000
76  -3.968438 -13.118125 -1.178268  1.570796 -0.000000 0.000000
77  -3.970815 -13.118125 -0.680112  1.570796 -0.000000 0.000000
78  -1.363209 -12.825721 -0.927084  1.570796 -0.000000 0.000000
end
triangles
gun_tex
0  -3.315961 -12.029912 -2.087938  -0.000003 -0.900440 0.434981  0.076842 0.731139 1 64 1.000000
0  -3.091093 -11.840424 -1.695685  -0.000003 -0.900440 0.434981  0.076842 0.731139 1 64 1.000000
0  -3.315961 -11.840423 -1.695685  -0.000003 -0.900440 0.434981  0.076842 0.731139 1 64 1.000000
gun_tex
0  -3.315961 -12.086958 -2.580569  0.000000 -0.993362 0.115030  0.076842 0.731139 1 64 1.000000
0  -3.091093 -12.029912 -2.087938  0.000000 -0.993362 0.115030  0.076842 0.731139 1 64 1.000000
0  -3.315961 -12.029912 -2.087938  0.000000 -0.993362 0.115030  0.076842 0.731139 1 64 1.000000
gun_tex
0  -3.769184 -11.308086 -5.055886  -0.595769 -0.784478 0.172203  0.076842 0.731139 1 64 1.000000
0  -3.977643 -11.022914 -4.477980  -0.595769 -0.784478 0.172203  0.076842 0.731139 1 64 1.000000
0  -3.977642 -11.150354 -5.058533  -0.595769 -0.784478 0.172203  0.076842 0.731139 1 64 1.000000
gun_tex
0  -3.248435 -10.207482 -2.002369  0.679561 0.599416 0.422963  0.076842 0.731139 1 64 1.000000
0  -3.091094 -10.088912 -2.423200  0.679561 0.599416 0.422963  0.076842 0.731139 1 64 1.000000
0  -3.248435 -9.912145 -2.420915  0.679561 0.599416 0.422963  0.076842 0.731139 1 64 1.000000
gun_tex
0  -3.091093 -11.840424 -1.695685  -0.000003 -0.720600 0.693351  0.076842 0.731139 1 64 1.000000
0  -3.315961 -11.523934 -1.366757  -0.000003 -0.720600 0.693351  0.076842 0.731139 1 64 1.000000
0  -3.315961 -11.840423 -1.695685  -0.000003 -0.720600 0.693351  0.076842 0.731139 1 64 1.000000
gun_tex
0  -3.977643 -9.661309 -3.184228  -0.812387 0.559393 0.164643  0.076842 0.731139 1 64 1.000000
0  -3.820301 -9.116117 -4.260207  -0.812387 0.559393 0.164643  0.076842 0.731139 1 64 1.000000
0  -3.977643 -9.090439 -5.123816  -0.812387 0.559393 0.164643  0.076842 0.731139 1 64 1.000000
gun_tex
0  -3.248436 -10.336061 -1.764724  0.738473 0.593045 0.320866  0.076842 0.731139 1 64 1.000000
0  -3.091093 -10.372731 -2.059067  0.738473 0.593045 0.320866  0.076842 0.731139 1 64 1.000000
0  -3.248435 -10.207482 -2.002369  0.738473 0.593045 0.320866  0.076842 0.731139 1 64 1.000000
gun_tex
0  -3.654597 -11.129365 -4.155609  0.000000 -0.999115 0.042058  0.076842 0.731139 1 64 1.000000
0  -3.769184 -11.097407 -3.396464  0.000000 -0.999115 0.042058  0.076842 0.731139 1 64 1.000000
0  -3.769184 -11.129365 -4.155609  0.000000 -0.999115 0.042058  0.076842 0.731139 1 64 1.000000
gun_tex
0  -3.299552 -11.492140 -2.836393  0.468392 -0.103209 -0.877472  0.076842 0.731139 1 64 1.000000
0  -3.091093 -11.860302 -2.681815  0.468392 -0.103209 -0.877472  0.076842 0.731139 1 64 1.000000
0  -3.299552 -11.866429 -2.792369  0.468392 -0.103209 -0.877472  0.076842 0.731139 1 64 1.000000
gun_tex
0  -3.820301 -10.207482 -2.002369  -0.724098 0.543976 0.423997  0.076842 0.731139 1 64 1.000000
0  -3.977643 -10.088913 -2.423200  -0.724098 0.543976 0.423997  0.076842 0.731139 1 64 1.000000
0  -3.977642 -10.372731 -2.059067  -0.724098 0.543976 0.423997  0.076842 0.731139 1 64 1.000000
gun_tex
0  -3.091094 -9.661309 -3.184228  0.702306 0.620619 0.348710  0.076842 0.731139 1 64 1.000000
0  -3.248435 -9.912145 -2.420915  0.702306 0.620619 0.348710  0.076842 0.731139 1 64 1.000000
0  -3.091094 -10.088912 -2.423200  0.702306 0.620619 0.348710  0.076842 0.731139 1 64 1.000000
gun_tex
0  -3.393486 -10.628020 -1.241732  0.000000 0.644178 0.764876  0.076842 0.731139 1 64 1.000000
0  -3.248435 -10.491220 -1.356945  0.000000 0.644178 0.764876  0.076842 0.731139 1 64 1.000000
0  -3.393486 -10.491220 -1.356945  0.000000 0.644178 0.764876  0.076842 0.731139 1 64 1.000000
gun_tex
0  -3.091094 -10.483475 -1.747862  0.482437 0.850132 0.211021  0.076842 0.731139 1 64 1.000000
0  -3.248435 -10.491220 -1.356945  0.482437 0.850132 0.211021  0.076842 0.731139 1 64 1.000000
0  -3.091094 -10.568450 -1.405530  0.482437 0.850132 0.211021  0.076842 0.731139 1 64 1.000000
gun_tex
0  -3.315961 -11.523934 -1.366757  0.000000 -0.345085 0.938571  0.076842 0.731139 1 64 1.000000
0  -3.091093 -11.010838 -1.178108  0.000000 -0.345085 0.938571  0.076842 0.731139 1 64 1.000000
0  -3.315961 -11.010838 -1.178108  0.000000 -0.345085 0.938571  0.076842 0.731139 1 64 1.000000
gun_tex
0  -3.418671 -11.097407 -3.396463  0.000000 -0.945409 -0.325886  0.076842 0.731139 1 64 1.000000
0  -3.299552 -11.220095 -3.040545  0.000000 -0.945409 -0.325886  0.076842 0.731139 1 64 1.000000
0  -3.418671 -11.220095 -3.040545  0.000000 -0.945409 -0.325886  0.076842 0.731139 1 64 1.000000
gun_tex
0  -3.680769 -9.116117 -4.260207  0.000000 0.944941 0.327242  0.076842 0.731139 1 64 1.000000
0  -3.820301 -9.495378 -3.165064  0.000000 0.944941 0.327242  0.076842 0.731139 1 64 1.000000
0  -3.680769 -9.495378 -3.165064  0.000000 0.944941 0.327242  0.076842 0.731139 1 64 1.000000
gun_tex
0  -3.299552 -11.866429 -2.792369  0.477516 0.371586 -0.796180  0.076842 0.731139 1 64 1.000000
0  -3.091093 -12.062928 -2.759051  0.477516 0.371586 -0.796180  0.076842 0.731139 1 64 1.000000
0  -3.299552 -12.013000 -2.860775  0.477516 0.371586 -0.796180  0.076842 0.731139 1 64 1.000000
gun_tex
0  -3.820300 -10.336061 -1.764724  -0.738473 0.593045 0.320866  0.076842 0.731139 1 64 1.000000
0  -3.820301 -10.207482 -2.002369  -0.738473 0.593045 0.320866  0.076842 0.731139 1 64 1.000000
0  -3.977642 -10.372731 -2.059067  -0.738473 0.593045 0.320866  0.076842 0.731139 1 64 1.000000
gun_tex
0  -3.248436 -9.116117 -4.260207  0.000000 0.974192 0.225721  0.076842 0.731139 1 64 1.000000
0  -3.393486 -8.915297 -5.126932  0.000000 0.974192 0.225721  0.076842 0.731139 1 64 1.000000
0  -3.393486 -9.116117 -4.260207  0.000000 0.974192 0.225721  0.076842 0.731139 1 64 1.000000
gun_tex
0  -3.299552 -11.308086 -5.055886  0.625649 -0.765173 0.151902  0.076842 0.731139 1 64 1.000000
0  -3.091093 -11.022914 -4.477981  0.625649 -0.765173 0.151902  0.076842 0.731139 1 64 1.000000
0  -3.299552 -11.129365 -4.155609  0.625649 -0.765173 0.151902  0.076842 0.731139 1 64 1.000000
gun_tex
0  -3.091094 -10.483475 -1.747862  0.642088 0.716515 0.272635  0.076842 0.731139 1 64 1.000000
0  -3.248436 -10.336061 -1.764724  0.642088 0.716515 0.272635  0.076842 0.731139 1 64 1.000000
0  -3.248435 -10.491220 -1.356945  0.642088 0.716515 0.272635  0.076842 0.731139 1 64 1.000000
gun_tex
0  -3.977642 -10.483476 -1.747862  -0.646210 0.718991 0.255860  0.076842 0.731139 1 64 1.000000
0  -3.820300 -10.336061 -1.764724  -0.646210 0.718991 0.255860  0.076842 0.731139 1 64 1.000000
0  -3.977642 -10.372731 -2.059067  -0.646210 0.718991 0.255860  0.076842 0.731139 1 64 1.000000
gun_tex
0  -3.091094 -9.090439 -5.123816  0.733739 0.661897 0.153362  0.076842 0.731139 1 64 1.000000
0  -3.248435 -8.915297 -5.126932  0.733739 0.661897 0.153362  0.076842 0.731139 1 64 1.000000
0  -3.248436 -9.116117 -4.260207  0.733739 0.661897 0.153362  0.076842 0.731139 1 64 1.000000
gun_tex
0  -3.977643 -11.058574 -3.045718  -0.586673 -0.765615 -0.263909  0.076842 0.731139 1 64 1.000000
0  -3.769184 -11.097407 -3.396464  -0.586673 -0.765615 -0.263909  0.076842 0.731139 1 64 1.000000
0  -3.769183 -11.220095 -3.040544  -0.586673 -0.765615 -0.263909  0.076842 0.731139 1 64 1.000000
gun_tex
0  -3.091093 -11.058574 -3.045718  0.590104 -0.762131 -0.266334  0.076842 0.731139 1 64 1.000000
0  -3.299552 -11.097407 -3.396463  0.590104 -0.762131 -0.266334  0.076842 0.731139 1 64 1.000000
0  -3.091093 -10.938958 -3.388005  0.590104 -0.762131 -0.266334  0.076842 0.731139 1 64 1.000000
gun_tex
0  -3.769184 -11.866429 -2.792369  -0.436448 0.320466 -0.840723  0.076842 0.731139 1 64 1.000000
0  -3.977643 -12.062928 -2.759052  -0.436448 0.320466 -0.840723  0.076842 0.731139 1 64 1.000000
0  -3.977643 -11.860302 -2.681815  -0.436448 0.320466 -0.840723  0.076842 0.731139 1 64 1.000000
gun_tex
0  -3.769184 -11.129365 -4.155609  0.000000 -0.980859 0.194717  0.076842 0.731139 1 64 1.000000
0  -3.654596 -11.308086 -5.055885  0.000000 -0.980859 0.194717  0.076842 0.731139 1 64 1.000000
0  -3.654597 -11.129365 -4.155609  0.000000 -0.980859 0.194717  0.076842 0.731139 1 64 1.000000
gun_tex
0  -3.091093 -11.437639 -2.737408  0.425104 -0.571132 -0.702207  0.076842 0.731139 1 64 1.000000
0  -3.299552 -11.220095 -3.040545  0.425104 -0.571132 -0.702207  0.076842 0.731139 1 64 1.000000
0  -3.091093 -11.058574 -3.045718  0.425104 -0.571132 -0.702207  0.076842 0.731139 1 64 1.000000
gun_tex
0  -3.977643 -9.661309 -3.184228  -0.699794 0.623254 0.349059  0.076842 0.731139 1 64 1.000000
0  -3.820301 -9.912145 -2.420915  -0.699794 0.623254 0.349059  0.076842 0.731139 1 64 1.000000
0  -3.820301 -9.495378 -3.165064  -0.699794 0.623254 0.349059  0.076842 0.731139 1 64 1.000000
gun_tex
0  -3.248435 -9.912145 -2.420915  0.000000 0.872485 0.488641  0.076842 0.731139 1 64 1.000000
0  -3.393486 -9.495378 -3.165064  0.000000 0.872485 0.488641  0.076842 0.731139 1 64 1.000000
0  -3.393486 -9.912145 -2.420915  0.000000 0.872485 0.488641  0.076842 0.731139 1 64 1.000000
gun_tex
0  -3.299552 -12.013000 -2.860775  -0.169756 -0.976673 -0.131506  0.076842 0.731139 1 64 1.000000
0  -3.091093 -12.062928 -2.759051  -0.169756 -0.976673 -0.131506  0.076842 0.731139 1 64 1.000000
0  -3.091093 -12.086958 -2.580569  -0.169756 -0.976673 -0.131506  0.076842 0.731139 1 64 1.000000
gun_tex
0  -3.091094 -9.090439 -5.123816  0.007176 -0.031675 -0.999472  0.076842 0.731139 1 64 1.000000
0  -3.091093 -11.150354 -5.058533  0.007176 -0.031675 -0.999472  0.076842 0.731139 1 64 1.000000
0  -3.418671 -11.308086 -5.055886  0.007176 -0.031675 -0.999472  0.076842 0.731139 1 64 1.000000
gun_tex
0  -3.091093 -12.029912 -2.087938  1.000000 -0.000001 0.000000  0.076842 0.731139 1 64 1.000000
0  -3.091093 -12.086958 -2.580569  1.000000 -0.000001 0.000000  0.076842 0.731139 1 64 1.000000
0  -3.091093 -11.860302 -2.681815  1.000000 -0.000001 0.000000  0.076842 0.731139 1 64 1.000000
gun_tex
0  -3.820300 -10.628021 -1.241732  -0.494565 0.548206 0.674445  0.076842 0.731139 1 64 1.000000
0  -3.977642 -10.568450 -1.405530  -0.494565 0.548206 0.674445  0.076842 0.731139 1 64 1.000000
0  -3.977642 -10.727058 -1.276609  -0.494565 0.548206 0.674445  0.076842 0.731139 1 64 1.000000
gun_tex
0  -3.977643 -9.661309 -3.184228  -1.000000 -0.000001 0.000000  0.076842 0.731139 1 64 1.000000
0  -3.977643 -11.022914 -4.477980  -1.000000 -0.000001 0.000000  0.076842 0.731139 1 64 1.000000
0  -3.977643 -10.938958 -3.388005  -1.000000 -0.000001 0.000000  0.076842 0.731139 1 64 1.000000
gun_tex
0  -3.418671 -11.866429 -2.792369  0.000000 0.422911 -0.906171  0.076842 0.731139 1 64 1.000000
0  -3.299552 -12.013000 -2.860775  0.000000 0.422911 -0.906171  0.076842 0.731139 1 64 1.000000
0  -3.418671 -12.013000 -2.860775  0.000000 0.422911 -0.906171  0.076842 0.731139 1 64 1.000000
gun_tex
0  -3.091093 -11.022914 -4.477981  0.531773 -0.844386 0.065039  0.076842 0.731139 1 64 1.000000
0  -3.091093 -10.938958 -3.388005  0.531773 -0.844386 0.065039  0.076842 0.731139 1 64 1.000000
0  -3.299552 -11.129365 -4.155609  0.531773 -0.844386 0.065039  0.076842 0.731139 1 64 1.000000
gun_tex
0  -3.091093 -10.938958 -3.388005  0.603930 -0.796332 0.033523  0.076842 0.731139 1 64 1.000000
0  -3.299552 -11.097407 -3.396463  0.603930 -0.796332 0.033523  0.076842 0.731139 1 64 1.000000
0  -3.299552 -11.129365 -4.155609  0.603930 -0.796332 0.033523  0.076842 0.731139 1 64 1.000000
gun_tex
0  -3.248435 -10.628020 -1.241732  0.483507 0.563872 0.669529  0.076842 0.731139 1 64 1.000000
0  -3.091094 -10.568450 -1.405530  0.483507 0.563872 0.669529  0.076842 0.731139 1 64 1.000000
0  -3.248435 -10.491220 -1.356945  0.483507 0.563872 0.669529  0.076842 0.731139 1 64 1.000000
gun_tex
0  -3.769184 -11.097407 -3.396464  -0.603930 -0.796332 0.033523  0.076842 0.731139 1 64 1.000000
0  -3.977643 -10.938958 -3.388005  -0.603930 -0.796332 0.033523  0.076842 0.731139 1 64 1.000000
0  -3.769184 -11.129365 -4.155609  -0.603930 -0.796332 0.033523  0.076842 0.731139 1 64 1.000000
gun_tex
0  -3.977643 -10.938958 -3.388005  -0.531771 -0.844387 0.065039  0.076842 0.731139 1 64 1.000000
0  -3.977643 -11.022914 -4.477980  -0.531771 -0.844387 0.065039  0.076842 0.731139 1 64 1.000000
0  -3.769184 -11.129365 -4.155609  -0.531771 -0.844387 0.065039  0.076842 0.731139 1 64 1.000000
gun_tex
0  -3.769184 -11.492140 -2.836392  -0.450696 -0.116412 -0.885054  0.076842 0.731139 1 64 1.000000
0  -3.977643 -11.860302 -2.681815  -0.450696 -0.116412 -0.885054  0.076842 0.731139 1 64 1.000000
0  -3.977643 -11.437639 -2.737408  -0.450696 -0.116412 -0.885054  0.076842 0.731139 1 64 1.000000
gun_tex
0  -3.091093 -11.010838 -1.178108  0.383945 0.302783 0.872301  0.076842 0.731139 1 64 1.000000
0  -3.091094 -10.727058 -1.276609  0.383945 0.302783 0.872301  0.076842 0.731139 1 64 1.000000
0  -3.248435 -10.628020 -1.241732  0.383945 0.302783 0.872301  0.076842 0.731139 1 64 1.000000
gun_tex
0  -3.820300 -10.628021 -1.241732  -0.383944 0.302783 0.872301  0.076842 0.731139 1 64 1.000000
0  -3.977642 -10.727058 -1.276609  -0.383944 0.302783 0.872301  0.076842 0.731139 1 64 1.000000
0  -3.977642 -11.010838 -1.178108  -0.383944 0.302783 0.872301  0.076842 0.731139 1 64 1.000000
gun_tex
0  -3.977643 -11.437639 -2.737408  -0.472910 -0.528862 -0.704742  0.076842 0.731139 1 64 1.000000
0  -3.769183 -11.220095 -3.040544  -0.472910 -0.528862 -0.704742  0.076842 0.731139 1 64 1.000000
0  -3.769184 -11.492140 -2.836392  -0.472910 -0.528862 -0.704742  0.076842 0.731139 1 64 1.000000
gun_tex
0  -3.977643 -12.086958 -2.580570  0.169760 -0.976674 -0.131492  0.076842 0.731139 1 64 1.000000
0  -3.977643 -12.062928 -2.759052  0.169760 -0.976674 -0.131492  0.076842 0.731139 1 64 1.000000
0  -3.769184 -12.013000 -2.860775  0.169760 -0.976674 -0.131492  0.076842 0.731139 1 64 1.000000
gun_tex
0  -3.418671 -11.866429 -2.792369  0.000000 -0.116816 -0.993154  0.076842 0.731139 1 64 1.000000
0  -3.299552 -11.492140 -2.836393  0.000000 -0.116816 -0.993154  0.076842 0.731139 1 64 1.000000
0  -3.299552 -11.866429 -2.792369  0.000000 -0.116816 -0.993154  0.076842 0.731139 1 64 1.000000
gun_tex
0  -3.393486 -10.491220 -1.356945  0.000000 0.934628 0.355627  0.076842 0.731139 1 64 1.000000
0  -3.248436 -10.336061 -1.764724  0.000000 0.934628 0.355627  0.076842 0.731139 1 64 1.000000
0  -3.393486 -10.336061 -1.764724  0.000000 0.934628 0.355627  0.076842 0.731139 1 64 1.000000
gun_tex
0  -3.315961 -12.086958 -2.580569  0.000000 -0.966888 -0.255201  0.076842 0.731139 1 64 1.000000
0  -3.299552 -12.013000 -2.860775  0.000000 -0.966888 -0.255201  0.076842 0.731139 1 64 1.000000
0  -3.091093 -12.086958 -2.580569  0.000000 -0.966888 -0.255201  0.076842 0.731139 1 64 1.000000
gun_tex
0  -3.393486 -10.207482 -2.002369  0.000000 0.817066 0.576544  0.076842 0.731139 1 64 1.000000
0  -3.248435 -9.912145 -2.420915  0.000000 0.817066 0.576544  0.076842 0.731139 1 64 1.000000
0  -3.393486 -9.912145 -2.420915  0.000000 0.817066 0.576544  0.076842 0.731139 1 64 1.000000
gun_tex
0  -3.654597 -11.492140 -2.836393  0.000000 -0.600218 -0.799837  0.076842 0.731139 1 64 1.000000
0  -3.769183 -11.220095 -3.040544  0.000000 -0.600218 -0.799837  0.076842 0.731139 1 64 1.000000
0  -3.654597 -11.220095 -3.040545  0.000000 -0.600218 -0.799837  0.076842 0.731139 1 64 1.000000
gun_tex
0  -3.820300 -10.628021 -1.241732  0.000000 0.163952 0.986468  0.076842 0.731139 1 64 1.000000
0  -3.761330 -11.010838 -1.178108  0.000000 0.163952 0.986468  0.076842 0.731139 1 64 1.000000
0  -3.680769 -10.628021 -1.241732  0.000000 0.163952 0.986468  0.076842 0.731139 1 64 1.000000
gun_tex
0  -3.977642 -10.483476 -1.747862  -0.482437 0.850134 0.211014  0.076842 0.731139 1 64 1.000000
0  -3.977642 -10.568450 -1.405530  -0.482437 0.850134 0.211014  0.076842 0.731139 1 64 1.000000
0  -3.820300 -10.491220 -1.356945  -0.482437 0.850134 0.211014  0.076842 0.731139 1 64 1.000000
gun_tex
0  -3.393486 -10.336061 -1.764724  0.000000 0.879518 0.475865  0.076842 0.731139 1 64 1.000000
0  -3.248435 -10.207482 -2.002369  0.000000 0.879518 0.475865  0.076842 0.731139 1 64 1.000000
0  -3.393486 -10.207482 -2.002369  0.000000 0.879518 0.475865  0.076842 0.731139 1 64 1.000000
gun_tex
0  -3.680769 -10.336061 -1.764724  -0.000000 0.879519 0.475863  0.076842 0.731139 1 64 1.000000
0  -3.393486 -10.207482 -2.002369  -0.000000 0.879519 0.475863  0.076842 0.731139 1 64 1.000000
0  -3.680769 -10.207482 -2.002369  -0.000000 0.879519 0.475863  0.076842 0.731139 1 64 1.000000
gun_tex
0  -3.248435 -10.628020 -1.241732  0.000000 0.163951 0.986468  0.076842 0.731139 1 64 1.000000
0  -3.315961 -11.010838 -1.178108  0.000000 0.163951 0.986468  0.076842 0.731139 1 64 1.000000
0  -3.091093 -11.010838 -1.178108  0.000000 0.163951 0.986468  0.076842 0.731139 1 64 1.000000
gun_tex
0  -3.299552 -11.492140 -2.836393  0.000000 -0.600222 -0.799833  0.076842 0.731139 1 64 1.000000
0  -3.418671 -11.220095 -3.040545  0.000000 -0.600222 -0.799833  0.076842 0.731139 1 64 1.000000
0  -3.299552 -11.220095 -3.040545  0.000000 -0.600222 -0.799833  0.076842 0.731139 1 64 1.000000
gun_tex
0  -3.680769 -10.207482 -2.002369  0.000000 0.817065 0.576546  0.076842 0.731139 1 64 1.000000
0  -3.393486 -9.912145 -2.420915  0.000000 0.817065 0.576546  0.076842 0.731139 1 64 1.000000
0  -3.680769 -9.912145 -2.420915  0.000000 0.817065 0.576546  0.076842 0.731139 1 64 1.000000
gun_tex
0  -3.654597 -12.013000 -2.860775  0.000002 -0.966889 -0.255198  0.076842 0.731139 1 64 1.000000
0  -3.315961 -12.086958 -2.580569  0.000002 -0.966889 -0.255198  0.076842 0.731139 1 64 1.000000
0  -3.761330 -12.086959 -2.580570  0.000002 -0.966889 -0.255198  0.076842 0.731139 1 64 1.000000
gun_tex
0  -3.680769 -10.336061 -1.764724  0.000000 0.934628 0.355628  0.076842 0.731139 1 64 1.000000
0  -3.393486 -10.491220 -1.356945  0.000000 0.934628 0.355628  0.076842 0.731139 1 64 1.000000
0  -3.393486 -10.336061 -1.764724  0.000000 0.934628 0.355628  0.076842 0.731139 1 64 1.000000
gun_tex
0  -3.654597 -11.866429 -2.792369  0.000000 -0.116815 -0.993154  0.076842 0.731139 1 64 1.000000
0  -3.418672 -11.492140 -2.836393  0.000000 -0.116815 -0.993154  0.076842 0.731139 1 64 1.000000
0  -3.418671 -11.866429 -2.792369  0.000000 -0.116815 -0.993154  0.076842 0.731139 1 64 1.000000
gun_tex
0  -3.654597 -11.866429 -2.792369  0.000002 0.422912 -0.906171  0.076842 0.731139 1 64 1.000000
0  -3.418671 -12.013000 -2.860775  0.000002 0.422912 -0.906171  0.076842 0.731139 1 64 1.000000
0  -3.654597 -12.013000 -2.860775  0.000002 0.422912 -0.906171  0.076842 0.731139 1 64 1.000000
gun_tex
0  -3.654596 -11.308086 -5.055885  0.000000 -0.029679 -0.999559  0.076842 0.731139 1 64 1.000000
0  -3.393486 -8.915297 -5.126932  0.000000 -0.029679 -0.999559  0.076842 0.731139 1 64 1.000000
0  -3.418671 -11.308086 -5.055886  0.000000 -0.029679 -0.999559  0.076842 0.731139 1 64 1.000000
gun_tex
0  -3.680769 -9.912145 -2.420915  0.000000 0.872483 0.488644  0.076842 0.731139 1 64 1.000000
0  -3.393486 -9.495378 -3.165064  0.000000 0.872483 0.488644  0.076842 0.731139 1 64 1.000000
0  -3.680769 -9.495378 -3.165064  0.000000 0.872483 0.488644  0.076842 0.731139 1 64 1.000000
gun_tex
0  -3.418671 -11.129365 -4.155609  0.000000 -0.980859 0.194717  0.076842 0.731139 1 64 1.000000
0  -3.299552 -11.308086 -5.055886  0.000000 -0.980859 0.194717  0.076842 0.731139 1 64 1.000000
0  -3.299552 -11.129365 -4.155609  0.000000 -0.980859 0.194717  0.076842 0.731139 1 64 1.000000
gun_tex
0  -3.393486 -9.116117 -4.260207  0.000000 0.974192 0.225721  0.076842 0.731139 1 64 1.000000
0  -3.680769 -8.915297 -5.126932  0.000000 0.974192 0.225721  0.076842 0.731139 1 64 1.000000
0  -3.680769 -9.116117 -4.260207  0.000000 0.974192 0.225721  0.076842 0.731139 1 64 1.000000
gun_tex
0  -3.248436 -9.116117 -4.260207  0.000000 0.944940 0.327244  0.076842 0.731139 1 64 1.000000
0  -3.393486 -9.495378 -3.165064  0.000000 0.944940 0.327244  0.076842 0.731139 1 64 1.000000
0  -3.248436 -9.495378 -3.165064  0.000000 0.944940 0.327244  0.076842 0.731139 1 64 1.000000
gun_tex
0  -3.418671 -11.097407 -3.396463  0.000000 -0.945410 -0.325882  0.076842 0.731139 1 64 1.000000
0  -3.654597 -11.220095 -3.040545  0.000000 -0.945410 -0.325882  0.076842 0.731139 1 64 1.000000
0  -3.654597 -11.097407 -3.396464  0.000000 -0.945410 -0.325882  0.076842 0.731139 1 64 1.000000
gun_tex
0  -3.761330 -11.523934 -1.366757  0.000000 1.000000 0.000000  0.076842 0.731139 1 64 1.000000
0  -3.315961 -11.523934 -2.200960  0.000000 1.000000 0.000000  0.076842 0.731139 1 64 1.000000
0  -3.761330 -11.523934 -2.200961  0.000000 1.000000 0.000000  0.076842 0.731139 1 64 1.000000
gun_tex
0  -3.680769 -10.628021 -1.241732  0.000000 0.644173 0.764880  0.076842 0.731139 1 64 1.000000
0  -3.393486 -10.491220 -1.356945  0.000000 0.644173 0.764880  0.076842 0.731139 1 64 1.000000
0  -3.680769 -10.491220 -1.356945  0.000000 0.644173 0.764880  0.076842 0.731139 1 64 1.000000
gun_tex
0  -3.299552 -11.129365 -4.155609  0.000000 -0.999115 0.042058  0.076842 0.731139 1 64 1.000000
0  -3.418671 -11.097407 -3.396463  0.000000 -0.999115 0.042058  0.076842 0.731139 1 64 1.000000
0  -3.418671 -11.129365 -4.155609  0.000000 -0.999115 0.042058  0.076842 0.731139 1 64 1.000000
gun_tex
0  -3.315961 -11.840423 -1.695685  0.000000 -0.720602 0.693349  0.076842 0.731139 1 64 1.000000
0  -3.761330 -11.523934 -1.366757  0.000000 -0.720602 0.693349  0.076842 0.731139 1 64 1.000000
0  -3.761330 -11.840423 -1.695685  0.000000 -0.720602 0.693349  0.076842 0.731139 1 64 1.000000
gun_tex
0  -3.761330 -12.086959 -2.580570  0.000000 -0.993362 0.115031  0.076842 0.731139 1 64 1.000000
0  -3.315961 -12.029912 -2.087938  0.000000 -0.993362 0.115031  0.076842 0.731139 1 64 1.000000
0  -3.761330 -12.029912 -2.087938  0.000000 -0.993362 0.115031  0.076842 0.731139 1 64 1.000000
gun_tex
0  -3.761330 -12.029912 -2.087938  0.000000 -0.900438 0.434983  0.076842 0.731139 1 64 1.000000
0  -3.315961 -11.840423 -1.695685  0.000000 -0.900438 0.434983  0.076842 0.731139 1 64 1.000000
0  -3.761330 -11.840423 -1.695685  0.000000 -0.900438 0.434983  0.076842 0.731139 1 64 1.000000
gun_tex
0  -3.977642 -11.840423 -1.695685  0.000000 -0.900438 0.434984  0.076842 0.731139 1 64 1.000000
0  -3.761330 -12.029912 -2.087938  0.000000 -0.900438 0.434984  0.076842 0.731139 1 64 1.000000
0  -3.761330 -11.840423 -1.695685  0.000000 -0.900438 0.434984  0.076842 0.731139 1 64 1.000000
gun_tex
0  -3.977642 -12.029912 -2.087938  0.000000 -0.993362 0.115028  0.076842 0.731139 1 64 1.000000
0  -3.761330 -12.086959 -2.580570  0.000000 -0.993362 0.115028  0.076842 0.731139 1 64 1.000000
0  -3.761330 -12.029912 -2.087938  0.000000 -0.993362 0.115028  0.076842 0.731139 1 64 1.000000
gun_tex
0  -3.761330 -11.840423 -1.695685  0.000000 -0.720601 0.693350  0.076842 0.731139 1 64 1.000000
0  -3.977642 -11.523934 -1.366757  0.000000 -0.720601 0.693350  0.076842 0.731139 1 64 1.000000
0  -3.977642 -11.840423 -1.695685  0.000000 -0.720601 0.693350  0.076842 0.731139 1 64 1.000000
gun_tex
0  -3.820300 -10.628021 -1.241732  0.000000 0.644175 0.764878  0.076842 0.731139 1 64 1.000000
0  -3.680769 -10.491220 -1.356945  0.000000 0.644175 0.764878  0.076842 0.731139 1 64 1.000000
0  -3.820300 -10.491220 -1.356945  0.000000 0.644175 0.764878  0.076842 0.731139 1 64 1.000000
gun_tex
0  -3.977642 -11.523934 -1.366757  0.000000 -0.345084 0.938572  0.076842 0.731139 1 64 1.000000
0  -3.761330 -11.010838 -1.178108  0.000000 -0.345084 0.938572  0.076842 0.731139 1 64 1.000000
0  -3.977642 -11.010838 -1.178108  0.000000 -0.345084 0.938572  0.076842 0.731139 1 64 1.000000
gun_tex
0  -3.769184 -11.097407 -3.396464  0.000000 -0.945409 -0.325887  0.076842 0.731139 1 64 1.000000
0  -3.654597 -11.220095 -3.040545  0.000000 -0.945409 -0.325887  0.076842 0.731139 1 64 1.000000
0  -3.769183 -11.220095 -3.040544  0.000000 -0.945409 -0.325887  0.076842 0.731139 1 64 1.000000
gun_tex
0  -3.820301 -9.116117 -4.260207  0.000000 0.974192 0.225722  0.076842 0.731139 1 64 1.000000
0  -3.680769 -8.915297 -5.126932  0.000000 0.974192 0.225722  0.076842 0.731139 1 64 1.000000
0  -3.820301 -8.915297 -5.126932  0.000000 0.974192 0.225722  0.076842 0.731139 1 64 1.000000
gun_tex
0  -3.680769 -9.912145 -2.420915  0.000000 0.872484 0.488643  0.076842 0.731139 1 64 1.000000
0  -3.820301 -9.495378 -3.165064  0.000000 0.872484 0.488643  0.076842 0.731139 1 64 1.000000
0  -3.820301 -9.912145 -2.420915  0.000000 0.872484 0.488643  0.076842 0.731139 1 64 1.000000
gun_tex
0  -3.680769 -8.915297 -5.126932  0.006973 -0.029602 -0.999537  0.076842 0.731139 1 64 1.000000
0  -3.654596 -11.308086 -5.055885  0.006973 -0.029602 -0.999537  0.076842 0.731139 1 64 1.000000
0  -3.977643 -9.090439 -5.123816  0.006973 -0.029602 -0.999537  0.076842 0.731139 1 64 1.000000
gun_tex
0  -3.654597 -11.866429 -2.792369  -0.000003 0.422916 -0.906169  0.076842 0.731139 1 64 1.000000
0  -3.769184 -12.013000 -2.860775  -0.000003 0.422916 -0.906169  0.076842 0.731139 1 64 1.000000
0  -3.769184 -11.866429 -2.792369  -0.000003 0.422916 -0.906169  0.076842 0.731139 1 64 1.000000
gun_tex
0  -3.769184 -11.492140 -2.836392  0.000000 -0.116815 -0.993154  0.076842 0.731139 1 64 1.000000
0  -3.654597 -11.866429 -2.792369  0.000000 -0.116815 -0.993154  0.076842 0.731139 1 64 1.000000
0  -3.769184 -11.866429 -2.792369  0.000000 -0.116815 -0.993154  0.076842 0.731139 1 64 1.000000
gun_tex
0  -3.820300 -10.336061 -1.764724  0.000000 0.934628 0.355628  0.076842 0.731139 1 64 1.000000
0  -3.680769 -10.491220 -1.356945  0.000000 0.934628 0.355628  0.076842 0.731139 1 64 1.000000
0  -3.680769 -10.336061 -1.764724  0.000000 0.934628 0.355628  0.076842 0.731139 1 64 1.000000
gun_tex
0  -3.769184 -12.013000 -2.860775  -0.000004 -0.966886 -0.255208  0.076842 0.731139 1 64 1.000000
0  -3.761330 -12.086959 -2.580570  -0.000004 -0.966886 -0.255208  0.076842 0.731139 1 64 1.000000
0  -3.977643 -12.086958 -2.580570  -0.000004 -0.966886 -0.255208  0.076842 0.731139 1 64 1.000000
gun_tex
0  -3.820301 -10.207482 -2.002369  0.000000 0.817066 0.576545  0.076842 0.731139 1 64 1.000000
0  -3.680769 -9.912145 -2.420915  0.000000 0.817066 0.576545  0.076842 0.731139 1 64 1.000000
0  -3.820301 -9.912145 -2.420915  0.000000 0.817066 0.576545  0.076842 0.731139 1 64 1.000000
gun_tex
0  -3.820300 -10.336061 -1.764724  0.000000 0.879519 0.475864  0.076842 0.731139 1 64 1.000000
0  -3.680769 -10.207482 -2.002369  0.000000 0.879519 0.475864  0.076842 0.731139 1 64 1.000000
0  -3.820301 -10.207482 -2.002369  0.000000 0.879519 0.475864  0.076842 0.731139 1 64 1.000000
gun_tex
0  -3.761330 -11.010838 -1.178108  0.979121 -0.200942 0.030734  0.076842 0.731139 1 64 1.000000
0  -3.680769 -10.773745 -2.194480  0.979121 -0.200942 0.030734  0.076842 0.731139 1 64 1.000000
0  -3.680769 -10.628021 -1.241732  0.979121 -0.200942 0.030734  0.076842 0.731139 1 64 1.000000
gun_tex
0  -3.418672 -11.492140 -2.836393  -0.000001 -0.600222 -0.799834  0.076842 0.731139 1 64 1.000000
0  -3.654597 -11.220095 -3.040545  -0.000001 -0.600222 -0.799834  0.076842 0.731139 1 64 1.000000
0  -3.418671 -11.220095 -3.040545  -0.000001 -0.600222 -0.799834  0.076842 0.731139 1 64 1.000000
gun_tex
0  -3.418671 -11.129365 -4.155609  0.000000 -0.980859 0.194718  0.076842 0.731139 1 64 1.000000
0  -3.654596 -11.308086 -5.055885  0.000000 -0.980859 0.194718  0.076842 0.731139 1 64 1.000000
0  -3.418671 -11.308086 -5.055886  0.000000 -0.980859 0.194718  0.076842 0.731139 1 64 1.000000
gun_tex
0  -3.393486 -9.116117 -4.260207  0.000000 0.944940 0.327243  0.076842 0.731139 1 64 1.000000
0  -3.680769 -9.495378 -3.165064  0.000000 0.944940 0.327243  0.076842 0.731139 1 64 1.000000
0  -3.393486 -9.495378 -3.165064  0.000000 0.944940 0.327243  0.076842 0.731139 1 64 1.000000
gun_tex
0  -3.418671 -11.097407 -3.396463  0.000000 -0.999115 0.042060  0.076842 0.731139 1 64 1.000000
0  -3.654597 -11.129365 -4.155609  0.000000 -0.999115 0.042060  0.076842 0.731139 1 64 1.000000
0  -3.418671 -11.129365 -4.155609  0.000000 -0.999115 0.042060  0.076842 0.731139 1 64 1.000000
gun_tex
0  -3.680769 -10.773745 -2.194480  0.000000 0.163950 0.986469  0.076842 0.731139 1 64 1.000000
0  -3.315961 -11.156563 -2.130856  0.000000 0.163950 0.986469  0.076842 0.731139 1 64 1.000000
0  -3.393486 -10.773745 -2.194480  0.000000 0.163950 0.986469  0.076842 0.731139 1 64 1.000000
gun_tex
0  -3.680769 -10.628021 -1.241732  0.000003 -0.988504 0.151193  0.076842 0.731139 1 64 1.000000
0  -3.393486 -10.773745 -2.194480  0.000003 -0.988504 0.151193  0.076842 0.731139 1 64 1.000000
0  -3.393486 -10.628020 -1.241732  0.000003 -0.988504 0.151193  0.076842 0.731139 1 64 1.000000
gun_tex
0  -3.315961 -11.010838 -1.178108  -0.980621 -0.193662 0.029621  0.076842 0.731139 1 64 1.000000
0  -3.393486 -10.773745 -2.194480  -0.980621 -0.193662 0.029621  0.076842 0.731139 1 64 1.000000
0  -3.315961 -11.156563 -2.130856  -0.980621 -0.193662 0.029621  0.076842 0.731139 1 64 1.000000
gun_tex
0  -3.761330 -11.010838 -2.012311  0.000000 -0.345082 0.938572  0.076842 0.731139 1 64 1.000000
0  -3.315961 -11.523934 -2.200960  0.000000 -0.345082 0.938572  0.076842 0.731139 1 64 1.000000
0  -3.315961 -11.010838 -2.012311  0.000000 -0.345082 0.938572  0.076842 0.731139 1 64 1.000000
gun_tex
0  -3.761330 -11.523934 -1.366757  1.000000 0.000000 0.000000  0.076842 0.731139 1 64 1.000000
0  -3.761330 -11.010838 -2.012311  1.000000 0.000000 0.000000  0.076842 0.731139 1 64 1.000000
0  -3.761330 -11.010838 -1.178108  1.000000 0.000000 0.000000  0.076842 0.731139 1 64 1.000000
gun_tex
0  -3.315961 -11.523934 -1.366757  -1.000000 -0.000001 0.000000  0.076842 0.731139 1 64 1.000000
0  -3.315961 -11.010838 -2.012311  -1.000000 -0.000001 0.000000  0.076842 0.731139 1 64 1.000000
0  -3.315961 -11.523934 -2.200960  -1.000000 -0.000001 0.000000  0.076842 0.731139 1 64 1.000000
gun_tex
0  -3.315961 -12.029912 -2.087938  0.000000 -0.900438 0.434983  0.076842 0.731139 1 64 1.000000
0  -3.091093 -12.029912 -2.087938  0.000000 -0.900438 0.434983  0.076842 0.731139 1 64 1.000000
0  -3.091093 -11.840424 -1.695685  0.000000 -0.900438 0.434983  0.076842 0.731139 1 64 1.000000
gun_tex
0  -3.315961 -12.086958 -2.580569  0.000000 -0.993362 0.115030  0.076842 0.731139 1 64 1.000000
0  -3.091093 -12.086958 -2.580569  0.000000 -0.993362 0.115030  0.076842 0.731139 1 64 1.000000
0  -3.091093 -12.029912 -2.087938  0.000000 -0.993362 0.115030  0.076842 0.731139 1 64 1.000000
gun_tex
0  -3.769184 -11.308086 -5.055886  -0.625648 -0.765174 0.151901  0.076842 0.731139 1 64 1.000000
0  -3.769184 -11.129365 -4.155609  -0.625648 -0.765174 0.151901  0.076842 0.731139 1 64 1.000000
0  -3.977643 -11.022914 -4.477980  -0.625648 -0.765174 0.151901  0.076842 0.731139 1 64 1.000000
gun_tex
0  -3.248435 -10.207482 -2.002369  0.724098 0.543975 0.423997  0.076842 0.731139 1 64 1.000000
0  -3.091093 -10.372731 -2.059067  0.724098 0.543975 0.423997  0.076842 0.731139 1 64 1.000000
0  -3.091094 -10.088912 -2.423200  0.724098 0.543975 0.423997  0.076842 0.731139 1 64 1.000000
gun_tex
0  -3.091093 -11.840424 -1.695685  0.000000 -0.720603 0.693348  0.076842 0.731139 1 64 1.000000
0  -3.091093 -11.523934 -1.366757  0.000000 -0.720603 0.693348  0.076842 0.731139 1 64 1.000000
0  -3.315961 -11.523934 -1.366757  0.000000 -0.720603 0.693348  0.076842 0.731139 1 64 1.000000
gun_tex
0  -3.820301 -9.495378 -3.165064  -0.719627 0.656130 0.227225  0.076842 0.731139 1 64 1.000000
0  -3.820301 -9.116117 -4.260207  -0.719627 0.656130 0.227225  0.076842 0.731139 1 64 1.000000
0  -3.977643 -9.661309 -3.184228  -0.719627 0.656130 0.227225  0.076842 0.731139 1 64 1.000000
gun_tex
0  -3.820301 -9.116117 -4.260207  -0.733739 0.661896 0.153362  0.076842 0.731139 1 64 1.000000
0  -3.820301 -8.915297 -5.126932  -0.733739 0.661896 0.153362  0.076842 0.731139 1 64 1.000000
0  -3.977643 -9.090439 -5.123816  -0.733739 0.661896 0.153362  0.076842 0.731139 1 64 1.000000
gun_tex
0  -3.654597 -11.129365 -4.155609  0.000000 -0.999115 0.042062  0.076842 0.731139 1 64 1.000000
0  -3.654597 -11.097407 -3.396464  0.000000 -0.999115 0.042062  0.076842 0.731139 1 64 1.000000
0  -3.769184 -11.097407 -3.396464  0.000000 -0.999115 0.042062  0.076842 0.731139 1 64 1.000000
gun_tex
0  -3.299552 -11.492140 -2.836393  0.450696 -0.116412 -0.885055  0.076842 0.731139 1 64 1.000000
0  -3.091093 -11.437639 -2.737408  0.450696 -0.116412 -0.885055  0.076842 0.731139 1 64 1.000000
0  -3.091093 -11.860302 -2.681815  0.450696 -0.116412 -0.885055  0.076842 0.731139 1 64 1.000000
gun_tex
0  -3.820301 -10.207482 -2.002369  -0.679563 0.599414 0.422962  0.076842 0.731139 1 64 1.000000
0  -3.820301 -9.912145 -2.420915  -0.679563 0.599414 0.422962  0.076842 0.731139 1 64 1.000000
0  -3.977643 -10.088913 -2.423200  -0.679563 0.599414 0.422962  0.076842 0.731139 1 64 1.000000
gun_tex
0  -3.091094 -9.661309 -3.184228  0.699794 0.623254 0.349059  0.076842 0.731139 1 64 1.000000
0  -3.248436 -9.495378 -3.165064  0.699794 0.623254 0.349059  0.076842 0.731139 1 64 1.000000
0  -3.248435 -9.912145 -2.420915  0.699794 0.623254 0.349059  0.076842 0.731139 1 64 1.000000
gun_tex
0  -3.393486 -10.628020 -1.241732  0.000000 0.644177 0.764877  0.076842 0.731139 1 64 1.000000
0  -3.248435 -10.628020 -1.241732  0.000000 0.644177 0.764877  0.076842 0.731139 1 64 1.000000
0  -3.248435 -10.491220 -1.356945  0.000000 0.644177 0.764877  0.076842 0.731139 1 64 1.000000
gun_tex
0  -3.315961 -11.523934 -1.366757  0.000000 -0.345082 0.938573  0.076842 0.731139 1 64 1.000000
0  -3.091093 -11.523934 -1.366757  0.000000 -0.345082 0.938573  0.076842 0.731139 1 64 1.000000
0  -3.091093 -11.010838 -1.178108  0.000000 -0.345082 0.938573  0.076842 0.731139 1 64 1.000000
gun_tex
0  -3.418671 -11.097407 -3.396463  0.000000 -0.945408 -0.325888  0.076842 0.731139 1 64 1.000000
0  -3.299552 -11.097407 -3.396463  0.000000 -0.945408 -0.325888  0.076842 0.731139 1 64 1.000000
0  -3.299552 -11.220095 -3.040545  0.000000 -0.945408 -0.325888  0.076842 0.731139 1 64 1.000000
gun_tex
0  -3.680769 -9.116117 -4.260207  0.000000 0.944940 0.327244  0.076842 0.731139 1 64 1.000000
0  -3.820301 -9.116117 -4.260207  0.000000 0.944940 0.327244  0.076842 0.731139 1 64 1.000000
0  -3.820301 -9.495378 -3.165064  0.000000 0.944940 0.327244  0.076842 0.731139 1 64 1.000000
gun_tex
0  -3.299552 -11.866429 -2.792369  0.436448 0.320465 -0.840723  0.076842 0.731139 1 64 1.000000
0  -3.091093 -11.860302 -2.681815  0.436448 0.320465 -0.840723  0.076842 0.731139 1 64 1.000000
0  -3.091093 -12.062928 -2.759051  0.436448 0.320465 -0.840723  0.076842 0.731139 1 64 1.000000
gun_tex
0  -3.248436 -9.116117 -4.260207  0.000000 0.974192 0.225721  0.076842 0.731139 1 64 1.000000
0  -3.248435 -8.915297 -5.126932  0.000000 0.974192 0.225721  0.076842 0.731139 1 64 1.000000
0  -3.393486 -8.915297 -5.126932  0.000000 0.974192 0.225721  0.076842 0.731139 1 64 1.000000
gun_tex
0  -3.299552 -11.308086 -5.055886  0.595769 -0.784478 0.172203  0.076842 0.731139 1 64 1.000000
0  -3.091093 -11.150354 -5.058533  0.595769 -0.784478 0.172203  0.076842 0.731139 1 64 1.000000
0  -3.091093 -11.022914 -4.477981  0.595769 -0.784478 0.172203  0.076842 0.731139 1 64 1.000000
gun_tex
0  -3.091094 -10.483475 -1.747862  0.646208 0.718994 0.255857  0.076842 0.731139 1 64 1.000000
0  -3.091093 -10.372731 -2.059067  0.646208 0.718994 0.255857  0.076842 0.731139 1 64 1.000000
0  -3.248436 -10.336061 -1.764724  0.646208 0.718994 0.255857  0.076842 0.731139 1 64 1.000000
gun_tex
0  -3.977642 -10.483476 -1.747862  -0.642091 0.716511 0.272635  0.076842 0.731139 1 64 1.000000
0  -3.820300 -10.491220 -1.356945  -0.642091 0.716511 0.272635  0.076842 0.731139 1 64 1.000000
0  -3.820300 -10.336061 -1.764724  -0.642091 0.716511 0.272635  0.076842 0.731139 1 64 1.000000
gun_tex
0  -3.248436 -9.495378 -3.165064  0.719625 0.656132 0.227225  0.076842 0.731139 1 64 1.000000
0  -3.091094 -9.661309 -3.184228  0.719625 0.656132 0.227225  0.076842 0.731139 1 64 1.000000
0  -3.248436 -9.116117 -4.260207  0.719625 0.656132 0.227225  0.076842 0.731139 1 64 1.000000
gun_tex
0  -3.091094 -9.661309 -3.184228  0.812389 0.559390 0.164643  0.076842 0.731139 1 64 1.000000
0  -3.091094 -9.090439 -5.123816  0.812389 0.559390 0.164643  0.076842 0.731139 1 64 1.000000
0  -3.248436 -9.116117 -4.260207  0.812389 0.559390 0.164643  0.076842 0.731139 1 64 1.000000
gun_tex
0  -3.977643 -11.058574 -3.045718  -0.590104 -0.762132 -0.266333  0.076842 0.731139 1 64 1.000000
0  -3.977643 -10.938958 -3.388005  -0.590104 -0.762132 -0.266333  0.076842 0.731139 1 64 1.000000
0  -3.769184 -11.097407 -3.396464  -0.590104 -0.762132 -0.266333  0.076842 0.731139 1 64 1.000000
gun_tex
0  -3.091093 -11.058574 -3.045718  0.586673 -0.765615 -0.263910  0.076842 0.731139 1 64 1.000000
0  -3.299552 -11.220095 -3.040545  0.586673 -0.765615 -0.263910  0.076842 0.731139 1 64 1.000000
0  -3.299552 -11.097407 -3.396463  0.586673 -0.765615 -0.263910  0.076842 0.731139 1 64 1.000000
gun_tex
0  -3.769184 -11.866429 -2.792369  -0.477517 0.371587 -0.796179  0.076842 0.731139 1 64 1.000000
0  -3.769184 -12.013000 -2.860775  -0.477517 0.371587 -0.796179  0.076842 0.731139 1 64 1.000000
0  -3.977643 -12.062928 -2.759052  -0.477517 0.371587 -0.796179  0.076842 0.731139 1 64 1.000000
gun_tex
0  -3.769184 -11.129365 -4.155609  0.000000 -0.980859 0.194719  0.076842 0.731139 1 64 1.000000
0  -3.769184 -11.308086 -5.055886  0.000000 -0.980859 0.194719  0.076842 0.731139 1 64 1.000000
0  -3.654596 -11.308086 -5.055885  0.000000 -0.980859 0.194719  0.076842 0.731139 1 64 1.000000
gun_tex
0  -3.091093 -11.437639 -2.737408  0.472906 -0.528864 -0.704743  0.076842 0.731139 1 64 1.000000
0  -3.299552 -11.492140 -2.836393  0.472906 -0.528864 -0.704743  0.076842 0.731139 1 64 1.000000
0  -3.299552 -11.220095 -3.040545  0.472906 -0.528864 -0.704743  0.076842 0.731139 1 64 1.000000
gun_tex
0  -3.977643 -9.661309 -3.184228  -0.702308 0.620617 0.348710  0.076842 0.731139 1 64 1.000000
0  -3.977643 -10.088913 -2.423200  -0.702308 0.620617 0.348710  0.076842 0.731139 1 64 1.000000
0  -3.820301 -9.912145 -2.420915  -0.702308 0.620617 0.348710  0.076842 0.731139 1 64 1.000000
gun_tex
0  -3.248435 -9.912145 -2.420915  0.000000 0.872484 0.488643  0.076842 0.731139 1 64 1.000000
0  -3.248436 -9.495378 -3.165064  0.000000 0.872484 0.488643  0.076842 0.731139 1 64 1.000000
0  -3.393486 -9.495378 -3.165064  0.000000 0.872484 0.488643  0.076842 0.731139 1 64 1.000000
gun_tex
0  -3.299552 -11.308086 -5.055886  0.000000 -0.016779 -0.999859  0.076842 0.731139 1 64 1.000000
0  -3.418671 -11.308086 -5.055886  0.000000 -0.016779 -0.999859  0.076842 0.731139 1 64 1.000000
0  -3.091093 -11.150354 -5.058533  0.000000 -0.016779 -0.999859  0.076842 0.731139 1 64 1.000000
gun_tex
0  -3.418671 -11.308086 -5.055886  -0.006845 -0.029606 -0.999538  0.076842 0.731139 1 64 1.000000
0  -3.393486 -8.915297 -5.126932  -0.006845 -0.029606 -0.999538  0.076842 0.731139 1 64 1.000000
0  -3.091094 -9.090439 -5.123816  -0.006845 -0.029606 -0.999538  0.076842 0.731139 1 64 1.000000
gun_tex
0  -3.393486 -8.915297 -5.126932  0.000000 -0.017792 -0.999842  0.076842 0.731139 1 64 1.000000
0  -3.248435 -8.915297 -5.126932  0.000000 -0.017792 -0.999842  0.076842 0.731139 1 64 1.000000
0  -3.091094 -9.090439 -5.123816  0.000000 -0.017792 -0.999842  0.076842 0.731139 1 64 1.000000
gun_tex
0  -3.091093 -11.022914 -4.477981  1.000000 0.000000 -0.000000  0.076842 0.731139 1 64 1.000000
0  -3.091093 -11.150354 -5.058533  1.000000 0.000000 -0.000000  0.076842 0.731139 1 64 1.000000
0  -3.091094 -9.090439 -5.123816  1.000000 0.000000 -0.000000  0.076842 0.731139 1 64 1.000000
gun_tex
0  -3.091094 -9.090439 -5.123816  1.000000 0.000000 0.000000  0.076842 0.731139 1 64 1.000000
0  -3.091094 -9.661309 -3.184228  1.000000 0.000000 0.000000  0.076842 0.731139 1 64 1.000000
0  -3.091093 -11.022914 -4.477981  1.000000 0.000000 0.000000  0.076842 0.731139 1 64 1.000000
gun_tex
0  -3.091094 -9.661309 -3.184228  1.000000 0.000000 0.000000  0.076842 0.731139 1 64 1.000000
0  -3.091094 -10.088912 -2.423200  1.000000 0.000000 0.000000  0.076842 0.731139 1 64 1.000000
0  -3.091093 -10.938958 -3.388005  1.000000 0.000000 0.000000  0.076842 0.731139 1 64 1.000000
gun_tex
0  -3.091093 -10.938958 -3.388005  1.000000 0.000001 0.000000  0.076842 0.731139 1 64 1.000000
0  -3.091094 -10.088912 -2.423200  1.000000 0.000001 0.000000  0.076842 0.731139 1 64 1.000000
0  -3.091093 -11.058574 -3.045718  1.000000 0.000001 0.000000  0.076842 0.731139 1 64 1.000000
gun_tex
0  -3.091094 -10.088912 -2.423200  1.000000 0.000001 -0.000000  0.076842 0.731139 1 64 1.000000
0  -3.091093 -10.372731 -2.059067  1.000000 0.000001 -0.000000  0.076842 0.731139 1 64 1.000000
0  -3.091093 -11.058574 -3.045718  1.000000 0.000001 -0.000000  0.076842 0.731139 1 64 1.000000
gun_tex
0  -3.091093 -10.938958 -3.388005  1.000000 0.000000 -0.000000  0.076842 0.731139 1 64 1.000000
0  -3.091093 -11.022914 -4.477981  1.000000 0.000000 -0.000000  0.076842 0.731139 1 64 1.000000
0  -3.091094 -9.661309 -3.184228  1.000000 0.000000 -0.000000  0.076842 0.731139 1 64 1.000000
gun_tex
0  -3.091093 -11.437639 -2.737408  1.000000 0.000000 0.000000  0.076842 0.731139 1 64 1.000000
0  -3.091093 -11.058574 -3.045718  1.000000 0.000000 0.000000  0.076842 0.731139 1 64 1.000000
0  -3.091093 -10.372731 -2.059067  1.000000 0.000000 0.000000  0.076842 0.731139 1 64 1.000000
gun_tex
0  -3.091094 -10.483475 -1.747862  1.000000 -0.000004 0.000000  0.076842 0.731139 1 64 1.000000
0  -3.091094 -10.568450 -1.405530  1.000000 -0.000004 0.000000  0.076842 0.731139 1 64 1.000000
0  -3.091094 -10.727058 -1.276609  1.000000 -0.000004 0.000000  0.076842 0.731139 1 64 1.000000
gun_tex
0  -3.091093 -11.437639 -2.737408  1.000000 -0.000001 0.000001  0.076842 0.731139 1 64 1.000000
0  -3.091093 -10.372731 -2.059067  1.000000 -0.000001 0.000001  0.076842 0.731139 1 64 1.000000
0  -3.091094 -10.483475 -1.747862  1.000000 -0.000001 0.000001  0.076842 0.731139 1 64 1.000000
gun_tex
0  -3.091093 -12.086958 -2.580569  1.000000 0.000000 0.000001  0.076842 0.731139 1 64 1.000000
0  -3.091093 -12.062928 -2.759051  1.000000 0.000000 0.000001  0.076842 0.731139 1 64 1.000000
0  -3.091093 -11.860302 -2.681815  1.000000 0.000000 0.000001  0.076842 0.731139 1 64 1.000000
gun_tex
0  -3.091093 -11.860302 -2.681815  1.000000 0.000000 0.000000  0.076842 0.731139 1 64 1.000000
0  -3.091093 -11.437639 -2.737408  1.000000 0.000000 0.000000  0.076842 0.731139 1 64 1.000000
0  -3.091093 -12.029912 -2.087938  1.000000 0.000000 0.000000  0.076842 0.731139 1 64 1.000000
gun_tex
0  -3.091093 -11.437639 -2.737408  1.000000 0.000001 -0.000000  0.076842 0.731139 1 64 1.000000
0  -3.091094 -10.483475 -1.747862  1.000000 0.000001 -0.000000  0.076842 0.731139 1 64 1.000000
0  -3.091093 -11.523934 -1.366757  1.000000 0.000001 -0.000000  0.076842 0.731139 1 64 1.000000
gun_tex
0  -3.091093 -11.840424 -1.695685  1.000000 -0.000002 -0.000000  0.076842 0.731139 1 64 1.000000
0  -3.091093 -11.437639 -2.737408  1.000000 -0.000002 -0.000000  0.076842 0.731139 1 64 1.000000
0  -3.091093 -11.523934 -1.366757  1.000000 -0.000002 -0.000000  0.076842 0.731139 1 64 1.000000
gun_tex
0  -3.091094 -10.483475 -1.747862  1.000000 0.000000 0.000001  0.076842 0.731139 1 64 1.000000
0  -3.091094 -10.727058 -1.276609  1.000000 0.000000 0.000001  0.076842 0.731139 1 64 1.000000
0  -3.091093 -11.010838 -1.178108  1.000000 0.000000 0.000001  0.076842 0.731139 1 64 1.000000
gun_tex
0  -3.091093 -11.010838 -1.178108  1.000000 0.000001 0.000000  0.076842 0.731139 1 64 1.000000
0  -3.091093 -11.523934 -1.366757  1.000000 0.000001 0.000000  0.076842 0.731139 1 64 1.000000
0  -3.091094 -10.483475 -1.747862  1.000000 0.000001 0.000000  0.076842 0.731139 1 64 1.000000
gun_tex
0  -3.091093 -11.840424 -1.695685  1.000000 0.000001 0.000000  0.076842 0.731139 1 64 1.000000
0  -3.091093 -12.029912 -2.087938  1.000000 0.000001 0.000000  0.076842 0.731139 1 64 1.000000
0  -3.091093 -11.437639 -2.737408  1.000000 0.000001 0.000000  0.076842 0.731139 1 64 1.000000
gun_tex
0  -3.820300 -10.628021 -1.241732  -0.483507 0.563868 0.669533  0.076842 0.731139 1 64 1.000000
0  -3.820300 -10.491220 -1.356945  -0.483507 0.563868 0.669533  0.076842 0.731139 1 64 1.000000
0  -3.977642 -10.568450 -1.405530  -0.483507 0.563868 0.669533  0.076842 0.731139 1 64 1.000000
gun_tex
0  -3.977643 -11.860302 -2.681815  -1.000000 0.000000 0.000001  0.076842 0.731139 1 64 1.000000
0  -3.977643 -12.062928 -2.759052  -1.000000 0.000000 0.000001  0.076842 0.731139 1 64 1.000000
0  -3.977643 -12.086958 -2.580570  -1.000000 0.000000 0.000001  0.076842 0.731139 1 64 1.000000
gun_tex
0  -3.977643 -12.086958 -2.580570  -1.000000 0.000000 0.000000  0.076842 0.731139 1 64 1.000000
0  -3.977642 -12.029912 -2.087938  -1.000000 0.000000 0.000000  0.076842 0.731139 1 64 1.000000
0  -3.977643 -11.860302 -2.681815  -1.000000 0.000000 0.000000  0.076842 0.731139 1 64 1.000000
gun_tex
0  -3.977642 -12.029912 -2.087938  -1.000000 0.000000 0.000000  0.076842 0.731139 1 64 1.000000
0  -3.977642 -11.840423 -1.695685  -1.000000 0.000000 0.000000  0.076842 0.731139 1 64 1.000000
0  -3.977643 -11.437639 -2.737408  -1.000000 0.000000 0.000000  0.076842 0.731139 1 64 1.000000
gun_tex
0  -3.977642 -11.840423 -1.695685  -1.000000 0.000002 0.000000  0.076842 0.731139 1 64 1.000000
0  -3.977642 -11.523934 -1.366757  -1.000000 0.000002 0.000000  0.076842 0.731139 1 64 1.000000
0  -3.977643 -11.437639 -2.737408  -1.000000 0.000002 0.000000  0.076842 0.731139 1 64 1.000000
gun_tex
0  -3.977642 -11.523934 -1.366757  -1.000000 0.000001 0.000000  0.076842 0.731139 1 64 1.000000
0  -3.977642 -11.010838 -1.178108  -1.000000 0.000001 0.000000  0.076842 0.731139 1 64 1.000000
0  -3.977642 -10.483476 -1.747862  -1.000000 0.000001 0.000000  0.076842 0.731139 1 64 1.000000
gun_tex
0  -3.977643 -11.437639 -2.737408  -1.000000 0.000000 0.000000  0.076842 0.731139 1 64 1.000000
0  -3.977642 -11.523934 -1.366757  -1.000000 0.000000 0.000000  0.076842 0.731139 1 64 1.000000
0  -3.977642 -10.483476 -1.747862  -1.000000 0.000000 0.000000  0.076842 0.731139 1 64 1.000000
gun_tex
0  -3.977642 -11.010838 -1.178108  -1.000000 -0.000002 0.000000  0.076842 0.731139 1 64 1.000000
0  -3.977642 -10.727058 -1.276609  -1.000000 -0.000002 0.000000  0.076842 0.731139 1 64 1.000000
0  -3.977642 -10.483476 -1.747862  -1.000000 -0.000002 0.000000  0.076842 0.731139 1 64 1.000000
gun_tex
0  -3.977642 -10.727058 -1.276609  -1.000000 0.000000 0.000000  0.076842 0.731139 1 64 1.000000
0  -3.977642 -10.568450 -1.405530  -1.000000 0.000000 0.000000  0.076842 0.731139 1 64 1.000000
0  -3.977642 -10.483476 -1.747862  -1.000000 0.000000 0.000000  0.076842 0.731139 1 64 1.000000
gun_tex
0  -3.977642 -12.029912 -2.087938  -1.000000 -0.000000 0.000000  0.076842 0.731139 1 64 1.000000
0  -3.977643 -11.437639 -2.737408  -1.000000 -0.000000 0.000000  0.076842 0.731139 1 64 1.000000
0  -3.977643 -11.860302 -2.681815  -1.000000 -0.000000 0.000000  0.076842 0.731139 1 64 1.000000
gun_tex
0  -3.977642 -10.483476 -1.747862  -1.000000 0.000000 0.000000  0.076842 0.731139 1 64 1.000000
0  -3.977642 -10.372731 -2.059067  -1.000000 0.000000 0.000000  0.076842 0.731139 1 64 1.000000
0  -3.977643 -11.437639 -2.737408  -1.000000 0.000000 0.000000  0.076842 0.731139 1 64 1.000000
gun_tex
0  -3.977642 -10.372731 -2.059067  -1.000000 0.000000 0.000000  0.076842 0.731139 1 64 1.000000
0  -3.977643 -10.088913 -2.423200  -1.000000 0.000000 0.000000  0.076842 0.731139 1 64 1.000000
0  -3.977643 -11.058574 -3.045718  -1.000000 0.000000 0.000000  0.076842 0.731139 1 64 1.000000
gun_tex
0  -3.977643 -10.088913 -2.423200  -1.000000 0.000000 0.000000  0.076842 0.731139 1 64 1.000000
0  -3.977643 -9.661309 -3.184228  -1.000000 0.000000 0.000000  0.076842 0.731139 1 64 1.000000
0  -3.977643 -10.938958 -3.388005  -1.000000 0.000000 0.000000  0.076842 0.731139 1 64 1.000000
gun_tex
0  -3.977643 -9.661309 -3.184228  -1.000000 0.000000 0.000000  0.076842 0.731139 1 64 1.000000
0  -3.977643 -9.090439 -5.123816  -1.000000 0.000000 0.000000  0.076842 0.731139 1 64 1.000000
0  -3.977643 -11.022914 -4.477980  -1.000000 0.000000 0.000000  0.076842 0.731139 1 64 1.000000
gun_tex
0  -3.977643 -9.090439 -5.123816  -1.000000 -0.000001 -0.000001  0.076842 0.731139 1 64 1.000000
0  -3.977642 -11.150354 -5.058533  -1.000000 -0.000001 -0.000001  0.076842 0.731139 1 64 1.000000
0  -3.977643 -11.022914 -4.477980  -1.000000 -0.000001 -0.000001  0.076842 0.731139 1 64 1.000000
gun_tex
0  -3.977643 -10.088913 -2.423200  -1.000000 0.000001 0.000000  0.076842 0.731139 1 64 1.000000
0  -3.977643 -10.938958 -3.388005  -1.000000 0.000001 0.000000  0.076842 0.731139 1 64 1.000000
0  -3.977643 -11.058574 -3.045718  -1.000000 0.000001 0.000000  0.076842 0.731139 1 64 1.000000
gun_tex
0  -3.977643 -11.058574 -3.045718  -1.000000 -0.000001 0.000000  0.076842 0.731139 1 64 1.000000
0  -3.977643 -11.437639 -2.737408  -1.000000 -0.000001 0.000000  0.076842 0.731139 1 64 1.000000
0  -3.977642 -10.372731 -2.059067  -1.000000 -0.000001 0.000000  0.076842 0.731139 1 64 1.000000
gun_tex
0  -3.418671 -11.866429 -2.792369  0.000000 0.422918 -0.906168  0.076842 0.731139 1 64 1.000000
0  -3.299552 -11.866429 -2.792369  0.000000 0.422918 -0.906168  0.076842 0.731139 1 64 1.000000
0  -3.299552 -12.013000 -2.860775  0.000000 0.422918 -0.906168  0.076842 0.731139 1 64 1.000000
gun_tex
0  -3.248435 -10.628020 -1.241732  0.494568 0.548202 0.674445  0.076842 0.731139 1 64 1.000000
0  -3.091094 -10.727058 -1.276609  0.494568 0.548202 0.674445  0.076842 0.731139 1 64 1.000000
0  -3.091094 -10.568450 -1.405530  0.494568 0.548202 0.674445  0.076842 0.731139 1 64 1.000000
gun_tex
0  -3.769184 -11.492140 -2.836392  -0.468390 -0.103208 -0.877473  0.076842 0.731139 1 64 1.000000
0  -3.769184 -11.866429 -2.792369  -0.468390 -0.103208 -0.877473  0.076842 0.731139 1 64 1.000000
0  -3.977643 -11.860302 -2.681815  -0.468390 -0.103208 -0.877473  0.076842 0.731139 1 64 1.000000
gun_tex
0  -3.977643 -11.437639 -2.737408  -0.425104 -0.571132 -0.702207  0.076842 0.731139 1 64 1.000000
0  -3.977643 -11.058574 -3.045718  -0.425104 -0.571132 -0.702207  0.076842 0.731139 1 64 1.000000
0  -3.769183 -11.220095 -3.040544  -0.425104 -0.571132 -0.702207  0.076842 0.731139 1 64 1.000000
gun_tex
0  -3.418671 -11.866429 -2.792369  0.000000 -0.116815 -0.993154  0.076842 0.731139 1 64 1.000000
0  -3.418672 -11.492140 -2.836393  0.000000 -0.116815 -0.993154  0.076842 0.731139 1 64 1.000000
0  -3.299552 -11.492140 -2.836393  0.000000 -0.116815 -0.993154  0.076842 0.731139 1 64 1.000000
gun_tex
0  -3.393486 -10.491220 -1.356945  0.000000 0.934629 0.355623  0.076842 0.731139 1 64 1.000000
0  -3.248435 -10.491220 -1.356945  0.000000 0.934629 0.355623  0.076842 0.731139 1 64 1.000000
0  -3.248436 -10.336061 -1.764724  0.000000 0.934629 0.355623  0.076842 0.731139 1 64 1.000000
gun_tex
0  -3.315961 -12.086958 -2.580569  0.000000 -0.966888 -0.255203  0.076842 0.731139 1 64 1.000000
0  -3.418671 -12.013000 -2.860775  0.000000 -0.966888 -0.255203  0.076842 0.731139 1 64 1.000000
0  -3.299552 -12.013000 -2.860775  0.000000 -0.966888 -0.255203  0.076842 0.731139 1 64 1.000000
gun_tex
0  -3.393486 -10.207482 -2.002369  0.000000 0.817066 0.576544  0.076842 0.731139 1 64 1.000000
0  -3.248435 -10.207482 -2.002369  0.000000 0.817066 0.576544  0.076842 0.731139 1 64 1.000000
0  -3.248435 -9.912145 -2.420915  0.000000 0.817066 0.576544  0.076842 0.731139 1 64 1.000000
gun_tex
0  -3.654597 -11.492140 -2.836393  0.000000 -0.600221 -0.799834  0.076842 0.731139 1 64 1.000000
0  -3.769184 -11.492140 -2.836392  0.000000 -0.600221 -0.799834  0.076842 0.731139 1 64 1.000000
0  -3.769183 -11.220095 -3.040544  0.000000 -0.600221 -0.799834  0.076842 0.731139 1 64 1.000000
gun_tex
0  -3.820300 -10.628021 -1.241732  0.000000 0.163952 0.986468  0.076842 0.731139 1 64 1.000000
0  -3.977642 -11.010838 -1.178108  0.000000 0.163952 0.986468  0.076842 0.731139 1 64 1.000000
0  -3.761330 -11.010838 -1.178108  0.000000 0.163952 0.986468  0.076842 0.731139 1 64 1.000000
gun_tex
0  -3.393486 -10.336061 -1.764724  0.000000 0.879519 0.475864  0.076842 0.731139 1 64 1.000000
0  -3.248436 -10.336061 -1.764724  0.000000 0.879519 0.475864  0.076842 0.731139 1 64 1.000000
0  -3.248435 -10.207482 -2.002369  0.000000 0.879519 0.475864  0.076842 0.731139 1 64 1.000000
gun_tex
0  -3.680769 -10.336061 -1.764724  0.000000 0.879519 0.475864  0.076842 0.731139 1 64 1.000000
0  -3.393486 -10.336061 -1.764724  0.000000 0.879519 0.475864  0.076842 0.731139 1 64 1.000000
0  -3.393486 -10.207482 -2.002369  0.000000 0.879519 0.475864  0.076842 0.731139 1 64 1.000000
gun_tex
0  -3.248435 -10.628020 -1.241732  0.000000 0.163951 0.986468  0.076842 0.731139 1 64 1.000000
0  -3.393486 -10.628020 -1.241732  0.000000 0.163951 0.986468  0.076842 0.731139 1 64 1.000000
0  -3.315961 -11.010838 -1.178108  0.000000 0.163951 0.986468  0.076842 0.731139 1 64 1.000000
gun_tex
0  -3.299552 -11.492140 -2.836393  0.000000 -0.600223 -0.799832  0.076842 0.731139 1 64 1.000000
0  -3.418672 -11.492140 -2.836393  0.000000 -0.600223 -0.799832  0.076842 0.731139 1 64 1.000000
0  -3.418671 -11.220095 -3.040545  0.000000 -0.600223 -0.799832  0.076842 0.731139 1 64 1.000000
gun_tex
0  -3.680769 -10.207482 -2.002369  -0.000002 0.817067 0.576543  0.076842 0.731139 1 64 1.000000
0  -3.393486 -10.207482 -2.002369  -0.000002 0.817067 0.576543  0.076842 0.731139 1 64 1.000000
0  -3.393486 -9.912145 -2.420915  -0.000002 0.817067 0.576543  0.076842 0.731139 1 64 1.000000
gun_tex
0  -3.654597 -12.013000 -2.860775  0.000000 -0.966888 -0.255201  0.076842 0.731139 1 64 1.000000
0  -3.418671 -12.013000 -2.860775  0.000000 -0.966888 -0.255201  0.076842 0.731139 1 64 1.000000
0  -3.315961 -12.086958 -2.580569  0.000000 -0.966888 -0.255201  0.076842 0.731139 1 64 1.000000
gun_tex
0  -3.680769 -10.336061 -1.764724  0.000000 0.934629 0.355625  0.076842 0.731139 1 64 1.000000
0  -3.680769 -10.491220 -1.356945  0.000000 0.934629 0.355625  0.076842 0.731139 1 64 1.000000
0  -3.393486 -10.491220 -1.356945  0.000000 0.934629 0.355625  0.076842 0.731139 1 64 1.000000
gun_tex
0  -3.654597 -11.866429 -2.792369  0.000000 -0.116814 -0.993154  0.076842 0.731139 1 64 1.000000
0  -3.654597 -11.492140 -2.836393  0.000000 -0.116814 -0.993154  0.076842 0.731139 1 64 1.000000
0  -3.418672 -11.492140 -2.836393  0.000000 -0.116814 -0.993154  0.076842 0.731139 1 64 1.000000
gun_tex
0  -3.654597 -11.866429 -2.792369  0.000002 0.422918 -0.906168  0.076842 0.731139 1 64 1.000000
0  -3.418671 -11.866429 -2.792369  0.000002 0.422918 -0.906168  0.076842 0.731139 1 64 1.000000
0  -3.418671 -12.013000 -2.860775  0.000002 0.422918 -0.906168  0.076842 0.731139 1 64 1.000000
gun_tex
0  -3.654596 -11.308086 -5.055885  0.000000 -0.029679 -0.999560  0.076842 0.731139 1 64 1.000000
0  -3.680769 -8.915297 -5.126932  0.000000 -0.029679 -0.999560  0.076842 0.731139 1 64 1.000000
0  -3.393486 -8.915297 -5.126932  0.000000 -0.029679 -0.999560  0.076842 0.731139 1 64 1.000000
gun_tex
0  -3.680769 -9.912145 -2.420915  0.000000 0.872485 0.488642  0.076842 0.731139 1 64 1.000000
0  -3.393486 -9.912145 -2.420915  0.000000 0.872485 0.488642  0.076842 0.731139 1 64 1.000000
0  -3.393486 -9.495378 -3.165064  0.000000 0.872485 0.488642  0.076842 0.731139 1 64 1.000000
gun_tex
0  -3.418671 -11.129365 -4.155609  0.000000 -0.980859 0.194720  0.076842 0.731139 1 64 1.000000
0  -3.418671 -11.308086 -5.055886  0.000000 -0.980859 0.194720  0.076842 0.731139 1 64 1.000000
0  -3.299552 -11.308086 -5.055886  0.000000 -0.980859 0.194720  0.076842 0.731139 1 64 1.000000
gun_tex
0  -3.393486 -9.116117 -4.260207  0.000000 0.974192 0.225721  0.076842 0.731139 1 64 1.000000
0  -3.393486 -8.915297 -5.126932  0.000000 0.974192 0.225721  0.076842 0.731139 1 64 1.000000
0  -3.680769 -8.915297 -5.126932  0.000000 0.974192 0.225721  0.076842 0.731139 1 64 1.000000
gun_tex
0  -3.248436 -9.116117 -4.260207  0.000000 0.944940 0.327243  0.076842 0.731139 1 64 1.000000
0  -3.393486 -9.116117 -4.260207  0.000000 0.944940 0.327243  0.076842 0.731139 1 64 1.000000
0  -3.393486 -9.495378 -3.165064  0.000000 0.944940 0.327243  0.076842 0.731139 1 64 1.000000
gun_tex
0  -3.418671 -11.097407 -3.396463  0.000000 -0.945407 -0.325892  0.076842 0.731139 1 64 1.000000
0  -3.418671 -11.220095 -3.040545  0.000000 -0.945407 -0.325892  0.076842 0.731139 1 64 1.000000
0  -3.654597 -11.220095 -3.040545  0.000000 -0.945407 -0.325892  0.076842 0.731139 1 64 1.000000
gun_tex
0  -3.761330 -11.523934 -1.366757  0.000000 1.000000 0.000000  0.076842 0.731139 1 64 1.000000
0  -3.315961 -11.523934 -1.366757  0.000000 1.000000 0.000000  0.076842 0.731139 1 64 1.000000
0  -3.315961 -11.523934 -2.200960  0.000000 1.000000 0.000000  0.076842 0.731139 1 64 1.000000
gun_tex
0  -3.680769 -10.628021 -1.241732  -0.000002 0.644176 0.764877  0.076842 0.731139 1 64 1.000000
0  -3.393486 -10.628020 -1.241732  -0.000002 0.644176 0.764877  0.076842 0.731139 1 64 1.000000
0  -3.393486 -10.491220 -1.356945  -0.000002 0.644176 0.764877  0.076842 0.731139 1 64 1.000000
gun_tex
0  -3.299552 -11.129365 -4.155609  0.000000 -0.999115 0.042060  0.076842 0.731139 1 64 1.000000
0  -3.299552 -11.097407 -3.396463  0.000000 -0.999115 0.042060  0.076842 0.731139 1 64 1.000000
0  -3.418671 -11.097407 -3.396463  0.000000 -0.999115 0.042060  0.076842 0.731139 1 64 1.000000
gun_tex
0  -3.315961 -11.840423 -1.695685  0.000000 -0.720602 0.693349  0.076842 0.731139 1 64 1.000000
0  -3.315961 -11.523934 -1.366757  0.000000 -0.720602 0.693349  0.076842 0.731139 1 64 1.000000
0  -3.761330 -11.523934 -1.366757  0.000000 -0.720602 0.693349  0.076842 0.731139 1 64 1.000000
gun_tex
0  -3.761330 -12.086959 -2.580570  0.000002 -0.993362 0.115027  0.076842 0.731139 1 64 1.000000
0  -3.315961 -12.086958 -2.580569  0.000002 -0.993362 0.115027  0.076842 0.731139 1 64 1.000000
0  -3.315961 -12.029912 -2.087938  0.000002 -0.993362 0.115027  0.076842 0.731139 1 64 1.000000
gun_tex
0  -3.761330 -12.029912 -2.087938  0.000000 -0.900439 0.434983  0.076842 0.731139 1 64 1.000000
0  -3.315961 -12.029912 -2.087938  0.000000 -0.900439 0.434983  0.076842 0.731139 1 64 1.000000
0  -3.315961 -11.840423 -1.695685  0.000000 -0.900439 0.434983  0.076842 0.731139 1 64 1.000000
gun_tex
0  -3.977642 -11.840423 -1.695685  0.000000 -0.900438 0.434984  0.076842 0.731139 1 64 1.000000
0  -3.977642 -12.029912 -2.087938  0.000000 -0.900438 0.434984  0.076842 0.731139 1 64 1.000000
0  -3.761330 -12.029912 -2.087938  0.000000 -0.900438 0.434984  0.076842 0.731139 1 64 1.000000
gun_tex
0  -3.977642 -12.029912 -2.087938  -0.000004 -0.993362 0.115028  0.076842 0.731139 1 64 1.000000
0  -3.977643 -12.086958 -2.580570  -0.000004 -0.993362 0.115028  0.076842 0.731139 1 64 1.000000
0  -3.761330 -12.086959 -2.580570  -0.000004 -0.993362 0.115028  0.076842 0.731139 1 64 1.000000
gun_tex
0  -3.761330 -11.840423 -1.695685  -0.000001 -0.720602 0.693349  0.076842 0.731139 1 64 1.000000
0  -3.761330 -11.523934 -1.366757  -0.000001 -0.720602 0.693349  0.076842 0.731139 1 64 1.000000
0  -3.977642 -11.523934 -1.366757  -0.000001 -0.720602 0.693349  0.076842 0.731139 1 64 1.000000
gun_tex
0  -3.820300 -10.628021 -1.241732  0.000001 0.644174 0.764879  0.076842 0.731139 1 64 1.000000
0  -3.680769 -10.628021 -1.241732  0.000001 0.644174 0.764879  0.076842 0.731139 1 64 1.000000
0  -3.680769 -10.491220 -1.356945  0.000001 0.644174 0.764879  0.076842 0.731139 1 64 1.000000
gun_tex
0  -3.977642 -11.523934 -1.366757  0.000000 -0.345083 0.938572  0.076842 0.731139 1 64 1.000000
0  -3.761330 -11.523934 -1.366757  0.000000 -0.345083 0.938572  0.076842 0.731139 1 64 1.000000
0  -3.761330 -11.010838 -1.178108  0.000000 -0.345083 0.938572  0.076842 0.731139 1 64 1.000000
gun_tex
0  -3.769184 -11.097407 -3.396464  0.000000 -0.945409 -0.325888  0.076842 0.731139 1 64 1.000000
0  -3.654597 -11.097407 -3.396464  0.000000 -0.945409 -0.325888  0.076842 0.731139 1 64 1.000000
0  -3.654597 -11.220095 -3.040545  0.000000 -0.945409 -0.325888  0.076842 0.731139 1 64 1.000000
gun_tex
0  -3.820301 -9.116117 -4.260207  0.000000 0.974192 0.225720  0.076842 0.731139 1 64 1.000000
0  -3.680769 -9.116117 -4.260207  0.000000 0.974192 0.225720  0.076842 0.731139 1 64 1.000000
0  -3.680769 -8.915297 -5.126932  0.000000 0.974192 0.225720  0.076842 0.731139 1 64 1.000000
gun_tex
0  -3.680769 -9.912145 -2.420915  0.000000 0.872485 0.488641  0.076842 0.731139 1 64 1.000000
0  -3.680769 -9.495378 -3.165064  0.000000 0.872485 0.488641  0.076842 0.731139 1 64 1.000000
0  -3.820301 -9.495378 -3.165064  0.000000 0.872485 0.488641  0.076842 0.731139 1 64 1.000000
gun_tex
0  -3.769184 -11.308086 -5.055886  0.000000 -0.016773 -0.999859  0.076842 0.731139 1 64 1.000000
0  -3.977642 -11.150354 -5.058533  0.000000 -0.016773 -0.999859  0.076842 0.731139 1 64 1.000000
0  -3.654596 -11.308086 -5.055885  0.000000 -0.016773 -0.999859  0.076842 0.731139 1 64 1.000000
gun_tex
0  -3.977642 -11.150354 -5.058533  -0.007276 -0.031676 -0.999472  0.076842 0.731139 1 64 1.000000
0  -3.977643 -9.090439 -5.123816  -0.007276 -0.031676 -0.999472  0.076842 0.731139 1 64 1.000000
0  -3.654596 -11.308086 -5.055885  -0.007276 -0.031676 -0.999472  0.076842 0.731139 1 64 1.000000
gun_tex
0  -3.977643 -9.090439 -5.123816  0.000000 -0.017786 -0.999842  0.076842 0.731139 1 64 1.000000
0  -3.820301 -8.915297 -5.126932  0.000000 -0.017786 -0.999842  0.076842 0.731139 1 64 1.000000
0  -3.680769 -8.915297 -5.126932  0.000000 -0.017786 -0.999842  0.076842 0.731139 1 64 1.000000
gun_tex
0  -3.654597 -11.866429 -2.792369  0.000005 0.422916 -0.906169  0.076842 0.731139 1 64 1.000000
0  -3.654597 -12.013000 -2.860775  0.000005 0.422916 -0.906169  0.076842 0.731139 1 64 1.000000
0  -3.769184 -12.013000 -2.860775  0.000005 0.422916 -0.906169  0.076842 0.731139 1 64 1.000000
gun_tex
0  -3.769184 -11.492140 -2.836392  0.000000 -0.116814 -0.993154  0.076842 0.731139 1 64 1.000000
0  -3.654597 -11.492140 -2.836393  0.000000 -0.116814 -0.993154  0.076842 0.731139 1 64 1.000000
0  -3.654597 -11.866429 -2.792369  0.000000 -0.116814 -0.993154  0.076842 0.731139 1 64 1.000000
gun_tex
0  -3.820300 -10.336061 -1.764724  0.000000 0.934629 0.355624  0.076842 0.731139 1 64 1.000000
0  -3.820300 -10.491220 -1.356945  0.000000 0.934629 0.355624  0.076842 0.731139 1 64 1.000000
0  -3.680769 -10.491220 -1.356945  0.000000 0.934629 0.355624  0.076842 0.731139 1 64 1.000000
gun_tex
0  -3.769184 -12.013000 -2.860775  -0.000008 -0.966886 -0.255207  0.076842 0.731139 1 64 1.000000
0  -3.654597 -12.013000 -2.860775  -0.000008 -0.966886 -0.255207  0.076842 0.731139 1 64 1.000000
0  -3.761330 -12.086959 -2.580570  -0.000008 -0.966886 -0.255207  0.076842 0.731139 1 64 1.000000
gun_tex
0  -3.820301 -10.207482 -2.002369  0.000000 0.817066 0.576545  0.076842 0.731139 1 64 1.000000
0  -3.680769 -10.207482 -2.002369  0.000000 0.817066 0.576545  0.076842 0.731139 1 64 1.000000
0  -3.680769 -9.912145 -2.420915  0.000000 0.817066 0.576545  0.076842 0.731139 1 64 1.000000
gun_tex
0  -3.820300 -10.336061 -1.764724  0.000000 0.879517 0.475868  0.076842 0.731139 1 64 1.000000
0  -3.680769 -10.336061 -1.764724  0.000000 0.879517 0.475868  0.076842 0.731139 1 64 1.000000
0  -3.680769 -10.207482 -2.002369  0.000000 0.879517 0.475868  0.076842 0.731139 1 64 1.000000
gun_tex
0  -3.761330 -11.010838 -1.178108  0.979121 -0.200940 0.030735  0.076842 0.731139 1 64 1.000000
0  -3.761330 -11.156563 -2.130856  0.979121 -0.200940 0.030735  0.076842 0.731139 1 64 1.000000
0  -3.680769 -10.773745 -2.194480  0.979121 -0.200940 0.030735  0.076842 0.731139 1 64 1.000000
gun_tex
0  -3.418672 -11.492140 -2.836393  0.000000 -0.600224 -0.799832  0.076842 0.731139 1 64 1.000000
0  -3.654597 -11.492140 -2.836393  0.000000 -0.600224 -0.799832  0.076842 0.731139 1 64 1.000000
0  -3.654597 -11.220095 -3.040545  0.000000 -0.600224 -0.799832  0.076842 0.731139 1 64 1.000000
gun_tex
0  -3.418671 -11.129365 -4.155609  0.000000 -0.980859 0.194719  0.076842 0.731139 1 64 1.000000
0  -3.654597 -11.129365 -4.155609  0.000000 -0.980859 0.194719  0.076842 0.731139 1 64 1.000000
0  -3.654596 -11.308086 -5.055885  0.000000 -0.980859 0.194719  0.076842 0.731139 1 64 1.000000
gun_tex
0  -3.393486 -9.116117 -4.260207  0.000000 0.944940 0.327244  0.076842 0.731139 1 64 1.000000
0  -3.680769 -9.116117 -4.260207  0.000000 0.944940 0.327244  0.076842 0.731139 1 64 1.000000
0  -3.680769 -9.495378 -3.165064  0.000000 0.944940 0.327244  0.076842 0.731139 1 64 1.000000
gun_tex
0  -3.418671 -11.097407 -3.396463  0.000000 -0.999115 0.042058  0.076842 0.731139 1 64 1.000000
0  -3.654597 -11.097407 -3.396464  0.000000 -0.999115 0.042058  0.076842 0.731139 1 64 1.000000
0  -3.654597 -11.129365 -4.155609  0.000000 -0.999115 0.042058  0.076842 0.731139 1 64 1.000000
gun_tex
0  -3.680769 -10.773745 -2.194480  0.000000 0.163951 0.986469  0.076842 0.731139 1 64 1.000000
0  -3.761330 -11.156563 -2.130856  0.000000 0.163951 0.986469  0.076842 0.731139 1 64 1.000000
0  -3.315961 -11.156563 -2.130856  0.000000 0.163951 0.986469  0.076842 0.731139 1 64 1.000000
gun_tex
0  -3.680769 -10.628021 -1.241732  0.000000 -0.988504 0.151192  0.076842 0.731139 1 64 1.000000
0  -3.680769 -10.773745 -2.194480  0.000000 -0.988504 0.151192  0.076842 0.731139 1 64 1.000000
0  -3.393486 -10.773745 -2.194480  0.000000 -0.988504 0.151192  0.076842 0.731139 1 64 1.000000
gun_tex
0  -3.315961 -11.010838 -1.178108  -0.980621 -0.193662 0.029620  0.076842 0.731139 1 64 1.000000
0  -3.393486 -10.628020 -1.241732  -0.980621 -0.193662 0.029620  0.076842 0.731139 1 64 1.000000
0  -3.393486 -10.773745 -2.194480  -0.980621 -0.193662 0.029620  0.076842 0.731139 1 64 1.000000
gun_tex
0  -3.761330 -11.010838 -2.012311  0.000000 -0.345082 0.938572  0.076842 0.731139 1 64 1.000000
0  -3.761330 -11.523934 -2.200961  0.000000 -0.345082 0.938572  0.076842 0.731139 1 64 1.000000
0  -3.315961 -11.523934 -2.200960  0.000000 -0.345082 0.938572  0.076842 0.731139 1 64 1.000000
gun_tex
0  -3.761330 -11.523934 -1.366757  1.000000 -0.000000 0.000000  0.076842 0.731139 1 64 1.000000
0  -3.761330 -11.523934 -2.200961  1.000000 -0.000000 0.000000  0.076842 0.731139 1 64 1.000000
0  -3.761330 -11.010838 -2.012311  1.000000 -0.000000 0.000000  0.076842 0.731139 1 64 1.000000
gun_tex
0  -3.315961 -11.523934 -1.366757  -1.000000 0.000000 0.000000  0.076842 0.731139 1 64 1.000000
0  -3.315961 -11.010838 -1.178108  -1.000000 0.000000 0.000000  0.076842 0.731139 1 64 1.000000
0  -3.315961 -11.010838 -2.012311  -1.000000 0.000000 0.000000  0.076842 0.731139 1 64 1.000000
gun_tex
0  -3.059587 -11.088387 -2.446001  0.000000 -0.499996 -0.866028  0.832175 0.177377 1 64 1.000000
0  -4.009148 -10.859069 -2.578397  0.000000 -0.499996 -0.866028  0.832175 0.177377 1 64 1.000000
0  -3.059587 -10.859069 -2.578397  0.000000 -0.499996 -0.866028  0.832175 0.177377 1 64 1.000000
gun_tex
0  -4.009148 -10.859069 -2.578397  0.000000 0.500003 -0.866023  0.832175 0.177377 1 64 1.000000
0  -3.059587 -10.629752 -2.446000  0.000000 0.500003 -0.866023  0.832175 0.177377 1 64 1.000000
0  -3.059587 -10.859069 -2.578397  0.000000 0.500003 -0.866023  0.832175 0.177377 1 64 1.000000
gun_tex
0  -4.009149 -11.088387 -2.181208  0.000000 -1.000000 0.000000  0.832175 0.177377 1 64 1.000000
0  -3.059587 -11.088387 -2.446001  0.000000 -1.000000 0.000000  0.832175 0.177377 1 64 1.000000
0  -3.059587 -11.088387 -2.181208  0.000000 -1.000000 0.000000  0.832175 0.177377 1 64 1.000000
gun_tex
0  -4.009149 -11.088387 -2.181208  -0.000001 -0.500001 0.866025  0.832175 0.177377 1 64 1.000000
0  -3.059587 -10.859070 -2.048812  -0.000001 -0.500001 0.866025  0.832175 0.177377 1 64 1.000000
0  -4.009149 -10.859069 -2.048811  -0.000001 -0.500001 0.866025  0.832175 0.177377 1 64 1.000000
gun_tex
0  -4.009148 -10.629753 -2.181208  -0.000001 1.000000 0.000000  0.832175 0.177377 1 64 1.000000
0  -3.059587 -10.629752 -2.446000  -0.000001 1.000000 0.000000  0.832175 0.177377 1 64 1.000000
0  -4.009148 -10.629753 -2.446000  -0.000001 1.000000 0.000000  0.832175 0.177377 1 64 1.000000
gun_tex
0  -3.059587 -10.629752 -2.181208  0.000001 0.499997 0.866027  0.832175 0.177377 1 64 1.000000
0  -4.009149 -10.859069 -2.048811  0.000001 0.499997 0.866027  0.832175 0.177377 1 64 1.000000
0  -3.059587 -10.859070 -2.048812  0.000001 0.499997 0.866027  0.832175 0.177377 1 64 1.000000
gun_tex
0  -4.009149 -10.859069 -2.048811  -1.000000 0.000004 -0.000001  0.832175 0.177377 1 64 1.000000
0  -4.009148 -10.629753 -2.181208  -1.000000 0.000004 -0.000001  0.832175 0.177377 1 64 1.000000
0  -4.009148 -10.859069 -2.578397  -1.000000 0.000004 -0.000001  0.832175 0.177377 1 64 1.000000
gun_tex
0  -3.059587 -10.859070 -2.048812  1.000000 0.000002 0.000000  0.832175 0.177377 1 64 1.000000
0  -3.059587 -11.088387 -2.181208  1.000000 0.000002 0.000000  0.832175 0.177377 1 64 1.000000
0  -3.059587 -11.088387 -2.446001  1.000000 0.000002 0.000000  0.832175 0.177377 1 64 1.000000
gun_tex
0  -3.059587 -11.088387 -2.446001  0.000000 -0.499998 -0.866027  0.832175 0.177377 1 64 1.000000
0  -4.009149 -11.088387 -2.446001  0.000000 -0.499998 -0.866027  0.832175 0.177377 1 64 1.000000
0  -4.009148 -10.859069 -2.578397  0.000000 -0.499998 -0.866027  0.832175 0.177377 1 64 1.000000
gun_tex
0  -4.009148 -10.859069 -2.578397  -0.000000 0.500004 -0.866023  0.832175 0.177377 1 64 1.000000
0  -4.009148 -10.629753 -2.446000  -0.000000 0.500004 -0.866023  0.832175 0.177377 1 64 1.000000
0  -3.059587 -10.629752 -2.446000  -0.000000 0.500004 -0.866023  0.832175 0.177377 1 64 1.000000
gun_tex
0  -4.009149 -11.088387 -2.181208  0.000000 -1.000000 0.000000  0.832175 0.177377 1 64 1.000000
0  -4.009149 -11.088387 -2.446001  0.000000 -1.000000 0.000000  0.832175 0.177377 1 64 1.000000
0  -3.059587 -11.088387 -2.446001  0.000000 -1.000000 0.000000  0.832175 0.177377 1 64 1.000000
gun_tex
0  -4.009149 -11.088387 -2.181208  0.000000 -0.500001 0.866025  0.832175 0.177377 1 64 1.000000
0  -3.059587 -11.088387 -2.181208  0.000000 -0.500001 0.866025  0.832175 0.177377 1 64 1.000000
0  -3.059587 -10.859070 -2.048812  0.000000 -0.500001 0.866025  0.832175 0.177377 1 64 1.000000
gun_tex
0  -4.009148 -10.629753 -2.181208  -0.000001 1.000000 -0.000003  0.832175 0.177377 1 64 1.000000
0  -3.059587 -10.629752 -2.181208  -0.000001 1.000000 -0.000003  0.832175 0.177377 1 64 1.000000
0  -3.059587 -10.629752 -2.446000  -0.000001 1.000000 -0.000003  0.832175 0.177377 1 64 1.000000
gun_tex
0  -3.059587 -10.629752 -2.181208  -0.000001 0.500005 0.866022  0.832175 0.177377 1 64 1.000000
0  -4.009148 -10.629753 -2.181208  -0.000001 0.500005 0.866022  0.832175 0.177377 1 64 1.000000
0  -4.009149 -10.859069 -2.048811  -0.000001 0.500005 0.866022  0.832175 0.177377 1 64 1.000000
gun_tex
0  -4.009148 -10.629753 -2.181208  -1.000000 0.000000 0.000000  0.832175 0.177377 1 64 1.000000
0  -4.009148 -10.629753 -2.446000  -1.000000 0.000000 0.000000  0.832175 0.177377 1 64 1.000000
0  -4.009148 -10.859069 -2.578397  -1.000000 0.000000 0.000000  0.832175 0.177377 1 64 1.000000
gun_tex
0  -4.009148 -10.859069 -2.578397  -1.000000 -0.000004 0.000000  0.832175 0.177377 1 64 1.000000
0  -4.009149 -11.088387 -2.446001  -1.000000 -0.000004 0.000000  0.832175 0.177377 1 64 1.000000
0  -4.009149 -11.088387 -2.181208  -1.000000 -0.000004 0.000000  0.832175 0.177377 1 64 1.000000
gun_tex
0  -4.009149 -11.088387 -2.181208  -1.000000 0.000000 -0.000001  0.832175 0.177377 1 64 1.000000
0  -4.009149 -10.859069 -2.048811  -1.000000 0.000000 -0.000001  0.832175 0.177377 1 64 1.000000
0  -4.009148 -10.859069 -2.578397  -1.000000 0.000000 -0.000001  0.832175 0.177377 1 64 1.000000
gun_tex
0  -3.059587 -11.088387 -2.446001  1.000000 0.000000 0.000000  0.832175 0.177377 1 64 1.000000
0  -3.059587 -10.859069 -2.578397  1.000000 0.000000 0.000000  0.832175 0.177377 1 64 1.000000
0  -3.059587 -10.859070 -2.048812  1.000000 0.000000 0.000000  0.832175 0.177377 1 64 1.000000
gun_tex
0  -3.059587 -10.859069 -2.578397  1.000000 0.000000 0.000000  0.832175 0.177377 1 64 1.000000
0  -3.059587 -10.629752 -2.446000  1.000000 0.000000 0.000000  0.832175 0.177377 1 64 1.000000
0  -3.059587 -10.859070 -2.048812  1.000000 0.000000 0.000000  0.832175 0.177377 1 64 1.000000
gun_tex
0  -3.059587 -10.629752 -2.446000  1.000000 0.000003 0.000001  0.832175 0.177377 1 64 1.000000
0  -3.059587 -10.629752 -2.181208  1.000000 0.000003 0.000001  0.832175 0.177377 1 64 1.000000
0  -3.059587 -10.859070 -2.048812  1.000000 0.000003 0.000001  0.832175 0.177377 1 64 1.000000
end
