version 1
nodes
0 "ValveBiped.Bip01_Spine4" -1
1 "ValveBiped.Bip01_L_Clavicle" 0
2 "ValveBiped.Bip01_L_UpperArm" 1
3 "ValveBiped.Bip01_L_Forearm" 2
4 "ValveBiped.Bip01_L_Hand" 3
5 "ValveBiped.Bip01_L_Finger4" 4
6 "ValveBiped.Bip01_L_Finger41" 5
7 "ValveBiped.Bip01_L_Finger42" 6
8 "ValveBiped.Bip01_L_Finger3" 4
9 "ValveBiped.Bip01_L_Finger31" 8
10 "ValveBiped.Bip01_L_Finger32" 9
11 "ValveBiped.Bip01_L_Finger2" 4
12 "ValveBiped.Bip01_L_Finger21" 11
13 "ValveBiped.Bip01_L_Finger22" 12
14 "ValveBiped.Bip01_L_Finger1" 4
15 "ValveBiped.Bip01_L_Finger11" 14
16 "ValveBiped.Bip01_L_Finger12" 15
17 "ValveBiped.Bip01_L_Finger0" 4
18 "ValveBiped.Bip01_L_Finger01" 17
19 "ValveBiped.Bip01_L_Finger02" 18
20 "ValveBiped.Bip01_L_Ulna" 3
21 "ValveBiped.Bip01_L_Wrist" 3
22 "rig_l_upperarm" 1
23 "rig_l_forearm" 22
24 "rig_d_l_forearm" 23
25 "rig_d_l_upperarm" 22
26 "ValveBiped.Bip01_R_Clavicle" 0
27 "ValveBiped.Bip01_R_UpperArm" 26
28 "ValveBiped.Bip01_R_Forearm" 27
29 "ValveBiped.Bip01_R_Hand" 28
30 "ValveBiped.Bip01_R_Finger4" 29
31 "ValveBiped.Bip01_R_Finger41" 30
32 "ValveBiped.Bip01_R_Finger42" 31
33 "ValveBiped.Bip01_R_Finger3" 29
34 "ValveBiped.Bip01_R_Finger31" 33
35 "ValveBiped.Bip01_R_Finger32" 34
36 "ValveBiped.Bip01_R_Finger2" 29
37 "ValveBiped.Bip01_R_Finger21" 36
38 "ValveBiped.Bip01_R_Finger22" 37
39 "ValveBiped.Bip01_R_Finger1" 29
40 "ValveBiped.Bip01_R_Finger11" 39
41 "ValveBiped.Bip01_R_Finger12" 40
42 "ValveBiped.Bip01_R_Finger0" 29
43 "ValveBiped.Bip01_R_Finger01" 42
44 "ValveBiped.Bip01_R_Finger02" 43
45 "ValveBiped.Bip01_R_Ulna" 28
46 "ValveBiped.Bip01_R_Wrist" 28
47 "rig_r_upperarm" 26
48 "rig_r_forearm" 47
49 "rig_d_r_forearm" 48
50 "rig_d_r_upperarm" 47
51 "rig_r_hand" -1
52 "rig_d_r_hand" 51
53 "rig_d_r_wrist" 52
54 "rig_l_hand" -1
55 "rig_d_l_hand" 54
56 "rig_d_l_wrist" 54
57 "rig_l_pole" -1
58 "rig_r_pole" -1
59 "rig_l_clavicle" -1
60 "rig_d_l_clavicle" 59
61 "rig_r_clavicle" -1
62 "rig_d_r_clavicle" 61
63 "Camera" -1
64 "body" -1
65 "trigger" 64
66 "barrel" 64
67 "bulletdoor" 64
68 "pump" 64
69 "bolt" 68
70 "bullet2" 64
71 "bullet1" -1
end
skeleton
time 0
0  0.000006 0.000000 0.000000  -1.570800 -1.391899 -1.570792
1  -4.327822 -0.845730 -0.674796  -1.544956 -1.855077 -0.198630
2  6.027523 -0.000325 0.000193  -1.006071 -1.096739 -1.156695
3  11.692110 0.000645 -0.000739  -1.496256 -0.000006 -1.196810
4  11.480223 0.000707 -0.000363  1.387143 -0.484242 0.000862
5  3.859509 -0.142879 -1.192049  -0.579539 -0.183420 -1.732239
6  1.312590 0.000011 0.000008  -0.131955 -0.016631 -0.158592
7  0.729356 0.000055 0.000048  -0.005202 -0.009910 -0.156069
8  3.942143 0.046273 -0.431512  -0.453610 0.194124 -1.193733
9  1.539112 0.000082 0.000005  -0.018355 -0.067881 -0.869692
10  1.196331 0.000145 0.000031  0.007769 0.001612 -0.180400
11  3.883506 -0.047269 0.431382  -0.215638 0.490181 -0.673223
12  1.719572 -0.000028 0.000015  0.010250 -0.085026 -1.028971
13  1.209179 0.000091 0.000012  -0.009449 -0.006481 -0.608519
14  4.085225 -0.082715 1.151041  -0.157585 0.572898 -0.390910
15  1.719450 -0.000012 0.000022  0.001790 -0.041125 -0.529230
16  1.099674 0.000046 0.000004  -0.067291 0.039757 -1.402107
17  0.971586 -1.283499 0.847609  -0.978328 -0.625346 -0.310208
18  1.789820 -0.000002 -0.000018  0.000998 -0.014468 0.721477
19  1.207016 -0.000012 -0.000043  0.001593 -0.000026 -0.111145
20  5.740636 0.000411 -0.000703  -0.063002 0.000003 0.000071
21  11.481053 0.000352 -0.000731  -0.029162 -0.076276 -0.019477
22  6.027525 -0.000329 0.000203  1.723310 -0.450718 1.645633
23  0.000002 11.692100 -0.000007  -0.845804 -0.318306 -0.685077
24  0.000004 0.000008 -0.000002  -0.627172 -0.000030 1.570739
25  -0.000001 -0.000011 -0.000000  0.868957 0.000002 1.570712
26  -3.286773 -12.103185 2.073871  1.473120 1.855075 -0.198639
27  6.027503 -0.000263 -0.000230  1.571187 0.570438 -0.127940
28  11.691993 0.000242 0.000856  0.577924 0.000076 -1.895010
29  11.478849 -0.000674 0.001423  -0.717568 0.474217 0.975649
30  3.452862 -0.227595 1.051754  0.866917 -0.155786 -1.945490
31  1.312558 0.000026 -0.000000  -0.014457 -0.063592 -0.435904
32  0.729345 0.000065 -0.000028  0.011053 -0.006488 -0.934426
33  3.942046 0.050109 0.430997  0.518604 -0.133149 -1.821461
34  1.539097 0.000010 -0.000000  -0.017633 -0.034040 -0.503363
35  1.196299 0.000076 -0.000004  0.002797 -0.001242 -1.200850
36  3.883412 -0.050502 -0.431087  0.293878 -0.290992 -1.474083
37  1.719563 -0.000079 -0.000003  -0.026586 -0.002244 -1.035463
38  1.209197 0.000036 0.000011  0.002758 -0.001679 -0.793418
39  3.806436 -0.112148 -1.295329  0.047322 -0.340490 -0.456146
40  1.719412 -0.000099 -0.000034  0.047490 0.002654 -0.061535
41  1.099672 0.000025 0.000006  -0.003113 -0.003642 -0.973980
42  0.866372 -0.355430 -1.353142  1.256088 0.164937 -1.034935
43  1.789779 -0.000009 -0.000043  0.032864 0.053221 0.044527
44  1.206996 -0.000006 0.000005  -0.246597 -0.001906 1.495868
45  5.740572 0.000055 0.000723  0.160067 -0.000014 0.000021
46  11.480715 -0.000099 0.001034  0.119682 0.134504 0.132056
47  6.027514 -0.000273 -0.000237  -0.698587 -0.574231 -1.270814
48  -0.000002 11.691977 -0.000007  -1.261878 0.707724 0.936308
49  0.000003 -0.000000 -0.000000  2.850449 -0.000041 1.570856
50  -0.000008 -0.000014 0.000005  2.272644 -0.000030 1.570865
51  -4.156372 -0.988710 -4.120701  -0.014842 2.988950 1.463816
52  0.000000 -0.000000 0.000000  0.008153 -0.000259 0.000009
53  -0.000000 0.000000 0.000000  1.565115 0.043565 -0.106862
54  -0.794370 -16.643337 -5.859766  -1.068589 -0.115470 -1.927258
55  0.000000 -0.000000 -0.000000  0.000000 -0.000000 -0.000002
56  0.000030 0.000029 0.000001  -1.571902 -0.044449 -0.106509
57  10.135489 -14.168441 -19.256790  1.570796 -0.000000 0.000000
58  -18.972424 8.517178 -9.782257  1.570796 -0.000000 0.000000
59  -0.670483 1.601972 -4.109488  1.570796 -0.000000 0.000000
60  -0.004311 0.001230 -0.000371  0.006898 -0.005534 -0.284229
61  2.073871 12.494887 -1.080626  1.570796 -0.000000 0.000000
62  0.000000 0.000000 0.000000  -0.078727 -3.136056 0.284226
63  0.000000 0.000000 0.000000  1.570796 -0.000000 0.000000
64  -2.522002 -9.454674 -1.977162  1.549086 0.053723 0.014481
65  -0.122191 -2.163893 -2.142130  0.000000 0.000000 0.000000
66  -0.122184 -0.302733 22.953674  0.000000 0.000000 0.000000
67  -0.109402 -1.967005 0.526452  0.000000 0.000000 0.000000
68  -0.104047 -4.495923 7.879277  0.000000 0.000000 0.000000
69  -0.195264 4.332631 -6.347187  0.000000 0.000000 0.000000
70  -0.130187 -1.733180 6.860656  0.000000 0.000000 0.000000
71  -2.658990 -14.954163 -3.578804  1.549086 0.053723 0.014481
time 1
0  0.000006 0.000000 0.000000  -1.570800 -1.391899 -1.570792
1  -4.409623 -0.706214 -0.616880  -1.544956 -1.855077 -0.198630
2  6.027521 -0.000326 0.000193  -1.053381 -1.070228 -1.124129
3  11.692112 0.000643 -0.000740  -1.484805 -0.000009 -1.230687
4  11.480062 0.000695 -0.000453  1.308756 -0.468111 -0.012677
5  3.859510 -0.142879 -1.192049  -0.561679 0.085120 -1.160336
6  1.312590 0.000013 0.000007  -0.066123 -0.007156 -0.124511
7  0.729354 0.000055 0.000050  -0.002914 -0.004777 -0.025271
8  3.942145 0.046273 -0.431512  -0.278406 0.188183 -0.823969
9  1.539110 0.000082 0.000005  -0.017617 -0.031711 -0.383947
10  1.196333 0.000145 0.000030  0.003913 0.000716 -0.130659
11  3.883506 -0.047269 0.431381  -0.030876 0.256693 -0.429444
12  1.719573 -0.000026 0.000015  -0.005605 -0.041077 -0.522518
13  1.209181 0.000093 0.000011  -0.005077 -0.000805 -0.237574
14  4.085224 -0.082715 1.151042  0.108809 0.217644 -0.245800
15  1.719448 -0.000011 0.000022  -0.001310 -0.018679 -0.271140
16  1.099677 0.000048 0.000007  -0.025857 0.034623 -0.648499
17  0.971589 -1.283499 0.847610  -1.243808 -0.574786 -0.417491
18  1.789819 -0.000004 -0.000018  0.002108 -0.004496 0.324272
19  1.207016 -0.000012 -0.000043  0.000504 -0.000138 -0.065201
20  5.740636 0.000410 -0.000704  -0.081362 0.000003 0.000070
21  11.481023 0.000350 -0.000750  -0.044735 -0.073174 -0.025783
22  6.027524 -0.000330 0.000203  1.756996 -0.467491 1.621461
23  0.000001 11.692101 -0.000007  -0.866823 -0.334828 -0.700207
24  0.000003 0.000008 -0.000001  -0.615719 -0.000030 1.570739
25  -0.000001 -0.000011 -0.000001  0.868957 0.000002 1.570712
26  -3.399987 -11.968000 1.984940  1.473120 1.855075 -0.198639
27  6.027503 -0.000262 -0.000233  1.599428 0.499932 -0.163910
28  11.691990 0.000243 0.000856  0.568320 0.000076 -1.900768
29  11.478797 -0.000705 0.001430  -0.886636 0.412294 0.941976
30  3.452862 -0.227594 1.051754  0.406972 -0.281772 -0.608989
31  1.312558 0.000026 -0.000000  -0.000002 -0.000045 -0.148961
32  0.729345 0.000065 -0.000027  -0.000028 -0.000012 0.046463
33  3.942046 0.050109 0.430997  0.121277 -0.118787 -0.520714
34  1.539096 0.000010 0.000000  0.000007 -0.000010 0.042929
35  1.196299 0.000076 -0.000004  -0.000009 -0.000006 -0.140034
36  3.883411 -0.050502 -0.431087  -0.089865 -0.000690 -0.298025
37  1.719563 -0.000078 -0.000003  -0.002289 -0.007626 -0.075726
38  1.209196 0.000037 0.000011  -0.001276 -0.004274 0.074338
39  3.806436 -0.112148 -1.295329  -0.330197 0.136798 -0.257131
40  1.719412 -0.000100 -0.000035  -0.001915 -0.006300 -0.072277
41  1.099673 0.000024 0.000006  -0.001196 -0.004013 0.046405
42  0.866373 -0.355430 -1.353142  1.164428 0.402869 -0.964384
43  1.789779 -0.000009 -0.000042  0.021405 0.027792 -0.033390
44  1.206996 -0.000006 0.000005  -0.119223 -0.047516 0.751339
45  5.740571 0.000055 0.000724  0.138013 -0.000014 0.000021
46  11.480703 -0.000105 0.001036  0.097835 0.109631 0.140894
47  6.027515 -0.000273 -0.000239  -0.609809 -0.579050 -1.369622
48  -0.000002 11.691973 -0.000005  -1.265312 0.711267 0.937787
49  0.000004 -0.000001 -0.000000  2.840844 -0.000041 1.570856
50  -0.000007 -0.000015 0.000005  2.272644 -0.000030 1.570865
51  -5.185349 -0.968363 -4.390759  -0.119590 2.960301 1.460318
52  0.000000 -0.000000 -0.000000  0.008153 -0.000259 0.000009
53  0.000000 -0.000000 -0.000000  1.565115 0.043565 -0.106862
54  -0.375902 -16.644222 -6.070739  -1.158753 -0.148067 -1.915583
55  -0.000000 0.000000 -0.000000  0.000000 -0.000000 -0.000002
56  0.000030 0.000029 0.000001  -1.571902 -0.044449 -0.106509
57  10.222549 -14.139762 -19.549992  1.570796 -0.000000 0.000000
58  -19.681421 8.206700 -11.054039  1.570796 -0.000000 0.000000
59  -0.612567 1.479239 -4.214810  1.570796 -0.000000 0.000000
60  -0.004311 0.001230 -0.000371  0.006898 -0.005534 -0.284229
61  1.984940 12.382006 -1.216089  1.570796 -0.000000 0.000000
62  0.000000 0.000000 0.000000  -0.078727 -3.136056 0.284226
63  0.000000 0.000000 0.000000  1.568900 0.001131 -0.001158
64  -2.527930 -10.338227 -1.859667  1.549696 0.052219 0.058090
65  -0.122191 -2.163893 -2.142130  0.000000 0.000000 0.000000
66  -0.122185 -0.302733 22.953672  0.000000 0.000000 0.000000
67  -0.109402 -1.967005 0.526452  0.000000 0.000000 0.000000
68  -0.104048 -4.495923 7.879276  0.000000 0.000000 0.000000
69  -0.195264 4.332630 -6.347188  0.000000 0.000000 0.000000
70  -0.130187 -1.733180 6.860657  0.000000 0.000000 0.000000
71  -2.422867 -15.837348 -3.464979  1.549696 0.052219 0.058090
time 2
0  0.000006 0.000000 0.000000  -1.570800 -1.391899 -1.570792
1  -4.655810 -0.286328 -0.442577  -1.544956 -1.855077 -0.198630
2  6.027520 -0.000326 0.000194  -1.170692 -0.937183 -1.022588
3  11.692112 0.000644 -0.000738  -1.449603 -0.000013 -1.319792
4  11.480377 0.000691 -0.000372  1.444512 -0.416560 -0.035866
5  3.859509 -0.142880 -1.192050  -0.394539 0.299157 -0.554440
6  1.312589 0.000010 0.000007  -0.000009 0.000051 -0.089883
7  0.729356 0.000054 0.000050  0.000023 0.000013 0.105537
8  3.942145 0.046273 -0.431512  -0.117741 0.120704 -0.462798
9  1.539111 0.000083 0.000004  0.000001 0.000022 0.102014
10  1.196335 0.000143 0.000029  0.000017 0.000014 -0.080915
11  3.883505 -0.047269 0.431381  0.088183 -0.008874 -0.239400
12  1.719573 -0.000027 0.000015  0.001905 0.005179 -0.016672
13  1.209179 0.000090 0.000012  0.001063 0.002903 0.133420
14  4.085223 -0.082716 1.151040  0.320600 -0.159664 -0.200164
15  1.719449 -0.000012 0.000021  0.001422 0.003814 -0.013163
16  1.099675 0.000049 0.000006  0.000887 0.002421 0.105475
17  0.971587 -1.283499 0.847609  -1.424527 -0.738760 -0.480418
18  1.789820 -0.000002 -0.000018  -0.000740 0.005137 -0.073161
19  1.207015 -0.000013 -0.000046  -0.000595 -0.000176 0.013480
20  5.740638 0.000409 -0.000701  -0.049437 0.000003 0.000070
21  11.481085 0.000348 -0.000731  -0.019783 -0.062141 -0.023087
22  6.027524 -0.000331 0.000203  1.891336 -0.556524 1.557844
23  0.000001 11.692100 -0.000007  -0.921445 -0.379673 -0.738645
24  0.000001 0.000008 -0.000002  -0.580513 -0.000030 1.570739
25  -0.000000 -0.000012 -0.000001  0.868957 0.000002 1.570712
26  -3.740715 -11.561150 1.717296  1.473120 1.855075 -0.198639
27  6.027503 -0.000261 -0.000230  1.695991 0.409004 -0.241201
28  11.691992 0.000243 0.000856  0.539358 0.000067 -1.787078
29  11.479797 -0.000263 0.001119  -1.076136 0.262490 0.746688
30  3.452861 -0.227595 1.051754  0.406972 -0.281773 -0.608989
31  1.312558 0.000025 0.000000  -0.000002 -0.000045 -0.148961
32  0.729345 0.000065 -0.000027  -0.000028 -0.000012 0.046463
33  3.942046 0.050109 0.430996  0.121277 -0.118787 -0.520714
34  1.539096 0.000010 0.000000  0.000007 -0.000010 0.042929
35  1.196300 0.000076 -0.000004  -0.000009 -0.000006 -0.140034
36  3.883411 -0.050501 -0.431087  -0.089865 -0.000690 -0.298025
37  1.719563 -0.000080 -0.000004  -0.002289 -0.007626 -0.075726
38  1.209197 0.000036 0.000011  -0.001276 -0.004274 0.074338
39  3.806435 -0.112147 -1.295329  -0.330197 0.136798 -0.257131
40  1.719412 -0.000100 -0.000034  -0.001915 -0.006300 -0.072277
41  1.099674 0.000024 0.000007  -0.001196 -0.004013 0.046405
42  0.866373 -0.355430 -1.353142  1.079795 0.646453 -0.910435
43  1.789779 -0.000010 -0.000043  0.011965 0.001552 -0.110981
44  1.206996 -0.000006 0.000004  0.005321 0.005317 0.007332
45  5.740572 0.000056 0.000724  0.114977 -0.000014 0.000021
46  11.480904 -0.000016 0.000974  0.082008 0.061341 0.120729
47  6.027514 -0.000273 -0.000236  -0.477197 -0.523919 -1.558956
48  -0.000003 11.691974 -0.000007  -1.198063 0.642064 0.906487
49  0.000004 -0.000001 0.000001  2.811882 -0.000041 1.570856
50  -0.000008 -0.000015 0.000005  2.272644 -0.000030 1.570865
51  -7.887026 -1.879127 -5.158641  -0.116030 2.987669 1.473951
52  0.000000 -0.000000 0.000000  0.008153 -0.000259 0.000009
53  -0.000000 0.000000 -0.000000  1.565115 0.043565 -0.106862
54  1.124861 -16.669312 -7.786467  -1.032451 -0.174071 -1.874483
55  -0.000001 0.000000 -0.000000  0.000000 -0.000000 -0.000002
56  0.000028 0.000029 0.000001  -1.571902 -0.044449 -0.106509
57  10.484564 -14.053452 -20.432407  1.570796 -0.000000 0.000000
58  -21.198586 7.399357 -14.178400  1.570796 -0.000000 0.000000
59  -0.438264 1.109862 -4.531785  1.570796 -0.000000 0.000000
60  -0.004311 0.001230 -0.000371  0.006898 -0.005534 -0.284229
61  1.717296 12.042279 -1.623775  1.570796 -0.000000 0.000000
62  0.000000 0.000000 0.000000  -0.078727 -3.136056 0.284226
63  0.000000 0.000000 0.000000  1.565375 0.003226 -0.003314
64  -2.544020 -12.736445 -1.540754  1.551350 0.048138 0.176447
65  -0.122190 -2.163893 -2.142130  -0.000000 0.000000 -0.000000
66  -0.122184 -0.302733 22.953676  -0.000000 0.000000 -0.000000
67  -0.109402 -1.967006 0.526453  -0.000000 0.000000 -0.000000
68  -0.104047 -4.495923 7.879278  -0.000000 0.000000 -0.000000
69  -0.195263 4.332630 -6.347187  -0.000000 0.000000 -0.000000
70  -0.130187 -1.733180 6.860656  -0.000000 0.000000 -0.000000
71  -1.784799 -18.180979 -3.156004  1.551350 0.048138 0.176447
time 3
0  0.000006 0.000000 0.000000  -1.570800 -1.391899 -1.570792
1  -5.056097 0.396382 -0.159171  -1.544956 -1.855077 -0.198630
2  6.027519 -0.000324 0.000195  -1.286206 -0.773740 -0.961897
3  11.692110 0.000644 -0.000740  -1.389933 -0.000016 -1.391499
4  11.479914 0.000622 -0.000664  1.906437 -0.286925 -0.128462
5  3.859508 -0.142879 -1.192048  -0.399397 0.292475 -0.571101
6  1.312590 0.000014 0.000008  -0.000010 0.000051 -0.105683
7  0.729357 0.000056 0.000049  0.000023 0.000014 0.089737
8  3.942144 0.046275 -0.431511  -0.119759 0.118703 -0.479693
9  1.539109 0.000083 0.000005  0.000000 0.000022 0.084733
10  1.196330 0.000144 0.000029  0.000017 0.000014 -0.096716
11  3.883504 -0.047268 0.431382  0.088322 -0.007351 -0.256615
12  1.719573 -0.000026 0.000015  0.001816 0.005211 -0.033954
13  1.209180 0.000093 0.000011  0.001016 0.002920 0.117069
14  4.085220 -0.082715 1.151042  0.323194 -0.154196 -0.216761
15  1.719449 -0.000012 0.000023  0.001362 0.003836 -0.028963
16  1.099676 0.000048 0.000005  0.000845 0.002436 0.088194
17  0.971588 -1.283497 0.847610  -1.399595 -0.734358 -0.517531
18  1.789820 -0.000004 -0.000018  -0.000675 0.004893 -0.058568
19  1.207015 -0.000012 -0.000043  -0.000576 -0.000133 0.074107
20  5.740637 0.000410 -0.000701  0.049082 0.000003 0.000071
21  11.480995 0.000331 -0.000789  0.068578 -0.037538 -0.023543
22  6.027525 -0.000330 0.000203  2.084878 -0.639339 1.421725
23  0.000002 11.692099 -0.000007  -0.964776 -0.417139 -0.768134
24  0.000002 0.000009 -0.000001  -0.520838 -0.000031 1.570739
25  -0.000000 -0.000012 -0.000001  0.868957 0.000002 1.570712
26  -4.294719 -10.899635 1.282121  1.473120 1.855075 -0.198639
27  6.027504 -0.000260 -0.000230  1.757287 0.352425 -0.307503
28  11.691993 0.000242 0.000855  0.492107 0.000050 -1.554690
29  11.479860 -0.000233 0.001058  -1.192738 0.075713 0.462587
30  3.452861 -0.227596 1.051755  0.406972 -0.281772 -0.608989
31  1.312558 0.000026 -0.000000  -0.000002 -0.000045 -0.148961
32  0.729346 0.000067 -0.000028  -0.000028 -0.000012 0.046463
33  3.942046 0.050107 0.430998  0.121277 -0.118787 -0.520714
34  1.539097 0.000010 0.000000  0.000007 -0.000010 0.042929
35  1.196299 0.000077 -0.000004  -0.000009 -0.000006 -0.140034
36  3.883411 -0.050502 -0.431086  -0.089865 -0.000690 -0.298025
37  1.719564 -0.000080 -0.000003  -0.002289 -0.007626 -0.075726
38  1.209196 0.000037 0.000011  -0.001276 -0.004274 0.074338
39  3.806436 -0.112150 -1.295329  -0.330197 0.136798 -0.257131
40  1.719413 -0.000099 -0.000034  -0.001915 -0.006300 -0.072277
41  1.099672 0.000025 0.000007  -0.001196 -0.004013 0.046405
42  0.866373 -0.355431 -1.353141  1.079795 0.646453 -0.910435
43  1.789780 -0.000009 -0.000042  0.011965 0.001552 -0.110981
44  1.206996 -0.000007 0.000005  0.005321 0.005317 0.007332
45  5.740572 0.000054 0.000724  0.084037 -0.000014 0.000021
46  11.480917 -0.000012 0.000962  0.074162 0.009916 0.074931
47  6.027514 -0.000272 -0.000237  -0.399900 -0.480900 -1.685294
48  -0.000003 11.691976 -0.000007  -1.061712 0.506487 0.830381
49  0.000003 -0.000000 -0.000000  2.764634 -0.000041 1.570856
50  -0.000007 -0.000015 0.000004  2.272644 -0.000030 1.570865
51  -11.308042 -3.212031 -7.342668  -0.094629 3.028409 1.496959
52  -0.000000 0.000001 -0.000000  0.008153 -0.000259 0.000009
53  -0.000000 -0.000001 0.000001  1.565115 0.043565 -0.106862
54  3.212263 -16.845966 -9.970646  -0.608287 -0.283772 -1.772604
55  0.000003 -0.000000 -0.000000  0.000000 -0.000000 -0.000002
56  0.000033 0.000029 0.000000  -1.571902 -0.044449 -0.106509
57  10.910583 -13.913116 -21.867163  1.570796 -0.000000 0.000000
58  -21.907583 6.648198 -16.692142  1.570796 -0.000000 0.000000
59  -0.154858 0.509276 -5.047168  1.570796 -0.000000 0.000000
60  -0.004311 0.001230 -0.000371  0.006898 -0.005534 -0.284229
61  1.282120 11.489903 -2.286650  1.570796 -0.000000 0.000000
62  0.000000 0.000000 0.000000  -0.078727 -3.136056 0.284226
63  0.000000 0.000000 0.000000  1.563475 0.004351 -0.004479
64  -2.567731 -16.270660 -1.070776  1.553785 0.042122 0.350843
65  -0.122191 -2.163893 -2.142130  0.000000 -0.000000 -0.000000
66  -0.122184 -0.302733 22.953671  0.000000 -0.000000 -0.000000
67  -0.109402 -1.967006 0.526452  0.000000 -0.000000 -0.000000
68  -0.104047 -4.495923 7.879275  0.000000 -0.000000 -0.000000
69  -0.195263 4.332631 -6.347186  0.000000 -0.000000 -0.000000
70  -0.130187 -1.733180 6.860656  0.000000 -0.000000 -0.000000
71  -0.868092 -21.493998 -2.700612  1.553785 0.042122 0.350843
time 4
0  0.000006 0.000000 0.000000  -1.570800 -1.391899 -1.570792
1  -5.579652 1.289335 0.211511  -1.544956 -1.855077 -0.198630
2  6.027518 -0.000323 0.000196  -1.394185 -0.606550 -0.946420
3  11.692111 0.000644 -0.000740  -1.307149 -0.000019 -1.424246
4  11.479731 0.000539 -0.000807  2.558131 -0.012559 -0.198234
5  3.859509 -0.142880 -1.192049  -0.412031 0.273824 -0.616315
6  1.312590 0.000013 0.000008  -0.000012 0.000051 -0.152536
7  0.729354 0.000056 0.000050  0.000022 0.000015 0.042884
8  3.942142 0.046273 -0.431512  -0.125204 0.112942 -0.526802
9  1.539111 0.000082 0.000007  -0.000001 0.000022 0.037484
10  1.196333 0.000144 0.000029  0.000016 0.000015 -0.143568
11  3.883504 -0.047269 0.431383  0.088570 -0.003176 -0.303680
12  1.719573 -0.000027 0.000014  0.001567 0.005291 -0.081204
13  1.209178 0.000090 0.000012  0.000877 0.002964 0.070068
14  4.085224 -0.082715 1.151041  0.329804 -0.139039 -0.262000
15  1.719448 -0.000012 0.000022  0.001181 0.003895 -0.075816
16  1.099671 0.000048 0.000004  0.000729 0.002474 0.040944
17  0.971589 -1.283499 0.847609  -1.360905 -0.726021 -0.575526
18  1.789820 -0.000004 -0.000017  -0.000497 0.004211 -0.017890
19  1.207014 -0.000012 -0.000042  -0.000500 -0.000088 0.142194
20  5.740637 0.000410 -0.000704  0.193651 0.000003 0.000070
21  11.480959 0.000311 -0.000824  0.201805 0.005605 -0.033491
22  6.027524 -0.000330 0.000203  2.314641 -0.684764 1.226509
23  0.000001 11.692100 -0.000007  -0.984400 -0.434632 -0.781170
24  0.000002 0.000009 -0.000000  -0.438054 -0.000031 1.570739
25  -0.000001 -0.000011 0.000000  0.868957 0.000002 1.570712
26  -5.019329 -10.034404 0.712933  1.473120 1.855075 -0.198639
27  6.027503 -0.000260 -0.000231  1.738737 0.323680 -0.367033
28  11.691994 0.000244 0.000855  0.430091 0.000047 -1.504119
29  11.480251 -0.000083 0.000944  -1.166003 0.026352 0.330968
30  3.452861 -0.227596 1.051754  0.406972 -0.281773 -0.608989
31  1.312557 0.000025 0.000000  -0.000002 -0.000045 -0.148961
32  0.729346 0.000064 -0.000027  -0.000028 -0.000012 0.046463
33  3.942046 0.050109 0.430996  0.121277 -0.118787 -0.520714
34  1.539097 0.000010 0.000000  0.000007 -0.000010 0.042929
35  1.196299 0.000075 -0.000003  -0.000009 -0.000006 -0.140034
36  3.883411 -0.050502 -0.431086  -0.089865 -0.000690 -0.298025
37  1.719564 -0.000079 -0.000003  -0.002289 -0.007626 -0.075726
38  1.209195 0.000037 0.000012  -0.001276 -0.004274 0.074338
39  3.806436 -0.112148 -1.295328  -0.330197 0.136798 -0.257131
40  1.719412 -0.000102 -0.000035  -0.001915 -0.006300 -0.072277
41  1.099674 0.000025 0.000008  -0.001196 -0.004013 0.046405
42  0.866372 -0.355431 -1.353141  1.079795 0.646453 -0.910435
43  1.789780 -0.000009 -0.000041  0.011965 0.001552 -0.110981
44  1.206995 -0.000007 0.000005  0.005321 0.005317 0.007332
45  5.740573 0.000055 0.000723  0.085249 -0.000014 0.000021
46  11.480995 0.000019 0.000939  0.081372 -0.002805 0.049773
47  6.027514 -0.000273 -0.000237  -0.371606 -0.503501 -1.752043
48  -0.000001 11.691976 -0.000004  -1.031850 0.478221 0.811846
49  0.000003 -0.000003 -0.000001  2.702621 -0.000041 1.570856
50  -0.000007 -0.000016 0.000006  2.272644 -0.000030 1.570865
51  -12.368299 -3.844293 -9.384937  -0.058265 3.070475 1.528092
52  0.000000 -0.000001 -0.000000  0.008153 -0.000259 0.000009
53  -0.000001 -0.000001 0.000001  1.565115 0.043565 -0.106862
54  5.531618 -17.086123 -12.508254  0.075252 -0.472806 -1.738883
55  -0.000001 0.000000 -0.000002  0.000000 -0.000000 -0.000002
56  0.000029 0.000030 -0.000001  -1.571901 -0.044449 -0.106509
57  11.467798 -13.729560 -23.743755  1.570796 -0.000000 0.000000
58  -21.613197 6.018413 -18.293182  1.570796 -0.000000 0.000000
59  0.215825 -0.276262 -5.721264  1.570796 -0.000000 0.000000
60  -0.004311 0.001230 -0.000371  0.006898 -0.005534 -0.284229
61  0.712932 10.767422 -3.153658  1.570796 -0.000000 0.000000
62  0.000000 0.000000 0.000000  -0.078727 -3.136056 0.284226
63  0.000000 0.000000 0.000000  1.563882 0.004111 -0.004230
64  -2.596523 -20.562210 -0.500089  1.556740 0.034817 0.562570
65  -0.122192 -2.163893 -2.142131  0.000000 -0.000000 0.000000
66  -0.122185 -0.302733 22.953671  0.000000 -0.000000 0.000000
67  -0.109402 -1.967005 0.526451  0.000000 -0.000000 0.000000
68  -0.104047 -4.495923 7.879274  0.000000 -0.000000 0.000000
69  -0.195263 4.332631 -6.347185  0.000000 -0.000000 0.000000
70  -0.130188 -1.733180 6.860656  0.000000 -0.000000 0.000000
71  0.169847 -25.301567 -2.147539  1.556740 0.034817 0.562570
time 5
0  0.000006 0.000000 0.000000  -1.570800 -1.391899 -1.570792
1  -6.172757 2.300905 0.631433  -1.544956 -1.855077 -0.198630
2  6.027518 -0.000322 0.000198  -1.479870 -0.462633 -0.958892
3  11.692113 0.000644 -0.000741  -1.206592 -0.000018 -1.425898
4  11.479717 0.000454 -0.000863  3.030398 0.236813 -0.165434
5  3.859509 -0.142879 -1.192049  -0.429258 0.244773 -0.683473
6  1.312591 0.000013 0.000009  -0.000016 0.000050 -0.224142
7  0.729354 0.000051 0.000051  0.000021 0.000016 -0.028723
8  3.942145 0.046274 -0.431512  -0.132892 0.103770 -0.597868
9  1.539111 0.000083 0.000004  -0.000002 0.000022 -0.033630
10  1.196332 0.000144 0.000030  0.000015 0.000016 -0.215175
11  3.883506 -0.047268 0.431381  0.088572 0.003117 -0.374515
12  1.719574 -0.000025 0.000013  0.001188 0.005389 -0.152319
13  1.209181 0.000090 0.000009  0.000664 0.003020 -0.001355
14  4.085223 -0.082715 1.151040  0.338412 -0.115710 -0.329729
15  1.719448 -0.000011 0.000022  0.000899 0.003970 -0.147423
16  1.099674 0.000048 0.000004  0.000551 0.002519 -0.030170
17  0.971588 -1.283498 0.847610  -1.318666 -0.714700 -0.639545
18  1.789819 -0.000006 -0.000019  -0.000275 0.003169 0.043524
19  1.207016 -0.000012 -0.000043  -0.000377 -0.000048 0.212304
20  5.740636 0.000409 -0.000704  0.298976 0.000003 0.000071
21  11.480953 0.000294 -0.000840  0.299089 0.045942 -0.047642
22  6.027525 -0.000330 0.000203  2.523868 -0.691195 1.037104
23  -0.000000 11.692102 -0.000008  -0.985388 -0.435520 -0.781818
24  0.000002 0.000008 0.000001  -0.337496 -0.000030 1.570739
25  -0.000001 -0.000011 -0.000001  0.868957 0.000002 1.570712
26  -5.840195 -9.054238 0.068136  1.473120 1.855075 -0.198639
27  6.027505 -0.000260 -0.000235  1.630145 0.277650 -0.445922
28  11.691992 0.000245 0.000856  0.359683 0.000050 -1.536554
29  11.479997 -0.000296 0.000990  -1.102275 0.075496 0.238985
30  3.452861 -0.227594 1.051754  0.406972 -0.281772 -0.608989
31  1.312558 0.000025 0.000000  -0.000002 -0.000045 -0.148961
32  0.729345 0.000064 -0.000028  -0.000028 -0.000012 0.046463
33  3.942045 0.050110 0.430997  0.121277 -0.118787 -0.520714
34  1.539097 0.000009 -0.000001  0.000007 -0.000010 0.042929
35  1.196300 0.000076 -0.000003  -0.000009 -0.000006 -0.140034
36  3.883411 -0.050501 -0.431087  -0.089865 -0.000690 -0.298025
37  1.719564 -0.000078 -0.000003  -0.002289 -0.007626 -0.075726
38  1.209197 0.000035 0.000011  -0.001276 -0.004274 0.074338
39  3.806435 -0.112148 -1.295330  -0.330197 0.136798 -0.257131
40  1.719412 -0.000099 -0.000034  -0.001915 -0.006300 -0.072277
41  1.099673 0.000025 0.000007  -0.001196 -0.004013 0.046405
42  0.866372 -0.355430 -1.353143  1.079795 0.646453 -0.910435
43  1.789780 -0.000009 -0.000043  0.011965 0.001552 -0.110981
44  1.206996 -0.000006 0.000005  0.005321 0.005317 0.007332
45  5.740573 0.000053 0.000725  0.094397 -0.000014 0.000021
46  11.480945 -0.000025 0.000948  0.092272 0.005572 0.028723
47  6.027515 -0.000274 -0.000239  -0.341992 -0.614156 -1.814461
48  -0.000003 11.691975 -0.000005  -1.051018 0.496294 0.823813
49  0.000003 -0.000001 0.000001  2.632212 -0.000041 1.570856
50  -0.000007 -0.000015 0.000005  2.272644 -0.000030 1.570865
51  -12.102482 -4.171087 -12.028292  -0.016010 3.096388 1.563301
52  -0.000000 0.000001 0.000001  0.008153 -0.000259 0.000009
53  -0.000000 -0.000000 -0.000000  1.565115 0.043565 -0.106862
54  7.542769 -17.253410 -15.118273  0.672386 -0.547960 -1.819212
55  0.000000 -0.000001 0.000002  0.000000 -0.000000 -0.000002
56  0.000031 0.000029 0.000004  -1.571902 -0.044449 -0.106509
57  12.099031 -13.521623 -25.869627  1.570796 -0.000000 0.000000
58  -20.742279 5.301990 -19.797895  1.570796 -0.000000 0.000000
59  0.635747 -1.166148 -6.484907  1.570796 -0.000000 0.000000
60  -0.004311 0.001230 -0.000371  0.006898 -0.005534 -0.284229
61  0.068134 9.948967 -4.135839  1.570796 -0.000000 0.000000
62  0.000000 0.000000 0.000000  -0.078727 -3.136056 0.284226
63  0.000000 0.000000 0.000000  1.564928 0.003491 -0.003588
64  -2.627856 -25.232424 0.120953  1.559953 0.026866 0.792930
65  -0.122189 -2.163893 -2.142132  0.000000 0.000000 0.000000
66  -0.122185 -0.302733 22.953674  0.000000 0.000000 0.000000
67  -0.109401 -1.967006 0.526451  0.000000 0.000000 0.000000
68  -0.104046 -4.495923 7.879275  0.000000 0.000000 0.000000
69  -0.195265 4.332630 -6.347188  0.000000 0.000000 0.000000
70  -0.130187 -1.733180 6.860656  0.000000 0.000000 0.000000
71  1.152627 -29.202202 -1.545545  1.559953 0.026866 0.792930
time 6
0  0.000006 0.000000 0.000000  -1.570800 -1.391899 -1.570792
1  -6.765861 3.312476 1.051356  -1.544956 -1.855077 -0.198630
2  6.027518 -0.000321 0.000199  -1.523285 -0.344482 -0.974695
3  11.692108 0.000644 -0.000741  -1.098556 -0.000019 -1.419729
4  11.479749 0.000366 -0.000893  -3.111869 0.315733 -0.120405
5  3.859509 -0.142881 -1.192048  -0.446179 0.210600 -0.758389
6  1.312590 0.000011 0.000005  -0.000020 0.000048 -0.305479
7  0.729352 0.000053 0.000050  0.000020 0.000018 -0.110059
8  3.942142 0.046272 -0.431510  -0.140785 0.092744 -0.678281
9  1.539112 0.000084 0.000006  -0.000004 0.000022 -0.114213
10  1.196330 0.000145 0.000029  0.000014 0.000017 -0.296511
11  3.883507 -0.047271 0.431383  0.088036 0.010227 -0.454786
12  1.719572 -0.000028 0.000014  0.000750 0.005468 -0.232903
13  1.209178 0.000092 0.000012  0.000417 0.003063 -0.082412
14  4.085223 -0.082715 1.151043  0.346199 -0.088649 -0.406032
15  1.719448 -0.000011 0.000019  0.000574 0.004030 -0.228760
16  1.099676 0.000048 0.000003  0.000347 0.002555 -0.110753
17  0.971586 -1.283500 0.847610  -1.279946 -0.702119 -0.699045
18  1.789819 -0.000003 -0.000017  -0.000099 0.001974 0.113134
19  1.207015 -0.000013 -0.000044  -0.000235 -0.000023 0.275920
20  5.740637 0.000409 -0.000705  0.329626 0.000003 0.000071
21  11.480962 0.000277 -0.000847  0.325962 0.062389 -0.050339
22  6.027525 -0.000331 0.000203  2.685994 -0.696027 0.900436
23  0.000002 11.692095 -0.000008  -0.981698 -0.432205 -0.779388
24  0.000001 0.000008 -0.000002  -0.229461 -0.000031 1.570739
25  -0.000000 -0.000012 -0.000001  0.868957 0.000002 1.570712
26  -6.661060 -8.074073 -0.576661  1.473120 1.855075 -0.198639
27  6.027505 -0.000258 -0.000235  1.509702 0.211736 -0.525870
28  11.691988 0.000245 0.000855  0.289274 0.000051 -1.553401
29  11.479872 -0.000434 0.000989  -1.055289 0.125318 0.144456
30  3.452862 -0.227593 1.051755  0.406972 -0.281773 -0.608989
31  1.312559 0.000026 -0.000000  -0.000002 -0.000045 -0.148961
32  0.729345 0.000065 -0.000027  -0.000028 -0.000012 0.046463
33  3.942046 0.050112 0.430997  0.121277 -0.118787 -0.520714
34  1.539097 0.000008 -0.000001  0.000007 -0.000010 0.042929
35  1.196301 0.000074 -0.000004  -0.000009 -0.000006 -0.140034
36  3.883411 -0.050500 -0.431087  -0.089865 -0.000690 -0.298025
37  1.719563 -0.000079 -0.000003  -0.002289 -0.007626 -0.075726
38  1.209196 0.000036 0.000012  -0.001276 -0.004274 0.074338
39  3.806436 -0.112146 -1.295330  -0.330197 0.136798 -0.257130
40  1.719413 -0.000099 -0.000033  -0.001915 -0.006300 -0.072277
41  1.099671 0.000025 0.000005  -0.001196 -0.004013 0.046405
42  0.866373 -0.355428 -1.353142  1.079795 0.646453 -0.910435
43  1.789778 -0.000008 -0.000043  0.011965 0.001552 -0.110981
44  1.206996 -0.000005 0.000005  0.005321 0.005317 0.007332
45  5.740572 0.000055 0.000724  0.100817 -0.000014 0.000021
46  11.480918 -0.000050 0.000947  0.100501 0.012766 0.007071
47  6.027514 -0.000273 -0.000237  -0.289034 -0.741822 -1.898471
48  -0.000001 11.691973 -0.000004  -1.060951 0.505761 0.829918
49  0.000004 -0.000002 -0.000000  2.561803 -0.000041 1.570856
50  -0.000007 -0.000016 0.000005  2.272644 -0.000030 1.570865
51  -11.840666 -4.190535 -14.967320  -3.118416 0.045339 -1.542856
52  -0.000000 -0.000000 -0.000000  0.008153 -0.000259 0.000009
53  -0.000000 0.000002 -0.000000  1.565115 0.043565 -0.106862
54  8.913805 -17.262558 -17.558533  0.903905 -0.464152 -1.845428
55  0.000000 -0.000001 0.000002  0.000000 -0.000000 -0.000002
56  0.000031 0.000027 0.000004  -1.571902 -0.044449 -0.106509
57  12.730265 -13.313687 -27.995502  1.570796 -0.000000 0.000000
58  -19.415333 4.557401 -21.112659  1.570796 -0.000000 0.000000
59  1.055670 -2.056035 -7.248549  1.570796 -0.000000 0.000000
60  -0.004311 0.001230 -0.000371  0.006898 -0.005534 -0.284229
61  -0.576664 9.130513 -5.118018  1.570796 -0.000000 0.000000
62  0.000000 0.000000 0.000000  -0.078727 -3.136056 0.284226
63  0.000000 0.000000 0.000000  1.566359 0.002643 -0.002712
64  -2.659189 -29.902637 0.741996  1.563164 0.018914 1.023239
65  -0.122191 -2.163893 -2.142130  0.000000 -0.000000 0.000000
66  -0.122184 -0.302733 22.953672  0.000000 -0.000000 0.000000
67  -0.109402 -1.967005 0.526452  0.000000 -0.000000 0.000000
68  -0.104049 -4.495923 7.879278  0.000000 -0.000000 0.000000
69  -0.195265 4.332630 -6.347190  0.000000 -0.000000 0.000000
70  -0.130185 -1.733180 6.860655  0.000000 -0.000000 0.000000
71  1.929811 -32.890755 -0.943425  1.563164 0.018914 1.023239
time 7
0  0.000006 0.000000 0.000000  -1.570800 -1.391899 -1.570792
1  -7.289417 4.205430 1.422038  -1.544956 -1.855077 -0.198630
2  6.027517 -0.000321 0.000200  -1.456312 -0.224159 -0.963472
3  11.692111 0.000643 -0.000741  -0.996840 -0.000015 -1.374793
4  11.480011 0.000350 -0.000803  3.039890 0.200816 -0.133080
5  3.859508 -0.142879 -1.192050  -0.458822 0.179490 -0.823593
6  1.312593 0.000013 0.000009  -0.000023 0.000047 -0.377085
7  0.729353 0.000055 0.000050  0.000018 0.000019 -0.181665
8  3.942142 0.046274 -0.431515  -0.146983 0.082523 -0.749069
9  1.539114 0.000085 0.000005  -0.000006 0.000021 -0.185341
10  1.196334 0.000147 0.000030  0.000013 0.000018 -0.368118
11  3.883504 -0.047270 0.431380  0.087091 0.016450 -0.525647
12  1.719575 -0.000026 0.000014  0.000359 0.005507 -0.304031
13  1.209179 0.000092 0.000013  0.000197 0.003085 -0.153840
14  4.085222 -0.082715 1.151039  0.351325 -0.064333 -0.473072
15  1.719451 -0.000011 0.000021  0.000284 0.004061 -0.300367
16  1.099676 0.000047 0.000006  0.000164 0.002573 -0.181881
17  0.971588 -1.283501 0.847607  -1.249321 -0.690539 -0.746786
18  1.789819 -0.000007 -0.000018  -0.000011 0.000912 0.174557
19  1.207016 -0.000011 -0.000044  -0.000109 -0.000011 0.324578
20  5.740636 0.000411 -0.000702  0.301006 0.000003 0.000071
21  11.481013 0.000273 -0.000826  0.300051 0.043054 -0.037539
22  6.027524 -0.000330 0.000203  2.820335 -0.790098 0.839423
23  0.000003 11.692098 -0.000007  -0.954727 -0.408306 -0.761379
24  0.000002 0.000009 -0.000002  -0.127747 -0.000031 1.570739
25  -0.000000 -0.000012 -0.000001  0.868957 0.000002 1.570712
26  -7.385672 -7.208842 -1.145849  1.473120 1.855075 -0.198639
27  6.027507 -0.000259 -0.000237  1.360876 0.147033 -0.589101
28  11.691994 0.000245 0.000856  0.227257 0.000045 -1.459983
29  11.480612 -0.000055 0.000854  -0.984329 0.151617 0.025871
30  3.452863 -0.227596 1.051752  0.406972 -0.281772 -0.608989
31  1.312558 0.000024 -0.000002  -0.000002 -0.000045 -0.148961
32  0.729345 0.000066 -0.000027  -0.000028 -0.000012 0.046463
33  3.942047 0.050108 0.430997  0.121277 -0.118787 -0.520714
34  1.539098 0.000010 -0.000002  0.000007 -0.000010 0.042929
35  1.196301 0.000076 -0.000003  -0.000009 -0.000006 -0.140034
36  3.883412 -0.050503 -0.431088  -0.089865 -0.000690 -0.298026
37  1.719563 -0.000078 -0.000003  -0.002289 -0.007626 -0.075726
38  1.209199 0.000035 0.000012  -0.001276 -0.004274 0.074338
39  3.806437 -0.112149 -1.295328  -0.330197 0.136798 -0.257131
40  1.719411 -0.000100 -0.000035  -0.001915 -0.006300 -0.072277
41  1.099675 0.000025 0.000006  -0.001196 -0.004013 0.046405
42  0.866374 -0.355431 -1.353144  1.079795 0.646453 -0.910435
43  1.789779 -0.000009 -0.000043  0.011965 0.001552 -0.110981
44  1.206995 -0.000005 0.000004  0.005321 0.005317 0.007332
45  5.740572 0.000054 0.000726  0.114207 -0.000014 0.000021
46  11.481066 0.000024 0.000919  0.114684 0.013820 -0.019150
47  6.027514 -0.000273 -0.000237  -0.237248 -0.897976 -1.973064
48  0.000001 11.691977 -0.000007  -1.005659 0.453960 0.795121
49  0.000003 0.000000 0.000000  2.499789 -0.000041 1.570856
50  -0.000005 -0.000015 0.000004  2.272644 -0.000030 1.570865
51  -11.949609 -3.922851 -18.710773  -3.061405 0.132254 -1.507303
52  -0.000001 0.000000 -0.000001  0.008153 -0.000259 0.000009
53  0.000000 -0.000001 -0.000001  1.565115 0.043565 -0.106862
54  9.407433 -16.837297 -20.610092  0.839555 -0.211016 -1.774811
55  0.000000 -0.000002 0.000000  0.000000 -0.000000 -0.000002
56  0.000030 0.000026 -0.000001  -1.571901 -0.044449 -0.106509
57  13.287479 -13.130132 -29.872095  1.570796 -0.000000 0.000000
58  -17.910236 3.876809 -22.141848  1.570796 -0.000000 0.000000
59  1.426353 -2.841573 -7.922645  1.570796 -0.000000 0.000000
60  -0.004311 0.001230 -0.000371  0.006898 -0.005534 -0.284229
61  -1.145853 8.408031 -5.985027  1.570796 -0.000000 0.000000
62  0.000000 0.000000 0.000000  -0.078727 -3.136056 0.284226
63  0.000000 0.000000 0.000000  1.567917 0.001717 -0.001759
64  -2.687981 -34.194183 1.312682  1.566113 0.011607 1.234830
65  -0.122189 -2.163893 -2.142132  0.000000 -0.000000 0.000000
66  -0.122183 -0.302733 22.953671  0.000000 -0.000000 0.000000
67  -0.109404 -1.967005 0.526451  0.000000 -0.000000 0.000000
68  -0.104047 -4.495923 7.879276  0.000000 -0.000000 0.000000
69  -0.195265 4.332630 -6.347185  0.000000 -0.000000 0.000000
70  -0.130181 -1.733180 6.860653  0.000000 -0.000000 0.000000
71  2.425502 -36.138794 -0.390013  1.566113 0.011607 1.234830
time 8
0  0.000006 0.000000 0.000000  -1.570800 -1.391899 -1.570792
1  -7.689703 4.888140 1.705444  -1.544956 -1.855077 -0.198630
2  6.027517 -0.000319 0.000200  -1.173568 -0.171909 -0.890175
3  11.692114 0.000643 -0.000739  -0.915043 -0.000008 -1.207412
4  11.480164 0.000373 -0.000711  2.610990 -0.093473 -0.155328
5  3.859509 -0.142881 -1.192050  -0.465959 0.158650 -0.866002
6  1.312592 0.000011 0.000005  -0.000025 0.000046 -0.423938
7  0.729358 0.000053 0.000051  0.000017 0.000020 -0.228518
8  3.942141 0.046271 -0.431512  -0.150646 0.075591 -0.795445
9  1.539111 0.000083 0.000003  -0.000007 0.000021 -0.232051
10  1.196331 0.000146 0.000026  0.000012 0.000019 -0.414971
11  3.883504 -0.047271 0.431379  0.086231 0.020494 -0.572190
12  1.719573 -0.000026 0.000012  0.000102 0.005518 -0.350743
13  1.209175 0.000093 0.000011  0.000052 0.003091 -0.200641
14  4.085221 -0.082717 1.151039  0.353794 -0.048201 -0.516979
15  1.719450 -0.000012 0.000021  0.000093 0.004069 -0.347221
16  1.099676 0.000049 0.000005  0.000044 0.002578 -0.228592
17  0.971589 -1.283501 0.847609  -1.229612 -0.682263 -0.777883
18  1.789819 -0.000003 -0.000018  0.000011 0.000213 0.214889
19  1.207015 -0.000012 -0.000044  -0.000026 -0.000008 0.353625
20  5.740636 0.000407 -0.000702  0.215392 0.000003 0.000071
21  11.481044 0.000277 -0.000804  0.210577 -0.007120 -0.017577
22  6.027525 -0.000328 0.000203  -0.364807 -2.070618 -2.137594
23  0.000001 11.692101 -0.000005  -0.852397 -0.323445 -0.689843
24  0.000001 0.000009 -0.000000  -0.045958 -0.000031 1.570739
25  -0.000000 -0.000012 0.000000  0.868957 0.000002 1.570712
26  -7.939675 -6.547327 -1.581024  1.473120 1.855075 -0.198639
27  6.027506 -0.000258 -0.000236  1.117809 0.171591 -0.635996
28  11.691991 0.000244 0.000855  0.180001 0.000023 -1.170704
29  11.480259 -0.000196 0.000867  -0.808149 0.192754 -0.102598
30  3.452861 -0.227594 1.051752  0.406972 -0.281773 -0.608989
31  1.312557 0.000025 0.000000  -0.000002 -0.000045 -0.148961
32  0.729343 0.000064 -0.000027  -0.000028 -0.000012 0.046463
33  3.942046 0.050111 0.430996  0.121277 -0.118787 -0.520714
34  1.539096 0.000009 -0.000001  0.000007 -0.000010 0.042929
35  1.196299 0.000077 -0.000005  -0.000009 -0.000006 -0.140034
36  3.883411 -0.050500 -0.431088  -0.089865 -0.000690 -0.298026
37  1.719563 -0.000082 -0.000002  -0.002289 -0.007626 -0.075726
38  1.209197 0.000036 0.000012  -0.001276 -0.004274 0.074338
39  3.806437 -0.112147 -1.295330  -0.330197 0.136798 -0.257131
40  1.719411 -0.000098 -0.000037  -0.001915 -0.006300 -0.072277
41  1.099673 0.000024 0.000007  -0.001196 -0.004013 0.046405
42  0.866372 -0.355428 -1.353142  1.079795 0.646453 -0.910435
43  1.789781 -0.000009 -0.000043  0.011965 0.001552 -0.110981
44  1.206997 -0.000006 0.000005  0.005321 0.005317 0.007332
45  5.740573 0.000054 0.000725  0.157224 -0.000014 0.000021
46  11.480996 -0.000005 0.000923  0.150103 0.015823 -0.050854
47  6.027514 -0.000273 -0.000235  -0.405046 -1.122777 -1.838086
48  -0.000002 11.691972 -0.000006  -0.829462 0.305758 0.673252
49  0.000004 -0.000002 0.000001  2.452542 -0.000041 1.570856
50  -0.000006 -0.000016 0.000006  2.272644 -0.000030 1.570865
51  -12.029458 -3.354428 -23.384712  0.175321 2.806299 1.681167
52  -0.000000 -0.000002 0.000001  0.008153 -0.000259 0.000009
53  -0.000000 0.000001 -0.000003  1.565115 0.043565 -0.106862
54  8.917267 -15.859164 -24.566998  0.618064 0.236838 -1.695031
55  -0.000001 0.000000 -0.000001  0.000000 -0.000000 -0.000002
56  0.000030 0.000029 0.000000  -1.571901 -0.044449 -0.106509
57  13.713499 -12.989797 -31.306852  1.570796 -0.000000 0.000000
58  -16.583290 3.353098 -22.834116  1.570796 -0.000000 0.000000
59  1.709759 -3.442159 -8.438027  1.570796 -0.000000 0.000000
60  -0.004311 0.001229 -0.000371  0.006898 -0.005534 -0.284229
61  -1.581028 7.855655 -6.647902  1.570796 -0.000000 0.000000
62  0.000000 0.000000 0.000000  -0.078727 -3.136056 0.284226
63  0.000000 0.000000 0.000000  1.569347 0.000865 -0.000885
64  -2.711692 -37.728401 1.782661  1.568542 0.005588 1.409048
65  -0.122199 -2.163893 -2.142129  0.000000 0.000000 -0.000000
66  -0.122189 -0.302733 22.953672  0.000000 0.000000 -0.000000
67  -0.109404 -1.967005 0.526451  0.000000 0.000000 -0.000000
68  -0.104051 -4.495923 7.879276  0.000000 0.000000 -0.000000
69  -0.195263 4.332630 -6.347186  0.000000 0.000000 -0.000000
70  -0.130193 -1.733180 6.860656  0.000000 0.000000 -0.000000
71  2.659000 -38.746498 0.065818  1.568542 0.005588 1.409048
time 9
0  0.000006 0.000000 0.000000  -1.570800 -1.391899 -1.570792
1  -7.935892 5.308025 1.879746  -1.544956 -1.855077 -0.198630
2  6.027516 -0.000323 0.000199  -0.796864 -0.256632 -0.866404
3  11.692112 0.000644 -0.000738  -0.863018 0.000003 -0.961285
4  11.480829 0.000564 -0.000463  2.014496 -0.252411 -0.061331
5  3.859510 -0.142879 -1.192049  -0.468164 0.151540 -0.880272
6  1.312587 0.000013 0.000007  -0.000026 0.000045 -0.439738
7  0.729353 0.000057 0.000049  0.000017 0.000021 -0.244318
8  3.942146 0.046274 -0.431511  -0.151810 0.073212 -0.811101
9  1.539110 0.000082 0.000008  -0.000007 0.000021 -0.247841
10  1.196333 0.000146 0.000027  0.000011 0.000019 -0.430771
11  3.883506 -0.047268 0.431381  0.085898 0.021851 -0.587925
12  1.719574 -0.000027 0.000019  0.000015 0.005519 -0.366533
13  1.209177 0.000092 0.000016  0.000004 0.003092 -0.216437
14  4.085223 -0.082715 1.151042  0.354468 -0.042725 -0.531804
15  1.719447 -0.000010 0.000021  0.000029 0.004070 -0.363021
16  1.099676 0.000051 0.000006  0.000003 0.002579 -0.244381
17  0.971590 -1.283498 0.847609  -1.222687 -0.679194 -0.788886
18  1.789819 -0.000006 -0.000018  0.000012 -0.000024 0.228522
19  1.207014 -0.000011 -0.000045  0.000002 -0.000008 0.362858
20  5.740638 0.000409 -0.000702  0.113731 0.000003 0.000071
21  11.481178 0.000319 -0.000750  0.090981 -0.028957 -0.007455
22  6.027524 -0.000330 0.000202  -1.223750 -1.844013 -1.225722
23  0.000003 11.692096 -0.000005  -0.695253 -0.212431 -0.572222
24  0.000003 0.000009 0.000000  0.006052 -0.000030 1.570739
25  -0.000000 -0.000011 0.000000  0.868957 0.000002 1.570712
26  -8.280402 -6.140478 -1.848668  1.473120 1.855075 -0.198639
27  6.027506 -0.000258 -0.000238  0.871350 0.286995 -0.736480
28  11.691990 0.000244 0.000858  0.151014 0.000007 -0.767050
29  11.480739 0.000071 0.000816  -0.594020 0.207834 -0.232676
30  3.452860 -0.227594 1.051755  0.406972 -0.281773 -0.608989
31  1.312560 0.000029 -0.000000  -0.000002 -0.000045 -0.148961
32  0.729345 0.000065 -0.000028  -0.000028 -0.000012 0.046463
33  3.942045 0.050110 0.430998  0.121277 -0.118787 -0.520714
34  1.539097 0.000008 -0.000002  0.000007 -0.000010 0.042929
35  1.196298 0.000079 -0.000003  -0.000009 -0.000006 -0.140034
36  3.883410 -0.050500 -0.431087  -0.089865 -0.000690 -0.298025
37  1.719564 -0.000077 -0.000004  -0.002289 -0.007626 -0.075726
38  1.209196 0.000036 0.000013  -0.001276 -0.004274 0.074338
39  3.806434 -0.112148 -1.295329  -0.330197 0.136798 -0.257131
40  1.719411 -0.000100 -0.000033  -0.001915 -0.006300 -0.072277
41  1.099672 0.000024 0.000007  -0.001196 -0.004013 0.046405
42  0.866370 -0.355430 -1.353142  1.079795 0.646453 -0.910435
43  1.789778 -0.000011 -0.000043  0.011965 0.001552 -0.110981
44  1.206998 -0.000003 0.000005  0.005321 0.005317 0.007332
45  5.740575 0.000057 0.000724  0.241951 -0.000014 0.000021
46  11.481096 0.000054 0.000915  0.193800 0.008421 -0.082269
47  6.027514 -0.000274 -0.000236  -1.051484 -1.238737 -1.280377
48  -0.000000 11.691975 -0.000007  -0.564659 0.138535 0.469448
49  0.000003 -0.000000 0.000001  2.423579 -0.000041 1.570856
50  -0.000006 -0.000015 0.000005  2.272644 -0.000030 1.570865
51  -12.070109 -2.811187 -27.080578  0.273065 2.612217 1.737569
52  -0.000001 -0.000001 -0.000003  0.008153 -0.000259 0.000009
53  -0.000001 0.000001 0.000000  1.565115 0.043565 -0.106862
54  8.086671 -14.906685 -27.754662  0.370751 0.633872 -1.721388
55  -0.000001 0.000000 0.000000  0.000000 -0.000000 -0.000002
56  0.000031 0.000029 0.000000  -1.571901 -0.044449 -0.106509
57  13.975513 -12.903485 -32.189266  1.570796 -0.000000 0.000000
58  -15.712370 3.038987 -23.205006  1.570796 -0.000000 0.000000
59  1.884062 -3.811535 -8.755003  1.570796 -0.000000 0.000000
60  -0.004311 0.001229 -0.000371  0.006898 -0.005534 -0.284229
61  -1.848672 7.515929 -7.055588  1.570796 -0.000000 0.000000
62  0.000000 0.000000 0.000000  -0.078727 -3.136056 0.284226
63  0.000000 0.000000 0.000000  1.570391 0.000242 -0.000247
64  -2.727782 -40.126625 2.101574  1.570189 0.001505 1.527251
65  -0.122196 -2.163893 -2.142130  -0.000000 0.000000 -0.000000
66  -0.122186 -0.302733 22.953674  -0.000000 0.000000 -0.000000
67  -0.109408 -1.967005 0.526451  -0.000000 0.000000 -0.000000
68  -0.104049 -4.495924 7.879276  -0.000000 0.000000 -0.000000
69  -0.195266 4.332630 -6.347187  -0.000000 0.000000 -0.000000
70  -0.130196 -1.733180 6.860656  -0.000000 0.000000 -0.000000
71  2.722966 -40.497147 0.375174  1.570189 0.001505 1.527251
time 10
0  0.000006 0.000000 0.000000  -1.570800 -1.391899 -1.570792
1  -8.017693 5.447542 1.937662  -1.544956 -1.855077 -0.198630
2  6.027517 -0.000322 0.000199  -0.644297 -0.302593 -0.898167
3  11.692116 0.000644 -0.000739  -0.845444 0.000006 -0.841812
4  11.480869 0.000574 -0.000451  1.773616 -0.242546 -0.016129
5  3.859513 -0.142878 -1.192046  -0.468164 0.151540 -0.880272
6  1.312589 0.000010 0.000008  -0.000026 0.000045 -0.439738
7  0.729353 0.000051 0.000052  0.000017 0.000021 -0.244318
8  3.942147 0.046273 -0.431509  -0.151810 0.073212 -0.811101
9  1.539111 0.000085 0.000007  -0.000007 0.000021 -0.247841
10  1.196336 0.000144 0.000025  0.000011 0.000019 -0.430771
11  3.883511 -0.047268 0.431383  0.085898 0.021851 -0.587925
12  1.719572 -0.000028 0.000016  0.000015 0.005519 -0.366533
13  1.209180 0.000089 0.000010  0.000004 0.003092 -0.216437
14  4.085225 -0.082715 1.151042  0.354468 -0.042725 -0.531804
15  1.719450 -0.000012 0.000022  0.000029 0.004070 -0.363021
16  1.099671 0.000048 0.000006  0.000003 0.002579 -0.244381
17  0.971590 -1.283498 0.847611  -1.222687 -0.679194 -0.788886
18  1.789819 -0.000005 -0.000019  0.000012 -0.000024 0.228522
19  1.207016 -0.000013 -0.000045  0.000002 -0.000008 0.362858
20  5.740638 0.000408 -0.000703  0.070095 0.000003 0.000071
21  11.481186 0.000324 -0.000748  0.044190 -0.026250 -0.006789
22  6.027524 -0.000331 0.000202  -1.753023 -1.878564 -0.707161
23  0.000002 11.692101 -0.000009  -0.615659 -0.165421 -0.509997
24  0.000003 0.000007 -0.000002  0.023617 -0.000031 1.570738
25  -0.000000 -0.000012 -0.000001  0.868957 0.000002 1.570712
26  -8.393617 -6.005292 -1.937599  1.473120 1.855075 -0.198639
27  6.027507 -0.000257 -0.000237  0.763165 0.350920 -0.816794
28  11.691991 0.000244 0.000857  0.141395 -0.000000 -0.547392
29  11.480382 0.000018 0.000821  -0.503860 0.202454 -0.309882
30  3.452858 -0.227595 1.051750  0.406972 -0.281772 -0.608989
31  1.312559 0.000028 -0.000000  -0.000002 -0.000045 -0.148961
32  0.729346 0.000064 -0.000028  -0.000028 -0.000012 0.046463
33  3.942044 0.050108 0.430993  0.121277 -0.118787 -0.520714
34  1.539099 0.000011 0.000000  0.000007 -0.000010 0.042929
35  1.196301 0.000077 -0.000003  -0.000009 -0.000006 -0.140034
36  3.883410 -0.050502 -0.431090  -0.089865 -0.000690 -0.298025
37  1.719564 -0.000077 -0.000001  -0.002289 -0.007626 -0.075726
38  1.209198 0.000034 0.000011  -0.001276 -0.004274 0.074338
39  3.806434 -0.112148 -1.295333  -0.330197 0.136798 -0.257131
40  1.719411 -0.000101 -0.000035  -0.001915 -0.006300 -0.072277
41  1.099674 0.000025 0.000006  -0.001196 -0.004013 0.046405
42  0.866370 -0.355430 -1.353145  1.079795 0.646453 -0.910435
43  1.789778 -0.000010 -0.000042  0.011965 0.001552 -0.110981
44  1.206997 -0.000008 0.000005  0.005321 0.005317 0.007332
45  5.740575 0.000055 0.000723  0.308055 -0.000014 0.000021
46  11.481024 0.000039 0.000914  0.212454 -0.000311 -0.098592
47  6.027514 -0.000273 -0.000236  -1.404938 -1.214845 -0.993559
48  -0.000000 11.691975 -0.000005  -0.409884 0.072127 0.343613
49  0.000004 0.000002 -0.000001  2.413975 -0.000041 1.570856
50  -0.000006 -0.000015 0.000005  2.272644 -0.000030 1.570865
51  -12.080094 -2.607073 -28.354927  0.313880 2.540827 1.764035
52  0.000004 -0.000001 -0.000001  0.008153 -0.000259 0.000009
53  -0.000003 0.000000 -0.000002  1.565115 0.043565 -0.106862
54  7.720896 -14.546185 -28.864317  0.255881 0.766400 -1.766008
55  0.000002 0.000000 -0.000003  0.000000 -0.000000 -0.000002
56  0.000033 0.000029 -0.000001  -1.571901 -0.044449 -0.106509
57  14.062574 -12.874806 -32.482468  1.570796 -0.000000 0.000000
58  -15.417985 2.938832 -23.313402  1.570796 -0.000000 0.000000
59  1.941978 -3.934269 -8.860325  1.570796 -0.000000 0.000000
60  -0.004311 0.001229 -0.000371  0.006898 -0.005534 -0.284229
61  -1.937603 7.403047 -7.191051  1.570796 -0.000000 0.000000
62  0.000000 0.000000 0.000000  -0.078727 -3.136056 0.284226
63  0.000000 0.000000 0.000000  1.570796 -0.000000 0.000000
64  -2.733710 -41.010178 2.219069  1.570796 -0.000000 1.570796
65  -0.122193 -2.163893 -2.142131  0.000000 -0.000000 0.000000
66  -0.122183 -0.302733 22.953672  0.000000 -0.000000 0.000000
67  -0.109402 -1.967005 0.526451  0.000000 -0.000000 0.000000
68  -0.104045 -4.495923 7.879276  0.000000 -0.000000 0.000000
69  -0.195263 4.332630 -6.347187  0.000000 -0.000000 0.000000
70  -0.130188 -1.733180 6.860655  0.000000 -0.000000 0.000000
71  2.726952 -41.140476 0.489155  1.570796 -0.000000 1.570796
end
