version 1
nodes
0 "ValveBiped.Bip01_Spine4" -1
1 "ValveBiped.Bip01_L_Clavicle" 0
2 "ValveBiped.Bip01_L_UpperArm" 1
3 "ValveBiped.Bip01_L_Forearm" 2
4 "ValveBiped.Bip01_L_Hand" 3
5 "ValveBiped.Bip01_L_Finger4" 4
6 "ValveBiped.Bip01_L_Finger41" 5
7 "ValveBiped.Bip01_L_Finger42" 6
8 "ValveBiped.Bip01_L_Finger3" 4
9 "ValveBiped.Bip01_L_Finger31" 8
10 "ValveBiped.Bip01_L_Finger32" 9
11 "ValveBiped.Bip01_L_Finger2" 4
12 "ValveBiped.Bip01_L_Finger21" 11
13 "ValveBiped.Bip01_L_Finger22" 12
14 "ValveBiped.Bip01_L_Finger1" 4
15 "ValveBiped.Bip01_L_Finger11" 14
16 "ValveBiped.Bip01_L_Finger12" 15
17 "ValveBiped.Bip01_L_Finger0" 4
18 "ValveBiped.Bip01_L_Finger01" 17
19 "ValveBiped.Bip01_L_Finger02" 18
20 "ValveBiped.Bip01_L_Ulna" 3
21 "ValveBiped.Bip01_L_Wrist" 3
22 "rig_l_upperarm" 1
23 "rig_l_forearm" 22
24 "rig_d_l_forearm" 23
25 "rig_d_l_upperarm" 22
26 "ValveBiped.Bip01_R_Clavicle" 0
27 "ValveBiped.Bip01_R_UpperArm" 26
28 "ValveBiped.Bip01_R_Forearm" 27
29 "ValveBiped.Bip01_R_Hand" 28
30 "ValveBiped.Bip01_R_Finger4" 29
31 "ValveBiped.Bip01_R_Finger41" 30
32 "ValveBiped.Bip01_R_Finger42" 31
33 "ValveBiped.Bip01_R_Finger3" 29
34 "ValveBiped.Bip01_R_Finger31" 33
35 "ValveBiped.Bip01_R_Finger32" 34
36 "ValveBiped.Bip01_R_Finger2" 29
37 "ValveBiped.Bip01_R_Finger21" 36
38 "ValveBiped.Bip01_R_Finger22" 37
39 "ValveBiped.Bip01_R_Finger1" 29
40 "ValveBiped.Bip01_R_Finger11" 39
41 "ValveBiped.Bip01_R_Finger12" 40
42 "ValveBiped.Bip01_R_Finger0" 29
43 "ValveBiped.Bip01_R_Finger01" 42
44 "ValveBiped.Bip01_R_Finger02" 43
45 "ValveBiped.Bip01_R_Ulna" 28
46 "ValveBiped.Bip01_R_Wrist" 28
47 "rig_r_upperarm" 26
48 "rig_r_forearm" 47
49 "rig_d_r_forearm" 48
50 "rig_d_r_upperarm" 47
51 "rig_r_hand" -1
52 "rig_d_r_hand" 51
53 "rig_d_r_wrist" 52
54 "rig_l_hand" -1
55 "rig_d_l_hand" 54
56 "rig_d_l_wrist" 54
57 "rig_l_pole" -1
58 "rig_r_pole" -1
59 "rig_l_clavicle" -1
60 "rig_d_l_clavicle" 59
61 "rig_r_clavicle" -1
62 "rig_d_r_clavicle" 61
63 "Camera" -1
64 "body" -1
65 "trigger" 64
66 "barrel" 64
67 "bulletdoor" 64
68 "pump" 64
69 "bolt" 68
70 "bullet2" 64
71 "bullet1" -1
end
skeleton
time 0
0  0.000006 0.000000 0.000000  -1.570800 -1.391899 -1.570792
1  -4.327822 -0.845730 -0.674796  -1.544956 -1.855077 -0.198630
2  6.027523 -0.000325 0.000193  -1.006071 -1.096739 -1.156695
3  11.692110 0.000645 -0.000739  -1.496256 -0.000006 -1.196810
4  11.480223 0.000707 -0.000363  1.387143 -0.484242 0.000862
5  3.859509 -0.142879 -1.192049  -0.579539 -0.183420 -1.732239
6  1.312589 0.000012 0.000008  -0.131955 -0.016631 -0.158592
7  0.729354 0.000052 0.000051  -0.005202 -0.009910 -0.156069
8  3.942143 0.046273 -0.431512  -0.453610 0.194124 -1.193733
9  1.539112 0.000084 0.000004  -0.018355 -0.067881 -0.869692
10  1.196333 0.000145 0.000031  0.007768 0.001612 -0.180400
11  3.883506 -0.047269 0.431382  -0.215638 0.490181 -0.673223
12  1.719573 -0.000028 0.000015  0.010250 -0.085026 -1.028971
13  1.209180 0.000093 0.000013  -0.009449 -0.006481 -0.608519
14  4.085225 -0.082715 1.151041  -0.157585 0.572898 -0.390910
15  1.719447 -0.000013 0.000021  0.001790 -0.041125 -0.529230
16  1.099675 0.000048 0.000004  -0.067291 0.039757 -1.402107
17  0.971586 -1.283499 0.847609  -0.978328 -0.625346 -0.310208
18  1.789820 -0.000003 -0.000018  0.000998 -0.014468 0.721477
19  1.207016 -0.000012 -0.000043  0.001593 -0.000026 -0.111145
20  5.740636 0.000411 -0.000703  -0.063002 0.000003 0.000071
21  11.481053 0.000352 -0.000731  -0.029162 -0.076276 -0.019477
22  6.027525 -0.000329 0.000203  1.723310 -0.450718 1.645633
23  0.000002 11.692100 -0.000007  -0.845804 -0.318306 -0.685077
24  0.000004 0.000008 -0.000002  -0.627172 -0.000030 1.570739
25  -0.000001 -0.000011 -0.000000  0.868957 0.000002 1.570712
26  -3.286773 -12.103185 2.073871  1.473120 1.855075 -0.198639
27  6.027503 -0.000263 -0.000230  1.571187 0.570438 -0.127940
28  11.691993 0.000242 0.000856  0.577924 0.000076 -1.895010
29  11.478849 -0.000674 0.001423  -0.717568 0.474217 0.975649
30  3.452862 -0.227595 1.051754  0.866917 -0.155786 -1.945490
31  1.312558 0.000026 -0.000000  -0.014457 -0.063592 -0.435905
32  0.729345 0.000065 -0.000027  0.011053 -0.006488 -0.934426
33  3.942046 0.050109 0.430997  0.518604 -0.133149 -1.821461
34  1.539097 0.000010 -0.000000  -0.017633 -0.034040 -0.503363
35  1.196299 0.000076 -0.000004  0.002797 -0.001242 -1.200850
36  3.883412 -0.050502 -0.431087  0.293878 -0.290992 -1.474083
37  1.719563 -0.000079 -0.000003  -0.026586 -0.002243 -1.035463
38  1.209196 0.000036 0.000011  0.002758 -0.001679 -0.793418
39  3.806436 -0.112148 -1.295329  0.047322 -0.340490 -0.456146
40  1.719412 -0.000099 -0.000034  0.047489 0.002654 -0.061535
41  1.099674 0.000024 0.000007  -0.003113 -0.003642 -0.973980
42  0.866372 -0.355430 -1.353142  1.256088 0.164937 -1.034935
43  1.789779 -0.000009 -0.000043  0.032864 0.053221 0.044527
44  1.206996 -0.000006 0.000005  -0.246597 -0.001906 1.495868
45  5.740572 0.000055 0.000723  0.160067 -0.000014 0.000021
46  11.480715 -0.000099 0.001034  0.119682 0.134504 0.132056
47  6.027514 -0.000273 -0.000237  -0.698587 -0.574231 -1.270814
48  -0.000002 11.691977 -0.000007  -1.261878 0.707724 0.936308
49  0.000003 -0.000000 -0.000000  2.850449 -0.000041 1.570856
50  -0.000008 -0.000014 0.000005  2.272644 -0.000030 1.570865
51  -4.156372 -0.988710 -4.120701  -0.014842 2.988950 1.463816
52  0.000000 -0.000000 0.000000  0.008153 -0.000259 0.000009
53  -0.000000 0.000000 0.000000  1.565115 0.043565 -0.106862
54  -0.794370 -16.643337 -5.859766  -1.068589 -0.115470 -1.927258
55  0.000000 -0.000000 -0.000000  0.000000 -0.000000 -0.000002
56  0.000030 0.000029 0.000001  -1.571902 -0.044449 -0.106509
57  10.135489 -14.168441 -19.256790  1.570796 -0.000000 0.000000
58  -18.972424 8.517178 -9.782257  1.570796 -0.000000 0.000000
59  -0.670483 1.601972 -4.109488  1.570796 -0.000000 0.000000
60  -0.004311 0.001230 -0.000371  0.006898 -0.005534 -0.284229
61  2.073871 12.494887 -1.080626  1.570796 -0.000000 0.000000
62  0.000000 0.000000 0.000000  -0.078727 -3.136056 0.284226
63  0.000000 0.000000 0.000000  1.570796 -0.000000 0.000000
64  -2.522002 -9.454674 -1.977162  1.549086 0.053723 0.014481
65  -0.122191 -2.163893 -2.142130  0.000000 0.000000 0.000000
66  -0.122184 -0.302733 22.953674  0.000000 0.000000 0.000000
67  -0.109402 -1.967005 0.526452  0.000000 0.000000 0.000000
68  -0.104047 -4.495923 7.879277  0.000000 0.000000 0.000000
69  -0.195264 4.332631 -6.347187  0.000000 0.000000 0.000000
70  -0.130187 -1.733180 6.860656  0.000000 0.000000 0.000000
71  -2.658990 -14.954163 -3.578804  1.549086 0.053723 0.014481
end
