version 1
nodes
0 "ValveBiped.Bip01_Spine4" -1
1 "ValveBiped.Bip01_L_Clavicle" 0
2 "ValveBiped.Bip01_L_UpperArm" 1
3 "ValveBiped.Bip01_L_Forearm" 2
4 "ValveBiped.Bip01_L_Hand" 3
5 "ValveBiped.Bip01_L_Finger4" 4
6 "ValveBiped.Bip01_L_Finger41" 5
7 "ValveBiped.Bip01_L_Finger42" 6
8 "ValveBiped.Bip01_L_Finger3" 4
9 "ValveBiped.Bip01_L_Finger31" 8
10 "ValveBiped.Bip01_L_Finger32" 9
11 "ValveBiped.Bip01_L_Finger2" 4
12 "ValveBiped.Bip01_L_Finger21" 11
13 "ValveBiped.Bip01_L_Finger22" 12
14 "ValveBiped.Bip01_L_Finger1" 4
15 "ValveBiped.Bip01_L_Finger11" 14
16 "ValveBiped.Bip01_L_Finger12" 15
17 "ValveBiped.Bip01_L_Finger0" 4
18 "ValveBiped.Bip01_L_Finger01" 17
19 "ValveBiped.Bip01_L_Finger02" 18
20 "ValveBiped.Bip01_L_Ulna" 3
21 "ValveBiped.Bip01_L_Wrist" 3
22 "rig_l_upperarm" 1
23 "rig_l_forearm" 22
24 "rig_d_l_forearm" 23
25 "rig_d_l_upperarm" 22
26 "ValveBiped.Bip01_R_Clavicle" 0
27 "ValveBiped.Bip01_R_UpperArm" 26
28 "ValveBiped.Bip01_R_Forearm" 27
29 "ValveBiped.Bip01_R_Hand" 28
30 "ValveBiped.Bip01_R_Finger4" 29
31 "ValveBiped.Bip01_R_Finger41" 30
32 "ValveBiped.Bip01_R_Finger42" 31
33 "ValveBiped.Bip01_R_Finger3" 29
34 "ValveBiped.Bip01_R_Finger31" 33
35 "ValveBiped.Bip01_R_Finger32" 34
36 "ValveBiped.Bip01_R_Finger2" 29
37 "ValveBiped.Bip01_R_Finger21" 36
38 "ValveBiped.Bip01_R_Finger22" 37
39 "ValveBiped.Bip01_R_Finger1" 29
40 "ValveBiped.Bip01_R_Finger11" 39
41 "ValveBiped.Bip01_R_Finger12" 40
42 "ValveBiped.Bip01_R_Finger0" 29
43 "ValveBiped.Bip01_R_Finger01" 42
44 "ValveBiped.Bip01_R_Finger02" 43
45 "ValveBiped.Bip01_R_Ulna" 28
46 "ValveBiped.Bip01_R_Wrist" 28
47 "rig_r_upperarm" 26
48 "rig_r_forearm" 47
49 "rig_d_r_forearm" 48
50 "rig_d_r_upperarm" 47
51 "rig_r_hand" -1
52 "rig_d_r_hand" 51
53 "rig_d_r_wrist" 52
54 "rig_l_hand" -1
55 "rig_d_l_hand" 54
56 "rig_d_l_wrist" 54
57 "rig_l_pole" -1
58 "rig_r_pole" -1
59 "rig_l_clavicle" -1
60 "rig_d_l_clavicle" 59
61 "rig_r_clavicle" -1
62 "rig_d_r_clavicle" 61
63 "Camera" -1
64 "body" -1
65 "trigger" 64
66 "barrel" 64
67 "magrel" 64
68 "bullet1" 64
69 "bolt" 64
70 "chandle" 64
71 "mag" -1
72 "bullet2" 71
73 "bullet3" 71
end
skeleton
time 0
0  0.031807 0.000000 -0.000718  -1.570800 -1.391899 -1.570792
1  -5.164373 -5.683526 -1.473686  -1.544956 -1.855077 -0.198630
2  6.027520 -0.000327 0.000201  -1.159570 -0.871321 -1.150844
3  11.692105 0.000483 -0.000740  -0.255833 -0.000031 -1.437000
4  11.479668 -0.000465 -0.000881  1.237138 -0.300860 0.203547
5  3.859505 -0.142876 -1.192066  -0.293152 0.063165 -1.666430
6  1.312589 0.000014 0.000005  -0.038960 -0.163792 -0.776953
7  0.729353 0.000053 0.000048  0.027928 -0.011485 -0.645483
8  3.942142 0.046276 -0.431529  -0.456264 0.112870 -1.408134
9  1.539110 0.000081 0.000000  0.094878 -0.019352 -0.829315
10  1.196331 0.000145 0.000024  0.002133 0.002883 -1.120896
11  3.883508 -0.047266 0.431364  -0.423643 0.213424 -1.245194
12  1.719573 -0.000025 0.000011  0.000087 -0.071906 -1.146945
13  1.209180 0.000090 0.000007  -0.009737 -0.000809 -0.595644
14  3.859670 -0.138472 1.332393  -0.398812 0.213193 -1.248335
15  1.719449 -0.000011 0.000021  -0.051974 0.052324 -0.848309
16  1.099676 0.000049 0.000002  -0.007239 0.005996 -0.967516
17  0.781543 -0.803403 1.419827  -1.322386 -0.671925 -0.283371
18  1.789820 -0.000005 -0.000016  0.021100 -0.088726 0.772072
19  1.207013 -0.000014 -0.000042  -0.004723 -0.002684 0.014398
20  5.740637 0.000364 -0.000698  -0.088111 0.000003 0.000060
21  11.480944 0.000046 -0.000828  -0.056874 -0.045689 0.018002
22  6.027524 -0.000330 0.000206  1.926795 -0.615780 1.418700
23  0.000001 11.692098 -0.000008  -0.992009 -0.441500 -0.786168
24  0.000003 0.000007 -0.000000  0.613263 -0.000031 1.570738
25  -0.000001 -0.000007 -0.000002  0.868967 -0.000009 1.570721
26  -6.617934 -9.178503 0.826812  1.473120 1.855074 -0.198639
27  6.027514 -0.000265 -0.000222  1.523441 0.822200 -0.710464
28  11.691998 0.000242 0.000862  0.141447 0.000061 -1.737664
29  11.480246 -0.000313 0.000877  -1.169154 0.495758 0.789099
30  3.859439 -0.132762 1.193064  0.469647 -0.013262 -1.872396
31  1.312559 0.000026 -0.000001  0.024060 -0.138695 -0.550187
32  0.729345 0.000064 -0.000028  -0.166197 -0.081570 -0.714272
33  3.942048 0.050135 0.430999  0.225311 -0.086239 -1.592715
34  1.539097 0.000007 -0.000005  0.035254 -0.050374 -0.994348
35  1.196301 0.000077 -0.000008  -0.021522 0.002174 -0.839739
36  3.883415 -0.050476 -0.431085  0.184827 -0.271742 -1.204033
37  1.719564 -0.000082 -0.000015  0.022857 -0.107188 -1.509106
38  1.209198 0.000035 0.000005  0.000661 0.071070 -0.480462
39  3.859589 -0.149085 -1.331321  -0.098208 -0.090177 -0.345038
40  1.719411 -0.000096 -0.000048  -0.015804 -0.000373 -1.430695
41  1.099673 0.000025 -0.000001  -0.041072 0.066616 -0.536933
42  0.805983 -0.359848 -1.318339  1.134762 0.249907 -0.841728
43  1.789780 -0.000007 -0.000030  0.000332 -0.014982 0.147148
44  1.206997 -0.000004 0.000014  0.000010 -0.117703 1.485327
45  5.740575 0.000118 0.000727  0.159031 -0.000013 0.000032
46  11.480996 0.000074 0.000930  0.045310 0.099897 0.122657
47  6.027517 -0.000278 -0.000232  -0.973476 -0.482038 -1.683140
48  -0.000002 11.691979 -0.000008  -1.169052 0.612523 0.891608
49  0.000002 -0.000002 0.000000  2.413972 -0.000036 1.570861
50  -0.000007 -0.000015 0.000004  2.272646 -0.000031 1.570865
51  -3.184083 -4.685155 -6.601060  -0.056027 -2.889262 1.381348
52  -0.000000 0.000000 0.000000  0.008153 -0.000259 0.000009
53  0.000001 0.000000 -0.000000  1.565115 0.043565 -0.106862
54  -0.212780 -10.314556 -6.991644  -0.213322 -0.437549 -1.798772
55  -0.000000 -0.000000 -0.000001  0.000000 -0.000000 -0.000002
56  0.000031 0.000029 -0.000000  -1.571902 -0.044449 -0.106509
57  7.746025 -4.818353 -19.602560  1.570796 -0.000000 0.000000
58  -15.386185 4.000748 -22.642645  1.570796 -0.000000 0.000000
59  -1.437576 6.511418 -4.072549  1.570796 -0.000000 0.000000
60  -0.004311 0.001230 -0.000371  0.006898 -0.005534 -0.284228
61  0.858610 10.209643 -4.879772  1.570796 -0.000000 0.000000
62  0.000000 0.000000 0.000000  -0.078728 -3.136056 0.284225
63  0.031801 0.000000 -0.000718  1.570796 -0.000000 0.000000
64  -2.323335 -9.975027 -2.155348  1.571103 0.041360 0.006551
65  -0.000000 -1.379689 -0.604537  -0.000000 -0.000000 -0.000000
66  0.000001 -0.131223 7.571680  -0.000000 -0.000000 -0.000000
67  0.496507 -0.902652 1.140568  -0.000000 -0.000000 -0.000000
68  -0.138166 -0.291040 1.514191  -0.000000 -0.000000 -0.000000
69  0.000001 0.037258 0.474138  -0.000000 -0.000000 -0.000000
70  0.000002 0.222708 4.208475  -0.000000 -0.000000 -0.000000
71  -2.381047 -12.603758 -3.966042  1.571103 0.041360 0.006551
72  -0.138166 1.520396 -1.114661  -0.000000 -0.000000 -0.000000
73  0.138167 1.347512 -1.114661  -0.000000 -0.000000 -0.000000
end
