version 1
nodes
0 "ValveBiped.Bip01_Spine4" -1
1 "ValveBiped.Bip01_L_Clavicle" 0
2 "ValveBiped.Bip01_L_UpperArm" 1
3 "ValveBiped.Bip01_L_Forearm" 2
4 "ValveBiped.Bip01_L_Hand" 3
5 "ValveBiped.Bip01_L_Finger4" 4
6 "ValveBiped.Bip01_L_Finger41" 5
7 "ValveBiped.Bip01_L_Finger42" 6
8 "ValveBiped.Bip01_L_Finger3" 4
9 "ValveBiped.Bip01_L_Finger31" 8
10 "ValveBiped.Bip01_L_Finger32" 9
11 "ValveBiped.Bip01_L_Finger2" 4
12 "ValveBiped.Bip01_L_Finger21" 11
13 "ValveBiped.Bip01_L_Finger22" 12
14 "ValveBiped.Bip01_L_Finger1" 4
15 "ValveBiped.Bip01_L_Finger11" 14
16 "ValveBiped.Bip01_L_Finger12" 15
17 "ValveBiped.Bip01_L_Finger0" 4
18 "ValveBiped.Bip01_L_Finger01" 17
19 "ValveBiped.Bip01_L_Finger02" 18
20 "ValveBiped.Bip01_L_Ulna" 3
21 "ValveBiped.Bip01_L_Wrist" 3
22 "rig_l_upperarm" 1
23 "rig_l_forearm" 22
24 "rig_d_l_forearm" 23
25 "rig_d_l_upperarm" 22
26 "ValveBiped.Bip01_R_Clavicle" 0
27 "ValveBiped.Bip01_R_UpperArm" 26
28 "ValveBiped.Bip01_R_Forearm" 27
29 "ValveBiped.Bip01_R_Hand" 28
30 "ValveBiped.Bip01_R_Finger4" 29
31 "ValveBiped.Bip01_R_Finger41" 30
32 "ValveBiped.Bip01_R_Finger42" 31
33 "ValveBiped.Bip01_R_Finger3" 29
34 "ValveBiped.Bip01_R_Finger31" 33
35 "ValveBiped.Bip01_R_Finger32" 34
36 "ValveBiped.Bip01_R_Finger2" 29
37 "ValveBiped.Bip01_R_Finger21" 36
38 "ValveBiped.Bip01_R_Finger22" 37
39 "ValveBiped.Bip01_R_Finger1" 29
40 "ValveBiped.Bip01_R_Finger11" 39
41 "ValveBiped.Bip01_R_Finger12" 40
42 "ValveBiped.Bip01_R_Finger0" 29
43 "ValveBiped.Bip01_R_Finger01" 42
44 "ValveBiped.Bip01_R_Finger02" 43
45 "ValveBiped.Bip01_R_Ulna" 28
46 "ValveBiped.Bip01_R_Wrist" 28
47 "rig_r_upperarm" 26
48 "rig_r_forearm" 47
49 "rig_d_r_forearm" 48
50 "rig_d_r_upperarm" 47
51 "rig_r_hand" -1
52 "rig_d_r_hand" 51
53 "rig_d_r_wrist" 52
54 "rig_l_hand" -1
55 "rig_d_l_hand" 54
56 "rig_d_l_wrist" 54
57 "rig_l_pole" -1
58 "rig_r_pole" -1
59 "rig_l_clavicle" -1
60 "rig_d_l_clavicle" 59
61 "rig_r_clavicle" -1
62 "rig_d_r_clavicle" 61
63 "Camera" -1
64 "body" -1
65 "trigger" 64
66 "barrel" 64
67 "bullet1" 64
68 "slide" 64
69 "hammer" 64
70 "sliderelease" 64
71 "mag" -1
72 "bullet2" 71
73 "bullet3" 71
end
skeleton
time 0
0  0.000006 0.000000 0.000000  -1.570800 -1.391899 -1.570792
1  -9.841317 -7.634221 1.937669  -1.544956 -1.855077 -0.198630
2  6.027525 -0.000329 0.000190  0.586645 -1.470920 -2.600155
3  11.692115 0.000645 -0.000740  -0.990385 0.000007 -0.691133
4  11.480831 0.000642 -0.000357  1.102908 -0.321665 0.363294
5  3.666628 -0.163903 -1.204801  -0.519250 0.086737 -1.532179
6  1.312590 0.000010 0.000008  -0.003664 0.023356 -0.272237
7  0.729355 0.000054 0.000049  -0.003677 0.000626 -0.150723
8  3.942141 0.046332 -0.431542  -0.205965 0.132197 -1.449654
9  1.539110 0.000082 0.000004  -0.000570 0.007396 -0.283198
10  1.196332 0.000147 0.000028  -0.000713 0.000161 -0.519018
11  3.883510 -0.047212 0.431351  -0.042690 0.198097 -1.260493
12  1.719573 -0.000026 0.000017  -0.000644 0.003280 -0.404344
13  1.209179 0.000091 0.000012  -0.000905 0.002861 -0.623853
14  3.859676 -0.138418 1.332380  -0.235831 0.317274 -1.342437
15  1.719448 -0.000018 0.000027  0.001902 0.001157 -0.067177
16  1.099675 0.000049 0.000006  -0.000943 0.002399 -0.620101
17  0.020619 -0.848310 1.563300  -1.045336 -0.389272 -0.255018
18  1.789819 -0.000003 -0.000017  -0.006334 0.000661 0.184288
19  1.207016 -0.000012 -0.000043  -0.005682 -0.007385 -0.065074
20  5.740635 0.000389 -0.000700  -0.100524 0.000003 0.000063
21  11.481174 0.000307 -0.000725  -0.078840 -0.058218 0.043601
22  6.027524 -0.000329 0.000201  1.474851 -0.027865 1.831254
23  -0.000001 11.692100 -0.000008  -0.512034 -0.113433 -0.427031
24  0.000003 0.000008 -0.000000  -0.121332 -0.000031 1.570739
25  -0.000001 -0.000011 -0.000000  0.868960 0.000002 1.570712
26  -6.899342 -10.734701 0.826813  1.473120 1.855075 -0.198639
27  6.027518 -0.000263 -0.000215  1.595876 1.308896 -0.661199
28  11.691991 0.000162 0.000859  0.139882 0.000011 -0.876884
29  11.480636 0.000085 0.000818  -1.306505 0.535203 0.457133
30  3.710775 -0.434234 1.096848  0.966311 -0.027609 -1.956549
31  1.312560 0.000031 -0.000000  0.008191 -0.088214 -0.285514
32  0.729347 0.000066 -0.000029  -0.132450 -0.134191 -1.087309
33  3.820806 -0.154608 0.327899  0.593871 -0.205061 -1.572645
34  1.539095 0.000004 -0.000002  0.047162 -0.047589 -0.892209
35  1.196302 0.000081 -0.000004  -0.021079 -0.009374 -1.253100
36  3.882446 -0.171892 -0.416804  0.390739 -0.262224 -1.203021
37  1.719565 -0.000085 -0.000005  0.018695 -0.082922 -1.374417
38  1.209194 0.000031 0.000011  0.003361 -0.003782 -0.857658
39  3.859585 -0.149081 -1.331322  -0.075574 -0.222032 -0.316789
40  1.719410 -0.000097 -0.000037  0.034832 0.005064 -1.284467
41  1.099672 0.000021 0.000005  -0.004977 -0.008087 -0.691053
42  0.230505 -0.805067 -1.086893  1.111612 0.594062 -0.578210
43  1.789780 -0.000008 -0.000042  -0.089312 -0.070323 0.368341
44  1.206996 -0.000007 0.000005  0.000678 -0.214508 0.376132
45  5.740573 0.000080 0.000721  0.078411 -0.000014 0.000028
46  11.481071 0.000091 0.000909  0.029934 0.094243 0.064531
47  6.027515 -0.000273 -0.000229  -1.364817 -0.162936 -1.572110
48  -0.000002 11.691975 -0.000008  -0.639212 0.178682 0.528609
49  0.000002 0.000000 0.000001  2.412441 -0.000036 1.570860
50  -0.000008 -0.000013 0.000005  2.272645 -0.000036 1.570861
51  -2.464756 -9.020089 -5.062485  -0.148535 -2.879863 1.246914
52  0.000001 -0.000000 -0.000000  0.008153 -0.000259 0.000009
53  0.000001 0.000000 -0.000000  1.565115 0.043565 -0.106862
54  0.148485 -10.769417 -5.771856  -0.517814 -0.035386 -1.912806
55  -0.000000 0.000000 0.000001  0.000000 -0.000001 -0.000002
56  0.000030 0.000029 0.000002  -1.571901 -0.044449 -0.106509
57  12.000549 -19.544212 -17.246658  1.570796 -0.000000 0.000000
58  -15.417984 4.000748 -22.641926  1.570796 -0.000000 0.000000
59  1.941978 9.263218 -8.327020  1.570796 -0.000000 0.000000
60  -0.004311 0.001229 -0.000372  0.006898 -0.005534 -0.284229
61  0.826810 11.791080 -4.879054  1.570796 -0.000000 0.000000
62  0.000000 0.000000 0.000000  -0.078727 -3.136056 0.284226
63  0.000000 0.000000 0.000000  1.570796 -0.000000 0.000000
64  -1.915771 -11.101227 -3.861487  1.570796 -0.000000 0.000000
65  -0.022960 1.363687 2.942972  0.000000 -0.000000 0.000000
66  -0.023072 2.412897 7.714149  0.000000 -0.000000 0.000000
67  -0.022961 2.040275 1.313676  0.000000 -0.000000 0.000000
68  0.000000 2.151127 2.689002  0.000000 -0.000000 0.000000
69  -0.022961 1.645012 0.528370  -1.134464 -0.000000 -0.000000
70  0.597054 1.495772 2.359359  0.000000 -0.000000 0.000000
71  -1.915770 -11.617895 -1.911009  1.570796 -0.000000 0.000000
72  -0.031014 0.123524 0.801847  0.000000 0.000000 0.000000
73  0.060613 -0.165296 0.765401  0.000000 0.000000 0.000000
time 1
0  0.000006 0.000000 0.000000  -1.570800 -1.391899 -1.570792
1  -9.841317 -7.634221 1.937669  -1.544956 -1.855077 -0.198630
2  6.027524 -0.000328 0.000190  -0.768998 -1.446326 -1.230760
3  11.692111 0.000644 -0.000739  -0.990407 -0.000001 -1.009287
4  11.480570 0.000555 -0.000491  1.116268 -0.734560 0.496392
5  3.666628 -0.163904 -1.204802  -0.491774 0.175746 -1.111858
6  1.312590 0.000008 0.000008  -0.002334 0.011624 -0.355984
7  0.729355 0.000053 0.000050  -0.001837 0.000280 -0.197520
8  3.942141 0.046331 -0.431543  -0.166254 0.125993 -1.022485
9  1.539110 0.000082 0.000004  -0.000256 0.003711 -0.265519
10  1.196333 0.000145 0.000029  -0.000349 0.000098 -0.474894
11  3.883511 -0.047212 0.431351  0.045424 0.115253 -0.811081
12  1.719573 -0.000028 0.000017  -0.000325 0.004402 -0.385439
13  1.209179 0.000089 0.000013  -0.000463 0.003022 -0.420146
14  3.859677 -0.138418 1.332380  0.112325 0.173617 -0.795803
15  1.719448 -0.000018 0.000028  0.001073 0.002681 -0.215100
16  1.099675 0.000049 0.000005  -0.000479 0.002533 -0.432241
17  0.020621 -0.848310 1.563300  -1.166609 -0.498273 -0.485261
18  1.789819 -0.000003 -0.000016  -0.002324 -0.005368 0.144075
19  1.207016 -0.000012 -0.000044  -0.002503 -0.003367 0.110177
20  5.740636 0.000389 -0.000698  -0.117112 0.000003 0.000064
21  11.481120 0.000289 -0.000750  -0.048215 -0.140343 0.050629
22  6.027524 -0.000329 0.000201  1.579195 -0.124272 1.843150
23  0.000001 11.692099 -0.000007  -0.726603 -0.232652 -0.596295
24  0.000003 0.000008 -0.000001  -0.121332 -0.000030 1.570738
25  0.000001 -0.000011 0.000000  0.868960 0.000002 1.570712
26  -6.932469 -10.629854 0.765528  1.473120 1.855075 -0.198639
27  6.027517 -0.000263 -0.000217  1.611650 1.220509 -0.652307
28  11.691990 0.000161 0.000857  0.150801 0.000020 -1.064487
29  11.479940 -0.000242 0.000867  -1.123410 0.379172 0.640650
30  3.710775 -0.434235 1.096848  0.406971 -0.281773 -0.608982
31  1.312560 0.000030 -0.000000  -0.000000 -0.000045 -0.148960
32  0.729349 0.000064 -0.000028  -0.000028 -0.000012 0.046463
33  3.820805 -0.154609 0.327899  0.121278 -0.118788 -0.520704
34  1.539095 0.000005 -0.000002  0.000007 -0.000009 0.042924
35  1.196302 0.000081 -0.000003  -0.000009 -0.000007 -0.140032
36  3.882446 -0.171893 -0.416805  -0.089865 -0.000691 -0.298015
37  1.719563 -0.000083 -0.000005  -0.002288 -0.007626 -0.075729
38  1.209194 0.000034 0.000011  -0.001277 -0.004274 0.074338
39  3.859583 -0.149082 -1.331323  -0.330196 0.136796 -0.257123
40  1.719411 -0.000097 -0.000038  -0.001916 -0.006299 -0.072275
41  1.099673 0.000023 0.000006  -0.001196 -0.004014 0.046404
42  0.230503 -0.805067 -1.086894  1.098554 0.621298 -0.742287
43  1.789779 -0.000008 -0.000042  -0.034308 -0.040478 0.127607
44  1.206995 -0.000007 0.000005  0.013242 -0.104803 0.190534
45  5.740573 0.000079 0.000720  0.124964 -0.000014 0.000028
46  11.480932 0.000025 0.000918  0.067385 0.076894 0.096676
47  6.027516 -0.000273 -0.000229  -1.290044 -0.212324 -1.592232
48  -0.000001 11.691975 -0.000007  -0.762166 0.256763 0.623325
49  0.000004 -0.000000 0.000000  2.423350 -0.000036 1.570860
50  -0.000007 -0.000012 0.000004  2.272645 -0.000036 1.570861
51  -2.734682 -8.110447 -5.019972  -0.020002 -3.020360 1.366952
52  0.000000 0.000000 0.000000  0.008153 -0.000259 0.000009
53  -0.000000 -0.000000 -0.000000  1.565115 0.043565 -0.106862
54  0.365475 -9.243737 -6.013071  -0.434413 -0.024552 -1.638093
55  -0.000000 -0.000000 0.000001  0.000000 -0.000001 -0.000002
56  0.000030 0.000029 0.000002  -1.571901 -0.044449 -0.106509
57  12.232693 -19.396358 -17.584423  1.570796 -0.000000 0.000000
58  -15.417984 3.977206 -22.656813  1.570796 -0.000000 0.000000
59  1.941978 9.263218 -8.327020  1.570796 -0.000000 0.000000
60  -0.004311 0.001229 -0.000372  0.006898 -0.005534 -0.284229
61  0.765525 11.693801 -4.930309  1.570796 -0.000000 0.000000
62  0.000000 0.000000 0.000000  -0.078727 -3.136056 0.284226
63  0.000000 0.000000 0.000000  1.568900 0.001131 -0.001158
64  -1.939472 -11.704454 -3.776306  1.570796 -0.000000 0.039920
65  -0.022960 1.363686 2.942972  0.000000 -0.000000 0.000000
66  -0.023072 2.412897 7.714151  0.000000 -0.000000 0.000000
67  -0.022961 2.040275 1.313676  0.000000 -0.000000 0.000000
68  0.000000 2.151127 2.689002  0.000000 -0.000000 0.000000
69  -0.022961 1.645012 0.528370  -1.134464 -0.000000 -0.000000
70  0.597054 1.495772 2.359358  0.000000 -0.000000 0.000000
71  -1.918851 -12.220712 -1.825828  1.570796 -0.000000 0.039920
72  -0.031014 0.123524 0.801847  0.000000 0.000000 0.000000
73  0.060613 -0.165296 0.765401  0.000000 0.000000 0.000000
time 2
0  0.000006 0.000000 0.000000  -1.570800 -1.391899 -1.570792
1  -9.841317 -7.634221 1.937669  -1.544956 -1.855077 -0.198630
2  6.027523 -0.000327 0.000190  -1.179420 -1.315479 -0.829598
3  11.692111 0.000645 -0.000740  -0.990420 -0.000010 -1.230245
4  11.480062 0.000398 -0.000729  1.078729 -0.766932 0.548594
5  3.666628 -0.163904 -1.204802  -0.428829 0.245572 -0.681672
6  1.312591 0.000011 0.000008  -0.000027 0.000044 -0.439740
7  0.729355 0.000055 0.000050  0.000017 0.000021 -0.244317
8  3.942140 0.046331 -0.431543  -0.132738 0.103980 -0.596316
9  1.539110 0.000082 0.000004  -0.000007 0.000021 -0.247842
10  1.196333 0.000146 0.000029  0.000011 0.000018 -0.430770
11  3.883510 -0.047212 0.431351  0.088575 0.002956 -0.372601
12  1.719572 -0.000028 0.000017  0.000015 0.005518 -0.366533
13  1.209180 0.000090 0.000011  0.000004 0.003091 -0.216438
14  3.859677 -0.138418 1.332379  0.338202 -0.116334 -0.327899
15  1.719445 -0.000018 0.000028  0.000028 0.004066 -0.363025
16  1.099676 0.000050 0.000006  0.000003 0.002578 -0.244381
17  0.020621 -0.848310 1.563299  -1.256604 -0.638330 -0.728337
18  1.789819 -0.000004 -0.000017  0.001924 -0.011232 0.103835
19  1.207016 -0.000014 -0.000045  0.001328 0.000027 0.299078
20  5.740635 0.000389 -0.000699  -0.131148 0.000003 0.000063
21  11.481018 0.000257 -0.000798  -0.049542 -0.149024 0.055683
22  6.027524 -0.000329 0.000201  1.690201 -0.226301 1.820823
23  -0.000000 11.692100 -0.000008  -0.866551 -0.334610 -0.700010
24  0.000003 0.000008 0.000001  -0.121332 -0.000030 1.570739
25  -0.000000 -0.000012 0.000000  0.868960 0.000002 1.570712
26  -7.032167 -10.314309 0.581087  1.473120 1.855075 -0.198639
27  6.027515 -0.000260 -0.000216  1.610469 1.082092 -0.663225
28  11.691994 0.000162 0.000856  0.183726 0.000034 -1.295251
29  11.480406 -0.000090 0.000853  -1.142685 0.402404 0.761383
30  3.710775 -0.434234 1.096848  0.406970 -0.281773 -0.608982
31  1.312559 0.000030 -0.000001  -0.000000 -0.000045 -0.148960
32  0.729348 0.000064 -0.000027  -0.000028 -0.000012 0.046463
33  3.820806 -0.154609 0.327899  0.121278 -0.118788 -0.520704
34  1.539097 0.000005 -0.000002  0.000007 -0.000009 0.042924
35  1.196304 0.000080 -0.000003  -0.000009 -0.000007 -0.140033
36  3.882445 -0.171892 -0.416804  -0.089865 -0.000691 -0.298015
37  1.719568 -0.000083 -0.000006  -0.002289 -0.007626 -0.075729
38  1.209193 0.000034 0.000011  -0.001277 -0.004274 0.074338
39  3.859584 -0.149081 -1.331322  -0.330196 0.136796 -0.257123
40  1.719412 -0.000097 -0.000038  -0.001916 -0.006299 -0.072275
41  1.099673 0.000023 0.000007  -0.001196 -0.004014 0.046404
42  0.230504 -0.805067 -1.086893  1.079795 0.646453 -0.910428
43  1.789779 -0.000007 -0.000042  0.011966 0.001552 -0.110980
44  1.206996 -0.000006 0.000005  0.005321 0.005317 0.007331
45  5.740574 0.000078 0.000721  0.135366 -0.000014 0.000028
46  11.481027 0.000056 0.000915  0.058540 0.083592 0.120173
47  6.027515 -0.000271 -0.000227  -1.173751 -0.292880 -1.631188
48  -0.000002 11.691978 -0.000006  -0.906434 0.367096 0.728284
49  0.000001 0.000001 -0.000000  2.456264 -0.000036 1.570860
50  -0.000007 -0.000013 0.000005  2.272645 -0.000036 1.570861
51  -3.427732 -6.990634 -5.610277  -0.028151 -3.053644 1.355956
52  -0.000000 0.000000 0.000000  0.008153 -0.000259 0.000009
53  0.000001 0.000000 -0.000000  1.565115 0.043565 -0.106862
54  1.351114 -8.289748 -6.761507  -0.457966 -0.030417 -1.661646
55  0.000001 -0.000000 0.000000  0.000000 -0.000001 -0.000002
56  0.000030 0.000029 0.000001  -1.571901 -0.044449 -0.106509
57  12.908321 -18.951378 -18.600952  1.570796 -0.000000 0.000000
58  -15.417984 3.906356 -22.701614  1.570796 -0.000000 0.000000
59  1.941978 9.263218 -8.327020  1.570796 -0.000000 0.000000
60  -0.004311 0.001229 -0.000372  0.006898 -0.005534 -0.284229
61  0.581084 11.401032 -5.084565  1.570796 -0.000000 0.000000
62  0.000000 0.000000 0.000000  -0.078727 -3.136056 0.284226
63  0.000000 0.000000 0.000000  1.565375 0.003226 -0.003314
64  -2.003803 -13.341784 -3.545101  1.570796 -0.000000 0.151409
65  -0.022960 1.363686 2.942973  0.000000 -0.000000 0.000000
66  -0.023072 2.412897 7.714152  0.000000 -0.000000 0.000000
67  -0.022961 2.040275 1.313675  0.000000 -0.000000 0.000000
68  0.000001 2.151127 2.689002  0.000000 -0.000000 0.000000
69  -0.022961 1.645012 0.528370  -1.134464 -0.000000 -0.000000
70  0.597054 1.495772 2.359358  0.000000 -0.000000 0.000000
71  -1.925872 -13.852542 -1.594623  1.570796 -0.000000 0.151409
72  -0.031014 0.123524 0.801846  0.000000 -0.000000 -0.000000
73  0.060612 -0.165296 0.765400  0.000000 -0.000000 -0.000000
time 3
0  0.000006 0.000000 0.000000  -1.570800 -1.391899 -1.570792
1  -9.841317 -7.634221 1.937669  -1.544956 -1.855077 -0.198630
2  6.027521 -0.000327 0.000191  -1.319994 -1.119551 -0.703732
3  11.692108 0.000643 -0.000739  -0.990427 -0.000018 -1.385718
4  11.479948 0.000325 -0.000837  1.110748 -0.676530 0.504781
5  3.666628 -0.163903 -1.204802  -0.431118 0.241346 -0.691167
6  1.312589 0.000009 0.000008  -0.000027 0.000044 -0.439740
7  0.729356 0.000054 0.000050  0.000017 0.000021 -0.244317
8  3.942141 0.046332 -0.431542  -0.133780 0.102633 -0.606419
9  1.539111 0.000082 0.000005  -0.000007 0.000021 -0.247842
10  1.196333 0.000145 0.000028  0.000011 0.000019 -0.430770
11  3.883511 -0.047211 0.431351  0.088541 0.003853 -0.382700
12  1.719573 -0.000028 0.000017  0.000015 0.005518 -0.366533
13  1.209179 0.000092 0.000012  0.000004 0.003091 -0.216438
14  3.859677 -0.138417 1.332380  0.339303 -0.112965 -0.337525
15  1.719448 -0.000019 0.000028  0.000028 0.004066 -0.363025
16  1.099675 0.000049 0.000006  0.000003 0.002578 -0.244381
17  0.020620 -0.848309 1.563300  -1.245600 -0.652333 -0.748406
18  1.789819 -0.000003 -0.000016  0.001807 -0.010729 0.109488
19  1.207016 -0.000011 -0.000045  0.001268 0.000014 0.320655
20  5.740636 0.000387 -0.000698  -0.120196 0.000003 0.000063
21  11.480995 0.000243 -0.000819  -0.052554 -0.129887 0.054862
22  6.027524 -0.000329 0.000201  1.844592 -0.363410 1.769083
23  -0.000001 11.692099 -0.000009  -0.961302 -0.414075 -0.765804
24  0.000002 0.000008 0.000000  -0.121332 -0.000031 1.570739
25  -0.000001 -0.000011 -0.000001  0.868960 0.000002 1.570712
26  -7.194269 -9.801250 0.281197  1.473120 1.855075 -0.198639
27  6.027514 -0.000261 -0.000216  1.649477 0.854865 -0.662395
28  11.691992 0.000162 0.000857  0.237479 0.000048 -1.496331
29  11.480309 -0.000147 0.000880  -1.215814 0.405863 0.739567
30  3.710775 -0.434234 1.096848  0.406970 -0.281773 -0.608982
31  1.312559 0.000029 -0.000001  -0.000000 -0.000045 -0.148960
32  0.729345 0.000065 -0.000026  -0.000027 -0.000012 0.046463
33  3.820805 -0.154609 0.327898  0.121278 -0.118788 -0.520704
34  1.539095 0.000005 -0.000002  0.000007 -0.000009 0.042924
35  1.196302 0.000081 -0.000002  -0.000009 -0.000007 -0.140032
36  3.882445 -0.171893 -0.416805  -0.089865 -0.000691 -0.298015
37  1.719564 -0.000083 -0.000005  -0.002288 -0.007626 -0.075728
38  1.209194 0.000034 0.000012  -0.001277 -0.004274 0.074338
39  3.859584 -0.149081 -1.331322  -0.330196 0.136796 -0.257123
40  1.719412 -0.000096 -0.000038  -0.001916 -0.006299 -0.072275
41  1.099674 0.000022 0.000006  -0.001196 -0.004014 0.046404
42  0.230503 -0.805067 -1.086894  1.079795 0.646453 -0.910428
43  1.789780 -0.000008 -0.000042  0.011966 0.001552 -0.110980
44  1.206995 -0.000007 0.000005  0.005321 0.005317 0.007331
45  5.740573 0.000080 0.000721  0.116830 -0.000014 0.000028
46  11.481006 0.000046 0.000921  0.045445 0.079184 0.119406
47  6.027515 -0.000273 -0.000227  -0.955819 -0.393133 -1.736357
48  0.000000 11.691977 -0.000005  -1.027226 0.473904 0.808930
49  0.000002 0.000000 0.000000  2.510011 -0.000036 1.570860
50  -0.000006 -0.000013 0.000005  2.272645 -0.000036 1.570861
51  -5.548288 -6.087307 -7.451221  -0.039100 -3.070986 1.343753
52  0.000001 -0.000000 -0.000000  0.008153 -0.000259 0.000009
53  -0.000000 -0.000000 -0.000001  1.565115 0.043565 -0.106862
54  3.159256 -7.934329 -8.459302  -0.479476 -0.025172 -1.725535
55  0.000001 0.000000 -0.000000  0.000000 -0.000001 -0.000002
56  0.000031 0.000029 0.000001  -1.571901 -0.044449 -0.106509
57  13.879580 -18.227863 -20.253773  1.570796 -0.000000 0.000000
58  -15.417984 3.791156 -22.774456  1.570796 -0.000000 0.000000
59  1.941978 9.263218 -8.327020  1.570796 -0.000000 0.000000
60  -0.004311 0.001229 -0.000372  0.006898 -0.005534 -0.284229
61  0.281193 10.925007 -5.335376  1.570796 -0.000000 0.000000
62  0.000000 0.000000 0.000000  -0.078727 -3.136056 0.284226
63  0.000000 0.000000 0.000000  1.563475 0.004351 -0.004479
64  -2.098607 -15.754692 -3.204377  1.570796 -0.000000 0.323256
65  -0.022960 1.363686 2.942972  0.000000 -0.000000 0.000000
66  -0.023072 2.412897 7.714151  0.000000 -0.000000 0.000000
67  -0.022961 2.040275 1.313676  0.000000 -0.000000 0.000000
68  0.000000 2.151127 2.689003  0.000000 -0.000000 0.000000
69  -0.022961 1.645012 0.528369  -1.134464 -0.000000 -0.000000
70  0.597054 1.495772 2.359359  0.000000 -0.000000 0.000000
71  -1.934483 -16.244598 -1.253899  1.570796 -0.000000 0.323256
72  -0.031013 0.123524 0.801845  -0.000000 0.000000 -0.000000
73  0.060613 -0.165296 0.765402  -0.000000 0.000000 -0.000000
time 4
0  0.000006 0.000000 0.000000  -1.570800 -1.391899 -1.570792
1  -9.841317 -7.634221 1.937669  -1.544956 -1.855077 -0.198630
2  6.027519 -0.000325 0.000192  -1.368520 -0.940843 -0.693941
3  11.692108 0.000645 -0.000737  -0.990432 -0.000024 -1.495780
4  11.480497 0.000469 -0.000619  1.198800 -0.514680 0.491812
5  3.666627 -0.163903 -1.204802  -0.437440 0.229112 -0.718289
6  1.312590 0.000010 0.000009  -0.000027 0.000044 -0.439740
7  0.729355 0.000054 0.000050  0.000017 0.000021 -0.244317
8  3.942140 0.046332 -0.431542  -0.136690 0.098712 -0.635374
9  1.539111 0.000082 0.000005  -0.000007 0.000021 -0.247842
10  1.196333 0.000144 0.000028  0.000011 0.000019 -0.430770
11  3.883511 -0.047210 0.431350  0.088392 0.006422 -0.411661
12  1.719574 -0.000029 0.000017  0.000015 0.005518 -0.366533
13  1.209179 0.000089 0.000013  0.000004 0.003091 -0.216438
14  3.859677 -0.138417 1.332379  0.342277 -0.103247 -0.365088
15  1.719448 -0.000020 0.000028  0.000028 0.004066 -0.363025
16  1.099675 0.000049 0.000007  0.000003 0.002578 -0.244382
17  0.020619 -0.848309 1.563299  -1.236376 -0.663501 -0.764901
18  1.789819 -0.000004 -0.000017  0.001478 -0.009239 0.126219
19  1.207016 -0.000011 -0.000043  0.001090 0.000003 0.338066
20  5.740635 0.000389 -0.000698  -0.090877 0.000003 0.000063
21  11.481107 0.000272 -0.000775  -0.046997 -0.095496 0.065465
22  6.027524 -0.000329 0.000201  1.994358 -0.481415 1.675498
23  -0.000000 11.692100 -0.000009  -1.026970 -0.473630 -0.808682
24  0.000003 0.000007 0.000000  -0.121332 -0.000031 1.570739
25  -0.000000 -0.000011 -0.000001  0.868960 0.000002 1.570712
26  -7.406292 -9.130194 -0.111046  1.473120 1.855075 -0.198639
27  6.027512 -0.000259 -0.000224  1.716453 0.588403 -0.681764
28  11.691992 0.000163 0.000858  0.308097 0.000056 -1.600365
29  11.479527 -0.000526 0.001029  -1.354086 0.350977 0.578287
30  3.710775 -0.434235 1.096848  0.406971 -0.281773 -0.608982
31  1.312560 0.000031 -0.000002  -0.000000 -0.000045 -0.148960
32  0.729348 0.000066 -0.000028  -0.000028 -0.000012 0.046463
33  3.820807 -0.154609 0.327900  0.121278 -0.118788 -0.520704
34  1.539096 0.000005 -0.000001  0.000007 -0.000009 0.042924
35  1.196302 0.000080 -0.000004  -0.000009 -0.000007 -0.140032
36  3.882446 -0.171892 -0.416804  -0.089865 -0.000691 -0.298015
37  1.719567 -0.000082 -0.000005  -0.002289 -0.007626 -0.075728
38  1.209193 0.000034 0.000010  -0.001277 -0.004274 0.074338
39  3.859585 -0.149082 -1.331323  -0.330196 0.136796 -0.257123
40  1.719413 -0.000096 -0.000038  -0.001916 -0.006299 -0.072275
41  1.099673 0.000022 0.000006  -0.001196 -0.004014 0.046404
42  0.230505 -0.805067 -1.086893  1.079795 0.646453 -0.910428
43  1.789780 -0.000008 -0.000042  0.011966 0.001552 -0.110980
44  1.206996 -0.000009 0.000005  0.005321 0.005317 0.007331
45  5.740572 0.000080 0.000720  0.067643 -0.000014 0.000028
46  11.480849 -0.000030 0.000951  0.027349 0.058217 0.095742
47  6.027514 -0.000273 -0.000230  -0.665951 -0.454713 -1.920366
48  -0.000002 11.691975 -0.000006  -1.088561 0.532418 0.846537
49  0.000005 -0.000000 -0.000000  2.580629 -0.000036 1.570860
50  -0.000008 -0.000014 0.000004  2.272645 -0.000036 1.570861
51  -8.622141 -5.391785 -10.153908  -0.056826 -3.087862 1.332196
52  0.000000 -0.000000 0.000000  0.008153 -0.000259 0.000009
53  0.000000 0.000000 0.000000  1.565115 0.043565 -0.106862
54  4.762238 -7.498361 -10.003799  -0.452209 0.003200 -1.843198
55  0.000000 0.000001 -0.000001  0.000000 -0.000001 -0.000002
56  0.000030 0.000030 0.000001  -1.571901 -0.044449 -0.106509
57  14.850840 -17.281540 -22.415585  1.570796 -0.000000 0.000000
58  -15.417984 3.640481 -22.869732  1.570796 -0.000000 0.000000
59  1.941978 9.263218 -8.327020  1.570796 -0.000000 0.000000
60  -0.004311 0.001229 -0.000372  0.006898 -0.005534 -0.284229
61  -0.111049 10.302388 -5.663425  1.570796 -0.000000 0.000000
62  0.000000 0.000000 0.000000  -0.078727 -3.136056 0.284226
63  0.000000 0.000000 0.000000  1.563882 0.004111 -0.004230
64  -2.213725 -18.684650 -2.790642  1.570796 -0.000000 0.541401
65  -0.022960 1.363686 2.942972  0.000000 -0.000000 0.000000
66  -0.023072 2.412897 7.714151  0.000000 -0.000000 0.000000
67  -0.022961 2.040275 1.313675  0.000000 -0.000000 0.000000
68  0.000001 2.151127 2.689000  0.000000 -0.000000 0.000000
69  -0.022961 1.645012 0.528368  -1.134464 -0.000000 -0.000000
70  0.597054 1.495772 2.359358  0.000000 -0.000000 0.000000
71  -1.947467 -19.127428 -0.840163  1.570796 -0.000000 0.541401
72  -0.031015 0.123524 0.801848  0.000000 0.000000 0.000000
73  0.060612 -0.165296 0.765401  0.000000 0.000000 0.000000
time 5
0  0.000006 0.000000 0.000000  -1.570800 -1.391899 -1.570792
1  -9.841317 -7.634221 1.937669  -1.544956 -1.855077 -0.198630
2  6.027519 -0.000324 0.000193  -1.407793 -0.764108 -0.725744
3  11.692107 0.000645 -0.000740  -0.990434 -0.000028 -1.550537
4  11.480061 0.000318 -0.000849  1.356435 -0.257057 0.516104
5  3.666627 -0.163904 -1.204802  -0.446340 0.210255 -0.759124
6  1.312590 0.000006 0.000008  -0.000027 0.000044 -0.439740
7  0.729354 0.000053 0.000051  0.000017 0.000021 -0.244317
8  3.942140 0.046330 -0.431543  -0.140881 0.092612 -0.679239
9  1.539111 0.000082 0.000004  -0.000007 0.000021 -0.247842
10  1.196333 0.000146 0.000029  0.000011 0.000018 -0.430770
11  3.883509 -0.047212 0.431351  0.088025 0.010307 -0.455580
12  1.719572 -0.000028 0.000018  0.000015 0.005518 -0.366533
13  1.209179 0.000092 0.000013  0.000004 0.003091 -0.216438
14  3.859676 -0.138419 1.332380  0.346266 -0.088364 -0.406780
15  1.719448 -0.000017 0.000028  0.000028 0.004066 -0.363025
16  1.099674 0.000049 0.000006  0.000003 0.002578 -0.244381
17  0.020619 -0.848310 1.563299  -1.229570 -0.671430 -0.776894
18  1.789819 -0.000004 -0.000017  0.001025 -0.006957 0.151719
19  1.207016 -0.000012 -0.000044  0.000819 -0.000004 0.350545
20  5.740636 0.000389 -0.000700  -0.038651 0.000003 0.000063
21  11.481022 0.000243 -0.000823  -0.030459 -0.039446 0.085454
22  6.027524 -0.000329 0.000201  2.165946 -0.581758 1.526761
23  -0.000001 11.692100 -0.000009  -1.059324 -0.504170 -0.828840
24  0.000003 0.000008 0.000000  -0.121332 -0.000031 1.570738
25  -0.000001 -0.000010 -0.000000  0.868960 0.000002 1.570712
26  -7.646480 -8.369997 -0.555393  1.473120 1.855075 -0.198639
27  6.027513 -0.000257 -0.000223  1.807708 0.376213 -0.727938
28  11.691993 0.000160 0.000857  0.388328 0.000056 -1.594995
29  11.479565 -0.000424 0.001059  -1.529976 0.229618 0.401779
30  3.710775 -0.434234 1.096849  0.406970 -0.281773 -0.608982
31  1.312561 0.000031 -0.000002  -0.000000 -0.000045 -0.148960
32  0.729347 0.000065 -0.000027  -0.000028 -0.000012 0.046463
33  3.820806 -0.154608 0.327900  0.121278 -0.118788 -0.520704
34  1.539094 0.000003 -0.000002  0.000007 -0.000009 0.042924
35  1.196302 0.000080 -0.000006  -0.000009 -0.000007 -0.140032
36  3.882446 -0.171894 -0.416804  -0.089865 -0.000691 -0.298015
37  1.719566 -0.000084 -0.000004  -0.002288 -0.007626 -0.075729
38  1.209193 0.000032 0.000011  -0.001277 -0.004274 0.074338
39  3.859585 -0.149083 -1.331321  -0.330196 0.136796 -0.257123
40  1.719411 -0.000095 -0.000037  -0.001916 -0.006299 -0.072275
41  1.099673 0.000023 0.000007  -0.001196 -0.004014 0.046404
42  0.230504 -0.805066 -1.086893  1.079795 0.646453 -0.910428
43  1.789781 -0.000009 -0.000042  0.011966 0.001552 -0.110980
44  1.206995 -0.000006 0.000005  0.005321 0.005317 0.007331
45  5.740574 0.000079 0.000721  0.013832 -0.000014 0.000028
46  11.480858 -0.000011 0.000957  0.002187 0.025520 0.068880
47  6.027516 -0.000271 -0.000229  -0.416141 -0.430179 -2.116549
48  0.000000 11.691978 -0.000007  -1.085407 0.529350 0.844667
49  0.000002 0.000000 -0.000000  2.660860 -0.000036 1.570860
50  -0.000008 -0.000014 0.000004  2.272645 -0.000036 1.570861
51  -11.682408 -4.813945 -12.894970  -0.084363 -3.124639 1.322504
52  0.000000 -0.000000 0.000000  0.008153 -0.000259 0.000009
53  0.000000 -0.000000 0.000001  1.565115 0.043565 -0.106862
54  6.437565 -7.179211 -11.746000  -0.389567 0.057052 -2.022205
55  -0.000000 -0.000001 0.000001  0.000000 -0.000001 -0.000002
56  0.000029 0.000028 0.000002  -1.571901 -0.044449 -0.106509
57  15.526468 -16.209511 -24.864563  1.570796 -0.000000 0.000000
58  -15.417984 3.469790 -22.977665  1.570796 -0.000000 0.000000
59  1.941978 9.263218 -8.327020  1.570796 -0.000000 0.000000
60  -0.004311 0.001229 -0.000372  0.006898 -0.005534 -0.284229
61  -0.555397 9.597063 -6.035052  1.570796 -0.000000 0.000000
62  0.000000 0.000000 0.000000  -0.078727 -3.136056 0.284226
63  0.000000 0.000000 0.000000  1.564928 0.003491 -0.003588
64  -2.339002 -21.873137 -2.340400  1.570796 -0.000000 0.785398
65  -0.022961 1.363686 2.942972  0.000000 -0.000000 0.000000
66  -0.023074 2.412897 7.714152  0.000000 -0.000000 0.000000
67  -0.022961 2.040275 1.313676  0.000000 -0.000000 0.000000
68  0.000001 2.151127 2.689004  0.000000 -0.000000 0.000000
69  -0.022961 1.645012 0.528370  -1.134464 -0.000000 -0.000000
70  0.597052 1.495772 2.359360  0.000000 -0.000000 0.000000
71  -1.973661 -22.238476 -0.389921  1.570796 -0.000000 0.785398
72  -0.031015 0.123524 0.801847  0.000000 0.000000 0.000000
73  0.060613 -0.165296 0.765401  0.000000 0.000000 0.000000
time 6
0  0.000006 0.000000 0.000000  -1.570800 -1.391899 -1.570792
1  -9.841317 -7.634221 1.937669  -1.544956 -1.855077 -0.198630
2  6.027518 -0.000323 0.000194  -1.452771 -0.607873 -0.785997
3  11.692106 0.000644 -0.000739  -0.990434 -0.000028 -1.561257
4  11.479974 0.000291 -0.000891  1.552281 -0.042814 0.588681
5  3.666627 -0.163904 -1.204803  -0.455433 0.188467 -0.805027
6  1.312590 0.000010 0.000008  -0.000027 0.000044 -0.439740
7  0.729355 0.000053 0.000050  0.000017 0.000021 -0.244317
8  3.942140 0.046331 -0.431544  -0.145300 0.085482 -0.728916
9  1.539110 0.000080 0.000004  -0.000007 0.000021 -0.247842
10  1.196332 0.000145 0.000027  0.000011 0.000018 -0.430770
11  3.883510 -0.047213 0.431349  0.087402 0.014687 -0.505382
12  1.719573 -0.000028 0.000017  0.000015 0.005518 -0.366533
13  1.209179 0.000090 0.000012  0.000004 0.003091 -0.216438
14  3.859676 -0.138418 1.332379  0.350027 -0.071306 -0.453921
15  1.719449 -0.000017 0.000029  0.000028 0.004066 -0.363025
16  1.099675 0.000048 0.000006  0.000003 0.002578 -0.244381
17  0.020620 -0.848310 1.563298  -1.225391 -0.676174 -0.784187
18  1.789819 -0.000005 -0.000016  0.000580 -0.004355 0.180646
19  1.207017 -0.000013 -0.000044  0.000512 -0.000007 0.358062
20  5.740636 0.000389 -0.000701  0.015903 0.000003 0.000063
21  11.481006 0.000237 -0.000833  -0.003194 0.011360 0.107331
22  6.027524 -0.000329 0.000201  2.346492 -0.643679 1.333858
23  -0.000001 11.692099 -0.000007  -1.065639 -0.510215 -0.832693
24  0.000002 0.000008 0.000000  -0.121333 -0.000031 1.570739
25  0.000000 -0.000011 0.000001  0.868960 0.000002 1.570712
26  -7.886666 -7.609800 -0.999740  1.473120 1.855075 -0.198639
27  6.027513 -0.000258 -0.000223  1.905908 0.244740 -0.786111
28  11.691991 0.000161 0.000857  0.468560 0.000051 -1.560131
29  11.479819 -0.000208 0.001022  -1.710905 0.102505 0.331725
30  3.710774 -0.434234 1.096851  0.406971 -0.281773 -0.608982
31  1.312560 0.000031 0.000000  -0.000000 -0.000045 -0.148960
32  0.729347 0.000067 -0.000029  -0.000028 -0.000012 0.046463
33  3.820805 -0.154607 0.327901  0.121278 -0.118788 -0.520704
34  1.539095 0.000005 -0.000002  0.000007 -0.000009 0.042924
35  1.196301 0.000080 -0.000003  -0.000009 -0.000007 -0.140033
36  3.882446 -0.171891 -0.416802  -0.089865 -0.000691 -0.298015
37  1.719565 -0.000085 -0.000005  -0.002289 -0.007626 -0.075729
38  1.209193 0.000033 0.000010  -0.001277 -0.004274 0.074338
39  3.859584 -0.149081 -1.331321  -0.330196 0.136796 -0.257123
40  1.719412 -0.000096 -0.000034  -0.001916 -0.006299 -0.072275
41  1.099674 0.000023 0.000007  -0.001196 -0.004014 0.046404
42  0.230502 -0.805066 -1.086892  1.079795 0.646453 -0.910428
43  1.789779 -0.000005 -0.000042  0.011966 0.001552 -0.110980
44  1.206995 -0.000006 0.000005  0.005321 0.005317 0.007331
45  5.740573 0.000079 0.000721  -0.030389 -0.000014 0.000028
46  11.480907 0.000033 0.000949  -0.028636 -0.005474 0.059136
47  6.027515 -0.000273 -0.000228  -0.261428 -0.355332 -2.264167
48  -0.000000 11.691976 -0.000007  -1.064904 0.509550 0.832333
49  0.000004 -0.000000 0.000001  2.741090 -0.000036 1.570860
50  -0.000007 -0.000013 0.000005  2.272645 -0.000036 1.570861
51  -13.974303 -4.247921 -15.016747  -0.121642 3.091568 1.313502
52  0.000000 0.000001 -0.000000  0.008153 -0.000259 0.000009
53  -0.000000 0.000002 0.000001  1.565115 0.043565 -0.106862
54  7.944530 -6.851090 -13.534251  -0.335907 0.125933 -2.157472
55  0.000000 0.000001 -0.000001  0.000000 -0.000001 -0.000002
56  0.000031 0.000030 0.000000  -1.571901 -0.044449 -0.106509
57  15.758612 -15.137481 -27.313540  1.570796 -0.000000 0.000000
58  -15.417985 3.299099 -23.085596  1.570796 -0.000000 0.000000
59  1.941978 9.263218 -8.327020  1.570796 -0.000000 0.000000
60  -0.004311 0.001229 -0.000372  0.006898 -0.005534 -0.284229
61  -0.999744 8.891739 -6.406678  1.570796 -0.000000 0.000000
62  0.000000 0.000000 0.000000  -0.078727 -3.136056 0.284226
63  0.000000 0.000000 0.000000  1.566359 0.002643 -0.002712
64  -2.464278 -25.061625 -1.890157  1.570796 -0.000000 1.029395
65  -0.022959 1.363686 2.942972  0.000000 -0.000000 0.000000
66  -0.023074 2.412897 7.714150  0.000000 -0.000000 0.000000
67  -0.022961 2.040275 1.313676  0.000000 -0.000000 0.000000
68  0.000000 2.151127 2.689001  0.000000 -0.000000 0.000000
69  -0.022961 1.645012 0.528369  -1.134464 -0.000000 -0.000000
70  0.597055 1.495772 2.359358  0.000000 -0.000000 0.000000
71  -2.021501 -25.327881 0.060321  1.570796 -0.000000 1.029395
72  -0.031016 0.123524 0.801847  -0.000000 0.000000 -0.000000
73  0.060613 -0.165296 0.765401  -0.000000 0.000000 -0.000000
time 7
0  0.000006 0.000000 0.000000  -1.570800 -1.391899 -1.570792
1  -9.841317 -7.634221 1.937669  -1.544956 -1.855077 -0.198630
2  6.027518 -0.000322 0.000196  -1.468454 -0.456375 -0.839273
3  11.692108 0.000644 -0.000738  -0.990433 -0.000026 -1.517955
4  11.480317 0.000406 -0.000712  1.799495 0.037280 0.666656
5  3.666626 -0.163903 -1.204803  -0.462574 0.168928 -0.845196
6  1.312590 0.000011 0.000008  -0.000027 0.000044 -0.439740
7  0.729355 0.000055 0.000050  0.000017 0.000021 -0.244317
8  3.942140 0.046331 -0.431542  -0.148896 0.079018 -0.772681
9  1.539110 0.000082 0.000003  -0.000007 0.000021 -0.247842
10  1.196333 0.000145 0.000029  0.000011 0.000018 -0.430770
11  3.883510 -0.047212 0.431351  0.086673 0.018520 -0.549314
12  1.719572 -0.000029 0.000017  0.000015 0.005518 -0.366533
13  1.209179 0.000090 0.000011  0.000004 0.003091 -0.216438
14  3.859676 -0.138419 1.332379  0.352669 -0.056129 -0.495405
15  1.719449 -0.000018 0.000029  0.000028 0.004066 -0.363025
16  1.099675 0.000048 0.000008  0.000003 0.002578 -0.244381
17  0.020619 -0.848310 1.563300  -1.223404 -0.678399 -0.787637
18  1.789820 -0.000005 -0.000017  0.000252 -0.002052 0.206143
19  1.207016 -0.000012 -0.000045  0.000240 -0.000008 0.361598
20  5.740638 0.000387 -0.000701  0.062083 0.000003 0.000063
21  11.481075 0.000259 -0.000796  0.039880 0.041125 0.124937
22  6.027524 -0.000329 0.000201  2.525770 -0.703097 1.160565
23  0.000001 11.692101 -0.000008  -1.040093 -0.485928 -0.816940
24  0.000004 0.000009 0.000001  -0.121333 -0.000030 1.570739
25  0.000001 -0.000010 -0.000000  0.868960 0.000002 1.570712
26  -8.098690 -6.938742 -1.391983  1.473120 1.855075 -0.198639
27  6.027511 -0.000257 -0.000226  1.873354 0.118372 -0.831613
28  11.691994 0.000162 0.000857  0.539174 0.000048 -1.485833
29  11.480397 0.000166 0.000855  -1.895015 0.041655 0.272297
30  3.710775 -0.434234 1.096847  0.406971 -0.281773 -0.608982
31  1.312560 0.000028 -0.000000  -0.000000 -0.000045 -0.148960
32  0.729350 0.000066 -0.000029  -0.000028 -0.000012 0.046463
33  3.820807 -0.154609 0.327897  0.121278 -0.118788 -0.520704
34  1.539095 0.000005 -0.000003  0.000007 -0.000009 0.042924
35  1.196301 0.000079 -0.000005  -0.000009 -0.000007 -0.140032
36  3.882446 -0.171893 -0.416805  -0.089865 -0.000691 -0.298015
37  1.719565 -0.000084 -0.000004  -0.002288 -0.007626 -0.075728
38  1.209194 0.000035 0.000013  -0.001277 -0.004274 0.074338
39  3.859585 -0.149083 -1.331322  -0.330196 0.136796 -0.257123
40  1.719413 -0.000097 -0.000040  -0.001916 -0.006299 -0.072275
41  1.099671 0.000023 0.000006  -0.001196 -0.004014 0.046404
42  0.230504 -0.805067 -1.086894  1.079795 0.646453 -0.910428
43  1.789782 -0.000008 -0.000041  0.011966 0.001552 -0.110980
44  1.206995 -0.000005 0.000006  0.005321 0.005317 0.007331
45  5.740572 0.000079 0.000720  -0.064836 -0.000014 0.000028
46  11.481023 0.000108 0.000915  -0.063699 -0.021653 0.049390
47  6.027514 -0.000273 -0.000229  -0.128381 -0.396349 -2.352687
48  0.000000 11.691979 -0.000005  -1.021002 0.468114 0.804977
49  0.000002 0.000000 0.000001  2.811708 -0.000036 1.570860
50  -0.000007 -0.000013 0.000005  2.272645 -0.000036 1.570861
51  -14.868431 -3.645562 -17.962585  -0.221270 2.951215 1.329911
52  -0.000000 -0.000000 0.000000  0.008153 -0.000259 0.000009
53  0.000000 -0.000001 -0.000001  1.565115 0.043565 -0.106862
54  9.154095 -6.406693 -16.024948  -0.252222 0.272908 -2.188857
55  0.000001 0.000000 -0.000001  0.000000 -0.000001 -0.000002
56  0.000031 0.000029 0.000001  -1.571901 -0.044449 -0.106509
57  15.524076 -14.191155 -29.475355  1.570796 -0.000000 0.000000
58  -15.417985 3.148425 -23.180872  1.570796 -0.000000 0.000000
59  1.941978 9.263218 -8.327020  1.570796 -0.000000 0.000000
60  -0.004311 0.001229 -0.000372  0.006898 -0.005534 -0.284229
61  -1.391987 8.269119 -6.734729  1.570796 -0.000000 0.000000
62  0.000000 0.000000 0.000000  -0.078727 -3.136056 0.284226
63  0.000000 0.000000 0.000000  1.567917 0.001717 -0.001759
64  -2.579397 -27.991585 -1.476422  1.570796 -0.000000 1.247540
65  -0.022960 1.363687 2.942972  0.000000 0.000000 0.000000
66  -0.023075 2.412898 7.714151  0.000000 0.000000 0.000000
67  -0.022964 2.040275 1.313676  0.000000 0.000000 0.000000
68  -0.000000 2.151127 2.689003  0.000000 0.000000 0.000000
69  -0.022965 1.645012 0.528371  -1.134464 0.000000 -0.000000
70  0.597053 1.495772 2.359359  0.000000 0.000000 0.000000
71  -2.089490 -28.155708 0.474056  1.570796 -0.000000 1.247540
72  -0.031013 0.123524 0.801847  -0.000000 0.000000 -0.000000
73  0.060610 -0.165296 0.765402  -0.000000 0.000000 -0.000000
time 8
0  0.000006 0.000000 0.000000  -1.570800 -1.391899 -1.570792
1  -9.841317 -7.634221 1.937669  -1.544956 -1.855077 -0.198630
2  6.027518 -0.000322 0.000197  -1.389781 -0.344763 -0.835855
3  11.692105 0.000643 -0.000737  -0.990426 -0.000017 -1.367340
4  11.480062 0.000357 -0.000785  2.041149 -0.042378 0.621866
5  3.666627 -0.163903 -1.204800  -0.466815 0.155955 -0.871418
6  1.312589 0.000008 0.000006  -0.000027 0.000044 -0.439740
7  0.729355 0.000056 0.000050  0.000017 0.000021 -0.244317
8  3.942141 0.046330 -0.431543  -0.151100 0.074692 -0.801387
9  1.539110 0.000085 0.000003  -0.000007 0.000021 -0.247842
10  1.196333 0.000147 0.000026  0.000011 0.000019 -0.430770
11  3.883510 -0.047212 0.431353  0.086103 0.021018 -0.578159
12  1.719572 -0.000031 0.000020  0.000015 0.005518 -0.366533
13  1.209179 0.000088 0.000015  0.000004 0.003091 -0.216438
14  3.859677 -0.138419 1.332381  0.354058 -0.046111 -0.522598
15  1.719448 -0.000019 0.000029  0.000028 0.004066 -0.363025
16  1.099674 0.000049 0.000007  0.000003 0.002578 -0.244381
17  0.020618 -0.848310 1.563301  -1.222771 -0.679103 -0.788734
18  1.789820 -0.000005 -0.000017  0.000068 -0.000537 0.222871
19  1.207017 -0.000014 -0.000045  0.000062 -0.000008 0.362720
20  5.740636 0.000388 -0.000701  0.089368 0.000003 0.000063
21  11.481026 0.000249 -0.000813  0.092057 0.037824 0.120936
22  6.027524 -0.000329 0.000201  2.626959 -0.814118 1.124975
23  -0.000000 11.692098 -0.000009  -0.950235 -0.404385 -0.758343
24  0.000005 0.000009 0.000002  -0.121333 -0.000031 1.570739
25  -0.000001 -0.000011 -0.000000  0.868960 0.000002 1.570712
26  -8.260793 -6.425683 -1.691873  1.473120 1.855075 -0.198639
27  6.027512 -0.000257 -0.000228  1.493072 0.057351 -0.747199
28  11.691994 0.000162 0.000857  0.592914 0.000029 -1.232425
29  11.479696 -0.000008 0.000988  -1.932098 0.138770 0.071341
30  3.710776 -0.434233 1.096850  0.406970 -0.281773 -0.608982
31  1.312558 0.000030 -0.000000  -0.000000 -0.000045 -0.148960
32  0.729347 0.000063 -0.000028  -0.000028 -0.000012 0.046463
33  3.820808 -0.154608 0.327902  0.121278 -0.118788 -0.520704
34  1.539093 0.000005 -0.000003  0.000007 -0.000009 0.042924
35  1.196307 0.000081 0.000000  -0.000009 -0.000007 -0.140032
36  3.882446 -0.171890 -0.416802  -0.089865 -0.000691 -0.298015
37  1.719564 -0.000084 -0.000002  -0.002289 -0.007626 -0.075729
38  1.209194 0.000033 0.000014  -0.001277 -0.004274 0.074338
39  3.859586 -0.149080 -1.331321  -0.330196 0.136796 -0.257123
40  1.719413 -0.000098 -0.000036  -0.001916 -0.006299 -0.072275
41  1.099674 0.000024 0.000005  -0.001196 -0.004014 0.046404
42  0.230505 -0.805067 -1.086890  1.079795 0.646453 -0.910428
43  1.789780 -0.000006 -0.000042  0.011966 0.001552 -0.110980
44  1.206995 -0.000007 0.000005  0.005321 0.005317 0.007331
45  5.740573 0.000079 0.000719  -0.073991 -0.000014 0.000028
46  11.480884 0.000072 0.000941  -0.073111 0.002546 0.012867
47  6.027516 -0.000273 -0.000228  -0.080525 -0.777955 -2.261489
48  -0.000001 11.691975 -0.000004  -0.867841 0.335651 0.701000
49  0.000004 -0.000001 0.000001  2.865455 -0.000036 1.570860
50  -0.000008 -0.000015 0.000005  2.272645 -0.000036 1.570861
51  -14.080277 -3.085490 -22.689095  -0.410763 2.718751 1.362906
52  -0.000000 0.000000 0.000002  0.008153 -0.000259 0.000009
53  0.000000 0.000001 0.000001  1.565115 0.043565 -0.106862
54  9.906859 -5.881890 -19.480747  -0.071698 0.525029 -2.072363
55  -0.000000 0.000000 0.000000  0.000000 -0.000001 -0.000002
56  0.000030 0.000029 -0.000000  -1.571902 -0.044449 -0.106509
57  14.910593 -13.467643 -31.128174  1.570796 -0.000000 0.000000
58  -15.417985 3.033225 -23.253716  1.570796 -0.000000 0.000000
59  1.941978 9.263218 -8.327020  1.570796 -0.000000 0.000000
60  -0.004311 0.001229 -0.000372  0.006898 -0.005534 -0.284229
61  -1.691877 7.793094 -6.985540  1.570796 -0.000000 0.000000
62  0.000000 0.000000 0.000000  -0.078727 -3.136056 0.284226
63  0.000000 0.000000 0.000000  1.569347 0.000865 -0.000885
64  -2.674201 -30.404491 -1.135698  1.570796 -0.000000 1.419387
65  -0.022959 1.363687 2.942972  0.000000 -0.000000 0.000000
66  -0.023071 2.412898 7.714150  0.000000 -0.000000 0.000000
67  -0.022958 2.040275 1.313675  0.000000 -0.000000 0.000000
68  0.000001 2.151127 2.689002  0.000000 -0.000000 0.000000
69  -0.022962 1.645013 0.528370  -1.134464 -0.000000 -0.000000
70  0.597054 1.495772 2.359359  0.000000 -0.000000 0.000000
71  -2.163443 -30.482422 0.814780  1.570796 -0.000000 1.419387
72  -0.031012 0.123524 0.801846  -0.000000 0.000000 -0.000000
73  0.060611 -0.165296 0.765401  -0.000000 0.000000 -0.000000
time 9
0  0.000006 0.000000 0.000000  -1.570800 -1.391899 -1.570792
1  -9.841317 -7.634221 1.937669  -1.544956 -1.855077 -0.198630
2  6.027517 -0.000323 0.000197  -1.175735 -0.353854 -0.749077
3  11.692109 0.000645 -0.000740  -0.990416 -0.000007 -1.164235
4  11.480400 0.000487 -0.000587  2.040197 -0.140614 0.437807
5  3.666626 -0.163903 -1.204800  -0.468169 0.151546 -0.880257
6  1.312590 0.000010 0.000007  -0.000027 0.000044 -0.439740
7  0.729356 0.000054 0.000048  0.000017 0.000021 -0.244317
8  3.942140 0.046331 -0.431542  -0.151817 0.073216 -0.811086
9  1.539111 0.000087 0.000003  -0.000007 0.000021 -0.247842
10  1.196333 0.000147 0.000027  0.000011 0.000018 -0.430770
11  3.883511 -0.047211 0.431351  0.085894 0.021858 -0.587909
12  1.719570 -0.000030 0.000016  0.000015 0.005518 -0.366533
13  1.209179 0.000092 0.000016  0.000004 0.003091 -0.216438
14  3.859675 -0.138418 1.332383  0.354466 -0.042717 -0.531784
15  1.719448 -0.000019 0.000030  0.000028 0.004066 -0.363025
16  1.099675 0.000046 0.000005  0.000003 0.002578 -0.244381
17  0.020620 -0.848310 1.563301  -1.222694 -0.679188 -0.788867
18  1.789819 -0.000005 -0.000017  0.000011 -0.000024 0.228523
19  1.207017 -0.000012 -0.000042  0.000002 -0.000008 0.362856
20  5.740636 0.000388 -0.000701  0.084227 0.000003 0.000064
21  11.481093 0.000274 -0.000772  0.097181 0.011702 0.088233
22  6.027524 -0.000329 0.000201  -0.680379 -2.154010 -1.725810
23  -0.000000 11.692097 -0.000008  -0.825451 -0.302709 -0.670265
24  0.000002 0.000009 0.000001  -0.121332 -0.000031 1.570739
25  0.000000 -0.000012 0.000000  0.868960 0.000002 1.570712
26  -8.360491 -6.110139 -1.876314  1.473120 1.855075 -0.198639
27  6.027510 -0.000258 -0.000231  0.964084 0.243211 -0.720588
28  11.691993 0.000161 0.000860  0.625805 0.000009 -0.809585
29  11.480089 0.000321 0.000779  -1.746341 0.291105 -0.088350
30  3.710774 -0.434233 1.096846  0.406971 -0.281773 -0.608982
31  1.312556 0.000030 0.000000  -0.000000 -0.000045 -0.148960
32  0.729352 0.000069 -0.000027  -0.000028 -0.000012 0.046463
33  3.820806 -0.154608 0.327896  0.121278 -0.118788 -0.520704
34  1.539095 0.000004 0.000003  0.000007 -0.000009 0.042924
35  1.196303 0.000081 -0.000003  -0.000009 -0.000007 -0.140032
36  3.882447 -0.171892 -0.416804  -0.089865 -0.000691 -0.298015
37  1.719567 -0.000083 0.000001  -0.002288 -0.007626 -0.075729
38  1.209193 0.000035 0.000014  -0.001277 -0.004274 0.074338
39  3.859585 -0.149082 -1.331324  -0.330196 0.136796 -0.257123
40  1.719413 -0.000096 -0.000040  -0.001916 -0.006299 -0.072275
41  1.099673 0.000022 0.000006  -0.001196 -0.004014 0.046404
42  0.230504 -0.805066 -1.086895  1.079795 0.646453 -0.910428
43  1.789781 -0.000008 -0.000043  0.011966 0.001552 -0.110980
44  1.206995 -0.000006 0.000005  0.005321 0.005317 0.007331
45  5.740572 0.000080 0.000721  -0.066538 -0.000014 0.000028
46  11.480964 0.000139 0.000900  -0.035193 0.037148 -0.021247
47  6.027515 -0.000272 -0.000229  -0.763402 -1.215100 -1.560254
48  -0.000001 11.691978 -0.000007  -0.593753 0.153561 0.492670
49  0.000002 -0.000002 0.000001  2.898369 -0.000036 1.570860
50  -0.000007 -0.000014 0.000005  2.272645 -0.000036 1.570861
51  -12.694538 -2.719495 -26.846291  -0.595285 2.513761 1.362484
52  0.000001 -0.000001 -0.000003  0.008153 -0.000259 0.000009
53  0.000000 0.000000 -0.000002  1.565115 0.043565 -0.106862
54  10.198836 -5.478944 -22.351908  0.154595 0.713102 -1.865405
55  -0.000002 0.000000 -0.000001  0.000000 -0.000001 -0.000002
56  0.000029 0.000029 -0.000001  -1.571902 -0.044449 -0.106509
57  14.297110 -13.022662 -32.144703  1.570796 -0.000000 0.000000
58  -15.417985 2.962374 -23.298515  1.570796 -0.000000 0.000000
59  1.941978 9.263218 -8.327020  1.570796 -0.000000 0.000000
60  -0.004311 0.001229 -0.000372  0.006898 -0.005534 -0.284229
61  -1.876318 7.500325 -7.139796  1.570796 -0.000000 0.000000
62  0.000000 0.000000 0.000000  -0.078727 -3.136056 0.284226
63  0.000000 0.000000 0.000000  1.570391 0.000242 -0.000247
64  -2.738532 -32.041824 -0.904493  1.570796 -0.000000 1.530876
65  -0.022958 1.363686 2.942972  0.000000 -0.000000 0.000000
66  -0.023066 2.412897 7.714151  0.000000 -0.000000 0.000000
67  -0.022959 2.040275 1.313676  0.000000 -0.000000 0.000000
68  0.000002 2.151127 2.689002  0.000000 -0.000000 0.000000
69  -0.022956 1.645012 0.528370  -1.134464 -0.000000 -0.000000
70  0.597058 1.495772 2.359359  0.000000 -0.000000 0.000000
71  -2.222276 -32.062443 1.045986  1.570796 -0.000000 1.530876
72  -0.031015 0.123524 0.801847  0.000000 0.000000 0.000000
73  0.060612 -0.165296 0.765401  0.000000 0.000000 0.000000
time 10
0  0.000006 0.000000 0.000000  -1.570800 -1.391899 -1.570792
1  -9.841317 -7.634221 1.937669  -1.544956 -1.855077 -0.198630
2  6.027517 -0.000324 0.000196  -1.011205 -0.404917 -0.684623
3  11.692110 0.000643 -0.000737  -0.990410 -0.000003 -1.071824
4  11.480171 0.000456 -0.000635  1.921876 -0.177261 0.344222
5  3.666625 -0.163903 -1.204800  -0.468169 0.151546 -0.880257
6  1.312590 0.000009 0.000008  -0.000027 0.000044 -0.439740
7  0.729355 0.000054 0.000049  0.000017 0.000021 -0.244317
8  3.942138 0.046333 -0.431542  -0.151817 0.073216 -0.811086
9  1.539110 0.000086 0.000002  -0.000007 0.000021 -0.247842
10  1.196332 0.000146 0.000031  0.000011 0.000018 -0.430770
11  3.883508 -0.047211 0.431351  0.085894 0.021858 -0.587909
12  1.719574 -0.000029 0.000019  0.000015 0.005518 -0.366533
13  1.209180 0.000092 0.000011  0.000004 0.003091 -0.216438
14  3.859673 -0.138417 1.332381  0.354466 -0.042717 -0.531784
15  1.719450 -0.000018 0.000028  0.000028 0.004066 -0.363025
16  1.099674 0.000049 0.000006  0.000003 0.002578 -0.244381
17  0.020617 -0.848310 1.563301  -1.222694 -0.679188 -0.788867
18  1.789819 -0.000004 -0.000018  0.000011 -0.000024 0.228523
19  1.207016 -0.000014 -0.000043  0.000002 -0.000008 0.362856
20  5.740635 0.000389 -0.000700  0.069753 0.000003 0.000063
21  11.481046 0.000266 -0.000781  0.074964 -0.002760 0.067979
22  6.027524 -0.000329 0.000201  -0.953067 -2.075055 -1.366355
23  -0.000000 11.692100 -0.000007  -0.766918 -0.260074 -0.626842
24  0.000002 0.000009 -0.000001  -0.121332 -0.000030 1.570739
25  -0.000000 -0.000011 0.000000  0.868960 0.000002 1.570712
26  -8.393617 -6.005292 -1.937599  1.473120 1.855075 -0.198639
27  6.027509 -0.000257 -0.000230  0.763168 0.350915 -0.816788
28  11.691992 0.000162 0.000858  0.636696 0.000001 -0.547406
29  11.480382 0.000475 0.000664  -1.666802 0.295139 -0.142130
30  3.710773 -0.434235 1.096847  0.406970 -0.281773 -0.608982
31  1.312561 0.000030 0.000001  -0.000000 -0.000045 -0.148960
32  0.729347 0.000065 -0.000027  -0.000028 -0.000012 0.046463
33  3.820804 -0.154610 0.327899  0.121278 -0.118788 -0.520704
34  1.539092 0.000004 -0.000002  0.000007 -0.000009 0.042924
35  1.196305 0.000080 -0.000002  -0.000009 -0.000007 -0.140032
36  3.882442 -0.171891 -0.416805  -0.089865 -0.000691 -0.298015
37  1.719565 -0.000084 -0.000006  -0.002288 -0.007626 -0.075729
38  1.209194 0.000035 0.000015  -0.001277 -0.004274 0.074338
39  3.859581 -0.149081 -1.331323  -0.330196 0.136796 -0.257124
40  1.719411 -0.000097 -0.000037  -0.001916 -0.006299 -0.072275
41  1.099671 0.000022 0.000007  -0.001196 -0.004014 0.046404
42  0.230499 -0.805066 -1.086896  1.079795 0.646453 -0.910428
43  1.789778 -0.000010 -0.000043  0.011966 0.001552 -0.110980
44  1.206995 -0.000004 0.000006  0.005321 0.005317 0.007331
45  5.740572 0.000077 0.000719  -0.049002 -0.000014 0.000028
46  11.481021 0.000167 0.000878  -0.018802 0.038256 -0.034820
47  6.027515 -0.000271 -0.000228  -1.404939 -1.214846 -0.993557
48  -0.000001 11.691975 -0.000008  -0.409884 0.072127 0.343615
49  0.000003 0.000001 0.000001  2.909278 -0.000036 1.570860
50  -0.000007 -0.000015 0.000004  2.272645 -0.000036 1.570861
51  -12.080094 -2.607073 -28.354927  -0.668265 2.441716 1.352336
52  0.000001 -0.000001 0.000001  0.008153 -0.000259 0.000009
53  -0.000002 -0.000001 -0.000001  1.565115 0.043565 -0.106862
54  10.245171 -5.342162 -23.366718  0.255881 0.766400 -1.766008
55  0.000002 0.000000 0.000001  0.000000 -0.000001 -0.000002
56  0.000032 0.000029 0.000001  -1.571901 -0.044449 -0.106509
57  14.062574 -12.874806 -32.482468  1.570796 -0.000000 0.000000
58  -15.417985 2.938832 -23.313402  1.570796 -0.000000 0.000000
59  1.941978 9.263218 -8.327020  1.570796 -0.000000 0.000000
60  -0.004311 0.001229 -0.000372  0.006898 -0.005534 -0.284229
61  -1.937603 7.403047 -7.191051  1.570796 -0.000000 0.000000
62  0.000000 0.000000 0.000000  -0.078727 -3.136056 0.284226
63  0.000000 0.000000 0.000000  1.570796 -0.000000 0.000000
64  -2.762233 -32.645050 -0.819312  1.570796 -0.000000 1.570796
65  -0.022964 1.363686 2.942972  0.000000 -0.000000 0.000000
66  -0.023074 2.412897 7.714150  0.000000 -0.000000 0.000000
67  -0.022965 2.040275 1.313676  0.000000 -0.000000 0.000000
68  -0.000004 2.151127 2.689002  0.000000 -0.000000 0.000000
69  -0.022965 1.645012 0.528369  -1.134464 -0.000000 -0.000000
70  0.597050 1.495772 2.359359  0.000000 -0.000000 0.000000
71  -2.245564 -32.645046 1.131167  1.570796 -0.000000 1.570796
72  -0.031018 0.123524 0.801846  0.000000 -0.000000 -0.000000
73  0.060608 -0.165296 0.765401  0.000000 0.000000 -0.000000
end
