version 1
nodes
0 "ValveBiped.Bip01_Spine4" -1
1 "ValveBiped.Bip01_L_Clavicle" 0
2 "ValveBiped.Bip01_L_UpperArm" 1
3 "ValveBiped.Bip01_L_Forearm" 2
4 "ValveBiped.Bip01_L_Hand" 3
5 "ValveBiped.Bip01_L_Finger4" 4
6 "ValveBiped.Bip01_L_Finger41" 5
7 "ValveBiped.Bip01_L_Finger42" 6
8 "ValveBiped.Bip01_L_Finger3" 4
9 "ValveBiped.Bip01_L_Finger31" 8
10 "ValveBiped.Bip01_L_Finger32" 9
11 "ValveBiped.Bip01_L_Finger2" 4
12 "ValveBiped.Bip01_L_Finger21" 11
13 "ValveBiped.Bip01_L_Finger22" 12
14 "ValveBiped.Bip01_L_Finger1" 4
15 "ValveBiped.Bip01_L_Finger11" 14
16 "ValveBiped.Bip01_L_Finger12" 15
17 "ValveBiped.Bip01_L_Finger0" 4
18 "ValveBiped.Bip01_L_Finger01" 17
19 "ValveBiped.Bip01_L_Finger02" 18
20 "ValveBiped.Bip01_L_Ulna" 3
21 "ValveBiped.Bip01_L_Wrist" 3
22 "rig_l_upperarm" 1
23 "rig_l_forearm" 22
24 "rig_d_l_forearm" 23
25 "rig_d_l_upperarm" 22
26 "ValveBiped.Bip01_R_Clavicle" 0
27 "ValveBiped.Bip01_R_UpperArm" 26
28 "ValveBiped.Bip01_R_Forearm" 27
29 "ValveBiped.Bip01_R_Hand" 28
30 "ValveBiped.Bip01_R_Finger4" 29
31 "ValveBiped.Bip01_R_Finger41" 30
32 "ValveBiped.Bip01_R_Finger42" 31
33 "ValveBiped.Bip01_R_Finger3" 29
34 "ValveBiped.Bip01_R_Finger31" 33
35 "ValveBiped.Bip01_R_Finger32" 34
36 "ValveBiped.Bip01_R_Finger2" 29
37 "ValveBiped.Bip01_R_Finger21" 36
38 "ValveBiped.Bip01_R_Finger22" 37
39 "ValveBiped.Bip01_R_Finger1" 29
40 "ValveBiped.Bip01_R_Finger11" 39
41 "ValveBiped.Bip01_R_Finger12" 40
42 "ValveBiped.Bip01_R_Finger0" 29
43 "ValveBiped.Bip01_R_Finger01" 42
44 "ValveBiped.Bip01_R_Finger02" 43
45 "ValveBiped.Bip01_R_Ulna" 28
46 "ValveBiped.Bip01_R_Wrist" 28
47 "rig_r_upperarm" 26
48 "rig_r_forearm" 47
49 "rig_d_r_forearm" 48
50 "rig_d_r_upperarm" 47
51 "rig_r_hand" -1
52 "rig_d_r_hand" 51
53 "rig_d_r_wrist" 52
54 "rig_l_hand" -1
55 "rig_d_l_hand" 54
56 "rig_d_l_wrist" 54
57 "rig_l_pole" -1
58 "rig_r_pole" -1
59 "rig_l_clavicle" -1
60 "rig_d_l_clavicle" 59
61 "rig_r_clavicle" -1
62 "rig_d_r_clavicle" 61
63 "Camera" -1
64 "body" -1
65 "trigger" 64
66 "barrel" 64
67 "bullet1" 64
68 "slide" 64
69 "hammer" 64
70 "sliderelease" 64
71 "mag" -1
72 "bullet2" 71
73 "bullet3" 71
end
skeleton
time 0
0  0.000006 0.000000 0.000000  -1.570800 -1.391899 -1.570792
1  -10.134789 -9.257131 1.937670  -1.544956 -1.855077 -0.198630
2  6.027517 -0.000323 0.000196  -1.102417 -0.522637 -0.800844
3  11.692114 0.000647 -0.000738  -0.990396 0.000004 -0.839860
4  11.480887 0.000635 -0.000361  2.066853 -0.103504 0.363078
5  3.666625 -0.163903 -1.204800  -0.468169 0.151546 -0.880257
6  1.312589 0.000009 0.000008  -0.000027 0.000044 -0.439740
7  0.729357 0.000054 0.000049  0.000017 0.000021 -0.244317
8  3.942138 0.046333 -0.431542  -0.151817 0.073216 -0.811086
9  1.539112 0.000084 0.000003  -0.000007 0.000021 -0.247842
10  1.196331 0.000145 0.000031  0.000011 0.000019 -0.430770
11  3.883508 -0.047211 0.431351  0.085894 0.021858 -0.587909
12  1.719571 -0.000029 0.000016  0.000015 0.005518 -0.366533
13  1.209180 0.000090 0.000010  0.000004 0.003091 -0.216438
14  3.859673 -0.138417 1.332381  0.354466 -0.042717 -0.531784
15  1.719448 -0.000018 0.000031  0.000028 0.004066 -0.363025
16  1.099675 0.000048 0.000004  0.000003 0.002578 -0.244381
17  0.806008 -0.349036 1.321249  -1.222694 -0.679188 -0.788867
18  1.789819 -0.000002 -0.000019  0.000011 -0.000024 0.228523
19  1.207015 -0.000016 -0.000045  0.000002 -0.000008 0.362856
20  5.740635 0.000386 -0.000701  0.084660 0.000003 0.000063
21  11.481190 0.000300 -0.000727  0.101467 0.017100 0.072554
22  6.027524 -0.000329 0.000202  -0.975663 -2.217705 -1.504468
23  0.000000 11.692100 -0.000006  -0.614340 -0.164694 -0.508954
24  0.000006 0.000008 -0.000000  -0.121332 -0.000031 1.570739
25  0.000001 -0.000012 -0.000001  0.868960 0.000002 1.570712
26  -8.393617 -6.005292 -1.937599  1.473120 1.855075 -0.198639
27  6.027509 -0.000257 -0.000230  0.763168 0.350915 -0.816788
28  11.691992 0.000162 0.000858  0.636696 0.000001 -0.547406
29  11.480382 0.000475 0.000664  -1.666802 0.295139 -0.142130
30  3.859437 -0.132759 1.193063  0.406970 -0.281773 -0.608981
31  1.312560 0.000027 -0.000002  -0.000000 -0.000045 -0.148960
32  0.729348 0.000063 -0.000027  -0.000028 -0.000012 0.046463
33  3.942049 0.050138 0.430999  0.121278 -0.118788 -0.520704
34  1.539098 0.000006 0.000001  0.000007 -0.000009 0.042924
35  1.196307 0.000077 -0.000004  -0.000009 -0.000007 -0.140033
36  3.883414 -0.050473 -0.431086  -0.089865 -0.000691 -0.298015
37  1.719563 -0.000085 -0.000005  -0.002289 -0.007626 -0.075729
38  1.209196 0.000036 0.000011  -0.001277 -0.004274 0.074338
39  3.859590 -0.149082 -1.331322  -0.330196 0.136796 -0.257123
40  1.719414 -0.000098 -0.000035  -0.001916 -0.006299 -0.072275
41  1.099673 0.000023 0.000006  -0.001196 -0.004014 0.046404
42  0.805983 -0.359849 -1.318339  1.079795 0.646453 -0.910428
43  1.789780 -0.000008 -0.000043  0.011966 0.001552 -0.110980
44  1.206997 -0.000003 0.000005  0.005321 0.005317 0.007331
45  5.740572 0.000077 0.000719  -0.049002 -0.000014 0.000028
46  11.481021 0.000167 0.000878  -0.018802 0.038256 -0.034820
47  6.027515 -0.000271 -0.000228  -1.404939 -1.214846 -0.993557
48  -0.000001 11.691975 -0.000008  -0.409884 0.072127 0.343615
49  0.000003 0.000001 0.000001  2.909278 -0.000036 1.570860
50  -0.000007 -0.000015 0.000004  2.272645 -0.000036 1.570861
51  -12.080094 -2.607073 -28.354927  -0.668265 2.441716 1.352336
52  -0.000000 0.000001 -0.000000  0.008153 -0.000259 0.000009
53  0.000000 0.000000 -0.000000  1.565115 0.043565 -0.106862
54  10.245171 -5.342162 -23.366718  0.255881 0.766400 -1.766008
55  0.000002 0.000000 0.000001  0.000000 -0.000001 -0.000002
56  0.000032 0.000029 0.000001  -1.571901 -0.044449 -0.106509
57  14.062574 -12.874806 -32.482468  1.570796 -0.000000 0.000000
58  -15.417985 2.938832 -23.313402  1.570796 -0.000000 0.000000
59  1.941978 10.912449 -8.327020  1.570796 -0.000000 0.000000
60  -0.004311 0.001229 -0.000372  0.006898 -0.005534 -0.284229
61  -1.937603 7.403047 -7.191051  1.570796 -0.000000 0.000000
62  0.000000 0.000000 0.000000  -0.078727 -3.136056 0.284226
63  -1.922894 -1.786657 -0.353056  1.570796 -0.000000 0.000000
64  -2.762233 -32.645050 -0.819312  1.570796 -0.000000 1.570796
65  -0.022964 1.363686 2.942972  0.000000 -0.000000 0.000000
66  -0.023074 2.412897 7.714150  0.000000 -0.000000 0.000000
67  0.116718 0.753963 1.014464  0.000000 -0.000000 0.000000
68  -0.000004 2.151127 0.903718  0.000000 -0.000000 0.000000
69  -0.022965 1.645012 0.528369  -1.134464 -0.000000 -0.000000
70  0.597050 1.495772 2.359359  0.168371 -0.000000 0.000000
71  -2.245564 -32.645046 1.131167  1.570796 -0.000000 1.570796
72  -0.031018 0.123524 0.801846  0.000000 -0.000000 -0.000000
73  0.060608 -0.165296 0.765401  0.000000 0.000000 -0.000000
time 1
0  0.000006 0.000000 0.000000  -1.570800 -1.391899 -1.570792
1  -10.128283 -9.221152 1.937670  -1.544956 -1.855077 -0.198630
2  6.027518 -0.000322 0.000196  -1.232031 -0.485950 -0.827535
3  11.692114 0.000643 -0.000739  -0.990403 0.000002 -0.949650
4  11.479644 0.000365 -0.000777  2.134501 -0.083703 0.447518
5  3.666627 -0.163905 -1.204802  -0.468169 0.151546 -0.880257
6  1.312592 0.000010 0.000008  -0.000027 0.000044 -0.439740
7  0.729354 0.000053 0.000049  0.000017 0.000021 -0.244317
8  3.942140 0.046331 -0.431542  -0.151817 0.073216 -0.811086
9  1.539109 0.000084 0.000005  -0.000007 0.000021 -0.247842
10  1.196332 0.000150 0.000027  0.000011 0.000019 -0.430770
11  3.883512 -0.047213 0.431348  0.085894 0.021858 -0.587909
12  1.719570 -0.000028 0.000017  0.000015 0.005518 -0.366533
13  1.209179 0.000089 0.000013  0.000004 0.003091 -0.216438
14  3.859675 -0.138418 1.332380  0.354466 -0.042717 -0.531784
15  1.719449 -0.000019 0.000029  0.000028 0.004066 -0.363025
16  1.099676 0.000051 0.000005  0.000003 0.002578 -0.244381
17  0.784021 -0.363019 1.328024  -1.222694 -0.679188 -0.788867
18  1.789819 -0.000002 -0.000018  0.000011 -0.000024 0.228523
19  1.207015 -0.000014 -0.000043  0.000002 -0.000008 0.362856
20  5.740635 0.000390 -0.000699  0.094090 0.000003 0.000063
21  11.480941 0.000248 -0.000809  0.113745 0.026947 0.089609
22  6.027524 -0.000330 0.000202  2.334510 -0.867745 1.415940
23  0.000000 11.692099 -0.000008  -0.687601 -0.207641 -0.566305
24  0.000005 0.000009 0.000000  -0.121333 -0.000031 1.570739
25  -0.000001 -0.000013 -0.000001  0.868960 0.000002 1.570712
26  -8.360491 -6.110139 -1.876315  1.473120 1.855075 -0.198639
27  6.027510 -0.000258 -0.000231  0.964555 0.243593 -0.720926
28  11.691994 0.000161 0.000858  0.625805 0.000009 -0.808899
29  11.480111 0.000329 0.000774  -1.738926 0.291677 -0.090315
30  3.856142 -0.139442 1.190931  0.406970 -0.281773 -0.608981
31  1.312560 0.000028 -0.000001  -0.000000 -0.000045 -0.148960
32  0.729344 0.000064 -0.000026  -0.000027 -0.000012 0.046463
33  3.939358 0.045600 0.428712  0.121278 -0.118788 -0.520704
34  1.539097 0.000007 -0.000002  0.000007 -0.000009 0.042924
35  1.196300 0.000078 -0.000005  -0.000009 -0.000007 -0.140033
36  3.883391 -0.053163 -0.430770  -0.089865 -0.000691 -0.298015
37  1.719564 -0.000085 -0.000003  -0.002289 -0.007626 -0.075729
38  1.209198 0.000033 0.000013  -0.001277 -0.004274 0.074338
39  3.859588 -0.149081 -1.331323  -0.330196 0.136796 -0.257123
40  1.719408 -0.000099 -0.000037  -0.001916 -0.006299 -0.072275
41  1.099671 0.000021 0.000007  -0.001196 -0.004014 0.046404
42  0.805983 -0.359847 -1.318339  1.079795 0.646453 -0.910428
43  1.789779 -0.000011 -0.000043  0.011966 0.001552 -0.110980
44  1.206996 -0.000005 0.000005  0.005321 0.005317 0.007331
45  5.740573 0.000081 0.000721  -0.064995 -0.000014 0.000028
46  11.480968 0.000143 0.000900  -0.033710 0.037277 -0.021901
47  6.027515 -0.000272 -0.000229  -0.763341 -1.214505 -1.560762
48  -0.000001 11.691977 -0.000006  -0.593285 0.153313 0.492298
49  0.000002 -0.000000 -0.000001  2.898369 -0.000036 1.570860
50  -0.000007 -0.000013 0.000005  2.272645 -0.000036 1.570861
51  -12.694842 -2.725340 -26.846626  -0.587066 2.515846 1.362240
52  0.000000 0.000000 -0.000000  0.008153 -0.000259 0.000009
53  0.000000 0.000000 -0.000002  1.565115 0.043565 -0.106862
54  10.198836 -5.478943 -22.351908  0.154595 0.713102 -1.865405
55  -0.000002 -0.000000 -0.000003  0.000000 -0.000001 -0.000002
56  0.000029 0.000030 -0.000004  -1.571902 -0.044449 -0.106509
57  14.297110 -13.022662 -32.144703  1.570796 -0.000000 0.000000
58  -15.417985 2.962374 -23.298515  1.570796 -0.000000 0.000000
59  1.941978 10.875887 -8.327020  1.570796 -0.000000 0.000000
60  -0.004311 0.001229 -0.000372  0.006898 -0.005534 -0.284229
61  -1.876319 7.500325 -7.139796  1.570796 -0.000000 0.000000
62  0.000000 0.000000 0.000000  -0.078727 -3.136056 0.284226
63  -1.922894 -1.786657 -0.356218  1.570808 0.000845 0.000004
64  -2.738532 -32.056072 -0.904493  1.570796 -0.000000 1.532519
65  -0.022963 1.363686 2.942972  -0.000000 0.000000 -0.000000
66  -0.023076 2.412897 7.714151  -0.000000 0.000000 -0.000000
67  0.116720 0.753963 1.014464  -0.000000 0.000000 -0.000000
68  -0.000000 2.151127 0.903719  -0.000000 0.000000 -0.000000
69  -0.022966 1.645012 0.528370  -1.134464 -0.000000 -0.000000
70  0.597050 1.495772 2.359359  0.168371 0.000000 -0.000000
71  -2.222242 -32.075844 1.045986  1.570796 -0.000000 1.532519
72  -0.031013 0.123524 0.801846  -0.000000 0.000000 -0.000000
73  0.060615 -0.165296 0.765401  -0.000000 0.000000 -0.000000
time 2
0  0.000006 0.000000 0.000000  -1.570800 -1.391899 -1.570792
1  -10.108702 -9.112871 1.937670  -1.544956 -1.855077 -0.198630
2  6.027518 -0.000322 0.000197  -1.406462 -0.473802 -0.864701
3  11.692111 0.000644 -0.000739  -0.990417 -0.000007 -1.181441
4  11.480304 0.000460 -0.000626  2.085319 -0.000801 0.612710
5  3.666629 -0.163902 -1.204801  -0.465964 0.158655 -0.865987
6  1.312589 0.000010 0.000008  -0.000027 0.000044 -0.439740
7  0.729356 0.000055 0.000047  0.000017 0.000021 -0.244317
8  3.942142 0.046332 -0.431541  -0.150653 0.075595 -0.795433
9  1.539110 0.000082 0.000006  -0.000007 0.000021 -0.247842
10  1.196333 0.000148 0.000028  0.000011 0.000019 -0.430770
11  3.883512 -0.047211 0.431350  0.086227 0.020501 -0.572175
12  1.719573 -0.000031 0.000019  0.000015 0.005518 -0.366533
13  1.209179 0.000092 0.000011  0.000004 0.003091 -0.216438
14  3.859677 -0.138417 1.332380  0.353792 -0.048192 -0.516959
15  1.719448 -0.000018 0.000032  0.000028 0.004066 -0.363025
16  1.099676 0.000049 0.000003  0.000003 0.002578 -0.244381
17  0.724329 -0.400960 1.346423  -1.222858 -0.679007 -0.788583
18  1.789821 -0.000001 -0.000018  0.000104 -0.000851 0.219401
19  1.207014 -0.000013 -0.000044  0.000099 -0.000008 0.362566
20  5.740636 0.000387 -0.000701  0.092383 0.000003 0.000064
21  11.481074 0.000268 -0.000781  0.098698 0.047872 0.117817
22  6.027524 -0.000329 0.000202  2.472057 -0.744992 1.198542
23  0.000001 11.692100 -0.000007  -0.836219 -0.310912 -0.678121
24  0.000003 0.000009 0.000001  -0.121333 -0.000030 1.570739
25  0.000001 -0.000011 -0.000001  0.868960 0.000002 1.570712
26  -8.260792 -6.425684 -1.691874  1.473120 1.855075 -0.198639
27  6.027511 -0.000258 -0.000228  1.493471 0.058851 -0.747431
28  11.691991 0.000162 0.000859  0.592914 0.000029 -1.230781
29  11.479765 0.000023 0.000967  -1.907768 0.142541 0.065080
30  3.846223 -0.159557 1.184515  0.406971 -0.281773 -0.608982
31  1.312561 0.000026 0.000000  -0.000000 -0.000045 -0.148960
32  0.729345 0.000065 -0.000025  -0.000028 -0.000012 0.046463
33  3.931270 0.031939 0.421837  0.121278 -0.118788 -0.520704
34  1.539100 0.000007 0.000001  0.000007 -0.000009 0.042924
35  1.196306 0.000078 -0.000005  -0.000009 -0.000007 -0.140033
36  3.883327 -0.061266 -0.429813  -0.089865 -0.000691 -0.298015
37  1.719563 -0.000084 -0.000005  -0.002288 -0.007626 -0.075729
38  1.209197 0.000034 0.000012  -0.001277 -0.004274 0.074338
39  3.859587 -0.149082 -1.331321  -0.330196 0.136796 -0.257123
40  1.719412 -0.000095 -0.000041  -0.001916 -0.006299 -0.072275
41  1.099673 0.000023 0.000009  -0.001196 -0.004014 0.046404
42  0.805982 -0.359847 -1.318335  1.079795 0.646453 -0.910428
43  1.789780 -0.000010 -0.000042  0.011966 0.001552 -0.110980
44  1.206996 -0.000010 0.000007  0.005321 0.005317 0.007331
45  5.740573 0.000079 0.000721  -0.069630 -0.000014 0.000028
46  11.480898 0.000077 0.000938  -0.068299 0.003704 0.011133
47  6.027516 -0.000274 -0.000228  -0.082594 -0.777471 -2.260292
48  -0.000000 11.691977 -0.000006  -0.866825 0.334842 0.700273
49  0.000004 0.000000 -0.000003  2.865455 -0.000036 1.570860
50  -0.000007 -0.000013 0.000006  2.272645 -0.000036 1.570861
51  -14.081186 -3.102953 -22.690098  -0.386999 2.725168 1.358679
52  0.000000 0.000000 -0.000002  0.008153 -0.000259 0.000009
53  0.000000 0.000000 0.000001  1.565115 0.043565 -0.106862
54  9.906859 -5.881890 -19.480747  -0.071698 0.525029 -2.072363
55  -0.000001 0.000001 -0.000001  0.000000 -0.000001 -0.000002
56  0.000030 0.000030 0.000001  -1.571901 -0.044449 -0.106509
57  14.910593 -13.467643 -31.128174  1.570796 -0.000000 0.000000
58  -15.417985 3.033225 -23.253716  1.570796 -0.000000 0.000000
59  1.941978 10.765850 -8.327020  1.570796 -0.000000 0.000000
60  -0.004311 0.001229 -0.000372  0.006898 -0.005534 -0.284229
61  -1.691878 7.793094 -6.985539  1.570796 -0.000000 0.000000
62  0.000000 0.000000 0.000000  -0.078727 -3.136056 0.284226
63  -1.922894 -1.786657 -0.365266  1.570840 0.002861 0.000016
64  -2.674201 -30.455158 -1.135698  1.570797 -0.000001 1.425678
65  -0.022960 1.363686 2.942972  0.000000 0.000000 -0.000000
66  -0.023071 2.412897 7.714151  0.000000 0.000000 -0.000000
67  0.116720 0.753963 1.014465  0.000000 0.000000 -0.000000
68  0.000002 2.151127 0.903719  0.000000 0.000000 -0.000000
69  -0.022960 1.645012 0.528370  -1.134464 -0.000000 -0.000000
70  0.597055 1.495772 2.359359  0.168371 0.000000 -0.000000
71  -2.162962 -30.529873 0.814780  1.570797 -0.000001 1.425678
72  -0.031012 0.123524 0.801846  -0.000000 0.000000 0.000000
73  0.060614 -0.165296 0.765401  -0.000000 0.000000 0.000000
time 3
0  0.000006 0.000000 0.000000  -1.570800 -1.391899 -1.570792
1  -10.076865 -8.936813 1.937670  -1.544956 -1.855077 -0.198630
2  6.027518 -0.000323 0.000195  -1.473600 -0.561702 -0.851101
3  11.692107 0.000645 -0.000737  -0.990426 -0.000016 -1.355570
4  11.480132 0.000381 -0.000750  1.833026 0.078684 0.646637
5  3.666627 -0.163903 -1.204802  -0.460405 0.175135 -0.832528
6  1.312590 0.000007 0.000010  -0.000027 0.000044 -0.439740
7  0.729356 0.000054 0.000050  0.000017 0.000021 -0.244317
8  3.942140 0.046330 -0.431542  -0.147790 0.081078 -0.758851
9  1.539111 0.000086 0.000006  -0.000007 0.000021 -0.247842
10  1.196333 0.000147 0.000029  0.000011 0.000018 -0.430770
11  3.883510 -0.047213 0.431351  0.086922 0.017312 -0.535426
12  1.719572 -0.000028 0.000017  0.000015 0.005518 -0.366533
13  1.209179 0.000089 0.000013  0.000004 0.003091 -0.216438
14  3.859676 -0.138419 1.332380  0.351902 -0.060938 -0.482300
15  1.719448 -0.000018 0.000031  0.000028 0.004066 -0.363025
16  1.099675 0.000048 0.000005  0.000003 0.002578 -0.244381
17  0.636366 -0.456881 1.373531  -1.223894 -0.677852 -0.786787
18  1.789820 -0.000004 -0.000018  0.000349 -0.002781 0.198085
19  1.207017 -0.000014 -0.000044  0.000326 -0.000008 0.360728
20  5.740634 0.000389 -0.000697  0.063987 0.000003 0.000064
21  11.481037 0.000254 -0.000804  0.044396 0.050724 0.120120
22  6.027524 -0.000329 0.000201  2.407511 -0.651788 1.220428
23  0.000000 11.692099 -0.000005  -0.943131 -0.398219 -0.753519
24  0.000003 0.000008 0.000000  -0.121332 -0.000031 1.570739
25  0.000000 -0.000011 0.000001  0.868960 0.000002 1.570712
26  -8.098690 -6.938742 -1.391983  1.473120 1.855075 -0.198639
27  6.027511 -0.000257 -0.000226  1.872923 0.119870 -0.831016
28  11.691995 0.000160 0.000856  0.539174 0.000048 -1.483994
29  11.480407 0.000177 0.000850  -1.867794 0.049217 0.265027
30  3.830094 -0.192263 1.174075  0.406970 -0.281773 -0.608982
31  1.312559 0.000025 -0.000003  -0.000000 -0.000045 -0.148960
32  0.729346 0.000065 -0.000026  -0.000028 -0.000012 0.046463
33  3.918116 0.009727 0.410651  0.121278 -0.118788 -0.520704
34  1.539097 0.000006 0.000002  0.000007 -0.000009 0.042924
35  1.196299 0.000078 -0.000001  -0.000009 -0.000007 -0.140032
36  3.883220 -0.074438 -0.428266  -0.089865 -0.000691 -0.298015
37  1.719564 -0.000085 -0.000004  -0.002288 -0.007626 -0.075729
38  1.209196 0.000035 0.000011  -0.001277 -0.004274 0.074338
39  3.859587 -0.149083 -1.331321  -0.330196 0.136796 -0.257123
40  1.719412 -0.000097 -0.000035  -0.001916 -0.006299 -0.072275
41  1.099674 0.000024 0.000007  -0.001196 -0.004014 0.046404
42  0.805982 -0.359848 -1.318339  1.079795 0.646453 -0.910428
43  1.789781 -0.000008 -0.000042  0.011966 0.001552 -0.110980
44  1.206997 -0.000007 0.000005  0.005321 0.005317 0.007331
45  5.740572 0.000080 0.000720  -0.059588 -0.000014 0.000028
46  11.481024 0.000112 0.000914  -0.058526 -0.019284 0.047713
47  6.027514 -0.000273 -0.000229  -0.130026 -0.396701 -2.351403
48  -0.000002 11.691978 -0.000005  -1.019912 0.467103 0.804281
49  0.000002 0.000000 -0.000001  2.811707 -0.000036 1.570860
50  -0.000008 -0.000013 0.000005  2.272645 -0.000036 1.570861
51  -14.869431 -3.664733 -17.963686  -0.195500 2.957195 1.321739
52  -0.000001 -0.000000 0.000000  0.008153 -0.000259 0.000009
53  -0.000001 -0.000001 -0.000000  1.565115 0.043565 -0.106862
54  9.154095 -6.406693 -16.024946  -0.252222 0.272908 -2.188857
55  0.000001 -0.000001 0.000001  0.000000 -0.000001 -0.000002
56  0.000031 0.000027 0.000003  -1.571901 -0.044449 -0.106509
57  15.524076 -14.191157 -29.475353  1.570796 -0.000000 0.000000
58  -15.417985 3.148425 -23.180872  1.570796 -0.000000 0.000000
59  1.941978 10.586937 -8.327020  1.570796 -0.000000 0.000000
60  -0.004311 0.001229 -0.000372  0.006898 -0.005534 -0.284229
61  -1.391987 8.269119 -6.734729  1.570796 -0.000000 0.000000
62  0.000000 0.000000 0.000000  -0.078727 -3.136056 0.284226
63  -1.922894 -1.786657 -0.379547  1.570886 0.005267 0.000034
64  -2.579397 -28.091331 -1.476421  1.570800 -0.000003 1.261177
65  -0.022962 1.363686 2.942971  0.000000 0.000000 0.000000
66  -0.023073 2.412897 7.714149  0.000000 0.000000 0.000000
67  0.116719 0.753963 1.014463  0.000000 0.000000 0.000000
68  -0.000001 2.151127 0.903718  0.000000 0.000000 0.000000
69  -0.022961 1.645012 0.528369  -1.134464 0.000000 -0.000000
70  0.597051 1.495772 2.359359  0.168371 0.000000 0.000000
71  -2.087291 -28.248764 0.474055  1.570800 -0.000003 1.261177
72  -0.031014 0.123524 0.801847  0.000000 0.000000 0.000000
73  0.060614 -0.165296 0.765401  0.000000 0.000000 0.000000
time 4
0  0.000006 0.000000 0.000000  -1.570800 -1.391899 -1.570792
1  -10.035225 -8.706539 1.937670  -1.544956 -1.855077 -0.198630
2  6.027518 -0.000322 0.000193  -1.455124 -0.685707 -0.795749
3  11.692109 0.000642 -0.000740  -0.990429 -0.000020 -1.425741
4  11.479720 0.000255 -0.000938  1.580276 0.001577 0.563618
5  3.666627 -0.163904 -1.204803  -0.452750 0.195210 -0.790955
6  1.312590 0.000012 0.000008  -0.000027 0.000044 -0.439740
7  0.729356 0.000054 0.000050  0.000017 0.000021 -0.244317
8  3.942140 0.046331 -0.431544  -0.143979 0.087698 -0.713647
9  1.539111 0.000081 0.000004  -0.000007 0.000021 -0.247842
10  1.196332 0.000146 0.000029  0.000011 0.000018 -0.430770
11  3.883510 -0.047213 0.431349  0.087617 0.013343 -0.490067
12  1.719573 -0.000028 0.000018  0.000015 0.005518 -0.366533
13  1.209179 0.000091 0.000011  0.000004 0.003091 -0.216438
14  3.859676 -0.138418 1.332379  0.348957 -0.076570 -0.439439
15  1.719448 -0.000017 0.000030  0.000028 0.004066 -0.363025
16  1.099675 0.000050 0.000006  0.000003 0.002578 -0.244381
17  0.529553 -0.524782 1.406448  -1.226417 -0.675019 -0.782402
18  1.789820 -0.000003 -0.000018  0.000709 -0.005156 0.171752
19  1.207016 -0.000013 -0.000044  0.000606 -0.000007 0.356227
20  5.740637 0.000389 -0.000698  0.020282 0.000003 0.000063
21  11.480957 0.000231 -0.000841  0.000155 0.021533 0.102659
22  6.027524 -0.000329 0.000201  2.267198 -0.599975 1.368904
23  -0.000000 11.692099 -0.000009  -0.985295 -0.435436 -0.781756
24  0.000002 0.000009 0.000000  -0.121332 -0.000031 1.570739
25  -0.000000 -0.000012 -0.000000  0.868960 0.000002 1.570712
26  -7.886667 -7.609799 -0.999740  1.473120 1.855075 -0.198639
27  6.027513 -0.000258 -0.000224  1.905908 0.244740 -0.786111
28  11.691993 0.000160 0.000859  0.468560 0.000051 -1.560131
29  11.479815 -0.000209 0.001022  -1.710905 0.102505 0.331726
30  3.809001 -0.235039 1.160424  0.406970 -0.281773 -0.608982
31  1.312559 0.000028 -0.000001  -0.000000 -0.000045 -0.148960
32  0.729347 0.000065 -0.000029  -0.000027 -0.000012 0.046463
33  3.900913 -0.019324 0.396022  0.121278 -0.118788 -0.520704
34  1.539095 0.000006 -0.000002  0.000007 -0.000009 0.042924
35  1.196301 0.000079 -0.000005  -0.000009 -0.000007 -0.140032
36  3.883085 -0.091665 -0.426239  -0.089865 -0.000691 -0.298015
37  1.719563 -0.000086 -0.000004  -0.002289 -0.007626 -0.075729
38  1.209196 0.000035 0.000010  -0.001277 -0.004274 0.074338
39  3.859587 -0.149083 -1.331321  -0.330196 0.136796 -0.257123
40  1.719413 -0.000097 -0.000036  -0.001916 -0.006299 -0.072275
41  1.099674 0.000024 0.000007  -0.001196 -0.004014 0.046404
42  0.805982 -0.359847 -1.318339  1.079795 0.646453 -0.910428
43  1.789780 -0.000008 -0.000043  0.011966 0.001552 -0.110980
44  1.206997 -0.000005 0.000006  0.005321 0.005317 0.007331
45  5.740573 0.000081 0.000721  -0.030389 -0.000014 0.000028
46  11.480907 0.000034 0.000949  -0.028637 -0.005473 0.059136
47  6.027515 -0.000273 -0.000229  -0.261428 -0.355332 -2.264167
48  -0.000000 11.691975 -0.000007  -1.064904 0.509550 0.832333
49  0.000003 -0.000001 0.000002  2.741090 -0.000036 1.570860
50  -0.000007 -0.000014 0.000005  2.272645 -0.000036 1.570861
51  -13.974303 -4.247921 -15.016747  -0.121642 3.091568 1.313502
52  0.000000 0.000000 -0.000000  0.008153 -0.000259 0.000009
53  -0.000001 0.000001 0.000000  1.565115 0.043565 -0.106862
54  7.944530 -6.851090 -13.534251  -0.335907 0.125933 -2.157472
55  0.000000 0.000001 -0.000001  0.000000 -0.000001 -0.000002
56  0.000031 0.000030 0.000000  -1.571901 -0.044449 -0.106509
57  15.758612 -15.137479 -27.313545  1.570796 -0.000000 0.000000
58  -15.417985 3.299099 -23.085596  1.570796 -0.000000 0.000000
59  1.941978 10.352928 -8.327020  1.570796 -0.000000 0.000000
60  -0.004311 0.001229 -0.000372  0.006898 -0.005534 -0.284229
61  -0.999744 8.891738 -6.406679  1.570796 -0.000000 0.000000
62  0.000000 0.000000 0.000000  -0.078727 -3.136056 0.284226
63  -1.922894 -1.786657 -0.398407  1.570940 0.007282 0.000058
64  -2.464278 -25.213619 -1.890157  1.570807 -0.000006 1.052291
65  -0.022959 1.363687 2.942972  -0.000000 0.000000 -0.000000
66  -0.023068 2.412897 7.714149  -0.000000 0.000000 -0.000000
67  0.116723 0.753963 1.014464  -0.000000 0.000000 -0.000000
68  0.000005 2.151127 0.903718  -0.000000 0.000000 -0.000000
69  -0.022958 1.645013 0.528369  -1.134464 0.000000 -0.000000
70  0.597055 1.495772 2.359358  0.168371 0.000000 -0.000000
71  -2.015510 -25.469690 0.060316  1.570807 -0.000006 1.052291
72  -0.031013 0.123524 0.801846  -0.000000 0.000000 -0.000000
73  0.060614 -0.165296 0.765400  -0.000000 0.000000 -0.000000
time 5
0  0.000006 0.000000 0.000000  -1.570800 -1.391899 -1.570792
1  -9.988052 -8.445676 1.937670  -1.544956 -1.855077 -0.198630
2  6.027518 -0.000324 0.000193  -1.407055 -0.818070 -0.735428
3  11.692109 0.000644 -0.000738  -0.990430 -0.000021 -1.447430
4  11.479608 0.000227 -0.000986  1.367067 -0.227913 0.486212
5  3.666627 -0.163903 -1.204803  -0.444311 0.214744 -0.749502
6  1.312590 0.000008 0.000008  -0.000027 0.000044 -0.439740
7  0.729355 0.000053 0.000050  0.000017 0.000021 -0.244317
8  3.942140 0.046332 -0.431543  -0.139915 0.094071 -0.668875
9  1.539111 0.000084 0.000003  -0.000007 0.000021 -0.247842
10  1.196333 0.000145 0.000027  0.000011 0.000018 -0.430770
11  3.883510 -0.047212 0.431351  0.088127 0.009390 -0.445198
12  1.719572 -0.000028 0.000018  0.000015 0.005518 -0.366533
13  1.209179 0.000089 0.000013  0.000004 0.003091 -0.216438
14  3.859676 -0.138417 1.332380  0.345380 -0.091897 -0.396935
15  1.719448 -0.000019 0.000029  0.000028 0.004066 -0.363025
16  1.099675 0.000049 0.000007  0.000003 0.002578 -0.244381
17  0.413316 -0.598674 1.442273  -1.230816 -0.669997 -0.774708
18  1.789819 -0.000003 -0.000018  0.001127 -0.007498 0.145688
19  1.207016 -0.000013 -0.000043  0.000883 -0.000003 0.348281
20  5.740637 0.000388 -0.000697  -0.035053 0.000003 0.000063
21  11.480932 0.000223 -0.000849  -0.030256 -0.032832 0.080465
22  6.027523 -0.000330 0.000201  2.116500 -0.547584 1.544071
23  0.000002 11.692099 -0.000006  -0.998240 -0.447155 -0.790230
24  0.000003 0.000009 0.000001  -0.121332 -0.000031 1.570739
25  -0.000000 -0.000012 0.000001  0.868959 0.000002 1.570712
26  -7.646480 -8.369997 -0.555393  1.473120 1.855075 -0.198639
27  6.027513 -0.000258 -0.000223  1.808981 0.371396 -0.729202
28  11.691994 0.000159 0.000857  0.388328 0.000056 -1.602404
29  11.479511 -0.000451 0.001072  -1.567589 0.214555 0.407047
30  3.785107 -0.283497 1.144956  0.406971 -0.281773 -0.608982
31  1.312559 0.000027 -0.000000  -0.000000 -0.000045 -0.148960
32  0.729345 0.000065 -0.000027  -0.000027 -0.000012 0.046463
33  3.881428 -0.052235 0.379448  0.121278 -0.118788 -0.520704
34  1.539097 0.000005 -0.000001  0.000007 -0.000009 0.042924
35  1.196301 0.000079 -0.000004  -0.000009 -0.000007 -0.140032
36  3.882931 -0.111183 -0.423944  -0.089865 -0.000691 -0.298015
37  1.719567 -0.000084 -0.000004  -0.002289 -0.007626 -0.075729
38  1.209196 0.000034 0.000010  -0.001277 -0.004274 0.074338
39  3.859587 -0.149083 -1.331323  -0.330196 0.136796 -0.257123
40  1.719412 -0.000097 -0.000038  -0.001916 -0.006299 -0.072275
41  1.099673 0.000022 0.000007  -0.001196 -0.004014 0.046404
42  0.805983 -0.359848 -1.318339  1.079795 0.646453 -0.910428
43  1.789780 -0.000009 -0.000042  0.011966 0.001552 -0.110980
44  1.206997 -0.000006 0.000005  0.005321 0.005317 0.007331
45  5.740574 0.000080 0.000721  0.005723 -0.000014 0.000028
46  11.480847 -0.000017 0.000959  -0.004607 0.021151 0.071139
47  6.027516 -0.000272 -0.000229  -0.410693 -0.429879 -2.120549
48  -0.000002 11.691978 -0.000007  -1.089758 0.533585 0.847245
49  0.000004 -0.000001 -0.000001  2.660860 -0.000036 1.570860
50  -0.000007 -0.000013 0.000004  2.272645 -0.000036 1.570861
51  -11.686923 -4.746837 -12.884036  -0.122473 -3.128649 1.336566
52  0.000000 -0.000001 -0.000001  0.008153 -0.000259 0.000009
53  0.000000 -0.000001 -0.000000  1.565115 0.043565 -0.106862
54  6.410913 -7.175034 -11.720510  -0.399582 0.055637 -2.011329
55  -0.000000 0.000001 0.000000  0.000000 -0.000001 -0.000002
56  0.000030 0.000030 0.000001  -1.571901 -0.044449 -0.106509
57  15.526468 -16.209511 -24.864563  1.570796 -0.000000 0.000000
58  -15.417984 3.469790 -22.977665  1.570796 -0.000000 0.000000
59  1.941978 10.087833 -8.327020  1.570796 -0.000000 0.000000
60  -0.004311 0.001229 -0.000372  0.006898 -0.005534 -0.284229
61  -0.555397 9.597063 -6.035052  1.570796 -0.000000 0.000000
62  0.000000 0.000000 0.000000  -0.078727 -3.136056 0.284226
63  -1.922894 -1.786657 -0.421192  1.570997 0.008128 0.000085
64  -2.339002 -22.071049 -2.340399  1.570817 -0.000009 0.817703
65  -0.022961 1.363686 2.942971  0.000000 0.000000 0.000000
66  -0.023071 2.412897 7.714150  0.000000 0.000000 0.000000
67  0.116721 0.753963 1.014464  0.000000 0.000000 0.000000
68  -0.000001 2.151126 0.903719  0.000000 0.000000 0.000000
69  -0.022961 1.645012 0.528369  -1.134464 0.000000 -0.000000
70  0.597052 1.495772 2.359359  0.168371 0.000000 0.000000
71  -1.962034 -22.424438 -0.389932  1.570817 -0.000009 0.817703
72  -0.031012 0.123524 0.801846  0.000000 0.000000 0.000000
73  0.060613 -0.165296 0.765401  0.000000 0.000000 0.000000
time 6
0  0.000006 0.000000 0.000000  -1.570800 -1.391899 -1.570792
1  -9.940881 -8.184812 1.937670  -1.544956 -1.855077 -0.198630
2  6.027519 -0.000325 0.000193  -1.364322 -0.976382 -0.703443
3  11.692109 0.000645 -0.000739  -0.990429 -0.000020 -1.424188
4  11.479729 0.000263 -0.000935  1.193664 -0.508704 0.465385
5  3.666627 -0.163904 -1.204801  -0.436562 0.230863 -0.714438
6  1.312589 0.000009 0.000008  -0.000027 0.000044 -0.439740
7  0.729355 0.000054 0.000050  0.000017 0.000021 -0.244317
8  3.942141 0.046331 -0.431541  -0.136283 0.099275 -0.631254
9  1.539111 0.000083 0.000004  -0.000007 0.000021 -0.247842
10  1.196333 0.000145 0.000028  0.000011 0.000018 -0.430770
11  3.883510 -0.047212 0.431351  0.088418 0.006057 -0.407538
12  1.719573 -0.000028 0.000017  0.000015 0.005518 -0.366533
13  1.209180 0.000091 0.000012  0.000004 0.003091 -0.216438
14  3.859676 -0.138418 1.332380  0.341871 -0.104635 -0.361168
15  1.719448 -0.000018 0.000029  0.000028 0.004066 -0.363025
16  1.099675 0.000050 0.000006  0.000003 0.002578 -0.244381
17  0.297077 -0.672567 1.478098  -1.237302 -0.662401 -0.763257
18  1.789819 -0.000003 -0.000017  0.001524 -0.009452 0.123830
19  1.207017 -0.000013 -0.000044  0.001116 0.000004 0.336343
20  5.740635 0.000389 -0.000699  -0.090464 0.000003 0.000063
21  11.480952 0.000232 -0.000839  -0.049263 -0.093928 0.060286
22  6.027524 -0.000330 0.000202  1.964844 -0.457414 1.682784
23  0.000001 11.692100 -0.000007  -0.984367 -0.434601 -0.781145
24  0.000003 0.000008 -0.000000  -0.121332 -0.000030 1.570738
25  0.000001 -0.000011 -0.000001  0.868960 0.000002 1.570712
26  -7.406291 -9.130193 -0.111046  1.473120 1.855075 -0.198639
27  6.027512 -0.000258 -0.000224  1.719266 0.575981 -0.683149
28  11.691992 0.000160 0.000858  0.308098 0.000058 -1.622943
29  11.479370 -0.000610 0.001058  -1.425612 0.330095 0.583249
30  3.761211 -0.331956 1.129492  0.406970 -0.281773 -0.608982
31  1.312560 0.000028 0.000001  -0.000000 -0.000045 -0.148960
32  0.729347 0.000066 -0.000027  -0.000028 -0.000012 0.046463
33  3.861938 -0.085146 0.362878  0.121278 -0.118788 -0.520704
34  1.539096 0.000005 -0.000002  0.000007 -0.000009 0.042924
35  1.196303 0.000079 -0.000005  -0.000009 -0.000007 -0.140032
36  3.882774 -0.130698 -0.421649  -0.089865 -0.000691 -0.298015
37  1.719566 -0.000083 -0.000004  -0.002289 -0.007626 -0.075729
38  1.209195 0.000035 0.000011  -0.001277 -0.004274 0.074338
39  3.859585 -0.149083 -1.331322  -0.330196 0.136796 -0.257123
40  1.719412 -0.000096 -0.000036  -0.001916 -0.006299 -0.072275
41  1.099672 0.000023 0.000007  -0.001196 -0.004014 0.046404
42  0.805982 -0.359848 -1.318339  1.079795 0.646453 -0.910428
43  1.789780 -0.000008 -0.000042  0.011966 0.001552 -0.110980
44  1.206996 -0.000007 0.000006  0.005321 0.005317 0.007331
45  5.740572 0.000078 0.000721  0.053149 -0.000014 0.000028
46  11.480817 -0.000048 0.000958  0.014854 0.050649 0.100138
47  6.027515 -0.000272 -0.000230  -0.652014 -0.456495 -1.929430
48  -0.000003 11.691976 -0.000007  -1.101812 0.545377 0.854313
49  0.000005 0.000000 -0.000001  2.580629 -0.000036 1.570860
50  -0.000009 -0.000013 0.000004  2.272645 -0.000036 1.570861
51  -8.642451 -5.200360 -10.115618  -0.128038 -3.087749 1.353180
52  0.000000 0.000000 0.000001  0.008153 -0.000259 0.000009
53  -0.000000 -0.000000 0.000000  1.565115 0.043565 -0.106862
54  4.705578 -7.489479 -9.949610  -0.473851 0.003079 -1.820080
55  0.000000 0.000000 -0.000000  0.000000 -0.000001 -0.000002
56  0.000031 0.000029 0.000000  -1.571901 -0.044449 -0.106509
57  14.850840 -17.281540 -22.415585  1.570796 -0.000000 0.000000
58  -15.417984 3.640481 -22.869732  1.570796 -0.000000 0.000000
59  1.941978 9.822739 -8.327020  1.570796 -0.000000 0.000000
60  -0.004311 0.001229 -0.000372  0.006898 -0.005534 -0.284229
61  -0.111050 10.302387 -5.663425  1.570796 -0.000000 0.000000
62  0.000000 0.000000 0.000000  -0.078727 -3.136056 0.284226
63  -1.922894 -1.786657 -0.447247  1.571052 0.008041 0.000116
64  -2.213726 -18.912647 -2.790641  1.570834 -0.000011 0.580797
65  -0.022960 1.363686 2.942970  0.000000 0.000000 0.000000
66  -0.023072 2.412897 7.714150  0.000000 0.000000 0.000000
67  0.116720 0.753963 1.014464  0.000000 0.000000 0.000000
68  0.000001 2.151127 0.903717  0.000000 0.000000 0.000000
69  -0.022961 1.645012 0.528368  -1.134464 0.000000 -0.000000
70  0.597053 1.495772 2.359359  0.168371 0.000000 0.000000
71  -1.930212 -19.344669 -0.840183  1.570834 -0.000011 0.580797
72  -0.031014 0.123524 0.801847  0.000000 0.000000 0.000000
73  0.060612 -0.165296 0.765402  0.000000 0.000000 0.000000
time 7
0  0.000006 0.000000 0.000000  -1.570800 -1.391899 -1.570792
1  -9.899240 -7.954538 1.937669  -1.544956 -1.855077 -0.198630
2  6.027521 -0.000326 0.000191  -1.315461 -1.136058 -0.710822
3  11.692109 0.000645 -0.000737  -0.990425 -0.000015 -1.342825
4  11.480218 0.000406 -0.000717  1.123757 -0.655907 0.484135
5  3.666628 -0.163903 -1.204802  -0.430979 0.241605 -0.690587
6  1.312588 0.000007 0.000009  -0.000027 0.000044 -0.439740
7  0.729356 0.000055 0.000049  0.000017 0.000021 -0.244317
8  3.942141 0.046332 -0.431542  -0.133717 0.102715 -0.605801
9  1.539111 0.000084 0.000004  -0.000007 0.000021 -0.247842
10  1.196332 0.000146 0.000028  0.000011 0.000018 -0.430770
11  3.883511 -0.047211 0.431351  0.088543 0.003798 -0.382083
12  1.719573 -0.000028 0.000017  0.000015 0.005518 -0.366533
13  1.209180 0.000090 0.000013  0.000004 0.003091 -0.216438
14  3.859677 -0.138417 1.332380  0.339237 -0.113171 -0.336937
15  1.719448 -0.000018 0.000028  0.000028 0.004066 -0.363025
16  1.099675 0.000049 0.000005  0.000003 0.002578 -0.244381
17  0.190265 -0.740467 1.511016  -1.245926 -0.651930 -0.747819
18  1.789819 -0.000004 -0.000016  0.001815 -0.010761 0.109135
19  1.207017 -0.000012 -0.000044  0.001272 0.000015 0.320029
20  5.740636 0.000389 -0.000699  -0.115496 0.000003 0.000064
21  11.481050 0.000260 -0.000795  -0.052582 -0.124996 0.052906
22  6.027525 -0.000330 0.000201  1.832092 -0.351614 1.770464
23  -0.000001 11.692099 -0.000007  -0.935421 -0.391578 -0.748257
24  0.000003 0.000009 -0.000000  -0.121332 -0.000031 1.570739
25  -0.000001 -0.000011 0.000000  0.868960 0.000002 1.570712
26  -7.194269 -9.801250 0.281197  1.473120 1.855075 -0.198639
27  6.027513 -0.000261 -0.000216  1.654158 0.837201 -0.661654
28  11.691993 0.000161 0.000859  0.237480 0.000050 -1.535925
29  11.479998 -0.000331 0.000924  -1.319041 0.394176 0.745022
30  3.740117 -0.374732 1.115839  0.406971 -0.281773 -0.608982
31  1.312560 0.000031 0.000001  -0.000000 -0.000045 -0.148960
32  0.729348 0.000066 -0.000027  -0.000028 -0.000012 0.046463
33  3.844735 -0.114198 0.348249  0.121278 -0.118788 -0.520704
34  1.539094 0.000005 -0.000001  0.000007 -0.000009 0.042924
35  1.196301 0.000081 -0.000003  -0.000009 -0.000007 -0.140032
36  3.882637 -0.147928 -0.419622  -0.089865 -0.000691 -0.298015
37  1.719565 -0.000084 -0.000005  -0.002289 -0.007626 -0.075729
38  1.209194 0.000033 0.000011  -0.001277 -0.004274 0.074338
39  3.859585 -0.149081 -1.331322  -0.330196 0.136796 -0.257123
40  1.719411 -0.000098 -0.000037  -0.001916 -0.006299 -0.072275
41  1.099672 0.000023 0.000006  -0.001196 -0.004014 0.046404
42  0.805983 -0.359847 -1.318338  1.079795 0.646453 -0.910428
43  1.789781 -0.000009 -0.000042  0.011966 0.001552 -0.110980
44  1.206995 -0.000007 0.000005  0.005321 0.005317 0.007331
45  5.740572 0.000078 0.000720  0.098614 -0.000014 0.000028
46  11.480944 0.000007 0.000929  0.027024 0.070752 0.125900
47  6.027515 -0.000273 -0.000227  -0.937352 -0.398734 -1.746243
48  0.000000 11.691977 -0.000005  -1.050635 0.495935 0.823582
49  0.000002 0.000000 0.000000  2.510011 -0.000036 1.570860
50  -0.000007 -0.000014 0.000005  2.272645 -0.000036 1.570861
51  -5.590023 -5.773010 -7.379184  -0.138808 -3.060053 1.360474
52  -0.000000 -0.000000 -0.000001  0.008153 -0.000259 0.000009
53  0.000000 0.000000 0.000000  1.565115 0.043565 -0.106862
54  3.159256 -7.934329 -8.459302  -0.479476 -0.025172 -1.725535
55  0.000001 0.000000 -0.000000  0.000000 -0.000001 -0.000002
56  0.000031 0.000029 0.000001  -1.571901 -0.044449 -0.106509
57  13.879580 -18.227863 -20.253773  1.570796 -0.000000 0.000000
58  -15.417984 3.791156 -22.774456  1.570796 -0.000000 0.000000
59  1.941978 9.588730 -8.327020  1.570796 -0.000000 0.000000
60  -0.004311 0.001229 -0.000372  0.006898 -0.005534 -0.284229
61  0.281193 10.925006 -5.335376  1.570796 -0.000000 0.000000
62  0.000000 0.000000 0.000000  -0.078727 -3.136056 0.284226
63  -1.922894 -1.786657 -0.475919  1.571097 0.007634 0.000148
64  -2.098607 -15.987437 -3.204377  1.570857 -0.000011 0.365214
65  -0.022960 1.363687 2.942974  0.000000 0.000000 0.000000
66  -0.023073 2.412898 7.714151  0.000000 0.000000 0.000000
67  0.116720 0.753963 1.014465  0.000000 0.000000 0.000000
68  0.000001 2.151127 0.903718  0.000000 0.000000 0.000000
69  -0.022961 1.645013 0.528370  -1.134464 0.000000 -0.000000
70  0.597054 1.495772 2.359359  0.168371 0.000000 0.000000
71  -1.914057 -16.470148 -1.253930  1.570857 -0.000011 0.365214
72  -0.031013 0.123524 0.801847  0.000000 0.000000 -0.000000
73  0.060613 -0.165296 0.765400  0.000000 0.000000 -0.000000
time 8
0  0.000006 0.000000 0.000000  -1.570800 -1.391899 -1.570792
1  -9.867403 -7.778480 1.937669  -1.544956 -1.855077 -0.198630
2  6.027521 -0.000327 0.000191  -1.207294 -1.298567 -0.801352
3  11.692110 0.000645 -0.000737  -0.990419 -0.000010 -1.227297
4  11.480075 0.000404 -0.000723  1.157651 -0.715926 0.480731
5  3.666627 -0.163903 -1.204802  -0.428829 0.245572 -0.681672
6  1.312588 0.000011 0.000007  -0.000027 0.000044 -0.439740
7  0.729355 0.000054 0.000049  0.000017 0.000021 -0.244317
8  3.942141 0.046331 -0.431542  -0.132738 0.103980 -0.596316
9  1.539111 0.000083 0.000003  -0.000007 0.000021 -0.247842
10  1.196333 0.000146 0.000028  0.000011 0.000019 -0.430770
11  3.883511 -0.047212 0.431351  0.088575 0.002956 -0.372601
12  1.719573 -0.000028 0.000016  0.000015 0.005518 -0.366533
13  1.209180 0.000089 0.000012  0.000004 0.003091 -0.216438
14  3.859677 -0.138418 1.332380  0.338202 -0.116334 -0.327899
15  1.719448 -0.000019 0.000029  0.000028 0.004066 -0.363025
16  1.099676 0.000049 0.000006  0.000003 0.002578 -0.244381
17  0.102301 -0.796386 1.538126  -1.256604 -0.638330 -0.728337
18  1.789819 -0.000003 -0.000016  0.001924 -0.011232 0.103835
19  1.207017 -0.000012 -0.000044  0.001328 0.000027 0.299078
20  5.740637 0.000390 -0.000699  -0.115381 0.000003 0.000064
21  11.481023 0.000260 -0.000796  -0.042937 -0.135019 0.051704
22  6.027524 -0.000330 0.000202  1.705158 -0.237566 1.818721
23  0.000001 11.692100 -0.000005  -0.864727 -0.333160 -0.698704
24  0.000003 0.000008 0.000001  -0.121333 -0.000030 1.570739
25  0.000001 -0.000012 0.000001  0.868960 0.000002 1.570712
26  -7.032166 -10.314308 0.581087  1.473120 1.855075 -0.198639
27  6.027515 -0.000261 -0.000216  1.618320 1.061917 -0.658782
28  11.691992 0.000161 0.000857  0.183728 0.000037 -1.345635
29  11.480068 -0.000269 0.000887  -1.276417 0.410034 0.767486
30  3.723989 -0.407437 1.105401  0.406971 -0.281773 -0.608982
31  1.312559 0.000030 0.000001  -0.000000 -0.000045 -0.148960
32  0.729349 0.000065 -0.000028  -0.000028 -0.000012 0.046463
33  3.831581 -0.136409 0.337064  0.121278 -0.118788 -0.520704
34  1.539096 0.000005 -0.000002  0.000007 -0.000009 0.042924
35  1.196300 0.000080 -0.000004  -0.000009 -0.000007 -0.140032
36  3.882531 -0.161099 -0.418073  -0.089865 -0.000691 -0.298015
37  1.719565 -0.000083 -0.000005  -0.002289 -0.007626 -0.075729
38  1.209194 0.000035 0.000011  -0.001277 -0.004274 0.074338
39  3.859583 -0.149082 -1.331322  -0.330196 0.136796 -0.257123
40  1.719411 -0.000097 -0.000036  -0.001916 -0.006299 -0.072275
41  1.099672 0.000023 0.000006  -0.001196 -0.004014 0.046404
42  0.805982 -0.359847 -1.318338  1.079795 0.646453 -0.910428
43  1.789780 -0.000008 -0.000042  0.011966 0.001552 -0.110980
44  1.206996 -0.000007 0.000006  0.005321 0.005317 0.007331
45  5.740572 0.000080 0.000721  0.113092 -0.000014 0.000028
46  11.480957 0.000020 0.000922  0.033118 0.076760 0.127728
47  6.027515 -0.000272 -0.000227  -1.154090 -0.301106 -1.639394
48  -0.000002 11.691976 -0.000007  -0.937060 0.393008 0.749453
49  0.000003 0.000001 0.000000  2.456264 -0.000036 1.570860
50  -0.000007 -0.000014 0.000005  2.272645 -0.000036 1.570861
51  -3.487188 -6.629085 -5.513311  -0.154395 -3.029009 1.358639
52  0.000000 0.000000 0.000000  0.008153 -0.000259 0.000009
53  -0.000000 0.000000 0.000000  1.565115 0.043565 -0.106862
54  1.607237 -8.296444 -6.992491  -0.422103 -0.065990 -1.697002
55  0.000001 -0.000000 0.000000  0.000000 -0.000001 -0.000002
56  0.000031 0.000029 0.000001  -1.571901 -0.044449 -0.106509
57  12.908321 -18.951378 -18.600954  1.570796 -0.000000 0.000000
58  -15.417984 3.906355 -22.701614  1.570796 -0.000000 0.000000
59  1.941978 9.409817 -8.327020  1.570796 -0.000000 0.000000
60  -0.004311 0.001229 -0.000372  0.006898 -0.005534 -0.284229
61  0.581084 11.401031 -5.084565  1.570796 -0.000000 0.000000
62  0.000000 0.000000 0.000000  -0.078727 -3.136056 0.284226
63  -1.922894 -1.786657 -0.506552  1.571129 0.006685 0.000181
64  -2.003803 -13.544446 -3.545100  1.570886 -0.000009 0.190127
65  -0.022960 1.363686 2.942972  0.000000 0.000000 0.000000
66  -0.023072 2.412897 7.714151  0.000000 0.000000 0.000000
67  0.116721 0.753963 1.014464  0.000000 0.000000 0.000000
68  0.000001 2.151127 0.903719  0.000000 0.000000 0.000000
69  -0.022961 1.645012 0.528369  -1.134464 -0.000000 -0.000000
70  0.597054 1.495772 2.359358  0.168371 0.000000 0.000000
71  -1.906144 -14.051979 -1.594669  1.570886 -0.000009 0.190127
72  -0.031014 0.123524 0.801846  -0.000000 0.000000 0.000000
73  0.060613 -0.165296 0.765401  -0.000000 0.000000 0.000000
time 9
0  0.000006 0.000000 0.000000  -1.570800 -1.391899 -1.570792
1  -9.847823 -7.670199 1.937669  -1.544956 -1.855077 -0.198630
2  6.027523 -0.000329 0.000191  -0.971554 -1.414646 -1.030829
3  11.692113 0.000644 -0.000739  -0.990408 -0.000001 -1.034702
4  11.480448 0.000523 -0.000535  1.230307 -0.671430 0.394798
5  3.666627 -0.163904 -1.204802  -0.491774 0.175746 -1.111858
6  1.312590 0.000009 0.000008  -0.002334 0.011624 -0.355984
7  0.729355 0.000053 0.000049  -0.001837 0.000280 -0.197520
8  3.942140 0.046331 -0.431543  -0.166254 0.125993 -1.022485
9  1.539111 0.000084 0.000004  -0.000256 0.003711 -0.265519
10  1.196333 0.000145 0.000028  -0.000349 0.000098 -0.474894
11  3.883510 -0.047212 0.431351  0.045424 0.115253 -0.811081
12  1.719572 -0.000028 0.000017  -0.000325 0.004402 -0.385439
13  1.209179 0.000089 0.000011  -0.000463 0.003022 -0.420146
14  3.859676 -0.138418 1.332379  0.112325 0.173617 -0.795803
15  1.719447 -0.000017 0.000028  0.001073 0.002681 -0.215100
16  1.099675 0.000049 0.000005  -0.000479 0.002533 -0.432241
17  0.042610 -0.834331 1.556522  -1.166609 -0.498273 -0.485261
18  1.789819 -0.000003 -0.000016  -0.002324 -0.005368 0.144075
19  1.207018 -0.000011 -0.000044  -0.002503 -0.003367 0.110177
20  5.740636 0.000386 -0.000700  -0.097077 0.000003 0.000063
21  11.481096 0.000280 -0.000760  -0.036860 -0.122382 0.042513
22  6.027524 -0.000330 0.000202  1.612724 -0.150545 1.837885
23  -0.000000 11.692101 -0.000008  -0.743057 -0.243652 -0.608821
24  0.000003 0.000008 -0.000001  -0.121332 -0.000031 1.570739
25  0.000000 -0.000010 -0.000001  0.868960 0.000002 1.570712
26  -6.932469 -10.629853 0.765528  1.473120 1.855075 -0.198639
27  6.027516 -0.000262 -0.000216  1.622571 1.200587 -0.644561
28  11.691990 0.000163 0.000858  0.150804 0.000023 -1.113521
29  11.480590 0.000019 0.000829  -1.289302 0.408795 0.641309
30  3.714070 -0.427551 1.098981  0.406971 -0.281773 -0.608982
31  1.312560 0.000030 0.000000  -0.000000 -0.000045 -0.148960
32  0.729347 0.000065 -0.000027  -0.000028 -0.000012 0.046463
33  3.823494 -0.150070 0.330185  0.121278 -0.118788 -0.520704
34  1.539097 0.000004 -0.000002  0.000007 -0.000009 0.042924
35  1.196301 0.000080 -0.000003  -0.000009 -0.000007 -0.140032
36  3.882467 -0.169200 -0.417121  -0.089865 -0.000691 -0.298015
37  1.719565 -0.000084 -0.000005  -0.002289 -0.007626 -0.075729
38  1.209192 0.000034 0.000011  -0.001277 -0.004274 0.074338
39  3.859584 -0.149082 -1.331322  -0.330196 0.136796 -0.257123
40  1.719412 -0.000097 -0.000037  -0.001916 -0.006299 -0.072275
41  1.099674 0.000023 0.000007  -0.001196 -0.004014 0.046404
42  0.518243 -0.582457 -1.202616  1.098554 0.621298 -0.742287
43  1.789780 -0.000007 -0.000042  -0.034308 -0.040478 0.127607
44  1.206996 -0.000006 0.000005  0.013242 -0.104803 0.190534
45  5.740571 0.000079 0.000721  0.095809 -0.000014 0.000028
46  11.481060 0.000078 0.000911  0.034428 0.073618 0.103611
47  6.027516 -0.000273 -0.000228  -1.271184 -0.220834 -1.598760
48  -0.000002 11.691974 -0.000007  -0.793425 0.278977 0.646711
49  0.000003 -0.000001 -0.000000  2.423350 -0.000036 1.570860
50  -0.000008 -0.000012 0.000004  2.272645 -0.000036 1.570861
51  -2.801920 -7.812906 -4.916202  -0.173376 -2.982417 1.350903
52  0.000000 0.000000 -0.000001  0.008153 -0.000259 0.000009
53  -0.000000 -0.000000 -0.000000  1.565115 0.043565 -0.106862
54  0.856157 -9.312513 -6.372632  -0.386162 -0.093082 -1.686238
55  0.000001 0.000001 0.000000  0.000000 -0.000001 -0.000002
56  0.000032 0.000029 0.000001  -1.571901 -0.044449 -0.106509
57  12.232693 -19.396362 -17.584425  1.570796 -0.000000 0.000000
58  -15.417984 3.977206 -22.656813  1.570796 -0.000000 0.000000
59  1.941978 9.299780 -8.327020  1.570796 -0.000000 0.000000
60  -0.004311 0.001229 -0.000372  0.006898 -0.005534 -0.284229
61  0.765525 11.693800 -4.930309  1.570796 -0.000000 0.000000
62  0.000000 0.000000 0.000000  -0.078727 -3.136056 0.284226
63  -1.922894 -1.786657 -0.538495  1.571141 0.004973 0.000213
64  -1.939472 -11.832702 -3.776306  1.570922 -0.000004 0.068992
65  -0.022960 1.363686 2.942972  -0.000000 0.000000 -0.000000
66  -0.023072 2.412898 7.714149  -0.000000 0.000000 -0.000000
67  0.116721 0.753963 1.014463  -0.000000 0.000000 -0.000000
68  0.000000 2.151127 0.903717  -0.000000 0.000000 -0.000000
69  -0.022961 1.645013 0.528368  -1.134464 -0.000000 -0.000000
70  0.597054 1.495772 2.359358  0.168371 0.000000 -0.000000
71  -1.903844 -12.348387 -1.825893  1.570922 -0.000004 0.068992
72  -0.031014 0.123524 0.801847  -0.000000 0.000000 -0.000000
73  0.060613 -0.165296 0.765401  -0.000000 0.000000 -0.000000
time 10
0  0.000006 0.000000 0.000000  -1.570800 -1.391899 -1.570792
1  -9.841317 -7.634221 1.937669  -1.544956 -1.855077 -0.198630
2  6.027525 -0.000329 0.000190  0.568166 -1.471998 -2.581230
3  11.692115 0.000646 -0.000739  -0.990386 0.000007 -0.696683
4  11.480751 0.000630 -0.000378  1.102111 -0.336624 0.364844
5  3.666627 -0.163903 -1.204803  -0.519250 0.086737 -1.532179
6  1.312590 0.000011 0.000008  -0.003664 0.023357 -0.272237
7  0.729354 0.000054 0.000049  -0.003677 0.000626 -0.150723
8  3.942138 0.046331 -0.431544  -0.205965 0.132196 -1.449654
9  1.539111 0.000084 0.000003  -0.000570 0.007396 -0.283198
10  1.196332 0.000147 0.000028  -0.000713 0.000161 -0.519018
11  3.883509 -0.047211 0.431350  -0.042690 0.198097 -1.260493
12  1.719573 -0.000029 0.000017  -0.000644 0.003280 -0.404344
13  1.209179 0.000090 0.000013  -0.000905 0.002861 -0.623853
14  3.859677 -0.138417 1.332379  -0.235831 0.317274 -1.342437
15  1.719448 -0.000018 0.000028  0.001902 0.001157 -0.067177
16  1.099675 0.000049 0.000006  -0.000943 0.002399 -0.620101
17  0.020619 -0.848310 1.563299  -1.045336 -0.389272 -0.255018
18  1.789819 -0.000005 -0.000017  -0.006334 0.000661 0.184288
19  1.207017 -0.000012 -0.000044  -0.005682 -0.007385 -0.065074
20  5.740636 0.000389 -0.000700  -0.101272 0.000003 0.000063
21  11.481159 0.000306 -0.000728  -0.078274 -0.061187 0.043242
22  6.027524 -0.000329 0.000201  1.476409 -0.029313 1.831747
23  -0.000001 11.692098 -0.000007  -0.515915 -0.115195 -0.430171
24  0.000001 0.000009 -0.000001  -0.121332 -0.000030 1.570738
25  -0.000000 -0.000012 0.000000  0.868960 0.000002 1.570712
26  -6.899342 -10.734701 0.826813  1.473120 1.855075 -0.198639
27  6.027518 -0.000263 -0.000215  1.599563 1.308541 -0.658083
28  11.691992 0.000162 0.000858  0.139882 0.000011 -0.876149
29  11.480637 0.000086 0.000819  -1.306431 0.523119 0.450798
30  3.710774 -0.434234 1.096848  0.966311 -0.027609 -1.956549
31  1.312560 0.000030 -0.000000  0.008191 -0.088214 -0.285514
32  0.729348 0.000067 -0.000027  -0.132450 -0.134191 -1.087309
33  3.820805 -0.154609 0.327899  0.593871 -0.205061 -1.572645
34  1.539094 0.000002 -0.000001  0.047162 -0.047589 -0.892209
35  1.196303 0.000080 -0.000004  -0.021079 -0.009374 -1.253100
36  3.882446 -0.171892 -0.416804  0.390739 -0.262224 -1.203021
37  1.719565 -0.000083 -0.000005  0.018695 -0.082922 -1.374417
38  1.209194 0.000032 0.000011  0.003361 -0.003782 -0.857658
39  3.859585 -0.149082 -1.331322  -0.075574 -0.222032 -0.316789
40  1.719411 -0.000097 -0.000037  0.034832 0.005064 -1.284467
41  1.099672 0.000024 0.000006  -0.004978 -0.008087 -0.691053
42  0.230504 -0.805067 -1.086893  1.111612 0.594062 -0.578210
43  1.789780 -0.000008 -0.000042  -0.089312 -0.070323 0.368341
44  1.206996 -0.000007 0.000005  0.000678 -0.214508 0.376132
45  5.740572 0.000080 0.000721  0.078180 -0.000014 0.000028
46  11.481071 0.000092 0.000909  0.030794 0.091814 0.063659
47  6.027515 -0.000273 -0.000229  -1.363940 -0.162397 -1.572697
48  -0.000001 11.691977 -0.000007  -0.638719 0.178398 0.528222
49  0.000004 -0.000000 -0.000000  2.412441 -0.000036 1.570860
50  -0.000008 -0.000013 0.000006  2.272645 -0.000036 1.570861
51  -2.490167 -9.026752 -5.062128  -0.148590 -2.880026 1.259157
52  0.000000 -0.000000 0.000000  0.008153 -0.000259 0.000009
53  -0.000000 -0.000000 -0.000000  1.565115 0.043565 -0.106862
54  0.144271 -10.743872 -5.771797  -0.517871 -0.035223 -1.900575
55  0.000001 0.000000 -0.000000  0.000000 -0.000001 -0.000002
56  0.000031 0.000029 0.000001  -1.571901 -0.044449 -0.106509
57  12.000549 -19.544212 -17.246658  1.570796 -0.000000 0.000000
58  -15.417984 4.000748 -22.641926  1.570796 -0.000000 0.000000
59  1.941978 9.263218 -8.327020  1.570796 -0.000000 0.000000
60  -0.004311 0.001229 -0.000372  0.006898 -0.005534 -0.284229
61  0.826810 11.791080 -4.879054  1.570796 -0.000000 0.000000
62  0.000000 0.000000 0.000000  -0.078727 -3.136056 0.284226
63  -1.922894 -1.786657 -0.571091  1.570024 0.002276 0.000241
64  -1.915771 -11.101227 -3.861487  1.570968 -0.000001 0.012229
65  -0.022960 1.363686 2.942972  -0.000000 0.000000 -0.000000
66  -0.023072 2.412897 7.714151  -0.000000 0.000000 -0.000000
67  0.116720 0.753963 1.014465  -0.000000 0.000000 -0.000000
68  0.000001 2.151127 0.903719  -0.000000 0.000000 -0.000000
69  -0.022961 1.645012 0.528369  -1.134464 -0.000000 -0.000000
70  0.597054 1.495772 2.359359  0.168371 0.000000 -0.000000
71  -1.909450 -11.618192 -1.911097  1.570968 -0.000001 0.012229
72  -0.031014 0.123524 0.801847  -0.000000 0.000000 -0.000000
73  0.060613 -0.165296 0.765402  -0.000000 0.000000 -0.000000
time 11
0  0.000006 0.000000 0.000000  -1.570800 -1.391899 -1.570792
1  -9.841317 -7.634221 1.937669  -1.544956 -1.855077 -0.198630
2  6.027525 -0.000329 0.000190  0.480954 -1.475773 -2.490151
3  11.692114 0.000645 -0.000739  -0.990387 0.000007 -0.720250
4  11.480137 0.000525 -0.000536  1.074125 -0.337166 0.379943
5  3.666626 -0.163903 -1.204803  -0.519250 0.086737 -1.532179
6  1.312590 0.000010 0.000007  -0.003664 0.023357 -0.272237
7  0.729355 0.000054 0.000049  -0.003677 0.000626 -0.150723
8  3.942138 0.046331 -0.431543  -0.205965 0.132197 -1.449654
9  1.539111 0.000082 0.000003  -0.000570 0.007396 -0.283198
10  1.196332 0.000147 0.000028  -0.000713 0.000161 -0.519018
11  3.883509 -0.047212 0.431350  -0.042690 0.198097 -1.260493
12  1.719573 -0.000029 0.000017  -0.000644 0.003280 -0.404344
13  1.209179 0.000089 0.000012  -0.000905 0.002861 -0.623853
14  3.859676 -0.138418 1.332379  -0.235831 0.317274 -1.342437
15  1.719448 -0.000019 0.000028  0.001902 0.001157 -0.067177
16  1.099675 0.000049 0.000006  -0.000943 0.002399 -0.620101
17  0.020619 -0.848310 1.563299  -1.045336 -0.389272 -0.255018
18  1.789818 -0.000004 -0.000016  -0.006334 0.000661 0.184289
19  1.207016 -0.000012 -0.000044  -0.005682 -0.007385 -0.065074
20  5.740636 0.000389 -0.000699  -0.107267 0.000003 0.000063
21  11.481037 0.000284 -0.000760  -0.083250 -0.062782 0.045014
22  6.027524 -0.000329 0.000201  1.482801 -0.035989 1.835814
23  -0.000000 11.692097 -0.000008  -0.532338 -0.122809 -0.443437
24  0.000002 0.000008 -0.000000  -0.121332 -0.000031 1.570739
25  -0.000001 -0.000012 -0.000001  0.868960 0.000002 1.570712
26  -6.899342 -10.734701 0.826813  1.473120 1.855075 -0.198639
27  6.027517 -0.000263 -0.000216  1.600183 1.297962 -0.657777
28  11.691991 0.000161 0.000858  0.139883 0.000012 -0.902003
29  11.480542 0.000047 0.000824  -1.320467 0.528379 0.477318
30  3.710774 -0.434234 1.096848  0.966311 -0.027609 -1.956549
31  1.312560 0.000031 -0.000001  0.008190 -0.088214 -0.285514
32  0.729347 0.000065 -0.000028  -0.132450 -0.134191 -1.087309
33  3.820805 -0.154609 0.327899  0.593871 -0.205061 -1.572645
34  1.539094 0.000004 -0.000002  0.047162 -0.047589 -0.892209
35  1.196302 0.000080 -0.000004  -0.021079 -0.009374 -1.253100
36  3.882445 -0.171892 -0.416804  0.390739 -0.262224 -1.203021
37  1.719566 -0.000084 -0.000004  0.018695 -0.082922 -1.374417
38  1.209193 0.000034 0.000011  0.003361 -0.003782 -0.857658
39  3.859584 -0.149082 -1.331322  -0.075574 -0.222032 -0.316789
40  1.719413 -0.000097 -0.000037  0.034832 0.005065 -1.284467
41  1.099673 0.000022 0.000006  -0.004978 -0.008087 -0.691053
42  0.230504 -0.805067 -1.086892  1.111612 0.594062 -0.578210
43  1.789779 -0.000009 -0.000042  -0.089312 -0.070323 0.368341
44  1.206995 -0.000006 0.000005  0.000678 -0.214508 0.376132
45  5.740573 0.000077 0.000721  0.077080 -0.000014 0.000028
46  11.481053 0.000082 0.000910  0.026952 0.092666 0.069462
47  6.027515 -0.000273 -0.000229  -1.355334 -0.168713 -1.574407
48  -0.000001 11.691976 -0.000008  -0.655994 0.188465 0.541763
49  0.000003 0.000000 -0.000000  2.412441 -0.000036 1.570860
50  -0.000008 -0.000013 0.000004  2.272645 -0.000036 1.570861
51  -2.488223 -8.893817 -5.027700  -0.167107 -2.887121 1.251677
52  -0.000001 0.000000 -0.000000  0.008153 -0.000259 0.000009
53  -0.000000 -0.000000 0.000000  1.565115 0.043565 -0.106862
54  0.114154 -10.633797 -5.797436  -0.535924 -0.028492 -1.912205
55  -0.000000 0.000000 -0.000001  0.000000 -0.000001 -0.000002
56  0.000030 0.000029 0.000001  -1.571901 -0.044449 -0.106509
57  12.000549 -19.544212 -17.246658  1.570796 -0.000000 0.000000
58  -15.417984 4.000748 -22.641926  1.570796 -0.000000 0.000000
59  1.941978 9.263218 -8.327020  1.570796 -0.000000 0.000000
60  -0.004311 0.001229 -0.000372  0.006898 -0.005534 -0.284229
61  0.826810 11.791080 -4.879054  1.570796 -0.000000 0.000000
62  0.000000 0.000000 0.000000  -0.078727 -3.136056 0.284226
63  -1.922894 -1.786657 -0.603687  1.568907 -0.001118 0.000270
64  -1.921736 -10.989811 -3.861159  1.583357 0.014743 0.000115
65  -0.022960 1.363687 2.942973  0.000000 -0.000000 -0.000000
66  -0.023072 2.412898 7.714150  0.000000 -0.000000 -0.000000
67  0.116721 0.753963 1.014465  0.000000 -0.000000 -0.000000
68  0.000001 2.151127 0.903719  0.000000 -0.000000 -0.000000
69  -0.022961 1.645013 0.528370  -1.134464 -0.000000 -0.000000
70  0.597054 1.495773 2.359360  0.168371 -0.000000 -0.000000
71  -1.893015 -11.530935 -1.917536  1.583357 0.014743 0.000115
72  -0.031014 0.123524 0.801846  0.000000 -0.000000 -0.000000
73  0.060613 -0.165296 0.765401  0.000000 0.000000 -0.000000
time 12
0  0.000006 0.000000 0.000000  -1.570800 -1.391899 -1.570792
1  -9.841317 -7.634221 1.937669  -1.544956 -1.855077 -0.198630
2  6.027525 -0.000329 0.000190  0.463664 -1.476524 -2.472514
3  11.692112 0.000646 -0.000738  -0.990388 0.000007 -0.725639
4  11.480010 0.000504 -0.000569  1.077573 -0.338024 0.377864
5  3.666628 -0.163904 -1.204802  -0.519250 0.086737 -1.532179
6  1.312589 0.000010 0.000009  -0.003664 0.023357 -0.272237
7  0.729356 0.000053 0.000049  -0.003677 0.000626 -0.150723
8  3.942141 0.046330 -0.431542  -0.205965 0.132196 -1.449654
9  1.539110 0.000083 0.000004  -0.000570 0.007396 -0.283198
10  1.196333 0.000145 0.000028  -0.000713 0.000161 -0.519018
11  3.883510 -0.047212 0.431351  -0.042690 0.198097 -1.260493
12  1.719573 -0.000028 0.000016  -0.000644 0.003280 -0.404344
13  1.209179 0.000091 0.000012  -0.000905 0.002861 -0.623853
14  3.859677 -0.138418 1.332380  -0.235831 0.317274 -1.342437
15  1.719448 -0.000018 0.000029  0.001902 0.001157 -0.067177
16  1.099675 0.000048 0.000006  -0.000943 0.002399 -0.620101
17  0.020620 -0.848310 1.563299  -1.045336 -0.389272 -0.255018
18  1.789819 -0.000004 -0.000017  -0.006334 0.000661 0.184289
19  1.207017 -0.000012 -0.000044  -0.005682 -0.007385 -0.065074
20  5.740636 0.000390 -0.000700  -0.106793 0.000003 0.000063
21  11.481011 0.000280 -0.000767  -0.082599 -0.062752 0.044713
22  6.027524 -0.000329 0.000201  1.484124 -0.037208 1.836189
23  0.000001 11.692098 -0.000008  -0.536082 -0.124580 -0.446454
24  0.000002 0.000008 0.000000  -0.121333 -0.000030 1.570739
25  0.000001 -0.000012 -0.000000  0.868960 0.000002 1.570712
26  -6.899342 -10.734701 0.826813  1.473120 1.855075 -0.198639
27  6.027517 -0.000263 -0.000216  1.599299 1.294067 -0.658597
28  11.691991 0.000161 0.000859  0.139884 0.000012 -0.909312
29  11.480516 0.000039 0.000825  -1.319031 0.532907 0.477528
30  3.710775 -0.434235 1.096849  0.966311 -0.027609 -1.956549
31  1.312560 0.000031 -0.000001  0.008191 -0.088214 -0.285514
32  0.729347 0.000066 -0.000028  -0.132450 -0.134191 -1.087309
33  3.820806 -0.154609 0.327899  0.593871 -0.205061 -1.572645
34  1.539096 0.000005 -0.000002  0.047162 -0.047589 -0.892209
35  1.196303 0.000081 -0.000003  -0.021079 -0.009374 -1.253100
36  3.882445 -0.171892 -0.416804  0.390739 -0.262224 -1.203022
37  1.719565 -0.000084 -0.000005  0.018695 -0.082922 -1.374417
38  1.209193 0.000033 0.000011  0.003361 -0.003782 -0.857658
39  3.859585 -0.149082 -1.331322  -0.075574 -0.222032 -0.316789
40  1.719410 -0.000097 -0.000037  0.034832 0.005065 -1.284467
41  1.099673 0.000023 0.000006  -0.004977 -0.008087 -0.691053
42  0.230503 -0.805067 -1.086893  1.111612 0.594062 -0.578210
43  1.789781 -0.000006 -0.000042  -0.089312 -0.070323 0.368341
44  1.206995 -0.000006 0.000005  0.000678 -0.214508 0.376132
45  5.740573 0.000079 0.000721  0.077834 -0.000014 0.000028
46  11.481047 0.000081 0.000911  0.026975 0.093601 0.069286
47  6.027515 -0.000273 -0.000229  -1.352347 -0.171274 -1.574883
48  -0.000001 11.691975 -0.000008  -0.660858 0.191352 0.545564
49  0.000003 0.000001 -0.000000  2.412441 -0.000036 1.570860
50  -0.000007 -0.000014 0.000004  2.272645 -0.000036 1.570861
51  -2.493519 -8.857697 -5.036983  -0.163641 -2.882934 1.249079
52  0.000000 -0.000000 0.000001  0.008153 -0.000259 0.000009
53  0.000000 -0.000000 -0.000000  1.565115 0.043565 -0.106862
54  0.107284 -10.605983 -5.793098  -0.532478 -0.032604 -1.914028
55  -0.000001 0.000000 0.000000  0.000000 -0.000001 -0.000002
56  0.000030 0.000029 0.000001  -1.571901 -0.044449 -0.106509
57  12.000549 -19.544212 -17.246658  1.570796 -0.000000 0.000000
58  -15.417984 4.000748 -22.641926  1.570796 -0.000000 0.000000
59  1.941978 9.263218 -8.327020  1.570796 -0.000000 0.000000
60  -0.004311 0.001229 -0.000372  0.006898 -0.005534 -0.284229
61  0.826810 11.791080 -4.879054  1.570796 -0.000000 0.000000
62  0.000000 0.000000 0.000000  -0.078727 -3.136056 0.284226
63  -1.922894 -1.786657 -0.635629  1.569293 -0.002880 0.000295
64  -1.932813 -10.948763 -3.858862  1.578329 0.012876 -0.001672
65  -0.022960 1.363687 2.942973  -0.000000 0.000000 -0.000000
66  -0.023072 2.412898 7.714148  -0.000000 0.000000 -0.000000
67  0.116720 0.753963 1.014465  -0.000000 0.000000 -0.000000
68  0.000000 2.151127 0.903719  -0.000000 0.000000 -0.000000
69  -0.022961 1.645013 0.528370  -1.134464 -0.000000 -0.000000
70  0.597054 1.495772 2.359359  0.168371 0.000000 -0.000000
71  -1.908639 -11.480150 -1.912493  1.578329 0.012876 -0.001672
72  -0.031014 0.123524 0.801847  -0.000000 0.000000 -0.000000
73  0.060612 -0.165296 0.765401  -0.000000 0.000000 -0.000000
time 13
0  0.000006 0.000000 0.000000  -1.570800 -1.391899 -1.570792
1  -9.841317 -7.634221 1.937669  -1.544956 -1.855077 -0.198630
2  6.027525 -0.000329 0.000190  0.475553 -1.476201 -2.485246
3  11.692113 0.000646 -0.000740  -0.990387 0.000007 -0.723497
4  11.480062 0.000511 -0.000556  1.088422 -0.338631 0.369890
5  3.666627 -0.163903 -1.204803  -0.519250 0.086737 -1.532179
6  1.312590 0.000010 0.000009  -0.003664 0.023357 -0.272237
7  0.729354 0.000055 0.000049  -0.003677 0.000626 -0.150723
8  3.942140 0.046331 -0.431543  -0.205965 0.132196 -1.449654
9  1.539111 0.000083 0.000004  -0.000570 0.007396 -0.283198
10  1.196332 0.000145 0.000028  -0.000713 0.000161 -0.519018
11  3.883510 -0.047212 0.431351  -0.042690 0.198097 -1.260493
12  1.719573 -0.000030 0.000016  -0.000644 0.003280 -0.404344
13  1.209179 0.000090 0.000012  -0.000905 0.002861 -0.623854
14  3.859676 -0.138418 1.332380  -0.235831 0.317274 -1.342437
15  1.719448 -0.000018 0.000028  0.001902 0.001157 -0.067177
16  1.099675 0.000047 0.000005  -0.000943 0.002399 -0.620101
17  0.020619 -0.848310 1.563299  -1.045336 -0.389272 -0.255018
18  1.789819 -0.000004 -0.000017  -0.006334 0.000661 0.184288
19  1.207016 -0.000012 -0.000044  -0.005682 -0.007385 -0.065074
20  5.740637 0.000388 -0.000699  -0.104744 0.000003 0.000063
21  11.481021 0.000281 -0.000765  -0.080684 -0.062212 0.043576
22  6.027524 -0.000329 0.000201  1.483391 -0.036300 1.835320
23  -0.000001 11.692098 -0.000008  -0.534594 -0.123875 -0.445255
24  0.000004 0.000008 0.000001  -0.121332 -0.000031 1.570738
25  -0.000001 -0.000012 -0.000000  0.868960 0.000002 1.570712
26  -6.899342 -10.734701 0.826813  1.473120 1.855075 -0.198639
27  6.027517 -0.000263 -0.000216  1.598553 1.293723 -0.659229
28  11.691990 0.000161 0.000858  0.139884 0.000012 -0.908414
29  11.480520 0.000041 0.000826  -1.315649 0.535721 0.468253
30  3.710774 -0.434234 1.096849  0.966311 -0.027609 -1.956549
31  1.312561 0.000032 -0.000000  0.008191 -0.088214 -0.285514
32  0.729348 0.000064 -0.000027  -0.132450 -0.134191 -1.087309
33  3.820807 -0.154609 0.327899  0.593871 -0.205061 -1.572645
34  1.539095 0.000002 -0.000001  0.047162 -0.047589 -0.892209
35  1.196301 0.000081 -0.000003  -0.021079 -0.009374 -1.253100
36  3.882445 -0.171892 -0.416804  0.390739 -0.262224 -1.203021
37  1.719564 -0.000083 -0.000004  0.018695 -0.082922 -1.374417
38  1.209194 0.000032 0.000011  0.003361 -0.003782 -0.857658
39  3.859584 -0.149081 -1.331322  -0.075574 -0.222032 -0.316789
40  1.719412 -0.000097 -0.000037  0.034832 0.005064 -1.284467
41  1.099672 0.000023 0.000006  -0.004978 -0.008087 -0.691053
42  0.230504 -0.805067 -1.086893  1.111612 0.594062 -0.578210
43  1.789780 -0.000007 -0.000042  -0.089312 -0.070323 0.368341
44  1.206996 -0.000006 0.000005  0.000678 -0.214508 0.376132
45  5.740572 0.000079 0.000721  0.078475 -0.000014 0.000028
46  11.481048 0.000082 0.000911  0.027799 0.094151 0.067203
47  6.027515 -0.000273 -0.000229  -1.352197 -0.171645 -1.574822
48  -0.000001 11.691975 -0.000008  -0.660261 0.190996 0.545098
49  0.000002 -0.000001 0.000000  2.412441 -0.000036 1.570860
50  -0.000007 -0.000012 0.000004  2.272645 -0.000036 1.570861
51  -2.498559 -8.864077 -5.052654  -0.156206 -2.875518 1.249256
52  -0.000001 0.000000 0.000000  0.008153 -0.000259 0.000009
53  -0.000000 0.000000 -0.000000  1.565115 0.043565 -0.106862
54  0.109240 -10.613787 -5.780857  -0.525141 -0.039870 -1.912189
55  -0.000000 0.000000 0.000000  0.000000 -0.000001 -0.000002
56  0.000030 0.000029 0.000001  -1.571901 -0.044449 -0.106509
57  12.000549 -19.544212 -17.246658  1.570796 -0.000000 0.000000
58  -15.417984 4.000748 -22.641926  1.570796 -0.000000 0.000000
59  1.941978 9.263218 -8.327020  1.570796 -0.000000 0.000000
60  -0.004311 0.001229 -0.000372  0.006898 -0.005534 -0.284229
61  0.826810 11.791080 -4.879054  1.570796 -0.000000 0.000000
62  0.000000 0.000000 0.000000  -0.078727 -3.136056 0.284226
63  -1.922894 -1.786657 -0.666263  1.570142 -0.001568 0.000311
64  -1.938778 -10.942899 -3.852628  1.569026 0.008402 0.000334
65  -0.022960 1.363686 2.942971  -0.000000 0.000000 -0.000000
66  -0.023072 2.412897 7.714148  -0.000000 0.000000 -0.000000
67  0.116720 0.753963 1.014463  -0.000000 0.000000 -0.000000
68  0.000000 2.151126 0.903719  -0.000000 0.000000 -0.000000
69  -0.022961 1.645012 0.528369  -1.134464 -0.000000 -0.000000
70  0.597054 1.495772 2.359358  0.168371 0.000000 -0.000000
71  -1.922212 -11.456107 -1.901307  1.569026 0.008402 0.000334
72  -0.031014 0.123524 0.801845  -0.000000 0.000000 -0.000000
73  0.060613 -0.165296 0.765399  -0.000000 0.000000 -0.000000
time 14
0  0.000006 0.000000 0.000000  -1.570800 -1.391899 -1.570792
1  -9.841317 -7.634221 1.937669  -1.544956 -1.855077 -0.198630
2  6.027525 -0.000329 0.000190  0.500584 -1.475528 -2.512248
3  11.692114 0.000644 -0.000738  -0.990387 0.000007 -0.717541
4  11.480206 0.000535 -0.000519  1.098762 -0.338932 0.365357
5  3.666628 -0.163903 -1.204801  -0.519250 0.086737 -1.532179
6  1.312589 0.000010 0.000008  -0.003664 0.023357 -0.272237
7  0.729355 0.000054 0.000050  -0.003677 0.000626 -0.150723
8  3.942140 0.046331 -0.431542  -0.205965 0.132197 -1.449654
9  1.539110 0.000084 0.000004  -0.000570 0.007396 -0.283198
10  1.196333 0.000146 0.000028  -0.000713 0.000161 -0.519018
11  3.883511 -0.047211 0.431352  -0.042690 0.198097 -1.260493
12  1.719573 -0.000028 0.000017  -0.000644 0.003280 -0.404344
13  1.209179 0.000089 0.000013  -0.000905 0.002861 -0.623853
14  3.859677 -0.138418 1.332381  -0.235831 0.317274 -1.342437
15  1.719448 -0.000019 0.000028  0.001902 0.001157 -0.067177
16  1.099675 0.000049 0.000005  -0.000943 0.002399 -0.620101
17  0.020620 -0.848310 1.563300  -1.045336 -0.389272 -0.255018
18  1.789820 -0.000004 -0.000017  -0.006334 0.000661 0.184289
19  1.207017 -0.000012 -0.000044  -0.005682 -0.007385 -0.065074
20  5.740635 0.000388 -0.000700  -0.102624 0.000003 0.000063
21  11.481049 0.000286 -0.000757  -0.078797 -0.061763 0.043105
22  6.027524 -0.000329 0.000201  1.481887 -0.034345 1.833290
23  0.000001 11.692098 -0.000009  -0.530455 -0.121922 -0.441918
24  0.000003 0.000009 -0.000001  -0.121332 -0.000031 1.570739
25  0.000001 -0.000011 -0.000001  0.868960 0.000002 1.570712
26  -6.899342 -10.734701 0.826813  1.473120 1.855075 -0.198639
27  6.027517 -0.000263 -0.000216  1.598392 1.296827 -0.659303
28  11.691992 0.000160 0.000859  0.139883 0.000012 -0.901644
29  11.480545 0.000051 0.000822  -1.310585 0.534788 0.460314
30  3.710774 -0.434234 1.096849  0.966311 -0.027609 -1.956549
31  1.312560 0.000032 -0.000001  0.008191 -0.088214 -0.285514
32  0.729347 0.000066 -0.000028  -0.132450 -0.134191 -1.087309
33  3.820805 -0.154609 0.327899  0.593871 -0.205061 -1.572645
34  1.539096 0.000003 -0.000002  0.047162 -0.047589 -0.892209
35  1.196301 0.000081 -0.000003  -0.021079 -0.009374 -1.253100
36  3.882445 -0.171892 -0.416804  0.390739 -0.262224 -1.203021
37  1.719566 -0.000083 -0.000005  0.018695 -0.082922 -1.374417
38  1.209193 0.000033 0.000011  0.003361 -0.003782 -0.857658
39  3.859584 -0.149082 -1.331322  -0.075574 -0.222032 -0.316789
40  1.719411 -0.000097 -0.000037  0.034832 0.005064 -1.284467
41  1.099673 0.000024 0.000006  -0.004978 -0.008087 -0.691053
42  0.230503 -0.805067 -1.086893  1.111612 0.594062 -0.578210
43  1.789779 -0.000007 -0.000042  -0.089312 -0.070323 0.368341
44  1.206996 -0.000007 0.000005  0.000678 -0.214508 0.376132
45  5.740573 0.000079 0.000720  0.079080 -0.000014 0.000028
46  11.481052 0.000085 0.000910  0.029081 0.094054 0.065396
47  6.027515 -0.000273 -0.000229  -1.354720 -0.169788 -1.574312
48  -0.000001 11.691975 -0.000008  -0.655754 0.188323 0.541576
49  0.000004 -0.000000 -0.000001  2.412441 -0.000036 1.570860
50  -0.000007 -0.000014 0.000004  2.272645 -0.000036 1.570861
51  -2.495025 -8.898552 -5.055948  -0.149328 -2.872454 1.251292
52  0.000001 -0.000000 -0.000000  0.008153 -0.000259 0.000009
53  -0.000000 0.000000 0.000000  1.565115 0.043565 -0.106862
54  0.123328 -10.641774 -5.761497  -0.518445 -0.042807 -1.908611
55  0.000000 0.000000 0.000000  0.000000 -0.000001 -0.000002
56  0.000030 0.000029 0.000001  -1.571901 -0.044449 -0.106509
57  12.000549 -19.544212 -17.246658  1.570796 -0.000000 0.000000
58  -15.417984 4.000748 -22.641926  1.570796 -0.000000 0.000000
59  1.941978 9.263218 -8.327020  1.570796 -0.000000 0.000000
60  -0.004311 0.001229 -0.000372  0.006898 -0.005534 -0.284229
61  0.826810 11.791080 -4.879054  1.570796 -0.000000 0.000000
62  0.000000 0.000000 0.000000  -0.078727 -3.136056 0.284226
63  -1.922894 -1.786657 -0.694934  1.570992 0.000868 0.000323
64  -1.933677 -10.969182 -3.842566  1.564016 0.003083 0.004160
65  -0.022960 1.363687 2.942973  -0.000000 0.000000 -0.000000
66  -0.023072 2.412898 7.714151  -0.000000 0.000000 -0.000000
67  0.116720 0.753963 1.014466  -0.000000 0.000000 -0.000000
68  0.000000 2.151127 0.903719  -0.000000 0.000000 -0.000000
69  -0.022961 1.645013 0.528371  -1.134464 -0.000000 -0.000000
70  0.597054 1.495773 2.359360  0.168371 0.000000 -0.000000
71  -1.925558 -11.472584 -1.888638  1.564016 0.003083 0.004160
72  -0.031014 0.123524 0.801845  -0.000000 0.000000 -0.000000
73  0.060613 -0.165296 0.765400  -0.000000 0.000000 -0.000000
time 15
0  0.000006 0.000000 0.000000  -1.570800 -1.391899 -1.570792
1  -9.841317 -7.634221 1.937669  -1.544956 -1.855077 -0.198630
2  6.027525 -0.000329 0.000190  0.532058 -1.474244 -2.545193
3  11.692114 0.000645 -0.000739  -0.990386 0.000007 -0.707868
4  11.480450 0.000579 -0.000455  1.104189 -0.335738 0.365390
5  3.666628 -0.163903 -1.204802  -0.519250 0.086737 -1.532179
6  1.312589 0.000011 0.000007  -0.003664 0.023356 -0.272237
7  0.729355 0.000055 0.000050  -0.003677 0.000626 -0.150723
8  3.942142 0.046332 -0.431543  -0.205965 0.132196 -1.449654
9  1.539110 0.000083 0.000004  -0.000570 0.007396 -0.283198
10  1.196333 0.000146 0.000029  -0.000713 0.000161 -0.519018
11  3.883511 -0.047211 0.431351  -0.042690 0.198097 -1.260493
12  1.719573 -0.000028 0.000017  -0.000644 0.003280 -0.404344
13  1.209179 0.000089 0.000012  -0.000905 0.002861 -0.623853
14  3.859679 -0.138417 1.332380  -0.235831 0.317274 -1.342437
15  1.719448 -0.000019 0.000028  0.001902 0.001157 -0.067177
16  1.099675 0.000048 0.000006  -0.000943 0.002399 -0.620101
17  0.020621 -0.848309 1.563299  -1.045336 -0.389272 -0.255018
18  1.789818 -0.000004 -0.000017  -0.006334 0.000661 0.184288
19  1.207016 -0.000012 -0.000044  -0.005682 -0.007385 -0.065074
20  5.740636 0.000390 -0.000700  -0.101135 0.000003 0.000064
21  11.481099 0.000296 -0.000745  -0.077904 -0.060966 0.043473
22  6.027524 -0.000329 0.000201  1.479644 -0.031957 1.831747
23  -0.000001 11.692098 -0.000008  -0.523720 -0.118781 -0.436481
24  0.000002 0.000008 -0.000001  -0.121332 -0.000030 1.570739
25  -0.000002 -0.000012 -0.000000  0.868960 0.000002 1.570712
26  -6.899342 -10.734701 0.826813  1.473120 1.855075 -0.198639
27  6.027517 -0.000263 -0.000216  1.597197 1.302207 -0.660204
28  11.691991 0.000161 0.000859  0.139883 0.000011 -0.890283
29  11.480581 0.000065 0.000821  -1.305290 0.532269 0.457218
30  3.710775 -0.434234 1.096848  0.966311 -0.027609 -1.956549
31  1.312560 0.000031 -0.000000  0.008191 -0.088214 -0.285514
32  0.729347 0.000062 -0.000028  -0.132450 -0.134191 -1.087309
33  3.820806 -0.154608 0.327899  0.593871 -0.205061 -1.572645
34  1.539095 0.000004 -0.000002  0.047162 -0.047589 -0.892209
35  1.196301 0.000080 -0.000004  -0.021079 -0.009374 -1.253100
36  3.882446 -0.171891 -0.416805  0.390739 -0.262224 -1.203021
37  1.719565 -0.000082 -0.000005  0.018695 -0.082922 -1.374417
38  1.209193 0.000033 0.000011  0.003361 -0.003782 -0.857658
39  3.859586 -0.149081 -1.331322  -0.075574 -0.222032 -0.316789
40  1.719413 -0.000097 -0.000037  0.034832 0.005064 -1.284467
41  1.099673 0.000023 0.000006  -0.004977 -0.008087 -0.691053
42  0.230504 -0.805067 -1.086893  1.111612 0.594062 -0.578210
43  1.789780 -0.000006 -0.000042  -0.089312 -0.070323 0.368341
44  1.206996 -0.000006 0.000005  0.000678 -0.214508 0.376132
45  5.740573 0.000079 0.000721  0.079368 -0.000014 0.000028
46  11.481060 0.000086 0.000909  0.030306 0.093723 0.064567
47  6.027515 -0.000273 -0.000229  -1.359240 -0.166757 -1.573305
48  -0.000002 11.691976 -0.000007  -0.648176 0.183873 0.535644
49  0.000002 -0.000000 0.000001  2.412441 -0.000036 1.570860
50  -0.000008 -0.000013 0.000005  2.272645 -0.000036 1.570861
51  -2.482693 -8.955113 -5.061794  -0.145591 -2.875749 1.252378
52  -0.000000 0.000000 -0.000001  0.008153 -0.000259 0.000009
53  0.000001 0.000000 -0.000000  1.565115 0.043565 -0.106862
54  0.142393 -10.691497 -5.759136  -0.514897 -0.039448 -1.906683
55  0.000000 -0.000000 0.000000  0.000000 -0.000001 -0.000002
56  0.000030 0.000028 0.000002  -1.571901 -0.044449 -0.106509
57  12.000549 -19.544212 -17.246658  1.570796 -0.000000 0.000000
58  -15.417984 4.000748 -22.641926  1.570796 -0.000000 0.000000
59  1.941978 9.263218 -8.327020  1.570796 -0.000000 0.000000
60  -0.004311 0.001229 -0.000372  0.006898 -0.005534 -0.284229
61  0.826810 11.791080 -4.879054  1.570796 -0.000000 0.000000
62  0.000000 0.000000 0.000000  -0.078727 -3.136056 0.284226
63  -1.922894 -1.786657 -0.720989  1.571378 0.002180 0.000327
64  -1.922454 -11.027004 -3.850052  1.565991 -0.001383 0.006235
65  -0.022960 1.363686 2.942972  0.000000 0.000000 0.000000
66  -0.023072 2.412897 7.714151  0.000000 0.000000 0.000000
67  0.116720 0.753963 1.014465  0.000000 0.000000 0.000000
68  0.000000 2.151127 0.903719  0.000000 0.000000 0.000000
69  -0.022961 1.645012 0.528369  -1.134464 -0.000000 -0.000000
70  0.597054 1.495772 2.359358  0.168371 0.000000 0.000000
71  -1.921992 -11.534302 -1.897116  1.565991 -0.001383 0.006235
72  -0.031014 0.123524 0.801845  0.000000 0.000000 0.000000
73  0.060613 -0.165296 0.765400  0.000000 0.000000 0.000000
time 16
0  0.000006 0.000000 0.000000  -1.570800 -1.391899 -1.570792
1  -9.841317 -7.634221 1.937669  -1.544956 -1.855077 -0.198630
2  6.027525 -0.000329 0.000190  0.562221 -1.472643 -2.576066
3  11.692112 0.000646 -0.000739  -0.990386 0.000007 -0.697668
4  11.480726 0.000627 -0.000385  1.105832 -0.329736 0.365625
5  3.666627 -0.163903 -1.204802  -0.519250 0.086737 -1.532179
6  1.312589 0.000009 0.000008  -0.003664 0.023357 -0.272237
7  0.729355 0.000052 0.000049  -0.003677 0.000626 -0.150723
8  3.942140 0.046331 -0.431543  -0.205965 0.132197 -1.449654
9  1.539111 0.000083 0.000003  -0.000570 0.007396 -0.283198
10  1.196332 0.000145 0.000028  -0.000713 0.000161 -0.519018
11  3.883510 -0.047211 0.431352  -0.042690 0.198097 -1.260493
12  1.719573 -0.000029 0.000017  -0.000644 0.003280 -0.404344
13  1.209179 0.000091 0.000012  -0.000905 0.002861 -0.623853
14  3.859675 -0.138418 1.332380  -0.235831 0.317274 -1.342437
15  1.719448 -0.000017 0.000028  0.001902 0.001157 -0.067177
16  1.099674 0.000050 0.000006  -0.000943 0.002399 -0.620101
17  0.020619 -0.848310 1.563299  -1.045336 -0.389272 -0.255018
18  1.789819 -0.000004 -0.000017  -0.006334 0.000661 0.184288
19  1.207017 -0.000013 -0.000044  -0.005682 -0.007385 -0.065074
20  5.740636 0.000389 -0.000700  -0.100294 0.000003 0.000063
21  11.481154 0.000306 -0.000730  -0.077859 -0.059759 0.043839
22  6.027524 -0.000329 0.000201  1.477199 -0.029678 1.830970
23  0.000001 11.692099 -0.000008  -0.516602 -0.115508 -0.430728
24  0.000003 0.000008 -0.000001  -0.121332 -0.000031 1.570738
25  -0.000000 -0.000011 0.000000  0.868960 0.000002 1.570712
26  -6.899342 -10.734701 0.826813  1.473120 1.855075 -0.198639
27  6.027518 -0.000263 -0.000215  1.595395 1.307357 -0.661632
28  11.691992 0.000160 0.000859  0.139882 0.000011 -0.879467
29  11.480625 0.000083 0.000818  -1.302680 0.531364 0.456157
30  3.710775 -0.434234 1.096848  0.966311 -0.027609 -1.956549
31  1.312560 0.000030 -0.000001  0.008191 -0.088214 -0.285514
32  0.729348 0.000065 -0.000027  -0.132450 -0.134191 -1.087309
33  3.820806 -0.154608 0.327899  0.593871 -0.205061 -1.572645
34  1.539095 0.000002 -0.000001  0.047162 -0.047589 -0.892209
35  1.196302 0.000079 -0.000003  -0.021079 -0.009374 -1.253100
36  3.882446 -0.171892 -0.416804  0.390739 -0.262224 -1.203021
37  1.719564 -0.000084 -0.000005  0.018695 -0.082922 -1.374417
38  1.209194 0.000033 0.000011  0.003361 -0.003782 -0.857658
39  3.859585 -0.149082 -1.331322  -0.075574 -0.222032 -0.316789
40  1.719413 -0.000097 -0.000037  0.034832 0.005065 -1.284467
41  1.099673 0.000024 0.000006  -0.004977 -0.008087 -0.691053
42  0.230504 -0.805066 -1.086893  1.111612 0.594062 -0.578210
43  1.789779 -0.000007 -0.000042  -0.089312 -0.070323 0.368341
44  1.206996 -0.000007 0.000005  0.000678 -0.214508 0.376132
45  5.740573 0.000079 0.000721  0.079184 -0.000014 0.000028
46  11.481070 0.000091 0.000908  0.030875 0.093632 0.064239
47  6.027515 -0.000273 -0.000229  -1.363662 -0.163978 -1.572267
48  -0.000002 11.691976 -0.000008  -0.640942 0.179677 0.529968
49  0.000004 -0.000001 -0.000000  2.412441 -0.000036 1.570860
50  -0.000007 -0.000013 0.000005  2.272645 -0.000036 1.570861
51  -2.467731 -9.008072 -5.069074  -0.144958 -2.879842 1.251496
52  -0.000001 -0.000000 -0.000001  0.008153 -0.000259 0.000009
53  -0.000000 0.000000 -0.000000  1.565115 0.043565 -0.106862
54  0.157411 -10.743754 -5.767939  -0.514357 -0.035345 -1.907420
55  -0.000000 -0.000000 0.000000  0.000000 -0.000001 -0.000002
56  0.000030 0.000029 0.000001  -1.571902 -0.044449 -0.106509
57  12.000549 -19.544212 -17.246658  1.570796 -0.000000 0.000000
58  -15.417984 4.000748 -22.641926  1.570796 -0.000000 0.000000
59  1.941978 9.263218 -8.327020  1.570796 -0.000000 0.000000
60  -0.004311 0.001229 -0.000372  0.006898 -0.005534 -0.284229
61  0.826810 11.791080 -4.879054  1.570796 -0.000000 0.000000
62  0.000000 0.000000 0.000000  -0.078727 -3.136056 0.284226
63  -1.922894 -1.786657 -0.743774  1.571317 0.001545 0.000293
64  -1.911231 -11.084826 -3.863956  1.569675 -0.003268 0.005510
65  -0.022960 1.363687 2.942973  0.000000 0.000000 -0.000000
66  -0.023072 2.412898 7.714150  0.000000 0.000000 -0.000000
67  0.116720 0.753963 1.014464  0.000000 0.000000 -0.000000
68  0.000000 2.151127 0.903719  0.000000 0.000000 -0.000000
69  -0.022962 1.645012 0.528369  -1.134464 -0.000000 -0.000000
70  0.597054 1.495772 2.359359  0.168371 0.000000 -0.000000
71  -1.914773 -11.599335 -1.912911  1.569675 -0.003268 0.005510
72  -0.031014 0.123524 0.801847  0.000000 0.000000 -0.000000
73  0.060613 -0.165296 0.765401  0.000000 0.000000 -0.000000
time 17
0  0.000006 0.000000 0.000000  -1.570800 -1.391899 -1.570792
1  -9.841317 -7.634221 1.937669  -1.544956 -1.855077 -0.198630
2  6.027525 -0.000329 0.000190  0.577021 -1.471697 -2.590906
3  11.692115 0.000646 -0.000739  -0.990385 0.000007 -0.692462
4  11.480827 0.000642 -0.000359  1.105093 -0.325491 0.365242
5  3.666629 -0.163903 -1.204802  -0.519250 0.086737 -1.532179
6  1.312589 0.000010 0.000009  -0.003664 0.023357 -0.272237
7  0.729354 0.000054 0.000049  -0.003677 0.000626 -0.150723
8  3.942142 0.046331 -0.431543  -0.205965 0.132197 -1.449654
9  1.539111 0.000084 0.000003  -0.000570 0.007396 -0.283198
10  1.196332 0.000145 0.000028  -0.000713 0.000161 -0.519018
11  3.883511 -0.047212 0.431350  -0.042690 0.198097 -1.260493
12  1.719573 -0.000031 0.000016  -0.000644 0.003280 -0.404344
13  1.209179 0.000089 0.000012  -0.000905 0.002861 -0.623854
14  3.859677 -0.138418 1.332379  -0.235831 0.317274 -1.342437
15  1.719448 -0.000017 0.000028  0.001902 0.001157 -0.067177
16  1.099675 0.000048 0.000006  -0.000943 0.002399 -0.620101
17  0.020621 -0.848310 1.563299  -1.045336 -0.389272 -0.255018
18  1.789818 -0.000005 -0.000017  -0.006334 0.000661 0.184289
19  1.207017 -0.000013 -0.000044  -0.005682 -0.007385 -0.065074
20  5.740635 0.000389 -0.000699  -0.100162 0.000003 0.000064
21  11.481174 0.000309 -0.000724  -0.078203 -0.058951 0.043912
22  6.027524 -0.000329 0.000201  1.475867 -0.028563 1.830896
23  0.000000 11.692099 -0.000008  -0.512964 -0.113854 -0.427783
24  0.000003 0.000008 -0.000001  -0.121332 -0.000031 1.570739
25  0.000000 -0.000012 -0.000001  0.868960 0.000002 1.570712
26  -6.899342 -10.734701 0.826813  1.473120 1.855075 -0.198639
27  6.027518 -0.000263 -0.000215  1.594403 1.309671 -0.662434
28  11.691991 0.000161 0.000860  0.139882 0.000011 -0.874700
29  11.480644 0.000089 0.000817  -1.303018 0.531924 0.456086
30  3.710773 -0.434234 1.096848  0.966311 -0.027609 -1.956549
31  1.312560 0.000031 0.000000  0.008191 -0.088214 -0.285514
32  0.729347 0.000066 -0.000027  -0.132450 -0.134191 -1.087309
33  3.820805 -0.154608 0.327899  0.593871 -0.205061 -1.572645
34  1.539095 0.000003 -0.000001  0.047162 -0.047589 -0.892209
35  1.196303 0.000080 -0.000004  -0.021079 -0.009374 -1.253100
36  3.882446 -0.171892 -0.416804  0.390739 -0.262224 -1.203021
37  1.719565 -0.000083 -0.000004  0.018695 -0.082922 -1.374417
38  1.209194 0.000033 0.000011  0.003361 -0.003782 -0.857658
39  3.859585 -0.149081 -1.331323  -0.075574 -0.222032 -0.316789
40  1.719413 -0.000097 -0.000037  0.034832 0.005064 -1.284467
41  1.099673 0.000023 0.000006  -0.004978 -0.008087 -0.691053
42  0.230503 -0.805066 -1.086893  1.111612 0.594062 -0.578210
43  1.789780 -0.000007 -0.000042  -0.089312 -0.070323 0.368341
44  1.206996 -0.000006 0.000005  0.000678 -0.214508 0.376132
45  5.740572 0.000079 0.000721  0.078834 -0.000014 0.000028
46  11.481073 0.000091 0.000908  0.030787 0.093726 0.064228
47  6.027515 -0.000273 -0.000229  -1.365674 -0.162761 -1.571783
48  -0.000002 11.691976 -0.000008  -0.637748 0.177841 0.527459
49  0.000002 0.000000 0.000000  2.412441 -0.000036 1.570860
50  -0.000008 -0.000013 0.000005  2.272645 -0.000036 1.570861
51  -2.459775 -9.031035 -5.072144  -0.146112 -2.881566 1.250122
52  -0.000000 0.000000 0.000000  0.008153 -0.000259 0.000009
53  0.000000 0.000000 -0.000000  1.565115 0.043565 -0.106862
54  0.162101 -10.769714 -5.775815  -0.515502 -0.033641 -1.909053
55  -0.000001 0.000000 0.000000  0.000000 -0.000001 -0.000002
56  0.000030 0.000029 0.000002  -1.571901 -0.044449 -0.106509
57  12.000549 -19.544212 -17.246658  1.570796 -0.000000 0.000000
58  -15.417984 4.000748 -22.641926  1.570796 -0.000000 0.000000
59  1.941978 9.263218 -8.327020  1.570796 -0.000000 0.000000
60  -0.004311 0.001229 -0.000372  0.006898 -0.005534 -0.284229
61  0.826810 11.791080 -4.879054  1.570796 -0.000000 0.000000
62  0.000000 0.000000 0.000000  -0.078727 -3.136056 0.284226
63  -1.922894 -1.786657 -0.762634  1.571173 0.000365 0.000212
64  -1.906130 -11.111110 -3.871443  1.571665 -0.002762 0.003832
65  -0.022960 1.363687 2.942974  -0.000000 0.000000 -0.000000
66  -0.023072 2.412898 7.714152  -0.000000 0.000000 -0.000000
67  0.116721 0.753963 1.014465  -0.000000 0.000000 -0.000000
68  0.000000 2.151127 0.903719  -0.000000 0.000000 -0.000000
69  -0.022961 1.645013 0.528370  -1.134464 -0.000000 -0.000000
70  0.597054 1.495772 2.359359  0.168371 0.000000 -0.000000
71  -1.909529 -11.629490 -1.921422  1.571665 -0.002762 0.003832
72  -0.031014 0.123524 0.801847  -0.000000 0.000000 0.000000
73  0.060613 -0.165296 0.765401  -0.000000 0.000000 0.000000
time 18
0  0.000006 0.000000 0.000000  -1.570800 -1.391899 -1.570792
1  -9.841317 -7.634221 1.937669  -1.544956 -1.855077 -0.198630
2  6.027525 -0.000329 0.000190  0.583010 -1.471256 -2.596777
3  11.692114 0.000645 -0.000739  -0.990385 0.000007 -0.691092
4  11.480832 0.000642 -0.000359  1.104305 -0.323156 0.364227
5  3.666626 -0.163904 -1.204802  -0.519250 0.086737 -1.532179
6  1.312589 0.000011 0.000008  -0.003664 0.023357 -0.272237
7  0.729356 0.000054 0.000049  -0.003677 0.000626 -0.150723
8  3.942141 0.046331 -0.431542  -0.205965 0.132196 -1.449654
9  1.539110 0.000083 0.000004  -0.000570 0.007396 -0.283198
10  1.196334 0.000145 0.000028  -0.000713 0.000161 -0.519018
11  3.883510 -0.047213 0.431352  -0.042690 0.198097 -1.260493
12  1.719573 -0.000029 0.000017  -0.000644 0.003280 -0.404344
13  1.209179 0.000091 0.000012  -0.000905 0.002861 -0.623853
14  3.859676 -0.138418 1.332380  -0.235831 0.317274 -1.342437
15  1.719448 -0.000017 0.000029  0.001902 0.001157 -0.067177
16  1.099675 0.000048 0.000006  -0.000943 0.002399 -0.620101
17  0.020620 -0.848310 1.563300  -1.045336 -0.389272 -0.255018
18  1.789818 -0.000005 -0.000017  -0.006334 0.000661 0.184289
19  1.207016 -0.000012 -0.000044  -0.005682 -0.007385 -0.065074
20  5.740635 0.000389 -0.000700  -0.100244 0.000003 0.000063
21  11.481175 0.000308 -0.000724  -0.078483 -0.058492 0.043778
22  6.027524 -0.000329 0.000201  1.475275 -0.028119 1.831003
23  0.000001 11.692098 -0.000008  -0.512005 -0.113420 -0.427007
24  0.000002 0.000008 0.000000  -0.121332 -0.000031 1.570739
25  0.000000 -0.000011 -0.000000  0.868960 0.000002 1.570712
26  -6.899342 -10.734701 0.826813  1.473120 1.855075 -0.198639
27  6.027518 -0.000263 -0.000215  1.594658 1.309727 -0.662216
28  11.691994 0.000162 0.000859  0.139882 0.000011 -0.874813
29  11.480644 0.000087 0.000817  -1.304420 0.533537 0.456366
30  3.710775 -0.434234 1.096848  0.966311 -0.027609 -1.956549
31  1.312561 0.000032 -0.000000  0.008191 -0.088214 -0.285514
32  0.729347 0.000065 -0.000026  -0.132450 -0.134191 -1.087309
33  3.820807 -0.154609 0.327899  0.593871 -0.205061 -1.572645
34  1.539096 0.000003 -0.000001  0.047162 -0.047589 -0.892209
35  1.196301 0.000081 -0.000004  -0.021079 -0.009374 -1.253100
36  3.882446 -0.171892 -0.416805  0.390739 -0.262224 -1.203021
37  1.719566 -0.000084 -0.000004  0.018695 -0.082922 -1.374417
38  1.209194 0.000034 0.000012  0.003361 -0.003782 -0.857658
39  3.859585 -0.149081 -1.331322  -0.075574 -0.222032 -0.316789
40  1.719411 -0.000097 -0.000037  0.034832 0.005064 -1.284467
41  1.099673 0.000024 0.000006  -0.004977 -0.008087 -0.691053
42  0.230504 -0.805067 -1.086893  1.111612 0.594062 -0.578210
43  1.789780 -0.000007 -0.000042  -0.089312 -0.070323 0.368341
44  1.206996 -0.000007 0.000005  0.000678 -0.214508 0.376132
45  5.740573 0.000079 0.000720  0.078619 -0.000014 0.000028
46  11.481074 0.000093 0.000909  0.030434 0.093989 0.064313
47  6.027515 -0.000273 -0.000229  -1.365678 -0.162674 -1.571811
48  -0.000002 11.691975 -0.000008  -0.637824 0.177885 0.527518
49  0.000003 -0.000000 0.000000  2.412441 -0.000036 1.570860
50  -0.000008 -0.000014 0.000005  2.272645 -0.000036 1.570861
51  -2.459714 -9.030269 -5.069412  -0.147142 -2.880996 1.248507
52  -0.000001 0.000000 0.000000  0.008153 -0.000259 0.000009
53  0.000000 0.000000 -0.000000  1.565115 0.043565 -0.106862
54  0.158096 -10.774031 -5.775636  -0.516488 -0.034228 -1.910899
55  0.000000 -0.000000 0.000000  0.000000 -0.000001 -0.000002
56  0.000031 0.000029 0.000001  -1.571901 -0.044449 -0.106509
57  12.000549 -19.544212 -17.246658  1.570796 -0.000000 0.000000
58  -15.417984 4.000748 -22.641926  1.570796 -0.000000 0.000000
59  1.941978 9.263218 -8.327020  1.570796 -0.000000 0.000000
60  -0.004311 0.001229 -0.000372  0.006898 -0.005534 -0.284229
61  0.826810 11.791080 -4.879054  1.570796 -0.000000 0.000000
62  0.000000 0.000000 0.000000  -0.078727 -3.136056 0.284226
63  -1.922894 -1.786657 -0.776915  1.571001 -0.000270 0.000115
64  -1.908629 -11.111110 -3.868862  1.571442 -0.001636 0.001952
65  -0.022960 1.363686 2.942972  0.000000 -0.000000 -0.000000
66  -0.023072 2.412897 7.714150  0.000000 -0.000000 -0.000000
67  0.116721 0.753962 1.014465  0.000000 -0.000000 -0.000000
68  0.000001 2.151127 0.903720  0.000000 -0.000000 -0.000000
69  -0.022961 1.645012 0.528371  -1.134464 -0.000000 -0.000000
70  0.597054 1.495772 2.359360  0.168371 -0.000000 -0.000000
71  -1.910808 -11.629044 -1.918721  1.571442 -0.001636 0.001952
72  -0.031014 0.123524 0.801846  0.000000 -0.000000 -0.000000
73  0.060613 -0.165296 0.765401  0.000000 0.000000 -0.000000
time 19
0  0.000006 0.000000 0.000000  -1.570800 -1.391899 -1.570792
1  -9.841317 -7.634221 1.937669  -1.544956 -1.855077 -0.198630
2  6.027525 -0.000329 0.000190  0.586806 -1.470943 -2.600415
3  11.692115 0.000646 -0.000738  -0.990385 0.000007 -0.690704
4  11.480834 0.000642 -0.000357  1.103416 -0.321858 0.363450
5  3.666629 -0.163903 -1.204801  -0.519250 0.086737 -1.532179
6  1.312589 0.000009 0.000008  -0.003664 0.023357 -0.272237
7  0.729356 0.000055 0.000049  -0.003677 0.000626 -0.150723
8  3.942142 0.046332 -0.431542  -0.205965 0.132197 -1.449654
9  1.539110 0.000083 0.000004  -0.000570 0.007396 -0.283198
10  1.196332 0.000146 0.000028  -0.000713 0.000161 -0.519018
11  3.883512 -0.047211 0.431352  -0.042690 0.198097 -1.260493
12  1.719573 -0.000028 0.000016  -0.000644 0.003280 -0.404344
13  1.209179 0.000090 0.000013  -0.000905 0.002861 -0.623853
14  3.859678 -0.138417 1.332380  -0.235831 0.317274 -1.342437
15  1.719448 -0.000018 0.000028  0.001902 0.001157 -0.067177
16  1.099675 0.000048 0.000006  -0.000943 0.002399 -0.620101
17  0.020621 -0.848309 1.563299  -1.045336 -0.389272 -0.255018
18  1.789818 -0.000005 -0.000017  -0.006334 0.000661 0.184289
19  1.207016 -0.000013 -0.000044  -0.005682 -0.007385 -0.065074
20  5.740636 0.000388 -0.000700  -0.100405 0.000003 0.000063
21  11.481176 0.000307 -0.000725  -0.078730 -0.058244 0.043644
22  6.027524 -0.000329 0.000201  1.474869 -0.027843 1.831154
23  -0.000001 11.692098 -0.000008  -0.511734 -0.113298 -0.426788
24  0.000003 0.000008 -0.000000  -0.121332 -0.000031 1.570739
25  -0.000000 -0.000011 -0.000001  0.868960 0.000002 1.570712
26  -6.899342 -10.734701 0.826813  1.473120 1.855075 -0.198639
27  6.027518 -0.000263 -0.000215  1.595450 1.309328 -0.661552
28  11.691993 0.000160 0.000859  0.139882 0.000011 -0.875872
29  11.480640 0.000087 0.000819  -1.305859 0.534724 0.456749
30  3.710775 -0.434235 1.096849  0.966311 -0.027609 -1.956549
31  1.312560 0.000030 -0.000000  0.008191 -0.088214 -0.285514
32  0.729347 0.000065 -0.000027  -0.132450 -0.134191 -1.087309
33  3.820807 -0.154609 0.327899  0.593871 -0.205061 -1.572645
34  1.539095 0.000004 -0.000002  0.047162 -0.047589 -0.892209
35  1.196301 0.000080 -0.000004  -0.021079 -0.009374 -1.253100
36  3.882447 -0.171892 -0.416804  0.390739 -0.262224 -1.203021
37  1.719565 -0.000082 -0.000005  0.018695 -0.082922 -1.374417
38  1.209193 0.000034 0.000011  0.003361 -0.003782 -0.857658
39  3.859586 -0.149082 -1.331322  -0.075574 -0.222032 -0.316789
40  1.719411 -0.000097 -0.000037  0.034832 0.005065 -1.284467
41  1.099672 0.000023 0.000006  -0.004978 -0.008087 -0.691053
42  0.230504 -0.805067 -1.086893  1.111612 0.594062 -0.578210
43  1.789780 -0.000008 -0.000042  -0.089312 -0.070323 0.368341
44  1.206994 -0.000007 0.000005  0.000678 -0.214508 0.376132
45  5.740573 0.000079 0.000721  0.078454 -0.000014 0.000028
46  11.481072 0.000091 0.000909  0.030092 0.094170 0.064434
47  6.027515 -0.000273 -0.000229  -1.365231 -0.162758 -1.571985
48  -0.000002 11.691974 -0.000008  -0.638533 0.178292 0.528076
49  0.000002 0.000000 0.000001  2.412441 -0.000036 1.570860
50  -0.000008 -0.000014 0.000005  2.272645 -0.000036 1.570861
51  -2.462772 -9.025057 -5.064875  -0.148108 -2.880240 1.247346
52  -0.000000 0.000000 0.000000  0.008153 -0.000259 0.000009
53  0.000001 0.000000 -0.000000  1.565115 0.043565 -0.106862
54  0.151780 -10.772805 -5.773307  -0.517408 -0.035001 -1.912277
55  0.000001 0.000000 0.000000  0.000000 -0.000001 -0.000002
56  0.000031 0.000029 0.000002  -1.571901 -0.044449 -0.106509
57  12.000549 -19.544212 -17.246658  1.570796 -0.000000 0.000000
58  -15.417984 4.000748 -22.641926  1.570796 -0.000000 0.000000
59  1.941978 9.263218 -8.327020  1.570796 -0.000000 0.000000
60  -0.004311 0.001229 -0.000372  0.006898 -0.005534 -0.284229
61  0.826810 11.791080 -4.879054  1.570796 -0.000000 0.000000
62  0.000000 0.000000 0.000000  -0.078727 -3.136056 0.284226
63  -1.922894 -1.786657 -0.785964  1.570857 -0.000135 0.000034
64  -1.913271 -11.106169 -3.864068  1.571023 -0.000511 0.000543
65  -0.022960 1.363686 2.942971  -0.000000 -0.000000 0.000000
66  -0.023072 2.412898 7.714148  -0.000000 -0.000000 0.000000
67  0.116720 0.753963 1.014464  -0.000000 -0.000000 0.000000
68  0.000000 2.151127 0.903717  -0.000000 -0.000000 0.000000
69  -0.022962 1.645013 0.528369  -1.134464 -0.000000 -0.000000
70  0.597054 1.495773 2.359356  0.168371 -0.000000 0.000000
71  -1.913987 -11.623279 -1.913707  1.571023 -0.000511 0.000543
72  -0.031014 0.123524 0.801847  -0.000000 -0.000000 0.000000
73  0.060612 -0.165296 0.765401  -0.000000 0.000000 0.000000
time 20
0  0.000006 0.000000 0.000000  -1.570800 -1.391899 -1.570792
1  -9.841317 -7.634221 1.937669  -1.544956 -1.855077 -0.198630
2  6.027525 -0.000329 0.000190  0.586645 -1.470920 -2.600155
3  11.692115 0.000645 -0.000740  -0.990385 0.000007 -0.691133
4  11.480831 0.000642 -0.000357  1.102908 -0.321665 0.363294
5  3.666628 -0.163903 -1.204801  -0.519250 0.086737 -1.532179
6  1.312589 0.000010 0.000008  -0.003664 0.023357 -0.272237
7  0.729355 0.000054 0.000049  -0.003677 0.000626 -0.150723
8  3.942141 0.046332 -0.431542  -0.205965 0.132196 -1.449654
9  1.539110 0.000083 0.000005  -0.000570 0.007396 -0.283198
10  1.196333 0.000145 0.000029  -0.000713 0.000161 -0.519018
11  3.883510 -0.047212 0.431351  -0.042690 0.198097 -1.260493
12  1.719573 -0.000026 0.000017  -0.000644 0.003280 -0.404344
13  1.209179 0.000091 0.000012  -0.000905 0.002861 -0.623854
14  3.859676 -0.138418 1.332380  -0.235831 0.317274 -1.342437
15  1.719448 -0.000016 0.000028  0.001902 0.001157 -0.067177
16  1.099675 0.000050 0.000006  -0.000943 0.002399 -0.620101
17  0.020619 -0.848310 1.563300  -1.045336 -0.389272 -0.255018
18  1.789819 -0.000004 -0.000017  -0.006334 0.000661 0.184288
19  1.207017 -0.000012 -0.000044  -0.005682 -0.007385 -0.065074
20  5.740635 0.000389 -0.000700  -0.100524 0.000003 0.000063
21  11.481174 0.000307 -0.000725  -0.078840 -0.058218 0.043601
22  6.027524 -0.000329 0.000201  1.474851 -0.027865 1.831254
23  -0.000001 11.692100 -0.000008  -0.512034 -0.113433 -0.427031
24  0.000003 0.000008 -0.000000  -0.121332 -0.000031 1.570739
25  -0.000001 -0.000011 -0.000000  0.868960 0.000002 1.570712
26  -6.899342 -10.734701 0.826813  1.473120 1.855075 -0.198639
27  6.027518 -0.000263 -0.000215  1.595876 1.308896 -0.661199
28  11.691991 0.000162 0.000859  0.139882 0.000011 -0.876884
29  11.480636 0.000085 0.000818  -1.306505 0.535203 0.457133
30  3.710775 -0.434234 1.096848  0.966311 -0.027609 -1.956549
31  1.312560 0.000031 -0.000001  0.008190 -0.088214 -0.285514
32  0.729347 0.000066 -0.000027  -0.132450 -0.134191 -1.087309
33  3.820806 -0.154608 0.327899  0.593871 -0.205061 -1.572645
34  1.539095 0.000004 -0.000002  0.047162 -0.047589 -0.892209
35  1.196302 0.000082 -0.000003  -0.021079 -0.009374 -1.253100
36  3.882446 -0.171892 -0.416804  0.390739 -0.262224 -1.203021
37  1.719565 -0.000082 -0.000005  0.018695 -0.082922 -1.374417
38  1.209194 0.000032 0.000012  0.003361 -0.003782 -0.857658
39  3.859585 -0.149081 -1.331322  -0.075574 -0.222032 -0.316789
40  1.719410 -0.000097 -0.000037  0.034832 0.005064 -1.284467
41  1.099673 0.000022 0.000006  -0.004978 -0.008087 -0.691053
42  0.230505 -0.805067 -1.086893  1.111612 0.594062 -0.578210
43  1.789780 -0.000007 -0.000042  -0.089312 -0.070323 0.368341
44  1.206996 -0.000006 0.000005  0.000678 -0.214508 0.376132
45  5.740573 0.000080 0.000721  0.078411 -0.000014 0.000028
46  11.481071 0.000091 0.000909  0.029934 0.094243 0.064531
47  6.027515 -0.000273 -0.000229  -1.364817 -0.162936 -1.572110
48  -0.000002 11.691975 -0.000008  -0.639212 0.178682 0.528609
49  0.000002 0.000000 0.000001  2.412441 -0.000036 1.570860
50  -0.000008 -0.000013 0.000005  2.272645 -0.000036 1.570861
51  -2.464756 -9.020089 -5.062485  -0.148535 -2.879863 1.246914
52  0.000001 -0.000000 -0.000000  0.008153 -0.000259 0.000009
53  0.000001 0.000000 -0.000000  1.565115 0.043565 -0.106862
54  0.148485 -10.769417 -5.771856  -0.517814 -0.035386 -1.912806
55  -0.000000 0.000000 0.000001  0.000000 -0.000001 -0.000002
56  0.000030 0.000029 0.000002  -1.571901 -0.044449 -0.106509
57  12.000549 -19.544212 -17.246658  1.570796 -0.000000 0.000000
58  -15.417984 4.000748 -22.641926  1.570796 -0.000000 0.000000
59  1.941978 9.263218 -8.327020  1.570796 -0.000000 0.000000
60  -0.004311 0.001229 -0.000372  0.006898 -0.005534 -0.284229
61  0.826810 11.791080 -4.879054  1.570796 -0.000000 0.000000
62  0.000000 0.000000 0.000000  -0.078727 -3.136056 0.284226
63  -1.922894 -1.786657 -0.789125  1.570796 -0.000000 0.000000
64  -1.915771 -11.101227 -3.861487  1.570796 -0.000000 0.000000
65  -0.022960 1.363687 2.942972  0.000000 -0.000000 0.000000
66  -0.023072 2.412897 7.714149  0.000000 -0.000000 0.000000
67  0.116720 0.753963 1.014464  0.000000 -0.000000 0.000000
68  0.000000 2.151127 0.903719  0.000000 -0.000000 0.000000
69  -0.022961 1.645012 0.528370  -1.134464 -0.000000 -0.000000
70  0.597054 1.495772 2.359359  0.168371 -0.000000 0.000000
71  -1.915770 -11.617895 -1.911009  1.570796 -0.000000 0.000000
72  -0.031014 0.123524 0.801847  0.000000 0.000000 0.000000
73  0.060613 -0.165296 0.765401  0.000000 0.000000 0.000000
end
