version 1
nodes
0 "ValveBiped.Bip01_Spine4" -1
1 "ValveBiped.Bip01_L_Clavicle" 0
2 "ValveBiped.Bip01_L_UpperArm" 1
3 "ValveBiped.Bip01_L_Forearm" 2
4 "ValveBiped.Bip01_L_Hand" 3
5 "ValveBiped.Bip01_L_Finger4" 4
6 "ValveBiped.Bip01_L_Finger41" 5
7 "ValveBiped.Bip01_L_Finger42" 6
8 "ValveBiped.Bip01_L_Finger3" 4
9 "ValveBiped.Bip01_L_Finger31" 8
10 "ValveBiped.Bip01_L_Finger32" 9
11 "ValveBiped.Bip01_L_Finger2" 4
12 "ValveBiped.Bip01_L_Finger21" 11
13 "ValveBiped.Bip01_L_Finger22" 12
14 "ValveBiped.Bip01_L_Finger1" 4
15 "ValveBiped.Bip01_L_Finger11" 14
16 "ValveBiped.Bip01_L_Finger12" 15
17 "ValveBiped.Bip01_L_Finger0" 4
18 "ValveBiped.Bip01_L_Finger01" 17
19 "ValveBiped.Bip01_L_Finger02" 18
20 "ValveBiped.Bip01_L_Ulna" 3
21 "ValveBiped.Bip01_L_Wrist" 3
22 "rig_l_upperarm" 1
23 "rig_l_forearm" 22
24 "rig_d_l_forearm" 23
25 "rig_d_l_upperarm" 22
26 "ValveBiped.Bip01_R_Clavicle" 0
27 "ValveBiped.Bip01_R_UpperArm" 26
28 "ValveBiped.Bip01_R_Forearm" 27
29 "ValveBiped.Bip01_R_Hand" 28
30 "ValveBiped.Bip01_R_Finger4" 29
31 "ValveBiped.Bip01_R_Finger41" 30
32 "ValveBiped.Bip01_R_Finger42" 31
33 "ValveBiped.Bip01_R_Finger3" 29
34 "ValveBiped.Bip01_R_Finger31" 33
35 "ValveBiped.Bip01_R_Finger32" 34
36 "ValveBiped.Bip01_R_Finger2" 29
37 "ValveBiped.Bip01_R_Finger21" 36
38 "ValveBiped.Bip01_R_Finger22" 37
39 "ValveBiped.Bip01_R_Finger1" 29
40 "ValveBiped.Bip01_R_Finger11" 39
41 "ValveBiped.Bip01_R_Finger12" 40
42 "ValveBiped.Bip01_R_Finger0" 29
43 "ValveBiped.Bip01_R_Finger01" 42
44 "ValveBiped.Bip01_R_Finger02" 43
45 "ValveBiped.Bip01_R_Ulna" 28
46 "ValveBiped.Bip01_R_Wrist" 28
47 "rig_r_upperarm" 26
48 "rig_r_forearm" 47
49 "rig_d_r_forearm" 48
50 "rig_d_r_upperarm" 47
51 "rig_r_hand" -1
52 "rig_d_r_hand" 51
53 "rig_d_r_wrist" 52
54 "rig_l_hand" -1
55 "rig_d_l_hand" 54
56 "rig_d_l_wrist" 54
57 "rig_l_pole" -1
58 "rig_r_pole" -1
59 "rig_l_clavicle" -1
60 "rig_d_l_clavicle" 59
61 "rig_r_clavicle" -1
62 "rig_d_r_clavicle" 61
63 "Camera" -1
64 "body" -1
65 "trigger" 64
66 "bolt" 64
67 "barrel" 64
68 "magrel" 64
69 "chandle" 64
70 "chandleb" 69
71 "mag" -1
72 "bullet1" 71
73 "bullet2" 71
74 "bullet3" 71
end
skeleton
time 0
0  0.000006 0.000000 0.000000  -1.570800 -1.391899 -1.570792
1  2.033349 1.000767 1.937657  -1.544956 -1.855077 -0.198630
2  6.027514 -0.000325 0.000204  -1.583287 0.045953 -0.585170
3  11.692119 0.000650 -0.000739  -0.000010 0.000002 -0.056694
4  11.481219 0.000162 -0.000727  1.576889 -0.106574 0.041971
5  3.859509 -0.142884 -1.192049  -0.468164 0.151540 -0.880272
6  1.312587 0.000012 0.000007  -0.000026 0.000045 -0.439738
7  0.729356 0.000059 0.000050  0.000017 0.000021 -0.244318
8  3.942143 0.046268 -0.431512  -0.151810 0.073212 -0.811101
9  1.539111 0.000082 0.000005  -0.000007 0.000021 -0.247841
10  1.196331 0.000147 0.000029  0.000012 0.000019 -0.430771
11  3.883505 -0.047275 0.431381  0.085898 0.021851 -0.587925
12  1.719576 -0.000027 0.000015  0.000015 0.005519 -0.366533
13  1.209176 0.000092 0.000012  0.000004 0.003092 -0.216437
14  3.859660 -0.138478 1.332410  0.354468 -0.042725 -0.531804
15  1.719451 -0.000012 0.000022  0.000029 0.004070 -0.363021
16  1.099672 0.000049 0.000005  0.000003 0.002579 -0.244381
17  0.805994 -0.349052 1.321253  -1.222687 -0.679194 -0.788886
18  1.789819 -0.000003 -0.000019  0.000012 -0.000024 0.228522
19  1.207017 -0.000014 -0.000042  0.000002 -0.000008 0.362858
20  5.740636 0.000410 -0.000702  0.003031 0.000003 0.000071
21  11.481256 0.000242 -0.000801  0.004951 0.000188 -0.001550
22  6.027524 -0.000330 0.000203  0.059594 -2.453120 -2.193920
23  0.000000 11.692098 -0.000007  -0.043319 -0.000838 -0.036615
24  0.000004 0.000007 -0.000000  0.868996 -0.000030 1.570739
25  -0.000000 -0.000011 -0.000001  0.868957 0.000002 1.570712
26  2.033355 1.000772 -1.937609  1.473120 1.855075 -0.198639
27  6.027507 -0.000258 -0.000241  1.596300 -0.235571 -0.625922
28  11.691986 0.000245 0.000856  -0.000051 -0.000000 -0.007083
29  13.719256 0.006211 0.000971  -1.520884 0.140537 -0.232800
30  3.859433 -0.132787 1.193062  0.466291 -0.158048 -0.878829
31  1.312557 0.000025 0.000000  0.000011 -0.000044 -0.439710
32  0.729345 0.000061 -0.000027  -0.000023 -0.000019 -0.244286
33  3.942042 0.050109 0.430997  0.150090 -0.079180 -0.810199
34  1.539097 0.000011 -0.000000  0.000010 -0.000008 -0.247820
35  1.196299 0.000074 -0.000004  -0.000007 -0.000009 -0.430782
36  3.883409 -0.050503 -0.431087  -0.085915 -0.026391 -0.587671
37  1.719566 -0.000079 -0.000004  -0.000006 -0.007962 -0.366483
38  1.209197 0.000036 0.000011  0.000002 -0.004460 -0.216413
39  3.859582 -0.149111 -1.331323  -0.354446 0.038580 -0.531963
40  1.719409 -0.000101 -0.000034  -0.000028 -0.006585 -0.363032
41  1.099677 0.000025 0.000006  0.000004 -0.004187 -0.244346
42  0.805975 -0.359855 -1.318339  1.221444 0.673631 -0.793566
43  1.789779 -0.000008 -0.000040  -0.000028 0.000031 0.228552
44  1.206997 -0.000007 0.000008  -0.000017 0.000020 0.362911
45  5.740572 0.000055 0.000722  0.074705 -0.000014 0.000021
46  11.928796 0.001277 0.000943  0.009210 0.006145 -0.057842
47  6.027514 -0.000273 -0.000237  0.298600 -0.654348 -2.381986
48  -0.000001 11.691973 -0.000006  -0.005420 0.000036 0.004582
49  0.000005 -0.000002 0.000000  2.272568 -0.000041 1.570856
50  -0.000007 -0.000015 0.000005  2.272644 -0.000030 1.570865
51  -23.076880 5.472656 -18.920809  -1.605366 2.379717 -0.041994
52  0.000003 0.000002 -0.000000  0.008153 -0.000259 0.000009
53  -0.000003 -0.000000 0.000000  1.565115 0.043565 -0.106862
54  22.676517 -0.984221 -17.554199  1.605712 0.761853 0.042358
55  0.000001 -0.000003 -0.000000  0.000000 -0.000000 -0.000002
56  0.000032 0.000027 0.000001  -1.571901 -0.044449 -0.106509
57  15.265023 8.339654 -8.787539  1.570796 -0.000000 0.000000
58  -15.265000 8.339654 -8.787539  1.570796 -0.000000 0.000000
59  1.941978 -1.346989 1.821586  1.570796 -0.000000 0.000000
60  -0.004311 0.001230 -0.000371  0.006898 -0.005534 -0.284229
61  -1.937603 -1.346625 1.822824  1.570796 -0.000000 0.000000
62  0.000000 0.000000 0.000000  -0.078727 -3.136056 0.284226
63  0.000000 0.000000 0.000000  1.570796 -0.000000 0.000000
64  -3.822340 -9.690889 -4.441203  1.570796 -0.000000 0.000000
65  -0.005933 -2.262813 -2.946503  0.000000 -0.000000 0.000000
66  -0.007405 -0.385017 0.112677  0.000000 -0.000000 0.000000
67  -0.007403 -0.398124 12.763615  0.000000 -0.000000 0.000000
68  -0.007406 -3.312297 -1.336578  0.000000 -0.000000 0.000000
69  -0.005934 0.810493 1.247789  0.000000 -0.000000 0.000000
70  0.000002 0.037560 1.926311  0.000000 -0.000000 0.000000
71  -3.844880 -10.158384 -7.403534  1.570796 -0.000000 0.000000
72  0.184183 1.994350 -0.809969  0.000000 -0.000000 0.000000
73  -0.114187 1.780464 -0.801675  0.000000 -0.000000 0.000000
74  0.076509 1.501416 -0.809969  0.000000 -0.000000 0.000000
end
triangles
gun_tex
0  -3.523722 -21.453451 -4.762027  0.970122 0.242619 0.000000  0.285399 0.532355 1 64 1.000000
0  -3.417166 -21.879519 -5.176911  0.970122 0.242619 0.000000  0.285327 0.532571 1 64 1.000000
0  -3.523722 -21.453451 -5.115391  0.970122 0.242619 0.000000  0.285327 0.532355 1 64 1.000000
gun_tex
0  -3.523722 -21.453451 -5.115391  0.485061 0.242617 -0.840150  0.285327 0.532355 1 64 1.000000
0  -3.829744 -21.879519 -5.415112  0.485061 0.242617 -0.840150  0.285255 0.532571 1 64 1.000000
0  -3.829743 -21.453451 -5.292073  0.485061 0.242617 -0.840150  0.285255 0.532355 1 64 1.000000
gun_tex
0  -3.829743 -21.453451 -5.292073  -0.485061 0.242618 -0.840150  0.285255 0.532355 1 64 1.000000
0  -4.242321 -21.879519 -5.176911  -0.485061 0.242618 -0.840150  0.285183 0.532571 1 64 1.000000
0  -4.135766 -21.453451 -5.115391  -0.485061 0.242618 -0.840150  0.285183 0.532355 1 64 1.000000
gun_tex
0  -4.135766 -21.453451 -5.115391  -0.970123 0.242615 0.000000  0.285183 0.532355 1 64 1.000000
0  -4.242321 -21.879519 -4.700507  -0.970123 0.242615 0.000000  0.285111 0.532571 1 64 1.000000
0  -4.135766 -21.453451 -4.762027  -0.970123 0.242615 0.000000  0.285111 0.532355 1 64 1.000000
gun_tex
0  -4.242321 -21.879519 -5.176911  -0.500002 0.000000 -0.866024  0.285183 0.532571 1 64 1.000000
0  -3.829744 -23.155952 -5.415112  -0.500002 0.000000 -0.866024  0.285255 0.532571 1 64 1.000000
0  -4.242321 -23.155952 -5.176911  -0.500002 0.000000 -0.866024  0.285183 0.532571 1 64 1.000000
gun_tex
0  -4.135766 -21.453451 -4.762027  -0.485060 0.242619 0.840150  0.285111 0.532355 1 64 1.000000
0  -3.829744 -21.879519 -4.462306  -0.485060 0.242619 0.840150  0.285039 0.532571 1 64 1.000000
0  -3.829744 -21.453451 -4.585346  -0.485060 0.242619 0.840150  0.285039 0.532355 1 64 1.000000
gun_tex
0  -3.829744 -21.453451 -4.585346  0.485059 0.242618 0.840151  0.285039 0.532355 1 64 1.000000
0  -3.417166 -21.879519 -4.700507  0.485059 0.242618 0.840151  0.284967 0.532571 1 64 1.000000
0  -3.523722 -21.453451 -4.762027  0.485059 0.242618 0.840151  0.284967 0.532355 1 64 1.000000
gun_tex
0  -3.829744 -22.928688 -4.681270  0.500002 -0.003453 -0.866017  0.285060 0.532272 1 64 1.000000
0  -4.053931 -23.287613 -4.809274  0.500002 -0.003453 -0.866017  0.285032 0.532221 1 64 1.000000
0  -4.052613 -22.905890 -4.810035  0.500002 -0.003453 -0.866017  0.285062 0.532222 1 64 1.000000
gun_tex
0  -4.049070 -21.879517 -4.812081  0.500002 -0.003451 -0.866017  0.285142 0.532223 1 64 1.000000
0  -3.829744 -22.143246 -4.684402  0.500002 -0.003451 -0.866017  0.285122 0.532271 1 64 1.000000
0  -4.049902 -22.120726 -4.811600  0.500002 -0.003451 -0.866017  0.285123 0.532223 1 64 1.000000
gun_tex
0  -4.050984 -22.434000 -4.810976  0.499996 -0.003451 -0.866021  0.285099 0.532222 1 64 1.000000
0  -3.829744 -22.301914 -4.683769  0.499996 -0.003451 -0.866021  0.285109 0.532271 1 64 1.000000
0  -3.829744 -22.456633 -4.683152  0.499996 -0.003451 -0.866021  0.285097 0.532271 1 64 1.000000
gun_tex
0  -4.052066 -22.747276 -4.810351  0.500006 -0.003452 -0.866015  0.285074 0.532222 1 64 1.000000
0  -3.829744 -22.615301 -4.682519  0.500006 -0.003452 -0.866015  0.285084 0.532271 1 64 1.000000
0  -3.829744 -22.770020 -4.681903  0.500006 -0.003452 -0.866015  0.285072 0.532271 1 64 1.000000
gun_tex
0  -3.829744 -23.155952 -5.415112  0.443077 -0.463371 -0.767444  0.285255 0.532571 1 64 1.000000
0  -3.486012 -23.287613 -5.137163  0.443077 -0.463371 -0.767444  0.285327 0.532571 1 64 1.000000
0  -3.829743 -23.287613 -5.335617  0.443077 -0.463371 -0.767444  0.285255 0.532571 1 64 1.000000
gun_tex
0  -3.829744 -22.967455 -4.462306  0.500004 0.000000 0.866023  0.285039 0.532571 1 64 1.000000
0  -3.417166 -23.155952 -4.700507  0.500004 0.000000 0.866023  0.284967 0.532571 1 64 1.000000
0  -3.417166 -22.925280 -4.700507  0.500004 0.000000 0.866023  0.284967 0.532571 1 64 1.000000
gun_tex
0  -3.417166 -21.879519 -4.700507  0.500001 0.000000 0.866025  0.284967 0.532571 1 64 1.000000
0  -3.829744 -22.182568 -4.462306  0.500001 0.000000 0.866025  0.285039 0.532571 1 64 1.000000
0  -3.417166 -22.140396 -4.700507  0.500001 0.000000 0.866025  0.284967 0.532571 1 64 1.000000
gun_tex
0  -3.417166 -22.298952 -4.700507  0.500000 0.000000 0.866025  0.284967 0.532571 1 64 1.000000
0  -3.829744 -22.495733 -4.462306  0.500000 0.000000 0.866025  0.285039 0.532571 1 64 1.000000
0  -3.417166 -22.453560 -4.700507  0.500000 0.000000 0.866025  0.284967 0.532571 1 64 1.000000
gun_tex
0  -3.417166 -22.612116 -4.700507  0.499989 0.000000 0.866032  0.284967 0.532571 1 64 1.000000
0  -3.829744 -22.808897 -4.462306  0.499989 0.000000 0.866032  0.285039 0.532571 1 64 1.000000
0  -3.417166 -22.766724 -4.700507  0.499989 0.000000 0.866032  0.284967 0.532571 1 64 1.000000
gun_tex
0  -4.242321 -22.505871 -4.898587  -1.000000 0.000000 -0.000002  0.285141 0.532571 1 64 1.000000
0  -4.242321 -22.192707 -4.898587  -1.000000 0.000000 -0.000002  0.285141 0.532571 1 64 1.000000
0  -4.242321 -21.879519 -5.176911  -1.000000 0.000000 -0.000002  0.285183 0.532571 1 64 1.000000
gun_tex
0  -3.829744 -21.879519 -5.415112  0.499999 0.000000 -0.866026  0.285255 0.532571 1 64 1.000000
0  -3.417166 -23.155952 -5.176911  0.499999 0.000000 -0.866026  0.285327 0.532571 1 64 1.000000
0  -3.829744 -23.155952 -5.415112  0.499999 0.000000 -0.866026  0.285255 0.532571 1 64 1.000000
gun_tex
0  -4.242321 -22.925280 -4.700507  -0.500008 0.000000 0.866021  0.285111 0.532571 1 64 1.000000
0  -3.829744 -23.155952 -4.462306  -0.500008 0.000000 0.866021  0.285039 0.532571 1 64 1.000000
0  -3.829744 -22.967455 -4.462306  -0.500008 0.000000 0.866021  0.285039 0.532571 1 64 1.000000
gun_tex
0  -3.829744 -21.879519 -4.462306  -0.499996 0.000000 0.866028  0.285039 0.532571 1 64 1.000000
0  -4.242321 -22.140396 -4.700507  -0.499996 0.000000 0.866028  0.285111 0.532571 1 64 1.000000
0  -3.829744 -22.182568 -4.462306  -0.499996 0.000000 0.866028  0.285039 0.532571 1 64 1.000000
gun_tex
0  -3.829744 -22.495733 -4.462306  -0.499989 0.000000 0.866032  0.285039 0.532571 1 64 1.000000
0  -4.242321 -22.298952 -4.700507  -0.499989 0.000000 0.866032  0.285111 0.532571 1 64 1.000000
0  -4.242321 -22.453560 -4.700507  -0.499989 0.000000 0.866032  0.285111 0.532571 1 64 1.000000
gun_tex
0  -3.829744 -22.808897 -4.462306  -0.500000 0.000000 0.866026  0.285039 0.532571 1 64 1.000000
0  -4.242321 -22.612116 -4.700507  -0.500000 0.000000 0.866026  0.285111 0.532571 1 64 1.000000
0  -4.242321 -22.766724 -4.700507  -0.500000 0.000000 0.866026  0.285111 0.532571 1 64 1.000000
gun_tex
0  -3.417166 -22.505871 -4.898587  1.000000 0.000000 -0.000016  0.285369 0.532571 1 64 1.000000
0  -3.417166 -22.585150 -4.852815  1.000000 0.000000 -0.000016  0.285376 0.532571 1 64 1.000000
0  -3.417166 -22.739759 -4.852815  1.000000 0.000000 -0.000016  0.285376 0.532571 1 64 1.000000
gun_tex
0  -4.051232 -22.505871 -4.898586  0.999994 -0.003453 0.000004  0.285108 0.532214 1 64 1.000000
0  -4.052314 -22.819036 -4.898586  0.999994 -0.003453 0.000004  0.285083 0.532213 1 64 1.000000
0  -4.053931 -23.287613 -5.068144  0.999994 -0.003453 0.000004  0.285075 0.532196 1 64 1.000000
gun_tex
0  -3.829744 -23.155952 -4.462306  -0.443075 -0.463373 0.767444  0.285039 0.532571 1 64 1.000000
0  -4.173475 -23.287613 -4.740255  -0.443075 -0.463373 0.767444  0.285111 0.532571 1 64 1.000000
0  -3.829744 -23.287613 -4.541802  -0.443075 -0.463373 0.767444  0.285039 0.532571 1 64 1.000000
gun_tex
0  -4.242321 -23.155952 -5.176911  -0.443076 -0.463374 -0.767442  0.285183 0.532571 1 64 1.000000
0  -3.829743 -23.287613 -5.335617  -0.443076 -0.463374 -0.767442  0.285255 0.532571 1 64 1.000000
0  -4.173475 -23.287613 -5.137163  -0.443076 -0.463374 -0.767442  0.285183 0.532571 1 64 1.000000
gun_tex
0  -3.417166 -23.155952 -5.176911  0.886161 -0.463377 0.000000  0.285327 0.532571 1 64 1.000000
0  -3.486012 -23.287613 -4.740255  0.886161 -0.463377 0.000000  0.285399 0.532571 1 64 1.000000
0  -3.486012 -23.287613 -5.137163  0.886161 -0.463377 0.000000  0.285327 0.532571 1 64 1.000000
gun_tex
0  -3.417166 -23.155952 -4.700507  0.443086 -0.463385 0.767430  0.284967 0.532571 1 64 1.000000
0  -3.829744 -23.287613 -4.541802  0.443086 -0.463385 0.767430  0.285039 0.532571 1 64 1.000000
0  -3.486012 -23.287613 -4.740255  0.443086 -0.463385 0.767430  0.284967 0.532571 1 64 1.000000
gun_tex
0  -4.242321 -23.155952 -4.700507  -0.886161 -0.463378 0.000001  0.285111 0.532571 1 64 1.000000
0  -4.173475 -23.287613 -5.137163  -0.886161 -0.463378 0.000001  0.285183 0.532571 1 64 1.000000
0  -4.173475 -23.287613 -4.740255  -0.886161 -0.463378 0.000001  0.285111 0.532571 1 64 1.000000
gun_tex
0  -3.699261 -21.453451 -5.014043  0.000000 1.000000 0.000004  0.285330 0.532269 1 64 1.000000
0  -3.523722 -21.453451 -4.762027  0.000000 1.000000 0.000004  0.285291 0.532350 1 64 1.000000
0  -3.523722 -21.453451 -5.115391  0.000000 1.000000 0.000004  0.285381 0.532299 1 64 1.000000
gun_tex
0  -3.829743 -21.453451 -5.089378  0.000000 1.000000 0.000000  0.285330 0.532225 1 64 1.000000
0  -3.523722 -21.453451 -5.115391  0.000000 1.000000 0.000000  0.285381 0.532299 1 64 1.000000
0  -3.829743 -21.453451 -5.292073  0.000000 1.000000 0.000000  0.285381 0.532195 1 64 1.000000
gun_tex
0  -3.960227 -21.453451 -5.014043  0.000000 1.000000 -0.000015  0.285291 0.532203 1 64 1.000000
0  -3.829743 -21.453451 -5.292073  0.000000 1.000000 -0.000015  0.285381 0.532195 1 64 1.000000
0  -4.135766 -21.453451 -5.115391  0.000000 1.000000 -0.000015  0.285291 0.532143 1 64 1.000000
gun_tex
0  -3.960227 -21.453451 -4.863375  0.000000 1.000000 0.000001  0.285253 0.532225 1 64 1.000000
0  -4.135766 -21.453451 -5.115391  0.000000 1.000000 0.000001  0.285291 0.532143 1 64 1.000000
0  -4.135766 -21.453451 -4.762027  0.000000 1.000000 0.000001  0.285202 0.532195 1 64 1.000000
gun_tex
0  -3.829744 -21.453451 -4.788040  0.000000 1.000000 0.000000  0.285253 0.532269 1 64 1.000000
0  -4.135766 -21.453451 -4.762027  0.000000 1.000000 0.000000  0.285202 0.532195 1 64 1.000000
0  -3.829744 -21.453451 -4.585346  0.000000 1.000000 0.000000  0.285202 0.532299 1 64 1.000000
gun_tex
0  -3.699261 -21.453451 -4.863375  0.000000 1.000000 0.000015  0.285291 0.532291 1 64 1.000000
0  -3.829744 -21.453451 -4.585346  0.000000 1.000000 0.000015  0.285202 0.532299 1 64 1.000000
0  -3.523722 -21.453451 -4.762027  0.000000 1.000000 0.000015  0.285291 0.532350 1 64 1.000000
gun_tex
0  -3.605556 -23.287613 -4.809274  0.000000 -1.000000 0.000000  0.285075 0.532297 1 64 1.000000
0  -3.486012 -23.287613 -5.137163  0.000000 -1.000000 0.000000  0.285165 0.532299 1 64 1.000000
0  -3.486012 -23.287613 -4.740255  0.000000 -1.000000 0.000000  0.285075 0.532350 1 64 1.000000
gun_tex
0  -3.605556 -23.287613 -5.068144  0.000000 -1.000000 0.000000  0.285119 0.532272 1 64 1.000000
0  -3.829743 -23.287613 -5.335617  0.000000 -1.000000 0.000000  0.285165 0.532195 1 64 1.000000
0  -3.486012 -23.287613 -5.137163  0.000000 -1.000000 0.000000  0.285165 0.532299 1 64 1.000000
gun_tex
0  -3.829743 -23.287613 -5.197579  0.000000 -1.000000 0.000000  0.285119 0.532221 1 64 1.000000
0  -4.173475 -23.287613 -5.137163  0.000000 -1.000000 0.000000  0.285075 0.532143 1 64 1.000000
0  -3.829743 -23.287613 -5.335617  0.000000 -1.000000 0.000000  0.285165 0.532195 1 64 1.000000
gun_tex
0  -4.053931 -23.287613 -5.068144  0.000000 -1.000000 -0.000006  0.285075 0.532196 1 64 1.000000
0  -4.173475 -23.287613 -4.740255  0.000000 -1.000000 -0.000006  0.284986 0.532195 1 64 1.000000
0  -4.173475 -23.287613 -5.137163  0.000000 -1.000000 -0.000006  0.285075 0.532143 1 64 1.000000
gun_tex
0  -4.053931 -23.287613 -4.809274  0.000000 -1.000000 0.000000  0.285032 0.532221 1 64 1.000000
0  -3.829744 -23.287613 -4.541802  0.000000 -1.000000 0.000000  0.284986 0.532299 1 64 1.000000
0  -4.173475 -23.287613 -4.740255  0.000000 -1.000000 0.000000  0.284986 0.532195 1 64 1.000000
gun_tex
0  -3.829744 -23.287613 -4.679840  0.000000 -1.000000 0.000000  0.285032 0.532272 1 64 1.000000
0  -3.486012 -23.287613 -4.740255  0.000000 -1.000000 0.000000  0.285075 0.532350 1 64 1.000000
0  -3.829744 -23.287613 -4.541802  0.000000 -1.000000 0.000000  0.284986 0.532299 1 64 1.000000
gun_tex
0  -3.606874 -22.905890 -4.810035  -0.499995 -0.003451 -0.866022  0.285105 0.532297 1 64 1.000000
0  -3.829744 -23.287613 -4.679840  -0.499995 -0.003451 -0.866022  0.285032 0.532272 1 64 1.000000
0  -3.829744 -22.928688 -4.681270  -0.499995 -0.003451 -0.866022  0.285060 0.532272 1 64 1.000000
gun_tex
0  -3.829744 -21.879517 -4.685453  -0.500003 -0.003451 -0.866017  0.285142 0.532270 1 64 1.000000
0  -3.609585 -22.120726 -4.811600  -0.500003 -0.003451 -0.866017  0.285165 0.532295 1 64 1.000000
0  -3.829744 -22.143246 -4.684402  -0.500003 -0.003451 -0.866017  0.285122 0.532271 1 64 1.000000
gun_tex
0  -3.829744 -22.456633 -4.683152  -0.499991 -0.003453 -0.866024  0.285097 0.532271 1 64 1.000000
0  -3.609037 -22.279339 -4.811284  -0.499991 -0.003453 -0.866024  0.285153 0.532295 1 64 1.000000
0  -3.608503 -22.434000 -4.810976  -0.499991 -0.003453 -0.866024  0.285141 0.532295 1 64 1.000000
gun_tex
0  -3.829744 -22.770020 -4.681903  -0.499990 -0.003451 -0.866024  0.285072 0.532271 1 64 1.000000
0  -3.607956 -22.592613 -4.810659  -0.499990 -0.003451 -0.866024  0.285129 0.532296 1 64 1.000000
0  -3.607422 -22.747276 -4.810351  -0.499990 -0.003451 -0.866024  0.285117 0.532296 1 64 1.000000
gun_tex
0  -3.609336 -22.192707 -4.898587  -0.999994 -0.003457 -0.000008  0.285174 0.532287 1 64 1.000000
0  -3.609611 -22.113430 -4.852815  -0.999994 -0.003457 -0.000008  0.285172 0.532291 1 64 1.000000
0  -3.610418 -21.879517 -5.065338  -0.999994 -0.003457 -0.000008  0.285224 0.532270 1 64 1.000000
gun_tex
0  -3.610418 -21.879517 -5.065338  -0.499995 -0.003452 0.866021  0.285224 0.532270 1 64 1.000000
0  -3.829743 -23.287613 -5.197579  -0.499995 -0.003452 0.866021  0.285119 0.532221 1 64 1.000000
0  -3.605556 -23.287613 -5.068144  -0.499995 -0.003452 0.866021  0.285119 0.532272 1 64 1.000000
gun_tex
0  -3.829744 -21.879517 -5.191966  0.499998 -0.003452 0.866020  0.285224 0.532223 1 64 1.000000
0  -4.053931 -23.287613 -5.068144  0.499998 -0.003452 0.866020  0.285075 0.532196 1 64 1.000000
0  -3.829743 -23.287613 -5.197579  0.499998 -0.003452 0.866020  0.285119 0.532221 1 64 1.000000
gun_tex
0  -3.829743 -21.453451 -5.089378  0.489473 -0.204129 0.847790  0.285330 0.532225 1 64 1.000000
0  -4.049069 -21.879517 -5.065337  0.489473 -0.204129 0.847790  0.285183 0.532199 1 64 1.000000
0  -3.829744 -21.879517 -5.191966  0.489473 -0.204129 0.847790  0.285224 0.532223 1 64 1.000000
gun_tex
0  -3.699261 -21.453451 -5.014043  -0.489473 -0.204131 0.847789  0.285330 0.532269 1 64 1.000000
0  -3.829744 -21.879517 -5.191966  -0.489473 -0.204131 0.847789  0.285224 0.532223 1 64 1.000000
0  -3.610418 -21.879517 -5.065338  -0.489473 -0.204131 0.847789  0.285224 0.532270 1 64 1.000000
gun_tex
0  -3.699261 -21.453451 -4.863375  -0.978944 -0.204128 0.000000  0.285291 0.532291 1 64 1.000000
0  -3.610418 -21.879517 -5.065338  -0.978944 -0.204128 0.000000  0.285224 0.532270 1 64 1.000000
0  -3.610418 -21.879517 -4.812081  -0.978944 -0.204128 0.000000  0.285183 0.532294 1 64 1.000000
gun_tex
0  -3.829744 -21.453451 -4.788040  -0.489470 -0.204131 -0.847791  0.285253 0.532269 1 64 1.000000
0  -3.610418 -21.879517 -4.812081  -0.489470 -0.204131 -0.847791  0.285183 0.532294 1 64 1.000000
0  -3.829744 -21.879517 -4.685453  -0.489470 -0.204131 -0.847791  0.285142 0.532270 1 64 1.000000
gun_tex
0  -3.960227 -21.453451 -5.014043  0.978944 -0.204127 0.000003  0.285291 0.532203 1 64 1.000000
0  -4.049070 -21.879517 -4.812081  0.978944 -0.204127 0.000003  0.285142 0.532223 1 64 1.000000
0  -4.049069 -21.879517 -5.065337  0.978944 -0.204127 0.000003  0.285183 0.532199 1 64 1.000000
gun_tex
0  -3.960227 -21.453451 -4.863375  0.489470 -0.204132 -0.847791  0.285253 0.532225 1 64 1.000000
0  -3.829744 -21.879517 -4.685453  0.489470 -0.204132 -0.847791  0.285142 0.532270 1 64 1.000000
0  -4.049070 -21.879517 -4.812081  0.489470 -0.204132 -0.847791  0.285142 0.532223 1 64 1.000000
gun_tex
0  -4.052040 -22.739759 -4.852815  0.000000 -0.500003 0.866024  0.285327 0.532355 1 64 1.000000
0  -4.242321 -22.819036 -4.898587  0.000000 -0.500003 0.866024  0.285399 0.532355 1 64 1.000000
0  -4.052314 -22.819036 -4.898586  0.000000 -0.500003 0.866024  0.285399 0.532355 1 64 1.000000
gun_tex
0  -3.607174 -22.819036 -4.898586  0.000000 -0.500021 0.866013  0.285399 0.532355 1 64 1.000000
0  -3.417166 -22.739759 -4.852815  0.000000 -0.500021 0.866013  0.285327 0.532571 1 64 1.000000
0  -3.607447 -22.739759 -4.852815  0.000000 -0.500021 0.866013  0.285327 0.532355 1 64 1.000000
gun_tex
0  -3.829744 -22.770020 -4.681903  0.000005 -0.984688 -0.174326  0.285312 0.532463 1 64 1.000000
0  -3.607422 -22.747276 -4.810351  0.000005 -0.984688 -0.174326  0.285324 0.532498 1 64 1.000000
0  -3.417166 -22.766724 -4.700507  0.000005 -0.984688 -0.174326  0.285313 0.532528 1 64 1.000000
gun_tex
0  -3.829744 -22.928688 -4.681270  0.000006 0.984692 0.174305  0.285055 0.532463 1 64 1.000000
0  -4.052613 -22.905890 -4.810035  0.000006 0.984692 0.174305  0.285043 0.532427 1 64 1.000000
0  -4.242321 -22.925280 -4.700507  0.000006 0.984692 0.174305  0.285053 0.532397 1 64 1.000000
gun_tex
0  -4.242321 -22.898314 -4.852815  0.000000 0.500007 0.866021  0.285039 0.532397 1 64 1.000000
0  -4.052314 -22.819036 -4.898586  0.000000 0.500007 0.866021  0.284967 0.532427 1 64 1.000000
0  -4.242321 -22.819036 -4.898587  0.000000 0.500007 0.866021  0.284967 0.532397 1 64 1.000000
gun_tex
0  -3.606900 -22.898314 -4.852815  0.000000 0.500003 0.866024  0.285039 0.532498 1 64 1.000000
0  -3.417166 -22.819036 -4.898586  0.000000 0.500003 0.866024  0.284967 0.532528 1 64 1.000000
0  -3.607174 -22.819036 -4.898586  0.000000 0.500003 0.866024  0.284967 0.532498 1 64 1.000000
gun_tex
0  -4.049878 -22.113430 -4.852815  0.000000 -0.499997 0.866027  0.285327 0.532355 1 64 1.000000
0  -4.242321 -22.192707 -4.898587  0.000000 -0.499997 0.866027  0.285399 0.532355 1 64 1.000000
0  -4.050151 -22.192707 -4.898586  0.000000 -0.499997 0.866027  0.285399 0.532355 1 64 1.000000
gun_tex
0  -3.417166 -22.113430 -4.852815  0.000000 -0.499999 0.866026  0.285327 0.532355 1 64 1.000000
0  -3.609336 -22.192707 -4.898587  0.000000 -0.499999 0.866026  0.285399 0.532355 1 64 1.000000
0  -3.417166 -22.192707 -4.898587  0.000000 -0.499999 0.866026  0.285399 0.532544 1 64 1.000000
gun_tex
0  -3.829744 -22.143246 -4.684402  -0.000005 -0.984684 -0.174347  0.285312 0.532463 1 64 1.000000
0  -3.609585 -22.120726 -4.811600  -0.000005 -0.984684 -0.174347  0.285324 0.532498 1 64 1.000000
0  -3.417166 -22.140396 -4.700507  -0.000005 -0.984684 -0.174347  0.285313 0.532528 1 64 1.000000
gun_tex
0  -3.829744 -22.301914 -4.683769  -0.000004 0.984687 0.174334  0.285055 0.532463 1 64 1.000000
0  -4.050451 -22.279339 -4.811284  -0.000004 0.984687 0.174334  0.285043 0.532428 1 64 1.000000
0  -4.242321 -22.298952 -4.700507  -0.000004 0.984687 0.174334  0.285053 0.532397 1 64 1.000000
gun_tex
0  -4.050151 -22.192707 -4.898586  0.000000 0.499980 0.866037  0.284967 0.532428 1 64 1.000000
0  -4.242321 -22.271986 -4.852815  0.000000 0.499980 0.866037  0.285039 0.532397 1 64 1.000000
0  -4.050425 -22.271986 -4.852815  0.000000 0.499980 0.866037  0.285039 0.532428 1 64 1.000000
gun_tex
0  -3.609062 -22.271986 -4.852815  0.000000 0.500024 0.866012  0.285039 0.532498 1 64 1.000000
0  -3.417166 -22.192707 -4.898587  0.000000 0.500024 0.866012  0.284967 0.532528 1 64 1.000000
0  -3.609336 -22.192707 -4.898587  0.000000 0.500024 0.866012  0.284967 0.532498 1 64 1.000000
gun_tex
0  -4.050959 -22.426594 -4.852815  0.000000 -0.500001 0.866025  0.285327 0.532355 1 64 1.000000
0  -4.242321 -22.505871 -4.898587  0.000000 -0.500001 0.866025  0.285399 0.532355 1 64 1.000000
0  -4.051232 -22.505871 -4.898586  0.000000 -0.500001 0.866025  0.285399 0.532355 1 64 1.000000
gun_tex
0  -3.417166 -22.426594 -4.852815  0.000000 -0.500003 0.866023  0.285327 0.532571 1 64 1.000000
0  -3.608255 -22.505871 -4.898586  0.000000 -0.500003 0.866023  0.285399 0.532355 1 64 1.000000
0  -3.417166 -22.505871 -4.898587  0.000000 -0.500003 0.866023  0.285399 0.532544 1 64 1.000000
gun_tex
0  -3.829744 -22.456633 -4.683152  -0.000001 -0.984682 -0.174361  0.285312 0.532463 1 64 1.000000
0  -3.608503 -22.434000 -4.810976  -0.000001 -0.984682 -0.174361  0.285324 0.532498 1 64 1.000000
0  -3.417166 -22.453560 -4.700507  -0.000001 -0.984682 -0.174361  0.285313 0.532528 1 64 1.000000
gun_tex
0  -3.829744 -22.615301 -4.682519  0.000001 0.984687 0.174334  0.285055 0.532463 1 64 1.000000
0  -4.051532 -22.592613 -4.810659  0.000001 0.984687 0.174334  0.285043 0.532427 1 64 1.000000
0  -4.242321 -22.612116 -4.700507  0.000001 0.984687 0.174334  0.285053 0.532397 1 64 1.000000
gun_tex
0  -4.051232 -22.505871 -4.898586  0.000000 0.500005 0.866022  0.284967 0.532427 1 64 1.000000
0  -4.242321 -22.585150 -4.852815  0.000000 0.500005 0.866022  0.285039 0.532397 1 64 1.000000
0  -4.051506 -22.585150 -4.852815  0.000000 0.500005 0.866022  0.285039 0.532427 1 64 1.000000
gun_tex
0  -3.417166 -22.505871 -4.898587  0.000000 0.500012 0.866019  0.284967 0.532528 1 64 1.000000
0  -3.607982 -22.585150 -4.852815  0.000000 0.500012 0.866019  0.285039 0.532498 1 64 1.000000
0  -3.417166 -22.585150 -4.852815  0.000000 0.500012 0.866019  0.285039 0.532528 1 64 1.000000
gun_tex
0  -3.523722 -21.453451 -4.762027  0.970122 0.242618 0.000000  0.285399 0.532355 1 64 1.000000
0  -3.417166 -21.879519 -4.700507  0.970122 0.242618 0.000000  0.285399 0.532571 1 64 1.000000
0  -3.417166 -21.879519 -5.176911  0.970122 0.242618 0.000000  0.285327 0.532571 1 64 1.000000
gun_tex
0  -3.523722 -21.453451 -5.115391  0.485059 0.242617 -0.840152  0.285327 0.532355 1 64 1.000000
0  -3.417166 -21.879519 -5.176911  0.485059 0.242617 -0.840152  0.285327 0.532571 1 64 1.000000
0  -3.829744 -21.879519 -5.415112  0.485059 0.242617 -0.840152  0.285255 0.532571 1 64 1.000000
gun_tex
0  -3.829743 -21.453451 -5.292073  -0.485062 0.242620 -0.840149  0.285255 0.532355 1 64 1.000000
0  -3.829744 -21.879519 -5.415112  -0.485062 0.242620 -0.840149  0.285255 0.532571 1 64 1.000000
0  -4.242321 -21.879519 -5.176911  -0.485062 0.242620 -0.840149  0.285183 0.532571 1 64 1.000000
gun_tex
0  -4.135766 -21.453451 -5.115391  -0.970122 0.242619 0.000000  0.285183 0.532355 1 64 1.000000
0  -4.242321 -21.879519 -5.176911  -0.970122 0.242619 0.000000  0.285183 0.532571 1 64 1.000000
0  -4.242321 -21.879519 -4.700507  -0.970122 0.242619 0.000000  0.285111 0.532571 1 64 1.000000
gun_tex
0  -4.242321 -21.879519 -5.176911  -0.499999 0.000000 -0.866026  0.285183 0.532571 1 64 1.000000
0  -3.829744 -21.879519 -5.415112  -0.499999 0.000000 -0.866026  0.285255 0.532571 1 64 1.000000
0  -3.829744 -23.155952 -5.415112  -0.499999 0.000000 -0.866026  0.285255 0.532571 1 64 1.000000
gun_tex
0  -4.135766 -21.453451 -4.762027  -0.485062 0.242619 0.840150  0.285111 0.532355 1 64 1.000000
0  -4.242321 -21.879519 -4.700507  -0.485062 0.242619 0.840150  0.285111 0.532571 1 64 1.000000
0  -3.829744 -21.879519 -4.462306  -0.485062 0.242619 0.840150  0.285039 0.532571 1 64 1.000000
gun_tex
0  -3.829744 -21.453451 -4.585346  0.485064 0.242622 0.840147  0.285039 0.532355 1 64 1.000000
0  -3.829744 -21.879519 -4.462306  0.485064 0.242622 0.840147  0.285039 0.532571 1 64 1.000000
0  -3.417166 -21.879519 -4.700507  0.485064 0.242622 0.840147  0.284967 0.532571 1 64 1.000000
gun_tex
0  -3.829744 -22.928688 -4.681270  0.499993 -0.003451 -0.866023  0.285060 0.532272 1 64 1.000000
0  -3.829744 -23.287613 -4.679840  0.499993 -0.003451 -0.866023  0.285032 0.532272 1 64 1.000000
0  -4.053931 -23.287613 -4.809274  0.499993 -0.003451 -0.866023  0.285032 0.532221 1 64 1.000000
gun_tex
0  -4.049070 -21.879517 -4.812081  0.499994 -0.003452 -0.866022  0.285142 0.532223 1 64 1.000000
0  -3.829744 -21.879517 -4.685453  0.499994 -0.003452 -0.866022  0.285142 0.532270 1 64 1.000000
0  -3.829744 -22.143246 -4.684402  0.499994 -0.003452 -0.866022  0.285122 0.532271 1 64 1.000000
gun_tex
0  -4.050984 -22.434000 -4.810976  0.499991 -0.003456 -0.866024  0.285099 0.532222 1 64 1.000000
0  -4.050451 -22.279339 -4.811284  0.499991 -0.003456 -0.866024  0.285111 0.532223 1 64 1.000000
0  -3.829744 -22.301914 -4.683769  0.499991 -0.003456 -0.866024  0.285109 0.532271 1 64 1.000000
gun_tex
0  -4.052066 -22.747276 -4.810351  0.499991 -0.003451 -0.866024  0.285074 0.532222 1 64 1.000000
0  -4.051532 -22.592613 -4.810659  0.499991 -0.003451 -0.866024  0.285086 0.532222 1 64 1.000000
0  -3.829744 -22.615301 -4.682519  0.499991 -0.003451 -0.866024  0.285084 0.532271 1 64 1.000000
gun_tex
0  -3.829744 -23.155952 -5.415112  0.443079 -0.463376 -0.767440  0.285255 0.532571 1 64 1.000000
0  -3.417166 -23.155952 -5.176911  0.443079 -0.463376 -0.767440  0.285327 0.532571 1 64 1.000000
0  -3.486012 -23.287613 -5.137163  0.443079 -0.463376 -0.767440  0.285327 0.532571 1 64 1.000000
gun_tex
0  -3.829744 -22.967455 -4.462306  0.499998 0.000000 0.866027  0.285039 0.532571 1 64 1.000000
0  -3.829744 -23.155952 -4.462306  0.499998 0.000000 0.866027  0.285039 0.532571 1 64 1.000000
0  -3.417166 -23.155952 -4.700507  0.499998 0.000000 0.866027  0.284967 0.532571 1 64 1.000000
gun_tex
0  -3.417166 -21.879519 -4.700507  0.499997 0.000000 0.866027  0.284967 0.532571 1 64 1.000000
0  -3.829744 -21.879519 -4.462306  0.499997 0.000000 0.866027  0.285039 0.532571 1 64 1.000000
0  -3.829744 -22.182568 -4.462306  0.499997 0.000000 0.866027  0.285039 0.532571 1 64 1.000000
gun_tex
0  -3.417166 -22.298952 -4.700507  0.499995 0.000000 0.866028  0.284967 0.532571 1 64 1.000000
0  -3.829744 -22.341124 -4.462306  0.499995 0.000000 0.866028  0.285039 0.532571 1 64 1.000000
0  -3.829744 -22.495733 -4.462306  0.499995 0.000000 0.866028  0.285039 0.532571 1 64 1.000000
gun_tex
0  -3.417166 -22.612116 -4.700507  0.500006 0.000000 0.866022  0.284967 0.532571 1 64 1.000000
0  -3.829744 -22.654287 -4.462306  0.500006 0.000000 0.866022  0.285039 0.532571 1 64 1.000000
0  -3.829744 -22.808897 -4.462306  0.500006 0.000000 0.866022  0.285039 0.532571 1 64 1.000000
gun_tex
0  -4.242321 -22.426594 -4.852815  -1.000000 0.000000 0.000000  0.285134 0.532571 1 64 1.000000
0  -4.242321 -22.453560 -4.700507  -1.000000 0.000000 0.000000  0.285111 0.532571 1 64 1.000000
0  -4.242321 -22.298952 -4.700507  -1.000000 0.000000 0.000000  0.285111 0.532571 1 64 1.000000
gun_tex
0  -4.242321 -22.426594 -4.852815  -1.000000 0.000000 0.000000  0.285134 0.532571 1 64 1.000000
0  -4.242321 -22.298952 -4.700507  -1.000000 0.000000 0.000000  0.285111 0.532571 1 64 1.000000
0  -4.242321 -22.271986 -4.852815  -1.000000 0.000000 0.000000  0.285134 0.532571 1 64 1.000000
gun_tex
0  -4.242321 -22.505871 -4.898587  -1.000000 0.000000 0.000010  0.285141 0.532571 1 64 1.000000
0  -4.242321 -22.426594 -4.852815  -1.000000 0.000000 0.000010  0.285134 0.532571 1 64 1.000000
0  -4.242321 -22.271986 -4.852815  -1.000000 0.000000 0.000010  0.285134 0.532571 1 64 1.000000
gun_tex
0  -4.242321 -22.505871 -4.898587  -1.000000 0.000000 0.000010  0.285141 0.532571 1 64 1.000000
0  -4.242321 -22.271986 -4.852815  -1.000000 0.000000 0.000010  0.285134 0.532571 1 64 1.000000
0  -4.242321 -22.192707 -4.898587  -1.000000 0.000000 0.000010  0.285141 0.532571 1 64 1.000000
gun_tex
0  -4.242321 -22.766724 -4.700507  -1.000000 0.000000 0.000000  0.285111 0.532571 1 64 1.000000
0  -4.242321 -22.612116 -4.700507  -1.000000 0.000000 0.000000  0.285111 0.532571 1 64 1.000000
0  -4.242321 -22.739759 -4.852815  -1.000000 0.000000 0.000000  0.285134 0.532571 1 64 1.000000
gun_tex
0  -4.242321 -22.612116 -4.700507  -1.000000 0.000000 0.000000  0.285111 0.532571 1 64 1.000000
0  -4.242321 -22.585150 -4.852815  -1.000000 0.000000 0.000000  0.285134 0.532571 1 64 1.000000
0  -4.242321 -22.739759 -4.852815  -1.000000 0.000000 0.000000  0.285134 0.532571 1 64 1.000000
gun_tex
0  -4.242321 -22.819036 -4.898587  -1.000000 0.000000 0.000010  0.285141 0.532571 1 64 1.000000
0  -4.242321 -22.739759 -4.852815  -1.000000 0.000000 0.000010  0.285134 0.532571 1 64 1.000000
0  -4.242321 -22.585150 -4.852815  -1.000000 0.000000 0.000010  0.285134 0.532571 1 64 1.000000
gun_tex
0  -4.242321 -22.819036 -4.898587  -1.000000 0.000000 0.000010  0.285141 0.532571 1 64 1.000000
0  -4.242321 -22.585150 -4.852815  -1.000000 0.000000 0.000010  0.285134 0.532571 1 64 1.000000
0  -4.242321 -22.505871 -4.898587  -1.000000 0.000000 0.000010  0.285141 0.532571 1 64 1.000000
gun_tex
0  -4.242321 -23.155952 -4.700507  -1.000000 0.000000 0.000000  0.285111 0.532571 1 64 1.000000
0  -4.242321 -22.925280 -4.700507  -1.000000 0.000000 0.000000  0.285111 0.532571 1 64 1.000000
0  -4.242321 -22.898314 -4.852815  -1.000000 0.000000 0.000000  0.285134 0.532571 1 64 1.000000
gun_tex
0  -4.242321 -23.155952 -5.176911  -1.000000 -0.000002 0.000000  0.285183 0.532571 1 64 1.000000
0  -4.242321 -23.155952 -4.700507  -1.000000 -0.000002 0.000000  0.285111 0.532571 1 64 1.000000
0  -4.242321 -22.898314 -4.852815  -1.000000 -0.000002 0.000000  0.285134 0.532571 1 64 1.000000
gun_tex
0  -4.242321 -22.140396 -4.700507  -1.000000 0.000000 0.000000  0.285111 0.532571 1 64 1.000000
0  -4.242321 -21.879519 -4.700507  -1.000000 0.000000 0.000000  0.285111 0.532571 1 64 1.000000
0  -4.242321 -22.113430 -4.852815  -1.000000 0.000000 0.000000  0.285134 0.532571 1 64 1.000000
gun_tex
0  -4.242321 -21.879519 -4.700507  -1.000000 0.000002 0.000000  0.285111 0.532571 1 64 1.000000
0  -4.242321 -21.879519 -5.176911  -1.000000 0.000002 0.000000  0.285183 0.532571 1 64 1.000000
0  -4.242321 -22.113430 -4.852815  -1.000000 0.000002 0.000000  0.285134 0.532571 1 64 1.000000
gun_tex
0  -4.242321 -23.155952 -5.176911  -1.000000 0.000002 0.000003  0.285183 0.532571 1 64 1.000000
0  -4.242321 -22.898314 -4.852815  -1.000000 0.000002 0.000003  0.285134 0.532571 1 64 1.000000
0  -4.242321 -22.819036 -4.898587  -1.000000 0.000002 0.000003  0.285141 0.532571 1 64 1.000000
gun_tex
0  -4.242321 -23.155952 -5.176911  -1.000000 0.000000 -0.000002  0.285183 0.532571 1 64 1.000000
0  -4.242321 -22.819036 -4.898587  -1.000000 0.000000 -0.000002  0.285141 0.532571 1 64 1.000000
0  -4.242321 -22.505871 -4.898587  -1.000000 0.000000 -0.000002  0.285141 0.532571 1 64 1.000000
gun_tex
0  -4.242321 -22.192707 -4.898587  -1.000000 0.000000 0.000003  0.285141 0.532571 1 64 1.000000
0  -4.242321 -22.113430 -4.852815  -1.000000 0.000000 0.000003  0.285134 0.532571 1 64 1.000000
0  -4.242321 -21.879519 -5.176911  -1.000000 0.000000 0.000003  0.285183 0.532571 1 64 1.000000
gun_tex
0  -4.242321 -23.155952 -5.176911  -1.000000 0.000000 -0.000002  0.285183 0.532571 1 64 1.000000
0  -4.242321 -22.505871 -4.898587  -1.000000 0.000000 -0.000002  0.285141 0.532571 1 64 1.000000
0  -4.242321 -21.879519 -5.176911  -1.000000 0.000000 -0.000002  0.285183 0.532571 1 64 1.000000
gun_tex
0  -3.829744 -21.879519 -5.415112  0.500002 0.000000 -0.866024  0.285255 0.532571 1 64 1.000000
0  -3.417166 -21.879519 -5.176911  0.500002 0.000000 -0.866024  0.285327 0.532571 1 64 1.000000
0  -3.417166 -23.155952 -5.176911  0.500002 0.000000 -0.866024  0.285327 0.532571 1 64 1.000000
gun_tex
0  -4.242321 -22.925280 -4.700507  -0.499996 0.000000 0.866028  0.285111 0.532571 1 64 1.000000
0  -4.242321 -23.155952 -4.700507  -0.499996 0.000000 0.866028  0.285111 0.532571 1 64 1.000000
0  -3.829744 -23.155952 -4.462306  -0.499996 0.000000 0.866028  0.285039 0.532571 1 64 1.000000
gun_tex
0  -3.829744 -21.879519 -4.462306  -0.500001 0.000000 0.866025  0.285039 0.532571 1 64 1.000000
0  -4.242321 -21.879519 -4.700507  -0.500001 0.000000 0.866025  0.285111 0.532571 1 64 1.000000
0  -4.242321 -22.140396 -4.700507  -0.500001 0.000000 0.866025  0.285111 0.532571 1 64 1.000000
gun_tex
0  -3.829744 -22.495733 -4.462306  -0.500006 0.000000 0.866022  0.285039 0.532571 1 64 1.000000
0  -3.829744 -22.341124 -4.462306  -0.500006 0.000000 0.866022  0.285039 0.532571 1 64 1.000000
0  -4.242321 -22.298952 -4.700507  -0.500006 0.000000 0.866022  0.285111 0.532571 1 64 1.000000
gun_tex
0  -3.829744 -22.808897 -4.462306  -0.499995 0.000000 0.866028  0.285039 0.532571 1 64 1.000000
0  -3.829744 -22.654287 -4.462306  -0.499995 0.000000 0.866028  0.285039 0.532571 1 64 1.000000
0  -4.242321 -22.612116 -4.700507  -0.499995 0.000000 0.866028  0.285111 0.532571 1 64 1.000000
gun_tex
0  -3.417166 -22.898314 -4.852815  1.000000 0.000000 0.000005  0.285376 0.532571 1 64 1.000000
0  -3.417166 -22.925280 -4.700507  1.000000 0.000000 0.000005  0.285399 0.532571 1 64 1.000000
0  -3.417166 -23.155952 -4.700507  1.000000 0.000000 0.000005  0.285399 0.532571 1 64 1.000000
gun_tex
0  -3.417166 -21.879519 -5.176911  1.000000 0.000001 0.000000  0.285327 0.532571 1 64 1.000000
0  -3.417166 -21.879519 -4.700507  1.000000 0.000001 0.000000  0.285399 0.532571 1 64 1.000000
0  -3.417166 -22.113430 -4.852815  1.000000 0.000001 0.000000  0.285376 0.532571 1 64 1.000000
gun_tex
0  -3.417166 -21.879519 -4.700507  1.000000 0.000000 0.000005  0.285399 0.532571 1 64 1.000000
0  -3.417166 -22.140396 -4.700507  1.000000 0.000000 0.000005  0.285399 0.532571 1 64 1.000000
0  -3.417166 -22.113430 -4.852815  1.000000 0.000000 0.000005  0.285376 0.532571 1 64 1.000000
gun_tex
0  -3.417166 -22.898314 -4.852815  1.000000 -0.000002 0.000000  0.285376 0.532571 1 64 1.000000
0  -3.417166 -23.155952 -4.700507  1.000000 -0.000002 0.000000  0.285399 0.532571 1 64 1.000000
0  -3.417166 -23.155952 -5.176911  1.000000 -0.000002 0.000000  0.285327 0.532571 1 64 1.000000
gun_tex
0  -3.417166 -22.819036 -4.898586  1.000000 0.000000 -0.000002  0.285369 0.532571 1 64 1.000000
0  -3.417166 -22.898314 -4.852815  1.000000 0.000000 -0.000002  0.285376 0.532571 1 64 1.000000
0  -3.417166 -23.155952 -5.176911  1.000000 0.000000 -0.000002  0.285327 0.532571 1 64 1.000000
gun_tex
0  -3.417166 -21.879519 -5.176911  1.000000 -0.000004 -0.000006  0.285327 0.532571 1 64 1.000000
0  -3.417166 -22.113430 -4.852815  1.000000 -0.000004 -0.000006  0.285376 0.532571 1 64 1.000000
0  -3.417166 -22.192707 -4.898587  1.000000 -0.000004 -0.000006  0.285369 0.532571 1 64 1.000000
gun_tex
0  -3.417166 -22.271986 -4.852815  1.000000 0.000000 0.000005  0.285376 0.532571 1 64 1.000000
0  -3.417166 -22.298952 -4.700507  1.000000 0.000000 0.000005  0.285399 0.532571 1 64 1.000000
0  -3.417166 -22.426594 -4.852815  1.000000 0.000000 0.000005  0.285376 0.532571 1 64 1.000000
gun_tex
0  -3.417166 -22.298952 -4.700507  1.000000 0.000000 0.000005  0.285399 0.532571 1 64 1.000000
0  -3.417166 -22.453560 -4.700507  1.000000 0.000000 0.000005  0.285399 0.532571 1 64 1.000000
0  -3.417166 -22.426594 -4.852815  1.000000 0.000000 0.000005  0.285376 0.532571 1 64 1.000000
gun_tex
0  -3.417166 -21.879519 -5.176911  1.000000 0.000000 0.000000  0.285327 0.532571 1 64 1.000000
0  -3.417166 -22.192707 -4.898587  1.000000 0.000000 0.000000  0.285369 0.532571 1 64 1.000000
0  -3.417166 -22.505871 -4.898587  1.000000 0.000000 0.000000  0.285369 0.532571 1 64 1.000000
gun_tex
0  -3.417166 -22.192707 -4.898587  1.000000 0.000000 -0.000016  0.285369 0.532571 1 64 1.000000
0  -3.417166 -22.271986 -4.852815  1.000000 0.000000 -0.000016  0.285376 0.532571 1 64 1.000000
0  -3.417166 -22.505871 -4.898587  1.000000 0.000000 -0.000016  0.285369 0.532571 1 64 1.000000
gun_tex
0  -3.417166 -22.819036 -4.898586  1.000000 0.000001 -0.000005  0.285369 0.532571 1 64 1.000000
0  -3.417166 -23.155952 -5.176911  1.000000 0.000001 -0.000005  0.285327 0.532571 1 64 1.000000
0  -3.417166 -22.505871 -4.898587  1.000000 0.000001 -0.000005  0.285369 0.532571 1 64 1.000000
gun_tex
0  -3.417166 -23.155952 -5.176911  1.000000 0.000000 0.000000  0.285327 0.532571 1 64 1.000000
0  -3.417166 -21.879519 -5.176911  1.000000 0.000000 0.000000  0.285327 0.532571 1 64 1.000000
0  -3.417166 -22.505871 -4.898587  1.000000 0.000000 0.000000  0.285369 0.532571 1 64 1.000000
gun_tex
0  -3.417166 -22.612116 -4.700507  1.000000 0.000000 0.000005  0.285399 0.532571 1 64 1.000000
0  -3.417166 -22.766724 -4.700507  1.000000 0.000000 0.000005  0.285399 0.532571 1 64 1.000000
0  -3.417166 -22.739759 -4.852815  1.000000 0.000000 0.000005  0.285376 0.532571 1 64 1.000000
gun_tex
0  -3.417166 -22.739759 -4.852815  1.000000 0.000003 -0.000004  0.285376 0.532571 1 64 1.000000
0  -3.417166 -22.819036 -4.898586  1.000000 0.000003 -0.000004  0.285369 0.532571 1 64 1.000000
0  -3.417166 -22.505871 -4.898587  1.000000 0.000003 -0.000004  0.285369 0.532571 1 64 1.000000
gun_tex
0  -3.417166 -22.585150 -4.852815  1.000000 0.000000 0.000005  0.285376 0.532571 1 64 1.000000
0  -3.417166 -22.612116 -4.700507  1.000000 0.000000 0.000005  0.285399 0.532571 1 64 1.000000
0  -3.417166 -22.739759 -4.852815  1.000000 0.000000 0.000005  0.285376 0.532571 1 64 1.000000
gun_tex
0  -3.417166 -22.271986 -4.852815  1.000000 0.000000 -0.000016  0.285376 0.532571 1 64 1.000000
0  -3.417166 -22.426594 -4.852815  1.000000 0.000000 -0.000016  0.285376 0.532571 1 64 1.000000
0  -3.417166 -22.505871 -4.898587  1.000000 0.000000 -0.000016  0.285369 0.532571 1 64 1.000000
gun_tex
0  -4.051506 -22.585150 -4.852815  0.999994 -0.003457 -0.000001  0.285094 0.532218 1 64 1.000000
0  -4.051532 -22.592613 -4.810659  0.999994 -0.003457 -0.000001  0.285086 0.532222 1 64 1.000000
0  -4.052040 -22.739759 -4.852815  0.999994 -0.003457 -0.000001  0.285082 0.532218 1 64 1.000000
gun_tex
0  -4.051532 -22.592613 -4.810659  0.999994 -0.003450 -0.000005  0.285086 0.532222 1 64 1.000000
0  -4.052066 -22.747276 -4.810351  0.999994 -0.003450 -0.000005  0.285074 0.532222 1 64 1.000000
0  -4.052040 -22.739759 -4.852815  0.999994 -0.003450 -0.000005  0.285082 0.532218 1 64 1.000000
gun_tex
0  -4.051232 -22.505871 -4.898586  0.999994 -0.003453 -0.000002  0.285108 0.532214 1 64 1.000000
0  -4.051506 -22.585150 -4.852815  0.999994 -0.003453 -0.000002  0.285094 0.532218 1 64 1.000000
0  -4.052314 -22.819036 -4.898586  0.999994 -0.003453 -0.000002  0.285083 0.532213 1 64 1.000000
gun_tex
0  -4.051506 -22.585150 -4.852815  0.999994 -0.003453 0.000003  0.285094 0.532218 1 64 1.000000
0  -4.052040 -22.739759 -4.852815  0.999994 -0.003453 0.000003  0.285082 0.532218 1 64 1.000000
0  -4.052314 -22.819036 -4.898586  0.999994 -0.003453 0.000003  0.285083 0.532213 1 64 1.000000
gun_tex
0  -4.050451 -22.279339 -4.811284  0.999994 -0.003446 0.000005  0.285111 0.532223 1 64 1.000000
0  -4.050984 -22.434000 -4.810976  0.999994 -0.003446 0.000005  0.285099 0.532222 1 64 1.000000
0  -4.050959 -22.426594 -4.852815  0.999994 -0.003446 0.000005  0.285106 0.532218 1 64 1.000000
gun_tex
0  -4.050451 -22.279339 -4.811284  0.999994 -0.003453 0.000020  0.285111 0.532223 1 64 1.000000
0  -4.050959 -22.426594 -4.852815  0.999994 -0.003453 0.000020  0.285106 0.532218 1 64 1.000000
0  -4.050425 -22.271986 -4.852815  0.999994 -0.003453 0.000020  0.285118 0.532219 1 64 1.000000
gun_tex
0  -4.050959 -22.426594 -4.852815  0.999994 -0.003453 0.000003  0.285106 0.532218 1 64 1.000000
0  -4.051232 -22.505871 -4.898586  0.999994 -0.003453 0.000003  0.285108 0.532214 1 64 1.000000
0  -4.050425 -22.271986 -4.852815  0.999994 -0.003453 0.000003  0.285118 0.532219 1 64 1.000000
gun_tex
0  -4.050151 -22.192707 -4.898586  0.999994 -0.003449 -0.000009  0.285132 0.532214 1 64 1.000000
0  -4.050425 -22.271986 -4.852815  0.999994 -0.003449 -0.000009  0.285118 0.532219 1 64 1.000000
0  -4.051232 -22.505871 -4.898586  0.999994 -0.003449 -0.000009  0.285108 0.532214 1 64 1.000000
gun_tex
0  -4.049070 -21.879517 -4.812081  0.999994 -0.003452 -0.000010  0.285142 0.532223 1 64 1.000000
0  -4.049902 -22.120726 -4.811600  0.999994 -0.003452 -0.000010  0.285123 0.532223 1 64 1.000000
0  -4.049878 -22.113430 -4.852815  0.999994 -0.003452 -0.000010  0.285131 0.532219 1 64 1.000000
gun_tex
0  -4.049070 -21.879517 -4.812081  0.999994 -0.003459 0.000002  0.285142 0.532223 1 64 1.000000
0  -4.049878 -22.113430 -4.852815  0.999994 -0.003459 0.000002  0.285131 0.532219 1 64 1.000000
0  -4.049069 -21.879517 -5.065337  0.999994 -0.003459 0.000002  0.285183 0.532199 1 64 1.000000
gun_tex
0  -4.049878 -22.113430 -4.852815  0.999994 -0.003448 0.000002  0.285131 0.532219 1 64 1.000000
0  -4.050151 -22.192707 -4.898586  0.999994 -0.003448 0.000002  0.285132 0.532214 1 64 1.000000
0  -4.049069 -21.879517 -5.065337  0.999994 -0.003448 0.000002  0.285183 0.532199 1 64 1.000000
gun_tex
0  -4.052613 -22.905890 -4.810035  0.999994 -0.003452 -0.000010  0.285062 0.532222 1 64 1.000000
0  -4.053931 -23.287613 -4.809274  0.999994 -0.003452 -0.000010  0.285032 0.532221 1 64 1.000000
0  -4.052588 -22.898314 -4.852815  0.999994 -0.003452 -0.000010  0.285069 0.532218 1 64 1.000000
gun_tex
0  -4.053931 -23.287613 -4.809274  0.999994 -0.003452 0.000000  0.285032 0.532221 1 64 1.000000
0  -4.053931 -23.287613 -5.068144  0.999994 -0.003452 0.000000  0.285075 0.532196 1 64 1.000000
0  -4.052588 -22.898314 -4.852815  0.999994 -0.003452 0.000000  0.285069 0.532218 1 64 1.000000
gun_tex
0  -4.049069 -21.879517 -5.065337  0.999994 -0.003454 0.000005  0.285183 0.532199 1 64 1.000000
0  -4.050151 -22.192707 -4.898586  0.999994 -0.003454 0.000005  0.285132 0.532214 1 64 1.000000
0  -4.051232 -22.505871 -4.898586  0.999994 -0.003454 0.000005  0.285108 0.532214 1 64 1.000000
gun_tex
0  -4.052314 -22.819036 -4.898586  0.999994 -0.003451 0.000001  0.285083 0.532213 1 64 1.000000
0  -4.052588 -22.898314 -4.852815  0.999994 -0.003451 0.000001  0.285069 0.532218 1 64 1.000000
0  -4.053931 -23.287613 -5.068144  0.999994 -0.003451 0.000001  0.285075 0.532196 1 64 1.000000
gun_tex
0  -4.049069 -21.879517 -5.065337  0.999994 -0.003453 0.000002  0.285183 0.532199 1 64 1.000000
0  -4.051232 -22.505871 -4.898586  0.999994 -0.003453 0.000002  0.285108 0.532214 1 64 1.000000
0  -4.053931 -23.287613 -5.068144  0.999994 -0.003453 0.000002  0.285075 0.532196 1 64 1.000000
gun_tex
0  -3.829744 -23.155952 -4.462306  -0.443079 -0.463376 0.767440  0.285039 0.532571 1 64 1.000000
0  -4.242321 -23.155952 -4.700507  -0.443079 -0.463376 0.767440  0.285111 0.532571 1 64 1.000000
0  -4.173475 -23.287613 -4.740255  -0.443079 -0.463376 0.767440  0.285111 0.532571 1 64 1.000000
gun_tex
0  -4.242321 -23.155952 -5.176911  -0.443080 -0.463379 -0.767438  0.285183 0.532571 1 64 1.000000
0  -3.829744 -23.155952 -5.415112  -0.443080 -0.463379 -0.767438  0.285255 0.532571 1 64 1.000000
0  -3.829743 -23.287613 -5.335617  -0.443080 -0.463379 -0.767438  0.285255 0.532571 1 64 1.000000
gun_tex
0  -3.417166 -23.155952 -5.176911  0.886161 -0.463377 0.000000  0.285327 0.532571 1 64 1.000000
0  -3.417166 -23.155952 -4.700507  0.886161 -0.463377 0.000000  0.285399 0.532571 1 64 1.000000
0  -3.486012 -23.287613 -4.740255  0.886161 -0.463377 0.000000  0.285399 0.532571 1 64 1.000000
gun_tex
0  -3.417166 -23.155952 -4.700507  0.443076 -0.463371 0.767444  0.284967 0.532571 1 64 1.000000
0  -3.829744 -23.155952 -4.462306  0.443076 -0.463371 0.767444  0.285039 0.532571 1 64 1.000000
0  -3.829744 -23.287613 -4.541802  0.443076 -0.463371 0.767444  0.285039 0.532571 1 64 1.000000
gun_tex
0  -4.242321 -23.155952 -4.700507  -0.886163 -0.463373 0.000000  0.285111 0.532571 1 64 1.000000
0  -4.242321 -23.155952 -5.176911  -0.886163 -0.463373 0.000000  0.285183 0.532571 1 64 1.000000
0  -4.173475 -23.287613 -5.137163  -0.886163 -0.463373 0.000000  0.285183 0.532571 1 64 1.000000
gun_tex
0  -3.699261 -21.453451 -5.014043  0.000000 1.000000 0.000000  0.285330 0.532269 1 64 1.000000
0  -3.699261 -21.453451 -4.863375  0.000000 1.000000 0.000000  0.285291 0.532291 1 64 1.000000
0  -3.523722 -21.453451 -4.762027  0.000000 1.000000 0.000000  0.285291 0.532350 1 64 1.000000
gun_tex
0  -3.829743 -21.453451 -5.089378  0.000000 1.000000 0.000018  0.285330 0.532225 1 64 1.000000
0  -3.699261 -21.453451 -5.014043  0.000000 1.000000 0.000018  0.285330 0.532269 1 64 1.000000
0  -3.523722 -21.453451 -5.115391  0.000000 1.000000 0.000018  0.285381 0.532299 1 64 1.000000
gun_tex
0  -3.960227 -21.453451 -5.014043  0.000000 1.000000 0.000000  0.285291 0.532203 1 64 1.000000
0  -3.829743 -21.453451 -5.089378  0.000000 1.000000 0.000000  0.285330 0.532225 1 64 1.000000
0  -3.829743 -21.453451 -5.292073  0.000000 1.000000 0.000000  0.285381 0.532195 1 64 1.000000
gun_tex
0  -3.960227 -21.453451 -4.863375  0.000000 1.000000 0.000000  0.285253 0.532225 1 64 1.000000
0  -3.960227 -21.453451 -5.014043  0.000000 1.000000 0.000000  0.285291 0.532203 1 64 1.000000
0  -4.135766 -21.453451 -5.115391  0.000000 1.000000 0.000000  0.285291 0.532143 1 64 1.000000
gun_tex
0  -3.829744 -21.453451 -4.788040  0.000000 1.000000 0.000000  0.285253 0.532269 1 64 1.000000
0  -3.960227 -21.453451 -4.863375  0.000000 1.000000 0.000000  0.285253 0.532225 1 64 1.000000
0  -4.135766 -21.453451 -4.762027  0.000000 1.000000 0.000000  0.285202 0.532195 1 64 1.000000
gun_tex
0  -3.699261 -21.453451 -4.863375  0.000000 1.000000 0.000000  0.285291 0.532291 1 64 1.000000
0  -3.829744 -21.453451 -4.788040  0.000000 1.000000 0.000000  0.285253 0.532269 1 64 1.000000
0  -3.829744 -21.453451 -4.585346  0.000000 1.000000 0.000000  0.285202 0.532299 1 64 1.000000
gun_tex
0  -3.605556 -23.287613 -4.809274  0.000000 -1.000000 0.000000  0.285075 0.532297 1 64 1.000000
0  -3.605556 -23.287613 -5.068144  0.000000 -1.000000 0.000000  0.285119 0.532272 1 64 1.000000
0  -3.486012 -23.287613 -5.137163  0.000000 -1.000000 0.000000  0.285165 0.532299 1 64 1.000000
gun_tex
0  -3.605556 -23.287613 -5.068144  0.000000 -1.000000 0.000000  0.285119 0.532272 1 64 1.000000
0  -3.829743 -23.287613 -5.197579  0.000000 -1.000000 0.000000  0.285119 0.532221 1 64 1.000000
0  -3.829743 -23.287613 -5.335617  0.000000 -1.000000 0.000000  0.285165 0.532195 1 64 1.000000
gun_tex
0  -3.829743 -23.287613 -5.197579  0.000000 -1.000000 0.000000  0.285119 0.532221 1 64 1.000000
0  -4.053931 -23.287613 -5.068144  0.000000 -1.000000 0.000000  0.285075 0.532196 1 64 1.000000
0  -4.173475 -23.287613 -5.137163  0.000000 -1.000000 0.000000  0.285075 0.532143 1 64 1.000000
gun_tex
0  -4.053931 -23.287613 -5.068144  0.000000 -1.000000 0.000000  0.285075 0.532196 1 64 1.000000
0  -4.053931 -23.287613 -4.809274  0.000000 -1.000000 0.000000  0.285032 0.532221 1 64 1.000000
0  -4.173475 -23.287613 -4.740255  0.000000 -1.000000 0.000000  0.284986 0.532195 1 64 1.000000
gun_tex
0  -4.053931 -23.287613 -4.809274  0.000000 -1.000000 0.000020  0.285032 0.532221 1 64 1.000000
0  -3.829744 -23.287613 -4.679840  0.000000 -1.000000 0.000020  0.285032 0.532272 1 64 1.000000
0  -3.829744 -23.287613 -4.541802  0.000000 -1.000000 0.000020  0.284986 0.532299 1 64 1.000000
gun_tex
0  -3.829744 -23.287613 -4.679840  0.000000 -1.000000 0.000031  0.285032 0.532272 1 64 1.000000
0  -3.605556 -23.287613 -4.809274  0.000000 -1.000000 0.000031  0.285075 0.532297 1 64 1.000000
0  -3.486012 -23.287613 -4.740255  0.000000 -1.000000 0.000031  0.285075 0.532350 1 64 1.000000
gun_tex
0  -3.606874 -22.905890 -4.810035  -0.499995 -0.003451 -0.866021  0.285105 0.532297 1 64 1.000000
0  -3.605556 -23.287613 -4.809274  -0.499995 -0.003451 -0.866021  0.285075 0.532297 1 64 1.000000
0  -3.829744 -23.287613 -4.679840  -0.499995 -0.003451 -0.866021  0.285032 0.532272 1 64 1.000000
gun_tex
0  -3.829744 -21.879517 -4.685453  -0.499993 -0.003453 -0.866022  0.285142 0.532270 1 64 1.000000
0  -3.610418 -21.879517 -4.812081  -0.499993 -0.003453 -0.866022  0.285183 0.532294 1 64 1.000000
0  -3.609585 -22.120726 -4.811600  -0.499993 -0.003453 -0.866022  0.285165 0.532295 1 64 1.000000
gun_tex
0  -3.829744 -22.456633 -4.683152  -0.500000 -0.003453 -0.866019  0.285097 0.532271 1 64 1.000000
0  -3.829744 -22.301914 -4.683769  -0.500000 -0.003453 -0.866019  0.285109 0.532271 1 64 1.000000
0  -3.609037 -22.279339 -4.811284  -0.500000 -0.003453 -0.866019  0.285153 0.532295 1 64 1.000000
gun_tex
0  -3.829744 -22.770020 -4.681903  -0.500004 -0.003451 -0.866016  0.285072 0.532271 1 64 1.000000
0  -3.829744 -22.615301 -4.682519  -0.500004 -0.003451 -0.866016  0.285084 0.532271 1 64 1.000000
0  -3.607956 -22.592613 -4.810659  -0.500004 -0.003451 -0.866016  0.285129 0.532296 1 64 1.000000
gun_tex
0  -3.608529 -22.426594 -4.852815  -0.999994 -0.003455 0.000004  0.285148 0.532291 1 64 1.000000
0  -3.608503 -22.434000 -4.810976  -0.999994 -0.003455 0.000004  0.285141 0.532295 1 64 1.000000
0  -3.609037 -22.279339 -4.811284  -0.999994 -0.003455 0.000004  0.285153 0.532295 1 64 1.000000
gun_tex
0  -3.608529 -22.426594 -4.852815  -0.999994 -0.003448 -0.000003  0.285148 0.532291 1 64 1.000000
0  -3.609037 -22.279339 -4.811284  -0.999994 -0.003448 -0.000003  0.285153 0.532295 1 64 1.000000
0  -3.609062 -22.271986 -4.852815  -0.999994 -0.003448 -0.000003  0.285160 0.532291 1 64 1.000000
gun_tex
0  -3.608255 -22.505871 -4.898586  -0.999994 -0.003453 -0.000002  0.285150 0.532287 1 64 1.000000
0  -3.608529 -22.426594 -4.852815  -0.999994 -0.003453 -0.000002  0.285148 0.532291 1 64 1.000000
0  -3.609062 -22.271986 -4.852815  -0.999994 -0.003453 -0.000002  0.285160 0.532291 1 64 1.000000
gun_tex
0  -3.608255 -22.505871 -4.898586  -0.999994 -0.003451 0.000001  0.285150 0.532287 1 64 1.000000
0  -3.609062 -22.271986 -4.852815  -0.999994 -0.003451 0.000001  0.285160 0.532291 1 64 1.000000
0  -3.609336 -22.192707 -4.898587  -0.999994 -0.003451 0.000001  0.285174 0.532287 1 64 1.000000
gun_tex
0  -3.607422 -22.747276 -4.810351  -0.999994 -0.003450 -0.000005  0.285117 0.532296 1 64 1.000000
0  -3.607956 -22.592613 -4.810659  -0.999994 -0.003450 -0.000005  0.285129 0.532296 1 64 1.000000
0  -3.607447 -22.739759 -4.852815  -0.999994 -0.003450 -0.000005  0.285125 0.532292 1 64 1.000000
gun_tex
0  -3.607956 -22.592613 -4.810659  -0.999994 -0.003457 0.000005  0.285129 0.532296 1 64 1.000000
0  -3.607982 -22.585150 -4.852815  -0.999994 -0.003457 0.000005  0.285136 0.532292 1 64 1.000000
0  -3.607447 -22.739759 -4.852815  -0.999994 -0.003457 0.000005  0.285125 0.532292 1 64 1.000000
gun_tex
0  -3.607982 -22.585150 -4.852815  -0.999994 -0.003457 -0.000012  0.285136 0.532292 1 64 1.000000
0  -3.608255 -22.505871 -4.898586  -0.999994 -0.003457 -0.000012  0.285150 0.532287 1 64 1.000000
0  -3.607447 -22.739759 -4.852815  -0.999994 -0.003457 -0.000012  0.285125 0.532292 1 64 1.000000
gun_tex
0  -3.607174 -22.819036 -4.898586  -0.999994 -0.003453 0.000001  0.285126 0.532288 1 64 1.000000
0  -3.607447 -22.739759 -4.852815  -0.999994 -0.003453 0.000001  0.285125 0.532292 1 64 1.000000
0  -3.608255 -22.505871 -4.898586  -0.999994 -0.003453 0.000001  0.285150 0.532287 1 64 1.000000
gun_tex
0  -3.605556 -23.287613 -4.809274  -0.999994 -0.003449 0.000008  0.285075 0.532297 1 64 1.000000
0  -3.606874 -22.905890 -4.810035  -0.999994 -0.003449 0.000008  0.285105 0.532297 1 64 1.000000
0  -3.606900 -22.898314 -4.852815  -0.999994 -0.003449 0.000008  0.285113 0.532292 1 64 1.000000
gun_tex
0  -3.607174 -22.819036 -4.898586  -0.999994 -0.003453 0.000003  0.285126 0.532288 1 64 1.000000
0  -3.608255 -22.505871 -4.898586  -0.999994 -0.003453 0.000003  0.285150 0.532287 1 64 1.000000
0  -3.605556 -23.287613 -5.068144  -0.999994 -0.003453 0.000003  0.285119 0.532272 1 64 1.000000
gun_tex
0  -3.608255 -22.505871 -4.898586  -0.999994 -0.003452 0.000002  0.285150 0.532287 1 64 1.000000
0  -3.609336 -22.192707 -4.898587  -0.999994 -0.003452 0.000002  0.285174 0.532287 1 64 1.000000
0  -3.610418 -21.879517 -5.065338  -0.999994 -0.003452 0.000002  0.285224 0.532270 1 64 1.000000
gun_tex
0  -3.605556 -23.287613 -5.068144  -0.999994 -0.003453 -0.000001  0.285119 0.532272 1 64 1.000000
0  -3.608255 -22.505871 -4.898586  -0.999994 -0.003453 -0.000001  0.285150 0.532287 1 64 1.000000
0  -3.610418 -21.879517 -5.065338  -0.999994 -0.003453 -0.000001  0.285224 0.532270 1 64 1.000000
gun_tex
0  -3.605556 -23.287613 -4.809274  -0.999994 -0.003450 -0.000002  0.285075 0.532297 1 64 1.000000
0  -3.606900 -22.898314 -4.852815  -0.999994 -0.003450 -0.000002  0.285113 0.532292 1 64 1.000000
0  -3.605556 -23.287613 -5.068144  -0.999994 -0.003450 -0.000002  0.285119 0.532272 1 64 1.000000
gun_tex
0  -3.606900 -22.898314 -4.852815  -0.999994 -0.003454 0.000000  0.285113 0.532292 1 64 1.000000
0  -3.607174 -22.819036 -4.898586  -0.999994 -0.003454 0.000000  0.285126 0.532288 1 64 1.000000
0  -3.605556 -23.287613 -5.068144  -0.999994 -0.003454 0.000000  0.285119 0.532272 1 64 1.000000
gun_tex
0  -3.609585 -22.120726 -4.811600  -0.999994 -0.003452 0.000013  0.285165 0.532295 1 64 1.000000
0  -3.610418 -21.879517 -4.812081  -0.999994 -0.003452 0.000013  0.285183 0.532294 1 64 1.000000
0  -3.609611 -22.113430 -4.852815  -0.999994 -0.003452 0.000013  0.285172 0.532291 1 64 1.000000
gun_tex
0  -3.610418 -21.879517 -4.812081  -0.999994 -0.003451 0.000000  0.285183 0.532294 1 64 1.000000
0  -3.610418 -21.879517 -5.065338  -0.999994 -0.003451 0.000000  0.285224 0.532270 1 64 1.000000
0  -3.609611 -22.113430 -4.852815  -0.999994 -0.003451 0.000000  0.285172 0.532291 1 64 1.000000
gun_tex
0  -3.610418 -21.879517 -5.065338  -0.499997 -0.003453 0.866020  0.285224 0.532270 1 64 1.000000
0  -3.829744 -21.879517 -5.191966  -0.499997 -0.003453 0.866020  0.285224 0.532223 1 64 1.000000
0  -3.829743 -23.287613 -5.197579  -0.499997 -0.003453 0.866020  0.285119 0.532221 1 64 1.000000
gun_tex
0  -3.829744 -21.879517 -5.191966  0.499999 -0.003453 0.866019  0.285224 0.532223 1 64 1.000000
0  -4.049069 -21.879517 -5.065337  0.499999 -0.003453 0.866019  0.285183 0.532199 1 64 1.000000
0  -4.053931 -23.287613 -5.068144  0.499999 -0.003453 0.866019  0.285075 0.532196 1 64 1.000000
gun_tex
0  -3.829743 -21.453451 -5.089378  0.489470 -0.204130 0.847791  0.285330 0.532225 1 64 1.000000
0  -3.960227 -21.453451 -5.014043  0.489470 -0.204130 0.847791  0.285291 0.532203 1 64 1.000000
0  -4.049069 -21.879517 -5.065337  0.489470 -0.204130 0.847791  0.285183 0.532199 1 64 1.000000
gun_tex
0  -3.699261 -21.453451 -5.014043  -0.489472 -0.204130 0.847790  0.285330 0.532269 1 64 1.000000
0  -3.829743 -21.453451 -5.089378  -0.489472 -0.204130 0.847790  0.285330 0.532225 1 64 1.000000
0  -3.829744 -21.879517 -5.191966  -0.489472 -0.204130 0.847790  0.285224 0.532223 1 64 1.000000
gun_tex
0  -3.699261 -21.453451 -4.863375  -0.978944 -0.204129 0.000000  0.285291 0.532291 1 64 1.000000
0  -3.699261 -21.453451 -5.014043  -0.978944 -0.204129 0.000000  0.285330 0.532269 1 64 1.000000
0  -3.610418 -21.879517 -5.065338  -0.978944 -0.204129 0.000000  0.285224 0.532270 1 64 1.000000
gun_tex
0  -3.829744 -21.453451 -4.788040  -0.489469 -0.204129 -0.847792  0.285253 0.532269 1 64 1.000000
0  -3.699261 -21.453451 -4.863375  -0.489469 -0.204129 -0.847792  0.285291 0.532291 1 64 1.000000
0  -3.610418 -21.879517 -4.812081  -0.489469 -0.204129 -0.847792  0.285183 0.532294 1 64 1.000000
gun_tex
0  -3.960227 -21.453451 -5.014043  0.978944 -0.204128 0.000000  0.285291 0.532203 1 64 1.000000
0  -3.960227 -21.453451 -4.863375  0.978944 -0.204128 0.000000  0.285253 0.532225 1 64 1.000000
0  -4.049070 -21.879517 -4.812081  0.978944 -0.204128 0.000000  0.285142 0.532223 1 64 1.000000
gun_tex
0  -3.960227 -21.453451 -4.863375  0.489473 -0.204128 -0.847790  0.285253 0.532225 1 64 1.000000
0  -3.829744 -21.453451 -4.788040  0.489473 -0.204128 -0.847790  0.285253 0.532269 1 64 1.000000
0  -3.829744 -21.879517 -4.685453  0.489473 -0.204128 -0.847790  0.285142 0.532270 1 64 1.000000
gun_tex
0  -4.052040 -22.739759 -4.852815  0.000000 -0.500019 0.866015  0.285327 0.532355 1 64 1.000000
0  -4.242321 -22.739759 -4.852815  0.000000 -0.500019 0.866015  0.285327 0.532355 1 64 1.000000
0  -4.242321 -22.819036 -4.898587  0.000000 -0.500019 0.866015  0.285399 0.532355 1 64 1.000000
gun_tex
0  -3.607174 -22.819036 -4.898586  0.000000 -0.500004 0.866023  0.285399 0.532355 1 64 1.000000
0  -3.417166 -22.819036 -4.898586  0.000000 -0.500004 0.866023  0.285399 0.532526 1 64 1.000000
0  -3.417166 -22.739759 -4.852815  0.000000 -0.500004 0.866023  0.285327 0.532571 1 64 1.000000
gun_tex
0  -4.242321 -22.739759 -4.852815  0.000000 -0.984684 -0.174348  0.285327 0.532397 1 64 1.000000
0  -4.052040 -22.739759 -4.852815  0.000000 -0.984684 -0.174348  0.285327 0.532427 1 64 1.000000
0  -4.052066 -22.747276 -4.810351  0.000000 -0.984684 -0.174348  0.285324 0.532427 1 64 1.000000
gun_tex
0  -4.242321 -22.739759 -4.852815  0.000004 -0.984695 -0.174286  0.285327 0.532397 1 64 1.000000
0  -4.052066 -22.747276 -4.810351  0.000004 -0.984695 -0.174286  0.285324 0.532427 1 64 1.000000
0  -4.242321 -22.766724 -4.700507  0.000004 -0.984695 -0.174286  0.285313 0.532397 1 64 1.000000
gun_tex
0  -4.052066 -22.747276 -4.810351  -0.000005 -0.984681 -0.174363  0.285324 0.532427 1 64 1.000000
0  -3.829744 -22.770020 -4.681903  -0.000005 -0.984681 -0.174363  0.285312 0.532463 1 64 1.000000
0  -4.242321 -22.766724 -4.700507  -0.000005 -0.984681 -0.174363  0.285313 0.532397 1 64 1.000000
gun_tex
0  -3.829744 -22.808897 -4.462306  -0.000005 -0.984689 -0.174318  0.285292 0.532463 1 64 1.000000
0  -4.242321 -22.766724 -4.700507  -0.000005 -0.984689 -0.174318  0.285313 0.532397 1 64 1.000000
0  -3.829744 -22.770020 -4.681903  -0.000005 -0.984689 -0.174318  0.285312 0.532463 1 64 1.000000
gun_tex
0  -3.417166 -22.739759 -4.852815  -0.000004 -0.984695 -0.174286  0.285327 0.532528 1 64 1.000000
0  -3.417166 -22.766724 -4.700507  -0.000004 -0.984695 -0.174286  0.285313 0.532528 1 64 1.000000
0  -3.607422 -22.747276 -4.810351  -0.000004 -0.984695 -0.174286  0.285324 0.532498 1 64 1.000000
gun_tex
0  -3.417166 -22.766724 -4.700507  0.000005 -0.984683 -0.174352  0.285313 0.532528 1 64 1.000000
0  -3.829744 -22.808897 -4.462306  0.000005 -0.984683 -0.174352  0.285292 0.532463 1 64 1.000000
0  -3.829744 -22.770020 -4.681903  0.000005 -0.984683 -0.174352  0.285312 0.532463 1 64 1.000000
gun_tex
0  -3.607422 -22.747276 -4.810351  0.000000 -0.984687 -0.174331  0.285324 0.532498 1 64 1.000000
0  -3.607447 -22.739759 -4.852815  0.000000 -0.984687 -0.174331  0.285327 0.532498 1 64 1.000000
0  -3.417166 -22.739759 -4.852815  0.000000 -0.984687 -0.174331  0.285327 0.532528 1 64 1.000000
gun_tex
0  -4.052613 -22.905890 -4.810035  0.000000 0.984684 0.174352  0.285043 0.532427 1 64 1.000000
0  -4.052588 -22.898314 -4.852815  0.000000 0.984684 0.174352  0.285039 0.532427 1 64 1.000000
0  -4.242321 -22.898314 -4.852815  0.000000 0.984684 0.174352  0.285039 0.532397 1 64 1.000000
gun_tex
0  -4.242321 -22.898314 -4.852815  0.000010 0.984681 0.174364  0.285039 0.532397 1 64 1.000000
0  -4.242321 -22.925280 -4.700507  0.000010 0.984681 0.174364  0.285053 0.532397 1 64 1.000000
0  -4.052613 -22.905890 -4.810035  0.000010 0.984681 0.174364  0.285043 0.532427 1 64 1.000000
gun_tex
0  -4.242321 -22.925280 -4.700507  0.000006 0.984684 0.174348  0.285053 0.532397 1 64 1.000000
0  -3.829744 -22.967455 -4.462306  0.000006 0.984684 0.174348  0.285075 0.532463 1 64 1.000000
0  -3.829744 -22.928688 -4.681270  0.000006 0.984684 0.174348  0.285055 0.532463 1 64 1.000000
gun_tex
0  -3.829744 -22.967455 -4.462306  -0.000006 0.984685 0.174342  0.285075 0.532463 1 64 1.000000
0  -3.417166 -22.925280 -4.700507  -0.000006 0.984685 0.174342  0.285053 0.532528 1 64 1.000000
0  -3.829744 -22.928688 -4.681270  -0.000006 0.984685 0.174342  0.285055 0.532463 1 64 1.000000
gun_tex
0  -3.417166 -22.925280 -4.700507  -0.000010 0.984687 0.174333  0.285053 0.532528 1 64 1.000000
0  -3.417166 -22.898314 -4.852815  -0.000010 0.984687 0.174333  0.285039 0.532528 1 64 1.000000
0  -3.606874 -22.905890 -4.810035  -0.000010 0.984687 0.174333  0.285043 0.532498 1 64 1.000000
gun_tex
0  -3.829744 -22.928688 -4.681270  -0.000006 0.984688 0.174324  0.285055 0.532463 1 64 1.000000
0  -3.417166 -22.925280 -4.700507  -0.000006 0.984688 0.174324  0.285053 0.532528 1 64 1.000000
0  -3.606874 -22.905890 -4.810035  -0.000006 0.984688 0.174324  0.285043 0.532498 1 64 1.000000
gun_tex
0  -3.417166 -22.898314 -4.852815  0.000000 0.984683 0.174357  0.285039 0.532528 1 64 1.000000
0  -3.606900 -22.898314 -4.852815  0.000000 0.984683 0.174357  0.285039 0.532498 1 64 1.000000
0  -3.606874 -22.905890 -4.810035  0.000000 0.984683 0.174357  0.285043 0.532498 1 64 1.000000
gun_tex
0  -4.242321 -22.898314 -4.852815  0.000000 0.500011 0.866019  0.285039 0.532397 1 64 1.000000
0  -4.052588 -22.898314 -4.852815  0.000000 0.500011 0.866019  0.285039 0.532427 1 64 1.000000
0  -4.052314 -22.819036 -4.898586  0.000000 0.500011 0.866019  0.284967 0.532427 1 64 1.000000
gun_tex
0  -3.606900 -22.898314 -4.852815  0.000000 0.500010 0.866019  0.285039 0.532498 1 64 1.000000
0  -3.417166 -22.898314 -4.852815  0.000000 0.500010 0.866019  0.285039 0.532528 1 64 1.000000
0  -3.417166 -22.819036 -4.898586  0.000000 0.500010 0.866019  0.284967 0.532528 1 64 1.000000
gun_tex
0  -4.049878 -22.113430 -4.852815  0.000000 -0.499998 0.866027  0.285327 0.532355 1 64 1.000000
0  -4.242321 -22.113430 -4.852815  0.000000 -0.499998 0.866027  0.285327 0.532355 1 64 1.000000
0  -4.242321 -22.192707 -4.898587  0.000000 -0.499998 0.866027  0.285399 0.532355 1 64 1.000000
gun_tex
0  -3.417166 -22.113430 -4.852815  0.000000 -0.500020 0.866014  0.285327 0.532355 1 64 1.000000
0  -3.609611 -22.113430 -4.852815  0.000000 -0.500020 0.866014  0.285327 0.532355 1 64 1.000000
0  -3.609336 -22.192707 -4.898587  0.000000 -0.500020 0.866014  0.285399 0.532355 1 64 1.000000
gun_tex
0  -4.242321 -22.113430 -4.852815  0.000000 -0.984694 -0.174292  0.285327 0.532397 1 64 1.000000
0  -4.049878 -22.113430 -4.852815  0.000000 -0.984694 -0.174292  0.285327 0.532428 1 64 1.000000
0  -4.049902 -22.120726 -4.811600  0.000000 -0.984694 -0.174292  0.285324 0.532428 1 64 1.000000
gun_tex
0  -4.242321 -22.113430 -4.852815  0.000007 -0.984679 -0.174374  0.285327 0.532397 1 64 1.000000
0  -4.049902 -22.120726 -4.811600  0.000007 -0.984679 -0.174374  0.285324 0.532428 1 64 1.000000
0  -4.242321 -22.140396 -4.700507  0.000007 -0.984679 -0.174374  0.285313 0.532397 1 64 1.000000
gun_tex
0  -4.049902 -22.120726 -4.811600  0.000005 -0.984688 -0.174329  0.285324 0.532428 1 64 1.000000
0  -3.829744 -22.143246 -4.684402  0.000005 -0.984688 -0.174329  0.285312 0.532463 1 64 1.000000
0  -4.242321 -22.140396 -4.700507  0.000005 -0.984688 -0.174329  0.285313 0.532397 1 64 1.000000
gun_tex
0  -3.829744 -22.182568 -4.462306  0.000005 -0.984685 -0.174344  0.285292 0.532463 1 64 1.000000
0  -4.242321 -22.140396 -4.700507  0.000005 -0.984685 -0.174344  0.285313 0.532397 1 64 1.000000
0  -3.829744 -22.143246 -4.684402  0.000005 -0.984685 -0.174344  0.285312 0.532463 1 64 1.000000
gun_tex
0  -3.417166 -22.113430 -4.852815  -0.000007 -0.984679 -0.174375  0.285327 0.532528 1 64 1.000000
0  -3.417166 -22.140396 -4.700507  -0.000007 -0.984679 -0.174375  0.285313 0.532528 1 64 1.000000
0  -3.609585 -22.120726 -4.811600  -0.000007 -0.984679 -0.174375  0.285324 0.532498 1 64 1.000000
gun_tex
0  -3.417166 -22.140396 -4.700507  -0.000005 -0.984687 -0.174335  0.285313 0.532528 1 64 1.000000
0  -3.829744 -22.182568 -4.462306  -0.000005 -0.984687 -0.174335  0.285292 0.532463 1 64 1.000000
0  -3.829744 -22.143246 -4.684402  -0.000005 -0.984687 -0.174335  0.285312 0.532463 1 64 1.000000
gun_tex
0  -3.609585 -22.120726 -4.811600  0.000000 -0.984716 -0.174166  0.285324 0.532498 1 64 1.000000
0  -3.609611 -22.113430 -4.852815  0.000000 -0.984716 -0.174166  0.285327 0.532498 1 64 1.000000
0  -3.417166 -22.113430 -4.852815  0.000000 -0.984716 -0.174166  0.285327 0.532528 1 64 1.000000
gun_tex
0  -4.242321 -22.271986 -4.852815  -0.000001 0.984682 0.174360  0.285039 0.532397 1 64 1.000000
0  -4.242321 -22.298952 -4.700507  -0.000001 0.984682 0.174360  0.285053 0.532397 1 64 1.000000
0  -4.050451 -22.279339 -4.811284  -0.000001 0.984682 0.174360  0.285043 0.532428 1 64 1.000000
gun_tex
0  -4.242321 -22.298952 -4.700507  -0.000004 0.984686 0.174337  0.285053 0.532397 1 64 1.000000
0  -3.829744 -22.341124 -4.462306  -0.000004 0.984686 0.174337  0.285075 0.532463 1 64 1.000000
0  -3.829744 -22.301914 -4.683769  -0.000004 0.984686 0.174337  0.285055 0.532463 1 64 1.000000
gun_tex
0  -3.829744 -22.341124 -4.462306  0.000004 0.984688 0.174329  0.285075 0.532463 1 64 1.000000
0  -3.417166 -22.298952 -4.700507  0.000004 0.984688 0.174329  0.285053 0.532528 1 64 1.000000
0  -3.829744 -22.301914 -4.683769  0.000004 0.984688 0.174329  0.285055 0.532463 1 64 1.000000
gun_tex
0  -3.417166 -22.298952 -4.700507  0.000001 0.984688 0.174328  0.285053 0.532528 1 64 1.000000
0  -3.417166 -22.271986 -4.852815  0.000001 0.984688 0.174328  0.285039 0.532528 1 64 1.000000
0  -3.609037 -22.279339 -4.811284  0.000001 0.984688 0.174328  0.285043 0.532498 1 64 1.000000
gun_tex
0  -3.829744 -22.301914 -4.683769  0.000004 0.984683 0.174353  0.285055 0.532463 1 64 1.000000
0  -3.417166 -22.298952 -4.700507  0.000004 0.984683 0.174353  0.285053 0.532528 1 64 1.000000
0  -3.609037 -22.279339 -4.811284  0.000004 0.984683 0.174353  0.285043 0.532498 1 64 1.000000
gun_tex
0  -3.417166 -22.271986 -4.852815  0.000000 0.984685 0.174343  0.285039 0.532528 1 64 1.000000
0  -3.609062 -22.271986 -4.852815  0.000000 0.984685 0.174343  0.285039 0.532498 1 64 1.000000
0  -3.609037 -22.279339 -4.811284  0.000000 0.984685 0.174343  0.285043 0.532498 1 64 1.000000
gun_tex
0  -4.050451 -22.279339 -4.811284  0.000000 0.984697 0.174274  0.285043 0.532428 1 64 1.000000
0  -4.050425 -22.271986 -4.852815  0.000000 0.984697 0.174274  0.285039 0.532428 1 64 1.000000
0  -4.242321 -22.271986 -4.852815  0.000000 0.984697 0.174274  0.285039 0.532397 1 64 1.000000
gun_tex
0  -4.050151 -22.192707 -4.898586  0.000000 0.500017 0.866015  0.284967 0.532428 1 64 1.000000
0  -4.242321 -22.192707 -4.898587  0.000000 0.500017 0.866015  0.284967 0.532397 1 64 1.000000
0  -4.242321 -22.271986 -4.852815  0.000000 0.500017 0.866015  0.285039 0.532397 1 64 1.000000
gun_tex
0  -3.609062 -22.271986 -4.852815  0.000000 0.499992 0.866030  0.285039 0.532498 1 64 1.000000
0  -3.417166 -22.271986 -4.852815  0.000000 0.499992 0.866030  0.285039 0.532528 1 64 1.000000
0  -3.417166 -22.192707 -4.898587  0.000000 0.499992 0.866030  0.284967 0.532528 1 64 1.000000
gun_tex
0  -4.050959 -22.426594 -4.852815  0.000000 -0.500009 0.866020  0.285327 0.532355 1 64 1.000000
0  -4.242321 -22.426594 -4.852815  0.000000 -0.500009 0.866020  0.285327 0.532355 1 64 1.000000
0  -4.242321 -22.505871 -4.898587  0.000000 -0.500009 0.866020  0.285399 0.532355 1 64 1.000000
gun_tex
0  -3.417166 -22.426594 -4.852815  0.000000 -0.500004 0.866023  0.285327 0.532571 1 64 1.000000
0  -3.608529 -22.426594 -4.852815  0.000000 -0.500004 0.866023  0.285327 0.532355 1 64 1.000000
0  -3.608255 -22.505871 -4.898586  0.000000 -0.500004 0.866023  0.285399 0.532355 1 64 1.000000
gun_tex
0  -4.242321 -22.426594 -4.852815  0.000000 -0.984689 -0.174318  0.285327 0.532397 1 64 1.000000
0  -4.050959 -22.426594 -4.852815  0.000000 -0.984689 -0.174318  0.285327 0.532428 1 64 1.000000
0  -4.050984 -22.434000 -4.810976  0.000000 -0.984689 -0.174318  0.285324 0.532428 1 64 1.000000
gun_tex
0  -4.242321 -22.426594 -4.852815  0.000007 -0.984687 -0.174331  0.285327 0.532397 1 64 1.000000
0  -4.050984 -22.434000 -4.810976  0.000007 -0.984687 -0.174331  0.285324 0.532428 1 64 1.000000
0  -4.242321 -22.453560 -4.700507  0.000007 -0.984687 -0.174331  0.285313 0.532397 1 64 1.000000
gun_tex
0  -4.050984 -22.434000 -4.810976  0.000000 -0.984685 -0.174342  0.285324 0.532428 1 64 1.000000
0  -3.829744 -22.456633 -4.683152  0.000000 -0.984685 -0.174342  0.285312 0.532463 1 64 1.000000
0  -4.242321 -22.453560 -4.700507  0.000000 -0.984685 -0.174342  0.285313 0.532397 1 64 1.000000
gun_tex
0  -3.829744 -22.495733 -4.462306  0.000000 -0.984685 -0.174341  0.285292 0.532463 1 64 1.000000
0  -4.242321 -22.453560 -4.700507  0.000000 -0.984685 -0.174341  0.285313 0.532397 1 64 1.000000
0  -3.829744 -22.456633 -4.683152  0.000000 -0.984685 -0.174341  0.285312 0.532463 1 64 1.000000
gun_tex
0  -3.417166 -22.426594 -4.852815  -0.000007 -0.984687 -0.174331  0.285327 0.532528 1 64 1.000000
0  -3.417166 -22.453560 -4.700507  -0.000007 -0.984687 -0.174331  0.285313 0.532528 1 64 1.000000
0  -3.608503 -22.434000 -4.810976  -0.000007 -0.984687 -0.174331  0.285324 0.532498 1 64 1.000000
gun_tex
0  -3.417166 -22.453560 -4.700507  0.000000 -0.984687 -0.174333  0.285313 0.532528 1 64 1.000000
0  -3.829744 -22.495733 -4.462306  0.000000 -0.984687 -0.174333  0.285292 0.532463 1 64 1.000000
0  -3.829744 -22.456633 -4.683152  0.000000 -0.984687 -0.174333  0.285312 0.532463 1 64 1.000000
gun_tex
0  -3.608503 -22.434000 -4.810976  0.000000 -0.984694 -0.174291  0.285324 0.532498 1 64 1.000000
0  -3.608529 -22.426594 -4.852815  0.000000 -0.984694 -0.174291  0.285327 0.532498 1 64 1.000000
0  -3.417166 -22.426594 -4.852815  0.000000 -0.984694 -0.174291  0.285327 0.532528 1 64 1.000000
gun_tex
0  -3.829744 -22.654287 -4.462306  -0.000002 0.984688 0.174326  0.285075 0.532463 1 64 1.000000
0  -3.417166 -22.612116 -4.700507  -0.000002 0.984688 0.174326  0.285053 0.532528 1 64 1.000000
0  -3.829744 -22.615301 -4.682519  -0.000002 0.984688 0.174326  0.285055 0.532463 1 64 1.000000
gun_tex
0  -3.417166 -22.612116 -4.700507  0.000000 0.984690 0.174315  0.285053 0.532528 1 64 1.000000
0  -3.417166 -22.585150 -4.852815  0.000000 0.984690 0.174315  0.285039 0.532528 1 64 1.000000
0  -3.607956 -22.592613 -4.810659  0.000000 0.984690 0.174315  0.285043 0.532498 1 64 1.000000
gun_tex
0  -3.829744 -22.615301 -4.682519  -0.000001 0.984683 0.174353  0.285055 0.532463 1 64 1.000000
0  -3.417166 -22.612116 -4.700507  -0.000001 0.984683 0.174353  0.285053 0.532528 1 64 1.000000
0  -3.607956 -22.592613 -4.810659  -0.000001 0.984683 0.174353  0.285043 0.532498 1 64 1.000000
gun_tex
0  -3.417166 -22.585150 -4.852815  0.000000 0.984671 0.174421  0.285039 0.532528 1 64 1.000000
0  -3.607982 -22.585150 -4.852815  0.000000 0.984671 0.174421  0.285039 0.532498 1 64 1.000000
0  -3.607956 -22.592613 -4.810659  0.000000 0.984671 0.174421  0.285043 0.532498 1 64 1.000000
gun_tex
0  -4.242321 -22.585150 -4.852815  0.000000 0.984690 0.174315  0.285039 0.532397 1 64 1.000000
0  -4.242321 -22.612116 -4.700507  0.000000 0.984690 0.174315  0.285053 0.532397 1 64 1.000000
0  -4.051532 -22.592613 -4.810659  0.000000 0.984690 0.174315  0.285043 0.532427 1 64 1.000000
gun_tex
0  -4.242321 -22.612116 -4.700507  0.000002 0.984688 0.174325  0.285053 0.532397 1 64 1.000000
0  -3.829744 -22.654287 -4.462306  0.000002 0.984688 0.174325  0.285075 0.532463 1 64 1.000000
0  -3.829744 -22.615301 -4.682519  0.000002 0.984688 0.174325  0.285055 0.532463 1 64 1.000000
gun_tex
0  -4.051532 -22.592613 -4.810659  0.000000 0.984673 0.174411  0.285043 0.532427 1 64 1.000000
0  -4.051506 -22.585150 -4.852815  0.000000 0.984673 0.174411  0.285039 0.532427 1 64 1.000000
0  -4.242321 -22.585150 -4.852815  0.000000 0.984673 0.174411  0.285039 0.532397 1 64 1.000000
gun_tex
0  -4.051232 -22.505871 -4.898586  0.000000 0.499991 0.866030  0.284967 0.532427 1 64 1.000000
0  -4.242321 -22.505871 -4.898587  0.000000 0.499991 0.866030  0.284967 0.532397 1 64 1.000000
0  -4.242321 -22.585150 -4.852815  0.000000 0.499991 0.866030  0.285039 0.532397 1 64 1.000000
gun_tex
0  -3.417166 -22.505871 -4.898587  0.000000 0.500003 0.866024  0.284967 0.532528 1 64 1.000000
0  -3.608255 -22.505871 -4.898586  0.000000 0.500003 0.866024  0.284967 0.532498 1 64 1.000000
0  -3.607982 -22.585150 -4.852815  0.000000 0.500003 0.866024  0.285039 0.532498 1 64 1.000000
end
