version 1
nodes
0 "ValveBiped.Bip01_Spine4" -1
1 "ValveBiped.Bip01_L_Clavicle" 0
2 "ValveBiped.Bip01_L_UpperArm" 1
3 "ValveBiped.Bip01_L_Forearm" 2
4 "ValveBiped.Bip01_L_Hand" 3
5 "ValveBiped.Bip01_L_Finger4" 4
6 "ValveBiped.Bip01_L_Finger41" 5
7 "ValveBiped.Bip01_L_Finger42" 6
8 "ValveBiped.Bip01_L_Finger3" 4
9 "ValveBiped.Bip01_L_Finger31" 8
10 "ValveBiped.Bip01_L_Finger32" 9
11 "ValveBiped.Bip01_L_Finger2" 4
12 "ValveBiped.Bip01_L_Finger21" 11
13 "ValveBiped.Bip01_L_Finger22" 12
14 "ValveBiped.Bip01_L_Finger1" 4
15 "ValveBiped.Bip01_L_Finger11" 14
16 "ValveBiped.Bip01_L_Finger12" 15
17 "ValveBiped.Bip01_L_Finger0" 4
18 "ValveBiped.Bip01_L_Finger01" 17
19 "ValveBiped.Bip01_L_Finger02" 18
20 "ValveBiped.Bip01_L_Ulna" 3
21 "ValveBiped.Bip01_L_Wrist" 3
22 "rig_l_upperarm" 1
23 "rig_l_forearm" 22
24 "rig_d_l_forearm" 23
25 "rig_d_l_upperarm" 22
26 "ValveBiped.Bip01_R_Clavicle" 0
27 "ValveBiped.Bip01_R_UpperArm" 26
28 "ValveBiped.Bip01_R_Forearm" 27
29 "ValveBiped.Bip01_R_Hand" 28
30 "ValveBiped.Bip01_R_Finger4" 29
31 "ValveBiped.Bip01_R_Finger41" 30
32 "ValveBiped.Bip01_R_Finger42" 31
33 "ValveBiped.Bip01_R_Finger3" 29
34 "ValveBiped.Bip01_R_Finger31" 33
35 "ValveBiped.Bip01_R_Finger32" 34
36 "ValveBiped.Bip01_R_Finger2" 29
37 "ValveBiped.Bip01_R_Finger21" 36
38 "ValveBiped.Bip01_R_Finger22" 37
39 "ValveBiped.Bip01_R_Finger1" 29
40 "ValveBiped.Bip01_R_Finger11" 39
41 "ValveBiped.Bip01_R_Finger12" 40
42 "ValveBiped.Bip01_R_Finger0" 29
43 "ValveBiped.Bip01_R_Finger01" 42
44 "ValveBiped.Bip01_R_Finger02" 43
45 "ValveBiped.Bip01_R_Ulna" 28
46 "ValveBiped.Bip01_R_Wrist" 28
47 "rig_r_upperarm" 26
48 "rig_r_forearm" 47
49 "rig_d_r_forearm" 48
50 "rig_d_r_upperarm" 47
51 "rig_r_hand" -1
52 "rig_d_r_hand" 51
53 "rig_d_r_wrist" 52
54 "rig_l_hand" -1
55 "rig_d_l_hand" 54
56 "rig_d_l_wrist" 54
57 "rig_l_pole" -1
58 "rig_r_pole" -1
59 "rig_l_clavicle" -1
60 "rig_d_l_clavicle" 59
61 "rig_r_clavicle" -1
62 "rig_d_r_clavicle" 61
63 "Camera" -1
64 "body" -1
65 "trigger" 64
66 "barrel" 64
67 "bulletdoor" 64
68 "pump" 64
69 "bolt" 68
70 "bullet2" 64
71 "bullet1" -1
end
skeleton
time 0
0  0.000006 0.000000 0.000000  -1.570800 -1.391899 -1.570792
1  -4.327822 -0.845730 -0.674796  -1.544956 -1.855077 -0.198630
2  6.027522 -0.000325 0.000193  -1.077969 -1.092223 -1.034963
3  11.692108 0.000644 -0.000740  -1.361396 -0.000016 -1.396426
4  11.479885 0.000601 -0.000694  1.243137 -0.641762 0.128734
5  3.859508 -0.142880 -1.192050  -0.550885 -0.255832 -1.866282
6  1.312588 0.000011 0.000008  -0.134281 -0.007565 -0.192402
7  0.729356 0.000053 0.000050  -0.007819 -0.009377 -0.049784
8  3.942141 0.046273 -0.431512  -0.484645 0.035664 -1.413041
9  1.539109 0.000084 0.000005  -0.033414 -0.056767 -0.605686
10  1.196331 0.000147 0.000030  0.006943 0.002367 -0.289526
11  3.883503 -0.047269 0.431381  -0.270346 0.409995 -0.746893
12  1.719573 -0.000025 0.000016  0.028923 -0.121328 -1.267494
13  1.209179 0.000091 0.000012  -0.006830 -0.001496 -0.302684
14  4.085221 -0.082715 1.151040  0.033977 0.537783 -0.030448
15  1.719448 -0.000011 0.000022  0.011888 -0.076325 -0.864457
16  1.099675 0.000047 0.000006  -0.070447 0.038185 -1.423970
17  0.971586 -1.283499 0.847609  -0.978328 -0.625347 -0.310208
18  1.789820 -0.000004 -0.000018  0.000998 -0.014468 0.721478
19  1.207013 -0.000012 -0.000044  0.001593 -0.000026 -0.111145
20  5.740637 0.000410 -0.000704  -0.109676 0.000003 0.000071
21  11.480985 0.000332 -0.000797  -0.048216 -0.111001 -0.006497
22  6.027525 -0.000329 0.000203  1.759115 -0.442716 1.687994
23  0.000002 11.692101 -0.000007  -0.967735 -0.419756 -0.770112
24  0.000002 0.000008 -0.000001  -0.492302 -0.000030 1.570739
25  -0.000000 -0.000011 -0.000000  0.868957 0.000002 1.570712
26  -4.967872 -9.778694 2.073871  1.473120 1.855075 -0.198639
27  6.027506 -0.000260 -0.000228  1.646195 0.656093 -0.406281
28  11.691991 0.000243 0.000854  0.564399 0.000074 -1.863466
29  11.479124 -0.000570 0.001339  -1.205878 0.547540 0.893047
30  3.859436 -0.132789 1.193063  0.385277 -0.029729 -1.748803
31  1.312559 0.000027 -0.000000  -0.013756 -0.031530 -0.953722
32  0.729345 0.000066 -0.000027  -0.198329 0.044732 -0.857780
33  3.942045 0.050109 0.430998  0.369881 -0.091819 -1.556998
34  1.539097 0.000011 -0.000001  -0.013288 -0.027151 -1.132777
35  1.196300 0.000075 -0.000004  0.000968 -0.002436 -0.994639
36  3.883410 -0.050502 -0.431086  0.299105 -0.220225 -1.386726
37  1.719565 -0.000077 -0.000002  -0.038529 0.030961 -1.462450
38  1.209198 0.000035 0.000011  -0.001756 -0.004187 -0.773865
39  3.806437 -0.112148 -1.295329  -0.028805 0.243340 -0.117787
40  1.719410 -0.000099 -0.000034  0.356276 -0.218063 -1.380320
41  1.099674 0.000025 0.000006  0.059920 -0.008679 -0.824866
42  0.889710 -0.317103 -1.125532  0.901376 0.231327 -0.743911
43  1.789779 -0.000009 -0.000042  0.027227 0.044051 -0.011391
44  1.206996 -0.000007 0.000006  -0.019167 -0.151093 1.385408
45  5.740572 0.000056 0.000724  0.113654 -0.000014 0.000021
46  11.480768 -0.000078 0.001017  0.030096 0.109127 0.142456
47  6.027514 -0.000272 -0.000237  -0.759932 -0.483175 -1.561396
48  -0.000002 11.691976 -0.000006  -1.243134 0.688383 0.927989
49  0.000004 -0.000002 -0.000000  2.836924 -0.000041 1.570856
50  -0.000007 -0.000016 0.000005  2.272644 -0.000030 1.570865
51  -3.824576 -3.342074 -5.194341  3.002374 0.002687 -1.679545
52  0.000000 0.000000 0.000000  0.008153 -0.000259 0.000009
53  0.000000 0.000000 0.000000  1.565115 0.043565 -0.106862
54  -0.823980 -15.126455 -4.756344  -0.977156 -0.115470 -1.927258
55  -0.000001 -0.000000 -0.000000  -0.000000 -0.000000 -0.000002
56  0.000030 0.000029 0.000001  -1.571902 -0.044449 -0.106509
57  8.694838 -16.141689 -16.416052  1.570796 -0.000000 0.000000
58  -16.922342 4.543208 -16.901630  1.570796 -0.000000 0.000000
59  -0.670483 1.601972 -4.109488  1.570796 -0.000000 0.000000
60  -0.004311 0.001230 -0.000371  0.006898 -0.005534 -0.284229
61  2.073871 10.506637 -3.148526  1.570796 -0.000000 0.000000
62  0.000000 0.000000 0.000000  -0.078727 -3.136056 0.284226
63  0.000000 0.000000 0.000000  1.570796 -0.000000 0.000000
64  -2.535900 -8.566546 -1.996421  1.549086 0.053723 0.014481
65  -0.219072 -1.337187 -0.135917  -0.000000 0.000000 0.000000
66  -0.219078 0.187971 19.478249  -0.000000 0.000000 0.000000
67  -0.245097 -1.134826 1.111317  -0.000000 0.000000 0.000000
68  -0.104047 -4.495923 7.879276  -0.000000 0.000000 0.000000
69  -0.198094 4.323282 -6.346650  -0.000000 0.000000 0.000000
70  -0.200449 -0.857878 4.877553  -0.000000 0.000000 0.000000
71  -2.655992 -13.953131 -1.696344  1.549086 0.053723 0.014481
time 1
0  0.000006 0.000000 0.000000  -1.570800 -1.391899 -1.570792
1  -4.409623 -0.706214 -0.616880  -1.544956 -1.855077 -0.198630
2  6.027521 -0.000326 0.000193  -1.122128 -1.046852 -1.001394
3  11.692108 0.000643 -0.000741  -1.351721 -0.000021 -1.453725
4  11.479428 0.000540 -0.000952  1.240293 -0.647937 0.145818
5  3.859509 -0.142880 -1.192049  -0.568251 0.047372 -1.225168
6  1.312590 0.000009 0.000008  -0.067242 -0.002035 -0.141270
7  0.729355 0.000052 0.000051  -0.004080 -0.004529 0.027868
8  3.942144 0.046273 -0.431512  -0.312215 0.122547 -0.943118
9  1.539110 0.000083 0.000004  -0.021789 -0.025397 -0.251938
10  1.196332 0.000144 0.000029  0.003541 0.001010 -0.185222
11  3.883505 -0.047270 0.431382  -0.059824 0.222938 -0.467887
12  1.719572 -0.000027 0.000014  -0.005098 -0.062534 -0.640891
13  1.209180 0.000095 0.000012  -0.003124 0.001135 -0.084637
14  4.085223 -0.082716 1.151041  0.166668 0.181914 -0.085569
15  1.719446 -0.000012 0.000022  -0.002015 -0.037450 -0.438505
16  1.099675 0.000047 0.000005  -0.027636 0.034687 -0.659458
17  0.971587 -1.283499 0.847610  -1.243808 -0.574786 -0.417491
18  1.789819 -0.000003 -0.000017  0.002108 -0.004496 0.324272
19  1.207017 -0.000012 -0.000043  0.000504 -0.000138 -0.065201
20  5.740638 0.000410 -0.000702  -0.111014 0.000003 0.000070
21  11.480895 0.000320 -0.000847  -0.047781 -0.112613 -0.003594
22  6.027524 -0.000330 0.000203  1.802341 -0.474431 1.663685
23  0.000002 11.692100 -0.000008  -1.001989 -0.450575 -0.792668
24  0.000004 0.000009 -0.000001  -0.482625 -0.000031 1.570738
25  -0.000000 -0.000012 -0.000000  0.868957 0.000002 1.570712
26  -5.043818 -9.695042 1.984940  1.473120 1.855075 -0.198639
27  6.027506 -0.000260 -0.000228  1.629084 0.595612 -0.370195
28  11.691993 0.000243 0.000857  0.547218 0.000077 -1.913421
29  11.478685 -0.000782 0.001442  -1.216371 0.640612 0.886944
30  3.859435 -0.132789 1.193063  0.406972 -0.281773 -0.608989
31  1.312559 0.000026 -0.000001  -0.000002 -0.000045 -0.148961
32  0.729344 0.000065 -0.000028  -0.000028 -0.000012 0.046463
33  3.942046 0.050109 0.430997  0.121277 -0.118787 -0.520714
34  1.539097 0.000012 -0.000001  0.000007 -0.000010 0.042929
35  1.196300 0.000074 -0.000006  -0.000009 -0.000006 -0.140034
36  3.883411 -0.050502 -0.431086  -0.089865 -0.000690 -0.298025
37  1.719566 -0.000076 -0.000003  -0.002289 -0.007626 -0.075726
38  1.209198 0.000035 0.000011  -0.001276 -0.004274 0.074338
39  3.806437 -0.112148 -1.295329  -0.330197 0.136798 -0.257131
40  1.719412 -0.000099 -0.000033  -0.001915 -0.006300 -0.072277
41  1.099674 0.000026 0.000006  -0.001196 -0.004013 0.046405
42  0.889709 -0.317103 -1.125532  0.995702 0.435265 -0.833273
43  1.789779 -0.000008 -0.000042  0.019065 0.022991 -0.061279
44  1.206996 -0.000006 0.000006  0.021267 -0.077233 0.693778
45  5.740571 0.000055 0.000723  0.103401 -0.000014 0.000021
46  11.480680 -0.000121 0.001037  0.020115 0.125193 0.137287
47  6.027514 -0.000273 -0.000236  -0.702855 -0.519862 -1.542733
48  -0.000001 11.691975 -0.000007  -1.272866 0.719067 0.941002
49  0.000003 -0.000001 -0.000001  2.819742 -0.000041 1.570856
50  -0.000007 -0.000015 0.000006  2.272644 -0.000030 1.570865
51  -4.159853 -2.920818 -5.678444  -0.203981 -3.088521 1.379377
52  -0.000000 -0.000000 0.000001  0.008153 -0.000259 0.000009
53  -0.000000 -0.000000 0.000000  1.565115 0.043565 -0.106862
54  -0.364426 -14.941271 -5.101149  -0.977156 -0.115470 -1.927258
55  -0.000000 0.000000 -0.000000  -0.000000 -0.000000 -0.000002
56  0.000029 0.000030 0.000001  -1.571902 -0.044449 -0.106509
57  8.813835 -16.069267 -16.772230  1.570796 -0.000000 0.000000
58  -18.126543 5.051675 -16.851028  1.570796 -0.000000 0.000000
59  -0.612567 1.479239 -4.214810  1.570796 -0.000000 0.000000
60  -0.004311 0.001230 -0.000371  0.006898 -0.005534 -0.284229
61  1.984940 10.437833 -3.238145  1.570796 -0.000000 0.000000
62  0.000000 0.000000 0.000000  -0.078727 -3.136056 0.284226
63  0.000000 0.000000 0.000000  1.568900 0.001131 -0.001158
64  -2.609667 -9.531792 -1.927530  1.549696 0.052219 0.058090
65  -0.219072 -1.337187 -0.135917  0.000000 0.000000 0.000000
66  -0.219078 0.187971 19.478251  0.000000 0.000000 0.000000
67  -0.245097 -1.134826 1.111317  0.000000 0.000000 0.000000
68  -0.104047 -4.495924 7.879276  0.000000 0.000000 0.000000
69  -0.198094 4.323281 -6.346651  0.000000 0.000000 0.000000
70  -0.200448 -0.857878 4.877555  0.000000 0.000000 0.000000
71  -2.495429 -14.918701 -1.631029  1.549696 0.052219 0.058090
time 2
0  0.000006 0.000000 0.000000  -1.570800 -1.391899 -1.570792
1  -4.655810 -0.286328 -0.442577  -1.544956 -1.855077 -0.198630
2  6.027520 -0.000326 0.000194  -1.212231 -0.896520 -0.928063
3  11.692110 0.000644 -0.000739  -1.322144 -0.000025 -1.527623
4  11.480238 0.000607 -0.000591  1.402578 -0.579686 0.098427
5  3.859508 -0.142879 -1.192050  -0.394539 0.299157 -0.554440
6  1.312589 0.000011 0.000007  -0.000009 0.000051 -0.089883
7  0.729355 0.000054 0.000049  0.000023 0.000013 0.105537
8  3.942145 0.046274 -0.431512  -0.117741 0.120704 -0.462798
9  1.539110 0.000081 0.000005  0.000000 0.000022 0.102014
10  1.196333 0.000146 0.000030  0.000017 0.000014 -0.080915
11  3.883505 -0.047269 0.431381  0.088183 -0.008874 -0.239400
12  1.719575 -0.000026 0.000016  0.001905 0.005179 -0.016672
13  1.209182 0.000093 0.000012  0.001063 0.002903 0.133420
14  4.085223 -0.082715 1.151041  0.320600 -0.159664 -0.200164
15  1.719447 -0.000012 0.000022  0.001422 0.003814 -0.013163
16  1.099676 0.000049 0.000006  0.000887 0.002421 0.105475
17  0.971588 -1.283499 0.847609  -1.424527 -0.738760 -0.480418
18  1.789820 -0.000004 -0.000017  -0.000740 0.005137 -0.073161
19  1.207015 -0.000012 -0.000044  -0.000595 -0.000176 0.013480
20  5.740635 0.000410 -0.000704  -0.069546 0.000003 0.000070
21  11.481055 0.000332 -0.000776  -0.021362 -0.096314 -0.001068
22  6.027524 -0.000331 0.000203  1.943059 -0.576185 1.591634
23  0.000003 11.692099 -0.000007  -1.045803 -0.491320 -0.820502
24  0.000002 0.000008 -0.000001  -0.453044 -0.000031 1.570739
25  0.000000 -0.000012 -0.000000  0.868957 0.000002 1.570712
26  -5.272383 -9.443281 1.717296  1.473120 1.855075 -0.198639
27  6.027504 -0.000260 -0.000230  1.726236 0.403441 -0.276928
28  11.691992 0.000243 0.000857  0.499117 0.000074 -1.886213
29  11.478925 -0.000749 0.001346  -1.158811 0.438135 0.757015
30  3.859435 -0.132789 1.193062  0.406972 -0.281773 -0.608989
31  1.312558 0.000025 -0.000001  -0.000002 -0.000045 -0.148961
32  0.729345 0.000066 -0.000028  -0.000028 -0.000012 0.046463
33  3.942044 0.050107 0.430997  0.121277 -0.118787 -0.520714
34  1.539097 0.000013 -0.000001  0.000007 -0.000010 0.042929
35  1.196299 0.000075 -0.000005  -0.000009 -0.000006 -0.140034
36  3.883410 -0.050502 -0.431087  -0.089865 -0.000690 -0.298025
37  1.719565 -0.000076 -0.000003  -0.002289 -0.007626 -0.075726
38  1.209198 0.000035 0.000012  -0.001276 -0.004274 0.074338
39  3.806437 -0.112147 -1.295330  -0.330197 0.136798 -0.257131
40  1.719412 -0.000099 -0.000034  -0.001915 -0.006300 -0.072277
41  1.099673 0.000025 0.000007  -0.001196 -0.004013 0.046405
42  0.889708 -0.317103 -1.125533  1.079795 0.646453 -0.910435
43  1.789778 -0.000009 -0.000042  0.011965 0.001552 -0.110981
44  1.206995 -0.000007 0.000007  0.005321 0.005317 0.007332
45  5.740571 0.000056 0.000724  0.107416 -0.000014 0.000021
46  11.480729 -0.000115 0.001019  0.052929 0.089105 0.118521
47  6.027516 -0.000272 -0.000237  -0.463323 -0.498298 -1.613422
48  -0.000000 11.691974 -0.000007  -1.256643 0.702318 0.934020
49  0.000004 -0.000001 0.000000  2.771641 -0.000041 1.570856
50  -0.000007 -0.000015 0.000004  2.272644 -0.000030 1.570865
51  -7.354515 -2.946529 -6.466768  -0.187972 -3.112210 1.368434
52  -0.000000 0.000000 0.000000  0.008153 -0.000259 0.000009
53  -0.000001 -0.000000 -0.000000  1.565115 0.043565 -0.106862
54  1.181818 -15.114804 -6.985414  -0.855175 -0.138982 -1.887257
55  0.000001 -0.000001 0.000000  0.000000 -0.000000 -0.000002
56  0.000032 0.000029 0.000001  -1.571901 -0.044449 -0.106509
57  9.171970 -15.851300 -17.844177  1.570796 -0.000000 0.000000
58  -20.703382 6.139731 -16.742746  1.570796 -0.000000 0.000000
59  -0.438264 1.109862 -4.531785  1.570796 -0.000000 0.000000
60  -0.004311 0.001230 -0.000371  0.006898 -0.005534 -0.284229
61  1.717296 10.230762 -3.507862  1.570796 -0.000000 0.000000
62  0.000000 0.000000 0.000000  -0.078727 -3.136056 0.284226
63  0.000000 0.000000 0.000000  1.565375 0.003226 -0.003314
64  -2.809891 -12.151742 -1.740541  1.551350 0.048138 0.176447
65  -0.219072 -1.337187 -0.135916  -0.000000 0.000000 -0.000000
66  -0.219077 0.187971 19.478252  -0.000000 0.000000 -0.000000
67  -0.245097 -1.134826 1.111318  -0.000000 0.000000 -0.000000
68  -0.104047 -4.495923 7.879277  -0.000000 0.000000 -0.000000
69  -0.198094 4.323281 -6.346650  -0.000000 0.000000 -0.000000
70  -0.200449 -0.857878 4.877554  -0.000000 0.000000 -0.000000
71  -2.061892 -17.488222 -1.453748  1.551350 0.048138 0.176447
time 3
0  0.000006 0.000000 0.000000  -1.570800 -1.391899 -1.570792
1  -5.056097 0.396382 -0.159171  -1.544956 -1.855077 -0.198630
2  6.027519 -0.000324 0.000195  -1.312667 -0.727659 -0.909806
3  11.692109 0.000643 -0.000739  -1.272558 -0.000025 -1.549656
4  11.480065 0.000544 -0.000723  1.894213 -0.424760 -0.017513
5  3.859509 -0.142880 -1.192049  -0.399397 0.292475 -0.571101
6  1.312588 0.000014 0.000008  -0.000010 0.000051 -0.105683
7  0.729357 0.000054 0.000049  0.000023 0.000014 0.089737
8  3.942143 0.046273 -0.431512  -0.119805 0.118656 -0.480081
9  1.539109 0.000082 0.000004  0.000000 0.000022 0.085836
10  1.196332 0.000143 0.000030  0.000017 0.000014 -0.096716
11  3.883504 -0.047270 0.431382  0.088322 -0.007350 -0.256615
12  1.719574 -0.000025 0.000015  0.001816 0.005211 -0.033954
13  1.209177 0.000091 0.000012  0.001017 0.002919 0.117620
14  4.085220 -0.082716 1.151041  0.325656 -0.148774 -0.233072
15  1.719449 -0.000012 0.000021  0.001357 0.003838 -0.030363
16  1.099677 0.000050 0.000006  0.000845 0.002436 0.088194
17  0.971587 -1.283499 0.847610  -1.399595 -0.734358 -0.517531
18  1.789819 -0.000004 -0.000020  -0.000675 0.004893 -0.058568
19  1.207015 -0.000011 -0.000044  -0.000576 -0.000133 0.074107
20  5.740636 0.000408 -0.000705  0.041695 0.000003 0.000070
21  11.481022 0.000316 -0.000804  0.067225 -0.062151 0.001553
22  6.027525 -0.000330 0.000203  2.142923 -0.658284 1.420680
23  0.000002 11.692101 -0.000007  -1.058804 -0.503674 -0.828522
24  0.000001 0.000010 -0.000000  -0.403456 -0.000031 1.570739
25  -0.000001 -0.000011 -0.000001  0.868957 0.000002 1.570712
26  -5.644017 -9.033932 1.282121  1.473120 1.855075 -0.198639
27  6.027503 -0.000260 -0.000233  1.768186 0.213570 -0.260603
28  11.691993 0.000245 0.000856  0.430909 0.000063 -1.733281
29  11.480286 -0.000094 0.000949  -1.113143 0.196438 0.493156
30  3.859436 -0.132787 1.193062  0.406972 -0.281773 -0.608989
31  1.312558 0.000025 0.000000  -0.000002 -0.000045 -0.148961
32  0.729345 0.000064 -0.000026  -0.000028 -0.000012 0.046463
33  3.942045 0.050109 0.430995  0.121277 -0.118787 -0.520714
34  1.539097 0.000012 -0.000001  0.000007 -0.000010 0.042929
35  1.196299 0.000076 -0.000005  -0.000009 -0.000006 -0.140034
36  3.883411 -0.050502 -0.431087  -0.089865 -0.000690 -0.298025
37  1.719565 -0.000075 -0.000005  -0.002289 -0.007626 -0.075726
38  1.209198 0.000037 0.000013  -0.001276 -0.004274 0.074338
39  3.806438 -0.112147 -1.295330  -0.330197 0.136798 -0.257131
40  1.719413 -0.000098 -0.000034  -0.001915 -0.006300 -0.072277
41  1.099673 0.000024 0.000007  -0.001196 -0.004013 0.046405
42  0.889709 -0.317102 -1.125534  1.079795 0.646453 -0.910435
43  1.789778 -0.000009 -0.000041  0.011965 0.001552 -0.110981
44  1.206997 -0.000007 0.000007  0.005321 0.005317 0.007332
45  5.740572 0.000057 0.000723  0.102339 -0.000014 0.000021
46  11.481002 0.000019 0.000939  0.083405 0.037838 0.074810
47  6.027515 -0.000271 -0.000237  -0.242842 -0.491974 -1.714985
48  -0.000001 11.691974 -0.000006  -1.166488 0.609923 0.890254
49  0.000003 -0.000002 0.000000  2.703434 -0.000041 1.570856
50  -0.000007 -0.000015 0.000004  2.272644 -0.000030 1.570865
51  -11.505668 -3.103878 -8.456043  -0.150174 3.132392 1.378142
52  -0.000001 0.000000 0.000000  0.008153 -0.000259 0.000009
53  0.000000 0.000001 -0.000002  1.565115 0.043565 -0.106862
54  3.347004 -15.718672 -9.320853  -0.458445 -0.238864 -1.786951
55  -0.000001 0.000000 -0.000000  0.000000 -0.000000 -0.000002
56  0.000029 0.000029 0.000000  -1.571902 -0.044449 -0.106509
57  9.754276 -15.496902 -19.587105  1.570796 -0.000000 0.000000
58  -21.907583 6.648198 -16.692142  1.570796 -0.000000 0.000000
59  -0.154858 0.509276 -5.047168  1.570796 -0.000000 0.000000
60  -0.004311 0.001230 -0.000371  0.006898 -0.005534 -0.284229
61  1.282120 9.894076 -3.946405  1.570796 -0.000000 0.000000
62  0.000000 0.000000 0.000000  -0.078727 -3.136056 0.284226
63  0.000000 0.000000 0.000000  1.563475 0.004351 -0.004479
64  -3.104959 -16.012722 -1.464978  1.553785 0.042122 0.350843
65  -0.219072 -1.337187 -0.135916  0.000000 -0.000000 -0.000000
66  -0.219079 0.187971 19.478251  0.000000 -0.000000 -0.000000
67  -0.245097 -1.134826 1.111315  0.000000 -0.000000 -0.000000
68  -0.104047 -4.495923 7.879275  0.000000 -0.000000 -0.000000
69  -0.198095 4.323280 -6.346651  0.000000 -0.000000 -0.000000
70  -0.200448 -0.857878 4.877552  0.000000 -0.000000 -0.000000
71  -1.444263 -21.139866 -1.192500  1.553785 0.042122 0.350843
time 4
0  0.000006 0.000000 0.000000  -1.570800 -1.391899 -1.570792
1  -5.579652 1.289335 0.211511  -1.544956 -1.855077 -0.198630
2  6.027518 -0.000323 0.000197  -1.421521 -0.574808 -0.936330
3  11.692110 0.000644 -0.000741  -1.204845 -0.000024 -1.513779
4  11.480351 0.000558 -0.000591  2.537999 -0.118340 -0.117209
5  3.859510 -0.142879 -1.192048  -0.412031 0.273824 -0.616315
6  1.312589 0.000015 0.000008  -0.000012 0.000051 -0.152536
7  0.729357 0.000054 0.000051  0.000022 0.000015 0.042884
8  3.942143 0.046273 -0.431511  -0.125259 0.112880 -0.527292
9  1.539109 0.000083 0.000004  -0.000001 0.000022 0.038881
10  1.196331 0.000144 0.000030  0.000016 0.000015 -0.143568
11  3.883505 -0.047269 0.431381  0.088570 -0.003176 -0.303680
12  1.719572 -0.000027 0.000015  0.001567 0.005291 -0.081204
13  1.209179 0.000092 0.000013  0.000879 0.002964 0.070767
14  4.085224 -0.082715 1.151042  0.333034 -0.130853 -0.286006
15  1.719450 -0.000012 0.000023  0.001174 0.003898 -0.077592
16  1.099675 0.000048 0.000004  0.000729 0.002474 0.040944
17  0.971588 -1.283499 0.847610  -1.360905 -0.726021 -0.575526
18  1.789819 -0.000003 -0.000018  -0.000497 0.004211 -0.017890
19  1.207016 -0.000013 -0.000044  -0.000500 -0.000088 0.142194
20  5.740637 0.000411 -0.000704  0.189993 0.000003 0.000070
21  11.481081 0.000316 -0.000779  0.195708 -0.008044 -0.010128
22  6.027524 -0.000330 0.000203  2.364947 -0.683112 1.189583
23  0.000001 11.692098 -0.000007  -1.037622 -0.483605 -0.815397
24  0.000001 0.000008 0.000000  -0.335746 -0.000031 1.570739
25  -0.000001 -0.000011 -0.000000  0.868957 0.000002 1.570712
26  -6.130096 -8.498524 0.712933  1.473120 1.855075 -0.198639
27  6.027503 -0.000262 -0.000236  1.706718 0.178136 -0.279756
28  11.691991 0.000242 0.000858  0.356638 0.000060 -1.679241
29  11.479000 -0.000805 0.001178  -1.011330 0.134744 0.375457
30  3.859436 -0.132789 1.193063  0.406972 -0.281773 -0.608989
31  1.312559 0.000029 0.000000  -0.000002 -0.000045 -0.148961
32  0.729345 0.000066 -0.000027  -0.000028 -0.000012 0.046463
33  3.942044 0.050109 0.430996  0.121277 -0.118787 -0.520714
34  1.539097 0.000012 -0.000000  0.000007 -0.000010 0.042929
35  1.196298 0.000074 -0.000005  -0.000009 -0.000006 -0.140034
36  3.883410 -0.050503 -0.431087  -0.089865 -0.000690 -0.298025
37  1.719564 -0.000076 -0.000002  -0.002289 -0.007626 -0.075726
38  1.209198 0.000037 0.000011  -0.001276 -0.004274 0.074338
39  3.806437 -0.112148 -1.295330  -0.330197 0.136798 -0.257131
40  1.719412 -0.000099 -0.000034  -0.001915 -0.006300 -0.072277
41  1.099674 0.000027 0.000006  -0.001196 -0.004013 0.046405
42  0.889709 -0.317102 -1.125532  1.079795 0.646453 -0.910435
43  1.789779 -0.000007 -0.000043  0.011965 0.001552 -0.110981
44  1.206996 -0.000007 0.000005  0.005321 0.005317 0.007332
45  5.740571 0.000054 0.000725  0.116136 -0.000014 0.000021
46  11.480744 -0.000125 0.000985  0.107345 0.025546 0.051256
47  6.027514 -0.000274 -0.000239  -0.210139 -0.555920 -1.738542
48  -0.000001 11.691974 -0.000007  -1.134824 0.578071 0.873086
49  0.000004 -0.000000 -0.000001  2.629165 -0.000041 1.570856
50  -0.000008 -0.000015 0.000005  2.272644 -0.000030 1.570865
51  -12.541971 -3.501503 -10.287804  -0.100366 3.117547 1.433373
52  -0.000000 0.000000 -0.000001  0.008153 -0.000259 0.000009
53  0.000000 0.000000 -0.000000  1.565115 0.043565 -0.106862
54  5.718678 -16.508978 -12.023249  0.152043 -0.416788 -1.738577
55  -0.000000 -0.000000 -0.000000  0.000000 -0.000000 -0.000002
56  0.000030 0.000029 0.000000  -1.571901 -0.044449 -0.106509
57  10.515904 -15.033360 -21.866768  1.570796 -0.000000 0.000000
58  -21.613197 6.479931 -16.992500  1.570796 -0.000000 0.000000
59  0.215825 -0.276262 -5.721264  1.570796 -0.000000 0.000000
60  -0.004311 0.001230 -0.000371  0.006898 -0.005534 -0.284229
61  0.712932 9.453708 -4.520000  1.570796 -0.000000 0.000000
62  0.000000 0.000000 0.000000  -0.078727 -3.136056 0.284226
63  0.000000 0.000000 0.000000  1.563882 0.004111 -0.004230
64  -3.463254 -20.701056 -1.130367  1.556740 0.034817 0.562570
65  -0.219072 -1.337187 -0.135917  0.000000 -0.000000 0.000000
66  -0.219078 0.187971 19.478251  0.000000 -0.000000 0.000000
67  -0.245096 -1.134826 1.111316  0.000000 -0.000000 0.000000
68  -0.104047 -4.495924 7.879275  0.000000 -0.000000 0.000000
69  -0.198093 4.323281 -6.346655  0.000000 -0.000000 0.000000
70  -0.200448 -0.857878 4.877552  0.000000 -0.000000 0.000000
71  -0.763923 -25.366707 -0.875282  1.556740 0.034817 0.562570
time 5
0  0.000006 0.000000 0.000000  -1.570800 -1.391899 -1.570792
1  -6.172757 2.300905 0.631433  -1.544956 -1.855077 -0.198630
2  6.027518 -0.000322 0.000198  -1.506200 -0.453910 -0.968881
3  11.692110 0.000642 -0.000739  -1.124143 -0.000020 -1.456362
4  11.479308 0.000279 -0.001115  2.984840 0.181361 -0.129137
5  3.859511 -0.142880 -1.192050  -0.429258 0.244773 -0.683473
6  1.312588 0.000012 0.000006  -0.000016 0.000050 -0.224142
7  0.729354 0.000054 0.000049  0.000021 0.000016 -0.028722
8  3.942143 0.046273 -0.431512  -0.132930 0.103722 -0.598230
9  1.539110 0.000082 0.000006  -0.000002 0.000022 -0.032599
10  1.196331 0.000146 0.000032  0.000015 0.000016 -0.215175
11  3.883504 -0.047270 0.431380  0.088572 0.003117 -0.374515
12  1.719572 -0.000026 0.000015  0.001188 0.005389 -0.152319
13  1.209179 0.000090 0.000010  0.000665 0.003019 -0.000840
14  4.085222 -0.082716 1.151040  0.341030 -0.107453 -0.353237
15  1.719450 -0.000012 0.000024  0.000894 0.003971 -0.148733
16  1.099674 0.000049 0.000009  0.000551 0.002519 -0.030170
17  0.971587 -1.283499 0.847609  -1.318666 -0.714701 -0.639545
18  1.789819 -0.000004 -0.000018  -0.000275 0.003169 0.043524
19  1.207016 -0.000012 -0.000044  -0.000377 -0.000048 0.212304
20  5.740637 0.000412 -0.000703  0.291486 0.000003 0.000071
21  11.480875 0.000260 -0.000888  0.288840 0.041084 -0.034623
22  6.027525 -0.000330 0.000203  2.546352 -0.673055 1.001291
23  0.000002 11.692100 -0.000008  -1.003560 -0.452010 -0.793684
24  0.000004 0.000009 -0.000004  -0.255046 -0.000030 1.570739
25  -0.000000 -0.000011 -0.000001  0.868957 0.000002 1.570712
26  -6.680745 -7.891993 0.068136  1.473120 1.855075 -0.198639
27  6.027503 -0.000262 -0.000236  1.591611 0.184039 -0.335975
28  11.691990 0.000243 0.000854  0.288057 0.000060 -1.677433
29  11.479014 -0.000876 0.001119  -0.921423 0.151475 0.298321
30  3.859436 -0.132788 1.193063  0.406972 -0.281773 -0.608989
31  1.312557 0.000024 -0.000001  -0.000002 -0.000045 -0.148961
32  0.729346 0.000066 -0.000028  -0.000028 -0.000012 0.046463
33  3.942046 0.050108 0.430997  0.121277 -0.118787 -0.520714
34  1.539096 0.000011 -0.000000  0.000007 -0.000010 0.042929
35  1.196301 0.000075 -0.000005  -0.000009 -0.000006 -0.140034
36  3.883411 -0.050502 -0.431086  -0.089865 -0.000690 -0.298025
37  1.719565 -0.000076 -0.000003  -0.002289 -0.007626 -0.075726
38  1.209199 0.000035 0.000013  -0.001276 -0.004274 0.074338
39  3.806438 -0.112148 -1.295330  -0.330197 0.136798 -0.257130
40  1.719411 -0.000099 -0.000036  -0.001915 -0.006300 -0.072277
41  1.099674 0.000025 0.000007  -0.001196 -0.004013 0.046405
42  0.889710 -0.317102 -1.125531  1.079795 0.646453 -0.910435
43  1.789779 -0.000010 -0.000042  0.011965 0.001552 -0.110981
44  1.206996 -0.000007 0.000006  0.005321 0.005317 0.007332
45  5.740572 0.000057 0.000723  0.129058 -0.000014 0.000021
46  11.480747 -0.000138 0.000973  0.124903 0.028231 0.032915
47  6.027515 -0.000275 -0.000239  -0.235138 -0.667438 -1.759629
48  -0.000002 11.691973 -0.000005  -1.133764 0.577013 0.872496
49  0.000003 -0.000001 -0.000002  2.560584 -0.000041 1.570856
50  -0.000006 -0.000016 0.000005  2.272644 -0.000030 1.570865
51  -12.174834 -4.020173 -12.399973  -0.034012 3.113356 1.519714
52  0.000000 0.000001 -0.000001  0.008153 -0.000259 0.000009
53  0.000000 0.000001 -0.000000  1.565115 0.043565 -0.106862
54  7.692739 -17.104027 -14.845683  0.682496 -0.512522 -1.800185
55  -0.000000 -0.000000 0.000001  0.000000 -0.000000 -0.000002
56  0.000032 0.000029 0.000001  -1.571901 -0.044449 -0.106509
57  11.378706 -14.508248 -24.449259  1.570796 -0.000000 0.000000
58  -20.742279 5.982126 -17.881088  1.570796 -0.000000 0.000000
59  0.635747 -1.166148 -6.484907  1.570796 -0.000000 0.000000
60  -0.004311 0.001230 -0.000371  0.006898 -0.005534 -0.284229
61  0.068134 8.954842 -5.169788  1.570796 -0.000000 0.000000
62  0.000000 0.000000 0.000000  -0.078727 -3.136056 0.284226
63  0.000000 0.000000 0.000000  1.564928 0.003491 -0.003588
64  -3.853165 -25.803064 -0.766231  1.559953 0.026866 0.792930
65  -0.219072 -1.337187 -0.135918  -0.000000 0.000000 0.000000
66  -0.219075 0.187972 19.478249  -0.000000 0.000000 0.000000
67  -0.245097 -1.134826 1.111315  -0.000000 0.000000 0.000000
68  -0.104047 -4.495923 7.879276  -0.000000 0.000000 0.000000
69  -0.198096 4.323280 -6.346652  -0.000000 0.000000 0.000000
70  -0.200449 -0.857878 4.877553  -0.000000 0.000000 0.000000
71  -0.161036 -29.731449 -0.530086  1.559953 0.026866 0.792930
time 6
0  0.000006 0.000000 0.000000  -1.570800 -1.391899 -1.570792
1  -6.765861 3.312476 1.051356  -1.544956 -1.855077 -0.198630
2  6.027518 -0.000321 0.000199  -1.529054 -0.344170 -0.982123
3  11.692109 0.000645 -0.000740  -1.039122 -0.000019 -1.419729
4  11.479753 0.000313 -0.000912  3.117380 0.312713 -0.130828
5  3.859509 -0.142881 -1.192048  -0.446179 0.210600 -0.758389
6  1.312592 0.000011 0.000009  -0.000020 0.000048 -0.305479
7  0.729354 0.000052 0.000050  0.000020 0.000018 -0.110059
8  3.942142 0.046272 -0.431510  -0.140800 0.092721 -0.678445
9  1.539111 0.000084 0.000004  -0.000004 0.000021 -0.113743
10  1.196333 0.000144 0.000030  0.000014 0.000017 -0.296511
11  3.883507 -0.047271 0.431383  0.088036 0.010227 -0.454786
12  1.719571 -0.000028 0.000014  0.000750 0.005468 -0.232903
13  1.209178 0.000090 0.000012  0.000418 0.003063 -0.082177
14  4.085223 -0.082715 1.151043  0.347666 -0.082468 -0.423190
15  1.719450 -0.000013 0.000021  0.000571 0.004030 -0.229358
16  1.099675 0.000049 0.000006  0.000346 0.002555 -0.110753
17  0.971586 -1.283500 0.847610  -1.279946 -0.702119 -0.699045
18  1.789819 -0.000002 -0.000017  -0.000099 0.001974 0.113134
19  1.207017 -0.000010 -0.000044  -0.000235 -0.000023 0.275920
20  5.740638 0.000410 -0.000702  0.319864 0.000003 0.000071
21  11.480964 0.000266 -0.000850  0.315537 0.061853 -0.051256
22  6.027525 -0.000331 0.000203  2.688487 -0.690936 0.889467
23  0.000002 11.692099 -0.000007  -0.981698 -0.432205 -0.779388
24  0.000003 0.000009 -0.000001  -0.170027 -0.000031 1.570739
25  0.000000 -0.000012 -0.000001  0.868957 0.000002 1.570712
26  -7.231393 -7.285462 -0.576661  1.473120 1.855075 -0.198639
27  6.027504 -0.000260 -0.000238  1.473533 0.164598 -0.428983
28  11.691992 0.000244 0.000856  0.231856 0.000059 -1.659318
29  11.479132 -0.000886 0.001054  -0.897367 0.167858 0.202469
30  3.859435 -0.132787 1.193063  0.406972 -0.281773 -0.608989
31  1.312559 0.000028 -0.000000  -0.000002 -0.000045 -0.148961
32  0.729346 0.000063 -0.000027  -0.000028 -0.000012 0.046463
33  3.942045 0.050110 0.430997  0.121277 -0.118787 -0.520714
34  1.539095 0.000012 -0.000001  0.000007 -0.000010 0.042929
35  1.196300 0.000072 -0.000004  -0.000009 -0.000006 -0.140034
36  3.883411 -0.050499 -0.431086  -0.089865 -0.000690 -0.298025
37  1.719565 -0.000077 -0.000002  -0.002289 -0.007626 -0.075726
38  1.209198 0.000035 0.000012  -0.001276 -0.004274 0.074338
39  3.806437 -0.112146 -1.295330  -0.330197 0.136798 -0.257131
40  1.719413 -0.000100 -0.000033  -0.001915 -0.006300 -0.072277
41  1.099672 0.000025 0.000005  -0.001196 -0.004013 0.046406
42  0.889710 -0.317101 -1.125532  1.079795 0.646453 -0.910435
43  1.789778 -0.000008 -0.000042  0.011965 0.001552 -0.110981
44  1.206994 -0.000006 0.000006  0.005321 0.005317 0.007332
45  5.740573 0.000056 0.000725  0.130457 -0.000014 0.000021
46  11.480770 -0.000140 0.000960  0.129989 0.027121 0.012587
47  6.027515 -0.000274 -0.000239  -0.233796 -0.785332 -1.833027
48  -0.000001 11.691975 -0.000007  -1.123151 0.566444 0.866544
49  0.000003 -0.000001 0.000001  2.504383 -0.000041 1.570856
50  -0.000006 -0.000015 0.000004  2.272644 -0.000030 1.570865
51  -11.840666 -4.190535 -14.967320  -3.118416 0.045339 -1.542856
52  0.000001 0.000000 -0.000000  0.008153 -0.000259 0.000009
53  0.000000 0.000002 -0.000000  1.565115 0.043565 -0.106862
54  8.913805 -17.262558 -17.558533  0.903905 -0.464152 -1.845428
55  0.000000 -0.000001 0.000002  0.000000 -0.000000 -0.000002
56  0.000031 0.000027 0.000004  -1.571902 -0.044449 -0.106509
57  12.241508 -13.983134 -27.031748  1.570796 -0.000000 0.000000
58  -19.415333 5.223661 -19.234957  1.570796 -0.000000 0.000000
59  1.055670 -2.056035 -7.248549  1.570796 -0.000000 0.000000
60  -0.004311 0.001230 -0.000371  0.006898 -0.005534 -0.284229
61  -0.576664 8.455976 -5.819577  1.570796 -0.000000 0.000000
62  0.000000 0.000000 0.000000  -0.078727 -3.136056 0.284226
63  0.000000 0.000000 0.000000  1.566359 0.002643 -0.002712
64  -4.243075 -30.905073 -0.402094  1.563164 0.018914 1.023239
65  -0.219070 -1.337187 -0.135919  0.000000 -0.000000 -0.000000
66  -0.219073 0.187972 19.478247  0.000000 -0.000000 -0.000000
67  -0.245096 -1.134826 1.111315  0.000000 -0.000000 -0.000000
68  -0.104047 -4.495922 7.879274  0.000000 -0.000000 -0.000000
69  -0.198093 4.323280 -6.346655  0.000000 -0.000000 -0.000000
70  -0.200446 -0.857878 4.877550  0.000000 -0.000000 -0.000000
71  0.247794 -33.889145 -0.184904  1.563164 0.018914 1.023239
time 7
0  0.000006 0.000000 0.000000  -1.570800 -1.391899 -1.570792
1  -7.289417 4.205430 1.422038  -1.544956 -1.855077 -0.198630
2  6.027517 -0.000321 0.000200  -1.434536 -0.226433 -0.958719
3  11.692114 0.000643 -0.000740  -0.960462 -0.000014 -1.360860
4  11.480103 0.000347 -0.000780  2.989057 0.219011 -0.175486
5  3.859509 -0.142878 -1.192050  -0.458822 0.179490 -0.823593
6  1.312591 0.000013 0.000010  -0.000023 0.000047 -0.377085
7  0.729354 0.000054 0.000049  0.000018 0.000019 -0.181665
8  3.942142 0.046273 -0.431513  -0.146986 0.082517 -0.749109
9  1.539111 0.000084 0.000005  -0.000006 0.000021 -0.185227
10  1.196332 0.000144 0.000030  0.000013 0.000018 -0.368118
11  3.883505 -0.047268 0.431379  0.087091 0.016450 -0.525647
12  1.719572 -0.000026 0.000016  0.000359 0.005507 -0.304031
13  1.209179 0.000090 0.000012  0.000197 0.003085 -0.153784
14  4.085224 -0.082715 1.151040  0.351880 -0.061086 -0.481941
15  1.719447 -0.000009 0.000022  0.000283 0.004061 -0.300512
16  1.099678 0.000048 0.000009  0.000164 0.002573 -0.181881
17  0.971585 -1.283498 0.847610  -1.249321 -0.690539 -0.746786
18  1.789818 -0.000004 -0.000016  -0.000011 0.000912 0.174557
19  1.207015 -0.000012 -0.000043  -0.000109 -0.000011 0.324578
20  5.740637 0.000409 -0.000705  0.291937 0.000003 0.000071
21  11.481031 0.000273 -0.000824  0.290949 0.042508 -0.047349
22  6.027524 -0.000330 0.000203  2.809971 -0.810187 0.856477
23  0.000002 11.692102 -0.000007  -0.946325 -0.400987 -0.755692
24  0.000002 0.000009 -0.000000  -0.091368 -0.000031 1.570739
25  0.000000 -0.000011 -0.000001  0.868957 0.000002 1.570712
26  -7.717473 -6.750054 -1.145849  1.473120 1.855075 -0.198639
27  6.027505 -0.000258 -0.000239  1.326150 0.121460 -0.524101
28  11.691996 0.000244 0.000857  0.190108 0.000049 -1.538329
29  11.479981 -0.000468 0.000926  -0.878772 0.171579 0.068979
30  3.859436 -0.132789 1.193060  0.406972 -0.281772 -0.608989
31  1.312560 0.000026 0.000003  -0.000002 -0.000045 -0.148961
32  0.729346 0.000067 -0.000026  -0.000028 -0.000012 0.046463
33  3.942045 0.050109 0.430997  0.121277 -0.118787 -0.520714
34  1.539097 0.000011 0.000001  0.000007 -0.000010 0.042929
35  1.196299 0.000075 -0.000006  -0.000009 -0.000006 -0.140034
36  3.883411 -0.050502 -0.431086  -0.089865 -0.000690 -0.298025
37  1.719564 -0.000075 -0.000003  -0.002289 -0.007626 -0.075726
38  1.209198 0.000037 0.000011  -0.001276 -0.004274 0.074338
39  3.806437 -0.112149 -1.295331  -0.330197 0.136798 -0.257131
40  1.719412 -0.000098 -0.000034  -0.001915 -0.006300 -0.072277
41  1.099674 0.000025 0.000008  -0.001196 -0.004013 0.046405
42  0.889709 -0.317105 -1.125534  1.079795 0.646453 -0.910435
43  1.789778 -0.000009 -0.000041  0.011965 0.001552 -0.110981
44  1.206996 -0.000006 0.000006  0.005321 0.005317 0.007332
45  5.740572 0.000052 0.000725  0.133287 -0.000014 0.000021
46  11.480941 -0.000060 0.000934  0.134850 0.021068 -0.014279
47  6.027514 -0.000274 -0.000238  -0.205800 -0.936353 -1.928388
48  0.000000 11.691975 -0.000007  -1.052067 0.497289 0.824458
49  0.000003 -0.000000 0.000000  2.462637 -0.000041 1.570856
50  -0.000007 -0.000015 0.000005  2.272644 -0.000030 1.570865
51  -11.928285 -3.926227 -18.591270  -3.053077 0.141043 -1.486916
52  0.000000 -0.000001 -0.000003  0.008153 -0.000259 0.000009
53  -0.000000 0.000000 -0.000000  1.565115 0.043565 -0.106862
54  9.276629 -16.834793 -20.803673  0.840376 -0.232957 -1.792882
55  0.000000 -0.000001 0.000001  0.000000 -0.000000 -0.000002
56  0.000030 0.000028 0.000003  -1.571902 -0.044449 -0.106509
57  13.003136 -13.519597 -29.311415  1.570796 -0.000000 0.000000
58  -17.910236 4.363369 -20.770588  1.570796 -0.000000 0.000000
59  1.426353 -2.841573 -7.922645  1.570796 -0.000000 0.000000
60  -0.004311 0.001230 -0.000371  0.006898 -0.005534 -0.284229
61  -1.145853 8.015607 -6.393172  1.570796 -0.000000 0.000000
62  0.000000 0.000000 0.000000  -0.078727 -3.136056 0.284226
63  0.000000 0.000000 0.000000  1.567917 0.001717 -0.001759
64  -4.601371 -35.593407 -0.067483  1.566113 0.011607 1.234830
65  -0.219071 -1.337187 -0.135917  0.000000 -0.000000 0.000000
66  -0.219076 0.187971 19.478249  0.000000 -0.000000 0.000000
67  -0.245101 -1.134826 1.111318  0.000000 -0.000000 0.000000
68  -0.104050 -4.495923 7.879278  0.000000 -0.000000 0.000000
69  -0.198090 4.323281 -6.346653  0.000000 -0.000000 0.000000
70  -0.200447 -0.857878 4.877553  0.000000 -0.000000 0.000000
71  0.416033 -37.569645 0.132277  1.566113 0.011607 1.234830
time 8
0  0.000006 0.000000 0.000000  -1.570800 -1.391899 -1.570792
1  -7.689703 4.888140 1.705444  -1.544956 -1.855077 -0.198630
2  6.027517 -0.000319 0.000200  -1.140538 -0.184484 -0.882040
3  11.692111 0.000643 -0.000740  -0.898045 -0.000007 -1.188465
4  11.480258 0.000392 -0.000681  2.570194 -0.089724 -0.190295
5  3.859509 -0.142881 -1.192049  -0.465959 0.158650 -0.866002
6  1.312592 0.000013 0.000010  -0.000025 0.000045 -0.423938
7  0.729354 0.000055 0.000049  0.000017 0.000020 -0.228518
8  3.942144 0.046272 -0.431512  -0.150647 0.075590 -0.795448
9  1.539107 0.000082 0.000003  -0.000007 0.000021 -0.232044
10  1.196332 0.000145 0.000032  0.000012 0.000019 -0.414971
11  3.883505 -0.047270 0.431383  0.086231 0.020494 -0.572190
12  1.719575 -0.000027 0.000011  0.000102 0.005518 -0.350743
13  1.209177 0.000092 0.000013  0.000053 0.003091 -0.200637
14  4.085221 -0.082716 1.151043  0.353909 -0.047317 -0.519375
15  1.719448 -0.000013 0.000019  0.000093 0.004069 -0.347231
16  1.099675 0.000045 0.000009  0.000044 0.002578 -0.228592
17  0.971590 -1.283499 0.847612  -1.229612 -0.682263 -0.777883
18  1.789818 -0.000003 -0.000019  0.000011 0.000213 0.214889
19  1.207015 -0.000013 -0.000043  -0.000026 -0.000008 0.353625
20  5.740635 0.000412 -0.000703  0.209138 0.000003 0.000071
21  11.481063 0.000282 -0.000798  0.202517 -0.008703 -0.025604
22  6.027525 -0.000328 0.000203  -0.413782 -2.044339 -2.080309
23  0.000001 11.692099 -0.000007  -0.840602 -0.314283 -0.681308
24  0.000003 0.000009 -0.000002  -0.028961 -0.000031 1.570739
25  -0.000001 -0.000012 -0.000001  0.868957 0.000002 1.570712
26  -8.089106 -6.340706 -1.581023  1.473120 1.855075 -0.198639
27  6.027506 -0.000259 -0.000239  1.097952 0.157385 -0.604922
28  11.691991 0.000244 0.000858  0.162161 0.000029 -1.221716
29  11.480016 -0.000329 0.000883  -0.760504 0.196824 -0.077589
30  3.859434 -0.132789 1.193060  0.406972 -0.281772 -0.608989
31  1.312557 0.000025 -0.000002  -0.000002 -0.000045 -0.148961
32  0.729345 0.000063 -0.000029  -0.000028 -0.000012 0.046463
33  3.942045 0.050108 0.430995  0.121277 -0.118787 -0.520714
34  1.539094 0.000010 0.000000  0.000007 -0.000010 0.042929
35  1.196298 0.000077 -0.000005  -0.000009 -0.000006 -0.140034
36  3.883410 -0.050503 -0.431088  -0.089865 -0.000690 -0.298025
37  1.719566 -0.000078 -0.000004  -0.002289 -0.007626 -0.075726
38  1.209198 0.000034 0.000009  -0.001276 -0.004274 0.074338
39  3.806437 -0.112149 -1.295334  -0.330197 0.136798 -0.257131
40  1.719412 -0.000100 -0.000033  -0.001915 -0.006300 -0.072277
41  1.099674 0.000024 0.000005  -0.001196 -0.004013 0.046405
42  0.889709 -0.317104 -1.125536  1.079795 0.646452 -0.910435
43  1.789777 -0.000010 -0.000043  0.011965 0.001552 -0.110981
44  1.206996 -0.000008 0.000004  0.005321 0.005317 0.007332
45  5.740573 0.000054 0.000723  0.165110 -0.000014 0.000021
46  11.480949 -0.000029 0.000926  0.159255 0.018172 -0.047434
47  6.027514 -0.000274 -0.000237  -0.390114 -1.146137 -1.817294
48  -0.000002 11.691975 -0.000007  -0.861225 0.330398 0.696258
49  0.000003 -0.000001 0.000000  2.434701 -0.000041 1.570856
50  -0.000008 -0.000016 0.000005  2.272644 -0.000030 1.570865
51  -12.010034 -3.357504 -23.275858  0.185239 2.799714 1.701423
52  0.000000 0.000001 -0.000000  0.008153 -0.000259 0.000009
53  -0.000000 -0.000001 -0.000003  1.565115 0.043565 -0.106862
54  8.798118 -15.856884 -24.743332  0.612299 0.219854 -1.709127
55  -0.000000 -0.000002 -0.000000  0.000000 -0.000000 -0.000002
56  0.000031 0.000026 -0.000000  -1.571901 -0.044449 -0.106509
57  13.585442 -13.165195 -31.054340  1.570796 -0.000000 0.000000
58  -16.583290 3.604904 -22.124458  1.570796 -0.000000 0.000000
59  1.709759 -3.442159 -8.438027  1.570796 -0.000000 0.000000
60  -0.004311 0.001229 -0.000371  0.006898 -0.005534 -0.284229
61  -1.581028 7.678922 -6.831715  1.570796 -0.000000 0.000000
62  0.000000 0.000000 0.000000  -0.078727 -3.136056 0.284226
63  0.000000 0.000000 0.000000  1.569347 0.000865 -0.000885
64  -4.896439 -39.454384 0.208080  1.568542 0.005588 1.409048
65  -0.219073 -1.337187 -0.135916  0.000000 0.000000 -0.000000
66  -0.219073 0.187971 19.478251  0.000000 0.000000 -0.000000
67  -0.245094 -1.134826 1.111317  0.000000 0.000000 -0.000000
68  -0.104041 -4.495924 7.879277  0.000000 0.000000 -0.000000
69  -0.198098 4.323281 -6.346653  0.000000 0.000000 -0.000000
70  -0.200446 -0.857878 4.877554  0.000000 0.000000 -0.000000
71  0.387825 -40.532326 0.393478  1.568542 0.005588 1.409048
time 9
0  0.000006 0.000000 0.000000  -1.570800 -1.391899 -1.570792
1  -7.935892 5.308025 1.879746  -1.544956 -1.855077 -0.198630
2  6.027516 -0.000323 0.000199  -0.783383 -0.263216 -0.867214
3  11.692111 0.000643 -0.000738  -0.858685 0.000003 -0.952191
4  11.480889 0.000577 -0.000446  1.999132 -0.251744 -0.070690
5  3.859506 -0.142879 -1.192045  -0.468164 0.151540 -0.880272
6  1.312591 0.000013 0.000007  -0.000026 0.000045 -0.439738
7  0.729353 0.000050 0.000049  0.000017 0.000021 -0.244318
8  3.942139 0.046274 -0.431509  -0.151810 0.073212 -0.811101
9  1.539107 0.000082 0.000005  -0.000007 0.000021 -0.247841
10  1.196332 0.000148 0.000029  0.000011 0.000019 -0.430771
11  3.883503 -0.047267 0.431386  0.085898 0.021851 -0.587925
12  1.719572 -0.000028 0.000012  0.000015 0.005519 -0.366533
13  1.209178 0.000093 0.000011  0.000004 0.003092 -0.216437
14  4.085222 -0.082714 1.151044  0.354468 -0.042725 -0.531804
15  1.719450 -0.000010 0.000024  0.000029 0.004070 -0.363021
16  1.099674 0.000049 0.000005  0.000003 0.002579 -0.244381
17  0.971587 -1.283499 0.847614  -1.222687 -0.679194 -0.788886
18  1.789820 -0.000005 -0.000017  0.000012 -0.000024 0.228522
19  1.207014 -0.000010 -0.000043  0.000002 -0.000008 0.362858
20  5.740637 0.000409 -0.000702  0.111462 0.000003 0.000071
21  11.481192 0.000324 -0.000747  0.087863 -0.029131 -0.009860
22  6.027524 -0.000330 0.000202  -1.277165 -1.845993 -1.171647
23  0.000003 11.692095 -0.000008  -0.689274 -0.208684 -0.567600
24  0.000001 0.000008 -0.000001  0.010384 -0.000031 1.570739
25  -0.000001 -0.000012 -0.000001  0.868957 0.000002 1.570712
26  -8.317671 -6.088945 -1.848668  1.473120 1.855075 -0.198639
27  6.027506 -0.000257 -0.000238  0.868092 0.280594 -0.726934
28  11.691992 0.000245 0.000855  0.146414 0.000005 -0.788020
29  11.480670 0.000045 0.000818  -0.584238 0.207756 -0.223844
30  3.859434 -0.132789 1.193063  0.406972 -0.281773 -0.608989
31  1.312557 0.000025 0.000002  -0.000002 -0.000045 -0.148961
32  0.729345 0.000064 -0.000026  -0.000028 -0.000012 0.046463
33  3.942045 0.050109 0.430996  0.121277 -0.118787 -0.520714
34  1.539098 0.000010 -0.000002  0.000007 -0.000010 0.042929
35  1.196300 0.000076 -0.000006  -0.000009 -0.000006 -0.140034
36  3.883410 -0.050500 -0.431087  -0.089865 -0.000690 -0.298025
37  1.719565 -0.000076 -0.000006  -0.002289 -0.007626 -0.075726
38  1.209197 0.000034 0.000011  -0.001276 -0.004274 0.074338
39  3.806437 -0.112146 -1.295329  -0.330197 0.136798 -0.257131
40  1.719413 -0.000099 -0.000035  -0.001915 -0.006300 -0.072277
41  1.099675 0.000026 0.000007  -0.001196 -0.004012 0.046405
42  0.889709 -0.317103 -1.125532  1.079795 0.646453 -0.910435
43  1.789779 -0.000007 -0.000043  0.011965 0.001552 -0.110981
44  1.206995 -0.000007 0.000006  0.005321 0.005317 0.007332
45  5.740572 0.000058 0.000724  0.242078 -0.000014 0.000021
46  11.481078 0.000047 0.000912  0.195659 0.008989 -0.080793
47  6.027514 -0.000274 -0.000237  -1.049500 -1.245832 -1.271797
48  -0.000002 11.691974 -0.000005  -0.579046 0.145862 0.480946
49  0.000003 -0.000001 0.000001  2.418977 -0.000041 1.570856
50  -0.000007 -0.000017 0.000004  2.272644 -0.000030 1.570865
51  -12.063607 -2.812217 -27.044140  0.277302 2.610559 1.745089
52  0.000000 -0.000000 0.000001  0.008153 -0.000259 0.000009
53  -0.000001 0.000001 -0.000000  1.565115 0.043565 -0.106862
54  8.046787 -14.905921 -27.813686  0.366998 0.629445 -1.726332
55  -0.000001 0.000001 0.000000  0.000000 -0.000000 -0.000002
56  0.000030 0.000031 0.000000  -1.571901 -0.044449 -0.106509
57  13.943576 -12.947230 -32.126289  1.570796 -0.000000 0.000000
58  -15.712370 3.107099 -23.013042  1.570796 -0.000000 0.000000
59  1.884062 -3.811535 -8.755003  1.570796 -0.000000 0.000000
60  -0.004311 0.001229 -0.000371  0.006898 -0.005534 -0.284229
61  -1.848672 7.471850 -7.101431  1.570796 -0.000000 0.000000
62  0.000000 0.000000 0.000000  -0.078727 -3.136056 0.284226
63  0.000000 0.000000 0.000000  1.570391 0.000242 -0.000247
64  -5.096663 -42.074333 0.395068  1.570189 0.001505 1.527251
65  -0.219073 -1.337187 -0.135917  -0.000000 0.000000 0.000000
66  -0.219076 0.187971 19.478251  -0.000000 0.000000 0.000000
67  -0.245097 -1.134826 1.111317  -0.000000 0.000000 0.000000
68  -0.104050 -4.495923 7.879276  -0.000000 0.000000 0.000000
69  -0.198099 4.323280 -6.346652  -0.000000 0.000000 0.000000
70  -0.200451 -0.857878 4.877554  -0.000000 0.000000 0.000000
71  0.278109 -42.522373 0.570716  1.570189 0.001505 1.527251
time 10
0  0.000006 0.000000 0.000000  -1.570800 -1.391899 -1.570792
1  -8.017693 5.447542 1.937662  -1.544956 -1.855077 -0.198630
2  6.027517 -0.000322 0.000199  -0.644297 -0.302593 -0.898167
3  11.692116 0.000644 -0.000739  -0.845444 0.000006 -0.841812
4  11.480869 0.000574 -0.000451  1.773616 -0.242546 -0.016129
5  3.859513 -0.142878 -1.192046  -0.468164 0.151540 -0.880272
6  1.312591 0.000009 0.000008  -0.000026 0.000045 -0.439738
7  0.729353 0.000054 0.000051  0.000017 0.000021 -0.244318
8  3.942147 0.046273 -0.431509  -0.151810 0.073212 -0.811101
9  1.539111 0.000084 0.000009  -0.000007 0.000021 -0.247841
10  1.196336 0.000147 0.000028  0.000011 0.000019 -0.430771
11  3.883511 -0.047268 0.431383  0.085898 0.021851 -0.587925
12  1.719572 -0.000027 0.000016  0.000015 0.005519 -0.366533
13  1.209180 0.000092 0.000010  0.000004 0.003092 -0.216437
14  4.085225 -0.082715 1.151042  0.354468 -0.042725 -0.531804
15  1.719450 -0.000012 0.000018  0.000029 0.004070 -0.363021
16  1.099675 0.000047 0.000006  0.000003 0.002579 -0.244381
17  0.971590 -1.283498 0.847611  -1.222687 -0.679194 -0.788886
18  1.789820 -0.000003 -0.000018  0.000012 -0.000024 0.228522
19  1.207017 -0.000013 -0.000042  0.000002 -0.000008 0.362858
20  5.740638 0.000408 -0.000703  0.070095 0.000003 0.000071
21  11.481186 0.000324 -0.000748  0.044190 -0.026250 -0.006789
22  6.027524 -0.000331 0.000202  -1.753023 -1.878564 -0.707161
23  0.000002 11.692101 -0.000009  -0.615659 -0.165421 -0.509997
24  0.000003 0.000007 -0.000002  0.023617 -0.000031 1.570738
25  -0.000000 -0.000012 -0.000001  0.868957 0.000002 1.570712
26  -8.393617 -6.005292 -1.937599  1.473120 1.855075 -0.198639
27  6.027507 -0.000257 -0.000237  0.763165 0.350920 -0.816794
28  11.691991 0.000244 0.000857  0.141395 -0.000000 -0.547392
29  11.480382 0.000018 0.000821  -0.503860 0.202454 -0.309882
30  3.859434 -0.132788 1.193062  0.406972 -0.281772 -0.608989
31  1.312557 0.000027 -0.000001  -0.000002 -0.000045 -0.148961
32  0.729344 0.000060 -0.000028  -0.000028 -0.000012 0.046463
33  3.942043 0.050108 0.430995  0.121277 -0.118787 -0.520714
34  1.539098 0.000014 -0.000000  0.000007 -0.000010 0.042929
35  1.196300 0.000074 -0.000005  -0.000009 -0.000006 -0.140034
36  3.883409 -0.050502 -0.431087  -0.089865 -0.000690 -0.298025
37  1.719568 -0.000077 -0.000003  -0.002289 -0.007626 -0.075726
38  1.209195 0.000039 0.000013  -0.001276 -0.004274 0.074338
39  3.806435 -0.112149 -1.295331  -0.330197 0.136798 -0.257131
40  1.719409 -0.000099 -0.000039  -0.001915 -0.006300 -0.072277
41  1.099675 0.000026 0.000005  -0.001196 -0.004013 0.046405
42  0.889707 -0.317103 -1.125535  1.079794 0.646453 -0.910435
43  1.789779 -0.000010 -0.000041  0.011965 0.001552 -0.110981
44  1.206994 -0.000005 0.000005  0.005321 0.005317 0.007332
45  5.740575 0.000055 0.000723  0.308055 -0.000014 0.000021
46  11.481024 0.000039 0.000914  0.212454 -0.000311 -0.098592
47  6.027514 -0.000273 -0.000236  -1.404938 -1.214845 -0.993559
48  -0.000000 11.691975 -0.000005  -0.409884 0.072127 0.343613
49  0.000004 0.000002 -0.000001  2.413975 -0.000041 1.570856
50  -0.000006 -0.000015 0.000005  2.272644 -0.000030 1.570865
51  -12.080094 -2.607073 -28.354927  0.313880 2.540827 1.764035
52  0.000004 -0.000000 -0.000002  0.008153 -0.000259 0.000009
53  -0.000002 0.000000 0.000000  1.565115 0.043565 -0.106862
54  7.720896 -14.546185 -28.864317  0.255881 0.766400 -1.766008
55  0.000002 0.000000 -0.000003  0.000000 -0.000000 -0.000002
56  0.000033 0.000029 -0.000001  -1.571901 -0.044449 -0.106509
57  14.062574 -12.874806 -32.482468  1.570796 -0.000000 0.000000
58  -15.417985 2.938832 -23.313402  1.570796 -0.000000 0.000000
59  1.941978 -3.934269 -8.860325  1.570796 -0.000000 0.000000
60  -0.004311 0.001229 -0.000371  0.006898 -0.005534 -0.284229
61  -1.937603 7.403047 -7.191051  1.570796 -0.000000 0.000000
62  0.000000 0.000000 0.000000  -0.078727 -3.136056 0.284226
63  0.000000 0.000000 0.000000  1.570796 -0.000000 0.000000
64  -5.170429 -43.039589 0.463959  1.570796 -0.000000 1.570796
65  -0.219071 -1.337187 -0.135917  0.000000 -0.000000 0.000000
66  -0.219077 0.187971 19.478251  0.000000 -0.000000 0.000000
67  -0.245098 -1.134826 1.111317  0.000000 -0.000000 0.000000
68  -0.104046 -4.495923 7.879276  0.000000 -0.000000 0.000000
69  -0.198094 4.323280 -6.346653  0.000000 -0.000000 0.000000
70  -0.200447 -0.857878 4.877554  0.000000 -0.000000 0.000000
71  0.218857 -43.253502 0.636014  1.570796 -0.000000 1.570796
end
