version 1
nodes
0 "ValveBiped.Bip01_Spine4" -1
1 "ValveBiped.Bip01_L_Clavicle" 0
2 "ValveBiped.Bip01_L_UpperArm" 1
3 "ValveBiped.Bip01_L_Forearm" 2
4 "ValveBiped.Bip01_L_Hand" 3
5 "ValveBiped.Bip01_L_Finger4" 4
6 "ValveBiped.Bip01_L_Finger41" 5
7 "ValveBiped.Bip01_L_Finger42" 6
8 "ValveBiped.Bip01_L_Finger3" 4
9 "ValveBiped.Bip01_L_Finger31" 8
10 "ValveBiped.Bip01_L_Finger32" 9
11 "ValveBiped.Bip01_L_Finger2" 4
12 "ValveBiped.Bip01_L_Finger21" 11
13 "ValveBiped.Bip01_L_Finger22" 12
14 "ValveBiped.Bip01_L_Finger1" 4
15 "ValveBiped.Bip01_L_Finger11" 14
16 "ValveBiped.Bip01_L_Finger12" 15
17 "ValveBiped.Bip01_L_Finger0" 4
18 "ValveBiped.Bip01_L_Finger01" 17
19 "ValveBiped.Bip01_L_Finger02" 18
20 "ValveBiped.Bip01_L_Ulna" 3
21 "ValveBiped.Bip01_L_Wrist" 3
22 "rig_l_upperarm" 1
23 "rig_l_forearm" 22
24 "rig_d_l_forearm" 23
25 "rig_d_l_upperarm" 22
26 "ValveBiped.Bip01_R_Clavicle" 0
27 "ValveBiped.Bip01_R_UpperArm" 26
28 "ValveBiped.Bip01_R_Forearm" 27
29 "ValveBiped.Bip01_R_Hand" 28
30 "ValveBiped.Bip01_R_Finger4" 29
31 "ValveBiped.Bip01_R_Finger41" 30
32 "ValveBiped.Bip01_R_Finger42" 31
33 "ValveBiped.Bip01_R_Finger3" 29
34 "ValveBiped.Bip01_R_Finger31" 33
35 "ValveBiped.Bip01_R_Finger32" 34
36 "ValveBiped.Bip01_R_Finger2" 29
37 "ValveBiped.Bip01_R_Finger21" 36
38 "ValveBiped.Bip01_R_Finger22" 37
39 "ValveBiped.Bip01_R_Finger1" 29
40 "ValveBiped.Bip01_R_Finger11" 39
41 "ValveBiped.Bip01_R_Finger12" 40
42 "ValveBiped.Bip01_R_Finger0" 29
43 "ValveBiped.Bip01_R_Finger01" 42
44 "ValveBiped.Bip01_R_Finger02" 43
45 "ValveBiped.Bip01_R_Ulna" 28
46 "ValveBiped.Bip01_R_Wrist" 28
47 "rig_r_upperarm" 26
48 "rig_r_forearm" 47
49 "rig_d_r_forearm" 48
50 "rig_d_r_upperarm" 47
51 "rig_r_hand" -1
52 "rig_d_r_hand" 51
53 "rig_d_r_wrist" 52
54 "rig_l_hand" -1
55 "rig_d_l_hand" 54
56 "rig_d_l_wrist" 54
57 "rig_l_pole" -1
58 "rig_r_pole" -1
59 "rig_l_clavicle" -1
60 "rig_d_l_clavicle" 59
61 "rig_r_clavicle" -1
62 "rig_d_r_clavicle" 61
63 "Camera" -1
64 "body" -1
65 "trigger" 64
66 "barrel" 64
67 "bulletdoor" 64
68 "pump" 64
69 "bolt" 68
70 "bullet2" 64
71 "bullet1" -1
end
skeleton
time 0
0  0.000006 0.000000 0.000000  -1.570800 -1.391899 -1.570792
1  -4.327822 -0.845730 -0.674796  -1.544956 -1.855077 -0.198630
2  6.027522 -0.000325 0.000193  -1.083976 -1.086123 -1.027963
3  11.692108 0.000643 -0.000739  -1.361397 -0.000017 -1.403543
4  11.479845 0.000598 -0.000715  1.250847 -0.650183 0.182922
5  3.859507 -0.142880 -1.192050  -0.550885 -0.255832 -1.866282
6  1.312589 0.000011 0.000008  -0.134281 -0.007565 -0.192402
7  0.729355 0.000053 0.000049  -0.007819 -0.009377 -0.049784
8  3.942143 0.046273 -0.431512  -0.484645 0.035664 -1.413041
9  1.539110 0.000084 0.000006  -0.033414 -0.056767 -0.605686
10  1.196333 0.000146 0.000029  0.006942 0.002367 -0.289526
11  3.883504 -0.047270 0.431381  -0.270346 0.409995 -0.746893
12  1.719574 -0.000025 0.000015  0.028923 -0.121328 -1.267494
13  1.209181 0.000091 0.000011  -0.006830 -0.001497 -0.302684
14  4.085222 -0.082717 1.151040  0.033977 0.537783 -0.030448
15  1.719448 -0.000012 0.000021  0.011888 -0.076325 -0.864457
16  1.099677 0.000049 0.000008  -0.070447 0.038185 -1.423970
17  0.971586 -1.283500 0.847609  -0.978328 -0.625347 -0.310208
18  1.789819 -0.000003 -0.000018  0.000998 -0.014468 0.721478
19  1.207014 -0.000012 -0.000044  0.001593 -0.000026 -0.111145
20  5.740637 0.000410 -0.000703  -0.102302 0.000003 0.000070
21  11.480977 0.000331 -0.000801  -0.044067 -0.113656 0.004137
22  6.027525 -0.000329 0.000203  1.764698 -0.447139 1.687268
23  0.000003 11.692097 -0.000007  -0.972005 -0.423545 -0.772959
24  0.000002 0.000008 -0.000002  -0.492302 -0.000030 1.570739
25  -0.000000 -0.000012 -0.000001  0.868957 0.000002 1.570712
26  -4.967872 -9.778694 2.073871  1.473120 1.855075 -0.198639
27  6.027506 -0.000260 -0.000228  1.635052 0.667616 -0.409132
28  11.691990 0.000243 0.000855  0.564399 0.000074 -1.872975
29  11.479037 -0.000608 0.001361  -1.122655 0.561512 0.950134
30  3.859435 -0.132789 1.193063  0.385277 -0.029729 -1.748803
31  1.312558 0.000026 -0.000001  -0.013756 -0.031530 -0.953722
32  0.729344 0.000065 -0.000027  -0.198329 0.044732 -0.857780
33  3.942045 0.050108 0.430998  0.369881 -0.091819 -1.556998
34  1.539097 0.000011 -0.000001  -0.013288 -0.027151 -1.132776
35  1.196299 0.000075 -0.000005  0.000968 -0.002436 -0.994639
36  3.883410 -0.050502 -0.431086  0.299105 -0.220225 -1.386726
37  1.719565 -0.000076 -0.000002  -0.038529 0.030961 -1.462450
38  1.209198 0.000035 0.000012  -0.001756 -0.004187 -0.773865
39  3.806435 -0.112148 -1.295330  -0.043217 0.216601 -0.110445
40  1.719413 -0.000099 -0.000034  0.405558 -0.239444 -1.567406
41  1.099673 0.000025 0.000006  0.071243 -0.008553 -0.826702
42  0.889709 -0.317103 -1.125532  0.901376 0.231327 -0.743910
43  1.789779 -0.000009 -0.000042  0.027227 0.044051 -0.011391
44  1.206996 -0.000007 0.000006  -0.019167 -0.151093 1.385408
45  5.740571 0.000056 0.000723  0.130693 -0.000014 0.000021
46  11.480750 -0.000085 0.001021  0.040986 0.118700 0.147326
47  6.027514 -0.000272 -0.000237  -0.775885 -0.486463 -1.549963
48  -0.000001 11.691974 -0.000007  -1.248775 0.694201 0.930532
49  0.000003 -0.000001 -0.000000  2.836924 -0.000041 1.570856
50  -0.000006 -0.000015 0.000004  2.272644 -0.000030 1.570865
51  -3.575318 -3.254460 -5.140279  -0.088564 3.110763 1.447833
52  0.000000 -0.000000 -0.000000  0.008153 -0.000259 0.000009
53  -0.000000 0.000000 0.000000  1.565115 0.043565 -0.106862
54  -0.773287 -15.091065 -4.807849  -0.934859 -0.075665 -1.946360
55  -0.000002 -0.000001 0.000000  0.000000 -0.000000 -0.000002
56  0.000029 0.000028 0.000001  -1.571901 -0.044449 -0.106509
57  8.694838 -16.141689 -16.416052  1.570796 -0.000000 0.000000
58  -16.922342 4.543208 -16.901630  1.570796 -0.000000 0.000000
59  -0.670483 1.601972 -4.109488  1.570796 -0.000000 0.000000
60  -0.004311 0.001230 -0.000371  0.006898 -0.005534 -0.284229
61  2.073871 10.506637 -3.148526  1.570796 -0.000000 0.000000
62  0.000000 0.000000 0.000000  -0.078727 -3.136056 0.284226
63  -2.754978 -2.788567 -0.424380  1.570796 -0.000000 0.000000
64  -2.535900 -8.566546 -1.996421  1.570796 -0.000000 0.000000
65  -0.219072 -1.337187 -0.135917  0.371690 0.010165 0.004104
66  -0.219078 0.187971 19.478249  0.000000 -0.000000 0.000000
67  -0.245097 -1.134826 1.111317  0.000000 -0.000000 0.000000
68  -0.104048 -4.495923 7.879277  0.000000 -0.000000 0.000000
69  -0.195264 4.332630 -6.347187  0.000000 -0.000000 0.000000
70  -0.200449 -0.857878 7.005424  0.000000 -0.000000 0.000000
71  -2.749808 -13.444100 -2.854299  1.570796 -0.000000 0.000000
time 1
0  0.000006 0.000000 0.000000  -1.570800 -1.391899 -1.570792
1  -4.327822 -0.845730 -0.674796  -1.544956 -1.855077 -0.198630
2  6.027522 -0.000325 0.000193  -1.085951 -1.065371 -1.007929
3  11.692107 0.000643 -0.000739  -1.361402 -0.000024 -1.521823
4  11.480286 0.000637 -0.000537  1.220986 -0.690542 0.110558
5  3.859507 -0.142880 -1.192049  -0.550885 -0.255832 -1.866282
6  1.312590 0.000012 0.000006  -0.134281 -0.007565 -0.192402
7  0.729356 0.000054 0.000049  -0.007819 -0.009377 -0.049784
8  3.942142 0.046273 -0.431512  -0.484645 0.035664 -1.413041
9  1.539111 0.000083 0.000004  -0.033414 -0.056767 -0.605686
10  1.196334 0.000145 0.000029  0.006943 0.002367 -0.289526
11  3.883504 -0.047269 0.431382  -0.270346 0.409995 -0.746893
12  1.719572 -0.000027 0.000016  0.028923 -0.121328 -1.267494
13  1.209181 0.000090 0.000013  -0.006830 -0.001496 -0.302684
14  4.085221 -0.082716 1.151041  0.033977 0.537783 -0.030448
15  1.719450 -0.000010 0.000023  0.011888 -0.076325 -0.864457
16  1.099676 0.000047 0.000006  -0.070447 0.038185 -1.423970
17  0.971587 -1.283499 0.847609  -0.978328 -0.625347 -0.310208
18  1.789821 -0.000004 -0.000017  0.000998 -0.014468 0.721478
19  1.207014 -0.000012 -0.000043  0.001593 -0.000026 -0.111145
20  5.740636 0.000411 -0.000704  -0.130675 0.000003 0.000071
21  11.481064 0.000340 -0.000766  -0.051729 -0.120469 -0.012968
22  6.027525 -0.000329 0.000203  1.775276 -0.465614 1.700902
23  0.000001 11.692101 -0.000007  -1.042379 -0.488083 -0.818368
24  0.000003 0.000009 0.000000  -0.492302 -0.000031 1.570738
25  -0.000001 -0.000011 -0.000001  0.868957 0.000002 1.570712
26  -4.967872 -9.778694 2.073871  1.473120 1.855075 -0.198639
27  6.027506 -0.000260 -0.000229  1.625383 0.600288 -0.416115
28  11.691992 0.000242 0.000854  0.564398 0.000083 -1.984223
29  11.478062 -0.000987 0.001603  -1.220579 0.624839 0.931986
30  3.859435 -0.132789 1.193062  0.385277 -0.029729 -1.748803
31  1.312559 0.000025 -0.000001  -0.013756 -0.031530 -0.953722
32  0.729344 0.000066 -0.000027  -0.198329 0.044732 -0.857780
33  3.942044 0.050109 0.430996  0.369881 -0.091819 -1.556998
34  1.539097 0.000011 -0.000000  -0.013288 -0.027151 -1.132777
35  1.196300 0.000075 -0.000004  0.000968 -0.002436 -0.994639
36  3.883410 -0.050502 -0.431087  0.299105 -0.220225 -1.386726
37  1.719564 -0.000076 -0.000003  -0.038529 0.030961 -1.462450
38  1.209198 0.000035 0.000012  -0.001756 -0.004187 -0.773865
39  3.806435 -0.112148 -1.295330  -0.043217 0.216601 -0.110445
40  1.719412 -0.000098 -0.000035  0.405558 -0.239444 -1.567406
41  1.099674 0.000025 0.000005  0.071242 -0.008553 -0.826702
42  0.889709 -0.317103 -1.125533  0.901376 0.231327 -0.743911
43  1.789778 -0.000009 -0.000043  0.027227 0.044051 -0.011391
44  1.206995 -0.000006 0.000006  -0.019167 -0.151093 1.385408
45  5.740571 0.000055 0.000724  0.115445 -0.000014 0.000021
46  11.480556 -0.000161 0.001071  0.018626 0.122739 0.146992
47  6.027514 -0.000272 -0.000237  -0.709193 -0.520854 -1.583417
48  -0.000001 11.691975 -0.000006  -1.315521 0.763035 0.957921
49  0.000003 -0.000002 0.000000  2.836925 -0.000041 1.570856
50  -0.000006 -0.000015 0.000005  2.272644 -0.000030 1.570865
51  -3.667530 -2.190969 -5.282857  2.967974 -0.038845 -1.704937
52  0.000000 -0.000000 0.000000  0.008153 -0.000259 0.000009
53  -0.000000 -0.000000 -0.000000  1.565115 0.043565 -0.106862
54  -0.950650 -14.027452 -4.519104  -1.000612 -0.164136 -1.950003
55  -0.000000 0.000000 -0.000000  0.000000 -0.000000 -0.000002
56  0.000029 0.000029 0.000001  -1.571901 -0.044449 -0.106509
57  8.694838 -16.141689 -16.416052  1.570796 -0.000000 0.000000
58  -16.922342 4.543208 -16.901630  1.570796 -0.000000 0.000000
59  -0.670483 1.601972 -4.109488  1.570796 -0.000000 0.000000
60  -0.004311 0.001230 -0.000371  0.006898 -0.005534 -0.284229
61  2.073871 10.506637 -3.148526  1.570796 -0.000000 0.000000
62  0.000000 0.000000 0.000000  -0.078727 -3.136056 0.284226
63  -2.754978 -2.788567 -0.424380  1.570796 -0.006383 0.000000
64  -2.385540 -7.327715 -1.943273  1.511938 0.092906 -0.014255
65  -0.219072 -1.337187 -0.135917  0.371690 0.010165 0.004104
66  -0.219078 0.187971 19.478251  0.000000 -0.000000 -0.000000
67  -0.245097 -1.134826 1.111317  -0.349066 -0.000000 -0.000000
68  -0.104047 -4.495923 7.879276  0.000000 -0.000000 -0.000000
69  -0.195264 4.332630 -9.429946  0.000000 -0.000000 -0.000000
70  -0.200449 -0.857878 5.941489  0.000000 -0.000000 -0.000000
71  -2.643723 -9.839046 -1.965555  1.327379 0.092906 -0.014255
time 2
0  0.000006 0.000000 0.000000  -1.570800 -1.391899 -1.570792
1  -4.327822 -0.845730 -0.674796  -1.544956 -1.855077 -0.198630
2  6.027522 -0.000325 0.000193  -1.082192 -1.075341 -1.018106
3  11.692106 0.000643 -0.000738  -1.361401 -0.000023 -1.509647
4  11.480383 0.000650 -0.000475  1.229107 -0.687582 0.137235
5  3.859508 -0.142879 -1.192049  -0.550885 -0.255832 -1.866282
6  1.312590 0.000012 0.000009  -0.134281 -0.007565 -0.192402
7  0.729354 0.000054 0.000050  -0.007819 -0.009377 -0.049784
8  3.942142 0.046274 -0.431512  -0.484645 0.035664 -1.413040
9  1.539110 0.000083 0.000005  -0.033414 -0.056767 -0.605686
10  1.196332 0.000147 0.000030  0.006943 0.002367 -0.289526
11  3.883503 -0.047268 0.431381  -0.270346 0.409995 -0.746893
12  1.719573 -0.000026 0.000014  0.028923 -0.121328 -1.267494
13  1.209179 0.000091 0.000011  -0.006830 -0.001497 -0.302684
14  4.085220 -0.082715 1.151041  0.033977 0.537783 -0.030448
15  1.719448 -0.000012 0.000022  0.011888 -0.076325 -0.864457
16  1.099675 0.000049 0.000006  -0.070446 0.038185 -1.423970
17  0.971586 -1.283499 0.847609  -0.978328 -0.625347 -0.310208
18  1.789819 -0.000004 -0.000018  0.000999 -0.014468 0.721478
19  1.207016 -0.000012 -0.000044  0.001594 -0.000026 -0.111145
20  5.740637 0.000410 -0.000703  -0.125727 0.000003 0.000070
21  11.481085 0.000342 -0.000751  -0.049024 -0.120374 -0.007236
22  6.027525 -0.000329 0.000203  1.768806 -0.457302 1.696904
23  0.000002 11.692097 -0.000007  -1.035179 -0.481309 -0.813861
24  0.000003 0.000009 -0.000002  -0.492302 -0.000031 1.570739
25  -0.000002 -0.000012 -0.000000  0.868957 0.000002 1.570712
26  -4.967872 -9.778694 2.073871  1.473120 1.855075 -0.198639
27  6.027506 -0.000260 -0.000229  1.627488 0.611621 -0.414896
28  11.691992 0.000242 0.000855  0.564398 0.000082 -1.978450
29  11.478113 -0.000970 0.001591  -1.185044 0.628915 0.951441
30  3.859435 -0.132789 1.193062  0.385277 -0.029729 -1.748803
31  1.312559 0.000026 -0.000000  -0.013756 -0.031530 -0.953722
32  0.729345 0.000066 -0.000028  -0.198329 0.044732 -0.857780
33  3.942045 0.050108 0.430998  0.369881 -0.091819 -1.556998
34  1.539097 0.000012 -0.000001  -0.013288 -0.027151 -1.132776
35  1.196299 0.000075 -0.000005  0.000968 -0.002436 -0.994639
36  3.883410 -0.050502 -0.431087  0.299105 -0.220225 -1.386726
37  1.719565 -0.000076 -0.000003  -0.038529 0.030961 -1.462450
38  1.209198 0.000035 0.000012  -0.001756 -0.004187 -0.773865
39  3.806436 -0.112148 -1.295330  -0.043217 0.216601 -0.110445
40  1.719414 -0.000098 -0.000035  0.405558 -0.239444 -1.567406
41  1.099674 0.000025 0.000006  0.071242 -0.008553 -0.826702
42  0.889709 -0.317103 -1.125532  0.901376 0.231327 -0.743911
43  1.789779 -0.000009 -0.000042  0.027227 0.044051 -0.011391
44  1.206996 -0.000007 0.000006  -0.019167 -0.151093 1.385408
45  5.740571 0.000056 0.000724  0.123251 -0.000014 0.000021
46  11.480565 -0.000157 0.001069  0.023471 0.126265 0.147994
47  6.027514 -0.000272 -0.000237  -0.720391 -0.514792 -1.577854
48  -0.000002 11.691975 -0.000006  -1.312015 0.759431 0.956612
49  0.000003 -0.000001 0.000000  2.836925 -0.000041 1.570856
50  -0.000007 -0.000015 0.000005  2.272644 -0.000030 1.570865
51  -3.597734 -2.249194 -5.198969  -0.147832 -3.109761 1.428458
52  -0.000000 -0.000000 -0.000001  0.008153 -0.000259 0.000009
53  -0.000001 -0.000000 -0.000000  1.565115 0.043565 -0.106862
54  -0.987819 -14.107728 -4.404884  -0.977039 -0.151047 -1.960989
55  -0.000001 0.000001 0.000000  0.000000 -0.000000 -0.000002
56  0.000029 0.000029 0.000001  -1.571901 -0.044449 -0.106509
57  8.694838 -16.141689 -16.416052  1.570796 -0.000000 0.000000
58  -16.922342 4.543208 -16.901630  1.570796 -0.000000 0.000000
59  -0.670483 1.601972 -4.109488  1.570796 -0.000000 0.000000
60  -0.004311 0.001230 -0.000371  0.006898 -0.005534 -0.284229
61  2.073871 10.506637 -3.148526  1.570796 -0.000000 0.000000
62  0.000000 0.000000 0.000000  -0.078727 -3.136056 0.284226
63  -2.754978 -2.788567 -0.424380  1.570796 -0.004099 0.000000
64  -2.441918 -7.406187 -1.844569  1.515815 0.066479 -0.021233
65  -0.219071 -1.337187 -0.135916  0.371690 0.010165 0.004104
66  -0.219077 0.187972 19.478252  0.000000 0.000000 0.000000
67  -0.245097 -1.134826 1.111318  -0.174533 0.000000 0.000000
68  -0.104047 -4.495924 7.879278  0.000000 0.000000 0.000000
69  -0.195264 4.332630 -7.888566  0.000000 0.000000 0.000000
70  -0.200448 -0.857878 4.877555  0.000000 0.000000 0.000000
71  -2.722336 -11.240973 -1.449296  1.515815 0.066479 -0.021233
time 3
0  0.000006 0.000000 0.000000  -1.570800 -1.391899 -1.570792
1  -4.327822 -0.845730 -0.674796  -1.544956 -1.855077 -0.198630
2  6.027522 -0.000325 0.000193  -1.092422 -1.080793 -1.021654
3  11.692107 0.000643 -0.000739  -1.361401 -0.000022 -1.493624
4  11.480519 0.000668 -0.000392  1.263327 -0.693712 0.177293
5  3.859507 -0.142880 -1.192050  -0.550885 -0.255832 -1.866282
6  1.312589 0.000012 0.000007  -0.134281 -0.007565 -0.192402
7  0.729355 0.000054 0.000049  -0.007819 -0.009377 -0.049784
8  3.942144 0.046273 -0.431512  -0.484645 0.035664 -1.413041
9  1.539111 0.000086 0.000006  -0.033414 -0.056767 -0.605686
10  1.196331 0.000144 0.000031  0.006942 0.002367 -0.289526
11  3.883504 -0.047269 0.431381  -0.270346 0.409995 -0.746893
12  1.719573 -0.000026 0.000015  0.028923 -0.121328 -1.267494
13  1.209180 0.000090 0.000011  -0.006830 -0.001496 -0.302684
14  4.085220 -0.082716 1.151040  0.033977 0.537783 -0.030448
15  1.719449 -0.000011 0.000023  0.011888 -0.076325 -0.864457
16  1.099675 0.000049 0.000006  -0.070447 0.038185 -1.423970
17  0.971588 -1.283499 0.847609  -0.978328 -0.625347 -0.310208
18  1.789820 -0.000002 -0.000018  0.000998 -0.014468 0.721478
19  1.207016 -0.000012 -0.000043  0.001593 -0.000026 -0.111145
20  5.740636 0.000411 -0.000702  -0.113761 0.000003 0.000071
21  11.481112 0.000345 -0.000734  -0.040617 -0.121900 0.002549
22  6.027525 -0.000329 0.000203  1.771159 -0.450326 1.683311
23  0.000002 11.692099 -0.000006  -1.025692 -0.472439 -0.807872
24  0.000002 0.000009 -0.000000  -0.492302 -0.000031 1.570739
25  -0.000000 -0.000011 -0.000000  0.868957 0.000002 1.570712
26  -4.967872 -9.778694 2.073871  1.473120 1.855075 -0.198639
27  6.027507 -0.000260 -0.000229  1.627985 0.625484 -0.413945
28  11.691991 0.000243 0.000856  0.564399 0.000081 -1.959668
29  11.478278 -0.000911 0.001554  -1.123115 0.612864 0.959182
30  3.859436 -0.132789 1.193062  0.385277 -0.029729 -1.748803
31  1.312558 0.000027 -0.000000  -0.013756 -0.031530 -0.953722
32  0.729345 0.000066 -0.000027  -0.198329 0.044732 -0.857780
33  3.942045 0.050108 0.430997  0.369881 -0.091819 -1.556998
34  1.539096 0.000012 -0.000001  -0.013288 -0.027151 -1.132777
35  1.196300 0.000075 -0.000005  0.000968 -0.002436 -0.994639
36  3.883410 -0.050502 -0.431087  0.299105 -0.220225 -1.386726
37  1.719565 -0.000076 -0.000003  -0.038529 0.030961 -1.462450
38  1.209198 0.000035 0.000011  -0.001756 -0.004187 -0.773865
39  3.806436 -0.112148 -1.295330  -0.043217 0.216601 -0.110445
40  1.719413 -0.000098 -0.000034  0.405558 -0.239444 -1.567406
41  1.099674 0.000025 0.000005  0.071242 -0.008553 -0.826702
42  0.889709 -0.317103 -1.125533  0.901376 0.231327 -0.743910
43  1.789779 -0.000009 -0.000043  0.027227 0.044051 -0.011391
44  1.206996 -0.000007 0.000006  -0.019167 -0.151093 1.385408
45  5.740571 0.000056 0.000724  0.135124 -0.000014 0.000021
46  11.480599 -0.000146 0.001060  0.035422 0.127950 0.146047
47  6.027514 -0.000272 -0.000237  -0.734781 -0.508879 -1.570144
48  -0.000002 11.691975 -0.000006  -1.300646 0.747727 0.952266
49  0.000003 -0.000000 -0.000000  2.836925 -0.000041 1.570856
50  -0.000007 -0.000015 0.000005  2.272644 -0.000030 1.570865
51  -3.549661 -2.431079 -5.163376  -0.091260 -3.126541 1.435544
52  -0.000000 -0.000000 0.000000  0.008153 -0.000259 0.000009
53  0.000000 -0.000000 -0.000000  1.565115 0.043565 -0.106862
54  -0.887830 -14.274641 -4.319680  -0.925941 -0.120761 -1.959502
55  0.000000 -0.000001 0.000000  0.000000 -0.000000 -0.000002
56  0.000030 0.000029 0.000001  -1.571901 -0.044449 -0.106509
57  8.694838 -16.141689 -16.416052  1.570796 -0.000000 0.000000
58  -16.922342 4.543208 -16.901630  1.570796 -0.000000 0.000000
59  -0.670483 1.601972 -4.109488  1.570796 -0.000000 0.000000
60  -0.004311 0.001230 -0.000371  0.006898 -0.005534 -0.284229
61  2.073871 10.506637 -3.148526  1.570796 -0.000000 0.000000
62  0.000000 0.000000 0.000000  -0.078727 -3.136056 0.284226
63  -2.754978 -2.788567 -0.424380  1.570796 0.000143 0.000000
64  -2.546621 -7.608562 -1.791422  1.525591 0.008301 -0.012455
65  -0.219072 -1.337187 -0.135917  0.371690 0.010165 0.004104
66  -0.219078 0.187971 19.478254  0.000000 0.000000 -0.000000
67  -0.245097 -1.134826 1.111317  0.000000 0.000000 -0.000000
68  -0.104047 -4.495924 7.879276  0.000000 0.000000 -0.000000
69  -0.195263 4.332631 -6.347188  0.000000 0.000000 -0.000000
70  -0.200449 -0.857877 4.877553  0.000000 0.000000 -0.000000
71  -2.824014 -12.981531 -1.374239  1.525591 0.008301 -0.012455
time 4
0  0.000006 0.000000 0.000000  -1.570800 -1.391899 -1.570792
1  -4.327822 -0.845730 -0.674796  -1.544956 -1.855077 -0.198630
2  6.027522 -0.000325 0.000193  -1.108953 -1.081615 -1.019638
3  11.692107 0.000644 -0.000739  -1.361400 -0.000021 -1.474701
4  11.480680 0.000688 -0.000293  1.299480 -0.698200 0.214952
5  3.859508 -0.142880 -1.192050  -0.550885 -0.255832 -1.866282
6  1.312589 0.000012 0.000009  -0.134281 -0.007565 -0.192402
7  0.729356 0.000054 0.000049  -0.007819 -0.009377 -0.049784
8  3.942142 0.046273 -0.431513  -0.484645 0.035664 -1.413041
9  1.539111 0.000085 0.000005  -0.033414 -0.056767 -0.605686
10  1.196331 0.000147 0.000030  0.006942 0.002367 -0.289526
11  3.883503 -0.047269 0.431381  -0.270346 0.409995 -0.746893
12  1.719573 -0.000027 0.000017  0.028923 -0.121328 -1.267494
13  1.209178 0.000090 0.000013  -0.006830 -0.001496 -0.302684
14  4.085220 -0.082715 1.151040  0.033977 0.537783 -0.030448
15  1.719449 -0.000011 0.000023  0.011888 -0.076325 -0.864457
16  1.099676 0.000049 0.000007  -0.070447 0.038185 -1.423970
17  0.971587 -1.283499 0.847609  -0.978328 -0.625347 -0.310208
18  1.789818 -0.000002 -0.000018  0.000998 -0.014468 0.721478
19  1.207015 -0.000011 -0.000044  0.001593 -0.000026 -0.111145
20  5.740636 0.000410 -0.000704  -0.100311 0.000003 0.000071
21  11.481142 0.000350 -0.000717  -0.032025 -0.122813 0.012091
22  6.027525 -0.000329 0.000203  1.778550 -0.446234 1.667535
23  0.000001 11.692099 -0.000007  -1.014465 -0.462029 -0.800712
24  0.000004 0.000008 -0.000002  -0.492302 -0.000030 1.570739
25  -0.000001 -0.000011 -0.000001  0.868957 0.000002 1.570712
26  -4.967872 -9.778694 2.073871  1.473120 1.855075 -0.198639
27  6.027507 -0.000260 -0.000229  1.624611 0.642389 -0.414000
28  11.691992 0.000243 0.000854  0.564399 0.000079 -1.933967
29  11.478506 -0.000827 0.001501  -1.063034 0.592477 0.961667
30  3.859435 -0.132789 1.193063  0.385277 -0.029729 -1.748803
31  1.312558 0.000026 0.000001  -0.013756 -0.031530 -0.953722
32  0.729344 0.000066 -0.000027  -0.198329 0.044732 -0.857780
33  3.942045 0.050109 0.430997  0.369881 -0.091819 -1.556998
34  1.539097 0.000011 -0.000000  -0.013288 -0.027151 -1.132776
35  1.196300 0.000075 -0.000004  0.000968 -0.002436 -0.994639
36  3.883410 -0.050502 -0.431087  0.299105 -0.220225 -1.386726
37  1.719565 -0.000076 -0.000002  -0.038529 0.030961 -1.462450
38  1.209198 0.000035 0.000011  -0.001756 -0.004187 -0.773865
39  3.806436 -0.112148 -1.295330  -0.043217 0.216601 -0.110445
40  1.719412 -0.000098 -0.000035  0.405558 -0.239444 -1.567406
41  1.099673 0.000025 0.000006  0.071242 -0.008553 -0.826702
42  0.889710 -0.317102 -1.125532  0.901376 0.231327 -0.743911
43  1.789778 -0.000009 -0.000042  0.027227 0.044051 -0.011391
44  1.206996 -0.000006 0.000006  -0.019167 -0.151093 1.385408
45  5.740572 0.000055 0.000723  0.145680 -0.000014 0.000021
46  11.480646 -0.000130 0.001050  0.047782 0.128714 0.143605
47  6.027514 -0.000272 -0.000237  -0.753702 -0.504465 -1.559018
48  -0.000001 11.691975 -0.000006  -1.285172 0.731771 0.946104
49  0.000003 -0.000001 0.000001  2.836925 -0.000041 1.570856
50  -0.000006 -0.000015 0.000005  2.272644 -0.000030 1.570865
51  -3.474381 -2.676395 -5.163191  -0.035077 3.136441 1.447725
52  -0.000000 0.000000 -0.000000  0.008153 -0.000259 0.000009
53  0.000000 0.000000 0.000000  1.565115 0.043565 -0.106862
54  -0.714542 -14.497023 -4.312778  -0.876435 -0.086993 -1.952178
55  -0.000000 -0.000000 -0.000000  0.000000 -0.000000 -0.000002
56  0.000030 0.000029 0.000000  -1.571901 -0.044449 -0.106509
57  8.694838 -16.141689 -16.416052  1.570796 -0.000000 0.000000
58  -16.922342 4.543208 -16.901630  1.570796 -0.000000 0.000000
59  -0.670483 1.601972 -4.109488  1.570796 -0.000000 0.000000
60  -0.004311 0.001230 -0.000371  0.006898 -0.005534 -0.284229
61  2.073871 10.506637 -3.148526  1.570796 -0.000000 0.000000
62  0.000000 0.000000 0.000000  -0.078727 -3.136056 0.284226
63  -2.754978 -2.788567 -0.424380  1.570796 0.002427 0.000000
64  -2.602999 -7.885279 -1.803023  1.538756 -0.049934 -0.000270
65  -0.219072 -1.337187 -0.135917  0.371690 0.010165 0.004104
66  -0.219077 0.187971 19.478252  -0.000000 0.000000 -0.000000
67  -0.245097 -1.134826 1.111316  -0.087266 0.000000 -0.000000
68  -0.104047 -4.495923 7.879276  -0.000000 0.000000 -0.000000
69  -0.194874 4.353199 -6.485229  -0.000000 0.000000 -0.018921
70  -0.200449 -0.857878 4.877554  -0.000000 0.000000 -0.000000
71  -2.835294 -13.266224 -1.469519  1.538756 -0.049934 -0.000270
time 5
0  0.000006 0.000000 0.000000  -1.570800 -1.391899 -1.570792
1  -4.327822 -0.845730 -0.674796  -1.544956 -1.855077 -0.198630
2  6.027522 -0.000325 0.000193  -1.118906 -1.082213 -1.018472
3  11.692109 0.000643 -0.000738  -1.361399 -0.000019 -1.450443
4  11.479574 0.000569 -0.000854  1.313065 -0.690579 0.235257
5  3.859509 -0.142880 -1.192049  -0.550886 -0.255832 -1.866282
6  1.312591 0.000013 0.000007  -0.134281 -0.007565 -0.192402
7  0.729354 0.000054 0.000049  -0.007819 -0.009377 -0.049784
8  3.942145 0.046273 -0.431512  -0.484645 0.035664 -1.413041
9  1.539110 0.000084 0.000006  -0.033414 -0.056767 -0.605686
10  1.196332 0.000146 0.000029  0.006942 0.002367 -0.289526
11  3.883506 -0.047269 0.431382  -0.270346 0.409995 -0.746893
12  1.719574 -0.000026 0.000015  0.028924 -0.121328 -1.267494
13  1.209181 0.000091 0.000009  -0.006830 -0.001497 -0.302684
14  4.085223 -0.082716 1.151041  0.033977 0.537783 -0.030448
15  1.719448 -0.000011 0.000021  0.011888 -0.076325 -0.864457
16  1.099676 0.000048 0.000006  -0.070447 0.038185 -1.423970
17  0.971588 -1.283499 0.847609  -0.978328 -0.625347 -0.310208
18  1.789819 -0.000003 -0.000018  0.000998 -0.014468 0.721478
19  1.207014 -0.000012 -0.000042  0.001593 -0.000026 -0.111145
20  5.740637 0.000410 -0.000701  -0.091832 0.000003 0.000071
21  11.480923 0.000325 -0.000828  -0.028821 -0.121363 0.017120
22  6.027525 -0.000329 0.000203  1.782897 -0.443624 1.658042
23  0.000002 11.692099 -0.000007  -1.000035 -0.448791 -0.791398
24  0.000004 0.000010 -0.000000  -0.492302 -0.000031 1.570739
25  -0.000000 -0.000012 -0.000001  0.868957 0.000002 1.570712
26  -4.967872 -9.778694 2.073871  1.473120 1.855075 -0.198639
27  6.027506 -0.000260 -0.000228  1.622531 0.661461 -0.413641
28  11.691992 0.000244 0.000855  0.564399 0.000077 -1.906623
29  11.478746 -0.000734 0.001442  -1.034600 0.577554 0.965584
30  3.859436 -0.132789 1.193062  0.385277 -0.029729 -1.748803
31  1.312559 0.000026 -0.000000  -0.013756 -0.031530 -0.953722
32  0.729344 0.000065 -0.000027  -0.198329 0.044732 -0.857780
33  3.942045 0.050109 0.430997  0.369881 -0.091819 -1.556998
34  1.539097 0.000011 -0.000001  -0.013288 -0.027151 -1.132776
35  1.196300 0.000075 -0.000004  0.000968 -0.002436 -0.994639
36  3.883411 -0.050502 -0.431087  0.299105 -0.220225 -1.386726
37  1.719565 -0.000076 -0.000003  -0.038529 0.030961 -1.462450
38  1.209198 0.000036 0.000011  -0.001756 -0.004187 -0.773865
39  3.806436 -0.112148 -1.295331  -0.043217 0.216601 -0.110445
40  1.719412 -0.000098 -0.000035  0.405558 -0.239444 -1.567406
41  1.099673 0.000026 0.000006  0.071242 -0.008553 -0.826702
42  0.889710 -0.317103 -1.125533  0.901376 0.231327 -0.743910
43  1.789779 -0.000009 -0.000042  0.027227 0.044051 -0.011391
44  1.206996 -0.000006 0.000006  -0.019167 -0.151093 1.385408
45  5.740571 0.000055 0.000724  0.150052 -0.000014 0.000021
46  11.480694 -0.000111 0.001038  0.054049 0.128267 0.143364
47  6.027514 -0.000272 -0.000237  -0.774245 -0.497993 -1.547525
48  -0.000002 11.691975 -0.000006  -1.268803 0.714874 0.939284
49  0.000002 -0.000001 0.000000  2.836925 -0.000041 1.570856
50  -0.000007 -0.000015 0.000005  2.272644 -0.000030 1.570865
51  -3.391439 -2.935049 -5.140733  -0.010521 3.118971 1.454221
52  0.000000 0.000000 0.000001  0.008153 -0.000259 0.000009
53  0.000000 0.000000 -0.000001  1.565115 0.043565 -0.106862
54  -0.580096 -14.750085 -4.386881  -0.857124 -0.063814 -1.947478
55  0.000001 -0.000000 0.000000  0.000000 -0.000000 -0.000002
56  0.000031 0.000029 0.000001  -1.571902 -0.044449 -0.106509
57  8.694838 -16.141689 -16.416052  1.570796 -0.000000 0.000000
58  -16.922342 4.543208 -16.901630  1.570796 -0.000000 0.000000
59  -0.670483 1.601972 -4.109488  1.570796 -0.000000 0.000000
60  -0.004311 0.001230 -0.000371  0.006898 -0.005534 -0.284229
61  2.073871 10.506637 -3.148526  1.570796 -0.000000 0.000000
62  0.000000 0.000000 0.000000  -0.078727 -3.136056 0.284226
63  -2.754978 -2.788567 -0.424380  1.570796 0.001798 0.000000
64  -2.576100 -8.186776 -1.833609  1.553131 -0.076434 0.004977
65  -0.219072 -1.337187 -0.135917  0.185837 0.005274 0.001578
66  -0.219078 0.187971 19.478251  0.000000 -0.000000 -0.000000
67  -0.245097 -1.134826 1.111315  -0.043633 -0.000000 -0.000000
68  -0.104048 -4.495923 7.879273  0.000000 -0.000000 -0.000000
69  -0.195264 4.332631 -6.347188  -0.000000 -0.000000 -0.018921
70  -0.200449 -0.857878 4.877553  0.000000 -0.000000 -0.000000
71  -2.782984 -13.573277 -1.583495  1.553131 -0.076434 0.004977
time 6
0  0.000006 0.000000 0.000000  -1.570800 -1.391899 -1.570792
1  -4.327822 -0.845730 -0.674796  -1.544956 -1.855077 -0.198630
2  6.027522 -0.000325 0.000193  -1.112096 -1.085146 -1.022174
3  11.692109 0.000643 -0.000739  -1.361398 -0.000018 -1.421641
4  11.479742 0.000585 -0.000768  1.296565 -0.670352 0.230006
5  3.859508 -0.142880 -1.192050  -0.550885 -0.255832 -1.866282
6  1.312590 0.000012 0.000008  -0.134281 -0.007565 -0.192402
7  0.729354 0.000053 0.000048  -0.007819 -0.009377 -0.049784
8  3.942143 0.046273 -0.431511  -0.484645 0.035664 -1.413041
9  1.539111 0.000082 0.000005  -0.033415 -0.056767 -0.605686
10  1.196332 0.000145 0.000029  0.006942 0.002367 -0.289526
11  3.883504 -0.047270 0.431381  -0.270346 0.409995 -0.746893
12  1.719572 -0.000026 0.000014  0.028923 -0.121328 -1.267494
13  1.209178 0.000091 0.000012  -0.006830 -0.001496 -0.302684
14  4.085222 -0.082716 1.151041  0.033977 0.537783 -0.030448
15  1.719449 -0.000012 0.000023  0.011888 -0.076325 -0.864457
16  1.099675 0.000047 0.000007  -0.070447 0.038185 -1.423970
17  0.971588 -1.283499 0.847609  -0.978328 -0.625347 -0.310208
18  1.789819 -0.000004 -0.000019  0.000998 -0.014468 0.721478
19  1.207016 -0.000012 -0.000043  0.001593 -0.000026 -0.111145
20  5.740636 0.000409 -0.000704  -0.091421 0.000003 0.000070
21  11.480956 0.000328 -0.000810  -0.032800 -0.117640 0.015573
22  6.027525 -0.000329 0.000203  1.778293 -0.442415 1.662332
23  0.000001 11.692100 -0.000007  -0.982843 -0.433232 -0.780141
24  0.000003 0.000009 -0.000002  -0.492302 -0.000030 1.570739
25  -0.000001 -0.000012 -0.000001  0.868957 0.000002 1.570712
26  -4.967872 -9.778694 2.073871  1.473120 1.855075 -0.198639
27  6.027507 -0.000260 -0.000228  1.625733 0.675851 -0.411793
28  11.691993 0.000242 0.000855  0.564399 0.000075 -1.882021
29  11.478961 -0.000642 0.001384  -1.049367 0.568702 0.967749
30  3.859436 -0.132789 1.193063  0.385277 -0.029729 -1.748803
31  1.312558 0.000027 -0.000000  -0.013756 -0.031530 -0.953722
32  0.729344 0.000065 -0.000027  -0.198329 0.044732 -0.857780
33  3.942045 0.050109 0.430998  0.369881 -0.091819 -1.556998
34  1.539097 0.000011 -0.000001  -0.013288 -0.027151 -1.132777
35  1.196300 0.000075 -0.000005  0.000968 -0.002436 -0.994639
36  3.883411 -0.050502 -0.431085  0.299105 -0.220225 -1.386726
37  1.719565 -0.000076 -0.000003  -0.038529 0.030961 -1.462450
38  1.209197 0.000035 0.000011  -0.001756 -0.004187 -0.773865
39  3.806436 -0.112148 -1.295330  -0.040704 0.221326 -0.113409
40  1.719413 -0.000099 -0.000035  0.389230 -0.235432 -1.507872
41  1.099673 0.000023 0.000006  0.067432 -0.011123 -0.788822
42  0.889709 -0.317102 -1.125532  0.901376 0.231327 -0.743911
43  1.789779 -0.000009 -0.000042  0.027227 0.044051 -0.011391
44  1.206996 -0.000006 0.000006  -0.019167 -0.151093 1.385408
45  5.740571 0.000055 0.000724  0.146150 -0.000014 0.000021
46  11.480736 -0.000093 0.001027  0.052273 0.125722 0.145360
47  6.027514 -0.000272 -0.000237  -0.787823 -0.489601 -1.541226
48  -0.000003 11.691976 -0.000006  -1.254148 0.699745 0.932923
49  0.000002 -0.000000 0.000001  2.836925 -0.000041 1.570856
50  -0.000007 -0.000016 0.000004  2.272644 -0.000030 1.570865
51  -3.379346 -3.167235 -5.102407  -0.026531 3.107609 1.451930
52  -0.000000 0.000000 -0.000000  0.008153 -0.000259 0.000009
53  0.000000 0.000000 0.000001  1.565115 0.043565 -0.106862
54  -0.580187 -14.996060 -4.545011  -0.875540 -0.056935 -1.948205
55  0.000001 -0.000000 -0.000000  0.000000 -0.000000 -0.000002
56  0.000031 0.000029 0.000001  -1.571902 -0.044449 -0.106509
57  8.694838 -16.141689 -16.416052  1.570796 -0.000000 0.000000
58  -16.922342 4.543208 -16.901630  1.570796 -0.000000 0.000000
59  -0.670483 1.601972 -4.109488  1.570796 -0.000000 0.000000
60  -0.004311 0.001230 -0.000371  0.006898 -0.005534 -0.284229
61  2.073871 10.506637 -3.148526  1.570796 -0.000000 0.000000
62  0.000000 0.000000 0.000000  -0.078727 -3.136056 0.284226
63  -2.754978 -2.788567 -0.424380  1.570796 0.000629 0.000000
64  -2.526146 -8.463493 -1.876852  1.566377 -0.061923 0.002223
65  -0.219072 -1.337187 -0.135917  -0.000000 -0.000000 0.000000
66  -0.219078 0.187971 19.478251  -0.000000 -0.000000 0.000000
67  -0.245097 -1.134826 1.111316  -0.000000 -0.000000 0.000000
68  -0.104048 -4.495923 7.879275  -0.000000 -0.000000 0.000000
69  -0.198094 4.323281 -6.346653  -0.000000 0.000000 0.031208
70  -0.200449 -0.857878 4.877553  -0.000000 -0.000000 0.000000
71  -2.739785 -13.852453 -1.694596  1.566377 -0.061923 0.002223
time 7
0  0.000006 0.000000 0.000000  -1.570800 -1.391899 -1.570792
1  -4.327822 -0.845730 -0.674796  -1.544956 -1.855077 -0.198630
2  6.027522 -0.000325 0.000193  -1.096060 -1.089002 -1.028497
3  11.692108 0.000643 -0.000740  -1.361396 -0.000016 -1.396529
4  11.479884 0.000601 -0.000696  1.268118 -0.649844 0.211447
5  3.859509 -0.142879 -1.192049  -0.550885 -0.255832 -1.866282
6  1.312590 0.000011 0.000010  -0.134281 -0.007565 -0.192402
7  0.729356 0.000054 0.000049  -0.007819 -0.009377 -0.049784
8  3.942143 0.046273 -0.431512  -0.484645 0.035664 -1.413041
9  1.539109 0.000083 0.000006  -0.033415 -0.056767 -0.605686
10  1.196332 0.000145 0.000029  0.006943 0.002367 -0.289526
11  3.883505 -0.047269 0.431382  -0.270346 0.409995 -0.746893
12  1.719573 -0.000025 0.000014  0.028923 -0.121328 -1.267494
13  1.209179 0.000092 0.000012  -0.006830 -0.001497 -0.302684
14  4.085222 -0.082716 1.151041  0.033977 0.537783 -0.030448
15  1.719449 -0.000012 0.000021  0.011888 -0.076325 -0.864457
16  1.099676 0.000047 0.000007  -0.070447 0.038185 -1.423970
17  0.971587 -1.283499 0.847609  -0.978328 -0.625347 -0.310208
18  1.789819 -0.000004 -0.000018  0.000998 -0.014468 0.721478
19  1.207014 -0.000011 -0.000044  0.001593 -0.000026 -0.111145
20  5.740636 0.000410 -0.000704  -0.095534 0.000003 0.000070
21  11.480984 0.000332 -0.000796  -0.039596 -0.113838 0.010745
22  6.027525 -0.000329 0.000203  1.769007 -0.442171 1.674180
23  0.000003 11.692098 -0.000007  -0.967796 -0.419811 -0.770154
24  0.000002 0.000008 -0.000001  -0.492302 -0.000030 1.570739
25  -0.000000 -0.000012 -0.000001  0.868957 0.000002 1.570712
26  -4.967872 -9.778694 2.073871  1.473120 1.855075 -0.198639
27  6.027507 -0.000260 -0.000228  1.632010 0.682836 -0.409211
28  11.691991 0.000244 0.000855  0.564399 0.000074 -1.864195
29  11.479117 -0.000572 0.001339  -1.084290 0.562410 0.965886
30  3.859435 -0.132789 1.193063  0.385277 -0.029729 -1.748803
31  1.312558 0.000026 -0.000000  -0.013756 -0.031530 -0.953722
32  0.729344 0.000065 -0.000027  -0.198329 0.044732 -0.857780
33  3.942045 0.050108 0.430997  0.369881 -0.091819 -1.556998
34  1.539097 0.000011 -0.000001  -0.013288 -0.027151 -1.132776
35  1.196300 0.000075 -0.000005  0.000968 -0.002436 -0.994639
36  3.883410 -0.050502 -0.431087  0.299105 -0.220225 -1.386726
37  1.719565 -0.000076 -0.000002  -0.038529 0.030961 -1.462450
38  1.209197 0.000036 0.000012  -0.001756 -0.004187 -0.773865
39  3.806436 -0.112149 -1.295330  -0.035035 0.232165 -0.119819
40  1.719413 -0.000100 -0.000034  0.355525 -0.223564 -1.380739
41  1.099674 0.000025 0.000005  0.058959 -0.016132 -0.707665
42  0.889709 -0.317103 -1.125533  0.901376 0.231327 -0.743911
43  1.789779 -0.000009 -0.000043  0.027227 0.044051 -0.011391
44  1.206995 -0.000007 0.000006  -0.019167 -0.151093 1.385408
45  5.740571 0.000054 0.000724  0.138569 -0.000014 0.000021
46  11.480766 -0.000079 0.001017  0.046895 0.122030 0.147745
47  6.027514 -0.000272 -0.000237  -0.792614 -0.482205 -1.540352
48  -0.000003 11.691976 -0.000006  -1.243567 0.688829 0.928185
49  0.000004 -0.000000 0.000001  2.836925 -0.000041 1.570856
50  -0.000007 -0.000015 0.000005  2.272644 -0.000030 1.570865
51  -3.434695 -3.335569 -5.072110  -0.059438 3.101894 1.447039
52  -0.000000 0.000000 -0.000000  0.008153 -0.000259 0.000009
53  -0.000000 -0.000000 -0.000000  1.565115 0.043565 -0.106862
54  -0.664513 -15.179040 -4.717952  -0.908854 -0.059766 -1.949941
55  0.000001 0.000000 -0.000000  0.000000 -0.000000 -0.000002
56  0.000032 0.000029 0.000001  -1.571902 -0.044449 -0.106509
57  8.694838 -16.141689 -16.416052  1.570796 -0.000000 0.000000
58  -16.922342 4.543208 -16.901630  1.570796 -0.000000 0.000000
59  -0.670483 1.601972 -4.109488  1.570796 -0.000000 0.000000
60  -0.004311 0.001230 -0.000371  0.006898 -0.005534 -0.284229
61  2.073871 10.506637 -3.148526  1.570796 -0.000000 0.000000
62  0.000000 0.000000 0.000000  -0.078727 -3.136056 0.284226
63  -2.754978 -2.788567 -0.424380  1.570796 -0.000000 0.000000
64  -2.499247 -8.665868 -1.926423  1.576044 -0.029973 -0.001899
65  -0.219072 -1.337187 -0.135917  -0.000000 -0.000000 -0.000000
66  -0.219078 0.187971 19.478254  -0.000000 -0.000000 -0.000000
67  -0.245097 -1.134826 1.111317  -0.000000 -0.000000 -0.000000
68  -0.104047 -4.495923 7.879278  -0.000000 -0.000000 -0.000000
69  -0.198094 4.323281 -6.346655  -0.000000 0.000000 0.015604
70  -0.200449 -0.857878 4.877555  -0.000000 -0.000000 -0.000000
71  -2.727606 -14.055558 -1.789129  1.576044 -0.029973 -0.001899
time 8
0  0.000006 0.000000 0.000000  -1.570800 -1.391899 -1.570792
1  -4.327822 -0.845730 -0.674796  -1.544956 -1.855077 -0.198630
2  6.027522 -0.000325 0.000193  -1.078214 -1.091896 -1.034562
3  11.692110 0.000644 -0.000740  -1.361396 -0.000015 -1.382816
4  11.479966 0.000610 -0.000651  1.241689 -0.636791 0.189565
5  3.859509 -0.142880 -1.192049  -0.550885 -0.255832 -1.866282
6  1.312591 0.000011 0.000007  -0.134281 -0.007565 -0.192402
7  0.729355 0.000054 0.000050  -0.007819 -0.009377 -0.049784
8  3.942145 0.046273 -0.431511  -0.484645 0.035664 -1.413041
9  1.539111 0.000083 0.000005  -0.033415 -0.056767 -0.605686
10  1.196332 0.000145 0.000028  0.006943 0.002367 -0.289526
11  3.883506 -0.047270 0.431382  -0.270346 0.409995 -0.746893
12  1.719573 -0.000026 0.000016  0.028923 -0.121328 -1.267494
13  1.209179 0.000091 0.000013  -0.006830 -0.001496 -0.302684
14  4.085222 -0.082716 1.151041  0.033977 0.537783 -0.030448
15  1.719449 -0.000012 0.000021  0.011888 -0.076325 -0.864457
16  1.099675 0.000046 0.000006  -0.070447 0.038185 -1.423970
17  0.971587 -1.283500 0.847609  -0.978328 -0.625347 -0.310208
18  1.789819 -0.000004 -0.000018  0.000998 -0.014468 0.721478
19  1.207018 -0.000011 -0.000044  0.001593 -0.000026 -0.111145
20  5.740634 0.000411 -0.000702  -0.101081 0.000003 0.000071
21  11.481001 0.000335 -0.000786  -0.045898 -0.111314 0.005242
22  6.027525 -0.000329 0.000203  1.759377 -0.442969 1.688066
23  0.000002 11.692100 -0.000007  -0.959556 -0.412540 -0.764632
24  0.000003 0.000009 -0.000001  -0.492302 -0.000031 1.570739
25  -0.000001 -0.000011 -0.000001  0.868957 0.000002 1.570712
26  -4.967872 -9.778694 2.073871  1.473120 1.855075 -0.198639
27  6.027507 -0.000260 -0.000228  1.637731 0.681250 -0.407316
28  11.691994 0.000242 0.000856  0.564399 0.000073 -1.857582
29  11.479175 -0.000546 0.001322  -1.120376 0.559939 0.960859
30  3.859435 -0.132789 1.193063  0.385277 -0.029729 -1.748803
31  1.312559 0.000025 0.000000  -0.013756 -0.031530 -0.953722
32  0.729344 0.000065 -0.000027  -0.198329 0.044732 -0.857780
33  3.942045 0.050109 0.430998  0.369881 -0.091819 -1.556998
34  1.539097 0.000012 -0.000000  -0.013288 -0.027151 -1.132776
35  1.196299 0.000075 -0.000005  0.000968 -0.002436 -0.994639
36  3.883411 -0.050502 -0.431086  0.299105 -0.220225 -1.386726
37  1.719565 -0.000075 -0.000002  -0.038529 0.030961 -1.462450
38  1.209198 0.000035 0.000012  -0.001756 -0.004187 -0.773865
39  3.806437 -0.112148 -1.295329  -0.031549 0.239079 -0.123046
40  1.719412 -0.000100 -0.000034  0.341076 -0.216280 -1.321730
41  1.099673 0.000024 0.000006  0.054870 -0.018231 -0.669752
42  0.889709 -0.317103 -1.125532  0.901376 0.231327 -0.743911
43  1.789779 -0.000009 -0.000043  0.027227 0.044051 -0.011391
44  1.206996 -0.000007 0.000006  -0.019167 -0.151093 1.385408
45  5.740572 0.000055 0.000724  0.131056 -0.000014 0.000021
46  11.480779 -0.000073 0.001015  0.041051 0.118841 0.149320
47  6.027514 -0.000272 -0.000237  -0.788874 -0.478853 -1.543792
48  -0.000001 11.691977 -0.000006  -1.239648 0.684788 0.926400
49  0.000003 -0.000001 -0.000001  2.836925 -0.000041 1.570856
50  -0.000007 -0.000015 0.000005  2.272644 -0.000030 1.570865
51  -3.524228 -3.398621 -5.069910  -0.091630 3.102083 1.442300
52  0.000000 0.000000 0.000000  0.008153 -0.000259 0.000009
53  -0.000000 0.000000 0.000000  1.565115 0.043565 -0.106862
54  -0.785919 -15.252740 -4.849441  -0.940007 -0.068025 -1.951416
55  -0.000001 -0.000001 0.000000  0.000000 -0.000000 -0.000002
56  0.000030 0.000028 0.000001  -1.571901 -0.044449 -0.106509
57  8.694838 -16.141689 -16.416052  1.570796 -0.000000 0.000000
58  -16.922342 4.543208 -16.901630  1.570796 -0.000000 0.000000
59  -0.670483 1.601972 -4.109488  1.570796 -0.000000 0.000000
60  -0.004311 0.001230 -0.000371  0.006898 -0.005534 -0.284229
61  2.073871 10.506637 -3.148526  1.570796 -0.000000 0.000000
62  0.000000 0.000000 0.000000  -0.078727 -3.136056 0.284226
63  -2.754978 -2.788567 -0.424380  1.570796 -0.000000 0.000000
64  -2.507632 -8.744340 -1.975994  1.579786 0.001976 -0.005416
65  -0.219072 -1.337187 -0.135916  0.000000 -0.000000 0.000000
66  -0.219078 0.187971 19.478251  0.000000 -0.000000 0.000000
67  -0.245097 -1.134826 1.111317  0.000000 -0.000000 0.000000
68  -0.104048 -4.495924 7.879275  0.000000 -0.000000 0.000000
69  -0.198094 4.323280 -6.346652  0.000000 -0.000000 0.000000
70  -0.200449 -0.857878 4.877554  0.000000 -0.000000 0.000000
71  -2.750490 -14.133720 -1.851973  1.579786 0.001976 -0.005416
time 9
0  0.000006 0.000000 0.000000  -1.570800 -1.391899 -1.570792
1  -4.327822 -0.845730 -0.674796  -1.544956 -1.855077 -0.198630
2  6.027522 -0.000325 0.000193  -1.069685 -1.091326 -1.035640
3  11.692109 0.000644 -0.000739  -1.361396 -0.000016 -1.383697
4  11.479960 0.000611 -0.000654  1.231204 -0.634344 0.176580
5  3.859512 -0.142879 -1.192049  -0.550885 -0.255832 -1.866282
6  1.312589 0.000013 0.000009  -0.134281 -0.007565 -0.192402
7  0.729354 0.000053 0.000049  -0.007819 -0.009376 -0.049784
8  3.942145 0.046273 -0.431512  -0.484645 0.035664 -1.413041
9  1.539110 0.000081 0.000004  -0.033414 -0.056767 -0.605686
10  1.196332 0.000146 0.000029  0.006943 0.002367 -0.289526
11  3.883505 -0.047269 0.431381  -0.270346 0.409995 -0.746893
12  1.719573 -0.000027 0.000015  0.028923 -0.121328 -1.267494
13  1.209179 0.000091 0.000012  -0.006830 -0.001496 -0.302684
14  4.085225 -0.082715 1.151041  0.033977 0.537783 -0.030448
15  1.719448 -0.000011 0.000020  0.011888 -0.076325 -0.864457
16  1.099675 0.000049 0.000005  -0.070447 0.038185 -1.423970
17  0.971587 -1.283499 0.847609  -0.978328 -0.625347 -0.310208
18  1.789820 -0.000003 -0.000018  0.000998 -0.014468 0.721478
19  1.207013 -0.000012 -0.000044  0.001593 -0.000026 -0.111145
20  5.740636 0.000410 -0.000704  -0.104209 0.000003 0.000070
21  11.481000 0.000334 -0.000789  -0.048495 -0.110730 0.002156
22  6.027525 -0.000329 0.000203  1.755644 -0.445073 1.696160
23  0.000003 11.692099 -0.000007  -0.960086 -0.413006 -0.764988
24  0.000002 0.000008 -0.000002  -0.492302 -0.000031 1.570739
25  -0.000000 -0.000012 -0.000001  0.868957 0.000002 1.570712
26  -4.967872 -9.778694 2.073871  1.473120 1.855075 -0.198639
27  6.027507 -0.000260 -0.000228  1.638207 0.674821 -0.407587
28  11.691992 0.000243 0.000854  0.564399 0.000074 -1.861083
29  11.479144 -0.000559 0.001331  -1.137399 0.561993 0.955550
30  3.859436 -0.132789 1.193063  0.385277 -0.029729 -1.748803
31  1.312558 0.000026 -0.000000  -0.013756 -0.031530 -0.953722
32  0.729344 0.000065 -0.000027  -0.198329 0.044732 -0.857780
33  3.942045 0.050108 0.430998  0.369881 -0.091819 -1.556998
34  1.539097 0.000012 -0.000001  -0.013288 -0.027151 -1.132777
35  1.196300 0.000074 -0.000005  0.000968 -0.002436 -0.994639
36  3.883411 -0.050502 -0.431086  0.299105 -0.220225 -1.386726
37  1.719565 -0.000077 -0.000003  -0.038529 0.030961 -1.462450
38  1.209198 0.000036 0.000012  -0.001756 -0.004187 -0.773865
39  3.806438 -0.112149 -1.295329  -0.030200 0.241581 -0.121974
40  1.719413 -0.000100 -0.000034  0.345257 -0.216510 -1.335884
41  1.099673 0.000025 0.000005  0.056224 -0.015998 -0.707212
42  0.889710 -0.317103 -1.125532  0.901376 0.231327 -0.743910
43  1.789778 -0.000010 -0.000042  0.027227 0.044051 -0.011391
44  1.206996 -0.000007 0.000006  -0.019167 -0.151093 1.385408
45  5.740571 0.000055 0.000724  0.127343 -0.000014 0.000021
46  11.480774 -0.000076 0.001016  0.038104 0.117845 0.149304
47  6.027514 -0.000272 -0.000237  -0.782118 -0.481211 -1.547480
48  -0.000002 11.691975 -0.000006  -1.241722 0.686926 0.927347
49  0.000003 -0.000000 -0.000001  2.836925 -0.000041 1.570856
50  -0.000007 -0.000015 0.000005  2.272644 -0.000030 1.570865
51  -3.579255 -3.366060 -5.106469  -0.105849 3.105511 1.440203
52  -0.000000 -0.000000 -0.000000  0.008153 -0.000259 0.000009
53  0.000000 -0.000001 0.000000  1.565115 0.043565 -0.106862
54  -0.856386 -15.224112 -4.907143  -0.952949 -0.074880 -1.952051
55  -0.000000 -0.000000 0.000000  0.000000 -0.000000 -0.000002
56  0.000031 0.000029 0.000001  -1.571901 -0.044449 -0.106509
57  8.694838 -16.141689 -16.416052  1.570796 -0.000000 0.000000
58  -16.922342 4.543208 -16.901630  1.570796 -0.000000 0.000000
59  -0.670483 1.601972 -4.109488  1.570796 -0.000000 0.000000
60  -0.004311 0.001230 -0.000371  0.006898 -0.005534 -0.284229
61  2.073871 10.506637 -3.148526  1.570796 -0.000000 0.000000
62  0.000000 0.000000 0.000000  -0.078727 -3.136056 0.284226
63  -2.754978 -2.788567 -0.424380  1.570796 -0.000000 0.000000
64  -2.526080 -8.708560 -2.019236  1.578133 0.016498 -0.006991
65  -0.219072 -1.337187 -0.135917  -0.000000 0.000000 0.000000
66  -0.219078 0.187972 19.478251  -0.000000 0.000000 0.000000
67  -0.245097 -1.134826 1.111316  -0.000000 0.000000 0.000000
68  -0.104047 -4.495923 7.879276  -0.000000 0.000000 0.000000
69  -0.198094 4.323281 -6.346653  -0.000000 0.000000 0.000000
70  -0.200449 -0.857877 4.877553  -0.000000 0.000000 0.000000
71  -2.775454 -14.097352 -1.883212  1.578133 0.016498 -0.006991
time 10
0  0.000006 0.000000 0.000000  -1.570800 -1.391899 -1.570792
1  -4.327822 -0.845730 -0.674796  -1.544956 -1.855077 -0.198630
2  6.027522 -0.000325 0.000193  -1.071827 -1.088009 -1.031979
3  11.692109 0.000644 -0.000739  -1.361396 -0.000016 -1.393465
4  11.479904 0.000603 -0.000686  1.237221 -0.639870 0.175970
5  3.859509 -0.142880 -1.192050  -0.550886 -0.255832 -1.866282
6  1.312590 0.000012 0.000009  -0.134281 -0.007565 -0.192402
7  0.729355 0.000053 0.000050  -0.007819 -0.009376 -0.049784
8  3.942144 0.046272 -0.431512  -0.484645 0.035664 -1.413041
9  1.539111 0.000084 0.000005  -0.033415 -0.056767 -0.605686
10  1.196332 0.000145 0.000030  0.006942 0.002367 -0.289526
11  3.883506 -0.047270 0.431381  -0.270346 0.409995 -0.746893
12  1.719574 -0.000026 0.000014  0.028923 -0.121328 -1.267494
13  1.209178 0.000091 0.000010  -0.006830 -0.001496 -0.302684
14  4.085224 -0.082716 1.151041  0.033977 0.537783 -0.030448
15  1.719449 -0.000012 0.000023  0.011888 -0.076325 -0.864457
16  1.099674 0.000049 0.000006  -0.070447 0.038185 -1.423970
17  0.971588 -1.283499 0.847609  -0.978328 -0.625347 -0.310208
18  1.789820 -0.000002 -0.000018  0.000998 -0.014468 0.721478
19  1.207014 -0.000012 -0.000044  0.001593 -0.000026 -0.111145
20  5.740637 0.000410 -0.000704  -0.103907 0.000003 0.000071
21  11.480989 0.000333 -0.000795  -0.047231 -0.111707 0.002246
22  6.027525 -0.000329 0.000203  1.758122 -0.447718 1.696853
23  0.000002 11.692100 -0.000007  -0.965957 -0.418183 -0.768924
24  0.000002 0.000009 -0.000002  -0.492302 -0.000031 1.570739
25  0.000000 -0.000011 -0.000001  0.868957 0.000002 1.570712
26  -4.967872 -9.778694 2.073871  1.473120 1.855075 -0.198639
27  6.027506 -0.000260 -0.000228  1.634254 0.668070 -0.409370
28  11.691993 0.000242 0.000855  0.564399 0.000074 -1.868801
29  11.479076 -0.000591 0.001352  -1.132200 0.565462 0.952047
30  3.859436 -0.132789 1.193062  0.385277 -0.029729 -1.748803
31  1.312559 0.000025 -0.000000  -0.013756 -0.031530 -0.953722
32  0.729345 0.000065 -0.000027  -0.198329 0.044732 -0.857780
33  3.942045 0.050108 0.430998  0.369881 -0.091819 -1.556998
34  1.539097 0.000012 -0.000001  -0.013288 -0.027151 -1.132777
35  1.196300 0.000075 -0.000004  0.000968 -0.002436 -0.994639
36  3.883411 -0.050503 -0.431086  0.299105 -0.220225 -1.386726
37  1.719565 -0.000077 -0.000003  -0.038529 0.030961 -1.462450
38  1.209198 0.000035 0.000011  -0.001756 -0.004187 -0.773865
39  3.806437 -0.112148 -1.295329  -0.029145 0.243004 -0.119150
40  1.719411 -0.000099 -0.000034  0.352837 -0.217576 -1.366166
41  1.099673 0.000027 0.000006  0.058838 -0.011056 -0.787418
42  0.889709 -0.317103 -1.125533  0.901376 0.231327 -0.743911
43  1.789778 -0.000009 -0.000042  0.027227 0.044051 -0.011391
44  1.206996 -0.000007 0.000006  -0.019167 -0.151093 1.385408
45  5.740571 0.000056 0.000724  0.127992 -0.000014 0.000021
46  11.480759 -0.000081 0.001020  0.038838 0.118757 0.148094
47  6.027514 -0.000272 -0.000237  -0.776648 -0.486842 -1.549350
48  -0.000003 11.691976 -0.000005  -1.246298 0.691646 0.929420
49  0.000004 0.000000 -0.000000  2.836925 -0.000041 1.570856
50  -0.000007 -0.000015 0.000005  2.272644 -0.000030 1.570865
51  -3.585236 -3.293020 -5.162408  -0.099942 3.108448 1.441250
52  -0.000000 -0.000000 0.000000  0.008153 -0.000259 0.000009
53  0.000000 -0.000000 0.000000  1.565115 0.043565 -0.106862
54  -0.853626 -15.147930 -4.904558  -0.946483 -0.076258 -1.951697
55  0.000001 0.000001 -0.000000  0.000000 -0.000000 -0.000002
56  0.000031 0.000030 0.000001  -1.571901 -0.044449 -0.106509
57  8.694838 -16.141689 -16.416052  1.570796 -0.000000 0.000000
58  -16.922342 4.543208 -16.901630  1.570796 -0.000000 0.000000
59  -0.670483 1.601972 -4.109488  1.570796 -0.000000 0.000000
60  -0.004311 0.001230 -0.000371  0.006898 -0.005534 -0.284229
61  2.073871 10.506637 -3.148526  1.570796 -0.000000 0.000000
62  0.000000 0.000000 0.000000  -0.078727 -3.136056 0.284226
63  -2.754978 -2.788567 -0.424380  1.570796 -0.000000 0.000000
64  -2.544528 -8.623238 -2.049822  1.574491 0.011002 -0.006198
65  -0.219072 -1.337187 -0.135918  -0.000000 0.000000 -0.000000
66  -0.219078 0.187971 19.478251  -0.000000 0.000000 -0.000000
67  -0.245097 -1.134826 1.111315  -0.000000 0.000000 -0.000000
68  -0.104048 -4.495923 7.879276  -0.000000 0.000000 -0.000000
69  -0.198095 4.323281 -6.346656  -0.000000 0.000000 -0.000000
70  -0.200449 -0.857878 4.877553  -0.000000 0.000000 -0.000000
71  -2.790154 -14.011703 -1.895336  1.574491 0.011002 -0.006198
time 11
0  0.000006 0.000000 0.000000  -1.570800 -1.391899 -1.570792
1  -4.327822 -0.845730 -0.674796  -1.544956 -1.855077 -0.198630
2  6.027522 -0.000325 0.000193  -1.079038 -1.083590 -1.026386
3  11.692109 0.000645 -0.000739  -1.361397 -0.000017 -1.406945
4  11.479826 0.000593 -0.000727  1.248290 -0.648982 0.181080
5  3.859509 -0.142880 -1.192050  -0.550885 -0.255832 -1.866282
6  1.312588 0.000011 0.000008  -0.134281 -0.007565 -0.192402
7  0.729354 0.000054 0.000050  -0.007819 -0.009377 -0.049784
8  3.942143 0.046273 -0.431512  -0.484645 0.035664 -1.413041
9  1.539111 0.000085 0.000003  -0.033415 -0.056767 -0.605686
10  1.196331 0.000146 0.000031  0.006943 0.002367 -0.289526
11  3.883505 -0.047270 0.431381  -0.270346 0.409995 -0.746893
12  1.719573 -0.000026 0.000015  0.028923 -0.121328 -1.267494
13  1.209179 0.000090 0.000013  -0.006830 -0.001496 -0.302684
14  4.085222 -0.082716 1.151039  0.033977 0.537783 -0.030448
15  1.719446 -0.000013 0.000022  0.011888 -0.076325 -0.864457
16  1.099675 0.000047 0.000005  -0.070447 0.038186 -1.423970
17  0.971588 -1.283499 0.847609  -0.978328 -0.625347 -0.310208
18  1.789820 -0.000003 -0.000018  0.000998 -0.014468 0.721478
19  1.207015 -0.000012 -0.000043  0.001593 -0.000026 -0.111145
20  5.740637 0.000410 -0.000703  -0.102607 0.000003 0.000071
21  11.480973 0.000331 -0.000803  -0.044662 -0.113425 0.003654
22  6.027525 -0.000329 0.000203  1.763521 -0.450396 1.693722
23  0.000001 11.692098 -0.000008  -0.974044 -0.425361 -0.774316
24  0.000002 0.000008 -0.000001  -0.492302 -0.000030 1.570739
25  -0.000001 -0.000012 -0.000001  0.868957 0.000002 1.570712
26  -4.967872 -9.778694 2.073871  1.473120 1.855075 -0.198639
27  6.027506 -0.000260 -0.000228  1.629653 0.662438 -0.411246
28  11.691994 0.000243 0.000855  0.564399 0.000075 -1.878096
29  11.478994 -0.000626 0.001375  -1.118978 0.568688 0.951353
30  3.859436 -0.132789 1.193063  0.385277 -0.029729 -1.748803
31  1.312558 0.000026 -0.000001  -0.013756 -0.031530 -0.953722
32  0.729344 0.000066 -0.000027  -0.198329 0.044732 -0.857780
33  3.942045 0.050109 0.430998  0.369881 -0.091819 -1.556998
34  1.539097 0.000011 -0.000001  -0.013288 -0.027151 -1.132777
35  1.196300 0.000074 -0.000005  0.000968 -0.002436 -0.994639
36  3.883410 -0.050502 -0.431086  0.299105 -0.220225 -1.386726
37  1.719565 -0.000077 -0.000003  -0.038529 0.030961 -1.462450
38  1.209198 0.000036 0.000012  -0.001756 -0.004187 -0.773865
39  3.806438 -0.112148 -1.295329  -0.028805 0.243340 -0.117787
40  1.719411 -0.000099 -0.000033  0.356276 -0.218063 -1.380320
41  1.099674 0.000027 0.000006  0.059920 -0.008679 -0.824866
42  0.889710 -0.317103 -1.125532  0.901376 0.231327 -0.743910
43  1.789778 -0.000009 -0.000043  0.027227 0.044051 -0.011391
44  1.206996 -0.000006 0.000006  -0.019167 -0.151093 1.385408
45  5.740571 0.000055 0.000724  0.130494 -0.000014 0.000021
46  11.480742 -0.000089 0.001025  0.040875 0.120265 0.146899
47  6.027514 -0.000272 -0.000237  -0.772566 -0.492485 -1.550306
48  -0.000001 11.691975 -0.000006  -1.251815 0.697338 0.931889
49  0.000004 -0.000000 0.000000  2.836925 -0.000041 1.570856
50  -0.000006 -0.000016 0.000005  2.272644 -0.000030 1.570865
51  -3.566810 -3.204885 -5.206128  -0.087488 3.110576 1.443709
52  0.000000 -0.000000 0.000001  0.008153 -0.000259 0.000009
53  0.000000 -0.000000 0.000000  1.565115 0.043565 -0.106862
54  -0.814372 -15.053053 -4.871279  -0.933861 -0.075214 -1.950593
55  0.000001 -0.000001 -0.000000  0.000000 -0.000000 -0.000002
56  0.000031 0.000028 0.000001  -1.571901 -0.044449 -0.106509
57  8.694838 -16.141689 -16.416052  1.570796 -0.000000 0.000000
58  -16.922342 4.543208 -16.901630  1.570796 -0.000000 0.000000
59  -0.670483 1.601972 -4.109488  1.570796 -0.000000 0.000000
60  -0.004311 0.001230 -0.000371  0.006898 -0.005534 -0.284229
61  2.073871 10.506637 -3.148526  1.570796 -0.000000 0.000000
62  0.000000 0.000000 0.000000  -0.078727 -3.136056 0.284226
63  -2.754978 -2.788567 -0.424380  1.570796 -0.000000 0.000000
64  -2.552913 -8.521402 -2.061424  1.570850 -0.001091 -0.004157
65  -0.219072 -1.337187 -0.135917  -0.000000 0.000000 0.000000
66  -0.219078 0.187971 19.478251  -0.000000 0.000000 0.000000
67  -0.245097 -1.134826 1.111317  -0.000000 0.000000 0.000000
68  -0.104048 -4.495923 7.879276  -0.000000 0.000000 0.000000
69  -0.198094 4.323280 -6.346651  -0.000000 0.000000 0.000000
70  -0.200449 -0.857878 4.877554  -0.000000 0.000000 0.000000
71  -2.789411 -13.909760 -1.889893  1.570850 -0.001091 -0.004157
time 12
0  0.000006 0.000000 0.000000  -1.570800 -1.391899 -1.570792
1  -4.327822 -0.845730 -0.674796  -1.544956 -1.855077 -0.198630
2  6.027522 -0.000325 0.000193  -1.087395 -1.079370 -1.020933
3  11.692108 0.000643 -0.000739  -1.361398 -0.000017 -1.419571
4  11.479755 0.000584 -0.000760  1.257948 -0.658694 0.188732
5  3.859507 -0.142880 -1.192050  -0.550885 -0.255832 -1.866282
6  1.312589 0.000012 0.000008  -0.134281 -0.007565 -0.192402
7  0.729354 0.000055 0.000049  -0.007819 -0.009377 -0.049784
8  3.942142 0.046274 -0.431512  -0.484645 0.035664 -1.413040
9  1.539111 0.000084 0.000005  -0.033414 -0.056767 -0.605686
10  1.196332 0.000144 0.000030  0.006943 0.002367 -0.289526
11  3.883505 -0.047269 0.431382  -0.270346 0.409995 -0.746893
12  1.719573 -0.000026 0.000014  0.028923 -0.121328 -1.267494
13  1.209179 0.000090 0.000011  -0.006830 -0.001496 -0.302684
14  4.085221 -0.082715 1.151041  0.033977 0.537783 -0.030448
15  1.719449 -0.000011 0.000023  0.011888 -0.076325 -0.864457
16  1.099676 0.000050 0.000008  -0.070447 0.038185 -1.423970
17  0.971585 -1.283499 0.847609  -0.978328 -0.625347 -0.310208
18  1.789819 -0.000003 -0.000017  0.000998 -0.014468 0.721478
19  1.207016 -0.000011 -0.000044  0.001593 -0.000026 -0.111145
20  5.740637 0.000409 -0.000703  -0.101403 0.000003 0.000071
21  11.480960 0.000328 -0.000807  -0.042212 -0.115324 0.005451
22  6.027525 -0.000329 0.000203  1.769435 -0.452613 1.689218
23  0.000002 11.692099 -0.000007  -0.981605 -0.432121 -0.779324
24  0.000002 0.000008 0.000000  -0.492302 -0.000030 1.570739
25  -0.000001 -0.000011 -0.000001  0.868957 0.000002 1.570712
26  -4.967872 -9.778694 2.073871  1.473120 1.855075 -0.198639
27  6.027506 -0.000260 -0.000228  1.626772 0.659230 -0.412375
28  11.691992 0.000243 0.000853  0.564399 0.000075 -1.886289
29  11.478922 -0.000659 0.001394  -1.104722 0.569832 0.954335
30  3.859436 -0.132789 1.193062  0.385277 -0.029729 -1.748803
31  1.312559 0.000025 -0.000000  -0.013756 -0.031530 -0.953722
32  0.729344 0.000066 -0.000027  -0.198329 0.044732 -0.857780
33  3.942045 0.050108 0.430997  0.369881 -0.091819 -1.556998
34  1.539097 0.000011 -0.000001  -0.013288 -0.027151 -1.132776
35  1.196300 0.000075 -0.000005  0.000968 -0.002436 -0.994639
36  3.883410 -0.050502 -0.431087  0.299105 -0.220225 -1.386726
37  1.719564 -0.000076 -0.000003  -0.038529 0.030961 -1.462450
38  1.209198 0.000035 0.000012  -0.001756 -0.004187 -0.773865
39  3.806437 -0.112148 -1.295330  -0.028805 0.243340 -0.117787
40  1.719411 -0.000098 -0.000034  0.356276 -0.218063 -1.380320
41  1.099674 0.000024 0.000007  0.059920 -0.008679 -0.824866
42  0.889709 -0.317103 -1.125532  0.901376 0.231327 -0.743911
43  1.789779 -0.000008 -0.000042  0.027227 0.044051 -0.011391
44  1.206996 -0.000007 0.000007  -0.019167 -0.151093 1.385408
45  5.740572 0.000055 0.000724  0.133604 -0.000014 0.000021
46  11.480728 -0.000096 0.001028  0.043122 0.121565 0.146452
47  6.027514 -0.000272 -0.000237  -0.770338 -0.495894 -1.550724
48  -0.000001 11.691974 -0.000007  -1.256686 0.702365 0.934042
49  0.000004 -0.000002 0.000001  2.836925 -0.000041 1.570856
50  -0.000006 -0.000016 0.000004  2.272644 -0.000030 1.570865
51  -3.540464 -3.127395 -5.219450  -0.075278 3.110738 1.446581
52  -0.000000 0.000000 0.000000  0.008153 -0.000259 0.000009
53  0.000000 -0.000000 -0.000000  1.565115 0.043565 -0.106862
54  -0.762854 -14.968053 -4.831160  -0.921974 -0.072312 -1.948974
55  0.000001 -0.000000 -0.000000  0.000000 -0.000000 -0.000002
56  0.000031 0.000029 0.000000  -1.571901 -0.044449 -0.106509
57  8.694838 -16.141689 -16.416052  1.570796 -0.000000 0.000000
58  -16.922342 4.543208 -16.901630  1.570796 -0.000000 0.000000
59  -0.670483 1.601972 -4.109488  1.570796 -0.000000 0.000000
60  -0.004311 0.001230 -0.000371  0.006898 -0.005534 -0.284229
61  2.073871 10.506637 -3.148526  1.570796 -0.000000 0.000000
62  0.000000 0.000000 0.000000  -0.078727 -3.136056 0.284226
63  -2.754978 -2.788567 -0.424380  1.570796 -0.000000 0.000000
64  -2.551457 -8.436079 -2.053662  1.569195 -0.013183 -0.001651
65  -0.219072 -1.337187 -0.135917  0.000000 -0.000000 -0.000000
66  -0.219078 0.187972 19.478251  0.000000 -0.000000 -0.000000
67  -0.245097 -1.134826 1.111317  0.000000 -0.000000 -0.000000
68  -0.104048 -4.495923 7.879275  0.000000 -0.000000 -0.000000
69  -0.198094 4.323280 -6.346653  0.000000 -0.000000 -0.000000
70  -0.200449 -0.857877 4.877554  0.000000 -0.000000 -0.000000
71  -2.776627 -13.824718 -1.875814  1.569195 -0.013183 -0.001651
time 13
0  0.000006 0.000000 0.000000  -1.570800 -1.391899 -1.570792
1  -4.327822 -0.845730 -0.674796  -1.544956 -1.855077 -0.198630
2  6.027522 -0.000325 0.000193  -1.092317 -1.077193 -1.018085
3  11.692109 0.000644 -0.000740  -1.361398 -0.000018 -1.425967
4  11.479719 0.000584 -0.000780  1.261467 -0.664859 0.193727
5  3.859507 -0.142880 -1.192049  -0.550885 -0.255832 -1.866282
6  1.312589 0.000013 0.000007  -0.134281 -0.007565 -0.192402
7  0.729354 0.000054 0.000050  -0.007819 -0.009377 -0.049784
8  3.942142 0.046273 -0.431512  -0.484645 0.035664 -1.413041
9  1.539111 0.000084 0.000006  -0.033414 -0.056767 -0.605686
10  1.196332 0.000145 0.000029  0.006943 0.002367 -0.289526
11  3.883503 -0.047269 0.431381  -0.270346 0.409995 -0.746893
12  1.719573 -0.000028 0.000014  0.028923 -0.121328 -1.267494
13  1.209180 0.000092 0.000012  -0.006830 -0.001497 -0.302684
14  4.085220 -0.082716 1.151041  0.033977 0.537783 -0.030448
15  1.719450 -0.000012 0.000023  0.011888 -0.076325 -0.864457
16  1.099675 0.000050 0.000005  -0.070447 0.038185 -1.423970
17  0.971585 -1.283499 0.847609  -0.978328 -0.625347 -0.310208
18  1.789818 -0.000004 -0.000018  0.000998 -0.014468 0.721478
19  1.207014 -0.000012 -0.000044  0.001593 -0.000026 -0.111145
20  5.740637 0.000410 -0.000702  -0.101098 0.000003 0.000071
21  11.480952 0.000329 -0.000815  -0.041125 -0.116571 0.006450
22  6.027525 -0.000329 0.000203  1.772802 -0.453608 1.686255
23  0.000002 11.692098 -0.000007  -0.985430 -0.435558 -0.781846
24  0.000003 0.000009 -0.000002  -0.492302 -0.000030 1.570738
25  -0.000001 -0.000011 -0.000001  0.868957 0.000002 1.570712
26  -4.967872 -9.778694 2.073871  1.473120 1.855075 -0.198639
27  6.027506 -0.000260 -0.000228  1.627185 0.658687 -0.412272
28  11.691991 0.000243 0.000855  0.564399 0.000076 -1.890135
29  11.478889 -0.000673 0.001403  -1.097800 0.567911 0.958155
30  3.859436 -0.132789 1.193062  0.385277 -0.029729 -1.748803
31  1.312559 0.000026 0.000000  -0.013756 -0.031530 -0.953722
32  0.729344 0.000066 -0.000026  -0.198329 0.044732 -0.857780
33  3.942045 0.050109 0.430997  0.369881 -0.091819 -1.556998
34  1.539097 0.000011 -0.000001  -0.013288 -0.027151 -1.132776
35  1.196300 0.000075 -0.000004  0.000968 -0.002436 -0.994639
36  3.883411 -0.050502 -0.431087  0.299105 -0.220225 -1.386726
37  1.719565 -0.000075 -0.000003  -0.038529 0.030961 -1.462450
38  1.209197 0.000035 0.000012  -0.001756 -0.004187 -0.773865
39  3.806437 -0.112148 -1.295329  -0.028805 0.243340 -0.117787
40  1.719411 -0.000099 -0.000034  0.356276 -0.218063 -1.380320
41  1.099673 0.000025 0.000006  0.059920 -0.008679 -0.824866
42  0.889709 -0.317102 -1.125533  0.901376 0.231327 -0.743911
43  1.789778 -0.000009 -0.000042  0.027227 0.044051 -0.011391
44  1.206996 -0.000007 0.000006  -0.019167 -0.151093 1.385408
45  5.740572 0.000055 0.000725  0.135518 -0.000014 0.000021
46  11.480721 -0.000099 0.001030  0.044345 0.121819 0.146835
47  6.027514 -0.000272 -0.000237  -0.769623 -0.495825 -1.551214
48  -0.000001 11.691975 -0.000006  -1.258975 0.704727 0.935044
49  0.000002 -0.000001 0.000001  2.836925 -0.000041 1.570856
50  -0.000006 -0.000016 0.000005  2.272644 -0.000030 1.570865
51  -3.530591 -3.091587 -5.202861  -0.069900 3.109408 1.448839
52  -0.000000 -0.000000 -0.000000  0.008153 -0.000259 0.000009
53  0.000000 0.000000 -0.000000  1.565115 0.043565 -0.106862
54  -0.730407 -14.926680 -4.807045  -0.917094 -0.069674 -1.947232
55  -0.000000 0.000000 0.000000  0.000000 -0.000000 -0.000002
56  0.000031 0.000029 0.000001  -1.571901 -0.044449 -0.106509
57  8.694838 -16.141689 -16.416052  1.570796 -0.000000 0.000000
58  -16.922342 4.543208 -16.901630  1.570796 -0.000000 0.000000
59  -0.670483 1.601972 -4.109488  1.570796 -0.000000 0.000000
60  -0.004311 0.001230 -0.000371  0.006898 -0.005534 -0.284229
61  2.073871 10.506637 -3.148526  1.570796 -0.000000 0.000000
62  0.000000 0.000000 0.000000  -0.078727 -3.136056 0.284226
63  -2.754978 -2.788567 -0.424380  1.570796 -0.000000 0.000000
64  -2.547902 -8.400299 -2.035154  1.569858 -0.018680 0.000427
65  -0.219072 -1.337187 -0.135916  -0.000000 0.000000 0.000000
66  -0.219078 0.187971 19.478252  -0.000000 0.000000 0.000000
67  -0.245097 -1.134826 1.111316  -0.000000 0.000000 0.000000
68  -0.104048 -4.495923 7.879278  -0.000000 0.000000 0.000000
69  -0.198095 4.323280 -6.346651  -0.000000 0.000000 0.000000
70  -0.200449 -0.857878 4.877555  -0.000000 0.000000 0.000000
71  -2.762779 -13.789514 -1.862068  1.569858 -0.018680 0.000427
time 14
0  0.000006 0.000000 0.000000  -1.570800 -1.391899 -1.570792
1  -4.327822 -0.845730 -0.674796  -1.544956 -1.855077 -0.198630
2  6.027522 -0.000325 0.000193  -1.090911 -1.078130 -1.019193
3  11.692108 0.000643 -0.000739  -1.361398 -0.000018 -1.424074
4  11.479731 0.000586 -0.000775  1.255834 -0.664530 0.190661
5  3.859511 -0.142880 -1.192049  -0.550885 -0.255832 -1.866282
6  1.312590 0.000012 0.000009  -0.134281 -0.007565 -0.192402
7  0.729354 0.000054 0.000050  -0.007819 -0.009376 -0.049784
8  3.942145 0.046273 -0.431512  -0.484645 0.035664 -1.413041
9  1.539110 0.000083 0.000006  -0.033414 -0.056767 -0.605686
10  1.196331 0.000147 0.000029  0.006942 0.002367 -0.289526
11  3.883506 -0.047269 0.431382  -0.270346 0.409995 -0.746893
12  1.719574 -0.000026 0.000014  0.028923 -0.121328 -1.267494
13  1.209179 0.000092 0.000009  -0.006830 -0.001497 -0.302684
14  4.085224 -0.082716 1.151042  0.033977 0.537783 -0.030448
15  1.719449 -0.000012 0.000021  0.011888 -0.076325 -0.864457
16  1.099676 0.000049 0.000005  -0.070447 0.038185 -1.423970
17  0.971588 -1.283499 0.847609  -0.978328 -0.625347 -0.310208
18  1.789820 -0.000002 -0.000018  0.000998 -0.014468 0.721478
19  1.207015 -0.000012 -0.000044  0.001593 -0.000026 -0.111145
20  5.740637 0.000410 -0.000703  -0.102553 0.000003 0.000070
21  11.480954 0.000329 -0.000811  -0.042313 -0.116542 0.005498
22  6.027525 -0.000329 0.000203  1.771691 -0.453041 1.686873
23  0.000001 11.692098 -0.000007  -0.984298 -0.434539 -0.781100
24  0.000002 0.000009 -0.000002  -0.492302 -0.000031 1.570738
25  -0.000001 -0.000012 -0.000001  0.868957 0.000002 1.570712
26  -4.967872 -9.778694 2.073871  1.473120 1.855075 -0.198639
27  6.027506 -0.000260 -0.000228  1.631261 0.659818 -0.410877
28  11.691992 0.000243 0.000855  0.564399 0.000076 -1.888823
29  11.478902 -0.000667 0.001400  -1.106093 0.564093 0.959197
30  3.859436 -0.132789 1.193063  0.385277 -0.029729 -1.748803
31  1.312559 0.000025 -0.000000  -0.013756 -0.031530 -0.953722
32  0.729344 0.000065 -0.000027  -0.198329 0.044732 -0.857780
33  3.942046 0.050109 0.430997  0.369881 -0.091819 -1.556998
34  1.539097 0.000013 -0.000001  -0.013288 -0.027151 -1.132777
35  1.196301 0.000074 -0.000004  0.000968 -0.002436 -0.994639
36  3.883411 -0.050502 -0.431087  0.299105 -0.220225 -1.386726
37  1.719565 -0.000077 -0.000003  -0.038529 0.030961 -1.462450
38  1.209198 0.000036 0.000012  -0.001756 -0.004187 -0.773865
39  3.806438 -0.112148 -1.295329  -0.028805 0.243340 -0.117787
40  1.719413 -0.000099 -0.000033  0.356276 -0.218063 -1.380320
41  1.099673 0.000025 0.000007  0.059920 -0.008679 -0.824866
42  0.889710 -0.317103 -1.125533  0.901376 0.231327 -0.743911
43  1.789779 -0.000009 -0.000042  0.027227 0.044051 -0.011391
44  1.206995 -0.000008 0.000007  -0.019167 -0.151093 1.385408
45  5.740571 0.000056 0.000724  0.134483 -0.000014 0.000021
46  11.480724 -0.000097 0.001030  0.043222 0.120572 0.147815
47  6.027514 -0.000272 -0.000237  -0.769262 -0.492426 -1.552486
48  -0.000001 11.691976 -0.000006  -1.258194 0.703921 0.934703
49  0.000002 -0.000001 -0.000000  2.836925 -0.000041 1.570856
50  -0.000006 -0.000015 0.000005  2.272644 -0.000030 1.570865
51  -3.553854 -3.105156 -5.165786  -0.077327 3.108853 1.449470
52  -0.000000 0.000000 0.000001  0.008153 -0.000259 0.000009
53  0.000000 0.000000 -0.000000  1.565115 0.043565 -0.106862
54  -0.740604 -14.938349 -4.807639  -0.924436 -0.071003 -1.945844
55  -0.000000 -0.000001 -0.000001  0.000000 -0.000000 -0.000002
56  0.000030 0.000028 0.000000  -1.571901 -0.044449 -0.106509
57  8.694838 -16.141689 -16.416052  1.570796 -0.000000 0.000000
58  -16.922342 4.543208 -16.901630  1.570796 -0.000000 0.000000
59  -0.670483 1.601972 -4.109488  1.570796 -0.000000 0.000000
60  -0.004311 0.001230 -0.000371  0.006898 -0.005534 -0.284229
61  2.073871 10.506637 -3.148526  1.570796 -0.000000 0.000000
62  0.000000 0.000000 0.000000  -0.078727 -3.136056 0.284226
63  -2.754978 -2.788567 -0.424380  1.570796 -0.000000 0.000000
64  -2.543465 -8.417589 -2.013062  1.571316 -0.011381 0.001277
65  -0.219072 -1.337187 -0.135917  -0.000000 0.000000 -0.000000
66  -0.219078 0.187972 19.478249  -0.000000 0.000000 -0.000000
67  -0.245097 -1.134826 1.111316  -0.000000 0.000000 -0.000000
68  -0.104048 -4.495923 7.879277  -0.000000 0.000000 -0.000000
69  -0.198094 4.323280 -6.346652  -0.000000 0.000000 -0.000000
70  -0.200449 -0.857877 4.877554  -0.000000 0.000000 -0.000000
71  -2.752404 -13.807236 -1.846253  1.571316 -0.011381 0.001277
time 15
0  0.000006 0.000000 0.000000  -1.570800 -1.391899 -1.570792
1  -4.327822 -0.845730 -0.674796  -1.544956 -1.855077 -0.198630
2  6.027522 -0.000325 0.000193  -1.085871 -1.080670 -1.022428
3  11.692108 0.000644 -0.000740  -1.361398 -0.000017 -1.417964
4  11.479761 0.000588 -0.000759  1.245796 -0.660476 0.183280
5  3.859509 -0.142880 -1.192049  -0.550885 -0.255832 -1.866282
6  1.312590 0.000011 0.000008  -0.134281 -0.007565 -0.192402
7  0.729354 0.000053 0.000051  -0.007819 -0.009377 -0.049784
8  3.942142 0.046272 -0.431511  -0.484645 0.035664 -1.413041
9  1.539110 0.000083 0.000003  -0.033415 -0.056767 -0.605686
10  1.196332 0.000145 0.000030  0.006943 0.002367 -0.289526
11  3.883504 -0.047270 0.431381  -0.270346 0.409995 -0.746893
12  1.719573 -0.000026 0.000015  0.028923 -0.121328 -1.267494
13  1.209177 0.000093 0.000012  -0.006830 -0.001497 -0.302684
14  4.085222 -0.082716 1.151041  0.033977 0.537783 -0.030448
15  1.719448 -0.000013 0.000023  0.011888 -0.076325 -0.864457
16  1.099675 0.000048 0.000003  -0.070447 0.038185 -1.423970
17  0.971587 -1.283500 0.847609  -0.978328 -0.625347 -0.310208
18  1.789820 -0.000003 -0.000017  0.000999 -0.014468 0.721478
19  1.207017 -0.000012 -0.000044  0.001593 -0.000026 -0.111145
20  5.740635 0.000411 -0.000703  -0.104816 0.000003 0.000070
21  11.480960 0.000329 -0.000807  -0.044635 -0.115765 0.003548
22  6.027525 -0.000329 0.000203  1.768107 -0.451732 1.689648
23  0.000002 11.692100 -0.000007  -0.980644 -0.431258 -0.778689
24  0.000003 0.000008 -0.000001  -0.492302 -0.000031 1.570739
25  -0.000001 -0.000011 -0.000001  0.868957 0.000002 1.570712
26  -4.967872 -9.778694 2.073871  1.473120 1.855075 -0.198639
27  6.027506 -0.000260 -0.000228  1.636503 0.661496 -0.409053
28  11.691993 0.000243 0.000854  0.564399 0.000075 -1.885072
29  11.478934 -0.000656 0.001392  -1.121788 0.560350 0.958403
30  3.859435 -0.132789 1.193063  0.385277 -0.029729 -1.748803
31  1.312558 0.000026 -0.000000  -0.013756 -0.031530 -0.953722
32  0.729344 0.000066 -0.000026  -0.198329 0.044732 -0.857780
33  3.942045 0.050109 0.430997  0.369881 -0.091819 -1.556998
34  1.539097 0.000011 -0.000001  -0.013288 -0.027151 -1.132776
35  1.196300 0.000075 -0.000006  0.000968 -0.002436 -0.994639
36  3.883411 -0.050502 -0.431087  0.299105 -0.220225 -1.386726
37  1.719565 -0.000075 -0.000003  -0.038529 0.030961 -1.462450
38  1.209197 0.000036 0.000011  -0.001756 -0.004187 -0.773865
39  3.806438 -0.112148 -1.295330  -0.028805 0.243340 -0.117787
40  1.719412 -0.000099 -0.000034  0.356276 -0.218063 -1.380320
41  1.099673 0.000026 0.000006  0.059920 -0.008679 -0.824866
42  0.889710 -0.317103 -1.125532  0.901376 0.231327 -0.743911
43  1.789779 -0.000009 -0.000042  0.027227 0.044051 -0.011391
44  1.206996 -0.000006 0.000006  -0.019167 -0.151093 1.385408
45  5.740571 0.000055 0.000723  0.131868 -0.000014 0.000021
46  11.480731 -0.000095 0.001028  0.040875 0.118752 0.148919
47  6.027514 -0.000272 -0.000237  -0.769048 -0.487963 -1.553980
48  -0.000001 11.691975 -0.000006  -1.255962 0.701618 0.933723
49  0.000003 -0.000000 -0.000001  2.836925 -0.000041 1.570856
50  -0.000007 -0.000016 0.000005  2.272644 -0.000030 1.570865
51  -3.591373 -3.141666 -5.125633  -0.090967 3.109067 1.448841
52  0.000000 0.000000 0.000000  0.008153 -0.000259 0.000009
53  -0.000000 0.000000 0.000000  1.565115 0.043565 -0.106862
54  -0.775814 -14.975847 -4.822706  -0.937616 -0.074622 -1.945069
55  -0.000001 -0.000000 0.000000  -0.000000 -0.000000 -0.000002
56  0.000029 0.000028 0.000001  -1.571901 -0.044449 -0.106509
57  8.694838 -16.141689 -16.416052  1.570796 -0.000000 0.000000
58  -16.922342 4.543208 -16.901630  1.570796 -0.000000 0.000000
59  -0.670483 1.601972 -4.109488  1.570796 -0.000000 0.000000
60  -0.004311 0.001230 -0.000371  0.006898 -0.005534 -0.284229
61  2.073871 10.506637 -3.148526  1.570796 -0.000000 0.000000
62  0.000000 0.000000 0.000000  -0.078727 -3.136056 0.284226
63  -2.754978 -2.788567 -0.424380  1.570796 -0.000000 0.000000
64  -2.539363 -8.458818 -1.994554  1.572774 0.002175 0.001087
65  -0.219072 -1.337187 -0.135917  -0.000000 -0.000000 0.000000
66  -0.219078 0.187971 19.478249  -0.000000 -0.000000 0.000000
67  -0.245097 -1.134826 1.111316  -0.000000 -0.000000 0.000000
68  -0.104048 -4.495923 7.879274  -0.000000 -0.000000 0.000000
69  -0.198094 4.323281 -6.346652  -0.000000 -0.000000 0.000000
70  -0.200449 -0.857878 4.877554  -0.000000 -0.000000 0.000000
71  -2.747063 -13.848663 -1.832692  1.572774 0.002175 0.001087
time 16
0  0.000006 0.000000 0.000000  -1.570800 -1.391899 -1.570792
1  -4.327822 -0.845730 -0.674796  -1.544956 -1.855077 -0.198630
2  6.027522 -0.000325 0.000193  -1.082309 -1.083261 -1.025512
3  11.692110 0.000644 -0.000739  -1.361397 -0.000017 -1.411098
4  11.479804 0.000592 -0.000739  1.240847 -0.655789 0.178984
5  3.859509 -0.142880 -1.192049  -0.550885 -0.255832 -1.866282
6  1.312590 0.000011 0.000008  -0.134281 -0.007565 -0.192402
7  0.729355 0.000054 0.000049  -0.007819 -0.009377 -0.049784
8  3.942141 0.046272 -0.431512  -0.484645 0.035664 -1.413041
9  1.539111 0.000083 0.000004  -0.033414 -0.056767 -0.605686
10  1.196332 0.000146 0.000031  0.006943 0.002367 -0.289526
11  3.883505 -0.047269 0.431381  -0.270346 0.409995 -0.746893
12  1.719572 -0.000026 0.000013  0.028923 -0.121328 -1.267494
13  1.209178 0.000091 0.000012  -0.006830 -0.001497 -0.302684
14  4.085221 -0.082716 1.151041  0.033977 0.537783 -0.030448
15  1.719449 -0.000013 0.000023  0.011888 -0.076325 -0.864457
16  1.099676 0.000050 0.000007  -0.070447 0.038185 -1.423970
17  0.971587 -1.283500 0.847609  -0.978328 -0.625347 -0.310208
18  1.789819 -0.000002 -0.000018  0.000998 -0.014468 0.721478
19  1.207016 -0.000012 -0.000044  0.001593 -0.000026 -0.111145
20  5.740638 0.000411 -0.000702  -0.105568 0.000003 0.000070
21  11.480970 0.000331 -0.000804  -0.045900 -0.114837 0.002549
22  6.027525 -0.000329 0.000203  1.765222 -0.450066 1.690965
23  0.000002 11.692099 -0.000007  -0.976533 -0.427580 -0.775968
24  0.000004 0.000009 -0.000000  -0.492302 -0.000030 1.570739
25  -0.000000 -0.000011 -0.000001  0.868957 0.000002 1.570712
26  -4.967872 -9.778694 2.073871  1.473120 1.855075 -0.198639
27  6.027506 -0.000260 -0.000228  1.639131 0.663820 -0.408030
28  11.691992 0.000243 0.000854  0.564399 0.000075 -1.880147
29  11.478977 -0.000634 0.001381  -1.130883 0.558423 0.956319
30  3.859435 -0.132789 1.193063  0.385277 -0.029729 -1.748803
31  1.312558 0.000026 -0.000000  -0.013756 -0.031530 -0.953722
32  0.729344 0.000065 -0.000027  -0.198329 0.044732 -0.857780
33  3.942044 0.050109 0.430998  0.369881 -0.091819 -1.556998
34  1.539097 0.000012 -0.000001  -0.013288 -0.027151 -1.132777
35  1.196300 0.000075 -0.000005  0.000968 -0.002436 -0.994639
36  3.883411 -0.050502 -0.431086  0.299105 -0.220225 -1.386726
37  1.719565 -0.000076 -0.000003  -0.038529 0.030961 -1.462450
38  1.209197 0.000036 0.000011  -0.001756 -0.004187 -0.773865
39  3.806437 -0.112148 -1.295329  -0.028805 0.243340 -0.117787
40  1.719412 -0.000099 -0.000033  0.356276 -0.218063 -1.380320
41  1.099674 0.000024 0.000006  0.059920 -0.008679 -0.824866
42  0.889709 -0.317103 -1.125531  0.901376 0.231327 -0.743911
43  1.789779 -0.000009 -0.000042  0.027227 0.044051 -0.011391
44  1.206996 -0.000006 0.000006  -0.019167 -0.151093 1.385408
45  5.740572 0.000056 0.000724  0.130096 -0.000014 0.000021
46  11.480740 -0.000090 0.001026  0.039561 0.117701 0.149228
47  6.027514 -0.000272 -0.000237  -0.770476 -0.485117 -1.553905
48  -0.000003 11.691975 -0.000006  -1.253034 0.698596 0.932430
49  0.000002 -0.000002 -0.000001  2.836925 -0.000041 1.570856
50  -0.000007 -0.000016 0.000004  2.272644 -0.000030 1.570865
51  -3.609383 -3.188373 -5.106626  -0.098296 3.109306 1.448179
52  -0.000000 -0.000000 0.000001  0.008153 -0.000259 0.000009
53  -0.000000 0.000000 0.000001  1.565115 0.043565 -0.106862
54  -0.796734 -15.023942 -4.832011  -0.944670 -0.076680 -1.944960
55  -0.000001 -0.000001 -0.000000  0.000000 -0.000000 -0.000002
56  0.000029 0.000028 0.000001  -1.571901 -0.044449 -0.106509
57  8.694838 -16.141689 -16.416052  1.570796 -0.000000 0.000000
58  -16.922342 4.543208 -16.901630  1.570796 -0.000000 0.000000
59  -0.670483 1.601972 -4.109488  1.570796 -0.000000 0.000000
60  -0.004311 0.001230 -0.000371  0.006898 -0.005534 -0.284229
61  2.073871 10.506637 -3.148526  1.570796 -0.000000 0.000000
62  0.000000 0.000000 0.000000  -0.078727 -3.136056 0.284226
63  -2.754978 -2.788567 -0.424380  1.570796 -0.000000 0.000000
64  -2.536813 -8.508028 -1.986792  1.573437 0.009474 0.000666
65  -0.219072 -1.337187 -0.135916  -0.000000 -0.000000 -0.000000
66  -0.219078 0.187971 19.478251  -0.000000 -0.000000 -0.000000
67  -0.245097 -1.134826 1.111317  -0.000000 -0.000000 -0.000000
68  -0.104047 -4.495923 7.879275  -0.000000 -0.000000 -0.000000
69  -0.198094 4.323281 -6.346654  -0.000000 -0.000000 -0.000000
70  -0.200449 -0.857878 4.877553  -0.000000 -0.000000 -0.000000
71  -2.745625 -13.897889 -1.826948  1.573437 0.009474 0.000666
time 17
0  0.000006 0.000000 0.000000  -1.570800 -1.391899 -1.570792
1  -4.327822 -0.845730 -0.674796  -1.544956 -1.855077 -0.198630
2  6.027522 -0.000325 0.000193  -1.082837 -1.085227 -1.027307
3  11.692109 0.000645 -0.000740  -1.361397 -0.000017 -1.405778
4  11.479831 0.000595 -0.000723  1.246014 -0.651936 0.180898
5  3.859509 -0.142880 -1.192049  -0.550885 -0.255832 -1.866282
6  1.312590 0.000012 0.000007  -0.134281 -0.007565 -0.192402
7  0.729354 0.000054 0.000050  -0.007819 -0.009377 -0.049784
8  3.942144 0.046272 -0.431512  -0.484645 0.035664 -1.413041
9  1.539110 0.000083 0.000004  -0.033414 -0.056767 -0.605686
10  1.196332 0.000146 0.000029  0.006943 0.002367 -0.289526
11  3.883506 -0.047269 0.431381  -0.270346 0.409995 -0.746893
12  1.719573 -0.000027 0.000015  0.028923 -0.121328 -1.267494
13  1.209178 0.000091 0.000012  -0.006830 -0.001496 -0.302684
14  4.085225 -0.082715 1.151041  0.033977 0.537783 -0.030448
15  1.719448 -0.000013 0.000023  0.011888 -0.076325 -0.864457
16  1.099676 0.000048 0.000005  -0.070447 0.038185 -1.423970
17  0.971588 -1.283499 0.847610  -0.978328 -0.625347 -0.310208
18  1.789819 -0.000003 -0.000018  0.000998 -0.014468 0.721478
19  1.207015 -0.000012 -0.000043  0.001593 -0.000026 -0.111145
20  5.740637 0.000410 -0.000703  -0.103740 0.000003 0.000071
21  11.480974 0.000330 -0.000802  -0.044990 -0.114038 0.003377
22  6.027525 -0.000329 0.000203  1.764572 -0.448174 1.688986
23  0.000002 11.692099 -0.000007  -0.973345 -0.424738 -0.773851
24  0.000002 0.000009 -0.000000  -0.492302 -0.000030 1.570739
25  -0.000001 -0.000011 -0.000000  0.868957 0.000002 1.570712
26  -4.967872 -9.778694 2.073871  1.473120 1.855075 -0.198639
27  6.027506 -0.000260 -0.000228  1.637085 0.666388 -0.408534
28  11.691994 0.000243 0.000856  0.564399 0.000075 -1.875300
29  11.479021 -0.000617 0.001367  -1.127019 0.559923 0.952629
30  3.859436 -0.132789 1.193063  0.385277 -0.029729 -1.748803
31  1.312559 0.000026 -0.000000  -0.013756 -0.031530 -0.953722
32  0.729344 0.000066 -0.000027  -0.198329 0.044732 -0.857780
33  3.942045 0.050109 0.430997  0.369881 -0.091819 -1.556998
34  1.539096 0.000012 -0.000001  -0.013288 -0.027151 -1.132776
35  1.196300 0.000075 -0.000005  0.000968 -0.002436 -0.994639
36  3.883410 -0.050502 -0.431086  0.299105 -0.220225 -1.386726
37  1.719565 -0.000076 -0.000002  -0.038529 0.030961 -1.462450
38  1.209197 0.000036 0.000011  -0.001756 -0.004187 -0.773865
39  3.806438 -0.112148 -1.295329  -0.028805 0.243340 -0.117787
40  1.719412 -0.000099 -0.000034  0.356276 -0.218063 -1.380320
41  1.099674 0.000026 0.000006  0.059920 -0.008679 -0.824866
42  0.889709 -0.317103 -1.125532  0.901376 0.231327 -0.743911
43  1.789778 -0.000009 -0.000042  0.027227 0.044051 -0.011391
44  1.206996 -0.000007 0.000006  -0.019167 -0.151093 1.385408
45  5.740573 0.000055 0.000725  0.130263 -0.000014 0.000021
46  11.480749 -0.000088 0.001023  0.040261 0.118162 0.148182
47  6.027514 -0.000272 -0.000237  -0.773872 -0.485521 -1.551564
48  -0.000001 11.691977 -0.000006  -1.250155 0.695625 0.931149
49  0.000003 -0.000001 0.000000  2.836925 -0.000041 1.570856
50  -0.000006 -0.000016 0.000004  2.272644 -0.000030 1.570865
51  -3.591380 -3.233244 -5.123490  -0.093430 3.110034 1.447884
52  0.000000 0.000000 -0.000001  0.008153 -0.000259 0.000009
53  -0.000000 0.000000 0.000000  1.565115 0.043565 -0.106862
54  -0.785432 -15.069698 -4.819964  -0.939764 -0.076173 -1.945785
55  -0.000001 -0.000001 0.000000  0.000000 -0.000000 -0.000002
56  0.000030 0.000028 0.000001  -1.571901 -0.044449 -0.106509
57  8.694838 -16.141689 -16.416052  1.570796 -0.000000 0.000000
58  -16.922342 4.543208 -16.901630  1.570796 -0.000000 0.000000
59  -0.670483 1.601972 -4.109488  1.570796 -0.000000 0.000000
60  -0.004311 0.001230 -0.000371  0.006898 -0.005534 -0.284229
61  2.073871 10.506637 -3.148526  1.570796 -0.000000 0.000000
62  0.000000 0.000000 0.000000  -0.078727 -3.136056 0.284226
63  -2.754978 -2.788567 -0.424380  1.570796 -0.000000 0.000000
64  -2.536014 -8.549257 -1.991606  1.572116 0.004737 0.000207
65  -0.219072 -1.337187 -0.135917  0.000000 -0.000000 -0.000000
66  -0.219078 0.187971 19.478251  0.000000 -0.000000 -0.000000
67  -0.245097 -1.134826 1.111316  0.000000 -0.000000 -0.000000
68  -0.104048 -4.495923 7.879275  0.000000 -0.000000 -0.000000
69  -0.198094 4.323280 -6.346653  0.000000 -0.000000 -0.000000
70  -0.200449 -0.857878 4.877554  0.000000 -0.000000 -0.000000
71  -2.748026 -13.938810 -1.825655  1.572116 0.004737 0.000207
time 18
0  0.000006 0.000000 0.000000  -1.570800 -1.391899 -1.570792
1  -4.327822 -0.845730 -0.674796  -1.544956 -1.855077 -0.198630
2  6.027522 -0.000325 0.000193  -1.083976 -1.086123 -1.027963
3  11.692108 0.000643 -0.000739  -1.361397 -0.000017 -1.403543
4  11.479845 0.000598 -0.000715  1.250847 -0.650183 0.182922
5  3.859507 -0.142880 -1.192050  -0.550885 -0.255832 -1.866282
6  1.312589 0.000011 0.000008  -0.134281 -0.007565 -0.192402
7  0.729355 0.000053 0.000049  -0.007819 -0.009377 -0.049784
8  3.942143 0.046273 -0.431512  -0.484645 0.035664 -1.413041
9  1.539110 0.000084 0.000006  -0.033414 -0.056767 -0.605686
10  1.196333 0.000146 0.000029  0.006942 0.002367 -0.289526
11  3.883504 -0.047270 0.431381  -0.270346 0.409995 -0.746893
12  1.719574 -0.000025 0.000015  0.028923 -0.121328 -1.267494
13  1.209181 0.000091 0.000011  -0.006830 -0.001497 -0.302684
14  4.085222 -0.082717 1.151040  0.033977 0.537783 -0.030448
15  1.719448 -0.000012 0.000021  0.011888 -0.076325 -0.864457
16  1.099677 0.000049 0.000008  -0.070447 0.038185 -1.423970
17  0.971586 -1.283500 0.847609  -0.978328 -0.625347 -0.310208
18  1.789819 -0.000003 -0.000018  0.000998 -0.014468 0.721478
19  1.207014 -0.000012 -0.000044  0.001593 -0.000026 -0.111145
20  5.740637 0.000410 -0.000703  -0.102302 0.000003 0.000070
21  11.480977 0.000331 -0.000801  -0.044067 -0.113656 0.004137
22  6.027525 -0.000329 0.000203  1.764698 -0.447139 1.687268
23  0.000003 11.692097 -0.000007  -0.972005 -0.423545 -0.772959
24  0.000002 0.000008 -0.000002  -0.492302 -0.000030 1.570739
25  -0.000000 -0.000012 -0.000001  0.868957 0.000002 1.570712
26  -4.967872 -9.778694 2.073871  1.473120 1.855075 -0.198639
27  6.027506 -0.000260 -0.000228  1.635052 0.667616 -0.409132
28  11.691990 0.000243 0.000855  0.564399 0.000074 -1.872975
29  11.479037 -0.000608 0.001361  -1.122655 0.561512 0.950134
30  3.859435 -0.132789 1.193063  0.385277 -0.029729 -1.748803
31  1.312558 0.000026 -0.000001  -0.013756 -0.031530 -0.953722
32  0.729344 0.000065 -0.000027  -0.198329 0.044732 -0.857780
33  3.942045 0.050108 0.430998  0.369881 -0.091819 -1.556998
34  1.539097 0.000011 -0.000001  -0.013288 -0.027151 -1.132776
35  1.196299 0.000075 -0.000005  0.000968 -0.002436 -0.994639
36  3.883410 -0.050502 -0.431086  0.299105 -0.220225 -1.386726
37  1.719565 -0.000076 -0.000002  -0.038529 0.030961 -1.462450
38  1.209198 0.000035 0.000012  -0.001756 -0.004187 -0.773865
39  3.806437 -0.112148 -1.295329  -0.028805 0.243340 -0.117787
40  1.719411 -0.000099 -0.000034  0.356276 -0.218063 -1.380320
41  1.099673 0.000027 0.000007  0.059920 -0.008679 -0.824866
42  0.889709 -0.317103 -1.125532  0.901376 0.231327 -0.743910
43  1.789779 -0.000009 -0.000042  0.027227 0.044051 -0.011391
44  1.206996 -0.000007 0.000006  -0.019167 -0.151093 1.385408
45  5.740571 0.000056 0.000723  0.130693 -0.000014 0.000021
46  11.480750 -0.000085 0.001021  0.040986 0.118700 0.147326
47  6.027514 -0.000272 -0.000237  -0.775885 -0.486463 -1.549963
48  -0.000001 11.691974 -0.000007  -1.248775 0.694201 0.930532
49  0.000003 -0.000001 -0.000000  2.836924 -0.000041 1.570856
50  -0.000006 -0.000015 0.000004  2.272644 -0.000030 1.570865
51  -3.575318 -3.254460 -5.140279  -0.088564 3.110763 1.447833
52  0.000000 -0.000000 -0.000000  0.008153 -0.000259 0.000009
53  -0.000000 0.000000 0.000000  1.565115 0.043565 -0.106862
54  -0.773287 -15.091065 -4.807849  -0.934859 -0.075665 -1.946360
55  -0.000002 -0.000001 0.000000  0.000000 -0.000000 -0.000002
56  0.000029 0.000028 0.000001  -1.571901 -0.044449 -0.106509
57  8.694838 -16.141689 -16.416052  1.570796 -0.000000 0.000000
58  -16.922342 4.543208 -16.901630  1.570796 -0.000000 0.000000
59  -0.670483 1.601972 -4.109488  1.570796 -0.000000 0.000000
60  -0.004311 0.001230 -0.000371  0.006898 -0.005534 -0.284229
61  2.073871 10.506637 -3.148526  1.570796 -0.000000 0.000000
62  0.000000 0.000000 0.000000  -0.078727 -3.136056 0.284226
63  -2.754978 -2.788567 -0.424380  1.570796 -0.000000 0.000000
64  -2.535900 -8.566546 -1.996421  1.570796 -0.000000 0.000000
65  -0.219072 -1.337187 -0.135917  0.000000 -0.000000 0.000000
66  -0.219078 0.187971 19.478249  0.000000 -0.000000 0.000000
67  -0.245097 -1.134826 1.111317  0.000000 -0.000000 0.000000
68  -0.104048 -4.495923 7.879277  0.000000 -0.000000 0.000000
69  -0.198094 4.323280 -6.346652  0.000000 -0.000000 0.000000
70  -0.200449 -0.857878 4.877554  0.000000 -0.000000 0.000000
71  -2.749810 -13.955832 -1.824366  1.570796 -0.000000 0.000000
end
