version 1
nodes
0 "ValveBiped.Bip01_Spine4" -1
1 "ValveBiped.Bip01_L_Clavicle" 0
2 "ValveBiped.Bip01_L_UpperArm" 1
3 "ValveBiped.Bip01_L_Forearm" 2
4 "ValveBiped.Bip01_L_Hand" 3
5 "ValveBiped.Bip01_L_Finger4" 4
6 "ValveBiped.Bip01_L_Finger41" 5
7 "ValveBiped.Bip01_L_Finger42" 6
8 "ValveBiped.Bip01_L_Finger3" 4
9 "ValveBiped.Bip01_L_Finger31" 8
10 "ValveBiped.Bip01_L_Finger32" 9
11 "ValveBiped.Bip01_L_Finger2" 4
12 "ValveBiped.Bip01_L_Finger21" 11
13 "ValveBiped.Bip01_L_Finger22" 12
14 "ValveBiped.Bip01_L_Finger1" 4
15 "ValveBiped.Bip01_L_Finger11" 14
16 "ValveBiped.Bip01_L_Finger12" 15
17 "ValveBiped.Bip01_L_Finger0" 4
18 "ValveBiped.Bip01_L_Finger01" 17
19 "ValveBiped.Bip01_L_Finger02" 18
20 "ValveBiped.Bip01_L_Ulna" 3
21 "ValveBiped.Bip01_L_Wrist" 3
22 "rig_l_upperarm" 1
23 "rig_l_forearm" 22
24 "rig_d_l_forearm" 23
25 "rig_d_l_upperarm" 22
26 "ValveBiped.Bip01_R_Clavicle" 0
27 "ValveBiped.Bip01_R_UpperArm" 26
28 "ValveBiped.Bip01_R_Forearm" 27
29 "ValveBiped.Bip01_R_Hand" 28
30 "ValveBiped.Bip01_R_Finger4" 29
31 "ValveBiped.Bip01_R_Finger41" 30
32 "ValveBiped.Bip01_R_Finger42" 31
33 "ValveBiped.Bip01_R_Finger3" 29
34 "ValveBiped.Bip01_R_Finger31" 33
35 "ValveBiped.Bip01_R_Finger32" 34
36 "ValveBiped.Bip01_R_Finger2" 29
37 "ValveBiped.Bip01_R_Finger21" 36
38 "ValveBiped.Bip01_R_Finger22" 37
39 "ValveBiped.Bip01_R_Finger1" 29
40 "ValveBiped.Bip01_R_Finger11" 39
41 "ValveBiped.Bip01_R_Finger12" 40
42 "ValveBiped.Bip01_R_Finger0" 29
43 "ValveBiped.Bip01_R_Finger01" 42
44 "ValveBiped.Bip01_R_Finger02" 43
45 "ValveBiped.Bip01_R_Ulna" 28
46 "ValveBiped.Bip01_R_Wrist" 28
47 "rig_r_upperarm" 26
48 "rig_r_forearm" 47
49 "rig_d_r_forearm" 48
50 "rig_d_r_upperarm" 47
51 "rig_r_hand" -1
52 "rig_d_r_hand" 51
53 "rig_d_r_wrist" 52
54 "rig_l_hand" -1
55 "rig_d_l_hand" 54
56 "rig_d_l_wrist" 54
57 "rig_l_pole" -1
58 "rig_r_pole" -1
59 "rig_l_clavicle" -1
60 "rig_d_l_clavicle" 59
61 "rig_r_clavicle" -1
62 "rig_d_r_clavicle" 61
63 "Camera" -1
64 "body" -1
65 "trigger" 64
66 "barrel" 64
67 "bulletdoor" 64
68 "pump" 64
69 "bolt" 68
70 "bullet2" 64
71 "bullet1" -1
end
skeleton
time 0
0  0.000006 0.000000 0.000000  -1.570800 -1.391899 -1.570792
1  -4.327822 -0.845730 -0.674796  -1.544956 -1.855077 -0.198630
2  6.027522 -0.000325 0.000193  -1.077969 -1.092223 -1.034963
3  11.692108 0.000644 -0.000740  -1.361396 -0.000016 -1.396426
4  11.479885 0.000601 -0.000694  1.243137 -0.641762 0.128734
5  3.859508 -0.142880 -1.192050  -0.550885 -0.255832 -1.866282
6  1.312588 0.000011 0.000008  -0.134281 -0.007565 -0.192402
7  0.729356 0.000053 0.000050  -0.007819 -0.009377 -0.049784
8  3.942141 0.046273 -0.431512  -0.484645 0.035664 -1.413041
9  1.539109 0.000084 0.000005  -0.033414 -0.056767 -0.605686
10  1.196331 0.000147 0.000030  0.006943 0.002367 -0.289526
11  3.883503 -0.047269 0.431381  -0.270346 0.409995 -0.746893
12  1.719573 -0.000025 0.000016  0.028923 -0.121328 -1.267494
13  1.209179 0.000091 0.000012  -0.006830 -0.001496 -0.302684
14  4.085221 -0.082715 1.151040  0.033977 0.537783 -0.030448
15  1.719448 -0.000011 0.000022  0.011888 -0.076325 -0.864457
16  1.099675 0.000047 0.000006  -0.070447 0.038185 -1.423970
17  0.971586 -1.283499 0.847609  -0.978328 -0.625347 -0.310208
18  1.789820 -0.000004 -0.000018  0.000998 -0.014468 0.721478
19  1.207013 -0.000012 -0.000044  0.001593 -0.000026 -0.111145
20  5.740637 0.000410 -0.000704  -0.109676 0.000003 0.000071
21  11.480985 0.000332 -0.000797  -0.048216 -0.111001 -0.006497
22  6.027525 -0.000329 0.000203  1.759115 -0.442716 1.687994
23  0.000002 11.692101 -0.000007  -0.967735 -0.419756 -0.770112
24  0.000002 0.000008 -0.000001  -0.492302 -0.000030 1.570739
25  -0.000000 -0.000011 -0.000000  0.868957 0.000002 1.570712
26  -4.967872 -9.778694 2.073871  1.473120 1.855075 -0.198639
27  6.027506 -0.000260 -0.000228  1.646195 0.656093 -0.406281
28  11.691991 0.000243 0.000854  0.564399 0.000074 -1.863466
29  11.479124 -0.000570 0.001339  -1.205878 0.547540 0.893047
30  3.859436 -0.132789 1.193063  0.385277 -0.029729 -1.748803
31  1.312559 0.000027 -0.000000  -0.013756 -0.031530 -0.953722
32  0.729345 0.000066 -0.000027  -0.198329 0.044732 -0.857780
33  3.942045 0.050109 0.430998  0.369881 -0.091819 -1.556998
34  1.539097 0.000011 -0.000001  -0.013288 -0.027151 -1.132777
35  1.196300 0.000075 -0.000004  0.000968 -0.002436 -0.994639
36  3.883410 -0.050502 -0.431086  0.299105 -0.220225 -1.386726
37  1.719565 -0.000077 -0.000002  -0.038529 0.030961 -1.462450
38  1.209198 0.000035 0.000011  -0.001756 -0.004187 -0.773865
39  3.806437 -0.112148 -1.295329  -0.028805 0.243340 -0.117787
40  1.719410 -0.000099 -0.000034  0.356276 -0.218063 -1.380320
41  1.099674 0.000025 0.000006  0.059920 -0.008679 -0.824866
42  0.889710 -0.317103 -1.125532  0.901376 0.231327 -0.743911
43  1.789779 -0.000009 -0.000042  0.027227 0.044051 -0.011391
44  1.206996 -0.000007 0.000006  -0.019167 -0.151093 1.385408
45  5.740572 0.000056 0.000724  0.113654 -0.000014 0.000021
46  11.480768 -0.000078 0.001017  0.030096 0.109127 0.142456
47  6.027514 -0.000272 -0.000237  -0.759932 -0.483175 -1.561396
48  -0.000002 11.691976 -0.000006  -1.243134 0.688383 0.927989
49  0.000004 -0.000002 -0.000000  2.836924 -0.000041 1.570856
50  -0.000007 -0.000016 0.000005  2.272644 -0.000030 1.570865
51  -3.824576 -3.342074 -5.194341  3.002374 0.002687 -1.679545
52  0.000000 0.000000 0.000000  0.008153 -0.000259 0.000009
53  0.000000 0.000000 0.000000  1.565115 0.043565 -0.106862
54  -0.823980 -15.126455 -4.756344  -0.977156 -0.115470 -1.927258
55  -0.000001 -0.000000 -0.000000  -0.000000 -0.000000 -0.000002
56  0.000030 0.000029 0.000001  -1.571902 -0.044449 -0.106509
57  8.694838 -16.141689 -16.416052  1.570796 -0.000000 0.000000
58  -16.922342 4.543208 -16.901630  1.570796 -0.000000 0.000000
59  -0.670483 1.601972 -4.109488  1.570796 -0.000000 0.000000
60  -0.004311 0.001230 -0.000371  0.006898 -0.005534 -0.284229
61  2.073871 10.506637 -3.148526  1.570796 -0.000000 0.000000
62  0.000000 0.000000 0.000000  -0.078727 -3.136056 0.284226
63  0.000000 0.000000 0.000000  1.570796 -0.000000 0.000000
64  -2.535900 -8.566546 -1.996421  1.549086 0.053723 0.014481
65  -0.219072 -1.337187 -0.135917  -0.000000 0.000000 0.000000
66  -0.219078 0.187971 19.478249  -0.000000 0.000000 0.000000
67  -0.245097 -1.134826 1.111317  -0.349066 0.000000 0.000000
68  -0.104047 -4.495923 7.879276  -0.000000 0.000000 0.000000
69  -0.195264 4.332631 -9.429943  -0.000000 0.000000 0.000000
70  -0.200449 -0.857878 7.005423  -0.000000 0.000000 0.000000
71  -2.718957 -13.464738 -2.735641  1.549086 0.053723 0.014481
end
