version 1
nodes
0 "ValveBiped.Bip01_Spine4" -1
1 "ValveBiped.Bip01_L_Clavicle" 0
2 "ValveBiped.Bip01_L_UpperArm" 1
3 "ValveBiped.Bip01_L_Forearm" 2
4 "ValveBiped.Bip01_L_Hand" 3
5 "ValveBiped.Bip01_L_Finger4" 4
6 "ValveBiped.Bip01_L_Finger41" 5
7 "ValveBiped.Bip01_L_Finger42" 6
8 "ValveBiped.Bip01_L_Finger3" 4
9 "ValveBiped.Bip01_L_Finger31" 8
10 "ValveBiped.Bip01_L_Finger32" 9
11 "ValveBiped.Bip01_L_Finger2" 4
12 "ValveBiped.Bip01_L_Finger21" 11
13 "ValveBiped.Bip01_L_Finger22" 12
14 "ValveBiped.Bip01_L_Finger1" 4
15 "ValveBiped.Bip01_L_Finger11" 14
16 "ValveBiped.Bip01_L_Finger12" 15
17 "ValveBiped.Bip01_L_Finger0" 4
18 "ValveBiped.Bip01_L_Finger01" 17
19 "ValveBiped.Bip01_L_Finger02" 18
20 "ValveBiped.Bip01_L_Ulna" 3
21 "ValveBiped.Bip01_L_Wrist" 3
22 "rig_l_upperarm" 1
23 "rig_l_forearm" 22
24 "rig_d_l_forearm" 23
25 "rig_d_l_upperarm" 22
26 "ValveBiped.Bip01_R_Clavicle" 0
27 "ValveBiped.Bip01_R_UpperArm" 26
28 "ValveBiped.Bip01_R_Forearm" 27
29 "ValveBiped.Bip01_R_Hand" 28
30 "ValveBiped.Bip01_R_Finger4" 29
31 "ValveBiped.Bip01_R_Finger41" 30
32 "ValveBiped.Bip01_R_Finger42" 31
33 "ValveBiped.Bip01_R_Finger3" 29
34 "ValveBiped.Bip01_R_Finger31" 33
35 "ValveBiped.Bip01_R_Finger32" 34
36 "ValveBiped.Bip01_R_Finger2" 29
37 "ValveBiped.Bip01_R_Finger21" 36
38 "ValveBiped.Bip01_R_Finger22" 37
39 "ValveBiped.Bip01_R_Finger1" 29
40 "ValveBiped.Bip01_R_Finger11" 39
41 "ValveBiped.Bip01_R_Finger12" 40
42 "ValveBiped.Bip01_R_Finger0" 29
43 "ValveBiped.Bip01_R_Finger01" 42
44 "ValveBiped.Bip01_R_Finger02" 43
45 "ValveBiped.Bip01_R_Ulna" 28
46 "ValveBiped.Bip01_R_Wrist" 28
47 "rig_r_upperarm" 26
48 "rig_r_forearm" 47
49 "rig_d_r_forearm" 48
50 "rig_d_r_upperarm" 47
51 "rig_r_hand" -1
52 "rig_d_r_hand" 51
53 "rig_d_r_wrist" 52
54 "rig_l_hand" -1
55 "rig_d_l_hand" 54
56 "rig_d_l_wrist" 54
57 "rig_l_pole" -1
58 "rig_r_pole" -1
59 "rig_l_clavicle" -1
60 "rig_d_l_clavicle" 59
61 "rig_r_clavicle" -1
62 "rig_d_r_clavicle" 61
63 "Camera" -1
64 "body" -1
65 "trigger" 64
66 "barrel" 64
67 "bulletdoor" 64
68 "pump" 64
69 "bolt" 68
70 "bullet2" 64
71 "bullet1" -1
end
skeleton
time 0
0  0.000006 0.000000 0.000000  -1.570800 -1.391899 -1.570792
1  -3.791962 -4.492373 -0.637369  -1.544956 -1.855077 -0.198630
2  6.027519 -0.000327 0.000193  -1.267506 -1.031561 -0.610464
3  11.692110 0.000645 -0.000739  0.317682 -0.000019 -1.451047
4  11.479546 -0.000931 -0.000467  1.223518 -0.505009 0.345614
5  3.756486 -0.428445 -1.137745  -0.183722 -0.010726 -0.734966
6  1.312590 0.000012 0.000008  -0.052792 -0.066402 -0.457461
7  0.729355 0.000053 0.000050  0.006399 -0.001561 -0.956459
8  4.000556 0.055695 -0.426796  -0.155914 -0.071417 -0.392779
9  1.539113 0.000084 0.000005  -0.029431 -0.137488 -0.700326
10  1.196332 0.000145 0.000030  0.012600 0.004869 -1.093790
11  3.926747 -0.043148 0.433994  -0.377995 -0.085522 -0.162295
12  1.719573 -0.000027 0.000014  0.013635 0.021510 -0.709165
13  1.209179 0.000092 0.000012  -0.003564 0.002488 -0.369890
14  4.085221 -0.082715 1.151041  -0.166729 -0.164169 0.030978
15  1.719448 -0.000012 0.000021  0.024233 0.023234 -0.507360
16  1.099675 0.000049 0.000006  -0.003350 0.002242 -0.620629
17  0.513960 -0.536466 0.902808  -0.879064 -0.518438 -0.773456
18  1.789820 -0.000003 -0.000018  -0.008423 -0.007423 -0.105580
19  1.207015 -0.000013 -0.000044  -0.001007 -0.001906 0.669912
20  5.740637 0.000409 -0.000702  -0.073855 0.000003 0.000071
21  11.480917 0.000026 -0.000751  -0.048184 -0.089396 0.038795
22  6.027524 -0.000330 0.000204  1.881171 -0.448449 1.894123
23  0.000002 11.692101 -0.000006  -1.000395 -0.449119 -0.791631
24  0.000002 0.000009 -0.000001  1.186779 -0.000031 1.570739
25  -0.000000 -0.000011 -0.000001  0.868957 0.000002 1.570712
26  -4.967872 -9.778694 2.073871  1.473120 1.855075 -0.198639
27  6.027514 -0.000258 -0.000228  1.506654 0.729526 -0.956874
28  11.691993 0.000244 0.000855  1.153712 0.000066 -1.759228
29  11.480046 0.000494 0.000921  -1.212285 0.727869 0.269589
30  3.859435 -0.132789 1.193062  0.385277 -0.029729 -1.748803
31  1.312558 0.000027 -0.000001  -0.013756 -0.031530 -0.953722
32  0.729344 0.000066 -0.000027  -0.198329 0.044732 -0.857780
33  3.942045 0.050109 0.430997  0.369881 -0.091819 -1.556998
34  1.539096 0.000012 -0.000001  -0.013288 -0.027151 -1.132776
35  1.196301 0.000075 -0.000004  0.000968 -0.002436 -0.994639
36  3.883410 -0.050502 -0.431086  0.299105 -0.220225 -1.386726
37  1.719564 -0.000077 -0.000003  -0.038529 0.030961 -1.462450
38  1.209198 0.000035 0.000012  -0.001756 -0.004187 -0.773865
39  3.806437 -0.112147 -1.295329  -0.353880 0.344858 -0.056116
40  1.719412 -0.000099 -0.000034  0.087366 -0.009572 -0.381532
41  1.099672 0.000024 0.000006  -0.034823 0.011748 0.266223
42  0.889709 -0.317103 -1.125532  0.901376 0.231327 -0.743910
43  1.789779 -0.000009 -0.000042  0.027227 0.044051 -0.011391
44  1.206996 -0.000006 0.000007  -0.019167 -0.151093 1.385408
45  5.740572 0.000056 0.000724  0.124039 -0.000014 0.000021
46  11.480953 0.000135 0.000934  0.046591 0.131171 0.015863
47  6.027514 -0.000272 -0.000237  -0.892358 -0.543176 -1.957602
48  -0.000001 11.691977 -0.000005  -1.181704 0.625374 0.898194
49  0.000003 -0.000001 -0.000000  -2.856948 -0.000041 1.570856
50  -0.000007 -0.000015 0.000005  2.272644 -0.000030 1.570865
51  -2.498088 -4.217023 -5.796628  -2.066630 -0.085267 -1.525357
52  0.000000 0.000000 0.000000  0.008153 -0.000259 0.000009
53  -0.000000 -0.000000 -0.000000  1.565115 0.043565 -0.106862
54  0.727709 -11.699802 -4.790498  0.772320 -0.786445 -1.868046
55  -0.000000 0.000000 -0.000000  0.000000 -0.000000 -0.000002
56  0.000030 0.000029 0.000001  -1.571902 -0.044449 -0.106509
57  13.024888 -6.380027 -12.650742  1.570796 -0.000000 0.000000
58  -9.932724 7.451549 -21.794329  1.570796 -0.000000 0.000000
59  -0.633057 5.095064 -2.933281  1.570796 -0.000000 0.000000
60  -0.004311 0.001230 -0.000371  0.006898 -0.005534 -0.284229
61  2.073871 10.506637 -3.148526  1.570796 -0.000000 0.000000
62  0.000000 0.000000 0.000000  -0.078727 -3.136056 0.284226
63  0.000000 0.000000 0.000000  1.570796 -0.005015 0.000000
64  -4.642601 -9.103315 -2.524364  1.081278 -1.110744 0.511783
65  -0.219072 -1.337187 -0.135918  -0.000000 -0.000000 -0.000000
66  -0.219078 0.187972 19.478251  -0.000000 -0.000000 -0.000000
67  -0.245097 -1.134826 1.111315  -0.306084 -0.000000 -0.000000
68  -0.104047 -4.495923 7.879275  -0.000000 -0.000000 -0.000000
69  -0.198094 4.323281 -6.346653  -0.000000 -0.000000 -0.000000
70  -0.200448 -0.857878 4.877553  -0.000000 -0.000000 -0.000000
71  -4.533964 -14.404850 -1.523510  1.081278 -1.110744 0.511783
time 1
0  0.000006 0.000000 0.000000  -1.570800 -1.391899 -1.570792
1  -3.874208 -4.102114 -0.460118  -1.544956 -1.855077 -0.198630
2  6.027519 -0.000327 0.000193  -1.286525 -0.917466 -0.571534
3  11.692105 0.000644 -0.000741  0.275609 -0.000036 -1.687605
4  11.479077 -0.001239 -0.000412  1.320210 -0.465311 0.571262
5  3.752612 -0.431518 -1.137471  -0.219167 0.011760 -0.734371
6  1.312588 0.000011 0.000009  -0.046025 -0.056801 -0.439077
7  0.729356 0.000053 0.000049  0.005484 -0.001564 -0.877985
8  3.992480 0.054392 -0.427449  -0.153143 -0.060068 -0.433098
9  1.539112 0.000084 0.000005  -0.030118 -0.117972 -0.622093
10  1.196332 0.000144 0.000033  0.011070 0.003821 -1.010085
11  3.920767 -0.043718 0.433634  -0.315692 -0.097094 -0.205071
12  1.719574 -0.000027 0.000014  0.013752 0.020887 -0.645986
13  1.209179 0.000092 0.000010  -0.003060 0.002615 -0.342445
14  4.054031 -0.090426 1.176121  -0.106106 -0.182420 0.002996
15  1.719449 -0.000012 0.000022  0.022204 0.020699 -0.489282
16  1.099675 0.000049 0.000006  -0.002894 0.002400 -0.546027
17  0.535728 -0.580432 0.906101  -0.909511 -0.574107 -0.774500
18  1.789819 -0.000003 -0.000019  -0.007751 -0.006543 -0.088149
19  1.207016 -0.000011 -0.000044  -0.000929 -0.001642 0.645387
20  5.740637 0.000409 -0.000702  -0.076700 0.000003 0.000071
21  11.480824 -0.000035 -0.000740  -0.024575 -0.082239 0.089343
22  6.027524 -0.000331 0.000202  1.970564 -0.531621 1.875159
23  0.000001 11.692099 -0.000007  -1.139789 -0.582992 -0.875746
24  0.000003 0.000010 -0.000001  1.144714 -0.000030 1.570739
25  -0.000001 -0.000011 0.000000  0.868957 0.000002 1.570712
26  -4.967872 -9.778694 2.073871  1.473120 1.855075 -0.198639
27  6.027514 -0.000258 -0.000228  1.505952 0.732076 -0.927581
28  11.691993 0.000243 0.000855  1.117741 0.000065 -1.740319
29  11.480214 0.000512 0.000835  -1.193781 0.705356 0.266293
30  3.859436 -0.132789 1.193062  0.385277 -0.029729 -1.748803
31  1.312559 0.000027 0.000000  -0.013756 -0.031530 -0.953722
32  0.729344 0.000065 -0.000027  -0.198329 0.044732 -0.857780
33  3.942045 0.050109 0.430997  0.369881 -0.091819 -1.556998
34  1.539096 0.000012 -0.000001  -0.013288 -0.027151 -1.132776
35  1.196300 0.000074 -0.000005  0.000968 -0.002436 -0.994639
36  3.883411 -0.050502 -0.431086  0.299105 -0.220225 -1.386726
37  1.719565 -0.000077 -0.000003  -0.038529 0.030961 -1.462450
38  1.209198 0.000035 0.000012  -0.001756 -0.004187 -0.773865
39  3.806435 -0.112147 -1.295329  -0.350494 0.343365 -0.036491
40  1.719411 -0.000100 -0.000034  0.087271 -0.008934 -0.399909
41  1.099673 0.000023 0.000006  -0.035982 0.009240 0.174609
42  0.889709 -0.317102 -1.125532  0.901376 0.231327 -0.743911
43  1.789779 -0.000008 -0.000042  0.027227 0.044051 -0.011391
44  1.206996 -0.000007 0.000006  -0.019167 -0.151093 1.385408
45  5.740570 0.000056 0.000724  0.127742 -0.000014 0.000021
46  11.480986 0.000140 0.000916  0.051063 0.127121 0.014765
47  6.027514 -0.000272 -0.000237  -0.895193 -0.542237 -1.926377
48  -0.000002 11.691976 -0.000006  -1.170612 0.614105 0.892429
49  0.000003 -0.000000 0.000001  -2.892918 -0.000041 1.570856
50  -0.000007 -0.000015 0.000004  2.272644 -0.000030 1.570865
51  -2.513905 -4.378636 -5.926029  -2.102457 -0.097261 -1.532325
52  0.000000 0.000001 -0.000000  0.008153 -0.000259 0.000009
53  0.000000 0.000000 0.000000  1.565115 0.043565 -0.106862
54  1.232024 -10.148794 -5.136269  0.787882 -0.691060 -1.751324
55  0.000000 -0.000001 -0.000000  0.000000 -0.000000 -0.000002
56  0.000030 0.000029 0.000001  -1.571901 -0.044449 -0.106509
57  12.906272 -6.647436 -12.753887  1.570796 -0.000000 0.000000
58  -10.364487 7.271894 -21.492096  1.570796 -0.000000 0.000000
59  -0.455806 4.725668 -3.083660  1.570796 -0.000000 0.000000
60  -0.004311 0.001230 -0.000371  0.006898 -0.005534 -0.284229
61  2.073871 10.506637 -3.148526  1.570796 -0.000000 0.000000
62  0.000000 0.000000 0.000000  -0.078727 -3.136056 0.284226
63  0.000000 0.000000 0.000000  1.570908 -0.005010 -0.000003
64  -4.590615 -9.198275 -2.514160  1.092319 -1.073449 0.491748
65  -0.219072 -1.337187 -0.135917  0.000000 -0.000000 -0.000000
66  -0.219079 0.187971 19.478251  0.000000 -0.000000 -0.000000
67  -0.245098 -1.134827 1.111317  -0.306084 -0.000000 -0.000000
68  -0.104048 -4.495923 7.879274  0.000000 -0.000000 -0.000000
69  -0.198094 4.323280 -6.346653  0.000000 -0.000000 -0.000000
70  -0.200449 -0.857878 4.877554  0.000000 -0.000000 -0.000000
71  -4.499797 -14.486878 -1.445429  1.092319 -1.073449 0.491748
time 2
0  0.000006 0.000000 0.000000  -1.570800 -1.391899 -1.570792
1  -4.113579 -2.966305 0.055753  -1.544956 -1.855077 -0.198630
2  6.027519 -0.000327 0.000193  -1.247902 -0.978264 -0.651581
3  11.692105 0.000645 -0.000739  0.147667 -0.000029 -1.614020
4  11.479586 -0.000911 -0.000607  1.030758 -0.407799 0.739929
5  3.741942 -0.438912 -1.136632  -0.312706 0.075381 -0.738443
6  1.312590 0.000012 0.000008  -0.027501 -0.032282 -0.390690
7  0.729354 0.000053 0.000050  0.003085 -0.001266 -0.648292
8  3.971349 0.050984 -0.429154  -0.147179 -0.023126 -0.539620
9  1.539112 0.000083 0.000005  -0.024559 -0.066629 -0.415597
10  1.196331 0.000145 0.000030  0.006671 0.001609 -0.773474
11  3.905125 -0.045208 0.432687  -0.147688 -0.104264 -0.321229
12  1.719572 -0.000027 0.000017  0.012863 0.018095 -0.479486
13  1.209178 0.000092 0.000013  -0.001708 0.002886 -0.264307
14  3.972442 -0.110596 1.241725  0.057291 -0.221523 -0.079111
15  1.719449 -0.000012 0.000023  0.015988 0.014160 -0.435300
16  1.099675 0.000048 0.000005  -0.001644 0.002652 -0.348704
17  0.600331 -0.710556 0.915612  -0.998412 -0.722100 -0.763130
18  1.789820 -0.000002 -0.000018  -0.005656 -0.004229 -0.029761
19  1.207016 -0.000014 -0.000043  -0.000688 -0.000958 0.566789
20  5.740638 0.000410 -0.000703  -0.146405 0.000003 0.000070
21  11.480926 0.000032 -0.000780  -0.076651 -0.091371 0.109690
22  6.027524 -0.000330 0.000203  1.907155 -0.497602 1.857719
23  0.000003 11.692099 -0.000006  -1.096653 -0.540273 -0.851207
24  0.000002 0.000010 -0.000001  1.016771 -0.000031 1.570739
25  -0.000000 -0.000012 -0.000001  0.868957 0.000002 1.570712
26  -4.967872 -9.778694 2.073871  1.473120 1.855075 -0.198639
27  6.027513 -0.000258 -0.000228  1.507898 0.728079 -0.837569
28  11.691992 0.000244 0.000856  1.012173 0.000064 -1.733322
29  11.480282 0.000441 0.000849  -1.089823 0.694122 0.324415
30  3.859435 -0.132789 1.193063  0.385277 -0.029729 -1.748803
31  1.312558 0.000026 -0.000000  -0.013756 -0.031530 -0.953722
32  0.729345 0.000065 -0.000027  -0.198329 0.044732 -0.857780
33  3.942045 0.050108 0.430997  0.369881 -0.091819 -1.556998
34  1.539097 0.000012 -0.000000  -0.013288 -0.027151 -1.132776
35  1.196300 0.000075 -0.000005  0.000968 -0.002436 -0.994639
36  3.883410 -0.050502 -0.431087  0.299105 -0.220225 -1.386726
37  1.719564 -0.000075 -0.000002  -0.038529 0.030961 -1.462450
38  1.209198 0.000035 0.000012  -0.001756 -0.004187 -0.773865
39  3.806436 -0.112148 -1.295329  -0.340633 0.338609 0.020684
40  1.719413 -0.000099 -0.000034  0.087047 -0.007805 -0.457590
41  1.099673 0.000023 0.000007  -0.037933 0.000814 -0.109672
42  0.889709 -0.317103 -1.125532  0.901376 0.231327 -0.743911
43  1.789778 -0.000009 -0.000043  0.027227 0.044051 -0.011391
44  1.206996 -0.000007 0.000006  -0.019167 -0.151093 1.385408
45  5.740572 0.000053 0.000725  0.148342 -0.000014 0.000021
46  11.481001 0.000123 0.000920  0.067375 0.128758 0.018942
47  6.027514 -0.000272 -0.000237  -0.890350 -0.543174 -1.840164
48  -0.000001 11.691975 -0.000006  -1.166510 0.609948 0.890268
49  0.000003 -0.000001 -0.000000  -2.998486 -0.000041 1.570856
50  -0.000007 -0.000016 0.000005  2.272644 -0.000030 1.570865
51  -2.580457 -4.433247 -6.090526  -2.200171 -0.094534 -1.550747
52  0.000000 -0.000000 -0.000000  0.008153 -0.000259 0.000009
53  -0.000000 -0.000001 -0.000000  1.565115 0.043565 -0.106862
54  1.156970 -11.709394 -5.218302  0.376744 -0.462637 -1.621851
55  -0.000001 0.000000 0.000001  0.000000 -0.000000 -0.000002
56  0.000030 0.000029 0.000001  -1.571901 -0.044449 -0.106509
57  12.550386 -7.449743 -13.063356  1.570796 -0.000000 0.000000
58  -11.621089 6.749030 -20.612482  1.570796 -0.000000 0.000000
59  0.060066 3.650580 -3.521322  1.570796 -0.000000 0.000000
60  -0.004311 0.001230 -0.000371  0.006898 -0.005534 -0.284229
61  2.073871 10.506637 -3.148526  1.570796 -0.000000 0.000000
62  0.000000 0.000000 0.000000  -0.078727 -3.136056 0.284226
63  0.000000 0.000000 0.000000  1.571195 -0.004989 -0.000011
64  -4.448661 -9.197650 -2.485978  1.173073 -0.985430 0.394678
65  -0.219072 -1.337187 -0.135917  0.000000 -0.000000 0.000000
66  -0.219079 0.187971 19.478252  0.000000 -0.000000 0.000000
67  -0.245097 -1.134826 1.111318  -0.306084 -0.000000 0.000000
68  -0.104048 -4.495924 7.879278  0.000000 -0.000000 0.000000
69  -0.198095 4.323280 -6.346652  0.000000 -0.000000 0.000000
70  -0.200449 -0.857878 4.877556  0.000000 -0.000000 0.000000
71  -4.401036 -14.488048 -1.423345  1.173073 -0.985430 0.394678
time 3
0  0.000006 0.000000 0.000000  -1.570800 -1.391899 -1.570792
1  -4.457690 -1.333506 0.797351  -1.544956 -1.855077 -0.198630
2  6.027519 -0.000326 0.000193  -1.156408 -1.044675 -0.795515
3  11.692106 0.000642 -0.000740  -0.062492 -0.000028 -1.578460
4  11.479841 -0.000614 -0.000771  0.914160 -0.430172 0.826648
5  3.729831 -0.444557 -1.135444  -0.408637 0.150653 -0.754156
6  1.312591 0.000012 0.000008  -0.007832 -0.008701 -0.341884
7  0.729355 0.000053 0.000050  0.000802 -0.000452 -0.357732
8  3.950221 0.047576 -0.430859  -0.143808 0.032503 -0.648529
9  1.539108 0.000083 0.000005  -0.008605 -0.017510 -0.209259
10  1.196332 0.000145 0.000029  0.001882 0.000349 -0.496859
11  3.889485 -0.046699 0.431744  0.021949 -0.064075 -0.435409
12  1.719574 -0.000026 0.000015  0.008571 0.012701 -0.313021
13  1.209180 0.000092 0.000012  -0.000285 0.003053 -0.169378
14  3.890855 -0.130765 1.307330  0.226019 -0.244644 -0.175422
15  1.719450 -0.000011 0.000021  0.007499 0.007879 -0.363346
16  1.099673 0.000048 0.000006  -0.000368 0.002653 -0.151307
17  0.699303 -0.908961 0.929508  -1.112580 -0.871604 -0.718220
18  1.789820 -0.000003 -0.000018  -0.002655 -0.001921 0.063404
19  1.207016 -0.000010 -0.000044  -0.000331 -0.000275 0.449113
20  5.740636 0.000409 -0.000703  -0.182055 0.000003 0.000071
21  11.480974 0.000092 -0.000814  -0.092872 -0.106315 0.118736
22  6.027524 -0.000330 0.000203  1.820468 -0.468176 1.831670
23  0.000002 11.692098 -0.000008  -1.075761 -0.519961 -0.838814
24  0.000002 0.000008 -0.000002  0.806610 -0.000031 1.570739
25  -0.000001 -0.000011 -0.000001  0.868957 0.000002 1.570712
26  -4.967872 -9.778694 2.073871  1.473120 1.855075 -0.198639
27  6.027511 -0.000259 -0.000228  1.513057 0.722188 -0.703736
28  11.691991 0.000243 0.000855  0.859056 0.000064 -1.729247
29  11.480317 0.000323 0.000886  -0.927681 0.676053 0.431634
30  3.859435 -0.132788 1.193063  0.385277 -0.029729 -1.748803
31  1.312558 0.000025 -0.000000  -0.013756 -0.031530 -0.953722
32  0.729343 0.000065 -0.000027  -0.198329 0.044732 -0.857780
33  3.942045 0.050109 0.430997  0.369881 -0.091819 -1.556998
34  1.539096 0.000012 -0.000000  -0.013288 -0.027151 -1.132776
35  1.196300 0.000074 -0.000005  0.000968 -0.002436 -0.994639
36  3.883410 -0.050502 -0.431086  0.299105 -0.220225 -1.386726
37  1.719565 -0.000076 -0.000003  -0.038529 0.030961 -1.462450
38  1.209198 0.000035 0.000012  -0.001756 -0.004187 -0.773865
39  3.806435 -0.112147 -1.295328  -0.326532 0.330697 0.102862
40  1.719411 -0.000100 -0.000034  0.087009 -0.008065 -0.551565
41  1.099672 0.000023 0.000007  -0.035750 -0.012627 -0.548670
42  0.889710 -0.317103 -1.125532  0.901376 0.231327 -0.743911
43  1.789779 -0.000009 -0.000042  0.027227 0.044051 -0.011391
44  1.206996 -0.000008 0.000006  -0.019167 -0.151093 1.385408
45  5.740572 0.000055 0.000724  0.173699 -0.000014 0.000021
46  11.481007 0.000100 0.000928  0.091983 0.133447 0.028724
47  6.027514 -0.000272 -0.000237  -0.882123 -0.543063 -1.714004
48  -0.000002 11.691975 -0.000006  -1.164121 0.607530 0.889003
49  0.000003 -0.000002 -0.000000  3.131581 -0.000041 1.570856
50  -0.000006 -0.000015 0.000005  2.272644 -0.000030 1.570865
51  -2.717256 -4.464721 -6.252842  -2.344024 -0.085410 -1.576691
52  -0.000000 0.000001 0.000000  0.008153 -0.000259 0.000009
53  -0.000000 0.000000 0.000001  1.565115 0.043565 -0.106862
54  0.858754 -13.200945 -5.223518  0.087784 -0.286230 -1.628478
55  -0.000001 0.000000 0.000000  0.000000 -0.000000 -0.000002
56  0.000030 0.000029 0.000001  -1.571901 -0.044449 -0.106509
57  11.978951 -8.737987 -13.560264  1.570796 -0.000000 0.000000
58  -13.427533 5.997378 -19.347980  1.570796 -0.000000 0.000000
59  0.801665 2.105073 -4.150489  1.570796 -0.000000 0.000000
60  -0.004311 0.001230 -0.000371  0.006898 -0.005534 -0.284229
61  2.073871 10.506637 -3.148526  1.570796 -0.000000 0.000000
62  0.000000 0.000000 0.000000  -0.078727 -3.136056 0.284226
63  0.000000 0.000000 0.000000  1.571588 -0.004936 -0.000022
64  -4.237744 -9.193278 -2.443466  1.264182 -0.852822 0.283170
65  -0.219072 -1.337187 -0.135917  -0.000000 0.000000 0.000000
66  -0.219078 0.187972 19.478249  -0.000000 0.000000 0.000000
67  -0.245097 -1.134826 1.111317  -0.306084 0.000000 0.000000
68  -0.104048 -4.495923 7.879277  -0.000000 0.000000 0.000000
69  -0.198095 4.323280 -6.346652  -0.000000 0.000000 0.000000
70  -0.200449 -0.857878 4.877553  -0.000000 0.000000 0.000000
71  -4.246761 -14.492858 -1.426543  1.264182 -0.852822 0.283170
time 4
0  0.000006 0.000000 0.000000  -1.570800 -1.391899 -1.570792
1  -4.801800 0.299293 1.538949  -1.544956 -1.855077 -0.198630
2  6.027522 -0.000327 0.000193  -1.014842 -1.096283 -0.996480
3  11.692105 0.000643 -0.000739  -0.334618 -0.000026 -1.558546
4  11.479997 -0.000295 -0.000880  0.892035 -0.545517 0.840622
5  3.722310 -0.443218 -1.134299  -0.449391 0.203249 -0.774026
6  1.312590 0.000015 0.000008  -0.000021 0.000048 -0.323086
7  0.729354 0.000053 0.000049  0.000019 0.000018 -0.127667
8  3.942142 0.046273 -0.431512  -0.142343 0.090326 -0.695323
9  1.539111 0.000084 0.000004  -0.000005 0.000021 -0.131189
10  1.196333 0.000146 0.000030  0.000014 0.000017 -0.314119
11  3.883505 -0.047270 0.431381  0.087851 0.011718 -0.471698
12  1.719574 -0.000025 0.000015  0.000657 0.005479 -0.249879
13  1.209179 0.000092 0.000012  0.000363 0.003070 -0.099785
14  3.859664 -0.138476 1.332410  0.293895 -0.244272 -0.229322
15  1.719448 -0.000012 0.000022  0.000246 0.005691 -0.300032
16  1.099675 0.000049 0.000005  0.000111 0.002588 -0.076705
17  0.812587 -1.134281 0.944129  -1.182859 -0.932294 -0.666619
18  1.789819 -0.000002 -0.000017  0.000152 -0.001016 0.169111
19  1.207016 -0.000012 -0.000043  0.000118 -0.000006 0.325861
20  5.740636 0.000412 -0.000703  -0.192293 0.000003 0.000070
21  11.481006 0.000155 -0.000835  -0.085455 -0.128564 0.111839
22  6.027525 -0.000331 0.000203  1.727669 -0.449795 1.796148
23  0.000002 11.692099 -0.000007  -1.064042 -0.508684 -0.831722
24  0.000003 0.000008 -0.000001  0.534483 -0.000030 1.570739
25  -0.000000 -0.000012 -0.000000  0.868957 0.000002 1.570712
26  -4.967872 -9.778694 2.073871  1.473120 1.855075 -0.198639
27  6.027509 -0.000259 -0.000228  1.522854 0.712433 -0.567850
28  11.691993 0.000244 0.000857  0.705938 0.000064 -1.731542
29  11.480302 0.000175 0.000935  -0.791680 0.641989 0.557132
30  3.859435 -0.132790 1.193063  0.385277 -0.029729 -1.748803
31  1.312559 0.000026 0.000000  -0.013756 -0.031530 -0.953722
32  0.729345 0.000066 -0.000028  -0.198329 0.044732 -0.857780
33  3.942044 0.050108 0.430997  0.369881 -0.091819 -1.556998
34  1.539096 0.000012 -0.000000  -0.013288 -0.027151 -1.132776
35  1.196300 0.000075 -0.000006  0.000968 -0.002436 -0.994639
36  3.883411 -0.050502 -0.431086  0.299105 -0.220225 -1.386726
37  1.719565 -0.000076 -0.000002  -0.038529 0.030961 -1.462450
38  1.209197 0.000036 0.000012  -0.001756 -0.004187 -0.773865
39  3.806436 -0.112148 -1.295329  -0.312318 0.321404 0.184795
40  1.719413 -0.000100 -0.000033  0.087993 -0.011873 -0.667146
41  1.099674 0.000023 0.000008  -0.027202 -0.024194 -0.987796
42  0.889710 -0.317103 -1.125532  0.901376 0.231327 -0.743911
43  1.789778 -0.000009 -0.000042  0.027227 0.044051 -0.011391
44  1.206996 -0.000006 0.000007  -0.019167 -0.151093 1.385408
45  5.740572 0.000055 0.000723  0.188468 -0.000014 0.000021
46  11.481005 0.000072 0.000936  0.112055 0.137509 0.044992
47  6.027514 -0.000272 -0.000237  -0.867901 -0.541912 -1.591901
48  -0.000000 11.691975 -0.000005  -1.165467 0.608892 0.889716
49  0.000003 -0.000002 0.000000  2.978463 -0.000041 1.570856
50  -0.000006 -0.000015 0.000006  2.272644 -0.000030 1.570865
51  -2.930773 -4.447559 -6.349388  -2.518409 -0.073387 -1.605851
52  -0.000000 0.000000 -0.000000  0.008153 -0.000259 0.000009
53  0.000000 -0.000000 0.000000  1.565115 0.043565 -0.106862
54  0.476197 -14.410616 -5.148535  -0.160283 -0.170754 -1.691928
55  -0.000000 -0.000001 0.000000  0.000000 -0.000000 -0.000002
56  0.000029 0.000028 0.000002  -1.571901 -0.044449 -0.106509
57  11.252010 -10.376803 -14.192395  1.570796 -0.000000 0.000000
58  -15.233978 5.245727 -18.083477  1.570796 -0.000000 0.000000
59  1.543264 0.559566 -4.779655  1.570796 -0.000000 0.000000
60  -0.004311 0.001230 -0.000371  0.006898 -0.005534 -0.284229
61  2.073871 10.506637 -3.148526  1.570796 -0.000000 0.000000
62  0.000000 0.000000 0.000000  -0.078727 -3.136056 0.284226
63  0.000000 0.000000 0.000000  1.572015 -0.004839 -0.000036
64  -3.978870 -9.181414 -2.390271  1.341395 -0.687539 0.186185
65  -0.219072 -1.337187 -0.135916  -0.000000 0.000000 0.000000
66  -0.219078 0.187971 19.478252  -0.000000 0.000000 0.000000
67  -0.245097 -1.134826 1.111316  -0.225202 0.000000 0.000000
68  -0.104048 -4.495923 7.879277  -0.000000 0.000000 0.000000
69  -0.198094 4.323281 -6.346652  -0.000000 0.000000 0.000000
70  -0.200449 -0.857878 4.877553  -0.000000 0.000000 0.000000
71  -4.045884 -14.494621 -1.449469  1.341395 -0.687539 0.186185
time 5
0  0.000006 0.000000 0.000000  -1.570800 -1.391899 -1.570792
1  -5.041171 1.435102 2.054819  -1.544956 -1.855077 -0.198630
2  6.027523 -0.000326 0.000192  -0.873685 -1.115786 -1.186030
3  11.692108 0.000642 -0.000740  -0.628110 -0.000025 -1.538713
4  11.480152 0.000045 -0.000873  0.941383 -0.696964 0.746125
5  3.727457 -0.420636 -1.137067  -0.454590 0.234200 -0.796824
6  1.312590 0.000014 0.000009  -0.013243 -0.017251 -0.325815
7  0.729355 0.000056 0.000049  0.001578 -0.003030 0.082419
8  3.942145 0.046272 -0.431512  -0.162430 0.167579 -0.681717
9  1.539111 0.000084 0.000006  -0.006632 -0.016267 -0.173965
10  1.196332 0.000149 0.000029  0.001741 -0.000854 -0.219286
11  3.883506 -0.047270 0.431381  0.076986 0.140106 -0.384825
12  1.719572 -0.000025 0.000015  -0.014204 -0.017819 -0.307517
13  1.209178 0.000091 0.000012  0.000448 0.002652 -0.049636
14  3.873595 -0.135032 1.321206  0.273566 -0.144052 -0.217436
15  1.719449 -0.000012 0.000023  -0.005688 0.021501 -0.231644
16  1.099676 0.000050 0.000006  -0.000055 0.002789 -0.101299
17  0.914174 -1.333397 0.955117  -1.200859 -0.919306 -0.636859
18  1.789820 -0.000003 -0.000017  0.003024 -0.006241 0.305622
19  1.207016 -0.000012 -0.000044  0.000969 -0.000060 0.155184
20  5.740636 0.000409 -0.000703  -0.181777 0.000003 0.000071
21  11.481035 0.000222 -0.000833  -0.067601 -0.148468 0.086424
22  6.027525 -0.000330 0.000203  1.654270 -0.447900 1.764692
23  0.000002 11.692101 -0.000007  -1.052351 -0.497527 -0.824554
24  0.000003 0.000010 -0.000001  0.240991 -0.000031 1.570738
25  -0.000000 -0.000011 -0.000001  0.868957 0.000002 1.570712
26  -4.967872 -9.778694 2.073871  1.473120 1.855075 -0.198639
27  6.027507 -0.000260 -0.000228  1.539552 0.698089 -0.471840
28  11.691992 0.000242 0.000855  0.600369 0.000065 -1.741892
29  11.480205 0.000023 0.000984  -0.768508 0.602787 0.657788
30  3.859435 -0.132789 1.193062  0.385277 -0.029729 -1.748803
31  1.312559 0.000025 0.000000  -0.013756 -0.031530 -0.953722
32  0.729345 0.000065 -0.000027  -0.198329 0.044732 -0.857780
33  3.942044 0.050109 0.430997  0.369881 -0.091819 -1.556998
34  1.539096 0.000011 -0.000001  -0.013288 -0.027151 -1.132776
35  1.196301 0.000075 -0.000005  0.000968 -0.002436 -0.994639
36  3.883411 -0.050502 -0.431087  0.299105 -0.220225 -1.386726
37  1.719565 -0.000076 -0.000003  -0.038529 0.030961 -1.462450
38  1.209198 0.000036 0.000011  -0.001756 -0.004187 -0.773865
39  3.806436 -0.112148 -1.295330  -0.301495 0.313743 0.241604
40  1.719412 -0.000100 -0.000032  0.091086 -0.020303 -0.784565
41  1.099672 0.000022 0.000007  -0.017883 -0.029595 -1.272276
42  0.889709 -0.317103 -1.125533  0.901376 0.231327 -0.743911
43  1.789779 -0.000009 -0.000042  0.027227 0.044051 -0.011391
44  1.206996 -0.000006 0.000006  -0.019167 -0.151093 1.385408
45  5.740571 0.000056 0.000723  0.184592 -0.000014 0.000021
46  11.480984 0.000041 0.000946  0.114091 0.136512 0.065238
47  6.027514 -0.000272 -0.000237  -0.845953 -0.538299 -1.518002
48  -0.000003 11.691976 -0.000006  -1.171535 0.615040 0.892913
49  0.000002 -0.000000 -0.000000  2.872895 -0.000041 1.570856
50  -0.000006 -0.000014 0.000005  2.272644 -0.000030 1.570865
51  -3.200411 -4.369004 -6.330337  -2.707454 -0.060831 -1.633920
52  -0.000000 -0.000001 -0.000000  0.008153 -0.000259 0.000009
53  -0.000000 -0.000000 -0.000001  1.565115 0.043565 -0.106862
54  0.143037 -15.200983 -5.132560  -0.386696 -0.110912 -1.774224
55  -0.000001 0.000001 0.000001  0.000000 -0.000000 -0.000002
56  0.000030 0.000030 0.000002  -1.571901 -0.044449 -0.106509
57  10.467716 -12.144912 -14.874397  1.570796 -0.000000 0.000000
58  -16.490580 4.722862 -17.203863  1.570796 -0.000000 0.000000
59  2.059135 -0.515522 -5.217317  1.570796 -0.000000 0.000000
60  -0.004311 0.001230 -0.000371  0.006898 -0.005534 -0.284229
61  2.073871 10.506637 -3.148526  1.570796 -0.000000 0.000000
62  0.000000 0.000000 0.000000  -0.078727 -3.136056 0.284226
63  0.000000 0.000000 0.000000  1.572408 -0.004682 -0.000051
64  -3.693044 -9.158308 -2.330039  1.401006 -0.505009 0.111779
65  -0.219072 -1.337187 -0.135919  -0.000000 0.000000 0.000000
66  -0.219078 0.187971 19.478249  -0.000000 0.000000 0.000000
67  -0.245097 -1.134826 1.111316  -0.087266 0.000000 0.000000
68  -0.104047 -4.495923 7.879276  -0.000000 0.000000 0.000000
69  -0.198094 4.323280 -6.346652  -0.000000 0.000000 0.000000
70  -0.200449 -0.857878 4.877553  -0.000000 0.000000 0.000000
71  -3.809192 -14.487238 -1.488138  1.401006 -0.505009 0.111779
time 6
0  0.000006 0.000000 0.000000  -1.570800 -1.391899 -1.570792
1  -5.123418 1.825362 2.232071  -1.544956 -1.855077 -0.198630
2  6.027522 -0.000325 0.000192  -0.794051 -1.111609 -1.288060
3  11.692108 0.000647 -0.000740  -0.896214 -0.000023 -1.511893
4  11.480368 0.000360 -0.000725  1.060877 -0.797836 0.534725
5  3.750932 -0.365198 -1.147165  -0.467475 0.236562 -0.862722
6  1.312589 0.000009 0.000005  -0.047104 -0.054343 -0.330857
7  0.729354 0.000053 0.000049  0.003927 -0.009991 0.283145
8  3.942144 0.046274 -0.431512  -0.218792 0.259151 -0.644973
9  1.539110 0.000084 0.000005  -0.019951 -0.052965 -0.287092
10  1.196333 0.000145 0.000029  0.005446 -0.002406 -0.179476
11  3.883506 -0.047268 0.431381  0.054618 0.308890 -0.207194
12  1.719571 -0.000026 0.000014  -0.028793 -0.065279 -0.475689
13  1.209179 0.000090 0.000012  0.000145 0.001632 -0.011693
14  3.914147 -0.125006 1.288599  0.221256 0.094990 -0.156467
15  1.719447 -0.000013 0.000023  -0.008511 0.055101 -0.159975
16  1.099673 0.000047 0.000006  -0.001312 0.004432 -0.206825
17  0.983547 -1.464813 0.959331  -1.192674 -0.867455 -0.611815
18  1.789820 -0.000002 -0.000018  0.004396 -0.017709 0.474379
19  1.207016 -0.000012 -0.000043  0.002113 -0.000057 -0.047702
20  5.740636 0.000411 -0.000704  -0.159149 0.000003 0.000071
21  11.481079 0.000285 -0.000803  -0.051239 -0.155016 0.049846
22  6.027524 -0.000329 0.000203  1.616297 -0.457172 1.750733
23  0.000001 11.692101 -0.000007  -1.036508 -0.482557 -0.814696
24  0.000002 0.000009 -0.000001  -0.027115 -0.000031 1.570738
25  -0.000000 -0.000011 -0.000001  0.868957 0.000002 1.570712
26  -4.967872 -9.778694 2.073871  1.473120 1.855075 -0.198639
27  6.027507 -0.000260 -0.000228  1.564495 0.682188 -0.432774
28  11.691992 0.000244 0.000857  0.564399 0.000066 -1.759349
29  11.480047 -0.000101 0.001041  -0.878915 0.581943 0.716268
30  3.859435 -0.132788 1.193063  0.385277 -0.029729 -1.748803
31  1.312558 0.000027 0.000000  -0.013756 -0.031530 -0.953722
32  0.729344 0.000066 -0.000028  -0.198329 0.044732 -0.857780
33  3.942045 0.050109 0.430997  0.369881 -0.091819 -1.556998
34  1.539097 0.000011 -0.000001  -0.013288 -0.027151 -1.132777
35  1.196300 0.000075 -0.000005  0.000968 -0.002436 -0.994639
36  3.883411 -0.050502 -0.431087  0.299105 -0.220225 -1.386726
37  1.719565 -0.000076 -0.000004  -0.038529 0.030961 -1.462450
38  1.209197 0.000036 0.000012  -0.001756 -0.004187 -0.773865
39  3.806437 -0.112147 -1.295329  -0.295338 0.309952 0.261348
40  1.719413 -0.000100 -0.000032  0.096951 -0.033013 -0.890070
41  1.099673 0.000022 0.000008  -0.012091 -0.031196 -1.363996
42  0.889709 -0.317102 -1.125533  0.901376 0.231327 -0.743910
43  1.789778 -0.000008 -0.000042  0.027227 0.044051 -0.011391
44  1.206995 -0.000006 0.000006  -0.019167 -0.151093 1.385408
45  5.740571 0.000055 0.000723  0.162254 -0.000014 0.000021
46  11.480953 0.000016 0.000957  0.093314 0.129921 0.085340
47  6.027514 -0.000272 -0.000237  -0.818928 -0.529270 -1.508568
48  -0.000002 11.691975 -0.000005  -1.181774 0.625446 0.898231
49  0.000004 -0.000002 -0.000000  2.836925 -0.000041 1.570856
50  -0.000007 -0.000015 0.000005  2.272644 -0.000030 1.570865
51  -3.483145 -4.234416 -6.178551  -2.894893 -0.048689 -1.657229
52  -0.000000 0.000000 -0.000000  0.008153 -0.000259 0.000009
53  -0.000000 0.000000 0.000000  1.565115 0.043565 -0.106862
54  -0.119875 -15.577336 -5.275412  -0.589589 -0.094665 -1.849904
55  0.000001 -0.000000 0.000000  0.000000 -0.000000 -0.000002
56  0.000032 0.000029 0.000001  -1.571901 -0.044449 -0.106509
57  9.740776 -13.783731 -15.506529  1.570796 -0.000000 0.000000
58  -16.922342 4.543208 -16.901630  1.570796 -0.000000 0.000000
59  2.236387 -0.884917 -5.367696  1.570796 -0.000000 0.000000
60  -0.004311 0.001230 -0.000371  0.006898 -0.005534 -0.284229
61  2.073871 10.506637 -3.148526  1.570796 -0.000000 0.000000
62  0.000000 0.000000 0.000000  -0.078727 -3.136056 0.284226
63  0.000000 0.000000 0.000000  1.572695 -0.004453 -0.000067
64  -3.401271 -9.120214 -2.266418  1.446666 -0.322158 0.059750
65  -0.219072 -1.337187 -0.135916  0.000000 -0.000000 -0.000000
66  -0.219078 0.187971 19.478252  0.000000 -0.000000 -0.000000
67  -0.245097 -1.134826 1.111317  -0.015037 0.000000 0.000000
68  -0.104048 -4.495923 7.879277  0.000000 -0.000000 -0.000000
69  -0.198094 4.323280 -6.346655  0.000000 -0.000000 -0.000000
70  -0.200449 -0.857878 4.877555  0.000000 -0.000000 -0.000000
71  -3.550589 -14.465185 -1.539269  1.446666 -0.322158 0.059750
time 7
0  0.000006 0.000000 0.000000  -1.570800 -1.391899 -1.570792
1  -5.013399 1.455991 1.830096  -1.544956 -1.855077 -0.198630
2  6.027522 -0.000325 0.000192  -0.792842 -1.115767 -1.298079
3  11.692109 0.000642 -0.000740  -1.107619 -0.000021 -1.465394
4  11.480761 0.000616 -0.000414  1.181558 -0.795519 0.307066
5  3.787091 -0.288428 -1.162259  -0.494569 0.195989 -1.002586
6  1.312590 0.000011 0.000006  -0.077403 -0.071049 -0.332314
7  0.729356 0.000052 0.000051  0.004681 -0.013355 0.356560
8  3.942143 0.046272 -0.431512  -0.276896 0.300239 -0.630878
9  1.539110 0.000084 0.000005  -0.027667 -0.071757 -0.393103
10  1.196332 0.000145 0.000029  0.007193 -0.003103 -0.174416
11  3.883505 -0.047270 0.431381  0.019401 0.394782 -0.128985
12  1.719572 -0.000028 0.000016  -0.025270 -0.103788 -0.668697
13  1.209179 0.000092 0.000012  -0.000672 0.000762 0.000292
14  3.972442 -0.110596 1.241725  0.175342 0.290366 -0.109956
15  1.719448 -0.000012 0.000022  -0.008537 0.070959 -0.131937
16  1.099671 0.000046 0.000005  -0.004681 0.007999 -0.394490
17  1.011587 -1.510482 0.955652  -1.165201 -0.806808 -0.567166
18  1.789820 -0.000001 -0.000018  0.003537 -0.023121 0.600409
19  1.207018 -0.000011 -0.000043  0.002588 -0.000008 -0.128815
20  5.740637 0.000409 -0.000703  -0.138097 0.000003 0.000070
21  11.481159 0.000336 -0.000740  -0.044072 -0.145800 0.017285
22  6.027524 -0.000329 0.000203  1.615235 -0.453090 1.742266
23  0.000002 11.692099 -0.000007  -1.008933 -0.456936 -0.797158
24  0.000003 0.000009 -0.000001  -0.238522 -0.000031 1.570738
25  -0.000000 -0.000011 -0.000001  0.868957 0.000002 1.570712
26  -4.967872 -9.778694 2.073871  1.473120 1.855075 -0.198639
27  6.027507 -0.000260 -0.000228  1.594929 0.669761 -0.422478
28  11.691992 0.000244 0.000855  0.564399 0.000068 -1.780915
29  11.479856 -0.000206 0.001108  -1.037550 0.572868 0.757006
30  3.859435 -0.132789 1.193063  0.385277 -0.029729 -1.748803
31  1.312559 0.000026 -0.000000  -0.013756 -0.031530 -0.953722
32  0.729345 0.000066 -0.000027  -0.198329 0.044732 -0.857780
33  3.942045 0.050109 0.430997  0.369881 -0.091819 -1.556998
34  1.539096 0.000011 -0.000001  -0.013288 -0.027151 -1.132776
35  1.196300 0.000075 -0.000005  0.000968 -0.002436 -0.994639
36  3.883410 -0.050502 -0.431087  0.299105 -0.220225 -1.386726
37  1.719564 -0.000077 -0.000003  -0.038529 0.030961 -1.462450
38  1.209197 0.000036 0.000012  -0.001756 -0.004187 -0.773865
39  3.806437 -0.112148 -1.295329  -0.257746 0.294178 0.210335
40  1.719412 -0.000100 -0.000033  0.132753 -0.073564 -1.016961
41  1.099674 0.000022 0.000008  -0.000688 -0.026371 -1.290144
42  0.889709 -0.317102 -1.125532  0.901376 0.231327 -0.743911
43  1.789778 -0.000009 -0.000042  0.027227 0.044051 -0.011391
44  1.206995 -0.000006 0.000007  -0.019167 -0.151093 1.385408
45  5.740572 0.000054 0.000725  0.134530 -0.000014 0.000021
46  11.480915 -0.000006 0.000972  0.063899 0.120986 0.104190
47  6.027514 -0.000272 -0.000237  -0.793586 -0.513930 -1.529942
48  -0.000003 11.691975 -0.000005  -1.194439 0.638362 0.904674
49  0.000004 -0.000000 0.000001  2.836925 -0.000041 1.570856
50  -0.000007 -0.000016 0.000005  2.272644 -0.000030 1.570865
51  -3.732212 -4.063350 -5.919624  0.076902 -3.104741 1.468224
52  -0.000000 -0.000000 0.000000  0.008153 -0.000259 0.000009
53  -0.000001 0.000000 0.000000  1.565115 0.043565 -0.106862
54  -0.487948 -15.685478 -5.232876  -0.761536 -0.104674 -1.903231
55  -0.000000 0.000000 -0.000000  0.000000 -0.000000 -0.000002
56  0.000029 0.000029 0.000001  -1.571901 -0.044449 -0.106509
57  9.169340 -15.071971 -16.003437  1.570796 -0.000000 0.000000
58  -16.922342 4.543208 -16.901630  1.570796 -0.000000 0.000000
59  1.834412 -0.541019 -5.193705  1.570796 -0.000000 0.000000
60  -0.004311 0.001230 -0.000371  0.006898 -0.005534 -0.284229
61  2.073871 10.506637 -3.148526  1.570796 -0.000000 0.000000
62  0.000000 0.000000 0.000000  -0.078727 -3.136056 0.284226
63  0.000000 0.000000 0.000000  1.572807 -0.004138 -0.000081
64  -3.124555 -9.063387 -2.203056  1.482727 -0.155742 0.027768
65  -0.219072 -1.337187 -0.135917  -0.000000 0.000000 -0.000000
66  -0.219078 0.187971 19.478247  -0.000000 0.000000 -0.000000
67  -0.245097 -1.134826 1.111316  -0.000000 0.000000 0.000000
68  -0.104047 -4.495923 7.879276  -0.000000 0.000000 -0.000000
69  -0.198094 4.323280 -6.346651  -0.000000 0.000000 -0.000000
70  -0.200449 -0.857878 4.877554  -0.000000 0.000000 -0.000000
71  -3.287237 -14.423237 -1.598643  1.482727 -0.155742 0.027768
time 8
0  0.000006 0.000000 0.000000  -1.570800 -1.391899 -1.570792
1  -4.725620 0.489816 0.778638  -1.544956 -1.855077 -0.198630
2  6.027521 -0.000326 0.000192  -0.878879 -1.129452 -1.225114
3  11.692108 0.000643 -0.000739  -1.252766 -0.000018 -1.407423
4  11.479820 0.000513 -0.000789  1.227196 -0.721008 0.173333
5  3.824244 -0.212854 -1.177590  -0.550723 0.058377 -1.303786
6  1.312590 0.000012 0.000009  -0.103562 -0.055528 -0.297653
7  0.729355 0.000054 0.000051  0.001839 -0.011938 0.258810
8  3.942145 0.046273 -0.431512  -0.373010 0.253225 -0.830077
9  1.539111 0.000084 0.000005  -0.031065 -0.068840 -0.486808
10  1.196332 0.000144 0.000029  0.007190 -0.001777 -0.202272
11  3.883507 -0.047269 0.431381  -0.076162 0.423977 -0.282406
12  1.719572 -0.000027 0.000015  -0.005140 -0.122366 -0.907142
13  1.209180 0.000092 0.000012  -0.002729 0.000051 -0.072995
14  4.030740 -0.096184 1.194851  0.120996 0.416865 -0.075690
15  1.719451 -0.000011 0.000024  -0.013677 0.035057 -0.307048
16  1.099675 0.000050 0.000008  -0.020096 0.021977 -0.748483
17  1.005476 -1.456617 0.925607  -1.104944 -0.732552 -0.476054
18  1.789818 -0.000004 -0.000021  0.002322 -0.021069 0.677070
19  1.207013 -0.000012 -0.000044  0.002348 -0.000014 -0.124547
20  5.740637 0.000409 -0.000704  -0.124449 0.000003 0.000071
21  11.480972 0.000314 -0.000816  -0.046456 -0.127717 -0.001610
22  6.027524 -0.000330 0.000203  1.653812 -0.434057 1.721122
23  0.000002 11.692100 -0.000007  -0.974329 -0.425616 -0.774507
24  0.000002 0.000008 -0.000000  -0.383672 -0.000031 1.570739
25  -0.000001 -0.000011 -0.000001  0.868957 0.000002 1.570712
26  -4.967872 -9.778694 2.073871  1.473120 1.855075 -0.198639
27  6.027506 -0.000260 -0.000228  1.625098 0.661260 -0.412806
28  11.691994 0.000243 0.000854  0.564399 0.000069 -1.805083
29  11.479637 -0.000319 0.001180  -1.164261 0.558655 0.800425
30  3.859435 -0.132789 1.193062  0.385277 -0.029729 -1.748803
31  1.312558 0.000025 -0.000000  -0.013756 -0.031530 -0.953722
32  0.729345 0.000065 -0.000027  -0.198329 0.044732 -0.857780
33  3.942045 0.050109 0.430997  0.369881 -0.091819 -1.556998
34  1.539097 0.000011 -0.000001  -0.013288 -0.027151 -1.132776
35  1.196300 0.000075 -0.000005  0.000968 -0.002436 -0.994639
36  3.883410 -0.050502 -0.431087  0.299105 -0.220225 -1.386726
37  1.719564 -0.000077 -0.000002  -0.038529 0.030961 -1.462450
38  1.209198 0.000035 0.000011  -0.001756 -0.004187 -0.773865
39  3.806437 -0.112148 -1.295329  -0.162450 0.263704 0.073402
40  1.719412 -0.000100 -0.000033  0.222655 -0.145485 -1.185930
41  1.099673 0.000024 0.000007  0.024522 -0.015743 -1.094630
42  0.889709 -0.317103 -1.125532  0.901376 0.231327 -0.743911
43  1.789778 -0.000009 -0.000043  0.027227 0.044051 -0.011391
44  1.206995 -0.000007 0.000006  -0.019167 -0.151093 1.385408
45  5.740572 0.000055 0.000725  0.113947 -0.000014 0.000021
46  11.480871 -0.000028 0.000986  0.040521 0.112004 0.121447
47  6.027514 -0.000272 -0.000237  -0.773064 -0.496241 -1.548831
48  -0.000001 11.691976 -0.000008  -1.208653 0.652913 0.911724
49  0.000003 -0.000002 0.000000  2.836925 -0.000041 1.570856
50  -0.000006 -0.000016 0.000004  2.272644 -0.000030 1.570865
51  -3.919445 -3.862079 -5.614421  -0.061309 -3.116558 1.460230
52  -0.000000 -0.000000 -0.000001  0.008153 -0.000259 0.000009
53  -0.000000 -0.000000 -0.000000  1.565115 0.043565 -0.106862
54  -0.893875 -15.613783 -4.863279  -0.896460 -0.122929 -1.928517
55  -0.000001 0.000000 0.000000  0.000000 -0.000000 -0.000002
56  0.000029 0.000029 0.000001  -1.571901 -0.044449 -0.106509
57  8.813454 -15.874282 -16.312904  1.570796 -0.000000 0.000000
58  -16.922342 4.543208 -16.901630  1.570796 -0.000000 0.000000
59  0.782952 0.358527 -4.738592  1.570796 -0.000000 0.000000
60  -0.004311 0.001230 -0.000371  0.006898 -0.005534 -0.284229
61  2.073871 10.506637 -3.148526  1.570796 -0.000000 0.000000
62  0.000000 0.000000 0.000000  -0.078727 -3.136056 0.284226
63  0.000000 0.000000 0.000000  1.572644 -0.003722 -0.000093
64  -2.883904 -8.967323 -2.143598  1.512007 -0.020191 0.012912
65  -0.219072 -1.337187 -0.135917  0.000000 0.000000 -0.000000
66  -0.219078 0.187971 19.478251  0.000000 0.000000 -0.000000
67  -0.245097 -1.134826 1.111317  0.000000 0.000000 0.000000
68  -0.104048 -4.495924 7.879276  0.000000 0.000000 -0.000000
69  -0.198094 4.323280 -6.346652  0.000000 0.000000 -0.000000
70  -0.200449 -0.857878 4.877554  0.000000 0.000000 -0.000000
71  -3.038280 -14.339631 -1.659608  1.512007 -0.020191 0.012912
time 9
0  0.000006 0.000000 0.000000  -1.570800 -1.391899 -1.570792
1  -4.437840 -0.476359 -0.272821  -1.544956 -1.855077 -0.198630
2  6.027522 -0.000326 0.000193  -0.995319 -1.119269 -1.109228
3  11.692110 0.000644 -0.000739  -1.335145 -0.000015 -1.369656
4  11.480047 0.000605 -0.000627  1.221760 -0.644183 0.108094
5  3.850437 -0.160714 -1.188340  -0.568285 -0.164513 -1.702679
6  1.312591 0.000013 0.000008  -0.126830 -0.022924 -0.225575
7  0.729355 0.000054 0.000048  -0.004671 -0.009865 0.048242
8  3.942142 0.046272 -0.431512  -0.468076 0.109139 -1.235683
9  1.539111 0.000085 0.000006  -0.032878 -0.060698 -0.574443
10  1.196334 0.000143 0.000029  0.007060 0.001052 -0.261783
11  3.883504 -0.047270 0.431381  -0.214688 0.424193 -0.602086
12  1.719573 -0.000026 0.000015  0.019836 -0.124244 -1.168849
13  1.209180 0.000090 0.000012  -0.005642 -0.000961 -0.229821
14  4.071289 -0.086161 1.162244  0.058820 0.509156 -0.042496
15  1.719449 -0.000011 0.000022  -0.002827 -0.043142 -0.689006
16  1.099676 0.000049 0.000007  -0.054058 0.036504 -1.226571
17  0.982918 -1.338781 0.871851  -1.016756 -0.653805 -0.358780
18  1.789821 -0.000001 -0.000018  0.001328 -0.016576 0.714495
19  1.207013 -0.000011 -0.000044  0.001834 -0.000023 -0.115413
20  5.740637 0.000410 -0.000703  -0.117276 0.000003 0.000071
21  11.481018 0.000333 -0.000782  -0.053025 -0.111274 -0.011908
22  6.027525 -0.000330 0.000203  1.710180 -0.430978 1.708325
23  0.000003 11.692101 -0.000007  -0.951631 -0.405602 -0.759288
24  0.000003 0.000008 -0.000002  -0.466051 -0.000031 1.570739
25  0.000000 -0.000011 -0.000001  0.868957 0.000002 1.570712
26  -4.967872 -9.778694 2.073871  1.473120 1.855075 -0.198639
27  6.027506 -0.000260 -0.000228  1.648970 0.655479 -0.405431
28  11.691992 0.000243 0.000855  0.564399 0.000071 -1.829601
29  11.479420 -0.000429 0.001248  -1.245786 0.543745 0.841506
30  3.859435 -0.132789 1.193063  0.385277 -0.029729 -1.748803
31  1.312558 0.000027 0.000000  -0.013756 -0.031530 -0.953722
32  0.729345 0.000066 -0.000027  -0.198329 0.044732 -0.857780
33  3.942045 0.050109 0.430997  0.369881 -0.091819 -1.556998
34  1.539097 0.000012 -0.000001  -0.013288 -0.027151 -1.132776
35  1.196300 0.000074 -0.000005  0.000968 -0.002436 -0.994639
36  3.883410 -0.050502 -0.431086  0.299105 -0.220225 -1.386726
37  1.719565 -0.000075 -0.000003  -0.038529 0.030961 -1.462450
38  1.209198 0.000035 0.000012  -0.001756 -0.004187 -0.773865
39  3.806438 -0.112148 -1.295329  -0.065673 0.246425 -0.065110
40  1.719413 -0.000100 -0.000034  0.318518 -0.200698 -1.329005
41  1.099673 0.000024 0.000007  0.050154 -0.009714 -0.898919
42  0.889709 -0.317103 -1.125533  0.901376 0.231327 -0.743911
43  1.789779 -0.000008 -0.000042  0.027227 0.044051 -0.011391
44  1.206995 -0.000006 0.000006  -0.019167 -0.151093 1.385408
45  5.740571 0.000056 0.000724  0.102246 -0.000014 0.000021
46  11.480827 -0.000050 0.000999  0.025448 0.104865 0.135164
47  6.027514 -0.000272 -0.000237  -0.758299 -0.481409 -1.562996
48  -0.000002 11.691976 -0.000007  -1.223105 0.667755 0.918689
49  0.000003 -0.000000 0.000001  2.836925 -0.000041 1.570856
50  -0.000007 -0.000016 0.000005  2.272644 -0.000030 1.570865
51  -4.026840 -3.647875 -5.340782  2.987050 -0.013197 -1.682711
52  0.000000 -0.000000 -0.000000  0.008153 -0.000259 0.000009
53  -0.000000 -0.000000 0.000000  1.565115 0.043565 -0.106862
54  -1.056092 -15.434961 -4.787308  -0.988217 -0.134619 -1.929125
55  -0.000000 -0.000000 0.000001  0.000000 -0.000000 -0.000002
56  0.000030 0.000029 0.000001  -1.571901 -0.044449 -0.106509
57  8.694838 -16.141689 -16.416052  1.570796 -0.000000 0.000000
58  -16.922342 4.543208 -16.901630  1.570796 -0.000000 0.000000
59  -0.268507 1.258074 -4.283479  1.570796 -0.000000 0.000000
60  -0.004311 0.001230 -0.000371  0.006898 -0.005534 -0.284229
61  2.073871 10.506637 -3.148526  1.570796 -0.000000 0.000000
62  0.000000 0.000000 0.000000  -0.078727 -3.136056 0.284226
63  0.000000 0.000000 0.000000  1.572238 -0.003202 -0.000103
64  -2.700321 -8.831141 -2.091692  1.535172 0.070877 0.010368
65  -0.219072 -1.337187 -0.135916  0.000000 0.000000 0.000000
66  -0.219078 0.187972 19.478251  0.000000 0.000000 0.000000
67  -0.245097 -1.134826 1.111315  0.000000 0.000000 0.000000
68  -0.104048 -4.495923 7.879275  0.000000 0.000000 0.000000
69  -0.198094 4.323281 -6.346653  0.000000 0.000000 0.000000
70  -0.200449 -0.857877 4.877554  0.000000 0.000000 0.000000
71  -2.832135 -14.212535 -1.713562  1.535172 0.070877 0.010368
time 10
0  0.000006 0.000000 0.000000  -1.570800 -1.391899 -1.570792
1  -4.327822 -0.845730 -0.674796  -1.544956 -1.855077 -0.198630
2  6.027522 -0.000325 0.000193  -1.048112 -1.100218 -1.049002
3  11.692109 0.000644 -0.000740  -1.361395 -0.000015 -1.373637
4  11.480022 0.000618 -0.000621  1.206627 -0.626542 0.089784
5  3.859507 -0.142880 -1.192049  -0.550885 -0.255832 -1.866282
6  1.312589 0.000012 0.000008  -0.134281 -0.007565 -0.192402
7  0.729356 0.000054 0.000050  -0.007819 -0.009377 -0.049784
8  3.942142 0.046272 -0.431512  -0.484645 0.035664 -1.413041
9  1.539110 0.000086 0.000006  -0.033414 -0.056767 -0.605686
10  1.196333 0.000145 0.000029  0.006943 0.002367 -0.289526
11  3.883502 -0.047270 0.431381  -0.270346 0.409995 -0.746893
12  1.719573 -0.000027 0.000015  0.028924 -0.121328 -1.267494
13  1.209180 0.000089 0.000010  -0.006830 -0.001497 -0.302684
14  4.085221 -0.082716 1.151040  0.033977 0.537783 -0.030448
15  1.719450 -0.000011 0.000022  0.011888 -0.076325 -0.864457
16  1.099675 0.000047 0.000005  -0.070447 0.038185 -1.423970
17  0.971585 -1.283500 0.847609  -0.978328 -0.625347 -0.310208
18  1.789820 -0.000004 -0.000018  0.000998 -0.014468 0.721478
19  1.207017 -0.000012 -0.000043  0.001593 -0.000026 -0.111145
20  5.740637 0.000410 -0.000703  -0.118059 0.000003 0.000071
21  11.481012 0.000336 -0.000781  -0.057124 -0.107521 -0.015822
22  6.027525 -0.000329 0.000203  1.741768 -0.440692 1.707929
23  0.000001 11.692099 -0.000007  -0.954031 -0.407697 -0.760909
24  0.000002 0.000008 -0.000000  -0.492302 -0.000031 1.570739
25  -0.000001 -0.000012 -0.000001  0.868957 0.000002 1.570712
26  -4.967872 -9.778694 2.073871  1.473120 1.855075 -0.198639
27  6.027506 -0.000260 -0.000228  1.660301 0.651550 -0.402130
28  11.691992 0.000242 0.000855  0.564399 0.000073 -1.851458
29  11.479226 -0.000522 0.001307  -1.268635 0.534565 0.875459
30  3.859435 -0.132789 1.193062  0.385277 -0.029729 -1.748803
31  1.312558 0.000026 -0.000000  -0.013756 -0.031530 -0.953722
32  0.729345 0.000065 -0.000027  -0.198329 0.044732 -0.857780
33  3.942045 0.050108 0.430997  0.369881 -0.091819 -1.556998
34  1.539097 0.000011 0.000000  -0.013288 -0.027151 -1.132777
35  1.196300 0.000075 -0.000005  0.000968 -0.002436 -0.994639
36  3.883410 -0.050502 -0.431087  0.299105 -0.220225 -1.386726
37  1.719565 -0.000076 -0.000003  -0.038529 0.030961 -1.462450
38  1.209198 0.000036 0.000011  -0.001756 -0.004187 -0.773865
39  3.806437 -0.112148 -1.295330  -0.028805 0.243340 -0.117787
40  1.719413 -0.000099 -0.000034  0.356276 -0.218063 -1.380320
41  1.099673 0.000026 0.000006  0.059920 -0.008679 -0.824866
42  0.889709 -0.317103 -1.125533  0.901376 0.231327 -0.743911
43  1.789779 -0.000008 -0.000042  0.027227 0.044051 -0.011391
44  1.206996 -0.000006 0.000007  -0.019167 -0.151093 1.385408
45  5.740571 0.000055 0.000725  0.101003 -0.000014 0.000021
46  11.480788 -0.000068 0.001011  0.020762 0.102163 0.143531
47  6.027514 -0.000272 -0.000237  -0.750217 -0.474709 -1.570302
48  -0.000002 11.691975 -0.000007  -1.236022 0.681052 0.924735
49  0.000003 -0.000001 -0.000001  2.836925 -0.000041 1.570856
50  -0.000006 -0.000016 0.000005  2.272644 -0.000030 1.570865
51  -4.036563 -3.450794 -5.174097  2.952097 -0.001698 -1.680798
52  -0.000000 -0.000000 -0.000000  0.008153 -0.000259 0.000009
53  -0.000000 -0.000000 -0.000000  1.565115 0.043565 -0.106862
54  -1.032509 -15.239271 -4.900945  -1.025240 -0.131909 -1.922553
55  -0.000000 -0.000001 0.000000  0.000000 -0.000000 -0.000002
56  0.000029 0.000029 0.000001  -1.571901 -0.044449 -0.106509
57  8.694838 -16.141689 -16.416052  1.570796 -0.000000 0.000000
58  -16.922342 4.543208 -16.901630  1.570796 -0.000000 0.000000
59  -0.670483 1.601972 -4.109488  1.570796 -0.000000 0.000000
60  -0.004311 0.001230 -0.000371  0.006898 -0.005534 -0.284229
61  2.073871 10.506637 -3.148526  1.570796 -0.000000 0.000000
62  0.000000 0.000000 0.000000  -0.078727 -3.136056 0.284226
63  0.000000 0.000000 0.000000  1.571710 -0.002612 -0.000108
64  -2.594812 -8.680519 -2.050985  1.550925 0.104158 0.013397
65  -0.219072 -1.337187 -0.135918  -0.000000 0.000000 -0.000000
66  -0.219078 0.187971 19.478249  -0.000000 0.000000 -0.000000
67  -0.245097 -1.134826 1.111315  -0.000000 0.000000 0.000000
68  -0.104047 -4.495923 7.879276  -0.000000 0.000000 -0.000000
69  -0.198095 4.323281 -6.346653  -0.000000 0.000000 -0.000000
70  -0.200449 -0.857878 4.877553  -0.000000 0.000000 -0.000000
71  -2.706387 -14.067300 -1.751153  1.550925 0.104158 0.013397
time 11
0  0.000006 0.000000 0.000000  -1.570800 -1.391899 -1.570792
1  -4.327822 -0.845730 -0.674796  -1.544956 -1.855077 -0.198630
2  6.027522 -0.000325 0.000193  -1.062913 -1.089318 -1.034958
3  11.692108 0.000643 -0.000738  -1.361396 -0.000016 -1.398144
4  11.479875 0.000602 -0.000701  1.208128 -0.644452 0.102322
5  3.859508 -0.142879 -1.192050  -0.550885 -0.255832 -1.866282
6  1.312591 0.000012 0.000007  -0.134281 -0.007565 -0.192402
7  0.729357 0.000055 0.000048  -0.007819 -0.009377 -0.049784
8  3.942144 0.046273 -0.431512  -0.484645 0.035664 -1.413041
9  1.539110 0.000085 0.000006  -0.033415 -0.056767 -0.605686
10  1.196333 0.000146 0.000030  0.006943 0.002367 -0.289526
11  3.883503 -0.047269 0.431381  -0.270346 0.409995 -0.746893
12  1.719573 -0.000028 0.000015  0.028923 -0.121328 -1.267494
13  1.209179 0.000092 0.000011  -0.006830 -0.001497 -0.302684
14  4.085223 -0.082715 1.151041  0.033977 0.537783 -0.030448
15  1.719449 -0.000010 0.000023  0.011888 -0.076325 -0.864457
16  1.099674 0.000048 0.000005  -0.070447 0.038185 -1.423970
17  0.971588 -1.283499 0.847609  -0.978328 -0.625347 -0.310208
18  1.789821 -0.000003 -0.000018  0.000998 -0.014468 0.721478
19  1.207017 -0.000012 -0.000044  0.001593 -0.000026 -0.111145
20  5.740637 0.000411 -0.000703  -0.119220 0.000003 0.000071
21  11.480983 0.000332 -0.000798  -0.055796 -0.111336 -0.013901
22  6.027525 -0.000329 0.000203  1.753336 -0.448155 1.703844
23  0.000002 11.692099 -0.000007  -0.968766 -0.420670 -0.770801
24  0.000001 0.000008 -0.000000  -0.492302 -0.000031 1.570739
25  -0.000001 -0.000012 -0.000001  0.868957 0.000002 1.570712
26  -4.967872 -9.778694 2.073871  1.473120 1.855075 -0.198639
27  6.027506 -0.000260 -0.000228  1.659331 0.648391 -0.402725
28  11.691991 0.000242 0.000855  0.564399 0.000074 -1.868267
29  11.479083 -0.000590 0.001348  -1.250652 0.534065 0.895699
30  3.859435 -0.132789 1.193062  0.385277 -0.029729 -1.748803
31  1.312558 0.000026 0.000000  -0.013756 -0.031530 -0.953722
32  0.729344 0.000066 -0.000028  -0.198329 0.044732 -0.857780
33  3.942045 0.050109 0.430997  0.369881 -0.091819 -1.556998
34  1.539097 0.000013 -0.000000  -0.013288 -0.027151 -1.132776
35  1.196301 0.000076 -0.000005  0.000968 -0.002436 -0.994639
36  3.883411 -0.050502 -0.431087  0.299105 -0.220225 -1.386726
37  1.719565 -0.000077 -0.000002  -0.038529 0.030961 -1.462450
38  1.209198 0.000035 0.000011  -0.001756 -0.004187 -0.773865
39  3.806438 -0.112148 -1.295329  -0.028805 0.243340 -0.117787
40  1.719411 -0.000099 -0.000034  0.356276 -0.218063 -1.380320
41  1.099673 0.000026 0.000006  0.059920 -0.008679 -0.824866
42  0.889710 -0.317103 -1.125532  0.901376 0.231327 -0.743911
43  1.789779 -0.000008 -0.000042  0.027227 0.044051 -0.011391
44  1.206995 -0.000007 0.000006  -0.019168 -0.151093 1.385408
45  5.740572 0.000055 0.000724  0.106123 -0.000014 0.000021
46  11.480761 -0.000082 0.001019  0.023207 0.103614 0.146375
47  6.027514 -0.000272 -0.000237  -0.747287 -0.476657 -1.571651
48  -0.000000 11.691974 -0.000007  -1.245981 0.691319 0.929277
49  0.000003 -0.000001 -0.000000  2.836925 -0.000041 1.570856
50  -0.000006 -0.000016 0.000005  2.272644 -0.000030 1.570865
51  -3.976539 -3.296755 -5.130114  2.960537 0.005223 -1.678056
52  -0.000000 0.000000 0.000000  0.008153 -0.000259 0.000009
53  0.000000 -0.000000 -0.000000  1.565115 0.043565 -0.106862
54  -0.942646 -15.078497 -4.899659  -1.018652 -0.123166 -1.920664
55  -0.000000 -0.000001 -0.000000  0.000000 -0.000000 -0.000002
56  0.000029 0.000028 0.000000  -1.571902 -0.044449 -0.106509
57  8.694838 -16.141689 -16.416052  1.570796 -0.000000 0.000000
58  -16.922342 4.543208 -16.901630  1.570796 -0.000000 0.000000
59  -0.670483 1.601972 -4.109488  1.570796 -0.000000 0.000000
60  -0.004311 0.001230 -0.000371  0.006898 -0.005534 -0.284229
61  2.073871 10.506637 -3.148526  1.570796 -0.000000 0.000000
62  0.000000 0.000000 0.000000  -0.078727 -3.136056 0.284226
63  0.000000 0.000000 0.000000  1.571182 -0.001994 -0.000110
64  -2.548970 -8.541140 -2.025124  1.556781 0.094928 0.016707
65  -0.219072 -1.337187 -0.135917  0.000000 -0.000000 -0.000000
66  -0.219078 0.187971 19.478251  0.000000 -0.000000 -0.000000
67  -0.245097 -1.134826 1.111316  0.000000 0.000000 0.000000
68  -0.104048 -4.495923 7.879277  0.000000 -0.000000 -0.000000
69  -0.198094 4.323280 -6.346653  0.000000 -0.000000 -0.000000
70  -0.200449 -0.857878 4.877553  0.000000 -0.000000 -0.000000
71  -2.648441 -13.929898 -1.758393  1.556781 0.094928 0.016707
time 12
0  0.000006 0.000000 0.000000  -1.570800 -1.391899 -1.570792
1  -4.327822 -0.845730 -0.674796  -1.544956 -1.855077 -0.198630
2  6.027522 -0.000325 0.000193  -1.076685 -1.082932 -1.026171
3  11.692108 0.000644 -0.000739  -1.361397 -0.000017 -1.414907
4  11.479778 0.000590 -0.000749  1.222560 -0.655527 0.117614
5  3.859508 -0.142879 -1.192050  -0.550885 -0.255832 -1.866282
6  1.312590 0.000012 0.000007  -0.134281 -0.007565 -0.192402
7  0.729354 0.000054 0.000048  -0.007819 -0.009376 -0.049784
8  3.942143 0.046273 -0.431512  -0.484645 0.035664 -1.413041
9  1.539110 0.000082 0.000004  -0.033414 -0.056767 -0.605686
10  1.196332 0.000146 0.000029  0.006943 0.002367 -0.289526
11  3.883506 -0.047269 0.431381  -0.270346 0.409995 -0.746893
12  1.719573 -0.000027 0.000014  0.028923 -0.121328 -1.267494
13  1.209179 0.000093 0.000014  -0.006830 -0.001497 -0.302684
14  4.085220 -0.082716 1.151040  0.033977 0.537783 -0.030448
15  1.719449 -0.000012 0.000023  0.011888 -0.076325 -0.864457
16  1.099675 0.000047 0.000006  -0.070447 0.038185 -1.423970
17  0.971587 -1.283499 0.847609  -0.978328 -0.625347 -0.310208
18  1.789820 -0.000003 -0.000018  0.000998 -0.014468 0.721478
19  1.207015 -0.000012 -0.000043  0.001593 -0.000026 -0.111145
20  5.740637 0.000410 -0.000703  -0.116740 0.000003 0.000071
21  11.480964 0.000330 -0.000807  -0.052118 -0.113715 -0.010392
22  6.027525 -0.000329 0.000203  1.762701 -0.451447 1.696373
23  0.000003 11.692099 -0.000007  -0.978814 -0.429619 -0.777479
24  0.000002 0.000008 -0.000002  -0.492302 -0.000031 1.570739
25  0.000001 -0.000012 -0.000001  0.868957 0.000002 1.570712
26  -4.967872 -9.778694 2.073871  1.473120 1.855075 -0.198639
27  6.027506 -0.000260 -0.000228  1.653159 0.646582 -0.404826
28  11.691992 0.000243 0.000855  0.564399 0.000075 -1.878971
29  11.478989 -0.000630 0.001377  -1.224509 0.539251 0.904509
30  3.859436 -0.132789 1.193062  0.385277 -0.029729 -1.748803
31  1.312558 0.000026 -0.000001  -0.013756 -0.031530 -0.953722
32  0.729343 0.000066 -0.000027  -0.198329 0.044732 -0.857780
33  3.942045 0.050109 0.430997  0.369881 -0.091819 -1.556998
34  1.539097 0.000011 -0.000000  -0.013288 -0.027151 -1.132776
35  1.196300 0.000075 -0.000005  0.000968 -0.002436 -0.994639
36  3.883410 -0.050502 -0.431087  0.299105 -0.220225 -1.386726
37  1.719565 -0.000077 -0.000003  -0.038529 0.030961 -1.462450
38  1.209197 0.000035 0.000011  -0.001756 -0.004187 -0.773865
39  3.806438 -0.112148 -1.295329  -0.028805 0.243340 -0.117787
40  1.719411 -0.000099 -0.000034  0.356276 -0.218063 -1.380320
41  1.099673 0.000025 0.000007  0.059920 -0.008679 -0.824866
42  0.889710 -0.317103 -1.125532  0.901376 0.231327 -0.743911
43  1.789778 -0.000009 -0.000043  0.027227 0.044051 -0.011391
44  1.206996 -0.000006 0.000006  -0.019167 -0.151093 1.385408
45  5.740572 0.000055 0.000724  0.111647 -0.000014 0.000021
46  11.480742 -0.000090 0.001025  0.027045 0.106530 0.146230
47  6.027514 -0.000272 -0.000237  -0.747592 -0.481895 -1.569888
48  -0.000002 11.691976 -0.000006  -1.252336 0.697874 0.932120
49  0.000004 -0.000002 0.000000  2.836925 -0.000041 1.570856
50  -0.000006 -0.000015 0.000005  2.272644 -0.000030 1.570865
51  -3.897189 -3.197664 -5.146803  2.980807 0.006962 -1.676472
52  0.000000 0.000000 -0.000000  0.008153 -0.000259 0.000009
53  0.000001 -0.000000 0.000000  1.565115 0.043565 -0.106862
54  -0.851457 -14.974854 -4.849513  -0.999264 -0.116585 -1.921522
55  0.000001 -0.000000 0.000000  0.000000 -0.000000 -0.000002
56  0.000030 0.000029 0.000001  -1.571901 -0.044449 -0.106509
57  8.694838 -16.141689 -16.416052  1.570796 -0.000000 0.000000
58  -16.922342 4.543208 -16.901630  1.570796 -0.000000 0.000000
59  -0.670483 1.601972 -4.109488  1.570796 -0.000000 0.000000
60  -0.004311 0.001230 -0.000371  0.006898 -0.005534 -0.284229
61  2.073871 10.506637 -3.148526  1.570796 -0.000000 0.000000
62  0.000000 0.000000 0.000000  -0.078727 -3.136056 0.284226
63  0.000000 0.000000 0.000000  1.570776 -0.001391 -0.000098
64  -2.525430 -8.438679 -2.011117  1.555999 0.074599 0.018101
65  -0.219072 -1.337187 -0.135917  0.000000 -0.000000 0.000000
66  -0.219077 0.187971 19.478251  0.000000 -0.000000 0.000000
67  -0.245097 -1.134826 1.111316  -0.000000 0.000000 0.000000
68  -0.104047 -4.495923 7.879276  0.000000 -0.000000 0.000000
69  -0.198094 4.323280 -6.346653  0.000000 -0.000000 0.000000
70  -0.200448 -0.857878 4.877555  0.000000 -0.000000 0.000000
71  -2.622458 -13.827467 -1.744095  1.555999 0.074599 0.018101
time 13
0  0.000006 0.000000 0.000000  -1.570800 -1.391899 -1.570792
1  -4.327822 -0.845730 -0.674796  -1.544956 -1.855077 -0.198630
2  6.027522 -0.000325 0.000193  -1.085708 -1.080826 -1.022614
3  11.692108 0.000644 -0.000740  -1.361398 -0.000018 -1.421769
4  11.479742 0.000586 -0.000770  1.237525 -0.659866 0.131713
5  3.859509 -0.142880 -1.192049  -0.550885 -0.255832 -1.866282
6  1.312589 0.000011 0.000008  -0.134281 -0.007565 -0.192402
7  0.729354 0.000055 0.000050  -0.007819 -0.009377 -0.049784
8  3.942143 0.046273 -0.431512  -0.484645 0.035664 -1.413041
9  1.539110 0.000086 0.000006  -0.033414 -0.056767 -0.605686
10  1.196331 0.000146 0.000031  0.006943 0.002367 -0.289526
11  3.883505 -0.047269 0.431381  -0.270346 0.409995 -0.746893
12  1.719573 -0.000026 0.000015  0.028923 -0.121328 -1.267494
13  1.209179 0.000091 0.000013  -0.006830 -0.001497 -0.302684
14  4.085224 -0.082715 1.151041  0.033977 0.537783 -0.030448
15  1.719449 -0.000011 0.000023  0.011888 -0.076325 -0.864457
16  1.099675 0.000049 0.000006  -0.070447 0.038185 -1.423970
17  0.971586 -1.283499 0.847609  -0.978328 -0.625347 -0.310208
18  1.789818 -0.000003 -0.000019  0.000998 -0.014468 0.721478
19  1.207016 -0.000012 -0.000043  0.001593 -0.000026 -0.111145
20  5.740636 0.000411 -0.000704  -0.113140 0.000003 0.000070
21  11.480956 0.000329 -0.000811  -0.048584 -0.114699 -0.006849
22  6.027525 -0.000329 0.000203  1.767957 -0.451622 1.689670
23  0.000002 11.692097 -0.000007  -0.982920 -0.433301 -0.780192
24  0.000003 0.000009 -0.000000  -0.492302 -0.000031 1.570739
25  -0.000000 -0.000012 -0.000001  0.868957 0.000002 1.570712
26  -4.967872 -9.778694 2.073871  1.473120 1.855075 -0.198639
27  6.027506 -0.000260 -0.000228  1.646797 0.647502 -0.406750
28  11.691993 0.000244 0.000855  0.564399 0.000075 -1.882762
29  11.478954 -0.000645 0.001386  -1.200264 0.545313 0.908482
30  3.859435 -0.132789 1.193062  0.385277 -0.029729 -1.748803
31  1.312559 0.000026 0.000000  -0.013756 -0.031530 -0.953722
32  0.729345 0.000066 -0.000027  -0.198329 0.044732 -0.857780
33  3.942045 0.050109 0.430996  0.369881 -0.091819 -1.556998
34  1.539096 0.000011 -0.000000  -0.013288 -0.027151 -1.132776
35  1.196300 0.000075 -0.000005  0.000968 -0.002436 -0.994639
36  3.883411 -0.050502 -0.431087  0.299105 -0.220225 -1.386726
37  1.719565 -0.000077 -0.000002  -0.038529 0.030961 -1.462450
38  1.209197 0.000036 0.000011  -0.001756 -0.004187 -0.773865
39  3.806438 -0.112148 -1.295330  -0.028805 0.243340 -0.117787
40  1.719411 -0.000099 -0.000034  0.356276 -0.218063 -1.380320
41  1.099673 0.000025 0.000007  0.059920 -0.008679 -0.824866
42  0.889709 -0.317103 -1.125533  0.901376 0.231327 -0.743911
43  1.789779 -0.000010 -0.000043  0.027227 0.044051 -0.011391
44  1.206996 -0.000007 0.000006  -0.019167 -0.151093 1.385408
45  5.740573 0.000055 0.000724  0.116198 -0.000014 0.000021
46  11.480735 -0.000093 0.001026  0.030640 0.109400 0.145188
47  6.027514 -0.000272 -0.000237  -0.750823 -0.486188 -1.566474
48  -0.000002 11.691977 -0.000006  -1.254589 0.700200 0.933118
49  0.000003 -0.000001 -0.000000  2.836924 -0.000041 1.570856
50  -0.000007 -0.000015 0.000004  2.272644 -0.000030 1.570865
51  -3.823076 -3.162315 -5.173591  3.001215 0.007588 -1.676560
52  -0.000000 -0.000000 -0.000001  0.008153 -0.000259 0.000009
53  0.000000 -0.000000 -0.000000  1.565115 0.043565 -0.106862
54  -0.786993 -14.939711 -4.796356  -0.979496 -0.111003 -1.924003
55  0.000000 -0.000000 -0.000000  0.000000 -0.000000 -0.000002
56  0.000031 0.000029 0.000001  -1.571901 -0.044449 -0.106509
57  8.694838 -16.141689 -16.416052  1.570796 -0.000000 0.000000
58  -16.922342 4.543208 -16.901630  1.570796 -0.000000 0.000000
59  -0.670483 1.601972 -4.109488  1.570796 -0.000000 0.000000
60  -0.004311 0.001230 -0.000371  0.006898 -0.005534 -0.284229
61  2.073871 10.506637 -3.148526  1.570796 -0.000000 0.000000
62  0.000000 0.000000 0.000000  -0.078727 -3.136056 0.284226
63  0.000000 0.000000 0.000000  1.570613 -0.000847 -0.000071
64  -2.516757 -8.398819 -2.002621  1.554100 0.054270 0.017743
65  -0.219072 -1.337187 -0.135917  0.000000 -0.000000 0.000000
66  -0.219078 0.187972 19.478251  0.000000 -0.000000 0.000000
67  -0.245097 -1.134825 1.111317  0.000000 0.000000 0.000000
68  -0.104047 -4.495923 7.879277  0.000000 -0.000000 0.000000
69  -0.198094 4.323281 -6.346656  0.000000 -0.000000 0.000000
70  -0.200449 -0.857877 4.877554  0.000000 -0.000000 0.000000
71  -2.620558 -13.787172 -1.729393  1.554100 0.054270 0.017743
time 14
0  0.000006 0.000000 0.000000  -1.570800 -1.391899 -1.570792
1  -4.327822 -0.845730 -0.674796  -1.544956 -1.855077 -0.198630
2  6.027522 -0.000325 0.000193  -1.087516 -1.083589 -1.024944
3  11.692107 0.000643 -0.000739  -1.361397 -0.000017 -1.416020
4  11.479774 0.000590 -0.000751  1.245995 -0.655467 0.137177
5  3.859510 -0.142879 -1.192049  -0.550885 -0.255832 -1.866282
6  1.312590 0.000012 0.000006  -0.134281 -0.007565 -0.192402
7  0.729356 0.000053 0.000049  -0.007819 -0.009377 -0.049784
8  3.942145 0.046274 -0.431512  -0.484645 0.035664 -1.413041
9  1.539109 0.000084 0.000005  -0.033415 -0.056767 -0.605686
10  1.196332 0.000145 0.000030  0.006943 0.002367 -0.289526
11  3.883505 -0.047269 0.431382  -0.270346 0.409995 -0.746893
12  1.719573 -0.000028 0.000013  0.028923 -0.121328 -1.267494
13  1.209179 0.000091 0.000009  -0.006830 -0.001497 -0.302684
14  4.085222 -0.082715 1.151041  0.033977 0.537783 -0.030448
15  1.719449 -0.000012 0.000024  0.011888 -0.076325 -0.864457
16  1.099675 0.000047 0.000006  -0.070447 0.038185 -1.423970
17  0.971587 -1.283499 0.847610  -0.978328 -0.625347 -0.310208
18  1.789820 -0.000004 -0.000018  0.000998 -0.014468 0.721478
19  1.207016 -0.000012 -0.000043  0.001593 -0.000026 -0.111145
20  5.740636 0.000410 -0.000701  -0.110291 0.000003 0.000071
21  11.480963 0.000330 -0.000807  -0.046903 -0.113840 -0.005111
22  6.027525 -0.000329 0.000203  1.767534 -0.448756 1.685928
23  0.000003 11.692098 -0.000007  -0.979480 -0.430216 -0.777920
24  0.000003 0.000008 -0.000001  -0.492302 -0.000031 1.570739
25  -0.000001 -0.000011 -0.000001  0.868957 0.000002 1.570712
26  -4.967872 -9.778694 2.073871  1.473120 1.855075 -0.198639
27  6.027506 -0.000260 -0.000228  1.643566 0.651236 -0.407490
28  11.691993 0.000241 0.000855  0.564399 0.000075 -1.877522
29  11.479004 -0.000625 0.001372  -1.191228 0.548766 0.905232
30  3.859436 -0.132789 1.193063  0.385277 -0.029729 -1.748803
31  1.312559 0.000027 -0.000001  -0.013756 -0.031530 -0.953722
32  0.729345 0.000066 -0.000027  -0.198329 0.044732 -0.857780
33  3.942045 0.050108 0.430998  0.369881 -0.091819 -1.556998
34  1.539097 0.000012 -0.000001  -0.013288 -0.027151 -1.132776
35  1.196300 0.000075 -0.000005  0.000968 -0.002436 -0.994639
36  3.883411 -0.050502 -0.431086  0.299105 -0.220225 -1.386726
37  1.719564 -0.000077 -0.000002  -0.038529 0.030961 -1.462450
38  1.209198 0.000035 0.000012  -0.001756 -0.004187 -0.773865
39  3.806437 -0.112148 -1.295329  -0.028805 0.243340 -0.117787
40  1.719412 -0.000099 -0.000033  0.356276 -0.218063 -1.380320
41  1.099674 0.000026 0.000007  0.059920 -0.008679 -0.824866
42  0.889709 -0.317103 -1.125532  0.901376 0.231327 -0.743911
43  1.789779 -0.000009 -0.000042  0.027227 0.044051 -0.011391
44  1.206996 -0.000007 0.000006  -0.019167 -0.151093 1.385408
45  5.740575 0.000055 0.000724  0.117348 -0.000014 0.000021
46  11.480746 -0.000089 0.001023  0.032068 0.110594 0.143819
47  6.027514 -0.000272 -0.000237  -0.755862 -0.487045 -1.562903
48  -0.000002 11.691976 -0.000007  -1.251474 0.696986 0.931738
49  0.000002 -0.000001 0.000000  2.836925 -0.000041 1.570856
50  -0.000007 -0.000016 0.000004  2.272644 -0.000030 1.570865
51  -3.786769 -3.211183 -5.192282  3.010667 0.006464 -1.677552
52  -0.000000 -0.000000 0.000001  0.008153 -0.000259 0.000009
53  0.000000 -0.000000 0.000000  1.565115 0.043565 -0.106862
54  -0.766894 -14.990922 -4.761980  -0.970000 -0.109772 -1.926107
55  0.000000 0.000000 0.000000  0.000000 -0.000000 -0.000002
56  0.000031 0.000029 0.000001  -1.571901 -0.044449 -0.106509
57  8.694838 -16.141689 -16.416052  1.570796 -0.000000 0.000000
58  -16.922342 4.543208 -16.901630  1.570796 -0.000000 0.000000
59  -0.670483 1.601972 -4.109488  1.570796 -0.000000 0.000000
60  -0.004311 0.001230 -0.000371  0.006898 -0.005534 -0.284229
61  2.073871 10.506637 -3.148526  1.570796 -0.000000 0.000000
62  0.000000 0.000000 0.000000  -0.078727 -3.136056 0.284226
63  0.000000 0.000000 0.000000  1.570661 -0.000405 -0.000039
64  -2.515518 -8.442303 -1.998258  1.551818 0.045029 0.016571
65  -0.219072 -1.337187 -0.135916  -0.000000 -0.000000 0.000000
66  -0.219078 0.187972 19.478251  -0.000000 -0.000000 0.000000
67  -0.245097 -1.134826 1.111317  -0.000000 0.000000 0.000000
68  -0.104047 -4.495923 7.879274  -0.000000 -0.000000 0.000000
69  -0.198094 4.323281 -6.346656  -0.000000 -0.000000 0.000000
70  -0.200449 -0.857877 4.877554  -0.000000 -0.000000 0.000000
71  -2.627603 -13.829950 -1.714609  1.551818 0.045029 0.016571
time 15
0  0.000006 0.000000 0.000000  -1.570800 -1.391899 -1.570792
1  -4.327822 -0.845730 -0.674796  -1.544956 -1.855077 -0.198630
2  6.027522 -0.000325 0.000193  -1.082156 -1.089076 -1.031141
3  11.692110 0.000643 -0.000740  -1.361397 -0.000016 -1.403515
4  11.479844 0.000596 -0.000716  1.245198 -0.646561 0.132668
5  3.859507 -0.142880 -1.192049  -0.550885 -0.255832 -1.866282
6  1.312591 0.000012 0.000009  -0.134281 -0.007565 -0.192402
7  0.729355 0.000053 0.000048  -0.007819 -0.009377 -0.049784
8  3.942141 0.046273 -0.431512  -0.484645 0.035664 -1.413041
9  1.539111 0.000084 0.000004  -0.033414 -0.056767 -0.605686
10  1.196334 0.000146 0.000030  0.006943 0.002367 -0.289526
11  3.883503 -0.047269 0.431382  -0.270346 0.409995 -0.746893
12  1.719573 -0.000026 0.000015  0.028923 -0.121328 -1.267494
13  1.209180 0.000092 0.000012  -0.006830 -0.001496 -0.302684
14  4.085221 -0.082716 1.151041  0.033977 0.537783 -0.030448
15  1.719450 -0.000010 0.000023  0.011888 -0.076325 -0.864457
16  1.099675 0.000049 0.000005  -0.070447 0.038185 -1.423970
17  0.971585 -1.283500 0.847610  -0.978328 -0.625347 -0.310208
18  1.789818 -0.000004 -0.000018  0.000998 -0.014468 0.721478
19  1.207013 -0.000011 -0.000044  0.001593 -0.000026 -0.111145
20  5.740637 0.000410 -0.000702  -0.109594 0.000003 0.000070
21  11.480976 0.000331 -0.000801  -0.047518 -0.112003 -0.005755
22  6.027525 -0.000329 0.000203  1.762494 -0.444797 1.686652
23  0.000002 11.692099 -0.000006  -0.971988 -0.423530 -0.772948
24  0.000003 0.000008 -0.000002  -0.492302 -0.000031 1.570739
25  -0.000000 -0.000012 0.000000  0.868957 0.000002 1.570712
26  -4.967872 -9.778694 2.073871  1.473120 1.855075 -0.198639
27  6.027506 -0.000260 -0.000228  1.644708 0.654719 -0.406865
28  11.691992 0.000242 0.000855  0.564399 0.000074 -1.868355
29  11.479079 -0.000588 0.001350  -1.199175 0.548526 0.897500
30  3.859436 -0.132789 1.193062  0.385277 -0.029729 -1.748803
31  1.312558 0.000026 -0.000000  -0.013756 -0.031530 -0.953722
32  0.729345 0.000066 -0.000027  -0.198329 0.044732 -0.857780
33  3.942045 0.050108 0.430997  0.369881 -0.091819 -1.556998
34  1.539097 0.000012 -0.000001  -0.013288 -0.027151 -1.132776
35  1.196300 0.000075 -0.000004  0.000968 -0.002436 -0.994639
36  3.883410 -0.050502 -0.431087  0.299105 -0.220225 -1.386726
37  1.719566 -0.000077 -0.000003  -0.038529 0.030961 -1.462450
38  1.209198 0.000035 0.000011  -0.001756 -0.004187 -0.773865
39  3.806437 -0.112148 -1.295330  -0.028805 0.243340 -0.117787
40  1.719412 -0.000099 -0.000034  0.356276 -0.218063 -1.380320
41  1.099673 0.000024 0.000007  0.059920 -0.008679 -0.824866
42  0.889709 -0.317103 -1.125533  0.901376 0.231327 -0.743911
43  1.789778 -0.000008 -0.000042  0.027227 0.044051 -0.011391
44  1.206996 -0.000006 0.000006  -0.019167 -0.151094 1.385408
45  5.740570 0.000056 0.000723  0.115216 -0.000014 0.000021
46  11.480759 -0.000081 0.001020  0.031009 0.109852 0.142843
47  6.027514 -0.000272 -0.000237  -0.759050 -0.484808 -1.561483
48  -0.000001 11.691975 -0.000007  -1.246033 0.691373 0.929301
49  0.000003 -0.000001 0.000001  2.836925 -0.000041 1.570856
50  -0.000007 -0.000015 0.000005  2.272644 -0.000030 1.570865
51  -3.803908 -3.296631 -5.195574  3.006589 0.004024 -1.678882
52  0.000000 0.000000 -0.000000  0.008153 -0.000259 0.000009
53  -0.000000 -0.000000 -0.000000  1.565115 0.043565 -0.106862
54  -0.797578 -15.079449 -4.754842  -0.973373 -0.113140 -1.927041
55  -0.000000 0.000000 0.000000  0.000000 -0.000000 -0.000002
56  0.000030 0.000029 0.000001  -1.571901 -0.044449 -0.106509
57  8.694838 -16.141689 -16.416052  1.570796 -0.000000 0.000000
58  -16.922342 4.543208 -16.901630  1.570796 -0.000000 0.000000
59  -0.670483 1.601972 -4.109488  1.570796 -0.000000 0.000000
60  -0.004311 0.001230 -0.000371  0.006898 -0.005534 -0.284229
61  2.073871 10.506637 -3.148526  1.570796 -0.000000 0.000000
62  0.000000 0.000000 0.000000  -0.078727 -3.136056 0.284226
63  0.000000 0.000000 0.000000  1.570749 -0.000109 -0.000011
64  -2.525709 -8.523062 -1.996650  1.549896 0.049375 0.015171
65  -0.219072 -1.337187 -0.135916  0.000000 -0.000000 0.000000
66  -0.219078 0.187971 19.478251  0.000000 -0.000000 0.000000
67  -0.245097 -1.134826 1.111316  0.000000 0.000000 0.000000
68  -0.104047 -4.495924 7.879275  0.000000 -0.000000 0.000000
69  -0.198094 4.323280 -6.346653  0.000000 -0.000000 0.000000
70  -0.200448 -0.857878 4.877553  0.000000 -0.000000 0.000000
71  -2.643599 -13.909985 -1.701790  1.549896 0.049375 0.015171
time 16
0  0.000006 0.000000 0.000000  -1.570800 -1.391899 -1.570792
1  -4.327822 -0.845730 -0.674796  -1.544956 -1.855077 -0.198630
2  6.027522 -0.000325 0.000193  -1.077969 -1.092223 -1.034963
3  11.692110 0.000644 -0.000740  -1.361396 -0.000016 -1.396426
4  11.479884 0.000600 -0.000694  1.243137 -0.641762 0.128734
5  3.859508 -0.142880 -1.192049  -0.550885 -0.255832 -1.866282
6  1.312588 0.000012 0.000008  -0.134281 -0.007565 -0.192402
7  0.729355 0.000054 0.000050  -0.007819 -0.009377 -0.049784
8  3.942141 0.046272 -0.431512  -0.484645 0.035664 -1.413041
9  1.539109 0.000084 0.000005  -0.033414 -0.056767 -0.605686
10  1.196331 0.000147 0.000030  0.006943 0.002367 -0.289526
11  3.883503 -0.047270 0.431381  -0.270346 0.409995 -0.746893
12  1.719573 -0.000025 0.000016  0.028923 -0.121328 -1.267494
13  1.209179 0.000091 0.000012  -0.006830 -0.001496 -0.302684
14  4.085221 -0.082716 1.151040  0.033977 0.537783 -0.030448
15  1.719448 -0.000011 0.000022  0.011888 -0.076325 -0.864457
16  1.099675 0.000047 0.000006  -0.070447 0.038185 -1.423970
17  0.971586 -1.283500 0.847609  -0.978328 -0.625347 -0.310208
18  1.789820 -0.000004 -0.000018  0.000998 -0.014468 0.721478
19  1.207013 -0.000012 -0.000044  0.001593 -0.000026 -0.111145
20  5.740637 0.000410 -0.000703  -0.109676 0.000003 0.000071
21  11.480985 0.000332 -0.000796  -0.048215 -0.111001 -0.006497
22  6.027525 -0.000329 0.000203  1.759115 -0.442716 1.687994
23  0.000002 11.692100 -0.000007  -0.967735 -0.419756 -0.770112
24  0.000003 0.000009 -0.000001  -0.492302 -0.000031 1.570739
25  -0.000000 -0.000012 -0.000001  0.868957 0.000002 1.570712
26  -4.967872 -9.778694 2.073871  1.473120 1.855075 -0.198639
27  6.027506 -0.000260 -0.000228  1.646195 0.656093 -0.406281
28  11.691993 0.000242 0.000855  0.564399 0.000074 -1.863466
29  11.479122 -0.000571 0.001338  -1.205878 0.547540 0.893047
30  3.859435 -0.132789 1.193063  0.385277 -0.029729 -1.748803
31  1.312559 0.000027 -0.000000  -0.013756 -0.031530 -0.953722
32  0.729344 0.000065 -0.000027  -0.198329 0.044732 -0.857780
33  3.942045 0.050109 0.430998  0.369881 -0.091819 -1.556998
34  1.539097 0.000011 -0.000001  -0.013288 -0.027151 -1.132777
35  1.196300 0.000074 -0.000004  0.000968 -0.002436 -0.994639
36  3.883410 -0.050502 -0.431086  0.299105 -0.220225 -1.386726
37  1.719565 -0.000077 -0.000002  -0.038529 0.030961 -1.462450
38  1.209197 0.000035 0.000011  -0.001756 -0.004187 -0.773865
39  3.806437 -0.112148 -1.295329  -0.028805 0.243340 -0.117787
40  1.719410 -0.000099 -0.000034  0.356276 -0.218063 -1.380320
41  1.099673 0.000026 0.000006  0.059920 -0.008679 -0.824866
42  0.889709 -0.317103 -1.125532  0.901376 0.231327 -0.743911
43  1.789779 -0.000010 -0.000042  0.027227 0.044051 -0.011391
44  1.206996 -0.000007 0.000006  -0.019167 -0.151093 1.385408
45  5.740571 0.000055 0.000724  0.113654 -0.000014 0.000021
46  11.480767 -0.000079 0.001017  0.030095 0.109127 0.142456
47  6.027514 -0.000272 -0.000237  -0.759932 -0.483175 -1.561396
48  -0.000001 11.691975 -0.000006  -1.243134 0.688383 0.927989
49  0.000002 -0.000001 -0.000000  2.836925 -0.000041 1.570856
50  -0.000006 -0.000015 0.000005  2.272644 -0.000030 1.570865
51  -3.824576 -3.342074 -5.194341  3.002374 0.002687 -1.679544
52  0.000000 0.000001 0.000000  0.008153 -0.000259 0.000009
53  -0.000000 0.000000 0.000001  1.565115 0.043565 -0.106862
54  -0.823980 -15.126455 -4.756344  -0.977156 -0.115470 -1.927258
55  -0.000001 -0.000000 -0.000000  -0.000000 -0.000000 -0.000002
56  0.000030 0.000029 0.000001  -1.571902 -0.044449 -0.106509
57  8.694838 -16.141689 -16.416052  1.570796 -0.000000 0.000000
58  -16.922342 4.543208 -16.901630  1.570796 -0.000000 0.000000
59  -0.670483 1.601972 -4.109488  1.570796 -0.000000 0.000000
60  -0.004311 0.001230 -0.000371  0.006898 -0.005534 -0.284229
61  2.073871 10.506637 -3.148526  1.570796 -0.000000 0.000000
62  0.000000 0.000000 0.000000  -0.078727 -3.136056 0.284226
63  0.000000 0.000000 0.000000  1.570796 -0.000000 0.000000
64  -2.535900 -8.566546 -1.996421  1.549086 0.053723 0.014481
65  -0.219072 -1.337187 -0.135917  0.000000 0.000000 0.000000
66  -0.219078 0.187971 19.478249  0.000000 0.000000 0.000000
67  -0.245097 -1.134826 1.111317  -0.000000 0.000000 0.000000
68  -0.104047 -4.495923 7.879276  0.000000 0.000000 0.000000
69  -0.198094 4.323281 -6.346650  0.000000 0.000000 0.000000
70  -0.200449 -0.857878 4.877553  0.000000 0.000000 0.000000
71  -2.655992 -13.953131 -1.696344  1.549086 0.053723 0.014481
end
