version 1
nodes
0 "ValveBiped.Bip01_Spine4" -1
1 "ValveBiped.Bip01_L_Clavicle" 0
2 "ValveBiped.Bip01_L_UpperArm" 1
3 "ValveBiped.Bip01_L_Forearm" 2
4 "ValveBiped.Bip01_L_Hand" 3
5 "ValveBiped.Bip01_L_Finger4" 4
6 "ValveBiped.Bip01_L_Finger41" 5
7 "ValveBiped.Bip01_L_Finger42" 6
8 "ValveBiped.Bip01_L_Finger3" 4
9 "ValveBiped.Bip01_L_Finger31" 8
10 "ValveBiped.Bip01_L_Finger32" 9
11 "ValveBiped.Bip01_L_Finger2" 4
12 "ValveBiped.Bip01_L_Finger21" 11
13 "ValveBiped.Bip01_L_Finger22" 12
14 "ValveBiped.Bip01_L_Finger1" 4
15 "ValveBiped.Bip01_L_Finger11" 14
16 "ValveBiped.Bip01_L_Finger12" 15
17 "ValveBiped.Bip01_L_Finger0" 4
18 "ValveBiped.Bip01_L_Finger01" 17
19 "ValveBiped.Bip01_L_Finger02" 18
20 "ValveBiped.Bip01_L_Ulna" 3
21 "ValveBiped.Bip01_L_Wrist" 3
22 "rig_l_upperarm" 1
23 "rig_l_forearm" 22
24 "rig_d_l_forearm" 23
25 "rig_d_l_upperarm" 22
26 "ValveBiped.Bip01_R_Clavicle" 0
27 "ValveBiped.Bip01_R_UpperArm" 26
28 "ValveBiped.Bip01_R_Forearm" 27
29 "ValveBiped.Bip01_R_Hand" 28
30 "ValveBiped.Bip01_R_Finger4" 29
31 "ValveBiped.Bip01_R_Finger41" 30
32 "ValveBiped.Bip01_R_Finger42" 31
33 "ValveBiped.Bip01_R_Finger3" 29
34 "ValveBiped.Bip01_R_Finger31" 33
35 "ValveBiped.Bip01_R_Finger32" 34
36 "ValveBiped.Bip01_R_Finger2" 29
37 "ValveBiped.Bip01_R_Finger21" 36
38 "ValveBiped.Bip01_R_Finger22" 37
39 "ValveBiped.Bip01_R_Finger1" 29
40 "ValveBiped.Bip01_R_Finger11" 39
41 "ValveBiped.Bip01_R_Finger12" 40
42 "ValveBiped.Bip01_R_Finger0" 29
43 "ValveBiped.Bip01_R_Finger01" 42
44 "ValveBiped.Bip01_R_Finger02" 43
45 "ValveBiped.Bip01_R_Ulna" 28
46 "ValveBiped.Bip01_R_Wrist" 28
47 "rig_r_upperarm" 26
48 "rig_r_forearm" 47
49 "rig_d_r_forearm" 48
50 "rig_d_r_upperarm" 47
51 "rig_r_hand" -1
52 "rig_d_r_hand" 51
53 "rig_d_r_wrist" 52
54 "rig_l_hand" -1
55 "rig_d_l_hand" 54
56 "rig_d_l_wrist" 54
57 "rig_l_pole" -1
58 "rig_r_pole" -1
59 "rig_l_clavicle" -1
60 "rig_d_l_clavicle" 59
61 "rig_r_clavicle" -1
62 "rig_d_r_clavicle" 61
63 "Camera" -1
64 "body" -1
65 "trigger" 64
66 "barrel" 64
67 "bulletdoor" 64
68 "pump" 64
69 "bolt" 68
70 "bullet2" 64
71 "hammer" 64
72 "bullet1" -1
end
skeleton
time 0
0  0.000006 0.000000 0.000000  -1.570800 -1.391899 -1.570792
1  -3.791962 -4.492373 -0.637369  -1.544956 -1.855077 -0.198630
2  6.027519 -0.000327 0.000193  -1.232691 -0.987883 -0.602402
3  11.692109 0.000643 -0.000739  0.317675 -0.000031 -1.640222
4  11.479399 -0.001100 -0.000410  0.945543 -0.295024 0.971394
5  3.756485 -0.428445 -1.137743  -0.183722 -0.010726 -0.734966
6  1.312589 0.000012 0.000008  -0.052793 -0.066402 -0.457461
7  0.729355 0.000055 0.000049  0.006399 -0.001561 -0.956459
8  4.000553 0.055696 -0.426795  -0.142694 -0.098918 -0.504703
9  1.539111 0.000083 0.000006  -0.050546 -0.101865 -0.538206
10  1.196332 0.000147 0.000029  0.009885 0.002735 -0.866231
11  3.926747 -0.043148 0.433994  -0.377995 -0.085522 -0.162295
12  1.719572 -0.000026 0.000015  0.013635 0.021510 -0.709165
13  1.209178 0.000093 0.000012  -0.003564 0.002488 -0.369890
14  4.085221 -0.082716 1.151041  -0.166729 -0.164169 0.030978
15  1.719449 -0.000012 0.000022  0.024233 0.023234 -0.507359
16  1.099674 0.000049 0.000005  -0.003350 0.002242 -0.620629
17  0.513959 -0.536467 0.902808  -0.879064 -0.518438 -0.773456
18  1.789819 -0.000004 -0.000018  -0.008423 -0.007423 -0.105580
19  1.207015 -0.000011 -0.000044  -0.001007 -0.001905 0.669913
20  5.740637 0.000410 -0.000703  -0.174719 0.000003 0.000071
21  11.480886 -0.000004 -0.000741  -0.095030 -0.086640 0.157054
22  6.027524 -0.000330 0.000204  1.892986 -0.494706 1.926302
23  0.000002 11.692101 -0.000007  -1.112023 -0.555381 -0.860118
24  0.000003 0.000008 -0.000001  1.186779 -0.000031 1.570739
25  -0.000000 -0.000012 -0.000001  0.868957 0.000002 1.570712
26  -2.472767 -7.601693 2.073868  1.473120 1.855075 -0.198639
27  6.027504 -0.000258 -0.000234  1.438376 0.349652 -0.440717
28  11.691992 0.000243 0.000857  0.245670 0.000088 -2.057760
29  11.480055 -0.000388 0.000947  0.227205 0.272079 0.487383
30  3.452861 -0.227595 1.051755  0.793579 -0.056389 -2.032878
31  1.312558 0.000025 0.000000  -0.023242 -0.032433 -0.297509
32  0.729345 0.000065 -0.000027  0.003283 -0.007876 -0.728525
33  3.942046 0.050108 0.430997  0.526040 -0.088921 -1.851546
34  1.539097 0.000010 0.000001  -0.019101 -0.038591 -0.518785
35  1.196299 0.000076 -0.000004  0.003099 -0.002033 -0.962439
36  3.883412 -0.050502 -0.431087  0.243209 -0.300101 -1.300904
37  1.719563 -0.000079 -0.000003  -0.026008 -0.004622 -1.369665
38  1.209197 0.000036 0.000011  0.001336 -0.002658 -0.386737
39  3.806436 -0.112148 -1.295329  -0.394742 0.151493 -0.171919
40  1.719411 -0.000099 -0.000034  0.087366 -0.009572 -0.381532
41  1.099673 0.000025 0.000007  -0.034822 0.011748 0.266223
42  1.247401 -0.127619 -1.568920  0.748170 -0.027639 -1.018690
43  1.789779 -0.000010 -0.000043  0.032980 0.002875 -0.077368
44  1.206997 -0.000007 0.000005  -0.020242 -0.153428 1.290064
45  5.740572 0.000055 0.000724  0.371877 -0.000014 0.000021
46  11.480956 -0.000042 0.000939  0.332629 0.113208 0.014504
47  6.027514 -0.000272 -0.000237  -0.497299 -0.769817 -1.650371
48  -0.000000 11.691974 -0.000006  -1.360727 0.809226 0.973410
49  0.000004 -0.000001 0.000001  2.518198 -0.000041 1.570856
50  -0.000006 -0.000015 0.000005  2.272644 -0.000030 1.570865
51  -4.373700 -3.519958 -6.278892  -1.988175 -0.142185 -1.329194
52  -0.000000 -0.000001 -0.000000  0.008153 -0.000259 0.000009
53  0.000000 -0.000000 0.000000  1.565115 0.043565 -0.106862
54  0.185404 -9.944022 -4.758774  0.465635 -0.399298 -1.506629
55  -0.000000 0.000000 0.000000  0.000000 -0.000000 -0.000002
56  0.000030 0.000029 0.000001  -1.571901 -0.044449 -0.106509
57  13.024888 -6.380027 -12.650742  1.570796 -0.000000 0.000000
58  -19.213562 7.451548 -15.500427  1.570796 -0.000000 0.000000
59  -0.633057 5.095064 -2.933281  1.570796 -0.000000 0.000000
60  -0.004311 0.001230 -0.000371  0.006898 -0.005534 -0.284229
61  2.073871 7.920389 -1.080626  1.570796 -0.000000 0.000000
62  0.000000 0.000000 0.000000  -0.078727 -3.136056 0.284226
63  0.000000 0.000000 0.000000  1.570796 -0.005015 0.000000
64  -4.642601 -9.103315 -2.524364  1.081278 -1.110744 0.581040
65  -0.213908 -1.691285 -0.436931  0.000000 0.000000 -0.000000
66  -0.213909 0.172055 24.732450  0.000000 0.000000 -0.000000
67  -0.261577 -0.679982 0.167699  0.000000 0.000000 -0.000000
68  -0.104048 -4.495923 7.879275  0.000000 0.000000 -0.000000
69  -0.195264 4.332630 -6.347187  0.000000 0.000000 -0.000000
70  -0.213908 -0.931879 4.707909  0.000000 0.000000 -0.000000
71  -0.213908 -0.146791 0.435632  -1.483530 0.000000 -0.000000
72  -4.583270 7.433416 -13.666655  1.570796 -0.000000 0.000000
time 1
0  0.000006 0.000000 0.000000  -1.570800 -1.391899 -1.570792
1  -3.909278 -4.471193 -0.369715  -1.544956 -1.855077 -0.198630
2  6.027519 -0.000326 0.000194  -1.248191 -0.966593 -0.641351
3  11.692106 0.000644 -0.000739  0.237338 -0.000032 -1.657809
4  11.479280 -0.001124 -0.000483  1.089741 -0.296895 0.826667
5  3.753448 -0.429758 -1.137437  -0.194287 -0.020708 -0.794521
6  1.312589 0.000012 0.000008  -0.047033 -0.061534 -0.495758
7  0.729355 0.000051 0.000050  0.005858 -0.001538 -0.947162
8  3.995363 0.054858 -0.427214  -0.146575 -0.106958 -0.580583
9  1.539111 0.000084 0.000006  -0.045051 -0.095571 -0.556620
10  1.196332 0.000146 0.000029  0.009238 0.002621 -0.881512
11  3.922904 -0.043514 0.433762  -0.346083 -0.108306 -0.249036
12  1.719572 -0.000027 0.000016  0.012065 0.020144 -0.724751
13  1.209180 0.000092 0.000012  -0.003372 0.002483 -0.398622
14  4.065174 -0.087672 1.167163  -0.098199 -0.176592 -0.034539
15  1.719449 -0.000012 0.000021  0.024322 0.017256 -0.505251
16  1.099675 0.000049 0.000005  -0.002304 0.001802 -0.618172
17  0.523599 -0.542812 0.896759  -0.884180 -0.530961 -0.798924
18  1.789820 -0.000002 -0.000018  -0.007989 -0.004535 -0.073129
19  1.207015 -0.000013 -0.000044  0.001796 -0.001747 0.667906
20  5.740637 0.000409 -0.000703  -0.149703 0.000003 0.000071
21  11.480865 -0.000009 -0.000756  -0.072263 -0.070284 0.135167
22  6.027525 -0.000330 0.000203  1.915196 -0.506906 1.863839
23  0.000002 11.692099 -0.000007  -1.122332 -0.565587 -0.865992
24  0.000003 0.000009 -0.000001  1.106443 -0.000030 1.570739
25  -0.000000 -0.000012 -0.000001  0.868957 0.000002 1.570712
26  -2.472767 -7.601693 2.073868  1.473120 1.855075 -0.198639
27  6.027504 -0.000258 -0.000234  1.437136 0.351914 -0.441383
28  11.691992 0.000242 0.000857  0.245670 0.000087 -2.039711
29  11.480235 -0.000270 0.000917  0.197323 0.275284 0.464663
30  3.452861 -0.227594 1.051754  0.793579 -0.056389 -2.032878
31  1.312558 0.000025 -0.000000  -0.023242 -0.032433 -0.297509
32  0.729345 0.000065 -0.000027  0.003283 -0.007876 -0.728525
33  3.942046 0.050110 0.430997  0.526040 -0.088921 -1.851546
34  1.539096 0.000009 -0.000000  -0.019101 -0.038591 -0.518785
35  1.196300 0.000076 -0.000004  0.003098 -0.002033 -0.962439
36  3.883411 -0.050501 -0.431087  0.243209 -0.300101 -1.300904
37  1.719563 -0.000079 -0.000003  -0.026008 -0.004622 -1.369665
38  1.209197 0.000035 0.000011  0.001336 -0.002658 -0.386737
39  3.806436 -0.112147 -1.295329  -0.394742 0.151493 -0.171919
40  1.719411 -0.000100 -0.000034  0.087366 -0.009572 -0.381532
41  1.099673 0.000024 0.000008  -0.034822 0.011748 0.266223
42  1.247401 -0.127617 -1.568920  0.748170 -0.027639 -1.018690
43  1.789780 -0.000009 -0.000042  0.032980 0.002875 -0.077368
44  1.206996 -0.000006 0.000005  -0.020242 -0.153428 1.290064
45  5.740572 0.000055 0.000724  0.364222 -0.000014 0.000021
46  11.480991 -0.000018 0.000933  0.327835 0.109176 0.011589
47  6.027514 -0.000272 -0.000237  -0.500821 -0.770103 -1.648159
48  -0.000001 11.691974 -0.000007  -1.349529 0.797844 0.969818
49  0.000002 0.000000 -0.000000  2.518198 -0.000041 1.570856
50  -0.000007 -0.000015 0.000005  2.272644 -0.000030 1.570865
51  -4.436591 -3.670591 -6.385663  -2.013980 -0.150714 -1.329895
52  0.000000 -0.000000 -0.000000  0.008153 -0.000259 0.000009
53  0.000000 0.000001 -0.000000  1.565115 0.043565 -0.106862
54  0.696329 -9.865917 -4.721598  0.518554 -0.406707 -1.626609
55  0.000001 -0.000000 0.000000  0.000000 -0.000000 -0.000002
56  0.000032 0.000029 0.000001  -1.571901 -0.044449 -0.106509
57  13.143633 -6.702322 -13.481962  1.570796 -0.000000 0.000000
58  -19.213562 7.451548 -15.500427  1.570796 -0.000000 0.000000
59  -0.365403 5.095098 -3.052495  1.570796 -0.000000 0.000000
60  -0.004311 0.001230 -0.000371  0.006898 -0.005534 -0.284229
61  2.073871 7.920389 -1.080626  1.570796 -0.000000 0.000000
62  0.000000 0.000000 0.000000  -0.078727 -3.136056 0.284226
63  0.000000 0.000000 0.000000  1.570156 -0.005171 0.000068
64  -4.643910 -9.198275 -2.545822  1.082149 -1.083832 0.575799
65  -0.213908 -1.691284 -0.436931  0.000000 -0.000000 -0.000000
66  -0.213909 0.172055 24.732449  0.000000 -0.000000 -0.000000
67  -0.261577 -0.679981 0.167700  0.000000 -0.000000 -0.000000
68  -0.104047 -4.495923 7.879276  0.000000 -0.000000 -0.000000
69  -0.195264 4.332630 -6.347186  0.000000 -0.000000 -0.000000
70  -0.213908 -0.931879 4.707910  0.000000 -0.000000 -0.000000
71  -0.213908 -0.146791 0.435632  -1.483530 -0.000000 -0.000000
72  -4.583270 7.433416 -13.666655  1.570796 -0.000000 0.000000
time 2
0  0.000006 0.000000 0.000000  -1.570800 -1.391899 -1.570792
1  -4.239724 -4.411538 0.384185  -1.544956 -1.855077 -0.198630
2  6.027518 -0.000325 0.000194  -1.219178 -0.845371 -0.720718
3  11.692106 0.000642 -0.000739  0.002732 -0.000040 -1.752561
4  11.480346 -0.000390 -0.000733  1.207138 -0.388219 0.578435
5  3.744892 -0.433457 -1.136575  -0.221988 -0.051330 -0.964562
6  1.312590 0.000012 0.000007  -0.031646 -0.046695 -0.610232
7  0.729355 0.000055 0.000049  0.004320 -0.001407 -0.920970
8  3.980739 0.052499 -0.428396  -0.154751 -0.130285 -0.799776
9  1.539111 0.000083 0.000005  -0.030146 -0.076373 -0.612659
10  1.196333 0.000143 0.000028  0.007317 0.002217 -0.924592
11  3.912077 -0.044546 0.433108  -0.242672 -0.157842 -0.507142
12  1.719573 -0.000027 0.000016  0.007723 0.016176 -0.772135
13  1.209179 0.000090 0.000013  -0.002843 0.002488 -0.484836
14  4.008699 -0.101633 1.212573  0.086550 -0.188796 -0.211778
15  1.719448 -0.000012 0.000023  0.024841 -0.003428 -0.499801
16  1.099674 0.000048 0.000005  0.000998 0.000748 -0.599601
17  0.552175 -0.562120 0.881356  -0.892852 -0.561553 -0.871864
18  1.789819 -0.000003 -0.000018  -0.006409 0.002951 0.011930
19  1.207015 -0.000013 -0.000044  0.009997 -0.001206 0.658006
20  5.740637 0.000410 -0.000703  -0.113450 0.000003 0.000071
21  11.481076 0.000136 -0.000805  -0.050159 -0.073076 0.087781
22  6.027524 -0.000329 0.000203  1.984106 -0.614679 1.770635
23  0.000003 11.692100 -0.000007  -1.177861 -0.621414 -0.896118
24  0.000003 0.000009 -0.000001  0.871839 -0.000031 1.570739
25  -0.000000 -0.000012 -0.000000  0.868957 0.000002 1.570712
26  -2.472767 -7.601693 2.073868  1.473120 1.855075 -0.198639
27  6.027504 -0.000258 -0.000234  1.441276 0.340145 -0.438655
28  11.691991 0.000244 0.000857  0.245670 0.000087 -2.034349
29  11.480291 -0.000232 0.000908  0.139800 0.265586 0.456223
30  3.452862 -0.227595 1.051754  0.793579 -0.056389 -2.032878
31  1.312558 0.000025 0.000000  -0.023242 -0.032433 -0.297509
32  0.729345 0.000065 -0.000027  0.003283 -0.007876 -0.728525
33  3.942046 0.050108 0.430997  0.526040 -0.088921 -1.851546
34  1.539096 0.000011 -0.000000  -0.019101 -0.038591 -0.518785
35  1.196300 0.000076 -0.000004  0.003098 -0.002033 -0.962439
36  3.883411 -0.050503 -0.431087  0.243209 -0.300101 -1.300904
37  1.719564 -0.000079 -0.000003  -0.026008 -0.004622 -1.369665
38  1.209198 0.000035 0.000011  0.001336 -0.002658 -0.386737
39  3.806437 -0.112148 -1.295330  -0.394742 0.151493 -0.171919
40  1.719412 -0.000099 -0.000034  0.087366 -0.009572 -0.381532
41  1.099673 0.000026 0.000007  -0.034823 0.011748 0.266223
42  1.247401 -0.127619 -1.568920  0.748170 -0.027638 -1.018690
43  1.789779 -0.000008 -0.000042  0.032980 0.002875 -0.077368
44  1.206996 -0.000006 0.000006  -0.020242 -0.153428 1.290064
45  5.740571 0.000055 0.000725  0.352432 -0.000014 0.000021
46  11.481002 -0.000010 0.000931  0.318231 0.103921 0.014232
47  6.027514 -0.000272 -0.000237  -0.483558 -0.770571 -1.658856
48  -0.000000 11.691975 -0.000005  -1.346216 0.794468 0.968724
49  0.000004 -0.000002 0.000000  2.518198 -0.000041 1.570856
50  -0.000007 -0.000015 0.000005  2.272644 -0.000030 1.570865
51  -4.603413 -3.686724 -6.473719  -2.072451 -0.142838 -1.332265
52  -0.000000 0.000000 0.000000  0.008153 -0.000259 0.000009
53  -0.000000 -0.000001 0.000000  1.565115 0.043565 -0.106862
54  1.952082 -9.131076 -5.926168  0.369549 -0.431449 -1.793418
55  0.000000 0.000000 -0.000000  0.000000 -0.000000 -0.000002
56  0.000030 0.000029 0.000001  -1.571901 -0.044449 -0.106509
57  13.501016 -7.610128 -15.823256  1.570796 -0.000000 0.000000
58  -19.213562 7.451548 -15.500427  1.570796 -0.000000 0.000000
59  0.388497 5.095195 -3.388282  1.570796 -0.000000 0.000000
60  -0.004311 0.001230 -0.000371  0.006898 -0.005534 -0.284229
61  2.073871 7.920389 -1.080626  1.570796 -0.000000 0.000000
62  0.000000 0.000000 0.000000  -0.078727 -3.136056 0.284226
63  0.000000 0.000000 0.000000  1.568629 -0.005544 0.000231
64  -4.646791 -9.189543 -2.593029  1.133175 -1.031092 0.520408
65  -0.213908 -1.691285 -0.436930  -0.000000 -0.000000 0.000000
66  -0.213911 0.172055 24.732452  -0.000000 -0.000000 0.000000
67  -0.261577 -0.679982 0.167701  -0.000000 -0.000000 0.000000
68  -0.104048 -4.495923 7.879276  -0.000000 -0.000000 0.000000
69  -0.195264 4.332631 -6.347188  -0.000000 -0.000000 0.000000
70  -0.213908 -0.931879 4.707910  -0.000000 -0.000000 0.000000
71  -0.213908 -0.146791 0.435632  -1.483530 -0.000000 0.000000
72  -4.583270 7.433416 -13.666655  1.570796 -0.000000 0.000000
time 3
0  0.000006 0.000000 0.000000  -1.570800 -1.391899 -1.570792
1  -4.664013 -4.334939 1.352186  -1.544956 -1.855077 -0.198630
2  6.027517 -0.000324 0.000197  -1.219777 -0.596798 -0.730197
3  11.692106 0.000645 -0.000740  -0.310824 -0.000050 -1.900759
4  11.479011 -0.000921 -0.001064  1.272542 -0.328835 0.192202
5  3.733904 -0.438206 -1.135469  -0.252511 -0.094451 -1.185069
6  1.312589 0.000012 0.000008  -0.014270 -0.025244 -0.774135
7  0.729355 0.000054 0.000049  0.002315 -0.001072 -0.887331
8  3.961960 0.049470 -0.429912  -0.159286 -0.159357 -1.086703
9  1.539110 0.000084 0.000005  -0.012725 -0.047943 -0.695851
10  1.196333 0.000146 0.000029  0.004589 0.001496 -0.979938
11  3.898176 -0.045871 0.432267  -0.092814 -0.179818 -0.853825
12  1.719573 -0.000026 0.000017  0.002359 0.010786 -0.842312
13  1.209180 0.000092 0.000013  -0.002204 0.002539 -0.609393
14  3.936186 -0.119559 1.270878  0.270376 -0.171769 -0.389143
15  1.719448 -0.000011 0.000022  0.026147 -0.037728 -0.494554
16  1.099676 0.000048 0.000005  0.005833 -0.000194 -0.548185
17  0.592696 -0.590767 0.865964  -0.890626 -0.584878 -0.960979
18  1.789819 -0.000004 -0.000019  -0.004198 0.010275 0.097004
19  1.207016 -0.000012 -0.000043  0.020539 -0.000226 0.635550
20  5.740637 0.000409 -0.000703  -0.077405 0.000003 0.000071
21  11.480812 0.000027 -0.000871  -0.049427 -0.050199 0.016346
22  6.027524 -0.000330 0.000203  2.200557 -0.801932 1.619009
23  0.000000 11.692099 -0.000008  -1.265384 -0.711279 -0.937721
24  0.000003 0.000010 -0.000002  0.558285 -0.000031 1.570739
25  -0.000001 -0.000011 -0.000001  0.868957 0.000002 1.570712
26  -2.472767 -7.601693 2.073868  1.473120 1.855075 -0.198639
27  6.027504 -0.000258 -0.000234  1.448472 0.325766 -0.434849
28  11.691992 0.000243 0.000857  0.245670 0.000087 -2.030888
29  11.480326 -0.000210 0.000902  0.072766 0.251479 0.451465
30  3.452862 -0.227595 1.051754  0.793579 -0.056389 -2.032878
31  1.312558 0.000026 -0.000000  -0.023242 -0.032433 -0.297509
32  0.729345 0.000065 -0.000027  0.003283 -0.007876 -0.728525
33  3.942046 0.050109 0.430997  0.526040 -0.088921 -1.851546
34  1.539097 0.000010 -0.000001  -0.019101 -0.038591 -0.518785
35  1.196299 0.000076 -0.000004  0.003098 -0.002033 -0.962439
36  3.883412 -0.050502 -0.431087  0.243209 -0.300101 -1.300904
37  1.719564 -0.000078 -0.000003  -0.026008 -0.004622 -1.369665
38  1.209197 0.000035 0.000010  0.001336 -0.002658 -0.386737
39  3.806436 -0.112148 -1.295329  -0.394742 0.151493 -0.171919
40  1.719412 -0.000099 -0.000034  0.087366 -0.009572 -0.381532
41  1.099673 0.000026 0.000007  -0.034822 0.011748 0.266223
42  1.247401 -0.127619 -1.568920  0.748170 -0.027639 -1.018690
43  1.789780 -0.000009 -0.000043  0.032980 0.002875 -0.077368
44  1.206997 -0.000007 0.000006  -0.020242 -0.153428 1.290064
45  5.740573 0.000055 0.000723  0.339150 -0.000014 0.000021
46  11.481010 -0.000006 0.000929  0.306938 0.098033 0.018376
47  6.027514 -0.000272 -0.000237  -0.461517 -0.768982 -1.672743
48  -0.000001 11.691974 -0.000005  -1.344080 0.792290 0.968011
49  0.000004 -0.000001 0.000000  2.518198 -0.000041 1.570856
50  -0.000007 -0.000016 0.000005  2.272644 -0.000030 1.570865
51  -4.807382 -3.682755 -6.543185  -2.141982 -0.131117 -1.335564
52  0.000000 -0.000000 0.000000  0.008153 -0.000259 0.000009
53  0.000000 -0.000001 0.000000  1.565115 0.043565 -0.106862
54  4.328857 -7.817779 -8.279649  0.068913 -0.468418 -2.037638
55  0.000001 -0.000000 -0.000001  0.000000 -0.000000 -0.000002
56  0.000030 0.000029 0.000000  -1.571901 -0.044449 -0.106509
57  14.021406 -8.775744 -18.829460  1.570796 -0.000000 0.000000
58  -19.213562 7.451548 -15.500427  1.570796 -0.000000 0.000000
59  1.356499 5.095319 -3.819431  1.570796 -0.000000 0.000000
60  -0.004311 0.001230 -0.000371  0.006898 -0.005534 -0.284229
61  2.073871 7.920389 -1.080626  1.570796 -0.000000 0.000000
62  0.000000 0.000000 0.000000  -0.078727 -3.136056 0.284226
63  0.000000 0.000000 0.000000  1.566807 -0.005989 0.000426
64  -4.649672 -9.167714 -2.640236  1.186224 -0.967369 0.462967
65  -0.213908 -1.691285 -0.436933  0.000000 -0.000000 -0.000000
66  -0.213911 0.172055 24.732450  0.000000 -0.000000 -0.000000
67  -0.261577 -0.679982 0.167700  0.000000 -0.000000 -0.000000
68  -0.104048 -4.495924 7.879273  0.000000 -0.000000 -0.000000
69  -0.195265 4.332630 -6.347186  0.000000 -0.000000 -0.000000
70  -0.213909 -0.931879 4.707910  0.000000 -0.000000 -0.000000
71  -0.213909 -0.146791 0.435632  -1.483530 -0.000000 -0.000000
72  -4.583270 7.433416 -13.666655  1.570796 -0.000000 0.000000
time 4
0  0.000006 0.000000 0.000000  -1.570800 -1.391899 -1.570792
1  -4.994458 -4.275283 2.106086  -1.544956 -1.855077 -0.198630
2  6.027515 -0.000325 0.000199  -1.235687 -0.359265 -0.703186
3  11.692104 0.000644 -0.000740  -0.569695 -0.000052 -1.921307
4  11.478822 -0.000695 -0.001315  1.269483 -0.139018 -0.092228
5  3.725347 -0.441904 -1.134606  -0.275332 -0.126952 -1.356647
6  1.312589 0.000012 0.000008  -0.003223 -0.006845 -0.933244
7  0.729354 0.000053 0.000050  0.000695 -0.000553 -0.861139
8  3.947336 0.047111 -0.431093  -0.161194 -0.176549 -1.308037
9  1.539110 0.000083 0.000004  -0.001522 -0.019684 -0.783009
10  1.196333 0.000144 0.000029  0.001939 0.000662 -1.023016
11  3.887348 -0.046902 0.431614  0.021262 -0.161907 -1.117612
12  1.719573 -0.000027 0.000014  -0.001646 0.006300 -0.915124
13  1.209179 0.000090 0.000012  -0.001785 0.002591 -0.732609
14  3.879712 -0.133517 1.316289  0.338184 -0.163079 -0.456628
15  1.719449 -0.000011 0.000023  0.028385 -0.078046 -0.493002
16  1.099675 0.000049 0.000006  0.010821 -0.000529 -0.462243
17  0.631706 -0.620580 0.862516  -0.873092 -0.577636 -1.024548
18  1.789819 -0.000003 -0.000018  -0.003192 0.013016 0.129469
19  1.207014 -0.000011 -0.000043  0.029242 0.001087 0.601831
20  5.740636 0.000412 -0.000703  -0.056501 0.000003 0.000071
21  11.480776 0.000073 -0.000921  -0.056179 -0.005865 -0.035547
22  6.027524 -0.000331 0.000202  -0.635724 -2.204358 -1.737508
23  0.000002 11.692098 -0.000007  -1.277663 -0.723955 -0.942912
24  0.000002 0.000009 -0.000001  0.299414 -0.000031 1.570739
25  -0.000000 -0.000012 -0.000001  0.868957 0.000002 1.570712
26  -2.472767 -7.601693 2.073868  1.473120 1.855075 -0.198639
27  6.027504 -0.000258 -0.000234  1.457195 0.313660 -0.431087
28  11.691993 0.000244 0.000857  0.245670 0.000086 -2.031087
29  11.480325 -0.000211 0.000902  0.018207 0.236706 0.453220
30  3.452861 -0.227596 1.051754  0.793579 -0.056389 -2.032878
31  1.312559 0.000026 -0.000000  -0.023242 -0.032433 -0.297509
32  0.729344 0.000066 -0.000027  0.003283 -0.007876 -0.728525
33  3.942046 0.050108 0.430996  0.526040 -0.088921 -1.851546
34  1.539097 0.000011 0.000000  -0.019101 -0.038591 -0.518785
35  1.196300 0.000076 -0.000004  0.003098 -0.002033 -0.962439
36  3.883411 -0.050503 -0.431088  0.243209 -0.300101 -1.300904
37  1.719563 -0.000078 -0.000003  -0.026008 -0.004622 -1.369665
38  1.209196 0.000036 0.000012  0.001336 -0.002658 -0.386737
39  3.806437 -0.112149 -1.295330  -0.394742 0.151493 -0.171919
40  1.719411 -0.000100 -0.000035  0.087366 -0.009572 -0.381532
41  1.099673 0.000025 0.000007  -0.034822 0.011748 0.266223
42  1.247401 -0.127619 -1.568921  0.748170 -0.027639 -1.018690
43  1.789780 -0.000009 -0.000043  0.032980 0.002875 -0.077368
44  1.206997 -0.000006 0.000006  -0.020242 -0.153428 1.290064
45  5.740573 0.000054 0.000724  0.328878 -0.000014 0.000021
46  11.481010 -0.000007 0.000930  0.297705 0.093383 0.023010
47  6.027514 -0.000272 -0.000237  -0.441914 -0.764996 -1.685327
48  -0.000000 11.691975 -0.000006  -1.344204 0.792416 0.968052
49  0.000003 0.000000 0.000002  2.518198 -0.000041 1.570856
50  -0.000007 -0.000015 0.000005  2.272644 -0.000030 1.570865
51  -4.981356 -3.657808 -6.558662  -2.200033 -0.118976 -1.338697
52  0.000000 -0.000001 -0.000000  0.008153 -0.000259 0.000009
53  -0.000000 -0.000001 -0.000001  1.565115 0.043565 -0.106862
54  6.868118 -7.159554 -10.927433  -0.215805 -0.470586 -2.144996
55  -0.000001 0.000001 -0.000001  0.000000 -0.000000 -0.000002
56  0.000029 0.000030 0.000001  -1.571902 -0.044449 -0.106509
57  14.546428 -9.683551 -21.170753  1.570796 -0.000000 0.000000
58  -19.213562 7.451548 -15.500427  1.570796 -0.000000 0.000000
59  2.110399 5.095417 -4.155219  1.570796 -0.000000 0.000000
60  -0.004311 0.001230 -0.000371  0.006898 -0.005534 -0.284229
61  2.073871 7.920389 -1.080626  1.570796 -0.000000 0.000000
62  0.000000 0.000000 0.000000  -0.078727 -3.136056 0.284226
63  0.000000 0.000000 0.000000  1.565280 -0.006362 0.000590
64  -4.650980 -9.139336 -2.661694  1.226533 -0.913505 0.420017
65  -0.213908 -1.691285 -0.436931  0.000000 0.000000 0.000000
66  -0.213909 0.172054 24.732452  0.000000 0.000000 0.000000
67  -0.261577 -0.679982 0.167700  0.000000 0.000000 0.000000
68  -0.104048 -4.495924 7.879278  0.000000 0.000000 0.000000
69  -0.195264 4.332630 -6.347188  0.000000 0.000000 0.000000
70  -0.213908 -0.931880 4.707910  0.000000 0.000000 0.000000
71  -0.213908 -0.146791 0.435633  -1.483530 0.000000 0.000000
72  -4.583270 7.433416 -13.666655  1.570796 -0.000000 0.000000
time 5
0  0.000006 0.000000 0.000000  -1.570800 -1.391899 -1.570792
1  -5.111775 -4.254103 2.373740  -1.544956 -1.855077 -0.198630
2  6.027515 -0.000324 0.000197  -0.798518 -0.533382 -0.631346
3  11.692109 0.000645 -0.000740  -0.699685 -0.000033 -1.663686
4  11.479237 -0.000293 -0.001206  1.309088 -0.494725 -0.697319
5  3.722308 -0.443217 -1.134298  -0.293301 -0.131064 -1.419905
6  1.312590 0.000013 0.000008  -0.000047 0.000022 -1.047263
7  0.729355 0.000054 0.000049  0.000002 0.000027 -0.851844
8  3.942142 0.046273 -0.431510  -0.168911 -0.173339 -1.385853
9  1.539110 0.000085 0.000005  -0.000018 0.000013 -0.855366
10  1.196331 0.000145 0.000029  -0.000001 0.000022 -1.038296
11  3.883504 -0.047269 0.431381  0.058635 -0.149075 -1.207053
12  1.719574 -0.000026 0.000014  -0.003138 0.004540 -0.974065
13  1.209178 0.000091 0.000011  -0.001762 0.002540 -0.823964
14  3.859661 -0.138475 1.332412  0.306372 -0.178731 -0.446094
15  1.719448 -0.000012 0.000021  0.082624 -0.118817 -0.913634
16  1.099674 0.000049 0.000006  0.017573 0.002789 -0.037901
17  0.659095 -0.644800 0.876805  -0.843343 -0.385698 -0.947550
18  1.789818 -0.000003 -0.000019  -0.004080 0.003637 -0.105695
19  1.207015 -0.000012 -0.000043  0.035698 0.003083 0.543203
20  5.740638 0.000411 -0.000703  -0.071162 0.000003 0.000071
21  11.480857 0.000150 -0.000898  -0.065667 -0.063778 -0.160518
22  6.027524 -0.000329 0.000203  -1.408728 -2.111951 -0.819847
23  0.000002 11.692100 -0.000006  -1.125776 -0.569008 -0.867936
24  0.000003 0.000010 -0.000002  0.169420 -0.000031 1.570739
25  -0.000001 -0.000012 -0.000000  0.868957 0.000002 1.570712
26  -2.472767 -7.601693 2.073868  1.473120 1.855075 -0.198639
27  6.027504 -0.000258 -0.000235  1.463655 0.307981 -0.428777
28  11.691993 0.000244 0.000858  0.245670 0.000087 -2.035969
29  11.480273 -0.000244 0.000908  -0.002327 0.226289 0.462456
30  3.452862 -0.227596 1.051754  0.793579 -0.056389 -2.032878
31  1.312557 0.000026 0.000000  -0.023242 -0.032433 -0.297509
32  0.729345 0.000065 -0.000027  0.003283 -0.007876 -0.728525
33  3.942046 0.050108 0.430997  0.526040 -0.088921 -1.851546
34  1.539097 0.000010 0.000000  -0.019101 -0.038591 -0.518785
35  1.196300 0.000076 -0.000004  0.003098 -0.002033 -0.962439
36  3.883412 -0.050502 -0.431087  0.243209 -0.300101 -1.300904
37  1.719563 -0.000078 -0.000003  -0.026008 -0.004622 -1.369665
38  1.209197 0.000035 0.000012  0.001336 -0.002658 -0.386737
39  3.806436 -0.112148 -1.295329  -0.394742 0.151493 -0.171919
40  1.719412 -0.000098 -0.000034  0.087366 -0.009572 -0.381532
41  1.099674 0.000026 0.000007  -0.034823 0.011748 0.266223
42  1.247401 -0.127619 -1.568920  0.748170 -0.027639 -1.018690
43  1.789779 -0.000010 -0.000042  0.032980 0.002875 -0.077368
44  1.206997 -0.000006 0.000005  -0.020242 -0.153428 1.290064
45  5.740573 0.000055 0.000724  0.325817 -0.000014 0.000021
46  11.480999 -0.000013 0.000932  0.294268 0.091863 0.026872
47  6.027514 -0.000272 -0.000237  -0.431823 -0.760887 -1.691965
48  -0.000000 11.691974 -0.000005  -1.347216 0.795488 0.969055
49  0.000003 -0.000001 -0.000001  2.518198 -0.000041 1.570856
50  -0.000007 -0.000015 0.000005  2.272644 -0.000030 1.570865
51  -5.052695 -3.612941 -6.515343  -2.223999 -0.109409 -1.340141
52  0.000000 -0.000000 0.000000  0.008153 -0.000259 0.000009
53  0.000000 -0.000001 0.000000  1.565115 0.043565 -0.106862
54  4.784870 -7.320685 -14.841635  -0.489994 -0.590749 -2.019389
55  0.000000 0.000000 0.000000  0.000000 -0.000000 -0.000002
56  0.000030 0.000030 0.000002  -1.571902 -0.044449 -0.106509
57  14.950396 -10.005847 -22.001976  1.570796 -0.000000 0.000000
58  -19.213562 7.451548 -15.500427  1.570796 -0.000000 0.000000
59  2.378054 5.095451 -4.274432  1.570796 -0.000000 0.000000
60  -0.004311 0.001230 -0.000371  0.006898 -0.005534 -0.284229
61  2.073871 7.920389 -1.080626  1.570796 -0.000000 0.000000
62  0.000000 0.000000 0.000000  -0.078727 -3.136056 0.284226
63  0.000000 0.000000 0.000000  1.564639 -0.006518 0.000659
64  -4.646754 -9.110958 -2.648862  1.248532 -0.891763 0.398573
65  -0.213909 -1.691285 -0.436931  -0.000000 0.000000 -0.000000
66  -0.213909 0.172054 24.732452  -0.000000 0.000000 -0.000000
67  -0.261577 -0.679982 0.167701  -0.000000 0.000000 -0.000000
68  -0.104048 -4.495924 7.879277  -0.000000 0.000000 -0.000000
69  -0.195263 4.332631 -6.347187  -0.000000 0.000000 -0.000000
70  -0.213909 -0.931879 4.707911  -0.000000 0.000000 -0.000000
71  -0.213908 -0.146791 0.435632  -1.483530 0.000000 -0.000000
72  2.369153 -7.858796 -9.961515  1.018596 -0.897385 0.215106
time 6
0  0.000006 0.000000 0.000000  -1.570800 -1.391899 -1.570792
1  -5.091489 -4.257766 2.327457  -1.544956 -1.855077 -0.198630
2  6.027517 -0.000324 0.000196  -0.948294 -0.606119 -0.750897
3  11.692109 0.000646 -0.000740  -0.754726 -0.000023 -1.504793
4  11.480428 0.000277 -0.000744  1.294418 -0.184613 -0.571223
5  3.722836 -0.442992 -1.134351  -0.309989 -0.114025 -1.410092
6  1.312589 0.000012 0.000009  0.000062 -0.001020 -1.134397
7  0.729355 0.000054 0.000049  0.000013 0.000524 -0.852505
8  3.943042 0.046416 -0.431438  -0.182664 -0.151025 -1.358506
9  1.539111 0.000084 0.000005  -0.003769 0.014271 -0.919076
10  1.196333 0.000145 0.000028  -0.001575 -0.000373 -1.035263
11  3.884171 -0.047208 0.431423  0.051533 -0.139192 -1.177877
12  1.719572 -0.000027 0.000016  -0.004222 0.010231 -1.029068
13  1.209180 0.000090 0.000011  -0.002649 0.002126 -0.897942
14  3.859664 -0.138477 1.332410  0.306372 -0.178731 -0.446094
15  1.719449 -0.000012 0.000023  0.082624 -0.118817 -0.913634
16  1.099675 0.000049 0.000005  0.017574 0.002789 -0.037901
17  0.692403 -0.616988 0.953151  -0.754933 -0.319000 -0.970078
18  1.789820 -0.000003 -0.000018  -0.003060 0.000027 -0.125848
19  1.207016 -0.000012 -0.000043  0.034411 0.002329 0.564880
20  5.740637 0.000410 -0.000703  -0.054370 0.000003 0.000071
21  11.481098 0.000264 -0.000808  -0.053912 -0.004089 -0.131435
22  6.027524 -0.000329 0.000203  -1.232333 -2.219149 -1.166785
23  0.000001 11.692098 -0.000006  -1.032307 -0.478617 -0.812054
24  0.000003 0.000009 -0.000000  0.114374 -0.000030 1.570739
25  -0.000001 -0.000012 -0.000002  0.868957 0.000002 1.570712
26  -2.472767 -7.601693 2.073868  1.473120 1.855075 -0.198639
27  6.027504 -0.000258 -0.000235  1.466364 0.308449 -0.428118
28  11.691992 0.000244 0.000856  0.245670 0.000087 -2.043191
29  11.480202 -0.000290 0.000922  0.001427 0.224130 0.478345
30  3.452861 -0.227595 1.051754  0.793579 -0.056389 -2.032878
31  1.312557 0.000025 0.000000  -0.023242 -0.032433 -0.297509
32  0.729345 0.000066 -0.000027  0.003283 -0.007876 -0.728525
33  3.942047 0.050109 0.430997  0.526040 -0.088921 -1.851546
34  1.539097 0.000009 -0.000000  -0.019101 -0.038591 -0.518785
35  1.196299 0.000076 -0.000004  0.003098 -0.002033 -0.962439
36  3.883411 -0.050501 -0.431087  0.243209 -0.300101 -1.300904
37  1.719563 -0.000079 -0.000003  -0.026008 -0.004622 -1.369665
38  1.209196 0.000035 0.000012  0.001336 -0.002658 -0.386737
39  3.806436 -0.112147 -1.295330  -0.394742 0.151493 -0.171919
40  1.719411 -0.000100 -0.000035  0.087366 -0.009572 -0.381532
41  1.099673 0.000026 0.000006  -0.034823 0.011748 0.266223
42  1.247401 -0.127618 -1.568920  0.748170 -0.027639 -1.018690
43  1.789779 -0.000010 -0.000043  0.032980 0.002875 -0.077368
44  1.206996 -0.000007 0.000005  -0.020242 -0.153428 1.290064
45  5.740571 0.000057 0.000723  0.327704 -0.000014 0.000021
46  11.480985 -0.000021 0.000935  0.294574 0.093632 0.029810
47  6.027514 -0.000272 -0.000237  -0.431362 -0.758284 -1.692446
48  -0.000000 11.691975 -0.000005  -1.351682 0.800036 0.970521
49  0.000004 -0.000001 -0.000000  2.518198 -0.000041 1.570856
50  -0.000007 -0.000015 0.000005  2.272644 -0.000030 1.570865
51  -5.027038 -3.563610 -6.443728  -2.223172 -0.102616 -1.343572
52  -0.000000 -0.000001 -0.000000  0.008153 -0.000259 0.000009
53  0.000000 0.000000 0.000000  1.565115 0.043565 -0.106862
54  4.778767 -9.614770 -13.666963  -0.384509 -0.613249 -2.152689
55  -0.000001 0.000001 0.000000  0.000000 -0.000000 -0.000002
56  0.000030 0.000030 0.000001  -1.571901 -0.044449 -0.106509
57  15.300691 -9.656308 -21.551733  1.570796 -0.000000 0.000000
58  -19.213562 7.451548 -15.500427  1.570796 -0.000000 0.000000
59  2.331771 5.095445 -4.253818  1.570796 -0.000000 0.000000
60  -0.004311 0.001230 -0.000371  0.006898 -0.005534 -0.284229
61  2.073871 7.920389 -1.080626  1.570796 -0.000000 0.000000
62  0.000000 0.000000 0.000000  -0.078727 -3.136056 0.284226
63  0.000000 0.000000 0.000000  1.564782 -0.006005 0.000454
64  -4.636676 -9.089129 -2.615034  1.259001 -0.893683 0.387076
65  -0.213908 -1.691285 -0.436933  0.000000 -0.000000 -0.000000
66  -0.213909 0.172055 24.732449  0.000000 -0.000000 -0.000000
67  -0.261577 -0.679982 0.167700  0.000000 -0.000000 -0.000000
68  -0.104048 -4.495923 7.879275  0.000000 -0.000000 -0.000000
69  -0.195264 4.332631 -6.347189  0.000000 -0.000000 -0.000000
70  -0.213908 -0.931879 4.707910  0.000000 -0.000000 -0.000000
71  -0.213907 -0.146792 0.435632  -1.483530 -0.000000 -0.000000
72  2.030767 -9.662721 -8.935471  0.893839 -0.946259 0.241054
time 7
0  0.000006 0.000000 0.000000  -1.570800 -1.391899 -1.570792
1  -5.030248 -4.268822 2.187737  -1.544956 -1.855077 -0.198630
2  6.027518 -0.000325 0.000196  -0.986853 -0.693024 -0.782611
3  11.692107 0.000643 -0.000741  -0.792417 -0.000026 -1.536143
4  11.480171 0.000195 -0.000844  1.403557 -0.138009 -0.414487
5  3.724421 -0.442305 -1.134511  -0.325205 -0.086542 -1.369394
6  1.312590 0.000012 0.000009  0.000554 -0.004019 -1.219373
7  0.729354 0.000053 0.000051  0.000380 0.000898 -0.858090
8  3.945752 0.046856 -0.431220  -0.197932 -0.111343 -1.272487
9  1.539112 0.000083 0.000004  -0.008730 0.028198 -0.985468
10  1.196332 0.000145 0.000029  -0.003213 -0.000587 -1.025319
11  3.886177 -0.047014 0.431543  0.032330 -0.109547 -1.087261
12  1.719572 -0.000027 0.000015  -0.007556 0.027376 -1.092594
13  1.209179 0.000091 0.000011  -0.004833 0.001059 -0.974075
14  3.859664 -0.138475 1.332411  0.306372 -0.178731 -0.446094
15  1.719449 -0.000013 0.000022  0.082624 -0.118817 -0.913634
16  1.099674 0.000049 0.000005  0.017573 0.002789 -0.037901
17  0.744380 -0.508843 1.112590  -0.660185 -0.252973 -1.001407
18  1.789818 -0.000003 -0.000018  -0.001879 -0.000474 -0.135352
19  1.207017 -0.000012 -0.000044  0.030538 0.000434 0.621632
20  5.740637 0.000409 -0.000701  -0.030430 0.000003 0.000071
21  11.481046 0.000248 -0.000826  -0.030312 -0.001342 -0.096826
22  6.027524 -0.000331 0.000203  1.897296 -0.830599 1.928951
23  0.000000 11.692100 -0.000006  -1.050833 -0.496087 -0.823619
24  0.000003 0.000009 -0.000001  0.076682 -0.000031 1.570739
25  0.000000 -0.000012 -0.000000  0.868957 0.000002 1.570712
26  -2.472767 -7.601693 2.073868  1.473120 1.855075 -0.198639
27  6.027504 -0.000258 -0.000234  1.467715 0.312271 -0.428148
28  11.691992 0.000242 0.000857  0.245670 0.000088 -2.049138
29  11.480140 -0.000334 0.000931  0.006212 0.228302 0.497267
30  3.452862 -0.227595 1.051754  0.793579 -0.056389 -2.032878
31  1.312559 0.000025 -0.000001  -0.023242 -0.032433 -0.297509
32  0.729345 0.000065 -0.000028  0.003283 -0.007876 -0.728525
33  3.942047 0.050108 0.430997  0.526040 -0.088921 -1.851546
34  1.539096 0.000011 0.000000  -0.019101 -0.038591 -0.518785
35  1.196299 0.000076 -0.000004  0.003098 -0.002033 -0.962439
36  3.883412 -0.050503 -0.431087  0.243209 -0.300101 -1.300904
37  1.719563 -0.000078 -0.000004  -0.026008 -0.004622 -1.369665
38  1.209197 0.000036 0.000011  0.001336 -0.002658 -0.386737
39  3.806436 -0.112148 -1.295330  -0.394742 0.151493 -0.171919
40  1.719412 -0.000099 -0.000035  0.087366 -0.009572 -0.381532
41  1.099673 0.000024 0.000007  -0.034822 0.011748 0.266223
42  1.247402 -0.127619 -1.568921  0.748170 -0.027639 -1.018690
43  1.789780 -0.000009 -0.000043  0.032980 0.002875 -0.077368
44  1.206997 -0.000006 0.000005  -0.020242 -0.153428 1.290064
45  5.740571 0.000055 0.000723  0.329691 -0.000014 0.000021
46  11.480972 -0.000033 0.000936  0.294473 0.096869 0.032390
47  6.027514 -0.000272 -0.000237  -0.435837 -0.755901 -1.689815
48  -0.000001 11.691974 -0.000005  -1.355368 0.803785 0.971712
49  0.000004 -0.000001 0.000001  2.518198 -0.000041 1.570856
50  -0.000007 -0.000016 0.000005  2.272644 -0.000030 1.570865
51  -4.968408 -3.532276 -6.367577  -2.221096 -0.097775 -1.351546
52  0.000000 -0.000001 -0.000000  0.008153 -0.000259 0.000009
53  0.000000 -0.000001 -0.000000  1.565115 0.043565 -0.106862
54  3.863163 -9.965128 -11.802044  -0.245502 -0.584572 -2.248090
55  0.000001 0.000000 -0.000000  0.000000 -0.000000 -0.000002
56  0.000031 0.000029 0.000001  -1.571902 -0.044449 -0.106509
57  15.674533 -8.671765 -20.223053  1.570796 -0.000000 0.000000
58  -19.213562 7.451548 -15.500427  1.570796 -0.000000 0.000000
59  2.192051 5.095427 -4.191586  1.570796 -0.000000 0.000000
60  -0.004311 0.001230 -0.000371  0.006898 -0.005534 -0.284229
61  2.073871 7.920389 -1.080626  1.570796 -0.000000 0.000000
62  0.000000 0.000000 0.000000  -0.078727 -3.136056 0.284226
63  0.000000 0.000000 0.000000  1.565187 -0.004654 0.000003
64  -4.624648 -9.080399 -2.567207  1.266129 -0.896481 0.373747
65  -0.213908 -1.691284 -0.436932  -0.000000 -0.000000 -0.000000
66  -0.213909 0.172055 24.732452  -0.000000 -0.000000 -0.000000
67  -0.261576 -0.679982 0.167699  -0.000000 -0.000000 -0.000000
68  -0.104048 -4.495923 7.879278  -0.000000 -0.000000 -0.000000
69  -0.195264 4.332630 -6.347188  -0.000000 -0.000000 -0.000000
70  -0.213908 -0.931879 4.707910  -0.000000 -0.000000 -0.000000
71  -0.213907 -0.146791 0.435632  -1.483530 -0.000000 -0.000000
72  0.615404 -9.759104 -7.403134  0.758640 -1.038846 0.337503
time 8
0  0.000006 0.000000 0.000000  -1.570800 -1.391899 -1.570792
1  -4.929266 -4.287052 1.957350  -1.544956 -1.855077 -0.198630
2  6.027519 -0.000324 0.000196  -1.007281 -0.826017 -0.809422
3  11.692106 0.000643 -0.000740  -0.811845 -0.000024 -1.536957
4  11.480164 0.000209 -0.000841  1.473196 -0.165199 -0.250477
5  3.727037 -0.441175 -1.134776  -0.337017 -0.050279 -1.301436
6  1.312592 0.000011 0.000008  0.001512 -0.008288 -1.294099
7  0.729354 0.000053 0.000050  0.000956 0.001259 -0.875701
8  3.950222 0.047575 -0.430860  -0.209340 -0.058764 -1.138328
9  1.539111 0.000084 0.000005  -0.014329 0.040281 -1.052400
10  1.196332 0.000145 0.000030  -0.004732 -0.000608 -1.008100
11  3.889485 -0.046700 0.431742  0.009350 -0.064644 -0.941983
12  1.719574 -0.000026 0.000015  -0.013246 0.052892 -1.156710
13  1.209180 0.000091 0.000011  -0.007803 -0.000566 -1.044222
14  3.859663 -0.138476 1.332409  0.306372 -0.178731 -0.446094
15  1.719449 -0.000011 0.000022  0.082624 -0.118817 -0.913634
16  1.099675 0.000048 0.000006  0.017573 0.002789 -0.037901
17  0.789642 -0.393937 1.264331  -0.592269 -0.206693 -1.026547
18  1.789820 -0.000004 -0.000018  -0.000684 -0.001028 -0.139314
19  1.207015 -0.000013 -0.000044  0.025400 -0.001354 0.678391
20  5.740637 0.000410 -0.000702  -0.018844 0.000003 0.000071
21  11.481045 0.000251 -0.000827  -0.016469 -0.010057 -0.062678
22  6.027524 -0.000329 0.000204  1.841252 -0.702986 1.927012
23  0.000003 11.692097 -0.000006  -1.051315 -0.496542 -0.823915
24  0.000002 0.000009 -0.000002  0.057256 -0.000031 1.570739
25  0.000000 -0.000011 0.000000  0.868957 0.000002 1.570712
26  -2.472767 -7.601693 2.073868  1.473120 1.855075 -0.198639
27  6.027504 -0.000258 -0.000234  1.467874 0.318634 -0.428741
28  11.691991 0.000243 0.000857  0.245670 0.000088 -2.052360
29  11.480108 -0.000353 0.000937  0.012809 0.236408 0.513928
30  3.452861 -0.227596 1.051755  0.793579 -0.056389 -2.032878
31  1.312559 0.000026 -0.000001  -0.023242 -0.032433 -0.297509
32  0.729346 0.000065 -0.000028  0.003283 -0.007876 -0.728525
33  3.942046 0.050108 0.430997  0.526040 -0.088921 -1.851546
34  1.539096 0.000010 -0.000000  -0.019101 -0.038591 -0.518785
35  1.196300 0.000075 -0.000003  0.003098 -0.002033 -0.962439
36  3.883411 -0.050503 -0.431087  0.243209 -0.300101 -1.300904
37  1.719563 -0.000079 -0.000003  -0.026008 -0.004622 -1.369665
38  1.209197 0.000036 0.000011  0.001336 -0.002658 -0.386737
39  3.806436 -0.112149 -1.295329  -0.394742 0.151493 -0.171919
40  1.719413 -0.000099 -0.000035  0.087366 -0.009572 -0.381532
41  1.099673 0.000025 0.000007  -0.034823 0.011748 0.266223
42  1.247401 -0.127619 -1.568920  0.748170 -0.027639 -1.018690
43  1.789780 -0.000009 -0.000042  0.032980 0.002875 -0.077368
44  1.206996 -0.000007 0.000005  -0.020242 -0.153428 1.290064
45  5.740572 0.000056 0.000724  0.331730 -0.000014 0.000021
46  11.480966 -0.000035 0.000937  0.294456 0.100561 0.033951
47  6.027514 -0.000272 -0.000237  -0.444089 -0.753804 -1.684803
48  -0.000001 11.691973 -0.000006  -1.357369 0.805818 0.972350
49  0.000003 -0.000003 -0.000000  2.518198 -0.000041 1.570856
50  -0.000007 -0.000015 0.000005  2.272644 -0.000030 1.570865
51  -4.893603 -3.527647 -6.300206  -2.216467 -0.096228 -1.360798
52  0.000000 -0.000001 -0.000000  0.008153 -0.000259 0.000009
53  -0.000000 -0.000001 0.000000  1.565116 0.043565 -0.106862
54  2.671881 -10.337588 -9.610712  -0.127629 -0.540369 -2.299539
55  0.000001 -0.000001 0.000000  0.000000 -0.000000 -0.000002
56  0.000031 0.000029 0.000001  -1.571902 -0.044449 -0.106509
57  16.000813 -7.407618 -18.354664  1.570796 -0.000000 0.000000
58  -19.213562 7.451548 -15.500427  1.570796 -0.000000 0.000000
59  1.961664 5.095397 -4.088972  1.570796 -0.000000 0.000000
60  -0.004311 0.001230 -0.000371  0.006898 -0.005534 -0.284229
61  2.073871 7.920389 -1.080626  1.570796 -0.000000 0.000000
62  0.000000 0.000000 0.000000  -0.078727 -3.136056 0.284226
63  0.000000 0.000000 0.000000  1.565822 -0.002742 -0.000450
64  -4.614570 -9.087969 -2.512381  1.267447 -0.901271 0.363912
65  -0.213908 -1.691284 -0.436933  0.000000 -0.000000 -0.000000
66  -0.213909 0.172055 24.732447  0.000000 -0.000000 -0.000000
67  -0.261576 -0.679982 0.167699  0.000000 -0.000000 -0.000000
68  -0.104047 -4.495923 7.879273  0.000000 -0.000000 -0.000000
69  -0.195265 4.332630 -6.347189  0.000000 -0.000000 -0.000000
70  -0.213908 -0.931879 4.707909  0.000000 -0.000000 -0.000000
71  -0.213908 -0.146791 0.435632  -1.483530 -0.000000 -0.000000
72  -1.019943 -10.041552 -5.582858  0.610192 -1.122807 0.480132
time 9
0  0.000006 0.000000 0.000000  -1.570800 -1.391899 -1.570792
1  -4.792971 -4.311658 1.646397  -1.544956 -1.855077 -0.198630
2  6.027520 -0.000325 0.000194  -1.009059 -0.958069 -0.817084
3  11.692109 0.000641 -0.000739  -0.818088 -0.000021 -1.486130
4  11.480580 0.000393 -0.000655  1.470385 -0.196238 -0.170652
5  3.730564 -0.439649 -1.135130  -0.344273 -0.010737 -1.219150
6  1.312591 0.000012 0.000007  0.002671 -0.012525 -1.349609
7  0.729356 0.000054 0.000049  0.001469 0.001769 -0.911916
8  3.956252 0.048549 -0.430372  -0.213207 -0.005327 -0.985106
9  1.539111 0.000084 0.000005  -0.019555 0.048946 -1.116565
10  1.196333 0.000145 0.000029  -0.005908 -0.000488 -0.985209
11  3.893950 -0.046273 0.432012  -0.006691 -0.017998 -0.767379
12  1.719573 -0.000027 0.000015  -0.019687 0.080141 -1.209820
13  1.209180 0.000091 0.000012  -0.010676 -0.002301 -1.098350
14  3.859662 -0.138475 1.332411  0.306372 -0.178731 -0.446094
15  1.719449 -0.000012 0.000022  0.082624 -0.118817 -0.913634
16  1.099675 0.000049 0.000005  0.017573 0.002789 -0.037901
17  0.805994 -0.349049 1.321254  -0.570088 -0.191758 -1.035372
18  1.789820 -0.000002 -0.000018  0.000441 -0.004754 -0.145483
19  1.207015 -0.000011 -0.000044  0.021082 -0.002168 0.700073
20  5.740636 0.000411 -0.000703  -0.021208 0.000003 0.000071
21  11.481128 0.000289 -0.000790  -0.016857 -0.016909 -0.047041
22  6.027525 -0.000330 0.000204  1.780281 -0.580261 1.954531
23  0.000003 11.692101 -0.000006  -1.021248 -0.468308 -0.805048
24  0.000002 0.000008 -0.000001  0.051011 -0.000031 1.570739
25  -0.000001 -0.000012 -0.000000  0.868957 0.000002 1.570712
26  -2.472767 -7.601693 2.073868  1.473120 1.855075 -0.198639
27  6.027504 -0.000258 -0.000234  1.465009 0.326342 -0.430305
28  11.691991 0.000243 0.000857  0.245670 0.000088 -2.049678
29  11.480137 -0.000335 0.000933  0.019496 0.250671 0.516012
30  3.452861 -0.227596 1.051754  0.793579 -0.056389 -2.032878
31  1.312558 0.000026 -0.000000  -0.023242 -0.032433 -0.297509
32  0.729344 0.000065 -0.000028  0.003283 -0.007876 -0.728525
33  3.942046 0.050108 0.430997  0.526040 -0.088921 -1.851546
34  1.539097 0.000009 -0.000001  -0.019101 -0.038591 -0.518785
35  1.196299 0.000076 -0.000004  0.003098 -0.002033 -0.962439
36  3.883411 -0.050502 -0.431087  0.243209 -0.300101 -1.300904
37  1.719563 -0.000079 -0.000004  -0.026008 -0.004622 -1.369665
38  1.209197 0.000036 0.000012  0.001336 -0.002658 -0.386737
39  3.806436 -0.112148 -1.295330  -0.394742 0.151493 -0.171919
40  1.719412 -0.000101 -0.000035  0.087366 -0.009572 -0.381532
41  1.099673 0.000025 0.000007  -0.034823 0.011748 0.266224
42  1.247401 -0.127619 -1.568920  0.748170 -0.027639 -1.018690
43  1.789778 -0.000008 -0.000042  0.032980 0.002875 -0.077368
44  1.206996 -0.000007 0.000005  -0.020242 -0.153428 1.290064
45  5.740571 0.000055 0.000724  0.332595 -0.000014 0.000021
46  11.480971 -0.000031 0.000936  0.294488 0.103457 0.032094
47  6.027514 -0.000272 -0.000237  -0.455297 -0.753967 -1.677788
48  -0.000000 11.691975 -0.000006  -1.355703 0.804126 0.971819
49  0.000003 -0.000000 0.000001  2.518198 -0.000041 1.570856
50  -0.000006 -0.000015 0.000005  2.272644 -0.000030 1.570865
51  -4.817508 -3.568035 -6.284556  -2.208460 -0.104683 -1.368014
52  -0.000000 -0.000001 0.000000  0.008153 -0.000259 0.000009
53  -0.000000 -0.000001 -0.000000  1.565115 0.043565 -0.106862
54  1.593878 -10.811013 -7.909495  -0.065056 -0.522013 -2.321224
55  0.000000 0.000001 0.000001  0.000000 -0.000000 -0.000002
56  0.000030 0.000030 0.000002  -1.571901 -0.044449 -0.106509
57  16.207016 -6.423075 -16.583483  1.570796 -0.000000 0.000000
58  -19.213562 7.451548 -15.500427  1.570796 -0.000000 0.000000
59  1.650710 5.095357 -3.950473  1.570796 -0.000000 0.000000
60  -0.004311 0.001230 -0.000371  0.006898 -0.005534 -0.284229
61  2.073871 7.920389 -1.080626  1.570796 -0.000000 0.000000
62  0.000000 0.000000 0.000000  -0.078727 -3.136056 0.284226
63  0.000000 0.000000 0.000000  1.566657 -0.000549 -0.000658
64  -4.610343 -9.104624 -2.457556  1.251884 -0.907785 0.369733
65  -0.213908 -1.691284 -0.436932  0.000000 -0.000000 0.000000
66  -0.213908 0.172055 24.732445  0.000000 -0.000000 0.000000
67  -0.261576 -0.679982 0.167699  0.000000 -0.000000 0.000000
68  -0.104047 -4.495924 7.879273  0.000000 -0.000000 0.000000
69  -0.195263 4.332631 -6.347188  0.000000 -0.000000 0.000000
70  -0.213907 -0.931880 4.707909  0.000000 -0.000000 0.000000
71  -0.213907 -0.146791 0.435631  -1.483530 -0.000000 0.000000
72  -2.306203 -10.463479 -4.087272  0.499504 -1.156133 0.590734
time 10
0  0.000006 0.000000 0.000000  -1.570800 -1.391899 -1.570792
1  -4.629757 -4.341123 1.274031  -1.544956 -1.855077 -0.198630
2  6.027520 -0.000326 0.000193  -1.006009 -1.022042 -0.789266
3  11.692111 0.000643 -0.000741  -0.818808 -0.000019 -1.444631
4  11.479621 0.000062 -0.001006  1.418490 -0.274821 -0.183152
5  3.734792 -0.437822 -1.135557  -0.348065 0.025562 -1.138966
6  1.312590 0.000012 0.000007  0.003567 -0.015461 -1.381418
7  0.729356 0.000054 0.000050  0.001636 0.002543 -0.968638
8  3.963475 0.049713 -0.429790  -0.212250 0.036218 -0.846600
9  1.539111 0.000084 0.000005  -0.023470 0.053513 -1.175252
10  1.196331 0.000145 0.000029  -0.006601 -0.000322 -0.959670
11  3.899298 -0.045764 0.432335  -0.011950 0.013679 -0.595656
12  1.719573 -0.000026 0.000014  -0.024145 0.102304 -1.242895
13  1.209179 0.000091 0.000011  -0.012646 -0.003568 -1.130296
14  3.867489 -0.136541 1.326116  0.136480 -0.139521 -0.259979
15  1.719449 -0.000013 0.000021  0.107179 -0.170038 -1.028365
16  1.099675 0.000049 0.000006  0.021695 0.010955 -0.466829
17  0.793575 -0.357021 1.303459  -0.615726 -0.202083 -1.048190
18  1.789819 -0.000003 -0.000019  0.002080 -0.035717 -0.155657
19  1.207015 -0.000011 -0.000043  0.018267 -0.002402 0.699019
20  5.740636 0.000411 -0.000702  -0.036538 0.000003 0.000070
21  11.480934 0.000222 -0.000859  -0.027716 -0.032083 -0.051877
22  6.027525 -0.000330 0.000203  1.751914 -0.521005 1.999750
23  0.000003 11.692099 -0.000007  -0.996572 -0.445637 -0.789144
24  0.000004 0.000009 -0.000003  0.050289 -0.000030 1.570739
25  0.000001 -0.000012 0.000000  0.868957 0.000002 1.570712
26  -2.472767 -7.601693 2.073868  1.473120 1.855075 -0.198639
27  6.027504 -0.000258 -0.000234  1.459897 0.333483 -0.432494
28  11.691990 0.000243 0.000857  0.245670 0.000087 -2.041771
29  11.480216 -0.000281 0.000920  0.027220 0.267380 0.500458
30  3.452861 -0.227596 1.051754  0.793579 -0.056389 -2.032878
31  1.312559 0.000026 0.000000  -0.023242 -0.032433 -0.297509
32  0.729346 0.000066 -0.000027  0.003283 -0.007876 -0.728525
33  3.942046 0.050108 0.430997  0.526040 -0.088921 -1.851546
34  1.539096 0.000010 0.000000  -0.019101 -0.038591 -0.518785
35  1.196300 0.000075 -0.000004  0.003098 -0.002033 -0.962439
36  3.883412 -0.050503 -0.431087  0.243209 -0.300101 -1.300904
37  1.719563 -0.000079 -0.000003  -0.026008 -0.004622 -1.369665
38  1.209197 0.000035 0.000011  0.001336 -0.002658 -0.386737
39  3.806436 -0.112148 -1.295330  -0.394742 0.151493 -0.171919
40  1.719412 -0.000099 -0.000034  0.087366 -0.009572 -0.381532
41  1.099672 0.000024 0.000007  -0.034823 0.011748 0.266223
42  1.247402 -0.127619 -1.568920  0.748170 -0.027639 -1.018690
43  1.789779 -0.000009 -0.000042  0.032980 0.002875 -0.077368
44  1.206997 -0.000007 0.000005  -0.020242 -0.153428 1.290064
45  5.740572 0.000056 0.000725  0.332550 -0.000014 0.000021
46  11.480986 -0.000021 0.000934  0.295211 0.104615 0.026748
47  6.027514 -0.000272 -0.000237  -0.466721 -0.756244 -1.670491
48  -0.000000 11.691974 -0.000006  -1.350803 0.799142 0.970235
49  0.000004 -0.000001 -0.000000  2.518197 -0.000041 1.570856
50  -0.000007 -0.000015 0.000005  2.272644 -0.000030 1.570865
51  -4.758449 -3.643749 -6.323688  -2.195670 -0.122879 -1.369925
52  -0.000001 0.000001 0.000000  0.008153 -0.000259 0.000009
53  0.000000 -0.000001 -0.000000  1.565115 0.043565 -0.106862
54  0.938261 -11.109576 -7.274063  -0.103601 -0.534756 -2.260994
55  -0.000000 0.000001 0.000000  0.000000 -0.000000 -0.000002
56  0.000029 0.000030 0.000001  -1.571901 -0.044449 -0.106509
57  16.272089 -6.073536 -15.380364  1.570796 -0.000000 0.000000
58  -19.213562 7.451548 -15.500427  1.570796 -0.000000 0.000000
59  1.278344 5.095309 -3.784621  1.570796 -0.000000 0.000000
60  -0.004311 0.001230 -0.000371  0.006898 -0.005534 -0.284229
61  2.073871 7.920389 -1.080626  1.570796 -0.000000 0.000000
62  0.000000 0.000000 0.000000  -0.078727 -3.136056 0.284226
63  0.000000 0.000000 0.000000  1.567661 0.001645 -0.000531
64  -4.616115 -9.121279 -2.409729  1.218896 -0.917016 0.395369
65  -0.213908 -1.691284 -0.436932  0.000000 -0.000000 -0.000000
66  -0.213910 0.172055 24.732452  0.000000 -0.000000 -0.000000
67  -0.261576 -0.679982 0.167700  0.000000 -0.000000 -0.000000
68  -0.104047 -4.495923 7.879278  0.000000 -0.000000 -0.000000
69  -0.195264 4.332630 -6.347188  0.000000 -0.000000 -0.000000
70  -0.213908 -0.931879 4.707911  0.000000 -0.000000 -0.000000
71  -0.213908 -0.146791 0.435632  -1.483530 -0.000000 -0.000000
72  -2.841833 -10.966877 -3.320413  0.568989 -1.134935 0.568226
time 11
0  0.000006 0.000000 0.000000  -1.570800 -1.391899 -1.570792
1  -4.451869 -4.373238 0.868185  -1.544956 -1.855077 -0.198630
2  6.027520 -0.000327 0.000194  -1.024429 -1.021435 -0.727964
3  11.692106 0.000643 -0.000741  -0.773004 -0.000022 -1.471537
4  11.480710 0.000420 -0.000614  1.415341 -0.472761 -0.155612
5  3.739398 -0.435830 -1.136021  -0.350855 0.054864 -1.071944
6  1.312590 0.000012 0.000007  0.003887 -0.016470 -1.391067
7  0.729354 0.000054 0.000049  0.001299 0.003575 -1.042896
8  3.971349 0.050985 -0.429154  -0.212586 0.060419 -0.742904
9  1.539111 0.000085 0.000005  -0.025654 0.054380 -1.227599
10  1.196332 0.000146 0.000029  -0.006817 -0.000198 -0.934160
11  3.905125 -0.045208 0.432687  -0.010655 0.021204 -0.448111
12  1.719573 -0.000026 0.000014  -0.024657 0.115750 -1.253554
13  1.209178 0.000092 0.000012  -0.013346 -0.004025 -1.140199
14  3.890853 -0.130765 1.307330  -0.022338 -0.070708 -0.084145
15  1.719448 -0.000011 0.000022  0.135321 -0.219129 -1.145258
16  1.099676 0.000048 0.000006  0.022000 0.020137 -0.899825
17  0.759151 -0.379112 1.254135  -0.693559 -0.258716 -1.065309
18  1.789820 -0.000003 -0.000018  0.004463 -0.094106 -0.165312
19  1.207016 -0.000013 -0.000043  0.015682 -0.002347 0.689945
20  5.740638 0.000410 -0.000704  -0.049933 0.000003 0.000071
21  11.481153 0.000294 -0.000781  -0.028569 -0.072041 -0.048645
22  6.027524 -0.000330 0.000204  1.762514 -0.518158 2.040076
23  0.000002 11.692100 -0.000007  -1.012584 -0.460296 -0.799507
24  0.000003 0.000010 -0.000002  0.096093 -0.000031 1.570739
25  0.000000 -0.000012 0.000000  0.868957 0.000002 1.570712
26  -2.472767 -7.601693 2.073868  1.473120 1.855075 -0.198639
27  6.027504 -0.000258 -0.000234  1.456265 0.337519 -0.433977
28  11.691993 0.000243 0.000856  0.245670 0.000087 -2.034168
29  11.480292 -0.000230 0.000908  0.041177 0.275044 0.475882
30  3.452862 -0.227595 1.051754  0.793579 -0.056389 -2.032879
31  1.312559 0.000026 -0.000000  -0.023242 -0.032433 -0.297509
32  0.729345 0.000066 -0.000028  0.003283 -0.007876 -0.728525
33  3.942046 0.050109 0.430997  0.526040 -0.088921 -1.851546
34  1.539097 0.000009 0.000000  -0.019101 -0.038591 -0.518785
35  1.196299 0.000076 -0.000003  0.003098 -0.002033 -0.962439
36  3.883412 -0.050502 -0.431087  0.243209 -0.300101 -1.300904
37  1.719563 -0.000080 -0.000003  -0.026008 -0.004622 -1.369665
38  1.209198 0.000035 0.000012  0.001336 -0.002658 -0.386737
39  3.806436 -0.112148 -1.295329  -0.394742 0.151493 -0.171919
40  1.719413 -0.000099 -0.000035  0.087366 -0.009572 -0.381532
41  1.099673 0.000025 0.000007  -0.034822 0.011748 0.266223
42  1.247401 -0.127619 -1.568920  0.748170 -0.027639 -1.018690
43  1.789779 -0.000009 -0.000044  0.032980 0.002875 -0.077368
44  1.206996 -0.000006 0.000004  -0.020242 -0.153428 1.290064
45  5.740572 0.000057 0.000723  0.333839 -0.000014 0.000021
46  11.481002 -0.000010 0.000931  0.298210 0.103470 0.020766
47  6.027514 -0.000272 -0.000237  -0.473518 -0.758152 -1.666109
48  -0.000000 11.691975 -0.000005  -1.346104 0.794353 0.968686
49  0.000003 0.000000 -0.000000  2.518198 -0.000041 1.570856
50  -0.000007 -0.000015 0.000006  2.272644 -0.000030 1.570865
51  -4.736350 -3.709812 -6.371565  -2.175914 -0.141722 -1.362415
52  0.000000 -0.000001 -0.000000  0.008153 -0.000259 0.000009
53  0.000000 -0.000001 0.000000  1.565115 0.043565 -0.106862
54  0.642315 -10.923546 -7.142962  -0.118067 -0.527414 -2.078214
55  0.000001 0.000001 -0.000002  0.000000 -0.000000 -0.000002
56  0.000031 0.000030 -0.000001  -1.571902 -0.044449 -0.106509
57  16.124786 -6.087440 -14.570303  1.570796 -0.000000 0.000000
58  -19.213562 7.451548 -15.500427  1.570796 -0.000000 0.000000
59  0.872498 5.095257 -3.603857  1.570796 -0.000000 0.000000
60  -0.004311 0.001230 -0.000371  0.006898 -0.005534 -0.284229
61  2.073871 7.920389 -1.080626  1.570796 -0.000000 0.000000
62  0.000000 0.000000 0.000000  -0.078727 -3.136056 0.284226
63  0.000000 0.000000 0.000000  1.568791 0.003559 -0.000205
64  -4.629879 -9.128850 -2.375900  1.181491 -0.932227 0.435352
65  -0.213908 -1.691285 -0.436933  -0.000000 -0.000000 0.000000
66  -0.213910 0.172055 24.732452  -0.000000 -0.000000 0.000000
67  -0.261577 -0.679982 0.167700  -0.000000 -0.000000 0.000000
68  -0.104048 -4.495924 7.879274  -0.000000 -0.000000 0.000000
69  -0.195264 4.332630 -6.347188  -0.000000 -0.000000 0.000000
70  -0.213909 -0.931879 4.707909  -0.000000 -0.000000 0.000000
71  -0.213908 -0.146791 0.435631  -1.483530 -0.000000 0.000000
72  -2.954527 -11.419245 -2.938887  0.738339 -1.096575 0.503653
time 12
0  0.000006 0.000000 0.000000  -1.570800 -1.391899 -1.570792
1  -4.273980 -4.405353 0.462339  -1.544956 -1.855077 -0.198630
2  6.027519 -0.000326 0.000193  -1.082359 -0.988320 -0.645477
3  11.692106 0.000643 -0.000740  -0.632514 -0.000026 -1.555427
4  11.480021 -0.000014 -0.000920  1.456894 -0.682052 0.035517
5  3.744005 -0.433839 -1.136487  -0.354105 0.078373 -1.009329
6  1.312589 0.000011 0.000008  -0.004457 0.000126 -1.279018
7  0.729355 0.000053 0.000050  -0.003159 0.004932 -1.256571
8  3.979223 0.052255 -0.428519  -0.247892 0.020340 -0.647546
9  1.539111 0.000083 0.000005  -0.005023 0.008216 -1.278252
10  1.196332 0.000145 0.000029  -0.001043 -0.000288 -0.894390
11  3.910957 -0.044652 0.433039  0.040279 -0.002217 -0.280357
12  1.719573 -0.000028 0.000015  -0.011115 0.124956 -1.110069
13  1.209179 0.000093 0.000012  -0.013977 -0.002781 -1.133459
14  3.927637 -0.121671 1.277753  0.013476 -0.106681 -0.129241
15  1.719449 -0.000012 0.000023  0.090051 -0.173678 -0.968943
16  1.099675 0.000048 0.000005  0.015219 0.017252 -0.904591
17  0.707965 -0.411962 1.180790  -0.775232 -0.443788 -0.987305
18  1.789821 -0.000002 -0.000018  0.005579 -0.120713 -0.168853
19  1.207016 -0.000012 -0.000044  0.011140 -0.002034 0.667872
20  5.740635 0.000410 -0.000702  -0.047987 0.000003 0.000071
21  11.481011 0.000208 -0.000842  -0.012313 -0.115672 -0.011164
22  6.027524 -0.000330 0.000203  1.810746 -0.536135 2.049385
23  0.000002 11.692099 -0.000008  -1.062205 -0.506925 -0.830602
24  0.000004 0.000010 -0.000001  0.236587 -0.000031 1.570739
25  -0.000000 -0.000012 -0.000001  0.868957 0.000002 1.570712
26  -2.472767 -7.601693 2.073868  1.473120 1.855075 -0.198639
27  6.027504 -0.000258 -0.000234  1.455277 0.337245 -0.434233
28  11.691992 0.000244 0.000857  0.245670 0.000087 -2.033874
29  11.480295 -0.000232 0.000907  0.067187 0.270420 0.457488
30  3.452861 -0.227595 1.051754  0.793579 -0.056389 -2.032878
31  1.312558 0.000026 0.000001  -0.023242 -0.032433 -0.297509
32  0.729345 0.000065 -0.000028  0.003283 -0.007876 -0.728525
33  3.942046 0.050109 0.430997  0.526040 -0.088921 -1.851546
34  1.539096 0.000010 0.000000  -0.019101 -0.038591 -0.518785
35  1.196300 0.000076 -0.000004  0.003098 -0.002033 -0.962439
36  3.883411 -0.050502 -0.431087  0.243209 -0.300101 -1.300904
37  1.719563 -0.000079 -0.000003  -0.026008 -0.004622 -1.369665
38  1.209196 0.000035 0.000012  0.001336 -0.002658 -0.386737
39  3.806436 -0.112148 -1.295330  -0.394742 0.151493 -0.171919
40  1.719413 -0.000100 -0.000034  0.087366 -0.009572 -0.381532
41  1.099674 0.000024 0.000007  -0.034823 0.011748 0.266223
42  1.247401 -0.127618 -1.568920  0.748170 -0.027639 -1.018690
43  1.789779 -0.000008 -0.000043  0.032980 0.002875 -0.077368
44  1.206996 -0.000006 0.000005  -0.020242 -0.153428 1.290063
45  5.740572 0.000056 0.000724  0.338532 -0.000014 0.000021
46  11.481004 -0.000011 0.000931  0.304194 0.101600 0.017025
47  6.027514 -0.000272 -0.000237  -0.473589 -0.759123 -1.665989
48  -0.000000 11.691975 -0.000005  -1.345923 0.794169 0.968626
49  0.000003 -0.000002 -0.000000  2.518198 -0.000041 1.570856
50  -0.000007 -0.000015 0.000005  2.272644 -0.000030 1.570865
51  -4.733388 -3.709381 -6.383563  -2.146939 -0.152147 -1.347843
52  0.000000 -0.000001 0.000001  0.008153 -0.000259 0.000009
53  0.000000 -0.000000 0.000000  1.565115 0.043565 -0.106862
54  0.660813 -10.375587 -6.861489  0.056432 -0.489028 -1.879456
55  0.000001 0.000000 -0.000000  0.000000 -0.000000 -0.000002
56  0.000030 0.000029 0.000001  -1.571901 -0.044449 -0.106509
57  15.689006 -6.128571 -13.878916  1.570796 -0.000000 0.000000
58  -19.213562 7.451548 -15.500427  1.570796 -0.000000 0.000000
59  0.466651 5.095205 -3.423092  1.570796 -0.000000 0.000000
60  -0.004311 0.001230 -0.000371  0.006898 -0.005534 -0.284229
61  2.073871 7.920389 -1.080626  1.570796 -0.000000 0.000000
62  0.000000 0.000000 0.000000  -0.078727 -3.136056 0.284226
63  0.000000 0.000000 0.000000  1.569955 0.004912 0.000221
64  -4.646306 -9.110371 -2.363069  1.152542 -0.957579 0.477630
65  -0.213908 -1.691285 -0.436931  0.000000 -0.000000 -0.000000
66  -0.213908 0.172054 24.732450  0.000000 -0.000000 -0.000000
67  -0.261576 -0.679982 0.167699  0.000000 -0.000000 -0.000000
68  -0.104047 -4.495924 7.879276  0.000000 -0.000000 -0.000000
69  -0.195263 4.332630 -6.347188  0.000000 -0.000000 -0.000000
70  -0.213908 -0.931879 4.707910  0.000000 -0.000000 -0.000000
71  -0.213907 -0.146792 0.435632  -1.483530 -0.000000 -0.000000
72  -3.058084 -11.636131 -2.667496  0.824470 -1.090477 0.497546
time 13
0  0.000006 0.000000 0.000000  -1.570800 -1.391899 -1.570792
1  -4.110767 -4.434818 0.089974  -1.544956 -1.855077 -0.198630
2  6.027518 -0.000327 0.000193  -1.172250 -0.935484 -0.566257
3  11.692104 0.000643 -0.000740  -0.405857 -0.000032 -1.649204
4  11.479335 -0.000582 -0.001047  1.378424 -0.692038 0.338830
5  3.748232 -0.432013 -1.136912  -0.355060 0.091412 -0.942273
6  1.312590 0.000012 0.000007  -0.015154 0.038687 -1.001372
7  0.729355 0.000052 0.000049  -0.011966 0.004053 -1.605856
8  3.986446 0.053420 -0.427935  -0.284145 -0.027255 -0.599540
9  1.539111 0.000084 0.000006  0.017393 -0.037077 -1.301074
10  1.196333 0.000144 0.000030  0.004728 -0.000573 -0.869208
11  3.916303 -0.044144 0.433362  0.085049 -0.039944 -0.162849
12  1.719573 -0.000026 0.000014  0.001895 0.127236 -0.966451
13  1.209179 0.000092 0.000013  -0.014565 -0.001196 -1.088166
14  3.972444 -0.110595 1.241725  0.075580 -0.146120 -0.176450
15  1.719449 -0.000012 0.000021  0.048400 -0.084403 -0.795117
16  1.099675 0.000050 0.000007  0.005035 0.011636 -0.905347
17  0.646937 -0.451128 1.093344  -0.960677 -0.570909 -0.857846
18  1.789819 -0.000004 -0.000018  -0.003245 -0.063195 -0.133141
19  1.207016 -0.000011 -0.000043  0.002993 -0.001354 0.510697
20  5.740637 0.000410 -0.000702  -0.054933 0.000003 0.000071
21  11.480875 0.000095 -0.000866  -0.011837 -0.121311 0.041372
22  6.027524 -0.000330 0.000203  1.893323 -0.557469 2.011871
23  0.000001 11.692101 -0.000009  -1.117289 -0.560587 -0.863129
24  0.000004 0.000008 -0.000001  0.463248 -0.000031 1.570739
25  -0.000001 -0.000012 -0.000001  0.868957 0.000002 1.570712
26  -2.472767 -7.601693 2.073868  1.473120 1.855075 -0.198639
27  6.027504 -0.000258 -0.000234  1.452340 0.334715 -0.434795
28  11.691992 0.000244 0.000857  0.245670 0.000087 -2.044220
29  11.480190 -0.000300 0.000924  0.119396 0.260573 0.456931
30  3.452861 -0.227595 1.051754  0.793579 -0.056389 -2.032878
31  1.312557 0.000026 -0.000000  -0.023242 -0.032433 -0.297509
32  0.729345 0.000066 -0.000027  0.003283 -0.007876 -0.728525
33  3.942047 0.050109 0.430997  0.526040 -0.088921 -1.851546
34  1.539096 0.000009 0.000000  -0.019101 -0.038591 -0.518785
35  1.196299 0.000076 -0.000004  0.003098 -0.002033 -0.962439
36  3.883412 -0.050502 -0.431087  0.243209 -0.300101 -1.300904
37  1.719564 -0.000079 -0.000004  -0.026008 -0.004622 -1.369665
38  1.209197 0.000036 0.000011  0.001336 -0.002658 -0.386737
39  3.806436 -0.112148 -1.295330  -0.394742 0.151493 -0.171919
40  1.719412 -0.000100 -0.000035  0.087366 -0.009572 -0.381532
41  1.099673 0.000024 0.000007  -0.034823 0.011748 0.266224
42  1.247401 -0.127618 -1.568920  0.748170 -0.027639 -1.018690
43  1.789780 -0.000010 -0.000043  0.032980 0.002875 -0.077368
44  1.206997 -0.000006 0.000005  -0.020242 -0.153428 1.290064
45  5.740572 0.000056 0.000725  0.349473 -0.000014 0.000021
46  11.480983 -0.000025 0.000935  0.314773 0.102299 0.015994
47  6.027514 -0.000272 -0.000237  -0.471567 -0.762579 -1.666977
48  -0.000000 11.691973 -0.000005  -1.352320 0.800685 0.970729
49  0.000004 0.000000 0.000000  2.518198 -0.000041 1.570856
50  -0.000006 -0.000015 0.000005  2.272644 -0.000030 1.570865
51  -4.680097 -3.613579 -6.361011  -2.095088 -0.149655 -1.331785
52  0.000000 -0.000001 0.000000  0.008153 -0.000259 0.000009
53  -0.000000 0.000000 0.000000  1.565115 0.043565 -0.106862
54  1.054084 -9.841053 -6.385864  0.293758 -0.459046 -1.792991
55  0.000000 -0.000000 0.000000  0.000000 -0.000001 -0.000002
56  0.000030 0.000029 0.000002  -1.571901 -0.044449 -0.106509
57  15.025042 -6.191240 -13.341413  1.570796 -0.000000 0.000000
58  -19.213562 7.451548 -15.500427  1.570796 -0.000000 0.000000
59  0.094286 5.095157 -3.257241  1.570796 -0.000000 0.000000
60  -0.004311 0.001230 -0.000371  0.006898 -0.005534 -0.284229
61  2.073871 7.920389 -1.080626  1.570796 -0.000000 0.000000
62  0.000000 0.000000 0.000000  -0.078727 -3.136056 0.284226
63  0.000000 0.000000 0.000000  1.571045 0.005425 0.000649
64  -4.660069 -9.069715 -2.414770  1.132506 -1.007685 0.518159
65  -0.213908 -1.691285 -0.436931  0.000000 0.000000 0.000000
66  -0.213910 0.172055 24.732449  0.000000 0.000000 0.000000
67  -0.261577 -0.679982 0.167700  0.000000 0.000000 0.000000
68  -0.104048 -4.495924 7.879276  0.000000 0.000000 0.000000
69  -0.195264 4.332630 -6.347187  0.000000 0.000000 0.000000
70  -0.213909 -0.931879 4.707910  0.000000 0.000000 0.000000
71  -0.213908 -0.146791 0.435631  -1.483530 0.000000 0.000000
72  -3.044967 -11.659492 -2.617433  0.805237 -1.140260 0.547102
time 14
0  0.000006 0.000000 0.000000  -1.570800 -1.391899 -1.570792
1  -3.974471 -4.459424 -0.220979  -1.544956 -1.855077 -0.198630
2  6.027518 -0.000327 0.000194  -1.258179 -0.892751 -0.525043
3  11.692106 0.000644 -0.000739  -0.135736 -0.000037 -1.731796
4  11.480542 -0.000150 -0.000761  1.287255 -0.517210 0.589362
5  3.751760 -0.430487 -1.137269  -0.350585 0.088933 -0.879911
6  1.312590 0.000012 0.000006  -0.013609 0.058079 -0.774724
7  0.729355 0.000054 0.000050  -0.015728 0.002606 -1.758053
8  3.992479 0.054393 -0.427449  -0.275582 -0.004494 -0.639453
9  1.539110 0.000082 0.000006  0.005808 -0.014347 -1.112593
10  1.196332 0.000145 0.000030  0.001339 0.000947 -1.008147
11  3.920768 -0.043718 0.433631  -0.032994 -0.033185 -0.126189
12  1.719573 -0.000027 0.000014  -0.009011 0.122622 -1.101026
13  1.209179 0.000092 0.000013  -0.014298 -0.000424 -1.004603
14  4.017249 -0.099519 1.205696  0.101652 -0.181868 -0.051670
15  1.719449 -0.000012 0.000021  0.041098 -0.024381 -0.897842
16  1.099675 0.000049 0.000006  0.000879 0.005681 -0.881566
17  0.585274 -0.490701 1.004988  -1.139457 -0.606367 -0.776487
18  1.789819 -0.000004 -0.000018  -0.006537 -0.031384 -0.118035
19  1.207015 -0.000012 -0.000044  0.000410 -0.001721 0.500710
20  5.740636 0.000412 -0.000701  -0.078571 0.000003 0.000070
21  11.481116 0.000184 -0.000810  -0.026900 -0.094020 0.089358
22  6.027524 -0.000330 0.000203  1.972974 -0.561836 1.942693
23  0.000002 11.692100 -0.000007  -1.165685 -0.609062 -0.889739
24  0.000002 0.000011 -0.000002  0.733371 -0.000030 1.570738
25  -0.000000 -0.000012 -0.000000  0.868957 0.000002 1.570712
26  -2.472767 -7.601693 2.073868  1.473120 1.855075 -0.198639
27  6.027504 -0.000258 -0.000234  1.444973 0.335020 -0.436950
28  11.691993 0.000243 0.000856  0.245670 0.000088 -2.058941
29  11.480044 -0.000395 0.000949  0.189508 0.257939 0.469718
30  3.452862 -0.227596 1.051754  0.793579 -0.056389 -2.032878
31  1.312559 0.000026 0.000000  -0.023242 -0.032433 -0.297509
32  0.729345 0.000065 -0.000027  0.003283 -0.007876 -0.728525
33  3.942046 0.050108 0.430997  0.526040 -0.088921 -1.851546
34  1.539096 0.000010 -0.000000  -0.019101 -0.038591 -0.518785
35  1.196300 0.000076 -0.000004  0.003098 -0.002033 -0.962439
36  3.883412 -0.050502 -0.431087  0.243209 -0.300101 -1.300904
37  1.719564 -0.000078 -0.000004  -0.026008 -0.004622 -1.369665
38  1.209198 0.000036 0.000010  0.001336 -0.002658 -0.386737
39  3.806437 -0.112149 -1.295329  -0.394742 0.151493 -0.171919
40  1.719411 -0.000101 -0.000034  0.087366 -0.009572 -0.381532
41  1.099674 0.000025 0.000007  -0.034822 0.011748 0.266223
42  1.247401 -0.127620 -1.568920  0.748170 -0.027639 -1.018690
43  1.789779 -0.000009 -0.000043  0.032980 0.002875 -0.077368
44  1.206996 -0.000006 0.000006  -0.020242 -0.153428 1.290064
45  5.740573 0.000055 0.000724  0.364214 -0.000014 0.000021
46  11.480954 -0.000044 0.000940  0.327565 0.106817 0.015423
47  6.027514 -0.000272 -0.000237  -0.475194 -0.769034 -1.664198
48  -0.000002 11.691975 -0.000005  -1.361462 0.809972 0.973640
49  0.000002 -0.000002 0.000001  2.518198 -0.000041 1.570856
50  -0.000008 -0.000015 0.000005  2.272644 -0.000030 1.570865
51  -4.547465 -3.481649 -6.325869  -2.025807 -0.142775 -1.321281
52  0.000000 0.000000 -0.000000  0.008153 -0.000259 0.000009
53  -0.000000 -0.000001 0.000000  1.565115 0.043565 -0.106862
54  1.406936 -9.339546 -5.681715  0.506553 -0.428454 -1.779997
55  0.000001 -0.000000 -0.000001  0.000000 -0.000000 -0.000002
56  0.000031 0.000029 -0.000000  -1.571901 -0.044449 -0.106509
57  14.271936 -6.262322 -12.975546  1.570796 -0.000000 0.000000
58  -19.213562 7.451548 -15.500427  1.570796 -0.000000 0.000000
59  -0.216667 5.095117 -3.118742  1.570796 -0.000000 0.000000
60  -0.004311 0.001230 -0.000371  0.006898 -0.005534 -0.284229
61  2.073871 7.920389 -1.080626  1.570796 -0.000000 0.000000
62  0.000000 0.000000 0.000000  -0.078727 -3.136056 0.284226
63  0.000000 0.000000 0.000000  1.571954 0.003793 0.000978
64  -4.665841 -9.029060 -2.510785  1.105990 -1.075262 0.561661
65  -0.213908 -1.691284 -0.436931  0.000000 -0.000000 0.000000
66  -0.213908 0.172055 24.732449  0.000000 -0.000000 0.000000
67  -0.261576 -0.679982 0.167701  0.000000 -0.000000 0.000000
68  -0.104047 -4.495924 7.879276  0.000000 -0.000000 0.000000
69  -0.195264 4.332630 -6.347188  0.000000 -0.000000 0.000000
70  -0.213908 -0.931880 4.707911  0.000000 -0.000000 0.000000
71  -0.213907 -0.146791 0.435632  -1.483530 -0.000000 0.000000
72  -2.992142 -11.627282 -2.660015  0.755257 -1.204422 0.616837
time 15
0  0.000006 0.000000 0.000000  -1.570800 -1.391899 -1.570792
1  -3.873490 -4.477655 -0.451367  -1.544956 -1.855077 -0.198630
2  6.027517 -0.000327 0.000194  -1.277692 -0.886083 -0.529967
3  11.692105 0.000646 -0.000740  0.106912 -0.000039 -1.742826
4  11.480440 -0.000405 -0.000695  1.107166 -0.361057 0.685962
5  3.754375 -0.429357 -1.137531  -0.305819 0.061821 -0.813259
6  1.312590 0.000012 0.000008  -0.018301 0.027727 -0.619945
7  0.729355 0.000053 0.000050  -0.010248 0.003261 -1.566473
8  3.996946 0.055114 -0.427087  -0.246218 0.017113 -0.679678
9  1.539111 0.000083 0.000005  -0.000753 0.010227 -0.813608
10  1.196332 0.000146 0.000028  -0.002228 0.001983 -1.147089
11  3.924076 -0.043403 0.433832  -0.215154 -0.017690 -0.118109
12  1.719573 -0.000027 0.000016  -0.015914 0.101636 -1.235065
13  1.209179 0.000092 0.000012  -0.012770 0.001121 -0.855884
14  4.054031 -0.090426 1.176120  0.097152 -0.213248 0.077464
15  1.719449 -0.000012 0.000022  0.034741 0.013177 -1.001263
16  1.099674 0.000048 0.000005  -0.001449 0.001977 -0.816177
17  0.535336 -0.522748 0.933438  -1.218792 -0.606039 -0.756972
18  1.789820 -0.000003 -0.000018  -0.007909 -0.013196 -0.109881
19  1.207015 -0.000012 -0.000044  -0.000446 -0.002015 0.499284
20  5.740638 0.000410 -0.000702  -0.123200 0.000003 0.000070
21  11.481096 0.000133 -0.000798  -0.067711 -0.076342 0.105335
22  6.027524 -0.000330 0.000203  1.989189 -0.559214 1.913992
23  0.000002 11.692100 -0.000006  -1.172151 -0.615616 -0.893144
24  0.000003 0.000009 -0.000000  0.976018 -0.000031 1.570739
25  0.000000 -0.000011 -0.000001  0.868957 0.000002 1.570712
26  -2.472767 -7.601693 2.073868  1.473120 1.855075 -0.198639
27  6.027504 -0.000258 -0.000234  1.437073 0.341548 -0.440070
28  11.691993 0.000243 0.000856  0.245670 0.000089 -2.069108
29  11.479939 -0.000460 0.000965  0.249503 0.266519 0.484982
30  3.452861 -0.227595 1.051754  0.793579 -0.056389 -2.032878
31  1.312558 0.000025 -0.000000  -0.023242 -0.032433 -0.297509
32  0.729346 0.000065 -0.000027  0.003283 -0.007876 -0.728525
33  3.942046 0.050109 0.430997  0.526040 -0.088921 -1.851546
34  1.539096 0.000010 0.000000  -0.019101 -0.038591 -0.518785
35  1.196299 0.000075 -0.000003  0.003098 -0.002033 -0.962439
36  3.883411 -0.050502 -0.431087  0.243209 -0.300101 -1.300904
37  1.719563 -0.000080 -0.000004  -0.026008 -0.004622 -1.369665
38  1.209197 0.000036 0.000011  0.001336 -0.002658 -0.386737
39  3.806436 -0.112148 -1.295329  -0.394742 0.151493 -0.171919
40  1.719412 -0.000100 -0.000035  0.087366 -0.009572 -0.381532
41  1.099673 0.000025 0.000006  -0.034822 0.011748 0.266223
42  1.247401 -0.127619 -1.568920  0.748170 -0.027639 -1.018690
43  1.789779 -0.000009 -0.000042  0.032980 0.002875 -0.077368
44  1.206996 -0.000006 0.000006  -0.020242 -0.153428 1.290064
45  5.740571 0.000057 0.000724  0.376571 -0.000014 0.000021
46  11.480931 -0.000055 0.000943  0.337352 0.113087 0.013906
47  6.027514 -0.000272 -0.000237  -0.487306 -0.773804 -1.656252
48  0.000000 11.691975 -0.000006  -1.367806 0.816397 0.975595
49  0.000003 0.000000 -0.000000  2.518198 -0.000041 1.570856
50  -0.000007 -0.000015 0.000005  2.272644 -0.000030 1.570865
51  -4.380654 -3.401513 -6.277734  -1.965668 -0.141633 -1.319879
52  0.000000 0.000000 0.000000  0.008153 -0.000259 0.000009
53  -0.000000 -0.000000 0.000000  1.565115 0.043565 -0.106862
54  1.318471 -9.288163 -5.396590  0.523590 -0.430996 -1.770544
55  0.000000 0.000000 -0.000001  0.000000 -0.000000 -0.000002
56  0.000031 0.000029 0.000001  -1.571902 -0.044449 -0.106509
57  13.607971 -6.324992 -12.766472  1.570796 -0.000000 0.000000
58  -19.213562 7.451548 -15.500427  1.570796 -0.000000 0.000000
59  -0.447055 5.095088 -3.016127  1.570796 -0.000000 0.000000
60  -0.004311 0.001230 -0.000371  0.006898 -0.005534 -0.284229
61  2.073871 7.920389 -1.080626  1.570796 -0.000000 0.000000
62  0.000000 0.000000 0.000000  -0.078727 -3.136056 0.284226
63  0.000000 0.000000 0.000000  1.572575 0.000204 0.001106
64  -4.659816 -9.010581 -2.562486  1.064967 -1.131876 0.608232
65  -0.213908 -1.691284 -0.436932  -0.000000 0.000000 0.000000
66  -0.213909 0.172055 24.732452  -0.000000 0.000000 0.000000
67  -0.261576 -0.679982 0.167700  -0.000000 0.000000 0.000000
68  -0.104048 -4.495923 7.879277  -0.000000 0.000000 0.000000
69  -0.195264 4.332630 -6.347186  -0.000000 0.000000 0.000000
70  -0.200449 -0.931880 5.247969  -0.000000 0.000000 0.000000
71  -0.213907 -0.146791 0.435631  -1.483530 0.000000 0.000000
72  -3.028723 -11.816666 -2.592340  0.856957 -1.158709 0.521968
time 16
0  0.000006 0.000000 0.000000  -1.570800 -1.391899 -1.570792
1  -3.812248 -4.488710 -0.591086  -1.544956 -1.855077 -0.198630
2  6.027519 -0.000327 0.000193  -1.259305 -0.977538 -0.585095
3  11.692105 0.000644 -0.000738  0.264915 -0.000034 -1.661271
4  11.479254 -0.001150 -0.000450  0.990025 -0.281526 0.929997
5  3.755961 -0.428672 -1.137691  -0.221628 0.012378 -0.754392
6  1.312591 0.000012 0.000007  -0.040343 -0.036814 -0.497692
7  0.729355 0.000054 0.000049  0.001532 0.001042 -1.148021
8  3.999657 0.055551 -0.426868  -0.181103 -0.039850 -0.591379
9  1.539111 0.000085 0.000006  -0.022959 -0.046748 -0.621924
10  1.196332 0.000145 0.000030  0.003802 0.002785 -1.006662
11  3.926083 -0.043211 0.433954  -0.330611 -0.053461 -0.139823
12  1.719572 -0.000027 0.000015  0.004818 0.055813 -0.971475
13  1.209180 0.000093 0.000012  -0.007492 0.002671 -0.560384
14  4.077396 -0.084650 1.157335  -0.036174 -0.187575 0.057631
15  1.719448 -0.000012 0.000022  0.027423 0.024827 -0.754225
16  1.099675 0.000049 0.000006  -0.003195 0.001907 -0.697563
17  0.513960 -0.536467 0.902808  -0.875970 -0.518236 -0.779684
18  1.789818 -0.000004 -0.000018  -0.008978 -0.002054 -0.098286
19  1.207015 -0.000013 -0.000043  -0.001674 -0.001958 0.609550
20  5.740638 0.000410 -0.000703  -0.169058 0.000003 0.000070
21  11.480858 -0.000015 -0.000750  -0.089358 -0.078869 0.151832
22  6.027524 -0.000330 0.000203  1.913465 -0.494387 1.911745
23  0.000001 11.692099 -0.000006  -1.124359 -0.567602 -0.867140
24  0.000004 0.000010 -0.000002  1.134019 -0.000030 1.570739
25  -0.000001 -0.000012 -0.000000  0.868957 0.000002 1.570712
26  -2.472767 -7.601693 2.073868  1.473120 1.855075 -0.198639
27  6.027504 -0.000258 -0.000234  1.434119 0.351789 -0.442287
28  11.691992 0.000243 0.000857  0.245670 0.000089 -2.067120
29  11.479959 -0.000449 0.000962  0.274140 0.275644 0.491385
30  3.452861 -0.227595 1.051754  0.793579 -0.056389 -2.032878
31  1.312559 0.000026 0.000000  -0.023242 -0.032433 -0.297509
32  0.729345 0.000066 -0.000028  0.003283 -0.007876 -0.728525
33  3.942046 0.050109 0.430997  0.526040 -0.088921 -1.851546
34  1.539097 0.000010 0.000000  -0.019101 -0.038591 -0.518785
35  1.196300 0.000076 -0.000004  0.003098 -0.002033 -0.962439
36  3.883411 -0.050501 -0.431087  0.243209 -0.300101 -1.300904
37  1.719563 -0.000079 -0.000004  -0.026008 -0.004622 -1.369665
38  1.209197 0.000035 0.000011  0.001336 -0.002658 -0.386737
39  3.806435 -0.112148 -1.295329  -0.394742 0.151493 -0.171919
40  1.719412 -0.000100 -0.000034  0.087366 -0.009572 -0.381532
41  1.099674 0.000024 0.000007  -0.034822 0.011748 0.266224
42  1.247401 -0.127618 -1.568921  0.748170 -0.027639 -1.018690
43  1.789778 -0.000008 -0.000042  0.032980 0.002875 -0.077368
44  1.206997 -0.000007 0.000005  -0.020242 -0.153428 1.290064
45  5.740571 0.000055 0.000724  0.381439 -0.000014 0.000021
46  11.480935 -0.000053 0.000943  0.340844 0.116551 0.012357
47  6.027514 -0.000272 -0.000237  -0.502066 -0.772794 -1.647155
48  0.000000 11.691975 -0.000006  -1.366563 0.815140 0.975217
49  0.000004 -0.000002 0.000001  2.518198 -0.000041 1.570856
50  -0.000006 -0.000015 0.000005  2.272644 -0.000030 1.570865
51  -4.277333 -3.439979 -6.238616  -1.940402 -0.145822 -1.323233
52  -0.000000 0.000000 0.000000  0.008153 -0.000259 0.000009
53  -0.000000 0.000000 -0.000000  1.565115 0.043565 -0.106862
54  0.431017 -9.820906 -4.638725  0.481161 -0.377166 -1.560293
55  0.000000 -0.000000 -0.000000  0.000000 -0.000000 -0.000002
56  0.000030 0.000029 0.000001  -1.571902 -0.044449 -0.106509
57  13.172190 -6.366123 -12.673286  1.570796 -0.000000 0.000000
58  -19.213562 7.451548 -15.500427  1.570796 -0.000000 0.000000
59  -0.586774 5.095069 -2.953896  1.570796 -0.000000 0.000000
60  -0.004311 0.001230 -0.000371  0.006898 -0.005534 -0.284229
61  2.073871 7.920389 -1.080626  1.570796 -0.000000 0.000000
62  0.000000 0.000000 0.000000  -0.078727 -3.136056 0.284226
63  0.000000 0.000000 0.000000  1.572806 -0.003384 0.000550
64  -4.648626 -9.056949 -2.543425  1.033597 -1.153633 0.637039
65  -0.213908 -1.691284 -0.436931  -0.000000 0.000000 0.000000
66  -0.213908 0.172055 24.732450  -0.000000 0.000000 0.000000
67  -0.261576 -0.679981 0.167700  -0.000000 0.000000 0.000000
68  -0.104048 -4.495922 7.879277  -0.000000 0.000000 0.000000
69  -0.195264 4.332630 -6.347187  -0.000000 0.000000 0.000000
70  -0.200449 -0.931879 6.245183  -0.000000 0.000000 0.000000
71  -0.213907 -0.146791 0.435631  -1.483530 0.000000 0.000000
72  -3.214971 -13.517447 -2.082020  1.028163 -1.162679 0.599406
time 17
0  0.000006 0.000000 0.000000  -1.570800 -1.391899 -1.570792
1  -3.791962 -4.492373 -0.637369  -1.544956 -1.855077 -0.198630
2  6.027519 -0.000327 0.000193  -1.232691 -0.987883 -0.602402
3  11.692110 0.000643 -0.000740  0.317675 -0.000031 -1.640222
4  11.479400 -0.001100 -0.000409  0.945544 -0.295024 0.971394
5  3.756487 -0.428445 -1.137743  -0.183722 -0.010726 -0.734966
6  1.312590 0.000012 0.000007  -0.052792 -0.066402 -0.457461
7  0.729355 0.000053 0.000049  0.006399 -0.001561 -0.956459
8  4.000556 0.055696 -0.426795  -0.142694 -0.098918 -0.504703
9  1.539111 0.000084 0.000005  -0.050546 -0.101865 -0.538206
10  1.196331 0.000143 0.000029  0.009885 0.002735 -0.866231
11  3.926749 -0.043148 0.433994  -0.377995 -0.085522 -0.162295
12  1.719573 -0.000027 0.000015  0.013635 0.021510 -0.709165
13  1.209178 0.000091 0.000012  -0.003564 0.002488 -0.369891
14  4.085223 -0.082716 1.151041  -0.166729 -0.164169 0.030978
15  1.719448 -0.000011 0.000023  0.024233 0.023234 -0.507360
16  1.099676 0.000048 0.000007  -0.003350 0.002242 -0.620629
17  0.513960 -0.536467 0.902808  -0.879064 -0.518438 -0.773456
18  1.789820 -0.000003 -0.000018  -0.008423 -0.007423 -0.105580
19  1.207015 -0.000013 -0.000044  -0.001007 -0.001905 0.669912
20  5.740638 0.000411 -0.000703  -0.174719 0.000003 0.000071
21  11.480887 -0.000004 -0.000741  -0.095030 -0.086639 0.157054
22  6.027524 -0.000330 0.000204  1.892986 -0.494706 1.926302
23  0.000002 11.692101 -0.000007  -1.112024 -0.555382 -0.860118
24  0.000003 0.000008 0.000000  1.186779 -0.000030 1.570739
25  -0.000001 -0.000011 -0.000000  0.868957 0.000002 1.570712
26  -2.472767 -7.601693 2.073868  1.473120 1.855075 -0.198639
27  6.027504 -0.000258 -0.000234  1.438376 0.349652 -0.440717
28  11.691992 0.000243 0.000857  0.245670 0.000088 -2.057760
29  11.480055 -0.000388 0.000947  0.227205 0.272079 0.487383
30  3.452861 -0.227595 1.051755  0.793579 -0.056389 -2.032878
31  1.312558 0.000025 0.000000  -0.023242 -0.032433 -0.297509
32  0.729345 0.000065 -0.000027  0.003283 -0.007876 -0.728525
33  3.942046 0.050108 0.430997  0.526040 -0.088921 -1.851546
34  1.539097 0.000010 0.000001  -0.019101 -0.038591 -0.518785
35  1.196299 0.000076 -0.000004  0.003099 -0.002033 -0.962439
36  3.883412 -0.050502 -0.431087  0.243209 -0.300101 -1.300904
37  1.719563 -0.000079 -0.000003  -0.026008 -0.004622 -1.369665
38  1.209197 0.000036 0.000011  0.001336 -0.002658 -0.386737
39  3.806436 -0.112148 -1.295329  -0.394742 0.151493 -0.171919
40  1.719411 -0.000099 -0.000034  0.087366 -0.009572 -0.381532
41  1.099673 0.000025 0.000007  -0.034822 0.011748 0.266223
42  1.247401 -0.127619 -1.568920  0.748170 -0.027639 -1.018690
43  1.789779 -0.000010 -0.000043  0.032980 0.002875 -0.077368
44  1.206997 -0.000007 0.000005  -0.020242 -0.153428 1.290064
45  5.740572 0.000055 0.000724  0.371877 -0.000014 0.000021
46  11.480956 -0.000042 0.000939  0.332629 0.113208 0.014504
47  6.027514 -0.000272 -0.000237  -0.497299 -0.769817 -1.650371
48  -0.000000 11.691974 -0.000006  -1.360727 0.809226 0.973410
49  0.000004 -0.000001 0.000001  2.518198 -0.000041 1.570856
50  -0.000006 -0.000015 0.000005  2.272644 -0.000030 1.570865
51  -4.373700 -3.519958 -6.278892  -1.988175 -0.142185 -1.329194
52  -0.000000 -0.000001 -0.000000  0.008153 -0.000259 0.000009
53  0.000000 -0.000000 0.000000  1.565115 0.043565 -0.106862
54  0.185406 -9.944021 -4.758773  0.465634 -0.399297 -1.506629
55  -0.000001 -0.000000 0.000000  0.000000 -0.000000 -0.000002
56  0.000031 0.000029 0.000001  -1.571901 -0.044449 -0.106509
57  13.024888 -6.380027 -12.650742  1.570796 -0.000000 0.000000
58  -19.213562 7.451548 -15.500427  1.570796 -0.000000 0.000000
59  -0.633057 5.095064 -2.933281  1.570796 -0.000000 0.000000
60  -0.004311 0.001230 -0.000371  0.006898 -0.005534 -0.284229
61  2.073871 7.920389 -1.080626  1.570796 -0.000000 0.000000
62  0.000000 0.000000 0.000000  -0.078727 -3.136056 0.284226
63  0.000000 0.000000 0.000000  1.570796 -0.005015 0.000000
64  -4.642601 -9.103315 -2.524364  1.081278 -1.110744 0.581040
65  -0.213908 -1.691285 -0.436931  0.000000 0.000000 -0.000000
66  -0.213909 0.172055 24.732450  0.000000 0.000000 -0.000000
67  -0.261577 -0.679982 0.167699  0.000000 0.000000 -0.000000
68  -0.104048 -4.495923 7.879275  0.000000 0.000000 -0.000000
69  -0.195264 4.332630 -6.347187  0.000000 0.000000 -0.000000
70  -0.200449 -0.931879 6.775180  0.000000 0.000000 -0.000000
71  -0.213908 -0.146791 0.435632  -1.483530 0.000000 -0.000000
72  -3.242824 -13.679090 -2.098336  1.081278 -1.110744 0.581040
end
